<?xml version="1.0" encoding="UTF-8"?>
<svg xmlns="http://www.w3.org/2000/svg" xmlns:xlink="http://www.w3.org/1999/xlink" width="512pt" height="512pt" viewBox="0 0 512 512" version="1.1">
<g id="surface201">
<rect x="0" y="0" width="512" height="512" style="fill:rgb(26.7%,26.7%,26.7%);fill-opacity:1;stroke:none;"/>
<path style=" stroke:none;fill-rule:nonzero;fill:rgb(19.2%,38.8%,66.7%);fill-opacity:1;" d="M 194.046875 190.464844 L 275.453125 190.464844 L 275.453125 317.441406 L 194.046875 317.441406 Z M 194.046875 190.464844 "/>
<path style=" stroke:none;fill-rule:nonzero;fill:rgb(100%,100%,100%);fill-opacity:1;" d="M 501.761719 313.855469 C 501.761719 317.269531 496.640625 317.269531 496.640625 313.855469 C 496.640625 310.441406 501.761719 310.441406 501.761719 313.855469 "/>
<path style=" stroke:none;fill-rule:nonzero;fill:rgb(100%,100%,100%);fill-opacity:1;" d="M 195.585938 105.984375 C 195.585938 109.398438 190.464844 109.398438 190.464844 105.984375 C 190.464844 102.570312 195.585938 102.570312 195.585938 105.984375 "/>
<path style=" stroke:none;fill-rule:nonzero;fill:rgb(100%,100%,100%);fill-opacity:1;" d="M 80.382812 326.65625 C 80.382812 330.070312 75.265625 330.070312 75.265625 326.65625 C 75.265625 323.242188 80.382812 323.242188 80.382812 326.65625 "/>
<path style=" stroke:none;fill-rule:nonzero;fill:rgb(100%,100%,100%);fill-opacity:1;" d="M 157.695312 424.449219 C 157.695312 427.863281 152.574219 427.863281 152.574219 424.449219 C 152.574219 421.035156 157.695312 421.035156 157.695312 424.449219 "/>
<path style=" stroke:none;fill-rule:nonzero;fill:rgb(100%,100%,100%);fill-opacity:1;" d="M 242.175781 127.488281 C 242.175781 130.902344 237.054688 130.902344 237.054688 127.488281 C 237.054688 124.074219 242.175781 124.074219 242.175781 127.488281 "/>
<path style=" stroke:none;fill-rule:nonzero;fill:rgb(100%,100%,100%);fill-opacity:1;" d="M 352.257812 37.375 C 352.257812 40.789062 347.136719 40.789062 347.136719 37.375 C 347.136719 33.960938 352.257812 33.960938 352.257812 37.375 "/>
<path style=" stroke:none;fill-rule:nonzero;fill:rgb(100%,100%,100%);fill-opacity:1;" d="M 100.351562 47.617188 C 100.351562 51.03125 95.230469 51.03125 95.230469 47.617188 C 95.230469 44.203125 100.351562 44.203125 100.351562 47.617188 "/>
<path style=" stroke:none;fill-rule:nonzero;fill:rgb(100%,100%,100%);fill-opacity:1;" d="M 394.238281 60.929688 C 394.238281 64.339844 389.121094 64.339844 389.121094 60.929688 C 389.121094 57.515625 394.238281 57.515625 394.238281 60.929688 "/>
<path style=" stroke:none;fill-rule:nonzero;fill:rgb(100%,100%,100%);fill-opacity:1;" d="M 55.808594 475.648438 C 55.808594 479.0625 50.6875 479.0625 50.6875 475.648438 C 50.6875 472.234375 55.808594 472.234375 55.808594 475.648438 "/>
<path style=" stroke:none;fill-rule:nonzero;fill:rgb(100%,100%,100%);fill-opacity:1;" d="M 177.664062 8.191406 C 177.664062 11.605469 172.542969 11.605469 172.542969 8.191406 C 172.542969 4.777344 177.664062 4.777344 177.664062 8.191406 "/>
<path style=" stroke:none;fill-rule:nonzero;fill:rgb(100%,100%,100%);fill-opacity:1;" d="M 448 135.167969 C 448 138.582031 442.878906 138.582031 442.878906 135.167969 C 442.878906 131.753906 448 131.753906 448 135.167969 "/>
<path style=" stroke:none;fill-rule:nonzero;fill:rgb(100%,100%,100%);fill-opacity:1;" d="M 199.167969 463.871094 C 199.167969 467.285156 194.046875 467.285156 194.046875 463.871094 C 194.046875 460.457031 199.167969 460.457031 199.167969 463.871094 "/>
<path style=" stroke:none;fill-rule:nonzero;fill:rgb(100%,100%,100%);fill-opacity:1;" d="M 422.910156 433.664062 C 422.910156 437.078125 417.792969 437.078125 417.792969 433.664062 C 417.792969 430.25 422.910156 430.25 422.910156 433.664062 "/>
<path style=" stroke:none;fill-rule:nonzero;fill:rgb(100%,100%,100%);fill-opacity:1;" d="M 350.207031 152.574219 C 350.207031 155.988281 345.089844 155.988281 345.089844 152.574219 C 345.089844 149.164062 350.207031 149.164062 350.207031 152.574219 "/>
<path style=" stroke:none;fill-rule:nonzero;fill:rgb(100%,100%,100%);fill-opacity:1;" d="M 504.832031 392.191406 C 504.832031 395.605469 499.710938 395.605469 499.710938 392.191406 C 499.710938 388.777344 504.832031 388.777344 504.832031 392.191406 "/>
<path style=" stroke:none;fill-rule:nonzero;fill:rgb(100%,100%,100%);fill-opacity:1;" d="M 285.183594 284.671875 C 285.183594 288.085938 280.0625 288.085938 280.0625 284.671875 C 280.0625 281.257812 285.183594 281.257812 285.183594 284.671875 "/>
<path style=" stroke:none;fill-rule:nonzero;fill:rgb(100%,100%,100%);fill-opacity:1;" d="M 398.335938 235.519531 C 398.335938 238.933594 393.214844 238.933594 393.214844 235.519531 C 393.214844 232.105469 398.335938 232.105469 398.335938 235.519531 "/>
<path style=" stroke:none;fill-rule:nonzero;fill:rgb(100%,100%,100%);fill-opacity:1;" d="M 217.601562 362.496094 C 217.601562 365.910156 212.480469 365.910156 212.480469 362.496094 C 212.480469 359.082031 217.601562 359.082031 217.601562 362.496094 "/>
<path style=" stroke:none;fill-rule:nonzero;fill:rgb(100%,100%,100%);fill-opacity:1;" d="M 88.0625 460.289062 C 88.0625 463.703125 82.945312 463.703125 82.945312 460.289062 C 82.945312 456.875 88.0625 456.875 88.0625 460.289062 "/>
<path style=" stroke:none;fill-rule:nonzero;fill:rgb(100%,100%,100%);fill-opacity:1;" d="M 135.167969 308.734375 C 135.167969 312.148438 130.046875 312.148438 130.046875 308.734375 C 130.046875 305.324219 135.167969 305.324219 135.167969 308.734375 "/>
<path style=" stroke:none;fill-rule:nonzero;fill:rgb(100%,100%,100%);fill-opacity:1;" d="M 167.9375 385.023438 C 167.9375 388.4375 162.816406 388.4375 162.816406 385.023438 C 162.816406 381.609375 167.9375 381.609375 167.9375 385.023438 "/>
<path style=" stroke:none;fill-rule:nonzero;fill:rgb(100%,100%,100%);fill-opacity:1;" d="M 258.046875 425.984375 C 258.046875 429.398438 252.929688 429.398438 252.929688 425.984375 C 252.929688 422.570312 258.046875 422.570312 258.046875 425.984375 "/>
<path style=" stroke:none;fill-rule:nonzero;fill:rgb(100%,100%,100%);fill-opacity:1;" d="M 112.640625 460.289062 C 112.640625 463.703125 107.519531 463.703125 107.519531 460.289062 C 107.519531 456.875 112.640625 456.875 112.640625 460.289062 "/>
<path style=" stroke:none;fill-rule:nonzero;fill:rgb(100%,100%,100%);fill-opacity:1;" d="M 505.34375 383.488281 C 505.34375 386.902344 500.222656 386.902344 500.222656 383.488281 C 500.222656 380.074219 505.34375 380.074219 505.34375 383.488281 "/>
<path style=" stroke:none;fill-rule:nonzero;fill:rgb(100%,100%,100%);fill-opacity:1;" d="M 258.558594 318.976562 C 258.558594 322.390625 253.441406 322.390625 253.441406 318.976562 C 253.441406 315.5625 258.558594 315.5625 258.558594 318.976562 "/>
<path style=" stroke:none;fill-rule:nonzero;fill:rgb(100%,100%,100%);fill-opacity:1;" d="M 340.480469 106.496094 C 340.480469 109.910156 335.359375 109.910156 335.359375 106.496094 C 335.359375 103.082031 340.480469 103.082031 340.480469 106.496094 "/>
<path style=" stroke:none;fill-rule:nonzero;fill:rgb(100%,100%,100%);fill-opacity:1;" d="M 89.601562 123.902344 C 89.601562 127.316406 84.480469 127.316406 84.480469 123.902344 C 84.480469 120.492188 89.601562 120.492188 89.601562 123.902344 "/>
<path style=" stroke:none;fill-rule:nonzero;fill:rgb(100%,100%,100%);fill-opacity:1;" d="M 248.832031 56.832031 C 248.832031 60.246094 243.710938 60.246094 243.710938 56.832031 C 243.710938 53.417969 248.832031 53.417969 248.832031 56.832031 "/>
<path style=" stroke:none;fill-rule:nonzero;fill:rgb(100%,100%,100%);fill-opacity:1;" d="M 489.984375 46.59375 C 489.984375 50.003906 484.863281 50.003906 484.863281 46.59375 C 484.863281 43.179688 489.984375 43.179688 489.984375 46.59375 "/>
<path style=" stroke:none;fill-rule:nonzero;fill:rgb(100%,100%,100%);fill-opacity:1;" d="M 139.265625 120.832031 C 139.265625 124.246094 134.144531 124.246094 134.144531 120.832031 C 134.144531 117.417969 139.265625 117.417969 139.265625 120.832031 "/>
<path style=" stroke:none;fill-rule:nonzero;fill:rgb(100%,100%,100%);fill-opacity:1;" d="M 64 266.238281 C 64 269.652344 58.878906 269.652344 58.878906 266.238281 C 58.878906 262.828125 64 262.828125 64 266.238281 "/>
<path style=" stroke:none;fill-rule:nonzero;fill:rgb(100%,100%,100%);fill-opacity:1;" d="M 477.183594 20.992188 C 477.183594 24.40625 472.0625 24.40625 472.0625 20.992188 C 472.0625 17.578125 477.183594 17.578125 477.183594 20.992188 "/>
<path style=" stroke:none;fill-rule:nonzero;fill:rgb(100%,100%,100%);fill-opacity:1;" d="M 334.335938 92.160156 C 334.335938 95.574219 329.214844 95.574219 329.214844 92.160156 C 329.214844 88.746094 334.335938 88.746094 334.335938 92.160156 "/>
<path style=" stroke:none;fill-rule:nonzero;fill:rgb(100%,100%,100%);fill-opacity:1;" d="M 230.398438 120.320312 C 230.398438 123.734375 225.28125 123.734375 225.28125 120.320312 C 225.28125 116.90625 230.398438 116.90625 230.398438 120.320312 "/>
<path style=" stroke:none;fill-rule:nonzero;fill:rgb(100%,100%,100%);fill-opacity:1;" d="M 293.886719 140.800781 C 293.886719 144.214844 288.769531 144.214844 288.769531 140.800781 C 288.769531 137.386719 293.886719 137.386719 293.886719 140.800781 "/>
<path style=" stroke:none;fill-rule:nonzero;fill:rgb(100%,100%,100%);fill-opacity:1;" d="M 452.609375 95.230469 C 452.609375 98.644531 447.488281 98.644531 447.488281 95.230469 C 447.488281 91.820312 452.609375 91.820312 452.609375 95.230469 "/>
<path style=" stroke:none;fill-rule:nonzero;fill:rgb(100%,100%,100%);fill-opacity:1;" d="M 324.609375 90.113281 C 324.609375 93.523438 319.488281 93.523438 319.488281 90.113281 C 319.488281 86.699219 324.609375 86.699219 324.609375 90.113281 "/>
<path style=" stroke:none;fill-rule:nonzero;fill:rgb(100%,100%,100%);fill-opacity:1;" d="M 344.574219 454.144531 C 344.574219 457.558594 339.457031 457.558594 339.457031 454.144531 C 339.457031 450.730469 344.574219 450.730469 344.574219 454.144531 "/>
<path style=" stroke:none;fill-rule:nonzero;fill:rgb(100%,100%,100%);fill-opacity:1;" d="M 390.144531 44.542969 C 390.144531 47.957031 385.023438 47.957031 385.023438 44.542969 C 385.023438 41.128906 390.144531 41.128906 390.144531 44.542969 "/>
<path style=" stroke:none;fill-rule:nonzero;fill:rgb(100%,100%,100%);fill-opacity:1;" d="M 176.128906 5.632812 C 176.128906 9.046875 171.007812 9.046875 171.007812 5.632812 C 171.007812 2.21875 176.128906 2.21875 176.128906 5.632812 "/>
<path style=" stroke:none;fill-rule:nonzero;fill:rgb(100%,100%,100%);fill-opacity:1;" d="M 475.648438 134.144531 C 475.648438 137.558594 470.527344 137.558594 470.527344 134.144531 C 470.527344 130.730469 475.648438 130.730469 475.648438 134.144531 "/>
<path style=" stroke:none;fill-rule:nonzero;fill:rgb(100%,100%,100%);fill-opacity:1;" d="M 282.113281 162.816406 C 282.113281 166.230469 276.992188 166.230469 276.992188 162.816406 C 276.992188 159.402344 282.113281 159.402344 282.113281 162.816406 "/>
<path style=" stroke:none;fill-rule:nonzero;fill:rgb(100%,100%,100%);fill-opacity:1;" d="M 108.03125 310.273438 C 108.03125 313.683594 102.910156 313.683594 102.910156 310.273438 C 102.910156 306.859375 108.03125 306.859375 108.03125 310.273438 "/>
<path style=" stroke:none;fill-rule:nonzero;fill:rgb(100%,100%,100%);fill-opacity:1;" d="M 112.128906 140.289062 C 112.128906 143.703125 107.007812 143.703125 107.007812 140.289062 C 107.007812 136.875 112.128906 136.875 112.128906 140.289062 "/>
<path style=" stroke:none;fill-rule:nonzero;fill:rgb(100%,100%,100%);fill-opacity:1;" d="M 72.703125 26.113281 C 72.703125 29.523438 67.585938 29.523438 67.585938 26.113281 C 67.585938 22.699219 72.703125 22.699219 72.703125 26.113281 "/>
<path style=" stroke:none;fill-rule:nonzero;fill:rgb(100%,100%,100%);fill-opacity:1;" d="M 195.585938 68.097656 C 195.585938 71.507812 190.464844 71.507812 190.464844 68.097656 C 190.464844 64.683594 195.585938 64.683594 195.585938 68.097656 "/>
<path style=" stroke:none;fill-rule:nonzero;fill:rgb(100%,100%,100%);fill-opacity:1;" d="M 285.695312 274.945312 C 285.695312 278.355469 280.574219 278.355469 280.574219 274.945312 C 280.574219 271.53125 285.695312 271.53125 285.695312 274.945312 "/>
<path style=" stroke:none;fill-rule:nonzero;fill:rgb(100%,100%,100%);fill-opacity:1;" d="M 2.558594 239.617188 C 2.558594 243.03125 -2.558594 243.03125 -2.558594 239.617188 C -2.558594 236.203125 2.558594 236.203125 2.558594 239.617188 "/>
<path style=" stroke:none;fill-rule:nonzero;fill:rgb(100%,100%,100%);fill-opacity:1;" d="M 302.59375 287.230469 C 302.59375 290.644531 297.472656 290.644531 297.472656 287.230469 C 297.472656 283.820312 302.59375 283.820312 302.59375 287.230469 "/>
<path style=" stroke:none;fill-rule:nonzero;fill:rgb(100%,100%,100%);fill-opacity:1;" d="M 503.808594 52.734375 C 503.808594 56.148438 498.6875 56.148438 498.6875 52.734375 C 498.6875 49.324219 503.808594 49.324219 503.808594 52.734375 "/>
<path style=" stroke:none;fill-rule:nonzero;fill:rgb(100%,100%,100%);fill-opacity:1;" d="M 437.761719 433.152344 C 437.761719 436.566406 432.640625 436.566406 432.640625 433.152344 C 432.640625 429.738281 437.761719 429.738281 437.761719 433.152344 "/>
<path style=" stroke:none;fill-rule:nonzero;fill:rgb(100%,100%,100%);fill-opacity:1;" d="M 137.214844 423.9375 C 137.214844 427.347656 132.097656 427.347656 132.097656 423.9375 C 132.097656 420.523438 137.214844 420.523438 137.214844 423.9375 "/>
<path style=" stroke:none;fill-rule:nonzero;fill:rgb(100%,100%,100%);fill-opacity:1;" d="M 300.03125 373.761719 C 300.03125 377.171875 294.910156 377.171875 294.910156 373.761719 C 294.910156 370.347656 300.03125 370.347656 300.03125 373.761719 "/>
<path style=" stroke:none;fill-rule:nonzero;fill:rgb(100%,100%,100%);fill-opacity:1;" d="M 242.175781 94.207031 C 242.175781 97.621094 237.054688 97.621094 237.054688 94.207031 C 237.054688 90.792969 242.175781 90.792969 242.175781 94.207031 "/>
<path style=" stroke:none;fill-rule:nonzero;fill:rgb(100%,100%,100%);fill-opacity:1;" d="M 374.273438 459.265625 C 374.273438 462.675781 369.152344 462.675781 369.152344 459.265625 C 369.152344 455.851562 374.273438 455.851562 374.273438 459.265625 "/>
<path style=" stroke:none;fill-rule:nonzero;fill:rgb(100%,100%,100%);fill-opacity:1;" d="M 107.007812 138.753906 C 107.007812 142.164062 101.886719 142.164062 101.886719 138.753906 C 101.886719 135.339844 107.007812 135.339844 107.007812 138.753906 "/>
<path style=" stroke:none;fill-rule:nonzero;fill:rgb(100%,100%,100%);fill-opacity:1;" d="M 55.296875 278.015625 C 55.296875 281.429688 50.175781 281.429688 50.175781 278.015625 C 50.175781 274.601562 55.296875 274.601562 55.296875 278.015625 "/>
<path style=" stroke:none;fill-rule:nonzero;fill:rgb(100%,100%,100%);fill-opacity:1;" d="M 457.214844 446.464844 C 457.214844 449.878906 452.097656 449.878906 452.097656 446.464844 C 452.097656 443.050781 457.214844 443.050781 457.214844 446.464844 "/>
<path style=" stroke:none;fill-rule:nonzero;fill:rgb(100%,100%,100%);fill-opacity:1;" d="M 433.664062 363.007812 C 433.664062 366.421875 428.542969 366.421875 428.542969 363.007812 C 428.542969 359.59375 433.664062 359.59375 433.664062 363.007812 "/>
<path style=" stroke:none;fill-rule:nonzero;fill:rgb(100%,100%,100%);fill-opacity:1;" d="M 5.632812 473.601562 C 5.632812 477.011719 0.511719 477.011719 0.511719 473.601562 C 0.511719 470.1875 5.632812 470.1875 5.632812 473.601562 "/>
<path style=" stroke:none;fill-rule:nonzero;fill:rgb(100%,100%,100%);fill-opacity:1;" d="M 507.390625 470.527344 C 507.390625 473.941406 502.273438 473.941406 502.273438 470.527344 C 502.273438 467.113281 507.390625 467.113281 507.390625 470.527344 "/>
<path style=" stroke:none;fill-rule:nonzero;fill:rgb(100%,100%,100%);fill-opacity:1;" d="M 504.832031 53.246094 C 504.832031 56.660156 499.710938 56.660156 499.710938 53.246094 C 499.710938 49.835938 504.832031 49.835938 504.832031 53.246094 "/>
<path style=" stroke:none;fill-rule:nonzero;fill:rgb(100%,100%,100%);fill-opacity:1;" d="M 503.808594 250.367188 C 503.808594 253.78125 498.6875 253.78125 498.6875 250.367188 C 498.6875 246.953125 503.808594 246.953125 503.808594 250.367188 "/>
<path style=" stroke:none;fill-rule:nonzero;fill:rgb(100%,100%,100%);fill-opacity:1;" d="M 104.960938 491.007812 C 104.960938 494.421875 99.839844 494.421875 99.839844 491.007812 C 99.839844 487.59375 104.960938 487.59375 104.960938 491.007812 "/>
<path style=" stroke:none;fill-rule:nonzero;fill:rgb(100%,100%,100%);fill-opacity:1;" d="M 348.671875 36.351562 C 348.671875 39.765625 343.550781 39.765625 343.550781 36.351562 C 343.550781 32.9375 348.671875 32.9375 348.671875 36.351562 "/>
<path style=" stroke:none;fill-rule:nonzero;fill:rgb(100%,100%,100%);fill-opacity:1;" d="M 344.574219 506.878906 C 344.574219 510.292969 339.457031 510.292969 339.457031 506.878906 C 339.457031 503.464844 344.574219 503.464844 344.574219 506.878906 "/>
<path style=" stroke:none;fill-rule:nonzero;fill:rgb(100%,100%,100%);fill-opacity:1;" d="M 258.046875 347.648438 C 258.046875 351.0625 252.929688 351.0625 252.929688 347.648438 C 252.929688 344.234375 258.046875 344.234375 258.046875 347.648438 "/>
<path style=" stroke:none;fill-rule:nonzero;fill:rgb(100%,100%,100%);fill-opacity:1;" d="M 135.679688 276.992188 C 135.679688 280.40625 130.558594 280.40625 130.558594 276.992188 C 130.558594 273.578125 135.679688 273.578125 135.679688 276.992188 "/>
<path style=" stroke:none;fill-rule:nonzero;fill:rgb(100%,100%,100%);fill-opacity:1;" d="M 375.808594 144.894531 C 375.808594 148.308594 370.6875 148.308594 370.6875 144.894531 C 370.6875 141.484375 375.808594 141.484375 375.808594 144.894531 "/>
<path style=" stroke:none;fill-rule:nonzero;fill:rgb(100%,100%,100%);fill-opacity:1;" d="M 246.273438 442.878906 C 246.273438 446.292969 241.152344 446.292969 241.152344 442.878906 C 241.152344 439.464844 246.273438 439.464844 246.273438 442.878906 "/>
<path style=" stroke:none;fill-rule:nonzero;fill:rgb(100%,100%,100%);fill-opacity:1;" d="M 420.863281 460.289062 C 420.863281 463.703125 415.742188 463.703125 415.742188 460.289062 C 415.742188 456.875 420.863281 456.875 420.863281 460.289062 "/>
<path style=" stroke:none;fill-rule:nonzero;fill:rgb(100%,100%,100%);fill-opacity:1;" d="M 226.304688 21.503906 C 226.304688 24.917969 221.183594 24.917969 221.183594 21.503906 C 221.183594 18.089844 226.304688 18.089844 226.304688 21.503906 "/>
<path style=" stroke:none;fill-rule:nonzero;fill:rgb(100%,100%,100%);fill-opacity:1;" d="M 457.726562 26.113281 C 457.726562 29.523438 452.609375 29.523438 452.609375 26.113281 C 452.609375 22.699219 457.726562 22.699219 457.726562 26.113281 "/>
<path style=" stroke:none;fill-rule:nonzero;fill:rgb(100%,100%,100%);fill-opacity:1;" d="M 30.207031 2.558594 C 30.207031 5.972656 25.089844 5.972656 25.089844 2.558594 C 25.089844 -0.851562 30.207031 -0.851562 30.207031 2.558594 "/>
<path style=" stroke:none;fill-rule:nonzero;fill:rgb(100%,100%,100%);fill-opacity:1;" d="M 281.089844 218.625 C 281.089844 222.039062 275.96875 222.039062 275.96875 218.625 C 275.96875 215.210938 281.089844 215.210938 281.089844 218.625 "/>
<path style=" stroke:none;fill-rule:nonzero;fill:rgb(100%,100%,100%);fill-opacity:1;" d="M 15.359375 149.503906 C 15.359375 152.917969 10.238281 152.917969 10.238281 149.503906 C 10.238281 146.089844 15.359375 146.089844 15.359375 149.503906 "/>
<path style=" stroke:none;fill-rule:nonzero;fill:rgb(100%,100%,100%);fill-opacity:1;" d="M 267.777344 165.375 C 267.777344 168.789062 262.65625 168.789062 262.65625 165.375 C 262.65625 161.960938 267.777344 161.960938 267.777344 165.375 "/>
<path style=" stroke:none;fill-rule:nonzero;fill:rgb(100%,100%,100%);fill-opacity:1;" d="M 249.855469 489.472656 C 249.855469 492.886719 244.734375 492.886719 244.734375 489.472656 C 244.734375 486.058594 249.855469 486.058594 249.855469 489.472656 "/>
<path style=" stroke:none;fill-rule:nonzero;fill:rgb(100%,100%,100%);fill-opacity:1;" d="M 38.910156 435.710938 C 38.910156 439.125 33.792969 439.125 33.792969 435.710938 C 33.792969 432.296875 38.910156 432.296875 38.910156 435.710938 "/>
<path style=" stroke:none;fill-rule:nonzero;fill:rgb(100%,100%,100%);fill-opacity:1;" d="M 502.785156 154.625 C 502.785156 158.039062 497.664062 158.039062 497.664062 154.625 C 497.664062 151.210938 502.785156 151.210938 502.785156 154.625 "/>
<path style=" stroke:none;fill-rule:nonzero;fill:rgb(100%,100%,100%);fill-opacity:1;" d="M 491.007812 459.265625 C 491.007812 462.675781 485.886719 462.675781 485.886719 459.265625 C 485.886719 455.851562 491.007812 455.851562 491.007812 459.265625 "/>
<path style=" stroke:none;fill-rule:nonzero;fill:rgb(100%,100%,100%);fill-opacity:1;" d="M 266.753906 61.953125 C 266.753906 65.367188 261.632812 65.367188 261.632812 61.953125 C 261.632812 58.539062 266.753906 58.539062 266.753906 61.953125 "/>
<path style=" stroke:none;fill-rule:nonzero;fill:rgb(100%,100%,100%);fill-opacity:1;" d="M 214.527344 365.566406 C 214.527344 368.980469 209.40625 368.980469 209.40625 365.566406 C 209.40625 362.15625 214.527344 362.15625 214.527344 365.566406 "/>
<path style=" stroke:none;fill-rule:nonzero;fill:rgb(100%,100%,100%);fill-opacity:1;" d="M 110.078125 223.742188 C 110.078125 227.15625 104.960938 227.15625 104.960938 223.742188 C 104.960938 220.332031 110.078125 220.332031 110.078125 223.742188 "/>
<path style=" stroke:none;fill-rule:nonzero;fill:rgb(100%,100%,100%);fill-opacity:1;" d="M 433.152344 19.96875 C 433.152344 23.382812 428.03125 23.382812 428.03125 19.96875 C 428.03125 16.554688 433.152344 16.554688 433.152344 19.96875 "/>
<path style=" stroke:none;fill-rule:nonzero;fill:rgb(100%,100%,100%);fill-opacity:1;" d="M 264.703125 327.167969 C 264.703125 330.582031 259.585938 330.582031 259.585938 327.167969 C 259.585938 323.753906 264.703125 323.753906 264.703125 327.167969 "/>
<path style=" stroke:none;fill-rule:nonzero;fill:rgb(100%,100%,100%);fill-opacity:1;" d="M 103.425781 81.40625 C 103.425781 84.820312 98.304688 84.820312 98.304688 81.40625 C 98.304688 77.996094 103.425781 77.996094 103.425781 81.40625 "/>
<path style=" stroke:none;fill-rule:nonzero;fill:rgb(100%,100%,100%);fill-opacity:1;" d="M 498.6875 14.847656 C 498.6875 18.261719 493.566406 18.261719 493.566406 14.847656 C 493.566406 11.433594 498.6875 11.433594 498.6875 14.847656 "/>
<path style=" stroke:none;fill-rule:nonzero;fill:rgb(100%,100%,100%);fill-opacity:1;" d="M 233.472656 56.832031 C 233.472656 60.246094 228.351562 60.246094 228.351562 56.832031 C 228.351562 53.417969 233.472656 53.417969 233.472656 56.832031 "/>
<path style=" stroke:none;fill-rule:nonzero;fill:rgb(100%,100%,100%);fill-opacity:1;" d="M 36.863281 322.046875 C 36.863281 325.460938 31.742188 325.460938 31.742188 322.046875 C 31.742188 318.632812 36.863281 318.632812 36.863281 322.046875 "/>
<path style=" stroke:none;fill-rule:nonzero;fill:rgb(100%,100%,100%);fill-opacity:1;" d="M 159.742188 95.230469 C 159.742188 98.644531 154.625 98.644531 154.625 95.230469 C 154.625 91.820312 159.742188 91.820312 159.742188 95.230469 "/>
<path style=" stroke:none;fill-rule:nonzero;fill:rgb(100%,100%,100%);fill-opacity:1;" d="M 168.960938 227.839844 C 168.960938 231.253906 163.839844 231.253906 163.839844 227.839844 C 163.839844 224.425781 168.960938 224.425781 168.960938 227.839844 "/>
<path style=" stroke:none;fill-rule:nonzero;fill:rgb(100%,100%,100%);fill-opacity:1;" d="M 213.503906 412.160156 C 213.503906 415.574219 208.382812 415.574219 208.382812 412.160156 C 208.382812 408.746094 213.503906 408.746094 213.503906 412.160156 "/>
<path style=" stroke:none;fill-rule:nonzero;fill:rgb(100%,100%,100%);fill-opacity:1;" d="M 411.136719 214.527344 C 411.136719 217.941406 406.015625 217.941406 406.015625 214.527344 C 406.015625 211.113281 411.136719 211.113281 411.136719 214.527344 "/>
<path style=" stroke:none;fill-rule:nonzero;fill:rgb(100%,100%,100%);fill-opacity:1;" d="M 319.488281 104.449219 C 319.488281 107.863281 314.367188 107.863281 314.367188 104.449219 C 314.367188 101.035156 319.488281 101.035156 319.488281 104.449219 "/>
<path style=" stroke:none;fill-rule:nonzero;fill:rgb(100%,100%,100%);fill-opacity:1;" d="M 339.457031 118.273438 C 339.457031 121.683594 334.335938 121.683594 334.335938 118.273438 C 334.335938 114.859375 339.457031 114.859375 339.457031 118.273438 "/>
<path style=" stroke:none;fill-rule:nonzero;fill:rgb(100%,100%,100%);fill-opacity:1;" d="M 466.945312 86.015625 C 466.945312 89.429688 461.824219 89.429688 461.824219 86.015625 C 461.824219 82.601562 466.945312 82.601562 466.945312 86.015625 "/>
<path style=" stroke:none;fill-rule:nonzero;fill:rgb(100%,100%,100%);fill-opacity:1;" d="M 321.535156 126.464844 C 321.535156 129.878906 316.414062 129.878906 316.414062 126.464844 C 316.414062 123.050781 321.535156 123.050781 321.535156 126.464844 "/>
<path style=" stroke:none;fill-rule:nonzero;fill:rgb(100%,100%,100%);fill-opacity:1;" d="M 228.351562 408.574219 C 228.351562 411.988281 223.230469 411.988281 223.230469 408.574219 C 223.230469 405.164062 228.351562 405.164062 228.351562 408.574219 "/>
<path style=" stroke:none;fill-rule:nonzero;fill:rgb(100%,100%,100%);fill-opacity:1;" d="M 419.328125 477.183594 C 419.328125 480.597656 414.207031 480.597656 414.207031 477.183594 C 414.207031 473.769531 419.328125 473.769531 419.328125 477.183594 "/>
<path style=" stroke:none;fill-rule:nonzero;fill:rgb(100%,100%,100%);fill-opacity:1;" d="M 224.769531 508.929688 C 224.769531 512.339844 219.648438 512.339844 219.648438 508.929688 C 219.648438 505.515625 224.769531 505.515625 224.769531 508.929688 "/>
<path style=" stroke:none;fill-rule:nonzero;fill:rgb(100%,100%,100%);fill-opacity:1;" d="M 431.617188 349.695312 C 431.617188 353.109375 426.496094 353.109375 426.496094 349.695312 C 426.496094 346.28125 431.617188 346.28125 431.617188 349.695312 "/>
<path style=" stroke:none;fill-rule:nonzero;fill:rgb(100%,100%,100%);fill-opacity:1;" d="M 245.761719 501.761719 C 245.761719 505.171875 240.640625 505.171875 240.640625 501.761719 C 240.640625 498.347656 245.761719 498.347656 245.761719 501.761719 "/>
<path style=" stroke:none;fill-rule:nonzero;fill:rgb(100%,100%,100%);fill-opacity:1;" d="M 186.367188 463.359375 C 186.367188 466.773438 181.246094 466.773438 181.246094 463.359375 C 181.246094 459.945312 186.367188 459.945312 186.367188 463.359375 "/>
<path style=" stroke:none;fill-rule:nonzero;fill:rgb(100%,100%,100%);fill-opacity:1;" d="M 4.609375 378.878906 C 4.609375 382.292969 -0.511719 382.292969 -0.511719 378.878906 C -0.511719 375.464844 4.609375 375.464844 4.609375 378.878906 "/>
<path style=" stroke:none;fill-rule:nonzero;fill:rgb(100%,100%,100%);fill-opacity:1;" d="M 301.054688 427.007812 C 301.054688 430.421875 295.9375 430.421875 295.9375 427.007812 C 295.9375 423.59375 301.054688 423.59375 301.054688 427.007812 "/>
<path style=" stroke:none;fill-rule:nonzero;fill:rgb(100%,100%,100%);fill-opacity:1;" d="M 371.710938 173.054688 C 371.710938 176.46875 366.59375 176.46875 366.59375 173.054688 C 366.59375 169.644531 371.710938 169.644531 371.710938 173.054688 "/>
<path style=" stroke:none;fill-rule:nonzero;fill:rgb(100%,100%,100%);fill-opacity:1;" d="M 104.960938 498.175781 C 104.960938 501.589844 99.839844 501.589844 99.839844 498.175781 C 99.839844 494.761719 104.960938 494.761719 104.960938 498.175781 "/>
<path style=" stroke:none;fill-rule:nonzero;fill:rgb(100%,100%,100%);fill-opacity:1;" d="M 361.984375 5.121094 C 361.984375 8.535156 356.863281 8.535156 356.863281 5.121094 C 356.863281 1.707031 361.984375 1.707031 361.984375 5.121094 "/>
<path style=" stroke:none;fill-rule:nonzero;fill:rgb(100%,100%,100%);fill-opacity:1;" d="M 222.71875 446.976562 C 222.71875 450.390625 217.601562 450.390625 217.601562 446.976562 C 217.601562 443.5625 222.71875 443.5625 222.71875 446.976562 "/>
<path style=" stroke:none;fill-rule:nonzero;fill:rgb(100%,100%,100%);fill-opacity:1;" d="M 261.121094 69.121094 C 261.121094 72.535156 256 72.535156 256 69.121094 C 256 65.707031 261.121094 65.707031 261.121094 69.121094 "/>
<path style=" stroke:none;fill-rule:nonzero;fill:rgb(100%,100%,100%);fill-opacity:1;" d="M 5.121094 103.9375 C 5.121094 107.347656 0 107.347656 0 103.9375 C 0 100.523438 5.121094 100.523438 5.121094 103.9375 "/>
<path style=" stroke:none;fill-rule:nonzero;fill:rgb(100%,100%,100%);fill-opacity:1;" d="M 140.289062 429.054688 C 140.289062 432.46875 135.167969 432.46875 135.167969 429.054688 C 135.167969 425.644531 140.289062 425.644531 140.289062 429.054688 "/>
<path style=" stroke:none;fill-rule:nonzero;fill:rgb(100%,100%,100%);fill-opacity:1;" d="M 270.847656 129.023438 C 270.847656 132.4375 265.726562 132.4375 265.726562 129.023438 C 265.726562 125.609375 270.847656 125.609375 270.847656 129.023438 "/>
<path style=" stroke:none;fill-rule:nonzero;fill:rgb(100%,100%,100%);fill-opacity:1;" d="M 16.382812 59.390625 C 16.382812 62.804688 11.265625 62.804688 11.265625 59.390625 C 11.265625 55.980469 16.382812 55.980469 16.382812 59.390625 "/>
<path style=" stroke:none;fill-rule:nonzero;fill:rgb(100%,100%,100%);fill-opacity:1;" d="M 463.871094 500.734375 C 463.871094 504.148438 458.753906 504.148438 458.753906 500.734375 C 458.753906 497.324219 463.871094 497.324219 463.871094 500.734375 "/>
<path style=" stroke:none;fill-rule:nonzero;fill:rgb(100%,100%,100%);fill-opacity:1;" d="M 248.832031 62.976562 C 248.832031 66.390625 243.710938 66.390625 243.710938 62.976562 C 243.710938 59.5625 248.832031 59.5625 248.832031 62.976562 "/>
<path style=" stroke:none;fill-rule:nonzero;fill:rgb(100%,100%,100%);fill-opacity:1;" d="M 170.496094 39.425781 C 170.496094 42.835938 165.375 42.835938 165.375 39.425781 C 165.375 36.011719 170.496094 36.011719 170.496094 39.425781 "/>
<path style=" stroke:none;fill-rule:nonzero;fill:rgb(100%,100%,100%);fill-opacity:1;" d="M 494.59375 212.992188 C 494.59375 216.40625 489.472656 216.40625 489.472656 212.992188 C 489.472656 209.578125 494.59375 209.578125 494.59375 212.992188 "/>
<path style=" stroke:none;fill-rule:nonzero;fill:rgb(100%,100%,100%);fill-opacity:1;" d="M 492.542969 327.167969 C 492.542969 330.582031 487.425781 330.582031 487.425781 327.167969 C 487.425781 323.753906 492.542969 323.753906 492.542969 327.167969 "/>
<path style=" stroke:none;fill-rule:nonzero;fill:rgb(100%,100%,100%);fill-opacity:1;" d="M 210.433594 11.777344 C 210.433594 15.1875 205.3125 15.1875 205.3125 11.777344 C 205.3125 8.363281 210.433594 8.363281 210.433594 11.777344 "/>
<path style=" stroke:none;fill-rule:nonzero;fill:rgb(100%,100%,100%);fill-opacity:1;" d="M 289.28125 491.519531 C 289.28125 494.933594 284.160156 494.933594 284.160156 491.519531 C 284.160156 488.105469 289.28125 488.105469 289.28125 491.519531 "/>
<path style=" stroke:none;fill-rule:nonzero;fill:rgb(100%,100%,100%);fill-opacity:1;" d="M 74.238281 132.609375 C 74.238281 136.019531 69.121094 136.019531 69.121094 132.609375 C 69.121094 129.195312 74.238281 129.195312 74.238281 132.609375 "/>
<path style=" stroke:none;fill-rule:nonzero;fill:rgb(100%,100%,100%);fill-opacity:1;" d="M 209.40625 68.609375 C 209.40625 72.019531 204.289062 72.019531 204.289062 68.609375 C 204.289062 65.195312 209.40625 65.195312 209.40625 68.609375 "/>
<path style=" stroke:none;fill-rule:nonzero;fill:rgb(100%,100%,100%);fill-opacity:1;" d="M 273.40625 129.023438 C 273.40625 132.4375 268.289062 132.4375 268.289062 129.023438 C 268.289062 125.609375 273.40625 125.609375 273.40625 129.023438 "/>
<path style=" stroke:none;fill-rule:nonzero;fill:rgb(100%,100%,100%);fill-opacity:1;" d="M 295.9375 222.71875 C 295.9375 226.132812 290.816406 226.132812 290.816406 222.71875 C 290.816406 219.308594 295.9375 219.308594 295.9375 222.71875 "/>
<path style=" stroke:none;fill-rule:nonzero;fill:rgb(100%,100%,100%);fill-opacity:1;" d="M 422.910156 187.390625 C 422.910156 190.804688 417.792969 190.804688 417.792969 187.390625 C 417.792969 183.980469 422.910156 183.980469 422.910156 187.390625 "/>
<path style=" stroke:none;fill-rule:nonzero;fill:rgb(100%,100%,100%);fill-opacity:1;" d="M 243.710938 133.121094 C 243.710938 136.535156 238.59375 136.535156 238.59375 133.121094 C 238.59375 129.707031 243.710938 129.707031 243.710938 133.121094 "/>
<path style=" stroke:none;fill-rule:nonzero;fill:rgb(100%,100%,100%);fill-opacity:1;" d="M 382.464844 210.945312 C 382.464844 214.355469 377.34375 214.355469 377.34375 210.945312 C 377.34375 207.53125 382.464844 207.53125 382.464844 210.945312 "/>
<path style=" stroke:none;fill-rule:nonzero;fill:rgb(100%,100%,100%);fill-opacity:1;" d="M 142.847656 417.28125 C 142.847656 420.691406 137.726562 420.691406 137.726562 417.28125 C 137.726562 413.867188 142.847656 413.867188 142.847656 417.28125 "/>
<path style=" stroke:none;fill-rule:nonzero;fill:rgb(100%,100%,100%);fill-opacity:1;" d="M 223.742188 483.328125 C 223.742188 486.742188 218.625 486.742188 218.625 483.328125 C 218.625 479.914062 223.742188 479.914062 223.742188 483.328125 "/>
<path style=" stroke:none;fill-rule:nonzero;fill:rgb(100%,100%,100%);fill-opacity:1;" d="M 74.753906 221.183594 C 74.753906 224.597656 69.632812 224.597656 69.632812 221.183594 C 69.632812 217.769531 74.753906 217.769531 74.753906 221.183594 "/>
<path style=" stroke:none;fill-rule:nonzero;fill:rgb(100%,100%,100%);fill-opacity:1;" d="M 326.144531 460.289062 C 326.144531 463.703125 321.023438 463.703125 321.023438 460.289062 C 321.023438 456.875 326.144531 456.875 326.144531 460.289062 "/>
<path style=" stroke:none;fill-rule:nonzero;fill:rgb(100%,100%,100%);fill-opacity:1;" d="M 7.167969 496.640625 C 7.167969 500.054688 2.046875 500.054688 2.046875 496.640625 C 2.046875 493.226562 7.167969 493.226562 7.167969 496.640625 "/>
<path style=" stroke:none;fill-rule:nonzero;fill:rgb(100%,100%,100%);fill-opacity:1;" d="M 75.265625 363.007812 C 75.265625 366.421875 70.144531 366.421875 70.144531 363.007812 C 70.144531 359.59375 75.265625 359.59375 75.265625 363.007812 "/>
<path style=" stroke:none;fill-rule:nonzero;fill:rgb(100%,100%,100%);fill-opacity:1;" d="M 186.367188 433.664062 C 186.367188 437.078125 181.246094 437.078125 181.246094 433.664062 C 181.246094 430.25 186.367188 430.25 186.367188 433.664062 "/>
<path style=" stroke:none;fill-rule:nonzero;fill:rgb(100%,100%,100%);fill-opacity:1;" d="M 128 169.472656 C 128 172.886719 122.878906 172.886719 122.878906 169.472656 C 122.878906 166.058594 128 166.058594 128 169.472656 "/>
<path style=" stroke:none;fill-rule:nonzero;fill:rgb(100%,100%,100%);fill-opacity:1;" d="M 258.046875 5.121094 C 258.046875 8.535156 252.929688 8.535156 252.929688 5.121094 C 252.929688 1.707031 258.046875 1.707031 258.046875 5.121094 "/>
<path style=" stroke:none;fill-rule:nonzero;fill:rgb(100%,100%,100%);fill-opacity:1;" d="M 311.296875 151.550781 C 311.296875 154.964844 306.175781 154.964844 306.175781 151.550781 C 306.175781 148.136719 311.296875 148.136719 311.296875 151.550781 "/>
<path style=" stroke:none;fill-rule:nonzero;fill:rgb(100%,100%,100%);fill-opacity:1;" d="M 480.257812 143.871094 C 480.257812 147.285156 475.136719 147.285156 475.136719 143.871094 C 475.136719 140.457031 480.257812 140.457031 480.257812 143.871094 "/>
<path style=" stroke:none;fill-rule:nonzero;fill:rgb(100%,100%,100%);fill-opacity:1;" d="M 352.257812 12.800781 C 352.257812 16.214844 347.136719 16.214844 347.136719 12.800781 C 347.136719 9.386719 352.257812 9.386719 352.257812 12.800781 "/>
<path style=" stroke:none;fill-rule:nonzero;fill:rgb(100%,100%,100%);fill-opacity:1;" d="M 453.121094 271.359375 C 453.121094 274.773438 448 274.773438 448 271.359375 C 448 267.945312 453.121094 267.945312 453.121094 271.359375 "/>
<path style=" stroke:none;fill-rule:nonzero;fill:rgb(100%,100%,100%);fill-opacity:1;" d="M 422.910156 412.160156 C 422.910156 415.574219 417.792969 415.574219 417.792969 412.160156 C 417.792969 408.746094 422.910156 408.746094 422.910156 412.160156 "/>
<path style=" stroke:none;fill-rule:nonzero;fill:rgb(100%,100%,100%);fill-opacity:1;" d="M 301.054688 199.679688 C 301.054688 203.09375 295.9375 203.09375 295.9375 199.679688 C 295.9375 196.265625 301.054688 196.265625 301.054688 199.679688 "/>
<path style=" stroke:none;fill-rule:nonzero;fill:rgb(100%,100%,100%);fill-opacity:1;" d="M 145.921875 409.601562 C 145.921875 413.011719 140.800781 413.011719 140.800781 409.601562 C 140.800781 406.1875 145.921875 406.1875 145.921875 409.601562 "/>
<path style=" stroke:none;fill-rule:nonzero;fill:rgb(100%,100%,100%);fill-opacity:1;" d="M 463.359375 212.480469 C 463.359375 215.894531 458.238281 215.894531 458.238281 212.480469 C 458.238281 209.066406 463.359375 209.066406 463.359375 212.480469 "/>
<path style=" stroke:none;fill-rule:nonzero;fill:rgb(100%,100%,100%);fill-opacity:1;" d="M 203.265625 472.0625 C 203.265625 475.476562 198.144531 475.476562 198.144531 472.0625 C 198.144531 468.652344 203.265625 468.652344 203.265625 472.0625 "/>
<path style=" stroke:none;fill-rule:nonzero;fill:rgb(100%,100%,100%);fill-opacity:1;" d="M 497.664062 498.6875 C 497.664062 502.101562 492.542969 502.101562 492.542969 498.6875 C 492.542969 495.273438 497.664062 495.273438 497.664062 498.6875 "/>
<path style=" stroke:none;fill-rule:nonzero;fill:rgb(100%,100%,100%);fill-opacity:1;" d="M 511.488281 211.457031 C 511.488281 214.871094 506.367188 214.871094 506.367188 211.457031 C 506.367188 208.042969 511.488281 208.042969 511.488281 211.457031 "/>
<path style=" stroke:none;fill-rule:nonzero;fill:rgb(100%,100%,100%);fill-opacity:1;" d="M 47.105469 45.054688 C 47.105469 48.46875 41.984375 48.46875 41.984375 45.054688 C 41.984375 41.644531 47.105469 41.644531 47.105469 45.054688 "/>
<path style=" stroke:none;fill-rule:nonzero;fill:rgb(100%,100%,100%);fill-opacity:1;" d="M 340.992188 488.449219 C 340.992188 491.863281 335.871094 491.863281 335.871094 488.449219 C 335.871094 485.035156 340.992188 485.035156 340.992188 488.449219 "/>
<path style=" stroke:none;fill-rule:nonzero;fill:rgb(100%,100%,100%);fill-opacity:1;" d="M 163.839844 366.078125 C 163.839844 369.492188 158.71875 369.492188 158.71875 366.078125 C 158.71875 362.667969 163.839844 362.667969 163.839844 366.078125 "/>
<path style=" stroke:none;fill-rule:nonzero;fill:rgb(100%,100%,100%);fill-opacity:1;" d="M 32.769531 122.367188 C 32.769531 125.78125 27.648438 125.78125 27.648438 122.367188 C 27.648438 118.953125 32.769531 118.953125 32.769531 122.367188 "/>
<path style=" stroke:none;fill-rule:nonzero;fill:rgb(100%,100%,100%);fill-opacity:1;" d="M 185.34375 401.921875 C 185.34375 405.332031 180.222656 405.332031 180.222656 401.921875 C 180.222656 398.507812 185.34375 398.507812 185.34375 401.921875 "/>
<path style=" stroke:none;fill-rule:nonzero;fill:rgb(100%,100%,100%);fill-opacity:1;" d="M 17.40625 249.34375 C 17.40625 252.757812 12.289062 252.757812 12.289062 249.34375 C 12.289062 245.929688 17.40625 245.929688 17.40625 249.34375 "/>
<path style=" stroke:none;fill-rule:nonzero;fill:rgb(100%,100%,100%);fill-opacity:1;" d="M 339.96875 477.183594 C 339.96875 480.597656 334.847656 480.597656 334.847656 477.183594 C 334.847656 473.769531 339.96875 473.769531 339.96875 477.183594 "/>
<path style=" stroke:none;fill-rule:nonzero;fill:rgb(100%,100%,100%);fill-opacity:1;" d="M 59.390625 177.152344 C 59.390625 180.566406 54.273438 180.566406 54.273438 177.152344 C 54.273438 173.738281 59.390625 173.738281 59.390625 177.152344 "/>
<path style=" stroke:none;fill-rule:nonzero;fill:rgb(100%,100%,100%);fill-opacity:1;" d="M 378.878906 424.960938 C 378.878906 428.375 373.761719 428.375 373.761719 424.960938 C 373.761719 421.546875 378.878906 421.546875 378.878906 424.960938 "/>
<path style=" stroke:none;fill-rule:nonzero;fill:rgb(100%,100%,100%);fill-opacity:1;" d="M 299.007812 414.71875 C 299.007812 418.132812 293.886719 418.132812 293.886719 414.71875 C 293.886719 411.308594 299.007812 411.308594 299.007812 414.71875 "/>
<path style=" stroke:none;fill-rule:nonzero;fill:rgb(100%,100%,100%);fill-opacity:1;" d="M 67.070312 510.464844 C 67.070312 513.878906 61.953125 513.878906 61.953125 510.464844 C 61.953125 507.050781 67.070312 507.050781 67.070312 510.464844 "/>
<path style=" stroke:none;fill-rule:nonzero;fill:rgb(100%,100%,100%);fill-opacity:1;" d="M 359.9375 233.984375 C 359.9375 237.398438 354.816406 237.398438 354.816406 233.984375 C 354.816406 230.570312 359.9375 230.570312 359.9375 233.984375 "/>
<path style=" stroke:none;fill-rule:nonzero;fill:rgb(100%,100%,100%);fill-opacity:1;" d="M 132.097656 153.089844 C 132.097656 156.5 126.976562 156.5 126.976562 153.089844 C 126.976562 149.675781 132.097656 149.675781 132.097656 153.089844 "/>
<path style=" stroke:none;fill-rule:nonzero;fill:rgb(100%,100%,100%);fill-opacity:1;" d="M 65.023438 409.089844 C 65.023438 412.5 59.902344 412.5 59.902344 409.089844 C 59.902344 405.675781 65.023438 405.675781 65.023438 409.089844 "/>
<path style=" stroke:none;fill-rule:nonzero;fill:rgb(100%,100%,100%);fill-opacity:1;" d="M 187.390625 59.390625 C 187.390625 62.804688 182.273438 62.804688 182.273438 59.390625 C 182.273438 55.980469 187.390625 55.980469 187.390625 59.390625 "/>
<path style=" stroke:none;fill-rule:nonzero;fill:rgb(100%,100%,100%);fill-opacity:1;" d="M 88.0625 264.703125 C 88.0625 268.117188 82.945312 268.117188 82.945312 264.703125 C 82.945312 261.289062 88.0625 261.289062 88.0625 264.703125 "/>
<path style=" stroke:none;fill-rule:nonzero;fill:rgb(100%,100%,100%);fill-opacity:1;" d="M 33.792969 492.03125 C 33.792969 495.445312 28.671875 495.445312 28.671875 492.03125 C 28.671875 488.617188 33.792969 488.617188 33.792969 492.03125 "/>
<path style=" stroke:none;fill-rule:nonzero;fill:rgb(100%,100%,100%);fill-opacity:1;" d="M 487.9375 47.105469 C 487.9375 50.515625 482.816406 50.515625 482.816406 47.105469 C 482.816406 43.691406 487.9375 43.691406 487.9375 47.105469 "/>
<path style=" stroke:none;fill-rule:nonzero;fill:rgb(100%,100%,100%);fill-opacity:1;" d="M 501.246094 512 C 501.246094 515.414062 496.128906 515.414062 496.128906 512 C 496.128906 508.585938 501.246094 508.585938 501.246094 512 "/>
<path style=" stroke:none;fill-rule:nonzero;fill:rgb(100%,100%,100%);fill-opacity:1;" d="M 306.6875 264.703125 C 306.6875 268.117188 301.566406 268.117188 301.566406 264.703125 C 301.566406 261.289062 306.6875 261.289062 306.6875 264.703125 "/>
<path style=" stroke:none;fill-rule:nonzero;fill:rgb(100%,100%,100%);fill-opacity:1;" d="M 458.238281 340.992188 C 458.238281 344.40625 453.121094 344.40625 453.121094 340.992188 C 453.121094 337.578125 458.238281 337.578125 458.238281 340.992188 "/>
<path style=" stroke:none;fill-rule:nonzero;fill:rgb(100%,100%,100%);fill-opacity:1;" d="M 260.097656 359.425781 C 260.097656 362.835938 254.976562 362.835938 254.976562 359.425781 C 254.976562 356.011719 260.097656 356.011719 260.097656 359.425781 "/>
<path style=" stroke:none;fill-rule:nonzero;fill:rgb(100%,100%,100%);fill-opacity:1;" d="M 396.289062 76.800781 C 396.289062 80.214844 391.167969 80.214844 391.167969 76.800781 C 391.167969 73.386719 396.289062 73.386719 396.289062 76.800781 "/>
<path style=" stroke:none;fill-rule:nonzero;fill:rgb(100%,100%,100%);fill-opacity:1;" d="M 59.390625 163.839844 C 59.390625 167.253906 54.273438 167.253906 54.273438 163.839844 C 54.273438 160.425781 59.390625 160.425781 59.390625 163.839844 "/>
<path style=" stroke:none;fill-rule:nonzero;fill:rgb(100%,100%,100%);fill-opacity:1;" d="M 39.425781 138.238281 C 39.425781 141.652344 34.304688 141.652344 34.304688 138.238281 C 34.304688 134.828125 39.425781 134.828125 39.425781 138.238281 "/>
<path style=" stroke:none;fill-rule:nonzero;fill:rgb(100%,100%,100%);fill-opacity:1;" d="M 337.40625 207.359375 C 337.40625 210.773438 332.289062 210.773438 332.289062 207.359375 C 332.289062 203.945312 337.40625 203.945312 337.40625 207.359375 "/>
<path style=" stroke:none;fill-rule:nonzero;fill:rgb(100%,100%,100%);fill-opacity:1;" d="M 291.328125 174.078125 C 291.328125 177.492188 286.207031 177.492188 286.207031 174.078125 C 286.207031 170.667969 291.328125 170.667969 291.328125 174.078125 "/>
<path style=" stroke:none;fill-rule:nonzero;fill:rgb(100%,100%,100%);fill-opacity:1;" d="M 370.175781 64.511719 C 370.175781 67.925781 365.054688 67.925781 365.054688 64.511719 C 365.054688 61.097656 370.175781 61.097656 370.175781 64.511719 "/>
<path style=" stroke:none;fill-rule:nonzero;fill:rgb(100%,100%,100%);fill-opacity:1;" d="M 48.640625 8.703125 C 48.640625 12.117188 43.519531 12.117188 43.519531 8.703125 C 43.519531 5.289062 48.640625 5.289062 48.640625 8.703125 "/>
<path style=" stroke:none;fill-rule:nonzero;fill:rgb(100%,100%,100%);fill-opacity:1;" d="M 247.296875 74.238281 C 247.296875 77.652344 242.175781 77.652344 242.175781 74.238281 C 242.175781 70.828125 247.296875 70.828125 247.296875 74.238281 "/>
<path style=" stroke:none;fill-rule:nonzero;fill:rgb(100%,100%,100%);fill-opacity:1;" d="M 78.847656 218.625 C 78.847656 222.039062 73.726562 222.039062 73.726562 218.625 C 73.726562 215.210938 78.847656 215.210938 78.847656 218.625 "/>
<path style=" stroke:none;fill-rule:nonzero;fill:rgb(100%,100%,100%);fill-opacity:1;" d="M 262.144531 44.542969 C 262.144531 47.957031 257.023438 47.957031 257.023438 44.542969 C 257.023438 41.128906 262.144531 41.128906 262.144531 44.542969 "/>
<path style=" stroke:none;fill-rule:nonzero;fill:rgb(100%,100%,100%);fill-opacity:1;" d="M 367.105469 154.625 C 367.105469 158.039062 361.984375 158.039062 361.984375 154.625 C 361.984375 151.210938 367.105469 151.210938 367.105469 154.625 "/>
<path style=" stroke:none;fill-rule:nonzero;fill:rgb(100%,100%,100%);fill-opacity:1;" d="M 439.808594 276.480469 C 439.808594 279.894531 434.6875 279.894531 434.6875 276.480469 C 434.6875 273.066406 439.808594 273.066406 439.808594 276.480469 "/>
<path style=" stroke:none;fill-rule:nonzero;fill:rgb(100%,100%,100%);fill-opacity:1;" d="M 290.304688 479.230469 C 290.304688 482.644531 285.183594 482.644531 285.183594 479.230469 C 285.183594 475.820312 290.304688 475.820312 290.304688 479.230469 "/>
<path style=" stroke:none;fill-rule:nonzero;fill:rgb(100%,100%,100%);fill-opacity:1;" d="M 431.617188 249.855469 C 431.617188 253.269531 426.496094 253.269531 426.496094 249.855469 C 426.496094 246.441406 431.617188 246.441406 431.617188 249.855469 "/>
<path style=" stroke:none;fill-rule:nonzero;fill:rgb(100%,100%,100%);fill-opacity:1;" d="M 165.886719 352.257812 C 165.886719 355.667969 160.769531 355.667969 160.769531 352.257812 C 160.769531 348.84375 165.886719 348.84375 165.886719 352.257812 "/>
<path style=" stroke:none;fill-rule:nonzero;fill:rgb(100%,100%,100%);fill-opacity:1;" d="M 77.824219 340.480469 C 77.824219 343.894531 72.703125 343.894531 72.703125 340.480469 C 72.703125 337.066406 77.824219 337.066406 77.824219 340.480469 "/>
<path style=" stroke:none;fill-rule:nonzero;fill:rgb(100%,100%,100%);fill-opacity:1;" d="M 124.929688 210.945312 C 124.929688 214.355469 119.808594 214.355469 119.808594 210.945312 C 119.808594 207.53125 124.929688 207.53125 124.929688 210.945312 "/>
<path style=" stroke:none;fill-rule:nonzero;fill:rgb(100%,100%,100%);fill-opacity:1;" d="M 444.929688 258.558594 C 444.929688 261.972656 439.808594 261.972656 439.808594 258.558594 C 439.808594 255.148438 444.929688 255.148438 444.929688 258.558594 "/>
<path style=" stroke:none;fill-rule:nonzero;fill:rgb(100%,100%,100%);fill-opacity:1;" d="M 91.136719 203.777344 C 91.136719 207.1875 86.015625 207.1875 86.015625 203.777344 C 86.015625 200.363281 91.136719 200.363281 91.136719 203.777344 "/>
<path style=" stroke:none;fill-rule:nonzero;fill:rgb(100%,100%,100%);fill-opacity:1;" d="M 457.726562 507.902344 C 457.726562 511.316406 452.609375 511.316406 452.609375 507.902344 C 452.609375 504.492188 457.726562 504.492188 457.726562 507.902344 "/>
<path style=" stroke:none;fill-rule:nonzero;fill:rgb(100%,100%,100%);fill-opacity:1;" d="M 58.367188 324.097656 C 58.367188 327.507812 53.246094 327.507812 53.246094 324.097656 C 53.246094 320.683594 58.367188 320.683594 58.367188 324.097656 "/>
<path style=" stroke:none;fill-rule:nonzero;fill:rgb(100%,100%,100%);fill-opacity:1;" d="M 4.609375 190.976562 C 4.609375 194.390625 -0.511719 194.390625 -0.511719 190.976562 C -0.511719 187.5625 4.609375 187.5625 4.609375 190.976562 "/>
<path style=" stroke:none;fill-rule:nonzero;fill:rgb(100%,100%,100%);fill-opacity:1;" d="M 177.664062 333.3125 C 177.664062 336.726562 172.542969 336.726562 172.542969 333.3125 C 172.542969 329.898438 177.664062 329.898438 177.664062 333.3125 "/>
<path style=" stroke:none;fill-rule:nonzero;fill:rgb(100%,100%,100%);fill-opacity:1;" d="M 393.726562 153.089844 C 393.726562 156.5 388.609375 156.5 388.609375 153.089844 C 388.609375 149.675781 393.726562 149.675781 393.726562 153.089844 "/>
<path style=" stroke:none;fill-rule:nonzero;fill:rgb(100%,100%,100%);fill-opacity:1;" d="M 32.769531 320 C 32.769531 323.414062 27.648438 323.414062 27.648438 320 C 27.648438 316.585938 32.769531 316.585938 32.769531 320 "/>
<path style=" stroke:none;fill-rule:nonzero;fill:rgb(100%,100%,100%);fill-opacity:1;" d="M 412.671875 346.113281 C 412.671875 349.523438 407.550781 349.523438 407.550781 346.113281 C 407.550781 342.699219 412.671875 342.699219 412.671875 346.113281 "/>
<path style=" stroke:none;fill-rule:nonzero;fill:rgb(100%,100%,100%);fill-opacity:1;" d="M 170.496094 198.65625 C 170.496094 202.070312 165.375 202.070312 165.375 198.65625 C 165.375 195.242188 170.496094 195.242188 170.496094 198.65625 "/>
<path style=" stroke:none;fill-rule:nonzero;fill:rgb(100%,100%,100%);fill-opacity:1;" d="M 490.496094 131.070312 C 490.496094 134.484375 485.375 134.484375 485.375 131.070312 C 485.375 127.660156 490.496094 127.660156 490.496094 131.070312 "/>
<path style=" stroke:none;fill-rule:nonzero;fill:rgb(100%,100%,100%);fill-opacity:1;" d="M 329.214844 236.03125 C 329.214844 239.445312 324.097656 239.445312 324.097656 236.03125 C 324.097656 232.617188 329.214844 232.617188 329.214844 236.03125 "/>
<path style=" stroke:none;fill-rule:nonzero;fill:rgb(100%,100%,100%);fill-opacity:1;" d="M 22.527344 378.878906 C 22.527344 382.292969 17.40625 382.292969 17.40625 378.878906 C 17.40625 375.464844 22.527344 375.464844 22.527344 378.878906 "/>
<path style=" stroke:none;fill-rule:nonzero;fill:rgb(100%,100%,100%);fill-opacity:1;" d="M 417.792969 269.3125 C 417.792969 272.726562 412.671875 272.726562 412.671875 269.3125 C 412.671875 265.898438 417.792969 265.898438 417.792969 269.3125 "/>
<path style=" stroke:none;fill-rule:nonzero;fill:rgb(100%,100%,100%);fill-opacity:1;" d="M 283.648438 458.238281 C 283.648438 461.652344 278.527344 461.652344 278.527344 458.238281 C 278.527344 454.828125 283.648438 454.828125 283.648438 458.238281 "/>
<path style=" stroke:none;fill-rule:nonzero;fill:rgb(100%,100%,100%);fill-opacity:1;" d="M 367.105469 74.753906 C 367.105469 78.164062 361.984375 78.164062 361.984375 74.753906 C 361.984375 71.339844 367.105469 71.339844 367.105469 74.753906 "/>
<path style=" stroke:none;fill-rule:nonzero;fill:rgb(100%,100%,100%);fill-opacity:1;" d="M 249.34375 152.0625 C 249.34375 155.476562 244.222656 155.476562 244.222656 152.0625 C 244.222656 148.652344 249.34375 148.652344 249.34375 152.0625 "/>
<path style=" stroke:none;fill-rule:nonzero;fill:rgb(100%,100%,100%);fill-opacity:1;" d="M 164.351562 348.160156 C 164.351562 351.574219 159.230469 351.574219 159.230469 348.160156 C 159.230469 344.746094 164.351562 344.746094 164.351562 348.160156 "/>
<path style=" stroke:none;fill-rule:nonzero;fill:rgb(100%,100%,100%);fill-opacity:1;" d="M 353.28125 474.625 C 353.28125 478.039062 348.160156 478.039062 348.160156 474.625 C 348.160156 471.210938 353.28125 471.210938 353.28125 474.625 "/>
<path style=" stroke:none;fill-rule:nonzero;fill:rgb(100%,100%,100%);fill-opacity:1;" d="M 432.128906 489.984375 C 432.128906 493.398438 427.007812 493.398438 427.007812 489.984375 C 427.007812 486.570312 432.128906 486.570312 432.128906 489.984375 "/>
<path style=" stroke:none;fill-rule:nonzero;fill:rgb(100%,100%,100%);fill-opacity:1;" d="M 312.320312 16.894531 C 312.320312 20.308594 307.199219 20.308594 307.199219 16.894531 C 307.199219 13.484375 312.320312 13.484375 312.320312 16.894531 "/>
<path style=" stroke:none;fill-rule:nonzero;fill:rgb(100%,100%,100%);fill-opacity:1;" d="M 6.65625 365.566406 C 6.65625 368.980469 1.535156 368.980469 1.535156 365.566406 C 1.535156 362.15625 6.65625 362.15625 6.65625 365.566406 "/>
<path style=" stroke:none;fill-rule:nonzero;fill:rgb(100%,100%,100%);fill-opacity:1;" d="M 420.351562 502.785156 C 420.351562 506.199219 415.230469 506.199219 415.230469 502.785156 C 415.230469 499.371094 420.351562 499.371094 420.351562 502.785156 "/>
<path style=" stroke:none;fill-rule:nonzero;fill:rgb(100%,100%,100%);fill-opacity:1;" d="M 347.648438 453.632812 C 347.648438 457.046875 342.527344 457.046875 342.527344 453.632812 C 342.527344 450.21875 347.648438 450.21875 347.648438 453.632812 "/>
<path style=" stroke:none;fill-rule:nonzero;fill:rgb(100%,100%,100%);fill-opacity:1;" d="M 16.382812 165.886719 C 16.382812 169.300781 11.265625 169.300781 11.265625 165.886719 C 11.265625 162.476562 16.382812 162.476562 16.382812 165.886719 "/>
<path style=" stroke:none;fill-rule:nonzero;fill:rgb(100%,100%,100%);fill-opacity:1;" d="M 353.792969 212.480469 C 353.792969 215.894531 348.671875 215.894531 348.671875 212.480469 C 348.671875 209.066406 353.792969 209.066406 353.792969 212.480469 "/>
<path style=" stroke:none;fill-rule:nonzero;fill:rgb(100%,100%,100%);fill-opacity:1;" d="M 58.878906 464.382812 C 58.878906 467.796875 53.761719 467.796875 53.761719 464.382812 C 53.761719 460.96875 58.878906 460.96875 58.878906 464.382812 "/>
<path style=" stroke:none;fill-rule:nonzero;fill:rgb(100%,100%,100%);fill-opacity:1;" d="M 253.441406 503.296875 C 253.441406 506.710938 248.320312 506.710938 248.320312 503.296875 C 248.320312 499.882812 253.441406 499.882812 253.441406 503.296875 "/>
<path style=" stroke:none;fill-rule:nonzero;fill:rgb(100%,100%,100%);fill-opacity:1;" d="M 257.023438 403.457031 C 257.023438 406.871094 251.902344 406.871094 251.902344 403.457031 C 251.902344 400.042969 257.023438 400.042969 257.023438 403.457031 "/>
<path style=" stroke:none;fill-rule:nonzero;fill:rgb(100%,100%,100%);fill-opacity:1;" d="M 266.753906 137.726562 C 266.753906 141.140625 261.632812 141.140625 261.632812 137.726562 C 261.632812 134.316406 266.753906 134.316406 266.753906 137.726562 "/>
<path style=" stroke:none;fill-rule:nonzero;fill:rgb(100%,100%,100%);fill-opacity:1;" d="M 431.617188 223.742188 C 431.617188 227.15625 426.496094 227.15625 426.496094 223.742188 C 426.496094 220.332031 431.617188 220.332031 431.617188 223.742188 "/>
<path style=" stroke:none;fill-rule:nonzero;fill:rgb(100%,100%,100%);fill-opacity:1;" d="M 106.496094 24.0625 C 106.496094 27.476562 101.375 27.476562 101.375 24.0625 C 101.375 20.652344 106.496094 20.652344 106.496094 24.0625 "/>
<path style=" stroke:none;fill-rule:nonzero;fill:rgb(100%,100%,100%);fill-opacity:1;" d="M 145.921875 60.929688 C 145.921875 64.339844 140.800781 64.339844 140.800781 60.929688 C 140.800781 57.515625 145.921875 57.515625 145.921875 60.929688 "/>
<path style=" stroke:none;fill-rule:nonzero;fill:rgb(100%,100%,100%);fill-opacity:1;" d="M 82.945312 223.230469 C 82.945312 226.644531 77.824219 226.644531 77.824219 223.230469 C 77.824219 219.820312 82.945312 219.820312 82.945312 223.230469 "/>
<path style=" stroke:none;fill-rule:nonzero;fill:rgb(100%,100%,100%);fill-opacity:1;" d="M 247.296875 92.160156 C 247.296875 95.574219 242.175781 95.574219 242.175781 92.160156 C 242.175781 88.746094 247.296875 88.746094 247.296875 92.160156 "/>
<path style=" stroke:none;fill-rule:nonzero;fill:rgb(100%,100%,100%);fill-opacity:1;" d="M 296.449219 414.71875 C 296.449219 418.132812 291.328125 418.132812 291.328125 414.71875 C 291.328125 411.308594 296.449219 411.308594 296.449219 414.71875 "/>
<path style=" stroke:none;fill-rule:nonzero;fill:rgb(100%,100%,100%);fill-opacity:1;" d="M 494.59375 113.664062 C 494.59375 117.078125 489.472656 117.078125 489.472656 113.664062 C 489.472656 110.25 494.59375 110.25 494.59375 113.664062 "/>
<path style=" stroke:none;fill-rule:nonzero;fill:rgb(100%,100%,100%);fill-opacity:1;" d="M 142.335938 448 C 142.335938 451.414062 137.214844 451.414062 137.214844 448 C 137.214844 444.585938 142.335938 444.585938 142.335938 448 "/>
<path style=" stroke:none;fill-rule:nonzero;fill:rgb(100%,100%,100%);fill-opacity:1;" d="M 253.441406 85.503906 C 253.441406 88.917969 248.320312 88.917969 248.320312 85.503906 C 248.320312 82.089844 253.441406 82.089844 253.441406 85.503906 "/>
<path style=" stroke:none;fill-rule:nonzero;fill:rgb(100%,100%,100%);fill-opacity:1;" d="M 184.320312 235.007812 C 184.320312 238.421875 179.199219 238.421875 179.199219 235.007812 C 179.199219 231.59375 184.320312 231.59375 184.320312 235.007812 "/>
<path style=" stroke:none;fill-rule:nonzero;fill:rgb(100%,100%,100%);fill-opacity:1;" d="M 40.449219 462.847656 C 40.449219 466.261719 35.328125 466.261719 35.328125 462.847656 C 35.328125 459.433594 40.449219 459.433594 40.449219 462.847656 "/>
<path style=" stroke:none;fill-rule:nonzero;fill:rgb(100%,100%,100%);fill-opacity:1;" d="M 272.894531 59.902344 C 272.894531 63.316406 267.777344 63.316406 267.777344 59.902344 C 267.777344 56.492188 272.894531 56.492188 272.894531 59.902344 "/>
<path style=" stroke:none;fill-rule:nonzero;fill:rgb(100%,100%,100%);fill-opacity:1;" d="M 46.59375 70.65625 C 46.59375 74.070312 41.472656 74.070312 41.472656 70.65625 C 41.472656 67.242188 46.59375 67.242188 46.59375 70.65625 "/>
<path style=" stroke:none;fill-rule:nonzero;fill:rgb(100%,100%,100%);fill-opacity:1;" d="M 168.960938 490.496094 C 168.960938 493.910156 163.839844 493.910156 163.839844 490.496094 C 163.839844 487.082031 168.960938 487.082031 168.960938 490.496094 "/>
<path style=" stroke:none;fill-rule:nonzero;fill:rgb(100%,100%,100%);fill-opacity:1;" d="M 246.273438 35.328125 C 246.273438 38.742188 241.152344 38.742188 241.152344 35.328125 C 241.152344 31.914062 246.273438 31.914062 246.273438 35.328125 "/>
<path style=" stroke:none;fill-rule:nonzero;fill:rgb(100%,100%,100%);fill-opacity:1;" d="M 12.289062 207.359375 C 12.289062 210.773438 7.167969 210.773438 7.167969 207.359375 C 7.167969 203.945312 12.289062 203.945312 12.289062 207.359375 "/>
<path style=" stroke:none;fill-rule:nonzero;fill:rgb(100%,100%,100%);fill-opacity:1;" d="M 68.097656 283.648438 C 68.097656 287.0625 62.976562 287.0625 62.976562 283.648438 C 62.976562 280.234375 68.097656 280.234375 68.097656 283.648438 "/>
<path style=" stroke:none;fill-rule:nonzero;fill:rgb(100%,100%,100%);fill-opacity:1;" d="M 477.183594 83.457031 C 477.183594 86.871094 472.0625 86.871094 472.0625 83.457031 C 472.0625 80.042969 477.183594 80.042969 477.183594 83.457031 "/>
<path style=" stroke:none;fill-rule:nonzero;fill:rgb(100%,100%,100%);fill-opacity:1;" d="M 6.65625 201.214844 C 6.65625 204.628906 1.535156 204.628906 1.535156 201.214844 C 1.535156 197.800781 6.65625 197.800781 6.65625 201.214844 "/>
<path style=" stroke:none;fill-rule:nonzero;fill:rgb(100%,100%,100%);fill-opacity:1;" d="M 224.769531 446.976562 C 224.769531 450.390625 219.648438 450.390625 219.648438 446.976562 C 219.648438 443.5625 224.769531 443.5625 224.769531 446.976562 "/>
<path style=" stroke:none;fill-rule:nonzero;fill:rgb(100%,100%,100%);fill-opacity:1;" d="M 201.726562 16.382812 C 201.726562 19.796875 196.609375 19.796875 196.609375 16.382812 C 196.609375 12.96875 201.726562 12.96875 201.726562 16.382812 "/>
<path style=" stroke:none;fill-rule:nonzero;fill:rgb(100%,100%,100%);fill-opacity:1;" d="M 217.601562 404.480469 C 217.601562 407.894531 212.480469 407.894531 212.480469 404.480469 C 212.480469 401.066406 217.601562 401.066406 217.601562 404.480469 "/>
<path style=" stroke:none;fill-rule:nonzero;fill:rgb(100%,100%,100%);fill-opacity:1;" d="M 322.046875 25.601562 C 322.046875 29.011719 316.929688 29.011719 316.929688 25.601562 C 316.929688 22.1875 322.046875 22.1875 322.046875 25.601562 "/>
<path style=" stroke:none;fill-rule:nonzero;fill:rgb(100%,100%,100%);fill-opacity:1;" d="M 382.976562 240.640625 C 382.976562 244.054688 377.855469 244.054688 377.855469 240.640625 C 377.855469 237.226562 382.976562 237.226562 382.976562 240.640625 "/>
<path style=" stroke:none;fill-rule:nonzero;fill:rgb(100%,100%,100%);fill-opacity:1;" d="M 325.632812 278.527344 C 325.632812 281.941406 320.511719 281.941406 320.511719 278.527344 C 320.511719 275.113281 325.632812 275.113281 325.632812 278.527344 "/>
<path style=" stroke:none;fill-rule:nonzero;fill:rgb(100%,100%,100%);fill-opacity:1;" d="M 417.28125 477.183594 C 417.28125 480.597656 412.160156 480.597656 412.160156 477.183594 C 412.160156 473.769531 417.28125 473.769531 417.28125 477.183594 "/>
<path style=" stroke:none;fill-rule:nonzero;fill:rgb(100%,100%,100%);fill-opacity:1;" d="M 442.367188 357.886719 C 442.367188 361.300781 437.246094 361.300781 437.246094 357.886719 C 437.246094 354.476562 442.367188 354.476562 442.367188 357.886719 "/>
<path style=" stroke:none;fill-rule:nonzero;fill:rgb(100%,100%,100%);fill-opacity:1;" d="M 136.703125 135.167969 C 136.703125 138.582031 131.585938 138.582031 131.585938 135.167969 C 131.585938 131.753906 136.703125 131.753906 136.703125 135.167969 "/>
<path style=" stroke:none;fill-rule:nonzero;fill:rgb(100%,100%,100%);fill-opacity:1;" d="M 20.992188 185.855469 C 20.992188 189.269531 15.871094 189.269531 15.871094 185.855469 C 15.871094 182.441406 20.992188 182.441406 20.992188 185.855469 "/>
<path style=" stroke:none;fill-rule:nonzero;fill:rgb(100%,100%,100%);fill-opacity:1;" d="M 139.265625 490.496094 C 139.265625 493.910156 134.144531 493.910156 134.144531 490.496094 C 134.144531 487.082031 139.265625 487.082031 139.265625 490.496094 "/>
<path style=" stroke:none;fill-rule:nonzero;fill:rgb(100%,100%,100%);fill-opacity:1;" d="M 297.984375 461.3125 C 297.984375 464.726562 292.863281 464.726562 292.863281 461.3125 C 292.863281 457.898438 297.984375 457.898438 297.984375 461.3125 "/>
<path style=" stroke:none;fill-rule:nonzero;fill:rgb(100%,100%,100%);fill-opacity:1;" d="M 172.03125 20.992188 C 172.03125 24.40625 166.910156 24.40625 166.910156 20.992188 C 166.910156 17.578125 172.03125 17.578125 172.03125 20.992188 "/>
<path style=" stroke:none;fill-rule:nonzero;fill:rgb(100%,100%,100%);fill-opacity:1;" d="M 163.839844 13.824219 C 163.839844 17.238281 158.71875 17.238281 158.71875 13.824219 C 158.71875 10.410156 163.839844 10.410156 163.839844 13.824219 "/>
<path style=" stroke:none;fill-rule:nonzero;fill:rgb(100%,100%,100%);fill-opacity:1;" d="M 156.160156 354.816406 C 156.160156 358.230469 151.039062 358.230469 151.039062 354.816406 C 151.039062 351.402344 156.160156 351.402344 156.160156 354.816406 "/>
<path style=" stroke:none;fill-rule:nonzero;fill:rgb(100%,100%,100%);fill-opacity:1;" d="M 273.40625 498.175781 C 273.40625 501.589844 268.289062 501.589844 268.289062 498.175781 C 268.289062 494.761719 273.40625 494.761719 273.40625 498.175781 "/>
<path style=" stroke:none;fill-rule:nonzero;fill:rgb(100%,100%,100%);fill-opacity:1;" d="M 203.265625 135.167969 C 203.265625 138.582031 198.144531 138.582031 198.144531 135.167969 C 198.144531 131.753906 203.265625 131.753906 203.265625 135.167969 "/>
<path style=" stroke:none;fill-rule:nonzero;fill:rgb(100%,100%,100%);fill-opacity:1;" d="M 90.113281 233.984375 C 90.113281 237.398438 84.992188 237.398438 84.992188 233.984375 C 84.992188 230.570312 90.113281 230.570312 90.113281 233.984375 "/>
<path style=" stroke:none;fill-rule:nonzero;fill:rgb(100%,100%,100%);fill-opacity:1;" d="M 248.320312 170.496094 C 248.320312 173.910156 243.199219 173.910156 243.199219 170.496094 C 243.199219 167.082031 248.320312 167.082031 248.320312 170.496094 "/>
<path style=" stroke:none;fill-rule:nonzero;fill:rgb(100%,100%,100%);fill-opacity:1;" d="M 87.550781 110.59375 C 87.550781 114.003906 82.433594 114.003906 82.433594 110.59375 C 82.433594 107.179688 87.550781 107.179688 87.550781 110.59375 "/>
<path style=" stroke:none;fill-rule:nonzero;fill:rgb(100%,100%,100%);fill-opacity:1;" d="M 327.167969 9.726562 C 327.167969 13.140625 322.046875 13.140625 322.046875 9.726562 C 322.046875 6.316406 327.167969 6.316406 327.167969 9.726562 "/>
<path style=" stroke:none;fill-rule:nonzero;fill:rgb(100%,100%,100%);fill-opacity:1;" d="M 431.617188 156.671875 C 431.617188 160.085938 426.496094 160.085938 426.496094 156.671875 C 426.496094 153.257812 431.617188 153.257812 431.617188 156.671875 "/>
<path style=" stroke:none;fill-rule:nonzero;fill:rgb(100%,100%,100%);fill-opacity:1;" d="M 466.945312 54.273438 C 466.945312 57.683594 461.824219 57.683594 461.824219 54.273438 C 461.824219 50.859375 466.945312 50.859375 466.945312 54.273438 "/>
<path style=" stroke:none;fill-rule:nonzero;fill:rgb(100%,100%,100%);fill-opacity:1;" d="M 350.207031 98.816406 C 350.207031 102.230469 345.089844 102.230469 345.089844 98.816406 C 345.089844 95.402344 350.207031 95.402344 350.207031 98.816406 "/>
<path style=" stroke:none;fill-rule:nonzero;fill:rgb(100%,100%,100%);fill-opacity:1;" d="M 70.144531 263.679688 C 70.144531 267.09375 65.023438 267.09375 65.023438 263.679688 C 65.023438 260.265625 70.144531 260.265625 70.144531 263.679688 "/>
<path style=" stroke:none;fill-rule:nonzero;fill:rgb(100%,100%,100%);fill-opacity:1;" d="M 510.976562 311.296875 C 510.976562 314.710938 505.855469 314.710938 505.855469 311.296875 C 505.855469 307.882812 510.976562 307.882812 510.976562 311.296875 "/>
<path style=" stroke:none;fill-rule:nonzero;fill:rgb(100%,100%,100%);fill-opacity:1;" d="M 182.785156 316.414062 C 182.785156 319.828125 177.664062 319.828125 177.664062 316.414062 C 177.664062 313.003906 182.785156 313.003906 182.785156 316.414062 "/>
<path style=" stroke:none;fill-rule:nonzero;fill:rgb(100%,100%,100%);fill-opacity:1;" d="M 410.113281 173.054688 C 410.113281 176.46875 404.992188 176.46875 404.992188 173.054688 C 404.992188 169.644531 410.113281 169.644531 410.113281 173.054688 "/>
<path style=" stroke:none;fill-rule:nonzero;fill:rgb(100%,100%,100%);fill-opacity:1;" d="M 275.457031 486.398438 C 275.457031 489.8125 270.335938 489.8125 270.335938 486.398438 C 270.335938 482.988281 275.457031 482.988281 275.457031 486.398438 "/>
<path style=" stroke:none;fill-rule:nonzero;fill:rgb(100%,100%,100%);fill-opacity:1;" d="M 451.070312 285.695312 C 451.070312 289.109375 445.953125 289.109375 445.953125 285.695312 C 445.953125 282.28125 451.070312 282.28125 451.070312 285.695312 "/>
<path style=" stroke:none;fill-rule:nonzero;fill:rgb(100%,100%,100%);fill-opacity:1;" d="M 436.734375 482.816406 C 436.734375 486.230469 431.617188 486.230469 431.617188 482.816406 C 431.617188 479.402344 436.734375 479.402344 436.734375 482.816406 "/>
<path style=" stroke:none;fill-rule:nonzero;fill:rgb(100%,100%,100%);fill-opacity:1;" d="M 371.199219 181.246094 C 371.199219 184.660156 366.078125 184.660156 366.078125 181.246094 C 366.078125 177.835938 371.199219 177.835938 371.199219 181.246094 "/>
<path style=" stroke:none;fill-rule:nonzero;fill:rgb(100%,100%,100%);fill-opacity:1;" d="M 47.105469 130.046875 C 47.105469 133.460938 41.984375 133.460938 41.984375 130.046875 C 41.984375 126.632812 47.105469 126.632812 47.105469 130.046875 "/>
<path style=" stroke:none;fill-rule:nonzero;fill:rgb(100%,100%,100%);fill-opacity:1;" d="M 453.632812 302.078125 C 453.632812 305.492188 448.511719 305.492188 448.511719 302.078125 C 448.511719 298.667969 453.632812 298.667969 453.632812 302.078125 "/>
<path style=" stroke:none;fill-rule:nonzero;fill:rgb(100%,100%,100%);fill-opacity:1;" d="M 423.425781 420.351562 C 423.425781 423.765625 418.304688 423.765625 418.304688 420.351562 C 418.304688 416.9375 423.425781 416.9375 423.425781 420.351562 "/>
<path style=" stroke:none;fill-rule:nonzero;fill:rgb(100%,100%,100%);fill-opacity:1;" d="M 397.3125 371.199219 C 397.3125 374.613281 392.191406 374.613281 392.191406 371.199219 C 392.191406 367.785156 397.3125 367.785156 397.3125 371.199219 "/>
<path style=" stroke:none;fill-rule:nonzero;fill:rgb(100%,100%,100%);fill-opacity:1;" d="M 306.175781 37.375 C 306.175781 40.789062 301.054688 40.789062 301.054688 37.375 C 301.054688 33.960938 306.175781 33.960938 306.175781 37.375 "/>
<path style=" stroke:none;fill-rule:nonzero;fill:rgb(100%,100%,100%);fill-opacity:1;" d="M 380.414062 350.207031 C 380.414062 353.621094 375.296875 353.621094 375.296875 350.207031 C 375.296875 346.792969 380.414062 346.792969 380.414062 350.207031 "/>
<path style=" stroke:none;fill-rule:nonzero;fill:rgb(100%,100%,100%);fill-opacity:1;" d="M 396.800781 460.800781 C 396.800781 464.214844 391.679688 464.214844 391.679688 460.800781 C 391.679688 457.386719 396.800781 457.386719 396.800781 460.800781 "/>
<path style=" stroke:none;fill-rule:nonzero;fill:rgb(100%,100%,100%);fill-opacity:1;" d="M 175.617188 359.425781 C 175.617188 362.835938 170.496094 362.835938 170.496094 359.425781 C 170.496094 356.011719 175.617188 356.011719 175.617188 359.425781 "/>
<path style=" stroke:none;fill-rule:nonzero;fill:rgb(100%,100%,100%);fill-opacity:1;" d="M 479.230469 256 C 479.230469 259.414062 474.113281 259.414062 474.113281 256 C 474.113281 252.585938 479.230469 252.585938 479.230469 256 "/>
<path style=" stroke:none;fill-rule:nonzero;fill:rgb(100%,100%,100%);fill-opacity:1;" d="M 444.414062 228.863281 C 444.414062 232.277344 439.296875 232.277344 439.296875 228.863281 C 439.296875 225.449219 444.414062 225.449219 444.414062 228.863281 "/>
<path style=" stroke:none;fill-rule:nonzero;fill:rgb(100%,100%,100%);fill-opacity:1;" d="M 484.863281 51.199219 C 484.863281 54.613281 479.742188 54.613281 479.742188 51.199219 C 479.742188 47.785156 484.863281 47.785156 484.863281 51.199219 "/>
<path style=" stroke:none;fill-rule:nonzero;fill:rgb(100%,100%,100%);fill-opacity:1;" d="M 19.457031 247.296875 C 19.457031 250.710938 14.335938 250.710938 14.335938 247.296875 C 14.335938 243.882812 19.457031 243.882812 19.457031 247.296875 "/>
<path style=" stroke:none;fill-rule:nonzero;fill:rgb(100%,100%,100%);fill-opacity:1;" d="M 214.015625 445.953125 C 214.015625 449.367188 208.894531 449.367188 208.894531 445.953125 C 208.894531 442.539062 214.015625 442.539062 214.015625 445.953125 "/>
<path style=" stroke:none;fill-rule:nonzero;fill:rgb(100%,100%,100%);fill-opacity:1;" d="M 93.183594 499.199219 C 93.183594 502.613281 88.0625 502.613281 88.0625 499.199219 C 88.0625 495.785156 93.183594 495.785156 93.183594 499.199219 "/>
<path style=" stroke:none;fill-rule:nonzero;fill:rgb(100%,100%,100%);fill-opacity:1;" d="M 207.871094 432.640625 C 207.871094 436.054688 202.753906 436.054688 202.753906 432.640625 C 202.753906 429.226562 207.871094 429.226562 207.871094 432.640625 "/>
<path style=" stroke:none;fill-rule:nonzero;fill:rgb(100%,100%,100%);fill-opacity:1;" d="M 173.054688 451.585938 C 173.054688 454.996094 167.9375 454.996094 167.9375 451.585938 C 167.9375 448.171875 173.054688 448.171875 173.054688 451.585938 "/>
<path style=" stroke:none;fill-rule:nonzero;fill:rgb(100%,100%,100%);fill-opacity:1;" d="M 291.328125 460.800781 C 291.328125 464.214844 286.207031 464.214844 286.207031 460.800781 C 286.207031 457.386719 291.328125 457.386719 291.328125 460.800781 "/>
<path style=" stroke:none;fill-rule:nonzero;fill:rgb(100%,100%,100%);fill-opacity:1;" d="M 397.3125 30.71875 C 397.3125 34.132812 392.191406 34.132812 392.191406 30.71875 C 392.191406 27.308594 397.3125 27.308594 397.3125 30.71875 "/>
<path style=" stroke:none;fill-rule:nonzero;fill:rgb(100%,100%,100%);fill-opacity:1;" d="M 463.359375 91.648438 C 463.359375 95.0625 458.238281 95.0625 458.238281 91.648438 C 458.238281 88.234375 463.359375 88.234375 463.359375 91.648438 "/>
<path style=" stroke:none;fill-rule:nonzero;fill:rgb(100%,100%,100%);fill-opacity:1;" d="M 42.496094 257.023438 C 42.496094 260.4375 37.375 260.4375 37.375 257.023438 C 37.375 253.609375 42.496094 253.609375 42.496094 257.023438 "/>
<path style=" stroke:none;fill-rule:nonzero;fill:rgb(100%,100%,100%);fill-opacity:1;" d="M 404.992188 172.542969 C 404.992188 175.957031 399.871094 175.957031 399.871094 172.542969 C 399.871094 169.128906 404.992188 169.128906 404.992188 172.542969 "/>
<path style=" stroke:none;fill-rule:nonzero;fill:rgb(100%,100%,100%);fill-opacity:1;" d="M 360.960938 156.160156 C 360.960938 159.574219 355.839844 159.574219 355.839844 156.160156 C 355.839844 152.746094 360.960938 152.746094 360.960938 156.160156 "/>
<path style=" stroke:none;fill-rule:nonzero;fill:rgb(100%,100%,100%);fill-opacity:1;" d="M 110.59375 50.6875 C 110.59375 54.101562 105.472656 54.101562 105.472656 50.6875 C 105.472656 47.273438 110.59375 47.273438 110.59375 50.6875 "/>
<path style=" stroke:none;fill-rule:nonzero;fill:rgb(100%,100%,100%);fill-opacity:1;" d="M 408.0625 319.488281 C 408.0625 322.902344 402.945312 322.902344 402.945312 319.488281 C 402.945312 316.074219 408.0625 316.074219 408.0625 319.488281 "/>
<path style=" stroke:none;fill-rule:nonzero;fill:rgb(100%,100%,100%);fill-opacity:1;" d="M 25.089844 214.527344 C 25.089844 217.941406 19.96875 217.941406 19.96875 214.527344 C 19.96875 211.113281 25.089844 211.113281 25.089844 214.527344 "/>
<path style=" stroke:none;fill-rule:nonzero;fill:rgb(100%,100%,100%);fill-opacity:1;" d="M 229.375 89.089844 C 229.375 92.5 224.257812 92.5 224.257812 89.089844 C 224.257812 85.675781 229.375 85.675781 229.375 89.089844 "/>
<path style=" stroke:none;fill-rule:nonzero;fill:rgb(100%,100%,100%);fill-opacity:1;" d="M 507.902344 330.238281 C 507.902344 333.652344 502.785156 333.652344 502.785156 330.238281 C 502.785156 326.828125 507.902344 326.828125 507.902344 330.238281 "/>
<path style=" stroke:none;fill-rule:nonzero;fill:rgb(100%,100%,100%);fill-opacity:1;" d="M 428.03125 75.777344 C 428.03125 79.1875 422.910156 79.1875 422.910156 75.777344 C 422.910156 72.363281 428.03125 72.363281 428.03125 75.777344 "/>
<path style=" stroke:none;fill-rule:nonzero;fill:rgb(100%,100%,100%);fill-opacity:1;" d="M 103.425781 240.640625 C 103.425781 244.054688 98.304688 244.054688 98.304688 240.640625 C 98.304688 237.226562 103.425781 237.226562 103.425781 240.640625 "/>
<path style=" stroke:none;fill-rule:nonzero;fill:rgb(100%,100%,100%);fill-opacity:1;" d="M 202.238281 414.207031 C 202.238281 417.621094 197.121094 417.621094 197.121094 414.207031 C 197.121094 410.792969 202.238281 410.792969 202.238281 414.207031 "/>
<path style=" stroke:none;fill-rule:nonzero;fill:rgb(100%,100%,100%);fill-opacity:1;" d="M 435.710938 224.257812 C 435.710938 227.667969 430.59375 227.667969 430.59375 224.257812 C 430.59375 220.84375 435.710938 220.84375 435.710938 224.257812 "/>
<path style=" stroke:none;fill-rule:nonzero;fill:rgb(100%,100%,100%);fill-opacity:1;" d="M 386.558594 178.175781 C 386.558594 181.589844 381.441406 181.589844 381.441406 178.175781 C 381.441406 174.761719 386.558594 174.761719 386.558594 178.175781 "/>
<path style=" stroke:none;fill-rule:nonzero;fill:rgb(100%,100%,100%);fill-opacity:1;" d="M 434.175781 138.753906 C 434.175781 142.164062 429.054688 142.164062 429.054688 138.753906 C 429.054688 135.339844 434.175781 135.339844 434.175781 138.753906 "/>
<path style=" stroke:none;fill-rule:nonzero;fill:rgb(100%,100%,100%);fill-opacity:1;" d="M 300.542969 512 C 300.542969 515.414062 295.425781 515.414062 295.425781 512 C 295.425781 508.585938 300.542969 508.585938 300.542969 512 "/>
<path style=" stroke:none;fill-rule:nonzero;fill:rgb(100%,100%,100%);fill-opacity:1;" d="M 169.472656 278.015625 C 169.472656 281.429688 164.351562 281.429688 164.351562 278.015625 C 164.351562 274.601562 169.472656 274.601562 169.472656 278.015625 "/>
<path style=" stroke:none;fill-rule:nonzero;fill:rgb(100%,100%,100%);fill-opacity:1;" d="M 291.328125 261.632812 C 291.328125 265.046875 286.207031 265.046875 286.207031 261.632812 C 286.207031 258.21875 291.328125 258.21875 291.328125 261.632812 "/>
<path style=" stroke:none;fill-rule:nonzero;fill:rgb(100%,100%,100%);fill-opacity:1;" d="M 369.152344 53.246094 C 369.152344 56.660156 364.03125 56.660156 364.03125 53.246094 C 364.03125 49.835938 369.152344 49.835938 369.152344 53.246094 "/>
<path style=" stroke:none;fill-rule:nonzero;fill:rgb(100%,100%,100%);fill-opacity:1;" d="M 500.222656 295.425781 C 500.222656 298.835938 495.105469 298.835938 495.105469 295.425781 C 495.105469 292.011719 500.222656 292.011719 500.222656 295.425781 "/>
<path style=" stroke:none;fill-rule:nonzero;fill:rgb(100%,100%,100%);fill-opacity:1;" d="M 451.070312 24.574219 C 451.070312 27.988281 445.953125 27.988281 445.953125 24.574219 C 445.953125 21.164062 451.070312 21.164062 451.070312 24.574219 "/>
<path style=" stroke:none;fill-rule:nonzero;fill:rgb(100%,100%,100%);fill-opacity:1;" d="M 370.175781 163.328125 C 370.175781 166.742188 365.054688 166.742188 365.054688 163.328125 C 365.054688 159.914062 370.175781 159.914062 370.175781 163.328125 "/>
<path style=" stroke:none;fill-rule:nonzero;fill:rgb(100%,100%,100%);fill-opacity:1;" d="M 503.808594 24.574219 C 503.808594 27.988281 498.6875 27.988281 498.6875 24.574219 C 498.6875 21.164062 503.808594 21.164062 503.808594 24.574219 "/>
<path style=" stroke:none;fill-rule:nonzero;fill:rgb(100%,100%,100%);fill-opacity:1;" d="M 344.0625 132.097656 C 344.0625 135.507812 338.945312 135.507812 338.945312 132.097656 C 338.945312 128.683594 344.0625 128.683594 344.0625 132.097656 "/>
<path style=" stroke:none;fill-rule:nonzero;fill:rgb(100%,100%,100%);fill-opacity:1;" d="M 297.472656 136.703125 C 297.472656 140.117188 292.351562 140.117188 292.351562 136.703125 C 292.351562 133.289062 297.472656 133.289062 297.472656 136.703125 "/>
<path style=" stroke:none;fill-rule:nonzero;fill:rgb(100%,100%,100%);fill-opacity:1;" d="M 223.742188 501.761719 C 223.742188 505.171875 218.625 505.171875 218.625 501.761719 C 218.625 498.347656 223.742188 498.347656 223.742188 501.761719 "/>
<path style=" stroke:none;fill-rule:nonzero;fill:rgb(100%,100%,100%);fill-opacity:1;" d="M 467.96875 123.390625 C 467.96875 126.804688 462.847656 126.804688 462.847656 123.390625 C 462.847656 119.980469 467.96875 119.980469 467.96875 123.390625 "/>
<path style=" stroke:none;fill-rule:nonzero;fill:rgb(100%,100%,100%);fill-opacity:1;" d="M 379.390625 78.335938 C 379.390625 81.75 374.273438 81.75 374.273438 78.335938 C 374.273438 74.921875 379.390625 74.921875 379.390625 78.335938 "/>
<path style=" stroke:none;fill-rule:nonzero;fill:rgb(100%,100%,100%);fill-opacity:1;" d="M 295.9375 408.0625 C 295.9375 411.476562 290.816406 411.476562 290.816406 408.0625 C 290.816406 404.652344 295.9375 404.652344 295.9375 408.0625 "/>
<path style=" stroke:none;fill-rule:nonzero;fill:rgb(100%,100%,100%);fill-opacity:1;" d="M 135.679688 468.992188 C 135.679688 472.40625 130.558594 472.40625 130.558594 468.992188 C 130.558594 465.578125 135.679688 465.578125 135.679688 468.992188 "/>
<path style=" stroke:none;fill-rule:nonzero;fill:rgb(100%,100%,100%);fill-opacity:1;" d="M 315.902344 299.519531 C 315.902344 302.933594 310.785156 302.933594 310.785156 299.519531 C 310.785156 296.105469 315.902344 296.105469 315.902344 299.519531 "/>
<path style=" stroke:none;fill-rule:nonzero;fill:rgb(100%,100%,100%);fill-opacity:1;" d="M 174.59375 378.367188 C 174.59375 381.78125 169.472656 381.78125 169.472656 378.367188 C 169.472656 374.953125 174.59375 374.953125 174.59375 378.367188 "/>
<path style=" stroke:none;fill-rule:nonzero;fill:rgb(100%,100%,100%);fill-opacity:1;" d="M 119.296875 259.585938 C 119.296875 262.996094 114.175781 262.996094 114.175781 259.585938 C 114.175781 256.171875 119.296875 256.171875 119.296875 259.585938 "/>
<path style=" stroke:none;fill-rule:nonzero;fill:rgb(100%,100%,100%);fill-opacity:1;" d="M 73.726562 458.753906 C 73.726562 462.164062 68.609375 462.164062 68.609375 458.753906 C 68.609375 455.339844 73.726562 455.339844 73.726562 458.753906 "/>
<path style=" stroke:none;fill-rule:nonzero;fill:rgb(100%,100%,100%);fill-opacity:1;" d="M 182.785156 351.230469 C 182.785156 354.644531 177.664062 354.644531 177.664062 351.230469 C 177.664062 347.820312 182.785156 347.820312 182.785156 351.230469 "/>
<path style=" stroke:none;fill-rule:nonzero;fill:rgb(100%,100%,100%);fill-opacity:1;" d="M 74.238281 24.0625 C 74.238281 27.476562 69.121094 27.476562 69.121094 24.0625 C 69.121094 20.652344 74.238281 20.652344 74.238281 24.0625 "/>
<path style=" stroke:none;fill-rule:nonzero;fill:rgb(100%,100%,100%);fill-opacity:1;" d="M 212.480469 374.273438 C 212.480469 377.683594 207.359375 377.683594 207.359375 374.273438 C 207.359375 370.859375 212.480469 370.859375 212.480469 374.273438 "/>
<path style=" stroke:none;fill-rule:nonzero;fill:rgb(100%,100%,100%);fill-opacity:1;" d="M 250.878906 89.089844 C 250.878906 92.5 245.761719 92.5 245.761719 89.089844 C 245.761719 85.675781 250.878906 85.675781 250.878906 89.089844 "/>
<path style=" stroke:none;fill-rule:nonzero;fill:rgb(100%,100%,100%);fill-opacity:1;" d="M 151.039062 145.921875 C 151.039062 149.332031 145.921875 149.332031 145.921875 145.921875 C 145.921875 142.507812 151.039062 142.507812 151.039062 145.921875 "/>
<path style=" stroke:none;fill-rule:nonzero;fill:rgb(100%,100%,100%);fill-opacity:1;" d="M 58.878906 25.089844 C 58.878906 28.5 53.761719 28.5 53.761719 25.089844 C 53.761719 21.675781 58.878906 21.675781 58.878906 25.089844 "/>
<path style=" stroke:none;fill-rule:nonzero;fill:rgb(100%,100%,100%);fill-opacity:1;" d="M 135.167969 105.984375 C 135.167969 109.398438 130.046875 109.398438 130.046875 105.984375 C 130.046875 102.570312 135.167969 102.570312 135.167969 105.984375 "/>
<path style=" stroke:none;fill-rule:nonzero;fill:rgb(100%,100%,100%);fill-opacity:1;" d="M 257.023438 427.519531 C 257.023438 430.933594 251.902344 430.933594 251.902344 427.519531 C 251.902344 424.105469 257.023438 424.105469 257.023438 427.519531 "/>
<path style=" stroke:none;fill-rule:nonzero;fill:rgb(100%,100%,100%);fill-opacity:1;" d="M 312.832031 430.078125 C 312.832031 433.492188 307.710938 433.492188 307.710938 430.078125 C 307.710938 426.667969 312.832031 426.667969 312.832031 430.078125 "/>
<path style=" stroke:none;fill-rule:nonzero;fill:rgb(100%,100%,100%);fill-opacity:1;" d="M 97.792969 464.382812 C 97.792969 467.796875 92.671875 467.796875 92.671875 464.382812 C 92.671875 460.96875 97.792969 460.96875 97.792969 464.382812 "/>
<path style=" stroke:none;fill-rule:nonzero;fill:rgb(100%,100%,100%);fill-opacity:1;" d="M 275.96875 505.34375 C 275.96875 508.757812 270.847656 508.757812 270.847656 505.34375 C 270.847656 501.929688 275.96875 501.929688 275.96875 505.34375 "/>
<path style=" stroke:none;fill-rule:nonzero;fill:rgb(100%,100%,100%);fill-opacity:1;" d="M 193.023438 187.390625 C 193.023438 190.804688 187.902344 190.804688 187.902344 187.390625 C 187.902344 183.980469 193.023438 183.980469 193.023438 187.390625 "/>
<path style=" stroke:none;fill-rule:nonzero;fill:rgb(100%,100%,100%);fill-opacity:1;" d="M 23.039062 104.449219 C 23.039062 107.863281 17.921875 107.863281 17.921875 104.449219 C 17.921875 101.035156 23.039062 101.035156 23.039062 104.449219 "/>
<path style=" stroke:none;fill-rule:nonzero;fill:rgb(100%,100%,100%);fill-opacity:1;" d="M 56.832031 334.847656 C 56.832031 338.261719 51.710938 338.261719 51.710938 334.847656 C 51.710938 331.433594 56.832031 331.433594 56.832031 334.847656 "/>
<path style=" stroke:none;fill-rule:nonzero;fill:rgb(100%,100%,100%);fill-opacity:1;" d="M 179.199219 405.503906 C 179.199219 408.917969 174.078125 408.917969 174.078125 405.503906 C 174.078125 402.089844 179.199219 402.089844 179.199219 405.503906 "/>
<path style=" stroke:none;fill-rule:nonzero;fill:rgb(100%,100%,100%);fill-opacity:1;" d="M 385.023438 114.6875 C 385.023438 118.101562 379.902344 118.101562 379.902344 114.6875 C 379.902344 111.273438 385.023438 111.273438 385.023438 114.6875 "/>
<path style=" stroke:none;fill-rule:nonzero;fill:rgb(100%,100%,100%);fill-opacity:1;" d="M 495.105469 509.953125 C 495.105469 513.367188 489.984375 513.367188 489.984375 509.953125 C 489.984375 506.539062 495.105469 506.539062 495.105469 509.953125 "/>
<path style=" stroke:none;fill-rule:nonzero;fill:rgb(100%,100%,100%);fill-opacity:1;" d="M 421.375 63.488281 C 421.375 66.902344 416.257812 66.902344 416.257812 63.488281 C 416.257812 60.074219 421.375 60.074219 421.375 63.488281 "/>
<path style=" stroke:none;fill-rule:nonzero;fill:rgb(100%,100%,100%);fill-opacity:1;" d="M 494.078125 82.945312 C 494.078125 86.355469 488.960938 86.355469 488.960938 82.945312 C 488.960938 79.53125 494.078125 79.53125 494.078125 82.945312 "/>
<path style=" stroke:none;fill-rule:nonzero;fill:rgb(100%,100%,100%);fill-opacity:1;" d="M 231.9375 12.800781 C 231.9375 16.214844 226.816406 16.214844 226.816406 12.800781 C 226.816406 9.386719 231.9375 9.386719 231.9375 12.800781 "/>
<path style=" stroke:none;fill-rule:nonzero;fill:rgb(100%,100%,100%);fill-opacity:1;" d="M 241.152344 487.9375 C 241.152344 491.347656 236.03125 491.347656 236.03125 487.9375 C 236.03125 484.523438 241.152344 484.523438 241.152344 487.9375 "/>
<path style=" stroke:none;fill-rule:nonzero;fill:rgb(100%,100%,100%);fill-opacity:1;" d="M 327.167969 311.296875 C 327.167969 314.710938 322.046875 314.710938 322.046875 311.296875 C 322.046875 307.882812 327.167969 307.882812 327.167969 311.296875 "/>
<path style=" stroke:none;fill-rule:nonzero;fill:rgb(100%,100%,100%);fill-opacity:1;" d="M 188.929688 235.519531 C 188.929688 238.933594 183.808594 238.933594 183.808594 235.519531 C 183.808594 232.105469 188.929688 232.105469 188.929688 235.519531 "/>
<path style=" stroke:none;fill-rule:nonzero;fill:rgb(100%,100%,100%);fill-opacity:1;" d="M 270.335938 179.199219 C 270.335938 182.613281 265.214844 182.613281 265.214844 179.199219 C 265.214844 175.785156 270.335938 175.785156 270.335938 179.199219 "/>
<path style=" stroke:none;fill-rule:nonzero;fill:rgb(100%,100%,100%);fill-opacity:1;" d="M 173.054688 137.214844 C 173.054688 140.628906 167.9375 140.628906 167.9375 137.214844 C 167.9375 133.800781 173.054688 133.800781 173.054688 137.214844 "/>
<path style=" stroke:none;fill-rule:nonzero;fill:rgb(100%,100%,100%);fill-opacity:1;" d="M 198.65625 110.078125 C 198.65625 113.492188 193.535156 113.492188 193.535156 110.078125 C 193.535156 106.667969 198.65625 106.667969 198.65625 110.078125 "/>
<path style=" stroke:none;fill-rule:nonzero;fill:rgb(100%,100%,100%);fill-opacity:1;" d="M 143.871094 56.832031 C 143.871094 60.246094 138.753906 60.246094 138.753906 56.832031 C 138.753906 53.417969 143.871094 53.417969 143.871094 56.832031 "/>
<path style=" stroke:none;fill-rule:nonzero;fill:rgb(100%,100%,100%);fill-opacity:1;" d="M 450.558594 413.695312 C 450.558594 417.109375 445.441406 417.109375 445.441406 413.695312 C 445.441406 410.28125 450.558594 410.28125 450.558594 413.695312 "/>
<path style=" stroke:none;fill-rule:nonzero;fill:rgb(100%,100%,100%);fill-opacity:1;" d="M 181.761719 366.59375 C 181.761719 370.003906 176.640625 370.003906 176.640625 366.59375 C 176.640625 363.179688 181.761719 363.179688 181.761719 366.59375 "/>
<path style=" stroke:none;fill-rule:nonzero;fill:rgb(100%,100%,100%);fill-opacity:1;" d="M 57.855469 415.230469 C 57.855469 418.644531 52.734375 418.644531 52.734375 415.230469 C 52.734375 411.820312 57.855469 411.820312 57.855469 415.230469 "/>
<path style=" stroke:none;fill-rule:nonzero;fill:rgb(100%,100%,100%);fill-opacity:1;" d="M 508.929688 465.921875 C 508.929688 469.332031 503.808594 469.332031 503.808594 465.921875 C 503.808594 462.507812 508.929688 462.507812 508.929688 465.921875 "/>
<path style=" stroke:none;fill-rule:nonzero;fill:rgb(100%,100%,100%);fill-opacity:1;" d="M 108.03125 436.222656 C 108.03125 439.636719 102.910156 439.636719 102.910156 436.222656 C 102.910156 432.8125 108.03125 432.8125 108.03125 436.222656 "/>
<path style=" stroke:none;fill-rule:nonzero;fill:rgb(100%,100%,100%);fill-opacity:1;" d="M 364.542969 193.535156 C 364.542969 196.949219 359.425781 196.949219 359.425781 193.535156 C 359.425781 190.121094 364.542969 190.121094 364.542969 193.535156 "/>
<path style=" stroke:none;fill-rule:nonzero;fill:rgb(100%,100%,100%);fill-opacity:1;" d="M 307.710938 183.296875 C 307.710938 186.710938 302.59375 186.710938 302.59375 183.296875 C 302.59375 179.882812 307.710938 179.882812 307.710938 183.296875 "/>
<path style=" stroke:none;fill-rule:nonzero;fill:rgb(100%,100%,100%);fill-opacity:1;" d="M 483.839844 266.753906 C 483.839844 270.164062 478.71875 270.164062 478.71875 266.753906 C 478.71875 263.339844 483.839844 263.339844 483.839844 266.753906 "/>
<path style=" stroke:none;fill-rule:nonzero;fill:rgb(100%,100%,100%);fill-opacity:1;" d="M 433.664062 0.511719 C 433.664062 3.925781 428.542969 3.925781 428.542969 0.511719 C 428.542969 -2.902344 433.664062 -2.902344 433.664062 0.511719 "/>
<path style=" stroke:none;fill-rule:nonzero;fill:rgb(100%,100%,100%);fill-opacity:1;" d="M 509.441406 238.59375 C 509.441406 242.003906 504.320312 242.003906 504.320312 238.59375 C 504.320312 235.179688 509.441406 235.179688 509.441406 238.59375 "/>
<path style=" stroke:none;fill-rule:nonzero;fill:rgb(100%,100%,100%);fill-opacity:1;" d="M 182.785156 202.238281 C 182.785156 205.652344 177.664062 205.652344 177.664062 202.238281 C 177.664062 198.828125 182.785156 198.828125 182.785156 202.238281 "/>
<path style=" stroke:none;fill-rule:nonzero;fill:rgb(100%,100%,100%);fill-opacity:1;" d="M 314.878906 310.785156 C 314.878906 314.199219 309.761719 314.199219 309.761719 310.785156 C 309.761719 307.371094 314.878906 307.371094 314.878906 310.785156 "/>
<path style=" stroke:none;fill-rule:nonzero;fill:rgb(100%,100%,100%);fill-opacity:1;" d="M 214.527344 497.664062 C 214.527344 501.078125 209.40625 501.078125 209.40625 497.664062 C 209.40625 494.25 214.527344 494.25 214.527344 497.664062 "/>
<path style=" stroke:none;fill-rule:nonzero;fill:rgb(100%,100%,100%);fill-opacity:1;" d="M 297.472656 507.902344 C 297.472656 511.316406 292.351562 511.316406 292.351562 507.902344 C 292.351562 504.492188 297.472656 504.492188 297.472656 507.902344 "/>
<path style=" stroke:none;fill-rule:nonzero;fill:rgb(100%,100%,100%);fill-opacity:1;" d="M 342.527344 24.0625 C 342.527344 27.476562 337.40625 27.476562 337.40625 24.0625 C 337.40625 20.652344 342.527344 20.652344 342.527344 24.0625 "/>
<path style=" stroke:none;fill-rule:nonzero;fill:rgb(100%,100%,100%);fill-opacity:1;" d="M 460.289062 299.519531 C 460.289062 302.933594 455.167969 302.933594 455.167969 299.519531 C 455.167969 296.105469 460.289062 296.105469 460.289062 299.519531 "/>
<path style=" stroke:none;fill-rule:nonzero;fill:rgb(100%,100%,100%);fill-opacity:1;" d="M 58.367188 20.480469 C 58.367188 23.894531 53.246094 23.894531 53.246094 20.480469 C 53.246094 17.066406 58.367188 17.066406 58.367188 20.480469 "/>
<path style=" stroke:none;fill-rule:nonzero;fill:rgb(100%,100%,100%);fill-opacity:1;" d="M 326.144531 92.671875 C 326.144531 96.085938 321.023438 96.085938 321.023438 92.671875 C 321.023438 89.257812 326.144531 89.257812 326.144531 92.671875 "/>
<path style=" stroke:none;fill-rule:nonzero;fill:rgb(100%,100%,100%);fill-opacity:1;" d="M 375.296875 359.425781 C 375.296875 362.835938 370.175781 362.835938 370.175781 359.425781 C 370.175781 356.011719 375.296875 356.011719 375.296875 359.425781 "/>
<path style=" stroke:none;fill-rule:nonzero;fill:rgb(100%,100%,100%);fill-opacity:1;" d="M 68.097656 9.214844 C 68.097656 12.628906 62.976562 12.628906 62.976562 9.214844 C 62.976562 5.800781 68.097656 5.800781 68.097656 9.214844 "/>
<path style=" stroke:none;fill-rule:nonzero;fill:rgb(100%,100%,100%);fill-opacity:1;" d="M 224.257812 110.078125 C 224.257812 113.492188 219.136719 113.492188 219.136719 110.078125 C 219.136719 106.667969 224.257812 106.667969 224.257812 110.078125 "/>
<path style=" stroke:none;fill-rule:nonzero;fill:rgb(100%,100%,100%);fill-opacity:1;" d="M 366.59375 44.542969 C 366.59375 47.957031 361.472656 47.957031 361.472656 44.542969 C 361.472656 41.128906 366.59375 41.128906 366.59375 44.542969 "/>
<path style=" stroke:none;fill-rule:nonzero;fill:rgb(100%,100%,100%);fill-opacity:1;" d="M 331.777344 505.855469 C 331.777344 509.269531 326.65625 509.269531 326.65625 505.855469 C 326.65625 502.441406 331.777344 502.441406 331.777344 505.855469 "/>
<path style=" stroke:none;fill-rule:nonzero;fill:rgb(100%,100%,100%);fill-opacity:1;" d="M 363.519531 80.894531 C 363.519531 84.308594 358.398438 84.308594 358.398438 80.894531 C 358.398438 77.484375 363.519531 77.484375 363.519531 80.894531 "/>
<path style=" stroke:none;fill-rule:nonzero;fill:rgb(100%,100%,100%);fill-opacity:1;" d="M 395.265625 185.855469 C 395.265625 189.269531 390.144531 189.269531 390.144531 185.855469 C 390.144531 182.441406 395.265625 182.441406 395.265625 185.855469 "/>
<path style=" stroke:none;fill-rule:nonzero;fill:rgb(100%,100%,100%);fill-opacity:1;" d="M 282.625 178.175781 C 282.625 181.589844 277.503906 181.589844 277.503906 178.175781 C 277.503906 174.761719 282.625 174.761719 282.625 178.175781 "/>
<path style=" stroke:none;fill-rule:nonzero;fill:rgb(100%,100%,100%);fill-opacity:1;" d="M 20.992188 430.59375 C 20.992188 434.003906 15.871094 434.003906 15.871094 430.59375 C 15.871094 427.179688 20.992188 427.179688 20.992188 430.59375 "/>
<path style=" stroke:none;fill-rule:nonzero;fill:rgb(100%,100%,100%);fill-opacity:1;" d="M 142.335938 330.753906 C 142.335938 334.164062 137.214844 334.164062 137.214844 330.753906 C 137.214844 327.339844 142.335938 327.339844 142.335938 330.753906 "/>
<path style=" stroke:none;fill-rule:nonzero;fill:rgb(100%,100%,100%);fill-opacity:1;" d="M 71.679688 114.6875 C 71.679688 118.101562 66.558594 118.101562 66.558594 114.6875 C 66.558594 111.273438 71.679688 111.273438 71.679688 114.6875 "/>
<path style=" stroke:none;fill-rule:nonzero;fill:rgb(100%,100%,100%);fill-opacity:1;" d="M 486.910156 90.113281 C 486.910156 93.523438 481.792969 93.523438 481.792969 90.113281 C 481.792969 86.699219 486.910156 86.699219 486.910156 90.113281 "/>
<path style=" stroke:none;fill-rule:nonzero;fill:rgb(100%,100%,100%);fill-opacity:1;" d="M 157.183594 262.144531 C 157.183594 265.558594 152.0625 265.558594 152.0625 262.144531 C 152.0625 258.730469 157.183594 258.730469 157.183594 262.144531 "/>
<path style=" stroke:none;fill-rule:nonzero;fill:rgb(100%,100%,100%);fill-opacity:1;" d="M 475.648438 398.847656 C 475.648438 402.261719 470.527344 402.261719 470.527344 398.847656 C 470.527344 395.433594 475.648438 395.433594 475.648438 398.847656 "/>
<path style=" stroke:none;fill-rule:nonzero;fill:rgb(100%,100%,100%);fill-opacity:1;" d="M 375.296875 151.550781 C 375.296875 154.964844 370.175781 154.964844 370.175781 151.550781 C 370.175781 148.136719 375.296875 148.136719 375.296875 151.550781 "/>
<path style=" stroke:none;fill-rule:nonzero;fill:rgb(100%,100%,100%);fill-opacity:1;" d="M 400.382812 423.425781 C 400.382812 426.835938 395.265625 426.835938 395.265625 423.425781 C 395.265625 420.011719 400.382812 420.011719 400.382812 423.425781 "/>
<path style=" stroke:none;fill-rule:nonzero;fill:rgb(100%,100%,100%);fill-opacity:1;" d="M 109.054688 105.472656 C 109.054688 108.886719 103.9375 108.886719 103.9375 105.472656 C 103.9375 102.058594 109.054688 102.058594 109.054688 105.472656 "/>
<path style=" stroke:none;fill-rule:nonzero;fill:rgb(100%,100%,100%);fill-opacity:1;" d="M 266.753906 81.40625 C 266.753906 84.820312 261.632812 84.820312 261.632812 81.40625 C 261.632812 77.996094 266.753906 77.996094 266.753906 81.40625 "/>
<path style=" stroke:none;fill-rule:nonzero;fill:rgb(100%,100%,100%);fill-opacity:1;" d="M 213.503906 383.488281 C 213.503906 386.902344 208.382812 386.902344 208.382812 383.488281 C 208.382812 380.074219 213.503906 380.074219 213.503906 383.488281 "/>
<path style=" stroke:none;fill-rule:nonzero;fill:rgb(100%,100%,100%);fill-opacity:1;" d="M 375.296875 384 C 375.296875 387.414062 370.175781 387.414062 370.175781 384 C 370.175781 380.585938 375.296875 380.585938 375.296875 384 "/>
<path style=" stroke:none;fill-rule:nonzero;fill:rgb(100%,100%,100%);fill-opacity:1;" d="M 156.671875 125.441406 C 156.671875 128.851562 151.550781 128.851562 151.550781 125.441406 C 151.550781 122.027344 156.671875 122.027344 156.671875 125.441406 "/>
<path style=" stroke:none;fill-rule:nonzero;fill:rgb(100%,100%,100%);fill-opacity:1;" d="M 381.953125 494.078125 C 381.953125 497.492188 376.832031 497.492188 376.832031 494.078125 C 376.832031 490.667969 381.953125 490.667969 381.953125 494.078125 "/>
<path style=" stroke:none;fill-rule:nonzero;fill:rgb(100%,100%,100%);fill-opacity:1;" d="M 47.105469 286.207031 C 47.105469 289.621094 41.984375 289.621094 41.984375 286.207031 C 41.984375 282.792969 47.105469 282.792969 47.105469 286.207031 "/>
<path style=" stroke:none;fill-rule:nonzero;fill:rgb(100%,100%,100%);fill-opacity:1;" d="M 214.015625 414.71875 C 214.015625 418.132812 208.894531 418.132812 208.894531 414.71875 C 208.894531 411.308594 214.015625 411.308594 214.015625 414.71875 "/>
<path style=" stroke:none;fill-rule:nonzero;fill:rgb(100%,100%,100%);fill-opacity:1;" d="M 168.449219 232.960938 C 168.449219 236.375 163.328125 236.375 163.328125 232.960938 C 163.328125 229.546875 168.449219 229.546875 168.449219 232.960938 "/>
<path style=" stroke:none;fill-rule:nonzero;fill:rgb(100%,100%,100%);fill-opacity:1;" d="M 405.503906 55.808594 C 405.503906 59.222656 400.382812 59.222656 400.382812 55.808594 C 400.382812 52.394531 405.503906 52.394531 405.503906 55.808594 "/>
<path style=" stroke:none;fill-rule:nonzero;fill:rgb(100%,100%,100%);fill-opacity:1;" d="M 486.398438 243.710938 C 486.398438 247.125 481.28125 247.125 481.28125 243.710938 C 481.28125 240.296875 486.398438 240.296875 486.398438 243.710938 "/>
<path style=" stroke:none;fill-rule:nonzero;fill:rgb(100%,100%,100%);fill-opacity:1;" d="M 433.664062 113.152344 C 433.664062 116.566406 428.542969 116.566406 428.542969 113.152344 C 428.542969 109.738281 433.664062 109.738281 433.664062 113.152344 "/>
<path style=" stroke:none;fill-rule:nonzero;fill:rgb(100%,100%,100%);fill-opacity:1;" d="M 502.785156 473.601562 C 502.785156 477.011719 497.664062 477.011719 497.664062 473.601562 C 497.664062 470.1875 502.785156 470.1875 502.785156 473.601562 "/>
<path style=" stroke:none;fill-rule:nonzero;fill:rgb(100%,100%,100%);fill-opacity:1;" d="M 206.335938 111.617188 C 206.335938 115.03125 201.214844 115.03125 201.214844 111.617188 C 201.214844 108.203125 206.335938 108.203125 206.335938 111.617188 "/>
<path style=" stroke:none;fill-rule:nonzero;fill:rgb(100%,100%,100%);fill-opacity:1;" d="M 131.070312 508.414062 C 131.070312 511.828125 125.953125 511.828125 125.953125 508.414062 C 125.953125 505.003906 131.070312 505.003906 131.070312 508.414062 "/>
<path style=" stroke:none;fill-rule:nonzero;fill:rgb(100%,100%,100%);fill-opacity:1;" d="M 419.839844 82.945312 C 419.839844 86.355469 414.71875 86.355469 414.71875 82.945312 C 414.71875 79.53125 419.839844 79.53125 419.839844 82.945312 "/>
<path style=" stroke:none;fill-rule:nonzero;fill:rgb(100%,100%,100%);fill-opacity:1;" d="M 408.574219 229.375 C 408.574219 232.789062 403.457031 232.789062 403.457031 229.375 C 403.457031 225.960938 408.574219 225.960938 408.574219 229.375 "/>
<path style=" stroke:none;fill-rule:nonzero;fill:rgb(100%,100%,100%);fill-opacity:1;" d="M 468.992188 18.945312 C 468.992188 22.355469 463.871094 22.355469 463.871094 18.945312 C 463.871094 15.53125 468.992188 15.53125 468.992188 18.945312 "/>
</g>
</svg>
