<?xml version="1.0" encoding="UTF-8"?>
<svg xmlns="http://www.w3.org/2000/svg" xmlns:xlink="http://www.w3.org/1999/xlink" width="512pt" height="512pt" viewBox="0 0 512 512" version="1.1">
<g id="surface51">
<path style=" stroke:none;fill-rule:nonzero;fill:rgb(26.7%,26.7%,26.7%);fill-opacity:1;" d="M 41.589844 0 L 470.414062 0 L 470.414062 512 L 41.589844 512 Z M 41.589844 0 "/>
<path style=" stroke:none;fill-rule:nonzero;fill:rgb(19.2%,38.8%,66.7%);fill-opacity:1;" d="M 77.324219 42.667969 L 434.675781 42.667969 L 434.675781 469.332031 L 77.324219 469.332031 Z M 77.324219 42.667969 "/>
<path style=" stroke:none;fill-rule:nonzero;fill:rgb(100%,100%,100%);fill-opacity:1;" d="M 440.835938 486.277344 C 440.835938 490.53125 437.390625 493.980469 433.136719 493.980469 C 428.882812 493.980469 425.433594 490.53125 425.433594 486.277344 C 425.433594 482.023438 428.882812 478.574219 433.136719 478.574219 C 437.390625 478.574219 440.835938 482.023438 440.835938 486.277344 "/>
<path style=" stroke:none;fill-rule:nonzero;fill:rgb(100%,100%,100%);fill-opacity:1;" d="M 434.675781 18.023438 C 434.675781 22.277344 431.226562 25.722656 426.976562 25.722656 C 422.722656 25.722656 419.273438 22.277344 419.273438 18.023438 C 419.273438 13.769531 422.722656 10.320312 426.976562 10.320312 C 431.226562 10.320312 434.675781 13.769531 434.675781 18.023438 "/>
<path style=" stroke:none;fill-rule:nonzero;fill:rgb(100%,100%,100%);fill-opacity:1;" d="M 52.679688 31.882812 C 52.679688 36.136719 49.230469 39.585938 44.976562 39.585938 C 40.722656 39.585938 37.277344 36.136719 37.277344 31.882812 C 37.277344 27.628906 40.722656 24.183594 44.976562 24.183594 C 49.230469 24.183594 52.679688 27.628906 52.679688 31.882812 "/>
<path style=" stroke:none;fill-rule:nonzero;fill:rgb(100%,100%,100%);fill-opacity:1;" d="M 505.53125 436.988281 C 505.53125 441.242188 502.082031 444.6875 497.828125 444.6875 C 493.574219 444.6875 490.128906 441.242188 490.128906 436.988281 C 490.128906 432.734375 493.574219 429.285156 497.828125 429.285156 C 502.082031 429.285156 505.53125 432.734375 505.53125 436.988281 "/>
<path style=" stroke:none;fill-rule:nonzero;fill:rgb(100%,100%,100%);fill-opacity:1;" d="M 480.886719 50.367188 C 480.886719 54.621094 477.4375 58.070312 473.183594 58.070312 C 468.929688 58.070312 465.484375 54.621094 465.484375 50.367188 C 465.484375 46.113281 468.929688 42.667969 473.183594 42.667969 C 477.4375 42.667969 480.886719 46.113281 480.886719 50.367188 "/>
<path style=" stroke:none;fill-rule:nonzero;fill:rgb(100%,100%,100%);fill-opacity:1;" d="M 26.492188 110.441406 C 26.492188 114.695312 23.046875 118.140625 18.792969 118.140625 C 14.539062 118.140625 11.089844 114.695312 11.089844 110.441406 C 11.089844 106.1875 14.539062 102.738281 18.792969 102.738281 C 23.046875 102.738281 26.492188 106.1875 26.492188 110.441406 "/>
<path style=" stroke:none;fill-rule:nonzero;fill:rgb(100%,100%,100%);fill-opacity:1;" d="M 436.214844 33.425781 C 436.214844 37.679688 432.769531 41.125 428.515625 41.125 C 424.261719 41.125 420.8125 37.679688 420.8125 33.425781 C 420.8125 29.171875 424.261719 25.722656 428.515625 25.722656 C 432.769531 25.722656 436.214844 29.171875 436.214844 33.425781 "/>
<path style=" stroke:none;fill-rule:nonzero;fill:rgb(100%,100%,100%);fill-opacity:1;" d="M 21.871094 266.011719 C 21.871094 270.265625 18.425781 273.714844 14.171875 273.714844 C 9.917969 273.714844 6.46875 270.265625 6.46875 266.011719 C 6.46875 261.757812 9.917969 258.308594 14.171875 258.308594 C 18.425781 258.308594 21.871094 261.757812 21.871094 266.011719 "/>
<path style=" stroke:none;fill-rule:nonzero;fill:rgb(100%,100%,100%);fill-opacity:1;" d="M 511.691406 161.269531 C 511.691406 165.523438 508.242188 168.972656 503.988281 168.972656 C 499.738281 168.972656 496.289062 165.523438 496.289062 161.269531 C 496.289062 157.015625 499.738281 153.570312 503.988281 153.570312 C 508.242188 153.570312 511.691406 157.015625 511.691406 161.269531 "/>
<path style=" stroke:none;fill-rule:nonzero;fill:rgb(100%,100%,100%);fill-opacity:1;" d="M 519.394531 162.8125 C 519.394531 167.066406 515.945312 170.511719 511.691406 170.511719 C 507.4375 170.511719 503.992188 167.066406 503.992188 162.8125 C 503.992188 158.558594 507.4375 155.109375 511.691406 155.109375 C 515.945312 155.109375 519.394531 158.558594 519.394531 162.8125 "/>
<path style=" stroke:none;fill-rule:nonzero;fill:rgb(100%,100%,100%);fill-opacity:1;" d="M 494.75 247.527344 C 494.75 251.78125 491.300781 255.230469 487.046875 255.230469 C 482.792969 255.230469 479.34375 251.78125 479.34375 247.527344 C 479.34375 243.273438 482.792969 239.828125 487.046875 239.828125 C 491.300781 239.828125 494.75 243.273438 494.75 247.527344 "/>
<path style=" stroke:none;fill-rule:nonzero;fill:rgb(100%,100%,100%);fill-opacity:1;" d="M 499.371094 436.988281 C 499.371094 441.242188 495.921875 444.6875 491.667969 444.6875 C 487.414062 444.6875 483.964844 441.242188 483.964844 436.988281 C 483.964844 432.734375 487.414062 429.285156 491.667969 429.285156 C 495.921875 429.285156 499.371094 432.734375 499.371094 436.988281 "/>
<path style=" stroke:none;fill-rule:nonzero;fill:rgb(100%,100%,100%);fill-opacity:1;" d="M 209.789062 475.496094 C 209.789062 479.75 206.34375 483.195312 202.089844 483.195312 C 197.835938 483.195312 194.386719 479.75 194.386719 475.496094 C 194.386719 471.242188 197.835938 467.792969 202.089844 467.792969 C 206.34375 467.792969 209.789062 471.242188 209.789062 475.496094 "/>
<path style=" stroke:none;fill-rule:nonzero;fill:rgb(100%,100%,100%);fill-opacity:1;" d="M 496.289062 224.425781 C 496.289062 228.675781 492.839844 232.125 488.585938 232.125 C 484.332031 232.125 480.886719 228.675781 480.886719 224.425781 C 480.886719 220.171875 484.332031 216.722656 488.585938 216.722656 C 492.839844 216.722656 496.289062 220.171875 496.289062 224.425781 "/>
<path style=" stroke:none;fill-rule:nonzero;fill:rgb(100%,100%,100%);fill-opacity:1;" d="M 51.136719 432.367188 C 51.136719 436.621094 47.691406 440.066406 43.4375 440.066406 C 39.183594 440.066406 35.734375 436.621094 35.734375 432.367188 C 35.734375 428.113281 39.183594 424.664062 43.4375 424.664062 C 47.691406 424.664062 51.136719 428.113281 51.136719 432.367188 "/>
<path style=" stroke:none;fill-rule:nonzero;fill:rgb(100%,100%,100%);fill-opacity:1;" d="M 451.621094 38.046875 C 451.621094 42.300781 448.171875 45.746094 443.917969 45.746094 C 439.664062 45.746094 436.214844 42.300781 436.214844 38.046875 C 436.214844 33.792969 439.664062 30.34375 443.917969 30.34375 C 448.171875 30.34375 451.621094 33.792969 451.621094 38.046875 "/>
<path style=" stroke:none;fill-rule:nonzero;fill:rgb(100%,100%,100%);fill-opacity:1;" d="M 178.984375 28.804688 C 178.984375 33.058594 175.535156 36.503906 171.28125 36.503906 C 167.03125 36.503906 163.582031 33.058594 163.582031 28.804688 C 163.582031 24.550781 167.03125 21.101562 171.28125 21.101562 C 175.535156 21.101562 178.984375 24.550781 178.984375 28.804688 "/>
<path style=" stroke:none;fill-rule:nonzero;fill:rgb(100%,100%,100%);fill-opacity:1;" d="M 460.863281 262.929688 C 460.863281 267.183594 457.414062 270.632812 453.160156 270.632812 C 448.90625 270.632812 445.457031 267.183594 445.457031 262.929688 C 445.457031 258.675781 448.90625 255.230469 453.160156 255.230469 C 457.414062 255.230469 460.863281 258.675781 460.863281 262.929688 "/>
<path style=" stroke:none;fill-rule:nonzero;fill:rgb(100%,100%,100%);fill-opacity:1;" d="M 491.667969 395.398438 C 491.667969 399.652344 488.21875 403.097656 483.964844 403.097656 C 479.710938 403.097656 476.265625 399.652344 476.265625 395.398438 C 476.265625 391.144531 479.710938 387.695312 483.964844 387.695312 C 488.21875 387.695312 491.667969 391.144531 491.667969 395.398438 "/>
<path style=" stroke:none;fill-rule:nonzero;fill:rgb(100%,100%,100%);fill-opacity:1;" d="M 51.136719 152.027344 C 51.136719 156.28125 47.691406 159.730469 43.4375 159.730469 C 39.183594 159.730469 35.734375 156.28125 35.734375 152.027344 C 35.734375 147.777344 39.183594 144.328125 43.4375 144.328125 C 47.691406 144.328125 51.136719 147.777344 51.136719 152.027344 "/>
<path style=" stroke:none;fill-rule:nonzero;fill:rgb(100%,100%,100%);fill-opacity:1;" d="M 500.910156 477.035156 C 500.910156 481.289062 497.460938 484.738281 493.207031 484.738281 C 488.953125 484.738281 485.507812 481.289062 485.507812 477.035156 C 485.507812 472.78125 488.953125 469.332031 493.207031 469.332031 C 497.460938 469.332031 500.910156 472.78125 500.910156 477.035156 "/>
<path style=" stroke:none;fill-rule:nonzero;fill:rgb(100%,100%,100%);fill-opacity:1;" d="M 517.855469 352.269531 C 517.855469 356.523438 514.40625 359.972656 510.152344 359.972656 C 505.898438 359.972656 502.449219 356.523438 502.449219 352.269531 C 502.449219 348.015625 505.898438 344.570312 510.152344 344.570312 C 514.40625 344.570312 517.855469 348.015625 517.855469 352.269531 "/>
<path style=" stroke:none;fill-rule:nonzero;fill:rgb(100%,100%,100%);fill-opacity:1;" d="M 413.113281 11.859375 C 413.113281 16.113281 409.664062 19.5625 405.410156 19.5625 C 401.15625 19.5625 397.707031 16.113281 397.707031 11.859375 C 397.707031 7.605469 401.15625 4.160156 405.410156 4.160156 C 409.664062 4.160156 413.113281 7.605469 413.113281 11.859375 "/>
<path style=" stroke:none;fill-rule:nonzero;fill:rgb(100%,100%,100%);fill-opacity:1;" d="M 32.65625 510.921875 C 32.65625 515.175781 29.207031 518.625 24.953125 518.625 C 20.699219 518.625 17.25 515.175781 17.25 510.921875 C 17.25 506.667969 20.699219 503.21875 24.953125 503.21875 C 29.207031 503.21875 32.65625 506.667969 32.65625 510.921875 "/>
<path style=" stroke:none;fill-rule:nonzero;fill:rgb(100%,100%,100%);fill-opacity:1;" d="M 263.703125 473.953125 C 263.703125 478.207031 260.253906 481.65625 256 481.65625 C 251.746094 481.65625 248.296875 478.207031 248.296875 473.953125 C 248.296875 469.699219 251.746094 466.253906 256 466.253906 C 260.253906 466.253906 263.703125 469.699219 263.703125 473.953125 "/>
<path style=" stroke:none;fill-rule:nonzero;fill:rgb(100%,100%,100%);fill-opacity:1;" d="M 497.828125 227.503906 C 497.828125 231.757812 494.382812 235.207031 490.128906 235.207031 C 485.875 235.207031 482.425781 231.757812 482.425781 227.503906 C 482.425781 223.25 485.875 219.800781 490.128906 219.800781 C 494.382812 219.800781 497.828125 223.25 497.828125 227.503906 "/>
<path style=" stroke:none;fill-rule:nonzero;fill:rgb(100%,100%,100%);fill-opacity:1;" d="M 29.574219 108.898438 C 29.574219 113.152344 26.125 116.601562 21.871094 116.601562 C 17.617188 116.601562 14.171875 113.152344 14.171875 108.898438 C 14.171875 104.648438 17.617188 101.199219 21.871094 101.199219 C 26.125 101.199219 29.574219 104.648438 29.574219 108.898438 "/>
<path style=" stroke:none;fill-rule:nonzero;fill:rgb(100%,100%,100%);fill-opacity:1;" d="M 468.5625 162.8125 C 468.5625 167.066406 465.117188 170.511719 460.863281 170.511719 C 456.609375 170.511719 453.160156 167.066406 453.160156 162.8125 C 453.160156 158.558594 456.609375 155.109375 460.863281 155.109375 C 465.117188 155.109375 468.5625 158.558594 468.5625 162.8125 "/>
<path style=" stroke:none;fill-rule:nonzero;fill:rgb(100%,100%,100%);fill-opacity:1;" d="M 21.871094 429.285156 C 21.871094 433.539062 18.425781 436.988281 14.171875 436.988281 C 9.917969 436.988281 6.46875 433.539062 6.46875 429.285156 C 6.46875 425.03125 9.917969 421.582031 14.171875 421.582031 C 18.425781 421.582031 21.871094 425.03125 21.871094 429.285156 "/>
<path style=" stroke:none;fill-rule:nonzero;fill:rgb(100%,100%,100%);fill-opacity:1;" d="M 494.75 412.34375 C 494.75 416.59375 491.300781 420.042969 487.046875 420.042969 C 482.792969 420.042969 479.34375 416.59375 479.34375 412.34375 C 479.34375 408.089844 482.792969 404.640625 487.046875 404.640625 C 491.300781 404.640625 494.75 408.089844 494.75 412.34375 "/>
<path style=" stroke:none;fill-rule:nonzero;fill:rgb(100%,100%,100%);fill-opacity:1;" d="M 493.207031 212.101562 C 493.207031 216.355469 489.761719 219.800781 485.507812 219.800781 C 481.253906 219.800781 477.804688 216.355469 477.804688 212.101562 C 477.804688 207.847656 481.253906 204.398438 485.507812 204.398438 C 489.761719 204.398438 493.207031 207.847656 493.207031 212.101562 "/>
<path style=" stroke:none;fill-rule:nonzero;fill:rgb(100%,100%,100%);fill-opacity:1;" d="M 118.914062 486.277344 C 118.914062 490.53125 115.464844 493.980469 111.210938 493.980469 C 106.957031 493.980469 103.507812 490.53125 103.507812 486.277344 C 103.507812 482.023438 106.957031 478.574219 111.210938 478.574219 C 115.464844 478.574219 118.914062 482.023438 118.914062 486.277344 "/>
<path style=" stroke:none;fill-rule:nonzero;fill:rgb(100%,100%,100%);fill-opacity:1;" d="M 29.574219 287.574219 C 29.574219 291.828125 26.125 295.277344 21.871094 295.277344 C 17.617188 295.277344 14.171875 291.828125 14.171875 287.574219 C 14.171875 283.324219 17.617188 279.875 21.871094 279.875 C 26.125 279.875 29.574219 283.324219 29.574219 287.574219 "/>
<path style=" stroke:none;fill-rule:nonzero;fill:rgb(100%,100%,100%);fill-opacity:1;" d="M 319.152344 21.101562 C 319.152344 25.355469 315.703125 28.804688 311.449219 28.804688 C 307.199219 28.804688 303.75 25.355469 303.75 21.101562 C 303.75 16.847656 307.199219 13.402344 311.449219 13.402344 C 315.703125 13.402344 319.152344 16.847656 319.152344 21.101562 "/>
<path style=" stroke:none;fill-rule:nonzero;fill:rgb(100%,100%,100%);fill-opacity:1;" d="M 450.078125 209.019531 C 450.078125 213.273438 446.632812 216.722656 442.378906 216.722656 C 438.125 216.722656 434.675781 213.273438 434.675781 209.019531 C 434.675781 204.765625 438.125 201.320312 442.378906 201.320312 C 446.632812 201.320312 450.078125 204.765625 450.078125 209.019531 "/>
<path style=" stroke:none;fill-rule:nonzero;fill:rgb(100%,100%,100%);fill-opacity:1;" d="M 211.332031 4.160156 C 211.332031 8.414062 207.882812 11.859375 203.628906 11.859375 C 199.375 11.859375 195.925781 8.414062 195.925781 4.160156 C 195.925781 -0.09375 199.375 -3.542969 203.628906 -3.542969 C 207.882812 -3.542969 211.332031 -0.09375 211.332031 4.160156 "/>
<path style=" stroke:none;fill-rule:nonzero;fill:rgb(100%,100%,100%);fill-opacity:1;" d="M 402.328125 501.679688 C 402.328125 505.933594 398.882812 509.382812 394.628906 509.382812 C 390.375 509.382812 386.925781 505.933594 386.925781 501.679688 C 386.925781 497.425781 390.375 493.976562 394.628906 493.976562 C 398.882812 493.976562 402.328125 497.425781 402.328125 501.679688 "/>
<path style=" stroke:none;fill-rule:nonzero;fill:rgb(100%,100%,100%);fill-opacity:1;" d="M 471.644531 13.402344 C 471.644531 17.65625 468.195312 21.101562 463.941406 21.101562 C 459.6875 21.101562 456.242188 17.65625 456.242188 13.402344 C 456.242188 9.148438 459.6875 5.699219 463.941406 5.699219 C 468.195312 5.699219 471.644531 9.148438 471.644531 13.402344 "/>
<path style=" stroke:none;fill-rule:nonzero;fill:rgb(100%,100%,100%);fill-opacity:1;" d="M 425.433594 10.320312 C 425.433594 14.574219 421.988281 18.023438 417.734375 18.023438 C 413.480469 18.023438 410.03125 14.574219 410.03125 10.320312 C 410.03125 6.066406 413.480469 2.617188 417.734375 2.617188 C 421.988281 2.617188 425.433594 6.066406 425.433594 10.320312 "/>
<path style=" stroke:none;fill-rule:nonzero;fill:rgb(100%,100%,100%);fill-opacity:1;" d="M 497.828125 420.042969 C 497.828125 424.296875 494.382812 427.746094 490.128906 427.746094 C 485.875 427.746094 482.425781 424.296875 482.425781 420.042969 C 482.425781 415.789062 485.875 412.339844 490.128906 412.339844 C 494.382812 412.339844 497.828125 415.789062 497.828125 420.042969 "/>
<path style=" stroke:none;fill-rule:nonzero;fill:rgb(100%,100%,100%);fill-opacity:1;" d="M 462.402344 489.355469 C 462.402344 493.609375 458.953125 497.058594 454.699219 497.058594 C 450.445312 497.058594 447 493.609375 447 489.355469 C 447 485.105469 450.445312 481.65625 454.699219 481.65625 C 458.953125 481.65625 462.402344 485.105469 462.402344 489.355469 "/>
<path style=" stroke:none;fill-rule:nonzero;fill:rgb(100%,100%,100%);fill-opacity:1;" d="M 448.539062 108.898438 C 448.539062 113.152344 445.089844 116.601562 440.839844 116.601562 C 436.585938 116.601562 433.136719 113.152344 433.136719 108.898438 C 433.136719 104.648438 436.585938 101.199219 440.839844 101.199219 C 445.089844 101.199219 448.539062 104.648438 448.539062 108.898438 "/>
<path style=" stroke:none;fill-rule:nonzero;fill:rgb(100%,100%,100%);fill-opacity:1;" d="M 454.699219 13.402344 C 454.699219 17.65625 451.253906 21.101562 447 21.101562 C 442.746094 21.101562 439.296875 17.65625 439.296875 13.402344 C 439.296875 9.148438 442.746094 5.699219 447 5.699219 C 451.253906 5.699219 454.699219 9.148438 454.699219 13.402344 "/>
<path style=" stroke:none;fill-rule:nonzero;fill:rgb(100%,100%,100%);fill-opacity:1;" d="M 517.855469 335.324219 C 517.855469 339.578125 514.40625 343.027344 510.152344 343.027344 C 505.898438 343.027344 502.449219 339.578125 502.449219 335.324219 C 502.449219 331.074219 505.898438 327.625 510.152344 327.625 C 514.40625 327.625 517.855469 331.074219 517.855469 335.324219 "/>
<path style=" stroke:none;fill-rule:nonzero;fill:rgb(100%,100%,100%);fill-opacity:1;" d="M 71.164062 196.699219 C 71.164062 200.953125 67.714844 204.398438 63.460938 204.398438 C 59.207031 204.398438 55.757812 200.953125 55.757812 196.699219 C 55.757812 192.445312 59.207031 188.996094 63.460938 188.996094 C 67.714844 188.996094 71.164062 192.445312 71.164062 196.699219 "/>
<path style=" stroke:none;fill-rule:nonzero;fill:rgb(100%,100%,100%);fill-opacity:1;" d="M 483.964844 501.679688 C 483.964844 505.933594 480.519531 509.382812 476.265625 509.382812 C 472.011719 509.382812 468.5625 505.933594 468.5625 501.679688 C 468.5625 497.425781 472.011719 493.976562 476.265625 493.976562 C 480.519531 493.976562 483.964844 497.425781 483.964844 501.679688 "/>
<path style=" stroke:none;fill-rule:nonzero;fill:rgb(100%,100%,100%);fill-opacity:1;" d="M 382.304688 486.277344 C 382.304688 490.53125 378.859375 493.980469 374.605469 493.980469 C 370.351562 493.980469 366.902344 490.53125 366.902344 486.277344 C 366.902344 482.023438 370.351562 478.574219 374.605469 478.574219 C 378.859375 478.574219 382.304688 482.023438 382.304688 486.277344 "/>
<path style=" stroke:none;fill-rule:nonzero;fill:rgb(100%,100%,100%);fill-opacity:1;" d="M 205.167969 475.496094 C 205.167969 479.75 201.722656 483.195312 197.46875 483.195312 C 193.214844 483.195312 189.765625 479.75 189.765625 475.496094 C 189.765625 471.242188 193.214844 467.792969 197.46875 467.792969 C 201.722656 467.792969 205.167969 471.242188 205.167969 475.496094 "/>
<path style=" stroke:none;fill-rule:nonzero;fill:rgb(100%,100%,100%);fill-opacity:1;" d="M 422.355469 13.402344 C 422.355469 17.65625 418.90625 21.101562 414.652344 21.101562 C 410.398438 21.101562 406.949219 17.65625 406.949219 13.402344 C 406.949219 9.148438 410.398438 5.699219 414.652344 5.699219 C 418.90625 5.699219 422.355469 9.148438 422.355469 13.402344 "/>
<path style=" stroke:none;fill-rule:nonzero;fill:rgb(100%,100%,100%);fill-opacity:1;" d="M 51.136719 118.140625 C 51.136719 122.394531 47.691406 125.84375 43.4375 125.84375 C 39.183594 125.84375 35.734375 122.394531 35.734375 118.140625 C 35.734375 113.886719 39.183594 110.441406 43.4375 110.441406 C 47.691406 110.441406 51.136719 113.886719 51.136719 118.140625 "/>
<path style=" stroke:none;fill-rule:nonzero;fill:rgb(100%,100%,100%);fill-opacity:1;" d="M 46.515625 279.875 C 46.515625 284.128906 43.070312 287.578125 38.816406 287.578125 C 34.5625 287.578125 31.113281 284.128906 31.113281 279.875 C 31.113281 275.621094 34.5625 272.171875 38.816406 272.171875 C 43.070312 272.171875 46.515625 275.621094 46.515625 279.875 "/>
<path style=" stroke:none;fill-rule:nonzero;fill:rgb(100%,100%,100%);fill-opacity:1;" d="M 28.035156 14.941406 C 28.035156 19.195312 24.585938 22.640625 20.332031 22.640625 C 16.078125 22.640625 12.628906 19.195312 12.628906 14.941406 C 12.628906 10.6875 16.078125 7.238281 20.332031 7.238281 C 24.585938 7.238281 28.035156 10.6875 28.035156 14.941406 "/>
<path style=" stroke:none;fill-rule:nonzero;fill:rgb(100%,100%,100%);fill-opacity:1;" d="M 462.402344 -0.460938 C 462.402344 3.792969 458.953125 7.238281 454.699219 7.238281 C 450.445312 7.238281 447 3.792969 447 -0.460938 C 447 -4.714844 450.445312 -8.164062 454.699219 -8.164062 C 458.953125 -8.164062 462.402344 -4.714844 462.402344 -0.460938 "/>
<path style=" stroke:none;fill-rule:nonzero;fill:rgb(100%,100%,100%);fill-opacity:1;" d="M 111.210938 495.519531 C 111.210938 499.773438 107.761719 503.21875 103.507812 503.21875 C 99.253906 503.21875 95.808594 499.773438 95.808594 495.519531 C 95.808594 491.265625 99.253906 487.816406 103.507812 487.816406 C 107.761719 487.816406 111.210938 491.265625 111.210938 495.519531 "/>
<path style=" stroke:none;fill-rule:nonzero;fill:rgb(100%,100%,100%);fill-opacity:1;" d="M 41.898438 145.867188 C 41.898438 150.121094 38.449219 153.570312 34.195312 153.570312 C 29.941406 153.570312 26.492188 150.121094 26.492188 145.867188 C 26.492188 141.613281 29.941406 138.167969 34.195312 138.167969 C 38.449219 138.167969 41.898438 141.613281 41.898438 145.867188 "/>
<path style=" stroke:none;fill-rule:nonzero;fill:rgb(100%,100%,100%);fill-opacity:1;" d="M 479.34375 452.390625 C 479.34375 456.644531 475.898438 460.089844 471.644531 460.089844 C 467.390625 460.089844 463.941406 456.644531 463.941406 452.390625 C 463.941406 448.136719 467.390625 444.6875 471.644531 444.6875 C 475.898438 444.6875 479.34375 448.136719 479.34375 452.390625 "/>
<path style=" stroke:none;fill-rule:nonzero;fill:rgb(100%,100%,100%);fill-opacity:1;" d="M 26.492188 272.171875 C 26.492188 276.425781 23.046875 279.875 18.792969 279.875 C 14.539062 279.875 11.089844 276.425781 11.089844 272.171875 C 11.089844 267.917969 14.539062 264.472656 18.792969 264.472656 C 23.046875 264.472656 26.492188 267.917969 26.492188 272.171875 "/>
<path style=" stroke:none;fill-rule:nonzero;fill:rgb(100%,100%,100%);fill-opacity:1;" d="M 52.679688 514.003906 C 52.679688 518.253906 49.230469 521.703125 44.976562 521.703125 C 40.722656 521.703125 37.277344 518.253906 37.277344 514.003906 C 37.277344 509.75 40.722656 506.300781 44.976562 506.300781 C 49.230469 506.300781 52.679688 509.75 52.679688 514.003906 "/>
<path style=" stroke:none;fill-rule:nonzero;fill:rgb(100%,100%,100%);fill-opacity:1;" d="M 101.96875 21.101562 C 101.96875 25.355469 98.519531 28.804688 94.265625 28.804688 C 90.011719 28.804688 86.566406 25.355469 86.566406 21.101562 C 86.566406 16.847656 90.011719 13.402344 94.265625 13.402344 C 98.519531 13.402344 101.96875 16.847656 101.96875 21.101562 "/>
<path style=" stroke:none;fill-rule:nonzero;fill:rgb(100%,100%,100%);fill-opacity:1;" d="M 500.910156 489.355469 C 500.910156 493.609375 497.460938 497.058594 493.207031 497.058594 C 488.953125 497.058594 485.507812 493.609375 485.507812 489.355469 C 485.507812 485.105469 488.953125 481.65625 493.207031 481.65625 C 497.460938 481.65625 500.910156 485.105469 500.910156 489.355469 "/>
<path style=" stroke:none;fill-rule:nonzero;fill:rgb(100%,100%,100%);fill-opacity:1;" d="M 299.128906 480.117188 C 299.128906 484.371094 295.679688 487.816406 291.425781 487.816406 C 287.171875 487.816406 283.726562 484.371094 283.726562 480.117188 C 283.726562 475.863281 287.171875 472.414062 291.425781 472.414062 C 295.679688 472.414062 299.128906 475.863281 299.128906 480.117188 "/>
<path style=" stroke:none;fill-rule:nonzero;fill:rgb(100%,100%,100%);fill-opacity:1;" d="M 477.804688 355.351562 C 477.804688 359.601562 474.355469 363.050781 470.101562 363.050781 C 465.847656 363.050781 462.402344 359.601562 462.402344 355.351562 C 462.402344 351.097656 465.847656 347.648438 470.101562 347.648438 C 474.355469 347.648438 477.804688 351.097656 477.804688 355.351562 "/>
<path style=" stroke:none;fill-rule:nonzero;fill:rgb(100%,100%,100%);fill-opacity:1;" d="M 320.695312 31.882812 C 320.695312 36.136719 317.246094 39.585938 312.992188 39.585938 C 308.738281 39.585938 305.289062 36.136719 305.289062 31.882812 C 305.289062 27.628906 308.738281 24.183594 312.992188 24.183594 C 317.246094 24.183594 320.695312 27.628906 320.695312 31.882812 "/>
<path style=" stroke:none;fill-rule:nonzero;fill:rgb(100%,100%,100%);fill-opacity:1;" d="M 425.433594 21.101562 C 425.433594 25.355469 421.988281 28.804688 417.734375 28.804688 C 413.480469 28.804688 410.03125 25.355469 410.03125 21.101562 C 410.03125 16.847656 413.480469 13.402344 417.734375 13.402344 C 421.988281 13.402344 425.433594 16.847656 425.433594 21.101562 "/>
<path style=" stroke:none;fill-rule:nonzero;fill:rgb(100%,100%,100%);fill-opacity:1;" d="M 63.460938 172.054688 C 63.460938 176.304688 60.011719 179.753906 55.757812 179.753906 C 51.503906 179.753906 48.058594 176.304688 48.058594 172.054688 C 48.058594 167.800781 51.503906 164.351562 55.757812 164.351562 C 60.011719 164.351562 63.460938 167.800781 63.460938 172.054688 "/>
<path style=" stroke:none;fill-rule:nonzero;fill:rgb(100%,100%,100%);fill-opacity:1;" d="M 78.863281 156.648438 C 78.863281 160.902344 75.414062 164.351562 71.160156 164.351562 C 66.910156 164.351562 63.460938 160.902344 63.460938 156.648438 C 63.460938 152.398438 66.910156 148.949219 71.160156 148.949219 C 75.414062 148.949219 78.863281 152.398438 78.863281 156.648438 "/>
<path style=" stroke:none;fill-rule:nonzero;fill:rgb(100%,84.3%,0%);fill-opacity:1;" d="M 279.105469 440.574219 C 279.105469 444.828125 275.65625 448.277344 271.402344 448.277344 C 267.148438 448.277344 263.703125 444.828125 263.703125 440.574219 C 263.703125 436.320312 267.148438 432.875 271.402344 432.875 C 275.65625 432.875 279.105469 436.320312 279.105469 440.574219 "/>
<path style=" stroke:none;fill-rule:nonzero;fill:rgb(100%,84.3%,0%);fill-opacity:1;" d="M 155.878906 440.574219 C 155.878906 444.828125 152.429688 448.277344 148.179688 448.277344 C 143.925781 448.277344 140.476562 444.828125 140.476562 440.574219 C 140.476562 436.320312 143.925781 432.875 148.179688 432.875 C 152.429688 432.875 155.878906 436.320312 155.878906 440.574219 "/>
<path style=" stroke:none;fill-rule:nonzero;fill:rgb(100%,84.3%,0%);fill-opacity:1;" d="M 171.28125 440.574219 C 171.28125 444.828125 167.835938 448.277344 163.582031 448.277344 C 159.328125 448.277344 155.878906 444.828125 155.878906 440.574219 C 155.878906 436.320312 159.328125 432.875 163.582031 432.875 C 167.835938 432.875 171.28125 436.320312 171.28125 440.574219 "/>
<path style=" stroke:none;fill-rule:nonzero;fill:rgb(100%,84.3%,0%);fill-opacity:1;" d="M 217.492188 440.574219 C 217.492188 444.828125 214.042969 448.277344 209.789062 448.277344 C 205.539062 448.277344 202.089844 444.828125 202.089844 440.574219 C 202.089844 436.320312 205.539062 432.875 209.789062 432.875 C 214.042969 432.875 217.492188 436.320312 217.492188 440.574219 "/>
<path style=" stroke:none;fill-rule:nonzero;fill:rgb(100%,84.3%,0%);fill-opacity:1;" d="M 302.210938 58.070312 C 302.210938 62.324219 298.761719 65.773438 294.507812 65.773438 C 290.253906 65.773438 286.804688 62.324219 286.804688 58.070312 C 286.804688 53.816406 290.253906 50.367188 294.507812 50.367188 C 298.761719 50.367188 302.210938 53.816406 302.210938 58.070312 "/>
<path style=" stroke:none;fill-rule:nonzero;fill:rgb(100%,84.3%,0%);fill-opacity:1;" d="M 100.429688 58.070312 C 100.429688 62.324219 96.980469 65.773438 92.726562 65.773438 C 88.472656 65.773438 85.027344 62.324219 85.027344 58.070312 C 85.027344 53.816406 88.472656 50.367188 92.726562 50.367188 C 96.980469 50.367188 100.429688 53.816406 100.429688 58.070312 "/>
<path style=" stroke:none;fill-rule:nonzero;fill:rgb(100%,84.3%,0%);fill-opacity:1;" d="M 100.429688 128.925781 C 100.429688 133.175781 96.980469 136.625 92.726562 136.625 C 88.472656 136.625 85.027344 133.175781 85.027344 128.925781 C 85.027344 124.671875 88.472656 121.222656 92.726562 121.222656 C 96.980469 121.222656 100.429688 124.671875 100.429688 128.925781 "/>
<path style=" stroke:none;fill-rule:nonzero;fill:rgb(100%,84.3%,0%);fill-opacity:1;" d="M 426.972656 236.746094 C 426.972656 241 423.527344 244.449219 419.273438 244.449219 C 415.019531 244.449219 411.570312 241 411.570312 236.746094 C 411.570312 232.492188 415.019531 229.042969 419.273438 229.042969 C 423.527344 229.042969 426.972656 232.492188 426.972656 236.746094 "/>
<path style=" stroke:none;fill-rule:nonzero;fill:rgb(100%,84.3%,0%);fill-opacity:1;" d="M 325.316406 71.425781 C 325.316406 75.679688 321.867188 79.125 317.613281 79.125 C 313.359375 79.125 309.910156 75.679688 309.910156 71.425781 C 309.910156 67.171875 313.359375 63.722656 317.613281 63.722656 C 321.867188 63.722656 325.316406 67.171875 325.316406 71.425781 "/>
<path style=" stroke:none;fill-rule:nonzero;fill:rgb(100%,84.3%,0%);fill-opacity:1;" d="M 263.703125 440.574219 C 263.703125 444.828125 260.253906 448.277344 256 448.277344 C 251.746094 448.277344 248.296875 444.828125 248.296875 440.574219 C 248.296875 436.320312 251.746094 432.875 256 432.875 C 260.253906 432.875 263.703125 436.320312 263.703125 440.574219 "/>
<path style=" stroke:none;fill-rule:nonzero;fill:rgb(100%,84.3%,0%);fill-opacity:1;" d="M 256 453.929688 C 256 458.183594 252.550781 461.632812 248.296875 461.632812 C 244.042969 461.632812 240.597656 458.183594 240.597656 453.929688 C 240.597656 449.675781 244.042969 446.226562 248.296875 446.226562 C 252.550781 446.226562 256 449.675781 256 453.929688 "/>
<path style=" stroke:none;fill-rule:nonzero;fill:rgb(100%,84.3%,0%);fill-opacity:1;" d="M 100.429688 375.375 C 100.429688 379.628906 96.980469 383.074219 92.726562 383.074219 C 88.472656 383.074219 85.027344 379.628906 85.027344 375.375 C 85.027344 371.121094 88.472656 367.671875 92.726562 367.671875 C 96.980469 367.671875 100.429688 371.121094 100.429688 375.375 "/>
<path style=" stroke:none;fill-rule:nonzero;fill:rgb(100%,84.3%,0%);fill-opacity:1;" d="M 356.121094 440.574219 C 356.121094 444.828125 352.671875 448.277344 348.417969 448.277344 C 344.164062 448.277344 340.71875 444.828125 340.71875 440.574219 C 340.71875 436.320312 344.164062 432.875 348.417969 432.875 C 352.671875 432.875 356.121094 436.320312 356.121094 440.574219 "/>
<path style=" stroke:none;fill-rule:nonzero;fill:rgb(100%,84.3%,0%);fill-opacity:1;" d="M 325.316406 440.574219 C 325.316406 444.828125 321.867188 448.277344 317.613281 448.277344 C 313.359375 448.277344 309.910156 444.828125 309.910156 440.574219 C 309.910156 436.320312 313.359375 432.875 317.613281 432.875 C 321.867188 432.875 325.316406 436.320312 325.316406 440.574219 "/>
<path style=" stroke:none;fill-rule:nonzero;fill:rgb(100%,84.3%,0%);fill-opacity:1;" d="M 426.972656 175.132812 C 426.972656 179.386719 423.527344 182.835938 419.273438 182.835938 C 415.019531 182.835938 411.570312 179.386719 411.570312 175.132812 C 411.570312 170.878906 415.019531 167.433594 419.273438 167.433594 C 423.527344 167.433594 426.972656 170.878906 426.972656 175.132812 "/>
<path style=" stroke:none;fill-rule:nonzero;fill:rgb(100%,84.3%,0%);fill-opacity:1;" d="M 186.6875 440.574219 C 186.6875 444.828125 183.238281 448.277344 178.984375 448.277344 C 174.730469 448.277344 171.28125 444.828125 171.28125 440.574219 C 171.28125 436.320312 174.730469 432.875 178.984375 432.875 C 183.238281 432.875 186.6875 436.320312 186.6875 440.574219 "/>
<path style=" stroke:none;fill-rule:nonzero;fill:rgb(100%,84.3%,0%);fill-opacity:1;" d="M 248.296875 71.425781 C 248.296875 75.679688 244.851562 79.125 240.597656 79.125 C 236.34375 79.125 232.894531 75.679688 232.894531 71.425781 C 232.894531 67.171875 236.34375 63.722656 240.597656 63.722656 C 244.851562 63.722656 248.296875 67.171875 248.296875 71.425781 "/>
<path style=" stroke:none;fill-rule:nonzero;fill:rgb(100%,84.3%,0%);fill-opacity:1;" d="M 100.429688 205.941406 C 100.429688 210.195312 96.980469 213.640625 92.726562 213.640625 C 88.472656 213.640625 85.027344 210.195312 85.027344 205.941406 C 85.027344 201.6875 88.472656 198.238281 92.726562 198.238281 C 96.980469 198.238281 100.429688 201.6875 100.429688 205.941406 "/>
<path style=" stroke:none;fill-rule:nonzero;fill:rgb(100%,84.3%,0%);fill-opacity:1;" d="M 100.429688 82.714844 C 100.429688 86.96875 96.980469 90.417969 92.726562 90.417969 C 88.472656 90.417969 85.027344 86.96875 85.027344 82.714844 C 85.027344 78.460938 88.472656 75.011719 92.726562 75.011719 C 96.980469 75.011719 100.429688 78.460938 100.429688 82.714844 "/>
<path style=" stroke:none;fill-rule:nonzero;fill:rgb(100%,84.3%,0%);fill-opacity:1;" d="M 410.03125 58.070312 C 410.03125 62.324219 406.582031 65.773438 402.328125 65.773438 C 398.078125 65.773438 394.628906 62.324219 394.628906 58.070312 C 394.628906 53.816406 398.078125 50.367188 402.328125 50.367188 C 406.582031 50.367188 410.03125 53.816406 410.03125 58.070312 "/>
<path style=" stroke:none;fill-rule:nonzero;fill:rgb(100%,84.3%,0%);fill-opacity:1;" d="M 309.910156 440.574219 C 309.910156 444.828125 306.460938 448.277344 302.210938 448.277344 C 297.957031 448.277344 294.507812 444.828125 294.507812 440.574219 C 294.507812 436.320312 297.957031 432.875 302.210938 432.875 C 306.460938 432.875 309.910156 436.320312 309.910156 440.574219 "/>
<path style=" stroke:none;fill-rule:nonzero;fill:rgb(100%,84.3%,0%);fill-opacity:1;" d="M 100.429688 282.953125 C 100.429688 287.207031 96.980469 290.65625 92.726562 290.65625 C 88.472656 290.65625 85.027344 287.207031 85.027344 282.953125 C 85.027344 278.703125 88.472656 275.253906 92.726562 275.253906 C 96.980469 275.253906 100.429688 278.703125 100.429688 282.953125 "/>
<path style=" stroke:none;fill-rule:nonzero;fill:rgb(100%,84.3%,0%);fill-opacity:1;" d="M 113.785156 152.027344 C 113.785156 156.28125 110.335938 159.730469 106.082031 159.730469 C 101.828125 159.730469 98.378906 156.28125 98.378906 152.027344 C 98.378906 147.777344 101.828125 144.328125 106.082031 144.328125 C 110.335938 144.328125 113.785156 147.777344 113.785156 152.027344 "/>
<path style=" stroke:none;fill-rule:nonzero;fill:rgb(100%,84.3%,0%);fill-opacity:1;" d="M 426.972656 128.925781 C 426.972656 133.175781 423.527344 136.625 419.273438 136.625 C 415.019531 136.625 411.570312 133.175781 411.570312 128.925781 C 411.570312 124.671875 415.019531 121.222656 419.273438 121.222656 C 423.527344 121.222656 426.972656 124.671875 426.972656 128.925781 "/>
<path style=" stroke:none;fill-rule:nonzero;fill:rgb(100%,84.3%,0%);fill-opacity:1;" d="M 402.328125 440.574219 C 402.328125 444.828125 398.882812 448.277344 394.628906 448.277344 C 390.375 448.277344 386.925781 444.828125 386.925781 440.574219 C 386.925781 436.320312 390.375 432.875 394.628906 432.875 C 398.882812 432.875 402.328125 436.320312 402.328125 440.574219 "/>
<path style=" stroke:none;fill-rule:nonzero;fill:rgb(100%,84.3%,0%);fill-opacity:1;" d="M 132.773438 453.929688 C 132.773438 458.183594 129.328125 461.632812 125.074219 461.632812 C 120.820312 461.632812 117.371094 458.183594 117.371094 453.929688 C 117.371094 449.675781 120.820312 446.226562 125.074219 446.226562 C 129.328125 446.226562 132.773438 449.675781 132.773438 453.929688 "/>
<path style=" stroke:none;fill-rule:nonzero;fill:rgb(100%,84.3%,0%);fill-opacity:1;" d="M 271.402344 58.070312 C 271.402344 62.324219 267.957031 65.773438 263.703125 65.773438 C 259.449219 65.773438 256 62.324219 256 58.070312 C 256 53.816406 259.449219 50.367188 263.703125 50.367188 C 267.957031 50.367188 271.402344 53.816406 271.402344 58.070312 "/>
<path style=" stroke:none;fill-rule:nonzero;fill:rgb(100%,84.3%,0%);fill-opacity:1;" d="M 100.429688 113.519531 C 100.429688 117.773438 96.980469 121.222656 92.726562 121.222656 C 88.472656 121.222656 85.027344 117.773438 85.027344 113.519531 C 85.027344 109.265625 88.472656 105.820312 92.726562 105.820312 C 96.980469 105.820312 100.429688 109.265625 100.429688 113.519531 "/>
<path style=" stroke:none;fill-rule:nonzero;fill:rgb(100%,84.3%,0%);fill-opacity:1;" d="M 426.972656 375.375 C 426.972656 379.628906 423.527344 383.074219 419.273438 383.074219 C 415.019531 383.074219 411.570312 379.628906 411.570312 375.375 C 411.570312 371.121094 415.019531 367.671875 419.273438 367.671875 C 423.527344 367.671875 426.972656 371.121094 426.972656 375.375 "/>
<path style=" stroke:none;fill-rule:nonzero;fill:rgb(100%,84.3%,0%);fill-opacity:1;" d="M 202.089844 71.425781 C 202.089844 75.679688 198.640625 79.125 194.386719 79.125 C 190.132812 79.125 186.683594 75.679688 186.683594 71.425781 C 186.683594 67.171875 190.132812 63.722656 194.386719 63.722656 C 198.640625 63.722656 202.089844 67.171875 202.089844 71.425781 "/>
<path style=" stroke:none;fill-rule:nonzero;fill:rgb(100%,84.3%,0%);fill-opacity:1;" d="M 426.972656 267.550781 C 426.972656 271.804688 423.527344 275.253906 419.273438 275.253906 C 415.019531 275.253906 411.570312 271.804688 411.570312 267.550781 C 411.570312 263.296875 415.019531 259.851562 419.273438 259.851562 C 423.527344 259.851562 426.972656 263.296875 426.972656 267.550781 "/>
<path style=" stroke:none;fill-rule:nonzero;fill:rgb(100%,84.3%,0%);fill-opacity:1;" d="M 371.523438 71.425781 C 371.523438 75.679688 368.074219 79.125 363.820312 79.125 C 359.570312 79.125 356.121094 75.679688 356.121094 71.425781 C 356.121094 67.171875 359.570312 63.722656 363.820312 63.722656 C 368.074219 63.722656 371.523438 67.171875 371.523438 71.425781 "/>
<path style=" stroke:none;fill-rule:nonzero;fill:rgb(100%,84.3%,0%);fill-opacity:1;" d="M 413.621094 429.285156 C 413.621094 433.539062 410.171875 436.988281 405.917969 436.988281 C 401.664062 436.988281 398.214844 433.539062 398.214844 429.285156 C 398.214844 425.03125 401.664062 421.582031 405.917969 421.582031 C 410.171875 421.582031 413.621094 425.03125 413.621094 429.285156 "/>
<path style=" stroke:none;fill-rule:nonzero;fill:rgb(100%,84.3%,0%);fill-opacity:1;" d="M 426.972656 113.519531 C 426.972656 117.773438 423.527344 121.222656 419.273438 121.222656 C 415.019531 121.222656 411.570312 117.773438 411.570312 113.519531 C 411.570312 109.265625 415.019531 105.820312 419.273438 105.820312 C 423.527344 105.820312 426.972656 109.265625 426.972656 113.519531 "/>
<path style=" stroke:none;fill-rule:nonzero;fill:rgb(100%,84.3%,0%);fill-opacity:1;" d="M 363.820312 453.929688 C 363.820312 458.183594 360.375 461.632812 356.121094 461.632812 C 351.867188 461.632812 348.417969 458.183594 348.417969 453.929688 C 348.417969 449.675781 351.867188 446.226562 356.121094 446.226562 C 360.375 446.226562 363.820312 449.675781 363.820312 453.929688 "/>
<path style=" stroke:none;fill-rule:nonzero;fill:rgb(100%,84.3%,0%);fill-opacity:1;" d="M 113.785156 413.882812 C 113.785156 418.136719 110.335938 421.582031 106.082031 421.582031 C 101.828125 421.582031 98.378906 418.136719 98.378906 413.882812 C 98.378906 409.628906 101.828125 406.179688 106.082031 406.179688 C 110.335938 406.179688 113.785156 409.628906 113.785156 413.882812 "/>
<path style=" stroke:none;fill-rule:nonzero;fill:rgb(100%,84.3%,0%);fill-opacity:1;" d="M 271.402344 453.929688 C 271.402344 458.183594 267.957031 461.632812 263.703125 461.632812 C 259.449219 461.632812 256 458.183594 256 453.929688 C 256 449.675781 259.449219 446.226562 263.703125 446.226562 C 267.957031 446.226562 271.402344 449.675781 271.402344 453.929688 "/>
<path style=" stroke:none;fill-rule:nonzero;fill:rgb(100%,84.3%,0%);fill-opacity:1;" d="M 426.972656 329.164062 C 426.972656 333.417969 423.527344 336.867188 419.273438 336.867188 C 415.019531 336.867188 411.570312 333.417969 411.570312 329.164062 C 411.570312 324.910156 415.019531 321.464844 419.273438 321.464844 C 423.527344 321.464844 426.972656 324.910156 426.972656 329.164062 "/>
<path style=" stroke:none;fill-rule:nonzero;fill:rgb(100%,84.3%,0%);fill-opacity:1;" d="M 117.371094 58.070312 C 117.371094 62.324219 113.921875 65.773438 109.671875 65.773438 C 105.417969 65.773438 101.96875 62.324219 101.96875 58.070312 C 101.96875 53.816406 105.417969 50.367188 109.671875 50.367188 C 113.921875 50.367188 117.371094 53.816406 117.371094 58.070312 "/>
<path style=" stroke:none;fill-rule:nonzero;fill:rgb(100%,84.3%,0%);fill-opacity:1;" d="M 178.984375 453.929688 C 178.984375 458.183594 175.535156 461.632812 171.28125 461.632812 C 167.03125 461.632812 163.582031 458.183594 163.582031 453.929688 C 163.582031 449.675781 167.03125 446.226562 171.28125 446.226562 C 175.535156 446.226562 178.984375 449.675781 178.984375 453.929688 "/>
<path style=" stroke:none;fill-rule:nonzero;fill:rgb(100%,84.3%,0%);fill-opacity:1;" d="M 178.984375 58.070312 C 178.984375 62.324219 175.535156 65.773438 171.28125 65.773438 C 167.03125 65.773438 163.582031 62.324219 163.582031 58.070312 C 163.582031 53.816406 167.03125 50.367188 171.28125 50.367188 C 175.535156 50.367188 178.984375 53.816406 178.984375 58.070312 "/>
<path style=" stroke:none;fill-rule:nonzero;fill:rgb(100%,84.3%,0%);fill-opacity:1;" d="M 113.785156 182.835938 C 113.785156 187.089844 110.335938 190.535156 106.082031 190.535156 C 101.828125 190.535156 98.378906 187.089844 98.378906 182.835938 C 98.378906 178.582031 101.828125 175.132812 106.082031 175.132812 C 110.335938 175.132812 113.785156 178.582031 113.785156 182.835938 "/>
<path style=" stroke:none;fill-rule:nonzero;fill:rgb(100%,84.3%,0%);fill-opacity:1;" d="M 426.972656 205.941406 C 426.972656 210.195312 423.527344 213.640625 419.273438 213.640625 C 415.019531 213.640625 411.570312 210.195312 411.570312 205.941406 C 411.570312 201.6875 415.019531 198.238281 419.273438 198.238281 C 423.527344 198.238281 426.972656 201.6875 426.972656 205.941406 "/>
<path style=" stroke:none;fill-rule:nonzero;fill:rgb(100%,84.3%,0%);fill-opacity:1;" d="M 225.195312 58.070312 C 225.195312 62.324219 221.746094 65.773438 217.492188 65.773438 C 213.238281 65.773438 209.789062 62.324219 209.789062 58.070312 C 209.789062 53.816406 213.238281 50.367188 217.492188 50.367188 C 221.746094 50.367188 225.195312 53.816406 225.195312 58.070312 "/>
<path style=" stroke:none;fill-rule:nonzero;fill:rgb(100%,84.3%,0%);fill-opacity:1;" d="M 371.523438 440.574219 C 371.523438 444.828125 368.074219 448.277344 363.820312 448.277344 C 359.570312 448.277344 356.121094 444.828125 356.121094 440.574219 C 356.121094 436.320312 359.570312 432.875 363.820312 432.875 C 368.074219 432.875 371.523438 436.320312 371.523438 440.574219 "/>
<path style=" stroke:none;fill-rule:nonzero;fill:rgb(100%,84.3%,0%);fill-opacity:1;" d="M 132.773438 84.78125 C 132.773438 89.035156 129.328125 92.480469 125.074219 92.480469 C 120.820312 92.480469 117.371094 89.035156 117.371094 84.78125 C 117.371094 80.527344 120.820312 77.078125 125.074219 77.078125 C 129.328125 77.078125 132.773438 80.527344 132.773438 84.78125 "/>
<path style=" stroke:none;fill-rule:nonzero;fill:rgb(100%,84.3%,0%);fill-opacity:1;" d="M 155.878906 71.425781 C 155.878906 75.679688 152.429688 79.125 148.179688 79.125 C 143.925781 79.125 140.476562 75.679688 140.476562 71.425781 C 140.476562 67.171875 143.925781 63.722656 148.179688 63.722656 C 152.429688 63.722656 155.878906 67.171875 155.878906 71.425781 "/>
<path style=" stroke:none;fill-rule:nonzero;fill:rgb(100%,84.3%,0%);fill-opacity:1;" d="M 163.582031 453.929688 C 163.582031 458.183594 160.132812 461.632812 155.878906 461.632812 C 151.625 461.632812 148.179688 458.183594 148.179688 453.929688 C 148.179688 449.675781 151.625 446.226562 155.878906 446.226562 C 160.132812 446.226562 163.582031 449.675781 163.582031 453.929688 "/>
<path style=" stroke:none;fill-rule:nonzero;fill:rgb(100%,84.3%,0%);fill-opacity:1;" d="M 402.328125 71.425781 C 402.328125 75.679688 398.882812 79.125 394.628906 79.125 C 390.375 79.125 386.925781 75.679688 386.925781 71.425781 C 386.925781 67.171875 390.375 63.722656 394.628906 63.722656 C 398.882812 63.722656 402.328125 67.171875 402.328125 71.425781 "/>
<path style=" stroke:none;fill-rule:nonzero;fill:rgb(100%,84.3%,0%);fill-opacity:1;" d="M 100.429688 344.566406 C 100.429688 348.820312 96.980469 352.269531 92.726562 352.269531 C 88.472656 352.269531 85.027344 348.820312 85.027344 344.566406 C 85.027344 340.316406 88.472656 336.867188 92.726562 336.867188 C 96.980469 336.867188 100.429688 340.316406 100.429688 344.566406 "/>
<path style=" stroke:none;fill-rule:nonzero;fill:rgb(100%,84.3%,0%);fill-opacity:1;" d="M 426.972656 98.117188 C 426.972656 102.371094 423.527344 105.820312 419.273438 105.820312 C 415.019531 105.820312 411.570312 102.371094 411.570312 98.117188 C 411.570312 93.863281 415.019531 90.417969 419.273438 90.417969 C 423.527344 90.417969 426.972656 93.863281 426.972656 98.117188 "/>
<path style=" stroke:none;fill-rule:nonzero;fill:rgb(100%,84.3%,0%);fill-opacity:1;" d="M 363.820312 58.070312 C 363.820312 62.324219 360.375 65.773438 356.121094 65.773438 C 351.867188 65.773438 348.417969 62.324219 348.417969 58.070312 C 348.417969 53.816406 351.867188 50.367188 356.121094 50.367188 C 360.375 50.367188 363.820312 53.816406 363.820312 58.070312 "/>
<path style=" stroke:none;fill-rule:nonzero;fill:rgb(100%,84.3%,0%);fill-opacity:1;" d="M 113.785156 136.625 C 113.785156 140.878906 110.335938 144.328125 106.082031 144.328125 C 101.828125 144.328125 98.378906 140.878906 98.378906 136.625 C 98.378906 132.371094 101.828125 128.925781 106.082031 128.925781 C 110.335938 128.925781 113.785156 132.371094 113.785156 136.625 "/>
<path style=" stroke:none;fill-rule:nonzero;fill:rgb(100%,84.3%,0%);fill-opacity:1;" d="M 426.972656 359.972656 C 426.972656 364.222656 423.527344 367.671875 419.273438 367.671875 C 415.019531 367.671875 411.570312 364.222656 411.570312 359.972656 C 411.570312 355.71875 415.019531 352.269531 419.273438 352.269531 C 423.527344 352.269531 426.972656 355.71875 426.972656 359.972656 "/>
<path style=" stroke:none;fill-rule:nonzero;fill:rgb(100%,84.3%,0%);fill-opacity:1;" d="M 100.429688 436.988281 C 100.429688 441.242188 96.980469 444.6875 92.726562 444.6875 C 88.472656 444.6875 85.027344 441.242188 85.027344 436.988281 C 85.027344 432.734375 88.472656 429.285156 92.726562 429.285156 C 96.980469 429.285156 100.429688 432.734375 100.429688 436.988281 "/>
<path style=" stroke:none;fill-rule:nonzero;fill:rgb(100%,84.3%,0%);fill-opacity:1;" d="M 209.789062 453.929688 C 209.789062 458.183594 206.34375 461.632812 202.089844 461.632812 C 197.835938 461.632812 194.386719 458.183594 194.386719 453.929688 C 194.386719 449.675781 197.835938 446.226562 202.089844 446.226562 C 206.34375 446.226562 209.789062 449.675781 209.789062 453.929688 "/>
<path style=" stroke:none;fill-rule:nonzero;fill:rgb(100%,84.3%,0%);fill-opacity:1;" d="M 426.972656 82.714844 C 426.972656 86.96875 423.527344 90.417969 419.273438 90.417969 C 415.019531 90.417969 411.570312 86.96875 411.570312 82.714844 C 411.570312 78.460938 415.019531 75.011719 419.273438 75.011719 C 423.527344 75.011719 426.972656 78.460938 426.972656 82.714844 "/>
<path style=" stroke:none;fill-rule:nonzero;fill:rgb(100%,84.3%,0%);fill-opacity:1;" d="M 240.597656 58.070312 C 240.597656 62.324219 237.148438 65.773438 232.894531 65.773438 C 228.640625 65.773438 225.195312 62.324219 225.195312 58.070312 C 225.195312 53.816406 228.640625 50.367188 232.894531 50.367188 C 237.148438 50.367188 240.597656 53.816406 240.597656 58.070312 "/>
<path style=" stroke:none;fill-rule:nonzero;fill:rgb(100%,84.3%,0%);fill-opacity:1;" d="M 410.03125 453.929688 C 410.03125 458.183594 406.582031 461.632812 402.328125 461.632812 C 398.078125 461.632812 394.628906 458.183594 394.628906 453.929688 C 394.628906 449.675781 398.078125 446.226562 402.328125 446.226562 C 406.582031 446.226562 410.03125 449.675781 410.03125 453.929688 "/>
<path style=" stroke:none;fill-rule:nonzero;fill:rgb(100%,84.3%,0%);fill-opacity:1;" d="M 113.785156 229.046875 C 113.785156 233.296875 110.335938 236.746094 106.082031 236.746094 C 101.828125 236.746094 98.378906 233.296875 98.378906 229.046875 C 98.378906 224.792969 101.828125 221.34375 106.082031 221.34375 C 110.335938 221.34375 113.785156 224.792969 113.785156 229.046875 "/>
<path style=" stroke:none;fill-rule:nonzero;fill:rgb(100%,84.3%,0%);fill-opacity:1;" d="M 240.597656 453.929688 C 240.597656 458.183594 237.148438 461.632812 232.894531 461.632812 C 228.640625 461.632812 225.195312 458.183594 225.195312 453.929688 C 225.195312 449.675781 228.640625 446.226562 232.894531 446.226562 C 237.148438 446.226562 240.597656 449.675781 240.597656 453.929688 "/>
<path style=" stroke:none;fill-rule:nonzero;fill:rgb(100%,84.3%,0%);fill-opacity:1;" d="M 100.429688 329.164062 C 100.429688 333.417969 96.980469 336.867188 92.726562 336.867188 C 88.472656 336.867188 85.027344 333.417969 85.027344 329.164062 C 85.027344 324.910156 88.472656 321.464844 92.726562 321.464844 C 96.980469 321.464844 100.429688 324.910156 100.429688 329.164062 "/>
<path style=" stroke:none;fill-rule:nonzero;fill:rgb(100%,84.3%,0%);fill-opacity:1;" d="M 113.785156 90.414062 C 113.785156 94.667969 110.335938 98.117188 106.082031 98.117188 C 101.828125 98.117188 98.378906 94.667969 98.378906 90.414062 C 98.378906 86.164062 101.828125 82.714844 106.082031 82.714844 C 110.335938 82.714844 113.785156 86.164062 113.785156 90.414062 "/>
<path style=" stroke:none;fill-rule:nonzero;fill:rgb(100%,84.3%,0%);fill-opacity:1;" d="M 426.972656 344.566406 C 426.972656 348.820312 423.527344 352.269531 419.273438 352.269531 C 415.019531 352.269531 411.570312 348.820312 411.570312 344.566406 C 411.570312 340.316406 415.019531 336.867188 419.273438 336.867188 C 423.527344 336.867188 426.972656 340.316406 426.972656 344.566406 "/>
<path style=" stroke:none;fill-rule:nonzero;fill:rgb(100%,84.3%,0%);fill-opacity:1;" d="M 333.015625 58.070312 C 333.015625 62.324219 329.566406 65.773438 325.3125 65.773438 C 321.058594 65.773438 317.613281 62.324219 317.613281 58.070312 C 317.613281 53.816406 321.058594 50.367188 325.3125 50.367188 C 329.566406 50.367188 333.015625 53.816406 333.015625 58.070312 "/>
<path style=" stroke:none;fill-rule:nonzero;fill:rgb(100%,84.3%,0%);fill-opacity:1;" d="M 426.972656 313.761719 C 426.972656 318.015625 423.527344 321.464844 419.273438 321.464844 C 415.019531 321.464844 411.570312 318.015625 411.570312 313.761719 C 411.570312 309.507812 415.019531 306.058594 419.273438 306.058594 C 423.527344 306.058594 426.972656 309.507812 426.972656 313.761719 "/>
<path style=" stroke:none;fill-rule:nonzero;fill:rgb(100%,84.3%,0%);fill-opacity:1;" d="M 113.785156 306.058594 C 113.785156 310.3125 110.335938 313.761719 106.082031 313.761719 C 101.828125 313.761719 98.378906 310.3125 98.378906 306.058594 C 98.378906 301.804688 101.828125 298.359375 106.082031 298.359375 C 110.335938 298.359375 113.785156 301.804688 113.785156 306.058594 "/>
<path style=" stroke:none;fill-rule:nonzero;fill:rgb(100%,84.3%,0%);fill-opacity:1;" d="M 113.785156 336.867188 C 113.785156 341.121094 110.335938 344.566406 106.082031 344.566406 C 101.828125 344.566406 98.378906 341.121094 98.378906 336.867188 C 98.378906 332.613281 101.828125 329.164062 106.082031 329.164062 C 110.335938 329.164062 113.785156 332.613281 113.785156 336.867188 "/>
<path style=" stroke:none;fill-rule:nonzero;fill:rgb(100%,84.3%,0%);fill-opacity:1;" d="M 348.417969 58.070312 C 348.417969 62.324219 344.96875 65.773438 340.71875 65.773438 C 336.464844 65.773438 333.015625 62.324219 333.015625 58.070312 C 333.015625 53.816406 336.464844 50.367188 340.71875 50.367188 C 344.96875 50.367188 348.417969 53.816406 348.417969 58.070312 "/>
<path style=" stroke:none;fill-rule:nonzero;fill:rgb(100%,84.3%,0%);fill-opacity:1;" d="M 100.429688 175.132812 C 100.429688 179.386719 96.980469 182.835938 92.726562 182.835938 C 88.472656 182.835938 85.027344 179.386719 85.027344 175.132812 C 85.027344 170.878906 88.472656 167.433594 92.726562 167.433594 C 96.980469 167.433594 100.429688 170.878906 100.429688 175.132812 "/>
<path style=" stroke:none;fill-rule:nonzero;fill:rgb(100%,84.3%,0%);fill-opacity:1;" d="M 426.972656 453.929688 C 426.972656 458.183594 423.527344 461.632812 419.273438 461.632812 C 415.019531 461.632812 411.570312 458.183594 411.570312 453.929688 C 411.570312 449.675781 415.019531 446.226562 419.273438 446.226562 C 423.527344 446.226562 426.972656 449.675781 426.972656 453.929688 "/>
<path style=" stroke:none;fill-rule:nonzero;fill:rgb(100%,84.3%,0%);fill-opacity:1;" d="M 194.386719 453.929688 C 194.386719 458.183594 190.941406 461.632812 186.6875 461.632812 C 182.433594 461.632812 178.984375 458.183594 178.984375 453.929688 C 178.984375 449.675781 182.433594 446.226562 186.6875 446.226562 C 190.941406 446.226562 194.386719 449.675781 194.386719 453.929688 "/>
<path style=" stroke:none;fill-rule:nonzero;fill:rgb(100%,84.3%,0%);fill-opacity:1;" d="M 148.179688 453.929688 C 148.179688 458.183594 144.730469 461.632812 140.476562 461.632812 C 136.222656 461.632812 132.777344 458.183594 132.777344 453.929688 C 132.777344 449.675781 136.222656 446.226562 140.476562 446.226562 C 144.730469 446.226562 148.179688 449.675781 148.179688 453.929688 "/>
<path style=" stroke:none;fill-rule:nonzero;fill:rgb(100%,84.3%,0%);fill-opacity:1;" d="M 426.972656 190.535156 C 426.972656 194.789062 423.527344 198.238281 419.273438 198.238281 C 415.019531 198.238281 411.570312 194.789062 411.570312 190.535156 C 411.570312 186.285156 415.019531 182.835938 419.273438 182.835938 C 423.527344 182.835938 426.972656 186.285156 426.972656 190.535156 "/>
<path style=" stroke:none;fill-rule:nonzero;fill:rgb(100%,84.3%,0%);fill-opacity:1;" d="M 100.429688 252.148438 C 100.429688 256.402344 96.980469 259.851562 92.726562 259.851562 C 88.472656 259.851562 85.027344 256.402344 85.027344 252.148438 C 85.027344 247.894531 88.472656 244.449219 92.726562 244.449219 C 96.980469 244.449219 100.429688 247.894531 100.429688 252.148438 "/>
<path style=" stroke:none;fill-rule:nonzero;fill:rgb(100%,84.3%,0%);fill-opacity:1;" d="M 225.195312 453.929688 C 225.195312 458.183594 221.746094 461.632812 217.492188 461.632812 C 213.238281 461.632812 209.789062 458.183594 209.789062 453.929688 C 209.789062 449.675781 213.238281 446.226562 217.492188 446.226562 C 221.746094 446.226562 225.195312 449.675781 225.195312 453.929688 "/>
<path style=" stroke:none;fill-rule:nonzero;fill:rgb(100%,84.3%,0%);fill-opacity:1;" d="M 113.785156 398.480469 C 113.785156 402.734375 110.335938 406.179688 106.082031 406.179688 C 101.828125 406.179688 98.378906 402.734375 98.378906 398.480469 C 98.378906 394.226562 101.828125 390.777344 106.082031 390.777344 C 110.335938 390.777344 113.785156 394.226562 113.785156 398.480469 "/>
<path style=" stroke:none;fill-rule:nonzero;fill:rgb(100%,84.3%,0%);fill-opacity:1;" d="M 113.785156 121.222656 C 113.785156 125.476562 110.335938 128.925781 106.082031 128.925781 C 101.828125 128.925781 98.378906 125.476562 98.378906 121.222656 C 98.378906 116.96875 101.828125 113.519531 106.082031 113.519531 C 110.335938 113.519531 113.785156 116.96875 113.785156 121.222656 "/>
<path style=" stroke:none;fill-rule:nonzero;fill:rgb(100%,84.3%,0%);fill-opacity:1;" d="M 194.386719 58.070312 C 194.386719 62.324219 190.941406 65.773438 186.6875 65.773438 C 182.433594 65.773438 178.984375 62.324219 178.984375 58.070312 C 178.984375 53.816406 182.433594 50.367188 186.6875 50.367188 C 190.941406 50.367188 194.386719 53.816406 194.386719 58.070312 "/>
<path style=" stroke:none;fill-rule:nonzero;fill:rgb(100%,84.3%,0%);fill-opacity:1;" d="M 426.972656 436.988281 C 426.972656 441.242188 423.527344 444.6875 419.273438 444.6875 C 415.019531 444.6875 411.570312 441.242188 411.570312 436.988281 C 411.570312 432.734375 415.019531 429.285156 419.273438 429.285156 C 423.527344 429.285156 426.972656 432.734375 426.972656 436.988281 "/>
<path style=" stroke:none;fill-rule:nonzero;fill:rgb(100%,84.3%,0%);fill-opacity:1;" d="M 232.894531 71.425781 C 232.894531 75.679688 229.449219 79.125 225.195312 79.125 C 220.941406 79.125 217.492188 75.679688 217.492188 71.425781 C 217.492188 67.171875 220.941406 63.722656 225.195312 63.722656 C 229.449219 63.722656 232.894531 67.171875 232.894531 71.425781 "/>
<path style=" stroke:none;fill-rule:nonzero;fill:rgb(100%,84.3%,0%);fill-opacity:1;" d="M 413.621094 90.414062 C 413.621094 94.667969 410.171875 98.117188 405.917969 98.117188 C 401.664062 98.117188 398.214844 94.667969 398.214844 90.414062 C 398.214844 86.164062 401.664062 82.714844 405.917969 82.714844 C 410.171875 82.714844 413.621094 86.164062 413.621094 90.414062 "/>
<path style=" stroke:none;fill-rule:nonzero;fill:rgb(100%,84.3%,0%);fill-opacity:1;" d="M 286.804688 58.070312 C 286.804688 62.324219 283.359375 65.773438 279.105469 65.773438 C 274.851562 65.773438 271.402344 62.324219 271.402344 58.070312 C 271.402344 53.816406 274.851562 50.367188 279.105469 50.367188 C 283.359375 50.367188 286.804688 53.816406 286.804688 58.070312 "/>
<path style=" stroke:none;fill-rule:nonzero;fill:rgb(100%,84.3%,0%);fill-opacity:1;" d="M 140.476562 440.574219 C 140.476562 444.828125 137.027344 448.277344 132.773438 448.277344 C 128.523438 448.277344 125.074219 444.828125 125.074219 440.574219 C 125.074219 436.320312 128.523438 432.875 132.773438 432.875 C 137.027344 432.875 140.476562 436.320312 140.476562 440.574219 "/>
<path style=" stroke:none;fill-rule:nonzero;fill:rgb(100%,84.3%,0%);fill-opacity:1;" d="M 294.507812 440.574219 C 294.507812 444.828125 291.058594 448.277344 286.804688 448.277344 C 282.550781 448.277344 279.105469 444.828125 279.105469 440.574219 C 279.105469 436.320312 282.550781 432.875 286.804688 432.875 C 291.058594 432.875 294.507812 436.320312 294.507812 440.574219 "/>
<path style=" stroke:none;fill-rule:nonzero;fill:rgb(100%,84.3%,0%);fill-opacity:1;" d="M 100.429688 359.972656 C 100.429688 364.222656 96.980469 367.671875 92.726562 367.671875 C 88.472656 367.671875 85.027344 364.222656 85.027344 359.972656 C 85.027344 355.71875 88.472656 352.269531 92.726562 352.269531 C 96.980469 352.269531 100.429688 355.71875 100.429688 359.972656 "/>
<path style=" stroke:none;fill-rule:nonzero;fill:rgb(100%,84.3%,0%);fill-opacity:1;" d="M 113.785156 429.285156 C 113.785156 433.539062 110.335938 436.988281 106.082031 436.988281 C 101.828125 436.988281 98.378906 433.539062 98.378906 429.285156 C 98.378906 425.03125 101.828125 421.582031 106.082031 421.582031 C 110.335938 421.582031 113.785156 425.03125 113.785156 429.285156 "/>
<path style=" stroke:none;fill-rule:nonzero;fill:rgb(100%,84.3%,0%);fill-opacity:1;" d="M 186.6875 71.425781 C 186.6875 75.679688 183.238281 79.125 178.984375 79.125 C 174.730469 79.125 171.28125 75.679688 171.28125 71.425781 C 171.28125 67.171875 174.730469 63.722656 178.984375 63.722656 C 183.238281 63.722656 186.6875 67.171875 186.6875 71.425781 "/>
<path style=" stroke:none;fill-rule:nonzero;fill:rgb(100%,84.3%,0%);fill-opacity:1;" d="M 394.628906 453.929688 C 394.628906 458.183594 391.179688 461.632812 386.925781 461.632812 C 382.671875 461.632812 379.226562 458.183594 379.226562 453.929688 C 379.226562 449.675781 382.671875 446.226562 386.925781 446.226562 C 391.179688 446.226562 394.628906 449.675781 394.628906 453.929688 "/>
<path style=" stroke:none;fill-rule:nonzero;fill:rgb(100%,84.3%,0%);fill-opacity:1;" d="M 100.429688 298.359375 C 100.429688 302.613281 96.980469 306.0625 92.726562 306.0625 C 88.472656 306.0625 85.027344 302.613281 85.027344 298.359375 C 85.027344 294.105469 88.472656 290.65625 92.726562 290.65625 C 96.980469 290.65625 100.429688 294.105469 100.429688 298.359375 "/>
<path style=" stroke:none;fill-rule:nonzero;fill:rgb(100%,84.3%,0%);fill-opacity:1;" d="M 426.972656 298.359375 C 426.972656 302.613281 423.527344 306.0625 419.273438 306.0625 C 415.019531 306.0625 411.570312 302.613281 411.570312 298.359375 C 411.570312 294.105469 415.019531 290.65625 419.273438 290.65625 C 423.527344 290.65625 426.972656 294.105469 426.972656 298.359375 "/>
<path style=" stroke:none;fill-rule:nonzero;fill:rgb(100%,84.3%,0%);fill-opacity:1;" d="M 394.628906 84.78125 C 394.628906 89.035156 391.179688 92.480469 386.925781 92.480469 C 382.671875 92.480469 379.226562 89.035156 379.226562 84.78125 C 379.226562 80.527344 382.671875 77.078125 386.925781 77.078125 C 391.179688 77.078125 394.628906 80.527344 394.628906 84.78125 "/>
<path style=" stroke:none;fill-rule:nonzero;fill:rgb(100%,84.3%,0%);fill-opacity:1;" d="M 100.429688 144.328125 C 100.429688 148.582031 96.980469 152.027344 92.726562 152.027344 C 88.472656 152.027344 85.027344 148.582031 85.027344 144.328125 C 85.027344 140.074219 88.472656 136.625 92.726562 136.625 C 96.980469 136.625 100.429688 140.074219 100.429688 144.328125 "/>
<path style=" stroke:none;fill-rule:nonzero;fill:rgb(100%,84.3%,0%);fill-opacity:1;" d="M 125.074219 440.574219 C 125.074219 444.828125 121.625 448.277344 117.371094 448.277344 C 113.117188 448.277344 109.671875 444.828125 109.671875 440.574219 C 109.671875 436.320312 113.117188 432.875 117.371094 432.875 C 121.625 432.875 125.074219 436.320312 125.074219 440.574219 "/>
<path style=" stroke:none;fill-rule:nonzero;fill:rgb(100%,84.3%,0%);fill-opacity:1;" d="M 379.222656 453.929688 C 379.222656 458.183594 375.777344 461.632812 371.523438 461.632812 C 367.269531 461.632812 363.820312 458.183594 363.820312 453.929688 C 363.820312 449.675781 367.269531 446.226562 371.523438 446.226562 C 375.777344 446.226562 379.222656 449.675781 379.222656 453.929688 "/>
<path style=" stroke:none;fill-rule:nonzero;fill:rgb(100%,84.3%,0%);fill-opacity:1;" d="M 333.015625 453.929688 C 333.015625 458.183594 329.566406 461.632812 325.3125 461.632812 C 321.058594 461.632812 317.613281 458.183594 317.613281 453.929688 C 317.613281 449.675781 321.058594 446.226562 325.3125 446.226562 C 329.566406 446.226562 333.015625 449.675781 333.015625 453.929688 "/>
<path style=" stroke:none;fill-rule:nonzero;fill:rgb(100%,84.3%,0%);fill-opacity:1;" d="M 113.785156 321.464844 C 113.785156 325.714844 110.335938 329.164062 106.082031 329.164062 C 101.828125 329.164062 98.378906 325.714844 98.378906 321.464844 C 98.378906 317.210938 101.828125 313.761719 106.082031 313.761719 C 110.335938 313.761719 113.785156 317.210938 113.785156 321.464844 "/>
<path style=" stroke:none;fill-rule:nonzero;fill:rgb(100%,84.3%,0%);fill-opacity:1;" d="M 202.089844 440.574219 C 202.089844 444.828125 198.640625 448.277344 194.386719 448.277344 C 190.132812 448.277344 186.683594 444.828125 186.683594 440.574219 C 186.683594 436.320312 190.132812 432.875 194.386719 432.875 C 198.640625 432.875 202.089844 436.320312 202.089844 440.574219 "/>
<path style=" stroke:none;fill-rule:nonzero;fill:rgb(100%,84.3%,0%);fill-opacity:1;" d="M 317.613281 58.070312 C 317.613281 62.324219 314.164062 65.773438 309.910156 65.773438 C 305.65625 65.773438 302.210938 62.324219 302.210938 58.070312 C 302.210938 53.816406 305.65625 50.367188 309.910156 50.367188 C 314.164062 50.367188 317.613281 53.816406 317.613281 58.070312 "/>
<path style=" stroke:none;fill-rule:nonzero;fill:rgb(100%,84.3%,0%);fill-opacity:1;" d="M 148.179688 58.070312 C 148.179688 62.324219 144.730469 65.773438 140.476562 65.773438 C 136.222656 65.773438 132.777344 62.324219 132.777344 58.070312 C 132.777344 53.816406 136.222656 50.367188 140.476562 50.367188 C 144.730469 50.367188 148.179688 53.816406 148.179688 58.070312 "/>
<path style=" stroke:none;fill-rule:nonzero;fill:rgb(100%,84.3%,0%);fill-opacity:1;" d="M 100.429688 98.117188 C 100.429688 102.371094 96.980469 105.820312 92.726562 105.820312 C 88.472656 105.820312 85.027344 102.371094 85.027344 98.117188 C 85.027344 93.863281 88.472656 90.417969 92.726562 90.417969 C 96.980469 90.417969 100.429688 93.863281 100.429688 98.117188 "/>
<path style=" stroke:none;fill-rule:nonzero;fill:rgb(100%,84.3%,0%);fill-opacity:1;" d="M 426.972656 252.148438 C 426.972656 256.402344 423.527344 259.851562 419.273438 259.851562 C 415.019531 259.851562 411.570312 256.402344 411.570312 252.148438 C 411.570312 247.894531 415.019531 244.449219 419.273438 244.449219 C 423.527344 244.449219 426.972656 247.894531 426.972656 252.148438 "/>
<path style=" stroke:none;fill-rule:nonzero;fill:rgb(100%,84.3%,0%);fill-opacity:1;" d="M 209.789062 58.070312 C 209.789062 62.324219 206.34375 65.773438 202.089844 65.773438 C 197.835938 65.773438 194.386719 62.324219 194.386719 58.070312 C 194.386719 53.816406 197.835938 50.367188 202.089844 50.367188 C 206.34375 50.367188 209.789062 53.816406 209.789062 58.070312 "/>
<path style=" stroke:none;fill-rule:nonzero;fill:rgb(100%,84.3%,0%);fill-opacity:1;" d="M 426.972656 58.070312 C 426.972656 62.324219 423.527344 65.773438 419.273438 65.773438 C 415.019531 65.773438 411.570312 62.324219 411.570312 58.070312 C 411.570312 53.816406 415.019531 50.367188 419.273438 50.367188 C 423.527344 50.367188 426.972656 53.816406 426.972656 58.070312 "/>
<path style=" stroke:none;fill-rule:nonzero;fill:rgb(100%,84.3%,0%);fill-opacity:1;" d="M 100.429688 453.929688 C 100.429688 458.183594 96.980469 461.632812 92.726562 461.632812 C 88.472656 461.632812 85.027344 458.183594 85.027344 453.929688 C 85.027344 449.675781 88.472656 446.226562 92.726562 446.226562 C 96.980469 446.226562 100.429688 449.675781 100.429688 453.929688 "/>
<path style=" stroke:none;fill-rule:nonzero;fill:rgb(100%,84.3%,0%);fill-opacity:1;" d="M 100.429688 421.585938 C 100.429688 425.835938 96.980469 429.285156 92.726562 429.285156 C 88.472656 429.285156 85.027344 425.835938 85.027344 421.585938 C 85.027344 417.332031 88.472656 413.882812 92.726562 413.882812 C 96.980469 413.882812 100.429688 417.332031 100.429688 421.585938 "/>
<path style=" stroke:none;fill-rule:nonzero;fill:rgb(100%,84.3%,0%);fill-opacity:1;" d="M 286.804688 453.929688 C 286.804688 458.183594 283.359375 461.632812 279.105469 461.632812 C 274.851562 461.632812 271.402344 458.183594 271.402344 453.929688 C 271.402344 449.675781 274.851562 446.226562 279.105469 446.226562 C 283.359375 446.226562 286.804688 449.675781 286.804688 453.929688 "/>
<path style=" stroke:none;fill-rule:nonzero;fill:rgb(100%,84.3%,0%);fill-opacity:1;" d="M 426.972656 390.777344 C 426.972656 395.03125 423.527344 398.480469 419.273438 398.480469 C 415.019531 398.480469 411.570312 395.03125 411.570312 390.777344 C 411.570312 386.523438 415.019531 383.074219 419.273438 383.074219 C 423.527344 383.074219 426.972656 386.523438 426.972656 390.777344 "/>
<path style=" stroke:none;fill-rule:nonzero;fill:rgb(100%,84.3%,0%);fill-opacity:1;" d="M 302.210938 453.929688 C 302.210938 458.183594 298.761719 461.632812 294.507812 461.632812 C 290.253906 461.632812 286.804688 458.183594 286.804688 453.929688 C 286.804688 449.675781 290.253906 446.226562 294.507812 446.226562 C 298.761719 446.226562 302.210938 449.675781 302.210938 453.929688 "/>
<path style=" stroke:none;fill-rule:nonzero;fill:rgb(100%,84.3%,0%);fill-opacity:1;" d="M 317.613281 453.929688 C 317.613281 458.183594 314.164062 461.632812 309.910156 461.632812 C 305.65625 461.632812 302.210938 458.183594 302.210938 453.929688 C 302.210938 449.675781 305.65625 446.226562 309.910156 446.226562 C 314.164062 446.226562 317.613281 449.675781 317.613281 453.929688 "/>
<path style=" stroke:none;fill-rule:nonzero;fill:rgb(100%,84.3%,0%);fill-opacity:1;" d="M 379.222656 58.070312 C 379.222656 62.324219 375.777344 65.773438 371.523438 65.773438 C 367.269531 65.773438 363.820312 62.324219 363.820312 58.070312 C 363.820312 53.816406 367.269531 50.367188 371.523438 50.367188 C 375.777344 50.367188 379.222656 53.816406 379.222656 58.070312 "/>
<path style=" stroke:none;fill-rule:nonzero;fill:rgb(100%,84.3%,0%);fill-opacity:1;" d="M 100.429688 190.535156 C 100.429688 194.789062 96.980469 198.238281 92.726562 198.238281 C 88.472656 198.238281 85.027344 194.789062 85.027344 190.535156 C 85.027344 186.285156 88.472656 182.835938 92.726562 182.835938 C 96.980469 182.835938 100.429688 186.285156 100.429688 190.535156 "/>
<path style=" stroke:none;fill-rule:nonzero;fill:rgb(100%,84.3%,0%);fill-opacity:1;" d="M 386.925781 440.574219 C 386.925781 444.828125 383.476562 448.277344 379.226562 448.277344 C 374.972656 448.277344 371.523438 444.828125 371.523438 440.574219 C 371.523438 436.320312 374.972656 432.875 379.226562 432.875 C 383.476562 432.875 386.925781 436.320312 386.925781 440.574219 "/>
<path style=" stroke:none;fill-rule:nonzero;fill:rgb(100%,84.3%,0%);fill-opacity:1;" d="M 100.429688 159.730469 C 100.429688 163.984375 96.980469 167.429688 92.726562 167.429688 C 88.472656 167.429688 85.027344 163.984375 85.027344 159.730469 C 85.027344 155.476562 88.472656 152.027344 92.726562 152.027344 C 96.980469 152.027344 100.429688 155.476562 100.429688 159.730469 "/>
<path style=" stroke:none;fill-rule:nonzero;fill:rgb(100%,84.3%,0%);fill-opacity:1;" d="M 394.628906 58.070312 C 394.628906 62.324219 391.179688 65.773438 386.925781 65.773438 C 382.671875 65.773438 379.226562 62.324219 379.226562 58.070312 C 379.226562 53.816406 382.671875 50.367188 386.925781 50.367188 C 391.179688 50.367188 394.628906 53.816406 394.628906 58.070312 "/>
<path style=" stroke:none;fill-rule:nonzero;fill:rgb(100%,84.3%,0%);fill-opacity:1;" d="M 426.972656 144.328125 C 426.972656 148.582031 423.527344 152.027344 419.273438 152.027344 C 415.019531 152.027344 411.570312 148.582031 411.570312 144.328125 C 411.570312 140.074219 415.019531 136.625 419.273438 136.625 C 423.527344 136.625 426.972656 140.074219 426.972656 144.328125 "/>
<path style=" stroke:none;fill-rule:nonzero;fill:rgb(100%,84.3%,0%);fill-opacity:1;" d="M 232.894531 440.574219 C 232.894531 444.828125 229.449219 448.277344 225.195312 448.277344 C 220.941406 448.277344 217.492188 444.828125 217.492188 440.574219 C 217.492188 436.320312 220.941406 432.875 225.195312 432.875 C 229.449219 432.875 232.894531 436.320312 232.894531 440.574219 "/>
<path style=" stroke:none;fill-rule:nonzero;fill:rgb(100%,84.3%,0%);fill-opacity:1;" d="M 113.785156 383.074219 C 113.785156 387.328125 110.335938 390.777344 106.082031 390.777344 C 101.828125 390.777344 98.378906 387.328125 98.378906 383.074219 C 98.378906 378.824219 101.828125 375.375 106.082031 375.375 C 110.335938 375.375 113.785156 378.824219 113.785156 383.074219 "/>
<path style=" stroke:none;fill-rule:nonzero;fill:rgb(100%,84.3%,0%);fill-opacity:1;" d="M 340.71875 440.574219 C 340.71875 444.828125 337.269531 448.277344 333.015625 448.277344 C 328.761719 448.277344 325.3125 444.828125 325.3125 440.574219 C 325.3125 436.320312 328.761719 432.875 333.015625 432.875 C 337.269531 432.875 340.71875 436.320312 340.71875 440.574219 "/>
<path style=" stroke:none;fill-rule:nonzero;fill:rgb(100%,84.3%,0%);fill-opacity:1;" d="M 163.582031 58.070312 C 163.582031 62.324219 160.132812 65.773438 155.878906 65.773438 C 151.625 65.773438 148.179688 62.324219 148.179688 58.070312 C 148.179688 53.816406 151.625 50.367188 155.878906 50.367188 C 160.132812 50.367188 163.582031 53.816406 163.582031 58.070312 "/>
<path style=" stroke:none;fill-rule:nonzero;fill:rgb(100%,84.3%,0%);fill-opacity:1;" d="M 426.972656 221.34375 C 426.972656 225.597656 423.527344 229.042969 419.273438 229.042969 C 415.019531 229.042969 411.570312 225.597656 411.570312 221.34375 C 411.570312 217.089844 415.019531 213.640625 419.273438 213.640625 C 423.527344 213.640625 426.972656 217.089844 426.972656 221.34375 "/>
<path style=" stroke:none;fill-rule:nonzero;fill:rgb(100%,84.3%,0%);fill-opacity:1;" d="M 140.476562 71.425781 C 140.476562 75.679688 137.027344 79.125 132.773438 79.125 C 128.523438 79.125 125.074219 75.679688 125.074219 71.425781 C 125.074219 67.171875 128.523438 63.722656 132.773438 63.722656 C 137.027344 63.722656 140.476562 67.171875 140.476562 71.425781 "/>
<path style=" stroke:none;fill-rule:nonzero;fill:rgb(100%,84.3%,0%);fill-opacity:1;" d="M 100.429688 390.777344 C 100.429688 395.03125 96.980469 398.480469 92.726562 398.480469 C 88.472656 398.480469 85.027344 395.03125 85.027344 390.777344 C 85.027344 386.523438 88.472656 383.074219 92.726562 383.074219 C 96.980469 383.074219 100.429688 386.523438 100.429688 390.777344 "/>
<path style=" stroke:none;fill-rule:nonzero;fill:rgb(100%,84.3%,0%);fill-opacity:1;" d="M 248.296875 440.574219 C 248.296875 444.828125 244.851562 448.277344 240.597656 448.277344 C 236.34375 448.277344 232.894531 444.828125 232.894531 440.574219 C 232.894531 436.320312 236.34375 432.875 240.597656 432.875 C 244.851562 432.875 248.296875 436.320312 248.296875 440.574219 "/>
<path style=" stroke:none;fill-rule:nonzero;fill:rgb(100%,84.3%,0%);fill-opacity:1;" d="M 217.492188 71.425781 C 217.492188 75.679688 214.042969 79.125 209.789062 79.125 C 205.539062 79.125 202.089844 75.679688 202.089844 71.425781 C 202.089844 67.171875 205.539062 63.722656 209.789062 63.722656 C 214.042969 63.722656 217.492188 67.171875 217.492188 71.425781 "/>
<path style=" stroke:none;fill-rule:nonzero;fill:rgb(100%,84.3%,0%);fill-opacity:1;" d="M 117.371094 453.929688 C 117.371094 458.183594 113.921875 461.632812 109.671875 461.632812 C 105.417969 461.632812 101.96875 458.183594 101.96875 453.929688 C 101.96875 449.675781 105.417969 446.226562 109.671875 446.226562 C 113.921875 446.226562 117.371094 449.675781 117.371094 453.929688 "/>
<path style=" stroke:none;fill-rule:nonzero;fill:rgb(100%,84.3%,0%);fill-opacity:1;" d="M 426.972656 282.953125 C 426.972656 287.207031 423.527344 290.65625 419.273438 290.65625 C 415.019531 290.65625 411.570312 287.207031 411.570312 282.953125 C 411.570312 278.703125 415.019531 275.253906 419.273438 275.253906 C 423.527344 275.253906 426.972656 278.703125 426.972656 282.953125 "/>
<path style=" stroke:none;fill-rule:nonzero;fill:rgb(100%,84.3%,0%);fill-opacity:1;" d="M 171.28125 71.425781 C 171.28125 75.679688 167.835938 79.125 163.582031 79.125 C 159.328125 79.125 155.878906 75.679688 155.878906 71.425781 C 155.878906 67.171875 159.328125 63.722656 163.582031 63.722656 C 167.835938 63.722656 171.28125 67.171875 171.28125 71.425781 "/>
<path style=" stroke:none;fill-rule:nonzero;fill:rgb(100%,84.3%,0%);fill-opacity:1;" d="M 132.773438 58.070312 C 132.773438 62.324219 129.328125 65.773438 125.074219 65.773438 C 120.820312 65.773438 117.371094 62.324219 117.371094 58.070312 C 117.371094 53.816406 120.820312 50.367188 125.074219 50.367188 C 129.328125 50.367188 132.773438 53.816406 132.773438 58.070312 "/>
<path style=" stroke:none;fill-rule:nonzero;fill:rgb(100%,84.3%,0%);fill-opacity:1;" d="M 426.972656 159.730469 C 426.972656 163.984375 423.527344 167.429688 419.273438 167.429688 C 415.019531 167.429688 411.570312 163.984375 411.570312 159.730469 C 411.570312 155.476562 415.019531 152.027344 419.273438 152.027344 C 423.527344 152.027344 426.972656 155.476562 426.972656 159.730469 "/>
<path style=" stroke:none;fill-rule:nonzero;fill:rgb(100%,84.3%,0%);fill-opacity:1;" d="M 348.417969 453.929688 C 348.417969 458.183594 344.96875 461.632812 340.71875 461.632812 C 336.464844 461.632812 333.015625 458.183594 333.015625 453.929688 C 333.015625 449.675781 336.464844 446.226562 340.71875 446.226562 C 344.96875 446.226562 348.417969 449.675781 348.417969 453.929688 "/>
<path style=" stroke:none;fill-rule:nonzero;fill:rgb(100%,84.3%,0%);fill-opacity:1;" d="M 100.429688 236.746094 C 100.429688 241 96.980469 244.449219 92.726562 244.449219 C 88.472656 244.449219 85.027344 241 85.027344 236.746094 C 85.027344 232.492188 88.472656 229.042969 92.726562 229.042969 C 96.980469 229.042969 100.429688 232.492188 100.429688 236.746094 "/>
<path style=" stroke:none;fill-rule:nonzero;fill:rgb(100%,84.3%,0%);fill-opacity:1;" d="M 356.121094 71.425781 C 356.121094 75.679688 352.671875 79.125 348.417969 79.125 C 344.164062 79.125 340.71875 75.679688 340.71875 71.425781 C 340.71875 67.171875 344.164062 63.722656 348.417969 63.722656 C 352.671875 63.722656 356.121094 67.171875 356.121094 71.425781 "/>
<path style=" stroke:none;fill-rule:nonzero;fill:rgb(100%,84.3%,0%);fill-opacity:1;" d="M 100.429688 221.34375 C 100.429688 225.597656 96.980469 229.042969 92.726562 229.042969 C 88.472656 229.042969 85.027344 225.597656 85.027344 221.34375 C 85.027344 217.089844 88.472656 213.640625 92.726562 213.640625 C 96.980469 213.640625 100.429688 217.089844 100.429688 221.34375 "/>
<path style=" stroke:none;fill-rule:nonzero;fill:rgb(100%,84.3%,0%);fill-opacity:1;" d="M 100.429688 406.179688 C 100.429688 410.433594 96.980469 413.882812 92.726562 413.882812 C 88.472656 413.882812 85.027344 410.433594 85.027344 406.179688 C 85.027344 401.925781 88.472656 398.480469 92.726562 398.480469 C 96.980469 398.480469 100.429688 401.925781 100.429688 406.179688 "/>
<path style=" stroke:none;fill-rule:nonzero;fill:rgb(100%,84.3%,0%);fill-opacity:1;" d="M 426.972656 421.585938 C 426.972656 425.835938 423.527344 429.285156 419.273438 429.285156 C 415.019531 429.285156 411.570312 425.835938 411.570312 421.585938 C 411.570312 417.332031 415.019531 413.882812 419.273438 413.882812 C 423.527344 413.882812 426.972656 417.332031 426.972656 421.585938 "/>
<path style=" stroke:none;fill-rule:nonzero;fill:rgb(100%,84.3%,0%);fill-opacity:1;" d="M 100.429688 313.761719 C 100.429688 318.015625 96.980469 321.464844 92.726562 321.464844 C 88.472656 321.464844 85.027344 318.015625 85.027344 313.761719 C 85.027344 309.507812 88.472656 306.058594 92.726562 306.058594 C 96.980469 306.058594 100.429688 309.507812 100.429688 313.761719 "/>
<path style=" stroke:none;fill-rule:nonzero;fill:rgb(100%,84.3%,0%);fill-opacity:1;" d="M 263.703125 71.425781 C 263.703125 75.679688 260.253906 79.125 256 79.125 C 251.746094 79.125 248.296875 75.679688 248.296875 71.425781 C 248.296875 67.171875 251.746094 63.722656 256 63.722656 C 260.253906 63.722656 263.703125 67.171875 263.703125 71.425781 "/>
<path style=" stroke:none;fill-rule:nonzero;fill:rgb(100%,84.3%,0%);fill-opacity:1;" d="M 279.105469 71.425781 C 279.105469 75.679688 275.65625 79.125 271.402344 79.125 C 267.148438 79.125 263.703125 75.679688 263.703125 71.425781 C 263.703125 67.171875 267.148438 63.722656 271.402344 63.722656 C 275.65625 63.722656 279.105469 67.171875 279.105469 71.425781 "/>
<path style=" stroke:none;fill-rule:nonzero;fill:rgb(100%,84.3%,0%);fill-opacity:1;" d="M 294.507812 71.425781 C 294.507812 75.679688 291.058594 79.125 286.804688 79.125 C 282.550781 79.125 279.105469 75.679688 279.105469 71.425781 C 279.105469 67.171875 282.550781 63.722656 286.804688 63.722656 C 291.058594 63.722656 294.507812 67.171875 294.507812 71.425781 "/>
<path style=" stroke:none;fill-rule:nonzero;fill:rgb(100%,84.3%,0%);fill-opacity:1;" d="M 309.910156 71.425781 C 309.910156 75.679688 306.460938 79.125 302.210938 79.125 C 297.957031 79.125 294.507812 75.679688 294.507812 71.425781 C 294.507812 67.171875 297.957031 63.722656 302.210938 63.722656 C 306.460938 63.722656 309.910156 67.171875 309.910156 71.425781 "/>
<path style=" stroke:none;fill-rule:nonzero;fill:rgb(100%,84.3%,0%);fill-opacity:1;" d="M 340.71875 71.425781 C 340.71875 75.679688 337.269531 79.125 333.015625 79.125 C 328.761719 79.125 325.3125 75.679688 325.3125 71.425781 C 325.3125 67.171875 328.761719 63.722656 333.015625 63.722656 C 337.269531 63.722656 340.71875 67.171875 340.71875 71.425781 "/>
<path style=" stroke:none;fill-rule:nonzero;fill:rgb(100%,84.3%,0%);fill-opacity:1;" d="M 125.074219 71.425781 C 125.074219 75.679688 121.625 79.125 117.371094 79.125 C 113.117188 79.125 109.671875 75.679688 109.671875 71.425781 C 109.671875 67.171875 113.117188 63.722656 117.371094 63.722656 C 121.625 63.722656 125.074219 67.171875 125.074219 71.425781 "/>
<path style=" stroke:none;fill-rule:nonzero;fill:rgb(100%,84.3%,0%);fill-opacity:1;" d="M 386.925781 71.425781 C 386.925781 75.679688 383.476562 79.125 379.226562 79.125 C 374.972656 79.125 371.523438 75.679688 371.523438 71.425781 C 371.523438 67.171875 374.972656 63.722656 379.226562 63.722656 C 383.476562 63.722656 386.925781 67.171875 386.925781 71.425781 "/>
<path style=" stroke:none;fill-rule:nonzero;fill:rgb(100%,84.3%,0%);fill-opacity:1;" d="M 256 58.070312 C 256 62.324219 252.550781 65.773438 248.296875 65.773438 C 244.042969 65.773438 240.597656 62.324219 240.597656 58.070312 C 240.597656 53.816406 244.042969 50.367188 248.296875 50.367188 C 252.550781 50.367188 256 53.816406 256 58.070312 "/>
<path style=" stroke:none;fill-rule:nonzero;fill:rgb(100%,84.3%,0%);fill-opacity:1;" d="M 413.621094 352.269531 C 413.621094 356.523438 410.171875 359.972656 405.917969 359.972656 C 401.664062 359.972656 398.214844 356.523438 398.214844 352.269531 C 398.214844 348.015625 401.664062 344.570312 405.917969 344.570312 C 410.171875 344.570312 413.621094 348.015625 413.621094 352.269531 "/>
<path style=" stroke:none;fill-rule:nonzero;fill:rgb(100%,84.3%,0%);fill-opacity:1;" d="M 100.429688 267.550781 C 100.429688 271.804688 96.980469 275.253906 92.726562 275.253906 C 88.472656 275.253906 85.027344 271.804688 85.027344 267.550781 C 85.027344 263.296875 88.472656 259.851562 92.726562 259.851562 C 96.980469 259.851562 100.429688 263.296875 100.429688 267.550781 "/>
<path style=" stroke:none;fill-rule:nonzero;fill:rgb(100%,84.3%,0%);fill-opacity:1;" d="M 426.972656 406.179688 C 426.972656 410.433594 423.527344 413.882812 419.273438 413.882812 C 415.019531 413.882812 411.570312 410.433594 411.570312 406.179688 C 411.570312 401.925781 415.019531 398.480469 419.273438 398.480469 C 423.527344 398.480469 426.972656 401.925781 426.972656 406.179688 "/>
<path style=" stroke:none;fill-rule:nonzero;fill:rgb(100%,84.3%,0%);fill-opacity:1;" d="M 113.785156 367.671875 C 113.785156 371.925781 110.335938 375.375 106.082031 375.375 C 101.828125 375.375 98.378906 371.925781 98.378906 367.671875 C 98.378906 363.417969 101.828125 359.972656 106.082031 359.972656 C 110.335938 359.972656 113.785156 363.417969 113.785156 367.671875 "/>
</g>
</svg>
