<?xml version="1.0" encoding="UTF-8"?>
<svg xmlns="http://www.w3.org/2000/svg" xmlns:xlink="http://www.w3.org/1999/xlink" width="512pt" height="512pt" viewBox="0 0 512 512" version="1.1">
<g id="surface61">
<rect x="0" y="0" width="512" height="512" style="fill:rgb(26.7%,26.7%,26.7%);fill-opacity:1;stroke:none;"/>
<path style=" stroke:none;fill-rule:nonzero;fill:rgb(19.2%,38.8%,66.7%);fill-opacity:1;" d="M 37.03125 42.667969 L 407.347656 42.667969 L 407.347656 469.332031 L 37.03125 469.332031 Z M 37.03125 42.667969 "/>
<path style=" stroke:none;fill-rule:nonzero;fill:rgb(100%,100%,100%);fill-opacity:1;" d="M 498.582031 340.527344 C 498.582031 344.234375 495.578125 347.238281 491.875 347.238281 C 488.167969 347.238281 485.164062 344.234375 485.164062 340.527344 C 485.164062 336.824219 488.167969 333.820312 491.875 333.820312 C 495.578125 333.820312 498.582031 336.824219 498.582031 340.527344 "/>
<path style=" stroke:none;fill-rule:nonzero;fill:rgb(100%,100%,100%);fill-opacity:1;" d="M 8.855469 239.898438 C 8.855469 243.605469 5.851562 246.609375 2.148438 246.609375 C -1.558594 246.609375 -4.5625 243.605469 -4.5625 239.898438 C -4.5625 236.195312 -1.558594 233.191406 2.148438 233.191406 C 5.851562 233.191406 8.855469 236.195312 8.855469 239.898438 "/>
<path style=" stroke:none;fill-rule:nonzero;fill:rgb(100%,100%,100%);fill-opacity:1;" d="M 485.164062 489.460938 C 485.164062 493.164062 482.160156 496.167969 478.457031 496.167969 C 474.75 496.167969 471.75 493.164062 471.75 489.460938 C 471.75 485.753906 474.75 482.75 478.457031 482.75 C 482.160156 482.75 485.164062 485.753906 485.164062 489.460938 "/>
<path style=" stroke:none;fill-rule:nonzero;fill:rgb(100%,100%,100%);fill-opacity:1;" d="M 108.144531 23.882812 C 108.144531 27.589844 105.140625 30.589844 101.433594 30.589844 C 97.730469 30.589844 94.726562 27.589844 94.726562 23.882812 C 94.726562 20.179688 97.730469 17.175781 101.433594 17.175781 C 105.140625 17.175781 108.144531 20.179688 108.144531 23.882812 "/>
<path style=" stroke:none;fill-rule:nonzero;fill:rgb(100%,100%,100%);fill-opacity:1;" d="M 109.484375 41.324219 C 109.484375 45.03125 106.480469 48.035156 102.777344 48.035156 C 99.070312 48.035156 96.066406 45.03125 96.066406 41.324219 C 96.066406 37.621094 99.070312 34.617188 102.777344 34.617188 C 106.480469 34.617188 109.484375 37.621094 109.484375 41.324219 "/>
<path style=" stroke:none;fill-rule:nonzero;fill:rgb(100%,100%,100%);fill-opacity:1;" d="M 495.898438 133.902344 C 495.898438 137.609375 492.894531 140.613281 489.191406 140.613281 C 485.484375 140.613281 482.480469 137.609375 482.480469 133.902344 C 482.480469 130.199219 485.484375 127.195312 489.191406 127.195312 C 492.894531 127.195312 495.898438 130.199219 495.898438 133.902344 "/>
<path style=" stroke:none;fill-rule:nonzero;fill:rgb(100%,100%,100%);fill-opacity:1;" d="M 388.5625 508.242188 C 388.5625 511.949219 385.558594 514.953125 381.851562 514.953125 C 378.148438 514.953125 375.144531 511.949219 375.144531 508.242188 C 375.144531 504.539062 378.148438 501.535156 381.851562 501.535156 C 385.558594 501.535156 388.5625 504.539062 388.5625 508.242188 "/>
<path style=" stroke:none;fill-rule:nonzero;fill:rgb(100%,100%,100%);fill-opacity:1;" d="M 483.824219 443.839844 C 483.824219 447.546875 480.820312 450.550781 477.113281 450.550781 C 473.410156 450.550781 470.40625 447.546875 470.40625 443.839844 C 470.40625 440.136719 473.410156 437.132812 477.113281 437.132812 C 480.820312 437.132812 483.824219 440.136719 483.824219 443.839844 "/>
<path style=" stroke:none;fill-rule:nonzero;fill:rgb(100%,100%,100%);fill-opacity:1;" d="M 38.375 459.941406 C 38.375 463.644531 35.371094 466.648438 31.664062 466.648438 C 27.960938 466.648438 24.957031 463.644531 24.957031 459.941406 C 24.957031 456.234375 27.960938 453.230469 31.664062 453.230469 C 35.371094 453.230469 38.375 456.234375 38.375 459.941406 "/>
<path style=" stroke:none;fill-rule:nonzero;fill:rgb(100%,100%,100%);fill-opacity:1;" d="M 501.265625 200.988281 C 501.265625 204.695312 498.261719 207.699219 494.558594 207.699219 C 490.851562 207.699219 487.847656 204.695312 487.847656 200.988281 C 487.847656 197.285156 490.851562 194.28125 494.558594 194.28125 C 498.261719 194.28125 501.265625 197.285156 501.265625 200.988281 "/>
<path style=" stroke:none;fill-rule:nonzero;fill:rgb(100%,100%,100%);fill-opacity:1;" d="M 55.816406 34.617188 C 55.816406 38.320312 52.8125 41.324219 49.105469 41.324219 C 45.402344 41.324219 42.398438 38.320312 42.398438 34.617188 C 42.398438 30.910156 45.402344 27.90625 49.105469 27.90625 C 52.8125 27.90625 55.816406 30.910156 55.816406 34.617188 "/>
<path style=" stroke:none;fill-rule:nonzero;fill:rgb(100%,100%,100%);fill-opacity:1;" d="M 167.179688 21.199219 C 167.179688 24.902344 164.175781 27.90625 160.46875 27.90625 C 156.765625 27.90625 153.761719 24.902344 153.761719 21.199219 C 153.761719 17.492188 156.765625 14.492188 160.46875 14.492188 C 164.175781 14.492188 167.179688 17.492188 167.179688 21.199219 "/>
<path style=" stroke:none;fill-rule:nonzero;fill:rgb(100%,100%,100%);fill-opacity:1;" d="M 479.796875 249.289062 C 479.796875 252.996094 476.796875 256 473.089844 256 C 469.386719 256 466.382812 252.996094 466.382812 249.289062 C 466.382812 245.585938 469.386719 242.582031 473.089844 242.582031 C 476.796875 242.582031 479.796875 245.585938 479.796875 249.289062 "/>
<path style=" stroke:none;fill-rule:nonzero;fill:rgb(100%,100%,100%);fill-opacity:1;" d="M 501.265625 294.910156 C 501.265625 298.613281 498.261719 301.617188 494.558594 301.617188 C 490.851562 301.617188 487.847656 298.613281 487.847656 294.910156 C 487.847656 291.203125 490.851562 288.203125 494.558594 288.203125 C 498.261719 288.203125 501.265625 291.203125 501.265625 294.910156 "/>
<path style=" stroke:none;fill-rule:nonzero;fill:rgb(100%,100%,100%);fill-opacity:1;" d="M 462.355469 345.894531 C 462.355469 349.601562 459.351562 352.605469 455.648438 352.605469 C 451.941406 352.605469 448.9375 349.601562 448.9375 345.894531 C 448.9375 342.191406 451.941406 339.1875 455.648438 339.1875 C 459.351562 339.1875 462.355469 342.191406 462.355469 345.894531 "/>
<path style=" stroke:none;fill-rule:nonzero;fill:rgb(100%,100%,100%);fill-opacity:1;" d="M 434.179688 18.515625 C 434.179688 22.222656 431.175781 25.222656 427.472656 25.222656 C 423.765625 25.222656 420.761719 22.222656 420.761719 18.515625 C 420.761719 14.8125 423.765625 11.808594 427.472656 11.808594 C 431.175781 11.808594 434.179688 14.8125 434.179688 18.515625 "/>
<path style=" stroke:none;fill-rule:nonzero;fill:rgb(100%,100%,100%);fill-opacity:1;" d="M 420.761719 332.476562 C 420.761719 336.183594 417.761719 339.1875 414.054688 339.1875 C 410.351562 339.1875 407.347656 336.183594 407.347656 332.476562 C 407.347656 328.773438 410.351562 325.769531 414.054688 325.769531 C 417.761719 325.769531 420.761719 328.773438 420.761719 332.476562 "/>
<path style=" stroke:none;fill-rule:nonzero;fill:rgb(100%,100%,100%);fill-opacity:1;" d="M 35.691406 73.527344 C 35.691406 77.230469 32.6875 80.234375 28.980469 80.234375 C 25.277344 80.234375 22.273438 77.230469 22.273438 73.527344 C 22.273438 69.820312 25.277344 66.816406 28.980469 66.816406 C 32.6875 66.816406 35.691406 69.820312 35.691406 73.527344 "/>
<path style=" stroke:none;fill-rule:nonzero;fill:rgb(100%,100%,100%);fill-opacity:1;" d="M 222.1875 6.441406 C 222.1875 10.144531 219.183594 13.148438 215.480469 13.148438 C 211.773438 13.148438 208.769531 10.144531 208.769531 6.441406 C 208.769531 2.734375 211.773438 -0.269531 215.480469 -0.269531 C 219.183594 -0.269531 222.1875 2.734375 222.1875 6.441406 "/>
<path style=" stroke:none;fill-rule:nonzero;fill:rgb(100%,100%,100%);fill-opacity:1;" d="M 423.445312 70.84375 C 423.445312 74.546875 420.441406 77.550781 416.738281 77.550781 C 413.03125 77.550781 410.03125 74.546875 410.03125 70.84375 C 410.03125 67.136719 413.03125 64.132812 416.738281 64.132812 C 420.441406 64.132812 423.445312 67.136719 423.445312 70.84375 "/>
<path style=" stroke:none;fill-rule:nonzero;fill:rgb(100%,100%,100%);fill-opacity:1;" d="M 462.355469 128.535156 C 462.355469 132.242188 459.351562 135.246094 455.648438 135.246094 C 451.941406 135.246094 448.9375 132.242188 448.9375 128.535156 C 448.9375 124.832031 451.941406 121.828125 455.648438 121.828125 C 459.351562 121.828125 462.355469 124.832031 462.355469 128.535156 "/>
<path style=" stroke:none;fill-rule:nonzero;fill:rgb(100%,100%,100%);fill-opacity:1;" d="M 481.140625 301.617188 C 481.140625 305.324219 478.136719 308.328125 474.433594 308.328125 C 470.726562 308.328125 467.722656 305.324219 467.722656 301.617188 C 467.722656 297.914062 470.726562 294.910156 474.433594 294.910156 C 478.136719 294.910156 481.140625 297.914062 481.140625 301.617188 "/>
<path style=" stroke:none;fill-rule:nonzero;fill:rgb(100%,100%,100%);fill-opacity:1;" d="M 66.550781 1.074219 C 66.550781 4.777344 63.546875 7.78125 59.839844 7.78125 C 56.136719 7.78125 53.132812 4.777344 53.132812 1.074219 C 53.132812 -2.632812 56.136719 -5.636719 59.839844 -5.636719 C 63.546875 -5.636719 66.550781 -2.632812 66.550781 1.074219 "/>
<path style=" stroke:none;fill-rule:nonzero;fill:rgb(100%,100%,100%);fill-opacity:1;" d="M 467.722656 215.746094 C 467.722656 219.453125 464.71875 222.457031 461.015625 222.457031 C 457.308594 222.457031 454.304688 219.453125 454.304688 215.746094 C 454.304688 212.042969 457.308594 209.039062 461.015625 209.039062 C 464.71875 209.039062 467.722656 212.042969 467.722656 215.746094 "/>
<path style=" stroke:none;fill-rule:nonzero;fill:rgb(100%,100%,100%);fill-opacity:1;" d="M 11.539062 219.773438 C 11.539062 223.480469 8.535156 226.484375 4.828125 226.484375 C 1.125 226.484375 -1.878906 223.480469 -1.878906 219.773438 C -1.878906 216.070312 1.125 213.066406 4.828125 213.066406 C 8.535156 213.066406 11.539062 216.070312 11.539062 219.773438 "/>
<path style=" stroke:none;fill-rule:nonzero;fill:rgb(100%,100%,100%);fill-opacity:1;" d="M 30.324219 143.296875 C 30.324219 147 27.320312 150.003906 23.613281 150.003906 C 19.910156 150.003906 16.90625 147 16.90625 143.296875 C 16.90625 139.589844 19.910156 136.585938 23.613281 136.585938 C 27.320312 136.585938 30.324219 139.589844 30.324219 143.296875 "/>
<path style=" stroke:none;fill-rule:nonzero;fill:rgb(100%,100%,100%);fill-opacity:1;" d="M 466.382812 44.007812 C 466.382812 47.714844 463.378906 50.714844 459.671875 50.714844 C 455.96875 50.714844 452.964844 47.714844 452.964844 44.007812 C 452.964844 40.304688 455.96875 37.300781 459.671875 37.300781 C 463.378906 37.300781 466.382812 40.304688 466.382812 44.007812 "/>
<path style=" stroke:none;fill-rule:nonzero;fill:rgb(100%,100%,100%);fill-opacity:1;" d="M 512 132.5625 C 512 136.265625 508.996094 139.269531 505.289062 139.269531 C 501.585938 139.269531 498.582031 136.265625 498.582031 132.5625 C 498.582031 128.855469 501.585938 125.851562 505.289062 125.851562 C 508.996094 125.851562 512 128.855469 512 132.5625 "/>
<path style=" stroke:none;fill-rule:nonzero;fill:rgb(100%,100%,100%);fill-opacity:1;" d="M 389.902344 501.535156 C 389.902344 505.238281 386.898438 508.242188 383.195312 508.242188 C 379.488281 508.242188 376.488281 505.238281 376.488281 501.535156 C 376.488281 497.828125 379.488281 494.828125 383.195312 494.828125 C 386.898438 494.828125 389.902344 497.828125 389.902344 501.535156 "/>
<path style=" stroke:none;fill-rule:nonzero;fill:rgb(100%,100%,100%);fill-opacity:1;" d="M 507.972656 431.765625 C 507.972656 435.46875 504.972656 438.472656 501.265625 438.472656 C 497.5625 438.472656 494.558594 435.46875 494.558594 431.765625 C 494.558594 428.058594 497.5625 425.054688 501.265625 425.054688 C 504.972656 425.054688 507.972656 428.058594 507.972656 431.765625 "/>
<path style=" stroke:none;fill-rule:nonzero;fill:rgb(100%,100%,100%);fill-opacity:1;" d="M 493.214844 481.410156 C 493.214844 485.113281 490.210938 488.117188 486.507812 488.117188 C 482.800781 488.117188 479.796875 485.113281 479.796875 481.410156 C 479.796875 477.703125 482.800781 474.699219 486.507812 474.699219 C 490.210938 474.699219 493.214844 477.703125 493.214844 481.410156 "/>
<path style=" stroke:none;fill-rule:nonzero;fill:rgb(100%,100%,100%);fill-opacity:1;" d="M 477.117188 496.167969 C 477.117188 499.875 474.113281 502.875 470.40625 502.875 C 466.703125 502.875 463.699219 499.875 463.699219 496.167969 C 463.699219 492.464844 466.703125 489.460938 470.40625 489.460938 C 474.113281 489.460938 477.117188 492.464844 477.117188 496.167969 "/>
<path style=" stroke:none;fill-rule:nonzero;fill:rgb(100%,100%,100%);fill-opacity:1;" d="M 506.632812 500.191406 C 506.632812 503.898438 503.628906 506.902344 499.925781 506.902344 C 496.21875 506.902344 493.214844 503.898438 493.214844 500.191406 C 493.214844 496.488281 496.21875 493.484375 499.925781 493.484375 C 503.628906 493.484375 506.632812 496.488281 506.632812 500.191406 "/>
<path style=" stroke:none;fill-rule:nonzero;fill:rgb(100%,100%,100%);fill-opacity:1;" d="M 39.714844 147.320312 C 39.714844 151.027344 36.710938 154.03125 33.007812 154.03125 C 29.300781 154.03125 26.296875 151.027344 26.296875 147.320312 C 26.296875 143.617188 29.300781 140.613281 33.007812 140.613281 C 36.710938 140.613281 39.714844 143.617188 39.714844 147.320312 "/>
<path style=" stroke:none;fill-rule:nonzero;fill:rgb(100%,100%,100%);fill-opacity:1;" d="M 447.597656 115.117188 C 447.597656 118.824219 444.59375 121.828125 440.890625 121.828125 C 437.183594 121.828125 434.179688 118.824219 434.179688 115.117188 C 434.179688 111.414062 437.183594 108.410156 440.890625 108.410156 C 444.59375 108.410156 447.597656 111.414062 447.597656 115.117188 "/>
<path style=" stroke:none;fill-rule:nonzero;fill:rgb(100%,100%,100%);fill-opacity:1;" d="M 448.941406 151.347656 C 448.941406 155.050781 445.9375 158.054688 442.230469 158.054688 C 438.527344 158.054688 435.523438 155.050781 435.523438 151.347656 C 435.523438 147.640625 438.527344 144.636719 442.230469 144.636719 C 445.9375 144.636719 448.941406 147.640625 448.941406 151.347656 "/>
<path style=" stroke:none;fill-rule:nonzero;fill:rgb(100%,100%,100%);fill-opacity:1;" d="M 156.445312 5.097656 C 156.445312 8.804688 153.441406 11.808594 149.734375 11.808594 C 146.03125 11.808594 143.027344 8.804688 143.027344 5.097656 C 143.027344 1.394531 146.03125 -1.609375 149.734375 -1.609375 C 153.441406 -1.609375 156.445312 1.394531 156.445312 5.097656 "/>
<path style=" stroke:none;fill-rule:nonzero;fill:rgb(100%,100%,100%);fill-opacity:1;" d="M 518.707031 21.199219 C 518.707031 24.902344 515.703125 27.90625 512 27.90625 C 508.296875 27.90625 505.292969 24.902344 505.292969 21.199219 C 505.292969 17.492188 508.296875 14.492188 512 14.492188 C 515.703125 14.492188 518.707031 17.492188 518.707031 21.199219 "/>
<path style=" stroke:none;fill-rule:nonzero;fill:rgb(100%,100%,100%);fill-opacity:1;" d="M 364.410156 11.808594 C 364.410156 15.511719 361.40625 18.515625 357.703125 18.515625 C 353.996094 18.515625 350.992188 15.511719 350.992188 11.808594 C 350.992188 8.101562 353.996094 5.097656 357.703125 5.097656 C 361.40625 5.097656 364.410156 8.101562 364.410156 11.808594 "/>
<path style=" stroke:none;fill-rule:nonzero;fill:rgb(100%,100%,100%);fill-opacity:1;" d="M 367.09375 488.117188 C 367.09375 491.820312 364.089844 494.824219 360.386719 494.824219 C 356.679688 494.824219 353.675781 491.820312 353.675781 488.117188 C 353.675781 484.410156 356.679688 481.410156 360.386719 481.410156 C 364.089844 481.410156 367.09375 484.410156 367.09375 488.117188 "/>
<path style=" stroke:none;fill-rule:nonzero;fill:rgb(100%,100%,100%);fill-opacity:1;" d="M 478.457031 258.683594 C 478.457031 262.386719 475.453125 265.390625 471.746094 265.390625 C 468.042969 265.390625 465.039062 262.386719 465.039062 258.683594 C 465.039062 254.976562 468.042969 251.972656 471.746094 251.972656 C 475.453125 251.972656 478.457031 254.976562 478.457031 258.683594 "/>
<path style=" stroke:none;fill-rule:nonzero;fill:rgb(100%,100%,100%);fill-opacity:1;" d="M 50.449219 481.410156 C 50.449219 485.113281 47.445312 488.117188 43.738281 488.117188 C 40.035156 488.117188 37.03125 485.113281 37.03125 481.410156 C 37.03125 477.703125 40.035156 474.699219 43.738281 474.699219 C 47.445312 474.699219 50.449219 477.703125 50.449219 481.410156 "/>
<path style=" stroke:none;fill-rule:nonzero;fill:rgb(100%,100%,100%);fill-opacity:1;" d="M 483.824219 357.972656 C 483.824219 361.675781 480.820312 364.679688 477.113281 364.679688 C 473.410156 364.679688 470.40625 361.675781 470.40625 357.972656 C 470.40625 354.265625 473.410156 351.261719 477.113281 351.261719 C 480.820312 351.261719 483.824219 354.265625 483.824219 357.972656 "/>
<path style=" stroke:none;fill-rule:nonzero;fill:rgb(100%,100%,100%);fill-opacity:1;" d="M 22.273438 144.636719 C 22.273438 148.34375 19.269531 151.34375 15.5625 151.34375 C 11.859375 151.34375 8.855469 148.34375 8.855469 144.636719 C 8.855469 140.933594 11.859375 137.929688 15.5625 137.929688 C 19.269531 137.929688 22.273438 140.933594 22.273438 144.636719 "/>
<path style=" stroke:none;fill-rule:nonzero;fill:rgb(100%,100%,100%);fill-opacity:1;" d="M 507.972656 486.777344 C 507.972656 490.480469 504.972656 493.484375 501.265625 493.484375 C 497.5625 493.484375 494.558594 490.480469 494.558594 486.777344 C 494.558594 483.070312 497.5625 480.066406 501.265625 480.066406 C 504.972656 480.066406 507.972656 483.070312 507.972656 486.777344 "/>
<path style=" stroke:none;fill-rule:nonzero;fill:rgb(100%,100%,100%);fill-opacity:1;" d="M 20.929688 383.464844 C 20.929688 387.167969 17.925781 390.171875 14.222656 390.171875 C 10.515625 390.171875 7.511719 387.167969 7.511719 383.464844 C 7.511719 379.757812 10.515625 376.753906 14.222656 376.753906 C 17.925781 376.753906 20.929688 379.757812 20.929688 383.464844 "/>
<path style=" stroke:none;fill-rule:nonzero;fill:rgb(100%,100%,100%);fill-opacity:1;" d="M 477.117188 -0.269531 C 477.117188 3.4375 474.113281 6.441406 470.40625 6.441406 C 466.703125 6.441406 463.699219 3.4375 463.699219 -0.269531 C 463.699219 -3.972656 466.703125 -6.976562 470.40625 -6.976562 C 474.113281 -6.976562 477.117188 -3.972656 477.117188 -0.269531 "/>
<path style=" stroke:none;fill-rule:nonzero;fill:rgb(100%,100%,100%);fill-opacity:1;" d="M 495.898438 34.617188 C 495.898438 38.320312 492.894531 41.324219 489.191406 41.324219 C 485.484375 41.324219 482.480469 38.320312 482.480469 34.617188 C 482.480469 30.910156 485.484375 27.90625 489.191406 27.90625 C 492.894531 27.90625 495.898438 30.910156 495.898438 34.617188 "/>
<path style=" stroke:none;fill-rule:nonzero;fill:rgb(100%,100%,100%);fill-opacity:1;" d="M 416.738281 282.835938 C 416.738281 286.539062 413.734375 289.542969 410.027344 289.542969 C 406.324219 289.542969 403.320312 286.539062 403.320312 282.835938 C 403.320312 279.128906 406.324219 276.125 410.027344 276.125 C 413.734375 276.125 416.738281 279.128906 416.738281 282.835938 "/>
<path style=" stroke:none;fill-rule:nonzero;fill:rgb(100%,100%,100%);fill-opacity:1;" d="M 422.105469 41.324219 C 422.105469 45.03125 419.101562 48.035156 415.394531 48.035156 C 411.691406 48.035156 408.6875 45.03125 408.6875 41.324219 C 408.6875 37.621094 411.691406 34.617188 415.394531 34.617188 C 419.101562 34.617188 422.105469 37.621094 422.105469 41.324219 "/>
<path style=" stroke:none;fill-rule:nonzero;fill:rgb(100%,100%,100%);fill-opacity:1;" d="M 215.480469 34.617188 C 215.480469 38.320312 212.476562 41.324219 208.769531 41.324219 C 205.066406 41.324219 202.0625 38.320312 202.0625 34.617188 C 202.0625 30.910156 205.066406 27.90625 208.769531 27.90625 C 212.476562 27.90625 215.480469 30.910156 215.480469 34.617188 "/>
<path style=" stroke:none;fill-rule:nonzero;fill:rgb(100%,100%,100%);fill-opacity:1;" d="M 482.484375 517.636719 C 482.484375 521.339844 479.480469 524.34375 475.773438 524.34375 C 472.070312 524.34375 469.066406 521.339844 469.066406 517.636719 C 469.066406 513.929688 472.070312 510.925781 475.773438 510.925781 C 479.480469 510.925781 482.484375 513.929688 482.484375 517.636719 "/>
<path style=" stroke:none;fill-rule:nonzero;fill:rgb(100%,100%,100%);fill-opacity:1;" d="M 283.90625 517.636719 C 283.90625 521.339844 280.902344 524.34375 277.199219 524.34375 C 273.492188 524.34375 270.492188 521.339844 270.492188 517.636719 C 270.492188 513.929688 273.492188 510.925781 277.199219 510.925781 C 280.902344 510.925781 283.90625 513.929688 283.90625 517.636719 "/>
<path style=" stroke:none;fill-rule:nonzero;fill:rgb(100%,100%,100%);fill-opacity:1;" d="M 219.503906 2.414062 C 219.503906 6.121094 216.503906 9.125 212.796875 9.125 C 209.09375 9.125 206.089844 6.121094 206.089844 2.414062 C 206.089844 -1.289062 209.09375 -4.292969 212.796875 -4.292969 C 216.503906 -4.292969 219.503906 -1.289062 219.503906 2.414062 "/>
<path style=" stroke:none;fill-rule:nonzero;fill:rgb(100%,100%,100%);fill-opacity:1;" d="M 18.246094 302.960938 C 18.246094 306.664062 15.242188 309.667969 11.539062 309.667969 C 7.832031 309.667969 4.832031 306.664062 4.832031 302.960938 C 4.832031 299.253906 7.832031 296.25 11.539062 296.25 C 15.242188 296.25 18.246094 299.253906 18.246094 302.960938 "/>
<path style=" stroke:none;fill-rule:nonzero;fill:rgb(100%,100%,100%);fill-opacity:1;" d="M 6.171875 347.238281 C 6.171875 350.941406 3.167969 353.945312 -0.535156 353.945312 C -4.242188 353.945312 -7.246094 350.941406 -7.246094 347.238281 C -7.246094 343.53125 -4.242188 340.527344 -0.535156 340.527344 C 3.167969 340.527344 6.171875 343.53125 6.171875 347.238281 "/>
<path style=" stroke:none;fill-rule:nonzero;fill:rgb(100%,100%,100%);fill-opacity:1;" d="M 403.320312 510.925781 C 403.320312 514.632812 400.316406 517.636719 396.613281 517.636719 C 392.90625 517.636719 389.902344 514.632812 389.902344 510.925781 C 389.902344 507.222656 392.90625 504.21875 396.613281 504.21875 C 400.316406 504.21875 403.320312 507.222656 403.320312 510.925781 "/>
<path style=" stroke:none;fill-rule:nonzero;fill:rgb(100%,100%,100%);fill-opacity:1;" d="M 418.078125 431.765625 C 418.078125 435.46875 415.074219 438.472656 411.371094 438.472656 C 407.664062 438.472656 404.664062 435.46875 404.664062 431.765625 C 404.664062 428.058594 407.664062 425.054688 411.371094 425.054688 C 415.074219 425.054688 418.078125 428.058594 418.078125 431.765625 "/>
<path style=" stroke:none;fill-rule:nonzero;fill:rgb(100%,100%,100%);fill-opacity:1;" d="M 4.832031 502.875 C 4.832031 506.582031 1.828125 509.585938 -1.878906 509.585938 C -5.582031 509.585938 -8.585938 506.582031 -8.585938 502.875 C -8.585938 499.171875 -5.582031 496.167969 -1.878906 496.167969 C 1.828125 496.167969 4.832031 499.171875 4.832031 502.875 "/>
<path style=" stroke:none;fill-rule:nonzero;fill:rgb(100%,100%,100%);fill-opacity:1;" d="M 520.050781 398.222656 C 520.050781 401.925781 517.046875 404.929688 513.34375 404.929688 C 509.636719 404.929688 506.632812 401.925781 506.632812 398.222656 C 506.632812 394.515625 509.636719 391.511719 513.34375 391.511719 C 517.046875 391.511719 520.050781 394.515625 520.050781 398.222656 "/>
<path style=" stroke:none;fill-rule:nonzero;fill:rgb(100%,100%,100%);fill-opacity:1;" d="M 37.03125 500.191406 C 37.03125 503.898438 34.027344 506.902344 30.324219 506.902344 C 26.617188 506.902344 23.613281 503.898438 23.613281 500.191406 C 23.613281 496.488281 26.617188 493.484375 30.324219 493.484375 C 34.027344 493.484375 37.03125 496.488281 37.03125 500.191406 "/>
<path style=" stroke:none;fill-rule:nonzero;fill:rgb(100%,100%,100%);fill-opacity:1;" d="M 206.085938 22.539062 C 206.085938 26.246094 203.085938 29.25 199.378906 29.25 C 195.675781 29.25 192.671875 26.246094 192.671875 22.539062 C 192.671875 18.835938 195.675781 15.832031 199.378906 15.832031 C 203.085938 15.832031 206.085938 18.835938 206.085938 22.539062 "/>
<path style=" stroke:none;fill-rule:nonzero;fill:rgb(100%,100%,100%);fill-opacity:1;" d="M 325.5 7.78125 C 325.5 11.488281 322.496094 14.492188 318.792969 14.492188 C 315.085938 14.492188 312.082031 11.488281 312.082031 7.78125 C 312.082031 4.078125 315.085938 1.074219 318.792969 1.074219 C 322.496094 1.074219 325.5 4.078125 325.5 7.78125 "/>
<path style=" stroke:none;fill-rule:nonzero;fill:rgb(100%,100%,100%);fill-opacity:1;" d="M 524.074219 58.765625 C 524.074219 62.472656 521.070312 65.476562 517.367188 65.476562 C 513.660156 65.476562 510.660156 62.472656 510.660156 58.765625 C 510.660156 55.0625 513.660156 52.058594 517.367188 52.058594 C 521.070312 52.058594 524.074219 55.0625 524.074219 58.765625 "/>
<path style=" stroke:none;fill-rule:nonzero;fill:rgb(100%,100%,100%);fill-opacity:1;" d="M 514.683594 463.964844 C 514.683594 467.671875 511.679688 470.675781 507.976562 470.675781 C 504.269531 470.675781 501.265625 467.671875 501.265625 463.964844 C 501.265625 460.261719 504.269531 457.257812 507.976562 457.257812 C 511.679688 457.257812 514.683594 460.261719 514.683594 463.964844 "/>
<path style=" stroke:none;fill-rule:nonzero;fill:rgb(100%,100%,100%);fill-opacity:1;" d="M 360.386719 29.25 C 360.386719 32.953125 357.382812 35.957031 353.675781 35.957031 C 349.972656 35.957031 346.96875 32.953125 346.96875 29.25 C 346.96875 25.542969 349.972656 22.539062 353.675781 22.539062 C 357.382812 22.539062 360.386719 25.542969 360.386719 29.25 "/>
<path style=" stroke:none;fill-rule:nonzero;fill:rgb(100%,100%,100%);fill-opacity:1;" d="M 501.265625 144.636719 C 501.265625 148.34375 498.261719 151.34375 494.558594 151.34375 C 490.851562 151.34375 487.847656 148.34375 487.847656 144.636719 C 487.847656 140.933594 490.851562 137.929688 494.558594 137.929688 C 498.261719 137.929688 501.265625 140.933594 501.265625 144.636719 "/>
<path style=" stroke:none;fill-rule:nonzero;fill:rgb(100%,100%,100%);fill-opacity:1;" d="M 451.621094 192.9375 C 451.621094 196.644531 448.617188 199.648438 444.914062 199.648438 C 441.207031 199.648438 438.207031 196.644531 438.207031 192.9375 C 438.207031 189.234375 441.207031 186.230469 444.914062 186.230469 C 448.617188 186.230469 451.621094 189.234375 451.621094 192.9375 "/>
<path style=" stroke:none;fill-rule:nonzero;fill:rgb(100%,100%,100%);fill-opacity:1;" d="M 118.875 476.042969 C 118.875 479.746094 115.875 482.75 112.167969 482.75 C 108.464844 482.75 105.460938 479.746094 105.460938 476.042969 C 105.460938 472.335938 108.464844 469.332031 112.167969 469.332031 C 115.875 469.332031 118.875 472.335938 118.875 476.042969 "/>
<path style=" stroke:none;fill-rule:nonzero;fill:rgb(100%,100%,100%);fill-opacity:1;" d="M 506.632812 89.628906 C 506.632812 93.332031 503.628906 96.335938 499.925781 96.335938 C 496.21875 96.335938 493.214844 93.332031 493.214844 89.628906 C 493.214844 85.921875 496.21875 82.917969 499.925781 82.917969 C 503.628906 82.917969 506.632812 85.921875 506.632812 89.628906 "/>
<path style=" stroke:none;fill-rule:nonzero;fill:rgb(100%,100%,100%);fill-opacity:1;" d="M 473.089844 251.976562 C 473.089844 255.679688 470.085938 258.683594 466.382812 258.683594 C 462.675781 258.683594 459.671875 255.679688 459.671875 251.976562 C 459.671875 248.269531 462.675781 245.265625 466.382812 245.265625 C 470.085938 245.265625 473.089844 248.269531 473.089844 251.976562 "/>
<path style=" stroke:none;fill-rule:nonzero;fill:rgb(100%,100%,100%);fill-opacity:1;" d="M 423.445312 506.902344 C 423.445312 510.605469 420.441406 513.609375 416.738281 513.609375 C 413.03125 513.609375 410.03125 510.605469 410.03125 506.902344 C 410.03125 503.195312 413.03125 500.191406 416.738281 500.191406 C 420.441406 500.191406 423.445312 503.195312 423.445312 506.902344 "/>
<path style=" stroke:none;fill-rule:nonzero;fill:rgb(100%,100%,100%);fill-opacity:1;" d="M 513.339844 128.535156 C 513.339844 132.242188 510.339844 135.246094 506.632812 135.246094 C 502.929688 135.246094 499.925781 132.242188 499.925781 128.535156 C 499.925781 124.832031 502.929688 121.828125 506.632812 121.828125 C 510.339844 121.828125 513.339844 124.832031 513.339844 128.535156 "/>
<path style=" stroke:none;fill-rule:nonzero;fill:rgb(100%,100%,100%);fill-opacity:1;" d="M 517.367188 496.167969 C 517.367188 499.875 514.363281 502.875 510.65625 502.875 C 506.953125 502.875 503.949219 499.875 503.949219 496.167969 C 503.949219 492.464844 506.953125 489.460938 510.65625 489.460938 C 514.363281 489.460938 517.367188 492.464844 517.367188 496.167969 "/>
<path style=" stroke:none;fill-rule:nonzero;fill:rgb(100%,100%,100%);fill-opacity:1;" d="M 403.320312 472.015625 C 403.320312 475.722656 400.316406 478.726562 396.613281 478.726562 C 392.90625 478.726562 389.902344 475.722656 389.902344 472.015625 C 389.902344 468.3125 392.90625 465.308594 396.613281 465.308594 C 400.316406 465.308594 403.320312 468.3125 403.320312 472.015625 "/>
<path style=" stroke:none;fill-rule:nonzero;fill:rgb(100%,100%,100%);fill-opacity:1;" d="M 491.875 133.902344 C 491.875 137.609375 488.871094 140.613281 485.164062 140.613281 C 481.460938 140.613281 478.457031 137.609375 478.457031 133.902344 C 478.457031 130.199219 481.460938 127.195312 485.164062 127.195312 C 488.871094 127.195312 491.875 130.199219 491.875 133.902344 "/>
<path style=" stroke:none;fill-rule:nonzero;fill:rgb(100%,100%,100%);fill-opacity:1;" d="M 497.242188 339.1875 C 497.242188 342.890625 494.238281 345.894531 490.53125 345.894531 C 486.828125 345.894531 483.824219 342.890625 483.824219 339.1875 C 483.824219 335.480469 486.828125 332.476562 490.53125 332.476562 C 494.238281 332.476562 497.242188 335.480469 497.242188 339.1875 "/>
<path style=" stroke:none;fill-rule:nonzero;fill:rgb(100%,100%,100%);fill-opacity:1;" d="M 231.582031 477.382812 C 231.582031 481.089844 228.578125 484.09375 224.871094 484.09375 C 221.167969 484.09375 218.164062 481.089844 218.164062 477.382812 C 218.164062 473.679688 221.167969 470.675781 224.871094 470.675781 C 228.578125 470.675781 231.582031 473.679688 231.582031 477.382812 "/>
<path style=" stroke:none;fill-rule:nonzero;fill:rgb(100%,100%,100%);fill-opacity:1;" d="M 475.773438 482.75 C 475.773438 486.457031 472.769531 489.460938 469.066406 489.460938 C 465.359375 489.460938 462.355469 486.457031 462.355469 482.75 C 462.355469 479.046875 465.359375 476.042969 469.066406 476.042969 C 472.769531 476.042969 475.773438 479.046875 475.773438 482.75 "/>
<path style=" stroke:none;fill-rule:nonzero;fill:rgb(100%,100%,100%);fill-opacity:1;" d="M 518.707031 356.628906 C 518.707031 360.335938 515.703125 363.335938 512 363.335938 C 508.296875 363.335938 505.292969 360.335938 505.292969 356.628906 C 505.292969 352.925781 508.296875 349.921875 512 349.921875 C 515.703125 349.921875 518.707031 352.925781 518.707031 356.628906 "/>
<path style=" stroke:none;fill-rule:nonzero;fill:rgb(100%,100%,100%);fill-opacity:1;" d="M 57.15625 498.851562 C 57.15625 502.554688 54.152344 505.558594 50.449219 505.558594 C 46.742188 505.558594 43.742188 502.554688 43.742188 498.851562 C 43.742188 495.144531 46.742188 492.140625 50.449219 492.140625 C 54.152344 492.140625 57.15625 495.144531 57.15625 498.851562 "/>
<path style=" stroke:none;fill-rule:nonzero;fill:rgb(100%,100%,100%);fill-opacity:1;" d="M 308.058594 488.117188 C 308.058594 491.820312 305.054688 494.824219 301.351562 494.824219 C 297.644531 494.824219 294.640625 491.820312 294.640625 488.117188 C 294.640625 484.410156 297.644531 481.410156 301.351562 481.410156 C 305.054688 481.410156 308.058594 484.410156 308.058594 488.117188 "/>
<path style=" stroke:none;fill-rule:nonzero;fill:rgb(100%,100%,100%);fill-opacity:1;" d="M 11.539062 31.933594 C 11.539062 35.636719 8.535156 38.640625 4.828125 38.640625 C 1.125 38.640625 -1.878906 35.636719 -1.878906 31.933594 C -1.878906 28.226562 1.125 25.222656 4.828125 25.222656 C 8.535156 25.222656 11.539062 28.226562 11.539062 31.933594 "/>
<path style=" stroke:none;fill-rule:nonzero;fill:rgb(100%,100%,100%);fill-opacity:1;" d="M 522.734375 382.121094 C 522.734375 385.828125 519.730469 388.832031 516.023438 388.832031 C 512.320312 388.832031 509.316406 385.828125 509.316406 382.121094 C 509.316406 378.417969 512.320312 375.414062 516.023438 375.414062 C 519.730469 375.414062 522.734375 378.417969 522.734375 382.121094 "/>
<path style=" stroke:none;fill-rule:nonzero;fill:rgb(100%,100%,100%);fill-opacity:1;" d="M 419.421875 164.761719 C 419.421875 168.46875 416.417969 171.472656 412.714844 171.472656 C 409.007812 171.472656 406.003906 168.46875 406.003906 164.761719 C 406.003906 161.058594 409.007812 158.054688 412.714844 158.054688 C 416.417969 158.054688 419.421875 161.058594 419.421875 164.761719 "/>
<path style=" stroke:none;fill-rule:nonzero;fill:rgb(100%,84.3%,0%);fill-opacity:1;" d="M 97.410156 455.914062 C 97.410156 459.621094 94.40625 462.625 90.699219 462.625 C 86.996094 462.625 83.992188 459.621094 83.992188 455.914062 C 83.992188 452.210938 86.996094 449.207031 90.699219 449.207031 C 94.40625 449.207031 97.410156 452.210938 97.410156 455.914062 "/>
<path style=" stroke:none;fill-rule:nonzero;fill:rgb(100%,84.3%,0%);fill-opacity:1;" d="M 83.992188 455.914062 C 83.992188 459.621094 80.988281 462.625 77.28125 462.625 C 73.578125 462.625 70.574219 459.621094 70.574219 455.914062 C 70.574219 452.210938 73.578125 449.207031 77.28125 449.207031 C 80.988281 449.207031 83.992188 452.210938 83.992188 455.914062 "/>
<path style=" stroke:none;fill-rule:nonzero;fill:rgb(100%,84.3%,0%);fill-opacity:1;" d="M 110.824219 455.914062 C 110.824219 459.621094 107.820312 462.625 104.117188 462.625 C 100.410156 462.625 97.410156 459.621094 97.410156 455.914062 C 97.410156 452.210938 100.410156 449.207031 104.117188 449.207031 C 107.820312 449.207031 110.824219 452.210938 110.824219 455.914062 "/>
<path style=" stroke:none;fill-rule:nonzero;fill:rgb(100%,84.3%,0%);fill-opacity:1;" d="M 137.660156 455.914062 C 137.660156 459.621094 134.65625 462.625 130.953125 462.625 C 127.246094 462.625 124.242188 459.621094 124.242188 455.914062 C 124.242188 452.210938 127.246094 449.207031 130.953125 449.207031 C 134.65625 449.207031 137.660156 452.210938 137.660156 455.914062 "/>
<path style=" stroke:none;fill-rule:nonzero;fill:rgb(100%,84.3%,0%);fill-opacity:1;" d="M 379.167969 56.085938 C 379.167969 59.789062 376.167969 62.792969 372.460938 62.792969 C 368.757812 62.792969 365.753906 59.789062 365.753906 56.085938 C 365.753906 52.378906 368.757812 49.375 372.460938 49.375 C 376.167969 49.375 379.167969 52.378906 379.167969 56.085938 "/>
<path style=" stroke:none;fill-rule:nonzero;fill:rgb(100%,84.3%,0%);fill-opacity:1;" d="M 365.753906 56.085938 C 365.753906 59.789062 362.75 62.792969 359.042969 62.792969 C 355.339844 62.792969 352.335938 59.789062 352.335938 56.085938 C 352.335938 52.378906 355.339844 49.375 359.042969 49.375 C 362.75 49.375 365.753906 52.378906 365.753906 56.085938 "/>
<path style=" stroke:none;fill-rule:nonzero;fill:rgb(100%,84.3%,0%);fill-opacity:1;" d="M 70.574219 56.085938 C 70.574219 59.789062 67.570312 62.792969 63.867188 62.792969 C 60.160156 62.792969 57.15625 59.789062 57.15625 56.085938 C 57.15625 52.378906 60.160156 49.375 63.867188 49.375 C 67.570312 49.375 70.574219 52.378906 70.574219 56.085938 "/>
<path style=" stroke:none;fill-rule:nonzero;fill:rgb(100%,84.3%,0%);fill-opacity:1;" d="M 110.824219 56.085938 C 110.824219 59.789062 107.820312 62.792969 104.117188 62.792969 C 100.410156 62.792969 97.410156 59.789062 97.410156 56.085938 C 97.410156 52.378906 100.410156 49.375 104.117188 49.375 C 107.820312 49.375 110.824219 52.378906 110.824219 56.085938 "/>
<path style=" stroke:none;fill-rule:nonzero;fill:rgb(100%,84.3%,0%);fill-opacity:1;" d="M 57.15625 128.535156 C 57.15625 132.242188 54.152344 135.246094 50.449219 135.246094 C 46.742188 135.246094 43.742188 132.242188 43.742188 128.535156 C 43.742188 124.832031 46.742188 121.828125 50.449219 121.828125 C 54.152344 121.828125 57.15625 124.832031 57.15625 128.535156 "/>
<path style=" stroke:none;fill-rule:nonzero;fill:rgb(100%,84.3%,0%);fill-opacity:1;" d="M 400.636719 329.796875 C 400.636719 333.5 397.632812 336.503906 393.929688 336.503906 C 390.222656 336.503906 387.21875 333.5 387.21875 329.796875 C 387.21875 326.089844 390.222656 323.085938 393.929688 323.085938 C 397.632812 323.085938 400.636719 326.089844 400.636719 329.796875 "/>
<path style=" stroke:none;fill-rule:nonzero;fill:rgb(100%,84.3%,0%);fill-opacity:1;" d="M 231.582031 455.914062 C 231.582031 459.621094 228.578125 462.625 224.871094 462.625 C 221.167969 462.625 218.164062 459.621094 218.164062 455.914062 C 218.164062 452.210938 221.167969 449.207031 224.871094 449.207031 C 228.578125 449.207031 231.582031 452.210938 231.582031 455.914062 "/>
<path style=" stroke:none;fill-rule:nonzero;fill:rgb(100%,84.3%,0%);fill-opacity:1;" d="M 57.15625 74.867188 C 57.15625 78.574219 54.152344 81.578125 50.449219 81.578125 C 46.742188 81.578125 43.742188 78.574219 43.742188 74.867188 C 43.742188 71.164062 46.742188 68.160156 50.449219 68.160156 C 54.152344 68.160156 57.15625 71.164062 57.15625 74.867188 "/>
<path style=" stroke:none;fill-rule:nonzero;fill:rgb(100%,84.3%,0%);fill-opacity:1;" d="M 218.164062 56.085938 C 218.164062 59.789062 215.160156 62.792969 211.453125 62.792969 C 207.75 62.792969 204.746094 59.789062 204.746094 56.085938 C 204.746094 52.378906 207.75 49.375 211.453125 49.375 C 215.160156 49.375 218.164062 52.378906 218.164062 56.085938 "/>
<path style=" stroke:none;fill-rule:nonzero;fill:rgb(100%,84.3%,0%);fill-opacity:1;" d="M 57.15625 249.289062 C 57.15625 252.996094 54.152344 256 50.449219 256 C 46.742188 256 43.742188 252.996094 43.742188 249.289062 C 43.742188 245.585938 46.742188 242.582031 50.449219 242.582031 C 54.152344 242.582031 57.15625 245.585938 57.15625 249.289062 "/>
<path style=" stroke:none;fill-rule:nonzero;fill:rgb(100%,84.3%,0%);fill-opacity:1;" d="M 400.636719 356.628906 C 400.636719 360.335938 397.632812 363.335938 393.929688 363.335938 C 390.222656 363.335938 387.21875 360.335938 387.21875 356.628906 C 387.21875 352.925781 390.222656 349.921875 393.929688 349.921875 C 397.632812 349.921875 400.636719 352.925781 400.636719 356.628906 "/>
<path style=" stroke:none;fill-rule:nonzero;fill:rgb(100%,84.3%,0%);fill-opacity:1;" d="M 400.636719 115.117188 C 400.636719 118.824219 397.632812 121.828125 393.929688 121.828125 C 390.222656 121.828125 387.21875 118.824219 387.21875 115.117188 C 387.21875 111.414062 390.222656 108.410156 393.929688 108.410156 C 397.632812 108.410156 400.636719 111.414062 400.636719 115.117188 "/>
<path style=" stroke:none;fill-rule:nonzero;fill:rgb(100%,84.3%,0%);fill-opacity:1;" d="M 285.25 455.914062 C 285.25 459.621094 282.246094 462.625 278.539062 462.625 C 274.835938 462.625 271.832031 459.621094 271.832031 455.914062 C 271.832031 452.210938 274.835938 449.207031 278.539062 449.207031 C 282.246094 449.207031 285.25 452.210938 285.25 455.914062 "/>
<path style=" stroke:none;fill-rule:nonzero;fill:rgb(100%,84.3%,0%);fill-opacity:1;" d="M 57.15625 141.953125 C 57.15625 145.660156 54.152344 148.664062 50.449219 148.664062 C 46.742188 148.664062 43.742188 145.660156 43.742188 141.953125 C 43.742188 138.25 46.742188 135.246094 50.449219 135.246094 C 54.152344 135.246094 57.15625 138.25 57.15625 141.953125 "/>
<path style=" stroke:none;fill-rule:nonzero;fill:rgb(100%,84.3%,0%);fill-opacity:1;" d="M 57.15625 222.457031 C 57.15625 226.160156 54.152344 229.164062 50.449219 229.164062 C 46.742188 229.164062 43.742188 226.160156 43.742188 222.457031 C 43.742188 218.75 46.742188 215.75 50.449219 215.75 C 54.152344 215.75 57.15625 218.75 57.15625 222.457031 "/>
<path style=" stroke:none;fill-rule:nonzero;fill:rgb(100%,84.3%,0%);fill-opacity:1;" d="M 57.15625 168.789062 C 57.15625 172.492188 54.152344 175.496094 50.449219 175.496094 C 46.742188 175.496094 43.742188 172.492188 43.742188 168.789062 C 43.742188 165.082031 46.742188 162.078125 50.449219 162.078125 C 54.152344 162.078125 57.15625 165.082031 57.15625 168.789062 "/>
<path style=" stroke:none;fill-rule:nonzero;fill:rgb(100%,84.3%,0%);fill-opacity:1;" d="M 312.082031 455.914062 C 312.082031 459.621094 309.078125 462.625 305.375 462.625 C 301.671875 462.625 298.667969 459.621094 298.667969 455.914062 C 298.667969 452.210938 301.671875 449.207031 305.375 449.207031 C 309.078125 449.207031 312.082031 452.210938 312.082031 455.914062 "/>
<path style=" stroke:none;fill-rule:nonzero;fill:rgb(100%,84.3%,0%);fill-opacity:1;" d="M 400.636719 168.789062 C 400.636719 172.492188 397.632812 175.496094 393.929688 175.496094 C 390.222656 175.496094 387.21875 172.492188 387.21875 168.789062 C 387.21875 165.082031 390.222656 162.078125 393.929688 162.078125 C 397.632812 162.078125 400.636719 165.082031 400.636719 168.789062 "/>
<path style=" stroke:none;fill-rule:nonzero;fill:rgb(100%,84.3%,0%);fill-opacity:1;" d="M 400.636719 74.867188 C 400.636719 78.574219 397.632812 81.578125 393.929688 81.578125 C 390.222656 81.578125 387.21875 78.574219 387.21875 74.867188 C 387.21875 71.164062 390.222656 68.160156 393.929688 68.160156 C 397.632812 68.160156 400.636719 71.164062 400.636719 74.867188 "/>
<path style=" stroke:none;fill-rule:nonzero;fill:rgb(100%,84.3%,0%);fill-opacity:1;" d="M 191.328125 455.914062 C 191.328125 459.621094 188.324219 462.625 184.621094 462.625 C 180.914062 462.625 177.914062 459.621094 177.914062 455.914062 C 177.914062 452.210938 180.914062 449.207031 184.621094 449.207031 C 188.324219 449.207031 191.328125 452.210938 191.328125 455.914062 "/>
<path style=" stroke:none;fill-rule:nonzero;fill:rgb(100%,84.3%,0%);fill-opacity:1;" d="M 177.910156 56.085938 C 177.910156 59.789062 174.90625 62.792969 171.203125 62.792969 C 167.496094 62.792969 164.496094 59.789062 164.496094 56.085938 C 164.496094 52.378906 167.496094 49.375 171.203125 49.375 C 174.90625 49.375 177.910156 52.378906 177.910156 56.085938 "/>
<path style=" stroke:none;fill-rule:nonzero;fill:rgb(100%,84.3%,0%);fill-opacity:1;" d="M 57.15625 155.371094 C 57.15625 159.074219 54.152344 162.078125 50.449219 162.078125 C 46.742188 162.078125 43.742188 159.074219 43.742188 155.371094 C 43.742188 151.664062 46.742188 148.664062 50.449219 148.664062 C 54.152344 148.664062 57.15625 151.664062 57.15625 155.371094 "/>
<path style=" stroke:none;fill-rule:nonzero;fill:rgb(100%,84.3%,0%);fill-opacity:1;" d="M 70.574219 455.914062 C 70.574219 459.621094 67.570312 462.625 63.867188 462.625 C 60.160156 462.625 57.15625 459.621094 57.15625 455.914062 C 57.15625 452.210938 60.160156 449.207031 63.867188 449.207031 C 67.570312 449.207031 70.574219 452.210938 70.574219 455.914062 "/>
<path style=" stroke:none;fill-rule:nonzero;fill:rgb(100%,84.3%,0%);fill-opacity:1;" d="M 400.636719 101.703125 C 400.636719 105.40625 397.632812 108.410156 393.929688 108.410156 C 390.222656 108.410156 387.21875 105.40625 387.21875 101.703125 C 387.21875 97.996094 390.222656 94.992188 393.929688 94.992188 C 397.632812 94.992188 400.636719 97.996094 400.636719 101.703125 "/>
<path style=" stroke:none;fill-rule:nonzero;fill:rgb(100%,84.3%,0%);fill-opacity:1;" d="M 57.15625 262.710938 C 57.15625 266.414062 54.152344 269.417969 50.449219 269.417969 C 46.742188 269.417969 43.742188 266.414062 43.742188 262.710938 C 43.742188 259.003906 46.742188 256 50.449219 256 C 54.152344 256 57.15625 259.003906 57.15625 262.710938 "/>
<path style=" stroke:none;fill-rule:nonzero;fill:rgb(100%,84.3%,0%);fill-opacity:1;" d="M 57.15625 455.914062 C 57.15625 459.621094 54.152344 462.625 50.449219 462.625 C 46.742188 462.625 43.742188 459.621094 43.742188 455.914062 C 43.742188 452.210938 46.742188 449.207031 50.449219 449.207031 C 54.152344 449.207031 57.15625 452.210938 57.15625 455.914062 "/>
<path style=" stroke:none;fill-rule:nonzero;fill:rgb(100%,84.3%,0%);fill-opacity:1;" d="M 204.746094 455.914062 C 204.746094 459.621094 201.742188 462.625 198.039062 462.625 C 194.332031 462.625 191.328125 459.621094 191.328125 455.914062 C 191.328125 452.210938 194.332031 449.207031 198.039062 449.207031 C 201.742188 449.207031 204.746094 452.210938 204.746094 455.914062 "/>
<path style=" stroke:none;fill-rule:nonzero;fill:rgb(100%,84.3%,0%);fill-opacity:1;" d="M 218.164062 455.914062 C 218.164062 459.621094 215.160156 462.625 211.453125 462.625 C 207.75 462.625 204.746094 459.621094 204.746094 455.914062 C 204.746094 452.210938 207.75 449.207031 211.453125 449.207031 C 215.160156 449.207031 218.164062 452.210938 218.164062 455.914062 "/>
<path style=" stroke:none;fill-rule:nonzero;fill:rgb(100%,84.3%,0%);fill-opacity:1;" d="M 400.636719 455.914062 C 400.636719 459.621094 397.632812 462.625 393.929688 462.625 C 390.222656 462.625 387.21875 459.621094 387.21875 455.914062 C 387.21875 452.210938 390.222656 449.207031 393.929688 449.207031 C 397.632812 449.207031 400.636719 452.210938 400.636719 455.914062 "/>
<path style=" stroke:none;fill-rule:nonzero;fill:rgb(100%,84.3%,0%);fill-opacity:1;" d="M 57.15625 88.285156 C 57.15625 91.988281 54.152344 94.992188 50.449219 94.992188 C 46.742188 94.992188 43.742188 91.988281 43.742188 88.285156 C 43.742188 84.578125 46.742188 81.578125 50.449219 81.578125 C 54.152344 81.578125 57.15625 84.578125 57.15625 88.285156 "/>
<path style=" stroke:none;fill-rule:nonzero;fill:rgb(100%,84.3%,0%);fill-opacity:1;" d="M 124.242188 455.914062 C 124.242188 459.621094 121.238281 462.625 117.535156 462.625 C 113.828125 462.625 110.828125 459.621094 110.828125 455.914062 C 110.828125 452.210938 113.828125 449.207031 117.535156 449.207031 C 121.238281 449.207031 124.242188 452.210938 124.242188 455.914062 "/>
<path style=" stroke:none;fill-rule:nonzero;fill:rgb(100%,84.3%,0%);fill-opacity:1;" d="M 400.636719 302.960938 C 400.636719 306.664062 397.632812 309.667969 393.929688 309.667969 C 390.222656 309.667969 387.21875 306.664062 387.21875 302.960938 C 387.21875 299.253906 390.222656 296.25 393.929688 296.25 C 397.632812 296.25 400.636719 299.253906 400.636719 302.960938 "/>
<path style=" stroke:none;fill-rule:nonzero;fill:rgb(100%,84.3%,0%);fill-opacity:1;" d="M 400.636719 128.535156 C 400.636719 132.242188 397.632812 135.246094 393.929688 135.246094 C 390.222656 135.246094 387.21875 132.242188 387.21875 128.535156 C 387.21875 124.832031 390.222656 121.828125 393.929688 121.828125 C 397.632812 121.828125 400.636719 124.832031 400.636719 128.535156 "/>
<path style=" stroke:none;fill-rule:nonzero;fill:rgb(100%,84.3%,0%);fill-opacity:1;" d="M 204.746094 56.085938 C 204.746094 59.789062 201.742188 62.792969 198.039062 62.792969 C 194.332031 62.792969 191.328125 59.789062 191.328125 56.085938 C 191.328125 52.378906 194.332031 49.375 198.039062 49.375 C 201.742188 49.375 204.746094 52.378906 204.746094 56.085938 "/>
<path style=" stroke:none;fill-rule:nonzero;fill:rgb(100%,84.3%,0%);fill-opacity:1;" d="M 164.496094 455.914062 C 164.496094 459.621094 161.492188 462.625 157.785156 462.625 C 154.082031 462.625 151.078125 459.621094 151.078125 455.914062 C 151.078125 452.210938 154.082031 449.207031 157.785156 449.207031 C 161.492188 449.207031 164.496094 452.210938 164.496094 455.914062 "/>
<path style=" stroke:none;fill-rule:nonzero;fill:rgb(100%,84.3%,0%);fill-opacity:1;" d="M 400.636719 343.210938 C 400.636719 346.917969 397.632812 349.921875 393.929688 349.921875 C 390.222656 349.921875 387.21875 346.917969 387.21875 343.210938 C 387.21875 339.507812 390.222656 336.503906 393.929688 336.503906 C 397.632812 336.503906 400.636719 339.507812 400.636719 343.210938 "/>
<path style=" stroke:none;fill-rule:nonzero;fill:rgb(100%,84.3%,0%);fill-opacity:1;" d="M 231.582031 56.085938 C 231.582031 59.789062 228.578125 62.792969 224.871094 62.792969 C 221.167969 62.792969 218.164062 59.789062 218.164062 56.085938 C 218.164062 52.378906 221.167969 49.375 224.871094 49.375 C 228.578125 49.375 231.582031 52.378906 231.582031 56.085938 "/>
<path style=" stroke:none;fill-rule:nonzero;fill:rgb(100%,84.3%,0%);fill-opacity:1;" d="M 97.410156 56.085938 C 97.410156 59.789062 94.40625 62.792969 90.699219 62.792969 C 86.996094 62.792969 83.992188 59.789062 83.992188 56.085938 C 83.992188 52.378906 86.996094 49.375 90.699219 49.375 C 94.40625 49.375 97.410156 52.378906 97.410156 56.085938 "/>
<path style=" stroke:none;fill-rule:nonzero;fill:rgb(100%,84.3%,0%);fill-opacity:1;" d="M 57.15625 56.085938 C 57.15625 59.789062 54.152344 62.792969 50.449219 62.792969 C 46.742188 62.792969 43.742188 59.789062 43.742188 56.085938 C 43.742188 52.378906 46.742188 49.375 50.449219 49.375 C 54.152344 49.375 57.15625 52.378906 57.15625 56.085938 "/>
<path style=" stroke:none;fill-rule:nonzero;fill:rgb(100%,84.3%,0%);fill-opacity:1;" d="M 151.078125 455.914062 C 151.078125 459.621094 148.074219 462.625 144.367188 462.625 C 140.664062 462.625 137.660156 459.621094 137.660156 455.914062 C 137.660156 452.210938 140.664062 449.207031 144.367188 449.207031 C 148.074219 449.207031 151.078125 452.210938 151.078125 455.914062 "/>
<path style=" stroke:none;fill-rule:nonzero;fill:rgb(100%,84.3%,0%);fill-opacity:1;" d="M 400.636719 316.378906 C 400.636719 320.082031 397.632812 323.085938 393.929688 323.085938 C 390.222656 323.085938 387.21875 320.082031 387.21875 316.378906 C 387.21875 312.671875 390.222656 309.667969 393.929688 309.667969 C 397.632812 309.667969 400.636719 312.671875 400.636719 316.378906 "/>
<path style=" stroke:none;fill-rule:nonzero;fill:rgb(100%,84.3%,0%);fill-opacity:1;" d="M 244.996094 455.914062 C 244.996094 459.621094 241.992188 462.625 238.289062 462.625 C 234.582031 462.625 231.582031 459.621094 231.582031 455.914062 C 231.582031 452.210938 234.582031 449.207031 238.289062 449.207031 C 241.992188 449.207031 244.996094 452.210938 244.996094 455.914062 "/>
<path style=" stroke:none;fill-rule:nonzero;fill:rgb(100%,84.3%,0%);fill-opacity:1;" d="M 352.335938 56.085938 C 352.335938 59.789062 349.332031 62.792969 345.628906 62.792969 C 341.921875 62.792969 338.917969 59.789062 338.917969 56.085938 C 338.917969 52.378906 341.921875 49.375 345.628906 49.375 C 349.332031 49.375 352.335938 52.378906 352.335938 56.085938 "/>
<path style=" stroke:none;fill-rule:nonzero;fill:rgb(100%,84.3%,0%);fill-opacity:1;" d="M 177.910156 455.914062 C 177.910156 459.621094 174.90625 462.625 171.203125 462.625 C 167.496094 462.625 164.496094 459.621094 164.496094 455.914062 C 164.496094 452.210938 167.496094 449.207031 171.203125 449.207031 C 174.90625 449.207031 177.910156 452.210938 177.910156 455.914062 "/>
<path style=" stroke:none;fill-rule:nonzero;fill:rgb(100%,84.3%,0%);fill-opacity:1;" d="M 400.636719 56.085938 C 400.636719 59.789062 397.632812 62.792969 393.929688 62.792969 C 390.222656 62.792969 387.21875 59.789062 387.21875 56.085938 C 387.21875 52.378906 390.222656 49.375 393.929688 49.375 C 397.632812 49.375 400.636719 52.378906 400.636719 56.085938 "/>
<path style=" stroke:none;fill-rule:nonzero;fill:rgb(100%,84.3%,0%);fill-opacity:1;" d="M 57.15625 235.875 C 57.15625 239.578125 54.152344 242.582031 50.449219 242.582031 C 46.742188 242.582031 43.742188 239.578125 43.742188 235.875 C 43.742188 232.167969 46.742188 229.164062 50.449219 229.164062 C 54.152344 229.164062 57.15625 232.167969 57.15625 235.875 "/>
<path style=" stroke:none;fill-rule:nonzero;fill:rgb(100%,84.3%,0%);fill-opacity:1;" d="M 400.636719 88.285156 C 400.636719 91.988281 397.632812 94.992188 393.929688 94.992188 C 390.222656 94.992188 387.21875 91.988281 387.21875 88.285156 C 387.21875 84.578125 390.222656 81.578125 393.929688 81.578125 C 397.632812 81.578125 400.636719 84.578125 400.636719 88.285156 "/>
<path style=" stroke:none;fill-rule:nonzero;fill:rgb(100%,84.3%,0%);fill-opacity:1;" d="M 338.917969 56.085938 C 338.917969 59.789062 335.914062 62.792969 332.210938 62.792969 C 328.503906 62.792969 325.5 59.789062 325.5 56.085938 C 325.5 52.378906 328.503906 49.375 332.210938 49.375 C 335.914062 49.375 338.917969 52.378906 338.917969 56.085938 "/>
</g>
</svg>
