<?xml version="1.0" encoding="UTF-8"?>
<svg xmlns="http://www.w3.org/2000/svg" xmlns:xlink="http://www.w3.org/1999/xlink" width="512pt" height="512pt" viewBox="0 0 512 512" version="1.1">
<g id="surface71">
<path style=" stroke:none;fill-rule:nonzero;fill:rgb(26.7%,26.7%,26.7%);fill-opacity:1;" d="M 0 50.460938 L 512 50.460938 L 512 461.535156 L 0 461.535156 Z M 0 50.460938 "/>
<path style=" stroke:none;fill-rule:nonzero;fill:rgb(19.2%,38.8%,66.7%);fill-opacity:1;" d="M 42.667969 84.71875 L 469.332031 84.71875 L 469.332031 427.28125 L 42.667969 427.28125 Z M 42.667969 84.71875 "/>
<path style=" stroke:none;fill-rule:nonzero;fill:rgb(100%,100%,100%);fill-opacity:1;" d="M 63.179688 494.972656 C 63.179688 500.636719 58.585938 505.230469 52.921875 505.230469 C 47.257812 505.230469 42.667969 500.636719 42.667969 494.972656 C 42.667969 489.308594 47.257812 484.71875 52.921875 484.71875 C 58.585938 484.71875 63.179688 489.308594 63.179688 494.972656 "/>
<path style=" stroke:none;fill-rule:nonzero;fill:rgb(100%,100%,100%);fill-opacity:1;" d="M 379.078125 43.691406 C 379.078125 49.355469 374.484375 53.949219 368.820312 53.949219 C 363.15625 53.949219 358.566406 49.355469 358.566406 43.691406 C 358.566406 38.027344 363.15625 33.4375 368.820312 33.4375 C 374.484375 33.4375 379.078125 38.027344 379.078125 43.691406 "/>
<path style=" stroke:none;fill-rule:nonzero;fill:rgb(100%,100%,100%);fill-opacity:1;" d="M 274.460938 72.410156 C 274.460938 78.074219 269.871094 82.667969 264.203125 82.667969 C 258.539062 82.667969 253.949219 78.074219 253.949219 72.410156 C 253.949219 66.746094 258.539062 62.152344 264.203125 62.152344 C 269.871094 62.152344 274.460938 66.746094 274.460938 72.410156 "/>
<path style=" stroke:none;fill-rule:nonzero;fill:rgb(100%,100%,100%);fill-opacity:1;" d="M 28.308594 -1.4375 C 28.308594 4.226562 23.714844 8.820312 18.050781 8.820312 C 12.386719 8.820312 7.792969 4.226562 7.792969 -1.4375 C 7.792969 -7.101562 12.386719 -11.691406 18.050781 -11.691406 C 23.714844 -11.691406 28.308594 -7.101562 28.308594 -1.4375 "/>
<path style=" stroke:none;fill-rule:nonzero;fill:rgb(100%,100%,100%);fill-opacity:1;" d="M 237.539062 453.949219 C 237.539062 459.613281 232.945312 464.207031 227.28125 464.207031 C 221.617188 464.207031 217.027344 459.613281 217.027344 453.949219 C 217.027344 448.285156 221.617188 443.691406 227.28125 443.691406 C 232.945312 443.691406 237.539062 448.285156 237.539062 453.949219 "/>
<path style=" stroke:none;fill-rule:nonzero;fill:rgb(100%,100%,100%);fill-opacity:1;" d="M 44.71875 107.28125 C 44.71875 112.945312 40.125 117.539062 34.460938 117.539062 C 28.796875 117.539062 24.207031 112.945312 24.207031 107.28125 C 24.207031 101.617188 28.796875 97.027344 34.460938 97.027344 C 40.125 97.027344 44.71875 101.617188 44.71875 107.28125 "/>
<path style=" stroke:none;fill-rule:nonzero;fill:rgb(100%,100%,100%);fill-opacity:1;" d="M 212.921875 468.308594 C 212.921875 473.972656 208.332031 478.5625 202.667969 478.5625 C 197.003906 478.5625 192.410156 473.972656 192.410156 468.308594 C 192.410156 462.644531 197.003906 458.050781 202.667969 458.050781 C 208.332031 458.050781 212.921875 462.644531 212.921875 468.308594 "/>
<path style=" stroke:none;fill-rule:nonzero;fill:rgb(100%,100%,100%);fill-opacity:1;" d="M 450.871094 58.050781 C 450.871094 63.714844 446.28125 68.308594 440.613281 68.308594 C 434.949219 68.308594 430.359375 63.714844 430.359375 58.050781 C 430.359375 52.386719 434.949219 47.792969 440.613281 47.792969 C 446.28125 47.792969 450.871094 52.386719 450.871094 58.050781 "/>
<path style=" stroke:none;fill-rule:nonzero;fill:rgb(100%,100%,100%);fill-opacity:1;" d="M 512.410156 445.742188 C 512.410156 451.410156 507.820312 456 502.152344 456 C 496.488281 456 491.898438 451.410156 491.898438 445.742188 C 491.898438 440.078125 496.488281 435.488281 502.152344 435.488281 C 507.820312 435.488281 512.410156 440.078125 512.410156 445.742188 "/>
<path style=" stroke:none;fill-rule:nonzero;fill:rgb(100%,100%,100%);fill-opacity:1;" d="M 173.949219 47.796875 C 173.949219 53.460938 169.355469 58.050781 163.691406 58.050781 C 158.027344 58.050781 153.4375 53.460938 153.4375 47.796875 C 153.4375 42.128906 158.027344 37.539062 163.691406 37.539062 C 169.355469 37.539062 173.949219 42.128906 173.949219 47.796875 "/>
<path style=" stroke:none;fill-rule:nonzero;fill:rgb(100%,100%,100%);fill-opacity:1;" d="M 192.410156 474.460938 C 192.410156 480.125 187.820312 484.71875 182.152344 484.71875 C 176.488281 484.71875 171.898438 480.125 171.898438 474.460938 C 171.898438 468.796875 176.488281 464.207031 182.152344 464.207031 C 187.820312 464.207031 192.410156 468.796875 192.410156 474.460938 "/>
<path style=" stroke:none;fill-rule:nonzero;fill:rgb(100%,100%,100%);fill-opacity:1;" d="M 485.742188 222.152344 C 485.742188 227.820312 481.152344 232.410156 475.488281 232.410156 C 469.824219 232.410156 465.230469 227.820312 465.230469 222.152344 C 465.230469 216.488281 469.824219 211.898438 475.488281 211.898438 C 481.152344 211.898438 485.742188 216.488281 485.742188 222.152344 "/>
<path style=" stroke:none;fill-rule:nonzero;fill:rgb(100%,100%,100%);fill-opacity:1;" d="M 498.050781 -7.589844 C 498.050781 -1.925781 493.460938 2.667969 487.796875 2.667969 C 482.128906 2.667969 477.539062 -1.925781 477.539062 -7.589844 C 477.539062 -13.253906 482.128906 -17.847656 487.796875 -17.847656 C 493.460938 -17.847656 498.050781 -13.253906 498.050781 -7.589844 "/>
<path style=" stroke:none;fill-rule:nonzero;fill:rgb(100%,100%,100%);fill-opacity:1;" d="M 3.691406 511.386719 C 3.691406 517.050781 -0.898438 521.640625 -6.5625 521.640625 C -12.226562 521.640625 -16.820312 517.050781 -16.820312 511.386719 C -16.820312 505.71875 -12.226562 501.128906 -6.5625 501.128906 C -0.898438 501.128906 3.691406 505.71875 3.691406 511.386719 "/>
<path style=" stroke:none;fill-rule:nonzero;fill:rgb(100%,100%,100%);fill-opacity:1;" d="M 188.308594 64.203125 C 188.308594 69.871094 183.714844 74.460938 178.050781 74.460938 C 172.386719 74.460938 167.792969 69.871094 167.792969 64.203125 C 167.792969 58.539062 172.386719 53.949219 178.050781 53.949219 C 183.714844 53.949219 188.308594 58.539062 188.308594 64.203125 "/>
<path style=" stroke:none;fill-rule:nonzero;fill:rgb(100%,100%,100%);fill-opacity:1;" d="M 510.359375 423.179688 C 510.359375 428.84375 505.765625 433.433594 500.101562 433.433594 C 494.4375 433.433594 489.847656 428.84375 489.847656 423.179688 C 489.847656 417.515625 494.4375 412.921875 500.101562 412.921875 C 505.765625 412.921875 510.359375 417.515625 510.359375 423.179688 "/>
<path style=" stroke:none;fill-rule:nonzero;fill:rgb(100%,100%,100%);fill-opacity:1;" d="M 303.179688 39.589844 C 303.179688 45.253906 298.585938 49.847656 292.921875 49.847656 C 287.257812 49.847656 282.667969 45.253906 282.667969 39.589844 C 282.667969 33.925781 287.257812 29.332031 292.921875 29.332031 C 298.585938 29.332031 303.179688 33.925781 303.179688 39.589844 "/>
<path style=" stroke:none;fill-rule:nonzero;fill:rgb(100%,100%,100%);fill-opacity:1;" d="M 307.28125 458.050781 C 307.28125 463.714844 302.691406 468.308594 297.027344 468.308594 C 291.363281 468.308594 286.769531 463.714844 286.769531 458.050781 C 286.769531 452.386719 291.363281 447.792969 297.027344 447.792969 C 302.691406 447.792969 307.28125 452.386719 307.28125 458.050781 "/>
<path style=" stroke:none;fill-rule:nonzero;fill:rgb(100%,100%,100%);fill-opacity:1;" d="M 438.5625 25.230469 C 438.5625 30.894531 433.972656 35.488281 428.308594 35.488281 C 422.644531 35.488281 418.050781 30.894531 418.050781 25.230469 C 418.050781 19.566406 422.644531 14.972656 428.308594 14.972656 C 433.972656 14.972656 438.5625 19.566406 438.5625 25.230469 "/>
<path style=" stroke:none;fill-rule:nonzero;fill:rgb(100%,100%,100%);fill-opacity:1;" d="M 100.101562 58.050781 C 100.101562 63.714844 95.511719 68.308594 89.847656 68.308594 C 84.179688 68.308594 79.589844 63.714844 79.589844 58.050781 C 79.589844 52.386719 84.179688 47.792969 89.847656 47.792969 C 95.511719 47.792969 100.101562 52.386719 100.101562 58.050781 "/>
<path style=" stroke:none;fill-rule:nonzero;fill:rgb(100%,100%,100%);fill-opacity:1;" d="M 30.359375 505.230469 C 30.359375 510.894531 25.765625 515.488281 20.101562 515.488281 C 14.4375 515.488281 9.847656 510.894531 9.847656 505.230469 C 9.847656 499.566406 14.4375 494.972656 20.101562 494.972656 C 25.765625 494.972656 30.359375 499.566406 30.359375 505.230469 "/>
<path style=" stroke:none;fill-rule:nonzero;fill:rgb(100%,100%,100%);fill-opacity:1;" d="M 221.128906 64.203125 C 221.128906 69.871094 216.535156 74.460938 210.871094 74.460938 C 205.207031 74.460938 200.617188 69.871094 200.617188 64.203125 C 200.617188 58.539062 205.207031 53.949219 210.871094 53.949219 C 216.535156 53.949219 221.128906 58.539062 221.128906 64.203125 "/>
<path style=" stroke:none;fill-rule:nonzero;fill:rgb(100%,100%,100%);fill-opacity:1;" d="M 508.308594 521.640625 C 508.308594 527.304688 503.714844 531.898438 498.050781 531.898438 C 492.386719 531.898438 487.792969 527.304688 487.792969 521.640625 C 487.792969 515.976562 492.386719 511.382812 498.050781 511.382812 C 503.714844 511.382812 508.308594 515.976562 508.308594 521.640625 "/>
<path style=" stroke:none;fill-rule:nonzero;fill:rgb(100%,100%,100%);fill-opacity:1;" d="M 407.792969 451.898438 C 407.792969 457.5625 403.203125 462.152344 397.539062 462.152344 C 391.875 462.152344 387.28125 457.5625 387.28125 451.898438 C 387.28125 446.234375 391.875 441.640625 397.539062 441.640625 C 403.203125 441.640625 407.792969 446.234375 407.792969 451.898438 "/>
<path style=" stroke:none;fill-rule:nonzero;fill:rgb(100%,100%,100%);fill-opacity:1;" d="M 526.769531 515.488281 C 526.769531 521.152344 522.175781 525.742188 516.511719 525.742188 C 510.847656 525.742188 506.257812 521.152344 506.257812 515.488281 C 506.257812 509.824219 510.847656 505.230469 516.511719 505.230469 C 522.175781 505.230469 526.769531 509.824219 526.769531 515.488281 "/>
<path style=" stroke:none;fill-rule:nonzero;fill:rgb(100%,100%,100%);fill-opacity:1;" d="M 18.050781 248.820312 C 18.050781 254.484375 13.460938 259.078125 7.796875 259.078125 C 2.128906 259.078125 -2.460938 254.484375 -2.460938 248.820312 C -2.460938 243.15625 2.128906 238.566406 7.796875 238.566406 C 13.460938 238.566406 18.050781 243.15625 18.050781 248.820312 "/>
<path style=" stroke:none;fill-rule:nonzero;fill:rgb(100%,100%,100%);fill-opacity:1;" d="M 46.769531 371.898438 C 46.769531 377.5625 42.175781 382.152344 36.511719 382.152344 C 30.847656 382.152344 26.257812 377.5625 26.257812 371.898438 C 26.257812 366.234375 30.847656 361.640625 36.511719 361.640625 C 42.175781 361.640625 46.769531 366.234375 46.769531 371.898438 "/>
<path style=" stroke:none;fill-rule:nonzero;fill:rgb(100%,100%,100%);fill-opacity:1;" d="M 498.050781 492.921875 C 498.050781 498.585938 493.460938 503.179688 487.796875 503.179688 C 482.128906 503.179688 477.539062 498.585938 477.539062 492.921875 C 477.539062 487.257812 482.128906 482.667969 487.796875 482.667969 C 493.460938 482.667969 498.050781 487.257812 498.050781 492.921875 "/>
<path style=" stroke:none;fill-rule:nonzero;fill:rgb(100%,100%,100%);fill-opacity:1;" d="M 301.128906 429.332031 C 301.128906 434.996094 296.535156 439.589844 290.871094 439.589844 C 285.207031 439.589844 280.617188 434.996094 280.617188 429.332031 C 280.617188 423.667969 285.207031 419.078125 290.871094 419.078125 C 296.535156 419.078125 301.128906 423.667969 301.128906 429.332031 "/>
<path style=" stroke:none;fill-rule:nonzero;fill:rgb(100%,100%,100%);fill-opacity:1;" d="M 485.742188 304.203125 C 485.742188 309.871094 481.152344 314.460938 475.488281 314.460938 C 469.824219 314.460938 465.230469 309.871094 465.230469 304.203125 C 465.230469 298.539062 469.824219 293.949219 475.488281 293.949219 C 481.152344 293.949219 485.742188 298.539062 485.742188 304.203125 "/>
<path style=" stroke:none;fill-rule:nonzero;fill:rgb(100%,100%,100%);fill-opacity:1;" d="M 516.511719 78.5625 C 516.511719 84.226562 511.921875 88.820312 506.257812 88.820312 C 500.589844 88.820312 496 84.226562 496 78.5625 C 496 72.898438 500.589844 68.308594 506.257812 68.308594 C 511.921875 68.308594 516.511719 72.898438 516.511719 78.5625 "/>
<path style=" stroke:none;fill-rule:nonzero;fill:rgb(100%,100%,100%);fill-opacity:1;" d="M 151.382812 497.027344 C 151.382812 502.691406 146.792969 507.28125 141.128906 507.28125 C 135.464844 507.28125 130.871094 502.691406 130.871094 497.027344 C 130.871094 491.363281 135.464844 486.769531 141.128906 486.769531 C 146.792969 486.769531 151.382812 491.363281 151.382812 497.027344 "/>
<path style=" stroke:none;fill-rule:nonzero;fill:rgb(100%,100%,100%);fill-opacity:1;" d="M 188.308594 -5.539062 C 188.308594 0.125 183.714844 4.71875 178.050781 4.71875 C 172.386719 4.71875 167.792969 0.125 167.792969 -5.539062 C 167.792969 -11.203125 172.386719 -15.792969 178.050781 -15.792969 C 183.714844 -15.792969 188.308594 -11.203125 188.308594 -5.539062 "/>
<path style=" stroke:none;fill-rule:nonzero;fill:rgb(100%,100%,100%);fill-opacity:1;" d="M 450.871094 478.5625 C 450.871094 484.226562 446.28125 488.820312 440.613281 488.820312 C 434.949219 488.820312 430.359375 484.226562 430.359375 478.5625 C 430.359375 472.898438 434.949219 468.308594 440.613281 468.308594 C 446.28125 468.308594 450.871094 472.898438 450.871094 478.5625 "/>
<path style=" stroke:none;fill-rule:nonzero;fill:rgb(100%,100%,100%);fill-opacity:1;" d="M 260.101562 23.179688 C 260.101562 28.84375 255.511719 33.433594 249.847656 33.433594 C 244.179688 33.433594 239.589844 28.84375 239.589844 23.179688 C 239.589844 17.515625 244.179688 12.921875 249.847656 12.921875 C 255.511719 12.921875 260.101562 17.515625 260.101562 23.179688 "/>
<path style=" stroke:none;fill-rule:nonzero;fill:rgb(100%,100%,100%);fill-opacity:1;" d="M 54.972656 19.078125 C 54.972656 24.742188 50.382812 29.332031 44.71875 29.332031 C 39.054688 29.332031 34.460938 24.742188 34.460938 19.078125 C 34.460938 13.414062 39.054688 8.820312 44.71875 8.820312 C 50.382812 8.820312 54.972656 13.414062 54.972656 19.078125 "/>
<path style=" stroke:none;fill-rule:nonzero;fill:rgb(100%,100%,100%);fill-opacity:1;" d="M 465.230469 443.691406 C 465.230469 449.355469 460.636719 453.949219 454.972656 453.949219 C 449.308594 453.949219 444.71875 449.355469 444.71875 443.691406 C 444.71875 438.027344 449.308594 433.4375 454.972656 433.4375 C 460.636719 433.4375 465.230469 438.027344 465.230469 443.691406 "/>
<path style=" stroke:none;fill-rule:nonzero;fill:rgb(100%,100%,100%);fill-opacity:1;" d="M 83.691406 68.308594 C 83.691406 73.972656 79.101562 78.5625 73.4375 78.5625 C 67.773438 78.5625 63.179688 73.972656 63.179688 68.308594 C 63.179688 62.644531 67.773438 58.050781 73.4375 58.050781 C 79.101562 58.050781 83.691406 62.644531 83.691406 68.308594 "/>
<path style=" stroke:none;fill-rule:nonzero;fill:rgb(100%,84.3%,0%);fill-opacity:1;" d="M 98.050781 406.769531 C 98.050781 412.433594 93.460938 417.027344 87.796875 417.027344 C 82.128906 417.027344 77.539062 412.433594 77.539062 406.769531 C 77.539062 401.105469 82.128906 396.511719 87.796875 396.511719 C 93.460938 396.511719 98.050781 401.105469 98.050781 406.769531 "/>
<path style=" stroke:none;fill-rule:nonzero;fill:rgb(100%,84.3%,0%);fill-opacity:1;" d="M 73.433594 105.230469 C 73.433594 110.894531 68.84375 115.488281 63.179688 115.488281 C 57.515625 115.488281 52.921875 110.894531 52.921875 105.230469 C 52.921875 99.566406 57.515625 94.972656 63.179688 94.972656 C 68.84375 94.972656 73.433594 99.566406 73.433594 105.230469 "/>
<path style=" stroke:none;fill-rule:nonzero;fill:rgb(100%,84.3%,0%);fill-opacity:1;" d="M 221.128906 371.199219 C 221.128906 376.863281 216.535156 381.457031 210.871094 381.457031 C 205.207031 381.457031 200.617188 376.863281 200.617188 371.199219 C 200.617188 365.535156 205.207031 360.941406 210.871094 360.941406 C 216.535156 360.941406 221.128906 365.535156 221.128906 371.199219 "/>
<path style=" stroke:none;fill-rule:nonzero;fill:rgb(100%,84.3%,0%);fill-opacity:1;" d="M 303.179688 406.769531 C 303.179688 412.433594 298.585938 417.027344 292.921875 417.027344 C 287.257812 417.027344 282.667969 412.433594 282.667969 406.769531 C 282.667969 401.105469 287.257812 396.511719 292.921875 396.511719 C 298.585938 396.511719 303.179688 401.105469 303.179688 406.769531 "/>
<path style=" stroke:none;fill-rule:nonzero;fill:rgb(100%,84.3%,0%);fill-opacity:1;" d="M 73.433594 361.640625 C 73.433594 367.304688 68.84375 371.898438 63.179688 371.898438 C 57.515625 371.898438 52.921875 367.304688 52.921875 361.640625 C 52.921875 355.976562 57.515625 351.382812 63.179688 351.382812 C 68.84375 351.382812 73.433594 355.976562 73.433594 361.640625 "/>
<path style=" stroke:none;fill-rule:nonzero;fill:rgb(100%,84.3%,0%);fill-opacity:1;" d="M 98.050781 105.230469 C 98.050781 110.894531 93.460938 115.488281 87.796875 115.488281 C 82.128906 115.488281 77.539062 110.894531 77.539062 105.230469 C 77.539062 99.566406 82.128906 94.972656 87.796875 94.972656 C 93.460938 94.972656 98.050781 99.566406 98.050781 105.230469 "/>
<path style=" stroke:none;fill-rule:nonzero;fill:rgb(100%,84.3%,0%);fill-opacity:1;" d="M 364.71875 406.769531 C 364.71875 412.433594 360.125 417.027344 354.460938 417.027344 C 348.796875 417.027344 344.207031 412.433594 344.207031 406.769531 C 344.207031 401.105469 348.796875 396.511719 354.460938 396.511719 C 360.125 396.511719 364.71875 401.105469 364.71875 406.769531 "/>
<path style=" stroke:none;fill-rule:nonzero;fill:rgb(100%,84.3%,0%);fill-opacity:1;" d="M 441.292969 330.871094 C 441.292969 336.535156 436.699219 341.128906 431.035156 341.128906 C 425.371094 341.128906 420.777344 336.535156 420.777344 330.871094 C 420.777344 325.207031 425.371094 320.617188 431.035156 320.617188 C 436.699219 320.617188 441.292969 325.207031 441.292969 330.871094 "/>
<path style=" stroke:none;fill-rule:nonzero;fill:rgb(100%,84.3%,0%);fill-opacity:1;" d="M 459.078125 300.101562 C 459.078125 305.765625 454.484375 310.359375 448.820312 310.359375 C 443.15625 310.359375 438.566406 305.765625 438.566406 300.101562 C 438.566406 294.4375 443.15625 289.847656 448.820312 289.847656 C 454.484375 289.847656 459.078125 294.4375 459.078125 300.101562 "/>
<path style=" stroke:none;fill-rule:nonzero;fill:rgb(100%,84.3%,0%);fill-opacity:1;" d="M 91.222656 330.871094 C 91.222656 336.535156 86.628906 341.128906 80.964844 341.128906 C 75.300781 341.128906 70.707031 336.535156 70.707031 330.871094 C 70.707031 325.207031 75.300781 320.617188 80.964844 320.617188 C 86.628906 320.617188 91.222656 325.207031 91.222656 330.871094 "/>
<path style=" stroke:none;fill-rule:nonzero;fill:rgb(100%,84.3%,0%);fill-opacity:1;" d="M 73.433594 382.152344 C 73.433594 387.820312 68.84375 392.410156 63.179688 392.410156 C 57.515625 392.410156 52.921875 387.820312 52.921875 382.152344 C 52.921875 376.488281 57.515625 371.898438 63.179688 371.898438 C 68.84375 371.898438 73.433594 376.488281 73.433594 382.152344 "/>
<path style=" stroke:none;fill-rule:nonzero;fill:rgb(100%,84.3%,0%);fill-opacity:1;" d="M 459.078125 320.613281 C 459.078125 326.28125 454.484375 330.871094 448.820312 330.871094 C 443.15625 330.871094 438.566406 326.28125 438.566406 320.613281 C 438.566406 314.949219 443.15625 310.359375 448.820312 310.359375 C 454.484375 310.359375 459.078125 314.949219 459.078125 320.613281 "/>
<path style=" stroke:none;fill-rule:nonzero;fill:rgb(100%,84.3%,0%);fill-opacity:1;" d="M 344.207031 406.769531 C 344.207031 412.433594 339.613281 417.027344 333.949219 417.027344 C 328.285156 417.027344 323.691406 412.433594 323.691406 406.769531 C 323.691406 401.105469 328.285156 396.511719 333.949219 396.511719 C 339.613281 396.511719 344.207031 401.105469 344.207031 406.769531 "/>
<path style=" stroke:none;fill-rule:nonzero;fill:rgb(100%,84.3%,0%);fill-opacity:1;" d="M 109.007812 341.128906 C 109.007812 346.792969 104.414062 351.382812 98.75 351.382812 C 93.085938 351.382812 88.492188 346.792969 88.492188 341.128906 C 88.492188 335.464844 93.085938 330.871094 98.75 330.871094 C 104.414062 330.871094 109.007812 335.464844 109.007812 341.128906 "/>
<path style=" stroke:none;fill-rule:nonzero;fill:rgb(100%,84.3%,0%);fill-opacity:1;" d="M 459.078125 105.230469 C 459.078125 110.894531 454.484375 115.488281 448.820312 115.488281 C 443.15625 115.488281 438.566406 110.894531 438.566406 105.230469 C 438.566406 99.566406 443.15625 94.972656 448.820312 94.972656 C 454.484375 94.972656 459.078125 99.566406 459.078125 105.230469 "/>
<path style=" stroke:none;fill-rule:nonzero;fill:rgb(100%,84.3%,0%);fill-opacity:1;" d="M 426.257812 406.769531 C 426.257812 412.433594 421.664062 417.027344 416 417.027344 C 410.335938 417.027344 405.742188 412.433594 405.742188 406.769531 C 405.742188 401.105469 410.335938 396.511719 416 396.511719 C 421.664062 396.511719 426.257812 401.105469 426.257812 406.769531 "/>
<path style=" stroke:none;fill-rule:nonzero;fill:rgb(100%,84.3%,0%);fill-opacity:1;" d="M 282.667969 406.769531 C 282.667969 412.433594 278.074219 417.027344 272.410156 417.027344 C 266.746094 417.027344 262.152344 412.433594 262.152344 406.769531 C 262.152344 401.105469 266.746094 396.511719 272.410156 396.511719 C 278.074219 396.511719 282.667969 401.105469 282.667969 406.769531 "/>
<path style=" stroke:none;fill-rule:nonzero;fill:rgb(100%,84.3%,0%);fill-opacity:1;" d="M 333.949219 123.015625 C 333.949219 128.679688 329.355469 133.273438 323.691406 133.273438 C 318.027344 133.273438 313.4375 128.679688 313.4375 123.015625 C 313.4375 117.351562 318.027344 112.757812 323.691406 112.757812 C 329.355469 112.757812 333.949219 117.351562 333.949219 123.015625 "/>
<path style=" stroke:none;fill-rule:nonzero;fill:rgb(100%,84.3%,0%);fill-opacity:1;" d="M 180.101562 105.230469 C 180.101562 110.894531 175.511719 115.488281 169.847656 115.488281 C 164.179688 115.488281 159.589844 110.894531 159.589844 105.230469 C 159.589844 99.566406 164.179688 94.972656 169.847656 94.972656 C 175.511719 94.972656 180.101562 99.566406 180.101562 105.230469 "/>
<path style=" stroke:none;fill-rule:nonzero;fill:rgb(100%,84.3%,0%);fill-opacity:1;" d="M 436.511719 388.984375 C 436.511719 394.648438 431.921875 399.242188 426.257812 399.242188 C 420.589844 399.242188 416 394.648438 416 388.984375 C 416 383.320312 420.589844 378.726562 426.257812 378.726562 C 431.921875 378.726562 436.511719 383.320312 436.511719 388.984375 "/>
<path style=" stroke:none;fill-rule:nonzero;fill:rgb(100%,84.3%,0%);fill-opacity:1;" d="M 91.222656 146.257812 C 91.222656 151.921875 86.628906 156.511719 80.964844 156.511719 C 75.300781 156.511719 70.707031 151.921875 70.707031 146.257812 C 70.707031 140.589844 75.300781 136 80.964844 136 C 86.628906 136 91.222656 140.589844 91.222656 146.257812 "/>
<path style=" stroke:none;fill-rule:nonzero;fill:rgb(100%,84.3%,0%);fill-opacity:1;" d="M 241.640625 371.199219 C 241.640625 376.863281 237.050781 381.457031 231.386719 381.457031 C 225.71875 381.457031 221.128906 376.863281 221.128906 371.199219 C 221.128906 365.535156 225.71875 360.941406 231.386719 360.941406 C 237.050781 360.941406 241.640625 365.535156 241.640625 371.199219 "/>
<path style=" stroke:none;fill-rule:nonzero;fill:rgb(100%,84.3%,0%);fill-opacity:1;" d="M 180.101562 406.769531 C 180.101562 412.433594 175.511719 417.027344 169.847656 417.027344 C 164.179688 417.027344 159.589844 412.433594 159.589844 406.769531 C 159.589844 401.105469 164.179688 396.511719 169.847656 396.511719 C 175.511719 396.511719 180.101562 401.105469 180.101562 406.769531 "/>
<path style=" stroke:none;fill-rule:nonzero;fill:rgb(100%,84.3%,0%);fill-opacity:1;" d="M 73.433594 136 C 73.433594 141.664062 68.84375 146.257812 63.179688 146.257812 C 57.515625 146.257812 52.921875 141.664062 52.921875 136 C 52.921875 130.335938 57.515625 125.742188 63.179688 125.742188 C 68.84375 125.742188 73.433594 130.335938 73.433594 136 "/>
<path style=" stroke:none;fill-rule:nonzero;fill:rgb(100%,84.3%,0%);fill-opacity:1;" d="M 262.152344 406.769531 C 262.152344 412.433594 257.5625 417.027344 251.898438 417.027344 C 246.234375 417.027344 241.640625 412.433594 241.640625 406.769531 C 241.640625 401.105469 246.234375 396.511719 251.898438 396.511719 C 257.5625 396.511719 262.152344 401.105469 262.152344 406.769531 "/>
<path style=" stroke:none;fill-rule:nonzero;fill:rgb(100%,84.3%,0%);fill-opacity:1;" d="M 159.589844 406.769531 C 159.589844 412.433594 154.996094 417.027344 149.332031 417.027344 C 143.667969 417.027344 139.078125 412.433594 139.078125 406.769531 C 139.078125 401.105469 143.667969 396.511719 149.332031 396.511719 C 154.996094 396.511719 159.589844 401.105469 159.589844 406.769531 "/>
<path style=" stroke:none;fill-rule:nonzero;fill:rgb(100%,84.3%,0%);fill-opacity:1;" d="M 323.691406 406.769531 C 323.691406 412.433594 319.101562 417.027344 313.4375 417.027344 C 307.773438 417.027344 303.179688 412.433594 303.179688 406.769531 C 303.179688 401.105469 307.773438 396.511719 313.4375 396.511719 C 319.101562 396.511719 323.691406 401.105469 323.691406 406.769531 "/>
<path style=" stroke:none;fill-rule:nonzero;fill:rgb(100%,84.3%,0%);fill-opacity:1;" d="M 385.230469 406.769531 C 385.230469 412.433594 380.636719 417.027344 374.972656 417.027344 C 369.308594 417.027344 364.71875 412.433594 364.71875 406.769531 C 364.71875 401.105469 369.308594 396.511719 374.972656 396.511719 C 380.636719 396.511719 385.230469 401.105469 385.230469 406.769531 "/>
<path style=" stroke:none;fill-rule:nonzero;fill:rgb(100%,84.3%,0%);fill-opacity:1;" d="M 221.128906 406.769531 C 221.128906 412.433594 216.535156 417.027344 210.871094 417.027344 C 205.207031 417.027344 200.617188 412.433594 200.617188 406.769531 C 200.617188 401.105469 205.207031 396.511719 210.871094 396.511719 C 216.535156 396.511719 221.128906 401.105469 221.128906 406.769531 "/>
<path style=" stroke:none;fill-rule:nonzero;fill:rgb(100%,84.3%,0%);fill-opacity:1;" d="M 241.640625 406.769531 C 241.640625 412.433594 237.050781 417.027344 231.386719 417.027344 C 225.71875 417.027344 221.128906 412.433594 221.128906 406.769531 C 221.128906 401.105469 225.71875 396.511719 231.386719 396.511719 C 237.050781 396.511719 241.640625 401.105469 241.640625 406.769531 "/>
<path style=" stroke:none;fill-rule:nonzero;fill:rgb(100%,84.3%,0%);fill-opacity:1;" d="M 91.222656 371.898438 C 91.222656 377.5625 86.628906 382.152344 80.964844 382.152344 C 75.300781 382.152344 70.707031 377.5625 70.707031 371.898438 C 70.707031 366.234375 75.300781 361.640625 80.964844 361.640625 C 86.628906 361.640625 91.222656 366.234375 91.222656 371.898438 "/>
<path style=" stroke:none;fill-rule:nonzero;fill:rgb(100%,84.3%,0%);fill-opacity:1;" d="M 73.433594 341.128906 C 73.433594 346.792969 68.84375 351.382812 63.179688 351.382812 C 57.515625 351.382812 52.921875 346.792969 52.921875 341.128906 C 52.921875 335.464844 57.515625 330.871094 63.179688 330.871094 C 68.84375 330.871094 73.433594 335.464844 73.433594 341.128906 "/>
<path style=" stroke:none;fill-rule:nonzero;fill:rgb(100%,84.3%,0%);fill-opacity:1;" d="M 282.667969 105.230469 C 282.667969 110.894531 278.074219 115.488281 272.410156 115.488281 C 266.746094 115.488281 262.152344 110.894531 262.152344 105.230469 C 262.152344 99.566406 266.746094 94.972656 272.410156 94.972656 C 278.074219 94.972656 282.667969 99.566406 282.667969 105.230469 "/>
<path style=" stroke:none;fill-rule:nonzero;fill:rgb(100%,84.3%,0%);fill-opacity:1;" d="M 118.5625 406.769531 C 118.5625 412.433594 113.972656 417.027344 108.308594 417.027344 C 102.644531 417.027344 98.050781 412.433594 98.050781 406.769531 C 98.050781 401.105469 102.644531 396.511719 108.308594 396.511719 C 113.972656 396.511719 118.5625 401.105469 118.5625 406.769531 "/>
<path style=" stroke:none;fill-rule:nonzero;fill:rgb(100%,84.3%,0%);fill-opacity:1;" d="M 374.972656 123.015625 C 374.972656 128.679688 370.382812 133.273438 364.71875 133.273438 C 359.054688 133.273438 354.460938 128.679688 354.460938 123.015625 C 354.460938 117.351562 359.054688 112.757812 364.71875 112.757812 C 370.382812 112.757812 374.972656 117.351562 374.972656 123.015625 "/>
<path style=" stroke:none;fill-rule:nonzero;fill:rgb(100%,84.3%,0%);fill-opacity:1;" d="M 128.820312 123.015625 C 128.820312 128.679688 124.226562 133.273438 118.5625 133.273438 C 112.898438 133.273438 108.308594 128.679688 108.308594 123.015625 C 108.308594 117.351562 112.898438 112.757812 118.5625 112.757812 C 124.226562 112.757812 128.820312 117.351562 128.820312 123.015625 "/>
<path style=" stroke:none;fill-rule:nonzero;fill:rgb(100%,84.3%,0%);fill-opacity:1;" d="M 459.078125 406.769531 C 459.078125 412.433594 454.484375 417.027344 448.820312 417.027344 C 443.15625 417.027344 438.566406 412.433594 438.566406 406.769531 C 438.566406 401.105469 443.15625 396.511719 448.820312 396.511719 C 454.484375 396.511719 459.078125 401.105469 459.078125 406.769531 "/>
<path style=" stroke:none;fill-rule:nonzero;fill:rgb(100%,84.3%,0%);fill-opacity:1;" d="M 200.617188 406.769531 C 200.617188 412.433594 196.023438 417.027344 190.359375 417.027344 C 184.695312 417.027344 180.101562 412.433594 180.101562 406.769531 C 180.101562 401.105469 184.695312 396.511719 190.359375 396.511719 C 196.023438 396.511719 200.617188 401.105469 200.617188 406.769531 "/>
<path style=" stroke:none;fill-rule:nonzero;fill:rgb(100%,84.3%,0%);fill-opacity:1;" d="M 73.433594 406.769531 C 73.433594 412.433594 68.84375 417.027344 63.179688 417.027344 C 57.515625 417.027344 52.921875 412.433594 52.921875 406.769531 C 52.921875 401.105469 57.515625 396.511719 63.179688 396.511719 C 68.84375 396.511719 73.433594 401.105469 73.433594 406.769531 "/>
<path style=" stroke:none;fill-rule:nonzero;fill:rgb(100%,84.3%,0%);fill-opacity:1;" d="M 118.5625 140.800781 C 118.5625 146.464844 113.972656 151.058594 108.308594 151.058594 C 102.644531 151.058594 98.050781 146.464844 98.050781 140.800781 C 98.050781 135.136719 102.644531 130.542969 108.308594 130.542969 C 113.972656 130.542969 118.5625 135.136719 118.5625 140.800781 "/>
<path style=" stroke:none;fill-rule:nonzero;fill:rgb(100%,84.3%,0%);fill-opacity:1;" d="M 405.742188 406.769531 C 405.742188 412.433594 401.152344 417.027344 395.488281 417.027344 C 389.824219 417.027344 385.230469 412.433594 385.230469 406.769531 C 385.230469 401.105469 389.824219 396.511719 395.488281 396.511719 C 401.152344 396.511719 405.742188 401.105469 405.742188 406.769531 "/>
<path style=" stroke:none;fill-rule:nonzero;fill:rgb(100%,84.3%,0%);fill-opacity:1;" d="M 459.078125 218.050781 C 459.078125 223.714844 454.484375 228.308594 448.820312 228.308594 C 443.15625 228.308594 438.566406 223.714844 438.566406 218.050781 C 438.566406 212.386719 443.15625 207.792969 448.820312 207.792969 C 454.484375 207.792969 459.078125 212.386719 459.078125 218.050781 "/>
<path style=" stroke:none;fill-rule:nonzero;fill:rgb(100%,84.3%,0%);fill-opacity:1;" d="M 118.5625 105.230469 C 118.5625 110.894531 113.972656 115.488281 108.308594 115.488281 C 102.644531 115.488281 98.050781 110.894531 98.050781 105.230469 C 98.050781 99.566406 102.644531 94.972656 108.308594 94.972656 C 113.972656 94.972656 118.5625 99.566406 118.5625 105.230469 "/>
<path style=" stroke:none;fill-rule:nonzero;fill:rgb(100%,84.3%,0%);fill-opacity:1;" d="M 459.078125 238.5625 C 459.078125 244.226562 454.484375 248.820312 448.820312 248.820312 C 443.15625 248.820312 438.566406 244.226562 438.566406 238.5625 C 438.566406 232.898438 443.15625 228.308594 448.820312 228.308594 C 454.484375 228.308594 459.078125 232.898438 459.078125 238.5625 "/>
<path style=" stroke:none;fill-rule:nonzero;fill:rgb(100%,84.3%,0%);fill-opacity:1;" d="M 459.078125 259.078125 C 459.078125 264.742188 454.484375 269.332031 448.820312 269.332031 C 443.15625 269.332031 438.566406 264.742188 438.566406 259.078125 C 438.566406 253.414062 443.15625 248.820312 448.820312 248.820312 C 454.484375 248.820312 459.078125 253.414062 459.078125 259.078125 "/>
<path style=" stroke:none;fill-rule:nonzero;fill:rgb(100%,84.3%,0%);fill-opacity:1;" d="M 139.078125 406.769531 C 139.078125 412.433594 134.484375 417.027344 128.820312 417.027344 C 123.15625 417.027344 118.566406 412.433594 118.566406 406.769531 C 118.566406 401.105469 123.15625 396.511719 128.820312 396.511719 C 134.484375 396.511719 139.078125 401.105469 139.078125 406.769531 "/>
<path style=" stroke:none;fill-rule:nonzero;fill:rgb(100%,84.3%,0%);fill-opacity:1;" d="M 159.589844 105.230469 C 159.589844 110.894531 154.996094 115.488281 149.332031 115.488281 C 143.667969 115.488281 139.078125 110.894531 139.078125 105.230469 C 139.078125 99.566406 143.667969 94.972656 149.332031 94.972656 C 154.996094 94.972656 159.589844 99.566406 159.589844 105.230469 "/>
<path style=" stroke:none;fill-rule:nonzero;fill:rgb(100%,84.3%,0%);fill-opacity:1;" d="M 459.078125 279.589844 C 459.078125 285.253906 454.484375 289.847656 448.820312 289.847656 C 443.15625 289.847656 438.566406 285.253906 438.566406 279.589844 C 438.566406 273.925781 443.15625 269.332031 448.820312 269.332031 C 454.484375 269.332031 459.078125 273.925781 459.078125 279.589844 "/>
<path style=" stroke:none;fill-rule:nonzero;fill:rgb(100%,84.3%,0%);fill-opacity:1;" d="M 200.617188 105.230469 C 200.617188 110.894531 196.023438 115.488281 190.359375 115.488281 C 184.695312 115.488281 180.101562 110.894531 180.101562 105.230469 C 180.101562 99.566406 184.695312 94.972656 190.359375 94.972656 C 196.023438 94.972656 200.617188 99.566406 200.617188 105.230469 "/>
<path style=" stroke:none;fill-rule:nonzero;fill:rgb(100%,84.3%,0%);fill-opacity:1;" d="M 108.308594 123.015625 C 108.308594 128.679688 103.714844 133.273438 98.050781 133.273438 C 92.386719 133.273438 87.792969 128.679688 87.792969 123.015625 C 87.792969 117.351562 92.386719 112.757812 98.050781 112.757812 C 103.714844 112.757812 108.308594 117.351562 108.308594 123.015625 "/>
<path style=" stroke:none;fill-rule:nonzero;fill:rgb(100%,84.3%,0%);fill-opacity:1;" d="M 91.222656 248.820312 C 91.222656 254.484375 86.628906 259.078125 80.964844 259.078125 C 75.300781 259.078125 70.707031 254.484375 70.707031 248.820312 C 70.707031 243.15625 75.300781 238.566406 80.964844 238.566406 C 86.628906 238.566406 91.222656 243.15625 91.222656 248.820312 "/>
<path style=" stroke:none;fill-rule:nonzero;fill:rgb(100%,84.3%,0%);fill-opacity:1;" d="M 251.898438 123.015625 C 251.898438 128.679688 247.304688 133.273438 241.640625 133.273438 C 235.976562 133.273438 231.382812 128.679688 231.382812 123.015625 C 231.382812 117.351562 235.976562 112.757812 241.640625 112.757812 C 247.304688 112.757812 251.898438 117.351562 251.898438 123.015625 "/>
<path style=" stroke:none;fill-rule:nonzero;fill:rgb(100%,84.3%,0%);fill-opacity:1;" d="M 139.078125 105.230469 C 139.078125 110.894531 134.484375 115.488281 128.820312 115.488281 C 123.15625 115.488281 118.566406 110.894531 118.566406 105.230469 C 118.566406 99.566406 123.15625 94.972656 128.820312 94.972656 C 134.484375 94.972656 139.078125 99.566406 139.078125 105.230469 "/>
<path style=" stroke:none;fill-rule:nonzero;fill:rgb(100%,84.3%,0%);fill-opacity:1;" d="M 118.5625 371.199219 C 118.5625 376.863281 113.972656 381.457031 108.308594 381.457031 C 102.644531 381.457031 98.050781 376.863281 98.050781 371.199219 C 98.050781 365.535156 102.644531 360.941406 108.308594 360.941406 C 113.972656 360.941406 118.5625 365.535156 118.5625 371.199219 "/>
<path style=" stroke:none;fill-rule:nonzero;fill:rgb(100%,84.3%,0%);fill-opacity:1;" d="M 221.128906 105.230469 C 221.128906 110.894531 216.535156 115.488281 210.871094 115.488281 C 205.207031 115.488281 200.617188 110.894531 200.617188 105.230469 C 200.617188 99.566406 205.207031 94.972656 210.871094 94.972656 C 216.535156 94.972656 221.128906 99.566406 221.128906 105.230469 "/>
<path style=" stroke:none;fill-rule:nonzero;fill:rgb(100%,84.3%,0%);fill-opacity:1;" d="M 459.078125 341.128906 C 459.078125 346.792969 454.484375 351.382812 448.820312 351.382812 C 443.15625 351.382812 438.566406 346.792969 438.566406 341.128906 C 438.566406 335.464844 443.15625 330.871094 448.820312 330.871094 C 454.484375 330.871094 459.078125 335.464844 459.078125 341.128906 "/>
</g>
</svg>
