<?xml version="1.0" encoding="UTF-8"?>
<svg xmlns="http://www.w3.org/2000/svg" xmlns:xlink="http://www.w3.org/1999/xlink" width="512pt" height="512pt" viewBox="0 0 512 512" version="1.1">
<g id="surface81">
<path style=" stroke:none;fill-rule:nonzero;fill:rgb(26.7%,26.7%,26.7%);fill-opacity:1;" d="M 149.09375 0 L 362.902344 0 L 362.902344 512 L 149.09375 512 Z M 149.09375 0 "/>
<path style=" stroke:none;fill-rule:nonzero;fill:rgb(19.2%,38.8%,66.7%);fill-opacity:1;" d="M 166.910156 42.667969 L 345.085938 42.667969 L 345.085938 469.332031 L 166.910156 469.332031 Z M 166.910156 42.667969 "/>
<path style=" stroke:none;fill-rule:nonzero;fill:rgb(100%,84.3%,0%);fill-opacity:1;" d="M 271.195312 48.625 C 271.195312 52.597656 265.238281 52.597656 265.238281 48.625 C 265.238281 44.652344 271.195312 44.652344 271.195312 48.625 "/>
<path style=" stroke:none;fill-rule:nonzero;fill:rgb(100%,84.3%,0%);fill-opacity:1;" d="M 295.03125 48.625 C 295.03125 52.597656 289.074219 52.597656 289.074219 48.625 C 289.074219 44.652344 295.03125 44.652344 295.03125 48.625 "/>
<path style=" stroke:none;fill-rule:nonzero;fill:rgb(100%,84.3%,0%);fill-opacity:1;" d="M 330.785156 48.625 C 330.785156 52.597656 324.828125 52.597656 324.828125 48.625 C 324.828125 44.652344 330.785156 44.652344 330.785156 48.625 "/>
<path style=" stroke:none;fill-rule:nonzero;fill:rgb(100%,84.3%,0%);fill-opacity:1;" d="M 175.851562 48.625 C 175.851562 52.597656 169.890625 52.597656 169.890625 48.625 C 169.890625 44.652344 175.851562 44.652344 175.851562 48.625 "/>
<path style=" stroke:none;fill-rule:nonzero;fill:rgb(100%,84.3%,0%);fill-opacity:1;" d="M 324.828125 48.625 C 324.828125 52.597656 318.867188 52.597656 318.867188 48.625 C 318.867188 44.652344 324.828125 44.652344 324.828125 48.625 "/>
<path style=" stroke:none;fill-rule:nonzero;fill:rgb(100%,84.3%,0%);fill-opacity:1;" d="M 289.074219 48.625 C 289.074219 52.597656 283.113281 52.597656 283.113281 48.625 C 283.113281 44.652344 289.074219 44.652344 289.074219 48.625 "/>
<path style=" stroke:none;fill-rule:nonzero;fill:rgb(100%,84.3%,0%);fill-opacity:1;" d="M 306.949219 463.375 C 306.949219 467.347656 300.992188 467.347656 300.992188 463.375 C 300.992188 459.402344 306.949219 459.402344 306.949219 463.375 "/>
<path style=" stroke:none;fill-rule:nonzero;fill:rgb(100%,84.3%,0%);fill-opacity:1;" d="M 199.6875 463.375 C 199.6875 467.347656 193.726562 467.347656 193.726562 463.375 C 193.726562 459.402344 199.6875 459.402344 199.6875 463.375 "/>
<path style=" stroke:none;fill-rule:nonzero;fill:rgb(100%,84.3%,0%);fill-opacity:1;" d="M 235.441406 463.375 C 235.441406 467.347656 229.484375 467.347656 229.484375 463.375 C 229.484375 459.402344 235.441406 459.402344 235.441406 463.375 "/>
<path style=" stroke:none;fill-rule:nonzero;fill:rgb(100%,84.3%,0%);fill-opacity:1;" d="M 175.851562 463.375 C 175.851562 467.347656 169.890625 467.347656 169.890625 463.375 C 169.890625 459.402344 175.851562 459.402344 175.851562 463.375 "/>
<path style=" stroke:none;fill-rule:nonzero;fill:rgb(100%,84.3%,0%);fill-opacity:1;" d="M 205.648438 463.375 C 205.648438 467.347656 199.6875 467.347656 199.6875 463.375 C 199.6875 459.402344 205.648438 459.402344 205.648438 463.375 "/>
<path style=" stroke:none;fill-rule:nonzero;fill:rgb(100%,84.3%,0%);fill-opacity:1;" d="M 283.113281 48.625 C 283.113281 52.597656 277.15625 52.597656 277.15625 48.625 C 277.15625 44.652344 283.113281 44.652344 283.113281 48.625 "/>
<path style=" stroke:none;fill-rule:nonzero;fill:rgb(100%,84.3%,0%);fill-opacity:1;" d="M 187.769531 48.625 C 187.769531 52.597656 181.808594 52.597656 181.808594 48.625 C 181.808594 44.652344 187.769531 44.652344 187.769531 48.625 "/>
<path style=" stroke:none;fill-rule:nonzero;fill:rgb(100%,84.3%,0%);fill-opacity:1;" d="M 181.808594 463.375 C 181.808594 467.347656 175.851562 467.347656 175.851562 463.375 C 175.851562 459.402344 181.808594 459.402344 181.808594 463.375 "/>
<path style=" stroke:none;fill-rule:nonzero;fill:rgb(100%,84.3%,0%);fill-opacity:1;" d="M 229.484375 48.625 C 229.484375 52.597656 223.523438 52.597656 223.523438 48.625 C 223.523438 44.652344 229.484375 44.652344 229.484375 48.625 "/>
<path style=" stroke:none;fill-rule:nonzero;fill:rgb(100%,84.3%,0%);fill-opacity:1;" d="M 295.03125 463.375 C 295.03125 467.347656 289.074219 467.347656 289.074219 463.375 C 289.074219 459.402344 295.03125 459.402344 295.03125 463.375 "/>
<path style=" stroke:none;fill-rule:nonzero;fill:rgb(100%,84.3%,0%);fill-opacity:1;" d="M 253.320312 48.625 C 253.320312 52.597656 247.359375 52.597656 247.359375 48.625 C 247.359375 44.652344 253.320312 44.652344 253.320312 48.625 "/>
<path style=" stroke:none;fill-rule:nonzero;fill:rgb(100%,84.3%,0%);fill-opacity:1;" d="M 312.910156 463.375 C 312.910156 467.347656 306.949219 467.347656 306.949219 463.375 C 306.949219 459.402344 312.910156 459.402344 312.910156 463.375 "/>
<path style=" stroke:none;fill-rule:nonzero;fill:rgb(100%,84.3%,0%);fill-opacity:1;" d="M 241.402344 463.375 C 241.402344 467.347656 235.441406 467.347656 235.441406 463.375 C 235.441406 459.402344 241.402344 459.402344 241.402344 463.375 "/>
<path style=" stroke:none;fill-rule:nonzero;fill:rgb(100%,84.3%,0%);fill-opacity:1;" d="M 211.605469 463.375 C 211.605469 467.347656 205.644531 467.347656 205.644531 463.375 C 205.644531 459.402344 211.605469 459.402344 211.605469 463.375 "/>
<path style=" stroke:none;fill-rule:nonzero;fill:rgb(100%,84.3%,0%);fill-opacity:1;" d="M 205.648438 48.625 C 205.648438 52.597656 199.6875 52.597656 199.6875 48.625 C 199.6875 44.652344 205.648438 44.652344 205.648438 48.625 "/>
<path style=" stroke:none;fill-rule:nonzero;fill:rgb(100%,84.3%,0%);fill-opacity:1;" d="M 253.320312 463.375 C 253.320312 467.347656 247.359375 467.347656 247.359375 463.375 C 247.359375 459.402344 253.320312 459.402344 253.320312 463.375 "/>
<path style=" stroke:none;fill-rule:nonzero;fill:rgb(100%,84.3%,0%);fill-opacity:1;" d="M 342.109375 463.375 C 342.109375 467.347656 336.148438 467.347656 336.148438 463.375 C 336.148438 459.402344 342.109375 459.402344 342.109375 463.375 "/>
<path style=" stroke:none;fill-rule:nonzero;fill:rgb(100%,84.3%,0%);fill-opacity:1;" d="M 187.769531 463.375 C 187.769531 467.347656 181.808594 467.347656 181.808594 463.375 C 181.808594 459.402344 187.769531 459.402344 187.769531 463.375 "/>
<path style=" stroke:none;fill-rule:nonzero;fill:rgb(100%,84.3%,0%);fill-opacity:1;" d="M 247.359375 48.625 C 247.359375 52.597656 241.402344 52.597656 241.402344 48.625 C 241.402344 44.652344 247.359375 44.652344 247.359375 48.625 "/>
<path style=" stroke:none;fill-rule:nonzero;fill:rgb(100%,84.3%,0%);fill-opacity:1;" d="M 193.730469 463.375 C 193.730469 467.347656 187.769531 467.347656 187.769531 463.375 C 187.769531 459.402344 193.730469 459.402344 193.730469 463.375 "/>
<path style=" stroke:none;fill-rule:nonzero;fill:rgb(100%,84.3%,0%);fill-opacity:1;" d="M 333.765625 53.792969 C 333.765625 57.765625 327.804688 57.765625 327.804688 53.792969 C 327.804688 49.820312 333.765625 49.820312 333.765625 53.792969 "/>
<path style=" stroke:none;fill-rule:nonzero;fill:rgb(100%,84.3%,0%);fill-opacity:1;" d="M 259.277344 48.625 C 259.277344 52.597656 253.320312 52.597656 253.320312 48.625 C 253.320312 44.652344 259.277344 44.652344 259.277344 48.625 "/>
<path style=" stroke:none;fill-rule:nonzero;fill:rgb(100%,84.3%,0%);fill-opacity:1;" d="M 217.566406 48.625 C 217.566406 52.597656 211.605469 52.597656 211.605469 48.625 C 211.605469 44.652344 217.566406 44.652344 217.566406 48.625 "/>
<path style=" stroke:none;fill-rule:nonzero;fill:rgb(100%,84.3%,0%);fill-opacity:1;" d="M 289.074219 463.375 C 289.074219 467.347656 283.113281 467.347656 283.113281 463.375 C 283.113281 459.402344 289.074219 459.402344 289.074219 463.375 "/>
<path style=" stroke:none;fill-rule:nonzero;fill:rgb(100%,84.3%,0%);fill-opacity:1;" d="M 318.867188 463.375 C 318.867188 467.347656 312.910156 467.347656 312.910156 463.375 C 312.910156 459.402344 318.867188 459.402344 318.867188 463.375 "/>
<path style=" stroke:none;fill-rule:nonzero;fill:rgb(100%,84.3%,0%);fill-opacity:1;" d="M 199.6875 48.625 C 199.6875 52.597656 193.726562 52.597656 193.726562 48.625 C 193.726562 44.652344 199.6875 44.652344 199.6875 48.625 "/>
<path style=" stroke:none;fill-rule:nonzero;fill:rgb(100%,84.3%,0%);fill-opacity:1;" d="M 283.113281 463.375 C 283.113281 467.347656 277.15625 467.347656 277.15625 463.375 C 277.15625 459.402344 283.113281 459.402344 283.113281 463.375 "/>
<path style=" stroke:none;fill-rule:nonzero;fill:rgb(100%,84.3%,0%);fill-opacity:1;" d="M 312.910156 48.625 C 312.910156 52.597656 306.949219 52.597656 306.949219 48.625 C 306.949219 44.652344 312.910156 44.652344 312.910156 48.625 "/>
<path style=" stroke:none;fill-rule:nonzero;fill:rgb(100%,84.3%,0%);fill-opacity:1;" d="M 247.359375 463.375 C 247.359375 467.347656 241.402344 467.347656 241.402344 463.375 C 241.402344 459.402344 247.359375 459.402344 247.359375 463.375 "/>
<path style=" stroke:none;fill-rule:nonzero;fill:rgb(100%,84.3%,0%);fill-opacity:1;" d="M 306.949219 48.625 C 306.949219 52.597656 300.992188 52.597656 300.992188 48.625 C 300.992188 44.652344 306.949219 44.652344 306.949219 48.625 "/>
<path style=" stroke:none;fill-rule:nonzero;fill:rgb(100%,84.3%,0%);fill-opacity:1;" d="M 324.828125 463.375 C 324.828125 467.347656 318.867188 467.347656 318.867188 463.375 C 318.867188 459.402344 324.828125 459.402344 324.828125 463.375 "/>
<path style=" stroke:none;fill-rule:nonzero;fill:rgb(100%,84.3%,0%);fill-opacity:1;" d="M 211.605469 48.625 C 211.605469 52.597656 205.644531 52.597656 205.644531 48.625 C 205.644531 44.652344 211.605469 44.652344 211.605469 48.625 "/>
<path style=" stroke:none;fill-rule:nonzero;fill:rgb(100%,84.3%,0%);fill-opacity:1;" d="M 300.992188 48.625 C 300.992188 52.597656 295.03125 52.597656 295.03125 48.625 C 295.03125 44.652344 300.992188 44.652344 300.992188 48.625 "/>
<path style=" stroke:none;fill-rule:nonzero;fill:rgb(100%,84.3%,0%);fill-opacity:1;" d="M 277.15625 48.625 C 277.15625 52.597656 271.195312 52.597656 271.195312 48.625 C 271.195312 44.652344 277.15625 44.652344 277.15625 48.625 "/>
<path style=" stroke:none;fill-rule:nonzero;fill:rgb(100%,84.3%,0%);fill-opacity:1;" d="M 223.523438 463.375 C 223.523438 467.347656 217.566406 467.347656 217.566406 463.375 C 217.566406 459.402344 223.523438 459.402344 223.523438 463.375 "/>
<path style=" stroke:none;fill-rule:nonzero;fill:rgb(100%,84.3%,0%);fill-opacity:1;" d="M 265.238281 463.375 C 265.238281 467.347656 259.277344 467.347656 259.277344 463.375 C 259.277344 459.402344 265.238281 459.402344 265.238281 463.375 "/>
<path style=" stroke:none;fill-rule:nonzero;fill:rgb(100%,84.3%,0%);fill-opacity:1;" d="M 330.785156 463.375 C 330.785156 467.347656 324.828125 467.347656 324.828125 463.375 C 324.828125 459.402344 330.785156 459.402344 330.785156 463.375 "/>
<path style=" stroke:none;fill-rule:nonzero;fill:rgb(100%,84.3%,0%);fill-opacity:1;" d="M 271.195312 463.375 C 271.195312 467.347656 265.238281 467.347656 265.238281 463.375 C 265.238281 459.402344 271.195312 459.402344 271.195312 463.375 "/>
<path style=" stroke:none;fill-rule:nonzero;fill:rgb(100%,84.3%,0%);fill-opacity:1;" d="M 217.566406 463.375 C 217.566406 467.347656 211.605469 467.347656 211.605469 463.375 C 211.605469 459.402344 217.566406 459.402344 217.566406 463.375 "/>
<path style=" stroke:none;fill-rule:nonzero;fill:rgb(100%,84.3%,0%);fill-opacity:1;" d="M 277.15625 463.375 C 277.15625 467.347656 271.195312 467.347656 271.195312 463.375 C 271.195312 459.402344 277.15625 459.402344 277.15625 463.375 "/>
<path style=" stroke:none;fill-rule:nonzero;fill:rgb(100%,84.3%,0%);fill-opacity:1;" d="M 265.238281 48.625 C 265.238281 52.597656 259.277344 52.597656 259.277344 48.625 C 259.277344 44.652344 265.238281 44.652344 265.238281 48.625 "/>
<path style=" stroke:none;fill-rule:nonzero;fill:rgb(100%,84.3%,0%);fill-opacity:1;" d="M 229.484375 463.375 C 229.484375 467.347656 223.523438 467.347656 223.523438 463.375 C 223.523438 459.402344 229.484375 459.402344 229.484375 463.375 "/>
<path style=" stroke:none;fill-rule:nonzero;fill:rgb(100%,84.3%,0%);fill-opacity:1;" d="M 241.402344 48.625 C 241.402344 52.597656 235.441406 52.597656 235.441406 48.625 C 235.441406 44.652344 241.402344 44.652344 241.402344 48.625 "/>
<path style=" stroke:none;fill-rule:nonzero;fill:rgb(100%,84.3%,0%);fill-opacity:1;" d="M 300.992188 463.375 C 300.992188 467.347656 295.03125 467.347656 295.03125 463.375 C 295.03125 459.402344 300.992188 459.402344 300.992188 463.375 "/>
<path style=" stroke:none;fill-rule:nonzero;fill:rgb(100%,84.3%,0%);fill-opacity:1;" d="M 181.808594 48.625 C 181.808594 52.597656 175.851562 52.597656 175.851562 48.625 C 175.851562 44.652344 181.808594 44.652344 181.808594 48.625 "/>
<path style=" stroke:none;fill-rule:nonzero;fill:rgb(100%,84.3%,0%);fill-opacity:1;" d="M 342.109375 48.625 C 342.109375 52.597656 336.148438 52.597656 336.148438 48.625 C 336.148438 44.652344 342.109375 44.652344 342.109375 48.625 "/>
<path style=" stroke:none;fill-rule:nonzero;fill:rgb(100%,84.3%,0%);fill-opacity:1;" d="M 235.441406 48.625 C 235.441406 52.597656 229.484375 52.597656 229.484375 48.625 C 229.484375 44.652344 235.441406 44.652344 235.441406 48.625 "/>
<path style=" stroke:none;fill-rule:nonzero;fill:rgb(100%,84.3%,0%);fill-opacity:1;" d="M 259.277344 463.375 C 259.277344 467.347656 253.320312 467.347656 253.320312 463.375 C 253.320312 459.402344 259.277344 459.402344 259.277344 463.375 "/>
<path style=" stroke:none;fill-rule:nonzero;fill:rgb(100%,84.3%,0%);fill-opacity:1;" d="M 223.523438 48.625 C 223.523438 52.597656 217.566406 52.597656 217.566406 48.625 C 217.566406 44.652344 223.523438 44.652344 223.523438 48.625 "/>
<path style=" stroke:none;fill-rule:nonzero;fill:rgb(100%,84.3%,0%);fill-opacity:1;" d="M 318.867188 48.625 C 318.867188 52.597656 312.910156 52.597656 312.910156 48.625 C 312.910156 44.652344 318.867188 44.652344 318.867188 48.625 "/>
</g>
</svg>
