<?xml version="1.0" encoding="UTF-8"?>
<svg xmlns="http://www.w3.org/2000/svg" xmlns:xlink="http://www.w3.org/1999/xlink" width="512pt" height="512pt" viewBox="0 0 512 512" version="1.1">
<g id="surface101">
<rect x="0" y="0" width="512" height="512" style="fill:rgb(26.7%,26.7%,26.7%);fill-opacity:1;stroke:none;"/>
<path style=" stroke:none;fill-rule:nonzero;fill:rgb(19.2%,38.8%,66.7%);fill-opacity:1;" d="M 0 46.546875 L 259.730469 46.546875 L 259.730469 512 L 0 512 Z M 0 46.546875 "/>
<path style=" stroke:none;fill-rule:nonzero;fill:rgb(100%,84.3%,0%);fill-opacity:1;" d="M 205.726562 62.550781 C 205.726562 68.261719 197.152344 68.261719 197.152344 62.550781 C 197.152344 56.835938 205.726562 56.835938 205.726562 62.550781 "/>
<path style=" stroke:none;fill-rule:nonzero;fill:rgb(100%,84.3%,0%);fill-opacity:1;" d="M 255.441406 246.269531 C 255.441406 251.984375 246.871094 251.984375 246.871094 246.269531 C 246.871094 240.554688 255.441406 240.554688 255.441406 246.269531 "/>
<path style=" stroke:none;fill-rule:nonzero;fill:rgb(100%,84.3%,0%);fill-opacity:1;" d="M 240.011719 62.550781 C 240.011719 68.261719 231.441406 68.261719 231.441406 62.550781 C 231.441406 56.835938 240.011719 56.835938 240.011719 62.550781 "/>
<path style=" stroke:none;fill-rule:nonzero;fill:rgb(100%,84.3%,0%);fill-opacity:1;" d="M 244.300781 55.117188 C 244.300781 60.832031 235.726562 60.832031 235.726562 55.117188 C 235.726562 49.402344 244.300781 49.402344 244.300781 55.117188 "/>
<path style=" stroke:none;fill-rule:nonzero;fill:rgb(100%,84.3%,0%);fill-opacity:1;" d="M 255.441406 469.140625 C 255.441406 474.855469 246.871094 474.855469 246.871094 469.140625 C 246.871094 463.425781 255.441406 463.425781 255.441406 469.140625 "/>
<path style=" stroke:none;fill-rule:nonzero;fill:rgb(100%,84.3%,0%);fill-opacity:1;" d="M 154.292969 62.550781 C 154.292969 68.261719 145.722656 68.261719 145.722656 62.550781 C 145.722656 56.835938 154.292969 56.835938 154.292969 62.550781 "/>
<path style=" stroke:none;fill-rule:nonzero;fill:rgb(100%,84.3%,0%);fill-opacity:1;" d="M 255.441406 366.277344 C 255.441406 371.992188 246.871094 371.992188 246.871094 366.277344 C 246.871094 360.5625 255.441406 360.5625 255.441406 366.277344 "/>
<path style=" stroke:none;fill-rule:nonzero;fill:rgb(100%,84.3%,0%);fill-opacity:1;" d="M 98.578125 55.117188 C 98.578125 60.832031 90.003906 60.832031 90.003906 55.117188 C 90.003906 49.402344 98.578125 49.402344 98.578125 55.117188 "/>
<path style=" stroke:none;fill-rule:nonzero;fill:rgb(100%,84.3%,0%);fill-opacity:1;" d="M 255.441406 494.855469 C 255.441406 500.570312 246.871094 500.570312 246.871094 494.855469 C 246.871094 489.140625 255.441406 489.140625 255.441406 494.855469 "/>
<path style=" stroke:none;fill-rule:nonzero;fill:rgb(100%,84.3%,0%);fill-opacity:1;" d="M 235.726562 55.117188 C 235.726562 60.832031 227.15625 60.832031 227.15625 55.117188 C 227.15625 49.402344 235.726562 49.402344 235.726562 55.117188 "/>
<path style=" stroke:none;fill-rule:nonzero;fill:rgb(100%,84.3%,0%);fill-opacity:1;" d="M 255.441406 460.570312 C 255.441406 466.285156 246.871094 466.285156 246.871094 460.570312 C 246.871094 454.855469 255.441406 454.855469 255.441406 460.570312 "/>
<path style=" stroke:none;fill-rule:nonzero;fill:rgb(100%,84.3%,0%);fill-opacity:1;" d="M 255.441406 109.121094 C 255.441406 114.835938 246.871094 114.835938 246.871094 109.121094 C 246.871094 103.40625 255.441406 103.40625 255.441406 109.121094 "/>
<path style=" stroke:none;fill-rule:nonzero;fill:rgb(100%,84.3%,0%);fill-opacity:1;" d="M 192.867188 55.117188 C 192.867188 60.832031 184.296875 60.832031 184.296875 55.117188 C 184.296875 49.402344 192.867188 49.402344 192.867188 55.117188 "/>
<path style=" stroke:none;fill-rule:nonzero;fill:rgb(100%,84.3%,0%);fill-opacity:1;" d="M 120.007812 62.550781 C 120.007812 68.261719 111.433594 68.261719 111.433594 62.550781 C 111.433594 56.835938 120.007812 56.835938 120.007812 62.550781 "/>
<path style=" stroke:none;fill-rule:nonzero;fill:rgb(100%,84.3%,0%);fill-opacity:1;" d="M 248.011719 439.140625 C 248.011719 444.855469 239.4375 444.855469 239.4375 439.140625 C 239.4375 433.425781 248.011719 433.425781 248.011719 439.140625 "/>
<path style=" stroke:none;fill-rule:nonzero;fill:rgb(100%,84.3%,0%);fill-opacity:1;" d="M 255.441406 237.699219 C 255.441406 243.414062 246.871094 243.414062 246.871094 237.699219 C 246.871094 231.984375 255.441406 231.984375 255.441406 237.699219 "/>
<path style=" stroke:none;fill-rule:nonzero;fill:rgb(100%,84.3%,0%);fill-opacity:1;" d="M 255.441406 55.117188 C 255.441406 60.832031 246.871094 60.832031 246.871094 55.117188 C 246.871094 49.402344 255.441406 49.402344 255.441406 55.117188 "/>
<path style=" stroke:none;fill-rule:nonzero;fill:rgb(100%,84.3%,0%);fill-opacity:1;" d="M 34.289062 62.550781 C 34.289062 68.261719 25.714844 68.261719 25.714844 62.550781 C 25.714844 56.835938 34.289062 56.835938 34.289062 62.550781 "/>
<path style=" stroke:none;fill-rule:nonzero;fill:rgb(100%,84.3%,0%);fill-opacity:1;" d="M 255.441406 254.84375 C 255.441406 260.558594 246.871094 260.558594 246.871094 254.84375 C 246.871094 249.128906 255.441406 249.128906 255.441406 254.84375 "/>
<path style=" stroke:none;fill-rule:nonzero;fill:rgb(100%,84.3%,0%);fill-opacity:1;" d="M 255.441406 263.414062 C 255.441406 269.128906 246.871094 269.128906 246.871094 263.414062 C 246.871094 257.699219 255.441406 257.699219 255.441406 263.414062 "/>
<path style=" stroke:none;fill-rule:nonzero;fill:rgb(100%,84.3%,0%);fill-opacity:1;" d="M 255.441406 289.128906 C 255.441406 294.84375 246.871094 294.84375 246.871094 289.128906 C 246.871094 283.414062 255.441406 283.414062 255.441406 289.128906 "/>
<path style=" stroke:none;fill-rule:nonzero;fill:rgb(100%,84.3%,0%);fill-opacity:1;" d="M 60.003906 62.550781 C 60.003906 68.261719 51.429688 68.261719 51.429688 62.550781 C 51.429688 56.835938 60.003906 56.835938 60.003906 62.550781 "/>
<path style=" stroke:none;fill-rule:nonzero;fill:rgb(100%,84.3%,0%);fill-opacity:1;" d="M 255.441406 151.980469 C 255.441406 157.695312 246.871094 157.695312 246.871094 151.980469 C 246.871094 146.265625 255.441406 146.265625 255.441406 151.980469 "/>
<path style=" stroke:none;fill-rule:nonzero;fill:rgb(100%,84.3%,0%);fill-opacity:1;" d="M 90.003906 55.117188 C 90.003906 60.832031 81.433594 60.832031 81.433594 55.117188 C 81.433594 49.402344 90.003906 49.402344 90.003906 55.117188 "/>
<path style=" stroke:none;fill-rule:nonzero;fill:rgb(100%,84.3%,0%);fill-opacity:1;" d="M 227.15625 55.117188 C 227.15625 60.832031 218.585938 60.832031 218.585938 55.117188 C 218.585938 49.402344 227.15625 49.402344 227.15625 55.117188 "/>
<path style=" stroke:none;fill-rule:nonzero;fill:rgb(100%,84.3%,0%);fill-opacity:1;" d="M 17.144531 62.550781 C 17.144531 68.261719 8.570312 68.261719 8.570312 62.550781 C 8.570312 56.835938 17.144531 56.835938 17.144531 62.550781 "/>
<path style=" stroke:none;fill-rule:nonzero;fill:rgb(100%,84.3%,0%);fill-opacity:1;" d="M 255.441406 340.5625 C 255.441406 346.277344 246.871094 346.277344 246.871094 340.5625 C 246.871094 334.847656 255.441406 334.847656 255.441406 340.5625 "/>
<path style=" stroke:none;fill-rule:nonzero;fill:rgb(100%,84.3%,0%);fill-opacity:1;" d="M 255.441406 323.417969 C 255.441406 329.132812 246.871094 329.132812 246.871094 323.417969 C 246.871094 317.703125 255.441406 317.703125 255.441406 323.417969 "/>
<path style=" stroke:none;fill-rule:nonzero;fill:rgb(100%,84.3%,0%);fill-opacity:1;" d="M 248.011719 473.425781 C 248.011719 479.140625 239.4375 479.140625 239.4375 473.425781 C 239.4375 467.710938 248.011719 467.710938 248.011719 473.425781 "/>
<path style=" stroke:none;fill-rule:nonzero;fill:rgb(100%,84.3%,0%);fill-opacity:1;" d="M 175.722656 55.117188 C 175.722656 60.832031 167.152344 60.832031 167.152344 55.117188 C 167.152344 49.402344 175.722656 49.402344 175.722656 55.117188 "/>
<path style=" stroke:none;fill-rule:nonzero;fill:rgb(100%,84.3%,0%);fill-opacity:1;" d="M 255.441406 486.285156 C 255.441406 492 246.871094 492 246.871094 486.285156 C 246.871094 480.570312 255.441406 480.570312 255.441406 486.285156 "/>
<path style=" stroke:none;fill-rule:nonzero;fill:rgb(100%,84.3%,0%);fill-opacity:1;" d="M 248.011719 404.851562 C 248.011719 410.566406 239.4375 410.566406 239.4375 404.851562 C 239.4375 399.136719 248.011719 399.136719 248.011719 404.851562 "/>
<path style=" stroke:none;fill-rule:nonzero;fill:rgb(100%,84.3%,0%);fill-opacity:1;" d="M 180.011719 62.550781 C 180.011719 68.261719 171.4375 68.261719 171.4375 62.550781 C 171.4375 56.835938 180.011719 56.835938 180.011719 62.550781 "/>
<path style=" stroke:none;fill-rule:nonzero;fill:rgb(100%,84.3%,0%);fill-opacity:1;" d="M 255.441406 160.550781 C 255.441406 166.265625 246.871094 166.265625 246.871094 160.550781 C 246.871094 154.835938 255.441406 154.835938 255.441406 160.550781 "/>
<path style=" stroke:none;fill-rule:nonzero;fill:rgb(100%,84.3%,0%);fill-opacity:1;" d="M 85.71875 62.550781 C 85.71875 68.261719 77.148438 68.261719 77.148438 62.550781 C 77.148438 56.835938 85.71875 56.835938 85.71875 62.550781 "/>
<path style=" stroke:none;fill-rule:nonzero;fill:rgb(100%,84.3%,0%);fill-opacity:1;" d="M 248.011719 327.703125 C 248.011719 333.417969 239.4375 333.417969 239.4375 327.703125 C 239.4375 321.988281 248.011719 321.988281 248.011719 327.703125 "/>
<path style=" stroke:none;fill-rule:nonzero;fill:rgb(100%,84.3%,0%);fill-opacity:1;" d="M 128.578125 62.550781 C 128.578125 68.261719 120.007812 68.261719 120.007812 62.550781 C 120.007812 56.835938 128.578125 56.835938 128.578125 62.550781 "/>
<path style=" stroke:none;fill-rule:nonzero;fill:rgb(100%,84.3%,0%);fill-opacity:1;" d="M 201.441406 55.117188 C 201.441406 60.832031 192.867188 60.832031 192.867188 55.117188 C 192.867188 49.402344 201.441406 49.402344 201.441406 55.117188 "/>
<path style=" stroke:none;fill-rule:nonzero;fill:rgb(100%,84.3%,0%);fill-opacity:1;" d="M 248.011719 379.136719 C 248.011719 384.847656 239.4375 384.847656 239.4375 379.136719 C 239.4375 373.421875 248.011719 373.421875 248.011719 379.136719 "/>
<path style=" stroke:none;fill-rule:nonzero;fill:rgb(100%,84.3%,0%);fill-opacity:1;" d="M 255.441406 349.132812 C 255.441406 354.847656 246.871094 354.847656 246.871094 349.132812 C 246.871094 343.417969 255.441406 343.417969 255.441406 349.132812 "/>
<path style=" stroke:none;fill-rule:nonzero;fill:rgb(100%,84.3%,0%);fill-opacity:1;" d="M 255.441406 229.128906 C 255.441406 234.839844 246.871094 234.839844 246.871094 229.128906 C 246.871094 223.414062 255.441406 223.414062 255.441406 229.128906 "/>
<path style=" stroke:none;fill-rule:nonzero;fill:rgb(100%,84.3%,0%);fill-opacity:1;" d="M 214.296875 62.550781 C 214.296875 68.261719 205.726562 68.261719 205.726562 62.550781 C 205.726562 56.835938 214.296875 56.835938 214.296875 62.550781 "/>
<path style=" stroke:none;fill-rule:nonzero;fill:rgb(100%,84.3%,0%);fill-opacity:1;" d="M 255.441406 134.835938 C 255.441406 140.550781 246.871094 140.550781 246.871094 134.835938 C 246.871094 129.121094 255.441406 129.121094 255.441406 134.835938 "/>
<path style=" stroke:none;fill-rule:nonzero;fill:rgb(100%,84.3%,0%);fill-opacity:1;" d="M 72.859375 55.117188 C 72.859375 60.832031 64.289062 60.832031 64.289062 55.117188 C 64.289062 49.402344 72.859375 49.402344 72.859375 55.117188 "/>
<path style=" stroke:none;fill-rule:nonzero;fill:rgb(100%,84.3%,0%);fill-opacity:1;" d="M 102.863281 62.550781 C 102.863281 68.261719 94.292969 68.261719 94.292969 62.550781 C 94.292969 56.835938 102.863281 56.835938 102.863281 62.550781 "/>
<path style=" stroke:none;fill-rule:nonzero;fill:rgb(100%,84.3%,0%);fill-opacity:1;" d="M 68.574219 62.550781 C 68.574219 68.261719 60.003906 68.261719 60.003906 62.550781 C 60.003906 56.835938 68.574219 56.835938 68.574219 62.550781 "/>
<path style=" stroke:none;fill-rule:nonzero;fill:rgb(100%,84.3%,0%);fill-opacity:1;" d="M 171.4375 62.550781 C 171.4375 68.261719 162.867188 68.261719 162.867188 62.550781 C 162.867188 56.835938 171.4375 56.835938 171.4375 62.550781 "/>
<path style=" stroke:none;fill-rule:nonzero;fill:rgb(100%,84.3%,0%);fill-opacity:1;" d="M 197.152344 62.550781 C 197.152344 68.261719 188.582031 68.261719 188.582031 62.550781 C 188.582031 56.835938 197.152344 56.835938 197.152344 62.550781 "/>
<path style=" stroke:none;fill-rule:nonzero;fill:rgb(100%,84.3%,0%);fill-opacity:1;" d="M 255.441406 314.847656 C 255.441406 320.5625 246.871094 320.5625 246.871094 314.847656 C 246.871094 309.132812 255.441406 309.132812 255.441406 314.847656 "/>
<path style=" stroke:none;fill-rule:nonzero;fill:rgb(100%,84.3%,0%);fill-opacity:1;" d="M 255.441406 443.425781 C 255.441406 449.140625 246.871094 449.140625 246.871094 443.425781 C 246.871094 437.710938 255.441406 437.710938 255.441406 443.425781 "/>
<path style=" stroke:none;fill-rule:nonzero;fill:rgb(100%,84.3%,0%);fill-opacity:1;" d="M 124.292969 55.117188 C 124.292969 60.832031 115.722656 60.832031 115.722656 55.117188 C 115.722656 49.402344 124.292969 49.402344 124.292969 55.117188 "/>
<path style=" stroke:none;fill-rule:nonzero;fill:rgb(100%,84.3%,0%);fill-opacity:1;" d="M 255.441406 186.269531 C 255.441406 191.984375 246.871094 191.984375 246.871094 186.269531 C 246.871094 180.554688 255.441406 180.554688 255.441406 186.269531 "/>
<path style=" stroke:none;fill-rule:nonzero;fill:rgb(100%,84.3%,0%);fill-opacity:1;" d="M 111.433594 62.550781 C 111.433594 68.261719 102.863281 68.261719 102.863281 62.550781 C 102.863281 56.835938 111.433594 56.835938 111.433594 62.550781 "/>
<path style=" stroke:none;fill-rule:nonzero;fill:rgb(100%,84.3%,0%);fill-opacity:1;" d="M 255.441406 220.554688 C 255.441406 226.269531 246.871094 226.269531 246.871094 220.554688 C 246.871094 214.839844 255.441406 214.839844 255.441406 220.554688 "/>
<path style=" stroke:none;fill-rule:nonzero;fill:rgb(100%,84.3%,0%);fill-opacity:1;" d="M 255.441406 434.851562 C 255.441406 440.566406 246.871094 440.566406 246.871094 434.851562 C 246.871094 429.136719 255.441406 429.136719 255.441406 434.851562 "/>
<path style=" stroke:none;fill-rule:nonzero;fill:rgb(100%,84.3%,0%);fill-opacity:1;" d="M 47.144531 55.117188 C 47.144531 60.832031 38.574219 60.832031 38.574219 55.117188 C 38.574219 49.402344 47.144531 49.402344 47.144531 55.117188 "/>
<path style=" stroke:none;fill-rule:nonzero;fill:rgb(100%,84.3%,0%);fill-opacity:1;" d="M 51.429688 62.550781 C 51.429688 68.261719 42.859375 68.261719 42.859375 62.550781 C 42.859375 56.835938 51.429688 56.835938 51.429688 62.550781 "/>
<path style=" stroke:none;fill-rule:nonzero;fill:rgb(100%,84.3%,0%);fill-opacity:1;" d="M 158.578125 55.117188 C 158.578125 60.832031 150.007812 60.832031 150.007812 55.117188 C 150.007812 49.402344 158.578125 49.402344 158.578125 55.117188 "/>
<path style=" stroke:none;fill-rule:nonzero;fill:rgb(100%,84.3%,0%);fill-opacity:1;" d="M 255.441406 143.40625 C 255.441406 149.121094 246.871094 149.121094 246.871094 143.40625 C 246.871094 137.695312 255.441406 137.695312 255.441406 143.40625 "/>
<path style=" stroke:none;fill-rule:nonzero;fill:rgb(100%,84.3%,0%);fill-opacity:1;" d="M 248.011719 464.855469 C 248.011719 470.570312 239.4375 470.570312 239.4375 464.855469 C 239.4375 459.140625 248.011719 459.140625 248.011719 464.855469 "/>
<path style=" stroke:none;fill-rule:nonzero;fill:rgb(100%,84.3%,0%);fill-opacity:1;" d="M 248.011719 481.996094 C 248.011719 487.710938 239.4375 487.710938 239.4375 481.996094 C 239.4375 476.285156 248.011719 476.285156 248.011719 481.996094 "/>
<path style=" stroke:none;fill-rule:nonzero;fill:rgb(100%,84.3%,0%);fill-opacity:1;" d="M 248.011719 361.992188 C 248.011719 367.707031 239.4375 367.707031 239.4375 361.992188 C 239.4375 356.277344 248.011719 356.277344 248.011719 361.992188 "/>
<path style=" stroke:none;fill-rule:nonzero;fill:rgb(100%,84.3%,0%);fill-opacity:1;" d="M 248.011719 447.710938 C 248.011719 453.425781 239.4375 453.425781 239.4375 447.710938 C 239.4375 441.996094 248.011719 441.996094 248.011719 447.710938 "/>
<path style=" stroke:none;fill-rule:nonzero;fill:rgb(100%,84.3%,0%);fill-opacity:1;" d="M 231.441406 62.550781 C 231.441406 68.261719 222.871094 68.261719 222.871094 62.550781 C 222.871094 56.835938 231.441406 56.835938 231.441406 62.550781 "/>
<path style=" stroke:none;fill-rule:nonzero;fill:rgb(100%,84.3%,0%);fill-opacity:1;" d="M 12.859375 55.117188 C 12.859375 60.832031 4.285156 60.832031 4.285156 55.117188 C 4.285156 49.402344 12.859375 49.402344 12.859375 55.117188 "/>
<path style=" stroke:none;fill-rule:nonzero;fill:rgb(100%,84.3%,0%);fill-opacity:1;" d="M 255.441406 74.832031 C 255.441406 80.546875 246.871094 80.546875 246.871094 74.832031 C 246.871094 69.117188 255.441406 69.117188 255.441406 74.832031 "/>
<path style=" stroke:none;fill-rule:nonzero;fill:rgb(100%,84.3%,0%);fill-opacity:1;" d="M 255.441406 66.261719 C 255.441406 71.976562 246.871094 71.976562 246.871094 66.261719 C 246.871094 60.546875 255.441406 60.546875 255.441406 66.261719 "/>
<path style=" stroke:none;fill-rule:nonzero;fill:rgb(100%,84.3%,0%);fill-opacity:1;" d="M 255.441406 117.691406 C 255.441406 123.40625 246.871094 123.40625 246.871094 117.691406 C 246.871094 111.976562 255.441406 111.976562 255.441406 117.691406 "/>
<path style=" stroke:none;fill-rule:nonzero;fill:rgb(100%,84.3%,0%);fill-opacity:1;" d="M 218.582031 55.117188 C 218.582031 60.832031 210.011719 60.832031 210.011719 55.117188 C 210.011719 49.402344 218.582031 49.402344 218.582031 55.117188 "/>
<path style=" stroke:none;fill-rule:nonzero;fill:rgb(100%,84.3%,0%);fill-opacity:1;" d="M 42.859375 62.550781 C 42.859375 68.261719 34.289062 68.261719 34.289062 62.550781 C 34.289062 56.835938 42.859375 56.835938 42.859375 62.550781 "/>
<path style=" stroke:none;fill-rule:nonzero;fill:rgb(100%,84.3%,0%);fill-opacity:1;" d="M 255.441406 391.992188 C 255.441406 397.707031 246.871094 397.707031 246.871094 391.992188 C 246.871094 386.277344 255.441406 386.277344 255.441406 391.992188 "/>
<path style=" stroke:none;fill-rule:nonzero;fill:rgb(100%,84.3%,0%);fill-opacity:1;" d="M 150.007812 55.117188 C 150.007812 60.832031 141.4375 60.832031 141.4375 55.117188 C 141.4375 49.402344 150.007812 49.402344 150.007812 55.117188 "/>
<path style=" stroke:none;fill-rule:nonzero;fill:rgb(100%,84.3%,0%);fill-opacity:1;" d="M 255.441406 400.566406 C 255.441406 406.28125 246.871094 406.28125 246.871094 400.566406 C 246.871094 394.851562 255.441406 394.851562 255.441406 400.566406 "/>
<path style=" stroke:none;fill-rule:nonzero;fill:rgb(100%,84.3%,0%);fill-opacity:1;" d="M 255.441406 357.707031 C 255.441406 363.421875 246.871094 363.421875 246.871094 357.707031 C 246.871094 351.992188 255.441406 351.992188 255.441406 357.707031 "/>
<path style=" stroke:none;fill-rule:nonzero;fill:rgb(100%,84.3%,0%);fill-opacity:1;" d="M 255.441406 477.710938 C 255.441406 483.425781 246.871094 483.425781 246.871094 477.710938 C 246.871094 471.996094 255.441406 471.996094 255.441406 477.710938 "/>
<path style=" stroke:none;fill-rule:nonzero;fill:rgb(100%,84.3%,0%);fill-opacity:1;" d="M 255.441406 100.546875 C 255.441406 106.261719 246.871094 106.261719 246.871094 100.546875 C 246.871094 94.832031 255.441406 94.832031 255.441406 100.546875 "/>
<path style=" stroke:none;fill-rule:nonzero;fill:rgb(100%,84.3%,0%);fill-opacity:1;" d="M 255.441406 177.695312 C 255.441406 183.410156 246.871094 183.410156 246.871094 177.695312 C 246.871094 171.980469 255.441406 171.980469 255.441406 177.695312 "/>
<path style=" stroke:none;fill-rule:nonzero;fill:rgb(100%,84.3%,0%);fill-opacity:1;" d="M 137.152344 62.550781 C 137.152344 68.261719 128.578125 68.261719 128.578125 62.550781 C 128.578125 56.835938 137.152344 56.835938 137.152344 62.550781 "/>
<path style=" stroke:none;fill-rule:nonzero;fill:rgb(100%,84.3%,0%);fill-opacity:1;" d="M 94.289062 62.550781 C 94.289062 68.261719 85.71875 68.261719 85.71875 62.550781 C 85.71875 56.835938 94.289062 56.835938 94.289062 62.550781 "/>
<path style=" stroke:none;fill-rule:nonzero;fill:rgb(100%,84.3%,0%);fill-opacity:1;" d="M 81.433594 55.117188 C 81.433594 60.832031 72.859375 60.832031 72.859375 55.117188 C 72.859375 49.402344 81.433594 49.402344 81.433594 55.117188 "/>
<path style=" stroke:none;fill-rule:nonzero;fill:rgb(100%,84.3%,0%);fill-opacity:1;" d="M 255.441406 280.558594 C 255.441406 286.273438 246.871094 286.273438 246.871094 280.558594 C 246.871094 274.84375 255.441406 274.84375 255.441406 280.558594 "/>
<path style=" stroke:none;fill-rule:nonzero;fill:rgb(100%,84.3%,0%);fill-opacity:1;" d="M 77.148438 62.550781 C 77.148438 68.261719 68.574219 68.261719 68.574219 62.550781 C 68.574219 56.835938 77.148438 56.835938 77.148438 62.550781 "/>
<path style=" stroke:none;fill-rule:nonzero;fill:rgb(100%,84.3%,0%);fill-opacity:1;" d="M 25.714844 62.550781 C 25.714844 68.261719 17.144531 68.261719 17.144531 62.550781 C 17.144531 56.835938 25.714844 56.835938 25.714844 62.550781 "/>
<path style=" stroke:none;fill-rule:nonzero;fill:rgb(100%,84.3%,0%);fill-opacity:1;" d="M 255.441406 331.988281 C 255.441406 337.703125 246.871094 337.703125 246.871094 331.988281 C 246.871094 326.277344 255.441406 326.277344 255.441406 331.988281 "/>
<path style=" stroke:none;fill-rule:nonzero;fill:rgb(100%,84.3%,0%);fill-opacity:1;" d="M 255.441406 91.976562 C 255.441406 97.691406 246.871094 97.691406 246.871094 91.976562 C 246.871094 86.261719 255.441406 86.261719 255.441406 91.976562 "/>
<path style=" stroke:none;fill-rule:nonzero;fill:rgb(100%,84.3%,0%);fill-opacity:1;" d="M 162.867188 62.550781 C 162.867188 68.261719 154.292969 68.261719 154.292969 62.550781 C 154.292969 56.835938 162.867188 56.835938 162.867188 62.550781 "/>
<path style=" stroke:none;fill-rule:nonzero;fill:rgb(100%,84.3%,0%);fill-opacity:1;" d="M 255.441406 409.136719 C 255.441406 414.851562 246.871094 414.851562 246.871094 409.136719 C 246.871094 403.421875 255.441406 403.421875 255.441406 409.136719 "/>
<path style=" stroke:none;fill-rule:nonzero;fill:rgb(100%,84.3%,0%);fill-opacity:1;" d="M 145.722656 62.550781 C 145.722656 68.261719 137.148438 68.261719 137.148438 62.550781 C 137.148438 56.835938 145.722656 56.835938 145.722656 62.550781 "/>
<path style=" stroke:none;fill-rule:nonzero;fill:rgb(100%,84.3%,0%);fill-opacity:1;" d="M 255.441406 169.125 C 255.441406 174.839844 246.871094 174.839844 246.871094 169.125 C 246.871094 163.410156 255.441406 163.410156 255.441406 169.125 "/>
<path style=" stroke:none;fill-rule:nonzero;fill:rgb(100%,84.3%,0%);fill-opacity:1;" d="M 248.011719 353.421875 C 248.011719 359.132812 239.4375 359.132812 239.4375 353.421875 C 239.4375 347.707031 248.011719 347.707031 248.011719 353.421875 "/>
<path style=" stroke:none;fill-rule:nonzero;fill:rgb(100%,84.3%,0%);fill-opacity:1;" d="M 21.429688 55.117188 C 21.429688 60.832031 12.859375 60.832031 12.859375 55.117188 C 12.859375 49.402344 21.429688 49.402344 21.429688 55.117188 "/>
<path style=" stroke:none;fill-rule:nonzero;fill:rgb(100%,84.3%,0%);fill-opacity:1;" d="M 30.003906 55.117188 C 30.003906 60.832031 21.429688 60.832031 21.429688 55.117188 C 21.429688 49.402344 30.003906 49.402344 30.003906 55.117188 "/>
<path style=" stroke:none;fill-rule:nonzero;fill:rgb(100%,84.3%,0%);fill-opacity:1;" d="M 188.582031 62.550781 C 188.582031 68.261719 180.011719 68.261719 180.011719 62.550781 C 180.011719 56.835938 188.582031 56.835938 188.582031 62.550781 "/>
<path style=" stroke:none;fill-rule:nonzero;fill:rgb(100%,84.3%,0%);fill-opacity:1;" d="M 255.441406 417.710938 C 255.441406 423.421875 246.871094 423.421875 246.871094 417.710938 C 246.871094 411.996094 255.441406 411.996094 255.441406 417.710938 "/>
<path style=" stroke:none;fill-rule:nonzero;fill:rgb(100%,84.3%,0%);fill-opacity:1;" d="M 132.863281 55.117188 C 132.863281 60.832031 124.292969 60.832031 124.292969 55.117188 C 124.292969 49.402344 132.863281 49.402344 132.863281 55.117188 "/>
<path style=" stroke:none;fill-rule:nonzero;fill:rgb(100%,84.3%,0%);fill-opacity:1;" d="M 255.441406 126.265625 C 255.441406 131.980469 246.871094 131.980469 246.871094 126.265625 C 246.871094 120.550781 255.441406 120.550781 255.441406 126.265625 "/>
<path style=" stroke:none;fill-rule:nonzero;fill:rgb(100%,84.3%,0%);fill-opacity:1;" d="M 38.574219 55.117188 C 38.574219 60.832031 30.003906 60.832031 30.003906 55.117188 C 30.003906 49.402344 38.574219 49.402344 38.574219 55.117188 "/>
<path style=" stroke:none;fill-rule:nonzero;fill:rgb(100%,84.3%,0%);fill-opacity:1;" d="M 248.011719 387.707031 C 248.011719 393.421875 239.4375 393.421875 239.4375 387.707031 C 239.4375 381.992188 248.011719 381.992188 248.011719 387.707031 "/>
<path style=" stroke:none;fill-rule:nonzero;fill:rgb(100%,84.3%,0%);fill-opacity:1;" d="M 255.441406 306.273438 C 255.441406 311.988281 246.871094 311.988281 246.871094 306.273438 C 246.871094 300.558594 255.441406 300.558594 255.441406 306.273438 "/>
<path style=" stroke:none;fill-rule:nonzero;fill:rgb(100%,84.3%,0%);fill-opacity:1;" d="M 255.441406 203.410156 C 255.441406 209.125 246.871094 209.125 246.871094 203.410156 C 246.871094 197.695312 255.441406 197.695312 255.441406 203.410156 "/>
<path style=" stroke:none;fill-rule:nonzero;fill:rgb(100%,84.3%,0%);fill-opacity:1;" d="M 248.011719 370.5625 C 248.011719 376.277344 239.4375 376.277344 239.4375 370.5625 C 239.4375 364.847656 248.011719 364.847656 248.011719 370.5625 "/>
<path style=" stroke:none;fill-rule:nonzero;fill:rgb(100%,84.3%,0%);fill-opacity:1;" d="M 141.4375 55.117188 C 141.4375 60.832031 132.863281 60.832031 132.863281 55.117188 C 132.863281 49.402344 141.4375 49.402344 141.4375 55.117188 "/>
<path style=" stroke:none;fill-rule:nonzero;fill:rgb(100%,84.3%,0%);fill-opacity:1;" d="M 255.441406 83.40625 C 255.441406 89.121094 246.871094 89.121094 246.871094 83.40625 C 246.871094 77.691406 255.441406 77.691406 255.441406 83.40625 "/>
<path style=" stroke:none;fill-rule:nonzero;fill:rgb(100%,84.3%,0%);fill-opacity:1;" d="M 255.441406 503.429688 C 255.441406 509.144531 246.871094 509.144531 246.871094 503.429688 C 246.871094 497.714844 255.441406 497.714844 255.441406 503.429688 "/>
<path style=" stroke:none;fill-rule:nonzero;fill:rgb(100%,84.3%,0%);fill-opacity:1;" d="M 255.441406 374.847656 C 255.441406 380.5625 246.871094 380.5625 246.871094 374.847656 C 246.871094 369.132812 255.441406 369.132812 255.441406 374.847656 "/>
<path style=" stroke:none;fill-rule:nonzero;fill:rgb(100%,84.3%,0%);fill-opacity:1;" d="M 222.871094 62.550781 C 222.871094 68.261719 214.296875 68.261719 214.296875 62.550781 C 214.296875 56.835938 222.871094 56.835938 222.871094 62.550781 "/>
<path style=" stroke:none;fill-rule:nonzero;fill:rgb(100%,84.3%,0%);fill-opacity:1;" d="M 255.441406 451.996094 C 255.441406 457.710938 246.871094 457.710938 246.871094 451.996094 C 246.871094 446.28125 255.441406 446.28125 255.441406 451.996094 "/>
<path style=" stroke:none;fill-rule:nonzero;fill:rgb(100%,84.3%,0%);fill-opacity:1;" d="M 255.441406 194.839844 C 255.441406 200.554688 246.871094 200.554688 246.871094 194.839844 C 246.871094 189.125 255.441406 189.125 255.441406 194.839844 "/>
<path style=" stroke:none;fill-rule:nonzero;fill:rgb(100%,84.3%,0%);fill-opacity:1;" d="M 248.011719 499.140625 C 248.011719 504.855469 239.4375 504.855469 239.4375 499.140625 C 239.4375 493.425781 248.011719 493.425781 248.011719 499.140625 "/>
<path style=" stroke:none;fill-rule:nonzero;fill:rgb(100%,84.3%,0%);fill-opacity:1;" d="M 248.011719 490.570312 C 248.011719 496.285156 239.4375 496.285156 239.4375 490.570312 C 239.4375 484.855469 248.011719 484.855469 248.011719 490.570312 "/>
<path style=" stroke:none;fill-rule:nonzero;fill:rgb(100%,84.3%,0%);fill-opacity:1;" d="M 255.441406 297.703125 C 255.441406 303.417969 246.871094 303.417969 246.871094 297.703125 C 246.871094 291.988281 255.441406 291.988281 255.441406 297.703125 "/>
<path style=" stroke:none;fill-rule:nonzero;fill:rgb(100%,84.3%,0%);fill-opacity:1;" d="M 255.441406 383.421875 C 255.441406 389.136719 246.871094 389.136719 246.871094 383.421875 C 246.871094 377.707031 255.441406 377.707031 255.441406 383.421875 "/>
<path style=" stroke:none;fill-rule:nonzero;fill:rgb(100%,84.3%,0%);fill-opacity:1;" d="M 55.71875 55.117188 C 55.71875 60.832031 47.144531 60.832031 47.144531 55.117188 C 47.144531 49.402344 55.71875 49.402344 55.71875 55.117188 "/>
<path style=" stroke:none;fill-rule:nonzero;fill:rgb(100%,84.3%,0%);fill-opacity:1;" d="M 248.011719 456.28125 C 248.011719 461.996094 239.4375 461.996094 239.4375 456.28125 C 239.4375 450.570312 248.011719 450.570312 248.011719 456.28125 "/>
<path style=" stroke:none;fill-rule:nonzero;fill:rgb(100%,84.3%,0%);fill-opacity:1;" d="M 255.441406 211.984375 C 255.441406 217.699219 246.871094 217.699219 246.871094 211.984375 C 246.871094 206.269531 255.441406 206.269531 255.441406 211.984375 "/>
<path style=" stroke:none;fill-rule:nonzero;fill:rgb(100%,84.3%,0%);fill-opacity:1;" d="M 115.722656 55.117188 C 115.722656 60.832031 107.148438 60.832031 107.148438 55.117188 C 107.148438 49.402344 115.722656 49.402344 115.722656 55.117188 "/>
<path style=" stroke:none;fill-rule:nonzero;fill:rgb(100%,84.3%,0%);fill-opacity:1;" d="M 248.011719 430.566406 C 248.011719 436.28125 239.4375 436.28125 239.4375 430.566406 C 239.4375 424.851562 248.011719 424.851562 248.011719 430.566406 "/>
<path style=" stroke:none;fill-rule:nonzero;fill:rgb(100%,84.3%,0%);fill-opacity:1;" d="M 248.011719 421.996094 C 248.011719 427.710938 239.4375 427.710938 239.4375 421.996094 C 239.4375 416.28125 248.011719 416.28125 248.011719 421.996094 "/>
<path style=" stroke:none;fill-rule:nonzero;fill:rgb(100%,84.3%,0%);fill-opacity:1;" d="M 248.011719 413.421875 C 248.011719 419.136719 239.4375 419.136719 239.4375 413.421875 C 239.4375 407.707031 248.011719 407.707031 248.011719 413.421875 "/>
<path style=" stroke:none;fill-rule:nonzero;fill:rgb(100%,84.3%,0%);fill-opacity:1;" d="M 255.441406 426.28125 C 255.441406 431.996094 246.871094 431.996094 246.871094 426.28125 C 246.871094 420.566406 255.441406 420.566406 255.441406 426.28125 "/>
<path style=" stroke:none;fill-rule:nonzero;fill:rgb(100%,84.3%,0%);fill-opacity:1;" d="M 248.011719 396.277344 C 248.011719 401.992188 239.4375 401.992188 239.4375 396.277344 C 239.4375 390.5625 248.011719 390.5625 248.011719 396.277344 "/>
<path style=" stroke:none;fill-rule:nonzero;fill:rgb(100%,84.3%,0%);fill-opacity:1;" d="M 184.296875 55.117188 C 184.296875 60.832031 175.722656 60.832031 175.722656 55.117188 C 175.722656 49.402344 184.296875 49.402344 184.296875 55.117188 "/>
<path style=" stroke:none;fill-rule:nonzero;fill:rgb(100%,84.3%,0%);fill-opacity:1;" d="M 107.148438 55.117188 C 107.148438 60.832031 98.578125 60.832031 98.578125 55.117188 C 98.578125 49.402344 107.148438 49.402344 107.148438 55.117188 "/>
<path style=" stroke:none;fill-rule:nonzero;fill:rgb(100%,84.3%,0%);fill-opacity:1;" d="M 210.011719 55.117188 C 210.011719 60.832031 201.441406 60.832031 201.441406 55.117188 C 201.441406 49.402344 210.011719 49.402344 210.011719 55.117188 "/>
<path style=" stroke:none;fill-rule:nonzero;fill:rgb(100%,84.3%,0%);fill-opacity:1;" d="M 64.289062 55.117188 C 64.289062 60.832031 55.71875 60.832031 55.71875 55.117188 C 55.71875 49.402344 64.289062 49.402344 64.289062 55.117188 "/>
<path style=" stroke:none;fill-rule:nonzero;fill:rgb(100%,84.3%,0%);fill-opacity:1;" d="M 255.441406 271.988281 C 255.441406 277.703125 246.871094 277.703125 246.871094 271.988281 C 246.871094 266.273438 255.441406 266.273438 255.441406 271.988281 "/>
<path style=" stroke:none;fill-rule:nonzero;fill:rgb(100%,84.3%,0%);fill-opacity:1;" d="M 248.011719 344.847656 C 248.011719 350.5625 239.4375 350.5625 239.4375 344.847656 C 239.4375 339.132812 248.011719 339.132812 248.011719 344.847656 "/>
<path style=" stroke:none;fill-rule:nonzero;fill:rgb(100%,84.3%,0%);fill-opacity:1;" d="M 248.011719 336.277344 C 248.011719 341.992188 239.4375 341.992188 239.4375 336.277344 C 239.4375 330.5625 248.011719 330.5625 248.011719 336.277344 "/>
<path style=" stroke:none;fill-rule:nonzero;fill:rgb(100%,84.3%,0%);fill-opacity:1;" d="M 167.152344 55.117188 C 167.152344 60.832031 158.578125 60.832031 158.578125 55.117188 C 158.578125 49.402344 167.152344 49.402344 167.152344 55.117188 "/>
</g>
</svg>
