<?xml version="1.0" encoding="UTF-8"?>
<svg xmlns="http://www.w3.org/2000/svg" xmlns:xlink="http://www.w3.org/1999/xlink" width="512pt" height="512pt" viewBox="0 0 512 512" version="1.1">
<g id="surface196">
<rect x="0" y="0" width="512" height="512" style="fill:rgb(26.7%,26.7%,26.7%);fill-opacity:1;stroke:none;"/>
<path style=" stroke:none;fill-rule:nonzero;fill:rgb(19.2%,38.8%,66.7%);fill-opacity:1;" d="M 39.820312 42.667969 L 438.042969 42.667969 L 438.042969 469.332031 L 39.820312 469.332031 Z M 39.820312 42.667969 "/>
<path style=" stroke:none;fill-rule:nonzero;fill:rgb(100%,100%,100%);fill-opacity:1;" d="M 39.820312 313.984375 C 39.820312 320.023438 34.925781 324.921875 28.882812 324.921875 C 22.839844 324.921875 17.941406 320.023438 17.941406 313.984375 C 17.941406 307.941406 22.839844 303.042969 28.882812 303.042969 C 34.925781 303.042969 39.820312 307.941406 39.820312 313.984375 "/>
<path style=" stroke:none;fill-rule:nonzero;fill:rgb(100%,100%,100%);fill-opacity:1;" d="M 346.148438 506.53125 C 346.148438 512.570312 341.25 517.46875 335.207031 517.46875 C 329.164062 517.46875 324.265625 512.570312 324.265625 506.53125 C 324.265625 500.488281 329.164062 495.589844 335.207031 495.589844 C 341.25 495.589844 346.148438 500.488281 346.148438 506.53125 "/>
<path style=" stroke:none;fill-rule:nonzero;fill:rgb(100%,100%,100%);fill-opacity:1;" d="M 516.8125 82.050781 C 516.8125 88.09375 511.917969 92.992188 505.875 92.992188 C 499.832031 92.992188 494.933594 88.09375 494.933594 82.050781 C 494.933594 76.007812 499.832031 71.109375 505.875 71.109375 C 511.917969 71.109375 516.8125 76.007812 516.8125 82.050781 "/>
<path style=" stroke:none;fill-rule:nonzero;fill:rgb(100%,100%,100%);fill-opacity:1;" d="M 39.820312 79.863281 C 39.820312 85.90625 34.925781 90.804688 28.882812 90.804688 C 22.839844 90.804688 17.941406 85.90625 17.941406 79.863281 C 17.941406 73.820312 22.839844 68.921875 28.882812 68.921875 C 34.925781 68.921875 39.820312 73.820312 39.820312 79.863281 "/>
<path style=" stroke:none;fill-rule:nonzero;fill:rgb(100%,100%,100%);fill-opacity:1;" d="M 42.011719 47.042969 C 42.011719 53.085938 37.113281 57.984375 31.070312 57.984375 C 25.027344 57.984375 20.128906 53.085938 20.128906 47.042969 C 20.128906 41 25.027344 36.101562 31.070312 36.101562 C 37.113281 36.101562 42.011719 41 42.011719 47.042969 "/>
<path style=" stroke:none;fill-rule:nonzero;fill:rgb(100%,100%,100%);fill-opacity:1;" d="M 492.746094 47.042969 C 492.746094 53.085938 487.847656 57.984375 481.804688 57.984375 C 475.761719 57.984375 470.863281 53.085938 470.863281 47.042969 C 470.863281 41 475.761719 36.101562 481.804688 36.101562 C 487.847656 36.101562 492.746094 41 492.746094 47.042969 "/>
<path style=" stroke:none;fill-rule:nonzero;fill:rgb(100%,100%,100%);fill-opacity:1;" d="M 418.351562 519.65625 C 418.351562 525.699219 413.453125 530.597656 407.410156 530.597656 C 401.371094 530.597656 396.472656 525.699219 396.472656 519.65625 C 396.472656 513.617188 401.371094 508.71875 407.410156 508.71875 C 413.453125 508.71875 418.351562 513.617188 418.351562 519.65625 "/>
<path style=" stroke:none;fill-rule:nonzero;fill:rgb(100%,100%,100%);fill-opacity:1;" d="M 488.371094 489.027344 C 488.371094 495.066406 483.472656 499.964844 477.429688 499.964844 C 471.386719 499.964844 466.488281 495.066406 466.488281 489.027344 C 466.488281 482.984375 471.386719 478.085938 477.429688 478.085938 C 483.472656 478.085938 488.371094 482.984375 488.371094 489.027344 "/>
<path style=" stroke:none;fill-rule:nonzero;fill:rgb(100%,100%,100%);fill-opacity:1;" d="M 501.496094 239.589844 C 501.496094 245.632812 496.597656 250.53125 490.558594 250.53125 C 484.515625 250.53125 479.617188 245.632812 479.617188 239.589844 C 479.617188 233.546875 484.515625 228.648438 490.558594 228.648438 C 496.597656 228.648438 501.496094 233.546875 501.496094 239.589844 "/>
<path style=" stroke:none;fill-rule:nonzero;fill:rgb(100%,100%,100%);fill-opacity:1;" d="M 48.574219 213.332031 C 48.574219 219.375 43.675781 224.273438 37.632812 224.273438 C 31.59375 224.273438 26.695312 219.375 26.695312 213.332031 C 26.695312 207.289062 31.59375 202.394531 37.632812 202.394531 C 43.675781 202.394531 48.574219 207.289062 48.574219 213.332031 "/>
<path style=" stroke:none;fill-rule:nonzero;fill:rgb(100%,100%,100%);fill-opacity:1;" d="M 341.769531 12.035156 C 341.769531 18.074219 336.875 22.972656 330.832031 22.972656 C 324.789062 22.972656 319.890625 18.074219 319.890625 12.035156 C 319.890625 5.992188 324.789062 1.09375 330.832031 1.09375 C 336.875 1.09375 341.769531 5.992188 341.769531 12.035156 "/>
<path style=" stroke:none;fill-rule:nonzero;fill:rgb(100%,100%,100%);fill-opacity:1;" d="M 48.574219 33.914062 C 48.574219 39.957031 43.675781 44.855469 37.632812 44.855469 C 31.59375 44.855469 26.695312 39.957031 26.695312 33.914062 C 26.695312 27.871094 31.59375 22.976562 37.632812 22.976562 C 43.675781 22.976562 48.574219 27.871094 48.574219 33.914062 "/>
<path style=" stroke:none;fill-rule:nonzero;fill:rgb(100%,100%,100%);fill-opacity:1;" d="M 462.113281 82.050781 C 462.113281 88.09375 457.214844 92.992188 451.171875 92.992188 C 445.132812 92.992188 440.234375 88.09375 440.234375 82.050781 C 440.234375 76.007812 445.132812 71.109375 451.171875 71.109375 C 457.214844 71.109375 462.113281 76.007812 462.113281 82.050781 "/>
<path style=" stroke:none;fill-rule:nonzero;fill:rgb(100%,100%,100%);fill-opacity:1;" d="M 435.855469 3.28125 C 435.855469 9.324219 430.957031 14.222656 424.914062 14.222656 C 418.875 14.222656 413.976562 9.324219 413.976562 3.28125 C 413.976562 -2.761719 418.875 -7.65625 424.914062 -7.65625 C 430.957031 -7.65625 435.855469 -2.761719 435.855469 3.28125 "/>
<path style=" stroke:none;fill-rule:nonzero;fill:rgb(100%,100%,100%);fill-opacity:1;" d="M 28.882812 475.898438 C 28.882812 481.9375 23.984375 486.835938 17.941406 486.835938 C 11.898438 486.835938 7 481.9375 7 475.898438 C 7 469.855469 11.898438 464.957031 17.941406 464.957031 C 23.984375 464.957031 28.882812 469.855469 28.882812 475.898438 "/>
<path style=" stroke:none;fill-rule:nonzero;fill:rgb(100%,100%,100%);fill-opacity:1;" d="M 190.796875 504.34375 C 190.796875 510.382812 185.898438 515.28125 179.855469 515.28125 C 173.8125 515.28125 168.914062 510.382812 168.914062 504.34375 C 168.914062 498.300781 173.8125 493.402344 179.855469 493.402344 C 185.898438 493.402344 190.796875 498.300781 190.796875 504.34375 "/>
<path style=" stroke:none;fill-rule:nonzero;fill:rgb(100%,100%,100%);fill-opacity:1;" d="M 39.820312 504.34375 C 39.820312 510.382812 34.925781 515.28125 28.882812 515.28125 C 22.839844 515.28125 17.941406 510.382812 17.941406 504.34375 C 17.941406 498.300781 22.839844 493.402344 28.882812 493.402344 C 34.925781 493.402344 39.820312 498.300781 39.820312 504.34375 "/>
<path style=" stroke:none;fill-rule:nonzero;fill:rgb(100%,100%,100%);fill-opacity:1;" d="M 363.652344 -9.847656 C 363.652344 -3.804688 358.753906 1.09375 352.710938 1.09375 C 346.667969 1.09375 341.769531 -3.804688 341.769531 -9.847656 C 341.769531 -15.886719 346.667969 -20.785156 352.710938 -20.785156 C 358.753906 -20.785156 363.652344 -15.886719 363.652344 -9.847656 "/>
<path style=" stroke:none;fill-rule:nonzero;fill:rgb(100%,100%,100%);fill-opacity:1;" d="M 227.992188 40.480469 C 227.992188 46.519531 223.09375 51.417969 217.054688 51.417969 C 211.011719 51.417969 206.113281 46.519531 206.113281 40.480469 C 206.113281 34.4375 211.011719 29.539062 217.054688 29.539062 C 223.09375 29.539062 227.992188 34.4375 227.992188 40.480469 "/>
<path style=" stroke:none;fill-rule:nonzero;fill:rgb(100%,100%,100%);fill-opacity:1;" d="M 282.695312 473.710938 C 282.695312 479.75 277.796875 484.648438 271.753906 484.648438 C 265.710938 484.648438 260.8125 479.75 260.8125 473.710938 C 260.8125 467.667969 265.710938 462.769531 271.753906 462.769531 C 277.796875 462.769531 282.695312 467.667969 282.695312 473.710938 "/>
<path style=" stroke:none;fill-rule:nonzero;fill:rgb(100%,100%,100%);fill-opacity:1;" d="M 195.171875 3.28125 C 195.171875 9.324219 190.273438 14.222656 184.230469 14.222656 C 178.191406 14.222656 173.292969 9.324219 173.292969 3.28125 C 173.292969 -2.761719 178.191406 -7.65625 184.230469 -7.65625 C 190.273438 -7.65625 195.171875 -2.761719 195.171875 3.28125 "/>
<path style=" stroke:none;fill-rule:nonzero;fill:rgb(100%,100%,100%);fill-opacity:1;" d="M 499.308594 160.820312 C 499.308594 166.863281 494.410156 171.761719 488.367188 171.761719 C 482.328125 171.761719 477.429688 166.863281 477.429688 160.820312 C 477.429688 154.777344 482.328125 149.878906 488.367188 149.878906 C 494.410156 149.878906 499.308594 154.777344 499.308594 160.820312 "/>
<path style=" stroke:none;fill-rule:nonzero;fill:rgb(100%,100%,100%);fill-opacity:1;" d="M 223.617188 40.480469 C 223.617188 46.519531 218.71875 51.417969 212.675781 51.417969 C 206.636719 51.417969 201.738281 46.519531 201.738281 40.480469 C 201.738281 34.4375 206.636719 29.539062 212.675781 29.539062 C 218.71875 29.539062 223.617188 34.4375 223.617188 40.480469 "/>
<path style=" stroke:none;fill-rule:nonzero;fill:rgb(100%,100%,100%);fill-opacity:1;" d="M 46.386719 7.65625 C 46.386719 13.699219 41.488281 18.597656 35.445312 18.597656 C 29.402344 18.597656 24.503906 13.699219 24.503906 7.65625 C 24.503906 1.617188 29.402344 -3.28125 35.445312 -3.28125 C 41.488281 -3.28125 46.386719 1.617188 46.386719 7.65625 "/>
<path style=" stroke:none;fill-rule:nonzero;fill:rgb(100%,84.3%,0%);fill-opacity:1;" d="M 234.558594 64.546875 C 234.558594 70.589844 229.660156 75.488281 223.617188 75.488281 C 217.574219 75.488281 212.675781 70.589844 212.675781 64.546875 C 212.675781 58.503906 217.574219 53.605469 223.617188 53.605469 C 229.660156 53.605469 234.558594 58.503906 234.558594 64.546875 "/>
<path style=" stroke:none;fill-rule:nonzero;fill:rgb(100%,84.3%,0%);fill-opacity:1;" d="M 72.644531 206.769531 C 72.644531 212.8125 67.746094 217.710938 61.703125 217.710938 C 55.660156 217.710938 50.761719 212.8125 50.761719 206.769531 C 50.761719 200.726562 55.660156 195.828125 61.703125 195.828125 C 67.746094 195.828125 72.644531 200.726562 72.644531 206.769531 "/>
<path style=" stroke:none;fill-rule:nonzero;fill:rgb(100%,84.3%,0%);fill-opacity:1;" d="M 278.316406 447.453125 C 278.316406 453.496094 273.421875 458.394531 267.378906 458.394531 C 261.335938 458.394531 256.4375 453.496094 256.4375 447.453125 C 256.4375 441.410156 261.335938 436.511719 267.378906 436.511719 C 273.421875 436.511719 278.316406 441.410156 278.316406 447.453125 "/>
<path style=" stroke:none;fill-rule:nonzero;fill:rgb(100%,84.3%,0%);fill-opacity:1;" d="M 256.4375 64.546875 C 256.4375 70.589844 251.539062 75.488281 245.496094 75.488281 C 239.453125 75.488281 234.558594 70.589844 234.558594 64.546875 C 234.558594 58.503906 239.453125 53.605469 245.496094 53.605469 C 251.539062 53.605469 256.4375 58.503906 256.4375 64.546875 "/>
<path style=" stroke:none;fill-rule:nonzero;fill:rgb(100%,84.3%,0%);fill-opacity:1;" d="M 212.675781 64.546875 C 212.675781 70.589844 207.777344 75.488281 201.738281 75.488281 C 195.695312 75.488281 190.796875 70.589844 190.796875 64.546875 C 190.796875 58.503906 195.695312 53.605469 201.738281 53.605469 C 207.777344 53.605469 212.675781 58.503906 212.675781 64.546875 "/>
<path style=" stroke:none;fill-rule:nonzero;fill:rgb(100%,84.3%,0%);fill-opacity:1;" d="M 72.644531 228.648438 C 72.644531 234.691406 67.746094 239.589844 61.703125 239.589844 C 55.660156 239.589844 50.761719 234.691406 50.761719 228.648438 C 50.761719 222.609375 55.660156 217.710938 61.703125 217.710938 C 67.746094 217.710938 72.644531 222.609375 72.644531 228.648438 "/>
<path style=" stroke:none;fill-rule:nonzero;fill:rgb(100%,84.3%,0%);fill-opacity:1;" d="M 300.199219 447.453125 C 300.199219 453.496094 295.300781 458.394531 289.257812 458.394531 C 283.214844 458.394531 278.316406 453.496094 278.316406 447.453125 C 278.316406 441.410156 283.214844 436.511719 289.257812 436.511719 C 295.300781 436.511719 300.199219 441.410156 300.199219 447.453125 "/>
<path style=" stroke:none;fill-rule:nonzero;fill:rgb(100%,84.3%,0%);fill-opacity:1;" d="M 72.644531 184.890625 C 72.644531 190.929688 67.746094 195.828125 61.703125 195.828125 C 55.660156 195.828125 50.761719 190.929688 50.761719 184.890625 C 50.761719 178.847656 55.660156 173.949219 61.703125 173.949219 C 67.746094 173.949219 72.644531 178.847656 72.644531 184.890625 "/>
<path style=" stroke:none;fill-rule:nonzero;fill:rgb(100%,84.3%,0%);fill-opacity:1;" d="M 256.4375 447.453125 C 256.4375 453.496094 251.539062 458.394531 245.496094 458.394531 C 239.453125 458.394531 234.558594 453.496094 234.558594 447.453125 C 234.558594 441.410156 239.453125 436.511719 245.496094 436.511719 C 251.539062 436.511719 256.4375 441.410156 256.4375 447.453125 "/>
<path style=" stroke:none;fill-rule:nonzero;fill:rgb(100%,84.3%,0%);fill-opacity:1;" d="M 343.960938 64.546875 C 343.960938 70.589844 339.0625 75.488281 333.019531 75.488281 C 326.976562 75.488281 322.078125 70.589844 322.078125 64.546875 C 322.078125 58.503906 326.976562 53.605469 333.019531 53.605469 C 339.0625 53.605469 343.960938 58.503906 343.960938 64.546875 "/>
</g>
</svg>
