<?xml version="1.0" encoding="UTF-8"?>
<svg xmlns="http://www.w3.org/2000/svg" xmlns:xlink="http://www.w3.org/1999/xlink" width="512pt" height="512pt" viewBox="0 0 512 512" version="1.1">
<g id="surface276">
<path style=" stroke:none;fill-rule:nonzero;fill:rgb(26.7%,26.7%,26.7%);fill-opacity:1;" d="M 0 188.203125 L 512 188.203125 L 512 323.792969 L 0 323.792969 Z M 0 188.203125 "/>
<path style=" stroke:none;fill-rule:nonzero;fill:rgb(19.2%,38.8%,66.7%);fill-opacity:1;" d="M 42.667969 199.503906 L 469.332031 199.503906 L 469.332031 312.496094 L 42.667969 312.496094 Z M 42.667969 199.503906 "/>
<path style=" stroke:none;fill-rule:nonzero;fill:rgb(90.6%,14.9%,14.9%);fill-opacity:1;" d="M 490.824219 237.285156 C 490.824219 239.59375 487.355469 239.59375 487.355469 237.285156 C 487.355469 234.972656 490.824219 234.972656 490.824219 237.285156 "/>
<path style=" stroke:none;fill-rule:nonzero;fill:rgb(90.6%,14.9%,14.9%);fill-opacity:1;" d="M 502.605469 -23.359375 C 502.605469 -8.621094 490.660156 3.328125 475.917969 3.328125 C 461.179688 3.328125 449.230469 -8.621094 449.230469 -23.359375 C 449.230469 -38.101562 461.179688 -50.050781 475.917969 -50.050781 C 490.660156 -50.050781 502.605469 -38.101562 502.605469 -23.359375 "/>
<path style=" stroke:none;fill-rule:nonzero;fill:rgb(90.6%,14.9%,14.9%);fill-opacity:1;" d="M 398.972656 -5.339844 C 398.972656 -2.273438 396.492188 0.207031 393.429688 0.207031 C 390.367188 0.207031 387.882812 -2.273438 387.882812 -5.339844 C 387.882812 -8.402344 390.367188 -10.882812 393.429688 -10.882812 C 396.492188 -10.882812 398.972656 -8.402344 398.972656 -5.339844 "/>
<path style=" stroke:none;fill-rule:nonzero;fill:rgb(90.6%,14.9%,14.9%);fill-opacity:1;" d="M 558.757812 235.550781 C 558.757812 248.949219 547.894531 259.8125 534.492188 259.8125 C 521.09375 259.8125 510.230469 248.949219 510.230469 235.550781 C 510.230469 222.152344 521.09375 211.289062 534.492188 211.289062 C 547.894531 211.289062 558.757812 222.152344 558.757812 235.550781 "/>
<path style=" stroke:none;fill-rule:nonzero;fill:rgb(90.6%,14.9%,14.9%);fill-opacity:1;" d="M 21.175781 133.996094 C 21.175781 146.628906 10.9375 156.871094 -1.699219 156.871094 C -14.332031 156.871094 -24.574219 146.628906 -24.574219 133.996094 C -24.574219 121.363281 -14.332031 111.121094 -1.699219 111.121094 C 10.9375 111.121094 21.175781 121.363281 21.175781 133.996094 "/>
<path style=" stroke:none;fill-rule:nonzero;fill:rgb(90.6%,14.9%,14.9%);fill-opacity:1;" d="M 357.726562 47.691406 C 357.726562 62.238281 345.933594 74.035156 331.386719 74.035156 C 316.835938 74.035156 305.042969 62.238281 305.042969 47.691406 C 305.042969 33.144531 316.835938 21.351562 331.386719 21.351562 C 345.933594 21.351562 357.726562 33.144531 357.726562 47.691406 "/>
<path style=" stroke:none;fill-rule:nonzero;fill:rgb(90.6%,14.9%,14.9%);fill-opacity:1;" d="M 335.890625 73.339844 C 335.890625 84.0625 327.203125 92.75 316.480469 92.75 C 305.761719 92.75 297.074219 84.0625 297.074219 73.339844 C 297.074219 62.621094 305.761719 53.929688 316.480469 53.929688 C 327.203125 53.929688 335.890625 62.621094 335.890625 73.339844 "/>
<path style=" stroke:none;fill-rule:nonzero;fill:rgb(90.6%,14.9%,14.9%);fill-opacity:1;" d="M 424.277344 89.632812 C 424.277344 94.226562 420.550781 97.949219 415.957031 97.949219 C 411.363281 97.949219 407.636719 94.226562 407.636719 89.632812 C 407.636719 85.035156 411.363281 81.3125 415.957031 81.3125 C 420.550781 81.3125 424.277344 85.035156 424.277344 89.632812 "/>
<path style=" stroke:none;fill-rule:nonzero;fill:rgb(90.6%,14.9%,14.9%);fill-opacity:1;" d="M 502.953125 -2.21875 C 502.953125 6.011719 496.28125 12.6875 488.050781 12.6875 C 479.820312 12.6875 473.144531 6.011719 473.144531 -2.21875 C 473.144531 -10.449219 479.820312 -17.121094 488.050781 -17.121094 C 496.28125 -17.121094 502.953125 -10.449219 502.953125 -2.21875 "/>
<path style=" stroke:none;fill-rule:nonzero;fill:rgb(90.6%,14.9%,14.9%);fill-opacity:1;" d="M 167.097656 159.296875 C 167.097656 164.65625 162.75 169.003906 157.390625 169.003906 C 152.03125 169.003906 147.6875 164.65625 147.6875 159.296875 C 147.6875 153.9375 152.03125 149.59375 157.390625 149.59375 C 162.75 149.59375 167.097656 153.9375 167.097656 159.296875 "/>
<path style=" stroke:none;fill-rule:nonzero;fill:rgb(90.6%,14.9%,14.9%);fill-opacity:1;" d="M 134.167969 48.039062 C 134.167969 51.273438 129.316406 51.273438 129.316406 48.039062 C 129.316406 44.804688 134.167969 44.804688 134.167969 48.039062 "/>
<path style=" stroke:none;fill-rule:nonzero;fill:rgb(90.6%,14.9%,14.9%);fill-opacity:1;" d="M 514.390625 200.195312 C 514.390625 205.558594 510.046875 209.902344 504.6875 209.902344 C 499.328125 209.902344 494.980469 205.558594 494.980469 200.195312 C 494.980469 194.835938 499.328125 190.492188 504.6875 190.492188 C 510.046875 190.492188 514.390625 194.835938 514.390625 200.195312 "/>
<path style=" stroke:none;fill-rule:nonzero;fill:rgb(90.6%,14.9%,14.9%);fill-opacity:1;" d="M 30.535156 258.773438 C 30.535156 267.195312 23.707031 274.023438 15.285156 274.023438 C 6.863281 274.023438 0.0351562 267.195312 0.0351562 258.773438 C 0.0351562 250.351562 6.863281 243.523438 15.285156 243.523438 C 23.707031 243.523438 30.535156 250.351562 30.535156 258.773438 "/>
<path style=" stroke:none;fill-rule:nonzero;fill:rgb(90.6%,14.9%,14.9%);fill-opacity:1;" d="M 140.0625 59.824219 C 140.0625 64.992188 135.871094 69.179688 130.703125 69.179688 C 125.535156 69.179688 121.34375 64.992188 121.34375 59.824219 C 121.34375 54.65625 125.535156 50.464844 130.703125 50.464844 C 135.871094 50.464844 140.0625 54.65625 140.0625 59.824219 "/>
<path style=" stroke:none;fill-rule:nonzero;fill:rgb(90.6%,14.9%,14.9%);fill-opacity:1;" d="M 491.167969 98.296875 C 491.167969 108.25 483.101562 116.320312 473.144531 116.320312 C 463.191406 116.320312 455.121094 108.25 455.121094 98.296875 C 455.121094 88.34375 463.191406 80.273438 473.144531 80.273438 C 483.101562 80.273438 491.167969 88.34375 491.167969 98.296875 "/>
<path style=" stroke:none;fill-rule:nonzero;fill:rgb(90.6%,14.9%,14.9%);fill-opacity:1;" d="M 29.496094 4.367188 C 29.496094 19.488281 17.238281 31.75 2.113281 31.75 C -13.007812 31.75 -25.265625 19.488281 -25.265625 4.367188 C -25.265625 -10.753906 -13.007812 -23.015625 2.113281 -23.015625 C 17.238281 -23.015625 29.496094 -10.753906 29.496094 4.367188 "/>
<path style=" stroke:none;fill-rule:nonzero;fill:rgb(100%,100%,100%);fill-opacity:1;" d="M 305.390625 189.105469 C 305.390625 191.417969 301.925781 191.417969 301.925781 189.105469 C 301.925781 186.796875 305.390625 186.796875 305.390625 189.105469 "/>
<path style=" stroke:none;fill-rule:nonzero;fill:rgb(100%,100%,100%);fill-opacity:1;" d="M 36.082031 32.441406 C 36.082031 34.753906 32.613281 34.753906 32.613281 32.441406 C 32.613281 30.132812 36.082031 30.132812 36.082031 32.441406 "/>
<path style=" stroke:none;fill-rule:nonzero;fill:rgb(100%,100%,100%);fill-opacity:1;" d="M 484.585938 274.714844 C 484.585938 277.027344 481.117188 277.027344 481.117188 274.714844 C 481.117188 272.40625 484.585938 272.40625 484.585938 274.714844 "/>
<path style=" stroke:none;fill-rule:nonzero;fill:rgb(100%,100%,100%);fill-opacity:1;" d="M 497.40625 70.914062 C 497.40625 73.226562 493.941406 73.226562 493.941406 70.914062 C 493.941406 68.605469 497.40625 68.605469 497.40625 70.914062 "/>
<path style=" stroke:none;fill-rule:nonzero;fill:rgb(100%,100%,100%);fill-opacity:1;" d="M 308.855469 138.847656 C 308.855469 141.160156 305.390625 141.160156 305.390625 138.847656 C 305.390625 136.539062 308.855469 136.539062 308.855469 138.847656 "/>
<path style=" stroke:none;fill-rule:nonzero;fill:rgb(100%,100%,100%);fill-opacity:1;" d="M 408.332031 122.210938 C 408.332031 124.523438 404.863281 124.523438 404.863281 122.210938 C 404.863281 119.902344 408.332031 119.902344 408.332031 122.210938 "/>
<path style=" stroke:none;fill-rule:nonzero;fill:rgb(100%,100%,100%);fill-opacity:1;" d="M 290.140625 141.273438 C 290.140625 143.585938 286.675781 143.585938 286.675781 141.273438 C 286.675781 138.964844 290.140625 138.964844 290.140625 141.273438 "/>
<path style=" stroke:none;fill-rule:nonzero;fill:rgb(100%,100%,100%);fill-opacity:1;" d="M 450.617188 121.171875 C 450.617188 123.484375 447.152344 123.484375 447.152344 121.171875 C 447.152344 118.859375 450.617188 118.859375 450.617188 121.171875 "/>
<path style=" stroke:none;fill-rule:nonzero;fill:rgb(100%,100%,100%);fill-opacity:1;" d="M 339.359375 193.957031 C 339.359375 196.269531 335.890625 196.269531 335.890625 193.957031 C 335.890625 191.648438 339.359375 191.648438 339.359375 193.957031 "/>
<path style=" stroke:none;fill-rule:nonzero;fill:rgb(100%,100%,100%);fill-opacity:1;" d="M 224.285156 83.046875 C 224.285156 85.355469 220.820312 85.355469 220.820312 83.046875 C 220.820312 80.734375 224.285156 80.734375 224.285156 83.046875 "/>
<path style=" stroke:none;fill-rule:nonzero;fill:rgb(100%,100%,100%);fill-opacity:1;" d="M 128.96875 83.738281 C 128.96875 86.050781 125.503906 86.050781 125.503906 83.738281 C 125.503906 81.429688 128.96875 81.429688 128.96875 83.738281 "/>
<path style=" stroke:none;fill-rule:nonzero;fill:rgb(100%,100%,100%);fill-opacity:1;" d="M 254.09375 187.71875 C 254.09375 190.03125 250.628906 190.03125 250.628906 187.71875 C 250.628906 185.410156 254.09375 185.410156 254.09375 187.71875 "/>
<path style=" stroke:none;fill-rule:nonzero;fill:rgb(100%,100%,100%);fill-opacity:1;" d="M 40.238281 272.984375 C 40.238281 275.292969 36.773438 275.292969 36.773438 272.984375 C 36.773438 270.671875 40.238281 270.671875 40.238281 272.984375 "/>
<path style=" stroke:none;fill-rule:nonzero;fill:rgb(100%,100%,100%);fill-opacity:1;" d="M 143.179688 79.234375 C 143.179688 81.542969 139.714844 81.542969 139.714844 79.234375 C 139.714844 76.921875 143.179688 76.921875 143.179688 79.234375 "/>
<path style=" stroke:none;fill-rule:nonzero;fill:rgb(100%,100%,100%);fill-opacity:1;" d="M 236.765625 149.941406 C 236.765625 152.25 233.296875 152.25 233.296875 149.941406 C 233.296875 147.628906 236.765625 147.628906 236.765625 149.941406 "/>
<path style=" stroke:none;fill-rule:nonzero;fill:rgb(100%,100%,100%);fill-opacity:1;" d="M 36.429688 213.367188 C 36.429688 215.679688 32.960938 215.679688 32.960938 213.367188 C 32.960938 211.058594 36.429688 211.058594 36.429688 213.367188 "/>
<path style=" stroke:none;fill-rule:nonzero;fill:rgb(100%,100%,100%);fill-opacity:1;" d="M 466.90625 18.230469 C 466.90625 20.542969 463.441406 20.542969 463.441406 18.230469 C 463.441406 15.921875 466.90625 15.921875 466.90625 18.230469 "/>
<path style=" stroke:none;fill-rule:nonzero;fill:rgb(100%,100%,100%);fill-opacity:1;" d="M 111.292969 157.21875 C 111.292969 159.53125 107.828125 159.53125 107.828125 157.21875 C 107.828125 154.910156 111.292969 154.910156 111.292969 157.21875 "/>
<path style=" stroke:none;fill-rule:nonzero;fill:rgb(100%,100%,100%);fill-opacity:1;" d="M 455.816406 93.445312 C 455.816406 95.753906 452.351562 95.753906 452.351562 93.445312 C 452.351562 91.132812 455.816406 91.132812 455.816406 93.445312 "/>
<path style=" stroke:none;fill-rule:nonzero;fill:rgb(100%,100%,100%);fill-opacity:1;" d="M 26.722656 213.367188 C 26.722656 215.679688 23.257812 215.679688 23.257812 213.367188 C 23.257812 211.058594 26.722656 211.058594 26.722656 213.367188 "/>
<path style=" stroke:none;fill-rule:nonzero;fill:rgb(100%,100%,100%);fill-opacity:1;" d="M 506.074219 -0.140625 C 506.074219 2.171875 502.605469 2.171875 502.605469 -0.140625 C 502.605469 -2.449219 506.074219 -2.449219 506.074219 -0.140625 "/>
<path style=" stroke:none;fill-rule:nonzero;fill:rgb(100%,100%,100%);fill-opacity:1;" d="M 60.691406 315.613281 C 60.691406 317.925781 57.222656 317.925781 57.222656 315.613281 C 57.222656 313.304688 60.691406 313.304688 60.691406 315.613281 "/>
<path style=" stroke:none;fill-rule:nonzero;fill:rgb(100%,100%,100%);fill-opacity:1;" d="M 132.78125 183.214844 C 132.78125 185.523438 129.316406 185.523438 129.316406 183.214844 C 129.316406 180.902344 132.78125 180.902344 132.78125 183.214844 "/>
<path style=" stroke:none;fill-rule:nonzero;fill:rgb(100%,100%,100%);fill-opacity:1;" d="M 491.515625 198.464844 C 491.515625 200.773438 488.050781 200.773438 488.050781 198.464844 C 488.050781 196.152344 491.515625 196.152344 491.515625 198.464844 "/>
<path style=" stroke:none;fill-rule:nonzero;fill:rgb(100%,100%,100%);fill-opacity:1;" d="M 182 150.980469 C 182 153.289062 178.535156 153.289062 178.535156 150.980469 C 178.535156 148.667969 182 148.667969 182 150.980469 "/>
<path style=" stroke:none;fill-rule:nonzero;fill:rgb(100%,100%,100%);fill-opacity:1;" d="M 463.789062 34.175781 C 463.789062 36.484375 460.320312 36.484375 460.320312 34.175781 C 460.320312 31.863281 463.789062 31.863281 463.789062 34.175781 "/>
<path style=" stroke:none;fill-rule:nonzero;fill:rgb(100%,100%,100%);fill-opacity:1;" d="M 363.964844 138.847656 C 363.964844 141.160156 360.5 141.160156 360.5 138.847656 C 360.5 136.539062 363.964844 136.539062 363.964844 138.847656 "/>
<path style=" stroke:none;fill-rule:nonzero;fill:rgb(100%,100%,100%);fill-opacity:1;" d="M 229.136719 331.558594 C 229.136719 333.871094 225.671875 333.871094 225.671875 331.558594 C 225.671875 329.25 229.136719 329.25 229.136719 331.558594 "/>
<path style=" stroke:none;fill-rule:nonzero;fill:rgb(100%,100%,100%);fill-opacity:1;" d="M 230.871094 188.414062 C 230.871094 190.722656 227.40625 190.722656 227.40625 188.414062 C 227.40625 186.101562 230.871094 186.101562 230.871094 188.414062 "/>
<path style=" stroke:none;fill-rule:nonzero;fill:rgb(100%,100%,100%);fill-opacity:1;" d="M 90.84375 173.855469 C 90.84375 176.164062 87.378906 176.164062 87.378906 173.855469 C 87.378906 171.542969 90.84375 171.542969 90.84375 173.855469 "/>
<path style=" stroke:none;fill-rule:nonzero;fill:rgb(100%,100%,100%);fill-opacity:1;" d="M 421.503906 27.9375 C 421.503906 30.246094 418.035156 30.246094 418.035156 27.9375 C 418.035156 25.625 421.503906 25.625 421.503906 27.9375 "/>
<path style=" stroke:none;fill-rule:nonzero;fill:rgb(100%,100%,100%);fill-opacity:1;" d="M 68.660156 116.320312 C 68.660156 118.628906 65.195312 118.628906 65.195312 116.320312 C 65.195312 114.007812 68.660156 114.007812 68.660156 116.320312 "/>
<path style=" stroke:none;fill-rule:nonzero;fill:rgb(100%,100%,100%);fill-opacity:1;" d="M 279.742188 66.0625 C 279.742188 68.371094 276.277344 68.371094 276.277344 66.0625 C 276.277344 63.75 279.742188 63.75 279.742188 66.0625 "/>
<path style=" stroke:none;fill-rule:nonzero;fill:rgb(100%,100%,100%);fill-opacity:1;" d="M 211.460938 193.613281 C 211.460938 195.921875 207.996094 195.921875 207.996094 193.613281 C 207.996094 191.300781 211.460938 191.300781 211.460938 193.613281 "/>
<path style=" stroke:none;fill-rule:nonzero;fill:rgb(100%,100%,100%);fill-opacity:1;" d="M 509.191406 293.085938 C 509.191406 295.398438 505.726562 295.398438 505.726562 293.085938 C 505.726562 290.773438 509.191406 290.773438 509.191406 293.085938 "/>
<path style=" stroke:none;fill-rule:nonzero;fill:rgb(100%,100%,100%);fill-opacity:1;" d="M 265.878906 179.746094 C 265.878906 182.058594 262.410156 182.058594 262.410156 179.746094 C 262.410156 177.4375 265.878906 177.4375 265.878906 179.746094 "/>
<path style=" stroke:none;fill-rule:nonzero;fill:rgb(100%,100%,100%);fill-opacity:1;" d="M 154.273438 317.347656 C 154.273438 319.660156 150.804688 319.660156 150.804688 317.347656 C 150.804688 315.039062 154.273438 315.039062 154.273438 317.347656 "/>
<path style=" stroke:none;fill-rule:nonzero;fill:rgb(100%,100%,100%);fill-opacity:1;" d="M 205.222656 45.613281 C 205.222656 47.921875 201.757812 47.921875 201.757812 45.613281 C 201.757812 43.300781 205.222656 43.300781 205.222656 45.613281 "/>
<path style=" stroke:none;fill-rule:nonzero;fill:rgb(100%,100%,100%);fill-opacity:1;" d="M 190.320312 93.097656 C 190.320312 95.40625 186.851562 95.40625 186.851562 93.097656 C 186.851562 90.785156 190.320312 90.785156 190.320312 93.097656 "/>
<path style=" stroke:none;fill-rule:nonzero;fill:rgb(100%,100%,100%);fill-opacity:1;" d="M 515.085938 325.667969 C 515.085938 327.976562 511.617188 327.976562 511.617188 325.667969 C 511.617188 323.355469 515.085938 323.355469 515.085938 325.667969 "/>
<path style=" stroke:none;fill-rule:nonzero;fill:rgb(100%,100%,100%);fill-opacity:1;" d="M 268.304688 177.667969 C 268.304688 179.980469 264.839844 179.980469 264.839844 177.667969 C 264.839844 175.355469 268.304688 175.355469 268.304688 177.667969 "/>
<path style=" stroke:none;fill-rule:nonzero;fill:rgb(100%,100%,100%);fill-opacity:1;" d="M 119.960938 137.808594 C 119.960938 140.121094 116.492188 140.121094 116.492188 137.808594 C 116.492188 135.5 119.960938 135.5 119.960938 137.808594 "/>
<path style=" stroke:none;fill-rule:nonzero;fill:rgb(100%,100%,100%);fill-opacity:1;" d="M 134.515625 152.367188 C 134.515625 154.675781 131.050781 154.675781 131.050781 152.367188 C 131.050781 150.054688 134.515625 150.054688 134.515625 152.367188 "/>
<path style=" stroke:none;fill-rule:nonzero;fill:rgb(100%,100%,100%);fill-opacity:1;" d="M 344.210938 9.566406 C 344.210938 11.875 340.742188 11.875 340.742188 9.566406 C 340.742188 7.253906 344.210938 7.253906 344.210938 9.566406 "/>
<path style=" stroke:none;fill-rule:nonzero;fill:rgb(100%,100%,100%);fill-opacity:1;" d="M 502.953125 241.441406 C 502.953125 243.753906 499.488281 243.753906 499.488281 241.441406 C 499.488281 239.132812 502.953125 239.132812 502.953125 241.441406 "/>
<path style=" stroke:none;fill-rule:nonzero;fill:rgb(100%,84.3%,0%);fill-opacity:1;" d="M 76.285156 202.96875 C 76.285156 205.28125 72.820312 205.28125 72.820312 202.96875 C 72.820312 200.660156 76.285156 200.660156 76.285156 202.96875 "/>
<path style=" stroke:none;fill-rule:nonzero;fill:rgb(100%,84.3%,0%);fill-opacity:1;" d="M 110.945312 202.96875 C 110.945312 205.28125 107.480469 205.28125 107.480469 202.96875 C 107.480469 200.660156 110.945312 200.660156 110.945312 202.96875 "/>
<path style=" stroke:none;fill-rule:nonzero;fill:rgb(100%,84.3%,0%);fill-opacity:1;" d="M 159.472656 202.96875 C 159.472656 205.28125 156.003906 205.28125 156.003906 202.96875 C 156.003906 200.660156 159.472656 200.660156 159.472656 202.96875 "/>
<path style=" stroke:none;fill-rule:nonzero;fill:rgb(100%,84.3%,0%);fill-opacity:1;" d="M 93.617188 202.96875 C 93.617188 205.28125 90.152344 205.28125 90.152344 202.96875 C 90.152344 200.660156 93.617188 200.660156 93.617188 202.96875 "/>
<path style=" stroke:none;fill-rule:nonzero;fill:rgb(100%,84.3%,0%);fill-opacity:1;" d="M 256.519531 202.96875 C 256.519531 205.28125 253.054688 205.28125 253.054688 202.96875 C 253.054688 200.660156 256.519531 200.660156 256.519531 202.96875 "/>
<path style=" stroke:none;fill-rule:nonzero;fill:rgb(100%,84.3%,0%);fill-opacity:1;" d="M 467.601562 277.835938 C 467.601562 280.148438 464.132812 280.148438 464.132812 277.835938 C 464.132812 275.523438 467.601562 275.523438 467.601562 277.835938 "/>
<path style=" stroke:none;fill-rule:nonzero;fill:rgb(100%,84.3%,0%);fill-opacity:1;" d="M 69.355469 202.96875 C 69.355469 205.28125 65.890625 205.28125 65.890625 202.96875 C 65.890625 200.660156 69.355469 200.660156 69.355469 202.96875 "/>
<path style=" stroke:none;fill-rule:nonzero;fill:rgb(100%,84.3%,0%);fill-opacity:1;" d="M 138.675781 202.96875 C 138.675781 205.28125 135.210938 205.28125 135.210938 202.96875 C 135.210938 200.660156 138.675781 200.660156 138.675781 202.96875 "/>
<path style=" stroke:none;fill-rule:nonzero;fill:rgb(100%,84.3%,0%);fill-opacity:1;" d="M 47.867188 281.300781 C 47.867188 283.613281 44.398438 283.613281 44.398438 281.300781 C 44.398438 278.992188 47.867188 278.992188 47.867188 281.300781 "/>
<path style=" stroke:none;fill-rule:nonzero;fill:rgb(100%,84.3%,0%);fill-opacity:1;" d="M 194.132812 202.96875 C 194.132812 205.28125 190.664062 205.28125 190.664062 202.96875 C 190.664062 200.660156 194.132812 200.660156 194.132812 202.96875 "/>
<path style=" stroke:none;fill-rule:nonzero;fill:rgb(100%,84.3%,0%);fill-opacity:1;" d="M 294.644531 202.96875 C 294.644531 205.28125 291.179688 205.28125 291.179688 202.96875 C 291.179688 200.660156 294.644531 200.660156 294.644531 202.96875 "/>
<path style=" stroke:none;fill-rule:nonzero;fill:rgb(100%,84.3%,0%);fill-opacity:1;" d="M 467.601562 309.03125 C 467.601562 311.339844 464.132812 311.339844 464.132812 309.03125 C 464.132812 306.71875 467.601562 306.71875 467.601562 309.03125 "/>
<path style=" stroke:none;fill-rule:nonzero;fill:rgb(100%,84.3%,0%);fill-opacity:1;" d="M 343.171875 202.96875 C 343.171875 205.28125 339.703125 205.28125 339.703125 202.96875 C 339.703125 200.660156 343.171875 200.660156 343.171875 202.96875 "/>
<path style=" stroke:none;fill-rule:nonzero;fill:rgb(100%,84.3%,0%);fill-opacity:1;" d="M 218.394531 202.96875 C 218.394531 205.28125 214.929688 205.28125 214.929688 202.96875 C 214.929688 200.660156 218.394531 200.660156 218.394531 202.96875 "/>
<path style=" stroke:none;fill-rule:nonzero;fill:rgb(100%,84.3%,0%);fill-opacity:1;" d="M 305.042969 202.96875 C 305.042969 205.28125 301.578125 205.28125 301.578125 202.96875 C 301.578125 200.660156 305.042969 200.660156 305.042969 202.96875 "/>
<path style=" stroke:none;fill-rule:nonzero;fill:rgb(100%,84.3%,0%);fill-opacity:1;" d="M 145.605469 309.03125 C 145.605469 311.339844 142.140625 311.339844 142.140625 309.03125 C 142.140625 306.71875 145.605469 306.71875 145.605469 309.03125 "/>
<path style=" stroke:none;fill-rule:nonzero;fill:rgb(100%,84.3%,0%);fill-opacity:1;" d="M 104.015625 202.96875 C 104.015625 205.28125 100.550781 205.28125 100.550781 202.96875 C 100.550781 200.660156 104.015625 200.660156 104.015625 202.96875 "/>
<path style=" stroke:none;fill-rule:nonzero;fill:rgb(100%,84.3%,0%);fill-opacity:1;" d="M 467.601562 218.914062 C 467.601562 221.226562 464.132812 221.226562 464.132812 218.914062 C 464.132812 216.601562 467.601562 216.601562 467.601562 218.914062 "/>
<path style=" stroke:none;fill-rule:nonzero;fill:rgb(100%,84.3%,0%);fill-opacity:1;" d="M 235.722656 309.03125 C 235.722656 311.339844 232.257812 311.339844 232.257812 309.03125 C 232.257812 306.71875 235.722656 306.71875 235.722656 309.03125 "/>
<path style=" stroke:none;fill-rule:nonzero;fill:rgb(100%,84.3%,0%);fill-opacity:1;" d="M 301.578125 202.96875 C 301.578125 205.28125 298.113281 205.28125 298.113281 202.96875 C 298.113281 200.660156 301.578125 200.660156 301.578125 202.96875 "/>
<path style=" stroke:none;fill-rule:nonzero;fill:rgb(100%,84.3%,0%);fill-opacity:1;" d="M 97.082031 202.96875 C 97.082031 205.28125 93.617188 205.28125 93.617188 202.96875 C 93.617188 200.660156 97.082031 200.660156 97.082031 202.96875 "/>
<path style=" stroke:none;fill-rule:nonzero;fill:rgb(100%,84.3%,0%);fill-opacity:1;" d="M 47.867188 225.847656 C 47.867188 228.15625 44.398438 228.15625 44.398438 225.847656 C 44.398438 223.535156 47.867188 223.535156 47.867188 225.847656 "/>
<path style=" stroke:none;fill-rule:nonzero;fill:rgb(100%,84.3%,0%);fill-opacity:1;" d="M 270.382812 202.96875 C 270.382812 205.28125 266.917969 205.28125 266.917969 202.96875 C 266.917969 200.660156 270.382812 200.660156 270.382812 202.96875 "/>
<path style=" stroke:none;fill-rule:nonzero;fill:rgb(100%,84.3%,0%);fill-opacity:1;" d="M 47.867188 267.4375 C 47.867188 269.75 44.398438 269.75 44.398438 267.4375 C 44.398438 265.128906 47.867188 265.128906 47.867188 267.4375 "/>
<path style=" stroke:none;fill-rule:nonzero;fill:rgb(100%,84.3%,0%);fill-opacity:1;" d="M 214.929688 202.96875 C 214.929688 205.28125 211.460938 205.28125 211.460938 202.96875 C 211.460938 200.660156 214.929688 200.660156 214.929688 202.96875 "/>
<path style=" stroke:none;fill-rule:nonzero;fill:rgb(100%,84.3%,0%);fill-opacity:1;" d="M 228.792969 309.03125 C 228.792969 311.339844 225.324219 311.339844 225.324219 309.03125 C 225.324219 306.71875 228.792969 306.71875 228.792969 309.03125 "/>
<path style=" stroke:none;fill-rule:nonzero;fill:rgb(100%,84.3%,0%);fill-opacity:1;" d="M 239.191406 309.03125 C 239.191406 311.339844 235.722656 311.339844 235.722656 309.03125 C 235.722656 306.71875 239.191406 306.71875 239.191406 309.03125 "/>
<path style=" stroke:none;fill-rule:nonzero;fill:rgb(100%,84.3%,0%);fill-opacity:1;" d="M 47.867188 274.371094 C 47.867188 276.679688 44.398438 276.679688 44.398438 274.371094 C 44.398438 272.058594 47.867188 272.058594 47.867188 274.371094 "/>
<path style=" stroke:none;fill-rule:nonzero;fill:rgb(100%,84.3%,0%);fill-opacity:1;" d="M 47.867188 208.515625 C 47.867188 210.828125 44.398438 210.828125 44.398438 208.515625 C 44.398438 206.207031 47.867188 206.207031 47.867188 208.515625 "/>
<path style=" stroke:none;fill-rule:nonzero;fill:rgb(100%,84.3%,0%);fill-opacity:1;" d="M 228.792969 202.96875 C 228.792969 205.28125 225.324219 205.28125 225.324219 202.96875 C 225.324219 200.660156 228.792969 200.660156 228.792969 202.96875 "/>
<path style=" stroke:none;fill-rule:nonzero;fill:rgb(100%,84.3%,0%);fill-opacity:1;" d="M 121.34375 202.96875 C 121.34375 205.28125 117.878906 205.28125 117.878906 202.96875 C 117.878906 200.660156 121.34375 200.660156 121.34375 202.96875 "/>
<path style=" stroke:none;fill-rule:nonzero;fill:rgb(100%,84.3%,0%);fill-opacity:1;" d="M 467.601562 243.175781 C 467.601562 245.488281 464.132812 245.488281 464.132812 243.175781 C 464.132812 240.867188 467.601562 240.867188 467.601562 243.175781 "/>
<path style=" stroke:none;fill-rule:nonzero;fill:rgb(100%,84.3%,0%);fill-opacity:1;" d="M 197.597656 202.96875 C 197.597656 205.28125 194.132812 205.28125 194.132812 202.96875 C 194.132812 200.660156 197.597656 200.660156 197.597656 202.96875 "/>
<path style=" stroke:none;fill-rule:nonzero;fill:rgb(100%,84.3%,0%);fill-opacity:1;" d="M 47.867188 211.980469 C 47.867188 214.292969 44.398438 214.292969 44.398438 211.980469 C 44.398438 209.671875 47.867188 209.671875 47.867188 211.980469 "/>
<path style=" stroke:none;fill-rule:nonzero;fill:rgb(100%,84.3%,0%);fill-opacity:1;" d="M 253.054688 202.96875 C 253.054688 205.28125 249.589844 205.28125 249.589844 202.96875 C 249.589844 200.660156 253.054688 200.660156 253.054688 202.96875 "/>
<path style=" stroke:none;fill-rule:nonzero;fill:rgb(100%,84.3%,0%);fill-opacity:1;" d="M 315.441406 202.96875 C 315.441406 205.28125 311.976562 205.28125 311.976562 202.96875 C 311.976562 200.660156 315.441406 200.660156 315.441406 202.96875 "/>
<path style=" stroke:none;fill-rule:nonzero;fill:rgb(100%,84.3%,0%);fill-opacity:1;" d="M 201.0625 202.96875 C 201.0625 205.28125 197.597656 205.28125 197.597656 202.96875 C 197.597656 200.660156 201.0625 200.660156 201.0625 202.96875 "/>
<path style=" stroke:none;fill-rule:nonzero;fill:rgb(100%,84.3%,0%);fill-opacity:1;" d="M 467.601562 288.234375 C 467.601562 290.542969 464.132812 290.542969 464.132812 288.234375 C 464.132812 285.921875 467.601562 285.921875 467.601562 288.234375 "/>
<path style=" stroke:none;fill-rule:nonzero;fill:rgb(100%,84.3%,0%);fill-opacity:1;" d="M 69.355469 309.03125 C 69.355469 311.339844 65.890625 311.339844 65.890625 309.03125 C 65.890625 306.71875 69.355469 306.71875 69.355469 309.03125 "/>
<path style=" stroke:none;fill-rule:nonzero;fill:rgb(100%,84.3%,0%);fill-opacity:1;" d="M 467.601562 215.449219 C 467.601562 217.757812 464.132812 217.757812 464.132812 215.449219 C 464.132812 213.136719 467.601562 213.136719 467.601562 215.449219 "/>
<path style=" stroke:none;fill-rule:nonzero;fill:rgb(100%,84.3%,0%);fill-opacity:1;" d="M 211.460938 309.03125 C 211.460938 311.339844 207.996094 311.339844 207.996094 309.03125 C 207.996094 306.71875 211.460938 306.71875 211.460938 309.03125 "/>
<path style=" stroke:none;fill-rule:nonzero;fill:rgb(100%,84.3%,0%);fill-opacity:1;" d="M 277.316406 202.96875 C 277.316406 205.28125 273.851562 205.28125 273.851562 202.96875 C 273.851562 200.660156 277.316406 200.660156 277.316406 202.96875 "/>
<path style=" stroke:none;fill-rule:nonzero;fill:rgb(100%,84.3%,0%);fill-opacity:1;" d="M 47.867188 309.03125 C 47.867188 311.339844 44.398438 311.339844 44.398438 309.03125 C 44.398438 306.71875 47.867188 306.71875 47.867188 309.03125 "/>
<path style=" stroke:none;fill-rule:nonzero;fill:rgb(100%,84.3%,0%);fill-opacity:1;" d="M 336.238281 202.96875 C 336.238281 205.28125 332.773438 205.28125 332.773438 202.96875 C 332.773438 200.660156 336.238281 200.660156 336.238281 202.96875 "/>
<path style=" stroke:none;fill-rule:nonzero;fill:rgb(100%,84.3%,0%);fill-opacity:1;" d="M 221.859375 309.03125 C 221.859375 311.339844 218.394531 311.339844 218.394531 309.03125 C 218.394531 306.71875 221.859375 306.71875 221.859375 309.03125 "/>
<path style=" stroke:none;fill-rule:nonzero;fill:rgb(100%,84.3%,0%);fill-opacity:1;" d="M 62.421875 309.03125 C 62.421875 311.339844 58.957031 311.339844 58.957031 309.03125 C 58.957031 306.71875 62.421875 306.71875 62.421875 309.03125 "/>
<path style=" stroke:none;fill-rule:nonzero;fill:rgb(100%,84.3%,0%);fill-opacity:1;" d="M 467.601562 246.640625 C 467.601562 248.953125 464.132812 248.953125 464.132812 246.640625 C 464.132812 244.332031 467.601562 244.332031 467.601562 246.640625 "/>
<path style=" stroke:none;fill-rule:nonzero;fill:rgb(100%,84.3%,0%);fill-opacity:1;" d="M 353.566406 202.96875 C 353.566406 205.28125 350.101562 205.28125 350.101562 202.96875 C 350.101562 200.660156 353.566406 200.660156 353.566406 202.96875 "/>
<path style=" stroke:none;fill-rule:nonzero;fill:rgb(100%,84.3%,0%);fill-opacity:1;" d="M 388.230469 202.96875 C 388.230469 205.28125 384.761719 205.28125 384.761719 202.96875 C 384.761719 200.660156 388.230469 200.660156 388.230469 202.96875 "/>
<path style=" stroke:none;fill-rule:nonzero;fill:rgb(100%,84.3%,0%);fill-opacity:1;" d="M 239.191406 202.96875 C 239.191406 205.28125 235.722656 205.28125 235.722656 202.96875 C 235.722656 200.660156 239.191406 200.660156 239.191406 202.96875 "/>
<path style=" stroke:none;fill-rule:nonzero;fill:rgb(100%,84.3%,0%);fill-opacity:1;" d="M 142.140625 202.96875 C 142.140625 205.28125 138.675781 205.28125 138.675781 202.96875 C 138.675781 200.660156 142.140625 200.660156 142.140625 202.96875 "/>
<path style=" stroke:none;fill-rule:nonzero;fill:rgb(100%,84.3%,0%);fill-opacity:1;" d="M 166.402344 309.03125 C 166.402344 311.339844 162.9375 311.339844 162.9375 309.03125 C 162.9375 306.71875 166.402344 306.71875 166.402344 309.03125 "/>
<path style=" stroke:none;fill-rule:nonzero;fill:rgb(100%,84.3%,0%);fill-opacity:1;" d="M 169.867188 202.96875 C 169.867188 205.28125 166.402344 205.28125 166.402344 202.96875 C 166.402344 200.660156 169.867188 200.660156 169.867188 202.96875 "/>
<path style=" stroke:none;fill-rule:nonzero;fill:rgb(100%,84.3%,0%);fill-opacity:1;" d="M 266.917969 202.96875 C 266.917969 205.28125 263.453125 205.28125 263.453125 202.96875 C 263.453125 200.660156 266.917969 200.660156 266.917969 202.96875 "/>
<path style=" stroke:none;fill-rule:nonzero;fill:rgb(100%,84.3%,0%);fill-opacity:1;" d="M 58.957031 309.03125 C 58.957031 311.339844 55.492188 311.339844 55.492188 309.03125 C 55.492188 306.71875 58.957031 306.71875 58.957031 309.03125 "/>
<path style=" stroke:none;fill-rule:nonzero;fill:rgb(100%,84.3%,0%);fill-opacity:1;" d="M 467.601562 291.699219 C 467.601562 294.011719 464.132812 294.011719 464.132812 291.699219 C 464.132812 289.390625 467.601562 289.390625 467.601562 291.699219 "/>
<path style=" stroke:none;fill-rule:nonzero;fill:rgb(100%,84.3%,0%);fill-opacity:1;" d="M 47.867188 284.769531 C 47.867188 287.078125 44.398438 287.078125 44.398438 284.769531 C 44.398438 282.457031 47.867188 282.457031 47.867188 284.769531 "/>
<path style=" stroke:none;fill-rule:nonzero;fill:rgb(100%,84.3%,0%);fill-opacity:1;" d="M 135.210938 202.96875 C 135.210938 205.28125 131.742188 205.28125 131.742188 202.96875 C 131.742188 200.660156 135.210938 200.660156 135.210938 202.96875 "/>
<path style=" stroke:none;fill-rule:nonzero;fill:rgb(100%,84.3%,0%);fill-opacity:1;" d="M 225.324219 202.96875 C 225.324219 205.28125 221.859375 205.28125 221.859375 202.96875 C 221.859375 200.660156 225.324219 200.660156 225.324219 202.96875 "/>
<path style=" stroke:none;fill-rule:nonzero;fill:rgb(100%,84.3%,0%);fill-opacity:1;" d="M 467.601562 232.777344 C 467.601562 235.089844 464.132812 235.089844 464.132812 232.777344 C 464.132812 230.46875 467.601562 230.46875 467.601562 232.777344 "/>
<path style=" stroke:none;fill-rule:nonzero;fill:rgb(100%,84.3%,0%);fill-opacity:1;" d="M 284.246094 202.96875 C 284.246094 205.28125 280.78125 205.28125 280.78125 202.96875 C 280.78125 200.660156 284.246094 200.660156 284.246094 202.96875 "/>
<path style=" stroke:none;fill-rule:nonzero;fill:rgb(100%,84.3%,0%);fill-opacity:1;" d="M 467.601562 257.039062 C 467.601562 259.351562 464.132812 259.351562 464.132812 257.039062 C 464.132812 254.730469 467.601562 254.730469 467.601562 257.039062 "/>
<path style=" stroke:none;fill-rule:nonzero;fill:rgb(100%,84.3%,0%);fill-opacity:1;" d="M 242.65625 202.96875 C 242.65625 205.28125 239.191406 205.28125 239.191406 202.96875 C 239.191406 200.660156 242.65625 200.660156 242.65625 202.96875 "/>
<path style=" stroke:none;fill-rule:nonzero;fill:rgb(100%,84.3%,0%);fill-opacity:1;" d="M 131.742188 202.96875 C 131.742188 205.28125 128.277344 205.28125 128.277344 202.96875 C 128.277344 200.660156 131.742188 200.660156 131.742188 202.96875 "/>
<path style=" stroke:none;fill-rule:nonzero;fill:rgb(100%,84.3%,0%);fill-opacity:1;" d="M 117.878906 202.96875 C 117.878906 205.28125 114.414062 205.28125 114.414062 202.96875 C 114.414062 200.660156 117.878906 200.660156 117.878906 202.96875 "/>
<path style=" stroke:none;fill-rule:nonzero;fill:rgb(100%,84.3%,0%);fill-opacity:1;" d="M 467.601562 270.902344 C 467.601562 273.214844 464.132812 273.214844 464.132812 270.902344 C 464.132812 268.59375 467.601562 268.59375 467.601562 270.902344 "/>
<path style=" stroke:none;fill-rule:nonzero;fill:rgb(100%,84.3%,0%);fill-opacity:1;" d="M 467.601562 225.847656 C 467.601562 228.15625 464.132812 228.15625 464.132812 225.847656 C 464.132812 223.535156 467.601562 223.535156 467.601562 225.847656 "/>
<path style=" stroke:none;fill-rule:nonzero;fill:rgb(100%,84.3%,0%);fill-opacity:1;" d="M 232.257812 202.96875 C 232.257812 205.28125 228.792969 205.28125 228.792969 202.96875 C 228.792969 200.660156 232.257812 200.660156 232.257812 202.96875 "/>
<path style=" stroke:none;fill-rule:nonzero;fill:rgb(100%,84.3%,0%);fill-opacity:1;" d="M 308.511719 202.96875 C 308.511719 205.28125 305.042969 205.28125 305.042969 202.96875 C 305.042969 200.660156 308.511719 200.660156 308.511719 202.96875 "/>
<path style=" stroke:none;fill-rule:nonzero;fill:rgb(100%,84.3%,0%);fill-opacity:1;" d="M 235.722656 202.96875 C 235.722656 205.28125 232.257812 205.28125 232.257812 202.96875 C 232.257812 200.660156 235.722656 200.660156 235.722656 202.96875 "/>
<path style=" stroke:none;fill-rule:nonzero;fill:rgb(100%,84.3%,0%);fill-opacity:1;" d="M 259.984375 202.96875 C 259.984375 205.28125 256.519531 205.28125 256.519531 202.96875 C 256.519531 200.660156 259.984375 200.660156 259.984375 202.96875 "/>
<path style=" stroke:none;fill-rule:nonzero;fill:rgb(100%,84.3%,0%);fill-opacity:1;" d="M 145.605469 202.96875 C 145.605469 205.28125 142.140625 205.28125 142.140625 202.96875 C 142.140625 200.660156 145.605469 200.660156 145.605469 202.96875 "/>
<path style=" stroke:none;fill-rule:nonzero;fill:rgb(100%,84.3%,0%);fill-opacity:1;" d="M 467.601562 229.3125 C 467.601562 231.621094 464.132812 231.621094 464.132812 229.3125 C 464.132812 227 467.601562 227 467.601562 229.3125 "/>
<path style=" stroke:none;fill-rule:nonzero;fill:rgb(100%,84.3%,0%);fill-opacity:1;" d="M 332.773438 202.96875 C 332.773438 205.28125 329.304688 205.28125 329.304688 202.96875 C 329.304688 200.660156 332.773438 200.660156 332.773438 202.96875 "/>
<path style=" stroke:none;fill-rule:nonzero;fill:rgb(100%,84.3%,0%);fill-opacity:1;" d="M 467.601562 260.507812 C 467.601562 262.816406 464.132812 262.816406 464.132812 260.507812 C 464.132812 258.195312 467.601562 258.195312 467.601562 260.507812 "/>
<path style=" stroke:none;fill-rule:nonzero;fill:rgb(100%,84.3%,0%);fill-opacity:1;" d="M 142.140625 309.03125 C 142.140625 311.339844 138.675781 311.339844 138.675781 309.03125 C 138.675781 306.71875 142.140625 306.71875 142.140625 309.03125 "/>
<path style=" stroke:none;fill-rule:nonzero;fill:rgb(100%,84.3%,0%);fill-opacity:1;" d="M 325.839844 202.96875 C 325.839844 205.28125 322.375 205.28125 322.375 202.96875 C 322.375 200.660156 325.839844 200.660156 325.839844 202.96875 "/>
<path style=" stroke:none;fill-rule:nonzero;fill:rgb(100%,84.3%,0%);fill-opacity:1;" d="M 467.601562 208.515625 C 467.601562 210.828125 464.132812 210.828125 464.132812 208.515625 C 464.132812 206.207031 467.601562 206.207031 467.601562 208.515625 "/>
<path style=" stroke:none;fill-rule:nonzero;fill:rgb(100%,84.3%,0%);fill-opacity:1;" d="M 86.683594 202.96875 C 86.683594 205.28125 83.21875 205.28125 83.21875 202.96875 C 83.21875 200.660156 86.683594 200.660156 86.683594 202.96875 "/>
<path style=" stroke:none;fill-rule:nonzero;fill:rgb(100%,84.3%,0%);fill-opacity:1;" d="M 467.601562 295.164062 C 467.601562 297.476562 464.132812 297.476562 464.132812 295.164062 C 464.132812 292.855469 467.601562 292.855469 467.601562 295.164062 "/>
<path style=" stroke:none;fill-rule:nonzero;fill:rgb(100%,84.3%,0%);fill-opacity:1;" d="M 467.601562 236.242188 C 467.601562 238.554688 464.132812 238.554688 464.132812 236.242188 C 464.132812 233.933594 467.601562 233.933594 467.601562 236.242188 "/>
<path style=" stroke:none;fill-rule:nonzero;fill:rgb(100%,84.3%,0%);fill-opacity:1;" d="M 47.867188 215.449219 C 47.867188 217.757812 44.398438 217.757812 44.398438 215.449219 C 44.398438 213.136719 47.867188 213.136719 47.867188 215.449219 "/>
<path style=" stroke:none;fill-rule:nonzero;fill:rgb(100%,84.3%,0%);fill-opacity:1;" d="M 287.714844 202.96875 C 287.714844 205.28125 284.246094 205.28125 284.246094 202.96875 C 284.246094 200.660156 287.714844 200.660156 287.714844 202.96875 "/>
<path style=" stroke:none;fill-rule:nonzero;fill:rgb(100%,84.3%,0%);fill-opacity:1;" d="M 79.753906 202.96875 C 79.753906 205.28125 76.285156 205.28125 76.285156 202.96875 C 76.285156 200.660156 79.753906 200.660156 79.753906 202.96875 "/>
<path style=" stroke:none;fill-rule:nonzero;fill:rgb(100%,84.3%,0%);fill-opacity:1;" d="M 47.867188 218.914062 C 47.867188 221.226562 44.398438 221.226562 44.398438 218.914062 C 44.398438 216.601562 47.867188 216.601562 47.867188 218.914062 "/>
<path style=" stroke:none;fill-rule:nonzero;fill:rgb(100%,84.3%,0%);fill-opacity:1;" d="M 467.601562 253.574219 C 467.601562 255.882812 464.132812 255.882812 464.132812 253.574219 C 464.132812 251.261719 467.601562 251.261719 467.601562 253.574219 "/>
<path style=" stroke:none;fill-rule:nonzero;fill:rgb(100%,84.3%,0%);fill-opacity:1;" d="M 467.601562 267.4375 C 467.601562 269.75 464.132812 269.75 464.132812 267.4375 C 464.132812 265.128906 467.601562 265.128906 467.601562 267.4375 "/>
<path style=" stroke:none;fill-rule:nonzero;fill:rgb(100%,84.3%,0%);fill-opacity:1;" d="M 47.867188 270.902344 C 47.867188 273.214844 44.398438 273.214844 44.398438 270.902344 C 44.398438 268.59375 47.867188 268.59375 47.867188 270.902344 "/>
<path style=" stroke:none;fill-rule:nonzero;fill:rgb(100%,84.3%,0%);fill-opacity:1;" d="M 225.324219 309.03125 C 225.324219 311.339844 221.859375 311.339844 221.859375 309.03125 C 221.859375 306.71875 225.324219 306.71875 225.324219 309.03125 "/>
<path style=" stroke:none;fill-rule:nonzero;fill:rgb(100%,84.3%,0%);fill-opacity:1;" d="M 190.664062 202.96875 C 190.664062 205.28125 187.199219 205.28125 187.199219 202.96875 C 187.199219 200.660156 190.664062 200.660156 190.664062 202.96875 "/>
<path style=" stroke:none;fill-rule:nonzero;fill:rgb(100%,84.3%,0%);fill-opacity:1;" d="M 159.472656 309.03125 C 159.472656 311.339844 156.003906 311.339844 156.003906 309.03125 C 156.003906 306.71875 159.472656 306.71875 159.472656 309.03125 "/>
<path style=" stroke:none;fill-rule:nonzero;fill:rgb(100%,84.3%,0%);fill-opacity:1;" d="M 467.601562 302.097656 C 467.601562 304.410156 464.132812 304.410156 464.132812 302.097656 C 464.132812 299.789062 467.601562 299.789062 467.601562 302.097656 "/>
<path style=" stroke:none;fill-rule:nonzero;fill:rgb(100%,84.3%,0%);fill-opacity:1;" d="M 47.867188 222.378906 C 47.867188 224.691406 44.398438 224.691406 44.398438 222.378906 C 44.398438 220.070312 47.867188 220.070312 47.867188 222.378906 "/>
<path style=" stroke:none;fill-rule:nonzero;fill:rgb(100%,84.3%,0%);fill-opacity:1;" d="M 47.867188 277.835938 C 47.867188 280.148438 44.398438 280.148438 44.398438 277.835938 C 44.398438 275.523438 47.867188 275.523438 47.867188 277.835938 "/>
<path style=" stroke:none;fill-rule:nonzero;fill:rgb(100%,84.3%,0%);fill-opacity:1;" d="M 391.695312 202.96875 C 391.695312 205.28125 388.230469 205.28125 388.230469 202.96875 C 388.230469 200.660156 391.695312 200.660156 391.695312 202.96875 "/>
<path style=" stroke:none;fill-rule:nonzero;fill:rgb(100%,84.3%,0%);fill-opacity:1;" d="M 204.53125 202.96875 C 204.53125 205.28125 201.0625 205.28125 201.0625 202.96875 C 201.0625 200.660156 204.53125 200.660156 204.53125 202.96875 "/>
<path style=" stroke:none;fill-rule:nonzero;fill:rgb(100%,84.3%,0%);fill-opacity:1;" d="M 211.460938 202.96875 C 211.460938 205.28125 207.996094 205.28125 207.996094 202.96875 C 207.996094 200.660156 211.460938 200.660156 211.460938 202.96875 "/>
<path style=" stroke:none;fill-rule:nonzero;fill:rgb(100%,84.3%,0%);fill-opacity:1;" d="M 311.976562 202.96875 C 311.976562 205.28125 308.511719 205.28125 308.511719 202.96875 C 308.511719 200.660156 311.976562 200.660156 311.976562 202.96875 "/>
<path style=" stroke:none;fill-rule:nonzero;fill:rgb(100%,84.3%,0%);fill-opacity:1;" d="M 467.601562 250.109375 C 467.601562 252.417969 464.132812 252.417969 464.132812 250.109375 C 464.132812 247.796875 467.601562 247.796875 467.601562 250.109375 "/>
<path style=" stroke:none;fill-rule:nonzero;fill:rgb(100%,84.3%,0%);fill-opacity:1;" d="M 207.996094 202.96875 C 207.996094 205.28125 204.53125 205.28125 204.53125 202.96875 C 204.53125 200.660156 207.996094 200.660156 207.996094 202.96875 "/>
<path style=" stroke:none;fill-rule:nonzero;fill:rgb(100%,84.3%,0%);fill-opacity:1;" d="M 467.601562 281.300781 C 467.601562 283.613281 464.132812 283.613281 464.132812 281.300781 C 464.132812 278.992188 467.601562 278.992188 467.601562 281.300781 "/>
<path style=" stroke:none;fill-rule:nonzero;fill:rgb(100%,84.3%,0%);fill-opacity:1;" d="M 246.121094 202.96875 C 246.121094 205.28125 242.65625 205.28125 242.65625 202.96875 C 242.65625 200.660156 246.121094 200.660156 246.121094 202.96875 "/>
<path style=" stroke:none;fill-rule:nonzero;fill:rgb(100%,84.3%,0%);fill-opacity:1;" d="M 72.820312 202.96875 C 72.820312 205.28125 69.355469 205.28125 69.355469 202.96875 C 69.355469 200.660156 72.820312 200.660156 72.820312 202.96875 "/>
<path style=" stroke:none;fill-rule:nonzero;fill:rgb(100%,84.3%,0%);fill-opacity:1;" d="M 318.90625 202.96875 C 318.90625 205.28125 315.441406 205.28125 315.441406 202.96875 C 315.441406 200.660156 318.90625 200.660156 318.90625 202.96875 "/>
<path style=" stroke:none;fill-rule:nonzero;fill:rgb(100%,84.3%,0%);fill-opacity:1;" d="M 350.101562 202.96875 C 350.101562 205.28125 346.636719 205.28125 346.636719 202.96875 C 346.636719 200.660156 350.101562 200.660156 350.101562 202.96875 "/>
<path style=" stroke:none;fill-rule:nonzero;fill:rgb(100%,84.3%,0%);fill-opacity:1;" d="M 154.273438 306.023438 C 154.273438 308.335938 150.804688 308.335938 150.804688 306.023438 C 150.804688 303.714844 154.273438 303.714844 154.273438 306.023438 "/>
<path style=" stroke:none;fill-rule:nonzero;fill:rgb(100%,84.3%,0%);fill-opacity:1;" d="M 273.851562 202.96875 C 273.851562 205.28125 270.382812 205.28125 270.382812 202.96875 C 270.382812 200.660156 273.851562 200.660156 273.851562 202.96875 "/>
<path style=" stroke:none;fill-rule:nonzero;fill:rgb(100%,84.3%,0%);fill-opacity:1;" d="M 467.601562 263.972656 C 467.601562 266.28125 464.132812 266.28125 464.132812 263.972656 C 464.132812 261.660156 467.601562 261.660156 467.601562 263.972656 "/>
<path style=" stroke:none;fill-rule:nonzero;fill:rgb(100%,84.3%,0%);fill-opacity:1;" d="M 467.601562 222.378906 C 467.601562 224.691406 464.132812 224.691406 464.132812 222.378906 C 464.132812 220.070312 467.601562 220.070312 467.601562 222.378906 "/>
<path style=" stroke:none;fill-rule:nonzero;fill:rgb(100%,84.3%,0%);fill-opacity:1;" d="M 47.867188 229.3125 C 47.867188 231.621094 44.398438 231.621094 44.398438 229.3125 C 44.398438 227 47.867188 227 47.867188 229.3125 "/>
<path style=" stroke:none;fill-rule:nonzero;fill:rgb(100%,84.3%,0%);fill-opacity:1;" d="M 218.394531 309.03125 C 218.394531 311.339844 214.929688 311.339844 214.929688 309.03125 C 214.929688 306.71875 218.394531 306.71875 218.394531 309.03125 "/>
<path style=" stroke:none;fill-rule:nonzero;fill:rgb(100%,84.3%,0%);fill-opacity:1;" d="M 55.492188 309.03125 C 55.492188 311.339844 52.023438 311.339844 52.023438 309.03125 C 52.023438 306.71875 55.492188 306.71875 55.492188 309.03125 "/>
<path style=" stroke:none;fill-rule:nonzero;fill:rgb(100%,84.3%,0%);fill-opacity:1;" d="M 249.589844 202.96875 C 249.589844 205.28125 246.121094 205.28125 246.121094 202.96875 C 246.121094 200.660156 249.589844 200.660156 249.589844 202.96875 "/>
<path style=" stroke:none;fill-rule:nonzero;fill:rgb(100%,84.3%,0%);fill-opacity:1;" d="M 187.199219 202.96875 C 187.199219 205.28125 183.734375 205.28125 183.734375 202.96875 C 183.734375 200.660156 187.199219 200.660156 187.199219 202.96875 "/>
<path style=" stroke:none;fill-rule:nonzero;fill:rgb(100%,84.3%,0%);fill-opacity:1;" d="M 329.304688 202.96875 C 329.304688 205.28125 325.839844 205.28125 325.839844 202.96875 C 325.839844 200.660156 329.304688 200.660156 329.304688 202.96875 "/>
<path style=" stroke:none;fill-rule:nonzero;fill:rgb(100%,84.3%,0%);fill-opacity:1;" d="M 162.9375 202.96875 C 162.9375 205.28125 159.472656 205.28125 159.472656 202.96875 C 159.472656 200.660156 162.9375 200.660156 162.9375 202.96875 "/>
<path style=" stroke:none;fill-rule:nonzero;fill:rgb(100%,84.3%,0%);fill-opacity:1;" d="M 100.550781 202.96875 C 100.550781 205.28125 97.082031 205.28125 97.082031 202.96875 C 97.082031 200.660156 100.550781 200.660156 100.550781 202.96875 "/>
<path style=" stroke:none;fill-rule:nonzero;fill:rgb(100%,84.3%,0%);fill-opacity:1;" d="M 467.601562 284.769531 C 467.601562 287.078125 464.132812 287.078125 464.132812 284.769531 C 464.132812 282.457031 467.601562 282.457031 467.601562 284.769531 "/>
<path style=" stroke:none;fill-rule:nonzero;fill:rgb(100%,84.3%,0%);fill-opacity:1;" d="M 166.402344 202.96875 C 166.402344 205.28125 162.9375 205.28125 162.9375 202.96875 C 162.9375 200.660156 166.402344 200.660156 166.402344 202.96875 "/>
<path style=" stroke:none;fill-rule:nonzero;fill:rgb(100%,84.3%,0%);fill-opacity:1;" d="M 263.453125 202.96875 C 263.453125 205.28125 259.984375 205.28125 259.984375 202.96875 C 259.984375 200.660156 263.453125 200.660156 263.453125 202.96875 "/>
<path style=" stroke:none;fill-rule:nonzero;fill:rgb(100%,84.3%,0%);fill-opacity:1;" d="M 467.601562 239.710938 C 467.601562 242.019531 464.132812 242.019531 464.132812 239.710938 C 464.132812 237.398438 467.601562 237.398438 467.601562 239.710938 "/>
<path style=" stroke:none;fill-rule:nonzero;fill:rgb(100%,84.3%,0%);fill-opacity:1;" d="M 467.601562 202.96875 C 467.601562 205.28125 464.132812 205.28125 464.132812 202.96875 C 464.132812 200.660156 467.601562 200.660156 467.601562 202.96875 "/>
<path style=" stroke:none;fill-rule:nonzero;fill:rgb(100%,84.3%,0%);fill-opacity:1;" d="M 156.003906 309.03125 C 156.003906 311.339844 152.539062 311.339844 152.539062 309.03125 C 152.539062 306.71875 156.003906 306.71875 156.003906 309.03125 "/>
<path style=" stroke:none;fill-rule:nonzero;fill:rgb(100%,84.3%,0%);fill-opacity:1;" d="M 47.867188 263.972656 C 47.867188 266.28125 44.398438 266.28125 44.398438 263.972656 C 44.398438 261.660156 47.867188 261.660156 47.867188 263.972656 "/>
<path style=" stroke:none;fill-rule:nonzero;fill:rgb(100%,84.3%,0%);fill-opacity:1;" d="M 298.113281 202.96875 C 298.113281 205.28125 294.644531 205.28125 294.644531 202.96875 C 294.644531 200.660156 298.113281 200.660156 298.113281 202.96875 "/>
<path style=" stroke:none;fill-rule:nonzero;fill:rgb(100%,84.3%,0%);fill-opacity:1;" d="M 467.601562 211.980469 C 467.601562 214.292969 464.132812 214.292969 464.132812 211.980469 C 464.132812 209.671875 467.601562 209.671875 467.601562 211.980469 "/>
<path style=" stroke:none;fill-rule:nonzero;fill:rgb(100%,84.3%,0%);fill-opacity:1;" d="M 232.257812 309.03125 C 232.257812 311.339844 228.792969 311.339844 228.792969 309.03125 C 228.792969 306.71875 232.257812 306.71875 232.257812 309.03125 "/>
<path style=" stroke:none;fill-rule:nonzero;fill:rgb(100%,84.3%,0%);fill-opacity:1;" d="M 47.867188 236.242188 C 47.867188 238.554688 44.398438 238.554688 44.398438 236.242188 C 44.398438 233.933594 47.867188 233.933594 47.867188 236.242188 "/>
<path style=" stroke:none;fill-rule:nonzero;fill:rgb(100%,84.3%,0%);fill-opacity:1;" d="M 152.539062 202.96875 C 152.539062 205.28125 149.074219 205.28125 149.074219 202.96875 C 149.074219 200.660156 152.539062 200.660156 152.539062 202.96875 "/>
<path style=" stroke:none;fill-rule:nonzero;fill:rgb(100%,84.3%,0%);fill-opacity:1;" d="M 47.867188 260.507812 C 47.867188 262.816406 44.398438 262.816406 44.398438 260.507812 C 44.398438 258.195312 47.867188 258.195312 47.867188 260.507812 "/>
<path style=" stroke:none;fill-rule:nonzero;fill:rgb(100%,84.3%,0%);fill-opacity:1;" d="M 384.761719 202.96875 C 384.761719 205.28125 381.296875 205.28125 381.296875 202.96875 C 381.296875 200.660156 384.761719 200.660156 384.761719 202.96875 "/>
<path style=" stroke:none;fill-rule:nonzero;fill:rgb(100%,84.3%,0%);fill-opacity:1;" d="M 65.890625 309.03125 C 65.890625 311.339844 62.421875 311.339844 62.421875 309.03125 C 62.421875 306.71875 65.890625 306.71875 65.890625 309.03125 "/>
<path style=" stroke:none;fill-rule:nonzero;fill:rgb(100%,84.3%,0%);fill-opacity:1;" d="M 322.375 202.96875 C 322.375 205.28125 318.90625 205.28125 318.90625 202.96875 C 318.90625 200.660156 322.375 200.660156 322.375 202.96875 "/>
<path style=" stroke:none;fill-rule:nonzero;fill:rgb(100%,84.3%,0%);fill-opacity:1;" d="M 107.480469 202.96875 C 107.480469 205.28125 104.015625 205.28125 104.015625 202.96875 C 104.015625 200.660156 107.480469 200.660156 107.480469 202.96875 "/>
<path style=" stroke:none;fill-rule:nonzero;fill:rgb(100%,84.3%,0%);fill-opacity:1;" d="M 467.601562 274.371094 C 467.601562 276.679688 464.132812 276.679688 464.132812 274.371094 C 464.132812 272.058594 467.601562 272.058594 467.601562 274.371094 "/>
<path style=" stroke:none;fill-rule:nonzero;fill:rgb(100%,84.3%,0%);fill-opacity:1;" d="M 467.601562 298.632812 C 467.601562 300.941406 464.132812 300.941406 464.132812 298.632812 C 464.132812 296.320312 467.601562 296.320312 467.601562 298.632812 "/>
<path style=" stroke:none;fill-rule:nonzero;fill:rgb(100%,84.3%,0%);fill-opacity:1;" d="M 242.65625 309.03125 C 242.65625 311.339844 239.191406 311.339844 239.191406 309.03125 C 239.191406 306.71875 242.65625 306.71875 242.65625 309.03125 "/>
<path style=" stroke:none;fill-rule:nonzero;fill:rgb(100%,84.3%,0%);fill-opacity:1;" d="M 47.867188 243.175781 C 47.867188 245.488281 44.398438 245.488281 44.398438 243.175781 C 44.398438 240.867188 47.867188 240.867188 47.867188 243.175781 "/>
<path style=" stroke:none;fill-rule:nonzero;fill:rgb(100%,84.3%,0%);fill-opacity:1;" d="M 149.074219 202.96875 C 149.074219 205.28125 145.605469 205.28125 145.605469 202.96875 C 145.605469 200.660156 149.074219 200.660156 149.074219 202.96875 "/>
<path style=" stroke:none;fill-rule:nonzero;fill:rgb(100%,84.3%,0%);fill-opacity:1;" d="M 214.929688 309.03125 C 214.929688 311.339844 211.460938 311.339844 211.460938 309.03125 C 211.460938 306.71875 214.929688 306.71875 214.929688 309.03125 "/>
<path style=" stroke:none;fill-rule:nonzero;fill:rgb(100%,84.3%,0%);fill-opacity:1;" d="M 221.859375 202.96875 C 221.859375 205.28125 218.394531 205.28125 218.394531 202.96875 C 218.394531 200.660156 221.859375 200.660156 221.859375 202.96875 "/>
<path style=" stroke:none;fill-rule:nonzero;fill:rgb(100%,84.3%,0%);fill-opacity:1;" d="M 152.539062 309.03125 C 152.539062 311.339844 149.074219 311.339844 149.074219 309.03125 C 149.074219 306.71875 152.539062 306.71875 152.539062 309.03125 "/>
<path style=" stroke:none;fill-rule:nonzero;fill:rgb(100%,84.3%,0%);fill-opacity:1;" d="M 60.691406 306.023438 C 60.691406 308.335938 57.222656 308.335938 57.222656 306.023438 C 57.222656 303.714844 60.691406 303.714844 60.691406 306.023438 "/>
<path style=" stroke:none;fill-rule:nonzero;fill:rgb(100%,84.3%,0%);fill-opacity:1;" d="M 149.074219 309.03125 C 149.074219 311.339844 145.605469 311.339844 145.605469 309.03125 C 145.605469 306.71875 149.074219 306.71875 149.074219 309.03125 "/>
<path style=" stroke:none;fill-rule:nonzero;fill:rgb(100%,84.3%,0%);fill-opacity:1;" d="M 47.867188 202.96875 C 47.867188 205.28125 44.398438 205.28125 44.398438 202.96875 C 44.398438 200.660156 47.867188 200.660156 47.867188 202.96875 "/>
<path style=" stroke:none;fill-rule:nonzero;fill:rgb(100%,84.3%,0%);fill-opacity:1;" d="M 291.179688 202.96875 C 291.179688 205.28125 287.714844 205.28125 287.714844 202.96875 C 287.714844 200.660156 291.179688 200.660156 291.179688 202.96875 "/>
<path style=" stroke:none;fill-rule:nonzero;fill:rgb(100%,84.3%,0%);fill-opacity:1;" d="M 467.601562 305.5625 C 467.601562 307.875 464.132812 307.875 464.132812 305.5625 C 464.132812 303.253906 467.601562 303.253906 467.601562 305.5625 "/>
<path style=" stroke:none;fill-rule:nonzero;fill:rgb(100%,84.3%,0%);fill-opacity:1;" d="M 207.996094 309.03125 C 207.996094 311.339844 204.53125 311.339844 204.53125 309.03125 C 204.53125 306.71875 207.996094 306.71875 207.996094 309.03125 "/>
<path style=" stroke:none;fill-rule:nonzero;fill:rgb(100%,84.3%,0%);fill-opacity:1;" d="M 162.9375 309.03125 C 162.9375 311.339844 159.472656 311.339844 159.472656 309.03125 C 159.472656 306.71875 162.9375 306.71875 162.9375 309.03125 "/>
<path style=" stroke:none;fill-rule:nonzero;fill:rgb(100%,84.3%,0%);fill-opacity:1;" d="M 47.867188 239.710938 C 47.867188 242.019531 44.398438 242.019531 44.398438 239.710938 C 44.398438 237.398438 47.867188 237.398438 47.867188 239.710938 "/>
<path style=" stroke:none;fill-rule:nonzero;fill:rgb(100%,84.3%,0%);fill-opacity:1;" d="M 339.703125 202.96875 C 339.703125 205.28125 336.238281 205.28125 336.238281 202.96875 C 336.238281 200.660156 339.703125 200.660156 339.703125 202.96875 "/>
<path style=" stroke:none;fill-rule:nonzero;fill:rgb(100%,84.3%,0%);fill-opacity:1;" d="M 90.152344 202.96875 C 90.152344 205.28125 86.683594 205.28125 86.683594 202.96875 C 86.683594 200.660156 90.152344 200.660156 90.152344 202.96875 "/>
<path style=" stroke:none;fill-rule:nonzero;fill:rgb(100%,84.3%,0%);fill-opacity:1;" d="M 124.8125 202.96875 C 124.8125 205.28125 121.34375 205.28125 121.34375 202.96875 C 121.34375 200.660156 124.8125 200.660156 124.8125 202.96875 "/>
<path style=" stroke:none;fill-rule:nonzero;fill:rgb(100%,84.3%,0%);fill-opacity:1;" d="M 128.277344 202.96875 C 128.277344 205.28125 124.8125 205.28125 124.8125 202.96875 C 124.8125 200.660156 128.277344 200.660156 128.277344 202.96875 "/>
<path style=" stroke:none;fill-rule:nonzero;fill:rgb(100%,84.3%,0%);fill-opacity:1;" d="M 114.414062 202.96875 C 114.414062 205.28125 110.945312 205.28125 110.945312 202.96875 C 110.945312 200.660156 114.414062 200.660156 114.414062 202.96875 "/>
<path style=" stroke:none;fill-rule:nonzero;fill:rgb(100%,84.3%,0%);fill-opacity:1;" d="M 47.867188 232.777344 C 47.867188 235.089844 44.398438 235.089844 44.398438 232.777344 C 44.398438 230.46875 47.867188 230.46875 47.867188 232.777344 "/>
<path style=" stroke:none;fill-rule:nonzero;fill:rgb(100%,84.3%,0%);fill-opacity:1;" d="M 52.023438 309.03125 C 52.023438 311.339844 48.558594 311.339844 48.558594 309.03125 C 48.558594 306.71875 52.023438 306.71875 52.023438 309.03125 "/>
<path style=" stroke:none;fill-rule:nonzero;fill:rgb(100%,84.3%,0%);fill-opacity:1;" d="M 280.78125 202.96875 C 280.78125 205.28125 277.316406 205.28125 277.316406 202.96875 C 277.316406 200.660156 280.78125 200.660156 280.78125 202.96875 "/>
<path style=" stroke:none;fill-rule:nonzero;fill:rgb(100%,84.3%,0%);fill-opacity:1;" d="M 346.636719 202.96875 C 346.636719 205.28125 343.171875 205.28125 343.171875 202.96875 C 343.171875 200.660156 346.636719 200.660156 346.636719 202.96875 "/>
<path style=" stroke:none;fill-rule:nonzero;fill:rgb(100%,84.3%,0%);fill-opacity:1;" d="M 83.21875 202.96875 C 83.21875 205.28125 79.753906 205.28125 79.753906 202.96875 C 79.753906 200.660156 83.21875 200.660156 83.21875 202.96875 "/>
<path style=" stroke:none;fill-rule:nonzero;fill:rgb(100%,84.3%,0%);fill-opacity:1;" d="M 156.003906 202.96875 C 156.003906 205.28125 152.539062 205.28125 152.539062 202.96875 C 152.539062 200.660156 156.003906 200.660156 156.003906 202.96875 "/>
</g>
</svg>
