<?xml version="1.0" encoding="UTF-8"?>
<svg xmlns="http://www.w3.org/2000/svg" xmlns:xlink="http://www.w3.org/1999/xlink" width="512pt" height="512pt" viewBox="0 0 512 512" version="1.1">
<g id="surface411">
<path style=" stroke:none;fill-rule:nonzero;fill:rgb(26.7%,26.7%,26.7%);fill-opacity:1;" d="M 202.867188 0 L 309.132812 0 L 309.132812 512 L 202.867188 512 Z M 202.867188 0 "/>
<path style=" stroke:none;fill-rule:nonzero;fill:rgb(19.2%,38.8%,66.7%);fill-opacity:1;" d="M 211.722656 42.667969 L 300.277344 42.667969 L 300.277344 469.332031 L 211.722656 469.332031 Z M 211.722656 42.667969 "/>
<path style=" stroke:none;fill-rule:nonzero;fill:rgb(90.6%,14.9%,14.9%);fill-opacity:1;" d="M 315.804688 -19.4375 C 315.804688 5.96875 295.207031 26.566406 269.800781 26.566406 C 244.394531 26.566406 223.800781 5.96875 223.800781 -19.4375 C 223.800781 -44.84375 244.394531 -65.4375 269.800781 -65.4375 C 295.207031 -65.4375 315.804688 -44.84375 315.804688 -19.4375 "/>
<path style=" stroke:none;fill-rule:nonzero;fill:rgb(90.6%,14.9%,14.9%);fill-opacity:1;" d="M 468.757812 515.910156 C 468.757812 519.722656 465.667969 522.808594 461.859375 522.808594 C 458.046875 522.808594 454.957031 519.722656 454.957031 515.910156 C 454.957031 512.097656 458.046875 509.007812 461.859375 509.007812 C 465.667969 509.007812 468.757812 512.097656 468.757812 515.910156 "/>
<path style=" stroke:none;fill-rule:nonzero;fill:rgb(90.6%,14.9%,14.9%);fill-opacity:1;" d="M 495.210938 208.273438 C 495.210938 212.71875 491.605469 216.324219 487.160156 216.324219 C 482.714844 216.324219 479.109375 212.71875 479.109375 208.273438 C 479.109375 203.828125 482.714844 200.222656 487.160156 200.222656 C 491.605469 200.222656 495.210938 203.828125 495.210938 208.273438 "/>
<path style=" stroke:none;fill-rule:nonzero;fill:rgb(90.6%,14.9%,14.9%);fill-opacity:1;" d="M 418.730469 293.949219 C 418.730469 307.289062 407.917969 318.101562 394.578125 318.101562 C 381.242188 318.101562 370.429688 307.289062 370.429688 293.949219 C 370.429688 280.613281 381.242188 269.800781 394.578125 269.800781 C 407.917969 269.800781 418.730469 280.613281 418.730469 293.949219 "/>
<path style=" stroke:none;fill-rule:nonzero;fill:rgb(90.6%,14.9%,14.9%);fill-opacity:1;" d="M 362.378906 145.019531 C 362.378906 150.101562 358.261719 154.222656 353.179688 154.222656 C 348.097656 154.222656 343.980469 150.101562 343.980469 145.019531 C 343.980469 139.941406 348.097656 135.820312 353.179688 135.820312 C 358.261719 135.820312 362.378906 139.941406 362.378906 145.019531 "/>
<path style=" stroke:none;fill-rule:nonzero;fill:rgb(90.6%,14.9%,14.9%);fill-opacity:1;" d="M 361.804688 302.003906 C 361.804688 306.765625 357.941406 310.628906 353.179688 310.628906 C 348.414062 310.628906 344.554688 306.765625 344.554688 302.003906 C 344.554688 297.238281 348.414062 293.375 353.179688 293.375 C 357.941406 293.375 361.804688 297.238281 361.804688 302.003906 "/>
<path style=" stroke:none;fill-rule:nonzero;fill:rgb(100%,100%,100%);fill-opacity:1;" d="M 460.707031 269.800781 C 460.707031 273.632812 454.957031 273.632812 454.957031 269.800781 C 454.957031 265.96875 460.707031 265.96875 460.707031 269.800781 "/>
<path style=" stroke:none;fill-rule:nonzero;fill:rgb(100%,100%,100%);fill-opacity:1;" d="M 448.058594 264.625 C 448.058594 268.457031 442.308594 268.457031 442.308594 264.625 C 442.308594 260.792969 448.058594 260.792969 448.058594 264.625 "/>
<path style=" stroke:none;fill-rule:nonzero;fill:rgb(100%,100%,100%);fill-opacity:1;" d="M 347.429688 396.304688 C 347.429688 400.136719 341.679688 400.136719 341.679688 396.304688 C 341.679688 392.472656 347.429688 392.472656 347.429688 396.304688 "/>
<path style=" stroke:none;fill-rule:nonzero;fill:rgb(100%,100%,100%);fill-opacity:1;" d="M 400.90625 441.730469 C 400.90625 445.566406 395.15625 445.566406 395.15625 441.730469 C 395.15625 437.898438 400.90625 437.898438 400.90625 441.730469 "/>
<path style=" stroke:none;fill-rule:nonzero;fill:rgb(100%,100%,100%);fill-opacity:1;" d="M 463.582031 39.21875 C 463.582031 43.050781 457.832031 43.050781 457.832031 39.21875 C 457.832031 35.382812 463.582031 35.382812 463.582031 39.21875 "/>
<path style=" stroke:none;fill-rule:nonzero;fill:rgb(100%,100%,100%);fill-opacity:1;" d="M 339.953125 169.746094 C 339.953125 173.582031 334.203125 173.582031 334.203125 169.746094 C 334.203125 165.914062 339.953125 165.914062 339.953125 169.746094 "/>
<path style=" stroke:none;fill-rule:nonzero;fill:rgb(100%,100%,100%);fill-opacity:1;" d="M 321.550781 436.558594 C 321.550781 440.390625 315.800781 440.390625 315.800781 436.558594 C 315.800781 432.722656 321.550781 432.722656 321.550781 436.558594 "/>
<path style=" stroke:none;fill-rule:nonzero;fill:rgb(100%,100%,100%);fill-opacity:1;" d="M 265.199219 472.207031 C 265.199219 476.042969 259.449219 476.042969 259.449219 472.207031 C 259.449219 468.375 265.199219 468.375 265.199219 472.207031 "/>
<path style=" stroke:none;fill-rule:nonzero;fill:rgb(100%,100%,100%);fill-opacity:1;" d="M 327.304688 85.792969 C 327.304688 89.625 321.554688 89.625 321.554688 85.792969 C 321.554688 81.960938 327.304688 81.960938 327.304688 85.792969 "/>
<path style=" stroke:none;fill-rule:nonzero;fill:rgb(100%,100%,100%);fill-opacity:1;" d="M 348.003906 260.601562 C 348.003906 264.433594 342.253906 264.433594 342.253906 260.601562 C 342.253906 256.765625 348.003906 256.765625 348.003906 260.601562 "/>
<path style=" stroke:none;fill-rule:nonzero;fill:rgb(100%,100%,100%);fill-opacity:1;" d="M 414.132812 93.269531 C 414.132812 97.101562 408.382812 97.101562 408.382812 93.269531 C 408.382812 89.433594 414.132812 89.433594 414.132812 93.269531 "/>
<path style=" stroke:none;fill-rule:nonzero;fill:rgb(100%,100%,100%);fill-opacity:1;" d="M 419.304688 438.28125 C 419.304688 442.117188 413.554688 442.117188 413.554688 438.28125 C 413.554688 434.449219 419.304688 434.449219 419.304688 438.28125 "/>
<path style=" stroke:none;fill-rule:nonzero;fill:rgb(100%,100%,100%);fill-opacity:1;" d="M 354.328125 503.835938 C 354.328125 507.667969 348.578125 507.667969 348.578125 503.835938 C 348.578125 500 354.328125 500 354.328125 503.835938 "/>
<path style=" stroke:none;fill-rule:nonzero;fill:rgb(100%,100%,100%);fill-opacity:1;" d="M 325.578125 16.789062 C 325.578125 20.625 319.828125 20.625 319.828125 16.789062 C 319.828125 12.957031 325.578125 12.957031 325.578125 16.789062 "/>
<path style=" stroke:none;fill-rule:nonzero;fill:rgb(100%,100%,100%);fill-opacity:1;" d="M 378.480469 200.222656 C 378.480469 204.054688 372.730469 204.054688 372.730469 200.222656 C 372.730469 196.390625 378.480469 196.390625 378.480469 200.222656 "/>
<path style=" stroke:none;fill-rule:nonzero;fill:rgb(100%,100%,100%);fill-opacity:1;" d="M 444.605469 128.921875 C 444.605469 132.753906 438.855469 132.753906 438.855469 128.921875 C 438.855469 125.085938 444.605469 125.085938 444.605469 128.921875 "/>
<path style=" stroke:none;fill-rule:nonzero;fill:rgb(100%,100%,100%);fill-opacity:1;" d="M 201.375 316.953125 C 201.375 320.785156 195.621094 320.785156 195.621094 316.953125 C 195.621094 313.117188 201.375 313.117188 201.375 316.953125 "/>
<path style=" stroke:none;fill-rule:nonzero;fill:rgb(100%,100%,100%);fill-opacity:1;" d="M 162.847656 140.421875 C 162.847656 144.253906 157.097656 144.253906 157.097656 140.421875 C 157.097656 136.585938 162.847656 136.585938 162.847656 140.421875 "/>
<path style=" stroke:none;fill-rule:nonzero;fill:rgb(100%,100%,100%);fill-opacity:1;" d="M 398.03125 354.328125 C 398.03125 358.164062 392.28125 358.164062 392.28125 354.328125 C 392.28125 350.496094 398.03125 350.496094 398.03125 354.328125 "/>
<path style=" stroke:none;fill-rule:nonzero;fill:rgb(100%,100%,100%);fill-opacity:1;" d="M 428.507812 402.632812 C 428.507812 406.464844 422.757812 406.464844 422.757812 402.632812 C 422.757812 398.796875 428.507812 398.796875 428.507812 402.632812 "/>
<path style=" stroke:none;fill-rule:nonzero;fill:rgb(100%,100%,100%);fill-opacity:1;" d="M 506.710938 479.683594 C 506.710938 483.515625 500.960938 483.515625 500.960938 479.683594 C 500.960938 475.851562 506.710938 475.851562 506.710938 479.683594 "/>
<path style=" stroke:none;fill-rule:nonzero;fill:rgb(100%,100%,100%);fill-opacity:1;" d="M 375.605469 444.605469 C 375.605469 448.441406 369.855469 448.441406 369.855469 444.605469 C 369.855469 440.773438 375.605469 440.773438 375.605469 444.605469 "/>
<path style=" stroke:none;fill-rule:nonzero;fill:rgb(100%,100%,100%);fill-opacity:1;" d="M 410.679688 186.421875 C 410.679688 190.253906 404.929688 190.253906 404.929688 186.421875 C 404.929688 182.589844 410.679688 182.589844 410.679688 186.421875 "/>
<path style=" stroke:none;fill-rule:nonzero;fill:rgb(100%,100%,100%);fill-opacity:1;" d="M 173.773438 212.296875 C 173.773438 216.132812 168.023438 216.132812 168.023438 212.296875 C 168.023438 208.464844 173.773438 208.464844 173.773438 212.296875 "/>
<path style=" stroke:none;fill-rule:nonzero;fill:rgb(100%,84.3%,0%);fill-opacity:1;" d="M 272.101562 463.582031 C 272.101562 467.417969 266.351562 467.417969 266.351562 463.582031 C 266.351562 459.75 272.101562 459.75 272.101562 463.582031 "/>
<path style=" stroke:none;fill-rule:nonzero;fill:rgb(100%,84.3%,0%);fill-opacity:1;" d="M 220.347656 157.671875 C 220.347656 161.503906 214.597656 161.503906 214.597656 157.671875 C 214.597656 153.835938 220.347656 153.835938 220.347656 157.671875 "/>
<path style=" stroke:none;fill-rule:nonzero;fill:rgb(100%,84.3%,0%);fill-opacity:1;" d="M 226.097656 48.417969 C 226.097656 52.25 220.347656 52.25 220.347656 48.417969 C 220.347656 44.582031 226.097656 44.582031 226.097656 48.417969 "/>
<path style=" stroke:none;fill-rule:nonzero;fill:rgb(100%,84.3%,0%);fill-opacity:1;" d="M 277.460938 77.167969 C 277.460938 81 271.707031 81 271.707031 77.167969 C 271.707031 73.335938 277.460938 73.335938 277.460938 77.167969 "/>
<path style=" stroke:none;fill-rule:nonzero;fill:rgb(100%,84.3%,0%);fill-opacity:1;" d="M 297.402344 312.925781 C 297.402344 316.761719 291.652344 316.761719 291.652344 312.925781 C 291.652344 309.09375 297.402344 309.09375 297.402344 312.925781 "/>
<path style=" stroke:none;fill-rule:nonzero;fill:rgb(100%,84.3%,0%);fill-opacity:1;" d="M 297.402344 134.671875 C 297.402344 138.503906 291.652344 138.503906 291.652344 134.671875 C 291.652344 130.835938 297.402344 130.835938 297.402344 134.671875 "/>
<path style=" stroke:none;fill-rule:nonzero;fill:rgb(100%,84.3%,0%);fill-opacity:1;" d="M 283.601562 453.613281 C 283.601562 457.445312 277.851562 457.445312 277.851562 453.613281 C 277.851562 449.777344 283.601562 449.777344 283.601562 453.613281 "/>
<path style=" stroke:none;fill-rule:nonzero;fill:rgb(100%,84.3%,0%);fill-opacity:1;" d="M 297.402344 140.421875 C 297.402344 144.253906 291.652344 144.253906 291.652344 140.421875 C 291.652344 136.585938 297.402344 136.585938 297.402344 140.421875 "/>
<path style=" stroke:none;fill-rule:nonzero;fill:rgb(100%,84.3%,0%);fill-opacity:1;" d="M 292.417969 246.800781 C 292.417969 250.632812 286.664062 250.632812 286.664062 246.800781 C 286.664062 242.964844 292.417969 242.964844 292.417969 246.800781 "/>
<path style=" stroke:none;fill-rule:nonzero;fill:rgb(100%,84.3%,0%);fill-opacity:1;" d="M 220.347656 59.917969 C 220.347656 63.75 214.597656 63.75 214.597656 59.917969 C 214.597656 56.082031 220.347656 56.082031 220.347656 59.917969 "/>
<path style=" stroke:none;fill-rule:nonzero;fill:rgb(100%,84.3%,0%);fill-opacity:1;" d="M 243.347656 463.582031 C 243.347656 467.417969 237.597656 467.417969 237.597656 463.582031 C 237.597656 459.75 243.347656 459.75 243.347656 463.582031 "/>
<path style=" stroke:none;fill-rule:nonzero;fill:rgb(100%,84.3%,0%);fill-opacity:1;" d="M 269.226562 458.597656 C 269.226562 462.429688 263.476562 462.429688 263.476562 458.597656 C 263.476562 454.765625 269.226562 454.765625 269.226562 458.597656 "/>
<path style=" stroke:none;fill-rule:nonzero;fill:rgb(100%,84.3%,0%);fill-opacity:1;" d="M 297.402344 88.667969 C 297.402344 92.5 291.652344 92.5 291.652344 88.667969 C 291.652344 84.835938 297.402344 84.835938 297.402344 88.667969 "/>
<path style=" stroke:none;fill-rule:nonzero;fill:rgb(100%,84.3%,0%);fill-opacity:1;" d="M 297.402344 341.679688 C 297.402344 345.511719 291.652344 345.511719 291.652344 341.679688 C 291.652344 337.84375 297.402344 337.84375 297.402344 341.679688 "/>
<path style=" stroke:none;fill-rule:nonzero;fill:rgb(100%,84.3%,0%);fill-opacity:1;" d="M 220.347656 197.921875 C 220.347656 201.757812 214.597656 201.757812 214.597656 197.921875 C 214.597656 194.089844 220.347656 194.089844 220.347656 197.921875 "/>
<path style=" stroke:none;fill-rule:nonzero;fill:rgb(100%,84.3%,0%);fill-opacity:1;" d="M 297.402344 111.667969 C 297.402344 115.503906 291.652344 115.503906 291.652344 111.667969 C 291.652344 107.835938 297.402344 107.835938 297.402344 111.667969 "/>
<path style=" stroke:none;fill-rule:nonzero;fill:rgb(100%,84.3%,0%);fill-opacity:1;" d="M 297.402344 226.675781 C 297.402344 230.507812 291.652344 230.507812 291.652344 226.675781 C 291.652344 222.839844 297.402344 222.839844 297.402344 226.675781 "/>
<path style=" stroke:none;fill-rule:nonzero;fill:rgb(100%,84.3%,0%);fill-opacity:1;" d="M 220.347656 295.675781 C 220.347656 299.511719 214.597656 299.511719 214.597656 295.675781 C 214.597656 291.84375 220.347656 291.84375 220.347656 295.675781 "/>
<path style=" stroke:none;fill-rule:nonzero;fill:rgb(100%,84.3%,0%);fill-opacity:1;" d="M 220.347656 100.167969 C 220.347656 104.003906 214.597656 104.003906 214.597656 100.167969 C 214.597656 96.335938 220.347656 96.335938 220.347656 100.167969 "/>
<path style=" stroke:none;fill-rule:nonzero;fill:rgb(100%,84.3%,0%);fill-opacity:1;" d="M 297.402344 174.921875 C 297.402344 178.753906 291.652344 178.753906 291.652344 174.921875 C 291.652344 171.089844 297.402344 171.089844 297.402344 174.921875 "/>
<path style=" stroke:none;fill-rule:nonzero;fill:rgb(100%,84.3%,0%);fill-opacity:1;" d="M 243.347656 48.417969 C 243.347656 52.25 237.597656 52.25 237.597656 48.417969 C 237.597656 44.582031 243.347656 44.582031 243.347656 48.417969 "/>
<path style=" stroke:none;fill-rule:nonzero;fill:rgb(100%,84.3%,0%);fill-opacity:1;" d="M 220.347656 169.171875 C 220.347656 173.003906 214.597656 173.003906 214.597656 169.171875 C 214.597656 165.339844 220.347656 165.339844 220.347656 169.171875 "/>
<path style=" stroke:none;fill-rule:nonzero;fill:rgb(100%,84.3%,0%);fill-opacity:1;" d="M 226.097656 463.582031 C 226.097656 467.417969 220.347656 467.417969 220.347656 463.582031 C 220.347656 459.75 226.097656 459.75 226.097656 463.582031 "/>
<path style=" stroke:none;fill-rule:nonzero;fill:rgb(100%,84.3%,0%);fill-opacity:1;" d="M 220.347656 123.171875 C 220.347656 127.003906 214.597656 127.003906 214.597656 123.171875 C 214.597656 119.335938 220.347656 119.335938 220.347656 123.171875 "/>
<path style=" stroke:none;fill-rule:nonzero;fill:rgb(100%,84.3%,0%);fill-opacity:1;" d="M 292.417969 442.308594 C 292.417969 446.140625 286.664062 446.140625 286.664062 442.308594 C 286.664062 438.472656 292.417969 438.472656 292.417969 442.308594 "/>
<path style=" stroke:none;fill-rule:nonzero;fill:rgb(100%,84.3%,0%);fill-opacity:1;" d="M 297.402344 220.925781 C 297.402344 224.757812 291.652344 224.757812 291.652344 220.925781 C 291.652344 217.089844 297.402344 217.089844 297.402344 220.925781 "/>
<path style=" stroke:none;fill-rule:nonzero;fill:rgb(100%,84.3%,0%);fill-opacity:1;" d="M 220.347656 146.171875 C 220.347656 150.003906 214.597656 150.003906 214.597656 146.171875 C 214.597656 142.335938 220.347656 142.335938 220.347656 146.171875 "/>
<path style=" stroke:none;fill-rule:nonzero;fill:rgb(100%,84.3%,0%);fill-opacity:1;" d="M 220.347656 163.421875 C 220.347656 167.253906 214.597656 167.253906 214.597656 163.421875 C 214.597656 159.585938 220.347656 159.585938 220.347656 163.421875 "/>
<path style=" stroke:none;fill-rule:nonzero;fill:rgb(100%,84.3%,0%);fill-opacity:1;" d="M 297.402344 456.683594 C 297.402344 460.515625 291.652344 460.515625 291.652344 456.683594 C 291.652344 452.847656 297.402344 452.847656 297.402344 456.683594 "/>
<path style=" stroke:none;fill-rule:nonzero;fill:rgb(100%,84.3%,0%);fill-opacity:1;" d="M 297.402344 404.929688 C 297.402344 408.765625 291.652344 408.765625 291.652344 404.929688 C 291.652344 401.097656 297.402344 401.097656 297.402344 404.929688 "/>
<path style=" stroke:none;fill-rule:nonzero;fill:rgb(100%,84.3%,0%);fill-opacity:1;" d="M 297.402344 393.429688 C 297.402344 397.261719 291.652344 397.261719 291.652344 393.429688 C 291.652344 389.597656 297.402344 389.597656 297.402344 393.429688 "/>
<path style=" stroke:none;fill-rule:nonzero;fill:rgb(100%,84.3%,0%);fill-opacity:1;" d="M 297.402344 163.421875 C 297.402344 167.253906 291.652344 167.253906 291.652344 163.421875 C 291.652344 159.585938 297.402344 159.585938 297.402344 163.421875 "/>
<path style=" stroke:none;fill-rule:nonzero;fill:rgb(100%,84.3%,0%);fill-opacity:1;" d="M 220.347656 312.925781 C 220.347656 316.761719 214.597656 316.761719 214.597656 312.925781 C 214.597656 309.09375 220.347656 309.09375 220.347656 312.925781 "/>
<path style=" stroke:none;fill-rule:nonzero;fill:rgb(100%,84.3%,0%);fill-opacity:1;" d="M 283.601562 48.417969 C 283.601562 52.25 277.851562 52.25 277.851562 48.417969 C 277.851562 44.582031 283.601562 44.582031 283.601562 48.417969 "/>
<path style=" stroke:none;fill-rule:nonzero;fill:rgb(100%,84.3%,0%);fill-opacity:1;" d="M 220.347656 209.421875 C 220.347656 213.257812 214.597656 213.257812 214.597656 209.421875 C 214.597656 205.589844 220.347656 205.589844 220.347656 209.421875 "/>
<path style=" stroke:none;fill-rule:nonzero;fill:rgb(100%,84.3%,0%);fill-opacity:1;" d="M 297.402344 54.167969 C 297.402344 58 291.652344 58 291.652344 54.167969 C 291.652344 50.332031 297.402344 50.332031 297.402344 54.167969 "/>
<path style=" stroke:none;fill-rule:nonzero;fill:rgb(100%,84.3%,0%);fill-opacity:1;" d="M 292.417969 453.808594 C 292.417969 457.640625 286.664062 457.640625 286.664062 453.808594 C 286.664062 449.972656 292.417969 449.972656 292.417969 453.808594 "/>
<path style=" stroke:none;fill-rule:nonzero;fill:rgb(100%,84.3%,0%);fill-opacity:1;" d="M 297.402344 318.675781 C 297.402344 322.511719 291.652344 322.511719 291.652344 318.675781 C 291.652344 314.84375 297.402344 314.84375 297.402344 318.675781 "/>
<path style=" stroke:none;fill-rule:nonzero;fill:rgb(100%,84.3%,0%);fill-opacity:1;" d="M 220.347656 272.675781 C 220.347656 276.507812 214.597656 276.507812 214.597656 272.675781 C 214.597656 268.84375 220.347656 268.84375 220.347656 272.675781 "/>
<path style=" stroke:none;fill-rule:nonzero;fill:rgb(100%,84.3%,0%);fill-opacity:1;" d="M 220.347656 347.429688 C 220.347656 351.261719 214.597656 351.261719 214.597656 347.429688 C 214.597656 343.59375 220.347656 343.59375 220.347656 347.429688 "/>
<path style=" stroke:none;fill-rule:nonzero;fill:rgb(100%,84.3%,0%);fill-opacity:1;" d="M 220.347656 186.421875 C 220.347656 190.253906 214.597656 190.253906 214.597656 186.421875 C 214.597656 182.589844 220.347656 182.589844 220.347656 186.421875 "/>
<path style=" stroke:none;fill-rule:nonzero;fill:rgb(100%,84.3%,0%);fill-opacity:1;" d="M 220.347656 111.667969 C 220.347656 115.503906 214.597656 115.503906 214.597656 111.667969 C 214.597656 107.835938 220.347656 107.835938 220.347656 111.667969 "/>
<path style=" stroke:none;fill-rule:nonzero;fill:rgb(100%,84.3%,0%);fill-opacity:1;" d="M 220.347656 215.171875 C 220.347656 219.007812 214.597656 219.007812 214.597656 215.171875 C 214.597656 211.339844 220.347656 211.339844 220.347656 215.171875 "/>
<path style=" stroke:none;fill-rule:nonzero;fill:rgb(100%,84.3%,0%);fill-opacity:1;" d="M 292.417969 396.304688 C 292.417969 400.136719 286.664062 400.136719 286.664062 396.304688 C 286.664062 392.472656 292.417969 392.472656 292.417969 396.304688 "/>
<path style=" stroke:none;fill-rule:nonzero;fill:rgb(100%,84.3%,0%);fill-opacity:1;" d="M 220.347656 330.179688 C 220.347656 334.011719 214.597656 334.011719 214.597656 330.179688 C 214.597656 326.34375 220.347656 326.34375 220.347656 330.179688 "/>
<path style=" stroke:none;fill-rule:nonzero;fill:rgb(100%,84.3%,0%);fill-opacity:1;" d="M 289.351562 463.582031 C 289.351562 467.417969 283.601562 467.417969 283.601562 463.582031 C 283.601562 459.75 289.351562 459.75 289.351562 463.582031 "/>
<path style=" stroke:none;fill-rule:nonzero;fill:rgb(100%,84.3%,0%);fill-opacity:1;" d="M 272.101562 48.417969 C 272.101562 52.25 266.351562 52.25 266.351562 48.417969 C 266.351562 44.582031 272.101562 44.582031 272.101562 48.417969 "/>
<path style=" stroke:none;fill-rule:nonzero;fill:rgb(100%,84.3%,0%);fill-opacity:1;" d="M 297.402344 203.671875 C 297.402344 207.507812 291.652344 207.507812 291.652344 203.671875 C 291.652344 199.839844 297.402344 199.839844 297.402344 203.671875 "/>
<path style=" stroke:none;fill-rule:nonzero;fill:rgb(100%,84.3%,0%);fill-opacity:1;" d="M 220.347656 387.679688 C 220.347656 391.511719 214.597656 391.511719 214.597656 387.679688 C 214.597656 383.847656 220.347656 383.847656 220.347656 387.679688 "/>
<path style=" stroke:none;fill-rule:nonzero;fill:rgb(100%,84.3%,0%);fill-opacity:1;" d="M 220.347656 301.425781 C 220.347656 305.261719 214.597656 305.261719 214.597656 301.425781 C 214.597656 297.59375 220.347656 297.59375 220.347656 301.425781 "/>
<path style=" stroke:none;fill-rule:nonzero;fill:rgb(100%,84.3%,0%);fill-opacity:1;" d="M 220.347656 82.917969 C 220.347656 86.75 214.597656 86.75 214.597656 82.917969 C 214.597656 79.085938 220.347656 79.085938 220.347656 82.917969 "/>
<path style=" stroke:none;fill-rule:nonzero;fill:rgb(100%,84.3%,0%);fill-opacity:1;" d="M 220.347656 261.175781 C 220.347656 265.007812 214.597656 265.007812 214.597656 261.175781 C 214.597656 257.339844 220.347656 257.339844 220.347656 261.175781 "/>
<path style=" stroke:none;fill-rule:nonzero;fill:rgb(100%,84.3%,0%);fill-opacity:1;" d="M 220.347656 427.933594 C 220.347656 431.765625 214.597656 431.765625 214.597656 427.933594 C 214.597656 424.097656 220.347656 424.097656 220.347656 427.933594 "/>
<path style=" stroke:none;fill-rule:nonzero;fill:rgb(100%,84.3%,0%);fill-opacity:1;" d="M 220.347656 71.417969 C 220.347656 75.25 214.597656 75.25 214.597656 71.417969 C 214.597656 67.585938 220.347656 67.585938 220.347656 71.417969 "/>
<path style=" stroke:none;fill-rule:nonzero;fill:rgb(100%,84.3%,0%);fill-opacity:1;" d="M 220.347656 289.925781 C 220.347656 293.757812 214.597656 293.757812 214.597656 289.925781 C 214.597656 286.09375 220.347656 286.09375 220.347656 289.925781 "/>
<path style=" stroke:none;fill-rule:nonzero;fill:rgb(100%,84.3%,0%);fill-opacity:1;" d="M 220.347656 238.175781 C 220.347656 242.007812 214.597656 242.007812 214.597656 238.175781 C 214.597656 234.339844 220.347656 234.339844 220.347656 238.175781 "/>
<path style=" stroke:none;fill-rule:nonzero;fill:rgb(100%,84.3%,0%);fill-opacity:1;" d="M 297.402344 289.925781 C 297.402344 293.757812 291.652344 293.757812 291.652344 289.925781 C 291.652344 286.09375 297.402344 286.09375 297.402344 289.925781 "/>
<path style=" stroke:none;fill-rule:nonzero;fill:rgb(100%,84.3%,0%);fill-opacity:1;" d="M 297.402344 123.171875 C 297.402344 127.003906 291.652344 127.003906 291.652344 123.171875 C 291.652344 119.335938 297.402344 119.335938 297.402344 123.171875 "/>
<path style=" stroke:none;fill-rule:nonzero;fill:rgb(100%,84.3%,0%);fill-opacity:1;" d="M 297.402344 209.421875 C 297.402344 213.257812 291.652344 213.257812 291.652344 209.421875 C 291.652344 205.589844 297.402344 205.589844 297.402344 209.421875 "/>
<path style=" stroke:none;fill-rule:nonzero;fill:rgb(100%,84.3%,0%);fill-opacity:1;" d="M 297.402344 278.425781 C 297.402344 282.257812 291.652344 282.257812 291.652344 278.425781 C 291.652344 274.59375 297.402344 274.59375 297.402344 278.425781 "/>
<path style=" stroke:none;fill-rule:nonzero;fill:rgb(100%,84.3%,0%);fill-opacity:1;" d="M 297.402344 261.175781 C 297.402344 265.007812 291.652344 265.007812 291.652344 261.175781 C 291.652344 257.339844 297.402344 257.339844 297.402344 261.175781 "/>
<path style=" stroke:none;fill-rule:nonzero;fill:rgb(100%,84.3%,0%);fill-opacity:1;" d="M 297.402344 433.683594 C 297.402344 437.515625 291.652344 437.515625 291.652344 433.683594 C 291.652344 429.847656 297.402344 429.847656 297.402344 433.683594 "/>
<path style=" stroke:none;fill-rule:nonzero;fill:rgb(100%,84.3%,0%);fill-opacity:1;" d="M 237.597656 463.582031 C 237.597656 467.417969 231.847656 467.417969 231.847656 463.582031 C 231.847656 459.75 237.597656 459.75 237.597656 463.582031 "/>
<path style=" stroke:none;fill-rule:nonzero;fill:rgb(100%,84.3%,0%);fill-opacity:1;" d="M 292.417969 160.546875 C 292.417969 164.378906 286.664062 164.378906 286.664062 160.546875 C 286.664062 156.710938 292.417969 156.710938 292.417969 160.546875 "/>
<path style=" stroke:none;fill-rule:nonzero;fill:rgb(100%,84.3%,0%);fill-opacity:1;" d="M 220.347656 140.421875 C 220.347656 144.253906 214.597656 144.253906 214.597656 140.421875 C 214.597656 136.585938 220.347656 136.585938 220.347656 140.421875 "/>
<path style=" stroke:none;fill-rule:nonzero;fill:rgb(100%,84.3%,0%);fill-opacity:1;" d="M 297.402344 422.179688 C 297.402344 426.015625 291.652344 426.015625 291.652344 422.179688 C 291.652344 418.347656 297.402344 418.347656 297.402344 422.179688 "/>
<path style=" stroke:none;fill-rule:nonzero;fill:rgb(100%,84.3%,0%);fill-opacity:1;" d="M 220.347656 54.167969 C 220.347656 58 214.597656 58 214.597656 54.167969 C 214.597656 50.332031 220.347656 50.332031 220.347656 54.167969 "/>
<path style=" stroke:none;fill-rule:nonzero;fill:rgb(100%,84.3%,0%);fill-opacity:1;" d="M 297.402344 416.429688 C 297.402344 420.265625 291.652344 420.265625 291.652344 416.429688 C 291.652344 412.597656 297.402344 412.597656 297.402344 416.429688 "/>
<path style=" stroke:none;fill-rule:nonzero;fill:rgb(100%,84.3%,0%);fill-opacity:1;" d="M 297.402344 427.933594 C 297.402344 431.765625 291.652344 431.765625 291.652344 427.933594 C 291.652344 424.097656 297.402344 424.097656 297.402344 427.933594 "/>
<path style=" stroke:none;fill-rule:nonzero;fill:rgb(100%,84.3%,0%);fill-opacity:1;" d="M 297.402344 238.175781 C 297.402344 242.007812 291.652344 242.007812 291.652344 238.175781 C 291.652344 234.339844 297.402344 234.339844 297.402344 238.175781 "/>
<path style=" stroke:none;fill-rule:nonzero;fill:rgb(100%,84.3%,0%);fill-opacity:1;" d="M 297.402344 358.929688 C 297.402344 362.761719 291.652344 362.761719 291.652344 358.929688 C 291.652344 355.09375 297.402344 355.09375 297.402344 358.929688 "/>
<path style=" stroke:none;fill-rule:nonzero;fill:rgb(100%,84.3%,0%);fill-opacity:1;" d="M 297.402344 71.417969 C 297.402344 75.25 291.652344 75.25 291.652344 71.417969 C 291.652344 67.585938 297.402344 67.585938 297.402344 71.417969 "/>
<path style=" stroke:none;fill-rule:nonzero;fill:rgb(100%,84.3%,0%);fill-opacity:1;" d="M 297.402344 186.421875 C 297.402344 190.253906 291.652344 190.253906 291.652344 186.421875 C 291.652344 182.589844 297.402344 182.589844 297.402344 186.421875 "/>
<path style=" stroke:none;fill-rule:nonzero;fill:rgb(100%,84.3%,0%);fill-opacity:1;" d="M 297.402344 463.582031 C 297.402344 467.417969 291.652344 467.417969 291.652344 463.582031 C 291.652344 459.75 297.402344 459.75 297.402344 463.582031 "/>
<path style=" stroke:none;fill-rule:nonzero;fill:rgb(100%,84.3%,0%);fill-opacity:1;" d="M 297.402344 117.421875 C 297.402344 121.253906 291.652344 121.253906 291.652344 117.421875 C 291.652344 113.585938 297.402344 113.585938 297.402344 117.421875 "/>
<path style=" stroke:none;fill-rule:nonzero;fill:rgb(100%,84.3%,0%);fill-opacity:1;" d="M 297.402344 151.921875 C 297.402344 155.753906 291.652344 155.753906 291.652344 151.921875 C 291.652344 148.085938 297.402344 148.085938 297.402344 151.921875 "/>
<path style=" stroke:none;fill-rule:nonzero;fill:rgb(100%,84.3%,0%);fill-opacity:1;" d="M 297.402344 105.917969 C 297.402344 109.753906 291.652344 109.753906 291.652344 105.917969 C 291.652344 102.085938 297.402344 102.085938 297.402344 105.917969 "/>
<path style=" stroke:none;fill-rule:nonzero;fill:rgb(100%,84.3%,0%);fill-opacity:1;" d="M 220.347656 404.929688 C 220.347656 408.765625 214.597656 408.765625 214.597656 404.929688 C 214.597656 401.097656 220.347656 401.097656 220.347656 404.929688 "/>
<path style=" stroke:none;fill-rule:nonzero;fill:rgb(100%,84.3%,0%);fill-opacity:1;" d="M 220.347656 220.925781 C 220.347656 224.757812 214.597656 224.757812 214.597656 220.925781 C 214.597656 217.089844 220.347656 217.089844 220.347656 220.925781 "/>
<path style=" stroke:none;fill-rule:nonzero;fill:rgb(100%,84.3%,0%);fill-opacity:1;" d="M 254.851562 48.417969 C 254.851562 52.25 249.101562 52.25 249.101562 48.417969 C 249.101562 44.582031 254.851562 44.582031 254.851562 48.417969 "/>
<path style=" stroke:none;fill-rule:nonzero;fill:rgb(100%,84.3%,0%);fill-opacity:1;" d="M 220.347656 243.925781 C 220.347656 247.757812 214.597656 247.757812 214.597656 243.925781 C 214.597656 240.089844 220.347656 240.089844 220.347656 243.925781 "/>
<path style=" stroke:none;fill-rule:nonzero;fill:rgb(100%,84.3%,0%);fill-opacity:1;" d="M 220.347656 77.167969 C 220.347656 81 214.597656 81 214.597656 77.167969 C 214.597656 73.335938 220.347656 73.335938 220.347656 77.167969 "/>
<path style=" stroke:none;fill-rule:nonzero;fill:rgb(100%,84.3%,0%);fill-opacity:1;" d="M 220.347656 324.429688 C 220.347656 328.261719 214.597656 328.261719 214.597656 324.429688 C 214.597656 320.59375 220.347656 320.59375 220.347656 324.429688 "/>
<path style=" stroke:none;fill-rule:nonzero;fill:rgb(100%,84.3%,0%);fill-opacity:1;" d="M 297.402344 128.921875 C 297.402344 132.753906 291.652344 132.753906 291.652344 128.921875 C 291.652344 125.085938 297.402344 125.085938 297.402344 128.921875 "/>
<path style=" stroke:none;fill-rule:nonzero;fill:rgb(100%,84.3%,0%);fill-opacity:1;" d="M 220.347656 128.921875 C 220.347656 132.753906 214.597656 132.753906 214.597656 128.921875 C 214.597656 125.085938 220.347656 125.085938 220.347656 128.921875 "/>
<path style=" stroke:none;fill-rule:nonzero;fill:rgb(100%,84.3%,0%);fill-opacity:1;" d="M 297.402344 381.929688 C 297.402344 385.761719 291.652344 385.761719 291.652344 381.929688 C 291.652344 378.097656 297.402344 378.097656 297.402344 381.929688 "/>
<path style=" stroke:none;fill-rule:nonzero;fill:rgb(100%,84.3%,0%);fill-opacity:1;" d="M 220.347656 117.421875 C 220.347656 121.253906 214.597656 121.253906 214.597656 117.421875 C 214.597656 113.585938 220.347656 113.585938 220.347656 117.421875 "/>
<path style=" stroke:none;fill-rule:nonzero;fill:rgb(100%,84.3%,0%);fill-opacity:1;" d="M 297.402344 399.179688 C 297.402344 403.015625 291.652344 403.015625 291.652344 399.179688 C 291.652344 395.347656 297.402344 395.347656 297.402344 399.179688 "/>
<path style=" stroke:none;fill-rule:nonzero;fill:rgb(100%,84.3%,0%);fill-opacity:1;" d="M 297.402344 272.675781 C 297.402344 276.507812 291.652344 276.507812 291.652344 272.675781 C 291.652344 268.84375 297.402344 268.84375 297.402344 272.675781 "/>
<path style=" stroke:none;fill-rule:nonzero;fill:rgb(100%,84.3%,0%);fill-opacity:1;" d="M 220.347656 94.417969 C 220.347656 98.253906 214.597656 98.253906 214.597656 94.417969 C 214.597656 90.585938 220.347656 90.585938 220.347656 94.417969 "/>
<path style=" stroke:none;fill-rule:nonzero;fill:rgb(100%,84.3%,0%);fill-opacity:1;" d="M 297.402344 100.167969 C 297.402344 104.003906 291.652344 104.003906 291.652344 100.167969 C 291.652344 96.335938 297.402344 96.335938 297.402344 100.167969 "/>
<path style=" stroke:none;fill-rule:nonzero;fill:rgb(100%,84.3%,0%);fill-opacity:1;" d="M 249.101562 463.582031 C 249.101562 467.417969 243.351562 467.417969 243.351562 463.582031 C 243.351562 459.75 249.101562 459.75 249.101562 463.582031 "/>
<path style=" stroke:none;fill-rule:nonzero;fill:rgb(100%,84.3%,0%);fill-opacity:1;" d="M 231.847656 463.582031 C 231.847656 467.417969 226.097656 467.417969 226.097656 463.582031 C 226.097656 459.75 231.847656 459.75 231.847656 463.582031 "/>
<path style=" stroke:none;fill-rule:nonzero;fill:rgb(100%,84.3%,0%);fill-opacity:1;" d="M 286.476562 458.597656 C 286.476562 462.429688 280.726562 462.429688 280.726562 458.597656 C 280.726562 454.765625 286.476562 454.765625 286.476562 458.597656 "/>
<path style=" stroke:none;fill-rule:nonzero;fill:rgb(100%,84.3%,0%);fill-opacity:1;" d="M 220.347656 307.175781 C 220.347656 311.011719 214.597656 311.011719 214.597656 307.175781 C 214.597656 303.34375 220.347656 303.34375 220.347656 307.175781 "/>
<path style=" stroke:none;fill-rule:nonzero;fill:rgb(100%,84.3%,0%);fill-opacity:1;" d="M 220.347656 105.917969 C 220.347656 109.753906 214.597656 109.753906 214.597656 105.917969 C 214.597656 102.085938 220.347656 102.085938 220.347656 105.917969 "/>
<path style=" stroke:none;fill-rule:nonzero;fill:rgb(100%,84.3%,0%);fill-opacity:1;" d="M 297.402344 364.679688 C 297.402344 368.511719 291.652344 368.511719 291.652344 364.679688 C 291.652344 360.84375 297.402344 360.84375 297.402344 364.679688 "/>
<path style=" stroke:none;fill-rule:nonzero;fill:rgb(100%,84.3%,0%);fill-opacity:1;" d="M 220.347656 174.921875 C 220.347656 178.753906 214.597656 178.753906 214.597656 174.921875 C 214.597656 171.089844 220.347656 171.089844 220.347656 174.921875 "/>
<path style=" stroke:none;fill-rule:nonzero;fill:rgb(100%,84.3%,0%);fill-opacity:1;" d="M 220.347656 266.925781 C 220.347656 270.757812 214.597656 270.757812 214.597656 266.925781 C 214.597656 263.089844 220.347656 263.089844 220.347656 266.925781 "/>
<path style=" stroke:none;fill-rule:nonzero;fill:rgb(100%,84.3%,0%);fill-opacity:1;" d="M 297.402344 330.179688 C 297.402344 334.011719 291.652344 334.011719 291.652344 330.179688 C 291.652344 326.34375 297.402344 326.34375 297.402344 330.179688 "/>
<path style=" stroke:none;fill-rule:nonzero;fill:rgb(100%,84.3%,0%);fill-opacity:1;" d="M 297.402344 445.183594 C 297.402344 449.015625 291.652344 449.015625 291.652344 445.183594 C 291.652344 441.347656 297.402344 441.347656 297.402344 445.183594 "/>
<path style=" stroke:none;fill-rule:nonzero;fill:rgb(100%,84.3%,0%);fill-opacity:1;" d="M 280.726562 458.597656 C 280.726562 462.429688 274.976562 462.429688 274.976562 458.597656 C 274.976562 454.765625 280.726562 454.765625 280.726562 458.597656 "/>
<path style=" stroke:none;fill-rule:nonzero;fill:rgb(100%,84.3%,0%);fill-opacity:1;" d="M 297.402344 439.433594 C 297.402344 443.265625 291.652344 443.265625 291.652344 439.433594 C 291.652344 435.597656 297.402344 435.597656 297.402344 439.433594 "/>
<path style=" stroke:none;fill-rule:nonzero;fill:rgb(100%,84.3%,0%);fill-opacity:1;" d="M 254.851562 463.582031 C 254.851562 467.417969 249.101562 467.417969 249.101562 463.582031 C 249.101562 459.75 254.851562 459.75 254.851562 463.582031 "/>
<path style=" stroke:none;fill-rule:nonzero;fill:rgb(100%,84.3%,0%);fill-opacity:1;" d="M 297.402344 180.671875 C 297.402344 184.503906 291.652344 184.503906 291.652344 180.671875 C 291.652344 176.839844 297.402344 176.839844 297.402344 180.671875 "/>
<path style=" stroke:none;fill-rule:nonzero;fill:rgb(100%,84.3%,0%);fill-opacity:1;" d="M 220.347656 284.175781 C 220.347656 288.007812 214.597656 288.007812 214.597656 284.175781 C 214.597656 280.34375 220.347656 280.34375 220.347656 284.175781 "/>
<path style=" stroke:none;fill-rule:nonzero;fill:rgb(100%,84.3%,0%);fill-opacity:1;" d="M 225.335938 212.296875 C 225.335938 216.132812 219.582031 216.132812 219.582031 212.296875 C 219.582031 208.464844 225.335938 208.464844 225.335938 212.296875 "/>
<path style=" stroke:none;fill-rule:nonzero;fill:rgb(100%,84.3%,0%);fill-opacity:1;" d="M 220.347656 65.667969 C 220.347656 69.5 214.597656 69.5 214.597656 65.667969 C 214.597656 61.835938 220.347656 61.835938 220.347656 65.667969 "/>
<path style=" stroke:none;fill-rule:nonzero;fill:rgb(100%,84.3%,0%);fill-opacity:1;" d="M 220.347656 48.417969 C 220.347656 52.25 214.597656 52.25 214.597656 48.417969 C 214.597656 44.582031 220.347656 44.582031 220.347656 48.417969 "/>
<path style=" stroke:none;fill-rule:nonzero;fill:rgb(100%,84.3%,0%);fill-opacity:1;" d="M 220.347656 255.425781 C 220.347656 259.257812 214.597656 259.257812 214.597656 255.425781 C 214.597656 251.589844 220.347656 251.589844 220.347656 255.425781 "/>
<path style=" stroke:none;fill-rule:nonzero;fill:rgb(100%,84.3%,0%);fill-opacity:1;" d="M 263.476562 53.402344 C 263.476562 57.234375 257.726562 57.234375 257.726562 53.402344 C 257.726562 49.570312 263.476562 49.570312 263.476562 53.402344 "/>
<path style=" stroke:none;fill-rule:nonzero;fill:rgb(100%,84.3%,0%);fill-opacity:1;" d="M 234.722656 53.402344 C 234.722656 57.234375 228.972656 57.234375 228.972656 53.402344 C 228.972656 49.570312 234.722656 49.570312 234.722656 53.402344 "/>
<path style=" stroke:none;fill-rule:nonzero;fill:rgb(100%,84.3%,0%);fill-opacity:1;" d="M 292.417969 436.558594 C 292.417969 440.390625 286.664062 440.390625 286.664062 436.558594 C 286.664062 432.722656 292.417969 432.722656 292.417969 436.558594 "/>
<path style=" stroke:none;fill-rule:nonzero;fill:rgb(100%,84.3%,0%);fill-opacity:1;" d="M 297.402344 59.917969 C 297.402344 63.75 291.652344 63.75 291.652344 59.917969 C 291.652344 56.082031 297.402344 56.082031 297.402344 59.917969 "/>
<path style=" stroke:none;fill-rule:nonzero;fill:rgb(100%,84.3%,0%);fill-opacity:1;" d="M 297.402344 307.175781 C 297.402344 311.011719 291.652344 311.011719 291.652344 307.175781 C 291.652344 303.34375 297.402344 303.34375 297.402344 307.175781 "/>
<path style=" stroke:none;fill-rule:nonzero;fill:rgb(100%,84.3%,0%);fill-opacity:1;" d="M 220.347656 203.671875 C 220.347656 207.507812 214.597656 207.507812 214.597656 203.671875 C 214.597656 199.839844 220.347656 199.839844 220.347656 203.671875 "/>
<path style=" stroke:none;fill-rule:nonzero;fill:rgb(100%,84.3%,0%);fill-opacity:1;" d="M 297.402344 94.417969 C 297.402344 98.253906 291.652344 98.253906 291.652344 94.417969 C 291.652344 90.585938 297.402344 90.585938 297.402344 94.417969 "/>
<path style=" stroke:none;fill-rule:nonzero;fill:rgb(100%,84.3%,0%);fill-opacity:1;" d="M 297.402344 243.925781 C 297.402344 247.757812 291.652344 247.757812 291.652344 243.925781 C 291.652344 240.089844 297.402344 240.089844 297.402344 243.925781 "/>
<path style=" stroke:none;fill-rule:nonzero;fill:rgb(100%,84.3%,0%);fill-opacity:1;" d="M 220.347656 335.929688 C 220.347656 339.761719 214.597656 339.761719 214.597656 335.929688 C 214.597656 332.09375 220.347656 332.09375 220.347656 335.929688 "/>
<path style=" stroke:none;fill-rule:nonzero;fill:rgb(100%,84.3%,0%);fill-opacity:1;" d="M 220.347656 463.582031 C 220.347656 467.417969 214.597656 467.417969 214.597656 463.582031 C 214.597656 459.75 220.347656 459.75 220.347656 463.582031 "/>
<path style=" stroke:none;fill-rule:nonzero;fill:rgb(100%,84.3%,0%);fill-opacity:1;" d="M 277.851562 463.582031 C 277.851562 467.417969 272.101562 467.417969 272.101562 463.582031 C 272.101562 459.75 277.851562 459.75 277.851562 463.582031 "/>
<path style=" stroke:none;fill-rule:nonzero;fill:rgb(100%,84.3%,0%);fill-opacity:1;" d="M 234.722656 458.597656 C 234.722656 462.429688 228.972656 462.429688 228.972656 458.597656 C 228.972656 454.765625 234.722656 454.765625 234.722656 458.597656 "/>
<path style=" stroke:none;fill-rule:nonzero;fill:rgb(100%,84.3%,0%);fill-opacity:1;" d="M 297.402344 255.425781 C 297.402344 259.257812 291.652344 259.257812 291.652344 255.425781 C 291.652344 251.589844 297.402344 251.589844 297.402344 255.425781 "/>
<path style=" stroke:none;fill-rule:nonzero;fill:rgb(100%,84.3%,0%);fill-opacity:1;" d="M 266.351562 48.417969 C 266.351562 52.25 260.601562 52.25 260.601562 48.417969 C 260.601562 44.582031 266.351562 44.582031 266.351562 48.417969 "/>
<path style=" stroke:none;fill-rule:nonzero;fill:rgb(100%,84.3%,0%);fill-opacity:1;" d="M 297.402344 232.425781 C 297.402344 236.257812 291.652344 236.257812 291.652344 232.425781 C 291.652344 228.589844 297.402344 228.589844 297.402344 232.425781 "/>
<path style=" stroke:none;fill-rule:nonzero;fill:rgb(100%,84.3%,0%);fill-opacity:1;" d="M 297.402344 197.921875 C 297.402344 201.757812 291.652344 201.757812 291.652344 197.921875 C 291.652344 194.089844 297.402344 194.089844 297.402344 197.921875 "/>
<path style=" stroke:none;fill-rule:nonzero;fill:rgb(100%,84.3%,0%);fill-opacity:1;" d="M 297.402344 266.925781 C 297.402344 270.757812 291.652344 270.757812 291.652344 266.925781 C 291.652344 263.089844 297.402344 263.089844 297.402344 266.925781 "/>
<path style=" stroke:none;fill-rule:nonzero;fill:rgb(100%,84.3%,0%);fill-opacity:1;" d="M 297.402344 249.675781 C 297.402344 253.507812 291.652344 253.507812 291.652344 249.675781 C 291.652344 245.839844 297.402344 245.839844 297.402344 249.675781 "/>
<path style=" stroke:none;fill-rule:nonzero;fill:rgb(100%,84.3%,0%);fill-opacity:1;" d="M 237.597656 48.417969 C 237.597656 52.25 231.847656 52.25 231.847656 48.417969 C 231.847656 44.582031 237.597656 44.582031 237.597656 48.417969 "/>
<path style=" stroke:none;fill-rule:nonzero;fill:rgb(100%,84.3%,0%);fill-opacity:1;" d="M 277.851562 48.417969 C 277.851562 52.25 272.101562 52.25 272.101562 48.417969 C 272.101562 44.582031 277.851562 44.582031 277.851562 48.417969 "/>
<path style=" stroke:none;fill-rule:nonzero;fill:rgb(100%,84.3%,0%);fill-opacity:1;" d="M 292.417969 85.792969 C 292.417969 89.625 286.664062 89.625 286.664062 85.792969 C 286.664062 81.960938 292.417969 81.960938 292.417969 85.792969 "/>
<path style=" stroke:none;fill-rule:nonzero;fill:rgb(100%,84.3%,0%);fill-opacity:1;" d="M 297.402344 370.429688 C 297.402344 374.261719 291.652344 374.261719 291.652344 370.429688 C 291.652344 366.59375 297.402344 366.59375 297.402344 370.429688 "/>
<path style=" stroke:none;fill-rule:nonzero;fill:rgb(100%,84.3%,0%);fill-opacity:1;" d="M 297.402344 335.929688 C 297.402344 339.761719 291.652344 339.761719 291.652344 335.929688 C 291.652344 332.09375 297.402344 332.09375 297.402344 335.929688 "/>
<path style=" stroke:none;fill-rule:nonzero;fill:rgb(100%,84.3%,0%);fill-opacity:1;" d="M 220.347656 232.425781 C 220.347656 236.257812 214.597656 236.257812 214.597656 232.425781 C 214.597656 228.589844 220.347656 228.589844 220.347656 232.425781 "/>
<path style=" stroke:none;fill-rule:nonzero;fill:rgb(100%,84.3%,0%);fill-opacity:1;" d="M 297.402344 48.417969 C 297.402344 52.25 291.652344 52.25 291.652344 48.417969 C 291.652344 44.582031 297.402344 44.582031 297.402344 48.417969 "/>
<path style=" stroke:none;fill-rule:nonzero;fill:rgb(100%,84.3%,0%);fill-opacity:1;" d="M 283.601562 463.582031 C 283.601562 467.417969 277.851562 467.417969 277.851562 463.582031 C 277.851562 459.75 283.601562 459.75 283.601562 463.582031 "/>
<path style=" stroke:none;fill-rule:nonzero;fill:rgb(100%,84.3%,0%);fill-opacity:1;" d="M 257.726562 458.597656 C 257.726562 462.429688 251.976562 462.429688 251.976562 458.597656 C 251.976562 454.765625 257.726562 454.765625 257.726562 458.597656 "/>
<path style=" stroke:none;fill-rule:nonzero;fill:rgb(100%,84.3%,0%);fill-opacity:1;" d="M 297.402344 387.679688 C 297.402344 391.511719 291.652344 391.511719 291.652344 387.679688 C 291.652344 383.847656 297.402344 383.847656 297.402344 387.679688 "/>
<path style=" stroke:none;fill-rule:nonzero;fill:rgb(100%,84.3%,0%);fill-opacity:1;" d="M 297.402344 192.171875 C 297.402344 196.007812 291.652344 196.007812 291.652344 192.171875 C 291.652344 188.339844 297.402344 188.339844 297.402344 192.171875 "/>
<path style=" stroke:none;fill-rule:nonzero;fill:rgb(100%,84.3%,0%);fill-opacity:1;" d="M 292.417969 154.796875 C 292.417969 158.628906 286.664062 158.628906 286.664062 154.796875 C 286.664062 150.960938 292.417969 150.960938 292.417969 154.796875 "/>
<path style=" stroke:none;fill-rule:nonzero;fill:rgb(100%,84.3%,0%);fill-opacity:1;" d="M 297.402344 82.917969 C 297.402344 86.75 291.652344 86.75 291.652344 82.917969 C 291.652344 79.085938 297.402344 79.085938 297.402344 82.917969 "/>
<path style=" stroke:none;fill-rule:nonzero;fill:rgb(100%,84.3%,0%);fill-opacity:1;" d="M 220.347656 134.671875 C 220.347656 138.503906 214.597656 138.503906 214.597656 134.671875 C 214.597656 130.835938 220.347656 130.835938 220.347656 134.671875 "/>
<path style=" stroke:none;fill-rule:nonzero;fill:rgb(100%,84.3%,0%);fill-opacity:1;" d="M 263.476562 458.597656 C 263.476562 462.429688 257.726562 462.429688 257.726562 458.597656 C 257.726562 454.765625 263.476562 454.765625 263.476562 458.597656 "/>
<path style=" stroke:none;fill-rule:nonzero;fill:rgb(100%,84.3%,0%);fill-opacity:1;" d="M 220.347656 318.675781 C 220.347656 322.511719 214.597656 322.511719 214.597656 318.675781 C 214.597656 314.84375 220.347656 314.84375 220.347656 318.675781 "/>
<path style=" stroke:none;fill-rule:nonzero;fill:rgb(100%,84.3%,0%);fill-opacity:1;" d="M 260.601562 463.582031 C 260.601562 467.417969 254.851562 467.417969 254.851562 463.582031 C 254.851562 459.75 260.601562 459.75 260.601562 463.582031 "/>
<path style=" stroke:none;fill-rule:nonzero;fill:rgb(100%,84.3%,0%);fill-opacity:1;" d="M 228.972656 458.597656 C 228.972656 462.429688 223.222656 462.429688 223.222656 458.597656 C 223.222656 454.765625 228.972656 454.765625 228.972656 458.597656 "/>
<path style=" stroke:none;fill-rule:nonzero;fill:rgb(100%,84.3%,0%);fill-opacity:1;" d="M 297.402344 215.171875 C 297.402344 219.007812 291.652344 219.007812 291.652344 215.171875 C 291.652344 211.339844 297.402344 211.339844 297.402344 215.171875 "/>
<path style=" stroke:none;fill-rule:nonzero;fill:rgb(100%,84.3%,0%);fill-opacity:1;" d="M 297.402344 301.425781 C 297.402344 305.261719 291.652344 305.261719 291.652344 301.425781 C 291.652344 297.59375 297.402344 297.59375 297.402344 301.425781 "/>
<path style=" stroke:none;fill-rule:nonzero;fill:rgb(100%,84.3%,0%);fill-opacity:1;" d="M 297.402344 77.167969 C 297.402344 81 291.652344 81 291.652344 77.167969 C 291.652344 73.335938 297.402344 73.335938 297.402344 77.167969 "/>
<path style=" stroke:none;fill-rule:nonzero;fill:rgb(100%,84.3%,0%);fill-opacity:1;" d="M 297.402344 347.429688 C 297.402344 351.261719 291.652344 351.261719 291.652344 347.429688 C 291.652344 343.59375 297.402344 343.59375 297.402344 347.429688 "/>
<path style=" stroke:none;fill-rule:nonzero;fill:rgb(100%,84.3%,0%);fill-opacity:1;" d="M 277.851562 453.613281 C 277.851562 457.445312 272.101562 457.445312 272.101562 453.613281 C 272.101562 449.777344 277.851562 449.777344 277.851562 453.613281 "/>
<path style=" stroke:none;fill-rule:nonzero;fill:rgb(100%,84.3%,0%);fill-opacity:1;" d="M 220.347656 341.679688 C 220.347656 345.511719 214.597656 345.511719 214.597656 341.679688 C 214.597656 337.84375 220.347656 337.84375 220.347656 341.679688 "/>
<path style=" stroke:none;fill-rule:nonzero;fill:rgb(100%,84.3%,0%);fill-opacity:1;" d="M 220.347656 249.675781 C 220.347656 253.507812 214.597656 253.507812 214.597656 249.675781 C 214.597656 245.839844 220.347656 245.839844 220.347656 249.675781 "/>
<path style=" stroke:none;fill-rule:nonzero;fill:rgb(100%,84.3%,0%);fill-opacity:1;" d="M 297.402344 146.171875 C 297.402344 150.003906 291.652344 150.003906 291.652344 146.171875 C 291.652344 142.335938 297.402344 142.335938 297.402344 146.171875 "/>
<path style=" stroke:none;fill-rule:nonzero;fill:rgb(100%,84.3%,0%);fill-opacity:1;" d="M 220.347656 192.171875 C 220.347656 196.007812 214.597656 196.007812 214.597656 192.171875 C 214.597656 188.339844 220.347656 188.339844 220.347656 192.171875 "/>
<path style=" stroke:none;fill-rule:nonzero;fill:rgb(100%,84.3%,0%);fill-opacity:1;" d="M 220.347656 88.667969 C 220.347656 92.5 214.597656 92.5 214.597656 88.667969 C 214.597656 84.835938 220.347656 84.835938 220.347656 88.667969 "/>
<path style=" stroke:none;fill-rule:nonzero;fill:rgb(100%,84.3%,0%);fill-opacity:1;" d="M 266.351562 463.582031 C 266.351562 467.417969 260.601562 467.417969 260.601562 463.582031 C 260.601562 459.75 266.351562 459.75 266.351562 463.582031 "/>
<path style=" stroke:none;fill-rule:nonzero;fill:rgb(100%,84.3%,0%);fill-opacity:1;" d="M 220.347656 151.921875 C 220.347656 155.753906 214.597656 155.753906 214.597656 151.921875 C 214.597656 148.085938 220.347656 148.085938 220.347656 151.921875 "/>
<path style=" stroke:none;fill-rule:nonzero;fill:rgb(100%,84.3%,0%);fill-opacity:1;" d="M 297.402344 65.667969 C 297.402344 69.5 291.652344 69.5 291.652344 65.667969 C 291.652344 61.835938 297.402344 61.835938 297.402344 65.667969 "/>
<path style=" stroke:none;fill-rule:nonzero;fill:rgb(100%,84.3%,0%);fill-opacity:1;" d="M 292.417969 269.800781 C 292.417969 273.632812 286.664062 273.632812 286.664062 269.800781 C 286.664062 265.96875 292.417969 265.96875 292.417969 269.800781 "/>
<path style=" stroke:none;fill-rule:nonzero;fill:rgb(100%,84.3%,0%);fill-opacity:1;" d="M 220.347656 278.425781 C 220.347656 282.257812 214.597656 282.257812 214.597656 278.425781 C 214.597656 274.59375 220.347656 274.59375 220.347656 278.425781 "/>
<path style=" stroke:none;fill-rule:nonzero;fill:rgb(100%,84.3%,0%);fill-opacity:1;" d="M 297.402344 157.671875 C 297.402344 161.503906 291.652344 161.503906 291.652344 157.671875 C 291.652344 153.835938 297.402344 153.835938 297.402344 157.671875 "/>
<path style=" stroke:none;fill-rule:nonzero;fill:rgb(100%,84.3%,0%);fill-opacity:1;" d="M 292.417969 448.058594 C 292.417969 451.890625 286.664062 451.890625 286.664062 448.058594 C 286.664062 444.222656 292.417969 444.222656 292.417969 448.058594 "/>
<path style=" stroke:none;fill-rule:nonzero;fill:rgb(100%,84.3%,0%);fill-opacity:1;" d="M 297.402344 169.171875 C 297.402344 173.003906 291.652344 173.003906 291.652344 169.171875 C 291.652344 165.339844 297.402344 165.339844 297.402344 169.171875 "/>
<path style=" stroke:none;fill-rule:nonzero;fill:rgb(100%,84.3%,0%);fill-opacity:1;" d="M 297.402344 284.175781 C 297.402344 288.007812 291.652344 288.007812 291.652344 284.175781 C 291.652344 280.34375 297.402344 280.34375 297.402344 284.175781 "/>
<path style=" stroke:none;fill-rule:nonzero;fill:rgb(100%,84.3%,0%);fill-opacity:1;" d="M 249.101562 48.417969 C 249.101562 52.25 243.351562 52.25 243.351562 48.417969 C 243.351562 44.582031 249.101562 44.582031 249.101562 48.417969 "/>
<path style=" stroke:none;fill-rule:nonzero;fill:rgb(100%,84.3%,0%);fill-opacity:1;" d="M 297.402344 295.675781 C 297.402344 299.511719 291.652344 299.511719 291.652344 295.675781 C 291.652344 291.84375 297.402344 291.84375 297.402344 295.675781 "/>
<path style=" stroke:none;fill-rule:nonzero;fill:rgb(100%,84.3%,0%);fill-opacity:1;" d="M 220.347656 456.683594 C 220.347656 460.515625 214.597656 460.515625 214.597656 456.683594 C 214.597656 452.847656 220.347656 452.847656 220.347656 456.683594 "/>
<path style=" stroke:none;fill-rule:nonzero;fill:rgb(100%,84.3%,0%);fill-opacity:1;" d="M 297.402344 450.933594 C 297.402344 454.765625 291.652344 454.765625 291.652344 450.933594 C 291.652344 447.097656 297.402344 447.097656 297.402344 450.933594 "/>
<path style=" stroke:none;fill-rule:nonzero;fill:rgb(100%,84.3%,0%);fill-opacity:1;" d="M 220.347656 180.671875 C 220.347656 184.503906 214.597656 184.503906 214.597656 180.671875 C 214.597656 176.839844 220.347656 176.839844 220.347656 180.671875 "/>
<path style=" stroke:none;fill-rule:nonzero;fill:rgb(100%,84.3%,0%);fill-opacity:1;" d="M 297.402344 410.679688 C 297.402344 414.515625 291.652344 414.515625 291.652344 410.679688 C 291.652344 406.847656 297.402344 406.847656 297.402344 410.679688 "/>
<path style=" stroke:none;fill-rule:nonzero;fill:rgb(100%,84.3%,0%);fill-opacity:1;" d="M 260.601562 48.417969 C 260.601562 52.25 254.851562 52.25 254.851562 48.417969 C 254.851562 44.582031 260.601562 44.582031 260.601562 48.417969 "/>
<path style=" stroke:none;fill-rule:nonzero;fill:rgb(100%,84.3%,0%);fill-opacity:1;" d="M 289.351562 48.417969 C 289.351562 52.25 283.601562 52.25 283.601562 48.417969 C 283.601562 44.582031 289.351562 44.582031 289.351562 48.417969 "/>
<path style=" stroke:none;fill-rule:nonzero;fill:rgb(100%,84.3%,0%);fill-opacity:1;" d="M 220.347656 226.675781 C 220.347656 230.507812 214.597656 230.507812 214.597656 226.675781 C 214.597656 222.839844 220.347656 222.839844 220.347656 226.675781 "/>
<path style=" stroke:none;fill-rule:nonzero;fill:rgb(100%,84.3%,0%);fill-opacity:1;" d="M 297.402344 353.179688 C 297.402344 357.011719 291.652344 357.011719 291.652344 353.179688 C 291.652344 349.34375 297.402344 349.34375 297.402344 353.179688 "/>
<path style=" stroke:none;fill-rule:nonzero;fill:rgb(100%,84.3%,0%);fill-opacity:1;" d="M 220.347656 416.429688 C 220.347656 420.265625 214.597656 420.265625 214.597656 416.429688 C 214.597656 412.597656 220.347656 412.597656 220.347656 416.429688 "/>
<path style=" stroke:none;fill-rule:nonzero;fill:rgb(100%,84.3%,0%);fill-opacity:1;" d="M 297.402344 376.179688 C 297.402344 380.011719 291.652344 380.011719 291.652344 376.179688 C 291.652344 372.347656 297.402344 372.347656 297.402344 376.179688 "/>
<path style=" stroke:none;fill-rule:nonzero;fill:rgb(100%,84.3%,0%);fill-opacity:1;" d="M 231.847656 48.417969 C 231.847656 52.25 226.097656 52.25 226.097656 48.417969 C 226.097656 44.582031 231.847656 44.582031 231.847656 48.417969 "/>
<path style=" stroke:none;fill-rule:nonzero;fill:rgb(100%,84.3%,0%);fill-opacity:1;" d="M 297.402344 324.429688 C 297.402344 328.261719 291.652344 328.261719 291.652344 324.429688 C 291.652344 320.59375 297.402344 320.59375 297.402344 324.429688 "/>
</g>
</svg>
