<?xml version="1.0" encoding="UTF-8"?>
<svg xmlns="http://www.w3.org/2000/svg" xmlns:xlink="http://www.w3.org/1999/xlink" width="512pt" height="512pt" viewBox="0 0 512 512" version="1.1">
<g id="surface421">
<path style=" stroke:none;fill-rule:nonzero;fill:rgb(26.7%,26.7%,26.7%);fill-opacity:1;" d="M 159.867188 0 L 352.136719 0 L 352.136719 512 L 159.867188 512 Z M 159.867188 0 "/>
<path style=" stroke:none;fill-rule:nonzero;fill:rgb(19.2%,38.8%,66.7%);fill-opacity:1;" d="M 175.886719 42.667969 L 336.109375 42.667969 L 336.109375 469.332031 L 175.886719 469.332031 Z M 175.886719 42.667969 "/>
<path style=" stroke:none;fill-rule:nonzero;fill:rgb(90.6%,14.9%,14.9%);fill-opacity:1;" d="M 503.128906 -10.980469 C 503.128906 3.636719 491.28125 15.484375 476.664062 15.484375 C 462.046875 15.484375 450.199219 3.636719 450.199219 -10.980469 C 450.199219 -25.597656 462.046875 -37.445312 476.664062 -37.445312 C 491.28125 -37.445312 503.128906 -25.597656 503.128906 -10.980469 "/>
<path style=" stroke:none;fill-rule:nonzero;fill:rgb(90.6%,14.9%,14.9%);fill-opacity:1;" d="M 456.277344 244.378906 C 456.277344 260.375 443.308594 273.347656 427.308594 273.347656 C 411.3125 273.347656 398.339844 260.375 398.339844 244.378906 C 398.339844 228.378906 411.3125 215.40625 427.308594 215.40625 C 443.308594 215.40625 456.277344 228.378906 456.277344 244.378906 "/>
<path style=" stroke:none;fill-rule:nonzero;fill:rgb(90.6%,14.9%,14.9%);fill-opacity:1;" d="M 535.675781 440.722656 C 535.675781 447.832031 529.910156 453.597656 522.800781 453.597656 C 515.691406 453.597656 509.925781 447.832031 509.925781 440.722656 C 509.925781 433.609375 515.691406 427.847656 522.800781 427.847656 C 529.910156 427.847656 535.675781 433.609375 535.675781 440.722656 "/>
<path style=" stroke:none;fill-rule:nonzero;fill:rgb(90.6%,14.9%,14.9%);fill-opacity:1;" d="M 91.84375 132.078125 C 91.84375 147.878906 79.03125 160.6875 63.230469 160.6875 C 47.429688 160.6875 34.621094 147.878906 34.621094 132.078125 C 34.621094 116.277344 47.429688 103.464844 63.230469 103.464844 C 79.03125 103.464844 91.84375 116.277344 91.84375 132.078125 "/>
<path style=" stroke:none;fill-rule:nonzero;fill:rgb(100%,100%,100%);fill-opacity:1;" d="M 382.605469 223.632812 C 382.605469 226.015625 379.027344 226.015625 379.027344 223.632812 C 379.027344 221.25 382.605469 221.25 382.605469 223.632812 "/>
<path style=" stroke:none;fill-rule:nonzero;fill:rgb(100%,100%,100%);fill-opacity:1;" d="M 95.417969 383.855469 C 95.417969 386.242188 91.84375 386.242188 91.84375 383.855469 C 91.84375 381.472656 95.417969 381.472656 95.417969 383.855469 "/>
<path style=" stroke:none;fill-rule:nonzero;fill:rgb(100%,100%,100%);fill-opacity:1;" d="M 374.378906 19.777344 C 374.378906 22.164062 370.804688 22.164062 370.804688 19.777344 C 370.804688 17.394531 374.378906 17.394531 374.378906 19.777344 "/>
<path style=" stroke:none;fill-rule:nonzero;fill:rgb(100%,100%,100%);fill-opacity:1;" d="M 5.292969 273.347656 C 5.292969 275.730469 1.714844 275.730469 1.714844 273.347656 C 1.714844 270.960938 5.292969 270.960938 5.292969 273.347656 "/>
<path style=" stroke:none;fill-rule:nonzero;fill:rgb(100%,100%,100%);fill-opacity:1;" d="M 110.441406 466.828125 C 110.441406 469.214844 106.863281 469.214844 106.863281 466.828125 C 106.863281 464.445312 110.441406 464.445312 110.441406 466.828125 "/>
<path style=" stroke:none;fill-rule:nonzero;fill:rgb(100%,100%,100%);fill-opacity:1;" d="M 489.183594 269.054688 C 489.183594 271.4375 485.605469 271.4375 485.605469 269.054688 C 485.605469 266.667969 489.183594 266.667969 489.183594 269.054688 "/>
<path style=" stroke:none;fill-rule:nonzero;fill:rgb(100%,100%,100%);fill-opacity:1;" d="M 502.058594 91.304688 C 502.058594 93.691406 498.480469 93.691406 498.480469 91.304688 C 498.480469 88.921875 502.058594 88.921875 502.058594 91.304688 "/>
<path style=" stroke:none;fill-rule:nonzero;fill:rgb(100%,100%,100%);fill-opacity:1;" d="M 29.613281 420.695312 C 29.613281 423.078125 26.035156 423.078125 26.035156 420.695312 C 26.035156 418.308594 29.613281 418.308594 29.613281 420.695312 "/>
<path style=" stroke:none;fill-rule:nonzero;fill:rgb(100%,100%,100%);fill-opacity:1;" d="M 60.371094 44.453125 C 60.371094 46.839844 56.792969 46.839844 56.792969 44.453125 C 56.792969 42.070312 60.371094 42.070312 60.371094 44.453125 "/>
<path style=" stroke:none;fill-rule:nonzero;fill:rgb(100%,100%,100%);fill-opacity:1;" d="M 11.730469 459.675781 C 11.730469 462.0625 8.152344 462.0625 8.152344 459.675781 C 8.152344 457.292969 11.730469 457.292969 11.730469 459.675781 "/>
<path style=" stroke:none;fill-rule:nonzero;fill:rgb(100%,100%,100%);fill-opacity:1;" d="M 175.53125 367.40625 C 175.53125 369.789062 171.953125 369.789062 171.953125 367.40625 C 171.953125 365.019531 175.53125 365.019531 175.53125 367.40625 "/>
<path style=" stroke:none;fill-rule:nonzero;fill:rgb(100%,100%,100%);fill-opacity:1;" d="M 463.433594 510.105469 C 463.433594 512.488281 459.855469 512.488281 459.855469 510.105469 C 459.855469 507.71875 463.433594 507.71875 463.433594 510.105469 "/>
<path style=" stroke:none;fill-rule:nonzero;fill:rgb(100%,100%,100%);fill-opacity:1;" d="M 465.21875 287.292969 C 465.21875 289.679688 461.644531 289.679688 461.644531 287.292969 C 461.644531 284.910156 465.21875 284.910156 465.21875 287.292969 "/>
<path style=" stroke:none;fill-rule:nonzero;fill:rgb(100%,100%,100%);fill-opacity:1;" d="M 118.308594 194.308594 C 118.308594 196.691406 114.730469 196.691406 114.730469 194.308594 C 114.730469 191.921875 118.308594 191.921875 118.308594 194.308594 "/>
<path style=" stroke:none;fill-rule:nonzero;fill:rgb(100%,100%,100%);fill-opacity:1;" d="M 33.1875 351.667969 C 33.1875 354.054688 29.613281 354.054688 29.613281 351.667969 C 29.613281 349.285156 33.1875 349.285156 33.1875 351.667969 "/>
<path style=" stroke:none;fill-rule:nonzero;fill:rgb(100%,100%,100%);fill-opacity:1;" d="M 490.613281 415.6875 C 490.613281 418.070312 487.035156 418.070312 487.035156 415.6875 C 487.035156 413.300781 490.613281 413.300781 490.613281 415.6875 "/>
<path style=" stroke:none;fill-rule:nonzero;fill:rgb(100%,100%,100%);fill-opacity:1;" d="M 467.722656 114.910156 C 467.722656 117.292969 464.148438 117.292969 464.148438 114.910156 C 464.148438 112.527344 467.722656 112.527344 467.722656 114.910156 "/>
<path style=" stroke:none;fill-rule:nonzero;fill:rgb(100%,100%,100%);fill-opacity:1;" d="M 341.476562 231.144531 C 341.476562 233.527344 337.898438 233.527344 337.898438 231.144531 C 337.898438 228.757812 341.476562 228.757812 341.476562 231.144531 "/>
<path style=" stroke:none;fill-rule:nonzero;fill:rgb(100%,100%,100%);fill-opacity:1;" d="M 355.78125 313.402344 C 355.78125 315.785156 352.207031 315.785156 352.207031 313.402344 C 352.207031 311.019531 355.78125 311.019531 355.78125 313.402344 "/>
<path style=" stroke:none;fill-rule:nonzero;fill:rgb(100%,100%,100%);fill-opacity:1;" d="M 434.820312 443.582031 C 434.820312 445.96875 431.246094 445.96875 431.246094 443.582031 C 431.246094 441.199219 434.820312 441.199219 434.820312 443.582031 "/>
<path style=" stroke:none;fill-rule:nonzero;fill:rgb(100%,100%,100%);fill-opacity:1;" d="M 42.84375 182.503906 C 42.84375 184.890625 39.269531 184.890625 39.269531 182.503906 C 39.269531 180.121094 42.84375 180.121094 42.84375 182.503906 "/>
<path style=" stroke:none;fill-rule:nonzero;fill:rgb(100%,100%,100%);fill-opacity:1;" d="M 73.601562 308.394531 C 73.601562 310.777344 70.027344 310.777344 70.027344 308.394531 C 70.027344 306.011719 73.601562 306.011719 73.601562 308.394531 "/>
<path style=" stroke:none;fill-rule:nonzero;fill:rgb(100%,100%,100%);fill-opacity:1;" d="M 483.816406 231.144531 C 483.816406 233.527344 480.242188 233.527344 480.242188 231.144531 C 480.242188 228.757812 483.816406 228.757812 483.816406 231.144531 "/>
<path style=" stroke:none;fill-rule:nonzero;fill:rgb(100%,100%,100%);fill-opacity:1;" d="M 181.253906 492.222656 C 181.253906 494.605469 177.675781 494.605469 177.675781 492.222656 C 177.675781 489.835938 181.253906 489.835938 181.253906 492.222656 "/>
<path style=" stroke:none;fill-rule:nonzero;fill:rgb(100%,100%,100%);fill-opacity:1;" d="M 499.554688 369.910156 C 499.554688 372.292969 495.976562 372.292969 495.976562 369.910156 C 495.976562 367.523438 499.554688 367.523438 499.554688 369.910156 "/>
<path style=" stroke:none;fill-rule:nonzero;fill:rgb(100%,100%,100%);fill-opacity:1;" d="M 435.894531 288.367188 C 435.894531 290.75 432.316406 290.75 432.316406 288.367188 C 432.316406 285.984375 435.894531 285.984375 435.894531 288.367188 "/>
<path style=" stroke:none;fill-rule:nonzero;fill:rgb(100%,100%,100%);fill-opacity:1;" d="M 358.285156 309.109375 C 358.285156 311.496094 354.707031 311.496094 354.707031 309.109375 C 354.707031 306.726562 358.285156 306.726562 358.285156 309.109375 "/>
<path style=" stroke:none;fill-rule:nonzero;fill:rgb(100%,100%,100%);fill-opacity:1;" d="M 496.691406 368.476562 C 496.691406 370.863281 493.117188 370.863281 493.117188 368.476562 C 493.117188 366.09375 496.691406 366.09375 496.691406 368.476562 "/>
<path style=" stroke:none;fill-rule:nonzero;fill:rgb(100%,100%,100%);fill-opacity:1;" d="M 463.433594 366.332031 C 463.433594 368.714844 459.855469 368.714844 459.855469 366.332031 C 459.855469 363.949219 463.433594 363.949219 463.433594 366.332031 "/>
<path style=" stroke:none;fill-rule:nonzero;fill:rgb(100%,100%,100%);fill-opacity:1;" d="M 351.132812 324.488281 C 351.132812 326.871094 347.558594 326.871094 347.558594 324.488281 C 347.558594 322.105469 351.132812 322.105469 351.132812 324.488281 "/>
<path style=" stroke:none;fill-rule:nonzero;fill:rgb(100%,100%,100%);fill-opacity:1;" d="M 29.96875 103.109375 C 29.96875 105.492188 26.394531 105.492188 26.394531 103.109375 C 26.394531 100.722656 29.96875 100.722656 29.96875 103.109375 "/>
<path style=" stroke:none;fill-rule:nonzero;fill:rgb(100%,100%,100%);fill-opacity:1;" d="M 380.101562 244.019531 C 380.101562 246.402344 376.523438 246.402344 376.523438 244.019531 C 376.523438 241.632812 380.101562 241.632812 380.101562 244.019531 "/>
<path style=" stroke:none;fill-rule:nonzero;fill:rgb(100%,100%,100%);fill-opacity:1;" d="M 51.785156 351.667969 C 51.785156 354.054688 48.210938 354.054688 48.210938 351.667969 C 48.210938 349.285156 51.785156 349.285156 51.785156 351.667969 "/>
<path style=" stroke:none;fill-rule:nonzero;fill:rgb(100%,100%,100%);fill-opacity:1;" d="M 30.328125 356.320312 C 30.328125 358.703125 26.75 358.703125 26.75 356.320312 C 26.75 353.933594 30.328125 353.933594 30.328125 356.320312 "/>
<path style=" stroke:none;fill-rule:nonzero;fill:rgb(100%,100%,100%);fill-opacity:1;" d="M 92.199219 45.527344 C 92.199219 47.914062 88.625 47.914062 88.625 45.527344 C 88.625 43.144531 92.199219 43.144531 92.199219 45.527344 "/>
<path style=" stroke:none;fill-rule:nonzero;fill:rgb(100%,100%,100%);fill-opacity:1;" d="M 456.277344 457.53125 C 456.277344 459.914062 452.703125 459.914062 452.703125 457.53125 C 452.703125 455.148438 456.277344 455.148438 456.277344 457.53125 "/>
<path style=" stroke:none;fill-rule:nonzero;fill:rgb(100%,100%,100%);fill-opacity:1;" d="M 56.078125 231.144531 C 56.078125 233.527344 52.5 233.527344 52.5 231.144531 C 52.5 228.757812 56.078125 228.757812 56.078125 231.144531 "/>
<path style=" stroke:none;fill-rule:nonzero;fill:rgb(100%,100%,100%);fill-opacity:1;" d="M 397.269531 163.550781 C 397.269531 165.933594 393.691406 165.933594 393.691406 163.550781 C 393.691406 161.164062 397.269531 161.164062 397.269531 163.550781 "/>
<path style=" stroke:none;fill-rule:nonzero;fill:rgb(100%,100%,100%);fill-opacity:1;" d="M 395.480469 241.871094 C 395.480469 244.257812 391.902344 244.257812 391.902344 241.871094 C 391.902344 239.488281 395.480469 239.488281 395.480469 241.871094 "/>
<path style=" stroke:none;fill-rule:nonzero;fill:rgb(100%,100%,100%);fill-opacity:1;" d="M 32.832031 244.019531 C 32.832031 246.402344 29.253906 246.402344 29.253906 244.019531 C 29.253906 241.632812 32.832031 241.632812 32.832031 244.019531 "/>
<path style=" stroke:none;fill-rule:nonzero;fill:rgb(100%,100%,100%);fill-opacity:1;" d="M 333.25 477.917969 C 333.25 480.300781 329.671875 480.300781 329.671875 477.917969 C 329.671875 475.53125 333.25 475.53125 333.25 477.917969 "/>
<path style=" stroke:none;fill-rule:nonzero;fill:rgb(100%,100%,100%);fill-opacity:1;" d="M 493.832031 12.980469 C 493.832031 15.367188 490.253906 15.367188 490.253906 12.980469 C 490.253906 10.597656 493.832031 10.597656 493.832031 12.980469 "/>
<path style=" stroke:none;fill-rule:nonzero;fill:rgb(100%,100%,100%);fill-opacity:1;" d="M 150.136719 261.1875 C 150.136719 263.570312 146.5625 263.570312 146.5625 261.1875 C 146.5625 258.800781 150.136719 258.800781 150.136719 261.1875 "/>
<path style=" stroke:none;fill-rule:nonzero;fill:rgb(100%,100%,100%);fill-opacity:1;" d="M 6.722656 216.480469 C 6.722656 218.867188 3.148438 218.867188 3.148438 216.480469 C 3.148438 214.097656 6.722656 214.097656 6.722656 216.480469 "/>
<path style=" stroke:none;fill-rule:nonzero;fill:rgb(100%,84.3%,0%);fill-opacity:1;" d="M 334.324219 229.714844 C 334.324219 232.097656 330.746094 232.097656 330.746094 229.714844 C 330.746094 227.328125 334.324219 227.328125 334.324219 229.714844 "/>
<path style=" stroke:none;fill-rule:nonzero;fill:rgb(100%,84.3%,0%);fill-opacity:1;" d="M 334.324219 301.242188 C 334.324219 303.625 330.746094 303.625 330.746094 301.242188 C 330.746094 298.859375 334.324219 298.859375 334.324219 301.242188 "/>
<path style=" stroke:none;fill-rule:nonzero;fill:rgb(100%,84.3%,0%);fill-opacity:1;" d="M 181.253906 365.617188 C 181.253906 368 177.675781 368 177.675781 365.617188 C 177.675781 363.234375 181.253906 363.234375 181.253906 365.617188 "/>
<path style=" stroke:none;fill-rule:nonzero;fill:rgb(100%,84.3%,0%);fill-opacity:1;" d="M 334.324219 304.816406 C 334.324219 307.203125 330.746094 307.203125 330.746094 304.816406 C 330.746094 302.433594 334.324219 302.433594 334.324219 304.816406 "/>
<path style=" stroke:none;fill-rule:nonzero;fill:rgb(100%,84.3%,0%);fill-opacity:1;" d="M 181.253906 369.195312 C 181.253906 371.578125 177.675781 371.578125 177.675781 369.195312 C 177.675781 366.808594 181.253906 366.808594 181.253906 369.195312 "/>
<path style=" stroke:none;fill-rule:nonzero;fill:rgb(100%,84.3%,0%);fill-opacity:1;" d="M 181.253906 362.039062 C 181.253906 364.425781 177.675781 364.425781 177.675781 362.039062 C 177.675781 359.65625 181.253906 359.65625 181.253906 362.039062 "/>
<path style=" stroke:none;fill-rule:nonzero;fill:rgb(100%,84.3%,0%);fill-opacity:1;" d="M 334.324219 233.289062 C 334.324219 235.675781 330.746094 235.675781 330.746094 233.289062 C 330.746094 230.90625 334.324219 230.90625 334.324219 233.289062 "/>
<path style=" stroke:none;fill-rule:nonzero;fill:rgb(100%,84.3%,0%);fill-opacity:1;" d="M 330.03125 462.65625 C 330.03125 465.039062 326.457031 465.039062 326.457031 462.65625 C 326.457031 460.273438 330.03125 460.273438 330.03125 462.65625 "/>
<path style=" stroke:none;fill-rule:nonzero;fill:rgb(100%,84.3%,0%);fill-opacity:1;" d="M 328.242188 465.757812 C 328.242188 468.140625 324.667969 468.140625 324.667969 465.757812 C 324.667969 463.371094 328.242188 463.371094 328.242188 465.757812 "/>
<path style=" stroke:none;fill-rule:nonzero;fill:rgb(100%,84.3%,0%);fill-opacity:1;" d="M 334.324219 226.136719 C 334.324219 228.519531 330.746094 228.519531 330.746094 226.136719 C 330.746094 223.753906 334.324219 223.753906 334.324219 226.136719 "/>
<path style=" stroke:none;fill-rule:nonzero;fill:rgb(100%,84.3%,0%);fill-opacity:1;" d="M 334.324219 465.757812 C 334.324219 468.140625 330.746094 468.140625 330.746094 465.757812 C 330.746094 463.371094 334.324219 463.371094 334.324219 465.757812 "/>
<path style=" stroke:none;fill-rule:nonzero;fill:rgb(100%,84.3%,0%);fill-opacity:1;" d="M 313.9375 465.757812 C 313.9375 468.140625 310.363281 468.140625 310.363281 465.757812 C 310.363281 463.371094 313.9375 463.371094 313.9375 465.757812 "/>
<path style=" stroke:none;fill-rule:nonzero;fill:rgb(100%,84.3%,0%);fill-opacity:1;" d="M 334.324219 236.867188 C 334.324219 239.25 330.746094 239.25 330.746094 236.867188 C 330.746094 234.480469 334.324219 234.480469 334.324219 236.867188 "/>
<path style=" stroke:none;fill-rule:nonzero;fill:rgb(100%,84.3%,0%);fill-opacity:1;" d="M 334.324219 222.558594 C 334.324219 224.945312 330.746094 224.945312 330.746094 222.558594 C 330.746094 220.175781 334.324219 220.175781 334.324219 222.558594 "/>
<path style=" stroke:none;fill-rule:nonzero;fill:rgb(100%,84.3%,0%);fill-opacity:1;" d="M 324.667969 465.757812 C 324.667969 468.140625 321.089844 468.140625 321.089844 465.757812 C 321.089844 463.371094 324.667969 463.371094 324.667969 465.757812 "/>
<path style=" stroke:none;fill-rule:nonzero;fill:rgb(100%,84.3%,0%);fill-opacity:1;" d="M 334.324219 240.441406 C 334.324219 242.828125 330.746094 242.828125 330.746094 240.441406 C 330.746094 238.058594 334.324219 238.058594 334.324219 240.441406 "/>
<path style=" stroke:none;fill-rule:nonzero;fill:rgb(100%,84.3%,0%);fill-opacity:1;" d="M 334.324219 279.78125 C 334.324219 282.167969 330.746094 282.167969 330.746094 279.78125 C 330.746094 277.398438 334.324219 277.398438 334.324219 279.78125 "/>
<path style=" stroke:none;fill-rule:nonzero;fill:rgb(100%,84.3%,0%);fill-opacity:1;" d="M 334.324219 218.984375 C 334.324219 221.367188 330.746094 221.367188 330.746094 218.984375 C 330.746094 216.601562 334.324219 216.601562 334.324219 218.984375 "/>
<path style=" stroke:none;fill-rule:nonzero;fill:rgb(100%,84.3%,0%);fill-opacity:1;" d="M 181.253906 372.769531 C 181.253906 375.152344 177.675781 375.152344 177.675781 372.769531 C 177.675781 370.386719 181.253906 370.386719 181.253906 372.769531 "/>
<path style=" stroke:none;fill-rule:nonzero;fill:rgb(100%,84.3%,0%);fill-opacity:1;" d="M 328.121094 233.289062 C 328.121094 235.675781 324.546875 235.675781 324.546875 233.289062 C 324.546875 230.90625 328.121094 230.90625 328.121094 233.289062 "/>
<path style=" stroke:none;fill-rule:nonzero;fill:rgb(100%,84.3%,0%);fill-opacity:1;" d="M 334.324219 315.546875 C 334.324219 317.929688 330.746094 317.929688 330.746094 315.546875 C 330.746094 313.164062 334.324219 313.164062 334.324219 315.546875 "/>
<path style=" stroke:none;fill-rule:nonzero;fill:rgb(100%,84.3%,0%);fill-opacity:1;" d="M 334.324219 308.394531 C 334.324219 310.777344 330.746094 310.777344 330.746094 308.394531 C 330.746094 306.011719 334.324219 306.011719 334.324219 308.394531 "/>
<path style=" stroke:none;fill-rule:nonzero;fill:rgb(100%,84.3%,0%);fill-opacity:1;" d="M 334.324219 297.664062 C 334.324219 300.050781 330.746094 300.050781 330.746094 297.664062 C 330.746094 295.28125 334.324219 295.28125 334.324219 297.664062 "/>
<path style=" stroke:none;fill-rule:nonzero;fill:rgb(100%,84.3%,0%);fill-opacity:1;" d="M 184.355469 367.40625 C 184.355469 369.789062 180.777344 369.789062 180.777344 367.40625 C 180.777344 365.019531 184.355469 365.019531 184.355469 367.40625 "/>
<path style=" stroke:none;fill-rule:nonzero;fill:rgb(100%,84.3%,0%);fill-opacity:1;" d="M 181.253906 376.347656 C 181.253906 378.730469 177.675781 378.730469 177.675781 376.347656 C 177.675781 373.960938 181.253906 373.960938 181.253906 376.347656 "/>
<path style=" stroke:none;fill-rule:nonzero;fill:rgb(100%,84.3%,0%);fill-opacity:1;" d="M 334.324219 276.207031 C 334.324219 278.589844 330.746094 278.589844 330.746094 276.207031 C 330.746094 273.824219 334.324219 273.824219 334.324219 276.207031 "/>
<path style=" stroke:none;fill-rule:nonzero;fill:rgb(100%,84.3%,0%);fill-opacity:1;" d="M 334.324219 326.277344 C 334.324219 328.660156 330.746094 328.660156 330.746094 326.277344 C 330.746094 323.894531 334.324219 323.894531 334.324219 326.277344 "/>
<path style=" stroke:none;fill-rule:nonzero;fill:rgb(100%,84.3%,0%);fill-opacity:1;" d="M 334.324219 286.9375 C 334.324219 289.320312 330.746094 289.320312 330.746094 286.9375 C 330.746094 284.550781 334.324219 284.550781 334.324219 286.9375 "/>
<path style=" stroke:none;fill-rule:nonzero;fill:rgb(100%,84.3%,0%);fill-opacity:1;" d="M 334.324219 294.089844 C 334.324219 296.472656 330.746094 296.472656 330.746094 294.089844 C 330.746094 291.703125 334.324219 291.703125 334.324219 294.089844 "/>
<path style=" stroke:none;fill-rule:nonzero;fill:rgb(100%,84.3%,0%);fill-opacity:1;" d="M 181.253906 358.464844 C 181.253906 360.847656 177.675781 360.847656 177.675781 358.464844 C 177.675781 356.078125 181.253906 356.078125 181.253906 358.464844 "/>
<path style=" stroke:none;fill-rule:nonzero;fill:rgb(100%,84.3%,0%);fill-opacity:1;" d="M 184.355469 374.558594 C 184.355469 376.941406 180.777344 376.941406 180.777344 374.558594 C 180.777344 372.171875 184.355469 372.171875 184.355469 374.558594 "/>
<path style=" stroke:none;fill-rule:nonzero;fill:rgb(100%,84.3%,0%);fill-opacity:1;" d="M 334.324219 283.359375 C 334.324219 285.746094 330.746094 285.746094 330.746094 283.359375 C 330.746094 280.976562 334.324219 280.976562 334.324219 283.359375 "/>
<path style=" stroke:none;fill-rule:nonzero;fill:rgb(100%,84.3%,0%);fill-opacity:1;" d="M 187.453125 365.617188 C 187.453125 368 183.878906 368 183.878906 365.617188 C 183.878906 363.234375 187.453125 363.234375 187.453125 365.617188 "/>
<path style=" stroke:none;fill-rule:nonzero;fill:rgb(100%,84.3%,0%);fill-opacity:1;" d="M 334.324219 329.851562 C 334.324219 332.238281 330.746094 332.238281 330.746094 329.851562 C 330.746094 327.46875 334.324219 327.46875 334.324219 329.851562 "/>
<path style=" stroke:none;fill-rule:nonzero;fill:rgb(100%,84.3%,0%);fill-opacity:1;" d="M 331.222656 324.488281 C 331.222656 326.871094 327.644531 326.871094 327.644531 324.488281 C 327.644531 322.105469 331.222656 322.105469 331.222656 324.488281 "/>
<path style=" stroke:none;fill-rule:nonzero;fill:rgb(100%,84.3%,0%);fill-opacity:1;" d="M 334.324219 333.429688 C 334.324219 335.8125 330.746094 335.8125 330.746094 333.429688 C 330.746094 331.042969 334.324219 331.042969 334.324219 333.429688 "/>
<path style=" stroke:none;fill-rule:nonzero;fill:rgb(100%,84.3%,0%);fill-opacity:1;" d="M 187.453125 369.195312 C 187.453125 371.578125 183.878906 371.578125 183.878906 369.195312 C 183.878906 366.808594 187.453125 366.808594 187.453125 369.195312 "/>
<path style=" stroke:none;fill-rule:nonzero;fill:rgb(100%,84.3%,0%);fill-opacity:1;" d="M 334.324219 337.007812 C 334.324219 339.390625 330.746094 339.390625 330.746094 337.007812 C 330.746094 334.621094 334.324219 334.621094 334.324219 337.007812 "/>
<path style=" stroke:none;fill-rule:nonzero;fill:rgb(100%,84.3%,0%);fill-opacity:1;" d="M 334.324219 322.699219 C 334.324219 325.085938 330.746094 325.085938 330.746094 322.699219 C 330.746094 320.316406 334.324219 320.316406 334.324219 322.699219 "/>
<path style=" stroke:none;fill-rule:nonzero;fill:rgb(100%,84.3%,0%);fill-opacity:1;" d="M 334.324219 290.511719 C 334.324219 292.894531 330.746094 292.894531 330.746094 290.511719 C 330.746094 288.128906 334.324219 288.128906 334.324219 290.511719 "/>
<path style=" stroke:none;fill-rule:nonzero;fill:rgb(100%,84.3%,0%);fill-opacity:1;" d="M 184.355469 360.253906 C 184.355469 362.636719 180.777344 362.636719 180.777344 360.253906 C 180.777344 357.867188 184.355469 357.867188 184.355469 360.253906 "/>
<path style=" stroke:none;fill-rule:nonzero;fill:rgb(100%,84.3%,0%);fill-opacity:1;" d="M 334.324219 244.019531 C 334.324219 246.402344 330.746094 246.402344 330.746094 244.019531 C 330.746094 241.632812 334.324219 241.632812 334.324219 244.019531 "/>
<path style=" stroke:none;fill-rule:nonzero;fill:rgb(100%,84.3%,0%);fill-opacity:1;" d="M 184.355469 356.675781 C 184.355469 359.058594 180.777344 359.058594 180.777344 356.675781 C 180.777344 354.292969 184.355469 354.292969 184.355469 356.675781 "/>
<path style=" stroke:none;fill-rule:nonzero;fill:rgb(100%,84.3%,0%);fill-opacity:1;" d="M 334.324219 340.582031 C 334.324219 342.964844 330.746094 342.964844 330.746094 340.582031 C 330.746094 338.199219 334.324219 338.199219 334.324219 340.582031 "/>
<path style=" stroke:none;fill-rule:nonzero;fill:rgb(100%,84.3%,0%);fill-opacity:1;" d="M 184.355469 378.136719 C 184.355469 380.519531 180.777344 380.519531 180.777344 378.136719 C 180.777344 375.75 184.355469 375.75 184.355469 378.136719 "/>
<path style=" stroke:none;fill-rule:nonzero;fill:rgb(100%,84.3%,0%);fill-opacity:1;" d="M 317.515625 465.757812 C 317.515625 468.140625 313.9375 468.140625 313.9375 465.757812 C 313.9375 463.371094 317.515625 463.371094 317.515625 465.757812 "/>
<path style=" stroke:none;fill-rule:nonzero;fill:rgb(100%,84.3%,0%);fill-opacity:1;" d="M 331.222656 235.078125 C 331.222656 237.460938 327.644531 237.460938 327.644531 235.078125 C 327.644531 232.695312 331.222656 232.695312 331.222656 235.078125 "/>
<path style=" stroke:none;fill-rule:nonzero;fill:rgb(100%,84.3%,0%);fill-opacity:1;" d="M 334.324219 319.125 C 334.324219 321.507812 330.746094 321.507812 330.746094 319.125 C 330.746094 316.738281 334.324219 316.738281 334.324219 319.125 "/>
<path style=" stroke:none;fill-rule:nonzero;fill:rgb(100%,84.3%,0%);fill-opacity:1;" d="M 187.453125 362.039062 C 187.453125 364.425781 183.878906 364.425781 183.878906 362.039062 C 183.878906 359.65625 187.453125 359.65625 187.453125 362.039062 "/>
<path style=" stroke:none;fill-rule:nonzero;fill:rgb(100%,84.3%,0%);fill-opacity:1;" d="M 331.222656 238.652344 C 331.222656 241.039062 327.644531 241.039062 327.644531 238.652344 C 327.644531 236.269531 331.222656 236.269531 331.222656 238.652344 "/>
<path style=" stroke:none;fill-rule:nonzero;fill:rgb(100%,84.3%,0%);fill-opacity:1;" d="M 331.222656 224.347656 C 331.222656 226.734375 327.644531 226.734375 327.644531 224.347656 C 327.644531 221.964844 331.222656 221.964844 331.222656 224.347656 "/>
<path style=" stroke:none;fill-rule:nonzero;fill:rgb(100%,84.3%,0%);fill-opacity:1;" d="M 187.453125 372.769531 C 187.453125 375.152344 183.878906 375.152344 183.878906 372.769531 C 183.878906 370.386719 187.453125 370.386719 187.453125 372.769531 "/>
<path style=" stroke:none;fill-rule:nonzero;fill:rgb(100%,84.3%,0%);fill-opacity:1;" d="M 184.355469 363.828125 C 184.355469 366.214844 180.777344 366.214844 180.777344 363.828125 C 180.777344 361.445312 184.355469 361.445312 184.355469 363.828125 "/>
<path style=" stroke:none;fill-rule:nonzero;fill:rgb(100%,84.3%,0%);fill-opacity:1;" d="M 328.121094 229.714844 C 328.121094 232.097656 324.546875 232.097656 324.546875 229.714844 C 324.546875 227.328125 328.121094 227.328125 328.121094 229.714844 "/>
<path style=" stroke:none;fill-rule:nonzero;fill:rgb(100%,84.3%,0%);fill-opacity:1;" d="M 181.253906 354.886719 C 181.253906 357.273438 177.675781 357.273438 177.675781 354.886719 C 177.675781 352.503906 181.253906 352.503906 181.253906 354.886719 "/>
<path style=" stroke:none;fill-rule:nonzero;fill:rgb(100%,84.3%,0%);fill-opacity:1;" d="M 184.355469 370.980469 C 184.355469 373.367188 180.777344 373.367188 180.777344 370.980469 C 180.777344 368.597656 184.355469 368.597656 184.355469 370.980469 "/>
<path style=" stroke:none;fill-rule:nonzero;fill:rgb(100%,84.3%,0%);fill-opacity:1;" d="M 334.324219 311.972656 C 334.324219 314.355469 330.746094 314.355469 330.746094 311.972656 C 330.746094 309.585938 334.324219 309.585938 334.324219 311.972656 "/>
<path style=" stroke:none;fill-rule:nonzero;fill:rgb(100%,84.3%,0%);fill-opacity:1;" d="M 321.089844 465.757812 C 321.089844 468.140625 317.515625 468.140625 317.515625 465.757812 C 317.515625 463.371094 321.089844 463.371094 321.089844 465.757812 "/>
<path style=" stroke:none;fill-rule:nonzero;fill:rgb(100%,84.3%,0%);fill-opacity:1;" d="M 331.222656 227.925781 C 331.222656 230.308594 327.644531 230.308594 327.644531 227.925781 C 327.644531 225.539062 331.222656 225.539062 331.222656 227.925781 "/>
<path style=" stroke:none;fill-rule:nonzero;fill:rgb(100%,84.3%,0%);fill-opacity:1;" d="M 331.222656 231.503906 C 331.222656 233.886719 327.644531 233.886719 327.644531 231.503906 C 327.644531 229.117188 331.222656 229.117188 331.222656 231.503906 "/>
<path style=" stroke:none;fill-rule:nonzero;fill:rgb(100%,84.3%,0%);fill-opacity:1;" d="M 181.253906 379.921875 C 181.253906 382.308594 177.675781 382.308594 177.675781 379.921875 C 177.675781 377.539062 181.253906 377.539062 181.253906 379.921875 "/>
</g>
</svg>
