<?xml version="1.0" encoding="UTF-8"?>
<svg xmlns="http://www.w3.org/2000/svg" xmlns:xlink="http://www.w3.org/1999/xlink" width="512pt" height="512pt" viewBox="0 0 512 512" version="1.1">
<g id="surface41">
<rect x="0" y="0" width="512" height="512" style="fill:rgb(26.7%,26.7%,26.7%);fill-opacity:1;stroke:none;"/>
<path style=" stroke:none;fill-rule:nonzero;fill:rgb(19.2%,38.8%,66.7%);fill-opacity:1;" d="M 37.332031 42.667969 L 410.667969 42.667969 L 410.667969 469.332031 L 37.332031 469.332031 Z M 37.332031 42.667969 "/>
<path style=" stroke:none;fill-rule:nonzero;fill:rgb(100%,100%,100%);fill-opacity:1;" d="M 380.800781 8.53125 C 380.800781 14.425781 376.023438 19.199219 370.132812 19.199219 C 364.242188 19.199219 359.464844 14.425781 359.464844 8.53125 C 359.464844 2.640625 364.242188 -2.132812 370.132812 -2.132812 C 376.023438 -2.132812 380.800781 2.640625 380.800781 8.53125 "/>
<path style=" stroke:none;fill-rule:nonzero;fill:rgb(100%,100%,100%);fill-opacity:1;" d="M 504.535156 375.46875 C 504.535156 381.359375 499.757812 386.132812 493.867188 386.132812 C 487.976562 386.132812 483.199219 381.359375 483.199219 375.46875 C 483.199219 369.574219 487.976562 364.800781 493.867188 364.800781 C 499.757812 364.800781 504.535156 369.574219 504.535156 375.46875 "/>
<path style=" stroke:none;fill-rule:nonzero;fill:rgb(100%,100%,100%);fill-opacity:1;" d="M 427.734375 238.933594 C 427.734375 244.824219 422.957031 249.601562 417.066406 249.601562 C 411.175781 249.601562 406.398438 244.824219 406.398438 238.933594 C 406.398438 233.042969 411.175781 228.265625 417.066406 228.265625 C 422.957031 228.265625 427.734375 233.042969 427.734375 238.933594 "/>
<path style=" stroke:none;fill-rule:nonzero;fill:rgb(100%,100%,100%);fill-opacity:1;" d="M 436.265625 264.53125 C 436.265625 270.425781 431.492188 275.199219 425.601562 275.199219 C 419.707031 275.199219 414.933594 270.425781 414.933594 264.53125 C 414.933594 258.640625 419.707031 253.867188 425.601562 253.867188 C 431.492188 253.867188 436.265625 258.640625 436.265625 264.53125 "/>
<path style=" stroke:none;fill-rule:nonzero;fill:rgb(100%,100%,100%);fill-opacity:1;" d="M 210.132812 -8.53125 C 210.132812 -2.640625 205.359375 2.132812 199.46875 2.132812 C 193.574219 2.132812 188.800781 -2.640625 188.800781 -8.53125 C 188.800781 -14.425781 193.574219 -19.199219 199.46875 -19.199219 C 205.359375 -19.199219 210.132812 -14.425781 210.132812 -8.53125 "/>
<path style=" stroke:none;fill-rule:nonzero;fill:rgb(100%,100%,100%);fill-opacity:1;" d="M 3.199219 215.46875 C 3.199219 221.359375 -1.574219 226.132812 -7.46875 226.132812 C -13.359375 226.132812 -18.132812 221.359375 -18.132812 215.46875 C -18.132812 209.574219 -13.359375 204.800781 -7.46875 204.800781 C -1.574219 204.800781 3.199219 209.574219 3.199219 215.46875 "/>
<path style=" stroke:none;fill-rule:nonzero;fill:rgb(100%,100%,100%);fill-opacity:1;" d="M 468.265625 46.933594 C 468.265625 52.824219 463.492188 57.601562 457.601562 57.601562 C 451.707031 57.601562 446.933594 52.824219 446.933594 46.933594 C 446.933594 41.042969 451.707031 36.265625 457.601562 36.265625 C 463.492188 36.265625 468.265625 41.042969 468.265625 46.933594 "/>
<path style=" stroke:none;fill-rule:nonzero;fill:rgb(100%,100%,100%);fill-opacity:1;" d="M 446.933594 12.800781 C 446.933594 18.691406 442.15625 23.464844 436.265625 23.464844 C 430.375 23.464844 425.601562 18.691406 425.601562 12.800781 C 425.601562 6.910156 430.375 2.132812 436.265625 2.132812 C 442.15625 2.132812 446.933594 6.910156 446.933594 12.800781 "/>
<path style=" stroke:none;fill-rule:nonzero;fill:rgb(100%,100%,100%);fill-opacity:1;" d="M 105.601562 19.199219 C 105.601562 25.089844 100.824219 29.867188 94.933594 29.867188 C 89.042969 29.867188 84.265625 25.089844 84.265625 19.199219 C 84.265625 13.308594 89.042969 8.535156 94.933594 8.535156 C 100.824219 8.535156 105.601562 13.308594 105.601562 19.199219 "/>
<path style=" stroke:none;fill-rule:nonzero;fill:rgb(100%,100%,100%);fill-opacity:1;" d="M 508.800781 292.265625 C 508.800781 298.15625 504.023438 302.933594 498.132812 302.933594 C 492.242188 302.933594 487.464844 298.15625 487.464844 292.265625 C 487.464844 286.375 492.242188 281.601562 498.132812 281.601562 C 504.023438 281.601562 508.800781 286.375 508.800781 292.265625 "/>
<path style=" stroke:none;fill-rule:nonzero;fill:rgb(100%,100%,100%);fill-opacity:1;" d="M 5.332031 6.398438 C 5.332031 12.292969 0.558594 17.066406 -5.332031 17.066406 C -11.222656 17.066406 -16 12.292969 -16 6.398438 C -16 0.507812 -11.222656 -4.265625 -5.332031 -4.265625 C 0.558594 -4.265625 5.332031 0.507812 5.332031 6.398438 "/>
<path style=" stroke:none;fill-rule:nonzero;fill:rgb(100%,100%,100%);fill-opacity:1;" d="M 37.332031 260.265625 C 37.332031 266.15625 32.558594 270.933594 26.667969 270.933594 C 20.777344 270.933594 16 266.15625 16 260.265625 C 16 254.375 20.777344 249.601562 26.667969 249.601562 C 32.558594 249.601562 37.332031 254.375 37.332031 260.265625 "/>
<path style=" stroke:none;fill-rule:nonzero;fill:rgb(100%,100%,100%);fill-opacity:1;" d="M 50.132812 8.53125 C 50.132812 14.425781 45.359375 19.199219 39.46875 19.199219 C 33.574219 19.199219 28.800781 14.425781 28.800781 8.53125 C 28.800781 2.640625 33.574219 -2.132812 39.46875 -2.132812 C 45.359375 -2.132812 50.132812 2.640625 50.132812 8.53125 "/>
<path style=" stroke:none;fill-rule:nonzero;fill:rgb(100%,100%,100%);fill-opacity:1;" d="M 436.265625 437.332031 C 436.265625 443.222656 431.492188 448 425.601562 448 C 419.707031 448 414.933594 443.222656 414.933594 437.332031 C 414.933594 431.441406 419.707031 426.667969 425.601562 426.667969 C 431.492188 426.667969 436.265625 431.441406 436.265625 437.332031 "/>
<path style=" stroke:none;fill-rule:nonzero;fill:rgb(100%,100%,100%);fill-opacity:1;" d="M 466.132812 326.398438 C 466.132812 332.292969 461.359375 337.066406 455.46875 337.066406 C 449.574219 337.066406 444.800781 332.292969 444.800781 326.398438 C 444.800781 320.507812 449.574219 315.734375 455.46875 315.734375 C 461.359375 315.734375 466.132812 320.507812 466.132812 326.398438 "/>
<path style=" stroke:none;fill-rule:nonzero;fill:rgb(100%,100%,100%);fill-opacity:1;" d="M 515.199219 251.734375 C 515.199219 257.625 510.425781 262.398438 504.53125 262.398438 C 498.640625 262.398438 493.867188 257.625 493.867188 251.734375 C 493.867188 245.84375 498.640625 241.066406 504.53125 241.066406 C 510.425781 241.066406 515.199219 245.84375 515.199219 251.734375 "/>
<path style=" stroke:none;fill-rule:nonzero;fill:rgb(100%,100%,100%);fill-opacity:1;" d="M 429.867188 326.398438 C 429.867188 332.292969 425.089844 337.066406 419.199219 337.066406 C 413.308594 337.066406 408.535156 332.292969 408.535156 326.398438 C 408.535156 320.507812 413.308594 315.734375 419.199219 315.734375 C 425.089844 315.734375 429.867188 320.507812 429.867188 326.398438 "/>
<path style=" stroke:none;fill-rule:nonzero;fill:rgb(100%,100%,100%);fill-opacity:1;" d="M 453.332031 -2.132812 C 453.332031 3.757812 448.558594 8.535156 442.667969 8.535156 C 436.777344 8.535156 432 3.757812 432 -2.132812 C 432 -8.023438 436.777344 -12.800781 442.667969 -12.800781 C 448.558594 -12.800781 453.332031 -8.023438 453.332031 -2.132812 "/>
<path style=" stroke:none;fill-rule:nonzero;fill:rgb(100%,84.3%,0%);fill-opacity:1;" d="M 261.332031 64 C 261.332031 69.890625 256.558594 74.667969 250.667969 74.667969 C 244.777344 74.667969 240 69.890625 240 64 C 240 58.109375 244.777344 53.332031 250.667969 53.332031 C 256.558594 53.332031 261.332031 58.109375 261.332031 64 "/>
<path style=" stroke:none;fill-rule:nonzero;fill:rgb(100%,84.3%,0%);fill-opacity:1;" d="M 346.667969 448 C 346.667969 453.890625 341.890625 458.667969 336 458.667969 C 330.109375 458.667969 325.332031 453.890625 325.332031 448 C 325.332031 442.109375 330.109375 437.332031 336 437.332031 C 341.890625 437.332031 346.667969 442.109375 346.667969 448 "/>
<path style=" stroke:none;fill-rule:nonzero;fill:rgb(100%,84.3%,0%);fill-opacity:1;" d="M 325.332031 448 C 325.332031 453.890625 320.558594 458.667969 314.667969 458.667969 C 308.777344 458.667969 304 453.890625 304 448 C 304 442.109375 308.777344 437.332031 314.667969 437.332031 C 320.558594 437.332031 325.332031 442.109375 325.332031 448 "/>
<path style=" stroke:none;fill-rule:nonzero;fill:rgb(100%,84.3%,0%);fill-opacity:1;" d="M 282.667969 448 C 282.667969 453.890625 277.890625 458.667969 272 458.667969 C 266.109375 458.667969 261.332031 453.890625 261.332031 448 C 261.332031 442.109375 266.109375 437.332031 272 437.332031 C 277.890625 437.332031 282.667969 442.109375 282.667969 448 "/>
<path style=" stroke:none;fill-rule:nonzero;fill:rgb(100%,84.3%,0%);fill-opacity:1;" d="M 69.332031 164.265625 C 69.332031 170.15625 64.558594 174.933594 58.667969 174.933594 C 52.777344 174.933594 48 170.15625 48 164.265625 C 48 158.375 52.777344 153.601562 58.667969 153.601562 C 64.558594 153.601562 69.332031 158.375 69.332031 164.265625 "/>
<path style=" stroke:none;fill-rule:nonzero;fill:rgb(100%,84.3%,0%);fill-opacity:1;" d="M 133.332031 448 C 133.332031 453.890625 128.558594 458.667969 122.667969 458.667969 C 116.777344 458.667969 112 453.890625 112 448 C 112 442.109375 116.777344 437.332031 122.667969 437.332031 C 128.558594 437.332031 133.332031 442.109375 133.332031 448 "/>
<path style=" stroke:none;fill-rule:nonzero;fill:rgb(100%,84.3%,0%);fill-opacity:1;" d="M 325.332031 64 C 325.332031 69.890625 320.558594 74.667969 314.667969 74.667969 C 308.777344 74.667969 304 69.890625 304 64 C 304 58.109375 308.777344 53.332031 314.667969 53.332031 C 320.558594 53.332031 325.332031 58.109375 325.332031 64 "/>
<path style=" stroke:none;fill-rule:nonzero;fill:rgb(100%,84.3%,0%);fill-opacity:1;" d="M 240 64 C 240 69.890625 235.222656 74.667969 229.332031 74.667969 C 223.441406 74.667969 218.667969 69.890625 218.667969 64 C 218.667969 58.109375 223.441406 53.332031 229.332031 53.332031 C 235.222656 53.332031 240 58.109375 240 64 "/>
<path style=" stroke:none;fill-rule:nonzero;fill:rgb(100%,84.3%,0%);fill-opacity:1;" d="M 304 448 C 304 453.890625 299.222656 458.667969 293.332031 458.667969 C 287.441406 458.667969 282.667969 453.890625 282.667969 448 C 282.667969 442.109375 287.441406 437.332031 293.332031 437.332031 C 299.222656 437.332031 304 442.109375 304 448 "/>
<path style=" stroke:none;fill-rule:nonzero;fill:rgb(100%,84.3%,0%);fill-opacity:1;" d="M 176 64 C 176 69.890625 171.222656 74.667969 165.332031 74.667969 C 159.441406 74.667969 154.667969 69.890625 154.667969 64 C 154.667969 58.109375 159.441406 53.332031 165.332031 53.332031 C 171.222656 53.332031 176 58.109375 176 64 "/>
<path style=" stroke:none;fill-rule:nonzero;fill:rgb(100%,84.3%,0%);fill-opacity:1;" d="M 197.332031 64 C 197.332031 69.890625 192.558594 74.667969 186.667969 74.667969 C 180.777344 74.667969 176 69.890625 176 64 C 176 58.109375 180.777344 53.332031 186.667969 53.332031 C 192.558594 53.332031 197.332031 58.109375 197.332031 64 "/>
<path style=" stroke:none;fill-rule:nonzero;fill:rgb(100%,84.3%,0%);fill-opacity:1;" d="M 261.332031 448 C 261.332031 453.890625 256.558594 458.667969 250.667969 458.667969 C 244.777344 458.667969 240 453.890625 240 448 C 240 442.109375 244.777344 437.332031 250.667969 437.332031 C 256.558594 437.332031 261.332031 442.109375 261.332031 448 "/>
<path style=" stroke:none;fill-rule:nonzero;fill:rgb(100%,84.3%,0%);fill-opacity:1;" d="M 69.332031 448 C 69.332031 453.890625 64.558594 458.667969 58.667969 458.667969 C 52.777344 458.667969 48 453.890625 48 448 C 48 442.109375 52.777344 437.332031 58.667969 437.332031 C 64.558594 437.332031 69.332031 442.109375 69.332031 448 "/>
<path style=" stroke:none;fill-rule:nonzero;fill:rgb(100%,84.3%,0%);fill-opacity:1;" d="M 87.828125 260.265625 C 87.828125 266.15625 83.054688 270.933594 77.164062 270.933594 C 71.273438 270.933594 66.496094 266.15625 66.496094 260.265625 C 66.496094 254.375 71.273438 249.601562 77.164062 249.601562 C 83.054688 249.601562 87.828125 254.375 87.828125 260.265625 "/>
<path style=" stroke:none;fill-rule:nonzero;fill:rgb(100%,84.3%,0%);fill-opacity:1;" d="M 197.332031 448 C 197.332031 453.890625 192.558594 458.667969 186.667969 458.667969 C 180.777344 458.667969 176 453.890625 176 448 C 176 442.109375 180.777344 437.332031 186.667969 437.332031 C 192.558594 437.332031 197.332031 442.109375 197.332031 448 "/>
<path style=" stroke:none;fill-rule:nonzero;fill:rgb(100%,84.3%,0%);fill-opacity:1;" d="M 90.667969 448 C 90.667969 453.890625 85.890625 458.667969 80 458.667969 C 74.109375 458.667969 69.332031 453.890625 69.332031 448 C 69.332031 442.109375 74.109375 437.332031 80 437.332031 C 85.890625 437.332031 90.667969 442.109375 90.667969 448 "/>
<path style=" stroke:none;fill-rule:nonzero;fill:rgb(100%,84.3%,0%);fill-opacity:1;" d="M 400 64 C 400 69.890625 395.222656 74.667969 389.332031 74.667969 C 383.441406 74.667969 378.667969 69.890625 378.667969 64 C 378.667969 58.109375 383.441406 53.332031 389.332031 53.332031 C 395.222656 53.332031 400 58.109375 400 64 "/>
<path style=" stroke:none;fill-rule:nonzero;fill:rgb(100%,84.3%,0%);fill-opacity:1;" d="M 400 270.933594 C 400 276.824219 395.222656 281.601562 389.332031 281.601562 C 383.441406 281.601562 378.667969 276.824219 378.667969 270.933594 C 378.667969 265.042969 383.441406 260.265625 389.332031 260.265625 C 395.222656 260.265625 400 265.042969 400 270.933594 "/>
<path style=" stroke:none;fill-rule:nonzero;fill:rgb(100%,84.3%,0%);fill-opacity:1;" d="M 400 292.265625 C 400 298.15625 395.222656 302.933594 389.332031 302.933594 C 383.441406 302.933594 378.667969 298.15625 378.667969 292.265625 C 378.667969 286.375 383.441406 281.601562 389.332031 281.601562 C 395.222656 281.601562 400 286.375 400 292.265625 "/>
<path style=" stroke:none;fill-rule:nonzero;fill:rgb(100%,84.3%,0%);fill-opacity:1;" d="M 154.667969 64 C 154.667969 69.890625 149.890625 74.667969 144 74.667969 C 138.109375 74.667969 133.332031 69.890625 133.332031 64 C 133.332031 58.109375 138.109375 53.332031 144 53.332031 C 149.890625 53.332031 154.667969 58.109375 154.667969 64 "/>
<path style=" stroke:none;fill-rule:nonzero;fill:rgb(100%,84.3%,0%);fill-opacity:1;" d="M 400 398.933594 C 400 404.824219 395.222656 409.601562 389.332031 409.601562 C 383.441406 409.601562 378.667969 404.824219 378.667969 398.933594 C 378.667969 393.042969 383.441406 388.265625 389.332031 388.265625 C 395.222656 388.265625 400 393.042969 400 398.933594 "/>
<path style=" stroke:none;fill-rule:nonzero;fill:rgb(100%,84.3%,0%);fill-opacity:1;" d="M 69.332031 270.933594 C 69.332031 276.824219 64.558594 281.601562 58.667969 281.601562 C 52.777344 281.601562 48 276.824219 48 270.933594 C 48 265.042969 52.777344 260.265625 58.667969 260.265625 C 64.558594 260.265625 69.332031 265.042969 69.332031 270.933594 "/>
<path style=" stroke:none;fill-rule:nonzero;fill:rgb(100%,84.3%,0%);fill-opacity:1;" d="M 400 249.601562 C 400 255.492188 395.222656 260.265625 389.332031 260.265625 C 383.441406 260.265625 378.667969 255.492188 378.667969 249.601562 C 378.667969 243.707031 383.441406 238.933594 389.332031 238.933594 C 395.222656 238.933594 400 243.707031 400 249.601562 "/>
<path style=" stroke:none;fill-rule:nonzero;fill:rgb(100%,84.3%,0%);fill-opacity:1;" d="M 69.332031 206.933594 C 69.332031 212.824219 64.558594 217.601562 58.667969 217.601562 C 52.777344 217.601562 48 212.824219 48 206.933594 C 48 201.042969 52.777344 196.265625 58.667969 196.265625 C 64.558594 196.265625 69.332031 201.042969 69.332031 206.933594 "/>
<path style=" stroke:none;fill-rule:nonzero;fill:rgb(100%,84.3%,0%);fill-opacity:1;" d="M 346.667969 64 C 346.667969 69.890625 341.890625 74.667969 336 74.667969 C 330.109375 74.667969 325.332031 69.890625 325.332031 64 C 325.332031 58.109375 330.109375 53.332031 336 53.332031 C 341.890625 53.332031 346.667969 58.109375 346.667969 64 "/>
<path style=" stroke:none;fill-rule:nonzero;fill:rgb(100%,84.3%,0%);fill-opacity:1;" d="M 69.332031 228.265625 C 69.332031 234.15625 64.558594 238.933594 58.667969 238.933594 C 52.777344 238.933594 48 234.15625 48 228.265625 C 48 222.375 52.777344 217.601562 58.667969 217.601562 C 64.558594 217.601562 69.332031 222.375 69.332031 228.265625 "/>
<path style=" stroke:none;fill-rule:nonzero;fill:rgb(100%,84.3%,0%);fill-opacity:1;" d="M 218.667969 448 C 218.667969 453.890625 213.890625 458.667969 208 458.667969 C 202.109375 458.667969 197.332031 453.890625 197.332031 448 C 197.332031 442.109375 202.109375 437.332031 208 437.332031 C 213.890625 437.332031 218.667969 442.109375 218.667969 448 "/>
<path style=" stroke:none;fill-rule:nonzero;fill:rgb(100%,84.3%,0%);fill-opacity:1;" d="M 381.503906 238.933594 C 381.503906 244.824219 376.726562 249.601562 370.835938 249.601562 C 364.945312 249.601562 360.171875 244.824219 360.171875 238.933594 C 360.171875 233.042969 364.945312 228.265625 370.835938 228.265625 C 376.726562 228.265625 381.503906 233.042969 381.503906 238.933594 "/>
<path style=" stroke:none;fill-rule:nonzero;fill:rgb(100%,84.3%,0%);fill-opacity:1;" d="M 69.332031 64 C 69.332031 69.890625 64.558594 74.667969 58.667969 74.667969 C 52.777344 74.667969 48 69.890625 48 64 C 48 58.109375 52.777344 53.332031 58.667969 53.332031 C 64.558594 53.332031 69.332031 58.109375 69.332031 64 "/>
<path style=" stroke:none;fill-rule:nonzero;fill:rgb(100%,84.3%,0%);fill-opacity:1;" d="M 400 356.265625 C 400 362.15625 395.222656 366.933594 389.332031 366.933594 C 383.441406 366.933594 378.667969 362.15625 378.667969 356.265625 C 378.667969 350.375 383.441406 345.601562 389.332031 345.601562 C 395.222656 345.601562 400 350.375 400 356.265625 "/>
<path style=" stroke:none;fill-rule:nonzero;fill:rgb(100%,84.3%,0%);fill-opacity:1;" d="M 400 334.933594 C 400 340.824219 395.222656 345.601562 389.332031 345.601562 C 383.441406 345.601562 378.667969 340.824219 378.667969 334.933594 C 378.667969 329.042969 383.441406 324.265625 389.332031 324.265625 C 395.222656 324.265625 400 329.042969 400 334.933594 "/>
<path style=" stroke:none;fill-rule:nonzero;fill:rgb(100%,84.3%,0%);fill-opacity:1;" d="M 400 206.933594 C 400 212.824219 395.222656 217.601562 389.332031 217.601562 C 383.441406 217.601562 378.667969 212.824219 378.667969 206.933594 C 378.667969 201.042969 383.441406 196.265625 389.332031 196.265625 C 395.222656 196.265625 400 201.042969 400 206.933594 "/>
<path style=" stroke:none;fill-rule:nonzero;fill:rgb(100%,84.3%,0%);fill-opacity:1;" d="M 378.667969 82.496094 C 378.667969 88.386719 373.890625 93.164062 368 93.164062 C 362.109375 93.164062 357.332031 88.386719 357.332031 82.496094 C 357.332031 76.605469 362.109375 71.832031 368 71.832031 C 373.890625 71.832031 378.667969 76.605469 378.667969 82.496094 "/>
<path style=" stroke:none;fill-rule:nonzero;fill:rgb(100%,84.3%,0%);fill-opacity:1;" d="M 154.667969 448 C 154.667969 453.890625 149.890625 458.667969 144 458.667969 C 138.109375 458.667969 133.332031 453.890625 133.332031 448 C 133.332031 442.109375 138.109375 437.332031 144 437.332031 C 149.890625 437.332031 154.667969 442.109375 154.667969 448 "/>
<path style=" stroke:none;fill-rule:nonzero;fill:rgb(100%,84.3%,0%);fill-opacity:1;" d="M 133.332031 64 C 133.332031 69.890625 128.558594 74.667969 122.667969 74.667969 C 116.777344 74.667969 112 69.890625 112 64 C 112 58.109375 116.777344 53.332031 122.667969 53.332031 C 128.558594 53.332031 133.332031 58.109375 133.332031 64 "/>
<path style=" stroke:none;fill-rule:nonzero;fill:rgb(100%,84.3%,0%);fill-opacity:1;" d="M 400 228.265625 C 400 234.15625 395.222656 238.933594 389.332031 238.933594 C 383.441406 238.933594 378.667969 234.15625 378.667969 228.265625 C 378.667969 222.375 383.441406 217.601562 389.332031 217.601562 C 395.222656 217.601562 400 222.375 400 228.265625 "/>
<path style=" stroke:none;fill-rule:nonzero;fill:rgb(100%,84.3%,0%);fill-opacity:1;" d="M 400 420.265625 C 400 426.15625 395.222656 430.933594 389.332031 430.933594 C 383.441406 430.933594 378.667969 426.15625 378.667969 420.265625 C 378.667969 414.375 383.441406 409.601562 389.332031 409.601562 C 395.222656 409.601562 400 414.375 400 420.265625 "/>
<path style=" stroke:none;fill-rule:nonzero;fill:rgb(100%,84.3%,0%);fill-opacity:1;" d="M 69.332031 292.265625 C 69.332031 298.15625 64.558594 302.933594 58.667969 302.933594 C 52.777344 302.933594 48 298.15625 48 292.265625 C 48 286.375 52.777344 281.601562 58.667969 281.601562 C 64.558594 281.601562 69.332031 286.375 69.332031 292.265625 "/>
<path style=" stroke:none;fill-rule:nonzero;fill:rgb(100%,84.3%,0%);fill-opacity:1;" d="M 112 64 C 112 69.890625 107.222656 74.667969 101.332031 74.667969 C 95.441406 74.667969 90.667969 69.890625 90.667969 64 C 90.667969 58.109375 95.441406 53.332031 101.332031 53.332031 C 107.222656 53.332031 112 58.109375 112 64 "/>
<path style=" stroke:none;fill-rule:nonzero;fill:rgb(100%,84.3%,0%);fill-opacity:1;" d="M 69.332031 185.601562 C 69.332031 191.492188 64.558594 196.265625 58.667969 196.265625 C 52.777344 196.265625 48 191.492188 48 185.601562 C 48 179.707031 52.777344 174.933594 58.667969 174.933594 C 64.558594 174.933594 69.332031 179.707031 69.332031 185.601562 "/>
<path style=" stroke:none;fill-rule:nonzero;fill:rgb(100%,84.3%,0%);fill-opacity:1;" d="M 90.667969 64 C 90.667969 69.890625 85.890625 74.667969 80 74.667969 C 74.109375 74.667969 69.332031 69.890625 69.332031 64 C 69.332031 58.109375 74.109375 53.332031 80 53.332031 C 85.890625 53.332031 90.667969 58.109375 90.667969 64 "/>
<path style=" stroke:none;fill-rule:nonzero;fill:rgb(100%,84.3%,0%);fill-opacity:1;" d="M 176 448 C 176 453.890625 171.222656 458.667969 165.332031 458.667969 C 159.441406 458.667969 154.667969 453.890625 154.667969 448 C 154.667969 442.109375 159.441406 437.332031 165.332031 437.332031 C 171.222656 437.332031 176 442.109375 176 448 "/>
<path style=" stroke:none;fill-rule:nonzero;fill:rgb(100%,84.3%,0%);fill-opacity:1;" d="M 400 377.601562 C 400 383.492188 395.222656 388.265625 389.332031 388.265625 C 383.441406 388.265625 378.667969 383.492188 378.667969 377.601562 C 378.667969 371.707031 383.441406 366.933594 389.332031 366.933594 C 395.222656 366.933594 400 371.707031 400 377.601562 "/>
<path style=" stroke:none;fill-rule:nonzero;fill:rgb(100%,84.3%,0%);fill-opacity:1;" d="M 218.667969 64 C 218.667969 69.890625 213.890625 74.667969 208 74.667969 C 202.109375 74.667969 197.332031 69.890625 197.332031 64 C 197.332031 58.109375 202.109375 53.332031 208 53.332031 C 213.890625 53.332031 218.667969 58.109375 218.667969 64 "/>
<path style=" stroke:none;fill-rule:nonzero;fill:rgb(100%,84.3%,0%);fill-opacity:1;" d="M 400 448 C 400 453.890625 395.222656 458.667969 389.332031 458.667969 C 383.441406 458.667969 378.667969 453.890625 378.667969 448 C 378.667969 442.109375 383.441406 437.332031 389.332031 437.332031 C 395.222656 437.332031 400 442.109375 400 448 "/>
<path style=" stroke:none;fill-rule:nonzero;fill:rgb(100%,84.3%,0%);fill-opacity:1;" d="M 69.332031 142.933594 C 69.332031 148.824219 64.558594 153.601562 58.667969 153.601562 C 52.777344 153.601562 48 148.824219 48 142.933594 C 48 137.042969 52.777344 132.265625 58.667969 132.265625 C 64.558594 132.265625 69.332031 137.042969 69.332031 142.933594 "/>
<path style=" stroke:none;fill-rule:nonzero;fill:rgb(100%,84.3%,0%);fill-opacity:1;" d="M 400 121.601562 C 400 127.492188 395.222656 132.265625 389.332031 132.265625 C 383.441406 132.265625 378.667969 127.492188 378.667969 121.601562 C 378.667969 115.707031 383.441406 110.933594 389.332031 110.933594 C 395.222656 110.933594 400 115.707031 400 121.601562 "/>
<path style=" stroke:none;fill-rule:nonzero;fill:rgb(100%,84.3%,0%);fill-opacity:1;" d="M 69.332031 249.601562 C 69.332031 255.492188 64.558594 260.265625 58.667969 260.265625 C 52.777344 260.265625 48 255.492188 48 249.601562 C 48 243.707031 52.777344 238.933594 58.667969 238.933594 C 64.558594 238.933594 69.332031 243.707031 69.332031 249.601562 "/>
<path style=" stroke:none;fill-rule:nonzero;fill:rgb(100%,84.3%,0%);fill-opacity:1;" d="M 240 448 C 240 453.890625 235.222656 458.667969 229.332031 458.667969 C 223.441406 458.667969 218.667969 453.890625 218.667969 448 C 218.667969 442.109375 223.441406 437.332031 229.332031 437.332031 C 235.222656 437.332031 240 442.109375 240 448 "/>
<path style=" stroke:none;fill-rule:nonzero;fill:rgb(100%,84.3%,0%);fill-opacity:1;" d="M 400 313.601562 C 400 319.492188 395.222656 324.265625 389.332031 324.265625 C 383.441406 324.265625 378.667969 319.492188 378.667969 313.601562 C 378.667969 307.707031 383.441406 302.933594 389.332031 302.933594 C 395.222656 302.933594 400 307.707031 400 313.601562 "/>
<path style=" stroke:none;fill-rule:nonzero;fill:rgb(100%,84.3%,0%);fill-opacity:1;" d="M 112 448 C 112 453.890625 107.222656 458.667969 101.332031 458.667969 C 95.441406 458.667969 90.667969 453.890625 90.667969 448 C 90.667969 442.109375 95.441406 437.332031 101.332031 437.332031 C 107.222656 437.332031 112 442.109375 112 448 "/>
<path style=" stroke:none;fill-rule:nonzero;fill:rgb(100%,84.3%,0%);fill-opacity:1;" d="M 368 448 C 368 453.890625 363.222656 458.667969 357.332031 458.667969 C 351.441406 458.667969 346.667969 453.890625 346.667969 448 C 346.667969 442.109375 351.441406 437.332031 357.332031 437.332031 C 363.222656 437.332031 368 442.109375 368 448 "/>
<path style=" stroke:none;fill-rule:nonzero;fill:rgb(100%,84.3%,0%);fill-opacity:1;" d="M 368 64 C 368 69.890625 363.222656 74.667969 357.332031 74.667969 C 351.441406 74.667969 346.667969 69.890625 346.667969 64 C 346.667969 58.109375 351.441406 53.332031 357.332031 53.332031 C 363.222656 53.332031 368 58.109375 368 64 "/>
<path style=" stroke:none;fill-rule:nonzero;fill:rgb(100%,84.3%,0%);fill-opacity:1;" d="M 400 100.265625 C 400 106.15625 395.222656 110.933594 389.332031 110.933594 C 383.441406 110.933594 378.667969 106.15625 378.667969 100.265625 C 378.667969 94.375 383.441406 89.601562 389.332031 89.601562 C 395.222656 89.601562 400 94.375 400 100.265625 "/>
<path style=" stroke:none;fill-rule:nonzero;fill:rgb(100%,84.3%,0%);fill-opacity:1;" d="M 378.667969 429.503906 C 378.667969 435.394531 373.890625 440.167969 368 440.167969 C 362.109375 440.167969 357.332031 435.394531 357.332031 429.503906 C 357.332031 423.613281 362.109375 418.835938 368 418.835938 C 373.890625 418.835938 378.667969 423.613281 378.667969 429.503906 "/>
<path style=" stroke:none;fill-rule:nonzero;fill:rgb(100%,84.3%,0%);fill-opacity:1;" d="M 69.332031 100.265625 C 69.332031 106.15625 64.558594 110.933594 58.667969 110.933594 C 52.777344 110.933594 48 106.15625 48 100.265625 C 48 94.375 52.777344 89.601562 58.667969 89.601562 C 64.558594 89.601562 69.332031 94.375 69.332031 100.265625 "/>
</g>
</svg>
