<?xml version="1.0" encoding="UTF-8"?>
<svg xmlns="http://www.w3.org/2000/svg" xmlns:xlink="http://www.w3.org/1999/xlink" width="512pt" height="512pt" viewBox="0 0 512 512" version="1.1">
<g id="surface46">
<path style=" stroke:none;fill-rule:nonzero;fill:rgb(26.7%,26.7%,26.7%);fill-opacity:1;" d="M 0 194.277344 L 1535.15625 194.277344 L 1535.15625 512 L 0 512 Z M 0 194.277344 "/>
<path style=" stroke:none;fill-rule:nonzero;fill:rgb(19.2%,38.8%,66.7%);fill-opacity:1;" d="M 42.667969 207.769531 L 469.332031 207.769531 L 469.332031 484.34375 L 42.667969 484.34375 Z M 42.667969 207.769531 "/>
<path style=" stroke:none;fill-rule:nonzero;fill:rgb(100%,100%,100%);fill-opacity:1;" d="M 46.039062 460.734375 C 46.039062 465.390625 42.265625 469.164062 37.605469 469.164062 C 32.949219 469.164062 29.175781 465.390625 29.175781 460.734375 C 29.175781 456.074219 32.949219 452.300781 37.605469 452.300781 C 42.265625 452.300781 46.039062 456.074219 46.039062 460.734375 "/>
<path style=" stroke:none;fill-rule:nonzero;fill:rgb(100%,100%,100%);fill-opacity:1;" d="M 396.816406 206.082031 C 396.816406 210.738281 393.042969 214.515625 388.386719 214.515625 C 383.726562 214.515625 379.953125 210.738281 379.953125 206.082031 C 379.953125 201.425781 383.726562 197.648438 388.386719 197.648438 C 393.042969 197.648438 396.816406 201.425781 396.816406 206.082031 "/>
<path style=" stroke:none;fill-rule:nonzero;fill:rgb(100%,100%,100%);fill-opacity:1;" d="M 518.238281 216.199219 C 518.238281 220.855469 514.464844 224.632812 509.808594 224.632812 C 505.152344 224.632812 501.375 220.855469 501.375 216.199219 C 501.375 211.542969 505.152344 207.769531 509.808594 207.769531 C 514.464844 207.769531 518.238281 211.542969 518.238281 216.199219 "/>
<path style=" stroke:none;fill-rule:nonzero;fill:rgb(100%,100%,100%);fill-opacity:1;" d="M 34.234375 469.164062 C 34.234375 473.820312 30.457031 477.597656 25.800781 477.597656 C 21.144531 477.597656 17.371094 473.820312 17.371094 469.164062 C 17.371094 464.507812 21.144531 460.734375 25.800781 460.734375 C 30.457031 460.734375 34.234375 464.507812 34.234375 469.164062 "/>
<path style=" stroke:none;fill-rule:nonzero;fill:rgb(100%,100%,100%);fill-opacity:1;" d="M 7.25 479.28125 C 7.25 483.941406 3.476562 487.714844 -1.179688 487.714844 C -5.839844 487.714844 -9.613281 483.941406 -9.613281 479.28125 C -9.613281 474.625 -5.839844 470.851562 -1.179688 470.851562 C 3.476562 470.851562 7.25 474.625 7.25 479.28125 "/>
<path style=" stroke:none;fill-rule:nonzero;fill:rgb(100%,100%,100%);fill-opacity:1;" d="M 524.984375 452.300781 C 524.984375 456.957031 521.210938 460.730469 516.554688 460.730469 C 511.894531 460.730469 508.121094 456.957031 508.121094 452.300781 C 508.121094 447.644531 511.894531 443.867188 516.554688 443.867188 C 521.210938 443.867188 524.984375 447.644531 524.984375 452.300781 "/>
<path style=" stroke:none;fill-rule:nonzero;fill:rgb(100%,100%,100%);fill-opacity:1;" d="M 12.3125 494.460938 C 12.3125 499.117188 8.535156 502.894531 3.878906 502.894531 C -0.777344 502.894531 -4.554688 499.117188 -4.554688 494.460938 C -4.554688 489.804688 -0.777344 486.027344 3.878906 486.027344 C 8.535156 486.027344 12.3125 489.804688 12.3125 494.460938 "/>
<path style=" stroke:none;fill-rule:nonzero;fill:rgb(100%,100%,100%);fill-opacity:1;" d="M 49.414062 435.4375 C 49.414062 440.09375 45.636719 443.867188 40.980469 443.867188 C 36.324219 443.867188 32.546875 440.09375 32.546875 435.4375 C 32.546875 430.777344 36.324219 427.003906 40.980469 427.003906 C 45.636719 427.003906 49.414062 430.777344 49.414062 435.4375 "/>
<path style=" stroke:none;fill-rule:nonzero;fill:rgb(100%,100%,100%);fill-opacity:1;" d="M 234.917969 199.335938 C 234.917969 203.992188 231.144531 207.769531 226.488281 207.769531 C 221.828125 207.769531 218.054688 203.992188 218.054688 199.335938 C 218.054688 194.679688 221.828125 190.902344 226.488281 190.902344 C 231.144531 190.902344 234.917969 194.679688 234.917969 199.335938 "/>
<path style=" stroke:none;fill-rule:nonzero;fill:rgb(100%,100%,100%);fill-opacity:1;" d="M 10.625 403.394531 C 10.625 408.050781 6.847656 411.824219 2.191406 411.824219 C -2.464844 411.824219 -6.238281 408.050781 -6.238281 403.394531 C -6.238281 398.738281 -2.464844 394.960938 2.191406 394.960938 C 6.847656 394.960938 10.625 398.738281 10.625 403.394531 "/>
<path style=" stroke:none;fill-rule:nonzero;fill:rgb(100%,100%,100%);fill-opacity:1;" d="M 514.867188 236.4375 C 514.867188 241.09375 511.09375 244.871094 506.433594 244.871094 C 501.777344 244.871094 498.003906 241.09375 498.003906 236.4375 C 498.003906 231.78125 501.777344 228.003906 506.433594 228.003906 C 511.09375 228.003906 514.867188 231.78125 514.867188 236.4375 "/>
<path style=" stroke:none;fill-rule:nonzero;fill:rgb(100%,100%,100%);fill-opacity:1;" d="M 523.300781 199.335938 C 523.300781 203.992188 519.523438 207.769531 514.867188 207.769531 C 510.210938 207.769531 506.433594 203.992188 506.433594 199.335938 C 506.433594 194.679688 510.210938 190.902344 514.867188 190.902344 C 519.523438 190.902344 523.300781 194.679688 523.300781 199.335938 "/>
<path style=" stroke:none;fill-rule:nonzero;fill:rgb(100%,100%,100%);fill-opacity:1;" d="M 13.996094 207.769531 C 13.996094 212.425781 10.222656 216.199219 5.566406 216.199219 C 0.90625 216.199219 -2.867188 212.425781 -2.867188 207.769531 C -2.867188 203.109375 0.90625 199.335938 5.566406 199.335938 C 10.222656 199.335938 13.996094 203.109375 13.996094 207.769531 "/>
<path style=" stroke:none;fill-rule:nonzero;fill:rgb(100%,100%,100%);fill-opacity:1;" d="M 13.996094 217.886719 C 13.996094 222.542969 10.222656 226.320312 5.566406 226.320312 C 0.90625 226.320312 -2.867188 222.542969 -2.867188 217.886719 C -2.867188 213.230469 0.90625 209.453125 5.566406 209.453125 C 10.222656 209.453125 13.996094 213.230469 13.996094 217.886719 "/>
<path style=" stroke:none;fill-rule:nonzero;fill:rgb(100%,100%,100%);fill-opacity:1;" d="M 15.683594 233.066406 C 15.683594 237.722656 11.910156 241.496094 7.253906 241.496094 C 2.59375 241.496094 -1.179688 237.722656 -1.179688 233.066406 C -1.179688 228.40625 2.59375 224.632812 7.253906 224.632812 C 11.910156 224.632812 15.683594 228.40625 15.683594 233.066406 "/>
<path style=" stroke:none;fill-rule:nonzero;fill:rgb(100%,100%,100%);fill-opacity:1;" d="M 455.84375 506.265625 C 455.84375 510.921875 452.066406 514.699219 447.410156 514.699219 C 442.753906 514.699219 438.976562 510.921875 438.976562 506.265625 C 438.976562 501.609375 442.753906 497.832031 447.410156 497.832031 C 452.066406 497.832031 455.84375 501.609375 455.84375 506.265625 "/>
<path style=" stroke:none;fill-rule:nonzero;fill:rgb(100%,100%,100%);fill-opacity:1;" d="M 479.453125 290.402344 C 479.453125 295.058594 475.675781 298.835938 471.019531 298.835938 C 466.363281 298.835938 462.585938 295.058594 462.585938 290.402344 C 462.585938 285.746094 466.363281 281.972656 471.019531 281.972656 C 475.675781 281.972656 479.453125 285.746094 479.453125 290.402344 "/>
<path style=" stroke:none;fill-rule:nonzero;fill:rgb(100%,84.3%,0%);fill-opacity:1;" d="M 422.113281 239.238281 C 422.113281 243.894531 418.339844 247.667969 413.679688 247.667969 C 409.023438 247.667969 405.25 243.894531 405.25 239.238281 C 405.25 234.578125 409.023438 230.804688 413.679688 230.804688 C 418.339844 230.804688 422.113281 234.578125 422.113281 239.238281 "/>
<path style=" stroke:none;fill-rule:nonzero;fill:rgb(100%,84.3%,0%);fill-opacity:1;" d="M 76.394531 276.339844 C 76.394531 280.996094 72.621094 284.769531 67.964844 284.769531 C 63.304688 284.769531 59.53125 280.996094 59.53125 276.339844 C 59.53125 271.683594 63.304688 267.90625 67.964844 267.90625 C 72.621094 267.90625 76.394531 271.683594 76.394531 276.339844 "/>
<path style=" stroke:none;fill-rule:nonzero;fill:rgb(100%,84.3%,0%);fill-opacity:1;" d="M 206.25 452.871094 C 206.25 457.53125 202.476562 461.304688 197.816406 461.304688 C 193.160156 461.304688 189.386719 457.53125 189.386719 452.871094 C 189.386719 448.214844 193.160156 444.441406 197.816406 444.441406 C 202.476562 444.441406 206.25 448.214844 206.25 452.871094 "/>
<path style=" stroke:none;fill-rule:nonzero;fill:rgb(100%,84.3%,0%);fill-opacity:1;" d="M 67.964844 435.4375 C 67.964844 440.09375 64.1875 443.867188 59.53125 443.867188 C 54.875 443.867188 51.097656 440.09375 51.097656 435.4375 C 51.097656 430.777344 54.875 427.003906 59.53125 427.003906 C 64.1875 427.003906 67.964844 430.777344 67.964844 435.4375 "/>
<path style=" stroke:none;fill-rule:nonzero;fill:rgb(100%,84.3%,0%);fill-opacity:1;" d="M 99.433594 340.457031 C 99.433594 345.113281 95.65625 348.886719 91 348.886719 C 86.34375 348.886719 82.566406 345.113281 82.566406 340.457031 C 82.566406 335.800781 86.34375 332.023438 91 332.023438 C 95.65625 332.023438 99.433594 335.800781 99.433594 340.457031 "/>
<path style=" stroke:none;fill-rule:nonzero;fill:rgb(100%,84.3%,0%);fill-opacity:1;" d="M 67.964844 452.300781 C 67.964844 456.957031 64.1875 460.730469 59.53125 460.730469 C 54.875 460.730469 51.097656 456.957031 51.097656 452.300781 C 51.097656 447.644531 54.875 443.867188 59.53125 443.867188 C 64.1875 443.867188 67.964844 447.644531 67.964844 452.300781 "/>
<path style=" stroke:none;fill-rule:nonzero;fill:rgb(100%,84.3%,0%);fill-opacity:1;" d="M 323.1875 230.804688 C 323.1875 235.460938 319.410156 239.238281 314.753906 239.238281 C 310.097656 239.238281 306.324219 235.460938 306.324219 230.804688 C 306.324219 226.148438 310.097656 222.371094 314.753906 222.371094 C 319.410156 222.371094 323.1875 226.148438 323.1875 230.804688 "/>
<path style=" stroke:none;fill-rule:nonzero;fill:rgb(100%,84.3%,0%);fill-opacity:1;" d="M 67.964844 418.570312 C 67.964844 423.230469 64.1875 427.003906 59.53125 427.003906 C 54.875 427.003906 51.097656 423.230469 51.097656 418.570312 C 51.097656 413.914062 54.875 410.140625 59.53125 410.140625 C 64.1875 410.140625 67.964844 413.914062 67.964844 418.570312 "/>
<path style=" stroke:none;fill-rule:nonzero;fill:rgb(100%,84.3%,0%);fill-opacity:1;" d="M 460.902344 400.019531 C 460.902344 404.679688 457.125 408.453125 452.46875 408.453125 C 447.8125 408.453125 444.035156 404.679688 444.035156 400.019531 C 444.035156 395.363281 447.8125 391.589844 452.46875 391.589844 C 457.125 391.589844 460.902344 395.363281 460.902344 400.019531 "/>
<path style=" stroke:none;fill-rule:nonzero;fill:rgb(100%,84.3%,0%);fill-opacity:1;" d="M 234.917969 224.632812 C 234.917969 229.289062 231.144531 233.0625 226.488281 233.0625 C 221.828125 233.0625 218.054688 229.289062 218.054688 224.632812 C 218.054688 219.976562 221.828125 216.199219 226.488281 216.199219 C 231.144531 216.199219 234.917969 219.976562 234.917969 224.632812 "/>
<path style=" stroke:none;fill-rule:nonzero;fill:rgb(100%,84.3%,0%);fill-opacity:1;" d="M 396.816406 224.632812 C 396.816406 229.289062 393.042969 233.0625 388.386719 233.0625 C 383.726562 233.0625 379.953125 229.289062 379.953125 224.632812 C 379.953125 219.976562 383.726562 216.199219 388.386719 216.199219 C 393.042969 216.199219 396.816406 219.976562 396.816406 224.632812 "/>
<path style=" stroke:none;fill-rule:nonzero;fill:rgb(100%,84.3%,0%);fill-opacity:1;" d="M 214.683594 438.269531 C 214.683594 442.925781 210.90625 446.699219 206.25 446.699219 C 201.59375 446.699219 197.816406 442.925781 197.816406 438.269531 C 197.816406 433.609375 201.59375 429.835938 206.25 429.835938 C 210.90625 429.835938 214.683594 433.609375 214.683594 438.269531 "/>
<path style=" stroke:none;fill-rule:nonzero;fill:rgb(100%,84.3%,0%);fill-opacity:1;" d="M 93.257812 276.339844 C 93.257812 280.996094 89.484375 284.769531 84.828125 284.769531 C 80.171875 284.769531 76.394531 280.996094 76.394531 276.339844 C 76.394531 271.683594 80.171875 267.90625 84.828125 267.90625 C 89.484375 267.90625 93.257812 271.683594 93.257812 276.339844 "/>
<path style=" stroke:none;fill-rule:nonzero;fill:rgb(100%,84.3%,0%);fill-opacity:1;" d="M 76.394531 466.90625 C 76.394531 471.5625 72.621094 475.335938 67.964844 475.335938 C 63.304688 475.335938 59.53125 471.5625 59.53125 466.90625 C 59.53125 462.25 63.304688 458.472656 67.964844 458.472656 C 72.621094 458.472656 76.394531 462.25 76.394531 466.90625 "/>
<path style=" stroke:none;fill-rule:nonzero;fill:rgb(100%,84.3%,0%);fill-opacity:1;" d="M 91 308.984375 C 91 313.644531 87.226562 317.417969 82.566406 317.417969 C 77.910156 317.417969 74.136719 313.644531 74.136719 308.984375 C 74.136719 304.328125 77.910156 300.554688 82.566406 300.554688 C 87.226562 300.554688 91 304.328125 91 308.984375 "/>
<path style=" stroke:none;fill-rule:nonzero;fill:rgb(100%,84.3%,0%);fill-opacity:1;" d="M 67.964844 390.441406 C 67.964844 395.101562 64.1875 398.875 59.53125 398.875 C 54.875 398.875 51.097656 395.101562 51.097656 390.441406 C 51.097656 385.785156 54.875 382.011719 59.53125 382.011719 C 64.1875 382.011719 67.964844 385.785156 67.964844 390.441406 "/>
<path style=" stroke:none;fill-rule:nonzero;fill:rgb(100%,84.3%,0%);fill-opacity:1;" d="M 145.507812 340.457031 C 145.507812 345.113281 141.730469 348.886719 137.074219 348.886719 C 132.417969 348.886719 128.640625 345.113281 128.640625 340.457031 C 128.640625 335.800781 132.417969 332.023438 137.074219 332.023438 C 141.730469 332.023438 145.507812 335.800781 145.507812 340.457031 "/>
<path style=" stroke:none;fill-rule:nonzero;fill:rgb(100%,84.3%,0%);fill-opacity:1;" d="M 324.300781 452.871094 C 324.300781 457.53125 320.523438 461.304688 315.867188 461.304688 C 311.210938 461.304688 307.4375 457.53125 307.4375 452.871094 C 307.4375 448.214844 311.210938 444.441406 315.867188 444.441406 C 320.523438 444.441406 324.300781 448.214844 324.300781 452.871094 "/>
<path style=" stroke:none;fill-rule:nonzero;fill:rgb(100%,84.3%,0%);fill-opacity:1;" d="M 118.554688 261.734375 C 118.554688 266.390625 114.78125 270.167969 110.125 270.167969 C 105.46875 270.167969 101.691406 266.390625 101.691406 261.734375 C 101.691406 257.078125 105.46875 253.300781 110.125 253.300781 C 114.78125 253.300781 118.554688 257.078125 118.554688 261.734375 "/>
<path style=" stroke:none;fill-rule:nonzero;fill:rgb(100%,84.3%,0%);fill-opacity:1;" d="M 413.679688 224.632812 C 413.679688 229.289062 409.90625 233.0625 405.25 233.0625 C 400.59375 233.0625 396.816406 229.289062 396.816406 224.632812 C 396.816406 219.976562 400.59375 216.199219 405.25 216.199219 C 409.90625 216.199219 413.679688 219.976562 413.679688 224.632812 "/>
<path style=" stroke:none;fill-rule:nonzero;fill:rgb(100%,84.3%,0%);fill-opacity:1;" d="M 110.125 247.128906 C 110.125 251.785156 106.347656 255.5625 101.691406 255.5625 C 97.035156 255.5625 93.261719 251.785156 93.261719 247.128906 C 93.261719 242.472656 97.035156 238.695312 101.691406 238.695312 C 106.347656 238.695312 110.125 242.472656 110.125 247.128906 "/>
<path style=" stroke:none;fill-rule:nonzero;fill:rgb(100%,84.3%,0%);fill-opacity:1;" d="M 226.488281 239.238281 C 226.488281 243.894531 222.710938 247.667969 218.054688 247.667969 C 213.398438 247.667969 209.621094 243.894531 209.621094 239.238281 C 209.621094 234.578125 213.398438 230.804688 218.054688 230.804688 C 222.710938 230.804688 226.488281 234.578125 226.488281 239.238281 "/>
<path style=" stroke:none;fill-rule:nonzero;fill:rgb(100%,84.3%,0%);fill-opacity:1;" d="M 366.460938 450.613281 C 366.460938 455.269531 362.6875 459.046875 358.027344 459.046875 C 353.371094 459.046875 349.597656 455.269531 349.597656 450.613281 C 349.597656 445.957031 353.371094 442.183594 358.027344 442.183594 C 362.6875 442.183594 366.460938 445.957031 366.460938 450.613281 "/>
<path style=" stroke:none;fill-rule:nonzero;fill:rgb(100%,84.3%,0%);fill-opacity:1;" d="M 379.953125 224.632812 C 379.953125 229.289062 376.175781 233.0625 371.519531 233.0625 C 366.863281 233.0625 363.085938 229.289062 363.085938 224.632812 C 363.085938 219.976562 366.863281 216.199219 371.519531 216.199219 C 376.175781 216.199219 379.953125 219.976562 379.953125 224.632812 "/>
<path style=" stroke:none;fill-rule:nonzero;fill:rgb(100%,84.3%,0%);fill-opacity:1;" d="M 145.507812 323.589844 C 145.507812 328.246094 141.730469 332.023438 137.074219 332.023438 C 132.417969 332.023438 128.640625 328.246094 128.640625 323.589844 C 128.640625 318.933594 132.417969 315.160156 137.074219 315.160156 C 141.730469 315.160156 145.507812 318.933594 145.507812 323.589844 "/>
<path style=" stroke:none;fill-rule:nonzero;fill:rgb(100%,84.3%,0%);fill-opacity:1;" d="M 383.324219 467.476562 C 383.324219 472.136719 379.550781 475.910156 374.894531 475.910156 C 370.234375 475.910156 366.460938 472.136719 366.460938 467.476562 C 366.460938 462.820312 370.234375 459.046875 374.894531 459.046875 C 379.550781 459.046875 383.324219 462.820312 383.324219 467.476562 "/>
<path style=" stroke:none;fill-rule:nonzero;fill:rgb(100%,84.3%,0%);fill-opacity:1;" d="M 76.394531 346.628906 C 76.394531 351.285156 72.621094 355.058594 67.964844 355.058594 C 63.304688 355.058594 59.53125 351.285156 59.53125 346.628906 C 59.53125 341.972656 63.304688 338.195312 67.964844 338.195312 C 72.621094 338.195312 76.394531 341.972656 76.394531 346.628906 "/>
<path style=" stroke:none;fill-rule:nonzero;fill:rgb(100%,84.3%,0%);fill-opacity:1;" d="M 130.902344 332.023438 C 130.902344 336.679688 127.125 340.457031 122.46875 340.457031 C 117.8125 340.457031 114.035156 336.679688 114.035156 332.023438 C 114.035156 327.367188 117.8125 323.589844 122.46875 323.589844 C 127.125 323.589844 130.902344 327.367188 130.902344 332.023438 "/>
<path style=" stroke:none;fill-rule:nonzero;fill:rgb(100%,84.3%,0%);fill-opacity:1;" d="M 114.039062 332.023438 C 114.039062 336.679688 110.261719 340.457031 105.605469 340.457031 C 100.949219 340.457031 97.171875 336.679688 97.171875 332.023438 C 97.171875 327.367188 100.949219 323.589844 105.605469 323.589844 C 110.261719 323.589844 114.039062 327.367188 114.039062 332.023438 "/>
<path style=" stroke:none;fill-rule:nonzero;fill:rgb(100%,84.3%,0%);fill-opacity:1;" d="M 268.648438 224.632812 C 268.648438 229.289062 264.871094 233.0625 260.214844 233.0625 C 255.558594 233.0625 251.785156 229.289062 251.785156 224.632812 C 251.785156 219.976562 255.558594 216.199219 260.214844 216.199219 C 264.871094 216.199219 268.648438 219.976562 268.648438 224.632812 "/>
<path style=" stroke:none;fill-rule:nonzero;fill:rgb(100%,84.3%,0%);fill-opacity:1;" d="M 67.964844 224.632812 C 67.964844 229.289062 64.1875 233.0625 59.53125 233.0625 C 54.875 233.0625 51.097656 229.289062 51.097656 224.632812 C 51.097656 219.976562 54.875 216.199219 59.53125 216.199219 C 64.1875 216.199219 67.964844 219.976562 67.964844 224.632812 "/>
<path style=" stroke:none;fill-rule:nonzero;fill:rgb(100%,84.3%,0%);fill-opacity:1;" d="M 126.988281 276.339844 C 126.988281 280.996094 123.214844 284.769531 118.554688 284.769531 C 113.898438 284.769531 110.125 280.996094 110.125 276.339844 C 110.125 271.683594 113.898438 267.90625 118.554688 267.90625 C 123.214844 267.90625 126.988281 271.683594 126.988281 276.339844 "/>
<path style=" stroke:none;fill-rule:nonzero;fill:rgb(100%,84.3%,0%);fill-opacity:1;" d="M 226.488281 256.101562 C 226.488281 260.757812 222.710938 264.535156 218.054688 264.535156 C 213.398438 264.535156 209.621094 260.757812 209.621094 256.101562 C 209.621094 251.445312 213.398438 247.667969 218.054688 247.667969 C 222.710938 247.667969 226.488281 251.445312 226.488281 256.101562 "/>
<path style=" stroke:none;fill-rule:nonzero;fill:rgb(100%,84.3%,0%);fill-opacity:1;" d="M 82.566406 233.066406 C 82.566406 237.722656 78.792969 241.496094 74.136719 241.496094 C 69.480469 241.496094 65.703125 237.722656 65.703125 233.066406 C 65.703125 228.40625 69.480469 224.632812 74.136719 224.632812 C 78.792969 224.632812 82.566406 228.40625 82.566406 233.066406 "/>
<path style=" stroke:none;fill-rule:nonzero;fill:rgb(100%,84.3%,0%);fill-opacity:1;" d="M 460.902344 452.300781 C 460.902344 456.957031 457.125 460.730469 452.46875 460.730469 C 447.8125 460.730469 444.035156 456.957031 444.035156 452.300781 C 444.035156 447.644531 447.8125 443.867188 452.46875 443.867188 C 457.125 443.867188 460.902344 447.644531 460.902344 452.300781 "/>
<path style=" stroke:none;fill-rule:nonzero;fill:rgb(100%,84.3%,0%);fill-opacity:1;" d="M 290.570312 452.871094 C 290.570312 457.53125 286.796875 461.304688 282.140625 461.304688 C 277.484375 461.304688 273.707031 457.53125 273.707031 452.871094 C 273.707031 448.214844 277.484375 444.441406 282.140625 444.441406 C 286.796875 444.441406 290.570312 448.214844 290.570312 452.871094 "/>
<path style=" stroke:none;fill-rule:nonzero;fill:rgb(100%,84.3%,0%);fill-opacity:1;" d="M 122.46875 317.417969 C 122.46875 322.074219 118.695312 325.851562 114.035156 325.851562 C 109.378906 325.851562 105.605469 322.074219 105.605469 317.417969 C 105.605469 312.761719 109.378906 308.984375 114.035156 308.984375 C 118.695312 308.984375 122.46875 312.761719 122.46875 317.417969 "/>
<path style=" stroke:none;fill-rule:nonzero;fill:rgb(100%,84.3%,0%);fill-opacity:1;" d="M 366.460938 467.476562 C 366.460938 472.136719 362.6875 475.910156 358.027344 475.910156 C 353.371094 475.910156 349.597656 472.136719 349.597656 467.476562 C 349.597656 462.820312 353.371094 459.046875 358.027344 459.046875 C 362.6875 459.046875 366.460938 462.820312 366.460938 467.476562 "/>
<path style=" stroke:none;fill-rule:nonzero;fill:rgb(100%,84.3%,0%);fill-opacity:1;" d="M 314.753906 245.410156 C 314.753906 250.066406 310.980469 253.84375 306.324219 253.84375 C 301.667969 253.84375 297.890625 250.066406 297.890625 245.410156 C 297.890625 240.753906 301.667969 236.976562 306.324219 236.976562 C 310.980469 236.976562 314.753906 240.753906 314.753906 245.410156 "/>
<path style=" stroke:none;fill-rule:nonzero;fill:rgb(100%,84.3%,0%);fill-opacity:1;" d="M 67.964844 261.734375 C 67.964844 266.390625 64.1875 270.167969 59.53125 270.167969 C 54.875 270.167969 51.097656 266.390625 51.097656 261.734375 C 51.097656 257.078125 54.875 253.300781 59.53125 253.300781 C 64.1875 253.300781 67.964844 257.078125 67.964844 261.734375 "/>
<path style=" stroke:none;fill-rule:nonzero;fill:rgb(100%,84.3%,0%);fill-opacity:1;" d="M 84.828125 332.023438 C 84.828125 336.679688 81.050781 340.457031 76.394531 340.457031 C 71.738281 340.457031 67.960938 336.679688 67.960938 332.023438 C 67.960938 327.367188 71.738281 323.589844 76.394531 323.589844 C 81.050781 323.589844 84.828125 327.367188 84.828125 332.023438 "/>
<path style=" stroke:none;fill-rule:nonzero;fill:rgb(100%,84.3%,0%);fill-opacity:1;" d="M 332.730469 467.476562 C 332.730469 472.136719 328.957031 475.910156 324.300781 475.910156 C 319.644531 475.910156 315.867188 472.136719 315.867188 467.476562 C 315.867188 462.820312 319.644531 459.046875 324.300781 459.046875 C 328.957031 459.046875 332.730469 462.820312 332.730469 467.476562 "/>
<path style=" stroke:none;fill-rule:nonzero;fill:rgb(100%,84.3%,0%);fill-opacity:1;" d="M 460.902344 312.328125 C 460.902344 316.984375 457.125 320.757812 452.46875 320.757812 C 447.8125 320.757812 444.035156 316.984375 444.035156 312.328125 C 444.035156 307.671875 447.8125 303.894531 452.46875 303.894531 C 457.125 303.894531 460.902344 307.671875 460.902344 312.328125 "/>
<path style=" stroke:none;fill-rule:nonzero;fill:rgb(100%,84.3%,0%);fill-opacity:1;" d="M 114.039062 348.886719 C 114.039062 353.546875 110.261719 357.320312 105.605469 357.320312 C 100.949219 357.320312 97.171875 353.546875 97.171875 348.886719 C 97.171875 344.230469 100.949219 340.457031 105.605469 340.457031 C 110.261719 340.457031 114.039062 344.230469 114.039062 348.886719 "/>
<path style=" stroke:none;fill-rule:nonzero;fill:rgb(100%,84.3%,0%);fill-opacity:1;" d="M 128.640625 357.320312 C 128.640625 361.976562 124.867188 365.753906 120.210938 365.753906 C 115.554688 365.753906 111.777344 361.976562 111.777344 357.320312 C 111.777344 352.664062 115.554688 348.886719 120.210938 348.886719 C 124.867188 348.886719 128.640625 352.664062 128.640625 357.320312 "/>
<path style=" stroke:none;fill-rule:nonzero;fill:rgb(100%,84.3%,0%);fill-opacity:1;" d="M 299.003906 467.476562 C 299.003906 472.136719 295.230469 475.910156 290.570312 475.910156 C 285.914062 475.910156 282.140625 472.136719 282.140625 467.476562 C 282.140625 462.820312 285.914062 459.046875 290.570312 459.046875 C 295.230469 459.046875 299.003906 462.820312 299.003906 467.476562 "/>
<path style=" stroke:none;fill-rule:nonzero;fill:rgb(100%,84.3%,0%);fill-opacity:1;" d="M 407.507812 247.667969 C 407.507812 252.324219 403.734375 256.101562 399.074219 256.101562 C 394.417969 256.101562 390.644531 252.324219 390.644531 247.667969 C 390.644531 243.011719 394.417969 239.238281 399.074219 239.238281 C 403.734375 239.238281 407.507812 243.011719 407.507812 247.667969 "/>
<path style=" stroke:none;fill-rule:nonzero;fill:rgb(100%,84.3%,0%);fill-opacity:1;" d="M 315.867188 467.476562 C 315.867188 472.136719 312.09375 475.910156 307.4375 475.910156 C 302.777344 475.910156 299.003906 472.136719 299.003906 467.476562 C 299.003906 462.820312 302.777344 459.046875 307.4375 459.046875 C 312.09375 459.046875 315.867188 462.820312 315.867188 467.476562 "/>
<path style=" stroke:none;fill-rule:nonzero;fill:rgb(100%,84.3%,0%);fill-opacity:1;" d="M 99.433594 294.382812 C 99.433594 299.039062 95.65625 302.8125 91 302.8125 C 86.34375 302.8125 82.566406 299.039062 82.566406 294.382812 C 82.566406 289.722656 86.34375 285.949219 91 285.949219 C 95.65625 285.949219 99.433594 289.722656 99.433594 294.382812 "/>
<path style=" stroke:none;fill-rule:nonzero;fill:rgb(100%,84.3%,0%);fill-opacity:1;" d="M 218.054688 224.632812 C 218.054688 229.289062 214.28125 233.0625 209.621094 233.0625 C 204.964844 233.0625 201.191406 229.289062 201.191406 224.632812 C 201.191406 219.976562 204.964844 216.199219 209.621094 216.199219 C 214.28125 216.199219 218.054688 219.976562 218.054688 224.632812 "/>
<path style=" stroke:none;fill-rule:nonzero;fill:rgb(100%,84.3%,0%);fill-opacity:1;" d="M 153.9375 308.984375 C 153.9375 313.644531 150.164062 317.417969 145.507812 317.417969 C 140.851562 317.417969 137.074219 313.644531 137.074219 308.984375 C 137.074219 304.328125 140.851562 300.554688 145.507812 300.554688 C 150.164062 300.554688 153.9375 304.328125 153.9375 308.984375 "/>
<path style=" stroke:none;fill-rule:nonzero;fill:rgb(100%,84.3%,0%);fill-opacity:1;" d="M 363.089844 224.632812 C 363.089844 229.289062 359.3125 233.0625 354.65625 233.0625 C 350 233.0625 346.222656 229.289062 346.222656 224.632812 C 346.222656 219.976562 350 216.199219 354.65625 216.199219 C 359.3125 216.199219 363.089844 219.976562 363.089844 224.632812 "/>
<path style=" stroke:none;fill-rule:nonzero;fill:rgb(100%,84.3%,0%);fill-opacity:1;" d="M 349.597656 467.476562 C 349.597656 472.136719 345.820312 475.910156 341.164062 475.910156 C 336.507812 475.910156 332.734375 472.136719 332.734375 467.476562 C 332.734375 462.820312 336.507812 459.046875 341.164062 459.046875 C 345.820312 459.046875 349.597656 462.820312 349.597656 467.476562 "/>
<path style=" stroke:none;fill-rule:nonzero;fill:rgb(100%,84.3%,0%);fill-opacity:1;" d="M 282.140625 467.476562 C 282.140625 472.136719 278.363281 475.910156 273.707031 475.910156 C 269.050781 475.910156 265.277344 472.136719 265.277344 467.476562 C 265.277344 462.820312 269.050781 459.046875 273.707031 459.046875 C 278.363281 459.046875 282.140625 462.820312 282.140625 467.476562 "/>
<path style=" stroke:none;fill-rule:nonzero;fill:rgb(100%,84.3%,0%);fill-opacity:1;" d="M 118.554688 290.945312 C 118.554688 295.601562 114.78125 299.375 110.125 299.375 C 105.46875 299.375 101.691406 295.601562 101.691406 290.945312 C 101.691406 286.285156 105.46875 282.511719 110.125 282.511719 C 114.78125 282.511719 118.554688 286.285156 118.554688 290.945312 "/>
<path style=" stroke:none;fill-rule:nonzero;fill:rgb(100%,84.3%,0%);fill-opacity:1;" d="M 82.566406 294.382812 C 82.566406 299.039062 78.792969 302.8125 74.136719 302.8125 C 69.480469 302.8125 65.703125 299.039062 65.703125 294.382812 C 65.703125 289.722656 69.480469 285.949219 74.136719 285.949219 C 78.792969 285.949219 82.566406 289.722656 82.566406 294.382812 "/>
<path style=" stroke:none;fill-rule:nonzero;fill:rgb(100%,84.3%,0%);fill-opacity:1;" d="M 84.828125 261.734375 C 84.828125 266.390625 81.050781 270.167969 76.394531 270.167969 C 71.738281 270.167969 67.960938 266.390625 67.960938 261.734375 C 67.960938 257.078125 71.738281 253.300781 76.394531 253.300781 C 81.050781 253.300781 84.828125 257.078125 84.828125 261.734375 "/>
<path style=" stroke:none;fill-rule:nonzero;fill:rgb(100%,84.3%,0%);fill-opacity:1;" d="M 265.273438 467.476562 C 265.273438 472.136719 261.5 475.910156 256.84375 475.910156 C 252.1875 475.910156 248.410156 472.136719 248.410156 467.476562 C 248.410156 462.820312 252.1875 459.046875 256.84375 459.046875 C 261.5 459.046875 265.273438 462.820312 265.273438 467.476562 "/>
<path style=" stroke:none;fill-rule:nonzero;fill:rgb(100%,84.3%,0%);fill-opacity:1;" d="M 67.964844 361.234375 C 67.964844 365.890625 64.1875 369.664062 59.53125 369.664062 C 54.875 369.664062 51.097656 365.890625 51.097656 361.234375 C 51.097656 356.574219 54.875 352.800781 59.53125 352.800781 C 64.1875 352.800781 67.964844 356.574219 67.964844 361.234375 "/>
<path style=" stroke:none;fill-rule:nonzero;fill:rgb(100%,84.3%,0%);fill-opacity:1;" d="M 231.546875 438.269531 C 231.546875 442.925781 227.773438 446.699219 223.113281 446.699219 C 218.457031 446.699219 214.683594 442.925781 214.683594 438.269531 C 214.683594 433.609375 218.457031 429.835938 223.113281 429.835938 C 227.773438 429.835938 231.546875 433.609375 231.546875 438.269531 "/>
<path style=" stroke:none;fill-rule:nonzero;fill:rgb(100%,84.3%,0%);fill-opacity:1;" d="M 67.964844 302.8125 C 67.964844 307.472656 64.1875 311.246094 59.53125 311.246094 C 54.875 311.246094 51.097656 307.472656 51.097656 302.8125 C 51.097656 298.15625 54.875 294.382812 59.53125 294.382812 C 64.1875 294.382812 67.964844 298.15625 67.964844 302.8125 "/>
<path style=" stroke:none;fill-rule:nonzero;fill:rgb(100%,84.3%,0%);fill-opacity:1;" d="M 67.964844 332.023438 C 67.964844 336.679688 64.1875 340.457031 59.53125 340.457031 C 54.875 340.457031 51.097656 336.679688 51.097656 332.023438 C 51.097656 327.367188 54.875 323.589844 59.53125 323.589844 C 64.1875 323.589844 67.964844 327.367188 67.964844 332.023438 "/>
<path style=" stroke:none;fill-rule:nonzero;fill:rgb(100%,84.3%,0%);fill-opacity:1;" d="M 248.410156 467.476562 C 248.410156 472.136719 244.636719 475.910156 239.980469 475.910156 C 235.320312 475.910156 231.546875 472.136719 231.546875 467.476562 C 231.546875 462.820312 235.320312 459.046875 239.980469 459.046875 C 244.636719 459.046875 248.410156 462.820312 248.410156 467.476562 "/>
<path style=" stroke:none;fill-rule:nonzero;fill:rgb(100%,84.3%,0%);fill-opacity:1;" d="M 438.976562 239.238281 C 438.976562 243.894531 435.203125 247.667969 430.546875 247.667969 C 425.886719 247.667969 422.113281 243.894531 422.113281 239.238281 C 422.113281 234.578125 425.886719 230.804688 430.546875 230.804688 C 435.203125 230.804688 438.976562 234.578125 438.976562 239.238281 "/>
<path style=" stroke:none;fill-rule:nonzero;fill:rgb(100%,84.3%,0%);fill-opacity:1;" d="M 446.296875 443.867188 C 446.296875 448.523438 442.519531 452.300781 437.863281 452.300781 C 433.207031 452.300781 429.433594 448.523438 429.433594 443.867188 C 429.433594 439.210938 433.207031 435.4375 437.863281 435.4375 C 442.519531 435.4375 446.296875 439.210938 446.296875 443.867188 "/>
<path style=" stroke:none;fill-rule:nonzero;fill:rgb(100%,84.3%,0%);fill-opacity:1;" d="M 126.988281 247.128906 C 126.988281 251.785156 123.214844 255.5625 118.554688 255.5625 C 113.898438 255.5625 110.125 251.785156 110.125 247.128906 C 110.125 242.472656 113.898438 238.695312 118.554688 238.695312 C 123.214844 238.695312 126.988281 242.472656 126.988281 247.128906 "/>
<path style=" stroke:none;fill-rule:nonzero;fill:rgb(100%,84.3%,0%);fill-opacity:1;" d="M 444.039062 400.019531 C 444.039062 404.679688 440.261719 408.453125 435.605469 408.453125 C 430.949219 408.453125 427.171875 404.679688 427.171875 400.019531 C 427.171875 395.363281 430.949219 391.589844 435.605469 391.589844 C 440.261719 391.589844 444.039062 395.363281 444.039062 400.019531 "/>
<path style=" stroke:none;fill-rule:nonzero;fill:rgb(100%,84.3%,0%);fill-opacity:1;" d="M 99.433594 323.589844 C 99.433594 328.246094 95.65625 332.023438 91 332.023438 C 86.34375 332.023438 82.566406 328.246094 82.566406 323.589844 C 82.566406 318.933594 86.34375 315.160156 91 315.160156 C 95.65625 315.160156 99.433594 318.933594 99.433594 323.589844 "/>
<path style=" stroke:none;fill-rule:nonzero;fill:rgb(100%,84.3%,0%);fill-opacity:1;" d="M 118.554688 232.523438 C 118.554688 237.179688 114.78125 240.957031 110.125 240.957031 C 105.46875 240.957031 101.691406 237.179688 101.691406 232.523438 C 101.691406 227.867188 105.46875 224.09375 110.125 224.09375 C 114.78125 224.09375 118.554688 227.867188 118.554688 232.523438 "/>
<path style=" stroke:none;fill-rule:nonzero;fill:rgb(100%,84.3%,0%);fill-opacity:1;" d="M 101.691406 261.734375 C 101.691406 266.390625 97.917969 270.167969 93.261719 270.167969 C 88.601562 270.167969 84.828125 266.390625 84.828125 261.734375 C 84.828125 257.078125 88.601562 253.300781 93.261719 253.300781 C 97.917969 253.300781 101.691406 257.078125 101.691406 261.734375 "/>
<path style=" stroke:none;fill-rule:nonzero;fill:rgb(100%,84.3%,0%);fill-opacity:1;" d="M 135.421875 290.945312 C 135.421875 295.601562 131.644531 299.375 126.988281 299.375 C 122.332031 299.375 118.554688 295.601562 118.554688 290.945312 C 118.554688 286.285156 122.332031 282.511719 126.988281 282.511719 C 131.644531 282.511719 135.421875 286.285156 135.421875 290.945312 "/>
<path style=" stroke:none;fill-rule:nonzero;fill:rgb(100%,84.3%,0%);fill-opacity:1;" d="M 107.863281 308.984375 C 107.863281 313.644531 104.089844 317.417969 99.433594 317.417969 C 94.773438 317.417969 91 313.644531 91 308.984375 C 91 304.328125 94.773438 300.554688 99.433594 300.554688 C 104.089844 300.554688 107.863281 304.328125 107.863281 308.984375 "/>
<path style=" stroke:none;fill-rule:nonzero;fill:rgb(100%,84.3%,0%);fill-opacity:1;" d="M 231.546875 467.476562 C 231.546875 472.136719 227.773438 475.910156 223.113281 475.910156 C 218.457031 475.910156 214.683594 472.136719 214.683594 467.476562 C 214.683594 462.820312 218.457031 459.046875 223.113281 459.046875 C 227.773438 459.046875 231.546875 462.820312 231.546875 467.476562 "/>
<path style=" stroke:none;fill-rule:nonzero;fill:rgb(100%,84.3%,0%);fill-opacity:1;" d="M 400.191406 467.476562 C 400.191406 472.136719 396.414062 475.910156 391.757812 475.910156 C 387.101562 475.910156 383.324219 472.136719 383.324219 467.476562 C 383.324219 462.820312 387.101562 459.046875 391.757812 459.046875 C 396.414062 459.046875 400.191406 462.820312 400.191406 467.476562 "/>
<path style=" stroke:none;fill-rule:nonzero;fill:rgb(100%,84.3%,0%);fill-opacity:1;" d="M 422.113281 256.101562 C 422.113281 260.757812 418.339844 264.535156 413.679688 264.535156 C 409.023438 264.535156 405.25 260.757812 405.25 256.101562 C 405.25 251.445312 409.023438 247.667969 413.679688 247.667969 C 418.339844 247.667969 422.113281 251.445312 422.113281 256.101562 "/>
<path style=" stroke:none;fill-rule:nonzero;fill:rgb(100%,84.3%,0%);fill-opacity:1;" d="M 251.785156 224.632812 C 251.785156 229.289062 248.007812 233.0625 243.351562 233.0625 C 238.695312 233.0625 234.917969 229.289062 234.917969 224.632812 C 234.917969 219.976562 238.695312 216.199219 243.351562 216.199219 C 248.007812 216.199219 251.785156 219.976562 251.785156 224.632812 "/>
<path style=" stroke:none;fill-rule:nonzero;fill:rgb(100%,84.3%,0%);fill-opacity:1;" d="M 337.792969 239.238281 C 337.792969 243.894531 334.015625 247.667969 329.359375 247.667969 C 324.703125 247.667969 320.929688 243.894531 320.929688 239.238281 C 320.929688 234.578125 324.703125 230.804688 329.359375 230.804688 C 334.015625 230.804688 337.792969 234.578125 337.792969 239.238281 "/>
<path style=" stroke:none;fill-rule:nonzero;fill:rgb(100%,84.3%,0%);fill-opacity:1;" d="M 214.683594 467.476562 C 214.683594 472.136719 210.90625 475.910156 206.25 475.910156 C 201.59375 475.910156 197.816406 472.136719 197.816406 467.476562 C 197.816406 462.820312 201.59375 459.046875 206.25 459.046875 C 210.90625 459.046875 214.683594 462.820312 214.683594 467.476562 "/>
<path style=" stroke:none;fill-rule:nonzero;fill:rgb(100%,84.3%,0%);fill-opacity:1;" d="M 76.394531 317.417969 C 76.394531 322.074219 72.621094 325.851562 67.964844 325.851562 C 63.304688 325.851562 59.53125 322.074219 59.53125 317.417969 C 59.53125 312.761719 63.304688 308.984375 67.964844 308.984375 C 72.621094 308.984375 76.394531 312.761719 76.394531 317.417969 "/>
<path style=" stroke:none;fill-rule:nonzero;fill:rgb(100%,84.3%,0%);fill-opacity:1;" d="M 76.394531 375.839844 C 76.394531 380.496094 72.621094 384.269531 67.964844 384.269531 C 63.304688 384.269531 59.53125 380.496094 59.53125 375.839844 C 59.53125 371.179688 63.304688 367.40625 67.964844 367.40625 C 72.621094 367.40625 76.394531 371.179688 76.394531 375.839844 "/>
<path style=" stroke:none;fill-rule:nonzero;fill:rgb(100%,84.3%,0%);fill-opacity:1;" d="M 429.433594 443.867188 C 429.433594 448.523438 425.65625 452.300781 421 452.300781 C 416.34375 452.300781 412.566406 448.523438 412.566406 443.867188 C 412.566406 439.210938 416.34375 435.4375 421 435.4375 C 425.65625 435.4375 429.433594 439.210938 429.433594 443.867188 "/>
<path style=" stroke:none;fill-rule:nonzero;fill:rgb(100%,84.3%,0%);fill-opacity:1;" d="M 460.902344 329.191406 C 460.902344 333.847656 457.125 337.625 452.46875 337.625 C 447.8125 337.625 444.035156 333.847656 444.035156 329.191406 C 444.035156 324.535156 447.8125 320.757812 452.46875 320.757812 C 457.125 320.757812 460.902344 324.535156 460.902344 329.191406 "/>
<path style=" stroke:none;fill-rule:nonzero;fill:rgb(100%,84.3%,0%);fill-opacity:1;" d="M 82.566406 410.140625 C 82.566406 414.796875 78.792969 418.570312 74.136719 418.570312 C 69.480469 418.570312 65.703125 414.796875 65.703125 410.140625 C 65.703125 405.484375 69.480469 401.707031 74.136719 401.707031 C 78.792969 401.707031 82.566406 405.484375 82.566406 410.140625 "/>
<path style=" stroke:none;fill-rule:nonzero;fill:rgb(100%,84.3%,0%);fill-opacity:1;" d="M 67.964844 244.871094 C 67.964844 249.527344 64.1875 253.300781 59.53125 253.300781 C 54.875 253.300781 51.097656 249.527344 51.097656 244.871094 C 51.097656 240.214844 54.875 236.4375 59.53125 236.4375 C 64.1875 236.4375 67.964844 240.214844 67.964844 244.871094 "/>
<path style=" stroke:none;fill-rule:nonzero;fill:rgb(100%,84.3%,0%);fill-opacity:1;" d="M 299.003906 438.269531 C 299.003906 442.925781 295.230469 446.699219 290.570312 446.699219 C 285.914062 446.699219 282.140625 442.925781 282.140625 438.269531 C 282.140625 433.609375 285.914062 429.835938 290.570312 429.835938 C 295.230469 429.835938 299.003906 433.609375 299.003906 438.269531 "/>
<path style=" stroke:none;fill-rule:nonzero;fill:rgb(100%,84.3%,0%);fill-opacity:1;" d="M 354.65625 239.238281 C 354.65625 243.894531 350.882812 247.667969 346.222656 247.667969 C 341.566406 247.667969 337.792969 243.894531 337.792969 239.238281 C 337.792969 234.578125 341.566406 230.804688 346.222656 230.804688 C 350.882812 230.804688 354.65625 234.578125 354.65625 239.238281 "/>
<path style=" stroke:none;fill-rule:nonzero;fill:rgb(100%,84.3%,0%);fill-opacity:1;" d="M 197.816406 467.476562 C 197.816406 472.136719 194.042969 475.910156 189.386719 475.910156 C 184.730469 475.910156 180.953125 472.136719 180.953125 467.476562 C 180.953125 462.820312 184.730469 459.046875 189.386719 459.046875 C 194.042969 459.046875 197.816406 462.820312 197.816406 467.476562 "/>
<path style=" stroke:none;fill-rule:nonzero;fill:rgb(100%,84.3%,0%);fill-opacity:1;" d="M 93.257812 247.128906 C 93.257812 251.785156 89.484375 255.5625 84.828125 255.5625 C 80.171875 255.5625 76.394531 251.785156 76.394531 247.128906 C 76.394531 242.472656 80.171875 238.695312 84.828125 238.695312 C 89.484375 238.695312 93.257812 242.472656 93.257812 247.128906 "/>
<path style=" stroke:none;fill-rule:nonzero;fill:rgb(100%,84.3%,0%);fill-opacity:1;" d="M 243.351562 239.238281 C 243.351562 243.894531 239.578125 247.667969 234.921875 247.667969 C 230.261719 247.667969 226.488281 243.894531 226.488281 239.238281 C 226.488281 234.578125 230.261719 230.804688 234.921875 230.804688 C 239.578125 230.804688 243.351562 234.578125 243.351562 239.238281 "/>
<path style=" stroke:none;fill-rule:nonzero;fill:rgb(100%,84.3%,0%);fill-opacity:1;" d="M 338.90625 444.441406 C 338.90625 449.097656 335.128906 452.875 330.472656 452.875 C 325.816406 452.875 322.039062 449.097656 322.039062 444.441406 C 322.039062 439.785156 325.816406 436.007812 330.472656 436.007812 C 335.128906 436.007812 338.90625 439.785156 338.90625 444.441406 "/>
<path style=" stroke:none;fill-rule:nonzero;fill:rgb(100%,84.3%,0%);fill-opacity:1;" d="M 160.109375 348.886719 C 160.109375 353.546875 156.335938 357.320312 151.679688 357.320312 C 147.023438 357.320312 143.246094 353.546875 143.246094 348.886719 C 143.246094 344.230469 147.023438 340.457031 151.679688 340.457031 C 156.335938 340.457031 160.109375 344.230469 160.109375 348.886719 "/>
<path style=" stroke:none;fill-rule:nonzero;fill:rgb(100%,84.3%,0%);fill-opacity:1;" d="M 455.84375 239.238281 C 455.84375 243.894531 452.066406 247.667969 447.410156 247.667969 C 442.753906 247.667969 438.976562 243.894531 438.976562 239.238281 C 438.976562 234.578125 442.753906 230.804688 447.410156 230.804688 C 452.066406 230.804688 455.84375 234.578125 455.84375 239.238281 "/>
<path style=" stroke:none;fill-rule:nonzero;fill:rgb(100%,84.3%,0%);fill-opacity:1;" d="M 91 355.058594 C 91 359.71875 87.226562 363.492188 82.566406 363.492188 C 77.910156 363.492188 74.136719 359.71875 74.136719 355.058594 C 74.136719 350.402344 77.910156 346.628906 82.566406 346.628906 C 87.226562 346.628906 91 350.402344 91 355.058594 "/>
<path style=" stroke:none;fill-rule:nonzero;fill:rgb(100%,84.3%,0%);fill-opacity:1;" d="M 110.125 276.339844 C 110.125 280.996094 106.347656 284.769531 101.691406 284.769531 C 97.035156 284.769531 93.261719 280.996094 93.261719 276.339844 C 93.261719 271.683594 97.035156 267.90625 101.691406 267.90625 C 106.347656 267.90625 110.125 271.683594 110.125 276.339844 "/>
</g>
</svg>
