<?xml version="1.0" encoding="UTF-8"?>
<svg xmlns="http://www.w3.org/2000/svg" xmlns:xlink="http://www.w3.org/1999/xlink" width="512pt" height="512pt" viewBox="0 0 512 512" version="1.1">
<g id="surface71">
<path style=" stroke:none;fill-rule:nonzero;fill:rgb(26.7%,26.7%,26.7%);fill-opacity:1;" d="M 0 50.460938 L 512 50.460938 L 512 461.535156 L 0 461.535156 Z M 0 50.460938 "/>
<path style=" stroke:none;fill-rule:nonzero;fill:rgb(19.2%,38.8%,66.7%);fill-opacity:1;" d="M 42.667969 84.71875 L 469.332031 84.71875 L 469.332031 427.28125 L 42.667969 427.28125 Z M 42.667969 84.71875 "/>
<path style=" stroke:none;fill-rule:nonzero;fill:rgb(100%,100%,100%);fill-opacity:1;" d="M 63.179688 494.972656 C 63.179688 500.636719 58.585938 505.230469 52.921875 505.230469 C 47.257812 505.230469 42.667969 500.636719 42.667969 494.972656 C 42.667969 489.308594 47.257812 484.71875 52.921875 484.71875 C 58.585938 484.71875 63.179688 489.308594 63.179688 494.972656 "/>
<path style=" stroke:none;fill-rule:nonzero;fill:rgb(100%,100%,100%);fill-opacity:1;" d="M 379.078125 43.691406 C 379.078125 49.355469 374.484375 53.949219 368.820312 53.949219 C 363.15625 53.949219 358.566406 49.355469 358.566406 43.691406 C 358.566406 38.027344 363.15625 33.4375 368.820312 33.4375 C 374.484375 33.4375 379.078125 38.027344 379.078125 43.691406 "/>
<path style=" stroke:none;fill-rule:nonzero;fill:rgb(100%,100%,100%);fill-opacity:1;" d="M 274.460938 72.410156 C 274.460938 78.074219 269.871094 82.667969 264.203125 82.667969 C 258.539062 82.667969 253.949219 78.074219 253.949219 72.410156 C 253.949219 66.746094 258.539062 62.152344 264.203125 62.152344 C 269.871094 62.152344 274.460938 66.746094 274.460938 72.410156 "/>
<path style=" stroke:none;fill-rule:nonzero;fill:rgb(100%,100%,100%);fill-opacity:1;" d="M 28.308594 -1.4375 C 28.308594 4.226562 23.714844 8.820312 18.050781 8.820312 C 12.386719 8.820312 7.792969 4.226562 7.792969 -1.4375 C 7.792969 -7.101562 12.386719 -11.691406 18.050781 -11.691406 C 23.714844 -11.691406 28.308594 -7.101562 28.308594 -1.4375 "/>
<path style=" stroke:none;fill-rule:nonzero;fill:rgb(100%,100%,100%);fill-opacity:1;" d="M 237.539062 453.949219 C 237.539062 459.613281 232.945312 464.207031 227.28125 464.207031 C 221.617188 464.207031 217.027344 459.613281 217.027344 453.949219 C 217.027344 448.285156 221.617188 443.691406 227.28125 443.691406 C 232.945312 443.691406 237.539062 448.285156 237.539062 453.949219 "/>
<path style=" stroke:none;fill-rule:nonzero;fill:rgb(100%,100%,100%);fill-opacity:1;" d="M 44.71875 107.28125 C 44.71875 112.945312 40.125 117.539062 34.460938 117.539062 C 28.796875 117.539062 24.207031 112.945312 24.207031 107.28125 C 24.207031 101.617188 28.796875 97.027344 34.460938 97.027344 C 40.125 97.027344 44.71875 101.617188 44.71875 107.28125 "/>
<path style=" stroke:none;fill-rule:nonzero;fill:rgb(100%,100%,100%);fill-opacity:1;" d="M 212.921875 468.308594 C 212.921875 473.972656 208.332031 478.5625 202.667969 478.5625 C 197.003906 478.5625 192.410156 473.972656 192.410156 468.308594 C 192.410156 462.644531 197.003906 458.050781 202.667969 458.050781 C 208.332031 458.050781 212.921875 462.644531 212.921875 468.308594 "/>
<path style=" stroke:none;fill-rule:nonzero;fill:rgb(100%,100%,100%);fill-opacity:1;" d="M 450.871094 58.050781 C 450.871094 63.714844 446.28125 68.308594 440.613281 68.308594 C 434.949219 68.308594 430.359375 63.714844 430.359375 58.050781 C 430.359375 52.386719 434.949219 47.792969 440.613281 47.792969 C 446.28125 47.792969 450.871094 52.386719 450.871094 58.050781 "/>
<path style=" stroke:none;fill-rule:nonzero;fill:rgb(100%,100%,100%);fill-opacity:1;" d="M 512.410156 445.742188 C 512.410156 451.410156 507.820312 456 502.152344 456 C 496.488281 456 491.898438 451.410156 491.898438 445.742188 C 491.898438 440.078125 496.488281 435.488281 502.152344 435.488281 C 507.820312 435.488281 512.410156 440.078125 512.410156 445.742188 "/>
<path style=" stroke:none;fill-rule:nonzero;fill:rgb(100%,100%,100%);fill-opacity:1;" d="M 173.949219 47.796875 C 173.949219 53.460938 169.355469 58.050781 163.691406 58.050781 C 158.027344 58.050781 153.4375 53.460938 153.4375 47.796875 C 153.4375 42.128906 158.027344 37.539062 163.691406 37.539062 C 169.355469 37.539062 173.949219 42.128906 173.949219 47.796875 "/>
<path style=" stroke:none;fill-rule:nonzero;fill:rgb(100%,100%,100%);fill-opacity:1;" d="M 192.410156 474.460938 C 192.410156 480.125 187.820312 484.71875 182.152344 484.71875 C 176.488281 484.71875 171.898438 480.125 171.898438 474.460938 C 171.898438 468.796875 176.488281 464.207031 182.152344 464.207031 C 187.820312 464.207031 192.410156 468.796875 192.410156 474.460938 "/>
<path style=" stroke:none;fill-rule:nonzero;fill:rgb(100%,100%,100%);fill-opacity:1;" d="M 485.742188 222.152344 C 485.742188 227.820312 481.152344 232.410156 475.488281 232.410156 C 469.824219 232.410156 465.230469 227.820312 465.230469 222.152344 C 465.230469 216.488281 469.824219 211.898438 475.488281 211.898438 C 481.152344 211.898438 485.742188 216.488281 485.742188 222.152344 "/>
<path style=" stroke:none;fill-rule:nonzero;fill:rgb(100%,100%,100%);fill-opacity:1;" d="M 498.050781 -7.589844 C 498.050781 -1.925781 493.460938 2.667969 487.796875 2.667969 C 482.128906 2.667969 477.539062 -1.925781 477.539062 -7.589844 C 477.539062 -13.253906 482.128906 -17.847656 487.796875 -17.847656 C 493.460938 -17.847656 498.050781 -13.253906 498.050781 -7.589844 "/>
<path style=" stroke:none;fill-rule:nonzero;fill:rgb(100%,100%,100%);fill-opacity:1;" d="M 3.691406 511.386719 C 3.691406 517.050781 -0.898438 521.640625 -6.5625 521.640625 C -12.226562 521.640625 -16.820312 517.050781 -16.820312 511.386719 C -16.820312 505.71875 -12.226562 501.128906 -6.5625 501.128906 C -0.898438 501.128906 3.691406 505.71875 3.691406 511.386719 "/>
<path style=" stroke:none;fill-rule:nonzero;fill:rgb(100%,100%,100%);fill-opacity:1;" d="M 188.308594 64.203125 C 188.308594 69.871094 183.714844 74.460938 178.050781 74.460938 C 172.386719 74.460938 167.792969 69.871094 167.792969 64.203125 C 167.792969 58.539062 172.386719 53.949219 178.050781 53.949219 C 183.714844 53.949219 188.308594 58.539062 188.308594 64.203125 "/>
<path style=" stroke:none;fill-rule:nonzero;fill:rgb(100%,100%,100%);fill-opacity:1;" d="M 510.359375 423.179688 C 510.359375 428.84375 505.765625 433.433594 500.101562 433.433594 C 494.4375 433.433594 489.847656 428.84375 489.847656 423.179688 C 489.847656 417.515625 494.4375 412.921875 500.101562 412.921875 C 505.765625 412.921875 510.359375 417.515625 510.359375 423.179688 "/>
<path style=" stroke:none;fill-rule:nonzero;fill:rgb(100%,100%,100%);fill-opacity:1;" d="M 303.179688 39.589844 C 303.179688 45.253906 298.585938 49.847656 292.921875 49.847656 C 287.257812 49.847656 282.667969 45.253906 282.667969 39.589844 C 282.667969 33.925781 287.257812 29.332031 292.921875 29.332031 C 298.585938 29.332031 303.179688 33.925781 303.179688 39.589844 "/>
<path style=" stroke:none;fill-rule:nonzero;fill:rgb(100%,100%,100%);fill-opacity:1;" d="M 307.28125 458.050781 C 307.28125 463.714844 302.691406 468.308594 297.027344 468.308594 C 291.363281 468.308594 286.769531 463.714844 286.769531 458.050781 C 286.769531 452.386719 291.363281 447.792969 297.027344 447.792969 C 302.691406 447.792969 307.28125 452.386719 307.28125 458.050781 "/>
<path style=" stroke:none;fill-rule:nonzero;fill:rgb(100%,100%,100%);fill-opacity:1;" d="M 438.5625 25.230469 C 438.5625 30.894531 433.972656 35.488281 428.308594 35.488281 C 422.644531 35.488281 418.050781 30.894531 418.050781 25.230469 C 418.050781 19.566406 422.644531 14.972656 428.308594 14.972656 C 433.972656 14.972656 438.5625 19.566406 438.5625 25.230469 "/>
<path style=" stroke:none;fill-rule:nonzero;fill:rgb(100%,100%,100%);fill-opacity:1;" d="M 100.101562 58.050781 C 100.101562 63.714844 95.511719 68.308594 89.847656 68.308594 C 84.179688 68.308594 79.589844 63.714844 79.589844 58.050781 C 79.589844 52.386719 84.179688 47.792969 89.847656 47.792969 C 95.511719 47.792969 100.101562 52.386719 100.101562 58.050781 "/>
<path style=" stroke:none;fill-rule:nonzero;fill:rgb(100%,100%,100%);fill-opacity:1;" d="M 30.359375 505.230469 C 30.359375 510.894531 25.765625 515.488281 20.101562 515.488281 C 14.4375 515.488281 9.847656 510.894531 9.847656 505.230469 C 9.847656 499.566406 14.4375 494.972656 20.101562 494.972656 C 25.765625 494.972656 30.359375 499.566406 30.359375 505.230469 "/>
<path style=" stroke:none;fill-rule:nonzero;fill:rgb(100%,100%,100%);fill-opacity:1;" d="M 221.128906 64.203125 C 221.128906 69.871094 216.535156 74.460938 210.871094 74.460938 C 205.207031 74.460938 200.617188 69.871094 200.617188 64.203125 C 200.617188 58.539062 205.207031 53.949219 210.871094 53.949219 C 216.535156 53.949219 221.128906 58.539062 221.128906 64.203125 "/>
<path style=" stroke:none;fill-rule:nonzero;fill:rgb(100%,100%,100%);fill-opacity:1;" d="M 508.308594 521.640625 C 508.308594 527.304688 503.714844 531.898438 498.050781 531.898438 C 492.386719 531.898438 487.792969 527.304688 487.792969 521.640625 C 487.792969 515.976562 492.386719 511.382812 498.050781 511.382812 C 503.714844 511.382812 508.308594 515.976562 508.308594 521.640625 "/>
<path style=" stroke:none;fill-rule:nonzero;fill:rgb(100%,100%,100%);fill-opacity:1;" d="M 407.792969 451.898438 C 407.792969 457.5625 403.203125 462.152344 397.539062 462.152344 C 391.875 462.152344 387.28125 457.5625 387.28125 451.898438 C 387.28125 446.234375 391.875 441.640625 397.539062 441.640625 C 403.203125 441.640625 407.792969 446.234375 407.792969 451.898438 "/>
<path style=" stroke:none;fill-rule:nonzero;fill:rgb(100%,100%,100%);fill-opacity:1;" d="M 526.769531 515.488281 C 526.769531 521.152344 522.175781 525.742188 516.511719 525.742188 C 510.847656 525.742188 506.257812 521.152344 506.257812 515.488281 C 506.257812 509.824219 510.847656 505.230469 516.511719 505.230469 C 522.175781 505.230469 526.769531 509.824219 526.769531 515.488281 "/>
<path style=" stroke:none;fill-rule:nonzero;fill:rgb(100%,100%,100%);fill-opacity:1;" d="M 18.050781 248.820312 C 18.050781 254.484375 13.460938 259.078125 7.796875 259.078125 C 2.128906 259.078125 -2.460938 254.484375 -2.460938 248.820312 C -2.460938 243.15625 2.128906 238.566406 7.796875 238.566406 C 13.460938 238.566406 18.050781 243.15625 18.050781 248.820312 "/>
<path style=" stroke:none;fill-rule:nonzero;fill:rgb(100%,100%,100%);fill-opacity:1;" d="M 46.769531 371.898438 C 46.769531 377.5625 42.175781 382.152344 36.511719 382.152344 C 30.847656 382.152344 26.257812 377.5625 26.257812 371.898438 C 26.257812 366.234375 30.847656 361.640625 36.511719 361.640625 C 42.175781 361.640625 46.769531 366.234375 46.769531 371.898438 "/>
<path style=" stroke:none;fill-rule:nonzero;fill:rgb(100%,100%,100%);fill-opacity:1;" d="M 498.050781 492.921875 C 498.050781 498.585938 493.460938 503.179688 487.796875 503.179688 C 482.128906 503.179688 477.539062 498.585938 477.539062 492.921875 C 477.539062 487.257812 482.128906 482.667969 487.796875 482.667969 C 493.460938 482.667969 498.050781 487.257812 498.050781 492.921875 "/>
<path style=" stroke:none;fill-rule:nonzero;fill:rgb(100%,100%,100%);fill-opacity:1;" d="M 301.128906 429.332031 C 301.128906 434.996094 296.535156 439.589844 290.871094 439.589844 C 285.207031 439.589844 280.617188 434.996094 280.617188 429.332031 C 280.617188 423.667969 285.207031 419.078125 290.871094 419.078125 C 296.535156 419.078125 301.128906 423.667969 301.128906 429.332031 "/>
<path style=" stroke:none;fill-rule:nonzero;fill:rgb(100%,100%,100%);fill-opacity:1;" d="M 485.742188 304.203125 C 485.742188 309.871094 481.152344 314.460938 475.488281 314.460938 C 469.824219 314.460938 465.230469 309.871094 465.230469 304.203125 C 465.230469 298.539062 469.824219 293.949219 475.488281 293.949219 C 481.152344 293.949219 485.742188 298.539062 485.742188 304.203125 "/>
<path style=" stroke:none;fill-rule:nonzero;fill:rgb(100%,100%,100%);fill-opacity:1;" d="M 516.511719 78.5625 C 516.511719 84.226562 511.921875 88.820312 506.257812 88.820312 C 500.589844 88.820312 496 84.226562 496 78.5625 C 496 72.898438 500.589844 68.308594 506.257812 68.308594 C 511.921875 68.308594 516.511719 72.898438 516.511719 78.5625 "/>
<path style=" stroke:none;fill-rule:nonzero;fill:rgb(100%,100%,100%);fill-opacity:1;" d="M 151.382812 497.027344 C 151.382812 502.691406 146.792969 507.28125 141.128906 507.28125 C 135.464844 507.28125 130.871094 502.691406 130.871094 497.027344 C 130.871094 491.363281 135.464844 486.769531 141.128906 486.769531 C 146.792969 486.769531 151.382812 491.363281 151.382812 497.027344 "/>
<path style=" stroke:none;fill-rule:nonzero;fill:rgb(100%,100%,100%);fill-opacity:1;" d="M 188.308594 -5.539062 C 188.308594 0.125 183.714844 4.71875 178.050781 4.71875 C 172.386719 4.71875 167.792969 0.125 167.792969 -5.539062 C 167.792969 -11.203125 172.386719 -15.792969 178.050781 -15.792969 C 183.714844 -15.792969 188.308594 -11.203125 188.308594 -5.539062 "/>
<path style=" stroke:none;fill-rule:nonzero;fill:rgb(100%,100%,100%);fill-opacity:1;" d="M 450.871094 478.5625 C 450.871094 484.226562 446.28125 488.820312 440.613281 488.820312 C 434.949219 488.820312 430.359375 484.226562 430.359375 478.5625 C 430.359375 472.898438 434.949219 468.308594 440.613281 468.308594 C 446.28125 468.308594 450.871094 472.898438 450.871094 478.5625 "/>
<path style=" stroke:none;fill-rule:nonzero;fill:rgb(100%,100%,100%);fill-opacity:1;" d="M 260.101562 23.179688 C 260.101562 28.84375 255.511719 33.433594 249.847656 33.433594 C 244.179688 33.433594 239.589844 28.84375 239.589844 23.179688 C 239.589844 17.515625 244.179688 12.921875 249.847656 12.921875 C 255.511719 12.921875 260.101562 17.515625 260.101562 23.179688 "/>
<path style=" stroke:none;fill-rule:nonzero;fill:rgb(100%,100%,100%);fill-opacity:1;" d="M 54.972656 19.078125 C 54.972656 24.742188 50.382812 29.332031 44.71875 29.332031 C 39.054688 29.332031 34.460938 24.742188 34.460938 19.078125 C 34.460938 13.414062 39.054688 8.820312 44.71875 8.820312 C 50.382812 8.820312 54.972656 13.414062 54.972656 19.078125 "/>
<path style=" stroke:none;fill-rule:nonzero;fill:rgb(100%,100%,100%);fill-opacity:1;" d="M 465.230469 443.691406 C 465.230469 449.355469 460.636719 453.949219 454.972656 453.949219 C 449.308594 453.949219 444.71875 449.355469 444.71875 443.691406 C 444.71875 438.027344 449.308594 433.4375 454.972656 433.4375 C 460.636719 433.4375 465.230469 438.027344 465.230469 443.691406 "/>
<path style=" stroke:none;fill-rule:nonzero;fill:rgb(100%,100%,100%);fill-opacity:1;" d="M 83.691406 68.308594 C 83.691406 73.972656 79.101562 78.5625 73.4375 78.5625 C 67.773438 78.5625 63.179688 73.972656 63.179688 68.308594 C 63.179688 62.644531 67.773438 58.050781 73.4375 58.050781 C 79.101562 58.050781 83.691406 62.644531 83.691406 68.308594 "/>
<path style=" stroke:none;fill-rule:nonzero;fill:rgb(100%,84.3%,0%);fill-opacity:1;" d="M 431.054688 229.660156 C 431.054688 235.328125 426.464844 239.917969 420.800781 239.917969 C 415.132812 239.917969 410.542969 235.328125 410.542969 229.660156 C 410.542969 223.996094 415.132812 219.40625 420.800781 219.40625 C 426.464844 219.40625 431.054688 223.996094 431.054688 229.660156 "/>
<path style=" stroke:none;fill-rule:nonzero;fill:rgb(100%,84.3%,0%);fill-opacity:1;" d="M 73.433594 105.230469 C 73.433594 110.894531 68.84375 115.488281 63.179688 115.488281 C 57.515625 115.488281 52.921875 110.894531 52.921875 105.230469 C 52.921875 99.566406 57.515625 94.972656 63.179688 94.972656 C 68.84375 94.972656 73.433594 99.566406 73.433594 105.230469 "/>
<path style=" stroke:none;fill-rule:nonzero;fill:rgb(100%,84.3%,0%);fill-opacity:1;" d="M 91.199219 320.613281 C 91.199219 326.28125 86.609375 330.871094 80.945312 330.871094 C 75.28125 330.871094 70.6875 326.28125 70.6875 320.613281 C 70.6875 314.949219 75.28125 310.359375 80.945312 310.359375 C 86.609375 310.359375 91.199219 314.949219 91.199219 320.613281 "/>
<path style=" stroke:none;fill-rule:nonzero;fill:rgb(100%,84.3%,0%);fill-opacity:1;" d="M 286.769531 406.769531 C 286.769531 412.433594 282.175781 417.027344 276.511719 417.027344 C 270.847656 417.027344 266.257812 412.433594 266.257812 406.769531 C 266.257812 401.105469 270.847656 396.511719 276.511719 396.511719 C 282.175781 396.511719 286.769531 401.105469 286.769531 406.769531 "/>
<path style=" stroke:none;fill-rule:nonzero;fill:rgb(100%,84.3%,0%);fill-opacity:1;" d="M 73.433594 371.898438 C 73.433594 377.5625 68.84375 382.152344 63.179688 382.152344 C 57.515625 382.152344 52.921875 377.5625 52.921875 371.898438 C 52.921875 366.234375 57.515625 361.640625 63.179688 361.640625 C 68.84375 361.640625 73.433594 366.234375 73.433594 371.898438 "/>
<path style=" stroke:none;fill-rule:nonzero;fill:rgb(100%,84.3%,0%);fill-opacity:1;" d="M 407.792969 406.769531 C 407.792969 412.433594 403.203125 417.027344 397.539062 417.027344 C 391.875 417.027344 387.28125 412.433594 387.28125 406.769531 C 387.28125 401.105469 391.875 396.511719 397.539062 396.511719 C 403.203125 396.511719 407.792969 401.105469 407.792969 406.769531 "/>
<path style=" stroke:none;fill-rule:nonzero;fill:rgb(100%,84.3%,0%);fill-opacity:1;" d="M 276.511719 389.003906 C 276.511719 394.667969 271.921875 399.261719 266.257812 399.261719 C 260.589844 399.261719 256 394.667969 256 389.003906 C 256 383.339844 260.589844 378.75 266.257812 378.75 C 271.921875 378.75 276.511719 383.339844 276.511719 389.003906 "/>
<path style=" stroke:none;fill-rule:nonzero;fill:rgb(100%,84.3%,0%);fill-opacity:1;" d="M 91.199219 382.152344 C 91.199219 387.820312 86.609375 392.410156 80.945312 392.410156 C 75.28125 392.410156 70.6875 387.820312 70.6875 382.152344 C 70.6875 376.488281 75.28125 371.898438 80.945312 371.898438 C 86.609375 371.898438 91.199219 376.488281 91.199219 382.152344 "/>
<path style=" stroke:none;fill-rule:nonzero;fill:rgb(100%,84.3%,0%);fill-opacity:1;" d="M 459.078125 304.203125 C 459.078125 309.871094 454.484375 314.460938 448.820312 314.460938 C 443.15625 314.460938 438.566406 309.871094 438.566406 304.203125 C 438.566406 298.539062 443.15625 293.949219 448.820312 293.949219 C 454.484375 293.949219 459.078125 298.539062 459.078125 304.203125 "/>
<path style=" stroke:none;fill-rule:nonzero;fill:rgb(100%,84.3%,0%);fill-opacity:1;" d="M 73.433594 125.742188 C 73.433594 131.410156 68.84375 136 63.179688 136 C 57.515625 136 52.921875 131.410156 52.921875 125.742188 C 52.921875 120.078125 57.515625 115.488281 63.179688 115.488281 C 68.84375 115.488281 73.433594 120.078125 73.433594 125.742188 "/>
<path style=" stroke:none;fill-rule:nonzero;fill:rgb(100%,84.3%,0%);fill-opacity:1;" d="M 73.433594 392.410156 C 73.433594 398.074219 68.84375 402.667969 63.179688 402.667969 C 57.515625 402.667969 52.921875 398.074219 52.921875 392.410156 C 52.921875 386.746094 57.515625 382.152344 63.179688 382.152344 C 68.84375 382.152344 73.433594 386.746094 73.433594 392.410156 "/>
<path style=" stroke:none;fill-rule:nonzero;fill:rgb(100%,84.3%,0%);fill-opacity:1;" d="M 196.511719 105.230469 C 196.511719 110.894531 191.921875 115.488281 186.257812 115.488281 C 180.589844 115.488281 176 110.894531 176 105.230469 C 176 99.566406 180.589844 94.972656 186.257812 94.972656 C 191.921875 94.972656 196.511719 99.566406 196.511719 105.230469 "/>
<path style=" stroke:none;fill-rule:nonzero;fill:rgb(100%,84.3%,0%);fill-opacity:1;" d="M 441.3125 211.898438 C 441.3125 217.5625 436.71875 222.152344 431.054688 222.152344 C 425.390625 222.152344 420.800781 217.5625 420.800781 211.898438 C 420.800781 206.234375 425.390625 201.640625 431.054688 201.640625 C 436.71875 201.640625 441.3125 206.234375 441.3125 211.898438 "/>
<path style=" stroke:none;fill-rule:nonzero;fill:rgb(100%,84.3%,0%);fill-opacity:1;" d="M 348.308594 406.769531 C 348.308594 412.433594 343.714844 417.027344 338.050781 417.027344 C 332.386719 417.027344 327.792969 412.433594 327.792969 406.769531 C 327.792969 401.105469 332.386719 396.511719 338.050781 396.511719 C 343.714844 396.511719 348.308594 401.105469 348.308594 406.769531 "/>
<path style=" stroke:none;fill-rule:nonzero;fill:rgb(100%,84.3%,0%);fill-opacity:1;" d="M 307.28125 386.257812 C 307.28125 391.921875 302.691406 396.511719 297.027344 396.511719 C 291.363281 396.511719 286.769531 391.921875 286.769531 386.257812 C 286.769531 380.589844 291.363281 376 297.027344 376 C 302.691406 376 307.28125 380.589844 307.28125 386.257812 "/>
<path style=" stroke:none;fill-rule:nonzero;fill:rgb(100%,84.3%,0%);fill-opacity:1;" d="M 73.433594 310.359375 C 73.433594 316.023438 68.84375 320.617188 63.179688 320.617188 C 57.515625 320.617188 52.921875 316.023438 52.921875 310.359375 C 52.921875 304.695312 57.515625 300.101562 63.179688 300.101562 C 68.84375 300.101562 73.433594 304.695312 73.433594 310.359375 "/>
<path style=" stroke:none;fill-rule:nonzero;fill:rgb(100%,84.3%,0%);fill-opacity:1;" d="M 266.257812 406.769531 C 266.257812 412.433594 261.664062 417.027344 256 417.027344 C 250.335938 417.027344 245.742188 412.433594 245.742188 406.769531 C 245.742188 401.105469 250.335938 396.511719 256 396.511719 C 261.664062 396.511719 266.257812 401.105469 266.257812 406.769531 "/>
<path style=" stroke:none;fill-rule:nonzero;fill:rgb(100%,84.3%,0%);fill-opacity:1;" d="M 111.714844 341.128906 C 111.714844 346.792969 107.121094 351.382812 101.457031 351.382812 C 95.792969 351.382812 91.199219 346.792969 91.199219 341.128906 C 91.199219 335.464844 95.792969 330.871094 101.457031 330.871094 C 107.121094 330.871094 111.714844 335.464844 111.714844 341.128906 "/>
<path style=" stroke:none;fill-rule:nonzero;fill:rgb(100%,84.3%,0%);fill-opacity:1;" d="M 176 105.230469 C 176 110.894531 171.410156 115.488281 165.742188 115.488281 C 160.078125 115.488281 155.488281 110.894531 155.488281 105.230469 C 155.488281 99.566406 160.078125 94.972656 165.742188 94.972656 C 171.410156 94.972656 176 99.566406 176 105.230469 "/>
<path style=" stroke:none;fill-rule:nonzero;fill:rgb(100%,84.3%,0%);fill-opacity:1;" d="M 101.457031 399.917969 C 101.457031 405.582031 96.867188 410.175781 91.199219 410.175781 C 85.535156 410.175781 80.945312 405.582031 80.945312 399.917969 C 80.945312 394.253906 85.535156 389.660156 91.199219 389.660156 C 96.867188 389.660156 101.457031 394.253906 101.457031 399.917969 "/>
<path style=" stroke:none;fill-rule:nonzero;fill:rgb(100%,84.3%,0%);fill-opacity:1;" d="M 459.078125 363.691406 C 459.078125 369.355469 454.484375 373.949219 448.820312 373.949219 C 443.15625 373.949219 438.566406 369.355469 438.566406 363.691406 C 438.566406 358.027344 443.15625 353.4375 448.820312 353.4375 C 454.484375 353.4375 459.078125 358.027344 459.078125 363.691406 "/>
<path style=" stroke:none;fill-rule:nonzero;fill:rgb(100%,84.3%,0%);fill-opacity:1;" d="M 459.078125 201.640625 C 459.078125 207.304688 454.484375 211.898438 448.820312 211.898438 C 443.15625 211.898438 438.566406 207.304688 438.566406 201.640625 C 438.566406 195.976562 443.15625 191.382812 448.820312 191.382812 C 454.484375 191.382812 459.078125 195.976562 459.078125 201.640625 "/>
<path style=" stroke:none;fill-rule:nonzero;fill:rgb(100%,84.3%,0%);fill-opacity:1;" d="M 93.949219 105.230469 C 93.949219 110.894531 89.355469 115.488281 83.691406 115.488281 C 78.027344 115.488281 73.4375 110.894531 73.4375 105.230469 C 73.4375 99.566406 78.027344 94.972656 83.691406 94.972656 C 89.355469 94.972656 93.949219 99.566406 93.949219 105.230469 "/>
<path style=" stroke:none;fill-rule:nonzero;fill:rgb(100%,84.3%,0%);fill-opacity:1;" d="M 73.433594 146.257812 C 73.433594 151.921875 68.84375 156.511719 63.179688 156.511719 C 57.515625 156.511719 52.921875 151.921875 52.921875 146.257812 C 52.921875 140.589844 57.515625 136 63.179688 136 C 68.84375 136 73.433594 140.589844 73.433594 146.257812 "/>
<path style=" stroke:none;fill-rule:nonzero;fill:rgb(100%,84.3%,0%);fill-opacity:1;" d="M 459.078125 283.691406 C 459.078125 289.355469 454.484375 293.949219 448.820312 293.949219 C 443.15625 293.949219 438.566406 289.355469 438.566406 283.691406 C 438.566406 278.027344 443.15625 273.4375 448.820312 273.4375 C 454.484375 273.4375 459.078125 278.027344 459.078125 283.691406 "/>
<path style=" stroke:none;fill-rule:nonzero;fill:rgb(100%,84.3%,0%);fill-opacity:1;" d="M 73.433594 172.921875 C 73.433594 178.585938 68.84375 183.179688 63.179688 183.179688 C 57.515625 183.179688 52.921875 178.585938 52.921875 172.921875 C 52.921875 167.257812 57.515625 162.667969 63.179688 162.667969 C 68.84375 162.667969 73.433594 167.257812 73.433594 172.921875 "/>
<path style=" stroke:none;fill-rule:nonzero;fill:rgb(100%,84.3%,0%);fill-opacity:1;" d="M 73.433594 351.386719 C 73.433594 357.050781 68.84375 361.640625 63.179688 361.640625 C 57.515625 361.640625 52.921875 357.050781 52.921875 351.386719 C 52.921875 345.71875 57.515625 341.128906 63.179688 341.128906 C 68.84375 341.128906 73.433594 345.71875 73.433594 351.386719 "/>
<path style=" stroke:none;fill-rule:nonzero;fill:rgb(100%,84.3%,0%);fill-opacity:1;" d="M 121.96875 358.894531 C 121.96875 364.558594 117.378906 369.148438 111.714844 369.148438 C 106.046875 369.148438 101.457031 364.558594 101.457031 358.894531 C 101.457031 353.230469 106.046875 348.636719 111.714844 348.636719 C 117.378906 348.636719 121.96875 353.230469 121.96875 358.894531 "/>
<path style=" stroke:none;fill-rule:nonzero;fill:rgb(100%,84.3%,0%);fill-opacity:1;" d="M 459.078125 222.152344 C 459.078125 227.820312 454.484375 232.410156 448.820312 232.410156 C 443.15625 232.410156 438.566406 227.820312 438.566406 222.152344 C 438.566406 216.488281 443.15625 211.898438 448.820312 211.898438 C 454.484375 211.898438 459.078125 216.488281 459.078125 222.152344 "/>
<path style=" stroke:none;fill-rule:nonzero;fill:rgb(100%,84.3%,0%);fill-opacity:1;" d="M 225.230469 406.769531 C 225.230469 412.433594 220.636719 417.027344 214.972656 417.027344 C 209.308594 417.027344 204.71875 412.433594 204.71875 406.769531 C 204.71875 401.105469 209.308594 396.511719 214.972656 396.511719 C 220.636719 396.511719 225.230469 401.105469 225.230469 406.769531 "/>
<path style=" stroke:none;fill-rule:nonzero;fill:rgb(100%,84.3%,0%);fill-opacity:1;" d="M 327.792969 406.769531 C 327.792969 412.433594 323.203125 417.027344 317.539062 417.027344 C 311.875 417.027344 307.28125 412.433594 307.28125 406.769531 C 307.28125 401.105469 311.875 396.511719 317.539062 396.511719 C 323.203125 396.511719 327.792969 401.105469 327.792969 406.769531 "/>
<path style=" stroke:none;fill-rule:nonzero;fill:rgb(100%,84.3%,0%);fill-opacity:1;" d="M 297.027344 368.492188 C 297.027344 374.15625 292.433594 378.75 286.769531 378.75 C 281.105469 378.75 276.511719 374.15625 276.511719 368.492188 C 276.511719 362.828125 281.105469 358.234375 286.769531 358.234375 C 292.433594 358.234375 297.027344 362.828125 297.027344 368.492188 "/>
<path style=" stroke:none;fill-rule:nonzero;fill:rgb(100%,84.3%,0%);fill-opacity:1;" d="M 256 389.003906 C 256 394.667969 251.410156 399.261719 245.742188 399.261719 C 240.078125 399.261719 235.488281 394.667969 235.488281 389.003906 C 235.488281 383.339844 240.078125 378.75 245.742188 378.75 C 251.410156 378.75 256 383.339844 256 389.003906 "/>
<path style=" stroke:none;fill-rule:nonzero;fill:rgb(100%,84.3%,0%);fill-opacity:1;" d="M 91.199219 341.128906 C 91.199219 346.792969 86.609375 351.382812 80.945312 351.382812 C 75.28125 351.382812 70.6875 346.792969 70.6875 341.128906 C 70.6875 335.464844 75.28125 330.871094 80.945312 330.871094 C 86.609375 330.871094 91.199219 335.464844 91.199219 341.128906 "/>
<path style=" stroke:none;fill-rule:nonzero;fill:rgb(100%,84.3%,0%);fill-opacity:1;" d="M 165.742188 122.996094 C 165.742188 128.660156 161.152344 133.25 155.488281 133.25 C 149.824219 133.25 145.230469 128.660156 145.230469 122.996094 C 145.230469 117.332031 149.824219 112.738281 155.488281 112.738281 C 161.152344 112.738281 165.742188 117.332031 165.742188 122.996094 "/>
<path style=" stroke:none;fill-rule:nonzero;fill:rgb(100%,84.3%,0%);fill-opacity:1;" d="M 155.488281 105.230469 C 155.488281 110.894531 150.894531 115.488281 145.230469 115.488281 C 139.566406 115.488281 134.972656 110.894531 134.972656 105.230469 C 134.972656 99.566406 139.566406 94.972656 145.230469 94.972656 C 150.894531 94.972656 155.488281 99.566406 155.488281 105.230469 "/>
<path style=" stroke:none;fill-rule:nonzero;fill:rgb(100%,84.3%,0%);fill-opacity:1;" d="M 235.488281 389.003906 C 235.488281 394.667969 230.894531 399.261719 225.230469 399.261719 C 219.566406 399.261719 214.972656 394.667969 214.972656 389.003906 C 214.972656 383.339844 219.566406 378.75 225.230469 378.75 C 230.894531 378.75 235.488281 383.339844 235.488281 389.003906 "/>
<path style=" stroke:none;fill-rule:nonzero;fill:rgb(100%,84.3%,0%);fill-opacity:1;" d="M 245.742188 406.769531 C 245.742188 412.433594 241.152344 417.027344 235.488281 417.027344 C 229.824219 417.027344 225.230469 412.433594 225.230469 406.769531 C 225.230469 401.105469 229.824219 396.511719 235.488281 396.511719 C 241.152344 396.511719 245.742188 401.105469 245.742188 406.769531 "/>
<path style=" stroke:none;fill-rule:nonzero;fill:rgb(100%,84.3%,0%);fill-opacity:1;" d="M 73.433594 330.871094 C 73.433594 336.535156 68.84375 341.128906 63.179688 341.128906 C 57.515625 341.128906 52.921875 336.535156 52.921875 330.871094 C 52.921875 325.207031 57.515625 320.617188 63.179688 320.617188 C 68.84375 320.617188 73.433594 325.207031 73.433594 330.871094 "/>
<path style=" stroke:none;fill-rule:nonzero;fill:rgb(100%,84.3%,0%);fill-opacity:1;" d="M 441.3125 314.460938 C 441.3125 320.125 436.71875 324.71875 431.054688 324.71875 C 425.390625 324.71875 420.800781 320.125 420.800781 314.460938 C 420.800781 308.796875 425.390625 304.207031 431.054688 304.207031 C 436.71875 304.207031 441.3125 308.796875 441.3125 314.460938 "/>
<path style=" stroke:none;fill-rule:nonzero;fill:rgb(100%,84.3%,0%);fill-opacity:1;" d="M 327.792969 386.257812 C 327.792969 391.921875 323.203125 396.511719 317.539062 396.511719 C 311.875 396.511719 307.28125 391.921875 307.28125 386.257812 C 307.28125 380.589844 311.875 376 317.539062 376 C 323.203125 376 327.792969 380.589844 327.792969 386.257812 "/>
<path style=" stroke:none;fill-rule:nonzero;fill:rgb(100%,84.3%,0%);fill-opacity:1;" d="M 204.71875 406.769531 C 204.71875 412.433594 200.125 417.027344 194.460938 417.027344 C 188.796875 417.027344 184.203125 412.433594 184.203125 406.769531 C 184.203125 401.105469 188.796875 396.511719 194.460938 396.511719 C 200.125 396.511719 204.71875 401.105469 204.71875 406.769531 "/>
<path style=" stroke:none;fill-rule:nonzero;fill:rgb(100%,84.3%,0%);fill-opacity:1;" d="M 441.3125 273.4375 C 441.3125 279.101562 436.71875 283.691406 431.054688 283.691406 C 425.390625 283.691406 420.800781 279.101562 420.800781 273.4375 C 420.800781 267.773438 425.390625 263.179688 431.054688 263.179688 C 436.71875 263.179688 441.3125 267.773438 441.3125 273.4375 "/>
<path style=" stroke:none;fill-rule:nonzero;fill:rgb(100%,84.3%,0%);fill-opacity:1;" d="M 448.820312 239.917969 C 448.820312 245.582031 444.226562 250.175781 438.5625 250.175781 C 432.898438 250.175781 428.308594 245.582031 428.308594 239.917969 C 428.308594 234.253906 432.898438 229.660156 438.5625 229.660156 C 444.226562 229.660156 448.820312 234.253906 448.820312 239.917969 "/>
<path style=" stroke:none;fill-rule:nonzero;fill:rgb(100%,84.3%,0%);fill-opacity:1;" d="M 307.28125 406.769531 C 307.28125 412.433594 302.691406 417.027344 297.027344 417.027344 C 291.363281 417.027344 286.769531 412.433594 286.769531 406.769531 C 286.769531 401.105469 291.363281 396.511719 297.027344 396.511719 C 302.691406 396.511719 307.28125 401.105469 307.28125 406.769531 "/>
<path style=" stroke:none;fill-rule:nonzero;fill:rgb(100%,84.3%,0%);fill-opacity:1;" d="M 279.261719 358.234375 C 279.261719 363.898438 274.667969 368.492188 269.003906 368.492188 C 263.339844 368.492188 258.75 363.898438 258.75 358.234375 C 258.75 352.570312 263.339844 347.980469 269.003906 347.980469 C 274.667969 347.980469 279.261719 352.570312 279.261719 358.234375 "/>
<path style=" stroke:none;fill-rule:nonzero;fill:rgb(100%,84.3%,0%);fill-opacity:1;" d="M 93.949219 125.742188 C 93.949219 131.410156 89.355469 136 83.691406 136 C 78.027344 136 73.4375 131.410156 73.4375 125.742188 C 73.4375 120.078125 78.027344 115.488281 83.691406 115.488281 C 89.355469 115.488281 93.949219 120.078125 93.949219 125.742188 "/>
<path style=" stroke:none;fill-rule:nonzero;fill:rgb(100%,84.3%,0%);fill-opacity:1;" d="M 459.078125 324.71875 C 459.078125 330.382812 454.484375 334.972656 448.820312 334.972656 C 443.15625 334.972656 438.566406 330.382812 438.566406 324.71875 C 438.566406 319.054688 443.15625 314.460938 448.820312 314.460938 C 454.484375 314.460938 459.078125 319.054688 459.078125 324.71875 "/>
<path style=" stroke:none;fill-rule:nonzero;fill:rgb(100%,84.3%,0%);fill-opacity:1;" d="M 73.433594 254.972656 C 73.433594 260.636719 68.84375 265.230469 63.179688 265.230469 C 57.515625 265.230469 52.921875 260.636719 52.921875 254.972656 C 52.921875 249.308594 57.515625 244.71875 63.179688 244.71875 C 68.84375 244.71875 73.433594 249.308594 73.433594 254.972656 "/>
<path style=" stroke:none;fill-rule:nonzero;fill:rgb(100%,84.3%,0%);fill-opacity:1;" d="M 397.539062 389.003906 C 397.539062 394.667969 392.945312 399.261719 387.28125 399.261719 C 381.617188 399.261719 377.027344 394.667969 377.027344 389.003906 C 377.027344 383.339844 381.617188 378.75 387.28125 378.75 C 392.945312 378.75 397.539062 383.339844 397.539062 389.003906 "/>
<path style=" stroke:none;fill-rule:nonzero;fill:rgb(100%,84.3%,0%);fill-opacity:1;" d="M 73.433594 277.539062 C 73.433594 283.203125 68.84375 287.792969 63.179688 287.792969 C 57.515625 287.792969 52.921875 283.203125 52.921875 277.539062 C 52.921875 271.875 57.515625 267.28125 63.179688 267.28125 C 68.84375 267.28125 73.433594 271.875 73.433594 277.539062 "/>
<path style=" stroke:none;fill-rule:nonzero;fill:rgb(100%,84.3%,0%);fill-opacity:1;" d="M 93.949219 146.257812 C 93.949219 151.921875 89.355469 156.511719 83.691406 156.511719 C 78.027344 156.511719 73.4375 151.921875 73.4375 146.257812 C 73.4375 140.589844 78.027344 136 83.691406 136 C 89.355469 136 93.949219 140.589844 93.949219 146.257812 "/>
<path style=" stroke:none;fill-rule:nonzero;fill:rgb(100%,84.3%,0%);fill-opacity:1;" d="M 217.027344 105.230469 C 217.027344 110.894531 212.433594 115.488281 206.769531 115.488281 C 201.105469 115.488281 196.511719 110.894531 196.511719 105.230469 C 196.511719 99.566406 201.105469 94.972656 206.769531 94.972656 C 212.433594 94.972656 217.027344 99.566406 217.027344 105.230469 "/>
<path style=" stroke:none;fill-rule:nonzero;fill:rgb(100%,84.3%,0%);fill-opacity:1;" d="M 186.257812 122.996094 C 186.257812 128.660156 181.664062 133.25 176 133.25 C 170.335938 133.25 165.742188 128.660156 165.742188 122.996094 C 165.742188 117.332031 170.335938 112.738281 176 112.738281 C 181.664062 112.738281 186.257812 117.332031 186.257812 122.996094 "/>
<path style=" stroke:none;fill-rule:nonzero;fill:rgb(100%,84.3%,0%);fill-opacity:1;" d="M 214.972656 389.003906 C 214.972656 394.667969 210.382812 399.261719 204.71875 399.261719 C 199.054688 399.261719 194.460938 394.667969 194.460938 389.003906 C 194.460938 383.339844 199.054688 378.75 204.71875 378.75 C 210.382812 378.75 214.972656 383.339844 214.972656 389.003906 "/>
<path style=" stroke:none;fill-rule:nonzero;fill:rgb(100%,84.3%,0%);fill-opacity:1;" d="M 184.207031 406.769531 C 184.207031 412.433594 179.613281 417.027344 173.949219 417.027344 C 168.285156 417.027344 163.691406 412.433594 163.691406 406.769531 C 163.691406 401.105469 168.285156 396.511719 173.949219 396.511719 C 179.613281 396.511719 184.207031 401.105469 184.207031 406.769531 "/>
</g>
</svg>
