<?xml version="1.0" encoding="UTF-8"?>
<svg xmlns="http://www.w3.org/2000/svg" xmlns:xlink="http://www.w3.org/1999/xlink" width="512pt" height="512pt" viewBox="0 0 512 512" version="1.1">
<g id="surface76">
<path style=" stroke:none;fill-rule:nonzero;fill:rgb(26.7%,26.7%,26.7%);fill-opacity:1;" d="M 96.464844 0 L 415.535156 0 L 415.535156 512 L 96.464844 512 Z M 96.464844 0 "/>
<path style=" stroke:none;fill-rule:nonzero;fill:rgb(19.2%,38.8%,66.7%);fill-opacity:1;" d="M 123.054688 42.667969 L 388.949219 42.667969 L 388.949219 469.332031 L 123.054688 469.332031 Z M 123.054688 42.667969 "/>
<path style=" stroke:none;fill-rule:nonzero;fill:rgb(100%,100%,100%);fill-opacity:1;" d="M 50.910156 296.191406 C 50.910156 301.886719 46.296875 306.5 40.605469 306.5 C 34.914062 306.5 30.300781 301.886719 30.300781 296.191406 C 30.300781 290.5 34.914062 285.886719 40.605469 285.886719 C 46.296875 285.886719 50.910156 290.5 50.910156 296.191406 "/>
<path style=" stroke:none;fill-rule:nonzero;fill:rgb(100%,100%,100%);fill-opacity:1;" d="M 298.253906 -0.617188 C 298.253906 5.074219 293.640625 9.6875 287.949219 9.6875 C 282.257812 9.6875 277.640625 5.074219 277.640625 -0.617188 C 277.640625 -6.308594 282.257812 -10.925781 287.949219 -10.925781 C 293.640625 -10.925781 298.253906 -6.308594 298.253906 -0.617188 "/>
<path style=" stroke:none;fill-rule:nonzero;fill:rgb(100%,100%,100%);fill-opacity:1;" d="M 1.441406 197.257812 C 1.441406 202.949219 -3.171875 207.5625 -8.863281 207.5625 C -14.554688 207.5625 -19.167969 202.949219 -19.167969 197.257812 C -19.167969 191.5625 -14.554688 186.949219 -8.863281 186.949219 C -3.171875 186.949219 1.441406 191.5625 1.441406 197.257812 "/>
<path style=" stroke:none;fill-rule:nonzero;fill:rgb(100%,100%,100%);fill-opacity:1;" d="M 83.890625 423.988281 C 83.890625 429.679688 79.277344 434.292969 73.585938 434.292969 C 67.894531 434.292969 63.277344 429.679688 63.277344 423.988281 C 63.277344 418.296875 67.894531 413.679688 73.585938 413.679688 C 79.277344 413.679688 83.890625 418.296875 83.890625 423.988281 "/>
<path style=" stroke:none;fill-rule:nonzero;fill:rgb(100%,100%,100%);fill-opacity:1;" d="M 444.597656 7.625 C 444.597656 13.316406 439.984375 17.933594 434.292969 17.933594 C 428.601562 17.933594 423.988281 13.316406 423.988281 7.625 C 423.988281 1.933594 428.601562 -2.679688 434.292969 -2.679688 C 439.984375 -2.679688 444.597656 1.933594 444.597656 7.625 "/>
<path style=" stroke:none;fill-rule:nonzero;fill:rgb(100%,100%,100%);fill-opacity:1;" d="M 428.109375 143.664062 C 428.109375 149.355469 423.496094 153.972656 417.804688 153.972656 C 412.113281 153.972656 407.496094 149.355469 407.496094 143.664062 C 407.496094 137.972656 412.113281 133.359375 417.804688 133.359375 C 423.496094 133.359375 428.109375 137.972656 428.109375 143.664062 "/>
<path style=" stroke:none;fill-rule:nonzero;fill:rgb(100%,100%,100%);fill-opacity:1;" d="M 366.273438 473.457031 C 366.273438 479.148438 361.660156 483.761719 355.96875 483.761719 C 350.277344 483.761719 345.660156 479.148438 345.660156 473.457031 C 345.660156 467.765625 350.277344 463.148438 355.96875 463.148438 C 361.660156 463.148438 366.273438 467.765625 366.273438 473.457031 "/>
<path style=" stroke:none;fill-rule:nonzero;fill:rgb(100%,100%,100%);fill-opacity:1;" d="M 434.292969 -8.863281 C 434.292969 -3.171875 429.679688 1.441406 423.988281 1.441406 C 418.296875 1.441406 413.679688 -3.171875 413.679688 -8.863281 C 413.679688 -14.554688 418.296875 -19.167969 423.988281 -19.167969 C 429.679688 -19.167969 434.292969 -14.554688 434.292969 -8.863281 "/>
<path style=" stroke:none;fill-rule:nonzero;fill:rgb(100%,100%,100%);fill-opacity:1;" d="M 411.621094 88.011719 C 411.621094 93.703125 407.003906 98.320312 401.3125 98.320312 C 395.621094 98.320312 391.007812 93.703125 391.007812 88.011719 C 391.007812 82.320312 395.621094 77.707031 401.3125 77.707031 C 407.003906 77.707031 411.621094 82.320312 411.621094 88.011719 "/>
<path style=" stroke:none;fill-rule:nonzero;fill:rgb(100%,100%,100%);fill-opacity:1;" d="M 44.726562 242.601562 C 44.726562 248.292969 40.113281 252.90625 34.421875 252.90625 C 28.730469 252.90625 24.117188 248.292969 24.117188 242.601562 C 24.117188 236.910156 28.730469 232.296875 34.421875 232.296875 C 40.113281 232.296875 44.726562 236.910156 44.726562 242.601562 "/>
<path style=" stroke:none;fill-rule:nonzero;fill:rgb(100%,100%,100%);fill-opacity:1;" d="M 71.523438 240.539062 C 71.523438 246.234375 66.910156 250.847656 61.21875 250.847656 C 55.523438 250.847656 50.910156 246.234375 50.910156 240.539062 C 50.910156 234.847656 55.523438 230.234375 61.21875 230.234375 C 66.910156 230.234375 71.523438 234.847656 71.523438 240.539062 "/>
<path style=" stroke:none;fill-rule:nonzero;fill:rgb(100%,100%,100%);fill-opacity:1;" d="M 85.953125 391.007812 C 85.953125 396.699219 81.335938 401.3125 75.644531 401.3125 C 69.953125 401.3125 65.339844 396.699219 65.339844 391.007812 C 65.339844 385.316406 69.953125 380.703125 75.644531 380.703125 C 81.335938 380.703125 85.953125 385.316406 85.953125 391.007812 "/>
<path style=" stroke:none;fill-rule:nonzero;fill:rgb(100%,100%,100%);fill-opacity:1;" d="M 55.035156 228.175781 C 55.035156 233.867188 50.417969 238.480469 44.726562 238.480469 C 39.035156 238.480469 34.421875 233.867188 34.421875 228.175781 C 34.421875 222.480469 39.035156 217.867188 44.726562 217.867188 C 50.417969 217.867188 55.035156 222.480469 55.035156 228.175781 "/>
<path style=" stroke:none;fill-rule:nonzero;fill:rgb(100%,100%,100%);fill-opacity:1;" d="M 461.089844 40.605469 C 461.089844 46.296875 456.476562 50.910156 450.78125 50.910156 C 445.089844 50.910156 440.476562 46.296875 440.476562 40.605469 C 440.476562 34.914062 445.089844 30.300781 450.78125 30.300781 C 456.476562 30.300781 461.089844 34.914062 461.089844 40.605469 "/>
<path style=" stroke:none;fill-rule:nonzero;fill:rgb(100%,100%,100%);fill-opacity:1;" d="M 475.515625 430.171875 C 475.515625 435.863281 470.902344 440.476562 465.210938 440.476562 C 459.519531 440.476562 454.90625 435.863281 454.90625 430.171875 C 454.90625 424.480469 459.519531 419.863281 465.210938 419.863281 C 470.902344 419.863281 475.515625 424.480469 475.515625 430.171875 "/>
<path style=" stroke:none;fill-rule:nonzero;fill:rgb(100%,100%,100%);fill-opacity:1;" d="M 358.027344 7.625 C 358.027344 13.316406 353.414062 17.933594 347.722656 17.933594 C 342.03125 17.933594 337.417969 13.316406 337.417969 7.625 C 337.417969 1.933594 342.03125 -2.679688 347.722656 -2.679688 C 353.414062 -2.679688 358.027344 1.933594 358.027344 7.625 "/>
<path style=" stroke:none;fill-rule:nonzero;fill:rgb(100%,100%,100%);fill-opacity:1;" d="M 405.4375 22.054688 C 405.4375 27.746094 400.820312 32.359375 395.128906 32.359375 C 389.4375 32.359375 384.824219 27.746094 384.824219 22.054688 C 384.824219 16.363281 389.4375 11.75 395.128906 11.75 C 400.820312 11.75 405.4375 16.363281 405.4375 22.054688 "/>
<path style=" stroke:none;fill-rule:nonzero;fill:rgb(100%,100%,100%);fill-opacity:1;" d="M 26.175781 327.109375 C 26.175781 332.804688 21.5625 337.417969 15.871094 337.417969 C 10.179688 337.417969 5.566406 332.804688 5.566406 327.109375 C 5.566406 321.417969 10.179688 316.804688 15.871094 316.804688 C 21.5625 316.804688 26.175781 321.417969 26.175781 327.109375 "/>
<path style=" stroke:none;fill-rule:nonzero;fill:rgb(100%,100%,100%);fill-opacity:1;" d="M 516.742188 24.117188 C 516.742188 29.808594 512.125 34.421875 506.433594 34.421875 C 500.742188 34.421875 496.128906 29.808594 496.128906 24.117188 C 496.128906 18.425781 500.742188 13.808594 506.433594 13.808594 C 512.125 13.808594 516.742188 18.425781 516.742188 24.117188 "/>
<path style=" stroke:none;fill-rule:nonzero;fill:rgb(100%,100%,100%);fill-opacity:1;" d="M 487.882812 366.273438 C 487.882812 371.964844 483.269531 376.578125 477.578125 376.578125 C 471.886719 376.578125 467.273438 371.964844 467.273438 366.273438 C 467.273438 360.582031 471.886719 355.96875 477.578125 355.96875 C 483.269531 355.96875 487.882812 360.582031 487.882812 366.273438 "/>
<path style=" stroke:none;fill-rule:nonzero;fill:rgb(100%,100%,100%);fill-opacity:1;" d="M 452.84375 506.433594 C 452.84375 512.125 448.230469 516.742188 442.539062 516.742188 C 436.847656 516.742188 432.230469 512.125 432.230469 506.433594 C 432.230469 500.742188 436.847656 496.128906 442.539062 496.128906 C 448.230469 496.128906 452.84375 500.742188 452.84375 506.433594 "/>
<path style=" stroke:none;fill-rule:nonzero;fill:rgb(100%,100%,100%);fill-opacity:1;" d="M 409.558594 108.625 C 409.558594 114.316406 404.945312 118.929688 399.253906 118.929688 C 393.5625 118.929688 388.945312 114.316406 388.945312 108.625 C 388.945312 102.933594 393.5625 98.320312 399.253906 98.320312 C 404.945312 98.320312 409.558594 102.933594 409.558594 108.625 "/>
<path style=" stroke:none;fill-rule:nonzero;fill:rgb(100%,100%,100%);fill-opacity:1;" d="M 452.84375 -2.679688 C 452.84375 3.011719 448.230469 7.625 442.539062 7.625 C 436.847656 7.625 432.230469 3.011719 432.230469 -2.679688 C 432.230469 -8.371094 436.847656 -12.984375 442.539062 -12.984375 C 448.230469 -12.984375 452.84375 -8.371094 452.84375 -2.679688 "/>
<path style=" stroke:none;fill-rule:nonzero;fill:rgb(100%,100%,100%);fill-opacity:1;" d="M 529.109375 487.882812 C 529.109375 493.574219 524.492188 498.191406 518.800781 498.191406 C 513.109375 498.191406 508.496094 493.574219 508.496094 487.882812 C 508.496094 482.191406 513.109375 477.578125 518.800781 477.578125 C 524.492188 477.578125 529.109375 482.191406 529.109375 487.882812 "/>
<path style=" stroke:none;fill-rule:nonzero;fill:rgb(100%,100%,100%);fill-opacity:1;" d="M 463.148438 442.539062 C 463.148438 448.230469 458.535156 452.84375 452.84375 452.84375 C 447.152344 452.84375 442.539062 448.230469 442.539062 442.539062 C 442.539062 436.847656 447.152344 432.230469 452.84375 432.230469 C 458.535156 432.230469 463.148438 436.847656 463.148438 442.539062 "/>
<path style=" stroke:none;fill-rule:nonzero;fill:rgb(100%,100%,100%);fill-opacity:1;" d="M 401.3125 189.011719 C 401.3125 194.703125 396.699219 199.316406 391.007812 199.316406 C 385.316406 199.316406 380.703125 194.703125 380.703125 189.011719 C 380.703125 183.320312 385.316406 178.703125 391.007812 178.703125 C 396.699219 178.703125 401.3125 183.320312 401.3125 189.011719 "/>
<path style=" stroke:none;fill-rule:nonzero;fill:rgb(100%,100%,100%);fill-opacity:1;" d="M 1.441406 228.175781 C 1.441406 233.867188 -3.171875 238.480469 -8.863281 238.480469 C -14.554688 238.480469 -19.167969 233.867188 -19.167969 228.175781 C -19.167969 222.480469 -14.554688 217.867188 -8.863281 217.867188 C -3.171875 217.867188 1.441406 222.480469 1.441406 228.175781 "/>
<path style=" stroke:none;fill-rule:nonzero;fill:rgb(100%,100%,100%);fill-opacity:1;" d="M 450.78125 432.230469 C 450.78125 437.921875 446.167969 442.539062 440.476562 442.539062 C 434.785156 442.539062 430.171875 437.921875 430.171875 432.230469 C 430.171875 426.539062 434.785156 421.925781 440.476562 421.925781 C 446.167969 421.925781 450.78125 426.539062 450.78125 432.230469 "/>
<path style=" stroke:none;fill-rule:nonzero;fill:rgb(100%,100%,100%);fill-opacity:1;" d="M 446.660156 141.605469 C 446.660156 147.296875 442.046875 151.910156 436.355469 151.910156 C 430.664062 151.910156 426.046875 147.296875 426.046875 141.605469 C 426.046875 135.914062 430.664062 131.296875 436.355469 131.296875 C 442.046875 131.296875 446.660156 135.914062 446.660156 141.605469 "/>
<path style=" stroke:none;fill-rule:nonzero;fill:rgb(100%,100%,100%);fill-opacity:1;" d="M 42.667969 463.148438 C 42.667969 468.84375 38.054688 473.457031 32.359375 473.457031 C 26.667969 473.457031 22.054688 468.84375 22.054688 463.148438 C 22.054688 457.457031 26.667969 452.84375 32.359375 452.84375 C 38.054688 452.84375 42.667969 457.457031 42.667969 463.148438 "/>
<path style=" stroke:none;fill-rule:nonzero;fill:rgb(100%,100%,100%);fill-opacity:1;" d="M 69.460938 391.007812 C 69.460938 396.699219 64.847656 401.3125 59.15625 401.3125 C 53.464844 401.3125 48.851562 396.699219 48.851562 391.007812 C 48.851562 385.316406 53.464844 380.703125 59.15625 380.703125 C 64.847656 380.703125 69.460938 385.316406 69.460938 391.007812 "/>
<path style=" stroke:none;fill-rule:nonzero;fill:rgb(100%,100%,100%);fill-opacity:1;" d="M 46.789062 193.132812 C 46.789062 198.824219 42.175781 203.441406 36.484375 203.441406 C 30.792969 203.441406 26.175781 198.824219 26.175781 193.132812 C 26.175781 187.441406 30.792969 182.828125 36.484375 182.828125 C 42.175781 182.828125 46.789062 187.441406 46.789062 193.132812 "/>
<path style=" stroke:none;fill-rule:nonzero;fill:rgb(100%,100%,100%);fill-opacity:1;" d="M 465.210938 42.667969 C 465.210938 48.359375 460.597656 52.972656 454.90625 52.972656 C 449.214844 52.972656 444.597656 48.359375 444.597656 42.667969 C 444.597656 36.976562 449.214844 32.359375 454.90625 32.359375 C 460.597656 32.359375 465.210938 36.976562 465.210938 42.667969 "/>
<path style=" stroke:none;fill-rule:nonzero;fill:rgb(100%,100%,100%);fill-opacity:1;" d="M 531.167969 405.4375 C 531.167969 411.128906 526.554688 415.742188 520.863281 415.742188 C 515.171875 415.742188 510.558594 411.128906 510.558594 405.4375 C 510.558594 399.746094 515.171875 395.128906 520.863281 395.128906 C 526.554688 395.128906 531.167969 399.746094 531.167969 405.4375 "/>
<path style=" stroke:none;fill-rule:nonzero;fill:rgb(100%,100%,100%);fill-opacity:1;" d="M 504.375 265.273438 C 504.375 270.96875 499.761719 275.582031 494.066406 275.582031 C 488.375 275.582031 483.761719 270.96875 483.761719 265.273438 C 483.761719 259.582031 488.375 254.96875 494.066406 254.96875 C 499.761719 254.96875 504.375 259.582031 504.375 265.273438 "/>
<path style=" stroke:none;fill-rule:nonzero;fill:rgb(100%,100%,100%);fill-opacity:1;" d="M 226.113281 13.808594 C 226.113281 19.5 221.5 24.117188 215.808594 24.117188 C 210.113281 24.117188 205.5 19.5 205.5 13.808594 C 205.5 8.117188 210.113281 3.503906 215.808594 3.503906 C 221.5 3.503906 226.113281 8.117188 226.113281 13.808594 "/>
<path style=" stroke:none;fill-rule:nonzero;fill:rgb(100%,100%,100%);fill-opacity:1;" d="M 172.523438 1.441406 C 172.523438 7.136719 167.90625 11.75 162.214844 11.75 C 156.523438 11.75 151.910156 7.136719 151.910156 1.441406 C 151.910156 -4.25 156.523438 -8.863281 162.214844 -8.863281 C 167.90625 -8.863281 172.523438 -4.25 172.523438 1.441406 "/>
<path style=" stroke:none;fill-rule:nonzero;fill:rgb(100%,100%,100%);fill-opacity:1;" d="M 479.640625 162.214844 C 479.640625 167.90625 475.023438 172.523438 469.332031 172.523438 C 463.640625 172.523438 459.027344 167.90625 459.027344 162.214844 C 459.027344 156.523438 463.640625 151.910156 469.332031 151.910156 C 475.023438 151.910156 479.640625 156.523438 479.640625 162.214844 "/>
<path style=" stroke:none;fill-rule:nonzero;fill:rgb(100%,100%,100%);fill-opacity:1;" d="M 454.90625 34.421875 C 454.90625 40.113281 450.289062 44.726562 444.597656 44.726562 C 438.90625 44.726562 434.292969 40.113281 434.292969 34.421875 C 434.292969 28.730469 438.90625 24.117188 444.597656 24.117188 C 450.289062 24.117188 454.90625 28.730469 454.90625 34.421875 "/>
<path style=" stroke:none;fill-rule:nonzero;fill:rgb(100%,100%,100%);fill-opacity:1;" d="M 473.457031 498.191406 C 473.457031 503.882812 468.84375 508.496094 463.148438 508.496094 C 457.457031 508.496094 452.84375 503.882812 452.84375 498.191406 C 452.84375 492.5 457.457031 487.882812 463.148438 487.882812 C 468.84375 487.882812 473.457031 492.5 473.457031 498.191406 "/>
<path style=" stroke:none;fill-rule:nonzero;fill:rgb(100%,100%,100%);fill-opacity:1;" d="M 502.3125 281.765625 C 502.3125 287.457031 497.699219 292.070312 492.007812 292.070312 C 486.3125 292.070312 481.699219 287.457031 481.699219 281.765625 C 481.699219 276.074219 486.3125 271.460938 492.007812 271.460938 C 497.699219 271.460938 502.3125 276.074219 502.3125 281.765625 "/>
<path style=" stroke:none;fill-rule:nonzero;fill:rgb(100%,100%,100%);fill-opacity:1;" d="M 465.210938 403.375 C 465.210938 409.066406 460.597656 413.679688 454.90625 413.679688 C 449.214844 413.679688 444.597656 409.066406 444.597656 403.375 C 444.597656 397.683594 449.214844 393.070312 454.90625 393.070312 C 460.597656 393.070312 465.210938 397.683594 465.210938 403.375 "/>
<path style=" stroke:none;fill-rule:nonzero;fill:rgb(100%,100%,100%);fill-opacity:1;" d="M 145.726562 -4.742188 C 145.726562 0.949219 141.113281 5.566406 135.421875 5.566406 C 129.726562 5.566406 125.113281 0.949219 125.113281 -4.742188 C 125.113281 -10.433594 129.726562 -15.046875 135.421875 -15.046875 C 141.113281 -15.046875 145.726562 -10.433594 145.726562 -4.742188 "/>
<path style=" stroke:none;fill-rule:nonzero;fill:rgb(100%,100%,100%);fill-opacity:1;" d="M 133.359375 11.75 C 133.359375 17.441406 128.746094 22.054688 123.054688 22.054688 C 117.359375 22.054688 112.746094 17.441406 112.746094 11.75 C 112.746094 6.058594 117.359375 1.441406 123.054688 1.441406 C 128.746094 1.441406 133.359375 6.058594 133.359375 11.75 "/>
<path style=" stroke:none;fill-rule:nonzero;fill:rgb(100%,100%,100%);fill-opacity:1;" d="M 100.378906 112.746094 C 100.378906 118.4375 95.765625 123.054688 90.074219 123.054688 C 84.382812 123.054688 79.769531 118.4375 79.769531 112.746094 C 79.769531 107.054688 84.382812 102.441406 90.074219 102.441406 C 95.765625 102.441406 100.378906 107.054688 100.378906 112.746094 "/>
<path style=" stroke:none;fill-rule:nonzero;fill:rgb(100%,100%,100%);fill-opacity:1;" d="M 454.90625 164.277344 C 454.90625 169.96875 450.289062 174.582031 444.597656 174.582031 C 438.90625 174.582031 434.292969 169.96875 434.292969 164.277344 C 434.292969 158.585938 438.90625 153.972656 444.597656 153.972656 C 450.289062 153.972656 454.90625 158.585938 454.90625 164.277344 "/>
<path style=" stroke:none;fill-rule:nonzero;fill:rgb(100%,100%,100%);fill-opacity:1;" d="M 205.5 485.824219 C 205.5 491.515625 200.886719 496.128906 195.195312 496.128906 C 189.503906 496.128906 184.890625 491.515625 184.890625 485.824219 C 184.890625 480.132812 189.503906 475.515625 195.195312 475.515625 C 200.886719 475.515625 205.5 480.132812 205.5 485.824219 "/>
<path style=" stroke:none;fill-rule:nonzero;fill:rgb(100%,100%,100%);fill-opacity:1;" d="M 512.617188 388.945312 C 512.617188 394.640625 508.003906 399.253906 502.3125 399.253906 C 496.621094 399.253906 492.007812 394.640625 492.007812 388.945312 C 492.007812 383.253906 496.621094 378.640625 502.3125 378.640625 C 508.003906 378.640625 512.617188 383.253906 512.617188 388.945312 "/>
<path style=" stroke:none;fill-rule:nonzero;fill:rgb(100%,84.3%,0%);fill-opacity:1;" d="M 378.640625 329.171875 C 378.640625 334.863281 374.027344 339.476562 368.335938 339.476562 C 362.644531 339.476562 358.027344 334.863281 358.027344 329.171875 C 358.027344 323.480469 362.644531 318.867188 368.335938 318.867188 C 374.027344 318.867188 378.640625 323.480469 378.640625 329.171875 "/>
<path style=" stroke:none;fill-rule:nonzero;fill:rgb(100%,84.3%,0%);fill-opacity:1;" d="M 355.96875 410.257812 C 355.96875 415.949219 351.355469 420.566406 345.660156 420.566406 C 339.96875 420.566406 335.355469 415.949219 335.355469 410.257812 C 335.355469 404.566406 339.96875 399.953125 345.660156 399.953125 C 351.355469 399.953125 355.96875 404.566406 355.96875 410.257812 "/>
<path style=" stroke:none;fill-rule:nonzero;fill:rgb(100%,84.3%,0%);fill-opacity:1;" d="M 366.273438 448.722656 C 366.273438 454.414062 361.660156 459.027344 355.96875 459.027344 C 350.277344 459.027344 345.660156 454.414062 345.660156 448.722656 C 345.660156 443.027344 350.277344 438.414062 355.96875 438.414062 C 361.660156 438.414062 366.273438 443.027344 366.273438 448.722656 "/>
<path style=" stroke:none;fill-rule:nonzero;fill:rgb(100%,84.3%,0%);fill-opacity:1;" d="M 378.640625 137.480469 C 378.640625 143.171875 374.027344 147.785156 368.335938 147.785156 C 362.644531 147.785156 358.027344 143.171875 358.027344 137.480469 C 358.027344 131.789062 362.644531 127.175781 368.335938 127.175781 C 374.027344 127.175781 378.640625 131.789062 378.640625 137.480469 "/>
<path style=" stroke:none;fill-rule:nonzero;fill:rgb(100%,84.3%,0%);fill-opacity:1;" d="M 331.234375 428.109375 C 331.234375 433.800781 326.621094 438.414062 320.929688 438.414062 C 315.234375 438.414062 310.621094 433.800781 310.621094 428.109375 C 310.621094 422.417969 315.234375 417.804688 320.929688 417.804688 C 326.621094 417.804688 331.234375 422.417969 331.234375 428.109375 "/>
<path style=" stroke:none;fill-rule:nonzero;fill:rgb(100%,84.3%,0%);fill-opacity:1;" d="M 378.640625 405.4375 C 378.640625 411.128906 374.027344 415.742188 368.335938 415.742188 C 362.644531 415.742188 358.027344 411.128906 358.027344 405.4375 C 358.027344 399.746094 362.644531 395.128906 368.335938 395.128906 C 374.027344 395.128906 378.640625 399.746094 378.640625 405.4375 "/>
<path style=" stroke:none;fill-rule:nonzero;fill:rgb(100%,84.3%,0%);fill-opacity:1;" d="M 203.441406 448.722656 C 203.441406 454.414062 198.824219 459.027344 193.132812 459.027344 C 187.441406 459.027344 182.828125 454.414062 182.828125 448.722656 C 182.828125 443.027344 187.441406 438.414062 193.132812 438.414062 C 198.824219 438.414062 203.441406 443.027344 203.441406 448.722656 "/>
<path style=" stroke:none;fill-rule:nonzero;fill:rgb(100%,84.3%,0%);fill-opacity:1;" d="M 331.234375 448.722656 C 331.234375 454.414062 326.621094 459.027344 320.929688 459.027344 C 315.234375 459.027344 310.621094 454.414062 310.621094 448.722656 C 310.621094 443.027344 315.234375 438.414062 320.929688 438.414062 C 326.621094 438.414062 331.234375 443.027344 331.234375 448.722656 "/>
<path style=" stroke:none;fill-rule:nonzero;fill:rgb(100%,84.3%,0%);fill-opacity:1;" d="M 378.640625 63.277344 C 378.640625 68.972656 374.027344 73.585938 368.335938 73.585938 C 362.644531 73.585938 358.027344 68.972656 358.027344 63.277344 C 358.027344 57.585938 362.644531 52.972656 368.335938 52.972656 C 374.027344 52.972656 378.640625 57.585938 378.640625 63.277344 "/>
<path style=" stroke:none;fill-rule:nonzero;fill:rgb(100%,84.3%,0%);fill-opacity:1;" d="M 355.96875 430.871094 C 355.96875 436.5625 351.355469 441.175781 345.660156 441.175781 C 339.96875 441.175781 335.355469 436.5625 335.355469 430.871094 C 335.355469 425.179688 339.96875 420.566406 345.660156 420.566406 C 351.355469 420.566406 355.96875 425.179688 355.96875 430.871094 "/>
<path style=" stroke:none;fill-rule:nonzero;fill:rgb(100%,84.3%,0%);fill-opacity:1;" d="M 378.640625 205.5 C 378.640625 211.191406 374.027344 215.808594 368.335938 215.808594 C 362.644531 215.808594 358.027344 211.191406 358.027344 205.5 C 358.027344 199.808594 362.644531 195.195312 368.335938 195.195312 C 374.027344 195.195312 378.640625 199.808594 378.640625 205.5 "/>
<path style=" stroke:none;fill-rule:nonzero;fill:rgb(100%,84.3%,0%);fill-opacity:1;" d="M 153.972656 341.539062 C 153.972656 347.230469 149.355469 351.84375 143.664062 351.84375 C 137.972656 351.84375 133.359375 347.230469 133.359375 341.539062 C 133.359375 335.847656 137.972656 331.234375 143.664062 331.234375 C 149.355469 331.234375 153.972656 335.847656 153.972656 341.539062 "/>
<path style=" stroke:none;fill-rule:nonzero;fill:rgb(100%,84.3%,0%);fill-opacity:1;" d="M 378.640625 432.230469 C 378.640625 437.921875 374.027344 442.539062 368.335938 442.539062 C 362.644531 442.539062 358.027344 437.921875 358.027344 432.230469 C 358.027344 426.539062 362.644531 421.925781 368.335938 421.925781 C 374.027344 421.925781 378.640625 426.539062 378.640625 432.230469 "/>
</g>
</svg>
