<?xml version="1.0" encoding="UTF-8"?>
<svg xmlns="http://www.w3.org/2000/svg" xmlns:xlink="http://www.w3.org/1999/xlink" width="512pt" height="512pt" viewBox="0 0 512 512" version="1.1">
<g id="surface191">
<rect x="0" y="0" width="512" height="512" style="fill:rgb(26.7%,26.7%,26.7%);fill-opacity:1;stroke:none;"/>
<path style=" stroke:none;fill-rule:nonzero;fill:rgb(19.2%,38.8%,66.7%);fill-opacity:1;" d="M 14.085938 42.667969 L 154.929688 42.667969 L 154.929688 469.332031 L 14.085938 469.332031 Z M 14.085938 42.667969 "/>
<path style=" stroke:none;fill-rule:nonzero;fill:rgb(100%,100%,100%);fill-opacity:1;" d="M 392.421875 129.65625 C 392.421875 133.46875 389.332031 136.5625 385.519531 136.5625 C 381.707031 136.5625 378.613281 133.46875 378.613281 129.65625 C 378.613281 125.84375 381.707031 122.753906 385.519531 122.753906 C 389.332031 122.753906 392.421875 125.84375 392.421875 129.65625 "/>
<path style=" stroke:none;fill-rule:nonzero;fill:rgb(100%,100%,100%);fill-opacity:1;" d="M 258.484375 97.898438 C 258.484375 101.710938 255.394531 104.804688 251.582031 104.804688 C 247.769531 104.804688 244.675781 101.710938 244.675781 97.898438 C 244.675781 94.085938 247.769531 90.996094 251.582031 90.996094 C 255.394531 90.996094 258.484375 94.085938 258.484375 97.898438 "/>
<path style=" stroke:none;fill-rule:nonzero;fill:rgb(100%,100%,100%);fill-opacity:1;" d="M 449.035156 516.28125 C 449.035156 520.09375 445.945312 523.183594 442.132812 523.183594 C 438.320312 523.183594 435.226562 520.09375 435.226562 516.28125 C 435.226562 512.46875 438.320312 509.375 442.132812 509.375 C 445.945312 509.375 449.035156 512.46875 449.035156 516.28125 "/>
<path style=" stroke:none;fill-rule:nonzero;fill:rgb(100%,100%,100%);fill-opacity:1;" d="M 268.152344 461.050781 C 268.152344 464.863281 265.058594 467.953125 261.246094 467.953125 C 257.433594 467.953125 254.34375 464.863281 254.34375 461.050781 C 254.34375 457.234375 257.433594 454.144531 261.246094 454.144531 C 265.058594 454.144531 268.152344 457.234375 268.152344 461.050781 "/>
<path style=" stroke:none;fill-rule:nonzero;fill:rgb(100%,100%,100%);fill-opacity:1;" d="M 309.574219 30.238281 C 309.574219 34.050781 306.484375 37.144531 302.671875 37.144531 C 298.859375 37.144531 295.765625 34.050781 295.765625 30.238281 C 295.765625 26.425781 298.859375 23.335938 302.671875 23.335938 C 306.484375 23.335938 309.574219 26.425781 309.574219 30.238281 "/>
<path style=" stroke:none;fill-rule:nonzero;fill:rgb(100%,100%,100%);fill-opacity:1;" d="M 141.117188 492.808594 C 141.117188 496.621094 138.027344 499.710938 134.214844 499.710938 C 130.402344 499.710938 127.308594 496.621094 127.308594 492.808594 C 127.308594 488.992188 130.402344 485.902344 134.214844 485.902344 C 138.027344 485.902344 141.117188 488.992188 141.117188 492.808594 "/>
<path style=" stroke:none;fill-rule:nonzero;fill:rgb(100%,100%,100%);fill-opacity:1;" d="M 241.914062 423.765625 C 241.914062 427.578125 238.824219 430.671875 235.011719 430.671875 C 231.199219 430.671875 228.109375 427.578125 228.109375 423.765625 C 228.109375 419.953125 231.199219 416.863281 235.011719 416.863281 C 238.824219 416.863281 241.914062 419.953125 241.914062 423.765625 "/>
<path style=" stroke:none;fill-rule:nonzero;fill:rgb(100%,100%,100%);fill-opacity:1;" d="M 442.132812 198.695312 C 442.132812 202.511719 439.039062 205.601562 435.226562 205.601562 C 431.414062 205.601562 428.324219 202.511719 428.324219 198.695312 C 428.324219 194.882812 431.414062 191.792969 435.226562 191.792969 C 439.039062 191.792969 442.132812 194.882812 442.132812 198.695312 "/>
<path style=" stroke:none;fill-rule:nonzero;fill:rgb(100%,100%,100%);fill-opacity:1;" d="M 393.804688 97.898438 C 393.804688 101.710938 390.714844 104.804688 386.898438 104.804688 C 383.085938 104.804688 379.996094 101.710938 379.996094 97.898438 C 379.996094 94.085938 383.085938 90.996094 386.898438 90.996094 C 390.714844 90.996094 393.804688 94.085938 393.804688 97.898438 "/>
<path style=" stroke:none;fill-rule:nonzero;fill:rgb(100%,100%,100%);fill-opacity:1;" d="M 170.113281 392.007812 C 170.113281 395.820312 167.023438 398.914062 163.210938 398.914062 C 159.398438 398.914062 156.304688 395.820312 156.304688 392.007812 C 156.304688 388.195312 159.398438 385.105469 163.210938 385.105469 C 167.023438 385.105469 170.113281 388.195312 170.113281 392.007812 "/>
<path style=" stroke:none;fill-rule:nonzero;fill:rgb(100%,100%,100%);fill-opacity:1;" d="M 258.484375 479 C 258.484375 482.8125 255.394531 485.902344 251.582031 485.902344 C 247.769531 485.902344 244.675781 482.8125 244.675781 479 C 244.675781 475.1875 247.769531 472.09375 251.582031 472.09375 C 255.394531 472.09375 258.484375 475.1875 258.484375 479 "/>
<path style=" stroke:none;fill-rule:nonzero;fill:rgb(100%,100%,100%);fill-opacity:1;" d="M 3.039062 187.648438 C 3.039062 191.464844 -0.0546875 194.554688 -3.867188 194.554688 C -7.679688 194.554688 -10.769531 191.464844 -10.769531 187.648438 C -10.769531 183.835938 -7.679688 180.746094 -3.867188 180.746094 C -0.0546875 180.746094 3.039062 183.835938 3.039062 187.648438 "/>
<path style=" stroke:none;fill-rule:nonzero;fill:rgb(100%,100%,100%);fill-opacity:1;" d="M 306.8125 397.53125 C 306.8125 401.34375 303.722656 404.4375 299.910156 404.4375 C 296.097656 404.4375 293.003906 401.34375 293.003906 397.53125 C 293.003906 393.71875 296.097656 390.628906 299.910156 390.628906 C 303.722656 390.628906 306.8125 393.71875 306.8125 397.53125 "/>
<path style=" stroke:none;fill-rule:nonzero;fill:rgb(100%,84.3%,0%);fill-opacity:1;" d="M 34.796875 374.058594 C 34.796875 377.871094 31.703125 380.960938 27.890625 380.960938 C 24.078125 380.960938 20.988281 377.871094 20.988281 374.058594 C 20.988281 370.246094 24.078125 367.152344 27.890625 367.152344 C 31.703125 367.152344 34.796875 370.246094 34.796875 374.058594 "/>
<path style=" stroke:none;fill-rule:nonzero;fill:rgb(100%,84.3%,0%);fill-opacity:1;" d="M 46.753906 139.320312 C 46.753906 143.136719 43.664062 146.226562 39.851562 146.226562 C 36.035156 146.226562 32.945312 143.136719 32.945312 139.320312 C 32.945312 135.507812 36.035156 132.417969 39.851562 132.417969 C 43.664062 132.417969 46.753906 135.507812 46.753906 139.320312 "/>
<path style=" stroke:none;fill-rule:nonzero;fill:rgb(100%,84.3%,0%);fill-opacity:1;" d="M 34.796875 318.824219 C 34.796875 322.640625 31.703125 325.730469 27.890625 325.730469 C 24.078125 325.730469 20.988281 322.640625 20.988281 318.824219 C 20.988281 315.011719 24.078125 311.921875 27.890625 311.921875 C 31.703125 311.921875 34.796875 315.011719 34.796875 318.824219 "/>
<path style=" stroke:none;fill-rule:nonzero;fill:rgb(100%,84.3%,0%);fill-opacity:1;" d="M 148.023438 350.585938 C 148.023438 354.398438 144.929688 357.488281 141.117188 357.488281 C 137.304688 357.488281 134.214844 354.398438 134.214844 350.585938 C 134.214844 346.773438 137.304688 343.679688 141.117188 343.679688 C 144.929688 343.679688 148.023438 346.773438 148.023438 350.585938 "/>
<path style=" stroke:none;fill-rule:nonzero;fill:rgb(100%,84.3%,0%);fill-opacity:1;" d="M 136.0625 343.679688 C 136.0625 347.492188 132.972656 350.585938 129.160156 350.585938 C 125.347656 350.585938 122.257812 347.492188 122.257812 343.679688 C 122.257812 339.867188 125.347656 336.777344 129.160156 336.777344 C 132.972656 336.777344 136.0625 339.867188 136.0625 343.679688 "/>
<path style=" stroke:none;fill-rule:nonzero;fill:rgb(100%,84.3%,0%);fill-opacity:1;" d="M 65.617188 120.460938 C 65.617188 124.273438 62.523438 127.363281 58.710938 127.363281 C 54.898438 127.363281 51.808594 124.273438 51.808594 120.460938 C 51.808594 116.648438 54.898438 113.554688 58.710938 113.554688 C 62.523438 113.554688 65.617188 116.648438 65.617188 120.460938 "/>
<path style=" stroke:none;fill-rule:nonzero;fill:rgb(100%,84.3%,0%);fill-opacity:1;" d="M 80.832031 455.523438 C 80.832031 459.339844 77.742188 462.429688 73.929688 462.429688 C 70.113281 462.429688 67.023438 459.339844 67.023438 455.523438 C 67.023438 451.710938 70.113281 448.621094 73.929688 448.621094 C 77.742188 448.621094 80.832031 451.710938 80.832031 455.523438 "/>
<path style=" stroke:none;fill-rule:nonzero;fill:rgb(100%,84.3%,0%);fill-opacity:1;" d="M 136.0625 455.523438 C 136.0625 459.339844 132.972656 462.429688 129.160156 462.429688 C 125.347656 462.429688 122.257812 459.339844 122.257812 455.523438 C 122.257812 451.710938 125.347656 448.621094 129.160156 448.621094 C 132.972656 448.621094 136.0625 451.710938 136.0625 455.523438 "/>
<path style=" stroke:none;fill-rule:nonzero;fill:rgb(100%,84.3%,0%);fill-opacity:1;" d="M 148.023438 392.007812 C 148.023438 395.820312 144.929688 398.914062 141.117188 398.914062 C 137.304688 398.914062 134.214844 395.820312 134.214844 392.007812 C 134.214844 388.195312 137.304688 385.105469 141.117188 385.105469 C 144.929688 385.105469 148.023438 388.195312 148.023438 392.007812 "/>
<path style=" stroke:none;fill-rule:nonzero;fill:rgb(100%,84.3%,0%);fill-opacity:1;" d="M 34.796875 229.074219 C 34.796875 232.886719 31.703125 235.976562 27.890625 235.976562 C 24.078125 235.976562 20.988281 232.886719 20.988281 229.074219 C 20.988281 225.261719 24.078125 222.171875 27.890625 222.171875 C 31.703125 222.171875 34.796875 225.261719 34.796875 229.074219 "/>
<path style=" stroke:none;fill-rule:nonzero;fill:rgb(100%,84.3%,0%);fill-opacity:1;" d="M 34.796875 215.265625 C 34.796875 219.078125 31.703125 222.171875 27.890625 222.171875 C 24.078125 222.171875 20.988281 219.078125 20.988281 215.265625 C 20.988281 211.453125 24.078125 208.363281 27.890625 208.363281 C 31.703125 208.363281 34.796875 211.453125 34.796875 215.265625 "/>
<path style=" stroke:none;fill-rule:nonzero;fill:rgb(100%,84.3%,0%);fill-opacity:1;" d="M 62.410156 187.648438 C 62.410156 191.464844 59.320312 194.554688 55.507812 194.554688 C 51.695312 194.554688 48.605469 191.464844 48.605469 187.648438 C 48.605469 183.835938 51.695312 180.746094 55.507812 180.746094 C 59.320312 180.746094 62.410156 183.835938 62.410156 187.648438 "/>
<path style=" stroke:none;fill-rule:nonzero;fill:rgb(100%,84.3%,0%);fill-opacity:1;" d="M 148.023438 97.898438 C 148.023438 101.710938 144.929688 104.804688 141.117188 104.804688 C 137.304688 104.804688 134.214844 101.710938 134.214844 97.898438 C 134.214844 94.085938 137.304688 90.996094 141.117188 90.996094 C 144.929688 90.996094 148.023438 94.085938 148.023438 97.898438 "/>
<path style=" stroke:none;fill-rule:nonzero;fill:rgb(100%,84.3%,0%);fill-opacity:1;" d="M 34.796875 187.648438 C 34.796875 191.464844 31.703125 194.554688 27.890625 194.554688 C 24.078125 194.554688 20.988281 191.464844 20.988281 187.648438 C 20.988281 183.835938 24.078125 180.746094 27.890625 180.746094 C 31.703125 180.746094 34.796875 183.835938 34.796875 187.648438 "/>
<path style=" stroke:none;fill-rule:nonzero;fill:rgb(100%,84.3%,0%);fill-opacity:1;" d="M 148.023438 448.621094 C 148.023438 452.433594 144.929688 455.523438 141.117188 455.523438 C 137.304688 455.523438 134.214844 452.433594 134.214844 448.621094 C 134.214844 444.808594 137.304688 441.71875 141.117188 441.71875 C 144.929688 441.71875 148.023438 444.808594 148.023438 448.621094 "/>
<path style=" stroke:none;fill-rule:nonzero;fill:rgb(100%,84.3%,0%);fill-opacity:1;" d="M 34.796875 346.441406 C 34.796875 350.253906 31.703125 353.347656 27.890625 353.347656 C 24.078125 353.347656 20.988281 350.253906 20.988281 346.441406 C 20.988281 342.628906 24.078125 339.539062 27.890625 339.539062 C 31.703125 339.539062 34.796875 342.628906 34.796875 346.441406 "/>
<path style=" stroke:none;fill-rule:nonzero;fill:rgb(100%,84.3%,0%);fill-opacity:1;" d="M 34.796875 387.867188 C 34.796875 391.679688 31.703125 394.769531 27.890625 394.769531 C 24.078125 394.769531 20.988281 391.679688 20.988281 387.867188 C 20.988281 384.054688 24.078125 380.960938 27.890625 380.960938 C 31.703125 380.960938 34.796875 384.054688 34.796875 387.867188 "/>
<path style=" stroke:none;fill-rule:nonzero;fill:rgb(100%,84.3%,0%);fill-opacity:1;" d="M 148.023438 364.394531 C 148.023438 368.207031 144.929688 371.296875 141.117188 371.296875 C 137.304688 371.296875 134.214844 368.207031 134.214844 364.394531 C 134.214844 360.578125 137.304688 357.488281 141.117188 357.488281 C 144.929688 357.488281 148.023438 360.578125 148.023438 364.394531 "/>
<path style=" stroke:none;fill-rule:nonzero;fill:rgb(100%,84.3%,0%);fill-opacity:1;" d="M 34.796875 173.84375 C 34.796875 177.65625 31.703125 180.746094 27.890625 180.746094 C 24.078125 180.746094 20.988281 177.65625 20.988281 173.84375 C 20.988281 170.027344 24.078125 166.9375 27.890625 166.9375 C 31.703125 166.9375 34.796875 170.027344 34.796875 173.84375 "/>
<path style=" stroke:none;fill-rule:nonzero;fill:rgb(100%,84.3%,0%);fill-opacity:1;" d="M 148.023438 419.625 C 148.023438 423.4375 144.929688 426.527344 141.117188 426.527344 C 137.304688 426.527344 134.214844 423.4375 134.214844 419.625 C 134.214844 415.8125 137.304688 412.722656 141.117188 412.722656 C 144.929688 412.722656 148.023438 415.8125 148.023438 419.625 "/>
<path style=" stroke:none;fill-rule:nonzero;fill:rgb(100%,84.3%,0%);fill-opacity:1;" d="M 46.753906 422.386719 C 46.753906 426.199219 43.664062 429.289062 39.851562 429.289062 C 36.035156 429.289062 32.945312 426.199219 32.945312 422.386719 C 32.945312 418.574219 36.035156 415.480469 39.851562 415.480469 C 43.664062 415.480469 46.753906 418.574219 46.753906 422.386719 "/>
<path style=" stroke:none;fill-rule:nonzero;fill:rgb(100%,84.3%,0%);fill-opacity:1;" d="M 94.640625 455.523438 C 94.640625 459.339844 91.550781 462.429688 87.734375 462.429688 C 83.921875 462.429688 80.832031 459.339844 80.832031 455.523438 C 80.832031 451.710938 83.921875 448.621094 87.734375 448.621094 C 91.550781 448.621094 94.640625 451.710938 94.640625 455.523438 "/>
<path style=" stroke:none;fill-rule:nonzero;fill:rgb(100%,84.3%,0%);fill-opacity:1;" d="M 122.257812 455.523438 C 122.257812 459.339844 119.164062 462.429688 115.351562 462.429688 C 111.539062 462.429688 108.449219 459.339844 108.449219 455.523438 C 108.449219 451.710938 111.539062 448.621094 115.351562 448.621094 C 119.164062 448.621094 122.257812 451.710938 122.257812 455.523438 "/>
<path style=" stroke:none;fill-rule:nonzero;fill:rgb(100%,84.3%,0%);fill-opacity:1;" d="M 77.574219 127.363281 C 77.574219 131.175781 74.484375 134.269531 70.671875 134.269531 C 66.855469 134.269531 63.765625 131.175781 63.765625 127.363281 C 63.765625 123.550781 66.855469 120.460938 70.671875 120.460938 C 74.484375 120.460938 77.574219 123.550781 77.574219 127.363281 "/>
<path style=" stroke:none;fill-rule:nonzero;fill:rgb(100%,84.3%,0%);fill-opacity:1;" d="M 46.753906 166.9375 C 46.753906 170.75 43.664062 173.84375 39.851562 173.84375 C 36.035156 173.84375 32.945312 170.75 32.945312 166.9375 C 32.945312 163.125 36.035156 160.035156 39.851562 160.035156 C 43.664062 160.035156 46.753906 163.125 46.753906 166.9375 "/>
<path style=" stroke:none;fill-rule:nonzero;fill:rgb(100%,84.3%,0%);fill-opacity:1;" d="M 34.796875 146.226562 C 34.796875 150.039062 31.703125 153.128906 27.890625 153.128906 C 24.078125 153.128906 20.988281 150.039062 20.988281 146.226562 C 20.988281 142.414062 24.078125 139.320312 27.890625 139.320312 C 31.703125 139.320312 34.796875 142.414062 34.796875 146.226562 "/>
<path style=" stroke:none;fill-rule:nonzero;fill:rgb(100%,84.3%,0%);fill-opacity:1;" d="M 48.605469 187.648438 C 48.605469 191.464844 45.511719 194.554688 41.699219 194.554688 C 37.886719 194.554688 34.796875 191.464844 34.796875 187.648438 C 34.796875 183.835938 37.886719 180.746094 41.699219 180.746094 C 45.511719 180.746094 48.605469 183.835938 48.605469 187.648438 "/>
<path style=" stroke:none;fill-rule:nonzero;fill:rgb(100%,84.3%,0%);fill-opacity:1;" d="M 148.023438 378.199219 C 148.023438 382.015625 144.929688 385.105469 141.117188 385.105469 C 137.304688 385.105469 134.214844 382.015625 134.214844 378.199219 C 134.214844 374.386719 137.304688 371.296875 141.117188 371.296875 C 144.929688 371.296875 148.023438 374.386719 148.023438 378.199219 "/>
<path style=" stroke:none;fill-rule:nonzero;fill:rgb(100%,84.3%,0%);fill-opacity:1;" d="M 34.796875 401.675781 C 34.796875 405.488281 31.703125 408.578125 27.890625 408.578125 C 24.078125 408.578125 20.988281 405.488281 20.988281 401.675781 C 20.988281 397.859375 24.078125 394.769531 27.890625 394.769531 C 31.703125 394.769531 34.796875 397.859375 34.796875 401.675781 "/>
<path style=" stroke:none;fill-rule:nonzero;fill:rgb(100%,84.3%,0%);fill-opacity:1;" d="M 67.023438 455.523438 C 67.023438 459.339844 63.933594 462.429688 60.121094 462.429688 C 56.308594 462.429688 53.214844 459.339844 53.214844 455.523438 C 53.214844 451.710938 56.308594 448.621094 60.121094 448.621094 C 63.933594 448.621094 67.023438 451.710938 67.023438 455.523438 "/>
<path style=" stroke:none;fill-rule:nonzero;fill:rgb(100%,84.3%,0%);fill-opacity:1;" d="M 148.023438 111.707031 C 148.023438 115.519531 144.929688 118.609375 141.117188 118.609375 C 137.304688 118.609375 134.214844 115.519531 134.214844 111.707031 C 134.214844 107.894531 137.304688 104.804688 141.117188 104.804688 C 144.929688 104.804688 148.023438 107.894531 148.023438 111.707031 "/>
<path style=" stroke:none;fill-rule:nonzero;fill:rgb(100%,84.3%,0%);fill-opacity:1;" d="M 34.796875 360.25 C 34.796875 364.0625 31.703125 367.152344 27.890625 367.152344 C 24.078125 367.152344 20.988281 364.0625 20.988281 360.25 C 20.988281 356.4375 24.078125 353.347656 27.890625 353.347656 C 31.703125 353.347656 34.796875 356.4375 34.796875 360.25 "/>
<path style=" stroke:none;fill-rule:nonzero;fill:rgb(100%,84.3%,0%);fill-opacity:1;" d="M 34.796875 415.480469 C 34.796875 419.296875 31.703125 422.386719 27.890625 422.386719 C 24.078125 422.386719 20.988281 419.296875 20.988281 415.480469 C 20.988281 411.667969 24.078125 408.578125 27.890625 408.578125 C 31.703125 408.578125 34.796875 411.667969 34.796875 415.480469 "/>
<path style=" stroke:none;fill-rule:nonzero;fill:rgb(100%,84.3%,0%);fill-opacity:1;" d="M 148.023438 336.777344 C 148.023438 340.589844 144.929688 343.679688 141.117188 343.679688 C 137.304688 343.679688 134.214844 340.589844 134.214844 336.777344 C 134.214844 332.964844 137.304688 329.871094 141.117188 329.871094 C 144.929688 329.871094 148.023438 332.964844 148.023438 336.777344 "/>
<path style=" stroke:none;fill-rule:nonzero;fill:rgb(100%,84.3%,0%);fill-opacity:1;" d="M 34.796875 332.632812 C 34.796875 336.445312 31.703125 339.539062 27.890625 339.539062 C 24.078125 339.539062 20.988281 336.445312 20.988281 332.632812 C 20.988281 328.820312 24.078125 325.730469 27.890625 325.730469 C 31.703125 325.730469 34.796875 328.820312 34.796875 332.632812 "/>
<path style=" stroke:none;fill-rule:nonzero;fill:rgb(100%,84.3%,0%);fill-opacity:1;" d="M 34.796875 256.691406 C 34.796875 260.503906 31.703125 263.59375 27.890625 263.59375 C 24.078125 263.59375 20.988281 260.503906 20.988281 256.691406 C 20.988281 252.878906 24.078125 249.785156 27.890625 249.785156 C 31.703125 249.785156 34.796875 252.878906 34.796875 256.691406 "/>
<path style=" stroke:none;fill-rule:nonzero;fill:rgb(100%,84.3%,0%);fill-opacity:1;" d="M 141.117188 85.941406 C 141.117188 89.753906 138.027344 92.84375 134.214844 92.84375 C 130.402344 92.84375 127.308594 89.753906 127.308594 85.941406 C 127.308594 82.128906 130.402344 79.035156 134.214844 79.035156 C 138.027344 79.035156 141.117188 82.128906 141.117188 85.941406 "/>
<path style=" stroke:none;fill-rule:nonzero;fill:rgb(100%,84.3%,0%);fill-opacity:1;" d="M 148.023438 322.96875 C 148.023438 326.78125 144.929688 329.871094 141.117188 329.871094 C 137.304688 329.871094 134.214844 326.78125 134.214844 322.96875 C 134.214844 319.15625 137.304688 316.066406 141.117188 316.066406 C 144.929688 316.066406 148.023438 319.15625 148.023438 322.96875 "/>
<path style=" stroke:none;fill-rule:nonzero;fill:rgb(100%,84.3%,0%);fill-opacity:1;" d="M 148.023438 434.8125 C 148.023438 438.625 144.929688 441.71875 141.117188 441.71875 C 137.304688 441.71875 134.214844 438.625 134.214844 434.8125 C 134.214844 431 137.304688 427.910156 141.117188 427.910156 C 144.929688 427.910156 148.023438 431 148.023438 434.8125 "/>
<path style=" stroke:none;fill-rule:nonzero;fill:rgb(100%,84.3%,0%);fill-opacity:1;" d="M 58.710938 132.417969 C 58.710938 136.230469 55.621094 139.320312 51.808594 139.320312 C 47.996094 139.320312 44.902344 136.230469 44.902344 132.417969 C 44.902344 128.605469 47.996094 125.515625 51.808594 125.515625 C 55.621094 125.515625 58.710938 128.605469 58.710938 132.417969 "/>
<path style=" stroke:none;fill-rule:nonzero;fill:rgb(100%,84.3%,0%);fill-opacity:1;" d="M 34.796875 160.035156 C 34.796875 163.847656 31.703125 166.9375 27.890625 166.9375 C 24.078125 166.9375 20.988281 163.847656 20.988281 160.035156 C 20.988281 156.222656 24.078125 153.128906 27.890625 153.128906 C 31.703125 153.128906 34.796875 156.222656 34.796875 160.035156 "/>
<path style=" stroke:none;fill-rule:nonzero;fill:rgb(100%,84.3%,0%);fill-opacity:1;" d="M 34.796875 242.882812 C 34.796875 246.695312 31.703125 249.785156 27.890625 249.785156 C 24.078125 249.785156 20.988281 246.695312 20.988281 242.882812 C 20.988281 239.070312 24.078125 235.976562 27.890625 235.976562 C 31.703125 235.976562 34.796875 239.070312 34.796875 242.882812 "/>
<path style=" stroke:none;fill-rule:nonzero;fill:rgb(100%,84.3%,0%);fill-opacity:1;" d="M 34.796875 201.457031 C 34.796875 205.269531 31.703125 208.363281 27.890625 208.363281 C 24.078125 208.363281 20.988281 205.269531 20.988281 201.457031 C 20.988281 197.644531 24.078125 194.554688 27.890625 194.554688 C 31.703125 194.554688 34.796875 197.644531 34.796875 201.457031 "/>
<path style=" stroke:none;fill-rule:nonzero;fill:rgb(100%,84.3%,0%);fill-opacity:1;" d="M 89.53125 120.460938 C 89.53125 124.273438 86.441406 127.363281 82.628906 127.363281 C 78.816406 127.363281 75.722656 124.273438 75.722656 120.460938 C 75.722656 116.648438 78.816406 113.554688 82.628906 113.554688 C 86.441406 113.554688 89.53125 116.648438 89.53125 120.460938 "/>
<path style=" stroke:none;fill-rule:nonzero;fill:rgb(100%,84.3%,0%);fill-opacity:1;" d="M 148.023438 405.816406 C 148.023438 409.628906 144.929688 412.722656 141.117188 412.722656 C 137.304688 412.722656 134.214844 409.628906 134.214844 405.816406 C 134.214844 402.003906 137.304688 398.914062 141.117188 398.914062 C 144.929688 398.914062 148.023438 402.003906 148.023438 405.816406 "/>
<path style=" stroke:none;fill-rule:nonzero;fill:rgb(100%,84.3%,0%);fill-opacity:1;" d="M 108.449219 455.523438 C 108.449219 459.339844 105.355469 462.429688 101.542969 462.429688 C 97.730469 462.429688 94.640625 459.339844 94.640625 455.523438 C 94.640625 451.710938 97.730469 448.621094 101.542969 448.621094 C 105.355469 448.621094 108.449219 451.710938 108.449219 455.523438 "/>
</g>
</svg>
