<?xml version="1.0" encoding="UTF-8"?>
<svg xmlns="http://www.w3.org/2000/svg" xmlns:xlink="http://www.w3.org/1999/xlink" width="512pt" height="512pt" viewBox="0 0 512 512" version="1.1">
<g id="surface196">
<rect x="0" y="0" width="512" height="512" style="fill:rgb(26.7%,26.7%,26.7%);fill-opacity:1;stroke:none;"/>
<path style=" stroke:none;fill-rule:nonzero;fill:rgb(19.2%,38.8%,66.7%);fill-opacity:1;" d="M 39.820312 42.667969 L 438.042969 42.667969 L 438.042969 469.332031 L 39.820312 469.332031 Z M 39.820312 42.667969 "/>
<path style=" stroke:none;fill-rule:nonzero;fill:rgb(100%,100%,100%);fill-opacity:1;" d="M 39.820312 313.984375 C 39.820312 320.023438 34.925781 324.921875 28.882812 324.921875 C 22.839844 324.921875 17.941406 320.023438 17.941406 313.984375 C 17.941406 307.941406 22.839844 303.042969 28.882812 303.042969 C 34.925781 303.042969 39.820312 307.941406 39.820312 313.984375 "/>
<path style=" stroke:none;fill-rule:nonzero;fill:rgb(100%,100%,100%);fill-opacity:1;" d="M 346.148438 506.53125 C 346.148438 512.570312 341.25 517.46875 335.207031 517.46875 C 329.164062 517.46875 324.265625 512.570312 324.265625 506.53125 C 324.265625 500.488281 329.164062 495.589844 335.207031 495.589844 C 341.25 495.589844 346.148438 500.488281 346.148438 506.53125 "/>
<path style=" stroke:none;fill-rule:nonzero;fill:rgb(100%,100%,100%);fill-opacity:1;" d="M 516.8125 82.050781 C 516.8125 88.09375 511.917969 92.992188 505.875 92.992188 C 499.832031 92.992188 494.933594 88.09375 494.933594 82.050781 C 494.933594 76.007812 499.832031 71.109375 505.875 71.109375 C 511.917969 71.109375 516.8125 76.007812 516.8125 82.050781 "/>
<path style=" stroke:none;fill-rule:nonzero;fill:rgb(100%,100%,100%);fill-opacity:1;" d="M 39.820312 79.863281 C 39.820312 85.90625 34.925781 90.804688 28.882812 90.804688 C 22.839844 90.804688 17.941406 85.90625 17.941406 79.863281 C 17.941406 73.820312 22.839844 68.921875 28.882812 68.921875 C 34.925781 68.921875 39.820312 73.820312 39.820312 79.863281 "/>
<path style=" stroke:none;fill-rule:nonzero;fill:rgb(100%,100%,100%);fill-opacity:1;" d="M 42.011719 47.042969 C 42.011719 53.085938 37.113281 57.984375 31.070312 57.984375 C 25.027344 57.984375 20.128906 53.085938 20.128906 47.042969 C 20.128906 41 25.027344 36.101562 31.070312 36.101562 C 37.113281 36.101562 42.011719 41 42.011719 47.042969 "/>
<path style=" stroke:none;fill-rule:nonzero;fill:rgb(100%,100%,100%);fill-opacity:1;" d="M 492.746094 47.042969 C 492.746094 53.085938 487.847656 57.984375 481.804688 57.984375 C 475.761719 57.984375 470.863281 53.085938 470.863281 47.042969 C 470.863281 41 475.761719 36.101562 481.804688 36.101562 C 487.847656 36.101562 492.746094 41 492.746094 47.042969 "/>
<path style=" stroke:none;fill-rule:nonzero;fill:rgb(100%,100%,100%);fill-opacity:1;" d="M 418.351562 519.65625 C 418.351562 525.699219 413.453125 530.597656 407.410156 530.597656 C 401.371094 530.597656 396.472656 525.699219 396.472656 519.65625 C 396.472656 513.617188 401.371094 508.71875 407.410156 508.71875 C 413.453125 508.71875 418.351562 513.617188 418.351562 519.65625 "/>
<path style=" stroke:none;fill-rule:nonzero;fill:rgb(100%,100%,100%);fill-opacity:1;" d="M 488.371094 489.027344 C 488.371094 495.066406 483.472656 499.964844 477.429688 499.964844 C 471.386719 499.964844 466.488281 495.066406 466.488281 489.027344 C 466.488281 482.984375 471.386719 478.085938 477.429688 478.085938 C 483.472656 478.085938 488.371094 482.984375 488.371094 489.027344 "/>
<path style=" stroke:none;fill-rule:nonzero;fill:rgb(100%,100%,100%);fill-opacity:1;" d="M 501.496094 239.589844 C 501.496094 245.632812 496.597656 250.53125 490.558594 250.53125 C 484.515625 250.53125 479.617188 245.632812 479.617188 239.589844 C 479.617188 233.546875 484.515625 228.648438 490.558594 228.648438 C 496.597656 228.648438 501.496094 233.546875 501.496094 239.589844 "/>
<path style=" stroke:none;fill-rule:nonzero;fill:rgb(100%,100%,100%);fill-opacity:1;" d="M 48.574219 213.332031 C 48.574219 219.375 43.675781 224.273438 37.632812 224.273438 C 31.59375 224.273438 26.695312 219.375 26.695312 213.332031 C 26.695312 207.289062 31.59375 202.394531 37.632812 202.394531 C 43.675781 202.394531 48.574219 207.289062 48.574219 213.332031 "/>
<path style=" stroke:none;fill-rule:nonzero;fill:rgb(100%,100%,100%);fill-opacity:1;" d="M 341.769531 12.035156 C 341.769531 18.074219 336.875 22.972656 330.832031 22.972656 C 324.789062 22.972656 319.890625 18.074219 319.890625 12.035156 C 319.890625 5.992188 324.789062 1.09375 330.832031 1.09375 C 336.875 1.09375 341.769531 5.992188 341.769531 12.035156 "/>
<path style=" stroke:none;fill-rule:nonzero;fill:rgb(100%,100%,100%);fill-opacity:1;" d="M 48.574219 33.914062 C 48.574219 39.957031 43.675781 44.855469 37.632812 44.855469 C 31.59375 44.855469 26.695312 39.957031 26.695312 33.914062 C 26.695312 27.871094 31.59375 22.976562 37.632812 22.976562 C 43.675781 22.976562 48.574219 27.871094 48.574219 33.914062 "/>
<path style=" stroke:none;fill-rule:nonzero;fill:rgb(100%,100%,100%);fill-opacity:1;" d="M 462.113281 82.050781 C 462.113281 88.09375 457.214844 92.992188 451.171875 92.992188 C 445.132812 92.992188 440.234375 88.09375 440.234375 82.050781 C 440.234375 76.007812 445.132812 71.109375 451.171875 71.109375 C 457.214844 71.109375 462.113281 76.007812 462.113281 82.050781 "/>
<path style=" stroke:none;fill-rule:nonzero;fill:rgb(100%,100%,100%);fill-opacity:1;" d="M 435.855469 3.28125 C 435.855469 9.324219 430.957031 14.222656 424.914062 14.222656 C 418.875 14.222656 413.976562 9.324219 413.976562 3.28125 C 413.976562 -2.761719 418.875 -7.65625 424.914062 -7.65625 C 430.957031 -7.65625 435.855469 -2.761719 435.855469 3.28125 "/>
<path style=" stroke:none;fill-rule:nonzero;fill:rgb(100%,100%,100%);fill-opacity:1;" d="M 28.882812 475.898438 C 28.882812 481.9375 23.984375 486.835938 17.941406 486.835938 C 11.898438 486.835938 7 481.9375 7 475.898438 C 7 469.855469 11.898438 464.957031 17.941406 464.957031 C 23.984375 464.957031 28.882812 469.855469 28.882812 475.898438 "/>
<path style=" stroke:none;fill-rule:nonzero;fill:rgb(100%,100%,100%);fill-opacity:1;" d="M 190.796875 504.34375 C 190.796875 510.382812 185.898438 515.28125 179.855469 515.28125 C 173.8125 515.28125 168.914062 510.382812 168.914062 504.34375 C 168.914062 498.300781 173.8125 493.402344 179.855469 493.402344 C 185.898438 493.402344 190.796875 498.300781 190.796875 504.34375 "/>
<path style=" stroke:none;fill-rule:nonzero;fill:rgb(100%,100%,100%);fill-opacity:1;" d="M 39.820312 504.34375 C 39.820312 510.382812 34.925781 515.28125 28.882812 515.28125 C 22.839844 515.28125 17.941406 510.382812 17.941406 504.34375 C 17.941406 498.300781 22.839844 493.402344 28.882812 493.402344 C 34.925781 493.402344 39.820312 498.300781 39.820312 504.34375 "/>
<path style=" stroke:none;fill-rule:nonzero;fill:rgb(100%,100%,100%);fill-opacity:1;" d="M 363.652344 -9.847656 C 363.652344 -3.804688 358.753906 1.09375 352.710938 1.09375 C 346.667969 1.09375 341.769531 -3.804688 341.769531 -9.847656 C 341.769531 -15.886719 346.667969 -20.785156 352.710938 -20.785156 C 358.753906 -20.785156 363.652344 -15.886719 363.652344 -9.847656 "/>
<path style=" stroke:none;fill-rule:nonzero;fill:rgb(100%,100%,100%);fill-opacity:1;" d="M 227.992188 40.480469 C 227.992188 46.519531 223.09375 51.417969 217.054688 51.417969 C 211.011719 51.417969 206.113281 46.519531 206.113281 40.480469 C 206.113281 34.4375 211.011719 29.539062 217.054688 29.539062 C 223.09375 29.539062 227.992188 34.4375 227.992188 40.480469 "/>
<path style=" stroke:none;fill-rule:nonzero;fill:rgb(100%,100%,100%);fill-opacity:1;" d="M 282.695312 473.710938 C 282.695312 479.75 277.796875 484.648438 271.753906 484.648438 C 265.710938 484.648438 260.8125 479.75 260.8125 473.710938 C 260.8125 467.667969 265.710938 462.769531 271.753906 462.769531 C 277.796875 462.769531 282.695312 467.667969 282.695312 473.710938 "/>
<path style=" stroke:none;fill-rule:nonzero;fill:rgb(100%,100%,100%);fill-opacity:1;" d="M 195.171875 3.28125 C 195.171875 9.324219 190.273438 14.222656 184.230469 14.222656 C 178.191406 14.222656 173.292969 9.324219 173.292969 3.28125 C 173.292969 -2.761719 178.191406 -7.65625 184.230469 -7.65625 C 190.273438 -7.65625 195.171875 -2.761719 195.171875 3.28125 "/>
<path style=" stroke:none;fill-rule:nonzero;fill:rgb(100%,100%,100%);fill-opacity:1;" d="M 499.308594 160.820312 C 499.308594 166.863281 494.410156 171.761719 488.367188 171.761719 C 482.328125 171.761719 477.429688 166.863281 477.429688 160.820312 C 477.429688 154.777344 482.328125 149.878906 488.367188 149.878906 C 494.410156 149.878906 499.308594 154.777344 499.308594 160.820312 "/>
<path style=" stroke:none;fill-rule:nonzero;fill:rgb(100%,100%,100%);fill-opacity:1;" d="M 223.617188 40.480469 C 223.617188 46.519531 218.71875 51.417969 212.675781 51.417969 C 206.636719 51.417969 201.738281 46.519531 201.738281 40.480469 C 201.738281 34.4375 206.636719 29.539062 212.675781 29.539062 C 218.71875 29.539062 223.617188 34.4375 223.617188 40.480469 "/>
<path style=" stroke:none;fill-rule:nonzero;fill:rgb(100%,100%,100%);fill-opacity:1;" d="M 46.386719 7.65625 C 46.386719 13.699219 41.488281 18.597656 35.445312 18.597656 C 29.402344 18.597656 24.503906 13.699219 24.503906 7.65625 C 24.503906 1.617188 29.402344 -3.28125 35.445312 -3.28125 C 41.488281 -3.28125 46.386719 1.617188 46.386719 7.65625 "/>
<path style=" stroke:none;fill-rule:nonzero;fill:rgb(100%,84.3%,0%);fill-opacity:1;" d="M 223.617188 64.546875 C 223.617188 70.589844 218.71875 75.488281 212.675781 75.488281 C 206.636719 75.488281 201.738281 70.589844 201.738281 64.546875 C 201.738281 58.503906 206.636719 53.605469 212.675781 53.605469 C 218.71875 53.605469 223.617188 58.503906 223.617188 64.546875 "/>
<path style=" stroke:none;fill-rule:nonzero;fill:rgb(100%,84.3%,0%);fill-opacity:1;" d="M 72.644531 213.332031 C 72.644531 219.375 67.746094 224.273438 61.703125 224.273438 C 55.660156 224.273438 50.761719 219.375 50.761719 213.332031 C 50.761719 207.289062 55.660156 202.394531 61.703125 202.394531 C 67.746094 202.394531 72.644531 207.289062 72.644531 213.332031 "/>
<path style=" stroke:none;fill-rule:nonzero;fill:rgb(100%,84.3%,0%);fill-opacity:1;" d="M 282.695312 447.453125 C 282.695312 453.496094 277.796875 458.394531 271.753906 458.394531 C 265.710938 458.394531 260.8125 453.496094 260.8125 447.453125 C 260.8125 441.410156 265.710938 436.511719 271.753906 436.511719 C 277.796875 436.511719 282.695312 441.410156 282.695312 447.453125 "/>
<path style=" stroke:none;fill-rule:nonzero;fill:rgb(100%,84.3%,0%);fill-opacity:1;" d="M 322.078125 64.546875 C 322.078125 70.589844 317.179688 75.488281 311.136719 75.488281 C 305.097656 75.488281 300.199219 70.589844 300.199219 64.546875 C 300.199219 58.503906 305.097656 53.605469 311.136719 53.605469 C 317.179688 53.605469 322.078125 58.503906 322.078125 64.546875 "/>
<path style=" stroke:none;fill-rule:nonzero;fill:rgb(100%,84.3%,0%);fill-opacity:1;" d="M 201.738281 64.546875 C 201.738281 70.589844 196.839844 75.488281 190.796875 75.488281 C 184.753906 75.488281 179.855469 70.589844 179.855469 64.546875 C 179.855469 58.503906 184.753906 53.605469 190.796875 53.605469 C 196.839844 53.605469 201.738281 58.503906 201.738281 64.546875 "/>
<path style=" stroke:none;fill-rule:nonzero;fill:rgb(100%,84.3%,0%);fill-opacity:1;" d="M 72.644531 191.453125 C 72.644531 197.496094 67.746094 202.394531 61.703125 202.394531 C 55.660156 202.394531 50.761719 197.496094 50.761719 191.453125 C 50.761719 185.410156 55.660156 180.511719 61.703125 180.511719 C 67.746094 180.511719 72.644531 185.410156 72.644531 191.453125 "/>
<path style=" stroke:none;fill-rule:nonzero;fill:rgb(100%,84.3%,0%);fill-opacity:1;" d="M 72.644531 235.214844 C 72.644531 241.257812 67.746094 246.152344 61.703125 246.152344 C 55.660156 246.152344 50.761719 241.257812 50.761719 235.214844 C 50.761719 229.171875 55.660156 224.273438 61.703125 224.273438 C 67.746094 224.273438 72.644531 229.171875 72.644531 235.214844 "/>
<path style=" stroke:none;fill-rule:nonzero;fill:rgb(100%,84.3%,0%);fill-opacity:1;" d="M 260.8125 447.453125 C 260.8125 453.496094 255.914062 458.394531 249.871094 458.394531 C 243.832031 458.394531 238.933594 453.496094 238.933594 447.453125 C 238.933594 441.410156 243.832031 436.511719 249.871094 436.511719 C 255.914062 436.511719 260.8125 441.410156 260.8125 447.453125 "/>
<path style=" stroke:none;fill-rule:nonzero;fill:rgb(100%,84.3%,0%);fill-opacity:1;" d="M 304.574219 447.453125 C 304.574219 453.496094 299.675781 458.394531 293.632812 458.394531 C 287.59375 458.394531 282.695312 453.496094 282.695312 447.453125 C 282.695312 441.410156 287.59375 436.511719 293.632812 436.511719 C 299.675781 436.511719 304.574219 441.410156 304.574219 447.453125 "/>
<path style=" stroke:none;fill-rule:nonzero;fill:rgb(100%,84.3%,0%);fill-opacity:1;" d="M 245.496094 64.546875 C 245.496094 70.589844 240.597656 75.488281 234.558594 75.488281 C 228.515625 75.488281 223.617188 70.589844 223.617188 64.546875 C 223.617188 58.503906 228.515625 53.605469 234.558594 53.605469 C 240.597656 53.605469 245.496094 58.503906 245.496094 64.546875 "/>
</g>
</svg>
