<?xml version="1.0" encoding="UTF-8"?>
<svg xmlns="http://www.w3.org/2000/svg" xmlns:xlink="http://www.w3.org/1999/xlink" width="512pt" height="512pt" viewBox="0 0 512 512" version="1.1">
<g id="surface281">
<path style=" stroke:none;fill-rule:nonzero;fill:rgb(26.7%,26.7%,26.7%);fill-opacity:1;" d="M 0 100.308594 L 621.652344 100.308594 L 621.652344 512 L 0 512 Z M 0 100.308594 "/>
<path style=" stroke:none;fill-rule:nonzero;fill:rgb(19.2%,38.8%,66.7%);fill-opacity:1;" d="M 42.667969 376.363281 L 469.332031 376.363281 L 469.332031 499.667969 L 42.667969 499.667969 Z M 42.667969 376.363281 "/>
<path style=" stroke:none;fill-rule:nonzero;fill:rgb(90.6%,14.9%,14.9%);fill-opacity:1;" d="M 202.667969 150.65625 C 202.667969 161.496094 193.878906 170.28125 183.039062 170.28125 C 172.199219 170.28125 163.414062 161.496094 163.414062 150.65625 C 163.414062 139.816406 172.199219 131.03125 183.039062 131.03125 C 193.878906 131.03125 202.667969 139.816406 202.667969 150.65625 "/>
<path style=" stroke:none;fill-rule:nonzero;fill:rgb(90.6%,14.9%,14.9%);fill-opacity:1;" d="M 354.132812 331.136719 C 354.132812 347.867188 340.570312 361.429688 323.839844 361.429688 C 307.109375 361.429688 293.546875 347.867188 293.546875 331.136719 C 293.546875 314.40625 307.109375 300.84375 323.839844 300.84375 C 340.570312 300.84375 354.132812 314.40625 354.132812 331.136719 "/>
<path style=" stroke:none;fill-rule:nonzero;fill:rgb(90.6%,14.9%,14.9%);fill-opacity:1;" d="M 289.28125 265.003906 C 289.28125 275.136719 281.066406 283.351562 270.933594 283.351562 C 260.800781 283.351562 252.585938 275.136719 252.585938 265.003906 C 252.585938 254.871094 260.800781 246.65625 270.933594 246.65625 C 281.066406 246.65625 289.28125 254.871094 289.28125 265.003906 "/>
<path style=" stroke:none;fill-rule:nonzero;fill:rgb(90.6%,14.9%,14.9%);fill-opacity:1;" d="M 472.320312 154.496094 C 472.320312 163.921875 464.679688 171.5625 455.253906 171.5625 C 445.828125 171.5625 438.1875 163.921875 438.1875 154.496094 C 438.1875 145.070312 445.828125 137.429688 455.253906 137.429688 C 464.679688 137.429688 472.320312 145.070312 472.320312 154.496094 "/>
<path style=" stroke:none;fill-rule:nonzero;fill:rgb(90.6%,14.9%,14.9%);fill-opacity:1;" d="M 178.347656 253.054688 C 178.347656 267.902344 166.3125 279.9375 151.46875 279.9375 C 136.621094 279.9375 124.585938 267.902344 124.585938 253.054688 C 124.585938 238.210938 136.621094 226.175781 151.46875 226.175781 C 166.3125 226.175781 178.347656 238.210938 178.347656 253.054688 "/>
<path style=" stroke:none;fill-rule:nonzero;fill:rgb(90.6%,14.9%,14.9%);fill-opacity:1;" d="M 265.386719 143.402344 C 265.386719 162.960938 249.53125 178.816406 229.972656 178.816406 C 210.414062 178.816406 194.558594 162.960938 194.558594 143.402344 C 194.558594 123.84375 210.414062 107.988281 229.972656 107.988281 C 249.53125 107.988281 265.386719 123.84375 265.386719 143.402344 "/>
<path style=" stroke:none;fill-rule:nonzero;fill:rgb(90.6%,14.9%,14.9%);fill-opacity:1;" d="M 147.199219 356.734375 C 147.199219 360.976562 143.761719 364.414062 139.519531 364.414062 C 135.277344 364.414062 131.839844 360.976562 131.839844 356.734375 C 131.839844 352.496094 135.277344 349.054688 139.519531 349.054688 C 143.761719 349.054688 147.199219 352.496094 147.199219 356.734375 "/>
<path style=" stroke:none;fill-rule:nonzero;fill:rgb(90.6%,14.9%,14.9%);fill-opacity:1;" d="M 214.1875 273.535156 C 214.1875 291.679688 199.476562 306.390625 181.332031 306.390625 C 163.1875 306.390625 148.480469 291.679688 148.480469 273.535156 C 148.480469 255.390625 163.1875 240.683594 181.332031 240.683594 C 199.476562 240.683594 214.1875 255.390625 214.1875 273.535156 "/>
<path style=" stroke:none;fill-rule:nonzero;fill:rgb(90.6%,14.9%,14.9%);fill-opacity:1;" d="M 466.773438 331.5625 C 466.773438 342.167969 458.175781 350.761719 447.574219 350.761719 C 436.96875 350.761719 428.371094 342.167969 428.371094 331.5625 C 428.371094 320.960938 436.96875 312.363281 447.574219 312.363281 C 458.175781 312.363281 466.773438 320.960938 466.773438 331.5625 "/>
<path style=" stroke:none;fill-rule:nonzero;fill:rgb(90.6%,14.9%,14.9%);fill-opacity:1;" d="M 369.492188 145.964844 C 369.492188 149.261719 366.820312 151.9375 363.519531 151.9375 C 360.222656 151.9375 357.546875 149.261719 357.546875 145.964844 C 357.546875 142.664062 360.222656 139.988281 363.519531 139.988281 C 366.820312 139.988281 369.492188 142.664062 369.492188 145.964844 "/>
<path style=" stroke:none;fill-rule:nonzero;fill:rgb(90.6%,14.9%,14.9%);fill-opacity:1;" d="M 20.90625 442.070312 C 20.90625 449.609375 14.792969 455.722656 7.253906 455.722656 C -0.289062 455.722656 -6.398438 449.609375 -6.398438 442.070312 C -6.398438 434.527344 -0.289062 428.414062 7.253906 428.414062 C 14.792969 428.414062 20.90625 434.527344 20.90625 442.070312 "/>
<path style=" stroke:none;fill-rule:nonzero;fill:rgb(90.6%,14.9%,14.9%);fill-opacity:1;" d="M 35.414062 171.988281 C 35.414062 190.132812 20.703125 204.84375 2.558594 204.84375 C -15.585938 204.84375 -30.292969 190.132812 -30.292969 171.988281 C -30.292969 153.84375 -15.585938 139.136719 2.558594 139.136719 C 20.703125 139.136719 35.414062 153.84375 35.414062 171.988281 "/>
<path style=" stroke:none;fill-rule:nonzero;fill:rgb(90.6%,14.9%,14.9%);fill-opacity:1;" d="M 214.1875 367.402344 C 214.1875 372.117188 210.367188 375.9375 205.652344 375.9375 C 200.941406 375.9375 197.121094 372.117188 197.121094 367.402344 C 197.121094 362.691406 200.941406 358.871094 205.652344 358.871094 C 210.367188 358.871094 214.1875 362.691406 214.1875 367.402344 "/>
<path style=" stroke:none;fill-rule:nonzero;fill:rgb(90.6%,14.9%,14.9%);fill-opacity:1;" d="M 248.320312 178.816406 C 248.320312 194.839844 235.332031 207.828125 219.308594 207.828125 C 203.285156 207.828125 190.292969 194.839844 190.292969 178.816406 C 190.292969 162.792969 203.285156 149.800781 219.308594 149.800781 C 235.332031 149.800781 248.320312 162.792969 248.320312 178.816406 "/>
<path style=" stroke:none;fill-rule:nonzero;fill:rgb(90.6%,14.9%,14.9%);fill-opacity:1;" d="M 307.625 311.082031 C 307.625 326.398438 295.210938 338.816406 279.894531 338.816406 C 264.578125 338.816406 252.160156 326.398438 252.160156 311.082031 C 252.160156 295.765625 264.578125 283.351562 279.894531 283.351562 C 295.210938 283.351562 307.625 295.765625 307.625 311.082031 "/>
<path style=" stroke:none;fill-rule:nonzero;fill:rgb(100%,100%,100%);fill-opacity:1;" d="M 366.082031 276.523438 C 366.082031 279.367188 361.8125 279.367188 361.8125 276.523438 C 361.8125 273.679688 366.082031 273.679688 366.082031 276.523438 "/>
<path style=" stroke:none;fill-rule:nonzero;fill:rgb(100%,100%,100%);fill-opacity:1;" d="M 389.121094 252.628906 C 389.121094 255.472656 384.855469 255.472656 384.855469 252.628906 C 384.855469 249.785156 389.121094 249.785156 389.121094 252.628906 "/>
<path style=" stroke:none;fill-rule:nonzero;fill:rgb(100%,100%,100%);fill-opacity:1;" d="M 43.09375 135.722656 C 43.09375 138.566406 38.828125 138.566406 38.828125 135.722656 C 38.828125 132.878906 43.09375 132.878906 43.09375 135.722656 "/>
<path style=" stroke:none;fill-rule:nonzero;fill:rgb(100%,100%,100%);fill-opacity:1;" d="M 343.894531 200.574219 C 343.894531 203.421875 339.625 203.421875 339.625 200.574219 C 339.625 197.730469 343.894531 197.730469 343.894531 200.574219 "/>
<path style=" stroke:none;fill-rule:nonzero;fill:rgb(100%,100%,100%);fill-opacity:1;" d="M 190.292969 353.324219 C 190.292969 356.167969 186.027344 356.167969 186.027344 353.324219 C 186.027344 350.480469 190.292969 350.480469 190.292969 353.324219 "/>
<path style=" stroke:none;fill-rule:nonzero;fill:rgb(100%,100%,100%);fill-opacity:1;" d="M 218.027344 268.84375 C 218.027344 271.6875 213.757812 271.6875 213.757812 268.84375 C 213.757812 266 218.027344 266 218.027344 268.84375 "/>
<path style=" stroke:none;fill-rule:nonzero;fill:rgb(100%,100%,100%);fill-opacity:1;" d="M 34.988281 213.375 C 34.988281 216.21875 30.71875 216.21875 30.71875 213.375 C 30.71875 210.53125 34.988281 210.53125 34.988281 213.375 "/>
<path style=" stroke:none;fill-rule:nonzero;fill:rgb(100%,100%,100%);fill-opacity:1;" d="M 183.039062 375.507812 C 183.039062 378.351562 178.773438 378.351562 178.773438 375.507812 C 178.773438 372.664062 183.039062 372.664062 183.039062 375.507812 "/>
<path style=" stroke:none;fill-rule:nonzero;fill:rgb(100%,100%,100%);fill-opacity:1;" d="M 241.492188 280.363281 C 241.492188 283.207031 237.226562 283.207031 237.226562 280.363281 C 237.226562 277.519531 241.492188 277.519531 241.492188 280.363281 "/>
<path style=" stroke:none;fill-rule:nonzero;fill:rgb(100%,100%,100%);fill-opacity:1;" d="M 176.214844 238.121094 C 176.214844 240.96875 171.945312 240.96875 171.945312 238.121094 C 171.945312 235.277344 176.214844 235.277344 176.214844 238.121094 "/>
<path style=" stroke:none;fill-rule:nonzero;fill:rgb(100%,100%,100%);fill-opacity:1;" d="M 79.359375 336.683594 C 79.359375 339.527344 75.09375 339.527344 75.09375 336.683594 C 75.09375 333.839844 79.359375 333.839844 79.359375 336.683594 "/>
<path style=" stroke:none;fill-rule:nonzero;fill:rgb(100%,100%,100%);fill-opacity:1;" d="M 5.972656 225.75 C 5.972656 228.59375 1.707031 228.59375 1.707031 225.75 C 1.707031 222.90625 5.972656 222.90625 5.972656 225.75 "/>
<path style=" stroke:none;fill-rule:nonzero;fill:rgb(100%,100%,100%);fill-opacity:1;" d="M 421.121094 292.308594 C 421.121094 295.152344 416.855469 295.152344 416.855469 292.308594 C 416.855469 289.464844 421.121094 289.464844 421.121094 292.308594 "/>
<path style=" stroke:none;fill-rule:nonzero;fill:rgb(100%,100%,100%);fill-opacity:1;" d="M 509.011719 148.097656 C 509.011719 150.941406 504.746094 150.941406 504.746094 148.097656 C 504.746094 145.25 509.011719 145.25 509.011719 148.097656 "/>
<path style=" stroke:none;fill-rule:nonzero;fill:rgb(100%,100%,100%);fill-opacity:1;" d="M 488.105469 219.777344 C 488.105469 222.621094 483.839844 222.621094 483.839844 219.777344 C 483.839844 216.929688 488.105469 216.929688 488.105469 219.777344 "/>
<path style=" stroke:none;fill-rule:nonzero;fill:rgb(100%,100%,100%);fill-opacity:1;" d="M 414.292969 107.988281 C 414.292969 110.832031 410.027344 110.832031 410.027344 107.988281 C 410.027344 105.144531 414.292969 105.144531 414.292969 107.988281 "/>
<path style=" stroke:none;fill-rule:nonzero;fill:rgb(100%,100%,100%);fill-opacity:1;" d="M 226.132812 503.507812 C 226.132812 506.351562 221.867188 506.351562 221.867188 503.507812 C 221.867188 500.664062 226.132812 500.664062 226.132812 503.507812 "/>
<path style=" stroke:none;fill-rule:nonzero;fill:rgb(100%,100%,100%);fill-opacity:1;" d="M 26.453125 423.296875 C 26.453125 426.140625 22.1875 426.140625 22.1875 423.296875 C 22.1875 420.453125 26.453125 420.453125 26.453125 423.296875 "/>
<path style=" stroke:none;fill-rule:nonzero;fill:rgb(100%,100%,100%);fill-opacity:1;" d="M 479.574219 433.109375 C 479.574219 435.953125 475.308594 435.953125 475.308594 433.109375 C 475.308594 430.265625 479.574219 430.265625 479.574219 433.109375 "/>
<path style=" stroke:none;fill-rule:nonzero;fill:rgb(100%,100%,100%);fill-opacity:1;" d="M 285.441406 106.710938 C 285.441406 109.554688 281.171875 109.554688 281.171875 106.710938 C 281.171875 103.863281 285.441406 103.863281 285.441406 106.710938 "/>
<path style=" stroke:none;fill-rule:nonzero;fill:rgb(100%,100%,100%);fill-opacity:1;" d="M 450.558594 122.070312 C 450.558594 124.914062 446.292969 124.914062 446.292969 122.070312 C 446.292969 119.222656 450.558594 119.222656 450.558594 122.070312 "/>
<path style=" stroke:none;fill-rule:nonzero;fill:rgb(100%,100%,100%);fill-opacity:1;" d="M 388.265625 501.804688 C 388.265625 504.648438 384 504.648438 384 501.804688 C 384 498.957031 388.265625 498.957031 388.265625 501.804688 "/>
<path style=" stroke:none;fill-rule:nonzero;fill:rgb(100%,100%,100%);fill-opacity:1;" d="M 470.1875 110.121094 C 470.1875 112.96875 465.917969 112.96875 465.917969 110.121094 C 465.917969 107.277344 470.1875 107.277344 470.1875 110.121094 "/>
<path style=" stroke:none;fill-rule:nonzero;fill:rgb(100%,100%,100%);fill-opacity:1;" d="M 145.066406 189.484375 C 145.066406 192.328125 140.800781 192.328125 140.800781 189.484375 C 140.800781 186.636719 145.066406 186.636719 145.066406 189.484375 "/>
<path style=" stroke:none;fill-rule:nonzero;fill:rgb(100%,100%,100%);fill-opacity:1;" d="M 514.558594 318.335938 C 514.558594 321.179688 510.292969 321.179688 510.292969 318.335938 C 510.292969 315.492188 514.558594 315.492188 514.558594 318.335938 "/>
<path style=" stroke:none;fill-rule:nonzero;fill:rgb(100%,100%,100%);fill-opacity:1;" d="M 23.894531 394.710938 C 23.894531 397.554688 19.625 397.554688 19.625 394.710938 C 19.625 391.863281 23.894531 391.863281 23.894531 394.710938 "/>
<path style=" stroke:none;fill-rule:nonzero;fill:rgb(100%,100%,100%);fill-opacity:1;" d="M 253.011719 512.042969 C 253.011719 514.886719 248.746094 514.886719 248.746094 512.042969 C 248.746094 509.199219 253.011719 509.199219 253.011719 512.042969 "/>
<path style=" stroke:none;fill-rule:nonzero;fill:rgb(100%,100%,100%);fill-opacity:1;" d="M 91.734375 300.84375 C 91.734375 303.6875 87.464844 303.6875 87.464844 300.84375 C 87.464844 298 91.734375 298 91.734375 300.84375 "/>
<path style=" stroke:none;fill-rule:nonzero;fill:rgb(100%,100%,100%);fill-opacity:1;" d="M 195.414062 113.964844 C 195.414062 116.808594 191.148438 116.808594 191.148438 113.964844 C 191.148438 111.117188 195.414062 111.117188 195.414062 113.964844 "/>
<path style=" stroke:none;fill-rule:nonzero;fill:rgb(100%,100%,100%);fill-opacity:1;" d="M 149.332031 194.175781 C 149.332031 197.019531 145.066406 197.019531 145.066406 194.175781 C 145.066406 191.332031 149.332031 191.332031 149.332031 194.175781 "/>
<path style=" stroke:none;fill-rule:nonzero;fill:rgb(100%,100%,100%);fill-opacity:1;" d="M 412.160156 262.867188 C 412.160156 265.714844 407.894531 265.714844 407.894531 262.867188 C 407.894531 260.023438 412.160156 260.023438 412.160156 262.867188 "/>
<path style=" stroke:none;fill-rule:nonzero;fill:rgb(100%,100%,100%);fill-opacity:1;" d="M 372.480469 169.003906 C 372.480469 171.847656 368.214844 171.847656 368.214844 169.003906 C 368.214844 166.160156 372.480469 166.160156 372.480469 169.003906 "/>
<path style=" stroke:none;fill-rule:nonzero;fill:rgb(100%,100%,100%);fill-opacity:1;" d="M 164.265625 209.964844 C 164.265625 212.808594 160 212.808594 160 209.964844 C 160 207.117188 164.265625 207.117188 164.265625 209.964844 "/>
<path style=" stroke:none;fill-rule:nonzero;fill:rgb(100%,100%,100%);fill-opacity:1;" d="M 53.761719 233.003906 C 53.761719 235.847656 49.492188 235.847656 49.492188 233.003906 C 49.492188 230.160156 53.761719 230.160156 53.761719 233.003906 "/>
<path style=" stroke:none;fill-rule:nonzero;fill:rgb(100%,100%,100%);fill-opacity:1;" d="M 134.398438 165.164062 C 134.398438 168.007812 130.132812 168.007812 130.132812 165.164062 C 130.132812 162.320312 134.398438 162.320312 134.398438 165.164062 "/>
<path style=" stroke:none;fill-rule:nonzero;fill:rgb(100%,100%,100%);fill-opacity:1;" d="M 113.921875 151.082031 C 113.921875 153.925781 109.652344 153.925781 109.652344 151.082031 C 109.652344 148.238281 113.921875 148.238281 113.921875 151.082031 "/>
<path style=" stroke:none;fill-rule:nonzero;fill:rgb(100%,100%,100%);fill-opacity:1;" d="M 16.214844 352.042969 C 16.214844 354.886719 11.945312 354.886719 11.945312 352.042969 C 11.945312 349.199219 16.214844 349.199219 16.214844 352.042969 "/>
<path style=" stroke:none;fill-rule:nonzero;fill:rgb(100%,100%,100%);fill-opacity:1;" d="M 61.441406 300.414062 C 61.441406 303.261719 57.171875 303.261719 57.171875 300.414062 C 57.171875 297.570312 61.441406 297.570312 61.441406 300.414062 "/>
<path style=" stroke:none;fill-rule:nonzero;fill:rgb(100%,100%,100%);fill-opacity:1;" d="M 35.414062 269.695312 C 35.414062 272.539062 31.148438 272.539062 31.148438 269.695312 C 31.148438 266.851562 35.414062 266.851562 35.414062 269.695312 "/>
<path style=" stroke:none;fill-rule:nonzero;fill:rgb(100%,100%,100%);fill-opacity:1;" d="M 67.839844 137.003906 C 67.839844 139.847656 63.574219 139.847656 63.574219 137.003906 C 63.574219 134.160156 67.839844 134.160156 67.839844 137.003906 "/>
<path style=" stroke:none;fill-rule:nonzero;fill:rgb(100%,100%,100%);fill-opacity:1;" d="M 349.867188 503.082031 C 349.867188 505.925781 345.601562 505.925781 345.601562 503.082031 C 345.601562 500.238281 349.867188 500.238281 349.867188 503.082031 "/>
<path style=" stroke:none;fill-rule:nonzero;fill:rgb(100%,100%,100%);fill-opacity:1;" d="M 506.878906 234.710938 C 506.878906 237.554688 502.613281 237.554688 502.613281 234.710938 C 502.613281 231.863281 506.878906 231.863281 506.878906 234.710938 "/>
<path style=" stroke:none;fill-rule:nonzero;fill:rgb(100%,100%,100%);fill-opacity:1;" d="M 37.972656 234.28125 C 37.972656 237.128906 33.707031 237.128906 33.707031 234.28125 C 33.707031 231.4375 37.972656 231.4375 37.972656 234.28125 "/>
<path style=" stroke:none;fill-rule:nonzero;fill:rgb(100%,100%,100%);fill-opacity:1;" d="M 473.601562 452.734375 C 473.601562 455.582031 469.332031 455.582031 469.332031 452.734375 C 469.332031 449.890625 473.601562 449.890625 473.601562 452.734375 "/>
<path style=" stroke:none;fill-rule:nonzero;fill:rgb(100%,100%,100%);fill-opacity:1;" d="M 180.480469 191.617188 C 180.480469 194.460938 176.214844 194.460938 176.214844 191.617188 C 176.214844 188.773438 180.480469 188.773438 180.480469 191.617188 "/>
<path style=" stroke:none;fill-rule:nonzero;fill:rgb(100%,100%,100%);fill-opacity:1;" d="M 347.304688 252.203125 C 347.304688 255.046875 343.039062 255.046875 343.039062 252.203125 C 343.039062 249.359375 347.304688 249.359375 347.304688 252.203125 "/>
<path style=" stroke:none;fill-rule:nonzero;fill:rgb(100%,100%,100%);fill-opacity:1;" d="M 386.558594 126.335938 C 386.558594 129.179688 382.292969 129.179688 382.292969 126.335938 C 382.292969 123.492188 386.558594 123.492188 386.558594 126.335938 "/>
<path style=" stroke:none;fill-rule:nonzero;fill:rgb(100%,100%,100%);fill-opacity:1;" d="M 392.535156 158.335938 C 392.535156 161.179688 388.265625 161.179688 388.265625 158.335938 C 388.265625 155.492188 392.535156 155.492188 392.535156 158.335938 "/>
<path style=" stroke:none;fill-rule:nonzero;fill:rgb(100%,84.3%,0%);fill-opacity:1;" d="M 372.34375 491.136719 C 372.34375 493.980469 368.078125 493.980469 368.078125 491.136719 C 368.078125 488.292969 372.34375 488.292969 372.34375 491.136719 "/>
<path style=" stroke:none;fill-rule:nonzero;fill:rgb(100%,84.3%,0%);fill-opacity:1;" d="M 467.199219 411.777344 C 467.199219 414.621094 462.933594 414.621094 462.933594 411.777344 C 462.933594 408.929688 467.199219 408.929688 467.199219 411.777344 "/>
<path style=" stroke:none;fill-rule:nonzero;fill:rgb(100%,84.3%,0%);fill-opacity:1;" d="M 310.058594 489.003906 C 310.058594 491.847656 305.792969 491.847656 305.792969 489.003906 C 305.792969 486.160156 310.058594 486.160156 310.058594 489.003906 "/>
<path style=" stroke:none;fill-rule:nonzero;fill:rgb(100%,84.3%,0%);fill-opacity:1;" d="M 467.199219 452.734375 C 467.199219 455.582031 462.933594 455.582031 462.933594 452.734375 C 462.933594 449.890625 467.199219 449.890625 467.199219 452.734375 "/>
<path style=" stroke:none;fill-rule:nonzero;fill:rgb(100%,84.3%,0%);fill-opacity:1;" d="M 191.144531 495.402344 C 191.144531 498.246094 186.878906 498.246094 186.878906 495.402344 C 186.878906 492.558594 191.144531 492.558594 191.144531 495.402344 "/>
<path style=" stroke:none;fill-rule:nonzero;fill:rgb(100%,84.3%,0%);fill-opacity:1;" d="M 257.28125 495.402344 C 257.28125 498.246094 253.011719 498.246094 253.011719 495.402344 C 253.011719 492.558594 257.28125 492.558594 257.28125 495.402344 "/>
<path style=" stroke:none;fill-rule:nonzero;fill:rgb(100%,84.3%,0%);fill-opacity:1;" d="M 366.363281 493.269531 C 366.363281 496.113281 362.09375 496.113281 362.09375 493.269531 C 362.09375 490.425781 366.363281 490.425781 366.363281 493.269531 "/>
<path style=" stroke:none;fill-rule:nonzero;fill:rgb(100%,84.3%,0%);fill-opacity:1;" d="M 337.066406 495.402344 C 337.066406 498.246094 332.800781 498.246094 332.800781 495.402344 C 332.800781 492.558594 337.066406 492.558594 337.066406 495.402344 "/>
<path style=" stroke:none;fill-rule:nonzero;fill:rgb(100%,84.3%,0%);fill-opacity:1;" d="M 270.082031 495.402344 C 270.082031 498.246094 265.8125 498.246094 265.8125 495.402344 C 265.8125 492.558594 270.082031 492.558594 270.082031 495.402344 "/>
<path style=" stroke:none;fill-rule:nonzero;fill:rgb(100%,84.3%,0%);fill-opacity:1;" d="M 70.398438 495.402344 C 70.398438 498.246094 66.132812 498.246094 66.132812 495.402344 C 66.132812 492.558594 70.398438 492.558594 70.398438 495.402344 "/>
<path style=" stroke:none;fill-rule:nonzero;fill:rgb(100%,84.3%,0%);fill-opacity:1;" d="M 96 495.402344 C 96 498.246094 91.734375 498.246094 91.734375 495.402344 C 91.734375 492.558594 96 492.558594 96 495.402344 "/>
<path style=" stroke:none;fill-rule:nonzero;fill:rgb(100%,84.3%,0%);fill-opacity:1;" d="M 467.199219 495.402344 C 467.199219 498.246094 462.933594 498.246094 462.933594 495.402344 C 462.933594 492.558594 467.199219 492.558594 467.199219 495.402344 "/>
<path style=" stroke:none;fill-rule:nonzero;fill:rgb(100%,84.3%,0%);fill-opacity:1;" d="M 286.003906 495.402344 C 286.003906 498.246094 281.738281 498.246094 281.738281 495.402344 C 281.738281 492.558594 286.003906 492.558594 286.003906 495.402344 "/>
<path style=" stroke:none;fill-rule:nonzero;fill:rgb(100%,84.3%,0%);fill-opacity:1;" d="M 87.464844 495.402344 C 87.464844 498.246094 83.199219 498.246094 83.199219 495.402344 C 83.199219 492.558594 87.464844 492.558594 87.464844 495.402344 "/>
<path style=" stroke:none;fill-rule:nonzero;fill:rgb(100%,84.3%,0%);fill-opacity:1;" d="M 161.707031 380.628906 C 161.707031 383.472656 157.441406 383.472656 157.441406 380.628906 C 157.441406 377.785156 161.707031 377.785156 161.707031 380.628906 "/>
<path style=" stroke:none;fill-rule:nonzero;fill:rgb(100%,84.3%,0%);fill-opacity:1;" d="M 49.066406 476.476562 C 49.066406 479.320312 44.800781 479.320312 44.800781 476.476562 C 44.800781 473.632812 49.066406 473.632812 49.066406 476.476562 "/>
<path style=" stroke:none;fill-rule:nonzero;fill:rgb(100%,84.3%,0%);fill-opacity:1;" d="M 54.894531 408.933594 C 54.894531 411.777344 50.628906 411.777344 50.628906 408.933594 C 50.628906 406.089844 54.894531 406.089844 54.894531 408.933594 "/>
<path style=" stroke:none;fill-rule:nonzero;fill:rgb(100%,84.3%,0%);fill-opacity:1;" d="M 174.082031 495.402344 C 174.082031 498.246094 169.8125 498.246094 169.8125 495.402344 C 169.8125 492.558594 174.082031 492.558594 174.082031 495.402344 "/>
<path style=" stroke:none;fill-rule:nonzero;fill:rgb(100%,84.3%,0%);fill-opacity:1;" d="M 60.152344 491.136719 C 60.152344 493.980469 55.882812 493.980469 55.882812 491.136719 C 55.882812 488.292969 60.152344 488.292969 60.152344 491.136719 "/>
<path style=" stroke:none;fill-rule:nonzero;fill:rgb(100%,84.3%,0%);fill-opacity:1;" d="M 74.667969 380.628906 C 74.667969 383.472656 70.398438 383.472656 70.398438 380.628906 C 70.398438 377.785156 74.667969 377.785156 74.667969 380.628906 "/>
<path style=" stroke:none;fill-rule:nonzero;fill:rgb(100%,84.3%,0%);fill-opacity:1;" d="M 451.847656 485.878906 C 451.847656 488.722656 447.582031 488.722656 447.582031 485.878906 C 447.582031 483.035156 451.847656 483.035156 451.847656 485.878906 "/>
<path style=" stroke:none;fill-rule:nonzero;fill:rgb(100%,84.3%,0%);fill-opacity:1;" d="M 265.8125 495.402344 C 265.8125 498.246094 261.546875 498.246094 261.546875 495.402344 C 261.546875 492.558594 265.8125 492.558594 265.8125 495.402344 "/>
<path style=" stroke:none;fill-rule:nonzero;fill:rgb(100%,84.3%,0%);fill-opacity:1;" d="M 467.199219 420.308594 C 467.199219 423.152344 462.933594 423.152344 462.933594 420.308594 C 462.933594 417.464844 467.199219 417.464844 467.199219 420.308594 "/>
<path style=" stroke:none;fill-rule:nonzero;fill:rgb(100%,84.3%,0%);fill-opacity:1;" d="M 49.066406 386.175781 C 49.066406 389.019531 44.800781 389.019531 44.800781 386.175781 C 44.800781 383.332031 49.066406 383.332031 49.066406 386.175781 "/>
<path style=" stroke:none;fill-rule:nonzero;fill:rgb(100%,84.3%,0%);fill-opacity:1;" d="M 49.066406 403.242188 C 49.066406 406.085938 44.800781 406.085938 44.800781 403.242188 C 44.800781 400.398438 49.066406 400.398438 49.066406 403.242188 "/>
<path style=" stroke:none;fill-rule:nonzero;fill:rgb(100%,84.3%,0%);fill-opacity:1;" d="M 290.269531 495.402344 C 290.269531 498.246094 286.003906 498.246094 286.003906 495.402344 C 286.003906 492.558594 290.269531 492.558594 290.269531 495.402344 "/>
<path style=" stroke:none;fill-rule:nonzero;fill:rgb(100%,84.3%,0%);fill-opacity:1;" d="M 354.132812 495.402344 C 354.132812 498.246094 349.867188 498.246094 349.867188 495.402344 C 349.867188 492.558594 354.132812 492.558594 354.132812 495.402344 "/>
<path style=" stroke:none;fill-rule:nonzero;fill:rgb(100%,84.3%,0%);fill-opacity:1;" d="M 130.132812 495.402344 C 130.132812 498.246094 125.867188 498.246094 125.867188 495.402344 C 125.867188 492.558594 130.132812 492.558594 130.132812 495.402344 "/>
<path style=" stroke:none;fill-rule:nonzero;fill:rgb(100%,84.3%,0%);fill-opacity:1;" d="M 49.066406 427.5625 C 49.066406 430.40625 44.800781 430.40625 44.800781 427.5625 C 44.800781 424.71875 49.066406 424.71875 49.066406 427.5625 "/>
<path style=" stroke:none;fill-rule:nonzero;fill:rgb(100%,84.3%,0%);fill-opacity:1;" d="M 49.066406 436.097656 C 49.066406 438.941406 44.800781 438.941406 44.800781 436.097656 C 44.800781 433.25 49.066406 433.25 49.066406 436.097656 "/>
<path style=" stroke:none;fill-rule:nonzero;fill:rgb(100%,84.3%,0%);fill-opacity:1;" d="M 161.28125 495.402344 C 161.28125 498.246094 157.011719 498.246094 157.011719 495.402344 C 157.011719 492.558594 161.28125 492.558594 161.28125 495.402344 "/>
<path style=" stroke:none;fill-rule:nonzero;fill:rgb(100%,84.3%,0%);fill-opacity:1;" d="M 462.933594 476.050781 C 462.933594 478.894531 458.667969 478.894531 458.667969 476.050781 C 458.667969 473.207031 462.933594 473.207031 462.933594 476.050781 "/>
<path style=" stroke:none;fill-rule:nonzero;fill:rgb(100%,84.3%,0%);fill-opacity:1;" d="M 325.410156 495.402344 C 325.410156 498.246094 321.144531 498.246094 321.144531 495.402344 C 321.144531 492.558594 325.410156 492.558594 325.410156 495.402344 "/>
<path style=" stroke:none;fill-rule:nonzero;fill:rgb(100%,84.3%,0%);fill-opacity:1;" d="M 49.066406 461.695312 C 49.066406 464.539062 44.800781 464.539062 44.800781 461.695312 C 44.800781 458.851562 49.066406 458.851562 49.066406 461.695312 "/>
<path style=" stroke:none;fill-rule:nonzero;fill:rgb(100%,84.3%,0%);fill-opacity:1;" d="M 193.28125 491.707031 C 193.28125 494.550781 189.011719 494.550781 189.011719 491.707031 C 189.011719 488.863281 193.28125 488.863281 193.28125 491.707031 "/>
<path style=" stroke:none;fill-rule:nonzero;fill:rgb(100%,84.3%,0%);fill-opacity:1;" d="M 349.867188 495.402344 C 349.867188 498.246094 345.601562 498.246094 345.601562 495.402344 C 345.601562 492.558594 349.867188 492.558594 349.867188 495.402344 "/>
<path style=" stroke:none;fill-rule:nonzero;fill:rgb(100%,84.3%,0%);fill-opacity:1;" d="M 165.972656 380.628906 C 165.972656 383.472656 161.707031 383.472656 161.707031 380.628906 C 161.707031 377.785156 165.972656 377.785156 165.972656 380.628906 "/>
<path style=" stroke:none;fill-rule:nonzero;fill:rgb(100%,84.3%,0%);fill-opacity:1;" d="M 217.601562 495.402344 C 217.601562 498.246094 213.332031 498.246094 213.332031 495.402344 C 213.332031 492.558594 217.601562 492.558594 217.601562 495.402344 "/>
<path style=" stroke:none;fill-rule:nonzero;fill:rgb(100%,84.3%,0%);fill-opacity:1;" d="M 396.800781 495.402344 C 396.800781 498.246094 392.535156 498.246094 392.535156 495.402344 C 392.535156 492.558594 396.800781 492.558594 396.800781 495.402344 "/>
<path style=" stroke:none;fill-rule:nonzero;fill:rgb(100%,84.3%,0%);fill-opacity:1;" d="M 317.449219 493.269531 C 317.449219 496.113281 313.183594 496.113281 313.183594 493.269531 C 313.183594 490.425781 317.449219 490.425781 317.449219 493.269531 "/>
<path style=" stroke:none;fill-rule:nonzero;fill:rgb(100%,84.3%,0%);fill-opacity:1;" d="M 182.613281 495.402344 C 182.613281 498.246094 178.347656 498.246094 178.347656 495.402344 C 178.347656 492.558594 182.613281 492.558594 182.613281 495.402344 "/>
<path style=" stroke:none;fill-rule:nonzero;fill:rgb(100%,84.3%,0%);fill-opacity:1;" d="M 341.332031 495.402344 C 341.332031 498.246094 337.066406 498.246094 337.066406 495.402344 C 337.066406 492.558594 341.332031 492.558594 341.332031 495.402344 "/>
<path style=" stroke:none;fill-rule:nonzero;fill:rgb(100%,84.3%,0%);fill-opacity:1;" d="M 148.480469 495.402344 C 148.480469 498.246094 144.214844 498.246094 144.214844 495.402344 C 144.214844 492.558594 148.480469 492.558594 148.480469 495.402344 "/>
<path style=" stroke:none;fill-rule:nonzero;fill:rgb(100%,84.3%,0%);fill-opacity:1;" d="M 465.066406 464.964844 C 465.066406 467.808594 460.800781 467.808594 460.800781 464.964844 C 460.800781 462.121094 465.066406 462.121094 465.066406 464.964844 "/>
<path style=" stroke:none;fill-rule:nonzero;fill:rgb(100%,84.3%,0%);fill-opacity:1;" d="M 49.066406 444.628906 C 49.066406 447.472656 44.800781 447.472656 44.800781 444.628906 C 44.800781 441.785156 49.066406 441.785156 49.066406 444.628906 "/>
<path style=" stroke:none;fill-rule:nonzero;fill:rgb(100%,84.3%,0%);fill-opacity:1;" d="M 191.574219 380.628906 C 191.574219 383.472656 187.308594 383.472656 187.308594 380.628906 C 187.308594 377.785156 191.574219 377.785156 191.574219 380.628906 "/>
<path style=" stroke:none;fill-rule:nonzero;fill:rgb(100%,84.3%,0%);fill-opacity:1;" d="M 226.132812 495.402344 C 226.132812 498.246094 221.867188 498.246094 221.867188 495.402344 C 221.867188 492.558594 226.132812 492.558594 226.132812 495.402344 "/>
<path style=" stroke:none;fill-rule:nonzero;fill:rgb(100%,84.3%,0%);fill-opacity:1;" d="M 49.066406 448.894531 C 49.066406 451.742188 44.800781 451.742188 44.800781 448.894531 C 44.800781 446.050781 49.066406 446.050781 49.066406 448.894531 "/>
<path style=" stroke:none;fill-rule:nonzero;fill:rgb(100%,84.3%,0%);fill-opacity:1;" d="M 49.066406 380.628906 C 49.066406 383.472656 44.800781 383.472656 44.800781 380.628906 C 44.800781 377.785156 49.066406 377.785156 49.066406 380.628906 "/>
<path style=" stroke:none;fill-rule:nonzero;fill:rgb(100%,84.3%,0%);fill-opacity:1;" d="M 467.199219 468.660156 C 467.199219 471.503906 462.933594 471.503906 462.933594 468.660156 C 462.933594 465.816406 467.199219 465.816406 467.199219 468.660156 "/>
<path style=" stroke:none;fill-rule:nonzero;fill:rgb(100%,84.3%,0%);fill-opacity:1;" d="M 63.847656 489.003906 C 63.847656 491.847656 59.582031 491.847656 59.582031 489.003906 C 59.582031 486.160156 63.847656 486.160156 63.847656 489.003906 "/>
<path style=" stroke:none;fill-rule:nonzero;fill:rgb(100%,84.3%,0%);fill-opacity:1;" d="M 49.066406 423.296875 C 49.066406 426.140625 44.800781 426.140625 44.800781 423.296875 C 44.800781 420.453125 49.066406 420.453125 49.066406 423.296875 "/>
<path style=" stroke:none;fill-rule:nonzero;fill:rgb(100%,84.3%,0%);fill-opacity:1;" d="M 297.828125 491.136719 C 297.828125 493.980469 293.5625 493.980469 293.5625 491.136719 C 293.5625 488.292969 297.828125 488.292969 297.828125 491.136719 "/>
<path style=" stroke:none;fill-rule:nonzero;fill:rgb(100%,84.3%,0%);fill-opacity:1;" d="M 388.265625 495.402344 C 388.265625 498.246094 384 498.246094 384 495.402344 C 384 492.558594 388.265625 492.558594 388.265625 495.402344 "/>
<path style=" stroke:none;fill-rule:nonzero;fill:rgb(100%,84.3%,0%);fill-opacity:1;" d="M 238.933594 491.136719 C 238.933594 493.980469 234.667969 493.980469 234.667969 491.136719 C 234.667969 488.292969 238.933594 488.292969 238.933594 491.136719 "/>
<path style=" stroke:none;fill-rule:nonzero;fill:rgb(100%,84.3%,0%);fill-opacity:1;" d="M 152.746094 495.402344 C 152.746094 498.246094 148.480469 498.246094 148.480469 495.402344 C 148.480469 492.558594 152.746094 492.558594 152.746094 495.402344 "/>
<path style=" stroke:none;fill-rule:nonzero;fill:rgb(100%,84.3%,0%);fill-opacity:1;" d="M 197.546875 495.402344 C 197.546875 498.246094 193.28125 498.246094 193.28125 495.402344 C 193.28125 492.558594 197.546875 492.558594 197.546875 495.402344 "/>
<path style=" stroke:none;fill-rule:nonzero;fill:rgb(100%,84.3%,0%);fill-opacity:1;" d="M 201.242188 493.269531 C 201.242188 496.113281 196.976562 496.113281 196.976562 493.269531 C 196.976562 490.425781 201.242188 490.425781 201.242188 493.269531 "/>
<path style=" stroke:none;fill-rule:nonzero;fill:rgb(100%,84.3%,0%);fill-opacity:1;" d="M 467.199219 428.84375 C 467.199219 431.6875 462.933594 431.6875 462.933594 428.84375 C 462.933594 426 467.199219 426 467.199219 428.84375 "/>
<path style=" stroke:none;fill-rule:nonzero;fill:rgb(100%,84.3%,0%);fill-opacity:1;" d="M 104.535156 495.402344 C 104.535156 498.246094 100.265625 498.246094 100.265625 495.402344 C 100.265625 492.558594 104.535156 492.558594 104.535156 495.402344 "/>
<path style=" stroke:none;fill-rule:nonzero;fill:rgb(100%,84.3%,0%);fill-opacity:1;" d="M 178.773438 380.628906 C 178.773438 383.472656 174.507812 383.472656 174.507812 380.628906 C 174.507812 377.785156 178.773438 377.785156 178.773438 380.628906 "/>
<path style=" stroke:none;fill-rule:nonzero;fill:rgb(100%,84.3%,0%);fill-opacity:1;" d="M 49.066406 394.710938 C 49.066406 397.554688 44.800781 397.554688 44.800781 394.710938 C 44.800781 391.863281 49.066406 391.863281 49.066406 394.710938 "/>
<path style=" stroke:none;fill-rule:nonzero;fill:rgb(100%,84.3%,0%);fill-opacity:1;" d="M 117.332031 495.402344 C 117.332031 498.246094 113.066406 498.246094 113.066406 495.402344 C 113.066406 492.558594 117.332031 492.558594 117.332031 495.402344 "/>
<path style=" stroke:none;fill-rule:nonzero;fill:rgb(100%,84.3%,0%);fill-opacity:1;" d="M 301.523438 489.003906 C 301.523438 491.847656 297.257812 491.847656 297.257812 489.003906 C 297.257812 486.160156 301.523438 486.160156 301.523438 489.003906 "/>
<path style=" stroke:none;fill-rule:nonzero;fill:rgb(100%,84.3%,0%);fill-opacity:1;" d="M 51.199219 489.574219 C 51.199219 492.417969 46.933594 492.417969 46.933594 489.574219 C 46.933594 486.730469 51.199219 486.730469 51.199219 489.574219 "/>
<path style=" stroke:none;fill-rule:nonzero;fill:rgb(100%,84.3%,0%);fill-opacity:1;" d="M 253.011719 495.402344 C 253.011719 498.246094 248.746094 498.246094 248.746094 495.402344 C 248.746094 492.558594 253.011719 492.558594 253.011719 495.402344 "/>
<path style=" stroke:none;fill-rule:nonzero;fill:rgb(100%,84.3%,0%);fill-opacity:1;" d="M 274.347656 495.402344 C 274.347656 498.246094 270.078125 498.246094 270.078125 495.402344 C 270.078125 492.558594 274.347656 492.558594 274.347656 495.402344 "/>
<path style=" stroke:none;fill-rule:nonzero;fill:rgb(100%,84.3%,0%);fill-opacity:1;" d="M 376.039062 493.269531 C 376.039062 496.113281 371.773438 496.113281 371.773438 493.269531 C 371.773438 490.425781 376.039062 490.425781 376.039062 493.269531 "/>
<path style=" stroke:none;fill-rule:nonzero;fill:rgb(100%,84.3%,0%);fill-opacity:1;" d="M 195.839844 380.628906 C 195.839844 383.472656 191.574219 383.472656 191.574219 380.628906 C 191.574219 377.785156 195.839844 377.785156 195.839844 380.628906 "/>
<path style=" stroke:none;fill-rule:nonzero;fill:rgb(100%,84.3%,0%);fill-opacity:1;" d="M 212.328125 491.136719 C 212.328125 493.980469 208.0625 493.980469 208.0625 491.136719 C 208.0625 488.292969 212.328125 488.292969 212.328125 491.136719 "/>
<path style=" stroke:none;fill-rule:nonzero;fill:rgb(100%,84.3%,0%);fill-opacity:1;" d="M 396.800781 491.136719 C 396.800781 493.980469 392.535156 493.980469 392.535156 491.136719 C 392.535156 488.292969 396.800781 488.292969 396.800781 491.136719 "/>
<path style=" stroke:none;fill-rule:nonzero;fill:rgb(100%,84.3%,0%);fill-opacity:1;" d="M 455.542969 384.894531 C 455.542969 387.742188 451.277344 387.742188 451.277344 384.894531 C 451.277344 382.050781 455.542969 382.050781 455.542969 384.894531 "/>
<path style=" stroke:none;fill-rule:nonzero;fill:rgb(100%,84.3%,0%);fill-opacity:1;" d="M 83.199219 495.402344 C 83.199219 498.246094 78.933594 498.246094 78.933594 495.402344 C 78.933594 492.558594 83.199219 492.558594 83.199219 495.402344 "/>
<path style=" stroke:none;fill-rule:nonzero;fill:rgb(100%,84.3%,0%);fill-opacity:1;" d="M 134.398438 495.402344 C 134.398438 498.246094 130.132812 498.246094 130.132812 495.402344 C 130.132812 492.558594 134.398438 492.558594 134.398438 495.402344 "/>
<path style=" stroke:none;fill-rule:nonzero;fill:rgb(100%,84.3%,0%);fill-opacity:1;" d="M 459.238281 473.914062 C 459.238281 476.761719 454.972656 476.761719 454.972656 473.914062 C 454.972656 471.070312 459.238281 471.070312 459.238281 473.914062 "/>
<path style=" stroke:none;fill-rule:nonzero;fill:rgb(100%,84.3%,0%);fill-opacity:1;" d="M 457.675781 487.441406 C 457.675781 490.285156 453.410156 490.285156 453.410156 487.441406 C 453.410156 484.597656 457.675781 484.597656 457.675781 487.441406 "/>
<path style=" stroke:none;fill-rule:nonzero;fill:rgb(100%,84.3%,0%);fill-opacity:1;" d="M 358.398438 495.402344 C 358.398438 498.246094 354.132812 498.246094 354.132812 495.402344 C 354.132812 492.558594 358.398438 492.558594 358.398438 495.402344 "/>
<path style=" stroke:none;fill-rule:nonzero;fill:rgb(100%,84.3%,0%);fill-opacity:1;" d="M 467.199219 448.46875 C 467.199219 451.3125 462.933594 451.3125 462.933594 448.46875 C 462.933594 445.625 467.199219 445.625 467.199219 448.46875 "/>
<path style=" stroke:none;fill-rule:nonzero;fill:rgb(100%,84.3%,0%);fill-opacity:1;" d="M 53.332031 380.628906 C 53.332031 383.472656 49.066406 383.472656 49.066406 380.628906 C 49.066406 377.785156 53.332031 377.785156 53.332031 380.628906 "/>
<path style=" stroke:none;fill-rule:nonzero;fill:rgb(100%,84.3%,0%);fill-opacity:1;" d="M 467.199219 457.003906 C 467.199219 459.847656 462.933594 459.847656 462.933594 457.003906 C 462.933594 454.160156 467.199219 454.160156 467.199219 457.003906 "/>
<path style=" stroke:none;fill-rule:nonzero;fill:rgb(100%,84.3%,0%);fill-opacity:1;" d="M 459.238281 382.761719 C 459.238281 385.609375 454.972656 385.609375 454.972656 382.761719 C 454.972656 379.917969 459.238281 379.917969 459.238281 382.761719 "/>
<path style=" stroke:none;fill-rule:nonzero;fill:rgb(100%,84.3%,0%);fill-opacity:1;" d="M 261.546875 495.402344 C 261.546875 498.246094 257.28125 498.246094 257.28125 495.402344 C 257.28125 492.558594 261.546875 492.558594 261.546875 495.402344 "/>
<path style=" stroke:none;fill-rule:nonzero;fill:rgb(100%,84.3%,0%);fill-opacity:1;" d="M 49.066406 390.441406 C 49.066406 393.289062 44.800781 393.289062 44.800781 390.441406 C 44.800781 387.597656 49.066406 387.597656 49.066406 390.441406 "/>
<path style=" stroke:none;fill-rule:nonzero;fill:rgb(100%,84.3%,0%);fill-opacity:1;" d="M 52.761719 495.402344 C 52.761719 498.246094 48.496094 498.246094 48.496094 495.402344 C 48.496094 492.558594 52.761719 492.558594 52.761719 495.402344 "/>
<path style=" stroke:none;fill-rule:nonzero;fill:rgb(100%,84.3%,0%);fill-opacity:1;" d="M 467.199219 424.574219 C 467.199219 427.421875 462.933594 427.421875 462.933594 424.574219 C 462.933594 421.730469 467.199219 421.730469 467.199219 424.574219 "/>
<path style=" stroke:none;fill-rule:nonzero;fill:rgb(100%,84.3%,0%);fill-opacity:1;" d="M 467.199219 416.042969 C 467.199219 418.886719 462.933594 418.886719 462.933594 416.042969 C 462.933594 413.199219 467.199219 413.199219 467.199219 416.042969 "/>
<path style=" stroke:none;fill-rule:nonzero;fill:rgb(100%,84.3%,0%);fill-opacity:1;" d="M 294.535156 495.402344 C 294.535156 498.246094 290.269531 498.246094 290.269531 495.402344 C 290.269531 492.558594 294.535156 492.558594 294.535156 495.402344 "/>
<path style=" stroke:none;fill-rule:nonzero;fill:rgb(100%,84.3%,0%);fill-opacity:1;" d="M 49.066406 453.164062 C 49.066406 456.007812 44.800781 456.007812 44.800781 453.164062 C 44.800781 450.320312 49.066406 450.320312 49.066406 453.164062 "/>
<path style=" stroke:none;fill-rule:nonzero;fill:rgb(100%,84.3%,0%);fill-opacity:1;" d="M 384 495.402344 C 384 498.246094 379.734375 498.246094 379.734375 495.402344 C 379.734375 492.558594 384 492.558594 384 495.402344 "/>
<path style=" stroke:none;fill-rule:nonzero;fill:rgb(100%,84.3%,0%);fill-opacity:1;" d="M 459.808594 491.136719 C 459.808594 493.980469 455.542969 493.980469 455.542969 491.136719 C 455.542969 488.292969 459.808594 488.292969 459.808594 491.136719 "/>
<path style=" stroke:none;fill-rule:nonzero;fill:rgb(100%,84.3%,0%);fill-opacity:1;" d="M 345.601562 495.402344 C 345.601562 498.246094 341.332031 498.246094 341.332031 495.402344 C 341.332031 492.558594 345.601562 492.558594 345.601562 495.402344 "/>
<path style=" stroke:none;fill-rule:nonzero;fill:rgb(100%,84.3%,0%);fill-opacity:1;" d="M 57.601562 380.628906 C 57.601562 383.472656 53.332031 383.472656 53.332031 380.628906 C 53.332031 377.785156 57.601562 377.785156 57.601562 380.628906 "/>
<path style=" stroke:none;fill-rule:nonzero;fill:rgb(100%,84.3%,0%);fill-opacity:1;" d="M 174.507812 380.628906 C 174.507812 383.472656 170.238281 383.472656 170.238281 380.628906 C 170.238281 377.785156 174.507812 377.785156 174.507812 380.628906 "/>
<path style=" stroke:none;fill-rule:nonzero;fill:rgb(100%,84.3%,0%);fill-opacity:1;" d="M 467.199219 444.203125 C 467.199219 447.046875 462.933594 447.046875 462.933594 444.203125 C 462.933594 441.359375 467.199219 441.359375 467.199219 444.203125 "/>
<path style=" stroke:none;fill-rule:nonzero;fill:rgb(100%,84.3%,0%);fill-opacity:1;" d="M 49.066406 419.027344 C 49.066406 421.875 44.800781 421.875 44.800781 419.027344 C 44.800781 416.183594 49.066406 416.183594 49.066406 419.027344 "/>
<path style=" stroke:none;fill-rule:nonzero;fill:rgb(100%,84.3%,0%);fill-opacity:1;" d="M 230.398438 495.402344 C 230.398438 498.246094 226.132812 498.246094 226.132812 495.402344 C 226.132812 492.558594 230.398438 492.558594 230.398438 495.402344 "/>
<path style=" stroke:none;fill-rule:nonzero;fill:rgb(100%,84.3%,0%);fill-opacity:1;" d="M 183.039062 380.628906 C 183.039062 383.472656 178.773438 383.472656 178.773438 380.628906 C 178.773438 377.785156 183.039062 377.785156 183.039062 380.628906 "/>
<path style=" stroke:none;fill-rule:nonzero;fill:rgb(100%,84.3%,0%);fill-opacity:1;" d="M 282.308594 493.269531 C 282.308594 496.113281 278.042969 496.113281 278.042969 493.269531 C 278.042969 490.425781 282.308594 490.425781 282.308594 493.269531 "/>
<path style=" stroke:none;fill-rule:nonzero;fill:rgb(100%,84.3%,0%);fill-opacity:1;" d="M 249.316406 493.269531 C 249.316406 496.113281 245.050781 496.113281 245.050781 493.269531 C 245.050781 490.425781 249.316406 490.425781 249.316406 493.269531 "/>
<path style=" stroke:none;fill-rule:nonzero;fill:rgb(100%,84.3%,0%);fill-opacity:1;" d="M 66.132812 380.628906 C 66.132812 383.472656 61.867188 383.472656 61.867188 380.628906 C 61.867188 377.785156 66.132812 377.785156 66.132812 380.628906 "/>
<path style=" stroke:none;fill-rule:nonzero;fill:rgb(100%,84.3%,0%);fill-opacity:1;" d="M 70.398438 380.628906 C 70.398438 383.472656 66.132812 383.472656 66.132812 380.628906 C 66.132812 377.785156 70.398438 377.785156 70.398438 380.628906 "/>
<path style=" stroke:none;fill-rule:nonzero;fill:rgb(100%,84.3%,0%);fill-opacity:1;" d="M 187.304688 380.628906 C 187.304688 383.472656 183.039062 383.472656 183.039062 380.628906 C 183.039062 377.785156 187.304688 377.785156 187.304688 380.628906 "/>
<path style=" stroke:none;fill-rule:nonzero;fill:rgb(100%,84.3%,0%);fill-opacity:1;" d="M 178.347656 495.402344 C 178.347656 498.246094 174.078125 498.246094 174.078125 495.402344 C 174.078125 492.558594 178.347656 492.558594 178.347656 495.402344 "/>
<path style=" stroke:none;fill-rule:nonzero;fill:rgb(100%,84.3%,0%);fill-opacity:1;" d="M 52.761719 412.628906 C 52.761719 415.472656 48.496094 415.472656 48.496094 412.628906 C 48.496094 409.785156 52.761719 409.785156 52.761719 412.628906 "/>
<path style=" stroke:none;fill-rule:nonzero;fill:rgb(100%,84.3%,0%);fill-opacity:1;" d="M 448.152344 483.746094 C 448.152344 486.589844 443.886719 486.589844 443.886719 483.746094 C 443.886719 480.902344 448.152344 480.902344 448.152344 483.746094 "/>
<path style=" stroke:none;fill-rule:nonzero;fill:rgb(100%,84.3%,0%);fill-opacity:1;" d="M 138.667969 495.402344 C 138.667969 498.246094 134.398438 498.246094 134.398438 495.402344 C 134.398438 492.558594 138.667969 492.558594 138.667969 495.402344 "/>
<path style=" stroke:none;fill-rule:nonzero;fill:rgb(100%,84.3%,0%);fill-opacity:1;" d="M 49.066406 457.429688 C 49.066406 460.273438 44.800781 460.273438 44.800781 457.429688 C 44.800781 454.585938 49.066406 454.585938 49.066406 457.429688 "/>
<path style=" stroke:none;fill-rule:nonzero;fill:rgb(100%,84.3%,0%);fill-opacity:1;" d="M 61.867188 380.628906 C 61.867188 383.472656 57.601562 383.472656 57.601562 380.628906 C 57.601562 377.785156 61.867188 377.785156 61.867188 380.628906 "/>
<path style=" stroke:none;fill-rule:nonzero;fill:rgb(100%,84.3%,0%);fill-opacity:1;" d="M 200.105469 380.628906 C 200.105469 383.472656 195.839844 383.472656 195.839844 380.628906 C 195.839844 377.785156 200.105469 377.785156 200.105469 380.628906 "/>
<path style=" stroke:none;fill-rule:nonzero;fill:rgb(100%,84.3%,0%);fill-opacity:1;" d="M 157.011719 495.402344 C 157.011719 498.246094 152.746094 498.246094 152.746094 495.402344 C 152.746094 492.558594 157.011719 492.558594 157.011719 495.402344 "/>
<path style=" stroke:none;fill-rule:nonzero;fill:rgb(100%,84.3%,0%);fill-opacity:1;" d="M 56.457031 493.269531 C 56.457031 496.113281 52.191406 496.113281 52.191406 493.269531 C 52.191406 490.425781 56.457031 490.425781 56.457031 493.269531 "/>
<path style=" stroke:none;fill-rule:nonzero;fill:rgb(100%,84.3%,0%);fill-opacity:1;" d="M 238.933594 495.402344 C 238.933594 498.246094 234.667969 498.246094 234.667969 495.402344 C 234.667969 492.558594 238.933594 492.558594 238.933594 495.402344 "/>
<path style=" stroke:none;fill-rule:nonzero;fill:rgb(100%,84.3%,0%);fill-opacity:1;" d="M 392.535156 495.402344 C 392.535156 498.246094 388.265625 498.246094 388.265625 495.402344 C 388.265625 492.558594 392.535156 492.558594 392.535156 495.402344 "/>
<path style=" stroke:none;fill-rule:nonzero;fill:rgb(100%,84.3%,0%);fill-opacity:1;" d="M 51.199219 472.78125 C 51.199219 475.625 46.933594 475.625 46.933594 472.78125 C 46.933594 469.9375 51.199219 469.9375 51.199219 472.78125 "/>
<path style=" stroke:none;fill-rule:nonzero;fill:rgb(100%,84.3%,0%);fill-opacity:1;" d="M 329.675781 495.402344 C 329.675781 498.246094 325.410156 498.246094 325.410156 495.402344 C 325.410156 492.558594 329.675781 492.558594 329.675781 495.402344 "/>
<path style=" stroke:none;fill-rule:nonzero;fill:rgb(100%,84.3%,0%);fill-opacity:1;" d="M 170.242188 380.628906 C 170.242188 383.472656 165.972656 383.472656 165.972656 380.628906 C 165.972656 377.785156 170.242188 377.785156 170.242188 380.628906 "/>
<path style=" stroke:none;fill-rule:nonzero;fill:rgb(100%,84.3%,0%);fill-opacity:1;" d="M 453.410156 388.589844 C 453.410156 391.433594 449.144531 391.433594 449.144531 388.589844 C 449.144531 385.746094 453.410156 385.746094 453.410156 388.589844 "/>
<path style=" stroke:none;fill-rule:nonzero;fill:rgb(100%,84.3%,0%);fill-opacity:1;" d="M 51.199219 480.171875 C 51.199219 483.015625 46.933594 483.015625 46.933594 480.171875 C 46.933594 477.328125 51.199219 477.328125 51.199219 480.171875 "/>
<path style=" stroke:none;fill-rule:nonzero;fill:rgb(100%,84.3%,0%);fill-opacity:1;" d="M 461.371094 438.375 C 461.371094 441.21875 457.105469 441.21875 457.105469 438.375 C 457.105469 435.53125 461.371094 435.53125 461.371094 438.375 "/>
<path style=" stroke:none;fill-rule:nonzero;fill:rgb(100%,84.3%,0%);fill-opacity:1;" d="M 467.199219 461.269531 C 467.199219 464.113281 462.933594 464.113281 462.933594 461.269531 C 462.933594 458.425781 467.199219 458.425781 467.199219 461.269531 "/>
<path style=" stroke:none;fill-rule:nonzero;fill:rgb(100%,84.3%,0%);fill-opacity:1;" d="M 169.8125 495.402344 C 169.8125 498.246094 165.546875 498.246094 165.546875 495.402344 C 165.546875 492.558594 169.8125 492.558594 169.8125 495.402344 "/>
<path style=" stroke:none;fill-rule:nonzero;fill:rgb(100%,84.3%,0%);fill-opacity:1;" d="M 49.066406 407.507812 C 49.066406 410.351562 44.800781 410.351562 44.800781 407.507812 C 44.800781 404.664062 49.066406 404.664062 49.066406 407.507812 "/>
<path style=" stroke:none;fill-rule:nonzero;fill:rgb(100%,84.3%,0%);fill-opacity:1;" d="M 241.066406 487.441406 C 241.066406 490.285156 236.800781 490.285156 236.800781 487.441406 C 236.800781 484.597656 241.066406 484.597656 241.066406 487.441406 "/>
<path style=" stroke:none;fill-rule:nonzero;fill:rgb(100%,84.3%,0%);fill-opacity:1;" d="M 455.542969 483.746094 C 455.542969 486.589844 451.277344 486.589844 451.277344 483.746094 C 451.277344 480.902344 455.542969 480.902344 455.542969 483.746094 "/>
<path style=" stroke:none;fill-rule:nonzero;fill:rgb(100%,84.3%,0%);fill-opacity:1;" d="M 74.667969 495.402344 C 74.667969 498.246094 70.398438 498.246094 70.398438 495.402344 C 70.398438 492.558594 74.667969 492.558594 74.667969 495.402344 "/>
<path style=" stroke:none;fill-rule:nonzero;fill:rgb(100%,84.3%,0%);fill-opacity:1;" d="M 396.800781 486.867188 C 396.800781 489.714844 392.535156 489.714844 392.535156 486.867188 C 392.535156 484.023438 396.800781 484.023438 396.800781 486.867188 "/>
<path style=" stroke:none;fill-rule:nonzero;fill:rgb(100%,84.3%,0%);fill-opacity:1;" d="M 449.714844 390.722656 C 449.714844 393.570312 445.449219 393.570312 445.449219 390.722656 C 445.449219 387.878906 449.714844 387.878906 449.714844 390.722656 "/>
<path style=" stroke:none;fill-rule:nonzero;fill:rgb(100%,84.3%,0%);fill-opacity:1;" d="M 321.144531 495.402344 C 321.144531 498.246094 316.875 498.246094 316.875 495.402344 C 316.875 492.558594 321.144531 492.558594 321.144531 495.402344 "/>
<path style=" stroke:none;fill-rule:nonzero;fill:rgb(100%,84.3%,0%);fill-opacity:1;" d="M 142.933594 495.402344 C 142.933594 498.246094 138.667969 498.246094 138.667969 495.402344 C 138.667969 492.558594 142.933594 492.558594 142.933594 495.402344 "/>
<path style=" stroke:none;fill-rule:nonzero;fill:rgb(100%,84.3%,0%);fill-opacity:1;" d="M 49.066406 493.269531 C 49.066406 496.113281 44.800781 496.113281 44.800781 493.269531 C 44.800781 490.425781 49.066406 490.425781 49.066406 493.269531 "/>
<path style=" stroke:none;fill-rule:nonzero;fill:rgb(100%,84.3%,0%);fill-opacity:1;" d="M 446.019531 392.859375 C 446.019531 395.703125 441.753906 395.703125 441.753906 392.859375 C 441.753906 390.011719 446.019531 390.011719 446.019531 392.859375 "/>
<path style=" stroke:none;fill-rule:nonzero;fill:rgb(100%,84.3%,0%);fill-opacity:1;" d="M 221.867188 495.402344 C 221.867188 498.246094 217.601562 498.246094 217.601562 495.402344 C 217.601562 492.558594 221.867188 492.558594 221.867188 495.402344 "/>
<path style=" stroke:none;fill-rule:nonzero;fill:rgb(100%,84.3%,0%);fill-opacity:1;" d="M 91.734375 495.402344 C 91.734375 498.246094 87.464844 498.246094 87.464844 495.402344 C 87.464844 492.558594 91.734375 492.558594 91.734375 495.402344 "/>
<path style=" stroke:none;fill-rule:nonzero;fill:rgb(100%,84.3%,0%);fill-opacity:1;" d="M 165.546875 495.402344 C 165.546875 498.246094 161.28125 498.246094 161.28125 495.402344 C 161.28125 492.558594 165.546875 492.558594 165.546875 495.402344 "/>
<path style=" stroke:none;fill-rule:nonzero;fill:rgb(100%,84.3%,0%);fill-opacity:1;" d="M 462.933594 480.316406 C 462.933594 483.160156 458.667969 483.160156 458.667969 480.316406 C 458.667969 477.472656 462.933594 477.472656 462.933594 480.316406 "/>
<path style=" stroke:none;fill-rule:nonzero;fill:rgb(100%,84.3%,0%);fill-opacity:1;" d="M 379.734375 495.402344 C 379.734375 498.246094 375.464844 498.246094 375.464844 495.402344 C 375.464844 492.558594 379.734375 492.558594 379.734375 495.402344 "/>
<path style=" stroke:none;fill-rule:nonzero;fill:rgb(100%,84.3%,0%);fill-opacity:1;" d="M 305.792969 489.003906 C 305.792969 491.847656 301.523438 491.847656 301.523438 489.003906 C 301.523438 486.160156 305.792969 486.160156 305.792969 489.003906 "/>
<path style=" stroke:none;fill-rule:nonzero;fill:rgb(100%,84.3%,0%);fill-opacity:1;" d="M 463.503906 442.070312 C 463.503906 444.914062 459.238281 444.914062 459.238281 442.070312 C 459.238281 439.222656 463.503906 439.222656 463.503906 442.070312 "/>
<path style=" stroke:none;fill-rule:nonzero;fill:rgb(100%,84.3%,0%);fill-opacity:1;" d="M 234.667969 495.402344 C 234.667969 498.246094 230.398438 498.246094 230.398438 495.402344 C 230.398438 492.558594 234.667969 492.558594 234.667969 495.402344 "/>
<path style=" stroke:none;fill-rule:nonzero;fill:rgb(100%,84.3%,0%);fill-opacity:1;" d="M 204.9375 491.136719 C 204.9375 493.980469 200.667969 493.980469 200.667969 491.136719 C 200.667969 488.292969 204.9375 488.292969 204.9375 491.136719 "/>
<path style=" stroke:none;fill-rule:nonzero;fill:rgb(100%,84.3%,0%);fill-opacity:1;" d="M 278.613281 495.402344 C 278.613281 498.246094 274.347656 498.246094 274.347656 495.402344 C 274.347656 492.558594 278.613281 492.558594 278.613281 495.402344 "/>
<path style=" stroke:none;fill-rule:nonzero;fill:rgb(100%,84.3%,0%);fill-opacity:1;" d="M 49.066406 440.363281 C 49.066406 443.207031 44.800781 443.207031 44.800781 440.363281 C 44.800781 437.519531 49.066406 437.519531 49.066406 440.363281 "/>
<path style=" stroke:none;fill-rule:nonzero;fill:rgb(100%,84.3%,0%);fill-opacity:1;" d="M 208.632812 493.269531 C 208.632812 496.113281 204.363281 496.113281 204.363281 493.269531 C 204.363281 490.425781 208.632812 490.425781 208.632812 493.269531 "/>
<path style=" stroke:none;fill-rule:nonzero;fill:rgb(100%,84.3%,0%);fill-opacity:1;" d="M 462.933594 484.582031 C 462.933594 487.425781 458.667969 487.425781 458.667969 484.582031 C 458.667969 481.738281 462.933594 481.738281 462.933594 484.582031 "/>
<path style=" stroke:none;fill-rule:nonzero;fill:rgb(100%,84.3%,0%);fill-opacity:1;" d="M 333.371094 493.269531 C 333.371094 496.113281 329.105469 496.113281 329.105469 493.269531 C 329.105469 490.425781 333.371094 490.425781 333.371094 493.269531 "/>
<path style=" stroke:none;fill-rule:nonzero;fill:rgb(100%,84.3%,0%);fill-opacity:1;" d="M 313.753906 491.136719 C 313.753906 493.980469 309.488281 493.980469 309.488281 491.136719 C 309.488281 488.292969 313.753906 488.292969 313.753906 491.136719 "/>
<path style=" stroke:none;fill-rule:nonzero;fill:rgb(100%,84.3%,0%);fill-opacity:1;" d="M 465.066406 472.355469 C 465.066406 475.199219 460.800781 475.199219 460.800781 472.355469 C 460.800781 469.507812 465.066406 469.507812 465.066406 472.355469 "/>
<path style=" stroke:none;fill-rule:nonzero;fill:rgb(100%,84.3%,0%);fill-opacity:1;" d="M 108.800781 495.402344 C 108.800781 498.246094 104.535156 498.246094 104.535156 495.402344 C 104.535156 492.558594 108.800781 492.558594 108.800781 495.402344 "/>
<path style=" stroke:none;fill-rule:nonzero;fill:rgb(100%,84.3%,0%);fill-opacity:1;" d="M 78.933594 380.628906 C 78.933594 383.472656 74.667969 383.472656 74.667969 380.628906 C 74.667969 377.785156 78.933594 377.785156 78.933594 380.628906 "/>
<path style=" stroke:none;fill-rule:nonzero;fill:rgb(100%,84.3%,0%);fill-opacity:1;" d="M 467.199219 380.628906 C 467.199219 383.472656 462.933594 383.472656 462.933594 380.628906 C 462.933594 377.785156 467.199219 377.785156 467.199219 380.628906 "/>
<path style=" stroke:none;fill-rule:nonzero;fill:rgb(100%,84.3%,0%);fill-opacity:1;" d="M 204.375 380.628906 C 204.375 383.472656 200.105469 383.472656 200.105469 380.628906 C 200.105469 377.785156 204.375 377.785156 204.375 380.628906 "/>
<path style=" stroke:none;fill-rule:nonzero;fill:rgb(100%,84.3%,0%);fill-opacity:1;" d="M 186.878906 495.402344 C 186.878906 498.246094 182.613281 498.246094 182.613281 495.402344 C 182.613281 492.558594 186.878906 492.558594 186.878906 495.402344 "/>
<path style=" stroke:none;fill-rule:nonzero;fill:rgb(100%,84.3%,0%);fill-opacity:1;" d="M 49.066406 431.828125 C 49.066406 434.671875 44.800781 434.671875 44.800781 431.828125 C 44.800781 428.984375 49.066406 428.984375 49.066406 431.828125 "/>
<path style=" stroke:none;fill-rule:nonzero;fill:rgb(100%,84.3%,0%);fill-opacity:1;" d="M 463.503906 493.269531 C 463.503906 496.113281 459.238281 496.113281 459.238281 493.269531 C 459.238281 490.425781 463.503906 490.425781 463.503906 493.269531 "/>
<path style=" stroke:none;fill-rule:nonzero;fill:rgb(100%,84.3%,0%);fill-opacity:1;" d="M 121.601562 495.402344 C 121.601562 498.246094 117.332031 498.246094 117.332031 495.402344 C 117.332031 492.558594 121.601562 492.558594 121.601562 495.402344 "/>
<path style=" stroke:none;fill-rule:nonzero;fill:rgb(100%,84.3%,0%);fill-opacity:1;" d="M 51.199219 465.390625 C 51.199219 468.234375 46.933594 468.234375 46.933594 465.390625 C 46.933594 462.546875 51.199219 462.546875 51.199219 465.390625 "/>
<path style=" stroke:none;fill-rule:nonzero;fill:rgb(100%,84.3%,0%);fill-opacity:1;" d="M 49.066406 398.976562 C 49.066406 401.820312 44.800781 401.820312 44.800781 398.976562 C 44.800781 396.132812 49.066406 396.132812 49.066406 398.976562 "/>
<path style=" stroke:none;fill-rule:nonzero;fill:rgb(100%,84.3%,0%);fill-opacity:1;" d="M 49.066406 485.878906 C 49.066406 488.722656 44.800781 488.722656 44.800781 485.878906 C 44.800781 483.035156 49.066406 483.035156 49.066406 485.878906 "/>
<path style=" stroke:none;fill-rule:nonzero;fill:rgb(100%,84.3%,0%);fill-opacity:1;" d="M 49.066406 414.761719 C 49.066406 417.609375 44.800781 417.609375 44.800781 414.761719 C 44.800781 411.917969 49.066406 411.917969 49.066406 414.761719 "/>
<path style=" stroke:none;fill-rule:nonzero;fill:rgb(100%,84.3%,0%);fill-opacity:1;" d="M 78.933594 495.402344 C 78.933594 498.246094 74.667969 498.246094 74.667969 495.402344 C 74.667969 492.558594 78.933594 492.558594 78.933594 495.402344 "/>
<path style=" stroke:none;fill-rule:nonzero;fill:rgb(100%,84.3%,0%);fill-opacity:1;" d="M 467.199219 437.375 C 467.199219 440.21875 462.933594 440.21875 462.933594 437.375 C 462.933594 434.53125 467.199219 434.53125 467.199219 437.375 "/>
<path style=" stroke:none;fill-rule:nonzero;fill:rgb(100%,84.3%,0%);fill-opacity:1;" d="M 113.066406 495.402344 C 113.066406 498.246094 108.800781 498.246094 108.800781 495.402344 C 108.800781 492.558594 113.066406 492.558594 113.066406 495.402344 "/>
<path style=" stroke:none;fill-rule:nonzero;fill:rgb(100%,84.3%,0%);fill-opacity:1;" d="M 213.332031 495.402344 C 213.332031 498.246094 209.066406 498.246094 209.066406 495.402344 C 209.066406 492.558594 213.332031 492.558594 213.332031 495.402344 "/>
<path style=" stroke:none;fill-rule:nonzero;fill:rgb(100%,84.3%,0%);fill-opacity:1;" d="M 463.503906 382.761719 C 463.503906 385.609375 459.238281 385.609375 459.238281 382.761719 C 459.238281 379.917969 463.503906 379.917969 463.503906 382.761719 "/>
<path style=" stroke:none;fill-rule:nonzero;fill:rgb(100%,84.3%,0%);fill-opacity:1;" d="M 467.199219 433.109375 C 467.199219 435.953125 462.933594 435.953125 462.933594 433.109375 C 462.933594 430.265625 467.199219 430.265625 467.199219 433.109375 "/>
<path style=" stroke:none;fill-rule:nonzero;fill:rgb(100%,84.3%,0%);fill-opacity:1;" d="M 362.667969 495.402344 C 362.667969 498.246094 358.398438 498.246094 358.398438 495.402344 C 358.398438 492.558594 362.667969 492.558594 362.667969 495.402344 "/>
<path style=" stroke:none;fill-rule:nonzero;fill:rgb(100%,84.3%,0%);fill-opacity:1;" d="M 125.867188 495.402344 C 125.867188 498.246094 121.601562 498.246094 121.601562 495.402344 C 121.601562 492.558594 125.867188 492.558594 125.867188 495.402344 "/>
<path style=" stroke:none;fill-rule:nonzero;fill:rgb(100%,84.3%,0%);fill-opacity:1;" d="M 68.113281 489.003906 C 68.113281 491.847656 63.847656 491.847656 63.847656 489.003906 C 63.847656 486.160156 68.113281 486.160156 68.113281 489.003906 "/>
<path style=" stroke:none;fill-rule:nonzero;fill:rgb(100%,84.3%,0%);fill-opacity:1;" d="M 400.496094 484.734375 C 400.496094 487.582031 396.230469 487.582031 396.230469 484.734375 C 396.230469 481.890625 400.496094 481.890625 400.496094 484.734375 "/>
<path style=" stroke:none;fill-rule:nonzero;fill:rgb(100%,84.3%,0%);fill-opacity:1;" d="M 100.265625 495.402344 C 100.265625 498.246094 96 498.246094 96 495.402344 C 96 492.558594 100.265625 492.558594 100.265625 495.402344 "/>
<path style=" stroke:none;fill-rule:nonzero;fill:rgb(100%,84.3%,0%);fill-opacity:1;" d="M 49.066406 469.085938 C 49.066406 471.929688 44.800781 471.929688 44.800781 469.085938 C 44.800781 466.242188 49.066406 466.242188 49.066406 469.085938 "/>
<path style=" stroke:none;fill-rule:nonzero;fill:rgb(100%,84.3%,0%);fill-opacity:1;" d="M 245.625 495.402344 C 245.625 498.246094 241.355469 498.246094 241.355469 495.402344 C 241.355469 492.558594 245.625 492.558594 245.625 495.402344 "/>
</g>
</svg>
