<?xml version="1.0" encoding="UTF-8"?>
<svg xmlns="http://www.w3.org/2000/svg" xmlns:xlink="http://www.w3.org/1999/xlink" width="512pt" height="512pt" viewBox="0 0 512 512" version="1.1">
<g id="surface281">
<path style=" stroke:none;fill-rule:nonzero;fill:rgb(26.7%,26.7%,26.7%);fill-opacity:1;" d="M 0 182.015625 L 512 182.015625 L 512 329.984375 L 0 329.984375 Z M 0 182.015625 "/>
<path style=" stroke:none;fill-rule:nonzero;fill:rgb(19.2%,38.8%,66.7%);fill-opacity:1;" d="M 42.667969 194.347656 L 469.332031 194.347656 L 469.332031 317.652344 L 42.667969 317.652344 Z M 42.667969 194.347656 "/>
<path style=" stroke:none;fill-rule:nonzero;fill:rgb(90.6%,14.9%,14.9%);fill-opacity:1;" d="M 567.894531 511.785156 C 567.894531 527.8125 554.902344 540.800781 538.878906 540.800781 C 522.855469 540.800781 509.867188 527.8125 509.867188 511.785156 C 509.867188 495.761719 522.855469 482.773438 538.878906 482.773438 C 554.902344 482.773438 567.894531 495.761719 567.894531 511.785156 "/>
<path style=" stroke:none;fill-rule:nonzero;fill:rgb(90.6%,14.9%,14.9%);fill-opacity:1;" d="M 369.917969 518.613281 C 369.917969 531.574219 359.414062 542.078125 346.453125 542.078125 C 333.492188 542.078125 322.988281 531.574219 322.988281 518.613281 C 322.988281 505.652344 333.492188 495.144531 346.453125 495.144531 C 359.414062 495.144531 369.917969 505.652344 369.917969 518.613281 "/>
<path style=" stroke:none;fill-rule:nonzero;fill:rgb(90.6%,14.9%,14.9%);fill-opacity:1;" d="M 543.144531 444.800781 C 543.144531 460.824219 530.15625 473.8125 514.132812 473.8125 C 498.109375 473.8125 485.121094 460.824219 485.121094 444.800781 C 485.121094 428.777344 498.109375 415.785156 514.132812 415.785156 C 530.15625 415.785156 543.144531 428.777344 543.144531 444.800781 "/>
<path style=" stroke:none;fill-rule:nonzero;fill:rgb(90.6%,14.9%,14.9%);fill-opacity:1;" d="M 354.132812 149.121094 C 354.132812 165.851562 340.570312 179.414062 323.839844 179.414062 C 307.109375 179.414062 293.546875 165.851562 293.546875 149.121094 C 293.546875 132.390625 307.109375 118.828125 323.839844 118.828125 C 340.570312 118.828125 354.132812 132.390625 354.132812 149.121094 "/>
<path style=" stroke:none;fill-rule:nonzero;fill:rgb(90.6%,14.9%,14.9%);fill-opacity:1;" d="M 289.28125 82.988281 C 289.28125 93.121094 281.066406 101.332031 270.933594 101.332031 C 260.800781 101.332031 252.585938 93.121094 252.585938 82.988281 C 252.585938 72.855469 260.800781 64.640625 270.933594 64.640625 C 281.066406 64.640625 289.28125 72.855469 289.28125 82.988281 "/>
<path style=" stroke:none;fill-rule:nonzero;fill:rgb(90.6%,14.9%,14.9%);fill-opacity:1;" d="M 178.347656 71.039062 C 178.347656 85.886719 166.3125 97.921875 151.46875 97.921875 C 136.621094 97.921875 124.585938 85.886719 124.585938 71.039062 C 124.585938 56.195312 136.621094 44.160156 151.46875 44.160156 C 166.3125 44.160156 178.347656 56.195312 178.347656 71.039062 "/>
<path style=" stroke:none;fill-rule:nonzero;fill:rgb(90.6%,14.9%,14.9%);fill-opacity:1;" d="M 147.199219 174.71875 C 147.199219 178.960938 143.761719 182.398438 139.519531 182.398438 C 135.277344 182.398438 131.839844 178.960938 131.839844 174.71875 C 131.839844 170.476562 135.277344 167.039062 139.519531 167.039062 C 143.761719 167.039062 147.199219 170.476562 147.199219 174.71875 "/>
<path style=" stroke:none;fill-rule:nonzero;fill:rgb(90.6%,14.9%,14.9%);fill-opacity:1;" d="M 214.1875 91.519531 C 214.1875 109.664062 199.476562 124.375 181.332031 124.375 C 163.1875 124.375 148.480469 109.664062 148.480469 91.519531 C 148.480469 73.375 163.1875 58.667969 181.332031 58.667969 C 199.476562 58.667969 214.1875 73.375 214.1875 91.519531 "/>
<path style=" stroke:none;fill-rule:nonzero;fill:rgb(90.6%,14.9%,14.9%);fill-opacity:1;" d="M 466.773438 149.546875 C 466.773438 160.152344 458.175781 168.746094 447.574219 168.746094 C 436.96875 168.746094 428.371094 160.152344 428.371094 149.546875 C 428.371094 138.941406 436.96875 130.347656 447.574219 130.347656 C 458.175781 130.347656 466.773438 138.941406 466.773438 149.546875 "/>
<path style=" stroke:none;fill-rule:nonzero;fill:rgb(90.6%,14.9%,14.9%);fill-opacity:1;" d="M 389.546875 478.078125 C 389.546875 483.972656 384.769531 488.746094 378.878906 488.746094 C 372.988281 488.746094 368.214844 483.972656 368.214844 478.078125 C 368.214844 472.1875 372.988281 467.414062 378.878906 467.414062 C 384.769531 467.414062 389.546875 472.1875 389.546875 478.078125 "/>
<path style=" stroke:none;fill-rule:nonzero;fill:rgb(90.6%,14.9%,14.9%);fill-opacity:1;" d="M 413.011719 361.601562 C 413.011719 368.433594 407.472656 373.972656 400.640625 373.972656 C 393.804688 373.972656 388.265625 368.433594 388.265625 361.601562 C 388.265625 354.765625 393.804688 349.226562 400.640625 349.226562 C 407.472656 349.226562 413.011719 354.765625 413.011719 361.601562 "/>
<path style=" stroke:none;fill-rule:nonzero;fill:rgb(90.6%,14.9%,14.9%);fill-opacity:1;" d="M 138.242188 472.53125 C 138.242188 489.96875 124.105469 504.105469 106.667969 504.105469 C 89.230469 504.105469 75.09375 489.96875 75.09375 472.53125 C 75.09375 455.09375 89.230469 440.960938 106.667969 440.960938 C 124.105469 440.960938 138.242188 455.09375 138.242188 472.53125 "/>
<path style=" stroke:none;fill-rule:nonzero;fill:rgb(90.6%,14.9%,14.9%);fill-opacity:1;" d="M 372.480469 423.46875 C 372.480469 426.878906 367.359375 426.878906 367.359375 423.46875 C 367.359375 420.054688 372.480469 420.054688 372.480469 423.46875 "/>
<path style=" stroke:none;fill-rule:nonzero;fill:rgb(90.6%,14.9%,14.9%);fill-opacity:1;" d="M 483.414062 435.414062 C 483.414062 448.609375 472.714844 459.304688 459.519531 459.304688 C 446.324219 459.304688 435.625 448.609375 435.625 435.414062 C 435.625 422.21875 446.324219 411.519531 459.519531 411.519531 C 472.714844 411.519531 483.414062 422.21875 483.414062 435.414062 "/>
<path style=" stroke:none;fill-rule:nonzero;fill:rgb(90.6%,14.9%,14.9%);fill-opacity:1;" d="M 20.90625 260.054688 C 20.90625 267.59375 14.792969 273.707031 7.253906 273.707031 C -0.289062 273.707031 -6.398438 267.59375 -6.398438 260.054688 C -6.398438 252.511719 -0.289062 246.398438 7.253906 246.398438 C 14.792969 246.398438 20.90625 252.511719 20.90625 260.054688 "/>
<path style=" stroke:none;fill-rule:nonzero;fill:rgb(90.6%,14.9%,14.9%);fill-opacity:1;" d="M 35.414062 -10.027344 C 35.414062 8.117188 20.703125 22.828125 2.558594 22.828125 C -15.585938 22.828125 -30.292969 8.117188 -30.292969 -10.027344 C -30.292969 -28.171875 -15.585938 -42.878906 2.558594 -42.878906 C 20.703125 -42.878906 35.414062 -28.171875 35.414062 -10.027344 "/>
<path style=" stroke:none;fill-rule:nonzero;fill:rgb(90.6%,14.9%,14.9%);fill-opacity:1;" d="M 214.1875 185.386719 C 214.1875 190.101562 210.367188 193.921875 205.652344 193.921875 C 200.941406 193.921875 197.121094 190.101562 197.121094 185.386719 C 197.121094 180.675781 200.941406 176.855469 205.652344 176.855469 C 210.367188 176.855469 214.1875 180.675781 214.1875 185.386719 "/>
<path style=" stroke:none;fill-rule:nonzero;fill:rgb(90.6%,14.9%,14.9%);fill-opacity:1;" d="M 248.320312 -3.199219 C 248.320312 12.824219 235.332031 25.8125 219.308594 25.8125 C 203.285156 25.8125 190.292969 12.824219 190.292969 -3.199219 C 190.292969 -19.222656 203.285156 -32.214844 219.308594 -32.214844 C 235.332031 -32.214844 248.320312 -19.222656 248.320312 -3.199219 "/>
<path style=" stroke:none;fill-rule:nonzero;fill:rgb(90.6%,14.9%,14.9%);fill-opacity:1;" d="M 307.625 129.066406 C 307.625 144.382812 295.210938 156.800781 279.894531 156.800781 C 264.578125 156.800781 252.160156 144.382812 252.160156 129.066406 C 252.160156 113.75 264.578125 101.332031 279.894531 101.332031 C 295.210938 101.332031 307.625 113.75 307.625 129.066406 "/>
<path style=" stroke:none;fill-rule:nonzero;fill:rgb(90.6%,14.9%,14.9%);fill-opacity:1;" d="M 216.320312 484.054688 C 216.320312 500.078125 203.332031 513.066406 187.308594 513.066406 C 171.285156 513.066406 158.292969 500.078125 158.292969 484.054688 C 158.292969 468.03125 171.285156 455.039062 187.308594 455.039062 C 203.332031 455.039062 216.320312 468.03125 216.320312 484.054688 "/>
<path style=" stroke:none;fill-rule:nonzero;fill:rgb(90.6%,14.9%,14.9%);fill-opacity:1;" d="M 494.507812 417.492188 C 494.507812 425.742188 487.820312 432.425781 479.574219 432.425781 C 471.324219 432.425781 464.640625 425.742188 464.640625 417.492188 C 464.640625 409.246094 471.324219 402.558594 479.574219 402.558594 C 487.820312 402.558594 494.507812 409.246094 494.507812 417.492188 "/>
<path style=" stroke:none;fill-rule:nonzero;fill:rgb(90.6%,14.9%,14.9%);fill-opacity:1;" d="M 290.558594 445.226562 C 290.558594 449.777344 283.734375 449.777344 283.734375 445.226562 C 283.734375 440.675781 290.558594 440.675781 290.558594 445.226562 "/>
<path style=" stroke:none;fill-rule:nonzero;fill:rgb(100%,100%,100%);fill-opacity:1;" d="M 366.082031 94.507812 C 366.082031 97.351562 361.8125 97.351562 361.8125 94.507812 C 361.8125 91.664062 366.082031 91.664062 366.082031 94.507812 "/>
<path style=" stroke:none;fill-rule:nonzero;fill:rgb(100%,100%,100%);fill-opacity:1;" d="M 270.082031 381.226562 C 270.082031 384.070312 265.8125 384.070312 265.8125 381.226562 C 265.8125 378.382812 270.082031 378.382812 270.082031 381.226562 "/>
<path style=" stroke:none;fill-rule:nonzero;fill:rgb(100%,100%,100%);fill-opacity:1;" d="M 32.425781 430.292969 C 32.425781 433.136719 28.160156 433.136719 28.160156 430.292969 C 28.160156 427.449219 32.425781 427.449219 32.425781 430.292969 "/>
<path style=" stroke:none;fill-rule:nonzero;fill:rgb(100%,100%,100%);fill-opacity:1;" d="M 389.121094 70.613281 C 389.121094 73.457031 384.855469 73.457031 384.855469 70.613281 C 384.855469 67.769531 389.121094 67.769531 389.121094 70.613281 "/>
<path style=" stroke:none;fill-rule:nonzero;fill:rgb(100%,100%,100%);fill-opacity:1;" d="M 157.867188 364.585938 C 157.867188 367.429688 153.601562 367.429688 153.601562 364.585938 C 153.601562 361.742188 157.867188 361.742188 157.867188 364.585938 "/>
<path style=" stroke:none;fill-rule:nonzero;fill:rgb(100%,100%,100%);fill-opacity:1;" d="M 343.894531 18.558594 C 343.894531 21.40625 339.625 21.40625 339.625 18.558594 C 339.625 15.714844 343.894531 15.714844 343.894531 18.558594 "/>
<path style=" stroke:none;fill-rule:nonzero;fill:rgb(100%,100%,100%);fill-opacity:1;" d="M 190.292969 171.308594 C 190.292969 174.152344 186.027344 174.152344 186.027344 171.308594 C 186.027344 168.460938 190.292969 168.460938 190.292969 171.308594 "/>
<path style=" stroke:none;fill-rule:nonzero;fill:rgb(100%,100%,100%);fill-opacity:1;" d="M 218.027344 86.828125 C 218.027344 89.671875 213.757812 89.671875 213.757812 86.828125 C 213.757812 83.984375 218.027344 83.984375 218.027344 86.828125 "/>
<path style=" stroke:none;fill-rule:nonzero;fill:rgb(100%,100%,100%);fill-opacity:1;" d="M 34.988281 31.359375 C 34.988281 34.203125 30.71875 34.203125 30.71875 31.359375 C 30.71875 28.515625 34.988281 28.515625 34.988281 31.359375 "/>
<path style=" stroke:none;fill-rule:nonzero;fill:rgb(100%,100%,100%);fill-opacity:1;" d="M 191.144531 352.640625 C 191.144531 355.484375 186.878906 355.484375 186.878906 352.640625 C 186.878906 349.796875 191.144531 349.796875 191.144531 352.640625 "/>
<path style=" stroke:none;fill-rule:nonzero;fill:rgb(100%,100%,100%);fill-opacity:1;" d="M 183.039062 193.492188 C 183.039062 196.335938 178.773438 196.335938 178.773438 193.492188 C 178.773438 190.648438 183.039062 190.648438 183.039062 193.492188 "/>
<path style=" stroke:none;fill-rule:nonzero;fill:rgb(100%,100%,100%);fill-opacity:1;" d="M 241.492188 98.347656 C 241.492188 101.191406 237.226562 101.191406 237.226562 98.347656 C 237.226562 95.503906 241.492188 95.503906 241.492188 98.347656 "/>
<path style=" stroke:none;fill-rule:nonzero;fill:rgb(100%,100%,100%);fill-opacity:1;" d="M 176.214844 56.105469 C 176.214844 58.953125 171.945312 58.953125 171.945312 56.105469 C 171.945312 53.261719 176.214844 53.261719 176.214844 56.105469 "/>
<path style=" stroke:none;fill-rule:nonzero;fill:rgb(100%,100%,100%);fill-opacity:1;" d="M 393.8125 431.574219 C 393.8125 434.417969 389.546875 434.417969 389.546875 431.574219 C 389.546875 428.730469 393.8125 428.730469 393.8125 431.574219 "/>
<path style=" stroke:none;fill-rule:nonzero;fill:rgb(100%,100%,100%);fill-opacity:1;" d="M 79.359375 154.667969 C 79.359375 157.511719 75.09375 157.511719 75.09375 154.667969 C 75.09375 151.824219 79.359375 151.824219 79.359375 154.667969 "/>
<path style=" stroke:none;fill-rule:nonzero;fill:rgb(100%,100%,100%);fill-opacity:1;" d="M 5.972656 43.734375 C 5.972656 46.578125 1.707031 46.578125 1.707031 43.734375 C 1.707031 40.886719 5.972656 40.886719 5.972656 43.734375 "/>
<path style=" stroke:none;fill-rule:nonzero;fill:rgb(100%,100%,100%);fill-opacity:1;" d="M 458.667969 382.933594 C 458.667969 385.777344 454.398438 385.777344 454.398438 382.933594 C 454.398438 380.089844 458.667969 380.089844 458.667969 382.933594 "/>
<path style=" stroke:none;fill-rule:nonzero;fill:rgb(100%,100%,100%);fill-opacity:1;" d="M 470.613281 367.574219 C 470.613281 370.417969 466.347656 370.417969 466.347656 367.574219 C 466.347656 364.730469 470.613281 364.730469 470.613281 367.574219 "/>
<path style=" stroke:none;fill-rule:nonzero;fill:rgb(100%,100%,100%);fill-opacity:1;" d="M 421.121094 110.292969 C 421.121094 113.136719 416.855469 113.136719 416.855469 110.292969 C 416.855469 107.449219 421.121094 107.449219 421.121094 110.292969 "/>
<path style=" stroke:none;fill-rule:nonzero;fill:rgb(100%,100%,100%);fill-opacity:1;" d="M 488.105469 37.761719 C 488.105469 40.605469 483.839844 40.605469 483.839844 37.761719 C 483.839844 34.914062 488.105469 34.914062 488.105469 37.761719 "/>
<path style=" stroke:none;fill-rule:nonzero;fill:rgb(100%,100%,100%);fill-opacity:1;" d="M 277.332031 432 C 277.332031 434.84375 273.066406 434.84375 273.066406 432 C 273.066406 429.15625 277.332031 429.15625 277.332031 432 "/>
<path style=" stroke:none;fill-rule:nonzero;fill:rgb(100%,100%,100%);fill-opacity:1;" d="M 226.132812 321.492188 C 226.132812 324.335938 221.867188 324.335938 221.867188 321.492188 C 221.867188 318.648438 226.132812 318.648438 226.132812 321.492188 "/>
<path style=" stroke:none;fill-rule:nonzero;fill:rgb(100%,100%,100%);fill-opacity:1;" d="M 26.453125 241.28125 C 26.453125 244.125 22.1875 244.125 22.1875 241.28125 C 22.1875 238.4375 26.453125 238.4375 26.453125 241.28125 "/>
<path style=" stroke:none;fill-rule:nonzero;fill:rgb(100%,100%,100%);fill-opacity:1;" d="M 46.933594 502.828125 C 46.933594 505.671875 42.667969 505.671875 42.667969 502.828125 C 42.667969 499.984375 46.933594 499.984375 46.933594 502.828125 "/>
<path style=" stroke:none;fill-rule:nonzero;fill:rgb(100%,100%,100%);fill-opacity:1;" d="M 197.546875 340.691406 C 197.546875 343.539062 193.28125 343.539062 193.28125 340.691406 C 193.28125 337.847656 197.546875 337.847656 197.546875 340.691406 "/>
<path style=" stroke:none;fill-rule:nonzero;fill:rgb(100%,100%,100%);fill-opacity:1;" d="M 479.574219 251.09375 C 479.574219 253.9375 475.308594 253.9375 475.308594 251.09375 C 475.308594 248.25 479.574219 248.25 479.574219 251.09375 "/>
<path style=" stroke:none;fill-rule:nonzero;fill:rgb(100%,100%,100%);fill-opacity:1;" d="M 73.386719 370.558594 C 73.386719 373.40625 69.121094 373.40625 69.121094 370.558594 C 69.121094 367.714844 73.386719 367.714844 73.386719 370.558594 "/>
<path style=" stroke:none;fill-rule:nonzero;fill:rgb(100%,100%,100%);fill-opacity:1;" d="M 64.425781 388.480469 C 64.425781 391.324219 60.160156 391.324219 60.160156 388.480469 C 60.160156 385.636719 64.425781 385.636719 64.425781 388.480469 "/>
<path style=" stroke:none;fill-rule:nonzero;fill:rgb(100%,100%,100%);fill-opacity:1;" d="M 335.785156 356.90625 C 335.785156 359.75 331.519531 359.75 331.519531 356.90625 C 331.519531 354.0625 335.785156 354.0625 335.785156 356.90625 "/>
<path style=" stroke:none;fill-rule:nonzero;fill:rgb(100%,100%,100%);fill-opacity:1;" d="M 103.679688 371.839844 C 103.679688 374.683594 99.414062 374.683594 99.414062 371.839844 C 99.414062 368.996094 103.679688 368.996094 103.679688 371.839844 "/>
<path style=" stroke:none;fill-rule:nonzero;fill:rgb(100%,100%,100%);fill-opacity:1;" d="M 388.265625 319.785156 C 388.265625 322.632812 384 322.632812 384 319.785156 C 384 316.941406 388.265625 316.941406 388.265625 319.785156 "/>
<path style=" stroke:none;fill-rule:nonzero;fill:rgb(100%,100%,100%);fill-opacity:1;" d="M 146.773438 484.90625 C 146.773438 487.75 142.507812 487.75 142.507812 484.90625 C 142.507812 482.0625 146.773438 482.0625 146.773438 484.90625 "/>
<path style=" stroke:none;fill-rule:nonzero;fill:rgb(100%,100%,100%);fill-opacity:1;" d="M 145.066406 7.46875 C 145.066406 10.3125 140.800781 10.3125 140.800781 7.46875 C 140.800781 4.621094 145.066406 4.621094 145.066406 7.46875 "/>
<path style=" stroke:none;fill-rule:nonzero;fill:rgb(100%,100%,100%);fill-opacity:1;" d="M 95.144531 396.585938 C 95.144531 399.429688 90.878906 399.429688 90.878906 396.585938 C 90.878906 393.742188 95.144531 393.742188 95.144531 396.585938 "/>
<path style=" stroke:none;fill-rule:nonzero;fill:rgb(100%,100%,100%);fill-opacity:1;" d="M 514.558594 136.320312 C 514.558594 139.164062 510.292969 139.164062 510.292969 136.320312 C 510.292969 133.476562 514.558594 133.476562 514.558594 136.320312 "/>
<path style=" stroke:none;fill-rule:nonzero;fill:rgb(100%,100%,100%);fill-opacity:1;" d="M 11.945312 407.679688 C 11.945312 410.523438 7.679688 410.523438 7.679688 407.679688 C 7.679688 404.835938 11.945312 404.835938 11.945312 407.679688 "/>
<path style=" stroke:none;fill-rule:nonzero;fill:rgb(100%,100%,100%);fill-opacity:1;" d="M 23.894531 212.691406 C 23.894531 215.539062 19.625 215.539062 19.625 212.691406 C 19.625 209.847656 23.894531 209.847656 23.894531 212.691406 "/>
<path style=" stroke:none;fill-rule:nonzero;fill:rgb(100%,100%,100%);fill-opacity:1;" d="M 316.160156 378.238281 C 316.160156 381.085938 311.894531 381.085938 311.894531 378.238281 C 311.894531 375.394531 316.160156 375.394531 316.160156 378.238281 "/>
<path style=" stroke:none;fill-rule:nonzero;fill:rgb(100%,100%,100%);fill-opacity:1;" d="M 253.011719 330.027344 C 253.011719 332.871094 248.746094 332.871094 248.746094 330.027344 C 248.746094 327.183594 253.011719 327.183594 253.011719 330.027344 "/>
<path style=" stroke:none;fill-rule:nonzero;fill:rgb(100%,100%,100%);fill-opacity:1;" d="M 91.734375 118.828125 C 91.734375 121.671875 87.464844 121.671875 87.464844 118.828125 C 87.464844 115.984375 91.734375 115.984375 91.734375 118.828125 "/>
<path style=" stroke:none;fill-rule:nonzero;fill:rgb(100%,100%,100%);fill-opacity:1;" d="M 255.574219 362.453125 C 255.574219 365.296875 251.308594 365.296875 251.308594 362.453125 C 251.308594 359.609375 255.574219 359.609375 255.574219 362.453125 "/>
<path style=" stroke:none;fill-rule:nonzero;fill:rgb(100%,100%,100%);fill-opacity:1;" d="M 149.332031 12.160156 C 149.332031 15.003906 145.066406 15.003906 145.066406 12.160156 C 145.066406 9.316406 149.332031 9.316406 149.332031 12.160156 "/>
<path style=" stroke:none;fill-rule:nonzero;fill:rgb(100%,100%,100%);fill-opacity:1;" d="M 412.160156 80.851562 C 412.160156 83.699219 407.894531 83.699219 407.894531 80.851562 C 407.894531 78.007812 412.160156 78.007812 412.160156 80.851562 "/>
<path style=" stroke:none;fill-rule:nonzero;fill:rgb(100%,100%,100%);fill-opacity:1;" d="M 188.160156 437.972656 C 188.160156 440.816406 183.894531 440.816406 183.894531 437.972656 C 183.894531 435.128906 188.160156 435.128906 188.160156 437.972656 "/>
<path style=" stroke:none;fill-rule:nonzero;fill:rgb(100%,100%,100%);fill-opacity:1;" d="M 164.265625 27.945312 C 164.265625 30.792969 160 30.792969 160 27.945312 C 160 25.101562 164.265625 25.101562 164.265625 27.945312 "/>
<path style=" stroke:none;fill-rule:nonzero;fill:rgb(100%,100%,100%);fill-opacity:1;" d="M 115.625 349.226562 C 115.625 352.070312 111.359375 352.070312 111.359375 349.226562 C 111.359375 346.382812 115.625 346.382812 115.625 349.226562 "/>
<path style=" stroke:none;fill-rule:nonzero;fill:rgb(100%,100%,100%);fill-opacity:1;" d="M 53.761719 50.988281 C 53.761719 53.832031 49.492188 53.832031 49.492188 50.988281 C 49.492188 48.140625 53.761719 48.140625 53.761719 50.988281 "/>
<path style=" stroke:none;fill-rule:nonzero;fill:rgb(100%,100%,100%);fill-opacity:1;" d="M 7.253906 473.386719 C 7.253906 476.230469 2.988281 476.230469 2.988281 473.386719 C 2.988281 470.542969 7.253906 470.542969 7.253906 473.386719 "/>
<path style=" stroke:none;fill-rule:nonzero;fill:rgb(100%,100%,100%);fill-opacity:1;" d="M 14.933594 454.613281 C 14.933594 457.457031 10.667969 457.457031 10.667969 454.613281 C 10.667969 451.769531 14.933594 451.769531 14.933594 454.613281 "/>
<path style=" stroke:none;fill-rule:nonzero;fill:rgb(100%,100%,100%);fill-opacity:1;" d="M 307.625 513.066406 C 307.625 515.910156 303.359375 515.910156 303.359375 513.066406 C 303.359375 510.222656 307.625 510.222656 307.625 513.066406 "/>
<path style=" stroke:none;fill-rule:nonzero;fill:rgb(100%,100%,100%);fill-opacity:1;" d="M 279.039062 433.707031 C 279.039062 436.550781 274.773438 436.550781 274.773438 433.707031 C 274.773438 430.863281 279.039062 430.863281 279.039062 433.707031 "/>
<path style=" stroke:none;fill-rule:nonzero;fill:rgb(100%,100%,100%);fill-opacity:1;" d="M 216.320312 370.558594 C 216.320312 373.40625 212.054688 373.40625 212.054688 370.558594 C 212.054688 367.714844 216.320312 367.714844 216.320312 370.558594 "/>
<path style=" stroke:none;fill-rule:nonzero;fill:rgb(100%,100%,100%);fill-opacity:1;" d="M 108.800781 336.425781 C 108.800781 339.269531 104.535156 339.269531 104.535156 336.425781 C 104.535156 333.582031 108.800781 333.582031 108.800781 336.425781 "/>
<path style=" stroke:none;fill-rule:nonzero;fill:rgb(100%,100%,100%);fill-opacity:1;" d="M 16.214844 170.027344 C 16.214844 172.871094 11.945312 172.871094 11.945312 170.027344 C 11.945312 167.183594 16.214844 167.183594 16.214844 170.027344 "/>
<path style=" stroke:none;fill-rule:nonzero;fill:rgb(100%,100%,100%);fill-opacity:1;" d="M 437.761719 410.238281 C 437.761719 413.085938 433.492188 413.085938 433.492188 410.238281 C 433.492188 407.394531 437.761719 407.394531 437.761719 410.238281 "/>
<path style=" stroke:none;fill-rule:nonzero;fill:rgb(100%,100%,100%);fill-opacity:1;" d="M 459.519531 459.734375 C 459.519531 462.578125 455.253906 462.578125 455.253906 459.734375 C 455.253906 456.886719 459.519531 456.886719 459.519531 459.734375 "/>
<path style=" stroke:none;fill-rule:nonzero;fill:rgb(100%,100%,100%);fill-opacity:1;" d="M 61.441406 118.398438 C 61.441406 121.246094 57.171875 121.246094 57.171875 118.398438 C 57.171875 115.554688 61.441406 115.554688 61.441406 118.398438 "/>
<path style=" stroke:none;fill-rule:nonzero;fill:rgb(100%,100%,100%);fill-opacity:1;" d="M 232.535156 446.507812 C 232.535156 449.351562 228.265625 449.351562 228.265625 446.507812 C 228.265625 443.664062 232.535156 443.664062 232.535156 446.507812 "/>
<path style=" stroke:none;fill-rule:nonzero;fill:rgb(100%,100%,100%);fill-opacity:1;" d="M 35.414062 87.679688 C 35.414062 90.523438 31.148438 90.523438 31.148438 87.679688 C 31.148438 84.835938 35.414062 84.835938 35.414062 87.679688 "/>
<path style=" stroke:none;fill-rule:nonzero;fill:rgb(100%,100%,100%);fill-opacity:1;" d="M 349.867188 321.066406 C 349.867188 323.910156 345.601562 323.910156 345.601562 321.066406 C 345.601562 318.222656 349.867188 318.222656 349.867188 321.066406 "/>
<path style=" stroke:none;fill-rule:nonzero;fill:rgb(100%,100%,100%);fill-opacity:1;" d="M 506.878906 52.691406 C 506.878906 55.539062 502.613281 55.539062 502.613281 52.691406 C 502.613281 49.847656 506.878906 49.847656 506.878906 52.691406 "/>
<path style=" stroke:none;fill-rule:nonzero;fill:rgb(100%,100%,100%);fill-opacity:1;" d="M 37.972656 52.265625 C 37.972656 55.113281 33.707031 55.113281 33.707031 52.265625 C 33.707031 49.421875 37.972656 49.421875 37.972656 52.265625 "/>
<path style=" stroke:none;fill-rule:nonzero;fill:rgb(100%,100%,100%);fill-opacity:1;" d="M 473.601562 270.71875 C 473.601562 273.5625 469.332031 273.5625 469.332031 270.71875 C 469.332031 267.875 473.601562 267.875 473.601562 270.71875 "/>
<path style=" stroke:none;fill-rule:nonzero;fill:rgb(100%,100%,100%);fill-opacity:1;" d="M 180.480469 9.601562 C 180.480469 12.445312 176.214844 12.445312 176.214844 9.601562 C 176.214844 6.753906 180.480469 6.753906 180.480469 9.601562 "/>
<path style=" stroke:none;fill-rule:nonzero;fill:rgb(100%,100%,100%);fill-opacity:1;" d="M 347.304688 70.1875 C 347.304688 73.03125 343.039062 73.03125 343.039062 70.1875 C 343.039062 67.34375 347.304688 67.34375 347.304688 70.1875 "/>
<path style=" stroke:none;fill-rule:nonzero;fill:rgb(100%,84.3%,0%);fill-opacity:1;" d="M 372.34375 309.121094 C 372.34375 311.964844 368.078125 311.964844 368.078125 309.121094 C 368.078125 306.277344 372.34375 306.277344 372.34375 309.121094 "/>
<path style=" stroke:none;fill-rule:nonzero;fill:rgb(100%,84.3%,0%);fill-opacity:1;" d="M 467.199219 229.761719 C 467.199219 232.605469 462.933594 232.605469 462.933594 229.761719 C 462.933594 226.914062 467.199219 226.914062 467.199219 229.761719 "/>
<path style=" stroke:none;fill-rule:nonzero;fill:rgb(100%,84.3%,0%);fill-opacity:1;" d="M 310.058594 306.988281 C 310.058594 309.832031 305.792969 309.832031 305.792969 306.988281 C 305.792969 304.140625 310.058594 304.140625 310.058594 306.988281 "/>
<path style=" stroke:none;fill-rule:nonzero;fill:rgb(100%,84.3%,0%);fill-opacity:1;" d="M 467.199219 270.71875 C 467.199219 273.5625 462.933594 273.5625 462.933594 270.71875 C 462.933594 267.875 467.199219 267.875 467.199219 270.71875 "/>
<path style=" stroke:none;fill-rule:nonzero;fill:rgb(100%,84.3%,0%);fill-opacity:1;" d="M 191.144531 313.386719 C 191.144531 316.230469 186.878906 316.230469 186.878906 313.386719 C 186.878906 310.542969 191.144531 310.542969 191.144531 313.386719 "/>
<path style=" stroke:none;fill-rule:nonzero;fill:rgb(100%,84.3%,0%);fill-opacity:1;" d="M 257.28125 313.386719 C 257.28125 316.230469 253.011719 316.230469 253.011719 313.386719 C 253.011719 310.542969 257.28125 310.542969 257.28125 313.386719 "/>
<path style=" stroke:none;fill-rule:nonzero;fill:rgb(100%,84.3%,0%);fill-opacity:1;" d="M 366.363281 311.253906 C 366.363281 314.097656 362.09375 314.097656 362.09375 311.253906 C 362.09375 308.410156 366.363281 308.410156 366.363281 311.253906 "/>
<path style=" stroke:none;fill-rule:nonzero;fill:rgb(100%,84.3%,0%);fill-opacity:1;" d="M 337.066406 313.386719 C 337.066406 316.230469 332.800781 316.230469 332.800781 313.386719 C 332.800781 310.542969 337.066406 310.542969 337.066406 313.386719 "/>
<path style=" stroke:none;fill-rule:nonzero;fill:rgb(100%,84.3%,0%);fill-opacity:1;" d="M 270.082031 313.386719 C 270.082031 316.230469 265.8125 316.230469 265.8125 313.386719 C 265.8125 310.542969 270.082031 310.542969 270.082031 313.386719 "/>
<path style=" stroke:none;fill-rule:nonzero;fill:rgb(100%,84.3%,0%);fill-opacity:1;" d="M 70.398438 313.386719 C 70.398438 316.230469 66.132812 316.230469 66.132812 313.386719 C 66.132812 310.542969 70.398438 310.542969 70.398438 313.386719 "/>
<path style=" stroke:none;fill-rule:nonzero;fill:rgb(100%,84.3%,0%);fill-opacity:1;" d="M 96 313.386719 C 96 316.230469 91.734375 316.230469 91.734375 313.386719 C 91.734375 310.542969 96 310.542969 96 313.386719 "/>
<path style=" stroke:none;fill-rule:nonzero;fill:rgb(100%,84.3%,0%);fill-opacity:1;" d="M 467.199219 313.386719 C 467.199219 316.230469 462.933594 316.230469 462.933594 313.386719 C 462.933594 310.542969 467.199219 310.542969 467.199219 313.386719 "/>
<path style=" stroke:none;fill-rule:nonzero;fill:rgb(100%,84.3%,0%);fill-opacity:1;" d="M 286.003906 313.386719 C 286.003906 316.230469 281.738281 316.230469 281.738281 313.386719 C 281.738281 310.542969 286.003906 310.542969 286.003906 313.386719 "/>
<path style=" stroke:none;fill-rule:nonzero;fill:rgb(100%,84.3%,0%);fill-opacity:1;" d="M 87.464844 313.386719 C 87.464844 316.230469 83.199219 316.230469 83.199219 313.386719 C 83.199219 310.542969 87.464844 310.542969 87.464844 313.386719 "/>
<path style=" stroke:none;fill-rule:nonzero;fill:rgb(100%,84.3%,0%);fill-opacity:1;" d="M 161.707031 198.613281 C 161.707031 201.457031 157.441406 201.457031 157.441406 198.613281 C 157.441406 195.769531 161.707031 195.769531 161.707031 198.613281 "/>
<path style=" stroke:none;fill-rule:nonzero;fill:rgb(100%,84.3%,0%);fill-opacity:1;" d="M 49.066406 294.460938 C 49.066406 297.304688 44.800781 297.304688 44.800781 294.460938 C 44.800781 291.617188 49.066406 291.617188 49.066406 294.460938 "/>
<path style=" stroke:none;fill-rule:nonzero;fill:rgb(100%,84.3%,0%);fill-opacity:1;" d="M 54.894531 226.917969 C 54.894531 229.761719 50.628906 229.761719 50.628906 226.917969 C 50.628906 224.074219 54.894531 224.074219 54.894531 226.917969 "/>
<path style=" stroke:none;fill-rule:nonzero;fill:rgb(100%,84.3%,0%);fill-opacity:1;" d="M 174.082031 313.386719 C 174.082031 316.230469 169.8125 316.230469 169.8125 313.386719 C 169.8125 310.542969 174.082031 310.542969 174.082031 313.386719 "/>
<path style=" stroke:none;fill-rule:nonzero;fill:rgb(100%,84.3%,0%);fill-opacity:1;" d="M 60.152344 309.121094 C 60.152344 311.964844 55.882812 311.964844 55.882812 309.121094 C 55.882812 306.277344 60.152344 306.277344 60.152344 309.121094 "/>
<path style=" stroke:none;fill-rule:nonzero;fill:rgb(100%,84.3%,0%);fill-opacity:1;" d="M 74.667969 198.613281 C 74.667969 201.457031 70.398438 201.457031 70.398438 198.613281 C 70.398438 195.769531 74.667969 195.769531 74.667969 198.613281 "/>
<path style=" stroke:none;fill-rule:nonzero;fill:rgb(100%,84.3%,0%);fill-opacity:1;" d="M 451.847656 303.863281 C 451.847656 306.707031 447.582031 306.707031 447.582031 303.863281 C 447.582031 301.019531 451.847656 301.019531 451.847656 303.863281 "/>
<path style=" stroke:none;fill-rule:nonzero;fill:rgb(100%,84.3%,0%);fill-opacity:1;" d="M 265.8125 313.386719 C 265.8125 316.230469 261.546875 316.230469 261.546875 313.386719 C 261.546875 310.542969 265.8125 310.542969 265.8125 313.386719 "/>
<path style=" stroke:none;fill-rule:nonzero;fill:rgb(100%,84.3%,0%);fill-opacity:1;" d="M 467.199219 238.292969 C 467.199219 241.136719 462.933594 241.136719 462.933594 238.292969 C 462.933594 235.449219 467.199219 235.449219 467.199219 238.292969 "/>
<path style=" stroke:none;fill-rule:nonzero;fill:rgb(100%,84.3%,0%);fill-opacity:1;" d="M 49.066406 204.160156 C 49.066406 207.003906 44.800781 207.003906 44.800781 204.160156 C 44.800781 201.316406 49.066406 201.316406 49.066406 204.160156 "/>
<path style=" stroke:none;fill-rule:nonzero;fill:rgb(100%,84.3%,0%);fill-opacity:1;" d="M 49.066406 221.226562 C 49.066406 224.070312 44.800781 224.070312 44.800781 221.226562 C 44.800781 218.382812 49.066406 218.382812 49.066406 221.226562 "/>
<path style=" stroke:none;fill-rule:nonzero;fill:rgb(100%,84.3%,0%);fill-opacity:1;" d="M 290.269531 313.386719 C 290.269531 316.230469 286.003906 316.230469 286.003906 313.386719 C 286.003906 310.542969 290.269531 310.542969 290.269531 313.386719 "/>
<path style=" stroke:none;fill-rule:nonzero;fill:rgb(100%,84.3%,0%);fill-opacity:1;" d="M 354.132812 313.386719 C 354.132812 316.230469 349.867188 316.230469 349.867188 313.386719 C 349.867188 310.542969 354.132812 310.542969 354.132812 313.386719 "/>
<path style=" stroke:none;fill-rule:nonzero;fill:rgb(100%,84.3%,0%);fill-opacity:1;" d="M 130.132812 313.386719 C 130.132812 316.230469 125.867188 316.230469 125.867188 313.386719 C 125.867188 310.542969 130.132812 310.542969 130.132812 313.386719 "/>
<path style=" stroke:none;fill-rule:nonzero;fill:rgb(100%,84.3%,0%);fill-opacity:1;" d="M 49.066406 245.546875 C 49.066406 248.390625 44.800781 248.390625 44.800781 245.546875 C 44.800781 242.703125 49.066406 242.703125 49.066406 245.546875 "/>
<path style=" stroke:none;fill-rule:nonzero;fill:rgb(100%,84.3%,0%);fill-opacity:1;" d="M 49.066406 254.078125 C 49.066406 256.925781 44.800781 256.925781 44.800781 254.078125 C 44.800781 251.234375 49.066406 251.234375 49.066406 254.078125 "/>
<path style=" stroke:none;fill-rule:nonzero;fill:rgb(100%,84.3%,0%);fill-opacity:1;" d="M 161.28125 313.386719 C 161.28125 316.230469 157.011719 316.230469 157.011719 313.386719 C 157.011719 310.542969 161.28125 310.542969 161.28125 313.386719 "/>
<path style=" stroke:none;fill-rule:nonzero;fill:rgb(100%,84.3%,0%);fill-opacity:1;" d="M 462.933594 294.035156 C 462.933594 296.878906 458.667969 296.878906 458.667969 294.035156 C 458.667969 291.191406 462.933594 291.191406 462.933594 294.035156 "/>
<path style=" stroke:none;fill-rule:nonzero;fill:rgb(100%,84.3%,0%);fill-opacity:1;" d="M 325.410156 313.386719 C 325.410156 316.230469 321.144531 316.230469 321.144531 313.386719 C 321.144531 310.542969 325.410156 310.542969 325.410156 313.386719 "/>
<path style=" stroke:none;fill-rule:nonzero;fill:rgb(100%,84.3%,0%);fill-opacity:1;" d="M 49.066406 279.679688 C 49.066406 282.523438 44.800781 282.523438 44.800781 279.679688 C 44.800781 276.835938 49.066406 276.835938 49.066406 279.679688 "/>
<path style=" stroke:none;fill-rule:nonzero;fill:rgb(100%,84.3%,0%);fill-opacity:1;" d="M 193.28125 309.691406 C 193.28125 312.535156 189.011719 312.535156 189.011719 309.691406 C 189.011719 306.847656 193.28125 306.847656 193.28125 309.691406 "/>
<path style=" stroke:none;fill-rule:nonzero;fill:rgb(100%,84.3%,0%);fill-opacity:1;" d="M 349.867188 313.386719 C 349.867188 316.230469 345.601562 316.230469 345.601562 313.386719 C 345.601562 310.542969 349.867188 310.542969 349.867188 313.386719 "/>
<path style=" stroke:none;fill-rule:nonzero;fill:rgb(100%,84.3%,0%);fill-opacity:1;" d="M 165.972656 198.613281 C 165.972656 201.457031 161.707031 201.457031 161.707031 198.613281 C 161.707031 195.769531 165.972656 195.769531 165.972656 198.613281 "/>
<path style=" stroke:none;fill-rule:nonzero;fill:rgb(100%,84.3%,0%);fill-opacity:1;" d="M 217.601562 313.386719 C 217.601562 316.230469 213.332031 316.230469 213.332031 313.386719 C 213.332031 310.542969 217.601562 310.542969 217.601562 313.386719 "/>
<path style=" stroke:none;fill-rule:nonzero;fill:rgb(100%,84.3%,0%);fill-opacity:1;" d="M 396.800781 313.386719 C 396.800781 316.230469 392.535156 316.230469 392.535156 313.386719 C 392.535156 310.542969 396.800781 310.542969 396.800781 313.386719 "/>
<path style=" stroke:none;fill-rule:nonzero;fill:rgb(100%,84.3%,0%);fill-opacity:1;" d="M 317.449219 311.253906 C 317.449219 314.097656 313.183594 314.097656 313.183594 311.253906 C 313.183594 308.410156 317.449219 308.410156 317.449219 311.253906 "/>
<path style=" stroke:none;fill-rule:nonzero;fill:rgb(100%,84.3%,0%);fill-opacity:1;" d="M 182.613281 313.386719 C 182.613281 316.230469 178.347656 316.230469 178.347656 313.386719 C 178.347656 310.542969 182.613281 310.542969 182.613281 313.386719 "/>
<path style=" stroke:none;fill-rule:nonzero;fill:rgb(100%,84.3%,0%);fill-opacity:1;" d="M 341.332031 313.386719 C 341.332031 316.230469 337.066406 316.230469 337.066406 313.386719 C 337.066406 310.542969 341.332031 310.542969 341.332031 313.386719 "/>
<path style=" stroke:none;fill-rule:nonzero;fill:rgb(100%,84.3%,0%);fill-opacity:1;" d="M 148.480469 313.386719 C 148.480469 316.230469 144.214844 316.230469 144.214844 313.386719 C 144.214844 310.542969 148.480469 310.542969 148.480469 313.386719 "/>
<path style=" stroke:none;fill-rule:nonzero;fill:rgb(100%,84.3%,0%);fill-opacity:1;" d="M 465.066406 282.949219 C 465.066406 285.792969 460.800781 285.792969 460.800781 282.949219 C 460.800781 280.105469 465.066406 280.105469 465.066406 282.949219 "/>
<path style=" stroke:none;fill-rule:nonzero;fill:rgb(100%,84.3%,0%);fill-opacity:1;" d="M 49.066406 262.613281 C 49.066406 265.457031 44.800781 265.457031 44.800781 262.613281 C 44.800781 259.769531 49.066406 259.769531 49.066406 262.613281 "/>
<path style=" stroke:none;fill-rule:nonzero;fill:rgb(100%,84.3%,0%);fill-opacity:1;" d="M 191.574219 198.613281 C 191.574219 201.457031 187.308594 201.457031 187.308594 198.613281 C 187.308594 195.769531 191.574219 195.769531 191.574219 198.613281 "/>
<path style=" stroke:none;fill-rule:nonzero;fill:rgb(100%,84.3%,0%);fill-opacity:1;" d="M 226.132812 313.386719 C 226.132812 316.230469 221.867188 316.230469 221.867188 313.386719 C 221.867188 310.542969 226.132812 310.542969 226.132812 313.386719 "/>
<path style=" stroke:none;fill-rule:nonzero;fill:rgb(100%,84.3%,0%);fill-opacity:1;" d="M 49.066406 266.878906 C 49.066406 269.722656 44.800781 269.722656 44.800781 266.878906 C 44.800781 264.035156 49.066406 264.035156 49.066406 266.878906 "/>
<path style=" stroke:none;fill-rule:nonzero;fill:rgb(100%,84.3%,0%);fill-opacity:1;" d="M 49.066406 198.613281 C 49.066406 201.457031 44.800781 201.457031 44.800781 198.613281 C 44.800781 195.769531 49.066406 195.769531 49.066406 198.613281 "/>
<path style=" stroke:none;fill-rule:nonzero;fill:rgb(100%,84.3%,0%);fill-opacity:1;" d="M 467.199219 286.644531 C 467.199219 289.488281 462.933594 289.488281 462.933594 286.644531 C 462.933594 283.796875 467.199219 283.796875 467.199219 286.644531 "/>
<path style=" stroke:none;fill-rule:nonzero;fill:rgb(100%,84.3%,0%);fill-opacity:1;" d="M 63.847656 306.988281 C 63.847656 309.832031 59.582031 309.832031 59.582031 306.988281 C 59.582031 304.140625 63.847656 304.140625 63.847656 306.988281 "/>
<path style=" stroke:none;fill-rule:nonzero;fill:rgb(100%,84.3%,0%);fill-opacity:1;" d="M 49.066406 241.28125 C 49.066406 244.125 44.800781 244.125 44.800781 241.28125 C 44.800781 238.4375 49.066406 238.4375 49.066406 241.28125 "/>
<path style=" stroke:none;fill-rule:nonzero;fill:rgb(100%,84.3%,0%);fill-opacity:1;" d="M 297.828125 309.121094 C 297.828125 311.964844 293.5625 311.964844 293.5625 309.121094 C 293.5625 306.277344 297.828125 306.277344 297.828125 309.121094 "/>
<path style=" stroke:none;fill-rule:nonzero;fill:rgb(100%,84.3%,0%);fill-opacity:1;" d="M 388.265625 313.386719 C 388.265625 316.230469 384 316.230469 384 313.386719 C 384 310.542969 388.265625 310.542969 388.265625 313.386719 "/>
<path style=" stroke:none;fill-rule:nonzero;fill:rgb(100%,84.3%,0%);fill-opacity:1;" d="M 238.933594 309.121094 C 238.933594 311.964844 234.667969 311.964844 234.667969 309.121094 C 234.667969 306.277344 238.933594 306.277344 238.933594 309.121094 "/>
<path style=" stroke:none;fill-rule:nonzero;fill:rgb(100%,84.3%,0%);fill-opacity:1;" d="M 152.746094 313.386719 C 152.746094 316.230469 148.480469 316.230469 148.480469 313.386719 C 148.480469 310.542969 152.746094 310.542969 152.746094 313.386719 "/>
<path style=" stroke:none;fill-rule:nonzero;fill:rgb(100%,84.3%,0%);fill-opacity:1;" d="M 197.546875 313.386719 C 197.546875 316.230469 193.28125 316.230469 193.28125 313.386719 C 193.28125 310.542969 197.546875 310.542969 197.546875 313.386719 "/>
<path style=" stroke:none;fill-rule:nonzero;fill:rgb(100%,84.3%,0%);fill-opacity:1;" d="M 201.242188 311.253906 C 201.242188 314.097656 196.976562 314.097656 196.976562 311.253906 C 196.976562 308.410156 201.242188 308.410156 201.242188 311.253906 "/>
<path style=" stroke:none;fill-rule:nonzero;fill:rgb(100%,84.3%,0%);fill-opacity:1;" d="M 467.199219 246.828125 C 467.199219 249.671875 462.933594 249.671875 462.933594 246.828125 C 462.933594 243.984375 467.199219 243.984375 467.199219 246.828125 "/>
<path style=" stroke:none;fill-rule:nonzero;fill:rgb(100%,84.3%,0%);fill-opacity:1;" d="M 104.535156 313.386719 C 104.535156 316.230469 100.265625 316.230469 100.265625 313.386719 C 100.265625 310.542969 104.535156 310.542969 104.535156 313.386719 "/>
<path style=" stroke:none;fill-rule:nonzero;fill:rgb(100%,84.3%,0%);fill-opacity:1;" d="M 178.773438 198.613281 C 178.773438 201.457031 174.507812 201.457031 174.507812 198.613281 C 174.507812 195.769531 178.773438 195.769531 178.773438 198.613281 "/>
<path style=" stroke:none;fill-rule:nonzero;fill:rgb(100%,84.3%,0%);fill-opacity:1;" d="M 49.066406 212.691406 C 49.066406 215.539062 44.800781 215.539062 44.800781 212.691406 C 44.800781 209.847656 49.066406 209.847656 49.066406 212.691406 "/>
<path style=" stroke:none;fill-rule:nonzero;fill:rgb(100%,84.3%,0%);fill-opacity:1;" d="M 117.332031 313.386719 C 117.332031 316.230469 113.066406 316.230469 113.066406 313.386719 C 113.066406 310.542969 117.332031 310.542969 117.332031 313.386719 "/>
<path style=" stroke:none;fill-rule:nonzero;fill:rgb(100%,84.3%,0%);fill-opacity:1;" d="M 301.523438 306.988281 C 301.523438 309.832031 297.257812 309.832031 297.257812 306.988281 C 297.257812 304.140625 301.523438 304.140625 301.523438 306.988281 "/>
<path style=" stroke:none;fill-rule:nonzero;fill:rgb(100%,84.3%,0%);fill-opacity:1;" d="M 51.199219 307.558594 C 51.199219 310.402344 46.933594 310.402344 46.933594 307.558594 C 46.933594 304.714844 51.199219 304.714844 51.199219 307.558594 "/>
<path style=" stroke:none;fill-rule:nonzero;fill:rgb(100%,84.3%,0%);fill-opacity:1;" d="M 253.011719 313.386719 C 253.011719 316.230469 248.746094 316.230469 248.746094 313.386719 C 248.746094 310.542969 253.011719 310.542969 253.011719 313.386719 "/>
<path style=" stroke:none;fill-rule:nonzero;fill:rgb(100%,84.3%,0%);fill-opacity:1;" d="M 274.347656 313.386719 C 274.347656 316.230469 270.078125 316.230469 270.078125 313.386719 C 270.078125 310.542969 274.347656 310.542969 274.347656 313.386719 "/>
<path style=" stroke:none;fill-rule:nonzero;fill:rgb(100%,84.3%,0%);fill-opacity:1;" d="M 376.039062 311.253906 C 376.039062 314.097656 371.773438 314.097656 371.773438 311.253906 C 371.773438 308.410156 376.039062 308.410156 376.039062 311.253906 "/>
<path style=" stroke:none;fill-rule:nonzero;fill:rgb(100%,84.3%,0%);fill-opacity:1;" d="M 195.839844 198.613281 C 195.839844 201.457031 191.574219 201.457031 191.574219 198.613281 C 191.574219 195.769531 195.839844 195.769531 195.839844 198.613281 "/>
<path style=" stroke:none;fill-rule:nonzero;fill:rgb(100%,84.3%,0%);fill-opacity:1;" d="M 212.328125 309.121094 C 212.328125 311.964844 208.0625 311.964844 208.0625 309.121094 C 208.0625 306.277344 212.328125 306.277344 212.328125 309.121094 "/>
<path style=" stroke:none;fill-rule:nonzero;fill:rgb(100%,84.3%,0%);fill-opacity:1;" d="M 396.800781 309.121094 C 396.800781 311.964844 392.535156 311.964844 392.535156 309.121094 C 392.535156 306.277344 396.800781 306.277344 396.800781 309.121094 "/>
<path style=" stroke:none;fill-rule:nonzero;fill:rgb(100%,84.3%,0%);fill-opacity:1;" d="M 455.542969 202.878906 C 455.542969 205.722656 451.277344 205.722656 451.277344 202.878906 C 451.277344 200.035156 455.542969 200.035156 455.542969 202.878906 "/>
<path style=" stroke:none;fill-rule:nonzero;fill:rgb(100%,84.3%,0%);fill-opacity:1;" d="M 83.199219 313.386719 C 83.199219 316.230469 78.933594 316.230469 78.933594 313.386719 C 78.933594 310.542969 83.199219 310.542969 83.199219 313.386719 "/>
<path style=" stroke:none;fill-rule:nonzero;fill:rgb(100%,84.3%,0%);fill-opacity:1;" d="M 134.398438 313.386719 C 134.398438 316.230469 130.132812 316.230469 130.132812 313.386719 C 130.132812 310.542969 134.398438 310.542969 134.398438 313.386719 "/>
<path style=" stroke:none;fill-rule:nonzero;fill:rgb(100%,84.3%,0%);fill-opacity:1;" d="M 459.238281 291.898438 C 459.238281 294.746094 454.972656 294.746094 454.972656 291.898438 C 454.972656 289.054688 459.238281 289.054688 459.238281 291.898438 "/>
<path style=" stroke:none;fill-rule:nonzero;fill:rgb(100%,84.3%,0%);fill-opacity:1;" d="M 457.675781 305.425781 C 457.675781 308.269531 453.410156 308.269531 453.410156 305.425781 C 453.410156 302.582031 457.675781 302.582031 457.675781 305.425781 "/>
<path style=" stroke:none;fill-rule:nonzero;fill:rgb(100%,84.3%,0%);fill-opacity:1;" d="M 358.398438 313.386719 C 358.398438 316.230469 354.132812 316.230469 354.132812 313.386719 C 354.132812 310.542969 358.398438 310.542969 358.398438 313.386719 "/>
<path style=" stroke:none;fill-rule:nonzero;fill:rgb(100%,84.3%,0%);fill-opacity:1;" d="M 467.199219 266.453125 C 467.199219 269.296875 462.933594 269.296875 462.933594 266.453125 C 462.933594 263.609375 467.199219 263.609375 467.199219 266.453125 "/>
<path style=" stroke:none;fill-rule:nonzero;fill:rgb(100%,84.3%,0%);fill-opacity:1;" d="M 53.332031 198.613281 C 53.332031 201.457031 49.066406 201.457031 49.066406 198.613281 C 49.066406 195.769531 53.332031 195.769531 53.332031 198.613281 "/>
<path style=" stroke:none;fill-rule:nonzero;fill:rgb(100%,84.3%,0%);fill-opacity:1;" d="M 467.199219 274.988281 C 467.199219 277.832031 462.933594 277.832031 462.933594 274.988281 C 462.933594 272.140625 467.199219 272.140625 467.199219 274.988281 "/>
<path style=" stroke:none;fill-rule:nonzero;fill:rgb(100%,84.3%,0%);fill-opacity:1;" d="M 459.238281 200.746094 C 459.238281 203.589844 454.972656 203.589844 454.972656 200.746094 C 454.972656 197.902344 459.238281 197.902344 459.238281 200.746094 "/>
<path style=" stroke:none;fill-rule:nonzero;fill:rgb(100%,84.3%,0%);fill-opacity:1;" d="M 261.546875 313.386719 C 261.546875 316.230469 257.28125 316.230469 257.28125 313.386719 C 257.28125 310.542969 261.546875 310.542969 261.546875 313.386719 "/>
<path style=" stroke:none;fill-rule:nonzero;fill:rgb(100%,84.3%,0%);fill-opacity:1;" d="M 49.066406 208.425781 C 49.066406 211.269531 44.800781 211.269531 44.800781 208.425781 C 44.800781 205.582031 49.066406 205.582031 49.066406 208.425781 "/>
<path style=" stroke:none;fill-rule:nonzero;fill:rgb(100%,84.3%,0%);fill-opacity:1;" d="M 52.761719 313.386719 C 52.761719 316.230469 48.496094 316.230469 48.496094 313.386719 C 48.496094 310.542969 52.761719 310.542969 52.761719 313.386719 "/>
<path style=" stroke:none;fill-rule:nonzero;fill:rgb(100%,84.3%,0%);fill-opacity:1;" d="M 467.199219 242.558594 C 467.199219 245.40625 462.933594 245.40625 462.933594 242.558594 C 462.933594 239.714844 467.199219 239.714844 467.199219 242.558594 "/>
<path style=" stroke:none;fill-rule:nonzero;fill:rgb(100%,84.3%,0%);fill-opacity:1;" d="M 467.199219 234.027344 C 467.199219 236.871094 462.933594 236.871094 462.933594 234.027344 C 462.933594 231.183594 467.199219 231.183594 467.199219 234.027344 "/>
<path style=" stroke:none;fill-rule:nonzero;fill:rgb(100%,84.3%,0%);fill-opacity:1;" d="M 294.535156 313.386719 C 294.535156 316.230469 290.269531 316.230469 290.269531 313.386719 C 290.269531 310.542969 294.535156 310.542969 294.535156 313.386719 "/>
<path style=" stroke:none;fill-rule:nonzero;fill:rgb(100%,84.3%,0%);fill-opacity:1;" d="M 49.066406 271.148438 C 49.066406 273.992188 44.800781 273.992188 44.800781 271.148438 C 44.800781 268.300781 49.066406 268.300781 49.066406 271.148438 "/>
<path style=" stroke:none;fill-rule:nonzero;fill:rgb(100%,84.3%,0%);fill-opacity:1;" d="M 384 313.386719 C 384 316.230469 379.734375 316.230469 379.734375 313.386719 C 379.734375 310.542969 384 310.542969 384 313.386719 "/>
<path style=" stroke:none;fill-rule:nonzero;fill:rgb(100%,84.3%,0%);fill-opacity:1;" d="M 459.808594 309.121094 C 459.808594 311.964844 455.542969 311.964844 455.542969 309.121094 C 455.542969 306.277344 459.808594 306.277344 459.808594 309.121094 "/>
<path style=" stroke:none;fill-rule:nonzero;fill:rgb(100%,84.3%,0%);fill-opacity:1;" d="M 345.601562 313.386719 C 345.601562 316.230469 341.332031 316.230469 341.332031 313.386719 C 341.332031 310.542969 345.601562 310.542969 345.601562 313.386719 "/>
<path style=" stroke:none;fill-rule:nonzero;fill:rgb(100%,84.3%,0%);fill-opacity:1;" d="M 57.601562 198.613281 C 57.601562 201.457031 53.332031 201.457031 53.332031 198.613281 C 53.332031 195.769531 57.601562 195.769531 57.601562 198.613281 "/>
<path style=" stroke:none;fill-rule:nonzero;fill:rgb(100%,84.3%,0%);fill-opacity:1;" d="M 174.507812 198.613281 C 174.507812 201.457031 170.238281 201.457031 170.238281 198.613281 C 170.238281 195.769531 174.507812 195.769531 174.507812 198.613281 "/>
<path style=" stroke:none;fill-rule:nonzero;fill:rgb(100%,84.3%,0%);fill-opacity:1;" d="M 467.199219 262.1875 C 467.199219 265.03125 462.933594 265.03125 462.933594 262.1875 C 462.933594 259.34375 467.199219 259.34375 467.199219 262.1875 "/>
<path style=" stroke:none;fill-rule:nonzero;fill:rgb(100%,84.3%,0%);fill-opacity:1;" d="M 49.066406 237.011719 C 49.066406 239.859375 44.800781 239.859375 44.800781 237.011719 C 44.800781 234.167969 49.066406 234.167969 49.066406 237.011719 "/>
<path style=" stroke:none;fill-rule:nonzero;fill:rgb(100%,84.3%,0%);fill-opacity:1;" d="M 230.398438 313.386719 C 230.398438 316.230469 226.132812 316.230469 226.132812 313.386719 C 226.132812 310.542969 230.398438 310.542969 230.398438 313.386719 "/>
<path style=" stroke:none;fill-rule:nonzero;fill:rgb(100%,84.3%,0%);fill-opacity:1;" d="M 183.039062 198.613281 C 183.039062 201.457031 178.773438 201.457031 178.773438 198.613281 C 178.773438 195.769531 183.039062 195.769531 183.039062 198.613281 "/>
<path style=" stroke:none;fill-rule:nonzero;fill:rgb(100%,84.3%,0%);fill-opacity:1;" d="M 282.308594 311.253906 C 282.308594 314.097656 278.042969 314.097656 278.042969 311.253906 C 278.042969 308.410156 282.308594 308.410156 282.308594 311.253906 "/>
<path style=" stroke:none;fill-rule:nonzero;fill:rgb(100%,84.3%,0%);fill-opacity:1;" d="M 249.316406 311.253906 C 249.316406 314.097656 245.050781 314.097656 245.050781 311.253906 C 245.050781 308.410156 249.316406 308.410156 249.316406 311.253906 "/>
<path style=" stroke:none;fill-rule:nonzero;fill:rgb(100%,84.3%,0%);fill-opacity:1;" d="M 66.132812 198.613281 C 66.132812 201.457031 61.867188 201.457031 61.867188 198.613281 C 61.867188 195.769531 66.132812 195.769531 66.132812 198.613281 "/>
<path style=" stroke:none;fill-rule:nonzero;fill:rgb(100%,84.3%,0%);fill-opacity:1;" d="M 70.398438 198.613281 C 70.398438 201.457031 66.132812 201.457031 66.132812 198.613281 C 66.132812 195.769531 70.398438 195.769531 70.398438 198.613281 "/>
<path style=" stroke:none;fill-rule:nonzero;fill:rgb(100%,84.3%,0%);fill-opacity:1;" d="M 187.304688 198.613281 C 187.304688 201.457031 183.039062 201.457031 183.039062 198.613281 C 183.039062 195.769531 187.304688 195.769531 187.304688 198.613281 "/>
<path style=" stroke:none;fill-rule:nonzero;fill:rgb(100%,84.3%,0%);fill-opacity:1;" d="M 178.347656 313.386719 C 178.347656 316.230469 174.078125 316.230469 174.078125 313.386719 C 174.078125 310.542969 178.347656 310.542969 178.347656 313.386719 "/>
<path style=" stroke:none;fill-rule:nonzero;fill:rgb(100%,84.3%,0%);fill-opacity:1;" d="M 52.761719 230.613281 C 52.761719 233.457031 48.496094 233.457031 48.496094 230.613281 C 48.496094 227.769531 52.761719 227.769531 52.761719 230.613281 "/>
<path style=" stroke:none;fill-rule:nonzero;fill:rgb(100%,84.3%,0%);fill-opacity:1;" d="M 448.152344 301.730469 C 448.152344 304.574219 443.886719 304.574219 443.886719 301.730469 C 443.886719 298.886719 448.152344 298.886719 448.152344 301.730469 "/>
<path style=" stroke:none;fill-rule:nonzero;fill:rgb(100%,84.3%,0%);fill-opacity:1;" d="M 138.667969 313.386719 C 138.667969 316.230469 134.398438 316.230469 134.398438 313.386719 C 134.398438 310.542969 138.667969 310.542969 138.667969 313.386719 "/>
<path style=" stroke:none;fill-rule:nonzero;fill:rgb(100%,84.3%,0%);fill-opacity:1;" d="M 49.066406 275.414062 C 49.066406 278.257812 44.800781 278.257812 44.800781 275.414062 C 44.800781 272.570312 49.066406 272.570312 49.066406 275.414062 "/>
<path style=" stroke:none;fill-rule:nonzero;fill:rgb(100%,84.3%,0%);fill-opacity:1;" d="M 61.867188 198.613281 C 61.867188 201.457031 57.601562 201.457031 57.601562 198.613281 C 57.601562 195.769531 61.867188 195.769531 61.867188 198.613281 "/>
<path style=" stroke:none;fill-rule:nonzero;fill:rgb(100%,84.3%,0%);fill-opacity:1;" d="M 200.105469 198.613281 C 200.105469 201.457031 195.839844 201.457031 195.839844 198.613281 C 195.839844 195.769531 200.105469 195.769531 200.105469 198.613281 "/>
<path style=" stroke:none;fill-rule:nonzero;fill:rgb(100%,84.3%,0%);fill-opacity:1;" d="M 157.011719 313.386719 C 157.011719 316.230469 152.746094 316.230469 152.746094 313.386719 C 152.746094 310.542969 157.011719 310.542969 157.011719 313.386719 "/>
<path style=" stroke:none;fill-rule:nonzero;fill:rgb(100%,84.3%,0%);fill-opacity:1;" d="M 56.457031 311.253906 C 56.457031 314.097656 52.191406 314.097656 52.191406 311.253906 C 52.191406 308.410156 56.457031 308.410156 56.457031 311.253906 "/>
<path style=" stroke:none;fill-rule:nonzero;fill:rgb(100%,84.3%,0%);fill-opacity:1;" d="M 238.933594 313.386719 C 238.933594 316.230469 234.667969 316.230469 234.667969 313.386719 C 234.667969 310.542969 238.933594 310.542969 238.933594 313.386719 "/>
<path style=" stroke:none;fill-rule:nonzero;fill:rgb(100%,84.3%,0%);fill-opacity:1;" d="M 392.535156 313.386719 C 392.535156 316.230469 388.265625 316.230469 388.265625 313.386719 C 388.265625 310.542969 392.535156 310.542969 392.535156 313.386719 "/>
<path style=" stroke:none;fill-rule:nonzero;fill:rgb(100%,84.3%,0%);fill-opacity:1;" d="M 51.199219 290.765625 C 51.199219 293.609375 46.933594 293.609375 46.933594 290.765625 C 46.933594 287.921875 51.199219 287.921875 51.199219 290.765625 "/>
<path style=" stroke:none;fill-rule:nonzero;fill:rgb(100%,84.3%,0%);fill-opacity:1;" d="M 329.675781 313.386719 C 329.675781 316.230469 325.410156 316.230469 325.410156 313.386719 C 325.410156 310.542969 329.675781 310.542969 329.675781 313.386719 "/>
<path style=" stroke:none;fill-rule:nonzero;fill:rgb(100%,84.3%,0%);fill-opacity:1;" d="M 170.242188 198.613281 C 170.242188 201.457031 165.972656 201.457031 165.972656 198.613281 C 165.972656 195.769531 170.242188 195.769531 170.242188 198.613281 "/>
<path style=" stroke:none;fill-rule:nonzero;fill:rgb(100%,84.3%,0%);fill-opacity:1;" d="M 453.410156 206.574219 C 453.410156 209.417969 449.144531 209.417969 449.144531 206.574219 C 449.144531 203.730469 453.410156 203.730469 453.410156 206.574219 "/>
<path style=" stroke:none;fill-rule:nonzero;fill:rgb(100%,84.3%,0%);fill-opacity:1;" d="M 51.199219 298.15625 C 51.199219 301 46.933594 301 46.933594 298.15625 C 46.933594 295.3125 51.199219 295.3125 51.199219 298.15625 "/>
<path style=" stroke:none;fill-rule:nonzero;fill:rgb(100%,84.3%,0%);fill-opacity:1;" d="M 461.371094 256.359375 C 461.371094 259.203125 457.105469 259.203125 457.105469 256.359375 C 457.105469 253.511719 461.371094 253.511719 461.371094 256.359375 "/>
<path style=" stroke:none;fill-rule:nonzero;fill:rgb(100%,84.3%,0%);fill-opacity:1;" d="M 467.199219 279.253906 C 467.199219 282.097656 462.933594 282.097656 462.933594 279.253906 C 462.933594 276.410156 467.199219 276.410156 467.199219 279.253906 "/>
<path style=" stroke:none;fill-rule:nonzero;fill:rgb(100%,84.3%,0%);fill-opacity:1;" d="M 169.8125 313.386719 C 169.8125 316.230469 165.546875 316.230469 165.546875 313.386719 C 165.546875 310.542969 169.8125 310.542969 169.8125 313.386719 "/>
<path style=" stroke:none;fill-rule:nonzero;fill:rgb(100%,84.3%,0%);fill-opacity:1;" d="M 49.066406 225.492188 C 49.066406 228.335938 44.800781 228.335938 44.800781 225.492188 C 44.800781 222.648438 49.066406 222.648438 49.066406 225.492188 "/>
<path style=" stroke:none;fill-rule:nonzero;fill:rgb(100%,84.3%,0%);fill-opacity:1;" d="M 241.066406 305.425781 C 241.066406 308.269531 236.800781 308.269531 236.800781 305.425781 C 236.800781 302.582031 241.066406 302.582031 241.066406 305.425781 "/>
<path style=" stroke:none;fill-rule:nonzero;fill:rgb(100%,84.3%,0%);fill-opacity:1;" d="M 455.542969 301.730469 C 455.542969 304.574219 451.277344 304.574219 451.277344 301.730469 C 451.277344 298.886719 455.542969 298.886719 455.542969 301.730469 "/>
<path style=" stroke:none;fill-rule:nonzero;fill:rgb(100%,84.3%,0%);fill-opacity:1;" d="M 74.667969 313.386719 C 74.667969 316.230469 70.398438 316.230469 70.398438 313.386719 C 70.398438 310.542969 74.667969 310.542969 74.667969 313.386719 "/>
<path style=" stroke:none;fill-rule:nonzero;fill:rgb(100%,84.3%,0%);fill-opacity:1;" d="M 396.800781 304.851562 C 396.800781 307.699219 392.535156 307.699219 392.535156 304.851562 C 392.535156 302.007812 396.800781 302.007812 396.800781 304.851562 "/>
<path style=" stroke:none;fill-rule:nonzero;fill:rgb(100%,84.3%,0%);fill-opacity:1;" d="M 449.714844 208.707031 C 449.714844 211.550781 445.449219 211.550781 445.449219 208.707031 C 445.449219 205.863281 449.714844 205.863281 449.714844 208.707031 "/>
<path style=" stroke:none;fill-rule:nonzero;fill:rgb(100%,84.3%,0%);fill-opacity:1;" d="M 321.144531 313.386719 C 321.144531 316.230469 316.875 316.230469 316.875 313.386719 C 316.875 310.542969 321.144531 310.542969 321.144531 313.386719 "/>
<path style=" stroke:none;fill-rule:nonzero;fill:rgb(100%,84.3%,0%);fill-opacity:1;" d="M 142.933594 313.386719 C 142.933594 316.230469 138.667969 316.230469 138.667969 313.386719 C 138.667969 310.542969 142.933594 310.542969 142.933594 313.386719 "/>
<path style=" stroke:none;fill-rule:nonzero;fill:rgb(100%,84.3%,0%);fill-opacity:1;" d="M 49.066406 311.253906 C 49.066406 314.097656 44.800781 314.097656 44.800781 311.253906 C 44.800781 308.410156 49.066406 308.410156 49.066406 311.253906 "/>
<path style=" stroke:none;fill-rule:nonzero;fill:rgb(100%,84.3%,0%);fill-opacity:1;" d="M 446.019531 210.84375 C 446.019531 213.6875 441.753906 213.6875 441.753906 210.84375 C 441.753906 207.996094 446.019531 207.996094 446.019531 210.84375 "/>
<path style=" stroke:none;fill-rule:nonzero;fill:rgb(100%,84.3%,0%);fill-opacity:1;" d="M 221.867188 313.386719 C 221.867188 316.230469 217.601562 316.230469 217.601562 313.386719 C 217.601562 310.542969 221.867188 310.542969 221.867188 313.386719 "/>
<path style=" stroke:none;fill-rule:nonzero;fill:rgb(100%,84.3%,0%);fill-opacity:1;" d="M 91.734375 313.386719 C 91.734375 316.230469 87.464844 316.230469 87.464844 313.386719 C 87.464844 310.542969 91.734375 310.542969 91.734375 313.386719 "/>
<path style=" stroke:none;fill-rule:nonzero;fill:rgb(100%,84.3%,0%);fill-opacity:1;" d="M 165.546875 313.386719 C 165.546875 316.230469 161.28125 316.230469 161.28125 313.386719 C 161.28125 310.542969 165.546875 310.542969 165.546875 313.386719 "/>
<path style=" stroke:none;fill-rule:nonzero;fill:rgb(100%,84.3%,0%);fill-opacity:1;" d="M 462.933594 298.300781 C 462.933594 301.144531 458.667969 301.144531 458.667969 298.300781 C 458.667969 295.457031 462.933594 295.457031 462.933594 298.300781 "/>
<path style=" stroke:none;fill-rule:nonzero;fill:rgb(100%,84.3%,0%);fill-opacity:1;" d="M 379.734375 313.386719 C 379.734375 316.230469 375.464844 316.230469 375.464844 313.386719 C 375.464844 310.542969 379.734375 310.542969 379.734375 313.386719 "/>
<path style=" stroke:none;fill-rule:nonzero;fill:rgb(100%,84.3%,0%);fill-opacity:1;" d="M 305.792969 306.988281 C 305.792969 309.832031 301.523438 309.832031 301.523438 306.988281 C 301.523438 304.140625 305.792969 304.140625 305.792969 306.988281 "/>
<path style=" stroke:none;fill-rule:nonzero;fill:rgb(100%,84.3%,0%);fill-opacity:1;" d="M 463.503906 260.054688 C 463.503906 262.898438 459.238281 262.898438 459.238281 260.054688 C 459.238281 257.207031 463.503906 257.207031 463.503906 260.054688 "/>
<path style=" stroke:none;fill-rule:nonzero;fill:rgb(100%,84.3%,0%);fill-opacity:1;" d="M 234.667969 313.386719 C 234.667969 316.230469 230.398438 316.230469 230.398438 313.386719 C 230.398438 310.542969 234.667969 310.542969 234.667969 313.386719 "/>
<path style=" stroke:none;fill-rule:nonzero;fill:rgb(100%,84.3%,0%);fill-opacity:1;" d="M 204.9375 309.121094 C 204.9375 311.964844 200.667969 311.964844 200.667969 309.121094 C 200.667969 306.277344 204.9375 306.277344 204.9375 309.121094 "/>
<path style=" stroke:none;fill-rule:nonzero;fill:rgb(100%,84.3%,0%);fill-opacity:1;" d="M 278.613281 313.386719 C 278.613281 316.230469 274.347656 316.230469 274.347656 313.386719 C 274.347656 310.542969 278.613281 310.542969 278.613281 313.386719 "/>
<path style=" stroke:none;fill-rule:nonzero;fill:rgb(100%,84.3%,0%);fill-opacity:1;" d="M 49.066406 258.347656 C 49.066406 261.191406 44.800781 261.191406 44.800781 258.347656 C 44.800781 255.503906 49.066406 255.503906 49.066406 258.347656 "/>
<path style=" stroke:none;fill-rule:nonzero;fill:rgb(100%,84.3%,0%);fill-opacity:1;" d="M 208.632812 311.253906 C 208.632812 314.097656 204.363281 314.097656 204.363281 311.253906 C 204.363281 308.410156 208.632812 308.410156 208.632812 311.253906 "/>
<path style=" stroke:none;fill-rule:nonzero;fill:rgb(100%,84.3%,0%);fill-opacity:1;" d="M 462.933594 302.566406 C 462.933594 305.410156 458.667969 305.410156 458.667969 302.566406 C 458.667969 299.722656 462.933594 299.722656 462.933594 302.566406 "/>
<path style=" stroke:none;fill-rule:nonzero;fill:rgb(100%,84.3%,0%);fill-opacity:1;" d="M 333.371094 311.253906 C 333.371094 314.097656 329.105469 314.097656 329.105469 311.253906 C 329.105469 308.410156 333.371094 308.410156 333.371094 311.253906 "/>
<path style=" stroke:none;fill-rule:nonzero;fill:rgb(100%,84.3%,0%);fill-opacity:1;" d="M 313.753906 309.121094 C 313.753906 311.964844 309.488281 311.964844 309.488281 309.121094 C 309.488281 306.277344 313.753906 306.277344 313.753906 309.121094 "/>
<path style=" stroke:none;fill-rule:nonzero;fill:rgb(100%,84.3%,0%);fill-opacity:1;" d="M 465.066406 290.339844 C 465.066406 293.183594 460.800781 293.183594 460.800781 290.339844 C 460.800781 287.492188 465.066406 287.492188 465.066406 290.339844 "/>
<path style=" stroke:none;fill-rule:nonzero;fill:rgb(100%,84.3%,0%);fill-opacity:1;" d="M 108.800781 313.386719 C 108.800781 316.230469 104.535156 316.230469 104.535156 313.386719 C 104.535156 310.542969 108.800781 310.542969 108.800781 313.386719 "/>
<path style=" stroke:none;fill-rule:nonzero;fill:rgb(100%,84.3%,0%);fill-opacity:1;" d="M 78.933594 198.613281 C 78.933594 201.457031 74.667969 201.457031 74.667969 198.613281 C 74.667969 195.769531 78.933594 195.769531 78.933594 198.613281 "/>
<path style=" stroke:none;fill-rule:nonzero;fill:rgb(100%,84.3%,0%);fill-opacity:1;" d="M 467.199219 198.613281 C 467.199219 201.457031 462.933594 201.457031 462.933594 198.613281 C 462.933594 195.769531 467.199219 195.769531 467.199219 198.613281 "/>
<path style=" stroke:none;fill-rule:nonzero;fill:rgb(100%,84.3%,0%);fill-opacity:1;" d="M 204.375 198.613281 C 204.375 201.457031 200.105469 201.457031 200.105469 198.613281 C 200.105469 195.769531 204.375 195.769531 204.375 198.613281 "/>
<path style=" stroke:none;fill-rule:nonzero;fill:rgb(100%,84.3%,0%);fill-opacity:1;" d="M 186.878906 313.386719 C 186.878906 316.230469 182.613281 316.230469 182.613281 313.386719 C 182.613281 310.542969 186.878906 310.542969 186.878906 313.386719 "/>
<path style=" stroke:none;fill-rule:nonzero;fill:rgb(100%,84.3%,0%);fill-opacity:1;" d="M 49.066406 249.8125 C 49.066406 252.65625 44.800781 252.65625 44.800781 249.8125 C 44.800781 246.96875 49.066406 246.96875 49.066406 249.8125 "/>
<path style=" stroke:none;fill-rule:nonzero;fill:rgb(100%,84.3%,0%);fill-opacity:1;" d="M 463.503906 311.253906 C 463.503906 314.097656 459.238281 314.097656 459.238281 311.253906 C 459.238281 308.410156 463.503906 308.410156 463.503906 311.253906 "/>
<path style=" stroke:none;fill-rule:nonzero;fill:rgb(100%,84.3%,0%);fill-opacity:1;" d="M 121.601562 313.386719 C 121.601562 316.230469 117.332031 316.230469 117.332031 313.386719 C 117.332031 310.542969 121.601562 310.542969 121.601562 313.386719 "/>
<path style=" stroke:none;fill-rule:nonzero;fill:rgb(100%,84.3%,0%);fill-opacity:1;" d="M 51.199219 283.375 C 51.199219 286.21875 46.933594 286.21875 46.933594 283.375 C 46.933594 280.53125 51.199219 280.53125 51.199219 283.375 "/>
<path style=" stroke:none;fill-rule:nonzero;fill:rgb(100%,84.3%,0%);fill-opacity:1;" d="M 49.066406 216.960938 C 49.066406 219.804688 44.800781 219.804688 44.800781 216.960938 C 44.800781 214.117188 49.066406 214.117188 49.066406 216.960938 "/>
<path style=" stroke:none;fill-rule:nonzero;fill:rgb(100%,84.3%,0%);fill-opacity:1;" d="M 49.066406 303.863281 C 49.066406 306.707031 44.800781 306.707031 44.800781 303.863281 C 44.800781 301.019531 49.066406 301.019531 49.066406 303.863281 "/>
<path style=" stroke:none;fill-rule:nonzero;fill:rgb(100%,84.3%,0%);fill-opacity:1;" d="M 49.066406 232.746094 C 49.066406 235.589844 44.800781 235.589844 44.800781 232.746094 C 44.800781 229.902344 49.066406 229.902344 49.066406 232.746094 "/>
<path style=" stroke:none;fill-rule:nonzero;fill:rgb(100%,84.3%,0%);fill-opacity:1;" d="M 78.933594 313.386719 C 78.933594 316.230469 74.667969 316.230469 74.667969 313.386719 C 74.667969 310.542969 78.933594 310.542969 78.933594 313.386719 "/>
<path style=" stroke:none;fill-rule:nonzero;fill:rgb(100%,84.3%,0%);fill-opacity:1;" d="M 467.199219 255.359375 C 467.199219 258.203125 462.933594 258.203125 462.933594 255.359375 C 462.933594 252.515625 467.199219 252.515625 467.199219 255.359375 "/>
<path style=" stroke:none;fill-rule:nonzero;fill:rgb(100%,84.3%,0%);fill-opacity:1;" d="M 113.066406 313.386719 C 113.066406 316.230469 108.800781 316.230469 108.800781 313.386719 C 108.800781 310.542969 113.066406 310.542969 113.066406 313.386719 "/>
<path style=" stroke:none;fill-rule:nonzero;fill:rgb(100%,84.3%,0%);fill-opacity:1;" d="M 213.332031 313.386719 C 213.332031 316.230469 209.066406 316.230469 209.066406 313.386719 C 209.066406 310.542969 213.332031 310.542969 213.332031 313.386719 "/>
<path style=" stroke:none;fill-rule:nonzero;fill:rgb(100%,84.3%,0%);fill-opacity:1;" d="M 463.503906 200.746094 C 463.503906 203.589844 459.238281 203.589844 459.238281 200.746094 C 459.238281 197.902344 463.503906 197.902344 463.503906 200.746094 "/>
<path style=" stroke:none;fill-rule:nonzero;fill:rgb(100%,84.3%,0%);fill-opacity:1;" d="M 467.199219 251.09375 C 467.199219 253.9375 462.933594 253.9375 462.933594 251.09375 C 462.933594 248.25 467.199219 248.25 467.199219 251.09375 "/>
<path style=" stroke:none;fill-rule:nonzero;fill:rgb(100%,84.3%,0%);fill-opacity:1;" d="M 362.667969 313.386719 C 362.667969 316.230469 358.398438 316.230469 358.398438 313.386719 C 358.398438 310.542969 362.667969 310.542969 362.667969 313.386719 "/>
<path style=" stroke:none;fill-rule:nonzero;fill:rgb(100%,84.3%,0%);fill-opacity:1;" d="M 125.867188 313.386719 C 125.867188 316.230469 121.601562 316.230469 121.601562 313.386719 C 121.601562 310.542969 125.867188 310.542969 125.867188 313.386719 "/>
<path style=" stroke:none;fill-rule:nonzero;fill:rgb(100%,84.3%,0%);fill-opacity:1;" d="M 68.113281 306.988281 C 68.113281 309.832031 63.847656 309.832031 63.847656 306.988281 C 63.847656 304.140625 68.113281 304.140625 68.113281 306.988281 "/>
<path style=" stroke:none;fill-rule:nonzero;fill:rgb(100%,84.3%,0%);fill-opacity:1;" d="M 400.496094 302.71875 C 400.496094 305.5625 396.230469 305.5625 396.230469 302.71875 C 396.230469 299.875 400.496094 299.875 400.496094 302.71875 "/>
<path style=" stroke:none;fill-rule:nonzero;fill:rgb(100%,84.3%,0%);fill-opacity:1;" d="M 100.265625 313.386719 C 100.265625 316.230469 96 316.230469 96 313.386719 C 96 310.542969 100.265625 310.542969 100.265625 313.386719 "/>
<path style=" stroke:none;fill-rule:nonzero;fill:rgb(100%,84.3%,0%);fill-opacity:1;" d="M 49.066406 287.070312 C 49.066406 289.914062 44.800781 289.914062 44.800781 287.070312 C 44.800781 284.226562 49.066406 284.226562 49.066406 287.070312 "/>
<path style=" stroke:none;fill-rule:nonzero;fill:rgb(100%,84.3%,0%);fill-opacity:1;" d="M 245.625 313.386719 C 245.625 316.230469 241.355469 316.230469 241.355469 313.386719 C 241.355469 310.542969 245.625 310.542969 245.625 313.386719 "/>
</g>
</svg>
