<?xml version="1.0" encoding="UTF-8"?>
<svg xmlns="http://www.w3.org/2000/svg" xmlns:xlink="http://www.w3.org/1999/xlink" width="512pt" height="512pt" viewBox="0 0 512 512" version="1.1">
<g id="surface291">
<rect x="0" y="0" width="512" height="512" style="fill:rgb(26.7%,26.7%,26.7%);fill-opacity:1;stroke:none;"/>
<path style=" stroke:none;fill-rule:nonzero;fill:rgb(19.2%,38.8%,66.7%);fill-opacity:1;" d="M 6.398438 42.667969 L 70.382812 42.667969 L 70.382812 469.332031 L 6.398438 469.332031 Z M 6.398438 42.667969 "/>
<path style=" stroke:none;fill-rule:nonzero;fill:rgb(90.6%,14.9%,14.9%);fill-opacity:1;" d="M 265.328125 35.492188 C 265.328125 42.097656 259.972656 47.449219 253.367188 47.449219 C 246.765625 47.449219 241.410156 42.097656 241.410156 35.492188 C 241.410156 28.886719 246.765625 23.53125 253.367188 23.53125 C 259.972656 23.53125 265.328125 28.886719 265.328125 35.492188 "/>
<path style=" stroke:none;fill-rule:nonzero;fill:rgb(90.6%,14.9%,14.9%);fill-opacity:1;" d="M 409.445312 329.703125 C 409.445312 343.242188 398.46875 354.21875 384.925781 354.21875 C 371.386719 354.21875 360.410156 343.242188 360.410156 329.703125 C 360.410156 316.160156 371.386719 305.183594 384.925781 305.183594 C 398.46875 305.183594 409.445312 316.160156 409.445312 329.703125 "/>
<path style=" stroke:none;fill-rule:nonzero;fill:rgb(90.6%,14.9%,14.9%);fill-opacity:1;" d="M 377.453125 301 C 377.453125 312.722656 367.949219 322.226562 356.222656 322.226562 C 344.5 322.226562 334.996094 312.722656 334.996094 301 C 334.996094 289.273438 344.5 279.769531 356.222656 279.769531 C 367.949219 279.769531 377.453125 289.273438 377.453125 301 "/>
<path style=" stroke:none;fill-rule:nonzero;fill:rgb(90.6%,14.9%,14.9%);fill-opacity:1;" d="M 544.589844 353.921875 C 544.589844 363.167969 537.09375 370.664062 527.847656 370.664062 C 518.601562 370.664062 511.101562 363.167969 511.101562 353.921875 C 511.101562 344.671875 518.601562 337.175781 527.847656 337.175781 C 537.09375 337.175781 544.589844 344.671875 544.589844 353.921875 "/>
<path style=" stroke:none;fill-rule:nonzero;fill:rgb(90.6%,14.9%,14.9%);fill-opacity:1;" d="M 384.628906 346.746094 C 384.628906 357.644531 375.792969 366.480469 364.894531 366.480469 C 353.996094 366.480469 345.160156 357.644531 345.160156 346.746094 C 345.160156 335.847656 353.996094 327.011719 364.894531 327.011719 C 375.792969 327.011719 384.628906 335.847656 384.628906 346.746094 "/>
<path style=" stroke:none;fill-rule:nonzero;fill:rgb(100%,100%,100%);fill-opacity:1;" d="M 201.34375 124.589844 C 201.34375 126.585938 198.355469 126.585938 198.355469 124.589844 C 198.355469 122.597656 201.34375 122.597656 201.34375 124.589844 "/>
<path style=" stroke:none;fill-rule:nonzero;fill:rgb(100%,100%,100%);fill-opacity:1;" d="M 121.8125 65.089844 C 121.8125 67.085938 118.820312 67.085938 118.820312 65.089844 C 118.820312 63.097656 121.8125 63.097656 121.8125 65.089844 "/>
<path style=" stroke:none;fill-rule:nonzero;fill:rgb(100%,100%,100%);fill-opacity:1;" d="M 190.878906 202.628906 C 190.878906 204.621094 187.890625 204.621094 187.890625 202.628906 C 187.890625 200.636719 190.878906 200.636719 190.878906 202.628906 "/>
<path style=" stroke:none;fill-rule:nonzero;fill:rgb(100%,100%,100%);fill-opacity:1;" d="M 167.855469 410.730469 C 167.855469 412.722656 164.867188 412.722656 164.867188 410.730469 C 164.867188 408.738281 167.855469 408.738281 167.855469 410.730469 "/>
<path style=" stroke:none;fill-rule:nonzero;fill:rgb(100%,100%,100%);fill-opacity:1;" d="M 264.132812 347.941406 C 264.132812 349.933594 261.144531 349.933594 261.144531 347.941406 C 261.144531 345.949219 264.132812 345.949219 264.132812 347.941406 "/>
<path style=" stroke:none;fill-rule:nonzero;fill:rgb(100%,100%,100%);fill-opacity:1;" d="M 104.769531 230.136719 C 104.769531 232.128906 101.777344 232.128906 101.777344 230.136719 C 101.777344 228.144531 104.769531 228.144531 104.769531 230.136719 "/>
<path style=" stroke:none;fill-rule:nonzero;fill:rgb(100%,100%,100%);fill-opacity:1;" d="M 251.875 376.347656 C 251.875 378.339844 248.882812 378.339844 248.882812 376.347656 C 248.882812 374.351562 251.875 374.351562 251.875 376.347656 "/>
<path style=" stroke:none;fill-rule:nonzero;fill:rgb(100%,100%,100%);fill-opacity:1;" d="M 123.902344 436.445312 C 123.902344 438.4375 120.914062 438.4375 120.914062 436.445312 C 120.914062 434.449219 123.902344 434.449219 123.902344 436.445312 "/>
<path style=" stroke:none;fill-rule:nonzero;fill:rgb(100%,100%,100%);fill-opacity:1;" d="M 18.65625 38.78125 C 18.65625 40.773438 15.667969 40.773438 15.667969 38.78125 C 15.667969 36.785156 18.65625 36.785156 18.65625 38.78125 "/>
<path style=" stroke:none;fill-rule:nonzero;fill:rgb(100%,100%,100%);fill-opacity:1;" d="M 181.3125 207.414062 C 181.3125 209.40625 178.320312 209.40625 178.320312 207.414062 C 178.320312 205.417969 181.3125 205.417969 181.3125 207.414062 "/>
<path style=" stroke:none;fill-rule:nonzero;fill:rgb(100%,100%,100%);fill-opacity:1;" d="M 105.964844 323.125 C 105.964844 325.117188 102.972656 325.117188 102.972656 323.125 C 102.972656 321.132812 105.964844 321.132812 105.964844 323.125 "/>
<path style=" stroke:none;fill-rule:nonzero;fill:rgb(100%,100%,100%);fill-opacity:1;" d="M 284.164062 311.761719 C 284.164062 313.757812 281.175781 313.757812 281.175781 311.761719 C 281.175781 309.769531 284.164062 309.769531 284.164062 311.761719 "/>
<path style=" stroke:none;fill-rule:nonzero;fill:rgb(100%,100%,100%);fill-opacity:1;" d="M 208.519531 131.46875 C 208.519531 133.460938 205.53125 133.460938 205.53125 131.46875 C 205.53125 129.476562 208.519531 129.476562 208.519531 131.46875 "/>
<path style=" stroke:none;fill-rule:nonzero;fill:rgb(100%,100%,100%);fill-opacity:1;" d="M 512 26.222656 C 512 28.214844 509.011719 28.214844 509.011719 26.222656 C 509.011719 24.230469 512 24.230469 512 26.222656 "/>
<path style=" stroke:none;fill-rule:nonzero;fill:rgb(100%,100%,100%);fill-opacity:1;" d="M 78.15625 488.171875 C 78.15625 490.164062 75.167969 490.164062 75.167969 488.171875 C 75.167969 486.175781 78.15625 486.175781 78.15625 488.171875 "/>
<path style=" stroke:none;fill-rule:nonzero;fill:rgb(100%,100%,100%);fill-opacity:1;" d="M 217.789062 356.910156 C 217.789062 358.90625 214.796875 358.90625 214.796875 356.910156 C 214.796875 354.917969 217.789062 354.917969 217.789062 356.910156 "/>
<path style=" stroke:none;fill-rule:nonzero;fill:rgb(100%,100%,100%);fill-opacity:1;" d="M 89.519531 330.300781 C 89.519531 332.292969 86.527344 332.292969 86.527344 330.300781 C 86.527344 328.308594 89.519531 328.308594 89.519531 330.300781 "/>
<path style=" stroke:none;fill-rule:nonzero;fill:rgb(100%,100%,100%);fill-opacity:1;" d="M 126.59375 291.132812 C 126.59375 293.125 123.605469 293.125 123.605469 291.132812 C 123.605469 289.140625 126.59375 289.140625 126.59375 291.132812 "/>
<path style=" stroke:none;fill-rule:nonzero;fill:rgb(100%,100%,100%);fill-opacity:1;" d="M 125.699219 369.769531 C 125.699219 371.761719 122.707031 371.761719 122.707031 369.769531 C 122.707031 367.773438 125.699219 367.773438 125.699219 369.769531 "/>
<path style=" stroke:none;fill-rule:nonzero;fill:rgb(100%,100%,100%);fill-opacity:1;" d="M 298.21875 274.089844 C 298.21875 276.082031 295.226562 276.082031 295.226562 274.089844 C 295.226562 272.09375 298.21875 272.09375 298.21875 274.089844 "/>
<path style=" stroke:none;fill-rule:nonzero;fill:rgb(100%,100%,100%);fill-opacity:1;" d="M 334.097656 135.953125 C 334.097656 137.945312 331.109375 137.945312 331.109375 135.953125 C 331.109375 133.960938 334.097656 133.960938 334.097656 135.953125 "/>
<path style=" stroke:none;fill-rule:nonzero;fill:rgb(100%,100%,100%);fill-opacity:1;" d="M 138.855469 86.917969 C 138.855469 88.910156 135.863281 88.910156 135.863281 86.917969 C 135.863281 84.925781 138.855469 84.925781 138.855469 86.917969 "/>
<path style=" stroke:none;fill-rule:nonzero;fill:rgb(100%,100%,100%);fill-opacity:1;" d="M 169.351562 89.308594 C 169.351562 91.304688 166.359375 91.304688 166.359375 89.308594 C 166.359375 87.316406 169.351562 87.316406 169.351562 89.308594 "/>
<path style=" stroke:none;fill-rule:nonzero;fill:rgb(100%,100%,100%);fill-opacity:1;" d="M 187.890625 101.867188 C 187.890625 103.859375 184.898438 103.859375 184.898438 101.867188 C 184.898438 99.875 187.890625 99.875 187.890625 101.867188 "/>
<path style=" stroke:none;fill-rule:nonzero;fill:rgb(100%,100%,100%);fill-opacity:1;" d="M 270.710938 226.847656 C 270.710938 228.839844 267.722656 228.839844 267.722656 226.847656 C 267.722656 224.855469 270.710938 224.855469 270.710938 226.847656 "/>
<path style=" stroke:none;fill-rule:nonzero;fill:rgb(100%,100%,100%);fill-opacity:1;" d="M 285.0625 42.070312 C 285.0625 44.0625 282.070312 44.0625 282.070312 42.070312 C 282.070312 40.074219 285.0625 40.074219 285.0625 42.070312 "/>
<path style=" stroke:none;fill-rule:nonzero;fill:rgb(100%,100%,100%);fill-opacity:1;" d="M 77.558594 2.898438 C 77.558594 4.894531 74.570312 4.894531 74.570312 2.898438 C 74.570312 0.90625 77.558594 0.90625 77.558594 2.898438 "/>
<path style=" stroke:none;fill-rule:nonzero;fill:rgb(100%,100%,100%);fill-opacity:1;" d="M 485.988281 120.105469 C 485.988281 122.101562 482.996094 122.101562 482.996094 120.105469 C 482.996094 118.113281 485.988281 118.113281 485.988281 120.105469 "/>
<path style=" stroke:none;fill-rule:nonzero;fill:rgb(100%,100%,100%);fill-opacity:1;" d="M 298.21875 277.378906 C 298.21875 279.371094 295.226562 279.371094 295.226562 277.378906 C 295.226562 275.382812 298.21875 275.382812 298.21875 277.378906 "/>
<path style=" stroke:none;fill-rule:nonzero;fill:rgb(100%,100%,100%);fill-opacity:1;" d="M 115.53125 458.570312 C 115.53125 460.5625 112.542969 460.5625 112.542969 458.570312 C 112.542969 456.574219 115.53125 456.574219 115.53125 458.570312 "/>
<path style=" stroke:none;fill-rule:nonzero;fill:rgb(100%,100%,100%);fill-opacity:1;" d="M 134.070312 474.414062 C 134.070312 476.410156 131.078125 476.410156 131.078125 474.414062 C 131.078125 472.421875 134.070312 472.421875 134.070312 474.414062 "/>
<path style=" stroke:none;fill-rule:nonzero;fill:rgb(100%,100%,100%);fill-opacity:1;" d="M 489.875 4.992188 C 489.875 6.984375 486.882812 6.984375 486.882812 4.992188 C 486.882812 3 489.875 3 489.875 4.992188 "/>
<path style=" stroke:none;fill-rule:nonzero;fill:rgb(100%,100%,100%);fill-opacity:1;" d="M 81.746094 74.359375 C 81.746094 76.351562 78.753906 76.351562 78.753906 74.359375 C 78.753906 72.367188 81.746094 72.367188 81.746094 74.359375 "/>
<path style=" stroke:none;fill-rule:nonzero;fill:rgb(100%,100%,100%);fill-opacity:1;" d="M 459.675781 111.734375 C 459.675781 113.726562 456.6875 113.726562 456.6875 111.734375 C 456.6875 109.742188 459.675781 109.742188 459.675781 111.734375 "/>
<path style=" stroke:none;fill-rule:nonzero;fill:rgb(100%,100%,100%);fill-opacity:1;" d="M 503.328125 498.035156 C 503.328125 500.03125 500.339844 500.03125 500.339844 498.035156 C 500.339844 496.042969 503.328125 496.042969 503.328125 498.035156 "/>
<path style=" stroke:none;fill-rule:nonzero;fill:rgb(100%,100%,100%);fill-opacity:1;" d="M 378.347656 91.402344 C 378.347656 93.394531 375.359375 93.394531 375.359375 91.402344 C 375.359375 89.410156 378.347656 89.410156 378.347656 91.402344 "/>
<path style=" stroke:none;fill-rule:nonzero;fill:rgb(100%,100%,100%);fill-opacity:1;" d="M 360.109375 376.945312 C 360.109375 378.9375 357.121094 378.9375 357.121094 376.945312 C 357.121094 374.949219 360.109375 374.949219 360.109375 376.945312 "/>
<path style=" stroke:none;fill-rule:nonzero;fill:rgb(100%,100%,100%);fill-opacity:1;" d="M 403.464844 468.734375 C 403.464844 470.726562 400.476562 470.726562 400.476562 468.734375 C 400.476562 466.742188 403.464844 466.742188 403.464844 468.734375 "/>
<path style=" stroke:none;fill-rule:nonzero;fill:rgb(100%,100%,100%);fill-opacity:1;" d="M 488.679688 414.617188 C 488.679688 416.609375 485.6875 416.609375 485.6875 414.617188 C 485.6875 412.625 488.679688 412.625 488.679688 414.617188 "/>
<path style=" stroke:none;fill-rule:nonzero;fill:rgb(100%,100%,100%);fill-opacity:1;" d="M 511.402344 294.71875 C 511.402344 296.714844 508.410156 296.714844 508.410156 294.71875 C 508.410156 292.726562 511.402344 292.726562 511.402344 294.71875 "/>
<path style=" stroke:none;fill-rule:nonzero;fill:rgb(100%,100%,100%);fill-opacity:1;" d="M 445.324219 210.703125 C 445.324219 212.695312 442.335938 212.695312 442.335938 210.703125 C 442.335938 208.707031 445.324219 208.707031 445.324219 210.703125 "/>
<path style=" stroke:none;fill-rule:nonzero;fill:rgb(100%,100%,100%);fill-opacity:1;" d="M 217.789062 435.246094 C 217.789062 437.242188 214.796875 437.242188 214.796875 435.246094 C 214.796875 433.253906 217.789062 433.253906 217.789062 435.246094 "/>
<path style=" stroke:none;fill-rule:nonzero;fill:rgb(100%,100%,100%);fill-opacity:1;" d="M 174.136719 264.820312 C 174.136719 266.8125 171.144531 266.8125 171.144531 264.820312 C 171.144531 262.828125 174.136719 262.828125 174.136719 264.820312 "/>
<path style=" stroke:none;fill-rule:nonzero;fill:rgb(100%,100%,100%);fill-opacity:1;" d="M 95.796875 106.054688 C 95.796875 108.046875 92.808594 108.046875 92.808594 106.054688 C 92.808594 104.0625 95.796875 104.0625 95.796875 106.054688 "/>
<path style=" stroke:none;fill-rule:nonzero;fill:rgb(100%,100%,100%);fill-opacity:1;" d="M 149.617188 1.703125 C 149.617188 3.699219 146.628906 3.699219 146.628906 1.703125 C 146.628906 -0.289062 149.617188 -0.289062 149.617188 1.703125 "/>
<path style=" stroke:none;fill-rule:nonzero;fill:rgb(100%,100%,100%);fill-opacity:1;" d="M 267.121094 81.535156 C 267.121094 83.53125 264.132812 83.53125 264.132812 81.535156 C 264.132812 79.542969 267.121094 79.542969 267.121094 81.535156 "/>
<path style=" stroke:none;fill-rule:nonzero;fill:rgb(100%,100%,100%);fill-opacity:1;" d="M 329.613281 412.523438 C 329.613281 414.515625 326.621094 414.515625 326.621094 412.523438 C 326.621094 410.53125 329.613281 410.53125 329.613281 412.523438 "/>
<path style=" stroke:none;fill-rule:nonzero;fill:rgb(100%,100%,100%);fill-opacity:1;" d="M 288.351562 38.183594 C 288.351562 40.175781 285.359375 40.175781 285.359375 38.183594 C 285.359375 36.1875 288.351562 36.1875 288.351562 38.183594 "/>
<path style=" stroke:none;fill-rule:nonzero;fill:rgb(100%,100%,100%);fill-opacity:1;" d="M 379.246094 216.382812 C 379.246094 218.375 376.257812 218.375 376.257812 216.382812 C 376.257812 214.390625 379.246094 214.390625 379.246094 216.382812 "/>
<path style=" stroke:none;fill-rule:nonzero;fill:rgb(100%,100%,100%);fill-opacity:1;" d="M 82.941406 424.484375 C 82.941406 426.476562 79.949219 426.476562 79.949219 424.484375 C 79.949219 422.492188 82.941406 422.492188 82.941406 424.484375 "/>
<path style=" stroke:none;fill-rule:nonzero;fill:rgb(100%,100%,100%);fill-opacity:1;" d="M 342.769531 486.375 C 342.769531 488.371094 339.777344 488.371094 339.777344 486.375 C 339.777344 484.382812 342.769531 484.382812 342.769531 486.375 "/>
<path style=" stroke:none;fill-rule:nonzero;fill:rgb(100%,100%,100%);fill-opacity:1;" d="M 266.226562 332.394531 C 266.226562 334.386719 263.234375 334.386719 263.234375 332.394531 C 263.234375 330.398438 266.226562 330.398438 266.226562 332.394531 "/>
<path style=" stroke:none;fill-rule:nonzero;fill:rgb(100%,100%,100%);fill-opacity:1;" d="M 308.382812 312.359375 C 308.382812 314.355469 305.394531 314.355469 305.394531 312.359375 C 305.394531 310.367188 308.382812 310.367188 308.382812 312.359375 "/>
<path style=" stroke:none;fill-rule:nonzero;fill:rgb(100%,100%,100%);fill-opacity:1;" d="M 111.945312 412.523438 C 111.945312 414.515625 108.953125 414.515625 108.953125 412.523438 C 108.953125 410.53125 111.945312 410.53125 111.945312 412.523438 "/>
<path style=" stroke:none;fill-rule:nonzero;fill:rgb(100%,100%,100%);fill-opacity:1;" d="M 199.847656 281.863281 C 199.847656 283.855469 196.859375 283.855469 196.859375 281.863281 C 196.859375 279.871094 199.847656 279.871094 199.847656 281.863281 "/>
<path style=" stroke:none;fill-rule:nonzero;fill:rgb(100%,100%,100%);fill-opacity:1;" d="M 298.816406 437.042969 C 298.816406 439.035156 295.824219 439.035156 295.824219 437.042969 C 295.824219 435.046875 298.816406 435.046875 298.816406 437.042969 "/>
<path style=" stroke:none;fill-rule:nonzero;fill:rgb(100%,100%,100%);fill-opacity:1;" d="M 355.925781 378.140625 C 355.925781 380.132812 352.933594 380.132812 352.933594 378.140625 C 352.933594 376.148438 355.925781 376.148438 355.925781 378.140625 "/>
<path style=" stroke:none;fill-rule:nonzero;fill:rgb(100%,100%,100%);fill-opacity:1;" d="M 492.265625 385.914062 C 492.265625 387.90625 489.277344 387.90625 489.277344 385.914062 C 489.277344 383.921875 492.265625 383.921875 492.265625 385.914062 "/>
<path style=" stroke:none;fill-rule:nonzero;fill:rgb(100%,100%,100%);fill-opacity:1;" d="M 453.695312 407.140625 C 453.695312 409.136719 450.707031 409.136719 450.707031 407.140625 C 450.707031 405.148438 453.695312 405.148438 453.695312 407.140625 "/>
<path style=" stroke:none;fill-rule:nonzero;fill:rgb(100%,100%,100%);fill-opacity:1;" d="M 355.324219 186.183594 C 355.324219 188.179688 352.335938 188.179688 352.335938 186.183594 C 352.335938 184.191406 355.324219 184.191406 355.324219 186.183594 "/>
<path style=" stroke:none;fill-rule:nonzero;fill:rgb(100%,84.3%,0%);fill-opacity:1;" d="M 10.882812 196.351562 C 10.882812 198.34375 7.894531 198.34375 7.894531 196.351562 C 7.894531 194.355469 10.882812 194.355469 10.882812 196.351562 "/>
<path style=" stroke:none;fill-rule:nonzero;fill:rgb(100%,84.3%,0%);fill-opacity:1;" d="M 25.832031 270.671875 C 25.832031 272.664062 22.84375 272.664062 22.84375 270.671875 C 22.84375 268.675781 25.832031 268.675781 25.832031 270.671875 "/>
<path style=" stroke:none;fill-rule:nonzero;fill:rgb(100%,84.3%,0%);fill-opacity:1;" d="M 10.882812 98.878906 C 10.882812 100.871094 7.894531 100.871094 7.894531 98.878906 C 7.894531 96.882812 10.882812 96.882812 10.882812 98.878906 "/>
<path style=" stroke:none;fill-rule:nonzero;fill:rgb(100%,84.3%,0%);fill-opacity:1;" d="M 10.882812 45.65625 C 10.882812 47.648438 7.894531 47.648438 7.894531 45.65625 C 7.894531 43.664062 10.882812 43.664062 10.882812 45.65625 "/>
<path style=" stroke:none;fill-rule:nonzero;fill:rgb(100%,84.3%,0%);fill-opacity:1;" d="M 68.890625 74.359375 C 68.890625 76.351562 65.898438 76.351562 65.898438 74.359375 C 65.898438 72.367188 68.890625 72.367188 68.890625 74.359375 "/>
<path style=" stroke:none;fill-rule:nonzero;fill:rgb(100%,84.3%,0%);fill-opacity:1;" d="M 68.890625 466.34375 C 68.890625 468.335938 65.898438 468.335938 65.898438 466.34375 C 65.898438 464.351562 68.890625 464.351562 68.890625 466.34375 "/>
<path style=" stroke:none;fill-rule:nonzero;fill:rgb(100%,84.3%,0%);fill-opacity:1;" d="M 18.65625 45.65625 C 18.65625 47.648438 15.667969 47.648438 15.667969 45.65625 C 15.667969 43.664062 18.65625 43.664062 18.65625 45.65625 "/>
<path style=" stroke:none;fill-rule:nonzero;fill:rgb(100%,84.3%,0%);fill-opacity:1;" d="M 68.890625 424.484375 C 68.890625 426.476562 65.898438 426.476562 65.898438 424.484375 C 65.898438 422.492188 68.890625 422.492188 68.890625 424.484375 "/>
<path style=" stroke:none;fill-rule:nonzero;fill:rgb(100%,84.3%,0%);fill-opacity:1;" d="M 15.667969 45.65625 C 15.667969 47.648438 12.675781 47.648438 12.675781 45.65625 C 12.675781 43.664062 15.667969 43.664062 15.667969 45.65625 "/>
<path style=" stroke:none;fill-rule:nonzero;fill:rgb(100%,84.3%,0%);fill-opacity:1;" d="M 68.890625 421.492188 C 68.890625 423.488281 65.898438 423.488281 65.898438 421.492188 C 65.898438 419.5 68.890625 419.5 68.890625 421.492188 "/>
<path style=" stroke:none;fill-rule:nonzero;fill:rgb(100%,84.3%,0%);fill-opacity:1;" d="M 10.882812 101.867188 C 10.882812 103.859375 7.894531 103.859375 7.894531 101.867188 C 7.894531 99.875 10.882812 99.875 10.882812 101.867188 "/>
<path style=" stroke:none;fill-rule:nonzero;fill:rgb(100%,84.3%,0%);fill-opacity:1;" d="M 68.890625 427.472656 C 68.890625 429.46875 65.898438 429.46875 65.898438 427.472656 C 65.898438 425.480469 68.890625 425.480469 68.890625 427.472656 "/>
<path style=" stroke:none;fill-rule:nonzero;fill:rgb(100%,84.3%,0%);fill-opacity:1;" d="M 21.648438 45.65625 C 21.648438 47.648438 18.65625 47.648438 18.65625 45.65625 C 18.65625 43.664062 21.648438 43.664062 21.648438 45.65625 "/>
<path style=" stroke:none;fill-rule:nonzero;fill:rgb(100%,84.3%,0%);fill-opacity:1;" d="M 68.890625 71.371094 C 68.890625 73.363281 65.898438 73.363281 65.898438 71.371094 C 65.898438 69.375 68.890625 69.375 68.890625 71.371094 "/>
<path style=" stroke:none;fill-rule:nonzero;fill:rgb(100%,84.3%,0%);fill-opacity:1;" d="M 10.882812 104.859375 C 10.882812 106.851562 7.894531 106.851562 7.894531 104.859375 C 7.894531 102.863281 10.882812 102.863281 10.882812 104.859375 "/>
<path style=" stroke:none;fill-rule:nonzero;fill:rgb(100%,84.3%,0%);fill-opacity:1;" d="M 68.890625 430.464844 C 68.890625 432.457031 65.898438 432.457031 65.898438 430.464844 C 65.898438 428.46875 68.890625 428.46875 68.890625 430.464844 "/>
<path style=" stroke:none;fill-rule:nonzero;fill:rgb(100%,84.3%,0%);fill-opacity:1;" d="M 24.636719 45.65625 C 24.636719 47.648438 21.648438 47.648438 21.648438 45.65625 C 21.648438 43.664062 24.636719 43.664062 24.636719 45.65625 "/>
<path style=" stroke:none;fill-rule:nonzero;fill:rgb(100%,84.3%,0%);fill-opacity:1;" d="M 10.882812 107.847656 C 10.882812 109.839844 7.894531 109.839844 7.894531 107.847656 C 7.894531 105.855469 10.882812 105.855469 10.882812 107.847656 "/>
<path style=" stroke:none;fill-rule:nonzero;fill:rgb(100%,84.3%,0%);fill-opacity:1;" d="M 68.890625 418.503906 C 68.890625 420.496094 65.898438 420.496094 65.898438 418.503906 C 65.898438 416.511719 68.890625 416.511719 68.890625 418.503906 "/>
<path style=" stroke:none;fill-rule:nonzero;fill:rgb(100%,84.3%,0%);fill-opacity:1;" d="M 68.890625 433.453125 C 68.890625 435.449219 65.898438 435.449219 65.898438 433.453125 C 65.898438 431.460938 68.890625 431.460938 68.890625 433.453125 "/>
<path style=" stroke:none;fill-rule:nonzero;fill:rgb(100%,84.3%,0%);fill-opacity:1;" d="M 27.628906 45.65625 C 27.628906 47.648438 24.636719 47.648438 24.636719 45.65625 C 24.636719 43.664062 27.628906 43.664062 27.628906 45.65625 "/>
<path style=" stroke:none;fill-rule:nonzero;fill:rgb(100%,84.3%,0%);fill-opacity:1;" d="M 68.890625 415.515625 C 68.890625 417.507812 65.898438 417.507812 65.898438 415.515625 C 65.898438 413.519531 68.890625 413.519531 68.890625 415.515625 "/>
<path style=" stroke:none;fill-rule:nonzero;fill:rgb(100%,84.3%,0%);fill-opacity:1;" d="M 10.882812 199.339844 C 10.882812 201.332031 7.894531 201.332031 7.894531 199.339844 C 7.894531 197.347656 10.882812 197.347656 10.882812 199.339844 "/>
<path style=" stroke:none;fill-rule:nonzero;fill:rgb(100%,84.3%,0%);fill-opacity:1;" d="M 10.882812 110.839844 C 10.882812 112.832031 7.894531 112.832031 7.894531 110.839844 C 7.894531 108.84375 10.882812 108.84375 10.882812 110.839844 "/>
<path style=" stroke:none;fill-rule:nonzero;fill:rgb(100%,84.3%,0%);fill-opacity:1;" d="M 10.882812 48.648438 C 10.882812 50.640625 7.894531 50.640625 7.894531 48.648438 C 7.894531 46.652344 10.882812 46.652344 10.882812 48.648438 "/>
<path style=" stroke:none;fill-rule:nonzero;fill:rgb(100%,84.3%,0%);fill-opacity:1;" d="M 20.152344 48.246094 C 20.152344 50.238281 17.160156 50.238281 17.160156 48.246094 C 17.160156 46.253906 20.152344 46.253906 20.152344 48.246094 "/>
<path style=" stroke:none;fill-rule:nonzero;fill:rgb(100%,84.3%,0%);fill-opacity:1;" d="M 17.160156 48.246094 C 17.160156 50.238281 14.171875 50.238281 14.171875 48.246094 C 14.171875 46.253906 17.160156 46.253906 17.160156 48.246094 "/>
<path style=" stroke:none;fill-rule:nonzero;fill:rgb(100%,84.3%,0%);fill-opacity:1;" d="M 68.890625 436.445312 C 68.890625 438.4375 65.898438 438.4375 65.898438 436.445312 C 65.898438 434.449219 68.890625 434.449219 68.890625 436.445312 "/>
<path style=" stroke:none;fill-rule:nonzero;fill:rgb(100%,84.3%,0%);fill-opacity:1;" d="M 10.882812 113.828125 C 10.882812 115.820312 7.894531 115.820312 7.894531 113.828125 C 7.894531 111.835938 10.882812 111.835938 10.882812 113.828125 "/>
<path style=" stroke:none;fill-rule:nonzero;fill:rgb(100%,84.3%,0%);fill-opacity:1;" d="M 23.140625 48.246094 C 23.140625 50.238281 20.152344 50.238281 20.152344 48.246094 C 20.152344 46.253906 23.140625 46.253906 23.140625 48.246094 "/>
<path style=" stroke:none;fill-rule:nonzero;fill:rgb(100%,84.3%,0%);fill-opacity:1;" d="M 10.882812 82.539062 C 10.882812 84.535156 7.894531 84.535156 7.894531 82.539062 C 7.894531 80.546875 10.882812 80.546875 10.882812 82.539062 "/>
<path style=" stroke:none;fill-rule:nonzero;fill:rgb(100%,84.3%,0%);fill-opacity:1;" d="M 68.890625 412.523438 C 68.890625 414.515625 65.898438 414.515625 65.898438 412.523438 C 65.898438 410.53125 68.890625 410.53125 68.890625 412.523438 "/>
<path style=" stroke:none;fill-rule:nonzero;fill:rgb(100%,84.3%,0%);fill-opacity:1;" d="M 68.890625 77.351562 C 68.890625 79.34375 65.898438 79.34375 65.898438 77.351562 C 65.898438 75.355469 68.890625 75.355469 68.890625 77.351562 "/>
<path style=" stroke:none;fill-rule:nonzero;fill:rgb(100%,84.3%,0%);fill-opacity:1;" d="M 68.890625 439.433594 C 68.890625 441.425781 65.898438 441.425781 65.898438 439.433594 C 65.898438 437.441406 68.890625 437.441406 68.890625 439.433594 "/>
<path style=" stroke:none;fill-rule:nonzero;fill:rgb(100%,84.3%,0%);fill-opacity:1;" d="M 68.890625 68.378906 C 68.890625 70.375 65.898438 70.375 65.898438 68.378906 C 65.898438 66.386719 68.890625 66.386719 68.890625 68.378906 "/>
<path style=" stroke:none;fill-rule:nonzero;fill:rgb(100%,84.3%,0%);fill-opacity:1;" d="M 68.890625 80.339844 C 68.890625 82.332031 65.898438 82.332031 65.898438 80.339844 C 65.898438 78.347656 68.890625 78.347656 68.890625 80.339844 "/>
<path style=" stroke:none;fill-rule:nonzero;fill:rgb(100%,84.3%,0%);fill-opacity:1;" d="M 14.171875 48.246094 C 14.171875 50.238281 11.183594 50.238281 11.183594 48.246094 C 11.183594 46.253906 14.171875 46.253906 14.171875 48.246094 "/>
<path style=" stroke:none;fill-rule:nonzero;fill:rgb(100%,84.3%,0%);fill-opacity:1;" d="M 68.890625 65.390625 C 68.890625 67.382812 65.898438 67.382812 65.898438 65.390625 C 65.898438 63.398438 68.890625 63.398438 68.890625 65.390625 "/>
<path style=" stroke:none;fill-rule:nonzero;fill:rgb(100%,84.3%,0%);fill-opacity:1;" d="M 68.890625 83.328125 C 68.890625 85.324219 65.898438 85.324219 65.898438 83.328125 C 65.898438 81.335938 68.890625 81.335938 68.890625 83.328125 "/>
<path style=" stroke:none;fill-rule:nonzero;fill:rgb(100%,84.3%,0%);fill-opacity:1;" d="M 68.890625 62.398438 C 68.890625 64.394531 65.898438 64.394531 65.898438 62.398438 C 65.898438 60.40625 68.890625 60.40625 68.890625 62.398438 "/>
<path style=" stroke:none;fill-rule:nonzero;fill:rgb(100%,84.3%,0%);fill-opacity:1;" d="M 68.890625 409.535156 C 68.890625 411.527344 65.898438 411.527344 65.898438 409.535156 C 65.898438 407.539062 68.890625 407.539062 68.890625 409.535156 "/>
<path style=" stroke:none;fill-rule:nonzero;fill:rgb(100%,84.3%,0%);fill-opacity:1;" d="M 68.890625 442.425781 C 68.890625 444.417969 65.898438 444.417969 65.898438 442.425781 C 65.898438 440.429688 68.890625 440.429688 68.890625 442.425781 "/>
<path style=" stroke:none;fill-rule:nonzero;fill:rgb(100%,84.3%,0%);fill-opacity:1;" d="M 10.882812 202.328125 C 10.882812 204.324219 7.894531 204.324219 7.894531 202.328125 C 7.894531 200.335938 10.882812 200.335938 10.882812 202.328125 "/>
<path style=" stroke:none;fill-rule:nonzero;fill:rgb(100%,84.3%,0%);fill-opacity:1;" d="M 10.882812 205.320312 C 10.882812 207.3125 7.894531 207.3125 7.894531 205.320312 C 7.894531 203.328125 10.882812 203.328125 10.882812 205.320312 "/>
<path style=" stroke:none;fill-rule:nonzero;fill:rgb(100%,84.3%,0%);fill-opacity:1;" d="M 68.890625 86.320312 C 68.890625 88.3125 65.898438 88.3125 65.898438 86.320312 C 65.898438 84.328125 68.890625 84.328125 68.890625 86.320312 "/>
<path style=" stroke:none;fill-rule:nonzero;fill:rgb(100%,84.3%,0%);fill-opacity:1;" d="M 68.890625 445.414062 C 68.890625 447.40625 65.898438 447.40625 65.898438 445.414062 C 65.898438 443.421875 68.890625 443.421875 68.890625 445.414062 "/>
<path style=" stroke:none;fill-rule:nonzero;fill:rgb(100%,84.3%,0%);fill-opacity:1;" d="M 68.890625 448.402344 C 68.890625 450.398438 65.898438 450.398438 65.898438 448.402344 C 65.898438 446.410156 68.890625 446.410156 68.890625 448.402344 "/>
<path style=" stroke:none;fill-rule:nonzero;fill:rgb(100%,84.3%,0%);fill-opacity:1;" d="M 67.394531 450.992188 C 67.394531 452.984375 64.402344 452.984375 64.402344 450.992188 C 64.402344 449 67.394531 449 67.394531 450.992188 "/>
<path style=" stroke:none;fill-rule:nonzero;fill:rgb(100%,84.3%,0%);fill-opacity:1;" d="M 10.882812 187.382812 C 10.882812 189.375 7.894531 189.375 7.894531 187.382812 C 7.894531 185.386719 10.882812 185.386719 10.882812 187.382812 "/>
<path style=" stroke:none;fill-rule:nonzero;fill:rgb(100%,84.3%,0%);fill-opacity:1;" d="M 68.890625 406.542969 C 68.890625 408.539062 65.898438 408.539062 65.898438 406.542969 C 65.898438 404.550781 68.890625 404.550781 68.890625 406.542969 "/>
<path style=" stroke:none;fill-rule:nonzero;fill:rgb(100%,84.3%,0%);fill-opacity:1;" d="M 68.890625 59.410156 C 68.890625 61.402344 65.898438 61.402344 65.898438 59.410156 C 65.898438 57.417969 68.890625 57.417969 68.890625 59.410156 "/>
<path style=" stroke:none;fill-rule:nonzero;fill:rgb(100%,84.3%,0%);fill-opacity:1;" d="M 10.882812 184.390625 C 10.882812 186.382812 7.894531 186.382812 7.894531 184.390625 C 7.894531 182.398438 10.882812 182.398438 10.882812 184.390625 "/>
<path style=" stroke:none;fill-rule:nonzero;fill:rgb(100%,84.3%,0%);fill-opacity:1;" d="M 10.882812 85.53125 C 10.882812 87.523438 7.894531 87.523438 7.894531 85.53125 C 7.894531 83.535156 10.882812 83.535156 10.882812 85.53125 "/>
<path style=" stroke:none;fill-rule:nonzero;fill:rgb(100%,84.3%,0%);fill-opacity:1;" d="M 12.378906 88.121094 C 12.378906 90.113281 9.386719 90.113281 9.386719 88.121094 C 9.386719 86.125 12.378906 86.125 12.378906 88.121094 "/>
<path style=" stroke:none;fill-rule:nonzero;fill:rgb(100%,84.3%,0%);fill-opacity:1;" d="M 68.890625 400.5625 C 68.890625 402.558594 65.898438 402.558594 65.898438 400.5625 C 65.898438 398.570312 68.890625 398.570312 68.890625 400.5625 "/>
<path style=" stroke:none;fill-rule:nonzero;fill:rgb(100%,84.3%,0%);fill-opacity:1;" d="M 68.890625 403.554688 C 68.890625 405.546875 65.898438 405.546875 65.898438 403.554688 C 65.898438 401.5625 68.890625 401.5625 68.890625 403.554688 "/>
<path style=" stroke:none;fill-rule:nonzero;fill:rgb(100%,84.3%,0%);fill-opacity:1;" d="M 27.328125 273.257812 C 27.328125 275.253906 24.339844 275.253906 24.339844 273.257812 C 24.339844 271.265625 27.328125 271.265625 27.328125 273.257812 "/>
<path style=" stroke:none;fill-rule:nonzero;fill:rgb(100%,84.3%,0%);fill-opacity:1;" d="M 10.882812 90.710938 C 10.882812 92.703125 7.894531 92.703125 7.894531 90.710938 C 7.894531 88.714844 10.882812 88.714844 10.882812 90.710938 "/>
<path style=" stroke:none;fill-rule:nonzero;fill:rgb(100%,84.3%,0%);fill-opacity:1;" d="M 12.378906 93.296875 C 12.378906 95.292969 9.386719 95.292969 9.386719 93.296875 C 9.386719 91.304688 12.378906 91.304688 12.378906 93.296875 "/>
<path style=" stroke:none;fill-rule:nonzero;fill:rgb(100%,84.3%,0%);fill-opacity:1;" d="M 68.890625 45.65625 C 68.890625 47.648438 65.898438 47.648438 65.898438 45.65625 C 65.898438 43.664062 68.890625 43.664062 68.890625 45.65625 "/>
<path style=" stroke:none;fill-rule:nonzero;fill:rgb(100%,84.3%,0%);fill-opacity:1;" d="M 10.882812 95.886719 C 10.882812 97.882812 7.894531 97.882812 7.894531 95.886719 C 7.894531 93.894531 10.882812 93.894531 10.882812 95.886719 "/>
<path style=" stroke:none;fill-rule:nonzero;fill:rgb(100%,84.3%,0%);fill-opacity:1;" d="M 10.882812 181.402344 C 10.882812 183.394531 7.894531 183.394531 7.894531 181.402344 C 7.894531 179.40625 10.882812 179.40625 10.882812 181.402344 "/>
<path style=" stroke:none;fill-rule:nonzero;fill:rgb(100%,84.3%,0%);fill-opacity:1;" d="M 68.890625 89.308594 C 68.890625 91.304688 65.898438 91.304688 65.898438 89.308594 C 65.898438 87.316406 68.890625 87.316406 68.890625 89.308594 "/>
<path style=" stroke:none;fill-rule:nonzero;fill:rgb(100%,84.3%,0%);fill-opacity:1;" d="M 65.898438 453.582031 C 65.898438 455.574219 62.910156 455.574219 62.910156 453.582031 C 62.910156 451.589844 65.898438 451.589844 65.898438 453.582031 "/>
<path style=" stroke:none;fill-rule:nonzero;fill:rgb(100%,84.3%,0%);fill-opacity:1;" d="M 10.882812 208.308594 C 10.882812 210.304688 7.894531 210.304688 7.894531 208.308594 C 7.894531 206.316406 10.882812 206.316406 10.882812 208.308594 "/>
<path style=" stroke:none;fill-rule:nonzero;fill:rgb(100%,84.3%,0%);fill-opacity:1;" d="M 10.882812 178.410156 C 10.882812 180.40625 7.894531 180.40625 7.894531 178.410156 C 7.894531 176.417969 10.882812 176.417969 10.882812 178.410156 "/>
<path style=" stroke:none;fill-rule:nonzero;fill:rgb(100%,84.3%,0%);fill-opacity:1;" d="M 10.882812 175.421875 C 10.882812 177.414062 7.894531 177.414062 7.894531 175.421875 C 7.894531 173.425781 10.882812 173.425781 10.882812 175.421875 "/>
<path style=" stroke:none;fill-rule:nonzero;fill:rgb(100%,84.3%,0%);fill-opacity:1;" d="M 10.882812 172.429688 C 10.882812 174.425781 7.894531 174.425781 7.894531 172.429688 C 7.894531 170.4375 10.882812 170.4375 10.882812 172.429688 "/>
<path style=" stroke:none;fill-rule:nonzero;fill:rgb(100%,84.3%,0%);fill-opacity:1;" d="M 10.882812 211.300781 C 10.882812 213.292969 7.894531 213.292969 7.894531 211.300781 C 7.894531 209.308594 10.882812 209.308594 10.882812 211.300781 "/>
<path style=" stroke:none;fill-rule:nonzero;fill:rgb(100%,84.3%,0%);fill-opacity:1;" d="M 10.882812 214.289062 C 10.882812 216.285156 7.894531 216.285156 7.894531 214.289062 C 7.894531 212.296875 10.882812 212.296875 10.882812 214.289062 "/>
<path style=" stroke:none;fill-rule:nonzero;fill:rgb(100%,84.3%,0%);fill-opacity:1;" d="M 10.882812 169.441406 C 10.882812 171.433594 7.894531 171.433594 7.894531 169.441406 C 7.894531 167.449219 10.882812 167.449219 10.882812 169.441406 "/>
<path style=" stroke:none;fill-rule:nonzero;fill:rgb(100%,84.3%,0%);fill-opacity:1;" d="M 10.882812 166.449219 C 10.882812 168.445312 7.894531 168.445312 7.894531 166.449219 C 7.894531 164.457031 10.882812 164.457031 10.882812 166.449219 "/>
<path style=" stroke:none;fill-rule:nonzero;fill:rgb(100%,84.3%,0%);fill-opacity:1;" d="M 10.882812 141.035156 C 10.882812 143.03125 7.894531 143.03125 7.894531 141.035156 C 7.894531 139.042969 10.882812 139.042969 10.882812 141.035156 "/>
<path style=" stroke:none;fill-rule:nonzero;fill:rgb(100%,84.3%,0%);fill-opacity:1;" d="M 10.882812 217.28125 C 10.882812 219.273438 7.894531 219.273438 7.894531 217.28125 C 7.894531 215.285156 10.882812 215.285156 10.882812 217.28125 "/>
<path style=" stroke:none;fill-rule:nonzero;fill:rgb(100%,84.3%,0%);fill-opacity:1;" d="M 12.378906 143.625 C 12.378906 145.621094 9.386719 145.621094 9.386719 143.625 C 9.386719 141.632812 12.378906 141.632812 12.378906 143.625 "/>
<path style=" stroke:none;fill-rule:nonzero;fill:rgb(100%,84.3%,0%);fill-opacity:1;" d="M 10.882812 146.214844 C 10.882812 148.207031 7.894531 148.207031 7.894531 146.214844 C 7.894531 144.222656 10.882812 144.222656 10.882812 146.214844 "/>
<path style=" stroke:none;fill-rule:nonzero;fill:rgb(100%,84.3%,0%);fill-opacity:1;" d="M 12.378906 148.804688 C 12.378906 150.796875 9.386719 150.796875 9.386719 148.804688 C 9.386719 146.8125 12.378906 146.8125 12.378906 148.804688 "/>
<path style=" stroke:none;fill-rule:nonzero;fill:rgb(100%,84.3%,0%);fill-opacity:1;" d="M 13.871094 151.394531 C 13.871094 153.386719 10.882812 153.386719 10.882812 151.394531 C 10.882812 149.402344 13.871094 149.402344 13.871094 151.394531 "/>
<path style=" stroke:none;fill-rule:nonzero;fill:rgb(100%,84.3%,0%);fill-opacity:1;" d="M 10.882812 138.046875 C 10.882812 140.039062 7.894531 140.039062 7.894531 138.046875 C 7.894531 136.050781 10.882812 136.050781 10.882812 138.046875 "/>
<path style=" stroke:none;fill-rule:nonzero;fill:rgb(100%,84.3%,0%);fill-opacity:1;" d="M 10.882812 135.054688 C 10.882812 137.050781 7.894531 137.050781 7.894531 135.054688 C 7.894531 133.0625 10.882812 133.0625 10.882812 135.054688 "/>
<path style=" stroke:none;fill-rule:nonzero;fill:rgb(100%,84.3%,0%);fill-opacity:1;" d="M 10.882812 132.066406 C 10.882812 134.058594 7.894531 134.058594 7.894531 132.066406 C 7.894531 130.074219 10.882812 130.074219 10.882812 132.066406 "/>
<path style=" stroke:none;fill-rule:nonzero;fill:rgb(100%,84.3%,0%);fill-opacity:1;" d="M 15.367188 153.984375 C 15.367188 155.976562 12.378906 155.976562 12.378906 153.984375 C 12.378906 151.988281 15.367188 151.988281 15.367188 153.984375 "/>
<path style=" stroke:none;fill-rule:nonzero;fill:rgb(100%,84.3%,0%);fill-opacity:1;" d="M 10.882812 220.269531 C 10.882812 222.261719 7.894531 222.261719 7.894531 220.269531 C 7.894531 218.277344 10.882812 218.277344 10.882812 220.269531 "/>
<path style=" stroke:none;fill-rule:nonzero;fill:rgb(100%,84.3%,0%);fill-opacity:1;" d="M 13.871094 156.570312 C 13.871094 158.566406 10.882812 158.566406 10.882812 156.570312 C 10.882812 154.578125 13.871094 154.578125 13.871094 156.570312 "/>
<path style=" stroke:none;fill-rule:nonzero;fill:rgb(100%,84.3%,0%);fill-opacity:1;" d="M 11.285156 158.066406 C 11.285156 160.058594 8.292969 160.058594 8.292969 158.066406 C 8.292969 156.074219 11.285156 156.074219 11.285156 158.066406 "/>
<path style=" stroke:none;fill-rule:nonzero;fill:rgb(100%,84.3%,0%);fill-opacity:1;" d="M 12.378906 163.859375 C 12.378906 165.855469 9.386719 165.855469 9.386719 163.859375 C 9.386719 161.867188 12.378906 161.867188 12.378906 163.859375 "/>
<path style=" stroke:none;fill-rule:nonzero;fill:rgb(100%,84.3%,0%);fill-opacity:1;" d="M 15.367188 163.859375 C 15.367188 165.855469 12.378906 165.855469 12.378906 163.859375 C 12.378906 161.867188 15.367188 161.867188 15.367188 163.859375 "/>
<path style=" stroke:none;fill-rule:nonzero;fill:rgb(100%,84.3%,0%);fill-opacity:1;" d="M 11.285156 152.890625 C 11.285156 154.882812 8.292969 154.882812 8.292969 152.890625 C 8.292969 150.894531 11.285156 150.894531 11.285156 152.890625 "/>
<path style=" stroke:none;fill-rule:nonzero;fill:rgb(100%,84.3%,0%);fill-opacity:1;" d="M 10.882812 223.261719 C 10.882812 225.253906 7.894531 225.253906 7.894531 223.261719 C 7.894531 221.265625 10.882812 221.265625 10.882812 223.261719 "/>
<path style=" stroke:none;fill-rule:nonzero;fill:rgb(100%,84.3%,0%);fill-opacity:1;" d="M 10.882812 226.25 C 10.882812 228.242188 7.894531 228.242188 7.894531 226.25 C 7.894531 224.257812 10.882812 224.257812 10.882812 226.25 "/>
<path style=" stroke:none;fill-rule:nonzero;fill:rgb(100%,84.3%,0%);fill-opacity:1;" d="M 12.378906 228.839844 C 12.378906 230.832031 9.386719 230.832031 9.386719 228.839844 C 9.386719 226.84375 12.378906 226.84375 12.378906 228.839844 "/>
<path style=" stroke:none;fill-rule:nonzero;fill:rgb(100%,84.3%,0%);fill-opacity:1;" d="M 10.882812 231.429688 C 10.882812 233.421875 7.894531 233.421875 7.894531 231.429688 C 7.894531 229.4375 10.882812 229.4375 10.882812 231.429688 "/>
<path style=" stroke:none;fill-rule:nonzero;fill:rgb(100%,84.3%,0%);fill-opacity:1;" d="M 12.378906 234.019531 C 12.378906 236.011719 9.386719 236.011719 9.386719 234.019531 C 9.386719 232.023438 12.378906 232.023438 12.378906 234.019531 "/>
<path style=" stroke:none;fill-rule:nonzero;fill:rgb(100%,84.3%,0%);fill-opacity:1;" d="M 10.882812 236.605469 C 10.882812 238.601562 7.894531 238.601562 7.894531 236.605469 C 7.894531 234.613281 10.882812 234.613281 10.882812 236.605469 "/>
<path style=" stroke:none;fill-rule:nonzero;fill:rgb(100%,84.3%,0%);fill-opacity:1;" d="M 12.378906 239.195312 C 12.378906 241.191406 9.386719 241.191406 9.386719 239.195312 C 9.386719 237.203125 12.378906 237.203125 12.378906 239.195312 "/>
<path style=" stroke:none;fill-rule:nonzero;fill:rgb(100%,84.3%,0%);fill-opacity:1;" d="M 10.882812 241.785156 C 10.882812 243.78125 7.894531 243.78125 7.894531 241.785156 C 7.894531 239.792969 10.882812 239.792969 10.882812 241.785156 "/>
<path style=" stroke:none;fill-rule:nonzero;fill:rgb(100%,84.3%,0%);fill-opacity:1;" d="M 10.882812 244.777344 C 10.882812 246.769531 7.894531 246.769531 7.894531 244.777344 C 7.894531 242.78125 10.882812 242.78125 10.882812 244.777344 "/>
<path style=" stroke:none;fill-rule:nonzero;fill:rgb(100%,84.3%,0%);fill-opacity:1;" d="M 12.378906 247.367188 C 12.378906 249.359375 9.386719 249.359375 9.386719 247.367188 C 9.386719 245.371094 12.378906 245.371094 12.378906 247.367188 "/>
<path style=" stroke:none;fill-rule:nonzero;fill:rgb(100%,84.3%,0%);fill-opacity:1;" d="M 13.871094 249.953125 C 13.871094 251.949219 10.882812 251.949219 10.882812 249.953125 C 10.882812 247.960938 13.871094 247.960938 13.871094 249.953125 "/>
<path style=" stroke:none;fill-rule:nonzero;fill:rgb(100%,84.3%,0%);fill-opacity:1;" d="M 15.367188 252.542969 C 15.367188 254.539062 12.378906 254.539062 12.378906 252.542969 C 12.378906 250.550781 15.367188 250.550781 15.367188 252.542969 "/>
<path style=" stroke:none;fill-rule:nonzero;fill:rgb(100%,84.3%,0%);fill-opacity:1;" d="M 16.863281 255.132812 C 16.863281 257.128906 13.871094 257.128906 13.871094 255.132812 C 13.871094 253.140625 16.863281 253.140625 16.863281 255.132812 "/>
<path style=" stroke:none;fill-rule:nonzero;fill:rgb(100%,84.3%,0%);fill-opacity:1;" d="M 10.882812 128.777344 C 10.882812 130.769531 7.894531 130.769531 7.894531 128.777344 C 7.894531 126.785156 10.882812 126.785156 10.882812 128.777344 "/>
<path style=" stroke:none;fill-rule:nonzero;fill:rgb(100%,84.3%,0%);fill-opacity:1;" d="M 10.882812 125.785156 C 10.882812 127.78125 7.894531 127.78125 7.894531 125.785156 C 7.894531 123.792969 10.882812 123.792969 10.882812 125.785156 "/>
<path style=" stroke:none;fill-rule:nonzero;fill:rgb(100%,84.3%,0%);fill-opacity:1;" d="M 10.882812 122.796875 C 10.882812 124.792969 7.894531 124.792969 7.894531 122.796875 C 7.894531 120.804688 10.882812 120.804688 10.882812 122.796875 "/>
<path style=" stroke:none;fill-rule:nonzero;fill:rgb(100%,84.3%,0%);fill-opacity:1;" d="M 10.882812 119.808594 C 10.882812 121.800781 7.894531 121.800781 7.894531 119.808594 C 7.894531 117.816406 10.882812 117.816406 10.882812 119.808594 "/>
<path style=" stroke:none;fill-rule:nonzero;fill:rgb(100%,84.3%,0%);fill-opacity:1;" d="M 18.359375 257.722656 C 18.359375 259.714844 15.367188 259.714844 15.367188 257.722656 C 15.367188 255.730469 18.359375 255.730469 18.359375 257.722656 "/>
<path style=" stroke:none;fill-rule:nonzero;fill:rgb(100%,84.3%,0%);fill-opacity:1;" d="M 13.472656 200.835938 C 13.472656 202.828125 10.484375 202.828125 10.484375 200.835938 C 10.484375 198.839844 13.472656 198.839844 13.472656 200.835938 "/>
<path style=" stroke:none;fill-rule:nonzero;fill:rgb(100%,84.3%,0%);fill-opacity:1;" d="M 15.367188 160.871094 C 15.367188 162.863281 12.378906 162.863281 12.378906 160.871094 C 12.378906 158.878906 15.367188 158.878906 15.367188 160.871094 "/>
<path style=" stroke:none;fill-rule:nonzero;fill:rgb(100%,84.3%,0%);fill-opacity:1;" d="M 19.851562 260.3125 C 19.851562 262.304688 16.863281 262.304688 16.863281 260.3125 C 16.863281 258.320312 19.851562 258.320312 19.851562 260.3125 "/>
<path style=" stroke:none;fill-rule:nonzero;fill:rgb(100%,84.3%,0%);fill-opacity:1;" d="M 21.347656 262.902344 C 21.347656 264.894531 18.359375 264.894531 18.359375 262.902344 C 18.359375 260.910156 21.347656 260.910156 21.347656 262.902344 "/>
<path style=" stroke:none;fill-rule:nonzero;fill:rgb(100%,84.3%,0%);fill-opacity:1;" d="M 10.882812 116.816406 C 10.882812 118.8125 7.894531 118.8125 7.894531 116.816406 C 7.894531 114.824219 10.882812 114.824219 10.882812 116.816406 "/>
<path style=" stroke:none;fill-rule:nonzero;fill:rgb(100%,84.3%,0%);fill-opacity:1;" d="M 22.84375 265.492188 C 22.84375 267.484375 19.851562 267.484375 19.851562 265.492188 C 19.851562 263.496094 22.84375 263.496094 22.84375 265.492188 "/>
<path style=" stroke:none;fill-rule:nonzero;fill:rgb(100%,84.3%,0%);fill-opacity:1;" d="M 24.339844 268.082031 C 24.339844 270.074219 21.347656 270.074219 21.347656 268.082031 C 21.347656 266.085938 24.339844 266.085938 24.339844 268.082031 "/>
<path style=" stroke:none;fill-rule:nonzero;fill:rgb(100%,84.3%,0%);fill-opacity:1;" d="M 13.472656 197.84375 C 13.472656 199.839844 10.484375 199.839844 10.484375 197.84375 C 10.484375 195.851562 13.472656 195.851562 13.472656 197.84375 "/>
<path style=" stroke:none;fill-rule:nonzero;fill:rgb(100%,84.3%,0%);fill-opacity:1;" d="M 13.472656 203.824219 C 13.472656 205.816406 10.484375 205.816406 10.484375 203.824219 C 10.484375 201.832031 13.472656 201.832031 13.472656 203.824219 "/>
<path style=" stroke:none;fill-rule:nonzero;fill:rgb(100%,84.3%,0%);fill-opacity:1;" d="M 13.472656 206.816406 C 13.472656 208.808594 10.484375 208.808594 10.484375 206.816406 C 10.484375 204.820312 13.472656 204.820312 13.472656 206.816406 "/>
<path style=" stroke:none;fill-rule:nonzero;fill:rgb(100%,84.3%,0%);fill-opacity:1;" d="M 13.472656 194.855469 C 13.472656 196.847656 10.484375 196.847656 10.484375 194.855469 C 10.484375 192.863281 13.472656 192.863281 13.472656 194.855469 "/>
<path style=" stroke:none;fill-rule:nonzero;fill:rgb(100%,84.3%,0%);fill-opacity:1;" d="M 13.472656 191.863281 C 13.472656 193.859375 10.484375 193.859375 10.484375 191.863281 C 10.484375 189.871094 13.472656 189.871094 13.472656 191.863281 "/>
<path style=" stroke:none;fill-rule:nonzero;fill:rgb(100%,84.3%,0%);fill-opacity:1;" d="M 13.472656 188.875 C 13.472656 190.867188 10.484375 190.867188 10.484375 188.875 C 10.484375 186.882812 13.472656 186.882812 13.472656 188.875 "/>
<path style=" stroke:none;fill-rule:nonzero;fill:rgb(100%,84.3%,0%);fill-opacity:1;" d="M 16.464844 158.066406 C 16.464844 160.058594 13.472656 160.058594 13.472656 158.066406 C 13.472656 156.074219 16.464844 156.074219 16.464844 158.066406 "/>
<path style=" stroke:none;fill-rule:nonzero;fill:rgb(100%,84.3%,0%);fill-opacity:1;" d="M 10.882812 190.371094 C 10.882812 192.363281 7.894531 192.363281 7.894531 190.371094 C 7.894531 188.375 10.882812 188.375 10.882812 190.371094 "/>
<path style=" stroke:none;fill-rule:nonzero;fill:rgb(100%,84.3%,0%);fill-opacity:1;" d="M 10.882812 193.359375 C 10.882812 195.351562 7.894531 195.351562 7.894531 193.359375 C 7.894531 191.367188 10.882812 191.367188 10.882812 193.359375 "/>
<path style=" stroke:none;fill-rule:nonzero;fill:rgb(100%,84.3%,0%);fill-opacity:1;" d="M 13.472656 185.886719 C 13.472656 187.878906 10.484375 187.878906 10.484375 185.886719 C 10.484375 183.894531 13.472656 183.894531 13.472656 185.886719 "/>
<path style=" stroke:none;fill-rule:nonzero;fill:rgb(100%,84.3%,0%);fill-opacity:1;" d="M 13.472656 182.894531 C 13.472656 184.890625 10.484375 184.890625 10.484375 182.894531 C 10.484375 180.902344 13.472656 180.902344 13.472656 182.894531 "/>
<path style=" stroke:none;fill-rule:nonzero;fill:rgb(100%,84.3%,0%);fill-opacity:1;" d="M 13.472656 179.90625 C 13.472656 181.898438 10.484375 181.898438 10.484375 179.90625 C 10.484375 177.914062 13.472656 177.914062 13.472656 179.90625 "/>
<path style=" stroke:none;fill-rule:nonzero;fill:rgb(100%,84.3%,0%);fill-opacity:1;" d="M 13.472656 176.914062 C 13.472656 178.910156 10.484375 178.910156 10.484375 176.914062 C 10.484375 174.921875 13.472656 174.921875 13.472656 176.914062 "/>
<path style=" stroke:none;fill-rule:nonzero;fill:rgb(100%,84.3%,0%);fill-opacity:1;" d="M 13.472656 173.925781 C 13.472656 175.917969 10.484375 175.917969 10.484375 173.925781 C 10.484375 171.933594 13.472656 171.933594 13.472656 173.925781 "/>
<path style=" stroke:none;fill-rule:nonzero;fill:rgb(100%,84.3%,0%);fill-opacity:1;" d="M 13.472656 170.9375 C 13.472656 172.929688 10.484375 172.929688 10.484375 170.9375 C 10.484375 168.941406 13.472656 168.941406 13.472656 170.9375 "/>
</g>
</svg>
