<?xml version="1.0" encoding="UTF-8"?>
<svg xmlns="http://www.w3.org/2000/svg" xmlns:xlink="http://www.w3.org/1999/xlink" width="512pt" height="512pt" viewBox="0 0 512 512" version="1.1">
<g id="surface396">
<rect x="0" y="0" width="512" height="512" style="fill:rgb(26.7%,26.7%,26.7%);fill-opacity:1;stroke:none;"/>
<path style=" stroke:none;fill-rule:nonzero;fill:rgb(19.2%,38.8%,66.7%);fill-opacity:1;" d="M 26.515625 42.667969 L 291.671875 42.667969 L 291.671875 469.332031 L 26.515625 469.332031 Z M 26.515625 42.667969 "/>
<path style=" stroke:none;fill-rule:nonzero;fill:rgb(90.6%,14.9%,14.9%);fill-opacity:1;" d="M 494.640625 259.453125 C 494.640625 268.519531 487.292969 275.867188 478.230469 275.867188 C 469.164062 275.867188 461.820312 268.519531 461.820312 259.453125 C 461.820312 250.390625 469.164062 243.042969 478.230469 243.042969 C 487.292969 243.042969 494.640625 250.390625 494.640625 259.453125 "/>
<path style=" stroke:none;fill-rule:nonzero;fill:rgb(90.6%,14.9%,14.9%);fill-opacity:1;" d="M 477.367188 269.820312 C 477.367188 292.238281 459.191406 310.414062 436.773438 310.414062 C 414.351562 310.414062 396.179688 292.238281 396.179688 269.820312 C 396.179688 247.398438 414.351562 229.226562 436.773438 229.226562 C 459.191406 229.226562 477.367188 247.398438 477.367188 269.820312 "/>
<path style=" stroke:none;fill-rule:nonzero;fill:rgb(100%,100%,100%);fill-opacity:1;" d="M 18.742188 38.347656 C 18.742188 44.105469 10.105469 44.105469 10.105469 38.347656 C 10.105469 32.589844 18.742188 32.589844 18.742188 38.347656 "/>
<path style=" stroke:none;fill-rule:nonzero;fill:rgb(100%,100%,100%);fill-opacity:1;" d="M 139.660156 27.984375 C 139.660156 33.742188 131.023438 33.742188 131.023438 27.984375 C 131.023438 22.226562 139.660156 22.226562 139.660156 27.984375 "/>
<path style=" stroke:none;fill-rule:nonzero;fill:rgb(100%,100%,100%);fill-opacity:1;" d="M 472.183594 382.101562 C 472.183594 387.859375 463.546875 387.859375 463.546875 382.101562 C 463.546875 376.34375 472.183594 376.34375 472.183594 382.101562 "/>
<path style=" stroke:none;fill-rule:nonzero;fill:rgb(100%,100%,100%);fill-opacity:1;" d="M 498.09375 294.867188 C 498.09375 300.625 489.457031 300.625 489.457031 294.867188 C 489.457031 289.109375 498.09375 289.109375 498.09375 294.867188 "/>
<path style=" stroke:none;fill-rule:nonzero;fill:rgb(100%,100%,100%);fill-opacity:1;" d="M 228.621094 487.472656 C 228.621094 493.230469 219.984375 493.230469 219.984375 487.472656 C 219.984375 481.714844 228.621094 481.714844 228.621094 487.472656 "/>
<path style=" stroke:none;fill-rule:nonzero;fill:rgb(100%,100%,100%);fill-opacity:1;" d="M 243.304688 21.074219 C 243.304688 26.832031 234.667969 26.832031 234.667969 21.074219 C 234.667969 15.316406 243.304688 15.316406 243.304688 21.074219 "/>
<path style=" stroke:none;fill-rule:nonzero;fill:rgb(100%,100%,100%);fill-opacity:1;" d="M 460.089844 52.167969 C 460.089844 57.925781 451.453125 57.925781 451.453125 52.167969 C 451.453125 46.410156 460.089844 46.410156 460.089844 52.167969 "/>
<path style=" stroke:none;fill-rule:nonzero;fill:rgb(100%,100%,100%);fill-opacity:1;" d="M 40.335938 484.015625 C 40.335938 489.773438 31.699219 489.773438 31.699219 484.015625 C 31.699219 478.257812 40.335938 478.257812 40.335938 484.015625 "/>
<path style=" stroke:none;fill-rule:nonzero;fill:rgb(100%,100%,100%);fill-opacity:1;" d="M 304.625 247.363281 C 304.625 253.121094 295.988281 253.121094 295.988281 247.363281 C 295.988281 241.605469 304.625 241.605469 304.625 247.363281 "/>
<path style=" stroke:none;fill-rule:nonzero;fill:rgb(100%,100%,100%);fill-opacity:1;" d="M 286.488281 33.164062 C 286.488281 38.925781 277.851562 38.925781 277.851562 33.164062 C 277.851562 27.40625 286.488281 27.40625 286.488281 33.164062 "/>
<path style=" stroke:none;fill-rule:nonzero;fill:rgb(100%,100%,100%);fill-opacity:1;" d="M 386.675781 176.539062 C 386.675781 182.296875 378.039062 182.296875 378.039062 176.539062 C 378.039062 170.78125 386.675781 170.78125 386.675781 176.539062 "/>
<path style=" stroke:none;fill-rule:nonzero;fill:rgb(100%,100%,100%);fill-opacity:1;" d="M 75.746094 481.425781 C 75.746094 487.183594 67.109375 487.183594 67.109375 481.425781 C 67.109375 475.667969 75.746094 475.667969 75.746094 481.425781 "/>
<path style=" stroke:none;fill-rule:nonzero;fill:rgb(100%,100%,100%);fill-opacity:1;" d="M 299.445312 378.644531 C 299.445312 384.402344 290.808594 384.402344 290.808594 378.644531 C 290.808594 372.886719 299.445312 372.886719 299.445312 378.644531 "/>
<path style=" stroke:none;fill-rule:nonzero;fill:rgb(100%,100%,100%);fill-opacity:1;" d="M 448.863281 138.535156 C 448.863281 144.296875 440.226562 144.296875 440.226562 138.535156 C 440.226562 132.777344 448.863281 132.777344 448.863281 138.535156 "/>
<path style=" stroke:none;fill-rule:nonzero;fill:rgb(100%,100%,100%);fill-opacity:1;" d="M 378.90625 88.441406 C 378.90625 94.199219 370.265625 94.199219 370.265625 88.441406 C 370.265625 82.683594 378.90625 82.683594 378.90625 88.441406 "/>
<path style=" stroke:none;fill-rule:nonzero;fill:rgb(100%,100%,100%);fill-opacity:1;" d="M 435.042969 45.257812 C 435.042969 51.015625 426.40625 51.015625 426.40625 45.257812 C 426.40625 39.5 435.042969 39.5 435.042969 45.257812 "/>
<path style=" stroke:none;fill-rule:nonzero;fill:rgb(100%,100%,100%);fill-opacity:1;" d="M 282.171875 476.242188 C 282.171875 482 273.535156 482 273.535156 476.242188 C 273.535156 470.484375 282.171875 470.484375 282.171875 476.242188 "/>
<path style=" stroke:none;fill-rule:nonzero;fill:rgb(100%,100%,100%);fill-opacity:1;" d="M 411.722656 217.132812 C 411.722656 222.890625 403.085938 222.890625 403.085938 217.132812 C 403.085938 211.375 411.722656 211.375 411.722656 217.132812 "/>
<path style=" stroke:none;fill-rule:nonzero;fill:rgb(100%,100%,100%);fill-opacity:1;" d="M 503.277344 482.289062 C 503.277344 488.046875 494.640625 488.046875 494.640625 482.289062 C 494.640625 476.53125 503.277344 476.53125 503.277344 482.289062 "/>
<path style=" stroke:none;fill-rule:nonzero;fill:rgb(100%,100%,100%);fill-opacity:1;" d="M 361.628906 515.109375 C 361.628906 520.867188 352.992188 520.867188 352.992188 515.109375 C 352.992188 509.351562 361.628906 509.351562 361.628906 515.109375 "/>
<path style=" stroke:none;fill-rule:nonzero;fill:rgb(100%,100%,100%);fill-opacity:1;" d="M 519.6875 96.214844 C 519.6875 101.972656 511.050781 101.972656 511.050781 96.214844 C 511.050781 90.457031 519.6875 90.457031 519.6875 96.214844 "/>
<path style=" stroke:none;fill-rule:nonzero;fill:rgb(100%,100%,100%);fill-opacity:1;" d="M 492.046875 114.355469 C 492.046875 120.113281 483.410156 120.113281 483.410156 114.355469 C 483.410156 108.597656 492.046875 108.597656 492.046875 114.355469 "/>
<path style=" stroke:none;fill-rule:nonzero;fill:rgb(100%,100%,100%);fill-opacity:1;" d="M 403.085938 490.925781 C 403.085938 496.683594 394.449219 496.683594 394.449219 490.925781 C 394.449219 485.167969 403.085938 485.167969 403.085938 490.925781 "/>
<path style=" stroke:none;fill-rule:nonzero;fill:rgb(100%,100%,100%);fill-opacity:1;" d="M 445.410156 337.1875 C 445.410156 342.945312 436.773438 342.945312 436.773438 337.1875 C 436.773438 331.429688 445.410156 331.429688 445.410156 337.1875 "/>
<path style=" stroke:none;fill-rule:nonzero;fill:rgb(100%,100%,100%);fill-opacity:1;" d="M 368.539062 499.5625 C 368.539062 505.320312 359.902344 505.320312 359.902344 499.5625 C 359.902344 493.804688 368.539062 493.804688 368.539062 499.5625 "/>
<path style=" stroke:none;fill-rule:nonzero;fill:rgb(100%,84.3%,0%);fill-opacity:1;" d="M 39.46875 204.179688 C 39.46875 209.9375 30.832031 209.9375 30.832031 204.179688 C 30.832031 198.421875 39.46875 198.421875 39.46875 204.179688 "/>
<path style=" stroke:none;fill-rule:nonzero;fill:rgb(100%,84.3%,0%);fill-opacity:1;" d="M 174.207031 51.304688 C 174.207031 57.0625 165.570312 57.0625 165.570312 51.304688 C 165.570312 45.546875 174.207031 45.546875 174.207031 51.304688 "/>
<path style=" stroke:none;fill-rule:nonzero;fill:rgb(100%,84.3%,0%);fill-opacity:1;" d="M 43.789062 76.058594 C 43.789062 81.816406 35.152344 81.816406 35.152344 76.058594 C 35.152344 70.300781 43.789062 70.300781 43.789062 76.058594 "/>
<path style=" stroke:none;fill-rule:nonzero;fill:rgb(100%,84.3%,0%);fill-opacity:1;" d="M 286.488281 51.304688 C 286.488281 57.0625 277.851562 57.0625 277.851562 51.304688 C 277.851562 45.546875 286.488281 45.546875 286.488281 51.304688 "/>
<path style=" stroke:none;fill-rule:nonzero;fill:rgb(100%,84.3%,0%);fill-opacity:1;" d="M 139.660156 51.304688 C 139.660156 57.0625 131.023438 57.0625 131.023438 51.304688 C 131.023438 45.546875 139.660156 45.546875 139.660156 51.304688 "/>
<path style=" stroke:none;fill-rule:nonzero;fill:rgb(100%,84.3%,0%);fill-opacity:1;" d="M 194.074219 460.695312 C 194.074219 466.453125 185.433594 466.453125 185.433594 460.695312 C 185.433594 454.9375 194.074219 454.9375 194.074219 460.695312 "/>
<path style=" stroke:none;fill-rule:nonzero;fill:rgb(100%,84.3%,0%);fill-opacity:1;" d="M 261.441406 425.839844 C 261.441406 431.597656 252.804688 431.597656 252.804688 425.839844 C 252.804688 420.078125 261.441406 420.078125 261.441406 425.839844 "/>
<path style=" stroke:none;fill-rule:nonzero;fill:rgb(100%,84.3%,0%);fill-opacity:1;" d="M 228.621094 460.695312 C 228.621094 466.453125 219.984375 466.453125 219.984375 460.695312 C 219.984375 454.9375 228.621094 454.9375 228.621094 460.695312 "/>
<path style=" stroke:none;fill-rule:nonzero;fill:rgb(100%,84.3%,0%);fill-opacity:1;" d="M 117.773438 456.378906 C 117.773438 462.136719 109.136719 462.136719 109.136719 456.378906 C 109.136719 450.621094 117.773438 450.621094 117.773438 456.378906 "/>
<path style=" stroke:none;fill-rule:nonzero;fill:rgb(100%,84.3%,0%);fill-opacity:1;" d="M 200.117188 51.304688 C 200.117188 57.0625 191.480469 57.0625 191.480469 51.304688 C 191.480469 45.546875 200.117188 45.546875 200.117188 51.304688 "/>
<path style=" stroke:none;fill-rule:nonzero;fill:rgb(100%,84.3%,0%);fill-opacity:1;" d="M 287.351562 378.644531 C 287.351562 384.402344 278.714844 384.402344 278.714844 378.644531 C 278.714844 372.886719 287.351562 372.886719 287.351562 378.644531 "/>
<path style=" stroke:none;fill-rule:nonzero;fill:rgb(100%,84.3%,0%);fill-opacity:1;" d="M 39.46875 51.304688 C 39.46875 57.0625 30.832031 57.0625 30.832031 51.304688 C 30.832031 45.546875 39.46875 45.546875 39.46875 51.304688 "/>
<path style=" stroke:none;fill-rule:nonzero;fill:rgb(100%,84.3%,0%);fill-opacity:1;" d="M 287.351562 247.363281 C 287.351562 253.121094 278.714844 253.121094 278.714844 247.363281 C 278.714844 241.605469 287.351562 241.605469 287.351562 247.363281 "/>
<path style=" stroke:none;fill-rule:nonzero;fill:rgb(100%,84.3%,0%);fill-opacity:1;" d="M 182.84375 51.304688 C 182.84375 57.0625 174.207031 57.0625 174.207031 51.304688 C 174.207031 45.546875 182.84375 45.546875 182.84375 51.304688 "/>
<path style=" stroke:none;fill-rule:nonzero;fill:rgb(100%,84.3%,0%);fill-opacity:1;" d="M 234.667969 51.304688 C 234.667969 57.0625 226.03125 57.0625 226.03125 51.304688 C 226.03125 45.546875 234.667969 45.546875 234.667969 51.304688 "/>
<path style=" stroke:none;fill-rule:nonzero;fill:rgb(100%,84.3%,0%);fill-opacity:1;" d="M 282.171875 460.695312 C 282.171875 466.453125 273.535156 466.453125 273.535156 460.695312 C 273.535156 454.9375 282.171875 454.9375 282.171875 460.695312 "/>
<path style=" stroke:none;fill-rule:nonzero;fill:rgb(100%,84.3%,0%);fill-opacity:1;" d="M 46.949219 150.628906 C 46.949219 156.386719 38.3125 156.386719 38.3125 150.628906 C 38.3125 144.871094 46.949219 144.871094 46.949219 150.628906 "/>
<path style=" stroke:none;fill-rule:nonzero;fill:rgb(100%,84.3%,0%);fill-opacity:1;" d="M 176.796875 460.695312 C 176.796875 466.453125 168.160156 466.453125 168.160156 460.695312 C 168.160156 454.9375 176.796875 454.9375 176.796875 460.695312 "/>
<path style=" stroke:none;fill-rule:nonzero;fill:rgb(100%,84.3%,0%);fill-opacity:1;" d="M 286.488281 146.308594 C 286.488281 152.066406 277.851562 152.066406 277.851562 146.308594 C 277.851562 140.550781 286.488281 140.550781 286.488281 146.308594 "/>
<path style=" stroke:none;fill-rule:nonzero;fill:rgb(100%,84.3%,0%);fill-opacity:1;" d="M 39.46875 178.265625 C 39.46875 184.023438 30.832031 184.023438 30.832031 178.265625 C 30.832031 172.507812 39.46875 172.507812 39.46875 178.265625 "/>
<path style=" stroke:none;fill-rule:nonzero;fill:rgb(100%,84.3%,0%);fill-opacity:1;" d="M 39.46875 137.671875 C 39.46875 143.429688 30.832031 143.429688 30.832031 137.671875 C 30.832031 131.914062 39.46875 131.914062 39.46875 137.671875 "/>
<path style=" stroke:none;fill-rule:nonzero;fill:rgb(100%,84.3%,0%);fill-opacity:1;" d="M 75.746094 460.695312 C 75.746094 466.453125 67.109375 466.453125 67.109375 460.695312 C 67.109375 454.9375 75.746094 454.9375 75.746094 460.695312 "/>
<path style=" stroke:none;fill-rule:nonzero;fill:rgb(100%,84.3%,0%);fill-opacity:1;" d="M 273.535156 460.695312 C 273.535156 466.453125 264.898438 466.453125 264.898438 460.695312 C 264.898438 454.9375 273.535156 454.9375 273.535156 460.695312 "/>
<path style=" stroke:none;fill-rule:nonzero;fill:rgb(100%,84.3%,0%);fill-opacity:1;" d="M 39.46875 146.308594 C 39.46875 152.066406 30.832031 152.066406 30.832031 146.308594 C 30.832031 140.550781 39.46875 140.550781 39.46875 146.308594 "/>
<path style=" stroke:none;fill-rule:nonzero;fill:rgb(100%,84.3%,0%);fill-opacity:1;" d="M 131.023438 51.304688 C 131.023438 57.0625 122.386719 57.0625 122.386719 51.304688 C 122.386719 45.546875 131.023438 45.546875 131.023438 51.304688 "/>
<path style=" stroke:none;fill-rule:nonzero;fill:rgb(100%,84.3%,0%);fill-opacity:1;" d="M 219.984375 460.695312 C 219.984375 466.453125 211.347656 466.453125 211.347656 460.695312 C 211.347656 454.9375 219.984375 454.9375 219.984375 460.695312 "/>
<path style=" stroke:none;fill-rule:nonzero;fill:rgb(100%,84.3%,0%);fill-opacity:1;" d="M 287.351562 238.726562 C 287.351562 244.484375 278.714844 244.484375 278.714844 238.726562 C 278.714844 232.96875 287.351562 232.96875 287.351562 238.726562 "/>
<path style=" stroke:none;fill-rule:nonzero;fill:rgb(100%,84.3%,0%);fill-opacity:1;" d="M 287.351562 256 C 287.351562 261.757812 278.714844 261.757812 278.714844 256 C 278.714844 250.242188 287.351562 250.242188 287.351562 256 "/>
<path style=" stroke:none;fill-rule:nonzero;fill:rgb(100%,84.3%,0%);fill-opacity:1;" d="M 264.898438 460.695312 C 264.898438 466.453125 256.257812 466.453125 256.257812 460.695312 C 256.257812 454.9375 264.898438 454.9375 264.898438 460.695312 "/>
<path style=" stroke:none;fill-rule:nonzero;fill:rgb(100%,84.3%,0%);fill-opacity:1;" d="M 245.617188 59.941406 C 245.617188 65.699219 236.980469 65.699219 236.980469 59.941406 C 236.980469 54.183594 245.617188 54.183594 245.617188 59.941406 "/>
<path style=" stroke:none;fill-rule:nonzero;fill:rgb(100%,84.3%,0%);fill-opacity:1;" d="M 125.253906 452.058594 C 125.253906 457.816406 116.617188 457.816406 116.617188 452.058594 C 116.617188 446.300781 125.253906 446.300781 125.253906 452.058594 "/>
<path style=" stroke:none;fill-rule:nonzero;fill:rgb(100%,84.3%,0%);fill-opacity:1;" d="M 39.46875 169.628906 C 39.46875 175.386719 30.832031 175.386719 30.832031 169.628906 C 30.832031 163.871094 39.46875 163.871094 39.46875 169.628906 "/>
<path style=" stroke:none;fill-rule:nonzero;fill:rgb(100%,84.3%,0%);fill-opacity:1;" d="M 287.351562 230.089844 C 287.351562 235.847656 278.714844 235.847656 278.714844 230.089844 C 278.714844 224.332031 287.351562 224.332031 287.351562 230.089844 "/>
<path style=" stroke:none;fill-rule:nonzero;fill:rgb(100%,84.3%,0%);fill-opacity:1;" d="M 96.476562 51.304688 C 96.476562 57.0625 87.839844 57.0625 87.839844 51.304688 C 87.839844 45.546875 96.476562 45.546875 96.476562 51.304688 "/>
<path style=" stroke:none;fill-rule:nonzero;fill:rgb(100%,84.3%,0%);fill-opacity:1;" d="M 286.488281 453.21875 C 286.488281 458.976562 277.851562 458.976562 277.851562 453.21875 C 277.851562 447.460938 286.488281 447.460938 286.488281 453.21875 "/>
<path style=" stroke:none;fill-rule:nonzero;fill:rgb(100%,84.3%,0%);fill-opacity:1;" d="M 283.035156 199.011719 C 283.035156 204.769531 274.398438 204.769531 274.398438 199.011719 C 274.398438 193.253906 283.035156 193.253906 283.035156 199.011719 "/>
<path style=" stroke:none;fill-rule:nonzero;fill:rgb(100%,84.3%,0%);fill-opacity:1;" d="M 39.46875 247.363281 C 39.46875 253.121094 30.832031 253.121094 30.832031 247.363281 C 30.832031 241.605469 39.46875 241.605469 39.46875 247.363281 "/>
<path style=" stroke:none;fill-rule:nonzero;fill:rgb(100%,84.3%,0%);fill-opacity:1;" d="M 185.433594 460.695312 C 185.433594 466.453125 176.796875 466.453125 176.796875 460.695312 C 176.796875 454.9375 185.433594 454.9375 185.433594 460.695312 "/>
<path style=" stroke:none;fill-rule:nonzero;fill:rgb(100%,84.3%,0%);fill-opacity:1;" d="M 39.46875 186.902344 C 39.46875 192.660156 30.832031 192.660156 30.832031 186.902344 C 30.832031 181.144531 39.46875 181.144531 39.46875 186.902344 "/>
<path style=" stroke:none;fill-rule:nonzero;fill:rgb(100%,84.3%,0%);fill-opacity:1;" d="M 256.257812 460.695312 C 256.257812 466.453125 247.621094 466.453125 247.621094 460.695312 C 247.621094 454.9375 256.257812 454.9375 256.257812 460.695312 "/>
<path style=" stroke:none;fill-rule:nonzero;fill:rgb(100%,84.3%,0%);fill-opacity:1;" d="M 237.257812 460.695312 C 237.257812 466.453125 228.621094 466.453125 228.621094 460.695312 C 228.621094 454.9375 237.257812 454.9375 237.257812 460.695312 "/>
<path style=" stroke:none;fill-rule:nonzero;fill:rgb(100%,84.3%,0%);fill-opacity:1;" d="M 286.488281 85.851562 C 286.488281 91.609375 277.851562 91.609375 277.851562 85.851562 C 277.851562 80.09375 286.488281 80.09375 286.488281 85.851562 "/>
<path style=" stroke:none;fill-rule:nonzero;fill:rgb(100%,84.3%,0%);fill-opacity:1;" d="M 226.03125 51.304688 C 226.03125 57.0625 217.390625 57.0625 217.390625 51.304688 C 217.390625 45.546875 226.03125 45.546875 226.03125 51.304688 "/>
<path style=" stroke:none;fill-rule:nonzero;fill:rgb(100%,84.3%,0%);fill-opacity:1;" d="M 217.390625 51.304688 C 217.390625 57.0625 208.753906 57.0625 208.753906 51.304688 C 208.753906 45.546875 217.390625 45.546875 217.390625 51.304688 "/>
<path style=" stroke:none;fill-rule:nonzero;fill:rgb(100%,84.3%,0%);fill-opacity:1;" d="M 287.351562 352.734375 C 287.351562 358.492188 278.714844 358.492188 278.714844 352.734375 C 278.714844 346.976562 287.351562 346.976562 287.351562 352.734375 "/>
<path style=" stroke:none;fill-rule:nonzero;fill:rgb(100%,84.3%,0%);fill-opacity:1;" d="M 191.480469 59.941406 C 191.480469 65.699219 182.84375 65.699219 182.84375 59.941406 C 182.84375 54.183594 191.480469 54.183594 191.480469 59.941406 "/>
<path style=" stroke:none;fill-rule:nonzero;fill:rgb(100%,84.3%,0%);fill-opacity:1;" d="M 286.488281 94.488281 C 286.488281 100.246094 277.851562 100.246094 277.851562 94.488281 C 277.851562 88.730469 286.488281 88.730469 286.488281 94.488281 "/>
<path style=" stroke:none;fill-rule:nonzero;fill:rgb(100%,84.3%,0%);fill-opacity:1;" d="M 283.035156 403.398438 C 283.035156 409.15625 274.398438 409.15625 274.398438 403.398438 C 274.398438 397.640625 283.035156 397.640625 283.035156 403.398438 "/>
<path style=" stroke:none;fill-rule:nonzero;fill:rgb(100%,84.3%,0%);fill-opacity:1;" d="M 41.199219 452.058594 C 41.199219 457.816406 32.5625 457.816406 32.5625 452.058594 C 32.5625 446.300781 41.199219 446.300781 41.199219 452.058594 "/>
<path style=" stroke:none;fill-rule:nonzero;fill:rgb(100%,84.3%,0%);fill-opacity:1;" d="M 277.851562 51.304688 C 277.851562 57.0625 269.214844 57.0625 269.214844 51.304688 C 269.214844 45.546875 277.851562 45.546875 277.851562 51.304688 "/>
<path style=" stroke:none;fill-rule:nonzero;fill:rgb(100%,84.3%,0%);fill-opacity:1;" d="M 67.109375 460.695312 C 67.109375 466.453125 58.472656 466.453125 58.472656 460.695312 C 58.472656 454.9375 67.109375 454.9375 67.109375 460.695312 "/>
<path style=" stroke:none;fill-rule:nonzero;fill:rgb(100%,84.3%,0%);fill-opacity:1;" d="M 286.488281 59.941406 C 286.488281 65.699219 277.851562 65.699219 277.851562 59.941406 C 277.851562 54.183594 286.488281 54.183594 286.488281 59.941406 "/>
<path style=" stroke:none;fill-rule:nonzero;fill:rgb(100%,84.3%,0%);fill-opacity:1;" d="M 148.296875 51.304688 C 148.296875 57.0625 139.660156 57.0625 139.660156 51.304688 C 139.660156 45.546875 148.296875 45.546875 148.296875 51.304688 "/>
<path style=" stroke:none;fill-rule:nonzero;fill:rgb(100%,84.3%,0%);fill-opacity:1;" d="M 278.714844 410.878906 C 278.714844 416.636719 270.078125 416.636719 270.078125 410.878906 C 270.078125 405.121094 278.714844 405.121094 278.714844 410.878906 "/>
<path style=" stroke:none;fill-rule:nonzero;fill:rgb(100%,84.3%,0%);fill-opacity:1;" d="M 286.488281 103.125 C 286.488281 108.882812 277.851562 108.882812 277.851562 103.125 C 277.851562 97.367188 286.488281 97.367188 286.488281 103.125 "/>
<path style=" stroke:none;fill-rule:nonzero;fill:rgb(100%,84.3%,0%);fill-opacity:1;" d="M 274.398438 418.359375 C 274.398438 424.117188 265.757812 424.117188 265.757812 418.359375 C 265.757812 412.601562 274.398438 412.601562 274.398438 418.359375 "/>
<path style=" stroke:none;fill-rule:nonzero;fill:rgb(100%,84.3%,0%);fill-opacity:1;" d="M 287.351562 387.28125 C 287.351562 393.039062 278.714844 393.039062 278.714844 387.28125 C 278.714844 381.523438 287.351562 381.523438 287.351562 387.28125 "/>
<path style=" stroke:none;fill-rule:nonzero;fill:rgb(100%,84.3%,0%);fill-opacity:1;" d="M 265.757812 418.359375 C 265.757812 424.117188 257.121094 424.117188 257.121094 418.359375 C 257.121094 412.601562 265.757812 412.601562 265.757812 418.359375 "/>
<path style=" stroke:none;fill-rule:nonzero;fill:rgb(100%,84.3%,0%);fill-opacity:1;" d="M 286.488281 111.761719 C 286.488281 117.519531 277.851562 117.519531 277.851562 111.761719 C 277.851562 106.003906 286.488281 106.003906 286.488281 111.761719 "/>
<path style=" stroke:none;fill-rule:nonzero;fill:rgb(100%,84.3%,0%);fill-opacity:1;" d="M 287.351562 370.007812 C 287.351562 375.765625 278.714844 375.765625 278.714844 370.007812 C 278.714844 364.25 287.351562 364.25 287.351562 370.007812 "/>
<path style=" stroke:none;fill-rule:nonzero;fill:rgb(100%,84.3%,0%);fill-opacity:1;" d="M 122.386719 51.304688 C 122.386719 57.0625 113.75 57.0625 113.75 51.304688 C 113.75 45.546875 122.386719 45.546875 122.386719 51.304688 "/>
<path style=" stroke:none;fill-rule:nonzero;fill:rgb(100%,84.3%,0%);fill-opacity:1;" d="M 287.351562 264.636719 C 287.351562 270.394531 278.714844 270.394531 278.714844 264.636719 C 278.714844 258.878906 287.351562 258.878906 287.351562 264.636719 "/>
<path style=" stroke:none;fill-rule:nonzero;fill:rgb(100%,84.3%,0%);fill-opacity:1;" d="M 211.347656 460.695312 C 211.347656 466.453125 202.710938 466.453125 202.710938 460.695312 C 202.710938 454.9375 211.347656 454.9375 211.347656 460.695312 "/>
<path style=" stroke:none;fill-rule:nonzero;fill:rgb(100%,84.3%,0%);fill-opacity:1;" d="M 140.214844 452.058594 C 140.214844 457.816406 131.578125 457.816406 131.578125 452.058594 C 131.578125 446.300781 140.214844 446.300781 140.214844 452.058594 "/>
<path style=" stroke:none;fill-rule:nonzero;fill:rgb(100%,84.3%,0%);fill-opacity:1;" d="M 58.472656 460.695312 C 58.472656 466.453125 49.835938 466.453125 49.835938 460.695312 C 49.835938 454.9375 58.472656 454.9375 58.472656 460.695312 "/>
<path style=" stroke:none;fill-rule:nonzero;fill:rgb(100%,84.3%,0%);fill-opacity:1;" d="M 39.46875 129.035156 C 39.46875 134.792969 30.832031 134.792969 30.832031 129.035156 C 30.832031 123.277344 39.46875 123.277344 39.46875 129.035156 "/>
<path style=" stroke:none;fill-rule:nonzero;fill:rgb(100%,84.3%,0%);fill-opacity:1;" d="M 275.554688 194.695312 C 275.554688 200.453125 266.917969 200.453125 266.917969 194.695312 C 266.917969 188.9375 275.554688 188.9375 275.554688 194.695312 "/>
<path style=" stroke:none;fill-rule:nonzero;fill:rgb(100%,84.3%,0%);fill-opacity:1;" d="M 161.839844 452.058594 C 161.839844 457.816406 153.203125 457.816406 153.203125 452.058594 C 153.203125 446.300781 161.839844 446.300781 161.839844 452.058594 "/>
<path style=" stroke:none;fill-rule:nonzero;fill:rgb(100%,84.3%,0%);fill-opacity:1;" d="M 43.789062 121.558594 C 43.789062 127.316406 35.152344 127.316406 35.152344 121.558594 C 35.152344 115.800781 43.789062 115.800781 43.789062 121.558594 "/>
<path style=" stroke:none;fill-rule:nonzero;fill:rgb(100%,84.3%,0%);fill-opacity:1;" d="M 286.488281 444.578125 C 286.488281 450.339844 277.851562 450.339844 277.851562 444.578125 C 277.851562 438.820312 286.488281 438.820312 286.488281 444.578125 "/>
<path style=" stroke:none;fill-rule:nonzero;fill:rgb(100%,84.3%,0%);fill-opacity:1;" d="M 283.035156 345.253906 C 283.035156 351.011719 274.398438 351.011719 274.398438 345.253906 C 274.398438 339.496094 283.035156 339.496094 283.035156 345.253906 "/>
<path style=" stroke:none;fill-rule:nonzero;fill:rgb(100%,84.3%,0%);fill-opacity:1;" d="M 48.109375 114.078125 C 48.109375 119.835938 39.46875 119.835938 39.46875 114.078125 C 39.46875 108.320312 48.109375 108.320312 48.109375 114.078125 "/>
<path style=" stroke:none;fill-rule:nonzero;fill:rgb(100%,84.3%,0%);fill-opacity:1;" d="M 253.097656 55.621094 C 253.097656 61.378906 244.460938 61.378906 244.460938 55.621094 C 244.460938 49.863281 253.097656 49.863281 253.097656 55.621094 "/>
<path style=" stroke:none;fill-rule:nonzero;fill:rgb(100%,84.3%,0%);fill-opacity:1;" d="M 40.628906 109.757812 C 40.628906 115.515625 31.992188 115.515625 31.992188 109.757812 C 31.992188 104 40.628906 104 40.628906 109.757812 "/>
<path style=" stroke:none;fill-rule:nonzero;fill:rgb(100%,84.3%,0%);fill-opacity:1;" d="M 268.074219 190.375 C 268.074219 196.132812 259.4375 196.132812 259.4375 190.375 C 259.4375 184.617188 268.074219 184.617188 268.074219 190.375 "/>
<path style=" stroke:none;fill-rule:nonzero;fill:rgb(100%,84.3%,0%);fill-opacity:1;" d="M 287.351562 337.773438 C 287.351562 343.53125 278.714844 343.53125 278.714844 337.773438 C 278.714844 332.015625 287.351562 332.015625 287.351562 337.773438 "/>
<path style=" stroke:none;fill-rule:nonzero;fill:rgb(100%,84.3%,0%);fill-opacity:1;" d="M 157.519531 459.539062 C 157.519531 465.296875 148.882812 465.296875 148.882812 459.539062 C 148.882812 453.78125 157.519531 453.78125 157.519531 459.539062 "/>
<path style=" stroke:none;fill-rule:nonzero;fill:rgb(100%,84.3%,0%);fill-opacity:1;" d="M 268.074219 181.738281 C 268.074219 187.496094 259.4375 187.496094 259.4375 181.738281 C 259.4375 175.980469 268.074219 175.980469 268.074219 181.738281 "/>
<path style=" stroke:none;fill-rule:nonzero;fill:rgb(100%,84.3%,0%);fill-opacity:1;" d="M 269.214844 51.304688 C 269.214844 57.0625 260.578125 57.0625 260.578125 51.304688 C 260.578125 45.546875 269.214844 45.546875 269.214844 51.304688 "/>
<path style=" stroke:none;fill-rule:nonzero;fill:rgb(100%,84.3%,0%);fill-opacity:1;" d="M 244.738281 456.378906 C 244.738281 462.136719 236.101562 462.136719 236.101562 456.378906 C 236.101562 450.621094 244.738281 450.621094 244.738281 456.378906 "/>
<path style=" stroke:none;fill-rule:nonzero;fill:rgb(100%,84.3%,0%);fill-opacity:1;" d="M 156.933594 51.304688 C 156.933594 57.0625 148.296875 57.0625 148.296875 51.304688 C 148.296875 45.546875 156.933594 45.546875 156.933594 51.304688 "/>
<path style=" stroke:none;fill-rule:nonzero;fill:rgb(100%,84.3%,0%);fill-opacity:1;" d="M 39.46875 68.578125 C 39.46875 74.335938 30.832031 74.335938 30.832031 68.578125 C 30.832031 62.820312 39.46875 62.820312 39.46875 68.578125 "/>
<path style=" stroke:none;fill-rule:nonzero;fill:rgb(100%,84.3%,0%);fill-opacity:1;" d="M 154.359375 447.742188 C 154.359375 453.5 145.722656 453.5 145.722656 447.742188 C 145.722656 441.984375 154.359375 441.984375 154.359375 447.742188 "/>
<path style=" stroke:none;fill-rule:nonzero;fill:rgb(100%,84.3%,0%);fill-opacity:1;" d="M 287.351562 329.136719 C 287.351562 334.894531 278.714844 334.894531 278.714844 329.136719 C 278.714844 323.378906 287.351562 323.378906 287.351562 329.136719 "/>
<path style=" stroke:none;fill-rule:nonzero;fill:rgb(100%,84.3%,0%);fill-opacity:1;" d="M 268.074219 173.101562 C 268.074219 178.859375 259.4375 178.859375 259.4375 173.101562 C 259.4375 167.34375 268.074219 167.34375 268.074219 173.101562 "/>
<path style=" stroke:none;fill-rule:nonzero;fill:rgb(100%,84.3%,0%);fill-opacity:1;" d="M 87.839844 51.304688 C 87.839844 57.0625 79.203125 57.0625 79.203125 51.304688 C 79.203125 45.546875 87.839844 45.546875 87.839844 51.304688 "/>
<path style=" stroke:none;fill-rule:nonzero;fill:rgb(100%,84.3%,0%);fill-opacity:1;" d="M 39.46875 221.453125 C 39.46875 227.210938 30.832031 227.210938 30.832031 221.453125 C 30.832031 215.695312 39.46875 215.695312 39.46875 221.453125 "/>
<path style=" stroke:none;fill-rule:nonzero;fill:rgb(100%,84.3%,0%);fill-opacity:1;" d="M 286.488281 120.398438 C 286.488281 126.15625 277.851562 126.15625 277.851562 120.398438 C 277.851562 114.640625 286.488281 114.640625 286.488281 120.398438 "/>
<path style=" stroke:none;fill-rule:nonzero;fill:rgb(100%,84.3%,0%);fill-opacity:1;" d="M 287.351562 221.453125 C 287.351562 227.210938 278.714844 227.210938 278.714844 221.453125 C 278.714844 215.695312 287.351562 215.695312 287.351562 221.453125 "/>
<path style=" stroke:none;fill-rule:nonzero;fill:rgb(100%,84.3%,0%);fill-opacity:1;" d="M 260.578125 51.304688 C 260.578125 57.0625 251.941406 57.0625 251.941406 51.304688 C 251.941406 45.546875 260.578125 45.546875 260.578125 51.304688 "/>
<path style=" stroke:none;fill-rule:nonzero;fill:rgb(100%,84.3%,0%);fill-opacity:1;" d="M 287.351562 320.5 C 287.351562 326.257812 278.714844 326.257812 278.714844 320.5 C 278.714844 314.742188 287.351562 314.742188 287.351562 320.5 "/>
<path style=" stroke:none;fill-rule:nonzero;fill:rgb(100%,84.3%,0%);fill-opacity:1;" d="M 79.203125 51.304688 C 79.203125 57.0625 70.566406 57.0625 70.566406 51.304688 C 70.566406 45.546875 79.203125 45.546875 79.203125 51.304688 "/>
<path style=" stroke:none;fill-rule:nonzero;fill:rgb(100%,84.3%,0%);fill-opacity:1;" d="M 286.488281 68.578125 C 286.488281 74.335938 277.851562 74.335938 277.851562 68.578125 C 277.851562 62.820312 286.488281 62.820312 286.488281 68.578125 "/>
<path style=" stroke:none;fill-rule:nonzero;fill:rgb(100%,84.3%,0%);fill-opacity:1;" d="M 39.46875 230.089844 C 39.46875 235.847656 30.832031 235.847656 30.832031 230.089844 C 30.832031 224.332031 39.46875 224.332031 39.46875 230.089844 "/>
<path style=" stroke:none;fill-rule:nonzero;fill:rgb(100%,84.3%,0%);fill-opacity:1;" d="M 287.351562 395.917969 C 287.351562 401.675781 278.714844 401.675781 278.714844 395.917969 C 278.714844 390.160156 287.351562 390.160156 287.351562 395.917969 "/>
<path style=" stroke:none;fill-rule:nonzero;fill:rgb(100%,84.3%,0%);fill-opacity:1;" d="M 287.351562 273.273438 C 287.351562 279.03125 278.714844 279.03125 278.714844 273.273438 C 278.714844 267.515625 287.351562 267.515625 287.351562 273.273438 "/>
<path style=" stroke:none;fill-rule:nonzero;fill:rgb(100%,84.3%,0%);fill-opacity:1;" d="M 286.488281 77.214844 C 286.488281 82.972656 277.851562 82.972656 277.851562 77.214844 C 277.851562 71.457031 286.488281 71.457031 286.488281 77.214844 "/>
<path style=" stroke:none;fill-rule:nonzero;fill:rgb(100%,84.3%,0%);fill-opacity:1;" d="M 70.566406 51.304688 C 70.566406 57.0625 61.925781 57.0625 61.925781 51.304688 C 61.925781 45.546875 70.566406 45.546875 70.566406 51.304688 "/>
<path style=" stroke:none;fill-rule:nonzero;fill:rgb(100%,84.3%,0%);fill-opacity:1;" d="M 113.75 51.304688 C 113.75 57.0625 105.113281 57.0625 105.113281 51.304688 C 105.113281 45.546875 113.75 45.546875 113.75 51.304688 "/>
<path style=" stroke:none;fill-rule:nonzero;fill:rgb(100%,84.3%,0%);fill-opacity:1;" d="M 39.46875 83.535156 C 39.46875 89.296875 30.832031 89.296875 30.832031 83.535156 C 30.832031 77.777344 39.46875 77.777344 39.46875 83.535156 "/>
<path style=" stroke:none;fill-rule:nonzero;fill:rgb(100%,84.3%,0%);fill-opacity:1;" d="M 84.382812 460.695312 C 84.382812 466.453125 75.746094 466.453125 75.746094 460.695312 C 75.746094 454.9375 84.382812 454.9375 84.382812 460.695312 "/>
<path style=" stroke:none;fill-rule:nonzero;fill:rgb(100%,84.3%,0%);fill-opacity:1;" d="M 101.65625 460.695312 C 101.65625 466.453125 93.019531 466.453125 93.019531 460.695312 C 93.019531 454.9375 101.65625 454.9375 101.65625 460.695312 "/>
<path style=" stroke:none;fill-rule:nonzero;fill:rgb(100%,84.3%,0%);fill-opacity:1;" d="M 63.085938 55.621094 C 63.085938 61.378906 54.449219 61.378906 54.449219 55.621094 C 54.449219 49.863281 63.085938 49.863281 63.085938 55.621094 "/>
<path style=" stroke:none;fill-rule:nonzero;fill:rgb(100%,84.3%,0%);fill-opacity:1;" d="M 39.46875 238.726562 C 39.46875 244.484375 30.832031 244.484375 30.832031 238.726562 C 30.832031 232.96875 39.46875 232.96875 39.46875 238.726562 "/>
<path style=" stroke:none;fill-rule:nonzero;fill:rgb(100%,84.3%,0%);fill-opacity:1;" d="M 110.292969 460.695312 C 110.292969 466.453125 101.65625 466.453125 101.65625 460.695312 C 101.65625 454.9375 110.292969 454.9375 110.292969 460.695312 "/>
<path style=" stroke:none;fill-rule:nonzero;fill:rgb(100%,84.3%,0%);fill-opacity:1;" d="M 277.851562 453.21875 C 277.851562 458.976562 269.214844 458.976562 269.214844 453.21875 C 269.214844 447.460938 277.851562 447.460938 277.851562 453.21875 "/>
<path style=" stroke:none;fill-rule:nonzero;fill:rgb(100%,84.3%,0%);fill-opacity:1;" d="M 182.84375 59.941406 C 182.84375 65.699219 174.207031 65.699219 174.207031 59.941406 C 174.207031 54.183594 182.84375 54.183594 182.84375 59.941406 "/>
<path style=" stroke:none;fill-rule:nonzero;fill:rgb(100%,84.3%,0%);fill-opacity:1;" d="M 150.039062 455.222656 C 150.039062 460.980469 141.402344 460.980469 141.402344 455.222656 C 141.402344 449.464844 150.039062 449.464844 150.039062 455.222656 "/>
<path style=" stroke:none;fill-rule:nonzero;fill:rgb(100%,84.3%,0%);fill-opacity:1;" d="M 286.488281 129.035156 C 286.488281 134.796875 277.851562 134.796875 277.851562 129.035156 C 277.851562 123.277344 286.488281 123.277344 286.488281 129.035156 "/>
<path style=" stroke:none;fill-rule:nonzero;fill:rgb(100%,84.3%,0%);fill-opacity:1;" d="M 268.074219 164.464844 C 268.074219 170.222656 259.4375 170.222656 259.4375 164.464844 C 259.4375 158.707031 268.074219 158.707031 268.074219 164.464844 "/>
<path style=" stroke:none;fill-rule:nonzero;fill:rgb(100%,84.3%,0%);fill-opacity:1;" d="M 279.871094 243.046875 C 279.871094 248.804688 271.234375 248.804688 271.234375 243.046875 C 271.234375 237.285156 279.871094 237.285156 279.871094 243.046875 "/>
<path style=" stroke:none;fill-rule:nonzero;fill:rgb(100%,84.3%,0%);fill-opacity:1;" d="M 268.074219 155.828125 C 268.074219 161.585938 259.4375 161.585938 259.4375 155.828125 C 259.4375 150.070312 268.074219 150.070312 268.074219 155.828125 "/>
<path style=" stroke:none;fill-rule:nonzero;fill:rgb(100%,84.3%,0%);fill-opacity:1;" d="M 49.835938 460.695312 C 49.835938 466.453125 41.199219 466.453125 41.199219 460.695312 C 41.199219 454.9375 49.835938 454.9375 49.835938 460.695312 "/>
<path style=" stroke:none;fill-rule:nonzero;fill:rgb(100%,84.3%,0%);fill-opacity:1;" d="M 39.46875 256 C 39.46875 261.757812 30.832031 261.757812 30.832031 256 C 30.832031 250.242188 39.46875 250.242188 39.46875 256 "/>
<path style=" stroke:none;fill-rule:nonzero;fill:rgb(100%,84.3%,0%);fill-opacity:1;" d="M 132.734375 456.378906 C 132.734375 462.136719 124.097656 462.136719 124.097656 456.378906 C 124.097656 450.621094 132.734375 450.621094 132.734375 456.378906 "/>
<path style=" stroke:none;fill-rule:nonzero;fill:rgb(100%,84.3%,0%);fill-opacity:1;" d="M 39.46875 59.941406 C 39.46875 65.699219 30.832031 65.699219 30.832031 59.941406 C 30.832031 54.183594 39.46875 54.183594 39.46875 59.941406 "/>
<path style=" stroke:none;fill-rule:nonzero;fill:rgb(100%,84.3%,0%);fill-opacity:1;" d="M 283.035156 213.972656 C 283.035156 219.730469 274.398438 219.730469 274.398438 213.972656 C 274.398438 208.214844 283.035156 208.214844 283.035156 213.972656 "/>
<path style=" stroke:none;fill-rule:nonzero;fill:rgb(100%,84.3%,0%);fill-opacity:1;" d="M 202.710938 460.695312 C 202.710938 466.453125 194.074219 466.453125 194.074219 460.695312 C 194.074219 454.9375 202.710938 454.9375 202.710938 460.695312 "/>
<path style=" stroke:none;fill-rule:nonzero;fill:rgb(100%,84.3%,0%);fill-opacity:1;" d="M 256.257812 452.058594 C 256.257812 457.816406 247.621094 457.816406 247.621094 452.058594 C 247.621094 446.300781 256.257812 446.300781 256.257812 452.058594 "/>
<path style=" stroke:none;fill-rule:nonzero;fill:rgb(100%,84.3%,0%);fill-opacity:1;" d="M 243.304688 51.304688 C 243.304688 57.0625 234.667969 57.0625 234.667969 51.304688 C 234.667969 45.546875 243.304688 45.546875 243.304688 51.304688 "/>
<path style=" stroke:none;fill-rule:nonzero;fill:rgb(100%,84.3%,0%);fill-opacity:1;" d="M 279.871094 260.320312 C 279.871094 266.078125 271.234375 266.078125 271.234375 260.320312 C 271.234375 254.5625 279.871094 254.5625 279.871094 260.320312 "/>
<path style=" stroke:none;fill-rule:nonzero;fill:rgb(100%,84.3%,0%);fill-opacity:1;" d="M 282.171875 437.101562 C 282.171875 442.859375 273.535156 442.859375 273.535156 437.101562 C 273.535156 431.34375 282.171875 431.34375 282.171875 437.101562 "/>
<path style=" stroke:none;fill-rule:nonzero;fill:rgb(100%,84.3%,0%);fill-opacity:1;" d="M 200.117188 59.941406 C 200.117188 65.699219 191.480469 65.699219 191.480469 59.941406 C 191.480469 54.183594 200.117188 54.183594 200.117188 59.941406 "/>
<path style=" stroke:none;fill-rule:nonzero;fill:rgb(100%,84.3%,0%);fill-opacity:1;" d="M 169.320312 456.378906 C 169.320312 462.136719 160.683594 462.136719 160.683594 456.378906 C 160.683594 450.621094 169.320312 450.621094 169.320312 456.378906 "/>
<path style=" stroke:none;fill-rule:nonzero;fill:rgb(100%,84.3%,0%);fill-opacity:1;" d="M 39.46875 160.992188 C 39.46875 166.75 30.832031 166.75 30.832031 160.992188 C 30.832031 155.234375 39.46875 155.234375 39.46875 160.992188 "/>
<path style=" stroke:none;fill-rule:nonzero;fill:rgb(100%,84.3%,0%);fill-opacity:1;" d="M 279.871094 251.683594 C 279.871094 257.441406 271.234375 257.441406 271.234375 251.683594 C 271.234375 245.925781 279.871094 245.925781 279.871094 251.683594 "/>
<path style=" stroke:none;fill-rule:nonzero;fill:rgb(100%,84.3%,0%);fill-opacity:1;" d="M 41.199219 460.695312 C 41.199219 466.453125 32.5625 466.453125 32.5625 460.695312 C 32.5625 454.9375 41.199219 454.9375 41.199219 460.695312 "/>
<path style=" stroke:none;fill-rule:nonzero;fill:rgb(100%,84.3%,0%);fill-opacity:1;" d="M 287.351562 206.492188 C 287.351562 212.25 278.714844 212.25 278.714844 206.492188 C 278.714844 200.734375 287.351562 200.734375 287.351562 206.492188 "/>
<path style=" stroke:none;fill-rule:nonzero;fill:rgb(100%,84.3%,0%);fill-opacity:1;" d="M 275.554688 186.058594 C 275.554688 191.816406 266.917969 191.816406 266.917969 186.058594 C 266.917969 180.300781 275.554688 180.300781 275.554688 186.058594 "/>
<path style=" stroke:none;fill-rule:nonzero;fill:rgb(100%,84.3%,0%);fill-opacity:1;" d="M 270.078125 410.878906 C 270.078125 416.636719 261.441406 416.636719 261.441406 410.878906 C 261.441406 405.121094 270.078125 405.121094 270.078125 410.878906 "/>
<path style=" stroke:none;fill-rule:nonzero;fill:rgb(100%,84.3%,0%);fill-opacity:1;" d="M 283.035156 280.753906 C 283.035156 286.511719 274.398438 286.511719 274.398438 280.753906 C 274.398438 274.996094 283.035156 274.996094 283.035156 280.753906 "/>
<path style=" stroke:none;fill-rule:nonzero;fill:rgb(100%,84.3%,0%);fill-opacity:1;" d="M 286.488281 137.675781 C 286.488281 143.433594 277.851562 143.433594 277.851562 137.675781 C 277.851562 131.914062 286.488281 131.914062 286.488281 137.675781 "/>
<path style=" stroke:none;fill-rule:nonzero;fill:rgb(100%,84.3%,0%);fill-opacity:1;" d="M 287.351562 311.863281 C 287.351562 317.621094 278.714844 317.621094 278.714844 311.863281 C 278.714844 306.105469 287.351562 306.105469 287.351562 311.863281 "/>
<path style=" stroke:none;fill-rule:nonzero;fill:rgb(100%,84.3%,0%);fill-opacity:1;" d="M 279.871094 234.40625 C 279.871094 240.164062 271.234375 240.164062 271.234375 234.40625 C 271.234375 228.648438 279.871094 228.648438 279.871094 234.40625 "/>
<path style=" stroke:none;fill-rule:nonzero;fill:rgb(100%,84.3%,0%);fill-opacity:1;" d="M 93.019531 460.695312 C 93.019531 466.453125 84.382812 466.453125 84.382812 460.695312 C 84.382812 454.9375 93.019531 454.9375 93.019531 460.695312 "/>
<path style=" stroke:none;fill-rule:nonzero;fill:rgb(100%,84.3%,0%);fill-opacity:1;" d="M 39.46875 212.816406 C 39.46875 218.574219 30.832031 218.574219 30.832031 212.816406 C 30.832031 207.058594 39.46875 207.058594 39.46875 212.816406 "/>
<path style=" stroke:none;fill-rule:nonzero;fill:rgb(100%,84.3%,0%);fill-opacity:1;" d="M 39.46875 195.539062 C 39.46875 201.300781 30.832031 201.300781 30.832031 195.539062 C 30.832031 189.78125 39.46875 189.78125 39.46875 195.539062 "/>
<path style=" stroke:none;fill-rule:nonzero;fill:rgb(100%,84.3%,0%);fill-opacity:1;" d="M 165.570312 51.304688 C 165.570312 57.0625 156.933594 57.0625 156.933594 51.304688 C 156.933594 45.546875 165.570312 45.546875 165.570312 51.304688 "/>
<path style=" stroke:none;fill-rule:nonzero;fill:rgb(100%,84.3%,0%);fill-opacity:1;" d="M 105.113281 51.304688 C 105.113281 57.0625 96.472656 57.0625 96.472656 51.304688 C 96.472656 45.546875 105.113281 45.546875 105.113281 51.304688 "/>
<path style=" stroke:none;fill-rule:nonzero;fill:rgb(100%,84.3%,0%);fill-opacity:1;" d="M 259.4375 173.101562 C 259.4375 178.859375 250.800781 178.859375 250.800781 173.101562 C 250.800781 167.34375 259.4375 167.34375 259.4375 173.101562 "/>
<path style=" stroke:none;fill-rule:nonzero;fill:rgb(100%,84.3%,0%);fill-opacity:1;" d="M 269.214844 453.21875 C 269.214844 458.976562 260.578125 458.976562 260.578125 453.21875 C 260.578125 447.460938 269.214844 447.460938 269.214844 453.21875 "/>
<path style=" stroke:none;fill-rule:nonzero;fill:rgb(100%,84.3%,0%);fill-opacity:1;" d="M 287.351562 361.371094 C 287.351562 367.128906 278.714844 367.128906 278.714844 361.371094 C 278.714844 355.613281 287.351562 355.613281 287.351562 361.371094 "/>
<path style=" stroke:none;fill-rule:nonzero;fill:rgb(100%,84.3%,0%);fill-opacity:1;" d="M 279.871094 382.964844 C 279.871094 388.722656 271.234375 388.722656 271.234375 382.964844 C 271.234375 377.207031 279.871094 377.207031 279.871094 382.964844 "/>
<path style=" stroke:none;fill-rule:nonzero;fill:rgb(100%,84.3%,0%);fill-opacity:1;" d="M 208.753906 51.304688 C 208.753906 57.0625 200.117188 57.0625 200.117188 51.304688 C 200.117188 45.546875 208.753906 45.546875 208.753906 51.304688 "/>
</g>
</svg>
