<?xml version="1.0" encoding="UTF-8"?>
<svg xmlns="http://www.w3.org/2000/svg" xmlns:xlink="http://www.w3.org/1999/xlink" width="512pt" height="512pt" viewBox="0 0 512 512" version="1.1">
<g id="surface411">
<path style=" stroke:none;fill-rule:nonzero;fill:rgb(26.7%,26.7%,26.7%);fill-opacity:1;" d="M 202.867188 0 L 309.132812 0 L 309.132812 512 L 202.867188 512 Z M 202.867188 0 "/>
<path style=" stroke:none;fill-rule:nonzero;fill:rgb(19.2%,38.8%,66.7%);fill-opacity:1;" d="M 211.722656 42.667969 L 300.277344 42.667969 L 300.277344 469.332031 L 211.722656 469.332031 Z M 211.722656 42.667969 "/>
<path style=" stroke:none;fill-rule:nonzero;fill:rgb(90.6%,14.9%,14.9%);fill-opacity:1;" d="M 315.804688 -19.4375 C 315.804688 5.96875 295.207031 26.566406 269.800781 26.566406 C 244.394531 26.566406 223.800781 5.96875 223.800781 -19.4375 C 223.800781 -44.84375 244.394531 -65.4375 269.800781 -65.4375 C 295.207031 -65.4375 315.804688 -44.84375 315.804688 -19.4375 "/>
<path style=" stroke:none;fill-rule:nonzero;fill:rgb(90.6%,14.9%,14.9%);fill-opacity:1;" d="M 468.757812 515.910156 C 468.757812 519.722656 465.667969 522.808594 461.859375 522.808594 C 458.046875 522.808594 454.957031 519.722656 454.957031 515.910156 C 454.957031 512.097656 458.046875 509.007812 461.859375 509.007812 C 465.667969 509.007812 468.757812 512.097656 468.757812 515.910156 "/>
<path style=" stroke:none;fill-rule:nonzero;fill:rgb(90.6%,14.9%,14.9%);fill-opacity:1;" d="M 495.210938 208.273438 C 495.210938 212.71875 491.605469 216.324219 487.160156 216.324219 C 482.714844 216.324219 479.109375 212.71875 479.109375 208.273438 C 479.109375 203.828125 482.714844 200.222656 487.160156 200.222656 C 491.605469 200.222656 495.210938 203.828125 495.210938 208.273438 "/>
<path style=" stroke:none;fill-rule:nonzero;fill:rgb(90.6%,14.9%,14.9%);fill-opacity:1;" d="M 418.730469 293.949219 C 418.730469 307.289062 407.917969 318.101562 394.578125 318.101562 C 381.242188 318.101562 370.429688 307.289062 370.429688 293.949219 C 370.429688 280.613281 381.242188 269.800781 394.578125 269.800781 C 407.917969 269.800781 418.730469 280.613281 418.730469 293.949219 "/>
<path style=" stroke:none;fill-rule:nonzero;fill:rgb(90.6%,14.9%,14.9%);fill-opacity:1;" d="M 362.378906 145.019531 C 362.378906 150.101562 358.261719 154.222656 353.179688 154.222656 C 348.097656 154.222656 343.980469 150.101562 343.980469 145.019531 C 343.980469 139.941406 348.097656 135.820312 353.179688 135.820312 C 358.261719 135.820312 362.378906 139.941406 362.378906 145.019531 "/>
<path style=" stroke:none;fill-rule:nonzero;fill:rgb(90.6%,14.9%,14.9%);fill-opacity:1;" d="M 361.804688 302.003906 C 361.804688 306.765625 357.941406 310.628906 353.179688 310.628906 C 348.414062 310.628906 344.554688 306.765625 344.554688 302.003906 C 344.554688 297.238281 348.414062 293.375 353.179688 293.375 C 357.941406 293.375 361.804688 297.238281 361.804688 302.003906 "/>
<path style=" stroke:none;fill-rule:nonzero;fill:rgb(100%,100%,100%);fill-opacity:1;" d="M 460.707031 269.800781 C 460.707031 273.632812 454.957031 273.632812 454.957031 269.800781 C 454.957031 265.96875 460.707031 265.96875 460.707031 269.800781 "/>
<path style=" stroke:none;fill-rule:nonzero;fill:rgb(100%,100%,100%);fill-opacity:1;" d="M 448.058594 264.625 C 448.058594 268.457031 442.308594 268.457031 442.308594 264.625 C 442.308594 260.792969 448.058594 260.792969 448.058594 264.625 "/>
<path style=" stroke:none;fill-rule:nonzero;fill:rgb(100%,100%,100%);fill-opacity:1;" d="M 347.429688 396.304688 C 347.429688 400.136719 341.679688 400.136719 341.679688 396.304688 C 341.679688 392.472656 347.429688 392.472656 347.429688 396.304688 "/>
<path style=" stroke:none;fill-rule:nonzero;fill:rgb(100%,100%,100%);fill-opacity:1;" d="M 400.90625 441.730469 C 400.90625 445.566406 395.15625 445.566406 395.15625 441.730469 C 395.15625 437.898438 400.90625 437.898438 400.90625 441.730469 "/>
<path style=" stroke:none;fill-rule:nonzero;fill:rgb(100%,100%,100%);fill-opacity:1;" d="M 463.582031 39.21875 C 463.582031 43.050781 457.832031 43.050781 457.832031 39.21875 C 457.832031 35.382812 463.582031 35.382812 463.582031 39.21875 "/>
<path style=" stroke:none;fill-rule:nonzero;fill:rgb(100%,100%,100%);fill-opacity:1;" d="M 339.953125 169.746094 C 339.953125 173.582031 334.203125 173.582031 334.203125 169.746094 C 334.203125 165.914062 339.953125 165.914062 339.953125 169.746094 "/>
<path style=" stroke:none;fill-rule:nonzero;fill:rgb(100%,100%,100%);fill-opacity:1;" d="M 321.550781 436.558594 C 321.550781 440.390625 315.800781 440.390625 315.800781 436.558594 C 315.800781 432.722656 321.550781 432.722656 321.550781 436.558594 "/>
<path style=" stroke:none;fill-rule:nonzero;fill:rgb(100%,100%,100%);fill-opacity:1;" d="M 265.199219 472.207031 C 265.199219 476.042969 259.449219 476.042969 259.449219 472.207031 C 259.449219 468.375 265.199219 468.375 265.199219 472.207031 "/>
<path style=" stroke:none;fill-rule:nonzero;fill:rgb(100%,100%,100%);fill-opacity:1;" d="M 327.304688 85.792969 C 327.304688 89.625 321.554688 89.625 321.554688 85.792969 C 321.554688 81.960938 327.304688 81.960938 327.304688 85.792969 "/>
<path style=" stroke:none;fill-rule:nonzero;fill:rgb(100%,100%,100%);fill-opacity:1;" d="M 348.003906 260.601562 C 348.003906 264.433594 342.253906 264.433594 342.253906 260.601562 C 342.253906 256.765625 348.003906 256.765625 348.003906 260.601562 "/>
<path style=" stroke:none;fill-rule:nonzero;fill:rgb(100%,100%,100%);fill-opacity:1;" d="M 414.132812 93.269531 C 414.132812 97.101562 408.382812 97.101562 408.382812 93.269531 C 408.382812 89.433594 414.132812 89.433594 414.132812 93.269531 "/>
<path style=" stroke:none;fill-rule:nonzero;fill:rgb(100%,100%,100%);fill-opacity:1;" d="M 419.304688 438.28125 C 419.304688 442.117188 413.554688 442.117188 413.554688 438.28125 C 413.554688 434.449219 419.304688 434.449219 419.304688 438.28125 "/>
<path style=" stroke:none;fill-rule:nonzero;fill:rgb(100%,100%,100%);fill-opacity:1;" d="M 354.328125 503.835938 C 354.328125 507.667969 348.578125 507.667969 348.578125 503.835938 C 348.578125 500 354.328125 500 354.328125 503.835938 "/>
<path style=" stroke:none;fill-rule:nonzero;fill:rgb(100%,100%,100%);fill-opacity:1;" d="M 325.578125 16.789062 C 325.578125 20.625 319.828125 20.625 319.828125 16.789062 C 319.828125 12.957031 325.578125 12.957031 325.578125 16.789062 "/>
<path style=" stroke:none;fill-rule:nonzero;fill:rgb(100%,100%,100%);fill-opacity:1;" d="M 378.480469 200.222656 C 378.480469 204.054688 372.730469 204.054688 372.730469 200.222656 C 372.730469 196.390625 378.480469 196.390625 378.480469 200.222656 "/>
<path style=" stroke:none;fill-rule:nonzero;fill:rgb(100%,100%,100%);fill-opacity:1;" d="M 444.605469 128.921875 C 444.605469 132.753906 438.855469 132.753906 438.855469 128.921875 C 438.855469 125.085938 444.605469 125.085938 444.605469 128.921875 "/>
<path style=" stroke:none;fill-rule:nonzero;fill:rgb(100%,100%,100%);fill-opacity:1;" d="M 201.375 316.953125 C 201.375 320.785156 195.621094 320.785156 195.621094 316.953125 C 195.621094 313.117188 201.375 313.117188 201.375 316.953125 "/>
<path style=" stroke:none;fill-rule:nonzero;fill:rgb(100%,100%,100%);fill-opacity:1;" d="M 162.847656 140.421875 C 162.847656 144.253906 157.097656 144.253906 157.097656 140.421875 C 157.097656 136.585938 162.847656 136.585938 162.847656 140.421875 "/>
<path style=" stroke:none;fill-rule:nonzero;fill:rgb(100%,100%,100%);fill-opacity:1;" d="M 398.03125 354.328125 C 398.03125 358.164062 392.28125 358.164062 392.28125 354.328125 C 392.28125 350.496094 398.03125 350.496094 398.03125 354.328125 "/>
<path style=" stroke:none;fill-rule:nonzero;fill:rgb(100%,100%,100%);fill-opacity:1;" d="M 428.507812 402.632812 C 428.507812 406.464844 422.757812 406.464844 422.757812 402.632812 C 422.757812 398.796875 428.507812 398.796875 428.507812 402.632812 "/>
<path style=" stroke:none;fill-rule:nonzero;fill:rgb(100%,100%,100%);fill-opacity:1;" d="M 506.710938 479.683594 C 506.710938 483.515625 500.960938 483.515625 500.960938 479.683594 C 500.960938 475.851562 506.710938 475.851562 506.710938 479.683594 "/>
<path style=" stroke:none;fill-rule:nonzero;fill:rgb(100%,100%,100%);fill-opacity:1;" d="M 375.605469 444.605469 C 375.605469 448.441406 369.855469 448.441406 369.855469 444.605469 C 369.855469 440.773438 375.605469 440.773438 375.605469 444.605469 "/>
<path style=" stroke:none;fill-rule:nonzero;fill:rgb(100%,100%,100%);fill-opacity:1;" d="M 410.679688 186.421875 C 410.679688 190.253906 404.929688 190.253906 404.929688 186.421875 C 404.929688 182.589844 410.679688 182.589844 410.679688 186.421875 "/>
<path style=" stroke:none;fill-rule:nonzero;fill:rgb(100%,100%,100%);fill-opacity:1;" d="M 173.773438 212.296875 C 173.773438 216.132812 168.023438 216.132812 168.023438 212.296875 C 168.023438 208.464844 173.773438 208.464844 173.773438 212.296875 "/>
<path style=" stroke:none;fill-rule:nonzero;fill:rgb(100%,84.3%,0%);fill-opacity:1;" d="M 270.949219 463.582031 C 270.949219 467.417969 265.199219 467.417969 265.199219 463.582031 C 265.199219 459.75 270.949219 459.75 270.949219 463.582031 "/>
<path style=" stroke:none;fill-rule:nonzero;fill:rgb(100%,84.3%,0%);fill-opacity:1;" d="M 220.347656 160.546875 C 220.347656 164.378906 214.597656 164.378906 214.597656 160.546875 C 214.597656 156.710938 220.347656 156.710938 220.347656 160.546875 "/>
<path style=" stroke:none;fill-rule:nonzero;fill:rgb(100%,84.3%,0%);fill-opacity:1;" d="M 291.652344 158.246094 C 291.652344 162.078125 285.902344 162.078125 285.902344 158.246094 C 285.902344 154.414062 291.652344 154.414062 291.652344 158.246094 "/>
<path style=" stroke:none;fill-rule:nonzero;fill:rgb(100%,84.3%,0%);fill-opacity:1;" d="M 289.546875 183.351562 C 289.546875 187.183594 283.796875 187.183594 283.796875 183.351562 C 283.796875 179.519531 289.546875 179.519531 289.546875 183.351562 "/>
<path style=" stroke:none;fill-rule:nonzero;fill:rgb(100%,84.3%,0%);fill-opacity:1;" d="M 294.527344 294.332031 C 294.527344 298.164062 288.777344 298.164062 288.777344 294.332031 C 288.777344 290.496094 294.527344 290.496094 294.527344 294.332031 "/>
<path style=" stroke:none;fill-rule:nonzero;fill:rgb(100%,84.3%,0%);fill-opacity:1;" d="M 283.027344 235.699219 C 283.027344 239.535156 277.277344 239.535156 277.277344 235.699219 C 277.277344 231.867188 283.027344 231.867188 283.027344 235.699219 "/>
<path style=" stroke:none;fill-rule:nonzero;fill:rgb(100%,84.3%,0%);fill-opacity:1;" d="M 288.777344 245.660156 C 288.777344 249.496094 283.027344 249.496094 283.027344 245.660156 C 283.027344 241.828125 288.777344 241.828125 288.777344 245.660156 "/>
<path style=" stroke:none;fill-rule:nonzero;fill:rgb(100%,84.3%,0%);fill-opacity:1;" d="M 291.652344 131.796875 C 291.652344 135.628906 285.902344 135.628906 285.902344 131.796875 C 285.902344 127.960938 291.652344 127.960938 291.652344 131.796875 "/>
<path style=" stroke:none;fill-rule:nonzero;fill:rgb(100%,84.3%,0%);fill-opacity:1;" d="M 250.824219 458.601562 C 250.824219 462.4375 245.074219 462.4375 245.074219 458.601562 C 245.074219 454.769531 250.824219 454.769531 250.824219 458.601562 "/>
<path style=" stroke:none;fill-rule:nonzero;fill:rgb(100%,84.3%,0%);fill-opacity:1;" d="M 222.453125 129.691406 C 222.453125 133.523438 216.703125 133.523438 216.703125 129.691406 C 216.703125 125.855469 222.453125 125.855469 222.453125 129.691406 "/>
<path style=" stroke:none;fill-rule:nonzero;fill:rgb(100%,84.3%,0%);fill-opacity:1;" d="M 236.058594 59.917969 C 236.058594 63.75 230.308594 63.75 230.308594 59.917969 C 230.308594 56.082031 236.058594 56.082031 236.058594 59.917969 "/>
<path style=" stroke:none;fill-rule:nonzero;fill:rgb(100%,84.3%,0%);fill-opacity:1;" d="M 246.789062 437.914062 C 246.789062 441.746094 241.039062 441.746094 241.039062 437.914062 C 241.039062 434.078125 246.789062 434.078125 246.789062 437.914062 "/>
<path style=" stroke:none;fill-rule:nonzero;fill:rgb(100%,84.3%,0%);fill-opacity:1;" d="M 297.402344 80.042969 C 297.402344 83.875 291.652344 83.875 291.652344 80.042969 C 291.652344 76.210938 297.402344 76.210938 297.402344 80.042969 "/>
<path style=" stroke:none;fill-rule:nonzero;fill:rgb(100%,84.3%,0%);fill-opacity:1;" d="M 297.402344 356.054688 C 297.402344 359.886719 291.652344 359.886719 291.652344 356.054688 C 291.652344 352.21875 297.402344 352.21875 297.402344 356.054688 "/>
<path style=" stroke:none;fill-rule:nonzero;fill:rgb(100%,84.3%,0%);fill-opacity:1;" d="M 220.347656 195.046875 C 220.347656 198.882812 214.597656 198.882812 214.597656 195.046875 C 214.597656 191.214844 220.347656 191.214844 220.347656 195.046875 "/>
<path style=" stroke:none;fill-rule:nonzero;fill:rgb(100%,84.3%,0%);fill-opacity:1;" d="M 297.402344 114.546875 C 297.402344 118.378906 291.652344 118.378906 291.652344 114.546875 C 291.652344 110.710938 297.402344 110.710938 297.402344 114.546875 "/>
<path style=" stroke:none;fill-rule:nonzero;fill:rgb(100%,84.3%,0%);fill-opacity:1;" d="M 297.402344 260.601562 C 297.402344 264.433594 291.652344 264.433594 291.652344 260.601562 C 291.652344 256.765625 297.402344 256.765625 297.402344 260.601562 "/>
<path style=" stroke:none;fill-rule:nonzero;fill:rgb(100%,84.3%,0%);fill-opacity:1;" d="M 228.203125 258.863281 C 228.203125 262.699219 222.453125 262.699219 222.453125 258.863281 C 222.453125 255.03125 228.203125 255.03125 228.203125 258.863281 "/>
<path style=" stroke:none;fill-rule:nonzero;fill:rgb(100%,84.3%,0%);fill-opacity:1;" d="M 220.347656 98.835938 C 220.347656 102.667969 214.597656 102.667969 214.597656 98.835938 C 214.597656 95 220.347656 95 220.347656 98.835938 "/>
<path style=" stroke:none;fill-rule:nonzero;fill:rgb(100%,84.3%,0%);fill-opacity:1;" d="M 297.402344 175.496094 C 297.402344 179.332031 291.652344 179.332031 291.652344 175.496094 C 291.652344 171.664062 297.402344 171.664062 297.402344 175.496094 "/>
<path style=" stroke:none;fill-rule:nonzero;fill:rgb(100%,84.3%,0%);fill-opacity:1;" d="M 225.328125 463.582031 C 225.328125 467.417969 219.578125 467.417969 219.578125 463.582031 C 219.578125 459.75 225.328125 459.75 225.328125 463.582031 "/>
<path style=" stroke:none;fill-rule:nonzero;fill:rgb(100%,84.3%,0%);fill-opacity:1;" d="M 220.347656 172.046875 C 220.347656 175.878906 214.597656 175.878906 214.597656 172.046875 C 214.597656 168.214844 220.347656 168.214844 220.347656 172.046875 "/>
<path style=" stroke:none;fill-rule:nonzero;fill:rgb(100%,84.3%,0%);fill-opacity:1;" d="M 220.347656 351.453125 C 220.347656 355.289062 214.597656 355.289062 214.597656 351.453125 C 214.597656 347.621094 220.347656 347.621094 220.347656 351.453125 "/>
<path style=" stroke:none;fill-rule:nonzero;fill:rgb(100%,84.3%,0%);fill-opacity:1;" d="M 225.328125 124.710938 C 225.328125 128.542969 219.578125 128.542969 219.578125 124.710938 C 219.578125 120.875 225.328125 120.875 225.328125 124.710938 "/>
<path style=" stroke:none;fill-rule:nonzero;fill:rgb(100%,84.3%,0%);fill-opacity:1;" d="M 277.277344 219.992188 C 277.277344 223.824219 271.527344 223.824219 271.527344 219.992188 C 271.527344 216.15625 277.277344 216.15625 277.277344 219.992188 "/>
<path style=" stroke:none;fill-rule:nonzero;fill:rgb(100%,84.3%,0%);fill-opacity:1;" d="M 297.402344 131.796875 C 297.402344 135.628906 291.652344 135.628906 291.652344 131.796875 C 291.652344 127.960938 297.402344 127.960938 297.402344 131.796875 "/>
<path style=" stroke:none;fill-rule:nonzero;fill:rgb(100%,84.3%,0%);fill-opacity:1;" d="M 222.453125 146.941406 C 222.453125 150.773438 216.703125 150.773438 216.703125 146.941406 C 216.703125 143.109375 222.453125 143.109375 222.453125 146.941406 "/>
<path style=" stroke:none;fill-rule:nonzero;fill:rgb(100%,84.3%,0%);fill-opacity:1;" d="M 220.347656 166.296875 C 220.347656 170.128906 214.597656 170.128906 214.597656 166.296875 C 214.597656 162.460938 220.347656 162.460938 220.347656 166.296875 "/>
<path style=" stroke:none;fill-rule:nonzero;fill:rgb(100%,84.3%,0%);fill-opacity:1;" d="M 297.402344 453.808594 C 297.402344 457.640625 291.652344 457.640625 291.652344 453.808594 C 291.652344 449.972656 297.402344 449.972656 297.402344 453.808594 "/>
<path style=" stroke:none;fill-rule:nonzero;fill:rgb(100%,84.3%,0%);fill-opacity:1;" d="M 297.402344 396.304688 C 297.402344 400.136719 291.652344 400.136719 291.652344 396.304688 C 291.652344 392.472656 297.402344 392.472656 297.402344 396.304688 "/>
<path style=" stroke:none;fill-rule:nonzero;fill:rgb(100%,84.3%,0%);fill-opacity:1;" d="M 297.402344 390.554688 C 297.402344 394.386719 291.652344 394.386719 291.652344 390.554688 C 291.652344 386.722656 297.402344 386.722656 297.402344 390.554688 "/>
<path style=" stroke:none;fill-rule:nonzero;fill:rgb(100%,84.3%,0%);fill-opacity:1;" d="M 297.402344 146.746094 C 297.402344 150.578125 291.652344 150.578125 291.652344 146.746094 C 291.652344 142.914062 297.402344 142.914062 297.402344 146.746094 "/>
<path style=" stroke:none;fill-rule:nonzero;fill:rgb(100%,84.3%,0%);fill-opacity:1;" d="M 220.347656 311.203125 C 220.347656 315.035156 214.597656 315.035156 214.597656 311.203125 C 214.597656 307.367188 220.347656 307.367188 220.347656 311.203125 "/>
<path style=" stroke:none;fill-rule:nonzero;fill:rgb(100%,84.3%,0%);fill-opacity:1;" d="M 280.152344 48.417969 C 280.152344 52.25 274.402344 52.25 274.402344 48.417969 C 274.402344 44.582031 280.152344 44.582031 280.152344 48.417969 "/>
<path style=" stroke:none;fill-rule:nonzero;fill:rgb(100%,84.3%,0%);fill-opacity:1;" d="M 220.347656 206.546875 C 220.347656 210.382812 214.597656 210.382812 214.597656 206.546875 C 214.597656 202.714844 220.347656 202.714844 220.347656 206.546875 "/>
<path style=" stroke:none;fill-rule:nonzero;fill:rgb(100%,84.3%,0%);fill-opacity:1;" d="M 297.402344 54.167969 C 297.402344 58 291.652344 58 291.652344 54.167969 C 291.652344 50.332031 297.402344 50.332031 297.402344 54.167969 "/>
<path style=" stroke:none;fill-rule:nonzero;fill:rgb(100%,84.3%,0%);fill-opacity:1;" d="M 241.039062 447.871094 C 241.039062 451.707031 235.289062 451.707031 235.289062 447.871094 C 235.289062 444.039062 241.039062 444.039062 241.039062 447.871094 "/>
<path style=" stroke:none;fill-rule:nonzero;fill:rgb(100%,84.3%,0%);fill-opacity:1;" d="M 297.402344 327.304688 C 297.402344 331.136719 291.652344 331.136719 291.652344 327.304688 C 291.652344 323.46875 297.402344 323.46875 297.402344 327.304688 "/>
<path style=" stroke:none;fill-rule:nonzero;fill:rgb(100%,84.3%,0%);fill-opacity:1;" d="M 223.222656 283.222656 C 223.222656 287.054688 217.472656 287.054688 217.472656 283.222656 C 217.472656 279.386719 223.222656 279.386719 223.222656 283.222656 "/>
<path style=" stroke:none;fill-rule:nonzero;fill:rgb(100%,84.3%,0%);fill-opacity:1;" d="M 297.402344 436.558594 C 297.402344 440.390625 291.652344 440.390625 291.652344 436.558594 C 291.652344 432.722656 297.402344 432.722656 297.402344 436.558594 "/>
<path style=" stroke:none;fill-rule:nonzero;fill:rgb(100%,84.3%,0%);fill-opacity:1;" d="M 220.347656 177.796875 C 220.347656 181.628906 214.597656 181.628906 214.597656 177.796875 C 214.597656 173.964844 220.347656 173.964844 220.347656 177.796875 "/>
<path style=" stroke:none;fill-rule:nonzero;fill:rgb(100%,84.3%,0%);fill-opacity:1;" d="M 220.347656 48.417969 C 220.347656 52.25 214.597656 52.25 214.597656 48.417969 C 214.597656 44.582031 220.347656 44.582031 220.347656 48.417969 "/>
<path style=" stroke:none;fill-rule:nonzero;fill:rgb(100%,84.3%,0%);fill-opacity:1;" d="M 220.347656 223.800781 C 220.347656 227.632812 214.597656 227.632812 214.597656 223.800781 C 214.597656 219.964844 220.347656 219.964844 220.347656 223.800781 "/>
<path style=" stroke:none;fill-rule:nonzero;fill:rgb(100%,84.3%,0%);fill-opacity:1;" d="M 288.777344 201.9375 C 288.777344 205.769531 283.027344 205.769531 283.027344 201.9375 C 283.027344 198.105469 288.777344 198.105469 288.777344 201.9375 "/>
<path style=" stroke:none;fill-rule:nonzero;fill:rgb(100%,84.3%,0%);fill-opacity:1;" d="M 220.347656 339.953125 C 220.347656 343.785156 214.597656 343.785156 214.597656 339.953125 C 214.597656 336.121094 220.347656 336.121094 220.347656 339.953125 "/>
<path style=" stroke:none;fill-rule:nonzero;fill:rgb(100%,84.3%,0%);fill-opacity:1;" d="M 281.679688 460.707031 C 281.679688 464.542969 275.929688 464.542969 275.929688 460.707031 C 275.929688 456.875 281.679688 456.875 281.679688 460.707031 "/>
<path style=" stroke:none;fill-rule:nonzero;fill:rgb(100%,84.3%,0%);fill-opacity:1;" d="M 235.289062 51.292969 C 235.289062 55.125 229.539062 55.125 229.539062 51.292969 C 229.539062 47.457031 235.289062 47.457031 235.289062 51.292969 "/>
<path style=" stroke:none;fill-rule:nonzero;fill:rgb(100%,84.3%,0%);fill-opacity:1;" d="M 294.527344 201.9375 C 294.527344 205.769531 288.777344 205.769531 288.777344 201.9375 C 288.777344 198.105469 294.527344 198.105469 294.527344 201.9375 "/>
<path style=" stroke:none;fill-rule:nonzero;fill:rgb(100%,84.3%,0%);fill-opacity:1;" d="M 233.183594 255.988281 C 233.183594 259.824219 227.433594 259.824219 227.433594 255.988281 C 227.433594 252.15625 233.183594 252.15625 233.183594 255.988281 "/>
<path style=" stroke:none;fill-rule:nonzero;fill:rgb(100%,84.3%,0%);fill-opacity:1;" d="M 223.222656 261.738281 C 223.222656 265.574219 217.472656 265.574219 217.472656 261.738281 C 217.472656 257.90625 223.222656 257.90625 223.222656 261.738281 "/>
<path style=" stroke:none;fill-rule:nonzero;fill:rgb(100%,84.3%,0%);fill-opacity:1;" d="M 280.152344 230.722656 C 280.152344 234.554688 274.402344 234.554688 274.402344 230.722656 C 274.402344 226.886719 280.152344 226.886719 280.152344 230.722656 "/>
<path style=" stroke:none;fill-rule:nonzero;fill:rgb(100%,84.3%,0%);fill-opacity:1;" d="M 220.347656 245.257812 C 220.347656 249.09375 214.597656 249.09375 214.597656 245.257812 C 214.597656 241.425781 220.347656 241.425781 220.347656 245.257812 "/>
<path style=" stroke:none;fill-rule:nonzero;fill:rgb(100%,84.3%,0%);fill-opacity:1;" d="M 227.433594 455.726562 C 227.433594 459.5625 221.683594 459.5625 221.683594 455.726562 C 221.683594 451.894531 227.433594 451.894531 227.433594 455.726562 "/>
<path style=" stroke:none;fill-rule:nonzero;fill:rgb(100%,84.3%,0%);fill-opacity:1;" d="M 225.328125 151.921875 C 225.328125 155.753906 219.578125 155.753906 219.578125 151.921875 C 219.578125 148.085938 225.328125 148.085938 225.328125 151.921875 "/>
<path style=" stroke:none;fill-rule:nonzero;fill:rgb(100%,84.3%,0%);fill-opacity:1;" d="M 220.347656 256.757812 C 220.347656 260.59375 214.597656 260.59375 214.597656 256.757812 C 214.597656 252.925781 220.347656 252.925781 220.347656 256.757812 "/>
<path style=" stroke:none;fill-rule:nonzero;fill:rgb(100%,84.3%,0%);fill-opacity:1;" d="M 220.347656 239.507812 C 220.347656 243.34375 214.597656 243.34375 214.597656 239.507812 C 214.597656 235.675781 220.347656 235.675781 220.347656 239.507812 "/>
<path style=" stroke:none;fill-rule:nonzero;fill:rgb(100%,84.3%,0%);fill-opacity:1;" d="M 294.527344 288.582031 C 294.527344 292.414062 288.777344 292.414062 288.777344 288.582031 C 288.777344 284.746094 294.527344 284.746094 294.527344 288.582031 "/>
<path style=" stroke:none;fill-rule:nonzero;fill:rgb(100%,84.3%,0%);fill-opacity:1;" d="M 297.402344 126.046875 C 297.402344 129.878906 291.652344 129.878906 291.652344 126.046875 C 291.652344 122.210938 297.402344 122.210938 297.402344 126.046875 "/>
<path style=" stroke:none;fill-rule:nonzero;fill:rgb(100%,84.3%,0%);fill-opacity:1;" d="M 294.527344 186.226562 C 294.527344 190.058594 288.777344 190.058594 288.777344 186.226562 C 288.777344 182.394531 294.527344 182.394531 294.527344 186.226562 "/>
<path style=" stroke:none;fill-rule:nonzero;fill:rgb(100%,84.3%,0%);fill-opacity:1;" d="M 277.277344 225.742188 C 277.277344 229.574219 271.527344 229.574219 271.527344 225.742188 C 271.527344 221.90625 277.277344 221.90625 277.277344 225.742188 "/>
<path style=" stroke:none;fill-rule:nonzero;fill:rgb(100%,84.3%,0%);fill-opacity:1;" d="M 297.402344 266.351562 C 297.402344 270.183594 291.652344 270.183594 291.652344 266.351562 C 291.652344 262.515625 297.402344 262.515625 297.402344 266.351562 "/>
<path style=" stroke:none;fill-rule:nonzero;fill:rgb(100%,84.3%,0%);fill-opacity:1;" d="M 294.527344 217.648438 C 294.527344 221.480469 288.777344 221.480469 288.777344 217.648438 C 288.777344 213.8125 294.527344 213.8125 294.527344 217.648438 "/>
<path style=" stroke:none;fill-rule:nonzero;fill:rgb(100%,84.3%,0%);fill-opacity:1;" d="M 238.164062 73.523438 C 238.164062 77.355469 232.414062 77.355469 232.414062 73.523438 C 232.414062 69.691406 238.164062 69.691406 238.164062 73.523438 "/>
<path style=" stroke:none;fill-rule:nonzero;fill:rgb(100%,84.3%,0%);fill-opacity:1;" d="M 294.527344 305.070312 C 294.527344 308.90625 288.777344 308.90625 288.777344 305.070312 C 288.777344 301.238281 294.527344 301.238281 294.527344 305.070312 "/>
<path style=" stroke:none;fill-rule:nonzero;fill:rgb(100%,84.3%,0%);fill-opacity:1;" d="M 222.453125 135.441406 C 222.453125 139.273438 216.703125 139.273438 216.703125 135.441406 C 216.703125 131.609375 222.453125 131.609375 222.453125 135.441406 "/>
<path style=" stroke:none;fill-rule:nonzero;fill:rgb(100%,84.3%,0%);fill-opacity:1;" d="M 297.402344 425.058594 C 297.402344 428.890625 291.652344 428.890625 291.652344 425.058594 C 291.652344 421.222656 297.402344 421.222656 297.402344 425.058594 "/>
<path style=" stroke:none;fill-rule:nonzero;fill:rgb(100%,84.3%,0%);fill-opacity:1;" d="M 230.308594 59.917969 C 230.308594 63.75 224.558594 63.75 224.558594 59.917969 C 224.558594 56.082031 230.308594 56.082031 230.308594 59.917969 "/>
<path style=" stroke:none;fill-rule:nonzero;fill:rgb(100%,84.3%,0%);fill-opacity:1;" d="M 297.402344 413.554688 C 297.402344 417.390625 291.652344 417.390625 291.652344 413.554688 C 291.652344 409.722656 297.402344 409.722656 297.402344 413.554688 "/>
<path style=" stroke:none;fill-rule:nonzero;fill:rgb(100%,84.3%,0%);fill-opacity:1;" d="M 297.402344 430.808594 C 297.402344 434.640625 291.652344 434.640625 291.652344 430.808594 C 291.652344 426.972656 297.402344 426.972656 297.402344 430.808594 "/>
<path style=" stroke:none;fill-rule:nonzero;fill:rgb(100%,84.3%,0%);fill-opacity:1;" d="M 294.527344 255.621094 C 294.527344 259.453125 288.777344 259.453125 288.777344 255.621094 C 288.777344 251.785156 294.527344 251.785156 294.527344 255.621094 "/>
<path style=" stroke:none;fill-rule:nonzero;fill:rgb(100%,84.3%,0%);fill-opacity:1;" d="M 297.402344 338.804688 C 297.402344 342.636719 291.652344 342.636719 291.652344 338.804688 C 291.652344 334.96875 297.402344 334.96875 297.402344 338.804688 "/>
<path style=" stroke:none;fill-rule:nonzero;fill:rgb(100%,84.3%,0%);fill-opacity:1;" d="M 297.402344 91.542969 C 297.402344 95.378906 291.652344 95.378906 291.652344 91.542969 C 291.652344 87.710938 297.402344 87.710938 297.402344 91.542969 "/>
<path style=" stroke:none;fill-rule:nonzero;fill:rgb(100%,84.3%,0%);fill-opacity:1;" d="M 288.777344 196.1875 C 288.777344 200.019531 283.027344 200.019531 283.027344 196.1875 C 283.027344 192.355469 288.777344 192.355469 288.777344 196.1875 "/>
<path style=" stroke:none;fill-rule:nonzero;fill:rgb(100%,84.3%,0%);fill-opacity:1;" d="M 294.527344 463.582031 C 294.527344 467.417969 288.777344 467.417969 288.777344 463.582031 C 288.777344 459.75 294.527344 459.75 294.527344 463.582031 "/>
<path style=" stroke:none;fill-rule:nonzero;fill:rgb(100%,84.3%,0%);fill-opacity:1;" d="M 297.402344 108.792969 C 297.402344 112.628906 291.652344 112.628906 291.652344 108.792969 C 291.652344 104.960938 297.402344 104.960938 297.402344 108.792969 "/>
<path style=" stroke:none;fill-rule:nonzero;fill:rgb(100%,84.3%,0%);fill-opacity:1;" d="M 297.402344 169.746094 C 297.402344 173.582031 291.652344 173.582031 291.652344 169.746094 C 291.652344 165.914062 297.402344 165.914062 297.402344 169.746094 "/>
<path style=" stroke:none;fill-rule:nonzero;fill:rgb(100%,84.3%,0%);fill-opacity:1;" d="M 297.402344 97.292969 C 297.402344 101.128906 291.652344 101.128906 291.652344 97.292969 C 291.652344 93.460938 297.402344 93.460938 297.402344 97.292969 "/>
<path style=" stroke:none;fill-rule:nonzero;fill:rgb(100%,84.3%,0%);fill-opacity:1;" d="M 297.402344 407.804688 C 297.402344 411.640625 291.652344 411.640625 291.652344 407.804688 C 291.652344 403.972656 297.402344 403.972656 297.402344 407.804688 "/>
<path style=" stroke:none;fill-rule:nonzero;fill:rgb(100%,84.3%,0%);fill-opacity:1;" d="M 220.347656 218.050781 C 220.347656 221.882812 214.597656 221.882812 214.597656 218.050781 C 214.597656 214.214844 220.347656 214.214844 220.347656 218.050781 "/>
<path style=" stroke:none;fill-rule:nonzero;fill:rgb(100%,84.3%,0%);fill-opacity:1;" d="M 292.421875 138.121094 C 292.421875 141.953125 286.671875 141.953125 286.671875 138.121094 C 286.671875 134.285156 292.421875 134.285156 292.421875 138.121094 "/>
<path style=" stroke:none;fill-rule:nonzero;fill:rgb(100%,84.3%,0%);fill-opacity:1;" d="M 220.347656 460.707031 C 220.347656 464.542969 214.597656 464.542969 214.597656 460.707031 C 214.597656 456.875 220.347656 456.875 220.347656 460.707031 "/>
<path style=" stroke:none;fill-rule:nonzero;fill:rgb(100%,84.3%,0%);fill-opacity:1;" d="M 233.183594 64.898438 C 233.183594 68.730469 227.433594 68.730469 227.433594 64.898438 C 227.433594 61.0625 233.183594 61.0625 233.183594 64.898438 "/>
<path style=" stroke:none;fill-rule:nonzero;fill:rgb(100%,84.3%,0%);fill-opacity:1;" d="M 220.347656 322.703125 C 220.347656 326.535156 214.597656 326.535156 214.597656 322.703125 C 214.597656 318.871094 220.347656 318.871094 220.347656 322.703125 "/>
<path style=" stroke:none;fill-rule:nonzero;fill:rgb(100%,84.3%,0%);fill-opacity:1;" d="M 297.402344 120.296875 C 297.402344 124.128906 291.652344 124.128906 291.652344 120.296875 C 291.652344 116.460938 297.402344 116.460938 297.402344 120.296875 "/>
<path style=" stroke:none;fill-rule:nonzero;fill:rgb(100%,84.3%,0%);fill-opacity:1;" d="M 220.347656 121.835938 C 220.347656 125.667969 214.597656 125.667969 214.597656 121.835938 C 214.597656 118 220.347656 118 220.347656 121.835938 "/>
<path style=" stroke:none;fill-rule:nonzero;fill:rgb(100%,84.3%,0%);fill-opacity:1;" d="M 297.402344 384.804688 C 297.402344 388.636719 291.652344 388.636719 291.652344 384.804688 C 291.652344 380.972656 297.402344 380.972656 297.402344 384.804688 "/>
<path style=" stroke:none;fill-rule:nonzero;fill:rgb(100%,84.3%,0%);fill-opacity:1;" d="M 225.328125 51.292969 C 225.328125 55.125 219.578125 55.125 219.578125 51.292969 C 219.578125 47.457031 225.328125 47.457031 225.328125 51.292969 "/>
<path style=" stroke:none;fill-rule:nonzero;fill:rgb(100%,84.3%,0%);fill-opacity:1;" d="M 297.402344 402.054688 C 297.402344 405.890625 291.652344 405.890625 291.652344 402.054688 C 291.652344 398.222656 297.402344 398.222656 297.402344 402.054688 "/>
<path style=" stroke:none;fill-rule:nonzero;fill:rgb(100%,84.3%,0%);fill-opacity:1;" d="M 284.566406 223.398438 C 284.566406 227.230469 278.816406 227.230469 278.816406 223.398438 C 278.816406 219.5625 284.566406 219.5625 284.566406 223.398438 "/>
<path style=" stroke:none;fill-rule:nonzero;fill:rgb(100%,84.3%,0%);fill-opacity:1;" d="M 220.347656 116.085938 C 220.347656 119.917969 214.597656 119.917969 214.597656 116.085938 C 214.597656 112.25 220.347656 112.25 220.347656 116.085938 "/>
<path style=" stroke:none;fill-rule:nonzero;fill:rgb(100%,84.3%,0%);fill-opacity:1;" d="M 297.402344 103.042969 C 297.402344 106.878906 291.652344 106.878906 291.652344 103.042969 C 291.652344 99.210938 297.402344 99.210938 297.402344 103.042969 "/>
<path style=" stroke:none;fill-rule:nonzero;fill:rgb(100%,84.3%,0%);fill-opacity:1;" d="M 232.414062 452.851562 C 232.414062 456.6875 226.664062 456.6875 226.664062 452.851562 C 226.664062 449.019531 232.414062 449.019531 232.414062 452.851562 "/>
<path style=" stroke:none;fill-rule:nonzero;fill:rgb(100%,84.3%,0%);fill-opacity:1;" d="M 233.183594 70.648438 C 233.183594 74.480469 227.433594 74.480469 227.433594 70.648438 C 227.433594 66.8125 233.183594 66.8125 233.183594 70.648438 "/>
<path style=" stroke:none;fill-rule:nonzero;fill:rgb(100%,84.3%,0%);fill-opacity:1;" d="M 297.402344 315.800781 C 297.402344 319.636719 291.652344 319.636719 291.652344 315.800781 C 291.652344 311.96875 297.402344 311.96875 297.402344 315.800781 "/>
<path style=" stroke:none;fill-rule:nonzero;fill:rgb(100%,84.3%,0%);fill-opacity:1;" d="M 220.347656 316.953125 C 220.347656 320.785156 214.597656 320.785156 214.597656 316.953125 C 214.597656 313.117188 220.347656 313.117188 220.347656 316.953125 "/>
<path style=" stroke:none;fill-rule:nonzero;fill:rgb(100%,84.3%,0%);fill-opacity:1;" d="M 220.347656 104.585938 C 220.347656 108.417969 214.597656 108.417969 214.597656 104.585938 C 214.597656 100.75 220.347656 100.75 220.347656 104.585938 "/>
<path style=" stroke:none;fill-rule:nonzero;fill:rgb(100%,84.3%,0%);fill-opacity:1;" d="M 297.402344 367.554688 C 297.402344 371.386719 291.652344 371.386719 291.652344 367.554688 C 291.652344 363.71875 297.402344 363.71875 297.402344 367.554688 "/>
<path style=" stroke:none;fill-rule:nonzero;fill:rgb(100%,84.3%,0%);fill-opacity:1;" d="M 220.347656 189.296875 C 220.347656 193.128906 214.597656 193.128906 214.597656 189.296875 C 214.597656 185.464844 220.347656 185.464844 220.347656 189.296875 "/>
<path style=" stroke:none;fill-rule:nonzero;fill:rgb(100%,84.3%,0%);fill-opacity:1;" d="M 220.347656 251.007812 C 220.347656 254.84375 214.597656 254.84375 214.597656 251.007812 C 214.597656 247.175781 220.347656 247.175781 220.347656 251.007812 "/>
<path style=" stroke:none;fill-rule:nonzero;fill:rgb(100%,84.3%,0%);fill-opacity:1;" d="M 297.402344 350.304688 C 297.402344 354.136719 291.652344 354.136719 291.652344 350.304688 C 291.652344 346.46875 297.402344 346.46875 297.402344 350.304688 "/>
<path style=" stroke:none;fill-rule:nonzero;fill:rgb(100%,84.3%,0%);fill-opacity:1;" d="M 297.402344 442.308594 C 297.402344 446.140625 291.652344 446.140625 291.652344 442.308594 C 291.652344 438.472656 297.402344 438.472656 297.402344 442.308594 "/>
<path style=" stroke:none;fill-rule:nonzero;fill:rgb(100%,84.3%,0%);fill-opacity:1;" d="M 297.402344 310.050781 C 297.402344 313.886719 291.652344 313.886719 291.652344 310.050781 C 291.652344 306.21875 297.402344 306.21875 297.402344 310.050781 "/>
<path style=" stroke:none;fill-rule:nonzero;fill:rgb(100%,84.3%,0%);fill-opacity:1;" d="M 262.324219 458.601562 C 262.324219 462.4375 256.574219 462.4375 256.574219 458.601562 C 256.574219 454.769531 262.324219 454.769531 262.324219 458.601562 "/>
<path style=" stroke:none;fill-rule:nonzero;fill:rgb(100%,84.3%,0%);fill-opacity:1;" d="M 276.699219 463.582031 C 276.699219 467.417969 270.949219 467.417969 270.949219 463.582031 C 270.949219 459.75 276.699219 459.75 276.699219 463.582031 "/>
<path style=" stroke:none;fill-rule:nonzero;fill:rgb(100%,84.3%,0%);fill-opacity:1;" d="M 297.402344 181.246094 C 297.402344 185.082031 291.652344 185.082031 291.652344 181.246094 C 291.652344 177.414062 297.402344 177.414062 297.402344 181.246094 "/>
<path style=" stroke:none;fill-rule:nonzero;fill:rgb(100%,84.3%,0%);fill-opacity:1;" d="M 220.347656 288.199219 C 220.347656 292.035156 214.597656 292.035156 214.597656 288.199219 C 214.597656 284.367188 220.347656 284.367188 220.347656 288.199219 "/>
<path style=" stroke:none;fill-rule:nonzero;fill:rgb(100%,84.3%,0%);fill-opacity:1;" d="M 223.222656 228.777344 C 223.222656 232.613281 217.472656 232.613281 217.472656 228.777344 C 217.472656 224.945312 223.222656 224.945312 223.222656 228.777344 "/>
<path style=" stroke:none;fill-rule:nonzero;fill:rgb(100%,84.3%,0%);fill-opacity:1;" d="M 225.328125 157.671875 C 225.328125 161.503906 219.578125 161.503906 219.578125 157.671875 C 219.578125 153.835938 225.328125 153.835938 225.328125 157.671875 "/>
<path style=" stroke:none;fill-rule:nonzero;fill:rgb(100%,84.3%,0%);fill-opacity:1;" d="M 230.308594 54.167969 C 230.308594 58 224.558594 58 224.558594 54.167969 C 224.558594 50.332031 230.308594 50.332031 230.308594 54.167969 "/>
<path style=" stroke:none;fill-rule:nonzero;fill:rgb(100%,84.3%,0%);fill-opacity:1;" d="M 291.652344 191.207031 C 291.652344 195.039062 285.902344 195.039062 285.902344 191.207031 C 285.902344 187.375 291.652344 187.375 291.652344 191.207031 "/>
<path style=" stroke:none;fill-rule:nonzero;fill:rgb(100%,84.3%,0%);fill-opacity:1;" d="M 289.546875 449.207031 C 289.546875 453.042969 283.796875 453.042969 283.796875 449.207031 C 283.796875 445.375 289.546875 445.375 289.546875 449.207031 "/>
<path style=" stroke:none;fill-rule:nonzero;fill:rgb(100%,84.3%,0%);fill-opacity:1;" d="M 289.546875 454.957031 C 289.546875 458.792969 283.796875 458.792969 283.796875 454.957031 C 283.796875 451.125 289.546875 451.125 289.546875 454.957031 "/>
<path style=" stroke:none;fill-rule:nonzero;fill:rgb(100%,84.3%,0%);fill-opacity:1;" d="M 246.789062 78.503906 C 246.789062 82.335938 241.039062 82.335938 241.039062 78.503906 C 241.039062 74.667969 246.789062 74.667969 246.789062 78.503906 "/>
<path style=" stroke:none;fill-rule:nonzero;fill:rgb(100%,84.3%,0%);fill-opacity:1;" d="M 297.402344 59.917969 C 297.402344 63.75 291.652344 63.75 291.652344 59.917969 C 291.652344 56.082031 297.402344 56.082031 297.402344 59.917969 "/>
<path style=" stroke:none;fill-rule:nonzero;fill:rgb(100%,84.3%,0%);fill-opacity:1;" d="M 220.347656 293.949219 C 220.347656 297.785156 214.597656 297.785156 214.597656 293.949219 C 214.597656 290.117188 220.347656 290.117188 220.347656 293.949219 "/>
<path style=" stroke:none;fill-rule:nonzero;fill:rgb(100%,84.3%,0%);fill-opacity:1;" d="M 220.347656 212.296875 C 220.347656 216.132812 214.597656 216.132812 214.597656 212.296875 C 214.597656 208.464844 220.347656 208.464844 220.347656 212.296875 "/>
<path style=" stroke:none;fill-rule:nonzero;fill:rgb(100%,84.3%,0%);fill-opacity:1;" d="M 294.527344 75.0625 C 294.527344 78.894531 288.777344 78.894531 288.777344 75.0625 C 288.777344 71.230469 294.527344 71.230469 294.527344 75.0625 "/>
<path style=" stroke:none;fill-rule:nonzero;fill:rgb(100%,84.3%,0%);fill-opacity:1;" d="M 291.652344 300.09375 C 291.652344 303.925781 285.902344 303.925781 285.902344 300.09375 C 285.902344 296.257812 291.652344 296.257812 291.652344 300.09375 "/>
<path style=" stroke:none;fill-rule:nonzero;fill:rgb(100%,84.3%,0%);fill-opacity:1;" d="M 220.347656 334.203125 C 220.347656 338.035156 214.597656 338.035156 214.597656 334.203125 C 214.597656 330.371094 220.347656 330.371094 220.347656 334.203125 "/>
<path style=" stroke:none;fill-rule:nonzero;fill:rgb(100%,84.3%,0%);fill-opacity:1;" d="M 243.914062 73.523438 C 243.914062 77.355469 238.164062 77.355469 238.164062 73.523438 C 238.164062 69.691406 243.914062 69.691406 243.914062 73.523438 "/>
<path style=" stroke:none;fill-rule:nonzero;fill:rgb(100%,84.3%,0%);fill-opacity:1;" d="M 253.699219 463.582031 C 253.699219 467.417969 247.949219 467.417969 247.949219 463.582031 C 247.949219 459.75 253.699219 459.75 253.699219 463.582031 "/>
<path style=" stroke:none;fill-rule:nonzero;fill:rgb(100%,84.3%,0%);fill-opacity:1;" d="M 238.164062 79.273438 C 238.164062 83.105469 232.414062 83.105469 232.414062 79.273438 C 232.414062 75.441406 238.164062 75.441406 238.164062 79.273438 "/>
<path style=" stroke:none;fill-rule:nonzero;fill:rgb(100%,84.3%,0%);fill-opacity:1;" d="M 292.421875 62.792969 C 292.421875 66.625 286.671875 66.625 286.671875 62.792969 C 286.671875 58.957031 292.421875 58.957031 292.421875 62.792969 "/>
<path style=" stroke:none;fill-rule:nonzero;fill:rgb(100%,84.3%,0%);fill-opacity:1;" d="M 292.421875 370.429688 C 292.421875 374.261719 286.671875 374.261719 286.671875 370.429688 C 286.671875 366.59375 292.421875 366.59375 292.421875 370.429688 "/>
<path style=" stroke:none;fill-rule:nonzero;fill:rgb(100%,84.3%,0%);fill-opacity:1;" d="M 291.652344 250.640625 C 291.652344 254.472656 285.902344 254.472656 285.902344 250.640625 C 285.902344 246.804688 291.652344 246.804688 291.652344 250.640625 "/>
<path style=" stroke:none;fill-rule:nonzero;fill:rgb(100%,84.3%,0%);fill-opacity:1;" d="M 297.402344 212.667969 C 297.402344 216.5 291.652344 216.5 291.652344 212.667969 C 291.652344 208.832031 297.402344 208.832031 297.402344 212.667969 "/>
<path style=" stroke:none;fill-rule:nonzero;fill:rgb(100%,84.3%,0%);fill-opacity:1;" d="M 294.527344 271.328125 C 294.527344 275.164062 288.777344 275.164062 288.777344 271.328125 C 288.777344 267.496094 294.527344 267.496094 294.527344 271.328125 "/>
<path style=" stroke:none;fill-rule:nonzero;fill:rgb(100%,84.3%,0%);fill-opacity:1;" d="M 297.402344 48.417969 C 297.402344 52.25 291.652344 52.25 291.652344 48.417969 C 291.652344 44.582031 297.402344 44.582031 297.402344 48.417969 "/>
<path style=" stroke:none;fill-rule:nonzero;fill:rgb(100%,84.3%,0%);fill-opacity:1;" d="M 230.308594 460.707031 C 230.308594 464.542969 224.558594 464.542969 224.558594 460.707031 C 224.558594 456.875 230.308594 456.875 230.308594 460.707031 "/>
<path style=" stroke:none;fill-rule:nonzero;fill:rgb(100%,84.3%,0%);fill-opacity:1;" d="M 240.269531 54.167969 C 240.269531 58 234.519531 58 234.519531 54.167969 C 234.519531 50.332031 240.269531 50.332031 240.269531 54.167969 "/>
<path style=" stroke:none;fill-rule:nonzero;fill:rgb(100%,84.3%,0%);fill-opacity:1;" d="M 228.972656 273.261719 C 228.972656 277.09375 223.222656 277.09375 223.222656 273.261719 C 223.222656 269.429688 228.972656 269.429688 228.972656 273.261719 "/>
<path style=" stroke:none;fill-rule:nonzero;fill:rgb(100%,84.3%,0%);fill-opacity:1;" d="M 297.402344 361.804688 C 297.402344 365.636719 291.652344 365.636719 291.652344 361.804688 C 291.652344 357.96875 297.402344 357.96875 297.402344 361.804688 "/>
<path style=" stroke:none;fill-rule:nonzero;fill:rgb(100%,84.3%,0%);fill-opacity:1;" d="M 288.777344 295.113281 C 288.777344 298.945312 283.027344 298.945312 283.027344 295.113281 C 283.027344 291.277344 288.777344 291.277344 288.777344 295.113281 "/>
<path style=" stroke:none;fill-rule:nonzero;fill:rgb(100%,84.3%,0%);fill-opacity:1;" d="M 223.222656 234.527344 C 223.222656 238.363281 217.472656 238.363281 217.472656 234.527344 C 217.472656 230.695312 223.222656 230.695312 223.222656 234.527344 "/>
<path style=" stroke:none;fill-rule:nonzero;fill:rgb(100%,84.3%,0%);fill-opacity:1;" d="M 297.402344 70.082031 C 297.402344 73.917969 291.652344 73.917969 291.652344 70.082031 C 291.652344 66.25 297.402344 66.25 297.402344 70.082031 "/>
<path style=" stroke:none;fill-rule:nonzero;fill:rgb(100%,84.3%,0%);fill-opacity:1;" d="M 274.402344 48.417969 C 274.402344 52.25 268.652344 52.25 268.652344 48.417969 C 268.652344 44.582031 274.402344 44.582031 274.402344 48.417969 "/>
<path style=" stroke:none;fill-rule:nonzero;fill:rgb(100%,84.3%,0%);fill-opacity:1;" d="M 249.664062 432.933594 C 249.664062 436.765625 243.914062 436.765625 243.914062 432.933594 C 243.914062 429.101562 249.664062 429.101562 249.664062 432.933594 "/>
<path style=" stroke:none;fill-rule:nonzero;fill:rgb(100%,84.3%,0%);fill-opacity:1;" d="M 297.402344 373.304688 C 297.402344 377.136719 291.652344 377.136719 291.652344 373.304688 C 291.652344 369.472656 297.402344 369.472656 297.402344 373.304688 "/>
<path style=" stroke:none;fill-rule:nonzero;fill:rgb(100%,84.3%,0%);fill-opacity:1;" d="M 294.527344 207.6875 C 294.527344 211.519531 288.777344 211.519531 288.777344 207.6875 C 288.777344 203.855469 294.527344 203.855469 294.527344 207.6875 "/>
<path style=" stroke:none;fill-rule:nonzero;fill:rgb(100%,84.3%,0%);fill-opacity:1;" d="M 230.308594 127.585938 C 230.308594 131.417969 224.558594 131.417969 224.558594 127.585938 C 224.558594 123.753906 230.308594 123.753906 230.308594 127.585938 "/>
<path style=" stroke:none;fill-rule:nonzero;fill:rgb(100%,84.3%,0%);fill-opacity:1;" d="M 225.328125 253.882812 C 225.328125 257.71875 219.578125 257.71875 219.578125 253.882812 C 219.578125 250.050781 225.328125 250.050781 225.328125 253.882812 "/>
<path style=" stroke:none;fill-rule:nonzero;fill:rgb(100%,84.3%,0%);fill-opacity:1;" d="M 222.453125 141.191406 C 222.453125 145.023438 216.703125 145.023438 216.703125 141.191406 C 216.703125 137.359375 222.453125 137.359375 222.453125 141.191406 "/>
<path style=" stroke:none;fill-rule:nonzero;fill:rgb(100%,84.3%,0%);fill-opacity:1;" d="M 284.566406 446.332031 C 284.566406 450.164062 278.816406 450.164062 278.816406 446.332031 C 278.816406 442.5 284.566406 442.5 284.566406 446.332031 "/>
<path style=" stroke:none;fill-rule:nonzero;fill:rgb(100%,84.3%,0%);fill-opacity:1;" d="M 220.347656 328.453125 C 220.347656 332.285156 214.597656 332.285156 214.597656 328.453125 C 214.597656 324.621094 220.347656 324.621094 220.347656 328.453125 "/>
<path style=" stroke:none;fill-rule:nonzero;fill:rgb(100%,84.3%,0%);fill-opacity:1;" d="M 259.449219 463.582031 C 259.449219 467.417969 253.699219 467.417969 253.699219 463.582031 C 253.699219 459.75 259.449219 459.75 259.449219 463.582031 "/>
<path style=" stroke:none;fill-rule:nonzero;fill:rgb(100%,84.3%,0%);fill-opacity:1;" d="M 256.574219 458.601562 C 256.574219 462.4375 250.824219 462.4375 250.824219 458.601562 C 250.824219 454.769531 256.574219 454.769531 256.574219 458.601562 "/>
<path style=" stroke:none;fill-rule:nonzero;fill:rgb(100%,84.3%,0%);fill-opacity:1;" d="M 297.402344 140.996094 C 297.402344 144.828125 291.652344 144.828125 291.652344 140.996094 C 291.652344 137.160156 297.402344 137.160156 297.402344 140.996094 "/>
<path style=" stroke:none;fill-rule:nonzero;fill:rgb(100%,84.3%,0%);fill-opacity:1;" d="M 220.347656 305.453125 C 220.347656 309.285156 214.597656 309.285156 214.597656 305.453125 C 214.597656 301.617188 220.347656 301.617188 220.347656 305.453125 "/>
<path style=" stroke:none;fill-rule:nonzero;fill:rgb(100%,84.3%,0%);fill-opacity:1;" d="M 297.402344 85.792969 C 297.402344 89.625 291.652344 89.625 291.652344 85.792969 C 291.652344 81.960938 297.402344 81.960938 297.402344 85.792969 "/>
<path style=" stroke:none;fill-rule:nonzero;fill:rgb(100%,84.3%,0%);fill-opacity:1;" d="M 297.402344 344.554688 C 297.402344 348.386719 291.652344 348.386719 291.652344 344.554688 C 291.652344 340.71875 297.402344 340.71875 297.402344 344.554688 "/>
<path style=" stroke:none;fill-rule:nonzero;fill:rgb(100%,84.3%,0%);fill-opacity:1;" d="M 285.902344 240.679688 C 285.902344 244.515625 280.152344 244.515625 280.152344 240.679688 C 280.152344 236.847656 285.902344 236.847656 285.902344 240.679688 "/>
<path style=" stroke:none;fill-rule:nonzero;fill:rgb(100%,84.3%,0%);fill-opacity:1;" d="M 220.347656 345.703125 C 220.347656 349.539062 214.597656 349.539062 214.597656 345.703125 C 214.597656 341.871094 220.347656 341.871094 220.347656 345.703125 "/>
<path style=" stroke:none;fill-rule:nonzero;fill:rgb(100%,84.3%,0%);fill-opacity:1;" d="M 238.164062 452.851562 C 238.164062 456.6875 232.414062 456.6875 232.414062 452.851562 C 232.414062 449.019531 238.164062 449.019531 238.164062 452.851562 "/>
<path style=" stroke:none;fill-rule:nonzero;fill:rgb(100%,84.3%,0%);fill-opacity:1;" d="M 297.402344 163.996094 C 297.402344 167.828125 291.652344 167.828125 291.652344 163.996094 C 291.652344 160.164062 297.402344 160.164062 297.402344 163.996094 "/>
<path style=" stroke:none;fill-rule:nonzero;fill:rgb(100%,84.3%,0%);fill-opacity:1;" d="M 220.347656 200.796875 C 220.347656 204.632812 214.597656 204.632812 214.597656 200.796875 C 214.597656 196.964844 220.347656 196.964844 220.347656 200.796875 "/>
<path style=" stroke:none;fill-rule:nonzero;fill:rgb(100%,84.3%,0%);fill-opacity:1;" d="M 220.347656 110.335938 C 220.347656 114.167969 214.597656 114.167969 214.597656 110.335938 C 214.597656 106.5 220.347656 106.5 220.347656 110.335938 "/>
<path style=" stroke:none;fill-rule:nonzero;fill:rgb(100%,84.3%,0%);fill-opacity:1;" d="M 265.199219 463.582031 C 265.199219 467.417969 259.449219 467.417969 259.449219 463.582031 C 259.449219 459.75 265.199219 459.75 265.199219 463.582031 "/>
<path style=" stroke:none;fill-rule:nonzero;fill:rgb(100%,84.3%,0%);fill-opacity:1;" d="M 220.347656 154.796875 C 220.347656 158.628906 214.597656 158.628906 214.597656 154.796875 C 214.597656 150.960938 220.347656 150.960938 220.347656 154.796875 "/>
<path style=" stroke:none;fill-rule:nonzero;fill:rgb(100%,84.3%,0%);fill-opacity:1;" d="M 291.652344 48.417969 C 291.652344 52.25 285.902344 52.25 285.902344 48.417969 C 285.902344 44.582031 291.652344 44.582031 291.652344 48.417969 "/>
<path style=" stroke:none;fill-rule:nonzero;fill:rgb(100%,84.3%,0%);fill-opacity:1;" d="M 289.546875 220.523438 C 289.546875 224.355469 283.796875 224.355469 283.796875 220.523438 C 283.796875 216.6875 289.546875 216.6875 289.546875 220.523438 "/>
<path style=" stroke:none;fill-rule:nonzero;fill:rgb(100%,84.3%,0%);fill-opacity:1;" d="M 220.347656 299.703125 C 220.347656 303.535156 214.597656 303.535156 214.597656 299.703125 C 214.597656 295.867188 220.347656 295.867188 220.347656 299.703125 "/>
<path style=" stroke:none;fill-rule:nonzero;fill:rgb(100%,84.3%,0%);fill-opacity:1;" d="M 297.402344 158.246094 C 297.402344 162.078125 291.652344 162.078125 291.652344 158.246094 C 291.652344 154.414062 297.402344 154.414062 297.402344 158.246094 "/>
<path style=" stroke:none;fill-rule:nonzero;fill:rgb(100%,84.3%,0%);fill-opacity:1;" d="M 243.914062 442.894531 C 243.914062 446.726562 238.164062 446.726562 238.164062 442.894531 C 238.164062 439.058594 243.914062 439.058594 243.914062 442.894531 "/>
<path style=" stroke:none;fill-rule:nonzero;fill:rgb(100%,84.3%,0%);fill-opacity:1;" d="M 297.402344 152.496094 C 297.402344 156.328125 291.652344 156.328125 291.652344 152.496094 C 291.652344 148.664062 297.402344 148.664062 297.402344 152.496094 "/>
<path style=" stroke:none;fill-rule:nonzero;fill:rgb(100%,84.3%,0%);fill-opacity:1;" d="M 294.527344 282.832031 C 294.527344 286.664062 288.777344 286.664062 288.777344 282.832031 C 288.777344 278.996094 294.527344 278.996094 294.527344 282.832031 "/>
<path style=" stroke:none;fill-rule:nonzero;fill:rgb(100%,84.3%,0%);fill-opacity:1;" d="M 286.671875 155.371094 C 286.671875 159.203125 280.921875 159.203125 280.921875 155.371094 C 280.921875 151.539062 286.671875 151.539062 286.671875 155.371094 "/>
<path style=" stroke:none;fill-rule:nonzero;fill:rgb(100%,84.3%,0%);fill-opacity:1;" d="M 294.527344 277.078125 C 294.527344 280.914062 288.777344 280.914062 288.777344 277.078125 C 288.777344 273.246094 294.527344 273.246094 294.527344 277.078125 "/>
<path style=" stroke:none;fill-rule:nonzero;fill:rgb(100%,84.3%,0%);fill-opacity:1;" d="M 281.679688 454.957031 C 281.679688 458.792969 275.929688 458.792969 275.929688 454.957031 C 275.929688 451.125 281.679688 451.125 281.679688 454.957031 "/>
<path style=" stroke:none;fill-rule:nonzero;fill:rgb(100%,84.3%,0%);fill-opacity:1;" d="M 297.402344 448.058594 C 297.402344 451.890625 291.652344 451.890625 291.652344 448.058594 C 291.652344 444.222656 297.402344 444.222656 297.402344 448.058594 "/>
<path style=" stroke:none;fill-rule:nonzero;fill:rgb(100%,84.3%,0%);fill-opacity:1;" d="M 220.347656 183.546875 C 220.347656 187.378906 214.597656 187.378906 214.597656 183.546875 C 214.597656 179.714844 220.347656 179.714844 220.347656 183.546875 "/>
<path style=" stroke:none;fill-rule:nonzero;fill:rgb(100%,84.3%,0%);fill-opacity:1;" d="M 297.402344 419.304688 C 297.402344 423.140625 291.652344 423.140625 291.652344 419.304688 C 291.652344 415.472656 297.402344 415.472656 297.402344 419.304688 "/>
<path style=" stroke:none;fill-rule:nonzero;fill:rgb(100%,84.3%,0%);fill-opacity:1;" d="M 228.203125 141.191406 C 228.203125 145.023438 222.453125 145.023438 222.453125 141.191406 C 222.453125 137.359375 228.203125 137.359375 228.203125 141.191406 "/>
<path style=" stroke:none;fill-rule:nonzero;fill:rgb(100%,84.3%,0%);fill-opacity:1;" d="M 285.902344 48.417969 C 285.902344 52.25 280.152344 52.25 280.152344 48.417969 C 280.152344 44.582031 285.902344 44.582031 285.902344 48.417969 "/>
<path style=" stroke:none;fill-rule:nonzero;fill:rgb(100%,84.3%,0%);fill-opacity:1;" d="M 226.097656 278.242188 C 226.097656 282.074219 220.347656 282.074219 220.347656 278.242188 C 220.347656 274.410156 226.097656 274.410156 226.097656 278.242188 "/>
<path style=" stroke:none;fill-rule:nonzero;fill:rgb(100%,84.3%,0%);fill-opacity:1;" d="M 297.402344 333.054688 C 297.402344 336.886719 291.652344 336.886719 291.652344 333.054688 C 291.652344 329.21875 297.402344 329.21875 297.402344 333.054688 "/>
<path style=" stroke:none;fill-rule:nonzero;fill:rgb(100%,84.3%,0%);fill-opacity:1;" d="M 289.546875 460.707031 C 289.546875 464.542969 283.796875 464.542969 283.796875 460.707031 C 283.796875 456.875 289.546875 456.875 289.546875 460.707031 "/>
<path style=" stroke:none;fill-rule:nonzero;fill:rgb(100%,84.3%,0%);fill-opacity:1;" d="M 297.402344 379.054688 C 297.402344 382.886719 291.652344 382.886719 291.652344 379.054688 C 291.652344 375.222656 297.402344 375.222656 297.402344 379.054688 "/>
<path style=" stroke:none;fill-rule:nonzero;fill:rgb(100%,84.3%,0%);fill-opacity:1;" d="M 278.804688 449.976562 C 278.804688 453.8125 273.054688 453.8125 273.054688 449.976562 C 273.054688 446.144531 278.804688 446.144531 278.804688 449.976562 "/>
<path style=" stroke:none;fill-rule:nonzero;fill:rgb(100%,84.3%,0%);fill-opacity:1;" d="M 297.402344 321.550781 C 297.402344 325.386719 291.652344 325.386719 291.652344 321.550781 C 291.652344 317.71875 297.402344 317.71875 297.402344 321.550781 "/>
</g>
</svg>
