<?xml version="1.0" encoding="UTF-8"?>
<svg xmlns="http://www.w3.org/2000/svg" xmlns:xlink="http://www.w3.org/1999/xlink" width="512pt" height="512pt" viewBox="0 0 512 512" version="1.1">
<g id="surface421">
<path style=" stroke:none;fill-rule:nonzero;fill:rgb(26.7%,26.7%,26.7%);fill-opacity:1;" d="M 159.867188 0 L 352.136719 0 L 352.136719 512 L 159.867188 512 Z M 159.867188 0 "/>
<path style=" stroke:none;fill-rule:nonzero;fill:rgb(19.2%,38.8%,66.7%);fill-opacity:1;" d="M 175.886719 42.667969 L 336.109375 42.667969 L 336.109375 469.332031 L 175.886719 469.332031 Z M 175.886719 42.667969 "/>
<path style=" stroke:none;fill-rule:nonzero;fill:rgb(90.6%,14.9%,14.9%);fill-opacity:1;" d="M 503.128906 -10.980469 C 503.128906 3.636719 491.28125 15.484375 476.664062 15.484375 C 462.046875 15.484375 450.199219 3.636719 450.199219 -10.980469 C 450.199219 -25.597656 462.046875 -37.445312 476.664062 -37.445312 C 491.28125 -37.445312 503.128906 -25.597656 503.128906 -10.980469 "/>
<path style=" stroke:none;fill-rule:nonzero;fill:rgb(90.6%,14.9%,14.9%);fill-opacity:1;" d="M 456.277344 244.378906 C 456.277344 260.375 443.308594 273.347656 427.308594 273.347656 C 411.3125 273.347656 398.339844 260.375 398.339844 244.378906 C 398.339844 228.378906 411.3125 215.40625 427.308594 215.40625 C 443.308594 215.40625 456.277344 228.378906 456.277344 244.378906 "/>
<path style=" stroke:none;fill-rule:nonzero;fill:rgb(90.6%,14.9%,14.9%);fill-opacity:1;" d="M 535.675781 440.722656 C 535.675781 447.832031 529.910156 453.597656 522.800781 453.597656 C 515.691406 453.597656 509.925781 447.832031 509.925781 440.722656 C 509.925781 433.609375 515.691406 427.847656 522.800781 427.847656 C 529.910156 427.847656 535.675781 433.609375 535.675781 440.722656 "/>
<path style=" stroke:none;fill-rule:nonzero;fill:rgb(90.6%,14.9%,14.9%);fill-opacity:1;" d="M 91.84375 132.078125 C 91.84375 147.878906 79.03125 160.6875 63.230469 160.6875 C 47.429688 160.6875 34.621094 147.878906 34.621094 132.078125 C 34.621094 116.277344 47.429688 103.464844 63.230469 103.464844 C 79.03125 103.464844 91.84375 116.277344 91.84375 132.078125 "/>
<path style=" stroke:none;fill-rule:nonzero;fill:rgb(100%,100%,100%);fill-opacity:1;" d="M 382.605469 223.632812 C 382.605469 226.015625 379.027344 226.015625 379.027344 223.632812 C 379.027344 221.25 382.605469 221.25 382.605469 223.632812 "/>
<path style=" stroke:none;fill-rule:nonzero;fill:rgb(100%,100%,100%);fill-opacity:1;" d="M 95.417969 383.855469 C 95.417969 386.242188 91.84375 386.242188 91.84375 383.855469 C 91.84375 381.472656 95.417969 381.472656 95.417969 383.855469 "/>
<path style=" stroke:none;fill-rule:nonzero;fill:rgb(100%,100%,100%);fill-opacity:1;" d="M 374.378906 19.777344 C 374.378906 22.164062 370.804688 22.164062 370.804688 19.777344 C 370.804688 17.394531 374.378906 17.394531 374.378906 19.777344 "/>
<path style=" stroke:none;fill-rule:nonzero;fill:rgb(100%,100%,100%);fill-opacity:1;" d="M 5.292969 273.347656 C 5.292969 275.730469 1.714844 275.730469 1.714844 273.347656 C 1.714844 270.960938 5.292969 270.960938 5.292969 273.347656 "/>
<path style=" stroke:none;fill-rule:nonzero;fill:rgb(100%,100%,100%);fill-opacity:1;" d="M 110.441406 466.828125 C 110.441406 469.214844 106.863281 469.214844 106.863281 466.828125 C 106.863281 464.445312 110.441406 464.445312 110.441406 466.828125 "/>
<path style=" stroke:none;fill-rule:nonzero;fill:rgb(100%,100%,100%);fill-opacity:1;" d="M 489.183594 269.054688 C 489.183594 271.4375 485.605469 271.4375 485.605469 269.054688 C 485.605469 266.667969 489.183594 266.667969 489.183594 269.054688 "/>
<path style=" stroke:none;fill-rule:nonzero;fill:rgb(100%,100%,100%);fill-opacity:1;" d="M 502.058594 91.304688 C 502.058594 93.691406 498.480469 93.691406 498.480469 91.304688 C 498.480469 88.921875 502.058594 88.921875 502.058594 91.304688 "/>
<path style=" stroke:none;fill-rule:nonzero;fill:rgb(100%,100%,100%);fill-opacity:1;" d="M 29.613281 420.695312 C 29.613281 423.078125 26.035156 423.078125 26.035156 420.695312 C 26.035156 418.308594 29.613281 418.308594 29.613281 420.695312 "/>
<path style=" stroke:none;fill-rule:nonzero;fill:rgb(100%,100%,100%);fill-opacity:1;" d="M 60.371094 44.453125 C 60.371094 46.839844 56.792969 46.839844 56.792969 44.453125 C 56.792969 42.070312 60.371094 42.070312 60.371094 44.453125 "/>
<path style=" stroke:none;fill-rule:nonzero;fill:rgb(100%,100%,100%);fill-opacity:1;" d="M 11.730469 459.675781 C 11.730469 462.0625 8.152344 462.0625 8.152344 459.675781 C 8.152344 457.292969 11.730469 457.292969 11.730469 459.675781 "/>
<path style=" stroke:none;fill-rule:nonzero;fill:rgb(100%,100%,100%);fill-opacity:1;" d="M 175.53125 367.40625 C 175.53125 369.789062 171.953125 369.789062 171.953125 367.40625 C 171.953125 365.019531 175.53125 365.019531 175.53125 367.40625 "/>
<path style=" stroke:none;fill-rule:nonzero;fill:rgb(100%,100%,100%);fill-opacity:1;" d="M 463.433594 510.105469 C 463.433594 512.488281 459.855469 512.488281 459.855469 510.105469 C 459.855469 507.71875 463.433594 507.71875 463.433594 510.105469 "/>
<path style=" stroke:none;fill-rule:nonzero;fill:rgb(100%,100%,100%);fill-opacity:1;" d="M 465.21875 287.292969 C 465.21875 289.679688 461.644531 289.679688 461.644531 287.292969 C 461.644531 284.910156 465.21875 284.910156 465.21875 287.292969 "/>
<path style=" stroke:none;fill-rule:nonzero;fill:rgb(100%,100%,100%);fill-opacity:1;" d="M 118.308594 194.308594 C 118.308594 196.691406 114.730469 196.691406 114.730469 194.308594 C 114.730469 191.921875 118.308594 191.921875 118.308594 194.308594 "/>
<path style=" stroke:none;fill-rule:nonzero;fill:rgb(100%,100%,100%);fill-opacity:1;" d="M 33.1875 351.667969 C 33.1875 354.054688 29.613281 354.054688 29.613281 351.667969 C 29.613281 349.285156 33.1875 349.285156 33.1875 351.667969 "/>
<path style=" stroke:none;fill-rule:nonzero;fill:rgb(100%,100%,100%);fill-opacity:1;" d="M 490.613281 415.6875 C 490.613281 418.070312 487.035156 418.070312 487.035156 415.6875 C 487.035156 413.300781 490.613281 413.300781 490.613281 415.6875 "/>
<path style=" stroke:none;fill-rule:nonzero;fill:rgb(100%,100%,100%);fill-opacity:1;" d="M 467.722656 114.910156 C 467.722656 117.292969 464.148438 117.292969 464.148438 114.910156 C 464.148438 112.527344 467.722656 112.527344 467.722656 114.910156 "/>
<path style=" stroke:none;fill-rule:nonzero;fill:rgb(100%,100%,100%);fill-opacity:1;" d="M 341.476562 231.144531 C 341.476562 233.527344 337.898438 233.527344 337.898438 231.144531 C 337.898438 228.757812 341.476562 228.757812 341.476562 231.144531 "/>
<path style=" stroke:none;fill-rule:nonzero;fill:rgb(100%,100%,100%);fill-opacity:1;" d="M 355.78125 313.402344 C 355.78125 315.785156 352.207031 315.785156 352.207031 313.402344 C 352.207031 311.019531 355.78125 311.019531 355.78125 313.402344 "/>
<path style=" stroke:none;fill-rule:nonzero;fill:rgb(100%,100%,100%);fill-opacity:1;" d="M 434.820312 443.582031 C 434.820312 445.96875 431.246094 445.96875 431.246094 443.582031 C 431.246094 441.199219 434.820312 441.199219 434.820312 443.582031 "/>
<path style=" stroke:none;fill-rule:nonzero;fill:rgb(100%,100%,100%);fill-opacity:1;" d="M 42.84375 182.503906 C 42.84375 184.890625 39.269531 184.890625 39.269531 182.503906 C 39.269531 180.121094 42.84375 180.121094 42.84375 182.503906 "/>
<path style=" stroke:none;fill-rule:nonzero;fill:rgb(100%,100%,100%);fill-opacity:1;" d="M 73.601562 308.394531 C 73.601562 310.777344 70.027344 310.777344 70.027344 308.394531 C 70.027344 306.011719 73.601562 306.011719 73.601562 308.394531 "/>
<path style=" stroke:none;fill-rule:nonzero;fill:rgb(100%,100%,100%);fill-opacity:1;" d="M 483.816406 231.144531 C 483.816406 233.527344 480.242188 233.527344 480.242188 231.144531 C 480.242188 228.757812 483.816406 228.757812 483.816406 231.144531 "/>
<path style=" stroke:none;fill-rule:nonzero;fill:rgb(100%,100%,100%);fill-opacity:1;" d="M 181.253906 492.222656 C 181.253906 494.605469 177.675781 494.605469 177.675781 492.222656 C 177.675781 489.835938 181.253906 489.835938 181.253906 492.222656 "/>
<path style=" stroke:none;fill-rule:nonzero;fill:rgb(100%,100%,100%);fill-opacity:1;" d="M 499.554688 369.910156 C 499.554688 372.292969 495.976562 372.292969 495.976562 369.910156 C 495.976562 367.523438 499.554688 367.523438 499.554688 369.910156 "/>
<path style=" stroke:none;fill-rule:nonzero;fill:rgb(100%,100%,100%);fill-opacity:1;" d="M 435.894531 288.367188 C 435.894531 290.75 432.316406 290.75 432.316406 288.367188 C 432.316406 285.984375 435.894531 285.984375 435.894531 288.367188 "/>
<path style=" stroke:none;fill-rule:nonzero;fill:rgb(100%,100%,100%);fill-opacity:1;" d="M 358.285156 309.109375 C 358.285156 311.496094 354.707031 311.496094 354.707031 309.109375 C 354.707031 306.726562 358.285156 306.726562 358.285156 309.109375 "/>
<path style=" stroke:none;fill-rule:nonzero;fill:rgb(100%,100%,100%);fill-opacity:1;" d="M 496.691406 368.476562 C 496.691406 370.863281 493.117188 370.863281 493.117188 368.476562 C 493.117188 366.09375 496.691406 366.09375 496.691406 368.476562 "/>
<path style=" stroke:none;fill-rule:nonzero;fill:rgb(100%,100%,100%);fill-opacity:1;" d="M 463.433594 366.332031 C 463.433594 368.714844 459.855469 368.714844 459.855469 366.332031 C 459.855469 363.949219 463.433594 363.949219 463.433594 366.332031 "/>
<path style=" stroke:none;fill-rule:nonzero;fill:rgb(100%,100%,100%);fill-opacity:1;" d="M 351.132812 324.488281 C 351.132812 326.871094 347.558594 326.871094 347.558594 324.488281 C 347.558594 322.105469 351.132812 322.105469 351.132812 324.488281 "/>
<path style=" stroke:none;fill-rule:nonzero;fill:rgb(100%,100%,100%);fill-opacity:1;" d="M 29.96875 103.109375 C 29.96875 105.492188 26.394531 105.492188 26.394531 103.109375 C 26.394531 100.722656 29.96875 100.722656 29.96875 103.109375 "/>
<path style=" stroke:none;fill-rule:nonzero;fill:rgb(100%,100%,100%);fill-opacity:1;" d="M 380.101562 244.019531 C 380.101562 246.402344 376.523438 246.402344 376.523438 244.019531 C 376.523438 241.632812 380.101562 241.632812 380.101562 244.019531 "/>
<path style=" stroke:none;fill-rule:nonzero;fill:rgb(100%,100%,100%);fill-opacity:1;" d="M 51.785156 351.667969 C 51.785156 354.054688 48.210938 354.054688 48.210938 351.667969 C 48.210938 349.285156 51.785156 349.285156 51.785156 351.667969 "/>
<path style=" stroke:none;fill-rule:nonzero;fill:rgb(100%,100%,100%);fill-opacity:1;" d="M 30.328125 356.320312 C 30.328125 358.703125 26.75 358.703125 26.75 356.320312 C 26.75 353.933594 30.328125 353.933594 30.328125 356.320312 "/>
<path style=" stroke:none;fill-rule:nonzero;fill:rgb(100%,100%,100%);fill-opacity:1;" d="M 92.199219 45.527344 C 92.199219 47.914062 88.625 47.914062 88.625 45.527344 C 88.625 43.144531 92.199219 43.144531 92.199219 45.527344 "/>
<path style=" stroke:none;fill-rule:nonzero;fill:rgb(100%,100%,100%);fill-opacity:1;" d="M 456.277344 457.53125 C 456.277344 459.914062 452.703125 459.914062 452.703125 457.53125 C 452.703125 455.148438 456.277344 455.148438 456.277344 457.53125 "/>
<path style=" stroke:none;fill-rule:nonzero;fill:rgb(100%,100%,100%);fill-opacity:1;" d="M 56.078125 231.144531 C 56.078125 233.527344 52.5 233.527344 52.5 231.144531 C 52.5 228.757812 56.078125 228.757812 56.078125 231.144531 "/>
<path style=" stroke:none;fill-rule:nonzero;fill:rgb(100%,100%,100%);fill-opacity:1;" d="M 397.269531 163.550781 C 397.269531 165.933594 393.691406 165.933594 393.691406 163.550781 C 393.691406 161.164062 397.269531 161.164062 397.269531 163.550781 "/>
<path style=" stroke:none;fill-rule:nonzero;fill:rgb(100%,100%,100%);fill-opacity:1;" d="M 395.480469 241.871094 C 395.480469 244.257812 391.902344 244.257812 391.902344 241.871094 C 391.902344 239.488281 395.480469 239.488281 395.480469 241.871094 "/>
<path style=" stroke:none;fill-rule:nonzero;fill:rgb(100%,100%,100%);fill-opacity:1;" d="M 32.832031 244.019531 C 32.832031 246.402344 29.253906 246.402344 29.253906 244.019531 C 29.253906 241.632812 32.832031 241.632812 32.832031 244.019531 "/>
<path style=" stroke:none;fill-rule:nonzero;fill:rgb(100%,100%,100%);fill-opacity:1;" d="M 333.25 477.917969 C 333.25 480.300781 329.671875 480.300781 329.671875 477.917969 C 329.671875 475.53125 333.25 475.53125 333.25 477.917969 "/>
<path style=" stroke:none;fill-rule:nonzero;fill:rgb(100%,100%,100%);fill-opacity:1;" d="M 493.832031 12.980469 C 493.832031 15.367188 490.253906 15.367188 490.253906 12.980469 C 490.253906 10.597656 493.832031 10.597656 493.832031 12.980469 "/>
<path style=" stroke:none;fill-rule:nonzero;fill:rgb(100%,100%,100%);fill-opacity:1;" d="M 150.136719 261.1875 C 150.136719 263.570312 146.5625 263.570312 146.5625 261.1875 C 146.5625 258.800781 150.136719 258.800781 150.136719 261.1875 "/>
<path style=" stroke:none;fill-rule:nonzero;fill:rgb(100%,100%,100%);fill-opacity:1;" d="M 6.722656 216.480469 C 6.722656 218.867188 3.148438 218.867188 3.148438 216.480469 C 3.148438 214.097656 6.722656 214.097656 6.722656 216.480469 "/>
<path style=" stroke:none;fill-rule:nonzero;fill:rgb(100%,84.3%,0%);fill-opacity:1;" d="M 332.535156 465.757812 C 332.535156 468.140625 328.957031 468.140625 328.957031 465.757812 C 328.957031 463.371094 332.535156 463.371094 332.535156 465.757812 "/>
<path style=" stroke:none;fill-rule:nonzero;fill:rgb(100%,84.3%,0%);fill-opacity:1;" d="M 334.324219 310.183594 C 334.324219 312.566406 330.746094 312.566406 330.746094 310.183594 C 330.746094 307.796875 334.324219 307.796875 334.324219 310.183594 "/>
<path style=" stroke:none;fill-rule:nonzero;fill:rgb(100%,84.3%,0%);fill-opacity:1;" d="M 181.253906 367.40625 C 181.253906 369.789062 177.675781 369.789062 177.675781 367.40625 C 177.675781 365.019531 181.253906 365.019531 181.253906 367.40625 "/>
<path style=" stroke:none;fill-rule:nonzero;fill:rgb(100%,84.3%,0%);fill-opacity:1;" d="M 334.324219 306.605469 C 334.324219 308.992188 330.746094 308.992188 330.746094 306.605469 C 330.746094 304.222656 334.324219 304.222656 334.324219 306.605469 "/>
<path style=" stroke:none;fill-rule:nonzero;fill:rgb(100%,84.3%,0%);fill-opacity:1;" d="M 181.253906 363.828125 C 181.253906 366.214844 177.675781 366.214844 177.675781 363.828125 C 177.675781 361.445312 181.253906 361.445312 181.253906 363.828125 "/>
<path style=" stroke:none;fill-rule:nonzero;fill:rgb(100%,84.3%,0%);fill-opacity:1;" d="M 181.253906 370.980469 C 181.253906 373.367188 177.675781 373.367188 177.675781 370.980469 C 177.675781 368.597656 181.253906 368.597656 181.253906 370.980469 "/>
<path style=" stroke:none;fill-rule:nonzero;fill:rgb(100%,84.3%,0%);fill-opacity:1;" d="M 334.324219 231.144531 C 334.324219 233.527344 330.746094 233.527344 330.746094 231.144531 C 330.746094 228.757812 334.324219 228.757812 334.324219 231.144531 "/>
<path style=" stroke:none;fill-rule:nonzero;fill:rgb(100%,84.3%,0%);fill-opacity:1;" d="M 181.253906 360.253906 C 181.253906 362.636719 177.675781 362.636719 177.675781 360.253906 C 177.675781 357.867188 181.253906 357.867188 181.253906 360.253906 "/>
<path style=" stroke:none;fill-rule:nonzero;fill:rgb(100%,84.3%,0%);fill-opacity:1;" d="M 181.253906 374.558594 C 181.253906 376.941406 177.675781 376.941406 177.675781 374.558594 C 177.675781 372.171875 181.253906 372.171875 181.253906 374.558594 "/>
<path style=" stroke:none;fill-rule:nonzero;fill:rgb(100%,84.3%,0%);fill-opacity:1;" d="M 334.324219 234.71875 C 334.324219 237.105469 330.746094 237.105469 330.746094 234.71875 C 330.746094 232.335938 334.324219 232.335938 334.324219 234.71875 "/>
<path style=" stroke:none;fill-rule:nonzero;fill:rgb(100%,84.3%,0%);fill-opacity:1;" d="M 184.351562 365.617188 C 184.351562 368 180.773438 368 180.773438 365.617188 C 180.773438 363.234375 184.351562 363.234375 184.351562 365.617188 "/>
<path style=" stroke:none;fill-rule:nonzero;fill:rgb(100%,84.3%,0%);fill-opacity:1;" d="M 334.324219 303.03125 C 334.324219 305.414062 330.746094 305.414062 330.746094 303.03125 C 330.746094 300.644531 334.324219 300.644531 334.324219 303.03125 "/>
<path style=" stroke:none;fill-rule:nonzero;fill:rgb(100%,84.3%,0%);fill-opacity:1;" d="M 334.324219 227.566406 C 334.324219 229.953125 330.746094 229.953125 330.746094 227.566406 C 330.746094 225.183594 334.324219 225.183594 334.324219 227.566406 "/>
<path style=" stroke:none;fill-rule:nonzero;fill:rgb(100%,84.3%,0%);fill-opacity:1;" d="M 334.324219 238.296875 C 334.324219 240.679688 330.746094 240.679688 330.746094 238.296875 C 330.746094 235.914062 334.324219 235.914062 334.324219 238.296875 "/>
<path style=" stroke:none;fill-rule:nonzero;fill:rgb(100%,84.3%,0%);fill-opacity:1;" d="M 184.351562 369.195312 C 184.351562 371.578125 180.773438 371.578125 180.773438 369.195312 C 180.773438 366.808594 184.351562 366.808594 184.351562 369.195312 "/>
<path style=" stroke:none;fill-rule:nonzero;fill:rgb(100%,84.3%,0%);fill-opacity:1;" d="M 334.324219 223.992188 C 334.324219 226.375 330.746094 226.375 330.746094 223.992188 C 330.746094 221.605469 334.324219 221.605469 334.324219 223.992188 "/>
<path style=" stroke:none;fill-rule:nonzero;fill:rgb(100%,84.3%,0%);fill-opacity:1;" d="M 334.324219 299.453125 C 334.324219 301.835938 330.746094 301.835938 330.746094 299.453125 C 330.746094 297.070312 334.324219 297.070312 334.324219 299.453125 "/>
<path style=" stroke:none;fill-rule:nonzero;fill:rgb(100%,84.3%,0%);fill-opacity:1;" d="M 334.324219 241.871094 C 334.324219 244.257812 330.746094 244.257812 330.746094 241.871094 C 330.746094 239.488281 334.324219 239.488281 334.324219 241.871094 "/>
<path style=" stroke:none;fill-rule:nonzero;fill:rgb(100%,84.3%,0%);fill-opacity:1;" d="M 184.351562 362.039062 C 184.351562 364.425781 180.773438 364.425781 180.773438 362.039062 C 180.773438 359.65625 184.351562 359.65625 184.351562 362.039062 "/>
<path style=" stroke:none;fill-rule:nonzero;fill:rgb(100%,84.3%,0%);fill-opacity:1;" d="M 334.324219 220.414062 C 334.324219 222.800781 330.746094 222.800781 330.746094 220.414062 C 330.746094 218.03125 334.324219 218.03125 334.324219 220.414062 "/>
<path style=" stroke:none;fill-rule:nonzero;fill:rgb(100%,84.3%,0%);fill-opacity:1;" d="M 334.324219 295.878906 C 334.324219 298.261719 330.746094 298.261719 330.746094 295.878906 C 330.746094 293.492188 334.324219 293.492188 334.324219 295.878906 "/>
<path style=" stroke:none;fill-rule:nonzero;fill:rgb(100%,84.3%,0%);fill-opacity:1;" d="M 334.324219 313.757812 C 334.324219 316.144531 330.746094 316.144531 330.746094 313.757812 C 330.746094 311.375 334.324219 311.375 334.324219 313.757812 "/>
<path style=" stroke:none;fill-rule:nonzero;fill:rgb(100%,84.3%,0%);fill-opacity:1;" d="M 334.324219 317.335938 C 334.324219 319.71875 330.746094 319.71875 330.746094 317.335938 C 330.746094 314.953125 334.324219 314.953125 334.324219 317.335938 "/>
<path style=" stroke:none;fill-rule:nonzero;fill:rgb(100%,84.3%,0%);fill-opacity:1;" d="M 184.351562 372.769531 C 184.351562 375.152344 180.773438 375.152344 180.773438 372.769531 C 180.773438 370.386719 184.351562 370.386719 184.351562 372.769531 "/>
<path style=" stroke:none;fill-rule:nonzero;fill:rgb(100%,84.3%,0%);fill-opacity:1;" d="M 187.445312 367.40625 C 187.445312 369.789062 183.871094 369.789062 183.871094 367.40625 C 183.871094 365.019531 187.445312 365.019531 187.445312 367.40625 "/>
<path style=" stroke:none;fill-rule:nonzero;fill:rgb(100%,84.3%,0%);fill-opacity:1;" d="M 334.324219 320.910156 C 334.324219 323.296875 330.746094 323.296875 330.746094 320.910156 C 330.746094 318.527344 334.324219 318.527344 334.324219 320.910156 "/>
<path style=" stroke:none;fill-rule:nonzero;fill:rgb(100%,84.3%,0%);fill-opacity:1;" d="M 328.960938 465.757812 C 328.960938 468.140625 325.382812 468.140625 325.382812 465.757812 C 325.382812 463.371094 328.960938 463.371094 328.960938 465.757812 "/>
<path style=" stroke:none;fill-rule:nonzero;fill:rgb(100%,84.3%,0%);fill-opacity:1;" d="M 334.324219 292.300781 C 334.324219 294.683594 330.746094 294.683594 330.746094 292.300781 C 330.746094 289.917969 334.324219 289.917969 334.324219 292.300781 "/>
<path style=" stroke:none;fill-rule:nonzero;fill:rgb(100%,84.3%,0%);fill-opacity:1;" d="M 334.324219 324.488281 C 334.324219 326.871094 330.746094 326.871094 330.746094 324.488281 C 330.746094 322.105469 334.324219 322.105469 334.324219 324.488281 "/>
<path style=" stroke:none;fill-rule:nonzero;fill:rgb(100%,84.3%,0%);fill-opacity:1;" d="M 184.351562 358.464844 C 184.351562 360.847656 180.773438 360.847656 180.773438 358.464844 C 180.773438 356.078125 184.351562 356.078125 184.351562 358.464844 "/>
<path style=" stroke:none;fill-rule:nonzero;fill:rgb(100%,84.3%,0%);fill-opacity:1;" d="M 184.351562 376.347656 C 184.351562 378.730469 180.773438 378.730469 180.773438 376.347656 C 180.773438 373.960938 184.351562 373.960938 184.351562 376.347656 "/>
<path style=" stroke:none;fill-rule:nonzero;fill:rgb(100%,84.3%,0%);fill-opacity:1;" d="M 334.324219 288.722656 C 334.324219 291.109375 330.746094 291.109375 330.746094 288.722656 C 330.746094 286.339844 334.324219 286.339844 334.324219 288.722656 "/>
<path style=" stroke:none;fill-rule:nonzero;fill:rgb(100%,84.3%,0%);fill-opacity:1;" d="M 187.445312 370.980469 C 187.445312 373.367188 183.871094 373.367188 183.871094 370.980469 C 183.871094 368.597656 187.445312 368.597656 187.445312 370.980469 "/>
<path style=" stroke:none;fill-rule:nonzero;fill:rgb(100%,84.3%,0%);fill-opacity:1;" d="M 325.382812 465.757812 C 325.382812 468.140625 321.804688 468.140625 321.804688 465.757812 C 321.804688 463.371094 325.382812 463.371094 325.382812 465.757812 "/>
<path style=" stroke:none;fill-rule:nonzero;fill:rgb(100%,84.3%,0%);fill-opacity:1;" d="M 321.804688 465.757812 C 321.804688 468.140625 318.230469 468.140625 318.230469 465.757812 C 318.230469 463.371094 321.804688 463.371094 321.804688 465.757812 "/>
<path style=" stroke:none;fill-rule:nonzero;fill:rgb(100%,84.3%,0%);fill-opacity:1;" d="M 331.226562 232.933594 C 331.226562 235.316406 327.648438 235.316406 327.648438 232.933594 C 327.648438 230.546875 331.226562 230.546875 331.226562 232.933594 "/>
<path style=" stroke:none;fill-rule:nonzero;fill:rgb(100%,84.3%,0%);fill-opacity:1;" d="M 187.445312 363.828125 C 187.445312 366.214844 183.871094 366.214844 183.871094 363.828125 C 183.871094 361.445312 187.445312 361.445312 187.445312 363.828125 "/>
<path style=" stroke:none;fill-rule:nonzero;fill:rgb(100%,84.3%,0%);fill-opacity:1;" d="M 331.226562 229.355469 C 331.226562 231.742188 327.648438 231.742188 327.648438 229.355469 C 327.648438 226.972656 331.226562 226.972656 331.226562 229.355469 "/>
<path style=" stroke:none;fill-rule:nonzero;fill:rgb(100%,84.3%,0%);fill-opacity:1;" d="M 318.230469 465.757812 C 318.230469 468.140625 314.652344 468.140625 314.652344 465.757812 C 314.652344 463.371094 318.230469 463.371094 318.230469 465.757812 "/>
<path style=" stroke:none;fill-rule:nonzero;fill:rgb(100%,84.3%,0%);fill-opacity:1;" d="M 334.324219 285.148438 C 334.324219 287.53125 330.746094 287.53125 330.746094 285.148438 C 330.746094 282.765625 334.324219 282.765625 334.324219 285.148438 "/>
<path style=" stroke:none;fill-rule:nonzero;fill:rgb(100%,84.3%,0%);fill-opacity:1;" d="M 181.253906 378.136719 C 181.253906 380.519531 177.675781 380.519531 177.675781 378.136719 C 177.675781 375.75 181.253906 375.75 181.253906 378.136719 "/>
<path style=" stroke:none;fill-rule:nonzero;fill:rgb(100%,84.3%,0%);fill-opacity:1;" d="M 331.226562 236.507812 C 331.226562 238.894531 327.648438 238.894531 327.648438 236.507812 C 327.648438 234.125 331.226562 234.125 331.226562 236.507812 "/>
<path style=" stroke:none;fill-rule:nonzero;fill:rgb(100%,84.3%,0%);fill-opacity:1;" d="M 181.253906 356.675781 C 181.253906 359.058594 177.675781 359.058594 177.675781 356.675781 C 177.675781 354.292969 181.253906 354.292969 181.253906 356.675781 "/>
<path style=" stroke:none;fill-rule:nonzero;fill:rgb(100%,84.3%,0%);fill-opacity:1;" d="M 331.226562 225.777344 C 331.226562 228.164062 327.648438 228.164062 327.648438 225.777344 C 327.648438 223.394531 331.226562 223.394531 331.226562 225.777344 "/>
<path style=" stroke:none;fill-rule:nonzero;fill:rgb(100%,84.3%,0%);fill-opacity:1;" d="M 187.445312 360.253906 C 187.445312 362.636719 183.871094 362.636719 183.871094 360.253906 C 183.871094 357.867188 187.445312 357.867188 187.445312 360.253906 "/>
<path style=" stroke:none;fill-rule:nonzero;fill:rgb(100%,84.3%,0%);fill-opacity:1;" d="M 334.324219 281.570312 C 334.324219 283.957031 330.746094 283.957031 330.746094 281.570312 C 330.746094 279.1875 334.324219 279.1875 334.324219 281.570312 "/>
<path style=" stroke:none;fill-rule:nonzero;fill:rgb(100%,84.3%,0%);fill-opacity:1;" d="M 314.652344 465.757812 C 314.652344 468.140625 311.078125 468.140625 311.078125 465.757812 C 311.078125 463.371094 314.652344 463.371094 314.652344 465.757812 "/>
<path style=" stroke:none;fill-rule:nonzero;fill:rgb(100%,84.3%,0%);fill-opacity:1;" d="M 334.324219 345.945312 C 334.324219 348.332031 330.746094 348.332031 330.746094 345.945312 C 330.746094 343.5625 334.324219 343.5625 334.324219 345.945312 "/>
<path style=" stroke:none;fill-rule:nonzero;fill:rgb(100%,84.3%,0%);fill-opacity:1;" d="M 187.445312 374.558594 C 187.445312 376.941406 183.871094 376.941406 183.871094 374.558594 C 183.871094 372.171875 187.445312 372.171875 187.445312 374.558594 "/>
<path style=" stroke:none;fill-rule:nonzero;fill:rgb(100%,84.3%,0%);fill-opacity:1;" d="M 334.324219 328.066406 C 334.324219 330.449219 330.746094 330.449219 330.746094 328.066406 C 330.746094 325.679688 334.324219 325.679688 334.324219 328.066406 "/>
<path style=" stroke:none;fill-rule:nonzero;fill:rgb(100%,84.3%,0%);fill-opacity:1;" d="M 334.324219 342.371094 C 334.324219 344.753906 330.746094 344.753906 330.746094 342.371094 C 330.746094 339.988281 334.324219 339.988281 334.324219 342.371094 "/>
<path style=" stroke:none;fill-rule:nonzero;fill:rgb(100%,84.3%,0%);fill-opacity:1;" d="M 190.542969 365.617188 C 190.542969 368 186.96875 368 186.96875 365.617188 C 186.96875 363.234375 190.542969 363.234375 190.542969 365.617188 "/>
<path style=" stroke:none;fill-rule:nonzero;fill:rgb(100%,84.3%,0%);fill-opacity:1;" d="M 190.542969 369.195312 C 190.542969 371.578125 186.96875 371.578125 186.96875 369.195312 C 186.96875 366.808594 190.542969 366.808594 190.542969 369.195312 "/>
<path style=" stroke:none;fill-rule:nonzero;fill:rgb(100%,84.3%,0%);fill-opacity:1;" d="M 334.324219 331.640625 C 334.324219 334.023438 330.746094 334.023438 330.746094 331.640625 C 330.746094 329.257812 334.324219 329.257812 334.324219 331.640625 "/>
<path style=" stroke:none;fill-rule:nonzero;fill:rgb(100%,84.3%,0%);fill-opacity:1;" d="M 187.445312 356.675781 C 187.445312 359.058594 183.871094 359.058594 183.871094 356.675781 C 183.871094 354.292969 187.445312 354.292969 187.445312 356.675781 "/>
<path style=" stroke:none;fill-rule:nonzero;fill:rgb(100%,84.3%,0%);fill-opacity:1;" d="M 187.445312 378.136719 C 187.445312 380.519531 183.871094 380.519531 183.871094 378.136719 C 183.871094 375.75 187.445312 375.75 187.445312 378.136719 "/>
<path style=" stroke:none;fill-rule:nonzero;fill:rgb(100%,84.3%,0%);fill-opacity:1;" d="M 334.324219 277.996094 C 334.324219 280.378906 330.746094 280.378906 330.746094 277.996094 C 330.746094 275.609375 334.324219 275.609375 334.324219 277.996094 "/>
<path style=" stroke:none;fill-rule:nonzero;fill:rgb(100%,84.3%,0%);fill-opacity:1;" d="M 190.542969 362.039062 C 190.542969 364.425781 186.96875 364.425781 186.96875 362.039062 C 186.96875 359.65625 190.542969 359.65625 190.542969 362.039062 "/>
<path style=" stroke:none;fill-rule:nonzero;fill:rgb(100%,84.3%,0%);fill-opacity:1;" d="M 334.324219 338.792969 C 334.324219 341.179688 330.746094 341.179688 330.746094 338.792969 C 330.746094 336.410156 334.324219 336.410156 334.324219 338.792969 "/>
<path style=" stroke:none;fill-rule:nonzero;fill:rgb(100%,84.3%,0%);fill-opacity:1;" d="M 334.324219 335.21875 C 334.324219 337.601562 330.746094 337.601562 330.746094 335.21875 C 330.746094 332.832031 334.324219 332.832031 334.324219 335.21875 "/>
<path style=" stroke:none;fill-rule:nonzero;fill:rgb(100%,84.3%,0%);fill-opacity:1;" d="M 190.542969 372.769531 C 190.542969 375.152344 186.96875 375.152344 186.96875 372.769531 C 186.96875 370.386719 190.542969 370.386719 190.542969 372.769531 "/>
</g>
</svg>
