<?xml version="1.0" encoding="UTF-8"?>
<svg xmlns="http://www.w3.org/2000/svg" xmlns:xlink="http://www.w3.org/1999/xlink" width="512pt" height="512pt" viewBox="0 0 512 512" version="1.1">
<g id="surface61">
<path style=" stroke:none;fill-rule:nonzero;fill:rgb(26.7%,26.7%,26.7%);fill-opacity:1;" d="M 33.8125 0 L 478.191406 0 L 478.191406 512 L 33.8125 512 Z M 33.8125 0 "/>
<path style=" stroke:none;fill-rule:nonzero;fill:rgb(19.2%,38.8%,66.7%);fill-opacity:1;" d="M 70.84375 42.667969 L 441.15625 42.667969 L 441.15625 469.332031 L 70.84375 469.332031 Z M 70.84375 42.667969 "/>
<path style=" stroke:none;fill-rule:nonzero;fill:rgb(100%,100%,100%);fill-opacity:1;" d="M 42.667969 239.898438 C 42.667969 243.605469 39.664062 246.609375 35.957031 246.609375 C 32.253906 246.609375 29.25 243.605469 29.25 239.898438 C 29.25 236.195312 32.253906 233.191406 35.957031 233.191406 C 39.664062 233.191406 42.667969 236.195312 42.667969 239.898438 "/>
<path style=" stroke:none;fill-rule:nonzero;fill:rgb(100%,100%,100%);fill-opacity:1;" d="M 518.976562 489.460938 C 518.976562 493.164062 515.972656 496.167969 512.269531 496.167969 C 508.5625 496.167969 505.558594 493.164062 505.558594 489.460938 C 505.558594 485.753906 508.5625 482.75 512.269531 482.75 C 515.972656 482.75 518.976562 485.753906 518.976562 489.460938 "/>
<path style=" stroke:none;fill-rule:nonzero;fill:rgb(100%,100%,100%);fill-opacity:1;" d="M 141.953125 23.882812 C 141.953125 27.589844 138.949219 30.589844 135.246094 30.589844 C 131.539062 30.589844 128.535156 27.589844 128.535156 23.882812 C 128.535156 20.179688 131.539062 17.175781 135.246094 17.175781 C 138.949219 17.175781 141.953125 20.179688 141.953125 23.882812 "/>
<path style=" stroke:none;fill-rule:nonzero;fill:rgb(100%,100%,100%);fill-opacity:1;" d="M 143.296875 41.324219 C 143.296875 45.03125 140.292969 48.035156 136.585938 48.035156 C 132.882812 48.035156 129.878906 45.03125 129.878906 41.324219 C 129.878906 37.621094 132.882812 34.617188 136.585938 34.617188 C 140.292969 34.617188 143.296875 37.621094 143.296875 41.324219 "/>
<path style=" stroke:none;fill-rule:nonzero;fill:rgb(100%,100%,100%);fill-opacity:1;" d="M 15.832031 68.160156 C 15.832031 71.863281 12.828125 74.867188 9.125 74.867188 C 5.417969 74.867188 2.414062 71.863281 2.414062 68.160156 C 2.414062 64.453125 5.417969 61.449219 9.125 61.449219 C 12.828125 61.449219 15.832031 64.453125 15.832031 68.160156 "/>
<path style=" stroke:none;fill-rule:nonzero;fill:rgb(100%,100%,100%);fill-opacity:1;" d="M 422.375 508.242188 C 422.375 511.949219 419.371094 514.953125 415.664062 514.953125 C 411.960938 514.953125 408.957031 511.949219 408.957031 508.242188 C 408.957031 504.539062 411.960938 501.535156 415.664062 501.535156 C 419.371094 501.535156 422.375 504.539062 422.375 508.242188 "/>
<path style=" stroke:none;fill-rule:nonzero;fill:rgb(100%,100%,100%);fill-opacity:1;" d="M 1.074219 92.308594 C 1.074219 96.015625 -1.929688 99.019531 -5.636719 99.019531 C -9.339844 99.019531 -12.34375 96.015625 -12.34375 92.308594 C -12.34375 88.605469 -9.339844 85.601562 -5.636719 85.601562 C -1.929688 85.601562 1.074219 88.605469 1.074219 92.308594 "/>
<path style=" stroke:none;fill-rule:nonzero;fill:rgb(100%,100%,100%);fill-opacity:1;" d="M 517.636719 443.839844 C 517.636719 447.546875 514.632812 450.550781 510.925781 450.550781 C 507.222656 450.550781 504.21875 447.546875 504.21875 443.839844 C 504.21875 440.136719 507.222656 437.132812 510.925781 437.132812 C 514.632812 437.132812 517.636719 440.136719 517.636719 443.839844 "/>
<path style=" stroke:none;fill-rule:nonzero;fill:rgb(100%,100%,100%);fill-opacity:1;" d="M 21.199219 109.753906 C 21.199219 113.457031 18.195312 116.460938 14.492188 116.460938 C 10.785156 116.460938 7.78125 113.457031 7.78125 109.753906 C 7.78125 106.046875 10.785156 103.042969 14.492188 103.042969 C 18.195312 103.042969 21.199219 106.046875 21.199219 109.753906 "/>
<path style=" stroke:none;fill-rule:nonzero;fill:rgb(100%,100%,100%);fill-opacity:1;" d="M 72.183594 459.941406 C 72.183594 463.644531 69.179688 466.648438 65.476562 466.648438 C 61.769531 466.648438 58.765625 463.644531 58.765625 459.941406 C 58.765625 456.234375 61.769531 453.230469 65.476562 453.230469 C 69.179688 453.230469 72.183594 456.234375 72.183594 459.941406 "/>
<path style=" stroke:none;fill-rule:nonzero;fill:rgb(100%,100%,100%);fill-opacity:1;" d="M 23.882812 366.019531 C 23.882812 369.726562 20.878906 372.730469 17.175781 372.730469 C 13.46875 372.730469 10.464844 369.726562 10.464844 366.019531 C 10.464844 362.316406 13.46875 359.3125 17.175781 359.3125 C 20.878906 359.3125 23.882812 362.316406 23.882812 366.019531 "/>
<path style=" stroke:none;fill-rule:nonzero;fill:rgb(100%,100%,100%);fill-opacity:1;" d="M 89.625 34.617188 C 89.625 38.320312 86.625 41.324219 82.917969 41.324219 C 79.214844 41.324219 76.210938 38.320312 76.210938 34.617188 C 76.210938 30.910156 79.214844 27.90625 82.917969 27.90625 C 86.625 27.90625 89.625 30.910156 89.625 34.617188 "/>
<path style=" stroke:none;fill-rule:nonzero;fill:rgb(100%,100%,100%);fill-opacity:1;" d="M 200.988281 21.199219 C 200.988281 24.902344 197.984375 27.90625 194.28125 27.90625 C 190.574219 27.90625 187.574219 24.902344 187.574219 21.199219 C 187.574219 17.492188 190.574219 14.492188 194.28125 14.492188 C 197.984375 14.492188 200.988281 17.492188 200.988281 21.199219 "/>
<path style=" stroke:none;fill-rule:nonzero;fill:rgb(100%,100%,100%);fill-opacity:1;" d="M 513.609375 249.289062 C 513.609375 252.996094 510.605469 256 506.902344 256 C 503.195312 256 500.191406 252.996094 500.191406 249.289062 C 500.191406 245.585938 503.195312 242.582031 506.902344 242.582031 C 510.605469 242.582031 513.609375 245.585938 513.609375 249.289062 "/>
<path style=" stroke:none;fill-rule:nonzero;fill:rgb(100%,100%,100%);fill-opacity:1;" d="M 496.167969 345.894531 C 496.167969 349.601562 493.164062 352.605469 489.460938 352.605469 C 485.753906 352.605469 482.75 349.601562 482.75 345.894531 C 482.75 342.191406 485.753906 339.1875 489.460938 339.1875 C 493.164062 339.1875 496.167969 342.191406 496.167969 345.894531 "/>
<path style=" stroke:none;fill-rule:nonzero;fill:rgb(100%,100%,100%);fill-opacity:1;" d="M 467.992188 18.515625 C 467.992188 22.222656 464.988281 25.222656 461.28125 25.222656 C 457.578125 25.222656 454.574219 22.222656 454.574219 18.515625 C 454.574219 14.8125 457.578125 11.808594 461.28125 11.808594 C 464.988281 11.808594 467.992188 14.8125 467.992188 18.515625 "/>
<path style=" stroke:none;fill-rule:nonzero;fill:rgb(100%,100%,100%);fill-opacity:1;" d="M 454.574219 332.476562 C 454.574219 336.183594 451.570312 339.1875 447.867188 339.1875 C 444.160156 339.1875 441.15625 336.183594 441.15625 332.476562 C 441.15625 328.773438 444.160156 325.769531 447.867188 325.769531 C 451.570312 325.769531 454.574219 328.773438 454.574219 332.476562 "/>
<path style=" stroke:none;fill-rule:nonzero;fill:rgb(100%,100%,100%);fill-opacity:1;" d="M 69.5 73.527344 C 69.5 77.230469 66.496094 80.234375 62.792969 80.234375 C 59.085938 80.234375 56.082031 77.230469 56.082031 73.527344 C 56.082031 69.820312 59.085938 66.816406 62.792969 66.816406 C 66.496094 66.816406 69.5 69.820312 69.5 73.527344 "/>
<path style=" stroke:none;fill-rule:nonzero;fill:rgb(100%,100%,100%);fill-opacity:1;" d="M 256 6.441406 C 256 10.144531 252.996094 13.148438 249.289062 13.148438 C 245.585938 13.148438 242.582031 10.144531 242.582031 6.441406 C 242.582031 2.734375 245.585938 -0.269531 249.289062 -0.269531 C 252.996094 -0.269531 256 2.734375 256 6.441406 "/>
<path style=" stroke:none;fill-rule:nonzero;fill:rgb(100%,100%,100%);fill-opacity:1;" d="M 457.257812 70.84375 C 457.257812 74.546875 454.253906 77.550781 450.550781 77.550781 C 446.84375 77.550781 443.839844 74.546875 443.839844 70.84375 C 443.839844 67.136719 446.84375 64.132812 450.550781 64.132812 C 454.253906 64.132812 457.257812 67.136719 457.257812 70.84375 "/>
<path style=" stroke:none;fill-rule:nonzero;fill:rgb(100%,100%,100%);fill-opacity:1;" d="M 496.167969 128.535156 C 496.167969 132.242188 493.164062 135.246094 489.460938 135.246094 C 485.753906 135.246094 482.75 132.242188 482.75 128.535156 C 482.75 124.832031 485.753906 121.828125 489.460938 121.828125 C 493.164062 121.828125 496.167969 124.832031 496.167969 128.535156 "/>
<path style=" stroke:none;fill-rule:nonzero;fill:rgb(100%,100%,100%);fill-opacity:1;" d="M 514.953125 301.617188 C 514.953125 305.324219 511.949219 308.328125 508.242188 308.328125 C 504.539062 308.328125 501.535156 305.324219 501.535156 301.617188 C 501.535156 297.914062 504.539062 294.910156 508.242188 294.910156 C 511.949219 294.910156 514.953125 297.914062 514.953125 301.617188 "/>
<path style=" stroke:none;fill-rule:nonzero;fill:rgb(100%,100%,100%);fill-opacity:1;" d="M 100.359375 1.074219 C 100.359375 4.777344 97.355469 7.78125 93.652344 7.78125 C 89.945312 7.78125 86.945312 4.777344 86.945312 1.074219 C 86.945312 -2.632812 89.945312 -5.636719 93.652344 -5.636719 C 97.355469 -5.636719 100.359375 -2.632812 100.359375 1.074219 "/>
<path style=" stroke:none;fill-rule:nonzero;fill:rgb(100%,100%,100%);fill-opacity:1;" d="M 501.535156 215.746094 C 501.535156 219.453125 498.53125 222.457031 494.824219 222.457031 C 491.121094 222.457031 488.117188 219.453125 488.117188 215.746094 C 488.117188 212.042969 491.121094 209.039062 494.824219 209.039062 C 498.53125 209.039062 501.535156 212.042969 501.535156 215.746094 "/>
<path style=" stroke:none;fill-rule:nonzero;fill:rgb(100%,100%,100%);fill-opacity:1;" d="M 45.351562 219.773438 C 45.351562 223.480469 42.347656 226.484375 38.640625 226.484375 C 34.9375 226.484375 31.933594 223.480469 31.933594 219.773438 C 31.933594 216.070312 34.9375 213.066406 38.640625 213.066406 C 42.347656 213.066406 45.351562 216.070312 45.351562 219.773438 "/>
<path style=" stroke:none;fill-rule:nonzero;fill:rgb(100%,100%,100%);fill-opacity:1;" d="M 64.132812 143.296875 C 64.132812 147 61.132812 150.003906 57.425781 150.003906 C 53.722656 150.003906 50.71875 147 50.71875 143.296875 C 50.71875 139.589844 53.722656 136.585938 57.425781 136.585938 C 61.132812 136.585938 64.132812 139.589844 64.132812 143.296875 "/>
<path style=" stroke:none;fill-rule:nonzero;fill:rgb(100%,100%,100%);fill-opacity:1;" d="M 500.191406 44.007812 C 500.191406 47.714844 497.1875 50.714844 493.484375 50.714844 C 489.777344 50.714844 486.777344 47.714844 486.777344 44.007812 C 486.777344 40.304688 489.777344 37.300781 493.484375 37.300781 C 497.1875 37.300781 500.191406 40.304688 500.191406 44.007812 "/>
<path style=" stroke:none;fill-rule:nonzero;fill:rgb(100%,100%,100%);fill-opacity:1;" d="M 1.074219 400.90625 C 1.074219 404.609375 -1.929688 407.613281 -5.636719 407.613281 C -9.339844 407.613281 -12.34375 404.609375 -12.34375 400.90625 C -12.34375 397.199219 -9.339844 394.199219 -5.636719 394.199219 C -1.929688 394.199219 1.074219 397.199219 1.074219 400.90625 "/>
<path style=" stroke:none;fill-rule:nonzero;fill:rgb(100%,100%,100%);fill-opacity:1;" d="M 19.859375 510.925781 C 19.859375 514.632812 16.855469 517.636719 13.148438 517.636719 C 9.445312 517.636719 6.441406 514.632812 6.441406 510.925781 C 6.441406 507.222656 9.445312 504.21875 13.148438 504.21875 C 16.855469 504.21875 19.859375 507.222656 19.859375 510.925781 "/>
<path style=" stroke:none;fill-rule:nonzero;fill:rgb(100%,100%,100%);fill-opacity:1;" d="M 423.714844 501.535156 C 423.714844 505.238281 420.710938 508.242188 417.007812 508.242188 C 413.300781 508.242188 410.296875 505.238281 410.296875 501.535156 C 410.296875 497.828125 413.300781 494.828125 417.007812 494.828125 C 420.710938 494.828125 423.714844 497.828125 423.714844 501.535156 "/>
<path style=" stroke:none;fill-rule:nonzero;fill:rgb(100%,100%,100%);fill-opacity:1;" d="M 22.539062 378.097656 C 22.539062 381.800781 19.535156 384.804688 15.832031 384.804688 C 12.125 384.804688 9.125 381.800781 9.125 378.097656 C 9.125 374.390625 12.125 371.386719 15.832031 371.386719 C 19.535156 371.386719 22.539062 374.390625 22.539062 378.097656 "/>
<path style=" stroke:none;fill-rule:nonzero;fill:rgb(100%,100%,100%);fill-opacity:1;" d="M 510.925781 496.167969 C 510.925781 499.875 507.921875 502.875 504.21875 502.875 C 500.511719 502.875 497.507812 499.875 497.507812 496.167969 C 497.507812 492.464844 500.511719 489.460938 504.21875 489.460938 C 507.921875 489.460938 510.925781 492.464844 510.925781 496.167969 "/>
<path style=" stroke:none;fill-rule:nonzero;fill:rgb(100%,100%,100%);fill-opacity:1;" d="M 73.527344 147.320312 C 73.527344 151.027344 70.523438 154.03125 66.816406 154.03125 C 63.113281 154.03125 60.109375 151.027344 60.109375 147.320312 C 60.109375 143.617188 63.113281 140.613281 66.816406 140.613281 C 70.523438 140.613281 73.527344 143.617188 73.527344 147.320312 "/>
<path style=" stroke:none;fill-rule:nonzero;fill:rgb(100%,100%,100%);fill-opacity:1;" d="M 481.410156 115.117188 C 481.410156 118.824219 478.40625 121.828125 474.699219 121.828125 C 470.996094 121.828125 467.992188 118.824219 467.992188 115.117188 C 467.992188 111.414062 470.996094 108.410156 474.699219 108.410156 C 478.40625 108.410156 481.410156 111.414062 481.410156 115.117188 "/>
<path style=" stroke:none;fill-rule:nonzero;fill:rgb(100%,100%,100%);fill-opacity:1;" d="M 482.75 151.347656 C 482.75 155.050781 479.746094 158.054688 476.042969 158.054688 C 472.335938 158.054688 469.332031 155.050781 469.332031 151.347656 C 469.332031 147.640625 472.335938 144.636719 476.042969 144.636719 C 479.746094 144.636719 482.75 147.640625 482.75 151.347656 "/>
<path style=" stroke:none;fill-rule:nonzero;fill:rgb(100%,100%,100%);fill-opacity:1;" d="M 190.253906 5.097656 C 190.253906 8.804688 187.253906 11.808594 183.546875 11.808594 C 179.84375 11.808594 176.839844 8.804688 176.839844 5.097656 C 176.839844 1.394531 179.84375 -1.609375 183.546875 -1.609375 C 187.253906 -1.609375 190.253906 1.394531 190.253906 5.097656 "/>
<path style=" stroke:none;fill-rule:nonzero;fill:rgb(100%,100%,100%);fill-opacity:1;" d="M 398.222656 11.808594 C 398.222656 15.511719 395.21875 18.515625 391.515625 18.515625 C 387.808594 18.515625 384.804688 15.511719 384.804688 11.808594 C 384.804688 8.101562 387.808594 5.097656 391.515625 5.097656 C 395.21875 5.097656 398.222656 8.101562 398.222656 11.808594 "/>
<path style=" stroke:none;fill-rule:nonzero;fill:rgb(100%,100%,100%);fill-opacity:1;" d="M 400.90625 488.117188 C 400.90625 491.820312 397.902344 494.824219 394.195312 494.824219 C 390.492188 494.824219 387.488281 491.820312 387.488281 488.117188 C 387.488281 484.410156 390.492188 481.410156 394.195312 481.410156 C 397.902344 481.410156 400.90625 484.410156 400.90625 488.117188 "/>
<path style=" stroke:none;fill-rule:nonzero;fill:rgb(100%,100%,100%);fill-opacity:1;" d="M 512.269531 258.683594 C 512.269531 262.386719 509.265625 265.390625 505.558594 265.390625 C 501.855469 265.390625 498.851562 262.386719 498.851562 258.683594 C 498.851562 254.976562 501.855469 251.972656 505.558594 251.972656 C 509.265625 251.972656 512.269531 254.976562 512.269531 258.683594 "/>
<path style=" stroke:none;fill-rule:nonzero;fill:rgb(100%,100%,100%);fill-opacity:1;" d="M 84.257812 481.410156 C 84.257812 485.113281 81.257812 488.117188 77.550781 488.117188 C 73.847656 488.117188 70.84375 485.113281 70.84375 481.410156 C 70.84375 477.703125 73.847656 474.699219 77.550781 474.699219 C 81.257812 474.699219 84.257812 477.703125 84.257812 481.410156 "/>
<path style=" stroke:none;fill-rule:nonzero;fill:rgb(100%,100%,100%);fill-opacity:1;" d="M 517.636719 357.972656 C 517.636719 361.675781 514.632812 364.679688 510.925781 364.679688 C 507.222656 364.679688 504.21875 361.675781 504.21875 357.972656 C 504.21875 354.265625 507.222656 351.261719 510.925781 351.261719 C 514.632812 351.261719 517.636719 354.265625 517.636719 357.972656 "/>
<path style=" stroke:none;fill-rule:nonzero;fill:rgb(100%,100%,100%);fill-opacity:1;" d="M 56.082031 144.636719 C 56.082031 148.34375 53.078125 151.34375 49.375 151.34375 C 45.671875 151.34375 42.667969 148.34375 42.667969 144.636719 C 42.667969 140.933594 45.671875 137.929688 49.375 137.929688 C 53.078125 137.929688 56.082031 140.933594 56.082031 144.636719 "/>
<path style=" stroke:none;fill-rule:nonzero;fill:rgb(100%,100%,100%);fill-opacity:1;" d="M 1.074219 265.390625 C 1.074219 269.097656 -1.929688 272.101562 -5.636719 272.101562 C -9.339844 272.101562 -12.34375 269.097656 -12.34375 265.390625 C -12.34375 261.6875 -9.339844 258.683594 -5.636719 258.683594 C -1.929688 258.683594 1.074219 261.6875 1.074219 265.390625 "/>
<path style=" stroke:none;fill-rule:nonzero;fill:rgb(100%,100%,100%);fill-opacity:1;" d="M 54.742188 383.464844 C 54.742188 387.167969 51.738281 390.171875 48.035156 390.171875 C 44.328125 390.171875 41.324219 387.167969 41.324219 383.464844 C 41.324219 379.757812 44.328125 376.753906 48.035156 376.753906 C 51.738281 376.753906 54.742188 379.757812 54.742188 383.464844 "/>
<path style=" stroke:none;fill-rule:nonzero;fill:rgb(100%,100%,100%);fill-opacity:1;" d="M 510.925781 -0.269531 C 510.925781 3.4375 507.921875 6.441406 504.21875 6.441406 C 500.511719 6.441406 497.507812 3.4375 497.507812 -0.269531 C 497.507812 -3.972656 500.511719 -6.976562 504.21875 -6.976562 C 507.921875 -6.976562 510.925781 -3.972656 510.925781 -0.269531 "/>
<path style=" stroke:none;fill-rule:nonzero;fill:rgb(100%,100%,100%);fill-opacity:1;" d="M 13.148438 175.496094 C 13.148438 179.203125 10.144531 182.207031 6.441406 182.207031 C 2.734375 182.207031 -0.269531 179.203125 -0.269531 175.496094 C -0.269531 171.792969 2.734375 168.789062 6.441406 168.789062 C 10.144531 168.789062 13.148438 171.792969 13.148438 175.496094 "/>
<path style=" stroke:none;fill-rule:nonzero;fill:rgb(100%,100%,100%);fill-opacity:1;" d="M 450.550781 282.835938 C 450.550781 286.539062 447.546875 289.542969 443.839844 289.542969 C 440.136719 289.542969 437.132812 286.539062 437.132812 282.835938 C 437.132812 279.128906 440.136719 276.125 443.839844 276.125 C 447.546875 276.125 450.550781 279.128906 450.550781 282.835938 "/>
<path style=" stroke:none;fill-rule:nonzero;fill:rgb(100%,100%,100%);fill-opacity:1;" d="M 33.273438 209.039062 C 33.273438 212.746094 30.269531 215.75 26.566406 215.75 C 22.859375 215.75 19.855469 212.746094 19.855469 209.039062 C 19.855469 205.335938 22.859375 202.332031 26.566406 202.332031 C 30.269531 202.332031 33.273438 205.335938 33.273438 209.039062 "/>
<path style=" stroke:none;fill-rule:nonzero;fill:rgb(100%,100%,100%);fill-opacity:1;" d="M 455.917969 41.324219 C 455.917969 45.03125 452.914062 48.035156 449.207031 48.035156 C 445.503906 48.035156 442.5 45.03125 442.5 41.324219 C 442.5 37.621094 445.503906 34.617188 449.207031 34.617188 C 452.914062 34.617188 455.917969 37.621094 455.917969 41.324219 "/>
<path style=" stroke:none;fill-rule:nonzero;fill:rgb(100%,100%,100%);fill-opacity:1;" d="M 249.292969 34.617188 C 249.292969 38.320312 246.289062 41.324219 242.582031 41.324219 C 238.878906 41.324219 235.875 38.320312 235.875 34.617188 C 235.875 30.910156 238.878906 27.90625 242.582031 27.90625 C 246.289062 27.90625 249.292969 30.910156 249.292969 34.617188 "/>
<path style=" stroke:none;fill-rule:nonzero;fill:rgb(100%,100%,100%);fill-opacity:1;" d="M 516.292969 517.636719 C 516.292969 521.339844 513.289062 524.34375 509.585938 524.34375 C 505.878906 524.34375 502.875 521.339844 502.875 517.636719 C 502.875 513.929688 505.878906 510.925781 509.585938 510.925781 C 513.289062 510.925781 516.292969 513.929688 516.292969 517.636719 "/>
<path style=" stroke:none;fill-rule:nonzero;fill:rgb(100%,100%,100%);fill-opacity:1;" d="M 317.71875 517.636719 C 317.71875 521.339844 314.714844 524.34375 311.011719 524.34375 C 307.304688 524.34375 304.300781 521.339844 304.300781 517.636719 C 304.300781 513.929688 307.304688 510.925781 311.011719 510.925781 C 314.714844 510.925781 317.71875 513.929688 317.71875 517.636719 "/>
<path style=" stroke:none;fill-rule:nonzero;fill:rgb(100%,100%,100%);fill-opacity:1;" d="M 253.316406 2.414062 C 253.316406 6.121094 250.3125 9.125 246.609375 9.125 C 242.902344 9.125 239.898438 6.121094 239.898438 2.414062 C 239.898438 -1.289062 242.902344 -4.292969 246.609375 -4.292969 C 250.3125 -4.292969 253.316406 -1.289062 253.316406 2.414062 "/>
<path style=" stroke:none;fill-rule:nonzero;fill:rgb(100%,100%,100%);fill-opacity:1;" d="M 6.441406 10.464844 C 6.441406 14.171875 3.4375 17.171875 -0.269531 17.171875 C -3.972656 17.171875 -6.976562 14.171875 -6.976562 10.464844 C -6.976562 6.761719 -3.972656 3.757812 -0.269531 3.757812 C 3.4375 3.757812 6.441406 6.761719 6.441406 10.464844 "/>
<path style=" stroke:none;fill-rule:nonzero;fill:rgb(100%,100%,100%);fill-opacity:1;" d="M 52.058594 302.960938 C 52.058594 306.664062 49.054688 309.667969 45.351562 309.667969 C 41.644531 309.667969 38.640625 306.664062 38.640625 302.960938 C 38.640625 299.253906 41.644531 296.25 45.351562 296.25 C 49.054688 296.25 52.058594 299.253906 52.058594 302.960938 "/>
<path style=" stroke:none;fill-rule:nonzero;fill:rgb(100%,100%,100%);fill-opacity:1;" d="M 39.984375 347.238281 C 39.984375 350.941406 36.980469 353.945312 33.273438 353.945312 C 29.570312 353.945312 26.566406 350.941406 26.566406 347.238281 C 26.566406 343.53125 29.570312 340.527344 33.273438 340.527344 C 36.980469 340.527344 39.984375 343.53125 39.984375 347.238281 "/>
<path style=" stroke:none;fill-rule:nonzero;fill:rgb(100%,100%,100%);fill-opacity:1;" d="M 437.132812 510.925781 C 437.132812 514.632812 434.128906 517.636719 430.421875 517.636719 C 426.71875 517.636719 423.714844 514.632812 423.714844 510.925781 C 423.714844 507.222656 426.71875 504.21875 430.421875 504.21875 C 434.128906 504.21875 437.132812 507.222656 437.132812 510.925781 "/>
<path style=" stroke:none;fill-rule:nonzero;fill:rgb(100%,100%,100%);fill-opacity:1;" d="M 451.890625 431.765625 C 451.890625 435.46875 448.886719 438.472656 445.183594 438.472656 C 441.476562 438.472656 438.472656 435.46875 438.472656 431.765625 C 438.472656 428.058594 441.476562 425.054688 445.183594 425.054688 C 448.886719 425.054688 451.890625 428.058594 451.890625 431.765625 "/>
<path style=" stroke:none;fill-rule:nonzero;fill:rgb(100%,100%,100%);fill-opacity:1;" d="M 38.640625 502.875 C 38.640625 506.582031 35.636719 509.585938 31.933594 509.585938 C 28.226562 509.585938 25.222656 506.582031 25.222656 502.875 C 25.222656 499.171875 28.226562 496.167969 31.933594 496.167969 C 35.636719 496.167969 38.640625 499.171875 38.640625 502.875 "/>
<path style=" stroke:none;fill-rule:nonzero;fill:rgb(100%,100%,100%);fill-opacity:1;" d="M 70.84375 500.191406 C 70.84375 503.898438 67.839844 506.902344 64.132812 506.902344 C 60.429688 506.902344 57.425781 503.898438 57.425781 500.191406 C 57.425781 496.488281 60.429688 493.484375 64.132812 493.484375 C 67.839844 493.484375 70.84375 496.488281 70.84375 500.191406 "/>
<path style=" stroke:none;fill-rule:nonzero;fill:rgb(100%,100%,100%);fill-opacity:1;" d="M 239.898438 22.539062 C 239.898438 26.246094 236.894531 29.25 233.191406 29.25 C 229.484375 29.25 226.480469 26.246094 226.480469 22.539062 C 226.480469 18.835938 229.484375 15.832031 233.191406 15.832031 C 236.894531 15.832031 239.898438 18.835938 239.898438 22.539062 "/>
<path style=" stroke:none;fill-rule:nonzero;fill:rgb(100%,100%,100%);fill-opacity:1;" d="M 359.3125 7.78125 C 359.3125 11.488281 356.308594 14.492188 352.605469 14.492188 C 348.898438 14.492188 345.894531 11.488281 345.894531 7.78125 C 345.894531 4.078125 348.898438 1.074219 352.605469 1.074219 C 356.308594 1.074219 359.3125 4.078125 359.3125 7.78125 "/>
<path style=" stroke:none;fill-rule:nonzero;fill:rgb(100%,100%,100%);fill-opacity:1;" d="M 394.195312 29.25 C 394.195312 32.953125 391.191406 35.957031 387.488281 35.957031 C 383.78125 35.957031 380.78125 32.953125 380.78125 29.25 C 380.78125 25.542969 383.78125 22.539062 387.488281 22.539062 C 391.191406 22.539062 394.195312 25.542969 394.195312 29.25 "/>
<path style=" stroke:none;fill-rule:nonzero;fill:rgb(100%,100%,100%);fill-opacity:1;" d="M 485.433594 192.9375 C 485.433594 196.644531 482.429688 199.648438 478.726562 199.648438 C 475.019531 199.648438 472.015625 196.644531 472.015625 192.9375 C 472.015625 189.234375 475.019531 186.230469 478.726562 186.230469 C 482.429688 186.230469 485.433594 189.234375 485.433594 192.9375 "/>
<path style=" stroke:none;fill-rule:nonzero;fill:rgb(100%,100%,100%);fill-opacity:1;" d="M 152.6875 476.042969 C 152.6875 479.746094 149.683594 482.75 145.980469 482.75 C 142.273438 482.75 139.269531 479.746094 139.269531 476.042969 C 139.269531 472.335938 142.273438 469.332031 145.980469 469.332031 C 149.683594 469.332031 152.6875 472.335938 152.6875 476.042969 "/>
<path style=" stroke:none;fill-rule:nonzero;fill:rgb(100%,100%,100%);fill-opacity:1;" d="M 11.808594 453.234375 C 11.808594 456.9375 8.804688 459.941406 5.097656 459.941406 C 1.394531 459.941406 -1.609375 456.9375 -1.609375 453.234375 C -1.609375 449.527344 1.394531 446.523438 5.097656 446.523438 C 8.804688 446.523438 11.808594 449.527344 11.808594 453.234375 "/>
<path style=" stroke:none;fill-rule:nonzero;fill:rgb(100%,100%,100%);fill-opacity:1;" d="M 506.902344 251.976562 C 506.902344 255.679688 503.898438 258.683594 500.191406 258.683594 C 496.488281 258.683594 493.484375 255.679688 493.484375 251.976562 C 493.484375 248.269531 496.488281 245.265625 500.191406 245.265625 C 503.898438 245.265625 506.902344 248.269531 506.902344 251.976562 "/>
<path style=" stroke:none;fill-rule:nonzero;fill:rgb(100%,100%,100%);fill-opacity:1;" d="M 457.257812 506.902344 C 457.257812 510.605469 454.253906 513.609375 450.550781 513.609375 C 446.84375 513.609375 443.839844 510.605469 443.839844 506.902344 C 443.839844 503.195312 446.84375 500.191406 450.550781 500.191406 C 454.253906 500.191406 457.257812 503.195312 457.257812 506.902344 "/>
<path style=" stroke:none;fill-rule:nonzero;fill:rgb(100%,100%,100%);fill-opacity:1;" d="M 437.132812 472.015625 C 437.132812 475.722656 434.128906 478.726562 430.421875 478.726562 C 426.71875 478.726562 423.714844 475.722656 423.714844 472.015625 C 423.714844 468.3125 426.71875 465.308594 430.421875 465.308594 C 434.128906 465.308594 437.132812 468.3125 437.132812 472.015625 "/>
<path style=" stroke:none;fill-rule:nonzero;fill:rgb(100%,100%,100%);fill-opacity:1;" d="M 265.390625 477.382812 C 265.390625 481.089844 262.386719 484.09375 258.683594 484.09375 C 254.976562 484.09375 251.972656 481.089844 251.972656 477.382812 C 251.972656 473.679688 254.976562 470.675781 258.683594 470.675781 C 262.386719 470.675781 265.390625 473.679688 265.390625 477.382812 "/>
<path style=" stroke:none;fill-rule:nonzero;fill:rgb(100%,100%,100%);fill-opacity:1;" d="M 509.585938 482.75 C 509.585938 486.457031 506.582031 489.460938 502.875 489.460938 C 499.171875 489.460938 496.167969 486.457031 496.167969 482.75 C 496.167969 479.046875 499.171875 476.042969 502.875 476.042969 C 506.582031 476.042969 509.585938 479.046875 509.585938 482.75 "/>
<path style=" stroke:none;fill-rule:nonzero;fill:rgb(100%,100%,100%);fill-opacity:1;" d="M 90.96875 498.851562 C 90.96875 502.554688 87.964844 505.558594 84.261719 505.558594 C 80.554688 505.558594 77.550781 502.554688 77.550781 498.851562 C 77.550781 495.144531 80.554688 492.140625 84.261719 492.140625 C 87.964844 492.140625 90.96875 495.144531 90.96875 498.851562 "/>
<path style=" stroke:none;fill-rule:nonzero;fill:rgb(100%,100%,100%);fill-opacity:1;" d="M 341.871094 488.117188 C 341.871094 491.820312 338.867188 494.824219 335.160156 494.824219 C 331.457031 494.824219 328.453125 491.820312 328.453125 488.117188 C 328.453125 484.410156 331.457031 481.410156 335.160156 481.410156 C 338.867188 481.410156 341.871094 484.410156 341.871094 488.117188 "/>
<path style=" stroke:none;fill-rule:nonzero;fill:rgb(100%,100%,100%);fill-opacity:1;" d="M 13.148438 411.640625 C 13.148438 415.34375 10.144531 418.347656 6.441406 418.347656 C 2.734375 418.347656 -0.269531 415.34375 -0.269531 411.640625 C -0.269531 407.933594 2.734375 404.929688 6.441406 404.929688 C 10.144531 404.929688 13.148438 407.933594 13.148438 411.640625 "/>
<path style=" stroke:none;fill-rule:nonzero;fill:rgb(100%,100%,100%);fill-opacity:1;" d="M 45.351562 31.933594 C 45.351562 35.636719 42.347656 38.640625 38.640625 38.640625 C 34.9375 38.640625 31.933594 35.636719 31.933594 31.933594 C 31.933594 28.226562 34.9375 25.222656 38.640625 25.222656 C 42.347656 25.222656 45.351562 28.226562 45.351562 31.933594 "/>
<path style=" stroke:none;fill-rule:nonzero;fill:rgb(100%,100%,100%);fill-opacity:1;" d="M 453.234375 164.761719 C 453.234375 168.46875 450.230469 171.472656 446.523438 171.472656 C 442.820312 171.472656 439.816406 168.46875 439.816406 164.761719 C 439.816406 161.058594 442.820312 158.054688 446.523438 158.054688 C 450.230469 158.054688 453.234375 161.058594 453.234375 164.761719 "/>
<path style=" stroke:none;fill-rule:nonzero;fill:rgb(100%,84.3%,0%);fill-opacity:1;" d="M 110.898438 309.746094 C 110.898438 313.449219 107.894531 316.453125 104.191406 316.453125 C 100.484375 316.453125 97.480469 313.449219 97.480469 309.746094 C 97.480469 306.039062 100.484375 303.035156 104.191406 303.035156 C 107.894531 303.035156 110.898438 306.039062 110.898438 309.746094 "/>
<path style=" stroke:none;fill-rule:nonzero;fill:rgb(100%,84.3%,0%);fill-opacity:1;" d="M 168.1875 329.714844 C 168.1875 333.421875 165.183594 336.425781 161.480469 336.425781 C 157.773438 336.425781 154.769531 333.421875 154.769531 329.714844 C 154.769531 326.011719 157.773438 323.007812 161.480469 323.007812 C 165.183594 323.007812 168.1875 326.011719 168.1875 329.714844 "/>
<path style=" stroke:none;fill-rule:nonzero;fill:rgb(100%,84.3%,0%);fill-opacity:1;" d="M 152.09375 306.816406 C 152.09375 310.523438 149.089844 313.527344 145.382812 313.527344 C 141.679688 313.527344 138.675781 310.523438 138.675781 306.816406 C 138.675781 303.113281 141.679688 300.109375 145.382812 300.109375 C 149.089844 300.109375 152.09375 303.113281 152.09375 306.816406 "/>
<path style=" stroke:none;fill-rule:nonzero;fill:rgb(100%,84.3%,0%);fill-opacity:1;" d="M 192.691406 310.871094 C 192.691406 314.578125 189.6875 317.582031 185.984375 317.582031 C 182.277344 317.582031 179.273438 314.578125 179.273438 310.871094 C 179.273438 307.167969 182.277344 304.164062 185.984375 304.164062 C 189.6875 304.164062 192.691406 307.167969 192.691406 310.871094 "/>
<path style=" stroke:none;fill-rule:nonzero;fill:rgb(100%,84.3%,0%);fill-opacity:1;" d="M 372.523438 56.085938 C 372.523438 59.789062 369.519531 62.792969 365.816406 62.792969 C 362.109375 62.792969 359.105469 59.789062 359.105469 56.085938 C 359.105469 52.378906 362.109375 49.375 365.816406 49.375 C 369.519531 49.375 372.523438 52.378906 372.523438 56.085938 "/>
<path style=" stroke:none;fill-rule:nonzero;fill:rgb(100%,84.3%,0%);fill-opacity:1;" d="M 399.359375 56.085938 C 399.359375 59.789062 396.355469 62.792969 392.648438 62.792969 C 388.945312 62.792969 385.941406 59.789062 385.941406 56.085938 C 385.941406 52.378906 388.945312 49.375 392.648438 49.375 C 396.355469 49.375 399.359375 52.378906 399.359375 56.085938 "/>
<path style=" stroke:none;fill-rule:nonzero;fill:rgb(100%,84.3%,0%);fill-opacity:1;" d="M 104.386719 56.085938 C 104.386719 59.789062 101.382812 62.792969 97.675781 62.792969 C 93.972656 62.792969 90.96875 59.789062 90.96875 56.085938 C 90.96875 52.378906 93.972656 49.375 97.675781 49.375 C 101.382812 49.375 104.386719 52.378906 104.386719 56.085938 "/>
<path style=" stroke:none;fill-rule:nonzero;fill:rgb(100%,84.3%,0%);fill-opacity:1;" d="M 133.414062 56.085938 C 133.414062 59.789062 130.410156 62.792969 126.707031 62.792969 C 123 62.792969 119.996094 59.789062 119.996094 56.085938 C 119.996094 52.378906 123 49.375 126.707031 49.375 C 130.410156 49.375 133.414062 52.378906 133.414062 56.085938 "/>
<path style=" stroke:none;fill-rule:nonzero;fill:rgb(100%,84.3%,0%);fill-opacity:1;" d="M 90.96875 356.164062 C 90.96875 359.867188 87.964844 362.871094 84.261719 362.871094 C 80.554688 362.871094 77.550781 359.867188 77.550781 356.164062 C 77.550781 352.457031 80.554688 349.457031 84.261719 349.457031 C 87.964844 349.457031 90.96875 352.457031 90.96875 356.164062 "/>
<path style=" stroke:none;fill-rule:nonzero;fill:rgb(100%,84.3%,0%);fill-opacity:1;" d="M 434.449219 315.519531 C 434.449219 319.226562 431.445312 322.230469 427.738281 322.230469 C 424.035156 322.230469 421.03125 319.226562 421.03125 315.519531 C 421.03125 311.816406 424.035156 308.8125 427.738281 308.8125 C 431.445312 308.8125 434.449219 311.816406 434.449219 315.519531 "/>
<path style=" stroke:none;fill-rule:nonzero;fill:rgb(100%,84.3%,0%);fill-opacity:1;" d="M 90.96875 455.914062 C 90.96875 459.621094 87.964844 462.625 84.261719 462.625 C 80.554688 462.625 77.550781 459.621094 77.550781 455.914062 C 77.550781 452.210938 80.554688 449.207031 84.261719 449.207031 C 87.964844 449.207031 90.96875 452.210938 90.96875 455.914062 "/>
<path style=" stroke:none;fill-rule:nonzero;fill:rgb(100%,84.3%,0%);fill-opacity:1;" d="M 90.96875 82.917969 C 90.96875 86.625 87.964844 89.628906 84.261719 89.628906 C 80.554688 89.628906 77.550781 86.625 77.550781 82.917969 C 77.550781 79.214844 80.554688 76.210938 84.261719 76.210938 C 87.964844 76.210938 90.96875 79.214844 90.96875 82.917969 "/>
<path style=" stroke:none;fill-rule:nonzero;fill:rgb(100%,84.3%,0%);fill-opacity:1;" d="M 248.414062 56.085938 C 248.414062 59.789062 245.410156 62.792969 241.707031 62.792969 C 238 62.792969 234.996094 59.789062 234.996094 56.085938 C 234.996094 52.378906 238 49.375 241.707031 49.375 C 245.410156 49.375 248.414062 52.378906 248.414062 56.085938 "/>
<path style=" stroke:none;fill-rule:nonzero;fill:rgb(100%,84.3%,0%);fill-opacity:1;" d="M 323.832031 57.140625 C 323.832031 60.84375 320.828125 63.847656 317.121094 63.847656 C 313.417969 63.847656 310.414062 60.84375 310.414062 57.140625 C 310.414062 53.433594 313.417969 50.429688 317.121094 50.429688 C 320.828125 50.429688 323.832031 53.433594 323.832031 57.140625 "/>
<path style=" stroke:none;fill-rule:nonzero;fill:rgb(100%,84.3%,0%);fill-opacity:1;" d="M 434.449219 355.777344 C 434.449219 359.480469 431.445312 362.484375 427.738281 362.484375 C 424.035156 362.484375 421.03125 359.480469 421.03125 355.777344 C 421.03125 352.070312 424.035156 349.066406 427.738281 349.066406 C 431.445312 349.066406 434.449219 352.070312 434.449219 355.777344 "/>
<path style=" stroke:none;fill-rule:nonzero;fill:rgb(100%,84.3%,0%);fill-opacity:1;" d="M 352.769531 56.085938 C 352.769531 59.789062 349.765625 62.792969 346.0625 62.792969 C 342.355469 62.792969 339.351562 59.789062 339.351562 56.085938 C 339.351562 52.378906 342.355469 49.375 346.0625 49.375 C 349.765625 49.375 352.769531 52.378906 352.769531 56.085938 "/>
<path style=" stroke:none;fill-rule:nonzero;fill:rgb(100%,84.3%,0%);fill-opacity:1;" d="M 321.15625 455.914062 C 321.15625 459.621094 318.152344 462.625 314.445312 462.625 C 310.742188 462.625 307.738281 459.621094 307.738281 455.914062 C 307.738281 452.210938 310.742188 449.207031 314.445312 449.207031 C 318.152344 449.207031 321.15625 452.210938 321.15625 455.914062 "/>
<path style=" stroke:none;fill-rule:nonzero;fill:rgb(100%,84.3%,0%);fill-opacity:1;" d="M 90.96875 154.542969 C 90.96875 158.25 87.964844 161.25 84.261719 161.25 C 80.554688 161.25 77.550781 158.25 77.550781 154.542969 C 77.550781 150.839844 80.554688 147.835938 84.261719 147.835938 C 87.964844 147.835938 90.96875 150.839844 90.96875 154.542969 "/>
<path style=" stroke:none;fill-rule:nonzero;fill:rgb(100%,84.3%,0%);fill-opacity:1;" d="M 90.96875 229.128906 C 90.96875 232.832031 87.964844 235.835938 84.261719 235.835938 C 80.554688 235.835938 77.550781 232.832031 77.550781 229.128906 C 77.550781 225.421875 80.554688 222.417969 84.261719 222.417969 C 87.964844 222.417969 90.96875 225.421875 90.96875 229.128906 "/>
<path style=" stroke:none;fill-rule:nonzero;fill:rgb(100%,84.3%,0%);fill-opacity:1;" d="M 434.015625 120.1875 C 434.015625 123.890625 431.011719 126.894531 427.308594 126.894531 C 423.601562 126.894531 420.597656 123.890625 420.597656 120.1875 C 420.597656 116.480469 423.601562 113.476562 427.308594 113.476562 C 431.011719 113.476562 434.015625 116.480469 434.015625 120.1875 "/>
<path style=" stroke:none;fill-rule:nonzero;fill:rgb(100%,84.3%,0%);fill-opacity:1;" d="M 104.386719 455.914062 C 104.386719 459.621094 101.382812 462.625 97.675781 462.625 C 93.972656 462.625 90.96875 459.621094 90.96875 455.914062 C 90.96875 452.210938 93.972656 449.207031 97.675781 449.207031 C 101.382812 449.207031 104.386719 452.210938 104.386719 455.914062 "/>
<path style=" stroke:none;fill-rule:nonzero;fill:rgb(100%,84.3%,0%);fill-opacity:1;" d="M 434.449219 164.890625 C 434.449219 168.597656 431.445312 171.597656 427.738281 171.597656 C 424.035156 171.597656 421.03125 168.597656 421.03125 164.890625 C 421.03125 161.1875 424.035156 158.183594 427.738281 158.183594 C 431.445312 158.183594 434.449219 161.1875 434.449219 164.890625 "/>
<path style=" stroke:none;fill-rule:nonzero;fill:rgb(100%,84.3%,0%);fill-opacity:1;" d="M 434.207031 84.066406 C 434.207031 87.773438 431.203125 90.777344 427.5 90.777344 C 423.796875 90.777344 420.792969 87.773438 420.792969 84.066406 C 420.792969 80.363281 423.796875 77.359375 427.5 77.359375 C 431.203125 77.359375 434.207031 80.363281 434.207031 84.066406 "/>
<path style=" stroke:none;fill-rule:nonzero;fill:rgb(100%,84.3%,0%);fill-opacity:1;" d="M 191.855469 271.609375 C 191.855469 275.3125 188.851562 278.316406 185.148438 278.316406 C 181.441406 278.316406 178.4375 275.3125 178.4375 271.609375 C 178.4375 267.902344 181.441406 264.898438 185.148438 264.898438 C 188.851562 264.898438 191.855469 267.902344 191.855469 271.609375 "/>
<path style=" stroke:none;fill-rule:nonzero;fill:rgb(100%,84.3%,0%);fill-opacity:1;" d="M 200.824219 56.765625 C 200.824219 60.472656 197.820312 63.472656 194.117188 63.472656 C 190.410156 63.472656 187.40625 60.472656 187.40625 56.765625 C 187.40625 53.0625 190.410156 50.058594 194.117188 50.058594 C 197.820312 50.058594 200.824219 53.0625 200.824219 56.765625 "/>
<path style=" stroke:none;fill-rule:nonzero;fill:rgb(100%,84.3%,0%);fill-opacity:1;" d="M 90.96875 141.125 C 90.96875 144.832031 87.964844 147.835938 84.261719 147.835938 C 80.554688 147.835938 77.550781 144.832031 77.550781 141.125 C 77.550781 137.421875 80.554688 134.417969 84.261719 134.417969 C 87.964844 134.417969 90.96875 137.421875 90.96875 141.125 "/>
<path style=" stroke:none;fill-rule:nonzero;fill:rgb(100%,84.3%,0%);fill-opacity:1;" d="M 342.835938 455.914062 C 342.835938 459.621094 339.835938 462.625 336.128906 462.625 C 332.425781 462.625 329.421875 459.621094 329.421875 455.914062 C 329.421875 452.210938 332.425781 449.207031 336.128906 449.207031 C 339.835938 449.207031 342.835938 452.210938 342.835938 455.914062 "/>
<path style=" stroke:none;fill-rule:nonzero;fill:rgb(100%,84.3%,0%);fill-opacity:1;" d="M 434.449219 69.5 C 434.449219 73.207031 431.445312 76.210938 427.738281 76.210938 C 424.035156 76.210938 421.03125 73.207031 421.03125 69.5 C 421.03125 65.796875 424.035156 62.792969 427.738281 62.792969 C 431.445312 62.792969 434.449219 65.796875 434.449219 69.5 "/>
<path style=" stroke:none;fill-rule:nonzero;fill:rgb(100%,84.3%,0%);fill-opacity:1;" d="M 90.96875 256.171875 C 90.96875 259.875 87.964844 262.878906 84.261719 262.878906 C 80.554688 262.878906 77.550781 259.875 77.550781 256.171875 C 77.550781 252.464844 80.554688 249.460938 84.261719 249.460938 C 87.964844 249.460938 90.96875 252.464844 90.96875 256.171875 "/>
<path style=" stroke:none;fill-rule:nonzero;fill:rgb(100%,84.3%,0%);fill-opacity:1;" d="M 271.980469 455.914062 C 271.980469 459.621094 268.976562 462.625 265.273438 462.625 C 261.566406 462.625 258.5625 459.621094 258.5625 455.914062 C 258.5625 452.210938 261.566406 449.207031 265.273438 449.207031 C 268.976562 449.207031 271.980469 452.210938 271.980469 455.914062 "/>
<path style=" stroke:none;fill-rule:nonzero;fill:rgb(100%,84.3%,0%);fill-opacity:1;" d="M 179.691406 263 C 179.691406 266.707031 176.6875 269.710938 172.984375 269.710938 C 169.277344 269.710938 166.273438 266.707031 166.273438 263 C 166.273438 259.296875 169.277344 256.292969 172.984375 256.292969 C 176.6875 256.292969 179.691406 259.296875 179.691406 263 "/>
<path style=" stroke:none;fill-rule:nonzero;fill:rgb(100%,84.3%,0%);fill-opacity:1;" d="M 179.132812 309.589844 C 179.132812 313.296875 176.128906 316.300781 172.425781 316.300781 C 168.71875 316.300781 165.714844 313.296875 165.714844 309.589844 C 165.714844 305.886719 168.71875 302.882812 172.425781 302.882812 C 176.128906 302.882812 179.132812 305.886719 179.132812 309.589844 "/>
<path style=" stroke:none;fill-rule:nonzero;fill:rgb(100%,84.3%,0%);fill-opacity:1;" d="M 261.832031 56.085938 C 261.832031 59.789062 258.828125 62.792969 255.125 62.792969 C 251.417969 62.792969 248.414062 59.789062 248.414062 56.085938 C 248.414062 52.378906 251.417969 49.375 255.125 49.375 C 258.828125 49.375 261.832031 52.378906 261.832031 56.085938 "/>
<path style=" stroke:none;fill-rule:nonzero;fill:rgb(100%,84.3%,0%);fill-opacity:1;" d="M 154.316406 455.914062 C 154.316406 459.621094 151.3125 462.625 147.605469 462.625 C 143.902344 462.625 140.898438 459.621094 140.898438 455.914062 C 140.898438 452.210938 143.902344 449.207031 147.605469 449.207031 C 151.3125 449.207031 154.316406 452.210938 154.316406 455.914062 "/>
<path style=" stroke:none;fill-rule:nonzero;fill:rgb(100%,84.3%,0%);fill-opacity:1;" d="M 90.96875 69.5 C 90.96875 73.207031 87.964844 76.210938 84.261719 76.210938 C 80.554688 76.210938 77.550781 73.207031 77.550781 69.5 C 77.550781 65.796875 80.554688 62.792969 84.261719 62.792969 C 87.964844 62.792969 90.96875 65.796875 90.96875 69.5 "/>
<path style=" stroke:none;fill-rule:nonzero;fill:rgb(100%,84.3%,0%);fill-opacity:1;" d="M 434.449219 302.015625 C 434.449219 305.71875 431.445312 308.722656 427.738281 308.722656 C 424.035156 308.722656 421.03125 305.71875 421.03125 302.015625 C 421.03125 298.308594 424.035156 295.304688 427.738281 295.304688 C 431.445312 295.304688 434.449219 298.308594 434.449219 302.015625 "/>
<path style=" stroke:none;fill-rule:nonzero;fill:rgb(100%,84.3%,0%);fill-opacity:1;" d="M 90.96875 127.710938 C 90.96875 131.414062 87.964844 134.417969 84.261719 134.417969 C 80.554688 134.417969 77.550781 131.414062 77.550781 127.710938 C 77.550781 124.003906 80.554688 121 84.261719 121 C 87.964844 121 90.96875 124.003906 90.96875 127.710938 "/>
<path style=" stroke:none;fill-rule:nonzero;fill:rgb(100%,84.3%,0%);fill-opacity:1;" d="M 234.894531 56.085938 C 234.894531 59.789062 231.890625 62.792969 228.1875 62.792969 C 224.480469 62.792969 221.476562 59.789062 221.476562 56.085938 C 221.476562 52.378906 224.480469 49.375 228.1875 49.375 C 231.890625 49.375 234.894531 52.378906 234.894531 56.085938 "/>
<path style=" stroke:none;fill-rule:nonzero;fill:rgb(100%,84.3%,0%);fill-opacity:1;" d="M 154.644531 322.277344 C 154.644531 325.984375 151.640625 328.988281 147.9375 328.988281 C 144.230469 328.988281 141.226562 325.984375 141.226562 322.277344 C 141.226562 318.574219 144.230469 315.570312 147.9375 315.570312 C 151.640625 315.570312 154.644531 318.574219 154.644531 322.277344 "/>
<path style=" stroke:none;fill-rule:nonzero;fill:rgb(100%,84.3%,0%);fill-opacity:1;" d="M 434.449219 328.9375 C 434.449219 332.644531 431.445312 335.648438 427.738281 335.648438 C 424.035156 335.648438 421.03125 332.644531 421.03125 328.9375 C 421.03125 325.234375 424.035156 322.230469 427.738281 322.230469 C 431.445312 322.230469 434.449219 325.234375 434.449219 328.9375 "/>
<path style=" stroke:none;fill-rule:nonzero;fill:rgb(100%,84.3%,0%);fill-opacity:1;" d="M 434.449219 455.914062 C 434.449219 459.621094 431.445312 462.625 427.738281 462.625 C 424.035156 462.625 421.03125 459.621094 421.03125 455.914062 C 421.03125 452.210938 424.035156 449.207031 427.738281 449.207031 C 431.445312 449.207031 434.449219 452.210938 434.449219 455.914062 "/>
<path style=" stroke:none;fill-rule:nonzero;fill:rgb(100%,84.3%,0%);fill-opacity:1;" d="M 149.472656 56.359375 C 149.472656 60.0625 146.472656 63.066406 142.765625 63.066406 C 139.0625 63.066406 136.058594 60.0625 136.058594 56.359375 C 136.058594 52.652344 139.0625 49.652344 142.765625 49.652344 C 146.472656 49.652344 149.472656 52.652344 149.472656 56.359375 "/>
<path style=" stroke:none;fill-rule:nonzero;fill:rgb(100%,84.3%,0%);fill-opacity:1;" d="M 90.96875 56.085938 C 90.96875 59.789062 87.964844 62.792969 84.261719 62.792969 C 80.554688 62.792969 77.550781 59.789062 77.550781 56.085938 C 77.550781 52.378906 80.554688 49.375 84.261719 49.375 C 87.964844 49.375 90.96875 52.378906 90.96875 56.085938 "/>
<path style=" stroke:none;fill-rule:nonzero;fill:rgb(100%,84.3%,0%);fill-opacity:1;" d="M 177.910156 346.671875 C 177.910156 350.378906 174.90625 353.382812 171.203125 353.382812 C 167.496094 353.382812 164.492188 350.378906 164.492188 346.671875 C 164.492188 342.96875 167.496094 339.964844 171.203125 339.964844 C 174.90625 339.964844 177.910156 342.96875 177.910156 346.671875 "/>
<path style=" stroke:none;fill-rule:nonzero;fill:rgb(100%,84.3%,0%);fill-opacity:1;" d="M 434.449219 342.355469 C 434.449219 346.058594 431.445312 349.0625 427.738281 349.0625 C 424.035156 349.0625 421.03125 346.058594 421.03125 342.355469 C 421.03125 338.648438 424.035156 335.644531 427.738281 335.644531 C 431.445312 335.644531 434.449219 338.648438 434.449219 342.355469 "/>
<path style=" stroke:none;fill-rule:nonzero;fill:rgb(100%,84.3%,0%);fill-opacity:1;" d="M 258.5625 455.914062 C 258.5625 459.621094 255.558594 462.625 251.855469 462.625 C 248.148438 462.625 245.144531 459.621094 245.144531 455.914062 C 245.144531 452.210938 248.148438 449.207031 251.855469 449.207031 C 255.558594 449.207031 258.5625 452.210938 258.5625 455.914062 "/>
<path style=" stroke:none;fill-rule:nonzero;fill:rgb(100%,84.3%,0%);fill-opacity:1;" d="M 385.941406 56.085938 C 385.941406 59.789062 382.9375 62.792969 379.230469 62.792969 C 375.527344 62.792969 372.523438 59.789062 372.523438 56.085938 C 372.523438 52.378906 375.527344 49.375 379.230469 49.375 C 382.9375 49.375 385.941406 52.378906 385.941406 56.085938 "/>
<path style=" stroke:none;fill-rule:nonzero;fill:rgb(100%,84.3%,0%);fill-opacity:1;" d="M 188.367188 323.574219 C 188.367188 327.277344 185.363281 330.28125 181.65625 330.28125 C 177.953125 330.28125 174.949219 327.277344 174.949219 323.574219 C 174.949219 319.867188 177.953125 316.867188 181.65625 316.867188 C 185.363281 316.867188 188.367188 319.867188 188.367188 323.574219 "/>
<path style=" stroke:none;fill-rule:nonzero;fill:rgb(100%,84.3%,0%);fill-opacity:1;" d="M 434.449219 56.085938 C 434.449219 59.789062 431.445312 62.792969 427.738281 62.792969 C 424.035156 62.792969 421.03125 59.789062 421.03125 56.085938 C 421.03125 52.378906 424.035156 49.375 427.738281 49.375 C 431.445312 49.375 434.449219 52.378906 434.449219 56.085938 "/>
<path style=" stroke:none;fill-rule:nonzero;fill:rgb(100%,84.3%,0%);fill-opacity:1;" d="M 90.96875 242.546875 C 90.96875 246.25 87.964844 249.253906 84.261719 249.253906 C 80.554688 249.253906 77.550781 246.25 77.550781 242.546875 C 77.550781 238.839844 80.554688 235.835938 84.261719 235.835938 C 87.964844 235.835938 90.96875 238.839844 90.96875 242.546875 "/>
<path style=" stroke:none;fill-rule:nonzero;fill:rgb(100%,84.3%,0%);fill-opacity:1;" d="M 90.96875 167.960938 C 90.96875 171.667969 87.964844 174.667969 84.261719 174.667969 C 80.554688 174.667969 77.550781 171.667969 77.550781 167.960938 C 77.550781 164.257812 80.554688 161.253906 84.261719 161.253906 C 87.964844 161.253906 90.96875 164.257812 90.96875 167.960938 "/>
<path style=" stroke:none;fill-rule:nonzero;fill:rgb(100%,84.3%,0%);fill-opacity:1;" d="M 412.777344 56.085938 C 412.777344 59.789062 409.773438 62.792969 406.066406 62.792969 C 402.363281 62.792969 399.359375 59.789062 399.359375 56.085938 C 399.359375 52.378906 402.363281 49.375 406.066406 49.375 C 409.773438 49.375 412.777344 52.378906 412.777344 56.085938 "/>
</g>
</svg>
