<?xml version="1.0" encoding="UTF-8"?>
<svg xmlns="http://www.w3.org/2000/svg" xmlns:xlink="http://www.w3.org/1999/xlink" width="512pt" height="512pt" viewBox="0 0 512 512" version="1.1">
<g id="surface91">
<path style=" stroke:none;fill-rule:nonzero;fill:rgb(26.7%,26.7%,26.7%);fill-opacity:1;" d="M 0 130.425781 L 512 130.425781 L 512 381.570312 L 0 381.570312 Z M 0 130.425781 "/>
<path style=" stroke:none;fill-rule:nonzero;fill:rgb(19.2%,38.8%,66.7%);fill-opacity:1;" d="M 42.667969 151.355469 L 469.332031 151.355469 L 469.332031 360.644531 L 42.667969 360.644531 Z M 42.667969 151.355469 "/>
<path style=" stroke:none;fill-rule:nonzero;fill:rgb(100%,84.3%,0%);fill-opacity:1;" d="M 156.507812 345.140625 C 156.507812 348.738281 151.113281 348.738281 151.113281 345.140625 C 151.113281 341.546875 156.507812 341.546875 156.507812 345.140625 "/>
<path style=" stroke:none;fill-rule:nonzero;fill:rgb(100%,84.3%,0%);fill-opacity:1;" d="M 322.292969 215.222656 C 322.292969 218.816406 316.898438 218.816406 316.898438 215.222656 C 316.898438 211.625 322.292969 211.625 322.292969 215.222656 "/>
<path style=" stroke:none;fill-rule:nonzero;fill:rgb(100%,84.3%,0%);fill-opacity:1;" d="M 161.296875 235.789062 C 161.296875 239.386719 155.902344 239.386719 155.902344 235.789062 C 155.902344 232.195312 161.296875 232.195312 161.296875 235.789062 "/>
<path style=" stroke:none;fill-rule:nonzero;fill:rgb(100%,84.3%,0%);fill-opacity:1;" d="M 216.089844 290.605469 C 216.089844 294.199219 210.695312 294.199219 210.695312 290.605469 C 210.695312 287.007812 216.089844 287.007812 216.089844 290.605469 "/>
<path style=" stroke:none;fill-rule:nonzero;fill:rgb(100%,84.3%,0%);fill-opacity:1;" d="M 280.933594 288.234375 C 280.933594 291.828125 275.539062 291.828125 275.539062 288.234375 C 275.539062 284.636719 280.933594 284.636719 280.933594 288.234375 "/>
<path style=" stroke:none;fill-rule:nonzero;fill:rgb(100%,84.3%,0%);fill-opacity:1;" d="M 208.597656 200.921875 C 208.597656 204.515625 203.203125 204.515625 203.203125 200.921875 C 203.203125 197.324219 208.597656 197.324219 208.597656 200.921875 "/>
<path style=" stroke:none;fill-rule:nonzero;fill:rgb(100%,84.3%,0%);fill-opacity:1;" d="M 50.785156 160.394531 C 50.785156 163.988281 45.394531 163.988281 45.394531 160.394531 C 45.394531 156.796875 50.785156 156.796875 50.785156 160.394531 "/>
<path style=" stroke:none;fill-rule:nonzero;fill:rgb(100%,84.3%,0%);fill-opacity:1;" d="M 130.394531 217.308594 C 130.394531 220.90625 125 220.90625 125 217.308594 C 125 213.714844 130.394531 213.714844 130.394531 217.308594 "/>
<path style=" stroke:none;fill-rule:nonzero;fill:rgb(100%,84.3%,0%);fill-opacity:1;" d="M 73.710938 269.46875 C 73.710938 273.066406 68.316406 273.066406 68.316406 269.46875 C 68.316406 265.875 73.710938 265.875 73.710938 269.46875 "/>
<path style=" stroke:none;fill-rule:nonzero;fill:rgb(100%,84.3%,0%);fill-opacity:1;" d="M 402.695312 207.960938 C 402.695312 211.558594 397.300781 211.558594 397.300781 207.960938 C 397.300781 204.363281 402.695312 204.363281 402.695312 207.960938 "/>
<path style=" stroke:none;fill-rule:nonzero;fill:rgb(100%,84.3%,0%);fill-opacity:1;" d="M 58.019531 189.886719 C 58.019531 193.484375 52.625 193.484375 52.625 189.886719 C 52.625 186.292969 58.019531 186.292969 58.019531 189.886719 "/>
<path style=" stroke:none;fill-rule:nonzero;fill:rgb(100%,84.3%,0%);fill-opacity:1;" d="M 51.449219 181.558594 C 51.449219 185.15625 46.054688 185.15625 46.054688 181.558594 C 46.054688 177.964844 51.449219 177.964844 51.449219 181.558594 "/>
<path style=" stroke:none;fill-rule:nonzero;fill:rgb(100%,84.3%,0%);fill-opacity:1;" d="M 152.238281 310.488281 C 152.238281 314.085938 146.84375 314.085938 146.84375 310.488281 C 146.84375 306.890625 152.238281 306.890625 152.238281 310.488281 "/>
<path style=" stroke:none;fill-rule:nonzero;fill:rgb(100%,84.3%,0%);fill-opacity:1;" d="M 76.871094 263.464844 C 76.871094 267.0625 71.476562 267.0625 71.476562 263.464844 C 71.476562 259.867188 76.871094 259.867188 76.871094 263.464844 "/>
<path style=" stroke:none;fill-rule:nonzero;fill:rgb(100%,84.3%,0%);fill-opacity:1;" d="M 196.507812 250.652344 C 196.507812 254.246094 191.113281 254.246094 191.113281 250.652344 C 191.113281 247.054688 196.507812 247.054688 196.507812 250.652344 "/>
<path style=" stroke:none;fill-rule:nonzero;fill:rgb(100%,84.3%,0%);fill-opacity:1;" d="M 305.878906 220.949219 C 305.878906 224.546875 300.484375 224.546875 300.484375 220.949219 C 300.484375 217.355469 305.878906 217.355469 305.878906 220.949219 "/>
<path style=" stroke:none;fill-rule:nonzero;fill:rgb(100%,84.3%,0%);fill-opacity:1;" d="M 279.1875 194.011719 C 279.1875 197.609375 273.792969 197.609375 273.792969 194.011719 C 273.792969 190.417969 279.1875 190.417969 279.1875 194.011719 "/>
<path style=" stroke:none;fill-rule:nonzero;fill:rgb(100%,84.3%,0%);fill-opacity:1;" d="M 311.183594 254.605469 C 311.183594 258.203125 305.789062 258.203125 305.789062 254.605469 C 305.789062 251.011719 311.183594 251.011719 311.183594 254.605469 "/>
<path style=" stroke:none;fill-rule:nonzero;fill:rgb(100%,84.3%,0%);fill-opacity:1;" d="M 451.917969 231.417969 C 451.917969 235.011719 446.523438 235.011719 446.523438 231.417969 C 446.523438 227.820312 451.917969 227.820312 451.917969 231.417969 "/>
<path style=" stroke:none;fill-rule:nonzero;fill:rgb(100%,84.3%,0%);fill-opacity:1;" d="M 166.078125 174.769531 C 166.078125 178.367188 160.683594 178.367188 160.683594 174.769531 C 160.683594 171.175781 166.078125 171.175781 166.078125 174.769531 "/>
<path style=" stroke:none;fill-rule:nonzero;fill:rgb(100%,84.3%,0%);fill-opacity:1;" d="M 235.777344 229.976562 C 235.777344 233.570312 230.382812 233.570312 230.382812 229.976562 C 230.382812 226.378906 235.777344 226.378906 235.777344 229.976562 "/>
<path style=" stroke:none;fill-rule:nonzero;fill:rgb(100%,84.3%,0%);fill-opacity:1;" d="M 415.34375 335.214844 C 415.34375 338.8125 409.949219 338.8125 409.949219 335.214844 C 409.949219 331.621094 415.34375 331.621094 415.34375 335.214844 "/>
<path style=" stroke:none;fill-rule:nonzero;fill:rgb(100%,84.3%,0%);fill-opacity:1;" d="M 120.46875 169.605469 C 120.46875 173.203125 115.074219 173.203125 115.074219 169.605469 C 115.074219 166.011719 120.46875 166.011719 120.46875 169.605469 "/>
<path style=" stroke:none;fill-rule:nonzero;fill:rgb(100%,84.3%,0%);fill-opacity:1;" d="M 64.609375 284.085938 C 64.609375 287.679688 59.21875 287.679688 59.21875 284.085938 C 59.21875 280.488281 64.609375 280.488281 64.609375 284.085938 "/>
<path style=" stroke:none;fill-rule:nonzero;fill:rgb(100%,84.3%,0%);fill-opacity:1;" d="M 242.074219 261.875 C 242.074219 265.46875 236.679688 265.46875 236.679688 261.875 C 236.679688 258.277344 242.074219 258.277344 242.074219 261.875 "/>
<path style=" stroke:none;fill-rule:nonzero;fill:rgb(100%,84.3%,0%);fill-opacity:1;" d="M 210.0625 341.53125 C 210.0625 345.128906 204.667969 345.128906 204.667969 341.53125 C 204.667969 337.933594 210.0625 337.933594 210.0625 341.53125 "/>
<path style=" stroke:none;fill-rule:nonzero;fill:rgb(100%,84.3%,0%);fill-opacity:1;" d="M 125.808594 171.804688 C 125.808594 175.402344 120.414062 175.402344 120.414062 171.804688 C 120.414062 168.210938 125.808594 168.210938 125.808594 171.804688 "/>
<path style=" stroke:none;fill-rule:nonzero;fill:rgb(100%,84.3%,0%);fill-opacity:1;" d="M 292.742188 331.464844 C 292.742188 335.058594 287.347656 335.058594 287.347656 331.464844 C 287.347656 327.867188 292.742188 327.867188 292.742188 331.464844 "/>
<path style=" stroke:none;fill-rule:nonzero;fill:rgb(100%,84.3%,0%);fill-opacity:1;" d="M 299.703125 223.246094 C 299.703125 226.84375 294.308594 226.84375 294.308594 223.246094 C 294.308594 219.652344 299.703125 219.652344 299.703125 223.246094 "/>
<path style=" stroke:none;fill-rule:nonzero;fill:rgb(100%,84.3%,0%);fill-opacity:1;" d="M 369.113281 232.117188 C 369.113281 235.714844 363.71875 235.714844 363.71875 232.117188 C 363.71875 228.523438 369.113281 228.523438 369.113281 232.117188 "/>
<path style=" stroke:none;fill-rule:nonzero;fill:rgb(100%,84.3%,0%);fill-opacity:1;" d="M 232.75 209.550781 C 232.75 213.144531 227.355469 213.144531 227.355469 209.550781 C 227.355469 205.953125 232.75 205.953125 232.75 209.550781 "/>
<path style=" stroke:none;fill-rule:nonzero;fill:rgb(100%,84.3%,0%);fill-opacity:1;" d="M 101.605469 211.898438 C 101.605469 215.496094 96.210938 215.496094 96.210938 211.898438 C 96.210938 208.304688 101.605469 208.304688 101.605469 211.898438 "/>
<path style=" stroke:none;fill-rule:nonzero;fill:rgb(100%,84.3%,0%);fill-opacity:1;" d="M 446.195312 181.015625 C 446.195312 184.609375 440.800781 184.609375 440.800781 181.015625 C 440.800781 177.417969 446.195312 177.417969 446.195312 181.015625 "/>
<path style=" stroke:none;fill-rule:nonzero;fill:rgb(100%,84.3%,0%);fill-opacity:1;" d="M 175.328125 200.757812 C 175.328125 204.355469 169.933594 204.355469 169.933594 200.757812 C 169.933594 197.160156 175.328125 197.160156 175.328125 200.757812 "/>
<path style=" stroke:none;fill-rule:nonzero;fill:rgb(100%,84.3%,0%);fill-opacity:1;" d="M 392.828125 236.554688 C 392.828125 240.152344 387.4375 240.152344 387.4375 236.554688 C 387.4375 232.960938 392.828125 232.960938 392.828125 236.554688 "/>
<path style=" stroke:none;fill-rule:nonzero;fill:rgb(100%,84.3%,0%);fill-opacity:1;" d="M 326.179688 173.519531 C 326.179688 177.117188 320.785156 177.117188 320.785156 173.519531 C 320.785156 169.925781 326.179688 169.925781 326.179688 173.519531 "/>
<path style=" stroke:none;fill-rule:nonzero;fill:rgb(100%,84.3%,0%);fill-opacity:1;" d="M 275.953125 243.957031 C 275.953125 247.550781 270.558594 247.550781 270.558594 243.957031 C 270.558594 240.359375 275.953125 240.359375 275.953125 243.957031 "/>
<path style=" stroke:none;fill-rule:nonzero;fill:rgb(100%,84.3%,0%);fill-opacity:1;" d="M 214.21875 257.65625 C 214.21875 261.25 208.824219 261.25 208.824219 257.65625 C 208.824219 254.058594 214.21875 254.058594 214.21875 257.65625 "/>
<path style=" stroke:none;fill-rule:nonzero;fill:rgb(100%,84.3%,0%);fill-opacity:1;" d="M 209.871094 237.101562 C 209.871094 240.699219 204.480469 240.699219 204.480469 237.101562 C 204.480469 233.507812 209.871094 233.507812 209.871094 237.101562 "/>
<path style=" stroke:none;fill-rule:nonzero;fill:rgb(100%,84.3%,0%);fill-opacity:1;" d="M 378.546875 221.5625 C 378.546875 225.160156 373.152344 225.160156 373.152344 221.5625 C 373.152344 217.96875 378.546875 217.96875 378.546875 221.5625 "/>
<path style=" stroke:none;fill-rule:nonzero;fill:rgb(100%,84.3%,0%);fill-opacity:1;" d="M 354.164062 315.453125 C 354.164062 319.050781 348.769531 319.050781 348.769531 315.453125 C 348.769531 311.859375 354.164062 311.859375 354.164062 315.453125 "/>
<path style=" stroke:none;fill-rule:nonzero;fill:rgb(100%,84.3%,0%);fill-opacity:1;" d="M 173.007812 263.074219 C 173.007812 266.667969 167.613281 266.667969 167.613281 263.074219 C 167.613281 259.476562 173.007812 259.476562 173.007812 263.074219 "/>
<path style=" stroke:none;fill-rule:nonzero;fill:rgb(100%,84.3%,0%);fill-opacity:1;" d="M 280.382812 344.410156 C 280.382812 348.003906 274.988281 348.003906 274.988281 344.410156 C 274.988281 340.8125 280.382812 340.8125 280.382812 344.410156 "/>
<path style=" stroke:none;fill-rule:nonzero;fill:rgb(100%,84.3%,0%);fill-opacity:1;" d="M 291.960938 162.820312 C 291.960938 166.414062 286.566406 166.414062 286.566406 162.820312 C 286.566406 159.222656 291.960938 159.222656 291.960938 162.820312 "/>
<path style=" stroke:none;fill-rule:nonzero;fill:rgb(100%,84.3%,0%);fill-opacity:1;" d="M 102.777344 302.203125 C 102.777344 305.800781 97.382812 305.800781 97.382812 302.203125 C 97.382812 298.609375 102.777344 298.609375 102.777344 302.203125 "/>
<path style=" stroke:none;fill-rule:nonzero;fill:rgb(100%,84.3%,0%);fill-opacity:1;" d="M 73.445312 295.742188 C 73.445312 299.339844 68.050781 299.339844 68.050781 295.742188 C 68.050781 292.148438 73.445312 292.148438 73.445312 295.742188 "/>
<path style=" stroke:none;fill-rule:nonzero;fill:rgb(100%,84.3%,0%);fill-opacity:1;" d="M 186.304688 171.898438 C 186.304688 175.496094 180.910156 175.496094 180.910156 171.898438 C 180.910156 168.304688 186.304688 168.304688 186.304688 171.898438 "/>
<path style=" stroke:none;fill-rule:nonzero;fill:rgb(100%,84.3%,0%);fill-opacity:1;" d="M 83.332031 311.601562 C 83.332031 315.199219 77.9375 315.199219 77.9375 311.601562 C 77.9375 308.007812 83.332031 308.007812 83.332031 311.601562 "/>
<path style=" stroke:none;fill-rule:nonzero;fill:rgb(100%,84.3%,0%);fill-opacity:1;" d="M 74.160156 166.101562 C 74.160156 169.699219 68.765625 169.699219 68.765625 166.101562 C 68.765625 162.507812 74.160156 162.507812 74.160156 166.101562 "/>
<path style=" stroke:none;fill-rule:nonzero;fill:rgb(100%,84.3%,0%);fill-opacity:1;" d="M 265.320312 157.179688 C 265.320312 160.777344 259.925781 160.777344 259.925781 157.179688 C 259.925781 153.585938 265.320312 153.585938 265.320312 157.179688 "/>
<path style=" stroke:none;fill-rule:nonzero;fill:rgb(100%,84.3%,0%);fill-opacity:1;" d="M 120.960938 343.414062 C 120.960938 347.007812 115.566406 347.007812 115.566406 343.414062 C 115.566406 339.816406 120.960938 339.816406 120.960938 343.414062 "/>
<path style=" stroke:none;fill-rule:nonzero;fill:rgb(100%,84.3%,0%);fill-opacity:1;" d="M 54.269531 248.203125 C 54.269531 251.800781 48.875 251.800781 48.875 248.203125 C 48.875 244.609375 54.269531 244.609375 54.269531 248.203125 "/>
<path style=" stroke:none;fill-rule:nonzero;fill:rgb(100%,84.3%,0%);fill-opacity:1;" d="M 184.984375 283.675781 C 184.984375 287.269531 179.589844 287.269531 179.589844 283.675781 C 179.589844 280.078125 184.984375 280.078125 184.984375 283.675781 "/>
<path style=" stroke:none;fill-rule:nonzero;fill:rgb(100%,84.3%,0%);fill-opacity:1;" d="M 252.054688 322.84375 C 252.054688 326.441406 246.660156 326.441406 246.660156 322.84375 C 246.660156 319.25 252.054688 319.25 252.054688 322.84375 "/>
<path style=" stroke:none;fill-rule:nonzero;fill:rgb(100%,84.3%,0%);fill-opacity:1;" d="M 257.503906 315.511719 C 257.503906 319.109375 252.109375 319.109375 252.109375 315.511719 C 252.109375 311.917969 257.503906 311.917969 257.503906 315.511719 "/>
<path style=" stroke:none;fill-rule:nonzero;fill:rgb(100%,84.3%,0%);fill-opacity:1;" d="M 236.335938 277.519531 C 236.335938 281.117188 230.941406 281.117188 230.941406 277.519531 C 230.941406 273.925781 236.335938 273.925781 236.335938 277.519531 "/>
<path style=" stroke:none;fill-rule:nonzero;fill:rgb(100%,84.3%,0%);fill-opacity:1;" d="M 52.789062 267.027344 C 52.789062 270.621094 47.394531 270.621094 47.394531 267.027344 C 47.394531 263.429688 52.789062 263.429688 52.789062 267.027344 "/>
<path style=" stroke:none;fill-rule:nonzero;fill:rgb(100%,84.3%,0%);fill-opacity:1;" d="M 351.804688 252.910156 C 351.804688 256.503906 346.410156 256.503906 346.410156 252.910156 C 346.410156 249.3125 351.804688 249.3125 351.804688 252.910156 "/>
<path style=" stroke:none;fill-rule:nonzero;fill:rgb(100%,84.3%,0%);fill-opacity:1;" d="M 297.476562 201.8125 C 297.476562 205.40625 292.082031 205.40625 292.082031 201.8125 C 292.082031 198.214844 297.476562 198.214844 297.476562 201.8125 "/>
<path style=" stroke:none;fill-rule:nonzero;fill:rgb(100%,84.3%,0%);fill-opacity:1;" d="M 72.34375 244.910156 C 72.34375 248.507812 66.949219 248.507812 66.949219 244.910156 C 66.949219 241.3125 72.34375 241.3125 72.34375 244.910156 "/>
<path style=" stroke:none;fill-rule:nonzero;fill:rgb(100%,84.3%,0%);fill-opacity:1;" d="M 463.757812 328.183594 C 463.757812 331.78125 458.363281 331.78125 458.363281 328.183594 C 458.363281 324.589844 463.757812 324.589844 463.757812 328.183594 "/>
<path style=" stroke:none;fill-rule:nonzero;fill:rgb(100%,84.3%,0%);fill-opacity:1;" d="M 156.253906 210.902344 C 156.253906 214.496094 150.859375 214.496094 150.859375 210.902344 C 150.859375 207.304688 156.253906 207.304688 156.253906 210.902344 "/>
<path style=" stroke:none;fill-rule:nonzero;fill:rgb(100%,84.3%,0%);fill-opacity:1;" d="M 384.273438 304.828125 C 384.273438 308.421875 378.878906 308.421875 378.878906 304.828125 C 378.878906 301.230469 384.273438 301.230469 384.273438 304.828125 "/>
<path style=" stroke:none;fill-rule:nonzero;fill:rgb(100%,84.3%,0%);fill-opacity:1;" d="M 356.738281 300.023438 C 356.738281 303.617188 351.34375 303.617188 351.34375 300.023438 C 351.34375 296.425781 356.738281 296.425781 356.738281 300.023438 "/>
<path style=" stroke:none;fill-rule:nonzero;fill:rgb(100%,84.3%,0%);fill-opacity:1;" d="M 411.230469 354.972656 C 411.230469 358.570312 405.835938 358.570312 405.835938 354.972656 C 405.835938 351.378906 411.230469 351.378906 411.230469 354.972656 "/>
<path style=" stroke:none;fill-rule:nonzero;fill:rgb(100%,84.3%,0%);fill-opacity:1;" d="M 368.394531 191.300781 C 368.394531 194.894531 363 194.894531 363 191.300781 C 363 187.703125 368.394531 187.703125 368.394531 191.300781 "/>
<path style=" stroke:none;fill-rule:nonzero;fill:rgb(100%,84.3%,0%);fill-opacity:1;" d="M 167.386719 228.421875 C 167.386719 232.019531 161.992188 232.019531 161.992188 228.421875 C 161.992188 224.824219 167.386719 224.824219 167.386719 228.421875 "/>
<path style=" stroke:none;fill-rule:nonzero;fill:rgb(100%,84.3%,0%);fill-opacity:1;" d="M 376.851562 259.996094 C 376.851562 263.59375 371.460938 263.59375 371.460938 259.996094 C 371.460938 256.398438 376.851562 256.398438 376.851562 259.996094 "/>
<path style=" stroke:none;fill-rule:nonzero;fill:rgb(100%,84.3%,0%);fill-opacity:1;" d="M 457.910156 225.886719 C 457.910156 229.484375 452.515625 229.484375 452.515625 225.886719 C 452.515625 222.289062 457.910156 222.289062 457.910156 225.886719 "/>
<path style=" stroke:none;fill-rule:nonzero;fill:rgb(100%,84.3%,0%);fill-opacity:1;" d="M 269.285156 179.859375 C 269.285156 183.457031 263.890625 183.457031 263.890625 179.859375 C 263.890625 176.265625 269.285156 176.265625 269.285156 179.859375 "/>
<path style=" stroke:none;fill-rule:nonzero;fill:rgb(100%,84.3%,0%);fill-opacity:1;" d="M 225.507812 265.722656 C 225.507812 269.320312 220.113281 269.320312 220.113281 265.722656 C 220.113281 262.128906 225.507812 262.128906 225.507812 265.722656 "/>
<path style=" stroke:none;fill-rule:nonzero;fill:rgb(100%,84.3%,0%);fill-opacity:1;" d="M 184.214844 276.902344 C 184.214844 280.496094 178.820312 280.496094 178.820312 276.902344 C 178.820312 273.304688 184.214844 273.304688 184.214844 276.902344 "/>
<path style=" stroke:none;fill-rule:nonzero;fill:rgb(100%,84.3%,0%);fill-opacity:1;" d="M 142.152344 319.261719 C 142.152344 322.859375 136.757812 322.859375 136.757812 319.261719 C 136.757812 315.664062 142.152344 315.664062 142.152344 319.261719 "/>
<path style=" stroke:none;fill-rule:nonzero;fill:rgb(100%,84.3%,0%);fill-opacity:1;" d="M 215.226562 201.621094 C 215.226562 205.214844 209.835938 205.214844 209.835938 201.621094 C 209.835938 198.023438 215.226562 198.023438 215.226562 201.621094 "/>
<path style=" stroke:none;fill-rule:nonzero;fill:rgb(100%,84.3%,0%);fill-opacity:1;" d="M 226.886719 340.261719 C 226.886719 343.855469 221.492188 343.855469 221.492188 340.261719 C 221.492188 336.664062 226.886719 336.664062 226.886719 340.261719 "/>
<path style=" stroke:none;fill-rule:nonzero;fill:rgb(100%,84.3%,0%);fill-opacity:1;" d="M 464.066406 306.191406 C 464.066406 309.785156 458.675781 309.785156 458.675781 306.191406 C 458.675781 302.59375 464.066406 302.59375 464.066406 306.191406 "/>
<path style=" stroke:none;fill-rule:nonzero;fill:rgb(100%,84.3%,0%);fill-opacity:1;" d="M 351.851562 323.363281 C 351.851562 326.960938 346.457031 326.960938 346.457031 323.363281 C 346.457031 319.769531 351.851562 319.769531 351.851562 323.363281 "/>
<path style=" stroke:none;fill-rule:nonzero;fill:rgb(100%,84.3%,0%);fill-opacity:1;" d="M 445.109375 317.242188 C 445.109375 320.839844 439.714844 320.839844 439.714844 317.242188 C 439.714844 313.648438 445.109375 313.648438 445.109375 317.242188 "/>
<path style=" stroke:none;fill-rule:nonzero;fill:rgb(100%,84.3%,0%);fill-opacity:1;" d="M 51.734375 339.746094 C 51.734375 343.34375 46.339844 343.34375 46.339844 339.746094 C 46.339844 336.148438 51.734375 336.148438 51.734375 339.746094 "/>
<path style=" stroke:none;fill-rule:nonzero;fill:rgb(100%,84.3%,0%);fill-opacity:1;" d="M 386.160156 185.515625 C 386.160156 189.113281 380.769531 189.113281 380.769531 185.515625 C 380.769531 181.921875 386.160156 181.921875 386.160156 185.515625 "/>
<path style=" stroke:none;fill-rule:nonzero;fill:rgb(100%,84.3%,0%);fill-opacity:1;" d="M 89.230469 232.085938 C 89.230469 235.683594 83.839844 235.683594 83.839844 232.085938 C 83.839844 228.492188 89.230469 228.492188 89.230469 232.085938 "/>
<path style=" stroke:none;fill-rule:nonzero;fill:rgb(100%,84.3%,0%);fill-opacity:1;" d="M 464.472656 342.800781 C 464.472656 346.394531 459.078125 346.394531 459.078125 342.800781 C 459.078125 339.203125 464.472656 339.203125 464.472656 342.800781 "/>
<path style=" stroke:none;fill-rule:nonzero;fill:rgb(100%,84.3%,0%);fill-opacity:1;" d="M 88.207031 281.710938 C 88.207031 285.304688 82.8125 285.304688 82.8125 281.710938 C 82.8125 278.113281 88.207031 278.113281 88.207031 281.710938 "/>
<path style=" stroke:none;fill-rule:nonzero;fill:rgb(100%,84.3%,0%);fill-opacity:1;" d="M 241.4375 336.953125 C 241.4375 340.550781 236.042969 340.550781 236.042969 336.953125 C 236.042969 333.359375 241.4375 333.359375 241.4375 336.953125 "/>
<path style=" stroke:none;fill-rule:nonzero;fill:rgb(100%,84.3%,0%);fill-opacity:1;" d="M 282.929688 173.027344 C 282.929688 176.621094 277.535156 176.621094 277.535156 173.027344 C 277.535156 169.429688 282.929688 169.429688 282.929688 173.027344 "/>
<path style=" stroke:none;fill-rule:nonzero;fill:rgb(100%,84.3%,0%);fill-opacity:1;" d="M 464.003906 287.679688 C 464.003906 291.277344 458.609375 291.277344 458.609375 287.679688 C 458.609375 284.085938 464.003906 284.085938 464.003906 287.679688 "/>
<path style=" stroke:none;fill-rule:nonzero;fill:rgb(100%,84.3%,0%);fill-opacity:1;" d="M 285.542969 227.816406 C 285.542969 231.414062 280.148438 231.414062 280.148438 227.816406 C 280.148438 224.222656 285.542969 224.222656 285.542969 227.816406 "/>
<path style=" stroke:none;fill-rule:nonzero;fill:rgb(100%,84.3%,0%);fill-opacity:1;" d="M 151.078125 288.476562 C 151.078125 292.074219 145.683594 292.074219 145.683594 288.476562 C 145.683594 284.882812 151.078125 284.882812 151.078125 288.476562 "/>
<path style=" stroke:none;fill-rule:nonzero;fill:rgb(100%,84.3%,0%);fill-opacity:1;" d="M 224.535156 273.382812 C 224.535156 276.976562 219.144531 276.976562 219.144531 273.382812 C 219.144531 269.785156 224.535156 269.785156 224.535156 273.382812 "/>
<path style=" stroke:none;fill-rule:nonzero;fill:rgb(100%,84.3%,0%);fill-opacity:1;" d="M 380.574219 226.808594 C 380.574219 230.402344 375.179688 230.402344 375.179688 226.808594 C 375.179688 223.210938 380.574219 223.210938 380.574219 226.808594 "/>
<path style=" stroke:none;fill-rule:nonzero;fill:rgb(100%,84.3%,0%);fill-opacity:1;" d="M 83.691406 267.796875 C 83.691406 271.394531 78.300781 271.394531 78.300781 267.796875 C 78.300781 264.203125 83.691406 264.203125 83.691406 267.796875 "/>
<path style=" stroke:none;fill-rule:nonzero;fill:rgb(100%,84.3%,0%);fill-opacity:1;" d="M 161.460938 290.921875 C 161.460938 294.519531 156.066406 294.519531 156.066406 290.921875 C 156.066406 287.328125 161.460938 287.328125 161.460938 290.921875 "/>
<path style=" stroke:none;fill-rule:nonzero;fill:rgb(100%,84.3%,0%);fill-opacity:1;" d="M 194.492188 162.679688 C 194.492188 166.277344 189.101562 166.277344 189.101562 162.679688 C 189.101562 159.085938 194.492188 159.085938 194.492188 162.679688 "/>
<path style=" stroke:none;fill-rule:nonzero;fill:rgb(100%,84.3%,0%);fill-opacity:1;" d="M 184.457031 192.332031 C 184.457031 195.925781 179.0625 195.925781 179.0625 192.332031 C 179.0625 188.734375 184.457031 188.734375 184.457031 192.332031 "/>
<path style=" stroke:none;fill-rule:nonzero;fill:rgb(100%,84.3%,0%);fill-opacity:1;" d="M 421.855469 352.125 C 421.855469 355.722656 416.460938 355.722656 416.460938 352.125 C 416.460938 348.53125 421.855469 348.53125 421.855469 352.125 "/>
<path style=" stroke:none;fill-rule:nonzero;fill:rgb(100%,84.3%,0%);fill-opacity:1;" d="M 334.109375 291.769531 C 334.109375 295.363281 328.714844 295.363281 328.714844 291.769531 C 328.714844 288.171875 334.109375 288.171875 334.109375 291.769531 "/>
<path style=" stroke:none;fill-rule:nonzero;fill:rgb(100%,84.3%,0%);fill-opacity:1;" d="M 368.332031 221.375 C 368.332031 224.972656 362.9375 224.972656 362.9375 221.375 C 362.9375 217.78125 368.332031 217.78125 368.332031 221.375 "/>
<path style=" stroke:none;fill-rule:nonzero;fill:rgb(100%,84.3%,0%);fill-opacity:1;" d="M 266.554688 315.410156 C 266.554688 319.007812 261.160156 319.007812 261.160156 315.410156 C 261.160156 311.816406 266.554688 311.816406 266.554688 315.410156 "/>
<path style=" stroke:none;fill-rule:nonzero;fill:rgb(100%,84.3%,0%);fill-opacity:1;" d="M 153.359375 222.613281 C 153.359375 226.207031 147.964844 226.207031 147.964844 222.613281 C 147.964844 219.015625 153.359375 219.015625 153.359375 222.613281 "/>
<path style=" stroke:none;fill-rule:nonzero;fill:rgb(100%,84.3%,0%);fill-opacity:1;" d="M 422.234375 302.988281 C 422.234375 306.582031 416.839844 306.582031 416.839844 302.988281 C 416.839844 299.390625 422.234375 299.390625 422.234375 302.988281 "/>
<path style=" stroke:none;fill-rule:nonzero;fill:rgb(100%,84.3%,0%);fill-opacity:1;" d="M 98.644531 335.121094 C 98.644531 338.714844 93.253906 338.714844 93.253906 335.121094 C 93.253906 331.523438 98.644531 331.523438 98.644531 335.121094 "/>
<path style=" stroke:none;fill-rule:nonzero;fill:rgb(100%,84.3%,0%);fill-opacity:1;" d="M 406.558594 212.976562 C 406.558594 216.574219 401.164062 216.574219 401.164062 212.976562 C 401.164062 209.382812 406.558594 209.382812 406.558594 212.976562 "/>
<path style=" stroke:none;fill-rule:nonzero;fill:rgb(100%,84.3%,0%);fill-opacity:1;" d="M 425.246094 162.261719 C 425.246094 165.859375 419.851562 165.859375 419.851562 162.261719 C 419.851562 158.664062 425.246094 158.664062 425.246094 162.261719 "/>
<path style=" stroke:none;fill-rule:nonzero;fill:rgb(100%,84.3%,0%);fill-opacity:1;" d="M 325.097656 319.390625 C 325.097656 322.988281 319.703125 322.988281 319.703125 319.390625 C 319.703125 315.796875 325.097656 315.796875 325.097656 319.390625 "/>
<path style=" stroke:none;fill-rule:nonzero;fill:rgb(100%,84.3%,0%);fill-opacity:1;" d="M 378.730469 267.078125 C 378.730469 270.675781 373.335938 270.675781 373.335938 267.078125 C 373.335938 263.484375 378.730469 263.484375 378.730469 267.078125 "/>
<path style=" stroke:none;fill-rule:nonzero;fill:rgb(100%,84.3%,0%);fill-opacity:1;" d="M 212.664062 250.953125 C 212.664062 254.546875 207.273438 254.546875 207.273438 250.953125 C 207.273438 247.355469 212.664062 247.355469 212.664062 250.953125 "/>
<path style=" stroke:none;fill-rule:nonzero;fill:rgb(100%,84.3%,0%);fill-opacity:1;" d="M 420.789062 266.300781 C 420.789062 269.898438 415.394531 269.898438 415.394531 266.300781 C 415.394531 262.707031 420.789062 262.707031 420.789062 266.300781 "/>
<path style=" stroke:none;fill-rule:nonzero;fill:rgb(100%,84.3%,0%);fill-opacity:1;" d="M 175.882812 332.085938 C 175.882812 335.683594 170.488281 335.683594 170.488281 332.085938 C 170.488281 328.488281 175.882812 328.488281 175.882812 332.085938 "/>
<path style=" stroke:none;fill-rule:nonzero;fill:rgb(100%,84.3%,0%);fill-opacity:1;" d="M 306.296875 205.273438 C 306.296875 208.867188 300.902344 208.867188 300.902344 205.273438 C 300.902344 201.675781 306.296875 201.675781 306.296875 205.273438 "/>
<path style=" stroke:none;fill-rule:nonzero;fill:rgb(100%,84.3%,0%);fill-opacity:1;" d="M 76.714844 177.410156 C 76.714844 181.007812 71.320312 181.007812 71.320312 177.410156 C 71.320312 173.816406 76.714844 173.816406 76.714844 177.410156 "/>
<path style=" stroke:none;fill-rule:nonzero;fill:rgb(100%,84.3%,0%);fill-opacity:1;" d="M 191.101562 326.933594 C 191.101562 330.527344 185.707031 330.527344 185.707031 326.933594 C 185.707031 323.335938 191.101562 323.335938 191.101562 326.933594 "/>
<path style=" stroke:none;fill-rule:nonzero;fill:rgb(100%,84.3%,0%);fill-opacity:1;" d="M 466.320312 351.664062 C 466.320312 355.261719 460.925781 355.261719 460.925781 351.664062 C 460.925781 348.066406 466.320312 348.066406 466.320312 351.664062 "/>
<path style=" stroke:none;fill-rule:nonzero;fill:rgb(100%,84.3%,0%);fill-opacity:1;" d="M 237.726562 256.988281 C 237.726562 260.582031 232.332031 260.582031 232.332031 256.988281 C 232.332031 253.390625 237.726562 253.390625 237.726562 256.988281 "/>
<path style=" stroke:none;fill-rule:nonzero;fill:rgb(100%,84.3%,0%);fill-opacity:1;" d="M 233.394531 219.773438 C 233.394531 223.371094 228 223.371094 228 219.773438 C 228 216.179688 233.394531 216.179688 233.394531 219.773438 "/>
<path style=" stroke:none;fill-rule:nonzero;fill:rgb(100%,84.3%,0%);fill-opacity:1;" d="M 225.097656 259.582031 C 225.097656 263.179688 219.703125 263.179688 219.703125 259.582031 C 219.703125 255.988281 225.097656 255.988281 225.097656 259.582031 "/>
<path style=" stroke:none;fill-rule:nonzero;fill:rgb(100%,84.3%,0%);fill-opacity:1;" d="M 448.4375 185.925781 C 448.4375 189.519531 443.046875 189.519531 443.046875 185.925781 C 443.046875 182.328125 448.4375 182.328125 448.4375 185.925781 "/>
<path style=" stroke:none;fill-rule:nonzero;fill:rgb(100%,84.3%,0%);fill-opacity:1;" d="M 266.011719 167.914062 C 266.011719 171.511719 260.617188 171.511719 260.617188 167.914062 C 260.617188 164.320312 266.011719 164.320312 266.011719 167.914062 "/>
<path style=" stroke:none;fill-rule:nonzero;fill:rgb(100%,84.3%,0%);fill-opacity:1;" d="M 216.113281 283.007812 C 216.113281 286.605469 210.71875 286.605469 210.71875 283.007812 C 210.71875 279.410156 216.113281 279.410156 216.113281 283.007812 "/>
<path style=" stroke:none;fill-rule:nonzero;fill:rgb(100%,84.3%,0%);fill-opacity:1;" d="M 129.613281 256.03125 C 129.613281 259.628906 124.21875 259.628906 124.21875 256.03125 C 124.21875 252.4375 129.613281 252.4375 129.613281 256.03125 "/>
<path style=" stroke:none;fill-rule:nonzero;fill:rgb(100%,84.3%,0%);fill-opacity:1;" d="M 350.636719 262.101562 C 350.636719 265.695312 345.242188 265.695312 345.242188 262.101562 C 345.242188 258.503906 350.636719 258.503906 350.636719 262.101562 "/>
<path style=" stroke:none;fill-rule:nonzero;fill:rgb(100%,84.3%,0%);fill-opacity:1;" d="M 347.382812 244.921875 C 347.382812 248.519531 341.988281 248.519531 341.988281 244.921875 C 341.988281 241.324219 347.382812 241.324219 347.382812 244.921875 "/>
<path style=" stroke:none;fill-rule:nonzero;fill:rgb(100%,84.3%,0%);fill-opacity:1;" d="M 319.195312 189.898438 C 319.195312 193.492188 313.800781 193.492188 313.800781 189.898438 C 313.800781 186.300781 319.195312 186.300781 319.195312 189.898438 "/>
<path style=" stroke:none;fill-rule:nonzero;fill:rgb(100%,84.3%,0%);fill-opacity:1;" d="M 115.195312 288.160156 C 115.195312 291.757812 109.800781 291.757812 109.800781 288.160156 C 109.800781 284.566406 115.195312 284.566406 115.195312 288.160156 "/>
<path style=" stroke:none;fill-rule:nonzero;fill:rgb(100%,84.3%,0%);fill-opacity:1;" d="M 380.796875 289.242188 C 380.796875 292.835938 375.402344 292.835938 375.402344 289.242188 C 375.402344 285.644531 380.796875 285.644531 380.796875 289.242188 "/>
<path style=" stroke:none;fill-rule:nonzero;fill:rgb(100%,84.3%,0%);fill-opacity:1;" d="M 287.132812 158.648438 C 287.132812 162.242188 281.738281 162.242188 281.738281 158.648438 C 281.738281 155.050781 287.132812 155.050781 287.132812 158.648438 "/>
<path style=" stroke:none;fill-rule:nonzero;fill:rgb(100%,84.3%,0%);fill-opacity:1;" d="M 249.640625 196.136719 C 249.640625 199.734375 244.246094 199.734375 244.246094 196.136719 C 244.246094 192.539062 249.640625 192.539062 249.640625 196.136719 "/>
<path style=" stroke:none;fill-rule:nonzero;fill:rgb(100%,84.3%,0%);fill-opacity:1;" d="M 252.34375 248.425781 C 252.34375 252.023438 246.949219 252.023438 246.949219 248.425781 C 246.949219 244.832031 252.34375 244.832031 252.34375 248.425781 "/>
<path style=" stroke:none;fill-rule:nonzero;fill:rgb(100%,84.3%,0%);fill-opacity:1;" d="M 385.792969 291.835938 C 385.792969 295.429688 380.398438 295.429688 380.398438 291.835938 C 380.398438 288.238281 385.792969 288.238281 385.792969 291.835938 "/>
<path style=" stroke:none;fill-rule:nonzero;fill:rgb(100%,84.3%,0%);fill-opacity:1;" d="M 421.863281 202.429688 C 421.863281 206.027344 416.46875 206.027344 416.46875 202.429688 C 416.46875 198.835938 421.863281 198.835938 421.863281 202.429688 "/>
<path style=" stroke:none;fill-rule:nonzero;fill:rgb(100%,84.3%,0%);fill-opacity:1;" d="M 196.75 222.878906 C 196.75 226.472656 191.355469 226.472656 191.355469 222.878906 C 191.355469 219.28125 196.75 219.28125 196.75 222.878906 "/>
<path style=" stroke:none;fill-rule:nonzero;fill:rgb(100%,84.3%,0%);fill-opacity:1;" d="M 309.039062 286.828125 C 309.039062 290.425781 303.644531 290.425781 303.644531 286.828125 C 303.644531 283.234375 309.039062 283.234375 309.039062 286.828125 "/>
<path style=" stroke:none;fill-rule:nonzero;fill:rgb(100%,84.3%,0%);fill-opacity:1;" d="M 327.4375 213.09375 C 327.4375 216.6875 322.046875 216.6875 322.046875 213.09375 C 322.046875 209.496094 327.4375 209.496094 327.4375 213.09375 "/>
<path style=" stroke:none;fill-rule:nonzero;fill:rgb(100%,84.3%,0%);fill-opacity:1;" d="M 428.539062 341.34375 C 428.539062 344.941406 423.144531 344.941406 423.144531 341.34375 C 423.144531 337.75 428.539062 337.75 428.539062 341.34375 "/>
<path style=" stroke:none;fill-rule:nonzero;fill:rgb(100%,84.3%,0%);fill-opacity:1;" d="M 173.089844 172.054688 C 173.089844 175.648438 167.695312 175.648438 167.695312 172.054688 C 167.695312 168.457031 173.089844 168.457031 173.089844 172.054688 "/>
<path style=" stroke:none;fill-rule:nonzero;fill:rgb(100%,84.3%,0%);fill-opacity:1;" d="M 64.039062 240.289062 C 64.039062 243.882812 58.644531 243.882812 58.644531 240.289062 C 58.644531 236.691406 64.039062 236.691406 64.039062 240.289062 "/>
<path style=" stroke:none;fill-rule:nonzero;fill:rgb(100%,84.3%,0%);fill-opacity:1;" d="M 465.386719 253.714844 C 465.386719 257.3125 459.992188 257.3125 459.992188 253.714844 C 459.992188 250.117188 465.386719 250.117188 465.386719 253.714844 "/>
<path style=" stroke:none;fill-rule:nonzero;fill:rgb(100%,84.3%,0%);fill-opacity:1;" d="M 314.945312 339.421875 C 314.945312 343.015625 309.550781 343.015625 309.550781 339.421875 C 309.550781 335.824219 314.945312 335.824219 314.945312 339.421875 "/>
<path style=" stroke:none;fill-rule:nonzero;fill:rgb(100%,84.3%,0%);fill-opacity:1;" d="M 302.382812 209.363281 C 302.382812 212.960938 296.988281 212.960938 296.988281 209.363281 C 296.988281 205.769531 302.382812 205.769531 302.382812 209.363281 "/>
<path style=" stroke:none;fill-rule:nonzero;fill:rgb(100%,84.3%,0%);fill-opacity:1;" d="M 195.960938 245 C 195.960938 248.597656 190.566406 248.597656 190.566406 245 C 190.566406 241.402344 195.960938 241.402344 195.960938 245 "/>
<path style=" stroke:none;fill-rule:nonzero;fill:rgb(100%,84.3%,0%);fill-opacity:1;" d="M 255.886719 182.773438 C 255.886719 186.367188 250.492188 186.367188 250.492188 182.773438 C 250.492188 179.175781 255.886719 179.175781 255.886719 182.773438 "/>
<path style=" stroke:none;fill-rule:nonzero;fill:rgb(100%,84.3%,0%);fill-opacity:1;" d="M 294.414062 325.441406 C 294.414062 329.039062 289.019531 329.039062 289.019531 325.441406 C 289.019531 321.847656 294.414062 321.847656 294.414062 325.441406 "/>
<path style=" stroke:none;fill-rule:nonzero;fill:rgb(100%,84.3%,0%);fill-opacity:1;" d="M 404.089844 170.113281 C 404.089844 173.710938 398.695312 173.710938 398.695312 170.113281 C 398.695312 166.515625 404.089844 166.515625 404.089844 170.113281 "/>
<path style=" stroke:none;fill-rule:nonzero;fill:rgb(100%,84.3%,0%);fill-opacity:1;" d="M 58.929688 176.738281 C 58.929688 180.335938 53.535156 180.335938 53.535156 176.738281 C 53.535156 173.144531 58.929688 173.144531 58.929688 176.738281 "/>
<path style=" stroke:none;fill-rule:nonzero;fill:rgb(100%,84.3%,0%);fill-opacity:1;" d="M 233.523438 249.480469 C 233.523438 253.074219 228.128906 253.074219 228.128906 249.480469 C 228.128906 245.882812 233.523438 245.882812 233.523438 249.480469 "/>
<path style=" stroke:none;fill-rule:nonzero;fill:rgb(100%,84.3%,0%);fill-opacity:1;" d="M 277.449219 338.773438 C 277.449219 342.371094 272.054688 342.371094 272.054688 338.773438 C 272.054688 335.179688 277.449219 335.179688 277.449219 338.773438 "/>
<path style=" stroke:none;fill-rule:nonzero;fill:rgb(100%,84.3%,0%);fill-opacity:1;" d="M 214.226562 193.957031 C 214.226562 197.554688 208.832031 197.554688 208.832031 193.957031 C 208.832031 190.363281 214.226562 190.363281 214.226562 193.957031 "/>
<path style=" stroke:none;fill-rule:nonzero;fill:rgb(100%,84.3%,0%);fill-opacity:1;" d="M 284.394531 306.699219 C 284.394531 310.296875 279 310.296875 279 306.699219 C 279 303.105469 284.394531 303.105469 284.394531 306.699219 "/>
<path style=" stroke:none;fill-rule:nonzero;fill:rgb(100%,84.3%,0%);fill-opacity:1;" d="M 317.1875 262.636719 C 317.1875 266.230469 311.796875 266.230469 311.796875 262.636719 C 311.796875 259.039062 317.1875 259.039062 317.1875 262.636719 "/>
<path style=" stroke:none;fill-rule:nonzero;fill:rgb(100%,84.3%,0%);fill-opacity:1;" d="M 137.96875 348.429688 C 137.96875 352.027344 132.574219 352.027344 132.574219 348.429688 C 132.574219 344.835938 137.96875 344.835938 137.96875 348.429688 "/>
<path style=" stroke:none;fill-rule:nonzero;fill:rgb(100%,84.3%,0%);fill-opacity:1;" d="M 316.148438 218.277344 C 316.148438 221.871094 310.753906 221.871094 310.753906 218.277344 C 310.753906 214.679688 316.148438 214.679688 316.148438 218.277344 "/>
<path style=" stroke:none;fill-rule:nonzero;fill:rgb(100%,84.3%,0%);fill-opacity:1;" d="M 162.25 327.46875 C 162.25 331.0625 156.855469 331.0625 156.855469 327.46875 C 156.855469 323.871094 162.25 323.871094 162.25 327.46875 "/>
<path style=" stroke:none;fill-rule:nonzero;fill:rgb(100%,84.3%,0%);fill-opacity:1;" d="M 190.445312 167.140625 C 190.445312 170.738281 185.050781 170.738281 185.050781 167.140625 C 185.050781 163.546875 190.445312 163.546875 190.445312 167.140625 "/>
<path style=" stroke:none;fill-rule:nonzero;fill:rgb(100%,84.3%,0%);fill-opacity:1;" d="M 174.933594 190.6875 C 174.933594 194.285156 169.539062 194.285156 169.539062 190.6875 C 169.539062 187.09375 174.933594 187.09375 174.933594 190.6875 "/>
<path style=" stroke:none;fill-rule:nonzero;fill:rgb(100%,84.3%,0%);fill-opacity:1;" d="M 142.03125 310.777344 C 142.03125 314.371094 136.636719 314.371094 136.636719 310.777344 C 136.636719 307.179688 142.03125 307.179688 142.03125 310.777344 "/>
<path style=" stroke:none;fill-rule:nonzero;fill:rgb(100%,84.3%,0%);fill-opacity:1;" d="M 73.625 229.785156 C 73.625 233.382812 68.230469 233.382812 68.230469 229.785156 C 68.230469 226.191406 73.625 226.191406 73.625 229.785156 "/>
<path style=" stroke:none;fill-rule:nonzero;fill:rgb(100%,84.3%,0%);fill-opacity:1;" d="M 121.347656 289.644531 C 121.347656 293.238281 115.953125 293.238281 115.953125 289.644531 C 115.953125 286.046875 121.347656 286.046875 121.347656 289.644531 "/>
<path style=" stroke:none;fill-rule:nonzero;fill:rgb(100%,84.3%,0%);fill-opacity:1;" d="M 271.035156 304.59375 C 271.035156 308.1875 265.640625 308.1875 265.640625 304.59375 C 265.640625 300.996094 271.035156 300.996094 271.035156 304.59375 "/>
<path style=" stroke:none;fill-rule:nonzero;fill:rgb(100%,84.3%,0%);fill-opacity:1;" d="M 291.316406 270.550781 C 291.316406 274.144531 285.921875 274.144531 285.921875 270.550781 C 285.921875 266.953125 291.316406 266.953125 291.316406 270.550781 "/>
<path style=" stroke:none;fill-rule:nonzero;fill:rgb(100%,84.3%,0%);fill-opacity:1;" d="M 323.160156 339.402344 C 323.160156 342.996094 317.769531 342.996094 317.769531 339.402344 C 317.769531 335.804688 323.160156 335.804688 323.160156 339.402344 "/>
<path style=" stroke:none;fill-rule:nonzero;fill:rgb(100%,84.3%,0%);fill-opacity:1;" d="M 262.855469 255.253906 C 262.855469 258.847656 257.460938 258.847656 257.460938 255.253906 C 257.460938 251.65625 262.855469 251.65625 262.855469 255.253906 "/>
<path style=" stroke:none;fill-rule:nonzero;fill:rgb(100%,84.3%,0%);fill-opacity:1;" d="M 50.796875 173.820312 C 50.796875 177.417969 45.402344 177.417969 45.402344 173.820312 C 45.402344 170.226562 50.796875 170.226562 50.796875 173.820312 "/>
<path style=" stroke:none;fill-rule:nonzero;fill:rgb(100%,84.3%,0%);fill-opacity:1;" d="M 324.199219 348.679688 C 324.199219 352.277344 318.804688 352.277344 318.804688 348.679688 C 318.804688 345.085938 324.199219 345.085938 324.199219 348.679688 "/>
<path style=" stroke:none;fill-rule:nonzero;fill:rgb(100%,84.3%,0%);fill-opacity:1;" d="M 463.976562 209.273438 C 463.976562 212.867188 458.582031 212.867188 458.582031 209.273438 C 458.582031 205.675781 463.976562 205.675781 463.976562 209.273438 "/>
<path style=" stroke:none;fill-rule:nonzero;fill:rgb(100%,84.3%,0%);fill-opacity:1;" d="M 184.976562 216.898438 C 184.976562 220.492188 179.582031 220.492188 179.582031 216.898438 C 179.582031 213.300781 184.976562 213.300781 184.976562 216.898438 "/>
<path style=" stroke:none;fill-rule:nonzero;fill:rgb(100%,84.3%,0%);fill-opacity:1;" d="M 280.988281 234.984375 C 280.988281 238.582031 275.59375 238.582031 275.59375 234.984375 C 275.59375 231.390625 280.988281 231.390625 280.988281 234.984375 "/>
<path style=" stroke:none;fill-rule:nonzero;fill:rgb(100%,84.3%,0%);fill-opacity:1;" d="M 449.4375 199.894531 C 449.4375 203.492188 444.042969 203.492188 444.042969 199.894531 C 444.042969 196.300781 449.4375 196.300781 449.4375 199.894531 "/>
<path style=" stroke:none;fill-rule:nonzero;fill:rgb(100%,84.3%,0%);fill-opacity:1;" d="M 282.191406 167.203125 C 282.191406 170.800781 276.796875 170.800781 276.796875 167.203125 C 276.796875 163.609375 282.191406 163.609375 282.191406 167.203125 "/>
<path style=" stroke:none;fill-rule:nonzero;fill:rgb(100%,84.3%,0%);fill-opacity:1;" d="M 182.035156 240.921875 C 182.035156 244.515625 176.644531 244.515625 176.644531 240.921875 C 176.644531 237.324219 182.035156 237.324219 182.035156 240.921875 "/>
<path style=" stroke:none;fill-rule:nonzero;fill:rgb(100%,84.3%,0%);fill-opacity:1;" d="M 169.773438 237.464844 C 169.773438 241.058594 164.378906 241.058594 164.378906 237.464844 C 164.378906 233.867188 169.773438 233.867188 169.773438 237.464844 "/>
<path style=" stroke:none;fill-rule:nonzero;fill:rgb(100%,84.3%,0%);fill-opacity:1;" d="M 402.007812 198.710938 C 402.007812 202.308594 396.613281 202.308594 396.613281 198.710938 C 396.613281 195.113281 402.007812 195.113281 402.007812 198.710938 "/>
<path style=" stroke:none;fill-rule:nonzero;fill:rgb(100%,84.3%,0%);fill-opacity:1;" d="M 208.277344 256.347656 C 208.277344 259.941406 202.882812 259.941406 202.882812 256.347656 C 202.882812 252.75 208.277344 252.75 208.277344 256.347656 "/>
<path style=" stroke:none;fill-rule:nonzero;fill:rgb(100%,84.3%,0%);fill-opacity:1;" d="M 262.476562 290.765625 C 262.476562 294.363281 257.082031 294.363281 257.082031 290.765625 C 257.082031 287.171875 262.476562 287.171875 262.476562 290.765625 "/>
<path style=" stroke:none;fill-rule:nonzero;fill:rgb(100%,84.3%,0%);fill-opacity:1;" d="M 423.03125 271.890625 C 423.03125 275.488281 417.640625 275.488281 417.640625 271.890625 C 417.640625 268.296875 423.03125 268.296875 423.03125 271.890625 "/>
<path style=" stroke:none;fill-rule:nonzero;fill:rgb(100%,84.3%,0%);fill-opacity:1;" d="M 163.542969 316.679688 C 163.542969 320.273438 158.148438 320.273438 158.148438 316.679688 C 158.148438 313.082031 163.542969 313.082031 163.542969 316.679688 "/>
<path style=" stroke:none;fill-rule:nonzero;fill:rgb(100%,84.3%,0%);fill-opacity:1;" d="M 295.066406 227.726562 C 295.066406 231.320312 289.671875 231.320312 289.671875 227.726562 C 289.671875 224.128906 295.066406 224.128906 295.066406 227.726562 "/>
<path style=" stroke:none;fill-rule:nonzero;fill:rgb(100%,84.3%,0%);fill-opacity:1;" d="M 147.4375 169.386719 C 147.4375 172.984375 142.046875 172.984375 142.046875 169.386719 C 142.046875 165.789062 147.4375 165.789062 147.4375 169.386719 "/>
<path style=" stroke:none;fill-rule:nonzero;fill:rgb(100%,84.3%,0%);fill-opacity:1;" d="M 266.703125 191.265625 C 266.703125 194.859375 261.308594 194.859375 261.308594 191.265625 C 261.308594 187.667969 266.703125 187.667969 266.703125 191.265625 "/>
<path style=" stroke:none;fill-rule:nonzero;fill:rgb(100%,84.3%,0%);fill-opacity:1;" d="M 75.386719 172.074219 C 75.386719 175.671875 69.992188 175.671875 69.992188 172.074219 C 69.992188 168.480469 75.386719 168.480469 75.386719 172.074219 "/>
<path style=" stroke:none;fill-rule:nonzero;fill:rgb(100%,84.3%,0%);fill-opacity:1;" d="M 270.496094 161.378906 C 270.496094 164.976562 265.105469 164.976562 265.105469 161.378906 C 265.105469 157.78125 270.496094 157.78125 270.496094 161.378906 "/>
<path style=" stroke:none;fill-rule:nonzero;fill:rgb(100%,84.3%,0%);fill-opacity:1;" d="M 441.410156 218.445312 C 441.410156 222.042969 436.015625 222.042969 436.015625 218.445312 C 436.015625 214.851562 441.410156 214.851562 441.410156 218.445312 "/>
<path style=" stroke:none;fill-rule:nonzero;fill:rgb(100%,84.3%,0%);fill-opacity:1;" d="M 169.410156 200.089844 C 169.410156 203.683594 164.015625 203.683594 164.015625 200.089844 C 164.015625 196.492188 169.410156 196.492188 169.410156 200.089844 "/>
<path style=" stroke:none;fill-rule:nonzero;fill:rgb(100%,84.3%,0%);fill-opacity:1;" d="M 156.886719 183.613281 C 156.886719 187.210938 151.492188 187.210938 151.492188 183.613281 C 151.492188 180.019531 156.886719 180.019531 156.886719 183.613281 "/>
<path style=" stroke:none;fill-rule:nonzero;fill:rgb(100%,84.3%,0%);fill-opacity:1;" d="M 59.929688 244.328125 C 59.929688 247.925781 54.535156 247.925781 54.535156 244.328125 C 54.535156 240.734375 59.929688 240.734375 59.929688 244.328125 "/>
<path style=" stroke:none;fill-rule:nonzero;fill:rgb(100%,84.3%,0%);fill-opacity:1;" d="M 352.136719 236.222656 C 352.136719 239.816406 346.742188 239.816406 346.742188 236.222656 C 346.742188 232.625 352.136719 232.625 352.136719 236.222656 "/>
<path style=" stroke:none;fill-rule:nonzero;fill:rgb(100%,84.3%,0%);fill-opacity:1;" d="M 369.53125 200.039062 C 369.53125 203.632812 364.136719 203.632812 364.136719 200.039062 C 364.136719 196.441406 369.53125 196.441406 369.53125 200.039062 "/>
<path style=" stroke:none;fill-rule:nonzero;fill:rgb(100%,84.3%,0%);fill-opacity:1;" d="M 431.671875 336.007812 C 431.671875 339.605469 426.277344 339.605469 426.277344 336.007812 C 426.277344 332.414062 431.671875 332.414062 431.671875 336.007812 "/>
<path style=" stroke:none;fill-rule:nonzero;fill:rgb(100%,84.3%,0%);fill-opacity:1;" d="M 288.195312 166.703125 C 288.195312 170.300781 282.800781 170.300781 282.800781 166.703125 C 282.800781 163.109375 288.195312 163.109375 288.195312 166.703125 "/>
<path style=" stroke:none;fill-rule:nonzero;fill:rgb(100%,84.3%,0%);fill-opacity:1;" d="M 415.203125 280.246094 C 415.203125 283.839844 409.808594 283.839844 409.808594 280.246094 C 409.808594 276.648438 415.203125 276.648438 415.203125 280.246094 "/>
<path style=" stroke:none;fill-rule:nonzero;fill:rgb(100%,84.3%,0%);fill-opacity:1;" d="M 59.132812 270.914062 C 59.132812 274.511719 53.738281 274.511719 53.738281 270.914062 C 53.738281 267.316406 59.132812 267.316406 59.132812 270.914062 "/>
<path style=" stroke:none;fill-rule:nonzero;fill:rgb(100%,84.3%,0%);fill-opacity:1;" d="M 74.683594 332.144531 C 74.683594 335.738281 69.289062 335.738281 69.289062 332.144531 C 69.289062 328.546875 74.683594 328.546875 74.683594 332.144531 "/>
<path style=" stroke:none;fill-rule:nonzero;fill:rgb(100%,84.3%,0%);fill-opacity:1;" d="M 210.535156 334.367188 C 210.535156 337.964844 205.140625 337.964844 205.140625 334.367188 C 205.140625 330.773438 210.535156 330.773438 210.535156 334.367188 "/>
<path style=" stroke:none;fill-rule:nonzero;fill:rgb(100%,84.3%,0%);fill-opacity:1;" d="M 226.472656 294.546875 C 226.472656 298.144531 221.078125 298.144531 221.078125 294.546875 C 221.078125 290.949219 226.472656 290.949219 226.472656 294.546875 "/>
<path style=" stroke:none;fill-rule:nonzero;fill:rgb(100%,84.3%,0%);fill-opacity:1;" d="M 157.695312 193.128906 C 157.695312 196.722656 152.300781 196.722656 152.300781 193.128906 C 152.300781 189.53125 157.695312 189.53125 157.695312 193.128906 "/>
<path style=" stroke:none;fill-rule:nonzero;fill:rgb(100%,84.3%,0%);fill-opacity:1;" d="M 159.769531 198.648438 C 159.769531 202.242188 154.378906 202.242188 154.378906 198.648438 C 154.378906 195.050781 159.769531 195.050781 159.769531 198.648438 "/>
<path style=" stroke:none;fill-rule:nonzero;fill:rgb(100%,84.3%,0%);fill-opacity:1;" d="M 267.566406 324.46875 C 267.566406 328.066406 262.171875 328.066406 262.171875 324.46875 C 262.171875 320.871094 267.566406 320.871094 267.566406 324.46875 "/>
<path style=" stroke:none;fill-rule:nonzero;fill:rgb(100%,84.3%,0%);fill-opacity:1;" d="M 428.089844 243.90625 C 428.089844 247.5 422.695312 247.5 422.695312 243.90625 C 422.695312 240.308594 428.089844 240.308594 428.089844 243.90625 "/>
<path style=" stroke:none;fill-rule:nonzero;fill:rgb(100%,84.3%,0%);fill-opacity:1;" d="M 149.207031 350.3125 C 149.207031 353.90625 143.8125 353.90625 143.8125 350.3125 C 143.8125 346.714844 149.207031 346.714844 149.207031 350.3125 "/>
<path style=" stroke:none;fill-rule:nonzero;fill:rgb(100%,84.3%,0%);fill-opacity:1;" d="M 88.546875 245.445312 C 88.546875 249.039062 83.152344 249.039062 83.152344 245.445312 C 83.152344 241.847656 88.546875 241.847656 88.546875 245.445312 "/>
<path style=" stroke:none;fill-rule:nonzero;fill:rgb(100%,84.3%,0%);fill-opacity:1;" d="M 163.742188 181.921875 C 163.742188 185.519531 158.347656 185.519531 158.347656 181.921875 C 158.347656 178.328125 163.742188 178.328125 163.742188 181.921875 "/>
<path style=" stroke:none;fill-rule:nonzero;fill:rgb(100%,84.3%,0%);fill-opacity:1;" d="M 124.304688 188.714844 C 124.304688 192.3125 118.910156 192.3125 118.910156 188.714844 C 118.910156 185.117188 124.304688 185.117188 124.304688 188.714844 "/>
<path style=" stroke:none;fill-rule:nonzero;fill:rgb(100%,84.3%,0%);fill-opacity:1;" d="M 384.625 271.542969 C 384.625 275.140625 379.230469 275.140625 379.230469 271.542969 C 379.230469 267.949219 384.625 267.949219 384.625 271.542969 "/>
<path style=" stroke:none;fill-rule:nonzero;fill:rgb(100%,84.3%,0%);fill-opacity:1;" d="M 397.40625 330.96875 C 397.40625 334.5625 392.015625 334.5625 392.015625 330.96875 C 392.015625 327.371094 397.40625 327.371094 397.40625 330.96875 "/>
<path style=" stroke:none;fill-rule:nonzero;fill:rgb(100%,84.3%,0%);fill-opacity:1;" d="M 202.042969 214.4375 C 202.042969 218.035156 196.648438 218.035156 196.648438 214.4375 C 196.648438 210.84375 202.042969 210.84375 202.042969 214.4375 "/>
<path style=" stroke:none;fill-rule:nonzero;fill:rgb(100%,84.3%,0%);fill-opacity:1;" d="M 111.539062 189.734375 C 111.539062 193.332031 106.144531 193.332031 106.144531 189.734375 C 106.144531 186.140625 111.539062 186.140625 111.539062 189.734375 "/>
<path style=" stroke:none;fill-rule:nonzero;fill:rgb(100%,84.3%,0%);fill-opacity:1;" d="M 465.910156 232.382812 C 465.910156 235.976562 460.515625 235.976562 460.515625 232.382812 C 460.515625 228.785156 465.910156 228.785156 465.910156 232.382812 "/>
<path style=" stroke:none;fill-rule:nonzero;fill:rgb(100%,84.3%,0%);fill-opacity:1;" d="M 411.566406 284.542969 C 411.566406 288.140625 406.171875 288.140625 406.171875 284.542969 C 406.171875 280.945312 411.566406 280.945312 411.566406 284.542969 "/>
<path style=" stroke:none;fill-rule:nonzero;fill:rgb(100%,84.3%,0%);fill-opacity:1;" d="M 128.839844 230.90625 C 128.839844 234.5 123.445312 234.5 123.445312 230.90625 C 123.445312 227.308594 128.839844 227.308594 128.839844 230.90625 "/>
<path style=" stroke:none;fill-rule:nonzero;fill:rgb(100%,84.3%,0%);fill-opacity:1;" d="M 278.59375 275.71875 C 278.59375 279.316406 273.199219 279.316406 273.199219 275.71875 C 273.199219 272.121094 278.59375 272.121094 278.59375 275.71875 "/>
<path style=" stroke:none;fill-rule:nonzero;fill:rgb(100%,84.3%,0%);fill-opacity:1;" d="M 117.082031 252.695312 C 117.082031 256.292969 111.6875 256.292969 111.6875 252.695312 C 111.6875 249.101562 117.082031 249.101562 117.082031 252.695312 "/>
<path style=" stroke:none;fill-rule:nonzero;fill:rgb(100%,84.3%,0%);fill-opacity:1;" d="M 85.066406 350.21875 C 85.066406 353.816406 79.671875 353.816406 79.671875 350.21875 C 79.671875 346.621094 85.066406 346.621094 85.066406 350.21875 "/>
<path style=" stroke:none;fill-rule:nonzero;fill:rgb(100%,84.3%,0%);fill-opacity:1;" d="M 415.054688 197.566406 C 415.054688 201.160156 409.660156 201.160156 409.660156 197.566406 C 409.660156 193.96875 415.054688 193.96875 415.054688 197.566406 "/>
<path style=" stroke:none;fill-rule:nonzero;fill:rgb(100%,84.3%,0%);fill-opacity:1;" d="M 68.679688 196.9375 C 68.679688 200.535156 63.285156 200.535156 63.285156 196.9375 C 63.285156 193.34375 68.679688 193.34375 68.679688 196.9375 "/>
<path style=" stroke:none;fill-rule:nonzero;fill:rgb(100%,84.3%,0%);fill-opacity:1;" d="M 155.402344 178.058594 C 155.402344 181.65625 150.011719 181.65625 150.011719 178.058594 C 150.011719 174.464844 155.402344 174.464844 155.402344 178.058594 "/>
<path style=" stroke:none;fill-rule:nonzero;fill:rgb(100%,84.3%,0%);fill-opacity:1;" d="M 411.425781 168.242188 C 411.425781 171.839844 406.03125 171.839844 406.03125 168.242188 C 406.03125 164.648438 411.425781 164.648438 411.425781 168.242188 "/>
<path style=" stroke:none;fill-rule:nonzero;fill:rgb(100%,84.3%,0%);fill-opacity:1;" d="M 52.851562 186.785156 C 52.851562 190.382812 47.457031 190.382812 47.457031 186.785156 C 47.457031 183.191406 52.851562 183.191406 52.851562 186.785156 "/>
<path style=" stroke:none;fill-rule:nonzero;fill:rgb(100%,84.3%,0%);fill-opacity:1;" d="M 429.339844 171.5625 C 429.339844 175.15625 423.945312 175.15625 423.945312 171.5625 C 423.945312 167.964844 429.339844 167.964844 429.339844 171.5625 "/>
<path style=" stroke:none;fill-rule:nonzero;fill:rgb(100%,84.3%,0%);fill-opacity:1;" d="M 462.8125 160.742188 C 462.8125 164.339844 457.417969 164.339844 457.417969 160.742188 C 457.417969 157.148438 462.8125 157.148438 462.8125 160.742188 "/>
<path style=" stroke:none;fill-rule:nonzero;fill:rgb(100%,84.3%,0%);fill-opacity:1;" d="M 222.460938 226.609375 C 222.460938 230.207031 217.066406 230.207031 217.066406 226.609375 C 217.066406 223.015625 222.460938 223.015625 222.460938 226.609375 "/>
<path style=" stroke:none;fill-rule:nonzero;fill:rgb(100%,84.3%,0%);fill-opacity:1;" d="M 59.070312 260 C 59.070312 263.597656 53.675781 263.597656 53.675781 260 C 53.675781 256.402344 59.070312 256.402344 59.070312 260 "/>
<path style=" stroke:none;fill-rule:nonzero;fill:rgb(100%,84.3%,0%);fill-opacity:1;" d="M 89.429688 259.589844 C 89.429688 263.1875 84.035156 263.1875 84.035156 259.589844 C 84.035156 255.996094 89.429688 255.996094 89.429688 259.589844 "/>
<path style=" stroke:none;fill-rule:nonzero;fill:rgb(100%,84.3%,0%);fill-opacity:1;" d="M 249.199219 183.539062 C 249.199219 187.132812 243.804688 187.132812 243.804688 183.539062 C 243.804688 179.941406 249.199219 179.941406 249.199219 183.539062 "/>
<path style=" stroke:none;fill-rule:nonzero;fill:rgb(100%,84.3%,0%);fill-opacity:1;" d="M 222.808594 315.070312 C 222.808594 318.667969 217.414062 318.667969 217.414062 315.070312 C 217.414062 311.476562 222.808594 311.476562 222.808594 315.070312 "/>
<path style=" stroke:none;fill-rule:nonzero;fill:rgb(100%,84.3%,0%);fill-opacity:1;" d="M 314.839844 325.679688 C 314.839844 329.277344 309.445312 329.277344 309.445312 325.679688 C 309.445312 322.085938 314.839844 322.085938 314.839844 325.679688 "/>
<path style=" stroke:none;fill-rule:nonzero;fill:rgb(100%,84.3%,0%);fill-opacity:1;" d="M 129.457031 304.730469 C 129.457031 308.328125 124.0625 308.328125 124.0625 304.730469 C 124.0625 301.136719 129.457031 301.136719 129.457031 304.730469 "/>
<path style=" stroke:none;fill-rule:nonzero;fill:rgb(100%,84.3%,0%);fill-opacity:1;" d="M 463.65625 193.582031 C 463.65625 197.179688 458.265625 197.179688 458.265625 193.582031 C 458.265625 189.988281 463.65625 189.988281 463.65625 193.582031 "/>
<path style=" stroke:none;fill-rule:nonzero;fill:rgb(100%,84.3%,0%);fill-opacity:1;" d="M 173.867188 157.566406 C 173.867188 161.164062 168.472656 161.164062 168.472656 157.566406 C 168.472656 153.972656 173.867188 153.972656 173.867188 157.566406 "/>
<path style=" stroke:none;fill-rule:nonzero;fill:rgb(100%,84.3%,0%);fill-opacity:1;" d="M 358.503906 271.347656 C 358.503906 274.941406 353.109375 274.941406 353.109375 271.347656 C 353.109375 267.75 358.503906 267.75 358.503906 271.347656 "/>
<path style=" stroke:none;fill-rule:nonzero;fill:rgb(100%,84.3%,0%);fill-opacity:1;" d="M 390.078125 254.179688 C 390.078125 257.773438 384.683594 257.773438 384.683594 254.179688 C 384.683594 250.582031 390.078125 250.582031 390.078125 254.179688 "/>
<path style=" stroke:none;fill-rule:nonzero;fill:rgb(100%,84.3%,0%);fill-opacity:1;" d="M 416.027344 175.421875 C 416.027344 179.019531 410.636719 179.019531 410.636719 175.421875 C 410.636719 171.824219 416.027344 171.824219 416.027344 175.421875 "/>
<path style=" stroke:none;fill-rule:nonzero;fill:rgb(100%,84.3%,0%);fill-opacity:1;" d="M 110.53125 264.953125 C 110.53125 268.550781 105.136719 268.550781 105.136719 264.953125 C 105.136719 261.359375 110.53125 261.359375 110.53125 264.953125 "/>
<path style=" stroke:none;fill-rule:nonzero;fill:rgb(100%,84.3%,0%);fill-opacity:1;" d="M 459.84375 265.804688 C 459.84375 269.402344 454.449219 269.402344 454.449219 265.804688 C 454.449219 262.210938 459.84375 262.210938 459.84375 265.804688 "/>
<path style=" stroke:none;fill-rule:nonzero;fill:rgb(100%,84.3%,0%);fill-opacity:1;" d="M 74.4375 311.609375 C 74.4375 315.207031 69.042969 315.207031 69.042969 311.609375 C 69.042969 308.015625 74.4375 308.015625 74.4375 311.609375 "/>
<path style=" stroke:none;fill-rule:nonzero;fill:rgb(100%,84.3%,0%);fill-opacity:1;" d="M 157.609375 333.484375 C 157.609375 337.078125 152.214844 337.078125 152.214844 333.484375 C 152.214844 329.886719 157.609375 329.886719 157.609375 333.484375 "/>
<path style=" stroke:none;fill-rule:nonzero;fill:rgb(100%,84.3%,0%);fill-opacity:1;" d="M 197.441406 305.804688 C 197.441406 309.398438 192.050781 309.398438 192.050781 305.804688 C 192.050781 302.207031 197.441406 302.207031 197.441406 305.804688 "/>
<path style=" stroke:none;fill-rule:nonzero;fill:rgb(100%,84.3%,0%);fill-opacity:1;" d="M 95.386719 254.855469 C 95.386719 258.449219 89.992188 258.449219 89.992188 254.855469 C 89.992188 251.257812 95.386719 251.257812 95.386719 254.855469 "/>
<path style=" stroke:none;fill-rule:nonzero;fill:rgb(100%,84.3%,0%);fill-opacity:1;" d="M 274.527344 233.761719 C 274.527344 237.359375 269.132812 237.359375 269.132812 233.761719 C 269.132812 230.167969 274.527344 230.167969 274.527344 233.761719 "/>
<path style=" stroke:none;fill-rule:nonzero;fill:rgb(100%,84.3%,0%);fill-opacity:1;" d="M 172.988281 210.304688 C 172.988281 213.898438 167.59375 213.898438 167.59375 210.304688 C 167.59375 206.707031 172.988281 206.707031 172.988281 210.304688 "/>
<path style=" stroke:none;fill-rule:nonzero;fill:rgb(100%,84.3%,0%);fill-opacity:1;" d="M 453.140625 310.121094 C 453.140625 313.71875 447.746094 313.71875 447.746094 310.121094 C 447.746094 306.527344 453.140625 306.527344 453.140625 310.121094 "/>
<path style=" stroke:none;fill-rule:nonzero;fill:rgb(100%,84.3%,0%);fill-opacity:1;" d="M 453.390625 194.496094 C 453.390625 198.09375 447.996094 198.09375 447.996094 194.496094 C 447.996094 190.902344 453.390625 190.902344 453.390625 194.496094 "/>
<path style=" stroke:none;fill-rule:nonzero;fill:rgb(100%,84.3%,0%);fill-opacity:1;" d="M 223.890625 331.660156 C 223.890625 335.257812 218.496094 335.257812 218.496094 331.660156 C 218.496094 328.0625 223.890625 328.0625 223.890625 331.660156 "/>
<path style=" stroke:none;fill-rule:nonzero;fill:rgb(100%,84.3%,0%);fill-opacity:1;" d="M 122.785156 297.101562 C 122.785156 300.699219 117.394531 300.699219 117.394531 297.101562 C 117.394531 293.507812 122.785156 293.507812 122.785156 297.101562 "/>
<path style=" stroke:none;fill-rule:nonzero;fill:rgb(100%,84.3%,0%);fill-opacity:1;" d="M 300.300781 322.363281 C 300.300781 325.960938 294.90625 325.960938 294.90625 322.363281 C 294.90625 318.769531 300.300781 318.769531 300.300781 322.363281 "/>
<path style=" stroke:none;fill-rule:nonzero;fill:rgb(100%,84.3%,0%);fill-opacity:1;" d="M 327.042969 184.953125 C 327.042969 188.546875 321.648438 188.546875 321.648438 184.953125 C 321.648438 181.355469 327.042969 181.355469 327.042969 184.953125 "/>
<path style=" stroke:none;fill-rule:nonzero;fill:rgb(100%,84.3%,0%);fill-opacity:1;" d="M 328.214844 225.378906 C 328.214844 228.972656 322.820312 228.972656 322.820312 225.378906 C 322.820312 221.78125 328.214844 221.78125 328.214844 225.378906 "/>
<path style=" stroke:none;fill-rule:nonzero;fill:rgb(100%,84.3%,0%);fill-opacity:1;" d="M 64.574219 177.558594 C 64.574219 181.152344 59.179688 181.152344 59.179688 177.558594 C 59.179688 173.960938 64.574219 173.960938 64.574219 177.558594 "/>
<path style=" stroke:none;fill-rule:nonzero;fill:rgb(100%,84.3%,0%);fill-opacity:1;" d="M 403.257812 159.046875 C 403.257812 162.640625 397.863281 162.640625 397.863281 159.046875 C 397.863281 155.449219 403.257812 155.449219 403.257812 159.046875 "/>
<path style=" stroke:none;fill-rule:nonzero;fill:rgb(100%,84.3%,0%);fill-opacity:1;" d="M 393.308594 263.351562 C 393.308594 266.945312 387.914062 266.945312 387.914062 263.351562 C 387.914062 259.753906 393.308594 259.753906 393.308594 263.351562 "/>
<path style=" stroke:none;fill-rule:nonzero;fill:rgb(100%,84.3%,0%);fill-opacity:1;" d="M 328.878906 190.097656 C 328.878906 193.695312 323.484375 193.695312 323.484375 190.097656 C 323.484375 186.503906 328.878906 186.503906 328.878906 190.097656 "/>
<path style=" stroke:none;fill-rule:nonzero;fill:rgb(100%,84.3%,0%);fill-opacity:1;" d="M 374.453125 292.804688 C 374.453125 296.402344 369.058594 296.402344 369.058594 292.804688 C 369.058594 289.210938 374.453125 289.210938 374.453125 292.804688 "/>
<path style=" stroke:none;fill-rule:nonzero;fill:rgb(100%,84.3%,0%);fill-opacity:1;" d="M 137.6875 305.921875 C 137.6875 309.519531 132.292969 309.519531 132.292969 305.921875 C 132.292969 302.328125 137.6875 302.328125 137.6875 305.921875 "/>
<path style=" stroke:none;fill-rule:nonzero;fill:rgb(100%,84.3%,0%);fill-opacity:1;" d="M 109.066406 332.296875 C 109.066406 335.894531 103.675781 335.894531 103.675781 332.296875 C 103.675781 328.699219 109.066406 328.699219 109.066406 332.296875 "/>
<path style=" stroke:none;fill-rule:nonzero;fill:rgb(100%,84.3%,0%);fill-opacity:1;" d="M 112.746094 245.023438 C 112.746094 248.621094 107.351562 248.621094 107.351562 245.023438 C 107.351562 241.429688 112.746094 241.429688 112.746094 245.023438 "/>
<path style=" stroke:none;fill-rule:nonzero;fill:rgb(100%,84.3%,0%);fill-opacity:1;" d="M 380.316406 340.035156 C 380.316406 343.628906 374.925781 343.628906 374.925781 340.035156 C 374.925781 336.4375 380.316406 336.4375 380.316406 340.035156 "/>
<path style=" stroke:none;fill-rule:nonzero;fill:rgb(100%,84.3%,0%);fill-opacity:1;" d="M 183.066406 249.886719 C 183.066406 253.480469 177.671875 253.480469 177.671875 249.886719 C 177.671875 246.289062 183.066406 246.289062 183.066406 249.886719 "/>
<path style=" stroke:none;fill-rule:nonzero;fill:rgb(100%,84.3%,0%);fill-opacity:1;" d="M 362.222656 218.703125 C 362.222656 222.300781 356.828125 222.300781 356.828125 218.703125 C 356.828125 215.105469 362.222656 215.105469 362.222656 218.703125 "/>
<path style=" stroke:none;fill-rule:nonzero;fill:rgb(100%,84.3%,0%);fill-opacity:1;" d="M 130.425781 237.976562 C 130.425781 241.570312 125.03125 241.570312 125.03125 237.976562 C 125.03125 234.378906 130.425781 234.378906 130.425781 237.976562 "/>
<path style=" stroke:none;fill-rule:nonzero;fill:rgb(100%,84.3%,0%);fill-opacity:1;" d="M 438.605469 308.6875 C 438.605469 312.285156 433.214844 312.285156 433.214844 308.6875 C 433.214844 305.09375 438.605469 305.09375 438.605469 308.6875 "/>
<path style=" stroke:none;fill-rule:nonzero;fill:rgb(100%,84.3%,0%);fill-opacity:1;" d="M 146.707031 323.386719 C 146.707031 326.984375 141.3125 326.984375 141.3125 323.386719 C 141.3125 319.792969 146.707031 319.792969 146.707031 323.386719 "/>
<path style=" stroke:none;fill-rule:nonzero;fill:rgb(100%,84.3%,0%);fill-opacity:1;" d="M 76.230469 255.703125 C 76.230469 259.300781 70.835938 259.300781 70.835938 255.703125 C 70.835938 252.109375 76.230469 252.109375 76.230469 255.703125 "/>
<path style=" stroke:none;fill-rule:nonzero;fill:rgb(100%,84.3%,0%);fill-opacity:1;" d="M 335.863281 189.015625 C 335.863281 192.613281 330.46875 192.613281 330.46875 189.015625 C 330.46875 185.421875 335.863281 185.421875 335.863281 189.015625 "/>
<path style=" stroke:none;fill-rule:nonzero;fill:rgb(100%,84.3%,0%);fill-opacity:1;" d="M 393.097656 180.199219 C 393.097656 183.796875 387.703125 183.796875 387.703125 180.199219 C 387.703125 176.605469 393.097656 176.605469 393.097656 180.199219 "/>
<path style=" stroke:none;fill-rule:nonzero;fill:rgb(100%,84.3%,0%);fill-opacity:1;" d="M 454.445312 276.886719 C 454.445312 280.480469 449.050781 280.480469 449.050781 276.886719 C 449.050781 273.289062 454.445312 273.289062 454.445312 276.886719 "/>
<path style=" stroke:none;fill-rule:nonzero;fill:rgb(100%,84.3%,0%);fill-opacity:1;" d="M 139.605469 239.039062 C 139.605469 242.636719 134.210938 242.636719 134.210938 239.039062 C 134.210938 235.445312 139.605469 235.445312 139.605469 239.039062 "/>
<path style=" stroke:none;fill-rule:nonzero;fill:rgb(100%,84.3%,0%);fill-opacity:1;" d="M 251.011719 222.3125 C 251.011719 225.910156 245.617188 225.910156 245.617188 222.3125 C 245.617188 218.71875 251.011719 218.71875 251.011719 222.3125 "/>
<path style=" stroke:none;fill-rule:nonzero;fill:rgb(100%,84.3%,0%);fill-opacity:1;" d="M 425.671875 175.984375 C 425.671875 179.582031 420.277344 179.582031 420.277344 175.984375 C 420.277344 172.390625 425.671875 172.390625 425.671875 175.984375 "/>
<path style=" stroke:none;fill-rule:nonzero;fill:rgb(100%,84.3%,0%);fill-opacity:1;" d="M 274.777344 227.0625 C 274.777344 230.660156 269.386719 230.660156 269.386719 227.0625 C 269.386719 223.46875 274.777344 223.46875 274.777344 227.0625 "/>
<path style=" stroke:none;fill-rule:nonzero;fill:rgb(100%,84.3%,0%);fill-opacity:1;" d="M 449.019531 304.9375 C 449.019531 308.53125 443.625 308.53125 443.625 304.9375 C 443.625 301.339844 449.019531 301.339844 449.019531 304.9375 "/>
<path style=" stroke:none;fill-rule:nonzero;fill:rgb(100%,84.3%,0%);fill-opacity:1;" d="M 93.488281 331.597656 C 93.488281 335.191406 88.097656 335.191406 88.097656 331.597656 C 88.097656 328 93.488281 328 93.488281 331.597656 "/>
<path style=" stroke:none;fill-rule:nonzero;fill:rgb(100%,84.3%,0%);fill-opacity:1;" d="M 280.984375 265.84375 C 280.984375 269.4375 275.589844 269.4375 275.589844 265.84375 C 275.589844 262.246094 280.984375 262.246094 280.984375 265.84375 "/>
<path style=" stroke:none;fill-rule:nonzero;fill:rgb(100%,84.3%,0%);fill-opacity:1;" d="M 76.164062 354.074219 C 76.164062 357.671875 70.769531 357.671875 70.769531 354.074219 C 70.769531 350.480469 76.164062 350.480469 76.164062 354.074219 "/>
<path style=" stroke:none;fill-rule:nonzero;fill:rgb(100%,84.3%,0%);fill-opacity:1;" d="M 63.261719 172.125 C 63.261719 175.722656 57.867188 175.722656 57.867188 172.125 C 57.867188 168.527344 63.261719 168.527344 63.261719 172.125 "/>
<path style=" stroke:none;fill-rule:nonzero;fill:rgb(100%,84.3%,0%);fill-opacity:1;" d="M 173.941406 216.457031 C 173.941406 220.054688 168.546875 220.054688 168.546875 216.457031 C 168.546875 212.859375 173.941406 212.859375 173.941406 216.457031 "/>
<path style=" stroke:none;fill-rule:nonzero;fill:rgb(100%,84.3%,0%);fill-opacity:1;" d="M 145.136719 288.1875 C 145.136719 291.78125 139.742188 291.78125 139.742188 288.1875 C 139.742188 284.589844 145.136719 284.589844 145.136719 288.1875 "/>
<path style=" stroke:none;fill-rule:nonzero;fill:rgb(100%,84.3%,0%);fill-opacity:1;" d="M 387.589844 192.835938 C 387.589844 196.429688 382.195312 196.429688 382.195312 192.835938 C 382.195312 189.238281 387.589844 189.238281 387.589844 192.835938 "/>
<path style=" stroke:none;fill-rule:nonzero;fill:rgb(100%,84.3%,0%);fill-opacity:1;" d="M 213.421875 185.066406 C 213.421875 188.664062 208.027344 188.664062 208.027344 185.066406 C 208.027344 181.472656 213.421875 181.472656 213.421875 185.066406 "/>
<path style=" stroke:none;fill-rule:nonzero;fill:rgb(100%,84.3%,0%);fill-opacity:1;" d="M 124.898438 164.515625 C 124.898438 168.109375 119.507812 168.109375 119.507812 164.515625 C 119.507812 160.917969 124.898438 160.917969 124.898438 164.515625 "/>
<path style=" stroke:none;fill-rule:nonzero;fill:rgb(100%,84.3%,0%);fill-opacity:1;" d="M 464.203125 169.238281 C 464.203125 172.835938 458.808594 172.835938 458.808594 169.238281 C 458.808594 165.644531 464.203125 165.644531 464.203125 169.238281 "/>
<path style=" stroke:none;fill-rule:nonzero;fill:rgb(100%,84.3%,0%);fill-opacity:1;" d="M 153.738281 168.589844 C 153.738281 172.1875 148.34375 172.1875 148.34375 168.589844 C 148.34375 164.996094 153.738281 164.996094 153.738281 168.589844 "/>
<path style=" stroke:none;fill-rule:nonzero;fill:rgb(100%,84.3%,0%);fill-opacity:1;" d="M 310.863281 330.871094 C 310.863281 334.46875 305.472656 334.46875 305.472656 330.871094 C 305.472656 327.277344 310.863281 327.277344 310.863281 330.871094 "/>
<path style=" stroke:none;fill-rule:nonzero;fill:rgb(100%,84.3%,0%);fill-opacity:1;" d="M 368.386719 253.773438 C 368.386719 257.371094 362.992188 257.371094 362.992188 253.773438 C 362.992188 250.179688 368.386719 250.179688 368.386719 253.773438 "/>
<path style=" stroke:none;fill-rule:nonzero;fill:rgb(100%,84.3%,0%);fill-opacity:1;" d="M 415.890625 160.257812 C 415.890625 163.855469 410.496094 163.855469 410.496094 160.257812 C 410.496094 156.664062 415.890625 156.664062 415.890625 160.257812 "/>
<path style=" stroke:none;fill-rule:nonzero;fill:rgb(100%,84.3%,0%);fill-opacity:1;" d="M 387.933594 332.957031 C 387.933594 336.550781 382.539062 336.550781 382.539062 332.957031 C 382.539062 329.359375 387.933594 329.359375 387.933594 332.957031 "/>
<path style=" stroke:none;fill-rule:nonzero;fill:rgb(100%,84.3%,0%);fill-opacity:1;" d="M 184.777344 256.003906 C 184.777344 259.601562 179.382812 259.601562 179.382812 256.003906 C 179.382812 252.410156 184.777344 252.410156 184.777344 256.003906 "/>
<path style=" stroke:none;fill-rule:nonzero;fill:rgb(100%,84.3%,0%);fill-opacity:1;" d="M 464.753906 221.980469 C 464.753906 225.578125 459.359375 225.578125 459.359375 221.980469 C 459.359375 218.386719 464.753906 218.386719 464.753906 221.980469 "/>
<path style=" stroke:none;fill-rule:nonzero;fill:rgb(100%,84.3%,0%);fill-opacity:1;" d="M 260.945312 326.5 C 260.945312 330.097656 255.550781 330.097656 255.550781 326.5 C 255.550781 322.902344 260.945312 322.902344 260.945312 326.5 "/>
<path style=" stroke:none;fill-rule:nonzero;fill:rgb(100%,84.3%,0%);fill-opacity:1;" d="M 101.878906 277.113281 C 101.878906 280.710938 96.484375 280.710938 96.484375 277.113281 C 96.484375 273.519531 101.878906 273.519531 101.878906 277.113281 "/>
<path style=" stroke:none;fill-rule:nonzero;fill:rgb(100%,84.3%,0%);fill-opacity:1;" d="M 398.742188 167.179688 C 398.742188 170.777344 393.347656 170.777344 393.347656 167.179688 C 393.347656 163.585938 398.742188 163.585938 398.742188 167.179688 "/>
<path style=" stroke:none;fill-rule:nonzero;fill:rgb(100%,84.3%,0%);fill-opacity:1;" d="M 162.46875 349.019531 C 162.46875 352.613281 157.074219 352.613281 157.074219 349.019531 C 157.074219 345.421875 162.46875 345.421875 162.46875 349.019531 "/>
<path style=" stroke:none;fill-rule:nonzero;fill:rgb(100%,84.3%,0%);fill-opacity:1;" d="M 384.140625 204.605469 C 384.140625 208.203125 378.746094 208.203125 378.746094 204.605469 C 378.746094 201.011719 384.140625 201.011719 384.140625 204.605469 "/>
<path style=" stroke:none;fill-rule:nonzero;fill:rgb(100%,84.3%,0%);fill-opacity:1;" d="M 414.476562 204.703125 C 414.476562 208.300781 409.085938 208.300781 409.085938 204.703125 C 409.085938 201.109375 414.476562 201.109375 414.476562 204.703125 "/>
<path style=" stroke:none;fill-rule:nonzero;fill:rgb(100%,84.3%,0%);fill-opacity:1;" d="M 65.363281 184.8125 C 65.363281 188.40625 59.96875 188.40625 59.96875 184.8125 C 59.96875 181.214844 65.363281 181.214844 65.363281 184.8125 "/>
<path style=" stroke:none;fill-rule:nonzero;fill:rgb(100%,84.3%,0%);fill-opacity:1;" d="M 337.519531 194.667969 C 337.519531 198.261719 332.125 198.261719 332.125 194.667969 C 332.125 191.070312 337.519531 191.070312 337.519531 194.667969 "/>
<path style=" stroke:none;fill-rule:nonzero;fill:rgb(100%,84.3%,0%);fill-opacity:1;" d="M 143.507812 269 C 143.507812 272.597656 138.113281 272.597656 138.113281 269 C 138.113281 265.40625 143.507812 265.40625 143.507812 269 "/>
<path style=" stroke:none;fill-rule:nonzero;fill:rgb(100%,84.3%,0%);fill-opacity:1;" d="M 241.363281 219.949219 C 241.363281 223.546875 235.96875 223.546875 235.96875 219.949219 C 235.96875 216.355469 241.363281 216.355469 241.363281 219.949219 "/>
<path style=" stroke:none;fill-rule:nonzero;fill:rgb(100%,84.3%,0%);fill-opacity:1;" d="M 307.453125 227.382812 C 307.453125 230.976562 302.058594 230.976562 302.058594 227.382812 C 302.058594 223.785156 307.453125 223.785156 307.453125 227.382812 "/>
<path style=" stroke:none;fill-rule:nonzero;fill:rgb(100%,84.3%,0%);fill-opacity:1;" d="M 385.304688 239.730469 C 385.304688 243.324219 379.910156 243.324219 379.910156 239.730469 C 379.910156 236.132812 385.304688 236.132812 385.304688 239.730469 "/>
<path style=" stroke:none;fill-rule:nonzero;fill:rgb(100%,84.3%,0%);fill-opacity:1;" d="M 151.746094 263.246094 C 151.746094 266.84375 146.351562 266.84375 146.351562 263.246094 C 146.351562 259.652344 151.746094 259.652344 151.746094 263.246094 "/>
<path style=" stroke:none;fill-rule:nonzero;fill:rgb(100%,84.3%,0%);fill-opacity:1;" d="M 320.011719 329.402344 C 320.011719 333 314.617188 333 314.617188 329.402344 C 314.617188 325.808594 320.011719 325.808594 320.011719 329.402344 "/>
<path style=" stroke:none;fill-rule:nonzero;fill:rgb(100%,84.3%,0%);fill-opacity:1;" d="M 387.726562 162.441406 C 387.726562 166.039062 382.332031 166.039062 382.332031 162.441406 C 382.332031 158.847656 387.726562 158.847656 387.726562 162.441406 "/>
<path style=" stroke:none;fill-rule:nonzero;fill:rgb(100%,84.3%,0%);fill-opacity:1;" d="M 292.144531 212.269531 C 292.144531 215.867188 286.753906 215.867188 286.753906 212.269531 C 286.753906 208.675781 292.144531 208.675781 292.144531 212.269531 "/>
<path style=" stroke:none;fill-rule:nonzero;fill:rgb(100%,84.3%,0%);fill-opacity:1;" d="M 275.820312 179.398438 C 275.820312 182.996094 270.425781 182.996094 270.425781 179.398438 C 270.425781 175.804688 275.820312 175.804688 275.820312 179.398438 "/>
<path style=" stroke:none;fill-rule:nonzero;fill:rgb(100%,84.3%,0%);fill-opacity:1;" d="M 80.28125 251.863281 C 80.28125 255.460938 74.886719 255.460938 74.886719 251.863281 C 74.886719 248.269531 80.28125 248.269531 80.28125 251.863281 "/>
<path style=" stroke:none;fill-rule:nonzero;fill:rgb(100%,84.3%,0%);fill-opacity:1;" d="M 385.933594 157.175781 C 385.933594 160.773438 380.539062 160.773438 380.539062 157.175781 C 380.539062 153.578125 385.933594 153.578125 385.933594 157.175781 "/>
<path style=" stroke:none;fill-rule:nonzero;fill:rgb(100%,84.3%,0%);fill-opacity:1;" d="M 254.335938 208.21875 C 254.335938 211.8125 248.941406 211.8125 248.941406 208.21875 C 248.941406 204.621094 254.335938 204.621094 254.335938 208.21875 "/>
<path style=" stroke:none;fill-rule:nonzero;fill:rgb(100%,84.3%,0%);fill-opacity:1;" d="M 249.550781 337.382812 C 249.550781 340.980469 244.15625 340.980469 244.15625 337.382812 C 244.15625 333.785156 249.550781 333.785156 249.550781 337.382812 "/>
<path style=" stroke:none;fill-rule:nonzero;fill:rgb(100%,84.3%,0%);fill-opacity:1;" d="M 371.015625 307.152344 C 371.015625 310.75 365.621094 310.75 365.621094 307.152344 C 365.621094 303.558594 371.015625 303.558594 371.015625 307.152344 "/>
<path style=" stroke:none;fill-rule:nonzero;fill:rgb(100%,84.3%,0%);fill-opacity:1;" d="M 444.773438 253.773438 C 444.773438 257.367188 439.378906 257.367188 439.378906 253.773438 C 439.378906 250.175781 444.773438 250.175781 444.773438 253.773438 "/>
<path style=" stroke:none;fill-rule:nonzero;fill:rgb(100%,84.3%,0%);fill-opacity:1;" d="M 239.320312 209.28125 C 239.320312 212.878906 233.925781 212.878906 233.925781 209.28125 C 233.925781 205.6875 239.320312 205.6875 239.320312 209.28125 "/>
<path style=" stroke:none;fill-rule:nonzero;fill:rgb(100%,84.3%,0%);fill-opacity:1;" d="M 427.566406 294.359375 C 427.566406 297.953125 422.175781 297.953125 422.175781 294.359375 C 422.175781 290.761719 427.566406 290.761719 427.566406 294.359375 "/>
<path style=" stroke:none;fill-rule:nonzero;fill:rgb(100%,84.3%,0%);fill-opacity:1;" d="M 228.769531 213.390625 C 228.769531 216.984375 223.378906 216.984375 223.378906 213.390625 C 223.378906 209.792969 228.769531 209.792969 228.769531 213.390625 "/>
<path style=" stroke:none;fill-rule:nonzero;fill:rgb(100%,84.3%,0%);fill-opacity:1;" d="M 109.890625 220.722656 C 109.890625 224.320312 104.496094 224.320312 104.496094 220.722656 C 104.496094 217.128906 109.890625 217.128906 109.890625 220.722656 "/>
<path style=" stroke:none;fill-rule:nonzero;fill:rgb(100%,84.3%,0%);fill-opacity:1;" d="M 153.660156 157.835938 C 153.660156 161.433594 148.269531 161.433594 148.269531 157.835938 C 148.269531 154.238281 153.660156 154.238281 153.660156 157.835938 "/>
<path style=" stroke:none;fill-rule:nonzero;fill:rgb(100%,84.3%,0%);fill-opacity:1;" d="M 137.101562 342.523438 C 137.101562 346.117188 131.707031 346.117188 131.707031 342.523438 C 131.707031 338.925781 137.101562 338.925781 137.101562 342.523438 "/>
<path style=" stroke:none;fill-rule:nonzero;fill:rgb(100%,84.3%,0%);fill-opacity:1;" d="M 367.308594 333.898438 C 367.308594 337.492188 361.914062 337.492188 361.914062 333.898438 C 361.914062 330.300781 367.308594 330.300781 367.308594 333.898438 "/>
<path style=" stroke:none;fill-rule:nonzero;fill:rgb(100%,84.3%,0%);fill-opacity:1;" d="M 408.933594 273.074219 C 408.933594 276.667969 403.539062 276.667969 403.539062 273.074219 C 403.539062 269.476562 408.933594 269.476562 408.933594 273.074219 "/>
<path style=" stroke:none;fill-rule:nonzero;fill:rgb(100%,84.3%,0%);fill-opacity:1;" d="M 457.5 330.988281 C 457.5 334.582031 452.105469 334.582031 452.105469 330.988281 C 452.105469 327.390625 457.5 327.390625 457.5 330.988281 "/>
<path style=" stroke:none;fill-rule:nonzero;fill:rgb(100%,84.3%,0%);fill-opacity:1;" d="M 270.765625 186.84375 C 270.765625 190.441406 265.371094 190.441406 265.371094 186.84375 C 265.371094 183.25 270.765625 183.25 270.765625 186.84375 "/>
<path style=" stroke:none;fill-rule:nonzero;fill:rgb(100%,84.3%,0%);fill-opacity:1;" d="M 320.273438 204.929688 C 320.273438 208.523438 314.878906 208.523438 314.878906 204.929688 C 314.878906 201.332031 320.273438 201.332031 320.273438 204.929688 "/>
<path style=" stroke:none;fill-rule:nonzero;fill:rgb(100%,84.3%,0%);fill-opacity:1;" d="M 432.066406 237.832031 C 432.066406 241.429688 426.671875 241.429688 426.671875 237.832031 C 426.671875 234.238281 432.066406 234.238281 432.066406 237.832031 "/>
<path style=" stroke:none;fill-rule:nonzero;fill:rgb(100%,84.3%,0%);fill-opacity:1;" d="M 214.59375 315.695312 C 214.59375 319.289062 209.199219 319.289062 209.199219 315.695312 C 209.199219 312.097656 214.59375 312.097656 214.59375 315.695312 "/>
<path style=" stroke:none;fill-rule:nonzero;fill:rgb(100%,84.3%,0%);fill-opacity:1;" d="M 280.445312 329.949219 C 280.445312 333.546875 275.054688 333.546875 275.054688 329.949219 C 275.054688 326.355469 280.445312 326.355469 280.445312 329.949219 "/>
<path style=" stroke:none;fill-rule:nonzero;fill:rgb(100%,84.3%,0%);fill-opacity:1;" d="M 75.226562 213.519531 C 75.226562 217.117188 69.832031 217.117188 69.832031 213.519531 C 69.832031 209.925781 75.226562 209.925781 75.226562 213.519531 "/>
<path style=" stroke:none;fill-rule:nonzero;fill:rgb(100%,84.3%,0%);fill-opacity:1;" d="M 333.710938 307.585938 C 333.710938 311.179688 328.316406 311.179688 328.316406 307.585938 C 328.316406 303.988281 333.710938 303.988281 333.710938 307.585938 "/>
<path style=" stroke:none;fill-rule:nonzero;fill:rgb(100%,84.3%,0%);fill-opacity:1;" d="M 116.414062 282.796875 C 116.414062 286.394531 111.019531 286.394531 111.019531 282.796875 C 111.019531 279.203125 116.414062 279.203125 116.414062 282.796875 "/>
<path style=" stroke:none;fill-rule:nonzero;fill:rgb(100%,84.3%,0%);fill-opacity:1;" d="M 189.550781 342.007812 C 189.550781 345.605469 184.15625 345.605469 184.15625 342.007812 C 184.15625 338.414062 189.550781 338.414062 189.550781 342.007812 "/>
<path style=" stroke:none;fill-rule:nonzero;fill:rgb(100%,84.3%,0%);fill-opacity:1;" d="M 152.679688 255.527344 C 152.679688 259.121094 147.285156 259.121094 147.285156 255.527344 C 147.285156 251.929688 152.679688 251.929688 152.679688 255.527344 "/>
</g>
</svg>
