<?xml version="1.0" encoding="UTF-8"?>
<svg xmlns="http://www.w3.org/2000/svg" xmlns:xlink="http://www.w3.org/1999/xlink" width="512pt" height="512pt" viewBox="0 0 512 512" version="1.1">
<g id="surface136">
<rect x="0" y="0" width="512" height="512" style="fill:rgb(26.7%,26.7%,26.7%);fill-opacity:1;stroke:none;"/>
<path style=" stroke:none;fill-rule:nonzero;fill:rgb(19.2%,38.8%,66.7%);fill-opacity:1;" d="M 42.667969 164.539062 L 469.332031 164.539062 L 469.332031 480.414062 L 42.667969 480.414062 Z M 42.667969 164.539062 "/>
<path style=" stroke:none;fill-rule:nonzero;fill:rgb(100%,100%,100%);fill-opacity:1;" d="M 483.476562 176.324219 C 483.476562 182.832031 478.199219 188.109375 471.691406 188.109375 C 465.179688 188.109375 459.90625 182.832031 459.90625 176.324219 C 459.90625 169.816406 465.179688 164.539062 471.691406 164.539062 C 478.199219 164.539062 483.476562 169.816406 483.476562 176.324219 "/>
<path style=" stroke:none;fill-rule:nonzero;fill:rgb(100%,100%,100%);fill-opacity:1;" d="M 511.765625 459.195312 C 511.765625 465.707031 506.488281 470.984375 499.976562 470.984375 C 493.46875 470.984375 488.191406 465.707031 488.191406 459.195312 C 488.191406 452.6875 493.46875 447.410156 499.976562 447.410156 C 506.488281 447.410156 511.765625 452.6875 511.765625 459.195312 "/>
<path style=" stroke:none;fill-rule:nonzero;fill:rgb(100%,100%,100%);fill-opacity:1;" d="M 485.835938 11.316406 C 485.835938 17.824219 480.558594 23.101562 474.046875 23.101562 C 467.539062 23.101562 462.261719 17.824219 462.261719 11.316406 C 462.261719 4.804688 467.539062 -0.472656 474.046875 -0.472656 C 480.558594 -0.472656 485.835938 4.804688 485.835938 11.316406 "/>
<path style=" stroke:none;fill-rule:nonzero;fill:rgb(100%,100%,100%);fill-opacity:1;" d="M 377.398438 67.890625 C 377.398438 74.398438 372.121094 79.675781 365.613281 79.675781 C 359.105469 79.675781 353.828125 74.398438 353.828125 67.890625 C 353.828125 61.378906 359.105469 56.105469 365.613281 56.105469 C 372.121094 56.105469 377.398438 61.378906 377.398438 67.890625 "/>
<path style=" stroke:none;fill-rule:nonzero;fill:rgb(100%,100%,100%);fill-opacity:1;" d="M 400.972656 131.535156 C 400.972656 138.046875 395.695312 143.324219 389.1875 143.324219 C 382.675781 143.324219 377.398438 138.046875 377.398438 131.535156 C 377.398438 125.027344 382.675781 119.75 389.1875 119.75 C 395.695312 119.75 400.972656 125.027344 400.972656 131.535156 "/>
<path style=" stroke:none;fill-rule:nonzero;fill:rgb(100%,100%,100%);fill-opacity:1;" d="M 516.476562 291.832031 C 516.476562 298.339844 511.203125 303.617188 504.691406 303.617188 C 498.183594 303.617188 492.90625 298.339844 492.90625 291.832031 C 492.90625 285.320312 498.183594 280.042969 504.691406 280.042969 C 511.203125 280.042969 516.476562 285.320312 516.476562 291.832031 "/>
<path style=" stroke:none;fill-rule:nonzero;fill:rgb(100%,100%,100%);fill-opacity:1;" d="M 492.90625 402.621094 C 492.90625 409.132812 487.628906 414.410156 481.121094 414.410156 C 474.609375 414.410156 469.332031 409.132812 469.332031 402.621094 C 469.332031 396.113281 474.609375 390.835938 481.121094 390.835938 C 487.628906 390.835938 492.90625 396.113281 492.90625 402.621094 "/>
<path style=" stroke:none;fill-rule:nonzero;fill:rgb(100%,100%,100%);fill-opacity:1;" d="M 306.679688 122.105469 C 306.679688 128.617188 301.40625 133.894531 294.894531 133.894531 C 288.386719 133.894531 283.109375 128.617188 283.109375 122.105469 C 283.109375 115.597656 288.386719 110.320312 294.894531 110.320312 C 301.40625 110.320312 306.679688 115.597656 306.679688 122.105469 "/>
<path style=" stroke:none;fill-rule:nonzero;fill:rgb(100%,100%,100%);fill-opacity:1;" d="M 521.195312 277.6875 C 521.195312 284.195312 515.917969 289.472656 509.40625 289.472656 C 502.898438 289.472656 497.621094 284.195312 497.621094 277.6875 C 497.621094 271.175781 502.898438 265.902344 509.40625 265.902344 C 515.917969 265.902344 521.195312 271.175781 521.195312 277.6875 "/>
<path style=" stroke:none;fill-rule:nonzero;fill:rgb(100%,100%,100%);fill-opacity:1;" d="M 40.308594 421.480469 C 40.308594 427.992188 35.03125 433.265625 28.523438 433.265625 C 22.011719 433.265625 16.738281 427.992188 16.738281 421.480469 C 16.738281 414.972656 22.011719 409.695312 28.523438 409.695312 C 35.03125 409.695312 40.308594 414.972656 40.308594 421.480469 "/>
<path style=" stroke:none;fill-rule:nonzero;fill:rgb(100%,100%,100%);fill-opacity:1;" d="M 481.121094 72.605469 C 481.121094 79.113281 475.84375 84.390625 469.332031 84.390625 C 462.824219 84.390625 457.546875 79.113281 457.546875 72.605469 C 457.546875 66.09375 462.824219 60.816406 469.332031 60.816406 C 475.84375 60.816406 481.121094 66.09375 481.121094 72.605469 "/>
<path style=" stroke:none;fill-rule:nonzero;fill:rgb(100%,100%,100%);fill-opacity:1;" d="M 266.605469 159.824219 C 266.605469 166.332031 261.332031 171.609375 254.820312 171.609375 C 248.3125 171.609375 243.035156 166.332031 243.035156 159.824219 C 243.035156 153.3125 248.3125 148.035156 254.820312 148.035156 C 261.332031 148.035156 266.605469 153.3125 266.605469 159.824219 "/>
<path style=" stroke:none;fill-rule:nonzero;fill:rgb(100%,100%,100%);fill-opacity:1;" d="M 21.453125 343.691406 C 21.453125 350.199219 16.175781 355.476562 9.664062 355.476562 C 3.15625 355.476562 -2.121094 350.199219 -2.121094 343.691406 C -2.121094 337.179688 3.15625 331.90625 9.664062 331.90625 C 16.175781 331.90625 21.453125 337.179688 21.453125 343.691406 "/>
<path style=" stroke:none;fill-rule:nonzero;fill:rgb(100%,100%,100%);fill-opacity:1;" d="M 158.171875 93.820312 C 158.171875 100.328125 152.894531 105.605469 146.386719 105.605469 C 139.878906 105.605469 134.601562 100.328125 134.601562 93.820312 C 134.601562 87.3125 139.878906 82.035156 146.386719 82.035156 C 152.894531 82.035156 158.171875 87.3125 158.171875 93.820312 "/>
<path style=" stroke:none;fill-rule:nonzero;fill:rgb(100%,100%,100%);fill-opacity:1;" d="M 9.664062 303.617188 C 9.664062 310.125 4.386719 315.402344 -2.121094 315.402344 C -8.632812 315.402344 -13.910156 310.125 -13.910156 303.617188 C -13.910156 297.109375 -8.632812 291.832031 -2.121094 291.832031 C 4.386719 291.832031 9.664062 297.109375 9.664062 303.617188 "/>
<path style=" stroke:none;fill-rule:nonzero;fill:rgb(100%,100%,100%);fill-opacity:1;" d="M 52.09375 270.613281 C 52.09375 277.125 46.820312 282.402344 40.308594 282.402344 C 33.800781 282.402344 28.523438 277.125 28.523438 270.613281 C 28.523438 264.105469 33.800781 258.828125 40.308594 258.828125 C 46.820312 258.828125 52.09375 264.105469 52.09375 270.613281 "/>
<path style=" stroke:none;fill-rule:nonzero;fill:rgb(100%,100%,100%);fill-opacity:1;" d="M 514.121094 96.175781 C 514.121094 102.6875 508.84375 107.964844 502.335938 107.964844 C 495.824219 107.964844 490.546875 102.6875 490.546875 96.175781 C 490.546875 89.667969 495.824219 84.390625 502.335938 84.390625 C 508.84375 84.390625 514.121094 89.667969 514.121094 96.175781 "/>
<path style=" stroke:none;fill-rule:nonzero;fill:rgb(100%,100%,100%);fill-opacity:1;" d="M 191.175781 60.816406 C 191.175781 67.328125 185.898438 72.605469 179.390625 72.605469 C 172.878906 72.605469 167.601562 67.328125 167.601562 60.816406 C 167.601562 54.308594 172.878906 49.03125 179.390625 49.03125 C 185.898438 49.03125 191.175781 54.308594 191.175781 60.816406 "/>
<path style=" stroke:none;fill-rule:nonzero;fill:rgb(100%,100%,100%);fill-opacity:1;" d="M 264.25 84.390625 C 264.25 90.898438 258.972656 96.175781 252.464844 96.175781 C 245.953125 96.175781 240.675781 90.898438 240.675781 84.390625 C 240.675781 77.878906 245.953125 72.605469 252.464844 72.605469 C 258.972656 72.605469 264.25 77.878906 264.25 84.390625 "/>
<path style=" stroke:none;fill-rule:nonzero;fill:rgb(100%,100%,100%);fill-opacity:1;" d="M 299.609375 155.109375 C 299.609375 161.617188 294.332031 166.894531 287.824219 166.894531 C 281.3125 166.894531 276.035156 161.617188 276.035156 155.109375 C 276.035156 148.597656 281.3125 143.324219 287.824219 143.324219 C 294.332031 143.324219 299.609375 148.597656 299.609375 155.109375 "/>
<path style=" stroke:none;fill-rule:nonzero;fill:rgb(100%,100%,100%);fill-opacity:1;" d="M 47.382812 49.03125 C 47.382812 55.539062 42.105469 60.816406 35.59375 60.816406 C 29.085938 60.816406 23.808594 55.539062 23.808594 49.03125 C 23.808594 42.523438 29.085938 37.246094 35.59375 37.246094 C 42.105469 37.246094 47.382812 42.523438 47.382812 49.03125 "/>
<path style=" stroke:none;fill-rule:nonzero;fill:rgb(100%,100%,100%);fill-opacity:1;" d="M 16.738281 84.390625 C 16.738281 90.898438 11.460938 96.175781 4.949219 96.175781 C -1.558594 96.175781 -6.835938 90.898438 -6.835938 84.390625 C -6.835938 77.878906 -1.558594 72.605469 4.949219 72.605469 C 11.460938 72.605469 16.738281 77.878906 16.738281 84.390625 "/>
<path style=" stroke:none;fill-rule:nonzero;fill:rgb(100%,100%,100%);fill-opacity:1;" d="M 2.59375 155.109375 C 2.59375 161.617188 -2.683594 166.894531 -9.191406 166.894531 C -15.703125 166.894531 -20.980469 161.617188 -20.980469 155.109375 C -20.980469 148.597656 -15.703125 143.324219 -9.191406 143.324219 C -2.683594 143.324219 2.59375 148.597656 2.59375 155.109375 "/>
<path style=" stroke:none;fill-rule:nonzero;fill:rgb(100%,100%,100%);fill-opacity:1;" d="M 169.960938 86.746094 C 169.960938 93.257812 164.683594 98.535156 158.171875 98.535156 C 151.664062 98.535156 146.386719 93.257812 146.386719 86.746094 C 146.386719 80.238281 151.664062 74.960938 158.171875 74.960938 C 164.683594 74.960938 169.960938 80.238281 169.960938 86.746094 "/>
<path style=" stroke:none;fill-rule:nonzero;fill:rgb(100%,100%,100%);fill-opacity:1;" d="M 499.976562 112.679688 C 499.976562 119.1875 494.703125 124.464844 488.191406 124.464844 C 481.683594 124.464844 476.40625 119.1875 476.40625 112.679688 C 476.40625 106.167969 481.683594 100.890625 488.191406 100.890625 C 494.703125 100.890625 499.976562 106.167969 499.976562 112.679688 "/>
<path style=" stroke:none;fill-rule:nonzero;fill:rgb(100%,100%,100%);fill-opacity:1;" d="M 455.1875 518.128906 C 455.1875 524.636719 449.914062 529.914062 443.402344 529.914062 C 436.894531 529.914062 431.617188 524.636719 431.617188 518.128906 C 431.617188 511.621094 436.894531 506.34375 443.402344 506.34375 C 449.914062 506.34375 455.1875 511.621094 455.1875 518.128906 "/>
<path style=" stroke:none;fill-rule:nonzero;fill:rgb(100%,100%,100%);fill-opacity:1;" d="M 231.25 32.53125 C 231.25 39.039062 225.972656 44.316406 219.460938 44.316406 C 212.953125 44.316406 207.675781 39.039062 207.675781 32.53125 C 207.675781 26.019531 212.953125 20.742188 219.460938 20.742188 C 225.972656 20.742188 231.25 26.019531 231.25 32.53125 "/>
<path style=" stroke:none;fill-rule:nonzero;fill:rgb(100%,100%,100%);fill-opacity:1;" d="M 224.175781 11.316406 C 224.175781 17.824219 218.898438 23.101562 212.390625 23.101562 C 205.878906 23.101562 200.605469 17.824219 200.605469 11.316406 C 200.605469 4.804688 205.878906 -0.472656 212.390625 -0.472656 C 218.898438 -0.472656 224.175781 4.804688 224.175781 11.316406 "/>
<path style=" stroke:none;fill-rule:nonzero;fill:rgb(100%,100%,100%);fill-opacity:1;" d="M 19.09375 77.320312 C 19.09375 83.828125 13.816406 89.105469 7.308594 89.105469 C 0.796875 89.105469 -4.476562 83.828125 -4.476562 77.320312 C -4.476562 70.808594 0.796875 65.53125 7.308594 65.53125 C 13.816406 65.53125 19.09375 70.808594 19.09375 77.320312 "/>
<path style=" stroke:none;fill-rule:nonzero;fill:rgb(100%,100%,100%);fill-opacity:1;" d="M 37.953125 129.179688 C 37.953125 135.6875 32.675781 140.964844 26.164062 140.964844 C 19.65625 140.964844 14.378906 135.6875 14.378906 129.179688 C 14.378906 122.667969 19.65625 117.394531 26.164062 117.394531 C 32.675781 117.394531 37.953125 122.667969 37.953125 129.179688 "/>
<path style=" stroke:none;fill-rule:nonzero;fill:rgb(100%,100%,100%);fill-opacity:1;" d="M 372.683594 482.769531 C 372.683594 489.28125 367.410156 494.554688 360.898438 494.554688 C 354.390625 494.554688 349.113281 489.28125 349.113281 482.769531 C 349.113281 476.261719 354.390625 470.984375 360.898438 470.984375 C 367.410156 470.984375 372.683594 476.261719 372.683594 482.769531 "/>
<path style=" stroke:none;fill-rule:nonzero;fill:rgb(100%,100%,100%);fill-opacity:1;" d="M 35.59375 487.484375 C 35.59375 493.992188 30.316406 499.269531 23.808594 499.269531 C 17.296875 499.269531 12.023438 493.992188 12.023438 487.484375 C 12.023438 480.972656 17.296875 475.699219 23.808594 475.699219 C 30.316406 475.699219 35.59375 480.972656 35.59375 487.484375 "/>
<path style=" stroke:none;fill-rule:nonzero;fill:rgb(100%,84.3%,0%);fill-opacity:1;" d="M 78.023438 353.230469 C 78.023438 359.738281 72.75 365.015625 66.238281 365.015625 C 59.730469 365.015625 54.453125 359.738281 54.453125 353.230469 C 54.453125 346.71875 59.730469 341.441406 66.238281 341.441406 C 72.75 341.441406 78.023438 346.71875 78.023438 353.230469 "/>
<path style=" stroke:none;fill-rule:nonzero;fill:rgb(100%,84.3%,0%);fill-opacity:1;" d="M 268.644531 188.109375 C 268.644531 194.621094 263.367188 199.898438 256.859375 199.898438 C 250.347656 199.898438 245.070312 194.621094 245.070312 188.109375 C 245.070312 181.601562 250.347656 176.324219 256.859375 176.324219 C 263.367188 176.324219 268.644531 181.601562 268.644531 188.109375 "/>
<path style=" stroke:none;fill-rule:nonzero;fill:rgb(100%,84.3%,0%);fill-opacity:1;" d="M 78.023438 406.722656 C 78.023438 413.230469 72.75 418.507812 66.238281 418.507812 C 59.730469 418.507812 54.453125 413.230469 54.453125 406.722656 C 54.453125 400.210938 59.730469 394.9375 66.238281 394.9375 C 72.75 394.9375 78.023438 400.210938 78.023438 406.722656 "/>
<path style=" stroke:none;fill-rule:nonzero;fill:rgb(100%,84.3%,0%);fill-opacity:1;" d="M 457.546875 188.109375 C 457.546875 194.621094 452.269531 199.898438 445.761719 199.898438 C 439.25 199.898438 433.976562 194.621094 433.976562 188.109375 C 433.976562 181.601562 439.25 176.324219 445.761719 176.324219 C 452.269531 176.324219 457.546875 181.601562 457.546875 188.109375 "/>
<path style=" stroke:none;fill-rule:nonzero;fill:rgb(100%,84.3%,0%);fill-opacity:1;" d="M 78.066406 234.714844 C 78.066406 241.222656 72.789062 246.5 66.28125 246.5 C 59.773438 246.5 54.496094 241.222656 54.496094 234.714844 C 54.496094 228.203125 59.773438 222.925781 66.28125 222.925781 C 72.789062 222.925781 78.066406 228.203125 78.066406 234.714844 "/>
<path style=" stroke:none;fill-rule:nonzero;fill:rgb(100%,84.3%,0%);fill-opacity:1;" d="M 78.027344 262.371094 C 78.027344 268.878906 72.75 274.15625 66.238281 274.15625 C 59.730469 274.15625 54.453125 268.878906 54.453125 262.371094 C 54.453125 255.863281 59.730469 250.585938 66.238281 250.585938 C 72.75 250.585938 78.027344 255.863281 78.027344 262.371094 "/>
<path style=" stroke:none;fill-rule:nonzero;fill:rgb(100%,84.3%,0%);fill-opacity:1;" d="M 245.082031 188.820312 C 245.082031 195.332031 239.804688 200.609375 233.296875 200.609375 C 226.785156 200.609375 221.507812 195.332031 221.507812 188.820312 C 221.507812 182.3125 226.785156 177.035156 233.296875 177.035156 C 239.804688 177.035156 245.082031 182.3125 245.082031 188.820312 "/>
<path style=" stroke:none;fill-rule:nonzero;fill:rgb(100%,84.3%,0%);fill-opacity:1;" d="M 359.585938 456.839844 C 359.585938 463.347656 354.308594 468.625 347.796875 468.625 C 341.289062 468.625 336.011719 463.347656 336.011719 456.839844 C 336.011719 450.332031 341.289062 445.054688 347.796875 445.054688 C 354.308594 445.054688 359.585938 450.332031 359.585938 456.839844 "/>
<path style=" stroke:none;fill-rule:nonzero;fill:rgb(100%,84.3%,0%);fill-opacity:1;" d="M 78.023438 286.277344 C 78.023438 292.789062 72.75 298.066406 66.238281 298.066406 C 59.730469 298.066406 54.453125 292.789062 54.453125 286.277344 C 54.453125 279.769531 59.730469 274.492188 66.238281 274.492188 C 72.75 274.492188 78.023438 279.769531 78.023438 286.277344 "/>
<path style=" stroke:none;fill-rule:nonzero;fill:rgb(100%,84.3%,0%);fill-opacity:1;" d="M 318.351562 188.109375 C 318.351562 194.621094 313.078125 199.898438 306.566406 199.898438 C 300.058594 199.898438 294.78125 194.621094 294.78125 188.109375 C 294.78125 181.601562 300.058594 176.324219 306.566406 176.324219 C 313.078125 176.324219 318.351562 181.601562 318.351562 188.109375 "/>
<path style=" stroke:none;fill-rule:nonzero;fill:rgb(100%,84.3%,0%);fill-opacity:1;" d="M 292.53125 188.109375 C 292.53125 194.621094 287.253906 199.898438 280.742188 199.898438 C 274.234375 199.898438 268.957031 194.621094 268.957031 188.109375 C 268.957031 181.601562 274.234375 176.324219 280.742188 176.324219 C 287.253906 176.324219 292.53125 181.601562 292.53125 188.109375 "/>
<path style=" stroke:none;fill-rule:nonzero;fill:rgb(100%,84.3%,0%);fill-opacity:1;" d="M 383.160156 456.839844 C 383.160156 463.347656 377.882812 468.625 371.371094 468.625 C 364.863281 468.625 359.585938 463.347656 359.585938 456.839844 C 359.585938 450.328125 364.863281 445.050781 371.371094 445.050781 C 377.882812 445.050781 383.160156 450.328125 383.160156 456.839844 "/>
<path style=" stroke:none;fill-rule:nonzero;fill:rgb(100%,84.3%,0%);fill-opacity:1;" d="M 78.027344 432.066406 C 78.027344 438.578125 72.75 443.851562 66.238281 443.851562 C 59.730469 443.851562 54.453125 438.578125 54.453125 432.066406 C 54.453125 425.558594 59.730469 420.28125 66.238281 420.28125 C 72.75 420.28125 78.027344 425.558594 78.027344 432.066406 "/>
</g>
</svg>
