<?xml version="1.0" encoding="UTF-8"?>
<svg xmlns="http://www.w3.org/2000/svg" xmlns:xlink="http://www.w3.org/1999/xlink" width="512pt" height="512pt" viewBox="0 0 512 512" version="1.1">
<g id="surface136">
<path style=" stroke:none;fill-rule:nonzero;fill:rgb(26.7%,26.7%,26.7%);fill-opacity:1;" d="M 0 66.476562 L 512 66.476562 L 512 445.527344 L 0 445.527344 Z M 0 66.476562 "/>
<path style=" stroke:none;fill-rule:nonzero;fill:rgb(19.2%,38.8%,66.7%);fill-opacity:1;" d="M 42.667969 98.0625 L 469.332031 98.0625 L 469.332031 413.9375 L 42.667969 413.9375 Z M 42.667969 98.0625 "/>
<path style=" stroke:none;fill-rule:nonzero;fill:rgb(100%,100%,100%);fill-opacity:1;" d="M 483.476562 109.847656 C 483.476562 116.359375 478.199219 121.636719 471.691406 121.636719 C 465.179688 121.636719 459.90625 116.359375 459.90625 109.847656 C 459.90625 103.339844 465.179688 98.0625 471.691406 98.0625 C 478.199219 98.0625 483.476562 103.339844 483.476562 109.847656 "/>
<path style=" stroke:none;fill-rule:nonzero;fill:rgb(100%,100%,100%);fill-opacity:1;" d="M 511.765625 392.722656 C 511.765625 399.230469 506.488281 404.507812 499.976562 404.507812 C 493.46875 404.507812 488.191406 399.230469 488.191406 392.722656 C 488.191406 386.210938 493.46875 380.9375 499.976562 380.9375 C 506.488281 380.9375 511.765625 386.210938 511.765625 392.722656 "/>
<path style=" stroke:none;fill-rule:nonzero;fill:rgb(100%,100%,100%);fill-opacity:1;" d="M 377.398438 1.414062 C 377.398438 7.921875 372.121094 13.199219 365.613281 13.199219 C 359.105469 13.199219 353.828125 7.921875 353.828125 1.414062 C 353.828125 -5.09375 359.105469 -10.371094 365.613281 -10.371094 C 372.121094 -10.371094 377.398438 -5.09375 377.398438 1.414062 "/>
<path style=" stroke:none;fill-rule:nonzero;fill:rgb(100%,100%,100%);fill-opacity:1;" d="M 400.972656 65.0625 C 400.972656 71.570312 395.695312 76.847656 389.1875 76.847656 C 382.675781 76.847656 377.398438 71.570312 377.398438 65.0625 C 377.398438 58.550781 382.675781 53.273438 389.1875 53.273438 C 395.695312 53.273438 400.972656 58.550781 400.972656 65.0625 "/>
<path style=" stroke:none;fill-rule:nonzero;fill:rgb(100%,100%,100%);fill-opacity:1;" d="M 516.476562 225.355469 C 516.476562 231.863281 511.203125 237.140625 504.691406 237.140625 C 498.183594 237.140625 492.90625 231.863281 492.90625 225.355469 C 492.90625 218.84375 498.183594 213.570312 504.691406 213.570312 C 511.203125 213.570312 516.476562 218.84375 516.476562 225.355469 "/>
<path style=" stroke:none;fill-rule:nonzero;fill:rgb(100%,100%,100%);fill-opacity:1;" d="M 492.90625 336.148438 C 492.90625 342.65625 487.628906 347.933594 481.121094 347.933594 C 474.609375 347.933594 469.332031 342.65625 469.332031 336.148438 C 469.332031 329.636719 474.609375 324.359375 481.121094 324.359375 C 487.628906 324.359375 492.90625 329.636719 492.90625 336.148438 "/>
<path style=" stroke:none;fill-rule:nonzero;fill:rgb(100%,100%,100%);fill-opacity:1;" d="M 306.679688 55.632812 C 306.679688 62.140625 301.40625 67.417969 294.894531 67.417969 C 288.386719 67.417969 283.109375 62.140625 283.109375 55.632812 C 283.109375 49.121094 288.386719 43.84375 294.894531 43.84375 C 301.40625 43.84375 306.679688 49.121094 306.679688 55.632812 "/>
<path style=" stroke:none;fill-rule:nonzero;fill:rgb(100%,100%,100%);fill-opacity:1;" d="M 521.195312 211.210938 C 521.195312 217.722656 515.917969 223 509.40625 223 C 502.898438 223 497.621094 217.722656 497.621094 211.210938 C 497.621094 204.703125 502.898438 199.425781 509.40625 199.425781 C 515.917969 199.425781 521.195312 204.703125 521.195312 211.210938 "/>
<path style=" stroke:none;fill-rule:nonzero;fill:rgb(100%,100%,100%);fill-opacity:1;" d="M 40.308594 355.007812 C 40.308594 361.515625 35.03125 366.792969 28.523438 366.792969 C 22.011719 366.792969 16.738281 361.515625 16.738281 355.007812 C 16.738281 348.496094 22.011719 343.21875 28.523438 343.21875 C 35.03125 343.21875 40.308594 348.496094 40.308594 355.007812 "/>
<path style=" stroke:none;fill-rule:nonzero;fill:rgb(100%,100%,100%);fill-opacity:1;" d="M 481.121094 6.128906 C 481.121094 12.636719 475.84375 17.914062 469.332031 17.914062 C 462.824219 17.914062 457.546875 12.636719 457.546875 6.128906 C 457.546875 -0.378906 462.824219 -5.65625 469.332031 -5.65625 C 475.84375 -5.65625 481.121094 -0.378906 481.121094 6.128906 "/>
<path style=" stroke:none;fill-rule:nonzero;fill:rgb(100%,100%,100%);fill-opacity:1;" d="M 266.605469 93.347656 C 266.605469 99.859375 261.332031 105.132812 254.820312 105.132812 C 248.3125 105.132812 243.035156 99.859375 243.035156 93.347656 C 243.035156 86.839844 248.3125 81.5625 254.820312 81.5625 C 261.332031 81.5625 266.605469 86.839844 266.605469 93.347656 "/>
<path style=" stroke:none;fill-rule:nonzero;fill:rgb(100%,100%,100%);fill-opacity:1;" d="M 21.453125 277.214844 C 21.453125 283.722656 16.175781 289 9.664062 289 C 3.15625 289 -2.121094 283.722656 -2.121094 277.214844 C -2.121094 270.707031 3.15625 265.429688 9.664062 265.429688 C 16.175781 265.429688 21.453125 270.707031 21.453125 277.214844 "/>
<path style=" stroke:none;fill-rule:nonzero;fill:rgb(100%,100%,100%);fill-opacity:1;" d="M 158.171875 27.34375 C 158.171875 33.851562 152.894531 39.128906 146.386719 39.128906 C 139.878906 39.128906 134.601562 33.851562 134.601562 27.34375 C 134.601562 20.835938 139.878906 15.558594 146.386719 15.558594 C 152.894531 15.558594 158.171875 20.835938 158.171875 27.34375 "/>
<path style=" stroke:none;fill-rule:nonzero;fill:rgb(100%,100%,100%);fill-opacity:1;" d="M 9.664062 237.140625 C 9.664062 243.652344 4.386719 248.929688 -2.121094 248.929688 C -8.632812 248.929688 -13.910156 243.652344 -13.910156 237.140625 C -13.910156 230.632812 -8.632812 225.355469 -2.121094 225.355469 C 4.386719 225.355469 9.664062 230.632812 9.664062 237.140625 "/>
<path style=" stroke:none;fill-rule:nonzero;fill:rgb(100%,100%,100%);fill-opacity:1;" d="M 129.886719 515.300781 C 129.886719 521.808594 124.609375 527.085938 118.097656 527.085938 C 111.589844 527.085938 106.3125 521.808594 106.3125 515.300781 C 106.3125 508.789062 111.589844 503.511719 118.097656 503.511719 C 124.609375 503.511719 129.886719 508.789062 129.886719 515.300781 "/>
<path style=" stroke:none;fill-rule:nonzero;fill:rgb(100%,100%,100%);fill-opacity:1;" d="M 52.09375 204.140625 C 52.09375 210.648438 46.820312 215.925781 40.308594 215.925781 C 33.800781 215.925781 28.523438 210.648438 28.523438 204.140625 C 28.523438 197.628906 33.800781 192.355469 40.308594 192.355469 C 46.820312 192.355469 52.09375 197.628906 52.09375 204.140625 "/>
<path style=" stroke:none;fill-rule:nonzero;fill:rgb(100%,100%,100%);fill-opacity:1;" d="M 254.820312 496.441406 C 254.820312 502.953125 249.542969 508.226562 243.035156 508.226562 C 236.527344 508.226562 231.25 502.953125 231.25 496.441406 C 231.25 489.933594 236.527344 484.65625 243.035156 484.65625 C 249.542969 484.65625 254.820312 489.933594 254.820312 496.441406 "/>
<path style=" stroke:none;fill-rule:nonzero;fill:rgb(100%,100%,100%);fill-opacity:1;" d="M 514.121094 29.703125 C 514.121094 36.210938 508.84375 41.488281 502.335938 41.488281 C 495.824219 41.488281 490.546875 36.210938 490.546875 29.703125 C 490.546875 23.191406 495.824219 17.914062 502.335938 17.914062 C 508.84375 17.914062 514.121094 23.191406 514.121094 29.703125 "/>
<path style=" stroke:none;fill-rule:nonzero;fill:rgb(100%,100%,100%);fill-opacity:1;" d="M 191.175781 -5.65625 C 191.175781 0.851562 185.898438 6.128906 179.390625 6.128906 C 172.878906 6.128906 167.601562 0.851562 167.601562 -5.65625 C 167.601562 -12.167969 172.878906 -17.445312 179.390625 -17.445312 C 185.898438 -17.445312 191.175781 -12.167969 191.175781 -5.65625 "/>
<path style=" stroke:none;fill-rule:nonzero;fill:rgb(100%,100%,100%);fill-opacity:1;" d="M 264.25 17.914062 C 264.25 24.425781 258.972656 29.703125 252.464844 29.703125 C 245.953125 29.703125 240.675781 24.425781 240.675781 17.914062 C 240.675781 11.40625 245.953125 6.128906 252.464844 6.128906 C 258.972656 6.128906 264.25 11.40625 264.25 17.914062 "/>
<path style=" stroke:none;fill-rule:nonzero;fill:rgb(100%,100%,100%);fill-opacity:1;" d="M 299.609375 88.632812 C 299.609375 95.144531 294.332031 100.421875 287.824219 100.421875 C 281.3125 100.421875 276.035156 95.144531 276.035156 88.632812 C 276.035156 82.125 281.3125 76.847656 287.824219 76.847656 C 294.332031 76.847656 299.609375 82.125 299.609375 88.632812 "/>
<path style=" stroke:none;fill-rule:nonzero;fill:rgb(100%,100%,100%);fill-opacity:1;" d="M 16.738281 17.914062 C 16.738281 24.425781 11.460938 29.703125 4.949219 29.703125 C -1.558594 29.703125 -6.835938 24.425781 -6.835938 17.914062 C -6.835938 11.40625 -1.558594 6.128906 4.949219 6.128906 C 11.460938 6.128906 16.738281 11.40625 16.738281 17.914062 "/>
<path style=" stroke:none;fill-rule:nonzero;fill:rgb(100%,100%,100%);fill-opacity:1;" d="M 2.59375 88.632812 C 2.59375 95.144531 -2.683594 100.421875 -9.191406 100.421875 C -15.703125 100.421875 -20.980469 95.144531 -20.980469 88.632812 C -20.980469 82.125 -15.703125 76.847656 -9.191406 76.847656 C -2.683594 76.847656 2.59375 82.125 2.59375 88.632812 "/>
<path style=" stroke:none;fill-rule:nonzero;fill:rgb(100%,100%,100%);fill-opacity:1;" d="M 169.960938 20.273438 C 169.960938 26.78125 164.683594 32.058594 158.171875 32.058594 C 151.664062 32.058594 146.386719 26.78125 146.386719 20.273438 C 146.386719 13.761719 151.664062 8.488281 158.171875 8.488281 C 164.683594 8.488281 169.960938 13.761719 169.960938 20.273438 "/>
<path style=" stroke:none;fill-rule:nonzero;fill:rgb(100%,100%,100%);fill-opacity:1;" d="M 499.976562 46.203125 C 499.976562 52.710938 494.703125 57.988281 488.191406 57.988281 C 481.683594 57.988281 476.40625 52.710938 476.40625 46.203125 C 476.40625 39.695312 481.683594 34.417969 488.191406 34.417969 C 494.703125 34.417969 499.976562 39.695312 499.976562 46.203125 "/>
<path style=" stroke:none;fill-rule:nonzero;fill:rgb(100%,100%,100%);fill-opacity:1;" d="M 455.1875 451.652344 C 455.1875 458.164062 449.914062 463.441406 443.402344 463.441406 C 436.894531 463.441406 431.617188 458.164062 431.617188 451.652344 C 431.617188 445.144531 436.894531 439.867188 443.402344 439.867188 C 449.914062 439.867188 455.1875 445.144531 455.1875 451.652344 "/>
<path style=" stroke:none;fill-rule:nonzero;fill:rgb(100%,100%,100%);fill-opacity:1;" d="M 19.09375 10.84375 C 19.09375 17.351562 13.816406 22.628906 7.308594 22.628906 C 0.796875 22.628906 -4.476562 17.351562 -4.476562 10.84375 C -4.476562 4.332031 0.796875 -0.945312 7.308594 -0.945312 C 13.816406 -0.945312 19.09375 4.332031 19.09375 10.84375 "/>
<path style=" stroke:none;fill-rule:nonzero;fill:rgb(100%,100%,100%);fill-opacity:1;" d="M 37.953125 62.703125 C 37.953125 69.210938 32.675781 74.488281 26.164062 74.488281 C 19.65625 74.488281 14.378906 69.210938 14.378906 62.703125 C 14.378906 56.195312 19.65625 50.917969 26.164062 50.917969 C 32.675781 50.917969 37.953125 56.195312 37.953125 62.703125 "/>
<path style=" stroke:none;fill-rule:nonzero;fill:rgb(100%,100%,100%);fill-opacity:1;" d="M 372.683594 416.296875 C 372.683594 422.804688 367.410156 428.082031 360.898438 428.082031 C 354.390625 428.082031 349.113281 422.804688 349.113281 416.296875 C 349.113281 409.785156 354.390625 404.507812 360.898438 404.507812 C 367.410156 404.507812 372.683594 409.785156 372.683594 416.296875 "/>
<path style=" stroke:none;fill-rule:nonzero;fill:rgb(100%,100%,100%);fill-opacity:1;" d="M 35.59375 421.007812 C 35.59375 427.519531 30.316406 432.796875 23.808594 432.796875 C 17.296875 432.796875 12.023438 427.519531 12.023438 421.007812 C 12.023438 414.5 17.296875 409.222656 23.808594 409.222656 C 30.316406 409.222656 35.59375 414.5 35.59375 421.007812 "/>
<path style=" stroke:none;fill-rule:nonzero;fill:rgb(100%,84.3%,0%);fill-opacity:1;" d="M 78.023438 286.753906 C 78.023438 293.261719 72.75 298.539062 66.238281 298.539062 C 59.730469 298.539062 54.453125 293.261719 54.453125 286.753906 C 54.453125 280.242188 59.730469 274.964844 66.238281 274.964844 C 72.75 274.964844 78.023438 280.242188 78.023438 286.753906 "/>
<path style=" stroke:none;fill-rule:nonzero;fill:rgb(100%,84.3%,0%);fill-opacity:1;" d="M 268.644531 121.636719 C 268.644531 128.144531 263.367188 133.421875 256.859375 133.421875 C 250.347656 133.421875 245.070312 128.144531 245.070312 121.636719 C 245.070312 115.125 250.347656 109.851562 256.859375 109.851562 C 263.367188 109.851562 268.644531 115.125 268.644531 121.636719 "/>
<path style=" stroke:none;fill-rule:nonzero;fill:rgb(100%,84.3%,0%);fill-opacity:1;" d="M 78.023438 340.246094 C 78.023438 346.757812 72.75 352.035156 66.238281 352.035156 C 59.730469 352.035156 54.453125 346.757812 54.453125 340.246094 C 54.453125 333.738281 59.730469 328.460938 66.238281 328.460938 C 72.75 328.460938 78.023438 333.738281 78.023438 340.246094 "/>
<path style=" stroke:none;fill-rule:nonzero;fill:rgb(100%,84.3%,0%);fill-opacity:1;" d="M 457.546875 121.636719 C 457.546875 128.144531 452.269531 133.421875 445.761719 133.421875 C 439.25 133.421875 433.976562 128.144531 433.976562 121.636719 C 433.976562 115.125 439.25 109.851562 445.761719 109.851562 C 452.269531 109.851562 457.546875 115.125 457.546875 121.636719 "/>
<path style=" stroke:none;fill-rule:nonzero;fill:rgb(100%,84.3%,0%);fill-opacity:1;" d="M 78.066406 168.238281 C 78.066406 174.746094 72.789062 180.023438 66.28125 180.023438 C 59.773438 180.023438 54.496094 174.746094 54.496094 168.238281 C 54.496094 161.730469 59.773438 156.453125 66.28125 156.453125 C 72.789062 156.453125 78.066406 161.730469 78.066406 168.238281 "/>
<path style=" stroke:none;fill-rule:nonzero;fill:rgb(100%,84.3%,0%);fill-opacity:1;" d="M 78.027344 195.894531 C 78.027344 202.40625 72.75 207.683594 66.238281 207.683594 C 59.730469 207.683594 54.453125 202.40625 54.453125 195.894531 C 54.453125 189.386719 59.730469 184.109375 66.238281 184.109375 C 72.75 184.109375 78.027344 189.386719 78.027344 195.894531 "/>
<path style=" stroke:none;fill-rule:nonzero;fill:rgb(100%,84.3%,0%);fill-opacity:1;" d="M 245.082031 122.347656 C 245.082031 128.855469 239.804688 134.132812 233.296875 134.132812 C 226.785156 134.132812 221.507812 128.855469 221.507812 122.347656 C 221.507812 115.835938 226.785156 110.5625 233.296875 110.5625 C 239.804688 110.5625 245.082031 115.835938 245.082031 122.347656 "/>
<path style=" stroke:none;fill-rule:nonzero;fill:rgb(100%,84.3%,0%);fill-opacity:1;" d="M 359.585938 390.363281 C 359.585938 396.875 354.308594 402.148438 347.796875 402.148438 C 341.289062 402.148438 336.011719 396.875 336.011719 390.363281 C 336.011719 383.855469 341.289062 378.578125 347.796875 378.578125 C 354.308594 378.578125 359.585938 383.855469 359.585938 390.363281 "/>
<path style=" stroke:none;fill-rule:nonzero;fill:rgb(100%,84.3%,0%);fill-opacity:1;" d="M 78.023438 219.804688 C 78.023438 226.3125 72.75 231.589844 66.238281 231.589844 C 59.730469 231.589844 54.453125 226.3125 54.453125 219.804688 C 54.453125 213.292969 59.730469 208.019531 66.238281 208.019531 C 72.75 208.019531 78.023438 213.292969 78.023438 219.804688 "/>
<path style=" stroke:none;fill-rule:nonzero;fill:rgb(100%,84.3%,0%);fill-opacity:1;" d="M 318.351562 121.636719 C 318.351562 128.144531 313.078125 133.421875 306.566406 133.421875 C 300.058594 133.421875 294.78125 128.144531 294.78125 121.636719 C 294.78125 115.125 300.058594 109.847656 306.566406 109.847656 C 313.078125 109.847656 318.351562 115.125 318.351562 121.636719 "/>
<path style=" stroke:none;fill-rule:nonzero;fill:rgb(100%,84.3%,0%);fill-opacity:1;" d="M 292.53125 121.636719 C 292.53125 128.144531 287.253906 133.421875 280.742188 133.421875 C 274.234375 133.421875 268.957031 128.144531 268.957031 121.636719 C 268.957031 115.125 274.234375 109.847656 280.742188 109.847656 C 287.253906 109.847656 292.53125 115.125 292.53125 121.636719 "/>
<path style=" stroke:none;fill-rule:nonzero;fill:rgb(100%,84.3%,0%);fill-opacity:1;" d="M 383.160156 390.363281 C 383.160156 396.875 377.882812 402.148438 371.371094 402.148438 C 364.863281 402.148438 359.585938 396.875 359.585938 390.363281 C 359.585938 383.855469 364.863281 378.578125 371.371094 378.578125 C 377.882812 378.578125 383.160156 383.855469 383.160156 390.363281 "/>
<path style=" stroke:none;fill-rule:nonzero;fill:rgb(100%,84.3%,0%);fill-opacity:1;" d="M 78.027344 365.59375 C 78.027344 372.101562 72.75 377.378906 66.238281 377.378906 C 59.730469 377.378906 54.453125 372.101562 54.453125 365.59375 C 54.453125 359.082031 59.730469 353.804688 66.238281 353.804688 C 72.75 353.804688 78.027344 359.082031 78.027344 365.59375 "/>
</g>
</svg>
