<?xml version="1.0" encoding="UTF-8"?>
<svg xmlns="http://www.w3.org/2000/svg" xmlns:xlink="http://www.w3.org/1999/xlink" width="512pt" height="512pt" viewBox="0 0 512 512" version="1.1">
<g id="surface146">
<path style=" stroke:none;fill-rule:nonzero;fill:rgb(26.7%,26.7%,26.7%);fill-opacity:1;" d="M 0 70.660156 L 512 70.660156 L 512 441.339844 L 0 441.339844 Z M 0 70.660156 "/>
<path style=" stroke:none;fill-rule:nonzero;fill:rgb(19.2%,38.8%,66.7%);fill-opacity:1;" d="M 42.667969 101.550781 L 469.332031 101.550781 L 469.332031 410.449219 L 42.667969 410.449219 Z M 42.667969 101.550781 "/>
<path style=" stroke:none;fill-rule:nonzero;fill:rgb(100%,100%,100%);fill-opacity:1;" d="M 185.53125 425.894531 C 185.53125 431.226562 181.210938 435.546875 175.878906 435.546875 C 170.546875 435.546875 166.226562 431.226562 166.226562 425.894531 C 166.226562 420.5625 170.546875 416.242188 175.878906 416.242188 C 181.210938 416.242188 185.53125 420.5625 185.53125 425.894531 "/>
<path style=" stroke:none;fill-rule:nonzero;fill:rgb(100%,100%,100%);fill-opacity:1;" d="M 336.121094 474.160156 C 336.121094 479.492188 331.800781 483.8125 326.46875 483.8125 C 321.136719 483.8125 316.816406 479.492188 316.816406 474.160156 C 316.816406 468.828125 321.136719 464.507812 326.46875 464.507812 C 331.800781 464.507812 336.121094 468.828125 336.121094 474.160156 "/>
<path style=" stroke:none;fill-rule:nonzero;fill:rgb(100%,100%,100%);fill-opacity:1;" d="M 500.222656 474.160156 C 500.222656 479.492188 495.902344 483.8125 490.570312 483.8125 C 485.238281 483.8125 480.917969 479.492188 480.917969 474.160156 C 480.917969 468.828125 485.238281 464.507812 490.570312 464.507812 C 495.902344 464.507812 500.222656 468.828125 500.222656 474.160156 "/>
<path style=" stroke:none;fill-rule:nonzero;fill:rgb(100%,100%,100%);fill-opacity:1;" d="M 11.777344 93.828125 C 11.777344 99.160156 7.457031 103.480469 2.125 103.480469 C -3.207031 103.480469 -7.527344 99.160156 -7.527344 93.828125 C -7.527344 88.496094 -3.207031 84.175781 2.125 84.175781 C 7.457031 84.175781 11.777344 88.496094 11.777344 93.828125 "/>
<path style=" stroke:none;fill-rule:nonzero;fill:rgb(100%,100%,100%);fill-opacity:1;" d="M 382.457031 41.699219 C 382.457031 47.03125 378.132812 51.355469 372.800781 51.355469 C 367.472656 51.355469 363.148438 47.03125 363.148438 41.699219 C 363.148438 36.371094 367.472656 32.046875 372.800781 32.046875 C 378.132812 32.046875 382.457031 36.371094 382.457031 41.699219 "/>
<path style=" stroke:none;fill-rule:nonzero;fill:rgb(100%,100%,100%);fill-opacity:1;" d="M 119.890625 3.089844 C 119.890625 8.421875 115.570312 12.742188 110.238281 12.742188 C 104.90625 12.742188 100.585938 8.421875 100.585938 3.089844 C 100.585938 -2.242188 104.90625 -6.5625 110.238281 -6.5625 C 115.570312 -6.5625 119.890625 -2.242188 119.890625 3.089844 "/>
<path style=" stroke:none;fill-rule:nonzero;fill:rgb(100%,100%,100%);fill-opacity:1;" d="M 181.671875 -0.773438 C 181.671875 4.558594 177.347656 8.882812 172.019531 8.882812 C 166.6875 8.882812 162.363281 4.558594 162.363281 -0.773438 C 162.363281 -6.101562 166.6875 -10.425781 172.019531 -10.425781 C 177.347656 -10.425781 181.671875 -6.101562 181.671875 -0.773438 "/>
<path style=" stroke:none;fill-rule:nonzero;fill:rgb(100%,100%,100%);fill-opacity:1;" d="M 2.125 161.398438 C 2.125 166.730469 -2.199219 171.054688 -7.527344 171.054688 C -12.859375 171.054688 -17.183594 166.730469 -17.183594 161.398438 C -17.183594 156.070312 -12.859375 151.746094 -7.527344 151.746094 C -2.199219 151.746094 2.125 156.070312 2.125 161.398438 "/>
<path style=" stroke:none;fill-rule:nonzero;fill:rgb(100%,100%,100%);fill-opacity:1;" d="M 465.472656 456.785156 C 465.472656 462.117188 461.148438 466.4375 455.820312 466.4375 C 450.488281 466.4375 446.164062 462.117188 446.164062 456.785156 C 446.164062 451.453125 450.488281 447.132812 455.820312 447.132812 C 461.148438 447.132812 465.472656 451.453125 465.472656 456.785156 "/>
<path style=" stroke:none;fill-rule:nonzero;fill:rgb(100%,100%,100%);fill-opacity:1;" d="M 108.308594 433.617188 C 108.308594 438.949219 103.984375 443.269531 98.65625 443.269531 C 93.324219 443.269531 89 438.949219 89 433.617188 C 89 428.285156 93.324219 423.964844 98.65625 423.964844 C 103.984375 423.964844 108.308594 428.285156 108.308594 433.617188 "/>
<path style=" stroke:none;fill-rule:nonzero;fill:rgb(100%,100%,100%);fill-opacity:1;" d="M 117.960938 91.898438 C 117.960938 97.226562 113.640625 101.550781 108.308594 101.550781 C 102.976562 101.550781 98.65625 97.226562 98.65625 91.898438 C 98.65625 86.566406 102.976562 82.242188 108.308594 82.242188 C 113.640625 82.242188 117.960938 86.566406 117.960938 91.898438 "/>
<path style=" stroke:none;fill-rule:nonzero;fill:rgb(100%,100%,100%);fill-opacity:1;" d="M 455.820312 412.378906 C 455.820312 417.710938 451.496094 422.03125 446.164062 422.03125 C 440.835938 422.03125 436.511719 417.710938 436.511719 412.378906 C 436.511719 407.046875 440.835938 402.726562 446.164062 402.726562 C 451.496094 402.726562 455.820312 407.046875 455.820312 412.378906 "/>
<path style=" stroke:none;fill-rule:nonzero;fill:rgb(100%,100%,100%);fill-opacity:1;" d="M 0.191406 45.5625 C 0.191406 50.894531 -4.128906 55.214844 -9.460938 55.214844 C -14.792969 55.214844 -19.113281 50.894531 -19.113281 45.5625 C -19.113281 40.230469 -14.792969 35.910156 -9.460938 35.910156 C -4.128906 35.910156 0.191406 40.230469 0.191406 45.5625 "/>
<path style=" stroke:none;fill-rule:nonzero;fill:rgb(100%,100%,100%);fill-opacity:1;" d="M 156.574219 468.367188 C 156.574219 473.699219 152.25 478.019531 146.921875 478.019531 C 141.589844 478.019531 137.265625 473.699219 137.265625 468.367188 C 137.265625 463.035156 141.589844 458.714844 146.921875 458.714844 C 152.25 458.714844 156.574219 463.035156 156.574219 468.367188 "/>
<path style=" stroke:none;fill-rule:nonzero;fill:rgb(100%,100%,100%);fill-opacity:1;" d="M 374.734375 10.8125 C 374.734375 16.140625 370.410156 20.464844 365.078125 20.464844 C 359.75 20.464844 355.425781 16.140625 355.425781 10.8125 C 355.425781 5.480469 359.75 1.15625 365.078125 1.15625 C 370.410156 1.15625 374.734375 5.480469 374.734375 10.8125 "/>
<path style=" stroke:none;fill-rule:nonzero;fill:rgb(100%,100%,100%);fill-opacity:1;" d="M 531.113281 252.140625 C 531.113281 257.46875 526.792969 261.792969 521.460938 261.792969 C 516.128906 261.792969 511.808594 257.46875 511.808594 252.140625 C 511.808594 246.808594 516.128906 242.484375 521.460938 242.484375 C 526.792969 242.484375 531.113281 246.808594 531.113281 252.140625 "/>
<path style=" stroke:none;fill-rule:nonzero;fill:rgb(100%,100%,100%);fill-opacity:1;" d="M 46.527344 414.3125 C 46.527344 419.640625 42.207031 423.964844 36.875 423.964844 C 31.542969 423.964844 27.222656 419.640625 27.222656 414.3125 C 27.222656 408.980469 31.542969 404.65625 36.875 404.65625 C 42.207031 404.65625 46.527344 408.980469 46.527344 414.3125 "/>
<path style=" stroke:none;fill-rule:nonzero;fill:rgb(100%,100%,100%);fill-opacity:1;" d="M 478.984375 82.242188 C 478.984375 87.574219 474.664062 91.898438 469.332031 91.898438 C 464 91.898438 459.679688 87.574219 459.679688 82.242188 C 459.679688 76.914062 464 72.589844 469.332031 72.589844 C 474.664062 72.589844 478.984375 76.914062 478.984375 82.242188 "/>
<path style=" stroke:none;fill-rule:nonzero;fill:rgb(100%,100%,100%);fill-opacity:1;" d="M 77.417969 441.339844 C 77.417969 446.671875 73.097656 450.992188 67.765625 450.992188 C 62.433594 450.992188 58.113281 446.671875 58.113281 441.339844 C 58.113281 436.007812 62.433594 431.6875 67.765625 431.6875 C 73.097656 431.6875 77.417969 436.007812 77.417969 441.339844 "/>
<path style=" stroke:none;fill-rule:nonzero;fill:rgb(100%,100%,100%);fill-opacity:1;" d="M 316.8125 86.105469 C 316.8125 91.4375 312.492188 95.757812 307.160156 95.757812 C 301.828125 95.757812 297.507812 91.4375 297.507812 86.105469 C 297.507812 80.773438 301.828125 76.453125 307.160156 76.453125 C 312.492188 76.453125 316.8125 80.773438 316.8125 86.105469 "/>
<path style=" stroke:none;fill-rule:nonzero;fill:rgb(100%,100%,100%);fill-opacity:1;" d="M 531.113281 128.578125 C 531.113281 133.910156 526.792969 138.230469 521.460938 138.230469 C 516.128906 138.230469 511.808594 133.910156 511.808594 128.578125 C 511.808594 123.246094 516.128906 118.925781 521.460938 118.925781 C 526.792969 118.925781 531.113281 123.246094 531.113281 128.578125 "/>
<path style=" stroke:none;fill-rule:nonzero;fill:rgb(100%,100%,100%);fill-opacity:1;" d="M 247.3125 43.632812 C 247.3125 48.964844 242.992188 53.285156 237.660156 53.285156 C 232.328125 53.285156 228.007812 48.964844 228.007812 43.632812 C 228.007812 38.300781 232.328125 33.980469 237.660156 33.980469 C 242.992188 33.980469 247.3125 38.300781 247.3125 43.632812 "/>
<path style=" stroke:none;fill-rule:nonzero;fill:rgb(100%,100%,100%);fill-opacity:1;" d="M 156.574219 520.496094 C 156.574219 525.828125 152.25 530.148438 146.921875 530.148438 C 141.589844 530.148438 137.265625 525.828125 137.265625 520.496094 C 137.265625 515.164062 141.589844 510.84375 146.921875 510.84375 C 152.25 510.84375 156.574219 515.164062 156.574219 520.496094 "/>
<path style=" stroke:none;fill-rule:nonzero;fill:rgb(100%,100%,100%);fill-opacity:1;" d="M 326.46875 47.492188 C 326.46875 52.824219 322.144531 57.144531 316.8125 57.144531 C 311.484375 57.144531 307.160156 52.824219 307.160156 47.492188 C 307.160156 42.160156 311.484375 37.839844 316.8125 37.839844 C 322.144531 37.839844 326.46875 42.160156 326.46875 47.492188 "/>
<path style=" stroke:none;fill-rule:nonzero;fill:rgb(100%,100%,100%);fill-opacity:1;" d="M 42.667969 493.464844 C 42.667969 498.796875 38.34375 503.117188 33.015625 503.117188 C 27.683594 503.117188 23.359375 498.796875 23.359375 493.464844 C 23.359375 488.132812 27.683594 483.8125 33.015625 483.8125 C 38.34375 483.8125 42.667969 488.132812 42.667969 493.464844 "/>
<path style=" stroke:none;fill-rule:nonzero;fill:rgb(100%,100%,100%);fill-opacity:1;" d="M 158.503906 41.699219 C 158.503906 47.03125 154.183594 51.355469 148.851562 51.355469 C 143.519531 51.355469 139.199219 47.03125 139.199219 41.699219 C 139.199219 36.371094 143.519531 32.046875 148.851562 32.046875 C 154.183594 32.046875 158.503906 36.371094 158.503906 41.699219 "/>
<path style=" stroke:none;fill-rule:nonzero;fill:rgb(100%,100%,100%);fill-opacity:1;" d="M 494.429688 20.464844 C 494.429688 25.796875 490.109375 30.117188 484.777344 30.117188 C 479.445312 30.117188 475.125 25.796875 475.125 20.464844 C 475.125 15.132812 479.445312 10.8125 484.777344 10.8125 C 490.109375 10.8125 494.429688 15.132812 494.429688 20.464844 "/>
<path style=" stroke:none;fill-rule:nonzero;fill:rgb(100%,100%,100%);fill-opacity:1;" d="M 509.875 337.085938 C 509.875 342.417969 505.554688 346.738281 500.222656 346.738281 C 494.890625 346.738281 490.570312 342.417969 490.570312 337.085938 C 490.570312 331.753906 494.890625 327.433594 500.222656 327.433594 C 505.554688 327.433594 509.875 331.753906 509.875 337.085938 "/>
<path style=" stroke:none;fill-rule:nonzero;fill:rgb(100%,100%,100%);fill-opacity:1;" d="M 206.769531 66.800781 C 206.769531 72.128906 202.445312 76.453125 197.117188 76.453125 C 191.785156 76.453125 187.464844 72.128906 187.464844 66.800781 C 187.464844 61.46875 191.785156 57.144531 197.117188 57.144531 C 202.445312 57.144531 206.769531 61.46875 206.769531 66.800781 "/>
<path style=" stroke:none;fill-rule:nonzero;fill:rgb(100%,100%,100%);fill-opacity:1;" d="M 488.640625 155.609375 C 488.640625 160.9375 484.316406 165.261719 478.984375 165.261719 C 473.65625 165.261719 469.332031 160.9375 469.332031 155.609375 C 469.332031 150.277344 473.65625 145.953125 478.984375 145.953125 C 484.316406 145.953125 488.640625 150.277344 488.640625 155.609375 "/>
<path style=" stroke:none;fill-rule:nonzero;fill:rgb(100%,100%,100%);fill-opacity:1;" d="M 392.109375 431.6875 C 392.109375 437.015625 387.789062 441.339844 382.457031 441.339844 C 377.125 441.339844 372.804688 437.015625 372.804688 431.6875 C 372.804688 426.355469 377.125 422.03125 382.457031 422.03125 C 387.789062 422.03125 392.109375 426.355469 392.109375 431.6875 "/>
<path style=" stroke:none;fill-rule:nonzero;fill:rgb(100%,100%,100%);fill-opacity:1;" d="M 2.125 76.453125 C 2.125 81.785156 -2.199219 86.105469 -7.527344 86.105469 C -12.859375 86.105469 -17.183594 81.785156 -17.183594 76.453125 C -17.183594 71.121094 -12.859375 66.800781 -7.527344 66.800781 C -2.199219 66.800781 2.125 71.121094 2.125 76.453125 "/>
<path style=" stroke:none;fill-rule:nonzero;fill:rgb(100%,100%,100%);fill-opacity:1;" d="M 60.042969 68.730469 C 60.042969 74.0625 55.71875 78.382812 50.390625 78.382812 C 45.058594 78.382812 40.734375 74.0625 40.734375 68.730469 C 40.734375 63.398438 45.058594 59.078125 50.390625 59.078125 C 55.71875 59.078125 60.042969 63.398438 60.042969 68.730469 "/>
<path style=" stroke:none;fill-rule:nonzero;fill:rgb(100%,100%,100%);fill-opacity:1;" d="M 486.710938 217.386719 C 486.710938 222.71875 482.386719 227.042969 477.054688 227.042969 C 471.726562 227.042969 467.402344 222.71875 467.402344 217.386719 C 467.402344 212.058594 471.726562 207.734375 477.054688 207.734375 C 482.386719 207.734375 486.710938 212.058594 486.710938 217.386719 "/>
<path style=" stroke:none;fill-rule:nonzero;fill:rgb(100%,100%,100%);fill-opacity:1;" d="M 141.128906 505.050781 C 141.128906 510.382812 136.804688 514.703125 131.476562 514.703125 C 126.144531 514.703125 121.820312 510.382812 121.820312 505.050781 C 121.820312 499.71875 126.144531 495.398438 131.476562 495.398438 C 136.804688 495.398438 141.128906 499.71875 141.128906 505.050781 "/>
<path style=" stroke:none;fill-rule:nonzero;fill:rgb(100%,100%,100%);fill-opacity:1;" d="M 480.917969 72.589844 C 480.917969 77.921875 476.59375 82.242188 471.265625 82.242188 C 465.933594 82.242188 461.609375 77.921875 461.609375 72.589844 C 461.609375 67.257812 465.933594 62.9375 471.265625 62.9375 C 476.59375 62.9375 480.917969 67.257812 480.917969 72.589844 "/>
<path style=" stroke:none;fill-rule:nonzero;fill:rgb(100%,84.3%,0%);fill-opacity:1;" d="M 384.289062 122.828125 C 384.289062 128.160156 379.96875 132.484375 374.636719 132.484375 C 369.304688 132.484375 364.984375 128.160156 364.984375 122.828125 C 364.984375 117.5 369.304688 113.175781 374.636719 113.175781 C 379.96875 113.175781 384.289062 117.5 384.289062 122.828125 "/>
<path style=" stroke:none;fill-rule:nonzero;fill:rgb(100%,84.3%,0%);fill-opacity:1;" d="M 71.625 120.855469 C 71.625 126.1875 67.304688 130.511719 61.972656 130.511719 C 56.640625 130.511719 52.320312 126.1875 52.320312 120.855469 C 52.320312 115.527344 56.640625 111.203125 61.972656 111.203125 C 67.304688 111.203125 71.625 115.527344 71.625 120.855469 "/>
<path style=" stroke:none;fill-rule:nonzero;fill:rgb(100%,84.3%,0%);fill-opacity:1;" d="M 440.398438 241.140625 C 440.398438 246.472656 436.078125 250.796875 430.746094 250.796875 C 425.414062 250.796875 421.09375 246.472656 421.09375 241.140625 C 421.09375 235.8125 425.414062 231.488281 430.746094 231.488281 C 436.078125 231.488281 440.398438 235.8125 440.398438 241.140625 "/>
<path style=" stroke:none;fill-rule:nonzero;fill:rgb(100%,84.3%,0%);fill-opacity:1;" d="M 459.679688 333.148438 C 459.679688 338.480469 455.359375 342.800781 450.027344 342.800781 C 444.695312 342.800781 440.375 338.480469 440.375 333.148438 C 440.375 327.816406 444.695312 323.496094 450.027344 323.496094 C 455.359375 323.496094 459.679688 327.816406 459.679688 333.148438 "/>
<path style=" stroke:none;fill-rule:nonzero;fill:rgb(100%,84.3%,0%);fill-opacity:1;" d="M 400.414062 385.632812 C 400.414062 390.960938 396.09375 395.285156 390.761719 395.285156 C 385.429688 395.285156 381.109375 390.960938 381.109375 385.632812 C 381.109375 380.300781 385.429688 375.976562 390.761719 375.976562 C 396.09375 375.976562 400.414062 380.300781 400.414062 385.632812 "/>
<path style=" stroke:none;fill-rule:nonzero;fill:rgb(100%,84.3%,0%);fill-opacity:1;" d="M 432.726562 222.910156 C 432.726562 228.242188 428.402344 232.5625 423.070312 232.5625 C 417.742188 232.5625 413.417969 228.242188 413.417969 222.910156 C 413.417969 217.578125 417.742188 213.257812 423.070312 213.257812 C 428.402344 213.257812 432.726562 217.578125 432.726562 222.910156 "/>
<path style=" stroke:none;fill-rule:nonzero;fill:rgb(100%,84.3%,0%);fill-opacity:1;" d="M 442.078125 318.234375 C 442.078125 323.5625 437.757812 327.886719 432.425781 327.886719 C 427.09375 327.886719 422.773438 323.5625 422.773438 318.234375 C 422.773438 312.902344 427.09375 308.578125 432.425781 308.578125 C 437.757812 308.578125 442.078125 312.902344 442.078125 318.234375 "/>
<path style=" stroke:none;fill-rule:nonzero;fill:rgb(100%,84.3%,0%);fill-opacity:1;" d="M 458.78125 198.746094 C 458.78125 204.078125 454.460938 208.402344 449.128906 208.402344 C 443.796875 208.402344 439.476562 204.078125 439.476562 198.746094 C 439.476562 193.417969 443.796875 189.09375 449.128906 189.09375 C 454.460938 189.09375 458.78125 193.417969 458.78125 198.746094 "/>
<path style=" stroke:none;fill-rule:nonzero;fill:rgb(100%,84.3%,0%);fill-opacity:1;" d="M 459.4375 263.601562 C 459.4375 268.933594 455.117188 273.257812 449.785156 273.257812 C 444.453125 273.257812 440.132812 268.933594 440.132812 263.601562 C 440.132812 258.273438 444.453125 253.949219 449.785156 253.949219 C 455.117188 253.949219 459.4375 258.273438 459.4375 263.601562 "/>
<path style=" stroke:none;fill-rule:nonzero;fill:rgb(100%,84.3%,0%);fill-opacity:1;" d="M 112.316406 120.855469 C 112.316406 126.1875 107.992188 130.511719 102.660156 130.511719 C 97.332031 130.511719 93.007812 126.1875 93.007812 120.855469 C 93.007812 115.527344 97.332031 111.203125 102.660156 111.203125 C 107.992188 111.203125 112.316406 115.527344 112.316406 120.855469 "/>
<path style=" stroke:none;fill-rule:nonzero;fill:rgb(100%,84.3%,0%);fill-opacity:1;" d="M 72.480469 238.964844 C 72.480469 244.296875 68.160156 248.617188 62.828125 248.617188 C 57.496094 248.617188 53.175781 244.296875 53.175781 238.964844 C 53.175781 233.632812 57.496094 229.3125 62.828125 229.3125 C 68.160156 229.3125 72.480469 233.632812 72.480469 238.964844 "/>
<path style=" stroke:none;fill-rule:nonzero;fill:rgb(100%,84.3%,0%);fill-opacity:1;" d="M 71.640625 159.882812 C 71.640625 165.210938 67.320312 169.535156 61.988281 169.535156 C 56.65625 169.535156 52.335938 165.210938 52.335938 159.882812 C 52.335938 154.550781 56.65625 150.226562 61.988281 150.226562 C 67.320312 150.226562 71.640625 154.550781 71.640625 159.882812 "/>
<path style=" stroke:none;fill-rule:nonzero;fill:rgb(100%,84.3%,0%);fill-opacity:1;" d="M 150.382812 126.265625 C 150.382812 131.59375 146.058594 135.917969 140.730469 135.917969 C 135.398438 135.917969 131.074219 131.59375 131.074219 126.265625 C 131.074219 120.933594 135.398438 116.609375 140.730469 116.609375 C 146.058594 116.609375 150.382812 120.933594 150.382812 126.265625 "/>
<path style=" stroke:none;fill-rule:nonzero;fill:rgb(100%,84.3%,0%);fill-opacity:1;" d="M 358.824219 120.855469 C 358.824219 126.1875 354.503906 130.511719 349.171875 130.511719 C 343.839844 130.511719 339.519531 126.1875 339.519531 120.855469 C 339.519531 115.527344 343.839844 111.203125 349.171875 111.203125 C 354.503906 111.203125 358.824219 115.527344 358.824219 120.855469 "/>
<path style=" stroke:none;fill-rule:nonzero;fill:rgb(100%,84.3%,0%);fill-opacity:1;" d="M 71.625 180.480469 C 71.625 185.8125 67.304688 190.132812 61.972656 190.132812 C 56.640625 190.132812 52.320312 185.8125 52.320312 180.480469 C 52.320312 175.148438 56.640625 170.828125 61.972656 170.828125 C 67.304688 170.828125 71.625 175.148438 71.625 180.480469 "/>
<path style=" stroke:none;fill-rule:nonzero;fill:rgb(100%,84.3%,0%);fill-opacity:1;" d="M 440.128906 205.078125 C 440.128906 210.410156 435.808594 214.730469 430.476562 214.730469 C 425.144531 214.730469 420.824219 210.410156 420.824219 205.078125 C 420.824219 199.746094 425.144531 195.425781 430.476562 195.425781 C 435.808594 195.425781 440.128906 199.746094 440.128906 205.078125 "/>
<path style=" stroke:none;fill-rule:nonzero;fill:rgb(100%,84.3%,0%);fill-opacity:1;" d="M 305.835938 120.855469 C 305.835938 126.1875 301.515625 130.511719 296.183594 130.511719 C 290.851562 130.511719 286.53125 126.1875 286.53125 120.855469 C 286.53125 115.527344 290.851562 111.203125 296.183594 111.203125 C 301.515625 111.203125 305.835938 115.527344 305.835938 120.855469 "/>
<path style=" stroke:none;fill-rule:nonzero;fill:rgb(100%,84.3%,0%);fill-opacity:1;" d="M 95.328125 130.03125 C 95.328125 135.363281 91.007812 139.683594 85.675781 139.683594 C 80.34375 139.683594 76.023438 135.363281 76.023438 130.03125 C 76.023438 124.699219 80.34375 120.378906 85.675781 120.378906 C 91.007812 120.378906 95.328125 124.699219 95.328125 130.03125 "/>
<path style=" stroke:none;fill-rule:nonzero;fill:rgb(100%,84.3%,0%);fill-opacity:1;" d="M 459.679688 220.402344 C 459.679688 225.734375 455.359375 230.054688 450.027344 230.054688 C 444.695312 230.054688 440.375 225.734375 440.375 220.402344 C 440.375 215.070312 444.695312 210.75 450.027344 210.75 C 455.359375 210.75 459.679688 215.070312 459.679688 220.402344 "/>
<path style=" stroke:none;fill-rule:nonzero;fill:rgb(100%,84.3%,0%);fill-opacity:1;" d="M 459.679688 160.210938 C 459.679688 165.542969 455.359375 169.863281 450.027344 169.863281 C 444.695312 169.863281 440.375 165.542969 440.375 160.210938 C 440.375 154.878906 444.695312 150.558594 450.027344 150.558594 C 455.359375 150.558594 459.679688 154.878906 459.679688 160.210938 "/>
<path style=" stroke:none;fill-rule:nonzero;fill:rgb(100%,84.3%,0%);fill-opacity:1;" d="M 416.332031 372.109375 C 416.332031 377.441406 412.011719 381.761719 406.679688 381.761719 C 401.347656 381.761719 397.027344 377.441406 397.027344 372.109375 C 397.027344 366.777344 401.347656 362.457031 406.679688 362.457031 C 412.011719 362.457031 416.332031 366.777344 416.332031 372.109375 "/>
<path style=" stroke:none;fill-rule:nonzero;fill:rgb(100%,84.3%,0%);fill-opacity:1;" d="M 438.871094 391.144531 C 438.871094 396.472656 434.550781 400.796875 429.21875 400.796875 C 423.886719 400.796875 419.566406 396.472656 419.566406 391.144531 C 419.566406 385.8125 423.886719 381.488281 429.21875 381.488281 C 434.550781 381.488281 438.871094 385.8125 438.871094 391.144531 "/>
<path style=" stroke:none;fill-rule:nonzero;fill:rgb(100%,84.3%,0%);fill-opacity:1;" d="M 459.679688 353.207031 C 459.679688 358.539062 455.359375 362.859375 450.027344 362.859375 C 444.695312 362.859375 440.375 358.539062 440.375 353.207031 C 440.375 347.875 444.695312 343.554688 450.027344 343.554688 C 455.359375 343.554688 459.679688 347.875 459.679688 353.207031 "/>
<path style=" stroke:none;fill-rule:nonzero;fill:rgb(100%,84.3%,0%);fill-opacity:1;" d="M 363.210938 382.113281 C 363.210938 387.445312 358.890625 391.769531 353.558594 391.769531 C 348.226562 391.769531 343.90625 387.445312 343.90625 382.113281 C 343.90625 376.785156 348.226562 372.460938 353.558594 372.460938 C 358.890625 372.460938 363.210938 376.785156 363.210938 382.113281 "/>
<path style=" stroke:none;fill-rule:nonzero;fill:rgb(100%,84.3%,0%);fill-opacity:1;" d="M 247.410156 123.125 C 247.410156 128.457031 243.089844 132.777344 237.757812 132.777344 C 232.429688 132.777344 228.105469 128.457031 228.105469 123.125 C 228.105469 117.792969 232.429688 113.472656 237.757812 113.472656 C 243.089844 113.472656 247.410156 117.792969 247.410156 123.125 "/>
<path style=" stroke:none;fill-rule:nonzero;fill:rgb(100%,84.3%,0%);fill-opacity:1;" d="M 314.960938 138.496094 C 314.960938 143.828125 310.640625 148.148438 305.308594 148.148438 C 299.976562 148.148438 295.65625 143.828125 295.65625 138.496094 C 295.65625 133.164062 299.976562 128.84375 305.308594 128.84375 C 310.640625 128.84375 314.960938 133.164062 314.960938 138.496094 "/>
<path style=" stroke:none;fill-rule:nonzero;fill:rgb(100%,84.3%,0%);fill-opacity:1;" d="M 169.519531 123.710938 C 169.519531 129.039062 165.195312 133.363281 159.863281 133.363281 C 154.535156 133.363281 150.210938 129.039062 150.210938 123.710938 C 150.210938 118.378906 154.535156 114.054688 159.863281 114.054688 C 165.195312 114.054688 169.519531 118.378906 169.519531 123.710938 "/>
<path style=" stroke:none;fill-rule:nonzero;fill:rgb(100%,84.3%,0%);fill-opacity:1;" d="M 267.324219 123.515625 C 267.324219 128.847656 263.003906 133.167969 257.671875 133.167969 C 252.339844 133.167969 248.019531 128.847656 248.019531 123.515625 C 248.019531 118.183594 252.339844 113.863281 257.671875 113.863281 C 263.003906 113.863281 267.324219 118.183594 267.324219 123.515625 "/>
<path style=" stroke:none;fill-rule:nonzero;fill:rgb(100%,84.3%,0%);fill-opacity:1;" d="M 171.128906 391.144531 C 171.128906 396.472656 166.808594 400.796875 161.476562 400.796875 C 156.144531 400.796875 151.824219 396.472656 151.824219 391.144531 C 151.824219 385.8125 156.144531 381.488281 161.476562 381.488281 C 166.808594 381.488281 171.128906 385.8125 171.128906 391.144531 "/>
<path style=" stroke:none;fill-rule:nonzero;fill:rgb(100%,84.3%,0%);fill-opacity:1;" d="M 424.40625 254.542969 C 424.40625 259.875 420.085938 264.195312 414.753906 264.195312 C 409.421875 264.195312 405.101562 259.875 405.101562 254.542969 C 405.101562 249.210938 409.421875 244.890625 414.753906 244.890625 C 420.085938 244.890625 424.40625 249.210938 424.40625 254.542969 "/>
<path style=" stroke:none;fill-rule:nonzero;fill:rgb(100%,84.3%,0%);fill-opacity:1;" d="M 122.921875 308.742188 C 122.921875 314.074219 118.597656 318.398438 113.269531 318.398438 C 107.9375 318.398438 103.613281 314.074219 103.613281 308.742188 C 103.613281 303.414062 107.9375 299.089844 113.269531 299.089844 C 118.597656 299.089844 122.921875 303.414062 122.921875 308.742188 "/>
<path style=" stroke:none;fill-rule:nonzero;fill:rgb(100%,84.3%,0%);fill-opacity:1;" d="M 367.09375 145.589844 C 367.09375 150.921875 362.769531 155.242188 357.4375 155.242188 C 352.109375 155.242188 347.785156 150.921875 347.785156 145.589844 C 347.785156 140.257812 352.109375 135.9375 357.4375 135.9375 C 362.769531 135.9375 367.09375 140.257812 367.09375 145.589844 "/>
<path style=" stroke:none;fill-rule:nonzero;fill:rgb(100%,84.3%,0%);fill-opacity:1;" d="M 459.664062 290.964844 C 459.664062 296.296875 455.34375 300.617188 450.011719 300.617188 C 444.679688 300.617188 440.359375 296.296875 440.359375 290.964844 C 440.359375 285.632812 444.679688 281.3125 450.011719 281.3125 C 455.34375 281.3125 459.664062 285.632812 459.664062 290.964844 "/>
<path style=" stroke:none;fill-rule:nonzero;fill:rgb(100%,84.3%,0%);fill-opacity:1;" d="M 325.257812 120.859375 C 325.257812 126.1875 320.933594 130.511719 315.601562 130.511719 C 310.273438 130.511719 305.949219 126.1875 305.949219 120.859375 C 305.949219 115.527344 310.273438 111.203125 315.601562 111.203125 C 320.933594 111.203125 325.257812 115.527344 325.257812 120.859375 "/>
<path style=" stroke:none;fill-rule:nonzero;fill:rgb(100%,84.3%,0%);fill-opacity:1;" d="M 444.210938 372.589844 C 444.210938 377.921875 439.890625 382.242188 434.558594 382.242188 C 429.226562 382.242188 424.90625 377.921875 424.90625 372.589844 C 424.90625 367.257812 429.226562 362.9375 434.558594 362.9375 C 439.890625 362.9375 444.210938 367.257812 444.210938 372.589844 "/>
<path style=" stroke:none;fill-rule:nonzero;fill:rgb(100%,84.3%,0%);fill-opacity:1;" d="M 441.894531 345.695312 C 441.894531 351.027344 437.574219 355.347656 432.242188 355.347656 C 426.910156 355.347656 422.589844 351.027344 422.589844 345.695312 C 422.589844 340.363281 426.910156 336.042969 432.242188 336.042969 C 437.574219 336.042969 441.894531 340.363281 441.894531 345.695312 "/>
<path style=" stroke:none;fill-rule:nonzero;fill:rgb(100%,84.3%,0%);fill-opacity:1;" d="M 451.660156 142.648438 C 451.660156 147.980469 447.339844 152.304688 442.007812 152.304688 C 436.675781 152.304688 432.355469 147.980469 432.355469 142.648438 C 432.355469 137.320312 436.675781 132.996094 442.007812 132.996094 C 447.339844 132.996094 451.660156 137.320312 451.660156 142.648438 "/>
<path style=" stroke:none;fill-rule:nonzero;fill:rgb(100%,84.3%,0%);fill-opacity:1;" d="M 192.59375 391.136719 C 192.59375 396.46875 188.269531 400.789062 182.941406 400.789062 C 177.609375 400.789062 173.285156 396.46875 173.285156 391.136719 C 173.285156 385.804688 177.609375 381.484375 182.941406 381.484375 C 188.269531 381.484375 192.59375 385.804688 192.59375 391.136719 "/>
<path style=" stroke:none;fill-rule:nonzero;fill:rgb(100%,84.3%,0%);fill-opacity:1;" d="M 150.617188 391.144531 C 150.617188 396.472656 146.296875 400.796875 140.964844 400.796875 C 135.632812 400.796875 131.3125 396.472656 131.3125 391.144531 C 131.3125 385.8125 135.632812 381.488281 140.964844 381.488281 C 146.296875 381.488281 150.617188 385.8125 150.617188 391.144531 "/>
<path style=" stroke:none;fill-rule:nonzero;fill:rgb(100%,84.3%,0%);fill-opacity:1;" d="M 162.710938 340.605469 C 162.710938 345.9375 158.390625 350.257812 153.058594 350.257812 C 147.726562 350.257812 143.40625 345.9375 143.40625 340.605469 C 143.40625 335.273438 147.726562 330.953125 153.058594 330.953125 C 158.390625 330.953125 162.710938 335.273438 162.710938 340.605469 "/>
<path style=" stroke:none;fill-rule:nonzero;fill:rgb(100%,84.3%,0%);fill-opacity:1;" d="M 459.679688 310.300781 C 459.679688 315.632812 455.359375 319.957031 450.027344 319.957031 C 444.695312 319.957031 440.375 315.632812 440.375 310.300781 C 440.375 304.972656 444.695312 300.648438 450.027344 300.648438 C 455.359375 300.648438 459.679688 304.972656 459.679688 310.300781 "/>
<path style=" stroke:none;fill-rule:nonzero;fill:rgb(100%,84.3%,0%);fill-opacity:1;" d="M 459.257812 120.855469 C 459.257812 126.1875 454.9375 130.511719 449.605469 130.511719 C 444.273438 130.511719 439.953125 126.1875 439.953125 120.855469 C 439.953125 115.527344 444.273438 111.203125 449.605469 111.203125 C 454.9375 111.203125 459.257812 115.527344 459.257812 120.855469 "/>
<path style=" stroke:none;fill-rule:nonzero;fill:rgb(100%,84.3%,0%);fill-opacity:1;" d="M 223.722656 391.144531 C 223.722656 396.472656 219.398438 400.796875 214.070312 400.796875 C 208.738281 400.796875 204.414062 396.472656 204.414062 391.144531 C 204.414062 385.8125 208.738281 381.488281 214.070312 381.488281 C 219.398438 381.488281 223.722656 385.8125 223.722656 391.144531 "/>
<path style=" stroke:none;fill-rule:nonzero;fill:rgb(100%,84.3%,0%);fill-opacity:1;" d="M 91.128906 391.144531 C 91.128906 396.472656 86.808594 400.796875 81.476562 400.796875 C 76.144531 400.796875 71.824219 396.472656 71.824219 391.144531 C 71.824219 385.8125 76.144531 381.488281 81.476562 381.488281 C 86.808594 381.488281 91.128906 385.8125 91.128906 391.144531 "/>
<path style=" stroke:none;fill-rule:nonzero;fill:rgb(100%,84.3%,0%);fill-opacity:1;" d="M 398.480469 135.921875 C 398.480469 141.253906 394.15625 145.574219 388.824219 145.574219 C 383.496094 145.574219 379.171875 141.253906 379.171875 135.921875 C 379.171875 130.589844 383.496094 126.269531 388.824219 126.269531 C 394.15625 126.269531 398.480469 130.589844 398.480469 135.921875 "/>
<path style=" stroke:none;fill-rule:nonzero;fill:rgb(100%,84.3%,0%);fill-opacity:1;" d="M 380.277344 391.144531 C 380.277344 396.472656 375.953125 400.796875 370.621094 400.796875 C 365.292969 400.796875 360.96875 396.472656 360.96875 391.144531 C 360.96875 385.8125 365.292969 381.488281 370.621094 381.488281 C 375.953125 381.488281 380.277344 385.8125 380.277344 391.144531 "/>
<path style=" stroke:none;fill-rule:nonzero;fill:rgb(100%,84.3%,0%);fill-opacity:1;" d="M 71.628906 200.777344 C 71.628906 206.109375 67.304688 210.433594 61.972656 210.433594 C 56.644531 210.433594 52.320312 206.109375 52.320312 200.777344 C 52.320312 195.449219 56.644531 191.125 61.972656 191.125 C 67.304688 191.125 71.628906 195.449219 71.628906 200.777344 "/>
<path style=" stroke:none;fill-rule:nonzero;fill:rgb(100%,84.3%,0%);fill-opacity:1;" d="M 444.402344 278.203125 C 444.402344 283.535156 440.082031 287.859375 434.75 287.859375 C 429.417969 287.859375 425.097656 283.535156 425.097656 278.203125 C 425.097656 272.875 429.417969 268.550781 434.75 268.550781 C 440.082031 268.550781 444.402344 272.875 444.402344 278.203125 "/>
<path style=" stroke:none;fill-rule:nonzero;fill:rgb(100%,84.3%,0%);fill-opacity:1;" d="M 76.867188 220.164062 C 76.867188 225.496094 72.546875 229.816406 67.214844 229.816406 C 61.882812 229.816406 57.5625 225.496094 57.5625 220.164062 C 57.5625 214.832031 61.882812 210.511719 67.214844 210.511719 C 72.546875 210.511719 76.867188 214.832031 76.867188 220.164062 "/>
<path style=" stroke:none;fill-rule:nonzero;fill:rgb(100%,84.3%,0%);fill-opacity:1;" d="M 459.679688 242.152344 C 459.679688 247.484375 455.359375 251.804688 450.027344 251.804688 C 444.695312 251.804688 440.375 247.484375 440.375 242.152344 C 440.375 236.820312 444.695312 232.5 450.027344 232.5 C 455.359375 232.5 459.679688 236.820312 459.679688 242.152344 "/>
<path style=" stroke:none;fill-rule:nonzero;fill:rgb(100%,84.3%,0%);fill-opacity:1;" d="M 341.863281 130.703125 C 341.863281 136.035156 337.542969 140.355469 332.210938 140.355469 C 326.878906 140.355469 322.558594 136.035156 322.558594 130.703125 C 322.558594 125.371094 326.878906 121.050781 332.210938 121.050781 C 337.542969 121.050781 341.863281 125.371094 341.863281 130.703125 "/>
<path style=" stroke:none;fill-rule:nonzero;fill:rgb(100%,84.3%,0%);fill-opacity:1;" d="M 71.625 390.398438 C 71.625 395.726562 67.304688 400.050781 61.972656 400.050781 C 56.640625 400.050781 52.320312 395.726562 52.320312 390.398438 C 52.320312 385.066406 56.640625 380.742188 61.972656 380.742188 C 67.304688 380.742188 71.625 385.066406 71.625 390.398438 "/>
<path style=" stroke:none;fill-rule:nonzero;fill:rgb(100%,84.3%,0%);fill-opacity:1;" d="M 131.8125 120.855469 C 131.8125 126.1875 127.492188 130.511719 122.160156 130.511719 C 116.828125 130.511719 112.507812 126.1875 112.507812 120.855469 C 112.507812 115.527344 116.828125 111.203125 122.160156 111.203125 C 127.492188 111.203125 131.8125 115.527344 131.8125 120.855469 "/>
<path style=" stroke:none;fill-rule:nonzero;fill:rgb(100%,84.3%,0%);fill-opacity:1;" d="M 207.253906 125.878906 C 207.253906 131.210938 202.933594 135.53125 197.601562 135.53125 C 192.269531 135.53125 187.949219 131.210938 187.949219 125.878906 C 187.949219 120.546875 192.269531 116.226562 197.601562 116.226562 C 202.933594 116.226562 207.253906 120.546875 207.253906 125.878906 "/>
<path style=" stroke:none;fill-rule:nonzero;fill:rgb(100%,84.3%,0%);fill-opacity:1;" d="M 118.25 289.929688 C 118.25 295.261719 113.925781 299.582031 108.597656 299.582031 C 103.265625 299.582031 98.941406 295.261719 98.941406 289.929688 C 98.941406 284.597656 103.265625 280.277344 108.597656 280.277344 C 113.925781 280.277344 118.25 284.597656 118.25 289.929688 "/>
<path style=" stroke:none;fill-rule:nonzero;fill:rgb(100%,84.3%,0%);fill-opacity:1;" d="M 420.648438 120.855469 C 420.648438 126.1875 416.328125 130.511719 410.996094 130.511719 C 405.664062 130.511719 401.34375 126.1875 401.34375 120.855469 C 401.34375 115.527344 405.664062 111.203125 410.996094 111.203125 C 416.328125 111.203125 420.648438 115.527344 420.648438 120.855469 "/>
<path style=" stroke:none;fill-rule:nonzero;fill:rgb(100%,84.3%,0%);fill-opacity:1;" d="M 110.445312 391.128906 C 110.445312 396.457031 106.125 400.78125 100.792969 400.78125 C 95.460938 400.78125 91.140625 396.457031 91.140625 391.128906 C 91.140625 385.796875 95.460938 381.472656 100.792969 381.472656 C 106.125 381.472656 110.445312 385.796875 110.445312 391.128906 "/>
<path style=" stroke:none;fill-rule:nonzero;fill:rgb(100%,84.3%,0%);fill-opacity:1;" d="M 188.613281 120.855469 C 188.613281 126.1875 184.292969 130.511719 178.960938 130.511719 C 173.628906 130.511719 169.308594 126.1875 169.308594 120.855469 C 169.308594 115.527344 173.628906 111.203125 178.960938 111.203125 C 184.292969 111.203125 188.613281 115.527344 188.613281 120.855469 "/>
<path style=" stroke:none;fill-rule:nonzero;fill:rgb(100%,84.3%,0%);fill-opacity:1;" d="M 124.601562 138.765625 C 124.601562 144.097656 120.28125 148.417969 114.949219 148.417969 C 109.617188 148.417969 105.296875 144.097656 105.296875 138.765625 C 105.296875 133.433594 109.617188 129.113281 114.949219 129.113281 C 120.28125 129.113281 124.601562 133.433594 124.601562 138.765625 "/>
<path style=" stroke:none;fill-rule:nonzero;fill:rgb(100%,84.3%,0%);fill-opacity:1;" d="M 225.898438 120.855469 C 225.898438 126.1875 221.574219 130.511719 216.242188 130.511719 C 210.914062 130.511719 206.589844 126.1875 206.589844 120.855469 C 206.589844 115.527344 210.914062 111.203125 216.242188 111.203125 C 221.574219 111.203125 225.898438 115.527344 225.898438 120.855469 "/>
<path style=" stroke:none;fill-rule:nonzero;fill:rgb(100%,84.3%,0%);fill-opacity:1;" d="M 388.882812 370.148438 C 388.882812 375.476562 384.5625 379.800781 379.230469 379.800781 C 373.898438 379.800781 369.578125 375.476562 369.578125 370.148438 C 369.578125 364.816406 373.898438 360.492188 379.230469 360.492188 C 384.5625 360.492188 388.882812 364.816406 388.882812 370.148438 "/>
<path style=" stroke:none;fill-rule:nonzero;fill:rgb(100%,84.3%,0%);fill-opacity:1;" d="M 72.292969 140.421875 C 72.292969 145.753906 67.972656 150.074219 62.640625 150.074219 C 57.308594 150.074219 52.988281 145.753906 52.988281 140.421875 C 52.988281 135.089844 57.308594 130.769531 62.640625 130.769531 C 67.972656 130.769531 72.292969 135.089844 72.292969 140.421875 "/>
<path style=" stroke:none;fill-rule:nonzero;fill:rgb(100%,84.3%,0%);fill-opacity:1;" d="M 129.820312 389.460938 C 129.820312 394.789062 125.5 399.113281 120.167969 399.113281 C 114.835938 399.113281 110.515625 394.789062 110.515625 389.460938 C 110.515625 384.128906 114.835938 379.804688 120.167969 379.804688 C 125.5 379.804688 129.820312 384.128906 129.820312 389.460938 "/>
<path style=" stroke:none;fill-rule:nonzero;fill:rgb(100%,84.3%,0%);fill-opacity:1;" d="M 419.566406 391.144531 C 419.566406 396.472656 415.242188 400.796875 409.910156 400.796875 C 404.582031 400.796875 400.257812 396.472656 400.257812 391.144531 C 400.257812 385.8125 404.582031 381.488281 409.910156 381.488281 C 415.242188 381.488281 419.566406 385.8125 419.566406 391.144531 "/>
<path style=" stroke:none;fill-rule:nonzero;fill:rgb(100%,84.3%,0%);fill-opacity:1;" d="M 286.550781 121.777344 C 286.550781 127.105469 282.230469 131.429688 276.898438 131.429688 C 271.566406 131.429688 267.246094 127.105469 267.246094 121.777344 C 267.246094 116.445312 271.566406 112.121094 276.898438 112.121094 C 282.230469 112.121094 286.550781 116.445312 286.550781 121.777344 "/>
<path style=" stroke:none;fill-rule:nonzero;fill:rgb(100%,84.3%,0%);fill-opacity:1;" d="M 439.957031 121.304688 C 439.957031 126.636719 435.636719 130.957031 430.304688 130.957031 C 424.972656 130.957031 420.652344 126.636719 420.652344 121.304688 C 420.652344 115.972656 424.972656 111.652344 430.304688 111.652344 C 435.636719 111.652344 439.957031 115.972656 439.957031 121.304688 "/>
<path style=" stroke:none;fill-rule:nonzero;fill:rgb(100%,84.3%,0%);fill-opacity:1;" d="M 458.097656 179.453125 C 458.097656 184.785156 453.777344 189.105469 448.445312 189.105469 C 443.113281 189.105469 438.792969 184.785156 438.792969 179.453125 C 438.792969 174.121094 443.113281 169.800781 448.445312 169.800781 C 453.777344 169.800781 458.097656 174.121094 458.097656 179.453125 "/>
<path style=" stroke:none;fill-rule:nonzero;fill:rgb(100%,84.3%,0%);fill-opacity:1;" d="M 345.066406 375.476562 C 345.066406 380.808594 340.746094 385.128906 335.414062 385.128906 C 330.082031 385.128906 325.761719 380.808594 325.761719 375.476562 C 325.761719 370.144531 330.082031 365.824219 335.414062 365.824219 C 340.746094 365.824219 345.066406 370.144531 345.066406 375.476562 "/>
<path style=" stroke:none;fill-rule:nonzero;fill:rgb(100%,84.3%,0%);fill-opacity:1;" d="M 459.679688 391.144531 C 459.679688 396.472656 455.359375 400.796875 450.027344 400.796875 C 444.695312 400.796875 440.375 396.472656 440.375 391.144531 C 440.375 385.8125 444.695312 381.488281 450.027344 381.488281 C 455.359375 381.488281 459.679688 385.8125 459.679688 391.144531 "/>
<path style=" stroke:none;fill-rule:nonzero;fill:rgb(100%,84.3%,0%);fill-opacity:1;" d="M 214.824219 374.007812 C 214.824219 379.339844 210.503906 383.660156 205.171875 383.660156 C 199.839844 383.660156 195.519531 379.339844 195.519531 374.007812 C 195.519531 368.679688 199.839844 364.355469 205.171875 364.355469 C 210.503906 364.355469 214.824219 368.679688 214.824219 374.007812 "/>
</g>
</svg>
