<?xml version="1.0" encoding="UTF-8"?>
<svg xmlns="http://www.w3.org/2000/svg" xmlns:xlink="http://www.w3.org/1999/xlink" width="512pt" height="512pt" viewBox="0 0 512 512" version="1.1">
<g id="surface241">
<path style=" stroke:none;fill-rule:nonzero;fill:rgb(26.7%,26.7%,26.7%);fill-opacity:1;" d="M 85.992188 0 L 426.007812 0 L 426.007812 512 L 85.992188 512 Z M 85.992188 0 "/>
<path style=" stroke:none;fill-rule:nonzero;fill:rgb(19.2%,38.8%,66.7%);fill-opacity:1;" d="M 85.992188 46.546875 L 395.097656 46.546875 L 395.097656 512 L 85.992188 512 Z M 85.992188 46.546875 "/>
<path style=" stroke:none;fill-rule:nonzero;fill:rgb(100%,100%,100%);fill-opacity:1;" d="M 470.472656 178.304688 C 470.472656 179.636719 468.472656 179.636719 468.472656 178.304688 C 468.472656 176.972656 470.472656 176.972656 470.472656 178.304688 "/>
<path style=" stroke:none;fill-rule:nonzero;fill:rgb(100%,100%,100%);fill-opacity:1;" d="M 487.46875 505.203125 C 487.46875 506.535156 485.46875 506.535156 485.46875 505.203125 C 485.46875 503.867188 487.46875 503.867188 487.46875 505.203125 "/>
<path style=" stroke:none;fill-rule:nonzero;fill:rgb(100%,100%,100%);fill-opacity:1;" d="M 486.269531 434.023438 C 486.269531 435.355469 484.269531 435.355469 484.269531 434.023438 C 484.269531 432.691406 486.269531 432.691406 486.269531 434.023438 "/>
<path style=" stroke:none;fill-rule:nonzero;fill:rgb(100%,100%,100%);fill-opacity:1;" d="M 452.480469 342.253906 C 452.480469 343.585938 450.480469 343.585938 450.480469 342.253906 C 450.480469 340.921875 452.480469 340.921875 452.480469 342.253906 "/>
<path style=" stroke:none;fill-rule:nonzero;fill:rgb(100%,100%,100%);fill-opacity:1;" d="M 399.09375 98.527344 C 399.09375 99.863281 397.097656 99.863281 397.097656 98.527344 C 397.097656 97.195312 399.09375 97.195312 399.09375 98.527344 "/>
<path style=" stroke:none;fill-rule:nonzero;fill:rgb(100%,100%,100%);fill-opacity:1;" d="M 88.394531 11.355469 C 88.394531 12.6875 86.394531 12.6875 86.394531 11.355469 C 86.394531 10.023438 88.394531 10.023438 88.394531 11.355469 "/>
<path style=" stroke:none;fill-rule:nonzero;fill:rgb(100%,100%,100%);fill-opacity:1;" d="M 490.265625 106.726562 C 490.265625 108.058594 488.265625 108.058594 488.265625 106.726562 C 488.265625 105.394531 490.265625 105.394531 490.265625 106.726562 "/>
<path style=" stroke:none;fill-rule:nonzero;fill:rgb(100%,100%,100%);fill-opacity:1;" d="M 465.273438 198.496094 C 465.273438 199.832031 463.273438 199.832031 463.273438 198.496094 C 463.273438 197.164062 465.273438 197.164062 465.273438 198.496094 "/>
<path style=" stroke:none;fill-rule:nonzero;fill:rgb(100%,100%,100%);fill-opacity:1;" d="M 425.488281 93.730469 C 425.488281 95.0625 423.488281 95.0625 423.488281 93.730469 C 423.488281 92.398438 425.488281 92.398438 425.488281 93.730469 "/>
<path style=" stroke:none;fill-rule:nonzero;fill:rgb(100%,100%,100%);fill-opacity:1;" d="M 424.886719 289.070312 C 424.886719 290.402344 422.886719 290.402344 422.886719 289.070312 C 422.886719 287.738281 424.886719 287.738281 424.886719 289.070312 "/>
<path style=" stroke:none;fill-rule:nonzero;fill:rgb(100%,100%,100%);fill-opacity:1;" d="M 293.925781 25.351562 C 293.925781 26.683594 291.929688 26.683594 291.929688 25.351562 C 291.929688 24.019531 293.925781 24.019531 293.925781 25.351562 "/>
<path style=" stroke:none;fill-rule:nonzero;fill:rgb(100%,100%,100%);fill-opacity:1;" d="M 211.554688 12.355469 C 211.554688 13.6875 209.554688 13.6875 209.554688 12.355469 C 209.554688 11.023438 211.554688 11.023438 211.554688 12.355469 "/>
<path style=" stroke:none;fill-rule:nonzero;fill:rgb(100%,100%,100%);fill-opacity:1;" d="M 227.949219 21.753906 C 227.949219 23.085938 225.949219 23.085938 225.949219 21.753906 C 225.949219 20.421875 227.949219 20.421875 227.949219 21.753906 "/>
<path style=" stroke:none;fill-rule:nonzero;fill:rgb(100%,100%,100%);fill-opacity:1;" d="M 407.691406 420.828125 C 407.691406 422.160156 405.691406 422.160156 405.691406 420.828125 C 405.691406 419.496094 407.691406 419.496094 407.691406 420.828125 "/>
<path style=" stroke:none;fill-rule:nonzero;fill:rgb(100%,84.3%,0%);fill-opacity:1;" d="M 394.097656 94.371094 C 394.097656 95.707031 392.097656 95.707031 392.097656 94.371094 C 392.097656 93.039062 394.097656 93.039062 394.097656 94.371094 "/>
<path style=" stroke:none;fill-rule:nonzero;fill:rgb(100%,84.3%,0%);fill-opacity:1;" d="M 394.082031 118.84375 C 394.082031 120.179688 392.082031 120.179688 392.082031 118.84375 C 392.082031 117.511719 394.082031 117.511719 394.082031 118.84375 "/>
<path style=" stroke:none;fill-rule:nonzero;fill:rgb(100%,84.3%,0%);fill-opacity:1;" d="M 394.097656 77.789062 C 394.097656 79.125 392.097656 79.125 392.097656 77.789062 C 392.097656 76.457031 394.097656 76.457031 394.097656 77.789062 "/>
<path style=" stroke:none;fill-rule:nonzero;fill:rgb(100%,84.3%,0%);fill-opacity:1;" d="M 394.097656 98.421875 C 394.097656 99.753906 392.097656 99.753906 392.097656 98.421875 C 392.097656 97.089844 394.097656 97.089844 394.097656 98.421875 "/>
<path style=" stroke:none;fill-rule:nonzero;fill:rgb(100%,84.3%,0%);fill-opacity:1;" d="M 394.097656 96.371094 C 394.097656 97.703125 392.097656 97.703125 392.097656 96.371094 C 392.097656 95.039062 394.097656 95.039062 394.097656 96.371094 "/>
<path style=" stroke:none;fill-rule:nonzero;fill:rgb(100%,84.3%,0%);fill-opacity:1;" d="M 394.097656 114.59375 C 394.097656 115.925781 392.097656 115.925781 392.097656 114.59375 C 392.097656 113.257812 394.097656 113.257812 394.097656 114.59375 "/>
<path style=" stroke:none;fill-rule:nonzero;fill:rgb(100%,84.3%,0%);fill-opacity:1;" d="M 394.058594 81.910156 C 394.058594 83.242188 392.058594 83.242188 392.058594 81.910156 C 392.058594 80.574219 394.058594 80.574219 394.058594 81.910156 "/>
<path style=" stroke:none;fill-rule:nonzero;fill:rgb(100%,84.3%,0%);fill-opacity:1;" d="M 392.214844 99.78125 C 392.214844 101.113281 390.214844 101.113281 390.214844 99.78125 C 390.214844 98.449219 392.214844 98.449219 392.214844 99.78125 "/>
<path style=" stroke:none;fill-rule:nonzero;fill:rgb(100%,84.3%,0%);fill-opacity:1;" d="M 394.097656 85.488281 C 394.097656 86.820312 392.097656 86.820312 392.097656 85.488281 C 392.097656 84.15625 394.097656 84.15625 394.097656 85.488281 "/>
<path style=" stroke:none;fill-rule:nonzero;fill:rgb(100%,84.3%,0%);fill-opacity:1;" d="M 394.097656 111.21875 C 394.097656 112.554688 392.097656 112.554688 392.097656 111.21875 C 392.097656 109.886719 394.097656 109.886719 394.097656 111.21875 "/>
<path style=" stroke:none;fill-rule:nonzero;fill:rgb(100%,84.3%,0%);fill-opacity:1;" d="M 394.097656 102.453125 C 394.097656 103.785156 392.097656 103.785156 392.097656 102.453125 C 392.097656 101.121094 394.097656 101.121094 394.097656 102.453125 "/>
<path style=" stroke:none;fill-rule:nonzero;fill:rgb(100%,84.3%,0%);fill-opacity:1;" d="M 394.09375 108.5 C 394.09375 109.832031 392.09375 109.832031 392.09375 108.5 C 392.09375 107.167969 394.09375 107.167969 394.09375 108.5 "/>
<path style=" stroke:none;fill-rule:nonzero;fill:rgb(100%,84.3%,0%);fill-opacity:1;" d="M 393.996094 90.375 C 393.996094 91.707031 392 91.707031 392 90.375 C 392 89.042969 393.996094 89.042969 393.996094 90.375 "/>
<path style=" stroke:none;fill-rule:nonzero;fill:rgb(100%,84.3%,0%);fill-opacity:1;" d="M 394.097656 100.453125 C 394.097656 101.789062 392.097656 101.789062 392.097656 100.453125 C 392.097656 99.121094 394.097656 99.121094 394.097656 100.453125 "/>
<path style=" stroke:none;fill-rule:nonzero;fill:rgb(100%,84.3%,0%);fill-opacity:1;" d="M 394.003906 106.449219 C 394.003906 107.785156 392.003906 107.785156 392.003906 106.449219 C 392.003906 105.117188 394.003906 105.117188 394.003906 106.449219 "/>
<path style=" stroke:none;fill-rule:nonzero;fill:rgb(100%,84.3%,0%);fill-opacity:1;" d="M 394.066406 92.371094 C 394.066406 93.707031 392.066406 93.707031 392.066406 92.371094 C 392.066406 91.039062 394.066406 91.039062 394.066406 92.371094 "/>
<path style=" stroke:none;fill-rule:nonzero;fill:rgb(100%,84.3%,0%);fill-opacity:1;" d="M 394.097656 104.453125 C 394.097656 105.785156 392.097656 105.785156 392.097656 104.453125 C 392.097656 103.121094 394.097656 103.121094 394.097656 104.453125 "/>
<path style=" stroke:none;fill-rule:nonzero;fill:rgb(100%,84.3%,0%);fill-opacity:1;" d="M 392.1875 96.964844 C 392.1875 98.296875 390.1875 98.296875 390.1875 96.964844 C 390.1875 95.632812 392.1875 95.632812 392.1875 96.964844 "/>
<path style=" stroke:none;fill-rule:nonzero;fill:rgb(100%,84.3%,0%);fill-opacity:1;" d="M 394.097656 88.28125 C 394.097656 89.613281 392.097656 89.613281 392.097656 88.28125 C 392.097656 86.949219 394.097656 86.949219 394.097656 88.28125 "/>
</g>
</svg>
