<?xml version="1.0" encoding="UTF-8"?>
<svg xmlns="http://www.w3.org/2000/svg" xmlns:xlink="http://www.w3.org/1999/xlink" width="512pt" height="512pt" viewBox="0 0 512 512" version="1.1">
<g id="surface256">
<path style=" stroke:none;fill-rule:nonzero;fill:rgb(26.7%,26.7%,26.7%);fill-opacity:1;" d="M 219.601562 0 L 292.398438 0 L 292.398438 512 L 219.601562 512 Z M 219.601562 0 "/>
<path style=" stroke:none;fill-rule:nonzero;fill:rgb(19.2%,38.8%,66.7%);fill-opacity:1;" d="M 225.667969 42.667969 L 286.332031 42.667969 L 286.332031 469.332031 L 225.667969 469.332031 Z M 225.667969 42.667969 "/>
<path style=" stroke:none;fill-rule:nonzero;fill:rgb(100%,100%,100%);fill-opacity:1;" d="M 196.507812 262.535156 C 196.507812 264.769531 193.15625 264.769531 193.15625 262.535156 C 193.15625 260.300781 196.507812 260.300781 196.507812 262.535156 "/>
<path style=" stroke:none;fill-rule:nonzero;fill:rgb(100%,100%,100%);fill-opacity:1;" d="M 285.660156 22.222656 C 285.660156 24.457031 282.308594 24.457031 282.308594 22.222656 C 282.308594 19.988281 285.660156 19.988281 285.660156 22.222656 "/>
<path style=" stroke:none;fill-rule:nonzero;fill:rgb(100%,100%,100%);fill-opacity:1;" d="M 157.964844 72.160156 C 157.964844 74.394531 154.613281 74.394531 154.613281 72.160156 C 154.613281 69.925781 157.964844 69.925781 157.964844 72.160156 "/>
<path style=" stroke:none;fill-rule:nonzero;fill:rgb(100%,100%,100%);fill-opacity:1;" d="M 108.359375 44.34375 C 108.359375 46.578125 105.007812 46.578125 105.007812 44.34375 C 105.007812 42.109375 108.359375 42.109375 108.359375 44.34375 "/>
<path style=" stroke:none;fill-rule:nonzero;fill:rgb(100%,100%,100%);fill-opacity:1;" d="M 180.417969 181.425781 C 180.417969 183.660156 177.066406 183.660156 177.066406 181.425781 C 177.066406 179.191406 180.417969 179.191406 180.417969 181.425781 "/>
<path style=" stroke:none;fill-rule:nonzero;fill:rgb(100%,100%,100%);fill-opacity:1;" d="M 157.628906 106.347656 C 157.628906 108.582031 154.277344 108.582031 154.277344 106.347656 C 154.277344 104.113281 157.628906 104.113281 157.628906 106.347656 "/>
<path style=" stroke:none;fill-rule:nonzero;fill:rgb(100%,100%,100%);fill-opacity:1;" d="M 83.222656 500.839844 C 83.222656 503.074219 79.871094 503.074219 79.871094 500.839844 C 79.871094 498.605469 83.222656 498.605469 83.222656 500.839844 "/>
<path style=" stroke:none;fill-rule:nonzero;fill:rgb(100%,100%,100%);fill-opacity:1;" d="M 50.375 318.171875 C 50.375 320.40625 47.023438 320.40625 47.023438 318.171875 C 47.023438 315.9375 50.375 315.9375 50.375 318.171875 "/>
<path style=" stroke:none;fill-rule:nonzero;fill:rgb(100%,100%,100%);fill-opacity:1;" d="M 54.398438 230.023438 C 54.398438 232.257812 51.046875 232.257812 51.046875 230.023438 C 51.046875 227.789062 54.398438 227.789062 54.398438 230.023438 "/>
<path style=" stroke:none;fill-rule:nonzero;fill:rgb(100%,100%,100%);fill-opacity:1;" d="M 214.941406 110.703125 C 214.941406 112.9375 211.589844 112.9375 211.589844 110.703125 C 211.589844 108.46875 214.941406 108.46875 214.941406 110.703125 "/>
<path style=" stroke:none;fill-rule:nonzero;fill:rgb(100%,100%,100%);fill-opacity:1;" d="M 82.550781 140.199219 C 82.550781 142.433594 79.199219 142.433594 79.199219 140.199219 C 79.199219 137.964844 82.550781 137.964844 82.550781 140.199219 "/>
<path style=" stroke:none;fill-rule:nonzero;fill:rgb(100%,100%,100%);fill-opacity:1;" d="M 4.121094 52.050781 C 4.121094 54.285156 0.769531 54.285156 0.769531 52.050781 C 0.769531 49.816406 4.121094 49.816406 4.121094 52.050781 "/>
<path style=" stroke:none;fill-rule:nonzero;fill:rgb(100%,100%,100%);fill-opacity:1;" d="M 356.046875 278.960938 C 356.046875 281.195312 352.695312 281.195312 352.695312 278.960938 C 352.695312 276.722656 356.046875 276.722656 356.046875 278.960938 "/>
<path style=" stroke:none;fill-rule:nonzero;fill:rgb(100%,100%,100%);fill-opacity:1;" d="M 184.105469 417.382812 C 184.105469 419.617188 180.753906 419.617188 180.753906 417.382812 C 180.753906 415.148438 184.105469 415.148438 184.105469 417.382812 "/>
<path style=" stroke:none;fill-rule:nonzero;fill:rgb(100%,100%,100%);fill-opacity:1;" d="M 29.929688 223.320312 C 29.929688 225.554688 26.578125 225.554688 26.578125 223.320312 C 26.578125 221.085938 29.929688 221.085938 29.929688 223.320312 "/>
<path style=" stroke:none;fill-rule:nonzero;fill:rgb(100%,100%,100%);fill-opacity:1;" d="M 307.78125 109.03125 C 307.78125 111.265625 304.429688 111.265625 304.429688 109.03125 C 304.429688 106.796875 307.78125 106.796875 307.78125 109.03125 "/>
<path style=" stroke:none;fill-rule:nonzero;fill:rgb(100%,100%,100%);fill-opacity:1;" d="M 14.511719 94.28125 C 14.511719 96.515625 11.160156 96.515625 11.160156 94.28125 C 11.160156 92.046875 14.511719 92.046875 14.511719 94.28125 "/>
<path style=" stroke:none;fill-rule:nonzero;fill:rgb(100%,100%,100%);fill-opacity:1;" d="M 121.429688 17.527344 C 121.429688 19.761719 118.078125 19.761719 118.078125 17.527344 C 118.078125 15.292969 121.429688 15.292969 121.429688 17.527344 "/>
<path style=" stroke:none;fill-rule:nonzero;fill:rgb(100%,100%,100%);fill-opacity:1;" d="M 122.773438 200.863281 C 122.773438 203.097656 119.421875 203.097656 119.421875 200.863281 C 119.421875 198.628906 122.773438 198.628906 122.773438 200.863281 "/>
<path style=" stroke:none;fill-rule:nonzero;fill:rgb(100%,100%,100%);fill-opacity:1;" d="M 30.601562 147.238281 C 30.601562 149.472656 27.25 149.472656 27.25 147.238281 C 27.25 145.003906 30.601562 145.003906 30.601562 147.238281 "/>
<path style=" stroke:none;fill-rule:nonzero;fill:rgb(100%,84.3%,0%);fill-opacity:1;" d="M 279.785156 46.019531 C 279.785156 48.253906 276.433594 48.253906 276.433594 46.019531 C 276.433594 43.785156 279.785156 43.785156 279.785156 46.019531 "/>
<path style=" stroke:none;fill-rule:nonzero;fill:rgb(100%,84.3%,0%);fill-opacity:1;" d="M 230.695312 93.101562 C 230.695312 95.335938 227.34375 95.335938 227.34375 93.101562 C 227.34375 90.867188 230.695312 90.867188 230.695312 93.101562 "/>
<path style=" stroke:none;fill-rule:nonzero;fill:rgb(100%,84.3%,0%);fill-opacity:1;" d="M 276.433594 46.019531 C 276.433594 48.253906 273.082031 48.253906 273.082031 46.019531 C 273.082031 43.785156 276.433594 43.785156 276.433594 46.019531 "/>
<path style=" stroke:none;fill-rule:nonzero;fill:rgb(100%,84.3%,0%);fill-opacity:1;" d="M 230.695312 157.980469 C 230.695312 160.214844 227.34375 160.214844 227.34375 157.980469 C 227.34375 155.746094 230.695312 155.746094 230.695312 157.980469 "/>
<path style=" stroke:none;fill-rule:nonzero;fill:rgb(100%,84.3%,0%);fill-opacity:1;" d="M 284.65625 115.351562 C 284.65625 117.585938 281.304688 117.585938 281.304688 115.351562 C 281.304688 113.117188 284.65625 113.117188 284.65625 115.351562 "/>
<path style=" stroke:none;fill-rule:nonzero;fill:rgb(100%,84.3%,0%);fill-opacity:1;" d="M 230.71875 100.105469 C 230.71875 102.339844 227.367188 102.339844 227.367188 100.105469 C 227.367188 97.871094 230.71875 97.871094 230.71875 100.105469 "/>
<path style=" stroke:none;fill-rule:nonzero;fill:rgb(100%,84.3%,0%);fill-opacity:1;" d="M 230.703125 113.578125 C 230.703125 115.8125 227.351562 115.8125 227.351562 113.578125 C 227.351562 111.34375 230.703125 111.34375 230.703125 113.578125 "/>
<path style=" stroke:none;fill-rule:nonzero;fill:rgb(100%,84.3%,0%);fill-opacity:1;" d="M 272.679688 46.019531 C 272.679688 48.253906 269.328125 48.253906 269.328125 46.019531 C 269.328125 43.785156 272.679688 43.785156 272.679688 46.019531 "/>
<path style=" stroke:none;fill-rule:nonzero;fill:rgb(100%,84.3%,0%);fill-opacity:1;" d="M 231.558594 130.648438 C 231.558594 132.882812 228.207031 132.882812 228.207031 130.648438 C 228.207031 128.414062 231.558594 128.414062 231.558594 130.648438 "/>
<path style=" stroke:none;fill-rule:nonzero;fill:rgb(100%,84.3%,0%);fill-opacity:1;" d="M 262.824219 46.070312 C 262.824219 48.304688 259.472656 48.304688 259.472656 46.070312 C 259.472656 43.835938 262.824219 43.835938 262.824219 46.070312 "/>
<path style=" stroke:none;fill-rule:nonzero;fill:rgb(100%,84.3%,0%);fill-opacity:1;" d="M 231.027344 123.632812 C 231.027344 125.867188 227.675781 125.867188 227.675781 123.632812 C 227.675781 121.398438 231.027344 121.398438 231.027344 123.632812 "/>
<path style=" stroke:none;fill-rule:nonzero;fill:rgb(100%,84.3%,0%);fill-opacity:1;" d="M 284.65625 107.050781 C 284.65625 109.285156 281.304688 109.285156 281.304688 107.050781 C 281.304688 104.816406 284.65625 104.816406 284.65625 107.050781 "/>
<path style=" stroke:none;fill-rule:nonzero;fill:rgb(100%,84.3%,0%);fill-opacity:1;" d="M 230.695312 106.808594 C 230.695312 109.042969 227.34375 109.042969 227.34375 106.808594 C 227.34375 104.574219 230.695312 104.574219 230.695312 106.808594 "/>
<path style=" stroke:none;fill-rule:nonzero;fill:rgb(100%,84.3%,0%);fill-opacity:1;" d="M 230.695312 258.414062 C 230.695312 260.648438 227.34375 260.648438 227.34375 258.414062 C 227.34375 256.179688 230.695312 256.179688 230.695312 258.414062 "/>
<path style=" stroke:none;fill-rule:nonzero;fill:rgb(100%,84.3%,0%);fill-opacity:1;" d="M 284.65625 111.695312 C 284.65625 113.929688 281.304688 113.929688 281.304688 111.695312 C 281.304688 109.460938 284.65625 109.460938 284.65625 111.695312 "/>
<path style=" stroke:none;fill-rule:nonzero;fill:rgb(100%,84.3%,0%);fill-opacity:1;" d="M 230.695312 110.191406 C 230.695312 112.425781 227.34375 112.425781 227.34375 110.191406 C 227.34375 107.957031 230.695312 107.957031 230.695312 110.191406 "/>
<path style=" stroke:none;fill-rule:nonzero;fill:rgb(100%,84.3%,0%);fill-opacity:1;" d="M 284.65625 98.890625 C 284.65625 101.125 281.304688 101.125 281.304688 98.890625 C 281.304688 96.65625 284.65625 96.65625 284.65625 98.890625 "/>
<path style=" stroke:none;fill-rule:nonzero;fill:rgb(100%,84.3%,0%);fill-opacity:1;" d="M 283.675781 46.019531 C 283.675781 48.253906 280.320312 48.253906 280.320312 46.019531 C 280.320312 43.785156 283.675781 43.785156 283.675781 46.019531 "/>
<path style=" stroke:none;fill-rule:nonzero;fill:rgb(100%,84.3%,0%);fill-opacity:1;" d="M 233.726562 112.125 C 233.726562 114.359375 230.375 114.359375 230.375 112.125 C 230.375 109.890625 233.726562 109.890625 233.726562 112.125 "/>
<path style=" stroke:none;fill-rule:nonzero;fill:rgb(100%,84.3%,0%);fill-opacity:1;" d="M 230.695312 103.457031 C 230.695312 105.691406 227.34375 105.691406 227.34375 103.457031 C 227.34375 101.222656 230.695312 101.222656 230.695312 103.457031 "/>
<path style=" stroke:none;fill-rule:nonzero;fill:rgb(100%,84.3%,0%);fill-opacity:1;" d="M 230.71875 96.753906 C 230.71875 98.988281 227.363281 98.988281 227.363281 96.753906 C 227.363281 94.519531 230.71875 94.519531 230.71875 96.753906 "/>
<path style=" stroke:none;fill-rule:nonzero;fill:rgb(100%,84.3%,0%);fill-opacity:1;" d="M 281.507812 48.914062 C 281.507812 51.148438 278.15625 51.148438 278.15625 48.914062 C 278.15625 46.679688 281.507812 46.679688 281.507812 48.914062 "/>
<path style=" stroke:none;fill-rule:nonzero;fill:rgb(100%,84.3%,0%);fill-opacity:1;" d="M 230.695312 264.992188 C 230.695312 267.226562 227.34375 267.226562 227.34375 264.992188 C 227.34375 262.757812 230.695312 262.757812 230.695312 264.992188 "/>
<path style=" stroke:none;fill-rule:nonzero;fill:rgb(100%,84.3%,0%);fill-opacity:1;" d="M 230.695312 116.945312 C 230.695312 119.179688 227.34375 119.179688 227.34375 116.945312 C 227.34375 114.710938 230.695312 114.710938 230.695312 116.945312 "/>
<path style=" stroke:none;fill-rule:nonzero;fill:rgb(100%,84.3%,0%);fill-opacity:1;" d="M 230.695312 85.789062 C 230.695312 88.023438 227.34375 88.023438 227.34375 85.789062 C 227.34375 83.554688 230.695312 83.554688 230.695312 85.789062 "/>
<path style=" stroke:none;fill-rule:nonzero;fill:rgb(100%,84.3%,0%);fill-opacity:1;" d="M 284.65625 119.84375 C 284.65625 122.078125 281.304688 122.078125 281.304688 119.84375 C 281.304688 117.609375 284.65625 117.609375 284.65625 119.84375 "/>
<path style=" stroke:none;fill-rule:nonzero;fill:rgb(100%,84.3%,0%);fill-opacity:1;" d="M 231.082031 60.75 C 231.082031 62.984375 227.730469 62.984375 227.730469 60.75 C 227.730469 58.515625 231.082031 58.515625 231.082031 60.75 "/>
<path style=" stroke:none;fill-rule:nonzero;fill:rgb(100%,84.3%,0%);fill-opacity:1;" d="M 284.65625 102.488281 C 284.65625 104.722656 281.304688 104.722656 281.304688 102.488281 C 281.304688 100.253906 284.65625 100.253906 284.65625 102.488281 "/>
<path style=" stroke:none;fill-rule:nonzero;fill:rgb(100%,84.3%,0%);fill-opacity:1;" d="M 230.707031 133.941406 C 230.707031 136.175781 227.355469 136.175781 227.355469 133.941406 C 227.355469 131.707031 230.707031 131.707031 230.707031 133.941406 "/>
<path style=" stroke:none;fill-rule:nonzero;fill:rgb(100%,84.3%,0%);fill-opacity:1;" d="M 233.800781 108.066406 C 233.800781 110.300781 230.449219 110.300781 230.449219 108.066406 C 230.449219 105.832031 233.800781 105.832031 233.800781 108.066406 "/>
<path style=" stroke:none;fill-rule:nonzero;fill:rgb(100%,84.3%,0%);fill-opacity:1;" d="M 230.695312 126.96875 C 230.695312 129.203125 227.34375 129.203125 227.34375 126.96875 C 227.34375 124.734375 230.695312 124.734375 230.695312 126.96875 "/>
<path style=" stroke:none;fill-rule:nonzero;fill:rgb(100%,84.3%,0%);fill-opacity:1;" d="M 231.207031 138.84375 C 231.207031 141.078125 227.855469 141.078125 227.855469 138.84375 C 227.855469 136.609375 231.207031 136.609375 231.207031 138.84375 "/>
<path style=" stroke:none;fill-rule:nonzero;fill:rgb(100%,84.3%,0%);fill-opacity:1;" d="M 230.695312 120.296875 C 230.695312 122.53125 227.34375 122.53125 227.34375 120.296875 C 227.34375 118.0625 230.695312 118.0625 230.695312 120.296875 "/>
<path style=" stroke:none;fill-rule:nonzero;fill:rgb(100%,84.3%,0%);fill-opacity:1;" d="M 230.695312 89.75 C 230.695312 91.984375 227.34375 91.984375 227.34375 89.75 C 227.34375 87.515625 230.695312 87.515625 230.695312 89.75 "/>
</g>
</svg>
