<?xml version="1.0" encoding="UTF-8"?>
<svg xmlns="http://www.w3.org/2000/svg" xmlns:xlink="http://www.w3.org/1999/xlink" width="512pt" height="512pt" viewBox="0 0 512 512" version="1.1">
<g id="surface261">
<path style=" stroke:none;fill-rule:nonzero;fill:rgb(26.7%,26.7%,26.7%);fill-opacity:1;" d="M 0 259.269531 L 702.605469 259.269531 L 702.605469 512 L 0 512 Z M 0 259.269531 "/>
<path style=" stroke:none;fill-rule:nonzero;fill:rgb(19.2%,38.8%,66.7%);fill-opacity:1;" d="M 42.667969 383.699219 L 469.332031 383.699219 L 469.332031 500.335938 L 42.667969 500.335938 Z M 42.667969 383.699219 "/>
<path style=" stroke:none;fill-rule:nonzero;fill:rgb(100%,100%,100%);fill-opacity:1;" d="M 406.96875 506.933594 C 406.96875 508.933594 403.96875 508.933594 403.96875 506.933594 C 403.96875 504.933594 406.96875 504.933594 406.96875 506.933594 "/>
<path style=" stroke:none;fill-rule:nonzero;fill:rgb(100%,100%,100%);fill-opacity:1;" d="M 433.351562 359.113281 C 433.351562 361.113281 430.355469 361.113281 430.355469 359.113281 C 430.355469 357.113281 433.351562 357.113281 433.351562 359.113281 "/>
<path style=" stroke:none;fill-rule:nonzero;fill:rgb(100%,100%,100%);fill-opacity:1;" d="M 226.167969 271.261719 C 226.167969 273.261719 223.167969 273.261719 223.167969 271.261719 C 223.167969 269.261719 226.167969 269.261719 226.167969 271.261719 "/>
<path style=" stroke:none;fill-rule:nonzero;fill:rgb(100%,100%,100%);fill-opacity:1;" d="M 356.59375 330.328125 C 356.59375 332.328125 353.597656 332.328125 353.597656 330.328125 C 353.597656 328.332031 356.59375 328.332031 356.59375 330.328125 "/>
<path style=" stroke:none;fill-rule:nonzero;fill:rgb(100%,100%,100%);fill-opacity:1;" d="M 170.097656 350.117188 C 170.097656 352.117188 167.097656 352.117188 167.097656 350.117188 C 167.097656 348.121094 170.097656 348.121094 170.097656 350.117188 "/>
<path style=" stroke:none;fill-rule:nonzero;fill:rgb(100%,100%,100%);fill-opacity:1;" d="M 71.453125 272.460938 C 71.453125 274.460938 68.453125 274.460938 68.453125 272.460938 C 68.453125 270.460938 71.453125 270.460938 71.453125 272.460938 "/>
<path style=" stroke:none;fill-rule:nonzero;fill:rgb(100%,100%,100%);fill-opacity:1;" d="M 97.238281 352.515625 C 97.238281 354.515625 94.238281 354.515625 94.238281 352.515625 C 94.238281 350.519531 97.238281 350.519531 97.238281 352.515625 "/>
<path style=" stroke:none;fill-rule:nonzero;fill:rgb(100%,100%,100%);fill-opacity:1;" d="M 166.800781 373.507812 C 166.800781 375.503906 163.800781 375.503906 163.800781 373.507812 C 163.800781 371.507812 166.800781 371.507812 166.800781 373.507812 "/>
<path style=" stroke:none;fill-rule:nonzero;fill:rgb(100%,100%,100%);fill-opacity:1;" d="M 335.304688 506.933594 C 335.304688 508.933594 332.308594 508.933594 332.308594 506.933594 C 332.308594 504.933594 335.304688 504.933594 335.304688 506.933594 "/>
<path style=" stroke:none;fill-rule:nonzero;fill:rgb(100%,100%,100%);fill-opacity:1;" d="M 433.351562 267.664062 C 433.351562 269.664062 430.355469 269.664062 430.355469 267.664062 C 430.355469 265.664062 433.351562 265.664062 433.351562 267.664062 "/>
<path style=" stroke:none;fill-rule:nonzero;fill:rgb(100%,100%,100%);fill-opacity:1;" d="M 22.277344 388.199219 C 22.277344 390.195312 19.28125 390.195312 19.28125 388.199219 C 19.28125 386.199219 22.277344 386.199219 22.277344 388.199219 "/>
<path style=" stroke:none;fill-rule:nonzero;fill:rgb(100%,100%,100%);fill-opacity:1;" d="M 420.460938 341.421875 C 420.460938 343.421875 417.460938 343.421875 417.460938 341.421875 C 417.460938 339.425781 420.460938 339.425781 420.460938 341.421875 "/>
<path style=" stroke:none;fill-rule:nonzero;fill:rgb(100%,100%,100%);fill-opacity:1;" d="M 496.316406 266.464844 C 496.316406 268.464844 493.320312 268.464844 493.320312 266.464844 C 493.320312 264.464844 496.316406 264.464844 496.316406 266.464844 "/>
<path style=" stroke:none;fill-rule:nonzero;fill:rgb(100%,100%,100%);fill-opacity:1;" d="M 425.257812 340.824219 C 425.257812 342.824219 422.257812 342.824219 422.257812 340.824219 C 422.257812 338.824219 425.257812 338.824219 425.257812 340.824219 "/>
<path style=" stroke:none;fill-rule:nonzero;fill:rgb(100%,100%,100%);fill-opacity:1;" d="M 79.847656 299.746094 C 79.847656 301.746094 76.847656 301.746094 76.847656 299.746094 C 76.847656 297.746094 79.847656 297.746094 79.847656 299.746094 "/>
<path style=" stroke:none;fill-rule:nonzero;fill:rgb(100%,100%,100%);fill-opacity:1;" d="M 191.984375 377.703125 C 191.984375 379.703125 188.988281 379.703125 188.988281 377.703125 C 188.988281 375.703125 191.984375 375.703125 191.984375 377.703125 "/>
<path style=" stroke:none;fill-rule:nonzero;fill:rgb(100%,100%,100%);fill-opacity:1;" d="M 25.277344 262.867188 C 25.277344 264.863281 22.277344 264.863281 22.277344 262.867188 C 22.277344 260.867188 25.277344 260.867188 25.277344 262.867188 "/>
<path style=" stroke:none;fill-rule:nonzero;fill:rgb(100%,84.3%,0%);fill-opacity:1;" d="M 195.332031 386.699219 C 195.332031 388.699219 192.335938 388.699219 192.335938 386.699219 C 192.335938 384.699219 195.332031 384.699219 195.332031 386.699219 "/>
<path style=" stroke:none;fill-rule:nonzero;fill:rgb(100%,84.3%,0%);fill-opacity:1;" d="M 339.117188 497.339844 C 339.117188 499.335938 336.117188 499.335938 336.117188 497.339844 C 336.117188 495.339844 339.117188 495.339844 339.117188 497.339844 "/>
<path style=" stroke:none;fill-rule:nonzero;fill:rgb(100%,84.3%,0%);fill-opacity:1;" d="M 173.75 386.804688 C 173.75 388.804688 170.75 388.804688 170.75 386.804688 C 170.75 384.808594 173.75 384.808594 173.75 386.804688 "/>
<path style=" stroke:none;fill-rule:nonzero;fill:rgb(100%,84.3%,0%);fill-opacity:1;" d="M 420.261719 496.9375 C 420.261719 498.9375 417.261719 498.9375 417.261719 496.9375 C 417.261719 494.941406 420.261719 494.941406 420.261719 496.9375 "/>
<path style=" stroke:none;fill-rule:nonzero;fill:rgb(100%,84.3%,0%);fill-opacity:1;" d="M 348.113281 497.339844 C 348.113281 499.335938 345.117188 499.335938 345.117188 497.339844 C 345.117188 495.339844 348.113281 495.339844 348.113281 497.339844 "/>
<path style=" stroke:none;fill-rule:nonzero;fill:rgb(100%,84.3%,0%);fill-opacity:1;" d="M 333.023438 497.339844 C 333.023438 499.335938 330.023438 499.335938 330.023438 497.339844 C 330.023438 495.339844 333.023438 495.339844 333.023438 497.339844 "/>
<path style=" stroke:none;fill-rule:nonzero;fill:rgb(100%,84.3%,0%);fill-opacity:1;" d="M 338.253906 494.464844 C 338.253906 496.464844 335.253906 496.464844 335.253906 494.464844 C 335.253906 492.46875 338.253906 492.46875 338.253906 494.464844 "/>
<path style=" stroke:none;fill-rule:nonzero;fill:rgb(100%,84.3%,0%);fill-opacity:1;" d="M 417.234375 497.339844 C 417.234375 499.335938 414.234375 499.335938 414.234375 497.339844 C 414.234375 495.339844 417.234375 495.339844 417.234375 497.339844 "/>
<path style=" stroke:none;fill-rule:nonzero;fill:rgb(100%,84.3%,0%);fill-opacity:1;" d="M 342.113281 497.339844 C 342.113281 499.335938 339.117188 499.335938 339.117188 497.339844 C 339.117188 495.339844 342.113281 495.339844 342.113281 497.339844 "/>
<path style=" stroke:none;fill-rule:nonzero;fill:rgb(100%,84.3%,0%);fill-opacity:1;" d="M 395.9375 497.324219 C 395.9375 499.320312 392.9375 499.320312 392.9375 497.324219 C 392.9375 495.324219 395.9375 495.324219 395.9375 497.324219 "/>
<path style=" stroke:none;fill-rule:nonzero;fill:rgb(100%,84.3%,0%);fill-opacity:1;" d="M 166.828125 386.699219 C 166.828125 388.699219 163.828125 388.699219 163.828125 386.699219 C 163.828125 384.699219 166.828125 384.699219 166.828125 386.699219 "/>
<path style=" stroke:none;fill-rule:nonzero;fill:rgb(100%,84.3%,0%);fill-opacity:1;" d="M 177.320312 386.699219 C 177.320312 388.699219 174.324219 388.699219 174.324219 386.699219 C 174.324219 384.699219 177.320312 384.699219 177.320312 386.699219 "/>
<path style=" stroke:none;fill-rule:nonzero;fill:rgb(100%,84.3%,0%);fill-opacity:1;" d="M 410.5 494.433594 C 410.5 496.429688 407.5 496.429688 407.5 494.433594 C 407.5 492.433594 410.5 492.433594 410.5 494.433594 "/>
<path style=" stroke:none;fill-rule:nonzero;fill:rgb(100%,84.3%,0%);fill-opacity:1;" d="M 329.78125 497.339844 C 329.78125 499.335938 326.785156 499.335938 326.785156 497.339844 C 326.785156 495.339844 329.78125 495.339844 329.78125 497.339844 "/>
<path style=" stroke:none;fill-rule:nonzero;fill:rgb(100%,84.3%,0%);fill-opacity:1;" d="M 402.46875 494.386719 C 402.46875 496.386719 399.46875 496.386719 399.46875 494.386719 C 399.46875 492.390625 402.46875 492.390625 402.46875 494.386719 "/>
<path style=" stroke:none;fill-rule:nonzero;fill:rgb(100%,84.3%,0%);fill-opacity:1;" d="M 180.285156 387.160156 C 180.285156 389.15625 177.285156 389.15625 177.285156 387.160156 C 177.285156 385.160156 180.285156 385.160156 180.285156 387.160156 "/>
<path style=" stroke:none;fill-rule:nonzero;fill:rgb(100%,84.3%,0%);fill-opacity:1;" d="M 163.84375 387.011719 C 163.84375 389.011719 160.847656 389.011719 160.847656 387.011719 C 160.847656 385.015625 163.84375 385.015625 163.84375 387.011719 "/>
<path style=" stroke:none;fill-rule:nonzero;fill:rgb(100%,84.3%,0%);fill-opacity:1;" d="M 345.113281 497.324219 C 345.113281 499.324219 342.113281 499.324219 342.113281 497.324219 C 342.113281 495.328125 345.113281 495.328125 345.113281 497.324219 "/>
<path style=" stroke:none;fill-rule:nonzero;fill:rgb(100%,84.3%,0%);fill-opacity:1;" d="M 392.9375 497.339844 C 392.9375 499.335938 389.941406 499.335938 389.941406 497.339844 C 389.941406 495.339844 392.9375 495.339844 392.9375 497.339844 "/>
<path style=" stroke:none;fill-rule:nonzero;fill:rgb(100%,84.3%,0%);fill-opacity:1;" d="M 198.332031 386.699219 C 198.332031 388.699219 195.332031 388.699219 195.332031 386.699219 C 195.332031 384.699219 198.332031 384.699219 198.332031 386.699219 "/>
<path style=" stroke:none;fill-rule:nonzero;fill:rgb(100%,84.3%,0%);fill-opacity:1;" d="M 408.121094 497.339844 C 408.121094 499.335938 405.121094 499.335938 405.121094 497.339844 C 405.121094 495.339844 408.121094 495.339844 408.121094 497.339844 "/>
<path style=" stroke:none;fill-rule:nonzero;fill:rgb(100%,84.3%,0%);fill-opacity:1;" d="M 414.234375 497.339844 C 414.234375 499.335938 411.238281 499.335938 411.238281 497.339844 C 411.238281 495.339844 414.234375 495.339844 414.234375 497.339844 "/>
<path style=" stroke:none;fill-rule:nonzero;fill:rgb(100%,84.3%,0%);fill-opacity:1;" d="M 204.191406 386.699219 C 204.191406 388.699219 201.191406 388.699219 201.191406 386.699219 C 201.191406 384.699219 204.191406 384.699219 204.191406 386.699219 "/>
<path style=" stroke:none;fill-rule:nonzero;fill:rgb(100%,84.3%,0%);fill-opacity:1;" d="M 183.25 386.699219 C 183.25 388.699219 180.25 388.699219 180.25 386.699219 C 180.25 384.699219 183.25 384.699219 183.25 386.699219 "/>
<path style=" stroke:none;fill-rule:nonzero;fill:rgb(100%,84.3%,0%);fill-opacity:1;" d="M 201.261719 387.335938 C 201.261719 389.335938 198.261719 389.335938 198.261719 387.335938 C 198.261719 385.335938 201.261719 385.335938 201.261719 387.335938 "/>
<path style=" stroke:none;fill-rule:nonzero;fill:rgb(100%,84.3%,0%);fill-opacity:1;" d="M 326.78125 497.339844 C 326.78125 499.335938 323.785156 499.335938 323.785156 497.339844 C 323.785156 495.339844 326.78125 495.339844 326.78125 497.339844 "/>
<path style=" stroke:none;fill-rule:nonzero;fill:rgb(100%,84.3%,0%);fill-opacity:1;" d="M 323.785156 497.339844 C 323.785156 499.335938 320.785156 499.335938 320.785156 497.339844 C 320.785156 495.339844 323.785156 495.339844 323.785156 497.339844 "/>
<path style=" stroke:none;fill-rule:nonzero;fill:rgb(100%,84.3%,0%);fill-opacity:1;" d="M 169.824219 386.699219 C 169.824219 388.699219 166.824219 388.699219 166.824219 386.699219 C 166.824219 384.699219 169.824219 384.699219 169.824219 386.699219 "/>
<path style=" stroke:none;fill-rule:nonzero;fill:rgb(100%,84.3%,0%);fill-opacity:1;" d="M 159.34375 386.699219 C 159.34375 388.699219 156.34375 388.699219 156.34375 386.699219 C 156.34375 384.699219 159.34375 384.699219 159.34375 386.699219 "/>
<path style=" stroke:none;fill-rule:nonzero;fill:rgb(100%,84.3%,0%);fill-opacity:1;" d="M 189.246094 386.699219 C 189.246094 388.699219 186.246094 388.699219 186.246094 386.699219 C 186.246094 384.699219 189.246094 384.699219 189.246094 386.699219 "/>
<path style=" stroke:none;fill-rule:nonzero;fill:rgb(100%,84.3%,0%);fill-opacity:1;" d="M 190.382812 389.472656 C 190.382812 391.472656 187.382812 391.472656 187.382812 389.472656 C 187.382812 387.472656 190.382812 387.472656 190.382812 389.472656 "/>
<path style=" stroke:none;fill-rule:nonzero;fill:rgb(100%,84.3%,0%);fill-opacity:1;" d="M 192.273438 386.699219 C 192.273438 388.699219 189.277344 388.699219 189.277344 386.699219 C 189.277344 384.699219 192.273438 384.699219 192.273438 386.699219 "/>
<path style=" stroke:none;fill-rule:nonzero;fill:rgb(100%,84.3%,0%);fill-opacity:1;" d="M 334.304688 494.628906 C 334.304688 496.628906 331.308594 496.628906 331.308594 494.628906 C 331.308594 492.628906 334.304688 492.628906 334.304688 494.628906 "/>
<path style=" stroke:none;fill-rule:nonzero;fill:rgb(100%,84.3%,0%);fill-opacity:1;" d="M 398.933594 497.320312 C 398.933594 499.316406 395.9375 499.316406 395.9375 497.320312 C 395.9375 495.320312 398.933594 495.320312 398.933594 497.320312 "/>
<path style=" stroke:none;fill-rule:nonzero;fill:rgb(100%,84.3%,0%);fill-opacity:1;" d="M 194.378906 389.539062 C 194.378906 391.539062 191.378906 391.539062 191.378906 389.539062 C 191.378906 387.542969 194.378906 387.542969 194.378906 389.539062 "/>
<path style=" stroke:none;fill-rule:nonzero;fill:rgb(100%,84.3%,0%);fill-opacity:1;" d="M 330.195312 494.367188 C 330.195312 496.367188 327.195312 496.367188 327.195312 494.367188 C 327.195312 492.367188 330.195312 492.367188 330.195312 494.367188 "/>
<path style=" stroke:none;fill-rule:nonzero;fill:rgb(100%,84.3%,0%);fill-opacity:1;" d="M 336.035156 497.339844 C 336.035156 499.335938 333.035156 499.335938 333.035156 497.339844 C 333.035156 495.339844 336.035156 495.339844 336.035156 497.339844 "/>
<path style=" stroke:none;fill-rule:nonzero;fill:rgb(100%,84.3%,0%);fill-opacity:1;" d="M 406.523438 494.691406 C 406.523438 496.6875 403.527344 496.6875 403.527344 494.691406 C 403.527344 492.691406 406.523438 492.691406 406.523438 494.691406 "/>
<path style=" stroke:none;fill-rule:nonzero;fill:rgb(100%,84.3%,0%);fill-opacity:1;" d="M 401.933594 497.339844 C 401.933594 499.335938 398.933594 499.335938 398.933594 497.339844 C 398.933594 495.339844 401.933594 495.339844 401.933594 497.339844 "/>
<path style=" stroke:none;fill-rule:nonzero;fill:rgb(100%,84.3%,0%);fill-opacity:1;" d="M 186.246094 386.699219 C 186.246094 388.699219 183.25 388.699219 183.25 386.699219 C 183.25 384.699219 186.246094 384.699219 186.246094 386.699219 "/>
<path style=" stroke:none;fill-rule:nonzero;fill:rgb(100%,84.3%,0%);fill-opacity:1;" d="M 405.121094 497.339844 C 405.121094 499.335938 402.121094 499.335938 402.121094 497.339844 C 402.121094 495.339844 405.121094 495.339844 405.121094 497.339844 "/>
<path style=" stroke:none;fill-rule:nonzero;fill:rgb(100%,84.3%,0%);fill-opacity:1;" d="M 411.238281 497.339844 C 411.238281 499.335938 408.238281 499.335938 408.238281 497.339844 C 408.238281 495.339844 411.238281 495.339844 411.238281 497.339844 "/>
</g>
</svg>
