<?xml version="1.0" encoding="UTF-8"?>
<svg xmlns="http://www.w3.org/2000/svg" xmlns:xlink="http://www.w3.org/1999/xlink" width="512pt" height="512pt" viewBox="0 0 512 512" version="1.1">
<g id="surface281">
<path style=" stroke:none;fill-rule:nonzero;fill:rgb(26.7%,26.7%,26.7%);fill-opacity:1;" d="M 0 100.308594 L 621.652344 100.308594 L 621.652344 512 L 0 512 Z M 0 100.308594 "/>
<path style=" stroke:none;fill-rule:nonzero;fill:rgb(19.2%,38.8%,66.7%);fill-opacity:1;" d="M 42.667969 376.363281 L 469.332031 376.363281 L 469.332031 499.667969 L 42.667969 499.667969 Z M 42.667969 376.363281 "/>
<path style=" stroke:none;fill-rule:nonzero;fill:rgb(90.6%,14.9%,14.9%);fill-opacity:1;" d="M 202.667969 150.65625 C 202.667969 161.496094 193.878906 170.28125 183.039062 170.28125 C 172.199219 170.28125 163.414062 161.496094 163.414062 150.65625 C 163.414062 139.816406 172.199219 131.03125 183.039062 131.03125 C 193.878906 131.03125 202.667969 139.816406 202.667969 150.65625 "/>
<path style=" stroke:none;fill-rule:nonzero;fill:rgb(90.6%,14.9%,14.9%);fill-opacity:1;" d="M 354.132812 331.136719 C 354.132812 347.867188 340.570312 361.429688 323.839844 361.429688 C 307.109375 361.429688 293.546875 347.867188 293.546875 331.136719 C 293.546875 314.40625 307.109375 300.84375 323.839844 300.84375 C 340.570312 300.84375 354.132812 314.40625 354.132812 331.136719 "/>
<path style=" stroke:none;fill-rule:nonzero;fill:rgb(90.6%,14.9%,14.9%);fill-opacity:1;" d="M 289.28125 265.003906 C 289.28125 275.136719 281.066406 283.351562 270.933594 283.351562 C 260.800781 283.351562 252.585938 275.136719 252.585938 265.003906 C 252.585938 254.871094 260.800781 246.65625 270.933594 246.65625 C 281.066406 246.65625 289.28125 254.871094 289.28125 265.003906 "/>
<path style=" stroke:none;fill-rule:nonzero;fill:rgb(90.6%,14.9%,14.9%);fill-opacity:1;" d="M 472.320312 154.496094 C 472.320312 163.921875 464.679688 171.5625 455.253906 171.5625 C 445.828125 171.5625 438.1875 163.921875 438.1875 154.496094 C 438.1875 145.070312 445.828125 137.429688 455.253906 137.429688 C 464.679688 137.429688 472.320312 145.070312 472.320312 154.496094 "/>
<path style=" stroke:none;fill-rule:nonzero;fill:rgb(90.6%,14.9%,14.9%);fill-opacity:1;" d="M 178.347656 253.054688 C 178.347656 267.902344 166.3125 279.9375 151.46875 279.9375 C 136.621094 279.9375 124.585938 267.902344 124.585938 253.054688 C 124.585938 238.210938 136.621094 226.175781 151.46875 226.175781 C 166.3125 226.175781 178.347656 238.210938 178.347656 253.054688 "/>
<path style=" stroke:none;fill-rule:nonzero;fill:rgb(90.6%,14.9%,14.9%);fill-opacity:1;" d="M 265.386719 143.402344 C 265.386719 162.960938 249.53125 178.816406 229.972656 178.816406 C 210.414062 178.816406 194.558594 162.960938 194.558594 143.402344 C 194.558594 123.84375 210.414062 107.988281 229.972656 107.988281 C 249.53125 107.988281 265.386719 123.84375 265.386719 143.402344 "/>
<path style=" stroke:none;fill-rule:nonzero;fill:rgb(90.6%,14.9%,14.9%);fill-opacity:1;" d="M 147.199219 356.734375 C 147.199219 360.976562 143.761719 364.414062 139.519531 364.414062 C 135.277344 364.414062 131.839844 360.976562 131.839844 356.734375 C 131.839844 352.496094 135.277344 349.054688 139.519531 349.054688 C 143.761719 349.054688 147.199219 352.496094 147.199219 356.734375 "/>
<path style=" stroke:none;fill-rule:nonzero;fill:rgb(90.6%,14.9%,14.9%);fill-opacity:1;" d="M 214.1875 273.535156 C 214.1875 291.679688 199.476562 306.390625 181.332031 306.390625 C 163.1875 306.390625 148.480469 291.679688 148.480469 273.535156 C 148.480469 255.390625 163.1875 240.683594 181.332031 240.683594 C 199.476562 240.683594 214.1875 255.390625 214.1875 273.535156 "/>
<path style=" stroke:none;fill-rule:nonzero;fill:rgb(90.6%,14.9%,14.9%);fill-opacity:1;" d="M 466.773438 331.5625 C 466.773438 342.167969 458.175781 350.761719 447.574219 350.761719 C 436.96875 350.761719 428.371094 342.167969 428.371094 331.5625 C 428.371094 320.960938 436.96875 312.363281 447.574219 312.363281 C 458.175781 312.363281 466.773438 320.960938 466.773438 331.5625 "/>
<path style=" stroke:none;fill-rule:nonzero;fill:rgb(90.6%,14.9%,14.9%);fill-opacity:1;" d="M 369.492188 145.964844 C 369.492188 149.261719 366.820312 151.9375 363.519531 151.9375 C 360.222656 151.9375 357.546875 149.261719 357.546875 145.964844 C 357.546875 142.664062 360.222656 139.988281 363.519531 139.988281 C 366.820312 139.988281 369.492188 142.664062 369.492188 145.964844 "/>
<path style=" stroke:none;fill-rule:nonzero;fill:rgb(90.6%,14.9%,14.9%);fill-opacity:1;" d="M 20.90625 442.070312 C 20.90625 449.609375 14.792969 455.722656 7.253906 455.722656 C -0.289062 455.722656 -6.398438 449.609375 -6.398438 442.070312 C -6.398438 434.527344 -0.289062 428.414062 7.253906 428.414062 C 14.792969 428.414062 20.90625 434.527344 20.90625 442.070312 "/>
<path style=" stroke:none;fill-rule:nonzero;fill:rgb(90.6%,14.9%,14.9%);fill-opacity:1;" d="M 35.414062 171.988281 C 35.414062 190.132812 20.703125 204.84375 2.558594 204.84375 C -15.585938 204.84375 -30.292969 190.132812 -30.292969 171.988281 C -30.292969 153.84375 -15.585938 139.136719 2.558594 139.136719 C 20.703125 139.136719 35.414062 153.84375 35.414062 171.988281 "/>
<path style=" stroke:none;fill-rule:nonzero;fill:rgb(90.6%,14.9%,14.9%);fill-opacity:1;" d="M 214.1875 367.402344 C 214.1875 372.117188 210.367188 375.9375 205.652344 375.9375 C 200.941406 375.9375 197.121094 372.117188 197.121094 367.402344 C 197.121094 362.691406 200.941406 358.871094 205.652344 358.871094 C 210.367188 358.871094 214.1875 362.691406 214.1875 367.402344 "/>
<path style=" stroke:none;fill-rule:nonzero;fill:rgb(90.6%,14.9%,14.9%);fill-opacity:1;" d="M 248.320312 178.816406 C 248.320312 194.839844 235.332031 207.828125 219.308594 207.828125 C 203.285156 207.828125 190.292969 194.839844 190.292969 178.816406 C 190.292969 162.792969 203.285156 149.800781 219.308594 149.800781 C 235.332031 149.800781 248.320312 162.792969 248.320312 178.816406 "/>
<path style=" stroke:none;fill-rule:nonzero;fill:rgb(90.6%,14.9%,14.9%);fill-opacity:1;" d="M 307.625 311.082031 C 307.625 326.398438 295.210938 338.816406 279.894531 338.816406 C 264.578125 338.816406 252.160156 326.398438 252.160156 311.082031 C 252.160156 295.765625 264.578125 283.351562 279.894531 283.351562 C 295.210938 283.351562 307.625 295.765625 307.625 311.082031 "/>
<path style=" stroke:none;fill-rule:nonzero;fill:rgb(100%,100%,100%);fill-opacity:1;" d="M 366.082031 276.523438 C 366.082031 279.367188 361.8125 279.367188 361.8125 276.523438 C 361.8125 273.679688 366.082031 273.679688 366.082031 276.523438 "/>
<path style=" stroke:none;fill-rule:nonzero;fill:rgb(100%,100%,100%);fill-opacity:1;" d="M 389.121094 252.628906 C 389.121094 255.472656 384.855469 255.472656 384.855469 252.628906 C 384.855469 249.785156 389.121094 249.785156 389.121094 252.628906 "/>
<path style=" stroke:none;fill-rule:nonzero;fill:rgb(100%,100%,100%);fill-opacity:1;" d="M 43.09375 135.722656 C 43.09375 138.566406 38.828125 138.566406 38.828125 135.722656 C 38.828125 132.878906 43.09375 132.878906 43.09375 135.722656 "/>
<path style=" stroke:none;fill-rule:nonzero;fill:rgb(100%,100%,100%);fill-opacity:1;" d="M 343.894531 200.574219 C 343.894531 203.421875 339.625 203.421875 339.625 200.574219 C 339.625 197.730469 343.894531 197.730469 343.894531 200.574219 "/>
<path style=" stroke:none;fill-rule:nonzero;fill:rgb(100%,100%,100%);fill-opacity:1;" d="M 190.292969 353.324219 C 190.292969 356.167969 186.027344 356.167969 186.027344 353.324219 C 186.027344 350.480469 190.292969 350.480469 190.292969 353.324219 "/>
<path style=" stroke:none;fill-rule:nonzero;fill:rgb(100%,100%,100%);fill-opacity:1;" d="M 218.027344 268.84375 C 218.027344 271.6875 213.757812 271.6875 213.757812 268.84375 C 213.757812 266 218.027344 266 218.027344 268.84375 "/>
<path style=" stroke:none;fill-rule:nonzero;fill:rgb(100%,100%,100%);fill-opacity:1;" d="M 34.988281 213.375 C 34.988281 216.21875 30.71875 216.21875 30.71875 213.375 C 30.71875 210.53125 34.988281 210.53125 34.988281 213.375 "/>
<path style=" stroke:none;fill-rule:nonzero;fill:rgb(100%,100%,100%);fill-opacity:1;" d="M 183.039062 375.507812 C 183.039062 378.351562 178.773438 378.351562 178.773438 375.507812 C 178.773438 372.664062 183.039062 372.664062 183.039062 375.507812 "/>
<path style=" stroke:none;fill-rule:nonzero;fill:rgb(100%,100%,100%);fill-opacity:1;" d="M 241.492188 280.363281 C 241.492188 283.207031 237.226562 283.207031 237.226562 280.363281 C 237.226562 277.519531 241.492188 277.519531 241.492188 280.363281 "/>
<path style=" stroke:none;fill-rule:nonzero;fill:rgb(100%,100%,100%);fill-opacity:1;" d="M 176.214844 238.121094 C 176.214844 240.96875 171.945312 240.96875 171.945312 238.121094 C 171.945312 235.277344 176.214844 235.277344 176.214844 238.121094 "/>
<path style=" stroke:none;fill-rule:nonzero;fill:rgb(100%,100%,100%);fill-opacity:1;" d="M 79.359375 336.683594 C 79.359375 339.527344 75.09375 339.527344 75.09375 336.683594 C 75.09375 333.839844 79.359375 333.839844 79.359375 336.683594 "/>
<path style=" stroke:none;fill-rule:nonzero;fill:rgb(100%,100%,100%);fill-opacity:1;" d="M 5.972656 225.75 C 5.972656 228.59375 1.707031 228.59375 1.707031 225.75 C 1.707031 222.90625 5.972656 222.90625 5.972656 225.75 "/>
<path style=" stroke:none;fill-rule:nonzero;fill:rgb(100%,100%,100%);fill-opacity:1;" d="M 421.121094 292.308594 C 421.121094 295.152344 416.855469 295.152344 416.855469 292.308594 C 416.855469 289.464844 421.121094 289.464844 421.121094 292.308594 "/>
<path style=" stroke:none;fill-rule:nonzero;fill:rgb(100%,100%,100%);fill-opacity:1;" d="M 509.011719 148.097656 C 509.011719 150.941406 504.746094 150.941406 504.746094 148.097656 C 504.746094 145.25 509.011719 145.25 509.011719 148.097656 "/>
<path style=" stroke:none;fill-rule:nonzero;fill:rgb(100%,100%,100%);fill-opacity:1;" d="M 488.105469 219.777344 C 488.105469 222.621094 483.839844 222.621094 483.839844 219.777344 C 483.839844 216.929688 488.105469 216.929688 488.105469 219.777344 "/>
<path style=" stroke:none;fill-rule:nonzero;fill:rgb(100%,100%,100%);fill-opacity:1;" d="M 414.292969 107.988281 C 414.292969 110.832031 410.027344 110.832031 410.027344 107.988281 C 410.027344 105.144531 414.292969 105.144531 414.292969 107.988281 "/>
<path style=" stroke:none;fill-rule:nonzero;fill:rgb(100%,100%,100%);fill-opacity:1;" d="M 226.132812 503.507812 C 226.132812 506.351562 221.867188 506.351562 221.867188 503.507812 C 221.867188 500.664062 226.132812 500.664062 226.132812 503.507812 "/>
<path style=" stroke:none;fill-rule:nonzero;fill:rgb(100%,100%,100%);fill-opacity:1;" d="M 26.453125 423.296875 C 26.453125 426.140625 22.1875 426.140625 22.1875 423.296875 C 22.1875 420.453125 26.453125 420.453125 26.453125 423.296875 "/>
<path style=" stroke:none;fill-rule:nonzero;fill:rgb(100%,100%,100%);fill-opacity:1;" d="M 479.574219 433.109375 C 479.574219 435.953125 475.308594 435.953125 475.308594 433.109375 C 475.308594 430.265625 479.574219 430.265625 479.574219 433.109375 "/>
<path style=" stroke:none;fill-rule:nonzero;fill:rgb(100%,100%,100%);fill-opacity:1;" d="M 285.441406 106.710938 C 285.441406 109.554688 281.171875 109.554688 281.171875 106.710938 C 281.171875 103.863281 285.441406 103.863281 285.441406 106.710938 "/>
<path style=" stroke:none;fill-rule:nonzero;fill:rgb(100%,100%,100%);fill-opacity:1;" d="M 450.558594 122.070312 C 450.558594 124.914062 446.292969 124.914062 446.292969 122.070312 C 446.292969 119.222656 450.558594 119.222656 450.558594 122.070312 "/>
<path style=" stroke:none;fill-rule:nonzero;fill:rgb(100%,100%,100%);fill-opacity:1;" d="M 388.265625 501.804688 C 388.265625 504.648438 384 504.648438 384 501.804688 C 384 498.957031 388.265625 498.957031 388.265625 501.804688 "/>
<path style=" stroke:none;fill-rule:nonzero;fill:rgb(100%,100%,100%);fill-opacity:1;" d="M 470.1875 110.121094 C 470.1875 112.96875 465.917969 112.96875 465.917969 110.121094 C 465.917969 107.277344 470.1875 107.277344 470.1875 110.121094 "/>
<path style=" stroke:none;fill-rule:nonzero;fill:rgb(100%,100%,100%);fill-opacity:1;" d="M 145.066406 189.484375 C 145.066406 192.328125 140.800781 192.328125 140.800781 189.484375 C 140.800781 186.636719 145.066406 186.636719 145.066406 189.484375 "/>
<path style=" stroke:none;fill-rule:nonzero;fill:rgb(100%,100%,100%);fill-opacity:1;" d="M 514.558594 318.335938 C 514.558594 321.179688 510.292969 321.179688 510.292969 318.335938 C 510.292969 315.492188 514.558594 315.492188 514.558594 318.335938 "/>
<path style=" stroke:none;fill-rule:nonzero;fill:rgb(100%,100%,100%);fill-opacity:1;" d="M 23.894531 394.710938 C 23.894531 397.554688 19.625 397.554688 19.625 394.710938 C 19.625 391.863281 23.894531 391.863281 23.894531 394.710938 "/>
<path style=" stroke:none;fill-rule:nonzero;fill:rgb(100%,100%,100%);fill-opacity:1;" d="M 253.011719 512.042969 C 253.011719 514.886719 248.746094 514.886719 248.746094 512.042969 C 248.746094 509.199219 253.011719 509.199219 253.011719 512.042969 "/>
<path style=" stroke:none;fill-rule:nonzero;fill:rgb(100%,100%,100%);fill-opacity:1;" d="M 91.734375 300.84375 C 91.734375 303.6875 87.464844 303.6875 87.464844 300.84375 C 87.464844 298 91.734375 298 91.734375 300.84375 "/>
<path style=" stroke:none;fill-rule:nonzero;fill:rgb(100%,100%,100%);fill-opacity:1;" d="M 195.414062 113.964844 C 195.414062 116.808594 191.148438 116.808594 191.148438 113.964844 C 191.148438 111.117188 195.414062 111.117188 195.414062 113.964844 "/>
<path style=" stroke:none;fill-rule:nonzero;fill:rgb(100%,100%,100%);fill-opacity:1;" d="M 149.332031 194.175781 C 149.332031 197.019531 145.066406 197.019531 145.066406 194.175781 C 145.066406 191.332031 149.332031 191.332031 149.332031 194.175781 "/>
<path style=" stroke:none;fill-rule:nonzero;fill:rgb(100%,100%,100%);fill-opacity:1;" d="M 412.160156 262.867188 C 412.160156 265.714844 407.894531 265.714844 407.894531 262.867188 C 407.894531 260.023438 412.160156 260.023438 412.160156 262.867188 "/>
<path style=" stroke:none;fill-rule:nonzero;fill:rgb(100%,100%,100%);fill-opacity:1;" d="M 372.480469 169.003906 C 372.480469 171.847656 368.214844 171.847656 368.214844 169.003906 C 368.214844 166.160156 372.480469 166.160156 372.480469 169.003906 "/>
<path style=" stroke:none;fill-rule:nonzero;fill:rgb(100%,100%,100%);fill-opacity:1;" d="M 164.265625 209.964844 C 164.265625 212.808594 160 212.808594 160 209.964844 C 160 207.117188 164.265625 207.117188 164.265625 209.964844 "/>
<path style=" stroke:none;fill-rule:nonzero;fill:rgb(100%,100%,100%);fill-opacity:1;" d="M 53.761719 233.003906 C 53.761719 235.847656 49.492188 235.847656 49.492188 233.003906 C 49.492188 230.160156 53.761719 230.160156 53.761719 233.003906 "/>
<path style=" stroke:none;fill-rule:nonzero;fill:rgb(100%,100%,100%);fill-opacity:1;" d="M 134.398438 165.164062 C 134.398438 168.007812 130.132812 168.007812 130.132812 165.164062 C 130.132812 162.320312 134.398438 162.320312 134.398438 165.164062 "/>
<path style=" stroke:none;fill-rule:nonzero;fill:rgb(100%,100%,100%);fill-opacity:1;" d="M 113.921875 151.082031 C 113.921875 153.925781 109.652344 153.925781 109.652344 151.082031 C 109.652344 148.238281 113.921875 148.238281 113.921875 151.082031 "/>
<path style=" stroke:none;fill-rule:nonzero;fill:rgb(100%,100%,100%);fill-opacity:1;" d="M 16.214844 352.042969 C 16.214844 354.886719 11.945312 354.886719 11.945312 352.042969 C 11.945312 349.199219 16.214844 349.199219 16.214844 352.042969 "/>
<path style=" stroke:none;fill-rule:nonzero;fill:rgb(100%,100%,100%);fill-opacity:1;" d="M 61.441406 300.414062 C 61.441406 303.261719 57.171875 303.261719 57.171875 300.414062 C 57.171875 297.570312 61.441406 297.570312 61.441406 300.414062 "/>
<path style=" stroke:none;fill-rule:nonzero;fill:rgb(100%,100%,100%);fill-opacity:1;" d="M 35.414062 269.695312 C 35.414062 272.539062 31.148438 272.539062 31.148438 269.695312 C 31.148438 266.851562 35.414062 266.851562 35.414062 269.695312 "/>
<path style=" stroke:none;fill-rule:nonzero;fill:rgb(100%,100%,100%);fill-opacity:1;" d="M 67.839844 137.003906 C 67.839844 139.847656 63.574219 139.847656 63.574219 137.003906 C 63.574219 134.160156 67.839844 134.160156 67.839844 137.003906 "/>
<path style=" stroke:none;fill-rule:nonzero;fill:rgb(100%,100%,100%);fill-opacity:1;" d="M 349.867188 503.082031 C 349.867188 505.925781 345.601562 505.925781 345.601562 503.082031 C 345.601562 500.238281 349.867188 500.238281 349.867188 503.082031 "/>
<path style=" stroke:none;fill-rule:nonzero;fill:rgb(100%,100%,100%);fill-opacity:1;" d="M 506.878906 234.710938 C 506.878906 237.554688 502.613281 237.554688 502.613281 234.710938 C 502.613281 231.863281 506.878906 231.863281 506.878906 234.710938 "/>
<path style=" stroke:none;fill-rule:nonzero;fill:rgb(100%,100%,100%);fill-opacity:1;" d="M 37.972656 234.28125 C 37.972656 237.128906 33.707031 237.128906 33.707031 234.28125 C 33.707031 231.4375 37.972656 231.4375 37.972656 234.28125 "/>
<path style=" stroke:none;fill-rule:nonzero;fill:rgb(100%,100%,100%);fill-opacity:1;" d="M 473.601562 452.734375 C 473.601562 455.582031 469.332031 455.582031 469.332031 452.734375 C 469.332031 449.890625 473.601562 449.890625 473.601562 452.734375 "/>
<path style=" stroke:none;fill-rule:nonzero;fill:rgb(100%,100%,100%);fill-opacity:1;" d="M 180.480469 191.617188 C 180.480469 194.460938 176.214844 194.460938 176.214844 191.617188 C 176.214844 188.773438 180.480469 188.773438 180.480469 191.617188 "/>
<path style=" stroke:none;fill-rule:nonzero;fill:rgb(100%,100%,100%);fill-opacity:1;" d="M 347.304688 252.203125 C 347.304688 255.046875 343.039062 255.046875 343.039062 252.203125 C 343.039062 249.359375 347.304688 249.359375 347.304688 252.203125 "/>
<path style=" stroke:none;fill-rule:nonzero;fill:rgb(100%,100%,100%);fill-opacity:1;" d="M 386.558594 126.335938 C 386.558594 129.179688 382.292969 129.179688 382.292969 126.335938 C 382.292969 123.492188 386.558594 123.492188 386.558594 126.335938 "/>
<path style=" stroke:none;fill-rule:nonzero;fill:rgb(100%,100%,100%);fill-opacity:1;" d="M 392.535156 158.335938 C 392.535156 161.179688 388.265625 161.179688 388.265625 158.335938 C 388.265625 155.492188 392.535156 155.492188 392.535156 158.335938 "/>
<path style=" stroke:none;fill-rule:nonzero;fill:rgb(100%,84.3%,0%);fill-opacity:1;" d="M 52.867188 393.867188 C 52.867188 396.710938 48.601562 396.710938 48.601562 393.867188 C 48.601562 391.023438 52.867188 391.023438 52.867188 393.867188 "/>
<path style=" stroke:none;fill-rule:nonzero;fill:rgb(100%,84.3%,0%);fill-opacity:1;" d="M 463.5 433.054688 C 463.5 435.902344 459.230469 435.902344 459.230469 433.054688 C 459.230469 430.210938 463.5 430.210938 463.5 433.054688 "/>
<path style=" stroke:none;fill-rule:nonzero;fill:rgb(100%,84.3%,0%);fill-opacity:1;" d="M 283.773438 494.710938 C 283.773438 497.554688 279.507812 497.554688 279.507812 494.710938 C 279.507812 491.867188 283.773438 491.867188 283.773438 494.710938 "/>
<path style=" stroke:none;fill-rule:nonzero;fill:rgb(100%,84.3%,0%);fill-opacity:1;" d="M 467.199219 458.90625 C 467.199219 461.75 462.933594 461.75 462.933594 458.90625 C 462.933594 456.0625 467.199219 456.0625 467.199219 458.90625 "/>
<path style=" stroke:none;fill-rule:nonzero;fill:rgb(100%,84.3%,0%);fill-opacity:1;" d="M 182.472656 494.917969 C 182.472656 497.761719 178.207031 497.761719 178.207031 494.917969 C 178.207031 492.074219 182.472656 492.074219 182.472656 494.917969 "/>
<path style=" stroke:none;fill-rule:nonzero;fill:rgb(100%,84.3%,0%);fill-opacity:1;" d="M 269.667969 495.351562 C 269.667969 498.199219 265.402344 498.199219 265.402344 495.351562 C 265.402344 492.507812 269.667969 492.507812 269.667969 495.351562 "/>
<path style=" stroke:none;fill-rule:nonzero;fill:rgb(100%,84.3%,0%);fill-opacity:1;" d="M 185.183594 380.628906 C 185.183594 383.472656 180.917969 383.472656 180.917969 380.628906 C 180.917969 377.785156 185.183594 377.785156 185.183594 380.628906 "/>
<path style=" stroke:none;fill-rule:nonzero;fill:rgb(100%,84.3%,0%);fill-opacity:1;" d="M 221.128906 495.402344 C 221.128906 498.246094 216.859375 498.246094 216.859375 495.402344 C 216.859375 492.558594 221.128906 492.558594 221.128906 495.402344 "/>
<path style=" stroke:none;fill-rule:nonzero;fill:rgb(100%,84.3%,0%);fill-opacity:1;" d="M 186.714844 495.402344 C 186.714844 498.246094 182.445312 498.246094 182.445312 495.402344 C 182.445312 492.558594 186.714844 492.558594 186.714844 495.402344 "/>
<path style=" stroke:none;fill-rule:nonzero;fill:rgb(100%,84.3%,0%);fill-opacity:1;" d="M 64.175781 494.839844 C 64.175781 497.683594 59.910156 497.683594 59.910156 494.839844 C 59.910156 491.992188 64.175781 491.992188 64.175781 494.839844 "/>
<path style=" stroke:none;fill-rule:nonzero;fill:rgb(100%,84.3%,0%);fill-opacity:1;" d="M 99.386719 495.402344 C 99.386719 498.246094 95.121094 498.246094 95.121094 495.402344 C 95.121094 492.558594 99.386719 492.558594 99.386719 495.402344 "/>
<path style=" stroke:none;fill-rule:nonzero;fill:rgb(100%,84.3%,0%);fill-opacity:1;" d="M 409.355469 495.382812 C 409.355469 498.226562 405.089844 498.226562 405.089844 495.382812 C 405.089844 492.535156 409.355469 492.535156 409.355469 495.382812 "/>
<path style=" stroke:none;fill-rule:nonzero;fill:rgb(100%,84.3%,0%);fill-opacity:1;" d="M 273.921875 494.988281 C 273.921875 497.832031 269.652344 497.832031 269.652344 494.988281 C 269.652344 492.144531 273.921875 492.144531 273.921875 494.988281 "/>
<path style=" stroke:none;fill-rule:nonzero;fill:rgb(100%,84.3%,0%);fill-opacity:1;" d="M 103.230469 492.535156 C 103.230469 495.382812 98.960938 495.382812 98.960938 492.535156 C 98.960938 489.691406 103.230469 489.691406 103.230469 492.535156 "/>
<path style=" stroke:none;fill-rule:nonzero;fill:rgb(100%,84.3%,0%);fill-opacity:1;" d="M 77.972656 380.628906 C 77.972656 383.472656 73.707031 383.472656 73.707031 380.628906 C 73.707031 377.785156 77.972656 377.785156 77.972656 380.628906 "/>
<path style=" stroke:none;fill-rule:nonzero;fill:rgb(100%,84.3%,0%);fill-opacity:1;" d="M 49.066406 396.113281 C 49.066406 398.957031 44.800781 398.957031 44.800781 396.113281 C 44.800781 393.265625 49.066406 393.265625 49.066406 396.113281 "/>
<path style=" stroke:none;fill-rule:nonzero;fill:rgb(100%,84.3%,0%);fill-opacity:1;" d="M 52.859375 424.566406 C 52.859375 427.410156 48.589844 427.410156 48.589844 424.566406 C 48.589844 421.722656 52.859375 421.722656 52.859375 424.566406 "/>
<path style=" stroke:none;fill-rule:nonzero;fill:rgb(100%,84.3%,0%);fill-opacity:1;" d="M 153.617188 495.027344 C 153.617188 497.871094 149.347656 497.871094 149.347656 495.027344 C 149.347656 492.179688 153.617188 492.179688 153.617188 495.027344 "/>
<path style=" stroke:none;fill-rule:nonzero;fill:rgb(100%,84.3%,0%);fill-opacity:1;" d="M 83.050781 495.019531 C 83.050781 497.863281 78.78125 497.863281 78.78125 495.019531 C 78.78125 492.175781 83.050781 492.175781 83.050781 495.019531 "/>
<path style=" stroke:none;fill-rule:nonzero;fill:rgb(100%,84.3%,0%);fill-opacity:1;" d="M 50.753906 448.613281 C 50.753906 451.460938 46.488281 451.460938 46.488281 448.613281 C 46.488281 445.769531 50.753906 445.769531 50.753906 448.613281 "/>
<path style=" stroke:none;fill-rule:nonzero;fill:rgb(100%,84.3%,0%);fill-opacity:1;" d="M 368.035156 495.402344 C 368.035156 498.246094 363.769531 498.246094 363.769531 495.402344 C 363.769531 492.558594 368.035156 492.558594 368.035156 495.402344 "/>
<path style=" stroke:none;fill-rule:nonzero;fill:rgb(100%,84.3%,0%);fill-opacity:1;" d="M 265.402344 495.402344 C 265.402344 498.246094 261.136719 498.246094 261.136719 495.402344 C 261.136719 492.558594 265.402344 492.558594 265.402344 495.402344 "/>
<path style=" stroke:none;fill-rule:nonzero;fill:rgb(100%,84.3%,0%);fill-opacity:1;" d="M 467.199219 430.933594 C 467.199219 433.78125 462.933594 433.78125 462.933594 430.933594 C 462.933594 428.089844 467.199219 428.089844 467.199219 430.933594 "/>
<path style=" stroke:none;fill-rule:nonzero;fill:rgb(100%,84.3%,0%);fill-opacity:1;" d="M 243.054688 490.128906 C 243.054688 492.972656 238.789062 492.972656 238.789062 490.128906 C 238.789062 487.285156 243.054688 487.285156 243.054688 490.128906 "/>
<path style=" stroke:none;fill-rule:nonzero;fill:rgb(100%,84.3%,0%);fill-opacity:1;" d="M 49.066406 426.523438 C 49.066406 429.367188 44.800781 429.367188 44.800781 426.523438 C 44.800781 423.675781 49.066406 423.675781 49.066406 426.523438 "/>
<path style=" stroke:none;fill-rule:nonzero;fill:rgb(100%,84.3%,0%);fill-opacity:1;" d="M 467.199219 399.800781 C 467.199219 402.644531 462.933594 402.644531 462.933594 399.800781 C 462.933594 396.953125 467.199219 396.953125 467.199219 399.800781 "/>
<path style=" stroke:none;fill-rule:nonzero;fill:rgb(100%,84.3%,0%);fill-opacity:1;" d="M 346.277344 491.246094 C 346.277344 494.09375 342.011719 494.09375 342.011719 491.246094 C 342.011719 488.402344 346.277344 488.402344 346.277344 491.246094 "/>
<path style=" stroke:none;fill-rule:nonzero;fill:rgb(100%,84.3%,0%);fill-opacity:1;" d="M 397.683594 495.039062 C 397.683594 497.882812 393.414062 497.882812 393.414062 495.039062 C 393.414062 492.195312 397.683594 492.195312 397.683594 495.039062 "/>
<path style=" stroke:none;fill-rule:nonzero;fill:rgb(100%,84.3%,0%);fill-opacity:1;" d="M 50.179688 408.84375 C 50.179688 411.6875 45.910156 411.6875 45.910156 408.84375 C 45.910156 406 50.179688 406 50.179688 408.84375 "/>
<path style=" stroke:none;fill-rule:nonzero;fill:rgb(100%,84.3%,0%);fill-opacity:1;" d="M 49.066406 443.539062 C 49.066406 446.382812 44.800781 446.382812 44.800781 443.539062 C 44.800781 440.695312 49.066406 440.695312 49.066406 443.539062 "/>
<path style=" stroke:none;fill-rule:nonzero;fill:rgb(100%,84.3%,0%);fill-opacity:1;" d="M 171.144531 495.402344 C 171.144531 498.246094 166.878906 498.246094 166.878906 495.402344 C 166.878906 492.558594 171.144531 492.558594 171.144531 495.402344 "/>
<path style=" stroke:none;fill-rule:nonzero;fill:rgb(100%,84.3%,0%);fill-opacity:1;" d="M 465.132812 480.757812 C 465.132812 483.601562 460.867188 483.601562 460.867188 480.757812 C 460.867188 477.914062 465.132812 477.914062 465.132812 480.757812 "/>
<path style=" stroke:none;fill-rule:nonzero;fill:rgb(100%,84.3%,0%);fill-opacity:1;" d="M 54.132812 380.628906 C 54.132812 383.472656 49.863281 383.472656 49.863281 380.628906 C 49.863281 377.785156 54.132812 377.785156 54.132812 380.628906 "/>
<path style=" stroke:none;fill-rule:nonzero;fill:rgb(100%,84.3%,0%);fill-opacity:1;" d="M 49.667969 464.144531 C 49.667969 466.992188 45.402344 466.992188 45.402344 464.144531 C 45.402344 461.300781 49.667969 461.300781 49.667969 464.144531 "/>
<path style=" stroke:none;fill-rule:nonzero;fill:rgb(100%,84.3%,0%);fill-opacity:1;" d="M 466.742188 419.570312 C 466.742188 422.417969 462.476562 422.417969 462.476562 419.570312 C 462.476562 416.726562 466.742188 416.726562 466.742188 419.570312 "/>
<path style=" stroke:none;fill-rule:nonzero;fill:rgb(100%,84.3%,0%);fill-opacity:1;" d="M 341.042969 495.304688 C 341.042969 498.148438 336.777344 498.148438 336.777344 495.304688 C 336.777344 492.460938 341.042969 492.460938 341.042969 495.304688 "/>
<path style=" stroke:none;fill-rule:nonzero;fill:rgb(100%,84.3%,0%);fill-opacity:1;" d="M 201.222656 383.199219 C 201.222656 386.046875 196.957031 386.046875 196.957031 383.199219 C 196.957031 380.355469 201.222656 380.355469 201.222656 383.199219 "/>
<path style=" stroke:none;fill-rule:nonzero;fill:rgb(100%,84.3%,0%);fill-opacity:1;" d="M 249.75 495.402344 C 249.75 498.246094 245.484375 498.246094 245.484375 495.402344 C 245.484375 492.558594 249.75 492.558594 249.75 495.402344 "/>
<path style=" stroke:none;fill-rule:nonzero;fill:rgb(100%,84.3%,0%);fill-opacity:1;" d="M 380.101562 495.203125 C 380.101562 498.046875 375.835938 498.046875 375.835938 495.203125 C 375.835938 492.359375 380.101562 492.359375 380.101562 495.203125 "/>
<path style=" stroke:none;fill-rule:nonzero;fill:rgb(100%,84.3%,0%);fill-opacity:1;" d="M 149.417969 380.773438 C 149.417969 383.617188 145.148438 383.617188 145.148438 380.773438 C 145.148438 377.929688 149.417969 377.929688 149.417969 380.773438 "/>
<path style=" stroke:none;fill-rule:nonzero;fill:rgb(100%,84.3%,0%);fill-opacity:1;" d="M 191.597656 494.230469 C 191.597656 497.074219 187.332031 497.074219 187.332031 494.230469 C 187.332031 491.382812 191.597656 491.382812 191.597656 494.230469 "/>
<path style=" stroke:none;fill-rule:nonzero;fill:rgb(100%,84.3%,0%);fill-opacity:1;" d="M 331.476562 495.402344 C 331.476562 498.246094 327.210938 498.246094 327.210938 495.402344 C 327.210938 492.558594 331.476562 492.558594 331.476562 495.402344 "/>
<path style=" stroke:none;fill-rule:nonzero;fill:rgb(100%,84.3%,0%);fill-opacity:1;" d="M 139.710938 495.121094 C 139.710938 497.964844 135.441406 497.964844 135.441406 495.121094 C 135.441406 492.277344 139.710938 492.277344 139.710938 495.121094 "/>
<path style=" stroke:none;fill-rule:nonzero;fill:rgb(100%,84.3%,0%);fill-opacity:1;" d="M 70.203125 382.023438 C 70.203125 384.871094 65.9375 384.871094 65.9375 382.023438 C 65.9375 379.179688 70.203125 379.179688 70.203125 382.023438 "/>
<path style=" stroke:none;fill-rule:nonzero;fill:rgb(100%,84.3%,0%);fill-opacity:1;" d="M 164.320312 380.628906 C 164.320312 383.472656 160.054688 383.472656 160.054688 380.628906 C 160.054688 377.785156 164.320312 377.785156 164.320312 380.628906 "/>
<path style=" stroke:none;fill-rule:nonzero;fill:rgb(100%,84.3%,0%);fill-opacity:1;" d="M 172.40625 380.628906 C 172.40625 383.472656 168.140625 383.472656 168.140625 380.628906 C 168.140625 377.785156 172.40625 377.785156 172.40625 380.628906 "/>
<path style=" stroke:none;fill-rule:nonzero;fill:rgb(100%,84.3%,0%);fill-opacity:1;" d="M 225.613281 495.335938 C 225.613281 498.179688 221.34375 498.179688 221.34375 495.335938 C 221.34375 492.492188 225.613281 492.492188 225.613281 495.335938 "/>
<path style=" stroke:none;fill-rule:nonzero;fill:rgb(100%,84.3%,0%);fill-opacity:1;" d="M 50.304688 435.109375 C 50.304688 437.953125 46.039062 437.953125 46.039062 435.109375 C 46.039062 432.261719 50.304688 432.261719 50.304688 435.109375 "/>
<path style=" stroke:none;fill-rule:nonzero;fill:rgb(100%,84.3%,0%);fill-opacity:1;" d="M 49.066406 380.632812 C 49.066406 383.476562 44.800781 383.476562 44.800781 380.632812 C 44.800781 377.789062 49.066406 377.789062 49.066406 380.632812 "/>
<path style=" stroke:none;fill-rule:nonzero;fill:rgb(100%,84.3%,0%);fill-opacity:1;" d="M 197.820312 380.628906 C 197.820312 383.472656 193.554688 383.472656 193.554688 380.628906 C 193.554688 377.785156 197.820312 377.785156 197.820312 380.628906 "/>
<path style=" stroke:none;fill-rule:nonzero;fill:rgb(100%,84.3%,0%);fill-opacity:1;" d="M 68.628906 493.996094 C 68.628906 496.84375 64.359375 496.84375 64.359375 493.996094 C 64.359375 491.152344 68.628906 491.152344 68.628906 493.996094 "/>
<path style=" stroke:none;fill-rule:nonzero;fill:rgb(100%,84.3%,0%);fill-opacity:1;" d="M 49.066406 413.539062 C 49.066406 416.382812 44.800781 416.382812 44.800781 413.539062 C 44.800781 410.695312 49.066406 410.695312 49.066406 413.539062 "/>
<path style=" stroke:none;fill-rule:nonzero;fill:rgb(100%,84.3%,0%);fill-opacity:1;" d="M 323.957031 495.398438 C 323.957031 498.242188 319.691406 498.242188 319.691406 495.398438 C 319.691406 492.550781 323.957031 492.550781 323.957031 495.398438 "/>
<path style=" stroke:none;fill-rule:nonzero;fill:rgb(100%,84.3%,0%);fill-opacity:1;" d="M 384.367188 495.402344 C 384.367188 498.246094 380.097656 498.246094 380.097656 495.402344 C 380.097656 492.558594 384.367188 492.558594 384.367188 495.402344 "/>
<path style=" stroke:none;fill-rule:nonzero;fill:rgb(100%,84.3%,0%);fill-opacity:1;" d="M 254 494.992188 C 254 497.835938 249.734375 497.835938 249.734375 494.992188 C 249.734375 492.148438 254 492.148438 254 494.992188 "/>
<path style=" stroke:none;fill-rule:nonzero;fill:rgb(100%,84.3%,0%);fill-opacity:1;" d="M 162.527344 495.007812 C 162.527344 497.851562 158.261719 497.851562 158.261719 495.007812 C 158.261719 492.164062 162.527344 492.164062 162.527344 495.007812 "/>
<path style=" stroke:none;fill-rule:nonzero;fill:rgb(100%,84.3%,0%);fill-opacity:1;" d="M 198.574219 491.347656 C 198.574219 494.195312 194.304688 494.195312 194.304688 491.347656 C 194.304688 488.503906 198.574219 488.503906 198.574219 491.347656 "/>
<path style=" stroke:none;fill-rule:nonzero;fill:rgb(100%,84.3%,0%);fill-opacity:1;" d="M 467.199219 477.027344 C 467.199219 479.871094 462.933594 479.871094 462.933594 477.027344 C 462.933594 474.179688 467.199219 474.179688 467.199219 477.027344 "/>
<path style=" stroke:none;fill-rule:nonzero;fill:rgb(100%,84.3%,0%);fill-opacity:1;" d="M 464.65625 427.507812 C 464.65625 430.351562 460.390625 430.351562 460.390625 427.507812 C 460.390625 424.664062 464.65625 424.664062 464.65625 427.507812 "/>
<path style=" stroke:none;fill-rule:nonzero;fill:rgb(100%,84.3%,0%);fill-opacity:1;" d="M 128.894531 495.273438 C 128.894531 498.117188 124.628906 498.117188 124.628906 495.273438 C 124.628906 492.429688 128.894531 492.429688 128.894531 495.273438 "/>
<path style=" stroke:none;fill-rule:nonzero;fill:rgb(100%,84.3%,0%);fill-opacity:1;" d="M 49.070312 495.402344 C 49.070312 498.246094 44.804688 498.246094 44.804688 495.402344 C 44.804688 492.558594 49.070312 492.558594 49.070312 495.402344 "/>
<path style=" stroke:none;fill-rule:nonzero;fill:rgb(100%,84.3%,0%);fill-opacity:1;" d="M 49.117188 391.832031 C 49.117188 394.675781 44.851562 394.675781 44.851562 391.832031 C 44.851562 388.988281 49.117188 388.988281 49.117188 391.832031 "/>
<path style=" stroke:none;fill-rule:nonzero;fill:rgb(100%,84.3%,0%);fill-opacity:1;" d="M 123.050781 495.402344 C 123.050781 498.246094 118.78125 498.246094 118.78125 495.402344 C 118.78125 492.558594 123.050781 492.558594 123.050781 495.402344 "/>
<path style=" stroke:none;fill-rule:nonzero;fill:rgb(100%,84.3%,0%);fill-opacity:1;" d="M 300.550781 493.332031 C 300.550781 496.175781 296.285156 496.175781 296.285156 493.332031 C 296.285156 490.488281 300.550781 490.488281 300.550781 493.332031 "/>
<path style=" stroke:none;fill-rule:nonzero;fill:rgb(100%,84.3%,0%);fill-opacity:1;" d="M 99.714844 489.289062 C 99.714844 492.136719 95.449219 492.136719 95.449219 489.289062 C 95.449219 486.445312 99.714844 486.445312 99.714844 489.289062 "/>
<path style=" stroke:none;fill-rule:nonzero;fill:rgb(100%,84.3%,0%);fill-opacity:1;" d="M 207.640625 495.402344 C 207.640625 498.246094 203.375 498.246094 203.375 495.402344 C 203.375 492.558594 207.640625 492.558594 207.640625 495.402344 "/>
<path style=" stroke:none;fill-rule:nonzero;fill:rgb(100%,84.3%,0%);fill-opacity:1;" d="M 313.71875 495.402344 C 313.71875 498.246094 309.453125 498.246094 309.453125 495.402344 C 309.453125 492.558594 313.71875 492.558594 313.71875 495.402344 "/>
<path style=" stroke:none;fill-rule:nonzero;fill:rgb(100%,84.3%,0%);fill-opacity:1;" d="M 349.765625 495.394531 C 349.765625 498.238281 345.496094 498.238281 345.496094 495.394531 C 345.496094 492.550781 349.765625 492.550781 349.765625 495.394531 "/>
<path style=" stroke:none;fill-rule:nonzero;fill:rgb(100%,84.3%,0%);fill-opacity:1;" d="M 113.433594 491.835938 C 113.433594 494.679688 109.167969 494.679688 109.167969 491.835938 C 109.167969 488.988281 113.433594 488.988281 113.433594 491.835938 "/>
<path style=" stroke:none;fill-rule:nonzero;fill:rgb(100%,84.3%,0%);fill-opacity:1;" d="M 206.976562 489.765625 C 206.976562 492.609375 202.710938 492.609375 202.710938 489.765625 C 202.710938 486.917969 206.976562 486.917969 206.976562 489.765625 "/>
<path style=" stroke:none;fill-rule:nonzero;fill:rgb(100%,84.3%,0%);fill-opacity:1;" d="M 459.148438 492.726562 C 459.148438 495.574219 454.882812 495.574219 454.882812 492.726562 C 454.882812 489.882812 459.148438 489.882812 459.148438 492.726562 "/>
<path style=" stroke:none;fill-rule:nonzero;fill:rgb(100%,84.3%,0%);fill-opacity:1;" d="M 467.199219 382.945312 C 467.199219 385.789062 462.933594 385.789062 462.933594 382.945312 C 462.933594 380.101562 467.199219 380.101562 467.199219 382.945312 "/>
<path style=" stroke:none;fill-rule:nonzero;fill:rgb(100%,84.3%,0%);fill-opacity:1;" d="M 106.390625 495.402344 C 106.390625 498.246094 102.125 498.246094 102.125 495.402344 C 102.125 492.558594 106.390625 492.558594 106.390625 495.402344 "/>
<path style=" stroke:none;fill-rule:nonzero;fill:rgb(100%,84.3%,0%);fill-opacity:1;" d="M 189.363281 381.492188 C 189.363281 384.335938 185.09375 384.335938 185.09375 381.492188 C 185.09375 378.648438 189.363281 378.648438 189.363281 381.492188 "/>
<path style=" stroke:none;fill-rule:nonzero;fill:rgb(100%,84.3%,0%);fill-opacity:1;" d="M 87.308594 495.242188 C 87.308594 498.085938 83.042969 498.085938 83.042969 495.242188 C 83.042969 492.398438 87.308594 492.398438 87.308594 495.242188 "/>
<path style=" stroke:none;fill-rule:nonzero;fill:rgb(100%,84.3%,0%);fill-opacity:1;" d="M 91.574219 495.402344 C 91.574219 498.246094 87.308594 498.246094 87.308594 495.402344 C 87.308594 492.558594 91.574219 492.558594 91.574219 495.402344 "/>
<path style=" stroke:none;fill-rule:nonzero;fill:rgb(100%,84.3%,0%);fill-opacity:1;" d="M 345.308594 495.402344 C 345.308594 498.246094 341.042969 498.246094 341.042969 495.402344 C 341.042969 492.558594 345.308594 492.558594 345.308594 495.402344 "/>
<path style=" stroke:none;fill-rule:nonzero;fill:rgb(100%,84.3%,0%);fill-opacity:1;" d="M 467.199219 446.089844 C 467.199219 448.933594 462.933594 448.933594 462.933594 446.089844 C 462.933594 443.246094 467.199219 443.246094 467.199219 446.089844 "/>
<path style=" stroke:none;fill-rule:nonzero;fill:rgb(100%,84.3%,0%);fill-opacity:1;" d="M 256.835938 491.390625 C 256.835938 494.238281 252.570312 494.238281 252.570312 491.390625 C 252.570312 488.546875 256.835938 488.546875 256.835938 491.390625 "/>
<path style=" stroke:none;fill-rule:nonzero;fill:rgb(100%,84.3%,0%);fill-opacity:1;" d="M 467.105469 463.171875 C 467.105469 466.015625 462.835938 466.015625 462.835938 463.171875 C 462.835938 460.328125 467.105469 460.328125 467.105469 463.171875 "/>
<path style=" stroke:none;fill-rule:nonzero;fill:rgb(100%,84.3%,0%);fill-opacity:1;" d="M 467.191406 411.058594 C 467.191406 413.902344 462.925781 413.902344 462.925781 411.058594 C 462.925781 408.214844 467.191406 408.214844 467.191406 411.058594 "/>
<path style=" stroke:none;fill-rule:nonzero;fill:rgb(100%,84.3%,0%);fill-opacity:1;" d="M 265.566406 490.957031 C 265.566406 493.800781 261.300781 493.800781 261.300781 490.957031 C 261.300781 488.113281 265.566406 488.113281 265.566406 490.957031 "/>
<path style=" stroke:none;fill-rule:nonzero;fill:rgb(100%,84.3%,0%);fill-opacity:1;" d="M 251.621094 491.449219 C 251.621094 494.296875 247.355469 494.296875 247.355469 491.449219 C 247.355469 488.605469 251.621094 488.605469 251.621094 491.449219 "/>
<path style=" stroke:none;fill-rule:nonzero;fill:rgb(100%,84.3%,0%);fill-opacity:1;" d="M 353.105469 491.273438 C 353.105469 494.121094 348.839844 494.121094 348.839844 491.273438 C 348.839844 488.429688 353.105469 488.429688 353.105469 491.273438 "/>
<path style=" stroke:none;fill-rule:nonzero;fill:rgb(100%,84.3%,0%);fill-opacity:1;" d="M 462.414062 423.878906 C 462.414062 426.722656 458.148438 426.722656 458.148438 423.878906 C 458.148438 421.035156 462.414062 421.035156 462.414062 423.878906 "/>
<path style=" stroke:none;fill-rule:nonzero;fill:rgb(100%,84.3%,0%);fill-opacity:1;" d="M 467.199219 435.203125 C 467.199219 438.046875 462.933594 438.046875 462.933594 435.203125 C 462.933594 432.359375 467.199219 432.359375 467.199219 435.203125 "/>
<path style=" stroke:none;fill-rule:nonzero;fill:rgb(100%,84.3%,0%);fill-opacity:1;" d="M 467.199219 405.925781 C 467.199219 408.769531 462.933594 408.769531 462.933594 405.925781 C 462.933594 403.082031 467.199219 403.082031 467.199219 405.925781 "/>
<path style=" stroke:none;fill-rule:nonzero;fill:rgb(100%,84.3%,0%);fill-opacity:1;" d="M 49.066406 431.023438 C 49.066406 433.871094 44.800781 433.871094 44.800781 431.023438 C 44.800781 428.179688 49.066406 428.179688 49.066406 431.023438 "/>
<path style=" stroke:none;fill-rule:nonzero;fill:rgb(100%,84.3%,0%);fill-opacity:1;" d="M 388.773438 495.382812 C 388.773438 498.226562 384.507812 498.226562 384.507812 495.382812 C 384.507812 492.539062 388.773438 492.539062 388.773438 495.382812 "/>
<path style=" stroke:none;fill-rule:nonzero;fill:rgb(100%,84.3%,0%);fill-opacity:1;" d="M 463.683594 484.773438 C 463.683594 487.617188 459.417969 487.617188 459.417969 484.773438 C 459.417969 481.925781 463.683594 481.925781 463.683594 484.773438 "/>
<path style=" stroke:none;fill-rule:nonzero;fill:rgb(100%,84.3%,0%);fill-opacity:1;" d="M 336.777344 495.304688 C 336.777344 498.148438 332.507812 498.148438 332.507812 495.304688 C 332.507812 492.460938 336.777344 492.460938 336.777344 495.304688 "/>
<path style=" stroke:none;fill-rule:nonzero;fill:rgb(100%,84.3%,0%);fill-opacity:1;" d="M 261.835938 493.027344 C 261.835938 495.871094 257.570312 495.871094 257.570312 493.027344 C 257.570312 490.183594 261.835938 490.183594 261.835938 493.027344 "/>
<path style=" stroke:none;fill-rule:nonzero;fill:rgb(100%,84.3%,0%);fill-opacity:1;" d="M 53.207031 493.738281 C 53.207031 496.582031 48.941406 496.582031 48.941406 493.738281 C 48.941406 490.894531 53.207031 490.894531 53.207031 493.738281 "/>
<path style=" stroke:none;fill-rule:nonzero;fill:rgb(100%,84.3%,0%);fill-opacity:1;" d="M 467.199219 450.355469 C 467.199219 453.203125 462.933594 453.203125 462.933594 450.355469 C 462.933594 447.511719 467.199219 447.511719 467.199219 450.355469 "/>
<path style=" stroke:none;fill-rule:nonzero;fill:rgb(100%,84.3%,0%);fill-opacity:1;" d="M 54.316406 414.046875 C 54.316406 416.890625 50.050781 416.890625 50.050781 414.046875 C 50.050781 411.203125 54.316406 411.203125 54.316406 414.046875 "/>
<path style=" stroke:none;fill-rule:nonzero;fill:rgb(100%,84.3%,0%);fill-opacity:1;" d="M 229.953125 495.402344 C 229.953125 498.246094 225.683594 498.246094 225.683594 495.402344 C 225.683594 492.558594 229.953125 492.558594 229.953125 495.402344 "/>
<path style=" stroke:none;fill-rule:nonzero;fill:rgb(100%,84.3%,0%);fill-opacity:1;" d="M 57.363281 494.703125 C 57.363281 497.550781 53.09375 497.550781 53.09375 494.703125 C 53.09375 491.859375 57.363281 491.859375 57.363281 494.703125 "/>
<path style=" stroke:none;fill-rule:nonzero;fill:rgb(100%,84.3%,0%);fill-opacity:1;" d="M 278.1875 495.402344 C 278.1875 498.246094 273.921875 498.246094 273.921875 495.402344 C 273.921875 492.558594 278.1875 492.558594 278.1875 495.402344 "/>
<path style=" stroke:none;fill-rule:nonzero;fill:rgb(100%,84.3%,0%);fill-opacity:1;" d="M 200.574219 495.402344 C 200.574219 498.246094 196.308594 498.246094 196.308594 495.402344 C 196.308594 492.558594 200.574219 492.558594 200.574219 495.402344 "/>
<path style=" stroke:none;fill-rule:nonzero;fill:rgb(100%,84.3%,0%);fill-opacity:1;" d="M 203.738281 492.539062 C 203.738281 495.382812 199.46875 495.382812 199.46875 492.539062 C 199.46875 489.695312 203.738281 489.695312 203.738281 492.539062 "/>
<path style=" stroke:none;fill-rule:nonzero;fill:rgb(100%,84.3%,0%);fill-opacity:1;" d="M 212.238281 490.757812 C 212.238281 493.601562 207.972656 493.601562 207.972656 490.757812 C 207.972656 487.914062 212.238281 487.914062 212.238281 490.757812 "/>
<path style=" stroke:none;fill-rule:nonzero;fill:rgb(100%,84.3%,0%);fill-opacity:1;" d="M 176.660156 380.949219 C 176.660156 383.792969 172.394531 383.792969 172.394531 380.949219 C 172.394531 378.105469 176.660156 378.105469 176.660156 380.949219 "/>
<path style=" stroke:none;fill-rule:nonzero;fill:rgb(100%,84.3%,0%);fill-opacity:1;" d="M 195.84375 494.628906 C 195.84375 497.472656 191.578125 497.472656 191.578125 494.628906 C 191.578125 491.785156 195.84375 491.785156 195.84375 494.628906 "/>
<path style=" stroke:none;fill-rule:nonzero;fill:rgb(100%,84.3%,0%);fill-opacity:1;" d="M 246.527344 492.609375 C 246.527344 495.453125 242.261719 495.453125 242.261719 492.609375 C 242.261719 489.761719 246.527344 489.761719 246.527344 492.609375 "/>
<path style=" stroke:none;fill-rule:nonzero;fill:rgb(100%,84.3%,0%);fill-opacity:1;" d="M 362.71875 495.335938 C 362.71875 498.179688 358.453125 498.179688 358.453125 495.335938 C 358.453125 492.488281 362.71875 492.488281 362.71875 495.335938 "/>
<path style=" stroke:none;fill-rule:nonzero;fill:rgb(100%,84.3%,0%);fill-opacity:1;" d="M 183.058594 384.328125 C 183.058594 387.171875 178.789062 387.171875 178.789062 384.328125 C 178.789062 381.484375 183.058594 381.484375 183.058594 384.328125 "/>
<path style=" stroke:none;fill-rule:nonzero;fill:rgb(100%,84.3%,0%);fill-opacity:1;" d="M 53.164062 429.828125 C 53.164062 432.675781 48.894531 432.675781 48.894531 429.828125 C 48.894531 426.984375 53.164062 426.984375 53.164062 429.828125 "/>
<path style=" stroke:none;fill-rule:nonzero;fill:rgb(100%,84.3%,0%);fill-opacity:1;" d="M 258.292969 495.402344 C 258.292969 498.246094 254.027344 498.246094 254.027344 495.402344 C 254.027344 492.558594 258.292969 492.558594 258.292969 495.402344 "/>
<path style=" stroke:none;fill-rule:nonzero;fill:rgb(100%,84.3%,0%);fill-opacity:1;" d="M 110.65625 495.351562 C 110.65625 498.195312 106.390625 498.195312 106.390625 495.351562 C 106.390625 492.507812 110.65625 492.507812 110.65625 495.351562 "/>
<path style=" stroke:none;fill-rule:nonzero;fill:rgb(100%,84.3%,0%);fill-opacity:1;" d="M 166.78125 495.351562 C 166.78125 498.195312 162.511719 498.195312 162.511719 495.351562 C 162.511719 492.507812 166.78125 492.507812 166.78125 495.351562 "/>
<path style=" stroke:none;fill-rule:nonzero;fill:rgb(100%,84.3%,0%);fill-opacity:1;" d="M 354.1875 495.402344 C 354.1875 498.246094 349.917969 498.246094 349.917969 495.402344 C 349.917969 492.558594 354.1875 492.558594 354.1875 495.402344 "/>
<path style=" stroke:none;fill-rule:nonzero;fill:rgb(100%,84.3%,0%);fill-opacity:1;" d="M 234.21875 495.402344 C 234.21875 498.246094 229.949219 498.246094 229.949219 495.402344 C 229.949219 492.558594 234.21875 492.558594 234.21875 495.402344 "/>
<path style=" stroke:none;fill-rule:nonzero;fill:rgb(100%,84.3%,0%);fill-opacity:1;" d="M 393.429688 495.402344 C 393.429688 498.246094 389.164062 498.246094 389.164062 495.402344 C 389.164062 492.558594 393.429688 492.558594 393.429688 495.402344 "/>
<path style=" stroke:none;fill-rule:nonzero;fill:rgb(100%,84.3%,0%);fill-opacity:1;" d="M 91.457031 491.0625 C 91.457031 493.910156 87.191406 493.910156 87.191406 491.0625 C 87.191406 488.21875 91.457031 488.21875 91.457031 491.0625 "/>
<path style=" stroke:none;fill-rule:nonzero;fill:rgb(100%,84.3%,0%);fill-opacity:1;" d="M 216.964844 494.472656 C 216.964844 497.316406 212.695312 497.316406 212.695312 494.472656 C 212.695312 491.628906 216.964844 491.628906 216.964844 494.472656 "/>
<path style=" stroke:none;fill-rule:nonzero;fill:rgb(100%,84.3%,0%);fill-opacity:1;" d="M 196.433594 384.664062 C 196.433594 387.507812 192.167969 387.507812 192.167969 384.664062 C 192.167969 381.820312 196.433594 381.820312 196.433594 384.664062 "/>
<path style=" stroke:none;fill-rule:nonzero;fill:rgb(100%,84.3%,0%);fill-opacity:1;" d="M 123.070312 490.695312 C 123.070312 493.539062 118.804688 493.539062 118.804688 490.695312 C 118.804688 487.851562 123.070312 487.851562 123.070312 490.695312 "/>
<path style=" stroke:none;fill-rule:nonzero;fill:rgb(100%,84.3%,0%);fill-opacity:1;" d="M 49.066406 400.421875 C 49.066406 403.265625 44.800781 403.265625 44.800781 400.421875 C 44.800781 397.578125 49.066406 397.578125 49.066406 400.421875 "/>
<path style=" stroke:none;fill-rule:nonzero;fill:rgb(100%,84.3%,0%);fill-opacity:1;" d="M 304.519531 494.898438 C 304.519531 497.742188 300.25 497.742188 300.25 494.898438 C 300.25 492.054688 304.519531 492.054688 304.519531 494.898438 "/>
<path style=" stroke:none;fill-rule:nonzero;fill:rgb(100%,84.3%,0%);fill-opacity:1;" d="M 463.4375 452.367188 C 463.4375 455.210938 459.167969 455.210938 459.167969 452.367188 C 459.167969 449.523438 463.4375 449.523438 463.4375 452.367188 "/>
<path style=" stroke:none;fill-rule:nonzero;fill:rgb(100%,84.3%,0%);fill-opacity:1;" d="M 157.867188 495.402344 C 157.867188 498.246094 153.597656 498.246094 153.597656 495.402344 C 153.597656 492.558594 157.867188 492.558594 157.867188 495.402344 "/>
<path style=" stroke:none;fill-rule:nonzero;fill:rgb(100%,84.3%,0%);fill-opacity:1;" d="M 49.421875 422.039062 C 49.421875 424.882812 45.152344 424.882812 45.152344 422.039062 C 45.152344 419.195312 49.421875 419.195312 49.421875 422.039062 "/>
<path style=" stroke:none;fill-rule:nonzero;fill:rgb(100%,84.3%,0%);fill-opacity:1;" d="M 53.023438 398.824219 C 53.023438 401.671875 48.757812 401.671875 48.757812 398.824219 C 48.757812 395.980469 53.023438 395.980469 53.023438 398.824219 "/>
<path style=" stroke:none;fill-rule:nonzero;fill:rgb(100%,84.3%,0%);fill-opacity:1;" d="M 78.789062 494.792969 C 78.789062 497.636719 74.523438 497.636719 74.523438 494.792969 C 74.523438 491.949219 78.789062 491.949219 78.789062 494.792969 "/>
<path style=" stroke:none;fill-rule:nonzero;fill:rgb(100%,84.3%,0%);fill-opacity:1;" d="M 73.894531 495.402344 C 73.894531 498.246094 69.625 498.246094 69.625 495.402344 C 69.625 492.558594 73.894531 492.558594 73.894531 495.402344 "/>
<path style=" stroke:none;fill-rule:nonzero;fill:rgb(100%,84.3%,0%);fill-opacity:1;" d="M 455.828125 495.402344 C 455.828125 498.246094 451.558594 498.246094 451.558594 495.402344 C 451.558594 492.558594 455.828125 492.558594 455.828125 495.402344 "/>
<path style=" stroke:none;fill-rule:nonzero;fill:rgb(100%,84.3%,0%);fill-opacity:1;" d="M 129.375 491.035156 C 129.375 493.878906 125.109375 493.878906 125.109375 491.035156 C 125.109375 488.191406 129.375 488.191406 129.375 491.035156 "/>
<path style=" stroke:none;fill-rule:nonzero;fill:rgb(100%,84.3%,0%);fill-opacity:1;" d="M 58.683594 381.164062 C 58.683594 384.007812 54.417969 384.007812 54.417969 381.164062 C 54.417969 378.320312 58.683594 378.320312 58.683594 381.164062 "/>
<path style=" stroke:none;fill-rule:nonzero;fill:rgb(100%,84.3%,0%);fill-opacity:1;" d="M 180.917969 380.628906 C 180.917969 383.472656 176.648438 383.472656 176.648438 380.628906 C 176.648438 377.785156 180.917969 377.785156 180.917969 380.628906 "/>
<path style=" stroke:none;fill-rule:nonzero;fill:rgb(100%,84.3%,0%);fill-opacity:1;" d="M 358.453125 495.402344 C 358.453125 498.246094 354.1875 498.246094 354.1875 495.402344 C 354.1875 492.558594 358.453125 492.558594 358.453125 495.402344 "/>
<path style=" stroke:none;fill-rule:nonzero;fill:rgb(100%,84.3%,0%);fill-opacity:1;" d="M 465.519531 386.867188 C 465.519531 389.710938 461.253906 389.710938 461.253906 386.867188 C 461.253906 384.023438 465.519531 384.023438 465.519531 386.867188 "/>
<path style=" stroke:none;fill-rule:nonzero;fill:rgb(100%,84.3%,0%);fill-opacity:1;" d="M 238.472656 495.105469 C 238.472656 497.953125 234.207031 497.953125 234.207031 495.105469 C 234.207031 492.261719 238.472656 492.261719 238.472656 495.105469 "/>
<path style=" stroke:none;fill-rule:nonzero;fill:rgb(100%,84.3%,0%);fill-opacity:1;" d="M 95.546875 493.53125 C 95.546875 496.378906 91.28125 496.378906 91.28125 493.53125 C 91.28125 490.6875 95.546875 490.6875 95.546875 493.53125 "/>
<path style=" stroke:none;fill-rule:nonzero;fill:rgb(100%,84.3%,0%);fill-opacity:1;" d="M 148.378906 495.355469 C 148.378906 498.199219 144.113281 498.199219 144.113281 495.355469 C 144.113281 492.507812 148.378906 492.507812 148.378906 495.355469 "/>
<path style=" stroke:none;fill-rule:nonzero;fill:rgb(100%,84.3%,0%);fill-opacity:1;" d="M 465.640625 488.566406 C 465.640625 491.410156 461.371094 491.410156 461.371094 488.566406 C 461.371094 485.71875 465.640625 485.71875 465.640625 488.566406 "/>
<path style=" stroke:none;fill-rule:nonzero;fill:rgb(100%,84.3%,0%);fill-opacity:1;" d="M 385.480469 491.285156 C 385.480469 494.128906 381.214844 494.128906 381.214844 491.285156 C 381.214844 488.441406 385.480469 488.441406 385.480469 491.285156 "/>
<path style=" stroke:none;fill-rule:nonzero;fill:rgb(100%,84.3%,0%);fill-opacity:1;" d="M 467.199219 494.929688 C 467.199219 497.777344 462.933594 497.777344 462.933594 494.929688 C 462.933594 492.085938 467.199219 492.085938 467.199219 494.929688 "/>
<path style=" stroke:none;fill-rule:nonzero;fill:rgb(100%,84.3%,0%);fill-opacity:1;" d="M 467.199219 441.824219 C 467.199219 444.667969 462.933594 444.667969 462.933594 441.824219 C 462.933594 438.980469 467.199219 438.980469 467.199219 441.824219 "/>
<path style=" stroke:none;fill-rule:nonzero;fill:rgb(100%,84.3%,0%);fill-opacity:1;" d="M 228.59375 491.359375 C 228.59375 494.203125 224.328125 494.203125 224.328125 491.359375 C 224.328125 488.511719 228.59375 488.511719 228.59375 491.359375 "/>
<path style=" stroke:none;fill-rule:nonzero;fill:rgb(100%,84.3%,0%);fill-opacity:1;" d="M 467.199219 468.648438 C 467.199219 471.496094 462.933594 471.496094 462.933594 468.648438 C 462.933594 465.804688 467.199219 465.804688 467.199219 468.648438 "/>
<path style=" stroke:none;fill-rule:nonzero;fill:rgb(100%,84.3%,0%);fill-opacity:1;" d="M 288.90625 495.402344 C 288.90625 498.246094 284.636719 498.246094 284.636719 495.402344 C 284.636719 492.558594 288.90625 492.558594 288.90625 495.402344 "/>
<path style=" stroke:none;fill-rule:nonzero;fill:rgb(100%,84.3%,0%);fill-opacity:1;" d="M 49.460938 439.289062 C 49.460938 442.132812 45.195312 442.132812 45.195312 439.289062 C 45.195312 436.445312 49.460938 436.445312 49.460938 439.289062 "/>
<path style=" stroke:none;fill-rule:nonzero;fill:rgb(100%,84.3%,0%);fill-opacity:1;" d="M 174.300781 492.53125 C 174.300781 495.378906 170.035156 495.378906 170.035156 492.53125 C 170.035156 489.6875 174.300781 489.6875 174.300781 492.53125 "/>
<path style=" stroke:none;fill-rule:nonzero;fill:rgb(100%,84.3%,0%);fill-opacity:1;" d="M 466.078125 472.910156 C 466.078125 475.753906 461.8125 475.753906 461.8125 472.910156 C 461.8125 470.066406 466.078125 470.066406 466.078125 472.910156 "/>
<path style=" stroke:none;fill-rule:nonzero;fill:rgb(100%,84.3%,0%);fill-opacity:1;" d="M 221.960938 491.21875 C 221.960938 494.0625 217.691406 494.0625 217.691406 491.21875 C 217.691406 488.375 221.960938 488.375 221.960938 491.21875 "/>
<path style=" stroke:none;fill-rule:nonzero;fill:rgb(100%,84.3%,0%);fill-opacity:1;" d="M 82.078125 381.828125 C 82.078125 384.671875 77.8125 384.671875 77.8125 381.828125 C 77.8125 378.984375 82.078125 378.984375 82.078125 381.828125 "/>
<path style=" stroke:none;fill-rule:nonzero;fill:rgb(100%,84.3%,0%);fill-opacity:1;" d="M 193.628906 381.433594 C 193.628906 384.28125 189.363281 384.28125 189.363281 381.433594 C 189.363281 378.589844 193.628906 378.589844 193.628906 381.433594 "/>
<path style=" stroke:none;fill-rule:nonzero;fill:rgb(100%,84.3%,0%);fill-opacity:1;" d="M 115.773438 495.402344 C 115.773438 498.246094 111.507812 498.246094 111.507812 495.402344 C 111.507812 492.558594 115.773438 492.558594 115.773438 495.402344 "/>
<path style=" stroke:none;fill-rule:nonzero;fill:rgb(100%,84.3%,0%);fill-opacity:1;" d="M 187.886719 491.300781 C 187.886719 494.144531 183.621094 494.144531 183.621094 491.300781 C 183.621094 488.457031 187.886719 488.457031 187.886719 491.300781 "/>
<path style=" stroke:none;fill-rule:nonzero;fill:rgb(100%,84.3%,0%);fill-opacity:1;" d="M 462.109375 442.027344 C 462.109375 444.871094 457.84375 444.871094 457.84375 442.027344 C 457.84375 439.183594 462.109375 439.183594 462.109375 442.027344 "/>
<path style=" stroke:none;fill-rule:nonzero;fill:rgb(100%,84.3%,0%);fill-opacity:1;" d="M 108.480469 491.683594 C 108.480469 494.527344 104.210938 494.527344 104.210938 491.683594 C 104.210938 488.835938 108.480469 488.835938 108.480469 491.683594 "/>
<path style=" stroke:none;fill-rule:nonzero;fill:rgb(100%,84.3%,0%);fill-opacity:1;" d="M 178.304688 494.007812 C 178.304688 496.851562 174.039062 496.851562 174.039062 494.007812 C 174.039062 491.164062 178.304688 491.164062 178.304688 494.007812 "/>
<path style=" stroke:none;fill-rule:nonzero;fill:rgb(100%,84.3%,0%);fill-opacity:1;" d="M 49.222656 404.6875 C 49.222656 407.53125 44.957031 407.53125 44.957031 404.6875 C 44.957031 401.839844 49.222656 401.839844 49.222656 404.6875 "/>
<path style=" stroke:none;fill-rule:nonzero;fill:rgb(100%,84.3%,0%);fill-opacity:1;" d="M 420.074219 495.402344 C 420.074219 498.246094 415.808594 498.246094 415.808594 495.402344 C 415.808594 492.558594 420.074219 492.558594 420.074219 495.402344 "/>
<path style=" stroke:none;fill-rule:nonzero;fill:rgb(100%,84.3%,0%);fill-opacity:1;" d="M 401.933594 495.402344 C 401.933594 498.246094 397.667969 498.246094 397.667969 495.402344 C 397.667969 492.558594 401.933594 492.558594 401.933594 495.402344 "/>
<path style=" stroke:none;fill-rule:nonzero;fill:rgb(100%,84.3%,0%);fill-opacity:1;" d="M 49.859375 459.882812 C 49.859375 462.726562 45.59375 462.726562 45.59375 459.882812 C 45.59375 457.039062 49.859375 457.039062 49.859375 459.882812 "/>
<path style=" stroke:none;fill-rule:nonzero;fill:rgb(100%,84.3%,0%);fill-opacity:1;" d="M 49.066406 387.492188 C 49.066406 390.335938 44.800781 390.335938 44.800781 387.492188 C 44.800781 384.648438 49.066406 384.648438 49.066406 387.492188 "/>
<path style=" stroke:none;fill-rule:nonzero;fill:rgb(100%,84.3%,0%);fill-opacity:1;" d="M 467.140625 415.324219 C 467.140625 418.167969 462.875 418.167969 462.875 415.324219 C 462.875 412.480469 467.140625 412.480469 467.140625 415.324219 "/>
<path style=" stroke:none;fill-rule:nonzero;fill:rgb(100%,84.3%,0%);fill-opacity:1;" d="M 49.808594 417.789062 C 49.808594 420.632812 45.542969 420.632812 45.542969 417.789062 C 45.542969 414.945312 49.808594 414.945312 49.808594 417.789062 "/>
<path style=" stroke:none;fill-rule:nonzero;fill:rgb(100%,84.3%,0%);fill-opacity:1;" d="M 143.964844 495.402344 C 143.964844 498.246094 139.699219 498.246094 139.699219 495.402344 C 139.699219 492.558594 143.964844 492.558594 143.964844 495.402344 "/>
<path style=" stroke:none;fill-rule:nonzero;fill:rgb(100%,84.3%,0%);fill-opacity:1;" d="M 467.199219 454.636719 C 467.199219 457.484375 462.933594 457.484375 462.933594 454.636719 C 462.933594 451.792969 467.199219 451.792969 467.199219 454.636719 "/>
<path style=" stroke:none;fill-rule:nonzero;fill:rgb(100%,84.3%,0%);fill-opacity:1;" d="M 119.40625 493.160156 C 119.40625 496.003906 115.136719 496.003906 115.136719 493.160156 C 115.136719 490.316406 119.40625 490.316406 119.40625 493.160156 "/>
<path style=" stroke:none;fill-rule:nonzero;fill:rgb(100%,84.3%,0%);fill-opacity:1;" d="M 242.730469 495.402344 C 242.730469 498.246094 238.464844 498.246094 238.464844 495.402344 C 238.464844 492.558594 242.730469 492.558594 242.730469 495.402344 "/>
<path style=" stroke:none;fill-rule:nonzero;fill:rgb(100%,84.3%,0%);fill-opacity:1;" d="M 464.429688 438.445312 C 464.429688 441.292969 460.164062 441.292969 460.164062 438.445312 C 460.164062 435.601562 464.429688 435.601562 464.429688 438.445312 "/>
<path style=" stroke:none;fill-rule:nonzero;fill:rgb(100%,84.3%,0%);fill-opacity:1;" d="M 467.199219 423.8125 C 467.199219 426.660156 462.933594 426.660156 462.933594 423.8125 C 462.933594 420.96875 467.199219 420.96875 467.199219 423.8125 "/>
<path style=" stroke:none;fill-rule:nonzero;fill:rgb(100%,84.3%,0%);fill-opacity:1;" d="M 375.828125 495.402344 C 375.828125 498.246094 371.5625 498.246094 371.5625 495.402344 C 371.5625 492.558594 375.828125 492.558594 375.828125 495.402344 "/>
<path style=" stroke:none;fill-rule:nonzero;fill:rgb(100%,84.3%,0%);fill-opacity:1;" d="M 392.976562 491.160156 C 392.976562 494.003906 388.707031 494.003906 388.707031 491.160156 C 388.707031 488.316406 392.976562 488.316406 392.976562 491.160156 "/>
<path style=" stroke:none;fill-rule:nonzero;fill:rgb(100%,84.3%,0%);fill-opacity:1;" d="M 53.664062 388.746094 C 53.664062 391.589844 49.398438 391.589844 49.398438 388.746094 C 49.398438 385.902344 53.664062 385.902344 53.664062 388.746094 "/>
<path style=" stroke:none;fill-rule:nonzero;fill:rgb(100%,84.3%,0%);fill-opacity:1;" d="M 208.746094 380.628906 C 208.746094 383.472656 204.480469 383.472656 204.480469 380.628906 C 204.480469 377.785156 208.746094 377.785156 208.746094 380.628906 "/>
<path style=" stroke:none;fill-rule:nonzero;fill:rgb(100%,84.3%,0%);fill-opacity:1;" d="M 133.851562 494.957031 C 133.851562 497.800781 129.582031 497.800781 129.582031 494.957031 C 129.582031 492.113281 133.851562 492.113281 133.851562 494.957031 "/>
<path style=" stroke:none;fill-rule:nonzero;fill:rgb(100%,84.3%,0%);fill-opacity:1;" d="M 49.066406 468.410156 C 49.066406 471.253906 44.800781 471.253906 44.800781 468.410156 C 44.800781 465.566406 49.066406 465.566406 49.066406 468.410156 "/>
<path style=" stroke:none;fill-rule:nonzero;fill:rgb(100%,84.3%,0%);fill-opacity:1;" d="M 212.730469 494.996094 C 212.730469 497.839844 208.460938 497.839844 208.460938 494.996094 C 208.460938 492.152344 212.730469 492.152344 212.730469 494.996094 "/>
</g>
</svg>
