<?xml version="1.0" encoding="UTF-8"?>
<svg xmlns="http://www.w3.org/2000/svg" xmlns:xlink="http://www.w3.org/1999/xlink" width="512pt" height="512pt" viewBox="0 0 512 512" version="1.1">
<g id="surface341">
<path style=" stroke:none;fill-rule:nonzero;fill:rgb(26.7%,26.7%,26.7%);fill-opacity:1;" d="M 0 391.59375 L 1206.417969 391.59375 L 1206.417969 512 L 0 512 Z M 0 391.59375 "/>
<path style=" stroke:none;fill-rule:nonzero;fill:rgb(19.2%,38.8%,66.7%);fill-opacity:1;" d="M 42.667969 436.734375 L 469.332031 436.734375 L 469.332031 505.160156 L 42.667969 505.160156 Z M 42.667969 436.734375 "/>
<path style=" stroke:none;fill-rule:nonzero;fill:rgb(90.6%,14.9%,14.9%);fill-opacity:1;" d="M 45.890625 508.738281 C 45.890625 513.039062 39.441406 513.039062 39.441406 508.738281 C 39.441406 504.441406 45.890625 504.441406 45.890625 508.738281 "/>
<path style=" stroke:none;fill-rule:nonzero;fill:rgb(90.6%,14.9%,14.9%);fill-opacity:1;" d="M 472.558594 508.738281 C 472.558594 513.039062 466.109375 513.039062 466.109375 508.738281 C 466.109375 504.441406 472.558594 504.441406 472.558594 508.738281 "/>
<path style=" stroke:none;fill-rule:nonzero;fill:rgb(100%,100%,100%);fill-opacity:1;" d="M 9.707031 436.734375 C 9.707031 437.925781 7.917969 437.925781 7.917969 436.734375 C 7.917969 435.539062 9.707031 435.539062 9.707031 436.734375 "/>
<path style=" stroke:none;fill-rule:nonzero;fill:rgb(100%,100%,100%);fill-opacity:1;" d="M 71.863281 506.949219 C 71.863281 508.144531 70.074219 508.144531 70.074219 506.949219 C 70.074219 505.753906 71.863281 505.753906 71.863281 506.949219 "/>
<path style=" stroke:none;fill-rule:nonzero;fill:rgb(100%,100%,100%);fill-opacity:1;" d="M 484.738281 507.484375 C 484.738281 508.679688 482.945312 508.679688 482.945312 507.484375 C 482.945312 506.292969 484.738281 506.292969 484.738281 507.484375 "/>
<path style=" stroke:none;fill-rule:nonzero;fill:rgb(100%,100%,100%);fill-opacity:1;" d="M 274.269531 431.179688 C 274.269531 432.375 272.480469 432.375 272.480469 431.179688 C 272.480469 429.988281 274.269531 429.988281 274.269531 431.179688 "/>
<path style=" stroke:none;fill-rule:nonzero;fill:rgb(100%,100%,100%);fill-opacity:1;" d="M 15.441406 438.882812 C 15.441406 440.078125 13.648438 440.078125 13.648438 438.882812 C 13.648438 437.6875 15.441406 437.6875 15.441406 438.882812 "/>
<path style=" stroke:none;fill-rule:nonzero;fill:rgb(100%,100%,100%);fill-opacity:1;" d="M 250.269531 507.128906 C 250.269531 508.320312 248.476562 508.320312 248.476562 507.128906 C 248.476562 505.933594 250.269531 505.933594 250.269531 507.128906 "/>
<path style=" stroke:none;fill-rule:nonzero;fill:rgb(100%,100%,100%);fill-opacity:1;" d="M 158.558594 425.269531 C 158.558594 426.464844 156.765625 426.464844 156.765625 425.269531 C 156.765625 424.074219 158.558594 424.074219 158.558594 425.269531 "/>
<path style=" stroke:none;fill-rule:nonzero;fill:rgb(100%,100%,100%);fill-opacity:1;" d="M 378.699219 430.464844 C 378.699219 431.65625 376.90625 431.65625 376.90625 430.464844 C 376.90625 429.269531 378.699219 429.269531 378.699219 430.464844 "/>
<path style=" stroke:none;fill-rule:nonzero;fill:rgb(100%,100%,100%);fill-opacity:1;" d="M 481.335938 436.015625 C 481.335938 437.210938 479.542969 437.210938 479.542969 436.015625 C 479.542969 434.824219 481.335938 434.824219 481.335938 436.015625 "/>
<path style=" stroke:none;fill-rule:nonzero;fill:rgb(100%,100%,100%);fill-opacity:1;" d="M 169.484375 422.222656 C 169.484375 423.417969 167.695312 423.417969 167.695312 422.222656 C 167.695312 421.03125 169.484375 421.03125 169.484375 422.222656 "/>
<path style=" stroke:none;fill-rule:nonzero;fill:rgb(100%,100%,100%);fill-opacity:1;" d="M 356.128906 401.265625 C 356.128906 402.460938 354.335938 402.460938 354.335938 401.265625 C 354.335938 400.074219 356.128906 400.074219 356.128906 401.265625 "/>
<path style=" stroke:none;fill-rule:nonzero;fill:rgb(100%,100%,100%);fill-opacity:1;" d="M 198.5 434.046875 C 198.5 435.238281 196.710938 435.238281 196.710938 434.046875 C 196.710938 432.851562 198.5 432.851562 198.5 434.046875 "/>
<path style=" stroke:none;fill-rule:nonzero;fill:rgb(100%,100%,100%);fill-opacity:1;" d="M 207.097656 426.882812 C 207.097656 428.074219 205.308594 428.074219 205.308594 426.882812 C 205.308594 425.6875 207.097656 425.6875 207.097656 426.882812 "/>
<path style=" stroke:none;fill-rule:nonzero;fill:rgb(100%,100%,100%);fill-opacity:1;" d="M 56.101562 414.34375 C 56.101562 415.539062 54.308594 415.539062 54.308594 414.34375 C 54.308594 413.148438 56.101562 413.148438 56.101562 414.34375 "/>
<path style=" stroke:none;fill-rule:nonzero;fill:rgb(100%,100%,100%);fill-opacity:1;" d="M 288.78125 417.03125 C 288.78125 418.222656 286.988281 418.222656 286.988281 417.03125 C 286.988281 415.835938 288.78125 415.835938 288.78125 417.03125 "/>
<path style=" stroke:none;fill-rule:nonzero;fill:rgb(100%,100%,100%);fill-opacity:1;" d="M 429.570312 506.949219 C 429.570312 508.144531 427.777344 508.144531 427.777344 506.949219 C 427.777344 505.753906 429.570312 505.753906 429.570312 506.949219 "/>
<path style=" stroke:none;fill-rule:nonzero;fill:rgb(100%,100%,100%);fill-opacity:1;" d="M 300.960938 429.566406 C 300.960938 430.761719 299.167969 430.761719 299.167969 429.566406 C 299.167969 428.375 300.960938 428.375 300.960938 429.566406 "/>
<path style=" stroke:none;fill-rule:nonzero;fill:rgb(100%,100%,100%);fill-opacity:1;" d="M 336.425781 414.34375 C 336.425781 415.539062 334.632812 415.539062 334.632812 414.34375 C 334.632812 413.148438 336.425781 413.148438 336.425781 414.34375 "/>
<path style=" stroke:none;fill-rule:nonzero;fill:rgb(100%,100%,100%);fill-opacity:1;" d="M 4.691406 466.648438 C 4.691406 467.839844 2.902344 467.839844 2.902344 466.648438 C 2.902344 465.453125 4.691406 465.453125 4.691406 466.648438 "/>
<path style=" stroke:none;fill-rule:nonzero;fill:rgb(100%,100%,100%);fill-opacity:1;" d="M 343.230469 506.949219 C 343.230469 508.144531 341.441406 508.144531 341.441406 506.949219 C 341.441406 505.753906 343.230469 505.753906 343.230469 506.949219 "/>
<path style=" stroke:none;fill-rule:nonzero;fill:rgb(100%,100%,100%);fill-opacity:1;" d="M 222.863281 394.820312 C 222.863281 396.011719 221.070312 396.011719 221.070312 394.820312 C 221.070312 393.625 222.863281 393.625 222.863281 394.820312 "/>
<path style=" stroke:none;fill-rule:nonzero;fill:rgb(100%,100%,100%);fill-opacity:1;" d="M 55.207031 415.953125 C 55.207031 417.148438 53.414062 417.148438 53.414062 415.953125 C 53.414062 414.761719 55.207031 414.761719 55.207031 415.953125 "/>
<path style=" stroke:none;fill-rule:nonzero;fill:rgb(100%,100%,100%);fill-opacity:1;" d="M 272.121094 397.148438 C 272.121094 398.339844 270.328125 398.339844 270.328125 397.148438 C 270.328125 395.953125 272.121094 395.953125 272.121094 397.148438 "/>
<path style=" stroke:none;fill-rule:nonzero;fill:rgb(100%,100%,100%);fill-opacity:1;" d="M 107.152344 396.074219 C 107.152344 397.265625 105.359375 397.265625 105.359375 396.074219 C 105.359375 394.878906 107.152344 394.878906 107.152344 396.074219 "/>
<path style=" stroke:none;fill-rule:nonzero;fill:rgb(100%,100%,100%);fill-opacity:1;" d="M 166.617188 394.996094 C 166.617188 396.191406 164.828125 396.191406 164.828125 394.996094 C 164.828125 393.804688 166.617188 393.804688 166.617188 394.996094 "/>
<path style=" stroke:none;fill-rule:nonzero;fill:rgb(100%,100%,100%);fill-opacity:1;" d="M 210.324219 424.015625 C 210.324219 425.210938 208.53125 425.210938 208.53125 424.015625 C 208.53125 422.820312 210.324219 422.820312 210.324219 424.015625 "/>
<path style=" stroke:none;fill-rule:nonzero;fill:rgb(100%,100%,100%);fill-opacity:1;" d="M 35.324219 500.5 C 35.324219 501.695312 33.53125 501.695312 33.53125 500.5 C 33.53125 499.304688 35.324219 499.304688 35.324219 500.5 "/>
<path style=" stroke:none;fill-rule:nonzero;fill:rgb(100%,100%,100%);fill-opacity:1;" d="M 75.804688 399.835938 C 75.804688 401.027344 74.011719 401.027344 74.011719 399.835938 C 74.011719 398.640625 75.804688 398.640625 75.804688 399.835938 "/>
<path style=" stroke:none;fill-rule:nonzero;fill:rgb(100%,100%,100%);fill-opacity:1;" d="M 302.570312 505.515625 C 302.570312 506.710938 300.78125 506.710938 300.78125 505.515625 C 300.78125 504.320312 302.570312 504.320312 302.570312 505.515625 "/>
<path style=" stroke:none;fill-rule:nonzero;fill:rgb(100%,100%,100%);fill-opacity:1;" d="M 1.648438 396.074219 C 1.648438 397.265625 -0.144531 397.265625 -0.144531 396.074219 C -0.144531 394.878906 1.648438 394.878906 1.648438 396.074219 "/>
<path style=" stroke:none;fill-rule:nonzero;fill:rgb(100%,100%,100%);fill-opacity:1;" d="M 488.679688 449.988281 C 488.679688 451.183594 486.886719 451.183594 486.886719 449.988281 C 486.886719 448.792969 488.679688 448.792969 488.679688 449.988281 "/>
<path style=" stroke:none;fill-rule:nonzero;fill:rgb(100%,100%,100%);fill-opacity:1;" d="M 190.082031 424.554688 C 190.082031 425.746094 188.292969 425.746094 188.292969 424.554688 C 188.292969 423.359375 190.082031 423.359375 190.082031 424.554688 "/>
<path style=" stroke:none;fill-rule:nonzero;fill:rgb(100%,100%,100%);fill-opacity:1;" d="M 20.992188 480.796875 C 20.992188 481.992188 19.203125 481.992188 19.203125 480.796875 C 19.203125 479.601562 20.992188 479.601562 20.992188 480.796875 "/>
<path style=" stroke:none;fill-rule:nonzero;fill:rgb(100%,100%,100%);fill-opacity:1;" d="M 40.695312 410.402344 C 40.695312 411.597656 38.90625 411.597656 38.90625 410.402344 C 38.90625 409.207031 40.695312 409.207031 40.695312 410.402344 "/>
<path style=" stroke:none;fill-rule:nonzero;fill:rgb(100%,100%,100%);fill-opacity:1;" d="M 121.121094 420.613281 C 121.121094 421.804688 119.332031 421.804688 119.332031 420.613281 C 119.332031 419.417969 121.121094 419.417969 121.121094 420.613281 "/>
<path style=" stroke:none;fill-rule:nonzero;fill:rgb(100%,100%,100%);fill-opacity:1;" d="M 165.1875 419.894531 C 165.1875 421.089844 163.394531 421.089844 163.394531 419.894531 C 163.394531 418.703125 165.1875 418.703125 165.1875 419.894531 "/>
<path style=" stroke:none;fill-rule:nonzero;fill:rgb(100%,100%,100%);fill-opacity:1;" d="M 465.570312 506.410156 C 465.570312 507.605469 463.78125 507.605469 463.78125 506.410156 C 463.78125 505.21875 465.570312 505.21875 465.570312 506.410156 "/>
<path style=" stroke:none;fill-rule:nonzero;fill:rgb(100%,100%,100%);fill-opacity:1;" d="M 405.746094 429.03125 C 405.746094 430.226562 403.953125 430.226562 403.953125 429.03125 C 403.953125 427.835938 405.746094 427.835938 405.746094 429.03125 "/>
<path style=" stroke:none;fill-rule:nonzero;fill:rgb(100%,100%,100%);fill-opacity:1;" d="M 379.234375 431.179688 C 379.234375 432.375 377.445312 432.375 377.445312 431.179688 C 377.445312 429.988281 379.234375 429.988281 379.234375 431.179688 "/>
<path style=" stroke:none;fill-rule:nonzero;fill:rgb(100%,100%,100%);fill-opacity:1;" d="M 277.316406 432.972656 C 277.316406 434.167969 275.523438 434.167969 275.523438 432.972656 C 275.523438 431.777344 277.316406 431.777344 277.316406 432.972656 "/>
<path style=" stroke:none;fill-rule:nonzero;fill:rgb(100%,100%,100%);fill-opacity:1;" d="M 380.847656 509.816406 C 380.847656 511.007812 379.054688 511.007812 379.054688 509.816406 C 379.054688 508.621094 380.847656 508.621094 380.847656 509.816406 "/>
<path style=" stroke:none;fill-rule:nonzero;fill:rgb(100%,100%,100%);fill-opacity:1;" d="M 195.996094 422.402344 C 195.996094 423.597656 194.203125 423.597656 194.203125 422.402344 C 194.203125 421.210938 195.996094 421.210938 195.996094 422.402344 "/>
<path style=" stroke:none;fill-rule:nonzero;fill:rgb(100%,100%,100%);fill-opacity:1;" d="M 295.945312 402.699219 C 295.945312 403.894531 294.152344 403.894531 294.152344 402.699219 C 294.152344 401.503906 295.945312 401.503906 295.945312 402.699219 "/>
<path style=" stroke:none;fill-rule:nonzero;fill:rgb(100%,100%,100%);fill-opacity:1;" d="M 200.113281 408.253906 C 200.113281 409.445312 198.324219 409.445312 198.324219 408.253906 C 198.324219 407.058594 200.113281 407.058594 200.113281 408.253906 "/>
<path style=" stroke:none;fill-rule:nonzero;fill:rgb(100%,84.3%,0%);fill-opacity:1;" d="M 455.339844 502.726562 C 455.339844 503.917969 453.550781 503.917969 453.550781 502.726562 C 453.550781 501.53125 455.339844 501.53125 455.339844 502.726562 "/>
<path style=" stroke:none;fill-rule:nonzero;fill:rgb(100%,84.3%,0%);fill-opacity:1;" d="M 275.324219 438.523438 C 275.324219 439.71875 273.535156 439.71875 273.535156 438.523438 C 273.535156 437.328125 275.324219 437.328125 275.324219 438.523438 "/>
<path style=" stroke:none;fill-rule:nonzero;fill:rgb(100%,84.3%,0%);fill-opacity:1;" d="M 305.945312 503.277344 C 305.945312 504.472656 304.15625 504.472656 304.15625 503.277344 C 304.15625 502.085938 305.945312 502.085938 305.945312 503.277344 "/>
<path style=" stroke:none;fill-rule:nonzero;fill:rgb(100%,84.3%,0%);fill-opacity:1;" d="M 369.03125 438.710938 C 369.03125 439.902344 367.242188 439.902344 367.242188 438.710938 C 367.242188 437.515625 369.03125 437.515625 369.03125 438.710938 "/>
<path style=" stroke:none;fill-rule:nonzero;fill:rgb(100%,84.3%,0%);fill-opacity:1;" d="M 324.304688 500.742188 C 324.304688 501.9375 322.511719 501.9375 322.511719 500.742188 C 322.511719 499.550781 324.304688 499.550781 324.304688 500.742188 "/>
<path style=" stroke:none;fill-rule:nonzero;fill:rgb(100%,84.3%,0%);fill-opacity:1;" d="M 349.074219 501.296875 C 349.074219 502.488281 347.28125 502.488281 347.28125 501.296875 C 347.28125 500.101562 349.074219 500.101562 349.074219 501.296875 "/>
<path style=" stroke:none;fill-rule:nonzero;fill:rgb(100%,84.3%,0%);fill-opacity:1;" d="M 196.925781 438.535156 C 196.925781 439.726562 195.136719 439.726562 195.136719 438.535156 C 195.136719 437.339844 196.925781 437.339844 196.925781 438.535156 "/>
<path style=" stroke:none;fill-rule:nonzero;fill:rgb(100%,84.3%,0%);fill-opacity:1;" d="M 466.175781 499.074219 C 466.175781 500.269531 464.382812 500.269531 464.382812 499.074219 C 464.382812 497.882812 466.175781 497.882812 466.175781 499.074219 "/>
<path style=" stroke:none;fill-rule:nonzero;fill:rgb(100%,84.3%,0%);fill-opacity:1;" d="M 330.246094 502.660156 C 330.246094 503.855469 328.453125 503.855469 328.453125 502.660156 C 328.453125 501.46875 330.246094 501.46875 330.246094 502.660156 "/>
<path style=" stroke:none;fill-rule:nonzero;fill:rgb(100%,84.3%,0%);fill-opacity:1;" d="M 428.972656 501.726562 C 428.972656 502.917969 427.179688 502.917969 427.179688 501.726562 C 427.179688 500.53125 428.972656 500.53125 428.972656 501.726562 "/>
<path style=" stroke:none;fill-rule:nonzero;fill:rgb(100%,84.3%,0%);fill-opacity:1;" d="M 69.613281 500.089844 C 69.613281 501.28125 67.820312 501.28125 67.820312 500.089844 C 67.820312 498.894531 69.613281 498.894531 69.613281 500.089844 "/>
<path style=" stroke:none;fill-rule:nonzero;fill:rgb(100%,84.3%,0%);fill-opacity:1;" d="M 390.78125 503.277344 C 390.78125 504.472656 388.988281 504.472656 388.988281 503.277344 C 388.988281 502.085938 390.78125 502.085938 390.78125 503.277344 "/>
<path style=" stroke:none;fill-rule:nonzero;fill:rgb(100%,84.3%,0%);fill-opacity:1;" d="M 466.855469 500.734375 C 466.855469 501.925781 465.066406 501.925781 465.066406 500.734375 C 465.066406 499.539062 466.855469 499.539062 466.855469 500.734375 "/>
<path style=" stroke:none;fill-rule:nonzero;fill:rgb(100%,84.3%,0%);fill-opacity:1;" d="M 320.929688 501.800781 C 320.929688 502.996094 319.140625 502.996094 319.140625 501.800781 C 319.140625 500.609375 320.929688 500.609375 320.929688 501.800781 "/>
<path style=" stroke:none;fill-rule:nonzero;fill:rgb(100%,84.3%,0%);fill-opacity:1;" d="M 403.398438 440.265625 C 403.398438 441.460938 401.605469 441.460938 401.605469 440.265625 C 401.605469 439.070312 403.398438 439.070312 403.398438 440.265625 "/>
<path style=" stroke:none;fill-rule:nonzero;fill:rgb(100%,84.3%,0%);fill-opacity:1;" d="M 380.3125 502.992188 C 380.3125 504.183594 378.519531 504.183594 378.519531 502.992188 C 378.519531 501.796875 380.3125 501.796875 380.3125 502.992188 "/>
<path style=" stroke:none;fill-rule:nonzero;fill:rgb(100%,84.3%,0%);fill-opacity:1;" d="M 338.425781 501.375 C 338.425781 502.570312 336.632812 502.570312 336.632812 501.375 C 336.632812 500.179688 338.425781 500.179688 338.425781 501.375 "/>
<path style=" stroke:none;fill-rule:nonzero;fill:rgb(100%,84.3%,0%);fill-opacity:1;" d="M 301.902344 501.617188 C 301.902344 502.8125 300.109375 502.8125 300.109375 501.617188 C 300.109375 500.421875 301.902344 500.421875 301.902344 501.617188 "/>
<path style=" stroke:none;fill-rule:nonzero;fill:rgb(100%,84.3%,0%);fill-opacity:1;" d="M 191.261719 439.007812 C 191.261719 440.203125 189.472656 440.203125 189.472656 439.007812 C 189.472656 437.8125 191.261719 437.8125 191.261719 439.007812 "/>
<path style=" stroke:none;fill-rule:nonzero;fill:rgb(100%,84.3%,0%);fill-opacity:1;" d="M 299.265625 496.929688 C 299.265625 498.121094 297.476562 498.121094 297.476562 496.929688 C 297.476562 495.734375 299.265625 495.734375 299.265625 496.929688 "/>
<path style=" stroke:none;fill-rule:nonzero;fill:rgb(100%,84.3%,0%);fill-opacity:1;" d="M 344.511719 500.84375 C 344.511719 502.035156 342.71875 502.035156 342.71875 500.84375 C 342.71875 499.648438 344.511719 499.648438 344.511719 500.84375 "/>
<path style=" stroke:none;fill-rule:nonzero;fill:rgb(100%,84.3%,0%);fill-opacity:1;" d="M 311.070312 501.253906 C 311.070312 502.445312 309.28125 502.445312 309.28125 501.253906 C 309.28125 500.058594 311.070312 500.058594 311.070312 501.253906 "/>
<path style=" stroke:none;fill-rule:nonzero;fill:rgb(100%,84.3%,0%);fill-opacity:1;" d="M 298.105469 503.367188 C 298.105469 504.558594 296.316406 504.558594 296.316406 503.367188 C 296.316406 502.171875 298.105469 502.171875 298.105469 503.367188 "/>
<path style=" stroke:none;fill-rule:nonzero;fill:rgb(100%,84.3%,0%);fill-opacity:1;" d="M 420.140625 503.367188 C 420.140625 504.558594 418.347656 504.558594 418.347656 503.367188 C 418.347656 502.171875 420.140625 502.171875 420.140625 503.367188 "/>
<path style=" stroke:none;fill-rule:nonzero;fill:rgb(100%,84.3%,0%);fill-opacity:1;" d="M 100.167969 502.417969 C 100.167969 503.613281 98.378906 503.613281 98.378906 502.417969 C 98.378906 501.222656 100.167969 501.222656 100.167969 502.417969 "/>
<path style=" stroke:none;fill-rule:nonzero;fill:rgb(100%,84.3%,0%);fill-opacity:1;" d="M 377.050781 502.402344 C 377.050781 503.59375 375.257812 503.59375 375.257812 502.402344 C 375.257812 501.207031 377.050781 501.207031 377.050781 502.402344 "/>
<path style=" stroke:none;fill-rule:nonzero;fill:rgb(100%,84.3%,0%);fill-opacity:1;" d="M 297.726562 440.261719 C 297.726562 441.453125 295.9375 441.453125 295.9375 440.261719 C 295.9375 439.066406 297.726562 439.066406 297.726562 440.261719 "/>
<path style=" stroke:none;fill-rule:nonzero;fill:rgb(100%,84.3%,0%);fill-opacity:1;" d="M 453.496094 503.316406 C 453.496094 504.511719 451.703125 504.511719 451.703125 503.316406 C 451.703125 502.121094 453.496094 502.121094 453.496094 503.316406 "/>
<path style=" stroke:none;fill-rule:nonzero;fill:rgb(100%,84.3%,0%);fill-opacity:1;" d="M 278.277344 440.179688 C 278.277344 441.375 276.488281 441.375 276.488281 440.179688 C 276.488281 438.984375 278.277344 438.984375 278.277344 440.179688 "/>
<path style=" stroke:none;fill-rule:nonzero;fill:rgb(100%,84.3%,0%);fill-opacity:1;" d="M 343.414062 499.425781 C 343.414062 500.621094 341.621094 500.621094 341.621094 499.425781 C 341.621094 498.234375 343.414062 498.234375 343.414062 499.425781 "/>
<path style=" stroke:none;fill-rule:nonzero;fill:rgb(100%,84.3%,0%);fill-opacity:1;" d="M 298.339844 498.460938 C 298.339844 499.65625 296.550781 499.65625 296.550781 498.460938 C 296.550781 497.265625 298.339844 497.265625 298.339844 498.460938 "/>
<path style=" stroke:none;fill-rule:nonzero;fill:rgb(100%,84.3%,0%);fill-opacity:1;" d="M 350.617188 503.367188 C 350.617188 504.558594 348.824219 504.558594 348.824219 503.367188 C 348.824219 502.171875 350.617188 502.171875 350.617188 503.367188 "/>
<path style=" stroke:none;fill-rule:nonzero;fill:rgb(100%,84.3%,0%);fill-opacity:1;" d="M 294.410156 501.589844 C 294.410156 502.785156 292.617188 502.785156 292.617188 501.589844 C 292.617188 500.394531 294.410156 500.394531 294.410156 501.589844 "/>
<path style=" stroke:none;fill-rule:nonzero;fill:rgb(100%,84.3%,0%);fill-opacity:1;" d="M 308.929688 439.976562 C 308.929688 441.171875 307.136719 441.171875 307.136719 439.976562 C 307.136719 438.785156 308.929688 438.785156 308.929688 439.976562 "/>
<path style=" stroke:none;fill-rule:nonzero;fill:rgb(100%,84.3%,0%);fill-opacity:1;" d="M 463.882812 498.492188 C 463.882812 499.6875 462.09375 499.6875 462.09375 498.492188 C 462.09375 497.300781 463.882812 497.300781 463.882812 498.492188 "/>
<path style=" stroke:none;fill-rule:nonzero;fill:rgb(100%,84.3%,0%);fill-opacity:1;" d="M 468.402344 499.785156 C 468.402344 500.976562 466.609375 500.976562 466.609375 499.785156 C 466.609375 498.589844 468.402344 498.589844 468.402344 499.785156 "/>
<path style=" stroke:none;fill-rule:nonzero;fill:rgb(100%,84.3%,0%);fill-opacity:1;" d="M 109.582031 503.367188 C 109.582031 504.558594 107.792969 504.558594 107.792969 503.367188 C 107.792969 502.171875 109.582031 502.171875 109.582031 503.367188 "/>
<path style=" stroke:none;fill-rule:nonzero;fill:rgb(100%,84.3%,0%);fill-opacity:1;" d="M 382.542969 439.605469 C 382.542969 440.800781 380.75 440.800781 380.75 439.605469 C 380.75 438.414062 382.542969 438.414062 382.542969 439.605469 "/>
<path style=" stroke:none;fill-rule:nonzero;fill:rgb(100%,84.3%,0%);fill-opacity:1;" d="M 247.160156 501.574219 C 247.160156 502.769531 245.367188 502.769531 245.367188 501.574219 C 245.367188 500.378906 247.160156 500.378906 247.160156 501.574219 "/>
<path style=" stroke:none;fill-rule:nonzero;fill:rgb(100%,84.3%,0%);fill-opacity:1;" d="M 288.875 503.367188 C 288.875 504.558594 287.082031 504.558594 287.082031 503.367188 C 287.082031 502.171875 288.875 502.171875 288.875 503.367188 "/>
<path style=" stroke:none;fill-rule:nonzero;fill:rgb(100%,84.3%,0%);fill-opacity:1;" d="M 314.078125 503.367188 C 314.078125 504.558594 312.289062 504.558594 312.289062 503.367188 C 312.289062 502.171875 314.078125 502.171875 314.078125 503.367188 "/>
<path style=" stroke:none;fill-rule:nonzero;fill:rgb(100%,84.3%,0%);fill-opacity:1;" d="M 297.414062 500.039062 C 297.414062 501.234375 295.625 501.234375 295.625 500.039062 C 295.625 498.847656 297.414062 498.847656 297.414062 500.039062 "/>
<path style=" stroke:none;fill-rule:nonzero;fill:rgb(100%,84.3%,0%);fill-opacity:1;" d="M 426.101562 503.367188 C 426.101562 504.558594 424.308594 504.558594 424.308594 503.367188 C 424.308594 502.171875 426.101562 502.171875 426.101562 503.367188 "/>
<path style=" stroke:none;fill-rule:nonzero;fill:rgb(100%,84.3%,0%);fill-opacity:1;" d="M 365.449219 438.695312 C 365.449219 439.890625 363.65625 439.890625 363.65625 438.695312 C 363.65625 437.5 365.449219 437.5 365.449219 438.695312 "/>
<path style=" stroke:none;fill-rule:nonzero;fill:rgb(100%,84.3%,0%);fill-opacity:1;" d="M 318.21875 503.367188 C 318.21875 504.558594 316.425781 504.558594 316.425781 503.367188 C 316.425781 502.171875 318.21875 502.171875 318.21875 503.367188 "/>
<path style=" stroke:none;fill-rule:nonzero;fill:rgb(100%,84.3%,0%);fill-opacity:1;" d="M 435.507812 503.039062 C 435.507812 504.230469 433.71875 504.230469 433.71875 503.039062 C 433.71875 501.84375 435.507812 501.84375 435.507812 503.039062 "/>
<path style=" stroke:none;fill-rule:nonzero;fill:rgb(100%,84.3%,0%);fill-opacity:1;" d="M 404.644531 438.953125 C 404.644531 440.148438 402.851562 440.148438 402.851562 438.953125 C 402.851562 437.761719 404.644531 437.761719 404.644531 438.953125 "/>
<path style=" stroke:none;fill-rule:nonzero;fill:rgb(100%,84.3%,0%);fill-opacity:1;" d="M 197.585938 440.199219 C 197.585938 441.394531 195.792969 441.394531 195.792969 440.199219 C 195.792969 439.003906 197.585938 439.003906 197.585938 440.199219 "/>
<path style=" stroke:none;fill-rule:nonzero;fill:rgb(100%,84.3%,0%);fill-opacity:1;" d="M 192.421875 440.511719 C 192.421875 441.707031 190.632812 441.707031 190.632812 440.511719 C 190.632812 439.320312 192.421875 439.320312 192.421875 440.511719 "/>
<path style=" stroke:none;fill-rule:nonzero;fill:rgb(100%,84.3%,0%);fill-opacity:1;" d="M 377.019531 441.621094 C 377.019531 442.816406 375.226562 442.816406 375.226562 441.621094 C 375.226562 440.425781 377.019531 440.425781 377.019531 441.621094 "/>
<path style=" stroke:none;fill-rule:nonzero;fill:rgb(100%,84.3%,0%);fill-opacity:1;" d="M 346.140625 500.101562 C 346.140625 501.296875 344.347656 501.296875 344.347656 500.101562 C 344.347656 498.90625 346.140625 498.90625 346.140625 500.101562 "/>
<path style=" stroke:none;fill-rule:nonzero;fill:rgb(100%,84.3%,0%);fill-opacity:1;" d="M 123.273438 502.824219 C 123.273438 504.019531 121.480469 504.019531 121.480469 502.824219 C 121.480469 501.628906 123.273438 501.628906 123.273438 502.824219 "/>
<path style=" stroke:none;fill-rule:nonzero;fill:rgb(100%,84.3%,0%);fill-opacity:1;" d="M 370.398438 440.429688 C 370.398438 441.625 368.605469 441.625 368.605469 440.429688 C 368.605469 439.234375 370.398438 439.234375 370.398438 440.429688 "/>
<path style=" stroke:none;fill-rule:nonzero;fill:rgb(100%,84.3%,0%);fill-opacity:1;" d="M 345.46875 502.359375 C 345.46875 503.554688 343.679688 503.554688 343.679688 502.359375 C 343.679688 501.164062 345.46875 501.164062 345.46875 502.359375 "/>
<path style=" stroke:none;fill-rule:nonzero;fill:rgb(100%,84.3%,0%);fill-opacity:1;" d="M 383.519531 501.628906 C 383.519531 502.820312 381.726562 502.820312 381.726562 501.628906 C 381.726562 500.433594 383.519531 500.433594 383.519531 501.628906 "/>
<path style=" stroke:none;fill-rule:nonzero;fill:rgb(100%,84.3%,0%);fill-opacity:1;" d="M 249.972656 501.722656 C 249.972656 502.914062 248.183594 502.914062 248.183594 501.722656 C 248.183594 500.527344 249.972656 500.527344 249.972656 501.722656 "/>
<path style=" stroke:none;fill-rule:nonzero;fill:rgb(100%,84.3%,0%);fill-opacity:1;" d="M 248.625 500.542969 C 248.625 501.738281 246.832031 501.738281 246.832031 500.542969 C 246.832031 499.347656 248.625 499.347656 248.625 500.542969 "/>
<path style=" stroke:none;fill-rule:nonzero;fill:rgb(100%,84.3%,0%);fill-opacity:1;" d="M 463.621094 501.640625 C 463.621094 502.832031 461.828125 502.832031 461.828125 501.640625 C 461.828125 500.445312 463.621094 500.445312 463.621094 501.640625 "/>
<path style=" stroke:none;fill-rule:nonzero;fill:rgb(100%,84.3%,0%);fill-opacity:1;" d="M 384.066406 440.554688 C 384.066406 441.75 382.277344 441.75 382.277344 440.554688 C 382.277344 439.359375 384.066406 439.359375 384.066406 440.554688 "/>
<path style=" stroke:none;fill-rule:nonzero;fill:rgb(100%,84.3%,0%);fill-opacity:1;" d="M 241.792969 503.265625 C 241.792969 504.460938 240 504.460938 240 503.265625 C 240 502.074219 241.792969 502.074219 241.792969 503.265625 "/>
<path style=" stroke:none;fill-rule:nonzero;fill:rgb(100%,84.3%,0%);fill-opacity:1;" d="M 302.828125 438.523438 C 302.828125 439.71875 301.035156 439.71875 301.035156 438.523438 C 301.035156 437.332031 302.828125 437.332031 302.828125 438.523438 "/>
<path style=" stroke:none;fill-rule:nonzero;fill:rgb(100%,84.3%,0%);fill-opacity:1;" d="M 112.398438 503.199219 C 112.398438 504.390625 110.609375 504.390625 110.609375 503.199219 C 110.609375 502.003906 112.398438 502.003906 112.398438 503.199219 "/>
<path style=" stroke:none;fill-rule:nonzero;fill:rgb(100%,84.3%,0%);fill-opacity:1;" d="M 387.210938 503.367188 C 387.210938 504.558594 385.421875 504.558594 385.421875 503.367188 C 385.421875 502.171875 387.210938 502.171875 387.210938 503.367188 "/>
<path style=" stroke:none;fill-rule:nonzero;fill:rgb(100%,84.3%,0%);fill-opacity:1;" d="M 339.875 500.324219 C 339.875 501.515625 338.085938 501.515625 338.085938 500.324219 C 338.085938 499.128906 339.875 499.128906 339.875 500.324219 "/>
<path style=" stroke:none;fill-rule:nonzero;fill:rgb(100%,84.3%,0%);fill-opacity:1;" d="M 268.71875 438.617188 C 268.71875 439.8125 266.925781 439.8125 266.925781 438.617188 C 266.925781 437.421875 268.71875 437.421875 268.71875 438.617188 "/>
<path style=" stroke:none;fill-rule:nonzero;fill:rgb(100%,84.3%,0%);fill-opacity:1;" d="M 254.601562 503.046875 C 254.601562 504.242188 252.808594 504.242188 252.808594 503.046875 C 252.808594 501.855469 254.601562 501.855469 254.601562 503.046875 "/>
<path style=" stroke:none;fill-rule:nonzero;fill:rgb(100%,84.3%,0%);fill-opacity:1;" d="M 299.207031 500.03125 C 299.207031 501.222656 297.414062 501.222656 297.414062 500.03125 C 297.414062 498.835938 299.207031 498.835938 299.207031 500.03125 "/>
<path style=" stroke:none;fill-rule:nonzero;fill:rgb(100%,84.3%,0%);fill-opacity:1;" d="M 301.007812 438.523438 C 301.007812 439.71875 299.21875 439.71875 299.21875 438.523438 C 299.21875 437.332031 301.007812 437.332031 301.007812 438.523438 "/>
<path style=" stroke:none;fill-rule:nonzero;fill:rgb(100%,84.3%,0%);fill-opacity:1;" d="M 301.058594 496.929688 C 301.058594 498.125 299.265625 498.125 299.265625 496.929688 C 299.265625 495.734375 301.058594 495.734375 301.058594 496.929688 "/>
<path style=" stroke:none;fill-rule:nonzero;fill:rgb(100%,84.3%,0%);fill-opacity:1;" d="M 431.980469 503.367188 C 431.980469 504.558594 430.1875 504.558594 430.1875 503.367188 C 430.1875 502.171875 431.980469 502.171875 431.980469 503.367188 "/>
<path style=" stroke:none;fill-rule:nonzero;fill:rgb(100%,84.3%,0%);fill-opacity:1;" d="M 401.007812 440.59375 C 401.007812 441.785156 399.21875 441.785156 399.21875 440.59375 C 399.21875 439.398438 401.007812 439.398438 401.007812 440.59375 "/>
<path style=" stroke:none;fill-rule:nonzero;fill:rgb(100%,84.3%,0%);fill-opacity:1;" d="M 371.957031 503.3125 C 371.957031 504.507812 370.167969 504.507812 370.167969 503.3125 C 370.167969 502.117188 371.957031 502.117188 371.957031 503.3125 "/>
<path style=" stroke:none;fill-rule:nonzero;fill:rgb(100%,84.3%,0%);fill-opacity:1;" d="M 385.738281 441.214844 C 385.738281 442.410156 383.945312 442.410156 383.945312 441.214844 C 383.945312 440.019531 385.738281 440.019531 385.738281 441.214844 "/>
<path style=" stroke:none;fill-rule:nonzero;fill:rgb(100%,84.3%,0%);fill-opacity:1;" d="M 466.359375 503.300781 C 466.359375 504.496094 464.566406 504.496094 464.566406 503.300781 C 464.566406 502.105469 466.359375 502.105469 466.359375 503.300781 "/>
<path style=" stroke:none;fill-rule:nonzero;fill:rgb(100%,84.3%,0%);fill-opacity:1;" d="M 343.984375 503.359375 C 343.984375 504.554688 342.195312 504.554688 342.195312 503.359375 C 342.195312 502.167969 343.984375 502.167969 343.984375 503.359375 "/>
<path style=" stroke:none;fill-rule:nonzero;fill:rgb(100%,84.3%,0%);fill-opacity:1;" d="M 367.242188 438.738281 C 367.242188 439.933594 365.449219 439.933594 365.449219 438.738281 C 365.449219 437.542969 367.242188 437.542969 367.242188 438.738281 "/>
<path style=" stroke:none;fill-rule:nonzero;fill:rgb(100%,84.3%,0%);fill-opacity:1;" d="M 337.320312 503.164062 C 337.320312 504.359375 335.527344 504.359375 335.527344 503.164062 C 335.527344 501.972656 337.320312 501.972656 337.320312 503.164062 "/>
<path style=" stroke:none;fill-rule:nonzero;fill:rgb(100%,84.3%,0%);fill-opacity:1;" d="M 95.058594 503.367188 C 95.058594 504.558594 93.269531 504.558594 93.269531 503.367188 C 93.269531 502.171875 95.058594 502.171875 95.058594 503.367188 "/>
<path style=" stroke:none;fill-rule:nonzero;fill:rgb(100%,84.3%,0%);fill-opacity:1;" d="M 308.542969 503.261719 C 308.542969 504.457031 306.753906 504.457031 306.753906 503.261719 C 306.753906 502.066406 308.542969 502.066406 308.542969 503.261719 "/>
<path style=" stroke:none;fill-rule:nonzero;fill:rgb(100%,84.3%,0%);fill-opacity:1;" d="M 75.042969 501.597656 C 75.042969 502.792969 73.25 502.792969 73.25 501.597656 C 73.25 500.402344 75.042969 500.402344 75.042969 501.597656 "/>
<path style=" stroke:none;fill-rule:nonzero;fill:rgb(100%,84.3%,0%);fill-opacity:1;" d="M 437.285156 503.265625 C 437.285156 504.460938 435.496094 504.460938 435.496094 503.265625 C 435.496094 502.070312 437.285156 502.070312 437.285156 503.265625 "/>
<path style=" stroke:none;fill-rule:nonzero;fill:rgb(100%,84.3%,0%);fill-opacity:1;" d="M 187.703125 438.546875 C 187.703125 439.742188 185.914062 439.742188 185.914062 438.546875 C 185.914062 437.351562 187.703125 437.351562 187.703125 438.546875 "/>
<path style=" stroke:none;fill-rule:nonzero;fill:rgb(100%,84.3%,0%);fill-opacity:1;" d="M 295.492188 438.554688 C 295.492188 439.746094 293.703125 439.746094 293.703125 438.554688 C 293.703125 437.359375 295.492188 437.359375 295.492188 438.554688 "/>
<path style=" stroke:none;fill-rule:nonzero;fill:rgb(100%,84.3%,0%);fill-opacity:1;" d="M 430.273438 500.492188 C 430.273438 501.6875 428.484375 501.6875 428.484375 500.492188 C 428.484375 499.300781 430.273438 499.300781 430.273438 500.492188 "/>
<path style=" stroke:none;fill-rule:nonzero;fill:rgb(100%,84.3%,0%);fill-opacity:1;" d="M 468.4375 501.574219 C 468.4375 502.769531 466.644531 502.769531 466.644531 501.574219 C 466.644531 500.378906 468.4375 500.378906 468.4375 501.574219 "/>
<path style=" stroke:none;fill-rule:nonzero;fill:rgb(100%,84.3%,0%);fill-opacity:1;" d="M 347.921875 499.921875 C 347.921875 501.113281 346.132812 501.113281 346.132812 499.921875 C 346.132812 498.726562 347.921875 498.726562 347.921875 499.921875 "/>
<path style=" stroke:none;fill-rule:nonzero;fill:rgb(100%,84.3%,0%);fill-opacity:1;" d="M 116.257812 503.265625 C 116.257812 504.457031 114.46875 504.457031 114.46875 503.265625 C 114.46875 502.070312 116.257812 502.070312 116.257812 503.265625 "/>
<path style=" stroke:none;fill-rule:nonzero;fill:rgb(100%,84.3%,0%);fill-opacity:1;" d="M 370.816406 438.523438 C 370.816406 439.71875 369.023438 439.71875 369.023438 438.523438 C 369.023438 437.332031 370.816406 437.332031 370.816406 438.523438 "/>
<path style=" stroke:none;fill-rule:nonzero;fill:rgb(100%,84.3%,0%);fill-opacity:1;" d="M 379.074219 441.855469 C 379.074219 443.050781 377.285156 443.050781 377.285156 441.855469 C 377.285156 440.660156 379.074219 440.660156 379.074219 441.855469 "/>
<path style=" stroke:none;fill-rule:nonzero;fill:rgb(100%,84.3%,0%);fill-opacity:1;" d="M 379.277344 438.839844 C 379.277344 440.03125 377.484375 440.03125 377.484375 438.839844 C 377.484375 437.644531 379.277344 437.644531 379.277344 438.839844 "/>
<path style=" stroke:none;fill-rule:nonzero;fill:rgb(100%,84.3%,0%);fill-opacity:1;" d="M 202.207031 439.269531 C 202.207031 440.464844 200.417969 440.464844 200.417969 439.269531 C 200.417969 438.078125 202.207031 438.078125 202.207031 439.269531 "/>
<path style=" stroke:none;fill-rule:nonzero;fill:rgb(100%,84.3%,0%);fill-opacity:1;" d="M 300.109375 501.574219 C 300.109375 502.769531 298.320312 502.769531 298.320312 501.574219 C 298.320312 500.382812 300.109375 500.382812 300.109375 501.574219 "/>
<path style=" stroke:none;fill-rule:nonzero;fill:rgb(100%,84.3%,0%);fill-opacity:1;" d="M 281.9375 438.523438 C 281.9375 439.71875 280.148438 439.71875 280.148438 438.523438 C 280.148438 437.328125 281.9375 437.328125 281.9375 438.523438 "/>
<path style=" stroke:none;fill-rule:nonzero;fill:rgb(100%,84.3%,0%);fill-opacity:1;" d="M 118.003906 502.859375 C 118.003906 504.054688 116.210938 504.054688 116.210938 502.859375 C 116.210938 501.664062 118.003906 501.664062 118.003906 502.859375 "/>
<path style=" stroke:none;fill-rule:nonzero;fill:rgb(100%,84.3%,0%);fill-opacity:1;" d="M 64.660156 503.335938 C 64.660156 504.53125 62.867188 504.53125 62.867188 503.335938 C 62.867188 502.144531 64.660156 502.144531 64.660156 503.335938 "/>
<path style=" stroke:none;fill-rule:nonzero;fill:rgb(100%,84.3%,0%);fill-opacity:1;" d="M 298.320312 501.589844 C 298.320312 502.78125 296.527344 502.78125 296.527344 501.589844 C 296.527344 500.394531 298.320312 500.394531 298.320312 501.589844 "/>
<path style=" stroke:none;fill-rule:nonzero;fill:rgb(100%,84.3%,0%);fill-opacity:1;" d="M 380.429688 440.207031 C 380.429688 441.402344 378.640625 441.402344 378.640625 440.207031 C 378.640625 439.015625 380.429688 439.015625 380.429688 440.207031 "/>
<path style=" stroke:none;fill-rule:nonzero;fill:rgb(100%,84.3%,0%);fill-opacity:1;" d="M 375.179688 441.925781 C 375.179688 443.121094 373.386719 443.121094 373.386719 441.925781 C 373.386719 440.730469 375.179688 440.730469 375.179688 441.925781 "/>
<path style=" stroke:none;fill-rule:nonzero;fill:rgb(100%,84.3%,0%);fill-opacity:1;" d="M 427.527344 500.664062 C 427.527344 501.859375 425.738281 501.859375 425.738281 500.664062 C 425.738281 499.46875 427.527344 499.46875 427.527344 500.664062 "/>
<path style=" stroke:none;fill-rule:nonzero;fill:rgb(100%,84.3%,0%);fill-opacity:1;" d="M 66.445312 503.230469 C 66.445312 504.425781 64.65625 504.425781 64.65625 503.230469 C 64.65625 502.035156 66.445312 502.035156 66.445312 503.230469 "/>
<path style=" stroke:none;fill-rule:nonzero;fill:rgb(100%,84.3%,0%);fill-opacity:1;" d="M 250.953125 503.222656 C 250.953125 504.414062 249.164062 504.414062 249.164062 503.222656 C 249.164062 502.027344 250.953125 502.027344 250.953125 503.222656 "/>
<path style=" stroke:none;fill-rule:nonzero;fill:rgb(100%,84.3%,0%);fill-opacity:1;" d="M 299.949219 440.148438 C 299.949219 441.34375 298.15625 441.34375 298.15625 440.148438 C 298.15625 438.953125 299.949219 438.953125 299.949219 440.148438 "/>
<path style=" stroke:none;fill-rule:nonzero;fill:rgb(100%,84.3%,0%);fill-opacity:1;" d="M 385.800781 439.378906 C 385.800781 440.570312 384.011719 440.570312 384.011719 439.378906 C 384.011719 438.183594 385.800781 438.183594 385.800781 439.378906 "/>
<path style=" stroke:none;fill-rule:nonzero;fill:rgb(100%,84.3%,0%);fill-opacity:1;" d="M 105.621094 503.367188 C 105.621094 504.558594 103.828125 504.558594 103.828125 503.367188 C 103.828125 502.171875 105.621094 502.171875 105.621094 503.367188 "/>
<path style=" stroke:none;fill-rule:nonzero;fill:rgb(100%,84.3%,0%);fill-opacity:1;" d="M 377.394531 438.6875 C 377.394531 439.882812 375.601562 439.882812 375.601562 438.6875 C 375.601562 437.492188 377.394531 437.492188 377.394531 438.6875 "/>
<path style=" stroke:none;fill-rule:nonzero;fill:rgb(100%,84.3%,0%);fill-opacity:1;" d="M 304.621094 499.972656 C 304.621094 501.167969 302.832031 501.167969 302.832031 499.972656 C 302.832031 498.777344 304.621094 498.777344 304.621094 499.972656 "/>
<path style=" stroke:none;fill-rule:nonzero;fill:rgb(100%,84.3%,0%);fill-opacity:1;" d="M 198.734375 438.558594 C 198.734375 439.75 196.945312 439.75 196.945312 438.558594 C 196.945312 437.363281 198.734375 437.363281 198.734375 438.558594 "/>
<path style=" stroke:none;fill-rule:nonzero;fill:rgb(100%,84.3%,0%);fill-opacity:1;" d="M 428.253906 503.367188 C 428.253906 504.558594 426.464844 504.558594 426.464844 503.367188 C 426.464844 502.171875 428.253906 502.171875 428.253906 503.367188 "/>
<path style=" stroke:none;fill-rule:nonzero;fill:rgb(100%,84.3%,0%);fill-opacity:1;" d="M 424.3125 503.222656 C 424.3125 504.417969 422.523438 504.417969 422.523438 503.222656 C 422.523438 502.027344 424.3125 502.027344 424.3125 503.222656 "/>
<path style=" stroke:none;fill-rule:nonzero;fill:rgb(100%,84.3%,0%);fill-opacity:1;" d="M 340.867188 503.367188 C 340.867188 504.558594 339.074219 504.558594 339.074219 503.367188 C 339.074219 502.171875 340.867188 502.171875 340.867188 503.367188 "/>
<path style=" stroke:none;fill-rule:nonzero;fill:rgb(100%,84.3%,0%);fill-opacity:1;" d="M 285.476562 439.046875 C 285.476562 440.242188 283.6875 440.242188 283.6875 439.046875 C 283.6875 437.855469 285.476562 437.855469 285.476562 439.046875 "/>
<path style=" stroke:none;fill-rule:nonzero;fill:rgb(100%,84.3%,0%);fill-opacity:1;" d="M 381.289062 501.476562 C 381.289062 502.671875 379.5 502.671875 379.5 501.476562 C 379.5 500.285156 381.289062 500.285156 381.289062 501.476562 "/>
<path style=" stroke:none;fill-rule:nonzero;fill:rgb(100%,84.3%,0%);fill-opacity:1;" d="M 387.476562 501.59375 C 387.476562 502.785156 385.6875 502.785156 385.6875 501.59375 C 385.6875 500.398438 387.476562 500.398438 387.476562 501.59375 "/>
<path style=" stroke:none;fill-rule:nonzero;fill:rgb(100%,84.3%,0%);fill-opacity:1;" d="M 361.300781 438.523438 C 361.300781 439.71875 359.511719 439.71875 359.511719 438.523438 C 359.511719 437.332031 361.300781 437.332031 361.300781 438.523438 "/>
<path style=" stroke:none;fill-rule:nonzero;fill:rgb(100%,84.3%,0%);fill-opacity:1;" d="M 282.035156 440.355469 C 282.035156 441.550781 280.246094 441.550781 280.246094 440.355469 C 280.246094 439.160156 282.035156 439.160156 282.035156 440.355469 "/>
<path style=" stroke:none;fill-rule:nonzero;fill:rgb(100%,84.3%,0%);fill-opacity:1;" d="M 380.789062 442.375 C 380.789062 443.570312 379 443.570312 379 442.375 C 379 441.183594 380.789062 441.183594 380.789062 442.375 "/>
<path style=" stroke:none;fill-rule:nonzero;fill:rgb(100%,84.3%,0%);fill-opacity:1;" d="M 107.558594 503.292969 C 107.558594 504.488281 105.765625 504.488281 105.765625 503.292969 C 105.765625 502.097656 107.558594 502.097656 107.558594 503.292969 "/>
<path style=" stroke:none;fill-rule:nonzero;fill:rgb(100%,84.3%,0%);fill-opacity:1;" d="M 73.25 501.640625 C 73.25 502.835938 71.460938 502.835938 71.460938 501.640625 C 71.460938 500.445312 73.25 500.445312 73.25 501.640625 "/>
<path style=" stroke:none;fill-rule:nonzero;fill:rgb(100%,84.3%,0%);fill-opacity:1;" d="M 239.320312 503.367188 C 239.320312 504.558594 237.53125 504.558594 237.53125 503.367188 C 237.53125 502.171875 239.320312 502.171875 239.320312 503.367188 "/>
<path style=" stroke:none;fill-rule:nonzero;fill:rgb(100%,84.3%,0%);fill-opacity:1;" d="M 323.09375 502.0625 C 323.09375 503.257812 321.300781 503.257812 321.300781 502.0625 C 321.300781 500.867188 323.09375 500.867188 323.09375 502.0625 "/>
<path style=" stroke:none;fill-rule:nonzero;fill:rgb(100%,84.3%,0%);fill-opacity:1;" d="M 353.332031 503.367188 C 353.332031 504.558594 351.542969 504.558594 351.542969 503.367188 C 351.542969 502.171875 353.332031 502.171875 353.332031 503.367188 "/>
<path style=" stroke:none;fill-rule:nonzero;fill:rgb(100%,84.3%,0%);fill-opacity:1;" d="M 451.503906 502.929688 C 451.503906 504.125 449.710938 504.125 449.710938 502.929688 C 449.710938 501.734375 451.503906 501.734375 451.503906 502.929688 "/>
<path style=" stroke:none;fill-rule:nonzero;fill:rgb(100%,84.3%,0%);fill-opacity:1;" d="M 199.023438 441.683594 C 199.023438 442.878906 197.230469 442.878906 197.230469 441.683594 C 197.230469 440.488281 199.023438 440.488281 199.023438 441.683594 "/>
<path style=" stroke:none;fill-rule:nonzero;fill:rgb(100%,84.3%,0%);fill-opacity:1;" d="M 383.949219 503.367188 C 383.949219 504.558594 382.160156 504.558594 382.160156 503.367188 C 382.160156 502.171875 383.949219 502.171875 383.949219 503.367188 "/>
<path style=" stroke:none;fill-rule:nonzero;fill:rgb(100%,84.3%,0%);fill-opacity:1;" d="M 465.40625 501.78125 C 465.40625 502.976562 463.613281 502.976562 463.613281 501.78125 C 463.613281 500.589844 465.40625 500.589844 465.40625 501.78125 "/>
<path style=" stroke:none;fill-rule:nonzero;fill:rgb(100%,84.3%,0%);fill-opacity:1;" d="M 382.101562 503.074219 C 382.101562 504.269531 380.308594 504.269531 380.308594 503.074219 C 380.308594 501.878906 382.101562 501.878906 382.101562 503.074219 "/>
<path style=" stroke:none;fill-rule:nonzero;fill:rgb(100%,84.3%,0%);fill-opacity:1;" d="M 302.84375 496.828125 C 302.84375 498.023438 301.054688 498.023438 301.054688 496.828125 C 301.054688 495.636719 302.84375 495.636719 302.84375 496.828125 "/>
<path style=" stroke:none;fill-rule:nonzero;fill:rgb(100%,84.3%,0%);fill-opacity:1;" d="M 252.621094 501.589844 C 252.621094 502.78125 250.828125 502.78125 250.828125 501.589844 C 250.828125 500.394531 252.621094 500.394531 252.621094 501.589844 "/>
<path style=" stroke:none;fill-rule:nonzero;fill:rgb(100%,84.3%,0%);fill-opacity:1;" d="M 315.171875 501.480469 C 315.171875 502.675781 313.378906 502.675781 313.378906 501.480469 C 313.378906 500.289062 315.171875 500.289062 315.171875 501.480469 "/>
<path style=" stroke:none;fill-rule:nonzero;fill:rgb(100%,84.3%,0%);fill-opacity:1;" d="M 200.09375 440.25 C 200.09375 441.441406 198.304688 441.441406 198.304688 440.25 C 198.304688 439.054688 200.09375 439.054688 200.09375 440.25 "/>
<path style=" stroke:none;fill-rule:nonzero;fill:rgb(100%,84.3%,0%);fill-opacity:1;" d="M 197.246094 441.960938 C 197.246094 443.152344 195.457031 443.152344 195.457031 441.960938 C 195.457031 440.765625 197.246094 440.765625 197.246094 441.960938 "/>
<path style=" stroke:none;fill-rule:nonzero;fill:rgb(100%,84.3%,0%);fill-opacity:1;" d="M 251.226562 500.441406 C 251.226562 501.636719 249.4375 501.636719 249.4375 500.441406 C 249.4375 499.246094 251.226562 499.246094 251.226562 500.441406 "/>
<path style=" stroke:none;fill-rule:nonzero;fill:rgb(100%,84.3%,0%);fill-opacity:1;" d="M 294.667969 503.363281 C 294.667969 504.558594 292.878906 504.558594 292.878906 503.363281 C 292.878906 502.167969 294.667969 502.167969 294.667969 503.363281 "/>
<path style=" stroke:none;fill-rule:nonzero;fill:rgb(100%,84.3%,0%);fill-opacity:1;" d="M 297.285156 438.523438 C 297.285156 439.71875 295.492188 439.71875 295.492188 438.523438 C 295.492188 437.332031 297.285156 437.332031 297.285156 438.523438 "/>
<path style=" stroke:none;fill-rule:nonzero;fill:rgb(100%,84.3%,0%);fill-opacity:1;" d="M 272.097656 440.308594 C 272.097656 441.503906 270.304688 441.503906 270.304688 440.308594 C 270.304688 439.113281 272.097656 439.113281 272.097656 440.308594 "/>
<path style=" stroke:none;fill-rule:nonzero;fill:rgb(100%,84.3%,0%);fill-opacity:1;" d="M 364.980469 502.90625 C 364.980469 504.101562 363.1875 504.101562 363.1875 502.90625 C 363.1875 501.710938 364.980469 501.710938 364.980469 502.90625 "/>
<path style=" stroke:none;fill-rule:nonzero;fill:rgb(100%,84.3%,0%);fill-opacity:1;" d="M 375.539062 503.367188 C 375.539062 504.558594 373.75 504.558594 373.75 503.367188 C 373.75 502.171875 375.539062 502.171875 375.539062 503.367188 "/>
<path style=" stroke:none;fill-rule:nonzero;fill:rgb(100%,84.3%,0%);fill-opacity:1;" d="M 380.09375 500.144531 C 380.09375 501.335938 378.304688 501.335938 378.304688 500.144531 C 378.304688 498.949219 380.09375 498.949219 380.09375 500.144531 "/>
<path style=" stroke:none;fill-rule:nonzero;fill:rgb(100%,84.3%,0%);fill-opacity:1;" d="M 283.695312 438.882812 C 283.695312 440.074219 281.902344 440.074219 281.902344 438.882812 C 281.902344 437.6875 283.695312 437.6875 283.695312 438.882812 "/>
<path style=" stroke:none;fill-rule:nonzero;fill:rgb(100%,84.3%,0%);fill-opacity:1;" d="M 373.605469 441.070312 C 373.605469 442.265625 371.8125 442.265625 371.8125 441.070312 C 371.8125 439.875 373.605469 439.875 373.605469 441.070312 "/>
<path style=" stroke:none;fill-rule:nonzero;fill:rgb(100%,84.3%,0%);fill-opacity:1;" d="M 461.507812 498.871094 C 461.507812 500.066406 459.71875 500.066406 459.71875 498.871094 C 459.71875 497.679688 461.507812 497.679688 461.507812 498.871094 "/>
<path style=" stroke:none;fill-rule:nonzero;fill:rgb(100%,84.3%,0%);fill-opacity:1;" d="M 308.210938 499.988281 C 308.210938 501.183594 306.421875 501.183594 306.421875 499.988281 C 306.421875 498.792969 308.210938 498.792969 308.210938 499.988281 "/>
<path style=" stroke:none;fill-rule:nonzero;fill:rgb(100%,84.3%,0%);fill-opacity:1;" d="M 397.425781 440.375 C 397.425781 441.566406 395.636719 441.566406 395.636719 440.375 C 395.636719 439.179688 397.425781 439.179688 397.425781 440.375 "/>
<path style=" stroke:none;fill-rule:nonzero;fill:rgb(100%,84.3%,0%);fill-opacity:1;" d="M 300.136719 498.496094 C 300.136719 499.6875 298.34375 499.6875 298.34375 498.496094 C 298.34375 497.300781 300.136719 497.300781 300.136719 498.496094 "/>
<path style=" stroke:none;fill-rule:nonzero;fill:rgb(100%,84.3%,0%);fill-opacity:1;" d="M 375.847656 440.265625 C 375.847656 441.457031 374.058594 441.457031 374.058594 440.265625 C 374.058594 439.070312 375.847656 439.070312 375.847656 440.265625 "/>
<path style=" stroke:none;fill-rule:nonzero;fill:rgb(100%,84.3%,0%);fill-opacity:1;" d="M 287.269531 439.097656 C 287.269531 440.289062 285.476562 440.289062 285.476562 439.097656 C 285.476562 437.902344 287.269531 437.902344 287.269531 439.097656 "/>
<path style=" stroke:none;fill-rule:nonzero;fill:rgb(100%,84.3%,0%);fill-opacity:1;" d="M 408.320312 438.523438 C 408.320312 439.71875 406.527344 439.71875 406.527344 438.523438 C 406.527344 437.332031 408.320312 437.332031 408.320312 438.523438 "/>
<path style=" stroke:none;fill-rule:nonzero;fill:rgb(100%,84.3%,0%);fill-opacity:1;" d="M 300.171875 503.367188 C 300.171875 504.558594 298.378906 504.558594 298.378906 503.367188 C 298.378906 502.171875 300.171875 502.171875 300.171875 503.367188 "/>
<path style=" stroke:none;fill-rule:nonzero;fill:rgb(100%,84.3%,0%);fill-opacity:1;" d="M 247.132812 503.367188 C 247.132812 504.558594 245.34375 504.558594 245.34375 503.367188 C 245.34375 502.171875 247.132812 502.171875 247.132812 503.367188 "/>
<path style=" stroke:none;fill-rule:nonzero;fill:rgb(100%,84.3%,0%);fill-opacity:1;" d="M 101.691406 503.367188 C 101.691406 504.558594 99.898438 504.558594 99.898438 503.367188 C 99.898438 502.171875 101.691406 502.171875 101.691406 503.367188 "/>
<path style=" stroke:none;fill-rule:nonzero;fill:rgb(100%,84.3%,0%);fill-opacity:1;" d="M 254.382812 501.269531 C 254.382812 502.464844 252.59375 502.464844 252.59375 501.269531 C 252.59375 500.074219 254.382812 500.074219 254.382812 501.269531 "/>
<path style=" stroke:none;fill-rule:nonzero;fill:rgb(100%,84.3%,0%);fill-opacity:1;" d="M 306.464844 496.828125 C 306.464844 498.019531 304.675781 498.019531 304.675781 496.828125 C 304.675781 495.632812 306.464844 495.632812 306.464844 496.828125 "/>
<path style=" stroke:none;fill-rule:nonzero;fill:rgb(100%,84.3%,0%);fill-opacity:1;" d="M 391.066406 438.71875 C 391.066406 439.914062 389.277344 439.914062 389.277344 438.71875 C 389.277344 437.523438 391.066406 437.523438 391.066406 438.71875 "/>
<path style=" stroke:none;fill-rule:nonzero;fill:rgb(100%,84.3%,0%);fill-opacity:1;" d="M 112.191406 500.910156 C 112.191406 502.101562 110.398438 502.101562 110.398438 500.910156 C 110.398438 499.714844 112.191406 499.714844 112.191406 500.910156 "/>
<path style=" stroke:none;fill-rule:nonzero;fill:rgb(100%,84.3%,0%);fill-opacity:1;" d="M 256.390625 502.960938 C 256.390625 504.15625 254.597656 504.15625 254.597656 502.960938 C 254.597656 501.769531 256.390625 501.769531 256.390625 502.960938 "/>
<path style=" stroke:none;fill-rule:nonzero;fill:rgb(100%,84.3%,0%);fill-opacity:1;" d="M 291.910156 438.535156 C 291.910156 439.726562 290.121094 439.726562 290.121094 438.535156 C 290.121094 437.339844 291.910156 437.339844 291.910156 438.535156 "/>
<path style=" stroke:none;fill-rule:nonzero;fill:rgb(100%,84.3%,0%);fill-opacity:1;" d="M 457.304688 503.367188 C 457.304688 504.558594 455.515625 504.558594 455.515625 503.367188 C 455.515625 502.171875 457.304688 502.171875 457.304688 503.367188 "/>
<path style=" stroke:none;fill-rule:nonzero;fill:rgb(100%,84.3%,0%);fill-opacity:1;" d="M 405.546875 440.5 C 405.546875 441.695312 403.757812 441.695312 403.757812 440.5 C 403.757812 439.308594 405.546875 439.308594 405.546875 440.5 "/>
<path style=" stroke:none;fill-rule:nonzero;fill:rgb(100%,84.3%,0%);fill-opacity:1;" d="M 304.1875 439.6875 C 304.1875 440.882812 302.394531 440.882812 302.394531 439.6875 C 302.394531 438.496094 304.1875 438.496094 304.1875 439.6875 "/>
<path style=" stroke:none;fill-rule:nonzero;fill:rgb(100%,84.3%,0%);fill-opacity:1;" d="M 287.035156 503.34375 C 287.035156 504.539062 285.246094 504.539062 285.246094 503.34375 C 285.246094 502.148438 287.035156 502.148438 287.035156 503.34375 "/>
<path style=" stroke:none;fill-rule:nonzero;fill:rgb(100%,84.3%,0%);fill-opacity:1;" d="M 465.449219 497.4375 C 465.449219 498.632812 463.65625 498.632812 463.65625 497.4375 C 463.65625 496.246094 465.449219 496.246094 465.449219 497.4375 "/>
<path style=" stroke:none;fill-rule:nonzero;fill:rgb(100%,84.3%,0%);fill-opacity:1;" d="M 305.570312 498.378906 C 305.570312 499.570312 303.78125 499.570312 303.78125 498.378906 C 303.78125 497.183594 305.570312 497.183594 305.570312 498.378906 "/>
<path style=" stroke:none;fill-rule:nonzero;fill:rgb(100%,84.3%,0%);fill-opacity:1;" d="M 439.722656 503.367188 C 439.722656 504.558594 437.929688 504.558594 437.929688 503.367188 C 437.929688 502.171875 439.722656 502.171875 439.722656 503.367188 "/>
<path style=" stroke:none;fill-rule:nonzero;fill:rgb(100%,84.3%,0%);fill-opacity:1;" d="M 409.714844 439.644531 C 409.714844 440.839844 407.925781 440.839844 407.925781 439.644531 C 407.925781 438.453125 409.714844 438.453125 409.714844 439.644531 "/>
<path style=" stroke:none;fill-rule:nonzero;fill:rgb(100%,84.3%,0%);fill-opacity:1;" d="M 392.570312 503.359375 C 392.570312 504.554688 390.777344 504.554688 390.777344 503.359375 C 390.777344 502.164062 392.570312 502.164062 392.570312 503.359375 "/>
<path style=" stroke:none;fill-rule:nonzero;fill:rgb(100%,84.3%,0%);fill-opacity:1;" d="M 456.558594 501.410156 C 456.558594 502.605469 454.769531 502.605469 454.769531 501.410156 C 454.769531 500.21875 456.558594 500.21875 456.558594 501.410156 "/>
<path style=" stroke:none;fill-rule:nonzero;fill:rgb(100%,84.3%,0%);fill-opacity:1;" d="M 339.105469 503.03125 C 339.105469 504.226562 337.316406 504.226562 337.316406 503.03125 C 337.316406 501.835938 339.105469 501.835938 339.105469 503.03125 "/>
<path style=" stroke:none;fill-rule:nonzero;fill:rgb(100%,84.3%,0%);fill-opacity:1;" d="M 441.847656 503.003906 C 441.847656 504.199219 440.054688 504.199219 440.054688 503.003906 C 440.054688 501.8125 441.847656 501.8125 441.847656 503.003906 "/>
<path style=" stroke:none;fill-rule:nonzero;fill:rgb(100%,84.3%,0%);fill-opacity:1;" d="M 200.578125 438.523438 C 200.578125 439.71875 198.789062 439.71875 198.789062 438.523438 C 198.789062 437.328125 200.578125 437.328125 200.578125 438.523438 "/>
<path style=" stroke:none;fill-rule:nonzero;fill:rgb(100%,84.3%,0%);fill-opacity:1;" d="M 303.753906 498.40625 C 303.753906 499.597656 301.960938 499.597656 301.960938 498.40625 C 301.960938 497.210938 303.753906 497.210938 303.753906 498.40625 "/>
<path style=" stroke:none;fill-rule:nonzero;fill:rgb(100%,84.3%,0%);fill-opacity:1;" d="M 312.277344 503.367188 C 312.277344 504.558594 310.488281 504.558594 310.488281 503.367188 C 310.488281 502.171875 312.277344 502.171875 312.277344 503.367188 "/>
<path style=" stroke:none;fill-rule:nonzero;fill:rgb(100%,84.3%,0%);fill-opacity:1;" d="M 305.535156 501.515625 C 305.535156 502.707031 303.746094 502.707031 303.746094 501.515625 C 303.746094 500.320312 305.535156 500.320312 305.535156 501.515625 "/>
<path style=" stroke:none;fill-rule:nonzero;fill:rgb(100%,84.3%,0%);fill-opacity:1;" d="M 106.449219 501.777344 C 106.449219 502.972656 104.660156 502.972656 104.660156 501.777344 C 104.660156 500.582031 106.449219 500.582031 106.449219 501.777344 "/>
<path style=" stroke:none;fill-rule:nonzero;fill:rgb(100%,84.3%,0%);fill-opacity:1;" d="M 201.722656 440.996094 C 201.722656 442.191406 199.929688 442.191406 199.929688 440.996094 C 199.929688 439.800781 201.722656 439.800781 201.722656 440.996094 "/>
<path style=" stroke:none;fill-rule:nonzero;fill:rgb(100%,84.3%,0%);fill-opacity:1;" d="M 304.15625 503.367188 C 304.15625 504.558594 302.367188 504.558594 302.367188 503.367188 C 302.367188 502.171875 304.15625 502.171875 304.15625 503.367188 "/>
<path style=" stroke:none;fill-rule:nonzero;fill:rgb(100%,84.3%,0%);fill-opacity:1;" d="M 270.496094 438.816406 C 270.496094 440.011719 268.707031 440.011719 268.707031 438.816406 C 268.707031 437.621094 270.496094 437.621094 270.496094 438.816406 "/>
<path style=" stroke:none;fill-rule:nonzero;fill:rgb(100%,84.3%,0%);fill-opacity:1;" d="M 305.613281 440.773438 C 305.613281 441.964844 303.824219 441.964844 303.824219 440.773438 C 303.824219 439.578125 305.613281 439.578125 305.613281 440.773438 "/>
<path style=" stroke:none;fill-rule:nonzero;fill:rgb(100%,84.3%,0%);fill-opacity:1;" d="M 79.105469 503.363281 C 79.105469 504.558594 77.316406 504.558594 77.316406 503.363281 C 77.316406 502.167969 79.105469 502.167969 79.105469 503.363281 "/>
<path style=" stroke:none;fill-rule:nonzero;fill:rgb(100%,84.3%,0%);fill-opacity:1;" d="M 309.121094 501.53125 C 309.121094 502.726562 307.332031 502.726562 307.332031 501.53125 C 307.332031 500.339844 309.121094 500.339844 309.121094 501.53125 "/>
<path style=" stroke:none;fill-rule:nonzero;fill:rgb(100%,84.3%,0%);fill-opacity:1;" d="M 114.121094 502.46875 C 114.121094 503.664062 112.332031 503.664062 112.332031 502.46875 C 112.332031 501.273438 114.121094 501.273438 114.121094 502.46875 "/>
<path style=" stroke:none;fill-rule:nonzero;fill:rgb(100%,84.3%,0%);fill-opacity:1;" d="M 425.984375 501.578125 C 425.984375 502.773438 424.195312 502.773438 424.195312 501.578125 C 424.195312 500.382812 425.984375 500.382812 425.984375 501.578125 "/>
<path style=" stroke:none;fill-rule:nonzero;fill:rgb(100%,84.3%,0%);fill-opacity:1;" d="M 331.976562 503.128906 C 331.976562 504.324219 330.183594 504.324219 330.183594 503.128906 C 330.183594 501.9375 331.976562 501.9375 331.976562 503.128906 "/>
<path style=" stroke:none;fill-rule:nonzero;fill:rgb(100%,84.3%,0%);fill-opacity:1;" d="M 292.761719 502.675781 C 292.761719 503.871094 290.96875 503.871094 290.96875 502.675781 C 290.96875 501.484375 292.761719 501.484375 292.761719 502.675781 "/>
<path style=" stroke:none;fill-rule:nonzero;fill:rgb(100%,84.3%,0%);fill-opacity:1;" d="M 299.191406 438.523438 C 299.191406 439.71875 297.402344 439.71875 297.402344 438.523438 C 297.402344 437.332031 299.191406 437.332031 299.191406 438.523438 "/>
<path style=" stroke:none;fill-rule:nonzero;fill:rgb(100%,84.3%,0%);fill-opacity:1;" d="M 81.71875 503.367188 C 81.71875 504.558594 79.929688 504.558594 79.929688 503.367188 C 79.929688 502.171875 81.71875 502.171875 81.71875 503.367188 "/>
<path style=" stroke:none;fill-rule:nonzero;fill:rgb(100%,84.3%,0%);fill-opacity:1;" d="M 103.746094 503.367188 C 103.746094 504.558594 101.953125 504.558594 101.953125 503.367188 C 101.953125 502.171875 103.746094 502.171875 103.746094 503.367188 "/>
<path style=" stroke:none;fill-rule:nonzero;fill:rgb(100%,84.3%,0%);fill-opacity:1;" d="M 397.402344 438.582031 C 397.402344 439.777344 395.613281 439.777344 395.613281 438.582031 C 395.613281 437.386719 397.402344 437.386719 397.402344 438.582031 "/>
<path style=" stroke:none;fill-rule:nonzero;fill:rgb(100%,84.3%,0%);fill-opacity:1;" d="M 422.523438 503.308594 C 422.523438 504.503906 420.734375 504.503906 420.734375 503.308594 C 420.734375 502.113281 422.523438 502.113281 422.523438 503.308594 "/>
<path style=" stroke:none;fill-rule:nonzero;fill:rgb(100%,84.3%,0%);fill-opacity:1;" d="M 387.898438 440.269531 C 387.898438 441.464844 386.105469 441.464844 386.105469 440.269531 C 386.105469 439.074219 387.898438 439.074219 387.898438 440.269531 "/>
<path style=" stroke:none;fill-rule:nonzero;fill:rgb(100%,84.3%,0%);fill-opacity:1;" d="M 296.359375 502.550781 C 296.359375 503.746094 294.570312 503.746094 294.570312 502.550781 C 294.570312 501.355469 296.359375 501.355469 296.359375 502.550781 "/>
<path style=" stroke:none;fill-rule:nonzero;fill:rgb(100%,84.3%,0%);fill-opacity:1;" d="M 301.035156 500.042969 C 301.035156 501.238281 299.246094 501.238281 299.246094 500.042969 C 299.246094 498.847656 301.035156 498.847656 301.035156 500.042969 "/>
<path style=" stroke:none;fill-rule:nonzero;fill:rgb(100%,84.3%,0%);fill-opacity:1;" d="M 249.164062 503.320312 C 249.164062 504.515625 247.371094 504.515625 247.371094 503.320312 C 247.371094 502.125 249.164062 502.125 249.164062 503.320312 "/>
<path style=" stroke:none;fill-rule:nonzero;fill:rgb(100%,84.3%,0%);fill-opacity:1;" d="M 461.839844 501.441406 C 461.839844 502.636719 460.046875 502.636719 460.046875 501.441406 C 460.046875 500.25 461.839844 500.25 461.839844 501.441406 "/>
<path style=" stroke:none;fill-rule:nonzero;fill:rgb(100%,84.3%,0%);fill-opacity:1;" d="M 318.851562 501.691406 C 318.851562 502.882812 317.058594 502.882812 317.058594 501.691406 C 317.058594 500.496094 318.851562 500.496094 318.851562 501.691406 "/>
<path style=" stroke:none;fill-rule:nonzero;fill:rgb(100%,84.3%,0%);fill-opacity:1;" d="M 363.664062 438.539062 C 363.664062 439.734375 361.871094 439.734375 361.871094 438.539062 C 361.871094 437.347656 363.664062 437.347656 363.664062 438.539062 "/>
<path style=" stroke:none;fill-rule:nonzero;fill:rgb(100%,84.3%,0%);fill-opacity:1;" d="M 309.976562 438.523438 C 309.976562 439.71875 308.183594 439.71875 308.183594 438.523438 C 308.183594 437.332031 309.976562 437.332031 309.976562 438.523438 "/>
<path style=" stroke:none;fill-rule:nonzero;fill:rgb(100%,84.3%,0%);fill-opacity:1;" d="M 258.179688 503.054688 C 258.179688 504.246094 256.386719 504.246094 256.386719 503.054688 C 256.386719 501.859375 258.179688 501.859375 258.179688 503.054688 "/>
<path style=" stroke:none;fill-rule:nonzero;fill:rgb(100%,84.3%,0%);fill-opacity:1;" d="M 326.761719 502.8125 C 326.761719 504.007812 324.972656 504.007812 324.972656 502.8125 C 324.972656 501.621094 326.761719 501.621094 326.761719 502.8125 "/>
<path style=" stroke:none;fill-rule:nonzero;fill:rgb(100%,84.3%,0%);fill-opacity:1;" d="M 295.640625 500.289062 C 295.640625 501.484375 293.847656 501.484375 293.847656 500.289062 C 293.847656 499.09375 295.640625 499.09375 295.640625 500.289062 "/>
<path style=" stroke:none;fill-rule:nonzero;fill:rgb(100%,84.3%,0%);fill-opacity:1;" d="M 70.023438 503.367188 C 70.023438 504.558594 68.230469 504.558594 68.230469 503.367188 C 68.230469 502.171875 70.023438 502.171875 70.023438 503.367188 "/>
<path style=" stroke:none;fill-rule:nonzero;fill:rgb(100%,84.3%,0%);fill-opacity:1;" d="M 413.085938 439.238281 C 413.085938 440.433594 411.292969 440.433594 411.292969 439.238281 C 411.292969 438.042969 413.085938 438.042969 413.085938 439.238281 "/>
<path style=" stroke:none;fill-rule:nonzero;fill:rgb(100%,84.3%,0%);fill-opacity:1;" d="M 324.746094 502.9375 C 324.746094 504.132812 322.957031 504.132812 322.957031 502.9375 C 322.957031 501.742188 324.746094 501.742188 324.746094 502.9375 "/>
<path style=" stroke:none;fill-rule:nonzero;fill:rgb(100%,84.3%,0%);fill-opacity:1;" d="M 272.265625 438.523438 C 272.265625 439.71875 270.472656 439.71875 270.472656 438.523438 C 270.472656 437.332031 272.265625 437.332031 272.265625 438.523438 "/>
<path style=" stroke:none;fill-rule:nonzero;fill:rgb(100%,84.3%,0%);fill-opacity:1;" d="M 373.800781 439.285156 C 373.800781 440.480469 372.007812 440.480469 372.007812 439.285156 C 372.007812 438.09375 373.800781 438.09375 373.800781 439.285156 "/>
<path style=" stroke:none;fill-rule:nonzero;fill:rgb(100%,84.3%,0%);fill-opacity:1;" d="M 194.859375 438.523438 C 194.859375 439.71875 193.066406 439.71875 193.066406 438.523438 C 193.066406 437.328125 194.859375 437.328125 194.859375 438.523438 "/>
<path style=" stroke:none;fill-rule:nonzero;fill:rgb(100%,84.3%,0%);fill-opacity:1;" d="M 381.113281 438.523438 C 381.113281 439.71875 379.324219 439.71875 379.324219 438.523438 C 379.324219 437.332031 381.113281 437.332031 381.113281 438.523438 "/>
<path style=" stroke:none;fill-rule:nonzero;fill:rgb(100%,84.3%,0%);fill-opacity:1;" d="M 313.628906 500.574219 C 313.628906 501.769531 311.835938 501.769531 311.835938 500.574219 C 311.835938 499.378906 313.628906 499.378906 313.628906 500.574219 "/>
<path style=" stroke:none;fill-rule:nonzero;fill:rgb(100%,84.3%,0%);fill-opacity:1;" d="M 462.90625 499.996094 C 462.90625 501.191406 461.113281 501.191406 461.113281 499.996094 C 461.113281 498.804688 462.90625 498.804688 462.90625 499.996094 "/>
<path style=" stroke:none;fill-rule:nonzero;fill:rgb(100%,84.3%,0%);fill-opacity:1;" d="M 115.671875 501.570312 C 115.671875 502.765625 113.878906 502.765625 113.878906 501.570312 C 113.878906 500.375 115.671875 500.375 115.671875 501.570312 "/>
<path style=" stroke:none;fill-rule:nonzero;fill:rgb(100%,84.3%,0%);fill-opacity:1;" d="M 399.132812 439.570312 C 399.132812 440.761719 397.339844 440.761719 397.339844 439.570312 C 397.339844 438.375 399.132812 438.375 399.132812 439.570312 "/>
<path style=" stroke:none;fill-rule:nonzero;fill:rgb(100%,84.3%,0%);fill-opacity:1;" d="M 464.691406 500.140625 C 464.691406 501.335938 462.902344 501.335938 462.902344 500.140625 C 462.902344 498.945312 464.691406 498.945312 464.691406 500.140625 "/>
<path style=" stroke:none;fill-rule:nonzero;fill:rgb(100%,84.3%,0%);fill-opacity:1;" d="M 73.730469 503.367188 C 73.730469 504.558594 71.9375 504.558594 71.9375 503.367188 C 71.9375 502.171875 73.730469 502.171875 73.730469 503.367188 "/>
<path style=" stroke:none;fill-rule:nonzero;fill:rgb(100%,84.3%,0%);fill-opacity:1;" d="M 85.234375 503.347656 C 85.234375 504.542969 83.445312 504.542969 83.445312 503.347656 C 83.445312 502.152344 85.234375 502.152344 85.234375 503.347656 "/>
<path style=" stroke:none;fill-rule:nonzero;fill:rgb(100%,84.3%,0%);fill-opacity:1;" d="M 343.027344 501.847656 C 343.027344 503.042969 341.238281 503.042969 341.238281 501.847656 C 341.238281 500.652344 343.027344 500.652344 343.027344 501.847656 "/>
<path style=" stroke:none;fill-rule:nonzero;fill:rgb(100%,84.3%,0%);fill-opacity:1;" d="M 301.964844 498.511719 C 301.964844 499.707031 300.175781 499.707031 300.175781 498.511719 C 300.175781 497.316406 301.964844 497.316406 301.964844 498.511719 "/>
<path style=" stroke:none;fill-rule:nonzero;fill:rgb(100%,84.3%,0%);fill-opacity:1;" d="M 189.484375 438.804688 C 189.484375 440 187.691406 440 187.691406 438.804688 C 187.691406 437.613281 189.484375 437.613281 189.484375 438.804688 "/>
<path style=" stroke:none;fill-rule:nonzero;fill:rgb(100%,84.3%,0%);fill-opacity:1;" d="M 204.023438 438.523438 C 204.023438 439.71875 202.230469 439.71875 202.230469 438.523438 C 202.230469 437.328125 204.023438 437.328125 204.023438 438.523438 "/>
<path style=" stroke:none;fill-rule:nonzero;fill:rgb(100%,84.3%,0%);fill-opacity:1;" d="M 45.355469 501.207031 C 45.355469 502.402344 43.5625 502.402344 43.5625 501.207031 C 43.5625 500.011719 45.355469 500.011719 45.355469 501.207031 "/>
<path style=" stroke:none;fill-rule:nonzero;fill:rgb(100%,84.3%,0%);fill-opacity:1;" d="M 468.425781 503.367188 C 468.425781 504.558594 466.632812 504.558594 466.632812 503.367188 C 466.632812 502.171875 468.425781 502.171875 468.425781 503.367188 "/>
<path style=" stroke:none;fill-rule:nonzero;fill:rgb(100%,84.3%,0%);fill-opacity:1;" d="M 443.609375 503.367188 C 443.609375 504.558594 441.820312 504.558594 441.820312 503.367188 C 441.820312 502.171875 443.609375 502.171875 443.609375 503.367188 "/>
<path style=" stroke:none;fill-rule:nonzero;fill:rgb(100%,84.3%,0%);fill-opacity:1;" d="M 395.554688 438.800781 C 395.554688 439.996094 393.761719 439.996094 393.761719 438.800781 C 393.761719 437.609375 395.554688 437.609375 395.554688 438.800781 "/>
<path style=" stroke:none;fill-rule:nonzero;fill:rgb(100%,84.3%,0%);fill-opacity:1;" d="M 243.574219 503.089844 C 243.574219 504.285156 241.785156 504.285156 241.785156 503.089844 C 241.785156 501.894531 243.574219 501.894531 243.574219 503.089844 "/>
<path style=" stroke:none;fill-rule:nonzero;fill:rgb(100%,84.3%,0%);fill-opacity:1;" d="M 458.738281 500.863281 C 458.738281 502.058594 456.945312 502.058594 456.945312 500.863281 C 456.945312 499.667969 458.738281 499.667969 458.738281 500.863281 "/>
<path style=" stroke:none;fill-rule:nonzero;fill:rgb(100%,84.3%,0%);fill-opacity:1;" d="M 406.488281 438.523438 C 406.488281 439.71875 404.695312 439.71875 404.695312 438.523438 C 404.695312 437.328125 406.488281 437.328125 406.488281 438.523438 "/>
<path style=" stroke:none;fill-rule:nonzero;fill:rgb(100%,84.3%,0%);fill-opacity:1;" d="M 433.71875 502.941406 C 433.71875 504.136719 431.925781 504.136719 431.925781 502.941406 C 431.925781 501.746094 433.71875 501.746094 433.71875 502.941406 "/>
<path style=" stroke:none;fill-rule:nonzero;fill:rgb(100%,84.3%,0%);fill-opacity:1;" d="M 302.828125 500.085938 C 302.828125 501.277344 301.039062 501.277344 301.039062 500.085938 C 301.039062 498.890625 302.828125 498.890625 302.828125 500.085938 "/>
<path style=" stroke:none;fill-rule:nonzero;fill:rgb(100%,84.3%,0%);fill-opacity:1;" d="M 385.546875 502.550781 C 385.546875 503.746094 383.753906 503.746094 383.753906 502.550781 C 383.753906 501.359375 385.546875 501.359375 385.546875 502.550781 "/>
<path style=" stroke:none;fill-rule:nonzero;fill:rgb(100%,84.3%,0%);fill-opacity:1;" d="M 68.234375 503.367188 C 68.234375 504.558594 66.441406 504.558594 66.441406 503.367188 C 66.441406 502.171875 68.234375 502.171875 68.234375 503.367188 "/>
<path style=" stroke:none;fill-rule:nonzero;fill:rgb(100%,84.3%,0%);fill-opacity:1;" d="M 305.652344 438.523438 C 305.652344 439.71875 303.863281 439.71875 303.863281 438.523438 C 303.863281 437.332031 305.652344 437.332031 305.652344 438.523438 "/>
<path style=" stroke:none;fill-rule:nonzero;fill:rgb(100%,84.3%,0%);fill-opacity:1;" d="M 348.742188 503.277344 C 348.742188 504.46875 346.953125 504.46875 346.953125 503.277344 C 346.953125 502.082031 348.742188 502.082031 348.742188 503.277344 "/>
<path style=" stroke:none;fill-rule:nonzero;fill:rgb(100%,84.3%,0%);fill-opacity:1;" d="M 303.746094 501.621094 C 303.746094 502.816406 301.957031 502.816406 301.957031 501.621094 C 301.957031 500.429688 303.746094 500.429688 303.746094 501.621094 "/>
<path style=" stroke:none;fill-rule:nonzero;fill:rgb(100%,84.3%,0%);fill-opacity:1;" d="M 307.363281 498.410156 C 307.363281 499.605469 305.570312 499.605469 305.570312 498.410156 C 305.570312 497.214844 307.363281 497.214844 307.363281 498.410156 "/>
<path style=" stroke:none;fill-rule:nonzero;fill:rgb(100%,84.3%,0%);fill-opacity:1;" d="M 378.558594 503.367188 C 378.558594 504.558594 376.765625 504.558594 376.765625 503.367188 C 376.765625 502.171875 378.558594 502.171875 378.558594 503.367188 "/>
<path style=" stroke:none;fill-rule:nonzero;fill:rgb(100%,84.3%,0%);fill-opacity:1;" d="M 452.03125 500.183594 C 452.03125 501.375 450.242188 501.375 450.242188 500.183594 C 450.242188 498.988281 452.03125 498.988281 452.03125 500.183594 "/>
<path style=" stroke:none;fill-rule:nonzero;fill:rgb(100%,84.3%,0%);fill-opacity:1;" d="M 347.144531 501.585938 C 347.144531 502.777344 345.351562 502.777344 345.351562 501.585938 C 345.351562 500.390625 347.144531 500.390625 347.144531 501.585938 "/>
<path style=" stroke:none;fill-rule:nonzero;fill:rgb(100%,84.3%,0%);fill-opacity:1;" d="M 414.925781 438.523438 C 414.925781 439.71875 413.132812 439.71875 413.132812 438.523438 C 413.132812 437.328125 414.925781 437.328125 414.925781 438.523438 "/>
<path style=" stroke:none;fill-rule:nonzero;fill:rgb(100%,84.3%,0%);fill-opacity:1;" d="M 448.707031 500.367188 C 448.707031 501.5625 446.917969 501.5625 446.917969 500.367188 C 446.917969 499.171875 448.707031 499.171875 448.707031 500.367188 "/>
<path style=" stroke:none;fill-rule:nonzero;fill:rgb(100%,84.3%,0%);fill-opacity:1;" d="M 341.136719 501.59375 C 341.136719 502.789062 339.347656 502.789062 339.347656 501.59375 C 339.347656 500.402344 341.136719 500.402344 341.136719 501.59375 "/>
<path style=" stroke:none;fill-rule:nonzero;fill:rgb(100%,84.3%,0%);fill-opacity:1;" d="M 446.730469 503.367188 C 446.730469 504.558594 444.9375 504.558594 444.9375 503.367188 C 444.9375 502.171875 446.730469 502.171875 446.730469 503.367188 "/>
<path style=" stroke:none;fill-rule:nonzero;fill:rgb(100%,84.3%,0%);fill-opacity:1;" d="M 62.117188 503.355469 C 62.117188 504.550781 60.328125 504.550781 60.328125 503.355469 C 60.328125 502.160156 62.117188 502.160156 62.117188 503.355469 "/>
<path style=" stroke:none;fill-rule:nonzero;fill:rgb(100%,84.3%,0%);fill-opacity:1;" d="M 433.472656 501.164062 C 433.472656 502.359375 431.679688 502.359375 431.679688 501.164062 C 431.679688 499.972656 433.472656 499.972656 433.472656 501.164062 "/>
<path style=" stroke:none;fill-rule:nonzero;fill:rgb(100%,84.3%,0%);fill-opacity:1;" d="M 448.667969 503.363281 C 448.667969 504.558594 446.875 504.558594 446.875 503.363281 C 446.875 502.167969 448.667969 502.167969 448.667969 503.363281 "/>
<path style=" stroke:none;fill-rule:nonzero;fill:rgb(100%,84.3%,0%);fill-opacity:1;" d="M 379.109375 501.660156 C 379.109375 502.855469 377.320312 502.855469 377.320312 501.660156 C 377.320312 500.46875 379.109375 500.46875 379.109375 501.660156 "/>
<path style=" stroke:none;fill-rule:nonzero;fill:rgb(100%,84.3%,0%);fill-opacity:1;" d="M 259.941406 503.367188 C 259.941406 504.558594 258.152344 504.558594 258.152344 503.367188 C 258.152344 502.171875 259.941406 502.171875 259.941406 503.367188 "/>
<path style=" stroke:none;fill-rule:nonzero;fill:rgb(100%,84.3%,0%);fill-opacity:1;" d="M 326.4375 501.054688 C 326.4375 502.246094 324.644531 502.246094 324.644531 501.054688 C 324.644531 499.859375 326.4375 499.859375 326.4375 501.054688 "/>
<path style=" stroke:none;fill-rule:nonzero;fill:rgb(100%,84.3%,0%);fill-opacity:1;" d="M 110.855469 502.105469 C 110.855469 503.296875 109.0625 503.296875 109.0625 502.105469 C 109.0625 500.910156 110.855469 500.910156 110.855469 502.105469 "/>
<path style=" stroke:none;fill-rule:nonzero;fill:rgb(100%,84.3%,0%);fill-opacity:1;" d="M 280.445312 439.535156 C 280.445312 440.730469 278.652344 440.730469 278.652344 439.535156 C 278.652344 438.339844 280.445312 438.339844 280.445312 439.535156 "/>
<path style=" stroke:none;fill-rule:nonzero;fill:rgb(100%,84.3%,0%);fill-opacity:1;" d="M 293.703125 438.542969 C 293.703125 439.738281 291.910156 439.738281 291.910156 438.542969 C 291.910156 437.351562 293.703125 437.351562 293.703125 438.542969 "/>
<path style=" stroke:none;fill-rule:nonzero;fill:rgb(100%,84.3%,0%);fill-opacity:1;" d="M 467.820312 496.34375 C 467.820312 497.535156 466.03125 497.535156 466.03125 496.34375 C 466.03125 495.148438 467.820312 495.148438 467.820312 496.34375 "/>
<path style=" stroke:none;fill-rule:nonzero;fill:rgb(100%,84.3%,0%);fill-opacity:1;" d="M 460.441406 500.308594 C 460.441406 501.503906 458.652344 501.503906 458.652344 500.308594 C 458.652344 499.117188 460.441406 499.117188 460.441406 500.308594 "/>
<path style=" stroke:none;fill-rule:nonzero;fill:rgb(100%,84.3%,0%);fill-opacity:1;" d="M 307.253906 502.019531 C 307.253906 503.214844 305.460938 503.214844 305.460938 502.019531 C 305.460938 500.824219 307.253906 500.824219 307.253906 502.019531 "/>
<path style=" stroke:none;fill-rule:nonzero;fill:rgb(100%,84.3%,0%);fill-opacity:1;" d="M 310.308594 502.875 C 310.308594 504.066406 308.519531 504.066406 308.519531 502.875 C 308.519531 501.679688 310.308594 501.679688 310.308594 502.875 "/>
<path style=" stroke:none;fill-rule:nonzero;fill:rgb(100%,84.3%,0%);fill-opacity:1;" d="M 464.566406 503.367188 C 464.566406 504.558594 462.773438 504.558594 462.773438 503.367188 C 462.773438 502.171875 464.566406 502.171875 464.566406 503.367188 "/>
<path style=" stroke:none;fill-rule:nonzero;fill:rgb(100%,84.3%,0%);fill-opacity:1;" d="M 309.992188 499.769531 C 309.992188 500.964844 308.203125 500.964844 308.203125 499.769531 C 308.203125 498.578125 309.992188 498.578125 309.992188 499.769531 "/>
<path style=" stroke:none;fill-rule:nonzero;fill:rgb(100%,84.3%,0%);fill-opacity:1;" d="M 302.101562 440.164062 C 302.101562 441.355469 300.3125 441.355469 300.3125 440.164062 C 300.3125 438.96875 302.101562 438.96875 302.101562 440.164062 "/>
<path style=" stroke:none;fill-rule:nonzero;fill:rgb(100%,84.3%,0%);fill-opacity:1;" d="M 275.910156 440.21875 C 275.910156 441.414062 274.117188 441.414062 274.117188 440.21875 C 274.117188 439.023438 275.910156 439.023438 275.910156 440.21875 "/>
<path style=" stroke:none;fill-rule:nonzero;fill:rgb(100%,84.3%,0%);fill-opacity:1;" d="M 292.164062 500.933594 C 292.164062 502.128906 290.375 502.128906 290.375 500.933594 C 290.375 499.742188 292.164062 499.742188 292.164062 500.933594 "/>
<path style=" stroke:none;fill-rule:nonzero;fill:rgb(100%,84.3%,0%);fill-opacity:1;" d="M 431.726562 501.59375 C 431.726562 502.789062 429.9375 502.789062 429.9375 501.59375 C 429.9375 500.398438 431.726562 500.398438 431.726562 501.59375 "/>
<path style=" stroke:none;fill-rule:nonzero;fill:rgb(100%,84.3%,0%);fill-opacity:1;" d="M 290.632812 502.664062 C 290.632812 503.859375 288.839844 503.859375 288.839844 502.664062 C 288.839844 501.472656 290.632812 501.472656 290.632812 502.664062 "/>
<path style=" stroke:none;fill-rule:nonzero;fill:rgb(100%,84.3%,0%);fill-opacity:1;" d="M 252.902344 499.800781 C 252.902344 500.996094 251.109375 500.996094 251.109375 499.800781 C 251.109375 498.605469 252.902344 498.605469 252.902344 499.800781 "/>
<path style=" stroke:none;fill-rule:nonzero;fill:rgb(100%,84.3%,0%);fill-opacity:1;" d="M 77.308594 503.253906 C 77.308594 504.445312 75.519531 504.445312 75.519531 503.253906 C 75.519531 502.058594 77.308594 502.058594 77.308594 503.253906 "/>
<path style=" stroke:none;fill-rule:nonzero;fill:rgb(100%,84.3%,0%);fill-opacity:1;" d="M 119.726562 503.363281 C 119.726562 504.558594 117.933594 504.558594 117.933594 503.363281 C 117.933594 502.167969 119.726562 502.167969 119.726562 503.363281 "/>
<path style=" stroke:none;fill-rule:nonzero;fill:rgb(100%,84.3%,0%);fill-opacity:1;" d="M 76.832031 501.515625 C 76.832031 502.710938 75.039062 502.710938 75.039062 501.515625 C 75.039062 500.324219 76.832031 500.324219 76.832031 501.515625 "/>
<path style=" stroke:none;fill-rule:nonzero;fill:rgb(100%,84.3%,0%);fill-opacity:1;" d="M 407.691406 440.203125 C 407.691406 441.398438 405.902344 441.398438 405.902344 440.203125 C 405.902344 439.011719 407.691406 439.011719 407.691406 440.203125 "/>
<path style=" stroke:none;fill-rule:nonzero;fill:rgb(100%,84.3%,0%);fill-opacity:1;" d="M 392.265625 440.3125 C 392.265625 441.507812 390.472656 441.507812 390.472656 440.3125 C 390.472656 439.117188 392.265625 439.117188 392.265625 440.3125 "/>
<path style=" stroke:none;fill-rule:nonzero;fill:rgb(100%,84.3%,0%);fill-opacity:1;" d="M 307.273438 439.289062 C 307.273438 440.484375 305.480469 440.484375 305.480469 439.289062 C 305.480469 438.097656 307.273438 438.097656 307.273438 439.289062 "/>
<path style=" stroke:none;fill-rule:nonzero;fill:rgb(100%,84.3%,0%);fill-opacity:1;" d="M 382.289062 441.398438 C 382.289062 442.589844 380.5 442.589844 380.5 441.398438 C 380.5 440.203125 382.289062 440.203125 382.289062 441.398438 "/>
<path style=" stroke:none;fill-rule:nonzero;fill:rgb(100%,84.3%,0%);fill-opacity:1;" d="M 384.132812 438.726562 C 384.132812 439.921875 382.34375 439.921875 382.34375 438.726562 C 382.34375 437.535156 384.132812 437.535156 384.132812 438.726562 "/>
<path style=" stroke:none;fill-rule:nonzero;fill:rgb(100%,84.3%,0%);fill-opacity:1;" d="M 273.800781 439.460938 C 273.800781 440.65625 272.007812 440.65625 272.007812 439.460938 C 272.007812 438.269531 273.800781 438.269531 273.800781 439.460938 "/>
<path style=" stroke:none;fill-rule:nonzero;fill:rgb(100%,84.3%,0%);fill-opacity:1;" d="M 252.835938 503.367188 C 252.835938 504.558594 251.046875 504.558594 251.046875 503.367188 C 251.046875 502.171875 252.835938 502.171875 252.835938 503.367188 "/>
<path style=" stroke:none;fill-rule:nonzero;fill:rgb(100%,84.3%,0%);fill-opacity:1;" d="M 328.597656 503.367188 C 328.597656 504.558594 326.808594 504.558594 326.808594 503.367188 C 326.808594 502.171875 328.597656 502.171875 328.597656 503.367188 "/>
<path style=" stroke:none;fill-rule:nonzero;fill:rgb(100%,84.3%,0%);fill-opacity:1;" d="M 75.523438 503.367188 C 75.523438 504.558594 73.730469 504.558594 73.730469 503.367188 C 73.730469 502.171875 75.523438 502.171875 75.523438 503.367188 "/>
<path style=" stroke:none;fill-rule:nonzero;fill:rgb(100%,84.3%,0%);fill-opacity:1;" d="M 462.78125 503.222656 C 462.78125 504.417969 460.988281 504.417969 460.988281 503.222656 C 460.988281 502.027344 462.78125 502.027344 462.78125 503.222656 "/>
<path style=" stroke:none;fill-rule:nonzero;fill:rgb(100%,84.3%,0%);fill-opacity:1;" d="M 346.953125 503.367188 C 346.953125 504.558594 345.164062 504.558594 345.164062 503.367188 C 345.164062 502.171875 346.953125 502.171875 346.953125 503.367188 "/>
<path style=" stroke:none;fill-rule:nonzero;fill:rgb(100%,84.3%,0%);fill-opacity:1;" d="M 392.855469 438.621094 C 392.855469 439.816406 391.0625 439.816406 391.0625 438.621094 C 391.0625 437.429688 392.855469 437.429688 392.855469 438.621094 "/>
<path style=" stroke:none;fill-rule:nonzero;fill:rgb(100%,84.3%,0%);fill-opacity:1;" d="M 368.308594 503.367188 C 368.308594 504.558594 366.515625 504.558594 366.515625 503.367188 C 366.515625 502.171875 368.308594 502.171875 368.308594 503.367188 "/>
<path style=" stroke:none;fill-rule:nonzero;fill:rgb(100%,84.3%,0%);fill-opacity:1;" d="M 316.675781 502.453125 C 316.675781 503.644531 314.886719 503.644531 314.886719 502.453125 C 314.886719 501.257812 316.675781 501.257812 316.675781 502.453125 "/>
<path style=" stroke:none;fill-rule:nonzero;fill:rgb(100%,84.3%,0%);fill-opacity:1;" d="M 71.878906 500.488281 C 71.878906 501.679688 70.089844 501.679688 70.089844 500.488281 C 70.089844 499.292969 71.878906 499.292969 71.878906 500.488281 "/>
<path style=" stroke:none;fill-rule:nonzero;fill:rgb(100%,84.3%,0%);fill-opacity:1;" d="M 193.097656 438.851562 C 193.097656 440.046875 191.304688 440.046875 191.304688 438.851562 C 191.304688 437.660156 193.097656 437.660156 193.097656 438.851562 "/>
<path style=" stroke:none;fill-rule:nonzero;fill:rgb(100%,84.3%,0%);fill-opacity:1;" d="M 383.789062 442.378906 C 383.789062 443.570312 381.996094 443.570312 381.996094 442.378906 C 381.996094 441.183594 383.789062 441.183594 383.789062 442.378906 "/>
<path style=" stroke:none;fill-rule:nonzero;fill:rgb(100%,84.3%,0%);fill-opacity:1;" d="M 296.546875 498.472656 C 296.546875 499.667969 294.753906 499.667969 294.753906 498.472656 C 294.753906 497.277344 296.546875 497.277344 296.546875 498.472656 "/>
<path style=" stroke:none;fill-rule:nonzero;fill:rgb(100%,84.3%,0%);fill-opacity:1;" d="M 96.859375 503.335938 C 96.859375 504.53125 95.066406 504.53125 95.066406 503.335938 C 95.066406 502.144531 96.859375 502.144531 96.859375 503.335938 "/>
<path style=" stroke:none;fill-rule:nonzero;fill:rgb(100%,84.3%,0%);fill-opacity:1;" d="M 70.507812 501.640625 C 70.507812 502.835938 68.71875 502.835938 68.71875 501.640625 C 68.71875 500.449219 70.507812 500.449219 70.507812 501.640625 "/>
<path style=" stroke:none;fill-rule:nonzero;fill:rgb(100%,84.3%,0%);fill-opacity:1;" d="M 411.199219 440.652344 C 411.199219 441.847656 409.40625 441.847656 409.40625 440.652344 C 409.40625 439.457031 411.199219 439.457031 411.199219 440.652344 "/>
<path style=" stroke:none;fill-rule:nonzero;fill:rgb(100%,84.3%,0%);fill-opacity:1;" d="M 411.339844 438.835938 C 411.339844 440.03125 409.546875 440.03125 409.546875 438.835938 C 409.546875 437.640625 411.339844 437.640625 411.339844 438.835938 "/>
<path style=" stroke:none;fill-rule:nonzero;fill:rgb(100%,84.3%,0%);fill-opacity:1;" d="M 207.730469 438.527344 C 207.730469 439.71875 205.9375 439.71875 205.9375 438.527344 C 205.9375 437.332031 207.730469 437.332031 207.730469 438.527344 "/>
<path style=" stroke:none;fill-rule:nonzero;fill:rgb(100%,84.3%,0%);fill-opacity:1;" d="M 375.4375 501.578125 C 375.4375 502.773438 373.644531 502.773438 373.644531 501.578125 C 373.644531 500.382812 375.4375 500.382812 375.4375 501.578125 "/>
<path style=" stroke:none;fill-rule:nonzero;fill:rgb(100%,84.3%,0%);fill-opacity:1;" d="M 289.667969 438.523438 C 289.667969 439.71875 287.875 439.71875 287.875 438.523438 C 287.875 437.332031 289.667969 437.332031 289.667969 438.523438 "/>
<path style=" stroke:none;fill-rule:nonzero;fill:rgb(100%,84.3%,0%);fill-opacity:1;" d="M 321.863281 503.367188 C 321.863281 504.558594 320.074219 504.558594 320.074219 503.367188 C 320.074219 502.171875 321.863281 502.171875 321.863281 503.367188 "/>
<path style=" stroke:none;fill-rule:nonzero;fill:rgb(100%,84.3%,0%);fill-opacity:1;" d="M 205.9375 438.65625 C 205.9375 439.851562 204.144531 439.851562 204.144531 438.65625 C 204.144531 437.464844 205.9375 437.464844 205.9375 438.65625 "/>
<path style=" stroke:none;fill-rule:nonzero;fill:rgb(100%,84.3%,0%);fill-opacity:1;" d="M 104.304688 501.664062 C 104.304688 502.859375 102.515625 502.859375 102.515625 501.664062 C 102.515625 500.472656 104.304688 500.472656 104.304688 501.664062 "/>
<path style=" stroke:none;fill-rule:nonzero;fill:rgb(100%,84.3%,0%);fill-opacity:1;" d="M 402.835938 438.523438 C 402.835938 439.71875 401.046875 439.71875 401.046875 438.523438 C 401.046875 437.328125 402.835938 437.328125 402.835938 438.523438 "/>
<path style=" stroke:none;fill-rule:nonzero;fill:rgb(100%,84.3%,0%);fill-opacity:1;" d="M 387.488281 438.523438 C 387.488281 439.71875 385.699219 439.71875 385.699219 438.523438 C 385.699219 437.328125 387.488281 437.328125 387.488281 438.523438 "/>
<path style=" stroke:none;fill-rule:nonzero;fill:rgb(100%,84.3%,0%);fill-opacity:1;" d="M 302.285156 503.367188 C 302.285156 504.558594 300.492188 504.558594 300.492188 503.367188 C 300.492188 502.171875 302.285156 502.171875 302.285156 503.367188 "/>
<path style=" stroke:none;fill-rule:nonzero;fill:rgb(100%,84.3%,0%);fill-opacity:1;" d="M 361.339844 502.5625 C 361.339844 503.757812 359.546875 503.757812 359.546875 502.5625 C 359.546875 501.367188 361.339844 501.367188 361.339844 502.5625 "/>
<path style=" stroke:none;fill-rule:nonzero;fill:rgb(100%,84.3%,0%);fill-opacity:1;" d="M 459.210938 503.109375 C 459.210938 504.300781 457.417969 504.300781 457.417969 503.109375 C 457.417969 501.914062 459.210938 501.914062 459.210938 503.109375 "/>
<path style=" stroke:none;fill-rule:nonzero;fill:rgb(100%,84.3%,0%);fill-opacity:1;" d="M 445.171875 502.480469 C 445.171875 503.675781 443.382812 503.675781 443.382812 502.480469 C 443.382812 501.285156 445.171875 501.285156 445.171875 502.480469 "/>
<path style=" stroke:none;fill-rule:nonzero;fill:rgb(100%,84.3%,0%);fill-opacity:1;" d="M 73.78125 499.929688 C 73.78125 501.125 71.992188 501.125 71.992188 499.929688 C 71.992188 498.734375 73.78125 498.734375 73.78125 499.929688 "/>
<path style=" stroke:none;fill-rule:nonzero;fill:rgb(100%,84.3%,0%);fill-opacity:1;" d="M 245.367188 503.085938 C 245.367188 504.28125 243.574219 504.28125 243.574219 503.085938 C 243.574219 501.890625 245.367188 501.890625 245.367188 503.085938 "/>
<path style=" stroke:none;fill-rule:nonzero;fill:rgb(100%,84.3%,0%);fill-opacity:1;" d="M 378.210938 440.285156 C 378.210938 441.480469 376.421875 441.480469 376.421875 440.285156 C 376.421875 439.09375 378.210938 439.09375 378.210938 440.285156 "/>
<path style=" stroke:none;fill-rule:nonzero;fill:rgb(100%,84.3%,0%);fill-opacity:1;" d="M 66.929688 501.5 C 66.929688 502.691406 65.140625 502.691406 65.140625 501.5 C 65.140625 500.304688 66.929688 500.304688 66.929688 501.5 "/>
<path style=" stroke:none;fill-rule:nonzero;fill:rgb(100%,84.3%,0%);fill-opacity:1;" d="M 184.832031 438.527344 C 184.832031 439.71875 183.039062 439.71875 183.039062 438.527344 C 183.039062 437.332031 184.832031 437.332031 184.832031 438.527344 "/>
<path style=" stroke:none;fill-rule:nonzero;fill:rgb(100%,84.3%,0%);fill-opacity:1;" d="M 400.757812 438.816406 C 400.757812 440.011719 398.964844 440.011719 398.964844 438.816406 C 398.964844 437.621094 400.757812 437.621094 400.757812 438.816406 "/>
<path style=" stroke:none;fill-rule:nonzero;fill:rgb(100%,84.3%,0%);fill-opacity:1;" d="M 204.390625 440.277344 C 204.390625 441.472656 202.601562 441.472656 202.601562 440.277344 C 202.601562 439.082031 204.390625 439.082031 204.390625 440.277344 "/>
<path style=" stroke:none;fill-rule:nonzero;fill:rgb(100%,84.3%,0%);fill-opacity:1;" d="M 328.550781 501.574219 C 328.550781 502.769531 326.761719 502.769531 326.761719 501.574219 C 326.761719 500.378906 328.550781 500.378906 328.550781 501.574219 "/>
<path style=" stroke:none;fill-rule:nonzero;fill:rgb(100%,84.3%,0%);fill-opacity:1;" d="M 430.058594 503.339844 C 430.058594 504.53125 428.265625 504.53125 428.265625 503.339844 C 428.265625 502.144531 430.058594 502.144531 430.058594 503.339844 "/>
<path style=" stroke:none;fill-rule:nonzero;fill:rgb(100%,84.3%,0%);fill-opacity:1;" d="M 467.714844 498.128906 C 467.714844 499.324219 465.921875 499.324219 465.921875 498.128906 C 465.921875 496.9375 467.714844 496.9375 467.714844 498.128906 "/>
<path style=" stroke:none;fill-rule:nonzero;fill:rgb(100%,84.3%,0%);fill-opacity:1;" d="M 277.152344 438.523438 C 277.152344 439.71875 275.363281 439.71875 275.363281 438.523438 C 275.363281 437.328125 277.152344 437.328125 277.152344 438.523438 "/>
<path style=" stroke:none;fill-rule:nonzero;fill:rgb(100%,84.3%,0%);fill-opacity:1;" d="M 373.75 503.285156 C 373.75 504.480469 371.957031 504.480469 371.957031 503.285156 C 371.957031 502.09375 373.75 502.09375 373.75 503.285156 "/>
<path style=" stroke:none;fill-rule:nonzero;fill:rgb(100%,84.3%,0%);fill-opacity:1;" d="M 108.597656 501.835938 C 108.597656 503.027344 106.808594 503.027344 106.808594 501.835938 C 106.808594 500.640625 108.597656 500.640625 108.597656 501.835938 "/>
<path style=" stroke:none;fill-rule:nonzero;fill:rgb(100%,84.3%,0%);fill-opacity:1;" d="M 388.992188 503.167969 C 388.992188 504.359375 387.199219 504.359375 387.199219 503.167969 C 387.199219 501.972656 388.992188 501.972656 388.992188 503.167969 "/>
<path style=" stroke:none;fill-rule:nonzero;fill:rgb(100%,84.3%,0%);fill-opacity:1;" d="M 370.167969 503.3125 C 370.167969 504.507812 368.375 504.507812 368.375 503.3125 C 368.375 502.117188 370.167969 502.117188 370.167969 503.3125 "/>
<path style=" stroke:none;fill-rule:nonzero;fill:rgb(100%,84.3%,0%);fill-opacity:1;" d="M 194.851562 440.316406 C 194.851562 441.511719 193.0625 441.511719 193.0625 440.316406 C 193.0625 439.121094 194.851562 439.121094 194.851562 440.316406 "/>
<path style=" stroke:none;fill-rule:nonzero;fill:rgb(100%,84.3%,0%);fill-opacity:1;" d="M 304.640625 496.847656 C 304.640625 498.042969 302.851562 498.042969 302.851562 496.847656 C 302.851562 495.652344 304.640625 495.652344 304.640625 496.847656 "/>
<path style=" stroke:none;fill-rule:nonzero;fill:rgb(100%,84.3%,0%);fill-opacity:1;" d="M 320.058594 503.367188 C 320.058594 504.558594 318.265625 504.558594 318.265625 503.367188 C 318.265625 502.171875 320.058594 502.171875 320.058594 503.367188 "/>
<path style=" stroke:none;fill-rule:nonzero;fill:rgb(100%,84.3%,0%);fill-opacity:1;" d="M 278.964844 438.523438 C 278.964844 439.71875 277.175781 439.71875 277.175781 438.523438 C 277.175781 437.328125 278.964844 437.328125 278.964844 438.523438 "/>
<path style=" stroke:none;fill-rule:nonzero;fill:rgb(100%,84.3%,0%);fill-opacity:1;" d="M 335.539062 503.363281 C 335.539062 504.558594 333.75 504.558594 333.75 503.363281 C 333.75 502.171875 335.539062 502.171875 335.539062 503.363281 "/>
<path style=" stroke:none;fill-rule:nonzero;fill:rgb(100%,84.3%,0%);fill-opacity:1;" d="M 461 503.027344 C 461 504.21875 459.207031 504.21875 459.207031 503.027344 C 459.207031 501.832031 461 501.832031 461 503.027344 "/>
<path style=" stroke:none;fill-rule:nonzero;fill:rgb(100%,84.3%,0%);fill-opacity:1;" d="M 98.648438 503.363281 C 98.648438 504.558594 96.855469 504.558594 96.855469 503.363281 C 96.855469 502.167969 98.648438 502.167969 98.648438 503.363281 "/>
<path style=" stroke:none;fill-rule:nonzero;fill:rgb(100%,84.3%,0%);fill-opacity:1;" d="M 121.484375 503.023438 C 121.484375 504.21875 119.695312 504.21875 119.695312 503.023438 C 119.695312 501.828125 121.484375 501.828125 121.484375 503.023438 "/>
<path style=" stroke:none;fill-rule:nonzero;fill:rgb(100%,84.3%,0%);fill-opacity:1;" d="M 306.421875 499.953125 C 306.421875 501.148438 304.628906 501.148438 304.628906 499.953125 C 304.628906 498.761719 306.421875 498.761719 306.421875 499.953125 "/>
<path style=" stroke:none;fill-rule:nonzero;fill:rgb(100%,84.3%,0%);fill-opacity:1;" d="M 375.421875 438.523438 C 375.421875 439.71875 373.628906 439.71875 373.628906 438.523438 C 373.628906 437.332031 375.421875 437.332031 375.421875 438.523438 "/>
<path style=" stroke:none;fill-rule:nonzero;fill:rgb(100%,84.3%,0%);fill-opacity:1;" d="M 71.875 503.367188 C 71.875 504.558594 70.082031 504.558594 70.082031 503.367188 C 70.082031 502.171875 71.875 502.171875 71.875 503.367188 "/>
<path style=" stroke:none;fill-rule:nonzero;fill:rgb(100%,84.3%,0%);fill-opacity:1;" d="M 341.679688 499.886719 C 341.679688 501.082031 339.886719 501.082031 339.886719 499.886719 C 339.886719 498.695312 341.679688 498.695312 341.679688 499.886719 "/>
<path style=" stroke:none;fill-rule:nonzero;fill:rgb(100%,84.3%,0%);fill-opacity:1;" d="M 377.605469 500.691406 C 377.605469 501.886719 375.8125 501.886719 375.8125 500.691406 C 375.8125 499.496094 377.605469 499.496094 377.605469 500.691406 "/>
<path style=" stroke:none;fill-rule:nonzero;fill:rgb(100%,84.3%,0%);fill-opacity:1;" d="M 454.347656 500.734375 C 454.347656 501.929688 452.554688 501.929688 452.554688 500.734375 C 452.554688 499.542969 454.347656 499.542969 454.347656 500.734375 "/>
<path style=" stroke:none;fill-rule:nonzero;fill:rgb(100%,84.3%,0%);fill-opacity:1;" d="M 372.117188 439.929688 C 372.117188 441.125 370.328125 441.125 370.328125 439.929688 C 370.328125 438.734375 372.117188 438.734375 372.117188 439.929688 "/>
<path style=" stroke:none;fill-rule:nonzero;fill:rgb(100%,84.3%,0%);fill-opacity:1;" d="M 389.277344 438.644531 C 389.277344 439.839844 387.484375 439.839844 387.484375 438.644531 C 387.484375 437.449219 389.277344 437.449219 389.277344 438.644531 "/>
<path style=" stroke:none;fill-rule:nonzero;fill:rgb(100%,84.3%,0%);fill-opacity:1;" d="M 102.167969 501.640625 C 102.167969 502.835938 100.378906 502.835938 100.378906 501.640625 C 100.378906 500.445312 102.167969 500.445312 102.167969 501.640625 "/>
<path style=" stroke:none;fill-rule:nonzero;fill:rgb(100%,84.3%,0%);fill-opacity:1;" d="M 68.71875 501.640625 C 68.71875 502.835938 66.925781 502.835938 66.925781 501.640625 C 66.925781 500.445312 68.71875 500.445312 68.71875 501.640625 "/>
</g>
</svg>
