<?xml version="1.0" encoding="UTF-8"?>
<svg xmlns="http://www.w3.org/2000/svg" xmlns:xlink="http://www.w3.org/1999/xlink" width="512pt" height="512pt" viewBox="0 0 512 512" version="1.1">
<g id="surface371">
<rect x="0" y="0" width="512" height="512" style="fill:rgb(26.7%,26.7%,26.7%);fill-opacity:1;stroke:none;"/>
<path style=" stroke:none;fill-rule:nonzero;fill:rgb(19.2%,38.8%,66.7%);fill-opacity:1;" d="M 5.859375 42.667969 L 64.472656 42.667969 L 64.472656 469.332031 L 5.859375 469.332031 Z M 5.859375 42.667969 "/>
<path style=" stroke:none;fill-rule:nonzero;fill:rgb(90.6%,14.9%,14.9%);fill-opacity:1;" d="M 9.011719 485.089844 C 9.011719 489.289062 2.710938 489.289062 2.710938 485.089844 C 2.710938 480.886719 9.011719 480.886719 9.011719 485.089844 "/>
<path style=" stroke:none;fill-rule:nonzero;fill:rgb(90.6%,14.9%,14.9%);fill-opacity:1;" d="M 15.3125 485.089844 C 15.3125 489.289062 9.011719 489.289062 9.011719 485.089844 C 9.011719 480.886719 15.3125 480.886719 15.3125 485.089844 "/>
<path style=" stroke:none;fill-rule:nonzero;fill:rgb(90.6%,14.9%,14.9%);fill-opacity:1;" d="M 9.011719 26.910156 C 9.011719 31.113281 2.710938 31.113281 2.710938 26.910156 C 2.710938 22.710938 9.011719 22.710938 9.011719 26.910156 "/>
<path style=" stroke:none;fill-rule:nonzero;fill:rgb(90.6%,14.9%,14.9%);fill-opacity:1;" d="M 15.3125 26.910156 C 15.3125 31.113281 9.011719 31.113281 9.011719 26.910156 C 9.011719 22.710938 15.3125 22.710938 15.3125 26.910156 "/>
<path style=" stroke:none;fill-rule:nonzero;fill:rgb(100%,100%,100%);fill-opacity:1;" d="M 309.949219 342.027344 C 309.949219 344.128906 306.796875 344.128906 306.796875 342.027344 C 306.796875 339.925781 309.949219 339.925781 309.949219 342.027344 "/>
<path style=" stroke:none;fill-rule:nonzero;fill:rgb(100%,100%,100%);fill-opacity:1;" d="M 180.4375 -0.503906 C 180.4375 1.597656 177.285156 1.597656 177.285156 -0.503906 C 177.285156 -2.605469 180.4375 -2.605469 180.4375 -0.503906 "/>
<path style=" stroke:none;fill-rule:nonzero;fill:rgb(100%,100%,100%);fill-opacity:1;" d="M 224.238281 94.976562 C 224.238281 97.078125 221.085938 97.078125 221.085938 94.976562 C 221.085938 92.875 224.238281 92.875 224.238281 94.976562 "/>
<path style=" stroke:none;fill-rule:nonzero;fill:rgb(100%,100%,100%);fill-opacity:1;" d="M 291.671875 63.464844 C 291.671875 65.566406 288.519531 65.566406 288.519531 63.464844 C 288.519531 61.363281 291.671875 61.363281 291.671875 63.464844 "/>
<path style=" stroke:none;fill-rule:nonzero;fill:rgb(100%,100%,100%);fill-opacity:1;" d="M 111.109375 449.796875 C 111.109375 451.898438 107.957031 451.898438 107.957031 449.796875 C 107.957031 447.695312 111.109375 447.695312 111.109375 449.796875 "/>
<path style=" stroke:none;fill-rule:nonzero;fill:rgb(100%,100%,100%);fill-opacity:1;" d="M 284.738281 174.070312 C 284.738281 176.171875 281.585938 176.171875 281.585938 174.070312 C 281.585938 171.96875 284.738281 171.96875 284.738281 174.070312 "/>
<path style=" stroke:none;fill-rule:nonzero;fill:rgb(100%,100%,100%);fill-opacity:1;" d="M 300.496094 140.351562 C 300.496094 142.453125 297.34375 142.453125 297.34375 140.351562 C 297.34375 138.253906 300.496094 138.253906 300.496094 140.351562 "/>
<path style=" stroke:none;fill-rule:nonzero;fill:rgb(100%,100%,100%);fill-opacity:1;" d="M 438.515625 9.265625 C 438.515625 11.363281 435.363281 11.363281 435.363281 9.265625 C 435.363281 7.164062 438.515625 7.164062 438.515625 9.265625 "/>
<path style=" stroke:none;fill-rule:nonzero;fill:rgb(100%,100%,100%);fill-opacity:1;" d="M 224.550781 288.773438 C 224.550781 290.871094 221.402344 290.871094 221.402344 288.773438 C 221.402344 286.671875 224.550781 286.671875 224.550781 288.773438 "/>
<path style=" stroke:none;fill-rule:nonzero;fill:rgb(100%,100%,100%);fill-opacity:1;" d="M 130.648438 459.566406 C 130.648438 461.664062 127.496094 461.664062 127.496094 459.566406 C 127.496094 457.464844 130.648438 457.464844 130.648438 459.566406 "/>
<path style=" stroke:none;fill-rule:nonzero;fill:rgb(100%,100%,100%);fill-opacity:1;" d="M 474.125 482.882812 C 474.125 484.984375 470.972656 484.984375 470.972656 482.882812 C 470.972656 480.78125 474.125 480.78125 474.125 482.882812 "/>
<path style=" stroke:none;fill-rule:nonzero;fill:rgb(100%,100%,100%);fill-opacity:1;" d="M 471.285156 378.578125 C 471.285156 380.679688 468.136719 380.679688 468.136719 378.578125 C 468.136719 376.480469 471.285156 376.480469 471.285156 378.578125 "/>
<path style=" stroke:none;fill-rule:nonzero;fill:rgb(100%,100%,100%);fill-opacity:1;" d="M 199.027344 511.242188 C 199.027344 513.34375 195.875 513.34375 195.875 511.242188 C 195.875 509.144531 199.027344 509.144531 199.027344 511.242188 "/>
<path style=" stroke:none;fill-rule:nonzero;fill:rgb(100%,100%,100%);fill-opacity:1;" d="M 149.867188 115.773438 C 149.867188 117.875 146.71875 117.875 146.71875 115.773438 C 146.71875 113.671875 149.867188 113.671875 149.867188 115.773438 "/>
<path style=" stroke:none;fill-rule:nonzero;fill:rgb(100%,100%,100%);fill-opacity:1;" d="M 341.144531 469.019531 C 341.144531 471.117188 337.992188 471.117188 337.992188 469.019531 C 337.992188 466.917969 341.144531 466.917969 341.144531 469.019531 "/>
<path style=" stroke:none;fill-rule:nonzero;fill:rgb(100%,100%,100%);fill-opacity:1;" d="M 379.902344 263.246094 C 379.902344 265.347656 376.753906 265.347656 376.753906 263.246094 C 376.753906 261.148438 379.902344 261.148438 379.902344 263.246094 "/>
<path style=" stroke:none;fill-rule:nonzero;fill:rgb(100%,100%,100%);fill-opacity:1;" d="M 322.238281 447.589844 C 322.238281 449.691406 319.085938 449.691406 319.085938 447.589844 C 319.085938 445.488281 322.238281 445.488281 322.238281 447.589844 "/>
<path style=" stroke:none;fill-rule:nonzero;fill:rgb(100%,100%,100%);fill-opacity:1;" d="M 463.09375 208.101562 C 463.09375 210.203125 459.941406 210.203125 459.941406 208.101562 C 459.941406 206 463.09375 206 463.09375 208.101562 "/>
<path style=" stroke:none;fill-rule:nonzero;fill:rgb(100%,100%,100%);fill-opacity:1;" d="M 154.59375 51.175781 C 154.59375 53.277344 151.445312 53.277344 151.445312 51.175781 C 151.445312 49.074219 154.59375 49.074219 154.59375 51.175781 "/>
<path style=" stroke:none;fill-rule:nonzero;fill:rgb(100%,100%,100%);fill-opacity:1;" d="M 97.875 357.152344 C 97.875 359.253906 94.722656 359.253906 94.722656 357.152344 C 94.722656 355.050781 97.875 355.050781 97.875 357.152344 "/>
<path style=" stroke:none;fill-rule:nonzero;fill:rgb(100%,84.3%,0%);fill-opacity:1;" d="M 10.585938 103.011719 C 10.585938 105.113281 7.4375 105.113281 7.4375 103.011719 C 7.4375 100.910156 10.585938 100.910156 10.585938 103.011719 "/>
<path style=" stroke:none;fill-rule:nonzero;fill:rgb(100%,84.3%,0%);fill-opacity:1;" d="M 10.664062 63.160156 C 10.664062 65.261719 7.511719 65.261719 7.511719 63.160156 C 7.511719 61.058594 10.664062 61.058594 10.664062 63.160156 "/>
<path style=" stroke:none;fill-rule:nonzero;fill:rgb(100%,84.3%,0%);fill-opacity:1;" d="M 11.453125 259.683594 C 11.453125 261.785156 8.300781 261.785156 8.300781 259.683594 C 8.300781 257.582031 11.453125 257.582031 11.453125 259.683594 "/>
<path style=" stroke:none;fill-rule:nonzero;fill:rgb(100%,84.3%,0%);fill-opacity:1;" d="M 13.132812 439.210938 C 13.132812 441.3125 9.984375 441.3125 9.984375 439.210938 C 9.984375 437.109375 13.132812 437.109375 13.132812 439.210938 "/>
<path style=" stroke:none;fill-rule:nonzero;fill:rgb(100%,84.3%,0%);fill-opacity:1;" d="M 62.890625 110.019531 C 62.890625 112.121094 59.738281 112.121094 59.738281 110.019531 C 59.738281 107.917969 62.890625 107.917969 62.890625 110.019531 "/>
<path style=" stroke:none;fill-rule:nonzero;fill:rgb(100%,84.3%,0%);fill-opacity:1;" d="M 10.585938 298.542969 C 10.585938 300.644531 7.4375 300.644531 7.4375 298.542969 C 7.4375 296.441406 10.585938 296.441406 10.585938 298.542969 "/>
<path style=" stroke:none;fill-rule:nonzero;fill:rgb(100%,84.3%,0%);fill-opacity:1;" d="M 62.898438 341.492188 C 62.898438 343.59375 59.746094 343.59375 59.746094 341.492188 C 59.746094 339.394531 62.898438 339.394531 62.898438 341.492188 "/>
<path style=" stroke:none;fill-rule:nonzero;fill:rgb(100%,84.3%,0%);fill-opacity:1;" d="M 12.183594 226.972656 C 12.183594 229.074219 9.03125 229.074219 9.03125 226.972656 C 9.03125 224.875 12.183594 224.875 12.183594 226.972656 "/>
<path style=" stroke:none;fill-rule:nonzero;fill:rgb(100%,84.3%,0%);fill-opacity:1;" d="M 16.226562 312.113281 C 16.226562 314.210938 13.074219 314.210938 13.074219 312.113281 C 13.074219 310.011719 16.226562 310.011719 16.226562 312.113281 "/>
<path style=" stroke:none;fill-rule:nonzero;fill:rgb(100%,84.3%,0%);fill-opacity:1;" d="M 12.457031 138.878906 C 12.457031 140.976562 9.304688 140.976562 9.304688 138.878906 C 9.304688 136.777344 12.457031 136.777344 12.457031 138.878906 "/>
<path style=" stroke:none;fill-rule:nonzero;fill:rgb(100%,84.3%,0%);fill-opacity:1;" d="M 61.933594 381.113281 C 61.933594 383.214844 58.785156 383.214844 58.785156 381.113281 C 58.785156 379.011719 61.933594 379.011719 61.933594 381.113281 "/>
<path style=" stroke:none;fill-rule:nonzero;fill:rgb(100%,84.3%,0%);fill-opacity:1;" d="M 62.320312 326.414062 C 62.320312 328.515625 59.167969 328.515625 59.167969 326.414062 C 59.167969 324.3125 62.320312 324.3125 62.320312 326.414062 "/>
<path style=" stroke:none;fill-rule:nonzero;fill:rgb(100%,84.3%,0%);fill-opacity:1;" d="M 38.371094 46.535156 C 38.371094 48.636719 35.21875 48.636719 35.21875 46.535156 C 35.21875 44.433594 38.371094 44.433594 38.371094 46.535156 "/>
<path style=" stroke:none;fill-rule:nonzero;fill:rgb(100%,84.3%,0%);fill-opacity:1;" d="M 10.585938 149.769531 C 10.585938 151.871094 7.4375 151.871094 7.4375 149.769531 C 7.4375 147.667969 10.585938 147.667969 10.585938 149.769531 "/>
<path style=" stroke:none;fill-rule:nonzero;fill:rgb(100%,84.3%,0%);fill-opacity:1;" d="M 59.027344 446.378906 C 59.027344 448.480469 55.875 448.480469 55.875 446.378906 C 55.875 444.277344 59.027344 444.277344 59.027344 446.378906 "/>
<path style=" stroke:none;fill-rule:nonzero;fill:rgb(100%,84.3%,0%);fill-opacity:1;" d="M 10.960938 353.414062 C 10.960938 355.515625 7.808594 355.515625 7.808594 353.414062 C 7.808594 351.3125 10.960938 351.3125 10.960938 353.414062 "/>
<path style=" stroke:none;fill-rule:nonzero;fill:rgb(100%,84.3%,0%);fill-opacity:1;" d="M 11.894531 82.105469 C 11.894531 84.207031 8.742188 84.207031 8.742188 82.105469 C 8.742188 80.003906 11.894531 80.003906 11.894531 82.105469 "/>
<path style=" stroke:none;fill-rule:nonzero;fill:rgb(100%,84.3%,0%);fill-opacity:1;" d="M 11.761719 318.757812 C 11.761719 320.859375 8.609375 320.859375 8.609375 318.757812 C 8.609375 316.65625 11.761719 316.65625 11.761719 318.757812 "/>
<path style=" stroke:none;fill-rule:nonzero;fill:rgb(100%,84.3%,0%);fill-opacity:1;" d="M 62.898438 361.566406 C 62.898438 363.667969 59.746094 363.667969 59.746094 361.566406 C 59.746094 359.464844 62.898438 359.464844 62.898438 361.566406 "/>
<path style=" stroke:none;fill-rule:nonzero;fill:rgb(100%,84.3%,0%);fill-opacity:1;" d="M 15.839844 127.644531 C 15.839844 129.746094 12.691406 129.746094 12.691406 127.644531 C 12.691406 125.546875 15.839844 125.546875 15.839844 127.644531 "/>
<path style=" stroke:none;fill-rule:nonzero;fill:rgb(100%,84.3%,0%);fill-opacity:1;" d="M 62.898438 368.101562 C 62.898438 370.203125 59.746094 370.203125 59.746094 368.101562 C 59.746094 366 62.898438 366 62.898438 368.101562 "/>
<path style=" stroke:none;fill-rule:nonzero;fill:rgb(100%,84.3%,0%);fill-opacity:1;" d="M 10.660156 165.597656 C 10.660156 167.699219 7.511719 167.699219 7.511719 165.597656 C 7.511719 163.496094 10.660156 163.496094 10.660156 165.597656 "/>
<path style=" stroke:none;fill-rule:nonzero;fill:rgb(100%,84.3%,0%);fill-opacity:1;" d="M 10.589844 124.164062 C 10.589844 126.265625 7.4375 126.265625 7.4375 124.164062 C 7.4375 122.0625 10.589844 122.0625 10.589844 124.164062 "/>
<path style=" stroke:none;fill-rule:nonzero;fill:rgb(100%,84.3%,0%);fill-opacity:1;" d="M 10.585938 424.15625 C 10.585938 426.257812 7.4375 426.257812 7.4375 424.15625 C 7.4375 422.054688 10.585938 422.054688 10.585938 424.15625 "/>
<path style=" stroke:none;fill-rule:nonzero;fill:rgb(100%,84.3%,0%);fill-opacity:1;" d="M 14.648438 444.417969 C 14.648438 446.519531 11.496094 446.519531 11.496094 444.417969 C 11.496094 442.316406 14.648438 442.316406 14.648438 444.417969 "/>
<path style=" stroke:none;fill-rule:nonzero;fill:rgb(100%,84.3%,0%);fill-opacity:1;" d="M 18.210938 416.941406 C 18.210938 419.042969 15.058594 419.042969 15.058594 416.941406 C 15.058594 414.839844 18.210938 414.839844 18.210938 416.941406 "/>
<path style=" stroke:none;fill-rule:nonzero;fill:rgb(100%,84.3%,0%);fill-opacity:1;" d="M 10.621094 181.445312 C 10.621094 183.546875 7.46875 183.546875 7.46875 181.445312 C 7.46875 179.34375 10.621094 179.34375 10.621094 181.445312 "/>
<path style=" stroke:none;fill-rule:nonzero;fill:rgb(100%,84.3%,0%);fill-opacity:1;" d="M 14.460938 108.496094 C 14.460938 110.597656 11.308594 110.597656 11.308594 108.496094 C 11.308594 106.398438 14.460938 106.398438 14.460938 108.496094 "/>
<path style=" stroke:none;fill-rule:nonzero;fill:rgb(100%,84.3%,0%);fill-opacity:1;" d="M 12.972656 236.054688 C 12.972656 238.152344 9.824219 238.152344 9.824219 236.054688 C 9.824219 233.953125 12.972656 233.953125 12.972656 236.054688 "/>
<path style=" stroke:none;fill-rule:nonzero;fill:rgb(100%,84.3%,0%);fill-opacity:1;" d="M 61.664062 448.171875 C 61.664062 450.273438 58.511719 450.273438 58.511719 448.171875 C 58.511719 446.070312 61.664062 446.070312 61.664062 448.171875 "/>
<path style=" stroke:none;fill-rule:nonzero;fill:rgb(100%,84.3%,0%);fill-opacity:1;" d="M 13.148438 283.628906 C 13.148438 285.726562 9.996094 285.726562 9.996094 283.628906 C 9.996094 281.527344 13.148438 281.527344 13.148438 283.628906 "/>
<path style=" stroke:none;fill-rule:nonzero;fill:rgb(100%,84.3%,0%);fill-opacity:1;" d="M 14.628906 45.957031 C 14.628906 48.058594 11.476562 48.058594 11.476562 45.957031 C 11.476562 43.855469 14.628906 43.855469 14.628906 45.957031 "/>
<path style=" stroke:none;fill-rule:nonzero;fill:rgb(100%,84.3%,0%);fill-opacity:1;" d="M 10.835938 336.355469 C 10.835938 338.457031 7.683594 338.457031 7.683594 336.355469 C 7.683594 334.253906 10.835938 334.253906 10.835938 336.355469 "/>
<path style=" stroke:none;fill-rule:nonzero;fill:rgb(100%,84.3%,0%);fill-opacity:1;" d="M 57.273438 68.570312 C 57.273438 70.671875 54.125 70.671875 54.125 68.570312 C 54.125 66.46875 57.273438 66.46875 57.273438 68.570312 "/>
<path style=" stroke:none;fill-rule:nonzero;fill:rgb(100%,84.3%,0%);fill-opacity:1;" d="M 55.414062 261.425781 C 55.414062 263.527344 52.261719 263.527344 52.261719 261.425781 C 52.261719 259.328125 55.414062 259.328125 55.414062 261.425781 "/>
<path style=" stroke:none;fill-rule:nonzero;fill:rgb(100%,84.3%,0%);fill-opacity:1;" d="M 62.898438 417.359375 C 62.898438 419.460938 59.746094 419.460938 59.746094 417.359375 C 59.746094 415.257812 62.898438 415.257812 62.898438 417.359375 "/>
<path style=" stroke:none;fill-rule:nonzero;fill:rgb(100%,84.3%,0%);fill-opacity:1;" d="M 59.746094 384.910156 C 59.746094 387.011719 56.597656 387.011719 56.597656 384.910156 C 56.597656 382.808594 59.746094 382.808594 59.746094 384.910156 "/>
<path style=" stroke:none;fill-rule:nonzero;fill:rgb(100%,84.3%,0%);fill-opacity:1;" d="M 60.566406 420.386719 C 60.566406 422.488281 57.414062 422.488281 57.414062 420.386719 C 57.414062 418.285156 60.566406 418.285156 60.566406 420.386719 "/>
<path style=" stroke:none;fill-rule:nonzero;fill:rgb(100%,84.3%,0%);fill-opacity:1;" d="M 12.828125 456.585938 C 12.828125 458.683594 9.675781 458.683594 9.675781 456.585938 C 9.675781 454.484375 12.828125 454.484375 12.828125 456.585938 "/>
<path style=" stroke:none;fill-rule:nonzero;fill:rgb(100%,84.3%,0%);fill-opacity:1;" d="M 11.292969 206.71875 C 11.292969 208.816406 8.140625 208.816406 8.140625 206.71875 C 8.140625 204.617188 11.292969 204.617188 11.292969 206.71875 "/>
<path style=" stroke:none;fill-rule:nonzero;fill:rgb(100%,84.3%,0%);fill-opacity:1;" d="M 59.582031 59.398438 C 59.582031 61.5 56.429688 61.5 56.429688 59.398438 C 56.429688 57.300781 59.582031 57.300781 59.582031 59.398438 "/>
<path style=" stroke:none;fill-rule:nonzero;fill:rgb(100%,84.3%,0%);fill-opacity:1;" d="M 10.585938 365.53125 C 10.585938 367.632812 7.4375 367.632812 7.4375 365.53125 C 7.4375 363.433594 10.585938 363.433594 10.585938 365.53125 "/>
<path style=" stroke:none;fill-rule:nonzero;fill:rgb(100%,84.3%,0%);fill-opacity:1;" d="M 46.195312 45.957031 C 46.195312 48.058594 43.042969 48.058594 43.042969 45.957031 C 43.042969 43.855469 46.195312 43.855469 46.195312 45.957031 "/>
<path style=" stroke:none;fill-rule:nonzero;fill:rgb(100%,84.3%,0%);fill-opacity:1;" d="M 10.832031 144.566406 C 10.832031 146.667969 7.679688 146.667969 7.679688 144.566406 C 7.679688 142.464844 10.832031 142.464844 10.832031 144.566406 "/>
<path style=" stroke:none;fill-rule:nonzero;fill:rgb(100%,84.3%,0%);fill-opacity:1;" d="M 62.664062 388.300781 C 62.664062 390.402344 59.515625 390.402344 59.515625 388.300781 C 59.515625 386.199219 62.664062 386.199219 62.664062 388.300781 "/>
<path style=" stroke:none;fill-rule:nonzero;fill:rgb(100%,84.3%,0%);fill-opacity:1;" d="M 59.746094 417.324219 C 59.746094 419.425781 56.59375 419.425781 56.59375 417.324219 C 56.59375 415.222656 59.746094 415.222656 59.746094 417.324219 "/>
<path style=" stroke:none;fill-rule:nonzero;fill:rgb(100%,84.3%,0%);fill-opacity:1;" d="M 35.148438 48.699219 C 35.148438 50.800781 31.996094 50.800781 31.996094 48.699219 C 31.996094 46.597656 35.148438 46.597656 35.148438 48.699219 "/>
<path style=" stroke:none;fill-rule:nonzero;fill:rgb(100%,84.3%,0%);fill-opacity:1;" d="M 11.804688 313.699219 C 11.804688 315.800781 8.652344 315.800781 8.652344 313.699219 C 8.652344 311.597656 11.804688 311.597656 11.804688 313.699219 "/>
<path style=" stroke:none;fill-rule:nonzero;fill:rgb(100%,84.3%,0%);fill-opacity:1;" d="M 10.734375 453.84375 C 10.734375 455.945312 7.582031 455.945312 7.582031 453.84375 C 7.582031 451.746094 10.734375 451.746094 10.734375 453.84375 "/>
<path style=" stroke:none;fill-rule:nonzero;fill:rgb(100%,84.3%,0%);fill-opacity:1;" d="M 10.828125 350.265625 C 10.828125 352.367188 7.675781 352.367188 7.675781 350.265625 C 7.675781 348.164062 10.828125 348.164062 10.828125 350.265625 "/>
<path style=" stroke:none;fill-rule:nonzero;fill:rgb(100%,84.3%,0%);fill-opacity:1;" d="M 59.753906 410.21875 C 59.753906 412.320312 56.601562 412.320312 56.601562 410.21875 C 56.601562 408.121094 59.753906 408.121094 59.753906 410.21875 "/>
<path style=" stroke:none;fill-rule:nonzero;fill:rgb(100%,84.3%,0%);fill-opacity:1;" d="M 13.886719 209.441406 C 13.886719 211.542969 10.738281 211.542969 10.738281 209.441406 C 10.738281 207.34375 13.886719 207.34375 13.886719 209.441406 "/>
<path style=" stroke:none;fill-rule:nonzero;fill:rgb(100%,84.3%,0%);fill-opacity:1;" d="M 11.796875 238.992188 C 11.796875 241.09375 8.648438 241.09375 8.648438 238.992188 C 8.648438 236.890625 11.796875 236.890625 11.796875 238.992188 "/>
<path style=" stroke:none;fill-rule:nonzero;fill:rgb(100%,84.3%,0%);fill-opacity:1;" d="M 13.042969 104.988281 C 13.042969 107.085938 9.890625 107.085938 9.890625 104.988281 C 9.890625 102.886719 13.042969 102.886719 13.042969 104.988281 "/>
<path style=" stroke:none;fill-rule:nonzero;fill:rgb(100%,84.3%,0%);fill-opacity:1;" d="M 60.144531 353.117188 C 60.144531 355.21875 56.992188 355.21875 56.992188 353.117188 C 56.992188 351.019531 60.144531 351.019531 60.144531 353.117188 "/>
<path style=" stroke:none;fill-rule:nonzero;fill:rgb(100%,84.3%,0%);fill-opacity:1;" d="M 20.277344 414.519531 C 20.277344 416.617188 17.125 416.617188 17.125 414.519531 C 17.125 412.417969 20.277344 412.417969 20.277344 414.519531 "/>
<path style=" stroke:none;fill-rule:nonzero;fill:rgb(100%,84.3%,0%);fill-opacity:1;" d="M 59.621094 426.578125 C 59.621094 428.679688 56.472656 428.679688 56.472656 426.578125 C 56.472656 424.480469 59.621094 424.480469 59.621094 426.578125 "/>
<path style=" stroke:none;fill-rule:nonzero;fill:rgb(100%,84.3%,0%);fill-opacity:1;" d="M 62.898438 410.4375 C 62.898438 412.539062 59.746094 412.539062 59.746094 410.4375 C 59.746094 408.335938 62.898438 408.335938 62.898438 410.4375 "/>
<path style=" stroke:none;fill-rule:nonzero;fill:rgb(100%,84.3%,0%);fill-opacity:1;" d="M 62.484375 401.191406 C 62.484375 403.292969 59.335938 403.292969 59.335938 401.191406 C 59.335938 399.089844 62.484375 399.089844 62.484375 401.191406 "/>
<path style=" stroke:none;fill-rule:nonzero;fill:rgb(100%,84.3%,0%);fill-opacity:1;" d="M 61.4375 429.164062 C 61.4375 431.265625 58.285156 431.265625 58.285156 429.164062 C 58.285156 427.0625 61.4375 427.0625 61.4375 429.164062 "/>
<path style=" stroke:none;fill-rule:nonzero;fill:rgb(100%,84.3%,0%);fill-opacity:1;" d="M 10.585938 132.375 C 10.585938 134.476562 7.4375 134.476562 7.4375 132.375 C 7.4375 130.273438 10.585938 130.273438 10.585938 132.375 "/>
<path style=" stroke:none;fill-rule:nonzero;fill:rgb(100%,84.3%,0%);fill-opacity:1;" d="M 13.292969 287.996094 C 13.292969 290.097656 10.140625 290.097656 10.140625 287.996094 C 10.140625 285.894531 13.292969 285.894531 13.292969 287.996094 "/>
<path style=" stroke:none;fill-rule:nonzero;fill:rgb(100%,84.3%,0%);fill-opacity:1;" d="M 13.511719 118.972656 C 13.511719 121.074219 10.359375 121.074219 10.359375 118.972656 C 10.359375 116.871094 13.511719 116.871094 13.511719 118.972656 "/>
<path style=" stroke:none;fill-rule:nonzero;fill:rgb(100%,84.3%,0%);fill-opacity:1;" d="M 11.5625 52.503906 C 11.5625 54.601562 8.410156 54.601562 8.410156 52.503906 C 8.410156 50.402344 11.5625 50.402344 11.5625 52.503906 "/>
<path style=" stroke:none;fill-rule:nonzero;fill:rgb(100%,84.3%,0%);fill-opacity:1;" d="M 12.277344 75.230469 C 12.277344 77.332031 9.125 77.332031 9.125 75.230469 C 9.125 73.128906 12.277344 73.128906 12.277344 75.230469 "/>
<path style=" stroke:none;fill-rule:nonzero;fill:rgb(100%,84.3%,0%);fill-opacity:1;" d="M 59.203125 325.921875 C 59.203125 328.023438 56.050781 328.023438 56.050781 325.921875 C 56.050781 323.820312 59.203125 323.820312 59.203125 325.921875 "/>
<path style=" stroke:none;fill-rule:nonzero;fill:rgb(100%,84.3%,0%);fill-opacity:1;" d="M 13.53125 428.914062 C 13.53125 431.015625 10.382812 431.015625 10.382812 428.914062 C 10.382812 426.8125 13.53125 426.8125 13.53125 428.914062 "/>
<path style=" stroke:none;fill-rule:nonzero;fill:rgb(100%,84.3%,0%);fill-opacity:1;" d="M 11.617188 307.816406 C 11.617188 309.917969 8.464844 309.917969 8.464844 307.816406 C 8.464844 305.714844 11.617188 305.714844 11.617188 307.816406 "/>
<path style=" stroke:none;fill-rule:nonzero;fill:rgb(100%,84.3%,0%);fill-opacity:1;" d="M 59.886719 345.835938 C 59.886719 347.9375 56.738281 347.9375 56.738281 345.835938 C 56.738281 343.734375 59.886719 343.734375 59.886719 345.835938 "/>
<path style=" stroke:none;fill-rule:nonzero;fill:rgb(100%,84.3%,0%);fill-opacity:1;" d="M 51.300781 174.3125 C 51.300781 176.414062 48.152344 176.414062 48.152344 174.3125 C 48.152344 172.214844 51.300781 172.214844 51.300781 174.3125 "/>
<path style=" stroke:none;fill-rule:nonzero;fill:rgb(100%,84.3%,0%);fill-opacity:1;" d="M 10.910156 290.175781 C 10.910156 292.277344 7.761719 292.277344 7.761719 290.175781 C 7.761719 288.074219 10.910156 288.074219 10.910156 290.175781 "/>
<path style=" stroke:none;fill-rule:nonzero;fill:rgb(100%,84.3%,0%);fill-opacity:1;" d="M 14.21875 306.003906 C 14.21875 308.101562 11.066406 308.101562 11.066406 306.003906 C 11.066406 303.902344 14.21875 303.902344 14.21875 306.003906 "/>
<path style=" stroke:none;fill-rule:nonzero;fill:rgb(100%,84.3%,0%);fill-opacity:1;" d="M 56.734375 58.019531 C 56.734375 60.121094 53.582031 60.121094 53.582031 58.019531 C 53.582031 55.917969 56.734375 55.917969 56.734375 58.019531 "/>
<path style=" stroke:none;fill-rule:nonzero;fill:rgb(100%,84.3%,0%);fill-opacity:1;" d="M 53.347656 73.527344 C 53.347656 75.628906 50.195312 75.628906 50.195312 73.527344 C 50.195312 71.425781 53.347656 71.425781 53.347656 73.527344 "/>
<path style=" stroke:none;fill-rule:nonzero;fill:rgb(100%,84.3%,0%);fill-opacity:1;" d="M 10.652344 168.75 C 10.652344 170.851562 7.503906 170.851562 7.503906 168.75 C 7.503906 166.648438 10.652344 166.648438 10.652344 168.75 "/>
<path style=" stroke:none;fill-rule:nonzero;fill:rgb(100%,84.3%,0%);fill-opacity:1;" d="M 15.3125 459.511719 C 15.3125 461.609375 12.160156 461.609375 12.160156 459.511719 C 12.160156 457.410156 15.3125 457.410156 15.3125 459.511719 "/>
<path style=" stroke:none;fill-rule:nonzero;fill:rgb(100%,84.3%,0%);fill-opacity:1;" d="M 15.414062 419.714844 C 15.414062 421.8125 12.261719 421.8125 12.261719 419.714844 C 12.261719 417.613281 15.414062 417.613281 15.414062 419.714844 "/>
<path style=" stroke:none;fill-rule:nonzero;fill:rgb(100%,84.3%,0%);fill-opacity:1;" d="M 15.792969 454 C 15.792969 456.101562 12.640625 456.101562 12.640625 454 C 12.640625 451.898438 15.792969 451.898438 15.792969 454 "/>
<path style=" stroke:none;fill-rule:nonzero;fill:rgb(100%,84.3%,0%);fill-opacity:1;" d="M 10.613281 156.070312 C 10.613281 158.171875 7.460938 158.171875 7.460938 156.070312 C 7.460938 153.972656 10.613281 153.972656 10.613281 156.070312 "/>
<path style=" stroke:none;fill-rule:nonzero;fill:rgb(100%,84.3%,0%);fill-opacity:1;" d="M 62.898438 394.597656 C 62.898438 396.699219 59.746094 396.699219 59.746094 394.597656 C 59.746094 392.5 62.898438 392.5 62.898438 394.597656 "/>
<path style=" stroke:none;fill-rule:nonzero;fill:rgb(100%,84.3%,0%);fill-opacity:1;" d="M 12.175781 223.824219 C 12.175781 225.921875 9.027344 225.921875 9.027344 223.824219 C 9.027344 221.722656 12.175781 221.722656 12.175781 223.824219 "/>
<path style=" stroke:none;fill-rule:nonzero;fill:rgb(100%,84.3%,0%);fill-opacity:1;" d="M 10.613281 152.921875 C 10.613281 155.019531 7.460938 155.019531 7.460938 152.921875 C 7.460938 150.820312 10.613281 150.820312 10.613281 152.921875 "/>
<path style=" stroke:none;fill-rule:nonzero;fill:rgb(100%,84.3%,0%);fill-opacity:1;" d="M 10.667969 233.90625 C 10.667969 236.007812 7.515625 236.007812 7.515625 233.90625 C 7.515625 231.804688 10.667969 231.804688 10.667969 233.90625 "/>
<path style=" stroke:none;fill-rule:nonzero;fill:rgb(100%,84.3%,0%);fill-opacity:1;" d="M 59.785156 349.335938 C 59.785156 351.4375 56.632812 351.4375 56.632812 349.335938 C 56.632812 347.234375 59.785156 347.234375 59.785156 349.335938 "/>
<path style=" stroke:none;fill-rule:nonzero;fill:rgb(100%,84.3%,0%);fill-opacity:1;" d="M 11.652344 55.652344 C 11.652344 57.753906 8.503906 57.753906 8.503906 55.652344 C 8.503906 53.550781 11.652344 53.550781 11.652344 55.652344 "/>
<path style=" stroke:none;fill-rule:nonzero;fill:rgb(100%,84.3%,0%);fill-opacity:1;" d="M 13.496094 432.53125 C 13.496094 434.632812 10.347656 434.632812 10.347656 432.53125 C 10.347656 430.429688 13.496094 430.429688 13.496094 432.53125 "/>
<path style=" stroke:none;fill-rule:nonzero;fill:rgb(100%,84.3%,0%);fill-opacity:1;" d="M 10.589844 85.683594 C 10.589844 87.785156 7.441406 87.785156 7.441406 85.683594 C 7.441406 83.582031 10.589844 83.582031 10.589844 85.683594 "/>
<path style=" stroke:none;fill-rule:nonzero;fill:rgb(100%,84.3%,0%);fill-opacity:1;" d="M 10.589844 241.902344 C 10.589844 244.003906 7.4375 244.003906 7.4375 241.902344 C 7.4375 239.800781 10.589844 239.800781 10.589844 241.902344 "/>
<path style=" stroke:none;fill-rule:nonzero;fill:rgb(100%,84.3%,0%);fill-opacity:1;" d="M 59.164062 374.367188 C 59.164062 376.46875 56.011719 376.46875 56.011719 374.367188 C 56.011719 372.265625 59.164062 372.265625 59.164062 374.367188 "/>
<path style=" stroke:none;fill-rule:nonzero;fill:rgb(100%,84.3%,0%);fill-opacity:1;" d="M 62.890625 385.15625 C 62.890625 387.257812 59.738281 387.257812 59.738281 385.15625 C 59.738281 383.054688 62.890625 383.054688 62.890625 385.15625 "/>
<path style=" stroke:none;fill-rule:nonzero;fill:rgb(100%,84.3%,0%);fill-opacity:1;" d="M 55.105469 264.617188 C 55.105469 266.71875 51.957031 266.71875 51.957031 264.617188 C 51.957031 262.519531 55.105469 262.519531 55.105469 264.617188 "/>
<path style=" stroke:none;fill-rule:nonzero;fill:rgb(100%,84.3%,0%);fill-opacity:1;" d="M 12.480469 147.25 C 12.480469 149.351562 9.332031 149.351562 9.332031 147.25 C 9.332031 145.148438 12.480469 145.148438 12.480469 147.25 "/>
<path style=" stroke:none;fill-rule:nonzero;fill:rgb(100%,84.3%,0%);fill-opacity:1;" d="M 42.335938 46.273438 C 42.335938 48.375 39.1875 48.375 39.1875 46.273438 C 39.1875 44.171875 42.335938 44.171875 42.335938 46.273438 "/>
<path style=" stroke:none;fill-rule:nonzero;fill:rgb(100%,84.3%,0%);fill-opacity:1;" d="M 10.675781 190.894531 C 10.675781 192.996094 7.523438 192.996094 7.523438 190.894531 C 7.523438 188.792969 10.675781 188.792969 10.675781 190.894531 "/>
<path style=" stroke:none;fill-rule:nonzero;fill:rgb(100%,84.3%,0%);fill-opacity:1;" d="M 10.675781 175.144531 C 10.675781 177.242188 7.527344 177.242188 7.527344 175.144531 C 7.527344 173.042969 10.675781 173.042969 10.675781 175.144531 "/>
<path style=" stroke:none;fill-rule:nonzero;fill:rgb(100%,84.3%,0%);fill-opacity:1;" d="M 62.898438 337.972656 C 62.898438 340.074219 59.746094 340.074219 59.746094 337.972656 C 59.746094 335.871094 62.898438 335.871094 62.898438 337.972656 "/>
<path style=" stroke:none;fill-rule:nonzero;fill:rgb(100%,84.3%,0%);fill-opacity:1;" d="M 11.3125 442.144531 C 11.3125 444.246094 8.160156 444.246094 8.160156 442.144531 C 8.160156 440.042969 11.3125 440.042969 11.3125 442.144531 "/>
<path style=" stroke:none;fill-rule:nonzero;fill:rgb(100%,84.3%,0%);fill-opacity:1;" d="M 10.695312 434.183594 C 10.695312 436.285156 7.542969 436.285156 7.542969 434.183594 C 7.542969 432.082031 10.695312 432.082031 10.695312 434.183594 "/>
<path style=" stroke:none;fill-rule:nonzero;fill:rgb(100%,84.3%,0%);fill-opacity:1;" d="M 62.898438 466.171875 C 62.898438 468.273438 59.746094 468.273438 59.746094 466.171875 C 59.746094 464.070312 62.898438 464.070312 62.898438 466.171875 "/>
<path style=" stroke:none;fill-rule:nonzero;fill:rgb(100%,84.3%,0%);fill-opacity:1;" d="M 10.679688 322.320312 C 10.679688 324.417969 7.527344 324.417969 7.527344 322.320312 C 7.527344 320.21875 10.679688 320.21875 10.679688 322.320312 "/>
<path style=" stroke:none;fill-rule:nonzero;fill:rgb(100%,84.3%,0%);fill-opacity:1;" d="M 58.378906 293.152344 C 58.378906 295.25 55.226562 295.25 55.226562 293.152344 C 55.226562 291.050781 58.378906 291.050781 58.378906 293.152344 "/>
<path style=" stroke:none;fill-rule:nonzero;fill:rgb(100%,84.3%,0%);fill-opacity:1;" d="M 61.855469 407.460938 C 61.855469 409.5625 58.707031 409.5625 58.707031 407.460938 C 58.707031 405.359375 61.855469 405.359375 61.855469 407.460938 "/>
<path style=" stroke:none;fill-rule:nonzero;fill:rgb(100%,84.3%,0%);fill-opacity:1;" d="M 59.34375 443.03125 C 59.34375 445.132812 56.195312 445.132812 56.195312 443.03125 C 56.195312 440.929688 59.34375 440.929688 59.34375 443.03125 "/>
<path style=" stroke:none;fill-rule:nonzero;fill:rgb(100%,84.3%,0%);fill-opacity:1;" d="M 10.738281 187.742188 C 10.738281 189.84375 7.585938 189.84375 7.585938 187.742188 C 7.585938 185.644531 10.738281 185.644531 10.738281 187.742188 "/>
<path style=" stroke:none;fill-rule:nonzero;fill:rgb(100%,84.3%,0%);fill-opacity:1;" d="M 10.585938 256.121094 C 10.585938 258.222656 7.4375 258.222656 7.4375 256.121094 C 7.4375 254.019531 10.585938 254.019531 10.585938 256.121094 "/>
<path style=" stroke:none;fill-rule:nonzero;fill:rgb(100%,84.3%,0%);fill-opacity:1;" d="M 17.777344 45.839844 C 17.777344 47.941406 14.625 47.941406 14.625 45.839844 C 14.625 43.738281 17.777344 43.738281 17.777344 45.839844 "/>
<path style=" stroke:none;fill-rule:nonzero;fill:rgb(100%,84.3%,0%);fill-opacity:1;" d="M 57.777344 259.191406 C 57.777344 261.289062 54.628906 261.289062 54.628906 259.191406 C 54.628906 257.089844 57.777344 257.089844 57.777344 259.191406 "/>
<path style=" stroke:none;fill-rule:nonzero;fill:rgb(100%,84.3%,0%);fill-opacity:1;" d="M 13.0625 296.59375 C 13.0625 298.695312 9.910156 298.695312 9.910156 296.59375 C 9.910156 294.492188 13.0625 294.492188 13.0625 296.59375 "/>
<path style=" stroke:none;fill-rule:nonzero;fill:rgb(100%,84.3%,0%);fill-opacity:1;" d="M 10.585938 448.726562 C 10.585938 450.828125 7.4375 450.828125 7.4375 448.726562 C 7.4375 446.628906 10.585938 446.628906 10.585938 448.726562 "/>
<path style=" stroke:none;fill-rule:nonzero;fill:rgb(100%,84.3%,0%);fill-opacity:1;" d="M 59.777344 341.949219 C 59.777344 344.046875 56.628906 344.046875 56.628906 341.949219 C 56.628906 339.847656 59.777344 339.847656 59.777344 341.949219 "/>
<path style=" stroke:none;fill-rule:nonzero;fill:rgb(100%,84.3%,0%);fill-opacity:1;" d="M 61.980469 295.457031 C 61.980469 297.558594 58.828125 297.558594 58.828125 295.457031 C 58.828125 293.355469 61.980469 293.355469 61.980469 295.457031 "/>
<path style=" stroke:none;fill-rule:nonzero;fill:rgb(100%,84.3%,0%);fill-opacity:1;" d="M 11.277344 159.238281 C 11.277344 161.339844 8.125 161.339844 8.125 159.238281 C 8.125 157.140625 11.277344 157.140625 11.277344 159.238281 "/>
<path style=" stroke:none;fill-rule:nonzero;fill:rgb(100%,84.3%,0%);fill-opacity:1;" d="M 15.222656 83.65625 C 15.222656 85.753906 12.070312 85.753906 12.070312 83.65625 C 12.070312 81.554688 15.222656 81.554688 15.222656 83.65625 "/>
<path style=" stroke:none;fill-rule:nonzero;fill:rgb(100%,84.3%,0%);fill-opacity:1;" d="M 62.898438 378.113281 C 62.898438 380.214844 59.746094 380.214844 59.746094 378.113281 C 59.746094 376.011719 62.898438 376.011719 62.898438 378.113281 "/>
<path style=" stroke:none;fill-rule:nonzero;fill:rgb(100%,84.3%,0%);fill-opacity:1;" d="M 10.585938 445.214844 C 10.585938 447.3125 7.4375 447.3125 7.4375 445.214844 C 7.4375 443.113281 10.585938 443.113281 10.585938 445.214844 "/>
<path style=" stroke:none;fill-rule:nonzero;fill:rgb(100%,84.3%,0%);fill-opacity:1;" d="M 59.890625 363.699219 C 59.890625 365.800781 56.738281 365.800781 56.738281 363.699219 C 56.738281 361.601562 59.890625 361.601562 59.890625 363.699219 "/>
<path style=" stroke:none;fill-rule:nonzero;fill:rgb(100%,84.3%,0%);fill-opacity:1;" d="M 59.207031 56.054688 C 59.207031 58.15625 56.054688 58.15625 56.054688 56.054688 C 56.054688 53.953125 59.207031 53.953125 59.207031 56.054688 "/>
<path style=" stroke:none;fill-rule:nonzero;fill:rgb(100%,84.3%,0%);fill-opacity:1;" d="M 10.753906 430.984375 C 10.753906 433.082031 7.601562 433.082031 7.601562 430.984375 C 7.601562 428.882812 10.753906 428.882812 10.753906 430.984375 "/>
<path style=" stroke:none;fill-rule:nonzero;fill:rgb(100%,84.3%,0%);fill-opacity:1;" d="M 10.589844 281.789062 C 10.589844 283.890625 7.4375 283.890625 7.4375 281.789062 C 7.4375 279.6875 10.589844 279.6875 10.589844 281.789062 "/>
<path style=" stroke:none;fill-rule:nonzero;fill:rgb(100%,84.3%,0%);fill-opacity:1;" d="M 10.585938 268.652344 C 10.585938 270.753906 7.4375 270.753906 7.4375 268.652344 C 7.4375 266.554688 10.585938 266.554688 10.585938 268.652344 "/>
<path style=" stroke:none;fill-rule:nonzero;fill:rgb(100%,84.3%,0%);fill-opacity:1;" d="M 60.25 456.6875 C 60.25 458.789062 57.097656 458.789062 57.097656 456.6875 C 57.097656 454.589844 60.25 454.589844 60.25 456.6875 "/>
<path style=" stroke:none;fill-rule:nonzero;fill:rgb(100%,84.3%,0%);fill-opacity:1;" d="M 62.757812 426.265625 C 62.757812 428.367188 59.605469 428.367188 59.605469 426.265625 C 59.605469 424.164062 62.757812 424.164062 62.757812 426.265625 "/>
<path style=" stroke:none;fill-rule:nonzero;fill:rgb(100%,84.3%,0%);fill-opacity:1;" d="M 54.777344 267.753906 C 54.777344 269.855469 51.625 269.855469 51.625 267.753906 C 51.625 265.652344 54.777344 265.652344 54.777344 267.753906 "/>
<path style=" stroke:none;fill-rule:nonzero;fill:rgb(100%,84.3%,0%);fill-opacity:1;" d="M 10.851562 97.015625 C 10.851562 99.117188 7.699219 99.117188 7.699219 97.015625 C 7.699219 94.914062 10.851562 94.914062 10.851562 97.015625 "/>
<path style=" stroke:none;fill-rule:nonzero;fill:rgb(100%,84.3%,0%);fill-opacity:1;" d="M 13.949219 309.933594 C 13.949219 312.035156 10.796875 312.035156 10.796875 309.933594 C 10.796875 307.832031 13.949219 307.832031 13.949219 309.933594 "/>
<path style=" stroke:none;fill-rule:nonzero;fill:rgb(100%,84.3%,0%);fill-opacity:1;" d="M 16.199219 66.003906 C 16.199219 68.105469 13.046875 68.105469 13.046875 66.003906 C 13.046875 63.902344 16.199219 63.902344 16.199219 66.003906 "/>
<path style=" stroke:none;fill-rule:nonzero;fill:rgb(100%,84.3%,0%);fill-opacity:1;" d="M 60.28125 52.246094 C 60.28125 54.347656 57.128906 54.347656 57.128906 52.246094 C 57.128906 50.148438 60.28125 50.148438 60.28125 52.246094 "/>
<path style=" stroke:none;fill-rule:nonzero;fill:rgb(100%,84.3%,0%);fill-opacity:1;" d="M 12.628906 253.367188 C 12.628906 255.46875 9.476562 255.46875 9.476562 253.367188 C 9.476562 251.265625 12.628906 251.265625 12.628906 253.367188 "/>
<path style=" stroke:none;fill-rule:nonzero;fill:rgb(100%,84.3%,0%);fill-opacity:1;" d="M 62.621094 438.679688 C 62.621094 440.78125 59.46875 440.78125 59.46875 438.679688 C 59.46875 436.578125 62.621094 436.578125 62.621094 438.679688 "/>
<path style=" stroke:none;fill-rule:nonzero;fill:rgb(100%,84.3%,0%);fill-opacity:1;" d="M 10.8125 274.558594 C 10.8125 276.660156 7.660156 276.660156 7.660156 274.558594 C 7.660156 272.460938 10.8125 272.460938 10.8125 274.558594 "/>
<path style=" stroke:none;fill-rule:nonzero;fill:rgb(100%,84.3%,0%);fill-opacity:1;" d="M 60.050781 356.519531 C 60.050781 358.621094 56.902344 358.621094 56.902344 356.519531 C 56.902344 354.417969 60.050781 354.417969 60.050781 356.519531 "/>
<path style=" stroke:none;fill-rule:nonzero;fill:rgb(100%,84.3%,0%);fill-opacity:1;" d="M 13.429688 425.519531 C 13.429688 427.621094 10.277344 427.621094 10.277344 425.519531 C 10.277344 423.417969 13.429688 423.417969 13.429688 425.519531 "/>
<path style=" stroke:none;fill-rule:nonzero;fill:rgb(100%,84.3%,0%);fill-opacity:1;" d="M 12.578125 328.496094 C 12.578125 330.597656 9.425781 330.597656 9.425781 328.496094 C 9.425781 326.398438 12.578125 326.398438 12.578125 328.496094 "/>
<path style=" stroke:none;fill-rule:nonzero;fill:rgb(100%,84.3%,0%);fill-opacity:1;" d="M 13.015625 129.125 C 13.015625 131.226562 9.863281 131.226562 9.863281 129.125 C 9.863281 127.023438 13.015625 127.023438 13.015625 129.125 "/>
<path style=" stroke:none;fill-rule:nonzero;fill:rgb(100%,84.3%,0%);fill-opacity:1;" d="M 10.648438 178.292969 C 10.648438 180.394531 7.496094 180.394531 7.496094 178.292969 C 7.496094 176.191406 10.648438 176.191406 10.648438 178.292969 "/>
<path style=" stroke:none;fill-rule:nonzero;fill:rgb(100%,84.3%,0%);fill-opacity:1;" d="M 62.847656 364.789062 C 62.847656 366.890625 59.695312 366.890625 59.695312 364.789062 C 59.695312 362.6875 62.847656 362.6875 62.847656 364.789062 "/>
<path style=" stroke:none;fill-rule:nonzero;fill:rgb(100%,84.3%,0%);fill-opacity:1;" d="M 61.589844 335.105469 C 61.589844 337.207031 58.4375 337.207031 58.4375 335.105469 C 58.4375 333.003906 61.589844 333.003906 61.589844 335.105469 "/>
<path style=" stroke:none;fill-rule:nonzero;fill:rgb(100%,84.3%,0%);fill-opacity:1;" d="M 11.179688 93.878906 C 11.179688 95.976562 8.027344 95.976562 8.027344 93.878906 C 8.027344 91.777344 11.179688 91.777344 11.179688 93.878906 "/>
<path style=" stroke:none;fill-rule:nonzero;fill:rgb(100%,84.3%,0%);fill-opacity:1;" d="M 62.511719 289.15625 C 62.511719 291.257812 59.359375 291.257812 59.359375 289.15625 C 59.359375 287.058594 62.511719 287.058594 62.511719 289.15625 "/>
<path style=" stroke:none;fill-rule:nonzero;fill:rgb(100%,84.3%,0%);fill-opacity:1;" d="M 62.796875 391.449219 C 62.796875 393.550781 59.648438 393.550781 59.648438 391.449219 C 59.648438 389.347656 62.796875 389.347656 62.796875 391.449219 "/>
<path style=" stroke:none;fill-rule:nonzero;fill:rgb(100%,84.3%,0%);fill-opacity:1;" d="M 62.773438 348.339844 C 62.773438 350.441406 59.625 350.441406 59.625 348.339844 C 59.625 346.238281 62.773438 346.238281 62.773438 348.339844 "/>
<path style=" stroke:none;fill-rule:nonzero;fill:rgb(100%,84.3%,0%);fill-opacity:1;" d="M 11.382812 278.738281 C 11.382812 280.839844 8.234375 280.839844 8.234375 278.738281 C 8.234375 276.640625 11.382812 276.640625 11.382812 278.738281 "/>
<path style=" stroke:none;fill-rule:nonzero;fill:rgb(100%,84.3%,0%);fill-opacity:1;" d="M 10.585938 117.796875 C 10.585938 119.898438 7.4375 119.898438 7.4375 117.796875 C 7.4375 115.695312 10.585938 115.695312 10.585938 117.796875 "/>
<path style=" stroke:none;fill-rule:nonzero;fill:rgb(100%,84.3%,0%);fill-opacity:1;" d="M 12.65625 111.101562 C 12.65625 113.203125 9.503906 113.203125 9.503906 111.101562 C 9.503906 109.003906 12.65625 109.003906 12.65625 111.101562 "/>
<path style=" stroke:none;fill-rule:nonzero;fill:rgb(100%,84.3%,0%);fill-opacity:1;" d="M 62.875 358.140625 C 62.875 360.242188 59.722656 360.242188 59.722656 358.140625 C 59.722656 356.042969 62.875 356.042969 62.875 358.140625 "/>
<path style=" stroke:none;fill-rule:nonzero;fill:rgb(100%,84.3%,0%);fill-opacity:1;" d="M 59.722656 99.46875 C 59.722656 101.570312 56.574219 101.570312 56.574219 99.46875 C 56.574219 97.367188 59.722656 97.367188 59.722656 99.46875 "/>
<path style=" stroke:none;fill-rule:nonzero;fill:rgb(100%,84.3%,0%);fill-opacity:1;" d="M 59.746094 378.039062 C 59.746094 380.140625 56.59375 380.140625 56.59375 378.039062 C 56.59375 375.9375 59.746094 375.9375 59.746094 378.039062 "/>
<path style=" stroke:none;fill-rule:nonzero;fill:rgb(100%,84.3%,0%);fill-opacity:1;" d="M 13.558594 447.679688 C 13.558594 449.78125 10.410156 449.78125 10.410156 447.679688 C 10.410156 445.578125 13.558594 445.578125 13.558594 447.679688 "/>
<path style=" stroke:none;fill-rule:nonzero;fill:rgb(100%,84.3%,0%);fill-opacity:1;" d="M 59.636719 439.703125 C 59.636719 441.804688 56.488281 441.804688 56.488281 439.703125 C 56.488281 437.601562 59.636719 437.601562 59.636719 439.703125 "/>
<path style=" stroke:none;fill-rule:nonzero;fill:rgb(100%,84.3%,0%);fill-opacity:1;" d="M 31.914062 49.128906 C 31.914062 51.226562 28.761719 51.226562 28.761719 49.128906 C 28.761719 47.027344 31.914062 47.027344 31.914062 49.128906 "/>
<path style=" stroke:none;fill-rule:nonzero;fill:rgb(100%,84.3%,0%);fill-opacity:1;" d="M 62.804688 354.988281 C 62.804688 357.089844 59.65625 357.089844 59.65625 354.988281 C 59.65625 352.886719 62.804688 352.886719 62.804688 354.988281 "/>
<path style=" stroke:none;fill-rule:nonzero;fill:rgb(100%,84.3%,0%);fill-opacity:1;" d="M 62.742188 454.761719 C 62.742188 456.863281 59.589844 456.863281 59.589844 454.761719 C 59.589844 452.660156 62.742188 452.660156 62.742188 454.761719 "/>
<path style=" stroke:none;fill-rule:nonzero;fill:rgb(100%,84.3%,0%);fill-opacity:1;" d="M 14.160156 49.945312 C 14.160156 52.046875 11.007812 52.046875 11.007812 49.945312 C 11.007812 47.84375 14.160156 47.84375 14.160156 49.945312 "/>
<path style=" stroke:none;fill-rule:nonzero;fill:rgb(100%,84.3%,0%);fill-opacity:1;" d="M 10.585938 113.484375 C 10.585938 115.585938 7.4375 115.585938 7.4375 113.484375 C 7.4375 111.386719 10.585938 111.386719 10.585938 113.484375 "/>
<path style=" stroke:none;fill-rule:nonzero;fill:rgb(100%,84.3%,0%);fill-opacity:1;" d="M 10.671875 200.496094 C 10.671875 202.597656 7.519531 202.597656 7.519531 200.496094 C 7.519531 198.394531 10.671875 198.394531 10.671875 200.496094 "/>
<path style=" stroke:none;fill-rule:nonzero;fill:rgb(100%,84.3%,0%);fill-opacity:1;" d="M 10.816406 120.976562 C 10.816406 123.078125 7.664062 123.078125 7.664062 120.976562 C 7.664062 118.878906 10.816406 118.878906 10.816406 120.976562 "/>
<path style=" stroke:none;fill-rule:nonzero;fill:rgb(100%,84.3%,0%);fill-opacity:1;" d="M 10.585938 49.503906 C 10.585938 51.605469 7.4375 51.605469 7.4375 49.503906 C 7.4375 47.402344 10.585938 47.402344 10.585938 49.503906 "/>
<path style=" stroke:none;fill-rule:nonzero;fill:rgb(100%,84.3%,0%);fill-opacity:1;" d="M 12.863281 78.332031 C 12.863281 80.433594 9.710938 80.433594 9.710938 78.332031 C 9.710938 76.230469 12.863281 76.230469 12.863281 78.332031 "/>
<path style=" stroke:none;fill-rule:nonzero;fill:rgb(100%,84.3%,0%);fill-opacity:1;" d="M 56.171875 95.003906 C 56.171875 97.105469 53.023438 97.105469 53.023438 95.003906 C 53.023438 92.902344 56.171875 92.902344 56.171875 95.003906 "/>
<path style=" stroke:none;fill-rule:nonzero;fill:rgb(100%,84.3%,0%);fill-opacity:1;" d="M 11.632812 359.679688 C 11.632812 361.78125 8.480469 361.78125 8.480469 359.679688 C 8.480469 357.578125 11.632812 357.578125 11.632812 359.679688 "/>
<path style=" stroke:none;fill-rule:nonzero;fill:rgb(100%,84.3%,0%);fill-opacity:1;" d="M 62.898438 397.75 C 62.898438 399.851562 59.746094 399.851562 59.746094 397.75 C 59.746094 395.648438 62.898438 395.648438 62.898438 397.75 "/>
<path style=" stroke:none;fill-rule:nonzero;fill:rgb(100%,84.3%,0%);fill-opacity:1;" d="M 11.277344 71.65625 C 11.277344 73.753906 8.125 73.753906 8.125 71.65625 C 8.125 69.554688 11.277344 69.554688 11.277344 71.65625 "/>
<path style=" stroke:none;fill-rule:nonzero;fill:rgb(100%,84.3%,0%);fill-opacity:1;" d="M 10.828125 294.371094 C 10.828125 296.472656 7.679688 296.472656 7.679688 294.371094 C 7.679688 292.269531 10.828125 292.269531 10.828125 294.371094 "/>
<path style=" stroke:none;fill-rule:nonzero;fill:rgb(100%,84.3%,0%);fill-opacity:1;" d="M 55.710938 54.417969 C 55.710938 56.519531 52.5625 56.519531 52.5625 54.417969 C 52.5625 52.316406 55.710938 52.316406 55.710938 54.417969 "/>
<path style=" stroke:none;fill-rule:nonzero;fill:rgb(100%,84.3%,0%);fill-opacity:1;" d="M 15.625 441.140625 C 15.625 443.242188 12.472656 443.242188 12.472656 441.140625 C 12.472656 439.039062 15.625 439.039062 15.625 441.140625 "/>
<path style=" stroke:none;fill-rule:nonzero;fill:rgb(100%,84.3%,0%);fill-opacity:1;" d="M 28.417969 49.4375 C 28.417969 51.539062 25.265625 51.539062 25.265625 49.4375 C 25.265625 47.335938 28.417969 47.335938 28.417969 49.4375 "/>
<path style=" stroke:none;fill-rule:nonzero;fill:rgb(100%,84.3%,0%);fill-opacity:1;" d="M 10.585938 220.84375 C 10.585938 222.945312 7.4375 222.945312 7.4375 220.84375 C 7.4375 218.742188 10.585938 218.742188 10.585938 220.84375 "/>
<path style=" stroke:none;fill-rule:nonzero;fill:rgb(100%,84.3%,0%);fill-opacity:1;" d="M 60.210938 359.917969 C 60.210938 362.019531 57.058594 362.019531 57.058594 359.917969 C 57.058594 357.816406 60.210938 357.816406 60.210938 359.917969 "/>
<path style=" stroke:none;fill-rule:nonzero;fill:rgb(100%,84.3%,0%);fill-opacity:1;" d="M 60.671875 371.566406 C 60.671875 373.667969 57.519531 373.667969 57.519531 371.566406 C 57.519531 369.464844 60.671875 369.464844 60.671875 371.566406 "/>
<path style=" stroke:none;fill-rule:nonzero;fill:rgb(100%,84.3%,0%);fill-opacity:1;" d="M 10.585938 347.125 C 10.585938 349.226562 7.4375 349.226562 7.4375 347.125 C 7.4375 345.023438 10.585938 345.023438 10.585938 347.125 "/>
<path style=" stroke:none;fill-rule:nonzero;fill:rgb(100%,84.3%,0%);fill-opacity:1;" d="M 59.808594 432.582031 C 59.808594 434.683594 56.65625 434.683594 56.65625 432.582031 C 56.65625 430.480469 59.808594 430.480469 59.808594 432.582031 "/>
<path style=" stroke:none;fill-rule:nonzero;fill:rgb(100%,84.3%,0%);fill-opacity:1;" d="M 46.003906 105.058594 C 46.003906 107.160156 42.851562 107.160156 42.851562 105.058594 C 42.851562 102.957031 46.003906 102.957031 46.003906 105.058594 "/>
<path style=" stroke:none;fill-rule:nonzero;fill:rgb(100%,84.3%,0%);fill-opacity:1;" d="M 61.964844 423.210938 C 61.964844 425.3125 58.8125 425.3125 58.8125 423.210938 C 58.8125 421.109375 61.964844 421.109375 61.964844 423.210938 "/>
<path style=" stroke:none;fill-rule:nonzero;fill:rgb(100%,84.3%,0%);fill-opacity:1;" d="M 13.605469 257.035156 C 13.605469 259.136719 10.453125 259.136719 10.453125 257.035156 C 10.453125 254.9375 13.605469 254.9375 13.605469 257.035156 "/>
<path style=" stroke:none;fill-rule:nonzero;fill:rgb(100%,84.3%,0%);fill-opacity:1;" d="M 14.105469 220.304688 C 14.105469 222.40625 10.953125 222.40625 10.953125 220.304688 C 10.953125 218.207031 14.105469 218.207031 14.105469 220.304688 "/>
<path style=" stroke:none;fill-rule:nonzero;fill:rgb(100%,84.3%,0%);fill-opacity:1;" d="M 10.585938 203.644531 C 10.585938 205.746094 7.4375 205.746094 7.4375 203.644531 C 7.4375 201.546875 10.585938 201.546875 10.585938 203.644531 "/>
<path style=" stroke:none;fill-rule:nonzero;fill:rgb(100%,84.3%,0%);fill-opacity:1;" d="M 12.941406 300.640625 C 12.941406 302.742188 9.789062 302.742188 9.789062 300.640625 C 9.789062 298.539062 12.941406 298.539062 12.941406 300.640625 "/>
<path style=" stroke:none;fill-rule:nonzero;fill:rgb(100%,84.3%,0%);fill-opacity:1;" d="M 15.046875 72.839844 C 15.046875 74.941406 11.894531 74.941406 11.894531 72.839844 C 11.894531 70.738281 15.046875 70.738281 15.046875 72.839844 "/>
<path style=" stroke:none;fill-rule:nonzero;fill:rgb(100%,84.3%,0%);fill-opacity:1;" d="M 11.863281 100.128906 C 11.863281 102.230469 8.710938 102.230469 8.710938 100.128906 C 8.710938 98.027344 11.863281 98.027344 11.863281 100.128906 "/>
<path style=" stroke:none;fill-rule:nonzero;fill:rgb(100%,84.3%,0%);fill-opacity:1;" d="M 55.320312 71.039062 C 55.320312 73.140625 52.167969 73.140625 52.167969 71.039062 C 52.167969 68.941406 55.320312 68.941406 55.320312 71.039062 "/>
<path style=" stroke:none;fill-rule:nonzero;fill:rgb(100%,84.3%,0%);fill-opacity:1;" d="M 12.007812 217.726562 C 12.007812 219.824219 8.859375 219.824219 8.859375 217.726562 C 8.859375 215.625 12.007812 215.625 12.007812 217.726562 "/>
<path style=" stroke:none;fill-rule:nonzero;fill:rgb(100%,84.3%,0%);fill-opacity:1;" d="M 10.585938 464.710938 C 10.585938 466.8125 7.4375 466.8125 7.4375 464.710938 C 7.4375 462.609375 10.585938 462.609375 10.585938 464.710938 "/>
<path style=" stroke:none;fill-rule:nonzero;fill:rgb(100%,84.3%,0%);fill-opacity:1;" d="M 13.328125 134.507812 C 13.328125 136.609375 10.179688 136.609375 10.179688 134.507812 C 10.179688 132.40625 13.328125 132.40625 13.328125 134.507812 "/>
<path style=" stroke:none;fill-rule:nonzero;fill:rgb(100%,84.3%,0%);fill-opacity:1;" d="M 44.429688 100.144531 C 44.429688 102.246094 41.28125 102.246094 41.28125 100.144531 C 41.28125 98.042969 44.429688 98.042969 44.429688 100.144531 "/>
<path style=" stroke:none;fill-rule:nonzero;fill:rgb(100%,84.3%,0%);fill-opacity:1;" d="M 62.894531 458.402344 C 62.894531 460.503906 59.742188 460.503906 59.742188 458.402344 C 59.742188 456.304688 62.894531 456.304688 62.894531 458.402344 "/>
<path style=" stroke:none;fill-rule:nonzero;fill:rgb(100%,84.3%,0%);fill-opacity:1;" d="M 59.867188 436.328125 C 59.867188 438.429688 56.714844 438.429688 56.714844 436.328125 C 56.714844 434.226562 59.867188 434.226562 59.867188 436.328125 "/>
<path style=" stroke:none;fill-rule:nonzero;fill:rgb(100%,84.3%,0%);fill-opacity:1;" d="M 13.03125 243.894531 C 13.03125 245.996094 9.878906 245.996094 9.878906 243.894531 C 9.878906 241.792969 13.03125 241.792969 13.03125 243.894531 "/>
<path style=" stroke:none;fill-rule:nonzero;fill:rgb(100%,84.3%,0%);fill-opacity:1;" d="M 62.898438 323.316406 C 62.898438 325.417969 59.746094 325.417969 59.746094 323.316406 C 59.746094 321.214844 62.898438 321.214844 62.898438 323.316406 "/>
<path style=" stroke:none;fill-rule:nonzero;fill:rgb(100%,84.3%,0%);fill-opacity:1;" d="M 62.886719 63.515625 C 62.886719 65.617188 59.734375 65.617188 59.734375 63.515625 C 59.734375 61.417969 62.886719 61.417969 62.886719 63.515625 "/>
<path style=" stroke:none;fill-rule:nonzero;fill:rgb(100%,84.3%,0%);fill-opacity:1;" d="M 62.390625 414.242188 C 62.390625 416.339844 59.238281 416.339844 59.238281 414.242188 C 59.238281 412.140625 62.390625 412.140625 62.390625 414.242188 "/>
<path style=" stroke:none;fill-rule:nonzero;fill:rgb(100%,84.3%,0%);fill-opacity:1;" d="M 62.246094 292.296875 C 62.246094 294.398438 59.097656 294.398438 59.097656 292.296875 C 59.097656 290.195312 62.246094 290.195312 62.246094 292.296875 "/>
<path style=" stroke:none;fill-rule:nonzero;fill:rgb(100%,84.3%,0%);fill-opacity:1;" d="M 13.65625 122.347656 C 13.65625 124.445312 10.503906 124.445312 10.503906 122.347656 C 10.503906 120.246094 13.65625 120.246094 13.65625 122.347656 "/>
<path style=" stroke:none;fill-rule:nonzero;fill:rgb(100%,84.3%,0%);fill-opacity:1;" d="M 16.007812 131.285156 C 16.007812 133.386719 12.855469 133.386719 12.855469 131.285156 C 12.855469 129.183594 16.007812 129.183594 16.007812 131.285156 "/>
<path style=" stroke:none;fill-rule:nonzero;fill:rgb(100%,84.3%,0%);fill-opacity:1;" d="M 10.753906 162.449219 C 10.753906 164.546875 7.601562 164.546875 7.601562 162.449219 C 7.601562 160.347656 10.753906 160.347656 10.753906 162.449219 "/>
<path style=" stroke:none;fill-rule:nonzero;fill:rgb(100%,84.3%,0%);fill-opacity:1;" d="M 13.417969 276.332031 C 13.417969 278.433594 10.265625 278.433594 10.265625 276.332031 C 10.265625 274.230469 13.417969 274.230469 13.417969 276.332031 "/>
<path style=" stroke:none;fill-rule:nonzero;fill:rgb(100%,84.3%,0%);fill-opacity:1;" d="M 57.667969 62.316406 C 57.667969 64.414062 54.519531 64.414062 54.519531 62.316406 C 54.519531 60.214844 57.667969 60.214844 57.667969 62.316406 "/>
<path style=" stroke:none;fill-rule:nonzero;fill:rgb(100%,84.3%,0%);fill-opacity:1;" d="M 59.75 338.167969 C 59.75 340.269531 56.601562 340.269531 56.601562 338.167969 C 56.601562 336.066406 59.75 336.066406 59.75 338.167969 "/>
<path style=" stroke:none;fill-rule:nonzero;fill:rgb(100%,84.3%,0%);fill-opacity:1;" d="M 13.675781 364.914062 C 13.675781 367.015625 10.527344 367.015625 10.527344 364.914062 C 10.527344 362.8125 13.675781 362.8125 13.675781 364.914062 "/>
<path style=" stroke:none;fill-rule:nonzero;fill:rgb(100%,84.3%,0%);fill-opacity:1;" d="M 10.59375 210.125 C 10.59375 212.226562 7.445312 212.226562 7.445312 210.125 C 7.445312 208.023438 10.59375 208.023438 10.59375 210.125 "/>
<path style=" stroke:none;fill-rule:nonzero;fill:rgb(100%,84.3%,0%);fill-opacity:1;" d="M 10.742188 45.820312 C 10.742188 47.921875 7.589844 47.921875 7.589844 45.820312 C 7.589844 43.71875 10.742188 43.71875 10.742188 45.820312 "/>
<path style=" stroke:none;fill-rule:nonzero;fill:rgb(100%,84.3%,0%);fill-opacity:1;" d="M 62.898438 435.46875 C 62.898438 437.570312 59.746094 437.570312 59.746094 435.46875 C 59.746094 433.367188 62.898438 433.367188 62.898438 435.46875 "/>
<path style=" stroke:none;fill-rule:nonzero;fill:rgb(100%,84.3%,0%);fill-opacity:1;" d="M 46.039062 51.644531 C 46.039062 53.746094 42.890625 53.746094 42.890625 51.644531 C 42.890625 49.542969 46.039062 49.542969 46.039062 51.644531 "/>
<path style=" stroke:none;fill-rule:nonzero;fill:rgb(100%,84.3%,0%);fill-opacity:1;" d="M 43.773438 77.980469 C 43.773438 80.078125 40.621094 80.078125 40.621094 77.980469 C 40.621094 75.878906 43.773438 75.878906 43.773438 77.980469 "/>
<path style=" stroke:none;fill-rule:nonzero;fill:rgb(100%,84.3%,0%);fill-opacity:1;" d="M 15.089844 60.5625 C 15.089844 62.660156 11.941406 62.660156 11.941406 60.5625 C 11.941406 58.460938 15.089844 58.460938 15.089844 60.5625 "/>
<path style=" stroke:none;fill-rule:nonzero;fill:rgb(100%,84.3%,0%);fill-opacity:1;" d="M 10.585938 171.898438 C 10.585938 174 7.4375 174 7.4375 171.898438 C 7.4375 169.800781 10.585938 169.800781 10.585938 171.898438 "/>
<path style=" stroke:none;fill-rule:nonzero;fill:rgb(100%,84.3%,0%);fill-opacity:1;" d="M 12.886719 115.640625 C 12.886719 117.742188 9.734375 117.742188 9.734375 115.640625 C 9.734375 113.542969 12.886719 113.542969 12.886719 115.640625 "/>
<path style=" stroke:none;fill-rule:nonzero;fill:rgb(100%,84.3%,0%);fill-opacity:1;" d="M 11.6875 246.878906 C 11.6875 248.980469 8.539062 248.980469 8.539062 246.878906 C 8.539062 244.777344 11.6875 244.777344 11.6875 246.878906 "/>
<path style=" stroke:none;fill-rule:nonzero;fill:rgb(100%,84.3%,0%);fill-opacity:1;" d="M 10.585938 262.714844 C 10.585938 264.8125 7.4375 264.8125 7.4375 262.714844 C 7.4375 260.613281 10.585938 260.613281 10.585938 262.714844 "/>
<path style=" stroke:none;fill-rule:nonzero;fill:rgb(100%,84.3%,0%);fill-opacity:1;" d="M 62.898438 344.902344 C 62.898438 347.003906 59.746094 347.003906 59.746094 344.902344 C 59.746094 342.800781 62.898438 342.800781 62.898438 344.902344 "/>
<path style=" stroke:none;fill-rule:nonzero;fill:rgb(100%,84.3%,0%);fill-opacity:1;" d="M 11.203125 59.40625 C 11.203125 61.503906 8.050781 61.503906 8.050781 59.40625 C 8.050781 57.304688 11.203125 57.304688 11.203125 59.40625 "/>
<path style=" stroke:none;fill-rule:nonzero;fill:rgb(100%,84.3%,0%);fill-opacity:1;" d="M 12.078125 461.9375 C 12.078125 464.035156 8.929688 464.035156 8.929688 461.9375 C 8.929688 459.835938 12.078125 459.835938 12.078125 461.9375 "/>
<path style=" stroke:none;fill-rule:nonzero;fill:rgb(100%,84.3%,0%);fill-opacity:1;" d="M 61.761719 331.960938 C 61.761719 334.058594 58.609375 334.058594 58.609375 331.960938 C 58.609375 329.859375 61.761719 329.859375 61.761719 331.960938 "/>
<path style=" stroke:none;fill-rule:nonzero;fill:rgb(100%,84.3%,0%);fill-opacity:1;" d="M 60.320312 328.867188 C 60.320312 330.96875 57.167969 330.96875 57.167969 328.867188 C 57.167969 326.765625 60.320312 326.765625 60.320312 328.867188 "/>
<path style=" stroke:none;fill-rule:nonzero;fill:rgb(100%,84.3%,0%);fill-opacity:1;" d="M 10.585938 184.597656 C 10.585938 186.695312 7.4375 186.695312 7.4375 184.597656 C 7.4375 182.496094 10.585938 182.496094 10.585938 184.597656 "/>
<path style=" stroke:none;fill-rule:nonzero;fill:rgb(100%,84.3%,0%);fill-opacity:1;" d="M 62.09375 114.542969 C 62.09375 116.644531 58.941406 116.644531 58.941406 114.542969 C 58.941406 112.441406 62.09375 112.441406 62.09375 114.542969 "/>
<path style=" stroke:none;fill-rule:nonzero;fill:rgb(100%,84.3%,0%);fill-opacity:1;" d="M 15.308594 302.71875 C 15.308594 304.820312 12.15625 304.820312 12.15625 302.71875 C 12.15625 300.617188 15.308594 300.617188 15.308594 302.71875 "/>
<path style=" stroke:none;fill-rule:nonzero;fill:rgb(100%,84.3%,0%);fill-opacity:1;" d="M 10.59375 249.832031 C 10.59375 251.933594 7.441406 251.933594 7.441406 249.832031 C 7.441406 247.730469 10.59375 247.730469 10.59375 249.832031 "/>
<path style=" stroke:none;fill-rule:nonzero;fill:rgb(100%,84.3%,0%);fill-opacity:1;" d="M 62.824219 48.804688 C 62.824219 50.90625 59.671875 50.90625 59.671875 48.804688 C 59.671875 46.703125 62.824219 46.703125 62.824219 48.804688 "/>
<path style=" stroke:none;fill-rule:nonzero;fill:rgb(100%,84.3%,0%);fill-opacity:1;" d="M 62.820312 451.195312 C 62.820312 453.292969 59.671875 453.292969 59.671875 451.195312 C 59.671875 449.09375 62.820312 449.09375 62.820312 451.195312 "/>
<path style=" stroke:none;fill-rule:nonzero;fill:rgb(100%,84.3%,0%);fill-opacity:1;" d="M 12.222656 90.90625 C 12.222656 93.003906 9.074219 93.003906 9.074219 90.90625 C 9.074219 88.804688 12.222656 88.804688 12.222656 90.90625 "/>
<path style=" stroke:none;fill-rule:nonzero;fill:rgb(100%,84.3%,0%);fill-opacity:1;" d="M 62.898438 431.957031 C 62.898438 434.058594 59.746094 434.058594 59.746094 431.957031 C 59.746094 429.855469 62.898438 429.855469 62.898438 431.957031 "/>
<path style=" stroke:none;fill-rule:nonzero;fill:rgb(100%,84.3%,0%);fill-opacity:1;" d="M 10.949219 285.882812 C 10.949219 287.984375 7.796875 287.984375 7.796875 285.882812 C 7.796875 283.785156 10.949219 283.785156 10.949219 285.882812 "/>
<path style=" stroke:none;fill-rule:nonzero;fill:rgb(100%,84.3%,0%);fill-opacity:1;" d="M 11.359375 107.9375 C 11.359375 110.039062 8.210938 110.039062 8.210938 107.9375 C 8.210938 105.835938 11.359375 105.835938 11.359375 107.9375 "/>
<path style=" stroke:none;fill-rule:nonzero;fill:rgb(100%,84.3%,0%);fill-opacity:1;" d="M 10.585938 437.355469 C 10.585938 439.457031 7.4375 439.457031 7.4375 437.355469 C 7.4375 435.253906 10.585938 435.253906 10.585938 437.355469 "/>
<path style=" stroke:none;fill-rule:nonzero;fill:rgb(100%,84.3%,0%);fill-opacity:1;" d="M 62.164062 404.324219 C 62.164062 406.425781 59.011719 406.425781 59.011719 404.324219 C 59.011719 402.226562 62.164062 402.226562 62.164062 404.324219 "/>
<path style=" stroke:none;fill-rule:nonzero;fill:rgb(100%,84.3%,0%);fill-opacity:1;" d="M 62.253906 441.820312 C 62.253906 443.921875 59.101562 443.921875 59.101562 441.820312 C 59.101562 439.71875 62.253906 439.71875 62.253906 441.820312 "/>
<path style=" stroke:none;fill-rule:nonzero;fill:rgb(100%,84.3%,0%);fill-opacity:1;" d="M 62.898438 351.589844 C 62.898438 353.691406 59.746094 353.691406 59.746094 351.589844 C 59.746094 349.488281 62.898438 349.488281 62.898438 351.589844 "/>
<path style=" stroke:none;fill-rule:nonzero;fill:rgb(100%,84.3%,0%);fill-opacity:1;" d="M 60.199219 66.394531 C 60.199219 68.496094 57.046875 68.496094 57.046875 66.394531 C 57.046875 64.292969 60.199219 64.292969 60.199219 66.394531 "/>
<path style=" stroke:none;fill-rule:nonzero;fill:rgb(100%,84.3%,0%);fill-opacity:1;" d="M 10.601562 141.421875 C 10.601562 143.523438 7.449219 143.523438 7.449219 141.421875 C 7.449219 139.320312 10.601562 139.320312 10.601562 141.421875 "/>
<path style=" stroke:none;fill-rule:nonzero;fill:rgb(100%,84.3%,0%);fill-opacity:1;" d="M 62.632812 118.191406 C 62.632812 120.292969 59.480469 120.292969 59.480469 118.191406 C 59.480469 116.089844 62.632812 116.089844 62.632812 118.191406 "/>
<path style=" stroke:none;fill-rule:nonzero;fill:rgb(100%,84.3%,0%);fill-opacity:1;" d="M 60.09375 464.730469 C 60.09375 466.832031 56.945312 466.832031 56.945312 464.730469 C 56.945312 462.628906 60.09375 462.628906 60.09375 464.730469 "/>
<path style=" stroke:none;fill-rule:nonzero;fill:rgb(100%,84.3%,0%);fill-opacity:1;" d="M 12.269531 214.585938 C 12.269531 216.683594 9.121094 216.683594 9.121094 214.585938 C 9.121094 212.484375 12.269531 212.484375 12.269531 214.585938 "/>
<path style=" stroke:none;fill-rule:nonzero;fill:rgb(100%,84.3%,0%);fill-opacity:1;" d="M 61.957031 444.964844 C 61.957031 447.0625 58.804688 447.0625 58.804688 444.964844 C 58.804688 442.863281 61.957031 442.863281 61.957031 444.964844 "/>
<path style=" stroke:none;fill-rule:nonzero;fill:rgb(100%,84.3%,0%);fill-opacity:1;" d="M 11.777344 230.894531 C 11.777344 232.996094 8.625 232.996094 8.625 230.894531 C 8.625 228.796875 11.777344 228.796875 11.777344 230.894531 "/>
<path style=" stroke:none;fill-rule:nonzero;fill:rgb(100%,84.3%,0%);fill-opacity:1;" d="M 11.640625 265.683594 C 11.640625 267.785156 8.488281 267.785156 8.488281 265.683594 C 8.488281 263.582031 11.640625 263.582031 11.640625 265.683594 "/>
<path style=" stroke:none;fill-rule:nonzero;fill:rgb(100%,84.3%,0%);fill-opacity:1;" d="M 10.589844 459.007812 C 10.589844 461.109375 7.4375 461.109375 7.4375 459.007812 C 7.4375 456.910156 10.589844 456.910156 10.589844 459.007812 "/>
<path style=" stroke:none;fill-rule:nonzero;fill:rgb(100%,84.3%,0%);fill-opacity:1;" d="M 62.453125 462.394531 C 62.453125 464.496094 59.300781 464.496094 59.300781 462.394531 C 59.300781 460.296875 62.453125 460.296875 62.453125 462.394531 "/>
<path style=" stroke:none;fill-rule:nonzero;fill:rgb(100%,84.3%,0%);fill-opacity:1;" d="M 11.941406 339.308594 C 11.941406 341.40625 8.789062 341.40625 8.789062 339.308594 C 8.789062 337.207031 11.941406 337.207031 11.941406 339.308594 "/>
<path style=" stroke:none;fill-rule:nonzero;fill:rgb(100%,84.3%,0%);fill-opacity:1;" d="M 13.375 435.890625 C 13.375 437.988281 10.226562 437.988281 10.226562 435.890625 C 10.226562 433.789062 13.375 433.789062 13.375 435.890625 "/>
<path style=" stroke:none;fill-rule:nonzero;fill:rgb(100%,84.3%,0%);fill-opacity:1;" d="M 10.601562 194.046875 C 10.601562 196.144531 7.453125 196.144531 7.453125 194.046875 C 7.453125 191.945312 10.601562 191.945312 10.601562 194.046875 "/>
<path style=" stroke:none;fill-rule:nonzero;fill:rgb(100%,84.3%,0%);fill-opacity:1;" d="M 59.875 367.207031 C 59.875 369.308594 56.722656 369.308594 56.722656 367.207031 C 56.722656 365.105469 59.875 365.105469 59.875 367.207031 "/>
<path style=" stroke:none;fill-rule:nonzero;fill:rgb(100%,84.3%,0%);fill-opacity:1;" d="M 11.820312 271.574219 C 11.820312 273.675781 8.667969 273.675781 8.667969 271.574219 C 8.667969 269.472656 11.820312 269.472656 11.820312 271.574219 "/>
<path style=" stroke:none;fill-rule:nonzero;fill:rgb(100%,84.3%,0%);fill-opacity:1;" d="M 11.25 356.550781 C 11.25 358.652344 8.097656 358.652344 8.097656 356.550781 C 8.097656 354.453125 11.25 354.453125 11.25 356.550781 "/>
<path style=" stroke:none;fill-rule:nonzero;fill:rgb(100%,84.3%,0%);fill-opacity:1;" d="M 13.175781 125.96875 C 13.175781 128.070312 10.023438 128.070312 10.023438 125.96875 C 10.023438 123.867188 13.175781 123.867188 13.175781 125.96875 "/>
<path style=" stroke:none;fill-rule:nonzero;fill:rgb(100%,84.3%,0%);fill-opacity:1;" d="M 13.78125 87.246094 C 13.78125 89.347656 10.628906 89.347656 10.628906 87.246094 C 10.628906 85.144531 13.78125 85.144531 13.78125 87.246094 "/>
<path style=" stroke:none;fill-rule:nonzero;fill:rgb(100%,84.3%,0%);fill-opacity:1;" d="M 11.117188 325.707031 C 11.117188 327.808594 7.964844 327.808594 7.964844 325.707031 C 7.964844 323.605469 11.117188 323.605469 11.117188 325.707031 "/>
<path style=" stroke:none;fill-rule:nonzero;fill:rgb(100%,84.3%,0%);fill-opacity:1;" d="M 62.898438 255.484375 C 62.898438 257.585938 59.746094 257.585938 59.746094 255.484375 C 59.746094 253.386719 62.898438 253.386719 62.898438 255.484375 "/>
<path style=" stroke:none;fill-rule:nonzero;fill:rgb(100%,84.3%,0%);fill-opacity:1;" d="M 12.613281 451.140625 C 12.613281 453.242188 9.464844 453.242188 9.464844 451.140625 C 9.464844 449.039062 12.613281 449.039062 12.613281 451.140625 "/>
<path style=" stroke:none;fill-rule:nonzero;fill:rgb(100%,84.3%,0%);fill-opacity:1;" d="M 11.867188 303.90625 C 11.867188 306.007812 8.714844 306.007812 8.714844 303.90625 C 8.714844 301.804688 11.867188 301.804688 11.867188 303.90625 "/>
<path style=" stroke:none;fill-rule:nonzero;fill:rgb(100%,84.3%,0%);fill-opacity:1;" d="M 11.34375 66.234375 C 11.34375 68.335938 8.195312 68.335938 8.195312 66.234375 C 8.195312 64.132812 11.34375 64.132812 11.34375 66.234375 "/>
<path style=" stroke:none;fill-rule:nonzero;fill:rgb(100%,84.3%,0%);fill-opacity:1;" d="M 13.816406 250.449219 C 13.816406 252.550781 10.667969 252.550781 10.667969 250.449219 C 10.667969 248.347656 13.816406 248.347656 13.816406 250.449219 "/>
<path style=" stroke:none;fill-rule:nonzero;fill:rgb(100%,84.3%,0%);fill-opacity:1;" d="M 17.707031 364.933594 C 17.707031 367.035156 14.558594 367.035156 14.558594 364.933594 C 14.558594 362.832031 17.707031 362.832031 17.707031 364.933594 "/>
<path style=" stroke:none;fill-rule:nonzero;fill:rgb(100%,84.3%,0%);fill-opacity:1;" d="M 14.277344 316.054688 C 14.277344 318.15625 11.125 318.15625 11.125 316.054688 C 11.125 313.953125 14.277344 313.953125 14.277344 316.054688 "/>
<path style=" stroke:none;fill-rule:nonzero;fill:rgb(100%,84.3%,0%);fill-opacity:1;" d="M 10.695312 427.542969 C 10.695312 429.644531 7.542969 429.644531 7.542969 427.542969 C 7.542969 425.441406 10.695312 425.441406 10.695312 427.542969 "/>
<path style=" stroke:none;fill-rule:nonzero;fill:rgb(100%,84.3%,0%);fill-opacity:1;" d="M 10.605469 136.324219 C 10.605469 138.425781 7.453125 138.425781 7.453125 136.324219 C 7.453125 134.226562 10.605469 134.226562 10.605469 136.324219 "/>
<path style=" stroke:none;fill-rule:nonzero;fill:rgb(100%,84.3%,0%);fill-opacity:1;" d="M 10.699219 197.34375 C 10.699219 199.445312 7.546875 199.445312 7.546875 197.34375 C 7.546875 195.246094 10.699219 195.246094 10.699219 197.34375 "/>
<path style=" stroke:none;fill-rule:nonzero;fill:rgb(100%,84.3%,0%);fill-opacity:1;" d="M 60.171875 452.9375 C 60.171875 455.035156 57.023438 455.035156 57.023438 452.9375 C 57.023438 450.835938 60.171875 450.835938 60.171875 452.9375 "/>
<path style=" stroke:none;fill-rule:nonzero;fill:rgb(100%,84.3%,0%);fill-opacity:1;" d="M 13.25 292.285156 C 13.25 294.386719 10.101562 294.386719 10.101562 292.285156 C 10.101562 290.1875 13.25 290.1875 13.25 292.285156 "/>
<path style=" stroke:none;fill-rule:nonzero;fill:rgb(100%,84.3%,0%);fill-opacity:1;" d="M 13.136719 421.929688 C 13.136719 424.03125 9.984375 424.03125 9.984375 421.929688 C 9.984375 419.828125 13.136719 419.828125 13.136719 421.929688 "/>
<path style=" stroke:none;fill-rule:nonzero;fill:rgb(100%,84.3%,0%);fill-opacity:1;" d="M 62.503906 374.605469 C 62.503906 376.707031 59.355469 376.707031 59.355469 374.605469 C 59.355469 372.503906 62.503906 372.503906 62.503906 374.605469 "/>
<path style=" stroke:none;fill-rule:nonzero;fill:rgb(100%,84.3%,0%);fill-opacity:1;" d="M 59.800781 460.691406 C 59.800781 462.792969 56.652344 462.792969 56.652344 460.691406 C 56.652344 458.59375 59.800781 458.59375 59.800781 460.691406 "/>
<path style=" stroke:none;fill-rule:nonzero;fill:rgb(100%,84.3%,0%);fill-opacity:1;" d="M 54.316406 50.464844 C 54.316406 52.5625 51.167969 52.5625 51.167969 50.464844 C 51.167969 48.363281 54.316406 48.363281 54.316406 50.464844 "/>
</g>
</svg>
