<?xml version="1.0" encoding="UTF-8"?>
<svg xmlns="http://www.w3.org/2000/svg" xmlns:xlink="http://www.w3.org/1999/xlink" width="512pt" height="512pt" viewBox="0 0 512 512" version="1.1">
<g id="surface386">
<path style=" stroke:none;fill-rule:nonzero;fill:rgb(26.7%,26.7%,26.7%);fill-opacity:1;" d="M 0 103.410156 L 512 103.410156 L 512 408.585938 L 0 408.585938 Z M 0 103.410156 "/>
<path style=" stroke:none;fill-rule:nonzero;fill:rgb(19.2%,38.8%,66.7%);fill-opacity:1;" d="M 42.667969 128.84375 L 469.332031 128.84375 L 469.332031 383.15625 L 42.667969 383.15625 Z M 42.667969 128.84375 "/>
<path style=" stroke:none;fill-rule:nonzero;fill:rgb(90.6%,14.9%,14.9%);fill-opacity:1;" d="M 45.679688 413.289062 C 45.679688 417.304688 39.652344 417.304688 39.652344 413.289062 C 39.652344 409.269531 45.679688 409.269531 45.679688 413.289062 "/>
<path style=" stroke:none;fill-rule:nonzero;fill:rgb(90.6%,14.9%,14.9%);fill-opacity:1;" d="M 57.730469 413.289062 C 57.730469 417.304688 51.707031 417.304688 51.707031 413.289062 C 51.707031 409.269531 57.730469 409.269531 57.730469 413.289062 "/>
<path style=" stroke:none;fill-rule:nonzero;fill:rgb(90.6%,14.9%,14.9%);fill-opacity:1;" d="M 69.785156 413.289062 C 69.785156 417.304688 63.757812 417.304688 63.757812 413.289062 C 63.757812 409.269531 69.785156 409.269531 69.785156 413.289062 "/>
<path style=" stroke:none;fill-rule:nonzero;fill:rgb(90.6%,14.9%,14.9%);fill-opacity:1;" d="M 81.839844 413.289062 C 81.839844 417.304688 75.8125 417.304688 75.8125 413.289062 C 75.8125 409.269531 81.839844 409.269531 81.839844 413.289062 "/>
<path style=" stroke:none;fill-rule:nonzero;fill:rgb(90.6%,14.9%,14.9%);fill-opacity:1;" d="M 93.890625 413.289062 C 93.890625 417.304688 87.863281 417.304688 87.863281 413.289062 C 87.863281 409.269531 93.890625 409.269531 93.890625 413.289062 "/>
<path style=" stroke:none;fill-rule:nonzero;fill:rgb(90.6%,14.9%,14.9%);fill-opacity:1;" d="M 105.941406 413.289062 C 105.941406 417.304688 99.917969 417.304688 99.917969 413.289062 C 99.917969 409.269531 105.941406 409.269531 105.941406 413.289062 "/>
<path style=" stroke:none;fill-rule:nonzero;fill:rgb(90.6%,14.9%,14.9%);fill-opacity:1;" d="M 117.996094 413.289062 C 117.996094 417.304688 111.96875 417.304688 111.96875 413.289062 C 111.96875 409.269531 117.996094 409.269531 117.996094 413.289062 "/>
<path style=" stroke:none;fill-rule:nonzero;fill:rgb(90.6%,14.9%,14.9%);fill-opacity:1;" d="M 130.050781 413.289062 C 130.050781 417.304688 124.023438 417.304688 124.023438 413.289062 C 124.023438 409.269531 130.050781 409.269531 130.050781 413.289062 "/>
<path style=" stroke:none;fill-rule:nonzero;fill:rgb(90.6%,14.9%,14.9%);fill-opacity:1;" d="M 45.679688 98.710938 C 45.679688 102.730469 39.652344 102.730469 39.652344 98.710938 C 39.652344 94.695312 45.679688 94.695312 45.679688 98.710938 "/>
<path style=" stroke:none;fill-rule:nonzero;fill:rgb(90.6%,14.9%,14.9%);fill-opacity:1;" d="M 57.730469 98.710938 C 57.730469 102.730469 51.707031 102.730469 51.707031 98.710938 C 51.707031 94.695312 57.730469 94.695312 57.730469 98.710938 "/>
<path style=" stroke:none;fill-rule:nonzero;fill:rgb(90.6%,14.9%,14.9%);fill-opacity:1;" d="M 69.785156 98.710938 C 69.785156 102.730469 63.757812 102.730469 63.757812 98.710938 C 63.757812 94.695312 69.785156 94.695312 69.785156 98.710938 "/>
<path style=" stroke:none;fill-rule:nonzero;fill:rgb(90.6%,14.9%,14.9%);fill-opacity:1;" d="M 81.839844 98.710938 C 81.839844 102.730469 75.8125 102.730469 75.8125 98.710938 C 75.8125 94.695312 81.839844 94.695312 81.839844 98.710938 "/>
<path style=" stroke:none;fill-rule:nonzero;fill:rgb(90.6%,14.9%,14.9%);fill-opacity:1;" d="M 93.890625 98.710938 C 93.890625 102.730469 87.863281 102.730469 87.863281 98.710938 C 87.863281 94.695312 93.890625 94.695312 93.890625 98.710938 "/>
<path style=" stroke:none;fill-rule:nonzero;fill:rgb(90.6%,14.9%,14.9%);fill-opacity:1;" d="M 105.941406 98.710938 C 105.941406 102.730469 99.917969 102.730469 99.917969 98.710938 C 99.917969 94.695312 105.941406 94.695312 105.941406 98.710938 "/>
<path style=" stroke:none;fill-rule:nonzero;fill:rgb(90.6%,14.9%,14.9%);fill-opacity:1;" d="M 117.996094 98.710938 C 117.996094 102.730469 111.96875 102.730469 111.96875 98.710938 C 111.96875 94.695312 117.996094 94.695312 117.996094 98.710938 "/>
<path style=" stroke:none;fill-rule:nonzero;fill:rgb(90.6%,14.9%,14.9%);fill-opacity:1;" d="M 130.050781 98.710938 C 130.050781 102.730469 124.023438 102.730469 124.023438 98.710938 C 124.023438 94.695312 130.050781 94.695312 130.050781 98.710938 "/>
<path style=" stroke:none;fill-rule:nonzero;fill:rgb(90.6%,14.9%,14.9%);fill-opacity:1;" d="M 142.101562 98.710938 C 142.101562 102.730469 136.074219 102.730469 136.074219 98.710938 C 136.074219 94.695312 142.101562 94.695312 142.101562 98.710938 "/>
<path style=" stroke:none;fill-rule:nonzero;fill:rgb(100%,100%,100%);fill-opacity:1;" d="M 449.445312 122.816406 C 449.445312 126.835938 443.417969 126.835938 443.417969 122.816406 C 443.417969 118.800781 449.445312 118.800781 449.445312 122.816406 "/>
<path style=" stroke:none;fill-rule:nonzero;fill:rgb(100%,100%,100%);fill-opacity:1;" d="M 153.550781 63.757812 C 153.550781 67.777344 147.527344 67.777344 147.527344 63.757812 C 147.527344 59.742188 153.550781 59.742188 153.550781 63.757812 "/>
<path style=" stroke:none;fill-rule:nonzero;fill:rgb(100%,100%,100%);fill-opacity:1;" d="M 186.09375 16.152344 C 186.09375 20.167969 180.066406 20.167969 180.066406 16.152344 C 180.066406 12.132812 186.09375 12.132812 186.09375 16.152344 "/>
<path style=" stroke:none;fill-rule:nonzero;fill:rgb(100%,100%,100%);fill-opacity:1;" d="M 2.289062 51.707031 C 2.289062 55.722656 -3.734375 55.722656 -3.734375 51.707031 C -3.734375 47.6875 2.289062 47.6875 2.289062 51.707031 "/>
<path style=" stroke:none;fill-rule:nonzero;fill:rgb(100%,100%,100%);fill-opacity:1;" d="M 67.375 501.875 C 67.375 505.894531 61.347656 505.894531 61.347656 501.875 C 61.347656 497.859375 67.375 497.859375 67.375 501.875 "/>
<path style=" stroke:none;fill-rule:nonzero;fill:rgb(100%,100%,100%);fill-opacity:1;" d="M 345.191406 413.890625 C 345.191406 417.910156 339.164062 417.910156 339.164062 413.890625 C 339.164062 409.875 345.191406 409.875 345.191406 413.890625 "/>
<path style=" stroke:none;fill-rule:nonzero;fill:rgb(100%,100%,100%);fill-opacity:1;" d="M 265.039062 84.851562 C 265.039062 88.867188 259.011719 88.867188 259.011719 84.851562 C 259.011719 80.832031 265.039062 80.832031 265.039062 84.851562 "/>
<path style=" stroke:none;fill-rule:nonzero;fill:rgb(100%,100%,100%);fill-opacity:1;" d="M 319.878906 388.578125 C 319.878906 392.597656 313.851562 392.597656 313.851562 388.578125 C 313.851562 384.5625 319.878906 384.5625 319.878906 388.578125 "/>
<path style=" stroke:none;fill-rule:nonzero;fill:rgb(100%,100%,100%);fill-opacity:1;" d="M 263.230469 433.175781 C 263.230469 437.191406 257.203125 437.191406 257.203125 433.175781 C 257.203125 429.15625 263.230469 429.15625 263.230469 433.175781 "/>
<path style=" stroke:none;fill-rule:nonzero;fill:rgb(100%,100%,100%);fill-opacity:1;" d="M 126.433594 447.035156 C 126.433594 451.054688 120.40625 451.054688 120.40625 447.035156 C 120.40625 443.019531 126.433594 443.019531 126.433594 447.035156 "/>
<path style=" stroke:none;fill-rule:nonzero;fill:rgb(100%,100%,100%);fill-opacity:1;" d="M 516.941406 498.261719 C 516.941406 502.277344 510.914062 502.277344 510.914062 498.261719 C 510.914062 494.242188 516.941406 494.242188 516.941406 498.261719 "/>
<path style=" stroke:none;fill-rule:nonzero;fill:rgb(100%,100%,100%);fill-opacity:1;" d="M 236.113281 418.109375 C 236.113281 422.125 230.085938 422.125 230.085938 418.109375 C 230.085938 414.089844 236.113281 414.089844 236.113281 418.109375 "/>
<path style=" stroke:none;fill-rule:nonzero;fill:rgb(100%,100%,100%);fill-opacity:1;" d="M 154.152344 118.597656 C 154.152344 122.617188 148.128906 122.617188 148.128906 118.597656 C 148.128906 114.582031 154.152344 114.582031 154.152344 118.597656 "/>
<path style=" stroke:none;fill-rule:nonzero;fill:rgb(100%,100%,100%);fill-opacity:1;" d="M 22.175781 456.074219 C 22.175781 460.09375 16.152344 460.09375 16.152344 456.074219 C 16.152344 452.058594 22.175781 452.058594 22.175781 456.074219 "/>
<path style=" stroke:none;fill-rule:nonzero;fill:rgb(100%,100%,100%);fill-opacity:1;" d="M 228.277344 29.410156 C 228.277344 33.425781 222.253906 33.425781 222.253906 29.410156 C 222.253906 25.390625 228.277344 25.390625 228.277344 29.410156 "/>
<path style=" stroke:none;fill-rule:nonzero;fill:rgb(100%,100%,100%);fill-opacity:1;" d="M 377.730469 416.902344 C 377.730469 420.921875 371.707031 420.921875 371.707031 416.902344 C 371.707031 412.886719 377.730469 412.886719 377.730469 416.902344 "/>
<path style=" stroke:none;fill-rule:nonzero;fill:rgb(100%,100%,100%);fill-opacity:1;" d="M 110.164062 413.289062 C 110.164062 417.304688 104.136719 417.304688 104.136719 413.289062 C 104.136719 409.269531 110.164062 409.269531 110.164062 413.289062 "/>
<path style=" stroke:none;fill-rule:nonzero;fill:rgb(100%,100%,100%);fill-opacity:1;" d="M 67.976562 66.167969 C 67.976562 70.1875 61.949219 70.1875 61.949219 66.167969 C 61.949219 62.152344 67.976562 62.152344 67.976562 66.167969 "/>
<path style=" stroke:none;fill-rule:nonzero;fill:rgb(100%,100%,100%);fill-opacity:1;" d="M 318.070312 424.136719 C 318.070312 428.152344 312.042969 428.152344 312.042969 424.136719 C 312.042969 420.117188 318.070312 420.117188 318.070312 424.136719 "/>
<path style=" stroke:none;fill-rule:nonzero;fill:rgb(100%,100%,100%);fill-opacity:1;" d="M 344.585938 384.964844 C 344.585938 388.980469 338.5625 388.980469 338.5625 384.964844 C 338.5625 380.945312 344.585938 380.945312 344.585938 384.964844 "/>
<path style=" stroke:none;fill-rule:nonzero;fill:rgb(100%,100%,100%);fill-opacity:1;" d="M 515.734375 510.3125 C 515.734375 514.332031 509.710938 514.332031 509.710938 510.3125 C 509.710938 506.296875 515.734375 506.296875 515.734375 510.3125 "/>
<path style=" stroke:none;fill-rule:nonzero;fill:rgb(100%,100%,100%);fill-opacity:1;" d="M 309.03125 492.234375 C 309.03125 496.25 303.003906 496.25 303.003906 492.234375 C 303.003906 488.214844 309.03125 488.214844 309.03125 492.234375 "/>
<path style=" stroke:none;fill-rule:nonzero;fill:rgb(100%,100%,100%);fill-opacity:1;" d="M 2.890625 13.136719 C 2.890625 17.15625 -3.132812 17.15625 -3.132812 13.136719 C -3.132812 9.121094 2.890625 9.121094 2.890625 13.136719 "/>
<path style=" stroke:none;fill-rule:nonzero;fill:rgb(100%,100%,100%);fill-opacity:1;" d="M 70.386719 25.792969 C 70.386719 29.8125 64.363281 29.8125 64.363281 25.792969 C 64.363281 21.777344 70.386719 21.777344 70.386719 25.792969 "/>
<path style=" stroke:none;fill-rule:nonzero;fill:rgb(100%,100%,100%);fill-opacity:1;" d="M 451.855469 466.921875 C 451.855469 470.941406 445.832031 470.941406 445.832031 466.921875 C 445.832031 462.90625 451.855469 462.90625 451.855469 466.921875 "/>
<path style=" stroke:none;fill-rule:nonzero;fill:rgb(100%,100%,100%);fill-opacity:1;" d="M 163.195312 475.359375 C 163.195312 479.378906 157.167969 479.378906 157.167969 475.359375 C 157.167969 471.34375 163.195312 471.34375 163.195312 475.359375 "/>
<path style=" stroke:none;fill-rule:nonzero;fill:rgb(100%,84.3%,0%);fill-opacity:1;" d="M 429.871094 371.765625 C 429.871094 375.785156 423.84375 375.785156 423.84375 371.765625 C 423.84375 367.75 429.871094 367.75 429.871094 371.765625 "/>
<path style=" stroke:none;fill-rule:nonzero;fill:rgb(100%,84.3%,0%);fill-opacity:1;" d="M 440.996094 377.105469 C 440.996094 381.125 434.972656 381.125 434.972656 377.105469 C 434.972656 373.089844 440.996094 373.089844 440.996094 377.105469 "/>
<path style=" stroke:none;fill-rule:nonzero;fill:rgb(100%,84.3%,0%);fill-opacity:1;" d="M 465.164062 161.015625 C 465.164062 165.035156 459.136719 165.035156 459.136719 161.015625 C 459.136719 157 465.164062 157 465.164062 161.015625 "/>
<path style=" stroke:none;fill-rule:nonzero;fill:rgb(100%,84.3%,0%);fill-opacity:1;" d="M 122.382812 377.128906 C 122.382812 381.148438 116.355469 381.148438 116.355469 377.128906 C 116.355469 373.113281 122.382812 373.113281 122.382812 377.128906 "/>
<path style=" stroke:none;fill-rule:nonzero;fill:rgb(100%,84.3%,0%);fill-opacity:1;" d="M 52.140625 311.972656 C 52.140625 315.992188 46.117188 315.992188 46.117188 311.972656 C 46.117188 307.957031 52.140625 307.957031 52.140625 311.972656 "/>
<path style=" stroke:none;fill-rule:nonzero;fill:rgb(100%,84.3%,0%);fill-opacity:1;" d="M 230.617188 377.128906 C 230.617188 381.148438 224.589844 381.148438 224.589844 377.128906 C 224.589844 373.113281 230.617188 373.113281 230.617188 377.128906 "/>
<path style=" stroke:none;fill-rule:nonzero;fill:rgb(100%,84.3%,0%);fill-opacity:1;" d="M 152.480469 140.304688 C 152.480469 144.324219 146.453125 144.324219 146.453125 140.304688 C 146.453125 136.289062 152.480469 136.289062 152.480469 140.304688 "/>
<path style=" stroke:none;fill-rule:nonzero;fill:rgb(100%,84.3%,0%);fill-opacity:1;" d="M 204.148438 137.410156 C 204.148438 141.429688 198.121094 141.429688 198.121094 137.410156 C 198.121094 133.394531 204.148438 133.394531 204.148438 137.410156 "/>
<path style=" stroke:none;fill-rule:nonzero;fill:rgb(100%,84.3%,0%);fill-opacity:1;" d="M 411.546875 376.980469 C 411.546875 381 405.523438 381 405.523438 376.980469 C 405.523438 372.964844 411.546875 372.964844 411.546875 376.980469 "/>
<path style=" stroke:none;fill-rule:nonzero;fill:rgb(100%,84.3%,0%);fill-opacity:1;" d="M 460.292969 134.871094 C 460.292969 138.886719 454.265625 138.886719 454.265625 134.871094 C 454.265625 130.851562 460.292969 130.851562 460.292969 134.871094 "/>
<path style=" stroke:none;fill-rule:nonzero;fill:rgb(100%,84.3%,0%);fill-opacity:1;" d="M 385.273438 371.496094 C 385.273438 375.515625 379.246094 375.515625 379.246094 371.496094 C 379.246094 367.480469 385.273438 367.480469 385.273438 371.496094 "/>
<path style=" stroke:none;fill-rule:nonzero;fill:rgb(100%,84.3%,0%);fill-opacity:1;" d="M 55.167969 215.78125 C 55.167969 219.796875 49.140625 219.796875 49.140625 215.78125 C 49.140625 211.761719 55.167969 211.761719 55.167969 215.78125 "/>
<path style=" stroke:none;fill-rule:nonzero;fill:rgb(100%,84.3%,0%);fill-opacity:1;" d="M 464.40625 291.027344 C 464.40625 295.042969 458.378906 295.042969 458.378906 291.027344 C 458.378906 287.007812 464.40625 287.007812 464.40625 291.027344 "/>
<path style=" stroke:none;fill-rule:nonzero;fill:rgb(100%,84.3%,0%);fill-opacity:1;" d="M 52.296875 366.972656 C 52.296875 370.988281 46.269531 370.988281 46.269531 366.972656 C 46.269531 362.953125 52.296875 362.953125 52.296875 366.972656 "/>
<path style=" stroke:none;fill-rule:nonzero;fill:rgb(100%,84.3%,0%);fill-opacity:1;" d="M 106.75 370.488281 C 106.75 374.503906 100.722656 374.503906 100.722656 370.488281 C 100.722656 366.46875 106.75 366.46875 106.75 370.488281 "/>
<path style=" stroke:none;fill-rule:nonzero;fill:rgb(100%,84.3%,0%);fill-opacity:1;" d="M 197.621094 134.871094 C 197.621094 138.890625 191.59375 138.890625 191.59375 134.871094 C 191.59375 130.855469 197.621094 130.855469 197.621094 134.871094 "/>
<path style=" stroke:none;fill-rule:nonzero;fill:rgb(100%,84.3%,0%);fill-opacity:1;" d="M 51.707031 177.046875 C 51.707031 181.0625 45.679688 181.0625 45.679688 177.046875 C 45.679688 173.027344 51.707031 173.027344 51.707031 177.046875 "/>
<path style=" stroke:none;fill-rule:nonzero;fill:rgb(100%,84.3%,0%);fill-opacity:1;" d="M 293.15625 365.789062 C 293.15625 369.808594 287.128906 369.808594 287.128906 365.789062 C 287.128906 361.773438 293.15625 361.773438 293.15625 365.789062 "/>
<path style=" stroke:none;fill-rule:nonzero;fill:rgb(100%,84.3%,0%);fill-opacity:1;" d="M 316.707031 136.070312 C 316.707031 140.089844 310.679688 140.089844 310.679688 136.070312 C 310.679688 132.054688 316.707031 132.054688 316.707031 136.070312 "/>
<path style=" stroke:none;fill-rule:nonzero;fill:rgb(100%,84.3%,0%);fill-opacity:1;" d="M 75.765625 377.128906 C 75.765625 381.148438 69.738281 381.148438 69.738281 377.128906 C 69.738281 373.113281 75.765625 373.113281 75.765625 377.128906 "/>
<path style=" stroke:none;fill-rule:nonzero;fill:rgb(100%,84.3%,0%);fill-opacity:1;" d="M 54.933594 147.460938 C 54.933594 151.480469 48.910156 151.480469 48.910156 147.460938 C 48.910156 143.445312 54.933594 143.445312 54.933594 147.460938 "/>
<path style=" stroke:none;fill-rule:nonzero;fill:rgb(100%,84.3%,0%);fill-opacity:1;" d="M 269.460938 134.871094 C 269.460938 138.886719 263.433594 138.886719 263.433594 134.871094 C 263.433594 130.851562 269.460938 130.851562 269.460938 134.871094 "/>
<path style=" stroke:none;fill-rule:nonzero;fill:rgb(100%,84.3%,0%);fill-opacity:1;" d="M 292.273438 140.914062 C 292.273438 144.933594 286.246094 144.933594 286.246094 140.914062 C 286.246094 136.898438 292.273438 136.898438 292.273438 140.914062 "/>
<path style=" stroke:none;fill-rule:nonzero;fill:rgb(100%,84.3%,0%);fill-opacity:1;" d="M 463.609375 356.242188 C 463.609375 360.257812 457.582031 360.257812 457.582031 356.242188 C 457.582031 352.222656 463.609375 352.222656 463.609375 356.242188 "/>
<path style=" stroke:none;fill-rule:nonzero;fill:rgb(100%,84.3%,0%);fill-opacity:1;" d="M 429.933594 136.128906 C 429.933594 140.148438 423.90625 140.148438 423.90625 136.128906 C 423.90625 132.113281 429.933594 132.113281 429.933594 136.128906 "/>
<path style=" stroke:none;fill-rule:nonzero;fill:rgb(100%,84.3%,0%);fill-opacity:1;" d="M 145.9375 377.128906 C 145.9375 381.148438 139.910156 381.148438 139.910156 377.128906 C 139.910156 373.113281 145.9375 373.113281 145.9375 377.128906 "/>
<path style=" stroke:none;fill-rule:nonzero;fill:rgb(100%,84.3%,0%);fill-opacity:1;" d="M 280.714844 374.65625 C 280.714844 378.671875 274.6875 378.671875 274.6875 374.65625 C 274.6875 370.636719 280.714844 370.636719 280.714844 374.65625 "/>
<path style=" stroke:none;fill-rule:nonzero;fill:rgb(100%,84.3%,0%);fill-opacity:1;" d="M 320.941406 377.128906 C 320.941406 381.148438 314.914062 381.148438 314.914062 377.128906 C 314.914062 373.113281 320.941406 373.113281 320.941406 377.128906 "/>
<path style=" stroke:none;fill-rule:nonzero;fill:rgb(100%,84.3%,0%);fill-opacity:1;" d="M 350.222656 364.132812 C 350.222656 368.152344 344.199219 368.152344 344.199219 364.132812 C 344.199219 360.117188 350.222656 360.117188 350.222656 364.132812 "/>
<path style=" stroke:none;fill-rule:nonzero;fill:rgb(100%,84.3%,0%);fill-opacity:1;" d="M 463.925781 349.691406 C 463.925781 353.710938 457.898438 353.710938 457.898438 349.691406 C 457.898438 345.675781 463.925781 345.675781 463.925781 349.691406 "/>
<path style=" stroke:none;fill-rule:nonzero;fill:rgb(100%,84.3%,0%);fill-opacity:1;" d="M 287.09375 365.6875 C 287.09375 369.707031 281.066406 369.707031 281.066406 365.6875 C 281.066406 361.671875 287.09375 361.671875 287.09375 365.6875 "/>
<path style=" stroke:none;fill-rule:nonzero;fill:rgb(100%,84.3%,0%);fill-opacity:1;" d="M 371.402344 365.816406 C 371.402344 369.835938 365.375 369.835938 365.375 365.816406 C 365.375 361.800781 371.402344 361.800781 371.402344 365.816406 "/>
<path style=" stroke:none;fill-rule:nonzero;fill:rgb(100%,84.3%,0%);fill-opacity:1;" d="M 146.941406 371.1875 C 146.941406 375.203125 140.914062 375.203125 140.914062 371.1875 C 140.914062 367.167969 146.941406 367.167969 146.941406 371.1875 "/>
<path style=" stroke:none;fill-rule:nonzero;fill:rgb(100%,84.3%,0%);fill-opacity:1;" d="M 375.296875 376.566406 C 375.296875 380.582031 369.269531 380.582031 369.269531 376.566406 C 369.269531 372.546875 375.296875 372.546875 375.296875 376.566406 "/>
<path style=" stroke:none;fill-rule:nonzero;fill:rgb(100%,84.3%,0%);fill-opacity:1;" d="M 365.941406 136.503906 C 365.941406 140.523438 359.914062 140.523438 359.914062 136.503906 C 359.914062 132.488281 365.941406 132.488281 365.941406 136.503906 "/>
<path style=" stroke:none;fill-rule:nonzero;fill:rgb(100%,84.3%,0%);fill-opacity:1;" d="M 109.402344 142.5 C 109.402344 146.519531 103.375 146.519531 103.375 142.5 C 103.375 138.484375 109.402344 138.484375 109.402344 142.5 "/>
<path style=" stroke:none;fill-rule:nonzero;fill:rgb(100%,84.3%,0%);fill-opacity:1;" d="M 177.519531 376.777344 C 177.519531 380.796875 171.492188 380.796875 171.492188 376.777344 C 171.492188 372.761719 177.519531 372.761719 177.519531 376.777344 "/>
<path style=" stroke:none;fill-rule:nonzero;fill:rgb(100%,84.3%,0%);fill-opacity:1;" d="M 243.183594 136.714844 C 243.183594 140.734375 237.15625 140.734375 237.15625 136.714844 C 237.15625 132.699219 243.183594 132.699219 243.183594 136.714844 "/>
<path style=" stroke:none;fill-rule:nonzero;fill:rgb(100%,84.3%,0%);fill-opacity:1;" d="M 345.609375 377.128906 C 345.609375 381.148438 339.585938 381.148438 339.585938 377.128906 C 339.585938 373.113281 345.609375 373.113281 345.609375 377.128906 "/>
<path style=" stroke:none;fill-rule:nonzero;fill:rgb(100%,84.3%,0%);fill-opacity:1;" d="M 436.933594 372.652344 C 436.933594 376.671875 430.910156 376.671875 430.910156 372.652344 C 430.910156 368.636719 436.933594 368.636719 436.933594 372.652344 "/>
<path style=" stroke:none;fill-rule:nonzero;fill:rgb(100%,84.3%,0%);fill-opacity:1;" d="M 454.265625 134.871094 C 454.265625 138.886719 448.242188 138.886719 448.242188 134.871094 C 448.242188 130.851562 454.265625 130.851562 454.265625 134.871094 "/>
<path style=" stroke:none;fill-rule:nonzero;fill:rgb(100%,84.3%,0%);fill-opacity:1;" d="M 158.011719 376.070312 C 158.011719 380.085938 151.984375 380.085938 151.984375 376.070312 C 151.984375 372.050781 158.011719 372.050781 158.011719 376.070312 "/>
<path style=" stroke:none;fill-rule:nonzero;fill:rgb(100%,84.3%,0%);fill-opacity:1;" d="M 432.246094 366.207031 C 432.246094 370.226562 426.21875 370.226562 426.21875 366.207031 C 426.21875 362.191406 432.246094 362.191406 432.246094 366.207031 "/>
<path style=" stroke:none;fill-rule:nonzero;fill:rgb(100%,84.3%,0%);fill-opacity:1;" d="M 322.988281 137.144531 C 322.988281 141.164062 316.960938 141.164062 316.960938 137.144531 C 316.960938 133.128906 322.988281 133.128906 322.988281 137.144531 "/>
<path style=" stroke:none;fill-rule:nonzero;fill:rgb(100%,84.3%,0%);fill-opacity:1;" d="M 88.292969 370.351562 C 88.292969 374.371094 82.265625 374.371094 82.265625 370.351562 C 82.265625 366.335938 88.292969 366.335938 88.292969 370.351562 "/>
<path style=" stroke:none;fill-rule:nonzero;fill:rgb(100%,84.3%,0%);fill-opacity:1;" d="M 350.738281 358.128906 C 350.738281 362.144531 344.710938 362.144531 344.710938 358.128906 C 344.710938 354.109375 350.738281 354.109375 350.738281 358.128906 "/>
<path style=" stroke:none;fill-rule:nonzero;fill:rgb(100%,84.3%,0%);fill-opacity:1;" d="M 271.078125 364.148438 C 271.078125 368.167969 265.050781 368.167969 265.050781 364.148438 C 265.050781 360.132812 271.078125 360.132812 271.078125 364.148438 "/>
<path style=" stroke:none;fill-rule:nonzero;fill:rgb(100%,84.3%,0%);fill-opacity:1;" d="M 241.269531 148.871094 C 241.269531 152.886719 235.246094 152.886719 235.246094 148.871094 C 235.246094 144.851562 241.269531 144.851562 241.269531 148.871094 "/>
<path style=" stroke:none;fill-rule:nonzero;fill:rgb(100%,84.3%,0%);fill-opacity:1;" d="M 453.820312 375.164062 C 453.820312 379.183594 447.796875 379.183594 447.796875 375.164062 C 447.796875 371.148438 453.820312 371.148438 453.820312 375.164062 "/>
<path style=" stroke:none;fill-rule:nonzero;fill:rgb(100%,84.3%,0%);fill-opacity:1;" d="M 417.945312 134.871094 C 417.945312 138.886719 411.917969 138.886719 411.917969 134.871094 C 411.917969 130.851562 417.945312 130.851562 417.945312 134.871094 "/>
<path style=" stroke:none;fill-rule:nonzero;fill:rgb(100%,84.3%,0%);fill-opacity:1;" d="M 395.597656 139.65625 C 395.597656 143.675781 389.570312 143.675781 389.570312 139.65625 C 389.570312 135.640625 395.597656 135.640625 395.597656 139.65625 "/>
<path style=" stroke:none;fill-rule:nonzero;fill:rgb(100%,84.3%,0%);fill-opacity:1;" d="M 266.847656 369.328125 C 266.847656 373.34375 260.820312 373.34375 260.820312 369.328125 C 260.820312 365.308594 266.847656 365.308594 266.847656 369.328125 "/>
<path style=" stroke:none;fill-rule:nonzero;fill:rgb(100%,84.3%,0%);fill-opacity:1;" d="M 406.460938 134.914062 C 406.460938 138.933594 400.4375 138.933594 400.4375 134.914062 C 400.4375 130.898438 406.460938 130.898438 406.460938 134.914062 "/>
<path style=" stroke:none;fill-rule:nonzero;fill:rgb(100%,84.3%,0%);fill-opacity:1;" d="M 295.84375 376.621094 C 295.84375 380.636719 289.820312 380.636719 289.820312 376.621094 C 289.820312 372.601562 295.84375 372.601562 295.84375 376.621094 "/>
<path style=" stroke:none;fill-rule:nonzero;fill:rgb(100%,84.3%,0%);fill-opacity:1;" d="M 189.570312 377.054688 C 189.570312 381.074219 183.546875 381.074219 183.546875 377.054688 C 183.546875 373.039062 189.570312 373.039062 189.570312 377.054688 "/>
<path style=" stroke:none;fill-rule:nonzero;fill:rgb(100%,84.3%,0%);fill-opacity:1;" d="M 466.304688 285.066406 C 466.304688 289.085938 460.277344 289.085938 460.277344 285.066406 C 460.277344 281.050781 466.304688 281.050781 466.304688 285.066406 "/>
<path style=" stroke:none;fill-rule:nonzero;fill:rgb(100%,84.3%,0%);fill-opacity:1;" d="M 87.335938 140.394531 C 87.335938 144.414062 81.308594 144.414062 81.308594 140.394531 C 81.308594 136.378906 87.335938 136.378906 87.335938 140.394531 "/>
<path style=" stroke:none;fill-rule:nonzero;fill:rgb(100%,84.3%,0%);fill-opacity:1;" d="M 76.011719 371.109375 C 76.011719 375.125 69.984375 375.125 69.984375 371.109375 C 69.984375 367.089844 76.011719 367.089844 76.011719 371.109375 "/>
<path style=" stroke:none;fill-rule:nonzero;fill:rgb(100%,84.3%,0%);fill-opacity:1;" d="M 400.59375 136.285156 C 400.59375 140.300781 394.566406 140.300781 394.566406 136.285156 C 394.566406 132.265625 400.59375 132.265625 400.59375 136.285156 "/>
<path style=" stroke:none;fill-rule:nonzero;fill:rgb(100%,84.3%,0%);fill-opacity:1;" d="M 210.175781 137.464844 C 210.175781 141.484375 204.148438 141.484375 204.148438 137.464844 C 204.148438 133.449219 210.175781 133.449219 210.175781 137.464844 "/>
<path style=" stroke:none;fill-rule:nonzero;fill:rgb(100%,84.3%,0%);fill-opacity:1;" d="M 213.847656 374.1875 C 213.847656 378.207031 207.820312 378.207031 207.820312 374.1875 C 207.820312 370.171875 213.847656 370.171875 213.847656 374.1875 "/>
<path style=" stroke:none;fill-rule:nonzero;fill:rgb(100%,84.3%,0%);fill-opacity:1;" d="M 273.164062 377.128906 C 273.164062 381.148438 267.140625 381.148438 267.140625 377.128906 C 267.140625 373.113281 273.164062 373.113281 273.164062 377.128906 "/>
<path style=" stroke:none;fill-rule:nonzero;fill:rgb(100%,84.3%,0%);fill-opacity:1;" d="M 304.238281 139.042969 C 304.238281 143.058594 298.210938 143.058594 298.210938 139.042969 C 298.210938 135.023438 304.238281 135.023438 304.238281 139.042969 "/>
<path style=" stroke:none;fill-rule:nonzero;fill:rgb(100%,84.3%,0%);fill-opacity:1;" d="M 341.628906 137.167969 C 341.628906 141.1875 335.601562 141.1875 335.601562 137.167969 C 335.601562 133.152344 341.628906 133.152344 341.628906 137.167969 "/>
<path style=" stroke:none;fill-rule:nonzero;fill:rgb(100%,84.3%,0%);fill-opacity:1;" d="M 333.375 376.550781 C 333.375 380.566406 327.347656 380.566406 327.347656 376.550781 C 327.347656 372.53125 333.375 372.53125 333.375 376.550781 "/>
<path style=" stroke:none;fill-rule:nonzero;fill:rgb(100%,84.3%,0%);fill-opacity:1;" d="M 113.914062 370.433594 C 113.914062 374.453125 107.886719 374.453125 107.886719 370.433594 C 107.886719 366.417969 113.914062 366.417969 113.914062 370.433594 "/>
<path style=" stroke:none;fill-rule:nonzero;fill:rgb(100%,84.3%,0%);fill-opacity:1;" d="M 99.9375 371.347656 C 99.9375 375.363281 93.914062 375.363281 93.914062 371.347656 C 93.914062 367.328125 99.9375 367.328125 99.9375 371.347656 "/>
<path style=" stroke:none;fill-rule:nonzero;fill:rgb(100%,84.3%,0%);fill-opacity:1;" d="M 463.878906 368.058594 C 463.878906 372.078125 457.851562 372.078125 457.851562 368.058594 C 457.851562 364.042969 463.878906 364.042969 463.878906 368.058594 "/>
<path style=" stroke:none;fill-rule:nonzero;fill:rgb(100%,84.3%,0%);fill-opacity:1;" d="M 457.777344 304.410156 C 457.777344 308.429688 451.75 308.429688 451.75 304.410156 C 451.75 300.394531 457.777344 300.394531 457.777344 304.410156 "/>
<path style=" stroke:none;fill-rule:nonzero;fill:rgb(100%,84.3%,0%);fill-opacity:1;" d="M 281.085938 362.210938 C 281.085938 366.226562 275.058594 366.226562 275.058594 362.210938 C 275.058594 358.191406 281.085938 358.191406 281.085938 362.210938 "/>
<path style=" stroke:none;fill-rule:nonzero;fill:rgb(100%,84.3%,0%);fill-opacity:1;" d="M 288.230469 377.128906 C 288.230469 381.148438 282.203125 381.148438 282.203125 377.128906 C 282.203125 373.113281 288.230469 373.113281 288.230469 377.128906 "/>
<path style=" stroke:none;fill-rule:nonzero;fill:rgb(100%,84.3%,0%);fill-opacity:1;" d="M 462.460938 296.796875 C 462.460938 300.816406 456.433594 300.816406 456.433594 296.796875 C 456.433594 292.78125 462.460938 292.78125 462.460938 296.796875 "/>
<path style=" stroke:none;fill-rule:nonzero;fill:rgb(100%,84.3%,0%);fill-opacity:1;" d="M 51.882812 357.355469 C 51.882812 361.371094 45.855469 361.371094 45.855469 357.355469 C 45.855469 353.335938 51.882812 353.335938 51.882812 357.355469 "/>
<path style=" stroke:none;fill-rule:nonzero;fill:rgb(100%,84.3%,0%);fill-opacity:1;" d="M 289.480469 371.234375 C 289.480469 375.253906 283.453125 375.253906 283.453125 371.234375 C 283.453125 367.21875 289.480469 367.21875 289.480469 371.234375 "/>
<path style=" stroke:none;fill-rule:nonzero;fill:rgb(100%,84.3%,0%);fill-opacity:1;" d="M 466.320312 337.925781 C 466.320312 341.941406 460.292969 341.941406 460.292969 337.925781 C 460.292969 333.90625 466.320312 333.90625 466.320312 337.925781 "/>
<path style=" stroke:none;fill-rule:nonzero;fill:rgb(100%,84.3%,0%);fill-opacity:1;" d="M 326.378906 371.1875 C 326.378906 375.203125 320.351562 375.203125 320.351562 371.1875 C 320.351562 367.167969 326.378906 367.167969 326.378906 371.1875 "/>
<path style=" stroke:none;fill-rule:nonzero;fill:rgb(100%,84.3%,0%);fill-opacity:1;" d="M 465.832031 141.085938 C 465.832031 145.105469 459.804688 145.105469 459.804688 141.085938 C 459.804688 137.070312 465.832031 137.070312 465.832031 141.085938 "/>
<path style=" stroke:none;fill-rule:nonzero;fill:rgb(100%,84.3%,0%);fill-opacity:1;" d="M 120.71875 371.339844 C 120.71875 375.355469 114.691406 375.355469 114.691406 371.339844 C 114.691406 367.320312 120.71875 367.320312 120.71875 371.339844 "/>
<path style=" stroke:none;fill-rule:nonzero;fill:rgb(100%,84.3%,0%);fill-opacity:1;" d="M 441.925781 134.871094 C 441.925781 138.886719 435.898438 138.886719 435.898438 134.871094 C 435.898438 130.851562 441.925781 130.851562 441.925781 134.871094 "/>
<path style=" stroke:none;fill-rule:nonzero;fill:rgb(100%,84.3%,0%);fill-opacity:1;" d="M 217.929688 134.871094 C 217.929688 138.886719 211.90625 138.886719 211.90625 134.871094 C 211.90625 130.851562 217.929688 130.851562 217.929688 134.871094 "/>
<path style=" stroke:none;fill-rule:nonzero;fill:rgb(100%,84.3%,0%);fill-opacity:1;" d="M 139.5625 141.050781 C 139.5625 145.070312 133.539062 145.070312 133.539062 141.050781 C 133.539062 137.035156 139.5625 137.035156 139.5625 141.050781 "/>
<path style=" stroke:none;fill-rule:nonzero;fill:rgb(100%,84.3%,0%);fill-opacity:1;" d="M 133.261719 370.601562 C 133.261719 374.621094 127.234375 374.621094 127.234375 370.601562 C 127.234375 366.585938 133.261719 366.585938 133.261719 370.601562 "/>
<path style=" stroke:none;fill-rule:nonzero;fill:rgb(100%,84.3%,0%);fill-opacity:1;" d="M 423.90625 135.816406 C 423.90625 139.832031 417.878906 139.832031 417.878906 135.816406 C 417.878906 131.796875 423.90625 131.796875 423.90625 135.816406 "/>
<path style=" stroke:none;fill-rule:nonzero;fill:rgb(100%,84.3%,0%);fill-opacity:1;" d="M 162.164062 134.871094 C 162.164062 138.886719 156.136719 138.886719 156.136719 134.871094 C 156.136719 130.851562 162.164062 130.851562 162.164062 134.871094 "/>
<path style=" stroke:none;fill-rule:nonzero;fill:rgb(100%,84.3%,0%);fill-opacity:1;" d="M 194.523438 371.039062 C 194.523438 375.058594 188.496094 375.058594 188.496094 371.039062 C 188.496094 367.023438 194.523438 367.023438 194.523438 371.039062 "/>
<path style=" stroke:none;fill-rule:nonzero;fill:rgb(100%,84.3%,0%);fill-opacity:1;" d="M 94.050781 179.59375 C 94.050781 183.613281 88.023438 183.613281 88.023438 179.59375 C 88.023438 175.578125 94.050781 175.578125 94.050781 179.59375 "/>
<path style=" stroke:none;fill-rule:nonzero;fill:rgb(100%,84.3%,0%);fill-opacity:1;" d="M 466.320312 179.921875 C 466.320312 183.9375 460.292969 183.9375 460.292969 179.921875 C 460.292969 175.902344 466.320312 175.902344 466.320312 179.921875 "/>
<path style=" stroke:none;fill-rule:nonzero;fill:rgb(100%,84.3%,0%);fill-opacity:1;" d="M 274.398438 138.324219 C 274.398438 142.339844 268.371094 142.339844 268.371094 138.324219 C 268.371094 134.304688 274.398438 134.304688 274.398438 138.324219 "/>
<path style=" stroke:none;fill-rule:nonzero;fill:rgb(100%,84.3%,0%);fill-opacity:1;" d="M 278.890625 367.820312 C 278.890625 371.839844 272.863281 371.839844 272.863281 367.820312 C 272.863281 363.804688 278.890625 363.804688 278.890625 367.820312 "/>
<path style=" stroke:none;fill-rule:nonzero;fill:rgb(100%,84.3%,0%);fill-opacity:1;" d="M 226.128906 145.671875 C 226.128906 149.6875 220.105469 149.6875 220.105469 145.671875 C 220.105469 141.652344 226.128906 141.652344 226.128906 145.671875 "/>
<path style=" stroke:none;fill-rule:nonzero;fill:rgb(100%,84.3%,0%);fill-opacity:1;" d="M 127.730469 374.351562 C 127.730469 378.371094 121.703125 378.371094 121.703125 374.351562 C 121.703125 370.335938 127.730469 370.335938 127.730469 374.351562 "/>
<path style=" stroke:none;fill-rule:nonzero;fill:rgb(100%,84.3%,0%);fill-opacity:1;" d="M 225.25 374.386719 C 225.25 378.40625 219.226562 378.40625 219.226562 374.386719 C 219.226562 370.371094 225.25 370.371094 225.25 374.386719 "/>
<path style=" stroke:none;fill-rule:nonzero;fill:rgb(100%,84.3%,0%);fill-opacity:1;" d="M 173.710938 138.226562 C 173.710938 142.246094 167.683594 142.246094 167.683594 138.226562 C 167.683594 134.210938 173.710938 134.210938 173.710938 138.226562 "/>
<path style=" stroke:none;fill-rule:nonzero;fill:rgb(100%,84.3%,0%);fill-opacity:1;" d="M 104.15625 375.929688 C 104.15625 379.945312 98.128906 379.945312 98.128906 375.929688 C 98.128906 371.910156 104.15625 371.910156 104.15625 375.929688 "/>
<path style=" stroke:none;fill-rule:nonzero;fill:rgb(100%,84.3%,0%);fill-opacity:1;" d="M 179.667969 139.148438 C 179.667969 143.167969 173.640625 143.167969 173.640625 139.148438 C 173.640625 135.132812 179.667969 135.132812 179.667969 139.148438 "/>
<path style=" stroke:none;fill-rule:nonzero;fill:rgb(100%,84.3%,0%);fill-opacity:1;" d="M 435.953125 135.671875 C 435.953125 139.6875 429.925781 139.6875 429.925781 135.671875 C 429.925781 131.652344 435.953125 131.652344 435.953125 135.671875 "/>
<path style=" stroke:none;fill-rule:nonzero;fill:rgb(100%,84.3%,0%);fill-opacity:1;" d="M 164.316406 377.078125 C 164.316406 381.097656 158.289062 381.097656 158.289062 377.078125 C 158.289062 373.0625 164.316406 373.0625 164.316406 377.078125 "/>
<path style=" stroke:none;fill-rule:nonzero;fill:rgb(100%,84.3%,0%);fill-opacity:1;" d="M 456.515625 297.785156 C 456.515625 301.804688 450.488281 301.804688 450.488281 297.785156 C 450.488281 293.769531 456.515625 293.769531 456.515625 297.785156 "/>
<path style=" stroke:none;fill-rule:nonzero;fill:rgb(100%,84.3%,0%);fill-opacity:1;" d="M 222.773438 138.480469 C 222.773438 142.5 216.746094 142.5 216.746094 138.480469 C 216.746094 134.464844 222.773438 134.464844 222.773438 138.480469 "/>
<path style=" stroke:none;fill-rule:nonzero;fill:rgb(100%,84.3%,0%);fill-opacity:1;" d="M 202.738281 375.347656 C 202.738281 379.363281 196.710938 379.363281 196.710938 375.347656 C 196.710938 371.328125 202.738281 371.328125 202.738281 375.347656 "/>
<path style=" stroke:none;fill-rule:nonzero;fill:rgb(100%,84.3%,0%);fill-opacity:1;" d="M 356.203125 135.324219 C 356.203125 139.339844 350.175781 139.339844 350.175781 135.324219 C 350.175781 131.304688 356.203125 131.304688 356.203125 135.324219 "/>
<path style=" stroke:none;fill-rule:nonzero;fill:rgb(100%,84.3%,0%);fill-opacity:1;" d="M 466.125 326.007812 C 466.125 330.027344 460.097656 330.027344 460.097656 326.007812 C 460.097656 321.992188 466.125 321.992188 466.125 326.007812 "/>
<path style=" stroke:none;fill-rule:nonzero;fill:rgb(100%,84.3%,0%);fill-opacity:1;" d="M 98.246094 377.128906 C 98.246094 381.148438 92.21875 381.148438 92.21875 377.128906 C 92.21875 373.113281 98.246094 373.113281 98.246094 377.128906 "/>
<path style=" stroke:none;fill-rule:nonzero;fill:rgb(100%,84.3%,0%);fill-opacity:1;" d="M 56.316406 229.195312 C 56.316406 233.210938 50.292969 233.210938 50.292969 229.195312 C 50.292969 225.175781 56.316406 225.175781 56.316406 229.195312 "/>
<path style=" stroke:none;fill-rule:nonzero;fill:rgb(100%,84.3%,0%);fill-opacity:1;" d="M 51.707031 305.746094 C 51.707031 309.761719 45.679688 309.761719 45.679688 305.746094 C 45.679688 301.726562 51.707031 301.726562 51.707031 305.746094 "/>
<path style=" stroke:none;fill-rule:nonzero;fill:rgb(100%,84.3%,0%);fill-opacity:1;" d="M 249.835938 373.054688 C 249.835938 377.074219 243.808594 377.074219 243.808594 373.054688 C 243.808594 369.039062 249.835938 369.039062 249.835938 373.054688 "/>
<path style=" stroke:none;fill-rule:nonzero;fill:rgb(100%,84.3%,0%);fill-opacity:1;" d="M 371.875 134.914062 C 371.875 138.933594 365.847656 138.933594 365.847656 134.914062 C 365.847656 130.898438 371.875 130.898438 371.875 134.914062 "/>
<path style=" stroke:none;fill-rule:nonzero;fill:rgb(100%,84.3%,0%);fill-opacity:1;" d="M 249.007812 135.167969 C 249.007812 139.1875 242.980469 139.1875 242.980469 135.167969 C 242.980469 131.152344 249.007812 131.152344 249.007812 135.167969 "/>
<path style=" stroke:none;fill-rule:nonzero;fill:rgb(100%,84.3%,0%);fill-opacity:1;" d="M 448.21875 135.171875 C 448.21875 139.191406 442.195312 139.191406 442.195312 135.171875 C 442.195312 131.15625 448.21875 131.15625 448.21875 135.171875 "/>
<path style=" stroke:none;fill-rule:nonzero;fill:rgb(100%,84.3%,0%);fill-opacity:1;" d="M 340.933594 371.308594 C 340.933594 375.328125 334.910156 375.328125 334.910156 371.308594 C 334.910156 367.292969 340.933594 367.292969 340.933594 371.308594 "/>
<path style=" stroke:none;fill-rule:nonzero;fill:rgb(100%,84.3%,0%);fill-opacity:1;" d="M 303.816406 370.558594 C 303.816406 374.578125 297.792969 374.578125 297.792969 370.558594 C 297.792969 366.542969 303.816406 366.542969 303.816406 370.558594 "/>
<path style=" stroke:none;fill-rule:nonzero;fill:rgb(100%,84.3%,0%);fill-opacity:1;" d="M 466.019531 153.324219 C 466.019531 157.339844 459.992188 157.339844 459.992188 153.324219 C 459.992188 149.304688 466.019531 149.304688 466.019531 153.324219 "/>
<path style=" stroke:none;fill-rule:nonzero;fill:rgb(100%,84.3%,0%);fill-opacity:1;" d="M 51.707031 344.503906 C 51.707031 348.519531 45.679688 348.519531 45.679688 344.503906 C 45.679688 340.484375 51.707031 340.484375 51.707031 344.503906 "/>
<path style=" stroke:none;fill-rule:nonzero;fill:rgb(100%,84.3%,0%);fill-opacity:1;" d="M 54.671875 153.550781 C 54.671875 157.566406 48.644531 157.566406 48.644531 153.550781 C 48.644531 149.53125 54.671875 149.53125 54.671875 153.550781 "/>
<path style=" stroke:none;fill-rule:nonzero;fill:rgb(100%,84.3%,0%);fill-opacity:1;" d="M 392.808594 371.238281 C 392.808594 375.257812 386.78125 375.257812 386.78125 371.238281 C 386.78125 367.222656 392.808594 367.222656 392.808594 371.238281 "/>
<path style=" stroke:none;fill-rule:nonzero;fill:rgb(100%,84.3%,0%);fill-opacity:1;" d="M 457.242188 369.265625 C 457.242188 373.28125 451.21875 373.28125 451.21875 369.265625 C 451.21875 365.246094 457.242188 365.246094 457.242188 369.265625 "/>
<path style=" stroke:none;fill-rule:nonzero;fill:rgb(100%,84.3%,0%);fill-opacity:1;" d="M 152.007812 376.578125 C 152.007812 380.59375 145.980469 380.59375 145.980469 376.578125 C 145.980469 372.558594 152.007812 372.558594 152.007812 376.578125 "/>
<path style=" stroke:none;fill-rule:nonzero;fill:rgb(100%,84.3%,0%);fill-opacity:1;" d="M 239.410156 376.050781 C 239.410156 380.066406 233.386719 380.066406 233.386719 376.050781 C 233.386719 372.03125 239.410156 372.03125 239.410156 376.050781 "/>
<path style=" stroke:none;fill-rule:nonzero;fill:rgb(100%,84.3%,0%);fill-opacity:1;" d="M 302.238281 376.375 C 302.238281 380.390625 296.214844 380.390625 296.214844 376.375 C 296.214844 372.359375 302.238281 372.359375 302.238281 376.375 "/>
<path style=" stroke:none;fill-rule:nonzero;fill:rgb(100%,84.3%,0%);fill-opacity:1;" d="M 53.375 171.234375 C 53.375 175.253906 47.347656 175.253906 47.347656 171.234375 C 47.347656 167.21875 53.375 167.21875 53.375 171.234375 "/>
<path style=" stroke:none;fill-rule:nonzero;fill:rgb(100%,84.3%,0%);fill-opacity:1;" d="M 425.625 367.488281 C 425.625 371.507812 419.601562 371.507812 419.601562 367.488281 C 419.601562 363.472656 425.625 363.472656 425.625 367.488281 "/>
<path style=" stroke:none;fill-rule:nonzero;fill:rgb(100%,84.3%,0%);fill-opacity:1;" d="M 64.378906 136.707031 C 64.378906 140.722656 58.351562 140.722656 58.351562 136.707031 C 58.351562 132.6875 64.378906 132.6875 64.378906 136.707031 "/>
<path style=" stroke:none;fill-rule:nonzero;fill:rgb(100%,84.3%,0%);fill-opacity:1;" d="M 53.289062 190.191406 C 53.289062 194.210938 47.261719 194.210938 47.261719 190.191406 C 47.261719 186.175781 53.289062 186.175781 53.289062 190.191406 "/>
<path style=" stroke:none;fill-rule:nonzero;fill:rgb(100%,84.3%,0%);fill-opacity:1;" d="M 260.386719 373.925781 C 260.386719 377.945312 254.363281 377.945312 254.363281 373.925781 C 254.363281 369.910156 260.386719 369.910156 260.386719 373.925781 "/>
<path style=" stroke:none;fill-rule:nonzero;fill:rgb(100%,84.3%,0%);fill-opacity:1;" d="M 58.503906 377.082031 C 58.503906 381.101562 52.476562 381.101562 52.476562 377.082031 C 52.476562 373.066406 58.503906 373.066406 58.503906 377.082031 "/>
<path style=" stroke:none;fill-rule:nonzero;fill:rgb(100%,84.3%,0%);fill-opacity:1;" d="M 466.320312 134.871094 C 466.320312 138.886719 460.292969 138.886719 460.292969 134.871094 C 460.292969 130.851562 466.320312 130.851562 466.320312 134.871094 "/>
<path style=" stroke:none;fill-rule:nonzero;fill:rgb(100%,84.3%,0%);fill-opacity:1;" d="M 208.167969 370.460938 C 208.167969 374.476562 202.140625 374.476562 202.140625 370.460938 C 202.140625 366.441406 208.167969 366.441406 208.167969 370.460938 "/>
<path style=" stroke:none;fill-rule:nonzero;fill:rgb(100%,84.3%,0%);fill-opacity:1;" d="M 339.375 377.128906 C 339.375 381.148438 333.347656 381.148438 333.347656 377.128906 C 333.347656 373.113281 339.375 373.113281 339.375 377.128906 "/>
<path style=" stroke:none;fill-rule:nonzero;fill:rgb(100%,84.3%,0%);fill-opacity:1;" d="M 308.683594 377.128906 C 308.683594 381.148438 302.660156 381.148438 302.660156 377.128906 C 302.660156 373.113281 308.683594 373.113281 308.683594 377.128906 "/>
<path style=" stroke:none;fill-rule:nonzero;fill:rgb(100%,84.3%,0%);fill-opacity:1;" d="M 263.441406 135.269531 C 263.441406 139.285156 257.414062 139.285156 257.414062 135.269531 C 257.414062 131.25 263.441406 131.25 263.441406 135.269531 "/>
<path style=" stroke:none;fill-rule:nonzero;fill:rgb(100%,84.3%,0%);fill-opacity:1;" d="M 253.382812 139.34375 C 253.382812 143.359375 247.359375 143.359375 247.359375 139.34375 C 247.359375 135.324219 253.382812 135.324219 253.382812 139.34375 "/>
<path style=" stroke:none;fill-rule:nonzero;fill:rgb(100%,84.3%,0%);fill-opacity:1;" d="M 300.484375 365.539062 C 300.484375 369.554688 294.457031 369.554688 294.457031 365.539062 C 294.457031 361.519531 300.484375 361.519531 300.484375 365.539062 "/>
<path style=" stroke:none;fill-rule:nonzero;fill:rgb(100%,84.3%,0%);fill-opacity:1;" d="M 266.613281 375.351562 C 266.613281 379.367188 260.585938 379.367188 260.585938 375.351562 C 260.585938 371.332031 266.613281 371.332031 266.613281 375.351562 "/>
<path style=" stroke:none;fill-rule:nonzero;fill:rgb(100%,84.3%,0%);fill-opacity:1;" d="M 82.773438 374.546875 C 82.773438 378.566406 76.746094 378.566406 76.746094 374.546875 C 76.746094 370.53125 82.773438 370.53125 82.773438 374.546875 "/>
<path style=" stroke:none;fill-rule:nonzero;fill:rgb(100%,84.3%,0%);fill-opacity:1;" d="M 443.003906 140.800781 C 443.003906 144.816406 436.976562 144.816406 436.976562 140.800781 C 436.976562 136.78125 443.003906 136.78125 443.003906 140.800781 "/>
<path style=" stroke:none;fill-rule:nonzero;fill:rgb(100%,84.3%,0%);fill-opacity:1;" d="M 93.402344 373.546875 C 93.402344 377.566406 87.375 377.566406 87.375 373.546875 C 87.375 369.53125 93.402344 369.53125 93.402344 373.546875 "/>
<path style=" stroke:none;fill-rule:nonzero;fill:rgb(100%,84.3%,0%);fill-opacity:1;" d="M 388.015625 139.480469 C 388.015625 143.5 381.992188 143.5 381.992188 139.480469 C 381.992188 135.464844 388.015625 135.464844 388.015625 139.480469 "/>
<path style=" stroke:none;fill-rule:nonzero;fill:rgb(100%,84.3%,0%);fill-opacity:1;" d="M 66.445312 375.710938 C 66.445312 379.730469 60.417969 379.730469 60.417969 375.710938 C 60.417969 371.695312 66.445312 371.695312 66.445312 375.710938 "/>
<path style=" stroke:none;fill-rule:nonzero;fill:rgb(100%,84.3%,0%);fill-opacity:1;" d="M 230.011719 141.058594 C 230.011719 145.078125 223.984375 145.078125 223.984375 141.058594 C 223.984375 137.042969 230.011719 137.042969 230.011719 141.058594 "/>
<path style=" stroke:none;fill-rule:nonzero;fill:rgb(100%,84.3%,0%);fill-opacity:1;" d="M 371.554688 371.839844 C 371.554688 375.859375 365.527344 375.859375 365.527344 371.839844 C 365.527344 367.824219 371.554688 367.824219 371.554688 371.839844 "/>
<path style=" stroke:none;fill-rule:nonzero;fill:rgb(100%,84.3%,0%);fill-opacity:1;" d="M 334.972656 136.277344 C 334.972656 140.292969 328.945312 140.292969 328.945312 136.277344 C 328.945312 132.257812 334.972656 132.257812 334.972656 136.277344 "/>
<path style=" stroke:none;fill-rule:nonzero;fill:rgb(100%,84.3%,0%);fill-opacity:1;" d="M 245.394531 377.128906 C 245.394531 381.148438 239.371094 381.148438 239.371094 377.128906 C 239.371094 373.113281 245.394531 373.113281 245.394531 377.128906 "/>
<path style=" stroke:none;fill-rule:nonzero;fill:rgb(100%,84.3%,0%);fill-opacity:1;" d="M 466.320312 362.136719 C 466.320312 366.152344 460.292969 366.152344 460.292969 362.136719 C 460.292969 358.117188 466.320312 358.117188 466.320312 362.136719 "/>
<path style=" stroke:none;fill-rule:nonzero;fill:rgb(100%,84.3%,0%);fill-opacity:1;" d="M 52.667969 375.285156 C 52.667969 379.304688 46.640625 379.304688 46.640625 375.285156 C 46.640625 371.269531 52.667969 371.269531 52.667969 375.285156 "/>
<path style=" stroke:none;fill-rule:nonzero;fill:rgb(100%,84.3%,0%);fill-opacity:1;" d="M 88.335938 377.117188 C 88.335938 381.136719 82.308594 381.136719 82.308594 377.117188 C 82.308594 373.101562 88.335938 373.101562 88.335938 377.117188 "/>
<path style=" stroke:none;fill-rule:nonzero;fill:rgb(100%,84.3%,0%);fill-opacity:1;" d="M 316.898438 371.488281 C 316.898438 375.503906 310.871094 375.503906 310.871094 371.488281 C 310.871094 367.46875 316.898438 367.46875 316.898438 371.488281 "/>
<path style=" stroke:none;fill-rule:nonzero;fill:rgb(100%,84.3%,0%);fill-opacity:1;" d="M 194.691406 141.074219 C 194.691406 145.09375 188.664062 145.09375 188.664062 141.074219 C 188.664062 137.058594 194.691406 137.058594 194.691406 141.074219 "/>
<path style=" stroke:none;fill-rule:nonzero;fill:rgb(100%,84.3%,0%);fill-opacity:1;" d="M 155.914062 135.003906 C 155.914062 139.019531 149.886719 139.019531 149.886719 135.003906 C 149.886719 130.984375 155.914062 130.984375 155.914062 135.003906 "/>
<path style=" stroke:none;fill-rule:nonzero;fill:rgb(100%,84.3%,0%);fill-opacity:1;" d="M 59.46875 140.195312 C 59.46875 144.214844 53.441406 144.214844 53.441406 140.195312 C 53.441406 136.179688 59.46875 136.179688 59.46875 140.195312 "/>
<path style=" stroke:none;fill-rule:nonzero;fill:rgb(100%,84.3%,0%);fill-opacity:1;" d="M 219.515625 376.238281 C 219.515625 380.253906 213.488281 380.253906 213.488281 376.238281 C 213.488281 372.21875 219.515625 372.21875 219.515625 376.238281 "/>
<path style=" stroke:none;fill-rule:nonzero;fill:rgb(100%,84.3%,0%);fill-opacity:1;" d="M 208.585938 377.128906 C 208.585938 381.148438 202.5625 381.148438 202.5625 377.128906 C 202.5625 373.113281 208.585938 373.113281 208.585938 377.128906 "/>
<path style=" stroke:none;fill-rule:nonzero;fill:rgb(100%,84.3%,0%);fill-opacity:1;" d="M 83.097656 136.078125 C 83.097656 140.097656 77.070312 140.097656 77.070312 136.078125 C 77.070312 132.0625 83.097656 132.0625 83.097656 136.078125 "/>
<path style=" stroke:none;fill-rule:nonzero;fill:rgb(100%,84.3%,0%);fill-opacity:1;" d="M 259.949219 140.339844 C 259.949219 144.359375 253.921875 144.359375 253.921875 140.339844 C 253.921875 136.324219 259.949219 136.324219 259.949219 140.339844 "/>
<path style=" stroke:none;fill-rule:nonzero;fill:rgb(100%,84.3%,0%);fill-opacity:1;" d="M 460.046875 374.601562 C 460.046875 378.617188 454.019531 378.617188 454.019531 374.601562 C 454.019531 370.582031 460.046875 370.582031 460.046875 374.601562 "/>
<path style=" stroke:none;fill-rule:nonzero;fill:rgb(100%,84.3%,0%);fill-opacity:1;" d="M 121.925781 134.902344 C 121.925781 138.921875 115.898438 138.921875 115.898438 134.902344 C 115.898438 130.886719 121.925781 130.886719 121.925781 134.902344 "/>
<path style=" stroke:none;fill-rule:nonzero;fill:rgb(100%,84.3%,0%);fill-opacity:1;" d="M 287.023438 137.960938 C 287.023438 141.976562 280.996094 141.976562 280.996094 137.960938 C 280.996094 133.941406 287.023438 133.941406 287.023438 137.960938 "/>
<path style=" stroke:none;fill-rule:nonzero;fill:rgb(100%,84.3%,0%);fill-opacity:1;" d="M 412.203125 136.773438 C 412.203125 140.789062 406.175781 140.789062 406.175781 136.773438 C 406.175781 132.753906 412.203125 132.753906 412.203125 136.773438 "/>
<path style=" stroke:none;fill-rule:nonzero;fill:rgb(100%,84.3%,0%);fill-opacity:1;" d="M 266.601562 140.40625 C 266.601562 144.425781 260.574219 144.425781 260.574219 140.40625 C 260.574219 136.390625 266.601562 136.390625 266.601562 140.40625 "/>
<path style=" stroke:none;fill-rule:nonzero;fill:rgb(100%,84.3%,0%);fill-opacity:1;" d="M 195.851562 377.09375 C 195.851562 381.113281 189.824219 381.113281 189.824219 377.09375 C 189.824219 373.078125 195.851562 373.078125 195.851562 377.09375 "/>
<path style=" stroke:none;fill-rule:nonzero;fill:rgb(100%,84.3%,0%);fill-opacity:1;" d="M 58.796875 368.472656 C 58.796875 372.492188 52.773438 372.492188 52.773438 368.472656 C 52.773438 364.457031 58.796875 364.457031 58.796875 368.472656 "/>
<path style=" stroke:none;fill-rule:nonzero;fill:rgb(100%,84.3%,0%);fill-opacity:1;" d="M 423.996094 373.3125 C 423.996094 377.332031 417.96875 377.332031 417.96875 373.3125 C 417.96875 369.296875 423.996094 369.296875 423.996094 373.3125 "/>
<path style=" stroke:none;fill-rule:nonzero;fill:rgb(100%,84.3%,0%);fill-opacity:1;" d="M 457.40625 310.425781 C 457.40625 314.441406 451.378906 314.441406 451.378906 310.425781 C 451.378906 306.40625 457.40625 306.40625 457.40625 310.425781 "/>
<path style=" stroke:none;fill-rule:nonzero;fill:rgb(100%,84.3%,0%);fill-opacity:1;" d="M 412.320312 370.945312 C 412.320312 374.960938 406.292969 374.960938 406.292969 370.945312 C 406.292969 366.925781 412.320312 366.925781 412.320312 370.945312 "/>
<path style=" stroke:none;fill-rule:nonzero;fill:rgb(100%,84.3%,0%);fill-opacity:1;" d="M 447.890625 376.277344 C 447.890625 380.292969 441.863281 380.292969 441.863281 376.277344 C 441.863281 372.257812 447.890625 372.257812 447.890625 376.277344 "/>
<path style=" stroke:none;fill-rule:nonzero;fill:rgb(100%,84.3%,0%);fill-opacity:1;" d="M 405.773438 374.636719 C 405.773438 378.652344 399.746094 378.652344 399.746094 374.636719 C 399.746094 370.617188 405.773438 370.617188 405.773438 374.636719 "/>
<path style=" stroke:none;fill-rule:nonzero;fill:rgb(100%,84.3%,0%);fill-opacity:1;" d="M 378.382812 371.390625 C 378.382812 375.410156 372.355469 375.410156 372.355469 371.390625 C 372.355469 367.375 378.382812 367.375 378.382812 371.390625 "/>
<path style=" stroke:none;fill-rule:nonzero;fill:rgb(100%,84.3%,0%);fill-opacity:1;" d="M 149.878906 134.871094 C 149.878906 138.886719 143.851562 138.886719 143.851562 134.871094 C 143.851562 130.851562 149.878906 130.851562 149.878906 134.871094 "/>
<path style=" stroke:none;fill-rule:nonzero;fill:rgb(100%,84.3%,0%);fill-opacity:1;" d="M 53.15625 317.914062 C 53.15625 321.929688 47.128906 321.929688 47.128906 317.914062 C 47.128906 313.894531 53.15625 313.894531 53.15625 317.914062 "/>
<path style=" stroke:none;fill-rule:nonzero;fill:rgb(100%,84.3%,0%);fill-opacity:1;" d="M 236.351562 366.496094 C 236.351562 370.515625 230.324219 370.515625 230.324219 366.496094 C 230.324219 362.480469 236.351562 362.480469 236.351562 366.496094 "/>
<path style=" stroke:none;fill-rule:nonzero;fill:rgb(100%,84.3%,0%);fill-opacity:1;" d="M 189.519531 144.171875 C 189.519531 148.1875 183.492188 148.1875 183.492188 144.171875 C 183.492188 140.152344 189.519531 140.152344 189.519531 144.171875 "/>
<path style=" stroke:none;fill-rule:nonzero;fill:rgb(100%,84.3%,0%);fill-opacity:1;" d="M 358.828125 377.128906 C 358.828125 381.148438 352.804688 381.148438 352.804688 377.128906 C 352.804688 373.113281 358.828125 373.113281 358.828125 377.128906 "/>
<path style=" stroke:none;fill-rule:nonzero;fill:rgb(100%,84.3%,0%);fill-opacity:1;" d="M 53.800781 331.132812 C 53.800781 335.152344 47.773438 335.152344 47.773438 331.132812 C 47.773438 327.117188 53.800781 327.117188 53.800781 331.132812 "/>
<path style=" stroke:none;fill-rule:nonzero;fill:rgb(100%,84.3%,0%);fill-opacity:1;" d="M 465.261719 147.328125 C 465.261719 151.347656 459.234375 151.347656 459.234375 147.328125 C 459.234375 143.3125 465.261719 143.3125 465.261719 147.328125 "/>
<path style=" stroke:none;fill-rule:nonzero;fill:rgb(100%,84.3%,0%);fill-opacity:1;" d="M 364.054688 373 C 364.054688 377.015625 358.027344 377.015625 358.027344 373 C 358.027344 368.980469 364.054688 368.980469 364.054688 373 "/>
<path style=" stroke:none;fill-rule:nonzero;fill:rgb(100%,84.3%,0%);fill-opacity:1;" d="M 52.21875 142.085938 C 52.21875 146.101562 46.191406 146.101562 46.191406 142.085938 C 46.191406 138.066406 52.21875 138.066406 52.21875 142.085938 "/>
<path style=" stroke:none;fill-rule:nonzero;fill:rgb(100%,84.3%,0%);fill-opacity:1;" d="M 334.9375 370.730469 C 334.9375 374.746094 328.910156 374.746094 328.910156 370.730469 C 328.910156 366.710938 334.9375 366.710938 334.9375 370.730469 "/>
<path style=" stroke:none;fill-rule:nonzero;fill:rgb(100%,84.3%,0%);fill-opacity:1;" d="M 54.300781 203.1875 C 54.300781 207.203125 48.273438 207.203125 48.273438 203.1875 C 48.273438 199.167969 54.300781 199.167969 54.300781 203.1875 "/>
<path style=" stroke:none;fill-rule:nonzero;fill:rgb(100%,84.3%,0%);fill-opacity:1;" d="M 254.828125 369.679688 C 254.828125 373.699219 248.800781 373.699219 248.800781 369.679688 C 248.800781 365.664062 254.828125 365.664062 254.828125 369.679688 "/>
<path style=" stroke:none;fill-rule:nonzero;fill:rgb(100%,84.3%,0%);fill-opacity:1;" d="M 381.320312 376.65625 C 381.320312 380.675781 375.296875 380.675781 375.296875 376.65625 C 375.296875 372.640625 381.320312 372.640625 381.320312 376.65625 "/>
<path style=" stroke:none;fill-rule:nonzero;fill:rgb(100%,84.3%,0%);fill-opacity:1;" d="M 110.300781 377.128906 C 110.300781 381.148438 104.273438 381.148438 104.273438 377.128906 C 104.273438 373.113281 110.300781 373.113281 110.300781 377.128906 "/>
<path style=" stroke:none;fill-rule:nonzero;fill:rgb(100%,84.3%,0%);fill-opacity:1;" d="M 400.140625 377.128906 C 400.140625 381.148438 394.117188 381.148438 394.117188 377.128906 C 394.117188 373.113281 400.140625 373.113281 400.140625 377.128906 "/>
<path style=" stroke:none;fill-rule:nonzero;fill:rgb(100%,84.3%,0%);fill-opacity:1;" d="M 280.257812 140.683594 C 280.257812 144.699219 274.230469 144.699219 274.230469 140.683594 C 274.230469 136.664062 280.257812 136.664062 280.257812 140.683594 "/>
<path style=" stroke:none;fill-rule:nonzero;fill:rgb(100%,84.3%,0%);fill-opacity:1;" d="M 443.511719 370.773438 C 443.511719 374.792969 437.488281 374.792969 437.488281 370.773438 C 437.488281 366.757812 443.511719 366.757812 443.511719 370.773438 "/>
<path style=" stroke:none;fill-rule:nonzero;fill:rgb(100%,84.3%,0%);fill-opacity:1;" d="M 139.988281 134.871094 C 139.988281 138.886719 133.960938 138.886719 133.960938 134.871094 C 133.960938 130.851562 139.988281 130.851562 139.988281 134.871094 "/>
<path style=" stroke:none;fill-rule:nonzero;fill:rgb(100%,84.3%,0%);fill-opacity:1;" d="M 382.867188 136.351562 C 382.867188 140.367188 376.84375 140.367188 376.84375 136.351562 C 376.84375 132.332031 382.867188 132.332031 382.867188 136.351562 "/>
<path style=" stroke:none;fill-rule:nonzero;fill:rgb(100%,84.3%,0%);fill-opacity:1;" d="M 133.964844 134.996094 C 133.964844 139.015625 127.9375 139.015625 127.9375 134.996094 C 127.9375 130.980469 133.964844 130.980469 133.964844 134.996094 "/>
<path style=" stroke:none;fill-rule:nonzero;fill:rgb(100%,84.3%,0%);fill-opacity:1;" d="M 183.535156 377.128906 C 183.535156 381.148438 177.507812 381.148438 177.507812 377.128906 C 177.507812 373.113281 183.535156 373.113281 183.535156 377.128906 "/>
<path style=" stroke:none;fill-rule:nonzero;fill:rgb(100%,84.3%,0%);fill-opacity:1;" d="M 52.882812 325.179688 C 52.882812 329.195312 46.855469 329.195312 46.855469 325.179688 C 46.855469 321.160156 52.882812 321.160156 52.882812 325.179688 "/>
<path style=" stroke:none;fill-rule:nonzero;fill:rgb(100%,84.3%,0%);fill-opacity:1;" d="M 346.660156 369.425781 C 346.660156 373.445312 340.632812 373.445312 340.632812 369.425781 C 340.632812 365.410156 346.660156 365.410156 346.660156 369.425781 "/>
<path style=" stroke:none;fill-rule:nonzero;fill:rgb(100%,84.3%,0%);fill-opacity:1;" d="M 133.65625 376.925781 C 133.65625 380.945312 127.628906 380.945312 127.628906 376.925781 C 127.628906 372.910156 133.65625 372.910156 133.65625 376.925781 "/>
<path style=" stroke:none;fill-rule:nonzero;fill:rgb(100%,84.3%,0%);fill-opacity:1;" d="M 212.671875 149.191406 C 212.671875 153.210938 206.644531 153.210938 206.644531 149.191406 C 206.644531 145.175781 212.671875 145.175781 212.671875 149.191406 "/>
<path style=" stroke:none;fill-rule:nonzero;fill:rgb(100%,84.3%,0%);fill-opacity:1;" d="M 257.421875 134.871094 C 257.421875 138.886719 251.398438 138.886719 251.398438 134.871094 C 251.398438 130.851562 257.421875 130.851562 257.421875 134.871094 "/>
<path style=" stroke:none;fill-rule:nonzero;fill:rgb(100%,84.3%,0%);fill-opacity:1;" d="M 391.917969 134.886719 C 391.917969 138.902344 385.890625 138.902344 385.890625 134.886719 C 385.890625 130.867188 391.917969 130.867188 391.917969 134.886719 "/>
<path style=" stroke:none;fill-rule:nonzero;fill:rgb(100%,84.3%,0%);fill-opacity:1;" d="M 74.757812 138.039062 C 74.757812 142.058594 68.730469 142.058594 68.730469 138.039062 C 68.730469 134.023438 74.757812 134.023438 74.757812 138.039062 "/>
<path style=" stroke:none;fill-rule:nonzero;fill:rgb(100%,84.3%,0%);fill-opacity:1;" d="M 452.046875 140.472656 C 452.046875 144.488281 446.019531 144.488281 446.019531 140.472656 C 446.019531 136.453125 452.046875 136.453125 452.046875 140.472656 "/>
<path style=" stroke:none;fill-rule:nonzero;fill:rgb(100%,84.3%,0%);fill-opacity:1;" d="M 466.148438 278.835938 C 466.148438 282.851562 460.125 282.851562 460.125 278.835938 C 460.125 274.816406 466.148438 274.816406 466.148438 278.835938 "/>
<path style=" stroke:none;fill-rule:nonzero;fill:rgb(100%,84.3%,0%);fill-opacity:1;" d="M 347.410156 135.46875 C 347.410156 139.484375 341.382812 139.484375 341.382812 135.46875 C 341.382812 131.449219 347.410156 131.449219 347.410156 135.46875 "/>
<path style=" stroke:none;fill-rule:nonzero;fill:rgb(100%,84.3%,0%);fill-opacity:1;" d="M 52.523438 183.613281 C 52.523438 187.628906 46.496094 187.628906 46.496094 183.613281 C 46.496094 179.59375 52.523438 179.59375 52.523438 183.613281 "/>
<path style=" stroke:none;fill-rule:nonzero;fill:rgb(100%,84.3%,0%);fill-opacity:1;" d="M 387.734375 376.996094 C 387.734375 381.015625 381.707031 381.015625 381.707031 376.996094 C 381.707031 372.980469 387.734375 372.980469 387.734375 376.996094 "/>
<path style=" stroke:none;fill-rule:nonzero;fill:rgb(100%,84.3%,0%);fill-opacity:1;" d="M 321.519531 367.621094 C 321.519531 371.636719 315.492188 371.636719 315.492188 367.621094 C 315.492188 363.601562 321.519531 363.601562 321.519531 367.621094 "/>
<path style=" stroke:none;fill-rule:nonzero;fill:rgb(100%,84.3%,0%);fill-opacity:1;" d="M 171.109375 377.128906 C 171.109375 381.148438 165.082031 381.148438 165.082031 377.128906 C 165.082031 373.113281 171.109375 373.113281 171.109375 377.128906 "/>
<path style=" stroke:none;fill-rule:nonzero;fill:rgb(100%,84.3%,0%);fill-opacity:1;" d="M 255.21875 377.027344 C 255.21875 381.042969 249.195312 381.042969 249.195312 377.027344 C 249.195312 373.007812 255.21875 373.007812 255.21875 377.027344 "/>
<path style=" stroke:none;fill-rule:nonzero;fill:rgb(100%,84.3%,0%);fill-opacity:1;" d="M 164.5 369.757812 C 164.5 373.773438 158.472656 373.773438 158.472656 369.757812 C 158.472656 365.738281 164.5 365.738281 164.5 369.757812 "/>
<path style=" stroke:none;fill-rule:nonzero;fill:rgb(100%,84.3%,0%);fill-opacity:1;" d="M 352.546875 371.105469 C 352.546875 375.121094 346.519531 375.121094 346.519531 371.105469 C 346.519531 367.085938 352.546875 367.085938 352.546875 371.105469 "/>
<path style=" stroke:none;fill-rule:nonzero;fill:rgb(100%,84.3%,0%);fill-opacity:1;" d="M 298.390625 137.574219 C 298.390625 141.59375 292.367188 141.59375 292.367188 137.574219 C 292.367188 133.558594 298.390625 133.558594 298.390625 137.574219 "/>
<path style=" stroke:none;fill-rule:nonzero;fill:rgb(100%,84.3%,0%);fill-opacity:1;" d="M 55.757812 222.441406 C 55.757812 226.457031 49.730469 226.457031 49.730469 222.441406 C 49.730469 218.421875 55.757812 218.421875 55.757812 222.441406 "/>
<path style=" stroke:none;fill-rule:nonzero;fill:rgb(100%,84.3%,0%);fill-opacity:1;" d="M 273.859375 371.144531 C 273.859375 375.160156 267.835938 375.160156 267.835938 371.144531 C 267.835938 367.125 273.859375 367.125 273.859375 371.144531 "/>
<path style=" stroke:none;fill-rule:nonzero;fill:rgb(100%,84.3%,0%);fill-opacity:1;" d="M 433.207031 141.1875 C 433.207031 145.207031 427.179688 145.207031 427.179688 141.1875 C 427.179688 137.171875 433.207031 137.171875 433.207031 141.1875 "/>
<path style=" stroke:none;fill-rule:nonzero;fill:rgb(100%,84.3%,0%);fill-opacity:1;" d="M 160.769531 140.734375 C 160.769531 144.75 154.742188 144.75 154.742188 140.734375 C 154.742188 136.714844 160.769531 136.714844 160.769531 140.734375 "/>
<path style=" stroke:none;fill-rule:nonzero;fill:rgb(100%,84.3%,0%);fill-opacity:1;" d="M 116.464844 375.894531 C 116.464844 379.914062 110.4375 379.914062 110.4375 375.894531 C 110.4375 371.878906 116.464844 371.878906 116.464844 375.894531 "/>
<path style=" stroke:none;fill-rule:nonzero;fill:rgb(100%,84.3%,0%);fill-opacity:1;" d="M 51.855469 159.054688 C 51.855469 163.074219 45.828125 163.074219 45.828125 159.054688 C 45.828125 155.039062 51.855469 155.039062 51.855469 159.054688 "/>
<path style=" stroke:none;fill-rule:nonzero;fill:rgb(100%,84.3%,0%);fill-opacity:1;" d="M 233.3125 371.738281 C 233.3125 375.757812 227.285156 375.757812 227.285156 371.738281 C 227.285156 367.722656 233.3125 367.722656 233.3125 371.738281 "/>
<path style=" stroke:none;fill-rule:nonzero;fill:rgb(100%,84.3%,0%);fill-opacity:1;" d="M 236.519531 136.316406 C 236.519531 140.335938 230.492188 140.335938 230.492188 136.316406 C 230.492188 132.300781 236.519531 132.300781 236.519531 136.316406 "/>
<path style=" stroke:none;fill-rule:nonzero;fill:rgb(100%,84.3%,0%);fill-opacity:1;" d="M 51.707031 337.621094 C 51.707031 341.640625 45.679688 341.640625 45.679688 337.621094 C 45.679688 333.605469 51.707031 333.605469 51.707031 337.621094 "/>
<path style=" stroke:none;fill-rule:nonzero;fill:rgb(100%,84.3%,0%);fill-opacity:1;" d="M 417.609375 375.1875 C 417.609375 379.207031 411.585938 379.207031 411.585938 375.1875 C 411.585938 371.171875 417.609375 371.171875 417.609375 375.1875 "/>
<path style=" stroke:none;fill-rule:nonzero;fill:rgb(100%,84.3%,0%);fill-opacity:1;" d="M 216.804688 140.789062 C 216.804688 144.808594 210.777344 144.808594 210.777344 140.789062 C 210.777344 136.773438 216.804688 136.773438 216.804688 140.789062 "/>
<path style=" stroke:none;fill-rule:nonzero;fill:rgb(100%,84.3%,0%);fill-opacity:1;" d="M 127.941406 135.25 C 127.941406 139.269531 121.914062 139.269531 121.914062 135.25 C 121.914062 131.234375 127.941406 131.234375 127.941406 135.25 "/>
<path style=" stroke:none;fill-rule:nonzero;fill:rgb(100%,84.3%,0%);fill-opacity:1;" d="M 229.339844 135.070312 C 229.339844 139.089844 223.3125 139.089844 223.3125 135.070312 C 223.3125 131.054688 229.339844 131.054688 229.339844 135.070312 "/>
<path style=" stroke:none;fill-rule:nonzero;fill:rgb(100%,84.3%,0%);fill-opacity:1;" d="M 358.386719 367.707031 C 358.386719 371.722656 352.363281 371.722656 352.363281 367.707031 C 352.363281 363.6875 358.386719 363.6875 358.386719 367.707031 "/>
<path style=" stroke:none;fill-rule:nonzero;fill:rgb(100%,84.3%,0%);fill-opacity:1;" d="M 466.320312 173.011719 C 466.320312 177.03125 460.292969 177.03125 460.292969 173.011719 C 460.292969 168.996094 466.320312 168.996094 466.320312 173.011719 "/>
<path style=" stroke:none;fill-rule:nonzero;fill:rgb(100%,84.3%,0%);fill-opacity:1;" d="M 465.8125 377.121094 C 465.8125 381.140625 459.785156 381.140625 459.785156 377.121094 C 459.785156 373.105469 465.8125 373.105469 465.8125 377.121094 "/>
<path style=" stroke:none;fill-rule:nonzero;fill:rgb(100%,84.3%,0%);fill-opacity:1;" d="M 57.640625 359.125 C 57.640625 363.144531 51.617188 363.144531 51.617188 359.125 C 51.617188 355.109375 57.640625 355.109375 57.640625 359.125 "/>
<path style=" stroke:none;fill-rule:nonzero;fill:rgb(100%,84.3%,0%);fill-opacity:1;" d="M 243.167969 371.339844 C 243.167969 375.355469 237.144531 375.355469 237.144531 371.339844 C 237.144531 367.320312 243.167969 367.320312 243.167969 371.339844 "/>
<path style=" stroke:none;fill-rule:nonzero;fill:rgb(100%,84.3%,0%);fill-opacity:1;" d="M 191.148438 135.664062 C 191.148438 139.683594 185.121094 139.683594 185.121094 135.664062 C 185.121094 131.648438 191.148438 131.648438 191.148438 135.664062 "/>
<path style=" stroke:none;fill-rule:nonzero;fill:rgb(100%,84.3%,0%);fill-opacity:1;" d="M 80.464844 141.503906 C 80.464844 145.519531 74.441406 145.519531 74.441406 141.503906 C 74.441406 137.484375 80.464844 137.484375 80.464844 141.503906 "/>
<path style=" stroke:none;fill-rule:nonzero;fill:rgb(100%,84.3%,0%);fill-opacity:1;" d="M 220.789062 370.339844 C 220.789062 374.355469 214.761719 374.355469 214.761719 370.339844 C 214.761719 366.320312 220.789062 366.320312 220.789062 370.339844 "/>
<path style=" stroke:none;fill-rule:nonzero;fill:rgb(100%,84.3%,0%);fill-opacity:1;" d="M 314.78125 377.128906 C 314.78125 381.148438 308.757812 381.148438 308.757812 377.128906 C 308.757812 373.113281 314.78125 373.113281 314.78125 377.128906 "/>
<path style=" stroke:none;fill-rule:nonzero;fill:rgb(100%,84.3%,0%);fill-opacity:1;" d="M 460.296875 361.929688 C 460.296875 365.945312 454.269531 365.945312 454.269531 361.929688 C 454.269531 357.910156 460.296875 357.910156 460.296875 361.929688 "/>
<path style=" stroke:none;fill-rule:nonzero;fill:rgb(100%,84.3%,0%);fill-opacity:1;" d="M 53.699219 196.296875 C 53.699219 200.3125 47.671875 200.3125 47.671875 196.296875 C 47.671875 192.277344 53.699219 192.277344 53.699219 196.296875 "/>
<path style=" stroke:none;fill-rule:nonzero;fill:rgb(100%,84.3%,0%);fill-opacity:1;" d="M 281.847656 134.871094 C 281.847656 138.886719 275.820312 138.886719 275.820312 134.871094 C 275.820312 130.851562 281.847656 130.851562 281.847656 134.871094 "/>
<path style=" stroke:none;fill-rule:nonzero;fill:rgb(100%,84.3%,0%);fill-opacity:1;" d="M 118.058594 139.601562 C 118.058594 143.617188 112.03125 143.617188 112.03125 139.601562 C 112.03125 135.582031 118.058594 135.582031 118.058594 139.601562 "/>
<path style=" stroke:none;fill-rule:nonzero;fill:rgb(100%,84.3%,0%);fill-opacity:1;" d="M 54.550781 209.207031 C 54.550781 213.222656 48.527344 213.222656 48.527344 209.207031 C 48.527344 205.1875 54.550781 205.1875 54.550781 209.207031 "/>
<path style=" stroke:none;fill-rule:nonzero;fill:rgb(100%,84.3%,0%);fill-opacity:1;" d="M 377.066406 137.976562 C 377.066406 141.996094 371.039062 141.996094 371.039062 137.976562 C 371.039062 133.960938 377.066406 133.960938 377.066406 137.976562 "/>
<path style=" stroke:none;fill-rule:nonzero;fill:rgb(100%,84.3%,0%);fill-opacity:1;" d="M 237.066406 142.316406 C 237.066406 146.335938 231.039062 146.335938 231.039062 142.316406 C 231.039062 138.300781 237.066406 138.300781 237.066406 142.316406 "/>
<path style=" stroke:none;fill-rule:nonzero;fill:rgb(100%,84.3%,0%);fill-opacity:1;" d="M 419.488281 369.308594 C 419.488281 373.328125 413.464844 373.328125 413.464844 369.308594 C 413.464844 365.292969 419.488281 365.292969 419.488281 369.308594 "/>
<path style=" stroke:none;fill-rule:nonzero;fill:rgb(100%,84.3%,0%);fill-opacity:1;" d="M 329.25 138.171875 C 329.25 142.1875 323.226562 142.1875 323.226562 138.171875 C 323.226562 134.152344 329.25 134.152344 329.25 138.171875 "/>
<path style=" stroke:none;fill-rule:nonzero;fill:rgb(100%,84.3%,0%);fill-opacity:1;" d="M 104.671875 134.871094 C 104.671875 138.886719 98.644531 138.886719 98.644531 134.871094 C 98.644531 130.851562 104.671875 130.851562 104.671875 134.871094 "/>
<path style=" stroke:none;fill-rule:nonzero;fill:rgb(100%,84.3%,0%);fill-opacity:1;" d="M 185.679688 139.527344 C 185.679688 143.542969 179.65625 143.542969 179.65625 139.527344 C 179.65625 135.507812 185.679688 135.507812 185.679688 139.527344 "/>
<path style=" stroke:none;fill-rule:nonzero;fill:rgb(100%,84.3%,0%);fill-opacity:1;" d="M 394.078125 377.128906 C 394.078125 381.148438 388.054688 381.148438 388.054688 377.128906 C 388.054688 373.113281 394.078125 373.113281 394.078125 377.128906 "/>
<path style=" stroke:none;fill-rule:nonzero;fill:rgb(100%,84.3%,0%);fill-opacity:1;" d="M 52.796875 135.472656 C 52.796875 139.488281 46.769531 139.488281 46.769531 135.472656 C 46.769531 131.453125 52.796875 131.453125 52.796875 135.472656 "/>
<path style=" stroke:none;fill-rule:nonzero;fill:rgb(100%,84.3%,0%);fill-opacity:1;" d="M 111.261719 135.972656 C 111.261719 139.988281 105.234375 139.988281 105.234375 135.972656 C 105.234375 131.953125 111.261719 131.953125 111.261719 135.972656 "/>
<path style=" stroke:none;fill-rule:nonzero;fill:rgb(100%,84.3%,0%);fill-opacity:1;" d="M 89.742188 134.871094 C 89.742188 138.886719 83.714844 138.886719 83.714844 134.871094 C 83.714844 130.851562 89.742188 130.851562 89.742188 134.871094 "/>
<path style=" stroke:none;fill-rule:nonzero;fill:rgb(100%,84.3%,0%);fill-opacity:1;" d="M 466.042969 166.984375 C 466.042969 171 460.015625 171 460.015625 166.984375 C 460.015625 162.964844 466.042969 162.964844 466.042969 166.984375 "/>
<path style=" stroke:none;fill-rule:nonzero;fill:rgb(100%,84.3%,0%);fill-opacity:1;" d="M 465.203125 332.003906 C 465.203125 336.019531 459.175781 336.019531 459.175781 332.003906 C 459.175781 327.984375 465.203125 327.984375 465.203125 332.003906 "/>
<path style=" stroke:none;fill-rule:nonzero;fill:rgb(100%,84.3%,0%);fill-opacity:1;" d="M 296.710938 370.65625 C 296.710938 374.671875 290.683594 374.671875 290.683594 370.65625 C 290.683594 366.636719 296.710938 366.636719 296.710938 370.65625 "/>
<path style=" stroke:none;fill-rule:nonzero;fill:rgb(100%,84.3%,0%);fill-opacity:1;" d="M 52.355469 165.070312 C 52.355469 169.089844 46.328125 169.089844 46.328125 165.070312 C 46.328125 161.054688 52.355469 161.054688 52.355469 165.070312 "/>
<path style=" stroke:none;fill-rule:nonzero;fill:rgb(100%,84.3%,0%);fill-opacity:1;" d="M 233.660156 149.179688 C 233.660156 153.199219 227.632812 153.199219 227.632812 149.179688 C 227.632812 145.164062 233.660156 145.164062 233.660156 149.179688 "/>
<path style=" stroke:none;fill-rule:nonzero;fill:rgb(100%,84.3%,0%);fill-opacity:1;" d="M 144.933594 138.316406 C 144.933594 142.335938 138.910156 142.335938 138.910156 138.316406 C 138.910156 134.300781 144.933594 134.300781 144.933594 138.316406 "/>
<path style=" stroke:none;fill-rule:nonzero;fill:rgb(100%,84.3%,0%);fill-opacity:1;" d="M 102.65625 146.726562 C 102.65625 150.746094 96.628906 150.746094 96.628906 146.726562 C 96.628906 142.710938 102.65625 142.710938 102.65625 146.726562 "/>
<path style=" stroke:none;fill-rule:nonzero;fill:rgb(100%,84.3%,0%);fill-opacity:1;" d="M 310.894531 370.964844 C 310.894531 374.984375 304.867188 374.984375 304.867188 370.964844 C 304.867188 366.949219 310.894531 366.949219 310.894531 370.964844 "/>
<path style=" stroke:none;fill-rule:nonzero;fill:rgb(100%,84.3%,0%);fill-opacity:1;" d="M 293.007812 134.871094 C 293.007812 138.886719 286.980469 138.886719 286.980469 134.871094 C 286.980469 130.851562 293.007812 130.851562 293.007812 134.871094 "/>
<path style=" stroke:none;fill-rule:nonzero;fill:rgb(100%,84.3%,0%);fill-opacity:1;" d="M 327.375 377.128906 C 327.375 381.148438 321.347656 381.148438 321.347656 377.128906 C 321.347656 373.113281 327.375 373.113281 327.375 377.128906 "/>
<path style=" stroke:none;fill-rule:nonzero;fill:rgb(100%,84.3%,0%);fill-opacity:1;" d="M 352.5625 377.128906 C 352.5625 381.148438 346.535156 381.148438 346.535156 377.128906 C 346.535156 373.113281 352.5625 373.113281 352.5625 377.128906 "/>
<path style=" stroke:none;fill-rule:nonzero;fill:rgb(100%,84.3%,0%);fill-opacity:1;" d="M 167.824219 136.933594 C 167.824219 140.949219 161.796875 140.949219 161.796875 136.933594 C 161.796875 132.914062 167.824219 132.914062 167.824219 136.933594 "/>
<path style=" stroke:none;fill-rule:nonzero;fill:rgb(100%,84.3%,0%);fill-opacity:1;" d="M 147.539062 143.753906 C 147.539062 147.769531 141.511719 147.769531 141.511719 143.753906 C 141.511719 139.734375 147.539062 139.734375 147.539062 143.753906 "/>
<path style=" stroke:none;fill-rule:nonzero;fill:rgb(100%,84.3%,0%);fill-opacity:1;" d="M 263.457031 364.082031 C 263.457031 368.101562 257.433594 368.101562 257.433594 364.082031 C 257.433594 360.066406 263.457031 360.066406 263.457031 364.082031 "/>
<path style=" stroke:none;fill-rule:nonzero;fill:rgb(100%,84.3%,0%);fill-opacity:1;" d="M 368.667969 377.128906 C 368.667969 381.148438 362.640625 381.148438 362.640625 377.128906 C 362.640625 373.113281 368.667969 373.113281 368.667969 377.128906 "/>
<path style=" stroke:none;fill-rule:nonzero;fill:rgb(100%,84.3%,0%);fill-opacity:1;" d="M 141.175781 373.207031 C 141.175781 377.222656 135.148438 377.222656 135.148438 373.207031 C 135.148438 369.1875 141.175781 369.1875 141.175781 373.207031 "/>
<path style=" stroke:none;fill-rule:nonzero;fill:rgb(100%,84.3%,0%);fill-opacity:1;" d="M 310.046875 137.4375 C 310.046875 141.457031 304.019531 141.457031 304.019531 137.4375 C 304.019531 133.421875 310.046875 133.421875 310.046875 137.4375 "/>
<path style=" stroke:none;fill-rule:nonzero;fill:rgb(100%,84.3%,0%);fill-opacity:1;" d="M 52.464844 350.480469 C 52.464844 354.5 46.4375 354.5 46.4375 350.480469 C 46.4375 346.464844 52.464844 346.464844 52.464844 350.480469 "/>
<path style=" stroke:none;fill-rule:nonzero;fill:rgb(100%,84.3%,0%);fill-opacity:1;" d="M 465.628906 343.910156 C 465.628906 347.929688 459.601562 347.929688 459.601562 343.910156 C 459.601562 339.894531 465.628906 339.894531 465.628906 343.910156 "/>
</g>
</svg>
