<?xml version="1.0" encoding="UTF-8"?>
<svg xmlns="http://www.w3.org/2000/svg" xmlns:xlink="http://www.w3.org/1999/xlink" width="512pt" height="512pt" viewBox="0 0 512 512" version="1.1">
<g id="surface406">
<path style=" stroke:none;fill-rule:nonzero;fill:rgb(26.7%,26.7%,26.7%);fill-opacity:1;" d="M 187.644531 0 L 324.351562 0 L 324.351562 512 L 187.644531 512 Z M 187.644531 0 "/>
<path style=" stroke:none;fill-rule:nonzero;fill:rgb(19.2%,38.8%,66.7%);fill-opacity:1;" d="M 199.039062 42.667969 L 312.960938 42.667969 L 312.960938 469.332031 L 199.039062 469.332031 Z M 199.039062 42.667969 "/>
<path style=" stroke:none;fill-rule:nonzero;fill:rgb(90.6%,14.9%,14.9%);fill-opacity:1;" d="M 373.1875 483.847656 C 373.1875 489.652344 364.480469 489.652344 364.480469 483.847656 C 364.480469 478.039062 373.1875 478.039062 373.1875 483.847656 "/>
<path style=" stroke:none;fill-rule:nonzero;fill:rgb(90.6%,14.9%,14.9%);fill-opacity:1;" d="M 601.035156 170.375 C 601.035156 206.84375 571.46875 236.40625 535.003906 236.40625 C 498.535156 236.40625 468.96875 206.84375 468.96875 170.375 C 468.96875 133.90625 498.535156 104.34375 535.003906 104.34375 C 571.46875 104.34375 601.035156 133.90625 601.035156 170.375 "/>
<path style=" stroke:none;fill-rule:nonzero;fill:rgb(90.6%,14.9%,14.9%);fill-opacity:1;" d="M 416.726562 533.1875 C 416.726562 548.816406 404.054688 561.488281 388.425781 561.488281 C 372.796875 561.488281 360.125 548.816406 360.125 533.1875 C 360.125 517.558594 372.796875 504.890625 388.425781 504.890625 C 404.054688 504.890625 416.726562 517.558594 416.726562 533.1875 "/>
<path style=" stroke:none;fill-rule:nonzero;fill:rgb(90.6%,14.9%,14.9%);fill-opacity:1;" d="M 79.3125 192.871094 C 79.3125 211.304688 64.367188 226.25 45.933594 226.25 C 27.496094 226.25 12.554688 211.304688 12.554688 192.871094 C 12.554688 174.4375 27.496094 159.492188 45.933594 159.492188 C 64.367188 159.492188 79.3125 174.4375 79.3125 192.871094 "/>
<path style=" stroke:none;fill-rule:nonzero;fill:rgb(100%,100%,100%);fill-opacity:1;" d="M 484.933594 504.164062 C 484.933594 509 477.679688 509 477.679688 504.164062 C 477.679688 499.324219 484.933594 499.324219 484.933594 504.164062 "/>
<path style=" stroke:none;fill-rule:nonzero;fill:rgb(100%,100%,100%);fill-opacity:1;" d="M 423.257812 452.644531 C 423.257812 457.480469 416 457.480469 416 452.644531 C 416 447.804688 423.257812 447.804688 423.257812 452.644531 "/>
<path style=" stroke:none;fill-rule:nonzero;fill:rgb(100%,100%,100%);fill-opacity:1;" d="M 56.089844 136.996094 C 56.089844 141.835938 48.835938 141.835938 48.835938 136.996094 C 48.835938 132.160156 56.089844 132.160156 56.089844 136.996094 "/>
<path style=" stroke:none;fill-rule:nonzero;fill:rgb(100%,100%,100%);fill-opacity:1;" d="M 391.328125 490.375 C 391.328125 495.214844 384.074219 495.214844 384.074219 490.375 C 384.074219 485.539062 391.328125 485.539062 391.328125 490.375 "/>
<path style=" stroke:none;fill-rule:nonzero;fill:rgb(100%,100%,100%);fill-opacity:1;" d="M 351.417969 135.546875 C 351.417969 140.382812 344.164062 140.382812 344.164062 135.546875 C 344.164062 130.707031 351.417969 130.707031 351.417969 135.546875 "/>
<path style=" stroke:none;fill-rule:nonzero;fill:rgb(100%,100%,100%);fill-opacity:1;" d="M 146.066406 106.523438 C 146.066406 111.359375 138.8125 111.359375 138.8125 106.523438 C 138.8125 101.683594 146.066406 101.683594 146.066406 106.523438 "/>
<path style=" stroke:none;fill-rule:nonzero;fill:rgb(100%,100%,100%);fill-opacity:1;" d="M 8.199219 26.703125 C 8.199219 31.539062 0.941406 31.539062 0.941406 26.703125 C 0.941406 21.867188 8.199219 21.867188 8.199219 26.703125 "/>
<path style=" stroke:none;fill-rule:nonzero;fill:rgb(100%,100%,100%);fill-opacity:1;" d="M 396.40625 425.070312 C 396.40625 429.90625 389.152344 429.90625 389.152344 425.070312 C 389.152344 420.234375 396.40625 420.234375 396.40625 425.070312 "/>
<path style=" stroke:none;fill-rule:nonzero;fill:rgb(100%,100%,100%);fill-opacity:1;" d="M 518.3125 250.195312 C 518.3125 255.03125 511.058594 255.03125 511.058594 250.195312 C 511.058594 245.359375 518.3125 245.359375 518.3125 250.195312 "/>
<path style=" stroke:none;fill-rule:nonzero;fill:rgb(100%,100%,100%);fill-opacity:1;" d="M 180.171875 189.242188 C 180.171875 194.082031 172.914062 194.082031 172.914062 189.242188 C 172.914062 184.40625 180.171875 184.40625 180.171875 189.242188 "/>
<path style=" stroke:none;fill-rule:nonzero;fill:rgb(100%,100%,100%);fill-opacity:1;" d="M 146.066406 245.839844 C 146.066406 250.679688 138.8125 250.679688 138.8125 245.839844 C 138.8125 241.003906 146.066406 241.003906 146.066406 245.839844 "/>
<path style=" stroke:none;fill-rule:nonzero;fill:rgb(100%,100%,100%);fill-opacity:1;" d="M 162.03125 86.203125 C 162.03125 91.042969 154.777344 91.042969 154.777344 86.203125 C 154.777344 81.367188 162.03125 81.367188 162.03125 86.203125 "/>
<path style=" stroke:none;fill-rule:nonzero;fill:rgb(100%,100%,100%);fill-opacity:1;" d="M 42.304688 29.605469 C 42.304688 34.441406 35.046875 34.441406 35.046875 29.605469 C 35.046875 24.765625 42.304688 24.765625 42.304688 29.605469 "/>
<path style=" stroke:none;fill-rule:nonzero;fill:rgb(100%,100%,100%);fill-opacity:1;" d="M 124.300781 391.691406 C 124.300781 396.53125 117.042969 396.53125 117.042969 391.691406 C 117.042969 386.855469 124.300781 386.855469 124.300781 391.691406 "/>
<path style=" stroke:none;fill-rule:nonzero;fill:rgb(100%,100%,100%);fill-opacity:1;" d="M 411.644531 327.835938 C 411.644531 332.675781 404.390625 332.675781 404.390625 327.835938 C 404.390625 323 411.644531 323 411.644531 327.835938 "/>
<path style=" stroke:none;fill-rule:nonzero;fill:rgb(100%,100%,100%);fill-opacity:1;" d="M 58.265625 392.417969 C 58.265625 397.253906 51.011719 397.253906 51.011719 392.417969 C 51.011719 387.578125 58.265625 387.578125 58.265625 392.417969 "/>
<path style=" stroke:none;fill-rule:nonzero;fill:rgb(100%,100%,100%);fill-opacity:1;" d="M 365.207031 348.152344 C 365.207031 352.992188 357.949219 352.992188 357.949219 348.152344 C 357.949219 343.316406 365.207031 343.316406 365.207031 348.152344 "/>
<path style=" stroke:none;fill-rule:nonzero;fill:rgb(100%,100%,100%);fill-opacity:1;" d="M 381.171875 395.320312 C 381.171875 400.15625 373.914062 400.15625 373.914062 395.320312 C 373.914062 390.484375 381.171875 390.484375 381.171875 395.320312 "/>
<path style=" stroke:none;fill-rule:nonzero;fill:rgb(100%,100%,100%);fill-opacity:1;" d="M 469.695312 35.410156 C 469.695312 40.246094 462.441406 40.246094 462.441406 35.410156 C 462.441406 30.574219 469.695312 30.574219 469.695312 35.410156 "/>
<path style=" stroke:none;fill-rule:nonzero;fill:rgb(100%,100%,100%);fill-opacity:1;" d="M 397.859375 423.617188 C 397.859375 428.457031 390.601562 428.457031 390.601562 423.617188 C 390.601562 418.78125 397.859375 418.78125 397.859375 423.617188 "/>
<path style=" stroke:none;fill-rule:nonzero;fill:rgb(100%,100%,100%);fill-opacity:1;" d="M 356.5 323.484375 C 356.5 328.320312 349.242188 328.320312 349.242188 323.484375 C 349.242188 318.644531 356.5 318.644531 356.5 323.484375 "/>
<path style=" stroke:none;fill-rule:nonzero;fill:rgb(100%,100%,100%);fill-opacity:1;" d="M 101.804688 406.203125 C 101.804688 411.042969 94.550781 411.042969 94.550781 406.203125 C 94.550781 401.367188 101.804688 401.367188 101.804688 406.203125 "/>
<path style=" stroke:none;fill-rule:nonzero;fill:rgb(100%,84.3%,0%);fill-opacity:1;" d="M 213.34375 208.558594 C 213.34375 213.394531 206.085938 213.394531 206.085938 208.558594 C 206.085938 203.71875 213.34375 203.71875 213.34375 208.558594 "/>
<path style=" stroke:none;fill-rule:nonzero;fill:rgb(100%,84.3%,0%);fill-opacity:1;" d="M 308.5 281.785156 C 308.5 286.621094 301.246094 286.621094 301.246094 281.785156 C 301.246094 276.945312 308.5 276.945312 308.5 281.785156 "/>
<path style=" stroke:none;fill-rule:nonzero;fill:rgb(100%,84.3%,0%);fill-opacity:1;" d="M 309.332031 309.757812 C 309.332031 314.59375 302.078125 314.59375 302.078125 309.757812 C 302.078125 304.921875 309.332031 304.921875 309.332031 309.757812 "/>
<path style=" stroke:none;fill-rule:nonzero;fill:rgb(100%,84.3%,0%);fill-opacity:1;" d="M 241.601562 460.242188 C 241.601562 465.082031 234.34375 465.082031 234.34375 460.242188 C 234.34375 455.40625 241.601562 455.40625 241.601562 460.242188 "/>
<path style=" stroke:none;fill-rule:nonzero;fill:rgb(100%,84.3%,0%);fill-opacity:1;" d="M 216.992188 200.515625 C 216.992188 205.355469 209.738281 205.355469 209.738281 200.515625 C 209.738281 195.679688 216.992188 195.679688 216.992188 200.515625 "/>
<path style=" stroke:none;fill-rule:nonzero;fill:rgb(100%,84.3%,0%);fill-opacity:1;" d="M 309.332031 340.207031 C 309.332031 345.042969 302.078125 345.042969 302.078125 340.207031 C 302.078125 335.371094 309.332031 335.371094 309.332031 340.207031 "/>
<path style=" stroke:none;fill-rule:nonzero;fill:rgb(100%,84.3%,0%);fill-opacity:1;" d="M 209.925781 171.921875 C 209.925781 176.761719 202.667969 176.761719 202.667969 171.921875 C 202.667969 167.085938 209.925781 167.085938 209.925781 171.921875 "/>
<path style=" stroke:none;fill-rule:nonzero;fill:rgb(100%,84.3%,0%);fill-opacity:1;" d="M 209.949219 106.667969 C 209.949219 111.503906 202.691406 111.503906 202.691406 106.667969 C 202.691406 101.832031 209.949219 101.832031 209.949219 106.667969 "/>
<path style=" stroke:none;fill-rule:nonzero;fill:rgb(100%,84.3%,0%);fill-opacity:1;" d="M 209.921875 223.066406 C 209.921875 227.902344 202.667969 227.902344 202.667969 223.066406 C 202.667969 218.226562 209.921875 218.226562 209.921875 223.066406 "/>
<path style=" stroke:none;fill-rule:nonzero;fill:rgb(100%,84.3%,0%);fill-opacity:1;" d="M 216.203125 79.671875 C 216.203125 84.511719 208.945312 84.511719 208.945312 79.671875 C 208.945312 74.835938 216.203125 74.835938 216.203125 79.671875 "/>
<path style=" stroke:none;fill-rule:nonzero;fill:rgb(100%,84.3%,0%);fill-opacity:1;" d="M 209.921875 215.03125 C 209.921875 219.871094 202.667969 219.871094 202.667969 215.03125 C 202.667969 210.195312 209.921875 210.195312 209.921875 215.03125 "/>
<path style=" stroke:none;fill-rule:nonzero;fill:rgb(100%,84.3%,0%);fill-opacity:1;" d="M 309.332031 153.570312 C 309.332031 158.410156 302.078125 158.410156 302.078125 153.570312 C 302.078125 148.734375 309.332031 148.734375 309.332031 153.570312 "/>
<path style=" stroke:none;fill-rule:nonzero;fill:rgb(100%,84.3%,0%);fill-opacity:1;" d="M 211.238281 68.871094 C 211.238281 73.710938 203.980469 73.710938 203.980469 68.871094 C 203.980469 64.035156 211.238281 64.035156 211.238281 68.871094 "/>
<path style=" stroke:none;fill-rule:nonzero;fill:rgb(100%,84.3%,0%);fill-opacity:1;" d="M 309.332031 358.710938 C 309.332031 363.546875 302.078125 363.546875 302.078125 358.710938 C 302.078125 353.871094 309.332031 353.871094 309.332031 358.710938 "/>
<path style=" stroke:none;fill-rule:nonzero;fill:rgb(100%,84.3%,0%);fill-opacity:1;" d="M 210.144531 406.757812 C 210.144531 411.597656 202.886719 411.597656 202.886719 406.757812 C 202.886719 401.921875 210.144531 401.921875 210.144531 406.757812 "/>
<path style=" stroke:none;fill-rule:nonzero;fill:rgb(100%,84.3%,0%);fill-opacity:1;" d="M 308.957031 113.566406 C 308.957031 118.40625 301.699219 118.40625 301.699219 113.566406 C 301.699219 108.730469 308.957031 108.730469 308.957031 113.566406 "/>
<path style=" stroke:none;fill-rule:nonzero;fill:rgb(100%,84.3%,0%);fill-opacity:1;" d="M 209.921875 255.351562 C 209.921875 260.191406 202.667969 260.191406 202.667969 255.351562 C 202.667969 250.515625 209.921875 250.515625 209.921875 255.351562 "/>
<path style=" stroke:none;fill-rule:nonzero;fill:rgb(100%,84.3%,0%);fill-opacity:1;" d="M 309.210938 423.507812 C 309.210938 428.347656 301.953125 428.347656 301.953125 423.507812 C 301.953125 418.671875 309.210938 418.671875 309.210938 423.507812 "/>
<path style=" stroke:none;fill-rule:nonzero;fill:rgb(100%,84.3%,0%);fill-opacity:1;" d="M 309.332031 138.378906 C 309.332031 143.214844 302.078125 143.214844 302.078125 138.378906 C 302.078125 133.539062 309.332031 133.539062 309.332031 138.378906 "/>
<path style=" stroke:none;fill-rule:nonzero;fill:rgb(100%,84.3%,0%);fill-opacity:1;" d="M 299.261719 451.070312 C 299.261719 455.910156 292.007812 455.910156 292.007812 451.070312 C 292.007812 446.234375 299.261719 446.234375 299.261719 451.070312 "/>
<path style=" stroke:none;fill-rule:nonzero;fill:rgb(100%,84.3%,0%);fill-opacity:1;" d="M 308.511719 302.550781 C 308.511719 307.386719 301.253906 307.386719 301.253906 302.550781 C 301.253906 297.710938 308.511719 297.710938 308.511719 302.550781 "/>
<path style=" stroke:none;fill-rule:nonzero;fill:rgb(100%,84.3%,0%);fill-opacity:1;" d="M 309.332031 377.6875 C 309.332031 382.527344 302.078125 382.527344 302.078125 377.6875 C 302.078125 372.851562 309.332031 372.851562 309.332031 377.6875 "/>
<path style=" stroke:none;fill-rule:nonzero;fill:rgb(100%,84.3%,0%);fill-opacity:1;" d="M 209.921875 194.558594 C 209.921875 199.394531 202.667969 199.394531 202.667969 194.558594 C 202.667969 189.71875 209.921875 189.71875 209.921875 194.558594 "/>
<path style=" stroke:none;fill-rule:nonzero;fill:rgb(100%,84.3%,0%);fill-opacity:1;" d="M 211.378906 429.246094 C 211.378906 434.082031 204.121094 434.082031 204.121094 429.246094 C 204.121094 424.40625 211.378906 424.40625 211.378906 429.246094 "/>
<path style=" stroke:none;fill-rule:nonzero;fill:rgb(100%,84.3%,0%);fill-opacity:1;" d="M 209.921875 202.148438 C 209.921875 206.988281 202.667969 206.988281 202.667969 202.148438 C 202.667969 197.3125 209.921875 197.3125 209.921875 202.148438 "/>
<path style=" stroke:none;fill-rule:nonzero;fill:rgb(100%,84.3%,0%);fill-opacity:1;" d="M 303.988281 363.894531 C 303.988281 368.730469 296.734375 368.730469 296.734375 363.894531 C 296.734375 359.054688 303.988281 359.054688 303.988281 363.894531 "/>
<path style=" stroke:none;fill-rule:nonzero;fill:rgb(100%,84.3%,0%);fill-opacity:1;" d="M 209.921875 187.28125 C 209.921875 192.117188 202.667969 192.117188 202.667969 187.28125 C 202.667969 182.441406 209.921875 182.441406 209.921875 187.28125 "/>
<path style=" stroke:none;fill-rule:nonzero;fill:rgb(100%,84.3%,0%);fill-opacity:1;" d="M 210.160156 84.179688 C 210.160156 89.015625 202.90625 89.015625 202.90625 84.179688 C 202.90625 79.34375 210.160156 79.34375 210.160156 84.179688 "/>
<path style=" stroke:none;fill-rule:nonzero;fill:rgb(100%,84.3%,0%);fill-opacity:1;" d="M 217.398438 215.925781 C 217.398438 220.761719 210.140625 220.761719 210.140625 215.925781 C 210.140625 211.089844 217.398438 211.089844 217.398438 215.925781 "/>
<path style=" stroke:none;fill-rule:nonzero;fill:rgb(100%,84.3%,0%);fill-opacity:1;" d="M 210.492188 248.117188 C 210.492188 252.957031 203.238281 252.957031 203.238281 248.117188 C 203.238281 243.28125 210.492188 243.28125 210.492188 248.117188 "/>
<path style=" stroke:none;fill-rule:nonzero;fill:rgb(100%,84.3%,0%);fill-opacity:1;" d="M 216.34375 62.070312 C 216.34375 66.90625 209.085938 66.90625 209.085938 62.070312 C 209.085938 57.230469 216.34375 57.230469 216.34375 62.070312 "/>
<path style=" stroke:none;fill-rule:nonzero;fill:rgb(100%,84.3%,0%);fill-opacity:1;" d="M 303.695312 354.140625 C 303.695312 358.980469 296.441406 358.980469 296.441406 354.140625 C 296.441406 349.304688 303.695312 349.304688 303.695312 354.140625 "/>
<path style=" stroke:none;fill-rule:nonzero;fill:rgb(100%,84.3%,0%);fill-opacity:1;" d="M 209.921875 157.410156 C 209.921875 162.25 202.667969 162.25 202.667969 157.410156 C 202.667969 152.574219 209.921875 152.574219 209.921875 157.410156 "/>
<path style=" stroke:none;fill-rule:nonzero;fill:rgb(100%,84.3%,0%);fill-opacity:1;" d="M 309.332031 384.945312 C 309.332031 389.785156 302.078125 389.785156 302.078125 384.945312 C 302.078125 380.109375 309.332031 380.109375 309.332031 384.945312 "/>
<path style=" stroke:none;fill-rule:nonzero;fill:rgb(100%,84.3%,0%);fill-opacity:1;" d="M 303.78125 314.429688 C 303.78125 319.265625 296.523438 319.265625 296.523438 314.429688 C 296.523438 309.59375 303.78125 309.59375 303.78125 314.429688 "/>
<path style=" stroke:none;fill-rule:nonzero;fill:rgb(100%,84.3%,0%);fill-opacity:1;" d="M 309.304688 330.386719 C 309.304688 335.222656 302.046875 335.222656 302.046875 330.386719 C 302.046875 325.546875 309.304688 325.546875 309.304688 330.386719 "/>
<path style=" stroke:none;fill-rule:nonzero;fill:rgb(100%,84.3%,0%);fill-opacity:1;" d="M 309.332031 131.011719 C 309.332031 135.847656 302.078125 135.847656 302.078125 131.011719 C 302.078125 126.171875 309.332031 126.171875 309.332031 131.011719 "/>
<path style=" stroke:none;fill-rule:nonzero;fill:rgb(100%,84.3%,0%);fill-opacity:1;" d="M 210.933594 133.976562 C 210.933594 138.816406 203.675781 138.816406 203.675781 133.976562 C 203.675781 129.140625 210.933594 129.140625 210.933594 133.976562 "/>
<path style=" stroke:none;fill-rule:nonzero;fill:rgb(100%,84.3%,0%);fill-opacity:1;" d="M 268.40625 460.492188 C 268.40625 465.328125 261.152344 465.328125 261.152344 460.492188 C 261.152344 455.65625 268.40625 455.65625 268.40625 460.492188 "/>
<path style=" stroke:none;fill-rule:nonzero;fill:rgb(100%,84.3%,0%);fill-opacity:1;" d="M 210.5625 232.492188 C 210.5625 237.332031 203.308594 237.332031 203.308594 232.492188 C 203.308594 227.65625 210.5625 227.65625 210.5625 232.492188 "/>
<path style=" stroke:none;fill-rule:nonzero;fill:rgb(100%,84.3%,0%);fill-opacity:1;" d="M 309.332031 122.582031 C 309.332031 127.421875 302.078125 127.421875 302.078125 122.582031 C 302.078125 117.746094 309.332031 117.746094 309.332031 122.582031 "/>
<path style=" stroke:none;fill-rule:nonzero;fill:rgb(100%,84.3%,0%);fill-opacity:1;" d="M 217.558594 459.46875 C 217.558594 464.304688 210.300781 464.304688 210.300781 459.46875 C 210.300781 454.628906 217.558594 454.628906 217.558594 459.46875 "/>
<path style=" stroke:none;fill-rule:nonzero;fill:rgb(100%,84.3%,0%);fill-opacity:1;" d="M 212.664062 287.773438 C 212.664062 292.609375 205.410156 292.609375 205.410156 287.773438 C 205.410156 282.933594 212.664062 282.933594 212.664062 287.773438 "/>
<path style=" stroke:none;fill-rule:nonzero;fill:rgb(100%,84.3%,0%);fill-opacity:1;" d="M 209.921875 179.890625 C 209.921875 184.730469 202.667969 184.730469 202.667969 179.890625 C 202.667969 175.054688 209.921875 175.054688 209.921875 179.890625 "/>
<path style=" stroke:none;fill-rule:nonzero;fill:rgb(100%,84.3%,0%);fill-opacity:1;" d="M 253.402344 461.210938 C 253.402344 466.046875 246.148438 466.046875 246.148438 461.210938 C 246.148438 456.371094 253.402344 456.371094 253.402344 461.210938 "/>
<path style=" stroke:none;fill-rule:nonzero;fill:rgb(100%,84.3%,0%);fill-opacity:1;" d="M 210.027344 164.667969 C 210.027344 169.503906 202.769531 169.503906 202.769531 164.667969 C 202.769531 159.828125 210.027344 159.828125 210.027344 164.667969 "/>
<path style=" stroke:none;fill-rule:nonzero;fill:rgb(100%,84.3%,0%);fill-opacity:1;" d="M 209.921875 239.722656 C 209.921875 244.558594 202.667969 244.558594 202.667969 239.722656 C 202.667969 234.882812 209.921875 234.882812 209.921875 239.722656 "/>
<path style=" stroke:none;fill-rule:nonzero;fill:rgb(100%,84.3%,0%);fill-opacity:1;" d="M 216.773438 182.285156 C 216.773438 187.121094 209.519531 187.121094 209.519531 182.285156 C 209.519531 177.445312 216.773438 177.445312 216.773438 182.285156 "/>
<path style=" stroke:none;fill-rule:nonzero;fill:rgb(100%,84.3%,0%);fill-opacity:1;" d="M 308 175.511719 C 308 180.347656 300.742188 180.347656 300.742188 175.511719 C 300.742188 170.675781 308 170.675781 308 175.511719 "/>
<path style=" stroke:none;fill-rule:nonzero;fill:rgb(100%,84.3%,0%);fill-opacity:1;" d="M 309.332031 167.292969 C 309.332031 172.128906 302.078125 172.128906 302.078125 167.292969 C 302.078125 162.457031 309.332031 162.457031 309.332031 167.292969 "/>
<path style=" stroke:none;fill-rule:nonzero;fill:rgb(100%,84.3%,0%);fill-opacity:1;" d="M 209.921875 267.464844 C 209.921875 272.300781 202.667969 272.300781 202.667969 267.464844 C 202.667969 262.625 209.921875 262.625 209.921875 267.464844 "/>
<path style=" stroke:none;fill-rule:nonzero;fill:rgb(100%,84.3%,0%);fill-opacity:1;" d="M 210.097656 116.957031 C 210.097656 121.792969 202.839844 121.792969 202.839844 116.957031 C 202.839844 112.121094 210.097656 112.121094 210.097656 116.957031 "/>
<path style=" stroke:none;fill-rule:nonzero;fill:rgb(100%,84.3%,0%);fill-opacity:1;" d="M 217.140625 172.683594 C 217.140625 177.519531 209.882812 177.519531 209.882812 172.683594 C 209.882812 167.84375 217.140625 167.84375 217.140625 172.683594 "/>
<path style=" stroke:none;fill-rule:nonzero;fill:rgb(100%,84.3%,0%);fill-opacity:1;" d="M 210.273438 51.027344 C 210.273438 55.867188 203.015625 55.867188 203.015625 51.027344 C 203.015625 46.191406 210.273438 46.191406 210.273438 51.027344 "/>
<path style=" stroke:none;fill-rule:nonzero;fill:rgb(100%,84.3%,0%);fill-opacity:1;" d="M 273.132812 452.679688 C 273.132812 457.515625 265.875 457.515625 265.875 452.679688 C 265.875 447.839844 273.132812 447.839844 273.132812 452.679688 "/>
<path style=" stroke:none;fill-rule:nonzero;fill:rgb(100%,84.3%,0%);fill-opacity:1;" d="M 233.890625 462.039062 C 233.890625 466.878906 226.636719 466.878906 226.636719 462.039062 C 226.636719 457.203125 233.890625 457.203125 233.890625 462.039062 "/>
<path style=" stroke:none;fill-rule:nonzero;fill:rgb(100%,84.3%,0%);fill-opacity:1;" d="M 309.332031 146.167969 C 309.332031 151.007812 302.078125 151.007812 302.078125 146.167969 C 302.078125 141.332031 309.332031 141.332031 309.332031 146.167969 "/>
<path style=" stroke:none;fill-rule:nonzero;fill:rgb(100%,84.3%,0%);fill-opacity:1;" d="M 309.332031 432.351562 C 309.332031 437.1875 302.078125 437.1875 302.078125 432.351562 C 302.078125 427.511719 309.332031 427.511719 309.332031 432.351562 "/>
<path style=" stroke:none;fill-rule:nonzero;fill:rgb(100%,84.3%,0%);fill-opacity:1;" d="M 209.921875 150.15625 C 209.921875 154.992188 202.667969 154.992188 202.667969 150.15625 C 202.667969 145.320312 209.921875 145.320312 209.921875 150.15625 "/>
<path style=" stroke:none;fill-rule:nonzero;fill:rgb(100%,84.3%,0%);fill-opacity:1;" d="M 210.402344 126.738281 C 210.402344 131.578125 203.148438 131.578125 203.148438 126.738281 C 203.148438 121.902344 210.402344 121.902344 210.402344 126.738281 "/>
<path style=" stroke:none;fill-rule:nonzero;fill:rgb(100%,84.3%,0%);fill-opacity:1;" d="M 211.792969 448.042969 C 211.792969 452.878906 204.535156 452.878906 204.535156 448.042969 C 204.535156 443.203125 211.792969 443.203125 211.792969 448.042969 "/>
<path style=" stroke:none;fill-rule:nonzero;fill:rgb(100%,84.3%,0%);fill-opacity:1;" d="M 209.921875 76.035156 C 209.921875 80.875 202.667969 80.875 202.667969 76.035156 C 202.667969 71.199219 209.921875 71.199219 209.921875 76.035156 "/>
<path style=" stroke:none;fill-rule:nonzero;fill:rgb(100%,84.3%,0%);fill-opacity:1;" d="M 209.921875 91.433594 C 209.921875 96.269531 202.667969 96.269531 202.667969 91.433594 C 202.667969 86.59375 209.921875 86.59375 209.921875 91.433594 "/>
<path style=" stroke:none;fill-rule:nonzero;fill:rgb(100%,84.3%,0%);fill-opacity:1;" d="M 209.921875 58.277344 C 209.921875 63.113281 202.667969 63.113281 202.667969 58.277344 C 202.667969 53.441406 209.921875 53.441406 209.921875 58.277344 "/>
<path style=" stroke:none;fill-rule:nonzero;fill:rgb(100%,84.3%,0%);fill-opacity:1;" d="M 308.722656 392.179688 C 308.722656 397.015625 301.46875 397.015625 301.46875 392.179688 C 301.46875 387.339844 308.722656 387.339844 308.722656 392.179688 "/>
<path style=" stroke:none;fill-rule:nonzero;fill:rgb(100%,84.3%,0%);fill-opacity:1;" d="M 303.046875 134.628906 C 303.046875 139.46875 295.789062 139.46875 295.789062 134.628906 C 295.789062 129.792969 303.046875 129.792969 303.046875 134.628906 "/>
<path style=" stroke:none;fill-rule:nonzero;fill:rgb(100%,84.3%,0%);fill-opacity:1;" d="M 303.976562 335.3125 C 303.976562 340.152344 296.71875 340.152344 296.71875 335.3125 C 296.71875 330.476562 303.976562 330.476562 303.976562 335.3125 "/>
<path style=" stroke:none;fill-rule:nonzero;fill:rgb(100%,84.3%,0%);fill-opacity:1;" d="M 307.59375 454.820312 C 307.59375 459.65625 300.339844 459.65625 300.339844 454.820312 C 300.339844 449.984375 307.59375 449.984375 307.59375 454.820312 "/>
<path style=" stroke:none;fill-rule:nonzero;fill:rgb(100%,84.3%,0%);fill-opacity:1;" d="M 309.332031 295.273438 C 309.332031 300.113281 302.078125 300.113281 302.078125 295.273438 C 302.078125 290.4375 309.332031 290.4375 309.332031 295.273438 "/>
<path style=" stroke:none;fill-rule:nonzero;fill:rgb(100%,84.3%,0%);fill-opacity:1;" d="M 309.332031 370.433594 C 309.332031 375.269531 302.078125 375.269531 302.078125 370.433594 C 302.078125 365.59375 309.332031 365.59375 309.332031 370.433594 "/>
<path style=" stroke:none;fill-rule:nonzero;fill:rgb(100%,84.3%,0%);fill-opacity:1;" d="M 216.394531 191.277344 C 216.394531 196.113281 209.140625 196.113281 209.140625 191.277344 C 209.140625 186.441406 216.394531 186.441406 216.394531 191.277344 "/>
<path style=" stroke:none;fill-rule:nonzero;fill:rgb(100%,84.3%,0%);fill-opacity:1;" d="M 210.164062 142.902344 C 210.164062 147.742188 202.910156 147.742188 202.910156 142.902344 C 202.910156 138.066406 210.164062 138.066406 210.164062 142.902344 "/>
<path style=" stroke:none;fill-rule:nonzero;fill:rgb(100%,84.3%,0%);fill-opacity:1;" d="M 211.519531 415.078125 C 211.519531 419.917969 204.265625 419.917969 204.265625 415.078125 C 204.265625 410.242188 211.519531 410.242188 211.519531 415.078125 "/>
<path style=" stroke:none;fill-rule:nonzero;fill:rgb(100%,84.3%,0%);fill-opacity:1;" d="M 309.332031 319.132812 C 309.332031 323.96875 302.078125 323.96875 302.078125 319.132812 C 302.078125 314.292969 309.332031 314.292969 309.332031 319.132812 "/>
<path style=" stroke:none;fill-rule:nonzero;fill:rgb(100%,84.3%,0%);fill-opacity:1;" d="M 309.332031 462.078125 C 309.332031 466.914062 302.078125 466.914062 302.078125 462.078125 C 302.078125 457.238281 309.332031 457.238281 309.332031 462.078125 "/>
<path style=" stroke:none;fill-rule:nonzero;fill:rgb(100%,84.3%,0%);fill-opacity:1;" d="M 309.332031 97.609375 C 309.332031 102.445312 302.078125 102.445312 302.078125 97.609375 C 302.078125 92.773438 309.332031 92.773438 309.332031 97.609375 "/>
<path style=" stroke:none;fill-rule:nonzero;fill:rgb(100%,84.3%,0%);fill-opacity:1;" d="M 308.988281 408.140625 C 308.988281 412.976562 301.734375 412.976562 301.734375 408.140625 C 301.734375 403.304688 308.988281 403.304688 308.988281 408.140625 "/>
<path style=" stroke:none;fill-rule:nonzero;fill:rgb(100%,84.3%,0%);fill-opacity:1;" d="M 306.277344 288.691406 C 306.277344 293.53125 299.019531 293.53125 299.019531 288.691406 C 299.019531 283.855469 306.277344 283.855469 306.277344 288.691406 "/>
<path style=" stroke:none;fill-rule:nonzero;fill:rgb(100%,84.3%,0%);fill-opacity:1;" d="M 283.515625 439.351562 C 283.515625 444.1875 276.257812 444.1875 276.257812 439.351562 C 276.257812 434.511719 283.515625 434.511719 283.515625 439.351562 "/>
<path style=" stroke:none;fill-rule:nonzero;fill:rgb(100%,84.3%,0%);fill-opacity:1;" d="M 309.332031 439.753906 C 309.332031 444.59375 302.078125 444.59375 302.078125 439.753906 C 302.078125 434.917969 309.332031 434.917969 309.332031 439.753906 "/>
<path style=" stroke:none;fill-rule:nonzero;fill:rgb(100%,84.3%,0%);fill-opacity:1;" d="M 309.160156 347.464844 C 309.160156 352.300781 301.90625 352.300781 301.90625 347.464844 C 301.90625 342.625 309.160156 342.625 309.160156 347.464844 "/>
<path style=" stroke:none;fill-rule:nonzero;fill:rgb(100%,84.3%,0%);fill-opacity:1;" d="M 209.921875 462.078125 C 209.921875 466.914062 202.667969 466.914062 202.667969 462.078125 C 202.667969 457.238281 209.921875 457.238281 209.921875 462.078125 "/>
<path style=" stroke:none;fill-rule:nonzero;fill:rgb(100%,84.3%,0%);fill-opacity:1;" d="M 308.707031 416.269531 C 308.707031 421.109375 301.453125 421.109375 301.453125 416.269531 C 301.453125 411.433594 308.707031 411.433594 308.707031 416.269531 "/>
<path style=" stroke:none;fill-rule:nonzero;fill:rgb(100%,84.3%,0%);fill-opacity:1;" d="M 209.921875 98.8125 C 209.921875 103.652344 202.667969 103.652344 202.667969 98.8125 C 202.667969 93.976562 209.921875 93.976562 209.921875 98.8125 "/>
<path style=" stroke:none;fill-rule:nonzero;fill:rgb(100%,84.3%,0%);fill-opacity:1;" d="M 304.6875 324.707031 C 304.6875 329.542969 297.433594 329.542969 297.433594 324.707031 C 297.433594 319.871094 304.6875 319.871094 304.6875 324.707031 "/>
<path style=" stroke:none;fill-rule:nonzero;fill:rgb(100%,84.3%,0%);fill-opacity:1;" d="M 307.929688 399.390625 C 307.929688 404.226562 300.671875 404.226562 300.671875 399.390625 C 300.671875 394.550781 307.929688 394.550781 307.929688 399.390625 "/>
<path style=" stroke:none;fill-rule:nonzero;fill:rgb(100%,84.3%,0%);fill-opacity:1;" d="M 212.0625 274.558594 C 212.0625 279.394531 204.804688 279.394531 204.804688 274.558594 C 204.804688 269.71875 212.0625 269.71875 212.0625 274.558594 "/>
<path style=" stroke:none;fill-rule:nonzero;fill:rgb(100%,84.3%,0%);fill-opacity:1;" d="M 306.972656 160.433594 C 306.972656 165.269531 299.714844 165.269531 299.714844 160.433594 C 299.714844 155.59375 306.972656 155.59375 306.972656 160.433594 "/>
</g>
</svg>
