<?xml version="1.0" encoding="UTF-8"?>
<svg xmlns="http://www.w3.org/2000/svg" xmlns:xlink="http://www.w3.org/1999/xlink" width="512pt" height="512pt" viewBox="0 0 512 512" version="1.1">
<g id="surface41">
<path style=" stroke:none;fill-rule:nonzero;fill:rgb(26.7%,26.7%,26.7%);fill-opacity:1;" d="M 32 0 L 480 0 L 480 512 L 32 512 Z M 32 0 "/>
<path style=" stroke:none;fill-rule:nonzero;fill:rgb(19.2%,38.8%,66.7%);fill-opacity:1;" d="M 69.332031 42.667969 L 442.667969 42.667969 L 442.667969 469.332031 L 69.332031 469.332031 Z M 69.332031 42.667969 "/>
<path style=" stroke:none;fill-rule:nonzero;fill:rgb(100%,100%,100%);fill-opacity:1;" d="M 412.800781 8.53125 C 412.800781 14.425781 408.023438 19.199219 402.132812 19.199219 C 396.242188 19.199219 391.464844 14.425781 391.464844 8.53125 C 391.464844 2.640625 396.242188 -2.132812 402.132812 -2.132812 C 408.023438 -2.132812 412.800781 2.640625 412.800781 8.53125 "/>
<path style=" stroke:none;fill-rule:nonzero;fill:rgb(100%,100%,100%);fill-opacity:1;" d="M 459.734375 238.933594 C 459.734375 244.824219 454.957031 249.601562 449.066406 249.601562 C 443.175781 249.601562 438.398438 244.824219 438.398438 238.933594 C 438.398438 233.042969 443.175781 228.265625 449.066406 228.265625 C 454.957031 228.265625 459.734375 233.042969 459.734375 238.933594 "/>
<path style=" stroke:none;fill-rule:nonzero;fill:rgb(100%,100%,100%);fill-opacity:1;" d="M 468.265625 264.53125 C 468.265625 270.425781 463.492188 275.199219 457.601562 275.199219 C 451.707031 275.199219 446.933594 270.425781 446.933594 264.53125 C 446.933594 258.640625 451.707031 253.867188 457.601562 253.867188 C 463.492188 253.867188 468.265625 258.640625 468.265625 264.53125 "/>
<path style=" stroke:none;fill-rule:nonzero;fill:rgb(100%,100%,100%);fill-opacity:1;" d="M 242.132812 -8.53125 C 242.132812 -2.640625 237.359375 2.132812 231.46875 2.132812 C 225.574219 2.132812 220.800781 -2.640625 220.800781 -8.53125 C 220.800781 -14.425781 225.574219 -19.199219 231.46875 -19.199219 C 237.359375 -19.199219 242.132812 -14.425781 242.132812 -8.53125 "/>
<path style=" stroke:none;fill-rule:nonzero;fill:rgb(100%,100%,100%);fill-opacity:1;" d="M 35.199219 215.46875 C 35.199219 221.359375 30.425781 226.132812 24.53125 226.132812 C 18.640625 226.132812 13.867188 221.359375 13.867188 215.46875 C 13.867188 209.574219 18.640625 204.800781 24.53125 204.800781 C 30.425781 204.800781 35.199219 209.574219 35.199219 215.46875 "/>
<path style=" stroke:none;fill-rule:nonzero;fill:rgb(100%,100%,100%);fill-opacity:1;" d="M 500.265625 46.933594 C 500.265625 52.824219 495.492188 57.601562 489.601562 57.601562 C 483.707031 57.601562 478.933594 52.824219 478.933594 46.933594 C 478.933594 41.042969 483.707031 36.265625 489.601562 36.265625 C 495.492188 36.265625 500.265625 41.042969 500.265625 46.933594 "/>
<path style=" stroke:none;fill-rule:nonzero;fill:rgb(100%,100%,100%);fill-opacity:1;" d="M 478.933594 12.800781 C 478.933594 18.691406 474.15625 23.464844 468.265625 23.464844 C 462.375 23.464844 457.601562 18.691406 457.601562 12.800781 C 457.601562 6.910156 462.375 2.132812 468.265625 2.132812 C 474.15625 2.132812 478.933594 6.910156 478.933594 12.800781 "/>
<path style=" stroke:none;fill-rule:nonzero;fill:rgb(100%,100%,100%);fill-opacity:1;" d="M 137.601562 19.199219 C 137.601562 25.089844 132.824219 29.867188 126.933594 29.867188 C 121.042969 29.867188 116.265625 25.089844 116.265625 19.199219 C 116.265625 13.308594 121.042969 8.535156 126.933594 8.535156 C 132.824219 8.535156 137.601562 13.308594 137.601562 19.199219 "/>
<path style=" stroke:none;fill-rule:nonzero;fill:rgb(100%,100%,100%);fill-opacity:1;" d="M 37.332031 6.398438 C 37.332031 12.292969 32.558594 17.066406 26.667969 17.066406 C 20.777344 17.066406 16 12.292969 16 6.398438 C 16 0.507812 20.777344 -4.265625 26.667969 -4.265625 C 32.558594 -4.265625 37.332031 0.507812 37.332031 6.398438 "/>
<path style=" stroke:none;fill-rule:nonzero;fill:rgb(100%,100%,100%);fill-opacity:1;" d="M 69.332031 260.265625 C 69.332031 266.15625 64.558594 270.933594 58.667969 270.933594 C 52.777344 270.933594 48 266.15625 48 260.265625 C 48 254.375 52.777344 249.601562 58.667969 249.601562 C 64.558594 249.601562 69.332031 254.375 69.332031 260.265625 "/>
<path style=" stroke:none;fill-rule:nonzero;fill:rgb(100%,100%,100%);fill-opacity:1;" d="M 82.132812 8.53125 C 82.132812 14.425781 77.359375 19.199219 71.46875 19.199219 C 65.574219 19.199219 60.800781 14.425781 60.800781 8.53125 C 60.800781 2.640625 65.574219 -2.132812 71.46875 -2.132812 C 77.359375 -2.132812 82.132812 2.640625 82.132812 8.53125 "/>
<path style=" stroke:none;fill-rule:nonzero;fill:rgb(100%,100%,100%);fill-opacity:1;" d="M 468.265625 437.332031 C 468.265625 443.222656 463.492188 448 457.601562 448 C 451.707031 448 446.933594 443.222656 446.933594 437.332031 C 446.933594 431.441406 451.707031 426.667969 457.601562 426.667969 C 463.492188 426.667969 468.265625 431.441406 468.265625 437.332031 "/>
<path style=" stroke:none;fill-rule:nonzero;fill:rgb(100%,100%,100%);fill-opacity:1;" d="M 498.132812 326.398438 C 498.132812 332.292969 493.359375 337.066406 487.46875 337.066406 C 481.574219 337.066406 476.800781 332.292969 476.800781 326.398438 C 476.800781 320.507812 481.574219 315.734375 487.46875 315.734375 C 493.359375 315.734375 498.132812 320.507812 498.132812 326.398438 "/>
<path style=" stroke:none;fill-rule:nonzero;fill:rgb(100%,100%,100%);fill-opacity:1;" d="M 461.867188 326.398438 C 461.867188 332.292969 457.089844 337.066406 451.199219 337.066406 C 445.308594 337.066406 440.535156 332.292969 440.535156 326.398438 C 440.535156 320.507812 445.308594 315.734375 451.199219 315.734375 C 457.089844 315.734375 461.867188 320.507812 461.867188 326.398438 "/>
<path style=" stroke:none;fill-rule:nonzero;fill:rgb(100%,100%,100%);fill-opacity:1;" d="M 485.332031 -2.132812 C 485.332031 3.757812 480.558594 8.535156 474.667969 8.535156 C 468.777344 8.535156 464 3.757812 464 -2.132812 C 464 -8.023438 468.777344 -12.800781 474.667969 -12.800781 C 480.558594 -12.800781 485.332031 -8.023438 485.332031 -2.132812 "/>
<path style=" stroke:none;fill-rule:nonzero;fill:rgb(100%,84.3%,0%);fill-opacity:1;" d="M 138.296875 423.261719 C 138.296875 429.152344 133.523438 433.929688 127.632812 433.929688 C 121.738281 433.929688 116.964844 429.152344 116.964844 423.261719 C 116.964844 417.371094 121.738281 412.59375 127.632812 412.59375 C 133.523438 412.59375 138.296875 417.371094 138.296875 423.261719 "/>
<path style=" stroke:none;fill-rule:nonzero;fill:rgb(100%,84.3%,0%);fill-opacity:1;" d="M 146.792969 238.589844 C 146.792969 244.480469 142.019531 249.253906 136.128906 249.253906 C 130.234375 249.253906 125.460938 244.480469 125.460938 238.589844 C 125.460938 232.695312 130.234375 227.921875 136.128906 227.921875 C 142.019531 227.921875 146.792969 232.695312 146.792969 238.589844 "/>
<path style=" stroke:none;fill-rule:nonzero;fill:rgb(100%,84.3%,0%);fill-opacity:1;" d="M 390.511719 385.894531 C 390.511719 391.785156 385.738281 396.558594 379.847656 396.558594 C 373.957031 396.558594 369.179688 391.785156 369.179688 385.894531 C 369.179688 380.003906 373.957031 375.226562 379.847656 375.226562 C 385.738281 375.226562 390.511719 380.003906 390.511719 385.894531 "/>
<path style=" stroke:none;fill-rule:nonzero;fill:rgb(100%,84.3%,0%);fill-opacity:1;" d="M 101.332031 148.9375 C 101.332031 154.828125 96.558594 159.605469 90.667969 159.605469 C 84.777344 159.605469 80 154.828125 80 148.9375 C 80 143.046875 84.777344 138.269531 90.667969 138.269531 C 96.558594 138.269531 101.332031 143.046875 101.332031 148.9375 "/>
<path style=" stroke:none;fill-rule:nonzero;fill:rgb(100%,84.3%,0%);fill-opacity:1;" d="M 101.382812 176.296875 C 101.382812 182.1875 96.605469 186.964844 90.714844 186.964844 C 84.824219 186.964844 80.046875 182.1875 80.046875 176.296875 C 80.046875 170.40625 84.824219 165.628906 90.714844 165.628906 C 96.605469 165.628906 101.382812 170.40625 101.382812 176.296875 "/>
<path style=" stroke:none;fill-rule:nonzero;fill:rgb(100%,84.3%,0%);fill-opacity:1;" d="M 163.15625 448 C 163.15625 453.890625 158.382812 458.667969 152.492188 458.667969 C 146.601562 458.667969 141.824219 453.890625 141.824219 448 C 141.824219 442.109375 146.601562 437.332031 152.492188 437.332031 C 158.382812 437.332031 163.15625 442.109375 163.15625 448 "/>
<path style=" stroke:none;fill-rule:nonzero;fill:rgb(100%,84.3%,0%);fill-opacity:1;" d="M 338.953125 64.402344 C 338.953125 70.292969 334.175781 75.070312 328.285156 75.070312 C 322.394531 75.070312 317.617188 70.292969 317.617188 64.402344 C 317.617188 58.511719 322.394531 53.738281 328.285156 53.738281 C 334.175781 53.738281 338.953125 58.511719 338.953125 64.402344 "/>
<path style=" stroke:none;fill-rule:nonzero;fill:rgb(100%,84.3%,0%);fill-opacity:1;" d="M 192.523438 64 C 192.523438 69.890625 187.746094 74.667969 181.855469 74.667969 C 175.964844 74.667969 171.191406 69.890625 171.191406 64 C 171.191406 58.109375 175.964844 53.332031 181.855469 53.332031 C 187.746094 53.332031 192.523438 58.109375 192.523438 64 "/>
<path style=" stroke:none;fill-rule:nonzero;fill:rgb(100%,84.3%,0%);fill-opacity:1;" d="M 282.578125 438.050781 C 282.578125 443.941406 277.800781 448.714844 271.910156 448.714844 C 266.019531 448.714844 261.242188 443.941406 261.242188 438.050781 C 261.242188 432.15625 266.019531 427.382812 271.910156 427.382812 C 277.800781 427.382812 282.578125 432.15625 282.578125 438.050781 "/>
<path style=" stroke:none;fill-rule:nonzero;fill:rgb(100%,84.3%,0%);fill-opacity:1;" d="M 222.167969 66.253906 C 222.167969 72.144531 217.390625 76.921875 211.5 76.921875 C 205.609375 76.921875 200.832031 72.144531 200.832031 66.253906 C 200.832031 60.363281 205.609375 55.589844 211.5 55.589844 C 217.390625 55.589844 222.167969 60.363281 222.167969 66.253906 "/>
<path style=" stroke:none;fill-rule:nonzero;fill:rgb(100%,84.3%,0%);fill-opacity:1;" d="M 104.148438 305.257812 C 104.148438 311.148438 99.375 315.921875 93.484375 315.921875 C 87.59375 315.921875 82.816406 311.148438 82.816406 305.257812 C 82.816406 299.363281 87.59375 294.589844 93.484375 294.589844 C 99.375 294.589844 104.148438 299.363281 104.148438 305.257812 "/>
<path style=" stroke:none;fill-rule:nonzero;fill:rgb(100%,84.3%,0%);fill-opacity:1;" d="M 410.683594 294.921875 C 410.683594 300.8125 405.90625 305.589844 400.015625 305.589844 C 394.125 305.589844 389.347656 300.8125 389.347656 294.921875 C 389.347656 289.03125 394.125 284.257812 400.015625 284.257812 C 405.90625 284.257812 410.683594 289.03125 410.683594 294.921875 "/>
<path style=" stroke:none;fill-rule:nonzero;fill:rgb(100%,84.3%,0%);fill-opacity:1;" d="M 171.210938 67.988281 C 171.210938 73.878906 166.4375 78.652344 160.546875 78.652344 C 154.65625 78.652344 149.878906 73.878906 149.878906 67.988281 C 149.878906 62.097656 154.65625 57.320312 160.546875 57.320312 C 166.4375 57.320312 171.210938 62.097656 171.210938 67.988281 "/>
<path style=" stroke:none;fill-rule:nonzero;fill:rgb(100%,84.3%,0%);fill-opacity:1;" d="M 422.359375 163.253906 C 422.359375 169.144531 417.585938 173.917969 411.691406 173.917969 C 405.800781 173.917969 401.027344 169.144531 401.027344 163.253906 C 401.027344 157.359375 405.800781 152.585938 411.691406 152.585938 C 417.585938 152.585938 422.359375 157.359375 422.359375 163.253906 "/>
<path style=" stroke:none;fill-rule:nonzero;fill:rgb(100%,84.3%,0%);fill-opacity:1;" d="M 224.238281 447.972656 C 224.238281 453.863281 219.464844 458.640625 213.570312 458.640625 C 207.679688 458.640625 202.90625 453.863281 202.90625 447.972656 C 202.90625 442.082031 207.679688 437.304688 213.570312 437.304688 C 219.464844 437.304688 224.238281 442.082031 224.238281 447.972656 "/>
<path style=" stroke:none;fill-rule:nonzero;fill:rgb(100%,84.3%,0%);fill-opacity:1;" d="M 141.929688 445.882812 C 141.929688 451.773438 137.152344 456.546875 131.261719 456.546875 C 125.371094 456.546875 120.597656 451.773438 120.597656 445.882812 C 120.597656 439.988281 125.371094 435.214844 131.261719 435.214844 C 137.152344 435.214844 141.929688 439.988281 141.929688 445.882812 "/>
<path style=" stroke:none;fill-rule:nonzero;fill:rgb(100%,84.3%,0%);fill-opacity:1;" d="M 432 64 C 432 69.890625 427.222656 74.667969 421.332031 74.667969 C 415.441406 74.667969 410.667969 69.890625 410.667969 64 C 410.667969 58.109375 415.441406 53.332031 421.332031 53.332031 C 427.222656 53.332031 432 58.109375 432 64 "/>
<path style=" stroke:none;fill-rule:nonzero;fill:rgb(100%,84.3%,0%);fill-opacity:1;" d="M 432 295.738281 C 432 301.628906 427.222656 306.402344 421.332031 306.402344 C 415.441406 306.402344 410.667969 301.628906 410.667969 295.738281 C 410.667969 289.847656 415.441406 285.070312 421.332031 285.070312 C 427.222656 285.070312 432 289.847656 432 295.738281 "/>
<path style=" stroke:none;fill-rule:nonzero;fill:rgb(100%,84.3%,0%);fill-opacity:1;" d="M 432 317.085938 C 432 322.976562 427.222656 327.753906 421.332031 327.753906 C 415.441406 327.753906 410.667969 322.976562 410.667969 317.085938 C 410.667969 311.195312 415.441406 306.417969 421.332031 306.417969 C 427.222656 306.417969 432 311.195312 432 317.085938 "/>
<path style=" stroke:none;fill-rule:nonzero;fill:rgb(100%,84.3%,0%);fill-opacity:1;" d="M 139.84375 82.828125 C 139.84375 88.71875 135.070312 93.496094 129.179688 93.496094 C 123.285156 93.496094 118.511719 88.71875 118.511719 82.828125 C 118.511719 76.9375 123.285156 72.160156 129.179688 72.160156 C 135.070312 72.160156 139.84375 76.9375 139.84375 82.828125 "/>
<path style=" stroke:none;fill-rule:nonzero;fill:rgb(100%,84.3%,0%);fill-opacity:1;" d="M 240.351562 433.339844 C 240.351562 439.230469 235.578125 444.007812 229.6875 444.007812 C 223.796875 444.007812 219.019531 439.230469 219.019531 433.339844 C 219.019531 427.449219 223.796875 422.675781 229.6875 422.675781 C 235.578125 422.675781 240.351562 427.449219 240.351562 433.339844 "/>
<path style=" stroke:none;fill-rule:nonzero;fill:rgb(100%,84.3%,0%);fill-opacity:1;" d="M 101.332031 284.109375 C 101.332031 290 96.558594 294.777344 90.667969 294.777344 C 84.777344 294.777344 80 290 80 284.109375 C 80 278.21875 84.777344 273.441406 90.667969 273.441406 C 96.558594 273.441406 101.332031 278.21875 101.332031 284.109375 "/>
<path style=" stroke:none;fill-rule:nonzero;fill:rgb(100%,84.3%,0%);fill-opacity:1;" d="M 432 249.644531 C 432 255.535156 427.222656 260.3125 421.332031 260.3125 C 415.441406 260.3125 410.667969 255.535156 410.667969 249.644531 C 410.667969 243.753906 415.441406 238.980469 421.332031 238.980469 C 427.222656 238.980469 432 243.753906 432 249.644531 "/>
<path style=" stroke:none;fill-rule:nonzero;fill:rgb(100%,84.3%,0%);fill-opacity:1;" d="M 101.332031 219.125 C 101.332031 225.015625 96.558594 229.789062 90.667969 229.789062 C 84.777344 229.789062 80 225.015625 80 219.125 C 80 213.234375 84.777344 208.457031 90.667969 208.457031 C 96.558594 208.457031 101.332031 213.234375 101.332031 219.125 "/>
<path style=" stroke:none;fill-rule:nonzero;fill:rgb(100%,84.3%,0%);fill-opacity:1;" d="M 406.738281 64 C 406.738281 69.890625 401.960938 74.667969 396.070312 74.667969 C 390.179688 74.667969 385.402344 69.890625 385.402344 64 C 385.402344 58.109375 390.179688 53.332031 396.070312 53.332031 C 401.960938 53.332031 406.738281 58.109375 406.738281 64 "/>
<path style=" stroke:none;fill-rule:nonzero;fill:rgb(100%,84.3%,0%);fill-opacity:1;" d="M 101.332031 240.457031 C 101.332031 246.347656 96.558594 251.125 90.667969 251.125 C 84.777344 251.125 80 246.347656 80 240.457031 C 80 234.566406 84.777344 229.789062 90.667969 229.789062 C 96.558594 229.789062 101.332031 234.566406 101.332031 240.457031 "/>
<path style=" stroke:none;fill-rule:nonzero;fill:rgb(100%,84.3%,0%);fill-opacity:1;" d="M 263.628906 448 C 263.628906 453.890625 258.855469 458.667969 252.964844 458.667969 C 247.074219 458.667969 242.296875 453.890625 242.296875 448 C 242.296875 442.109375 247.074219 437.332031 252.964844 437.332031 C 258.855469 437.332031 263.628906 442.109375 263.628906 448 "/>
<path style=" stroke:none;fill-rule:nonzero;fill:rgb(100%,84.3%,0%);fill-opacity:1;" d="M 430.914062 206.832031 C 430.914062 212.722656 426.140625 217.496094 420.246094 217.496094 C 414.355469 217.496094 409.582031 212.722656 409.582031 206.832031 C 409.582031 200.941406 414.355469 196.164062 420.246094 196.164062 C 426.140625 196.164062 430.914062 200.941406 430.914062 206.832031 "/>
<path style=" stroke:none;fill-rule:nonzero;fill:rgb(100%,84.3%,0%);fill-opacity:1;" d="M 107.089844 64.046875 C 107.089844 69.9375 102.3125 74.710938 96.421875 74.710938 C 90.53125 74.710938 85.753906 69.9375 85.753906 64.046875 C 85.753906 58.152344 90.53125 53.378906 96.421875 53.378906 C 102.3125 53.378906 107.089844 58.152344 107.089844 64.046875 "/>
<path style=" stroke:none;fill-rule:nonzero;fill:rgb(100%,84.3%,0%);fill-opacity:1;" d="M 432 338.863281 C 432 344.753906 427.222656 349.527344 421.332031 349.527344 C 415.441406 349.527344 410.667969 344.753906 410.667969 338.863281 C 410.667969 332.972656 415.441406 328.195312 421.332031 328.195312 C 427.222656 328.195312 432 332.972656 432 338.863281 "/>
<path style=" stroke:none;fill-rule:nonzero;fill:rgb(100%,84.3%,0%);fill-opacity:1;" d="M 413.476562 238.71875 C 413.476562 244.609375 408.699219 249.386719 402.808594 249.386719 C 396.917969 249.386719 392.140625 244.609375 392.140625 238.71875 C 392.140625 232.828125 396.917969 228.050781 402.808594 228.050781 C 408.699219 228.050781 413.476562 232.828125 413.476562 238.71875 "/>
<path style=" stroke:none;fill-rule:nonzero;fill:rgb(100%,84.3%,0%);fill-opacity:1;" d="M 432 228.136719 C 432 234.027344 427.222656 238.804688 421.332031 238.804688 C 415.441406 238.804688 410.667969 234.027344 410.667969 228.136719 C 410.667969 222.246094 415.441406 217.46875 421.332031 217.46875 C 427.222656 217.46875 432 222.246094 432 228.136719 "/>
<path style=" stroke:none;fill-rule:nonzero;fill:rgb(100%,84.3%,0%);fill-opacity:1;" d="M 413.285156 328.617188 C 413.285156 334.511719 408.511719 339.285156 402.621094 339.285156 C 396.730469 339.285156 391.953125 334.511719 391.953125 328.617188 C 391.953125 322.726562 396.730469 317.953125 402.621094 317.953125 C 408.511719 317.953125 413.285156 322.726562 413.285156 328.617188 "/>
<path style=" stroke:none;fill-rule:nonzero;fill:rgb(100%,84.3%,0%);fill-opacity:1;" d="M 432 183.199219 C 432 189.09375 427.222656 193.867188 421.332031 193.867188 C 415.441406 193.867188 410.667969 189.09375 410.667969 183.199219 C 410.667969 177.308594 415.441406 172.535156 421.332031 172.535156 C 427.222656 172.535156 432 177.308594 432 183.199219 "/>
<path style=" stroke:none;fill-rule:nonzero;fill:rgb(100%,84.3%,0%);fill-opacity:1;" d="M 128.421875 64 C 128.421875 69.890625 123.644531 74.667969 117.753906 74.667969 C 111.863281 74.667969 107.089844 69.890625 107.089844 64 C 107.089844 58.109375 111.863281 53.332031 117.753906 53.332031 C 123.644531 53.332031 128.421875 58.109375 128.421875 64 "/>
<path style=" stroke:none;fill-rule:nonzero;fill:rgb(100%,84.3%,0%);fill-opacity:1;" d="M 430.910156 272.1875 C 430.910156 278.078125 426.136719 282.851562 420.246094 282.851562 C 414.355469 282.851562 409.578125 278.078125 409.578125 272.1875 C 409.578125 266.296875 414.355469 261.519531 420.246094 261.519531 C 426.136719 261.519531 430.910156 266.296875 430.910156 272.1875 "/>
<path style=" stroke:none;fill-rule:nonzero;fill:rgb(100%,84.3%,0%);fill-opacity:1;" d="M 432 447.96875 C 432 453.859375 427.222656 458.636719 421.332031 458.636719 C 415.441406 458.636719 410.667969 453.859375 410.667969 447.96875 C 410.667969 442.078125 415.441406 437.304688 421.332031 437.304688 C 427.222656 437.304688 432 442.078125 432 447.96875 "/>
<path style=" stroke:none;fill-rule:nonzero;fill:rgb(100%,84.3%,0%);fill-opacity:1;" d="M 363.703125 64 C 363.703125 69.890625 358.929688 74.667969 353.039062 74.667969 C 347.148438 74.667969 342.371094 69.890625 342.371094 64 C 342.371094 58.109375 347.148438 53.332031 353.039062 53.332031 C 358.929688 53.332031 363.703125 58.109375 363.703125 64 "/>
<path style=" stroke:none;fill-rule:nonzero;fill:rgb(100%,84.3%,0%);fill-opacity:1;" d="M 149.875 64 C 149.875 69.890625 145.101562 74.667969 139.210938 74.667969 C 133.316406 74.667969 128.542969 69.890625 128.542969 64 C 128.542969 58.109375 133.316406 53.332031 139.210938 53.332031 C 145.101562 53.332031 149.875 58.109375 149.875 64 "/>
<path style=" stroke:none;fill-rule:nonzero;fill:rgb(100%,84.3%,0%);fill-opacity:1;" d="M 101.332031 197.628906 C 101.332031 203.519531 96.558594 208.296875 90.667969 208.296875 C 84.777344 208.296875 80 203.519531 80 197.628906 C 80 191.738281 84.777344 186.964844 90.667969 186.964844 C 96.558594 186.964844 101.332031 191.738281 101.332031 197.628906 "/>
<path style=" stroke:none;fill-rule:nonzero;fill:rgb(100%,84.3%,0%);fill-opacity:1;" d="M 431.582031 108.507812 C 431.582031 114.398438 426.808594 119.171875 420.917969 119.171875 C 415.027344 119.171875 410.25 114.398438 410.25 108.507812 C 410.25 102.613281 415.027344 97.839844 420.917969 97.839844 C 426.808594 97.839844 431.582031 102.613281 431.582031 108.507812 "/>
<path style=" stroke:none;fill-rule:nonzero;fill:rgb(100%,84.3%,0%);fill-opacity:1;" d="M 206.710938 434.640625 C 206.710938 440.53125 201.933594 445.304688 196.042969 445.304688 C 190.152344 445.304688 185.375 440.53125 185.375 434.640625 C 185.375 428.746094 190.152344 423.972656 196.042969 423.972656 C 201.933594 423.972656 206.710938 428.746094 206.710938 434.640625 "/>
<path style=" stroke:none;fill-rule:nonzero;fill:rgb(100%,84.3%,0%);fill-opacity:1;" d="M 432 360.195312 C 432 366.085938 427.222656 370.863281 421.332031 370.863281 C 415.441406 370.863281 410.667969 366.085938 410.667969 360.195312 C 410.667969 354.304688 415.441406 349.53125 421.332031 349.53125 C 427.222656 349.53125 432 354.304688 432 360.195312 "/>
<path style=" stroke:none;fill-rule:nonzero;fill:rgb(100%,84.3%,0%);fill-opacity:1;" d="M 121.859375 246.265625 C 121.859375 252.15625 117.085938 256.933594 111.195312 256.933594 C 105.304688 256.933594 100.527344 252.15625 100.527344 246.265625 C 100.527344 240.375 105.304688 235.597656 111.195312 235.597656 C 117.085938 235.597656 121.859375 240.375 121.859375 246.265625 "/>
<path style=" stroke:none;fill-rule:nonzero;fill:rgb(100%,84.3%,0%);fill-opacity:1;" d="M 431.984375 385.242188 C 431.984375 391.132812 427.207031 395.90625 421.316406 395.90625 C 415.425781 395.90625 410.648438 391.132812 410.648438 385.242188 C 410.648438 379.351562 415.425781 374.574219 421.316406 374.574219 C 427.207031 374.574219 431.984375 379.351562 431.984375 385.242188 "/>
<path style=" stroke:none;fill-rule:nonzero;fill:rgb(100%,84.3%,0%);fill-opacity:1;" d="M 257.164062 88.992188 C 257.164062 94.882812 252.390625 99.660156 246.5 99.660156 C 240.609375 99.660156 235.832031 94.882812 235.832031 88.992188 C 235.832031 83.101562 240.609375 78.328125 246.5 78.328125 C 252.390625 78.328125 257.164062 83.101562 257.164062 88.992188 "/>
<path style=" stroke:none;fill-rule:nonzero;fill:rgb(100%,84.3%,0%);fill-opacity:1;" d="M 302.097656 429.445312 C 302.097656 435.335938 297.320312 440.113281 291.429688 440.113281 C 285.539062 440.113281 280.765625 435.335938 280.765625 429.445312 C 280.765625 423.554688 285.539062 418.777344 291.429688 418.777344 C 297.320312 418.777344 302.097656 423.554688 302.097656 429.445312 "/>
<path style=" stroke:none;fill-rule:nonzero;fill:rgb(100%,84.3%,0%);fill-opacity:1;" d="M 101.332031 262.777344 C 101.332031 268.667969 96.558594 273.441406 90.667969 273.441406 C 84.777344 273.441406 80 268.667969 80 262.777344 C 80 256.886719 84.777344 252.109375 90.667969 252.109375 C 96.558594 252.109375 101.332031 256.886719 101.332031 262.777344 "/>
<path style=" stroke:none;fill-rule:nonzero;fill:rgb(100%,84.3%,0%);fill-opacity:1;" d="M 425.125 405.652344 C 425.125 411.542969 420.351562 416.320312 414.460938 416.320312 C 408.566406 416.320312 403.792969 411.542969 403.792969 405.652344 C 403.792969 399.761719 408.566406 394.988281 414.460938 394.988281 C 420.351562 394.988281 425.125 399.761719 425.125 405.652344 "/>
<path style=" stroke:none;fill-rule:nonzero;fill:rgb(100%,84.3%,0%);fill-opacity:1;" d="M 413.367188 260.050781 C 413.367188 265.941406 408.589844 270.71875 402.699219 270.71875 C 396.808594 270.71875 392.03125 265.941406 392.03125 260.050781 C 392.03125 254.160156 396.808594 249.386719 402.699219 249.386719 C 408.589844 249.386719 413.367188 254.160156 413.367188 260.050781 "/>
<path style=" stroke:none;fill-rule:nonzero;fill:rgb(100%,84.3%,0%);fill-opacity:1;" d="M 185.855469 448 C 185.855469 453.890625 181.082031 458.667969 175.191406 458.667969 C 169.300781 458.667969 164.523438 453.890625 164.523438 448 C 164.523438 442.109375 169.300781 437.332031 175.191406 437.332031 C 181.082031 437.332031 185.855469 442.109375 185.855469 448 "/>
<path style=" stroke:none;fill-rule:nonzero;fill:rgb(100%,84.3%,0%);fill-opacity:1;" d="M 120.839844 206.261719 C 120.839844 212.152344 116.066406 216.929688 110.175781 216.929688 C 104.285156 216.929688 99.507812 212.152344 99.507812 206.261719 C 99.507812 200.371094 104.285156 195.597656 110.175781 195.597656 C 116.066406 195.597656 120.839844 200.371094 120.839844 206.261719 "/>
<path style=" stroke:none;fill-rule:nonzero;fill:rgb(100%,84.3%,0%);fill-opacity:1;" d="M 385.402344 64 C 385.402344 69.890625 380.628906 74.667969 374.738281 74.667969 C 368.847656 74.667969 364.070312 69.890625 364.070312 64 C 364.070312 58.109375 368.847656 53.332031 374.738281 53.332031 C 380.628906 53.332031 385.402344 58.109375 385.402344 64 "/>
<path style=" stroke:none;fill-rule:nonzero;fill:rgb(100%,84.3%,0%);fill-opacity:1;" d="M 429.605469 87.234375 C 429.605469 93.125 424.828125 97.902344 418.9375 97.902344 C 413.046875 97.902344 408.269531 93.125 408.269531 87.234375 C 408.269531 81.34375 413.046875 76.566406 418.9375 76.566406 C 424.828125 76.566406 429.605469 81.34375 429.605469 87.234375 "/>
<path style=" stroke:none;fill-rule:nonzero;fill:rgb(100%,84.3%,0%);fill-opacity:1;" d="M 431.867188 425.894531 C 431.867188 431.785156 427.089844 436.5625 421.199219 436.5625 C 415.308594 436.5625 410.535156 431.785156 410.535156 425.894531 C 410.535156 420.003906 415.308594 415.226562 421.199219 415.226562 C 427.089844 415.226562 431.867188 420.003906 431.867188 425.894531 "/>
<path style=" stroke:none;fill-rule:nonzero;fill:rgb(100%,84.3%,0%);fill-opacity:1;" d="M 101.738281 87.003906 C 101.738281 92.894531 96.964844 97.671875 91.070312 97.671875 C 85.179688 97.671875 80.40625 92.894531 80.40625 87.003906 C 80.40625 81.113281 85.179688 76.339844 91.070312 76.339844 C 96.964844 76.339844 101.738281 81.113281 101.738281 87.003906 "/>
</g>
</svg>
