<?xml version="1.0" encoding="UTF-8"?>
<svg xmlns="http://www.w3.org/2000/svg" xmlns:xlink="http://www.w3.org/1999/xlink" width="512pt" height="512pt" viewBox="0 0 512 512" version="1.1">
<g id="surface41">
<rect x="0" y="0" width="512" height="512" style="fill:rgb(26.7%,26.7%,26.7%);fill-opacity:1;stroke:none;"/>
<path style=" stroke:none;fill-rule:nonzero;fill:rgb(19.2%,38.8%,66.7%);fill-opacity:1;" d="M 37.332031 42.667969 L 410.667969 42.667969 L 410.667969 469.332031 L 37.332031 469.332031 Z M 37.332031 42.667969 "/>
<path style=" stroke:none;fill-rule:nonzero;fill:rgb(100%,100%,100%);fill-opacity:1;" d="M 380.800781 8.53125 C 380.800781 14.425781 376.023438 19.199219 370.132812 19.199219 C 364.242188 19.199219 359.464844 14.425781 359.464844 8.53125 C 359.464844 2.640625 364.242188 -2.132812 370.132812 -2.132812 C 376.023438 -2.132812 380.800781 2.640625 380.800781 8.53125 "/>
<path style=" stroke:none;fill-rule:nonzero;fill:rgb(100%,100%,100%);fill-opacity:1;" d="M 504.535156 375.46875 C 504.535156 381.359375 499.757812 386.132812 493.867188 386.132812 C 487.976562 386.132812 483.199219 381.359375 483.199219 375.46875 C 483.199219 369.574219 487.976562 364.800781 493.867188 364.800781 C 499.757812 364.800781 504.535156 369.574219 504.535156 375.46875 "/>
<path style=" stroke:none;fill-rule:nonzero;fill:rgb(100%,100%,100%);fill-opacity:1;" d="M 427.734375 238.933594 C 427.734375 244.824219 422.957031 249.601562 417.066406 249.601562 C 411.175781 249.601562 406.398438 244.824219 406.398438 238.933594 C 406.398438 233.042969 411.175781 228.265625 417.066406 228.265625 C 422.957031 228.265625 427.734375 233.042969 427.734375 238.933594 "/>
<path style=" stroke:none;fill-rule:nonzero;fill:rgb(100%,100%,100%);fill-opacity:1;" d="M 436.265625 264.53125 C 436.265625 270.425781 431.492188 275.199219 425.601562 275.199219 C 419.707031 275.199219 414.933594 270.425781 414.933594 264.53125 C 414.933594 258.640625 419.707031 253.867188 425.601562 253.867188 C 431.492188 253.867188 436.265625 258.640625 436.265625 264.53125 "/>
<path style=" stroke:none;fill-rule:nonzero;fill:rgb(100%,100%,100%);fill-opacity:1;" d="M 210.132812 -8.53125 C 210.132812 -2.640625 205.359375 2.132812 199.46875 2.132812 C 193.574219 2.132812 188.800781 -2.640625 188.800781 -8.53125 C 188.800781 -14.425781 193.574219 -19.199219 199.46875 -19.199219 C 205.359375 -19.199219 210.132812 -14.425781 210.132812 -8.53125 "/>
<path style=" stroke:none;fill-rule:nonzero;fill:rgb(100%,100%,100%);fill-opacity:1;" d="M 3.199219 215.46875 C 3.199219 221.359375 -1.574219 226.132812 -7.46875 226.132812 C -13.359375 226.132812 -18.132812 221.359375 -18.132812 215.46875 C -18.132812 209.574219 -13.359375 204.800781 -7.46875 204.800781 C -1.574219 204.800781 3.199219 209.574219 3.199219 215.46875 "/>
<path style=" stroke:none;fill-rule:nonzero;fill:rgb(100%,100%,100%);fill-opacity:1;" d="M 468.265625 46.933594 C 468.265625 52.824219 463.492188 57.601562 457.601562 57.601562 C 451.707031 57.601562 446.933594 52.824219 446.933594 46.933594 C 446.933594 41.042969 451.707031 36.265625 457.601562 36.265625 C 463.492188 36.265625 468.265625 41.042969 468.265625 46.933594 "/>
<path style=" stroke:none;fill-rule:nonzero;fill:rgb(100%,100%,100%);fill-opacity:1;" d="M 446.933594 12.800781 C 446.933594 18.691406 442.15625 23.464844 436.265625 23.464844 C 430.375 23.464844 425.601562 18.691406 425.601562 12.800781 C 425.601562 6.910156 430.375 2.132812 436.265625 2.132812 C 442.15625 2.132812 446.933594 6.910156 446.933594 12.800781 "/>
<path style=" stroke:none;fill-rule:nonzero;fill:rgb(100%,100%,100%);fill-opacity:1;" d="M 105.601562 19.199219 C 105.601562 25.089844 100.824219 29.867188 94.933594 29.867188 C 89.042969 29.867188 84.265625 25.089844 84.265625 19.199219 C 84.265625 13.308594 89.042969 8.535156 94.933594 8.535156 C 100.824219 8.535156 105.601562 13.308594 105.601562 19.199219 "/>
<path style=" stroke:none;fill-rule:nonzero;fill:rgb(100%,100%,100%);fill-opacity:1;" d="M 508.800781 292.265625 C 508.800781 298.15625 504.023438 302.933594 498.132812 302.933594 C 492.242188 302.933594 487.464844 298.15625 487.464844 292.265625 C 487.464844 286.375 492.242188 281.601562 498.132812 281.601562 C 504.023438 281.601562 508.800781 286.375 508.800781 292.265625 "/>
<path style=" stroke:none;fill-rule:nonzero;fill:rgb(100%,100%,100%);fill-opacity:1;" d="M 5.332031 6.398438 C 5.332031 12.292969 0.558594 17.066406 -5.332031 17.066406 C -11.222656 17.066406 -16 12.292969 -16 6.398438 C -16 0.507812 -11.222656 -4.265625 -5.332031 -4.265625 C 0.558594 -4.265625 5.332031 0.507812 5.332031 6.398438 "/>
<path style=" stroke:none;fill-rule:nonzero;fill:rgb(100%,100%,100%);fill-opacity:1;" d="M 37.332031 260.265625 C 37.332031 266.15625 32.558594 270.933594 26.667969 270.933594 C 20.777344 270.933594 16 266.15625 16 260.265625 C 16 254.375 20.777344 249.601562 26.667969 249.601562 C 32.558594 249.601562 37.332031 254.375 37.332031 260.265625 "/>
<path style=" stroke:none;fill-rule:nonzero;fill:rgb(100%,100%,100%);fill-opacity:1;" d="M 50.132812 8.53125 C 50.132812 14.425781 45.359375 19.199219 39.46875 19.199219 C 33.574219 19.199219 28.800781 14.425781 28.800781 8.53125 C 28.800781 2.640625 33.574219 -2.132812 39.46875 -2.132812 C 45.359375 -2.132812 50.132812 2.640625 50.132812 8.53125 "/>
<path style=" stroke:none;fill-rule:nonzero;fill:rgb(100%,100%,100%);fill-opacity:1;" d="M 436.265625 437.332031 C 436.265625 443.222656 431.492188 448 425.601562 448 C 419.707031 448 414.933594 443.222656 414.933594 437.332031 C 414.933594 431.441406 419.707031 426.667969 425.601562 426.667969 C 431.492188 426.667969 436.265625 431.441406 436.265625 437.332031 "/>
<path style=" stroke:none;fill-rule:nonzero;fill:rgb(100%,100%,100%);fill-opacity:1;" d="M 466.132812 326.398438 C 466.132812 332.292969 461.359375 337.066406 455.46875 337.066406 C 449.574219 337.066406 444.800781 332.292969 444.800781 326.398438 C 444.800781 320.507812 449.574219 315.734375 455.46875 315.734375 C 461.359375 315.734375 466.132812 320.507812 466.132812 326.398438 "/>
<path style=" stroke:none;fill-rule:nonzero;fill:rgb(100%,100%,100%);fill-opacity:1;" d="M 515.199219 251.734375 C 515.199219 257.625 510.425781 262.398438 504.53125 262.398438 C 498.640625 262.398438 493.867188 257.625 493.867188 251.734375 C 493.867188 245.84375 498.640625 241.066406 504.53125 241.066406 C 510.425781 241.066406 515.199219 245.84375 515.199219 251.734375 "/>
<path style=" stroke:none;fill-rule:nonzero;fill:rgb(100%,100%,100%);fill-opacity:1;" d="M 429.867188 326.398438 C 429.867188 332.292969 425.089844 337.066406 419.199219 337.066406 C 413.308594 337.066406 408.535156 332.292969 408.535156 326.398438 C 408.535156 320.507812 413.308594 315.734375 419.199219 315.734375 C 425.089844 315.734375 429.867188 320.507812 429.867188 326.398438 "/>
<path style=" stroke:none;fill-rule:nonzero;fill:rgb(100%,100%,100%);fill-opacity:1;" d="M 453.332031 -2.132812 C 453.332031 3.757812 448.558594 8.535156 442.667969 8.535156 C 436.777344 8.535156 432 3.757812 432 -2.132812 C 432 -8.023438 436.777344 -12.800781 442.667969 -12.800781 C 448.558594 -12.800781 453.332031 -8.023438 453.332031 -2.132812 "/>
<path style=" stroke:none;fill-rule:nonzero;fill:rgb(100%,84.3%,0%);fill-opacity:1;" d="M 106.296875 423.261719 C 106.296875 429.152344 101.523438 433.929688 95.632812 433.929688 C 89.738281 433.929688 84.964844 429.152344 84.964844 423.261719 C 84.964844 417.371094 89.738281 412.59375 95.632812 412.59375 C 101.523438 412.59375 106.296875 417.371094 106.296875 423.261719 "/>
<path style=" stroke:none;fill-rule:nonzero;fill:rgb(100%,84.3%,0%);fill-opacity:1;" d="M 114.792969 238.589844 C 114.792969 244.480469 110.019531 249.253906 104.128906 249.253906 C 98.234375 249.253906 93.460938 244.480469 93.460938 238.589844 C 93.460938 232.695312 98.234375 227.921875 104.128906 227.921875 C 110.019531 227.921875 114.792969 232.695312 114.792969 238.589844 "/>
<path style=" stroke:none;fill-rule:nonzero;fill:rgb(100%,84.3%,0%);fill-opacity:1;" d="M 358.511719 385.894531 C 358.511719 391.785156 353.738281 396.558594 347.847656 396.558594 C 341.957031 396.558594 337.179688 391.785156 337.179688 385.894531 C 337.179688 380.003906 341.957031 375.226562 347.847656 375.226562 C 353.738281 375.226562 358.511719 380.003906 358.511719 385.894531 "/>
<path style=" stroke:none;fill-rule:nonzero;fill:rgb(100%,84.3%,0%);fill-opacity:1;" d="M 69.332031 148.9375 C 69.332031 154.828125 64.558594 159.605469 58.667969 159.605469 C 52.777344 159.605469 48 154.828125 48 148.9375 C 48 143.046875 52.777344 138.269531 58.667969 138.269531 C 64.558594 138.269531 69.332031 143.046875 69.332031 148.9375 "/>
<path style=" stroke:none;fill-rule:nonzero;fill:rgb(100%,84.3%,0%);fill-opacity:1;" d="M 69.382812 176.296875 C 69.382812 182.1875 64.605469 186.964844 58.714844 186.964844 C 52.824219 186.964844 48.046875 182.1875 48.046875 176.296875 C 48.046875 170.40625 52.824219 165.628906 58.714844 165.628906 C 64.605469 165.628906 69.382812 170.40625 69.382812 176.296875 "/>
<path style=" stroke:none;fill-rule:nonzero;fill:rgb(100%,84.3%,0%);fill-opacity:1;" d="M 131.15625 448 C 131.15625 453.890625 126.382812 458.667969 120.492188 458.667969 C 114.601562 458.667969 109.824219 453.890625 109.824219 448 C 109.824219 442.109375 114.601562 437.332031 120.492188 437.332031 C 126.382812 437.332031 131.15625 442.109375 131.15625 448 "/>
<path style=" stroke:none;fill-rule:nonzero;fill:rgb(100%,84.3%,0%);fill-opacity:1;" d="M 306.953125 64.402344 C 306.953125 70.292969 302.175781 75.070312 296.285156 75.070312 C 290.394531 75.070312 285.617188 70.292969 285.617188 64.402344 C 285.617188 58.511719 290.394531 53.738281 296.285156 53.738281 C 302.175781 53.738281 306.953125 58.511719 306.953125 64.402344 "/>
<path style=" stroke:none;fill-rule:nonzero;fill:rgb(100%,84.3%,0%);fill-opacity:1;" d="M 160.523438 64 C 160.523438 69.890625 155.746094 74.667969 149.855469 74.667969 C 143.964844 74.667969 139.191406 69.890625 139.191406 64 C 139.191406 58.109375 143.964844 53.332031 149.855469 53.332031 C 155.746094 53.332031 160.523438 58.109375 160.523438 64 "/>
<path style=" stroke:none;fill-rule:nonzero;fill:rgb(100%,84.3%,0%);fill-opacity:1;" d="M 250.578125 438.050781 C 250.578125 443.941406 245.800781 448.714844 239.910156 448.714844 C 234.019531 448.714844 229.242188 443.941406 229.242188 438.050781 C 229.242188 432.15625 234.019531 427.382812 239.910156 427.382812 C 245.800781 427.382812 250.578125 432.15625 250.578125 438.050781 "/>
<path style=" stroke:none;fill-rule:nonzero;fill:rgb(100%,84.3%,0%);fill-opacity:1;" d="M 190.167969 66.253906 C 190.167969 72.144531 185.390625 76.921875 179.5 76.921875 C 173.609375 76.921875 168.832031 72.144531 168.832031 66.253906 C 168.832031 60.363281 173.609375 55.589844 179.5 55.589844 C 185.390625 55.589844 190.167969 60.363281 190.167969 66.253906 "/>
<path style=" stroke:none;fill-rule:nonzero;fill:rgb(100%,84.3%,0%);fill-opacity:1;" d="M 72.148438 305.257812 C 72.148438 311.148438 67.375 315.921875 61.484375 315.921875 C 55.59375 315.921875 50.816406 311.148438 50.816406 305.257812 C 50.816406 299.363281 55.59375 294.589844 61.484375 294.589844 C 67.375 294.589844 72.148438 299.363281 72.148438 305.257812 "/>
<path style=" stroke:none;fill-rule:nonzero;fill:rgb(100%,84.3%,0%);fill-opacity:1;" d="M 378.683594 294.921875 C 378.683594 300.8125 373.90625 305.589844 368.015625 305.589844 C 362.125 305.589844 357.347656 300.8125 357.347656 294.921875 C 357.347656 289.03125 362.125 284.257812 368.015625 284.257812 C 373.90625 284.257812 378.683594 289.03125 378.683594 294.921875 "/>
<path style=" stroke:none;fill-rule:nonzero;fill:rgb(100%,84.3%,0%);fill-opacity:1;" d="M 139.210938 67.988281 C 139.210938 73.878906 134.4375 78.652344 128.546875 78.652344 C 122.65625 78.652344 117.878906 73.878906 117.878906 67.988281 C 117.878906 62.097656 122.65625 57.320312 128.546875 57.320312 C 134.4375 57.320312 139.210938 62.097656 139.210938 67.988281 "/>
<path style=" stroke:none;fill-rule:nonzero;fill:rgb(100%,84.3%,0%);fill-opacity:1;" d="M 390.359375 163.253906 C 390.359375 169.144531 385.585938 173.917969 379.691406 173.917969 C 373.800781 173.917969 369.027344 169.144531 369.027344 163.253906 C 369.027344 157.359375 373.800781 152.585938 379.691406 152.585938 C 385.585938 152.585938 390.359375 157.359375 390.359375 163.253906 "/>
<path style=" stroke:none;fill-rule:nonzero;fill:rgb(100%,84.3%,0%);fill-opacity:1;" d="M 192.238281 447.972656 C 192.238281 453.863281 187.464844 458.640625 181.570312 458.640625 C 175.679688 458.640625 170.90625 453.863281 170.90625 447.972656 C 170.90625 442.082031 175.679688 437.304688 181.570312 437.304688 C 187.464844 437.304688 192.238281 442.082031 192.238281 447.972656 "/>
<path style=" stroke:none;fill-rule:nonzero;fill:rgb(100%,84.3%,0%);fill-opacity:1;" d="M 109.929688 445.882812 C 109.929688 451.773438 105.152344 456.546875 99.261719 456.546875 C 93.371094 456.546875 88.597656 451.773438 88.597656 445.882812 C 88.597656 439.988281 93.371094 435.214844 99.261719 435.214844 C 105.152344 435.214844 109.929688 439.988281 109.929688 445.882812 "/>
<path style=" stroke:none;fill-rule:nonzero;fill:rgb(100%,84.3%,0%);fill-opacity:1;" d="M 400 64 C 400 69.890625 395.222656 74.667969 389.332031 74.667969 C 383.441406 74.667969 378.667969 69.890625 378.667969 64 C 378.667969 58.109375 383.441406 53.332031 389.332031 53.332031 C 395.222656 53.332031 400 58.109375 400 64 "/>
<path style=" stroke:none;fill-rule:nonzero;fill:rgb(100%,84.3%,0%);fill-opacity:1;" d="M 400 295.738281 C 400 301.628906 395.222656 306.402344 389.332031 306.402344 C 383.441406 306.402344 378.667969 301.628906 378.667969 295.738281 C 378.667969 289.847656 383.441406 285.070312 389.332031 285.070312 C 395.222656 285.070312 400 289.847656 400 295.738281 "/>
<path style=" stroke:none;fill-rule:nonzero;fill:rgb(100%,84.3%,0%);fill-opacity:1;" d="M 400 317.085938 C 400 322.976562 395.222656 327.753906 389.332031 327.753906 C 383.441406 327.753906 378.667969 322.976562 378.667969 317.085938 C 378.667969 311.195312 383.441406 306.417969 389.332031 306.417969 C 395.222656 306.417969 400 311.195312 400 317.085938 "/>
<path style=" stroke:none;fill-rule:nonzero;fill:rgb(100%,84.3%,0%);fill-opacity:1;" d="M 107.84375 82.828125 C 107.84375 88.71875 103.070312 93.496094 97.179688 93.496094 C 91.285156 93.496094 86.511719 88.71875 86.511719 82.828125 C 86.511719 76.9375 91.285156 72.160156 97.179688 72.160156 C 103.070312 72.160156 107.84375 76.9375 107.84375 82.828125 "/>
<path style=" stroke:none;fill-rule:nonzero;fill:rgb(100%,84.3%,0%);fill-opacity:1;" d="M 208.351562 433.339844 C 208.351562 439.230469 203.578125 444.007812 197.6875 444.007812 C 191.796875 444.007812 187.019531 439.230469 187.019531 433.339844 C 187.019531 427.449219 191.796875 422.675781 197.6875 422.675781 C 203.578125 422.675781 208.351562 427.449219 208.351562 433.339844 "/>
<path style=" stroke:none;fill-rule:nonzero;fill:rgb(100%,84.3%,0%);fill-opacity:1;" d="M 69.332031 284.109375 C 69.332031 290 64.558594 294.777344 58.667969 294.777344 C 52.777344 294.777344 48 290 48 284.109375 C 48 278.21875 52.777344 273.441406 58.667969 273.441406 C 64.558594 273.441406 69.332031 278.21875 69.332031 284.109375 "/>
<path style=" stroke:none;fill-rule:nonzero;fill:rgb(100%,84.3%,0%);fill-opacity:1;" d="M 400 249.644531 C 400 255.535156 395.222656 260.3125 389.332031 260.3125 C 383.441406 260.3125 378.667969 255.535156 378.667969 249.644531 C 378.667969 243.753906 383.441406 238.980469 389.332031 238.980469 C 395.222656 238.980469 400 243.753906 400 249.644531 "/>
<path style=" stroke:none;fill-rule:nonzero;fill:rgb(100%,84.3%,0%);fill-opacity:1;" d="M 69.332031 219.125 C 69.332031 225.015625 64.558594 229.789062 58.667969 229.789062 C 52.777344 229.789062 48 225.015625 48 219.125 C 48 213.234375 52.777344 208.457031 58.667969 208.457031 C 64.558594 208.457031 69.332031 213.234375 69.332031 219.125 "/>
<path style=" stroke:none;fill-rule:nonzero;fill:rgb(100%,84.3%,0%);fill-opacity:1;" d="M 374.738281 64 C 374.738281 69.890625 369.960938 74.667969 364.070312 74.667969 C 358.179688 74.667969 353.402344 69.890625 353.402344 64 C 353.402344 58.109375 358.179688 53.332031 364.070312 53.332031 C 369.960938 53.332031 374.738281 58.109375 374.738281 64 "/>
<path style=" stroke:none;fill-rule:nonzero;fill:rgb(100%,84.3%,0%);fill-opacity:1;" d="M 69.332031 240.457031 C 69.332031 246.347656 64.558594 251.125 58.667969 251.125 C 52.777344 251.125 48 246.347656 48 240.457031 C 48 234.566406 52.777344 229.789062 58.667969 229.789062 C 64.558594 229.789062 69.332031 234.566406 69.332031 240.457031 "/>
<path style=" stroke:none;fill-rule:nonzero;fill:rgb(100%,84.3%,0%);fill-opacity:1;" d="M 231.628906 448 C 231.628906 453.890625 226.855469 458.667969 220.964844 458.667969 C 215.074219 458.667969 210.296875 453.890625 210.296875 448 C 210.296875 442.109375 215.074219 437.332031 220.964844 437.332031 C 226.855469 437.332031 231.628906 442.109375 231.628906 448 "/>
<path style=" stroke:none;fill-rule:nonzero;fill:rgb(100%,84.3%,0%);fill-opacity:1;" d="M 398.914062 206.832031 C 398.914062 212.722656 394.140625 217.496094 388.246094 217.496094 C 382.355469 217.496094 377.582031 212.722656 377.582031 206.832031 C 377.582031 200.941406 382.355469 196.164062 388.246094 196.164062 C 394.140625 196.164062 398.914062 200.941406 398.914062 206.832031 "/>
<path style=" stroke:none;fill-rule:nonzero;fill:rgb(100%,84.3%,0%);fill-opacity:1;" d="M 75.089844 64.046875 C 75.089844 69.9375 70.3125 74.710938 64.421875 74.710938 C 58.53125 74.710938 53.753906 69.9375 53.753906 64.046875 C 53.753906 58.152344 58.53125 53.378906 64.421875 53.378906 C 70.3125 53.378906 75.089844 58.152344 75.089844 64.046875 "/>
<path style=" stroke:none;fill-rule:nonzero;fill:rgb(100%,84.3%,0%);fill-opacity:1;" d="M 400 338.863281 C 400 344.753906 395.222656 349.527344 389.332031 349.527344 C 383.441406 349.527344 378.667969 344.753906 378.667969 338.863281 C 378.667969 332.972656 383.441406 328.195312 389.332031 328.195312 C 395.222656 328.195312 400 332.972656 400 338.863281 "/>
<path style=" stroke:none;fill-rule:nonzero;fill:rgb(100%,84.3%,0%);fill-opacity:1;" d="M 381.476562 238.71875 C 381.476562 244.609375 376.699219 249.386719 370.808594 249.386719 C 364.917969 249.386719 360.140625 244.609375 360.140625 238.71875 C 360.140625 232.828125 364.917969 228.050781 370.808594 228.050781 C 376.699219 228.050781 381.476562 232.828125 381.476562 238.71875 "/>
<path style=" stroke:none;fill-rule:nonzero;fill:rgb(100%,84.3%,0%);fill-opacity:1;" d="M 400 228.136719 C 400 234.027344 395.222656 238.804688 389.332031 238.804688 C 383.441406 238.804688 378.667969 234.027344 378.667969 228.136719 C 378.667969 222.246094 383.441406 217.46875 389.332031 217.46875 C 395.222656 217.46875 400 222.246094 400 228.136719 "/>
<path style=" stroke:none;fill-rule:nonzero;fill:rgb(100%,84.3%,0%);fill-opacity:1;" d="M 381.285156 328.617188 C 381.285156 334.511719 376.511719 339.285156 370.621094 339.285156 C 364.730469 339.285156 359.953125 334.511719 359.953125 328.617188 C 359.953125 322.726562 364.730469 317.953125 370.621094 317.953125 C 376.511719 317.953125 381.285156 322.726562 381.285156 328.617188 "/>
<path style=" stroke:none;fill-rule:nonzero;fill:rgb(100%,84.3%,0%);fill-opacity:1;" d="M 400 183.199219 C 400 189.09375 395.222656 193.867188 389.332031 193.867188 C 383.441406 193.867188 378.667969 189.09375 378.667969 183.199219 C 378.667969 177.308594 383.441406 172.535156 389.332031 172.535156 C 395.222656 172.535156 400 177.308594 400 183.199219 "/>
<path style=" stroke:none;fill-rule:nonzero;fill:rgb(100%,84.3%,0%);fill-opacity:1;" d="M 96.421875 64 C 96.421875 69.890625 91.644531 74.667969 85.753906 74.667969 C 79.863281 74.667969 75.089844 69.890625 75.089844 64 C 75.089844 58.109375 79.863281 53.332031 85.753906 53.332031 C 91.644531 53.332031 96.421875 58.109375 96.421875 64 "/>
<path style=" stroke:none;fill-rule:nonzero;fill:rgb(100%,84.3%,0%);fill-opacity:1;" d="M 398.910156 272.1875 C 398.910156 278.078125 394.136719 282.851562 388.246094 282.851562 C 382.355469 282.851562 377.578125 278.078125 377.578125 272.1875 C 377.578125 266.296875 382.355469 261.519531 388.246094 261.519531 C 394.136719 261.519531 398.910156 266.296875 398.910156 272.1875 "/>
<path style=" stroke:none;fill-rule:nonzero;fill:rgb(100%,84.3%,0%);fill-opacity:1;" d="M 400 447.96875 C 400 453.859375 395.222656 458.636719 389.332031 458.636719 C 383.441406 458.636719 378.667969 453.859375 378.667969 447.96875 C 378.667969 442.078125 383.441406 437.304688 389.332031 437.304688 C 395.222656 437.304688 400 442.078125 400 447.96875 "/>
<path style=" stroke:none;fill-rule:nonzero;fill:rgb(100%,84.3%,0%);fill-opacity:1;" d="M 331.703125 64 C 331.703125 69.890625 326.929688 74.667969 321.039062 74.667969 C 315.148438 74.667969 310.371094 69.890625 310.371094 64 C 310.371094 58.109375 315.148438 53.332031 321.039062 53.332031 C 326.929688 53.332031 331.703125 58.109375 331.703125 64 "/>
<path style=" stroke:none;fill-rule:nonzero;fill:rgb(100%,84.3%,0%);fill-opacity:1;" d="M 117.875 64 C 117.875 69.890625 113.101562 74.667969 107.210938 74.667969 C 101.316406 74.667969 96.542969 69.890625 96.542969 64 C 96.542969 58.109375 101.316406 53.332031 107.210938 53.332031 C 113.101562 53.332031 117.875 58.109375 117.875 64 "/>
<path style=" stroke:none;fill-rule:nonzero;fill:rgb(100%,84.3%,0%);fill-opacity:1;" d="M 69.332031 197.628906 C 69.332031 203.519531 64.558594 208.296875 58.667969 208.296875 C 52.777344 208.296875 48 203.519531 48 197.628906 C 48 191.738281 52.777344 186.964844 58.667969 186.964844 C 64.558594 186.964844 69.332031 191.738281 69.332031 197.628906 "/>
<path style=" stroke:none;fill-rule:nonzero;fill:rgb(100%,84.3%,0%);fill-opacity:1;" d="M 399.582031 108.507812 C 399.582031 114.398438 394.808594 119.171875 388.917969 119.171875 C 383.027344 119.171875 378.25 114.398438 378.25 108.507812 C 378.25 102.613281 383.027344 97.839844 388.917969 97.839844 C 394.808594 97.839844 399.582031 102.613281 399.582031 108.507812 "/>
<path style=" stroke:none;fill-rule:nonzero;fill:rgb(100%,84.3%,0%);fill-opacity:1;" d="M 174.710938 434.640625 C 174.710938 440.53125 169.933594 445.304688 164.042969 445.304688 C 158.152344 445.304688 153.375 440.53125 153.375 434.640625 C 153.375 428.746094 158.152344 423.972656 164.042969 423.972656 C 169.933594 423.972656 174.710938 428.746094 174.710938 434.640625 "/>
<path style=" stroke:none;fill-rule:nonzero;fill:rgb(100%,84.3%,0%);fill-opacity:1;" d="M 400 360.195312 C 400 366.085938 395.222656 370.863281 389.332031 370.863281 C 383.441406 370.863281 378.667969 366.085938 378.667969 360.195312 C 378.667969 354.304688 383.441406 349.53125 389.332031 349.53125 C 395.222656 349.53125 400 354.304688 400 360.195312 "/>
<path style=" stroke:none;fill-rule:nonzero;fill:rgb(100%,84.3%,0%);fill-opacity:1;" d="M 89.859375 246.265625 C 89.859375 252.15625 85.085938 256.933594 79.195312 256.933594 C 73.304688 256.933594 68.527344 252.15625 68.527344 246.265625 C 68.527344 240.375 73.304688 235.597656 79.195312 235.597656 C 85.085938 235.597656 89.859375 240.375 89.859375 246.265625 "/>
<path style=" stroke:none;fill-rule:nonzero;fill:rgb(100%,84.3%,0%);fill-opacity:1;" d="M 399.984375 385.242188 C 399.984375 391.132812 395.207031 395.90625 389.316406 395.90625 C 383.425781 395.90625 378.648438 391.132812 378.648438 385.242188 C 378.648438 379.351562 383.425781 374.574219 389.316406 374.574219 C 395.207031 374.574219 399.984375 379.351562 399.984375 385.242188 "/>
<path style=" stroke:none;fill-rule:nonzero;fill:rgb(100%,84.3%,0%);fill-opacity:1;" d="M 225.164062 88.992188 C 225.164062 94.882812 220.390625 99.660156 214.5 99.660156 C 208.609375 99.660156 203.832031 94.882812 203.832031 88.992188 C 203.832031 83.101562 208.609375 78.328125 214.5 78.328125 C 220.390625 78.328125 225.164062 83.101562 225.164062 88.992188 "/>
<path style=" stroke:none;fill-rule:nonzero;fill:rgb(100%,84.3%,0%);fill-opacity:1;" d="M 270.097656 429.445312 C 270.097656 435.335938 265.320312 440.113281 259.429688 440.113281 C 253.539062 440.113281 248.765625 435.335938 248.765625 429.445312 C 248.765625 423.554688 253.539062 418.777344 259.429688 418.777344 C 265.320312 418.777344 270.097656 423.554688 270.097656 429.445312 "/>
<path style=" stroke:none;fill-rule:nonzero;fill:rgb(100%,84.3%,0%);fill-opacity:1;" d="M 69.332031 262.777344 C 69.332031 268.667969 64.558594 273.441406 58.667969 273.441406 C 52.777344 273.441406 48 268.667969 48 262.777344 C 48 256.886719 52.777344 252.109375 58.667969 252.109375 C 64.558594 252.109375 69.332031 256.886719 69.332031 262.777344 "/>
<path style=" stroke:none;fill-rule:nonzero;fill:rgb(100%,84.3%,0%);fill-opacity:1;" d="M 393.125 405.652344 C 393.125 411.542969 388.351562 416.320312 382.460938 416.320312 C 376.566406 416.320312 371.792969 411.542969 371.792969 405.652344 C 371.792969 399.761719 376.566406 394.988281 382.460938 394.988281 C 388.351562 394.988281 393.125 399.761719 393.125 405.652344 "/>
<path style=" stroke:none;fill-rule:nonzero;fill:rgb(100%,84.3%,0%);fill-opacity:1;" d="M 381.367188 260.050781 C 381.367188 265.941406 376.589844 270.71875 370.699219 270.71875 C 364.808594 270.71875 360.03125 265.941406 360.03125 260.050781 C 360.03125 254.160156 364.808594 249.386719 370.699219 249.386719 C 376.589844 249.386719 381.367188 254.160156 381.367188 260.050781 "/>
<path style=" stroke:none;fill-rule:nonzero;fill:rgb(100%,84.3%,0%);fill-opacity:1;" d="M 153.855469 448 C 153.855469 453.890625 149.082031 458.667969 143.191406 458.667969 C 137.300781 458.667969 132.523438 453.890625 132.523438 448 C 132.523438 442.109375 137.300781 437.332031 143.191406 437.332031 C 149.082031 437.332031 153.855469 442.109375 153.855469 448 "/>
<path style=" stroke:none;fill-rule:nonzero;fill:rgb(100%,84.3%,0%);fill-opacity:1;" d="M 88.839844 206.261719 C 88.839844 212.152344 84.066406 216.929688 78.175781 216.929688 C 72.285156 216.929688 67.507812 212.152344 67.507812 206.261719 C 67.507812 200.371094 72.285156 195.597656 78.175781 195.597656 C 84.066406 195.597656 88.839844 200.371094 88.839844 206.261719 "/>
<path style=" stroke:none;fill-rule:nonzero;fill:rgb(100%,84.3%,0%);fill-opacity:1;" d="M 353.402344 64 C 353.402344 69.890625 348.628906 74.667969 342.738281 74.667969 C 336.847656 74.667969 332.070312 69.890625 332.070312 64 C 332.070312 58.109375 336.847656 53.332031 342.738281 53.332031 C 348.628906 53.332031 353.402344 58.109375 353.402344 64 "/>
<path style=" stroke:none;fill-rule:nonzero;fill:rgb(100%,84.3%,0%);fill-opacity:1;" d="M 397.605469 87.234375 C 397.605469 93.125 392.828125 97.902344 386.9375 97.902344 C 381.046875 97.902344 376.269531 93.125 376.269531 87.234375 C 376.269531 81.34375 381.046875 76.566406 386.9375 76.566406 C 392.828125 76.566406 397.605469 81.34375 397.605469 87.234375 "/>
<path style=" stroke:none;fill-rule:nonzero;fill:rgb(100%,84.3%,0%);fill-opacity:1;" d="M 399.867188 425.894531 C 399.867188 431.785156 395.089844 436.5625 389.199219 436.5625 C 383.308594 436.5625 378.535156 431.785156 378.535156 425.894531 C 378.535156 420.003906 383.308594 415.226562 389.199219 415.226562 C 395.089844 415.226562 399.867188 420.003906 399.867188 425.894531 "/>
<path style=" stroke:none;fill-rule:nonzero;fill:rgb(100%,84.3%,0%);fill-opacity:1;" d="M 69.738281 87.003906 C 69.738281 92.894531 64.964844 97.671875 59.070312 97.671875 C 53.179688 97.671875 48.40625 92.894531 48.40625 87.003906 C 48.40625 81.113281 53.179688 76.339844 59.070312 76.339844 C 64.964844 76.339844 69.738281 81.113281 69.738281 87.003906 "/>
</g>
</svg>
