<?xml version="1.0" encoding="UTF-8"?>
<svg xmlns="http://www.w3.org/2000/svg" xmlns:xlink="http://www.w3.org/1999/xlink" width="512pt" height="512pt" viewBox="0 0 512 512" version="1.1">
<g id="surface91">
<path style=" stroke:none;fill-rule:nonzero;fill:rgb(26.7%,26.7%,26.7%);fill-opacity:1;" d="M 0 130.425781 L 512 130.425781 L 512 381.570312 L 0 381.570312 Z M 0 130.425781 "/>
<path style=" stroke:none;fill-rule:nonzero;fill:rgb(19.2%,38.8%,66.7%);fill-opacity:1;" d="M 42.667969 151.355469 L 469.332031 151.355469 L 469.332031 360.644531 L 42.667969 360.644531 Z M 42.667969 151.355469 "/>
<path style=" stroke:none;fill-rule:nonzero;fill:rgb(100%,84.3%,0%);fill-opacity:1;" d="M 210.085938 164.117188 C 210.085938 167.714844 204.691406 167.714844 204.691406 164.117188 C 204.691406 160.523438 210.085938 160.523438 210.085938 164.117188 "/>
<path style=" stroke:none;fill-rule:nonzero;fill:rgb(100%,84.3%,0%);fill-opacity:1;" d="M 423.484375 176.882812 C 423.484375 180.476562 418.089844 180.476562 418.089844 176.882812 C 418.089844 173.285156 423.484375 173.285156 423.484375 176.882812 "/>
<path style=" stroke:none;fill-rule:nonzero;fill:rgb(100%,84.3%,0%);fill-opacity:1;" d="M 62.796875 173.460938 C 62.796875 177.058594 57.402344 177.058594 57.402344 173.460938 C 57.402344 169.863281 62.796875 169.863281 62.796875 173.460938 "/>
<path style=" stroke:none;fill-rule:nonzero;fill:rgb(100%,84.3%,0%);fill-opacity:1;" d="M 423.484375 171.488281 C 423.484375 175.082031 418.089844 175.082031 418.089844 171.488281 C 418.089844 167.890625 423.484375 167.890625 423.484375 171.488281 "/>
<path style=" stroke:none;fill-rule:nonzero;fill:rgb(100%,84.3%,0%);fill-opacity:1;" d="M 200.742188 169.511719 C 200.742188 173.109375 195.347656 173.109375 195.347656 169.511719 C 195.347656 165.914062 200.742188 165.914062 200.742188 169.511719 "/>
<path style=" stroke:none;fill-rule:nonzero;fill:rgb(100%,84.3%,0%);fill-opacity:1;" d="M 181.863281 170.234375 C 181.863281 173.832031 176.46875 173.832031 176.46875 170.234375 C 176.46875 166.640625 181.863281 166.640625 181.863281 170.234375 "/>
<path style=" stroke:none;fill-rule:nonzero;fill:rgb(100%,84.3%,0%);fill-opacity:1;" d="M 55.429688 156.75 C 55.429688 160.347656 50.035156 160.347656 50.035156 156.75 C 50.035156 153.152344 55.429688 153.152344 55.429688 156.75 "/>
<path style=" stroke:none;fill-rule:nonzero;fill:rgb(100%,84.3%,0%);fill-opacity:1;" d="M 148.441406 160.890625 C 148.441406 164.488281 143.046875 164.488281 143.046875 160.890625 C 143.046875 157.296875 148.441406 157.296875 148.441406 160.890625 "/>
<path style=" stroke:none;fill-rule:nonzero;fill:rgb(100%,84.3%,0%);fill-opacity:1;" d="M 177.914062 179.578125 C 177.914062 183.175781 172.519531 183.175781 172.519531 179.578125 C 172.519531 175.980469 177.914062 175.980469 177.914062 179.578125 "/>
<path style=" stroke:none;fill-rule:nonzero;fill:rgb(100%,84.3%,0%);fill-opacity:1;" d="M 293.304688 174.183594 C 293.304688 177.78125 287.910156 177.78125 287.910156 174.183594 C 287.910156 170.589844 293.304688 170.589844 293.304688 174.183594 "/>
<path style=" stroke:none;fill-rule:nonzero;fill:rgb(100%,84.3%,0%);fill-opacity:1;" d="M 285.214844 169.511719 C 285.214844 173.109375 279.820312 173.109375 279.820312 169.511719 C 279.820312 165.914062 285.214844 165.914062 285.214844 169.511719 "/>
<path style=" stroke:none;fill-rule:nonzero;fill:rgb(100%,84.3%,0%);fill-opacity:1;" d="M 407.6875 335.84375 C 407.6875 339.4375 402.296875 339.4375 402.296875 335.84375 C 402.296875 332.246094 407.6875 332.246094 407.6875 335.84375 "/>
<path style=" stroke:none;fill-rule:nonzero;fill:rgb(100%,84.3%,0%);fill-opacity:1;" d="M 258.964844 161.421875 C 258.964844 165.015625 253.570312 165.015625 253.570312 161.421875 C 253.570312 157.824219 258.964844 157.824219 258.964844 161.421875 "/>
<path style=" stroke:none;fill-rule:nonzero;fill:rgb(100%,84.3%,0%);fill-opacity:1;" d="M 351.386719 164.117188 C 351.386719 167.714844 345.992188 167.714844 345.992188 164.117188 C 345.992188 160.523438 351.386719 160.523438 351.386719 164.117188 "/>
<path style=" stroke:none;fill-rule:nonzero;fill:rgb(100%,84.3%,0%);fill-opacity:1;" d="M 294.027344 162.144531 C 294.027344 165.738281 288.632812 165.738281 288.632812 162.144531 C 288.632812 158.546875 294.027344 158.546875 294.027344 162.144531 "/>
<path style=" stroke:none;fill-rule:nonzero;fill:rgb(100%,84.3%,0%);fill-opacity:1;" d="M 385.726562 156.75 C 385.726562 160.347656 380.332031 160.347656 380.332031 156.75 C 380.332031 153.152344 385.726562 153.152344 385.726562 156.75 "/>
<path style=" stroke:none;fill-rule:nonzero;fill:rgb(100%,84.3%,0%);fill-opacity:1;" d="M 388.421875 161.421875 C 388.421875 165.015625 383.027344 165.015625 383.027344 161.421875 C 383.027344 157.824219 388.421875 157.824219 388.421875 161.421875 "/>
<path style=" stroke:none;fill-rule:nonzero;fill:rgb(100%,84.3%,0%);fill-opacity:1;" d="M 331.785156 176.882812 C 331.785156 180.476562 326.390625 180.476562 326.390625 176.882812 C 326.390625 173.285156 331.785156 173.285156 331.785156 176.882812 "/>
<path style=" stroke:none;fill-rule:nonzero;fill:rgb(100%,84.3%,0%);fill-opacity:1;" d="M 62.796875 188.199219 C 62.796875 191.792969 57.402344 191.792969 57.402344 188.199219 C 57.402344 184.601562 62.796875 184.601562 62.796875 188.199219 "/>
<path style=" stroke:none;fill-rule:nonzero;fill:rgb(100%,84.3%,0%);fill-opacity:1;" d="M 130.285156 158.917969 C 130.285156 162.515625 124.890625 162.515625 124.890625 158.917969 C 124.890625 155.320312 130.285156 155.320312 130.285156 158.917969 "/>
<path style=" stroke:none;fill-rule:nonzero;fill:rgb(100%,84.3%,0%);fill-opacity:1;" d="M 431.574219 166.816406 C 431.574219 170.410156 426.179688 170.410156 426.179688 166.816406 C 426.179688 163.21875 431.574219 163.21875 431.574219 166.816406 "/>
<path style=" stroke:none;fill-rule:nonzero;fill:rgb(100%,84.3%,0%);fill-opacity:1;" d="M 356.058594 176.15625 C 356.058594 179.753906 350.664062 179.753906 350.664062 176.15625 C 350.664062 172.5625 356.058594 172.5625 356.058594 176.15625 "/>
<path style=" stroke:none;fill-rule:nonzero;fill:rgb(100%,84.3%,0%);fill-opacity:1;" d="M 361.453125 166.816406 C 361.453125 170.410156 356.058594 170.410156 356.058594 166.816406 C 356.058594 163.21875 361.453125 163.21875 361.453125 166.816406 "/>
<path style=" stroke:none;fill-rule:nonzero;fill:rgb(100%,84.3%,0%);fill-opacity:1;" d="M 57.402344 347.882812 C 57.402344 351.476562 52.007812 351.476562 52.007812 347.882812 C 52.007812 344.285156 57.402344 344.285156 57.402344 347.882812 "/>
<path style=" stroke:none;fill-rule:nonzero;fill:rgb(100%,84.3%,0%);fill-opacity:1;" d="M 130.285156 182.996094 C 130.285156 186.59375 124.890625 186.59375 124.890625 182.996094 C 124.890625 179.402344 130.285156 179.402344 130.285156 182.996094 "/>
<path style=" stroke:none;fill-rule:nonzero;fill:rgb(100%,84.3%,0%);fill-opacity:1;" d="M 334.484375 172.210938 C 334.484375 175.804688 329.089844 175.804688 329.089844 172.210938 C 329.089844 168.613281 334.484375 168.613281 334.484375 172.210938 "/>
<path style=" stroke:none;fill-rule:nonzero;fill:rgb(100%,84.3%,0%);fill-opacity:1;" d="M 160.480469 160.171875 C 160.480469 163.765625 155.085938 163.765625 155.085938 160.171875 C 155.085938 156.574219 160.480469 156.574219 160.480469 160.171875 "/>
<path style=" stroke:none;fill-rule:nonzero;fill:rgb(100%,84.3%,0%);fill-opacity:1;" d="M 344.019531 171.488281 C 344.019531 175.082031 338.625 175.082031 338.625 171.488281 C 338.625 167.890625 344.019531 167.890625 344.019531 171.488281 "/>
<path style=" stroke:none;fill-rule:nonzero;fill:rgb(100%,84.3%,0%);fill-opacity:1;" d="M 379.078125 172.210938 C 379.078125 175.804688 373.6875 175.804688 373.6875 172.210938 C 373.6875 168.613281 379.078125 168.613281 379.078125 172.210938 "/>
<path style=" stroke:none;fill-rule:nonzero;fill:rgb(100%,84.3%,0%);fill-opacity:1;" d="M 76.8125 345.183594 C 76.8125 348.78125 71.417969 348.78125 71.417969 345.183594 C 71.417969 341.589844 76.8125 341.589844 76.8125 345.183594 "/>
<path style=" stroke:none;fill-rule:nonzero;fill:rgb(100%,84.3%,0%);fill-opacity:1;" d="M 198.046875 179.578125 C 198.046875 183.175781 192.652344 183.175781 192.652344 179.578125 C 192.652344 175.980469 198.046875 175.980469 198.046875 179.578125 "/>
<path style=" stroke:none;fill-rule:nonzero;fill:rgb(100%,84.3%,0%);fill-opacity:1;" d="M 288.632812 156.75 C 288.632812 160.347656 283.238281 160.347656 283.238281 156.75 C 283.238281 153.152344 288.632812 153.152344 288.632812 156.75 "/>
<path style=" stroke:none;fill-rule:nonzero;fill:rgb(100%,84.3%,0%);fill-opacity:1;" d="M 320.996094 156.75 C 320.996094 160.347656 315.605469 160.347656 315.605469 156.75 C 315.605469 153.152344 320.996094 153.152344 320.996094 156.75 "/>
<path style=" stroke:none;fill-rule:nonzero;fill:rgb(100%,84.3%,0%);fill-opacity:1;" d="M 177.191406 167.539062 C 177.191406 171.132812 171.796875 171.132812 171.796875 167.539062 C 171.796875 163.941406 177.191406 163.941406 177.191406 167.539062 "/>
<path style=" stroke:none;fill-rule:nonzero;fill:rgb(100%,84.3%,0%);fill-opacity:1;" d="M 413.082031 335.84375 C 413.082031 339.4375 407.6875 339.4375 407.6875 335.84375 C 407.6875 332.246094 413.082031 332.246094 413.082031 335.84375 "/>
<path style=" stroke:none;fill-rule:nonzero;fill:rgb(100%,84.3%,0%);fill-opacity:1;" d="M 304.816406 156.75 C 304.816406 160.347656 299.421875 160.347656 299.421875 156.75 C 299.421875 153.152344 304.816406 153.152344 304.816406 156.75 "/>
<path style=" stroke:none;fill-rule:nonzero;fill:rgb(100%,84.3%,0%);fill-opacity:1;" d="M 435.1875 348.605469 C 435.1875 352.199219 429.792969 352.199219 429.792969 348.605469 C 429.792969 345.007812 435.1875 345.007812 435.1875 348.605469 "/>
<path style=" stroke:none;fill-rule:nonzero;fill:rgb(100%,84.3%,0%);fill-opacity:1;" d="M 167.847656 182.273438 C 167.847656 185.871094 162.453125 185.871094 162.453125 182.273438 C 162.453125 178.679688 167.847656 178.679688 167.847656 182.273438 "/>
<path style=" stroke:none;fill-rule:nonzero;fill:rgb(100%,84.3%,0%);fill-opacity:1;" d="M 92.992188 165.371094 C 92.992188 168.964844 87.601562 168.964844 87.601562 165.371094 C 87.601562 161.773438 92.992188 161.773438 92.992188 165.371094 "/>
<path style=" stroke:none;fill-rule:nonzero;fill:rgb(100%,84.3%,0%);fill-opacity:1;" d="M 132.980469 187.667969 C 132.980469 191.265625 127.589844 191.265625 127.589844 187.667969 C 127.589844 184.074219 132.980469 184.074219 132.980469 187.667969 "/>
<path style=" stroke:none;fill-rule:nonzero;fill:rgb(100%,84.3%,0%);fill-opacity:1;" d="M 157.785156 179.578125 C 157.785156 183.175781 152.390625 183.175781 152.390625 179.578125 C 152.390625 175.980469 157.785156 175.980469 157.785156 179.578125 "/>
<path style=" stroke:none;fill-rule:nonzero;fill:rgb(100%,84.3%,0%);fill-opacity:1;" d="M 162.453125 176.882812 C 162.453125 180.476562 157.0625 180.476562 157.0625 176.882812 C 157.0625 173.285156 162.453125 173.285156 162.453125 176.882812 "/>
<path style=" stroke:none;fill-rule:nonzero;fill:rgb(100%,84.3%,0%);fill-opacity:1;" d="M 156.53125 185.695312 C 156.53125 189.289062 151.136719 189.289062 151.136719 185.695312 C 151.136719 182.097656 156.53125 182.097656 156.53125 185.695312 "/>
<path style=" stroke:none;fill-rule:nonzero;fill:rgb(100%,84.3%,0%);fill-opacity:1;" d="M 391.121094 156.75 C 391.121094 160.347656 385.726562 160.347656 385.726562 156.75 C 385.726562 153.152344 391.121094 153.152344 391.121094 156.75 "/>
<path style=" stroke:none;fill-rule:nonzero;fill:rgb(100%,84.3%,0%);fill-opacity:1;" d="M 237.585938 172.933594 C 237.585938 176.527344 232.191406 176.527344 232.191406 172.933594 C 232.191406 169.335938 237.585938 169.335938 237.585938 172.933594 "/>
<path style=" stroke:none;fill-rule:nonzero;fill:rgb(100%,84.3%,0%);fill-opacity:1;" d="M 74.835938 352.554688 C 74.835938 356.148438 69.441406 356.148438 69.441406 352.554688 C 69.441406 348.957031 74.835938 348.957031 74.835938 352.554688 "/>
<path style=" stroke:none;fill-rule:nonzero;fill:rgb(100%,84.3%,0%);fill-opacity:1;" d="M 135.679688 158.917969 C 135.679688 162.515625 130.285156 162.515625 130.285156 158.917969 C 130.285156 155.320312 135.679688 155.320312 135.679688 158.917969 "/>
<path style=" stroke:none;fill-rule:nonzero;fill:rgb(100%,84.3%,0%);fill-opacity:1;" d="M 195.347656 169.511719 C 195.347656 173.109375 189.953125 173.109375 189.953125 169.511719 C 189.953125 165.914062 195.347656 165.914062 195.347656 169.511719 "/>
<path style=" stroke:none;fill-rule:nonzero;fill:rgb(100%,84.3%,0%);fill-opacity:1;" d="M 75.558594 166.09375 C 75.558594 169.6875 70.164062 169.6875 70.164062 166.09375 C 70.164062 162.496094 75.558594 162.496094 75.558594 166.09375 "/>
<path style=" stroke:none;fill-rule:nonzero;fill:rgb(100%,84.3%,0%);fill-opacity:1;" d="M 450.453125 156.75 C 450.453125 160.347656 445.058594 160.347656 445.058594 156.75 C 445.058594 153.152344 450.453125 153.152344 450.453125 156.75 "/>
<path style=" stroke:none;fill-rule:nonzero;fill:rgb(100%,84.3%,0%);fill-opacity:1;" d="M 290.609375 178.855469 C 290.609375 182.449219 285.214844 182.449219 285.214844 178.855469 C 285.214844 175.257812 290.609375 175.257812 290.609375 178.855469 "/>
<path style=" stroke:none;fill-rule:nonzero;fill:rgb(100%,84.3%,0%);fill-opacity:1;" d="M 72.140625 188.199219 C 72.140625 191.792969 66.746094 191.792969 66.746094 188.199219 C 66.746094 184.601562 72.140625 184.601562 72.140625 188.199219 "/>
<path style=" stroke:none;fill-rule:nonzero;fill:rgb(100%,84.3%,0%);fill-opacity:1;" d="M 275.148438 166.816406 C 275.148438 170.410156 269.753906 170.410156 269.753906 166.816406 C 269.753906 163.21875 275.148438 163.21875 275.148438 166.816406 "/>
<path style=" stroke:none;fill-rule:nonzero;fill:rgb(100%,84.3%,0%);fill-opacity:1;" d="M 244.953125 174.90625 C 244.953125 178.503906 239.558594 178.503906 239.558594 174.90625 C 239.558594 171.3125 244.953125 171.3125 244.953125 174.90625 "/>
<path style=" stroke:none;fill-rule:nonzero;fill:rgb(100%,84.3%,0%);fill-opacity:1;" d="M 401.90625 166.09375 C 401.90625 169.6875 396.515625 169.6875 396.515625 166.09375 C 396.515625 162.496094 401.90625 162.496094 401.90625 166.09375 "/>
<path style=" stroke:none;fill-rule:nonzero;fill:rgb(100%,84.3%,0%);fill-opacity:1;" d="M 415.394531 166.816406 C 415.394531 170.410156 410 170.410156 410 166.816406 C 410 163.21875 415.394531 163.21875 415.394531 166.816406 "/>
<path style=" stroke:none;fill-rule:nonzero;fill:rgb(100%,84.3%,0%);fill-opacity:1;" d="M 60.101562 168.789062 C 60.101562 172.386719 54.707031 172.386719 54.707031 168.789062 C 54.707031 165.195312 60.101562 165.195312 60.101562 168.789062 "/>
<path style=" stroke:none;fill-rule:nonzero;fill:rgb(100%,84.3%,0%);fill-opacity:1;" d="M 310.210938 156.75 C 310.210938 160.347656 304.816406 160.347656 304.816406 156.75 C 304.816406 153.152344 310.210938 153.152344 310.210938 156.75 "/>
<path style=" stroke:none;fill-rule:nonzero;fill:rgb(100%,84.3%,0%);fill-opacity:1;" d="M 165.152344 157.472656 C 165.152344 161.070312 159.757812 161.070312 159.757812 157.472656 C 159.757812 153.878906 165.152344 153.878906 165.152344 157.472656 "/>
<path style=" stroke:none;fill-rule:nonzero;fill:rgb(100%,84.3%,0%);fill-opacity:1;" d="M 215.480469 169.511719 C 215.480469 173.109375 210.085938 173.109375 210.085938 169.511719 C 210.085938 165.914062 215.480469 165.914062 215.480469 169.511719 "/>
<path style=" stroke:none;fill-rule:nonzero;fill:rgb(100%,84.3%,0%);fill-opacity:1;" d="M 67.46875 161.421875 C 67.46875 165.015625 62.074219 165.015625 62.074219 161.421875 C 62.074219 157.824219 67.46875 157.824219 67.46875 161.421875 "/>
<path style=" stroke:none;fill-rule:nonzero;fill:rgb(100%,84.3%,0%);fill-opacity:1;" d="M 183.308594 184.972656 C 183.308594 188.566406 177.914062 188.566406 177.914062 184.972656 C 177.914062 181.375 183.308594 181.375 183.308594 184.972656 "/>
<path style=" stroke:none;fill-rule:nonzero;fill:rgb(100%,84.3%,0%);fill-opacity:1;" d="M 399.210938 161.421875 C 399.210938 165.015625 393.816406 165.015625 393.816406 161.421875 C 393.816406 157.824219 399.210938 157.824219 399.210938 161.421875 "/>
<path style=" stroke:none;fill-rule:nonzero;fill:rgb(100%,84.3%,0%);fill-opacity:1;" d="M 140.351562 180.300781 C 140.351562 183.898438 134.957031 183.898438 134.957031 180.300781 C 134.957031 176.703125 140.351562 176.703125 140.351562 180.300781 "/>
<path style=" stroke:none;fill-rule:nonzero;fill:rgb(100%,84.3%,0%);fill-opacity:1;" d="M 229.492188 168.261719 C 229.492188 171.855469 224.097656 171.855469 224.097656 168.261719 C 224.097656 164.664062 229.492188 164.664062 229.492188 168.261719 "/>
<path style=" stroke:none;fill-rule:nonzero;fill:rgb(100%,84.3%,0%);fill-opacity:1;" d="M 277.847656 156.75 C 277.847656 160.347656 272.453125 160.347656 272.453125 156.75 C 272.453125 153.152344 277.847656 153.152344 277.847656 156.75 "/>
<path style=" stroke:none;fill-rule:nonzero;fill:rgb(100%,84.3%,0%);fill-opacity:1;" d="M 143.046875 184.972656 C 143.046875 188.566406 137.652344 188.566406 137.652344 184.972656 C 137.652344 181.375 143.046875 181.375 143.046875 184.972656 "/>
<path style=" stroke:none;fill-rule:nonzero;fill:rgb(100%,84.3%,0%);fill-opacity:1;" d="M 237.585938 167.539062 C 237.585938 171.132812 232.191406 171.132812 232.191406 167.539062 C 232.191406 163.941406 237.585938 163.941406 237.585938 167.539062 "/>
<path style=" stroke:none;fill-rule:nonzero;fill:rgb(100%,84.3%,0%);fill-opacity:1;" d="M 322.25 166.816406 C 322.25 170.410156 316.855469 170.410156 316.855469 166.816406 C 316.855469 163.21875 322.25 163.21875 322.25 166.816406 "/>
<path style=" stroke:none;fill-rule:nonzero;fill:rgb(100%,84.3%,0%);fill-opacity:1;" d="M 283.238281 156.75 C 283.238281 160.347656 277.847656 160.347656 277.847656 156.75 C 277.847656 153.152344 283.238281 153.152344 283.238281 156.75 "/>
<path style=" stroke:none;fill-rule:nonzero;fill:rgb(100%,84.3%,0%);fill-opacity:1;" d="M 80.230469 188.921875 C 80.230469 192.515625 74.835938 192.515625 74.835938 188.921875 C 74.835938 185.324219 80.230469 185.324219 80.230469 188.921875 "/>
<path style=" stroke:none;fill-rule:nonzero;fill:rgb(100%,84.3%,0%);fill-opacity:1;" d="M 208.109375 186.222656 C 208.109375 189.820312 202.71875 189.820312 202.71875 186.222656 C 202.71875 182.628906 208.109375 182.628906 208.109375 186.222656 "/>
<path style=" stroke:none;fill-rule:nonzero;fill:rgb(100%,84.3%,0%);fill-opacity:1;" d="M 386.449219 174.183594 C 386.449219 177.78125 381.054688 177.78125 381.054688 174.183594 C 381.054688 170.589844 386.449219 170.589844 386.449219 174.183594 "/>
<path style=" stroke:none;fill-rule:nonzero;fill:rgb(100%,84.3%,0%);fill-opacity:1;" d="M 299.421875 156.75 C 299.421875 160.347656 294.027344 160.347656 294.027344 156.75 C 294.027344 153.152344 299.421875 153.152344 299.421875 156.75 "/>
<path style=" stroke:none;fill-rule:nonzero;fill:rgb(100%,84.3%,0%);fill-opacity:1;" d="M 280.542969 161.421875 C 280.542969 165.015625 275.148438 165.015625 275.148438 161.421875 C 275.148438 157.824219 280.542969 157.824219 280.542969 161.421875 "/>
<path style=" stroke:none;fill-rule:nonzero;fill:rgb(100%,84.3%,0%);fill-opacity:1;" d="M 461.242188 350.578125 C 461.242188 354.175781 455.847656 354.175781 455.847656 350.578125 C 455.847656 346.984375 461.242188 346.984375 461.242188 350.578125 "/>
<path style=" stroke:none;fill-rule:nonzero;fill:rgb(100%,84.3%,0%);fill-opacity:1;" d="M 90.296875 170.042969 C 90.296875 173.636719 84.902344 173.636719 84.902344 170.042969 C 84.902344 166.445312 90.296875 166.445312 90.296875 170.042969 "/>
<path style=" stroke:none;fill-rule:nonzero;fill:rgb(100%,84.3%,0%);fill-opacity:1;" d="M 326.390625 162.144531 C 326.390625 165.738281 320.996094 165.738281 320.996094 162.144531 C 320.996094 158.546875 326.390625 158.546875 326.390625 162.144531 "/>
<path style=" stroke:none;fill-rule:nonzero;fill:rgb(100%,84.3%,0%);fill-opacity:1;" d="M 69.441406 352.554688 C 69.441406 356.148438 64.050781 356.148438 64.050781 352.554688 C 64.050781 348.957031 69.441406 348.957031 69.441406 352.554688 "/>
<path style=" stroke:none;fill-rule:nonzero;fill:rgb(100%,84.3%,0%);fill-opacity:1;" d="M 205.414062 181.550781 C 205.414062 185.148438 200.019531 185.148438 200.019531 181.550781 C 200.019531 177.957031 205.414062 177.957031 205.414062 181.550781 "/>
<path style=" stroke:none;fill-rule:nonzero;fill:rgb(100%,84.3%,0%);fill-opacity:1;" d="M 285.214844 164.117188 C 285.214844 167.714844 279.820312 167.714844 279.820312 164.117188 C 279.820312 160.523438 285.214844 160.523438 285.214844 164.117188 "/>
<path style=" stroke:none;fill-rule:nonzero;fill:rgb(100%,84.3%,0%);fill-opacity:1;" d="M 447.226562 353.277344 C 447.226562 356.871094 441.835938 356.871094 441.835938 353.277344 C 441.835938 349.679688 447.226562 349.679688 447.226562 353.277344 "/>
<path style=" stroke:none;fill-rule:nonzero;fill:rgb(100%,84.3%,0%);fill-opacity:1;" d="M 356.058594 161.421875 C 356.058594 165.015625 350.664062 165.015625 350.664062 161.421875 C 350.664062 157.824219 356.058594 157.824219 356.058594 161.421875 "/>
<path style=" stroke:none;fill-rule:nonzero;fill:rgb(100%,84.3%,0%);fill-opacity:1;" d="M 336.457031 188.921875 C 336.457031 192.515625 331.0625 192.515625 331.0625 188.921875 C 331.0625 185.324219 336.457031 185.324219 336.457031 188.921875 "/>
<path style=" stroke:none;fill-rule:nonzero;fill:rgb(100%,84.3%,0%);fill-opacity:1;" d="M 256.992188 168.789062 C 256.992188 172.386719 251.597656 172.386719 251.597656 168.789062 C 251.597656 165.195312 256.992188 165.195312 256.992188 168.789062 "/>
<path style=" stroke:none;fill-rule:nonzero;fill:rgb(100%,84.3%,0%);fill-opacity:1;" d="M 100.363281 167.34375 C 100.363281 170.941406 94.96875 170.941406 94.96875 167.34375 C 94.96875 163.75 100.363281 163.75 100.363281 167.34375 "/>
<path style=" stroke:none;fill-rule:nonzero;fill:rgb(100%,84.3%,0%);fill-opacity:1;" d="M 80.230469 163.394531 C 80.230469 166.992188 74.835938 166.992188 74.835938 163.394531 C 74.835938 159.800781 80.230469 159.800781 80.230469 163.394531 "/>
<path style=" stroke:none;fill-rule:nonzero;fill:rgb(100%,84.3%,0%);fill-opacity:1;" d="M 215.480469 164.117188 C 215.480469 167.714844 210.085938 167.714844 210.085938 164.117188 C 210.085938 160.523438 215.480469 160.523438 215.480469 164.117188 "/>
<path style=" stroke:none;fill-rule:nonzero;fill:rgb(100%,84.3%,0%);fill-opacity:1;" d="M 413.082031 341.234375 C 413.082031 344.832031 407.6875 344.832031 407.6875 341.234375 C 407.6875 337.640625 413.082031 337.640625 413.082031 341.234375 "/>
<path style=" stroke:none;fill-rule:nonzero;fill:rgb(100%,84.3%,0%);fill-opacity:1;" d="M 75.558594 175.4375 C 75.558594 179.03125 70.164062 179.03125 70.164062 175.4375 C 70.164062 171.839844 75.558594 171.839844 75.558594 175.4375 "/>
<path style=" stroke:none;fill-rule:nonzero;fill:rgb(100%,84.3%,0%);fill-opacity:1;" d="M 125.613281 180.300781 C 125.613281 183.898438 120.21875 183.898438 120.21875 180.300781 C 120.21875 176.703125 125.613281 176.703125 125.613281 180.300781 "/>
<path style=" stroke:none;fill-rule:nonzero;fill:rgb(100%,84.3%,0%);fill-opacity:1;" d="M 200.019531 161.421875 C 200.019531 165.015625 194.625 165.015625 194.625 161.421875 C 194.625 157.824219 200.019531 157.824219 200.019531 161.421875 "/>
<path style=" stroke:none;fill-rule:nonzero;fill:rgb(100%,84.3%,0%);fill-opacity:1;" d="M 428.878906 156.75 C 428.878906 160.347656 423.484375 160.347656 423.484375 156.75 C 423.484375 153.152344 428.878906 153.152344 428.878906 156.75 "/>
<path style=" stroke:none;fill-rule:nonzero;fill:rgb(100%,84.3%,0%);fill-opacity:1;" d="M 299.421875 167.539062 C 299.421875 171.132812 294.027344 171.132812 294.027344 167.539062 C 294.027344 163.941406 299.421875 163.941406 299.421875 167.539062 "/>
<path style=" stroke:none;fill-rule:nonzero;fill:rgb(100%,84.3%,0%);fill-opacity:1;" d="M 371.519531 169.511719 C 371.519531 173.109375 366.125 173.109375 366.125 169.511719 C 366.125 165.914062 371.519531 165.914062 371.519531 169.511719 "/>
<path style=" stroke:none;fill-rule:nonzero;fill:rgb(100%,84.3%,0%);fill-opacity:1;" d="M 466.636719 156.75 C 466.636719 160.347656 461.242188 160.347656 461.242188 156.75 C 461.242188 153.152344 466.636719 153.152344 466.636719 156.75 "/>
<path style=" stroke:none;fill-rule:nonzero;fill:rgb(100%,84.3%,0%);fill-opacity:1;" d="M 220.148438 166.816406 C 220.148438 170.410156 214.757812 170.410156 214.757812 166.816406 C 214.757812 163.21875 220.148438 163.21875 220.148438 166.816406 "/>
<path style=" stroke:none;fill-rule:nonzero;fill:rgb(100%,84.3%,0%);fill-opacity:1;" d="M 80.230469 178.132812 C 80.230469 181.730469 74.835938 181.730469 74.835938 178.132812 C 74.835938 174.535156 80.230469 174.535156 80.230469 178.132812 "/>
<path style=" stroke:none;fill-rule:nonzero;fill:rgb(100%,84.3%,0%);fill-opacity:1;" d="M 169.824219 169.511719 C 169.824219 173.109375 164.429688 173.109375 164.429688 169.511719 C 164.429688 165.914062 169.824219 165.914062 169.824219 169.511719 "/>
<path style=" stroke:none;fill-rule:nonzero;fill:rgb(100%,84.3%,0%);fill-opacity:1;" d="M 323.695312 172.210938 C 323.695312 175.804688 318.300781 175.804688 318.300781 172.210938 C 318.300781 168.613281 323.695312 168.613281 323.695312 172.210938 "/>
<path style=" stroke:none;fill-rule:nonzero;fill:rgb(100%,84.3%,0%);fill-opacity:1;" d="M 251.597656 174.183594 C 251.597656 177.78125 246.203125 177.78125 246.203125 174.183594 C 246.203125 170.589844 251.597656 170.589844 251.597656 174.183594 "/>
<path style=" stroke:none;fill-rule:nonzero;fill:rgb(100%,84.3%,0%);fill-opacity:1;" d="M 445.058594 162.144531 C 445.058594 165.738281 439.664062 165.738281 439.664062 162.144531 C 439.664062 158.546875 445.058594 158.546875 445.058594 162.144531 "/>
<path style=" stroke:none;fill-rule:nonzero;fill:rgb(100%,84.3%,0%);fill-opacity:1;" d="M 407.300781 156.75 C 407.300781 160.347656 401.90625 160.347656 401.90625 156.75 C 401.90625 153.152344 407.300781 153.152344 407.300781 156.75 "/>
<path style=" stroke:none;fill-rule:nonzero;fill:rgb(100%,84.3%,0%);fill-opacity:1;" d="M 72.140625 347.882812 C 72.140625 351.476562 66.746094 351.476562 66.746094 347.882812 C 66.746094 344.285156 72.140625 344.285156 72.140625 347.882812 "/>
<path style=" stroke:none;fill-rule:nonzero;fill:rgb(100%,84.3%,0%);fill-opacity:1;" d="M 177.914062 174.183594 C 177.914062 177.78125 172.519531 177.78125 172.519531 174.183594 C 172.519531 170.589844 177.914062 170.589844 177.914062 174.183594 "/>
<path style=" stroke:none;fill-rule:nonzero;fill:rgb(100%,84.3%,0%);fill-opacity:1;" d="M 437.886719 353.277344 C 437.886719 356.871094 432.492188 356.871094 432.492188 353.277344 C 432.492188 349.679688 437.886719 349.679688 437.886719 353.277344 "/>
<path style=" stroke:none;fill-rule:nonzero;fill:rgb(100%,84.3%,0%);fill-opacity:1;" d="M 329.089844 172.210938 C 329.089844 175.804688 323.695312 175.804688 323.695312 172.210938 C 323.695312 168.613281 329.089844 168.613281 329.089844 172.210938 "/>
<path style=" stroke:none;fill-rule:nonzero;fill:rgb(100%,84.3%,0%);fill-opacity:1;" d="M 195.347656 164.117188 C 195.347656 167.714844 189.953125 167.714844 189.953125 164.117188 C 189.953125 160.523438 195.347656 160.523438 195.347656 164.117188 "/>
<path style=" stroke:none;fill-rule:nonzero;fill:rgb(100%,84.3%,0%);fill-opacity:1;" d="M 151.136719 165.5625 C 151.136719 169.160156 145.742188 169.160156 145.742188 165.5625 C 145.742188 161.96875 151.136719 161.96875 151.136719 165.5625 "/>
<path style=" stroke:none;fill-rule:nonzero;fill:rgb(100%,84.3%,0%);fill-opacity:1;" d="M 232.191406 156.75 C 232.191406 160.347656 226.796875 160.347656 226.796875 156.75 C 226.796875 153.152344 232.191406 153.152344 232.191406 156.75 "/>
<path style=" stroke:none;fill-rule:nonzero;fill:rgb(100%,84.3%,0%);fill-opacity:1;" d="M 334.484375 166.816406 C 334.484375 170.410156 329.089844 170.410156 329.089844 166.816406 C 329.089844 163.21875 334.484375 163.21875 334.484375 166.816406 "/>
<path style=" stroke:none;fill-rule:nonzero;fill:rgb(100%,84.3%,0%);fill-opacity:1;" d="M 456.570312 347.882812 C 456.570312 351.476562 451.175781 351.476562 451.175781 347.882812 C 451.175781 344.285156 456.570312 344.285156 456.570312 347.882812 "/>
<path style=" stroke:none;fill-rule:nonzero;fill:rgb(100%,84.3%,0%);fill-opacity:1;" d="M 172.519531 179.578125 C 172.519531 183.175781 167.125 183.175781 167.125 179.578125 C 167.125 175.980469 172.519531 175.980469 172.519531 179.578125 "/>
<path style=" stroke:none;fill-rule:nonzero;fill:rgb(100%,84.3%,0%);fill-opacity:1;" d="M 267.058594 166.09375 C 267.058594 169.6875 261.664062 169.6875 261.664062 166.09375 C 261.664062 162.496094 267.058594 162.496094 267.058594 166.09375 "/>
<path style=" stroke:none;fill-rule:nonzero;fill:rgb(100%,84.3%,0%);fill-opacity:1;" d="M 333.761719 184.25 C 333.761719 187.84375 328.367188 187.84375 328.367188 184.25 C 328.367188 180.652344 333.761719 180.652344 333.761719 184.25 "/>
<path style=" stroke:none;fill-rule:nonzero;fill:rgb(100%,84.3%,0%);fill-opacity:1;" d="M 455.847656 156.75 C 455.847656 160.347656 450.453125 160.347656 450.453125 156.75 C 450.453125 153.152344 455.847656 153.152344 455.847656 156.75 "/>
<path style=" stroke:none;fill-rule:nonzero;fill:rgb(100%,84.3%,0%);fill-opacity:1;" d="M 256.269531 156.75 C 256.269531 160.347656 250.875 160.347656 250.875 156.75 C 250.875 153.152344 256.269531 153.152344 256.269531 156.75 "/>
<path style=" stroke:none;fill-rule:nonzero;fill:rgb(100%,84.3%,0%);fill-opacity:1;" d="M 172.519531 174.183594 C 172.519531 177.78125 167.125 177.78125 167.125 174.183594 C 167.125 170.589844 172.519531 170.589844 172.519531 174.183594 "/>
<path style=" stroke:none;fill-rule:nonzero;fill:rgb(100%,84.3%,0%);fill-opacity:1;" d="M 187.980469 176.882812 C 187.980469 180.476562 182.585938 180.476562 182.585938 176.882812 C 182.585938 173.285156 187.980469 173.285156 187.980469 176.882812 "/>
<path style=" stroke:none;fill-rule:nonzero;fill:rgb(100%,84.3%,0%);fill-opacity:1;" d="M 254.296875 164.117188 C 254.296875 167.714844 248.902344 167.714844 248.902344 164.117188 C 248.902344 160.523438 254.296875 160.523438 254.296875 164.117188 "/>
<path style=" stroke:none;fill-rule:nonzero;fill:rgb(100%,84.3%,0%);fill-opacity:1;" d="M 135.679688 177.605469 C 135.679688 181.199219 130.285156 181.199219 130.285156 177.605469 C 130.285156 174.007812 135.679688 174.007812 135.679688 177.605469 "/>
<path style=" stroke:none;fill-rule:nonzero;fill:rgb(100%,84.3%,0%);fill-opacity:1;" d="M 364.148438 156.75 C 364.148438 160.347656 358.757812 160.347656 358.757812 156.75 C 358.757812 153.152344 364.148438 153.152344 364.148438 156.75 "/>
<path style=" stroke:none;fill-rule:nonzero;fill:rgb(100%,84.3%,0%);fill-opacity:1;" d="M 58.125 176.15625 C 58.125 179.753906 52.730469 179.753906 52.730469 176.15625 C 52.730469 172.5625 58.125 172.5625 58.125 176.15625 "/>
<path style=" stroke:none;fill-rule:nonzero;fill:rgb(100%,84.3%,0%);fill-opacity:1;" d="M 299.421875 162.144531 C 299.421875 165.738281 294.027344 165.738281 294.027344 162.144531 C 294.027344 158.546875 299.421875 158.546875 299.421875 162.144531 "/>
<path style=" stroke:none;fill-rule:nonzero;fill:rgb(100%,84.3%,0%);fill-opacity:1;" d="M 272.453125 156.75 C 272.453125 160.347656 267.058594 160.347656 267.058594 156.75 C 267.058594 153.152344 272.453125 153.152344 272.453125 156.75 "/>
<path style=" stroke:none;fill-rule:nonzero;fill:rgb(100%,84.3%,0%);fill-opacity:1;" d="M 451.175781 164.839844 C 451.175781 168.4375 445.78125 168.4375 445.78125 164.839844 C 445.78125 161.246094 451.175781 161.246094 451.175781 164.839844 "/>
<path style=" stroke:none;fill-rule:nonzero;fill:rgb(100%,84.3%,0%);fill-opacity:1;" d="M 455.847656 162.144531 C 455.847656 165.738281 450.453125 165.738281 450.453125 162.144531 C 450.453125 158.546875 455.847656 158.546875 455.847656 162.144531 "/>
<path style=" stroke:none;fill-rule:nonzero;fill:rgb(100%,84.3%,0%);fill-opacity:1;" d="M 317.578125 169.511719 C 317.578125 173.109375 312.183594 173.109375 312.183594 169.511719 C 312.183594 165.914062 317.578125 165.914062 317.578125 169.511719 "/>
<path style=" stroke:none;fill-rule:nonzero;fill:rgb(100%,84.3%,0%);fill-opacity:1;" d="M 220.148438 172.210938 C 220.148438 175.804688 214.757812 175.804688 214.757812 172.210938 C 214.757812 168.613281 220.148438 168.613281 220.148438 172.210938 "/>
<path style=" stroke:none;fill-rule:nonzero;fill:rgb(100%,84.3%,0%);fill-opacity:1;" d="M 431.574219 161.421875 C 431.574219 165.015625 426.179688 165.015625 426.179688 161.421875 C 426.179688 157.824219 431.574219 157.824219 431.574219 161.421875 "/>
<path style=" stroke:none;fill-rule:nonzero;fill:rgb(100%,84.3%,0%);fill-opacity:1;" d="M 151.136719 185.695312 C 151.136719 189.289062 145.742188 189.289062 145.742188 185.695312 C 145.742188 182.097656 151.136719 182.097656 151.136719 185.695312 "/>
<path style=" stroke:none;fill-rule:nonzero;fill:rgb(100%,84.3%,0%);fill-opacity:1;" d="M 251.597656 159.445312 C 251.597656 163.042969 246.203125 163.042969 246.203125 159.445312 C 246.203125 155.851562 251.597656 155.851562 251.597656 159.445312 "/>
<path style=" stroke:none;fill-rule:nonzero;fill:rgb(100%,84.3%,0%);fill-opacity:1;" d="M 189.953125 169.511719 C 189.953125 173.109375 184.558594 173.109375 184.558594 169.511719 C 184.558594 165.914062 189.953125 165.914062 189.953125 169.511719 "/>
<path style=" stroke:none;fill-rule:nonzero;fill:rgb(100%,84.3%,0%);fill-opacity:1;" d="M 267.058594 156.75 C 267.058594 160.347656 261.664062 160.347656 261.664062 156.75 C 261.664062 153.152344 267.058594 153.152344 267.058594 156.75 "/>
<path style=" stroke:none;fill-rule:nonzero;fill:rgb(100%,84.3%,0%);fill-opacity:1;" d="M 55.429688 171.488281 C 55.429688 175.082031 50.035156 175.082031 50.035156 171.488281 C 50.035156 167.890625 55.429688 167.890625 55.429688 171.488281 "/>
<path style=" stroke:none;fill-rule:nonzero;fill:rgb(100%,84.3%,0%);fill-opacity:1;" d="M 407.6875 341.234375 C 407.6875 344.832031 402.296875 344.832031 402.296875 341.234375 C 402.296875 337.640625 407.6875 337.640625 407.6875 341.234375 "/>
<path style=" stroke:none;fill-rule:nonzero;fill:rgb(100%,84.3%,0%);fill-opacity:1;" d="M 280.542969 166.816406 C 280.542969 170.410156 275.148438 170.410156 275.148438 166.816406 C 275.148438 163.21875 280.542969 163.21875 280.542969 166.816406 "/>
<path style=" stroke:none;fill-rule:nonzero;fill:rgb(100%,84.3%,0%);fill-opacity:1;" d="M 426.179688 166.816406 C 426.179688 170.410156 420.785156 170.410156 420.785156 166.816406 C 420.785156 163.21875 426.179688 163.21875 426.179688 166.816406 "/>
<path style=" stroke:none;fill-rule:nonzero;fill:rgb(100%,84.3%,0%);fill-opacity:1;" d="M 208.109375 176.882812 C 208.109375 180.476562 202.71875 180.476562 202.71875 176.882812 C 202.71875 173.285156 208.109375 173.285156 208.109375 176.882812 "/>
<path style=" stroke:none;fill-rule:nonzero;fill:rgb(100%,84.3%,0%);fill-opacity:1;" d="M 426.179688 161.421875 C 426.179688 165.015625 420.785156 165.015625 420.785156 161.421875 C 420.785156 157.824219 426.179688 157.824219 426.179688 161.421875 "/>
<path style=" stroke:none;fill-rule:nonzero;fill:rgb(100%,84.3%,0%);fill-opacity:1;" d="M 212.78125 174.183594 C 212.78125 177.78125 207.386719 177.78125 207.386719 174.183594 C 207.386719 170.589844 212.78125 170.589844 212.78125 174.183594 "/>
<path style=" stroke:none;fill-rule:nonzero;fill:rgb(100%,84.3%,0%);fill-opacity:1;" d="M 342.574219 156.75 C 342.574219 160.347656 337.179688 160.347656 337.179688 156.75 C 337.179688 153.152344 342.574219 153.152344 342.574219 156.75 "/>
<path style=" stroke:none;fill-rule:nonzero;fill:rgb(100%,84.3%,0%);fill-opacity:1;" d="M 62.796875 164.117188 C 62.796875 167.714844 57.402344 167.714844 57.402344 164.117188 C 57.402344 160.523438 62.796875 160.523438 62.796875 164.117188 "/>
<path style=" stroke:none;fill-rule:nonzero;fill:rgb(100%,84.3%,0%);fill-opacity:1;" d="M 420.785156 166.816406 C 420.785156 170.410156 415.394531 170.410156 415.394531 166.816406 C 415.394531 163.21875 420.785156 163.21875 420.785156 166.816406 "/>
<path style=" stroke:none;fill-rule:nonzero;fill:rgb(100%,84.3%,0%);fill-opacity:1;" d="M 418.476562 341.234375 C 418.476562 344.832031 413.082031 344.832031 413.082031 341.234375 C 413.082031 337.640625 418.476562 337.640625 418.476562 341.234375 "/>
<path style=" stroke:none;fill-rule:nonzero;fill:rgb(100%,84.3%,0%);fill-opacity:1;" d="M 52.730469 350.578125 C 52.730469 354.175781 47.339844 354.175781 47.339844 350.578125 C 47.339844 346.984375 52.730469 346.984375 52.730469 350.578125 "/>
<path style=" stroke:none;fill-rule:nonzero;fill:rgb(100%,84.3%,0%);fill-opacity:1;" d="M 130.285156 177.605469 C 130.285156 181.199219 124.890625 181.199219 124.890625 177.605469 C 124.890625 174.007812 130.285156 174.007812 130.285156 177.605469 "/>
<path style=" stroke:none;fill-rule:nonzero;fill:rgb(100%,84.3%,0%);fill-opacity:1;" d="M 52.730469 176.15625 C 52.730469 179.753906 47.339844 179.753906 47.339844 176.15625 C 47.339844 172.5625 52.730469 172.5625 52.730469 176.15625 "/>
<path style=" stroke:none;fill-rule:nonzero;fill:rgb(100%,84.3%,0%);fill-opacity:1;" d="M 346.714844 166.816406 C 346.714844 170.410156 341.320312 170.410156 341.320312 166.816406 C 341.320312 163.21875 346.714844 163.21875 346.714844 166.816406 "/>
<path style=" stroke:none;fill-rule:nonzero;fill:rgb(100%,84.3%,0%);fill-opacity:1;" d="M 358.757812 171.488281 C 358.757812 175.082031 353.363281 175.082031 353.363281 171.488281 C 353.363281 167.890625 358.757812 167.890625 358.757812 171.488281 "/>
<path style=" stroke:none;fill-rule:nonzero;fill:rgb(100%,84.3%,0%);fill-opacity:1;" d="M 363.425781 174.183594 C 363.425781 177.78125 358.03125 177.78125 358.03125 174.183594 C 358.03125 170.589844 363.425781 170.589844 363.425781 174.183594 "/>
<path style=" stroke:none;fill-rule:nonzero;fill:rgb(100%,84.3%,0%);fill-opacity:1;" d="M 191.929688 156.75 C 191.929688 160.347656 186.535156 160.347656 186.535156 156.75 C 186.535156 153.152344 191.929688 153.152344 191.929688 156.75 "/>
<path style=" stroke:none;fill-rule:nonzero;fill:rgb(100%,84.3%,0%);fill-opacity:1;" d="M 413.082031 346.628906 C 413.082031 350.226562 407.6875 350.226562 407.6875 346.628906 C 407.6875 343.035156 413.082031 343.035156 413.082031 346.628906 "/>
<path style=" stroke:none;fill-rule:nonzero;fill:rgb(100%,84.3%,0%);fill-opacity:1;" d="M 277.847656 176.882812 C 277.847656 180.476562 272.453125 180.476562 272.453125 176.882812 C 272.453125 173.285156 277.847656 173.285156 277.847656 176.882812 "/>
<path style=" stroke:none;fill-rule:nonzero;fill:rgb(100%,84.3%,0%);fill-opacity:1;" d="M 377.636719 161.421875 C 377.636719 165.015625 372.242188 165.015625 372.242188 161.421875 C 372.242188 157.824219 377.636719 157.824219 377.636719 161.421875 "/>
<path style=" stroke:none;fill-rule:nonzero;fill:rgb(100%,84.3%,0%);fill-opacity:1;" d="M 427.820312 341.234375 C 427.820312 344.832031 422.425781 344.832031 422.425781 341.234375 C 422.425781 337.640625 427.820312 337.640625 427.820312 341.234375 "/>
<path style=" stroke:none;fill-rule:nonzero;fill:rgb(100%,84.3%,0%);fill-opacity:1;" d="M 283.238281 176.882812 C 283.238281 180.476562 277.847656 180.476562 277.847656 176.882812 C 277.847656 173.285156 283.238281 173.285156 283.238281 176.882812 "/>
<path style=" stroke:none;fill-rule:nonzero;fill:rgb(100%,84.3%,0%);fill-opacity:1;" d="M 143.769531 172.933594 C 143.769531 176.527344 138.375 176.527344 138.375 172.933594 C 138.375 169.335938 143.769531 169.335938 143.769531 172.933594 "/>
<path style=" stroke:none;fill-rule:nonzero;fill:rgb(100%,84.3%,0%);fill-opacity:1;" d="M 251.597656 168.789062 C 251.597656 172.386719 246.203125 172.386719 246.203125 168.789062 C 246.203125 165.195312 251.597656 165.195312 251.597656 168.789062 "/>
<path style=" stroke:none;fill-rule:nonzero;fill:rgb(100%,84.3%,0%);fill-opacity:1;" d="M 342.574219 162.144531 C 342.574219 165.738281 337.179688 165.738281 337.179688 162.144531 C 337.179688 158.546875 342.574219 158.546875 342.574219 162.144531 "/>
<path style=" stroke:none;fill-rule:nonzero;fill:rgb(100%,84.3%,0%);fill-opacity:1;" d="M 58.125 161.421875 C 58.125 165.015625 52.730469 165.015625 52.730469 161.421875 C 52.730469 157.824219 58.125 157.824219 58.125 161.421875 "/>
<path style=" stroke:none;fill-rule:nonzero;fill:rgb(100%,84.3%,0%);fill-opacity:1;" d="M 232.191406 172.933594 C 232.191406 176.527344 226.796875 176.527344 226.796875 172.933594 C 226.796875 169.335938 232.191406 169.335938 232.191406 172.933594 "/>
<path style=" stroke:none;fill-rule:nonzero;fill:rgb(100%,84.3%,0%);fill-opacity:1;" d="M 222.847656 156.75 C 222.847656 160.347656 217.453125 160.347656 217.453125 156.75 C 217.453125 153.152344 222.847656 153.152344 222.847656 156.75 "/>
<path style=" stroke:none;fill-rule:nonzero;fill:rgb(100%,84.3%,0%);fill-opacity:1;" d="M 242.253906 164.839844 C 242.253906 168.4375 236.859375 168.4375 236.859375 164.839844 C 236.859375 161.246094 242.253906 161.246094 242.253906 164.839844 "/>
<path style=" stroke:none;fill-rule:nonzero;fill:rgb(100%,84.3%,0%);fill-opacity:1;" d="M 347.96875 156.75 C 347.96875 160.347656 342.574219 160.347656 342.574219 156.75 C 342.574219 153.152344 347.96875 153.152344 347.96875 156.75 "/>
<path style=" stroke:none;fill-rule:nonzero;fill:rgb(100%,84.3%,0%);fill-opacity:1;" d="M 374.9375 156.75 C 374.9375 160.347656 369.542969 160.347656 369.542969 156.75 C 369.542969 153.152344 374.9375 153.152344 374.9375 156.75 "/>
<path style=" stroke:none;fill-rule:nonzero;fill:rgb(100%,84.3%,0%);fill-opacity:1;" d="M 237.585938 156.75 C 237.585938 160.347656 232.191406 160.347656 232.191406 156.75 C 232.191406 153.152344 237.585938 153.152344 237.585938 156.75 "/>
<path style=" stroke:none;fill-rule:nonzero;fill:rgb(100%,84.3%,0%);fill-opacity:1;" d="M 64.773438 355.25 C 64.773438 358.847656 59.378906 358.847656 59.378906 355.25 C 59.378906 351.652344 64.773438 351.652344 64.773438 355.25 "/>
<path style=" stroke:none;fill-rule:nonzero;fill:rgb(100%,84.3%,0%);fill-opacity:1;" d="M 427.820312 346.628906 C 427.820312 350.226562 422.425781 350.226562 422.425781 346.628906 C 422.425781 343.035156 427.820312 343.035156 427.820312 346.628906 "/>
<path style=" stroke:none;fill-rule:nonzero;fill:rgb(100%,84.3%,0%);fill-opacity:1;" d="M 212.78125 159.445312 C 212.78125 163.042969 207.386719 163.042969 207.386719 159.445312 C 207.386719 155.851562 212.78125 155.851562 212.78125 159.445312 "/>
<path style=" stroke:none;fill-rule:nonzero;fill:rgb(100%,84.3%,0%);fill-opacity:1;" d="M 84.902344 170.042969 C 84.902344 173.636719 79.507812 173.636719 79.507812 170.042969 C 79.507812 166.445312 84.902344 166.445312 84.902344 170.042969 "/>
<path style=" stroke:none;fill-rule:nonzero;fill:rgb(100%,84.3%,0%);fill-opacity:1;" d="M 393.09375 169.511719 C 393.09375 173.109375 387.699219 173.109375 387.699219 169.511719 C 387.699219 165.914062 393.09375 165.914062 393.09375 169.511719 "/>
<path style=" stroke:none;fill-rule:nonzero;fill:rgb(100%,84.3%,0%);fill-opacity:1;" d="M 210.085938 169.511719 C 210.085938 173.109375 204.691406 173.109375 204.691406 169.511719 C 204.691406 165.914062 210.085938 165.914062 210.085938 169.511719 "/>
<path style=" stroke:none;fill-rule:nonzero;fill:rgb(100%,84.3%,0%);fill-opacity:1;" d="M 261.664062 166.09375 C 261.664062 169.6875 256.269531 169.6875 256.269531 166.09375 C 256.269531 162.496094 261.664062 162.496094 261.664062 166.09375 "/>
<path style=" stroke:none;fill-rule:nonzero;fill:rgb(100%,84.3%,0%);fill-opacity:1;" d="M 78.257812 170.765625 C 78.257812 174.359375 72.863281 174.359375 72.863281 170.765625 C 72.863281 167.167969 78.257812 167.167969 78.257812 170.765625 "/>
<path style=" stroke:none;fill-rule:nonzero;fill:rgb(100%,84.3%,0%);fill-opacity:1;" d="M 218.175781 159.445312 C 218.175781 163.042969 212.78125 163.042969 212.78125 159.445312 C 212.78125 155.851562 218.175781 155.851562 218.175781 159.445312 "/>
<path style=" stroke:none;fill-rule:nonzero;fill:rgb(100%,84.3%,0%);fill-opacity:1;" d="M 205.414062 166.816406 C 205.414062 170.410156 200.019531 170.410156 200.019531 166.816406 C 200.019531 163.21875 205.414062 163.21875 205.414062 166.816406 "/>
<path style=" stroke:none;fill-rule:nonzero;fill:rgb(100%,84.3%,0%);fill-opacity:1;" d="M 97.664062 162.671875 C 97.664062 166.269531 92.269531 166.269531 92.269531 162.671875 C 92.269531 159.078125 97.664062 159.078125 97.664062 162.671875 "/>
<path style=" stroke:none;fill-rule:nonzero;fill:rgb(100%,84.3%,0%);fill-opacity:1;" d="M 261.664062 156.75 C 261.664062 160.347656 256.269531 160.347656 256.269531 156.75 C 256.269531 153.152344 261.664062 153.152344 261.664062 156.75 "/>
<path style=" stroke:none;fill-rule:nonzero;fill:rgb(100%,84.3%,0%);fill-opacity:1;" d="M 410.722656 169.511719 C 410.722656 173.109375 405.328125 173.109375 405.328125 169.511719 C 405.328125 165.914062 410.722656 165.914062 410.722656 169.511719 "/>
<path style=" stroke:none;fill-rule:nonzero;fill:rgb(100%,84.3%,0%);fill-opacity:1;" d="M 187.257812 159.445312 C 187.257812 163.042969 181.863281 163.042969 181.863281 159.445312 C 181.863281 155.851562 187.257812 155.851562 187.257812 159.445312 "/>
<path style=" stroke:none;fill-rule:nonzero;fill:rgb(100%,84.3%,0%);fill-opacity:1;" d="M 434.273438 156.75 C 434.273438 160.347656 428.878906 160.347656 428.878906 156.75 C 428.878906 153.152344 434.273438 153.152344 434.273438 156.75 "/>
<path style=" stroke:none;fill-rule:nonzero;fill:rgb(100%,84.3%,0%);fill-opacity:1;" d="M 141.074219 168.261719 C 141.074219 171.855469 135.679688 171.855469 135.679688 168.261719 C 135.679688 164.664062 141.074219 164.664062 141.074219 168.261719 "/>
<path style=" stroke:none;fill-rule:nonzero;fill:rgb(100%,84.3%,0%);fill-opacity:1;" d="M 312.90625 161.421875 C 312.90625 165.015625 307.511719 165.015625 307.511719 161.421875 C 307.511719 157.824219 312.90625 157.824219 312.90625 161.421875 "/>
<path style=" stroke:none;fill-rule:nonzero;fill:rgb(100%,84.3%,0%);fill-opacity:1;" d="M 182.585938 156.75 C 182.585938 160.347656 177.191406 160.347656 177.191406 156.75 C 177.191406 153.152344 182.585938 153.152344 182.585938 156.75 "/>
<path style=" stroke:none;fill-rule:nonzero;fill:rgb(100%,84.3%,0%);fill-opacity:1;" d="M 432.492188 343.933594 C 432.492188 347.527344 427.097656 347.527344 427.097656 343.933594 C 427.097656 340.335938 432.492188 340.335938 432.492188 343.933594 "/>
<path style=" stroke:none;fill-rule:nonzero;fill:rgb(100%,84.3%,0%);fill-opacity:1;" d="M 246.925781 156.75 C 246.925781 160.347656 241.53125 160.347656 241.53125 156.75 C 241.53125 153.152344 246.925781 153.152344 246.925781 156.75 "/>
<path style=" stroke:none;fill-rule:nonzero;fill:rgb(100%,84.3%,0%);fill-opacity:1;" d="M 380.332031 156.75 C 380.332031 160.347656 374.9375 160.347656 374.9375 156.75 C 374.9375 153.152344 380.332031 153.152344 380.332031 156.75 "/>
<path style=" stroke:none;fill-rule:nonzero;fill:rgb(100%,84.3%,0%);fill-opacity:1;" d="M 264.359375 161.421875 C 264.359375 165.015625 258.96875 165.015625 258.96875 161.421875 C 258.96875 157.824219 264.359375 157.824219 264.359375 161.421875 "/>
<path style=" stroke:none;fill-rule:nonzero;fill:rgb(100%,84.3%,0%);fill-opacity:1;" d="M 84.902344 175.4375 C 84.902344 179.03125 79.507812 179.03125 79.507812 175.4375 C 79.507812 171.839844 84.902344 171.839844 84.902344 175.4375 "/>
<path style=" stroke:none;fill-rule:nonzero;fill:rgb(100%,84.3%,0%);fill-opacity:1;" d="M 329.089844 166.816406 C 329.089844 170.410156 323.695312 170.410156 323.695312 166.816406 C 323.695312 163.21875 329.089844 163.21875 329.089844 166.816406 "/>
<path style=" stroke:none;fill-rule:nonzero;fill:rgb(100%,84.3%,0%);fill-opacity:1;" d="M 460.519531 164.839844 C 460.519531 168.4375 455.125 168.4375 455.125 164.839844 C 455.125 161.246094 460.519531 161.246094 460.519531 164.839844 "/>
<path style=" stroke:none;fill-rule:nonzero;fill:rgb(100%,84.3%,0%);fill-opacity:1;" d="M 465.191406 162.144531 C 465.191406 165.738281 459.796875 165.738281 459.796875 162.144531 C 459.796875 158.546875 465.191406 158.546875 465.191406 162.144531 "/>
<path style=" stroke:none;fill-rule:nonzero;fill:rgb(100%,84.3%,0%);fill-opacity:1;" d="M 317.578125 164.117188 C 317.578125 167.714844 312.183594 167.714844 312.183594 164.117188 C 312.183594 160.523438 317.578125 160.523438 317.578125 164.117188 "/>
<path style=" stroke:none;fill-rule:nonzero;fill:rgb(100%,84.3%,0%);fill-opacity:1;" d="M 334.484375 161.421875 C 334.484375 165.015625 329.089844 165.015625 329.089844 161.421875 C 329.089844 157.824219 334.484375 157.824219 334.484375 161.421875 "/>
<path style=" stroke:none;fill-rule:nonzero;fill:rgb(100%,84.3%,0%);fill-opacity:1;" d="M 87.601562 165.371094 C 87.601562 168.964844 82.207031 168.964844 82.207031 165.371094 C 82.207031 161.773438 87.601562 161.773438 87.601562 165.371094 "/>
<path style=" stroke:none;fill-rule:nonzero;fill:rgb(100%,84.3%,0%);fill-opacity:1;" d="M 351.386719 169.511719 C 351.386719 173.109375 345.992188 173.109375 345.992188 169.511719 C 345.992188 165.914062 351.386719 165.914062 351.386719 169.511719 "/>
<path style=" stroke:none;fill-rule:nonzero;fill:rgb(100%,84.3%,0%);fill-opacity:1;" d="M 423.484375 156.75 C 423.484375 160.347656 418.089844 160.347656 418.089844 156.75 C 418.089844 153.152344 423.484375 153.152344 423.484375 156.75 "/>
<path style=" stroke:none;fill-rule:nonzero;fill:rgb(100%,84.3%,0%);fill-opacity:1;" d="M 439.664062 162.144531 C 439.664062 165.738281 434.273438 165.738281 434.273438 162.144531 C 434.273438 158.546875 439.664062 158.546875 439.664062 162.144531 "/>
<path style=" stroke:none;fill-rule:nonzero;fill:rgb(100%,84.3%,0%);fill-opacity:1;" d="M 240.28125 177.605469 C 240.28125 181.199219 234.886719 181.199219 234.886719 177.605469 C 234.886719 174.007812 240.28125 174.007812 240.28125 177.605469 "/>
<path style=" stroke:none;fill-rule:nonzero;fill:rgb(100%,84.3%,0%);fill-opacity:1;" d="M 237.585938 162.144531 C 237.585938 165.738281 232.191406 165.738281 232.191406 162.144531 C 232.191406 158.546875 237.585938 158.546875 237.585938 162.144531 "/>
<path style=" stroke:none;fill-rule:nonzero;fill:rgb(100%,84.3%,0%);fill-opacity:1;" d="M 269.753906 161.421875 C 269.753906 165.015625 264.359375 165.015625 264.359375 161.421875 C 264.359375 157.824219 269.753906 157.824219 269.753906 161.421875 "/>
<path style=" stroke:none;fill-rule:nonzero;fill:rgb(100%,84.3%,0%);fill-opacity:1;" d="M 103.058594 172.015625 C 103.058594 175.613281 97.664062 175.613281 97.664062 172.015625 C 97.664062 168.421875 103.058594 168.421875 103.058594 172.015625 "/>
<path style=" stroke:none;fill-rule:nonzero;fill:rgb(100%,84.3%,0%);fill-opacity:1;" d="M 269.753906 170.765625 C 269.753906 174.359375 264.359375 174.359375 264.359375 170.765625 C 264.359375 167.167969 269.753906 167.167969 269.753906 170.765625 "/>
<path style=" stroke:none;fill-rule:nonzero;fill:rgb(100%,84.3%,0%);fill-opacity:1;" d="M 153.835938 175.628906 C 153.835938 179.226562 148.441406 179.226562 148.441406 175.628906 C 148.441406 172.03125 153.835938 172.03125 153.835938 175.628906 "/>
<path style=" stroke:none;fill-rule:nonzero;fill:rgb(100%,84.3%,0%);fill-opacity:1;" d="M 356.058594 166.816406 C 356.058594 170.410156 350.664062 170.410156 350.664062 166.816406 C 350.664062 163.21875 356.058594 163.21875 356.058594 166.816406 "/>
<path style=" stroke:none;fill-rule:nonzero;fill:rgb(100%,84.3%,0%);fill-opacity:1;" d="M 81.484375 347.882812 C 81.484375 351.476562 76.089844 351.476562 76.089844 347.882812 C 76.089844 344.285156 81.484375 344.285156 81.484375 347.882812 "/>
<path style=" stroke:none;fill-rule:nonzero;fill:rgb(100%,84.3%,0%);fill-opacity:1;" d="M 394.539062 164.117188 C 394.539062 167.714844 389.144531 167.714844 389.144531 164.117188 C 389.144531 160.523438 394.539062 160.523438 394.539062 164.117188 "/>
<path style=" stroke:none;fill-rule:nonzero;fill:rgb(100%,84.3%,0%);fill-opacity:1;" d="M 401.90625 156.75 C 401.90625 160.347656 396.515625 160.347656 396.515625 156.75 C 396.515625 153.152344 401.90625 153.152344 401.90625 156.75 "/>
<path style=" stroke:none;fill-rule:nonzero;fill:rgb(100%,84.3%,0%);fill-opacity:1;" d="M 361.453125 161.421875 C 361.453125 165.015625 356.058594 165.015625 356.058594 161.421875 C 356.058594 157.824219 361.453125 157.824219 361.453125 161.421875 "/>
<path style=" stroke:none;fill-rule:nonzero;fill:rgb(100%,84.3%,0%);fill-opacity:1;" d="M 461.242188 156.75 C 461.242188 160.347656 455.847656 160.347656 455.847656 156.75 C 455.847656 153.152344 461.242188 153.152344 461.242188 156.75 "/>
<path style=" stroke:none;fill-rule:nonzero;fill:rgb(100%,84.3%,0%);fill-opacity:1;" d="M 379.078125 166.816406 C 379.078125 170.410156 373.6875 170.410156 373.6875 166.816406 C 373.6875 163.21875 379.078125 163.21875 379.078125 166.816406 "/>
<path style=" stroke:none;fill-rule:nonzero;fill:rgb(100%,84.3%,0%);fill-opacity:1;" d="M 456.570312 353.277344 C 456.570312 356.871094 451.175781 356.871094 451.175781 353.277344 C 451.175781 349.679688 456.570312 349.679688 456.570312 353.277344 "/>
<path style=" stroke:none;fill-rule:nonzero;fill:rgb(100%,84.3%,0%);fill-opacity:1;" d="M 358.757812 156.75 C 358.757812 160.347656 353.363281 160.347656 353.363281 156.75 C 353.363281 153.152344 358.757812 153.152344 358.757812 156.75 "/>
<path style=" stroke:none;fill-rule:nonzero;fill:rgb(100%,84.3%,0%);fill-opacity:1;" d="M 418.089844 156.75 C 418.089844 160.347656 412.695312 160.347656 412.695312 156.75 C 412.695312 153.152344 418.089844 153.152344 418.089844 156.75 "/>
<path style=" stroke:none;fill-rule:nonzero;fill:rgb(100%,84.3%,0%);fill-opacity:1;" d="M 269.753906 180.105469 C 269.753906 183.703125 264.359375 183.703125 264.359375 180.105469 C 264.359375 176.511719 269.753906 176.511719 269.753906 180.105469 "/>
<path style=" stroke:none;fill-rule:nonzero;fill:rgb(100%,84.3%,0%);fill-opacity:1;" d="M 439.664062 156.75 C 439.664062 160.347656 434.273438 160.347656 434.273438 156.75 C 434.273438 153.152344 439.664062 153.152344 439.664062 156.75 "/>
<path style=" stroke:none;fill-rule:nonzero;fill:rgb(100%,84.3%,0%);fill-opacity:1;" d="M 172.519531 159.445312 C 172.519531 163.042969 167.125 163.042969 167.125 159.445312 C 167.125 155.851562 172.519531 155.851562 172.519531 159.445312 "/>
<path style=" stroke:none;fill-rule:nonzero;fill:rgb(100%,84.3%,0%);fill-opacity:1;" d="M 312.90625 166.816406 C 312.90625 170.410156 307.511719 170.410156 307.511719 166.816406 C 307.511719 163.21875 312.90625 163.21875 312.90625 166.816406 "/>
<path style=" stroke:none;fill-rule:nonzero;fill:rgb(100%,84.3%,0%);fill-opacity:1;" d="M 95.691406 170.042969 C 95.691406 173.636719 90.296875 173.636719 90.296875 170.042969 C 90.296875 166.445312 95.691406 166.445312 95.691406 170.042969 "/>
<path style=" stroke:none;fill-rule:nonzero;fill:rgb(100%,84.3%,0%);fill-opacity:1;" d="M 167.847656 162.144531 C 167.847656 165.738281 162.453125 165.738281 162.453125 162.144531 C 162.453125 158.546875 167.847656 158.546875 167.847656 162.144531 "/>
<path style=" stroke:none;fill-rule:nonzero;fill:rgb(100%,84.3%,0%);fill-opacity:1;" d="M 172.519531 164.839844 C 172.519531 168.4375 167.125 168.4375 167.125 164.839844 C 167.125 161.246094 172.519531 161.246094 172.519531 164.839844 "/>
<path style=" stroke:none;fill-rule:nonzero;fill:rgb(100%,84.3%,0%);fill-opacity:1;" d="M 55.429688 180.828125 C 55.429688 184.425781 50.035156 184.425781 50.035156 180.828125 C 50.035156 177.234375 55.429688 177.234375 55.429688 180.828125 "/>
<path style=" stroke:none;fill-rule:nonzero;fill:rgb(100%,84.3%,0%);fill-opacity:1;" d="M 70.164062 175.4375 C 70.164062 179.03125 64.773438 179.03125 64.773438 175.4375 C 64.773438 171.839844 70.164062 171.839844 70.164062 175.4375 "/>
<path style=" stroke:none;fill-rule:nonzero;fill:rgb(100%,84.3%,0%);fill-opacity:1;" d="M 420.453125 353.996094 C 420.453125 357.59375 415.058594 357.59375 415.058594 353.996094 C 415.058594 350.402344 420.453125 350.402344 420.453125 353.996094 "/>
<path style=" stroke:none;fill-rule:nonzero;fill:rgb(100%,84.3%,0%);fill-opacity:1;" d="M 227.519531 159.445312 C 227.519531 163.042969 222.125 163.042969 222.125 159.445312 C 222.125 155.851562 227.519531 155.851562 227.519531 159.445312 "/>
<path style=" stroke:none;fill-rule:nonzero;fill:rgb(100%,84.3%,0%);fill-opacity:1;" d="M 146.46875 168.261719 C 146.46875 171.855469 141.074219 171.855469 141.074219 168.261719 C 141.074219 164.664062 146.46875 164.664062 146.46875 168.261719 "/>
<path style=" stroke:none;fill-rule:nonzero;fill:rgb(100%,84.3%,0%);fill-opacity:1;" d="M 87.601562 180.105469 C 87.601562 183.703125 82.207031 183.703125 82.207031 180.105469 C 82.207031 176.511719 87.601562 176.511719 87.601562 180.105469 "/>
<path style=" stroke:none;fill-rule:nonzero;fill:rgb(100%,84.3%,0%);fill-opacity:1;" d="M 331.785156 156.75 C 331.785156 160.347656 326.390625 160.347656 326.390625 156.75 C 326.390625 153.152344 331.785156 153.152344 331.785156 156.75 "/>
<path style=" stroke:none;fill-rule:nonzero;fill:rgb(100%,84.3%,0%);fill-opacity:1;" d="M 226.796875 172.933594 C 226.796875 176.527344 221.402344 176.527344 221.402344 172.933594 C 221.402344 169.335938 226.796875 169.335938 226.796875 172.933594 "/>
<path style=" stroke:none;fill-rule:nonzero;fill:rgb(100%,84.3%,0%);fill-opacity:1;" d="M 67.46875 180.105469 C 67.46875 183.703125 62.074219 183.703125 62.074219 180.105469 C 62.074219 176.511719 67.46875 176.511719 67.46875 180.105469 "/>
<path style=" stroke:none;fill-rule:nonzero;fill:rgb(100%,84.3%,0%);fill-opacity:1;" d="M 55.429688 166.09375 C 55.429688 169.6875 50.035156 169.6875 50.035156 166.09375 C 50.035156 162.496094 55.429688 162.496094 55.429688 166.09375 "/>
<path style=" stroke:none;fill-rule:nonzero;fill:rgb(100%,84.3%,0%);fill-opacity:1;" d="M 72.863281 170.765625 C 72.863281 174.359375 67.46875 174.359375 67.46875 170.765625 C 67.46875 167.167969 72.863281 167.167969 72.863281 170.765625 "/>
<path style=" stroke:none;fill-rule:nonzero;fill:rgb(100%,84.3%,0%);fill-opacity:1;" d="M 137.652344 184.972656 C 137.652344 188.566406 132.257812 188.566406 132.257812 184.972656 C 132.257812 181.375 137.652344 181.375 137.652344 184.972656 "/>
<path style=" stroke:none;fill-rule:nonzero;fill:rgb(100%,84.3%,0%);fill-opacity:1;" d="M 256.992188 178.132812 C 256.992188 181.730469 251.597656 181.730469 251.597656 178.132812 C 251.597656 174.535156 256.992188 174.535156 256.992188 178.132812 "/>
<path style=" stroke:none;fill-rule:nonzero;fill:rgb(100%,84.3%,0%);fill-opacity:1;" d="M 159.757812 166.816406 C 159.757812 170.410156 154.363281 170.410156 154.363281 166.816406 C 154.363281 163.21875 159.757812 163.21875 159.757812 166.816406 "/>
<path style=" stroke:none;fill-rule:nonzero;fill:rgb(100%,84.3%,0%);fill-opacity:1;" d="M 423.148438 349.328125 C 423.148438 352.921875 417.753906 352.921875 417.753906 349.328125 C 417.753906 345.730469 423.148438 345.730469 423.148438 349.328125 "/>
<path style=" stroke:none;fill-rule:nonzero;fill:rgb(100%,84.3%,0%);fill-opacity:1;" d="M 135.679688 168.261719 C 135.679688 171.855469 130.285156 171.855469 130.285156 168.261719 C 130.285156 164.664062 135.679688 164.664062 135.679688 168.261719 "/>
<path style=" stroke:none;fill-rule:nonzero;fill:rgb(100%,84.3%,0%);fill-opacity:1;" d="M 315.605469 156.75 C 315.605469 160.347656 310.210938 160.347656 310.210938 156.75 C 310.210938 153.152344 315.605469 153.152344 315.605469 156.75 "/>
<path style=" stroke:none;fill-rule:nonzero;fill:rgb(100%,84.3%,0%);fill-opacity:1;" d="M 67.46875 185.5 C 67.46875 189.097656 62.074219 189.097656 62.074219 185.5 C 62.074219 181.90625 67.46875 181.90625 67.46875 185.5 "/>
<path style=" stroke:none;fill-rule:nonzero;fill:rgb(100%,84.3%,0%);fill-opacity:1;" d="M 205.414062 172.210938 C 205.414062 175.804688 200.019531 175.804688 200.019531 172.210938 C 200.019531 168.613281 205.414062 168.613281 205.414062 172.210938 "/>
<path style=" stroke:none;fill-rule:nonzero;fill:rgb(100%,84.3%,0%);fill-opacity:1;" d="M 165.152344 166.816406 C 165.152344 170.410156 159.757812 170.410156 159.757812 166.816406 C 159.757812 163.21875 165.152344 163.21875 165.152344 166.816406 "/>
<path style=" stroke:none;fill-rule:nonzero;fill:rgb(100%,84.3%,0%);fill-opacity:1;" d="M 202.71875 156.75 C 202.71875 160.347656 197.324219 160.347656 197.324219 156.75 C 197.324219 153.152344 202.71875 153.152344 202.71875 156.75 "/>
<path style=" stroke:none;fill-rule:nonzero;fill:rgb(100%,84.3%,0%);fill-opacity:1;" d="M 205.414062 161.421875 C 205.414062 165.015625 200.019531 165.015625 200.019531 161.421875 C 200.019531 157.824219 205.414062 157.824219 205.414062 161.421875 "/>
<path style=" stroke:none;fill-rule:nonzero;fill:rgb(100%,84.3%,0%);fill-opacity:1;" d="M 70.164062 166.09375 C 70.164062 169.6875 64.773438 169.6875 64.773438 166.09375 C 64.773438 162.496094 70.164062 162.496094 70.164062 166.09375 "/>
<path style=" stroke:none;fill-rule:nonzero;fill:rgb(100%,84.3%,0%);fill-opacity:1;" d="M 412.695312 156.75 C 412.695312 160.347656 407.300781 160.347656 407.300781 156.75 C 407.300781 153.152344 412.695312 153.152344 412.695312 156.75 "/>
<path style=" stroke:none;fill-rule:nonzero;fill:rgb(100%,84.3%,0%);fill-opacity:1;" d="M 165.152344 172.210938 C 165.152344 175.804688 159.757812 175.804688 159.757812 172.210938 C 159.757812 168.613281 165.152344 168.613281 165.152344 172.210938 "/>
<path style=" stroke:none;fill-rule:nonzero;fill:rgb(100%,84.3%,0%);fill-opacity:1;" d="M 155.808594 162.867188 C 155.808594 166.464844 150.414062 166.464844 150.414062 162.867188 C 150.414062 159.269531 155.808594 159.269531 155.808594 162.867188 "/>
<path style=" stroke:none;fill-rule:nonzero;fill:rgb(100%,84.3%,0%);fill-opacity:1;" d="M 138.375 172.933594 C 138.375 176.527344 132.980469 176.527344 132.980469 172.933594 C 132.980469 169.335938 138.375 169.335938 138.375 172.933594 "/>
<path style=" stroke:none;fill-rule:nonzero;fill:rgb(100%,84.3%,0%);fill-opacity:1;" d="M 148.441406 175.628906 C 148.441406 179.226562 143.046875 179.226562 143.046875 175.628906 C 143.046875 172.03125 148.441406 172.03125 148.441406 175.628906 "/>
<path style=" stroke:none;fill-rule:nonzero;fill:rgb(100%,84.3%,0%);fill-opacity:1;" d="M 131.007812 170.957031 C 131.007812 174.554688 125.613281 174.554688 125.613281 170.957031 C 125.613281 167.363281 131.007812 167.363281 131.007812 170.957031 "/>
<path style=" stroke:none;fill-rule:nonzero;fill:rgb(100%,84.3%,0%);fill-opacity:1;" d="M 451.898438 350.578125 C 451.898438 354.175781 446.507812 354.175781 446.507812 350.578125 C 446.507812 346.984375 451.898438 346.984375 451.898438 350.578125 "/>
<path style=" stroke:none;fill-rule:nonzero;fill:rgb(100%,84.3%,0%);fill-opacity:1;" d="M 267.058594 175.4375 C 267.058594 179.03125 261.664062 179.03125 261.664062 175.4375 C 261.664062 171.839844 267.058594 171.839844 267.058594 175.4375 "/>
<path style=" stroke:none;fill-rule:nonzero;fill:rgb(100%,84.3%,0%);fill-opacity:1;" d="M 368.097656 176.882812 C 368.097656 180.476562 362.703125 180.476562 362.703125 176.882812 C 362.703125 173.285156 368.097656 173.285156 368.097656 176.882812 "/>
<path style=" stroke:none;fill-rule:nonzero;fill:rgb(100%,84.3%,0%);fill-opacity:1;" d="M 420.785156 161.421875 C 420.785156 165.015625 415.394531 165.015625 415.394531 161.421875 C 415.394531 157.824219 420.785156 157.824219 420.785156 161.421875 "/>
<path style=" stroke:none;fill-rule:nonzero;fill:rgb(100%,84.3%,0%);fill-opacity:1;" d="M 198.046875 174.183594 C 198.046875 177.78125 192.652344 177.78125 192.652344 174.183594 C 192.652344 170.589844 198.046875 170.589844 198.046875 174.183594 "/>
<path style=" stroke:none;fill-rule:nonzero;fill:rgb(100%,84.3%,0%);fill-opacity:1;" d="M 415.394531 161.421875 C 415.394531 165.015625 410 165.015625 410 161.421875 C 410 157.824219 415.394531 157.824219 415.394531 161.421875 "/>
<path style=" stroke:none;fill-rule:nonzero;fill:rgb(100%,84.3%,0%);fill-opacity:1;" d="M 408.023438 174.183594 C 408.023438 177.78125 402.632812 177.78125 402.632812 174.183594 C 402.632812 170.589844 408.023438 170.589844 408.023438 174.183594 "/>
<path style=" stroke:none;fill-rule:nonzero;fill:rgb(100%,84.3%,0%);fill-opacity:1;" d="M 159.757812 172.210938 C 159.757812 175.804688 154.363281 175.804688 154.363281 172.210938 C 154.363281 168.613281 159.757812 168.613281 159.757812 172.210938 "/>
<path style=" stroke:none;fill-rule:nonzero;fill:rgb(100%,84.3%,0%);fill-opacity:1;" d="M 208.109375 156.75 C 208.109375 160.347656 202.71875 160.347656 202.71875 156.75 C 202.71875 153.152344 208.109375 153.152344 208.109375 156.75 "/>
<path style=" stroke:none;fill-rule:nonzero;fill:rgb(100%,84.3%,0%);fill-opacity:1;" d="M 399.210938 170.765625 C 399.210938 174.359375 393.816406 174.359375 393.816406 170.765625 C 393.816406 167.167969 399.210938 167.167969 399.210938 170.765625 "/>
<path style=" stroke:none;fill-rule:nonzero;fill:rgb(100%,84.3%,0%);fill-opacity:1;" d="M 264.359375 170.765625 C 264.359375 174.359375 258.96875 174.359375 258.96875 170.765625 C 258.96875 167.167969 264.359375 167.167969 264.359375 170.765625 "/>
<path style=" stroke:none;fill-rule:nonzero;fill:rgb(100%,84.3%,0%);fill-opacity:1;" d="M 336.457031 179.578125 C 336.457031 183.175781 331.0625 183.175781 331.0625 179.578125 C 331.0625 175.980469 336.457031 175.980469 336.457031 179.578125 "/>
<path style=" stroke:none;fill-rule:nonzero;fill:rgb(100%,84.3%,0%);fill-opacity:1;" d="M 170.546875 186.945312 C 170.546875 190.542969 165.152344 190.542969 165.152344 186.945312 C 165.152344 183.351562 170.546875 183.351562 170.546875 186.945312 "/>
<path style=" stroke:none;fill-rule:nonzero;fill:rgb(100%,84.3%,0%);fill-opacity:1;" d="M 337.179688 156.75 C 337.179688 160.347656 331.785156 160.347656 331.785156 156.75 C 331.785156 153.152344 337.179688 153.152344 337.179688 156.75 "/>
<path style=" stroke:none;fill-rule:nonzero;fill:rgb(100%,84.3%,0%);fill-opacity:1;" d="M 232.191406 162.144531 C 232.191406 165.738281 226.796875 165.738281 226.796875 162.144531 C 226.796875 158.546875 232.191406 158.546875 232.191406 162.144531 "/>
<path style=" stroke:none;fill-rule:nonzero;fill:rgb(100%,84.3%,0%);fill-opacity:1;" d="M 307.511719 161.421875 C 307.511719 165.015625 302.117188 165.015625 302.117188 161.421875 C 302.117188 157.824219 307.511719 157.824219 307.511719 161.421875 "/>
<path style=" stroke:none;fill-rule:nonzero;fill:rgb(100%,84.3%,0%);fill-opacity:1;" d="M 132.980469 163.589844 C 132.980469 167.183594 127.589844 167.183594 127.589844 163.589844 C 127.589844 159.992188 132.980469 159.992188 132.980469 163.589844 "/>
<path style=" stroke:none;fill-rule:nonzero;fill:rgb(100%,84.3%,0%);fill-opacity:1;" d="M 261.664062 175.4375 C 261.664062 179.03125 256.269531 179.03125 256.269531 175.4375 C 256.269531 171.839844 261.664062 171.839844 261.664062 175.4375 "/>
<path style=" stroke:none;fill-rule:nonzero;fill:rgb(100%,84.3%,0%);fill-opacity:1;" d="M 415.78125 351.300781 C 415.78125 354.898438 410.386719 354.898438 410.386719 351.300781 C 410.386719 347.703125 415.78125 347.703125 415.78125 351.300781 "/>
<path style=" stroke:none;fill-rule:nonzero;fill:rgb(100%,84.3%,0%);fill-opacity:1;" d="M 192.652344 174.183594 C 192.652344 177.78125 187.257812 177.78125 187.257812 174.183594 C 187.257812 170.589844 192.652344 170.589844 192.652344 174.183594 "/>
<path style=" stroke:none;fill-rule:nonzero;fill:rgb(100%,84.3%,0%);fill-opacity:1;" d="M 80.230469 183.527344 C 80.230469 187.121094 74.835938 187.121094 74.835938 183.527344 C 74.835938 179.929688 80.230469 179.929688 80.230469 183.527344 "/>
<path style=" stroke:none;fill-rule:nonzero;fill:rgb(100%,84.3%,0%);fill-opacity:1;" d="M 72.863281 180.105469 C 72.863281 183.703125 67.46875 183.703125 67.46875 180.105469 C 67.46875 176.511719 72.863281 176.511719 72.863281 180.105469 "/>
<path style=" stroke:none;fill-rule:nonzero;fill:rgb(100%,84.3%,0%);fill-opacity:1;" d="M 167.847656 176.882812 C 167.847656 180.476562 162.453125 180.476562 162.453125 176.882812 C 162.453125 173.285156 167.847656 173.285156 167.847656 176.882812 "/>
<path style=" stroke:none;fill-rule:nonzero;fill:rgb(100%,84.3%,0%);fill-opacity:1;" d="M 197.324219 156.75 C 197.324219 160.347656 191.929688 160.347656 191.929688 156.75 C 191.929688 153.152344 197.324219 153.152344 197.324219 156.75 "/>
<path style=" stroke:none;fill-rule:nonzero;fill:rgb(100%,84.3%,0%);fill-opacity:1;" d="M 371.519531 164.117188 C 371.519531 167.714844 366.125 167.714844 366.125 164.117188 C 366.125 160.523438 371.519531 160.523438 371.519531 164.117188 "/>
<path style=" stroke:none;fill-rule:nonzero;fill:rgb(100%,84.3%,0%);fill-opacity:1;" d="M 445.058594 156.75 C 445.058594 160.347656 439.664062 160.347656 439.664062 156.75 C 439.664062 153.152344 445.058594 153.152344 445.058594 156.75 "/>
<path style=" stroke:none;fill-rule:nonzero;fill:rgb(100%,84.3%,0%);fill-opacity:1;" d="M 143.769531 163.589844 C 143.769531 167.183594 138.375 167.183594 138.375 163.589844 C 138.375 159.992188 143.769531 159.992188 143.769531 163.589844 "/>
<path style=" stroke:none;fill-rule:nonzero;fill:rgb(100%,84.3%,0%);fill-opacity:1;" d="M 175.21875 189.644531 C 175.21875 193.238281 169.824219 193.238281 169.824219 189.644531 C 169.824219 186.046875 175.21875 186.046875 175.21875 189.644531 "/>
<path style=" stroke:none;fill-rule:nonzero;fill:rgb(100%,84.3%,0%);fill-opacity:1;" d="M 415.394531 172.210938 C 415.394531 175.804688 410 175.804688 410 172.210938 C 410 168.613281 415.394531 168.613281 415.394531 172.210938 "/>
<path style=" stroke:none;fill-rule:nonzero;fill:rgb(100%,84.3%,0%);fill-opacity:1;" d="M 151.136719 170.957031 C 151.136719 174.554688 145.742188 174.554688 145.742188 170.957031 C 145.742188 167.363281 151.136719 167.363281 151.136719 170.957031 "/>
<path style=" stroke:none;fill-rule:nonzero;fill:rgb(100%,84.3%,0%);fill-opacity:1;" d="M 412.695312 176.882812 C 412.695312 180.476562 407.300781 180.476562 407.300781 176.882812 C 407.300781 173.285156 412.695312 173.285156 412.695312 176.882812 "/>
<path style=" stroke:none;fill-rule:nonzero;fill:rgb(100%,84.3%,0%);fill-opacity:1;" d="M 189.953125 164.117188 C 189.953125 167.714844 184.558594 167.714844 184.558594 164.117188 C 184.558594 160.523438 189.953125 160.523438 189.953125 164.117188 "/>
<path style=" stroke:none;fill-rule:nonzero;fill:rgb(100%,84.3%,0%);fill-opacity:1;" d="M 141.074219 158.917969 C 141.074219 162.515625 135.679688 162.515625 135.679688 158.917969 C 135.679688 155.320312 141.074219 155.320312 141.074219 158.917969 "/>
<path style=" stroke:none;fill-rule:nonzero;fill:rgb(100%,84.3%,0%);fill-opacity:1;" d="M 290.609375 169.511719 C 290.609375 173.109375 285.214844 173.109375 285.214844 169.511719 C 285.214844 165.914062 290.609375 165.914062 290.609375 169.511719 "/>
<path style=" stroke:none;fill-rule:nonzero;fill:rgb(100%,84.3%,0%);fill-opacity:1;" d="M 366.847656 161.421875 C 366.847656 165.015625 361.453125 165.015625 361.453125 161.421875 C 361.453125 157.824219 366.847656 157.824219 366.847656 161.421875 "/>
<path style=" stroke:none;fill-rule:nonzero;fill:rgb(100%,84.3%,0%);fill-opacity:1;" d="M 353.363281 156.75 C 353.363281 160.347656 347.96875 160.347656 347.96875 156.75 C 347.96875 153.152344 353.363281 153.152344 353.363281 156.75 "/>
<path style=" stroke:none;fill-rule:nonzero;fill:rgb(100%,84.3%,0%);fill-opacity:1;" d="M 90.296875 175.4375 C 90.296875 179.03125 84.902344 179.03125 84.902344 175.4375 C 84.902344 171.839844 90.296875 171.839844 90.296875 175.4375 "/>
<path style=" stroke:none;fill-rule:nonzero;fill:rgb(100%,84.3%,0%);fill-opacity:1;" d="M 430.515625 351.300781 C 430.515625 354.898438 425.121094 354.898438 425.121094 351.300781 C 425.121094 347.703125 430.515625 347.703125 430.515625 351.300781 "/>
<path style=" stroke:none;fill-rule:nonzero;fill:rgb(100%,84.3%,0%);fill-opacity:1;" d="M 423.148438 343.933594 C 423.148438 347.527344 417.753906 347.527344 417.753906 343.933594 C 417.753906 340.335938 423.148438 340.335938 423.148438 343.933594 "/>
<path style=" stroke:none;fill-rule:nonzero;fill:rgb(100%,84.3%,0%);fill-opacity:1;" d="M 177.914062 159.445312 C 177.914062 163.042969 172.519531 163.042969 172.519531 159.445312 C 172.519531 155.851562 177.914062 155.851562 177.914062 159.445312 "/>
<path style=" stroke:none;fill-rule:nonzero;fill:rgb(100%,84.3%,0%);fill-opacity:1;" d="M 369.542969 156.75 C 369.542969 160.347656 364.148438 160.347656 364.148438 156.75 C 364.148438 153.152344 369.542969 153.152344 369.542969 156.75 "/>
<path style=" stroke:none;fill-rule:nonzero;fill:rgb(100%,84.3%,0%);fill-opacity:1;" d="M 210.808594 181.550781 C 210.808594 185.148438 205.414062 185.148438 205.414062 181.550781 C 205.414062 177.957031 210.808594 177.957031 210.808594 181.550781 "/>
<path style=" stroke:none;fill-rule:nonzero;fill:rgb(100%,84.3%,0%);fill-opacity:1;" d="M 224.820312 164.117188 C 224.820312 167.714844 219.429688 167.714844 219.429688 164.117188 C 219.429688 160.523438 224.820312 160.523438 224.820312 164.117188 "/>
<path style=" stroke:none;fill-rule:nonzero;fill:rgb(100%,84.3%,0%);fill-opacity:1;" d="M 84.902344 160.699219 C 84.902344 164.296875 79.507812 164.296875 79.507812 160.699219 C 79.507812 157.101562 84.902344 157.101562 84.902344 160.699219 "/>
<path style=" stroke:none;fill-rule:nonzero;fill:rgb(100%,84.3%,0%);fill-opacity:1;" d="M 383.027344 161.421875 C 383.027344 165.015625 377.636719 165.015625 377.636719 161.421875 C 377.636719 157.824219 383.027344 157.824219 383.027344 161.421875 "/>
<path style=" stroke:none;fill-rule:nonzero;fill:rgb(100%,84.3%,0%);fill-opacity:1;" d="M 457.824219 169.511719 C 457.824219 173.109375 452.429688 173.109375 452.429688 169.511719 C 452.429688 165.914062 457.824219 165.914062 457.824219 169.511719 "/>
<path style=" stroke:none;fill-rule:nonzero;fill:rgb(100%,84.3%,0%);fill-opacity:1;" d="M 463.9375 355.25 C 463.9375 358.847656 458.546875 358.847656 458.546875 355.25 C 458.546875 351.652344 463.9375 351.652344 463.9375 355.25 "/>
<path style=" stroke:none;fill-rule:nonzero;fill:rgb(100%,84.3%,0%);fill-opacity:1;" d="M 326.390625 156.75 C 326.390625 160.347656 320.996094 160.347656 320.996094 156.75 C 320.996094 153.152344 326.390625 153.152344 326.390625 156.75 "/>
<path style=" stroke:none;fill-rule:nonzero;fill:rgb(100%,84.3%,0%);fill-opacity:1;" d="M 62.796875 158.722656 C 62.796875 162.320312 57.402344 162.320312 57.402344 158.722656 C 57.402344 155.128906 62.796875 155.128906 62.796875 158.722656 "/>
<path style=" stroke:none;fill-rule:nonzero;fill:rgb(100%,84.3%,0%);fill-opacity:1;" d="M 242.253906 159.445312 C 242.253906 163.042969 236.859375 163.042969 236.859375 159.445312 C 236.859375 155.851562 242.253906 155.851562 242.253906 159.445312 "/>
<path style=" stroke:none;fill-rule:nonzero;fill:rgb(100%,84.3%,0%);fill-opacity:1;" d="M 442.558594 350.578125 C 442.558594 354.175781 437.164062 354.175781 437.164062 350.578125 C 437.164062 346.984375 442.558594 346.984375 442.558594 350.578125 "/>
<path style=" stroke:none;fill-rule:nonzero;fill:rgb(100%,84.3%,0%);fill-opacity:1;" d="M 396.515625 156.75 C 396.515625 160.347656 391.121094 160.347656 391.121094 156.75 C 391.121094 153.152344 396.515625 153.152344 396.515625 156.75 "/>
<path style=" stroke:none;fill-rule:nonzero;fill:rgb(100%,84.3%,0%);fill-opacity:1;" d="M 183.308594 179.578125 C 183.308594 183.175781 177.914062 183.175781 177.914062 179.578125 C 177.914062 175.980469 183.308594 175.980469 183.308594 179.578125 "/>
<path style=" stroke:none;fill-rule:nonzero;fill:rgb(100%,84.3%,0%);fill-opacity:1;" d="M 247.648438 164.839844 C 247.648438 168.4375 242.253906 168.4375 242.253906 164.839844 C 242.253906 161.246094 247.648438 161.246094 247.648438 164.839844 "/>
<path style=" stroke:none;fill-rule:nonzero;fill:rgb(100%,84.3%,0%);fill-opacity:1;" d="M 182.585938 162.144531 C 182.585938 165.738281 177.191406 165.738281 177.191406 162.144531 C 177.191406 158.546875 182.585938 158.546875 182.585938 162.144531 "/>
<path style=" stroke:none;fill-rule:nonzero;fill:rgb(100%,84.3%,0%);fill-opacity:1;" d="M 202.71875 176.882812 C 202.71875 180.476562 197.324219 180.476562 197.324219 176.882812 C 197.324219 173.285156 202.71875 173.285156 202.71875 176.882812 "/>
<path style=" stroke:none;fill-rule:nonzero;fill:rgb(100%,84.3%,0%);fill-opacity:1;" d="M 294.027344 156.75 C 294.027344 160.347656 288.632812 160.347656 288.632812 156.75 C 288.632812 153.152344 294.027344 153.152344 294.027344 156.75 "/>
<path style=" stroke:none;fill-rule:nonzero;fill:rgb(100%,84.3%,0%);fill-opacity:1;" d="M 383.753906 169.511719 C 383.753906 173.109375 378.359375 173.109375 378.359375 169.511719 C 378.359375 165.914062 383.753906 165.914062 383.753906 169.511719 "/>
<path style=" stroke:none;fill-rule:nonzero;fill:rgb(100%,84.3%,0%);fill-opacity:1;" d="M 50.757812 159.445312 C 50.757812 163.042969 45.363281 163.042969 45.363281 159.445312 C 45.363281 155.851562 50.757812 155.851562 50.757812 159.445312 "/>
<path style=" stroke:none;fill-rule:nonzero;fill:rgb(100%,84.3%,0%);fill-opacity:1;" d="M 55.429688 355.25 C 55.429688 358.847656 50.035156 358.847656 50.035156 355.25 C 50.035156 351.652344 55.429688 351.652344 55.429688 355.25 "/>
<path style=" stroke:none;fill-rule:nonzero;fill:rgb(100%,84.3%,0%);fill-opacity:1;" d="M 105.03125 164.648438 C 105.03125 168.242188 99.640625 168.242188 99.640625 164.648438 C 99.640625 161.050781 105.03125 161.050781 105.03125 164.648438 "/>
<path style=" stroke:none;fill-rule:nonzero;fill:rgb(100%,84.3%,0%);fill-opacity:1;" d="M 388.421875 166.816406 C 388.421875 170.410156 383.027344 170.410156 383.027344 166.816406 C 383.027344 163.21875 388.421875 163.21875 388.421875 166.816406 "/>
<path style=" stroke:none;fill-rule:nonzero;fill:rgb(100%,84.3%,0%);fill-opacity:1;" d="M 242.253906 170.234375 C 242.253906 173.832031 236.859375 173.832031 236.859375 170.234375 C 236.859375 166.640625 242.253906 166.640625 242.253906 170.234375 "/>
<path style=" stroke:none;fill-rule:nonzero;fill:rgb(100%,84.3%,0%);fill-opacity:1;" d="M 275.148438 161.421875 C 275.148438 165.015625 269.753906 165.015625 269.753906 161.421875 C 269.753906 157.824219 275.148438 157.824219 275.148438 161.421875 "/>
<path style=" stroke:none;fill-rule:nonzero;fill:rgb(100%,84.3%,0%);fill-opacity:1;" d="M 463.21875 169.511719 C 463.21875 173.109375 457.824219 173.109375 457.824219 169.511719 C 457.824219 165.914062 463.21875 165.914062 463.21875 169.511719 "/>
<path style=" stroke:none;fill-rule:nonzero;fill:rgb(100%,84.3%,0%);fill-opacity:1;" d="M 408.023438 164.839844 C 408.023438 168.4375 402.632812 168.4375 402.632812 164.839844 C 402.632812 161.246094 408.023438 161.246094 408.023438 164.839844 "/>
<path style=" stroke:none;fill-rule:nonzero;fill:rgb(100%,84.3%,0%);fill-opacity:1;" d="M 280.542969 172.210938 C 280.542969 175.804688 275.148438 175.804688 275.148438 172.210938 C 275.148438 168.613281 280.542969 168.613281 280.542969 172.210938 "/>
<path style=" stroke:none;fill-rule:nonzero;fill:rgb(100%,84.3%,0%);fill-opacity:1;" d="M 287.910156 174.183594 C 287.910156 177.78125 282.515625 177.78125 282.515625 174.183594 C 282.515625 170.589844 287.910156 170.589844 287.910156 174.183594 "/>
<path style=" stroke:none;fill-rule:nonzero;fill:rgb(100%,84.3%,0%);fill-opacity:1;" d="M 425.847656 353.996094 C 425.847656 357.59375 420.453125 357.59375 420.453125 353.996094 C 420.453125 350.402344 425.847656 350.402344 425.847656 353.996094 "/>
<path style=" stroke:none;fill-rule:nonzero;fill:rgb(100%,84.3%,0%);fill-opacity:1;" d="M 363.425781 179.578125 C 363.425781 183.175781 358.03125 183.175781 358.03125 179.578125 C 358.03125 175.980469 363.425781 175.980469 363.425781 179.578125 "/>
<path style=" stroke:none;fill-rule:nonzero;fill:rgb(100%,84.3%,0%);fill-opacity:1;" d="M 60.101562 352.554688 C 60.101562 356.148438 54.707031 356.148438 54.707031 352.554688 C 54.707031 348.957031 60.101562 348.957031 60.101562 352.554688 "/>
<path style=" stroke:none;fill-rule:nonzero;fill:rgb(100%,84.3%,0%);fill-opacity:1;" d="M 65.492188 168.789062 C 65.492188 172.386719 60.101562 172.386719 60.101562 168.789062 C 60.101562 165.195312 65.492188 165.195312 65.492188 168.789062 "/>
<path style=" stroke:none;fill-rule:nonzero;fill:rgb(100%,84.3%,0%);fill-opacity:1;" d="M 98.386719 174.714844 C 98.386719 178.308594 92.992188 178.308594 92.992188 174.714844 C 92.992188 171.117188 98.386719 171.117188 98.386719 174.714844 "/>
<path style=" stroke:none;fill-rule:nonzero;fill:rgb(100%,84.3%,0%);fill-opacity:1;" d="M 177.914062 184.972656 C 177.914062 188.566406 172.519531 188.566406 172.519531 184.972656 C 172.519531 181.375 177.914062 181.375 177.914062 184.972656 "/>
<path style=" stroke:none;fill-rule:nonzero;fill:rgb(100%,84.3%,0%);fill-opacity:1;" d="M 148.441406 181.023438 C 148.441406 184.617188 143.046875 184.617188 143.046875 181.023438 C 143.046875 177.425781 148.441406 177.425781 148.441406 181.023438 "/>
</g>
</svg>
