<?xml version="1.0" encoding="UTF-8"?>
<svg xmlns="http://www.w3.org/2000/svg" xmlns:xlink="http://www.w3.org/1999/xlink" width="512pt" height="512pt" viewBox="0 0 512 512" version="1.1">
<g id="surface101">
<path style=" stroke:none;fill-rule:nonzero;fill:rgb(26.7%,26.7%,26.7%);fill-opacity:1;" d="M 113.148438 0 L 398.851562 0 L 398.851562 512 L 113.148438 512 Z M 113.148438 0 "/>
<path style=" stroke:none;fill-rule:nonzero;fill:rgb(19.2%,38.8%,66.7%);fill-opacity:1;" d="M 113.148438 46.546875 L 372.878906 46.546875 L 372.878906 512 L 113.148438 512 Z M 113.148438 46.546875 "/>
<path style=" stroke:none;fill-rule:nonzero;fill:rgb(100%,84.3%,0%);fill-opacity:1;" d="M 288.871094 503.429688 C 288.871094 509.144531 280.300781 509.144531 280.300781 503.429688 C 280.300781 497.714844 288.871094 497.714844 288.871094 503.429688 "/>
<path style=" stroke:none;fill-rule:nonzero;fill:rgb(100%,84.3%,0%);fill-opacity:1;" d="M 126.007812 80.832031 C 126.007812 86.546875 117.433594 86.546875 117.433594 80.832031 C 117.433594 75.117188 126.007812 75.117188 126.007812 80.832031 "/>
<path style=" stroke:none;fill-rule:nonzero;fill:rgb(100%,84.3%,0%);fill-opacity:1;" d="M 314.589844 503.429688 C 314.589844 509.144531 306.015625 509.144531 306.015625 503.429688 C 306.015625 497.714844 314.589844 497.714844 314.589844 503.429688 "/>
<path style=" stroke:none;fill-rule:nonzero;fill:rgb(100%,84.3%,0%);fill-opacity:1;" d="M 126.007812 312.273438 C 126.007812 317.988281 117.433594 317.988281 117.433594 312.273438 C 117.433594 306.558594 126.007812 306.558594 126.007812 312.273438 "/>
<path style=" stroke:none;fill-rule:nonzero;fill:rgb(100%,84.3%,0%);fill-opacity:1;" d="M 126.007812 303.703125 C 126.007812 309.417969 117.433594 309.417969 117.433594 303.703125 C 117.433594 297.988281 126.007812 297.988281 126.007812 303.703125 "/>
<path style=" stroke:none;fill-rule:nonzero;fill:rgb(100%,84.3%,0%);fill-opacity:1;" d="M 280.300781 503.429688 C 280.300781 509.144531 271.730469 509.144531 271.730469 503.429688 C 271.730469 497.714844 280.300781 497.714844 280.300781 503.429688 "/>
<path style=" stroke:none;fill-rule:nonzero;fill:rgb(100%,84.3%,0%);fill-opacity:1;" d="M 126.007812 200.839844 C 126.007812 206.554688 117.433594 206.554688 117.433594 200.839844 C 117.433594 195.125 126.007812 195.125 126.007812 200.839844 "/>
<path style=" stroke:none;fill-rule:nonzero;fill:rgb(100%,84.3%,0%);fill-opacity:1;" d="M 368.59375 457.996094 C 368.59375 463.710938 360.019531 463.710938 360.019531 457.996094 C 360.019531 452.28125 368.59375 452.28125 368.59375 457.996094 "/>
<path style=" stroke:none;fill-rule:nonzero;fill:rgb(100%,84.3%,0%);fill-opacity:1;" d="M 368.59375 500.855469 C 368.59375 506.570312 360.019531 506.570312 360.019531 500.855469 C 360.019531 495.140625 368.59375 495.140625 368.59375 500.855469 "/>
<path style=" stroke:none;fill-rule:nonzero;fill:rgb(100%,84.3%,0%);fill-opacity:1;" d="M 126.007812 132.265625 C 126.007812 137.980469 117.433594 137.980469 117.433594 132.265625 C 117.433594 126.550781 126.007812 126.550781 126.007812 132.265625 "/>
<path style=" stroke:none;fill-rule:nonzero;fill:rgb(100%,84.3%,0%);fill-opacity:1;" d="M 368.59375 406.566406 C 368.59375 412.28125 360.019531 412.28125 360.019531 406.566406 C 360.019531 400.851562 368.59375 400.851562 368.59375 406.566406 "/>
<path style=" stroke:none;fill-rule:nonzero;fill:rgb(100%,84.3%,0%);fill-opacity:1;" d="M 126.007812 235.128906 C 126.007812 240.839844 117.433594 240.839844 117.433594 235.128906 C 117.433594 229.414062 126.007812 229.414062 126.007812 235.128906 "/>
<path style=" stroke:none;fill-rule:nonzero;fill:rgb(100%,84.3%,0%);fill-opacity:1;" d="M 126.007812 115.121094 C 126.007812 120.835938 117.433594 120.835938 117.433594 115.121094 C 117.433594 109.40625 126.007812 109.40625 126.007812 115.121094 "/>
<path style=" stroke:none;fill-rule:nonzero;fill:rgb(100%,84.3%,0%);fill-opacity:1;" d="M 246.015625 503.429688 C 246.015625 509.144531 237.441406 509.144531 237.441406 503.429688 C 237.441406 497.714844 246.015625 497.714844 246.015625 503.429688 "/>
<path style=" stroke:none;fill-rule:nonzero;fill:rgb(100%,84.3%,0%);fill-opacity:1;" d="M 126.007812 372.277344 C 126.007812 377.992188 117.433594 377.992188 117.433594 372.277344 C 117.433594 366.5625 126.007812 366.5625 126.007812 372.277344 "/>
<path style=" stroke:none;fill-rule:nonzero;fill:rgb(100%,84.3%,0%);fill-opacity:1;" d="M 368.59375 235.128906 C 368.59375 240.839844 360.019531 240.839844 360.019531 235.128906 C 360.019531 229.414062 368.59375 229.414062 368.59375 235.128906 "/>
<path style=" stroke:none;fill-rule:nonzero;fill:rgb(100%,84.3%,0%);fill-opacity:1;" d="M 368.59375 55.117188 C 368.59375 60.832031 360.019531 60.832031 360.019531 55.117188 C 360.019531 49.402344 368.59375 49.402344 368.59375 55.117188 "/>
<path style=" stroke:none;fill-rule:nonzero;fill:rgb(100%,84.3%,0%);fill-opacity:1;" d="M 126.007812 415.136719 C 126.007812 420.851562 117.433594 420.851562 117.433594 415.136719 C 117.433594 409.421875 126.007812 409.421875 126.007812 415.136719 "/>
<path style=" stroke:none;fill-rule:nonzero;fill:rgb(100%,84.3%,0%);fill-opacity:1;" d="M 368.59375 269.414062 C 368.59375 275.128906 360.019531 275.128906 360.019531 269.414062 C 360.019531 263.699219 368.59375 263.699219 368.59375 269.414062 "/>
<path style=" stroke:none;fill-rule:nonzero;fill:rgb(100%,84.3%,0%);fill-opacity:1;" d="M 126.007812 97.976562 C 126.007812 103.691406 117.433594 103.691406 117.433594 97.976562 C 117.433594 92.261719 126.007812 92.261719 126.007812 97.976562 "/>
<path style=" stroke:none;fill-rule:nonzero;fill:rgb(100%,84.3%,0%);fill-opacity:1;" d="M 368.59375 355.132812 C 368.59375 360.847656 360.019531 360.847656 360.019531 355.132812 C 360.019531 349.417969 368.59375 349.417969 368.59375 355.132812 "/>
<path style=" stroke:none;fill-rule:nonzero;fill:rgb(100%,84.3%,0%);fill-opacity:1;" d="M 126.007812 500.855469 C 126.007812 506.570312 117.433594 506.570312 117.433594 500.855469 C 117.433594 495.140625 126.007812 495.140625 126.007812 500.855469 "/>
<path style=" stroke:none;fill-rule:nonzero;fill:rgb(100%,84.3%,0%);fill-opacity:1;" d="M 368.59375 200.839844 C 368.59375 206.554688 360.019531 206.554688 360.019531 200.839844 C 360.019531 195.125 368.59375 195.125 368.59375 200.839844 "/>
<path style=" stroke:none;fill-rule:nonzero;fill:rgb(100%,84.3%,0%);fill-opacity:1;" d="M 126.007812 72.261719 C 126.007812 77.976562 117.433594 77.976562 117.433594 72.261719 C 117.433594 66.546875 126.007812 66.546875 126.007812 72.261719 "/>
<path style=" stroke:none;fill-rule:nonzero;fill:rgb(100%,84.3%,0%);fill-opacity:1;" d="M 368.59375 72.261719 C 368.59375 77.976562 360.019531 77.976562 360.019531 72.261719 C 360.019531 66.546875 368.59375 66.546875 368.59375 72.261719 "/>
<path style=" stroke:none;fill-rule:nonzero;fill:rgb(100%,84.3%,0%);fill-opacity:1;" d="M 126.007812 406.566406 C 126.007812 412.28125 117.433594 412.28125 117.433594 406.566406 C 117.433594 400.851562 126.007812 400.851562 126.007812 406.566406 "/>
<path style=" stroke:none;fill-rule:nonzero;fill:rgb(100%,84.3%,0%);fill-opacity:1;" d="M 368.59375 346.5625 C 368.59375 352.277344 360.019531 352.277344 360.019531 346.5625 C 360.019531 340.847656 368.59375 340.847656 368.59375 346.5625 "/>
<path style=" stroke:none;fill-rule:nonzero;fill:rgb(100%,84.3%,0%);fill-opacity:1;" d="M 126.007812 149.40625 C 126.007812 155.121094 117.433594 155.121094 117.433594 149.40625 C 117.433594 143.695312 126.007812 143.695312 126.007812 149.40625 "/>
<path style=" stroke:none;fill-rule:nonzero;fill:rgb(100%,84.3%,0%);fill-opacity:1;" d="M 368.59375 432.28125 C 368.59375 437.996094 360.019531 437.996094 360.019531 432.28125 C 360.019531 426.566406 368.59375 426.566406 368.59375 432.28125 "/>
<path style=" stroke:none;fill-rule:nonzero;fill:rgb(100%,84.3%,0%);fill-opacity:1;" d="M 368.59375 149.40625 C 368.59375 155.121094 360.019531 155.121094 360.019531 149.40625 C 360.019531 143.695312 368.59375 143.695312 368.59375 149.40625 "/>
<path style=" stroke:none;fill-rule:nonzero;fill:rgb(100%,84.3%,0%);fill-opacity:1;" d="M 368.59375 440.851562 C 368.59375 446.566406 360.019531 446.566406 360.019531 440.851562 C 360.019531 435.136719 368.59375 435.136719 368.59375 440.851562 "/>
<path style=" stroke:none;fill-rule:nonzero;fill:rgb(100%,84.3%,0%);fill-opacity:1;" d="M 368.59375 492.285156 C 368.59375 498 360.019531 498 360.019531 492.285156 C 360.019531 486.570312 368.59375 486.570312 368.59375 492.285156 "/>
<path style=" stroke:none;fill-rule:nonzero;fill:rgb(100%,84.3%,0%);fill-opacity:1;" d="M 228.871094 503.429688 C 228.871094 509.144531 220.296875 509.144531 220.296875 503.429688 C 220.296875 497.714844 228.871094 497.714844 228.871094 503.429688 "/>
<path style=" stroke:none;fill-rule:nonzero;fill:rgb(100%,84.3%,0%);fill-opacity:1;" d="M 368.59375 157.980469 C 368.59375 163.695312 360.019531 163.695312 360.019531 157.980469 C 360.019531 152.265625 368.59375 152.265625 368.59375 157.980469 "/>
<path style=" stroke:none;fill-rule:nonzero;fill:rgb(100%,84.3%,0%);fill-opacity:1;" d="M 186.011719 503.429688 C 186.011719 509.144531 177.4375 509.144531 177.4375 503.429688 C 177.4375 497.714844 186.011719 497.714844 186.011719 503.429688 "/>
<path style=" stroke:none;fill-rule:nonzero;fill:rgb(100%,84.3%,0%);fill-opacity:1;" d="M 126.007812 380.851562 C 126.007812 386.566406 117.433594 386.566406 117.433594 380.851562 C 117.433594 375.136719 126.007812 375.136719 126.007812 380.851562 "/>
<path style=" stroke:none;fill-rule:nonzero;fill:rgb(100%,84.3%,0%);fill-opacity:1;" d="M 271.730469 503.429688 C 271.730469 509.144531 263.15625 509.144531 263.15625 503.429688 C 263.15625 497.714844 271.730469 497.714844 271.730469 503.429688 "/>
<path style=" stroke:none;fill-rule:nonzero;fill:rgb(100%,84.3%,0%);fill-opacity:1;" d="M 126.007812 260.84375 C 126.007812 266.558594 117.433594 266.558594 117.433594 260.84375 C 117.433594 255.128906 126.007812 255.128906 126.007812 260.84375 "/>
<path style=" stroke:none;fill-rule:nonzero;fill:rgb(100%,84.3%,0%);fill-opacity:1;" d="M 368.59375 449.425781 C 368.59375 455.140625 360.019531 455.140625 360.019531 449.425781 C 360.019531 443.710938 368.59375 443.710938 368.59375 449.425781 "/>
<path style=" stroke:none;fill-rule:nonzero;fill:rgb(100%,84.3%,0%);fill-opacity:1;" d="M 126.007812 183.695312 C 126.007812 189.410156 117.433594 189.410156 117.433594 183.695312 C 117.433594 177.980469 126.007812 177.980469 126.007812 183.695312 "/>
<path style=" stroke:none;fill-rule:nonzero;fill:rgb(100%,84.3%,0%);fill-opacity:1;" d="M 126.007812 192.269531 C 126.007812 197.984375 117.433594 197.984375 117.433594 192.269531 C 117.433594 186.554688 126.007812 186.554688 126.007812 192.269531 "/>
<path style=" stroke:none;fill-rule:nonzero;fill:rgb(100%,84.3%,0%);fill-opacity:1;" d="M 323.160156 503.429688 C 323.160156 509.144531 314.589844 509.144531 314.589844 503.429688 C 314.589844 497.714844 323.160156 497.714844 323.160156 503.429688 "/>
<path style=" stroke:none;fill-rule:nonzero;fill:rgb(100%,84.3%,0%);fill-opacity:1;" d="M 368.59375 132.265625 C 368.59375 137.980469 360.019531 137.980469 360.019531 132.265625 C 360.019531 126.550781 368.59375 126.550781 368.59375 132.265625 "/>
<path style=" stroke:none;fill-rule:nonzero;fill:rgb(100%,84.3%,0%);fill-opacity:1;" d="M 368.59375 183.695312 C 368.59375 189.410156 360.019531 189.410156 360.019531 183.695312 C 360.019531 177.980469 368.59375 177.980469 368.59375 183.695312 "/>
<path style=" stroke:none;fill-rule:nonzero;fill:rgb(100%,84.3%,0%);fill-opacity:1;" d="M 237.441406 503.429688 C 237.441406 509.144531 228.871094 509.144531 228.871094 503.429688 C 228.871094 497.714844 237.441406 497.714844 237.441406 503.429688 "/>
<path style=" stroke:none;fill-rule:nonzero;fill:rgb(100%,84.3%,0%);fill-opacity:1;" d="M 143.152344 503.429688 C 143.152344 509.144531 134.578125 509.144531 134.578125 503.429688 C 134.578125 497.714844 143.152344 497.714844 143.152344 503.429688 "/>
<path style=" stroke:none;fill-rule:nonzero;fill:rgb(100%,84.3%,0%);fill-opacity:1;" d="M 126.007812 423.710938 C 126.007812 429.421875 117.433594 429.421875 117.433594 423.710938 C 117.433594 417.996094 126.007812 417.996094 126.007812 423.710938 "/>
<path style=" stroke:none;fill-rule:nonzero;fill:rgb(100%,84.3%,0%);fill-opacity:1;" d="M 177.4375 503.429688 C 177.4375 509.144531 168.867188 509.144531 168.867188 503.429688 C 168.867188 497.714844 177.4375 497.714844 177.4375 503.429688 "/>
<path style=" stroke:none;fill-rule:nonzero;fill:rgb(100%,84.3%,0%);fill-opacity:1;" d="M 126.007812 140.835938 C 126.007812 146.550781 117.433594 146.550781 117.433594 140.835938 C 117.433594 135.121094 126.007812 135.121094 126.007812 140.835938 "/>
<path style=" stroke:none;fill-rule:nonzero;fill:rgb(100%,84.3%,0%);fill-opacity:1;" d="M 126.007812 277.988281 C 126.007812 283.703125 117.433594 283.703125 117.433594 277.988281 C 117.433594 272.273438 126.007812 272.273438 126.007812 277.988281 "/>
<path style=" stroke:none;fill-rule:nonzero;fill:rgb(100%,84.3%,0%);fill-opacity:1;" d="M 368.59375 397.992188 C 368.59375 403.707031 360.019531 403.707031 360.019531 397.992188 C 360.019531 392.28125 368.59375 392.28125 368.59375 397.992188 "/>
<path style=" stroke:none;fill-rule:nonzero;fill:rgb(100%,84.3%,0%);fill-opacity:1;" d="M 368.59375 192.269531 C 368.59375 197.984375 360.019531 197.984375 360.019531 192.269531 C 360.019531 186.554688 368.59375 186.554688 368.59375 192.269531 "/>
<path style=" stroke:none;fill-rule:nonzero;fill:rgb(100%,84.3%,0%);fill-opacity:1;" d="M 211.726562 503.429688 C 211.726562 509.144531 203.152344 509.144531 203.152344 503.429688 C 203.152344 497.714844 211.726562 497.714844 211.726562 503.429688 "/>
<path style=" stroke:none;fill-rule:nonzero;fill:rgb(100%,84.3%,0%);fill-opacity:1;" d="M 368.59375 226.554688 C 368.59375 232.269531 360.019531 232.269531 360.019531 226.554688 C 360.019531 220.839844 368.59375 220.839844 368.59375 226.554688 "/>
<path style=" stroke:none;fill-rule:nonzero;fill:rgb(100%,84.3%,0%);fill-opacity:1;" d="M 126.007812 252.269531 C 126.007812 257.984375 117.433594 257.984375 117.433594 252.269531 C 117.433594 246.554688 126.007812 246.554688 126.007812 252.269531 "/>
<path style=" stroke:none;fill-rule:nonzero;fill:rgb(100%,84.3%,0%);fill-opacity:1;" d="M 126.007812 286.558594 C 126.007812 292.273438 117.433594 292.273438 117.433594 286.558594 C 117.433594 280.84375 126.007812 280.84375 126.007812 286.558594 "/>
<path style=" stroke:none;fill-rule:nonzero;fill:rgb(100%,84.3%,0%);fill-opacity:1;" d="M 126.007812 475.140625 C 126.007812 480.855469 117.433594 480.855469 117.433594 475.140625 C 117.433594 469.425781 126.007812 469.425781 126.007812 475.140625 "/>
<path style=" stroke:none;fill-rule:nonzero;fill:rgb(100%,84.3%,0%);fill-opacity:1;" d="M 126.007812 123.691406 C 126.007812 129.40625 117.433594 129.40625 117.433594 123.691406 C 117.433594 117.976562 126.007812 117.976562 126.007812 123.691406 "/>
<path style=" stroke:none;fill-rule:nonzero;fill:rgb(100%,84.3%,0%);fill-opacity:1;" d="M 126.007812 243.699219 C 126.007812 249.414062 117.433594 249.414062 117.433594 243.699219 C 117.433594 237.984375 126.007812 237.984375 126.007812 243.699219 "/>
<path style=" stroke:none;fill-rule:nonzero;fill:rgb(100%,84.3%,0%);fill-opacity:1;" d="M 160.296875 503.429688 C 160.296875 509.144531 151.722656 509.144531 151.722656 503.429688 C 151.722656 497.714844 160.296875 497.714844 160.296875 503.429688 "/>
<path style=" stroke:none;fill-rule:nonzero;fill:rgb(100%,84.3%,0%);fill-opacity:1;" d="M 126.007812 209.410156 C 126.007812 215.125 117.433594 215.125 117.433594 209.410156 C 117.433594 203.699219 126.007812 203.699219 126.007812 209.410156 "/>
<path style=" stroke:none;fill-rule:nonzero;fill:rgb(100%,84.3%,0%);fill-opacity:1;" d="M 126.007812 320.847656 C 126.007812 326.5625 117.433594 326.5625 117.433594 320.847656 C 117.433594 315.132812 126.007812 315.132812 126.007812 320.847656 "/>
<path style=" stroke:none;fill-rule:nonzero;fill:rgb(100%,84.3%,0%);fill-opacity:1;" d="M 126.007812 346.5625 C 126.007812 352.277344 117.433594 352.277344 117.433594 346.5625 C 117.433594 340.847656 126.007812 340.847656 126.007812 346.5625 "/>
<path style=" stroke:none;fill-rule:nonzero;fill:rgb(100%,84.3%,0%);fill-opacity:1;" d="M 220.296875 503.429688 C 220.296875 509.144531 211.726562 509.144531 211.726562 503.429688 C 211.726562 497.714844 220.296875 497.714844 220.296875 503.429688 "/>
<path style=" stroke:none;fill-rule:nonzero;fill:rgb(100%,84.3%,0%);fill-opacity:1;" d="M 368.59375 483.714844 C 368.59375 489.425781 360.019531 489.425781 360.019531 483.714844 C 360.019531 478 368.59375 478 368.59375 483.714844 "/>
<path style=" stroke:none;fill-rule:nonzero;fill:rgb(100%,84.3%,0%);fill-opacity:1;" d="M 368.59375 89.40625 C 368.59375 95.121094 360.019531 95.121094 360.019531 89.40625 C 360.019531 83.691406 368.59375 83.691406 368.59375 89.40625 "/>
<path style=" stroke:none;fill-rule:nonzero;fill:rgb(100%,84.3%,0%);fill-opacity:1;" d="M 368.59375 80.832031 C 368.59375 86.546875 360.019531 86.546875 360.019531 80.832031 C 360.019531 75.117188 368.59375 75.117188 368.59375 80.832031 "/>
<path style=" stroke:none;fill-rule:nonzero;fill:rgb(100%,84.3%,0%);fill-opacity:1;" d="M 126.007812 89.40625 C 126.007812 95.121094 117.433594 95.121094 117.433594 89.40625 C 117.433594 83.691406 126.007812 83.691406 126.007812 89.40625 "/>
<path style=" stroke:none;fill-rule:nonzero;fill:rgb(100%,84.3%,0%);fill-opacity:1;" d="M 126.007812 106.550781 C 126.007812 112.261719 117.433594 112.261719 117.433594 106.550781 C 117.433594 100.835938 126.007812 100.835938 126.007812 106.550781 "/>
<path style=" stroke:none;fill-rule:nonzero;fill:rgb(100%,84.3%,0%);fill-opacity:1;" d="M 126.007812 432.28125 C 126.007812 437.996094 117.433594 437.996094 117.433594 432.28125 C 117.433594 426.566406 126.007812 426.566406 126.007812 432.28125 "/>
<path style=" stroke:none;fill-rule:nonzero;fill:rgb(100%,84.3%,0%);fill-opacity:1;" d="M 368.59375 363.707031 C 368.59375 369.421875 360.019531 369.421875 360.019531 363.707031 C 360.019531 357.992188 368.59375 357.992188 368.59375 363.707031 "/>
<path style=" stroke:none;fill-rule:nonzero;fill:rgb(100%,84.3%,0%);fill-opacity:1;" d="M 368.59375 175.125 C 368.59375 180.839844 360.019531 180.839844 360.019531 175.125 C 360.019531 169.410156 368.59375 169.410156 368.59375 175.125 "/>
<path style=" stroke:none;fill-rule:nonzero;fill:rgb(100%,84.3%,0%);fill-opacity:1;" d="M 368.59375 372.277344 C 368.59375 377.992188 360.019531 377.992188 360.019531 372.277344 C 360.019531 366.5625 368.59375 366.5625 368.59375 372.277344 "/>
<path style=" stroke:none;fill-rule:nonzero;fill:rgb(100%,84.3%,0%);fill-opacity:1;" d="M 368.59375 337.988281 C 368.59375 343.703125 360.019531 343.703125 360.019531 337.988281 C 360.019531 332.277344 368.59375 332.277344 368.59375 337.988281 "/>
<path style=" stroke:none;fill-rule:nonzero;fill:rgb(100%,84.3%,0%);fill-opacity:1;" d="M 368.59375 466.570312 C 368.59375 472.285156 360.019531 472.285156 360.019531 466.570312 C 360.019531 460.855469 368.59375 460.855469 368.59375 466.570312 "/>
<path style=" stroke:none;fill-rule:nonzero;fill:rgb(100%,84.3%,0%);fill-opacity:1;" d="M 368.59375 286.558594 C 368.59375 292.273438 360.019531 292.273438 360.019531 286.558594 C 360.019531 280.84375 368.59375 280.84375 368.59375 286.558594 "/>
<path style=" stroke:none;fill-rule:nonzero;fill:rgb(100%,84.3%,0%);fill-opacity:1;" d="M 368.59375 123.691406 C 368.59375 129.40625 360.019531 129.40625 360.019531 123.691406 C 360.019531 117.976562 368.59375 117.976562 368.59375 123.691406 "/>
<path style=" stroke:none;fill-rule:nonzero;fill:rgb(100%,84.3%,0%);fill-opacity:1;" d="M 263.15625 503.429688 C 263.15625 509.144531 254.585938 509.144531 254.585938 503.429688 C 254.585938 497.714844 263.15625 497.714844 263.15625 503.429688 "/>
<path style=" stroke:none;fill-rule:nonzero;fill:rgb(100%,84.3%,0%);fill-opacity:1;" d="M 254.585938 503.429688 C 254.585938 509.144531 246.015625 509.144531 246.015625 503.429688 C 246.015625 497.714844 254.585938 497.714844 254.585938 503.429688 "/>
<path style=" stroke:none;fill-rule:nonzero;fill:rgb(100%,84.3%,0%);fill-opacity:1;" d="M 368.59375 260.84375 C 368.59375 266.558594 360.019531 266.558594 360.019531 260.84375 C 360.019531 255.128906 368.59375 255.128906 368.59375 260.84375 "/>
<path style=" stroke:none;fill-rule:nonzero;fill:rgb(100%,84.3%,0%);fill-opacity:1;" d="M 368.59375 320.847656 C 368.59375 326.5625 360.019531 326.5625 360.019531 320.847656 C 360.019531 315.132812 368.59375 315.132812 368.59375 320.847656 "/>
<path style=" stroke:none;fill-rule:nonzero;fill:rgb(100%,84.3%,0%);fill-opacity:1;" d="M 194.582031 503.429688 C 194.582031 509.144531 186.011719 509.144531 186.011719 503.429688 C 186.011719 497.714844 194.582031 497.714844 194.582031 503.429688 "/>
<path style=" stroke:none;fill-rule:nonzero;fill:rgb(100%,84.3%,0%);fill-opacity:1;" d="M 126.007812 457.996094 C 126.007812 463.710938 117.433594 463.710938 117.433594 457.996094 C 117.433594 452.28125 126.007812 452.28125 126.007812 457.996094 "/>
<path style=" stroke:none;fill-rule:nonzero;fill:rgb(100%,84.3%,0%);fill-opacity:1;" d="M 368.59375 312.273438 C 368.59375 317.988281 360.019531 317.988281 360.019531 312.273438 C 360.019531 306.558594 368.59375 306.558594 368.59375 312.273438 "/>
<path style=" stroke:none;fill-rule:nonzero;fill:rgb(100%,84.3%,0%);fill-opacity:1;" d="M 368.59375 415.136719 C 368.59375 420.851562 360.019531 420.851562 360.019531 415.136719 C 360.019531 409.421875 368.59375 409.421875 368.59375 415.136719 "/>
<path style=" stroke:none;fill-rule:nonzero;fill:rgb(100%,84.3%,0%);fill-opacity:1;" d="M 297.445312 503.429688 C 297.445312 509.144531 288.871094 509.144531 288.871094 503.429688 C 288.871094 497.714844 297.445312 497.714844 297.445312 503.429688 "/>
<path style=" stroke:none;fill-rule:nonzero;fill:rgb(100%,84.3%,0%);fill-opacity:1;" d="M 126.007812 175.125 C 126.007812 180.839844 117.433594 180.839844 117.433594 175.125 C 117.433594 169.410156 126.007812 169.410156 126.007812 175.125 "/>
<path style=" stroke:none;fill-rule:nonzero;fill:rgb(100%,84.3%,0%);fill-opacity:1;" d="M 126.007812 449.425781 C 126.007812 455.140625 117.433594 455.140625 117.433594 449.425781 C 117.433594 443.710938 126.007812 443.710938 126.007812 449.425781 "/>
<path style=" stroke:none;fill-rule:nonzero;fill:rgb(100%,84.3%,0%);fill-opacity:1;" d="M 368.59375 166.550781 C 368.59375 172.265625 360.019531 172.265625 360.019531 166.550781 C 360.019531 160.835938 368.59375 160.835938 368.59375 166.550781 "/>
<path style=" stroke:none;fill-rule:nonzero;fill:rgb(100%,84.3%,0%);fill-opacity:1;" d="M 126.007812 397.992188 C 126.007812 403.707031 117.433594 403.707031 117.433594 397.992188 C 117.433594 392.28125 126.007812 392.28125 126.007812 397.992188 "/>
<path style=" stroke:none;fill-rule:nonzero;fill:rgb(100%,84.3%,0%);fill-opacity:1;" d="M 368.59375 475.140625 C 368.59375 480.855469 360.019531 480.855469 360.019531 475.140625 C 360.019531 469.425781 368.59375 469.425781 368.59375 475.140625 "/>
<path style=" stroke:none;fill-rule:nonzero;fill:rgb(100%,84.3%,0%);fill-opacity:1;" d="M 368.59375 217.984375 C 368.59375 223.699219 360.019531 223.699219 360.019531 217.984375 C 360.019531 212.269531 368.59375 212.269531 368.59375 217.984375 "/>
<path style=" stroke:none;fill-rule:nonzero;fill:rgb(100%,84.3%,0%);fill-opacity:1;" d="M 126.007812 440.851562 C 126.007812 446.566406 117.433594 446.566406 117.433594 440.851562 C 117.433594 435.136719 126.007812 435.136719 126.007812 440.851562 "/>
<path style=" stroke:none;fill-rule:nonzero;fill:rgb(100%,84.3%,0%);fill-opacity:1;" d="M 126.007812 226.554688 C 126.007812 232.269531 117.433594 232.269531 117.433594 226.554688 C 117.433594 220.839844 126.007812 220.839844 126.007812 226.554688 "/>
<path style=" stroke:none;fill-rule:nonzero;fill:rgb(100%,84.3%,0%);fill-opacity:1;" d="M 368.59375 389.421875 C 368.59375 395.136719 360.019531 395.136719 360.019531 389.421875 C 360.019531 383.707031 368.59375 383.707031 368.59375 389.421875 "/>
<path style=" stroke:none;fill-rule:nonzero;fill:rgb(100%,84.3%,0%);fill-opacity:1;" d="M 368.59375 277.988281 C 368.59375 283.703125 360.019531 283.703125 360.019531 277.988281 C 360.019531 272.273438 368.59375 272.273438 368.59375 277.988281 "/>
<path style=" stroke:none;fill-rule:nonzero;fill:rgb(100%,84.3%,0%);fill-opacity:1;" d="M 368.59375 243.699219 C 368.59375 249.414062 360.019531 249.414062 360.019531 243.699219 C 360.019531 237.984375 368.59375 237.984375 368.59375 243.699219 "/>
<path style=" stroke:none;fill-rule:nonzero;fill:rgb(100%,84.3%,0%);fill-opacity:1;" d="M 126.007812 329.417969 C 126.007812 335.132812 117.433594 335.132812 117.433594 329.417969 C 117.433594 323.703125 126.007812 323.703125 126.007812 329.417969 "/>
<path style=" stroke:none;fill-rule:nonzero;fill:rgb(100%,84.3%,0%);fill-opacity:1;" d="M 126.007812 389.421875 C 126.007812 395.136719 117.433594 395.136719 117.433594 389.421875 C 117.433594 383.707031 126.007812 383.707031 126.007812 389.421875 "/>
<path style=" stroke:none;fill-rule:nonzero;fill:rgb(100%,84.3%,0%);fill-opacity:1;" d="M 126.007812 363.707031 C 126.007812 369.421875 117.433594 369.421875 117.433594 363.707031 C 117.433594 357.992188 126.007812 357.992188 126.007812 363.707031 "/>
<path style=" stroke:none;fill-rule:nonzero;fill:rgb(100%,84.3%,0%);fill-opacity:1;" d="M 126.007812 295.132812 C 126.007812 300.84375 117.433594 300.84375 117.433594 295.132812 C 117.433594 289.417969 126.007812 289.417969 126.007812 295.132812 "/>
<path style=" stroke:none;fill-rule:nonzero;fill:rgb(100%,84.3%,0%);fill-opacity:1;" d="M 368.59375 140.835938 C 368.59375 146.550781 360.019531 146.550781 360.019531 140.835938 C 360.019531 135.121094 368.59375 135.121094 368.59375 140.835938 "/>
<path style=" stroke:none;fill-rule:nonzero;fill:rgb(100%,84.3%,0%);fill-opacity:1;" d="M 126.007812 157.980469 C 126.007812 163.695312 117.433594 163.695312 117.433594 157.980469 C 117.433594 152.265625 126.007812 152.265625 126.007812 157.980469 "/>
<path style=" stroke:none;fill-rule:nonzero;fill:rgb(100%,84.3%,0%);fill-opacity:1;" d="M 368.59375 380.851562 C 368.59375 386.566406 360.019531 386.566406 360.019531 380.851562 C 360.019531 375.136719 368.59375 375.136719 368.59375 380.851562 "/>
<path style=" stroke:none;fill-rule:nonzero;fill:rgb(100%,84.3%,0%);fill-opacity:1;" d="M 368.59375 423.710938 C 368.59375 429.421875 360.019531 429.421875 360.019531 423.710938 C 360.019531 417.996094 368.59375 417.996094 368.59375 423.710938 "/>
<path style=" stroke:none;fill-rule:nonzero;fill:rgb(100%,84.3%,0%);fill-opacity:1;" d="M 203.152344 503.429688 C 203.152344 509.144531 194.582031 509.144531 194.582031 503.429688 C 194.582031 497.714844 203.152344 497.714844 203.152344 503.429688 "/>
<path style=" stroke:none;fill-rule:nonzero;fill:rgb(100%,84.3%,0%);fill-opacity:1;" d="M 368.59375 303.703125 C 368.59375 309.417969 360.019531 309.417969 360.019531 303.703125 C 360.019531 297.988281 368.59375 297.988281 368.59375 303.703125 "/>
<path style=" stroke:none;fill-rule:nonzero;fill:rgb(100%,84.3%,0%);fill-opacity:1;" d="M 126.007812 217.984375 C 126.007812 223.699219 117.433594 223.699219 117.433594 217.984375 C 117.433594 212.269531 126.007812 212.269531 126.007812 217.984375 "/>
<path style=" stroke:none;fill-rule:nonzero;fill:rgb(100%,84.3%,0%);fill-opacity:1;" d="M 134.578125 503.429688 C 134.578125 509.144531 126.007812 509.144531 126.007812 503.429688 C 126.007812 497.714844 134.578125 497.714844 134.578125 503.429688 "/>
<path style=" stroke:none;fill-rule:nonzero;fill:rgb(100%,84.3%,0%);fill-opacity:1;" d="M 126.007812 483.714844 C 126.007812 489.425781 117.433594 489.425781 117.433594 483.714844 C 117.433594 478 126.007812 478 126.007812 483.714844 "/>
<path style=" stroke:none;fill-rule:nonzero;fill:rgb(100%,84.3%,0%);fill-opacity:1;" d="M 368.59375 295.132812 C 368.59375 300.84375 360.019531 300.84375 360.019531 295.132812 C 360.019531 289.417969 368.59375 289.417969 368.59375 295.132812 "/>
<path style=" stroke:none;fill-rule:nonzero;fill:rgb(100%,84.3%,0%);fill-opacity:1;" d="M 368.59375 329.417969 C 368.59375 335.132812 360.019531 335.132812 360.019531 329.417969 C 360.019531 323.703125 368.59375 323.703125 368.59375 329.417969 "/>
<path style=" stroke:none;fill-rule:nonzero;fill:rgb(100%,84.3%,0%);fill-opacity:1;" d="M 368.59375 209.410156 C 368.59375 215.125 360.019531 215.125 360.019531 209.410156 C 360.019531 203.699219 368.59375 203.699219 368.59375 209.410156 "/>
<path style=" stroke:none;fill-rule:nonzero;fill:rgb(100%,84.3%,0%);fill-opacity:1;" d="M 168.867188 503.429688 C 168.867188 509.144531 160.296875 509.144531 160.296875 503.429688 C 160.296875 497.714844 168.867188 497.714844 168.867188 503.429688 "/>
<path style=" stroke:none;fill-rule:nonzero;fill:rgb(100%,84.3%,0%);fill-opacity:1;" d="M 126.007812 63.6875 C 126.007812 69.402344 117.433594 69.402344 117.433594 63.6875 C 117.433594 57.972656 126.007812 57.972656 126.007812 63.6875 "/>
<path style=" stroke:none;fill-rule:nonzero;fill:rgb(100%,84.3%,0%);fill-opacity:1;" d="M 368.59375 115.121094 C 368.59375 120.835938 360.019531 120.835938 360.019531 115.121094 C 360.019531 109.40625 368.59375 109.40625 368.59375 115.121094 "/>
<path style=" stroke:none;fill-rule:nonzero;fill:rgb(100%,84.3%,0%);fill-opacity:1;" d="M 126.007812 355.132812 C 126.007812 360.847656 117.433594 360.847656 117.433594 355.132812 C 117.433594 349.417969 126.007812 349.417969 126.007812 355.132812 "/>
<path style=" stroke:none;fill-rule:nonzero;fill:rgb(100%,84.3%,0%);fill-opacity:1;" d="M 126.007812 492.285156 C 126.007812 498 117.433594 498 117.433594 492.285156 C 117.433594 486.570312 126.007812 486.570312 126.007812 492.285156 "/>
<path style=" stroke:none;fill-rule:nonzero;fill:rgb(100%,84.3%,0%);fill-opacity:1;" d="M 151.722656 503.429688 C 151.722656 509.144531 143.152344 509.144531 143.152344 503.429688 C 143.152344 497.714844 151.722656 497.714844 151.722656 503.429688 "/>
<path style=" stroke:none;fill-rule:nonzero;fill:rgb(100%,84.3%,0%);fill-opacity:1;" d="M 126.007812 166.550781 C 126.007812 172.265625 117.433594 172.265625 117.433594 166.550781 C 117.433594 160.835938 126.007812 160.835938 126.007812 166.550781 "/>
<path style=" stroke:none;fill-rule:nonzero;fill:rgb(100%,84.3%,0%);fill-opacity:1;" d="M 306.015625 503.429688 C 306.015625 509.144531 297.445312 509.144531 297.445312 503.429688 C 297.445312 497.714844 306.015625 497.714844 306.015625 503.429688 "/>
<path style=" stroke:none;fill-rule:nonzero;fill:rgb(100%,84.3%,0%);fill-opacity:1;" d="M 368.59375 97.976562 C 368.59375 103.691406 360.019531 103.691406 360.019531 97.976562 C 360.019531 92.261719 368.59375 92.261719 368.59375 97.976562 "/>
<path style=" stroke:none;fill-rule:nonzero;fill:rgb(100%,84.3%,0%);fill-opacity:1;" d="M 368.59375 106.550781 C 368.59375 112.261719 360.019531 112.261719 360.019531 106.550781 C 360.019531 100.835938 368.59375 100.835938 368.59375 106.550781 "/>
<path style=" stroke:none;fill-rule:nonzero;fill:rgb(100%,84.3%,0%);fill-opacity:1;" d="M 368.59375 63.6875 C 368.59375 69.402344 360.019531 69.402344 360.019531 63.6875 C 360.019531 57.972656 368.59375 57.972656 368.59375 63.6875 "/>
<path style=" stroke:none;fill-rule:nonzero;fill:rgb(100%,84.3%,0%);fill-opacity:1;" d="M 126.007812 55.117188 C 126.007812 60.832031 117.433594 60.832031 117.433594 55.117188 C 117.433594 49.402344 126.007812 49.402344 126.007812 55.117188 "/>
<path style=" stroke:none;fill-rule:nonzero;fill:rgb(100%,84.3%,0%);fill-opacity:1;" d="M 368.59375 252.269531 C 368.59375 257.984375 360.019531 257.984375 360.019531 252.269531 C 360.019531 246.554688 368.59375 246.554688 368.59375 252.269531 "/>
<path style=" stroke:none;fill-rule:nonzero;fill:rgb(100%,84.3%,0%);fill-opacity:1;" d="M 126.007812 466.570312 C 126.007812 472.285156 117.433594 472.285156 117.433594 466.570312 C 117.433594 460.855469 126.007812 460.855469 126.007812 466.570312 "/>
<path style=" stroke:none;fill-rule:nonzero;fill:rgb(100%,84.3%,0%);fill-opacity:1;" d="M 126.007812 337.988281 C 126.007812 343.703125 117.433594 343.703125 117.433594 337.988281 C 117.433594 332.277344 126.007812 332.277344 126.007812 337.988281 "/>
<path style=" stroke:none;fill-rule:nonzero;fill:rgb(100%,84.3%,0%);fill-opacity:1;" d="M 126.007812 269.414062 C 126.007812 275.128906 117.433594 275.128906 117.433594 269.414062 C 117.433594 263.699219 126.007812 263.699219 126.007812 269.414062 "/>
</g>
</svg>
