<?xml version="1.0" encoding="UTF-8"?>
<svg xmlns="http://www.w3.org/2000/svg" xmlns:xlink="http://www.w3.org/1999/xlink" width="512pt" height="512pt" viewBox="0 0 512 512" version="1.1">
<g id="surface146">
<rect x="0" y="0" width="512" height="512" style="fill:rgb(26.7%,26.7%,26.7%);fill-opacity:1;stroke:none;"/>
<path style=" stroke:none;fill-rule:nonzero;fill:rgb(19.2%,38.8%,66.7%);fill-opacity:1;" d="M 42.667969 172.210938 L 469.332031 172.210938 L 469.332031 481.109375 L 42.667969 481.109375 Z M 42.667969 172.210938 "/>
<path style=" stroke:none;fill-rule:nonzero;fill:rgb(100%,100%,100%);fill-opacity:1;" d="M 185.53125 496.554688 C 185.53125 501.886719 181.210938 506.207031 175.878906 506.207031 C 170.546875 506.207031 166.226562 501.886719 166.226562 496.554688 C 166.226562 491.222656 170.546875 486.902344 175.878906 486.902344 C 181.210938 486.902344 185.53125 491.222656 185.53125 496.554688 "/>
<path style=" stroke:none;fill-rule:nonzero;fill:rgb(100%,100%,100%);fill-opacity:1;" d="M 270.480469 46.722656 C 270.480469 52.050781 266.160156 56.375 260.828125 56.375 C 255.496094 56.375 251.175781 52.050781 251.175781 46.722656 C 251.175781 41.390625 255.496094 37.066406 260.828125 37.066406 C 266.160156 37.066406 270.480469 41.390625 270.480469 46.722656 "/>
<path style=" stroke:none;fill-rule:nonzero;fill:rgb(100%,100%,100%);fill-opacity:1;" d="M 359.289062 4.246094 C 359.289062 9.578125 354.964844 13.898438 349.636719 13.898438 C 344.304688 13.898438 339.980469 9.578125 339.980469 4.246094 C 339.980469 -1.085938 344.304688 -5.40625 349.636719 -5.40625 C 354.964844 -5.40625 359.289062 -1.085938 359.289062 4.246094 "/>
<path style=" stroke:none;fill-rule:nonzero;fill:rgb(100%,100%,100%);fill-opacity:1;" d="M 11.777344 164.488281 C 11.777344 169.820312 7.457031 174.140625 2.125 174.140625 C -3.207031 174.140625 -7.527344 169.820312 -7.527344 164.488281 C -7.527344 159.15625 -3.207031 154.835938 2.125 154.835938 C 7.457031 154.835938 11.777344 159.15625 11.777344 164.488281 "/>
<path style=" stroke:none;fill-rule:nonzero;fill:rgb(100%,100%,100%);fill-opacity:1;" d="M 382.457031 112.363281 C 382.457031 117.691406 378.132812 122.015625 372.800781 122.015625 C 367.472656 122.015625 363.148438 117.691406 363.148438 112.363281 C 363.148438 107.03125 367.472656 102.707031 372.800781 102.707031 C 378.132812 102.707031 382.457031 107.03125 382.457031 112.363281 "/>
<path style=" stroke:none;fill-rule:nonzero;fill:rgb(100%,100%,100%);fill-opacity:1;" d="M 119.890625 73.75 C 119.890625 79.082031 115.570312 83.402344 110.238281 83.402344 C 104.90625 83.402344 100.585938 79.082031 100.585938 73.75 C 100.585938 68.417969 104.90625 64.097656 110.238281 64.097656 C 115.570312 64.097656 119.890625 68.417969 119.890625 73.75 "/>
<path style=" stroke:none;fill-rule:nonzero;fill:rgb(100%,100%,100%);fill-opacity:1;" d="M 181.671875 69.886719 C 181.671875 75.21875 177.347656 79.542969 172.019531 79.542969 C 166.6875 79.542969 162.363281 75.21875 162.363281 69.886719 C 162.363281 64.558594 166.6875 60.234375 172.019531 60.234375 C 177.347656 60.234375 181.671875 64.558594 181.671875 69.886719 "/>
<path style=" stroke:none;fill-rule:nonzero;fill:rgb(100%,100%,100%);fill-opacity:1;" d="M 2.125 232.058594 C 2.125 237.390625 -2.199219 241.714844 -7.527344 241.714844 C -12.859375 241.714844 -17.183594 237.390625 -17.183594 232.058594 C -17.183594 226.730469 -12.859375 222.40625 -7.527344 222.40625 C -2.199219 222.40625 2.125 226.730469 2.125 232.058594 "/>
<path style=" stroke:none;fill-rule:nonzero;fill:rgb(100%,100%,100%);fill-opacity:1;" d="M 13.707031 40.929688 C 13.707031 46.261719 9.386719 50.582031 4.054688 50.582031 C -1.277344 50.582031 -5.597656 46.261719 -5.597656 40.929688 C -5.597656 35.597656 -1.277344 31.277344 4.054688 31.277344 C 9.386719 31.277344 13.707031 35.597656 13.707031 40.929688 "/>
<path style=" stroke:none;fill-rule:nonzero;fill:rgb(100%,100%,100%);fill-opacity:1;" d="M 108.308594 504.277344 C 108.308594 509.609375 103.984375 513.929688 98.65625 513.929688 C 93.324219 513.929688 89 509.609375 89 504.277344 C 89 498.945312 93.324219 494.625 98.65625 494.625 C 103.984375 494.625 108.308594 498.945312 108.308594 504.277344 "/>
<path style=" stroke:none;fill-rule:nonzero;fill:rgb(100%,100%,100%);fill-opacity:1;" d="M 117.960938 162.558594 C 117.960938 167.890625 113.640625 172.210938 108.308594 172.210938 C 102.976562 172.210938 98.65625 167.890625 98.65625 162.558594 C 98.65625 157.226562 102.976562 152.90625 108.308594 152.90625 C 113.640625 152.90625 117.960938 157.226562 117.960938 162.558594 "/>
<path style=" stroke:none;fill-rule:nonzero;fill:rgb(100%,100%,100%);fill-opacity:1;" d="M 455.820312 483.039062 C 455.820312 488.371094 451.496094 492.695312 446.164062 492.695312 C 440.835938 492.695312 436.511719 488.371094 436.511719 483.039062 C 436.511719 477.710938 440.835938 473.386719 446.164062 473.386719 C 451.496094 473.386719 455.820312 477.710938 455.820312 483.039062 "/>
<path style=" stroke:none;fill-rule:nonzero;fill:rgb(100%,100%,100%);fill-opacity:1;" d="M 0.191406 116.222656 C 0.191406 121.554688 -4.128906 125.875 -9.460938 125.875 C -14.792969 125.875 -19.113281 121.554688 -19.113281 116.222656 C -19.113281 110.890625 -14.792969 106.570312 -9.460938 106.570312 C -4.128906 106.570312 0.191406 110.890625 0.191406 116.222656 "/>
<path style=" stroke:none;fill-rule:nonzero;fill:rgb(100%,100%,100%);fill-opacity:1;" d="M 202.90625 17.761719 C 202.90625 23.09375 198.585938 27.414062 193.253906 27.414062 C 187.921875 27.414062 183.601562 23.09375 183.601562 17.761719 C 183.601562 12.429688 187.921875 8.109375 193.253906 8.109375 C 198.585938 8.109375 202.90625 12.429688 202.90625 17.761719 "/>
<path style=" stroke:none;fill-rule:nonzero;fill:rgb(100%,100%,100%);fill-opacity:1;" d="M 374.734375 81.472656 C 374.734375 86.804688 370.410156 91.125 365.078125 91.125 C 359.75 91.125 355.425781 86.804688 355.425781 81.472656 C 355.425781 76.140625 359.75 71.820312 365.078125 71.820312 C 370.410156 71.820312 374.734375 76.140625 374.734375 81.472656 "/>
<path style=" stroke:none;fill-rule:nonzero;fill:rgb(100%,100%,100%);fill-opacity:1;" d="M 531.113281 322.800781 C 531.113281 328.128906 526.792969 332.453125 521.460938 332.453125 C 516.128906 332.453125 511.808594 328.128906 511.808594 322.800781 C 511.808594 317.46875 516.128906 313.144531 521.460938 313.144531 C 526.792969 313.144531 531.113281 317.46875 531.113281 322.800781 "/>
<path style=" stroke:none;fill-rule:nonzero;fill:rgb(100%,100%,100%);fill-opacity:1;" d="M 46.527344 484.972656 C 46.527344 490.300781 42.207031 494.625 36.875 494.625 C 31.542969 494.625 27.222656 490.300781 27.222656 484.972656 C 27.222656 479.640625 31.542969 475.316406 36.875 475.316406 C 42.207031 475.316406 46.527344 479.640625 46.527344 484.972656 "/>
<path style=" stroke:none;fill-rule:nonzero;fill:rgb(100%,100%,100%);fill-opacity:1;" d="M 478.984375 152.90625 C 478.984375 158.234375 474.664062 162.558594 469.332031 162.558594 C 464 162.558594 459.679688 158.234375 459.679688 152.90625 C 459.679688 147.574219 464 143.25 469.332031 143.25 C 474.664062 143.25 478.984375 147.574219 478.984375 152.90625 "/>
<path style=" stroke:none;fill-rule:nonzero;fill:rgb(100%,100%,100%);fill-opacity:1;" d="M 77.417969 512 C 77.417969 517.332031 73.097656 521.652344 67.765625 521.652344 C 62.433594 521.652344 58.113281 517.332031 58.113281 512 C 58.113281 506.667969 62.433594 502.347656 67.765625 502.347656 C 73.097656 502.347656 77.417969 506.667969 77.417969 512 "/>
<path style=" stroke:none;fill-rule:nonzero;fill:rgb(100%,100%,100%);fill-opacity:1;" d="M 316.8125 156.765625 C 316.8125 162.097656 312.492188 166.417969 307.160156 166.417969 C 301.828125 166.417969 297.507812 162.097656 297.507812 156.765625 C 297.507812 151.433594 301.828125 147.113281 307.160156 147.113281 C 312.492188 147.113281 316.8125 151.433594 316.8125 156.765625 "/>
<path style=" stroke:none;fill-rule:nonzero;fill:rgb(100%,100%,100%);fill-opacity:1;" d="M 531.113281 199.238281 C 531.113281 204.570312 526.792969 208.894531 521.460938 208.894531 C 516.128906 208.894531 511.808594 204.570312 511.808594 199.238281 C 511.808594 193.910156 516.128906 189.585938 521.460938 189.585938 C 526.792969 189.585938 531.113281 193.910156 531.113281 199.238281 "/>
<path style=" stroke:none;fill-rule:nonzero;fill:rgb(100%,100%,100%);fill-opacity:1;" d="M 243.449219 23.554688 C 243.449219 28.886719 239.128906 33.207031 233.796875 33.207031 C 228.464844 33.207031 224.144531 28.886719 224.144531 23.554688 C 224.144531 18.222656 228.464844 13.902344 233.796875 13.902344 C 239.128906 13.902344 243.449219 18.222656 243.449219 23.554688 "/>
<path style=" stroke:none;fill-rule:nonzero;fill:rgb(100%,100%,100%);fill-opacity:1;" d="M 247.3125 114.292969 C 247.3125 119.625 242.992188 123.945312 237.660156 123.945312 C 232.328125 123.945312 228.007812 119.625 228.007812 114.292969 C 228.007812 108.960938 232.328125 104.640625 237.660156 104.640625 C 242.992188 104.640625 247.3125 108.960938 247.3125 114.292969 "/>
<path style=" stroke:none;fill-rule:nonzero;fill:rgb(100%,100%,100%);fill-opacity:1;" d="M 326.46875 118.152344 C 326.46875 123.484375 322.144531 127.808594 316.8125 127.808594 C 311.484375 127.808594 307.160156 123.484375 307.160156 118.152344 C 307.160156 112.824219 311.484375 108.5 316.8125 108.5 C 322.144531 108.5 326.46875 112.824219 326.46875 118.152344 "/>
<path style=" stroke:none;fill-rule:nonzero;fill:rgb(100%,100%,100%);fill-opacity:1;" d="M 158.503906 112.363281 C 158.503906 117.691406 154.183594 122.015625 148.851562 122.015625 C 143.519531 122.015625 139.199219 117.691406 139.199219 112.363281 C 139.199219 107.03125 143.519531 102.707031 148.851562 102.707031 C 154.183594 102.707031 158.503906 107.03125 158.503906 112.363281 "/>
<path style=" stroke:none;fill-rule:nonzero;fill:rgb(100%,100%,100%);fill-opacity:1;" d="M 494.429688 91.125 C 494.429688 96.457031 490.109375 100.777344 484.777344 100.777344 C 479.445312 100.777344 475.125 96.457031 475.125 91.125 C 475.125 85.792969 479.445312 81.472656 484.777344 81.472656 C 490.109375 81.472656 494.429688 85.792969 494.429688 91.125 "/>
<path style=" stroke:none;fill-rule:nonzero;fill:rgb(100%,100%,100%);fill-opacity:1;" d="M 54.25 19.691406 C 54.25 25.023438 49.929688 29.34375 44.597656 29.34375 C 39.265625 29.34375 34.945312 25.023438 34.945312 19.691406 C 34.945312 14.359375 39.265625 10.039062 44.597656 10.039062 C 49.929688 10.039062 54.25 14.359375 54.25 19.691406 "/>
<path style=" stroke:none;fill-rule:nonzero;fill:rgb(100%,100%,100%);fill-opacity:1;" d="M 75.488281 6.179688 C 75.488281 11.507812 71.164062 15.832031 65.835938 15.832031 C 60.503906 15.832031 56.179688 11.507812 56.179688 6.179688 C 56.179688 0.847656 60.503906 -3.476562 65.835938 -3.476562 C 71.164062 -3.476562 75.488281 0.847656 75.488281 6.179688 "/>
<path style=" stroke:none;fill-rule:nonzero;fill:rgb(100%,100%,100%);fill-opacity:1;" d="M 509.875 407.746094 C 509.875 413.078125 505.554688 417.398438 500.222656 417.398438 C 494.890625 417.398438 490.570312 413.078125 490.570312 407.746094 C 490.570312 402.414062 494.890625 398.09375 500.222656 398.09375 C 505.554688 398.09375 509.875 402.414062 509.875 407.746094 "/>
<path style=" stroke:none;fill-rule:nonzero;fill:rgb(100%,100%,100%);fill-opacity:1;" d="M 206.769531 137.460938 C 206.769531 142.792969 202.445312 147.113281 197.117188 147.113281 C 191.785156 147.113281 187.464844 142.792969 187.464844 137.460938 C 187.464844 132.128906 191.785156 127.808594 197.117188 127.808594 C 202.445312 127.808594 206.769531 132.128906 206.769531 137.460938 "/>
<path style=" stroke:none;fill-rule:nonzero;fill:rgb(100%,100%,100%);fill-opacity:1;" d="M 307.160156 58.304688 C 307.160156 63.636719 302.839844 67.957031 297.507812 67.957031 C 292.175781 67.957031 287.855469 63.636719 287.855469 58.304688 C 287.855469 52.972656 292.175781 48.652344 297.507812 48.652344 C 302.839844 48.652344 307.160156 52.972656 307.160156 58.304688 "/>
<path style=" stroke:none;fill-rule:nonzero;fill:rgb(100%,100%,100%);fill-opacity:1;" d="M 459.679688 0.386719 C 459.679688 5.71875 455.359375 10.039062 450.027344 10.039062 C 444.695312 10.039062 440.375 5.71875 440.375 0.386719 C 440.375 -4.945312 444.695312 -9.265625 450.027344 -9.265625 C 455.359375 -9.265625 459.679688 -4.945312 459.679688 0.386719 "/>
<path style=" stroke:none;fill-rule:nonzero;fill:rgb(100%,100%,100%);fill-opacity:1;" d="M 104.445312 23.554688 C 104.445312 28.886719 100.125 33.207031 94.792969 33.207031 C 89.460938 33.207031 85.140625 28.886719 85.140625 23.554688 C 85.140625 18.222656 89.460938 13.902344 94.792969 13.902344 C 100.125 13.902344 104.445312 18.222656 104.445312 23.554688 "/>
<path style=" stroke:none;fill-rule:nonzero;fill:rgb(100%,100%,100%);fill-opacity:1;" d="M 199.046875 -7.335938 C 199.046875 -2.003906 194.726562 2.316406 189.394531 2.316406 C 184.0625 2.316406 179.742188 -2.003906 179.742188 -7.335938 C 179.742188 -12.667969 184.0625 -16.988281 189.394531 -16.988281 C 194.726562 -16.988281 199.046875 -12.667969 199.046875 -7.335938 "/>
<path style=" stroke:none;fill-rule:nonzero;fill:rgb(100%,100%,100%);fill-opacity:1;" d="M 488.640625 226.269531 C 488.640625 231.597656 484.316406 235.921875 478.984375 235.921875 C 473.65625 235.921875 469.332031 231.597656 469.332031 226.269531 C 469.332031 220.9375 473.65625 216.613281 478.984375 216.613281 C 484.316406 216.613281 488.640625 220.9375 488.640625 226.269531 "/>
<path style=" stroke:none;fill-rule:nonzero;fill:rgb(100%,100%,100%);fill-opacity:1;" d="M 392.109375 502.347656 C 392.109375 507.679688 387.789062 512 382.457031 512 C 377.125 512 372.804688 507.679688 372.804688 502.347656 C 372.804688 497.015625 377.125 492.695312 382.457031 492.695312 C 387.789062 492.695312 392.109375 497.015625 392.109375 502.347656 "/>
<path style=" stroke:none;fill-rule:nonzero;fill:rgb(100%,100%,100%);fill-opacity:1;" d="M 2.125 147.113281 C 2.125 152.445312 -2.199219 156.765625 -7.527344 156.765625 C -12.859375 156.765625 -17.183594 152.445312 -17.183594 147.113281 C -17.183594 141.78125 -12.859375 137.460938 -7.527344 137.460938 C -2.199219 137.460938 2.125 141.78125 2.125 147.113281 "/>
<path style=" stroke:none;fill-rule:nonzero;fill:rgb(100%,100%,100%);fill-opacity:1;" d="M 60.042969 139.390625 C 60.042969 144.722656 55.71875 149.042969 50.390625 149.042969 C 45.058594 149.042969 40.734375 144.722656 40.734375 139.390625 C 40.734375 134.058594 45.058594 129.738281 50.390625 129.738281 C 55.71875 129.738281 60.042969 134.058594 60.042969 139.390625 "/>
<path style=" stroke:none;fill-rule:nonzero;fill:rgb(100%,100%,100%);fill-opacity:1;" d="M 486.710938 288.046875 C 486.710938 293.378906 482.386719 297.699219 477.054688 297.699219 C 471.726562 297.699219 467.402344 293.378906 467.402344 288.046875 C 467.402344 282.714844 471.726562 278.394531 477.054688 278.394531 C 482.386719 278.394531 486.710938 282.714844 486.710938 288.046875 "/>
<path style=" stroke:none;fill-rule:nonzero;fill:rgb(100%,100%,100%);fill-opacity:1;" d="M 480.917969 143.253906 C 480.917969 148.582031 476.59375 152.90625 471.265625 152.90625 C 465.933594 152.90625 461.609375 148.582031 461.609375 143.253906 C 461.609375 137.921875 465.933594 133.597656 471.265625 133.597656 C 476.59375 133.597656 480.917969 137.921875 480.917969 143.253906 "/>
<path style=" stroke:none;fill-rule:nonzero;fill:rgb(100%,84.3%,0%);fill-opacity:1;" d="M 459.679688 461.804688 C 459.679688 467.136719 455.359375 471.457031 450.027344 471.457031 C 444.695312 471.457031 440.375 467.136719 440.375 461.804688 C 440.375 456.472656 444.695312 452.152344 450.027344 452.152344 C 455.359375 452.152344 459.679688 456.472656 459.679688 461.804688 "/>
<path style=" stroke:none;fill-rule:nonzero;fill:rgb(100%,84.3%,0%);fill-opacity:1;" d="M 457.75 191.515625 C 457.75 196.847656 453.429688 201.171875 448.097656 201.171875 C 442.765625 201.171875 438.445312 196.847656 438.445312 191.515625 C 438.445312 186.1875 442.765625 181.863281 448.097656 181.863281 C 453.429688 181.863281 457.75 186.1875 457.75 191.515625 "/>
<path style=" stroke:none;fill-rule:nonzero;fill:rgb(100%,84.3%,0%);fill-opacity:1;" d="M 459.679688 398.09375 C 459.679688 403.425781 455.359375 407.746094 450.027344 407.746094 C 444.695312 407.746094 440.375 403.425781 440.375 398.09375 C 440.375 392.761719 444.695312 388.441406 450.027344 388.441406 C 455.359375 388.441406 459.679688 392.761719 459.679688 398.09375 "/>
<path style=" stroke:none;fill-rule:nonzero;fill:rgb(100%,84.3%,0%);fill-opacity:1;" d="M 71.625 423.191406 C 71.625 428.523438 67.304688 432.84375 61.972656 432.84375 C 56.640625 432.84375 52.320312 428.523438 52.320312 423.191406 C 52.320312 417.859375 56.640625 413.539062 61.972656 413.539062 C 67.304688 413.539062 71.625 417.859375 71.625 423.191406 "/>
<path style=" stroke:none;fill-rule:nonzero;fill:rgb(100%,84.3%,0%);fill-opacity:1;" d="M 71.625 365.273438 C 71.625 370.605469 67.304688 374.925781 61.972656 374.925781 C 56.640625 374.925781 52.320312 370.605469 52.320312 365.273438 C 52.320312 359.941406 56.640625 355.621094 61.972656 355.621094 C 67.304688 355.621094 71.625 359.941406 71.625 365.273438 "/>
<path style=" stroke:none;fill-rule:nonzero;fill:rgb(100%,84.3%,0%);fill-opacity:1;" d="M 266.617188 461.804688 C 266.617188 467.136719 262.296875 471.457031 256.964844 471.457031 C 251.632812 471.457031 247.3125 467.136719 247.3125 461.804688 C 247.3125 456.472656 251.632812 452.152344 256.964844 452.152344 C 262.296875 452.152344 266.617188 456.472656 266.617188 461.804688 "/>
<path style=" stroke:none;fill-rule:nonzero;fill:rgb(100%,84.3%,0%);fill-opacity:1;" d="M 324.535156 461.804688 C 324.535156 467.136719 320.214844 471.457031 314.882812 471.457031 C 309.554688 471.457031 305.230469 467.136719 305.230469 461.804688 C 305.230469 456.472656 309.554688 452.152344 314.882812 452.152344 C 320.214844 452.152344 324.535156 456.472656 324.535156 461.804688 "/>
<path style=" stroke:none;fill-rule:nonzero;fill:rgb(100%,84.3%,0%);fill-opacity:1;" d="M 71.625 191.515625 C 71.625 196.847656 67.304688 201.171875 61.972656 201.171875 C 56.640625 201.171875 52.320312 196.847656 52.320312 191.515625 C 52.320312 186.1875 56.640625 181.863281 61.972656 181.863281 C 67.304688 181.863281 71.625 186.1875 71.625 191.515625 "/>
<path style=" stroke:none;fill-rule:nonzero;fill:rgb(100%,84.3%,0%);fill-opacity:1;" d="M 392.109375 445.085938 C 392.109375 450.414062 387.789062 454.738281 382.457031 454.738281 C 377.125 454.738281 372.804688 450.414062 372.804688 445.085938 C 372.804688 439.753906 377.125 435.429688 382.457031 435.429688 C 387.789062 435.429688 392.109375 439.753906 392.109375 445.085938 "/>
<path style=" stroke:none;fill-rule:nonzero;fill:rgb(100%,84.3%,0%);fill-opacity:1;" d="M 73.554688 461.804688 C 73.554688 467.136719 69.234375 471.457031 63.902344 471.457031 C 58.570312 471.457031 54.25 467.136719 54.25 461.804688 C 54.25 456.472656 58.570312 452.152344 63.902344 452.152344 C 69.234375 452.152344 73.554688 456.472656 73.554688 461.804688 "/>
<path style=" stroke:none;fill-rule:nonzero;fill:rgb(100%,84.3%,0%);fill-opacity:1;" d="M 440.375 461.804688 C 440.375 467.136719 436.050781 471.457031 430.722656 471.457031 C 425.390625 471.457031 421.066406 467.136719 421.066406 461.804688 C 421.066406 456.472656 425.390625 452.152344 430.722656 452.152344 C 436.050781 452.152344 440.375 456.472656 440.375 461.804688 "/>
<path style=" stroke:none;fill-rule:nonzero;fill:rgb(100%,84.3%,0%);fill-opacity:1;" d="M 459.679688 224.339844 C 459.679688 229.667969 455.359375 233.992188 450.027344 233.992188 C 444.695312 233.992188 440.375 229.667969 440.375 224.339844 C 440.375 219.007812 444.695312 214.683594 450.027344 214.683594 C 455.359375 214.683594 459.679688 219.007812 459.679688 224.339844 "/>
<path style=" stroke:none;fill-rule:nonzero;fill:rgb(100%,84.3%,0%);fill-opacity:1;" d="M 459.679688 282.257812 C 459.679688 287.585938 455.359375 291.910156 450.027344 291.910156 C 444.695312 291.910156 440.375 287.585938 440.375 282.257812 C 440.375 276.925781 444.695312 272.601562 450.027344 272.601562 C 455.359375 272.601562 459.679688 276.925781 459.679688 282.257812 "/>
<path style=" stroke:none;fill-rule:nonzero;fill:rgb(100%,84.3%,0%);fill-opacity:1;" d="M 129.542969 191.515625 C 129.542969 196.847656 125.222656 201.171875 119.890625 201.171875 C 114.558594 201.171875 110.238281 196.847656 110.238281 191.515625 C 110.238281 186.1875 114.558594 181.863281 119.890625 181.863281 C 125.222656 181.863281 129.542969 186.1875 129.542969 191.515625 "/>
<path style=" stroke:none;fill-rule:nonzero;fill:rgb(100%,84.3%,0%);fill-opacity:1;" d="M 148.851562 191.515625 C 148.851562 196.847656 144.527344 201.171875 139.199219 201.171875 C 133.867188 201.171875 129.542969 196.847656 129.542969 191.515625 C 129.542969 186.1875 133.867188 181.863281 139.199219 181.863281 C 144.527344 181.863281 148.851562 186.1875 148.851562 191.515625 "/>
<path style=" stroke:none;fill-rule:nonzero;fill:rgb(100%,84.3%,0%);fill-opacity:1;" d="M 247.3125 461.804688 C 247.3125 467.136719 242.992188 471.457031 237.660156 471.457031 C 232.328125 471.457031 228.007812 467.136719 228.007812 461.804688 C 228.007812 456.472656 232.328125 452.152344 237.660156 452.152344 C 242.992188 452.152344 247.3125 456.472656 247.3125 461.804688 "/>
<path style=" stroke:none;fill-rule:nonzero;fill:rgb(100%,84.3%,0%);fill-opacity:1;" d="M 90.933594 191.515625 C 90.933594 196.847656 86.609375 201.171875 81.277344 201.171875 C 75.949219 201.171875 71.625 196.847656 71.625 191.515625 C 71.625 186.1875 75.949219 181.863281 81.277344 181.863281 C 86.609375 181.863281 90.933594 186.1875 90.933594 191.515625 "/>
<path style=" stroke:none;fill-rule:nonzero;fill:rgb(100%,84.3%,0%);fill-opacity:1;" d="M 459.679688 320.867188 C 459.679688 326.199219 455.359375 330.523438 450.027344 330.523438 C 444.695312 330.523438 440.375 326.199219 440.375 320.867188 C 440.375 315.539062 444.695312 311.214844 450.027344 311.214844 C 455.359375 311.214844 459.679688 315.539062 459.679688 320.867188 "/>
<path style=" stroke:none;fill-rule:nonzero;fill:rgb(100%,84.3%,0%);fill-opacity:1;" d="M 110.238281 191.515625 C 110.238281 196.847656 105.917969 201.171875 100.585938 201.171875 C 95.253906 201.171875 90.933594 196.847656 90.933594 191.515625 C 90.933594 186.1875 95.253906 181.863281 100.585938 181.863281 C 105.917969 181.863281 110.238281 186.1875 110.238281 191.515625 "/>
<path style=" stroke:none;fill-rule:nonzero;fill:rgb(100%,84.3%,0%);fill-opacity:1;" d="M 71.625 210.824219 C 71.625 216.15625 67.304688 220.476562 61.972656 220.476562 C 56.640625 220.476562 52.320312 216.15625 52.320312 210.824219 C 52.320312 205.492188 56.640625 201.171875 61.972656 201.171875 C 67.304688 201.171875 71.625 205.492188 71.625 210.824219 "/>
<path style=" stroke:none;fill-rule:nonzero;fill:rgb(100%,84.3%,0%);fill-opacity:1;" d="M 459.679688 417.398438 C 459.679688 422.730469 455.359375 427.054688 450.027344 427.054688 C 444.695312 427.054688 440.375 422.730469 440.375 417.398438 C 440.375 412.070312 444.695312 407.746094 450.027344 407.746094 C 455.359375 407.746094 459.679688 412.070312 459.679688 417.398438 "/>
<path style=" stroke:none;fill-rule:nonzero;fill:rgb(100%,84.3%,0%);fill-opacity:1;" d="M 459.679688 262.949219 C 459.679688 268.28125 455.359375 272.601562 450.027344 272.601562 C 444.695312 272.601562 440.375 268.28125 440.375 262.949219 C 440.375 257.617188 444.695312 253.296875 450.027344 253.296875 C 455.359375 253.296875 459.679688 257.617188 459.679688 262.949219 "/>
<path style=" stroke:none;fill-rule:nonzero;fill:rgb(100%,84.3%,0%);fill-opacity:1;" d="M 71.625 345.96875 C 71.625 351.296875 67.304688 355.621094 61.972656 355.621094 C 56.640625 355.621094 52.320312 351.296875 52.320312 345.96875 C 52.320312 340.636719 56.640625 336.3125 61.972656 336.3125 C 67.304688 336.3125 71.625 340.636719 71.625 345.96875 "/>
<path style=" stroke:none;fill-rule:nonzero;fill:rgb(100%,84.3%,0%);fill-opacity:1;" d="M 459.679688 378.785156 C 459.679688 384.117188 455.359375 388.441406 450.027344 388.441406 C 444.695312 388.441406 440.375 384.117188 440.375 378.785156 C 440.375 373.457031 444.695312 369.132812 450.027344 369.132812 C 455.359375 369.132812 459.679688 373.457031 459.679688 378.785156 "/>
<path style=" stroke:none;fill-rule:nonzero;fill:rgb(100%,84.3%,0%);fill-opacity:1;" d="M 131.476562 461.804688 C 131.476562 467.136719 127.152344 471.457031 121.820312 471.457031 C 116.492188 471.457031 112.167969 467.136719 112.167969 461.804688 C 112.167969 456.472656 116.492188 452.152344 121.820312 452.152344 C 127.152344 452.152344 131.476562 456.472656 131.476562 461.804688 "/>
<path style=" stroke:none;fill-rule:nonzero;fill:rgb(100%,84.3%,0%);fill-opacity:1;" d="M 71.625 307.355469 C 71.625 312.683594 67.304688 317.007812 61.972656 317.007812 C 56.640625 317.007812 52.320312 312.683594 52.320312 307.355469 C 52.320312 302.023438 56.640625 297.699219 61.972656 297.699219 C 67.304688 297.699219 71.625 302.023438 71.625 307.355469 "/>
<path style=" stroke:none;fill-rule:nonzero;fill:rgb(100%,84.3%,0%);fill-opacity:1;" d="M 170.085938 461.804688 C 170.085938 467.136719 165.765625 471.457031 160.433594 471.457031 C 155.101562 471.457031 150.78125 467.136719 150.78125 461.804688 C 150.78125 456.472656 155.101562 452.152344 160.433594 452.152344 C 165.765625 452.152344 170.085938 456.472656 170.085938 461.804688 "/>
<path style=" stroke:none;fill-rule:nonzero;fill:rgb(100%,84.3%,0%);fill-opacity:1;" d="M 421.066406 461.804688 C 421.066406 467.136719 416.746094 471.457031 411.414062 471.457031 C 406.082031 471.457031 401.761719 467.136719 401.761719 461.804688 C 401.761719 456.472656 406.082031 452.152344 411.414062 452.152344 C 416.746094 452.152344 421.066406 456.472656 421.066406 461.804688 "/>
<path style=" stroke:none;fill-rule:nonzero;fill:rgb(100%,84.3%,0%);fill-opacity:1;" d="M 150.78125 461.804688 C 150.78125 467.136719 146.460938 471.457031 141.128906 471.457031 C 135.796875 471.457031 131.476562 467.136719 131.476562 461.804688 C 131.476562 456.472656 135.796875 452.152344 141.128906 452.152344 C 146.460938 452.152344 150.78125 456.472656 150.78125 461.804688 "/>
<path style=" stroke:none;fill-rule:nonzero;fill:rgb(100%,84.3%,0%);fill-opacity:1;" d="M 459.679688 359.480469 C 459.679688 364.8125 455.359375 369.132812 450.027344 369.132812 C 444.695312 369.132812 440.375 364.8125 440.375 359.480469 C 440.375 354.148438 444.695312 349.828125 450.027344 349.828125 C 455.359375 349.828125 459.679688 354.148438 459.679688 359.480469 "/>
<path style=" stroke:none;fill-rule:nonzero;fill:rgb(100%,84.3%,0%);fill-opacity:1;" d="M 459.679688 436.707031 C 459.679688 442.039062 455.359375 446.359375 450.027344 446.359375 C 444.695312 446.359375 440.375 442.039062 440.375 436.707031 C 440.375 431.375 444.695312 427.054688 450.027344 427.054688 C 455.359375 427.054688 459.679688 431.375 459.679688 436.707031 "/>
<path style=" stroke:none;fill-rule:nonzero;fill:rgb(100%,84.3%,0%);fill-opacity:1;" d="M 71.625 288.046875 C 71.625 293.378906 67.304688 297.699219 61.972656 297.699219 C 56.640625 297.699219 52.320312 293.378906 52.320312 288.046875 C 52.320312 282.714844 56.640625 278.394531 61.972656 278.394531 C 67.304688 278.394531 71.625 282.714844 71.625 288.046875 "/>
<path style=" stroke:none;fill-rule:nonzero;fill:rgb(100%,84.3%,0%);fill-opacity:1;" d="M 343.84375 461.804688 C 343.84375 467.136719 339.519531 471.457031 334.191406 471.457031 C 328.859375 471.457031 324.535156 467.136719 324.535156 461.804688 C 324.535156 456.472656 328.859375 452.152344 334.191406 452.152344 C 339.519531 452.152344 343.84375 456.472656 343.84375 461.804688 "/>
<path style=" stroke:none;fill-rule:nonzero;fill:rgb(100%,84.3%,0%);fill-opacity:1;" d="M 189.394531 461.804688 C 189.394531 467.136719 185.070312 471.457031 179.742188 471.457031 C 174.410156 471.457031 170.089844 467.136719 170.089844 461.804688 C 170.089844 456.472656 174.410156 452.152344 179.742188 452.152344 C 185.070312 452.152344 189.394531 456.472656 189.394531 461.804688 "/>
<path style=" stroke:none;fill-rule:nonzero;fill:rgb(100%,84.3%,0%);fill-opacity:1;" d="M 459.679688 340.175781 C 459.679688 345.507812 455.359375 349.828125 450.027344 349.828125 C 444.695312 349.828125 440.375 345.507812 440.375 340.175781 C 440.375 334.84375 444.695312 330.523438 450.027344 330.523438 C 455.359375 330.523438 459.679688 334.84375 459.679688 340.175781 "/>
<path style=" stroke:none;fill-rule:nonzero;fill:rgb(100%,84.3%,0%);fill-opacity:1;" d="M 363.148438 461.804688 C 363.148438 467.136719 358.828125 471.457031 353.496094 471.457031 C 348.164062 471.457031 343.84375 467.136719 343.84375 461.804688 C 343.84375 456.472656 348.164062 452.152344 353.496094 452.152344 C 358.828125 452.152344 363.148438 456.472656 363.148438 461.804688 "/>
<path style=" stroke:none;fill-rule:nonzero;fill:rgb(100%,84.3%,0%);fill-opacity:1;" d="M 228.007812 461.804688 C 228.007812 467.136719 223.683594 471.457031 218.351562 471.457031 C 213.023438 471.457031 208.699219 467.136719 208.699219 461.804688 C 208.699219 456.472656 213.023438 452.152344 218.351562 452.152344 C 223.683594 452.152344 228.007812 456.472656 228.007812 461.804688 "/>
<path style=" stroke:none;fill-rule:nonzero;fill:rgb(100%,84.3%,0%);fill-opacity:1;" d="M 206.769531 191.515625 C 206.769531 196.847656 202.445312 201.171875 197.117188 201.171875 C 191.785156 201.171875 187.464844 196.847656 187.464844 191.515625 C 187.464844 186.1875 191.785156 181.863281 197.117188 181.863281 C 202.445312 181.863281 206.769531 186.1875 206.769531 191.515625 "/>
<path style=" stroke:none;fill-rule:nonzero;fill:rgb(100%,84.3%,0%);fill-opacity:1;" d="M 226.074219 191.515625 C 226.074219 196.847656 221.753906 201.171875 216.421875 201.171875 C 211.089844 201.171875 206.769531 196.847656 206.769531 191.515625 C 206.769531 186.1875 211.089844 181.863281 216.421875 181.863281 C 221.753906 181.863281 226.074219 186.1875 226.074219 191.515625 "/>
<path style=" stroke:none;fill-rule:nonzero;fill:rgb(100%,84.3%,0%);fill-opacity:1;" d="M 448.097656 208.238281 C 448.097656 213.566406 443.773438 217.890625 438.441406 217.890625 C 433.113281 217.890625 428.789062 213.566406 428.789062 208.238281 C 428.789062 202.90625 433.113281 198.582031 438.441406 198.582031 C 443.773438 198.582031 448.097656 202.90625 448.097656 208.238281 "/>
<path style=" stroke:none;fill-rule:nonzero;fill:rgb(100%,84.3%,0%);fill-opacity:1;" d="M 401.761719 461.804688 C 401.761719 467.136719 397.441406 471.457031 392.109375 471.457031 C 386.777344 471.457031 382.457031 467.136719 382.457031 461.804688 C 382.457031 456.472656 386.777344 452.152344 392.109375 452.152344 C 397.441406 452.152344 401.761719 456.472656 401.761719 461.804688 "/>
<path style=" stroke:none;fill-rule:nonzero;fill:rgb(100%,84.3%,0%);fill-opacity:1;" d="M 459.679688 301.5625 C 459.679688 306.894531 455.359375 311.214844 450.027344 311.214844 C 444.695312 311.214844 440.375 306.894531 440.375 301.5625 C 440.375 296.230469 444.695312 291.910156 450.027344 291.910156 C 455.359375 291.910156 459.679688 296.230469 459.679688 301.5625 "/>
<path style=" stroke:none;fill-rule:nonzero;fill:rgb(100%,84.3%,0%);fill-opacity:1;" d="M 92.863281 461.804688 C 92.863281 467.136719 88.542969 471.457031 83.210938 471.457031 C 77.878906 471.457031 73.558594 467.136719 73.558594 461.804688 C 73.558594 456.472656 77.878906 452.152344 83.210938 452.152344 C 88.542969 452.152344 92.863281 456.472656 92.863281 461.804688 "/>
<path style=" stroke:none;fill-rule:nonzero;fill:rgb(100%,84.3%,0%);fill-opacity:1;" d="M 187.464844 191.515625 C 187.464844 196.847656 183.140625 201.171875 177.808594 201.171875 C 172.480469 201.171875 168.15625 196.847656 168.15625 191.515625 C 168.15625 186.1875 172.480469 181.863281 177.808594 181.863281 C 183.140625 181.863281 187.464844 186.1875 187.464844 191.515625 "/>
<path style=" stroke:none;fill-rule:nonzero;fill:rgb(100%,84.3%,0%);fill-opacity:1;" d="M 382.457031 461.804688 C 382.457031 467.136719 378.132812 471.457031 372.800781 471.457031 C 367.472656 471.457031 363.148438 467.136719 363.148438 461.804688 C 363.148438 456.472656 367.472656 452.152344 372.800781 452.152344 C 378.132812 452.152344 382.457031 456.472656 382.457031 461.804688 "/>
<path style=" stroke:none;fill-rule:nonzero;fill:rgb(100%,84.3%,0%);fill-opacity:1;" d="M 245.382812 191.515625 C 245.382812 196.847656 241.058594 201.171875 235.730469 201.171875 C 230.398438 201.171875 226.074219 196.847656 226.074219 191.515625 C 226.074219 186.1875 230.398438 181.863281 235.730469 181.863281 C 241.058594 181.863281 245.382812 186.1875 245.382812 191.515625 "/>
<path style=" stroke:none;fill-rule:nonzero;fill:rgb(100%,84.3%,0%);fill-opacity:1;" d="M 438.441406 191.515625 C 438.441406 196.847656 434.121094 201.171875 428.789062 201.171875 C 423.457031 201.171875 419.136719 196.847656 419.136719 191.515625 C 419.136719 186.1875 423.457031 181.863281 428.789062 181.863281 C 434.121094 181.863281 438.441406 186.1875 438.441406 191.515625 "/>
<path style=" stroke:none;fill-rule:nonzero;fill:rgb(100%,84.3%,0%);fill-opacity:1;" d="M 285.925781 461.804688 C 285.925781 467.136719 281.601562 471.457031 276.269531 471.457031 C 270.941406 471.457031 266.617188 467.136719 266.617188 461.804688 C 266.617188 456.472656 270.941406 452.152344 276.269531 452.152344 C 281.601562 452.152344 285.925781 456.472656 285.925781 461.804688 "/>
<path style=" stroke:none;fill-rule:nonzero;fill:rgb(100%,84.3%,0%);fill-opacity:1;" d="M 71.625 442.496094 C 71.625 447.828125 67.304688 452.152344 61.972656 452.152344 C 56.640625 452.152344 52.320312 447.828125 52.320312 442.496094 C 52.320312 437.167969 56.640625 432.84375 61.972656 432.84375 C 67.304688 432.84375 71.625 437.167969 71.625 442.496094 "/>
<path style=" stroke:none;fill-rule:nonzero;fill:rgb(100%,84.3%,0%);fill-opacity:1;" d="M 71.625 230.128906 C 71.625 235.460938 67.304688 239.78125 61.972656 239.78125 C 56.640625 239.78125 52.320312 235.460938 52.320312 230.128906 C 52.320312 224.796875 56.640625 220.476562 61.972656 220.476562 C 67.304688 220.476562 71.625 224.796875 71.625 230.128906 "/>
<path style=" stroke:none;fill-rule:nonzero;fill:rgb(100%,84.3%,0%);fill-opacity:1;" d="M 380.523438 191.515625 C 380.523438 196.847656 376.203125 201.171875 370.871094 201.171875 C 365.539062 201.171875 361.21875 196.847656 361.21875 191.515625 C 361.21875 186.1875 365.539062 181.863281 370.871094 181.863281 C 376.203125 181.863281 380.523438 186.1875 380.523438 191.515625 "/>
<path style=" stroke:none;fill-rule:nonzero;fill:rgb(100%,84.3%,0%);fill-opacity:1;" d="M 168.15625 191.515625 C 168.15625 196.847656 163.835938 201.171875 158.503906 201.171875 C 153.171875 201.171875 148.851562 196.847656 148.851562 191.515625 C 148.851562 186.1875 153.171875 181.863281 158.503906 181.863281 C 163.835938 181.863281 168.15625 186.1875 168.15625 191.515625 "/>
<path style=" stroke:none;fill-rule:nonzero;fill:rgb(100%,84.3%,0%);fill-opacity:1;" d="M 112.167969 461.804688 C 112.167969 467.136719 107.847656 471.457031 102.515625 471.457031 C 97.183594 471.457031 92.863281 467.136719 92.863281 461.804688 C 92.863281 456.472656 97.183594 452.152344 102.515625 452.152344 C 107.847656 452.152344 112.167969 456.472656 112.167969 461.804688 "/>
<path style=" stroke:none;fill-rule:nonzero;fill:rgb(100%,84.3%,0%);fill-opacity:1;" d="M 208.699219 461.804688 C 208.699219 467.136719 204.378906 471.457031 199.046875 471.457031 C 193.714844 471.457031 189.394531 467.136719 189.394531 461.804688 C 189.394531 456.472656 193.714844 452.152344 199.046875 452.152344 C 204.378906 452.152344 208.699219 456.472656 208.699219 461.804688 "/>
<path style=" stroke:none;fill-rule:nonzero;fill:rgb(100%,84.3%,0%);fill-opacity:1;" d="M 71.625 326.660156 C 71.625 331.992188 67.304688 336.3125 61.972656 336.3125 C 56.640625 336.3125 52.320312 331.992188 52.320312 326.660156 C 52.320312 321.328125 56.640625 317.007812 61.972656 317.007812 C 67.304688 317.007812 71.625 321.328125 71.625 326.660156 "/>
<path style=" stroke:none;fill-rule:nonzero;fill:rgb(100%,84.3%,0%);fill-opacity:1;" d="M 459.679688 243.644531 C 459.679688 248.976562 455.359375 253.296875 450.027344 253.296875 C 444.695312 253.296875 440.375 248.976562 440.375 243.644531 C 440.375 238.3125 444.695312 233.992188 450.027344 233.992188 C 455.359375 233.992188 459.679688 238.3125 459.679688 243.644531 "/>
<path style=" stroke:none;fill-rule:nonzero;fill:rgb(100%,84.3%,0%);fill-opacity:1;" d="M 264.6875 191.515625 C 264.6875 196.847656 260.367188 201.171875 255.035156 201.171875 C 249.703125 201.171875 245.382812 196.847656 245.382812 191.515625 C 245.382812 186.1875 249.703125 181.863281 255.035156 181.863281 C 260.367188 181.863281 264.6875 186.1875 264.6875 191.515625 "/>
<path style=" stroke:none;fill-rule:nonzero;fill:rgb(100%,84.3%,0%);fill-opacity:1;" d="M 283.992188 191.515625 C 283.992188 196.847656 279.671875 201.171875 274.339844 201.171875 C 269.007812 201.171875 264.6875 196.847656 264.6875 191.515625 C 264.6875 186.1875 269.007812 181.863281 274.339844 181.863281 C 279.671875 181.863281 283.992188 186.1875 283.992188 191.515625 "/>
<path style=" stroke:none;fill-rule:nonzero;fill:rgb(100%,84.3%,0%);fill-opacity:1;" d="M 71.625 384.578125 C 71.625 389.910156 67.304688 394.230469 61.972656 394.230469 C 56.640625 394.230469 52.320312 389.910156 52.320312 384.578125 C 52.320312 379.246094 56.640625 374.925781 61.972656 374.925781 C 67.304688 374.925781 71.625 379.246094 71.625 384.578125 "/>
<path style=" stroke:none;fill-rule:nonzero;fill:rgb(100%,84.3%,0%);fill-opacity:1;" d="M 71.625 249.4375 C 71.625 254.765625 67.304688 259.089844 61.972656 259.089844 C 56.640625 259.089844 52.320312 254.765625 52.320312 249.4375 C 52.320312 244.105469 56.640625 239.78125 61.972656 239.78125 C 67.304688 239.78125 71.625 244.105469 71.625 249.4375 "/>
<path style=" stroke:none;fill-rule:nonzero;fill:rgb(100%,84.3%,0%);fill-opacity:1;" d="M 71.625 403.886719 C 71.625 409.214844 67.304688 413.539062 61.972656 413.539062 C 56.640625 413.539062 52.320312 409.214844 52.320312 403.886719 C 52.320312 398.554688 56.640625 394.230469 61.972656 394.230469 C 67.304688 394.230469 71.625 398.554688 71.625 403.886719 "/>
<path style=" stroke:none;fill-rule:nonzero;fill:rgb(100%,84.3%,0%);fill-opacity:1;" d="M 419.136719 191.515625 C 419.136719 196.847656 414.816406 201.171875 409.484375 201.171875 C 404.152344 201.171875 399.832031 196.847656 399.832031 191.515625 C 399.832031 186.1875 404.152344 181.863281 409.484375 181.863281 C 414.816406 181.863281 419.136719 186.1875 419.136719 191.515625 "/>
<path style=" stroke:none;fill-rule:nonzero;fill:rgb(100%,84.3%,0%);fill-opacity:1;" d="M 322.605469 191.515625 C 322.605469 196.847656 318.285156 201.171875 312.953125 201.171875 C 307.621094 201.171875 303.300781 196.847656 303.300781 191.515625 C 303.300781 186.1875 307.621094 181.863281 312.953125 181.863281 C 318.285156 181.863281 322.605469 186.1875 322.605469 191.515625 "/>
<path style=" stroke:none;fill-rule:nonzero;fill:rgb(100%,84.3%,0%);fill-opacity:1;" d="M 303.300781 191.515625 C 303.300781 196.847656 298.976562 201.171875 293.648438 201.171875 C 288.316406 201.171875 283.992188 196.847656 283.992188 191.515625 C 283.992188 186.1875 288.316406 181.863281 293.648438 181.863281 C 298.976562 181.863281 303.300781 186.1875 303.300781 191.515625 "/>
<path style=" stroke:none;fill-rule:nonzero;fill:rgb(100%,84.3%,0%);fill-opacity:1;" d="M 341.910156 191.515625 C 341.910156 196.847656 337.589844 201.171875 332.257812 201.171875 C 326.929688 201.171875 322.605469 196.847656 322.605469 191.515625 C 322.605469 186.1875 326.929688 181.863281 332.257812 181.863281 C 337.589844 181.863281 341.910156 186.1875 341.910156 191.515625 "/>
<path style=" stroke:none;fill-rule:nonzero;fill:rgb(100%,84.3%,0%);fill-opacity:1;" d="M 399.832031 191.515625 C 399.832031 196.847656 395.507812 201.171875 390.179688 201.171875 C 384.847656 201.171875 380.523438 196.847656 380.523438 191.515625 C 380.523438 186.1875 384.847656 181.863281 390.179688 181.863281 C 395.507812 181.863281 399.832031 186.1875 399.832031 191.515625 "/>
<path style=" stroke:none;fill-rule:nonzero;fill:rgb(100%,84.3%,0%);fill-opacity:1;" d="M 71.625 268.742188 C 71.625 274.074219 67.304688 278.394531 61.972656 278.394531 C 56.640625 278.394531 52.320312 274.074219 52.320312 268.742188 C 52.320312 263.410156 56.640625 259.089844 61.972656 259.089844 C 67.304688 259.089844 71.625 263.410156 71.625 268.742188 "/>
<path style=" stroke:none;fill-rule:nonzero;fill:rgb(100%,84.3%,0%);fill-opacity:1;" d="M 305.230469 461.804688 C 305.230469 467.136719 300.910156 471.457031 295.578125 471.457031 C 290.246094 471.457031 285.925781 467.136719 285.925781 461.804688 C 285.925781 456.472656 290.246094 452.152344 295.578125 452.152344 C 300.910156 452.152344 305.230469 456.472656 305.230469 461.804688 "/>
<path style=" stroke:none;fill-rule:nonzero;fill:rgb(100%,84.3%,0%);fill-opacity:1;" d="M 361.21875 191.515625 C 361.21875 196.847656 356.898438 201.171875 351.566406 201.171875 C 346.234375 201.171875 341.914062 196.847656 341.914062 191.515625 C 341.914062 186.1875 346.234375 181.863281 351.566406 181.863281 C 356.898438 181.863281 361.21875 186.1875 361.21875 191.515625 "/>
<path style=" stroke:none;fill-rule:nonzero;fill:rgb(100%,84.3%,0%);fill-opacity:1;" d="M 430.722656 445.085938 C 430.722656 450.414062 426.398438 454.738281 421.066406 454.738281 C 415.738281 454.738281 411.414062 450.414062 411.414062 445.085938 C 411.414062 439.753906 415.738281 435.429688 421.066406 435.429688 C 426.398438 435.429688 430.722656 439.753906 430.722656 445.085938 "/>
</g>
</svg>
