<?xml version="1.0" encoding="UTF-8"?>
<svg xmlns="http://www.w3.org/2000/svg" xmlns:xlink="http://www.w3.org/1999/xlink" width="512pt" height="512pt" viewBox="0 0 512 512" version="1.1">
<g id="surface181">
<path style=" stroke:none;fill-rule:nonzero;fill:rgb(26.7%,26.7%,26.7%);fill-opacity:1;" d="M 0 -27.976562 L 480.738281 -27.976562 L 480.738281 512 L 0 512 Z M 0 -27.976562 "/>
<path style=" stroke:none;fill-rule:nonzero;fill:rgb(19.2%,38.8%,66.7%);fill-opacity:1;" d="M 42.667969 306.113281 L 469.332031 306.113281 L 469.332031 493.285156 L 42.667969 493.285156 Z M 42.667969 306.113281 "/>
<path style=" stroke:none;fill-rule:nonzero;fill:rgb(100%,100%,100%);fill-opacity:1;" d="M 19.1875 420.160156 C 19.1875 424.632812 12.476562 424.632812 12.476562 420.160156 C 12.476562 415.6875 19.1875 415.6875 19.1875 420.160156 "/>
<path style=" stroke:none;fill-rule:nonzero;fill:rgb(100%,100%,100%);fill-opacity:1;" d="M 36.628906 86.742188 C 36.628906 91.214844 29.921875 91.214844 29.921875 86.742188 C 29.921875 82.269531 36.628906 82.269531 36.628906 86.742188 "/>
<path style=" stroke:none;fill-rule:nonzero;fill:rgb(100%,100%,100%);fill-opacity:1;" d="M 70.171875 223.597656 C 70.171875 228.070312 63.464844 228.070312 63.464844 223.597656 C 63.464844 219.125 70.171875 219.125 70.171875 223.597656 "/>
<path style=" stroke:none;fill-rule:nonzero;fill:rgb(100%,100%,100%);fill-opacity:1;" d="M 423.042969 85.398438 C 423.042969 89.871094 416.335938 89.871094 416.335938 85.398438 C 416.335938 80.925781 423.042969 80.925781 423.042969 85.398438 "/>
<path style=" stroke:none;fill-rule:nonzero;fill:rgb(100%,100%,100%);fill-opacity:1;" d="M 9.792969 118.273438 C 9.792969 122.746094 3.085938 122.746094 3.085938 118.273438 C 3.085938 113.800781 9.792969 113.800781 9.792969 118.273438 "/>
<path style=" stroke:none;fill-rule:nonzero;fill:rgb(100%,100%,100%);fill-opacity:1;" d="M 16.503906 231.648438 C 16.503906 236.121094 9.792969 236.121094 9.792969 231.648438 C 9.792969 227.175781 16.503906 227.175781 16.503906 231.648438 "/>
<path style=" stroke:none;fill-rule:nonzero;fill:rgb(100%,100%,100%);fill-opacity:1;" d="M 95.664062 237.6875 C 95.664062 242.160156 88.957031 242.160156 88.957031 237.6875 C 88.957031 233.214844 95.664062 233.214844 95.664062 237.6875 "/>
<path style=" stroke:none;fill-rule:nonzero;fill:rgb(100%,100%,100%);fill-opacity:1;" d="M 347.238281 190.054688 C 347.238281 194.527344 340.527344 194.527344 340.527344 190.054688 C 340.527344 185.582031 347.238281 185.582031 347.238281 190.054688 "/>
<path style=" stroke:none;fill-rule:nonzero;fill:rgb(100%,100%,100%);fill-opacity:1;" d="M 10.464844 420.160156 C 10.464844 424.632812 3.757812 424.632812 3.757812 420.160156 C 3.757812 415.6875 10.464844 415.6875 10.464844 420.160156 "/>
<path style=" stroke:none;fill-rule:nonzero;fill:rgb(100%,100%,100%);fill-opacity:1;" d="M 31.933594 49.175781 C 31.933594 53.644531 25.226562 53.644531 25.226562 49.175781 C 25.226562 44.703125 31.933594 44.703125 31.933594 49.175781 "/>
<path style=" stroke:none;fill-rule:nonzero;fill:rgb(100%,100%,100%);fill-opacity:1;" d="M 144.636719 46.492188 C 144.636719 50.964844 137.929688 50.964844 137.929688 46.492188 C 137.929688 42.019531 144.636719 42.019531 144.636719 46.492188 "/>
<path style=" stroke:none;fill-rule:nonzero;fill:rgb(100%,100%,100%);fill-opacity:1;" d="M 321.746094 188.714844 C 321.746094 193.183594 315.035156 193.183594 315.035156 188.714844 C 315.035156 184.242188 321.746094 184.242188 321.746094 188.714844 "/>
<path style=" stroke:none;fill-rule:nonzero;fill:rgb(100%,100%,100%);fill-opacity:1;" d="M 319.730469 116.261719 C 319.730469 120.730469 313.023438 120.730469 313.023438 116.261719 C 313.023438 111.789062 319.730469 111.789062 319.730469 116.261719 "/>
<path style=" stroke:none;fill-rule:nonzero;fill:rgb(100%,100%,100%);fill-opacity:1;" d="M 345.222656 8.921875 C 345.222656 13.394531 338.515625 13.394531 338.515625 8.921875 C 338.515625 4.449219 345.222656 4.449219 345.222656 8.921875 "/>
<path style=" stroke:none;fill-rule:nonzero;fill:rgb(100%,100%,100%);fill-opacity:1;" d="M 153.359375 268.546875 C 153.359375 273.015625 146.648438 273.015625 146.648438 268.546875 C 146.648438 264.074219 153.359375 264.074219 153.359375 268.546875 "/>
<path style=" stroke:none;fill-rule:nonzero;fill:rgb(100%,100%,100%);fill-opacity:1;" d="M 482.078125 508.714844 C 482.078125 513.183594 475.371094 513.183594 475.371094 508.714844 C 475.371094 504.242188 482.078125 504.242188 482.078125 508.714844 "/>
<path style=" stroke:none;fill-rule:nonzero;fill:rgb(100%,100%,100%);fill-opacity:1;" d="M 232.519531 251.101562 C 232.519531 255.574219 225.8125 255.574219 225.8125 251.101562 C 225.8125 246.628906 232.519531 246.628906 232.519531 251.101562 "/>
<path style=" stroke:none;fill-rule:nonzero;fill:rgb(100%,100%,100%);fill-opacity:1;" d="M 361.996094 237.6875 C 361.996094 242.160156 355.289062 242.160156 355.289062 237.6875 C 355.289062 233.214844 361.996094 233.214844 361.996094 237.6875 "/>
<path style=" stroke:none;fill-rule:nonzero;fill:rgb(100%,100%,100%);fill-opacity:1;" d="M 292.226562 242.382812 C 292.226562 246.855469 285.519531 246.855469 285.519531 242.382812 C 285.519531 237.910156 292.226562 237.910156 292.226562 242.382812 "/>
<path style=" stroke:none;fill-rule:nonzero;fill:rgb(100%,100%,100%);fill-opacity:1;" d="M 429.753906 239.027344 C 429.753906 243.5 423.042969 243.5 423.042969 239.027344 C 423.042969 234.554688 429.753906 234.554688 429.753906 239.027344 "/>
<path style=" stroke:none;fill-rule:nonzero;fill:rgb(100%,100%,100%);fill-opacity:1;" d="M 439.816406 109.550781 C 439.816406 114.023438 433.105469 114.023438 433.105469 109.550781 C 433.105469 105.078125 439.816406 105.078125 439.816406 109.550781 "/>
<path style=" stroke:none;fill-rule:nonzero;fill:rgb(100%,100%,100%);fill-opacity:1;" d="M 226.480469 253.785156 C 226.480469 258.257812 219.773438 258.257812 219.773438 253.785156 C 219.773438 249.3125 226.480469 249.3125 226.480469 253.785156 "/>
<path style=" stroke:none;fill-rule:nonzero;fill:rgb(100%,100%,100%);fill-opacity:1;" d="M 198.976562 259.824219 C 198.976562 264.296875 192.269531 264.296875 192.269531 259.824219 C 192.269531 255.351562 198.976562 255.351562 198.976562 259.824219 "/>
<path style=" stroke:none;fill-rule:nonzero;fill:rgb(100%,100%,100%);fill-opacity:1;" d="M 444.511719 40.453125 C 444.511719 44.925781 437.800781 44.925781 437.800781 40.453125 C 437.800781 35.980469 444.511719 35.980469 444.511719 40.453125 "/>
<path style=" stroke:none;fill-rule:nonzero;fill:rgb(100%,100%,100%);fill-opacity:1;" d="M 283.503906 115.589844 C 283.503906 120.0625 276.796875 120.0625 276.796875 115.589844 C 276.796875 111.117188 283.503906 111.117188 283.503906 115.589844 "/>
<path style=" stroke:none;fill-rule:nonzero;fill:rgb(100%,100%,100%);fill-opacity:1;" d="M 472.015625 504.6875 C 472.015625 509.160156 465.308594 509.160156 465.308594 504.6875 C 465.308594 500.214844 472.015625 500.214844 472.015625 504.6875 "/>
<path style=" stroke:none;fill-rule:nonzero;fill:rgb(100%,100%,100%);fill-opacity:1;" d="M 180.191406 36.429688 C 180.191406 40.902344 173.484375 40.902344 173.484375 36.429688 C 173.484375 31.957031 180.191406 31.957031 180.191406 36.429688 "/>
<path style=" stroke:none;fill-rule:nonzero;fill:rgb(100%,100%,100%);fill-opacity:1;" d="M 253.316406 192.738281 C 253.316406 197.210938 246.609375 197.210938 246.609375 192.738281 C 246.609375 188.265625 253.316406 188.265625 253.316406 192.738281 "/>
<path style=" stroke:none;fill-rule:nonzero;fill:rgb(100%,100%,100%);fill-opacity:1;" d="M 72.855469 80.703125 C 72.855469 85.175781 66.148438 85.175781 66.148438 80.703125 C 66.148438 76.230469 72.855469 76.230469 72.855469 80.703125 "/>
<path style=" stroke:none;fill-rule:nonzero;fill:rgb(100%,100%,100%);fill-opacity:1;" d="M 417.007812 237.015625 C 417.007812 241.488281 410.296875 241.488281 410.296875 237.015625 C 410.296875 232.542969 417.007812 232.542969 417.007812 237.015625 "/>
<path style=" stroke:none;fill-rule:nonzero;fill:rgb(100%,100%,100%);fill-opacity:1;" d="M 350.589844 45.148438 C 350.589844 49.621094 343.882812 49.621094 343.882812 45.148438 C 343.882812 40.675781 350.589844 40.675781 350.589844 45.148438 "/>
<path style=" stroke:none;fill-rule:nonzero;fill:rgb(100%,100%,100%);fill-opacity:1;" d="M 181.535156 214.203125 C 181.535156 218.675781 174.824219 218.675781 174.824219 214.203125 C 174.824219 209.734375 181.535156 209.734375 181.535156 214.203125 "/>
<path style=" stroke:none;fill-rule:nonzero;fill:rgb(100%,100%,100%);fill-opacity:1;" d="M 154.03125 151.816406 C 154.03125 156.289062 147.320312 156.289062 147.320312 151.816406 C 147.320312 147.34375 154.03125 147.34375 154.03125 151.816406 "/>
<path style=" stroke:none;fill-rule:nonzero;fill:rgb(100%,100%,100%);fill-opacity:1;" d="M 82.917969 36.429688 C 82.917969 40.902344 76.210938 40.902344 76.210938 36.429688 C 76.210938 31.957031 82.917969 31.957031 82.917969 36.429688 "/>
<path style=" stroke:none;fill-rule:nonzero;fill:rgb(100%,100%,100%);fill-opacity:1;" d="M 372.730469 511.394531 C 372.730469 515.867188 366.019531 515.867188 366.019531 511.394531 C 366.019531 506.921875 372.730469 506.921875 372.730469 511.394531 "/>
<path style=" stroke:none;fill-rule:nonzero;fill:rgb(100%,100%,100%);fill-opacity:1;" d="M 401.578125 208.839844 C 401.578125 213.3125 394.867188 213.3125 394.867188 208.839844 C 394.867188 204.367188 401.578125 204.367188 401.578125 208.839844 "/>
<path style=" stroke:none;fill-rule:nonzero;fill:rgb(100%,100%,100%);fill-opacity:1;" d="M 373.398438 171.269531 C 373.398438 175.742188 366.691406 175.742188 366.691406 171.269531 C 366.691406 166.796875 373.398438 166.796875 373.398438 171.269531 "/>
<path style=" stroke:none;fill-rule:nonzero;fill:rgb(100%,100%,100%);fill-opacity:1;" d="M 388.160156 116.929688 C 388.160156 121.402344 381.449219 121.402344 381.449219 116.929688 C 381.449219 112.457031 388.160156 112.457031 388.160156 116.929688 "/>
<path style=" stroke:none;fill-rule:nonzero;fill:rgb(100%,100%,100%);fill-opacity:1;" d="M 394.867188 170.601562 C 394.867188 175.074219 388.160156 175.074219 388.160156 170.601562 C 388.160156 166.128906 394.867188 166.128906 394.867188 170.601562 "/>
<path style=" stroke:none;fill-rule:nonzero;fill:rgb(100%,100%,100%);fill-opacity:1;" d="M 103.714844 10.933594 C 103.714844 15.40625 97.007812 15.40625 97.007812 10.933594 C 97.007812 6.460938 103.714844 6.460938 103.714844 10.933594 "/>
<path style=" stroke:none;fill-rule:nonzero;fill:rgb(100%,100%,100%);fill-opacity:1;" d="M 21.199219 338.984375 C 21.199219 343.457031 14.492188 343.457031 14.492188 338.984375 C 14.492188 334.511719 21.199219 334.511719 21.199219 338.984375 "/>
<path style=" stroke:none;fill-rule:nonzero;fill:rgb(100%,100%,100%);fill-opacity:1;" d="M 3.085938 470.472656 C 3.085938 474.945312 -3.621094 474.945312 -3.621094 470.472656 C -3.621094 466 3.085938 466 3.085938 470.472656 "/>
<path style=" stroke:none;fill-rule:nonzero;fill:rgb(100%,100%,100%);fill-opacity:1;" d="M 203.671875 120.957031 C 203.671875 125.429688 196.964844 125.429688 196.964844 120.957031 C 196.964844 116.484375 203.671875 116.484375 203.671875 120.957031 "/>
<path style=" stroke:none;fill-rule:nonzero;fill:rgb(100%,100%,100%);fill-opacity:1;" d="M 185.558594 190.054688 C 185.558594 194.527344 178.851562 194.527344 178.851562 190.054688 C 178.851562 185.582031 185.558594 185.582031 185.558594 190.054688 "/>
<path style=" stroke:none;fill-rule:nonzero;fill:rgb(100%,100%,100%);fill-opacity:1;" d="M 424.386719 85.398438 C 424.386719 89.871094 417.675781 89.871094 417.675781 85.398438 C 417.675781 80.925781 424.386719 80.925781 424.386719 85.398438 "/>
<path style=" stroke:none;fill-rule:nonzero;fill:rgb(100%,100%,100%);fill-opacity:1;" d="M 64.132812 277.9375 C 64.132812 282.410156 57.425781 282.410156 57.425781 277.9375 C 57.425781 273.464844 64.132812 273.464844 64.132812 277.9375 "/>
<path style=" stroke:none;fill-rule:nonzero;fill:rgb(100%,100%,100%);fill-opacity:1;" d="M 394.867188 245.734375 C 394.867188 250.207031 388.160156 250.207031 388.160156 245.734375 C 388.160156 241.261719 394.867188 241.261719 394.867188 245.734375 "/>
<path style=" stroke:none;fill-rule:nonzero;fill:rgb(100%,100%,100%);fill-opacity:1;" d="M 476.710938 238.355469 C 476.710938 242.828125 470.003906 242.828125 470.003906 238.355469 C 470.003906 233.882812 476.710938 233.882812 476.710938 238.355469 "/>
<path style=" stroke:none;fill-rule:nonzero;fill:rgb(100%,100%,100%);fill-opacity:1;" d="M 425.054688 295.378906 C 425.054688 299.851562 418.347656 299.851562 418.347656 295.378906 C 418.347656 290.90625 425.054688 290.90625 425.054688 295.378906 "/>
<path style=" stroke:none;fill-rule:nonzero;fill:rgb(100%,100%,100%);fill-opacity:1;" d="M 455.917969 133.703125 C 455.917969 138.175781 449.207031 138.175781 449.207031 133.703125 C 449.207031 129.230469 455.917969 129.230469 455.917969 133.703125 "/>
<path style=" stroke:none;fill-rule:nonzero;fill:rgb(100%,100%,100%);fill-opacity:1;" d="M 85.601562 291.355469 C 85.601562 295.828125 78.894531 295.828125 78.894531 291.355469 C 78.894531 286.882812 85.601562 286.882812 85.601562 291.355469 "/>
<path style=" stroke:none;fill-rule:nonzero;fill:rgb(100%,100%,100%);fill-opacity:1;" d="M 221.785156 288 C 221.785156 292.472656 215.078125 292.472656 215.078125 288 C 215.078125 283.527344 221.785156 283.527344 221.785156 288 "/>
<path style=" stroke:none;fill-rule:nonzero;fill:rgb(100%,100%,100%);fill-opacity:1;" d="M 47.363281 77.351562 C 47.363281 81.824219 40.652344 81.824219 40.652344 77.351562 C 40.652344 72.878906 47.363281 72.878906 47.363281 77.351562 "/>
<path style=" stroke:none;fill-rule:nonzero;fill:rgb(100%,100%,100%);fill-opacity:1;" d="M 19.1875 207.496094 C 19.1875 211.96875 12.476562 211.96875 12.476562 207.496094 C 12.476562 203.023438 19.1875 203.023438 19.1875 207.496094 "/>
<path style=" stroke:none;fill-rule:nonzero;fill:rgb(100%,100%,100%);fill-opacity:1;" d="M 247.949219 180.660156 C 247.949219 185.132812 241.242188 185.132812 241.242188 180.660156 C 241.242188 176.191406 247.949219 176.191406 247.949219 180.660156 "/>
<path style=" stroke:none;fill-rule:nonzero;fill:rgb(100%,100%,100%);fill-opacity:1;" d="M 80.90625 493.953125 C 80.90625 498.425781 74.195312 498.425781 74.195312 493.953125 C 74.195312 489.480469 80.90625 489.480469 80.90625 493.953125 "/>
<path style=" stroke:none;fill-rule:nonzero;fill:rgb(100%,100%,100%);fill-opacity:1;" d="M 216.417969 58.566406 C 216.417969 63.039062 209.710938 63.039062 209.710938 58.566406 C 209.710938 54.09375 216.417969 54.09375 216.417969 58.566406 "/>
<path style=" stroke:none;fill-rule:nonzero;fill:rgb(100%,100%,100%);fill-opacity:1;" d="M 269.417969 171.269531 C 269.417969 175.742188 262.707031 175.742188 262.707031 171.269531 C 262.707031 166.796875 269.417969 166.796875 269.417969 171.269531 "/>
<path style=" stroke:none;fill-rule:nonzero;fill:rgb(100%,100%,100%);fill-opacity:1;" d="M 64.132812 56.554688 C 64.132812 61.027344 57.425781 61.027344 57.425781 56.554688 C 57.425781 52.082031 64.132812 52.082031 64.132812 56.554688 "/>
<path style=" stroke:none;fill-rule:nonzero;fill:rgb(100%,100%,100%);fill-opacity:1;" d="M 213.066406 182.675781 C 213.066406 187.148438 206.355469 187.148438 206.355469 182.675781 C 206.355469 178.203125 213.066406 178.203125 213.066406 182.675781 "/>
<path style=" stroke:none;fill-rule:nonzero;fill:rgb(100%,100%,100%);fill-opacity:1;" d="M 113.105469 508.042969 C 113.105469 512.515625 106.398438 512.515625 106.398438 508.042969 C 106.398438 503.570312 113.105469 503.570312 113.105469 508.042969 "/>
<path style=" stroke:none;fill-rule:nonzero;fill:rgb(100%,100%,100%);fill-opacity:1;" d="M 309.667969 102.171875 C 309.667969 106.644531 302.960938 106.644531 302.960938 102.171875 C 302.960938 97.699219 309.667969 97.699219 309.667969 102.171875 "/>
<path style=" stroke:none;fill-rule:nonzero;fill:rgb(100%,100%,100%);fill-opacity:1;" d="M 429.082031 209.507812 C 429.082031 213.980469 422.371094 213.980469 422.371094 209.507812 C 422.371094 205.035156 429.082031 205.035156 429.082031 209.507812 "/>
<path style=" stroke:none;fill-rule:nonzero;fill:rgb(100%,100%,100%);fill-opacity:1;" d="M 398.222656 288.671875 C 398.222656 293.144531 391.515625 293.144531 391.515625 288.671875 C 391.515625 284.199219 398.222656 284.199219 398.222656 288.671875 "/>
<path style=" stroke:none;fill-rule:nonzero;fill:rgb(100%,100%,100%);fill-opacity:1;" d="M 240.570312 224.9375 C 240.570312 229.410156 233.863281 229.410156 233.863281 224.9375 C 233.863281 220.464844 240.570312 220.464844 240.570312 224.9375 "/>
<path style=" stroke:none;fill-rule:nonzero;fill:rgb(100%,100%,100%);fill-opacity:1;" d="M 345.894531 27.707031 C 345.894531 32.179688 339.1875 32.179688 339.1875 27.707031 C 339.1875 23.234375 345.894531 23.234375 345.894531 27.707031 "/>
<path style=" stroke:none;fill-rule:nonzero;fill:rgb(100%,100%,100%);fill-opacity:1;" d="M 35.957031 246.40625 C 35.957031 250.878906 29.25 250.878906 29.25 246.40625 C 29.25 241.933594 35.957031 241.933594 35.957031 246.40625 "/>
<path style=" stroke:none;fill-rule:nonzero;fill:rgb(100%,100%,100%);fill-opacity:1;" d="M 73.527344 -1.140625 C 73.527344 3.332031 66.816406 3.332031 66.816406 -1.140625 C 66.816406 -5.613281 73.527344 -5.613281 73.527344 -1.140625 "/>
<path style=" stroke:none;fill-rule:nonzero;fill:rgb(100%,100%,100%);fill-opacity:1;" d="M 481.410156 487.246094 C 481.410156 491.71875 474.699219 491.71875 474.699219 487.246094 C 474.699219 482.773438 481.410156 482.773438 481.410156 487.246094 "/>
<path style=" stroke:none;fill-rule:nonzero;fill:rgb(100%,100%,100%);fill-opacity:1;" d="M 18.515625 439.613281 C 18.515625 444.085938 11.808594 444.085938 11.808594 439.613281 C 11.808594 435.140625 18.515625 435.140625 18.515625 439.613281 "/>
<path style=" stroke:none;fill-rule:nonzero;fill:rgb(100%,100%,100%);fill-opacity:1;" d="M 355.957031 38.441406 C 355.957031 42.914062 349.25 42.914062 349.25 38.441406 C 349.25 33.96875 355.957031 33.96875 355.957031 38.441406 "/>
<path style=" stroke:none;fill-rule:nonzero;fill:rgb(100%,100%,100%);fill-opacity:1;" d="M 101.03125 139.738281 C 101.03125 144.210938 94.324219 144.210938 94.324219 139.738281 C 94.324219 135.269531 101.03125 135.269531 101.03125 139.738281 "/>
<path style=" stroke:none;fill-rule:nonzero;fill:rgb(100%,100%,100%);fill-opacity:1;" d="M 37.300781 336.972656 C 37.300781 341.445312 30.589844 341.445312 30.589844 336.972656 C 30.589844 332.5 37.300781 332.5 37.300781 336.972656 "/>
<path style=" stroke:none;fill-rule:nonzero;fill:rgb(100%,100%,100%);fill-opacity:1;" d="M 109.082031 214.875 C 109.082031 219.347656 102.371094 219.347656 102.371094 214.875 C 102.371094 210.402344 109.082031 210.402344 109.082031 214.875 "/>
<path style=" stroke:none;fill-rule:nonzero;fill:rgb(100%,100%,100%);fill-opacity:1;" d="M 139.269531 275.253906 C 139.269531 279.726562 132.5625 279.726562 132.5625 275.253906 C 132.5625 270.78125 139.269531 270.78125 139.269531 275.253906 "/>
<path style=" stroke:none;fill-rule:nonzero;fill:rgb(100%,100%,100%);fill-opacity:1;" d="M 264.050781 224.269531 C 264.050781 228.742188 257.339844 228.742188 257.339844 224.269531 C 257.339844 219.796875 264.050781 219.796875 264.050781 224.269531 "/>
<path style=" stroke:none;fill-rule:nonzero;fill:rgb(100%,100%,100%);fill-opacity:1;" d="M 237.886719 2.214844 C 237.886719 6.6875 231.175781 6.6875 231.175781 2.214844 C 231.175781 -2.257812 237.886719 -2.257812 237.886719 2.214844 "/>
<path style=" stroke:none;fill-rule:nonzero;fill:rgb(100%,100%,100%);fill-opacity:1;" d="M 162.078125 143.09375 C 162.078125 147.566406 155.371094 147.566406 155.371094 143.09375 C 155.371094 138.621094 162.078125 138.621094 162.078125 143.09375 "/>
<path style=" stroke:none;fill-rule:nonzero;fill:rgb(100%,100%,100%);fill-opacity:1;" d="M 35.957031 210.179688 C 35.957031 214.652344 29.25 214.652344 29.25 210.179688 C 29.25 205.707031 35.957031 205.707031 35.957031 210.179688 "/>
<path style=" stroke:none;fill-rule:nonzero;fill:rgb(100%,100%,100%);fill-opacity:1;" d="M 167.445312 106.195312 C 167.445312 110.667969 160.738281 110.667969 160.738281 106.195312 C 160.738281 101.722656 167.445312 101.722656 167.445312 106.195312 "/>
<path style=" stroke:none;fill-rule:nonzero;fill:rgb(100%,100%,100%);fill-opacity:1;" d="M 8.453125 510.054688 C 8.453125 514.527344 1.746094 514.527344 1.746094 510.054688 C 1.746094 505.582031 8.453125 505.582031 8.453125 510.054688 "/>
<path style=" stroke:none;fill-rule:nonzero;fill:rgb(100%,100%,100%);fill-opacity:1;" d="M 376.753906 224.9375 C 376.753906 229.410156 370.046875 229.410156 370.046875 224.9375 C 370.046875 220.464844 376.753906 220.464844 376.753906 224.9375 "/>
<path style=" stroke:none;fill-rule:nonzero;fill:rgb(100%,100%,100%);fill-opacity:1;" d="M 59.4375 222.257812 C 59.4375 226.726562 52.730469 226.726562 52.730469 222.257812 C 52.730469 217.785156 59.4375 217.785156 59.4375 222.257812 "/>
<path style=" stroke:none;fill-rule:nonzero;fill:rgb(100%,100%,100%);fill-opacity:1;" d="M 107.070312 16.300781 C 107.070312 20.773438 100.359375 20.773438 100.359375 16.300781 C 100.359375 11.828125 107.070312 11.828125 107.070312 16.300781 "/>
<path style=" stroke:none;fill-rule:nonzero;fill:rgb(100%,100%,100%);fill-opacity:1;" d="M 182.207031 126.992188 C 182.207031 131.464844 175.496094 131.464844 175.496094 126.992188 C 175.496094 122.523438 182.207031 122.523438 182.207031 126.992188 "/>
<path style=" stroke:none;fill-rule:nonzero;fill:rgb(100%,100%,100%);fill-opacity:1;" d="M 27.90625 451.019531 C 27.90625 455.492188 21.199219 455.492188 21.199219 451.019531 C 21.199219 446.546875 27.90625 446.546875 27.90625 451.019531 "/>
<path style=" stroke:none;fill-rule:nonzero;fill:rgb(100%,100%,100%);fill-opacity:1;" d="M 288.871094 24.351562 C 288.871094 28.824219 282.164062 28.824219 282.164062 24.351562 C 282.164062 19.878906 288.871094 19.878906 288.871094 24.351562 "/>
<path style=" stroke:none;fill-rule:nonzero;fill:rgb(100%,84.3%,0%);fill-opacity:1;" d="M 52.730469 469.804688 C 52.730469 474.277344 46.019531 474.277344 46.019531 469.804688 C 46.019531 465.332031 52.730469 465.332031 52.730469 469.804688 "/>
<path style=" stroke:none;fill-rule:nonzero;fill:rgb(100%,84.3%,0%);fill-opacity:1;" d="M 193.609375 312.820312 C 193.609375 317.292969 186.902344 317.292969 186.902344 312.820312 C 186.902344 308.347656 193.609375 308.347656 193.609375 312.820312 "/>
<path style=" stroke:none;fill-rule:nonzero;fill:rgb(100%,84.3%,0%);fill-opacity:1;" d="M 117.804688 486.574219 C 117.804688 491.046875 111.09375 491.046875 111.09375 486.574219 C 111.09375 482.101562 117.804688 482.101562 117.804688 486.574219 "/>
<path style=" stroke:none;fill-rule:nonzero;fill:rgb(100%,84.3%,0%);fill-opacity:1;" d="M 433.105469 486.574219 C 433.105469 491.046875 426.398438 491.046875 426.398438 486.574219 C 426.398438 482.101562 433.105469 482.101562 433.105469 486.574219 "/>
<path style=" stroke:none;fill-rule:nonzero;fill:rgb(100%,84.3%,0%);fill-opacity:1;" d="M 453.230469 486.574219 C 453.230469 491.046875 446.523438 491.046875 446.523438 486.574219 C 446.523438 482.101562 453.230469 482.101562 453.230469 486.574219 "/>
<path style=" stroke:none;fill-rule:nonzero;fill:rgb(100%,84.3%,0%);fill-opacity:1;" d="M 82.917969 318.632812 C 82.917969 323.105469 76.210938 323.105469 76.210938 318.632812 C 76.210938 314.160156 82.917969 314.160156 82.917969 318.632812 "/>
<path style=" stroke:none;fill-rule:nonzero;fill:rgb(100%,84.3%,0%);fill-opacity:1;" d="M 465.980469 325.566406 C 465.980469 330.039062 459.269531 330.039062 459.269531 325.566406 C 459.269531 321.09375 465.980469 321.09375 465.980469 325.566406 "/>
<path style=" stroke:none;fill-rule:nonzero;fill:rgb(100%,84.3%,0%);fill-opacity:1;" d="M 264.050781 318.632812 C 264.050781 323.105469 257.339844 323.105469 257.339844 318.632812 C 257.339844 314.160156 264.050781 314.160156 264.050781 318.632812 "/>
<path style=" stroke:none;fill-rule:nonzero;fill:rgb(100%,84.3%,0%);fill-opacity:1;" d="M 465.980469 406.070312 C 465.980469 410.542969 459.269531 410.542969 459.269531 406.070312 C 459.269531 401.597656 465.980469 401.597656 465.980469 406.070312 "/>
<path style=" stroke:none;fill-rule:nonzero;fill:rgb(100%,84.3%,0%);fill-opacity:1;" d="M 52.730469 362.464844 C 52.730469 366.9375 46.019531 366.9375 46.019531 362.464844 C 46.019531 357.992188 52.730469 357.992188 52.730469 362.464844 "/>
<path style=" stroke:none;fill-rule:nonzero;fill:rgb(100%,84.3%,0%);fill-opacity:1;" d="M 465.980469 359.109375 C 465.980469 363.582031 459.269531 363.582031 459.269531 359.109375 C 459.269531 354.636719 465.980469 354.636719 465.980469 359.109375 "/>
<path style=" stroke:none;fill-rule:nonzero;fill:rgb(100%,84.3%,0%);fill-opacity:1;" d="M 435.121094 312.820312 C 435.121094 317.292969 428.410156 317.292969 428.410156 312.820312 C 428.410156 308.347656 435.121094 308.347656 435.121094 312.820312 "/>
<path style=" stroke:none;fill-rule:nonzero;fill:rgb(100%,84.3%,0%);fill-opacity:1;" d="M 428.410156 312.820312 C 428.410156 317.292969 421.703125 317.292969 421.703125 312.820312 C 421.703125 308.347656 428.410156 308.347656 428.410156 312.820312 "/>
<path style=" stroke:none;fill-rule:nonzero;fill:rgb(100%,84.3%,0%);fill-opacity:1;" d="M 465.980469 372.527344 C 465.980469 377 459.269531 377 459.269531 372.527344 C 459.269531 368.054688 465.980469 368.054688 465.980469 372.527344 "/>
<path style=" stroke:none;fill-rule:nonzero;fill:rgb(100%,84.3%,0%);fill-opacity:1;" d="M 191.597656 486.574219 C 191.597656 491.046875 184.890625 491.046875 184.890625 486.574219 C 184.890625 482.101562 191.597656 482.101562 191.597656 486.574219 "/>
<path style=" stroke:none;fill-rule:nonzero;fill:rgb(100%,84.3%,0%);fill-opacity:1;" d="M 401.578125 312.820312 C 401.578125 317.292969 394.867188 317.292969 394.867188 312.820312 C 394.867188 308.347656 401.578125 308.347656 401.578125 312.820312 "/>
<path style=" stroke:none;fill-rule:nonzero;fill:rgb(100%,84.3%,0%);fill-opacity:1;" d="M 52.730469 335.632812 C 52.730469 340.101562 46.019531 340.101562 46.019531 335.632812 C 46.019531 331.160156 52.730469 331.160156 52.730469 335.632812 "/>
<path style=" stroke:none;fill-rule:nonzero;fill:rgb(100%,84.3%,0%);fill-opacity:1;" d="M 52.730469 409.425781 C 52.730469 413.898438 46.019531 413.898438 46.019531 409.425781 C 46.019531 404.953125 52.730469 404.953125 52.730469 409.425781 "/>
<path style=" stroke:none;fill-rule:nonzero;fill:rgb(100%,84.3%,0%);fill-opacity:1;" d="M 52.730469 422.84375 C 52.730469 427.316406 46.019531 427.316406 46.019531 422.84375 C 46.019531 418.371094 52.730469 418.371094 52.730469 422.84375 "/>
<path style=" stroke:none;fill-rule:nonzero;fill:rgb(100%,84.3%,0%);fill-opacity:1;" d="M 180.191406 312.820312 C 180.191406 317.292969 173.484375 317.292969 173.484375 312.820312 C 173.484375 308.347656 180.191406 308.347656 180.191406 312.820312 "/>
<path style=" stroke:none;fill-rule:nonzero;fill:rgb(100%,84.3%,0%);fill-opacity:1;" d="M 111.09375 486.574219 C 111.09375 491.046875 104.386719 491.046875 104.386719 486.574219 C 104.386719 482.101562 111.09375 482.101562 111.09375 486.574219 "/>
<path style=" stroke:none;fill-rule:nonzero;fill:rgb(100%,84.3%,0%);fill-opacity:1;" d="M 253.988281 312.820312 C 253.988281 317.292969 247.277344 317.292969 247.277344 312.820312 C 247.277344 308.347656 253.988281 308.347656 253.988281 312.820312 "/>
<path style=" stroke:none;fill-rule:nonzero;fill:rgb(100%,84.3%,0%);fill-opacity:1;" d="M 133.230469 312.820312 C 133.230469 317.292969 126.523438 317.292969 126.523438 312.820312 C 126.523438 308.347656 133.230469 308.347656 133.230469 312.820312 "/>
<path style=" stroke:none;fill-rule:nonzero;fill:rgb(100%,84.3%,0%);fill-opacity:1;" d="M 265.390625 486.574219 C 265.390625 491.046875 258.683594 491.046875 258.683594 486.574219 C 258.683594 482.101562 265.390625 482.101562 265.390625 486.574219 "/>
<path style=" stroke:none;fill-rule:nonzero;fill:rgb(100%,84.3%,0%);fill-opacity:1;" d="M 52.730469 429.550781 C 52.730469 434.023438 46.019531 434.023438 46.019531 429.550781 C 46.019531 425.078125 52.730469 425.078125 52.730469 429.550781 "/>
<path style=" stroke:none;fill-rule:nonzero;fill:rgb(100%,84.3%,0%);fill-opacity:1;" d="M 332.476562 486.574219 C 332.476562 491.046875 325.769531 491.046875 325.769531 486.574219 C 325.769531 482.101562 332.476562 482.101562 332.476562 486.574219 "/>
<path style=" stroke:none;fill-rule:nonzero;fill:rgb(100%,84.3%,0%);fill-opacity:1;" d="M 372.730469 486.574219 C 372.730469 491.046875 366.019531 491.046875 366.019531 486.574219 C 366.019531 482.101562 372.730469 482.101562 372.730469 486.574219 "/>
<path style=" stroke:none;fill-rule:nonzero;fill:rgb(100%,84.3%,0%);fill-opacity:1;" d="M 305.644531 486.574219 C 305.644531 491.046875 298.933594 491.046875 298.933594 486.574219 C 298.933594 482.101562 305.644531 482.101562 305.644531 486.574219 "/>
<path style=" stroke:none;fill-rule:nonzero;fill:rgb(100%,84.3%,0%);fill-opacity:1;" d="M 58.539062 399.363281 C 58.539062 403.835938 51.832031 403.835938 51.832031 399.363281 C 51.832031 394.890625 58.539062 394.890625 58.539062 399.363281 "/>
<path style=" stroke:none;fill-rule:nonzero;fill:rgb(100%,84.3%,0%);fill-opacity:1;" d="M 406.273438 486.574219 C 406.273438 491.046875 399.5625 491.046875 399.5625 486.574219 C 399.5625 482.101562 406.273438 482.101562 406.273438 486.574219 "/>
<path style=" stroke:none;fill-rule:nonzero;fill:rgb(100%,84.3%,0%);fill-opacity:1;" d="M 292.226562 486.574219 C 292.226562 491.046875 285.519531 491.046875 285.519531 486.574219 C 285.519531 482.101562 292.226562 482.101562 292.226562 486.574219 "/>
<path style=" stroke:none;fill-rule:nonzero;fill:rgb(100%,84.3%,0%);fill-opacity:1;" d="M 465.980469 432.90625 C 465.980469 437.378906 459.269531 437.378906 459.269531 432.90625 C 459.269531 428.433594 465.980469 428.433594 465.980469 432.90625 "/>
<path style=" stroke:none;fill-rule:nonzero;fill:rgb(100%,84.3%,0%);fill-opacity:1;" d="M 52.730469 349.046875 C 52.730469 353.519531 46.019531 353.519531 46.019531 349.046875 C 46.019531 344.574219 52.730469 344.574219 52.730469 349.046875 "/>
<path style=" stroke:none;fill-rule:nonzero;fill:rgb(100%,84.3%,0%);fill-opacity:1;" d="M 97.675781 486.574219 C 97.675781 491.046875 90.96875 491.046875 90.96875 486.574219 C 90.96875 482.101562 97.675781 482.101562 97.675781 486.574219 "/>
<path style=" stroke:none;fill-rule:nonzero;fill:rgb(100%,84.3%,0%);fill-opacity:1;" d="M 57.425781 486.574219 C 57.425781 491.046875 50.714844 491.046875 50.714844 486.574219 C 50.714844 482.101562 57.425781 482.101562 57.425781 486.574219 "/>
<path style=" stroke:none;fill-rule:nonzero;fill:rgb(100%,84.3%,0%);fill-opacity:1;" d="M 52.730469 375.882812 C 52.730469 380.355469 46.019531 380.355469 46.019531 375.882812 C 46.019531 371.410156 52.730469 371.410156 52.730469 375.882812 "/>
<path style=" stroke:none;fill-rule:nonzero;fill:rgb(100%,84.3%,0%);fill-opacity:1;" d="M 164.761719 486.574219 C 164.761719 491.046875 158.054688 491.046875 158.054688 486.574219 C 158.054688 482.101562 164.761719 482.101562 164.761719 486.574219 "/>
<path style=" stroke:none;fill-rule:nonzero;fill:rgb(100%,84.3%,0%);fill-opacity:1;" d="M 300.949219 312.820312 C 300.949219 317.292969 294.238281 317.292969 294.238281 312.820312 C 294.238281 308.347656 300.949219 308.347656 300.949219 312.820312 "/>
<path style=" stroke:none;fill-rule:nonzero;fill:rgb(100%,84.3%,0%);fill-opacity:1;" d="M 455.246094 312.820312 C 455.246094 317.292969 448.535156 317.292969 448.535156 312.820312 C 448.535156 308.347656 455.246094 308.347656 455.246094 312.820312 "/>
<path style=" stroke:none;fill-rule:nonzero;fill:rgb(100%,84.3%,0%);fill-opacity:1;" d="M 465.980469 486.574219 C 465.980469 491.046875 459.269531 491.046875 459.269531 486.574219 C 459.269531 482.101562 465.980469 482.101562 465.980469 486.574219 "/>
<path style=" stroke:none;fill-rule:nonzero;fill:rgb(100%,84.3%,0%);fill-opacity:1;" d="M 421.703125 312.820312 C 421.703125 317.292969 414.992188 317.292969 414.992188 312.820312 C 414.992188 308.347656 421.703125 308.347656 421.703125 312.820312 "/>
<path style=" stroke:none;fill-rule:nonzero;fill:rgb(100%,84.3%,0%);fill-opacity:1;" d="M 52.730469 342.339844 C 52.730469 346.8125 46.019531 346.8125 46.019531 342.339844 C 46.019531 337.867188 52.730469 337.867188 52.730469 342.339844 "/>
<path style=" stroke:none;fill-rule:nonzero;fill:rgb(100%,84.3%,0%);fill-opacity:1;" d="M 58.539062 406.070312 C 58.539062 410.542969 51.832031 410.542969 51.832031 406.070312 C 51.832031 401.597656 58.539062 401.597656 58.539062 406.070312 "/>
<path style=" stroke:none;fill-rule:nonzero;fill:rgb(100%,84.3%,0%);fill-opacity:1;" d="M 247.28125 312.820312 C 247.28125 317.292969 240.570312 317.292969 240.570312 312.820312 C 240.570312 308.347656 247.28125 308.347656 247.28125 312.820312 "/>
<path style=" stroke:none;fill-rule:nonzero;fill:rgb(100%,84.3%,0%);fill-opacity:1;" d="M 325.769531 486.574219 C 325.769531 491.046875 319.0625 491.046875 319.0625 486.574219 C 319.0625 482.101562 325.769531 482.101562 325.769531 486.574219 "/>
<path style=" stroke:none;fill-rule:nonzero;fill:rgb(100%,84.3%,0%);fill-opacity:1;" d="M 245.265625 486.574219 C 245.265625 491.046875 238.558594 491.046875 238.558594 486.574219 C 238.558594 482.101562 245.265625 482.101562 245.265625 486.574219 "/>
<path style=" stroke:none;fill-rule:nonzero;fill:rgb(100%,84.3%,0%);fill-opacity:1;" d="M 72.855469 312.820312 C 72.855469 317.292969 66.148438 317.292969 66.148438 312.820312 C 66.148438 308.347656 72.855469 308.347656 72.855469 312.820312 "/>
<path style=" stroke:none;fill-rule:nonzero;fill:rgb(100%,84.3%,0%);fill-opacity:1;" d="M 52.730469 436.261719 C 52.730469 440.730469 46.019531 440.730469 46.019531 436.261719 C 46.019531 431.789062 52.730469 431.789062 52.730469 436.261719 "/>
<path style=" stroke:none;fill-rule:nonzero;fill:rgb(100%,84.3%,0%);fill-opacity:1;" d="M 243.925781 318.632812 C 243.925781 323.105469 237.214844 323.105469 237.214844 318.632812 C 237.214844 314.160156 243.925781 314.160156 243.925781 318.632812 "/>
<path style=" stroke:none;fill-rule:nonzero;fill:rgb(100%,84.3%,0%);fill-opacity:1;" d="M 386.144531 486.574219 C 386.144531 491.046875 379.4375 491.046875 379.4375 486.574219 C 379.4375 482.101562 386.144531 482.101562 386.144531 486.574219 "/>
<path style=" stroke:none;fill-rule:nonzero;fill:rgb(100%,84.3%,0%);fill-opacity:1;" d="M 399.5625 486.574219 C 399.5625 491.046875 392.855469 491.046875 392.855469 486.574219 C 392.855469 482.101562 399.5625 482.101562 399.5625 486.574219 "/>
<path style=" stroke:none;fill-rule:nonzero;fill:rgb(100%,84.3%,0%);fill-opacity:1;" d="M 361.324219 312.820312 C 361.324219 317.292969 354.617188 317.292969 354.617188 312.820312 C 354.617188 308.347656 361.324219 308.347656 361.324219 312.820312 "/>
<path style=" stroke:none;fill-rule:nonzero;fill:rgb(100%,84.3%,0%);fill-opacity:1;" d="M 227.152344 312.820312 C 227.152344 317.292969 220.445312 317.292969 220.445312 312.820312 C 220.445312 308.347656 227.152344 308.347656 227.152344 312.820312 "/>
<path style=" stroke:none;fill-rule:nonzero;fill:rgb(100%,84.3%,0%);fill-opacity:1;" d="M 52.730469 396.007812 C 52.730469 400.480469 46.019531 400.480469 46.019531 396.007812 C 46.019531 391.535156 52.730469 391.535156 52.730469 396.007812 "/>
<path style=" stroke:none;fill-rule:nonzero;fill:rgb(100%,84.3%,0%);fill-opacity:1;" d="M 58.539062 338.984375 C 58.539062 343.457031 51.832031 343.457031 51.832031 338.984375 C 51.832031 334.511719 58.539062 334.511719 58.539062 338.984375 "/>
<path style=" stroke:none;fill-rule:nonzero;fill:rgb(100%,84.3%,0%);fill-opacity:1;" d="M 465.980469 459.738281 C 465.980469 464.210938 459.269531 464.210938 459.269531 459.738281 C 459.269531 455.269531 465.980469 455.269531 465.980469 459.738281 "/>
<path style=" stroke:none;fill-rule:nonzero;fill:rgb(100%,84.3%,0%);fill-opacity:1;" d="M 153.359375 312.820312 C 153.359375 317.292969 146.648438 317.292969 146.648438 312.820312 C 146.648438 308.347656 153.359375 308.347656 153.359375 312.820312 "/>
<path style=" stroke:none;fill-rule:nonzero;fill:rgb(100%,84.3%,0%);fill-opacity:1;" d="M 80.90625 480.765625 C 80.90625 485.238281 74.195312 485.238281 74.195312 480.765625 C 74.195312 476.292969 80.90625 476.292969 80.90625 480.765625 "/>
<path style=" stroke:none;fill-rule:nonzero;fill:rgb(100%,84.3%,0%);fill-opacity:1;" d="M 198.304688 486.574219 C 198.304688 491.046875 191.597656 491.046875 191.597656 486.574219 C 191.597656 482.101562 198.304688 482.101562 198.304688 486.574219 "/>
<path style=" stroke:none;fill-rule:nonzero;fill:rgb(100%,84.3%,0%);fill-opacity:1;" d="M 52.730469 449.675781 C 52.730469 454.148438 46.019531 454.148438 46.019531 449.675781 C 46.019531 445.203125 52.730469 445.203125 52.730469 449.675781 "/>
<path style=" stroke:none;fill-rule:nonzero;fill:rgb(100%,84.3%,0%);fill-opacity:1;" d="M 425.054688 318.632812 C 425.054688 323.105469 418.347656 323.105469 418.347656 318.632812 C 418.347656 314.160156 425.054688 314.160156 425.054688 318.632812 "/>
<path style=" stroke:none;fill-rule:nonzero;fill:rgb(100%,84.3%,0%);fill-opacity:1;" d="M 465.980469 479.867188 C 465.980469 484.339844 459.269531 484.339844 459.269531 479.867188 C 459.269531 475.394531 465.980469 475.394531 465.980469 479.867188 "/>
<path style=" stroke:none;fill-rule:nonzero;fill:rgb(100%,84.3%,0%);fill-opacity:1;" d="M 70.84375 486.574219 C 70.84375 491.046875 64.132812 491.046875 64.132812 486.574219 C 64.132812 482.101562 70.84375 482.101562 70.84375 486.574219 "/>
<path style=" stroke:none;fill-rule:nonzero;fill:rgb(100%,84.3%,0%);fill-opacity:1;" d="M 267.40625 312.820312 C 267.40625 317.292969 260.695312 317.292969 260.695312 312.820312 C 260.695312 308.347656 267.40625 308.347656 267.40625 312.820312 "/>
<path style=" stroke:none;fill-rule:nonzero;fill:rgb(100%,84.3%,0%);fill-opacity:1;" d="M 426.398438 486.574219 C 426.398438 491.046875 419.691406 491.046875 419.691406 486.574219 C 419.691406 482.101562 426.398438 482.101562 426.398438 486.574219 "/>
<path style=" stroke:none;fill-rule:nonzero;fill:rgb(100%,84.3%,0%);fill-opacity:1;" d="M 52.730469 328.921875 C 52.730469 333.394531 46.019531 333.394531 46.019531 328.921875 C 46.019531 324.449219 52.730469 324.449219 52.730469 328.921875 "/>
<path style=" stroke:none;fill-rule:nonzero;fill:rgb(100%,84.3%,0%);fill-opacity:1;" d="M 92.980469 312.820312 C 92.980469 317.292969 86.273438 317.292969 86.273438 312.820312 C 86.273438 308.347656 92.980469 308.347656 92.980469 312.820312 "/>
<path style=" stroke:none;fill-rule:nonzero;fill:rgb(100%,84.3%,0%);fill-opacity:1;" d="M 368.035156 312.820312 C 368.035156 317.292969 361.324219 317.292969 361.324219 312.820312 C 361.324219 308.347656 368.035156 308.347656 368.035156 312.820312 "/>
<path style=" stroke:none;fill-rule:nonzero;fill:rgb(100%,84.3%,0%);fill-opacity:1;" d="M 104.386719 486.574219 C 104.386719 491.046875 97.675781 491.046875 97.675781 486.574219 C 97.675781 482.101562 104.386719 482.101562 104.386719 486.574219 "/>
<path style=" stroke:none;fill-rule:nonzero;fill:rgb(100%,84.3%,0%);fill-opacity:1;" d="M 207.027344 312.820312 C 207.027344 317.292969 200.320312 317.292969 200.320312 312.820312 C 200.320312 308.347656 207.027344 308.347656 207.027344 312.820312 "/>
<path style=" stroke:none;fill-rule:nonzero;fill:rgb(100%,84.3%,0%);fill-opacity:1;" d="M 52.730469 322.214844 C 52.730469 326.6875 46.019531 326.6875 46.019531 322.214844 C 46.019531 317.742188 52.730469 317.742188 52.730469 322.214844 "/>
<path style=" stroke:none;fill-rule:nonzero;fill:rgb(100%,84.3%,0%);fill-opacity:1;" d="M 334.492188 312.820312 C 334.492188 317.292969 327.78125 317.292969 327.78125 312.820312 C 327.78125 308.347656 334.492188 308.347656 334.492188 312.820312 "/>
<path style=" stroke:none;fill-rule:nonzero;fill:rgb(100%,84.3%,0%);fill-opacity:1;" d="M 213.734375 312.820312 C 213.734375 317.292969 207.027344 317.292969 207.027344 312.820312 C 207.027344 308.347656 213.734375 308.347656 213.734375 312.820312 "/>
<path style=" stroke:none;fill-rule:nonzero;fill:rgb(100%,84.3%,0%);fill-opacity:1;" d="M 379.4375 486.574219 C 379.4375 491.046875 372.730469 491.046875 372.730469 486.574219 C 372.730469 482.101562 379.4375 482.101562 379.4375 486.574219 "/>
<path style=" stroke:none;fill-rule:nonzero;fill:rgb(100%,84.3%,0%);fill-opacity:1;" d="M 465.980469 385.945312 C 465.980469 390.417969 459.269531 390.417969 459.269531 385.945312 C 459.269531 381.472656 465.980469 381.472656 465.980469 385.945312 "/>
<path style=" stroke:none;fill-rule:nonzero;fill:rgb(100%,84.3%,0%);fill-opacity:1;" d="M 280.824219 312.820312 C 280.824219 317.292969 274.113281 317.292969 274.113281 312.820312 C 274.113281 308.347656 280.824219 308.347656 280.824219 312.820312 "/>
<path style=" stroke:none;fill-rule:nonzero;fill:rgb(100%,84.3%,0%);fill-opacity:1;" d="M 359.3125 486.574219 C 359.3125 491.046875 352.605469 491.046875 352.605469 486.574219 C 352.605469 482.101562 359.3125 482.101562 359.3125 486.574219 "/>
<path style=" stroke:none;fill-rule:nonzero;fill:rgb(100%,84.3%,0%);fill-opacity:1;" d="M 58.539062 419.488281 C 58.539062 423.960938 51.832031 423.960938 51.832031 419.488281 C 51.832031 415.015625 58.539062 415.015625 58.539062 419.488281 "/>
<path style=" stroke:none;fill-rule:nonzero;fill:rgb(100%,84.3%,0%);fill-opacity:1;" d="M 304.300781 318.632812 C 304.300781 323.105469 297.59375 323.105469 297.59375 318.632812 C 297.59375 314.160156 304.300781 314.160156 304.300781 318.632812 "/>
<path style=" stroke:none;fill-rule:nonzero;fill:rgb(100%,84.3%,0%);fill-opacity:1;" d="M 131.21875 486.574219 C 131.21875 491.046875 124.511719 491.046875 124.511719 486.574219 C 124.511719 482.101562 131.21875 482.101562 131.21875 486.574219 "/>
<path style=" stroke:none;fill-rule:nonzero;fill:rgb(100%,84.3%,0%);fill-opacity:1;" d="M 146.648438 312.820312 C 146.648438 317.292969 139.941406 317.292969 139.941406 312.820312 C 139.941406 308.347656 146.648438 308.347656 146.648438 312.820312 "/>
<path style=" stroke:none;fill-rule:nonzero;fill:rgb(100%,84.3%,0%);fill-opacity:1;" d="M 144.636719 486.574219 C 144.636719 491.046875 137.929688 491.046875 137.929688 486.574219 C 137.929688 482.101562 144.636719 482.101562 144.636719 486.574219 "/>
<path style=" stroke:none;fill-rule:nonzero;fill:rgb(100%,84.3%,0%);fill-opacity:1;" d="M 446.523438 486.574219 C 446.523438 491.046875 439.816406 491.046875 439.816406 486.574219 C 439.816406 482.101562 446.523438 482.101562 446.523438 486.574219 "/>
<path style=" stroke:none;fill-rule:nonzero;fill:rgb(100%,84.3%,0%);fill-opacity:1;" d="M 290.882812 318.632812 C 290.882812 323.105469 284.175781 323.105469 284.175781 318.632812 C 284.175781 314.160156 290.882812 314.160156 290.882812 318.632812 "/>
<path style=" stroke:none;fill-rule:nonzero;fill:rgb(100%,84.3%,0%);fill-opacity:1;" d="M 77.550781 486.574219 C 77.550781 491.046875 70.84375 491.046875 70.84375 486.574219 C 70.84375 482.101562 77.550781 482.101562 77.550781 486.574219 "/>
<path style=" stroke:none;fill-rule:nonzero;fill:rgb(100%,84.3%,0%);fill-opacity:1;" d="M 345.894531 486.574219 C 345.894531 491.046875 339.1875 491.046875 339.1875 486.574219 C 339.1875 482.101562 345.894531 482.101562 345.894531 486.574219 "/>
<path style=" stroke:none;fill-rule:nonzero;fill:rgb(100%,84.3%,0%);fill-opacity:1;" d="M 62.792969 318.632812 C 62.792969 323.105469 56.082031 323.105469 56.082031 318.632812 C 56.082031 314.160156 62.792969 314.160156 62.792969 318.632812 "/>
<path style=" stroke:none;fill-rule:nonzero;fill:rgb(100%,84.3%,0%);fill-opacity:1;" d="M 166.773438 312.820312 C 166.773438 317.292969 160.066406 317.292969 160.066406 312.820312 C 160.066406 308.347656 166.773438 308.347656 166.773438 312.820312 "/>
<path style=" stroke:none;fill-rule:nonzero;fill:rgb(100%,84.3%,0%);fill-opacity:1;" d="M 124.511719 486.574219 C 124.511719 491.046875 117.800781 491.046875 117.800781 486.574219 C 117.800781 482.101562 124.511719 482.101562 124.511719 486.574219 "/>
<path style=" stroke:none;fill-rule:nonzero;fill:rgb(100%,84.3%,0%);fill-opacity:1;" d="M 59.4375 312.820312 C 59.4375 317.292969 52.730469 317.292969 52.730469 312.820312 C 52.730469 308.347656 59.4375 308.347656 59.4375 312.820312 "/>
<path style=" stroke:none;fill-rule:nonzero;fill:rgb(100%,84.3%,0%);fill-opacity:1;" d="M 465.980469 399.363281 C 465.980469 403.835938 459.269531 403.835938 459.269531 399.363281 C 459.269531 394.890625 465.980469 394.890625 465.980469 399.363281 "/>
<path style=" stroke:none;fill-rule:nonzero;fill:rgb(100%,84.3%,0%);fill-opacity:1;" d="M 448.535156 312.820312 C 448.535156 317.292969 441.828125 317.292969 441.828125 312.820312 C 441.828125 308.347656 448.535156 308.347656 448.535156 312.820312 "/>
<path style=" stroke:none;fill-rule:nonzero;fill:rgb(100%,84.3%,0%);fill-opacity:1;" d="M 347.90625 312.820312 C 347.90625 317.292969 341.199219 317.292969 341.199219 312.820312 C 341.199219 308.347656 347.90625 308.347656 347.90625 312.820312 "/>
<path style=" stroke:none;fill-rule:nonzero;fill:rgb(100%,84.3%,0%);fill-opacity:1;" d="M 278.808594 486.574219 C 278.808594 491.046875 272.101562 491.046875 272.101562 486.574219 C 272.101562 482.101562 278.808594 482.101562 278.808594 486.574219 "/>
<path style=" stroke:none;fill-rule:nonzero;fill:rgb(100%,84.3%,0%);fill-opacity:1;" d="M 465.980469 453.03125 C 465.980469 457.503906 459.269531 457.503906 459.269531 453.03125 C 459.269531 448.558594 465.980469 448.558594 465.980469 453.03125 "/>
<path style=" stroke:none;fill-rule:nonzero;fill:rgb(100%,84.3%,0%);fill-opacity:1;" d="M 465.980469 466.449219 C 465.980469 470.921875 459.269531 470.921875 459.269531 466.449219 C 459.269531 461.976562 465.980469 461.976562 465.980469 466.449219 "/>
<path style=" stroke:none;fill-rule:nonzero;fill:rgb(100%,84.3%,0%);fill-opacity:1;" d="M 126.523438 312.820312 C 126.523438 317.292969 119.816406 317.292969 119.816406 312.820312 C 119.816406 308.347656 126.523438 308.347656 126.523438 312.820312 "/>
<path style=" stroke:none;fill-rule:nonzero;fill:rgb(100%,84.3%,0%);fill-opacity:1;" d="M 465.980469 345.695312 C 465.980469 350.167969 459.269531 350.167969 459.269531 345.695312 C 459.269531 341.222656 465.980469 341.222656 465.980469 345.695312 "/>
<path style=" stroke:none;fill-rule:nonzero;fill:rgb(100%,84.3%,0%);fill-opacity:1;" d="M 461.953125 312.820312 C 461.953125 317.292969 455.246094 317.292969 455.246094 312.820312 C 455.246094 308.347656 461.953125 308.347656 461.953125 312.820312 "/>
<path style=" stroke:none;fill-rule:nonzero;fill:rgb(100%,84.3%,0%);fill-opacity:1;" d="M 90.96875 486.574219 C 90.96875 491.046875 84.257812 491.046875 84.257812 486.574219 C 84.257812 482.101562 90.96875 482.101562 90.96875 486.574219 "/>
<path style=" stroke:none;fill-rule:nonzero;fill:rgb(100%,84.3%,0%);fill-opacity:1;" d="M 414.992188 312.820312 C 414.992188 317.292969 408.285156 317.292969 408.285156 312.820312 C 408.285156 308.347656 414.992188 308.347656 414.992188 312.820312 "/>
<path style=" stroke:none;fill-rule:nonzero;fill:rgb(100%,84.3%,0%);fill-opacity:1;" d="M 58.539062 412.78125 C 58.539062 417.253906 51.832031 417.253906 51.832031 412.78125 C 51.832031 408.308594 58.539062 408.308594 58.539062 412.78125 "/>
<path style=" stroke:none;fill-rule:nonzero;fill:rgb(100%,84.3%,0%);fill-opacity:1;" d="M 322.414062 480.765625 C 322.414062 485.238281 315.707031 485.238281 315.707031 480.765625 C 315.707031 476.292969 322.414062 476.292969 322.414062 480.765625 "/>
<path style=" stroke:none;fill-rule:nonzero;fill:rgb(100%,84.3%,0%);fill-opacity:1;" d="M 225.140625 486.574219 C 225.140625 491.046875 218.433594 491.046875 218.433594 486.574219 C 218.433594 482.101562 225.140625 482.101562 225.140625 486.574219 "/>
<path style=" stroke:none;fill-rule:nonzero;fill:rgb(100%,84.3%,0%);fill-opacity:1;" d="M 260.695312 312.820312 C 260.695312 317.292969 253.988281 317.292969 253.988281 312.820312 C 253.988281 308.347656 260.695312 308.347656 260.695312 312.820312 "/>
<path style=" stroke:none;fill-rule:nonzero;fill:rgb(100%,84.3%,0%);fill-opacity:1;" d="M 312.351562 486.574219 C 312.351562 491.046875 305.644531 491.046875 305.644531 486.574219 C 305.644531 482.101562 312.351562 482.101562 312.351562 486.574219 "/>
<path style=" stroke:none;fill-rule:nonzero;fill:rgb(100%,84.3%,0%);fill-opacity:1;" d="M 388.160156 312.820312 C 388.160156 317.292969 381.449219 317.292969 381.449219 312.820312 C 381.449219 308.347656 388.160156 308.347656 388.160156 312.820312 "/>
<path style=" stroke:none;fill-rule:nonzero;fill:rgb(100%,84.3%,0%);fill-opacity:1;" d="M 211.722656 486.574219 C 211.722656 491.046875 205.015625 491.046875 205.015625 486.574219 C 205.015625 482.101562 211.722656 482.101562 211.722656 486.574219 "/>
<path style=" stroke:none;fill-rule:nonzero;fill:rgb(100%,84.3%,0%);fill-opacity:1;" d="M 67.488281 480.765625 C 67.488281 485.238281 60.78125 485.238281 60.78125 480.765625 C 60.78125 476.292969 67.488281 476.292969 67.488281 480.765625 "/>
<path style=" stroke:none;fill-rule:nonzero;fill:rgb(100%,84.3%,0%);fill-opacity:1;" d="M 139.941406 312.820312 C 139.941406 317.292969 133.234375 317.292969 133.234375 312.820312 C 133.234375 308.347656 139.941406 308.347656 139.941406 312.820312 "/>
<path style=" stroke:none;fill-rule:nonzero;fill:rgb(100%,84.3%,0%);fill-opacity:1;" d="M 321.074219 312.820312 C 321.074219 317.292969 314.363281 317.292969 314.363281 312.820312 C 314.363281 308.347656 321.074219 308.347656 321.074219 312.820312 "/>
<path style=" stroke:none;fill-rule:nonzero;fill:rgb(100%,84.3%,0%);fill-opacity:1;" d="M 392.855469 486.574219 C 392.855469 491.046875 386.148438 491.046875 386.148438 486.574219 C 386.148438 482.101562 392.855469 482.101562 392.855469 486.574219 "/>
<path style=" stroke:none;fill-rule:nonzero;fill:rgb(100%,84.3%,0%);fill-opacity:1;" d="M 272.101562 486.574219 C 272.101562 491.046875 265.390625 491.046875 265.390625 486.574219 C 265.390625 482.101562 272.101562 482.101562 272.101562 486.574219 "/>
<path style=" stroke:none;fill-rule:nonzero;fill:rgb(100%,84.3%,0%);fill-opacity:1;" d="M 99.6875 312.820312 C 99.6875 317.292969 92.980469 317.292969 92.980469 312.820312 C 92.980469 308.347656 99.6875 308.347656 99.6875 312.820312 "/>
<path style=" stroke:none;fill-rule:nonzero;fill:rgb(100%,84.3%,0%);fill-opacity:1;" d="M 52.730469 463.09375 C 52.730469 467.566406 46.019531 467.566406 46.019531 463.09375 C 46.019531 458.621094 52.730469 458.621094 52.730469 463.09375 "/>
<path style=" stroke:none;fill-rule:nonzero;fill:rgb(100%,84.3%,0%);fill-opacity:1;" d="M 52.730469 389.300781 C 52.730469 393.773438 46.019531 393.773438 46.019531 389.300781 C 46.019531 384.828125 52.730469 384.828125 52.730469 389.300781 "/>
<path style=" stroke:none;fill-rule:nonzero;fill:rgb(100%,84.3%,0%);fill-opacity:1;" d="M 160.066406 312.820312 C 160.066406 317.292969 153.359375 317.292969 153.359375 312.820312 C 153.359375 308.347656 160.066406 308.347656 160.066406 312.820312 "/>
<path style=" stroke:none;fill-rule:nonzero;fill:rgb(100%,84.3%,0%);fill-opacity:1;" d="M 58.539062 439.613281 C 58.539062 444.085938 51.832031 444.085938 51.832031 439.613281 C 51.832031 435.140625 58.539062 435.140625 58.539062 439.613281 "/>
<path style=" stroke:none;fill-rule:nonzero;fill:rgb(100%,84.3%,0%);fill-opacity:1;" d="M 339.1875 486.574219 C 339.1875 491.046875 332.476562 491.046875 332.476562 486.574219 C 332.476562 482.101562 339.1875 482.101562 339.1875 486.574219 "/>
<path style=" stroke:none;fill-rule:nonzero;fill:rgb(100%,84.3%,0%);fill-opacity:1;" d="M 341.199219 312.820312 C 341.199219 317.292969 334.492188 317.292969 334.492188 312.820312 C 334.492188 308.347656 341.199219 308.347656 341.199219 312.820312 "/>
<path style=" stroke:none;fill-rule:nonzero;fill:rgb(100%,84.3%,0%);fill-opacity:1;" d="M 52.730469 476.511719 C 52.730469 480.984375 46.019531 480.984375 46.019531 476.511719 C 46.019531 472.039062 52.730469 472.039062 52.730469 476.511719 "/>
<path style=" stroke:none;fill-rule:nonzero;fill:rgb(100%,84.3%,0%);fill-opacity:1;" d="M 295.582031 480.765625 C 295.582031 485.238281 288.871094 485.238281 288.871094 480.765625 C 288.871094 476.292969 295.582031 476.292969 295.582031 480.765625 "/>
<path style=" stroke:none;fill-rule:nonzero;fill:rgb(100%,84.3%,0%);fill-opacity:1;" d="M 113.105469 312.820312 C 113.105469 317.292969 106.398438 317.292969 106.398438 312.820312 C 106.398438 308.347656 113.105469 308.347656 113.105469 312.820312 "/>
<path style=" stroke:none;fill-rule:nonzero;fill:rgb(100%,84.3%,0%);fill-opacity:1;" d="M 465.980469 365.820312 C 465.980469 370.292969 459.269531 370.292969 459.269531 365.820312 C 459.269531 361.347656 465.980469 361.347656 465.980469 365.820312 "/>
<path style=" stroke:none;fill-rule:nonzero;fill:rgb(100%,84.3%,0%);fill-opacity:1;" d="M 106.398438 312.820312 C 106.398438 317.292969 99.691406 317.292969 99.691406 312.820312 C 99.691406 308.347656 106.398438 308.347656 106.398438 312.820312 "/>
<path style=" stroke:none;fill-rule:nonzero;fill:rgb(100%,84.3%,0%);fill-opacity:1;" d="M 465.980469 392.652344 C 465.980469 397.125 459.269531 397.125 459.269531 392.652344 C 459.269531 388.179688 465.980469 388.179688 465.980469 392.652344 "/>
<path style=" stroke:none;fill-rule:nonzero;fill:rgb(100%,84.3%,0%);fill-opacity:1;" d="M 441.828125 312.820312 C 441.828125 317.292969 435.121094 317.292969 435.121094 312.820312 C 435.121094 308.347656 441.828125 308.347656 441.828125 312.820312 "/>
<path style=" stroke:none;fill-rule:nonzero;fill:rgb(100%,84.3%,0%);fill-opacity:1;" d="M 319.058594 486.574219 C 319.058594 491.046875 312.351562 491.046875 312.351562 486.574219 C 312.351562 482.101562 319.058594 482.101562 319.058594 486.574219 "/>
<path style=" stroke:none;fill-rule:nonzero;fill:rgb(100%,84.3%,0%);fill-opacity:1;" d="M 465.980469 318.859375 C 465.980469 323.332031 459.269531 323.332031 459.269531 318.859375 C 459.269531 314.386719 465.980469 314.386719 465.980469 318.859375 "/>
<path style=" stroke:none;fill-rule:nonzero;fill:rgb(100%,84.3%,0%);fill-opacity:1;" d="M 137.929688 486.574219 C 137.929688 491.046875 131.21875 491.046875 131.21875 486.574219 C 131.21875 482.101562 137.929688 482.101562 137.929688 486.574219 "/>
<path style=" stroke:none;fill-rule:nonzero;fill:rgb(100%,84.3%,0%);fill-opacity:1;" d="M 465.980469 352.402344 C 465.980469 356.875 459.269531 356.875 459.269531 352.402344 C 459.269531 347.929688 465.980469 347.929688 465.980469 352.402344 "/>
<path style=" stroke:none;fill-rule:nonzero;fill:rgb(100%,84.3%,0%);fill-opacity:1;" d="M 158.054688 486.574219 C 158.054688 491.046875 151.34375 491.046875 151.34375 486.574219 C 151.34375 482.101562 158.054688 482.101562 158.054688 486.574219 "/>
<path style=" stroke:none;fill-rule:nonzero;fill:rgb(100%,84.3%,0%);fill-opacity:1;" d="M 58.539062 392.652344 C 58.539062 397.125 51.832031 397.125 51.832031 392.652344 C 51.832031 388.179688 58.539062 388.179688 58.539062 392.652344 "/>
<path style=" stroke:none;fill-rule:nonzero;fill:rgb(100%,84.3%,0%);fill-opacity:1;" d="M 398.222656 318.632812 C 398.222656 323.105469 391.515625 323.105469 391.515625 318.632812 C 391.515625 314.160156 398.222656 314.160156 398.222656 318.632812 "/>
<path style=" stroke:none;fill-rule:nonzero;fill:rgb(100%,84.3%,0%);fill-opacity:1;" d="M 352.601562 486.574219 C 352.601562 491.046875 345.894531 491.046875 345.894531 486.574219 C 345.894531 482.101562 352.601562 482.101562 352.601562 486.574219 "/>
<path style=" stroke:none;fill-rule:nonzero;fill:rgb(100%,84.3%,0%);fill-opacity:1;" d="M 184.890625 486.574219 C 184.890625 491.046875 178.179688 491.046875 178.179688 486.574219 C 178.179688 482.101562 184.890625 482.101562 184.890625 486.574219 "/>
<path style=" stroke:none;fill-rule:nonzero;fill:rgb(100%,84.3%,0%);fill-opacity:1;" d="M 412.980469 486.574219 C 412.980469 491.046875 406.273438 491.046875 406.273438 486.574219 C 406.273438 482.101562 412.980469 482.101562 412.980469 486.574219 "/>
<path style=" stroke:none;fill-rule:nonzero;fill:rgb(100%,84.3%,0%);fill-opacity:1;" d="M 66.144531 312.820312 C 66.144531 317.292969 59.4375 317.292969 59.4375 312.820312 C 59.4375 308.347656 66.144531 308.347656 66.144531 312.820312 "/>
<path style=" stroke:none;fill-rule:nonzero;fill:rgb(100%,84.3%,0%);fill-opacity:1;" d="M 205.015625 486.574219 C 205.015625 491.046875 198.304688 491.046875 198.304688 486.574219 C 198.304688 482.101562 205.015625 482.101562 205.015625 486.574219 "/>
<path style=" stroke:none;fill-rule:nonzero;fill:rgb(100%,84.3%,0%);fill-opacity:1;" d="M 52.730469 402.71875 C 52.730469 407.1875 46.019531 407.1875 46.019531 402.71875 C 46.019531 398.246094 52.730469 398.246094 52.730469 402.71875 "/>
<path style=" stroke:none;fill-rule:nonzero;fill:rgb(100%,84.3%,0%);fill-opacity:1;" d="M 302.289062 480.765625 C 302.289062 485.238281 295.582031 485.238281 295.582031 480.765625 C 295.582031 476.292969 302.289062 476.292969 302.289062 480.765625 "/>
<path style=" stroke:none;fill-rule:nonzero;fill:rgb(100%,84.3%,0%);fill-opacity:1;" d="M 64.132812 486.574219 C 64.132812 491.046875 57.425781 491.046875 57.425781 486.574219 C 57.425781 482.101562 64.132812 482.101562 64.132812 486.574219 "/>
<path style=" stroke:none;fill-rule:nonzero;fill:rgb(100%,84.3%,0%);fill-opacity:1;" d="M 465.980469 473.15625 C 465.980469 477.628906 459.269531 477.628906 459.269531 473.15625 C 459.269531 468.683594 465.980469 468.683594 465.980469 473.15625 "/>
<path style=" stroke:none;fill-rule:nonzero;fill:rgb(100%,84.3%,0%);fill-opacity:1;" d="M 240.570312 312.820312 C 240.570312 317.292969 233.863281 317.292969 233.863281 312.820312 C 233.863281 308.347656 240.570312 308.347656 240.570312 312.820312 "/>
<path style=" stroke:none;fill-rule:nonzero;fill:rgb(100%,84.3%,0%);fill-opacity:1;" d="M 439.816406 486.574219 C 439.816406 491.046875 433.105469 491.046875 433.105469 486.574219 C 433.105469 482.101562 439.816406 482.101562 439.816406 486.574219 "/>
<path style=" stroke:none;fill-rule:nonzero;fill:rgb(100%,84.3%,0%);fill-opacity:1;" d="M 231.847656 486.574219 C 231.847656 491.046875 225.140625 491.046875 225.140625 486.574219 C 225.140625 482.101562 231.847656 482.101562 231.847656 486.574219 "/>
<path style=" stroke:none;fill-rule:nonzero;fill:rgb(100%,84.3%,0%);fill-opacity:1;" d="M 74.199219 480.765625 C 74.199219 485.238281 67.488281 485.238281 67.488281 480.765625 C 67.488281 476.292969 74.199219 476.292969 74.199219 480.765625 "/>
<path style=" stroke:none;fill-rule:nonzero;fill:rgb(100%,84.3%,0%);fill-opacity:1;" d="M 58.539062 473.15625 C 58.539062 477.628906 51.832031 477.628906 51.832031 473.15625 C 51.832031 468.683594 58.539062 468.683594 58.539062 473.15625 "/>
<path style=" stroke:none;fill-rule:nonzero;fill:rgb(100%,84.3%,0%);fill-opacity:1;" d="M 465.980469 419.488281 C 465.980469 423.960938 459.269531 423.960938 459.269531 419.488281 C 459.269531 415.015625 465.980469 415.015625 465.980469 419.488281 "/>
<path style=" stroke:none;fill-rule:nonzero;fill:rgb(100%,84.3%,0%);fill-opacity:1;" d="M 465.980469 332.277344 C 465.980469 336.75 459.269531 336.75 459.269531 332.277344 C 459.269531 327.804688 465.980469 327.804688 465.980469 332.277344 "/>
<path style=" stroke:none;fill-rule:nonzero;fill:rgb(100%,84.3%,0%);fill-opacity:1;" d="M 381.449219 312.820312 C 381.449219 317.292969 374.742188 317.292969 374.742188 312.820312 C 374.742188 308.347656 381.449219 308.347656 381.449219 312.820312 "/>
<path style=" stroke:none;fill-rule:nonzero;fill:rgb(100%,84.3%,0%);fill-opacity:1;" d="M 258.683594 486.574219 C 258.683594 491.046875 251.976562 491.046875 251.976562 486.574219 C 251.976562 482.101562 258.683594 482.101562 258.683594 486.574219 "/>
<path style=" stroke:none;fill-rule:nonzero;fill:rgb(100%,84.3%,0%);fill-opacity:1;" d="M 86.273438 312.820312 C 86.273438 317.292969 79.5625 317.292969 79.5625 312.820312 C 79.5625 308.347656 86.273438 308.347656 86.273438 312.820312 "/>
<path style=" stroke:none;fill-rule:nonzero;fill:rgb(100%,84.3%,0%);fill-opacity:1;" d="M 233.859375 312.820312 C 233.859375 317.292969 227.152344 317.292969 227.152344 312.820312 C 227.152344 308.347656 233.859375 308.347656 233.859375 312.820312 "/>
<path style=" stroke:none;fill-rule:nonzero;fill:rgb(100%,84.3%,0%);fill-opacity:1;" d="M 366.019531 486.574219 C 366.019531 491.046875 359.3125 491.046875 359.3125 486.574219 C 359.3125 482.101562 366.019531 482.101562 366.019531 486.574219 "/>
<path style=" stroke:none;fill-rule:nonzero;fill:rgb(100%,84.3%,0%);fill-opacity:1;" d="M 408.285156 312.820312 C 408.285156 317.292969 401.578125 317.292969 401.578125 312.820312 C 401.578125 308.347656 408.285156 308.347656 408.285156 312.820312 "/>
<path style=" stroke:none;fill-rule:nonzero;fill:rgb(100%,84.3%,0%);fill-opacity:1;" d="M 79.5625 312.820312 C 79.5625 317.292969 72.855469 317.292969 72.855469 312.820312 C 72.855469 308.347656 79.5625 308.347656 79.5625 312.820312 "/>
<path style=" stroke:none;fill-rule:nonzero;fill:rgb(100%,84.3%,0%);fill-opacity:1;" d="M 285.519531 486.574219 C 285.519531 491.046875 278.808594 491.046875 278.808594 486.574219 C 278.808594 482.101562 285.519531 482.101562 285.519531 486.574219 "/>
<path style=" stroke:none;fill-rule:nonzero;fill:rgb(100%,84.3%,0%);fill-opacity:1;" d="M 456.585938 480.765625 C 456.585938 485.238281 449.878906 485.238281 449.878906 480.765625 C 449.878906 476.292969 456.585938 476.292969 456.585938 480.765625 "/>
<path style=" stroke:none;fill-rule:nonzero;fill:rgb(100%,84.3%,0%);fill-opacity:1;" d="M 178.179688 486.574219 C 178.179688 491.046875 171.472656 491.046875 171.472656 486.574219 C 171.472656 482.101562 178.179688 482.101562 178.179688 486.574219 "/>
<path style=" stroke:none;fill-rule:nonzero;fill:rgb(100%,84.3%,0%);fill-opacity:1;" d="M 419.6875 486.574219 C 419.6875 491.046875 412.980469 491.046875 412.980469 486.574219 C 412.980469 482.101562 419.6875 482.101562 419.6875 486.574219 "/>
<path style=" stroke:none;fill-rule:nonzero;fill:rgb(100%,84.3%,0%);fill-opacity:1;" d="M 52.730469 369.175781 C 52.730469 373.644531 46.019531 373.644531 46.019531 369.175781 C 46.019531 364.703125 52.730469 364.703125 52.730469 369.175781 "/>
<path style=" stroke:none;fill-rule:nonzero;fill:rgb(100%,84.3%,0%);fill-opacity:1;" d="M 465.980469 446.324219 C 465.980469 450.796875 459.269531 450.796875 459.269531 446.324219 C 459.269531 441.851562 465.980469 441.851562 465.980469 446.324219 "/>
<path style=" stroke:none;fill-rule:nonzero;fill:rgb(100%,84.3%,0%);fill-opacity:1;" d="M 60.78125 480.765625 C 60.78125 485.238281 54.070312 485.238281 54.070312 480.765625 C 54.070312 476.292969 60.78125 476.292969 60.78125 480.765625 "/>
<path style=" stroke:none;fill-rule:nonzero;fill:rgb(100%,84.3%,0%);fill-opacity:1;" d="M 251.976562 486.574219 C 251.976562 491.046875 245.265625 491.046875 245.265625 486.574219 C 245.265625 482.101562 251.976562 482.101562 251.976562 486.574219 "/>
<path style=" stroke:none;fill-rule:nonzero;fill:rgb(100%,84.3%,0%);fill-opacity:1;" d="M 218.433594 486.574219 C 218.433594 491.046875 211.722656 491.046875 211.722656 486.574219 C 211.722656 482.101562 218.433594 482.101562 218.433594 486.574219 "/>
<path style=" stroke:none;fill-rule:nonzero;fill:rgb(100%,84.3%,0%);fill-opacity:1;" d="M 327.78125 312.820312 C 327.78125 317.292969 321.074219 317.292969 321.074219 312.820312 C 321.074219 308.347656 327.78125 308.347656 327.78125 312.820312 "/>
<path style=" stroke:none;fill-rule:nonzero;fill:rgb(100%,84.3%,0%);fill-opacity:1;" d="M 298.933594 486.574219 C 298.933594 491.046875 292.226562 491.046875 292.226562 486.574219 C 292.226562 482.101562 298.933594 482.101562 298.933594 486.574219 "/>
<path style=" stroke:none;fill-rule:nonzero;fill:rgb(100%,84.3%,0%);fill-opacity:1;" d="M 186.902344 312.820312 C 186.902344 317.292969 180.191406 317.292969 180.191406 312.820312 C 180.191406 308.347656 186.902344 308.347656 186.902344 312.820312 "/>
<path style=" stroke:none;fill-rule:nonzero;fill:rgb(100%,84.3%,0%);fill-opacity:1;" d="M 200.316406 312.820312 C 200.316406 317.292969 193.609375 317.292969 193.609375 312.820312 C 193.609375 308.347656 200.316406 308.347656 200.316406 312.820312 "/>
<path style=" stroke:none;fill-rule:nonzero;fill:rgb(100%,84.3%,0%);fill-opacity:1;" d="M 171.472656 486.574219 C 171.472656 491.046875 164.761719 491.046875 164.761719 486.574219 C 164.761719 482.101562 171.472656 482.101562 171.472656 486.574219 "/>
<path style=" stroke:none;fill-rule:nonzero;fill:rgb(100%,84.3%,0%);fill-opacity:1;" d="M 52.730469 355.757812 C 52.730469 360.230469 46.019531 360.230469 46.019531 355.757812 C 46.019531 351.285156 52.730469 351.285156 52.730469 355.757812 "/>
<path style=" stroke:none;fill-rule:nonzero;fill:rgb(100%,84.3%,0%);fill-opacity:1;" d="M 354.617188 312.820312 C 354.617188 317.292969 347.90625 317.292969 347.90625 312.820312 C 347.90625 308.347656 354.617188 308.347656 354.617188 312.820312 "/>
<path style=" stroke:none;fill-rule:nonzero;fill:rgb(100%,84.3%,0%);fill-opacity:1;" d="M 465.980469 338.984375 C 465.980469 343.457031 459.269531 343.457031 459.269531 338.984375 C 459.269531 334.511719 465.980469 334.511719 465.980469 338.984375 "/>
<path style=" stroke:none;fill-rule:nonzero;fill:rgb(100%,84.3%,0%);fill-opacity:1;" d="M 394.867188 312.820312 C 394.867188 317.292969 388.160156 317.292969 388.160156 312.820312 C 388.160156 308.347656 394.867188 308.347656 394.867188 312.820312 "/>
<path style=" stroke:none;fill-rule:nonzero;fill:rgb(100%,84.3%,0%);fill-opacity:1;" d="M 465.980469 412.78125 C 465.980469 417.253906 459.269531 417.253906 459.269531 412.78125 C 459.269531 408.308594 465.980469 408.308594 465.980469 412.78125 "/>
<path style=" stroke:none;fill-rule:nonzero;fill:rgb(100%,84.3%,0%);fill-opacity:1;" d="M 297.59375 318.632812 C 297.59375 323.105469 290.882812 323.105469 290.882812 318.632812 C 290.882812 314.160156 297.59375 314.160156 297.59375 318.632812 "/>
<path style=" stroke:none;fill-rule:nonzero;fill:rgb(100%,84.3%,0%);fill-opacity:1;" d="M 314.363281 312.820312 C 314.363281 317.292969 307.65625 317.292969 307.65625 312.820312 C 307.65625 308.347656 314.363281 308.347656 314.363281 312.820312 "/>
<path style=" stroke:none;fill-rule:nonzero;fill:rgb(100%,84.3%,0%);fill-opacity:1;" d="M 465.980469 439.613281 C 465.980469 444.085938 459.269531 444.085938 459.269531 439.613281 C 459.269531 435.140625 465.980469 435.140625 465.980469 439.613281 "/>
<path style=" stroke:none;fill-rule:nonzero;fill:rgb(100%,84.3%,0%);fill-opacity:1;" d="M 389.5 480.765625 C 389.5 485.238281 382.792969 485.238281 382.792969 480.765625 C 382.792969 476.292969 389.5 476.292969 389.5 480.765625 "/>
<path style=" stroke:none;fill-rule:nonzero;fill:rgb(100%,84.3%,0%);fill-opacity:1;" d="M 307.65625 312.820312 C 307.65625 317.292969 300.949219 317.292969 300.949219 312.820312 C 300.949219 308.347656 307.65625 308.347656 307.65625 312.820312 "/>
<path style=" stroke:none;fill-rule:nonzero;fill:rgb(100%,84.3%,0%);fill-opacity:1;" d="M 151.347656 486.574219 C 151.347656 491.046875 144.636719 491.046875 144.636719 486.574219 C 144.636719 482.101562 151.347656 482.101562 151.347656 486.574219 "/>
<path style=" stroke:none;fill-rule:nonzero;fill:rgb(100%,84.3%,0%);fill-opacity:1;" d="M 173.484375 312.820312 C 173.484375 317.292969 166.777344 317.292969 166.777344 312.820312 C 166.777344 308.347656 173.484375 308.347656 173.484375 312.820312 "/>
<path style=" stroke:none;fill-rule:nonzero;fill:rgb(100%,84.3%,0%);fill-opacity:1;" d="M 220.445312 312.820312 C 220.445312 317.292969 213.734375 317.292969 213.734375 312.820312 C 213.734375 308.347656 220.445312 308.347656 220.445312 312.820312 "/>
<path style=" stroke:none;fill-rule:nonzero;fill:rgb(100%,84.3%,0%);fill-opacity:1;" d="M 324.425781 318.632812 C 324.425781 323.105469 317.71875 323.105469 317.71875 318.632812 C 317.71875 314.160156 324.425781 314.160156 324.425781 318.632812 "/>
<path style=" stroke:none;fill-rule:nonzero;fill:rgb(100%,84.3%,0%);fill-opacity:1;" d="M 274.113281 312.820312 C 274.113281 317.292969 267.40625 317.292969 267.40625 312.820312 C 267.40625 308.347656 274.113281 308.347656 274.113281 312.820312 "/>
<path style=" stroke:none;fill-rule:nonzero;fill:rgb(100%,84.3%,0%);fill-opacity:1;" d="M 52.730469 416.132812 C 52.730469 420.605469 46.019531 420.605469 46.019531 416.132812 C 46.019531 411.660156 52.730469 411.660156 52.730469 416.132812 "/>
<path style=" stroke:none;fill-rule:nonzero;fill:rgb(100%,84.3%,0%);fill-opacity:1;" d="M 294.238281 312.820312 C 294.238281 317.292969 287.53125 317.292969 287.53125 312.820312 C 287.53125 308.347656 294.238281 308.347656 294.238281 312.820312 "/>
<path style=" stroke:none;fill-rule:nonzero;fill:rgb(100%,84.3%,0%);fill-opacity:1;" d="M 465.980469 379.238281 C 465.980469 383.710938 459.269531 383.710938 459.269531 379.238281 C 459.269531 374.765625 465.980469 374.765625 465.980469 379.238281 "/>
<path style=" stroke:none;fill-rule:nonzero;fill:rgb(100%,84.3%,0%);fill-opacity:1;" d="M 203.671875 318.632812 C 203.671875 323.105469 196.964844 323.105469 196.964844 318.632812 C 196.964844 314.160156 203.671875 314.160156 203.671875 318.632812 "/>
<path style=" stroke:none;fill-rule:nonzero;fill:rgb(100%,84.3%,0%);fill-opacity:1;" d="M 52.730469 442.96875 C 52.730469 447.441406 46.019531 447.441406 46.019531 442.96875 C 46.019531 438.496094 52.730469 438.496094 52.730469 442.96875 "/>
<path style=" stroke:none;fill-rule:nonzero;fill:rgb(100%,84.3%,0%);fill-opacity:1;" d="M 52.730469 456.386719 C 52.730469 460.859375 46.019531 460.859375 46.019531 456.386719 C 46.019531 451.914062 52.730469 451.914062 52.730469 456.386719 "/>
<path style=" stroke:none;fill-rule:nonzero;fill:rgb(100%,84.3%,0%);fill-opacity:1;" d="M 465.980469 426.195312 C 465.980469 430.667969 459.269531 430.667969 459.269531 426.195312 C 459.269531 421.722656 465.980469 421.722656 465.980469 426.195312 "/>
<path style=" stroke:none;fill-rule:nonzero;fill:rgb(100%,84.3%,0%);fill-opacity:1;" d="M 335.832031 480.765625 C 335.832031 485.238281 329.125 485.238281 329.125 480.765625 C 329.125 476.292969 335.832031 476.292969 335.832031 480.765625 "/>
<path style=" stroke:none;fill-rule:nonzero;fill:rgb(100%,84.3%,0%);fill-opacity:1;" d="M 287.53125 312.820312 C 287.53125 317.292969 280.820312 317.292969 280.820312 312.820312 C 280.820312 308.347656 287.53125 308.347656 287.53125 312.820312 "/>
<path style=" stroke:none;fill-rule:nonzero;fill:rgb(100%,84.3%,0%);fill-opacity:1;" d="M 52.730469 312.820312 C 52.730469 317.292969 46.019531 317.292969 46.019531 312.820312 C 46.019531 308.347656 52.730469 308.347656 52.730469 312.820312 "/>
<path style=" stroke:none;fill-rule:nonzero;fill:rgb(100%,84.3%,0%);fill-opacity:1;" d="M 84.261719 486.574219 C 84.261719 491.046875 77.550781 491.046875 77.550781 486.574219 C 77.550781 482.101562 84.261719 482.101562 84.261719 486.574219 "/>
<path style=" stroke:none;fill-rule:nonzero;fill:rgb(100%,84.3%,0%);fill-opacity:1;" d="M 52.730469 382.589844 C 52.730469 387.0625 46.019531 387.0625 46.019531 382.589844 C 46.019531 378.117188 52.730469 378.117188 52.730469 382.589844 "/>
<path style=" stroke:none;fill-rule:nonzero;fill:rgb(100%,84.3%,0%);fill-opacity:1;" d="M 374.742188 312.820312 C 374.742188 317.292969 368.035156 317.292969 368.035156 312.820312 C 368.035156 308.347656 374.742188 308.347656 374.742188 312.820312 "/>
<path style=" stroke:none;fill-rule:nonzero;fill:rgb(100%,84.3%,0%);fill-opacity:1;" d="M 119.816406 312.820312 C 119.816406 317.292969 113.105469 317.292969 113.105469 312.820312 C 113.105469 308.347656 119.816406 308.347656 119.816406 312.820312 "/>
<path style=" stroke:none;fill-rule:nonzero;fill:rgb(100%,84.3%,0%);fill-opacity:1;" d="M 238.558594 486.574219 C 238.558594 491.046875 231.847656 491.046875 231.847656 486.574219 C 231.847656 482.101562 238.558594 482.101562 238.558594 486.574219 "/>
</g>
</svg>
