<?xml version="1.0" encoding="UTF-8"?>
<svg xmlns="http://www.w3.org/2000/svg" xmlns:xlink="http://www.w3.org/1999/xlink" width="512pt" height="512pt" viewBox="0 0 512 512" version="1.1">
<g id="surface191">
<rect x="0" y="0" width="512" height="512" style="fill:rgb(26.7%,26.7%,26.7%);fill-opacity:1;stroke:none;"/>
<path style=" stroke:none;fill-rule:nonzero;fill:rgb(19.2%,38.8%,66.7%);fill-opacity:1;" d="M 14.085938 42.667969 L 154.929688 42.667969 L 154.929688 469.332031 L 14.085938 469.332031 Z M 14.085938 42.667969 "/>
<path style=" stroke:none;fill-rule:nonzero;fill:rgb(100%,100%,100%);fill-opacity:1;" d="M 392.421875 129.65625 C 392.421875 133.46875 389.332031 136.5625 385.519531 136.5625 C 381.707031 136.5625 378.613281 133.46875 378.613281 129.65625 C 378.613281 125.84375 381.707031 122.753906 385.519531 122.753906 C 389.332031 122.753906 392.421875 125.84375 392.421875 129.65625 "/>
<path style=" stroke:none;fill-rule:nonzero;fill:rgb(100%,100%,100%);fill-opacity:1;" d="M 258.484375 97.898438 C 258.484375 101.710938 255.394531 104.804688 251.582031 104.804688 C 247.769531 104.804688 244.675781 101.710938 244.675781 97.898438 C 244.675781 94.085938 247.769531 90.996094 251.582031 90.996094 C 255.394531 90.996094 258.484375 94.085938 258.484375 97.898438 "/>
<path style=" stroke:none;fill-rule:nonzero;fill:rgb(100%,100%,100%);fill-opacity:1;" d="M 449.035156 516.28125 C 449.035156 520.09375 445.945312 523.183594 442.132812 523.183594 C 438.320312 523.183594 435.226562 520.09375 435.226562 516.28125 C 435.226562 512.46875 438.320312 509.375 442.132812 509.375 C 445.945312 509.375 449.035156 512.46875 449.035156 516.28125 "/>
<path style=" stroke:none;fill-rule:nonzero;fill:rgb(100%,100%,100%);fill-opacity:1;" d="M 268.152344 461.050781 C 268.152344 464.863281 265.058594 467.953125 261.246094 467.953125 C 257.433594 467.953125 254.34375 464.863281 254.34375 461.050781 C 254.34375 457.234375 257.433594 454.144531 261.246094 454.144531 C 265.058594 454.144531 268.152344 457.234375 268.152344 461.050781 "/>
<path style=" stroke:none;fill-rule:nonzero;fill:rgb(100%,100%,100%);fill-opacity:1;" d="M 309.574219 30.238281 C 309.574219 34.050781 306.484375 37.144531 302.671875 37.144531 C 298.859375 37.144531 295.765625 34.050781 295.765625 30.238281 C 295.765625 26.425781 298.859375 23.335938 302.671875 23.335938 C 306.484375 23.335938 309.574219 26.425781 309.574219 30.238281 "/>
<path style=" stroke:none;fill-rule:nonzero;fill:rgb(100%,100%,100%);fill-opacity:1;" d="M 141.117188 492.808594 C 141.117188 496.621094 138.027344 499.710938 134.214844 499.710938 C 130.402344 499.710938 127.308594 496.621094 127.308594 492.808594 C 127.308594 488.992188 130.402344 485.902344 134.214844 485.902344 C 138.027344 485.902344 141.117188 488.992188 141.117188 492.808594 "/>
<path style=" stroke:none;fill-rule:nonzero;fill:rgb(100%,100%,100%);fill-opacity:1;" d="M 241.914062 423.765625 C 241.914062 427.578125 238.824219 430.671875 235.011719 430.671875 C 231.199219 430.671875 228.109375 427.578125 228.109375 423.765625 C 228.109375 419.953125 231.199219 416.863281 235.011719 416.863281 C 238.824219 416.863281 241.914062 419.953125 241.914062 423.765625 "/>
<path style=" stroke:none;fill-rule:nonzero;fill:rgb(100%,100%,100%);fill-opacity:1;" d="M 442.132812 198.695312 C 442.132812 202.511719 439.039062 205.601562 435.226562 205.601562 C 431.414062 205.601562 428.324219 202.511719 428.324219 198.695312 C 428.324219 194.882812 431.414062 191.792969 435.226562 191.792969 C 439.039062 191.792969 442.132812 194.882812 442.132812 198.695312 "/>
<path style=" stroke:none;fill-rule:nonzero;fill:rgb(100%,100%,100%);fill-opacity:1;" d="M 393.804688 97.898438 C 393.804688 101.710938 390.714844 104.804688 386.898438 104.804688 C 383.085938 104.804688 379.996094 101.710938 379.996094 97.898438 C 379.996094 94.085938 383.085938 90.996094 386.898438 90.996094 C 390.714844 90.996094 393.804688 94.085938 393.804688 97.898438 "/>
<path style=" stroke:none;fill-rule:nonzero;fill:rgb(100%,100%,100%);fill-opacity:1;" d="M 170.113281 392.007812 C 170.113281 395.820312 167.023438 398.914062 163.210938 398.914062 C 159.398438 398.914062 156.304688 395.820312 156.304688 392.007812 C 156.304688 388.195312 159.398438 385.105469 163.210938 385.105469 C 167.023438 385.105469 170.113281 388.195312 170.113281 392.007812 "/>
<path style=" stroke:none;fill-rule:nonzero;fill:rgb(100%,100%,100%);fill-opacity:1;" d="M 258.484375 479 C 258.484375 482.8125 255.394531 485.902344 251.582031 485.902344 C 247.769531 485.902344 244.675781 482.8125 244.675781 479 C 244.675781 475.1875 247.769531 472.09375 251.582031 472.09375 C 255.394531 472.09375 258.484375 475.1875 258.484375 479 "/>
<path style=" stroke:none;fill-rule:nonzero;fill:rgb(100%,100%,100%);fill-opacity:1;" d="M 3.039062 187.648438 C 3.039062 191.464844 -0.0546875 194.554688 -3.867188 194.554688 C -7.679688 194.554688 -10.769531 191.464844 -10.769531 187.648438 C -10.769531 183.835938 -7.679688 180.746094 -3.867188 180.746094 C -0.0546875 180.746094 3.039062 183.835938 3.039062 187.648438 "/>
<path style=" stroke:none;fill-rule:nonzero;fill:rgb(100%,100%,100%);fill-opacity:1;" d="M 306.8125 397.53125 C 306.8125 401.34375 303.722656 404.4375 299.910156 404.4375 C 296.097656 404.4375 293.003906 401.34375 293.003906 397.53125 C 293.003906 393.71875 296.097656 390.628906 299.910156 390.628906 C 303.722656 390.628906 306.8125 393.71875 306.8125 397.53125 "/>
<path style=" stroke:none;fill-rule:nonzero;fill:rgb(100%,84.3%,0%);fill-opacity:1;" d="M 34.796875 371.296875 C 34.796875 375.109375 31.703125 378.199219 27.890625 378.199219 C 24.078125 378.199219 20.988281 375.109375 20.988281 371.296875 C 20.988281 367.484375 24.078125 364.394531 27.890625 364.394531 C 31.703125 364.394531 34.796875 367.484375 34.796875 371.296875 "/>
<path style=" stroke:none;fill-rule:nonzero;fill:rgb(100%,84.3%,0%);fill-opacity:1;" d="M 34.796875 136.5625 C 34.796875 140.375 31.703125 143.464844 27.890625 143.464844 C 24.078125 143.464844 20.988281 140.375 20.988281 136.5625 C 20.988281 132.746094 24.078125 129.65625 27.890625 129.65625 C 31.703125 129.65625 34.796875 132.746094 34.796875 136.5625 "/>
<path style=" stroke:none;fill-rule:nonzero;fill:rgb(100%,84.3%,0%);fill-opacity:1;" d="M 34.796875 329.871094 C 34.796875 333.6875 31.703125 336.777344 27.890625 336.777344 C 24.078125 336.777344 20.988281 333.6875 20.988281 329.871094 C 20.988281 326.058594 24.078125 322.96875 27.890625 322.96875 C 31.703125 322.96875 34.796875 326.058594 34.796875 329.871094 "/>
<path style=" stroke:none;fill-rule:nonzero;fill:rgb(100%,84.3%,0%);fill-opacity:1;" d="M 148.023438 440.335938 C 148.023438 444.148438 144.929688 447.242188 141.117188 447.242188 C 137.304688 447.242188 134.214844 444.148438 134.214844 440.335938 C 134.214844 436.523438 137.304688 433.433594 141.117188 433.433594 C 144.929688 433.433594 148.023438 436.523438 148.023438 440.335938 "/>
<path style=" stroke:none;fill-rule:nonzero;fill:rgb(100%,84.3%,0%);fill-opacity:1;" d="M 148.023438 316.066406 C 148.023438 319.878906 144.929688 322.96875 141.117188 322.96875 C 137.304688 322.96875 134.214844 319.878906 134.214844 316.066406 C 134.214844 312.253906 137.304688 309.160156 141.117188 309.160156 C 144.929688 309.160156 148.023438 312.253906 148.023438 316.066406 "/>
<path style=" stroke:none;fill-rule:nonzero;fill:rgb(100%,84.3%,0%);fill-opacity:1;" d="M 34.796875 108.945312 C 34.796875 112.757812 31.703125 115.847656 27.890625 115.847656 C 24.078125 115.847656 20.988281 112.757812 20.988281 108.945312 C 20.988281 105.132812 24.078125 102.039062 27.890625 102.039062 C 31.703125 102.039062 34.796875 105.132812 34.796875 108.945312 "/>
<path style=" stroke:none;fill-rule:nonzero;fill:rgb(100%,84.3%,0%);fill-opacity:1;" d="M 106.597656 455.523438 C 106.597656 459.339844 103.507812 462.429688 99.695312 462.429688 C 95.882812 462.429688 92.789062 459.339844 92.789062 455.523438 C 92.789062 451.710938 95.882812 448.621094 99.695312 448.621094 C 103.507812 448.621094 106.597656 451.710938 106.597656 455.523438 "/>
<path style=" stroke:none;fill-rule:nonzero;fill:rgb(100%,84.3%,0%);fill-opacity:1;" d="M 134.214844 455.523438 C 134.214844 459.339844 131.121094 462.429688 127.308594 462.429688 C 123.496094 462.429688 120.40625 459.339844 120.40625 455.523438 C 120.40625 451.710938 123.496094 448.621094 127.308594 448.621094 C 131.121094 448.621094 134.214844 451.710938 134.214844 455.523438 "/>
<path style=" stroke:none;fill-rule:nonzero;fill:rgb(100%,84.3%,0%);fill-opacity:1;" d="M 148.023438 385.105469 C 148.023438 388.917969 144.929688 392.007812 141.117188 392.007812 C 137.304688 392.007812 134.214844 388.917969 134.214844 385.105469 C 134.214844 381.292969 137.304688 378.199219 141.117188 378.199219 C 144.929688 378.199219 148.023438 381.292969 148.023438 385.105469 "/>
<path style=" stroke:none;fill-rule:nonzero;fill:rgb(100%,84.3%,0%);fill-opacity:1;" d="M 34.796875 233.21875 C 34.796875 237.03125 31.703125 240.121094 27.890625 240.121094 C 24.078125 240.121094 20.988281 237.03125 20.988281 233.21875 C 20.988281 229.402344 24.078125 226.3125 27.890625 226.3125 C 31.703125 226.3125 34.796875 229.402344 34.796875 233.21875 "/>
<path style=" stroke:none;fill-rule:nonzero;fill:rgb(100%,84.3%,0%);fill-opacity:1;" d="M 34.796875 205.601562 C 34.796875 209.414062 31.703125 212.503906 27.890625 212.503906 C 24.078125 212.503906 20.988281 209.414062 20.988281 205.601562 C 20.988281 201.789062 24.078125 198.695312 27.890625 198.695312 C 31.703125 198.695312 34.796875 201.789062 34.796875 205.601562 "/>
<path style=" stroke:none;fill-rule:nonzero;fill:rgb(100%,84.3%,0%);fill-opacity:1;" d="M 128.691406 56.476562 C 128.691406 60.289062 125.597656 63.378906 121.785156 63.378906 C 117.972656 63.378906 114.882812 60.289062 114.882812 56.476562 C 114.882812 52.660156 117.972656 49.570312 121.785156 49.570312 C 125.597656 49.570312 128.691406 52.660156 128.691406 56.476562 "/>
<path style=" stroke:none;fill-rule:nonzero;fill:rgb(100%,84.3%,0%);fill-opacity:1;" d="M 148.023438 122.753906 C 148.023438 126.566406 144.929688 129.65625 141.117188 129.65625 C 137.304688 129.65625 134.214844 126.566406 134.214844 122.753906 C 134.214844 118.941406 137.304688 115.847656 141.117188 115.847656 C 144.929688 115.847656 148.023438 118.941406 148.023438 122.753906 "/>
<path style=" stroke:none;fill-rule:nonzero;fill:rgb(100%,84.3%,0%);fill-opacity:1;" d="M 34.796875 177.984375 C 34.796875 181.796875 31.703125 184.890625 27.890625 184.890625 C 24.078125 184.890625 20.988281 181.796875 20.988281 177.984375 C 20.988281 174.171875 24.078125 171.082031 27.890625 171.082031 C 31.703125 171.082031 34.796875 174.171875 34.796875 177.984375 "/>
<path style=" stroke:none;fill-rule:nonzero;fill:rgb(100%,84.3%,0%);fill-opacity:1;" d="M 148.023438 455.523438 C 148.023438 459.339844 144.929688 462.429688 141.117188 462.429688 C 137.304688 462.429688 134.214844 459.339844 134.214844 455.523438 C 134.214844 451.710938 137.304688 448.621094 141.117188 448.621094 C 144.929688 448.621094 148.023438 451.710938 148.023438 455.523438 "/>
<path style=" stroke:none;fill-rule:nonzero;fill:rgb(100%,84.3%,0%);fill-opacity:1;" d="M 34.796875 398.914062 C 34.796875 402.726562 31.703125 405.816406 27.890625 405.816406 C 24.078125 405.816406 20.988281 402.726562 20.988281 398.914062 C 20.988281 395.101562 24.078125 392.007812 27.890625 392.007812 C 31.703125 392.007812 34.796875 395.101562 34.796875 398.914062 "/>
<path style=" stroke:none;fill-rule:nonzero;fill:rgb(100%,84.3%,0%);fill-opacity:1;" d="M 34.796875 385.105469 C 34.796875 388.917969 31.703125 392.007812 27.890625 392.007812 C 24.078125 392.007812 20.988281 388.917969 20.988281 385.105469 C 20.988281 381.292969 24.078125 378.199219 27.890625 378.199219 C 31.703125 378.199219 34.796875 381.292969 34.796875 385.105469 "/>
<path style=" stroke:none;fill-rule:nonzero;fill:rgb(100%,84.3%,0%);fill-opacity:1;" d="M 136.0625 392.007812 C 136.0625 395.820312 132.972656 398.914062 129.160156 398.914062 C 125.347656 398.914062 122.257812 395.820312 122.257812 392.007812 C 122.257812 388.195312 125.347656 385.105469 129.160156 385.105469 C 132.972656 385.105469 136.0625 388.195312 136.0625 392.007812 "/>
<path style=" stroke:none;fill-rule:nonzero;fill:rgb(100%,84.3%,0%);fill-opacity:1;" d="M 34.796875 219.410156 C 34.796875 223.222656 31.703125 226.3125 27.890625 226.3125 C 24.078125 226.3125 20.988281 223.222656 20.988281 219.410156 C 20.988281 215.597656 24.078125 212.503906 27.890625 212.503906 C 31.703125 212.503906 34.796875 215.597656 34.796875 219.410156 "/>
<path style=" stroke:none;fill-rule:nonzero;fill:rgb(100%,84.3%,0%);fill-opacity:1;" d="M 148.023438 412.722656 C 148.023438 416.535156 144.929688 419.625 141.117188 419.625 C 137.304688 419.625 134.214844 416.535156 134.214844 412.722656 C 134.214844 408.90625 137.304688 405.816406 141.117188 405.816406 C 144.929688 405.816406 148.023438 408.90625 148.023438 412.722656 "/>
<path style=" stroke:none;fill-rule:nonzero;fill:rgb(100%,84.3%,0%);fill-opacity:1;" d="M 148.023438 95.136719 C 148.023438 98.949219 144.929688 102.039062 141.117188 102.039062 C 137.304688 102.039062 134.214844 98.949219 134.214844 95.136719 C 134.214844 91.324219 137.304688 88.234375 141.117188 88.234375 C 144.929688 88.234375 148.023438 91.324219 148.023438 95.136719 "/>
<path style=" stroke:none;fill-rule:nonzero;fill:rgb(100%,84.3%,0%);fill-opacity:1;" d="M 92.789062 455.523438 C 92.789062 459.339844 89.699219 462.429688 85.886719 462.429688 C 82.074219 462.429688 78.980469 459.339844 78.980469 455.523438 C 78.980469 451.710938 82.074219 448.621094 85.886719 448.621094 C 89.699219 448.621094 92.789062 451.710938 92.789062 455.523438 "/>
<path style=" stroke:none;fill-rule:nonzero;fill:rgb(100%,84.3%,0%);fill-opacity:1;" d="M 120.40625 455.523438 C 120.40625 459.339844 117.316406 462.429688 113.503906 462.429688 C 109.6875 462.429688 106.597656 459.339844 106.597656 455.523438 C 106.597656 451.710938 109.6875 448.621094 113.503906 448.621094 C 117.316406 448.621094 120.40625 451.710938 120.40625 455.523438 "/>
<path style=" stroke:none;fill-rule:nonzero;fill:rgb(100%,84.3%,0%);fill-opacity:1;" d="M 34.796875 122.753906 C 34.796875 126.566406 31.703125 129.65625 27.890625 129.65625 C 24.078125 129.65625 20.988281 126.566406 20.988281 122.753906 C 20.988281 118.941406 24.078125 115.847656 27.890625 115.847656 C 31.703125 115.847656 34.796875 118.941406 34.796875 122.753906 "/>
<path style=" stroke:none;fill-rule:nonzero;fill:rgb(100%,84.3%,0%);fill-opacity:1;" d="M 114.882812 56.476562 C 114.882812 60.289062 111.789062 63.378906 107.976562 63.378906 C 104.164062 63.378906 101.074219 60.289062 101.074219 56.476562 C 101.074219 52.660156 104.164062 49.570312 107.976562 49.570312 C 111.789062 49.570312 114.882812 52.660156 114.882812 56.476562 "/>
<path style=" stroke:none;fill-rule:nonzero;fill:rgb(100%,84.3%,0%);fill-opacity:1;" d="M 34.796875 150.367188 C 34.796875 154.183594 31.703125 157.273438 27.890625 157.273438 C 24.078125 157.273438 20.988281 154.183594 20.988281 150.367188 C 20.988281 146.554688 24.078125 143.464844 27.890625 143.464844 C 31.703125 143.464844 34.796875 146.554688 34.796875 150.367188 "/>
<path style=" stroke:none;fill-rule:nonzero;fill:rgb(100%,84.3%,0%);fill-opacity:1;" d="M 101.074219 56.476562 C 101.074219 60.289062 97.984375 63.378906 94.171875 63.378906 C 90.355469 63.378906 87.265625 60.289062 87.265625 56.476562 C 87.265625 52.660156 90.355469 49.570312 94.171875 49.570312 C 97.984375 49.570312 101.074219 52.660156 101.074219 56.476562 "/>
<path style=" stroke:none;fill-rule:nonzero;fill:rgb(100%,84.3%,0%);fill-opacity:1;" d="M 148.023438 398.914062 C 148.023438 402.726562 144.929688 405.816406 141.117188 405.816406 C 137.304688 405.816406 134.214844 402.726562 134.214844 398.914062 C 134.214844 395.101562 137.304688 392.007812 141.117188 392.007812 C 144.929688 392.007812 148.023438 395.101562 148.023438 398.914062 "/>
<path style=" stroke:none;fill-rule:nonzero;fill:rgb(100%,84.3%,0%);fill-opacity:1;" d="M 34.796875 412.722656 C 34.796875 416.535156 31.703125 419.625 27.890625 419.625 C 24.078125 419.625 20.988281 416.535156 20.988281 412.722656 C 20.988281 408.90625 24.078125 405.816406 27.890625 405.816406 C 31.703125 405.816406 34.796875 408.90625 34.796875 412.722656 "/>
<path style=" stroke:none;fill-rule:nonzero;fill:rgb(100%,84.3%,0%);fill-opacity:1;" d="M 34.796875 454.144531 C 34.796875 457.957031 31.703125 461.050781 27.890625 461.050781 C 24.078125 461.050781 20.988281 457.957031 20.988281 454.144531 C 20.988281 450.332031 24.078125 447.242188 27.890625 447.242188 C 31.703125 447.242188 34.796875 450.332031 34.796875 454.144531 "/>
<path style=" stroke:none;fill-rule:nonzero;fill:rgb(100%,84.3%,0%);fill-opacity:1;" d="M 65.175781 455.523438 C 65.175781 459.339844 62.082031 462.429688 58.269531 462.429688 C 54.457031 462.429688 51.367188 459.339844 51.367188 455.523438 C 51.367188 451.710938 54.457031 448.621094 58.269531 448.621094 C 62.082031 448.621094 65.175781 451.710938 65.175781 455.523438 "/>
<path style=" stroke:none;fill-rule:nonzero;fill:rgb(100%,84.3%,0%);fill-opacity:1;" d="M 34.796875 357.488281 C 34.796875 361.300781 31.703125 364.394531 27.890625 364.394531 C 24.078125 364.394531 20.988281 361.300781 20.988281 357.488281 C 20.988281 353.675781 24.078125 350.585938 27.890625 350.585938 C 31.703125 350.585938 34.796875 353.675781 34.796875 357.488281 "/>
<path style=" stroke:none;fill-rule:nonzero;fill:rgb(100%,84.3%,0%);fill-opacity:1;" d="M 148.023438 426.527344 C 148.023438 430.34375 144.929688 433.433594 141.117188 433.433594 C 137.304688 433.433594 134.214844 430.34375 134.214844 426.527344 C 134.214844 422.714844 137.304688 419.625 141.117188 419.625 C 144.929688 419.625 148.023438 422.714844 148.023438 426.527344 "/>
<path style=" stroke:none;fill-rule:nonzero;fill:rgb(100%,84.3%,0%);fill-opacity:1;" d="M 148.023438 329.871094 C 148.023438 333.6875 144.929688 336.777344 141.117188 336.777344 C 137.304688 336.777344 134.214844 333.6875 134.214844 329.871094 C 134.214844 326.058594 137.304688 322.96875 141.117188 322.96875 C 144.929688 322.96875 148.023438 326.058594 148.023438 329.871094 "/>
<path style=" stroke:none;fill-rule:nonzero;fill:rgb(100%,84.3%,0%);fill-opacity:1;" d="M 34.796875 343.679688 C 34.796875 347.492188 31.703125 350.585938 27.890625 350.585938 C 24.078125 350.585938 20.988281 347.492188 20.988281 343.679688 C 20.988281 339.867188 24.078125 336.777344 27.890625 336.777344 C 31.703125 336.777344 34.796875 339.867188 34.796875 343.679688 "/>
<path style=" stroke:none;fill-rule:nonzero;fill:rgb(100%,84.3%,0%);fill-opacity:1;" d="M 148.023438 357.488281 C 148.023438 361.300781 144.929688 364.394531 141.117188 364.394531 C 137.304688 364.394531 134.214844 361.300781 134.214844 357.488281 C 134.214844 353.675781 137.304688 350.585938 141.117188 350.585938 C 144.929688 350.585938 148.023438 353.675781 148.023438 357.488281 "/>
<path style=" stroke:none;fill-rule:nonzero;fill:rgb(100%,84.3%,0%);fill-opacity:1;" d="M 148.023438 81.328125 C 148.023438 85.140625 144.929688 88.234375 141.117188 88.234375 C 137.304688 88.234375 134.214844 85.140625 134.214844 81.328125 C 134.214844 77.515625 137.304688 74.425781 141.117188 74.425781 C 144.929688 74.425781 148.023438 77.515625 148.023438 81.328125 "/>
<path style=" stroke:none;fill-rule:nonzero;fill:rgb(100%,84.3%,0%);fill-opacity:1;" d="M 87.265625 56.476562 C 87.265625 60.289062 84.175781 63.378906 80.363281 63.378906 C 76.550781 63.378906 73.457031 60.289062 73.457031 56.476562 C 73.457031 52.660156 76.550781 49.570312 80.363281 49.570312 C 84.175781 49.570312 87.265625 52.660156 87.265625 56.476562 "/>
<path style=" stroke:none;fill-rule:nonzero;fill:rgb(100%,84.3%,0%);fill-opacity:1;" d="M 148.023438 371.296875 C 148.023438 375.109375 144.929688 378.199219 141.117188 378.199219 C 137.304688 378.199219 134.214844 375.109375 134.214844 371.296875 C 134.214844 367.484375 137.304688 364.394531 141.117188 364.394531 C 144.929688 364.394531 148.023438 367.484375 148.023438 371.296875 "/>
<path style=" stroke:none;fill-rule:nonzero;fill:rgb(100%,84.3%,0%);fill-opacity:1;" d="M 148.023438 343.679688 C 148.023438 347.492188 144.929688 350.585938 141.117188 350.585938 C 137.304688 350.585938 134.214844 347.492188 134.214844 343.679688 C 134.214844 339.867188 137.304688 336.777344 141.117188 336.777344 C 144.929688 336.777344 148.023438 339.867188 148.023438 343.679688 "/>
<path style=" stroke:none;fill-rule:nonzero;fill:rgb(100%,84.3%,0%);fill-opacity:1;" d="M 34.796875 164.175781 C 34.796875 167.988281 31.703125 171.082031 27.890625 171.082031 C 24.078125 171.082031 20.988281 167.988281 20.988281 164.175781 C 20.988281 160.363281 24.078125 157.273438 27.890625 157.273438 C 31.703125 157.273438 34.796875 160.363281 34.796875 164.175781 "/>
<path style=" stroke:none;fill-rule:nonzero;fill:rgb(100%,84.3%,0%);fill-opacity:1;" d="M 148.023438 136.5625 C 148.023438 140.375 144.929688 143.464844 141.117188 143.464844 C 137.304688 143.464844 134.214844 140.375 134.214844 136.5625 C 134.214844 132.746094 137.304688 129.65625 141.117188 129.65625 C 144.929688 129.65625 148.023438 132.746094 148.023438 136.5625 "/>
<path style=" stroke:none;fill-rule:nonzero;fill:rgb(100%,84.3%,0%);fill-opacity:1;" d="M 34.796875 191.792969 C 34.796875 195.605469 31.703125 198.695312 27.890625 198.695312 C 24.078125 198.695312 20.988281 195.605469 20.988281 191.792969 C 20.988281 187.980469 24.078125 184.890625 27.890625 184.890625 C 31.703125 184.890625 34.796875 187.980469 34.796875 191.792969 "/>
<path style=" stroke:none;fill-rule:nonzero;fill:rgb(100%,84.3%,0%);fill-opacity:1;" d="M 34.796875 81.328125 C 34.796875 85.140625 31.703125 88.234375 27.890625 88.234375 C 24.078125 88.234375 20.988281 85.140625 20.988281 81.328125 C 20.988281 77.515625 24.078125 74.425781 27.890625 74.425781 C 31.703125 74.425781 34.796875 77.515625 34.796875 81.328125 "/>
<path style=" stroke:none;fill-rule:nonzero;fill:rgb(100%,84.3%,0%);fill-opacity:1;" d="M 34.796875 426.527344 C 34.796875 430.34375 31.703125 433.433594 27.890625 433.433594 C 24.078125 433.433594 20.988281 430.34375 20.988281 426.527344 C 20.988281 422.714844 24.078125 419.625 27.890625 419.625 C 31.703125 419.625 34.796875 422.714844 34.796875 426.527344 "/>
<path style=" stroke:none;fill-rule:nonzero;fill:rgb(100%,84.3%,0%);fill-opacity:1;" d="M 78.980469 455.523438 C 78.980469 459.339844 75.890625 462.429688 72.078125 462.429688 C 68.265625 462.429688 65.175781 459.339844 65.175781 455.523438 C 65.175781 451.710938 68.265625 448.621094 72.078125 448.621094 C 75.890625 448.621094 78.980469 451.710938 78.980469 455.523438 "/>
</g>
</svg>
