<?xml version="1.0" encoding="UTF-8"?>
<svg xmlns="http://www.w3.org/2000/svg" xmlns:xlink="http://www.w3.org/1999/xlink" width="512pt" height="512pt" viewBox="0 0 512 512" version="1.1">
<g id="surface226">
<path style=" stroke:none;fill-rule:nonzero;fill:rgb(26.7%,26.7%,26.7%);fill-opacity:1;" d="M 72.496094 0 L 439.5 0 L 439.5 512 L 72.496094 512 Z M 72.496094 0 "/>
<path style=" stroke:none;fill-rule:nonzero;fill:rgb(19.2%,38.8%,66.7%);fill-opacity:1;" d="M 72.496094 46.546875 L 406.136719 46.546875 L 406.136719 512 L 72.496094 512 Z M 72.496094 46.546875 "/>
<path style=" stroke:none;fill-rule:nonzero;fill:rgb(100%,100%,100%);fill-opacity:1;" d="M 414.089844 89.886719 C 414.089844 91.59375 411.523438 91.59375 411.523438 89.886719 C 411.523438 88.175781 414.089844 88.175781 414.089844 89.886719 "/>
<path style=" stroke:none;fill-rule:nonzero;fill:rgb(100%,100%,100%);fill-opacity:1;" d="M 433.835938 509.4375 C 433.835938 511.144531 431.269531 511.144531 431.269531 509.4375 C 431.269531 507.726562 433.835938 507.726562 433.835938 509.4375 "/>
<path style=" stroke:none;fill-rule:nonzero;fill:rgb(100%,84.3%,0%);fill-opacity:1;" d="M 404.855469 91.167969 C 404.855469 92.878906 402.289062 92.878906 402.289062 91.167969 C 402.289062 89.457031 404.855469 89.457031 404.855469 91.167969 "/>
<path style=" stroke:none;fill-rule:nonzero;fill:rgb(100%,84.3%,0%);fill-opacity:1;" d="M 404.855469 83.472656 C 404.855469 85.183594 402.289062 85.183594 402.289062 83.472656 C 402.289062 81.765625 404.855469 81.765625 404.855469 83.472656 "/>
<path style=" stroke:none;fill-rule:nonzero;fill:rgb(100%,84.3%,0%);fill-opacity:1;" d="M 404.855469 78.34375 C 404.855469 80.054688 402.289062 80.054688 402.289062 78.34375 C 402.289062 76.636719 404.855469 76.636719 404.855469 78.34375 "/>
<path style=" stroke:none;fill-rule:nonzero;fill:rgb(100%,84.3%,0%);fill-opacity:1;" d="M 404.855469 103.988281 C 404.855469 105.699219 402.289062 105.699219 402.289062 103.988281 C 402.289062 102.28125 404.855469 102.28125 404.855469 103.988281 "/>
<path style=" stroke:none;fill-rule:nonzero;fill:rgb(100%,84.3%,0%);fill-opacity:1;" d="M 404.855469 75.78125 C 404.855469 77.492188 402.289062 77.492188 402.289062 75.78125 C 402.289062 74.070312 404.855469 74.070312 404.855469 75.78125 "/>
<path style=" stroke:none;fill-rule:nonzero;fill:rgb(100%,84.3%,0%);fill-opacity:1;" d="M 404.855469 98.859375 C 404.855469 100.570312 402.289062 100.570312 402.289062 98.859375 C 402.289062 97.152344 404.855469 97.152344 404.855469 98.859375 "/>
<path style=" stroke:none;fill-rule:nonzero;fill:rgb(100%,84.3%,0%);fill-opacity:1;" d="M 404.855469 101.425781 C 404.855469 103.132812 402.289062 103.132812 402.289062 101.425781 C 402.289062 99.714844 404.855469 99.714844 404.855469 101.425781 "/>
<path style=" stroke:none;fill-rule:nonzero;fill:rgb(100%,84.3%,0%);fill-opacity:1;" d="M 404.855469 96.296875 C 404.855469 98.007812 402.289062 98.007812 402.289062 96.296875 C 402.289062 94.585938 404.855469 94.585938 404.855469 96.296875 "/>
<path style=" stroke:none;fill-rule:nonzero;fill:rgb(100%,84.3%,0%);fill-opacity:1;" d="M 404.855469 88.601562 C 404.855469 90.3125 402.289062 90.3125 402.289062 88.601562 C 402.289062 86.894531 404.855469 86.894531 404.855469 88.601562 "/>
<path style=" stroke:none;fill-rule:nonzero;fill:rgb(100%,84.3%,0%);fill-opacity:1;" d="M 402.636719 89.886719 C 402.636719 91.59375 400.070312 91.59375 400.070312 89.886719 C 400.070312 88.175781 402.636719 88.175781 402.636719 89.886719 "/>
<path style=" stroke:none;fill-rule:nonzero;fill:rgb(100%,84.3%,0%);fill-opacity:1;" d="M 404.855469 80.910156 C 404.855469 82.621094 402.289062 82.621094 402.289062 80.910156 C 402.289062 79.199219 404.855469 79.199219 404.855469 80.910156 "/>
<path style=" stroke:none;fill-rule:nonzero;fill:rgb(100%,84.3%,0%);fill-opacity:1;" d="M 404.855469 93.730469 C 404.855469 95.441406 402.289062 95.441406 402.289062 93.730469 C 402.289062 92.023438 404.855469 92.023438 404.855469 93.730469 "/>
<path style=" stroke:none;fill-rule:nonzero;fill:rgb(100%,84.3%,0%);fill-opacity:1;" d="M 404.855469 86.039062 C 404.855469 87.75 402.289062 87.75 402.289062 86.039062 C 402.289062 84.328125 404.855469 84.328125 404.855469 86.039062 "/>
<path style=" stroke:none;fill-rule:nonzero;fill:rgb(100%,84.3%,0%);fill-opacity:1;" d="M 404.855469 509.179688 C 404.855469 510.886719 402.289062 510.886719 402.289062 509.179688 C 402.289062 507.46875 404.855469 507.46875 404.855469 509.179688 "/>
</g>
</svg>
