<?xml version="1.0" encoding="UTF-8"?>
<svg xmlns="http://www.w3.org/2000/svg" xmlns:xlink="http://www.w3.org/1999/xlink" width="512pt" height="512pt" viewBox="0 0 512 512" version="1.1">
<g id="surface231">
<rect x="0" y="0" width="512" height="512" style="fill:rgb(26.7%,26.7%,26.7%);fill-opacity:1;stroke:none;"/>
<path style=" stroke:none;fill-rule:nonzero;fill:rgb(19.2%,38.8%,66.7%);fill-opacity:1;" d="M 0 46.546875 L 89.289062 46.546875 L 89.289062 512 L 0 512 Z M 0 46.546875 "/>
<path style=" stroke:none;fill-rule:nonzero;fill:rgb(100%,100%,100%);fill-opacity:1;" d="M 164.109375 172.210938 C 164.109375 174.964844 159.972656 174.964844 159.972656 172.210938 C 159.972656 169.453125 164.109375 169.453125 164.109375 172.210938 "/>
<path style=" stroke:none;fill-rule:nonzero;fill:rgb(100%,100%,100%);fill-opacity:1;" d="M 289.773438 296.222656 C 289.773438 298.976562 285.636719 298.976562 285.636719 296.222656 C 285.636719 293.464844 289.773438 293.464844 289.773438 296.222656 "/>
<path style=" stroke:none;fill-rule:nonzero;fill:rgb(100%,100%,100%);fill-opacity:1;" d="M 439 383.855469 C 439 386.609375 434.863281 386.609375 434.863281 383.855469 C 434.863281 381.097656 439 381.097656 439 383.855469 "/>
<path style=" stroke:none;fill-rule:nonzero;fill:rgb(100%,100%,100%);fill-opacity:1;" d="M 371.207031 313.582031 C 371.207031 316.335938 367.070312 316.335938 367.070312 313.582031 C 367.070312 310.828125 371.207031 310.828125 371.207031 313.582031 "/>
<path style=" stroke:none;fill-rule:nonzero;fill:rgb(100%,100%,100%);fill-opacity:1;" d="M 135.171875 378.894531 C 135.171875 381.652344 131.039062 381.652344 131.039062 378.894531 C 131.039062 376.140625 135.171875 376.140625 135.171875 378.894531 "/>
<path style=" stroke:none;fill-rule:nonzero;fill:rgb(100%,100%,100%);fill-opacity:1;" d="M 164.109375 509.519531 C 164.109375 512.277344 159.972656 512.277344 159.972656 509.519531 C 159.972656 506.765625 164.109375 506.765625 164.109375 509.519531 "/>
<path style=" stroke:none;fill-rule:nonzero;fill:rgb(100%,100%,100%);fill-opacity:1;" d="M 394.769531 156.503906 C 394.769531 159.257812 390.632812 159.257812 390.632812 156.503906 C 390.632812 153.746094 394.769531 153.746094 394.769531 156.503906 "/>
<path style=" stroke:none;fill-rule:nonzero;fill:rgb(100%,100%,100%);fill-opacity:1;" d="M 334.003906 209.828125 C 334.003906 212.582031 329.871094 212.582031 329.871094 209.828125 C 329.871094 207.070312 334.003906 207.070312 334.003906 209.828125 "/>
<path style=" stroke:none;fill-rule:nonzero;fill:rgb(100%,84.3%,0%);fill-opacity:1;" d="M 87.222656 347.496094 C 87.222656 350.253906 83.085938 350.253906 83.085938 347.496094 C 83.085938 344.742188 87.222656 344.742188 87.222656 347.496094 "/>
<path style=" stroke:none;fill-rule:nonzero;fill:rgb(100%,84.3%,0%);fill-opacity:1;" d="M 84.152344 383.496094 C 84.152344 386.253906 80.019531 386.253906 80.019531 383.496094 C 80.019531 380.742188 84.152344 380.742188 84.152344 383.496094 "/>
<path style=" stroke:none;fill-rule:nonzero;fill:rgb(100%,84.3%,0%);fill-opacity:1;" d="M 87.222656 386.265625 C 87.222656 389.023438 83.085938 389.023438 83.085938 386.265625 C 83.085938 383.511719 87.222656 383.511719 87.222656 386.265625 "/>
<path style=" stroke:none;fill-rule:nonzero;fill:rgb(100%,84.3%,0%);fill-opacity:1;" d="M 87.222656 324.941406 C 87.222656 327.699219 83.085938 327.699219 83.085938 324.941406 C 83.085938 322.1875 87.222656 322.1875 87.222656 324.941406 "/>
<path style=" stroke:none;fill-rule:nonzero;fill:rgb(100%,84.3%,0%);fill-opacity:1;" d="M 87.222656 379.804688 C 87.222656 382.5625 83.085938 382.5625 83.085938 379.804688 C 83.085938 377.050781 87.222656 377.050781 87.222656 379.804688 "/>
<path style=" stroke:none;fill-rule:nonzero;fill:rgb(100%,84.3%,0%);fill-opacity:1;" d="M 87.222656 356.988281 C 87.222656 359.742188 83.085938 359.742188 83.085938 356.988281 C 83.085938 354.230469 87.222656 354.230469 87.222656 356.988281 "/>
<path style=" stroke:none;fill-rule:nonzero;fill:rgb(100%,84.3%,0%);fill-opacity:1;" d="M 87.222656 414.125 C 87.222656 416.878906 83.085938 416.878906 83.085938 414.125 C 83.085938 411.371094 87.222656 411.371094 87.222656 414.125 "/>
<path style=" stroke:none;fill-rule:nonzero;fill:rgb(100%,84.3%,0%);fill-opacity:1;" d="M 87.222656 402.367188 C 87.222656 405.121094 83.085938 405.121094 83.085938 402.367188 C 83.085938 399.609375 87.222656 399.609375 87.222656 402.367188 "/>
<path style=" stroke:none;fill-rule:nonzero;fill:rgb(100%,84.3%,0%);fill-opacity:1;" d="M 83.609375 377.640625 C 83.609375 380.398438 79.472656 380.398438 79.472656 377.640625 C 79.472656 374.886719 83.609375 374.886719 83.609375 377.640625 "/>
<path style=" stroke:none;fill-rule:nonzero;fill:rgb(100%,84.3%,0%);fill-opacity:1;" d="M 87.222656 421.535156 C 87.222656 424.289062 83.085938 424.289062 83.085938 421.535156 C 83.085938 418.777344 87.222656 418.777344 87.222656 421.535156 "/>
<path style=" stroke:none;fill-rule:nonzero;fill:rgb(100%,84.3%,0%);fill-opacity:1;" d="M 81.722656 346.707031 C 81.722656 349.460938 77.585938 349.460938 77.585938 346.707031 C 77.585938 343.949219 81.722656 343.949219 81.722656 346.707031 "/>
<path style=" stroke:none;fill-rule:nonzero;fill:rgb(100%,84.3%,0%);fill-opacity:1;" d="M 87.222656 352.820312 C 87.222656 355.574219 83.085938 355.574219 83.085938 352.820312 C 83.085938 350.0625 87.222656 350.0625 87.222656 352.820312 "/>
<path style=" stroke:none;fill-rule:nonzero;fill:rgb(100%,84.3%,0%);fill-opacity:1;" d="M 87.222656 375.632812 C 87.222656 378.390625 83.085938 378.390625 83.085938 375.632812 C 83.085938 372.878906 87.222656 372.878906 87.222656 375.632812 "/>
<path style=" stroke:none;fill-rule:nonzero;fill:rgb(100%,84.3%,0%);fill-opacity:1;" d="M 87.222656 341.636719 C 87.222656 344.394531 83.085938 344.394531 83.085938 341.636719 C 83.085938 338.882812 87.222656 338.882812 87.222656 341.636719 "/>
<path style=" stroke:none;fill-rule:nonzero;fill:rgb(100%,84.3%,0%);fill-opacity:1;" d="M 87.222656 305.117188 C 87.222656 307.871094 83.085938 307.871094 83.085938 305.117188 C 83.085938 302.359375 87.222656 302.359375 87.222656 305.117188 "/>
<path style=" stroke:none;fill-rule:nonzero;fill:rgb(100%,84.3%,0%);fill-opacity:1;" d="M 87.222656 407.113281 C 87.222656 409.867188 83.085938 409.867188 83.085938 407.113281 C 83.085938 404.355469 87.222656 404.355469 87.222656 407.113281 "/>
<path style=" stroke:none;fill-rule:nonzero;fill:rgb(100%,84.3%,0%);fill-opacity:1;" d="M 87.222656 311.464844 C 87.222656 314.21875 83.085938 314.21875 83.085938 311.464844 C 83.085938 308.707031 87.222656 308.707031 87.222656 311.464844 "/>
<path style=" stroke:none;fill-rule:nonzero;fill:rgb(100%,84.3%,0%);fill-opacity:1;" d="M 87.222656 390.59375 C 87.222656 393.347656 83.085938 393.347656 83.085938 390.59375 C 83.085938 387.835938 87.222656 387.835938 87.222656 390.59375 "/>
<path style=" stroke:none;fill-rule:nonzero;fill:rgb(100%,84.3%,0%);fill-opacity:1;" d="M 83.476562 368.304688 C 83.476562 371.0625 79.34375 371.0625 79.34375 368.304688 C 79.34375 365.550781 83.476562 365.550781 83.476562 368.304688 "/>
<path style=" stroke:none;fill-rule:nonzero;fill:rgb(100%,84.3%,0%);fill-opacity:1;" d="M 83.21875 396.265625 C 83.21875 399.023438 79.082031 399.023438 79.082031 396.265625 C 79.082031 393.511719 83.21875 393.511719 83.21875 396.265625 "/>
<path style=" stroke:none;fill-rule:nonzero;fill:rgb(100%,84.3%,0%);fill-opacity:1;" d="M 87.222656 442.226562 C 87.222656 444.980469 83.085938 444.980469 83.085938 442.226562 C 83.085938 439.46875 87.222656 439.46875 87.222656 442.226562 "/>
<path style=" stroke:none;fill-rule:nonzero;fill:rgb(100%,84.3%,0%);fill-opacity:1;" d="M 87.222656 330.878906 C 87.222656 333.636719 83.085938 333.636719 83.085938 330.878906 C 83.085938 328.125 87.222656 328.125 87.222656 330.878906 "/>
<path style=" stroke:none;fill-rule:nonzero;fill:rgb(100%,84.3%,0%);fill-opacity:1;" d="M 83.117188 401.882812 C 83.117188 404.640625 78.980469 404.640625 78.980469 401.882812 C 78.980469 399.128906 83.117188 399.128906 83.117188 401.882812 "/>
<path style=" stroke:none;fill-rule:nonzero;fill:rgb(100%,84.3%,0%);fill-opacity:1;" d="M 83.214844 362.796875 C 83.214844 365.550781 79.082031 365.550781 79.082031 362.796875 C 79.082031 360.039062 83.214844 360.039062 83.214844 362.796875 "/>
<path style=" stroke:none;fill-rule:nonzero;fill:rgb(100%,84.3%,0%);fill-opacity:1;" d="M 87.222656 397.292969 C 87.222656 400.046875 83.085938 400.046875 83.085938 397.292969 C 83.085938 394.539062 87.222656 394.539062 87.222656 397.292969 "/>
<path style=" stroke:none;fill-rule:nonzero;fill:rgb(100%,84.3%,0%);fill-opacity:1;" d="M 87.222656 371.191406 C 87.222656 373.949219 83.085938 373.949219 83.085938 371.191406 C 83.085938 368.4375 87.222656 368.4375 87.222656 371.191406 "/>
<path style=" stroke:none;fill-rule:nonzero;fill:rgb(100%,84.3%,0%);fill-opacity:1;" d="M 87.222656 434.085938 C 87.222656 436.84375 83.085938 436.84375 83.085938 434.085938 C 83.085938 431.332031 87.222656 431.332031 87.222656 434.085938 "/>
<path style=" stroke:none;fill-rule:nonzero;fill:rgb(100%,84.3%,0%);fill-opacity:1;" d="M 83.203125 413.152344 C 83.203125 415.910156 79.070312 415.910156 79.070312 413.152344 C 79.070312 410.398438 83.203125 410.398438 83.203125 413.152344 "/>
<path style=" stroke:none;fill-rule:nonzero;fill:rgb(100%,84.3%,0%);fill-opacity:1;" d="M 83.429688 372.839844 C 83.429688 375.59375 79.296875 375.59375 79.296875 372.839844 C 79.296875 370.082031 83.429688 370.082031 83.429688 372.839844 "/>
<path style=" stroke:none;fill-rule:nonzero;fill:rgb(100%,84.3%,0%);fill-opacity:1;" d="M 83.167969 357.808594 C 83.167969 360.5625 79.035156 360.5625 79.035156 357.808594 C 79.035156 355.050781 83.167969 355.050781 83.167969 357.808594 "/>
<path style=" stroke:none;fill-rule:nonzero;fill:rgb(100%,84.3%,0%);fill-opacity:1;" d="M 79.246094 395.113281 C 79.246094 397.867188 75.113281 397.867188 75.113281 395.113281 C 75.113281 392.355469 79.246094 392.355469 79.246094 395.113281 "/>
<path style=" stroke:none;fill-rule:nonzero;fill:rgb(100%,84.3%,0%);fill-opacity:1;" d="M 87.222656 361.777344 C 87.222656 364.53125 83.085938 364.53125 83.085938 361.777344 C 83.085938 359.019531 87.222656 359.019531 87.222656 361.777344 "/>
<path style=" stroke:none;fill-rule:nonzero;fill:rgb(100%,84.3%,0%);fill-opacity:1;" d="M 87.222656 336.328125 C 87.222656 339.082031 83.085938 339.082031 83.085938 336.328125 C 83.085938 333.570312 87.222656 333.570312 87.222656 336.328125 "/>
<path style=" stroke:none;fill-rule:nonzero;fill:rgb(100%,84.3%,0%);fill-opacity:1;" d="M 87.222656 451.546875 C 87.222656 454.304688 83.085938 454.304688 83.085938 451.546875 C 83.085938 448.792969 87.222656 448.792969 87.222656 451.546875 "/>
<path style=" stroke:none;fill-rule:nonzero;fill:rgb(100%,84.3%,0%);fill-opacity:1;" d="M 87.222656 318.144531 C 87.222656 320.898438 83.085938 320.898438 83.085938 318.144531 C 83.085938 315.386719 87.222656 315.386719 87.222656 318.144531 "/>
<path style=" stroke:none;fill-rule:nonzero;fill:rgb(100%,84.3%,0%);fill-opacity:1;" d="M 83.324219 389.214844 C 83.324219 391.972656 79.1875 391.972656 79.1875 389.214844 C 79.1875 386.460938 83.324219 386.460938 83.324219 389.214844 "/>
<path style=" stroke:none;fill-rule:nonzero;fill:rgb(100%,84.3%,0%);fill-opacity:1;" d="M 87.222656 426.371094 C 87.222656 429.125 83.085938 429.125 83.085938 426.371094 C 83.085938 423.613281 87.222656 423.613281 87.222656 426.371094 "/>
<path style=" stroke:none;fill-rule:nonzero;fill:rgb(100%,84.3%,0%);fill-opacity:1;" d="M 87.222656 366.554688 C 87.222656 369.3125 83.085938 369.3125 83.085938 366.554688 C 83.085938 363.800781 87.222656 363.800781 87.222656 366.554688 "/>
</g>
</svg>
