<?xml version="1.0" encoding="UTF-8"?>
<svg xmlns="http://www.w3.org/2000/svg" xmlns:xlink="http://www.w3.org/1999/xlink" width="512pt" height="512pt" viewBox="0 0 512 512" version="1.1">
<g id="surface291">
<rect x="0" y="0" width="512" height="512" style="fill:rgb(26.7%,26.7%,26.7%);fill-opacity:1;stroke:none;"/>
<path style=" stroke:none;fill-rule:nonzero;fill:rgb(19.2%,38.8%,66.7%);fill-opacity:1;" d="M 6.398438 42.667969 L 70.382812 42.667969 L 70.382812 469.332031 L 6.398438 469.332031 Z M 6.398438 42.667969 "/>
<path style=" stroke:none;fill-rule:nonzero;fill:rgb(90.6%,14.9%,14.9%);fill-opacity:1;" d="M 265.328125 35.492188 C 265.328125 42.097656 259.972656 47.449219 253.367188 47.449219 C 246.765625 47.449219 241.410156 42.097656 241.410156 35.492188 C 241.410156 28.886719 246.765625 23.53125 253.367188 23.53125 C 259.972656 23.53125 265.328125 28.886719 265.328125 35.492188 "/>
<path style=" stroke:none;fill-rule:nonzero;fill:rgb(90.6%,14.9%,14.9%);fill-opacity:1;" d="M 409.445312 329.703125 C 409.445312 343.242188 398.46875 354.21875 384.925781 354.21875 C 371.386719 354.21875 360.410156 343.242188 360.410156 329.703125 C 360.410156 316.160156 371.386719 305.183594 384.925781 305.183594 C 398.46875 305.183594 409.445312 316.160156 409.445312 329.703125 "/>
<path style=" stroke:none;fill-rule:nonzero;fill:rgb(90.6%,14.9%,14.9%);fill-opacity:1;" d="M 377.453125 301 C 377.453125 312.722656 367.949219 322.226562 356.222656 322.226562 C 344.5 322.226562 334.996094 312.722656 334.996094 301 C 334.996094 289.273438 344.5 279.769531 356.222656 279.769531 C 367.949219 279.769531 377.453125 289.273438 377.453125 301 "/>
<path style=" stroke:none;fill-rule:nonzero;fill:rgb(90.6%,14.9%,14.9%);fill-opacity:1;" d="M 544.589844 353.921875 C 544.589844 363.167969 537.09375 370.664062 527.847656 370.664062 C 518.601562 370.664062 511.101562 363.167969 511.101562 353.921875 C 511.101562 344.671875 518.601562 337.175781 527.847656 337.175781 C 537.09375 337.175781 544.589844 344.671875 544.589844 353.921875 "/>
<path style=" stroke:none;fill-rule:nonzero;fill:rgb(90.6%,14.9%,14.9%);fill-opacity:1;" d="M 384.628906 346.746094 C 384.628906 357.644531 375.792969 366.480469 364.894531 366.480469 C 353.996094 366.480469 345.160156 357.644531 345.160156 346.746094 C 345.160156 335.847656 353.996094 327.011719 364.894531 327.011719 C 375.792969 327.011719 384.628906 335.847656 384.628906 346.746094 "/>
<path style=" stroke:none;fill-rule:nonzero;fill:rgb(100%,100%,100%);fill-opacity:1;" d="M 201.34375 124.589844 C 201.34375 126.585938 198.355469 126.585938 198.355469 124.589844 C 198.355469 122.597656 201.34375 122.597656 201.34375 124.589844 "/>
<path style=" stroke:none;fill-rule:nonzero;fill:rgb(100%,100%,100%);fill-opacity:1;" d="M 121.8125 65.089844 C 121.8125 67.085938 118.820312 67.085938 118.820312 65.089844 C 118.820312 63.097656 121.8125 63.097656 121.8125 65.089844 "/>
<path style=" stroke:none;fill-rule:nonzero;fill:rgb(100%,100%,100%);fill-opacity:1;" d="M 190.878906 202.628906 C 190.878906 204.621094 187.890625 204.621094 187.890625 202.628906 C 187.890625 200.636719 190.878906 200.636719 190.878906 202.628906 "/>
<path style=" stroke:none;fill-rule:nonzero;fill:rgb(100%,100%,100%);fill-opacity:1;" d="M 167.855469 410.730469 C 167.855469 412.722656 164.867188 412.722656 164.867188 410.730469 C 164.867188 408.738281 167.855469 408.738281 167.855469 410.730469 "/>
<path style=" stroke:none;fill-rule:nonzero;fill:rgb(100%,100%,100%);fill-opacity:1;" d="M 264.132812 347.941406 C 264.132812 349.933594 261.144531 349.933594 261.144531 347.941406 C 261.144531 345.949219 264.132812 345.949219 264.132812 347.941406 "/>
<path style=" stroke:none;fill-rule:nonzero;fill:rgb(100%,100%,100%);fill-opacity:1;" d="M 104.769531 230.136719 C 104.769531 232.128906 101.777344 232.128906 101.777344 230.136719 C 101.777344 228.144531 104.769531 228.144531 104.769531 230.136719 "/>
<path style=" stroke:none;fill-rule:nonzero;fill:rgb(100%,100%,100%);fill-opacity:1;" d="M 251.875 376.347656 C 251.875 378.339844 248.882812 378.339844 248.882812 376.347656 C 248.882812 374.351562 251.875 374.351562 251.875 376.347656 "/>
<path style=" stroke:none;fill-rule:nonzero;fill:rgb(100%,100%,100%);fill-opacity:1;" d="M 123.902344 436.445312 C 123.902344 438.4375 120.914062 438.4375 120.914062 436.445312 C 120.914062 434.449219 123.902344 434.449219 123.902344 436.445312 "/>
<path style=" stroke:none;fill-rule:nonzero;fill:rgb(100%,100%,100%);fill-opacity:1;" d="M 18.65625 38.78125 C 18.65625 40.773438 15.667969 40.773438 15.667969 38.78125 C 15.667969 36.785156 18.65625 36.785156 18.65625 38.78125 "/>
<path style=" stroke:none;fill-rule:nonzero;fill:rgb(100%,100%,100%);fill-opacity:1;" d="M 181.3125 207.414062 C 181.3125 209.40625 178.320312 209.40625 178.320312 207.414062 C 178.320312 205.417969 181.3125 205.417969 181.3125 207.414062 "/>
<path style=" stroke:none;fill-rule:nonzero;fill:rgb(100%,100%,100%);fill-opacity:1;" d="M 105.964844 323.125 C 105.964844 325.117188 102.972656 325.117188 102.972656 323.125 C 102.972656 321.132812 105.964844 321.132812 105.964844 323.125 "/>
<path style=" stroke:none;fill-rule:nonzero;fill:rgb(100%,100%,100%);fill-opacity:1;" d="M 284.164062 311.761719 C 284.164062 313.757812 281.175781 313.757812 281.175781 311.761719 C 281.175781 309.769531 284.164062 309.769531 284.164062 311.761719 "/>
<path style=" stroke:none;fill-rule:nonzero;fill:rgb(100%,100%,100%);fill-opacity:1;" d="M 208.519531 131.46875 C 208.519531 133.460938 205.53125 133.460938 205.53125 131.46875 C 205.53125 129.476562 208.519531 129.476562 208.519531 131.46875 "/>
<path style=" stroke:none;fill-rule:nonzero;fill:rgb(100%,100%,100%);fill-opacity:1;" d="M 512 26.222656 C 512 28.214844 509.011719 28.214844 509.011719 26.222656 C 509.011719 24.230469 512 24.230469 512 26.222656 "/>
<path style=" stroke:none;fill-rule:nonzero;fill:rgb(100%,100%,100%);fill-opacity:1;" d="M 78.15625 488.171875 C 78.15625 490.164062 75.167969 490.164062 75.167969 488.171875 C 75.167969 486.175781 78.15625 486.175781 78.15625 488.171875 "/>
<path style=" stroke:none;fill-rule:nonzero;fill:rgb(100%,100%,100%);fill-opacity:1;" d="M 217.789062 356.910156 C 217.789062 358.90625 214.796875 358.90625 214.796875 356.910156 C 214.796875 354.917969 217.789062 354.917969 217.789062 356.910156 "/>
<path style=" stroke:none;fill-rule:nonzero;fill:rgb(100%,100%,100%);fill-opacity:1;" d="M 89.519531 330.300781 C 89.519531 332.292969 86.527344 332.292969 86.527344 330.300781 C 86.527344 328.308594 89.519531 328.308594 89.519531 330.300781 "/>
<path style=" stroke:none;fill-rule:nonzero;fill:rgb(100%,100%,100%);fill-opacity:1;" d="M 126.59375 291.132812 C 126.59375 293.125 123.605469 293.125 123.605469 291.132812 C 123.605469 289.140625 126.59375 289.140625 126.59375 291.132812 "/>
<path style=" stroke:none;fill-rule:nonzero;fill:rgb(100%,100%,100%);fill-opacity:1;" d="M 125.699219 369.769531 C 125.699219 371.761719 122.707031 371.761719 122.707031 369.769531 C 122.707031 367.773438 125.699219 367.773438 125.699219 369.769531 "/>
<path style=" stroke:none;fill-rule:nonzero;fill:rgb(100%,100%,100%);fill-opacity:1;" d="M 298.21875 274.089844 C 298.21875 276.082031 295.226562 276.082031 295.226562 274.089844 C 295.226562 272.09375 298.21875 272.09375 298.21875 274.089844 "/>
<path style=" stroke:none;fill-rule:nonzero;fill:rgb(100%,100%,100%);fill-opacity:1;" d="M 334.097656 135.953125 C 334.097656 137.945312 331.109375 137.945312 331.109375 135.953125 C 331.109375 133.960938 334.097656 133.960938 334.097656 135.953125 "/>
<path style=" stroke:none;fill-rule:nonzero;fill:rgb(100%,100%,100%);fill-opacity:1;" d="M 138.855469 86.917969 C 138.855469 88.910156 135.863281 88.910156 135.863281 86.917969 C 135.863281 84.925781 138.855469 84.925781 138.855469 86.917969 "/>
<path style=" stroke:none;fill-rule:nonzero;fill:rgb(100%,100%,100%);fill-opacity:1;" d="M 169.351562 89.308594 C 169.351562 91.304688 166.359375 91.304688 166.359375 89.308594 C 166.359375 87.316406 169.351562 87.316406 169.351562 89.308594 "/>
<path style=" stroke:none;fill-rule:nonzero;fill:rgb(100%,100%,100%);fill-opacity:1;" d="M 187.890625 101.867188 C 187.890625 103.859375 184.898438 103.859375 184.898438 101.867188 C 184.898438 99.875 187.890625 99.875 187.890625 101.867188 "/>
<path style=" stroke:none;fill-rule:nonzero;fill:rgb(100%,100%,100%);fill-opacity:1;" d="M 270.710938 226.847656 C 270.710938 228.839844 267.722656 228.839844 267.722656 226.847656 C 267.722656 224.855469 270.710938 224.855469 270.710938 226.847656 "/>
<path style=" stroke:none;fill-rule:nonzero;fill:rgb(100%,100%,100%);fill-opacity:1;" d="M 285.0625 42.070312 C 285.0625 44.0625 282.070312 44.0625 282.070312 42.070312 C 282.070312 40.074219 285.0625 40.074219 285.0625 42.070312 "/>
<path style=" stroke:none;fill-rule:nonzero;fill:rgb(100%,100%,100%);fill-opacity:1;" d="M 77.558594 2.898438 C 77.558594 4.894531 74.570312 4.894531 74.570312 2.898438 C 74.570312 0.90625 77.558594 0.90625 77.558594 2.898438 "/>
<path style=" stroke:none;fill-rule:nonzero;fill:rgb(100%,100%,100%);fill-opacity:1;" d="M 485.988281 120.105469 C 485.988281 122.101562 482.996094 122.101562 482.996094 120.105469 C 482.996094 118.113281 485.988281 118.113281 485.988281 120.105469 "/>
<path style=" stroke:none;fill-rule:nonzero;fill:rgb(100%,100%,100%);fill-opacity:1;" d="M 298.21875 277.378906 C 298.21875 279.371094 295.226562 279.371094 295.226562 277.378906 C 295.226562 275.382812 298.21875 275.382812 298.21875 277.378906 "/>
<path style=" stroke:none;fill-rule:nonzero;fill:rgb(100%,100%,100%);fill-opacity:1;" d="M 115.53125 458.570312 C 115.53125 460.5625 112.542969 460.5625 112.542969 458.570312 C 112.542969 456.574219 115.53125 456.574219 115.53125 458.570312 "/>
<path style=" stroke:none;fill-rule:nonzero;fill:rgb(100%,100%,100%);fill-opacity:1;" d="M 134.070312 474.414062 C 134.070312 476.410156 131.078125 476.410156 131.078125 474.414062 C 131.078125 472.421875 134.070312 472.421875 134.070312 474.414062 "/>
<path style=" stroke:none;fill-rule:nonzero;fill:rgb(100%,100%,100%);fill-opacity:1;" d="M 489.875 4.992188 C 489.875 6.984375 486.882812 6.984375 486.882812 4.992188 C 486.882812 3 489.875 3 489.875 4.992188 "/>
<path style=" stroke:none;fill-rule:nonzero;fill:rgb(100%,100%,100%);fill-opacity:1;" d="M 81.746094 74.359375 C 81.746094 76.351562 78.753906 76.351562 78.753906 74.359375 C 78.753906 72.367188 81.746094 72.367188 81.746094 74.359375 "/>
<path style=" stroke:none;fill-rule:nonzero;fill:rgb(100%,100%,100%);fill-opacity:1;" d="M 459.675781 111.734375 C 459.675781 113.726562 456.6875 113.726562 456.6875 111.734375 C 456.6875 109.742188 459.675781 109.742188 459.675781 111.734375 "/>
<path style=" stroke:none;fill-rule:nonzero;fill:rgb(100%,100%,100%);fill-opacity:1;" d="M 503.328125 498.035156 C 503.328125 500.03125 500.339844 500.03125 500.339844 498.035156 C 500.339844 496.042969 503.328125 496.042969 503.328125 498.035156 "/>
<path style=" stroke:none;fill-rule:nonzero;fill:rgb(100%,100%,100%);fill-opacity:1;" d="M 378.347656 91.402344 C 378.347656 93.394531 375.359375 93.394531 375.359375 91.402344 C 375.359375 89.410156 378.347656 89.410156 378.347656 91.402344 "/>
<path style=" stroke:none;fill-rule:nonzero;fill:rgb(100%,100%,100%);fill-opacity:1;" d="M 360.109375 376.945312 C 360.109375 378.9375 357.121094 378.9375 357.121094 376.945312 C 357.121094 374.949219 360.109375 374.949219 360.109375 376.945312 "/>
<path style=" stroke:none;fill-rule:nonzero;fill:rgb(100%,100%,100%);fill-opacity:1;" d="M 403.464844 468.734375 C 403.464844 470.726562 400.476562 470.726562 400.476562 468.734375 C 400.476562 466.742188 403.464844 466.742188 403.464844 468.734375 "/>
<path style=" stroke:none;fill-rule:nonzero;fill:rgb(100%,100%,100%);fill-opacity:1;" d="M 488.679688 414.617188 C 488.679688 416.609375 485.6875 416.609375 485.6875 414.617188 C 485.6875 412.625 488.679688 412.625 488.679688 414.617188 "/>
<path style=" stroke:none;fill-rule:nonzero;fill:rgb(100%,100%,100%);fill-opacity:1;" d="M 511.402344 294.71875 C 511.402344 296.714844 508.410156 296.714844 508.410156 294.71875 C 508.410156 292.726562 511.402344 292.726562 511.402344 294.71875 "/>
<path style=" stroke:none;fill-rule:nonzero;fill:rgb(100%,100%,100%);fill-opacity:1;" d="M 445.324219 210.703125 C 445.324219 212.695312 442.335938 212.695312 442.335938 210.703125 C 442.335938 208.707031 445.324219 208.707031 445.324219 210.703125 "/>
<path style=" stroke:none;fill-rule:nonzero;fill:rgb(100%,100%,100%);fill-opacity:1;" d="M 217.789062 435.246094 C 217.789062 437.242188 214.796875 437.242188 214.796875 435.246094 C 214.796875 433.253906 217.789062 433.253906 217.789062 435.246094 "/>
<path style=" stroke:none;fill-rule:nonzero;fill:rgb(100%,100%,100%);fill-opacity:1;" d="M 174.136719 264.820312 C 174.136719 266.8125 171.144531 266.8125 171.144531 264.820312 C 171.144531 262.828125 174.136719 262.828125 174.136719 264.820312 "/>
<path style=" stroke:none;fill-rule:nonzero;fill:rgb(100%,100%,100%);fill-opacity:1;" d="M 95.796875 106.054688 C 95.796875 108.046875 92.808594 108.046875 92.808594 106.054688 C 92.808594 104.0625 95.796875 104.0625 95.796875 106.054688 "/>
<path style=" stroke:none;fill-rule:nonzero;fill:rgb(100%,100%,100%);fill-opacity:1;" d="M 149.617188 1.703125 C 149.617188 3.699219 146.628906 3.699219 146.628906 1.703125 C 146.628906 -0.289062 149.617188 -0.289062 149.617188 1.703125 "/>
<path style=" stroke:none;fill-rule:nonzero;fill:rgb(100%,100%,100%);fill-opacity:1;" d="M 267.121094 81.535156 C 267.121094 83.53125 264.132812 83.53125 264.132812 81.535156 C 264.132812 79.542969 267.121094 79.542969 267.121094 81.535156 "/>
<path style=" stroke:none;fill-rule:nonzero;fill:rgb(100%,100%,100%);fill-opacity:1;" d="M 329.613281 412.523438 C 329.613281 414.515625 326.621094 414.515625 326.621094 412.523438 C 326.621094 410.53125 329.613281 410.53125 329.613281 412.523438 "/>
<path style=" stroke:none;fill-rule:nonzero;fill:rgb(100%,100%,100%);fill-opacity:1;" d="M 288.351562 38.183594 C 288.351562 40.175781 285.359375 40.175781 285.359375 38.183594 C 285.359375 36.1875 288.351562 36.1875 288.351562 38.183594 "/>
<path style=" stroke:none;fill-rule:nonzero;fill:rgb(100%,100%,100%);fill-opacity:1;" d="M 379.246094 216.382812 C 379.246094 218.375 376.257812 218.375 376.257812 216.382812 C 376.257812 214.390625 379.246094 214.390625 379.246094 216.382812 "/>
<path style=" stroke:none;fill-rule:nonzero;fill:rgb(100%,100%,100%);fill-opacity:1;" d="M 82.941406 424.484375 C 82.941406 426.476562 79.949219 426.476562 79.949219 424.484375 C 79.949219 422.492188 82.941406 422.492188 82.941406 424.484375 "/>
<path style=" stroke:none;fill-rule:nonzero;fill:rgb(100%,100%,100%);fill-opacity:1;" d="M 342.769531 486.375 C 342.769531 488.371094 339.777344 488.371094 339.777344 486.375 C 339.777344 484.382812 342.769531 484.382812 342.769531 486.375 "/>
<path style=" stroke:none;fill-rule:nonzero;fill:rgb(100%,100%,100%);fill-opacity:1;" d="M 266.226562 332.394531 C 266.226562 334.386719 263.234375 334.386719 263.234375 332.394531 C 263.234375 330.398438 266.226562 330.398438 266.226562 332.394531 "/>
<path style=" stroke:none;fill-rule:nonzero;fill:rgb(100%,100%,100%);fill-opacity:1;" d="M 308.382812 312.359375 C 308.382812 314.355469 305.394531 314.355469 305.394531 312.359375 C 305.394531 310.367188 308.382812 310.367188 308.382812 312.359375 "/>
<path style=" stroke:none;fill-rule:nonzero;fill:rgb(100%,100%,100%);fill-opacity:1;" d="M 111.945312 412.523438 C 111.945312 414.515625 108.953125 414.515625 108.953125 412.523438 C 108.953125 410.53125 111.945312 410.53125 111.945312 412.523438 "/>
<path style=" stroke:none;fill-rule:nonzero;fill:rgb(100%,100%,100%);fill-opacity:1;" d="M 199.847656 281.863281 C 199.847656 283.855469 196.859375 283.855469 196.859375 281.863281 C 196.859375 279.871094 199.847656 279.871094 199.847656 281.863281 "/>
<path style=" stroke:none;fill-rule:nonzero;fill:rgb(100%,100%,100%);fill-opacity:1;" d="M 298.816406 437.042969 C 298.816406 439.035156 295.824219 439.035156 295.824219 437.042969 C 295.824219 435.046875 298.816406 435.046875 298.816406 437.042969 "/>
<path style=" stroke:none;fill-rule:nonzero;fill:rgb(100%,100%,100%);fill-opacity:1;" d="M 355.925781 378.140625 C 355.925781 380.132812 352.933594 380.132812 352.933594 378.140625 C 352.933594 376.148438 355.925781 376.148438 355.925781 378.140625 "/>
<path style=" stroke:none;fill-rule:nonzero;fill:rgb(100%,100%,100%);fill-opacity:1;" d="M 492.265625 385.914062 C 492.265625 387.90625 489.277344 387.90625 489.277344 385.914062 C 489.277344 383.921875 492.265625 383.921875 492.265625 385.914062 "/>
<path style=" stroke:none;fill-rule:nonzero;fill:rgb(100%,100%,100%);fill-opacity:1;" d="M 453.695312 407.140625 C 453.695312 409.136719 450.707031 409.136719 450.707031 407.140625 C 450.707031 405.148438 453.695312 405.148438 453.695312 407.140625 "/>
<path style=" stroke:none;fill-rule:nonzero;fill:rgb(100%,100%,100%);fill-opacity:1;" d="M 355.324219 186.183594 C 355.324219 188.179688 352.335938 188.179688 352.335938 186.183594 C 352.335938 184.191406 355.324219 184.191406 355.324219 186.183594 "/>
<path style=" stroke:none;fill-rule:nonzero;fill:rgb(100%,84.3%,0%);fill-opacity:1;" d="M 10.882812 206.21875 C 10.882812 208.210938 7.894531 208.210938 7.894531 206.21875 C 7.894531 204.222656 10.882812 204.222656 10.882812 206.21875 "/>
<path style=" stroke:none;fill-rule:nonzero;fill:rgb(100%,84.3%,0%);fill-opacity:1;" d="M 10.882812 143.429688 C 10.882812 145.421875 7.894531 145.421875 7.894531 143.429688 C 7.894531 141.433594 10.882812 141.433594 10.882812 143.429688 "/>
<path style=" stroke:none;fill-rule:nonzero;fill:rgb(100%,84.3%,0%);fill-opacity:1;" d="M 68.890625 89.609375 C 68.890625 91.601562 65.898438 91.601562 65.898438 89.609375 C 65.898438 87.617188 68.890625 87.617188 68.890625 89.609375 "/>
<path style=" stroke:none;fill-rule:nonzero;fill:rgb(100%,84.3%,0%);fill-opacity:1;" d="M 20.152344 45.65625 C 20.152344 47.648438 17.160156 47.648438 17.160156 45.65625 C 17.160156 43.664062 20.152344 43.664062 20.152344 45.65625 "/>
<path style=" stroke:none;fill-rule:nonzero;fill:rgb(100%,84.3%,0%);fill-opacity:1;" d="M 68.890625 74.660156 C 68.890625 76.652344 65.898438 76.652344 65.898438 74.660156 C 65.898438 72.664062 68.890625 72.664062 68.890625 74.660156 "/>
<path style=" stroke:none;fill-rule:nonzero;fill:rgb(100%,84.3%,0%);fill-opacity:1;" d="M 10.882812 140.4375 C 10.882812 142.429688 7.894531 142.429688 7.894531 140.4375 C 7.894531 138.445312 10.882812 138.445312 10.882812 140.4375 "/>
<path style=" stroke:none;fill-rule:nonzero;fill:rgb(100%,84.3%,0%);fill-opacity:1;" d="M 17.160156 45.65625 C 17.160156 47.648438 14.171875 47.648438 14.171875 45.65625 C 14.171875 43.664062 17.160156 43.664062 17.160156 45.65625 "/>
<path style=" stroke:none;fill-rule:nonzero;fill:rgb(100%,84.3%,0%);fill-opacity:1;" d="M 10.882812 137.449219 C 10.882812 139.441406 7.894531 139.441406 7.894531 137.449219 C 7.894531 135.453125 10.882812 135.453125 10.882812 137.449219 "/>
<path style=" stroke:none;fill-rule:nonzero;fill:rgb(100%,84.3%,0%);fill-opacity:1;" d="M 23.140625 45.65625 C 23.140625 47.648438 20.152344 47.648438 20.152344 45.65625 C 20.152344 43.664062 23.140625 43.664062 23.140625 45.65625 "/>
<path style=" stroke:none;fill-rule:nonzero;fill:rgb(100%,84.3%,0%);fill-opacity:1;" d="M 10.882812 146.417969 C 10.882812 148.410156 7.894531 148.410156 7.894531 146.417969 C 7.894531 144.425781 10.882812 144.425781 10.882812 146.417969 "/>
<path style=" stroke:none;fill-rule:nonzero;fill:rgb(100%,84.3%,0%);fill-opacity:1;" d="M 68.890625 83.628906 C 68.890625 85.621094 65.898438 85.621094 65.898438 83.628906 C 65.898438 81.636719 68.890625 81.636719 68.890625 83.628906 "/>
<path style=" stroke:none;fill-rule:nonzero;fill:rgb(100%,84.3%,0%);fill-opacity:1;" d="M 10.882812 134.457031 C 10.882812 136.453125 7.894531 136.453125 7.894531 134.457031 C 7.894531 132.464844 10.882812 132.464844 10.882812 134.457031 "/>
<path style=" stroke:none;fill-rule:nonzero;fill:rgb(100%,84.3%,0%);fill-opacity:1;" d="M 14.171875 45.65625 C 14.171875 47.648438 11.183594 47.648438 11.183594 45.65625 C 11.183594 43.664062 14.171875 43.664062 14.171875 45.65625 "/>
<path style=" stroke:none;fill-rule:nonzero;fill:rgb(100%,84.3%,0%);fill-opacity:1;" d="M 68.890625 71.667969 C 68.890625 73.664062 65.898438 73.664062 65.898438 71.667969 C 65.898438 69.675781 68.890625 69.675781 68.890625 71.667969 "/>
<path style=" stroke:none;fill-rule:nonzero;fill:rgb(100%,84.3%,0%);fill-opacity:1;" d="M 68.890625 62.699219 C 68.890625 64.691406 65.898438 64.691406 65.898438 62.699219 C 65.898438 60.707031 68.890625 60.707031 68.890625 62.699219 "/>
<path style=" stroke:none;fill-rule:nonzero;fill:rgb(100%,84.3%,0%);fill-opacity:1;" d="M 10.882812 149.40625 C 10.882812 151.402344 7.894531 151.402344 7.894531 149.40625 C 7.894531 147.414062 10.882812 147.414062 10.882812 149.40625 "/>
<path style=" stroke:none;fill-rule:nonzero;fill:rgb(100%,84.3%,0%);fill-opacity:1;" d="M 18.65625 48.25 C 18.65625 50.242188 15.667969 50.242188 15.667969 48.25 C 15.667969 46.253906 18.65625 46.253906 18.65625 48.25 "/>
<path style=" stroke:none;fill-rule:nonzero;fill:rgb(100%,84.3%,0%);fill-opacity:1;" d="M 68.890625 101.570312 C 68.890625 103.5625 65.898438 103.5625 65.898438 101.570312 C 65.898438 99.574219 68.890625 99.574219 68.890625 101.570312 "/>
<path style=" stroke:none;fill-rule:nonzero;fill:rgb(100%,84.3%,0%);fill-opacity:1;" d="M 10.882812 131.46875 C 10.882812 133.460938 7.894531 133.460938 7.894531 131.46875 C 7.894531 129.476562 10.882812 129.476562 10.882812 131.46875 "/>
<path style=" stroke:none;fill-rule:nonzero;fill:rgb(100%,84.3%,0%);fill-opacity:1;" d="M 10.882812 152.398438 C 10.882812 154.390625 7.894531 154.390625 7.894531 152.398438 C 7.894531 150.40625 10.882812 150.40625 10.882812 152.398438 "/>
<path style=" stroke:none;fill-rule:nonzero;fill:rgb(100%,84.3%,0%);fill-opacity:1;" d="M 26.132812 45.65625 C 26.132812 47.648438 23.140625 47.648438 23.140625 45.65625 C 23.140625 43.664062 26.132812 43.664062 26.132812 45.65625 "/>
<path style=" stroke:none;fill-rule:nonzero;fill:rgb(100%,84.3%,0%);fill-opacity:1;" d="M 10.882812 155.386719 C 10.882812 157.382812 7.894531 157.382812 7.894531 155.386719 C 7.894531 153.394531 10.882812 153.394531 10.882812 155.386719 "/>
<path style=" stroke:none;fill-rule:nonzero;fill:rgb(100%,84.3%,0%);fill-opacity:1;" d="M 10.882812 200.238281 C 10.882812 202.230469 7.894531 202.230469 7.894531 200.238281 C 7.894531 198.242188 10.882812 198.242188 10.882812 200.238281 "/>
<path style=" stroke:none;fill-rule:nonzero;fill:rgb(100%,84.3%,0%);fill-opacity:1;" d="M 68.890625 53.730469 C 68.890625 55.722656 65.898438 55.722656 65.898438 53.730469 C 65.898438 51.738281 68.890625 51.738281 68.890625 53.730469 "/>
<path style=" stroke:none;fill-rule:nonzero;fill:rgb(100%,84.3%,0%);fill-opacity:1;" d="M 10.882812 45.65625 C 10.882812 47.648438 7.894531 47.648438 7.894531 45.65625 C 7.894531 43.664062 10.882812 43.664062 10.882812 45.65625 "/>
<path style=" stroke:none;fill-rule:nonzero;fill:rgb(100%,84.3%,0%);fill-opacity:1;" d="M 29.121094 45.65625 C 29.121094 47.648438 26.132812 47.648438 26.132812 45.65625 C 26.132812 43.664062 29.121094 43.664062 29.121094 45.65625 "/>
<path style=" stroke:none;fill-rule:nonzero;fill:rgb(100%,84.3%,0%);fill-opacity:1;" d="M 21.648438 48.25 C 21.648438 50.242188 18.65625 50.242188 18.65625 48.25 C 18.65625 46.253906 21.648438 46.253906 21.648438 48.25 "/>
<path style=" stroke:none;fill-rule:nonzero;fill:rgb(100%,84.3%,0%);fill-opacity:1;" d="M 10.882812 128.476562 C 10.882812 130.472656 7.894531 130.472656 7.894531 128.476562 C 7.894531 126.484375 10.882812 126.484375 10.882812 128.476562 "/>
<path style=" stroke:none;fill-rule:nonzero;fill:rgb(100%,84.3%,0%);fill-opacity:1;" d="M 68.890625 92.597656 C 68.890625 94.59375 65.898438 94.59375 65.898438 92.597656 C 65.898438 90.605469 68.890625 90.605469 68.890625 92.597656 "/>
<path style=" stroke:none;fill-rule:nonzero;fill:rgb(100%,84.3%,0%);fill-opacity:1;" d="M 12.675781 48.25 C 12.675781 50.242188 9.6875 50.242188 9.6875 48.25 C 9.6875 46.253906 12.675781 46.253906 12.675781 48.25 "/>
<path style=" stroke:none;fill-rule:nonzero;fill:rgb(100%,84.3%,0%);fill-opacity:1;" d="M 68.890625 98.578125 C 68.890625 100.574219 65.898438 100.574219 65.898438 98.578125 C 65.898438 96.585938 68.890625 96.585938 68.890625 98.578125 "/>
<path style=" stroke:none;fill-rule:nonzero;fill:rgb(100%,84.3%,0%);fill-opacity:1;" d="M 10.882812 158.378906 C 10.882812 160.371094 7.894531 160.371094 7.894531 158.378906 C 7.894531 156.382812 10.882812 156.382812 10.882812 158.378906 "/>
<path style=" stroke:none;fill-rule:nonzero;fill:rgb(100%,84.3%,0%);fill-opacity:1;" d="M 68.890625 77.648438 C 68.890625 79.640625 65.898438 79.640625 65.898438 77.648438 C 65.898438 75.65625 68.890625 75.65625 68.890625 77.648438 "/>
<path style=" stroke:none;fill-rule:nonzero;fill:rgb(100%,84.3%,0%);fill-opacity:1;" d="M 13.476562 144.921875 C 13.476562 146.917969 10.484375 146.917969 10.484375 144.921875 C 10.484375 142.929688 13.476562 142.929688 13.476562 144.921875 "/>
<path style=" stroke:none;fill-rule:nonzero;fill:rgb(100%,84.3%,0%);fill-opacity:1;" d="M 68.890625 68.679688 C 68.890625 70.671875 65.898438 70.671875 65.898438 68.679688 C 65.898438 66.6875 68.890625 66.6875 68.890625 68.679688 "/>
<path style=" stroke:none;fill-rule:nonzero;fill:rgb(100%,84.3%,0%);fill-opacity:1;" d="M 68.890625 80.640625 C 68.890625 82.632812 65.898438 82.632812 65.898438 80.640625 C 65.898438 78.644531 68.890625 78.644531 68.890625 80.640625 "/>
<path style=" stroke:none;fill-rule:nonzero;fill:rgb(100%,84.3%,0%);fill-opacity:1;" d="M 15.667969 48.25 C 15.667969 50.242188 12.675781 50.242188 12.675781 48.25 C 12.675781 46.253906 15.667969 46.253906 15.667969 48.25 "/>
<path style=" stroke:none;fill-rule:nonzero;fill:rgb(100%,84.3%,0%);fill-opacity:1;" d="M 68.890625 65.6875 C 68.890625 67.683594 65.898438 67.683594 65.898438 65.6875 C 65.898438 63.695312 68.890625 63.695312 68.890625 65.6875 "/>
<path style=" stroke:none;fill-rule:nonzero;fill:rgb(100%,84.3%,0%);fill-opacity:1;" d="M 68.890625 322.824219 C 68.890625 324.820312 65.898438 324.820312 65.898438 322.824219 C 65.898438 320.832031 68.890625 320.832031 68.890625 322.824219 "/>
<path style=" stroke:none;fill-rule:nonzero;fill:rgb(100%,84.3%,0%);fill-opacity:1;" d="M 68.890625 334.785156 C 68.890625 336.777344 65.898438 336.777344 65.898438 334.785156 C 65.898438 332.792969 68.890625 332.792969 68.890625 334.785156 "/>
<path style=" stroke:none;fill-rule:nonzero;fill:rgb(100%,84.3%,0%);fill-opacity:1;" d="M 10.882812 161.367188 C 10.882812 163.359375 7.894531 163.359375 7.894531 161.367188 C 7.894531 159.375 10.882812 159.375 10.882812 161.367188 "/>
<path style=" stroke:none;fill-rule:nonzero;fill:rgb(100%,84.3%,0%);fill-opacity:1;" d="M 13.476562 138.941406 C 13.476562 140.9375 10.484375 140.9375 10.484375 138.941406 C 10.484375 136.949219 13.476562 136.949219 13.476562 138.941406 "/>
<path style=" stroke:none;fill-rule:nonzero;fill:rgb(100%,84.3%,0%);fill-opacity:1;" d="M 10.882812 176.316406 C 10.882812 178.3125 7.894531 178.3125 7.894531 176.316406 C 7.894531 174.324219 10.882812 174.324219 10.882812 176.316406 "/>
<path style=" stroke:none;fill-rule:nonzero;fill:rgb(100%,84.3%,0%);fill-opacity:1;" d="M 10.882812 203.226562 C 10.882812 205.21875 7.894531 205.21875 7.894531 203.226562 C 7.894531 201.234375 10.882812 201.234375 10.882812 203.226562 "/>
<path style=" stroke:none;fill-rule:nonzero;fill:rgb(100%,84.3%,0%);fill-opacity:1;" d="M 68.890625 331.796875 C 68.890625 333.789062 65.898438 333.789062 65.898438 331.796875 C 65.898438 329.800781 68.890625 329.800781 68.890625 331.796875 "/>
<path style=" stroke:none;fill-rule:nonzero;fill:rgb(100%,84.3%,0%);fill-opacity:1;" d="M 13.476562 132.964844 C 13.476562 134.957031 10.484375 134.957031 10.484375 132.964844 C 10.484375 130.96875 13.476562 130.96875 13.476562 132.964844 "/>
<path style=" stroke:none;fill-rule:nonzero;fill:rgb(100%,84.3%,0%);fill-opacity:1;" d="M 13.476562 147.914062 C 13.476562 149.90625 10.484375 149.90625 10.484375 147.914062 C 10.484375 145.917969 13.476562 145.917969 13.476562 147.914062 "/>
<path style=" stroke:none;fill-rule:nonzero;fill:rgb(100%,84.3%,0%);fill-opacity:1;" d="M 13.476562 153.894531 C 13.476562 155.886719 10.484375 155.886719 10.484375 153.894531 C 10.484375 151.898438 13.476562 151.898438 13.476562 153.894531 "/>
<path style=" stroke:none;fill-rule:nonzero;fill:rgb(100%,84.3%,0%);fill-opacity:1;" d="M 10.882812 179.308594 C 10.882812 181.300781 7.894531 181.300781 7.894531 179.308594 C 7.894531 177.316406 10.882812 177.316406 10.882812 179.308594 "/>
<path style=" stroke:none;fill-rule:nonzero;fill:rgb(100%,84.3%,0%);fill-opacity:1;" d="M 13.476562 135.953125 C 13.476562 137.945312 10.484375 137.945312 10.484375 135.953125 C 10.484375 133.960938 13.476562 133.960938 13.476562 135.953125 "/>
<path style=" stroke:none;fill-rule:nonzero;fill:rgb(100%,84.3%,0%);fill-opacity:1;" d="M 68.890625 328.804688 C 68.890625 330.796875 65.898438 330.796875 65.898438 328.804688 C 65.898438 326.8125 68.890625 326.8125 68.890625 328.804688 "/>
<path style=" stroke:none;fill-rule:nonzero;fill:rgb(100%,84.3%,0%);fill-opacity:1;" d="M 10.882812 182.296875 C 10.882812 184.292969 7.894531 184.292969 7.894531 182.296875 C 7.894531 180.304688 10.882812 180.304688 10.882812 182.296875 "/>
<path style=" stroke:none;fill-rule:nonzero;fill:rgb(100%,84.3%,0%);fill-opacity:1;" d="M 68.890625 59.710938 C 68.890625 61.703125 65.898438 61.703125 65.898438 59.710938 C 65.898438 57.714844 68.890625 57.714844 68.890625 59.710938 "/>
<path style=" stroke:none;fill-rule:nonzero;fill:rgb(100%,84.3%,0%);fill-opacity:1;" d="M 68.890625 95.589844 C 68.890625 97.582031 65.898438 97.582031 65.898438 95.589844 C 65.898438 93.59375 68.890625 93.59375 68.890625 95.589844 "/>
<path style=" stroke:none;fill-rule:nonzero;fill:rgb(100%,84.3%,0%);fill-opacity:1;" d="M 24.636719 48.25 C 24.636719 50.242188 21.648438 50.242188 21.648438 48.25 C 21.648438 46.253906 24.636719 46.253906 24.636719 48.25 "/>
<path style=" stroke:none;fill-rule:nonzero;fill:rgb(100%,84.3%,0%);fill-opacity:1;" d="M 13.476562 150.902344 C 13.476562 152.894531 10.484375 152.894531 10.484375 150.902344 C 10.484375 148.910156 13.476562 148.910156 13.476562 150.902344 "/>
<path style=" stroke:none;fill-rule:nonzero;fill:rgb(100%,84.3%,0%);fill-opacity:1;" d="M 65.003906 45.65625 C 65.003906 47.648438 62.011719 47.648438 62.011719 45.65625 C 62.011719 43.664062 65.003906 43.664062 65.003906 45.65625 "/>
<path style=" stroke:none;fill-rule:nonzero;fill:rgb(100%,84.3%,0%);fill-opacity:1;" d="M 68.890625 56.71875 C 68.890625 58.710938 65.898438 58.710938 65.898438 56.71875 C 65.898438 54.726562 68.890625 54.726562 68.890625 56.71875 "/>
<path style=" stroke:none;fill-rule:nonzero;fill:rgb(100%,84.3%,0%);fill-opacity:1;" d="M 68.890625 86.617188 C 68.890625 88.613281 65.898438 88.613281 65.898438 86.617188 C 65.898438 84.625 68.890625 84.625 68.890625 86.617188 "/>
<path style=" stroke:none;fill-rule:nonzero;fill:rgb(100%,84.3%,0%);fill-opacity:1;" d="M 20.152344 50.839844 C 20.152344 52.835938 17.160156 52.835938 17.160156 50.839844 C 17.160156 48.847656 20.152344 48.847656 20.152344 50.839844 "/>
<path style=" stroke:none;fill-rule:nonzero;fill:rgb(100%,84.3%,0%);fill-opacity:1;" d="M 68.890625 45.65625 C 68.890625 47.648438 65.898438 47.648438 65.898438 45.65625 C 65.898438 43.664062 68.890625 43.664062 68.890625 45.65625 "/>
<path style=" stroke:none;fill-rule:nonzero;fill:rgb(100%,84.3%,0%);fill-opacity:1;" d="M 10.882812 209.207031 C 10.882812 211.199219 7.894531 211.199219 7.894531 209.207031 C 7.894531 207.214844 10.882812 207.214844 10.882812 209.207031 "/>
<path style=" stroke:none;fill-rule:nonzero;fill:rgb(100%,84.3%,0%);fill-opacity:1;" d="M 68.890625 325.816406 C 68.890625 327.808594 65.898438 327.808594 65.898438 325.816406 C 65.898438 323.820312 68.890625 323.820312 68.890625 325.816406 "/>
<path style=" stroke:none;fill-rule:nonzero;fill:rgb(100%,84.3%,0%);fill-opacity:1;" d="M 13.476562 141.933594 C 13.476562 143.925781 10.484375 143.925781 10.484375 141.933594 C 10.484375 139.941406 13.476562 139.941406 13.476562 141.933594 "/>
<path style=" stroke:none;fill-rule:nonzero;fill:rgb(100%,84.3%,0%);fill-opacity:1;" d="M 10.882812 173.328125 C 10.882812 175.320312 7.894531 175.320312 7.894531 173.328125 C 7.894531 171.335938 10.882812 171.335938 10.882812 173.328125 "/>
<path style=" stroke:none;fill-rule:nonzero;fill:rgb(100%,84.3%,0%);fill-opacity:1;" d="M 10.882812 170.339844 C 10.882812 172.332031 7.894531 172.332031 7.894531 170.339844 C 7.894531 168.34375 10.882812 168.34375 10.882812 170.339844 "/>
<path style=" stroke:none;fill-rule:nonzero;fill:rgb(100%,84.3%,0%);fill-opacity:1;" d="M 10.882812 212.195312 C 10.882812 214.191406 7.894531 214.191406 7.894531 212.195312 C 7.894531 210.203125 10.882812 210.203125 10.882812 212.195312 "/>
<path style=" stroke:none;fill-rule:nonzero;fill:rgb(100%,84.3%,0%);fill-opacity:1;" d="M 10.882812 110.539062 C 10.882812 112.53125 7.894531 112.53125 7.894531 110.539062 C 7.894531 108.546875 10.882812 108.546875 10.882812 110.539062 "/>
<path style=" stroke:none;fill-rule:nonzero;fill:rgb(100%,84.3%,0%);fill-opacity:1;" d="M 10.882812 215.1875 C 10.882812 217.179688 7.894531 217.179688 7.894531 215.1875 C 7.894531 213.195312 10.882812 213.195312 10.882812 215.1875 "/>
<path style=" stroke:none;fill-rule:nonzero;fill:rgb(100%,84.3%,0%);fill-opacity:1;" d="M 10.882812 113.527344 C 10.882812 115.523438 7.894531 115.523438 7.894531 113.527344 C 7.894531 111.535156 10.882812 111.535156 10.882812 113.527344 "/>
<path style=" stroke:none;fill-rule:nonzero;fill:rgb(100%,84.3%,0%);fill-opacity:1;" d="M 10.882812 218.175781 C 10.882812 220.171875 7.894531 220.171875 7.894531 218.175781 C 7.894531 216.183594 10.882812 216.183594 10.882812 218.175781 "/>
<path style=" stroke:none;fill-rule:nonzero;fill:rgb(100%,84.3%,0%);fill-opacity:1;" d="M 10.882812 167.347656 C 10.882812 169.339844 7.894531 169.339844 7.894531 167.347656 C 7.894531 165.355469 10.882812 165.355469 10.882812 167.347656 "/>
<path style=" stroke:none;fill-rule:nonzero;fill:rgb(100%,84.3%,0%);fill-opacity:1;" d="M 10.882812 107.550781 C 10.882812 109.542969 7.894531 109.542969 7.894531 107.550781 C 7.894531 105.554688 10.882812 105.554688 10.882812 107.550781 "/>
<path style=" stroke:none;fill-rule:nonzero;fill:rgb(100%,84.3%,0%);fill-opacity:1;" d="M 10.882812 89.609375 C 10.882812 91.601562 7.894531 91.601562 7.894531 89.609375 C 7.894531 87.617188 10.882812 87.617188 10.882812 89.609375 "/>
<path style=" stroke:none;fill-rule:nonzero;fill:rgb(100%,84.3%,0%);fill-opacity:1;" d="M 10.882812 221.167969 C 10.882812 223.160156 7.894531 223.160156 7.894531 221.167969 C 7.894531 219.171875 10.882812 219.171875 10.882812 221.167969 "/>
<path style=" stroke:none;fill-rule:nonzero;fill:rgb(100%,84.3%,0%);fill-opacity:1;" d="M 10.882812 116.519531 C 10.882812 118.511719 7.894531 118.511719 7.894531 116.519531 C 7.894531 114.527344 10.882812 114.527344 10.882812 116.519531 "/>
<path style=" stroke:none;fill-rule:nonzero;fill:rgb(100%,84.3%,0%);fill-opacity:1;" d="M 10.882812 86.617188 C 10.882812 88.613281 7.894531 88.613281 7.894531 86.617188 C 7.894531 84.625 10.882812 84.625 10.882812 86.617188 "/>
<path style=" stroke:none;fill-rule:nonzero;fill:rgb(100%,84.3%,0%);fill-opacity:1;" d="M 10.882812 104.558594 C 10.882812 106.550781 7.894531 106.550781 7.894531 104.558594 C 7.894531 102.566406 10.882812 102.566406 10.882812 104.558594 "/>
<path style=" stroke:none;fill-rule:nonzero;fill:rgb(100%,84.3%,0%);fill-opacity:1;" d="M 10.882812 185.289062 C 10.882812 187.28125 7.894531 187.28125 7.894531 185.289062 C 7.894531 183.292969 10.882812 183.292969 10.882812 185.289062 "/>
<path style=" stroke:none;fill-rule:nonzero;fill:rgb(100%,84.3%,0%);fill-opacity:1;" d="M 10.882812 164.359375 C 10.882812 166.351562 7.894531 166.351562 7.894531 164.359375 C 7.894531 162.363281 10.882812 162.363281 10.882812 164.359375 "/>
<path style=" stroke:none;fill-rule:nonzero;fill:rgb(100%,84.3%,0%);fill-opacity:1;" d="M 10.882812 119.507812 C 10.882812 121.503906 7.894531 121.503906 7.894531 119.507812 C 7.894531 117.515625 10.882812 117.515625 10.882812 119.507812 "/>
<path style=" stroke:none;fill-rule:nonzero;fill:rgb(100%,84.3%,0%);fill-opacity:1;" d="M 10.882812 83.628906 C 10.882812 85.621094 7.894531 85.621094 7.894531 83.628906 C 7.894531 81.636719 10.882812 81.636719 10.882812 83.628906 "/>
<path style=" stroke:none;fill-rule:nonzero;fill:rgb(100%,84.3%,0%);fill-opacity:1;" d="M 10.882812 197.246094 C 10.882812 199.242188 7.894531 199.242188 7.894531 197.246094 C 7.894531 195.253906 10.882812 195.253906 10.882812 197.246094 "/>
<path style=" stroke:none;fill-rule:nonzero;fill:rgb(100%,84.3%,0%);fill-opacity:1;" d="M 10.882812 188.277344 C 10.882812 190.269531 7.894531 190.269531 7.894531 188.277344 C 7.894531 186.285156 10.882812 186.285156 10.882812 188.277344 "/>
<path style=" stroke:none;fill-rule:nonzero;fill:rgb(100%,84.3%,0%);fill-opacity:1;" d="M 68.890625 233.128906 C 68.890625 235.121094 65.898438 235.121094 65.898438 233.128906 C 65.898438 231.132812 68.890625 231.132812 68.890625 233.128906 "/>
<path style=" stroke:none;fill-rule:nonzero;fill:rgb(100%,84.3%,0%);fill-opacity:1;" d="M 68.890625 230.136719 C 68.890625 232.128906 65.898438 232.128906 65.898438 230.136719 C 65.898438 228.144531 68.890625 228.144531 68.890625 230.136719 "/>
<path style=" stroke:none;fill-rule:nonzero;fill:rgb(100%,84.3%,0%);fill-opacity:1;" d="M 68.890625 236.117188 C 68.890625 238.109375 65.898438 238.109375 65.898438 236.117188 C 65.898438 234.125 68.890625 234.125 68.890625 236.117188 "/>
<path style=" stroke:none;fill-rule:nonzero;fill:rgb(100%,84.3%,0%);fill-opacity:1;" d="M 68.890625 227.148438 C 68.890625 229.140625 65.898438 229.140625 65.898438 227.148438 C 65.898438 225.152344 68.890625 225.152344 68.890625 227.148438 "/>
<path style=" stroke:none;fill-rule:nonzero;fill:rgb(100%,84.3%,0%);fill-opacity:1;" d="M 68.890625 239.105469 C 68.890625 241.101562 65.898438 241.101562 65.898438 239.105469 C 65.898438 237.113281 68.890625 237.113281 68.890625 239.105469 "/>
<path style=" stroke:none;fill-rule:nonzero;fill:rgb(100%,84.3%,0%);fill-opacity:1;" d="M 10.882812 80.640625 C 10.882812 82.632812 7.894531 82.632812 7.894531 80.640625 C 7.894531 78.644531 10.882812 78.644531 10.882812 80.640625 "/>
<path style=" stroke:none;fill-rule:nonzero;fill:rgb(100%,84.3%,0%);fill-opacity:1;" d="M 68.890625 224.15625 C 68.890625 226.148438 65.898438 226.148438 65.898438 224.15625 C 65.898438 222.164062 68.890625 222.164062 68.890625 224.15625 "/>
<path style=" stroke:none;fill-rule:nonzero;fill:rgb(100%,84.3%,0%);fill-opacity:1;" d="M 10.882812 122.496094 C 10.882812 124.492188 7.894531 124.492188 7.894531 122.496094 C 7.894531 120.503906 10.882812 120.503906 10.882812 122.496094 "/>
<path style=" stroke:none;fill-rule:nonzero;fill:rgb(100%,84.3%,0%);fill-opacity:1;" d="M 68.890625 242.097656 C 68.890625 244.089844 65.898438 244.089844 65.898438 242.097656 C 65.898438 240.105469 68.890625 240.105469 68.890625 242.097656 "/>
<path style=" stroke:none;fill-rule:nonzero;fill:rgb(100%,84.3%,0%);fill-opacity:1;" d="M 10.882812 98.578125 C 10.882812 100.574219 7.894531 100.574219 7.894531 98.578125 C 7.894531 96.585938 10.882812 96.585938 10.882812 98.578125 "/>
<path style=" stroke:none;fill-rule:nonzero;fill:rgb(100%,84.3%,0%);fill-opacity:1;" d="M 68.890625 221.167969 C 68.890625 223.160156 65.898438 223.160156 65.898438 221.167969 C 65.898438 219.171875 68.890625 219.171875 68.890625 221.167969 "/>
<path style=" stroke:none;fill-rule:nonzero;fill:rgb(100%,84.3%,0%);fill-opacity:1;" d="M 68.890625 245.085938 C 68.890625 247.082031 65.898438 247.082031 65.898438 245.085938 C 65.898438 243.09375 68.890625 243.09375 68.890625 245.085938 "/>
<path style=" stroke:none;fill-rule:nonzero;fill:rgb(100%,84.3%,0%);fill-opacity:1;" d="M 68.890625 260.035156 C 68.890625 262.03125 65.898438 262.03125 65.898438 260.035156 C 65.898438 258.042969 68.890625 258.042969 68.890625 260.035156 "/>
<path style=" stroke:none;fill-rule:nonzero;fill:rgb(100%,84.3%,0%);fill-opacity:1;" d="M 68.890625 263.027344 C 68.890625 265.019531 65.898438 265.019531 65.898438 263.027344 C 65.898438 261.03125 68.890625 261.03125 68.890625 263.027344 "/>
<path style=" stroke:none;fill-rule:nonzero;fill:rgb(100%,84.3%,0%);fill-opacity:1;" d="M 68.890625 218.175781 C 68.890625 220.171875 65.898438 220.171875 65.898438 218.175781 C 65.898438 216.183594 68.890625 216.183594 68.890625 218.175781 "/>
<path style=" stroke:none;fill-rule:nonzero;fill:rgb(100%,84.3%,0%);fill-opacity:1;" d="M 68.890625 248.078125 C 68.890625 250.070312 65.898438 250.070312 65.898438 248.078125 C 65.898438 246.082031 68.890625 246.082031 68.890625 248.078125 "/>
<path style=" stroke:none;fill-rule:nonzero;fill:rgb(100%,84.3%,0%);fill-opacity:1;" d="M 10.882812 101.570312 C 10.882812 103.5625 7.894531 103.5625 7.894531 101.570312 C 7.894531 99.574219 10.882812 99.574219 10.882812 101.570312 "/>
<path style=" stroke:none;fill-rule:nonzero;fill:rgb(100%,84.3%,0%);fill-opacity:1;" d="M 68.890625 251.066406 C 68.890625 253.058594 65.898438 253.058594 65.898438 251.066406 C 65.898438 249.074219 68.890625 249.074219 68.890625 251.066406 "/>
<path style=" stroke:none;fill-rule:nonzero;fill:rgb(100%,84.3%,0%);fill-opacity:1;" d="M 68.890625 215.1875 C 68.890625 217.179688 65.898438 217.179688 65.898438 215.1875 C 65.898438 213.195312 68.890625 213.195312 68.890625 215.1875 "/>
<path style=" stroke:none;fill-rule:nonzero;fill:rgb(100%,84.3%,0%);fill-opacity:1;" d="M 68.890625 266.015625 C 68.890625 268.007812 65.898438 268.007812 65.898438 266.015625 C 65.898438 264.023438 68.890625 264.023438 68.890625 266.015625 "/>
<path style=" stroke:none;fill-rule:nonzero;fill:rgb(100%,84.3%,0%);fill-opacity:1;" d="M 68.890625 269.007812 C 68.890625 271 65.898438 271 65.898438 269.007812 C 65.898438 267.011719 68.890625 267.011719 68.890625 269.007812 "/>
<path style=" stroke:none;fill-rule:nonzero;fill:rgb(100%,84.3%,0%);fill-opacity:1;" d="M 68.890625 254.058594 C 68.890625 256.050781 65.898438 256.050781 65.898438 254.058594 C 65.898438 252.0625 68.890625 252.0625 68.890625 254.058594 "/>
<path style=" stroke:none;fill-rule:nonzero;fill:rgb(100%,84.3%,0%);fill-opacity:1;" d="M 13.476562 195.753906 C 13.476562 197.746094 10.484375 197.746094 10.484375 195.753906 C 10.484375 193.757812 13.476562 193.757812 13.476562 195.753906 "/>
<path style=" stroke:none;fill-rule:nonzero;fill:rgb(100%,84.3%,0%);fill-opacity:1;" d="M 10.882812 191.265625 C 10.882812 193.261719 7.894531 193.261719 7.894531 191.265625 C 7.894531 189.273438 10.882812 189.273438 10.882812 191.265625 "/>
<path style=" stroke:none;fill-rule:nonzero;fill:rgb(100%,84.3%,0%);fill-opacity:1;" d="M 13.476562 189.773438 C 13.476562 191.765625 10.484375 191.765625 10.484375 189.773438 C 10.484375 187.777344 13.476562 187.777344 13.476562 189.773438 "/>
<path style=" stroke:none;fill-rule:nonzero;fill:rgb(100%,84.3%,0%);fill-opacity:1;" d="M 13.476562 198.742188 C 13.476562 200.734375 10.484375 200.734375 10.484375 198.742188 C 10.484375 196.75 13.476562 196.75 13.476562 198.742188 "/>
<path style=" stroke:none;fill-rule:nonzero;fill:rgb(100%,84.3%,0%);fill-opacity:1;" d="M 13.476562 186.78125 C 13.476562 188.777344 10.484375 188.777344 10.484375 186.78125 C 10.484375 184.789062 13.476562 184.789062 13.476562 186.78125 "/>
<path style=" stroke:none;fill-rule:nonzero;fill:rgb(100%,84.3%,0%);fill-opacity:1;" d="M 68.890625 212.195312 C 68.890625 214.191406 65.898438 214.191406 65.898438 212.195312 C 65.898438 210.203125 68.890625 210.203125 68.890625 212.195312 "/>
<path style=" stroke:none;fill-rule:nonzero;fill:rgb(100%,84.3%,0%);fill-opacity:1;" d="M 68.890625 206.21875 C 68.890625 208.210938 65.898438 208.210938 65.898438 206.21875 C 65.898438 204.222656 68.890625 204.222656 68.890625 206.21875 "/>
<path style=" stroke:none;fill-rule:nonzero;fill:rgb(100%,84.3%,0%);fill-opacity:1;" d="M 13.476562 201.730469 C 13.476562 203.726562 10.484375 203.726562 10.484375 201.730469 C 10.484375 199.738281 13.476562 199.738281 13.476562 201.730469 "/>
<path style=" stroke:none;fill-rule:nonzero;fill:rgb(100%,84.3%,0%);fill-opacity:1;" d="M 13.476562 183.792969 C 13.476562 185.785156 10.484375 185.785156 10.484375 183.792969 C 10.484375 181.800781 13.476562 181.800781 13.476562 183.792969 "/>
<path style=" stroke:none;fill-rule:nonzero;fill:rgb(100%,84.3%,0%);fill-opacity:1;" d="M 68.890625 257.046875 C 68.890625 259.039062 65.898438 259.039062 65.898438 257.046875 C 65.898438 255.050781 68.890625 255.050781 68.890625 257.046875 "/>
<path style=" stroke:none;fill-rule:nonzero;fill:rgb(100%,84.3%,0%);fill-opacity:1;" d="M 13.476562 180.804688 C 13.476562 182.796875 10.484375 182.796875 10.484375 180.804688 C 10.484375 178.808594 13.476562 178.808594 13.476562 180.804688 "/>
<path style=" stroke:none;fill-rule:nonzero;fill:rgb(100%,84.3%,0%);fill-opacity:1;" d="M 68.890625 203.226562 C 68.890625 205.21875 65.898438 205.21875 65.898438 203.226562 C 65.898438 201.234375 68.890625 201.234375 68.890625 203.226562 "/>
<path style=" stroke:none;fill-rule:nonzero;fill:rgb(100%,84.3%,0%);fill-opacity:1;" d="M 68.890625 209.207031 C 68.890625 211.199219 65.898438 211.199219 65.898438 209.207031 C 65.898438 207.214844 68.890625 207.214844 68.890625 209.207031 "/>
<path style=" stroke:none;fill-rule:nonzero;fill:rgb(100%,84.3%,0%);fill-opacity:1;" d="M 10.882812 95.589844 C 10.882812 97.582031 7.894531 97.582031 7.894531 95.589844 C 7.894531 93.59375 10.882812 93.59375 10.882812 95.589844 "/>
<path style=" stroke:none;fill-rule:nonzero;fill:rgb(100%,84.3%,0%);fill-opacity:1;" d="M 68.890625 200.238281 C 68.890625 202.230469 65.898438 202.230469 65.898438 200.238281 C 65.898438 198.242188 68.890625 198.242188 68.890625 200.238281 "/>
<path style=" stroke:none;fill-rule:nonzero;fill:rgb(100%,84.3%,0%);fill-opacity:1;" d="M 68.890625 197.246094 C 68.890625 199.242188 65.898438 199.242188 65.898438 197.246094 C 65.898438 195.253906 68.890625 195.253906 68.890625 197.246094 "/>
<path style=" stroke:none;fill-rule:nonzero;fill:rgb(100%,84.3%,0%);fill-opacity:1;" d="M 68.890625 194.257812 C 68.890625 196.25 65.898438 196.25 65.898438 194.257812 C 65.898438 192.265625 68.890625 192.265625 68.890625 194.257812 "/>
<path style=" stroke:none;fill-rule:nonzero;fill:rgb(100%,84.3%,0%);fill-opacity:1;" d="M 10.882812 194.257812 C 10.882812 196.25 7.894531 196.25 7.894531 194.257812 C 7.894531 192.265625 10.882812 192.265625 10.882812 194.257812 "/>
<path style=" stroke:none;fill-rule:nonzero;fill:rgb(100%,84.3%,0%);fill-opacity:1;" d="M 10.882812 77.648438 C 10.882812 79.640625 7.894531 79.640625 7.894531 77.648438 C 7.894531 75.65625 10.882812 75.65625 10.882812 77.648438 "/>
<path style=" stroke:none;fill-rule:nonzero;fill:rgb(100%,84.3%,0%);fill-opacity:1;" d="M 13.476562 192.761719 C 13.476562 194.753906 10.484375 194.753906 10.484375 192.761719 C 10.484375 190.769531 13.476562 190.769531 13.476562 192.761719 "/>
<path style=" stroke:none;fill-rule:nonzero;fill:rgb(100%,84.3%,0%);fill-opacity:1;" d="M 10.882812 92.597656 C 10.882812 94.59375 7.894531 94.59375 7.894531 92.597656 C 7.894531 90.605469 10.882812 90.605469 10.882812 92.597656 "/>
<path style=" stroke:none;fill-rule:nonzero;fill:rgb(100%,84.3%,0%);fill-opacity:1;" d="M 10.882812 125.488281 C 10.882812 127.480469 7.894531 127.480469 7.894531 125.488281 C 7.894531 123.496094 10.882812 123.496094 10.882812 125.488281 "/>
</g>
</svg>
