<?xml version="1.0" encoding="UTF-8"?>
<svg xmlns="http://www.w3.org/2000/svg" xmlns:xlink="http://www.w3.org/1999/xlink" width="512pt" height="512pt" viewBox="0 0 512 512" version="1.1">
<g id="surface296">
<rect x="0" y="0" width="512" height="512" style="fill:rgb(26.7%,26.7%,26.7%);fill-opacity:1;stroke:none;"/>
<path style=" stroke:none;fill-rule:nonzero;fill:rgb(19.2%,38.8%,66.7%);fill-opacity:1;" d="M 42.667969 449.421875 L 469.332031 449.421875 L 469.332031 506.3125 L 42.667969 506.3125 Z M 42.667969 449.421875 "/>
<path style=" stroke:none;fill-rule:nonzero;fill:rgb(90.6%,14.9%,14.9%);fill-opacity:1;" d="M 528.042969 102.855469 C 528.042969 108.382812 523.558594 112.867188 518.03125 112.867188 C 512.5 112.867188 508.015625 108.382812 508.015625 102.855469 C 508.015625 97.324219 512.5 92.84375 518.03125 92.84375 C 523.558594 92.84375 528.042969 97.324219 528.042969 102.855469 "/>
<path style=" stroke:none;fill-rule:nonzero;fill:rgb(90.6%,14.9%,14.9%);fill-opacity:1;" d="M 451.355469 289.90625 C 451.355469 298.453125 444.429688 305.378906 435.882812 305.378906 C 427.335938 305.378906 420.410156 298.453125 420.410156 289.90625 C 420.410156 281.359375 427.335938 274.433594 435.882812 274.433594 C 444.429688 274.433594 451.355469 281.359375 451.355469 289.90625 "/>
<path style=" stroke:none;fill-rule:nonzero;fill:rgb(100%,100%,100%);fill-opacity:1;" d="M 146.886719 193.421875 C 146.886719 194.9375 144.609375 194.9375 144.609375 193.421875 C 144.609375 191.90625 146.886719 191.90625 146.886719 193.421875 "/>
<path style=" stroke:none;fill-rule:nonzero;fill:rgb(100%,100%,100%);fill-opacity:1;" d="M 81.351562 141.539062 C 81.351562 143.058594 79.074219 143.058594 79.074219 141.539062 C 79.074219 140.023438 81.351562 140.023438 81.351562 141.539062 "/>
<path style=" stroke:none;fill-rule:nonzero;fill:rgb(100%,100%,100%);fill-opacity:1;" d="M 128 72.589844 C 128 74.105469 125.722656 74.105469 125.722656 72.589844 C 125.722656 71.074219 128 71.074219 128 72.589844 "/>
<path style=" stroke:none;fill-rule:nonzero;fill:rgb(100%,100%,100%);fill-opacity:1;" d="M 267.492188 344.972656 C 267.492188 346.492188 265.214844 346.492188 265.214844 344.972656 C 265.214844 343.457031 267.492188 343.457031 267.492188 344.972656 "/>
<path style=" stroke:none;fill-rule:nonzero;fill:rgb(100%,100%,100%);fill-opacity:1;" d="M 160.996094 56.890625 C 160.996094 58.40625 158.71875 58.40625 158.71875 56.890625 C 158.71875 55.371094 160.996094 55.371094 160.996094 56.890625 "/>
<path style=" stroke:none;fill-rule:nonzero;fill:rgb(100%,100%,100%);fill-opacity:1;" d="M 39.480469 67.585938 C 39.480469 69.101562 37.207031 69.101562 37.207031 67.585938 C 37.207031 66.066406 39.480469 66.066406 39.480469 67.585938 "/>
<path style=" stroke:none;fill-rule:nonzero;fill:rgb(100%,100%,100%);fill-opacity:1;" d="M 3.980469 148.140625 C 3.980469 149.65625 1.707031 149.65625 1.707031 148.140625 C 1.707031 146.621094 3.980469 146.621094 3.980469 148.140625 "/>
<path style=" stroke:none;fill-rule:nonzero;fill:rgb(100%,100%,100%);fill-opacity:1;" d="M 230.171875 236.886719 C 230.171875 238.402344 227.898438 238.402344 227.898438 236.886719 C 227.898438 235.367188 230.171875 235.367188 230.171875 236.886719 "/>
<path style=" stroke:none;fill-rule:nonzero;fill:rgb(100%,100%,100%);fill-opacity:1;" d="M 504.605469 466.714844 C 504.605469 468.234375 502.328125 468.234375 502.328125 466.714844 C 502.328125 465.199219 504.605469 465.199219 504.605469 466.714844 "/>
<path style=" stroke:none;fill-rule:nonzero;fill:rgb(100%,100%,100%);fill-opacity:1;" d="M 322.789062 390.714844 C 322.789062 392.230469 320.511719 392.230469 320.511719 390.714844 C 320.511719 389.195312 322.789062 389.195312 322.789062 390.714844 "/>
<path style=" stroke:none;fill-rule:nonzero;fill:rgb(100%,100%,100%);fill-opacity:1;" d="M 142.109375 239.84375 C 142.109375 241.359375 139.832031 241.359375 139.832031 239.84375 C 139.832031 238.328125 142.109375 238.328125 142.109375 239.84375 "/>
<path style=" stroke:none;fill-rule:nonzero;fill:rgb(100%,100%,100%);fill-opacity:1;" d="M 107.976562 98.988281 C 107.976562 100.503906 105.699219 100.503906 105.699219 98.988281 C 105.699219 97.46875 107.976562 97.46875 107.976562 98.988281 "/>
<path style=" stroke:none;fill-rule:nonzero;fill:rgb(100%,100%,100%);fill-opacity:1;" d="M 477.070312 17.292969 C 477.070312 18.8125 474.792969 18.8125 474.792969 17.292969 C 474.792969 15.777344 477.070312 15.777344 477.070312 17.292969 "/>
<path style=" stroke:none;fill-rule:nonzero;fill:rgb(100%,100%,100%);fill-opacity:1;" d="M 277.957031 68.265625 C 277.957031 69.785156 275.683594 69.785156 275.683594 68.265625 C 275.683594 66.75 277.957031 66.75 277.957031 68.265625 "/>
<path style=" stroke:none;fill-rule:nonzero;fill:rgb(100%,100%,100%);fill-opacity:1;" d="M 153.484375 159.289062 C 153.484375 160.804688 151.210938 160.804688 151.210938 159.289062 C 151.210938 157.773438 153.484375 157.773438 153.484375 159.289062 "/>
<path style=" stroke:none;fill-rule:nonzero;fill:rgb(100%,100%,100%);fill-opacity:1;" d="M 229.261719 98.757812 C 229.261719 100.277344 226.984375 100.277344 226.984375 98.757812 C 226.984375 97.242188 229.261719 97.242188 229.261719 98.757812 "/>
<path style=" stroke:none;fill-rule:nonzero;fill:rgb(100%,100%,100%);fill-opacity:1;" d="M 191.714844 398.222656 C 191.714844 399.738281 189.441406 399.738281 189.441406 398.222656 C 189.441406 396.703125 191.714844 396.703125 191.714844 398.222656 "/>
<path style=" stroke:none;fill-rule:nonzero;fill:rgb(100%,100%,100%);fill-opacity:1;" d="M 58.140625 313.570312 C 58.140625 315.089844 55.863281 315.089844 55.863281 313.570312 C 55.863281 312.054688 58.140625 312.054688 58.140625 313.570312 "/>
<path style=" stroke:none;fill-rule:nonzero;fill:rgb(100%,100%,100%);fill-opacity:1;" d="M 43.121094 384.339844 C 43.121094 385.859375 40.847656 385.859375 40.847656 384.339844 C 40.847656 382.824219 43.121094 382.824219 43.121094 384.339844 "/>
<path style=" stroke:none;fill-rule:nonzero;fill:rgb(100%,100%,100%);fill-opacity:1;" d="M 199.679688 46.421875 C 199.679688 47.9375 197.402344 47.9375 197.402344 46.421875 C 197.402344 44.902344 199.679688 44.902344 199.679688 46.421875 "/>
<path style=" stroke:none;fill-rule:nonzero;fill:rgb(100%,100%,100%);fill-opacity:1;" d="M 215.152344 356.578125 C 215.152344 358.097656 212.878906 358.097656 212.878906 356.578125 C 212.878906 355.0625 215.152344 355.0625 215.152344 356.578125 "/>
<path style=" stroke:none;fill-rule:nonzero;fill:rgb(100%,100%,100%);fill-opacity:1;" d="M 428.601562 326.316406 C 428.601562 327.832031 426.324219 327.832031 426.324219 326.316406 C 426.324219 324.796875 428.601562 324.796875 428.601562 326.316406 "/>
<path style=" stroke:none;fill-rule:nonzero;fill:rgb(100%,100%,100%);fill-opacity:1;" d="M 434.0625 430.308594 C 434.0625 431.824219 431.785156 431.824219 431.785156 430.308594 C 431.785156 428.789062 434.0625 428.789062 434.0625 430.308594 "/>
<path style=" stroke:none;fill-rule:nonzero;fill:rgb(100%,100%,100%);fill-opacity:1;" d="M 5.347656 459.890625 C 5.347656 461.40625 3.070312 461.40625 3.070312 459.890625 C 3.070312 458.371094 5.347656 458.371094 5.347656 459.890625 "/>
<path style=" stroke:none;fill-rule:nonzero;fill:rgb(100%,100%,100%);fill-opacity:1;" d="M 477.753906 159.289062 C 477.753906 160.804688 475.476562 160.804688 475.476562 159.289062 C 475.476562 157.773438 477.753906 157.773438 477.753906 159.289062 "/>
<path style=" stroke:none;fill-rule:nonzero;fill:rgb(100%,100%,100%);fill-opacity:1;" d="M 157.125 42.554688 C 157.125 44.070312 154.851562 44.070312 154.851562 42.554688 C 154.851562 41.035156 157.125 41.035156 157.125 42.554688 "/>
<path style=" stroke:none;fill-rule:nonzero;fill:rgb(100%,100%,100%);fill-opacity:1;" d="M 352.824219 12.972656 C 352.824219 14.488281 350.550781 14.488281 350.550781 12.972656 C 350.550781 11.453125 352.824219 11.453125 352.824219 12.972656 "/>
<path style=" stroke:none;fill-rule:nonzero;fill:rgb(100%,100%,100%);fill-opacity:1;" d="M 385.367188 145.863281 C 385.367188 147.378906 383.089844 147.378906 383.089844 145.863281 C 383.089844 144.347656 385.367188 144.347656 385.367188 145.863281 "/>
<path style=" stroke:none;fill-rule:nonzero;fill:rgb(100%,100%,100%);fill-opacity:1;" d="M 495.730469 163.386719 C 495.730469 164.902344 493.453125 164.902344 493.453125 163.386719 C 493.453125 161.867188 495.730469 161.867188 495.730469 163.386719 "/>
<path style=" stroke:none;fill-rule:nonzero;fill:rgb(100%,100%,100%);fill-opacity:1;" d="M 95.914062 10.238281 C 95.914062 11.757812 93.640625 11.757812 93.640625 10.238281 C 93.640625 8.722656 95.914062 8.722656 95.914062 10.238281 "/>
<path style=" stroke:none;fill-rule:nonzero;fill:rgb(100%,100%,100%);fill-opacity:1;" d="M 224.484375 189.097656 C 224.484375 190.617188 222.207031 190.617188 222.207031 189.097656 C 222.207031 187.582031 224.484375 187.582031 224.484375 189.097656 "/>
<path style=" stroke:none;fill-rule:nonzero;fill:rgb(100%,100%,100%);fill-opacity:1;" d="M 327.566406 380.246094 C 327.566406 381.761719 325.289062 381.761719 325.289062 380.246094 C 325.289062 378.726562 327.566406 378.726562 327.566406 380.246094 "/>
<path style=" stroke:none;fill-rule:nonzero;fill:rgb(100%,100%,100%);fill-opacity:1;" d="M 158.265625 232.5625 C 158.265625 234.078125 155.988281 234.078125 155.988281 232.5625 C 155.988281 231.046875 158.265625 231.046875 158.265625 232.5625 "/>
<path style=" stroke:none;fill-rule:nonzero;fill:rgb(100%,100%,100%);fill-opacity:1;" d="M 45.625 212.992188 C 45.625 214.507812 43.347656 214.507812 43.347656 212.992188 C 43.347656 211.476562 45.625 211.476562 45.625 212.992188 "/>
<path style=" stroke:none;fill-rule:nonzero;fill:rgb(100%,100%,100%);fill-opacity:1;" d="M 375.351562 264.421875 C 375.351562 265.9375 373.078125 265.9375 373.078125 264.421875 C 373.078125 262.902344 375.351562 262.902344 375.351562 264.421875 "/>
<path style=" stroke:none;fill-rule:nonzero;fill:rgb(100%,84.3%,0%);fill-opacity:1;" d="M 46.078125 453.972656 C 46.078125 455.488281 43.804688 455.488281 43.804688 453.972656 C 43.804688 452.457031 46.078125 452.457031 46.078125 453.972656 "/>
<path style=" stroke:none;fill-rule:nonzero;fill:rgb(100%,84.3%,0%);fill-opacity:1;" d="M 223.574219 451.699219 C 223.574219 453.214844 221.296875 453.214844 221.296875 451.699219 C 221.296875 450.179688 223.574219 450.179688 223.574219 451.699219 "/>
<path style=" stroke:none;fill-rule:nonzero;fill:rgb(100%,84.3%,0%);fill-opacity:1;" d="M 416.996094 451.699219 C 416.996094 453.214844 414.71875 453.214844 414.71875 451.699219 C 414.71875 450.179688 416.996094 450.179688 416.996094 451.699219 "/>
<path style=" stroke:none;fill-rule:nonzero;fill:rgb(100%,84.3%,0%);fill-opacity:1;" d="M 435.199219 451.699219 C 435.199219 453.214844 432.925781 453.214844 432.925781 451.699219 C 432.925781 450.179688 435.199219 450.179688 435.199219 451.699219 "/>
<path style=" stroke:none;fill-rule:nonzero;fill:rgb(100%,84.3%,0%);fill-opacity:1;" d="M 143.929688 504.035156 C 143.929688 505.554688 141.652344 505.554688 141.652344 504.035156 C 141.652344 502.519531 143.929688 502.519531 143.929688 504.035156 "/>
<path style=" stroke:none;fill-rule:nonzero;fill:rgb(100%,84.3%,0%);fill-opacity:1;" d="M 453.40625 451.699219 C 453.40625 453.214844 451.128906 453.214844 451.128906 451.699219 C 451.128906 450.179688 453.40625 450.179688 453.40625 451.699219 "/>
<path style=" stroke:none;fill-rule:nonzero;fill:rgb(100%,84.3%,0%);fill-opacity:1;" d="M 146.203125 504.035156 C 146.203125 505.554688 143.929688 505.554688 143.929688 504.035156 C 143.929688 502.519531 146.203125 502.519531 146.203125 504.035156 "/>
<path style=" stroke:none;fill-rule:nonzero;fill:rgb(100%,84.3%,0%);fill-opacity:1;" d="M 46.078125 463.074219 C 46.078125 464.59375 43.804688 464.59375 43.804688 463.074219 C 43.804688 461.558594 46.078125 461.558594 46.078125 463.074219 "/>
<path style=" stroke:none;fill-rule:nonzero;fill:rgb(100%,84.3%,0%);fill-opacity:1;" d="M 46.078125 460.800781 C 46.078125 462.316406 43.804688 462.316406 43.804688 460.800781 C 43.804688 459.28125 46.078125 459.28125 46.078125 460.800781 "/>
<path style=" stroke:none;fill-rule:nonzero;fill:rgb(100%,84.3%,0%);fill-opacity:1;" d="M 451.128906 451.699219 C 451.128906 453.214844 448.851562 453.214844 448.851562 451.699219 C 448.851562 450.179688 451.128906 450.179688 451.128906 451.699219 "/>
<path style=" stroke:none;fill-rule:nonzero;fill:rgb(100%,84.3%,0%);fill-opacity:1;" d="M 164.410156 451.699219 C 164.410156 453.214844 162.132812 453.214844 162.132812 451.699219 C 162.132812 450.179688 164.410156 450.179688 164.410156 451.699219 "/>
<path style=" stroke:none;fill-rule:nonzero;fill:rgb(100%,84.3%,0%);fill-opacity:1;" d="M 437.476562 451.699219 C 437.476562 453.214844 435.199219 453.214844 435.199219 451.699219 C 435.199219 450.179688 437.476562 450.179688 437.476562 451.699219 "/>
<path style=" stroke:none;fill-rule:nonzero;fill:rgb(100%,84.3%,0%);fill-opacity:1;" d="M 426.097656 451.699219 C 426.097656 453.214844 423.820312 453.214844 423.820312 451.699219 C 423.820312 450.179688 426.097656 450.179688 426.097656 451.699219 "/>
<path style=" stroke:none;fill-rule:nonzero;fill:rgb(100%,84.3%,0%);fill-opacity:1;" d="M 141.652344 504.035156 C 141.652344 505.554688 139.378906 505.554688 139.378906 504.035156 C 139.378906 502.519531 141.652344 502.519531 141.652344 504.035156 "/>
<path style=" stroke:none;fill-rule:nonzero;fill:rgb(100%,84.3%,0%);fill-opacity:1;" d="M 412.445312 451.699219 C 412.445312 453.214844 410.167969 453.214844 410.167969 451.699219 C 410.167969 450.179688 412.445312 450.179688 412.445312 451.699219 "/>
<path style=" stroke:none;fill-rule:nonzero;fill:rgb(100%,84.3%,0%);fill-opacity:1;" d="M 432.925781 451.699219 C 432.925781 453.214844 430.648438 453.214844 430.648438 451.699219 C 430.648438 450.179688 432.925781 450.179688 432.925781 451.699219 "/>
<path style=" stroke:none;fill-rule:nonzero;fill:rgb(100%,84.3%,0%);fill-opacity:1;" d="M 439.75 451.699219 C 439.75 453.214844 437.476562 453.214844 437.476562 451.699219 C 437.476562 450.179688 439.75 450.179688 439.75 451.699219 "/>
<path style=" stroke:none;fill-rule:nonzero;fill:rgb(100%,84.3%,0%);fill-opacity:1;" d="M 46.078125 465.351562 C 46.078125 466.867188 43.804688 466.867188 43.804688 465.351562 C 43.804688 463.832031 46.078125 463.832031 46.078125 465.351562 "/>
<path style=" stroke:none;fill-rule:nonzero;fill:rgb(100%,84.3%,0%);fill-opacity:1;" d="M 455.679688 451.699219 C 455.679688 453.214844 453.402344 453.214844 453.402344 451.699219 C 453.402344 450.179688 455.679688 450.179688 455.679688 451.699219 "/>
<path style=" stroke:none;fill-rule:nonzero;fill:rgb(100%,84.3%,0%);fill-opacity:1;" d="M 423.820312 451.699219 C 423.820312 453.214844 421.546875 453.214844 421.546875 451.699219 C 421.546875 450.179688 423.820312 450.179688 423.820312 451.699219 "/>
<path style=" stroke:none;fill-rule:nonzero;fill:rgb(100%,84.3%,0%);fill-opacity:1;" d="M 46.078125 458.523438 C 46.078125 460.042969 43.804688 460.042969 43.804688 458.523438 C 43.804688 457.007812 46.078125 457.007812 46.078125 458.523438 "/>
<path style=" stroke:none;fill-rule:nonzero;fill:rgb(100%,84.3%,0%);fill-opacity:1;" d="M 419.269531 451.699219 C 419.269531 453.214844 416.996094 453.214844 416.996094 451.699219 C 416.996094 450.179688 419.269531 450.179688 419.269531 451.699219 "/>
<path style=" stroke:none;fill-rule:nonzero;fill:rgb(100%,84.3%,0%);fill-opacity:1;" d="M 166.683594 451.699219 C 166.683594 453.214844 164.410156 453.214844 164.410156 451.699219 C 164.410156 450.179688 166.683594 450.179688 166.683594 451.699219 "/>
<path style=" stroke:none;fill-rule:nonzero;fill:rgb(100%,84.3%,0%);fill-opacity:1;" d="M 464.78125 451.699219 C 464.78125 453.214844 462.507812 453.214844 462.507812 451.699219 C 462.507812 450.179688 464.78125 450.179688 464.78125 451.699219 "/>
<path style=" stroke:none;fill-rule:nonzero;fill:rgb(100%,84.3%,0%);fill-opacity:1;" d="M 139.378906 504.035156 C 139.378906 505.554688 137.101562 505.554688 137.101562 504.035156 C 137.101562 502.519531 139.378906 502.519531 139.378906 504.035156 "/>
<path style=" stroke:none;fill-rule:nonzero;fill:rgb(100%,84.3%,0%);fill-opacity:1;" d="M 46.078125 456.25 C 46.078125 457.765625 43.804688 457.765625 43.804688 456.25 C 43.804688 454.730469 46.078125 454.730469 46.078125 456.25 "/>
<path style=" stroke:none;fill-rule:nonzero;fill:rgb(100%,84.3%,0%);fill-opacity:1;" d="M 421.546875 451.699219 C 421.546875 453.214844 419.269531 453.214844 419.269531 451.699219 C 419.269531 450.179688 421.546875 450.179688 421.546875 451.699219 "/>
<path style=" stroke:none;fill-rule:nonzero;fill:rgb(100%,84.3%,0%);fill-opacity:1;" d="M 442.027344 451.699219 C 442.027344 453.214844 439.75 453.214844 439.75 451.699219 C 439.75 450.179688 442.027344 450.179688 442.027344 451.699219 "/>
<path style=" stroke:none;fill-rule:nonzero;fill:rgb(100%,84.3%,0%);fill-opacity:1;" d="M 430.648438 451.699219 C 430.648438 453.214844 428.375 453.214844 428.375 451.699219 C 428.375 450.179688 430.648438 450.179688 430.648438 451.699219 "/>
<path style=" stroke:none;fill-rule:nonzero;fill:rgb(100%,84.3%,0%);fill-opacity:1;" d="M 444.300781 451.699219 C 444.300781 453.214844 442.027344 453.214844 442.027344 451.699219 C 442.027344 450.179688 444.300781 450.179688 444.300781 451.699219 "/>
<path style=" stroke:none;fill-rule:nonzero;fill:rgb(100%,84.3%,0%);fill-opacity:1;" d="M 46.078125 467.628906 C 46.078125 469.144531 43.804688 469.144531 43.804688 467.628906 C 43.804688 466.109375 46.078125 466.109375 46.078125 467.628906 "/>
<path style=" stroke:none;fill-rule:nonzero;fill:rgb(100%,84.3%,0%);fill-opacity:1;" d="M 446.578125 451.699219 C 446.578125 453.214844 444.300781 453.214844 444.300781 451.699219 C 444.300781 450.179688 446.578125 450.179688 446.578125 451.699219 "/>
<path style=" stroke:none;fill-rule:nonzero;fill:rgb(100%,84.3%,0%);fill-opacity:1;" d="M 168.960938 451.699219 C 168.960938 453.214844 166.683594 453.214844 166.683594 451.699219 C 166.683594 450.179688 168.960938 450.179688 168.960938 451.699219 "/>
<path style=" stroke:none;fill-rule:nonzero;fill:rgb(100%,84.3%,0%);fill-opacity:1;" d="M 457.957031 451.699219 C 457.957031 453.214844 455.679688 453.214844 455.679688 451.699219 C 455.679688 450.179688 457.957031 450.179688 457.957031 451.699219 "/>
<path style=" stroke:none;fill-rule:nonzero;fill:rgb(100%,84.3%,0%);fill-opacity:1;" d="M 448.855469 451.699219 C 448.855469 453.214844 446.578125 453.214844 446.578125 451.699219 C 446.578125 450.179688 448.855469 450.179688 448.855469 451.699219 "/>
<path style=" stroke:none;fill-rule:nonzero;fill:rgb(100%,84.3%,0%);fill-opacity:1;" d="M 46.078125 469.902344 C 46.078125 471.417969 43.804688 471.417969 43.804688 469.902344 C 43.804688 468.386719 46.078125 468.386719 46.078125 469.902344 "/>
<path style=" stroke:none;fill-rule:nonzero;fill:rgb(100%,84.3%,0%);fill-opacity:1;" d="M 428.375 451.699219 C 428.375 453.214844 426.097656 453.214844 426.097656 451.699219 C 426.097656 450.179688 428.375 450.179688 428.375 451.699219 "/>
<path style=" stroke:none;fill-rule:nonzero;fill:rgb(100%,84.3%,0%);fill-opacity:1;" d="M 460.230469 451.699219 C 460.230469 453.214844 457.957031 453.214844 457.957031 451.699219 C 457.957031 450.179688 460.230469 450.179688 460.230469 451.699219 "/>
<path style=" stroke:none;fill-rule:nonzero;fill:rgb(100%,84.3%,0%);fill-opacity:1;" d="M 46.078125 472.179688 C 46.078125 473.695312 43.804688 473.695312 43.804688 472.179688 C 43.804688 470.660156 46.078125 470.660156 46.078125 472.179688 "/>
<path style=" stroke:none;fill-rule:nonzero;fill:rgb(100%,84.3%,0%);fill-opacity:1;" d="M 434.0625 453.671875 C 434.0625 455.1875 431.785156 455.1875 431.785156 453.671875 C 431.785156 452.152344 434.0625 452.152344 434.0625 453.671875 "/>
<path style=" stroke:none;fill-rule:nonzero;fill:rgb(100%,84.3%,0%);fill-opacity:1;" d="M 462.507812 451.699219 C 462.507812 453.214844 460.230469 453.214844 460.230469 451.699219 C 460.230469 450.179688 462.507812 450.179688 462.507812 451.699219 "/>
<path style=" stroke:none;fill-rule:nonzero;fill:rgb(100%,84.3%,0%);fill-opacity:1;" d="M 137.101562 504.035156 C 137.101562 505.554688 134.828125 505.554688 134.828125 504.035156 C 134.828125 502.519531 137.101562 502.519531 137.101562 504.035156 "/>
<path style=" stroke:none;fill-rule:nonzero;fill:rgb(100%,84.3%,0%);fill-opacity:1;" d="M 205.367188 451.699219 C 205.367188 453.214844 203.09375 453.214844 203.09375 451.699219 C 203.09375 450.179688 205.367188 450.179688 205.367188 451.699219 "/>
<path style=" stroke:none;fill-rule:nonzero;fill:rgb(100%,84.3%,0%);fill-opacity:1;" d="M 414.71875 451.699219 C 414.71875 453.214844 412.445312 453.214844 412.445312 451.699219 C 412.445312 450.179688 414.71875 450.179688 414.71875 451.699219 "/>
<path style=" stroke:none;fill-rule:nonzero;fill:rgb(100%,84.3%,0%);fill-opacity:1;" d="M 46.078125 474.453125 C 46.078125 475.96875 43.804688 475.96875 43.804688 474.453125 C 43.804688 472.9375 46.078125 472.9375 46.078125 474.453125 "/>
<path style=" stroke:none;fill-rule:nonzero;fill:rgb(100%,84.3%,0%);fill-opacity:1;" d="M 46.078125 476.730469 C 46.078125 478.246094 43.804688 478.246094 43.804688 476.730469 C 43.804688 475.210938 46.078125 475.210938 46.078125 476.730469 "/>
<path style=" stroke:none;fill-rule:nonzero;fill:rgb(100%,84.3%,0%);fill-opacity:1;" d="M 46.078125 479.003906 C 46.078125 480.519531 43.804688 480.519531 43.804688 479.003906 C 43.804688 477.488281 46.078125 477.488281 46.078125 479.003906 "/>
<path style=" stroke:none;fill-rule:nonzero;fill:rgb(100%,84.3%,0%);fill-opacity:1;" d="M 46.078125 481.28125 C 46.078125 482.796875 43.804688 482.796875 43.804688 481.28125 C 43.804688 479.761719 46.078125 479.761719 46.078125 481.28125 "/>
<path style=" stroke:none;fill-rule:nonzero;fill:rgb(100%,84.3%,0%);fill-opacity:1;" d="M 46.078125 483.554688 C 46.078125 485.074219 43.804688 485.074219 43.804688 483.554688 C 43.804688 482.039062 46.078125 482.039062 46.078125 483.554688 "/>
<path style=" stroke:none;fill-rule:nonzero;fill:rgb(100%,84.3%,0%);fill-opacity:1;" d="M 46.078125 451.699219 C 46.078125 453.214844 43.804688 453.214844 43.804688 451.699219 C 43.804688 450.179688 46.078125 450.179688 46.078125 451.699219 "/>
<path style=" stroke:none;fill-rule:nonzero;fill:rgb(100%,84.3%,0%);fill-opacity:1;" d="M 46.078125 485.832031 C 46.078125 487.347656 43.804688 487.347656 43.804688 485.832031 C 43.804688 484.3125 46.078125 484.3125 46.078125 485.832031 "/>
<path style=" stroke:none;fill-rule:nonzero;fill:rgb(100%,84.3%,0%);fill-opacity:1;" d="M 46.078125 488.105469 C 46.078125 489.625 43.804688 489.625 43.804688 488.105469 C 43.804688 486.589844 46.078125 486.589844 46.078125 488.105469 "/>
<path style=" stroke:none;fill-rule:nonzero;fill:rgb(100%,84.3%,0%);fill-opacity:1;" d="M 46.078125 490.382812 C 46.078125 491.898438 43.804688 491.898438 43.804688 490.382812 C 43.804688 488.863281 46.078125 488.863281 46.078125 490.382812 "/>
<path style=" stroke:none;fill-rule:nonzero;fill:rgb(100%,84.3%,0%);fill-opacity:1;" d="M 46.078125 492.65625 C 46.078125 494.175781 43.804688 494.175781 43.804688 492.65625 C 43.804688 491.140625 46.078125 491.140625 46.078125 492.65625 "/>
<path style=" stroke:none;fill-rule:nonzero;fill:rgb(100%,84.3%,0%);fill-opacity:1;" d="M 46.078125 494.933594 C 46.078125 496.449219 43.804688 496.449219 43.804688 494.933594 C 43.804688 493.414062 46.078125 493.414062 46.078125 494.933594 "/>
<path style=" stroke:none;fill-rule:nonzero;fill:rgb(100%,84.3%,0%);fill-opacity:1;" d="M 46.078125 497.210938 C 46.078125 498.726562 43.804688 498.726562 43.804688 497.210938 C 43.804688 495.691406 46.078125 495.691406 46.078125 497.210938 "/>
<path style=" stroke:none;fill-rule:nonzero;fill:rgb(100%,84.3%,0%);fill-opacity:1;" d="M 46.078125 499.484375 C 46.078125 501 43.804688 501 43.804688 499.484375 C 43.804688 497.96875 46.078125 497.96875 46.078125 499.484375 "/>
<path style=" stroke:none;fill-rule:nonzero;fill:rgb(100%,84.3%,0%);fill-opacity:1;" d="M 46.078125 501.761719 C 46.078125 503.277344 43.804688 503.277344 43.804688 501.761719 C 43.804688 500.242188 46.078125 500.242188 46.078125 501.761719 "/>
<path style=" stroke:none;fill-rule:nonzero;fill:rgb(100%,84.3%,0%);fill-opacity:1;" d="M 46.078125 504.035156 C 46.078125 505.554688 43.804688 505.554688 43.804688 504.035156 C 43.804688 502.519531 46.078125 502.519531 46.078125 504.035156 "/>
<path style=" stroke:none;fill-rule:nonzero;fill:rgb(100%,84.3%,0%);fill-opacity:1;" d="M 48.054688 475.589844 C 48.054688 477.109375 45.777344 477.109375 45.777344 475.589844 C 45.777344 474.074219 48.054688 474.074219 48.054688 475.589844 "/>
<path style=" stroke:none;fill-rule:nonzero;fill:rgb(100%,84.3%,0%);fill-opacity:1;" d="M 48.054688 461.9375 C 48.054688 463.453125 45.777344 463.453125 45.777344 461.9375 C 45.777344 460.421875 48.054688 460.421875 48.054688 461.9375 "/>
<path style=" stroke:none;fill-rule:nonzero;fill:rgb(100%,84.3%,0%);fill-opacity:1;" d="M 48.054688 471.039062 C 48.054688 472.558594 45.777344 472.558594 45.777344 471.039062 C 45.777344 469.523438 48.054688 469.523438 48.054688 471.039062 "/>
<path style=" stroke:none;fill-rule:nonzero;fill:rgb(100%,84.3%,0%);fill-opacity:1;" d="M 48.054688 464.214844 C 48.054688 465.730469 45.777344 465.730469 45.777344 464.214844 C 45.777344 462.695312 48.054688 462.695312 48.054688 464.214844 "/>
<path style=" stroke:none;fill-rule:nonzero;fill:rgb(100%,84.3%,0%);fill-opacity:1;" d="M 48.054688 473.316406 C 48.054688 474.832031 45.777344 474.832031 45.777344 473.316406 C 45.777344 471.800781 48.054688 471.800781 48.054688 473.316406 "/>
<path style=" stroke:none;fill-rule:nonzero;fill:rgb(100%,84.3%,0%);fill-opacity:1;" d="M 48.054688 468.765625 C 48.054688 470.28125 45.777344 470.28125 45.777344 468.765625 C 45.777344 467.246094 48.054688 467.246094 48.054688 468.765625 "/>
<path style=" stroke:none;fill-rule:nonzero;fill:rgb(100%,84.3%,0%);fill-opacity:1;" d="M 48.054688 466.488281 C 48.054688 468.007812 45.777344 468.007812 45.777344 466.488281 C 45.777344 464.972656 48.054688 464.972656 48.054688 466.488281 "/>
<path style=" stroke:none;fill-rule:nonzero;fill:rgb(100%,84.3%,0%);fill-opacity:1;" d="M 207.644531 451.699219 C 207.644531 453.214844 205.371094 453.214844 205.371094 451.699219 C 205.371094 450.179688 207.644531 450.179688 207.644531 451.699219 "/>
<path style=" stroke:none;fill-rule:nonzero;fill:rgb(100%,84.3%,0%);fill-opacity:1;" d="M 191.714844 451.699219 C 191.714844 453.214844 189.441406 453.214844 189.441406 451.699219 C 189.441406 450.179688 191.714844 450.179688 191.714844 451.699219 "/>
<path style=" stroke:none;fill-rule:nonzero;fill:rgb(100%,84.3%,0%);fill-opacity:1;" d="M 193.992188 451.699219 C 193.992188 453.214844 191.714844 453.214844 191.714844 451.699219 C 191.714844 450.179688 193.992188 450.179688 193.992188 451.699219 "/>
<path style=" stroke:none;fill-rule:nonzero;fill:rgb(100%,84.3%,0%);fill-opacity:1;" d="M 196.265625 451.699219 C 196.265625 453.214844 193.992188 453.214844 193.992188 451.699219 C 193.992188 450.179688 196.265625 450.179688 196.265625 451.699219 "/>
<path style=" stroke:none;fill-rule:nonzero;fill:rgb(100%,84.3%,0%);fill-opacity:1;" d="M 189.441406 451.699219 C 189.441406 453.214844 187.164062 453.214844 187.164062 451.699219 C 187.164062 450.179688 189.441406 450.179688 189.441406 451.699219 "/>
<path style=" stroke:none;fill-rule:nonzero;fill:rgb(100%,84.3%,0%);fill-opacity:1;" d="M 187.164062 451.699219 C 187.164062 453.214844 184.890625 453.214844 184.890625 451.699219 C 184.890625 450.179688 187.164062 450.179688 187.164062 451.699219 "/>
<path style=" stroke:none;fill-rule:nonzero;fill:rgb(100%,84.3%,0%);fill-opacity:1;" d="M 198.542969 451.699219 C 198.542969 453.214844 196.265625 453.214844 196.265625 451.699219 C 196.265625 450.179688 198.542969 450.179688 198.542969 451.699219 "/>
<path style=" stroke:none;fill-rule:nonzero;fill:rgb(100%,84.3%,0%);fill-opacity:1;" d="M 209.917969 451.699219 C 209.917969 453.214844 207.644531 453.214844 207.644531 451.699219 C 207.644531 450.179688 209.917969 450.179688 209.917969 451.699219 "/>
<path style=" stroke:none;fill-rule:nonzero;fill:rgb(100%,84.3%,0%);fill-opacity:1;" d="M 200.816406 451.699219 C 200.816406 453.214844 198.542969 453.214844 198.542969 451.699219 C 198.542969 450.179688 200.816406 450.179688 200.816406 451.699219 "/>
<path style=" stroke:none;fill-rule:nonzero;fill:rgb(100%,84.3%,0%);fill-opacity:1;" d="M 184.890625 451.699219 C 184.890625 453.214844 182.613281 453.214844 182.613281 451.699219 C 182.613281 450.179688 184.890625 450.179688 184.890625 451.699219 "/>
<path style=" stroke:none;fill-rule:nonzero;fill:rgb(100%,84.3%,0%);fill-opacity:1;" d="M 203.09375 451.699219 C 203.09375 453.214844 200.816406 453.214844 200.816406 451.699219 C 200.816406 450.179688 203.09375 450.179688 203.09375 451.699219 "/>
<path style=" stroke:none;fill-rule:nonzero;fill:rgb(100%,84.3%,0%);fill-opacity:1;" d="M 182.613281 451.699219 C 182.613281 453.214844 180.339844 453.214844 180.339844 451.699219 C 180.339844 450.179688 182.613281 450.179688 182.613281 451.699219 "/>
<path style=" stroke:none;fill-rule:nonzero;fill:rgb(100%,84.3%,0%);fill-opacity:1;" d="M 180.335938 451.699219 C 180.335938 453.214844 178.0625 453.214844 178.0625 451.699219 C 178.0625 450.179688 180.335938 450.179688 180.335938 451.699219 "/>
<path style=" stroke:none;fill-rule:nonzero;fill:rgb(100%,84.3%,0%);fill-opacity:1;" d="M 212.195312 451.699219 C 212.195312 453.214844 209.921875 453.214844 209.921875 451.699219 C 209.921875 450.179688 212.195312 450.179688 212.195312 451.699219 "/>
<path style=" stroke:none;fill-rule:nonzero;fill:rgb(100%,84.3%,0%);fill-opacity:1;" d="M 178.0625 451.699219 C 178.0625 453.214844 175.785156 453.214844 175.785156 451.699219 C 175.785156 450.179688 178.0625 450.179688 178.0625 451.699219 "/>
<path style=" stroke:none;fill-rule:nonzero;fill:rgb(100%,84.3%,0%);fill-opacity:1;" d="M 214.472656 451.699219 C 214.472656 453.214844 212.195312 453.214844 212.195312 451.699219 C 212.195312 450.179688 214.472656 450.179688 214.472656 451.699219 "/>
<path style=" stroke:none;fill-rule:nonzero;fill:rgb(100%,84.3%,0%);fill-opacity:1;" d="M 221.296875 451.699219 C 221.296875 453.214844 219.023438 453.214844 219.023438 451.699219 C 219.023438 450.179688 221.296875 450.179688 221.296875 451.699219 "/>
<path style=" stroke:none;fill-rule:nonzero;fill:rgb(100%,84.3%,0%);fill-opacity:1;" d="M 175.785156 451.699219 C 175.785156 453.214844 173.511719 453.214844 173.511719 451.699219 C 173.511719 450.179688 175.785156 450.179688 175.785156 451.699219 "/>
<path style=" stroke:none;fill-rule:nonzero;fill:rgb(100%,84.3%,0%);fill-opacity:1;" d="M 216.746094 451.699219 C 216.746094 453.214844 214.472656 453.214844 214.472656 451.699219 C 214.472656 450.179688 216.746094 450.179688 216.746094 451.699219 "/>
<path style=" stroke:none;fill-rule:nonzero;fill:rgb(100%,84.3%,0%);fill-opacity:1;" d="M 173.511719 451.699219 C 173.511719 453.214844 171.234375 453.214844 171.234375 451.699219 C 171.234375 450.179688 173.511719 450.179688 173.511719 451.699219 "/>
<path style=" stroke:none;fill-rule:nonzero;fill:rgb(100%,84.3%,0%);fill-opacity:1;" d="M 171.234375 451.699219 C 171.234375 453.214844 168.960938 453.214844 168.960938 451.699219 C 168.960938 450.179688 171.234375 450.179688 171.234375 451.699219 "/>
<path style=" stroke:none;fill-rule:nonzero;fill:rgb(100%,84.3%,0%);fill-opacity:1;" d="M 219.023438 451.699219 C 219.023438 453.214844 216.746094 453.214844 216.746094 451.699219 C 216.746094 450.179688 219.023438 450.179688 219.023438 451.699219 "/>
</g>
</svg>
