<?xml version="1.0" encoding="UTF-8"?>
<svg xmlns="http://www.w3.org/2000/svg" xmlns:xlink="http://www.w3.org/1999/xlink" width="512pt" height="512pt" viewBox="0 0 512 512" version="1.1">
<g id="surface51">
<path style=" stroke:none;fill-rule:nonzero;fill:rgb(26.7%,26.7%,26.7%);fill-opacity:1;" d="M 41.589844 0 L 470.414062 0 L 470.414062 512 L 41.589844 512 Z M 41.589844 0 "/>
<path style=" stroke:none;fill-rule:nonzero;fill:rgb(19.2%,38.8%,66.7%);fill-opacity:1;" d="M 77.324219 42.667969 L 434.675781 42.667969 L 434.675781 469.332031 L 77.324219 469.332031 Z M 77.324219 42.667969 "/>
<path style=" stroke:none;fill-rule:nonzero;fill:rgb(100%,100%,100%);fill-opacity:1;" d="M 440.835938 486.277344 C 440.835938 490.53125 437.390625 493.980469 433.136719 493.980469 C 428.882812 493.980469 425.433594 490.53125 425.433594 486.277344 C 425.433594 482.023438 428.882812 478.574219 433.136719 478.574219 C 437.390625 478.574219 440.835938 482.023438 440.835938 486.277344 "/>
<path style=" stroke:none;fill-rule:nonzero;fill:rgb(100%,100%,100%);fill-opacity:1;" d="M 434.675781 18.023438 C 434.675781 22.277344 431.226562 25.722656 426.976562 25.722656 C 422.722656 25.722656 419.273438 22.277344 419.273438 18.023438 C 419.273438 13.769531 422.722656 10.320312 426.976562 10.320312 C 431.226562 10.320312 434.675781 13.769531 434.675781 18.023438 "/>
<path style=" stroke:none;fill-rule:nonzero;fill:rgb(100%,100%,100%);fill-opacity:1;" d="M 52.679688 31.882812 C 52.679688 36.136719 49.230469 39.585938 44.976562 39.585938 C 40.722656 39.585938 37.277344 36.136719 37.277344 31.882812 C 37.277344 27.628906 40.722656 24.183594 44.976562 24.183594 C 49.230469 24.183594 52.679688 27.628906 52.679688 31.882812 "/>
<path style=" stroke:none;fill-rule:nonzero;fill:rgb(100%,100%,100%);fill-opacity:1;" d="M 505.53125 436.988281 C 505.53125 441.242188 502.082031 444.6875 497.828125 444.6875 C 493.574219 444.6875 490.128906 441.242188 490.128906 436.988281 C 490.128906 432.734375 493.574219 429.285156 497.828125 429.285156 C 502.082031 429.285156 505.53125 432.734375 505.53125 436.988281 "/>
<path style=" stroke:none;fill-rule:nonzero;fill:rgb(100%,100%,100%);fill-opacity:1;" d="M 480.886719 50.367188 C 480.886719 54.621094 477.4375 58.070312 473.183594 58.070312 C 468.929688 58.070312 465.484375 54.621094 465.484375 50.367188 C 465.484375 46.113281 468.929688 42.667969 473.183594 42.667969 C 477.4375 42.667969 480.886719 46.113281 480.886719 50.367188 "/>
<path style=" stroke:none;fill-rule:nonzero;fill:rgb(100%,100%,100%);fill-opacity:1;" d="M 26.492188 110.441406 C 26.492188 114.695312 23.046875 118.140625 18.792969 118.140625 C 14.539062 118.140625 11.089844 114.695312 11.089844 110.441406 C 11.089844 106.1875 14.539062 102.738281 18.792969 102.738281 C 23.046875 102.738281 26.492188 106.1875 26.492188 110.441406 "/>
<path style=" stroke:none;fill-rule:nonzero;fill:rgb(100%,100%,100%);fill-opacity:1;" d="M 436.214844 33.425781 C 436.214844 37.679688 432.769531 41.125 428.515625 41.125 C 424.261719 41.125 420.8125 37.679688 420.8125 33.425781 C 420.8125 29.171875 424.261719 25.722656 428.515625 25.722656 C 432.769531 25.722656 436.214844 29.171875 436.214844 33.425781 "/>
<path style=" stroke:none;fill-rule:nonzero;fill:rgb(100%,100%,100%);fill-opacity:1;" d="M 21.871094 266.011719 C 21.871094 270.265625 18.425781 273.714844 14.171875 273.714844 C 9.917969 273.714844 6.46875 270.265625 6.46875 266.011719 C 6.46875 261.757812 9.917969 258.308594 14.171875 258.308594 C 18.425781 258.308594 21.871094 261.757812 21.871094 266.011719 "/>
<path style=" stroke:none;fill-rule:nonzero;fill:rgb(100%,100%,100%);fill-opacity:1;" d="M 511.691406 161.269531 C 511.691406 165.523438 508.242188 168.972656 503.988281 168.972656 C 499.738281 168.972656 496.289062 165.523438 496.289062 161.269531 C 496.289062 157.015625 499.738281 153.570312 503.988281 153.570312 C 508.242188 153.570312 511.691406 157.015625 511.691406 161.269531 "/>
<path style=" stroke:none;fill-rule:nonzero;fill:rgb(100%,100%,100%);fill-opacity:1;" d="M 519.394531 162.8125 C 519.394531 167.066406 515.945312 170.511719 511.691406 170.511719 C 507.4375 170.511719 503.992188 167.066406 503.992188 162.8125 C 503.992188 158.558594 507.4375 155.109375 511.691406 155.109375 C 515.945312 155.109375 519.394531 158.558594 519.394531 162.8125 "/>
<path style=" stroke:none;fill-rule:nonzero;fill:rgb(100%,100%,100%);fill-opacity:1;" d="M 494.75 247.527344 C 494.75 251.78125 491.300781 255.230469 487.046875 255.230469 C 482.792969 255.230469 479.34375 251.78125 479.34375 247.527344 C 479.34375 243.273438 482.792969 239.828125 487.046875 239.828125 C 491.300781 239.828125 494.75 243.273438 494.75 247.527344 "/>
<path style=" stroke:none;fill-rule:nonzero;fill:rgb(100%,100%,100%);fill-opacity:1;" d="M 499.371094 436.988281 C 499.371094 441.242188 495.921875 444.6875 491.667969 444.6875 C 487.414062 444.6875 483.964844 441.242188 483.964844 436.988281 C 483.964844 432.734375 487.414062 429.285156 491.667969 429.285156 C 495.921875 429.285156 499.371094 432.734375 499.371094 436.988281 "/>
<path style=" stroke:none;fill-rule:nonzero;fill:rgb(100%,100%,100%);fill-opacity:1;" d="M 209.789062 475.496094 C 209.789062 479.75 206.34375 483.195312 202.089844 483.195312 C 197.835938 483.195312 194.386719 479.75 194.386719 475.496094 C 194.386719 471.242188 197.835938 467.792969 202.089844 467.792969 C 206.34375 467.792969 209.789062 471.242188 209.789062 475.496094 "/>
<path style=" stroke:none;fill-rule:nonzero;fill:rgb(100%,100%,100%);fill-opacity:1;" d="M 496.289062 224.425781 C 496.289062 228.675781 492.839844 232.125 488.585938 232.125 C 484.332031 232.125 480.886719 228.675781 480.886719 224.425781 C 480.886719 220.171875 484.332031 216.722656 488.585938 216.722656 C 492.839844 216.722656 496.289062 220.171875 496.289062 224.425781 "/>
<path style=" stroke:none;fill-rule:nonzero;fill:rgb(100%,100%,100%);fill-opacity:1;" d="M 51.136719 432.367188 C 51.136719 436.621094 47.691406 440.066406 43.4375 440.066406 C 39.183594 440.066406 35.734375 436.621094 35.734375 432.367188 C 35.734375 428.113281 39.183594 424.664062 43.4375 424.664062 C 47.691406 424.664062 51.136719 428.113281 51.136719 432.367188 "/>
<path style=" stroke:none;fill-rule:nonzero;fill:rgb(100%,100%,100%);fill-opacity:1;" d="M 451.621094 38.046875 C 451.621094 42.300781 448.171875 45.746094 443.917969 45.746094 C 439.664062 45.746094 436.214844 42.300781 436.214844 38.046875 C 436.214844 33.792969 439.664062 30.34375 443.917969 30.34375 C 448.171875 30.34375 451.621094 33.792969 451.621094 38.046875 "/>
<path style=" stroke:none;fill-rule:nonzero;fill:rgb(100%,100%,100%);fill-opacity:1;" d="M 178.984375 28.804688 C 178.984375 33.058594 175.535156 36.503906 171.28125 36.503906 C 167.03125 36.503906 163.582031 33.058594 163.582031 28.804688 C 163.582031 24.550781 167.03125 21.101562 171.28125 21.101562 C 175.535156 21.101562 178.984375 24.550781 178.984375 28.804688 "/>
<path style=" stroke:none;fill-rule:nonzero;fill:rgb(100%,100%,100%);fill-opacity:1;" d="M 460.863281 262.929688 C 460.863281 267.183594 457.414062 270.632812 453.160156 270.632812 C 448.90625 270.632812 445.457031 267.183594 445.457031 262.929688 C 445.457031 258.675781 448.90625 255.230469 453.160156 255.230469 C 457.414062 255.230469 460.863281 258.675781 460.863281 262.929688 "/>
<path style=" stroke:none;fill-rule:nonzero;fill:rgb(100%,100%,100%);fill-opacity:1;" d="M 491.667969 395.398438 C 491.667969 399.652344 488.21875 403.097656 483.964844 403.097656 C 479.710938 403.097656 476.265625 399.652344 476.265625 395.398438 C 476.265625 391.144531 479.710938 387.695312 483.964844 387.695312 C 488.21875 387.695312 491.667969 391.144531 491.667969 395.398438 "/>
<path style=" stroke:none;fill-rule:nonzero;fill:rgb(100%,100%,100%);fill-opacity:1;" d="M 51.136719 152.027344 C 51.136719 156.28125 47.691406 159.730469 43.4375 159.730469 C 39.183594 159.730469 35.734375 156.28125 35.734375 152.027344 C 35.734375 147.777344 39.183594 144.328125 43.4375 144.328125 C 47.691406 144.328125 51.136719 147.777344 51.136719 152.027344 "/>
<path style=" stroke:none;fill-rule:nonzero;fill:rgb(100%,100%,100%);fill-opacity:1;" d="M 500.910156 477.035156 C 500.910156 481.289062 497.460938 484.738281 493.207031 484.738281 C 488.953125 484.738281 485.507812 481.289062 485.507812 477.035156 C 485.507812 472.78125 488.953125 469.332031 493.207031 469.332031 C 497.460938 469.332031 500.910156 472.78125 500.910156 477.035156 "/>
<path style=" stroke:none;fill-rule:nonzero;fill:rgb(100%,100%,100%);fill-opacity:1;" d="M 517.855469 352.269531 C 517.855469 356.523438 514.40625 359.972656 510.152344 359.972656 C 505.898438 359.972656 502.449219 356.523438 502.449219 352.269531 C 502.449219 348.015625 505.898438 344.570312 510.152344 344.570312 C 514.40625 344.570312 517.855469 348.015625 517.855469 352.269531 "/>
<path style=" stroke:none;fill-rule:nonzero;fill:rgb(100%,100%,100%);fill-opacity:1;" d="M 413.113281 11.859375 C 413.113281 16.113281 409.664062 19.5625 405.410156 19.5625 C 401.15625 19.5625 397.707031 16.113281 397.707031 11.859375 C 397.707031 7.605469 401.15625 4.160156 405.410156 4.160156 C 409.664062 4.160156 413.113281 7.605469 413.113281 11.859375 "/>
<path style=" stroke:none;fill-rule:nonzero;fill:rgb(100%,100%,100%);fill-opacity:1;" d="M 32.65625 510.921875 C 32.65625 515.175781 29.207031 518.625 24.953125 518.625 C 20.699219 518.625 17.25 515.175781 17.25 510.921875 C 17.25 506.667969 20.699219 503.21875 24.953125 503.21875 C 29.207031 503.21875 32.65625 506.667969 32.65625 510.921875 "/>
<path style=" stroke:none;fill-rule:nonzero;fill:rgb(100%,100%,100%);fill-opacity:1;" d="M 263.703125 473.953125 C 263.703125 478.207031 260.253906 481.65625 256 481.65625 C 251.746094 481.65625 248.296875 478.207031 248.296875 473.953125 C 248.296875 469.699219 251.746094 466.253906 256 466.253906 C 260.253906 466.253906 263.703125 469.699219 263.703125 473.953125 "/>
<path style=" stroke:none;fill-rule:nonzero;fill:rgb(100%,100%,100%);fill-opacity:1;" d="M 497.828125 227.503906 C 497.828125 231.757812 494.382812 235.207031 490.128906 235.207031 C 485.875 235.207031 482.425781 231.757812 482.425781 227.503906 C 482.425781 223.25 485.875 219.800781 490.128906 219.800781 C 494.382812 219.800781 497.828125 223.25 497.828125 227.503906 "/>
<path style=" stroke:none;fill-rule:nonzero;fill:rgb(100%,100%,100%);fill-opacity:1;" d="M 29.574219 108.898438 C 29.574219 113.152344 26.125 116.601562 21.871094 116.601562 C 17.617188 116.601562 14.171875 113.152344 14.171875 108.898438 C 14.171875 104.648438 17.617188 101.199219 21.871094 101.199219 C 26.125 101.199219 29.574219 104.648438 29.574219 108.898438 "/>
<path style=" stroke:none;fill-rule:nonzero;fill:rgb(100%,100%,100%);fill-opacity:1;" d="M 468.5625 162.8125 C 468.5625 167.066406 465.117188 170.511719 460.863281 170.511719 C 456.609375 170.511719 453.160156 167.066406 453.160156 162.8125 C 453.160156 158.558594 456.609375 155.109375 460.863281 155.109375 C 465.117188 155.109375 468.5625 158.558594 468.5625 162.8125 "/>
<path style=" stroke:none;fill-rule:nonzero;fill:rgb(100%,100%,100%);fill-opacity:1;" d="M 21.871094 429.285156 C 21.871094 433.539062 18.425781 436.988281 14.171875 436.988281 C 9.917969 436.988281 6.46875 433.539062 6.46875 429.285156 C 6.46875 425.03125 9.917969 421.582031 14.171875 421.582031 C 18.425781 421.582031 21.871094 425.03125 21.871094 429.285156 "/>
<path style=" stroke:none;fill-rule:nonzero;fill:rgb(100%,100%,100%);fill-opacity:1;" d="M 494.75 412.34375 C 494.75 416.59375 491.300781 420.042969 487.046875 420.042969 C 482.792969 420.042969 479.34375 416.59375 479.34375 412.34375 C 479.34375 408.089844 482.792969 404.640625 487.046875 404.640625 C 491.300781 404.640625 494.75 408.089844 494.75 412.34375 "/>
<path style=" stroke:none;fill-rule:nonzero;fill:rgb(100%,100%,100%);fill-opacity:1;" d="M 493.207031 212.101562 C 493.207031 216.355469 489.761719 219.800781 485.507812 219.800781 C 481.253906 219.800781 477.804688 216.355469 477.804688 212.101562 C 477.804688 207.847656 481.253906 204.398438 485.507812 204.398438 C 489.761719 204.398438 493.207031 207.847656 493.207031 212.101562 "/>
<path style=" stroke:none;fill-rule:nonzero;fill:rgb(100%,100%,100%);fill-opacity:1;" d="M 118.914062 486.277344 C 118.914062 490.53125 115.464844 493.980469 111.210938 493.980469 C 106.957031 493.980469 103.507812 490.53125 103.507812 486.277344 C 103.507812 482.023438 106.957031 478.574219 111.210938 478.574219 C 115.464844 478.574219 118.914062 482.023438 118.914062 486.277344 "/>
<path style=" stroke:none;fill-rule:nonzero;fill:rgb(100%,100%,100%);fill-opacity:1;" d="M 29.574219 287.574219 C 29.574219 291.828125 26.125 295.277344 21.871094 295.277344 C 17.617188 295.277344 14.171875 291.828125 14.171875 287.574219 C 14.171875 283.324219 17.617188 279.875 21.871094 279.875 C 26.125 279.875 29.574219 283.324219 29.574219 287.574219 "/>
<path style=" stroke:none;fill-rule:nonzero;fill:rgb(100%,100%,100%);fill-opacity:1;" d="M 319.152344 21.101562 C 319.152344 25.355469 315.703125 28.804688 311.449219 28.804688 C 307.199219 28.804688 303.75 25.355469 303.75 21.101562 C 303.75 16.847656 307.199219 13.402344 311.449219 13.402344 C 315.703125 13.402344 319.152344 16.847656 319.152344 21.101562 "/>
<path style=" stroke:none;fill-rule:nonzero;fill:rgb(100%,100%,100%);fill-opacity:1;" d="M 450.078125 209.019531 C 450.078125 213.273438 446.632812 216.722656 442.378906 216.722656 C 438.125 216.722656 434.675781 213.273438 434.675781 209.019531 C 434.675781 204.765625 438.125 201.320312 442.378906 201.320312 C 446.632812 201.320312 450.078125 204.765625 450.078125 209.019531 "/>
<path style=" stroke:none;fill-rule:nonzero;fill:rgb(100%,100%,100%);fill-opacity:1;" d="M 211.332031 4.160156 C 211.332031 8.414062 207.882812 11.859375 203.628906 11.859375 C 199.375 11.859375 195.925781 8.414062 195.925781 4.160156 C 195.925781 -0.09375 199.375 -3.542969 203.628906 -3.542969 C 207.882812 -3.542969 211.332031 -0.09375 211.332031 4.160156 "/>
<path style=" stroke:none;fill-rule:nonzero;fill:rgb(100%,100%,100%);fill-opacity:1;" d="M 402.328125 501.679688 C 402.328125 505.933594 398.882812 509.382812 394.628906 509.382812 C 390.375 509.382812 386.925781 505.933594 386.925781 501.679688 C 386.925781 497.425781 390.375 493.976562 394.628906 493.976562 C 398.882812 493.976562 402.328125 497.425781 402.328125 501.679688 "/>
<path style=" stroke:none;fill-rule:nonzero;fill:rgb(100%,100%,100%);fill-opacity:1;" d="M 471.644531 13.402344 C 471.644531 17.65625 468.195312 21.101562 463.941406 21.101562 C 459.6875 21.101562 456.242188 17.65625 456.242188 13.402344 C 456.242188 9.148438 459.6875 5.699219 463.941406 5.699219 C 468.195312 5.699219 471.644531 9.148438 471.644531 13.402344 "/>
<path style=" stroke:none;fill-rule:nonzero;fill:rgb(100%,100%,100%);fill-opacity:1;" d="M 425.433594 10.320312 C 425.433594 14.574219 421.988281 18.023438 417.734375 18.023438 C 413.480469 18.023438 410.03125 14.574219 410.03125 10.320312 C 410.03125 6.066406 413.480469 2.617188 417.734375 2.617188 C 421.988281 2.617188 425.433594 6.066406 425.433594 10.320312 "/>
<path style=" stroke:none;fill-rule:nonzero;fill:rgb(100%,100%,100%);fill-opacity:1;" d="M 497.828125 420.042969 C 497.828125 424.296875 494.382812 427.746094 490.128906 427.746094 C 485.875 427.746094 482.425781 424.296875 482.425781 420.042969 C 482.425781 415.789062 485.875 412.339844 490.128906 412.339844 C 494.382812 412.339844 497.828125 415.789062 497.828125 420.042969 "/>
<path style=" stroke:none;fill-rule:nonzero;fill:rgb(100%,100%,100%);fill-opacity:1;" d="M 462.402344 489.355469 C 462.402344 493.609375 458.953125 497.058594 454.699219 497.058594 C 450.445312 497.058594 447 493.609375 447 489.355469 C 447 485.105469 450.445312 481.65625 454.699219 481.65625 C 458.953125 481.65625 462.402344 485.105469 462.402344 489.355469 "/>
<path style=" stroke:none;fill-rule:nonzero;fill:rgb(100%,100%,100%);fill-opacity:1;" d="M 448.539062 108.898438 C 448.539062 113.152344 445.089844 116.601562 440.839844 116.601562 C 436.585938 116.601562 433.136719 113.152344 433.136719 108.898438 C 433.136719 104.648438 436.585938 101.199219 440.839844 101.199219 C 445.089844 101.199219 448.539062 104.648438 448.539062 108.898438 "/>
<path style=" stroke:none;fill-rule:nonzero;fill:rgb(100%,100%,100%);fill-opacity:1;" d="M 454.699219 13.402344 C 454.699219 17.65625 451.253906 21.101562 447 21.101562 C 442.746094 21.101562 439.296875 17.65625 439.296875 13.402344 C 439.296875 9.148438 442.746094 5.699219 447 5.699219 C 451.253906 5.699219 454.699219 9.148438 454.699219 13.402344 "/>
<path style=" stroke:none;fill-rule:nonzero;fill:rgb(100%,100%,100%);fill-opacity:1;" d="M 517.855469 335.324219 C 517.855469 339.578125 514.40625 343.027344 510.152344 343.027344 C 505.898438 343.027344 502.449219 339.578125 502.449219 335.324219 C 502.449219 331.074219 505.898438 327.625 510.152344 327.625 C 514.40625 327.625 517.855469 331.074219 517.855469 335.324219 "/>
<path style=" stroke:none;fill-rule:nonzero;fill:rgb(100%,100%,100%);fill-opacity:1;" d="M 71.164062 196.699219 C 71.164062 200.953125 67.714844 204.398438 63.460938 204.398438 C 59.207031 204.398438 55.757812 200.953125 55.757812 196.699219 C 55.757812 192.445312 59.207031 188.996094 63.460938 188.996094 C 67.714844 188.996094 71.164062 192.445312 71.164062 196.699219 "/>
<path style=" stroke:none;fill-rule:nonzero;fill:rgb(100%,100%,100%);fill-opacity:1;" d="M 483.964844 501.679688 C 483.964844 505.933594 480.519531 509.382812 476.265625 509.382812 C 472.011719 509.382812 468.5625 505.933594 468.5625 501.679688 C 468.5625 497.425781 472.011719 493.976562 476.265625 493.976562 C 480.519531 493.976562 483.964844 497.425781 483.964844 501.679688 "/>
<path style=" stroke:none;fill-rule:nonzero;fill:rgb(100%,100%,100%);fill-opacity:1;" d="M 382.304688 486.277344 C 382.304688 490.53125 378.859375 493.980469 374.605469 493.980469 C 370.351562 493.980469 366.902344 490.53125 366.902344 486.277344 C 366.902344 482.023438 370.351562 478.574219 374.605469 478.574219 C 378.859375 478.574219 382.304688 482.023438 382.304688 486.277344 "/>
<path style=" stroke:none;fill-rule:nonzero;fill:rgb(100%,100%,100%);fill-opacity:1;" d="M 205.167969 475.496094 C 205.167969 479.75 201.722656 483.195312 197.46875 483.195312 C 193.214844 483.195312 189.765625 479.75 189.765625 475.496094 C 189.765625 471.242188 193.214844 467.792969 197.46875 467.792969 C 201.722656 467.792969 205.167969 471.242188 205.167969 475.496094 "/>
<path style=" stroke:none;fill-rule:nonzero;fill:rgb(100%,100%,100%);fill-opacity:1;" d="M 422.355469 13.402344 C 422.355469 17.65625 418.90625 21.101562 414.652344 21.101562 C 410.398438 21.101562 406.949219 17.65625 406.949219 13.402344 C 406.949219 9.148438 410.398438 5.699219 414.652344 5.699219 C 418.90625 5.699219 422.355469 9.148438 422.355469 13.402344 "/>
<path style=" stroke:none;fill-rule:nonzero;fill:rgb(100%,100%,100%);fill-opacity:1;" d="M 51.136719 118.140625 C 51.136719 122.394531 47.691406 125.84375 43.4375 125.84375 C 39.183594 125.84375 35.734375 122.394531 35.734375 118.140625 C 35.734375 113.886719 39.183594 110.441406 43.4375 110.441406 C 47.691406 110.441406 51.136719 113.886719 51.136719 118.140625 "/>
<path style=" stroke:none;fill-rule:nonzero;fill:rgb(100%,100%,100%);fill-opacity:1;" d="M 46.515625 279.875 C 46.515625 284.128906 43.070312 287.578125 38.816406 287.578125 C 34.5625 287.578125 31.113281 284.128906 31.113281 279.875 C 31.113281 275.621094 34.5625 272.171875 38.816406 272.171875 C 43.070312 272.171875 46.515625 275.621094 46.515625 279.875 "/>
<path style=" stroke:none;fill-rule:nonzero;fill:rgb(100%,100%,100%);fill-opacity:1;" d="M 28.035156 14.941406 C 28.035156 19.195312 24.585938 22.640625 20.332031 22.640625 C 16.078125 22.640625 12.628906 19.195312 12.628906 14.941406 C 12.628906 10.6875 16.078125 7.238281 20.332031 7.238281 C 24.585938 7.238281 28.035156 10.6875 28.035156 14.941406 "/>
<path style=" stroke:none;fill-rule:nonzero;fill:rgb(100%,100%,100%);fill-opacity:1;" d="M 462.402344 -0.460938 C 462.402344 3.792969 458.953125 7.238281 454.699219 7.238281 C 450.445312 7.238281 447 3.792969 447 -0.460938 C 447 -4.714844 450.445312 -8.164062 454.699219 -8.164062 C 458.953125 -8.164062 462.402344 -4.714844 462.402344 -0.460938 "/>
<path style=" stroke:none;fill-rule:nonzero;fill:rgb(100%,100%,100%);fill-opacity:1;" d="M 111.210938 495.519531 C 111.210938 499.773438 107.761719 503.21875 103.507812 503.21875 C 99.253906 503.21875 95.808594 499.773438 95.808594 495.519531 C 95.808594 491.265625 99.253906 487.816406 103.507812 487.816406 C 107.761719 487.816406 111.210938 491.265625 111.210938 495.519531 "/>
<path style=" stroke:none;fill-rule:nonzero;fill:rgb(100%,100%,100%);fill-opacity:1;" d="M 41.898438 145.867188 C 41.898438 150.121094 38.449219 153.570312 34.195312 153.570312 C 29.941406 153.570312 26.492188 150.121094 26.492188 145.867188 C 26.492188 141.613281 29.941406 138.167969 34.195312 138.167969 C 38.449219 138.167969 41.898438 141.613281 41.898438 145.867188 "/>
<path style=" stroke:none;fill-rule:nonzero;fill:rgb(100%,100%,100%);fill-opacity:1;" d="M 479.34375 452.390625 C 479.34375 456.644531 475.898438 460.089844 471.644531 460.089844 C 467.390625 460.089844 463.941406 456.644531 463.941406 452.390625 C 463.941406 448.136719 467.390625 444.6875 471.644531 444.6875 C 475.898438 444.6875 479.34375 448.136719 479.34375 452.390625 "/>
<path style=" stroke:none;fill-rule:nonzero;fill:rgb(100%,100%,100%);fill-opacity:1;" d="M 26.492188 272.171875 C 26.492188 276.425781 23.046875 279.875 18.792969 279.875 C 14.539062 279.875 11.089844 276.425781 11.089844 272.171875 C 11.089844 267.917969 14.539062 264.472656 18.792969 264.472656 C 23.046875 264.472656 26.492188 267.917969 26.492188 272.171875 "/>
<path style=" stroke:none;fill-rule:nonzero;fill:rgb(100%,100%,100%);fill-opacity:1;" d="M 52.679688 514.003906 C 52.679688 518.253906 49.230469 521.703125 44.976562 521.703125 C 40.722656 521.703125 37.277344 518.253906 37.277344 514.003906 C 37.277344 509.75 40.722656 506.300781 44.976562 506.300781 C 49.230469 506.300781 52.679688 509.75 52.679688 514.003906 "/>
<path style=" stroke:none;fill-rule:nonzero;fill:rgb(100%,100%,100%);fill-opacity:1;" d="M 101.96875 21.101562 C 101.96875 25.355469 98.519531 28.804688 94.265625 28.804688 C 90.011719 28.804688 86.566406 25.355469 86.566406 21.101562 C 86.566406 16.847656 90.011719 13.402344 94.265625 13.402344 C 98.519531 13.402344 101.96875 16.847656 101.96875 21.101562 "/>
<path style=" stroke:none;fill-rule:nonzero;fill:rgb(100%,100%,100%);fill-opacity:1;" d="M 500.910156 489.355469 C 500.910156 493.609375 497.460938 497.058594 493.207031 497.058594 C 488.953125 497.058594 485.507812 493.609375 485.507812 489.355469 C 485.507812 485.105469 488.953125 481.65625 493.207031 481.65625 C 497.460938 481.65625 500.910156 485.105469 500.910156 489.355469 "/>
<path style=" stroke:none;fill-rule:nonzero;fill:rgb(100%,100%,100%);fill-opacity:1;" d="M 299.128906 480.117188 C 299.128906 484.371094 295.679688 487.816406 291.425781 487.816406 C 287.171875 487.816406 283.726562 484.371094 283.726562 480.117188 C 283.726562 475.863281 287.171875 472.414062 291.425781 472.414062 C 295.679688 472.414062 299.128906 475.863281 299.128906 480.117188 "/>
<path style=" stroke:none;fill-rule:nonzero;fill:rgb(100%,100%,100%);fill-opacity:1;" d="M 477.804688 355.351562 C 477.804688 359.601562 474.355469 363.050781 470.101562 363.050781 C 465.847656 363.050781 462.402344 359.601562 462.402344 355.351562 C 462.402344 351.097656 465.847656 347.648438 470.101562 347.648438 C 474.355469 347.648438 477.804688 351.097656 477.804688 355.351562 "/>
<path style=" stroke:none;fill-rule:nonzero;fill:rgb(100%,100%,100%);fill-opacity:1;" d="M 320.695312 31.882812 C 320.695312 36.136719 317.246094 39.585938 312.992188 39.585938 C 308.738281 39.585938 305.289062 36.136719 305.289062 31.882812 C 305.289062 27.628906 308.738281 24.183594 312.992188 24.183594 C 317.246094 24.183594 320.695312 27.628906 320.695312 31.882812 "/>
<path style=" stroke:none;fill-rule:nonzero;fill:rgb(100%,100%,100%);fill-opacity:1;" d="M 425.433594 21.101562 C 425.433594 25.355469 421.988281 28.804688 417.734375 28.804688 C 413.480469 28.804688 410.03125 25.355469 410.03125 21.101562 C 410.03125 16.847656 413.480469 13.402344 417.734375 13.402344 C 421.988281 13.402344 425.433594 16.847656 425.433594 21.101562 "/>
<path style=" stroke:none;fill-rule:nonzero;fill:rgb(100%,100%,100%);fill-opacity:1;" d="M 63.460938 172.054688 C 63.460938 176.304688 60.011719 179.753906 55.757812 179.753906 C 51.503906 179.753906 48.058594 176.304688 48.058594 172.054688 C 48.058594 167.800781 51.503906 164.351562 55.757812 164.351562 C 60.011719 164.351562 63.460938 167.800781 63.460938 172.054688 "/>
<path style=" stroke:none;fill-rule:nonzero;fill:rgb(100%,100%,100%);fill-opacity:1;" d="M 78.863281 156.648438 C 78.863281 160.902344 75.414062 164.351562 71.160156 164.351562 C 66.910156 164.351562 63.460938 160.902344 63.460938 156.648438 C 63.460938 152.398438 66.910156 148.949219 71.160156 148.949219 C 75.414062 148.949219 78.863281 152.398438 78.863281 156.648438 "/>
<path style=" stroke:none;fill-rule:nonzero;fill:rgb(100%,84.3%,0%);fill-opacity:1;" d="M 143.558594 278.335938 C 143.558594 282.589844 140.109375 286.035156 135.855469 286.035156 C 131.601562 286.035156 128.15625 282.589844 128.15625 278.335938 C 128.15625 274.082031 131.601562 270.632812 135.855469 270.632812 C 140.109375 270.632812 143.558594 274.082031 143.558594 278.335938 "/>
<path style=" stroke:none;fill-rule:nonzero;fill:rgb(100%,84.3%,0%);fill-opacity:1;" d="M 297.589844 202.859375 C 297.589844 207.113281 294.140625 210.5625 289.886719 210.5625 C 285.632812 210.5625 282.183594 207.113281 282.183594 202.859375 C 282.183594 198.605469 285.632812 195.15625 289.886719 195.15625 C 294.140625 195.15625 297.589844 198.605469 297.589844 202.859375 "/>
<path style=" stroke:none;fill-rule:nonzero;fill:rgb(100%,84.3%,0%);fill-opacity:1;" d="M 202.089844 266.011719 C 202.089844 270.265625 198.640625 273.714844 194.386719 273.714844 C 190.132812 273.714844 186.683594 270.265625 186.683594 266.011719 C 186.683594 261.757812 190.132812 258.308594 194.386719 258.308594 C 198.640625 258.308594 202.089844 261.757812 202.089844 266.011719 "/>
<path style=" stroke:none;fill-rule:nonzero;fill:rgb(100%,84.3%,0%);fill-opacity:1;" d="M 222.113281 275.253906 C 222.113281 279.507812 218.664062 282.957031 214.410156 282.957031 C 210.160156 282.957031 206.710938 279.507812 206.710938 275.253906 C 206.710938 271 210.160156 267.550781 214.410156 267.550781 C 218.664062 267.550781 222.113281 271 222.113281 275.253906 "/>
<path style=" stroke:none;fill-rule:nonzero;fill:rgb(100%,84.3%,0%);fill-opacity:1;" d="M 209.789062 209.019531 C 209.789062 213.273438 206.34375 216.722656 202.089844 216.722656 C 197.835938 216.722656 194.386719 213.273438 194.386719 209.019531 C 194.386719 204.765625 197.835938 201.320312 202.089844 201.320312 C 206.34375 201.320312 209.789062 204.765625 209.789062 209.019531 "/>
<path style=" stroke:none;fill-rule:nonzero;fill:rgb(100%,84.3%,0%);fill-opacity:1;" d="M 117.371094 75.011719 C 117.371094 79.265625 113.921875 82.714844 109.671875 82.714844 C 105.417969 82.714844 101.96875 79.265625 101.96875 75.011719 C 101.96875 70.757812 105.417969 67.3125 109.671875 67.3125 C 113.921875 67.3125 117.371094 70.757812 117.371094 75.011719 "/>
<path style=" stroke:none;fill-rule:nonzero;fill:rgb(100%,84.3%,0%);fill-opacity:1;" d="M 192.847656 310.679688 C 192.847656 314.933594 189.398438 318.382812 185.144531 318.382812 C 180.890625 318.382812 177.445312 314.933594 177.445312 310.679688 C 177.445312 306.425781 180.890625 302.980469 185.144531 302.980469 C 189.398438 302.980469 192.847656 306.425781 192.847656 310.679688 "/>
<path style=" stroke:none;fill-rule:nonzero;fill:rgb(100%,84.3%,0%);fill-opacity:1;" d="M 391.546875 256.769531 C 391.546875 261.023438 388.097656 264.472656 383.847656 264.472656 C 379.59375 264.472656 376.144531 261.023438 376.144531 256.769531 C 376.144531 252.515625 379.59375 249.070312 383.847656 249.070312 C 388.097656 249.070312 391.546875 252.515625 391.546875 256.769531 "/>
<path style=" stroke:none;fill-rule:nonzero;fill:rgb(100%,84.3%,0%);fill-opacity:1;" d="M 314.53125 164.351562 C 314.53125 168.605469 311.082031 172.050781 306.828125 172.050781 C 302.578125 172.050781 299.128906 168.605469 299.128906 164.351562 C 299.128906 160.097656 302.578125 156.648438 306.828125 156.648438 C 311.082031 156.648438 314.53125 160.097656 314.53125 164.351562 "/>
<path style=" stroke:none;fill-rule:nonzero;fill:rgb(100%,84.3%,0%);fill-opacity:1;" d="M 203.628906 139.707031 C 203.628906 143.960938 200.179688 147.40625 195.929688 147.40625 C 191.675781 147.40625 188.226562 143.960938 188.226562 139.707031 C 188.226562 135.453125 191.675781 132.003906 195.929688 132.003906 C 200.179688 132.003906 203.628906 135.453125 203.628906 139.707031 "/>
<path style=" stroke:none;fill-rule:nonzero;fill:rgb(100%,84.3%,0%);fill-opacity:1;" d="M 294.507812 376.914062 C 294.507812 381.167969 291.058594 384.617188 286.804688 384.617188 C 282.550781 384.617188 279.105469 381.167969 279.105469 376.914062 C 279.105469 372.660156 282.550781 369.214844 286.804688 369.214844 C 291.058594 369.214844 294.507812 372.660156 294.507812 376.914062 "/>
<path style=" stroke:none;fill-rule:nonzero;fill:rgb(100%,84.3%,0%);fill-opacity:1;" d="M 134.316406 239.828125 C 134.316406 244.082031 130.867188 247.527344 126.613281 247.527344 C 122.359375 247.527344 118.914062 244.082031 118.914062 239.828125 C 118.914062 235.574219 122.359375 232.125 126.613281 232.125 C 130.867188 232.125 134.316406 235.574219 134.316406 239.828125 "/>
<path style=" stroke:none;fill-rule:nonzero;fill:rgb(100%,84.3%,0%);fill-opacity:1;" d="M 288.347656 229.046875 C 288.347656 233.296875 284.898438 236.746094 280.644531 236.746094 C 276.390625 236.746094 272.945312 233.296875 272.945312 229.046875 C 272.945312 224.792969 276.390625 221.34375 280.644531 221.34375 C 284.898438 221.34375 288.347656 224.792969 288.347656 229.046875 "/>
<path style=" stroke:none;fill-rule:nonzero;fill:rgb(100%,84.3%,0%);fill-opacity:1;" d="M 142.015625 375.375 C 142.015625 379.628906 138.570312 383.074219 134.316406 383.074219 C 130.0625 383.074219 126.613281 379.628906 126.613281 375.375 C 126.613281 371.121094 130.0625 367.671875 134.316406 367.671875 C 138.570312 367.671875 142.015625 371.121094 142.015625 375.375 "/>
<path style=" stroke:none;fill-rule:nonzero;fill:rgb(100%,84.3%,0%);fill-opacity:1;" d="M 426.972656 130.464844 C 426.972656 134.71875 423.527344 138.167969 419.273438 138.167969 C 415.019531 138.167969 411.570312 134.71875 411.570312 130.464844 C 411.570312 126.210938 415.019531 122.761719 419.273438 122.761719 C 423.527344 122.761719 426.972656 126.210938 426.972656 130.464844 "/>
<path style=" stroke:none;fill-rule:nonzero;fill:rgb(100%,84.3%,0%);fill-opacity:1;" d="M 269.863281 259.851562 C 269.863281 264.105469 266.414062 267.550781 262.160156 267.550781 C 257.90625 267.550781 254.460938 264.105469 254.460938 259.851562 C 254.460938 255.597656 257.90625 252.148438 262.160156 252.148438 C 266.414062 252.148438 269.863281 255.597656 269.863281 259.851562 "/>
<path style=" stroke:none;fill-rule:nonzero;fill:rgb(100%,84.3%,0%);fill-opacity:1;" d="M 316.074219 207.480469 C 316.074219 211.734375 312.625 215.179688 308.371094 215.179688 C 304.117188 215.179688 300.667969 211.734375 300.667969 207.480469 C 300.667969 203.226562 304.117188 199.777344 308.371094 199.777344 C 312.625 199.777344 316.074219 203.226562 316.074219 207.480469 "/>
<path style=" stroke:none;fill-rule:nonzero;fill:rgb(100%,84.3%,0%);fill-opacity:1;" d="M 169.742188 175.132812 C 169.742188 179.386719 166.292969 182.835938 162.039062 182.835938 C 157.789062 182.835938 154.339844 179.386719 154.339844 175.132812 C 154.339844 170.878906 157.789062 167.433594 162.039062 167.433594 C 166.292969 167.433594 169.742188 170.878906 169.742188 175.132812 "/>
<path style=" stroke:none;fill-rule:nonzero;fill:rgb(100%,84.3%,0%);fill-opacity:1;" d="M 137.394531 396.9375 C 137.394531 401.191406 133.949219 404.640625 129.695312 404.640625 C 125.441406 404.640625 121.992188 401.191406 121.992188 396.9375 C 121.992188 392.683594 125.441406 389.238281 129.695312 389.238281 C 133.949219 389.238281 137.394531 392.683594 137.394531 396.9375 "/>
<path style=" stroke:none;fill-rule:nonzero;fill:rgb(100%,84.3%,0%);fill-opacity:1;" d="M 105.050781 98.117188 C 105.050781 102.371094 101.601562 105.820312 97.347656 105.820312 C 93.09375 105.820312 89.644531 102.371094 89.644531 98.117188 C 89.644531 93.863281 93.09375 90.417969 97.347656 90.417969 C 101.601562 90.417969 105.050781 93.863281 105.050781 98.117188 "/>
<path style=" stroke:none;fill-rule:nonzero;fill:rgb(100%,84.3%,0%);fill-opacity:1;" d="M 220.574219 312.222656 C 220.574219 316.472656 217.125 319.921875 212.871094 319.921875 C 208.617188 319.921875 205.167969 316.472656 205.167969 312.222656 C 205.167969 307.96875 208.617188 304.519531 212.871094 304.519531 C 217.125 304.519531 220.574219 307.96875 220.574219 312.222656 "/>
<path style=" stroke:none;fill-rule:nonzero;fill:rgb(100%,84.3%,0%);fill-opacity:1;" d="M 152.796875 323.003906 C 152.796875 327.257812 149.351562 330.707031 145.097656 330.707031 C 140.84375 330.707031 137.394531 327.257812 137.394531 323.003906 C 137.394531 318.75 140.84375 315.300781 145.097656 315.300781 C 149.351562 315.300781 152.796875 318.75 152.796875 323.003906 "/>
<path style=" stroke:none;fill-rule:nonzero;fill:rgb(100%,84.3%,0%);fill-opacity:1;" d="M 145.097656 127.382812 C 145.097656 131.636719 141.648438 135.085938 137.394531 135.085938 C 133.140625 135.085938 129.695312 131.636719 129.695312 127.382812 C 129.695312 123.128906 133.140625 119.683594 137.394531 119.683594 C 141.648438 119.683594 145.097656 123.128906 145.097656 127.382812 "/>
<path style=" stroke:none;fill-rule:nonzero;fill:rgb(100%,84.3%,0%);fill-opacity:1;" d="M 356.121094 138.164062 C 356.121094 142.417969 352.671875 145.867188 348.417969 145.867188 C 344.164062 145.867188 340.71875 142.417969 340.71875 138.164062 C 340.71875 133.914062 344.164062 130.464844 348.417969 130.464844 C 352.671875 130.464844 356.121094 133.914062 356.121094 138.164062 "/>
<path style=" stroke:none;fill-rule:nonzero;fill:rgb(100%,84.3%,0%);fill-opacity:1;" d="M 165.121094 250.609375 C 165.121094 254.863281 161.671875 258.3125 157.421875 258.3125 C 153.167969 258.3125 149.71875 254.863281 149.71875 250.609375 C 149.71875 246.355469 153.167969 242.90625 157.421875 242.90625 C 161.671875 242.90625 165.121094 246.355469 165.121094 250.609375 "/>
<path style=" stroke:none;fill-rule:nonzero;fill:rgb(100%,84.3%,0%);fill-opacity:1;" d="M 118.914062 255.230469 C 118.914062 259.484375 115.464844 262.929688 111.210938 262.929688 C 106.957031 262.929688 103.507812 259.484375 103.507812 255.230469 C 103.507812 250.976562 106.957031 247.527344 111.210938 247.527344 C 115.464844 247.527344 118.914062 250.976562 118.914062 255.230469 "/>
<path style=" stroke:none;fill-rule:nonzero;fill:rgb(100%,84.3%,0%);fill-opacity:1;" d="M 400.789062 133.546875 C 400.789062 137.796875 397.339844 141.246094 393.089844 141.246094 C 388.835938 141.246094 385.386719 137.796875 385.386719 133.546875 C 385.386719 129.292969 388.835938 125.84375 393.089844 125.84375 C 397.339844 125.84375 400.789062 129.292969 400.789062 133.546875 "/>
<path style=" stroke:none;fill-rule:nonzero;fill:rgb(100%,84.3%,0%);fill-opacity:1;" d="M 251.378906 135.085938 C 251.378906 139.339844 247.929688 142.785156 243.675781 142.785156 C 239.421875 142.785156 235.976562 139.339844 235.976562 135.085938 C 235.976562 130.832031 239.421875 127.382812 243.675781 127.382812 C 247.929688 127.382812 251.378906 130.832031 251.378906 135.085938 "/>
<path style=" stroke:none;fill-rule:nonzero;fill:rgb(100%,84.3%,0%);fill-opacity:1;" d="M 406.949219 387.695312 C 406.949219 391.949219 403.503906 395.398438 399.25 395.398438 C 394.996094 395.398438 391.546875 391.949219 391.546875 387.695312 C 391.546875 383.445312 394.996094 379.996094 399.25 379.996094 C 403.503906 379.996094 406.949219 383.445312 406.949219 387.695312 "/>
<path style=" stroke:none;fill-rule:nonzero;fill:rgb(100%,84.3%,0%);fill-opacity:1;" d="M 243.675781 323.003906 C 243.675781 327.257812 240.230469 330.707031 235.976562 330.707031 C 231.722656 330.707031 228.273438 327.257812 228.273438 323.003906 C 228.273438 318.75 231.722656 315.300781 235.976562 315.300781 C 240.230469 315.300781 243.675781 318.75 243.675781 323.003906 "/>
<path style=" stroke:none;fill-rule:nonzero;fill:rgb(100%,84.3%,0%);fill-opacity:1;" d="M 373.0625 229.046875 C 373.0625 233.296875 369.617188 236.746094 365.363281 236.746094 C 361.109375 236.746094 357.660156 233.296875 357.660156 229.046875 C 357.660156 224.792969 361.109375 221.34375 365.363281 221.34375 C 369.617188 221.34375 373.0625 224.792969 373.0625 229.046875 "/>
<path style=" stroke:none;fill-rule:nonzero;fill:rgb(100%,84.3%,0%);fill-opacity:1;" d="M 342.257812 124.304688 C 342.257812 128.554688 338.808594 132.003906 334.554688 132.003906 C 330.300781 132.003906 326.855469 128.554688 326.855469 124.304688 C 326.855469 120.050781 330.300781 116.601562 334.554688 116.601562 C 338.808594 116.601562 342.257812 120.050781 342.257812 124.304688 "/>
<path style=" stroke:none;fill-rule:nonzero;fill:rgb(100%,84.3%,0%);fill-opacity:1;" d="M 305.289062 133.546875 C 305.289062 137.796875 301.839844 141.246094 297.589844 141.246094 C 293.335938 141.246094 289.886719 137.796875 289.886719 133.546875 C 289.886719 129.292969 293.335938 125.84375 297.589844 125.84375 C 301.839844 125.84375 305.289062 129.292969 305.289062 133.546875 "/>
<path style=" stroke:none;fill-rule:nonzero;fill:rgb(100%,84.3%,0%);fill-opacity:1;" d="M 197.46875 175.132812 C 197.46875 179.386719 194.019531 182.835938 189.765625 182.835938 C 185.511719 182.835938 182.066406 179.386719 182.066406 175.132812 C 182.066406 170.878906 185.511719 167.433594 189.765625 167.433594 C 194.019531 167.433594 197.46875 170.878906 197.46875 175.132812 "/>
<path style=" stroke:none;fill-rule:nonzero;fill:rgb(100%,84.3%,0%);fill-opacity:1;" d="M 223.652344 111.980469 C 223.652344 116.234375 220.207031 119.683594 215.953125 119.683594 C 211.699219 119.683594 208.25 116.234375 208.25 111.980469 C 208.25 107.726562 211.699219 104.28125 215.953125 104.28125 C 220.207031 104.28125 223.652344 107.726562 223.652344 111.980469 "/>
<path style=" stroke:none;fill-rule:nonzero;fill:rgb(100%,84.3%,0%);fill-opacity:1;" d="M 185.144531 333.785156 C 185.144531 338.039062 181.699219 341.488281 177.445312 341.488281 C 173.191406 341.488281 169.742188 338.039062 169.742188 333.785156 C 169.742188 329.53125 173.191406 326.085938 177.445312 326.085938 C 181.699219 326.085938 185.144531 329.53125 185.144531 333.785156 "/>
<path style=" stroke:none;fill-rule:nonzero;fill:rgb(100%,84.3%,0%);fill-opacity:1;" d="M 265.242188 423.125 C 265.242188 427.378906 261.792969 430.824219 257.539062 430.824219 C 253.285156 430.824219 249.839844 427.378906 249.839844 423.125 C 249.839844 418.871094 253.285156 415.421875 257.539062 415.421875 C 261.792969 415.421875 265.242188 418.871094 265.242188 423.125 "/>
<path style=" stroke:none;fill-rule:nonzero;fill:rgb(100%,84.3%,0%);fill-opacity:1;" d="M 373.0625 301.4375 C 373.0625 305.691406 369.617188 309.140625 365.363281 309.140625 C 361.109375 309.140625 357.660156 305.691406 357.660156 301.4375 C 357.660156 297.183594 361.109375 293.738281 365.363281 293.738281 C 369.617188 293.738281 373.0625 297.183594 373.0625 301.4375 "/>
<path style=" stroke:none;fill-rule:nonzero;fill:rgb(100%,84.3%,0%);fill-opacity:1;" d="M 302.210938 347.648438 C 302.210938 351.902344 298.761719 355.351562 294.507812 355.351562 C 290.253906 355.351562 286.804688 351.902344 286.804688 347.648438 C 286.804688 343.394531 290.253906 339.949219 294.507812 339.949219 C 298.761719 339.949219 302.210938 343.394531 302.210938 347.648438 "/>
<path style=" stroke:none;fill-rule:nonzero;fill:rgb(100%,84.3%,0%);fill-opacity:1;" d="M 175.902344 418.503906 C 175.902344 422.757812 172.457031 426.203125 168.203125 426.203125 C 163.949219 426.203125 160.5 422.757812 160.5 418.503906 C 160.5 414.25 163.949219 410.800781 168.203125 410.800781 C 172.457031 410.800781 175.902344 414.25 175.902344 418.503906 "/>
<path style=" stroke:none;fill-rule:nonzero;fill:rgb(100%,84.3%,0%);fill-opacity:1;" d="M 166.660156 125.84375 C 166.660156 130.097656 163.214844 133.546875 158.960938 133.546875 C 154.707031 133.546875 151.257812 130.097656 151.257812 125.84375 C 151.257812 121.589844 154.707031 118.140625 158.960938 118.140625 C 163.214844 118.140625 166.660156 121.589844 166.660156 125.84375 "/>
<path style=" stroke:none;fill-rule:nonzero;fill:rgb(100%,84.3%,0%);fill-opacity:1;" d="M 256 286.035156 C 256 290.289062 252.550781 293.738281 248.296875 293.738281 C 244.042969 293.738281 240.597656 290.289062 240.597656 286.035156 C 240.597656 281.78125 244.042969 278.335938 248.296875 278.335938 C 252.550781 278.335938 256 281.78125 256 286.035156 "/>
<path style=" stroke:none;fill-rule:nonzero;fill:rgb(100%,84.3%,0%);fill-opacity:1;" d="M 382.304688 201.320312 C 382.304688 205.574219 378.859375 209.019531 374.605469 209.019531 C 370.351562 209.019531 366.902344 205.574219 366.902344 201.320312 C 366.902344 197.066406 370.351562 193.617188 374.605469 193.617188 C 378.859375 193.617188 382.304688 197.066406 382.304688 201.320312 "/>
<path style=" stroke:none;fill-rule:nonzero;fill:rgb(100%,84.3%,0%);fill-opacity:1;" d="M 186.6875 101.199219 C 186.6875 105.453125 183.238281 108.902344 178.984375 108.902344 C 174.730469 108.902344 171.28125 105.453125 171.28125 101.199219 C 171.28125 96.945312 174.730469 93.496094 178.984375 93.496094 C 183.238281 93.496094 186.6875 96.945312 186.6875 101.199219 "/>
<path style=" stroke:none;fill-rule:nonzero;fill:rgb(100%,84.3%,0%);fill-opacity:1;" d="M 232.894531 175.132812 C 232.894531 179.386719 229.449219 182.835938 225.195312 182.835938 C 220.941406 182.835938 217.492188 179.386719 217.492188 175.132812 C 217.492188 170.878906 220.941406 167.433594 225.195312 167.433594 C 229.449219 167.433594 232.894531 170.878906 232.894531 175.132812 "/>
<path style=" stroke:none;fill-rule:nonzero;fill:rgb(100%,84.3%,0%);fill-opacity:1;" d="M 374.605469 162.8125 C 374.605469 167.066406 371.15625 170.511719 366.902344 170.511719 C 362.648438 170.511719 359.203125 167.066406 359.203125 162.8125 C 359.203125 158.558594 362.648438 155.109375 366.902344 155.109375 C 371.15625 155.109375 374.605469 158.558594 374.605469 162.8125 "/>
<path style=" stroke:none;fill-rule:nonzero;fill:rgb(100%,84.3%,0%);fill-opacity:1;" d="M 279.105469 188.996094 C 279.105469 193.25 275.65625 196.699219 271.402344 196.699219 C 267.148438 196.699219 263.703125 193.25 263.703125 188.996094 C 263.703125 184.742188 267.148438 181.292969 271.402344 181.292969 C 275.65625 181.292969 279.105469 184.742188 279.105469 188.996094 "/>
<path style=" stroke:none;fill-rule:nonzero;fill:rgb(100%,84.3%,0%);fill-opacity:1;" d="M 146.636719 430.824219 C 146.636719 435.078125 143.191406 438.527344 138.9375 438.527344 C 134.683594 438.527344 131.234375 435.078125 131.234375 430.824219 C 131.234375 426.574219 134.683594 423.125 138.9375 423.125 C 143.191406 423.125 146.636719 426.574219 146.636719 430.824219 "/>
<path style=" stroke:none;fill-rule:nonzero;fill:rgb(100%,84.3%,0%);fill-opacity:1;" d="M 169.742188 386.15625 C 169.742188 390.410156 166.292969 393.859375 162.039062 393.859375 C 157.789062 393.859375 154.339844 390.410156 154.339844 386.15625 C 154.339844 381.902344 157.789062 378.453125 162.039062 378.453125 C 166.292969 378.453125 169.742188 381.902344 169.742188 386.15625 "/>
<path style=" stroke:none;fill-rule:nonzero;fill:rgb(100%,84.3%,0%);fill-opacity:1;" d="M 168.203125 302.980469 C 168.203125 307.234375 164.753906 310.679688 160.5 310.679688 C 156.246094 310.679688 152.800781 307.234375 152.800781 302.980469 C 152.800781 298.726562 156.246094 295.277344 160.5 295.277344 C 164.753906 295.277344 168.203125 298.726562 168.203125 302.980469 "/>
<path style=" stroke:none;fill-rule:nonzero;fill:rgb(100%,84.3%,0%);fill-opacity:1;" d="M 422.355469 95.035156 C 422.355469 99.289062 418.90625 102.738281 414.652344 102.738281 C 410.398438 102.738281 406.949219 99.289062 406.949219 95.035156 C 406.949219 90.785156 410.398438 87.335938 414.652344 87.335938 C 418.90625 87.335938 422.355469 90.785156 422.355469 95.035156 "/>
<path style=" stroke:none;fill-rule:nonzero;fill:rgb(100%,84.3%,0%);fill-opacity:1;" d="M 286.804688 70.390625 C 286.804688 74.644531 283.359375 78.09375 279.105469 78.09375 C 274.851562 78.09375 271.402344 74.644531 271.402344 70.390625 C 271.402344 66.136719 274.851562 62.691406 279.105469 62.691406 C 283.359375 62.691406 286.804688 66.136719 286.804688 70.390625 "/>
<path style=" stroke:none;fill-rule:nonzero;fill:rgb(100%,84.3%,0%);fill-opacity:1;" d="M 131.234375 153.570312 C 131.234375 157.824219 127.785156 161.269531 123.53125 161.269531 C 119.28125 161.269531 115.832031 157.824219 115.832031 153.570312 C 115.832031 149.316406 119.28125 145.867188 123.53125 145.867188 C 127.785156 145.867188 131.234375 149.316406 131.234375 153.570312 "/>
<path style=" stroke:none;fill-rule:nonzero;fill:rgb(100%,84.3%,0%);fill-opacity:1;" d="M 360.742188 378.453125 C 360.742188 382.707031 357.292969 386.15625 353.039062 386.15625 C 348.785156 386.15625 345.339844 382.707031 345.339844 378.453125 C 345.339844 374.203125 348.785156 370.753906 353.039062 370.753906 C 357.292969 370.753906 360.742188 374.203125 360.742188 378.453125 "/>
<path style=" stroke:none;fill-rule:nonzero;fill:rgb(100%,84.3%,0%);fill-opacity:1;" d="M 105.050781 387.695312 C 105.050781 391.949219 101.601562 395.398438 97.347656 395.398438 C 93.09375 395.398438 89.644531 391.949219 89.644531 387.695312 C 89.644531 383.445312 93.09375 379.996094 97.347656 379.996094 C 101.601562 379.996094 105.050781 383.445312 105.050781 387.695312 "/>
<path style=" stroke:none;fill-rule:nonzero;fill:rgb(100%,84.3%,0%);fill-opacity:1;" d="M 194.386719 195.15625 C 194.386719 199.410156 190.941406 202.859375 186.6875 202.859375 C 182.433594 202.859375 178.984375 199.410156 178.984375 195.15625 C 178.984375 190.90625 182.433594 187.457031 186.6875 187.457031 C 190.941406 187.457031 194.386719 190.90625 194.386719 195.15625 "/>
<path style=" stroke:none;fill-rule:nonzero;fill:rgb(100%,84.3%,0%);fill-opacity:1;" d="M 413.113281 108.898438 C 413.113281 113.152344 409.664062 116.601562 405.410156 116.601562 C 401.15625 116.601562 397.707031 113.152344 397.707031 108.898438 C 397.707031 104.648438 401.15625 101.199219 405.410156 101.199219 C 409.664062 101.199219 413.113281 104.648438 413.113281 108.898438 "/>
<path style=" stroke:none;fill-rule:nonzero;fill:rgb(100%,84.3%,0%);fill-opacity:1;" d="M 226.734375 68.851562 C 226.734375 73.105469 223.285156 76.554688 219.03125 76.554688 C 214.777344 76.554688 211.332031 73.105469 211.332031 68.851562 C 211.332031 64.597656 214.777344 61.152344 219.03125 61.152344 C 223.285156 61.152344 226.734375 64.597656 226.734375 68.851562 "/>
<path style=" stroke:none;fill-rule:nonzero;fill:rgb(100%,84.3%,0%);fill-opacity:1;" d="M 333.015625 358.429688 C 333.015625 362.683594 329.566406 366.132812 325.3125 366.132812 C 321.058594 366.132812 317.613281 362.683594 317.613281 358.429688 C 317.613281 354.175781 321.058594 350.730469 325.3125 350.730469 C 329.566406 350.730469 333.015625 354.175781 333.015625 358.429688 "/>
<path style=" stroke:none;fill-rule:nonzero;fill:rgb(100%,84.3%,0%);fill-opacity:1;" d="M 249.839844 423.125 C 249.839844 427.378906 246.390625 430.824219 242.136719 430.824219 C 237.882812 430.824219 234.433594 427.378906 234.433594 423.125 C 234.433594 418.871094 237.882812 415.421875 242.136719 415.421875 C 246.390625 415.421875 249.839844 418.871094 249.839844 423.125 "/>
<path style=" stroke:none;fill-rule:nonzero;fill:rgb(100%,84.3%,0%);fill-opacity:1;" d="M 235.976562 450.851562 C 235.976562 455.101562 232.527344 458.550781 228.273438 458.550781 C 224.019531 458.550781 220.574219 455.101562 220.574219 450.851562 C 220.574219 446.597656 224.019531 443.148438 228.273438 443.148438 C 232.527344 443.148438 235.976562 446.597656 235.976562 450.851562 "/>
<path style=" stroke:none;fill-rule:nonzero;fill:rgb(100%,84.3%,0%);fill-opacity:1;" d="M 252.917969 384.617188 C 252.917969 388.871094 249.472656 392.316406 245.21875 392.316406 C 240.964844 392.316406 237.515625 388.871094 237.515625 384.617188 C 237.515625 380.363281 240.964844 376.914062 245.21875 376.914062 C 249.472656 376.914062 252.917969 380.363281 252.917969 384.617188 "/>
<path style=" stroke:none;fill-rule:nonzero;fill:rgb(100%,84.3%,0%);fill-opacity:1;" d="M 326.855469 124.304688 C 326.855469 128.554688 323.40625 132.003906 319.152344 132.003906 C 314.898438 132.003906 311.453125 128.554688 311.453125 124.304688 C 311.453125 120.050781 314.898438 116.601562 319.152344 116.601562 C 323.40625 116.601562 326.855469 120.050781 326.855469 124.304688 "/>
<path style=" stroke:none;fill-rule:nonzero;fill:rgb(100%,84.3%,0%);fill-opacity:1;" d="M 360.742188 339.945312 C 360.742188 344.199219 357.292969 347.648438 353.039062 347.648438 C 348.785156 347.648438 345.339844 344.199219 345.339844 339.945312 C 345.339844 335.695312 348.785156 332.246094 353.039062 332.246094 C 357.292969 332.246094 360.742188 335.695312 360.742188 339.945312 "/>
<path style=" stroke:none;fill-rule:nonzero;fill:rgb(100%,84.3%,0%);fill-opacity:1;" d="M 319.152344 82.714844 C 319.152344 86.96875 315.703125 90.417969 311.449219 90.417969 C 307.199219 90.417969 303.75 86.96875 303.75 82.714844 C 303.75 78.460938 307.199219 75.011719 311.449219 75.011719 C 315.703125 75.011719 319.152344 78.460938 319.152344 82.714844 "/>
<path style=" stroke:none;fill-rule:nonzero;fill:rgb(100%,84.3%,0%);fill-opacity:1;" d="M 374.605469 281.414062 C 374.605469 285.667969 371.15625 289.117188 366.902344 289.117188 C 362.648438 289.117188 359.203125 285.667969 359.203125 281.414062 C 359.203125 277.160156 362.648438 273.714844 366.902344 273.714844 C 371.15625 273.714844 374.605469 277.160156 374.605469 281.414062 "/>
<path style=" stroke:none;fill-rule:nonzero;fill:rgb(100%,84.3%,0%);fill-opacity:1;" d="M 397.707031 173.59375 C 397.707031 177.847656 394.261719 181.292969 390.007812 181.292969 C 385.753906 181.292969 382.304688 177.847656 382.304688 173.59375 C 382.304688 169.339844 385.753906 165.890625 390.007812 165.890625 C 394.261719 165.890625 397.707031 169.339844 397.707031 173.59375 "/>
<path style=" stroke:none;fill-rule:nonzero;fill:rgb(100%,84.3%,0%);fill-opacity:1;" d="M 211.332031 153.570312 C 211.332031 157.824219 207.882812 161.269531 203.628906 161.269531 C 199.375 161.269531 195.925781 157.824219 195.925781 153.570312 C 195.925781 149.316406 199.375 145.867188 203.628906 145.867188 C 207.882812 145.867188 211.332031 149.316406 211.332031 153.570312 "/>
<path style=" stroke:none;fill-rule:nonzero;fill:rgb(100%,84.3%,0%);fill-opacity:1;" d="M 215.953125 432.367188 C 215.953125 436.621094 212.503906 440.066406 208.25 440.066406 C 203.996094 440.066406 200.546875 436.621094 200.546875 432.367188 C 200.546875 428.113281 203.996094 424.664062 208.25 424.664062 C 212.503906 424.664062 215.953125 428.113281 215.953125 432.367188 "/>
<path style=" stroke:none;fill-rule:nonzero;fill:rgb(100%,84.3%,0%);fill-opacity:1;" d="M 134.316406 170.511719 C 134.316406 174.765625 130.867188 178.214844 126.613281 178.214844 C 122.359375 178.214844 118.914062 174.765625 118.914062 170.511719 C 118.914062 166.257812 122.359375 162.8125 126.613281 162.8125 C 130.867188 162.8125 134.316406 166.257812 134.316406 170.511719 "/>
<path style=" stroke:none;fill-rule:nonzero;fill:rgb(100%,84.3%,0%);fill-opacity:1;" d="M 423.894531 452.390625 C 423.894531 456.644531 420.445312 460.089844 416.191406 460.089844 C 411.941406 460.089844 408.492188 456.644531 408.492188 452.390625 C 408.492188 448.136719 411.941406 444.6875 416.191406 444.6875 C 420.445312 444.6875 423.894531 448.136719 423.894531 452.390625 "/>
<path style=" stroke:none;fill-rule:nonzero;fill:rgb(100%,84.3%,0%);fill-opacity:1;" d="M 197.46875 420.042969 C 197.46875 424.296875 194.019531 427.746094 189.765625 427.746094 C 185.511719 427.746094 182.066406 424.296875 182.066406 420.042969 C 182.066406 415.789062 185.511719 412.339844 189.765625 412.339844 C 194.019531 412.339844 197.46875 415.789062 197.46875 420.042969 "/>
<path style=" stroke:none;fill-rule:nonzero;fill:rgb(100%,84.3%,0%);fill-opacity:1;" d="M 121.992188 124.304688 C 121.992188 128.554688 118.542969 132.003906 114.289062 132.003906 C 110.039062 132.003906 106.589844 128.554688 106.589844 124.304688 C 106.589844 120.050781 110.039062 116.601562 114.289062 116.601562 C 118.542969 116.601562 121.992188 120.050781 121.992188 124.304688 "/>
<path style=" stroke:none;fill-rule:nonzero;fill:rgb(100%,84.3%,0%);fill-opacity:1;" d="M 405.410156 222.882812 C 405.410156 227.136719 401.960938 230.585938 397.710938 230.585938 C 393.457031 230.585938 390.007812 227.136719 390.007812 222.882812 C 390.007812 218.628906 393.457031 215.179688 397.710938 215.179688 C 401.960938 215.179688 405.410156 218.628906 405.410156 222.882812 "/>
<path style=" stroke:none;fill-rule:nonzero;fill:rgb(100%,84.3%,0%);fill-opacity:1;" d="M 114.292969 272.171875 C 114.292969 276.425781 110.84375 279.875 106.589844 279.875 C 102.335938 279.875 98.886719 276.425781 98.886719 272.171875 C 98.886719 267.917969 102.335938 264.472656 106.589844 264.472656 C 110.84375 264.472656 114.292969 267.917969 114.292969 272.171875 "/>
<path style=" stroke:none;fill-rule:nonzero;fill:rgb(100%,84.3%,0%);fill-opacity:1;" d="M 212.871094 447.769531 C 212.871094 452.023438 209.421875 455.46875 205.171875 455.46875 C 200.917969 455.46875 197.46875 452.023438 197.46875 447.769531 C 197.46875 443.515625 200.917969 440.066406 205.171875 440.066406 C 209.421875 440.066406 212.871094 443.515625 212.871094 447.769531 "/>
<path style=" stroke:none;fill-rule:nonzero;fill:rgb(100%,84.3%,0%);fill-opacity:1;" d="M 319.152344 244.449219 C 319.152344 248.703125 315.703125 252.148438 311.449219 252.148438 C 307.199219 252.148438 303.75 248.703125 303.75 244.449219 C 303.75 240.195312 307.199219 236.746094 311.449219 236.746094 C 315.703125 236.746094 319.152344 240.195312 319.152344 244.449219 "/>
<path style=" stroke:none;fill-rule:nonzero;fill:rgb(100%,84.3%,0%);fill-opacity:1;" d="M 134.316406 113.519531 C 134.316406 117.773438 130.867188 121.222656 126.613281 121.222656 C 122.359375 121.222656 118.914062 117.773438 118.914062 113.519531 C 118.914062 109.265625 122.359375 105.820312 126.613281 105.820312 C 130.867188 105.820312 134.316406 109.265625 134.316406 113.519531 "/>
<path style=" stroke:none;fill-rule:nonzero;fill:rgb(100%,84.3%,0%);fill-opacity:1;" d="M 192.847656 59.609375 C 192.847656 63.863281 189.398438 67.3125 185.144531 67.3125 C 180.890625 67.3125 177.445312 63.863281 177.445312 59.609375 C 177.445312 55.355469 180.890625 51.910156 185.144531 51.910156 C 189.398438 51.910156 192.847656 55.355469 192.847656 59.609375 "/>
<path style=" stroke:none;fill-rule:nonzero;fill:rgb(100%,84.3%,0%);fill-opacity:1;" d="M 419.273438 352.269531 C 419.273438 356.523438 415.824219 359.972656 411.570312 359.972656 C 407.320312 359.972656 403.871094 356.523438 403.871094 352.269531 C 403.871094 348.015625 407.320312 344.570312 411.570312 344.570312 C 415.824219 344.570312 419.273438 348.015625 419.273438 352.269531 "/>
<path style=" stroke:none;fill-rule:nonzero;fill:rgb(100%,84.3%,0%);fill-opacity:1;" d="M 271.402344 393.859375 C 271.402344 398.113281 267.957031 401.558594 263.703125 401.558594 C 259.449219 401.558594 256 398.113281 256 393.859375 C 256 389.605469 259.449219 386.15625 263.703125 386.15625 C 267.957031 386.15625 271.402344 389.605469 271.402344 393.859375 "/>
<path style=" stroke:none;fill-rule:nonzero;fill:rgb(100%,84.3%,0%);fill-opacity:1;" d="M 346.878906 278.335938 C 346.878906 282.589844 343.429688 286.035156 339.175781 286.035156 C 334.921875 286.035156 331.476562 282.589844 331.476562 278.335938 C 331.476562 274.082031 334.921875 270.632812 339.175781 270.632812 C 343.429688 270.632812 346.878906 274.082031 346.878906 278.335938 "/>
<path style=" stroke:none;fill-rule:nonzero;fill:rgb(100%,84.3%,0%);fill-opacity:1;" d="M 243.675781 91.957031 C 243.675781 96.210938 240.230469 99.660156 235.976562 99.660156 C 231.722656 99.660156 228.273438 96.210938 228.273438 91.957031 C 228.273438 87.703125 231.722656 84.253906 235.976562 84.253906 C 240.230469 84.253906 243.675781 87.703125 243.675781 91.957031 "/>
<path style=" stroke:none;fill-rule:nonzero;fill:rgb(100%,84.3%,0%);fill-opacity:1;" d="M 223.652344 239.828125 C 223.652344 244.082031 220.207031 247.527344 215.953125 247.527344 C 211.699219 247.527344 208.25 244.082031 208.25 239.828125 C 208.25 235.574219 211.699219 232.125 215.953125 232.125 C 220.207031 232.125 223.652344 235.574219 223.652344 239.828125 "/>
<path style=" stroke:none;fill-rule:nonzero;fill:rgb(100%,84.3%,0%);fill-opacity:1;" d="M 182.066406 150.488281 C 182.066406 154.742188 178.617188 158.191406 174.363281 158.191406 C 170.109375 158.191406 166.660156 154.742188 166.660156 150.488281 C 166.660156 146.234375 170.109375 142.789062 174.363281 142.789062 C 178.617188 142.789062 182.066406 146.234375 182.066406 150.488281 "/>
<path style=" stroke:none;fill-rule:nonzero;fill:rgb(100%,84.3%,0%);fill-opacity:1;" d="M 112.75 355.351562 C 112.75 359.601562 109.300781 363.050781 105.050781 363.050781 C 100.796875 363.050781 97.347656 359.601562 97.347656 355.351562 C 97.347656 351.097656 100.796875 347.648438 105.050781 347.648438 C 109.300781 347.648438 112.75 351.097656 112.75 355.351562 "/>
<path style=" stroke:none;fill-rule:nonzero;fill:rgb(100%,84.3%,0%);fill-opacity:1;" d="M 257.539062 367.671875 C 257.539062 371.925781 254.09375 375.375 249.839844 375.375 C 245.585938 375.375 242.136719 371.925781 242.136719 367.671875 C 242.136719 363.417969 245.585938 359.972656 249.839844 359.972656 C 254.09375 359.972656 257.539062 363.417969 257.539062 367.671875 "/>
<path style=" stroke:none;fill-rule:nonzero;fill:rgb(100%,84.3%,0%);fill-opacity:1;" d="M 149.71875 201.320312 C 149.71875 205.574219 146.269531 209.019531 142.015625 209.019531 C 137.761719 209.019531 134.316406 205.574219 134.316406 201.320312 C 134.316406 197.066406 137.761719 193.617188 142.015625 193.617188 C 146.269531 193.617188 149.71875 197.066406 149.71875 201.320312 "/>
<path style=" stroke:none;fill-rule:nonzero;fill:rgb(100%,84.3%,0%);fill-opacity:1;" d="M 385.386719 440.066406 C 385.386719 444.320312 381.9375 447.769531 377.683594 447.769531 C 373.429688 447.769531 369.984375 444.320312 369.984375 440.066406 C 369.984375 435.8125 373.429688 432.367188 377.683594 432.367188 C 381.9375 432.367188 385.386719 435.8125 385.386719 440.066406 "/>
<path style=" stroke:none;fill-rule:nonzero;fill:rgb(100%,84.3%,0%);fill-opacity:1;" d="M 189.765625 127.382812 C 189.765625 131.636719 186.320312 135.085938 182.066406 135.085938 C 177.8125 135.085938 174.363281 131.636719 174.363281 127.382812 C 174.363281 123.128906 177.8125 119.683594 182.066406 119.683594 C 186.320312 119.683594 189.765625 123.128906 189.765625 127.382812 "/>
<path style=" stroke:none;fill-rule:nonzero;fill:rgb(100%,84.3%,0%);fill-opacity:1;" d="M 411.570312 336.867188 C 411.570312 341.121094 408.125 344.566406 403.871094 344.566406 C 399.617188 344.566406 396.167969 341.121094 396.167969 336.867188 C 396.167969 332.613281 399.617188 329.164062 403.871094 329.164062 C 408.125 329.164062 411.570312 332.613281 411.570312 336.867188 "/>
<path style=" stroke:none;fill-rule:nonzero;fill:rgb(100%,84.3%,0%);fill-opacity:1;" d="M 299.128906 298.359375 C 299.128906 302.613281 295.679688 306.0625 291.425781 306.0625 C 287.171875 306.0625 283.726562 302.613281 283.726562 298.359375 C 283.726562 294.105469 287.171875 290.65625 291.425781 290.65625 C 295.679688 290.65625 299.128906 294.105469 299.128906 298.359375 "/>
<path style=" stroke:none;fill-rule:nonzero;fill:rgb(100%,84.3%,0%);fill-opacity:1;" d="M 105.050781 125.84375 C 105.050781 130.097656 101.601562 133.546875 97.347656 133.546875 C 93.09375 133.546875 89.644531 130.097656 89.644531 125.84375 C 89.644531 121.589844 93.09375 118.140625 97.347656 118.140625 C 101.601562 118.140625 105.050781 121.589844 105.050781 125.84375 "/>
<path style=" stroke:none;fill-rule:nonzero;fill:rgb(100%,84.3%,0%);fill-opacity:1;" d="M 182.066406 210.5625 C 182.066406 214.816406 178.617188 218.261719 174.363281 218.261719 C 170.109375 218.261719 166.660156 214.816406 166.660156 210.5625 C 166.660156 206.308594 170.109375 202.859375 174.363281 202.859375 C 178.617188 202.859375 182.066406 206.308594 182.066406 210.5625 "/>
<path style=" stroke:none;fill-rule:nonzero;fill:rgb(100%,84.3%,0%);fill-opacity:1;" d="M 205.167969 298.359375 C 205.167969 302.613281 201.722656 306.0625 197.46875 306.0625 C 193.214844 306.0625 189.765625 302.613281 189.765625 298.359375 C 189.765625 294.105469 193.214844 290.65625 197.46875 290.65625 C 201.722656 290.65625 205.167969 294.105469 205.167969 298.359375 "/>
<path style=" stroke:none;fill-rule:nonzero;fill:rgb(100%,84.3%,0%);fill-opacity:1;" d="M 379.222656 323.003906 C 379.222656 327.257812 375.777344 330.707031 371.523438 330.707031 C 367.269531 330.707031 363.820312 327.257812 363.820312 323.003906 C 363.820312 318.75 367.269531 315.300781 371.523438 315.300781 C 375.777344 315.300781 379.222656 318.75 379.222656 323.003906 "/>
<path style=" stroke:none;fill-rule:nonzero;fill:rgb(100%,84.3%,0%);fill-opacity:1;" d="M 174.363281 446.230469 C 174.363281 450.484375 170.914062 453.929688 166.660156 453.929688 C 162.410156 453.929688 158.960938 450.484375 158.960938 446.230469 C 158.960938 441.976562 162.410156 438.527344 166.660156 438.527344 C 170.914062 438.527344 174.363281 441.976562 174.363281 446.230469 "/>
<path style=" stroke:none;fill-rule:nonzero;fill:rgb(100%,84.3%,0%);fill-opacity:1;" d="M 103.507812 287.574219 C 103.507812 291.828125 100.058594 295.277344 95.808594 295.277344 C 91.554688 295.277344 88.105469 291.828125 88.105469 287.574219 C 88.105469 283.324219 91.554688 279.875 95.808594 279.875 C 100.058594 279.875 103.507812 283.324219 103.507812 287.574219 "/>
<path style=" stroke:none;fill-rule:nonzero;fill:rgb(100%,84.3%,0%);fill-opacity:1;" d="M 299.128906 84.253906 C 299.128906 88.507812 295.679688 91.957031 291.425781 91.957031 C 287.171875 91.957031 283.726562 88.507812 283.726562 84.253906 C 283.726562 80 287.171875 76.554688 291.425781 76.554688 C 295.679688 76.554688 299.128906 80 299.128906 84.253906 "/>
<path style=" stroke:none;fill-rule:nonzero;fill:rgb(100%,84.3%,0%);fill-opacity:1;" d="M 135.855469 64.230469 C 135.855469 68.484375 132.40625 71.933594 128.152344 71.933594 C 123.902344 71.933594 120.453125 68.484375 120.453125 64.230469 C 120.453125 59.976562 123.902344 56.53125 128.152344 56.53125 C 132.40625 56.53125 135.855469 59.976562 135.855469 64.230469 "/>
<path style=" stroke:none;fill-rule:nonzero;fill:rgb(100%,84.3%,0%);fill-opacity:1;" d="M 157.417969 101.199219 C 157.417969 105.453125 153.972656 108.902344 149.71875 108.902344 C 145.464844 108.902344 142.015625 105.453125 142.015625 101.199219 C 142.015625 96.945312 145.464844 93.496094 149.71875 93.496094 C 153.972656 93.496094 157.417969 96.945312 157.417969 101.199219 "/>
<path style=" stroke:none;fill-rule:nonzero;fill:rgb(100%,84.3%,0%);fill-opacity:1;" d="M 425.433594 279.875 C 425.433594 284.128906 421.988281 287.578125 417.734375 287.578125 C 413.480469 287.578125 410.03125 284.128906 410.03125 279.875 C 410.03125 275.621094 413.480469 272.171875 417.734375 272.171875 C 421.988281 272.171875 425.433594 275.621094 425.433594 279.875 "/>
<path style=" stroke:none;fill-rule:nonzero;fill:rgb(100%,84.3%,0%);fill-opacity:1;" d="M 202.089844 108.898438 C 202.089844 113.152344 198.640625 116.601562 194.386719 116.601562 C 190.132812 116.601562 186.683594 113.152344 186.683594 108.898438 C 186.683594 104.648438 190.132812 101.199219 194.386719 101.199219 C 198.640625 101.199219 202.089844 104.648438 202.089844 108.898438 "/>
<path style=" stroke:none;fill-rule:nonzero;fill:rgb(100%,84.3%,0%);fill-opacity:1;" d="M 423.894531 78.09375 C 423.894531 82.347656 420.445312 85.796875 416.191406 85.796875 C 411.941406 85.796875 408.492188 82.347656 408.492188 78.09375 C 408.492188 73.839844 411.941406 70.390625 416.191406 70.390625 C 420.445312 70.390625 423.894531 73.839844 423.894531 78.09375 "/>
<path style=" stroke:none;fill-rule:nonzero;fill:rgb(100%,84.3%,0%);fill-opacity:1;" d="M 120.453125 423.125 C 120.453125 427.378906 117.003906 430.824219 112.75 430.824219 C 108.496094 430.824219 105.050781 427.378906 105.050781 423.125 C 105.050781 418.871094 108.496094 415.421875 112.75 415.421875 C 117.003906 415.421875 120.453125 418.871094 120.453125 423.125 "/>
<path style=" stroke:none;fill-rule:nonzero;fill:rgb(100%,84.3%,0%);fill-opacity:1;" d="M 365.363281 116.601562 C 365.363281 120.855469 361.914062 124.304688 357.660156 124.304688 C 353.40625 124.304688 349.960938 120.855469 349.960938 116.601562 C 349.960938 112.347656 353.40625 108.902344 357.660156 108.902344 C 361.914062 108.902344 365.363281 112.347656 365.363281 116.601562 "/>
<path style=" stroke:none;fill-rule:nonzero;fill:rgb(100%,84.3%,0%);fill-opacity:1;" d="M 292.96875 416.964844 C 292.96875 421.214844 289.519531 424.664062 285.265625 424.664062 C 281.011719 424.664062 277.5625 421.214844 277.5625 416.964844 C 277.5625 412.710938 281.011719 409.261719 285.265625 409.261719 C 289.519531 409.261719 292.96875 412.710938 292.96875 416.964844 "/>
<path style=" stroke:none;fill-rule:nonzero;fill:rgb(100%,84.3%,0%);fill-opacity:1;" d="M 369.984375 420.042969 C 369.984375 424.296875 366.535156 427.746094 362.28125 427.746094 C 358.027344 427.746094 354.582031 424.296875 354.582031 420.042969 C 354.582031 415.789062 358.027344 412.339844 362.28125 412.339844 C 366.535156 412.339844 369.984375 415.789062 369.984375 420.042969 "/>
<path style=" stroke:none;fill-rule:nonzero;fill:rgb(100%,84.3%,0%);fill-opacity:1;" d="M 306.832031 315.300781 C 306.832031 319.554688 303.382812 323.003906 299.128906 323.003906 C 294.875 323.003906 291.425781 319.554688 291.425781 315.300781 C 291.425781 311.046875 294.875 307.601562 299.128906 307.601562 C 303.382812 307.601562 306.832031 311.046875 306.832031 315.300781 "/>
<path style=" stroke:none;fill-rule:nonzero;fill:rgb(100%,84.3%,0%);fill-opacity:1;" d="M 311.453125 387.695312 C 311.453125 391.949219 308.003906 395.398438 303.75 395.398438 C 299.496094 395.398438 296.046875 391.949219 296.046875 387.695312 C 296.046875 383.445312 299.496094 379.996094 303.75 379.996094 C 308.003906 379.996094 311.453125 383.445312 311.453125 387.695312 "/>
<path style=" stroke:none;fill-rule:nonzero;fill:rgb(100%,84.3%,0%);fill-opacity:1;" d="M 360.742188 99.65625 C 360.742188 103.910156 357.292969 107.359375 353.039062 107.359375 C 348.785156 107.359375 345.339844 103.910156 345.339844 99.65625 C 345.339844 95.40625 348.785156 91.957031 353.039062 91.957031 C 357.292969 91.957031 360.742188 95.40625 360.742188 99.65625 "/>
<path style=" stroke:none;fill-rule:nonzero;fill:rgb(100%,84.3%,0%);fill-opacity:1;" d="M 115.832031 225.964844 C 115.832031 230.21875 112.382812 233.664062 108.128906 233.664062 C 103.875 233.664062 100.429688 230.21875 100.429688 225.964844 C 100.429688 221.710938 103.875 218.261719 108.128906 218.261719 C 112.382812 218.261719 115.832031 221.710938 115.832031 225.964844 "/>
<path style=" stroke:none;fill-rule:nonzero;fill:rgb(100%,84.3%,0%);fill-opacity:1;" d="M 229.816406 407.722656 C 229.816406 411.972656 226.367188 415.421875 222.113281 415.421875 C 217.859375 415.421875 214.410156 411.972656 214.410156 407.722656 C 214.410156 403.46875 217.859375 400.019531 222.113281 400.019531 C 226.367188 400.019531 229.816406 403.46875 229.816406 407.722656 "/>
<path style=" stroke:none;fill-rule:nonzero;fill:rgb(100%,84.3%,0%);fill-opacity:1;" d="M 101.96875 147.40625 C 101.96875 151.660156 98.519531 155.109375 94.265625 155.109375 C 90.011719 155.109375 86.566406 151.660156 86.566406 147.40625 C 86.566406 143.15625 90.011719 139.707031 94.265625 139.707031 C 98.519531 139.707031 101.96875 143.15625 101.96875 147.40625 "/>
<path style=" stroke:none;fill-rule:nonzero;fill:rgb(100%,84.3%,0%);fill-opacity:1;" d="M 339.175781 98.117188 C 339.175781 102.371094 335.726562 105.820312 331.476562 105.820312 C 327.222656 105.820312 323.773438 102.371094 323.773438 98.117188 C 323.773438 93.863281 327.222656 90.417969 331.476562 90.417969 C 335.726562 90.417969 339.175781 93.863281 339.175781 98.117188 "/>
<path style=" stroke:none;fill-rule:nonzero;fill:rgb(100%,84.3%,0%);fill-opacity:1;" d="M 329.933594 199.777344 C 329.933594 204.03125 326.488281 207.480469 322.234375 207.480469 C 317.980469 207.480469 314.53125 204.03125 314.53125 199.777344 C 314.53125 195.527344 317.980469 192.078125 322.234375 192.078125 C 326.488281 192.078125 329.933594 195.527344 329.933594 199.777344 "/>
<path style=" stroke:none;fill-rule:nonzero;fill:rgb(100%,84.3%,0%);fill-opacity:1;" d="M 246.757812 245.988281 C 246.757812 250.242188 243.308594 253.691406 239.058594 253.691406 C 234.804688 253.691406 231.355469 250.242188 231.355469 245.988281 C 231.355469 241.734375 234.804688 238.285156 239.058594 238.285156 C 243.308594 238.285156 246.757812 241.734375 246.757812 245.988281 "/>
<path style=" stroke:none;fill-rule:nonzero;fill:rgb(100%,84.3%,0%);fill-opacity:1;" d="M 279.105469 336.867188 C 279.105469 341.121094 275.65625 344.566406 271.402344 344.566406 C 267.148438 344.566406 263.703125 341.121094 263.703125 336.867188 C 263.703125 332.613281 267.148438 329.164062 271.402344 329.164062 C 275.65625 329.164062 279.105469 332.613281 279.105469 336.867188 "/>
<path style=" stroke:none;fill-rule:nonzero;fill:rgb(100%,84.3%,0%);fill-opacity:1;" d="M 312.992188 279.875 C 312.992188 284.128906 309.542969 287.578125 305.289062 287.578125 C 301.035156 287.578125 297.589844 284.128906 297.589844 279.875 C 297.589844 275.621094 301.035156 272.171875 305.289062 272.171875 C 309.542969 272.171875 312.992188 275.621094 312.992188 279.875 "/>
<path style=" stroke:none;fill-rule:nonzero;fill:rgb(100%,84.3%,0%);fill-opacity:1;" d="M 317.613281 420.042969 C 317.613281 424.296875 314.164062 427.746094 309.910156 427.746094 C 305.65625 427.746094 302.210938 424.296875 302.210938 420.042969 C 302.210938 415.789062 305.65625 412.339844 309.910156 412.339844 C 314.164062 412.339844 317.613281 415.789062 317.613281 420.042969 "/>
<path style=" stroke:none;fill-rule:nonzero;fill:rgb(100%,84.3%,0%);fill-opacity:1;" d="M 382.304688 179.753906 C 382.304688 184.007812 378.859375 187.457031 374.605469 187.457031 C 370.351562 187.457031 366.902344 184.007812 366.902344 179.753906 C 366.902344 175.5 370.351562 172.054688 374.605469 172.054688 C 378.859375 172.054688 382.304688 175.5 382.304688 179.753906 "/>
<path style=" stroke:none;fill-rule:nonzero;fill:rgb(100%,84.3%,0%);fill-opacity:1;" d="M 268.324219 132.003906 C 268.324219 136.257812 264.875 139.707031 260.621094 139.707031 C 256.367188 139.707031 252.917969 136.257812 252.917969 132.003906 C 252.917969 127.75 256.367188 124.304688 260.621094 124.304688 C 264.875 124.304688 268.324219 127.75 268.324219 132.003906 "/>
<path style=" stroke:none;fill-rule:nonzero;fill:rgb(100%,84.3%,0%);fill-opacity:1;" d="M 125.074219 295.277344 C 125.074219 299.53125 121.625 302.980469 117.371094 302.980469 C 113.117188 302.980469 109.671875 299.53125 109.671875 295.277344 C 109.671875 291.023438 113.117188 287.578125 117.371094 287.578125 C 121.625 287.578125 125.074219 291.023438 125.074219 295.277344 "/>
<path style=" stroke:none;fill-rule:nonzero;fill:rgb(100%,84.3%,0%);fill-opacity:1;" d="M 342.257812 426.203125 C 342.257812 430.457031 338.808594 433.90625 334.554688 433.90625 C 330.300781 433.90625 326.855469 430.457031 326.855469 426.203125 C 326.855469 421.953125 330.300781 418.503906 334.554688 418.503906 C 338.808594 418.503906 342.257812 421.953125 342.257812 426.203125 "/>
<path style=" stroke:none;fill-rule:nonzero;fill:rgb(100%,84.3%,0%);fill-opacity:1;" d="M 291.425781 273.714844 C 291.425781 277.96875 287.980469 281.414062 283.726562 281.414062 C 279.472656 281.414062 276.023438 277.96875 276.023438 273.714844 C 276.023438 269.460938 279.472656 266.011719 283.726562 266.011719 C 287.980469 266.011719 291.425781 269.460938 291.425781 273.714844 "/>
<path style=" stroke:none;fill-rule:nonzero;fill:rgb(100%,84.3%,0%);fill-opacity:1;" d="M 118.914062 144.328125 C 118.914062 148.582031 115.464844 152.027344 111.210938 152.027344 C 106.957031 152.027344 103.507812 148.582031 103.507812 144.328125 C 103.507812 140.074219 106.957031 136.625 111.210938 136.625 C 115.464844 136.625 118.914062 140.074219 118.914062 144.328125 "/>
<path style=" stroke:none;fill-rule:nonzero;fill:rgb(100%,84.3%,0%);fill-opacity:1;" d="M 162.039062 232.125 C 162.039062 236.378906 158.59375 239.828125 154.339844 239.828125 C 150.085938 239.828125 146.636719 236.378906 146.636719 232.125 C 146.636719 227.871094 150.085938 224.421875 154.339844 224.421875 C 158.59375 224.421875 162.039062 227.871094 162.039062 232.125 "/>
<path style=" stroke:none;fill-rule:nonzero;fill:rgb(100%,84.3%,0%);fill-opacity:1;" d="M 283.726562 141.246094 C 283.726562 145.5 280.277344 148.949219 276.023438 148.949219 C 271.769531 148.949219 268.324219 145.5 268.324219 141.246094 C 268.324219 136.992188 271.769531 133.546875 276.023438 133.546875 C 280.277344 133.546875 283.726562 136.992188 283.726562 141.246094 "/>
<path style=" stroke:none;fill-rule:nonzero;fill:rgb(100%,84.3%,0%);fill-opacity:1;" d="M 185.144531 85.796875 C 185.144531 90.046875 181.699219 93.496094 177.445312 93.496094 C 173.191406 93.496094 169.742188 90.046875 169.742188 85.796875 C 169.742188 81.542969 173.191406 78.09375 177.445312 78.09375 C 181.699219 78.09375 185.144531 81.542969 185.144531 85.796875 "/>
<path style=" stroke:none;fill-rule:nonzero;fill:rgb(100%,84.3%,0%);fill-opacity:1;" d="M 413.113281 181.296875 C 413.113281 185.546875 409.664062 188.996094 405.410156 188.996094 C 401.15625 188.996094 397.707031 185.546875 397.707031 181.296875 C 397.707031 177.042969 401.15625 173.59375 405.410156 173.59375 C 409.664062 173.59375 413.113281 177.042969 413.113281 181.296875 "/>
<path style=" stroke:none;fill-rule:nonzero;fill:rgb(100%,84.3%,0%);fill-opacity:1;" d="M 202.089844 369.214844 C 202.089844 373.464844 198.640625 376.914062 194.386719 376.914062 C 190.132812 376.914062 186.683594 373.464844 186.683594 369.214844 C 186.683594 364.960938 190.132812 361.511719 194.386719 361.511719 C 198.640625 361.511719 202.089844 364.960938 202.089844 369.214844 "/>
<path style=" stroke:none;fill-rule:nonzero;fill:rgb(100%,84.3%,0%);fill-opacity:1;" d="M 115.832031 201.320312 C 115.832031 205.574219 112.382812 209.019531 108.128906 209.019531 C 103.875 209.019531 100.429688 205.574219 100.429688 201.320312 C 100.429688 197.066406 103.875 193.617188 108.128906 193.617188 C 112.382812 193.617188 115.832031 197.066406 115.832031 201.320312 "/>
<path style=" stroke:none;fill-rule:nonzero;fill:rgb(100%,84.3%,0%);fill-opacity:1;" d="M 329.933594 172.054688 C 329.933594 176.304688 326.488281 179.753906 322.234375 179.753906 C 317.980469 179.753906 314.53125 176.304688 314.53125 172.054688 C 314.53125 167.800781 317.980469 164.351562 322.234375 164.351562 C 326.488281 164.351562 329.933594 167.800781 329.933594 172.054688 "/>
<path style=" stroke:none;fill-rule:nonzero;fill:rgb(100%,84.3%,0%);fill-opacity:1;" d="M 206.710938 400.019531 C 206.710938 404.273438 203.261719 407.71875 199.007812 407.71875 C 194.753906 407.71875 191.304688 404.273438 191.304688 400.019531 C 191.304688 395.765625 194.753906 392.316406 199.007812 392.316406 C 203.261719 392.316406 206.710938 395.765625 206.710938 400.019531 "/>
<path style=" stroke:none;fill-rule:nonzero;fill:rgb(100%,84.3%,0%);fill-opacity:1;" d="M 140.476562 296.816406 C 140.476562 301.070312 137.027344 304.519531 132.773438 304.519531 C 128.523438 304.519531 125.074219 301.070312 125.074219 296.816406 C 125.074219 292.566406 128.523438 289.117188 132.773438 289.117188 C 137.027344 289.117188 140.476562 292.566406 140.476562 296.816406 "/>
<path style=" stroke:none;fill-rule:nonzero;fill:rgb(100%,84.3%,0%);fill-opacity:1;" d="M 390.007812 282.953125 C 390.007812 287.207031 386.558594 290.65625 382.304688 290.65625 C 378.050781 290.65625 374.605469 287.207031 374.605469 282.953125 C 374.605469 278.703125 378.050781 275.253906 382.304688 275.253906 C 386.558594 275.253906 390.007812 278.703125 390.007812 282.953125 "/>
<path style=" stroke:none;fill-rule:nonzero;fill:rgb(100%,84.3%,0%);fill-opacity:1;" d="M 165.121094 361.511719 C 165.121094 365.765625 161.671875 369.210938 157.421875 369.210938 C 153.167969 369.210938 149.71875 365.765625 149.71875 361.511719 C 149.71875 357.257812 153.167969 353.808594 157.421875 353.808594 C 161.671875 353.808594 165.121094 357.257812 165.121094 361.511719 "/>
<path style=" stroke:none;fill-rule:nonzero;fill:rgb(100%,84.3%,0%);fill-opacity:1;" d="M 363.820312 192.078125 C 363.820312 196.332031 360.375 199.777344 356.121094 199.777344 C 351.867188 199.777344 348.417969 196.332031 348.417969 192.078125 C 348.417969 187.824219 351.867188 184.375 356.121094 184.375 C 360.375 184.375 363.820312 187.824219 363.820312 192.078125 "/>
<path style=" stroke:none;fill-rule:nonzero;fill:rgb(100%,84.3%,0%);fill-opacity:1;" d="M 186.6875 287.574219 C 186.6875 291.828125 183.238281 295.277344 178.984375 295.277344 C 174.730469 295.277344 171.28125 291.828125 171.28125 287.574219 C 171.28125 283.324219 174.730469 279.875 178.984375 279.875 C 183.238281 279.875 186.6875 283.324219 186.6875 287.574219 "/>
<path style=" stroke:none;fill-rule:nonzero;fill:rgb(100%,84.3%,0%);fill-opacity:1;" d="M 185.144531 262.929688 C 185.144531 267.183594 181.699219 270.632812 177.445312 270.632812 C 173.191406 270.632812 169.742188 267.183594 169.742188 262.929688 C 169.742188 258.675781 173.191406 255.230469 177.445312 255.230469 C 181.699219 255.230469 185.144531 258.675781 185.144531 262.929688 "/>
<path style=" stroke:none;fill-rule:nonzero;fill:rgb(100%,84.3%,0%);fill-opacity:1;" d="M 145.097656 225.964844 C 145.097656 230.21875 141.648438 233.664062 137.394531 233.664062 C 133.140625 233.664062 129.695312 230.21875 129.695312 225.964844 C 129.695312 221.710938 133.140625 218.261719 137.394531 218.261719 C 141.648438 218.261719 145.097656 221.710938 145.097656 225.964844 "/>
<path style=" stroke:none;fill-rule:nonzero;fill:rgb(100%,84.3%,0%);fill-opacity:1;" d="M 276.023438 219.804688 C 276.023438 224.054688 272.578125 227.503906 268.324219 227.503906 C 264.070312 227.503906 260.621094 224.054688 260.621094 219.804688 C 260.621094 215.550781 264.070312 212.101562 268.324219 212.101562 C 272.578125 212.101562 276.023438 215.550781 276.023438 219.804688 "/>
<path style=" stroke:none;fill-rule:nonzero;fill:rgb(100%,84.3%,0%);fill-opacity:1;" d="M 137.394531 255.230469 C 137.394531 259.484375 133.949219 262.929688 129.695312 262.929688 C 125.441406 262.929688 121.992188 259.484375 121.992188 255.230469 C 121.992188 250.976562 125.441406 247.527344 129.695312 247.527344 C 133.949219 247.527344 137.394531 250.976562 137.394531 255.230469 "/>
<path style=" stroke:none;fill-rule:nonzero;fill:rgb(100%,84.3%,0%);fill-opacity:1;" d="M 279.105469 287.574219 C 279.105469 291.828125 275.65625 295.277344 271.402344 295.277344 C 267.148438 295.277344 263.703125 291.828125 263.703125 287.574219 C 263.703125 283.324219 267.148438 279.875 271.402344 279.875 C 275.65625 279.875 279.105469 283.324219 279.105469 287.574219 "/>
<path style=" stroke:none;fill-rule:nonzero;fill:rgb(100%,84.3%,0%);fill-opacity:1;" d="M 276.023438 96.578125 C 276.023438 100.832031 272.578125 104.28125 268.324219 104.28125 C 264.070312 104.28125 260.621094 100.832031 260.621094 96.578125 C 260.621094 92.324219 264.070312 88.875 268.324219 88.875 C 272.578125 88.875 276.023438 92.324219 276.023438 96.578125 "/>
<path style=" stroke:none;fill-rule:nonzero;fill:rgb(100%,84.3%,0%);fill-opacity:1;" d="M 334.554688 289.117188 C 334.554688 293.371094 331.109375 296.820312 326.855469 296.820312 C 322.601562 296.820312 319.152344 293.371094 319.152344 289.117188 C 319.152344 284.863281 322.601562 281.414062 326.855469 281.414062 C 331.109375 281.414062 334.554688 284.863281 334.554688 289.117188 "/>
<path style=" stroke:none;fill-rule:nonzero;fill:rgb(100%,84.3%,0%);fill-opacity:1;" d="M 182.066406 355.351562 C 182.066406 359.601562 178.617188 363.050781 174.363281 363.050781 C 170.109375 363.050781 166.660156 359.601562 166.660156 355.351562 C 166.660156 351.097656 170.109375 347.648438 174.363281 347.648438 C 178.617188 347.648438 182.066406 351.097656 182.066406 355.351562 "/>
<path style=" stroke:none;fill-rule:nonzero;fill:rgb(100%,84.3%,0%);fill-opacity:1;" d="M 397.707031 344.566406 C 397.707031 348.820312 394.261719 352.269531 390.007812 352.269531 C 385.753906 352.269531 382.304688 348.820312 382.304688 344.566406 C 382.304688 340.316406 385.753906 336.867188 390.007812 336.867188 C 394.261719 336.867188 397.707031 340.316406 397.707031 344.566406 "/>
<path style=" stroke:none;fill-rule:nonzero;fill:rgb(100%,84.3%,0%);fill-opacity:1;" d="M 252.917969 190.535156 C 252.917969 194.789062 249.472656 198.238281 245.21875 198.238281 C 240.964844 198.238281 237.515625 194.789062 237.515625 190.535156 C 237.515625 186.285156 240.964844 182.835938 245.21875 182.835938 C 249.472656 182.835938 252.917969 186.285156 252.917969 190.535156 "/>
</g>
</svg>
