<?xml version="1.0" encoding="UTF-8"?>
<svg xmlns="http://www.w3.org/2000/svg" xmlns:xlink="http://www.w3.org/1999/xlink" width="512pt" height="512pt" viewBox="0 0 512 512" version="1.1">
<g id="surface61">
<rect x="0" y="0" width="512" height="512" style="fill:rgb(26.7%,26.7%,26.7%);fill-opacity:1;stroke:none;"/>
<path style=" stroke:none;fill-rule:nonzero;fill:rgb(19.2%,38.8%,66.7%);fill-opacity:1;" d="M 37.03125 42.667969 L 407.347656 42.667969 L 407.347656 469.332031 L 37.03125 469.332031 Z M 37.03125 42.667969 "/>
<path style=" stroke:none;fill-rule:nonzero;fill:rgb(100%,100%,100%);fill-opacity:1;" d="M 498.582031 340.527344 C 498.582031 344.234375 495.578125 347.238281 491.875 347.238281 C 488.167969 347.238281 485.164062 344.234375 485.164062 340.527344 C 485.164062 336.824219 488.167969 333.820312 491.875 333.820312 C 495.578125 333.820312 498.582031 336.824219 498.582031 340.527344 "/>
<path style=" stroke:none;fill-rule:nonzero;fill:rgb(100%,100%,100%);fill-opacity:1;" d="M 8.855469 239.898438 C 8.855469 243.605469 5.851562 246.609375 2.148438 246.609375 C -1.558594 246.609375 -4.5625 243.605469 -4.5625 239.898438 C -4.5625 236.195312 -1.558594 233.191406 2.148438 233.191406 C 5.851562 233.191406 8.855469 236.195312 8.855469 239.898438 "/>
<path style=" stroke:none;fill-rule:nonzero;fill:rgb(100%,100%,100%);fill-opacity:1;" d="M 485.164062 489.460938 C 485.164062 493.164062 482.160156 496.167969 478.457031 496.167969 C 474.75 496.167969 471.75 493.164062 471.75 489.460938 C 471.75 485.753906 474.75 482.75 478.457031 482.75 C 482.160156 482.75 485.164062 485.753906 485.164062 489.460938 "/>
<path style=" stroke:none;fill-rule:nonzero;fill:rgb(100%,100%,100%);fill-opacity:1;" d="M 108.144531 23.882812 C 108.144531 27.589844 105.140625 30.589844 101.433594 30.589844 C 97.730469 30.589844 94.726562 27.589844 94.726562 23.882812 C 94.726562 20.179688 97.730469 17.175781 101.433594 17.175781 C 105.140625 17.175781 108.144531 20.179688 108.144531 23.882812 "/>
<path style=" stroke:none;fill-rule:nonzero;fill:rgb(100%,100%,100%);fill-opacity:1;" d="M 109.484375 41.324219 C 109.484375 45.03125 106.480469 48.035156 102.777344 48.035156 C 99.070312 48.035156 96.066406 45.03125 96.066406 41.324219 C 96.066406 37.621094 99.070312 34.617188 102.777344 34.617188 C 106.480469 34.617188 109.484375 37.621094 109.484375 41.324219 "/>
<path style=" stroke:none;fill-rule:nonzero;fill:rgb(100%,100%,100%);fill-opacity:1;" d="M 495.898438 133.902344 C 495.898438 137.609375 492.894531 140.613281 489.191406 140.613281 C 485.484375 140.613281 482.480469 137.609375 482.480469 133.902344 C 482.480469 130.199219 485.484375 127.195312 489.191406 127.195312 C 492.894531 127.195312 495.898438 130.199219 495.898438 133.902344 "/>
<path style=" stroke:none;fill-rule:nonzero;fill:rgb(100%,100%,100%);fill-opacity:1;" d="M 388.5625 508.242188 C 388.5625 511.949219 385.558594 514.953125 381.851562 514.953125 C 378.148438 514.953125 375.144531 511.949219 375.144531 508.242188 C 375.144531 504.539062 378.148438 501.535156 381.851562 501.535156 C 385.558594 501.535156 388.5625 504.539062 388.5625 508.242188 "/>
<path style=" stroke:none;fill-rule:nonzero;fill:rgb(100%,100%,100%);fill-opacity:1;" d="M 483.824219 443.839844 C 483.824219 447.546875 480.820312 450.550781 477.113281 450.550781 C 473.410156 450.550781 470.40625 447.546875 470.40625 443.839844 C 470.40625 440.136719 473.410156 437.132812 477.113281 437.132812 C 480.820312 437.132812 483.824219 440.136719 483.824219 443.839844 "/>
<path style=" stroke:none;fill-rule:nonzero;fill:rgb(100%,100%,100%);fill-opacity:1;" d="M 38.375 459.941406 C 38.375 463.644531 35.371094 466.648438 31.664062 466.648438 C 27.960938 466.648438 24.957031 463.644531 24.957031 459.941406 C 24.957031 456.234375 27.960938 453.230469 31.664062 453.230469 C 35.371094 453.230469 38.375 456.234375 38.375 459.941406 "/>
<path style=" stroke:none;fill-rule:nonzero;fill:rgb(100%,100%,100%);fill-opacity:1;" d="M 501.265625 200.988281 C 501.265625 204.695312 498.261719 207.699219 494.558594 207.699219 C 490.851562 207.699219 487.847656 204.695312 487.847656 200.988281 C 487.847656 197.285156 490.851562 194.28125 494.558594 194.28125 C 498.261719 194.28125 501.265625 197.285156 501.265625 200.988281 "/>
<path style=" stroke:none;fill-rule:nonzero;fill:rgb(100%,100%,100%);fill-opacity:1;" d="M 55.816406 34.617188 C 55.816406 38.320312 52.8125 41.324219 49.105469 41.324219 C 45.402344 41.324219 42.398438 38.320312 42.398438 34.617188 C 42.398438 30.910156 45.402344 27.90625 49.105469 27.90625 C 52.8125 27.90625 55.816406 30.910156 55.816406 34.617188 "/>
<path style=" stroke:none;fill-rule:nonzero;fill:rgb(100%,100%,100%);fill-opacity:1;" d="M 167.179688 21.199219 C 167.179688 24.902344 164.175781 27.90625 160.46875 27.90625 C 156.765625 27.90625 153.761719 24.902344 153.761719 21.199219 C 153.761719 17.492188 156.765625 14.492188 160.46875 14.492188 C 164.175781 14.492188 167.179688 17.492188 167.179688 21.199219 "/>
<path style=" stroke:none;fill-rule:nonzero;fill:rgb(100%,100%,100%);fill-opacity:1;" d="M 479.796875 249.289062 C 479.796875 252.996094 476.796875 256 473.089844 256 C 469.386719 256 466.382812 252.996094 466.382812 249.289062 C 466.382812 245.585938 469.386719 242.582031 473.089844 242.582031 C 476.796875 242.582031 479.796875 245.585938 479.796875 249.289062 "/>
<path style=" stroke:none;fill-rule:nonzero;fill:rgb(100%,100%,100%);fill-opacity:1;" d="M 501.265625 294.910156 C 501.265625 298.613281 498.261719 301.617188 494.558594 301.617188 C 490.851562 301.617188 487.847656 298.613281 487.847656 294.910156 C 487.847656 291.203125 490.851562 288.203125 494.558594 288.203125 C 498.261719 288.203125 501.265625 291.203125 501.265625 294.910156 "/>
<path style=" stroke:none;fill-rule:nonzero;fill:rgb(100%,100%,100%);fill-opacity:1;" d="M 462.355469 345.894531 C 462.355469 349.601562 459.351562 352.605469 455.648438 352.605469 C 451.941406 352.605469 448.9375 349.601562 448.9375 345.894531 C 448.9375 342.191406 451.941406 339.1875 455.648438 339.1875 C 459.351562 339.1875 462.355469 342.191406 462.355469 345.894531 "/>
<path style=" stroke:none;fill-rule:nonzero;fill:rgb(100%,100%,100%);fill-opacity:1;" d="M 434.179688 18.515625 C 434.179688 22.222656 431.175781 25.222656 427.472656 25.222656 C 423.765625 25.222656 420.761719 22.222656 420.761719 18.515625 C 420.761719 14.8125 423.765625 11.808594 427.472656 11.808594 C 431.175781 11.808594 434.179688 14.8125 434.179688 18.515625 "/>
<path style=" stroke:none;fill-rule:nonzero;fill:rgb(100%,100%,100%);fill-opacity:1;" d="M 420.761719 332.476562 C 420.761719 336.183594 417.761719 339.1875 414.054688 339.1875 C 410.351562 339.1875 407.347656 336.183594 407.347656 332.476562 C 407.347656 328.773438 410.351562 325.769531 414.054688 325.769531 C 417.761719 325.769531 420.761719 328.773438 420.761719 332.476562 "/>
<path style=" stroke:none;fill-rule:nonzero;fill:rgb(100%,100%,100%);fill-opacity:1;" d="M 35.691406 73.527344 C 35.691406 77.230469 32.6875 80.234375 28.980469 80.234375 C 25.277344 80.234375 22.273438 77.230469 22.273438 73.527344 C 22.273438 69.820312 25.277344 66.816406 28.980469 66.816406 C 32.6875 66.816406 35.691406 69.820312 35.691406 73.527344 "/>
<path style=" stroke:none;fill-rule:nonzero;fill:rgb(100%,100%,100%);fill-opacity:1;" d="M 222.1875 6.441406 C 222.1875 10.144531 219.183594 13.148438 215.480469 13.148438 C 211.773438 13.148438 208.769531 10.144531 208.769531 6.441406 C 208.769531 2.734375 211.773438 -0.269531 215.480469 -0.269531 C 219.183594 -0.269531 222.1875 2.734375 222.1875 6.441406 "/>
<path style=" stroke:none;fill-rule:nonzero;fill:rgb(100%,100%,100%);fill-opacity:1;" d="M 423.445312 70.84375 C 423.445312 74.546875 420.441406 77.550781 416.738281 77.550781 C 413.03125 77.550781 410.03125 74.546875 410.03125 70.84375 C 410.03125 67.136719 413.03125 64.132812 416.738281 64.132812 C 420.441406 64.132812 423.445312 67.136719 423.445312 70.84375 "/>
<path style=" stroke:none;fill-rule:nonzero;fill:rgb(100%,100%,100%);fill-opacity:1;" d="M 462.355469 128.535156 C 462.355469 132.242188 459.351562 135.246094 455.648438 135.246094 C 451.941406 135.246094 448.9375 132.242188 448.9375 128.535156 C 448.9375 124.832031 451.941406 121.828125 455.648438 121.828125 C 459.351562 121.828125 462.355469 124.832031 462.355469 128.535156 "/>
<path style=" stroke:none;fill-rule:nonzero;fill:rgb(100%,100%,100%);fill-opacity:1;" d="M 481.140625 301.617188 C 481.140625 305.324219 478.136719 308.328125 474.433594 308.328125 C 470.726562 308.328125 467.722656 305.324219 467.722656 301.617188 C 467.722656 297.914062 470.726562 294.910156 474.433594 294.910156 C 478.136719 294.910156 481.140625 297.914062 481.140625 301.617188 "/>
<path style=" stroke:none;fill-rule:nonzero;fill:rgb(100%,100%,100%);fill-opacity:1;" d="M 66.550781 1.074219 C 66.550781 4.777344 63.546875 7.78125 59.839844 7.78125 C 56.136719 7.78125 53.132812 4.777344 53.132812 1.074219 C 53.132812 -2.632812 56.136719 -5.636719 59.839844 -5.636719 C 63.546875 -5.636719 66.550781 -2.632812 66.550781 1.074219 "/>
<path style=" stroke:none;fill-rule:nonzero;fill:rgb(100%,100%,100%);fill-opacity:1;" d="M 467.722656 215.746094 C 467.722656 219.453125 464.71875 222.457031 461.015625 222.457031 C 457.308594 222.457031 454.304688 219.453125 454.304688 215.746094 C 454.304688 212.042969 457.308594 209.039062 461.015625 209.039062 C 464.71875 209.039062 467.722656 212.042969 467.722656 215.746094 "/>
<path style=" stroke:none;fill-rule:nonzero;fill:rgb(100%,100%,100%);fill-opacity:1;" d="M 11.539062 219.773438 C 11.539062 223.480469 8.535156 226.484375 4.828125 226.484375 C 1.125 226.484375 -1.878906 223.480469 -1.878906 219.773438 C -1.878906 216.070312 1.125 213.066406 4.828125 213.066406 C 8.535156 213.066406 11.539062 216.070312 11.539062 219.773438 "/>
<path style=" stroke:none;fill-rule:nonzero;fill:rgb(100%,100%,100%);fill-opacity:1;" d="M 30.324219 143.296875 C 30.324219 147 27.320312 150.003906 23.613281 150.003906 C 19.910156 150.003906 16.90625 147 16.90625 143.296875 C 16.90625 139.589844 19.910156 136.585938 23.613281 136.585938 C 27.320312 136.585938 30.324219 139.589844 30.324219 143.296875 "/>
<path style=" stroke:none;fill-rule:nonzero;fill:rgb(100%,100%,100%);fill-opacity:1;" d="M 466.382812 44.007812 C 466.382812 47.714844 463.378906 50.714844 459.671875 50.714844 C 455.96875 50.714844 452.964844 47.714844 452.964844 44.007812 C 452.964844 40.304688 455.96875 37.300781 459.671875 37.300781 C 463.378906 37.300781 466.382812 40.304688 466.382812 44.007812 "/>
<path style=" stroke:none;fill-rule:nonzero;fill:rgb(100%,100%,100%);fill-opacity:1;" d="M 512 132.5625 C 512 136.265625 508.996094 139.269531 505.289062 139.269531 C 501.585938 139.269531 498.582031 136.265625 498.582031 132.5625 C 498.582031 128.855469 501.585938 125.851562 505.289062 125.851562 C 508.996094 125.851562 512 128.855469 512 132.5625 "/>
<path style=" stroke:none;fill-rule:nonzero;fill:rgb(100%,100%,100%);fill-opacity:1;" d="M 389.902344 501.535156 C 389.902344 505.238281 386.898438 508.242188 383.195312 508.242188 C 379.488281 508.242188 376.488281 505.238281 376.488281 501.535156 C 376.488281 497.828125 379.488281 494.828125 383.195312 494.828125 C 386.898438 494.828125 389.902344 497.828125 389.902344 501.535156 "/>
<path style=" stroke:none;fill-rule:nonzero;fill:rgb(100%,100%,100%);fill-opacity:1;" d="M 507.972656 431.765625 C 507.972656 435.46875 504.972656 438.472656 501.265625 438.472656 C 497.5625 438.472656 494.558594 435.46875 494.558594 431.765625 C 494.558594 428.058594 497.5625 425.054688 501.265625 425.054688 C 504.972656 425.054688 507.972656 428.058594 507.972656 431.765625 "/>
<path style=" stroke:none;fill-rule:nonzero;fill:rgb(100%,100%,100%);fill-opacity:1;" d="M 493.214844 481.410156 C 493.214844 485.113281 490.210938 488.117188 486.507812 488.117188 C 482.800781 488.117188 479.796875 485.113281 479.796875 481.410156 C 479.796875 477.703125 482.800781 474.699219 486.507812 474.699219 C 490.210938 474.699219 493.214844 477.703125 493.214844 481.410156 "/>
<path style=" stroke:none;fill-rule:nonzero;fill:rgb(100%,100%,100%);fill-opacity:1;" d="M 477.117188 496.167969 C 477.117188 499.875 474.113281 502.875 470.40625 502.875 C 466.703125 502.875 463.699219 499.875 463.699219 496.167969 C 463.699219 492.464844 466.703125 489.460938 470.40625 489.460938 C 474.113281 489.460938 477.117188 492.464844 477.117188 496.167969 "/>
<path style=" stroke:none;fill-rule:nonzero;fill:rgb(100%,100%,100%);fill-opacity:1;" d="M 506.632812 500.191406 C 506.632812 503.898438 503.628906 506.902344 499.925781 506.902344 C 496.21875 506.902344 493.214844 503.898438 493.214844 500.191406 C 493.214844 496.488281 496.21875 493.484375 499.925781 493.484375 C 503.628906 493.484375 506.632812 496.488281 506.632812 500.191406 "/>
<path style=" stroke:none;fill-rule:nonzero;fill:rgb(100%,100%,100%);fill-opacity:1;" d="M 39.714844 147.320312 C 39.714844 151.027344 36.710938 154.03125 33.007812 154.03125 C 29.300781 154.03125 26.296875 151.027344 26.296875 147.320312 C 26.296875 143.617188 29.300781 140.613281 33.007812 140.613281 C 36.710938 140.613281 39.714844 143.617188 39.714844 147.320312 "/>
<path style=" stroke:none;fill-rule:nonzero;fill:rgb(100%,100%,100%);fill-opacity:1;" d="M 447.597656 115.117188 C 447.597656 118.824219 444.59375 121.828125 440.890625 121.828125 C 437.183594 121.828125 434.179688 118.824219 434.179688 115.117188 C 434.179688 111.414062 437.183594 108.410156 440.890625 108.410156 C 444.59375 108.410156 447.597656 111.414062 447.597656 115.117188 "/>
<path style=" stroke:none;fill-rule:nonzero;fill:rgb(100%,100%,100%);fill-opacity:1;" d="M 448.941406 151.347656 C 448.941406 155.050781 445.9375 158.054688 442.230469 158.054688 C 438.527344 158.054688 435.523438 155.050781 435.523438 151.347656 C 435.523438 147.640625 438.527344 144.636719 442.230469 144.636719 C 445.9375 144.636719 448.941406 147.640625 448.941406 151.347656 "/>
<path style=" stroke:none;fill-rule:nonzero;fill:rgb(100%,100%,100%);fill-opacity:1;" d="M 156.445312 5.097656 C 156.445312 8.804688 153.441406 11.808594 149.734375 11.808594 C 146.03125 11.808594 143.027344 8.804688 143.027344 5.097656 C 143.027344 1.394531 146.03125 -1.609375 149.734375 -1.609375 C 153.441406 -1.609375 156.445312 1.394531 156.445312 5.097656 "/>
<path style=" stroke:none;fill-rule:nonzero;fill:rgb(100%,100%,100%);fill-opacity:1;" d="M 518.707031 21.199219 C 518.707031 24.902344 515.703125 27.90625 512 27.90625 C 508.296875 27.90625 505.292969 24.902344 505.292969 21.199219 C 505.292969 17.492188 508.296875 14.492188 512 14.492188 C 515.703125 14.492188 518.707031 17.492188 518.707031 21.199219 "/>
<path style=" stroke:none;fill-rule:nonzero;fill:rgb(100%,100%,100%);fill-opacity:1;" d="M 364.410156 11.808594 C 364.410156 15.511719 361.40625 18.515625 357.703125 18.515625 C 353.996094 18.515625 350.992188 15.511719 350.992188 11.808594 C 350.992188 8.101562 353.996094 5.097656 357.703125 5.097656 C 361.40625 5.097656 364.410156 8.101562 364.410156 11.808594 "/>
<path style=" stroke:none;fill-rule:nonzero;fill:rgb(100%,100%,100%);fill-opacity:1;" d="M 367.09375 488.117188 C 367.09375 491.820312 364.089844 494.824219 360.386719 494.824219 C 356.679688 494.824219 353.675781 491.820312 353.675781 488.117188 C 353.675781 484.410156 356.679688 481.410156 360.386719 481.410156 C 364.089844 481.410156 367.09375 484.410156 367.09375 488.117188 "/>
<path style=" stroke:none;fill-rule:nonzero;fill:rgb(100%,100%,100%);fill-opacity:1;" d="M 478.457031 258.683594 C 478.457031 262.386719 475.453125 265.390625 471.746094 265.390625 C 468.042969 265.390625 465.039062 262.386719 465.039062 258.683594 C 465.039062 254.976562 468.042969 251.972656 471.746094 251.972656 C 475.453125 251.972656 478.457031 254.976562 478.457031 258.683594 "/>
<path style=" stroke:none;fill-rule:nonzero;fill:rgb(100%,100%,100%);fill-opacity:1;" d="M 50.449219 481.410156 C 50.449219 485.113281 47.445312 488.117188 43.738281 488.117188 C 40.035156 488.117188 37.03125 485.113281 37.03125 481.410156 C 37.03125 477.703125 40.035156 474.699219 43.738281 474.699219 C 47.445312 474.699219 50.449219 477.703125 50.449219 481.410156 "/>
<path style=" stroke:none;fill-rule:nonzero;fill:rgb(100%,100%,100%);fill-opacity:1;" d="M 483.824219 357.972656 C 483.824219 361.675781 480.820312 364.679688 477.113281 364.679688 C 473.410156 364.679688 470.40625 361.675781 470.40625 357.972656 C 470.40625 354.265625 473.410156 351.261719 477.113281 351.261719 C 480.820312 351.261719 483.824219 354.265625 483.824219 357.972656 "/>
<path style=" stroke:none;fill-rule:nonzero;fill:rgb(100%,100%,100%);fill-opacity:1;" d="M 22.273438 144.636719 C 22.273438 148.34375 19.269531 151.34375 15.5625 151.34375 C 11.859375 151.34375 8.855469 148.34375 8.855469 144.636719 C 8.855469 140.933594 11.859375 137.929688 15.5625 137.929688 C 19.269531 137.929688 22.273438 140.933594 22.273438 144.636719 "/>
<path style=" stroke:none;fill-rule:nonzero;fill:rgb(100%,100%,100%);fill-opacity:1;" d="M 507.972656 486.777344 C 507.972656 490.480469 504.972656 493.484375 501.265625 493.484375 C 497.5625 493.484375 494.558594 490.480469 494.558594 486.777344 C 494.558594 483.070312 497.5625 480.066406 501.265625 480.066406 C 504.972656 480.066406 507.972656 483.070312 507.972656 486.777344 "/>
<path style=" stroke:none;fill-rule:nonzero;fill:rgb(100%,100%,100%);fill-opacity:1;" d="M 20.929688 383.464844 C 20.929688 387.167969 17.925781 390.171875 14.222656 390.171875 C 10.515625 390.171875 7.511719 387.167969 7.511719 383.464844 C 7.511719 379.757812 10.515625 376.753906 14.222656 376.753906 C 17.925781 376.753906 20.929688 379.757812 20.929688 383.464844 "/>
<path style=" stroke:none;fill-rule:nonzero;fill:rgb(100%,100%,100%);fill-opacity:1;" d="M 477.117188 -0.269531 C 477.117188 3.4375 474.113281 6.441406 470.40625 6.441406 C 466.703125 6.441406 463.699219 3.4375 463.699219 -0.269531 C 463.699219 -3.972656 466.703125 -6.976562 470.40625 -6.976562 C 474.113281 -6.976562 477.117188 -3.972656 477.117188 -0.269531 "/>
<path style=" stroke:none;fill-rule:nonzero;fill:rgb(100%,100%,100%);fill-opacity:1;" d="M 495.898438 34.617188 C 495.898438 38.320312 492.894531 41.324219 489.191406 41.324219 C 485.484375 41.324219 482.480469 38.320312 482.480469 34.617188 C 482.480469 30.910156 485.484375 27.90625 489.191406 27.90625 C 492.894531 27.90625 495.898438 30.910156 495.898438 34.617188 "/>
<path style=" stroke:none;fill-rule:nonzero;fill:rgb(100%,100%,100%);fill-opacity:1;" d="M 416.738281 282.835938 C 416.738281 286.539062 413.734375 289.542969 410.027344 289.542969 C 406.324219 289.542969 403.320312 286.539062 403.320312 282.835938 C 403.320312 279.128906 406.324219 276.125 410.027344 276.125 C 413.734375 276.125 416.738281 279.128906 416.738281 282.835938 "/>
<path style=" stroke:none;fill-rule:nonzero;fill:rgb(100%,100%,100%);fill-opacity:1;" d="M 422.105469 41.324219 C 422.105469 45.03125 419.101562 48.035156 415.394531 48.035156 C 411.691406 48.035156 408.6875 45.03125 408.6875 41.324219 C 408.6875 37.621094 411.691406 34.617188 415.394531 34.617188 C 419.101562 34.617188 422.105469 37.621094 422.105469 41.324219 "/>
<path style=" stroke:none;fill-rule:nonzero;fill:rgb(100%,100%,100%);fill-opacity:1;" d="M 215.480469 34.617188 C 215.480469 38.320312 212.476562 41.324219 208.769531 41.324219 C 205.066406 41.324219 202.0625 38.320312 202.0625 34.617188 C 202.0625 30.910156 205.066406 27.90625 208.769531 27.90625 C 212.476562 27.90625 215.480469 30.910156 215.480469 34.617188 "/>
<path style=" stroke:none;fill-rule:nonzero;fill:rgb(100%,100%,100%);fill-opacity:1;" d="M 482.484375 517.636719 C 482.484375 521.339844 479.480469 524.34375 475.773438 524.34375 C 472.070312 524.34375 469.066406 521.339844 469.066406 517.636719 C 469.066406 513.929688 472.070312 510.925781 475.773438 510.925781 C 479.480469 510.925781 482.484375 513.929688 482.484375 517.636719 "/>
<path style=" stroke:none;fill-rule:nonzero;fill:rgb(100%,100%,100%);fill-opacity:1;" d="M 283.90625 517.636719 C 283.90625 521.339844 280.902344 524.34375 277.199219 524.34375 C 273.492188 524.34375 270.492188 521.339844 270.492188 517.636719 C 270.492188 513.929688 273.492188 510.925781 277.199219 510.925781 C 280.902344 510.925781 283.90625 513.929688 283.90625 517.636719 "/>
<path style=" stroke:none;fill-rule:nonzero;fill:rgb(100%,100%,100%);fill-opacity:1;" d="M 219.503906 2.414062 C 219.503906 6.121094 216.503906 9.125 212.796875 9.125 C 209.09375 9.125 206.089844 6.121094 206.089844 2.414062 C 206.089844 -1.289062 209.09375 -4.292969 212.796875 -4.292969 C 216.503906 -4.292969 219.503906 -1.289062 219.503906 2.414062 "/>
<path style=" stroke:none;fill-rule:nonzero;fill:rgb(100%,100%,100%);fill-opacity:1;" d="M 18.246094 302.960938 C 18.246094 306.664062 15.242188 309.667969 11.539062 309.667969 C 7.832031 309.667969 4.832031 306.664062 4.832031 302.960938 C 4.832031 299.253906 7.832031 296.25 11.539062 296.25 C 15.242188 296.25 18.246094 299.253906 18.246094 302.960938 "/>
<path style=" stroke:none;fill-rule:nonzero;fill:rgb(100%,100%,100%);fill-opacity:1;" d="M 6.171875 347.238281 C 6.171875 350.941406 3.167969 353.945312 -0.535156 353.945312 C -4.242188 353.945312 -7.246094 350.941406 -7.246094 347.238281 C -7.246094 343.53125 -4.242188 340.527344 -0.535156 340.527344 C 3.167969 340.527344 6.171875 343.53125 6.171875 347.238281 "/>
<path style=" stroke:none;fill-rule:nonzero;fill:rgb(100%,100%,100%);fill-opacity:1;" d="M 403.320312 510.925781 C 403.320312 514.632812 400.316406 517.636719 396.613281 517.636719 C 392.90625 517.636719 389.902344 514.632812 389.902344 510.925781 C 389.902344 507.222656 392.90625 504.21875 396.613281 504.21875 C 400.316406 504.21875 403.320312 507.222656 403.320312 510.925781 "/>
<path style=" stroke:none;fill-rule:nonzero;fill:rgb(100%,100%,100%);fill-opacity:1;" d="M 418.078125 431.765625 C 418.078125 435.46875 415.074219 438.472656 411.371094 438.472656 C 407.664062 438.472656 404.664062 435.46875 404.664062 431.765625 C 404.664062 428.058594 407.664062 425.054688 411.371094 425.054688 C 415.074219 425.054688 418.078125 428.058594 418.078125 431.765625 "/>
<path style=" stroke:none;fill-rule:nonzero;fill:rgb(100%,100%,100%);fill-opacity:1;" d="M 4.832031 502.875 C 4.832031 506.582031 1.828125 509.585938 -1.878906 509.585938 C -5.582031 509.585938 -8.585938 506.582031 -8.585938 502.875 C -8.585938 499.171875 -5.582031 496.167969 -1.878906 496.167969 C 1.828125 496.167969 4.832031 499.171875 4.832031 502.875 "/>
<path style=" stroke:none;fill-rule:nonzero;fill:rgb(100%,100%,100%);fill-opacity:1;" d="M 520.050781 398.222656 C 520.050781 401.925781 517.046875 404.929688 513.34375 404.929688 C 509.636719 404.929688 506.632812 401.925781 506.632812 398.222656 C 506.632812 394.515625 509.636719 391.511719 513.34375 391.511719 C 517.046875 391.511719 520.050781 394.515625 520.050781 398.222656 "/>
<path style=" stroke:none;fill-rule:nonzero;fill:rgb(100%,100%,100%);fill-opacity:1;" d="M 37.03125 500.191406 C 37.03125 503.898438 34.027344 506.902344 30.324219 506.902344 C 26.617188 506.902344 23.613281 503.898438 23.613281 500.191406 C 23.613281 496.488281 26.617188 493.484375 30.324219 493.484375 C 34.027344 493.484375 37.03125 496.488281 37.03125 500.191406 "/>
<path style=" stroke:none;fill-rule:nonzero;fill:rgb(100%,100%,100%);fill-opacity:1;" d="M 206.085938 22.539062 C 206.085938 26.246094 203.085938 29.25 199.378906 29.25 C 195.675781 29.25 192.671875 26.246094 192.671875 22.539062 C 192.671875 18.835938 195.675781 15.832031 199.378906 15.832031 C 203.085938 15.832031 206.085938 18.835938 206.085938 22.539062 "/>
<path style=" stroke:none;fill-rule:nonzero;fill:rgb(100%,100%,100%);fill-opacity:1;" d="M 325.5 7.78125 C 325.5 11.488281 322.496094 14.492188 318.792969 14.492188 C 315.085938 14.492188 312.082031 11.488281 312.082031 7.78125 C 312.082031 4.078125 315.085938 1.074219 318.792969 1.074219 C 322.496094 1.074219 325.5 4.078125 325.5 7.78125 "/>
<path style=" stroke:none;fill-rule:nonzero;fill:rgb(100%,100%,100%);fill-opacity:1;" d="M 524.074219 58.765625 C 524.074219 62.472656 521.070312 65.476562 517.367188 65.476562 C 513.660156 65.476562 510.660156 62.472656 510.660156 58.765625 C 510.660156 55.0625 513.660156 52.058594 517.367188 52.058594 C 521.070312 52.058594 524.074219 55.0625 524.074219 58.765625 "/>
<path style=" stroke:none;fill-rule:nonzero;fill:rgb(100%,100%,100%);fill-opacity:1;" d="M 514.683594 463.964844 C 514.683594 467.671875 511.679688 470.675781 507.976562 470.675781 C 504.269531 470.675781 501.265625 467.671875 501.265625 463.964844 C 501.265625 460.261719 504.269531 457.257812 507.976562 457.257812 C 511.679688 457.257812 514.683594 460.261719 514.683594 463.964844 "/>
<path style=" stroke:none;fill-rule:nonzero;fill:rgb(100%,100%,100%);fill-opacity:1;" d="M 360.386719 29.25 C 360.386719 32.953125 357.382812 35.957031 353.675781 35.957031 C 349.972656 35.957031 346.96875 32.953125 346.96875 29.25 C 346.96875 25.542969 349.972656 22.539062 353.675781 22.539062 C 357.382812 22.539062 360.386719 25.542969 360.386719 29.25 "/>
<path style=" stroke:none;fill-rule:nonzero;fill:rgb(100%,100%,100%);fill-opacity:1;" d="M 501.265625 144.636719 C 501.265625 148.34375 498.261719 151.34375 494.558594 151.34375 C 490.851562 151.34375 487.847656 148.34375 487.847656 144.636719 C 487.847656 140.933594 490.851562 137.929688 494.558594 137.929688 C 498.261719 137.929688 501.265625 140.933594 501.265625 144.636719 "/>
<path style=" stroke:none;fill-rule:nonzero;fill:rgb(100%,100%,100%);fill-opacity:1;" d="M 451.621094 192.9375 C 451.621094 196.644531 448.617188 199.648438 444.914062 199.648438 C 441.207031 199.648438 438.207031 196.644531 438.207031 192.9375 C 438.207031 189.234375 441.207031 186.230469 444.914062 186.230469 C 448.617188 186.230469 451.621094 189.234375 451.621094 192.9375 "/>
<path style=" stroke:none;fill-rule:nonzero;fill:rgb(100%,100%,100%);fill-opacity:1;" d="M 118.875 476.042969 C 118.875 479.746094 115.875 482.75 112.167969 482.75 C 108.464844 482.75 105.460938 479.746094 105.460938 476.042969 C 105.460938 472.335938 108.464844 469.332031 112.167969 469.332031 C 115.875 469.332031 118.875 472.335938 118.875 476.042969 "/>
<path style=" stroke:none;fill-rule:nonzero;fill:rgb(100%,100%,100%);fill-opacity:1;" d="M 506.632812 89.628906 C 506.632812 93.332031 503.628906 96.335938 499.925781 96.335938 C 496.21875 96.335938 493.214844 93.332031 493.214844 89.628906 C 493.214844 85.921875 496.21875 82.917969 499.925781 82.917969 C 503.628906 82.917969 506.632812 85.921875 506.632812 89.628906 "/>
<path style=" stroke:none;fill-rule:nonzero;fill:rgb(100%,100%,100%);fill-opacity:1;" d="M 473.089844 251.976562 C 473.089844 255.679688 470.085938 258.683594 466.382812 258.683594 C 462.675781 258.683594 459.671875 255.679688 459.671875 251.976562 C 459.671875 248.269531 462.675781 245.265625 466.382812 245.265625 C 470.085938 245.265625 473.089844 248.269531 473.089844 251.976562 "/>
<path style=" stroke:none;fill-rule:nonzero;fill:rgb(100%,100%,100%);fill-opacity:1;" d="M 423.445312 506.902344 C 423.445312 510.605469 420.441406 513.609375 416.738281 513.609375 C 413.03125 513.609375 410.03125 510.605469 410.03125 506.902344 C 410.03125 503.195312 413.03125 500.191406 416.738281 500.191406 C 420.441406 500.191406 423.445312 503.195312 423.445312 506.902344 "/>
<path style=" stroke:none;fill-rule:nonzero;fill:rgb(100%,100%,100%);fill-opacity:1;" d="M 513.339844 128.535156 C 513.339844 132.242188 510.339844 135.246094 506.632812 135.246094 C 502.929688 135.246094 499.925781 132.242188 499.925781 128.535156 C 499.925781 124.832031 502.929688 121.828125 506.632812 121.828125 C 510.339844 121.828125 513.339844 124.832031 513.339844 128.535156 "/>
<path style=" stroke:none;fill-rule:nonzero;fill:rgb(100%,100%,100%);fill-opacity:1;" d="M 517.367188 496.167969 C 517.367188 499.875 514.363281 502.875 510.65625 502.875 C 506.953125 502.875 503.949219 499.875 503.949219 496.167969 C 503.949219 492.464844 506.953125 489.460938 510.65625 489.460938 C 514.363281 489.460938 517.367188 492.464844 517.367188 496.167969 "/>
<path style=" stroke:none;fill-rule:nonzero;fill:rgb(100%,100%,100%);fill-opacity:1;" d="M 403.320312 472.015625 C 403.320312 475.722656 400.316406 478.726562 396.613281 478.726562 C 392.90625 478.726562 389.902344 475.722656 389.902344 472.015625 C 389.902344 468.3125 392.90625 465.308594 396.613281 465.308594 C 400.316406 465.308594 403.320312 468.3125 403.320312 472.015625 "/>
<path style=" stroke:none;fill-rule:nonzero;fill:rgb(100%,100%,100%);fill-opacity:1;" d="M 491.875 133.902344 C 491.875 137.609375 488.871094 140.613281 485.164062 140.613281 C 481.460938 140.613281 478.457031 137.609375 478.457031 133.902344 C 478.457031 130.199219 481.460938 127.195312 485.164062 127.195312 C 488.871094 127.195312 491.875 130.199219 491.875 133.902344 "/>
<path style=" stroke:none;fill-rule:nonzero;fill:rgb(100%,100%,100%);fill-opacity:1;" d="M 497.242188 339.1875 C 497.242188 342.890625 494.238281 345.894531 490.53125 345.894531 C 486.828125 345.894531 483.824219 342.890625 483.824219 339.1875 C 483.824219 335.480469 486.828125 332.476562 490.53125 332.476562 C 494.238281 332.476562 497.242188 335.480469 497.242188 339.1875 "/>
<path style=" stroke:none;fill-rule:nonzero;fill:rgb(100%,100%,100%);fill-opacity:1;" d="M 231.582031 477.382812 C 231.582031 481.089844 228.578125 484.09375 224.871094 484.09375 C 221.167969 484.09375 218.164062 481.089844 218.164062 477.382812 C 218.164062 473.679688 221.167969 470.675781 224.871094 470.675781 C 228.578125 470.675781 231.582031 473.679688 231.582031 477.382812 "/>
<path style=" stroke:none;fill-rule:nonzero;fill:rgb(100%,100%,100%);fill-opacity:1;" d="M 475.773438 482.75 C 475.773438 486.457031 472.769531 489.460938 469.066406 489.460938 C 465.359375 489.460938 462.355469 486.457031 462.355469 482.75 C 462.355469 479.046875 465.359375 476.042969 469.066406 476.042969 C 472.769531 476.042969 475.773438 479.046875 475.773438 482.75 "/>
<path style=" stroke:none;fill-rule:nonzero;fill:rgb(100%,100%,100%);fill-opacity:1;" d="M 518.707031 356.628906 C 518.707031 360.335938 515.703125 363.335938 512 363.335938 C 508.296875 363.335938 505.292969 360.335938 505.292969 356.628906 C 505.292969 352.925781 508.296875 349.921875 512 349.921875 C 515.703125 349.921875 518.707031 352.925781 518.707031 356.628906 "/>
<path style=" stroke:none;fill-rule:nonzero;fill:rgb(100%,100%,100%);fill-opacity:1;" d="M 57.15625 498.851562 C 57.15625 502.554688 54.152344 505.558594 50.449219 505.558594 C 46.742188 505.558594 43.742188 502.554688 43.742188 498.851562 C 43.742188 495.144531 46.742188 492.140625 50.449219 492.140625 C 54.152344 492.140625 57.15625 495.144531 57.15625 498.851562 "/>
<path style=" stroke:none;fill-rule:nonzero;fill:rgb(100%,100%,100%);fill-opacity:1;" d="M 308.058594 488.117188 C 308.058594 491.820312 305.054688 494.824219 301.351562 494.824219 C 297.644531 494.824219 294.640625 491.820312 294.640625 488.117188 C 294.640625 484.410156 297.644531 481.410156 301.351562 481.410156 C 305.054688 481.410156 308.058594 484.410156 308.058594 488.117188 "/>
<path style=" stroke:none;fill-rule:nonzero;fill:rgb(100%,100%,100%);fill-opacity:1;" d="M 11.539062 31.933594 C 11.539062 35.636719 8.535156 38.640625 4.828125 38.640625 C 1.125 38.640625 -1.878906 35.636719 -1.878906 31.933594 C -1.878906 28.226562 1.125 25.222656 4.828125 25.222656 C 8.535156 25.222656 11.539062 28.226562 11.539062 31.933594 "/>
<path style=" stroke:none;fill-rule:nonzero;fill:rgb(100%,100%,100%);fill-opacity:1;" d="M 522.734375 382.121094 C 522.734375 385.828125 519.730469 388.832031 516.023438 388.832031 C 512.320312 388.832031 509.316406 385.828125 509.316406 382.121094 C 509.316406 378.417969 512.320312 375.414062 516.023438 375.414062 C 519.730469 375.414062 522.734375 378.417969 522.734375 382.121094 "/>
<path style=" stroke:none;fill-rule:nonzero;fill:rgb(100%,100%,100%);fill-opacity:1;" d="M 419.421875 164.761719 C 419.421875 168.46875 416.417969 171.472656 412.714844 171.472656 C 409.007812 171.472656 406.003906 168.46875 406.003906 164.761719 C 406.003906 161.058594 409.007812 158.054688 412.714844 158.054688 C 416.417969 158.054688 419.421875 161.058594 419.421875 164.761719 "/>
<path style=" stroke:none;fill-rule:nonzero;fill:rgb(100%,84.3%,0%);fill-opacity:1;" d="M 219.503906 203.671875 C 219.503906 207.378906 216.503906 210.382812 212.796875 210.382812 C 209.09375 210.382812 206.089844 207.378906 206.089844 203.671875 C 206.089844 199.96875 209.09375 196.964844 212.796875 196.964844 C 216.503906 196.964844 219.503906 199.96875 219.503906 203.671875 "/>
<path style=" stroke:none;fill-rule:nonzero;fill:rgb(100%,84.3%,0%);fill-opacity:1;" d="M 224.871094 320.402344 C 224.871094 324.109375 221.867188 327.113281 218.164062 327.113281 C 214.457031 327.113281 211.457031 324.109375 211.457031 320.402344 C 211.457031 316.699219 214.457031 313.695312 218.164062 313.695312 C 221.867188 313.695312 224.871094 316.699219 224.871094 320.402344 "/>
<path style=" stroke:none;fill-rule:nonzero;fill:rgb(100%,84.3%,0%);fill-opacity:1;" d="M 181.9375 372.730469 C 181.9375 376.433594 178.933594 379.4375 175.230469 379.4375 C 171.523438 379.4375 168.519531 376.433594 168.519531 372.730469 C 168.519531 369.023438 171.523438 366.019531 175.230469 366.019531 C 178.933594 366.019531 181.9375 369.023438 181.9375 372.730469 "/>
<path style=" stroke:none;fill-rule:nonzero;fill:rgb(100%,84.3%,0%);fill-opacity:1;" d="M 203.40625 226.480469 C 203.40625 230.1875 200.402344 233.191406 196.695312 233.191406 C 192.992188 233.191406 189.988281 230.1875 189.988281 226.480469 C 189.988281 222.777344 192.992188 219.773438 196.695312 219.773438 C 200.402344 219.773438 203.40625 222.777344 203.40625 226.480469 "/>
<path style=" stroke:none;fill-rule:nonzero;fill:rgb(100%,84.3%,0%);fill-opacity:1;" d="M 324.160156 103.042969 C 324.160156 106.75 321.15625 109.753906 317.449219 109.753906 C 313.746094 109.753906 310.742188 106.75 310.742188 103.042969 C 310.742188 99.339844 313.746094 96.335938 317.449219 96.335938 C 321.15625 96.335938 324.160156 99.339844 324.160156 103.042969 "/>
<path style=" stroke:none;fill-rule:nonzero;fill:rgb(100%,84.3%,0%);fill-opacity:1;" d="M 328.183594 425.058594 C 328.183594 428.761719 325.179688 431.765625 321.476562 431.765625 C 317.769531 431.765625 314.765625 428.761719 314.765625 425.058594 C 314.765625 421.351562 317.769531 418.347656 321.476562 418.347656 C 325.179688 418.347656 328.183594 421.351562 328.183594 425.058594 "/>
<path style=" stroke:none;fill-rule:nonzero;fill:rgb(100%,84.3%,0%);fill-opacity:1;" d="M 73.257812 311.011719 C 73.257812 314.714844 70.253906 317.71875 66.550781 317.71875 C 62.84375 317.71875 59.839844 314.714844 59.839844 311.011719 C 59.839844 307.304688 62.84375 304.300781 66.550781 304.300781 C 70.253906 304.300781 73.257812 307.304688 73.257812 311.011719 "/>
<path style=" stroke:none;fill-rule:nonzero;fill:rgb(100%,84.3%,0%);fill-opacity:1;" d="M 361.726562 258.683594 C 361.726562 262.386719 358.722656 265.390625 355.019531 265.390625 C 351.3125 265.390625 348.308594 262.386719 348.308594 258.683594 C 348.308594 254.976562 351.3125 251.972656 355.019531 251.972656 C 358.722656 251.972656 361.726562 254.976562 361.726562 258.683594 "/>
<path style=" stroke:none;fill-rule:nonzero;fill:rgb(100%,84.3%,0%);fill-opacity:1;" d="M 75.941406 384.804688 C 75.941406 388.511719 72.9375 391.511719 69.234375 391.511719 C 65.527344 391.511719 62.523438 388.511719 62.523438 384.804688 C 62.523438 381.101562 65.527344 378.097656 69.234375 378.097656 C 72.9375 378.097656 75.941406 381.101562 75.941406 384.804688 "/>
<path style=" stroke:none;fill-rule:nonzero;fill:rgb(100%,84.3%,0%);fill-opacity:1;" d="M 365.753906 321.742188 C 365.753906 325.449219 362.75 328.453125 359.042969 328.453125 C 355.339844 328.453125 352.335938 325.449219 352.335938 321.742188 C 352.335938 318.039062 355.339844 315.035156 359.042969 315.035156 C 362.75 315.035156 365.753906 318.039062 365.753906 321.742188 "/>
<path style=" stroke:none;fill-rule:nonzero;fill:rgb(100%,84.3%,0%);fill-opacity:1;" d="M 244.996094 433.105469 C 244.996094 436.8125 241.992188 439.816406 238.289062 439.816406 C 234.582031 439.816406 231.582031 436.8125 231.582031 433.105469 C 231.582031 429.402344 234.582031 426.398438 238.289062 426.398438 C 241.992188 426.398438 244.996094 429.402344 244.996094 433.105469 "/>
<path style=" stroke:none;fill-rule:nonzero;fill:rgb(100%,84.3%,0%);fill-opacity:1;" d="M 69.234375 88.285156 C 69.234375 91.988281 66.230469 94.992188 62.523438 94.992188 C 58.820312 94.992188 55.816406 91.988281 55.816406 88.285156 C 55.816406 84.578125 58.820312 81.578125 62.523438 81.578125 C 66.230469 81.578125 69.234375 84.578125 69.234375 88.285156 "/>
<path style=" stroke:none;fill-rule:nonzero;fill:rgb(100%,84.3%,0%);fill-opacity:1;" d="M 181.9375 93.652344 C 181.9375 97.355469 178.933594 100.359375 175.230469 100.359375 C 171.523438 100.359375 168.519531 97.355469 168.519531 93.652344 C 168.519531 89.945312 171.523438 86.945312 175.230469 86.945312 C 178.933594 86.945312 181.9375 89.945312 181.9375 93.652344 "/>
<path style=" stroke:none;fill-rule:nonzero;fill:rgb(100%,84.3%,0%);fill-opacity:1;" d="M 67.890625 371.386719 C 67.890625 375.09375 64.886719 378.097656 61.183594 378.097656 C 57.476562 378.097656 54.472656 375.09375 54.472656 371.386719 C 54.472656 367.683594 57.476562 364.679688 61.183594 364.679688 C 64.886719 364.679688 67.890625 367.683594 67.890625 371.386719 "/>
<path style=" stroke:none;fill-rule:nonzero;fill:rgb(100%,84.3%,0%);fill-opacity:1;" d="M 322.816406 298.933594 C 322.816406 302.640625 319.8125 305.644531 316.109375 305.644531 C 312.402344 305.644531 309.402344 302.640625 309.402344 298.933594 C 309.402344 295.230469 312.402344 292.226562 316.109375 292.226562 C 319.8125 292.226562 322.816406 295.230469 322.816406 298.933594 "/>
<path style=" stroke:none;fill-rule:nonzero;fill:rgb(100%,84.3%,0%);fill-opacity:1;" d="M 266.464844 361.996094 C 266.464844 365.699219 263.460938 368.703125 259.757812 368.703125 C 256.050781 368.703125 253.046875 365.699219 253.046875 361.996094 C 253.046875 358.289062 256.050781 355.289062 259.757812 355.289062 C 263.460938 355.289062 266.464844 358.289062 266.464844 361.996094 "/>
<path style=" stroke:none;fill-rule:nonzero;fill:rgb(100%,84.3%,0%);fill-opacity:1;" d="M 196.695312 388.828125 C 196.695312 392.535156 193.691406 395.539062 189.988281 395.539062 C 186.28125 395.539062 183.277344 392.535156 183.277344 388.828125 C 183.277344 385.125 186.28125 382.121094 189.988281 382.121094 C 193.691406 382.121094 196.695312 385.125 196.695312 388.828125 "/>
<path style=" stroke:none;fill-rule:nonzero;fill:rgb(100%,84.3%,0%);fill-opacity:1;" d="M 238.289062 166.105469 C 238.289062 169.808594 235.285156 172.8125 231.582031 172.8125 C 227.875 172.8125 224.871094 169.808594 224.871094 166.105469 C 224.871094 162.398438 227.875 159.394531 231.582031 159.394531 C 235.285156 159.394531 238.289062 162.398438 238.289062 166.105469 "/>
<path style=" stroke:none;fill-rule:nonzero;fill:rgb(100%,84.3%,0%);fill-opacity:1;" d="M 294.640625 223.800781 C 294.640625 227.503906 291.636719 230.507812 287.933594 230.507812 C 284.226562 230.507812 281.222656 227.503906 281.222656 223.800781 C 281.222656 220.09375 284.226562 217.089844 287.933594 217.089844 C 291.636719 217.089844 294.640625 220.09375 294.640625 223.800781 "/>
<path style=" stroke:none;fill-rule:nonzero;fill:rgb(100%,84.3%,0%);fill-opacity:1;" d="M 355.019531 132.5625 C 355.019531 136.265625 352.015625 139.269531 348.308594 139.269531 C 344.605469 139.269531 341.601562 136.265625 341.601562 132.5625 C 341.601562 128.855469 344.605469 125.851562 348.308594 125.851562 C 352.015625 125.851562 355.019531 128.855469 355.019531 132.5625 "/>
<path style=" stroke:none;fill-rule:nonzero;fill:rgb(100%,84.3%,0%);fill-opacity:1;" d="M 317.449219 455.914062 C 317.449219 459.621094 314.445312 462.625 310.742188 462.625 C 307.035156 462.625 304.035156 459.621094 304.035156 455.914062 C 304.035156 452.210938 307.035156 449.207031 310.742188 449.207031 C 314.445312 449.207031 317.449219 452.210938 317.449219 455.914062 "/>
<path style=" stroke:none;fill-rule:nonzero;fill:rgb(100%,84.3%,0%);fill-opacity:1;" d="M 89.359375 56.085938 C 89.359375 59.789062 86.355469 62.792969 82.648438 62.792969 C 78.945312 62.792969 75.941406 59.789062 75.941406 56.085938 C 75.941406 52.378906 78.945312 49.375 82.648438 49.375 C 86.355469 49.375 89.359375 52.378906 89.359375 56.085938 "/>
<path style=" stroke:none;fill-rule:nonzero;fill:rgb(100%,84.3%,0%);fill-opacity:1;" d="M 355.019531 447.867188 C 355.019531 451.570312 352.015625 454.574219 348.308594 454.574219 C 344.605469 454.574219 341.601562 451.570312 341.601562 447.867188 C 341.601562 444.160156 344.605469 441.15625 348.308594 441.15625 C 352.015625 441.15625 355.019531 444.160156 355.019531 447.867188 "/>
<path style=" stroke:none;fill-rule:nonzero;fill:rgb(100%,84.3%,0%);fill-opacity:1;" d="M 279.882812 231.847656 C 279.882812 235.554688 276.878906 238.558594 273.175781 238.558594 C 269.46875 238.558594 266.464844 235.554688 266.464844 231.847656 C 266.464844 228.144531 269.46875 225.140625 273.175781 225.140625 C 276.878906 225.140625 279.882812 228.144531 279.882812 231.847656 "/>
<path style=" stroke:none;fill-rule:nonzero;fill:rgb(100%,84.3%,0%);fill-opacity:1;" d="M 289.273438 132.5625 C 289.273438 136.265625 286.269531 139.269531 282.566406 139.269531 C 278.859375 139.269531 275.855469 136.265625 275.855469 132.5625 C 275.855469 128.855469 278.859375 125.851562 282.566406 125.851562 C 286.269531 125.851562 289.273438 128.855469 289.273438 132.5625 "/>
<path style=" stroke:none;fill-rule:nonzero;fill:rgb(100%,84.3%,0%);fill-opacity:1;" d="M 147.050781 226.480469 C 147.050781 230.1875 144.050781 233.191406 140.34375 233.191406 C 136.640625 233.191406 133.636719 230.1875 133.636719 226.480469 C 133.636719 222.777344 136.640625 219.773438 140.34375 219.773438 C 144.050781 219.773438 147.050781 222.777344 147.050781 226.480469 "/>
<path style=" stroke:none;fill-rule:nonzero;fill:rgb(100%,84.3%,0%);fill-opacity:1;" d="M 89.359375 374.070312 C 89.359375 377.777344 86.355469 380.78125 82.648438 380.78125 C 78.945312 380.78125 75.941406 377.777344 75.941406 374.070312 C 75.941406 370.367188 78.945312 367.363281 82.648438 367.363281 C 86.355469 367.363281 89.359375 370.367188 89.359375 374.070312 "/>
<path style=" stroke:none;fill-rule:nonzero;fill:rgb(100%,84.3%,0%);fill-opacity:1;" d="M 301.351562 123.171875 C 301.351562 126.875 298.347656 129.878906 294.640625 129.878906 C 290.9375 129.878906 287.933594 126.875 287.933594 123.171875 C 287.933594 119.464844 290.9375 116.460938 294.640625 116.460938 C 298.347656 116.460938 301.351562 119.464844 301.351562 123.171875 "/>
<path style=" stroke:none;fill-rule:nonzero;fill:rgb(100%,84.3%,0%);fill-opacity:1;" d="M 117.535156 253.316406 C 117.535156 257.023438 114.53125 260.027344 110.824219 260.027344 C 107.121094 260.027344 104.117188 257.023438 104.117188 253.316406 C 104.117188 249.613281 107.121094 246.609375 110.824219 246.609375 C 114.53125 246.609375 117.535156 249.613281 117.535156 253.316406 "/>
<path style=" stroke:none;fill-rule:nonzero;fill:rgb(100%,84.3%,0%);fill-opacity:1;" d="M 65.207031 233.191406 C 65.207031 236.894531 62.203125 239.898438 58.5 239.898438 C 54.792969 239.898438 51.789062 236.894531 51.789062 233.191406 C 51.789062 229.484375 54.792969 226.480469 58.5 226.480469 C 62.203125 226.480469 65.207031 229.484375 65.207031 233.191406 "/>
<path style=" stroke:none;fill-rule:nonzero;fill:rgb(100%,84.3%,0%);fill-opacity:1;" d="M 304.035156 313.695312 C 304.035156 317.398438 301.03125 320.402344 297.324219 320.402344 C 293.621094 320.402344 290.617188 317.398438 290.617188 313.695312 C 290.617188 309.988281 293.621094 306.984375 297.324219 306.984375 C 301.03125 306.984375 304.035156 309.988281 304.035156 313.695312 "/>
<path style=" stroke:none;fill-rule:nonzero;fill:rgb(100%,84.3%,0%);fill-opacity:1;" d="M 180.59375 353.945312 C 180.59375 357.648438 177.59375 360.652344 173.886719 360.652344 C 170.183594 360.652344 167.179688 357.648438 167.179688 353.945312 C 167.179688 350.238281 170.183594 347.238281 173.886719 347.238281 C 177.59375 347.238281 180.59375 350.238281 180.59375 353.945312 "/>
<path style=" stroke:none;fill-rule:nonzero;fill:rgb(100%,84.3%,0%);fill-opacity:1;" d="M 279.882812 78.894531 C 279.882812 82.597656 276.878906 85.601562 273.175781 85.601562 C 269.46875 85.601562 266.464844 82.597656 266.464844 78.894531 C 266.464844 75.1875 269.46875 72.183594 273.175781 72.183594 C 276.878906 72.183594 279.882812 75.1875 279.882812 78.894531 "/>
<path style=" stroke:none;fill-rule:nonzero;fill:rgb(100%,84.3%,0%);fill-opacity:1;" d="M 98.75 441.15625 C 98.75 444.863281 95.746094 447.867188 92.042969 447.867188 C 88.335938 447.867188 85.332031 444.863281 85.332031 441.15625 C 85.332031 437.453125 88.335938 434.449219 92.042969 434.449219 C 95.746094 434.449219 98.75 437.453125 98.75 441.15625 "/>
<path style=" stroke:none;fill-rule:nonzero;fill:rgb(100%,84.3%,0%);fill-opacity:1;" d="M 89.359375 234.53125 C 89.359375 238.238281 86.355469 241.242188 82.648438 241.242188 C 78.945312 241.242188 75.941406 238.238281 75.941406 234.53125 C 75.941406 230.828125 78.945312 227.824219 82.648438 227.824219 C 86.355469 227.824219 89.359375 230.828125 89.359375 234.53125 "/>
<path style=" stroke:none;fill-rule:nonzero;fill:rgb(100%,84.3%,0%);fill-opacity:1;" d="M 334.894531 403.589844 C 334.894531 407.292969 331.890625 410.296875 328.183594 410.296875 C 324.480469 410.296875 321.476562 407.292969 321.476562 403.589844 C 321.476562 399.882812 324.480469 396.878906 328.183594 396.878906 C 331.890625 396.878906 334.894531 399.882812 334.894531 403.589844 "/>
<path style=" stroke:none;fill-rule:nonzero;fill:rgb(100%,84.3%,0%);fill-opacity:1;" d="M 249.023438 116.460938 C 249.023438 120.167969 246.019531 123.167969 242.3125 123.167969 C 238.609375 123.167969 235.605469 120.167969 235.605469 116.460938 C 235.605469 112.757812 238.609375 109.753906 242.3125 109.753906 C 246.019531 109.753906 249.023438 112.757812 249.023438 116.460938 "/>
<path style=" stroke:none;fill-rule:nonzero;fill:rgb(100%,84.3%,0%);fill-opacity:1;" d="M 57.15625 396.882812 C 57.15625 400.585938 54.152344 403.589844 50.449219 403.589844 C 46.742188 403.589844 43.742188 400.585938 43.742188 396.882812 C 43.742188 393.175781 46.742188 390.171875 50.449219 390.171875 C 54.152344 390.171875 57.15625 393.175781 57.15625 396.882812 "/>
<path style=" stroke:none;fill-rule:nonzero;fill:rgb(100%,84.3%,0%);fill-opacity:1;" d="M 235.605469 179.523438 C 235.605469 183.226562 232.601562 186.230469 228.898438 186.230469 C 225.191406 186.230469 222.1875 183.226562 222.1875 179.523438 C 222.1875 175.816406 225.191406 172.8125 228.898438 172.8125 C 232.601562 172.8125 235.605469 175.816406 235.605469 179.523438 "/>
<path style=" stroke:none;fill-rule:nonzero;fill:rgb(100%,84.3%,0%);fill-opacity:1;" d="M 364.410156 364.679688 C 364.410156 368.382812 361.40625 371.386719 357.703125 371.386719 C 353.996094 371.386719 350.992188 368.382812 350.992188 364.679688 C 350.992188 360.972656 353.996094 357.96875 357.703125 357.96875 C 361.40625 357.96875 364.410156 360.972656 364.410156 364.679688 "/>
<path style=" stroke:none;fill-rule:nonzero;fill:rgb(100%,84.3%,0%);fill-opacity:1;" d="M 160.46875 427.738281 C 160.46875 431.445312 157.464844 434.449219 153.761719 434.449219 C 150.054688 434.449219 147.050781 431.445312 147.050781 427.738281 C 147.050781 424.035156 150.054688 421.03125 153.761719 421.03125 C 157.464844 421.03125 160.46875 424.035156 160.46875 427.738281 "/>
<path style=" stroke:none;fill-rule:nonzero;fill:rgb(100%,84.3%,0%);fill-opacity:1;" d="M 279.882812 249.289062 C 279.882812 252.996094 276.878906 256 273.175781 256 C 269.46875 256 266.464844 252.996094 266.464844 249.289062 C 266.464844 245.585938 269.46875 242.582031 273.175781 242.582031 C 276.878906 242.582031 279.882812 245.585938 279.882812 249.289062 "/>
<path style=" stroke:none;fill-rule:nonzero;fill:rgb(100%,84.3%,0%);fill-opacity:1;" d="M 66.550781 272.101562 C 66.550781 275.804688 63.546875 278.808594 59.839844 278.808594 C 56.136719 278.808594 53.132812 275.804688 53.132812 272.101562 C 53.132812 268.394531 56.136719 265.390625 59.839844 265.390625 C 63.546875 265.390625 66.550781 268.394531 66.550781 272.101562 "/>
<path style=" stroke:none;fill-rule:nonzero;fill:rgb(100%,84.3%,0%);fill-opacity:1;" d="M 238.289062 311.011719 C 238.289062 314.714844 235.285156 317.71875 231.582031 317.71875 C 227.875 317.71875 224.871094 314.714844 224.871094 311.011719 C 224.871094 307.304688 227.875 304.300781 231.582031 304.300781 C 235.285156 304.300781 238.289062 307.304688 238.289062 311.011719 "/>
<path style=" stroke:none;fill-rule:nonzero;fill:rgb(100%,84.3%,0%);fill-opacity:1;" d="M 365.753906 288.199219 C 365.753906 291.90625 362.75 294.910156 359.042969 294.910156 C 355.339844 294.910156 352.335938 291.90625 352.335938 288.199219 C 352.335938 284.496094 355.339844 281.492188 359.042969 281.492188 C 362.75 281.492188 365.753906 284.496094 365.753906 288.199219 "/>
<path style=" stroke:none;fill-rule:nonzero;fill:rgb(100%,84.3%,0%);fill-opacity:1;" d="M 207.429688 376.753906 C 207.429688 380.460938 204.425781 383.464844 200.722656 383.464844 C 197.015625 383.464844 194.011719 380.460938 194.011719 376.753906 C 194.011719 373.050781 197.015625 370.046875 200.722656 370.046875 C 204.425781 370.046875 207.429688 373.050781 207.429688 376.753906 "/>
<path style=" stroke:none;fill-rule:nonzero;fill:rgb(100%,84.3%,0%);fill-opacity:1;" d="M 215.480469 349.921875 C 215.480469 353.625 212.476562 356.628906 208.769531 356.628906 C 205.066406 356.628906 202.0625 353.625 202.0625 349.921875 C 202.0625 346.214844 205.066406 343.210938 208.769531 343.210938 C 212.476562 343.210938 215.480469 346.214844 215.480469 349.921875 "/>
<path style=" stroke:none;fill-rule:nonzero;fill:rgb(100%,84.3%,0%);fill-opacity:1;" d="M 230.238281 284.175781 C 230.238281 287.882812 227.234375 290.882812 223.53125 290.882812 C 219.824219 290.882812 216.820312 287.882812 216.820312 284.175781 C 216.820312 280.472656 219.824219 277.46875 223.53125 277.46875 C 227.234375 277.46875 230.238281 280.472656 230.238281 284.175781 "/>
<path style=" stroke:none;fill-rule:nonzero;fill:rgb(100%,84.3%,0%);fill-opacity:1;" d="M 302.691406 183.546875 C 302.691406 187.253906 299.6875 190.253906 295.984375 190.253906 C 292.277344 190.253906 289.273438 187.253906 289.273438 183.546875 C 289.273438 179.84375 292.277344 176.839844 295.984375 176.839844 C 299.6875 176.839844 302.691406 179.84375 302.691406 183.546875 "/>
<path style=" stroke:none;fill-rule:nonzero;fill:rgb(100%,84.3%,0%);fill-opacity:1;" d="M 169.863281 184.890625 C 169.863281 188.59375 166.859375 191.597656 163.152344 191.597656 C 159.449219 191.597656 156.445312 188.59375 156.445312 184.890625 C 156.445312 181.183594 159.449219 178.179688 163.152344 178.179688 C 166.859375 178.179688 169.863281 181.183594 169.863281 184.890625 "/>
<path style=" stroke:none;fill-rule:nonzero;fill:rgb(100%,84.3%,0%);fill-opacity:1;" d="M 278.539062 160.738281 C 278.539062 164.441406 275.535156 167.445312 271.832031 167.445312 C 268.125 167.445312 265.125 164.441406 265.125 160.738281 C 265.125 157.03125 268.125 154.03125 271.832031 154.03125 C 275.535156 154.03125 278.539062 157.03125 278.539062 160.738281 "/>
<path style=" stroke:none;fill-rule:nonzero;fill:rgb(100%,84.3%,0%);fill-opacity:1;" d="M 352.335938 191.597656 C 352.335938 195.300781 349.332031 198.304688 345.628906 198.304688 C 341.921875 198.304688 338.917969 195.300781 338.917969 191.597656 C 338.917969 187.890625 341.921875 184.886719 345.628906 184.886719 C 349.332031 184.886719 352.335938 187.890625 352.335938 191.597656 "/>
</g>
</svg>
