<?xml version="1.0" encoding="UTF-8"?>
<svg xmlns="http://www.w3.org/2000/svg" xmlns:xlink="http://www.w3.org/1999/xlink" width="512pt" height="512pt" viewBox="0 0 512 512" version="1.1">
<g id="surface136">
<path style=" stroke:none;fill-rule:nonzero;fill:rgb(26.7%,26.7%,26.7%);fill-opacity:1;" d="M 0 66.476562 L 512 66.476562 L 512 445.527344 L 0 445.527344 Z M 0 66.476562 "/>
<path style=" stroke:none;fill-rule:nonzero;fill:rgb(19.2%,38.8%,66.7%);fill-opacity:1;" d="M 42.667969 98.0625 L 469.332031 98.0625 L 469.332031 413.9375 L 42.667969 413.9375 Z M 42.667969 98.0625 "/>
<path style=" stroke:none;fill-rule:nonzero;fill:rgb(100%,100%,100%);fill-opacity:1;" d="M 483.476562 109.847656 C 483.476562 116.359375 478.199219 121.636719 471.691406 121.636719 C 465.179688 121.636719 459.90625 116.359375 459.90625 109.847656 C 459.90625 103.339844 465.179688 98.0625 471.691406 98.0625 C 478.199219 98.0625 483.476562 103.339844 483.476562 109.847656 "/>
<path style=" stroke:none;fill-rule:nonzero;fill:rgb(100%,100%,100%);fill-opacity:1;" d="M 511.765625 392.722656 C 511.765625 399.230469 506.488281 404.507812 499.976562 404.507812 C 493.46875 404.507812 488.191406 399.230469 488.191406 392.722656 C 488.191406 386.210938 493.46875 380.9375 499.976562 380.9375 C 506.488281 380.9375 511.765625 386.210938 511.765625 392.722656 "/>
<path style=" stroke:none;fill-rule:nonzero;fill:rgb(100%,100%,100%);fill-opacity:1;" d="M 377.398438 1.414062 C 377.398438 7.921875 372.121094 13.199219 365.613281 13.199219 C 359.105469 13.199219 353.828125 7.921875 353.828125 1.414062 C 353.828125 -5.09375 359.105469 -10.371094 365.613281 -10.371094 C 372.121094 -10.371094 377.398438 -5.09375 377.398438 1.414062 "/>
<path style=" stroke:none;fill-rule:nonzero;fill:rgb(100%,100%,100%);fill-opacity:1;" d="M 400.972656 65.0625 C 400.972656 71.570312 395.695312 76.847656 389.1875 76.847656 C 382.675781 76.847656 377.398438 71.570312 377.398438 65.0625 C 377.398438 58.550781 382.675781 53.273438 389.1875 53.273438 C 395.695312 53.273438 400.972656 58.550781 400.972656 65.0625 "/>
<path style=" stroke:none;fill-rule:nonzero;fill:rgb(100%,100%,100%);fill-opacity:1;" d="M 516.476562 225.355469 C 516.476562 231.863281 511.203125 237.140625 504.691406 237.140625 C 498.183594 237.140625 492.90625 231.863281 492.90625 225.355469 C 492.90625 218.84375 498.183594 213.570312 504.691406 213.570312 C 511.203125 213.570312 516.476562 218.84375 516.476562 225.355469 "/>
<path style=" stroke:none;fill-rule:nonzero;fill:rgb(100%,100%,100%);fill-opacity:1;" d="M 492.90625 336.148438 C 492.90625 342.65625 487.628906 347.933594 481.121094 347.933594 C 474.609375 347.933594 469.332031 342.65625 469.332031 336.148438 C 469.332031 329.636719 474.609375 324.359375 481.121094 324.359375 C 487.628906 324.359375 492.90625 329.636719 492.90625 336.148438 "/>
<path style=" stroke:none;fill-rule:nonzero;fill:rgb(100%,100%,100%);fill-opacity:1;" d="M 306.679688 55.632812 C 306.679688 62.140625 301.40625 67.417969 294.894531 67.417969 C 288.386719 67.417969 283.109375 62.140625 283.109375 55.632812 C 283.109375 49.121094 288.386719 43.84375 294.894531 43.84375 C 301.40625 43.84375 306.679688 49.121094 306.679688 55.632812 "/>
<path style=" stroke:none;fill-rule:nonzero;fill:rgb(100%,100%,100%);fill-opacity:1;" d="M 521.195312 211.210938 C 521.195312 217.722656 515.917969 223 509.40625 223 C 502.898438 223 497.621094 217.722656 497.621094 211.210938 C 497.621094 204.703125 502.898438 199.425781 509.40625 199.425781 C 515.917969 199.425781 521.195312 204.703125 521.195312 211.210938 "/>
<path style=" stroke:none;fill-rule:nonzero;fill:rgb(100%,100%,100%);fill-opacity:1;" d="M 40.308594 355.007812 C 40.308594 361.515625 35.03125 366.792969 28.523438 366.792969 C 22.011719 366.792969 16.738281 361.515625 16.738281 355.007812 C 16.738281 348.496094 22.011719 343.21875 28.523438 343.21875 C 35.03125 343.21875 40.308594 348.496094 40.308594 355.007812 "/>
<path style=" stroke:none;fill-rule:nonzero;fill:rgb(100%,100%,100%);fill-opacity:1;" d="M 481.121094 6.128906 C 481.121094 12.636719 475.84375 17.914062 469.332031 17.914062 C 462.824219 17.914062 457.546875 12.636719 457.546875 6.128906 C 457.546875 -0.378906 462.824219 -5.65625 469.332031 -5.65625 C 475.84375 -5.65625 481.121094 -0.378906 481.121094 6.128906 "/>
<path style=" stroke:none;fill-rule:nonzero;fill:rgb(100%,100%,100%);fill-opacity:1;" d="M 266.605469 93.347656 C 266.605469 99.859375 261.332031 105.132812 254.820312 105.132812 C 248.3125 105.132812 243.035156 99.859375 243.035156 93.347656 C 243.035156 86.839844 248.3125 81.5625 254.820312 81.5625 C 261.332031 81.5625 266.605469 86.839844 266.605469 93.347656 "/>
<path style=" stroke:none;fill-rule:nonzero;fill:rgb(100%,100%,100%);fill-opacity:1;" d="M 21.453125 277.214844 C 21.453125 283.722656 16.175781 289 9.664062 289 C 3.15625 289 -2.121094 283.722656 -2.121094 277.214844 C -2.121094 270.707031 3.15625 265.429688 9.664062 265.429688 C 16.175781 265.429688 21.453125 270.707031 21.453125 277.214844 "/>
<path style=" stroke:none;fill-rule:nonzero;fill:rgb(100%,100%,100%);fill-opacity:1;" d="M 158.171875 27.34375 C 158.171875 33.851562 152.894531 39.128906 146.386719 39.128906 C 139.878906 39.128906 134.601562 33.851562 134.601562 27.34375 C 134.601562 20.835938 139.878906 15.558594 146.386719 15.558594 C 152.894531 15.558594 158.171875 20.835938 158.171875 27.34375 "/>
<path style=" stroke:none;fill-rule:nonzero;fill:rgb(100%,100%,100%);fill-opacity:1;" d="M 9.664062 237.140625 C 9.664062 243.652344 4.386719 248.929688 -2.121094 248.929688 C -8.632812 248.929688 -13.910156 243.652344 -13.910156 237.140625 C -13.910156 230.632812 -8.632812 225.355469 -2.121094 225.355469 C 4.386719 225.355469 9.664062 230.632812 9.664062 237.140625 "/>
<path style=" stroke:none;fill-rule:nonzero;fill:rgb(100%,100%,100%);fill-opacity:1;" d="M 129.886719 515.300781 C 129.886719 521.808594 124.609375 527.085938 118.097656 527.085938 C 111.589844 527.085938 106.3125 521.808594 106.3125 515.300781 C 106.3125 508.789062 111.589844 503.511719 118.097656 503.511719 C 124.609375 503.511719 129.886719 508.789062 129.886719 515.300781 "/>
<path style=" stroke:none;fill-rule:nonzero;fill:rgb(100%,100%,100%);fill-opacity:1;" d="M 52.09375 204.140625 C 52.09375 210.648438 46.820312 215.925781 40.308594 215.925781 C 33.800781 215.925781 28.523438 210.648438 28.523438 204.140625 C 28.523438 197.628906 33.800781 192.355469 40.308594 192.355469 C 46.820312 192.355469 52.09375 197.628906 52.09375 204.140625 "/>
<path style=" stroke:none;fill-rule:nonzero;fill:rgb(100%,100%,100%);fill-opacity:1;" d="M 254.820312 496.441406 C 254.820312 502.953125 249.542969 508.226562 243.035156 508.226562 C 236.527344 508.226562 231.25 502.953125 231.25 496.441406 C 231.25 489.933594 236.527344 484.65625 243.035156 484.65625 C 249.542969 484.65625 254.820312 489.933594 254.820312 496.441406 "/>
<path style=" stroke:none;fill-rule:nonzero;fill:rgb(100%,100%,100%);fill-opacity:1;" d="M 514.121094 29.703125 C 514.121094 36.210938 508.84375 41.488281 502.335938 41.488281 C 495.824219 41.488281 490.546875 36.210938 490.546875 29.703125 C 490.546875 23.191406 495.824219 17.914062 502.335938 17.914062 C 508.84375 17.914062 514.121094 23.191406 514.121094 29.703125 "/>
<path style=" stroke:none;fill-rule:nonzero;fill:rgb(100%,100%,100%);fill-opacity:1;" d="M 191.175781 -5.65625 C 191.175781 0.851562 185.898438 6.128906 179.390625 6.128906 C 172.878906 6.128906 167.601562 0.851562 167.601562 -5.65625 C 167.601562 -12.167969 172.878906 -17.445312 179.390625 -17.445312 C 185.898438 -17.445312 191.175781 -12.167969 191.175781 -5.65625 "/>
<path style=" stroke:none;fill-rule:nonzero;fill:rgb(100%,100%,100%);fill-opacity:1;" d="M 264.25 17.914062 C 264.25 24.425781 258.972656 29.703125 252.464844 29.703125 C 245.953125 29.703125 240.675781 24.425781 240.675781 17.914062 C 240.675781 11.40625 245.953125 6.128906 252.464844 6.128906 C 258.972656 6.128906 264.25 11.40625 264.25 17.914062 "/>
<path style=" stroke:none;fill-rule:nonzero;fill:rgb(100%,100%,100%);fill-opacity:1;" d="M 299.609375 88.632812 C 299.609375 95.144531 294.332031 100.421875 287.824219 100.421875 C 281.3125 100.421875 276.035156 95.144531 276.035156 88.632812 C 276.035156 82.125 281.3125 76.847656 287.824219 76.847656 C 294.332031 76.847656 299.609375 82.125 299.609375 88.632812 "/>
<path style=" stroke:none;fill-rule:nonzero;fill:rgb(100%,100%,100%);fill-opacity:1;" d="M 16.738281 17.914062 C 16.738281 24.425781 11.460938 29.703125 4.949219 29.703125 C -1.558594 29.703125 -6.835938 24.425781 -6.835938 17.914062 C -6.835938 11.40625 -1.558594 6.128906 4.949219 6.128906 C 11.460938 6.128906 16.738281 11.40625 16.738281 17.914062 "/>
<path style=" stroke:none;fill-rule:nonzero;fill:rgb(100%,100%,100%);fill-opacity:1;" d="M 2.59375 88.632812 C 2.59375 95.144531 -2.683594 100.421875 -9.191406 100.421875 C -15.703125 100.421875 -20.980469 95.144531 -20.980469 88.632812 C -20.980469 82.125 -15.703125 76.847656 -9.191406 76.847656 C -2.683594 76.847656 2.59375 82.125 2.59375 88.632812 "/>
<path style=" stroke:none;fill-rule:nonzero;fill:rgb(100%,100%,100%);fill-opacity:1;" d="M 169.960938 20.273438 C 169.960938 26.78125 164.683594 32.058594 158.171875 32.058594 C 151.664062 32.058594 146.386719 26.78125 146.386719 20.273438 C 146.386719 13.761719 151.664062 8.488281 158.171875 8.488281 C 164.683594 8.488281 169.960938 13.761719 169.960938 20.273438 "/>
<path style=" stroke:none;fill-rule:nonzero;fill:rgb(100%,100%,100%);fill-opacity:1;" d="M 499.976562 46.203125 C 499.976562 52.710938 494.703125 57.988281 488.191406 57.988281 C 481.683594 57.988281 476.40625 52.710938 476.40625 46.203125 C 476.40625 39.695312 481.683594 34.417969 488.191406 34.417969 C 494.703125 34.417969 499.976562 39.695312 499.976562 46.203125 "/>
<path style=" stroke:none;fill-rule:nonzero;fill:rgb(100%,100%,100%);fill-opacity:1;" d="M 455.1875 451.652344 C 455.1875 458.164062 449.914062 463.441406 443.402344 463.441406 C 436.894531 463.441406 431.617188 458.164062 431.617188 451.652344 C 431.617188 445.144531 436.894531 439.867188 443.402344 439.867188 C 449.914062 439.867188 455.1875 445.144531 455.1875 451.652344 "/>
<path style=" stroke:none;fill-rule:nonzero;fill:rgb(100%,100%,100%);fill-opacity:1;" d="M 19.09375 10.84375 C 19.09375 17.351562 13.816406 22.628906 7.308594 22.628906 C 0.796875 22.628906 -4.476562 17.351562 -4.476562 10.84375 C -4.476562 4.332031 0.796875 -0.945312 7.308594 -0.945312 C 13.816406 -0.945312 19.09375 4.332031 19.09375 10.84375 "/>
<path style=" stroke:none;fill-rule:nonzero;fill:rgb(100%,100%,100%);fill-opacity:1;" d="M 37.953125 62.703125 C 37.953125 69.210938 32.675781 74.488281 26.164062 74.488281 C 19.65625 74.488281 14.378906 69.210938 14.378906 62.703125 C 14.378906 56.195312 19.65625 50.917969 26.164062 50.917969 C 32.675781 50.917969 37.953125 56.195312 37.953125 62.703125 "/>
<path style=" stroke:none;fill-rule:nonzero;fill:rgb(100%,100%,100%);fill-opacity:1;" d="M 372.683594 416.296875 C 372.683594 422.804688 367.410156 428.082031 360.898438 428.082031 C 354.390625 428.082031 349.113281 422.804688 349.113281 416.296875 C 349.113281 409.785156 354.390625 404.507812 360.898438 404.507812 C 367.410156 404.507812 372.683594 409.785156 372.683594 416.296875 "/>
<path style=" stroke:none;fill-rule:nonzero;fill:rgb(100%,100%,100%);fill-opacity:1;" d="M 35.59375 421.007812 C 35.59375 427.519531 30.316406 432.796875 23.808594 432.796875 C 17.296875 432.796875 12.023438 427.519531 12.023438 421.007812 C 12.023438 414.5 17.296875 409.222656 23.808594 409.222656 C 30.316406 409.222656 35.59375 414.5 35.59375 421.007812 "/>
<path style=" stroke:none;fill-rule:nonzero;fill:rgb(100%,84.3%,0%);fill-opacity:1;" d="M 294.894531 279.574219 C 294.894531 286.082031 289.617188 291.359375 283.109375 291.359375 C 276.597656 291.359375 271.324219 286.082031 271.324219 279.574219 C 271.324219 273.0625 276.597656 267.785156 283.109375 267.785156 C 289.617188 267.785156 294.894531 273.0625 294.894531 279.574219 "/>
<path style=" stroke:none;fill-rule:nonzero;fill:rgb(100%,84.3%,0%);fill-opacity:1;" d="M 252.464844 149.921875 C 252.464844 156.433594 247.1875 161.710938 240.679688 161.710938 C 234.167969 161.710938 228.890625 156.433594 228.890625 149.921875 C 228.890625 143.414062 234.167969 138.136719 240.679688 138.136719 C 247.1875 138.136719 252.464844 143.414062 252.464844 149.921875 "/>
<path style=" stroke:none;fill-rule:nonzero;fill:rgb(100%,84.3%,0%);fill-opacity:1;" d="M 445.761719 312.574219 C 445.761719 319.085938 440.484375 324.363281 433.972656 324.363281 C 427.464844 324.363281 422.1875 319.085938 422.1875 312.574219 C 422.1875 306.066406 427.464844 300.789062 433.972656 300.789062 C 440.484375 300.789062 445.761719 306.066406 445.761719 312.574219 "/>
<path style=" stroke:none;fill-rule:nonzero;fill:rgb(100%,84.3%,0%);fill-opacity:1;" d="M 113.386719 331.433594 C 113.386719 337.941406 108.109375 343.21875 101.597656 343.21875 C 95.089844 343.21875 89.8125 337.941406 89.8125 331.433594 C 89.8125 324.921875 95.089844 319.648438 101.597656 319.648438 C 108.109375 319.648438 113.386719 324.921875 113.386719 331.433594 "/>
<path style=" stroke:none;fill-rule:nonzero;fill:rgb(100%,84.3%,0%);fill-opacity:1;" d="M 108.671875 201.78125 C 108.671875 208.292969 103.394531 213.570312 96.882812 213.570312 C 90.375 213.570312 85.097656 208.292969 85.097656 201.78125 C 85.097656 195.273438 90.375 189.996094 96.882812 189.996094 C 103.394531 189.996094 108.671875 195.273438 108.671875 201.78125 "/>
<path style=" stroke:none;fill-rule:nonzero;fill:rgb(100%,84.3%,0%);fill-opacity:1;" d="M 412.757812 215.925781 C 412.757812 222.433594 407.480469 227.710938 400.972656 227.710938 C 394.460938 227.710938 389.1875 222.433594 389.1875 215.925781 C 389.1875 209.417969 394.460938 204.140625 400.972656 204.140625 C 407.480469 204.140625 412.757812 209.417969 412.757812 215.925781 "/>
<path style=" stroke:none;fill-rule:nonzero;fill:rgb(100%,84.3%,0%);fill-opacity:1;" d="M 327.894531 256 C 327.894531 262.507812 322.621094 267.785156 316.109375 267.785156 C 309.601562 267.785156 304.324219 262.507812 304.324219 256 C 304.324219 249.492188 309.601562 244.214844 316.109375 244.214844 C 322.621094 244.214844 327.894531 249.492188 327.894531 256 "/>
<path style=" stroke:none;fill-rule:nonzero;fill:rgb(100%,84.3%,0%);fill-opacity:1;" d="M 99.242188 272.5 C 99.242188 279.011719 93.964844 284.289062 87.453125 284.289062 C 80.945312 284.289062 75.667969 279.011719 75.667969 272.5 C 75.667969 265.992188 80.945312 260.714844 87.453125 260.714844 C 93.964844 260.714844 99.242188 265.992188 99.242188 272.5 "/>
<path style=" stroke:none;fill-rule:nonzero;fill:rgb(100%,84.3%,0%);fill-opacity:1;" d="M 96.882812 234.785156 C 96.882812 241.292969 91.609375 246.570312 85.097656 246.570312 C 78.589844 246.570312 73.3125 241.292969 73.3125 234.785156 C 73.3125 228.277344 78.589844 223 85.097656 223 C 91.609375 223 96.882812 228.277344 96.882812 234.785156 "/>
<path style=" stroke:none;fill-rule:nonzero;fill:rgb(100%,84.3%,0%);fill-opacity:1;" d="M 212.390625 131.0625 C 212.390625 137.574219 207.113281 142.851562 200.605469 142.851562 C 194.09375 142.851562 188.816406 137.574219 188.816406 131.0625 C 188.816406 124.554688 194.09375 119.277344 200.605469 119.277344 C 207.113281 119.277344 212.390625 124.554688 212.390625 131.0625 "/>
<path style=" stroke:none;fill-rule:nonzero;fill:rgb(100%,84.3%,0%);fill-opacity:1;" d="M 235.964844 237.140625 C 235.964844 243.652344 230.6875 248.929688 224.175781 248.929688 C 217.667969 248.929688 212.390625 243.652344 212.390625 237.140625 C 212.390625 230.632812 217.667969 225.355469 224.175781 225.355469 C 230.6875 225.355469 235.964844 230.632812 235.964844 237.140625 "/>
<path style=" stroke:none;fill-rule:nonzero;fill:rgb(100%,84.3%,0%);fill-opacity:1;" d="M 238.320312 270.144531 C 238.320312 276.652344 233.042969 281.929688 226.535156 281.929688 C 220.023438 281.929688 214.746094 276.652344 214.746094 270.144531 C 214.746094 263.632812 220.023438 258.359375 226.535156 258.359375 C 233.042969 258.359375 238.320312 263.632812 238.320312 270.144531 "/>
<path style=" stroke:none;fill-rule:nonzero;fill:rgb(100%,84.3%,0%);fill-opacity:1;" d="M 299.609375 312.574219 C 299.609375 319.085938 294.332031 324.363281 287.824219 324.363281 C 281.3125 324.363281 276.035156 319.085938 276.035156 312.574219 C 276.035156 306.066406 281.3125 300.789062 287.824219 300.789062 C 294.332031 300.789062 299.609375 306.066406 299.609375 312.574219 "/>
</g>
</svg>
