<?xml version="1.0" encoding="UTF-8"?>
<svg xmlns="http://www.w3.org/2000/svg" xmlns:xlink="http://www.w3.org/1999/xlink" width="512pt" height="512pt" viewBox="0 0 512 512" version="1.1">
<g id="surface181">
<path style=" stroke:none;fill-rule:nonzero;fill:rgb(26.7%,26.7%,26.7%);fill-opacity:1;" d="M 0 143.699219 L 512 143.699219 L 512 368.304688 L 0 368.304688 Z M 0 143.699219 "/>
<path style=" stroke:none;fill-rule:nonzero;fill:rgb(19.2%,38.8%,66.7%);fill-opacity:1;" d="M 42.667969 162.414062 L 469.332031 162.414062 L 469.332031 349.585938 L 42.667969 349.585938 Z M 42.667969 162.414062 "/>
<path style=" stroke:none;fill-rule:nonzero;fill:rgb(100%,100%,100%);fill-opacity:1;" d="M 363.335938 411.304688 C 363.335938 415.777344 356.628906 415.777344 356.628906 411.304688 C 356.628906 406.832031 363.335938 406.832031 363.335938 411.304688 "/>
<path style=" stroke:none;fill-rule:nonzero;fill:rgb(100%,100%,100%);fill-opacity:1;" d="M 19.1875 276.460938 C 19.1875 280.933594 12.476562 280.933594 12.476562 276.460938 C 12.476562 271.988281 19.1875 271.988281 19.1875 276.460938 "/>
<path style=" stroke:none;fill-rule:nonzero;fill:rgb(100%,100%,100%);fill-opacity:1;" d="M 70.171875 79.898438 C 70.171875 84.371094 63.464844 84.371094 63.464844 79.898438 C 63.464844 75.425781 70.171875 75.425781 70.171875 79.898438 "/>
<path style=" stroke:none;fill-rule:nonzero;fill:rgb(100%,100%,100%);fill-opacity:1;" d="M 382.121094 511.933594 C 382.121094 516.40625 375.414062 516.40625 375.414062 511.933594 C 375.414062 507.460938 382.121094 507.460938 382.121094 511.933594 "/>
<path style=" stroke:none;fill-rule:nonzero;fill:rgb(100%,100%,100%);fill-opacity:1;" d="M 16.503906 87.949219 C 16.503906 92.421875 9.792969 92.421875 9.792969 87.949219 C 9.792969 83.476562 16.503906 83.476562 16.503906 87.949219 "/>
<path style=" stroke:none;fill-rule:nonzero;fill:rgb(100%,100%,100%);fill-opacity:1;" d="M 389.5 452.226562 C 389.5 456.699219 382.792969 456.699219 382.792969 452.226562 C 382.792969 447.753906 389.5 447.753906 389.5 452.226562 "/>
<path style=" stroke:none;fill-rule:nonzero;fill:rgb(100%,100%,100%);fill-opacity:1;" d="M 111.765625 379.101562 C 111.765625 383.574219 105.058594 383.574219 105.058594 379.101562 C 105.058594 374.628906 111.765625 374.628906 111.765625 379.101562 "/>
<path style=" stroke:none;fill-rule:nonzero;fill:rgb(100%,100%,100%);fill-opacity:1;" d="M 95.664062 93.988281 C 95.664062 98.460938 88.957031 98.460938 88.957031 93.988281 C 88.957031 89.515625 95.664062 89.515625 95.664062 93.988281 "/>
<path style=" stroke:none;fill-rule:nonzero;fill:rgb(100%,100%,100%);fill-opacity:1;" d="M 347.238281 46.355469 C 347.238281 50.828125 340.527344 50.828125 340.527344 46.355469 C 340.527344 41.882812 347.238281 41.882812 347.238281 46.355469 "/>
<path style=" stroke:none;fill-rule:nonzero;fill:rgb(100%,100%,100%);fill-opacity:1;" d="M 361.996094 434.785156 C 361.996094 439.257812 355.289062 439.257812 355.289062 434.785156 C 355.289062 430.3125 361.996094 430.3125 361.996094 434.785156 "/>
<path style=" stroke:none;fill-rule:nonzero;fill:rgb(100%,100%,100%);fill-opacity:1;" d="M 10.464844 276.460938 C 10.464844 280.933594 3.757812 280.933594 3.757812 276.460938 C 3.757812 271.988281 10.464844 271.988281 10.464844 276.460938 "/>
<path style=" stroke:none;fill-rule:nonzero;fill:rgb(100%,100%,100%);fill-opacity:1;" d="M 321.746094 45.015625 C 321.746094 49.488281 315.035156 49.488281 315.035156 45.015625 C 315.035156 40.542969 321.746094 40.542969 321.746094 45.015625 "/>
<path style=" stroke:none;fill-rule:nonzero;fill:rgb(100%,100%,100%);fill-opacity:1;" d="M 153.359375 124.847656 C 153.359375 129.320312 146.648438 129.320312 146.648438 124.847656 C 146.648438 120.375 153.359375 120.375 153.359375 124.847656 "/>
<path style=" stroke:none;fill-rule:nonzero;fill:rgb(100%,100%,100%);fill-opacity:1;" d="M 171.472656 509.921875 C 171.472656 514.390625 164.761719 514.390625 164.761719 509.921875 C 164.761719 505.449219 171.472656 505.449219 171.472656 509.921875 "/>
<path style=" stroke:none;fill-rule:nonzero;fill:rgb(100%,100%,100%);fill-opacity:1;" d="M 482.078125 365.015625 C 482.078125 369.488281 475.371094 369.488281 475.371094 365.015625 C 475.371094 360.542969 482.078125 360.542969 482.078125 365.015625 "/>
<path style=" stroke:none;fill-rule:nonzero;fill:rgb(100%,100%,100%);fill-opacity:1;" d="M 232.519531 107.40625 C 232.519531 111.878906 225.8125 111.878906 225.8125 107.40625 C 225.8125 102.933594 232.519531 102.933594 232.519531 107.40625 "/>
<path style=" stroke:none;fill-rule:nonzero;fill:rgb(100%,100%,100%);fill-opacity:1;" d="M 361.996094 93.988281 C 361.996094 98.460938 355.289062 98.460938 355.289062 93.988281 C 355.289062 89.515625 361.996094 89.515625 361.996094 93.988281 "/>
<path style=" stroke:none;fill-rule:nonzero;fill:rgb(100%,100%,100%);fill-opacity:1;" d="M 292.226562 98.683594 C 292.226562 103.15625 285.519531 103.15625 285.519531 98.683594 C 285.519531 94.210938 292.226562 94.210938 292.226562 98.683594 "/>
<path style=" stroke:none;fill-rule:nonzero;fill:rgb(100%,100%,100%);fill-opacity:1;" d="M 429.753906 95.328125 C 429.753906 99.800781 423.042969 99.800781 423.042969 95.328125 C 423.042969 90.855469 429.753906 90.855469 429.753906 95.328125 "/>
<path style=" stroke:none;fill-rule:nonzero;fill:rgb(100%,100%,100%);fill-opacity:1;" d="M 226.480469 110.089844 C 226.480469 114.558594 219.773438 114.558594 219.773438 110.089844 C 219.773438 105.617188 226.480469 105.617188 226.480469 110.089844 "/>
<path style=" stroke:none;fill-rule:nonzero;fill:rgb(100%,100%,100%);fill-opacity:1;" d="M 198.976562 116.125 C 198.976562 120.597656 192.269531 120.597656 192.269531 116.125 C 192.269531 111.652344 198.976562 111.652344 198.976562 116.125 "/>
<path style=" stroke:none;fill-rule:nonzero;fill:rgb(100%,100%,100%);fill-opacity:1;" d="M 130.550781 378.433594 C 130.550781 382.90625 123.839844 382.90625 123.839844 378.433594 C 123.839844 373.960938 130.550781 373.960938 130.550781 378.433594 "/>
<path style=" stroke:none;fill-rule:nonzero;fill:rgb(100%,100%,100%);fill-opacity:1;" d="M 472.015625 360.988281 C 472.015625 365.460938 465.308594 365.460938 465.308594 360.988281 C 465.308594 356.519531 472.015625 356.519531 472.015625 360.988281 "/>
<path style=" stroke:none;fill-rule:nonzero;fill:rgb(100%,100%,100%);fill-opacity:1;" d="M 285.519531 501.871094 C 285.519531 506.34375 278.808594 506.34375 278.808594 501.871094 C 278.808594 497.398438 285.519531 497.398438 285.519531 501.871094 "/>
<path style=" stroke:none;fill-rule:nonzero;fill:rgb(100%,100%,100%);fill-opacity:1;" d="M 72.183594 473.023438 C 72.183594 477.496094 65.476562 477.496094 65.476562 473.023438 C 65.476562 468.550781 72.183594 468.550781 72.183594 473.023438 "/>
<path style=" stroke:none;fill-rule:nonzero;fill:rgb(100%,100%,100%);fill-opacity:1;" d="M 253.316406 49.039062 C 253.316406 53.511719 246.609375 53.511719 246.609375 49.039062 C 246.609375 44.566406 253.316406 44.566406 253.316406 49.039062 "/>
<path style=" stroke:none;fill-rule:nonzero;fill:rgb(100%,100%,100%);fill-opacity:1;" d="M 343.210938 402.582031 C 343.210938 407.054688 336.503906 407.054688 336.503906 402.582031 C 336.503906 398.109375 343.210938 398.109375 343.210938 402.582031 "/>
<path style=" stroke:none;fill-rule:nonzero;fill:rgb(100%,100%,100%);fill-opacity:1;" d="M 417.007812 93.316406 C 417.007812 97.789062 410.296875 97.789062 410.296875 93.316406 C 410.296875 88.84375 417.007812 88.84375 417.007812 93.316406 "/>
<path style=" stroke:none;fill-rule:nonzero;fill:rgb(100%,100%,100%);fill-opacity:1;" d="M 181.535156 70.507812 C 181.535156 74.980469 174.824219 74.980469 174.824219 70.507812 C 174.824219 66.035156 181.535156 66.035156 181.535156 70.507812 "/>
<path style=" stroke:none;fill-rule:nonzero;fill:rgb(100%,100%,100%);fill-opacity:1;" d="M 154.03125 8.117188 C 154.03125 12.589844 147.320312 12.589844 147.320312 8.117188 C 147.320312 3.644531 154.03125 3.644531 154.03125 8.117188 "/>
<path style=" stroke:none;fill-rule:nonzero;fill:rgb(100%,100%,100%);fill-opacity:1;" d="M 73.527344 387.152344 C 73.527344 391.625 66.816406 391.625 66.816406 387.152344 C 66.816406 382.679688 73.527344 382.679688 73.527344 387.152344 "/>
<path style=" stroke:none;fill-rule:nonzero;fill:rgb(100%,100%,100%);fill-opacity:1;" d="M 372.730469 367.699219 C 372.730469 372.171875 366.019531 372.171875 366.019531 367.699219 C 366.019531 363.226562 372.730469 363.226562 372.730469 367.699219 "/>
<path style=" stroke:none;fill-rule:nonzero;fill:rgb(100%,100%,100%);fill-opacity:1;" d="M 401.578125 65.140625 C 401.578125 69.613281 394.867188 69.613281 394.867188 65.140625 C 394.867188 60.667969 401.578125 60.667969 401.578125 65.140625 "/>
<path style=" stroke:none;fill-rule:nonzero;fill:rgb(100%,100%,100%);fill-opacity:1;" d="M 373.398438 27.570312 C 373.398438 32.042969 366.691406 32.042969 366.691406 27.570312 C 366.691406 23.097656 373.398438 23.097656 373.398438 27.570312 "/>
<path style=" stroke:none;fill-rule:nonzero;fill:rgb(100%,100%,100%);fill-opacity:1;" d="M 360.65625 438.136719 C 360.65625 442.609375 353.945312 442.609375 353.945312 438.136719 C 353.945312 433.664062 360.65625 433.664062 360.65625 438.136719 "/>
<path style=" stroke:none;fill-rule:nonzero;fill:rgb(100%,100%,100%);fill-opacity:1;" d="M 394.867188 26.902344 C 394.867188 31.375 388.160156 31.375 388.160156 26.902344 C 388.160156 22.429688 394.867188 22.429688 394.867188 26.902344 "/>
<path style=" stroke:none;fill-rule:nonzero;fill:rgb(100%,100%,100%);fill-opacity:1;" d="M 351.261719 454.910156 C 351.261719 459.382812 344.554688 459.382812 344.554688 454.910156 C 344.554688 450.4375 351.261719 450.4375 351.261719 454.910156 "/>
<path style=" stroke:none;fill-rule:nonzero;fill:rgb(100%,100%,100%);fill-opacity:1;" d="M 21.199219 195.285156 C 21.199219 199.757812 14.492188 199.757812 14.492188 195.285156 C 14.492188 190.816406 21.199219 190.816406 21.199219 195.285156 "/>
<path style=" stroke:none;fill-rule:nonzero;fill:rgb(100%,100%,100%);fill-opacity:1;" d="M 3.085938 326.777344 C 3.085938 331.25 -3.621094 331.25 -3.621094 326.777344 C -3.621094 322.304688 3.085938 322.304688 3.085938 326.777344 "/>
<path style=" stroke:none;fill-rule:nonzero;fill:rgb(100%,100%,100%);fill-opacity:1;" d="M 185.558594 46.355469 C 185.558594 50.828125 178.851562 50.828125 178.851562 46.355469 C 178.851562 41.882812 185.558594 41.882812 185.558594 46.355469 "/>
<path style=" stroke:none;fill-rule:nonzero;fill:rgb(100%,100%,100%);fill-opacity:1;" d="M 24.554688 512.605469 C 24.554688 517.078125 17.84375 517.078125 17.84375 512.605469 C 17.84375 508.132812 24.554688 508.132812 24.554688 512.605469 "/>
<path style=" stroke:none;fill-rule:nonzero;fill:rgb(100%,100%,100%);fill-opacity:1;" d="M 64.132812 134.238281 C 64.132812 138.710938 57.425781 138.710938 57.425781 134.238281 C 57.425781 129.765625 64.132812 129.765625 64.132812 134.238281 "/>
<path style=" stroke:none;fill-rule:nonzero;fill:rgb(100%,100%,100%);fill-opacity:1;" d="M 394.867188 102.039062 C 394.867188 106.511719 388.160156 106.511719 388.160156 102.039062 C 388.160156 97.566406 394.867188 97.566406 394.867188 102.039062 "/>
<path style=" stroke:none;fill-rule:nonzero;fill:rgb(100%,100%,100%);fill-opacity:1;" d="M 476.710938 94.65625 C 476.710938 99.128906 470.003906 99.128906 470.003906 94.65625 C 470.003906 90.1875 476.710938 90.1875 476.710938 94.65625 "/>
<path style=" stroke:none;fill-rule:nonzero;fill:rgb(100%,100%,100%);fill-opacity:1;" d="M 425.054688 151.679688 C 425.054688 156.152344 418.347656 156.152344 418.347656 151.679688 C 418.347656 147.207031 425.054688 147.207031 425.054688 151.679688 "/>
<path style=" stroke:none;fill-rule:nonzero;fill:rgb(100%,100%,100%);fill-opacity:1;" d="M 85.601562 147.65625 C 85.601562 152.128906 78.894531 152.128906 78.894531 147.65625 C 78.894531 143.183594 85.601562 143.183594 85.601562 147.65625 "/>
<path style=" stroke:none;fill-rule:nonzero;fill:rgb(100%,100%,100%);fill-opacity:1;" d="M 221.785156 144.300781 C 221.785156 148.773438 215.078125 148.773438 215.078125 144.300781 C 215.078125 139.828125 221.785156 139.828125 221.785156 144.300781 "/>
<path style=" stroke:none;fill-rule:nonzero;fill:rgb(100%,100%,100%);fill-opacity:1;" d="M 19.1875 63.800781 C 19.1875 68.269531 12.476562 68.269531 12.476562 63.800781 C 12.476562 59.328125 19.1875 59.328125 19.1875 63.800781 "/>
<path style=" stroke:none;fill-rule:nonzero;fill:rgb(100%,100%,100%);fill-opacity:1;" d="M 247.949219 36.964844 C 247.949219 41.4375 241.242188 41.4375 241.242188 36.964844 C 241.242188 32.492188 247.949219 32.492188 247.949219 36.964844 "/>
<path style=" stroke:none;fill-rule:nonzero;fill:rgb(100%,100%,100%);fill-opacity:1;" d="M 80.90625 350.257812 C 80.90625 354.726562 74.195312 354.726562 74.195312 350.257812 C 74.195312 345.785156 80.90625 345.785156 80.90625 350.257812 "/>
<path style=" stroke:none;fill-rule:nonzero;fill:rgb(100%,100%,100%);fill-opacity:1;" d="M 290.882812 425.390625 C 290.882812 429.863281 284.175781 429.863281 284.175781 425.390625 C 284.175781 420.917969 290.882812 420.917969 290.882812 425.390625 "/>
<path style=" stroke:none;fill-rule:nonzero;fill:rgb(100%,100%,100%);fill-opacity:1;" d="M 166.773438 462.289062 C 166.773438 466.761719 160.066406 466.761719 160.066406 462.289062 C 160.066406 457.816406 166.773438 457.816406 166.773438 462.289062 "/>
<path style=" stroke:none;fill-rule:nonzero;fill:rgb(100%,100%,100%);fill-opacity:1;" d="M 269.417969 27.570312 C 269.417969 32.042969 262.707031 32.042969 262.707031 27.570312 C 262.707031 23.097656 269.417969 23.097656 269.417969 27.570312 "/>
<path style=" stroke:none;fill-rule:nonzero;fill:rgb(100%,100%,100%);fill-opacity:1;" d="M 213.066406 38.976562 C 213.066406 43.449219 206.355469 43.449219 206.355469 38.976562 C 206.355469 34.503906 213.066406 34.503906 213.066406 38.976562 "/>
<path style=" stroke:none;fill-rule:nonzero;fill:rgb(100%,100%,100%);fill-opacity:1;" d="M 113.105469 364.34375 C 113.105469 368.816406 106.398438 368.816406 106.398438 364.34375 C 106.398438 359.871094 113.105469 359.871094 113.105469 364.34375 "/>
<path style=" stroke:none;fill-rule:nonzero;fill:rgb(100%,100%,100%);fill-opacity:1;" d="M 429.082031 65.8125 C 429.082031 70.285156 422.371094 70.285156 422.371094 65.8125 C 422.371094 61.339844 429.082031 61.339844 429.082031 65.8125 "/>
<path style=" stroke:none;fill-rule:nonzero;fill:rgb(100%,100%,100%);fill-opacity:1;" d="M 398.222656 144.972656 C 398.222656 149.445312 391.515625 149.445312 391.515625 144.972656 C 391.515625 140.5 398.222656 140.5 398.222656 144.972656 "/>
<path style=" stroke:none;fill-rule:nonzero;fill:rgb(100%,100%,100%);fill-opacity:1;" d="M 240.570312 81.242188 C 240.570312 85.714844 233.863281 85.714844 233.863281 81.242188 C 233.863281 76.769531 240.570312 76.769531 240.570312 81.242188 "/>
<path style=" stroke:none;fill-rule:nonzero;fill:rgb(100%,100%,100%);fill-opacity:1;" d="M 35.957031 102.710938 C 35.957031 107.179688 29.25 107.179688 29.25 102.710938 C 29.25 98.238281 35.957031 98.238281 35.957031 102.710938 "/>
<path style=" stroke:none;fill-rule:nonzero;fill:rgb(100%,100%,100%);fill-opacity:1;" d="M 467.320312 494.492188 C 467.320312 498.964844 460.613281 498.964844 460.613281 494.492188 C 460.613281 490.019531 467.320312 490.019531 467.320312 494.492188 "/>
<path style=" stroke:none;fill-rule:nonzero;fill:rgb(100%,100%,100%);fill-opacity:1;" d="M 481.410156 343.546875 C 481.410156 348.019531 474.699219 348.019531 474.699219 343.546875 C 474.699219 339.074219 481.410156 339.074219 481.410156 343.546875 "/>
<path style=" stroke:none;fill-rule:nonzero;fill:rgb(100%,100%,100%);fill-opacity:1;" d="M 18.515625 295.914062 C 18.515625 300.386719 11.808594 300.386719 11.808594 295.914062 C 11.808594 291.445312 18.515625 291.445312 18.515625 295.914062 "/>
<path style=" stroke:none;fill-rule:nonzero;fill:rgb(100%,100%,100%);fill-opacity:1;" d="M 37.300781 193.273438 C 37.300781 197.746094 30.589844 197.746094 30.589844 193.273438 C 30.589844 188.800781 37.300781 188.800781 37.300781 193.273438 "/>
<path style=" stroke:none;fill-rule:nonzero;fill:rgb(100%,100%,100%);fill-opacity:1;" d="M 384.132812 464.300781 C 384.132812 468.773438 377.425781 468.773438 377.425781 464.300781 C 377.425781 459.828125 384.132812 459.828125 384.132812 464.300781 "/>
<path style=" stroke:none;fill-rule:nonzero;fill:rgb(100%,100%,100%);fill-opacity:1;" d="M 109.082031 71.179688 C 109.082031 75.652344 102.371094 75.652344 102.371094 71.179688 C 102.371094 66.707031 109.082031 66.707031 109.082031 71.179688 "/>
<path style=" stroke:none;fill-rule:nonzero;fill:rgb(100%,100%,100%);fill-opacity:1;" d="M 139.269531 131.554688 C 139.269531 136.027344 132.5625 136.027344 132.5625 131.554688 C 132.5625 127.082031 139.269531 127.082031 139.269531 131.554688 "/>
<path style=" stroke:none;fill-rule:nonzero;fill:rgb(100%,100%,100%);fill-opacity:1;" d="M 128.535156 452.898438 C 128.535156 457.371094 121.828125 457.371094 121.828125 452.898438 C 121.828125 448.425781 128.535156 448.425781 128.535156 452.898438 "/>
<path style=" stroke:none;fill-rule:nonzero;fill:rgb(100%,100%,100%);fill-opacity:1;" d="M 264.050781 80.570312 C 264.050781 85.042969 257.339844 85.042969 257.339844 80.570312 C 257.339844 76.097656 264.050781 76.097656 264.050781 80.570312 "/>
<path style=" stroke:none;fill-rule:nonzero;fill:rgb(100%,100%,100%);fill-opacity:1;" d="M 211.050781 383.800781 C 211.050781 388.269531 204.34375 388.269531 204.34375 383.800781 C 204.34375 379.328125 211.050781 379.328125 211.050781 383.800781 "/>
<path style=" stroke:none;fill-rule:nonzero;fill:rgb(100%,100%,100%);fill-opacity:1;" d="M 109.082031 432.101562 C 109.082031 436.574219 102.371094 436.574219 102.371094 432.101562 C 102.371094 427.628906 109.082031 427.628906 109.082031 432.101562 "/>
<path style=" stroke:none;fill-rule:nonzero;fill:rgb(100%,100%,100%);fill-opacity:1;" d="M 162.078125 -0.605469 C 162.078125 3.867188 155.371094 3.867188 155.371094 -0.605469 C 155.371094 -5.078125 162.078125 -5.078125 162.078125 -0.605469 "/>
<path style=" stroke:none;fill-rule:nonzero;fill:rgb(100%,100%,100%);fill-opacity:1;" d="M 86.941406 458.265625 C 86.941406 462.738281 80.234375 462.738281 80.234375 458.265625 C 80.234375 453.792969 86.941406 453.792969 86.941406 458.265625 "/>
<path style=" stroke:none;fill-rule:nonzero;fill:rgb(100%,100%,100%);fill-opacity:1;" d="M 35.957031 66.480469 C 35.957031 70.953125 29.25 70.953125 29.25 66.480469 C 29.25 62.007812 35.957031 62.007812 35.957031 66.480469 "/>
<path style=" stroke:none;fill-rule:nonzero;fill:rgb(100%,100%,100%);fill-opacity:1;" d="M 8.453125 366.355469 C 8.453125 370.828125 1.746094 370.828125 1.746094 366.355469 C 1.746094 361.882812 8.453125 361.882812 8.453125 366.355469 "/>
<path style=" stroke:none;fill-rule:nonzero;fill:rgb(100%,100%,100%);fill-opacity:1;" d="M 334.492188 479.730469 C 334.492188 484.203125 327.78125 484.203125 327.78125 479.730469 C 327.78125 475.257812 334.492188 475.257812 334.492188 479.730469 "/>
<path style=" stroke:none;fill-rule:nonzero;fill:rgb(100%,100%,100%);fill-opacity:1;" d="M 121.828125 469.667969 C 121.828125 474.140625 115.121094 474.140625 115.121094 469.667969 C 115.121094 465.195312 121.828125 465.195312 121.828125 469.667969 "/>
<path style=" stroke:none;fill-rule:nonzero;fill:rgb(100%,100%,100%);fill-opacity:1;" d="M 376.753906 81.242188 C 376.753906 85.714844 370.046875 85.714844 370.046875 81.242188 C 370.046875 76.769531 376.753906 76.769531 376.753906 81.242188 "/>
<path style=" stroke:none;fill-rule:nonzero;fill:rgb(100%,100%,100%);fill-opacity:1;" d="M 59.4375 78.558594 C 59.4375 83.03125 52.730469 83.03125 52.730469 78.558594 C 52.730469 74.085938 59.4375 74.085938 59.4375 78.558594 "/>
<path style=" stroke:none;fill-rule:nonzero;fill:rgb(100%,100%,100%);fill-opacity:1;" d="M 458.597656 412.644531 C 458.597656 417.117188 451.890625 417.117188 451.890625 412.644531 C 451.890625 408.171875 458.597656 408.171875 458.597656 412.644531 "/>
<path style=" stroke:none;fill-rule:nonzero;fill:rgb(100%,100%,100%);fill-opacity:1;" d="M 27.90625 307.320312 C 27.90625 311.792969 21.199219 311.792969 21.199219 307.320312 C 21.199219 302.847656 27.90625 302.847656 27.90625 307.320312 "/>
<path style=" stroke:none;fill-rule:nonzero;fill:rgb(100%,84.3%,0%);fill-opacity:1;" d="M 97.007812 232.855469 C 97.007812 237.328125 90.296875 237.328125 90.296875 232.855469 C 90.296875 228.382812 97.007812 228.382812 97.007812 232.855469 "/>
<path style=" stroke:none;fill-rule:nonzero;fill:rgb(100%,84.3%,0%);fill-opacity:1;" d="M 223.796875 185.222656 C 223.796875 189.695312 217.089844 189.695312 217.089844 185.222656 C 217.089844 180.75 223.796875 180.75 223.796875 185.222656 "/>
<path style=" stroke:none;fill-rule:nonzero;fill:rgb(100%,84.3%,0%);fill-opacity:1;" d="M 140.613281 329.460938 C 140.613281 333.929688 133.902344 333.929688 133.902344 329.460938 C 133.902344 324.988281 140.613281 324.988281 140.613281 329.460938 "/>
<path style=" stroke:none;fill-rule:nonzero;fill:rgb(100%,84.3%,0%);fill-opacity:1;" d="M 286.859375 199.984375 C 286.859375 204.457031 280.152344 204.457031 280.152344 199.984375 C 280.152344 195.511719 286.859375 195.511719 286.859375 199.984375 "/>
<path style=" stroke:none;fill-rule:nonzero;fill:rgb(100%,84.3%,0%);fill-opacity:1;" d="M 441.828125 280.484375 C 441.828125 284.957031 435.121094 284.957031 435.121094 280.484375 C 435.121094 276.011719 441.828125 276.011719 441.828125 280.484375 "/>
<path style=" stroke:none;fill-rule:nonzero;fill:rgb(100%,84.3%,0%);fill-opacity:1;" d="M 322.414062 255.664062 C 322.414062 260.136719 315.707031 260.136719 315.707031 255.664062 C 315.707031 251.191406 322.414062 251.191406 322.414062 255.664062 "/>
<path style=" stroke:none;fill-rule:nonzero;fill:rgb(100%,84.3%,0%);fill-opacity:1;" d="M 144.636719 198.640625 C 144.636719 203.113281 137.929688 203.113281 137.929688 198.640625 C 137.929688 194.167969 144.636719 194.167969 144.636719 198.640625 "/>
<path style=" stroke:none;fill-rule:nonzero;fill:rgb(100%,84.3%,0%);fill-opacity:1;" d="M 315.035156 264.386719 C 315.035156 268.859375 308.328125 268.859375 308.328125 264.386719 C 308.328125 259.914062 315.035156 259.914062 315.035156 264.386719 "/>
<path style=" stroke:none;fill-rule:nonzero;fill:rgb(100%,84.3%,0%);fill-opacity:1;" d="M 443.171875 271.765625 C 443.171875 276.238281 436.460938 276.238281 436.460938 271.765625 C 436.460938 267.292969 443.171875 267.292969 443.171875 271.765625 "/>
<path style=" stroke:none;fill-rule:nonzero;fill:rgb(100%,84.3%,0%);fill-opacity:1;" d="M 113.105469 211.386719 C 113.105469 215.859375 106.398438 215.859375 106.398438 211.386719 C 106.398438 206.914062 113.105469 206.914062 113.105469 211.386719 "/>
<path style=" stroke:none;fill-rule:nonzero;fill:rgb(100%,84.3%,0%);fill-opacity:1;" d="M 432.4375 194.617188 C 432.4375 199.089844 425.726562 199.089844 425.726562 194.617188 C 425.726562 190.144531 432.4375 190.144531 432.4375 194.617188 "/>
<path style=" stroke:none;fill-rule:nonzero;fill:rgb(100%,84.3%,0%);fill-opacity:1;" d="M 162.75 328.789062 C 162.75 333.261719 156.042969 333.261719 156.042969 328.789062 C 156.042969 324.316406 162.75 324.316406 162.75 328.789062 "/>
<path style=" stroke:none;fill-rule:nonzero;fill:rgb(100%,84.3%,0%);fill-opacity:1;" d="M 421.703125 182.539062 C 421.703125 187.011719 414.992188 187.011719 414.992188 182.539062 C 414.992188 178.070312 421.703125 178.070312 421.703125 182.539062 "/>
<path style=" stroke:none;fill-rule:nonzero;fill:rgb(100%,84.3%,0%);fill-opacity:1;" d="M 166.773438 253.652344 C 166.773438 258.125 160.066406 258.125 160.066406 253.652344 C 160.066406 249.179688 166.773438 249.179688 166.773438 253.652344 "/>
<path style=" stroke:none;fill-rule:nonzero;fill:rgb(100%,84.3%,0%);fill-opacity:1;" d="M 154.03125 255.664062 C 154.03125 260.136719 147.320312 260.136719 147.320312 255.664062 C 147.320312 251.191406 154.03125 251.191406 154.03125 255.664062 "/>
<path style=" stroke:none;fill-rule:nonzero;fill:rgb(100%,84.3%,0%);fill-opacity:1;" d="M 369.375 170.464844 C 369.375 174.9375 362.667969 174.9375 362.667969 170.464844 C 362.667969 165.992188 369.375 165.992188 369.375 170.464844 "/>
<path style=" stroke:none;fill-rule:nonzero;fill:rgb(100%,84.3%,0%);fill-opacity:1;" d="M 58.097656 181.871094 C 58.097656 186.34375 51.386719 186.34375 51.386719 181.871094 C 51.386719 177.398438 58.097656 177.398438 58.097656 181.871094 "/>
<path style=" stroke:none;fill-rule:nonzero;fill:rgb(100%,84.3%,0%);fill-opacity:1;" d="M 427.742188 262.371094 C 427.742188 266.84375 421.03125 266.84375 421.03125 262.371094 C 421.03125 257.902344 427.742188 257.902344 427.742188 262.371094 "/>
<path style=" stroke:none;fill-rule:nonzero;fill:rgb(100%,84.3%,0%);fill-opacity:1;" d="M 71.511719 295.246094 C 71.511719 299.71875 64.804688 299.71875 64.804688 295.246094 C 64.804688 290.773438 71.511719 290.773438 71.511719 295.246094 "/>
<path style=" stroke:none;fill-rule:nonzero;fill:rgb(100%,84.3%,0%);fill-opacity:1;" d="M 218.433594 227.488281 C 218.433594 231.960938 211.722656 231.960938 211.722656 227.488281 C 211.722656 223.015625 218.433594 223.015625 218.433594 227.488281 "/>
<path style=" stroke:none;fill-rule:nonzero;fill:rgb(100%,84.3%,0%);fill-opacity:1;" d="M 102.375 323.421875 C 102.375 327.894531 95.664062 327.894531 95.664062 323.421875 C 95.664062 318.949219 102.375 318.949219 102.375 323.421875 "/>
<path style=" stroke:none;fill-rule:nonzero;fill:rgb(100%,84.3%,0%);fill-opacity:1;" d="M 277.46875 210.046875 C 277.46875 214.519531 270.757812 214.519531 270.757812 210.046875 C 270.757812 205.574219 277.46875 205.574219 277.46875 210.046875 "/>
<path style=" stroke:none;fill-rule:nonzero;fill:rgb(100%,84.3%,0%);fill-opacity:1;" d="M 408.957031 318.726562 C 408.957031 323.199219 402.246094 323.199219 402.246094 318.726562 C 402.246094 314.253906 408.957031 314.253906 408.957031 318.726562 "/>
<path style=" stroke:none;fill-rule:nonzero;fill:rgb(100%,84.3%,0%);fill-opacity:1;" d="M 371.386719 189.25 C 371.386719 193.722656 364.679688 193.722656 364.679688 189.25 C 364.679688 184.777344 371.386719 184.777344 371.386719 189.25 "/>
<path style=" stroke:none;fill-rule:nonzero;fill:rgb(100%,84.3%,0%);fill-opacity:1;" d="M 282.835938 220.109375 C 282.835938 224.582031 276.125 224.582031 276.125 220.109375 C 276.125 215.636719 282.835938 215.636719 282.835938 220.109375 "/>
<path style=" stroke:none;fill-rule:nonzero;fill:rgb(100%,84.3%,0%);fill-opacity:1;" d="M 189.585938 254.324219 C 189.585938 258.796875 182.875 258.796875 182.875 254.324219 C 182.875 249.851562 189.585938 249.851562 189.585938 254.324219 "/>
<path style=" stroke:none;fill-rule:nonzero;fill:rgb(100%,84.3%,0%);fill-opacity:1;" d="M 351.933594 341.535156 C 351.933594 346.007812 345.226562 346.007812 345.226562 341.535156 C 345.226562 337.0625 351.933594 337.0625 351.933594 341.535156 "/>
<path style=" stroke:none;fill-rule:nonzero;fill:rgb(100%,84.3%,0%);fill-opacity:1;" d="M 251.976562 331.472656 C 251.976562 335.945312 245.265625 335.945312 245.265625 331.472656 C 245.265625 327 251.976562 327 251.976562 331.472656 "/>
<path style=" stroke:none;fill-rule:nonzero;fill:rgb(100%,84.3%,0%);fill-opacity:1;" d="M 329.792969 310.003906 C 329.792969 314.476562 323.085938 314.476562 323.085938 310.003906 C 323.085938 305.53125 329.792969 305.53125 329.792969 310.003906 "/>
<path style=" stroke:none;fill-rule:nonzero;fill:rgb(100%,84.3%,0%);fill-opacity:1;" d="M 391.511719 319.394531 C 391.511719 323.867188 384.804688 323.867188 384.804688 319.394531 C 384.804688 314.921875 391.511719 314.921875 391.511719 319.394531 "/>
<path style=" stroke:none;fill-rule:nonzero;fill:rgb(100%,84.3%,0%);fill-opacity:1;" d="M 99.019531 316.714844 C 99.019531 321.183594 92.3125 321.183594 92.3125 316.714844 C 92.3125 312.242188 99.019531 312.242188 99.019531 316.714844 "/>
<path style=" stroke:none;fill-rule:nonzero;fill:rgb(100%,84.3%,0%);fill-opacity:1;" d="M 166.105469 212.730469 C 166.105469 217.203125 159.398438 217.203125 159.398438 212.730469 C 159.398438 208.257812 166.105469 208.257812 166.105469 212.730469 "/>
<path style=" stroke:none;fill-rule:nonzero;fill:rgb(100%,84.3%,0%);fill-opacity:1;" d="M 115.121094 325.433594 C 115.121094 329.90625 108.410156 329.90625 108.410156 325.433594 C 108.410156 320.960938 115.121094 320.960938 115.121094 325.433594 "/>
<path style=" stroke:none;fill-rule:nonzero;fill:rgb(100%,84.3%,0%);fill-opacity:1;" d="M 328.453125 181.199219 C 328.453125 185.671875 321.746094 185.671875 321.746094 181.199219 C 321.746094 176.726562 328.453125 176.726562 328.453125 181.199219 "/>
<path style=" stroke:none;fill-rule:nonzero;fill:rgb(100%,84.3%,0%);fill-opacity:1;" d="M 264.050781 254.324219 C 264.050781 258.796875 257.339844 258.796875 257.339844 254.324219 C 257.339844 249.851562 264.050781 249.851562 264.050781 254.324219 "/>
<path style=" stroke:none;fill-rule:nonzero;fill:rgb(100%,84.3%,0%);fill-opacity:1;" d="M 136.585938 179.855469 C 136.585938 184.328125 129.878906 184.328125 129.878906 179.855469 C 129.878906 175.382812 136.585938 175.382812 136.585938 179.855469 "/>
<path style=" stroke:none;fill-rule:nonzero;fill:rgb(100%,84.3%,0%);fill-opacity:1;" d="M 215.75 297.929688 C 215.75 302.402344 209.039062 302.402344 209.039062 297.929688 C 209.039062 293.457031 215.75 293.457031 215.75 297.929688 "/>
<path style=" stroke:none;fill-rule:nonzero;fill:rgb(100%,84.3%,0%);fill-opacity:1;" d="M 315.035156 169.125 C 315.035156 173.597656 308.328125 173.597656 308.328125 169.125 C 308.328125 164.652344 315.035156 164.652344 315.035156 169.125 "/>
<path style=" stroke:none;fill-rule:nonzero;fill:rgb(100%,84.3%,0%);fill-opacity:1;" d="M 244.59375 265.058594 C 244.59375 269.53125 237.886719 269.53125 237.886719 265.058594 C 237.886719 260.585938 244.59375 260.585938 244.59375 265.058594 "/>
<path style=" stroke:none;fill-rule:nonzero;fill:rgb(100%,84.3%,0%);fill-opacity:1;" d="M 443.839844 334.824219 C 443.839844 339.296875 437.132812 339.296875 437.132812 334.824219 C 437.132812 330.355469 443.839844 330.355469 443.839844 334.824219 "/>
<path style=" stroke:none;fill-rule:nonzero;fill:rgb(100%,84.3%,0%);fill-opacity:1;" d="M 386.816406 169.125 C 386.816406 173.597656 380.109375 173.597656 380.109375 169.125 C 380.109375 164.652344 386.816406 164.652344 386.816406 169.125 "/>
<path style=" stroke:none;fill-rule:nonzero;fill:rgb(100%,84.3%,0%);fill-opacity:1;" d="M 200.988281 230.171875 C 200.988281 234.644531 194.28125 234.644531 194.28125 230.171875 C 194.28125 225.699219 200.988281 225.699219 200.988281 230.171875 "/>
<path style=" stroke:none;fill-rule:nonzero;fill:rgb(100%,84.3%,0%);fill-opacity:1;" d="M 454.574219 267.070312 C 454.574219 271.542969 447.867188 271.542969 447.867188 267.070312 C 447.867188 262.597656 454.574219 262.597656 454.574219 267.070312 "/>
<path style=" stroke:none;fill-rule:nonzero;fill:rgb(100%,84.3%,0%);fill-opacity:1;" d="M 229.164062 261.03125 C 229.164062 265.503906 222.457031 265.503906 222.457031 261.03125 C 222.457031 256.558594 229.164062 256.558594 229.164062 261.03125 "/>
<path style=" stroke:none;fill-rule:nonzero;fill:rgb(100%,84.3%,0%);fill-opacity:1;" d="M 92.308594 282.5 C 92.308594 286.972656 85.601562 286.972656 85.601562 282.5 C 85.601562 278.027344 92.308594 278.027344 92.308594 282.5 "/>
<path style=" stroke:none;fill-rule:nonzero;fill:rgb(100%,84.3%,0%);fill-opacity:1;" d="M 229.164062 298.601562 C 229.164062 303.074219 222.457031 303.074219 222.457031 298.601562 C 222.457031 294.128906 229.164062 294.128906 229.164062 298.601562 "/>
<path style=" stroke:none;fill-rule:nonzero;fill:rgb(100%,84.3%,0%);fill-opacity:1;" d="M 84.929688 314.699219 C 84.929688 319.171875 78.222656 319.171875 78.222656 314.699219 C 78.222656 310.226562 84.929688 310.226562 84.929688 314.699219 "/>
<path style=" stroke:none;fill-rule:nonzero;fill:rgb(100%,84.3%,0%);fill-opacity:1;" d="M 70.84375 169.125 C 70.84375 173.597656 64.132812 173.597656 64.132812 169.125 C 64.132812 164.652344 70.84375 164.652344 70.84375 169.125 "/>
<path style=" stroke:none;fill-rule:nonzero;fill:rgb(100%,84.3%,0%);fill-opacity:1;" d="M 394.199219 225.476562 C 394.199219 229.949219 387.488281 229.949219 387.488281 225.476562 C 387.488281 221.003906 394.199219 221.003906 394.199219 225.476562 "/>
<path style=" stroke:none;fill-rule:nonzero;fill:rgb(100%,84.3%,0%);fill-opacity:1;" d="M 363.335938 339.523438 C 363.335938 343.996094 356.628906 343.996094 356.628906 339.523438 C 356.628906 335.050781 363.335938 335.050781 363.335938 339.523438 "/>
<path style=" stroke:none;fill-rule:nonzero;fill:rgb(100%,84.3%,0%);fill-opacity:1;" d="M 194.28125 238.894531 C 194.28125 243.367188 187.574219 243.367188 187.574219 238.894531 C 187.574219 234.421875 194.28125 234.421875 194.28125 238.894531 "/>
<path style=" stroke:none;fill-rule:nonzero;fill:rgb(100%,84.3%,0%);fill-opacity:1;" d="M 274.113281 314.699219 C 274.113281 319.171875 267.40625 319.171875 267.40625 314.699219 C 267.40625 310.226562 274.113281 310.226562 274.113281 314.699219 "/>
<path style=" stroke:none;fill-rule:nonzero;fill:rgb(100%,84.3%,0%);fill-opacity:1;" d="M 314.363281 228.160156 C 314.363281 232.632812 307.65625 232.632812 307.65625 228.160156 C 307.65625 223.6875 314.363281 223.6875 314.363281 228.160156 "/>
<path style=" stroke:none;fill-rule:nonzero;fill:rgb(100%,84.3%,0%);fill-opacity:1;" d="M 413.652344 254.324219 C 413.652344 258.796875 406.945312 258.796875 406.945312 254.324219 C 406.945312 249.851562 413.652344 249.851562 413.652344 254.324219 "/>
<path style=" stroke:none;fill-rule:nonzero;fill:rgb(100%,84.3%,0%);fill-opacity:1;" d="M 401.578125 269.753906 C 401.578125 274.226562 394.867188 274.226562 394.867188 269.753906 C 394.867188 265.28125 401.578125 265.28125 401.578125 269.753906 "/>
<path style=" stroke:none;fill-rule:nonzero;fill:rgb(100%,84.3%,0%);fill-opacity:1;" d="M 145.980469 305.308594 C 145.980469 309.78125 139.269531 309.78125 139.269531 305.308594 C 139.269531 300.835938 145.980469 300.835938 145.980469 305.308594 "/>
<path style=" stroke:none;fill-rule:nonzero;fill:rgb(100%,84.3%,0%);fill-opacity:1;" d="M 131.21875 169.125 C 131.21875 173.597656 124.511719 173.597656 124.511719 169.125 C 124.511719 164.652344 131.21875 164.652344 131.21875 169.125 "/>
<path style=" stroke:none;fill-rule:nonzero;fill:rgb(100%,84.3%,0%);fill-opacity:1;" d="M 145.980469 320.066406 C 145.980469 324.539062 139.269531 324.539062 139.269531 320.066406 C 139.269531 315.59375 145.980469 315.59375 145.980469 320.066406 "/>
<path style=" stroke:none;fill-rule:nonzero;fill:rgb(100%,84.3%,0%);fill-opacity:1;" d="M 239.226562 297.929688 C 239.226562 302.402344 232.519531 302.402344 232.519531 297.929688 C 232.519531 293.457031 239.226562 293.457031 239.226562 297.929688 "/>
<path style=" stroke:none;fill-rule:nonzero;fill:rgb(100%,84.3%,0%);fill-opacity:1;" d="M 85.601562 260.359375 C 85.601562 264.832031 78.894531 264.832031 78.894531 260.359375 C 78.894531 255.886719 85.601562 255.886719 85.601562 260.359375 "/>
<path style=" stroke:none;fill-rule:nonzero;fill:rgb(100%,84.3%,0%);fill-opacity:1;" d="M 236.546875 320.738281 C 236.546875 325.210938 229.835938 325.210938 229.835938 320.738281 C 229.835938 316.265625 236.546875 316.265625 236.546875 320.738281 "/>
<path style=" stroke:none;fill-rule:nonzero;fill:rgb(100%,84.3%,0%);fill-opacity:1;" d="M 321.746094 206.691406 C 321.746094 211.164062 315.035156 211.164062 315.035156 206.691406 C 315.035156 202.21875 321.746094 202.21875 321.746094 206.691406 "/>
<path style=" stroke:none;fill-rule:nonzero;fill:rgb(100%,84.3%,0%);fill-opacity:1;" d="M 93.652344 330.128906 C 93.652344 334.601562 86.945312 334.601562 86.945312 330.128906 C 86.945312 325.65625 93.652344 325.65625 93.652344 330.128906 "/>
<path style=" stroke:none;fill-rule:nonzero;fill:rgb(100%,84.3%,0%);fill-opacity:1;" d="M 197.636719 224.132812 C 197.636719 228.605469 190.925781 228.605469 190.925781 224.132812 C 190.925781 219.660156 197.636719 219.660156 197.636719 224.132812 "/>
<path style=" stroke:none;fill-rule:nonzero;fill:rgb(100%,84.3%,0%);fill-opacity:1;" d="M 169.460938 276.460938 C 169.460938 280.933594 162.75 280.933594 162.75 276.460938 C 162.75 271.988281 169.460938 271.988281 169.460938 276.460938 "/>
<path style=" stroke:none;fill-rule:nonzero;fill:rgb(100%,84.3%,0%);fill-opacity:1;" d="M 429.753906 332.8125 C 429.753906 337.285156 423.042969 337.285156 423.042969 332.8125 C 423.042969 328.339844 429.753906 328.339844 429.753906 332.8125 "/>
<path style=" stroke:none;fill-rule:nonzero;fill:rgb(100%,84.3%,0%);fill-opacity:1;" d="M 114.449219 189.25 C 114.449219 193.722656 107.738281 193.722656 107.738281 189.25 C 107.738281 184.777344 114.449219 184.777344 114.449219 189.25 "/>
<path style=" stroke:none;fill-rule:nonzero;fill:rgb(100%,84.3%,0%);fill-opacity:1;" d="M 366.019531 183.882812 C 366.019531 188.355469 359.3125 188.355469 359.3125 183.882812 C 359.3125 179.410156 366.019531 179.410156 366.019531 183.882812 "/>
<path style=" stroke:none;fill-rule:nonzero;fill:rgb(100%,84.3%,0%);fill-opacity:1;" d="M 385.476562 219.4375 C 385.476562 223.910156 378.769531 223.910156 378.769531 219.4375 C 378.769531 214.964844 385.476562 214.964844 385.476562 219.4375 "/>
<path style=" stroke:none;fill-rule:nonzero;fill:rgb(100%,84.3%,0%);fill-opacity:1;" d="M 180.863281 248.957031 C 180.863281 253.429688 174.15625 253.429688 174.15625 248.957031 C 174.15625 244.484375 180.863281 244.484375 180.863281 248.957031 "/>
<path style=" stroke:none;fill-rule:nonzero;fill:rgb(100%,84.3%,0%);fill-opacity:1;" d="M 457.929688 172.476562 C 457.929688 176.949219 451.21875 176.949219 451.21875 172.476562 C 451.21875 168.003906 457.929688 168.003906 457.929688 172.476562 "/>
<path style=" stroke:none;fill-rule:nonzero;fill:rgb(100%,84.3%,0%);fill-opacity:1;" d="M 313.695312 241.578125 C 313.695312 246.050781 306.984375 246.050781 306.984375 241.578125 C 306.984375 237.105469 313.695312 237.105469 313.695312 241.578125 "/>
<path style=" stroke:none;fill-rule:nonzero;fill:rgb(100%,84.3%,0%);fill-opacity:1;" d="M 201.660156 179.855469 C 201.660156 184.328125 194.953125 184.328125 194.953125 179.855469 C 194.953125 175.382812 201.660156 175.382812 201.660156 179.855469 "/>
<path style=" stroke:none;fill-rule:nonzero;fill:rgb(100%,84.3%,0%);fill-opacity:1;" d="M 377.425781 310.675781 C 377.425781 315.148438 370.714844 315.148438 370.714844 310.675781 C 370.714844 306.203125 377.425781 306.203125 377.425781 310.675781 "/>
<path style=" stroke:none;fill-rule:nonzero;fill:rgb(100%,84.3%,0%);fill-opacity:1;" d="M 235.203125 281.828125 C 235.203125 286.300781 228.496094 286.300781 228.496094 281.828125 C 228.496094 277.355469 235.203125 277.355469 235.203125 281.828125 "/>
<path style=" stroke:none;fill-rule:nonzero;fill:rgb(100%,84.3%,0%);fill-opacity:1;" d="M 241.242188 198.640625 C 241.242188 203.113281 234.53125 203.113281 234.53125 198.640625 C 234.53125 194.167969 241.242188 194.167969 241.242188 198.640625 "/>
<path style=" stroke:none;fill-rule:nonzero;fill:rgb(100%,84.3%,0%);fill-opacity:1;" d="M 181.535156 176.503906 C 181.535156 180.976562 174.824219 180.976562 174.824219 176.503906 C 174.824219 172.03125 181.535156 172.03125 181.535156 176.503906 "/>
<path style=" stroke:none;fill-rule:nonzero;fill:rgb(100%,84.3%,0%);fill-opacity:1;" d="M 296.921875 221.449219 C 296.921875 225.921875 290.214844 225.921875 290.214844 221.449219 C 290.214844 216.980469 296.921875 216.980469 296.921875 221.449219 "/>
<path style=" stroke:none;fill-rule:nonzero;fill:rgb(100%,84.3%,0%);fill-opacity:1;" d="M 140.613281 218.765625 C 140.613281 223.238281 133.902344 223.238281 133.902344 218.765625 C 133.902344 214.292969 140.613281 214.292969 140.613281 218.765625 "/>
<path style=" stroke:none;fill-rule:nonzero;fill:rgb(100%,84.3%,0%);fill-opacity:1;" d="M 122.5 312.015625 C 122.5 316.488281 115.789062 316.488281 115.789062 312.015625 C 115.789062 307.542969 122.5 307.542969 122.5 312.015625 "/>
<path style=" stroke:none;fill-rule:nonzero;fill:rgb(100%,84.3%,0%);fill-opacity:1;" d="M 167.445312 183.882812 C 167.445312 188.355469 160.738281 188.355469 160.738281 183.882812 C 160.738281 179.410156 167.445312 179.410156 167.445312 183.882812 "/>
<path style=" stroke:none;fill-rule:nonzero;fill:rgb(100%,84.3%,0%);fill-opacity:1;" d="M 145.308594 336.167969 C 145.308594 340.640625 138.601562 340.640625 138.601562 336.167969 C 138.601562 331.695312 145.308594 331.695312 145.308594 336.167969 "/>
<path style=" stroke:none;fill-rule:nonzero;fill:rgb(100%,84.3%,0%);fill-opacity:1;" d="M 355.957031 318.054688 C 355.957031 322.527344 349.25 322.527344 349.25 318.054688 C 349.25 313.582031 355.957031 313.582031 355.957031 318.054688 "/>
<path style=" stroke:none;fill-rule:nonzero;fill:rgb(100%,84.3%,0%);fill-opacity:1;" d="M 244.59375 280.484375 C 244.59375 284.957031 237.886719 284.957031 237.886719 280.484375 C 237.886719 276.011719 244.59375 276.011719 244.59375 280.484375 "/>
<path style=" stroke:none;fill-rule:nonzero;fill:rgb(100%,84.3%,0%);fill-opacity:1;" d="M 261.367188 309.332031 C 261.367188 313.804688 254.660156 313.804688 254.660156 309.332031 C 254.660156 304.859375 261.367188 304.859375 261.367188 309.332031 "/>
<path style=" stroke:none;fill-rule:nonzero;fill:rgb(100%,84.3%,0%);fill-opacity:1;" d="M 206.355469 238.222656 C 206.355469 242.695312 199.648438 242.695312 199.648438 238.222656 C 199.648438 233.75 206.355469 233.75 206.355469 238.222656 "/>
<path style=" stroke:none;fill-rule:nonzero;fill:rgb(100%,84.3%,0%);fill-opacity:1;" d="M 325.097656 244.929688 C 325.097656 249.402344 318.390625 249.402344 318.390625 244.929688 C 318.390625 240.457031 325.097656 240.457031 325.097656 244.929688 "/>
<path style=" stroke:none;fill-rule:nonzero;fill:rgb(100%,84.3%,0%);fill-opacity:1;" d="M 279.480469 301.28125 C 279.480469 305.753906 272.773438 305.753906 272.773438 301.28125 C 272.773438 296.8125 279.480469 296.8125 279.480469 301.28125 "/>
<path style=" stroke:none;fill-rule:nonzero;fill:rgb(100%,84.3%,0%);fill-opacity:1;" d="M 129.207031 334.824219 C 129.207031 339.296875 122.5 339.296875 122.5 334.824219 C 122.5 330.355469 129.207031 330.355469 129.207031 334.824219 "/>
<path style=" stroke:none;fill-rule:nonzero;fill:rgb(100%,84.3%,0%);fill-opacity:1;" d="M 62.121094 299.941406 C 62.121094 304.414062 55.414062 304.414062 55.414062 299.941406 C 55.414062 295.46875 62.121094 295.46875 62.121094 299.941406 "/>
<path style=" stroke:none;fill-rule:nonzero;fill:rgb(100%,84.3%,0%);fill-opacity:1;" d="M 317.046875 283.839844 C 317.046875 288.3125 310.339844 288.3125 310.339844 283.839844 C 310.339844 279.367188 317.046875 279.367188 317.046875 283.839844 "/>
<path style=" stroke:none;fill-rule:nonzero;fill:rgb(100%,84.3%,0%);fill-opacity:1;" d="M 390.84375 245.601562 C 390.84375 250.074219 384.132812 250.074219 384.132812 245.601562 C 384.132812 241.128906 390.84375 241.128906 390.84375 245.601562 "/>
<path style=" stroke:none;fill-rule:nonzero;fill:rgb(100%,84.3%,0%);fill-opacity:1;" d="M 355.289062 260.359375 C 355.289062 264.832031 348.578125 264.832031 348.578125 260.359375 C 348.578125 255.886719 355.289062 255.886719 355.289062 260.359375 "/>
<path style=" stroke:none;fill-rule:nonzero;fill:rgb(100%,84.3%,0%);fill-opacity:1;" d="M 286.1875 325.433594 C 286.1875 329.90625 279.480469 329.90625 279.480469 325.433594 C 279.480469 320.960938 286.1875 320.960938 286.1875 325.433594 "/>
<path style=" stroke:none;fill-rule:nonzero;fill:rgb(100%,84.3%,0%);fill-opacity:1;" d="M 223.128906 290.550781 C 223.128906 295.019531 216.417969 295.019531 216.417969 290.550781 C 216.417969 286.078125 223.128906 286.078125 223.128906 290.550781 "/>
<path style=" stroke:none;fill-rule:nonzero;fill:rgb(100%,84.3%,0%);fill-opacity:1;" d="M 257.339844 246.273438 C 257.339844 250.746094 250.632812 250.746094 250.632812 246.273438 C 250.632812 241.800781 257.339844 241.800781 257.339844 246.273438 "/>
<path style=" stroke:none;fill-rule:nonzero;fill:rgb(100%,84.3%,0%);fill-opacity:1;" d="M 85.601562 324.09375 C 85.601562 328.5625 78.894531 328.5625 78.894531 324.09375 C 78.894531 319.621094 85.601562 319.621094 85.601562 324.09375 "/>
<path style=" stroke:none;fill-rule:nonzero;fill:rgb(100%,84.3%,0%);fill-opacity:1;" d="M 369.375 236.210938 C 369.375 240.683594 362.667969 240.683594 362.667969 236.210938 C 362.667969 231.738281 369.375 231.738281 369.375 236.210938 "/>
<path style=" stroke:none;fill-rule:nonzero;fill:rgb(100%,84.3%,0%);fill-opacity:1;" d="M 82.917969 242.246094 C 82.917969 246.71875 76.210938 246.71875 76.210938 242.246094 C 76.210938 237.773438 82.917969 237.773438 82.917969 242.246094 "/>
<path style=" stroke:none;fill-rule:nonzero;fill:rgb(100%,84.3%,0%);fill-opacity:1;" d="M 88.285156 236.210938 C 88.285156 240.683594 81.578125 240.683594 81.578125 236.210938 C 81.578125 231.738281 88.285156 231.738281 88.285156 236.210938 "/>
<path style=" stroke:none;fill-rule:nonzero;fill:rgb(100%,84.3%,0%);fill-opacity:1;" d="M 116.460938 301.953125 C 116.460938 306.425781 109.753906 306.425781 109.753906 301.953125 C 109.753906 297.480469 116.460938 297.480469 116.460938 301.953125 "/>
<path style=" stroke:none;fill-rule:nonzero;fill:rgb(100%,84.3%,0%);fill-opacity:1;" d="M 362.667969 245.601562 C 362.667969 250.074219 355.957031 250.074219 355.957031 245.601562 C 355.957031 241.128906 362.667969 241.128906 362.667969 245.601562 "/>
<path style=" stroke:none;fill-rule:nonzero;fill:rgb(100%,84.3%,0%);fill-opacity:1;" d="M 196.964844 272.4375 C 196.964844 276.910156 190.253906 276.910156 190.253906 272.4375 C 190.253906 267.964844 196.964844 267.964844 196.964844 272.4375 "/>
<path style=" stroke:none;fill-rule:nonzero;fill:rgb(100%,84.3%,0%);fill-opacity:1;" d="M 217.761719 327.445312 C 217.761719 331.917969 211.050781 331.917969 211.050781 327.445312 C 211.050781 322.972656 217.761719 322.972656 217.761719 327.445312 "/>
<path style=" stroke:none;fill-rule:nonzero;fill:rgb(100%,84.3%,0%);fill-opacity:1;" d="M 451.21875 194.617188 C 451.21875 199.089844 444.511719 199.089844 444.511719 194.617188 C 444.511719 190.144531 451.21875 190.144531 451.21875 194.617188 "/>
<path style=" stroke:none;fill-rule:nonzero;fill:rgb(100%,84.3%,0%);fill-opacity:1;" d="M 290.882812 295.914062 C 290.882812 300.386719 284.175781 300.386719 284.175781 295.914062 C 284.175781 291.445312 290.882812 291.445312 290.882812 295.914062 "/>
<path style=" stroke:none;fill-rule:nonzero;fill:rgb(100%,84.3%,0%);fill-opacity:1;" d="M 433.105469 220.78125 C 433.105469 225.253906 426.398438 225.253906 426.398438 220.78125 C 426.398438 216.308594 433.105469 216.308594 433.105469 220.78125 "/>
<path style=" stroke:none;fill-rule:nonzero;fill:rgb(100%,84.3%,0%);fill-opacity:1;" d="M 147.320312 327.445312 C 147.320312 331.917969 140.613281 331.917969 140.613281 327.445312 C 140.613281 322.972656 147.320312 322.972656 147.320312 327.445312 "/>
<path style=" stroke:none;fill-rule:nonzero;fill:rgb(100%,84.3%,0%);fill-opacity:1;" d="M 447.195312 212.730469 C 447.195312 217.203125 440.488281 217.203125 440.488281 212.730469 C 440.488281 208.257812 447.195312 208.257812 447.195312 212.730469 "/>
<path style=" stroke:none;fill-rule:nonzero;fill:rgb(100%,84.3%,0%);fill-opacity:1;" d="M 143.296875 177.175781 C 143.296875 181.644531 136.585938 181.644531 136.585938 177.175781 C 136.585938 172.703125 143.296875 172.703125 143.296875 177.175781 "/>
<path style=" stroke:none;fill-rule:nonzero;fill:rgb(100%,84.3%,0%);fill-opacity:1;" d="M 138.597656 294.574219 C 138.597656 299.046875 131.890625 299.046875 131.890625 294.574219 C 131.890625 290.101562 138.597656 290.101562 138.597656 294.574219 "/>
<path style=" stroke:none;fill-rule:nonzero;fill:rgb(100%,84.3%,0%);fill-opacity:1;" d="M 165.433594 312.6875 C 165.433594 317.160156 158.726562 317.160156 158.726562 312.6875 C 158.726562 308.214844 165.433594 308.214844 165.433594 312.6875 "/>
<path style=" stroke:none;fill-rule:nonzero;fill:rgb(100%,84.3%,0%);fill-opacity:1;" d="M 428.410156 201.996094 C 428.410156 206.46875 421.703125 206.46875 421.703125 201.996094 C 421.703125 197.523438 428.410156 197.523438 428.410156 201.996094 "/>
<path style=" stroke:none;fill-rule:nonzero;fill:rgb(100%,84.3%,0%);fill-opacity:1;" d="M 82.917969 188.578125 C 82.917969 193.050781 76.210938 193.050781 76.210938 188.578125 C 76.210938 184.105469 82.917969 184.105469 82.917969 188.578125 "/>
<path style=" stroke:none;fill-rule:nonzero;fill:rgb(100%,84.3%,0%);fill-opacity:1;" d="M 132.5625 252.980469 C 132.5625 257.453125 125.855469 257.453125 125.855469 252.980469 C 125.855469 248.507812 132.5625 248.507812 132.5625 252.980469 "/>
<path style=" stroke:none;fill-rule:nonzero;fill:rgb(100%,84.3%,0%);fill-opacity:1;" d="M 423.714844 238.222656 C 423.714844 242.695312 417.007812 242.695312 417.007812 238.222656 C 417.007812 233.75 423.714844 233.75 423.714844 238.222656 "/>
<path style=" stroke:none;fill-rule:nonzero;fill:rgb(100%,84.3%,0%);fill-opacity:1;" d="M 441.828125 341.535156 C 441.828125 346.007812 435.121094 346.007812 435.121094 341.535156 C 435.121094 337.0625 441.828125 337.0625 441.828125 341.535156 "/>
<path style=" stroke:none;fill-rule:nonzero;fill:rgb(100%,84.3%,0%);fill-opacity:1;" d="M 434.449219 324.761719 C 434.449219 329.234375 427.738281 329.234375 427.738281 324.761719 C 427.738281 320.289062 434.449219 320.289062 434.449219 324.761719 "/>
<path style=" stroke:none;fill-rule:nonzero;fill:rgb(100%,84.3%,0%);fill-opacity:1;" d="M 297.59375 333.484375 C 297.59375 337.957031 290.882812 337.957031 290.882812 333.484375 C 290.882812 329.011719 297.59375 329.011719 297.59375 333.484375 "/>
<path style=" stroke:none;fill-rule:nonzero;fill:rgb(100%,84.3%,0%);fill-opacity:1;" d="M 302.960938 217.425781 C 302.960938 221.898438 296.25 221.898438 296.25 217.425781 C 296.25 212.953125 302.960938 212.953125 302.960938 217.425781 "/>
<path style=" stroke:none;fill-rule:nonzero;fill:rgb(100%,84.3%,0%);fill-opacity:1;" d="M 341.871094 263.714844 C 341.871094 268.1875 335.160156 268.1875 335.160156 263.714844 C 335.160156 259.242188 341.871094 259.242188 341.871094 263.714844 "/>
<path style=" stroke:none;fill-rule:nonzero;fill:rgb(100%,84.3%,0%);fill-opacity:1;" d="M 335.160156 292.5625 C 335.160156 297.035156 328.453125 297.035156 328.453125 292.5625 C 328.453125 288.089844 335.160156 288.089844 335.160156 292.5625 "/>
<path style=" stroke:none;fill-rule:nonzero;fill:rgb(100%,84.3%,0%);fill-opacity:1;" d="M 106.398438 204.007812 C 106.398438 208.480469 99.691406 208.480469 99.691406 204.007812 C 99.691406 199.535156 106.398438 199.535156 106.398438 204.007812 "/>
<path style=" stroke:none;fill-rule:nonzero;fill:rgb(100%,84.3%,0%);fill-opacity:1;" d="M 132.5625 241.578125 C 132.5625 246.050781 125.855469 246.050781 125.855469 241.578125 C 125.855469 237.105469 132.5625 237.105469 132.5625 241.578125 "/>
<path style=" stroke:none;fill-rule:nonzero;fill:rgb(100%,84.3%,0%);fill-opacity:1;" d="M 141.953125 210.046875 C 141.953125 214.519531 135.246094 214.519531 135.246094 210.046875 C 135.246094 205.574219 141.953125 205.574219 141.953125 210.046875 "/>
<path style=" stroke:none;fill-rule:nonzero;fill:rgb(100%,84.3%,0%);fill-opacity:1;" d="M 335.160156 222.792969 C 335.160156 227.265625 328.453125 227.265625 328.453125 222.792969 C 328.453125 218.320312 335.160156 218.320312 335.160156 222.792969 "/>
<path style=" stroke:none;fill-rule:nonzero;fill:rgb(100%,84.3%,0%);fill-opacity:1;" d="M 210.382812 337.507812 C 210.382812 341.980469 203.671875 341.980469 203.671875 337.507812 C 203.671875 333.035156 210.382812 333.035156 210.382812 337.507812 "/>
<path style=" stroke:none;fill-rule:nonzero;fill:rgb(100%,84.3%,0%);fill-opacity:1;" d="M 298.265625 317.382812 C 298.265625 321.855469 291.554688 321.855469 291.554688 317.382812 C 291.554688 312.910156 298.265625 312.910156 298.265625 317.382812 "/>
<path style=" stroke:none;fill-rule:nonzero;fill:rgb(100%,84.3%,0%);fill-opacity:1;" d="M 338.515625 238.894531 C 338.515625 243.367188 331.808594 243.367188 331.808594 238.894531 C 331.808594 234.421875 338.515625 234.421875 338.515625 238.894531 "/>
<path style=" stroke:none;fill-rule:nonzero;fill:rgb(100%,84.3%,0%);fill-opacity:1;" d="M 299.605469 304.636719 C 299.605469 309.109375 292.898438 309.109375 292.898438 304.636719 C 292.898438 300.164062 299.605469 300.164062 299.605469 304.636719 "/>
<path style=" stroke:none;fill-rule:nonzero;fill:rgb(100%,84.3%,0%);fill-opacity:1;" d="M 215.75 242.246094 C 215.75 246.71875 209.039062 246.71875 209.039062 242.246094 C 209.039062 237.773438 215.75 237.773438 215.75 242.246094 "/>
<path style=" stroke:none;fill-rule:nonzero;fill:rgb(100%,84.3%,0%);fill-opacity:1;" d="M 173.484375 324.09375 C 173.484375 328.5625 166.777344 328.5625 166.777344 324.09375 C 166.777344 319.621094 173.484375 319.621094 173.484375 324.09375 "/>
<path style=" stroke:none;fill-rule:nonzero;fill:rgb(100%,84.3%,0%);fill-opacity:1;" d="M 443.839844 232.855469 C 443.839844 237.328125 437.132812 237.328125 437.132812 232.855469 C 437.132812 228.382812 443.839844 228.382812 443.839844 232.855469 "/>
<path style=" stroke:none;fill-rule:nonzero;fill:rgb(100%,84.3%,0%);fill-opacity:1;" d="M 149.332031 263.042969 C 149.332031 267.515625 142.625 267.515625 142.625 263.042969 C 142.625 258.570312 149.332031 258.570312 149.332031 263.042969 "/>
<path style=" stroke:none;fill-rule:nonzero;fill:rgb(100%,84.3%,0%);fill-opacity:1;" d="M 279.480469 179.855469 C 279.480469 184.328125 272.773438 184.328125 272.773438 179.855469 C 272.773438 175.382812 279.480469 175.382812 279.480469 179.855469 "/>
<path style=" stroke:none;fill-rule:nonzero;fill:rgb(100%,84.3%,0%);fill-opacity:1;" d="M 177.507812 279.144531 C 177.507812 283.617188 170.800781 283.617188 170.800781 279.144531 C 170.800781 274.671875 177.507812 274.671875 177.507812 279.144531 "/>
<path style=" stroke:none;fill-rule:nonzero;fill:rgb(100%,84.3%,0%);fill-opacity:1;" d="M 403.589844 322.75 C 403.589844 327.222656 396.878906 327.222656 396.878906 322.75 C 396.878906 318.277344 403.589844 318.277344 403.589844 322.75 "/>
<path style=" stroke:none;fill-rule:nonzero;fill:rgb(100%,84.3%,0%);fill-opacity:1;" d="M 127.867188 193.945312 C 127.867188 198.417969 121.15625 198.417969 121.15625 193.945312 C 121.15625 189.472656 127.867188 189.472656 127.867188 193.945312 "/>
<path style=" stroke:none;fill-rule:nonzero;fill:rgb(100%,84.3%,0%);fill-opacity:1;" d="M 430.421875 278.472656 C 430.421875 282.945312 423.714844 282.945312 423.714844 278.472656 C 423.714844 274 430.421875 274 430.421875 278.472656 "/>
<path style=" stroke:none;fill-rule:nonzero;fill:rgb(100%,84.3%,0%);fill-opacity:1;" d="M 295.582031 276.460938 C 295.582031 280.933594 288.871094 280.933594 288.871094 276.460938 C 288.871094 271.988281 295.582031 271.988281 295.582031 276.460938 "/>
<path style=" stroke:none;fill-rule:nonzero;fill:rgb(100%,84.3%,0%);fill-opacity:1;" d="M 170.800781 267.738281 C 170.800781 272.210938 164.09375 272.210938 164.09375 267.738281 C 164.09375 263.269531 170.800781 263.269531 170.800781 267.738281 "/>
<path style=" stroke:none;fill-rule:nonzero;fill:rgb(100%,84.3%,0%);fill-opacity:1;" d="M 390.171875 233.527344 C 390.171875 238 383.464844 238 383.464844 233.527344 C 383.464844 229.054688 390.171875 229.054688 390.171875 233.527344 "/>
<path style=" stroke:none;fill-rule:nonzero;fill:rgb(100%,84.3%,0%);fill-opacity:1;" d="M 253.988281 278.472656 C 253.988281 282.945312 247.277344 282.945312 247.277344 278.472656 C 247.277344 274 253.988281 274 253.988281 278.472656 "/>
<path style=" stroke:none;fill-rule:nonzero;fill:rgb(100%,84.3%,0%);fill-opacity:1;" d="M 293.566406 229.5 C 293.566406 233.972656 286.859375 233.972656 286.859375 229.5 C 286.859375 225.027344 293.566406 225.027344 293.566406 229.5 "/>
<path style=" stroke:none;fill-rule:nonzero;fill:rgb(100%,84.3%,0%);fill-opacity:1;" d="M 358.640625 308.660156 C 358.640625 313.132812 351.933594 313.132812 351.933594 308.660156 C 351.933594 304.191406 358.640625 304.191406 358.640625 308.660156 "/>
<path style=" stroke:none;fill-rule:nonzero;fill:rgb(100%,84.3%,0%);fill-opacity:1;" d="M 331.808594 231.515625 C 331.808594 235.988281 325.097656 235.988281 325.097656 231.515625 C 325.097656 227.042969 331.808594 227.042969 331.808594 231.515625 "/>
<path style=" stroke:none;fill-rule:nonzero;fill:rgb(100%,84.3%,0%);fill-opacity:1;" d="M 123.839844 218.765625 C 123.839844 223.238281 117.132812 223.238281 117.132812 218.765625 C 117.132812 214.292969 123.839844 214.292969 123.839844 218.765625 "/>
<path style=" stroke:none;fill-rule:nonzero;fill:rgb(100%,84.3%,0%);fill-opacity:1;" d="M 219.101562 234.867188 C 219.101562 239.339844 212.394531 239.339844 212.394531 234.867188 C 212.394531 230.394531 219.101562 230.394531 219.101562 234.867188 "/>
<path style=" stroke:none;fill-rule:nonzero;fill:rgb(100%,84.3%,0%);fill-opacity:1;" d="M 216.417969 250.96875 C 216.417969 255.441406 209.710938 255.441406 209.710938 250.96875 C 209.710938 246.496094 216.417969 246.496094 216.417969 250.96875 "/>
<path style=" stroke:none;fill-rule:nonzero;fill:rgb(100%,84.3%,0%);fill-opacity:1;" d="M 323.757812 289.878906 C 323.757812 294.351562 317.046875 294.351562 317.046875 289.878906 C 317.046875 285.40625 323.757812 285.40625 323.757812 289.878906 "/>
<path style=" stroke:none;fill-rule:nonzero;fill:rgb(100%,84.3%,0%);fill-opacity:1;" d="M 465.980469 296.585938 C 465.980469 301.058594 459.269531 301.058594 459.269531 296.585938 C 459.269531 292.113281 465.980469 292.113281 465.980469 296.585938 "/>
<path style=" stroke:none;fill-rule:nonzero;fill:rgb(100%,84.3%,0%);fill-opacity:1;" d="M 270.757812 326.777344 C 270.757812 331.25 264.050781 331.25 264.050781 326.777344 C 264.050781 322.304688 270.757812 322.304688 270.757812 326.777344 "/>
<path style=" stroke:none;fill-rule:nonzero;fill:rgb(100%,84.3%,0%);fill-opacity:1;" d="M 204.34375 271.765625 C 204.34375 276.238281 197.636719 276.238281 197.636719 271.765625 C 197.636719 267.292969 204.34375 267.292969 204.34375 271.765625 "/>
<path style=" stroke:none;fill-rule:nonzero;fill:rgb(100%,84.3%,0%);fill-opacity:1;" d="M 270.089844 225.476562 C 270.089844 229.949219 263.378906 229.949219 263.378906 225.476562 C 263.378906 221.003906 270.089844 221.003906 270.089844 225.476562 "/>
<path style=" stroke:none;fill-rule:nonzero;fill:rgb(100%,84.3%,0%);fill-opacity:1;" d="M 336.503906 342.203125 C 336.503906 346.675781 329.792969 346.675781 329.792969 342.203125 C 329.792969 337.734375 336.503906 337.734375 336.503906 342.203125 "/>
<path style=" stroke:none;fill-rule:nonzero;fill:rgb(100%,84.3%,0%);fill-opacity:1;" d="M 385.476562 190.589844 C 385.476562 195.0625 378.769531 195.0625 378.769531 190.589844 C 378.769531 186.117188 385.476562 186.117188 385.476562 190.589844 "/>
<path style=" stroke:none;fill-rule:nonzero;fill:rgb(100%,84.3%,0%);fill-opacity:1;" d="M 64.132812 333.484375 C 64.132812 337.957031 57.425781 337.957031 57.425781 333.484375 C 57.425781 329.011719 64.132812 329.011719 64.132812 333.484375 "/>
<path style=" stroke:none;fill-rule:nonzero;fill:rgb(100%,84.3%,0%);fill-opacity:1;" d="M 404.929688 278.472656 C 404.929688 282.945312 398.222656 282.945312 398.222656 278.472656 C 398.222656 274 404.929688 274 404.929688 278.472656 "/>
<path style=" stroke:none;fill-rule:nonzero;fill:rgb(100%,84.3%,0%);fill-opacity:1;" d="M 337.84375 314.699219 C 337.84375 319.171875 331.136719 319.171875 331.136719 314.699219 C 331.136719 310.226562 337.84375 310.226562 337.84375 314.699219 "/>
<path style=" stroke:none;fill-rule:nonzero;fill:rgb(100%,84.3%,0%);fill-opacity:1;" d="M 111.765625 229.5 C 111.765625 233.972656 105.058594 233.972656 105.058594 229.5 C 105.058594 225.027344 111.765625 225.027344 111.765625 229.5 "/>
<path style=" stroke:none;fill-rule:nonzero;fill:rgb(100%,84.3%,0%);fill-opacity:1;" d="M 456.585938 273.777344 C 456.585938 278.25 449.878906 278.25 449.878906 273.777344 C 449.878906 269.304688 456.585938 269.304688 456.585938 273.777344 "/>
<path style=" stroke:none;fill-rule:nonzero;fill:rgb(100%,84.3%,0%);fill-opacity:1;" d="M 158.054688 209.375 C 158.054688 213.847656 151.34375 213.847656 151.34375 209.375 C 151.34375 204.902344 158.054688 204.902344 158.054688 209.375 "/>
<path style=" stroke:none;fill-rule:nonzero;fill:rgb(100%,84.3%,0%);fill-opacity:1;" d="M 241.242188 249.628906 C 241.242188 254.097656 234.53125 254.097656 234.53125 249.628906 C 234.53125 245.15625 241.242188 245.15625 241.242188 249.628906 "/>
<path style=" stroke:none;fill-rule:nonzero;fill:rgb(100%,84.3%,0%);fill-opacity:1;" d="M 230.507812 209.375 C 230.507812 213.847656 223.796875 213.847656 223.796875 209.375 C 223.796875 204.902344 230.507812 204.902344 230.507812 209.375 "/>
<path style=" stroke:none;fill-rule:nonzero;fill:rgb(100%,84.3%,0%);fill-opacity:1;" d="M 288.203125 235.539062 C 288.203125 240.011719 281.492188 240.011719 281.492188 235.539062 C 281.492188 231.066406 288.203125 231.066406 288.203125 235.539062 "/>
<path style=" stroke:none;fill-rule:nonzero;fill:rgb(100%,84.3%,0%);fill-opacity:1;" d="M 374.742188 224.804688 C 374.742188 229.277344 368.035156 229.277344 368.035156 224.804688 C 368.035156 220.332031 374.742188 220.332031 374.742188 224.804688 "/>
<path style=" stroke:none;fill-rule:nonzero;fill:rgb(100%,84.3%,0%);fill-opacity:1;" d="M 463.296875 247.613281 C 463.296875 252.085938 456.585938 252.085938 456.585938 247.613281 C 456.585938 243.140625 463.296875 243.140625 463.296875 247.613281 "/>
<path style=" stroke:none;fill-rule:nonzero;fill:rgb(100%,84.3%,0%);fill-opacity:1;" d="M 310.339844 277.132812 C 310.339844 281.605469 303.628906 281.605469 303.628906 277.132812 C 303.628906 272.660156 310.339844 272.660156 310.339844 277.132812 "/>
<path style=" stroke:none;fill-rule:nonzero;fill:rgb(100%,84.3%,0%);fill-opacity:1;" d="M 280.824219 188.578125 C 280.824219 193.050781 274.113281 193.050781 274.113281 188.578125 C 274.113281 184.105469 280.824219 184.105469 280.824219 188.578125 "/>
<path style=" stroke:none;fill-rule:nonzero;fill:rgb(100%,84.3%,0%);fill-opacity:1;" d="M 331.136719 187.90625 C 331.136719 192.378906 324.425781 192.378906 324.425781 187.90625 C 324.425781 183.4375 331.136719 183.4375 331.136719 187.90625 "/>
<path style=" stroke:none;fill-rule:nonzero;fill:rgb(100%,84.3%,0%);fill-opacity:1;" d="M 420.359375 212.730469 C 420.359375 217.203125 413.652344 217.203125 413.652344 212.730469 C 413.652344 208.257812 420.359375 208.257812 420.359375 212.730469 "/>
<path style=" stroke:none;fill-rule:nonzero;fill:rgb(100%,84.3%,0%);fill-opacity:1;" d="M 200.316406 302.625 C 200.316406 307.097656 193.609375 307.097656 193.609375 302.625 C 193.609375 298.152344 200.316406 298.152344 200.316406 302.625 "/>
<path style=" stroke:none;fill-rule:nonzero;fill:rgb(100%,84.3%,0%);fill-opacity:1;" d="M 366.019531 206.691406 C 366.019531 211.164062 359.3125 211.164062 359.3125 206.691406 C 359.3125 202.21875 366.019531 202.21875 366.019531 206.691406 "/>
<path style=" stroke:none;fill-rule:nonzero;fill:rgb(100%,84.3%,0%);fill-opacity:1;" d="M 272.101562 257.007812 C 272.101562 261.476562 265.390625 261.476562 265.390625 257.007812 C 265.390625 252.535156 272.101562 252.535156 272.101562 257.007812 "/>
<path style=" stroke:none;fill-rule:nonzero;fill:rgb(100%,84.3%,0%);fill-opacity:1;" d="M 463.296875 190.589844 C 463.296875 195.0625 456.585938 195.0625 456.585938 190.589844 C 456.585938 186.117188 463.296875 186.117188 463.296875 190.589844 "/>
<path style=" stroke:none;fill-rule:nonzero;fill:rgb(100%,84.3%,0%);fill-opacity:1;" d="M 370.71875 244.261719 C 370.71875 248.730469 364.007812 248.730469 364.007812 244.261719 C 364.007812 239.789062 370.71875 239.789062 370.71875 244.261719 "/>
<path style=" stroke:none;fill-rule:nonzero;fill:rgb(100%,84.3%,0%);fill-opacity:1;" d="M 286.1875 278.472656 C 286.1875 282.945312 279.480469 282.945312 279.480469 278.472656 C 279.480469 274 286.1875 274 286.1875 278.472656 "/>
<path style=" stroke:none;fill-rule:nonzero;fill:rgb(100%,84.3%,0%);fill-opacity:1;" d="M 343.210938 203.339844 C 343.210938 207.808594 336.503906 207.808594 336.503906 203.339844 C 336.503906 198.867188 343.210938 198.867188 343.210938 203.339844 "/>
<path style=" stroke:none;fill-rule:nonzero;fill:rgb(100%,84.3%,0%);fill-opacity:1;" d="M 428.410156 232.183594 C 428.410156 236.65625 421.703125 236.65625 421.703125 232.183594 C 421.703125 227.710938 428.410156 227.710938 428.410156 232.183594 "/>
<path style=" stroke:none;fill-rule:nonzero;fill:rgb(100%,84.3%,0%);fill-opacity:1;" d="M 273.441406 232.855469 C 273.441406 237.328125 266.734375 237.328125 266.734375 232.855469 C 266.734375 228.382812 273.441406 228.382812 273.441406 232.855469 "/>
<path style=" stroke:none;fill-rule:nonzero;fill:rgb(100%,84.3%,0%);fill-opacity:1;" d="M 96.335938 265.058594 C 96.335938 269.53125 89.625 269.53125 89.625 265.058594 C 89.625 260.585938 96.335938 260.585938 96.335938 265.058594 "/>
<path style=" stroke:none;fill-rule:nonzero;fill:rgb(100%,84.3%,0%);fill-opacity:1;" d="M 460.613281 206.019531 C 460.613281 210.492188 453.902344 210.492188 453.902344 206.019531 C 453.902344 201.546875 460.613281 201.546875 460.613281 206.019531 "/>
<path style=" stroke:none;fill-rule:nonzero;fill:rgb(100%,84.3%,0%);fill-opacity:1;" d="M 260.695312 184.554688 C 260.695312 189.027344 253.988281 189.027344 253.988281 184.554688 C 253.988281 180.082031 260.695312 180.082031 260.695312 184.554688 "/>
<path style=" stroke:none;fill-rule:nonzero;fill:rgb(100%,84.3%,0%);fill-opacity:1;" d="M 239.898438 177.84375 C 239.898438 182.316406 233.191406 182.316406 233.191406 177.84375 C 233.191406 173.371094 239.898438 173.371094 239.898438 177.84375 "/>
<path style=" stroke:none;fill-rule:nonzero;fill:rgb(100%,84.3%,0%);fill-opacity:1;" d="M 454.574219 260.359375 C 454.574219 264.832031 447.867188 264.832031 447.867188 260.359375 C 447.867188 255.886719 454.574219 255.886719 454.574219 260.359375 "/>
<path style=" stroke:none;fill-rule:nonzero;fill:rgb(100%,84.3%,0%);fill-opacity:1;" d="M 161.410156 236.882812 C 161.410156 241.351562 154.699219 241.351562 154.699219 236.882812 C 154.699219 232.410156 161.410156 232.410156 161.410156 236.882812 "/>
<path style=" stroke:none;fill-rule:nonzero;fill:rgb(100%,84.3%,0%);fill-opacity:1;" d="M 53.398438 277.132812 C 53.398438 281.605469 46.691406 281.605469 46.691406 277.132812 C 46.691406 272.660156 53.398438 272.660156 53.398438 277.132812 "/>
<path style=" stroke:none;fill-rule:nonzero;fill:rgb(100%,84.3%,0%);fill-opacity:1;" d="M 102.375 242.917969 C 102.375 247.390625 95.664062 247.390625 95.664062 242.917969 C 95.664062 238.445312 102.375 238.445312 102.375 242.917969 "/>
<path style=" stroke:none;fill-rule:nonzero;fill:rgb(100%,84.3%,0%);fill-opacity:1;" d="M 203.671875 281.15625 C 203.671875 285.628906 196.964844 285.628906 196.964844 281.15625 C 196.964844 276.683594 203.671875 276.683594 203.671875 281.15625 "/>
<path style=" stroke:none;fill-rule:nonzero;fill:rgb(100%,84.3%,0%);fill-opacity:1;" d="M 353.273438 301.953125 C 353.273438 306.425781 346.566406 306.425781 346.566406 301.953125 C 346.566406 297.480469 353.273438 297.480469 353.273438 301.953125 "/>
<path style=" stroke:none;fill-rule:nonzero;fill:rgb(100%,84.3%,0%);fill-opacity:1;" d="M 62.792969 226.148438 C 62.792969 230.621094 56.082031 230.621094 56.082031 226.148438 C 56.082031 221.675781 62.792969 221.675781 62.792969 226.148438 "/>
<path style=" stroke:none;fill-rule:nonzero;fill:rgb(100%,84.3%,0%);fill-opacity:1;" d="M 376.085938 291.890625 C 376.085938 296.363281 369.375 296.363281 369.375 291.890625 C 369.375 287.417969 376.085938 287.417969 376.085938 291.890625 "/>
<path style=" stroke:none;fill-rule:nonzero;fill:rgb(100%,84.3%,0%);fill-opacity:1;" d="M 219.101562 285.183594 C 219.101562 289.65625 212.394531 289.65625 212.394531 285.183594 C 212.394531 280.710938 219.101562 280.710938 219.101562 285.183594 "/>
<path style=" stroke:none;fill-rule:nonzero;fill:rgb(100%,84.3%,0%);fill-opacity:1;" d="M 196.292969 263.042969 C 196.292969 267.515625 189.585938 267.515625 189.585938 263.042969 C 189.585938 258.570312 196.292969 258.570312 196.292969 263.042969 "/>
<path style=" stroke:none;fill-rule:nonzero;fill:rgb(100%,84.3%,0%);fill-opacity:1;" d="M 129.207031 206.691406 C 129.207031 211.164062 122.5 211.164062 122.5 206.691406 C 122.5 202.21875 129.207031 202.21875 129.207031 206.691406 "/>
<path style=" stroke:none;fill-rule:nonzero;fill:rgb(100%,84.3%,0%);fill-opacity:1;" d="M 123.839844 287.195312 C 123.839844 291.667969 117.132812 291.667969 117.132812 287.195312 C 117.132812 282.722656 123.839844 282.722656 123.839844 287.195312 "/>
<path style=" stroke:none;fill-rule:nonzero;fill:rgb(100%,84.3%,0%);fill-opacity:1;" d="M 114.449219 218.097656 C 114.449219 222.570312 107.738281 222.570312 107.738281 218.097656 C 107.738281 213.625 114.449219 213.625 114.449219 218.097656 "/>
<path style=" stroke:none;fill-rule:nonzero;fill:rgb(100%,84.3%,0%);fill-opacity:1;" d="M 149.332031 191.261719 C 149.332031 195.734375 142.625 195.734375 142.625 191.261719 C 142.625 186.789062 149.332031 186.789062 149.332031 191.261719 "/>
<path style=" stroke:none;fill-rule:nonzero;fill:rgb(100%,84.3%,0%);fill-opacity:1;" d="M 231.179688 170.464844 C 231.179688 174.9375 224.46875 174.9375 224.46875 170.464844 C 224.46875 165.992188 231.179688 165.992188 231.179688 170.464844 "/>
<path style=" stroke:none;fill-rule:nonzero;fill:rgb(100%,84.3%,0%);fill-opacity:1;" d="M 417.007812 240.90625 C 417.007812 245.378906 410.296875 245.378906 410.296875 240.90625 C 410.296875 236.433594 417.007812 236.433594 417.007812 240.90625 "/>
<path style=" stroke:none;fill-rule:nonzero;fill:rgb(100%,84.3%,0%);fill-opacity:1;" d="M 129.207031 299.269531 C 129.207031 303.742188 122.5 303.742188 122.5 299.269531 C 122.5 294.796875 129.207031 294.796875 129.207031 299.269531 "/>
</g>
</svg>
