<?xml version="1.0" encoding="UTF-8"?>
<svg xmlns="http://www.w3.org/2000/svg" xmlns:xlink="http://www.w3.org/1999/xlink" width="512pt" height="512pt" viewBox="0 0 512 512" version="1.1">
<g id="surface186">
<path style=" stroke:none;fill-rule:nonzero;fill:rgb(26.7%,26.7%,26.7%);fill-opacity:1;" d="M 147.613281 0 L 364.386719 0 L 364.386719 512 L 147.613281 512 Z M 147.613281 0 "/>
<path style=" stroke:none;fill-rule:nonzero;fill:rgb(19.2%,38.8%,66.7%);fill-opacity:1;" d="M 165.675781 42.667969 L 346.320312 42.667969 L 346.320312 469.332031 L 165.675781 469.332031 Z M 165.675781 42.667969 "/>
<path style=" stroke:none;fill-rule:nonzero;fill:rgb(100%,100%,100%);fill-opacity:1;" d="M 475.355469 428.042969 C 475.355469 433.777344 466.753906 433.777344 466.753906 428.042969 C 466.753906 422.308594 475.355469 422.308594 475.355469 428.042969 "/>
<path style=" stroke:none;fill-rule:nonzero;fill:rgb(100%,100%,100%);fill-opacity:1;" d="M 237.933594 498.582031 C 237.933594 504.316406 229.332031 504.316406 229.332031 498.582031 C 229.332031 492.847656 237.933594 492.847656 237.933594 498.582031 "/>
<path style=" stroke:none;fill-rule:nonzero;fill:rgb(100%,100%,100%);fill-opacity:1;" d="M 416.859375 421.160156 C 416.859375 426.894531 408.257812 426.894531 408.257812 421.160156 C 408.257812 415.425781 416.859375 415.425781 416.859375 421.160156 "/>
<path style=" stroke:none;fill-rule:nonzero;fill:rgb(100%,100%,100%);fill-opacity:1;" d="M 516.644531 28.902344 C 516.644531 34.636719 508.042969 34.636719 508.042969 28.902344 C 508.042969 23.167969 516.644531 23.167969 516.644531 28.902344 "/>
<path style=" stroke:none;fill-rule:nonzero;fill:rgb(100%,100%,100%);fill-opacity:1;" d="M 388.472656 502.882812 C 388.472656 508.617188 379.871094 508.617188 379.871094 502.882812 C 379.871094 497.148438 388.472656 497.148438 388.472656 502.882812 "/>
<path style=" stroke:none;fill-rule:nonzero;fill:rgb(100%,100%,100%);fill-opacity:1;" d="M 471.914062 29.761719 C 471.914062 35.496094 463.3125 35.496094 463.3125 29.761719 C 463.3125 24.027344 471.914062 24.027344 471.914062 29.761719 "/>
<path style=" stroke:none;fill-rule:nonzero;fill:rgb(100%,100%,100%);fill-opacity:1;" d="M 440.945312 34.925781 C 440.945312 40.660156 432.34375 40.660156 432.34375 34.925781 C 432.34375 29.191406 440.945312 29.191406 440.945312 34.925781 "/>
<path style=" stroke:none;fill-rule:nonzero;fill:rgb(100%,100%,100%);fill-opacity:1;" d="M 512.34375 50.410156 C 512.34375 56.144531 503.742188 56.144531 503.742188 50.410156 C 503.742188 44.675781 512.34375 44.675781 512.34375 50.410156 "/>
<path style=" stroke:none;fill-rule:nonzero;fill:rgb(100%,100%,100%);fill-opacity:1;" d="M 150.191406 393.632812 C 150.191406 399.367188 141.589844 399.367188 141.589844 393.632812 C 141.589844 387.898438 150.191406 387.898438 150.191406 393.632812 "/>
<path style=" stroke:none;fill-rule:nonzero;fill:rgb(100%,100%,100%);fill-opacity:1;" d="M 365.246094 128.6875 C 365.246094 134.421875 356.644531 134.421875 356.644531 128.6875 C 356.644531 122.953125 365.246094 122.953125 365.246094 128.6875 "/>
<path style=" stroke:none;fill-rule:nonzero;fill:rgb(100%,100%,100%);fill-opacity:1;" d="M 282.667969 -2.925781 C 282.667969 2.808594 274.066406 2.808594 274.066406 -2.925781 C 274.066406 -8.660156 282.667969 -8.660156 282.667969 -2.925781 "/>
<path style=" stroke:none;fill-rule:nonzero;fill:rgb(100%,100%,100%);fill-opacity:1;" d="M 514.925781 200.085938 C 514.925781 205.820312 506.324219 205.820312 506.324219 200.085938 C 506.324219 194.351562 514.925781 194.351562 514.925781 200.085938 "/>
<path style=" stroke:none;fill-rule:nonzero;fill:rgb(100%,100%,100%);fill-opacity:1;" d="M 323.957031 30.625 C 323.957031 36.359375 315.355469 36.359375 315.355469 30.625 C 315.355469 24.890625 323.957031 24.890625 323.957031 30.625 "/>
<path style=" stroke:none;fill-rule:nonzero;fill:rgb(100%,100%,100%);fill-opacity:1;" d="M 363.527344 2.238281 C 363.527344 7.972656 354.925781 7.972656 354.925781 2.238281 C 354.925781 -3.496094 363.527344 -3.496094 363.527344 2.238281 "/>
<path style=" stroke:none;fill-rule:nonzero;fill:rgb(100%,100%,100%);fill-opacity:1;" d="M 476.214844 266.324219 C 476.214844 272.058594 467.613281 272.058594 467.613281 266.324219 C 467.613281 260.589844 476.214844 260.589844 476.214844 266.324219 "/>
<path style=" stroke:none;fill-rule:nonzero;fill:rgb(100%,100%,100%);fill-opacity:1;" d="M 488.257812 442.667969 C 488.257812 448.402344 479.65625 448.402344 479.65625 442.667969 C 479.65625 436.933594 488.257812 436.933594 488.257812 442.667969 "/>
<path style=" stroke:none;fill-rule:nonzero;fill:rgb(100%,100%,100%);fill-opacity:1;" d="M 354.0625 458.152344 C 354.0625 463.886719 345.460938 463.886719 345.460938 458.152344 C 345.460938 452.417969 354.0625 452.417969 354.0625 458.152344 "/>
<path style=" stroke:none;fill-rule:nonzero;fill:rgb(100%,100%,100%);fill-opacity:1;" d="M 492.558594 180.300781 C 492.558594 186.035156 483.957031 186.035156 483.957031 180.300781 C 483.957031 174.566406 492.558594 174.566406 492.558594 180.300781 "/>
<path style=" stroke:none;fill-rule:nonzero;fill:rgb(100%,100%,100%);fill-opacity:1;" d="M 502.882812 264.601562 C 502.882812 270.335938 494.28125 270.335938 494.28125 264.601562 C 494.28125 258.867188 502.882812 258.867188 502.882812 264.601562 "/>
<path style=" stroke:none;fill-rule:nonzero;fill:rgb(100%,100%,100%);fill-opacity:1;" d="M 407.398438 158.796875 C 407.398438 164.53125 398.796875 164.53125 398.796875 158.796875 C 398.796875 153.0625 407.398438 153.0625 407.398438 158.796875 "/>
<path style=" stroke:none;fill-rule:nonzero;fill:rgb(100%,100%,100%);fill-opacity:1;" d="M 411.699219 477.074219 C 411.699219 482.808594 403.097656 482.808594 403.097656 477.074219 C 403.097656 471.339844 411.699219 471.339844 411.699219 477.074219 "/>
<path style=" stroke:none;fill-rule:nonzero;fill:rgb(100%,100%,100%);fill-opacity:1;" d="M 396.214844 475.355469 C 396.214844 481.089844 387.613281 481.089844 387.613281 475.355469 C 387.613281 469.621094 396.214844 469.621094 396.214844 475.355469 "/>
<path style=" stroke:none;fill-rule:nonzero;fill:rgb(100%,100%,100%);fill-opacity:1;" d="M 318.796875 496.859375 C 318.796875 502.59375 310.195312 502.59375 310.195312 496.859375 C 310.195312 491.125 318.796875 491.125 318.796875 496.859375 "/>
<path style=" stroke:none;fill-rule:nonzero;fill:rgb(100%,100%,100%);fill-opacity:1;" d="M 490.839844 220.730469 C 490.839844 226.464844 482.238281 226.464844 482.238281 220.730469 C 482.238281 214.996094 490.839844 214.996094 490.839844 220.730469 "/>
<path style=" stroke:none;fill-rule:nonzero;fill:rgb(100%,100%,100%);fill-opacity:1;" d="M 474.496094 191.484375 C 474.496094 197.21875 465.894531 197.21875 465.894531 191.484375 C 465.894531 185.75 474.496094 185.75 474.496094 191.484375 "/>
<path style=" stroke:none;fill-rule:nonzero;fill:rgb(100%,100%,100%);fill-opacity:1;" d="M 149.332031 354.925781 C 149.332031 360.660156 140.730469 360.660156 140.730469 354.925781 C 140.730469 349.191406 149.332031 349.191406 149.332031 354.925781 "/>
<path style=" stroke:none;fill-rule:nonzero;fill:rgb(100%,100%,100%);fill-opacity:1;" d="M 394.496094 129.546875 C 394.496094 135.28125 385.894531 135.28125 385.894531 129.546875 C 385.894531 123.8125 394.496094 123.8125 394.496094 129.546875 "/>
<path style=" stroke:none;fill-rule:nonzero;fill:rgb(100%,100%,100%);fill-opacity:1;" d="M 286.96875 502.023438 C 286.96875 507.757812 278.367188 507.757812 278.367188 502.023438 C 278.367188 496.289062 286.96875 496.289062 286.96875 502.023438 "/>
<path style=" stroke:none;fill-rule:nonzero;fill:rgb(100%,100%,100%);fill-opacity:1;" d="M 475.355469 216.429688 C 475.355469 222.164062 466.753906 222.164062 466.753906 216.429688 C 466.753906 210.695312 475.355469 210.695312 475.355469 216.429688 "/>
<path style=" stroke:none;fill-rule:nonzero;fill:rgb(100%,100%,100%);fill-opacity:1;" d="M 446.96875 212.988281 C 446.96875 218.722656 438.367188 218.722656 438.367188 212.988281 C 438.367188 207.253906 446.96875 207.253906 446.96875 212.988281 "/>
<path style=" stroke:none;fill-rule:nonzero;fill:rgb(100%,100%,100%);fill-opacity:1;" d="M 305.03125 9.976562 C 305.03125 15.710938 296.429688 15.710938 296.429688 9.976562 C 296.429688 4.242188 305.03125 4.242188 305.03125 9.976562 "/>
<path style=" stroke:none;fill-rule:nonzero;fill:rgb(100%,100%,100%);fill-opacity:1;" d="M 157.933594 499.441406 C 157.933594 505.175781 149.332031 505.175781 149.332031 499.441406 C 149.332031 493.707031 157.933594 493.707031 157.933594 499.441406 "/>
<path style=" stroke:none;fill-rule:nonzero;fill:rgb(100%,100%,100%);fill-opacity:1;" d="M 268.902344 512.34375 C 268.902344 518.078125 260.300781 518.078125 260.300781 512.34375 C 260.300781 506.609375 268.902344 506.609375 268.902344 512.34375 "/>
<path style=" stroke:none;fill-rule:nonzero;fill:rgb(100%,100%,100%);fill-opacity:1;" d="M 235.355469 5.675781 C 235.355469 11.410156 226.753906 11.410156 226.753906 5.675781 C 226.753906 -0.0585938 235.355469 -0.0585938 235.355469 5.675781 "/>
<path style=" stroke:none;fill-rule:nonzero;fill:rgb(100%,100%,100%);fill-opacity:1;" d="M 422.882812 21.160156 C 422.882812 26.894531 414.28125 26.894531 414.28125 21.160156 C 414.28125 15.425781 422.882812 15.425781 422.882812 21.160156 "/>
<path style=" stroke:none;fill-rule:nonzero;fill:rgb(100%,100%,100%);fill-opacity:1;" d="M 483.957031 392.773438 C 483.957031 398.507812 475.355469 398.507812 475.355469 392.773438 C 475.355469 387.039062 483.957031 387.039062 483.957031 392.773438 "/>
<path style=" stroke:none;fill-rule:nonzero;fill:rgb(100%,100%,100%);fill-opacity:1;" d="M 416.859375 446.109375 C 416.859375 451.84375 408.257812 451.84375 408.257812 446.109375 C 408.257812 440.375 416.859375 440.375 416.859375 446.109375 "/>
<path style=" stroke:none;fill-rule:nonzero;fill:rgb(100%,100%,100%);fill-opacity:1;" d="M 379.011719 18.582031 C 379.011719 24.316406 370.410156 24.316406 370.410156 18.582031 C 370.410156 12.847656 379.011719 12.847656 379.011719 18.582031 "/>
<path style=" stroke:none;fill-rule:nonzero;fill:rgb(100%,100%,100%);fill-opacity:1;" d="M 447.828125 397.074219 C 447.828125 402.808594 439.226562 402.808594 439.226562 397.074219 C 439.226562 391.339844 447.828125 391.339844 447.828125 397.074219 "/>
<path style=" stroke:none;fill-rule:nonzero;fill:rgb(100%,100%,100%);fill-opacity:1;" d="M 151.914062 325.675781 C 151.914062 331.410156 143.3125 331.410156 143.3125 325.675781 C 143.3125 319.941406 151.914062 319.941406 151.914062 325.675781 "/>
<path style=" stroke:none;fill-rule:nonzero;fill:rgb(100%,100%,100%);fill-opacity:1;" d="M 174.277344 40.085938 C 174.277344 45.820312 165.675781 45.820312 165.675781 40.085938 C 165.675781 34.351562 174.277344 34.351562 174.277344 40.085938 "/>
<path style=" stroke:none;fill-rule:nonzero;fill:rgb(100%,100%,100%);fill-opacity:1;" d="M 387.613281 168.257812 C 387.613281 173.992188 379.011719 173.992188 379.011719 168.257812 C 379.011719 162.523438 387.613281 162.523438 387.613281 168.257812 "/>
<path style=" stroke:none;fill-rule:nonzero;fill:rgb(100%,100%,100%);fill-opacity:1;" d="M 156.214844 240.515625 C 156.214844 246.25 147.613281 246.25 147.613281 240.515625 C 147.613281 234.78125 156.214844 234.78125 156.214844 240.515625 "/>
<path style=" stroke:none;fill-rule:nonzero;fill:rgb(100%,100%,100%);fill-opacity:1;" d="M 379.011719 291.269531 C 379.011719 297.003906 370.410156 297.003906 370.410156 291.269531 C 370.410156 285.535156 379.011719 285.535156 379.011719 291.269531 "/>
<path style=" stroke:none;fill-rule:nonzero;fill:rgb(100%,100%,100%);fill-opacity:1;" d="M 471.914062 145.03125 C 471.914062 150.765625 463.3125 150.765625 463.3125 145.03125 C 463.3125 139.296875 471.914062 139.296875 471.914062 145.03125 "/>
<path style=" stroke:none;fill-rule:nonzero;fill:rgb(100%,100%,100%);fill-opacity:1;" d="M 460.730469 157.074219 C 460.730469 162.808594 452.128906 162.808594 452.128906 157.074219 C 452.128906 151.339844 460.730469 151.339844 460.730469 157.074219 "/>
<path style=" stroke:none;fill-rule:nonzero;fill:rgb(100%,100%,100%);fill-opacity:1;" d="M 399.65625 483.957031 C 399.65625 489.691406 391.054688 489.691406 391.054688 483.957031 C 391.054688 478.222656 399.65625 478.222656 399.65625 483.957031 "/>
<path style=" stroke:none;fill-rule:nonzero;fill:rgb(100%,100%,100%);fill-opacity:1;" d="M 432.34375 137.289062 C 432.34375 143.023438 423.742188 143.023438 423.742188 137.289062 C 423.742188 131.554688 432.34375 131.554688 432.34375 137.289062 "/>
<path style=" stroke:none;fill-rule:nonzero;fill:rgb(100%,100%,100%);fill-opacity:1;" d="M 520.085938 462.453125 C 520.085938 468.1875 511.484375 468.1875 511.484375 462.453125 C 511.484375 456.71875 520.085938 456.71875 520.085938 462.453125 "/>
<path style=" stroke:none;fill-rule:nonzero;fill:rgb(100%,100%,100%);fill-opacity:1;" d="M 462.453125 120.945312 C 462.453125 126.679688 453.851562 126.679688 453.851562 120.945312 C 453.851562 115.210938 462.453125 115.210938 462.453125 120.945312 "/>
<path style=" stroke:none;fill-rule:nonzero;fill:rgb(100%,84.3%,0%);fill-opacity:1;" d="M 336 133.847656 C 336 139.582031 327.398438 139.582031 327.398438 133.847656 C 327.398438 128.113281 336 128.113281 336 133.847656 "/>
<path style=" stroke:none;fill-rule:nonzero;fill:rgb(100%,84.3%,0%);fill-opacity:1;" d="M 330.839844 336 C 330.839844 341.734375 322.238281 341.734375 322.238281 336 C 322.238281 330.265625 330.839844 330.265625 330.839844 336 "/>
<path style=" stroke:none;fill-rule:nonzero;fill:rgb(100%,84.3%,0%);fill-opacity:1;" d="M 333.417969 454.710938 C 333.417969 460.445312 324.816406 460.445312 324.816406 454.710938 C 324.816406 448.976562 333.417969 448.976562 333.417969 454.710938 "/>
<path style=" stroke:none;fill-rule:nonzero;fill:rgb(100%,84.3%,0%);fill-opacity:1;" d="M 323.957031 368.6875 C 323.957031 374.421875 315.355469 374.421875 315.355469 368.6875 C 315.355469 362.953125 323.957031 362.953125 323.957031 368.6875 "/>
<path style=" stroke:none;fill-rule:nonzero;fill:rgb(100%,84.3%,0%);fill-opacity:1;" d="M 241.375 250.839844 C 241.375 256.574219 232.773438 256.574219 232.773438 250.839844 C 232.773438 245.105469 241.375 245.105469 241.375 250.839844 "/>
<path style=" stroke:none;fill-rule:nonzero;fill:rgb(100%,84.3%,0%);fill-opacity:1;" d="M 281.804688 243.957031 C 281.804688 249.691406 273.203125 249.691406 273.203125 243.957031 C 273.203125 238.222656 281.804688 238.222656 281.804688 243.957031 "/>
<path style=" stroke:none;fill-rule:nonzero;fill:rgb(100%,84.3%,0%);fill-opacity:1;" d="M 182.019531 403.097656 C 182.019531 408.832031 173.417969 408.832031 173.417969 403.097656 C 173.417969 397.363281 182.019531 397.363281 182.019531 403.097656 "/>
<path style=" stroke:none;fill-rule:nonzero;fill:rgb(100%,84.3%,0%);fill-opacity:1;" d="M 251.699219 449.546875 C 251.699219 455.28125 243.097656 455.28125 243.097656 449.546875 C 243.097656 443.8125 251.699219 443.8125 251.699219 449.546875 "/>
<path style=" stroke:none;fill-rule:nonzero;fill:rgb(100%,84.3%,0%);fill-opacity:1;" d="M 248.257812 426.324219 C 248.257812 432.058594 239.65625 432.058594 239.65625 426.324219 C 239.65625 420.589844 248.257812 420.589844 248.257812 426.324219 "/>
<path style=" stroke:none;fill-rule:nonzero;fill:rgb(100%,84.3%,0%);fill-opacity:1;" d="M 312.773438 132.988281 C 312.773438 138.722656 304.171875 138.722656 304.171875 132.988281 C 304.171875 127.253906 312.773438 127.253906 312.773438 132.988281 "/>
<path style=" stroke:none;fill-rule:nonzero;fill:rgb(100%,84.3%,0%);fill-opacity:1;" d="M 318.796875 109.761719 C 318.796875 115.496094 310.195312 115.496094 310.195312 109.761719 C 310.195312 104.027344 318.796875 104.027344 318.796875 109.761719 "/>
<path style=" stroke:none;fill-rule:nonzero;fill:rgb(100%,84.3%,0%);fill-opacity:1;" d="M 336 186.324219 C 336 192.058594 327.398438 192.058594 327.398438 186.324219 C 327.398438 180.589844 336 180.589844 336 186.324219 "/>
<path style=" stroke:none;fill-rule:nonzero;fill:rgb(100%,84.3%,0%);fill-opacity:1;" d="M 305.890625 335.140625 C 305.890625 340.875 297.289062 340.875 297.289062 335.140625 C 297.289062 329.40625 305.890625 329.40625 305.890625 335.140625 "/>
<path style=" stroke:none;fill-rule:nonzero;fill:rgb(100%,84.3%,0%);fill-opacity:1;" d="M 247.398438 59.011719 C 247.398438 64.746094 238.796875 64.746094 238.796875 59.011719 C 238.796875 53.277344 247.398438 53.277344 247.398438 59.011719 "/>
<path style=" stroke:none;fill-rule:nonzero;fill:rgb(100%,84.3%,0%);fill-opacity:1;" d="M 179.441406 299.011719 C 179.441406 304.746094 170.839844 304.746094 170.839844 299.011719 C 170.839844 293.277344 179.441406 293.277344 179.441406 299.011719 "/>
<path style=" stroke:none;fill-rule:nonzero;fill:rgb(100%,84.3%,0%);fill-opacity:1;" d="M 237.933594 326.539062 C 237.933594 332.273438 229.332031 332.273438 229.332031 326.539062 C 229.332031 320.804688 237.933594 320.804688 237.933594 326.539062 "/>
<path style=" stroke:none;fill-rule:nonzero;fill:rgb(100%,84.3%,0%);fill-opacity:1;" d="M 187.183594 410.839844 C 187.183594 416.574219 178.582031 416.574219 178.582031 410.839844 C 178.582031 405.105469 187.183594 405.105469 187.183594 410.839844 "/>
<path style=" stroke:none;fill-rule:nonzero;fill:rgb(100%,84.3%,0%);fill-opacity:1;" d="M 320.515625 337.71875 C 320.515625 343.453125 311.914062 343.453125 311.914062 337.71875 C 311.914062 331.984375 320.515625 331.984375 320.515625 337.71875 "/>
<path style=" stroke:none;fill-rule:nonzero;fill:rgb(100%,84.3%,0%);fill-opacity:1;" d="M 295.570312 327.398438 C 295.570312 333.132812 286.96875 333.132812 286.96875 327.398438 C 286.96875 321.664062 295.570312 321.664062 295.570312 327.398438 "/>
<path style=" stroke:none;fill-rule:nonzero;fill:rgb(100%,84.3%,0%);fill-opacity:1;" d="M 216.429688 77.074219 C 216.429688 82.808594 207.828125 82.808594 207.828125 77.074219 C 207.828125 71.339844 216.429688 71.339844 216.429688 77.074219 "/>
<path style=" stroke:none;fill-rule:nonzero;fill:rgb(100%,84.3%,0%);fill-opacity:1;" d="M 188.042969 335.140625 C 188.042969 340.875 179.441406 340.875 179.441406 335.140625 C 179.441406 329.40625 188.042969 329.40625 188.042969 335.140625 "/>
<path style=" stroke:none;fill-rule:nonzero;fill:rgb(100%,84.3%,0%);fill-opacity:1;" d="M 326.539062 308.472656 C 326.539062 314.207031 317.9375 314.207031 317.9375 308.472656 C 317.9375 302.738281 326.539062 302.738281 326.539062 308.472656 "/>
<path style=" stroke:none;fill-rule:nonzero;fill:rgb(100%,84.3%,0%);fill-opacity:1;" d="M 317.074219 57.289062 C 317.074219 63.023438 308.472656 63.023438 308.472656 57.289062 C 308.472656 51.554688 317.074219 51.554688 317.074219 57.289062 "/>
<path style=" stroke:none;fill-rule:nonzero;fill:rgb(100%,84.3%,0%);fill-opacity:1;" d="M 225.890625 240.515625 C 225.890625 246.25 217.289062 246.25 217.289062 240.515625 C 217.289062 234.78125 225.890625 234.78125 225.890625 240.515625 "/>
<path style=" stroke:none;fill-rule:nonzero;fill:rgb(100%,84.3%,0%);fill-opacity:1;" d="M 201.804688 326.539062 C 201.804688 332.273438 193.203125 332.273438 193.203125 326.539062 C 193.203125 320.804688 201.804688 320.804688 201.804688 326.539062 "/>
<path style=" stroke:none;fill-rule:nonzero;fill:rgb(100%,84.3%,0%);fill-opacity:1;" d="M 258.582031 119.226562 C 258.582031 124.960938 249.980469 124.960938 249.980469 119.226562 C 249.980469 113.492188 258.582031 113.492188 258.582031 119.226562 "/>
<path style=" stroke:none;fill-rule:nonzero;fill:rgb(100%,84.3%,0%);fill-opacity:1;" d="M 336.859375 292.128906 C 336.859375 297.863281 328.257812 297.863281 328.257812 292.128906 C 328.257812 286.394531 336.859375 286.394531 336.859375 292.128906 "/>
<path style=" stroke:none;fill-rule:nonzero;fill:rgb(100%,84.3%,0%);fill-opacity:1;" d="M 189.761719 247.398438 C 189.761719 253.132812 181.160156 253.132812 181.160156 247.398438 C 181.160156 241.664062 189.761719 241.664062 189.761719 247.398438 "/>
<path style=" stroke:none;fill-rule:nonzero;fill:rgb(100%,84.3%,0%);fill-opacity:1;" d="M 268.042969 160.515625 C 268.042969 166.25 259.441406 166.25 259.441406 160.515625 C 259.441406 154.78125 268.042969 154.78125 268.042969 160.515625 "/>
<path style=" stroke:none;fill-rule:nonzero;fill:rgb(100%,84.3%,0%);fill-opacity:1;" d="M 301.589844 133.847656 C 301.589844 139.582031 292.988281 139.582031 292.988281 133.847656 C 292.988281 128.113281 301.589844 128.113281 301.589844 133.847656 "/>
<path style=" stroke:none;fill-rule:nonzero;fill:rgb(100%,84.3%,0%);fill-opacity:1;" d="M 287.828125 117.503906 C 287.828125 123.238281 279.226562 123.238281 279.226562 117.503906 C 279.226562 111.769531 287.828125 111.769531 287.828125 117.503906 "/>
<path style=" stroke:none;fill-rule:nonzero;fill:rgb(100%,84.3%,0%);fill-opacity:1;" d="M 268.902344 121.804688 C 268.902344 127.539062 260.300781 127.539062 260.300781 121.804688 C 260.300781 116.070312 268.902344 116.070312 268.902344 121.804688 "/>
<path style=" stroke:none;fill-rule:nonzero;fill:rgb(100%,84.3%,0%);fill-opacity:1;" d="M 212.988281 213.847656 C 212.988281 219.582031 204.386719 219.582031 204.386719 213.847656 C 204.386719 208.113281 212.988281 208.113281 212.988281 213.847656 "/>
<path style=" stroke:none;fill-rule:nonzero;fill:rgb(100%,84.3%,0%);fill-opacity:1;" d="M 278.367188 417.71875 C 278.367188 423.453125 269.765625 423.453125 269.765625 417.71875 C 269.765625 411.984375 278.367188 411.984375 278.367188 417.71875 "/>
<path style=" stroke:none;fill-rule:nonzero;fill:rgb(100%,84.3%,0%);fill-opacity:1;" d="M 182.882812 56.429688 C 182.882812 62.164062 174.28125 62.164062 174.28125 56.429688 C 174.28125 50.695312 182.882812 50.695312 182.882812 56.429688 "/>
<path style=" stroke:none;fill-rule:nonzero;fill:rgb(100%,84.3%,0%);fill-opacity:1;" d="M 323.097656 284.386719 C 323.097656 290.121094 314.496094 290.121094 314.496094 284.386719 C 314.496094 278.652344 323.097656 278.652344 323.097656 284.386719 "/>
<path style=" stroke:none;fill-rule:nonzero;fill:rgb(100%,84.3%,0%);fill-opacity:1;" d="M 226.753906 210.410156 C 226.753906 216.144531 218.152344 216.144531 218.152344 210.410156 C 218.152344 204.675781 226.753906 204.675781 226.753906 210.410156 "/>
<path style=" stroke:none;fill-rule:nonzero;fill:rgb(100%,84.3%,0%);fill-opacity:1;" d="M 185.460938 441.804688 C 185.460938 447.539062 176.859375 447.539062 176.859375 441.804688 C 176.859375 436.070312 185.460938 436.070312 185.460938 441.804688 "/>
<path style=" stroke:none;fill-rule:nonzero;fill:rgb(100%,84.3%,0%);fill-opacity:1;" d="M 206.105469 458.152344 C 206.105469 463.886719 197.503906 463.886719 197.503906 458.152344 C 197.503906 452.417969 206.105469 452.417969 206.105469 458.152344 "/>
<path style=" stroke:none;fill-rule:nonzero;fill:rgb(100%,84.3%,0%);fill-opacity:1;" d="M 211.269531 182.882812 C 211.269531 188.617188 202.667969 188.617188 202.667969 182.882812 C 202.667969 177.148438 211.269531 177.148438 211.269531 182.882812 "/>
<path style=" stroke:none;fill-rule:nonzero;fill:rgb(100%,84.3%,0%);fill-opacity:1;" d="M 217.289062 134.710938 C 217.289062 140.445312 208.6875 140.445312 208.6875 134.710938 C 208.6875 128.976562 217.289062 128.976562 217.289062 134.710938 "/>
<path style=" stroke:none;fill-rule:nonzero;fill:rgb(100%,84.3%,0%);fill-opacity:1;" d="M 290.410156 52.128906 C 290.410156 57.863281 281.808594 57.863281 281.808594 52.128906 C 281.808594 46.394531 290.410156 46.394531 290.410156 52.128906 "/>
<path style=" stroke:none;fill-rule:nonzero;fill:rgb(100%,84.3%,0%);fill-opacity:1;" d="M 317.074219 443.527344 C 317.074219 449.261719 308.472656 449.261719 308.472656 443.527344 C 308.472656 437.792969 317.074219 437.792969 317.074219 443.527344 "/>
<path style=" stroke:none;fill-rule:nonzero;fill:rgb(100%,84.3%,0%);fill-opacity:1;" d="M 311.054688 350.625 C 311.054688 356.359375 302.453125 356.359375 302.453125 350.625 C 302.453125 344.890625 311.054688 344.890625 311.054688 350.625 "/>
<path style=" stroke:none;fill-rule:nonzero;fill:rgb(100%,84.3%,0%);fill-opacity:1;" d="M 333.417969 244.816406 C 333.417969 250.550781 324.816406 250.550781 324.816406 244.816406 C 324.816406 239.082031 333.417969 239.082031 333.417969 244.816406 "/>
<path style=" stroke:none;fill-rule:nonzero;fill:rgb(100%,84.3%,0%);fill-opacity:1;" d="M 212.988281 120.945312 C 212.988281 126.679688 204.386719 126.679688 204.386719 120.945312 C 204.386719 115.210938 212.988281 115.210938 212.988281 120.945312 "/>
<path style=" stroke:none;fill-rule:nonzero;fill:rgb(100%,84.3%,0%);fill-opacity:1;" d="M 262.019531 288.6875 C 262.019531 294.421875 253.417969 294.421875 253.417969 288.6875 C 253.417969 282.953125 262.019531 282.953125 262.019531 288.6875 "/>
<path style=" stroke:none;fill-rule:nonzero;fill:rgb(100%,84.3%,0%);fill-opacity:1;" d="M 261.160156 406.539062 C 261.160156 412.273438 252.558594 412.273438 252.558594 406.539062 C 252.558594 400.804688 261.160156 400.804688 261.160156 406.539062 "/>
<path style=" stroke:none;fill-rule:nonzero;fill:rgb(100%,84.3%,0%);fill-opacity:1;" d="M 341.160156 165.675781 C 341.160156 171.410156 332.558594 171.410156 332.558594 165.675781 C 332.558594 159.941406 341.160156 159.941406 341.160156 165.675781 "/>
<path style=" stroke:none;fill-rule:nonzero;fill:rgb(100%,84.3%,0%);fill-opacity:1;" d="M 182.882812 287.828125 C 182.882812 293.5625 174.28125 293.5625 174.28125 287.828125 C 174.28125 282.09375 182.882812 282.09375 182.882812 287.828125 "/>
<path style=" stroke:none;fill-rule:nonzero;fill:rgb(100%,84.3%,0%);fill-opacity:1;" d="M 273.203125 458.152344 C 273.203125 463.886719 264.601562 463.886719 264.601562 458.152344 C 264.601562 452.417969 273.203125 452.417969 273.203125 458.152344 "/>
<path style=" stroke:none;fill-rule:nonzero;fill:rgb(100%,84.3%,0%);fill-opacity:1;" d="M 226.753906 200.945312 C 226.753906 206.679688 218.152344 206.679688 218.152344 200.945312 C 218.152344 195.210938 226.753906 195.210938 226.753906 200.945312 "/>
<path style=" stroke:none;fill-rule:nonzero;fill:rgb(100%,84.3%,0%);fill-opacity:1;" d="M 205.246094 338.582031 C 205.246094 344.316406 196.644531 344.316406 196.644531 338.582031 C 196.644531 332.847656 205.246094 332.847656 205.246094 338.582031 "/>
<path style=" stroke:none;fill-rule:nonzero;fill:rgb(100%,84.3%,0%);fill-opacity:1;" d="M 308.472656 451.269531 C 308.472656 457.003906 299.871094 457.003906 299.871094 451.269531 C 299.871094 445.535156 308.472656 445.535156 308.472656 451.269531 "/>
<path style=" stroke:none;fill-rule:nonzero;fill:rgb(100%,84.3%,0%);fill-opacity:1;" d="M 206.105469 289.546875 C 206.105469 295.28125 197.503906 295.28125 197.503906 289.546875 C 197.503906 283.8125 206.105469 283.8125 206.105469 289.546875 "/>
<path style=" stroke:none;fill-rule:nonzero;fill:rgb(100%,84.3%,0%);fill-opacity:1;" d="M 181.160156 77.933594 C 181.160156 83.667969 172.558594 83.667969 172.558594 77.933594 C 172.558594 72.199219 181.160156 72.199219 181.160156 77.933594 "/>
<path style=" stroke:none;fill-rule:nonzero;fill:rgb(100%,84.3%,0%);fill-opacity:1;" d="M 275.785156 211.269531 C 275.785156 217.003906 267.183594 217.003906 267.183594 211.269531 C 267.183594 205.535156 275.785156 205.535156 275.785156 211.269531 "/>
<path style=" stroke:none;fill-rule:nonzero;fill:rgb(100%,84.3%,0%);fill-opacity:1;" d="M 194.925781 163.097656 C 194.925781 168.832031 186.324219 168.832031 186.324219 163.097656 C 186.324219 157.363281 194.925781 157.363281 194.925781 163.097656 "/>
<path style=" stroke:none;fill-rule:nonzero;fill:rgb(100%,84.3%,0%);fill-opacity:1;" d="M 337.71875 88.257812 C 337.71875 93.992188 329.117188 93.992188 329.117188 88.257812 C 329.117188 82.523438 337.71875 82.523438 337.71875 88.257812 "/>
<path style=" stroke:none;fill-rule:nonzero;fill:rgb(100%,84.3%,0%);fill-opacity:1;" d="M 190.625 127.828125 C 190.625 133.5625 182.023438 133.5625 182.023438 127.828125 C 182.023438 122.09375 190.625 122.09375 190.625 127.828125 "/>
<path style=" stroke:none;fill-rule:nonzero;fill:rgb(100%,84.3%,0%);fill-opacity:1;" d="M 293.847656 460.730469 C 293.847656 466.464844 285.246094 466.464844 285.246094 460.730469 C 285.246094 454.996094 293.847656 454.996094 293.847656 460.730469 "/>
<path style=" stroke:none;fill-rule:nonzero;fill:rgb(100%,84.3%,0%);fill-opacity:1;" d="M 306.753906 434.925781 C 306.753906 440.660156 298.152344 440.660156 298.152344 434.925781 C 298.152344 429.191406 306.753906 429.191406 306.753906 434.925781 "/>
<path style=" stroke:none;fill-rule:nonzero;fill:rgb(100%,84.3%,0%);fill-opacity:1;" d="M 236.214844 185.460938 C 236.214844 191.195312 227.613281 191.195312 227.613281 185.460938 C 227.613281 179.726562 236.214844 179.726562 236.214844 185.460938 "/>
<path style=" stroke:none;fill-rule:nonzero;fill:rgb(100%,84.3%,0%);fill-opacity:1;" d="M 219.011719 298.152344 C 219.011719 303.886719 210.410156 303.886719 210.410156 298.152344 C 210.410156 292.417969 219.011719 292.417969 219.011719 298.152344 "/>
<path style=" stroke:none;fill-rule:nonzero;fill:rgb(100%,84.3%,0%);fill-opacity:1;" d="M 239.65625 291.269531 C 239.65625 297.003906 231.054688 297.003906 231.054688 291.269531 C 231.054688 285.535156 239.65625 285.535156 239.65625 291.269531 "/>
<path style=" stroke:none;fill-rule:nonzero;fill:rgb(100%,84.3%,0%);fill-opacity:1;" d="M 180.300781 109.761719 C 180.300781 115.496094 171.699219 115.496094 171.699219 109.761719 C 171.699219 104.027344 180.300781 104.027344 180.300781 109.761719 "/>
<path style=" stroke:none;fill-rule:nonzero;fill:rgb(100%,84.3%,0%);fill-opacity:1;" d="M 272.34375 440.945312 C 272.34375 446.679688 263.742188 446.679688 263.742188 440.945312 C 263.742188 435.210938 272.34375 435.210938 272.34375 440.945312 "/>
<path style=" stroke:none;fill-rule:nonzero;fill:rgb(100%,84.3%,0%);fill-opacity:1;" d="M 179.441406 375.570312 C 179.441406 381.304688 170.839844 381.304688 170.839844 375.570312 C 170.839844 369.835938 179.441406 369.835938 179.441406 375.570312 "/>
<path style=" stroke:none;fill-rule:nonzero;fill:rgb(100%,84.3%,0%);fill-opacity:1;" d="M 322.234375 136.429688 C 322.234375 142.164062 313.632812 142.164062 313.632812 136.429688 C 313.632812 130.695312 322.234375 130.695312 322.234375 136.429688 "/>
<path style=" stroke:none;fill-rule:nonzero;fill:rgb(100%,84.3%,0%);fill-opacity:1;" d="M 311.914062 173.417969 C 311.914062 179.152344 303.3125 179.152344 303.3125 173.417969 C 303.3125 167.683594 311.914062 167.683594 311.914062 173.417969 "/>
<path style=" stroke:none;fill-rule:nonzero;fill:rgb(100%,84.3%,0%);fill-opacity:1;" d="M 242.234375 222.453125 C 242.234375 228.1875 233.632812 228.1875 233.632812 222.453125 C 233.632812 216.71875 242.234375 216.71875 242.234375 222.453125 "/>
<path style=" stroke:none;fill-rule:nonzero;fill:rgb(100%,84.3%,0%);fill-opacity:1;" d="M 271.484375 172.558594 C 271.484375 178.292969 262.882812 178.292969 262.882812 172.558594 C 262.882812 166.824219 271.484375 166.824219 271.484375 172.558594 "/>
<path style=" stroke:none;fill-rule:nonzero;fill:rgb(100%,84.3%,0%);fill-opacity:1;" d="M 241.375 209.546875 C 241.375 215.28125 232.773438 215.28125 232.773438 209.546875 C 232.773438 203.8125 241.375 203.8125 241.375 209.546875 "/>
<path style=" stroke:none;fill-rule:nonzero;fill:rgb(100%,84.3%,0%);fill-opacity:1;" d="M 257.71875 188.042969 C 257.71875 193.777344 249.117188 193.777344 249.117188 188.042969 C 249.117188 182.308594 257.71875 182.308594 257.71875 188.042969 "/>
<path style=" stroke:none;fill-rule:nonzero;fill:rgb(100%,84.3%,0%);fill-opacity:1;" d="M 267.183594 428.042969 C 267.183594 433.777344 258.582031 433.777344 258.582031 428.042969 C 258.582031 422.308594 267.183594 422.308594 267.183594 428.042969 "/>
<path style=" stroke:none;fill-rule:nonzero;fill:rgb(100%,84.3%,0%);fill-opacity:1;" d="M 197.503906 90.839844 C 197.503906 96.574219 188.902344 96.574219 188.902344 90.839844 C 188.902344 85.105469 197.503906 85.105469 197.503906 90.839844 "/>
<path style=" stroke:none;fill-rule:nonzero;fill:rgb(100%,84.3%,0%);fill-opacity:1;" d="M 340.300781 396.214844 C 340.300781 401.949219 331.699219 401.949219 331.699219 396.214844 C 331.699219 390.480469 340.300781 390.480469 340.300781 396.214844 "/>
<path style=" stroke:none;fill-rule:nonzero;fill:rgb(100%,84.3%,0%);fill-opacity:1;" d="M 273.203125 80.515625 C 273.203125 86.25 264.601562 86.25 264.601562 80.515625 C 264.601562 74.78125 273.203125 74.78125 273.203125 80.515625 "/>
<path style=" stroke:none;fill-rule:nonzero;fill:rgb(100%,84.3%,0%);fill-opacity:1;" d="M 258.582031 100.300781 C 258.582031 106.035156 249.980469 106.035156 249.980469 100.300781 C 249.980469 94.566406 258.582031 94.566406 258.582031 100.300781 "/>
<path style=" stroke:none;fill-rule:nonzero;fill:rgb(100%,84.3%,0%);fill-opacity:1;" d="M 292.988281 448.6875 C 292.988281 454.421875 284.386719 454.421875 284.386719 448.6875 C 284.386719 442.953125 292.988281 442.953125 292.988281 448.6875 "/>
<path style=" stroke:none;fill-rule:nonzero;fill:rgb(100%,84.3%,0%);fill-opacity:1;" d="M 287.828125 107.183594 C 287.828125 112.917969 279.226562 112.917969 279.226562 107.183594 C 279.226562 101.449219 287.828125 101.449219 287.828125 107.183594 "/>
<path style=" stroke:none;fill-rule:nonzero;fill:rgb(100%,84.3%,0%);fill-opacity:1;" d="M 226.753906 380.730469 C 226.753906 386.464844 218.152344 386.464844 218.152344 380.730469 C 218.152344 374.996094 226.753906 374.996094 226.753906 380.730469 "/>
<path style=" stroke:none;fill-rule:nonzero;fill:rgb(100%,84.3%,0%);fill-opacity:1;" d="M 270.625 231.914062 C 270.625 237.648438 262.023438 237.648438 262.023438 231.914062 C 262.023438 226.179688 270.625 226.179688 270.625 231.914062 "/>
<path style=" stroke:none;fill-rule:nonzero;fill:rgb(100%,84.3%,0%);fill-opacity:1;" d="M 262.019531 390.195312 C 262.019531 395.929688 253.417969 395.929688 253.417969 390.195312 C 253.417969 384.460938 262.019531 384.460938 262.019531 390.195312 "/>
<path style=" stroke:none;fill-rule:nonzero;fill:rgb(100%,84.3%,0%);fill-opacity:1;" d="M 185.460938 452.128906 C 185.460938 457.863281 176.859375 457.863281 176.859375 452.128906 C 176.859375 446.394531 185.460938 446.394531 185.460938 452.128906 "/>
<path style=" stroke:none;fill-rule:nonzero;fill:rgb(100%,84.3%,0%);fill-opacity:1;" d="M 241.375 274.066406 C 241.375 279.800781 232.773438 279.800781 232.773438 274.066406 C 232.773438 268.332031 241.375 268.332031 241.375 274.066406 "/>
<path style=" stroke:none;fill-rule:nonzero;fill:rgb(100%,84.3%,0%);fill-opacity:1;" d="M 218.148438 307.613281 C 218.148438 313.347656 209.546875 313.347656 209.546875 307.613281 C 209.546875 301.878906 218.148438 301.878906 218.148438 307.613281 "/>
<path style=" stroke:none;fill-rule:nonzero;fill:rgb(100%,84.3%,0%);fill-opacity:1;" d="M 292.128906 416.859375 C 292.128906 422.59375 283.527344 422.59375 283.527344 416.859375 C 283.527344 411.125 292.128906 411.125 292.128906 416.859375 "/>
<path style=" stroke:none;fill-rule:nonzero;fill:rgb(100%,84.3%,0%);fill-opacity:1;" d="M 342.019531 411.699219 C 342.019531 417.433594 333.417969 417.433594 333.417969 411.699219 C 333.417969 405.964844 342.019531 405.964844 342.019531 411.699219 "/>
<path style=" stroke:none;fill-rule:nonzero;fill:rgb(100%,84.3%,0%);fill-opacity:1;" d="M 186.324219 262.023438 C 186.324219 267.757812 177.722656 267.757812 177.722656 262.023438 C 177.722656 256.289062 186.324219 256.289062 186.324219 262.023438 "/>
<path style=" stroke:none;fill-rule:nonzero;fill:rgb(100%,84.3%,0%);fill-opacity:1;" d="M 312.773438 223.3125 C 312.773438 229.046875 304.171875 229.046875 304.171875 223.3125 C 304.171875 217.578125 312.773438 217.578125 312.773438 223.3125 "/>
<path style=" stroke:none;fill-rule:nonzero;fill:rgb(100%,84.3%,0%);fill-opacity:1;" d="M 278.367188 349.761719 C 278.367188 355.496094 269.765625 355.496094 269.765625 349.761719 C 269.765625 344.027344 278.367188 344.027344 278.367188 349.761719 "/>
<path style=" stroke:none;fill-rule:nonzero;fill:rgb(100%,84.3%,0%);fill-opacity:1;" d="M 283.527344 225.890625 C 283.527344 231.625 274.925781 231.625 274.925781 225.890625 C 274.925781 220.15625 283.527344 220.15625 283.527344 225.890625 "/>
<path style=" stroke:none;fill-rule:nonzero;fill:rgb(100%,84.3%,0%);fill-opacity:1;" d="M 337.71875 107.183594 C 337.71875 112.917969 329.117188 112.917969 329.117188 107.183594 C 329.117188 101.449219 337.71875 101.449219 337.71875 107.183594 "/>
<path style=" stroke:none;fill-rule:nonzero;fill:rgb(100%,84.3%,0%);fill-opacity:1;" d="M 311.054688 88.257812 C 311.054688 93.992188 302.453125 93.992188 302.453125 88.257812 C 302.453125 82.523438 311.054688 82.523438 311.054688 88.257812 "/>
<path style=" stroke:none;fill-rule:nonzero;fill:rgb(100%,84.3%,0%);fill-opacity:1;" d="M 328.257812 96.859375 C 328.257812 102.59375 319.65625 102.59375 319.65625 96.859375 C 319.65625 91.125 328.257812 91.125 328.257812 96.859375 "/>
<path style=" stroke:none;fill-rule:nonzero;fill:rgb(100%,84.3%,0%);fill-opacity:1;" d="M 338.582031 59.011719 C 338.582031 64.746094 329.980469 64.746094 329.980469 59.011719 C 329.980469 53.277344 338.582031 53.277344 338.582031 59.011719 "/>
<path style=" stroke:none;fill-rule:nonzero;fill:rgb(100%,84.3%,0%);fill-opacity:1;" d="M 262.882812 206.109375 C 262.882812 211.84375 254.28125 211.84375 254.28125 206.109375 C 254.28125 200.375 262.882812 200.375 262.882812 206.109375 "/>
<path style=" stroke:none;fill-rule:nonzero;fill:rgb(100%,84.3%,0%);fill-opacity:1;" d="M 293.847656 305.890625 C 293.847656 311.625 285.246094 311.625 285.246094 305.890625 C 285.246094 300.15625 293.847656 300.15625 293.847656 305.890625 "/>
<path style=" stroke:none;fill-rule:nonzero;fill:rgb(100%,84.3%,0%);fill-opacity:1;" d="M 263.742188 451.269531 C 263.742188 457.003906 255.140625 457.003906 255.140625 451.269531 C 255.140625 445.535156 263.742188 445.535156 263.742188 451.269531 "/>
<path style=" stroke:none;fill-rule:nonzero;fill:rgb(100%,84.3%,0%);fill-opacity:1;" d="M 216.429688 259.441406 C 216.429688 265.175781 207.828125 265.175781 207.828125 259.441406 C 207.828125 253.707031 216.429688 253.707031 216.429688 259.441406 "/>
<path style=" stroke:none;fill-rule:nonzero;fill:rgb(100%,84.3%,0%);fill-opacity:1;" d="M 299.871094 86.539062 C 299.871094 92.273438 291.269531 92.273438 291.269531 86.539062 C 291.269531 80.804688 299.871094 80.804688 299.871094 86.539062 "/>
<path style=" stroke:none;fill-rule:nonzero;fill:rgb(100%,84.3%,0%);fill-opacity:1;" d="M 301.589844 151.914062 C 301.589844 157.648438 292.988281 157.648438 292.988281 151.914062 C 292.988281 146.179688 301.589844 146.179688 301.589844 151.914062 "/>
<path style=" stroke:none;fill-rule:nonzero;fill:rgb(100%,84.3%,0%);fill-opacity:1;" d="M 247.398438 387.613281 C 247.398438 393.347656 238.796875 393.347656 238.796875 387.613281 C 238.796875 381.878906 247.398438 381.878906 247.398438 387.613281 "/>
<path style=" stroke:none;fill-rule:nonzero;fill:rgb(100%,84.3%,0%);fill-opacity:1;" d="M 271.484375 102.023438 C 271.484375 107.757812 262.882812 107.757812 262.882812 102.023438 C 262.882812 96.289062 271.484375 96.289062 271.484375 102.023438 "/>
<path style=" stroke:none;fill-rule:nonzero;fill:rgb(100%,84.3%,0%);fill-opacity:1;" d="M 186.324219 353.203125 C 186.324219 358.9375 177.722656 358.9375 177.722656 353.203125 C 177.722656 347.46875 186.324219 347.46875 186.324219 353.203125 "/>
<path style=" stroke:none;fill-rule:nonzero;fill:rgb(100%,84.3%,0%);fill-opacity:1;" d="M 255.140625 171.699219 C 255.140625 177.433594 246.539062 177.433594 246.539062 171.699219 C 246.539062 165.964844 255.140625 165.964844 255.140625 171.699219 "/>
<path style=" stroke:none;fill-rule:nonzero;fill:rgb(100%,84.3%,0%);fill-opacity:1;" d="M 179.441406 310.195312 C 179.441406 315.929688 170.839844 315.929688 170.839844 310.195312 C 170.839844 304.460938 179.441406 304.460938 179.441406 310.195312 "/>
<path style=" stroke:none;fill-rule:nonzero;fill:rgb(100%,84.3%,0%);fill-opacity:1;" d="M 341.160156 425.460938 C 341.160156 431.195312 332.558594 431.195312 332.558594 425.460938 C 332.558594 419.726562 341.160156 419.726562 341.160156 425.460938 "/>
<path style=" stroke:none;fill-rule:nonzero;fill:rgb(100%,84.3%,0%);fill-opacity:1;" d="M 275.785156 146.753906 C 275.785156 152.488281 267.183594 152.488281 267.183594 146.753906 C 267.183594 141.019531 275.785156 141.019531 275.785156 146.753906 "/>
<path style=" stroke:none;fill-rule:nonzero;fill:rgb(100%,84.3%,0%);fill-opacity:1;" d="M 237.074219 176.859375 C 237.074219 182.59375 228.472656 182.59375 228.472656 176.859375 C 228.472656 171.125 237.074219 171.125 237.074219 176.859375 "/>
<path style=" stroke:none;fill-rule:nonzero;fill:rgb(100%,84.3%,0%);fill-opacity:1;" d="M 251.699219 397.074219 C 251.699219 402.808594 243.097656 402.808594 243.097656 397.074219 C 243.097656 391.339844 251.699219 391.339844 251.699219 397.074219 "/>
<path style=" stroke:none;fill-rule:nonzero;fill:rgb(100%,84.3%,0%);fill-opacity:1;" d="M 278.367188 68.472656 C 278.367188 74.207031 269.765625 74.207031 269.765625 68.472656 C 269.765625 62.738281 278.367188 62.738281 278.367188 68.472656 "/>
<path style=" stroke:none;fill-rule:nonzero;fill:rgb(100%,84.3%,0%);fill-opacity:1;" d="M 284.386719 308.472656 C 284.386719 314.207031 275.785156 314.207031 275.785156 308.472656 C 275.785156 302.738281 284.386719 302.738281 284.386719 308.472656 "/>
<path style=" stroke:none;fill-rule:nonzero;fill:rgb(100%,84.3%,0%);fill-opacity:1;" d="M 225.03125 316.214844 C 225.03125 321.949219 216.429688 321.949219 216.429688 316.214844 C 216.429688 310.480469 225.03125 310.480469 225.03125 316.214844 "/>
<path style=" stroke:none;fill-rule:nonzero;fill:rgb(100%,84.3%,0%);fill-opacity:1;" d="M 303.3125 225.890625 C 303.3125 231.625 294.710938 231.625 294.710938 225.890625 C 294.710938 220.15625 303.3125 220.15625 303.3125 225.890625 "/>
<path style=" stroke:none;fill-rule:nonzero;fill:rgb(100%,84.3%,0%);fill-opacity:1;" d="M 286.96875 359.226562 C 286.96875 364.960938 278.367188 364.960938 278.367188 359.226562 C 278.367188 353.492188 286.96875 353.492188 286.96875 359.226562 "/>
<path style=" stroke:none;fill-rule:nonzero;fill:rgb(100%,84.3%,0%);fill-opacity:1;" d="M 266.324219 256.859375 C 266.324219 262.59375 257.722656 262.59375 257.722656 256.859375 C 257.722656 251.125 266.324219 251.125 266.324219 256.859375 "/>
<path style=" stroke:none;fill-rule:nonzero;fill:rgb(100%,84.3%,0%);fill-opacity:1;" d="M 205.246094 250.839844 C 205.246094 256.574219 196.644531 256.574219 196.644531 250.839844 C 196.644531 245.105469 205.246094 245.105469 205.246094 250.839844 "/>
<path style=" stroke:none;fill-rule:nonzero;fill:rgb(100%,84.3%,0%);fill-opacity:1;" d="M 335.140625 154.496094 C 335.140625 160.230469 326.539062 160.230469 326.539062 154.496094 C 326.539062 148.761719 335.140625 148.761719 335.140625 154.496094 "/>
<path style=" stroke:none;fill-rule:nonzero;fill:rgb(100%,84.3%,0%);fill-opacity:1;" d="M 188.902344 104.601562 C 188.902344 110.335938 180.300781 110.335938 180.300781 104.601562 C 180.300781 98.867188 188.902344 98.867188 188.902344 104.601562 "/>
<path style=" stroke:none;fill-rule:nonzero;fill:rgb(100%,84.3%,0%);fill-opacity:1;" d="M 209.546875 200.945312 C 209.546875 206.679688 200.945312 206.679688 200.945312 200.945312 C 200.945312 195.210938 209.546875 195.210938 209.546875 200.945312 "/>
<path style=" stroke:none;fill-rule:nonzero;fill:rgb(100%,84.3%,0%);fill-opacity:1;" d="M 325.675781 185.460938 C 325.675781 191.195312 317.074219 191.195312 317.074219 185.460938 C 317.074219 179.726562 325.675781 179.726562 325.675781 185.460938 "/>
<path style=" stroke:none;fill-rule:nonzero;fill:rgb(100%,84.3%,0%);fill-opacity:1;" d="M 195.785156 280.085938 C 195.785156 285.820312 187.183594 285.820312 187.183594 280.085938 C 187.183594 274.351562 195.785156 274.351562 195.785156 280.085938 "/>
<path style=" stroke:none;fill-rule:nonzero;fill:rgb(100%,84.3%,0%);fill-opacity:1;" d="M 216.429688 459.011719 C 216.429688 464.746094 207.828125 464.746094 207.828125 459.011719 C 207.828125 453.277344 216.429688 453.277344 216.429688 459.011719 "/>
<path style=" stroke:none;fill-rule:nonzero;fill:rgb(100%,84.3%,0%);fill-opacity:1;" d="M 201.804688 397.933594 C 201.804688 403.667969 193.203125 403.667969 193.203125 397.933594 C 193.203125 392.199219 201.804688 392.199219 201.804688 397.933594 "/>
<path style=" stroke:none;fill-rule:nonzero;fill:rgb(100%,84.3%,0%);fill-opacity:1;" d="M 305.03125 410.839844 C 305.03125 416.574219 296.429688 416.574219 296.429688 410.839844 C 296.429688 405.105469 305.03125 405.105469 305.03125 410.839844 "/>
<path style=" stroke:none;fill-rule:nonzero;fill:rgb(100%,84.3%,0%);fill-opacity:1;" d="M 255.140625 354.925781 C 255.140625 360.660156 246.539062 360.660156 246.539062 354.925781 C 246.539062 349.191406 255.140625 349.191406 255.140625 354.925781 "/>
<path style=" stroke:none;fill-rule:nonzero;fill:rgb(100%,84.3%,0%);fill-opacity:1;" d="M 208.6875 417.71875 C 208.6875 423.453125 200.085938 423.453125 200.085938 417.71875 C 200.085938 411.984375 208.6875 411.984375 208.6875 417.71875 "/>
<path style=" stroke:none;fill-rule:nonzero;fill:rgb(100%,84.3%,0%);fill-opacity:1;" d="M 311.054688 117.503906 C 311.054688 123.238281 302.453125 123.238281 302.453125 117.503906 C 302.453125 111.769531 311.054688 111.769531 311.054688 117.503906 "/>
<path style=" stroke:none;fill-rule:nonzero;fill:rgb(100%,84.3%,0%);fill-opacity:1;" d="M 315.355469 190.625 C 315.355469 196.359375 306.753906 196.359375 306.753906 190.625 C 306.753906 184.890625 315.355469 184.890625 315.355469 190.625 "/>
<path style=" stroke:none;fill-rule:nonzero;fill:rgb(100%,84.3%,0%);fill-opacity:1;" d="M 248.257812 88.257812 C 248.257812 93.992188 239.65625 93.992188 239.65625 88.257812 C 239.65625 82.523438 248.257812 82.523438 248.257812 88.257812 "/>
<path style=" stroke:none;fill-rule:nonzero;fill:rgb(100%,84.3%,0%);fill-opacity:1;" d="M 319.65625 394.496094 C 319.65625 400.230469 311.054688 400.230469 311.054688 394.496094 C 311.054688 388.761719 319.65625 388.761719 319.65625 394.496094 "/>
<path style=" stroke:none;fill-rule:nonzero;fill:rgb(100%,84.3%,0%);fill-opacity:1;" d="M 340.300781 123.527344 C 340.300781 129.261719 331.699219 129.261719 331.699219 123.527344 C 331.699219 117.792969 340.300781 117.792969 340.300781 123.527344 "/>
<path style=" stroke:none;fill-rule:nonzero;fill:rgb(100%,84.3%,0%);fill-opacity:1;" d="M 278.367188 315.355469 C 278.367188 321.089844 269.765625 321.089844 269.765625 315.355469 C 269.765625 309.621094 278.367188 309.621094 278.367188 315.355469 "/>
<path style=" stroke:none;fill-rule:nonzero;fill:rgb(100%,84.3%,0%);fill-opacity:1;" d="M 247.398438 77.933594 C 247.398438 83.667969 238.796875 83.667969 238.796875 77.933594 C 238.796875 72.199219 247.398438 72.199219 247.398438 77.933594 "/>
<path style=" stroke:none;fill-rule:nonzero;fill:rgb(100%,84.3%,0%);fill-opacity:1;" d="M 195.785156 428.902344 C 195.785156 434.636719 187.183594 434.636719 187.183594 428.902344 C 187.183594 423.167969 195.785156 423.167969 195.785156 428.902344 "/>
<path style=" stroke:none;fill-rule:nonzero;fill:rgb(100%,84.3%,0%);fill-opacity:1;" d="M 280.085938 401.375 C 280.085938 407.109375 271.484375 407.109375 271.484375 401.375 C 271.484375 395.640625 280.085938 395.640625 280.085938 401.375 "/>
<path style=" stroke:none;fill-rule:nonzero;fill:rgb(100%,84.3%,0%);fill-opacity:1;" d="M 270.625 273.203125 C 270.625 278.9375 262.023438 278.9375 262.023438 273.203125 C 262.023438 267.46875 270.625 267.46875 270.625 273.203125 "/>
<path style=" stroke:none;fill-rule:nonzero;fill:rgb(100%,84.3%,0%);fill-opacity:1;" d="M 336.859375 77.074219 C 336.859375 82.808594 328.257812 82.808594 328.257812 77.074219 C 328.257812 71.339844 336.859375 71.339844 336.859375 77.074219 "/>
<path style=" stroke:none;fill-rule:nonzero;fill:rgb(100%,84.3%,0%);fill-opacity:1;" d="M 230.191406 411.699219 C 230.191406 417.433594 221.589844 417.433594 221.589844 411.699219 C 221.589844 405.964844 230.191406 405.964844 230.191406 411.699219 "/>
<path style=" stroke:none;fill-rule:nonzero;fill:rgb(100%,84.3%,0%);fill-opacity:1;" d="M 225.03125 356.644531 C 225.03125 362.378906 216.429688 362.378906 216.429688 356.644531 C 216.429688 350.910156 225.03125 350.910156 225.03125 356.644531 "/>
<path style=" stroke:none;fill-rule:nonzero;fill:rgb(100%,84.3%,0%);fill-opacity:1;" d="M 236.214844 97.71875 C 236.214844 103.453125 227.613281 103.453125 227.613281 97.71875 C 227.613281 91.984375 236.214844 91.984375 236.214844 97.71875 "/>
<path style=" stroke:none;fill-rule:nonzero;fill:rgb(100%,84.3%,0%);fill-opacity:1;" d="M 314.496094 262.023438 C 314.496094 267.757812 305.894531 267.757812 305.894531 262.023438 C 305.894531 256.289062 314.496094 256.289062 314.496094 262.023438 "/>
<path style=" stroke:none;fill-rule:nonzero;fill:rgb(100%,84.3%,0%);fill-opacity:1;" d="M 219.011719 285.246094 C 219.011719 290.980469 210.410156 290.980469 210.410156 285.246094 C 210.410156 279.511719 219.011719 279.511719 219.011719 285.246094 "/>
<path style=" stroke:none;fill-rule:nonzero;fill:rgb(100%,84.3%,0%);fill-opacity:1;" d="M 242.234375 263.742188 C 242.234375 269.476562 233.632812 269.476562 233.632812 263.742188 C 233.632812 258.007812 242.234375 258.007812 242.234375 263.742188 "/>
<path style=" stroke:none;fill-rule:nonzero;fill:rgb(100%,84.3%,0%);fill-opacity:1;" d="M 195.785156 77.933594 C 195.785156 83.667969 187.183594 83.667969 187.183594 77.933594 C 187.183594 72.199219 195.785156 72.199219 195.785156 77.933594 "/>
<path style=" stroke:none;fill-rule:nonzero;fill:rgb(100%,84.3%,0%);fill-opacity:1;" d="M 290.410156 215.570312 C 290.410156 221.304688 281.808594 221.304688 281.808594 215.570312 C 281.808594 209.835938 290.410156 209.835938 290.410156 215.570312 "/>
<path style=" stroke:none;fill-rule:nonzero;fill:rgb(100%,84.3%,0%);fill-opacity:1;" d="M 206.105469 95.140625 C 206.105469 100.875 197.503906 100.875 197.503906 95.140625 C 197.503906 89.40625 206.105469 89.40625 206.105469 95.140625 "/>
<path style=" stroke:none;fill-rule:nonzero;fill:rgb(100%,84.3%,0%);fill-opacity:1;" d="M 295.570312 262.882812 C 295.570312 268.617188 286.96875 268.617188 286.96875 262.882812 C 286.96875 257.148438 295.570312 257.148438 295.570312 262.882812 "/>
<path style=" stroke:none;fill-rule:nonzero;fill:rgb(100%,84.3%,0%);fill-opacity:1;" d="M 249.117188 114.925781 C 249.117188 120.660156 240.515625 120.660156 240.515625 114.925781 C 240.515625 109.191406 249.117188 109.191406 249.117188 114.925781 "/>
<path style=" stroke:none;fill-rule:nonzero;fill:rgb(100%,84.3%,0%);fill-opacity:1;" d="M 205.246094 448.6875 C 205.246094 454.421875 196.644531 454.421875 196.644531 448.6875 C 196.644531 442.953125 205.246094 442.953125 205.246094 448.6875 "/>
<path style=" stroke:none;fill-rule:nonzero;fill:rgb(100%,84.3%,0%);fill-opacity:1;" d="M 297.289062 397.074219 C 297.289062 402.808594 288.6875 402.808594 288.6875 397.074219 C 288.6875 391.339844 297.289062 391.339844 297.289062 397.074219 "/>
<path style=" stroke:none;fill-rule:nonzero;fill:rgb(100%,84.3%,0%);fill-opacity:1;" d="M 197.503906 137.289062 C 197.503906 143.023438 188.902344 143.023438 188.902344 137.289062 C 188.902344 131.554688 197.503906 131.554688 197.503906 137.289062 "/>
<path style=" stroke:none;fill-rule:nonzero;fill:rgb(100%,84.3%,0%);fill-opacity:1;" d="M 247.398438 159.65625 C 247.398438 165.390625 238.796875 165.390625 238.796875 159.65625 C 238.796875 153.921875 247.398438 153.921875 247.398438 159.65625 "/>
<path style=" stroke:none;fill-rule:nonzero;fill:rgb(100%,84.3%,0%);fill-opacity:1;" d="M 239.65625 421.160156 C 239.65625 426.894531 231.054688 426.894531 231.054688 421.160156 C 231.054688 415.425781 239.65625 415.425781 239.65625 421.160156 "/>
<path style=" stroke:none;fill-rule:nonzero;fill:rgb(100%,84.3%,0%);fill-opacity:1;" d="M 208.6875 237.074219 C 208.6875 242.808594 200.085938 242.808594 200.085938 237.074219 C 200.085938 231.339844 208.6875 231.339844 208.6875 237.074219 "/>
<path style=" stroke:none;fill-rule:nonzero;fill:rgb(100%,84.3%,0%);fill-opacity:1;" d="M 342.019531 346.324219 C 342.019531 352.058594 333.417969 352.058594 333.417969 346.324219 C 333.417969 340.589844 342.019531 340.589844 342.019531 346.324219 "/>
<path style=" stroke:none;fill-rule:nonzero;fill:rgb(100%,84.3%,0%);fill-opacity:1;" d="M 252.558594 309.332031 C 252.558594 315.066406 243.957031 315.066406 243.957031 309.332031 C 243.957031 303.597656 252.558594 303.597656 252.558594 309.332031 "/>
<path style=" stroke:none;fill-rule:nonzero;fill:rgb(100%,84.3%,0%);fill-opacity:1;" d="M 198.367188 114.066406 C 198.367188 119.800781 189.765625 119.800781 189.765625 114.066406 C 189.765625 108.332031 198.367188 108.332031 198.367188 114.066406 "/>
<path style=" stroke:none;fill-rule:nonzero;fill:rgb(100%,84.3%,0%);fill-opacity:1;" d="M 230.191406 165.675781 C 230.191406 171.410156 221.589844 171.410156 221.589844 165.675781 C 221.589844 159.941406 230.191406 159.941406 230.191406 165.675781 "/>
<path style=" stroke:none;fill-rule:nonzero;fill:rgb(100%,84.3%,0%);fill-opacity:1;" d="M 315.355469 279.226562 C 315.355469 284.960938 306.753906 284.960938 306.753906 279.226562 C 306.753906 273.492188 315.355469 273.492188 315.355469 279.226562 "/>
<path style=" stroke:none;fill-rule:nonzero;fill:rgb(100%,84.3%,0%);fill-opacity:1;" d="M 281.804688 261.160156 C 281.804688 266.894531 273.203125 266.894531 273.203125 261.160156 C 273.203125 255.425781 281.804688 255.425781 281.804688 261.160156 "/>
<path style=" stroke:none;fill-rule:nonzero;fill:rgb(100%,84.3%,0%);fill-opacity:1;" d="M 299.871094 278.367188 C 299.871094 284.101562 291.269531 284.101562 291.269531 278.367188 C 291.269531 272.632812 299.871094 272.632812 299.871094 278.367188 "/>
<path style=" stroke:none;fill-rule:nonzero;fill:rgb(100%,84.3%,0%);fill-opacity:1;" d="M 237.933594 156.214844 C 237.933594 161.949219 229.332031 161.949219 229.332031 156.214844 C 229.332031 150.480469 237.933594 150.480469 237.933594 156.214844 "/>
<path style=" stroke:none;fill-rule:nonzero;fill:rgb(100%,84.3%,0%);fill-opacity:1;" d="M 219.871094 222.453125 C 219.871094 228.1875 211.269531 228.1875 211.269531 222.453125 C 211.269531 216.71875 219.871094 216.71875 219.871094 222.453125 "/>
<path style=" stroke:none;fill-rule:nonzero;fill:rgb(100%,84.3%,0%);fill-opacity:1;" d="M 243.957031 171.699219 C 243.957031 177.433594 235.355469 177.433594 235.355469 171.699219 C 235.355469 165.964844 243.957031 165.964844 243.957031 171.699219 "/>
<path style=" stroke:none;fill-rule:nonzero;fill:rgb(100%,84.3%,0%);fill-opacity:1;" d="M 238.796875 356.644531 C 238.796875 362.378906 230.195312 362.378906 230.195312 356.644531 C 230.195312 350.910156 238.796875 350.910156 238.796875 356.644531 "/>
<path style=" stroke:none;fill-rule:nonzero;fill:rgb(100%,84.3%,0%);fill-opacity:1;" d="M 338.582031 444.386719 C 338.582031 450.121094 329.980469 450.121094 329.980469 444.386719 C 329.980469 438.652344 338.582031 438.652344 338.582031 444.386719 "/>
<path style=" stroke:none;fill-rule:nonzero;fill:rgb(100%,84.3%,0%);fill-opacity:1;" d="M 224.171875 255.140625 C 224.171875 260.875 215.570312 260.875 215.570312 255.140625 C 215.570312 249.40625 224.171875 249.40625 224.171875 255.140625 "/>
<path style=" stroke:none;fill-rule:nonzero;fill:rgb(100%,84.3%,0%);fill-opacity:1;" d="M 298.148438 108.902344 C 298.148438 114.636719 289.546875 114.636719 289.546875 108.902344 C 289.546875 103.167969 298.148438 103.167969 298.148438 108.902344 "/>
<path style=" stroke:none;fill-rule:nonzero;fill:rgb(100%,84.3%,0%);fill-opacity:1;" d="M 283.527344 90.839844 C 283.527344 96.574219 274.925781 96.574219 274.925781 90.839844 C 274.925781 85.105469 283.527344 85.105469 283.527344 90.839844 "/>
<path style=" stroke:none;fill-rule:nonzero;fill:rgb(100%,84.3%,0%);fill-opacity:1;" d="M 211.269531 440.085938 C 211.269531 445.820312 202.667969 445.820312 202.667969 440.085938 C 202.667969 434.351562 211.269531 434.351562 211.269531 440.085938 "/>
<path style=" stroke:none;fill-rule:nonzero;fill:rgb(100%,84.3%,0%);fill-opacity:1;" d="M 179.441406 211.269531 C 179.441406 217.003906 170.839844 217.003906 170.839844 211.269531 C 170.839844 205.535156 179.441406 205.535156 179.441406 211.269531 "/>
<path style=" stroke:none;fill-rule:nonzero;fill:rgb(100%,84.3%,0%);fill-opacity:1;" d="M 299.011719 207.828125 C 299.011719 213.5625 290.410156 213.5625 290.410156 207.828125 C 290.410156 202.09375 299.011719 202.09375 299.011719 207.828125 "/>
<path style=" stroke:none;fill-rule:nonzero;fill:rgb(100%,84.3%,0%);fill-opacity:1;" d="M 283.527344 199.226562 C 283.527344 204.960938 274.925781 204.960938 274.925781 199.226562 C 274.925781 193.492188 283.527344 193.492188 283.527344 199.226562 "/>
<path style=" stroke:none;fill-rule:nonzero;fill:rgb(100%,84.3%,0%);fill-opacity:1;" d="M 269.761719 247.398438 C 269.761719 253.132812 261.160156 253.132812 261.160156 247.398438 C 261.160156 241.664062 269.761719 241.664062 269.761719 247.398438 "/>
<path style=" stroke:none;fill-rule:nonzero;fill:rgb(100%,84.3%,0%);fill-opacity:1;" d="M 320.515625 423.742188 C 320.515625 429.476562 311.914062 429.476562 311.914062 423.742188 C 311.914062 418.007812 320.515625 418.007812 320.515625 423.742188 "/>
<path style=" stroke:none;fill-rule:nonzero;fill:rgb(100%,84.3%,0%);fill-opacity:1;" d="M 211.269531 174.28125 C 211.269531 180.015625 202.667969 180.015625 202.667969 174.28125 C 202.667969 168.546875 211.269531 168.546875 211.269531 174.28125 "/>
<path style=" stroke:none;fill-rule:nonzero;fill:rgb(100%,84.3%,0%);fill-opacity:1;" d="M 241.375 145.03125 C 241.375 150.765625 232.773438 150.765625 232.773438 145.03125 C 232.773438 139.296875 241.375 139.296875 241.375 145.03125 "/>
<path style=" stroke:none;fill-rule:nonzero;fill:rgb(100%,84.3%,0%);fill-opacity:1;" d="M 225.890625 398.796875 C 225.890625 404.53125 217.289062 404.53125 217.289062 398.796875 C 217.289062 393.0625 225.890625 393.0625 225.890625 398.796875 "/>
<path style=" stroke:none;fill-rule:nonzero;fill:rgb(100%,84.3%,0%);fill-opacity:1;" d="M 291.269531 371.269531 C 291.269531 377.003906 282.667969 377.003906 282.667969 371.269531 C 282.667969 365.535156 291.269531 365.535156 291.269531 371.269531 "/>
<path style=" stroke:none;fill-rule:nonzero;fill:rgb(100%,84.3%,0%);fill-opacity:1;" d="M 341.160156 375.570312 C 341.160156 381.304688 332.558594 381.304688 332.558594 375.570312 C 332.558594 369.835938 341.160156 369.835938 341.160156 375.570312 "/>
<path style=" stroke:none;fill-rule:nonzero;fill:rgb(100%,84.3%,0%);fill-opacity:1;" d="M 233.632812 366.96875 C 233.632812 372.703125 225.03125 372.703125 225.03125 366.96875 C 225.03125 361.234375 233.632812 361.234375 233.632812 366.96875 "/>
<path style=" stroke:none;fill-rule:nonzero;fill:rgb(100%,84.3%,0%);fill-opacity:1;" d="M 262.019531 360.085938 C 262.019531 365.820312 253.417969 365.820312 253.417969 360.085938 C 253.417969 354.351562 262.019531 354.351562 262.019531 360.085938 "/>
<path style=" stroke:none;fill-rule:nonzero;fill:rgb(100%,84.3%,0%);fill-opacity:1;" d="M 220.730469 186.324219 C 220.730469 192.058594 212.128906 192.058594 212.128906 186.324219 C 212.128906 180.589844 220.730469 180.589844 220.730469 186.324219 "/>
<path style=" stroke:none;fill-rule:nonzero;fill:rgb(100%,84.3%,0%);fill-opacity:1;" d="M 200.085938 224.171875 C 200.085938 229.90625 191.484375 229.90625 191.484375 224.171875 C 191.484375 218.4375 200.085938 218.4375 200.085938 224.171875 "/>
<path style=" stroke:none;fill-rule:nonzero;fill:rgb(100%,84.3%,0%);fill-opacity:1;" d="M 281.804688 366.109375 C 281.804688 371.84375 273.203125 371.84375 273.203125 366.109375 C 273.203125 360.375 281.804688 360.375 281.804688 366.109375 "/>
<path style=" stroke:none;fill-rule:nonzero;fill:rgb(100%,84.3%,0%);fill-opacity:1;" d="M 217.289062 386.753906 C 217.289062 392.488281 208.6875 392.488281 208.6875 386.753906 C 208.6875 381.019531 217.289062 381.019531 217.289062 386.753906 "/>
<path style=" stroke:none;fill-rule:nonzero;fill:rgb(100%,84.3%,0%);fill-opacity:1;" d="M 225.890625 452.128906 C 225.890625 457.863281 217.289062 457.863281 217.289062 452.128906 C 217.289062 446.394531 225.890625 446.394531 225.890625 452.128906 "/>
<path style=" stroke:none;fill-rule:nonzero;fill:rgb(100%,84.3%,0%);fill-opacity:1;" d="M 210.410156 374.710938 C 210.410156 380.445312 201.808594 380.445312 201.808594 374.710938 C 201.808594 368.976562 210.410156 368.976562 210.410156 374.710938 "/>
<path style=" stroke:none;fill-rule:nonzero;fill:rgb(100%,84.3%,0%);fill-opacity:1;" d="M 221.589844 436.644531 C 221.589844 442.378906 212.988281 442.378906 212.988281 436.644531 C 212.988281 430.910156 221.589844 430.910156 221.589844 436.644531 "/>
<path style=" stroke:none;fill-rule:nonzero;fill:rgb(100%,84.3%,0%);fill-opacity:1;" d="M 233.632812 309.332031 C 233.632812 315.066406 225.03125 315.066406 225.03125 309.332031 C 225.03125 303.597656 233.632812 303.597656 233.632812 309.332031 "/>
<path style=" stroke:none;fill-rule:nonzero;fill:rgb(100%,84.3%,0%);fill-opacity:1;" d="M 210.410156 164.816406 C 210.410156 170.550781 201.808594 170.550781 201.808594 164.816406 C 201.808594 159.082031 210.410156 159.082031 210.410156 164.816406 "/>
<path style=" stroke:none;fill-rule:nonzero;fill:rgb(100%,84.3%,0%);fill-opacity:1;" d="M 241.375 132.128906 C 241.375 137.863281 232.773438 137.863281 232.773438 132.128906 C 232.773438 126.394531 241.375 126.394531 241.375 132.128906 "/>
<path style=" stroke:none;fill-rule:nonzero;fill:rgb(100%,84.3%,0%);fill-opacity:1;" d="M 243.097656 404.816406 C 243.097656 410.550781 234.496094 410.550781 234.496094 404.816406 C 234.496094 399.082031 243.097656 399.082031 243.097656 404.816406 "/>
<path style=" stroke:none;fill-rule:nonzero;fill:rgb(100%,84.3%,0%);fill-opacity:1;" d="M 300.730469 187.183594 C 300.730469 192.917969 292.128906 192.917969 292.128906 187.183594 C 292.128906 181.449219 300.730469 181.449219 300.730469 187.183594 "/>
<path style=" stroke:none;fill-rule:nonzero;fill:rgb(100%,84.3%,0%);fill-opacity:1;" d="M 313.632812 326.539062 C 313.632812 332.273438 305.03125 332.273438 305.03125 326.539062 C 305.03125 320.804688 313.632812 320.804688 313.632812 326.539062 "/>
<path style=" stroke:none;fill-rule:nonzero;fill:rgb(100%,84.3%,0%);fill-opacity:1;" d="M 182.882812 183.742188 C 182.882812 189.476562 174.28125 189.476562 174.28125 183.742188 C 174.28125 178.007812 182.882812 178.007812 182.882812 183.742188 "/>
<path style=" stroke:none;fill-rule:nonzero;fill:rgb(100%,84.3%,0%);fill-opacity:1;" d="M 189.761719 420.300781 C 189.761719 426.035156 181.160156 426.035156 181.160156 420.300781 C 181.160156 414.566406 189.761719 414.566406 189.761719 420.300781 "/>
<path style=" stroke:none;fill-rule:nonzero;fill:rgb(100%,84.3%,0%);fill-opacity:1;" d="M 329.117188 59.871094 C 329.117188 65.605469 320.515625 65.605469 320.515625 59.871094 C 320.515625 54.136719 329.117188 54.136719 329.117188 59.871094 "/>
<path style=" stroke:none;fill-rule:nonzero;fill:rgb(100%,84.3%,0%);fill-opacity:1;" d="M 268.042969 348.042969 C 268.042969 353.777344 259.441406 353.777344 259.441406 348.042969 C 259.441406 342.308594 268.042969 342.308594 268.042969 348.042969 "/>
<path style=" stroke:none;fill-rule:nonzero;fill:rgb(100%,84.3%,0%);fill-opacity:1;" d="M 191.484375 372.988281 C 191.484375 378.722656 182.882812 378.722656 182.882812 372.988281 C 182.882812 367.253906 191.484375 367.253906 191.484375 372.988281 "/>
<path style=" stroke:none;fill-rule:nonzero;fill:rgb(100%,84.3%,0%);fill-opacity:1;" d="M 311.054688 249.117188 C 311.054688 254.851562 302.453125 254.851562 302.453125 249.117188 C 302.453125 243.382812 311.054688 243.382812 311.054688 249.117188 "/>
<path style=" stroke:none;fill-rule:nonzero;fill:rgb(100%,84.3%,0%);fill-opacity:1;" d="M 207.828125 404.816406 C 207.828125 410.550781 199.226562 410.550781 199.226562 404.816406 C 199.226562 399.082031 207.828125 399.082031 207.828125 404.816406 "/>
<path style=" stroke:none;fill-rule:nonzero;fill:rgb(100%,84.3%,0%);fill-opacity:1;" d="M 268.902344 325.675781 C 268.902344 331.410156 260.300781 331.410156 260.300781 325.675781 C 260.300781 319.941406 268.902344 319.941406 268.902344 325.675781 "/>
<path style=" stroke:none;fill-rule:nonzero;fill:rgb(100%,84.3%,0%);fill-opacity:1;" d="M 207.828125 107.183594 C 207.828125 112.917969 199.226562 112.917969 199.226562 107.183594 C 199.226562 101.449219 207.828125 101.449219 207.828125 107.183594 "/>
<path style=" stroke:none;fill-rule:nonzero;fill:rgb(100%,84.3%,0%);fill-opacity:1;" d="M 259.441406 137.289062 C 259.441406 143.023438 250.839844 143.023438 250.839844 137.289062 C 250.839844 131.554688 259.441406 131.554688 259.441406 137.289062 "/>
<path style=" stroke:none;fill-rule:nonzero;fill:rgb(100%,84.3%,0%);fill-opacity:1;" d="M 220.730469 445.246094 C 220.730469 450.980469 212.128906 450.980469 212.128906 445.246094 C 212.128906 439.511719 220.730469 439.511719 220.730469 445.246094 "/>
<path style=" stroke:none;fill-rule:nonzero;fill:rgb(100%,84.3%,0%);fill-opacity:1;" d="M 202.667969 169.976562 C 202.667969 175.710938 194.066406 175.710938 194.066406 169.976562 C 194.066406 164.242188 202.667969 164.242188 202.667969 169.976562 "/>
<path style=" stroke:none;fill-rule:nonzero;fill:rgb(100%,84.3%,0%);fill-opacity:1;" d="M 325.675781 273.203125 C 325.675781 278.9375 317.074219 278.9375 317.074219 273.203125 C 317.074219 267.46875 325.675781 267.46875 325.675781 273.203125 "/>
<path style=" stroke:none;fill-rule:nonzero;fill:rgb(100%,84.3%,0%);fill-opacity:1;" d="M 204.386719 146.753906 C 204.386719 152.488281 195.785156 152.488281 195.785156 146.753906 C 195.785156 141.019531 204.386719 141.019531 204.386719 146.753906 "/>
<path style=" stroke:none;fill-rule:nonzero;fill:rgb(100%,84.3%,0%);fill-opacity:1;" d="M 202.667969 210.410156 C 202.667969 216.144531 194.066406 216.144531 194.066406 210.410156 C 194.066406 204.675781 202.667969 204.675781 202.667969 210.410156 "/>
<path style=" stroke:none;fill-rule:nonzero;fill:rgb(100%,84.3%,0%);fill-opacity:1;" d="M 198.367188 59.011719 C 198.367188 64.746094 189.765625 64.746094 189.765625 59.011719 C 189.765625 53.277344 198.367188 53.277344 198.367188 59.011719 "/>
<path style=" stroke:none;fill-rule:nonzero;fill:rgb(100%,84.3%,0%);fill-opacity:1;" d="M 277.503906 297.289062 C 277.503906 303.023438 268.902344 303.023438 268.902344 297.289062 C 268.902344 291.554688 277.503906 291.554688 277.503906 297.289062 "/>
<path style=" stroke:none;fill-rule:nonzero;fill:rgb(100%,84.3%,0%);fill-opacity:1;" d="M 247.398438 316.214844 C 247.398438 321.949219 238.796875 321.949219 238.796875 316.214844 C 238.796875 310.480469 247.398438 310.480469 247.398438 316.214844 "/>
<path style=" stroke:none;fill-rule:nonzero;fill:rgb(100%,84.3%,0%);fill-opacity:1;" d="M 196.644531 391.054688 C 196.644531 396.789062 188.042969 396.789062 188.042969 391.054688 C 188.042969 385.320312 196.644531 385.320312 196.644531 391.054688 "/>
<path style=" stroke:none;fill-rule:nonzero;fill:rgb(100%,84.3%,0%);fill-opacity:1;" d="M 222.453125 344.601562 C 222.453125 350.335938 213.851562 350.335938 213.851562 344.601562 C 213.851562 338.867188 222.453125 338.867188 222.453125 344.601562 "/>
<path style=" stroke:none;fill-rule:nonzero;fill:rgb(100%,84.3%,0%);fill-opacity:1;" d="M 217.289062 329.976562 C 217.289062 335.710938 208.6875 335.710938 208.6875 329.976562 C 208.6875 324.242188 217.289062 324.242188 217.289062 329.976562 "/>
<path style=" stroke:none;fill-rule:nonzero;fill:rgb(100%,84.3%,0%);fill-opacity:1;" d="M 260.300781 337.71875 C 260.300781 343.453125 251.699219 343.453125 251.699219 337.71875 C 251.699219 331.984375 260.300781 331.984375 260.300781 337.71875 "/>
<path style=" stroke:none;fill-rule:nonzero;fill:rgb(100%,84.3%,0%);fill-opacity:1;" d="M 274.0625 286.96875 C 274.0625 292.703125 265.460938 292.703125 265.460938 286.96875 C 265.460938 281.234375 274.0625 281.234375 274.0625 286.96875 "/>
<path style=" stroke:none;fill-rule:nonzero;fill:rgb(100%,84.3%,0%);fill-opacity:1;" d="M 210.410156 299.011719 C 210.410156 304.746094 201.808594 304.746094 201.808594 299.011719 C 201.808594 293.277344 210.410156 293.277344 210.410156 299.011719 "/>
<path style=" stroke:none;fill-rule:nonzero;fill:rgb(100%,84.3%,0%);fill-opacity:1;" d="M 249.976562 373.847656 C 249.976562 379.582031 241.375 379.582031 241.375 373.847656 C 241.375 368.113281 249.976562 368.113281 249.976562 373.847656 "/>
<path style=" stroke:none;fill-rule:nonzero;fill:rgb(100%,84.3%,0%);fill-opacity:1;" d="M 241.375 448.6875 C 241.375 454.421875 232.773438 454.421875 232.773438 448.6875 C 232.773438 442.953125 241.375 442.953125 241.375 448.6875 "/>
<path style=" stroke:none;fill-rule:nonzero;fill:rgb(100%,84.3%,0%);fill-opacity:1;" d="M 195.785156 306.753906 C 195.785156 312.488281 187.183594 312.488281 187.183594 306.753906 C 187.183594 301.019531 195.785156 301.019531 195.785156 306.753906 "/>
<path style=" stroke:none;fill-rule:nonzero;fill:rgb(100%,84.3%,0%);fill-opacity:1;" d="M 231.054688 300.730469 C 231.054688 306.464844 222.453125 306.464844 222.453125 300.730469 C 222.453125 294.996094 231.054688 294.996094 231.054688 300.730469 "/>
<path style=" stroke:none;fill-rule:nonzero;fill:rgb(100%,84.3%,0%);fill-opacity:1;" d="M 245.675781 332.558594 C 245.675781 338.292969 237.074219 338.292969 237.074219 332.558594 C 237.074219 326.824219 245.675781 326.824219 245.675781 332.558594 "/>
<path style=" stroke:none;fill-rule:nonzero;fill:rgb(100%,84.3%,0%);fill-opacity:1;" d="M 287.828125 154.496094 C 287.828125 160.230469 279.226562 160.230469 279.226562 154.496094 C 279.226562 148.761719 287.828125 148.761719 287.828125 154.496094 "/>
<path style=" stroke:none;fill-rule:nonzero;fill:rgb(100%,84.3%,0%);fill-opacity:1;" d="M 209.546875 309.332031 C 209.546875 315.066406 200.945312 315.066406 200.945312 309.332031 C 200.945312 303.597656 209.546875 303.597656 209.546875 309.332031 "/>
<path style=" stroke:none;fill-rule:nonzero;fill:rgb(100%,84.3%,0%);fill-opacity:1;" d="M 261.160156 68.472656 C 261.160156 74.207031 252.558594 74.207031 252.558594 68.472656 C 252.558594 62.738281 261.160156 62.738281 261.160156 68.472656 "/>
<path style=" stroke:none;fill-rule:nonzero;fill:rgb(100%,84.3%,0%);fill-opacity:1;" d="M 322.234375 242.238281 C 322.234375 247.972656 313.632812 247.972656 313.632812 242.238281 C 313.632812 236.503906 322.234375 236.503906 322.234375 242.238281 "/>
<path style=" stroke:none;fill-rule:nonzero;fill:rgb(100%,84.3%,0%);fill-opacity:1;" d="M 314.496094 299.871094 C 314.496094 305.605469 305.894531 305.605469 305.894531 299.871094 C 305.894531 294.136719 314.496094 294.136719 314.496094 299.871094 "/>
<path style=" stroke:none;fill-rule:nonzero;fill:rgb(100%,84.3%,0%);fill-opacity:1;" d="M 285.246094 188.042969 C 285.246094 193.777344 276.644531 193.777344 276.644531 188.042969 C 276.644531 182.308594 285.246094 182.308594 285.246094 188.042969 "/>
<path style=" stroke:none;fill-rule:nonzero;fill:rgb(100%,84.3%,0%);fill-opacity:1;" d="M 204.386719 316.214844 C 204.386719 321.949219 195.785156 321.949219 195.785156 316.214844 C 195.785156 310.480469 204.386719 310.480469 204.386719 316.214844 "/>
<path style=" stroke:none;fill-rule:nonzero;fill:rgb(100%,84.3%,0%);fill-opacity:1;" d="M 199.226562 258.582031 C 199.226562 264.316406 190.625 264.316406 190.625 258.582031 C 190.625 252.847656 199.226562 252.847656 199.226562 258.582031 "/>
<path style=" stroke:none;fill-rule:nonzero;fill:rgb(100%,84.3%,0%);fill-opacity:1;" d="M 216.429688 397.933594 C 216.429688 403.667969 207.828125 403.667969 207.828125 397.933594 C 207.828125 392.199219 216.429688 392.199219 216.429688 397.933594 "/>
<path style=" stroke:none;fill-rule:nonzero;fill:rgb(100%,84.3%,0%);fill-opacity:1;" d="M 180.300781 89.117188 C 180.300781 94.851562 171.699219 94.851562 171.699219 89.117188 C 171.699219 83.382812 180.300781 83.382812 180.300781 89.117188 "/>
<path style=" stroke:none;fill-rule:nonzero;fill:rgb(100%,84.3%,0%);fill-opacity:1;" d="M 231.914062 116.644531 C 231.914062 122.378906 223.3125 122.378906 223.3125 116.644531 C 223.3125 110.910156 231.914062 110.910156 231.914062 116.644531 "/>
<path style=" stroke:none;fill-rule:nonzero;fill:rgb(100%,84.3%,0%);fill-opacity:1;" d="M 318.796875 456.429688 C 318.796875 462.164062 310.195312 462.164062 310.195312 456.429688 C 310.195312 450.695312 318.796875 450.695312 318.796875 456.429688 "/>
<path style=" stroke:none;fill-rule:nonzero;fill:rgb(100%,84.3%,0%);fill-opacity:1;" d="M 330.839844 172.558594 C 330.839844 178.292969 322.238281 178.292969 322.238281 172.558594 C 322.238281 166.824219 330.839844 166.824219 330.839844 172.558594 "/>
<path style=" stroke:none;fill-rule:nonzero;fill:rgb(100%,84.3%,0%);fill-opacity:1;" d="M 216.429688 247.398438 C 216.429688 253.132812 207.828125 253.132812 207.828125 247.398438 C 207.828125 241.664062 216.429688 241.664062 216.429688 247.398438 "/>
<path style=" stroke:none;fill-rule:nonzero;fill:rgb(100%,84.3%,0%);fill-opacity:1;" d="M 290.410156 381.589844 C 290.410156 387.324219 281.808594 387.324219 281.808594 381.589844 C 281.808594 375.855469 290.410156 375.855469 290.410156 381.589844 "/>
<path style=" stroke:none;fill-rule:nonzero;fill:rgb(100%,84.3%,0%);fill-opacity:1;" d="M 260.300781 265.460938 C 260.300781 271.195312 251.699219 271.195312 251.699219 265.460938 C 251.699219 259.726562 260.300781 259.726562 260.300781 265.460938 "/>
</g>
</svg>
