<?xml version="1.0" encoding="UTF-8"?>
<svg xmlns="http://www.w3.org/2000/svg" xmlns:xlink="http://www.w3.org/1999/xlink" width="512pt" height="512pt" viewBox="0 0 512 512" version="1.1">
<g id="surface201">
<path style=" stroke:none;fill-rule:nonzero;fill:rgb(26.7%,26.7%,26.7%);fill-opacity:1;" d="M 91.871094 0 L 420.128906 0 L 420.128906 512 L 91.871094 512 Z M 91.871094 0 "/>
<path style=" stroke:none;fill-rule:nonzero;fill:rgb(19.2%,38.8%,66.7%);fill-opacity:1;" d="M 119.226562 42.667969 L 392.773438 42.667969 L 392.773438 469.332031 L 119.226562 469.332031 Z M 119.226562 42.667969 "/>
<path style=" stroke:none;fill-rule:nonzero;fill:rgb(100%,100%,100%);fill-opacity:1;" d="M 425.460938 359.226562 C 425.460938 363.976562 421.609375 367.828125 416.859375 367.828125 C 412.109375 367.828125 408.257812 363.976562 408.257812 359.226562 C 408.257812 354.476562 412.109375 350.625 416.859375 350.625 C 421.609375 350.625 425.460938 354.476562 425.460938 359.226562 "/>
<path style=" stroke:none;fill-rule:nonzero;fill:rgb(100%,100%,100%);fill-opacity:1;" d="M 336 474.496094 C 336 479.246094 332.148438 483.097656 327.398438 483.097656 C 322.648438 483.097656 318.796875 479.246094 318.796875 474.496094 C 318.796875 469.746094 322.648438 465.894531 327.398438 465.894531 C 332.148438 465.894531 336 469.746094 336 474.496094 "/>
<path style=" stroke:none;fill-rule:nonzero;fill:rgb(100%,100%,100%);fill-opacity:1;" d="M 427.183594 326.539062 C 427.183594 331.289062 423.332031 335.140625 418.582031 335.140625 C 413.832031 335.140625 409.980469 331.289062 409.980469 326.539062 C 409.980469 321.789062 413.832031 317.9375 418.582031 317.9375 C 423.332031 317.9375 427.183594 321.789062 427.183594 326.539062 "/>
<path style=" stroke:none;fill-rule:nonzero;fill:rgb(100%,100%,100%);fill-opacity:1;" d="M 483.957031 367.828125 C 483.957031 372.578125 480.105469 376.429688 475.355469 376.429688 C 470.605469 376.429688 466.753906 372.578125 466.753906 367.828125 C 466.753906 363.078125 470.605469 359.226562 475.355469 359.226562 C 480.105469 359.226562 483.957031 363.078125 483.957031 367.828125 "/>
<path style=" stroke:none;fill-rule:nonzero;fill:rgb(100%,100%,100%);fill-opacity:1;" d="M 411.699219 137.289062 C 411.699219 142.039062 407.847656 145.890625 403.097656 145.890625 C 398.347656 145.890625 394.496094 142.039062 394.496094 137.289062 C 394.496094 132.539062 398.347656 128.6875 403.097656 128.6875 C 407.847656 128.6875 411.699219 132.539062 411.699219 137.289062 "/>
<path style=" stroke:none;fill-rule:nonzero;fill:rgb(100%,100%,100%);fill-opacity:1;" d="M 356.644531 502.023438 C 356.644531 506.773438 352.792969 510.625 348.042969 510.625 C 343.292969 510.625 339.441406 506.773438 339.441406 502.023438 C 339.441406 497.269531 343.292969 493.417969 348.042969 493.417969 C 352.792969 493.417969 356.644531 497.269531 356.644531 502.023438 "/>
<path style=" stroke:none;fill-rule:nonzero;fill:rgb(100%,100%,100%);fill-opacity:1;" d="M 34.925781 168.257812 C 34.925781 173.007812 31.074219 176.859375 26.324219 176.859375 C 21.570312 176.859375 17.722656 173.007812 17.722656 168.257812 C 17.722656 163.507812 21.570312 159.65625 26.324219 159.65625 C 31.074219 159.65625 34.925781 163.507812 34.925781 168.257812 "/>
<path style=" stroke:none;fill-rule:nonzero;fill:rgb(100%,100%,100%);fill-opacity:1;" d="M 461.589844 151.054688 C 461.589844 155.804688 457.738281 159.65625 452.988281 159.65625 C 448.238281 159.65625 444.386719 155.804688 444.386719 151.054688 C 444.386719 146.304688 448.238281 142.453125 452.988281 142.453125 C 457.738281 142.453125 461.589844 146.304688 461.589844 151.054688 "/>
<path style=" stroke:none;fill-rule:nonzero;fill:rgb(100%,100%,100%);fill-opacity:1;" d="M 478.796875 73.632812 C 478.796875 78.386719 474.945312 82.234375 470.195312 82.234375 C 465.441406 82.234375 461.59375 78.386719 461.59375 73.632812 C 461.59375 68.882812 465.441406 65.03125 470.195312 65.03125 C 474.945312 65.03125 478.796875 68.882812 478.796875 73.632812 "/>
<path style=" stroke:none;fill-rule:nonzero;fill:rgb(100%,100%,100%);fill-opacity:1;" d="M 497.71875 292.128906 C 497.71875 296.878906 493.867188 300.730469 489.117188 300.730469 C 484.367188 300.730469 480.515625 296.878906 480.515625 292.128906 C 480.515625 287.378906 484.367188 283.527344 489.117188 283.527344 C 493.867188 283.527344 497.71875 287.378906 497.71875 292.128906 "/>
<path style=" stroke:none;fill-rule:nonzero;fill:rgb(100%,100%,100%);fill-opacity:1;" d="M 40.085938 70.195312 C 40.085938 74.945312 36.234375 78.796875 31.484375 78.796875 C 26.734375 78.796875 22.882812 74.945312 22.882812 70.195312 C 22.882812 65.441406 26.734375 61.59375 31.484375 61.59375 C 36.234375 61.59375 40.085938 65.441406 40.085938 70.195312 "/>
<path style=" stroke:none;fill-rule:nonzero;fill:rgb(100%,100%,100%);fill-opacity:1;" d="M 86.539062 192.34375 C 86.539062 197.09375 82.6875 200.945312 77.933594 200.945312 C 73.183594 200.945312 69.332031 197.09375 69.332031 192.34375 C 69.332031 187.59375 73.183594 183.742188 77.933594 183.742188 C 82.6875 183.742188 86.539062 187.59375 86.539062 192.34375 "/>
<path style=" stroke:none;fill-rule:nonzero;fill:rgb(100%,100%,100%);fill-opacity:1;" d="M 81.375 465.890625 C 81.375 470.644531 77.523438 474.496094 72.773438 474.496094 C 68.023438 474.496094 64.171875 470.644531 64.171875 465.890625 C 64.171875 461.140625 68.023438 457.289062 72.773438 457.289062 C 77.523438 457.289062 81.375 461.140625 81.375 465.890625 "/>
<path style=" stroke:none;fill-rule:nonzero;fill:rgb(100%,100%,100%);fill-opacity:1;" d="M 36.644531 336.859375 C 36.644531 341.609375 32.792969 345.460938 28.042969 345.460938 C 23.292969 345.460938 19.441406 341.609375 19.441406 336.859375 C 19.441406 332.109375 23.292969 328.257812 28.042969 328.257812 C 32.792969 328.257812 36.644531 332.109375 36.644531 336.859375 "/>
<path style=" stroke:none;fill-rule:nonzero;fill:rgb(100%,100%,100%);fill-opacity:1;" d="M 446.105469 281.804688 C 446.105469 286.558594 442.253906 290.40625 437.503906 290.40625 C 432.753906 290.40625 428.902344 286.558594 428.902344 281.804688 C 428.902344 277.054688 432.753906 273.203125 437.503906 273.203125 C 442.253906 273.203125 446.105469 277.054688 446.105469 281.804688 "/>
<path style=" stroke:none;fill-rule:nonzero;fill:rgb(100%,100%,100%);fill-opacity:1;" d="M 528.6875 409.117188 C 528.6875 413.867188 524.835938 417.71875 520.085938 417.71875 C 515.335938 417.71875 511.484375 413.867188 511.484375 409.117188 C 511.484375 404.367188 515.335938 400.515625 520.085938 400.515625 C 524.835938 400.515625 528.6875 404.367188 528.6875 409.117188 "/>
<path style=" stroke:none;fill-rule:nonzero;fill:rgb(100%,100%,100%);fill-opacity:1;" d="M 115.785156 32.34375 C 115.785156 37.09375 111.933594 40.945312 107.183594 40.945312 C 102.433594 40.945312 98.582031 37.09375 98.582031 32.34375 C 98.582031 27.59375 102.433594 23.742188 107.183594 23.742188 C 111.933594 23.742188 115.785156 27.59375 115.785156 32.34375 "/>
<path style=" stroke:none;fill-rule:nonzero;fill:rgb(100%,100%,100%);fill-opacity:1;" d="M 102.019531 194.066406 C 102.019531 198.816406 98.167969 202.667969 93.417969 202.667969 C 88.667969 202.667969 84.816406 198.816406 84.816406 194.066406 C 84.816406 189.3125 88.667969 185.460938 93.417969 185.460938 C 98.167969 185.460938 102.019531 189.3125 102.019531 194.066406 "/>
<path style=" stroke:none;fill-rule:nonzero;fill:rgb(100%,100%,100%);fill-opacity:1;" d="M 375.570312 4.816406 C 375.570312 9.566406 371.71875 13.417969 366.96875 13.417969 C 362.21875 13.417969 358.367188 9.566406 358.367188 4.816406 C 358.367188 0.0664062 362.21875 -3.785156 366.96875 -3.785156 C 371.71875 -3.785156 375.570312 0.0664062 375.570312 4.816406 "/>
<path style=" stroke:none;fill-rule:nonzero;fill:rgb(100%,100%,100%);fill-opacity:1;" d="M 501.160156 18.582031 C 501.160156 23.332031 497.308594 27.183594 492.558594 27.183594 C 487.808594 27.183594 483.957031 23.332031 483.957031 18.582031 C 483.957031 13.832031 487.808594 9.980469 492.558594 9.980469 C 497.308594 9.980469 501.160156 13.832031 501.160156 18.582031 "/>
<path style=" stroke:none;fill-rule:nonzero;fill:rgb(100%,100%,100%);fill-opacity:1;" d="M 81.375 82.238281 C 81.375 86.988281 77.523438 90.839844 72.773438 90.839844 C 68.023438 90.839844 64.171875 86.988281 64.171875 82.238281 C 64.171875 77.484375 68.023438 73.636719 72.773438 73.636719 C 77.523438 73.636719 81.375 77.484375 81.375 82.238281 "/>
<path style=" stroke:none;fill-rule:nonzero;fill:rgb(100%,100%,100%);fill-opacity:1;" d="M 525.246094 446.96875 C 525.246094 451.71875 521.394531 455.570312 516.644531 455.570312 C 511.894531 455.570312 508.042969 451.71875 508.042969 446.96875 C 508.042969 442.21875 511.894531 438.367188 516.644531 438.367188 C 521.394531 438.367188 525.246094 442.21875 525.246094 446.96875 "/>
<path style=" stroke:none;fill-rule:nonzero;fill:rgb(100%,100%,100%);fill-opacity:1;" d="M 416.859375 1.375 C 416.859375 6.125 413.007812 9.976562 408.257812 9.976562 C 403.507812 9.976562 399.65625 6.125 399.65625 1.375 C 399.65625 -3.375 403.507812 -7.226562 408.257812 -7.226562 C 413.007812 -7.226562 416.859375 -3.375 416.859375 1.375 "/>
<path style=" stroke:none;fill-rule:nonzero;fill:rgb(100%,100%,100%);fill-opacity:1;" d="M 33.203125 185.460938 C 33.203125 190.210938 29.351562 194.0625 24.601562 194.0625 C 19.851562 194.0625 16 190.210938 16 185.460938 C 16 180.710938 19.851562 176.859375 24.601562 176.859375 C 29.351562 176.859375 33.203125 180.710938 33.203125 185.460938 "/>
<path style=" stroke:none;fill-rule:nonzero;fill:rgb(100%,84.3%,0%);fill-opacity:1;" d="M 167.398438 169.976562 C 167.398438 174.730469 163.546875 178.582031 158.796875 178.582031 C 154.046875 178.582031 150.195312 174.730469 150.195312 169.976562 C 150.195312 165.226562 154.046875 161.375 158.796875 161.375 C 163.546875 161.375 167.398438 165.226562 167.398438 169.976562 "/>
<path style=" stroke:none;fill-rule:nonzero;fill:rgb(100%,84.3%,0%);fill-opacity:1;" d="M 348.042969 333.417969 C 348.042969 338.167969 344.191406 342.019531 339.441406 342.019531 C 334.691406 342.019531 330.839844 338.167969 330.839844 333.417969 C 330.839844 328.667969 334.691406 324.816406 339.441406 324.816406 C 344.191406 324.816406 348.042969 328.667969 348.042969 333.417969 "/>
<path style=" stroke:none;fill-rule:nonzero;fill:rgb(100%,84.3%,0%);fill-opacity:1;" d="M 153.632812 225.03125 C 153.632812 229.78125 149.78125 233.632812 145.03125 233.632812 C 140.28125 233.632812 136.429688 229.78125 136.429688 225.03125 C 136.429688 220.28125 140.28125 216.429688 145.03125 216.429688 C 149.78125 216.429688 153.632812 220.28125 153.632812 225.03125 "/>
<path style=" stroke:none;fill-rule:nonzero;fill:rgb(100%,84.3%,0%);fill-opacity:1;" d="M 157.074219 83.957031 C 157.074219 88.707031 153.222656 92.558594 148.472656 92.558594 C 143.722656 92.558594 139.871094 88.707031 139.871094 83.957031 C 139.871094 79.207031 143.722656 75.355469 148.472656 75.355469 C 153.222656 75.355469 157.074219 79.207031 157.074219 83.957031 "/>
<path style=" stroke:none;fill-rule:nonzero;fill:rgb(100%,84.3%,0%);fill-opacity:1;" d="M 170.839844 197.503906 C 170.839844 202.253906 166.988281 206.105469 162.238281 206.105469 C 157.484375 206.105469 153.636719 202.253906 153.636719 197.503906 C 153.636719 192.753906 157.484375 188.902344 162.238281 188.902344 C 166.988281 188.902344 170.839844 192.753906 170.839844 197.503906 "/>
<path style=" stroke:none;fill-rule:nonzero;fill:rgb(100%,84.3%,0%);fill-opacity:1;" d="M 277.503906 163.097656 C 277.503906 167.847656 273.652344 171.699219 268.902344 171.699219 C 264.152344 171.699219 260.300781 167.847656 260.300781 163.097656 C 260.300781 158.347656 264.152344 154.496094 268.902344 154.496094 C 273.652344 154.496094 277.503906 158.347656 277.503906 163.097656 "/>
<path style=" stroke:none;fill-rule:nonzero;fill:rgb(100%,84.3%,0%);fill-opacity:1;" d="M 318.796875 374.710938 C 318.796875 379.460938 314.945312 383.3125 310.195312 383.3125 C 305.441406 383.3125 301.59375 379.460938 301.59375 374.710938 C 301.59375 369.960938 305.441406 366.109375 310.195312 366.109375 C 314.945312 366.109375 318.796875 369.960938 318.796875 374.710938 "/>
<path style=" stroke:none;fill-rule:nonzero;fill:rgb(100%,84.3%,0%);fill-opacity:1;" d="M 188.042969 276.644531 C 188.042969 281.394531 184.191406 285.246094 179.441406 285.246094 C 174.691406 285.246094 170.839844 281.394531 170.839844 276.644531 C 170.839844 271.894531 174.691406 268.042969 179.441406 268.042969 C 184.191406 268.042969 188.042969 271.894531 188.042969 276.644531 "/>
<path style=" stroke:none;fill-rule:nonzero;fill:rgb(100%,84.3%,0%);fill-opacity:1;" d="M 320.515625 235.355469 C 320.515625 240.105469 316.664062 243.957031 311.914062 243.957031 C 307.164062 243.957031 303.3125 240.105469 303.3125 235.355469 C 303.3125 230.605469 307.164062 226.753906 311.914062 226.753906 C 316.664062 226.753906 320.515625 230.605469 320.515625 235.355469 "/>
<path style=" stroke:none;fill-rule:nonzero;fill:rgb(100%,84.3%,0%);fill-opacity:1;" d="M 251.699219 395.355469 C 251.699219 400.105469 247.847656 403.957031 243.097656 403.957031 C 238.347656 403.957031 234.496094 400.105469 234.496094 395.355469 C 234.496094 390.605469 238.347656 386.753906 243.097656 386.753906 C 247.847656 386.753906 251.699219 390.605469 251.699219 395.355469 "/>
</g>
</svg>
