<?xml version="1.0" encoding="UTF-8"?>
<svg xmlns="http://www.w3.org/2000/svg" xmlns:xlink="http://www.w3.org/1999/xlink" width="512pt" height="512pt" viewBox="0 0 512 512" version="1.1">
<g id="surface206">
<path style=" stroke:none;fill-rule:nonzero;fill:rgb(26.7%,26.7%,26.7%);fill-opacity:1;" d="M 31.8125 0 L 480.191406 0 L 480.191406 512 L 31.8125 512 Z M 31.8125 0 "/>
<path style=" stroke:none;fill-rule:nonzero;fill:rgb(19.2%,38.8%,66.7%);fill-opacity:1;" d="M 69.175781 42.667969 L 442.824219 42.667969 L 442.824219 469.332031 L 69.175781 469.332031 Z M 69.175781 42.667969 "/>
<path style=" stroke:none;fill-rule:nonzero;fill:rgb(100%,100%,100%);fill-opacity:1;" d="M 513.515625 171.425781 C 513.515625 178.394531 507.863281 184.046875 500.890625 184.046875 C 493.921875 184.046875 488.269531 178.394531 488.269531 171.425781 C 488.269531 164.453125 493.921875 158.800781 500.890625 158.800781 C 507.863281 158.800781 513.515625 164.453125 513.515625 171.425781 "/>
<path style=" stroke:none;fill-rule:nonzero;fill:rgb(100%,100%,100%);fill-opacity:1;" d="M 526.136719 441.5625 C 526.136719 448.535156 520.488281 454.183594 513.515625 454.183594 C 506.542969 454.183594 500.890625 448.535156 500.890625 441.5625 C 500.890625 434.589844 506.542969 428.9375 513.515625 428.9375 C 520.488281 428.9375 526.136719 434.589844 526.136719 441.5625 "/>
<path style=" stroke:none;fill-rule:nonzero;fill:rgb(100%,100%,100%);fill-opacity:1;" d="M 109.570312 19.945312 C 109.570312 26.917969 103.917969 32.566406 96.945312 32.566406 C 89.976562 32.566406 84.324219 26.917969 84.324219 19.945312 C 84.324219 12.972656 89.976562 7.320312 96.945312 7.320312 C 103.917969 7.320312 109.570312 12.972656 109.570312 19.945312 "/>
<path style=" stroke:none;fill-rule:nonzero;fill:rgb(100%,100%,100%);fill-opacity:1;" d="M 341.839844 -10.351562 C 341.839844 -3.378906 336.1875 2.273438 329.214844 2.273438 C 322.242188 2.273438 316.589844 -3.378906 316.589844 -10.351562 C 316.589844 -17.324219 322.242188 -22.972656 329.214844 -22.972656 C 336.1875 -22.972656 341.839844 -17.324219 341.839844 -10.351562 "/>
<path style=" stroke:none;fill-rule:nonzero;fill:rgb(100%,100%,100%);fill-opacity:1;" d="M 495.84375 363.296875 C 495.84375 370.269531 490.191406 375.921875 483.21875 375.921875 C 476.246094 375.921875 470.597656 370.269531 470.597656 363.296875 C 470.597656 356.328125 476.246094 350.675781 483.21875 350.675781 C 490.191406 350.675781 495.84375 356.328125 495.84375 363.296875 "/>
<path style=" stroke:none;fill-rule:nonzero;fill:rgb(100%,100%,100%);fill-opacity:1;" d="M 528.664062 396.117188 C 528.664062 403.089844 523.011719 408.742188 516.039062 408.742188 C 509.066406 408.742188 503.414062 403.089844 503.414062 396.117188 C 503.414062 389.144531 509.066406 383.496094 516.039062 383.496094 C 523.011719 383.496094 528.664062 389.144531 528.664062 396.117188 "/>
<path style=" stroke:none;fill-rule:nonzero;fill:rgb(100%,84.3%,0%);fill-opacity:1;" d="M 157.539062 95.683594 C 157.539062 102.65625 151.886719 108.308594 144.914062 108.308594 C 137.941406 108.308594 132.292969 102.65625 132.292969 95.683594 C 132.292969 88.710938 137.941406 83.0625 144.914062 83.0625 C 151.886719 83.0625 157.539062 88.710938 157.539062 95.683594 "/>
<path style=" stroke:none;fill-rule:nonzero;fill:rgb(100%,84.3%,0%);fill-opacity:1;" d="M 349.414062 128.503906 C 349.414062 135.476562 343.761719 141.128906 336.789062 141.128906 C 329.816406 141.128906 324.164062 135.476562 324.164062 128.503906 C 324.164062 121.535156 329.816406 115.882812 336.789062 115.882812 C 343.761719 115.882812 349.414062 121.535156 349.414062 128.503906 "/>
<path style=" stroke:none;fill-rule:nonzero;fill:rgb(100%,84.3%,0%);fill-opacity:1;" d="M 177.734375 156.277344 C 177.734375 163.246094 172.082031 168.898438 165.113281 168.898438 C 158.140625 168.898438 152.488281 163.246094 152.488281 156.277344 C 152.488281 149.304688 158.140625 143.652344 165.113281 143.652344 C 172.082031 143.652344 177.734375 149.304688 177.734375 156.277344 "/>
<path style=" stroke:none;fill-rule:nonzero;fill:rgb(100%,84.3%,0%);fill-opacity:1;" d="M 119.667969 229.492188 C 119.667969 236.460938 114.015625 242.113281 107.046875 242.113281 C 100.074219 242.113281 94.421875 236.460938 94.421875 229.492188 C 94.421875 222.519531 100.074219 216.867188 107.046875 216.867188 C 114.015625 216.867188 119.667969 222.519531 119.667969 229.492188 "/>
<path style=" stroke:none;fill-rule:nonzero;fill:rgb(100%,84.3%,0%);fill-opacity:1;" d="M 230.753906 103.257812 C 230.753906 110.230469 225.101562 115.882812 218.128906 115.882812 C 211.160156 115.882812 205.507812 110.230469 205.507812 103.257812 C 205.507812 96.285156 211.160156 90.632812 218.128906 90.632812 C 225.101562 90.632812 230.753906 96.285156 230.753906 103.257812 "/>
</g>
</svg>
