<?xml version="1.0" encoding="UTF-8"?>
<svg xmlns="http://www.w3.org/2000/svg" xmlns:xlink="http://www.w3.org/1999/xlink" width="512pt" height="512pt" viewBox="0 0 512 512" version="1.1">
<g id="surface211">
<path style=" stroke:none;fill-rule:nonzero;fill:rgb(26.7%,26.7%,26.7%);fill-opacity:1;" d="M 0 -1707.886719 L 330.363281 -1707.886719 L 330.363281 512 L 0 512 Z M 0 -1707.886719 "/>
<path style=" stroke:none;fill-rule:nonzero;fill:rgb(19.2%,38.8%,66.7%);fill-opacity:1;" d="M 25.601562 42.667969 L 281.601562 42.667969 L 281.601562 469.332031 L 25.601562 469.332031 Z M 25.601562 42.667969 "/>
<path style=" stroke:none;fill-rule:nonzero;fill:rgb(100%,84.3%,0%);fill-opacity:1;" d="M 159.695312 203.582031 C 159.695312 210.3125 154.238281 215.769531 147.503906 215.769531 C 140.773438 215.769531 135.316406 210.3125 135.316406 203.582031 C 135.316406 196.847656 140.773438 191.390625 147.503906 191.390625 C 154.238281 191.390625 159.695312 196.847656 159.695312 203.582031 "/>
<path style=" stroke:none;fill-rule:nonzero;fill:rgb(100%,84.3%,0%);fill-opacity:1;" d="M 142.628906 303.542969 C 142.628906 310.277344 137.171875 315.734375 130.4375 315.734375 C 123.707031 315.734375 118.246094 310.277344 118.246094 303.542969 C 118.246094 296.808594 123.707031 291.351562 130.4375 291.351562 C 137.171875 291.351562 142.628906 296.808594 142.628906 303.542969 "/>
<path style=" stroke:none;fill-rule:nonzero;fill:rgb(100%,84.3%,0%);fill-opacity:1;" d="M 74.363281 162.132812 C 74.363281 168.867188 68.902344 174.324219 62.171875 174.324219 C 55.4375 174.324219 49.980469 168.867188 49.980469 162.132812 C 49.980469 155.398438 55.4375 149.941406 62.171875 149.941406 C 68.902344 149.941406 74.363281 155.398438 74.363281 162.132812 "/>
<path style=" stroke:none;fill-rule:nonzero;fill:rgb(100%,84.3%,0%);fill-opacity:1;" d="M 215.769531 171.886719 C 215.769531 178.617188 210.3125 184.078125 203.582031 184.078125 C 196.847656 184.078125 191.390625 178.617188 191.390625 171.886719 C 191.390625 165.152344 196.847656 159.695312 203.582031 159.695312 C 210.3125 159.695312 215.769531 165.152344 215.769531 171.886719 "/>
<path style=" stroke:none;fill-rule:nonzero;fill:rgb(100%,84.3%,0%);fill-opacity:1;" d="M 96.304688 266.972656 C 96.304688 273.703125 90.847656 279.160156 84.113281 279.160156 C 77.382812 279.160156 71.921875 273.703125 71.921875 266.972656 C 71.921875 260.238281 77.382812 254.78125 84.113281 254.78125 C 90.847656 254.78125 96.304688 260.238281 96.304688 266.972656 "/>
</g>
</svg>
