<?xml version="1.0" encoding="UTF-8"?>
<svg xmlns="http://www.w3.org/2000/svg" xmlns:xlink="http://www.w3.org/1999/xlink" width="512pt" height="512pt" viewBox="0 0 512 512" version="1.1">
<g id="surface261">
<path style=" stroke:none;fill-rule:nonzero;fill:rgb(26.7%,26.7%,26.7%);fill-opacity:1;" d="M 0 186.019531 L 512 186.019531 L 512 325.984375 L 0 325.984375 Z M 0 186.019531 "/>
<path style=" stroke:none;fill-rule:nonzero;fill:rgb(19.2%,38.8%,66.7%);fill-opacity:1;" d="M 42.667969 197.683594 L 469.332031 197.683594 L 469.332031 314.320312 L 42.667969 314.320312 Z M 42.667969 197.683594 "/>
<path style=" stroke:none;fill-rule:nonzero;fill:rgb(100%,100%,100%);fill-opacity:1;" d="M 480.726562 338.90625 C 480.726562 340.902344 477.730469 340.902344 477.730469 338.90625 C 477.730469 336.90625 480.726562 336.90625 480.726562 338.90625 "/>
<path style=" stroke:none;fill-rule:nonzero;fill:rgb(100%,100%,100%);fill-opacity:1;" d="M 157.503906 457.039062 C 157.503906 459.039062 154.503906 459.039062 154.503906 457.039062 C 154.503906 455.042969 157.503906 455.042969 157.503906 457.039062 "/>
<path style=" stroke:none;fill-rule:nonzero;fill:rgb(100%,100%,100%);fill-opacity:1;" d="M 406.96875 320.914062 C 406.96875 322.914062 403.96875 322.914062 403.96875 320.914062 C 403.96875 318.914062 406.96875 318.914062 406.96875 320.914062 "/>
<path style=" stroke:none;fill-rule:nonzero;fill:rgb(100%,100%,100%);fill-opacity:1;" d="M 433.351562 173.09375 C 433.351562 175.09375 430.355469 175.09375 430.355469 173.09375 C 430.355469 171.097656 433.351562 171.097656 433.351562 173.09375 "/>
<path style=" stroke:none;fill-rule:nonzero;fill:rgb(100%,100%,100%);fill-opacity:1;" d="M 234.261719 454.042969 C 234.261719 456.039062 231.265625 456.039062 231.265625 454.042969 C 231.265625 452.042969 234.261719 452.042969 234.261719 454.042969 "/>
<path style=" stroke:none;fill-rule:nonzero;fill:rgb(100%,100%,100%);fill-opacity:1;" d="M 226.167969 85.242188 C 226.167969 87.242188 223.167969 87.242188 223.167969 85.242188 C 223.167969 83.242188 226.167969 83.242188 226.167969 85.242188 "/>
<path style=" stroke:none;fill-rule:nonzero;fill:rgb(100%,100%,100%);fill-opacity:1;" d="M 356.59375 144.3125 C 356.59375 146.308594 353.597656 146.308594 353.597656 144.3125 C 353.597656 142.3125 356.59375 142.3125 356.59375 144.3125 "/>
<path style=" stroke:none;fill-rule:nonzero;fill:rgb(100%,100%,100%);fill-opacity:1;" d="M 350 498.71875 C 350 500.714844 347 500.714844 347 498.71875 C 347 496.71875 350 496.71875 350 498.71875 "/>
<path style=" stroke:none;fill-rule:nonzero;fill:rgb(100%,100%,100%);fill-opacity:1;" d="M 170.097656 164.101562 C 170.097656 166.097656 167.097656 166.097656 167.097656 164.101562 C 167.097656 162.101562 170.097656 162.101562 170.097656 164.101562 "/>
<path style=" stroke:none;fill-rule:nonzero;fill:rgb(100%,100%,100%);fill-opacity:1;" d="M 58.558594 463.636719 C 58.558594 465.636719 55.558594 465.636719 55.558594 463.636719 C 55.558594 461.636719 58.558594 461.636719 58.558594 463.636719 "/>
<path style=" stroke:none;fill-rule:nonzero;fill:rgb(100%,100%,100%);fill-opacity:1;" d="M 495.121094 430.953125 C 495.121094 432.953125 492.121094 432.953125 492.121094 430.953125 C 492.121094 428.957031 495.121094 428.957031 495.121094 430.953125 "/>
<path style=" stroke:none;fill-rule:nonzero;fill:rgb(100%,100%,100%);fill-opacity:1;" d="M 52.5625 433.351562 C 52.5625 435.351562 49.5625 435.351562 49.5625 433.351562 C 49.5625 431.355469 52.5625 431.355469 52.5625 433.351562 "/>
<path style=" stroke:none;fill-rule:nonzero;fill:rgb(100%,100%,100%);fill-opacity:1;" d="M 304.125 367.390625 C 304.125 369.386719 301.125 369.386719 301.125 367.390625 C 301.125 365.390625 304.125 365.390625 304.125 367.390625 "/>
<path style=" stroke:none;fill-rule:nonzero;fill:rgb(100%,100%,100%);fill-opacity:1;" d="M 71.453125 86.441406 C 71.453125 88.441406 68.453125 88.441406 68.453125 86.441406 C 68.453125 84.445312 71.453125 84.445312 71.453125 86.441406 "/>
<path style=" stroke:none;fill-rule:nonzero;fill:rgb(100%,100%,100%);fill-opacity:1;" d="M 97.238281 166.5 C 97.238281 168.496094 94.238281 168.496094 94.238281 166.5 C 94.238281 164.5 97.238281 164.5 97.238281 166.5 "/>
<path style=" stroke:none;fill-rule:nonzero;fill:rgb(100%,100%,100%);fill-opacity:1;" d="M 513.410156 481.027344 C 513.410156 483.027344 510.410156 483.027344 510.410156 481.027344 C 510.410156 479.027344 513.410156 479.027344 513.410156 481.027344 "/>
<path style=" stroke:none;fill-rule:nonzero;fill:rgb(100%,100%,100%);fill-opacity:1;" d="M 166.800781 187.488281 C 166.800781 189.484375 163.800781 189.484375 163.800781 187.488281 C 163.800781 185.488281 166.800781 185.488281 166.800781 187.488281 "/>
<path style=" stroke:none;fill-rule:nonzero;fill:rgb(100%,100%,100%);fill-opacity:1;" d="M 176.691406 391.074219 C 176.691406 393.074219 173.695312 393.074219 173.695312 391.074219 C 173.695312 389.078125 176.691406 389.078125 176.691406 391.074219 "/>
<path style=" stroke:none;fill-rule:nonzero;fill:rgb(100%,100%,100%);fill-opacity:1;" d="M 123.320312 349.097656 C 123.320312 351.097656 120.324219 351.097656 120.324219 349.097656 C 120.324219 347.101562 123.320312 347.101562 123.320312 349.097656 "/>
<path style=" stroke:none;fill-rule:nonzero;fill:rgb(100%,100%,100%);fill-opacity:1;" d="M 335.304688 320.914062 C 335.304688 322.914062 332.308594 322.914062 332.308594 320.914062 C 332.308594 318.914062 335.304688 318.914062 335.304688 320.914062 "/>
<path style=" stroke:none;fill-rule:nonzero;fill:rgb(100%,100%,100%);fill-opacity:1;" d="M 425.558594 409.367188 C 425.558594 411.363281 422.558594 411.363281 422.558594 409.367188 C 422.558594 407.367188 425.558594 407.367188 425.558594 409.367188 "/>
<path style=" stroke:none;fill-rule:nonzero;fill:rgb(100%,100%,100%);fill-opacity:1;" d="M 392.875 450.742188 C 392.875 452.742188 389.875 452.742188 389.875 450.742188 C 389.875 448.742188 392.875 448.742188 392.875 450.742188 "/>
<path style=" stroke:none;fill-rule:nonzero;fill:rgb(100%,100%,100%);fill-opacity:1;" d="M 433.351562 81.644531 C 433.351562 83.644531 430.355469 83.644531 430.355469 81.644531 C 430.355469 79.644531 433.351562 79.644531 433.351562 81.644531 "/>
<path style=" stroke:none;fill-rule:nonzero;fill:rgb(100%,100%,100%);fill-opacity:1;" d="M 325.414062 408.167969 C 325.414062 410.164062 322.414062 410.164062 322.414062 408.167969 C 322.414062 406.167969 325.414062 406.167969 325.414062 408.167969 "/>
<path style=" stroke:none;fill-rule:nonzero;fill:rgb(100%,100%,100%);fill-opacity:1;" d="M 167.398438 338.003906 C 167.398438 340.003906 164.398438 340.003906 164.398438 338.003906 C 164.398438 336.007812 167.398438 336.007812 167.398438 338.003906 "/>
<path style=" stroke:none;fill-rule:nonzero;fill:rgb(100%,100%,100%);fill-opacity:1;" d="M 220.167969 414.761719 C 220.167969 416.761719 217.171875 416.761719 217.171875 414.761719 C 217.171875 412.765625 220.167969 412.765625 220.167969 414.761719 "/>
<path style=" stroke:none;fill-rule:nonzero;fill:rgb(100%,100%,100%);fill-opacity:1;" d="M 22.277344 202.179688 C 22.277344 204.179688 19.28125 204.179688 19.28125 202.179688 C 19.28125 200.179688 22.277344 200.179688 22.277344 202.179688 "/>
<path style=" stroke:none;fill-rule:nonzero;fill:rgb(100%,100%,100%);fill-opacity:1;" d="M 420.460938 155.40625 C 420.460938 157.402344 417.460938 157.402344 417.460938 155.40625 C 417.460938 153.40625 420.460938 153.40625 420.460938 155.40625 "/>
<path style=" stroke:none;fill-rule:nonzero;fill:rgb(100%,100%,100%);fill-opacity:1;" d="M 496.316406 80.445312 C 496.316406 82.445312 493.320312 82.445312 493.320312 80.445312 C 493.320312 78.445312 496.316406 78.445312 496.316406 80.445312 "/>
<path style=" stroke:none;fill-rule:nonzero;fill:rgb(100%,100%,100%);fill-opacity:1;" d="M 96.9375 466.636719 C 96.9375 468.632812 93.9375 468.632812 93.9375 466.636719 C 93.9375 464.636719 96.9375 464.636719 96.9375 466.636719 "/>
<path style=" stroke:none;fill-rule:nonzero;fill:rgb(100%,100%,100%);fill-opacity:1;" d="M 425.257812 154.804688 C 425.257812 156.804688 422.257812 156.804688 422.257812 154.804688 C 422.257812 152.804688 425.257812 152.804688 425.257812 154.804688 "/>
<path style=" stroke:none;fill-rule:nonzero;fill:rgb(100%,100%,100%);fill-opacity:1;" d="M 216.570312 363.191406 C 216.570312 365.191406 213.574219 365.191406 213.574219 363.191406 C 213.574219 361.191406 216.570312 361.191406 216.570312 363.191406 "/>
<path style=" stroke:none;fill-rule:nonzero;fill:rgb(100%,100%,100%);fill-opacity:1;" d="M 79.847656 113.726562 C 79.847656 115.726562 76.847656 115.726562 76.847656 113.726562 C 76.847656 111.730469 79.847656 111.730469 79.847656 113.726562 "/>
<path style=" stroke:none;fill-rule:nonzero;fill:rgb(100%,100%,100%);fill-opacity:1;" d="M 259.148438 342.203125 C 259.148438 344.203125 256.148438 344.203125 256.148438 342.203125 C 256.148438 340.203125 259.148438 340.203125 259.148438 342.203125 "/>
<path style=" stroke:none;fill-rule:nonzero;fill:rgb(100%,100%,100%);fill-opacity:1;" d="M 51.0625 443.546875 C 51.0625 445.546875 48.0625 445.546875 48.0625 443.546875 C 48.0625 441.546875 51.0625 441.546875 51.0625 443.546875 "/>
<path style=" stroke:none;fill-rule:nonzero;fill:rgb(100%,100%,100%);fill-opacity:1;" d="M 191.984375 191.683594 C 191.984375 193.683594 188.988281 193.683594 188.988281 191.683594 C 188.988281 189.6875 191.984375 189.6875 191.984375 191.683594 "/>
<path style=" stroke:none;fill-rule:nonzero;fill:rgb(100%,100%,100%);fill-opacity:1;" d="M 479.828125 336.507812 C 479.828125 338.503906 476.828125 338.503906 476.828125 336.507812 C 476.828125 334.507812 479.828125 334.507812 479.828125 336.507812 "/>
<path style=" stroke:none;fill-rule:nonzero;fill:rgb(100%,100%,100%);fill-opacity:1;" d="M 353.597656 398.871094 C 353.597656 400.871094 350.597656 400.871094 350.597656 398.871094 C 350.597656 396.875 353.597656 396.875 353.597656 398.871094 "/>
<path style=" stroke:none;fill-rule:nonzero;fill:rgb(100%,100%,100%);fill-opacity:1;" d="M 25.277344 76.847656 C 25.277344 78.847656 22.277344 78.847656 22.277344 76.847656 C 22.277344 74.847656 25.277344 74.847656 25.277344 76.847656 "/>
<path style=" stroke:none;fill-rule:nonzero;fill:rgb(100%,84.3%,0%);fill-opacity:1;" d="M 227.066406 201.578125 C 227.066406 203.578125 224.066406 203.578125 224.066406 201.578125 C 224.066406 199.582031 227.066406 199.582031 227.066406 201.578125 "/>
<path style=" stroke:none;fill-rule:nonzero;fill:rgb(100%,84.3%,0%);fill-opacity:1;" d="M 410.863281 305.921875 C 410.863281 307.921875 407.867188 307.921875 407.867188 305.921875 C 407.867188 303.925781 410.863281 303.925781 410.863281 305.921875 "/>
<path style=" stroke:none;fill-rule:nonzero;fill:rgb(100%,84.3%,0%);fill-opacity:1;" d="M 90.640625 201.28125 C 90.640625 203.277344 87.640625 203.277344 87.640625 201.28125 C 87.640625 199.28125 90.640625 199.28125 90.640625 201.28125 "/>
<path style=" stroke:none;fill-rule:nonzero;fill:rgb(100%,84.3%,0%);fill-opacity:1;" d="M 457.039062 212.675781 C 457.039062 214.671875 454.042969 214.671875 454.042969 212.675781 C 454.042969 210.675781 457.039062 210.675781 457.039062 212.675781 "/>
<path style=" stroke:none;fill-rule:nonzero;fill:rgb(100%,84.3%,0%);fill-opacity:1;" d="M 328.410156 303.824219 C 328.410156 305.824219 325.410156 305.824219 325.410156 303.824219 C 325.410156 301.824219 328.410156 301.824219 328.410156 303.824219 "/>
<path style=" stroke:none;fill-rule:nonzero;fill:rgb(100%,84.3%,0%);fill-opacity:1;" d="M 361.992188 308.320312 C 361.992188 310.320312 358.992188 310.320312 358.992188 308.320312 C 358.992188 306.320312 361.992188 306.320312 361.992188 308.320312 "/>
<path style=" stroke:none;fill-rule:nonzero;fill:rgb(100%,84.3%,0%);fill-opacity:1;" d="M 341.304688 298.726562 C 341.304688 300.726562 338.304688 300.726562 338.304688 298.726562 C 338.304688 296.726562 341.304688 296.726562 341.304688 298.726562 "/>
<path style=" stroke:none;fill-rule:nonzero;fill:rgb(100%,84.3%,0%);fill-opacity:1;" d="M 441.75 202.777344 C 441.75 204.777344 438.75 204.777344 438.75 202.777344 C 438.75 200.78125 441.75 200.78125 441.75 202.777344 "/>
<path style=" stroke:none;fill-rule:nonzero;fill:rgb(100%,84.3%,0%);fill-opacity:1;" d="M 407.867188 292.429688 C 407.867188 294.429688 404.867188 294.429688 404.867188 292.429688 C 404.867188 290.429688 407.867188 290.429688 407.867188 292.429688 "/>
<path style=" stroke:none;fill-rule:nonzero;fill:rgb(100%,84.3%,0%);fill-opacity:1;" d="M 434.550781 204.277344 C 434.550781 206.277344 431.554688 206.277344 431.554688 204.277344 C 431.554688 202.277344 434.550781 202.277344 434.550781 204.277344 "/>
<path style=" stroke:none;fill-rule:nonzero;fill:rgb(100%,84.3%,0%);fill-opacity:1;" d="M 122.421875 301.726562 C 122.421875 303.722656 119.425781 303.722656 119.425781 301.726562 C 119.425781 299.726562 122.421875 299.726562 122.421875 301.726562 "/>
<path style=" stroke:none;fill-rule:nonzero;fill:rgb(100%,84.3%,0%);fill-opacity:1;" d="M 90.339844 302.625 C 90.339844 304.625 87.34375 304.625 87.34375 302.625 C 87.34375 300.625 90.339844 300.625 90.339844 302.625 "/>
<path style=" stroke:none;fill-rule:nonzero;fill:rgb(100%,84.3%,0%);fill-opacity:1;" d="M 445.945312 272.640625 C 445.945312 274.640625 442.949219 274.640625 442.949219 272.640625 C 442.949219 270.640625 445.945312 270.640625 445.945312 272.640625 "/>
<path style=" stroke:none;fill-rule:nonzero;fill:rgb(100%,84.3%,0%);fill-opacity:1;" d="M 170.097656 290.929688 C 170.097656 292.929688 167.097656 292.929688 167.097656 290.929688 C 167.097656 288.933594 170.097656 288.933594 170.097656 290.929688 "/>
<path style=" stroke:none;fill-rule:nonzero;fill:rgb(100%,84.3%,0%);fill-opacity:1;" d="M 344.902344 242.355469 C 344.902344 244.355469 341.902344 244.355469 341.902344 242.355469 C 341.902344 240.359375 344.902344 240.359375 344.902344 242.355469 "/>
<path style=" stroke:none;fill-rule:nonzero;fill:rgb(100%,84.3%,0%);fill-opacity:1;" d="M 179.09375 239.359375 C 179.09375 241.359375 176.09375 241.359375 176.09375 239.359375 C 176.09375 237.359375 179.09375 237.359375 179.09375 239.359375 "/>
<path style=" stroke:none;fill-rule:nonzero;fill:rgb(100%,84.3%,0%);fill-opacity:1;" d="M 376.683594 233.660156 C 376.683594 235.660156 373.6875 235.660156 373.6875 233.660156 C 373.6875 231.664062 376.683594 231.664062 376.683594 233.660156 "/>
<path style=" stroke:none;fill-rule:nonzero;fill:rgb(100%,84.3%,0%);fill-opacity:1;" d="M 293.628906 288.230469 C 293.628906 290.230469 290.628906 290.230469 290.628906 288.230469 C 290.628906 286.234375 293.628906 286.234375 293.628906 288.230469 "/>
<path style=" stroke:none;fill-rule:nonzero;fill:rgb(100%,84.3%,0%);fill-opacity:1;" d="M 387.476562 228.566406 C 387.476562 230.5625 384.480469 230.5625 384.480469 228.566406 C 384.480469 226.566406 387.476562 226.566406 387.476562 228.566406 "/>
<path style=" stroke:none;fill-rule:nonzero;fill:rgb(100%,84.3%,0%);fill-opacity:1;" d="M 83.144531 239.960938 C 83.144531 241.957031 80.144531 241.957031 80.144531 239.960938 C 80.144531 237.960938 83.144531 237.960938 83.144531 239.960938 "/>
<path style=" stroke:none;fill-rule:nonzero;fill:rgb(100%,84.3%,0%);fill-opacity:1;" d="M 208.777344 295.429688 C 208.777344 297.425781 205.777344 297.425781 205.777344 295.429688 C 205.777344 293.429688 208.777344 293.429688 208.777344 295.429688 "/>
<path style=" stroke:none;fill-rule:nonzero;fill:rgb(100%,84.3%,0%);fill-opacity:1;" d="M 419.261719 260.347656 C 419.261719 262.347656 416.261719 262.347656 416.261719 260.347656 C 416.261719 258.347656 419.261719 258.347656 419.261719 260.347656 "/>
<path style=" stroke:none;fill-rule:nonzero;fill:rgb(100%,84.3%,0%);fill-opacity:1;" d="M 244.15625 237.859375 C 244.15625 239.859375 241.15625 239.859375 241.15625 237.859375 C 241.15625 235.859375 244.15625 235.859375 244.15625 237.859375 "/>
<path style=" stroke:none;fill-rule:nonzero;fill:rgb(100%,84.3%,0%);fill-opacity:1;" d="M 146.109375 218.070312 C 146.109375 220.070312 143.113281 220.070312 143.113281 218.070312 C 143.113281 216.070312 146.109375 216.070312 146.109375 218.070312 "/>
<path style=" stroke:none;fill-rule:nonzero;fill:rgb(100%,84.3%,0%);fill-opacity:1;" d="M 84.644531 274.140625 C 84.644531 276.140625 81.644531 276.140625 81.644531 274.140625 C 81.644531 272.140625 84.644531 272.140625 84.644531 274.140625 "/>
<path style=" stroke:none;fill-rule:nonzero;fill:rgb(100%,84.3%,0%);fill-opacity:1;" d="M 195.882812 280.136719 C 195.882812 282.136719 192.886719 282.136719 192.886719 280.136719 C 192.886719 278.136719 195.882812 278.136719 195.882812 280.136719 "/>
<path style=" stroke:none;fill-rule:nonzero;fill:rgb(100%,84.3%,0%);fill-opacity:1;" d="M 421.960938 305.921875 C 421.960938 307.921875 418.960938 307.921875 418.960938 305.921875 C 418.960938 303.925781 421.960938 303.925781 421.960938 305.921875 "/>
<path style=" stroke:none;fill-rule:nonzero;fill:rgb(100%,84.3%,0%);fill-opacity:1;" d="M 326.011719 215.671875 C 326.011719 217.671875 323.015625 217.671875 323.015625 215.671875 C 323.015625 213.671875 326.011719 213.671875 326.011719 215.671875 "/>
<path style=" stroke:none;fill-rule:nonzero;fill:rgb(100%,84.3%,0%);fill-opacity:1;" d="M 101.136719 265.445312 C 101.136719 267.445312 98.136719 267.445312 98.136719 265.445312 C 98.136719 263.445312 101.136719 263.445312 101.136719 265.445312 "/>
<path style=" stroke:none;fill-rule:nonzero;fill:rgb(100%,84.3%,0%);fill-opacity:1;" d="M 208.175781 232.464844 C 208.175781 234.460938 205.179688 234.460938 205.179688 232.464844 C 205.179688 230.464844 208.175781 230.464844 208.175781 232.464844 "/>
<path style=" stroke:none;fill-rule:nonzero;fill:rgb(100%,84.3%,0%);fill-opacity:1;" d="M 107.429688 273.242188 C 107.429688 275.238281 104.433594 275.238281 104.433594 273.242188 C 104.433594 271.242188 107.429688 271.242188 107.429688 273.242188 "/>
<path style=" stroke:none;fill-rule:nonzero;fill:rgb(100%,84.3%,0%);fill-opacity:1;" d="M 77.445312 254.949219 C 77.445312 256.949219 74.449219 256.949219 74.449219 254.949219 C 74.449219 252.953125 77.445312 252.953125 77.445312 254.949219 "/>
<path style=" stroke:none;fill-rule:nonzero;fill:rgb(100%,84.3%,0%);fill-opacity:1;" d="M 129.621094 275.039062 C 129.621094 277.039062 126.621094 277.039062 126.621094 275.039062 C 126.621094 273.042969 129.621094 273.042969 129.621094 275.039062 "/>
<path style=" stroke:none;fill-rule:nonzero;fill:rgb(100%,84.3%,0%);fill-opacity:1;" d="M 342.800781 204.277344 C 342.800781 206.277344 339.804688 206.277344 339.804688 204.277344 C 339.804688 202.277344 342.800781 202.277344 342.800781 204.277344 "/>
<path style=" stroke:none;fill-rule:nonzero;fill:rgb(100%,84.3%,0%);fill-opacity:1;" d="M 337.105469 207.875 C 337.105469 209.875 334.105469 209.875 334.105469 207.875 C 334.105469 205.878906 337.105469 205.878906 337.105469 207.875 "/>
<path style=" stroke:none;fill-rule:nonzero;fill:rgb(100%,84.3%,0%);fill-opacity:1;" d="M 282.234375 254.949219 C 282.234375 256.949219 279.238281 256.949219 279.238281 254.949219 C 279.238281 252.953125 282.234375 252.953125 282.234375 254.949219 "/>
<path style=" stroke:none;fill-rule:nonzero;fill:rgb(100%,84.3%,0%);fill-opacity:1;" d="M 213.875 245.65625 C 213.875 247.65625 210.875 247.65625 210.875 245.65625 C 210.875 243.65625 213.875 243.65625 213.875 245.65625 "/>
<path style=" stroke:none;fill-rule:nonzero;fill:rgb(100%,84.3%,0%);fill-opacity:1;" d="M 261.246094 211.773438 C 261.246094 213.773438 258.25 213.773438 258.25 211.773438 C 258.25 209.773438 261.246094 209.773438 261.246094 211.773438 "/>
<path style=" stroke:none;fill-rule:nonzero;fill:rgb(100%,84.3%,0%);fill-opacity:1;" d="M 340.703125 211.175781 C 340.703125 213.175781 337.703125 213.175781 337.703125 211.175781 C 337.703125 209.175781 340.703125 209.175781 340.703125 211.175781 "/>
<path style=" stroke:none;fill-rule:nonzero;fill:rgb(100%,84.3%,0%);fill-opacity:1;" d="M 166.199219 222.566406 C 166.199219 224.566406 163.199219 224.566406 163.199219 222.566406 C 163.199219 220.570312 166.199219 220.570312 166.199219 222.566406 "/>
<path style=" stroke:none;fill-rule:nonzero;fill:rgb(100%,84.3%,0%);fill-opacity:1;" d="M 279.539062 261.847656 C 279.539062 263.847656 276.539062 263.847656 276.539062 261.847656 C 276.539062 259.847656 279.539062 259.847656 279.539062 261.847656 "/>
<path style=" stroke:none;fill-rule:nonzero;fill:rgb(100%,84.3%,0%);fill-opacity:1;" d="M 281.9375 210.875 C 281.9375 212.875 278.9375 212.875 278.9375 210.875 C 278.9375 208.875 281.9375 208.875 281.9375 210.875 "/>
</g>
</svg>
