<?xml version="1.0" encoding="UTF-8"?>
<svg xmlns="http://www.w3.org/2000/svg" xmlns:xlink="http://www.w3.org/1999/xlink" width="512pt" height="512pt" viewBox="0 0 512 512" version="1.1">
<g id="surface266">
<path style=" stroke:none;fill-rule:nonzero;fill:rgb(26.7%,26.7%,26.7%);fill-opacity:1;" d="M 169.605469 0 L 342.398438 0 L 342.398438 512 L 169.605469 512 Z M 169.605469 0 "/>
<path style=" stroke:none;fill-rule:nonzero;fill:rgb(19.2%,38.8%,66.7%);fill-opacity:1;" d="M 184.003906 42.667969 L 327.996094 42.667969 L 327.996094 469.332031 L 184.003906 469.332031 Z M 184.003906 42.667969 "/>
<path style=" stroke:none;fill-rule:nonzero;fill:rgb(100%,100%,100%);fill-opacity:1;" d="M 417.527344 383.785156 C 417.527344 385.558594 414.871094 385.558594 414.871094 383.785156 C 414.871094 382.015625 417.527344 382.015625 417.527344 383.785156 "/>
<path style=" stroke:none;fill-rule:nonzero;fill:rgb(100%,100%,100%);fill-opacity:1;" d="M 153.453125 319.761719 C 153.453125 321.53125 150.792969 321.53125 150.792969 319.761719 C 150.792969 317.988281 153.453125 317.988281 153.453125 319.761719 "/>
<path style=" stroke:none;fill-rule:nonzero;fill:rgb(100%,100%,100%);fill-opacity:1;" d="M 139.636719 404.511719 C 139.636719 406.28125 136.980469 406.28125 136.980469 404.511719 C 136.980469 402.738281 139.636719 402.738281 139.636719 404.511719 "/>
<path style=" stroke:none;fill-rule:nonzero;fill:rgb(100%,100%,100%);fill-opacity:1;" d="M 70.296875 202.335938 C 70.296875 204.105469 67.640625 204.105469 67.640625 202.335938 C 67.640625 200.5625 70.296875 200.5625 70.296875 202.335938 "/>
<path style=" stroke:none;fill-rule:nonzero;fill:rgb(100%,100%,100%);fill-opacity:1;" d="M 144.152344 324.542969 C 144.152344 326.3125 141.496094 326.3125 141.496094 324.542969 C 141.496094 322.773438 144.152344 322.773438 144.152344 324.542969 "/>
<path style=" stroke:none;fill-rule:nonzero;fill:rgb(100%,100%,100%);fill-opacity:1;" d="M 82.515625 54.089844 C 82.515625 55.859375 79.859375 55.859375 79.859375 54.089844 C 79.859375 52.320312 82.515625 52.320312 82.515625 54.089844 "/>
<path style=" stroke:none;fill-rule:nonzero;fill:rgb(100%,100%,100%);fill-opacity:1;" d="M 414.871094 99.785156 C 414.871094 101.558594 412.214844 101.558594 412.214844 99.785156 C 412.214844 98.015625 414.871094 98.015625 414.871094 99.785156 "/>
<path style=" stroke:none;fill-rule:nonzero;fill:rgb(100%,100%,100%);fill-opacity:1;" d="M 415.402344 235.542969 C 415.402344 237.3125 412.746094 237.3125 412.746094 235.542969 C 412.746094 233.773438 415.402344 233.773438 415.402344 235.542969 "/>
<path style=" stroke:none;fill-rule:nonzero;fill:rgb(100%,100%,100%);fill-opacity:1;" d="M 138.574219 44.527344 C 138.574219 46.296875 135.917969 46.296875 135.917969 44.527344 C 135.917969 42.753906 138.574219 42.753906 138.574219 44.527344 "/>
<path style=" stroke:none;fill-rule:nonzero;fill:rgb(100%,100%,100%);fill-opacity:1;" d="M 359.878906 315.242188 C 359.878906 317.015625 357.21875 317.015625 357.21875 315.242188 C 357.21875 313.472656 359.878906 313.472656 359.878906 315.242188 "/>
<path style=" stroke:none;fill-rule:nonzero;fill:rgb(100%,100%,100%);fill-opacity:1;" d="M 93.675781 99.785156 C 93.675781 101.558594 91.019531 101.558594 91.019531 99.785156 C 91.019531 98.015625 93.675781 98.015625 93.675781 99.785156 "/>
<path style=" stroke:none;fill-rule:nonzero;fill:rgb(100%,100%,100%);fill-opacity:1;" d="M 489.257812 445.421875 C 489.257812 447.195312 486.601562 447.195312 486.601562 445.421875 C 486.601562 443.652344 489.257812 443.652344 489.257812 445.421875 "/>
<path style=" stroke:none;fill-rule:nonzero;fill:rgb(100%,100%,100%);fill-opacity:1;" d="M 429.75 272.738281 C 429.75 274.507812 427.089844 274.507812 427.089844 272.738281 C 427.089844 270.964844 429.75 270.964844 429.75 272.738281 "/>
<path style=" stroke:none;fill-rule:nonzero;fill:rgb(100%,100%,100%);fill-opacity:1;" d="M 350.578125 212.695312 C 350.578125 214.46875 347.921875 214.46875 347.921875 212.695312 C 347.921875 210.925781 350.578125 210.925781 350.578125 212.695312 "/>
<path style=" stroke:none;fill-rule:nonzero;fill:rgb(100%,100%,100%);fill-opacity:1;" d="M 0.160156 427.890625 C 0.160156 429.660156 -2.496094 429.660156 -2.496094 427.890625 C -2.496094 426.117188 0.160156 426.117188 0.160156 427.890625 "/>
<path style=" stroke:none;fill-rule:nonzero;fill:rgb(100%,100%,100%);fill-opacity:1;" d="M 511.042969 375.550781 C 511.042969 377.324219 508.386719 377.324219 508.386719 375.550781 C 508.386719 373.78125 511.042969 373.78125 511.042969 375.550781 "/>
<path style=" stroke:none;fill-rule:nonzero;fill:rgb(100%,100%,100%);fill-opacity:1;" d="M 77.46875 325.871094 C 77.46875 327.640625 74.8125 327.640625 74.8125 325.871094 C 74.8125 324.101562 77.46875 324.101562 77.46875 325.871094 "/>
<path style=" stroke:none;fill-rule:nonzero;fill:rgb(100%,100%,100%);fill-opacity:1;" d="M 172.3125 223.589844 C 172.3125 225.359375 169.65625 225.359375 169.65625 223.589844 C 169.65625 221.816406 172.3125 221.816406 172.3125 223.589844 "/>
<path style=" stroke:none;fill-rule:nonzero;fill:rgb(100%,100%,100%);fill-opacity:1;" d="M 424.433594 397.335938 C 424.433594 399.109375 421.777344 399.109375 421.777344 397.335938 C 421.777344 395.566406 424.433594 395.566406 424.433594 397.335938 "/>
<path style=" stroke:none;fill-rule:nonzero;fill:rgb(100%,100%,100%);fill-opacity:1;" d="M 411.683594 -1.167969 C 411.683594 0.601562 409.027344 0.601562 409.027344 -1.167969 C 409.027344 -2.941406 411.683594 -2.941406 411.683594 -1.167969 "/>
<path style=" stroke:none;fill-rule:nonzero;fill:rgb(100%,84.3%,0%);fill-opacity:1;" d="M 295.054688 101.644531 C 295.054688 103.417969 292.398438 103.417969 292.398438 101.644531 C 292.398438 99.875 295.054688 99.875 295.054688 101.644531 "/>
<path style=" stroke:none;fill-rule:nonzero;fill:rgb(100%,84.3%,0%);fill-opacity:1;" d="M 285.222656 442.765625 C 285.222656 444.539062 282.566406 444.539062 282.566406 442.765625 C 282.566406 440.996094 285.222656 440.996094 285.222656 442.765625 "/>
<path style=" stroke:none;fill-rule:nonzero;fill:rgb(100%,84.3%,0%);fill-opacity:1;" d="M 302.226562 291.867188 C 302.226562 293.636719 299.570312 293.636719 299.570312 291.867188 C 299.570312 290.09375 302.226562 290.09375 302.226562 291.867188 "/>
<path style=" stroke:none;fill-rule:nonzero;fill:rgb(100%,84.3%,0%);fill-opacity:1;" d="M 282.832031 450.203125 C 282.832031 451.976562 280.175781 451.976562 280.175781 450.203125 C 280.175781 448.433594 282.832031 448.433594 282.832031 450.203125 "/>
<path style=" stroke:none;fill-rule:nonzero;fill:rgb(100%,84.3%,0%);fill-opacity:1;" d="M 319.230469 207.117188 C 319.230469 208.886719 316.574219 208.886719 316.574219 207.117188 C 316.574219 205.347656 319.230469 205.347656 319.230469 207.117188 "/>
<path style=" stroke:none;fill-rule:nonzero;fill:rgb(100%,84.3%,0%);fill-opacity:1;" d="M 261.578125 343.671875 C 261.578125 345.441406 258.921875 345.441406 258.921875 343.671875 C 258.921875 341.898438 261.578125 341.898438 261.578125 343.671875 "/>
<path style=" stroke:none;fill-rule:nonzero;fill:rgb(100%,84.3%,0%);fill-opacity:1;" d="M 312.324219 117.585938 C 312.324219 119.355469 309.664062 119.355469 309.664062 117.585938 C 309.664062 115.816406 312.324219 115.816406 312.324219 117.585938 "/>
<path style=" stroke:none;fill-rule:nonzero;fill:rgb(100%,84.3%,0%);fill-opacity:1;" d="M 317.105469 131.933594 C 317.105469 133.703125 314.449219 133.703125 314.449219 131.933594 C 314.449219 130.160156 317.105469 130.160156 317.105469 131.933594 "/>
<path style=" stroke:none;fill-rule:nonzero;fill:rgb(100%,84.3%,0%);fill-opacity:1;" d="M 316.574219 200.210938 C 316.574219 201.980469 313.914062 201.980469 313.914062 200.210938 C 313.914062 198.4375 316.574219 198.4375 316.574219 200.210938 "/>
<path style=" stroke:none;fill-rule:nonzero;fill:rgb(100%,84.3%,0%);fill-opacity:1;" d="M 308.601562 201.007812 C 308.601562 202.777344 305.945312 202.777344 305.945312 201.007812 C 305.945312 199.234375 308.601562 199.234375 308.601562 201.007812 "/>
<path style=" stroke:none;fill-rule:nonzero;fill:rgb(100%,84.3%,0%);fill-opacity:1;" d="M 223.855469 446.21875 C 223.855469 447.992188 221.199219 447.992188 221.199219 446.21875 C 221.199219 444.449219 223.855469 444.449219 223.855469 446.21875 "/>
<path style=" stroke:none;fill-rule:nonzero;fill:rgb(100%,84.3%,0%);fill-opacity:1;" d="M 209.507812 347.921875 C 209.507812 349.691406 206.851562 349.691406 206.851562 347.921875 C 206.851562 346.152344 209.507812 346.152344 209.507812 347.921875 "/>
<path style=" stroke:none;fill-rule:nonzero;fill:rgb(100%,84.3%,0%);fill-opacity:1;" d="M 282.832031 384.851562 C 282.832031 386.621094 280.175781 386.621094 280.175781 384.851562 C 280.175781 383.078125 282.832031 383.078125 282.832031 384.851562 "/>
<path style=" stroke:none;fill-rule:nonzero;fill:rgb(100%,84.3%,0%);fill-opacity:1;" d="M 208.179688 465.347656 C 208.179688 467.117188 205.523438 467.117188 205.523438 465.347656 C 205.523438 463.578125 208.179688 463.578125 208.179688 465.347656 "/>
<path style=" stroke:none;fill-rule:nonzero;fill:rgb(100%,84.3%,0%);fill-opacity:1;" d="M 277.253906 290.269531 C 277.253906 292.042969 274.597656 292.042969 274.597656 290.269531 C 274.597656 288.5 277.253906 288.5 277.253906 290.269531 "/>
<path style=" stroke:none;fill-rule:nonzero;fill:rgb(100%,84.3%,0%);fill-opacity:1;" d="M 320.027344 392.820312 C 320.027344 394.589844 317.371094 394.589844 317.371094 392.820312 C 317.371094 391.050781 320.027344 391.050781 320.027344 392.820312 "/>
<path style=" stroke:none;fill-rule:nonzero;fill:rgb(100%,84.3%,0%);fill-opacity:1;" d="M 193.566406 180.816406 C 193.566406 182.585938 190.910156 182.585938 190.910156 180.816406 C 190.910156 179.042969 193.566406 179.042969 193.566406 180.816406 "/>
<path style=" stroke:none;fill-rule:nonzero;fill:rgb(100%,84.3%,0%);fill-opacity:1;" d="M 203.132812 285.753906 C 203.132812 287.527344 200.476562 287.527344 200.476562 285.753906 C 200.476562 283.984375 203.132812 283.984375 203.132812 285.753906 "/>
<path style=" stroke:none;fill-rule:nonzero;fill:rgb(100%,84.3%,0%);fill-opacity:1;" d="M 258.390625 178.425781 C 258.390625 180.195312 255.734375 180.195312 255.734375 178.425781 C 255.734375 176.652344 258.390625 176.652344 258.390625 178.425781 "/>
<path style=" stroke:none;fill-rule:nonzero;fill:rgb(100%,84.3%,0%);fill-opacity:1;" d="M 202.335938 293.726562 C 202.335938 295.496094 199.675781 295.496094 199.675781 293.726562 C 199.675781 291.953125 202.335938 291.953125 202.335938 293.726562 "/>
<path style=" stroke:none;fill-rule:nonzero;fill:rgb(100%,84.3%,0%);fill-opacity:1;" d="M 265.828125 364.128906 C 265.828125 365.898438 263.171875 365.898438 263.171875 364.128906 C 263.171875 362.355469 265.828125 362.355469 265.828125 364.128906 "/>
<path style=" stroke:none;fill-rule:nonzero;fill:rgb(100%,84.3%,0%);fill-opacity:1;" d="M 314.714844 421.777344 C 314.714844 423.550781 312.058594 423.550781 312.058594 421.777344 C 312.058594 420.007812 314.714844 420.007812 314.714844 421.777344 "/>
<path style=" stroke:none;fill-rule:nonzero;fill:rgb(100%,84.3%,0%);fill-opacity:1;" d="M 315.511719 100.316406 C 315.511719 102.089844 312.855469 102.089844 312.855469 100.316406 C 312.855469 98.546875 315.511719 98.546875 315.511719 100.316406 "/>
<path style=" stroke:none;fill-rule:nonzero;fill:rgb(100%,84.3%,0%);fill-opacity:1;" d="M 230.230469 440.375 C 230.230469 442.144531 227.574219 442.144531 227.574219 440.375 C 227.574219 438.605469 230.230469 438.605469 230.230469 440.375 "/>
<path style=" stroke:none;fill-rule:nonzero;fill:rgb(100%,84.3%,0%);fill-opacity:1;" d="M 254.40625 410.886719 C 254.40625 412.65625 251.75 412.65625 251.75 410.886719 C 251.75 409.113281 254.40625 409.113281 254.40625 410.886719 "/>
<path style=" stroke:none;fill-rule:nonzero;fill:rgb(100%,84.3%,0%);fill-opacity:1;" d="M 310.460938 247.5 C 310.460938 249.269531 307.804688 249.269531 307.804688 247.5 C 307.804688 245.726562 310.460938 245.726562 310.460938 247.5 "/>
</g>
</svg>
