<?xml version="1.0" encoding="UTF-8"?>
<svg xmlns="http://www.w3.org/2000/svg" xmlns:xlink="http://www.w3.org/1999/xlink" width="512pt" height="512pt" viewBox="0 0 512 512" version="1.1">
<g id="surface286">
<path style=" stroke:none;fill-rule:nonzero;fill:rgb(26.7%,26.7%,26.7%);fill-opacity:1;" d="M 217.609375 0 L 294.390625 0 L 294.390625 512 L 217.609375 512 Z M 217.609375 0 "/>
<path style=" stroke:none;fill-rule:nonzero;fill:rgb(19.2%,38.8%,66.7%);fill-opacity:1;" d="M 224.007812 42.667969 L 287.992188 42.667969 L 287.992188 469.332031 L 224.007812 469.332031 Z M 224.007812 42.667969 "/>
<path style=" stroke:none;fill-rule:nonzero;fill:rgb(90.6%,14.9%,14.9%);fill-opacity:1;" d="M 482.9375 35.492188 C 482.9375 42.097656 477.582031 47.449219 470.976562 47.449219 C 464.371094 47.449219 459.019531 42.097656 459.019531 35.492188 C 459.019531 28.886719 464.371094 23.53125 470.976562 23.53125 C 477.582031 23.53125 482.9375 28.886719 482.9375 35.492188 "/>
<path style=" stroke:none;fill-rule:nonzero;fill:rgb(100%,100%,100%);fill-opacity:1;" d="M 418.953125 124.589844 C 418.953125 126.585938 415.964844 126.585938 415.964844 124.589844 C 415.964844 122.597656 418.953125 122.597656 418.953125 124.589844 "/>
<path style=" stroke:none;fill-rule:nonzero;fill:rgb(100%,100%,100%);fill-opacity:1;" d="M 339.421875 65.089844 C 339.421875 67.085938 336.429688 67.085938 336.429688 65.089844 C 336.429688 63.097656 339.421875 63.097656 339.421875 65.089844 "/>
<path style=" stroke:none;fill-rule:nonzero;fill:rgb(100%,100%,100%);fill-opacity:1;" d="M 408.488281 202.628906 C 408.488281 204.621094 405.496094 204.621094 405.496094 202.628906 C 405.496094 200.636719 408.488281 200.636719 408.488281 202.628906 "/>
<path style=" stroke:none;fill-rule:nonzero;fill:rgb(100%,100%,100%);fill-opacity:1;" d="M 158.226562 253.460938 C 158.226562 255.453125 155.238281 255.453125 155.238281 253.460938 C 155.238281 251.464844 158.226562 251.464844 158.226562 253.460938 "/>
<path style=" stroke:none;fill-rule:nonzero;fill:rgb(100%,100%,100%);fill-opacity:1;" d="M 385.464844 410.730469 C 385.464844 412.722656 382.476562 412.722656 382.476562 410.730469 C 382.476562 408.738281 385.464844 408.738281 385.464844 410.730469 "/>
<path style=" stroke:none;fill-rule:nonzero;fill:rgb(100%,100%,100%);fill-opacity:1;" d="M 42.515625 143.128906 C 42.515625 145.121094 39.527344 145.121094 39.527344 143.128906 C 39.527344 141.136719 42.515625 141.136719 42.515625 143.128906 "/>
<path style=" stroke:none;fill-rule:nonzero;fill:rgb(100%,100%,100%);fill-opacity:1;" d="M 481.742188 347.941406 C 481.742188 349.933594 478.753906 349.933594 478.753906 347.941406 C 478.753906 345.949219 481.742188 345.949219 481.742188 347.941406 "/>
<path style=" stroke:none;fill-rule:nonzero;fill:rgb(100%,100%,100%);fill-opacity:1;" d="M 322.378906 230.136719 C 322.378906 232.128906 319.386719 232.128906 319.386719 230.136719 C 319.386719 228.144531 322.378906 228.144531 322.378906 230.136719 "/>
<path style=" stroke:none;fill-rule:nonzero;fill:rgb(100%,100%,100%);fill-opacity:1;" d="M 469.484375 376.347656 C 469.484375 378.339844 466.492188 378.339844 466.492188 376.347656 C 466.492188 374.351562 469.484375 374.351562 469.484375 376.347656 "/>
<path style=" stroke:none;fill-rule:nonzero;fill:rgb(100%,100%,100%);fill-opacity:1;" d="M 341.511719 436.445312 C 341.511719 438.4375 338.523438 438.4375 338.523438 436.445312 C 338.523438 434.449219 341.511719 434.449219 341.511719 436.445312 "/>
<path style=" stroke:none;fill-rule:nonzero;fill:rgb(100%,100%,100%);fill-opacity:1;" d="M 76.304688 128.476562 C 76.304688 130.472656 73.3125 130.472656 73.3125 128.476562 C 73.3125 126.484375 76.304688 126.484375 76.304688 128.476562 "/>
<path style=" stroke:none;fill-rule:nonzero;fill:rgb(100%,100%,100%);fill-opacity:1;" d="M 236.265625 38.78125 C 236.265625 40.773438 233.277344 40.773438 233.277344 38.78125 C 233.277344 36.785156 236.265625 36.785156 236.265625 38.78125 "/>
<path style=" stroke:none;fill-rule:nonzero;fill:rgb(100%,100%,100%);fill-opacity:1;" d="M 39.824219 495.945312 C 39.824219 497.9375 36.835938 497.9375 36.835938 495.945312 C 36.835938 493.949219 39.824219 493.949219 39.824219 495.945312 "/>
<path style=" stroke:none;fill-rule:nonzero;fill:rgb(100%,100%,100%);fill-opacity:1;" d="M 398.921875 207.414062 C 398.921875 209.40625 395.929688 209.40625 395.929688 207.414062 C 395.929688 205.417969 398.921875 205.417969 398.921875 207.414062 "/>
<path style=" stroke:none;fill-rule:nonzero;fill:rgb(100%,100%,100%);fill-opacity:1;" d="M 323.574219 323.125 C 323.574219 325.117188 320.582031 325.117188 320.582031 323.125 C 320.582031 321.132812 323.574219 321.132812 323.574219 323.125 "/>
<path style=" stroke:none;fill-rule:nonzero;fill:rgb(100%,100%,100%);fill-opacity:1;" d="M 159.125 263.324219 C 159.125 265.316406 156.136719 265.316406 156.136719 263.324219 C 156.136719 261.332031 159.125 261.332031 159.125 263.324219 "/>
<path style=" stroke:none;fill-rule:nonzero;fill:rgb(100%,100%,100%);fill-opacity:1;" d="M 501.773438 311.761719 C 501.773438 313.757812 498.785156 313.757812 498.785156 311.761719 C 498.785156 309.769531 501.773438 309.769531 501.773438 311.761719 "/>
<path style=" stroke:none;fill-rule:nonzero;fill:rgb(100%,100%,100%);fill-opacity:1;" d="M 426.128906 131.46875 C 426.128906 133.460938 423.136719 133.460938 423.136719 131.46875 C 423.136719 129.476562 426.128906 129.476562 426.128906 131.46875 "/>
<path style=" stroke:none;fill-rule:nonzero;fill:rgb(100%,100%,100%);fill-opacity:1;" d="M 295.765625 488.171875 C 295.765625 490.164062 292.777344 490.164062 292.777344 488.171875 C 292.777344 486.175781 295.765625 486.175781 295.765625 488.171875 "/>
<path style=" stroke:none;fill-rule:nonzero;fill:rgb(100%,100%,100%);fill-opacity:1;" d="M 435.398438 356.910156 C 435.398438 358.90625 432.40625 358.90625 432.40625 356.910156 C 432.40625 354.917969 435.398438 354.917969 435.398438 356.910156 "/>
<path style=" stroke:none;fill-rule:nonzero;fill:rgb(100%,100%,100%);fill-opacity:1;" d="M 307.128906 330.300781 C 307.128906 332.292969 304.136719 332.292969 304.136719 330.300781 C 304.136719 328.308594 307.128906 328.308594 307.128906 330.300781 "/>
<path style=" stroke:none;fill-rule:nonzero;fill:rgb(100%,100%,100%);fill-opacity:1;" d="M 344.203125 291.132812 C 344.203125 293.125 341.214844 293.125 341.214844 291.132812 C 341.214844 289.140625 344.203125 289.140625 344.203125 291.132812 "/>
<path style=" stroke:none;fill-rule:nonzero;fill:rgb(100%,100%,100%);fill-opacity:1;" d="M 343.308594 369.769531 C 343.308594 371.761719 340.316406 371.761719 340.316406 369.769531 C 340.316406 367.773438 343.308594 367.773438 343.308594 369.769531 "/>
<path style=" stroke:none;fill-rule:nonzero;fill:rgb(100%,100%,100%);fill-opacity:1;" d="M 85.273438 49.542969 C 85.273438 51.539062 82.285156 51.539062 82.285156 49.542969 C 82.285156 47.550781 85.273438 47.550781 85.273438 49.542969 "/>
<path style=" stroke:none;fill-rule:nonzero;fill:rgb(100%,100%,100%);fill-opacity:1;" d="M 115.171875 164.058594 C 115.171875 166.050781 112.183594 166.050781 112.183594 164.058594 C 112.183594 162.066406 115.171875 162.066406 115.171875 164.058594 "/>
<path style=" stroke:none;fill-rule:nonzero;fill:rgb(100%,100%,100%);fill-opacity:1;" d="M 188.128906 259.140625 C 188.128906 261.132812 185.136719 261.132812 185.136719 259.140625 C 185.136719 257.144531 188.128906 257.144531 188.128906 259.140625 "/>
<path style=" stroke:none;fill-rule:nonzero;fill:rgb(100%,100%,100%);fill-opacity:1;" d="M 109.789062 281.5625 C 109.789062 283.558594 106.800781 283.558594 106.800781 281.5625 C 106.800781 279.570312 109.789062 279.570312 109.789062 281.5625 "/>
<path style=" stroke:none;fill-rule:nonzero;fill:rgb(100%,100%,100%);fill-opacity:1;" d="M 356.464844 86.917969 C 356.464844 88.910156 353.472656 88.910156 353.472656 86.917969 C 353.472656 84.925781 356.464844 84.925781 356.464844 86.917969 "/>
<path style=" stroke:none;fill-rule:nonzero;fill:rgb(100%,100%,100%);fill-opacity:1;" d="M 386.960938 89.308594 C 386.960938 91.304688 383.96875 91.304688 383.96875 89.308594 C 383.96875 87.316406 386.960938 87.316406 386.960938 89.308594 "/>
<path style=" stroke:none;fill-rule:nonzero;fill:rgb(100%,100%,100%);fill-opacity:1;" d="M 206.066406 141.035156 C 206.066406 143.03125 203.078125 143.03125 203.078125 141.035156 C 203.078125 139.042969 206.066406 139.042969 206.066406 141.035156 "/>
<path style=" stroke:none;fill-rule:nonzero;fill:rgb(100%,100%,100%);fill-opacity:1;" d="M 31.15625 127.582031 C 31.15625 129.574219 28.164062 129.574219 28.164062 127.582031 C 28.164062 125.585938 31.15625 125.585938 31.15625 127.582031 "/>
<path style=" stroke:none;fill-rule:nonzero;fill:rgb(100%,100%,100%);fill-opacity:1;" d="M 69.726562 129.074219 C 69.726562 131.070312 66.734375 131.070312 66.734375 129.074219 C 66.734375 127.082031 69.726562 127.082031 69.726562 129.074219 "/>
<path style=" stroke:none;fill-rule:nonzero;fill:rgb(100%,100%,100%);fill-opacity:1;" d="M 405.496094 101.867188 C 405.496094 103.859375 402.507812 103.859375 402.507812 101.867188 C 402.507812 99.875 405.496094 99.875 405.496094 101.867188 "/>
<path style=" stroke:none;fill-rule:nonzero;fill:rgb(100%,100%,100%);fill-opacity:1;" d="M 49.992188 140.4375 C 49.992188 142.429688 47.003906 142.429688 47.003906 140.4375 C 47.003906 138.445312 49.992188 138.445312 49.992188 140.4375 "/>
<path style=" stroke:none;fill-rule:nonzero;fill:rgb(100%,100%,100%);fill-opacity:1;" d="M 488.320312 226.847656 C 488.320312 228.839844 485.328125 228.839844 485.328125 226.847656 C 485.328125 224.855469 488.320312 224.855469 488.320312 226.847656 "/>
<path style=" stroke:none;fill-rule:nonzero;fill:rgb(100%,100%,100%);fill-opacity:1;" d="M 502.671875 42.070312 C 502.671875 44.0625 499.679688 44.0625 499.679688 42.070312 C 499.679688 40.074219 502.671875 40.074219 502.671875 42.070312 "/>
<path style=" stroke:none;fill-rule:nonzero;fill:rgb(100%,100%,100%);fill-opacity:1;" d="M 295.167969 2.898438 C 295.167969 4.894531 292.179688 4.894531 292.179688 2.898438 C 292.179688 0.90625 295.167969 0.90625 295.167969 2.898438 "/>
<path style=" stroke:none;fill-rule:nonzero;fill:rgb(100%,100%,100%);fill-opacity:1;" d="M 75.40625 321.628906 C 75.40625 323.625 72.417969 323.625 72.417969 321.628906 C 72.417969 319.636719 75.40625 319.636719 75.40625 321.628906 "/>
<path style=" stroke:none;fill-rule:nonzero;fill:rgb(100%,100%,100%);fill-opacity:1;" d="M 333.140625 458.570312 C 333.140625 460.5625 330.152344 460.5625 330.152344 458.570312 C 330.152344 456.574219 333.140625 456.574219 333.140625 458.570312 "/>
<path style=" stroke:none;fill-rule:nonzero;fill:rgb(100%,100%,100%);fill-opacity:1;" d="M 351.679688 474.414062 C 351.679688 476.410156 348.6875 476.410156 348.6875 474.414062 C 348.6875 472.421875 351.679688 472.421875 351.679688 474.414062 "/>
<path style=" stroke:none;fill-rule:nonzero;fill:rgb(100%,100%,100%);fill-opacity:1;" d="M 15.011719 303.988281 C 15.011719 305.980469 12.019531 305.980469 12.019531 303.988281 C 12.019531 301.996094 15.011719 301.996094 15.011719 303.988281 "/>
<path style=" stroke:none;fill-rule:nonzero;fill:rgb(100%,100%,100%);fill-opacity:1;" d="M 168.394531 61.800781 C 168.394531 63.796875 165.402344 63.796875 165.402344 61.800781 C 165.402344 59.808594 168.394531 59.808594 168.394531 61.800781 "/>
<path style=" stroke:none;fill-rule:nonzero;fill:rgb(100%,100%,100%);fill-opacity:1;" d="M 52.683594 60.308594 C 52.683594 62.300781 49.691406 62.300781 49.691406 60.308594 C 49.691406 58.3125 52.683594 58.3125 52.683594 60.308594 "/>
<path style=" stroke:none;fill-rule:nonzero;fill:rgb(100%,100%,100%);fill-opacity:1;" d="M 299.355469 74.359375 C 299.355469 76.351562 296.363281 76.351562 296.363281 74.359375 C 296.363281 72.367188 299.355469 72.367188 299.355469 74.359375 "/>
<path style=" stroke:none;fill-rule:nonzero;fill:rgb(100%,100%,100%);fill-opacity:1;" d="M 139.988281 386.511719 C 139.988281 388.503906 137 388.503906 137 386.511719 C 137 384.519531 139.988281 384.519531 139.988281 386.511719 "/>
<path style=" stroke:none;fill-rule:nonzero;fill:rgb(100%,100%,100%);fill-opacity:1;" d="M 27.269531 37.285156 C 27.269531 39.277344 24.277344 39.277344 24.277344 37.285156 C 24.277344 35.292969 27.269531 35.292969 27.269531 37.285156 "/>
<path style=" stroke:none;fill-rule:nonzero;fill:rgb(100%,100%,100%);fill-opacity:1;" d="M 435.398438 435.246094 C 435.398438 437.242188 432.40625 437.242188 432.40625 435.246094 C 432.40625 433.253906 435.398438 433.253906 435.398438 435.246094 "/>
<path style=" stroke:none;fill-rule:nonzero;fill:rgb(100%,100%,100%);fill-opacity:1;" d="M 391.742188 264.820312 C 391.742188 266.8125 388.753906 266.8125 388.753906 264.820312 C 388.753906 262.828125 391.742188 262.828125 391.742188 264.820312 "/>
<path style=" stroke:none;fill-rule:nonzero;fill:rgb(100%,100%,100%);fill-opacity:1;" d="M 209.953125 98.878906 C 209.953125 100.871094 206.964844 100.871094 206.964844 98.878906 C 206.964844 96.882812 209.953125 96.882812 209.953125 98.878906 "/>
<path style=" stroke:none;fill-rule:nonzero;fill:rgb(100%,100%,100%);fill-opacity:1;" d="M 313.40625 106.054688 C 313.40625 108.046875 310.417969 108.046875 310.417969 106.054688 C 310.417969 104.0625 313.40625 104.0625 313.40625 106.054688 "/>
<path style=" stroke:none;fill-rule:nonzero;fill:rgb(100%,100%,100%);fill-opacity:1;" d="M 367.226562 1.703125 C 367.226562 3.699219 364.234375 3.699219 364.234375 1.703125 C 364.234375 -0.289062 367.226562 -0.289062 367.226562 1.703125 "/>
<path style=" stroke:none;fill-rule:nonzero;fill:rgb(100%,100%,100%);fill-opacity:1;" d="M 484.730469 81.535156 C 484.730469 83.53125 481.742188 83.53125 481.742188 81.535156 C 481.742188 79.542969 484.730469 79.542969 484.730469 81.535156 "/>
<path style=" stroke:none;fill-rule:nonzero;fill:rgb(100%,100%,100%);fill-opacity:1;" d="M 122.648438 85.722656 C 122.648438 87.714844 119.65625 87.714844 119.65625 85.722656 C 119.65625 83.730469 122.648438 83.730469 122.648438 85.722656 "/>
<path style=" stroke:none;fill-rule:nonzero;fill:rgb(100%,100%,100%);fill-opacity:1;" d="M 505.960938 38.183594 C 505.960938 40.175781 502.96875 40.175781 502.96875 38.183594 C 502.96875 36.1875 505.960938 36.1875 505.960938 38.183594 "/>
<path style=" stroke:none;fill-rule:nonzero;fill:rgb(100%,100%,100%);fill-opacity:1;" d="M 211.449219 193.359375 C 211.449219 195.351562 208.460938 195.351562 208.460938 193.359375 C 208.460938 191.367188 211.449219 191.367188 211.449219 193.359375 "/>
<path style=" stroke:none;fill-rule:nonzero;fill:rgb(100%,100%,100%);fill-opacity:1;" d="M 300.550781 424.484375 C 300.550781 426.476562 297.558594 426.476562 297.558594 424.484375 C 297.558594 422.492188 300.550781 422.492188 300.550781 424.484375 "/>
<path style=" stroke:none;fill-rule:nonzero;fill:rgb(100%,100%,100%);fill-opacity:1;" d="M 483.835938 332.394531 C 483.835938 334.386719 480.84375 334.386719 480.84375 332.394531 C 480.84375 330.398438 483.835938 330.398438 483.835938 332.394531 "/>
<path style=" stroke:none;fill-rule:nonzero;fill:rgb(100%,100%,100%);fill-opacity:1;" d="M 329.554688 412.523438 C 329.554688 414.515625 326.5625 414.515625 326.5625 412.523438 C 326.5625 410.53125 329.554688 410.53125 329.554688 412.523438 "/>
<path style=" stroke:none;fill-rule:nonzero;fill:rgb(100%,100%,100%);fill-opacity:1;" d="M 106.203125 282.761719 C 106.203125 284.753906 103.214844 284.753906 103.214844 282.761719 C 103.214844 280.765625 106.203125 280.765625 106.203125 282.761719 "/>
<path style=" stroke:none;fill-rule:nonzero;fill:rgb(100%,100%,100%);fill-opacity:1;" d="M 417.457031 281.863281 C 417.457031 283.855469 414.46875 283.855469 414.46875 281.863281 C 414.46875 279.871094 417.457031 279.871094 417.457031 281.863281 "/>
<path style=" stroke:none;fill-rule:nonzero;fill:rgb(100%,84.3%,0%);fill-opacity:1;" d="M 242.246094 168.84375 C 242.246094 170.835938 239.257812 170.835938 239.257812 168.84375 C 239.257812 166.851562 242.246094 166.851562 242.246094 168.84375 "/>
<path style=" stroke:none;fill-rule:nonzero;fill:rgb(100%,84.3%,0%);fill-opacity:1;" d="M 280.816406 465.445312 C 280.816406 467.4375 277.828125 467.4375 277.828125 465.445312 C 277.828125 463.453125 280.816406 463.453125 280.816406 465.445312 "/>
<path style=" stroke:none;fill-rule:nonzero;fill:rgb(100%,84.3%,0%);fill-opacity:1;" d="M 243.144531 77.949219 C 243.144531 79.941406 240.152344 79.941406 240.152344 77.949219 C 240.152344 75.953125 243.144531 75.953125 243.144531 77.949219 "/>
<path style=" stroke:none;fill-rule:nonzero;fill:rgb(100%,84.3%,0%);fill-opacity:1;" d="M 247.628906 378.4375 C 247.628906 380.433594 244.636719 380.433594 244.636719 378.4375 C 244.636719 376.445312 247.628906 376.445312 247.628906 378.4375 "/>
<path style=" stroke:none;fill-rule:nonzero;fill:rgb(100%,84.3%,0%);fill-opacity:1;" d="M 285.003906 71.96875 C 285.003906 73.960938 282.011719 73.960938 282.011719 71.96875 C 282.011719 69.976562 285.003906 69.976562 285.003906 71.96875 "/>
<path style=" stroke:none;fill-rule:nonzero;fill:rgb(100%,84.3%,0%);fill-opacity:1;" d="M 251.214844 465.746094 C 251.214844 467.738281 248.226562 467.738281 248.226562 465.746094 C 248.226562 463.75 251.214844 463.75 251.214844 465.746094 "/>
<path style=" stroke:none;fill-rule:nonzero;fill:rgb(100%,84.3%,0%);fill-opacity:1;" d="M 246.433594 59.109375 C 246.433594 61.105469 243.441406 61.105469 243.441406 59.109375 C 243.441406 57.117188 246.433594 57.117188 246.433594 59.109375 "/>
<path style=" stroke:none;fill-rule:nonzero;fill:rgb(100%,84.3%,0%);fill-opacity:1;" d="M 233.574219 411.628906 C 233.574219 413.621094 230.585938 413.621094 230.585938 411.628906 C 230.585938 409.632812 233.574219 409.632812 233.574219 411.628906 "/>
<path style=" stroke:none;fill-rule:nonzero;fill:rgb(100%,84.3%,0%);fill-opacity:1;" d="M 250.320312 368.570312 C 250.320312 370.566406 247.328125 370.566406 247.328125 368.570312 C 247.328125 366.578125 250.320312 366.578125 250.320312 368.570312 "/>
<path style=" stroke:none;fill-rule:nonzero;fill:rgb(100%,84.3%,0%);fill-opacity:1;" d="M 232.378906 432.558594 C 232.378906 434.550781 229.390625 434.550781 229.390625 432.558594 C 229.390625 430.5625 232.378906 430.5625 232.378906 432.558594 "/>
<path style=" stroke:none;fill-rule:nonzero;fill:rgb(100%,84.3%,0%);fill-opacity:1;" d="M 232.679688 112.632812 C 232.679688 114.625 229.6875 114.625 229.6875 112.632812 C 229.6875 110.640625 232.679688 110.640625 232.679688 112.632812 "/>
<path style=" stroke:none;fill-rule:nonzero;fill:rgb(100%,84.3%,0%);fill-opacity:1;" d="M 250.917969 406.542969 C 250.917969 408.539062 247.925781 408.539062 247.925781 406.542969 C 247.925781 404.550781 250.917969 404.550781 250.917969 406.542969 "/>
<path style=" stroke:none;fill-rule:nonzero;fill:rgb(100%,84.3%,0%);fill-opacity:1;" d="M 229.6875 63.894531 C 229.6875 65.886719 226.699219 65.886719 226.699219 63.894531 C 226.699219 61.902344 229.6875 61.902344 229.6875 63.894531 "/>
<path style=" stroke:none;fill-rule:nonzero;fill:rgb(100%,84.3%,0%);fill-opacity:1;" d="M 285.003906 56.421875 C 285.003906 58.414062 282.011719 58.414062 282.011719 56.421875 C 282.011719 54.425781 285.003906 54.425781 285.003906 56.421875 "/>
<path style=" stroke:none;fill-rule:nonzero;fill:rgb(100%,84.3%,0%);fill-opacity:1;" d="M 268.558594 82.132812 C 268.558594 84.128906 265.566406 84.128906 265.566406 82.132812 C 265.566406 80.140625 268.558594 80.140625 268.558594 82.132812 "/>
<path style=" stroke:none;fill-rule:nonzero;fill:rgb(100%,84.3%,0%);fill-opacity:1;" d="M 234.769531 408.339844 C 234.769531 410.332031 231.78125 410.332031 231.78125 408.339844 C 231.78125 406.34375 234.769531 406.34375 234.769531 408.339844 "/>
<path style=" stroke:none;fill-rule:nonzero;fill:rgb(100%,84.3%,0%);fill-opacity:1;" d="M 274.835938 372.757812 C 274.835938 374.75 271.847656 374.75 271.847656 372.757812 C 271.847656 370.765625 274.835938 370.765625 274.835938 372.757812 "/>
<path style=" stroke:none;fill-rule:nonzero;fill:rgb(100%,84.3%,0%);fill-opacity:1;" d="M 241.945312 74.0625 C 241.945312 76.054688 238.957031 76.054688 238.957031 74.0625 C 238.957031 72.066406 241.945312 72.066406 241.945312 74.0625 "/>
<path style=" stroke:none;fill-rule:nonzero;fill:rgb(100%,84.3%,0%);fill-opacity:1;" d="M 230.585938 456.179688 C 230.585938 458.171875 227.59375 458.171875 227.59375 456.179688 C 227.59375 454.183594 230.585938 454.183594 230.585938 456.179688 "/>
<path style=" stroke:none;fill-rule:nonzero;fill:rgb(100%,84.3%,0%);fill-opacity:1;" d="M 277.230469 379.335938 C 277.230469 381.328125 274.238281 381.328125 274.238281 379.335938 C 274.238281 377.34375 277.230469 377.34375 277.230469 379.335938 "/>
<path style=" stroke:none;fill-rule:nonzero;fill:rgb(100%,84.3%,0%);fill-opacity:1;" d="M 240.453125 380.234375 C 240.453125 382.226562 237.460938 382.226562 237.460938 380.234375 C 237.460938 378.238281 240.453125 378.238281 240.453125 380.234375 "/>
<path style=" stroke:none;fill-rule:nonzero;fill:rgb(100%,84.3%,0%);fill-opacity:1;" d="M 258.988281 401.460938 C 258.988281 403.453125 256 403.453125 256 401.460938 C 256 399.46875 258.988281 399.46875 258.988281 401.460938 "/>
<path style=" stroke:none;fill-rule:nonzero;fill:rgb(100%,84.3%,0%);fill-opacity:1;" d="M 230.585938 158.675781 C 230.585938 160.671875 227.59375 160.671875 227.59375 158.675781 C 227.59375 156.683594 230.585938 156.683594 230.585938 158.675781 "/>
<path style=" stroke:none;fill-rule:nonzero;fill:rgb(100%,84.3%,0%);fill-opacity:1;" d="M 254.804688 88.414062 C 254.804688 90.40625 251.8125 90.40625 251.8125 88.414062 C 251.8125 86.417969 254.804688 86.417969 254.804688 88.414062 "/>
<path style=" stroke:none;fill-rule:nonzero;fill:rgb(100%,84.3%,0%);fill-opacity:1;" d="M 282.3125 382.324219 C 282.3125 384.320312 279.320312 384.320312 279.320312 382.324219 C 279.320312 380.332031 282.3125 380.332031 282.3125 382.324219 "/>
<path style=" stroke:none;fill-rule:nonzero;fill:rgb(100%,84.3%,0%);fill-opacity:1;" d="M 275.734375 356.015625 C 275.734375 358.007812 272.742188 358.007812 272.742188 356.015625 C 272.742188 354.019531 275.734375 354.019531 275.734375 356.015625 "/>
<path style=" stroke:none;fill-rule:nonzero;fill:rgb(100%,84.3%,0%);fill-opacity:1;" d="M 269.753906 100.972656 C 269.753906 102.964844 266.765625 102.964844 266.765625 100.972656 C 266.765625 98.976562 269.753906 98.976562 269.753906 100.972656 "/>
<path style=" stroke:none;fill-rule:nonzero;fill:rgb(100%,84.3%,0%);fill-opacity:1;" d="M 255.402344 390.699219 C 255.402344 392.691406 252.410156 392.691406 252.410156 390.699219 C 252.410156 388.703125 255.402344 388.703125 255.402344 390.699219 "/>
<path style=" stroke:none;fill-rule:nonzero;fill:rgb(100%,84.3%,0%);fill-opacity:1;" d="M 277.828125 115.324219 C 277.828125 117.316406 274.835938 117.316406 274.835938 115.324219 C 274.835938 113.328125 277.828125 113.328125 277.828125 115.324219 "/>
<path style=" stroke:none;fill-rule:nonzero;fill:rgb(100%,84.3%,0%);fill-opacity:1;" d="M 243.441406 68.679688 C 243.441406 70.671875 240.453125 70.671875 240.453125 68.679688 C 240.453125 66.6875 243.441406 66.6875 243.441406 68.679688 "/>
<path style=" stroke:none;fill-rule:nonzero;fill:rgb(100%,84.3%,0%);fill-opacity:1;" d="M 241.945312 83.328125 C 241.945312 85.324219 238.957031 85.324219 238.957031 83.328125 C 238.957031 81.335938 241.945312 81.335938 241.945312 83.328125 "/>
<path style=" stroke:none;fill-rule:nonzero;fill:rgb(100%,84.3%,0%);fill-opacity:1;" d="M 262.578125 432.855469 C 262.578125 434.847656 259.589844 434.847656 259.589844 432.855469 C 259.589844 430.863281 262.578125 430.863281 262.578125 432.855469 "/>
<path style=" stroke:none;fill-rule:nonzero;fill:rgb(100%,84.3%,0%);fill-opacity:1;" d="M 281.117188 323.421875 C 281.117188 325.417969 278.125 325.417969 278.125 323.421875 C 278.125 321.429688 281.117188 321.429688 281.117188 323.421875 "/>
<path style=" stroke:none;fill-rule:nonzero;fill:rgb(100%,84.3%,0%);fill-opacity:1;" d="M 281.714844 451.992188 C 281.714844 453.984375 278.722656 453.984375 278.722656 451.992188 C 278.722656 450 281.714844 450 281.714844 451.992188 "/>
<path style=" stroke:none;fill-rule:nonzero;fill:rgb(100%,84.3%,0%);fill-opacity:1;" d="M 273.640625 74.0625 C 273.640625 76.054688 270.652344 76.054688 270.652344 74.0625 C 270.652344 72.066406 273.640625 72.066406 273.640625 74.0625 "/>
<path style=" stroke:none;fill-rule:nonzero;fill:rgb(100%,84.3%,0%);fill-opacity:1;" d="M 285.300781 354.816406 C 285.300781 356.8125 282.3125 356.8125 282.3125 354.816406 C 282.3125 352.824219 285.300781 352.824219 285.300781 354.816406 "/>
<path style=" stroke:none;fill-rule:nonzero;fill:rgb(100%,84.3%,0%);fill-opacity:1;" d="M 268.855469 333.886719 C 268.855469 335.882812 265.867188 335.882812 265.867188 333.886719 C 265.867188 331.894531 268.855469 331.894531 268.855469 333.886719 "/>
<path style=" stroke:none;fill-rule:nonzero;fill:rgb(100%,84.3%,0%);fill-opacity:1;" d="M 276.03125 340.167969 C 276.03125 342.160156 273.042969 342.160156 273.042969 340.167969 C 273.042969 338.171875 276.03125 338.171875 276.03125 340.167969 "/>
<path style=" stroke:none;fill-rule:nonzero;fill:rgb(100%,84.3%,0%);fill-opacity:1;" d="M 268.558594 56.421875 C 268.558594 58.414062 265.566406 58.414062 265.566406 56.421875 C 265.566406 54.425781 268.558594 54.425781 268.558594 56.421875 "/>
<path style=" stroke:none;fill-rule:nonzero;fill:rgb(100%,84.3%,0%);fill-opacity:1;" d="M 279.921875 418.804688 C 279.921875 420.796875 276.929688 420.796875 276.929688 418.804688 C 276.929688 416.808594 279.921875 416.808594 279.921875 418.804688 "/>
<path style=" stroke:none;fill-rule:nonzero;fill:rgb(100%,84.3%,0%);fill-opacity:1;" d="M 273.042969 441.824219 C 273.042969 443.820312 270.054688 443.820312 270.054688 441.824219 C 270.054688 439.832031 273.042969 439.832031 273.042969 441.824219 "/>
<path style=" stroke:none;fill-rule:nonzero;fill:rgb(100%,84.3%,0%);fill-opacity:1;" d="M 273.941406 464.25 C 273.941406 466.242188 270.949219 466.242188 270.949219 464.25 C 270.949219 462.257812 273.941406 462.257812 273.941406 464.25 "/>
<path style=" stroke:none;fill-rule:nonzero;fill:rgb(100%,84.3%,0%);fill-opacity:1;" d="M 259.886719 171.832031 C 259.886719 173.828125 256.898438 173.828125 256.898438 171.832031 C 256.898438 169.839844 259.886719 169.839844 259.886719 171.832031 "/>
<path style=" stroke:none;fill-rule:nonzero;fill:rgb(100%,84.3%,0%);fill-opacity:1;" d="M 267.0625 123.394531 C 267.0625 125.386719 264.074219 125.386719 264.074219 123.394531 C 264.074219 121.402344 267.0625 121.402344 267.0625 123.394531 "/>
<path style=" stroke:none;fill-rule:nonzero;fill:rgb(100%,84.3%,0%);fill-opacity:1;" d="M 282.011719 70.175781 C 282.011719 72.167969 279.023438 72.167969 279.023438 70.175781 C 279.023438 68.179688 282.011719 68.179688 282.011719 70.175781 "/>
<path style=" stroke:none;fill-rule:nonzero;fill:rgb(100%,84.3%,0%);fill-opacity:1;" d="M 250.917969 400.265625 C 250.917969 402.257812 247.925781 402.257812 247.925781 400.265625 C 247.925781 398.273438 250.917969 398.273438 250.917969 400.265625 "/>
<path style=" stroke:none;fill-rule:nonzero;fill:rgb(100%,84.3%,0%);fill-opacity:1;" d="M 247.328125 419.699219 C 247.328125 421.691406 244.339844 421.691406 244.339844 419.699219 C 244.339844 417.707031 247.328125 417.707031 247.328125 419.699219 "/>
<path style=" stroke:none;fill-rule:nonzero;fill:rgb(100%,84.3%,0%);fill-opacity:1;" d="M 256 397.574219 C 256 399.566406 253.011719 399.566406 253.011719 397.574219 C 253.011719 395.582031 256 395.582031 256 397.574219 "/>
<path style=" stroke:none;fill-rule:nonzero;fill:rgb(100%,84.3%,0%);fill-opacity:1;" d="M 243.441406 254.058594 C 243.441406 256.050781 240.453125 256.050781 240.453125 254.058594 C 240.453125 252.0625 243.441406 252.0625 243.441406 254.058594 "/>
<path style=" stroke:none;fill-rule:nonzero;fill:rgb(100%,84.3%,0%);fill-opacity:1;" d="M 262.277344 392.789062 C 262.277344 394.785156 259.289062 394.785156 259.289062 392.789062 C 259.289062 390.796875 262.277344 390.796875 262.277344 392.789062 "/>
<path style=" stroke:none;fill-rule:nonzero;fill:rgb(100%,84.3%,0%);fill-opacity:1;" d="M 286.199219 411.628906 C 286.199219 413.621094 283.210938 413.621094 283.210938 411.628906 C 283.210938 409.632812 286.199219 409.632812 286.199219 411.628906 "/>
<path style=" stroke:none;fill-rule:nonzero;fill:rgb(100%,84.3%,0%);fill-opacity:1;" d="M 284.703125 191.265625 C 284.703125 193.261719 281.714844 193.261719 281.714844 191.265625 C 281.714844 189.273438 284.703125 189.273438 284.703125 191.265625 "/>
<path style=" stroke:none;fill-rule:nonzero;fill:rgb(100%,84.3%,0%);fill-opacity:1;" d="M 277.828125 100.074219 C 277.828125 102.066406 274.835938 102.066406 274.835938 100.074219 C 274.835938 98.082031 277.828125 98.082031 277.828125 100.074219 "/>
<path style=" stroke:none;fill-rule:nonzero;fill:rgb(100%,84.3%,0%);fill-opacity:1;" d="M 240.75 112.929688 C 240.75 114.925781 237.761719 114.925781 237.761719 112.929688 C 237.761719 110.9375 240.75 110.9375 240.75 112.929688 "/>
<path style=" stroke:none;fill-rule:nonzero;fill:rgb(100%,84.3%,0%);fill-opacity:1;" d="M 272.742188 399.367188 C 272.742188 401.359375 269.753906 401.359375 269.753906 399.367188 C 269.753906 397.375 272.742188 397.375 272.742188 399.367188 "/>
<path style=" stroke:none;fill-rule:nonzero;fill:rgb(100%,84.3%,0%);fill-opacity:1;" d="M 230.882812 426.578125 C 230.882812 428.570312 227.894531 428.570312 227.894531 426.578125 C 227.894531 424.582031 230.882812 424.582031 230.882812 426.578125 "/>
<path style=" stroke:none;fill-rule:nonzero;fill:rgb(100%,84.3%,0%);fill-opacity:1;" d="M 274.539062 430.164062 C 274.539062 432.160156 271.546875 432.160156 271.546875 430.164062 C 271.546875 428.171875 274.539062 428.171875 274.539062 430.164062 "/>
<path style=" stroke:none;fill-rule:nonzero;fill:rgb(100%,84.3%,0%);fill-opacity:1;" d="M 249.421875 84.527344 C 249.421875 86.519531 246.433594 86.519531 246.433594 84.527344 C 246.433594 82.53125 249.421875 82.53125 249.421875 84.527344 "/>
<path style=" stroke:none;fill-rule:nonzero;fill:rgb(100%,84.3%,0%);fill-opacity:1;" d="M 247.03125 110.238281 C 247.03125 112.234375 244.039062 112.234375 244.039062 110.238281 C 244.039062 108.246094 247.03125 108.246094 247.03125 110.238281 "/>
<path style=" stroke:none;fill-rule:nonzero;fill:rgb(100%,84.3%,0%);fill-opacity:1;" d="M 281.714844 370.367188 C 281.714844 372.359375 278.722656 372.359375 278.722656 370.367188 C 278.722656 368.371094 281.714844 368.371094 281.714844 370.367188 "/>
<path style=" stroke:none;fill-rule:nonzero;fill:rgb(100%,84.3%,0%);fill-opacity:1;" d="M 261.980469 102.167969 C 261.980469 104.160156 258.988281 104.160156 258.988281 102.167969 C 258.988281 100.171875 261.980469 100.171875 261.980469 102.167969 "/>
<path style=" stroke:none;fill-rule:nonzero;fill:rgb(100%,84.3%,0%);fill-opacity:1;" d="M 249.121094 236.117188 C 249.121094 238.109375 246.132812 238.109375 246.132812 236.117188 C 246.132812 234.125 249.121094 234.125 249.121094 236.117188 "/>
<path style=" stroke:none;fill-rule:nonzero;fill:rgb(100%,84.3%,0%);fill-opacity:1;" d="M 269.753906 59.410156 C 269.753906 61.402344 266.765625 61.402344 266.765625 59.410156 C 266.765625 57.417969 269.753906 57.417969 269.753906 59.410156 "/>
<path style=" stroke:none;fill-rule:nonzero;fill:rgb(100%,84.3%,0%);fill-opacity:1;" d="M 271.25 455.578125 C 271.25 457.574219 268.257812 457.574219 268.257812 455.578125 C 268.257812 453.585938 271.25 453.585938 271.25 455.578125 "/>
<path style=" stroke:none;fill-rule:nonzero;fill:rgb(100%,84.3%,0%);fill-opacity:1;" d="M 282.910156 249.570312 C 282.910156 251.566406 279.921875 251.566406 279.921875 249.570312 C 279.921875 247.578125 282.910156 247.578125 282.910156 249.570312 "/>
<path style=" stroke:none;fill-rule:nonzero;fill:rgb(100%,84.3%,0%);fill-opacity:1;" d="M 284.40625 272.59375 C 284.40625 274.585938 281.414062 274.585938 281.414062 272.59375 C 281.414062 270.601562 284.40625 270.601562 284.40625 272.59375 "/>
<path style=" stroke:none;fill-rule:nonzero;fill:rgb(100%,84.3%,0%);fill-opacity:1;" d="M 277.828125 257.34375 C 277.828125 259.339844 274.835938 259.339844 274.835938 257.34375 C 274.835938 255.351562 277.828125 255.351562 277.828125 257.34375 "/>
<path style=" stroke:none;fill-rule:nonzero;fill:rgb(100%,84.3%,0%);fill-opacity:1;" d="M 276.332031 175.121094 C 276.332031 177.117188 273.34375 177.117188 273.34375 175.121094 C 273.34375 173.128906 276.332031 173.128906 276.332031 175.121094 "/>
<path style=" stroke:none;fill-rule:nonzero;fill:rgb(100%,84.3%,0%);fill-opacity:1;" d="M 276.929688 231.035156 C 276.929688 233.027344 273.941406 233.027344 273.941406 231.035156 C 273.941406 229.039062 276.929688 229.039062 276.929688 231.035156 "/>
<path style=" stroke:none;fill-rule:nonzero;fill:rgb(100%,84.3%,0%);fill-opacity:1;" d="M 236.863281 263.324219 C 236.863281 265.316406 233.875 265.316406 233.875 263.324219 C 233.875 261.332031 236.863281 261.332031 236.863281 263.324219 "/>
<path style=" stroke:none;fill-rule:nonzero;fill:rgb(100%,84.3%,0%);fill-opacity:1;" d="M 263.773438 161.367188 C 263.773438 163.359375 260.785156 163.359375 260.785156 161.367188 C 260.785156 159.375 263.773438 159.375 263.773438 161.367188 "/>
<path style=" stroke:none;fill-rule:nonzero;fill:rgb(100%,84.3%,0%);fill-opacity:1;" d="M 282.609375 211.300781 C 282.609375 213.292969 279.621094 213.292969 279.621094 211.300781 C 279.621094 209.308594 282.609375 209.308594 282.609375 211.300781 "/>
<path style=" stroke:none;fill-rule:nonzero;fill:rgb(100%,84.3%,0%);fill-opacity:1;" d="M 242.246094 241.199219 C 242.246094 243.191406 239.257812 243.191406 239.257812 241.199219 C 239.257812 239.207031 242.246094 239.207031 242.246094 241.199219 "/>
<path style=" stroke:none;fill-rule:nonzero;fill:rgb(100%,84.3%,0%);fill-opacity:1;" d="M 252.410156 166.449219 C 252.410156 168.445312 249.421875 168.445312 249.421875 166.449219 C 249.421875 164.457031 252.410156 164.457031 252.410156 166.449219 "/>
<path style=" stroke:none;fill-rule:nonzero;fill:rgb(100%,84.3%,0%);fill-opacity:1;" d="M 279.320312 205.617188 C 279.320312 207.613281 276.332031 207.613281 276.332031 205.617188 C 276.332031 203.625 279.320312 203.625 279.320312 205.617188 "/>
<path style=" stroke:none;fill-rule:nonzero;fill:rgb(100%,84.3%,0%);fill-opacity:1;" d="M 256 169.140625 C 256 171.136719 253.011719 171.136719 253.011719 169.140625 C 253.011719 167.148438 256 167.148438 256 169.140625 "/>
<path style=" stroke:none;fill-rule:nonzero;fill:rgb(100%,84.3%,0%);fill-opacity:1;" d="M 255.402344 143.429688 C 255.402344 145.421875 252.410156 145.421875 252.410156 143.429688 C 252.410156 141.433594 255.402344 141.433594 255.402344 143.429688 "/>
<path style=" stroke:none;fill-rule:nonzero;fill:rgb(100%,84.3%,0%);fill-opacity:1;" d="M 272.144531 240.601562 C 272.144531 242.59375 269.15625 242.59375 269.15625 240.601562 C 269.15625 238.609375 272.144531 238.609375 272.144531 240.601562 "/>
<path style=" stroke:none;fill-rule:nonzero;fill:rgb(100%,84.3%,0%);fill-opacity:1;" d="M 237.164062 205.917969 C 237.164062 207.910156 234.171875 207.910156 234.171875 205.917969 C 234.171875 203.925781 237.164062 203.925781 237.164062 205.917969 "/>
<path style=" stroke:none;fill-rule:nonzero;fill:rgb(100%,84.3%,0%);fill-opacity:1;" d="M 229.089844 275.585938 C 229.089844 277.578125 226.101562 277.578125 226.101562 275.585938 C 226.101562 273.589844 229.089844 273.589844 229.089844 275.585938 "/>
<path style=" stroke:none;fill-rule:nonzero;fill:rgb(100%,84.3%,0%);fill-opacity:1;" d="M 234.769531 129.972656 C 234.769531 131.964844 231.78125 131.964844 231.78125 129.972656 C 231.78125 127.980469 234.769531 127.980469 234.769531 129.972656 "/>
<path style=" stroke:none;fill-rule:nonzero;fill:rgb(100%,84.3%,0%);fill-opacity:1;" d="M 276.632812 198.144531 C 276.632812 200.136719 273.640625 200.136719 273.640625 198.144531 C 273.640625 196.152344 276.632812 196.152344 276.632812 198.144531 "/>
<path style=" stroke:none;fill-rule:nonzero;fill:rgb(100%,84.3%,0%);fill-opacity:1;" d="M 236.566406 257.941406 C 236.566406 259.9375 233.574219 259.9375 233.574219 257.941406 C 233.574219 255.949219 236.566406 255.949219 236.566406 257.941406 "/>
<path style=" stroke:none;fill-rule:nonzero;fill:rgb(100%,84.3%,0%);fill-opacity:1;" d="M 279.621094 265.71875 C 279.621094 267.710938 276.632812 267.710938 276.632812 265.71875 C 276.632812 263.722656 279.621094 263.722656 279.621094 265.71875 "/>
<path style=" stroke:none;fill-rule:nonzero;fill:rgb(100%,84.3%,0%);fill-opacity:1;" d="M 256.597656 239.703125 C 256.597656 241.699219 253.609375 241.699219 253.609375 239.703125 C 253.609375 237.710938 256.597656 237.710938 256.597656 239.703125 "/>
<path style=" stroke:none;fill-rule:nonzero;fill:rgb(100%,84.3%,0%);fill-opacity:1;" d="M 250.917969 199.039062 C 250.917969 201.035156 247.925781 201.035156 247.925781 199.039062 C 247.925781 197.046875 250.917969 197.046875 250.917969 199.039062 "/>
<path style=" stroke:none;fill-rule:nonzero;fill:rgb(100%,84.3%,0%);fill-opacity:1;" d="M 267.960938 319.238281 C 267.960938 321.230469 264.96875 321.230469 264.96875 319.238281 C 264.96875 317.246094 267.960938 317.246094 267.960938 319.238281 "/>
<path style=" stroke:none;fill-rule:nonzero;fill:rgb(100%,84.3%,0%);fill-opacity:1;" d="M 245.832031 126.085938 C 245.832031 128.078125 242.84375 128.078125 242.84375 126.085938 C 242.84375 124.09375 245.832031 124.09375 245.832031 126.085938 "/>
<path style=" stroke:none;fill-rule:nonzero;fill:rgb(100%,84.3%,0%);fill-opacity:1;" d="M 235.96875 313.257812 C 235.96875 315.25 232.976562 315.25 232.976562 313.257812 C 232.976562 311.265625 235.96875 311.265625 235.96875 313.257812 "/>
<path style=" stroke:none;fill-rule:nonzero;fill:rgb(100%,84.3%,0%);fill-opacity:1;" d="M 267.363281 199.039062 C 267.363281 201.035156 264.371094 201.035156 264.371094 199.039062 C 264.371094 197.046875 267.363281 197.046875 267.363281 199.039062 "/>
<path style=" stroke:none;fill-rule:nonzero;fill:rgb(100%,84.3%,0%);fill-opacity:1;" d="M 256.300781 306.382812 C 256.300781 308.375 253.308594 308.375 253.308594 306.382812 C 253.308594 304.386719 256.300781 304.386719 256.300781 306.382812 "/>
<path style=" stroke:none;fill-rule:nonzero;fill:rgb(100%,84.3%,0%);fill-opacity:1;" d="M 275.734375 127.582031 C 275.734375 129.574219 272.742188 129.574219 272.742188 127.582031 C 272.742188 125.585938 275.734375 125.585938 275.734375 127.582031 "/>
<path style=" stroke:none;fill-rule:nonzero;fill:rgb(100%,84.3%,0%);fill-opacity:1;" d="M 258.691406 126.984375 C 258.691406 128.976562 255.699219 128.976562 255.699219 126.984375 C 255.699219 124.988281 258.691406 124.988281 258.691406 126.984375 "/>
<path style=" stroke:none;fill-rule:nonzero;fill:rgb(100%,84.3%,0%);fill-opacity:1;" d="M 265.566406 231.929688 C 265.566406 233.925781 262.578125 233.925781 262.578125 231.929688 C 262.578125 229.9375 265.566406 229.9375 265.566406 231.929688 "/>
<path style=" stroke:none;fill-rule:nonzero;fill:rgb(100%,84.3%,0%);fill-opacity:1;" d="M 233.574219 319.535156 C 233.574219 321.53125 230.585938 321.53125 230.585938 319.535156 C 230.585938 317.542969 233.574219 317.542969 233.574219 319.535156 "/>
<path style=" stroke:none;fill-rule:nonzero;fill:rgb(100%,84.3%,0%);fill-opacity:1;" d="M 255.402344 275.882812 C 255.402344 277.875 252.410156 277.875 252.410156 275.882812 C 252.410156 273.890625 255.402344 273.890625 255.402344 275.882812 "/>
<path style=" stroke:none;fill-rule:nonzero;fill:rgb(100%,84.3%,0%);fill-opacity:1;" d="M 279.621094 151.203125 C 279.621094 153.195312 276.632812 153.195312 276.632812 151.203125 C 276.632812 149.207031 279.621094 149.207031 279.621094 151.203125 "/>
<path style=" stroke:none;fill-rule:nonzero;fill:rgb(100%,84.3%,0%);fill-opacity:1;" d="M 267.660156 154.191406 C 267.660156 156.183594 264.671875 156.183594 264.671875 154.191406 C 264.671875 152.199219 267.660156 152.199219 267.660156 154.191406 "/>
<path style=" stroke:none;fill-rule:nonzero;fill:rgb(100%,84.3%,0%);fill-opacity:1;" d="M 260.1875 274.386719 C 260.1875 276.382812 257.195312 276.382812 257.195312 274.386719 C 257.195312 272.394531 260.1875 272.394531 260.1875 274.386719 "/>
<path style=" stroke:none;fill-rule:nonzero;fill:rgb(100%,84.3%,0%);fill-opacity:1;" d="M 232.378906 166.152344 C 232.378906 168.144531 229.390625 168.144531 229.390625 166.152344 C 229.390625 164.160156 232.378906 164.160156 232.378906 166.152344 "/>
<path style=" stroke:none;fill-rule:nonzero;fill:rgb(100%,84.3%,0%);fill-opacity:1;" d="M 263.773438 253.757812 C 263.773438 255.75 260.785156 255.75 260.785156 253.757812 C 260.785156 251.765625 263.773438 251.765625 263.773438 253.757812 "/>
<path style=" stroke:none;fill-rule:nonzero;fill:rgb(100%,84.3%,0%);fill-opacity:1;" d="M 268.558594 267.511719 C 268.558594 269.503906 265.566406 269.503906 265.566406 267.511719 C 265.566406 265.519531 268.558594 265.519531 268.558594 267.511719 "/>
<path style=" stroke:none;fill-rule:nonzero;fill:rgb(100%,84.3%,0%);fill-opacity:1;" d="M 231.183594 347.640625 C 231.183594 349.636719 228.191406 349.636719 228.191406 347.640625 C 228.191406 345.648438 231.183594 345.648438 231.183594 347.640625 "/>
<path style=" stroke:none;fill-rule:nonzero;fill:rgb(100%,84.3%,0%);fill-opacity:1;" d="M 232.976562 343.753906 C 232.976562 345.75 229.988281 345.75 229.988281 343.753906 C 229.988281 341.761719 232.976562 341.761719 232.976562 343.753906 "/>
<path style=" stroke:none;fill-rule:nonzero;fill:rgb(100%,84.3%,0%);fill-opacity:1;" d="M 233.574219 367.078125 C 233.574219 369.070312 230.585938 369.070312 230.585938 367.078125 C 230.585938 365.082031 233.574219 365.082031 233.574219 367.078125 "/>
<path style=" stroke:none;fill-rule:nonzero;fill:rgb(100%,84.3%,0%);fill-opacity:1;" d="M 248.824219 254.355469 C 248.824219 256.347656 245.835938 256.347656 245.835938 254.355469 C 245.835938 252.363281 248.824219 252.363281 248.824219 254.355469 "/>
<path style=" stroke:none;fill-rule:nonzero;fill:rgb(100%,84.3%,0%);fill-opacity:1;" d="M 264.371094 157.183594 C 264.371094 159.175781 261.382812 159.175781 261.382812 157.183594 C 261.382812 155.1875 264.371094 155.1875 264.371094 157.183594 "/>
<path style=" stroke:none;fill-rule:nonzero;fill:rgb(100%,84.3%,0%);fill-opacity:1;" d="M 257.195312 263.324219 C 257.195312 265.316406 254.207031 265.316406 254.207031 263.324219 C 254.207031 261.332031 257.195312 261.332031 257.195312 263.324219 "/>
<path style=" stroke:none;fill-rule:nonzero;fill:rgb(100%,84.3%,0%);fill-opacity:1;" d="M 256.597656 285.152344 C 256.597656 287.144531 253.609375 287.144531 253.609375 285.152344 C 253.609375 283.160156 256.597656 283.160156 256.597656 285.152344 "/>
<path style=" stroke:none;fill-rule:nonzero;fill:rgb(100%,84.3%,0%);fill-opacity:1;" d="M 283.207031 226.25 C 283.207031 228.242188 280.21875 228.242188 280.21875 226.25 C 280.21875 224.257812 283.207031 224.257812 283.207031 226.25 "/>
<path style=" stroke:none;fill-rule:nonzero;fill:rgb(100%,84.3%,0%);fill-opacity:1;" d="M 243.144531 322.226562 C 243.144531 324.222656 240.152344 324.222656 240.152344 322.226562 C 240.152344 320.234375 243.144531 320.234375 243.144531 322.226562 "/>
<path style=" stroke:none;fill-rule:nonzero;fill:rgb(100%,84.3%,0%);fill-opacity:1;" d="M 247.328125 327.609375 C 247.328125 329.601562 244.339844 329.601562 244.339844 327.609375 C 244.339844 325.617188 247.328125 325.617188 247.328125 327.609375 "/>
<path style=" stroke:none;fill-rule:nonzero;fill:rgb(100%,84.3%,0%);fill-opacity:1;" d="M 244.339844 197.84375 C 244.339844 199.839844 241.347656 199.839844 241.347656 197.84375 C 241.347656 195.851562 244.339844 195.851562 244.339844 197.84375 "/>
<path style=" stroke:none;fill-rule:nonzero;fill:rgb(100%,84.3%,0%);fill-opacity:1;" d="M 229.6875 437.9375 C 229.6875 439.933594 226.699219 439.933594 226.699219 437.9375 C 226.699219 435.945312 229.6875 435.945312 229.6875 437.9375 "/>
<path style=" stroke:none;fill-rule:nonzero;fill:rgb(100%,84.3%,0%);fill-opacity:1;" d="M 238.058594 142.828125 C 238.058594 144.824219 235.070312 144.824219 235.070312 142.828125 C 235.070312 140.835938 238.058594 140.835938 238.058594 142.828125 "/>
<path style=" stroke:none;fill-rule:nonzero;fill:rgb(100%,84.3%,0%);fill-opacity:1;" d="M 264.074219 335.980469 C 264.074219 337.972656 261.082031 337.972656 261.082031 335.980469 C 261.082031 333.988281 264.074219 333.988281 264.074219 335.980469 "/>
<path style=" stroke:none;fill-rule:nonzero;fill:rgb(100%,84.3%,0%);fill-opacity:1;" d="M 252.710938 343.753906 C 252.710938 345.75 249.722656 345.75 249.722656 343.753906 C 249.722656 341.761719 252.710938 341.761719 252.710938 343.753906 "/>
<path style=" stroke:none;fill-rule:nonzero;fill:rgb(100%,84.3%,0%);fill-opacity:1;" d="M 241.347656 280.070312 C 241.347656 282.0625 238.359375 282.0625 238.359375 280.070312 C 238.359375 278.074219 241.347656 278.074219 241.347656 280.070312 "/>
<path style=" stroke:none;fill-rule:nonzero;fill:rgb(100%,84.3%,0%);fill-opacity:1;" d="M 236.566406 134.757812 C 236.566406 136.75 233.574219 136.75 233.574219 134.757812 C 233.574219 132.765625 236.566406 132.765625 236.566406 134.757812 "/>
<path style=" stroke:none;fill-rule:nonzero;fill:rgb(100%,84.3%,0%);fill-opacity:1;" d="M 243.144531 396.078125 C 243.144531 398.074219 240.152344 398.074219 240.152344 396.078125 C 240.152344 394.085938 243.144531 394.085938 243.144531 396.078125 "/>
<path style=" stroke:none;fill-rule:nonzero;fill:rgb(100%,84.3%,0%);fill-opacity:1;" d="M 286.199219 284.851562 C 286.199219 286.847656 283.210938 286.847656 283.210938 284.851562 C 283.210938 282.859375 286.199219 282.859375 286.199219 284.851562 "/>
<path style=" stroke:none;fill-rule:nonzero;fill:rgb(100%,84.3%,0%);fill-opacity:1;" d="M 229.988281 198.441406 C 229.988281 200.4375 226.996094 200.4375 226.996094 198.441406 C 226.996094 196.449219 229.988281 196.449219 229.988281 198.441406 "/>
<path style=" stroke:none;fill-rule:nonzero;fill:rgb(100%,84.3%,0%);fill-opacity:1;" d="M 274.539062 296.8125 C 274.539062 298.804688 271.546875 298.804688 271.546875 296.8125 C 271.546875 294.820312 274.539062 294.820312 274.539062 296.8125 "/>
<path style=" stroke:none;fill-rule:nonzero;fill:rgb(100%,84.3%,0%);fill-opacity:1;" d="M 229.988281 121.003906 C 229.988281 122.996094 226.996094 122.996094 226.996094 121.003906 C 226.996094 119.011719 229.988281 119.011719 229.988281 121.003906 "/>
<path style=" stroke:none;fill-rule:nonzero;fill:rgb(100%,84.3%,0%);fill-opacity:1;" d="M 244.9375 135.652344 C 244.9375 137.648438 241.945312 137.648438 241.945312 135.652344 C 241.945312 133.660156 244.9375 133.660156 244.9375 135.652344 "/>
<path style=" stroke:none;fill-rule:nonzero;fill:rgb(100%,84.3%,0%);fill-opacity:1;" d="M 262.878906 319.535156 C 262.878906 321.53125 259.886719 321.53125 259.886719 319.535156 C 259.886719 317.542969 262.878906 317.542969 262.878906 319.535156 "/>
<path style=" stroke:none;fill-rule:nonzero;fill:rgb(100%,84.3%,0%);fill-opacity:1;" d="M 234.171875 195.152344 C 234.171875 197.148438 231.183594 197.148438 231.183594 195.152344 C 231.183594 193.160156 234.171875 193.160156 234.171875 195.152344 "/>
<path style=" stroke:none;fill-rule:nonzero;fill:rgb(100%,84.3%,0%);fill-opacity:1;" d="M 269.15625 359.601562 C 269.15625 361.59375 266.167969 361.59375 266.167969 359.601562 C 266.167969 357.609375 269.15625 357.609375 269.15625 359.601562 "/>
</g>
</svg>
