<?xml version="1.0" encoding="UTF-8"?>
<svg xmlns="http://www.w3.org/2000/svg" xmlns:xlink="http://www.w3.org/1999/xlink" width="512pt" height="512pt" viewBox="0 0 512 512" version="1.1">
<g id="surface316">
<path style=" stroke:none;fill-rule:nonzero;fill:rgb(26.7%,26.7%,26.7%);fill-opacity:1;" d="M 220.644531 0 L 291.355469 0 L 291.355469 512 L 220.644531 512 Z M 220.644531 0 "/>
<path style=" stroke:none;fill-rule:nonzero;fill:rgb(19.2%,38.8%,66.7%);fill-opacity:1;" d="M 226.539062 42.667969 L 285.464844 42.667969 L 285.464844 469.332031 L 226.539062 469.332031 Z M 226.539062 42.667969 "/>
<path style=" stroke:none;fill-rule:nonzero;fill:rgb(90.6%,14.9%,14.9%);fill-opacity:1;" d="M 450.625 152.773438 C 450.625 157.761719 446.578125 161.804688 441.589844 161.804688 C 436.601562 161.804688 432.558594 157.761719 432.558594 152.773438 C 432.558594 147.785156 436.601562 143.742188 441.589844 143.742188 C 446.578125 143.742188 450.625 147.785156 450.625 152.773438 "/>
<path style=" stroke:none;fill-rule:nonzero;fill:rgb(90.6%,14.9%,14.9%);fill-opacity:1;" d="M 432.128906 499.871094 C 432.128906 506.523438 426.738281 511.914062 420.085938 511.914062 C 413.433594 511.914062 408.042969 506.523438 408.042969 499.871094 C 408.042969 493.21875 413.433594 487.828125 420.085938 487.828125 C 426.738281 487.828125 432.128906 493.21875 432.128906 499.871094 "/>
<path style=" stroke:none;fill-rule:nonzero;fill:rgb(90.6%,14.9%,14.9%);fill-opacity:1;" d="M 119.441406 92.988281 C 119.441406 102.015625 112.125 109.332031 103.097656 109.332031 C 94.070312 109.332031 86.753906 102.015625 86.753906 92.988281 C 86.753906 83.960938 94.070312 76.644531 103.097656 76.644531 C 112.125 76.644531 119.441406 83.960938 119.441406 92.988281 "/>
<path style=" stroke:none;fill-rule:nonzero;fill:rgb(90.6%,14.9%,14.9%);fill-opacity:1;" d="M 346.539062 344.171875 C 346.539062 358.1875 335.175781 369.546875 321.160156 369.546875 C 307.144531 369.546875 295.785156 358.1875 295.785156 344.171875 C 295.785156 330.15625 307.144531 318.796875 321.160156 318.796875 C 335.175781 318.796875 346.539062 330.15625 346.539062 344.171875 "/>
<path style=" stroke:none;fill-rule:nonzero;fill:rgb(90.6%,14.9%,14.9%);fill-opacity:1;" d="M 40.730469 -19.269531 C 40.730469 -6.917969 30.71875 3.097656 18.367188 3.097656 C 6.015625 3.097656 -4 -6.917969 -4 -19.269531 C -4 -31.621094 6.015625 -41.632812 18.367188 -41.632812 C 30.71875 -41.632812 40.730469 -31.621094 40.730469 -19.269531 "/>
<path style=" stroke:none;fill-rule:nonzero;fill:rgb(90.6%,14.9%,14.9%);fill-opacity:1;" d="M 495.785156 369.117188 C 495.785156 387.644531 480.765625 402.667969 462.238281 402.667969 C 443.707031 402.667969 428.6875 387.644531 428.6875 369.117188 C 428.6875 350.589844 443.707031 335.570312 462.238281 335.570312 C 480.765625 335.570312 495.785156 350.589844 495.785156 369.117188 "/>
<path style=" stroke:none;fill-rule:nonzero;fill:rgb(90.6%,14.9%,14.9%);fill-opacity:1;" d="M 382.238281 40.085938 C 382.238281 43.410156 379.539062 46.109375 376.214844 46.109375 C 372.890625 46.109375 370.195312 43.410156 370.195312 40.085938 C 370.195312 36.761719 372.890625 34.066406 376.214844 34.066406 C 379.539062 34.066406 382.238281 36.761719 382.238281 40.085938 "/>
<path style=" stroke:none;fill-rule:nonzero;fill:rgb(90.6%,14.9%,14.9%);fill-opacity:1;" d="M 110.410156 191.914062 C 110.410156 208.78125 96.738281 222.453125 79.871094 222.453125 C 63.003906 222.453125 49.332031 208.78125 49.332031 191.914062 C 49.332031 175.046875 63.003906 161.375 79.871094 161.375 C 96.738281 161.375 110.410156 175.046875 110.410156 191.914062 "/>
<path style=" stroke:none;fill-rule:nonzero;fill:rgb(90.6%,14.9%,14.9%);fill-opacity:1;" d="M 338.796875 -28.300781 C 338.796875 -10.960938 324.738281 3.097656 307.398438 3.097656 C 290.058594 3.097656 276 -10.960938 276 -28.300781 C 276 -45.640625 290.058594 -59.699219 307.398438 -59.699219 C 324.738281 -59.699219 338.796875 -45.640625 338.796875 -28.300781 "/>
<path style=" stroke:none;fill-rule:nonzero;fill:rgb(90.6%,14.9%,14.9%);fill-opacity:1;" d="M 365.03125 325.675781 C 365.03125 338.027344 355.019531 348.042969 342.667969 348.042969 C 330.316406 348.042969 320.300781 338.027344 320.300781 325.675781 C 320.300781 313.324219 330.316406 303.3125 342.667969 303.3125 C 355.019531 303.3125 365.03125 313.324219 365.03125 325.675781 "/>
<path style=" stroke:none;fill-rule:nonzero;fill:rgb(100%,100%,100%);fill-opacity:1;" d="M 362.023438 300.300781 C 362.023438 303.167969 357.71875 303.167969 357.71875 300.300781 C 357.71875 297.433594 362.023438 297.433594 362.023438 300.300781 "/>
<path style=" stroke:none;fill-rule:nonzero;fill:rgb(100%,100%,100%);fill-opacity:1;" d="M 364.601562 487.398438 C 364.601562 490.265625 360.300781 490.265625 360.300781 487.398438 C 360.300781 484.53125 364.601562 484.53125 364.601562 487.398438 "/>
<path style=" stroke:none;fill-rule:nonzero;fill:rgb(100%,100%,100%);fill-opacity:1;" d="M 374.925781 305.460938 C 374.925781 308.328125 370.625 308.328125 370.625 305.460938 C 370.625 302.59375 374.925781 302.59375 374.925781 305.460938 "/>
<path style=" stroke:none;fill-rule:nonzero;fill:rgb(100%,100%,100%);fill-opacity:1;" d="M 163.742188 298.152344 C 163.742188 301.019531 159.441406 301.019531 159.441406 298.152344 C 159.441406 295.285156 163.742188 295.285156 163.742188 298.152344 "/>
<path style=" stroke:none;fill-rule:nonzero;fill:rgb(100%,100%,100%);fill-opacity:1;" d="M 80.730469 18.582031 C 80.730469 21.449219 76.429688 21.449219 76.429688 18.582031 C 76.429688 15.714844 80.730469 15.714844 80.730469 18.582031 "/>
<path style=" stroke:none;fill-rule:nonzero;fill:rgb(100%,100%,100%);fill-opacity:1;" d="M 213.203125 499.441406 C 213.203125 502.308594 208.902344 502.308594 208.902344 499.441406 C 208.902344 496.574219 213.203125 496.574219 213.203125 499.441406 "/>
<path style=" stroke:none;fill-rule:nonzero;fill:rgb(100%,100%,100%);fill-opacity:1;" d="M 470.839844 126.109375 C 470.839844 128.976562 466.539062 128.976562 466.539062 126.109375 C 466.539062 123.242188 470.839844 123.242188 470.839844 126.109375 "/>
<path style=" stroke:none;fill-rule:nonzero;fill:rgb(100%,100%,100%);fill-opacity:1;" d="M 363.742188 207.398438 C 363.742188 210.265625 359.441406 210.265625 359.441406 207.398438 C 359.441406 204.53125 363.742188 204.53125 363.742188 207.398438 "/>
<path style=" stroke:none;fill-rule:nonzero;fill:rgb(100%,100%,100%);fill-opacity:1;" d="M 335.355469 138.152344 C 335.355469 141.019531 331.054688 141.019531 331.054688 138.152344 C 331.054688 135.285156 335.355469 135.285156 335.355469 138.152344 "/>
<path style=" stroke:none;fill-rule:nonzero;fill:rgb(100%,100%,100%);fill-opacity:1;" d="M 221.804688 57.71875 C 221.804688 60.585938 217.503906 60.585938 217.503906 57.71875 C 217.503906 54.851562 221.804688 54.851562 221.804688 57.71875 "/>
<path style=" stroke:none;fill-rule:nonzero;fill:rgb(100%,100%,100%);fill-opacity:1;" d="M 7.613281 53.847656 C 7.613281 56.714844 3.3125 56.714844 3.3125 53.847656 C 3.3125 50.980469 7.613281 50.980469 7.613281 53.847656 "/>
<path style=" stroke:none;fill-rule:nonzero;fill:rgb(100%,100%,100%);fill-opacity:1;" d="M 133.203125 135.140625 C 133.203125 138.007812 128.902344 138.007812 128.902344 135.140625 C 128.902344 132.273438 133.203125 132.273438 133.203125 135.140625 "/>
<path style=" stroke:none;fill-rule:nonzero;fill:rgb(100%,100%,100%);fill-opacity:1;" d="M 260.515625 489.117188 C 260.515625 491.984375 256.214844 491.984375 256.214844 489.117188 C 256.214844 486.25 260.515625 486.25 260.515625 489.117188 "/>
<path style=" stroke:none;fill-rule:nonzero;fill:rgb(100%,100%,100%);fill-opacity:1;" d="M 368.472656 401.375 C 368.472656 404.242188 364.171875 404.242188 364.171875 401.375 C 364.171875 398.507812 368.472656 398.507812 368.472656 401.375 "/>
<path style=" stroke:none;fill-rule:nonzero;fill:rgb(100%,100%,100%);fill-opacity:1;" d="M 457.503906 489.976562 C 457.503906 492.84375 453.203125 492.84375 453.203125 489.976562 C 453.203125 487.109375 457.503906 487.109375 457.503906 489.976562 "/>
<path style=" stroke:none;fill-rule:nonzero;fill:rgb(100%,100%,100%);fill-opacity:1;" d="M 205.03125 273.632812 C 205.03125 276.5 200.730469 276.5 200.730469 273.632812 C 200.730469 270.765625 205.03125 270.765625 205.03125 273.632812 "/>
<path style=" stroke:none;fill-rule:nonzero;fill:rgb(100%,100%,100%);fill-opacity:1;" d="M 80.730469 442.238281 C 80.730469 445.105469 76.429688 445.105469 76.429688 442.238281 C 76.429688 439.371094 80.730469 439.371094 80.730469 442.238281 "/>
<path style=" stroke:none;fill-rule:nonzero;fill:rgb(100%,100%,100%);fill-opacity:1;" d="M 395.140625 317.503906 C 395.140625 320.371094 390.839844 320.371094 390.839844 317.503906 C 390.839844 314.636719 395.140625 314.636719 395.140625 317.503906 "/>
<path style=" stroke:none;fill-rule:nonzero;fill:rgb(100%,100%,100%);fill-opacity:1;" d="M 240.730469 26.324219 C 240.730469 29.191406 236.429688 29.191406 236.429688 26.324219 C 236.429688 23.457031 240.730469 23.457031 240.730469 26.324219 "/>
<path style=" stroke:none;fill-rule:nonzero;fill:rgb(100%,100%,100%);fill-opacity:1;" d="M 174.925781 453.847656 C 174.925781 456.714844 170.625 456.714844 170.625 453.847656 C 170.625 450.980469 174.925781 450.980469 174.925781 453.847656 "/>
<path style=" stroke:none;fill-rule:nonzero;fill:rgb(100%,100%,100%);fill-opacity:1;" d="M 210.195312 404.816406 C 210.195312 407.683594 205.890625 407.683594 205.890625 404.816406 C 205.890625 401.949219 210.195312 401.949219 210.195312 404.816406 "/>
<path style=" stroke:none;fill-rule:nonzero;fill:rgb(100%,100%,100%);fill-opacity:1;" d="M 34.28125 415.140625 C 34.28125 418.007812 29.976562 418.007812 29.976562 415.140625 C 29.976562 412.273438 34.28125 412.273438 34.28125 415.140625 "/>
<path style=" stroke:none;fill-rule:nonzero;fill:rgb(100%,100%,100%);fill-opacity:1;" d="M 100.085938 492.128906 C 100.085938 494.996094 95.785156 494.996094 95.785156 492.128906 C 95.785156 489.261719 100.085938 489.261719 100.085938 492.128906 "/>
<path style=" stroke:none;fill-rule:nonzero;fill:rgb(100%,100%,100%);fill-opacity:1;" d="M 316.859375 410.839844 C 316.859375 413.707031 312.558594 413.707031 312.558594 410.839844 C 312.558594 407.972656 316.859375 407.972656 316.859375 410.839844 "/>
<path style=" stroke:none;fill-rule:nonzero;fill:rgb(100%,100%,100%);fill-opacity:1;" d="M 188.6875 331.699219 C 188.6875 334.566406 184.386719 334.566406 184.386719 331.699219 C 184.386719 328.832031 188.6875 328.832031 188.6875 331.699219 "/>
<path style=" stroke:none;fill-rule:nonzero;fill:rgb(100%,100%,100%);fill-opacity:1;" d="M 449.332031 511.484375 C 449.332031 514.351562 445.03125 514.351562 445.03125 511.484375 C 445.03125 508.617188 449.332031 508.617188 449.332031 511.484375 "/>
<path style=" stroke:none;fill-rule:nonzero;fill:rgb(100%,100%,100%);fill-opacity:1;" d="M 162.453125 500.730469 C 162.453125 503.597656 158.152344 503.597656 158.152344 500.730469 C 158.152344 497.863281 162.453125 497.863281 162.453125 500.730469 "/>
<path style=" stroke:none;fill-rule:nonzero;fill:rgb(100%,100%,100%);fill-opacity:1;" d="M 436.429688 474.066406 C 436.429688 476.933594 432.128906 476.933594 432.128906 474.066406 C 432.128906 471.199219 436.429688 471.199219 436.429688 474.066406 "/>
<path style=" stroke:none;fill-rule:nonzero;fill:rgb(100%,100%,100%);fill-opacity:1;" d="M 328.042969 116.644531 C 328.042969 119.511719 323.742188 119.511719 323.742188 116.644531 C 323.742188 113.777344 328.042969 113.777344 328.042969 116.644531 "/>
<path style=" stroke:none;fill-rule:nonzero;fill:rgb(100%,100%,100%);fill-opacity:1;" d="M 316.859375 310.625 C 316.859375 313.492188 312.558594 313.492188 312.558594 310.625 C 312.558594 307.757812 316.859375 307.757812 316.859375 310.625 "/>
<path style=" stroke:none;fill-rule:nonzero;fill:rgb(100%,100%,100%);fill-opacity:1;" d="M 194.28125 279.226562 C 194.28125 282.09375 189.976562 282.09375 189.976562 279.226562 C 189.976562 276.359375 194.28125 276.359375 194.28125 279.226562 "/>
<path style=" stroke:none;fill-rule:nonzero;fill:rgb(100%,100%,100%);fill-opacity:1;" d="M 195.140625 336 C 195.140625 338.867188 190.839844 338.867188 190.839844 336 C 190.839844 333.132812 195.140625 333.132812 195.140625 336 "/>
<path style=" stroke:none;fill-rule:nonzero;fill:rgb(100%,100%,100%);fill-opacity:1;" d="M 356.429688 220.730469 C 356.429688 223.597656 352.128906 223.597656 352.128906 220.730469 C 352.128906 217.863281 356.429688 217.863281 356.429688 220.730469 "/>
<path style=" stroke:none;fill-rule:nonzero;fill:rgb(100%,100%,100%);fill-opacity:1;" d="M 377.933594 286.539062 C 377.933594 289.40625 373.632812 289.40625 373.632812 286.539062 C 373.632812 283.671875 377.933594 283.671875 377.933594 286.539062 "/>
<path style=" stroke:none;fill-rule:nonzero;fill:rgb(100%,100%,100%);fill-opacity:1;" d="M 459.226562 331.269531 C 459.226562 334.136719 454.925781 334.136719 454.925781 331.269531 C 454.925781 328.402344 459.226562 328.402344 459.226562 331.269531 "/>
<path style=" stroke:none;fill-rule:nonzero;fill:rgb(100%,100%,100%);fill-opacity:1;" d="M 214.496094 15.140625 C 214.496094 18.007812 210.195312 18.007812 210.195312 15.140625 C 210.195312 12.273438 214.496094 12.273438 214.496094 15.140625 "/>
<path style=" stroke:none;fill-rule:nonzero;fill:rgb(100%,100%,100%);fill-opacity:1;" d="M 116 120.085938 C 116 122.953125 111.699219 122.953125 111.699219 120.085938 C 111.699219 117.21875 116 117.21875 116 120.085938 "/>
<path style=" stroke:none;fill-rule:nonzero;fill:rgb(100%,100%,100%);fill-opacity:1;" d="M 327.183594 165.675781 C 327.183594 168.542969 322.882812 168.542969 322.882812 165.675781 C 322.882812 162.808594 327.183594 162.808594 327.183594 165.675781 "/>
<path style=" stroke:none;fill-rule:nonzero;fill:rgb(100%,100%,100%);fill-opacity:1;" d="M 483.742188 93.847656 C 483.742188 96.714844 479.441406 96.714844 479.441406 93.847656 C 479.441406 90.980469 483.742188 90.980469 483.742188 93.847656 "/>
<path style=" stroke:none;fill-rule:nonzero;fill:rgb(100%,100%,100%);fill-opacity:1;" d="M 289.332031 108.472656 C 289.332031 111.339844 285.03125 111.339844 285.03125 108.472656 C 285.03125 105.605469 289.332031 105.605469 289.332031 108.472656 "/>
<path style=" stroke:none;fill-rule:nonzero;fill:rgb(100%,100%,100%);fill-opacity:1;" d="M 294.925781 241.375 C 294.925781 244.242188 290.625 244.242188 290.625 241.375 C 290.625 238.507812 294.925781 238.507812 294.925781 241.375 "/>
<path style=" stroke:none;fill-rule:nonzero;fill:rgb(100%,100%,100%);fill-opacity:1;" d="M 450.625 4.386719 C 450.625 7.253906 446.324219 7.253906 446.324219 4.386719 C 446.324219 1.519531 450.625 1.519531 450.625 4.386719 "/>
<path style=" stroke:none;fill-rule:nonzero;fill:rgb(100%,100%,100%);fill-opacity:1;" d="M 424.816406 104.171875 C 424.816406 107.039062 420.515625 107.039062 420.515625 104.171875 C 420.515625 101.304688 424.816406 101.304688 424.816406 104.171875 "/>
<path style=" stroke:none;fill-rule:nonzero;fill:rgb(100%,100%,100%);fill-opacity:1;" d="M 347.398438 393.203125 C 347.398438 396.070312 343.097656 396.070312 343.097656 393.203125 C 343.097656 390.335938 347.398438 390.335938 347.398438 393.203125 "/>
<path style=" stroke:none;fill-rule:nonzero;fill:rgb(100%,84.3%,0%);fill-opacity:1;" d="M 281.589844 102.882812 C 281.589844 105.75 277.289062 105.75 277.289062 102.882812 C 277.289062 100.015625 281.589844 100.015625 281.589844 102.882812 "/>
<path style=" stroke:none;fill-rule:nonzero;fill:rgb(100%,84.3%,0%);fill-opacity:1;" d="M 254.496094 62.023438 C 254.496094 64.890625 250.195312 64.890625 250.195312 62.023438 C 250.195312 59.15625 254.496094 59.15625 254.496094 62.023438 "/>
<path style=" stroke:none;fill-rule:nonzero;fill:rgb(100%,84.3%,0%);fill-opacity:1;" d="M 281.589844 360.515625 C 281.589844 363.382812 277.289062 363.382812 277.289062 360.515625 C 277.289062 357.648438 281.589844 357.648438 281.589844 360.515625 "/>
<path style=" stroke:none;fill-rule:nonzero;fill:rgb(100%,84.3%,0%);fill-opacity:1;" d="M 241.160156 145.03125 C 241.160156 147.898438 236.859375 147.898438 236.859375 145.03125 C 236.859375 142.164062 241.160156 142.164062 241.160156 145.03125 "/>
<path style=" stroke:none;fill-rule:nonzero;fill:rgb(100%,84.3%,0%);fill-opacity:1;" d="M 237.71875 177.71875 C 237.71875 180.585938 233.417969 180.585938 233.417969 177.71875 C 233.417969 174.851562 237.71875 174.851562 237.71875 177.71875 "/>
<path style=" stroke:none;fill-rule:nonzero;fill:rgb(100%,84.3%,0%);fill-opacity:1;" d="M 240.300781 272.34375 C 240.300781 275.210938 236 275.210938 236 272.34375 C 236 269.476562 240.300781 269.476562 240.300781 272.34375 "/>
<path style=" stroke:none;fill-rule:nonzero;fill:rgb(100%,84.3%,0%);fill-opacity:1;" d="M 256.214844 372.128906 C 256.214844 374.996094 251.914062 374.996094 251.914062 372.128906 C 251.914062 369.261719 256.214844 369.261719 256.214844 372.128906 "/>
<path style=" stroke:none;fill-rule:nonzero;fill:rgb(100%,84.3%,0%);fill-opacity:1;" d="M 281.160156 227.613281 C 281.160156 230.480469 276.859375 230.480469 276.859375 227.613281 C 276.859375 224.746094 281.160156 224.746094 281.160156 227.613281 "/>
<path style=" stroke:none;fill-rule:nonzero;fill:rgb(100%,84.3%,0%);fill-opacity:1;" d="M 242.453125 77.503906 C 242.453125 80.371094 238.152344 80.371094 238.152344 77.503906 C 238.152344 74.636719 242.453125 74.636719 242.453125 77.503906 "/>
<path style=" stroke:none;fill-rule:nonzero;fill:rgb(100%,84.3%,0%);fill-opacity:1;" d="M 236.429688 326.539062 C 236.429688 329.40625 232.128906 329.40625 232.128906 326.539062 C 232.128906 323.671875 236.429688 323.671875 236.429688 326.539062 "/>
<path style=" stroke:none;fill-rule:nonzero;fill:rgb(100%,84.3%,0%);fill-opacity:1;" d="M 275.140625 259.441406 C 275.140625 262.308594 270.839844 262.308594 270.839844 259.441406 C 270.839844 256.574219 275.140625 256.574219 275.140625 259.441406 "/>
<path style=" stroke:none;fill-rule:nonzero;fill:rgb(100%,84.3%,0%);fill-opacity:1;" d="M 240.730469 47.828125 C 240.730469 50.695312 236.429688 50.695312 236.429688 47.828125 C 236.429688 44.960938 240.730469 44.960938 240.730469 47.828125 "/>
<path style=" stroke:none;fill-rule:nonzero;fill:rgb(100%,84.3%,0%);fill-opacity:1;" d="M 233.847656 349.332031 C 233.847656 352.199219 229.546875 352.199219 229.546875 349.332031 C 229.546875 346.464844 233.847656 346.464844 233.847656 349.332031 "/>
<path style=" stroke:none;fill-rule:nonzero;fill:rgb(100%,84.3%,0%);fill-opacity:1;" d="M 245.460938 464.601562 C 245.460938 467.46875 241.160156 467.46875 241.160156 464.601562 C 241.160156 461.734375 245.460938 461.734375 245.460938 464.601562 "/>
<path style=" stroke:none;fill-rule:nonzero;fill:rgb(100%,84.3%,0%);fill-opacity:1;" d="M 243.742188 199.226562 C 243.742188 202.09375 239.441406 202.09375 239.441406 199.226562 C 239.441406 196.359375 243.742188 196.359375 243.742188 199.226562 "/>
<path style=" stroke:none;fill-rule:nonzero;fill:rgb(100%,84.3%,0%);fill-opacity:1;" d="M 255.355469 265.03125 C 255.355469 267.898438 251.054688 267.898438 251.054688 265.03125 C 251.054688 262.164062 255.355469 262.164062 255.355469 265.03125 "/>
<path style=" stroke:none;fill-rule:nonzero;fill:rgb(100%,84.3%,0%);fill-opacity:1;" d="M 242.023438 332.988281 C 242.023438 335.855469 237.71875 335.855469 237.71875 332.988281 C 237.71875 330.121094 242.023438 330.121094 242.023438 332.988281 "/>
<path style=" stroke:none;fill-rule:nonzero;fill:rgb(100%,84.3%,0%);fill-opacity:1;" d="M 264.386719 370.839844 C 264.386719 373.707031 260.085938 373.707031 260.085938 370.839844 C 260.085938 367.972656 264.386719 367.972656 264.386719 370.839844 "/>
<path style=" stroke:none;fill-rule:nonzero;fill:rgb(100%,84.3%,0%);fill-opacity:1;" d="M 256.214844 288.6875 C 256.214844 291.554688 251.914062 291.554688 251.914062 288.6875 C 251.914062 285.820312 256.214844 285.820312 256.214844 288.6875 "/>
<path style=" stroke:none;fill-rule:nonzero;fill:rgb(100%,84.3%,0%);fill-opacity:1;" d="M 282.453125 443.097656 C 282.453125 445.964844 278.152344 445.964844 278.152344 443.097656 C 278.152344 440.230469 282.453125 440.230469 282.453125 443.097656 "/>
<path style=" stroke:none;fill-rule:nonzero;fill:rgb(100%,84.3%,0%);fill-opacity:1;" d="M 270.410156 421.160156 C 270.410156 424.027344 266.109375 424.027344 266.109375 421.160156 C 266.109375 418.292969 270.410156 418.292969 270.410156 421.160156 "/>
<path style=" stroke:none;fill-rule:nonzero;fill:rgb(100%,84.3%,0%);fill-opacity:1;" d="M 266.109375 348.902344 C 266.109375 351.769531 261.804688 351.769531 261.804688 348.902344 C 261.804688 346.035156 266.109375 346.035156 266.109375 348.902344 "/>
<path style=" stroke:none;fill-rule:nonzero;fill:rgb(100%,84.3%,0%);fill-opacity:1;" d="M 270.839844 459.871094 C 270.839844 462.738281 266.539062 462.738281 266.539062 459.871094 C 266.539062 457.003906 270.839844 457.003906 270.839844 459.871094 "/>
<path style=" stroke:none;fill-rule:nonzero;fill:rgb(100%,84.3%,0%);fill-opacity:1;" d="M 273.417969 409.117188 C 273.417969 411.984375 269.117188 411.984375 269.117188 409.117188 C 269.117188 406.25 273.417969 406.25 273.417969 409.117188 "/>
<path style=" stroke:none;fill-rule:nonzero;fill:rgb(100%,84.3%,0%);fill-opacity:1;" d="M 252.773438 92.988281 C 252.773438 95.855469 248.472656 95.855469 248.472656 92.988281 C 248.472656 90.121094 252.773438 90.121094 252.773438 92.988281 "/>
<path style=" stroke:none;fill-rule:nonzero;fill:rgb(100%,84.3%,0%);fill-opacity:1;" d="M 264.816406 381.160156 C 264.816406 384.027344 260.515625 384.027344 260.515625 381.160156 C 260.515625 378.292969 264.816406 378.292969 264.816406 381.160156 "/>
<path style=" stroke:none;fill-rule:nonzero;fill:rgb(100%,84.3%,0%);fill-opacity:1;" d="M 234.710938 277.503906 C 234.710938 280.371094 230.410156 280.371094 230.410156 277.503906 C 230.410156 274.636719 234.710938 274.636719 234.710938 277.503906 "/>
<path style=" stroke:none;fill-rule:nonzero;fill:rgb(100%,84.3%,0%);fill-opacity:1;" d="M 269.546875 344.601562 C 269.546875 347.46875 265.246094 347.46875 265.246094 344.601562 C 265.246094 341.734375 269.546875 341.734375 269.546875 344.601562 "/>
<path style=" stroke:none;fill-rule:nonzero;fill:rgb(100%,84.3%,0%);fill-opacity:1;" d="M 242.023438 342.023438 C 242.023438 344.890625 237.71875 344.890625 237.71875 342.023438 C 237.71875 339.15625 242.023438 339.15625 242.023438 342.023438 "/>
<path style=" stroke:none;fill-rule:nonzero;fill:rgb(100%,84.3%,0%);fill-opacity:1;" d="M 260.085938 426.324219 C 260.085938 429.191406 255.785156 429.191406 255.785156 426.324219 C 255.785156 423.457031 260.085938 423.457031 260.085938 426.324219 "/>
<path style=" stroke:none;fill-rule:nonzero;fill:rgb(100%,84.3%,0%);fill-opacity:1;" d="M 261.375 453.847656 C 261.375 456.714844 257.074219 456.714844 257.074219 453.847656 C 257.074219 450.980469 261.375 450.980469 261.375 453.847656 "/>
<path style=" stroke:none;fill-rule:nonzero;fill:rgb(100%,84.3%,0%);fill-opacity:1;" d="M 252.34375 235.785156 C 252.34375 238.652344 248.042969 238.652344 248.042969 235.785156 C 248.042969 232.917969 252.34375 232.917969 252.34375 235.785156 "/>
<path style=" stroke:none;fill-rule:nonzero;fill:rgb(100%,84.3%,0%);fill-opacity:1;" d="M 232.988281 199.226562 C 232.988281 202.09375 228.6875 202.09375 228.6875 199.226562 C 228.6875 196.359375 232.988281 196.359375 232.988281 199.226562 "/>
<path style=" stroke:none;fill-rule:nonzero;fill:rgb(100%,84.3%,0%);fill-opacity:1;" d="M 276 242.667969 C 276 245.535156 271.699219 245.535156 271.699219 242.667969 C 271.699219 239.800781 276 239.800781 276 242.667969 "/>
<path style=" stroke:none;fill-rule:nonzero;fill:rgb(100%,84.3%,0%);fill-opacity:1;" d="M 249.761719 456.429688 C 249.761719 459.296875 245.460938 459.296875 245.460938 456.429688 C 245.460938 453.5625 249.761719 453.5625 249.761719 456.429688 "/>
<path style=" stroke:none;fill-rule:nonzero;fill:rgb(100%,84.3%,0%);fill-opacity:1;" d="M 276 127.398438 C 276 130.265625 271.699219 130.265625 271.699219 127.398438 C 271.699219 124.53125 276 124.53125 276 127.398438 "/>
<path style=" stroke:none;fill-rule:nonzero;fill:rgb(100%,84.3%,0%);fill-opacity:1;" d="M 236 65.460938 C 236 68.328125 231.699219 68.328125 231.699219 65.460938 C 231.699219 62.59375 236 62.59375 236 65.460938 "/>
<path style=" stroke:none;fill-rule:nonzero;fill:rgb(100%,84.3%,0%);fill-opacity:1;" d="M 243.3125 89.976562 C 243.3125 92.84375 239.011719 92.84375 239.011719 89.976562 C 239.011719 87.109375 243.3125 87.109375 243.3125 89.976562 "/>
<path style=" stroke:none;fill-rule:nonzero;fill:rgb(100%,84.3%,0%);fill-opacity:1;" d="M 237.289062 385.890625 C 237.289062 388.757812 232.988281 388.757812 232.988281 385.890625 C 232.988281 383.023438 237.289062 383.023438 237.289062 385.890625 "/>
<path style=" stroke:none;fill-rule:nonzero;fill:rgb(100%,84.3%,0%);fill-opacity:1;" d="M 234.28125 84.816406 C 234.28125 87.683594 229.976562 87.683594 229.976562 84.816406 C 229.976562 81.949219 234.28125 81.949219 234.28125 84.816406 "/>
<path style=" stroke:none;fill-rule:nonzero;fill:rgb(100%,84.3%,0%);fill-opacity:1;" d="M 272.128906 255.570312 C 272.128906 258.4375 267.828125 258.4375 267.828125 255.570312 C 267.828125 252.703125 272.128906 252.703125 272.128906 255.570312 "/>
<path style=" stroke:none;fill-rule:nonzero;fill:rgb(100%,84.3%,0%);fill-opacity:1;" d="M 279.871094 296.429688 C 279.871094 299.296875 275.570312 299.296875 275.570312 296.429688 C 275.570312 293.5625 279.871094 293.5625 279.871094 296.429688 "/>
<path style=" stroke:none;fill-rule:nonzero;fill:rgb(100%,84.3%,0%);fill-opacity:1;" d="M 260.085938 437.503906 C 260.085938 440.371094 255.785156 440.371094 255.785156 437.503906 C 255.785156 434.636719 260.085938 434.636719 260.085938 437.503906 "/>
<path style=" stroke:none;fill-rule:nonzero;fill:rgb(100%,84.3%,0%);fill-opacity:1;" d="M 239.871094 229.332031 C 239.871094 232.199219 235.570312 232.199219 235.570312 229.332031 C 235.570312 226.464844 239.871094 226.464844 239.871094 229.332031 "/>
<path style=" stroke:none;fill-rule:nonzero;fill:rgb(100%,84.3%,0%);fill-opacity:1;" d="M 259.65625 459.871094 C 259.65625 462.738281 255.355469 462.738281 255.355469 459.871094 C 255.355469 457.003906 259.65625 457.003906 259.65625 459.871094 "/>
<path style=" stroke:none;fill-rule:nonzero;fill:rgb(100%,84.3%,0%);fill-opacity:1;" d="M 263.527344 242.238281 C 263.527344 245.105469 259.226562 245.105469 259.226562 242.238281 C 259.226562 239.371094 263.527344 239.371094 263.527344 242.238281 "/>
<path style=" stroke:none;fill-rule:nonzero;fill:rgb(100%,84.3%,0%);fill-opacity:1;" d="M 273.417969 385.890625 C 273.417969 388.757812 269.117188 388.757812 269.117188 385.890625 C 269.117188 383.023438 273.417969 383.023438 273.417969 385.890625 "/>
<path style=" stroke:none;fill-rule:nonzero;fill:rgb(100%,84.3%,0%);fill-opacity:1;" d="M 252.34375 98.152344 C 252.34375 101.019531 248.042969 101.019531 248.042969 98.152344 C 248.042969 95.285156 252.34375 95.285156 252.34375 98.152344 "/>
<path style=" stroke:none;fill-rule:nonzero;fill:rgb(100%,84.3%,0%);fill-opacity:1;" d="M 257.933594 242.238281 C 257.933594 245.105469 253.632812 245.105469 253.632812 242.238281 C 253.632812 239.371094 257.933594 239.371094 257.933594 242.238281 "/>
<path style=" stroke:none;fill-rule:nonzero;fill:rgb(100%,84.3%,0%);fill-opacity:1;" d="M 281.589844 55.140625 C 281.589844 58.007812 277.289062 58.007812 277.289062 55.140625 C 277.289062 52.273438 281.589844 52.273438 281.589844 55.140625 "/>
<path style=" stroke:none;fill-rule:nonzero;fill:rgb(100%,84.3%,0%);fill-opacity:1;" d="M 263.957031 387.613281 C 263.957031 390.480469 259.65625 390.480469 259.65625 387.613281 C 259.65625 384.746094 263.957031 384.746094 263.957031 387.613281 "/>
<path style=" stroke:none;fill-rule:nonzero;fill:rgb(100%,84.3%,0%);fill-opacity:1;" d="M 272.558594 234.496094 C 272.558594 237.363281 268.257812 237.363281 268.257812 234.496094 C 268.257812 231.628906 272.558594 231.628906 272.558594 234.496094 "/>
<path style=" stroke:none;fill-rule:nonzero;fill:rgb(100%,84.3%,0%);fill-opacity:1;" d="M 243.742188 391.054688 C 243.742188 393.921875 239.441406 393.921875 239.441406 391.054688 C 239.441406 388.1875 243.742188 388.1875 243.742188 391.054688 "/>
<path style=" stroke:none;fill-rule:nonzero;fill:rgb(100%,84.3%,0%);fill-opacity:1;" d="M 233.417969 438.796875 C 233.417969 441.664062 229.117188 441.664062 229.117188 438.796875 C 229.117188 435.929688 233.417969 435.929688 233.417969 438.796875 "/>
<path style=" stroke:none;fill-rule:nonzero;fill:rgb(100%,84.3%,0%);fill-opacity:1;" d="M 258.367188 117.503906 C 258.367188 120.371094 254.066406 120.371094 254.066406 117.503906 C 254.066406 114.636719 258.367188 114.636719 258.367188 117.503906 "/>
<path style=" stroke:none;fill-rule:nonzero;fill:rgb(100%,84.3%,0%);fill-opacity:1;" d="M 249.761719 414.710938 C 249.761719 417.578125 245.460938 417.578125 245.460938 414.710938 C 245.460938 411.84375 249.761719 411.84375 249.761719 414.710938 "/>
<path style=" stroke:none;fill-rule:nonzero;fill:rgb(100%,84.3%,0%);fill-opacity:1;" d="M 249.332031 357.933594 C 249.332031 360.800781 245.03125 360.800781 245.03125 357.933594 C 245.03125 355.066406 249.332031 355.066406 249.332031 357.933594 "/>
<path style=" stroke:none;fill-rule:nonzero;fill:rgb(100%,84.3%,0%);fill-opacity:1;" d="M 250.625 268.042969 C 250.625 270.910156 246.324219 270.910156 246.324219 268.042969 C 246.324219 265.175781 250.625 265.175781 250.625 268.042969 "/>
<path style=" stroke:none;fill-rule:nonzero;fill:rgb(100%,84.3%,0%);fill-opacity:1;" d="M 244.601562 423.3125 C 244.601562 426.179688 240.300781 426.179688 240.300781 423.3125 C 240.300781 420.445312 244.601562 420.445312 244.601562 423.3125 "/>
<path style=" stroke:none;fill-rule:nonzero;fill:rgb(100%,84.3%,0%);fill-opacity:1;" d="M 282.453125 335.570312 C 282.453125 338.4375 278.152344 338.4375 278.152344 335.570312 C 278.152344 332.703125 282.453125 332.703125 282.453125 335.570312 "/>
<path style=" stroke:none;fill-rule:nonzero;fill:rgb(100%,84.3%,0%);fill-opacity:1;" d="M 234.710938 361.804688 C 234.710938 364.671875 230.410156 364.671875 230.410156 361.804688 C 230.410156 358.9375 234.710938 358.9375 234.710938 361.804688 "/>
<path style=" stroke:none;fill-rule:nonzero;fill:rgb(100%,84.3%,0%);fill-opacity:1;" d="M 232.988281 355.785156 C 232.988281 358.652344 228.6875 358.652344 228.6875 355.785156 C 228.6875 352.917969 232.988281 352.917969 232.988281 355.785156 "/>
<path style=" stroke:none;fill-rule:nonzero;fill:rgb(100%,84.3%,0%);fill-opacity:1;" d="M 263.957031 285.675781 C 263.957031 288.542969 259.65625 288.542969 259.65625 285.675781 C 259.65625 282.808594 263.957031 282.808594 263.957031 285.675781 "/>
<path style=" stroke:none;fill-rule:nonzero;fill:rgb(100%,84.3%,0%);fill-opacity:1;" d="M 271.269531 308.472656 C 271.269531 311.339844 266.96875 311.339844 266.96875 308.472656 C 266.96875 305.605469 271.269531 305.605469 271.269531 308.472656 "/>
<path style=" stroke:none;fill-rule:nonzero;fill:rgb(100%,84.3%,0%);fill-opacity:1;" d="M 242.023438 434.925781 C 242.023438 437.792969 237.71875 437.792969 237.71875 434.925781 C 237.71875 432.058594 242.023438 432.058594 242.023438 434.925781 "/>
<path style=" stroke:none;fill-rule:nonzero;fill:rgb(100%,84.3%,0%);fill-opacity:1;" d="M 258.796875 280.085938 C 258.796875 282.953125 254.496094 282.953125 254.496094 280.085938 C 254.496094 277.21875 258.796875 277.21875 258.796875 280.085938 "/>
<path style=" stroke:none;fill-rule:nonzero;fill:rgb(100%,84.3%,0%);fill-opacity:1;" d="M 253.203125 434.066406 C 253.203125 436.933594 248.902344 436.933594 248.902344 434.066406 C 248.902344 431.199219 253.203125 431.199219 253.203125 434.066406 "/>
<path style=" stroke:none;fill-rule:nonzero;fill:rgb(100%,84.3%,0%);fill-opacity:1;" d="M 242.453125 353.203125 C 242.453125 356.070312 238.152344 356.070312 238.152344 353.203125 C 238.152344 350.335938 242.453125 350.335938 242.453125 353.203125 "/>
<path style=" stroke:none;fill-rule:nonzero;fill:rgb(100%,84.3%,0%);fill-opacity:1;" d="M 279.871094 312.773438 C 279.871094 315.640625 275.570312 315.640625 275.570312 312.773438 C 275.570312 309.90625 279.871094 309.90625 279.871094 312.773438 "/>
<path style=" stroke:none;fill-rule:nonzero;fill:rgb(100%,84.3%,0%);fill-opacity:1;" d="M 255.355469 422.023438 C 255.355469 424.890625 251.054688 424.890625 251.054688 422.023438 C 251.054688 419.15625 255.355469 419.15625 255.355469 422.023438 "/>
<path style=" stroke:none;fill-rule:nonzero;fill:rgb(100%,84.3%,0%);fill-opacity:1;" d="M 260.085938 357.933594 C 260.085938 360.800781 255.785156 360.800781 255.785156 357.933594 C 255.785156 355.066406 260.085938 355.066406 260.085938 357.933594 "/>
<path style=" stroke:none;fill-rule:nonzero;fill:rgb(100%,84.3%,0%);fill-opacity:1;" d="M 274.28125 313.632812 C 274.28125 316.5 269.976562 316.5 269.976562 313.632812 C 269.976562 310.765625 274.28125 310.765625 274.28125 313.632812 "/>
<path style=" stroke:none;fill-rule:nonzero;fill:rgb(100%,84.3%,0%);fill-opacity:1;" d="M 253.632812 334.28125 C 253.632812 337.148438 249.332031 337.148438 249.332031 334.28125 C 249.332031 331.414062 253.632812 331.414062 253.632812 334.28125 "/>
<path style=" stroke:none;fill-rule:nonzero;fill:rgb(100%,84.3%,0%);fill-opacity:1;" d="M 242.453125 369.976562 C 242.453125 372.84375 238.152344 372.84375 238.152344 369.976562 C 238.152344 367.109375 242.453125 367.109375 242.453125 369.976562 "/>
<path style=" stroke:none;fill-rule:nonzero;fill:rgb(100%,84.3%,0%);fill-opacity:1;" d="M 240.730469 289.117188 C 240.730469 291.984375 236.429688 291.984375 236.429688 289.117188 C 236.429688 286.25 240.730469 286.25 240.730469 289.117188 "/>
<path style=" stroke:none;fill-rule:nonzero;fill:rgb(100%,84.3%,0%);fill-opacity:1;" d="M 264.386719 340.730469 C 264.386719 343.597656 260.085938 343.597656 260.085938 340.730469 C 260.085938 337.863281 264.386719 337.863281 264.386719 340.730469 "/>
<path style=" stroke:none;fill-rule:nonzero;fill:rgb(100%,84.3%,0%);fill-opacity:1;" d="M 250.195312 243.957031 C 250.195312 246.824219 245.890625 246.824219 245.890625 243.957031 C 245.890625 241.089844 250.195312 241.089844 250.195312 243.957031 "/>
<path style=" stroke:none;fill-rule:nonzero;fill:rgb(100%,84.3%,0%);fill-opacity:1;" d="M 245.03125 291.699219 C 245.03125 294.566406 240.730469 294.566406 240.730469 291.699219 C 240.730469 288.832031 245.03125 288.832031 245.03125 291.699219 "/>
<path style=" stroke:none;fill-rule:nonzero;fill:rgb(100%,84.3%,0%);fill-opacity:1;" d="M 270.839844 199.65625 C 270.839844 202.523438 266.539062 202.523438 266.539062 199.65625 C 266.539062 196.789062 270.839844 196.789062 270.839844 199.65625 "/>
<path style=" stroke:none;fill-rule:nonzero;fill:rgb(100%,84.3%,0%);fill-opacity:1;" d="M 260.085938 249.117188 C 260.085938 251.984375 255.785156 251.984375 255.785156 249.117188 C 255.785156 246.25 260.085938 246.25 260.085938 249.117188 "/>
<path style=" stroke:none;fill-rule:nonzero;fill:rgb(100%,84.3%,0%);fill-opacity:1;" d="M 258.367188 235.785156 C 258.367188 238.652344 254.066406 238.652344 254.066406 235.785156 C 254.066406 232.917969 258.367188 232.917969 258.367188 235.785156 "/>
<path style=" stroke:none;fill-rule:nonzero;fill:rgb(100%,84.3%,0%);fill-opacity:1;" d="M 258.367188 184.171875 C 258.367188 187.039062 254.066406 187.039062 254.066406 184.171875 C 254.066406 181.304688 258.367188 181.304688 258.367188 184.171875 "/>
<path style=" stroke:none;fill-rule:nonzero;fill:rgb(100%,84.3%,0%);fill-opacity:1;" d="M 241.589844 216 C 241.589844 218.867188 237.289062 218.867188 237.289062 216 C 237.289062 213.132812 241.589844 213.132812 241.589844 216 "/>
<path style=" stroke:none;fill-rule:nonzero;fill:rgb(100%,84.3%,0%);fill-opacity:1;" d="M 234.710938 154.925781 C 234.710938 157.792969 230.410156 157.792969 230.410156 154.925781 C 230.410156 152.058594 234.710938 152.058594 234.710938 154.925781 "/>
<path style=" stroke:none;fill-rule:nonzero;fill:rgb(100%,84.3%,0%);fill-opacity:1;" d="M 278.152344 204.816406 C 278.152344 207.683594 273.847656 207.683594 273.847656 204.816406 C 273.847656 201.949219 278.152344 201.949219 278.152344 204.816406 "/>
<path style=" stroke:none;fill-rule:nonzero;fill:rgb(100%,84.3%,0%);fill-opacity:1;" d="M 281.160156 64.601562 C 281.160156 67.46875 276.859375 67.46875 276.859375 64.601562 C 276.859375 61.734375 281.160156 61.734375 281.160156 64.601562 "/>
<path style=" stroke:none;fill-rule:nonzero;fill:rgb(100%,84.3%,0%);fill-opacity:1;" d="M 263.957031 141.160156 C 263.957031 144.027344 259.65625 144.027344 259.65625 141.160156 C 259.65625 138.292969 263.957031 138.292969 263.957031 141.160156 "/>
<path style=" stroke:none;fill-rule:nonzero;fill:rgb(100%,84.3%,0%);fill-opacity:1;" d="M 283.3125 265.03125 C 283.3125 267.898438 279.011719 267.898438 279.011719 265.03125 C 279.011719 262.164062 283.3125 262.164062 283.3125 265.03125 "/>
<path style=" stroke:none;fill-rule:nonzero;fill:rgb(100%,84.3%,0%);fill-opacity:1;" d="M 283.3125 174.28125 C 283.3125 177.148438 279.011719 177.148438 279.011719 174.28125 C 279.011719 171.414062 283.3125 171.414062 283.3125 174.28125 "/>
<path style=" stroke:none;fill-rule:nonzero;fill:rgb(100%,84.3%,0%);fill-opacity:1;" d="M 258.796875 140.730469 C 258.796875 143.597656 254.496094 143.597656 254.496094 140.730469 C 254.496094 137.863281 258.796875 137.863281 258.796875 140.730469 "/>
<path style=" stroke:none;fill-rule:nonzero;fill:rgb(100%,84.3%,0%);fill-opacity:1;" d="M 282.023438 75.785156 C 282.023438 78.652344 277.71875 78.652344 277.71875 75.785156 C 277.71875 72.917969 282.023438 72.917969 282.023438 75.785156 "/>
<path style=" stroke:none;fill-rule:nonzero;fill:rgb(100%,84.3%,0%);fill-opacity:1;" d="M 260.515625 57.289062 C 260.515625 60.15625 256.214844 60.15625 256.214844 57.289062 C 256.214844 54.421875 260.515625 54.421875 260.515625 57.289062 "/>
<path style=" stroke:none;fill-rule:nonzero;fill:rgb(100%,84.3%,0%);fill-opacity:1;" d="M 257.074219 214.710938 C 257.074219 217.578125 252.773438 217.578125 252.773438 214.710938 C 252.773438 211.84375 257.074219 211.84375 257.074219 214.710938 "/>
<path style=" stroke:none;fill-rule:nonzero;fill:rgb(100%,84.3%,0%);fill-opacity:1;" d="M 279.441406 168.6875 C 279.441406 171.554688 275.140625 171.554688 275.140625 168.6875 C 275.140625 165.820312 279.441406 165.820312 279.441406 168.6875 "/>
<path style=" stroke:none;fill-rule:nonzero;fill:rgb(100%,84.3%,0%);fill-opacity:1;" d="M 246.753906 180.300781 C 246.753906 183.167969 242.453125 183.167969 242.453125 180.300781 C 242.453125 177.433594 246.753906 177.433594 246.753906 180.300781 "/>
<path style=" stroke:none;fill-rule:nonzero;fill:rgb(100%,84.3%,0%);fill-opacity:1;" d="M 243.3125 157.074219 C 243.3125 159.941406 239.011719 159.941406 239.011719 157.074219 C 239.011719 154.207031 243.3125 154.207031 243.3125 157.074219 "/>
<path style=" stroke:none;fill-rule:nonzero;fill:rgb(100%,84.3%,0%);fill-opacity:1;" d="M 274.710938 161.804688 C 274.710938 164.671875 270.410156 164.671875 270.410156 161.804688 C 270.410156 158.9375 274.710938 158.9375 274.710938 161.804688 "/>
<path style=" stroke:none;fill-rule:nonzero;fill:rgb(100%,84.3%,0%);fill-opacity:1;" d="M 234.28125 192.34375 C 234.28125 195.210938 229.976562 195.210938 229.976562 192.34375 C 229.976562 189.476562 234.28125 189.476562 234.28125 192.34375 "/>
<path style=" stroke:none;fill-rule:nonzero;fill:rgb(100%,84.3%,0%);fill-opacity:1;" d="M 251.054688 170.410156 C 251.054688 173.277344 246.753906 173.277344 246.753906 170.410156 C 246.753906 167.542969 251.054688 167.542969 251.054688 170.410156 "/>
<path style=" stroke:none;fill-rule:nonzero;fill:rgb(100%,84.3%,0%);fill-opacity:1;" d="M 244.171875 174.28125 C 244.171875 177.148438 239.871094 177.148438 239.871094 174.28125 C 239.871094 171.414062 244.171875 171.414062 244.171875 174.28125 "/>
<path style=" stroke:none;fill-rule:nonzero;fill:rgb(100%,84.3%,0%);fill-opacity:1;" d="M 272.558594 143.742188 C 272.558594 146.609375 268.257812 146.609375 268.257812 143.742188 C 268.257812 140.875 272.558594 140.875 272.558594 143.742188 "/>
<path style=" stroke:none;fill-rule:nonzero;fill:rgb(100%,84.3%,0%);fill-opacity:1;" d="M 233.417969 179.011719 C 233.417969 181.878906 229.117188 181.878906 229.117188 179.011719 C 229.117188 176.144531 233.417969 176.144531 233.417969 179.011719 "/>
<path style=" stroke:none;fill-rule:nonzero;fill:rgb(100%,84.3%,0%);fill-opacity:1;" d="M 273.417969 138.152344 C 273.417969 141.019531 269.117188 141.019531 269.117188 138.152344 C 269.117188 135.285156 273.417969 135.285156 273.417969 138.152344 "/>
<path style=" stroke:none;fill-rule:nonzero;fill:rgb(100%,84.3%,0%);fill-opacity:1;" d="M 272.128906 158.367188 C 272.128906 161.234375 267.828125 161.234375 267.828125 158.367188 C 267.828125 155.5 272.128906 155.5 272.128906 158.367188 "/>
<path style=" stroke:none;fill-rule:nonzero;fill:rgb(100%,84.3%,0%);fill-opacity:1;" d="M 276.429688 269.332031 C 276.429688 272.199219 272.128906 272.199219 272.128906 269.332031 C 272.128906 266.464844 276.429688 266.464844 276.429688 269.332031 "/>
</g>
</svg>
