<?xml version="1.0" encoding="UTF-8"?>
<svg xmlns="http://www.w3.org/2000/svg" xmlns:xlink="http://www.w3.org/1999/xlink" width="512pt" height="512pt" viewBox="0 0 512 512" version="1.1">
<g id="surface376">
<rect x="0" y="0" width="512" height="512" style="fill:rgb(26.7%,26.7%,26.7%);fill-opacity:1;stroke:none;"/>
<path style=" stroke:none;fill-rule:nonzero;fill:rgb(19.2%,38.8%,66.7%);fill-opacity:1;" d="M 33.164062 42.667969 L 364.808594 42.667969 L 364.808594 469.332031 L 33.164062 469.332031 Z M 33.164062 42.667969 "/>
<path style=" stroke:none;fill-rule:nonzero;fill:rgb(90.6%,14.9%,14.9%);fill-opacity:1;" d="M 34.207031 479.773438 C 34.207031 481.167969 32.121094 481.167969 32.121094 479.773438 C 32.121094 478.382812 34.207031 478.382812 34.207031 479.773438 "/>
<path style=" stroke:none;fill-rule:nonzero;fill:rgb(90.6%,14.9%,14.9%);fill-opacity:1;" d="M 38.386719 479.773438 C 38.386719 481.167969 36.296875 481.167969 36.296875 479.773438 C 36.296875 478.382812 38.386719 478.382812 38.386719 479.773438 "/>
<path style=" stroke:none;fill-rule:nonzero;fill:rgb(90.6%,14.9%,14.9%);fill-opacity:1;" d="M 42.5625 479.773438 C 42.5625 481.167969 40.472656 481.167969 40.472656 479.773438 C 40.472656 478.382812 42.5625 478.382812 42.5625 479.773438 "/>
<path style=" stroke:none;fill-rule:nonzero;fill:rgb(90.6%,14.9%,14.9%);fill-opacity:1;" d="M 46.738281 479.773438 C 46.738281 481.167969 44.652344 481.167969 44.652344 479.773438 C 44.652344 478.382812 46.738281 478.382812 46.738281 479.773438 "/>
<path style=" stroke:none;fill-rule:nonzero;fill:rgb(90.6%,14.9%,14.9%);fill-opacity:1;" d="M 50.917969 479.773438 C 50.917969 481.167969 48.828125 481.167969 48.828125 479.773438 C 48.828125 478.382812 50.917969 478.382812 50.917969 479.773438 "/>
<path style=" stroke:none;fill-rule:nonzero;fill:rgb(90.6%,14.9%,14.9%);fill-opacity:1;" d="M 55.09375 479.773438 C 55.09375 481.167969 53.003906 481.167969 53.003906 479.773438 C 53.003906 478.382812 55.09375 478.382812 55.09375 479.773438 "/>
<path style=" stroke:none;fill-rule:nonzero;fill:rgb(90.6%,14.9%,14.9%);fill-opacity:1;" d="M 59.269531 479.773438 C 59.269531 481.167969 57.179688 481.167969 57.179688 479.773438 C 57.179688 478.382812 59.269531 478.382812 59.269531 479.773438 "/>
<path style=" stroke:none;fill-rule:nonzero;fill:rgb(90.6%,14.9%,14.9%);fill-opacity:1;" d="M 63.445312 479.773438 C 63.445312 481.167969 61.359375 481.167969 61.359375 479.773438 C 61.359375 478.382812 63.445312 478.382812 63.445312 479.773438 "/>
<path style=" stroke:none;fill-rule:nonzero;fill:rgb(90.6%,14.9%,14.9%);fill-opacity:1;" d="M 67.625 479.773438 C 67.625 481.167969 65.535156 481.167969 65.535156 479.773438 C 65.535156 478.382812 67.625 478.382812 67.625 479.773438 "/>
<path style=" stroke:none;fill-rule:nonzero;fill:rgb(90.6%,14.9%,14.9%);fill-opacity:1;" d="M 71.800781 479.773438 C 71.800781 481.167969 69.710938 481.167969 69.710938 479.773438 C 69.710938 478.382812 71.800781 478.382812 71.800781 479.773438 "/>
<path style=" stroke:none;fill-rule:nonzero;fill:rgb(90.6%,14.9%,14.9%);fill-opacity:1;" d="M 75.976562 479.773438 C 75.976562 481.167969 73.890625 481.167969 73.890625 479.773438 C 73.890625 478.382812 75.976562 478.382812 75.976562 479.773438 "/>
<path style=" stroke:none;fill-rule:nonzero;fill:rgb(90.6%,14.9%,14.9%);fill-opacity:1;" d="M 80.152344 479.773438 C 80.152344 481.167969 78.066406 481.167969 78.066406 479.773438 C 78.066406 478.382812 80.152344 478.382812 80.152344 479.773438 "/>
<path style=" stroke:none;fill-rule:nonzero;fill:rgb(90.6%,14.9%,14.9%);fill-opacity:1;" d="M 84.332031 479.773438 C 84.332031 481.167969 82.242188 481.167969 82.242188 479.773438 C 82.242188 478.382812 84.332031 478.382812 84.332031 479.773438 "/>
<path style=" stroke:none;fill-rule:nonzero;fill:rgb(90.6%,14.9%,14.9%);fill-opacity:1;" d="M 88.507812 479.773438 C 88.507812 481.167969 86.417969 481.167969 86.417969 479.773438 C 86.417969 478.382812 88.507812 478.382812 88.507812 479.773438 "/>
<path style=" stroke:none;fill-rule:nonzero;fill:rgb(90.6%,14.9%,14.9%);fill-opacity:1;" d="M 92.683594 479.773438 C 92.683594 481.167969 90.597656 481.167969 90.597656 479.773438 C 90.597656 478.382812 92.683594 478.382812 92.683594 479.773438 "/>
<path style=" stroke:none;fill-rule:nonzero;fill:rgb(90.6%,14.9%,14.9%);fill-opacity:1;" d="M 96.859375 479.773438 C 96.859375 481.167969 94.773438 481.167969 94.773438 479.773438 C 94.773438 478.382812 96.859375 478.382812 96.859375 479.773438 "/>
<path style=" stroke:none;fill-rule:nonzero;fill:rgb(90.6%,14.9%,14.9%);fill-opacity:1;" d="M 101.039062 479.773438 C 101.039062 481.167969 98.949219 481.167969 98.949219 479.773438 C 98.949219 478.382812 101.039062 478.382812 101.039062 479.773438 "/>
<path style=" stroke:none;fill-rule:nonzero;fill:rgb(90.6%,14.9%,14.9%);fill-opacity:1;" d="M 105.214844 479.773438 C 105.214844 481.167969 103.125 481.167969 103.125 479.773438 C 103.125 478.382812 105.214844 478.382812 105.214844 479.773438 "/>
<path style=" stroke:none;fill-rule:nonzero;fill:rgb(90.6%,14.9%,14.9%);fill-opacity:1;" d="M 109.390625 479.773438 C 109.390625 481.167969 107.304688 481.167969 107.304688 479.773438 C 107.304688 478.382812 109.390625 478.382812 109.390625 479.773438 "/>
<path style=" stroke:none;fill-rule:nonzero;fill:rgb(90.6%,14.9%,14.9%);fill-opacity:1;" d="M 34.207031 32.226562 C 34.207031 33.617188 32.121094 33.617188 32.121094 32.226562 C 32.121094 30.832031 34.207031 30.832031 34.207031 32.226562 "/>
<path style=" stroke:none;fill-rule:nonzero;fill:rgb(90.6%,14.9%,14.9%);fill-opacity:1;" d="M 38.386719 32.226562 C 38.386719 33.617188 36.296875 33.617188 36.296875 32.226562 C 36.296875 30.832031 38.386719 30.832031 38.386719 32.226562 "/>
<path style=" stroke:none;fill-rule:nonzero;fill:rgb(90.6%,14.9%,14.9%);fill-opacity:1;" d="M 42.5625 32.226562 C 42.5625 33.617188 40.472656 33.617188 40.472656 32.226562 C 40.472656 30.832031 42.5625 30.832031 42.5625 32.226562 "/>
<path style=" stroke:none;fill-rule:nonzero;fill:rgb(90.6%,14.9%,14.9%);fill-opacity:1;" d="M 46.738281 32.226562 C 46.738281 33.617188 44.652344 33.617188 44.652344 32.226562 C 44.652344 30.832031 46.738281 30.832031 46.738281 32.226562 "/>
<path style=" stroke:none;fill-rule:nonzero;fill:rgb(90.6%,14.9%,14.9%);fill-opacity:1;" d="M 50.917969 32.226562 C 50.917969 33.617188 48.828125 33.617188 48.828125 32.226562 C 48.828125 30.832031 50.917969 30.832031 50.917969 32.226562 "/>
<path style=" stroke:none;fill-rule:nonzero;fill:rgb(90.6%,14.9%,14.9%);fill-opacity:1;" d="M 55.09375 32.226562 C 55.09375 33.617188 53.003906 33.617188 53.003906 32.226562 C 53.003906 30.832031 55.09375 30.832031 55.09375 32.226562 "/>
<path style=" stroke:none;fill-rule:nonzero;fill:rgb(90.6%,14.9%,14.9%);fill-opacity:1;" d="M 59.269531 32.226562 C 59.269531 33.617188 57.179688 33.617188 57.179688 32.226562 C 57.179688 30.832031 59.269531 30.832031 59.269531 32.226562 "/>
<path style=" stroke:none;fill-rule:nonzero;fill:rgb(90.6%,14.9%,14.9%);fill-opacity:1;" d="M 63.445312 32.226562 C 63.445312 33.617188 61.359375 33.617188 61.359375 32.226562 C 61.359375 30.832031 63.445312 30.832031 63.445312 32.226562 "/>
<path style=" stroke:none;fill-rule:nonzero;fill:rgb(90.6%,14.9%,14.9%);fill-opacity:1;" d="M 67.625 32.226562 C 67.625 33.617188 65.535156 33.617188 65.535156 32.226562 C 65.535156 30.832031 67.625 30.832031 67.625 32.226562 "/>
<path style=" stroke:none;fill-rule:nonzero;fill:rgb(90.6%,14.9%,14.9%);fill-opacity:1;" d="M 71.800781 32.226562 C 71.800781 33.617188 69.710938 33.617188 69.710938 32.226562 C 69.710938 30.832031 71.800781 30.832031 71.800781 32.226562 "/>
<path style=" stroke:none;fill-rule:nonzero;fill:rgb(90.6%,14.9%,14.9%);fill-opacity:1;" d="M 75.976562 32.226562 C 75.976562 33.617188 73.890625 33.617188 73.890625 32.226562 C 73.890625 30.832031 75.976562 30.832031 75.976562 32.226562 "/>
<path style=" stroke:none;fill-rule:nonzero;fill:rgb(90.6%,14.9%,14.9%);fill-opacity:1;" d="M 80.152344 32.226562 C 80.152344 33.617188 78.066406 33.617188 78.066406 32.226562 C 78.066406 30.832031 80.152344 30.832031 80.152344 32.226562 "/>
<path style=" stroke:none;fill-rule:nonzero;fill:rgb(90.6%,14.9%,14.9%);fill-opacity:1;" d="M 84.332031 32.226562 C 84.332031 33.617188 82.242188 33.617188 82.242188 32.226562 C 82.242188 30.832031 84.332031 30.832031 84.332031 32.226562 "/>
<path style=" stroke:none;fill-rule:nonzero;fill:rgb(90.6%,14.9%,14.9%);fill-opacity:1;" d="M 88.507812 32.226562 C 88.507812 33.617188 86.417969 33.617188 86.417969 32.226562 C 86.417969 30.832031 88.507812 30.832031 88.507812 32.226562 "/>
<path style=" stroke:none;fill-rule:nonzero;fill:rgb(90.6%,14.9%,14.9%);fill-opacity:1;" d="M 92.683594 32.226562 C 92.683594 33.617188 90.597656 33.617188 90.597656 32.226562 C 90.597656 30.832031 92.683594 30.832031 92.683594 32.226562 "/>
<path style=" stroke:none;fill-rule:nonzero;fill:rgb(90.6%,14.9%,14.9%);fill-opacity:1;" d="M 96.859375 32.226562 C 96.859375 33.617188 94.773438 33.617188 94.773438 32.226562 C 94.773438 30.832031 96.859375 30.832031 96.859375 32.226562 "/>
<path style=" stroke:none;fill-rule:nonzero;fill:rgb(90.6%,14.9%,14.9%);fill-opacity:1;" d="M 101.039062 32.226562 C 101.039062 33.617188 98.949219 33.617188 98.949219 32.226562 C 98.949219 30.832031 101.039062 30.832031 101.039062 32.226562 "/>
<path style=" stroke:none;fill-rule:nonzero;fill:rgb(90.6%,14.9%,14.9%);fill-opacity:1;" d="M 105.214844 32.226562 C 105.214844 33.617188 103.125 33.617188 103.125 32.226562 C 103.125 30.832031 105.214844 30.832031 105.214844 32.226562 "/>
<path style=" stroke:none;fill-rule:nonzero;fill:rgb(90.6%,14.9%,14.9%);fill-opacity:1;" d="M 109.390625 32.226562 C 109.390625 33.617188 107.304688 33.617188 107.304688 32.226562 C 107.304688 30.832031 109.390625 30.832031 109.390625 32.226562 "/>
<path style=" stroke:none;fill-rule:nonzero;fill:rgb(90.6%,14.9%,14.9%);fill-opacity:1;" d="M 113.570312 32.226562 C 113.570312 33.617188 111.480469 33.617188 111.480469 32.226562 C 111.480469 30.832031 113.570312 30.832031 113.570312 32.226562 "/>
<path style=" stroke:none;fill-rule:nonzero;fill:rgb(100%,100%,100%);fill-opacity:1;" d="M 432.679688 500.242188 C 432.679688 501.632812 430.59375 501.632812 430.59375 500.242188 C 430.59375 498.851562 432.679688 498.851562 432.679688 500.242188 "/>
<path style=" stroke:none;fill-rule:nonzero;fill:rgb(100%,100%,100%);fill-opacity:1;" d="M 460.25 42.457031 C 460.25 43.851562 458.160156 43.851562 458.160156 42.457031 C 458.160156 41.066406 460.25 41.066406 460.25 42.457031 "/>
<path style=" stroke:none;fill-rule:nonzero;fill:rgb(100%,100%,100%);fill-opacity:1;" d="M 329.511719 512.980469 C 329.511719 514.375 327.425781 514.375 327.425781 512.980469 C 327.425781 511.589844 329.511719 511.589844 329.511719 512.980469 "/>
<path style=" stroke:none;fill-rule:nonzero;fill:rgb(100%,100%,100%);fill-opacity:1;" d="M 42.769531 36.402344 C 42.769531 37.792969 40.683594 37.792969 40.683594 36.402344 C 40.683594 35.007812 42.769531 35.007812 42.769531 36.402344 "/>
<path style=" stroke:none;fill-rule:nonzero;fill:rgb(100%,100%,100%);fill-opacity:1;" d="M 249.941406 29.925781 C 249.941406 31.320312 247.855469 31.320312 247.855469 29.925781 C 247.855469 28.535156 249.941406 28.535156 249.941406 29.925781 "/>
<path style=" stroke:none;fill-rule:nonzero;fill:rgb(100%,100%,100%);fill-opacity:1;" d="M 306.75 489.382812 C 306.75 490.773438 304.660156 490.773438 304.660156 489.382812 C 304.660156 487.988281 306.75 487.988281 306.75 489.382812 "/>
<path style=" stroke:none;fill-rule:nonzero;fill:rgb(100%,100%,100%);fill-opacity:1;" d="M 287.117188 12.175781 C 287.117188 13.566406 285.027344 13.566406 285.027344 12.175781 C 285.027344 10.785156 287.117188 10.785156 287.117188 12.175781 "/>
<path style=" stroke:none;fill-rule:nonzero;fill:rgb(100%,100%,100%);fill-opacity:1;" d="M 182.277344 24.078125 C 182.277344 25.472656 180.191406 25.472656 180.191406 24.078125 C 180.191406 22.6875 182.277344 22.6875 182.277344 24.078125 "/>
<path style=" stroke:none;fill-rule:nonzero;fill:rgb(100%,100%,100%);fill-opacity:1;" d="M 383.394531 8.207031 C 383.394531 9.601562 381.304688 9.601562 381.304688 8.207031 C 381.304688 6.816406 383.394531 6.816406 383.394531 8.207031 "/>
<path style=" stroke:none;fill-rule:nonzero;fill:rgb(100%,100%,100%);fill-opacity:1;" d="M 280.226562 39.742188 C 280.226562 41.136719 278.136719 41.136719 278.136719 39.742188 C 278.136719 38.351562 280.226562 38.351562 280.226562 39.742188 "/>
<path style=" stroke:none;fill-rule:nonzero;fill:rgb(100%,100%,100%);fill-opacity:1;" d="M 351.230469 17.1875 C 351.230469 18.582031 349.144531 18.582031 349.144531 17.1875 C 349.144531 15.796875 351.230469 15.796875 351.230469 17.1875 "/>
<path style=" stroke:none;fill-rule:nonzero;fill:rgb(100%,100%,100%);fill-opacity:1;" d="M 200.445312 7.582031 C 200.445312 8.972656 198.359375 8.972656 198.359375 7.582031 C 198.359375 6.1875 200.445312 6.1875 200.445312 7.582031 "/>
<path style=" stroke:none;fill-rule:nonzero;fill:rgb(100%,100%,100%);fill-opacity:1;" d="M 3.300781 511.3125 C 3.300781 512.703125 1.210938 512.703125 1.210938 511.3125 C 1.210938 509.917969 3.300781 509.917969 3.300781 511.3125 "/>
<path style=" stroke:none;fill-rule:nonzero;fill:rgb(100%,100%,100%);fill-opacity:1;" d="M 502.851562 500.449219 C 502.851562 501.84375 500.765625 501.84375 500.765625 500.449219 C 500.765625 499.058594 502.851562 499.058594 502.851562 500.449219 "/>
<path style=" stroke:none;fill-rule:nonzero;fill:rgb(100%,100%,100%);fill-opacity:1;" d="M 192.304688 29.09375 C 192.304688 30.484375 190.214844 30.484375 190.214844 29.09375 C 190.214844 27.699219 192.304688 27.699219 192.304688 29.09375 "/>
<path style=" stroke:none;fill-rule:nonzero;fill:rgb(100%,100%,100%);fill-opacity:1;" d="M 471.734375 37.238281 C 471.734375 38.628906 469.648438 38.628906 469.648438 37.238281 C 469.648438 35.84375 471.734375 35.84375 471.734375 37.238281 "/>
<path style=" stroke:none;fill-rule:nonzero;fill:rgb(100%,100%,100%);fill-opacity:1;" d="M 211.515625 19.066406 C 211.515625 20.460938 209.429688 20.460938 209.429688 19.066406 C 209.429688 17.675781 211.515625 17.675781 211.515625 19.066406 "/>
<path style=" stroke:none;fill-rule:nonzero;fill:rgb(100%,100%,100%);fill-opacity:1;" d="M 477.164062 11.96875 C 477.164062 13.359375 475.078125 13.359375 475.078125 11.96875 C 475.078125 10.574219 477.164062 10.574219 477.164062 11.96875 "/>
<path style=" stroke:none;fill-rule:nonzero;fill:rgb(100%,100%,100%);fill-opacity:1;" d="M 284.609375 505.464844 C 284.609375 506.855469 282.523438 506.855469 282.523438 505.464844 C 282.523438 504.070312 284.609375 504.070312 284.609375 505.464844 "/>
<path style=" stroke:none;fill-rule:nonzero;fill:rgb(100%,100%,100%);fill-opacity:1;" d="M 330.558594 473.511719 C 330.558594 474.902344 328.46875 474.902344 328.46875 473.511719 C 328.46875 472.117188 330.558594 472.117188 330.558594 473.511719 "/>
<path style=" stroke:none;fill-rule:nonzero;fill:rgb(100%,100%,100%);fill-opacity:1;" d="M 365.226562 497.945312 C 365.226562 499.335938 363.136719 499.335938 363.136719 497.945312 C 363.136719 496.550781 365.226562 496.550781 365.226562 497.945312 "/>
<path style=" stroke:none;fill-rule:nonzero;fill:rgb(100%,100%,100%);fill-opacity:1;" d="M 407.203125 10.714844 C 407.203125 12.105469 405.113281 12.105469 405.113281 10.714844 C 405.113281 9.320312 407.203125 9.320312 407.203125 10.714844 "/>
<path style=" stroke:none;fill-rule:nonzero;fill:rgb(100%,100%,100%);fill-opacity:1;" d="M 312.179688 36.820312 C 312.179688 38.210938 310.089844 38.210938 310.089844 36.820312 C 310.089844 35.425781 312.179688 35.425781 312.179688 36.820312 "/>
<path style=" stroke:none;fill-rule:nonzero;fill:rgb(100%,84.3%,0%);fill-opacity:1;" d="M 164.734375 271.976562 C 164.734375 273.371094 162.648438 273.371094 162.648438 271.976562 C 162.648438 270.585938 164.734375 270.585938 164.734375 271.976562 "/>
<path style=" stroke:none;fill-rule:nonzero;fill:rgb(100%,84.3%,0%);fill-opacity:1;" d="M 352.066406 209.53125 C 352.066406 210.925781 349.980469 210.925781 349.980469 209.53125 C 349.980469 208.140625 352.066406 208.140625 352.066406 209.53125 "/>
<path style=" stroke:none;fill-rule:nonzero;fill:rgb(100%,84.3%,0%);fill-opacity:1;" d="M 231.566406 98.636719 C 231.566406 100.027344 229.476562 100.027344 229.476562 98.636719 C 229.476562 97.246094 231.566406 97.246094 231.566406 98.636719 "/>
<path style=" stroke:none;fill-rule:nonzero;fill:rgb(100%,84.3%,0%);fill-opacity:1;" d="M 305.078125 187.605469 C 305.078125 188.996094 302.988281 188.996094 302.988281 187.605469 C 302.988281 186.210938 305.078125 186.210938 305.078125 187.605469 "/>
<path style=" stroke:none;fill-rule:nonzero;fill:rgb(100%,84.3%,0%);fill-opacity:1;" d="M 159.933594 48.722656 C 159.933594 50.117188 157.84375 50.117188 157.84375 48.722656 C 157.84375 47.332031 159.933594 47.332031 159.933594 48.722656 "/>
<path style=" stroke:none;fill-rule:nonzero;fill:rgb(100%,84.3%,0%);fill-opacity:1;" d="M 331.390625 173.609375 C 331.390625 175.003906 329.304688 175.003906 329.304688 173.609375 C 329.304688 172.21875 331.390625 172.21875 331.390625 173.609375 "/>
<path style=" stroke:none;fill-rule:nonzero;fill:rgb(100%,84.3%,0%);fill-opacity:1;" d="M 243.679688 274.484375 C 243.679688 275.875 241.589844 275.875 241.589844 274.484375 C 241.589844 273.089844 243.679688 273.089844 243.679688 274.484375 "/>
<path style=" stroke:none;fill-rule:nonzero;fill:rgb(100%,84.3%,0%);fill-opacity:1;" d="M 125.683594 145.835938 C 125.683594 147.226562 123.59375 147.226562 123.59375 145.835938 C 123.59375 144.441406 125.683594 144.441406 125.683594 145.835938 "/>
<path style=" stroke:none;fill-rule:nonzero;fill:rgb(100%,84.3%,0%);fill-opacity:1;" d="M 103.542969 439.261719 C 103.542969 440.652344 101.457031 440.652344 101.457031 439.261719 C 101.457031 437.867188 103.542969 437.867188 103.542969 439.261719 "/>
<path style=" stroke:none;fill-rule:nonzero;fill:rgb(100%,84.3%,0%);fill-opacity:1;" d="M 156.800781 427.980469 C 156.800781 429.375 154.710938 429.375 154.710938 427.980469 C 154.710938 426.589844 156.800781 426.589844 156.800781 427.980469 "/>
<path style=" stroke:none;fill-rule:nonzero;fill:rgb(100%,84.3%,0%);fill-opacity:1;" d="M 94.773438 362.195312 C 94.773438 363.589844 92.683594 363.589844 92.683594 362.195312 C 92.683594 360.804688 94.773438 360.804688 94.773438 362.195312 "/>
<path style=" stroke:none;fill-rule:nonzero;fill:rgb(100%,84.3%,0%);fill-opacity:1;" d="M 104.171875 103.441406 C 104.171875 104.832031 102.082031 104.832031 102.082031 103.441406 C 102.082031 102.046875 104.171875 102.046875 104.171875 103.441406 "/>
<path style=" stroke:none;fill-rule:nonzero;fill:rgb(100%,84.3%,0%);fill-opacity:1;" d="M 354.363281 450.746094 C 354.363281 452.136719 352.277344 452.136719 352.277344 450.746094 C 352.277344 449.355469 354.363281 449.355469 354.363281 450.746094 "/>
<path style=" stroke:none;fill-rule:nonzero;fill:rgb(100%,84.3%,0%);fill-opacity:1;" d="M 219.453125 361.570312 C 219.453125 362.960938 217.363281 362.960938 217.363281 361.570312 C 217.363281 360.175781 219.453125 360.175781 219.453125 361.570312 "/>
<path style=" stroke:none;fill-rule:nonzero;fill:rgb(100%,84.3%,0%);fill-opacity:1;" d="M 292.964844 441.140625 C 292.964844 442.53125 290.875 442.53125 290.875 441.140625 C 290.875 439.746094 292.964844 439.746094 292.964844 441.140625 "/>
<path style=" stroke:none;fill-rule:nonzero;fill:rgb(100%,84.3%,0%);fill-opacity:1;" d="M 173.714844 83.183594 C 173.714844 84.574219 171.628906 84.574219 171.628906 83.183594 C 171.628906 81.789062 173.714844 81.789062 173.714844 83.183594 "/>
<path style=" stroke:none;fill-rule:nonzero;fill:rgb(100%,84.3%,0%);fill-opacity:1;" d="M 289.207031 180.921875 C 289.207031 182.3125 287.117188 182.3125 287.117188 180.921875 C 287.117188 179.527344 289.207031 179.527344 289.207031 180.921875 "/>
<path style=" stroke:none;fill-rule:nonzero;fill:rgb(100%,84.3%,0%);fill-opacity:1;" d="M 247.855469 65.222656 C 247.855469 66.613281 245.765625 66.613281 245.765625 65.222656 C 245.765625 63.828125 247.855469 63.828125 247.855469 65.222656 "/>
<path style=" stroke:none;fill-rule:nonzero;fill:rgb(100%,84.3%,0%);fill-opacity:1;" d="M 268.949219 130.382812 C 268.949219 131.773438 266.859375 131.773438 266.859375 130.382812 C 266.859375 128.988281 268.949219 128.988281 268.949219 130.382812 "/>
<path style=" stroke:none;fill-rule:nonzero;fill:rgb(100%,84.3%,0%);fill-opacity:1;" d="M 56.761719 446.777344 C 56.761719 448.171875 54.675781 448.171875 54.675781 446.777344 C 54.675781 445.386719 56.761719 445.386719 56.761719 446.777344 "/>
<path style=" stroke:none;fill-rule:nonzero;fill:rgb(100%,84.3%,0%);fill-opacity:1;" d="M 119.417969 459.933594 C 119.417969 461.328125 117.328125 461.328125 117.328125 459.933594 C 117.328125 458.542969 119.417969 458.542969 119.417969 459.933594 "/>
<path style=" stroke:none;fill-rule:nonzero;fill:rgb(100%,84.3%,0%);fill-opacity:1;" d="M 277.71875 116.179688 C 277.71875 117.570312 275.628906 117.570312 275.628906 116.179688 C 275.628906 114.785156 277.71875 114.785156 277.71875 116.179688 "/>
<path style=" stroke:none;fill-rule:nonzero;fill:rgb(100%,84.3%,0%);fill-opacity:1;" d="M 264.355469 113.257812 C 264.355469 114.648438 262.265625 114.648438 262.265625 113.257812 C 262.265625 111.863281 264.355469 111.863281 264.355469 113.257812 "/>
<path style=" stroke:none;fill-rule:nonzero;fill:rgb(100%,84.3%,0%);fill-opacity:1;" d="M 147.609375 126.621094 C 147.609375 128.015625 145.523438 128.015625 145.523438 126.621094 C 145.523438 125.230469 147.609375 125.230469 147.609375 126.621094 "/>
<path style=" stroke:none;fill-rule:nonzero;fill:rgb(100%,84.3%,0%);fill-opacity:1;" d="M 58.851562 406.679688 C 58.851562 408.074219 56.765625 408.074219 56.765625 406.679688 C 56.765625 405.289062 58.851562 405.289062 58.851562 406.679688 "/>
<path style=" stroke:none;fill-rule:nonzero;fill:rgb(100%,84.3%,0%);fill-opacity:1;" d="M 342.042969 285.96875 C 342.042969 287.359375 339.953125 287.359375 339.953125 285.96875 C 339.953125 284.578125 342.042969 284.578125 342.042969 285.96875 "/>
<path style=" stroke:none;fill-rule:nonzero;fill:rgb(100%,84.3%,0%);fill-opacity:1;" d="M 133.617188 207.863281 C 133.617188 209.253906 131.53125 209.253906 131.53125 207.863281 C 131.53125 206.46875 133.617188 206.46875 133.617188 207.863281 "/>
<path style=" stroke:none;fill-rule:nonzero;fill:rgb(100%,84.3%,0%);fill-opacity:1;" d="M 349.5625 73.785156 C 349.5625 75.175781 347.472656 75.175781 347.472656 73.785156 C 347.472656 72.390625 349.5625 72.390625 349.5625 73.785156 "/>
<path style=" stroke:none;fill-rule:nonzero;fill:rgb(100%,84.3%,0%);fill-opacity:1;" d="M 286.28125 195.539062 C 286.28125 196.933594 284.195312 196.933594 284.195312 195.539062 C 284.195312 194.148438 286.28125 194.148438 286.28125 195.539062 "/>
<path style=" stroke:none;fill-rule:nonzero;fill:rgb(100%,84.3%,0%);fill-opacity:1;" d="M 358.75 265.292969 C 358.75 266.6875 356.664062 266.6875 356.664062 265.292969 C 356.664062 263.902344 358.75 263.902344 358.75 265.292969 "/>
<path style=" stroke:none;fill-rule:nonzero;fill:rgb(100%,84.3%,0%);fill-opacity:1;" d="M 298.394531 463.066406 C 298.394531 464.460938 296.308594 464.460938 296.308594 463.066406 C 296.308594 461.675781 298.394531 461.675781 298.394531 463.066406 "/>
<path style=" stroke:none;fill-rule:nonzero;fill:rgb(100%,84.3%,0%);fill-opacity:1;" d="M 65.117188 49.558594 C 65.117188 50.949219 63.027344 50.949219 63.027344 49.558594 C 63.027344 48.164062 65.117188 48.164062 65.117188 49.558594 "/>
<path style=" stroke:none;fill-rule:nonzero;fill:rgb(100%,84.3%,0%);fill-opacity:1;" d="M 262.472656 413.570312 C 262.472656 414.964844 260.386719 414.964844 260.386719 413.570312 C 260.386719 412.179688 262.472656 412.179688 262.472656 413.570312 "/>
<path style=" stroke:none;fill-rule:nonzero;fill:rgb(100%,84.3%,0%);fill-opacity:1;" d="M 262.683594 159.828125 C 262.683594 161.21875 260.59375 161.21875 260.59375 159.828125 C 260.59375 158.4375 262.683594 158.4375 262.683594 159.828125 "/>
<path style=" stroke:none;fill-rule:nonzero;fill:rgb(100%,84.3%,0%);fill-opacity:1;" d="M 117.953125 409.8125 C 117.953125 411.207031 115.867188 411.207031 115.867188 409.8125 C 115.867188 408.421875 117.953125 408.421875 117.953125 409.8125 "/>
<path style=" stroke:none;fill-rule:nonzero;fill:rgb(100%,84.3%,0%);fill-opacity:1;" d="M 259.757812 98.011719 C 259.757812 99.402344 257.671875 99.402344 257.671875 98.011719 C 257.671875 96.617188 259.757812 96.617188 259.757812 98.011719 "/>
<path style=" stroke:none;fill-rule:nonzero;fill:rgb(100%,84.3%,0%);fill-opacity:1;" d="M 204.832031 136.855469 C 204.832031 138.246094 202.746094 138.246094 202.746094 136.855469 C 202.746094 135.460938 204.832031 135.460938 204.832031 136.855469 "/>
<path style=" stroke:none;fill-rule:nonzero;fill:rgb(100%,84.3%,0%);fill-opacity:1;" d="M 322.832031 61.046875 C 322.832031 62.4375 320.742188 62.4375 320.742188 61.046875 C 320.742188 59.652344 322.832031 59.652344 322.832031 61.046875 "/>
<path style=" stroke:none;fill-rule:nonzero;fill:rgb(100%,84.3%,0%);fill-opacity:1;" d="M 258.925781 182.382812 C 258.925781 183.773438 256.835938 183.773438 256.835938 182.382812 C 256.835938 180.992188 258.925781 180.992188 258.925781 182.382812 "/>
<path style=" stroke:none;fill-rule:nonzero;fill:rgb(100%,84.3%,0%);fill-opacity:1;" d="M 352.066406 320.011719 C 352.066406 321.402344 349.980469 321.402344 349.980469 320.011719 C 349.980469 318.617188 352.066406 318.617188 352.066406 320.011719 "/>
<path style=" stroke:none;fill-rule:nonzero;fill:rgb(100%,84.3%,0%);fill-opacity:1;" d="M 303.617188 149.175781 C 303.617188 150.570312 301.527344 150.570312 301.527344 149.175781 C 301.527344 147.785156 303.617188 147.785156 303.617188 149.175781 "/>
<path style=" stroke:none;fill-rule:nonzero;fill:rgb(100%,84.3%,0%);fill-opacity:1;" d="M 262.683594 453.253906 C 262.683594 454.644531 260.59375 454.644531 260.59375 453.253906 C 260.59375 451.859375 262.683594 451.859375 262.683594 453.253906 "/>
<path style=" stroke:none;fill-rule:nonzero;fill:rgb(100%,84.3%,0%);fill-opacity:1;" d="M 304.871094 86.941406 C 304.871094 88.332031 302.78125 88.332031 302.78125 86.941406 C 302.78125 85.546875 304.871094 85.546875 304.871094 86.941406 "/>
<path style=" stroke:none;fill-rule:nonzero;fill:rgb(100%,84.3%,0%);fill-opacity:1;" d="M 352.484375 394.148438 C 352.484375 395.542969 350.398438 395.542969 350.398438 394.148438 C 350.398438 392.757812 352.484375 392.757812 352.484375 394.148438 "/>
<path style=" stroke:none;fill-rule:nonzero;fill:rgb(100%,84.3%,0%);fill-opacity:1;" d="M 259.339844 75.664062 C 259.339844 77.054688 257.253906 77.054688 257.253906 75.664062 C 257.253906 74.273438 259.339844 74.273438 259.339844 75.664062 "/>
<path style=" stroke:none;fill-rule:nonzero;fill:rgb(100%,84.3%,0%);fill-opacity:1;" d="M 231.566406 422.136719 C 231.566406 423.527344 229.476562 423.527344 229.476562 422.136719 C 229.476562 420.742188 231.566406 420.742188 231.566406 422.136719 "/>
<path style=" stroke:none;fill-rule:nonzero;fill:rgb(100%,84.3%,0%);fill-opacity:1;" d="M 202.746094 233.96875 C 202.746094 235.359375 200.65625 235.359375 200.65625 233.96875 C 200.65625 232.574219 202.746094 232.574219 202.746094 233.96875 "/>
<path style=" stroke:none;fill-rule:nonzero;fill:rgb(100%,84.3%,0%);fill-opacity:1;" d="M 321.578125 355.722656 C 321.578125 357.117188 319.488281 357.117188 319.488281 355.722656 C 319.488281 354.332031 321.578125 354.332031 321.578125 355.722656 "/>
<path style=" stroke:none;fill-rule:nonzero;fill:rgb(100%,84.3%,0%);fill-opacity:1;" d="M 137.378906 203.058594 C 137.378906 204.449219 135.289062 204.449219 135.289062 203.058594 C 135.289062 201.664062 137.378906 201.664062 137.378906 203.058594 "/>
<path style=" stroke:none;fill-rule:nonzero;fill:rgb(100%,84.3%,0%);fill-opacity:1;" d="M 226.554688 216.84375 C 226.554688 218.234375 224.464844 218.234375 224.464844 216.84375 C 224.464844 215.449219 226.554688 215.449219 226.554688 216.84375 "/>
<path style=" stroke:none;fill-rule:nonzero;fill:rgb(100%,84.3%,0%);fill-opacity:1;" d="M 361.675781 221.019531 C 361.675781 222.410156 359.585938 222.410156 359.585938 221.019531 C 359.585938 219.625 361.675781 219.625 361.675781 221.019531 "/>
<path style=" stroke:none;fill-rule:nonzero;fill:rgb(100%,84.3%,0%);fill-opacity:1;" d="M 280.851562 256.730469 C 280.851562 258.125 278.765625 258.125 278.765625 256.730469 C 278.765625 255.339844 280.851562 255.339844 280.851562 256.730469 "/>
<path style=" stroke:none;fill-rule:nonzero;fill:rgb(100%,84.3%,0%);fill-opacity:1;" d="M 101.039062 219.765625 C 101.039062 221.160156 98.949219 221.160156 98.949219 219.765625 C 98.949219 218.375 101.039062 218.375 101.039062 219.765625 "/>
<path style=" stroke:none;fill-rule:nonzero;fill:rgb(100%,84.3%,0%);fill-opacity:1;" d="M 228.640625 332.121094 C 228.640625 333.515625 226.554688 333.515625 226.554688 332.121094 C 226.554688 330.730469 228.640625 330.730469 228.640625 332.121094 "/>
<path style=" stroke:none;fill-rule:nonzero;fill:rgb(100%,84.3%,0%);fill-opacity:1;" d="M 70.757812 375.355469 C 70.757812 376.746094 68.667969 376.746094 68.667969 375.355469 C 68.667969 373.960938 70.757812 373.960938 70.757812 375.355469 "/>
<path style=" stroke:none;fill-rule:nonzero;fill:rgb(100%,84.3%,0%);fill-opacity:1;" d="M 215.902344 249.421875 C 215.902344 250.8125 213.8125 250.8125 213.8125 249.421875 C 213.8125 248.027344 215.902344 248.027344 215.902344 249.421875 "/>
<path style=" stroke:none;fill-rule:nonzero;fill:rgb(100%,84.3%,0%);fill-opacity:1;" d="M 91.429688 360.316406 C 91.429688 361.710938 89.34375 361.710938 89.34375 360.316406 C 89.34375 358.925781 91.429688 358.925781 91.429688 360.316406 "/>
<path style=" stroke:none;fill-rule:nonzero;fill:rgb(100%,84.3%,0%);fill-opacity:1;" d="M 126.515625 461.398438 C 126.515625 462.789062 124.429688 462.789062 124.429688 461.398438 C 124.429688 460.003906 126.515625 460.003906 126.515625 461.398438 "/>
<path style=" stroke:none;fill-rule:nonzero;fill:rgb(100%,84.3%,0%);fill-opacity:1;" d="M 357.082031 94.667969 C 357.082031 96.0625 354.992188 96.0625 354.992188 94.667969 C 354.992188 93.277344 357.082031 93.277344 357.082031 94.667969 "/>
<path style=" stroke:none;fill-rule:nonzero;fill:rgb(100%,84.3%,0%);fill-opacity:1;" d="M 270.621094 323.769531 C 270.621094 325.164062 268.53125 325.164062 268.53125 323.769531 C 268.53125 322.378906 270.621094 322.378906 270.621094 323.769531 "/>
<path style=" stroke:none;fill-rule:nonzero;fill:rgb(100%,84.3%,0%);fill-opacity:1;" d="M 317.398438 52.273438 C 317.398438 53.664062 315.3125 53.664062 315.3125 52.273438 C 315.3125 50.878906 317.398438 50.878906 317.398438 52.273438 "/>
<path style=" stroke:none;fill-rule:nonzero;fill:rgb(100%,84.3%,0%);fill-opacity:1;" d="M 95.609375 167.136719 C 95.609375 168.527344 93.519531 168.527344 93.519531 167.136719 C 93.519531 165.746094 95.609375 165.746094 95.609375 167.136719 "/>
<path style=" stroke:none;fill-rule:nonzero;fill:rgb(100%,84.3%,0%);fill-opacity:1;" d="M 269.15625 422.96875 C 269.15625 424.363281 267.070312 424.363281 267.070312 422.96875 C 267.070312 421.578125 269.15625 421.578125 269.15625 422.96875 "/>
<path style=" stroke:none;fill-rule:nonzero;fill:rgb(100%,84.3%,0%);fill-opacity:1;" d="M 150.535156 210.367188 C 150.535156 211.761719 148.445312 211.761719 148.445312 210.367188 C 148.445312 208.976562 150.535156 208.976562 150.535156 210.367188 "/>
<path style=" stroke:none;fill-rule:nonzero;fill:rgb(100%,84.3%,0%);fill-opacity:1;" d="M 268.738281 408.351562 C 268.738281 409.742188 266.652344 409.742188 266.652344 408.351562 C 266.652344 406.957031 268.738281 406.957031 268.738281 408.351562 "/>
<path style=" stroke:none;fill-rule:nonzero;fill:rgb(100%,84.3%,0%);fill-opacity:1;" d="M 276.050781 424.433594 C 276.050781 425.824219 273.960938 425.824219 273.960938 424.433594 C 273.960938 423.039062 276.050781 423.039062 276.050781 424.433594 "/>
<path style=" stroke:none;fill-rule:nonzero;fill:rgb(100%,84.3%,0%);fill-opacity:1;" d="M 204 158.15625 C 204 159.550781 201.910156 159.550781 201.910156 158.15625 C 201.910156 156.765625 204 156.765625 204 158.15625 "/>
<path style=" stroke:none;fill-rule:nonzero;fill:rgb(100%,84.3%,0%);fill-opacity:1;" d="M 119.417969 232.085938 C 119.417969 233.480469 117.328125 233.480469 117.328125 232.085938 C 117.328125 230.695312 119.417969 230.695312 119.417969 232.085938 "/>
<path style=" stroke:none;fill-rule:nonzero;fill:rgb(100%,84.3%,0%);fill-opacity:1;" d="M 171.210938 325.441406 C 171.210938 326.832031 169.121094 326.832031 169.121094 325.441406 C 169.121094 324.046875 171.210938 324.046875 171.210938 325.441406 "/>
<path style=" stroke:none;fill-rule:nonzero;fill:rgb(100%,84.3%,0%);fill-opacity:1;" d="M 185.410156 361.152344 C 185.410156 362.546875 183.324219 362.546875 183.324219 361.152344 C 183.324219 359.761719 185.410156 359.761719 185.410156 361.152344 "/>
<path style=" stroke:none;fill-rule:nonzero;fill:rgb(100%,84.3%,0%);fill-opacity:1;" d="M 320.53125 112.628906 C 320.53125 114.019531 318.445312 114.019531 318.445312 112.628906 C 318.445312 111.238281 320.53125 111.238281 320.53125 112.628906 "/>
<path style=" stroke:none;fill-rule:nonzero;fill:rgb(100%,84.3%,0%);fill-opacity:1;" d="M 86.835938 235.429688 C 86.835938 236.820312 84.75 236.820312 84.75 235.429688 C 84.75 234.035156 86.835938 234.035156 86.835938 235.429688 "/>
<path style=" stroke:none;fill-rule:nonzero;fill:rgb(100%,84.3%,0%);fill-opacity:1;" d="M 258.507812 245.246094 C 258.507812 246.636719 256.417969 246.636719 256.417969 245.246094 C 256.417969 243.851562 258.507812 243.851562 258.507812 245.246094 "/>
<path style=" stroke:none;fill-rule:nonzero;fill:rgb(100%,84.3%,0%);fill-opacity:1;" d="M 357.914062 299.753906 C 357.914062 301.144531 355.828125 301.144531 355.828125 299.753906 C 355.828125 298.359375 357.914062 298.359375 357.914062 299.753906 "/>
<path style=" stroke:none;fill-rule:nonzero;fill:rgb(100%,84.3%,0%);fill-opacity:1;" d="M 236.785156 300.171875 C 236.785156 301.5625 234.699219 301.5625 234.699219 300.171875 C 234.699219 298.777344 236.785156 298.777344 236.785156 300.171875 "/>
<path style=" stroke:none;fill-rule:nonzero;fill:rgb(100%,84.3%,0%);fill-opacity:1;" d="M 292.339844 95.921875 C 292.339844 97.3125 290.25 97.3125 290.25 95.921875 C 290.25 94.53125 292.339844 94.53125 292.339844 95.921875 "/>
<path style=" stroke:none;fill-rule:nonzero;fill:rgb(100%,84.3%,0%);fill-opacity:1;" d="M 200.03125 112.210938 C 200.03125 113.601562 197.941406 113.601562 197.941406 112.210938 C 197.941406 110.820312 200.03125 110.820312 200.03125 112.210938 "/>
<path style=" stroke:none;fill-rule:nonzero;fill:rgb(100%,84.3%,0%);fill-opacity:1;" d="M 276.464844 420.671875 C 276.464844 422.066406 274.378906 422.066406 274.378906 420.671875 C 274.378906 419.28125 276.464844 419.28125 276.464844 420.671875 "/>
<path style=" stroke:none;fill-rule:nonzero;fill:rgb(100%,84.3%,0%);fill-opacity:1;" d="M 231.355469 458.054688 C 231.355469 459.449219 229.269531 459.449219 229.269531 458.054688 C 229.269531 456.664062 231.355469 456.664062 231.355469 458.054688 "/>
<path style=" stroke:none;fill-rule:nonzero;fill:rgb(100%,84.3%,0%);fill-opacity:1;" d="M 67.414062 417.121094 C 67.414062 418.515625 65.324219 418.515625 65.324219 417.121094 C 65.324219 415.730469 67.414062 415.730469 67.414062 417.121094 "/>
<path style=" stroke:none;fill-rule:nonzero;fill:rgb(100%,84.3%,0%);fill-opacity:1;" d="M 336.820312 356.765625 C 336.820312 358.160156 334.734375 358.160156 334.734375 356.765625 C 334.734375 355.375 336.820312 355.375 336.820312 356.765625 "/>
<path style=" stroke:none;fill-rule:nonzero;fill:rgb(100%,84.3%,0%);fill-opacity:1;" d="M 323.246094 278.242188 C 323.246094 279.632812 321.160156 279.632812 321.160156 278.242188 C 321.160156 276.851562 323.246094 276.851562 323.246094 278.242188 "/>
<path style=" stroke:none;fill-rule:nonzero;fill:rgb(100%,84.3%,0%);fill-opacity:1;" d="M 346.011719 417.332031 C 346.011719 418.722656 343.921875 418.722656 343.921875 417.332031 C 343.921875 415.9375 346.011719 415.9375 346.011719 417.332031 "/>
<path style=" stroke:none;fill-rule:nonzero;fill:rgb(100%,84.3%,0%);fill-opacity:1;" d="M 355.199219 100.933594 C 355.199219 102.328125 353.113281 102.328125 353.113281 100.933594 C 353.113281 99.542969 355.199219 99.542969 355.199219 100.933594 "/>
<path style=" stroke:none;fill-rule:nonzero;fill:rgb(100%,84.3%,0%);fill-opacity:1;" d="M 216.738281 216.632812 C 216.738281 218.023438 214.648438 218.023438 214.648438 216.632812 C 214.648438 215.242188 216.738281 215.242188 216.738281 216.632812 "/>
<path style=" stroke:none;fill-rule:nonzero;fill:rgb(100%,84.3%,0%);fill-opacity:1;" d="M 219.660156 385.171875 C 219.660156 386.5625 217.574219 386.5625 217.574219 385.171875 C 217.574219 383.777344 219.660156 383.777344 219.660156 385.171875 "/>
<path style=" stroke:none;fill-rule:nonzero;fill:rgb(100%,84.3%,0%);fill-opacity:1;" d="M 183.53125 167.347656 C 183.53125 168.738281 181.441406 168.738281 181.441406 167.347656 C 181.441406 165.953125 183.53125 165.953125 183.53125 167.347656 "/>
<path style=" stroke:none;fill-rule:nonzero;fill:rgb(100%,84.3%,0%);fill-opacity:1;" d="M 322.203125 248.585938 C 322.203125 249.976562 320.113281 249.976562 320.113281 248.585938 C 320.113281 247.195312 322.203125 247.195312 322.203125 248.585938 "/>
<path style=" stroke:none;fill-rule:nonzero;fill:rgb(100%,84.3%,0%);fill-opacity:1;" d="M 298.8125 58.539062 C 298.8125 59.929688 296.726562 59.929688 296.726562 58.539062 C 296.726562 57.148438 298.8125 57.148438 298.8125 58.539062 "/>
<path style=" stroke:none;fill-rule:nonzero;fill:rgb(100%,84.3%,0%);fill-opacity:1;" d="M 302.363281 152.9375 C 302.363281 154.328125 300.273438 154.328125 300.273438 152.9375 C 300.273438 151.542969 302.363281 151.542969 302.363281 152.9375 "/>
<path style=" stroke:none;fill-rule:nonzero;fill:rgb(100%,84.3%,0%);fill-opacity:1;" d="M 264.144531 58.746094 C 264.144531 60.140625 262.058594 60.140625 262.058594 58.746094 C 262.058594 57.355469 264.144531 57.355469 264.144531 58.746094 "/>
<path style=" stroke:none;fill-rule:nonzero;fill:rgb(100%,84.3%,0%);fill-opacity:1;" d="M 362.511719 361.777344 C 362.511719 363.171875 360.421875 363.171875 360.421875 361.777344 C 360.421875 360.386719 362.511719 360.386719 362.511719 361.777344 "/>
<path style=" stroke:none;fill-rule:nonzero;fill:rgb(100%,84.3%,0%);fill-opacity:1;" d="M 107.511719 79.214844 C 107.511719 80.605469 105.421875 80.605469 105.421875 79.214844 C 105.421875 77.820312 107.511719 77.820312 107.511719 79.214844 "/>
<path style=" stroke:none;fill-rule:nonzero;fill:rgb(100%,84.3%,0%);fill-opacity:1;" d="M 202.328125 243.15625 C 202.328125 244.546875 200.238281 244.546875 200.238281 243.15625 C 200.238281 241.765625 202.328125 241.765625 202.328125 243.15625 "/>
<path style=" stroke:none;fill-rule:nonzero;fill:rgb(100%,84.3%,0%);fill-opacity:1;" d="M 174.550781 423.804688 C 174.550781 425.199219 172.460938 425.199219 172.460938 423.804688 C 172.460938 422.414062 174.550781 422.414062 174.550781 423.804688 "/>
<path style=" stroke:none;fill-rule:nonzero;fill:rgb(100%,84.3%,0%);fill-opacity:1;" d="M 51.125 371.804688 C 51.125 373.195312 49.035156 373.195312 49.035156 371.804688 C 49.035156 370.410156 51.125 370.410156 51.125 371.804688 "/>
<path style=" stroke:none;fill-rule:nonzero;fill:rgb(100%,84.3%,0%);fill-opacity:1;" d="M 325.753906 113.464844 C 325.753906 114.855469 323.664062 114.855469 323.664062 113.464844 C 323.664062 112.074219 325.753906 112.074219 325.753906 113.464844 "/>
<path style=" stroke:none;fill-rule:nonzero;fill:rgb(100%,84.3%,0%);fill-opacity:1;" d="M 148.238281 73.785156 C 148.238281 75.175781 146.148438 75.175781 146.148438 73.785156 C 146.148438 72.390625 148.238281 72.390625 148.238281 73.785156 "/>
<path style=" stroke:none;fill-rule:nonzero;fill:rgb(100%,84.3%,0%);fill-opacity:1;" d="M 239.082031 49.558594 C 239.082031 50.949219 236.996094 50.949219 236.996094 49.558594 C 236.996094 48.164062 239.082031 48.164062 239.082031 49.558594 "/>
<path style=" stroke:none;fill-rule:nonzero;fill:rgb(100%,84.3%,0%);fill-opacity:1;" d="M 145.730469 437.171875 C 145.730469 438.5625 143.644531 438.5625 143.644531 437.171875 C 143.644531 435.777344 145.730469 435.777344 145.730469 437.171875 "/>
<path style=" stroke:none;fill-rule:nonzero;fill:rgb(100%,84.3%,0%);fill-opacity:1;" d="M 123.175781 339.015625 C 123.175781 340.40625 121.085938 340.40625 121.085938 339.015625 C 121.085938 337.621094 123.175781 337.621094 123.175781 339.015625 "/>
<path style=" stroke:none;fill-rule:nonzero;fill:rgb(100%,84.3%,0%);fill-opacity:1;" d="M 264.769531 352.171875 C 264.769531 353.5625 262.683594 353.5625 262.683594 352.171875 C 262.683594 350.78125 264.769531 350.78125 264.769531 352.171875 "/>
<path style=" stroke:none;fill-rule:nonzero;fill:rgb(100%,84.3%,0%);fill-opacity:1;" d="M 236.371094 315.625 C 236.371094 317.015625 234.28125 317.015625 234.28125 315.625 C 234.28125 314.234375 236.371094 314.234375 236.371094 315.625 "/>
<path style=" stroke:none;fill-rule:nonzero;fill:rgb(100%,84.3%,0%);fill-opacity:1;" d="M 301.527344 418.585938 C 301.527344 419.976562 299.441406 419.976562 299.441406 418.585938 C 299.441406 417.191406 301.527344 417.191406 301.527344 418.585938 "/>
<path style=" stroke:none;fill-rule:nonzero;fill:rgb(100%,84.3%,0%);fill-opacity:1;" d="M 71.382812 211.410156 C 71.382812 212.804688 69.292969 212.804688 69.292969 211.410156 C 69.292969 210.019531 71.382812 210.019531 71.382812 211.410156 "/>
<path style=" stroke:none;fill-rule:nonzero;fill:rgb(100%,84.3%,0%);fill-opacity:1;" d="M 342.671875 288.683594 C 342.671875 290.078125 340.582031 290.078125 340.582031 288.683594 C 340.582031 287.292969 342.671875 287.292969 342.671875 288.683594 "/>
<path style=" stroke:none;fill-rule:nonzero;fill:rgb(100%,84.3%,0%);fill-opacity:1;" d="M 247.226562 165.675781 C 247.226562 167.066406 245.140625 167.066406 245.140625 165.675781 C 245.140625 164.28125 247.226562 164.28125 247.226562 165.675781 "/>
<path style=" stroke:none;fill-rule:nonzero;fill:rgb(100%,84.3%,0%);fill-opacity:1;" d="M 194.808594 359.0625 C 194.808594 360.457031 192.722656 360.457031 192.722656 359.0625 C 192.722656 357.671875 194.808594 357.671875 194.808594 359.0625 "/>
<path style=" stroke:none;fill-rule:nonzero;fill:rgb(100%,84.3%,0%);fill-opacity:1;" d="M 93.730469 56.660156 C 93.730469 58.050781 91.640625 58.050781 91.640625 56.660156 C 91.640625 55.265625 93.730469 55.265625 93.730469 56.660156 "/>
<path style=" stroke:none;fill-rule:nonzero;fill:rgb(100%,84.3%,0%);fill-opacity:1;" d="M 37.757812 352.589844 C 37.757812 353.980469 35.671875 353.980469 35.671875 352.589844 C 35.671875 351.199219 37.757812 351.199219 37.757812 352.589844 "/>
<path style=" stroke:none;fill-rule:nonzero;fill:rgb(100%,84.3%,0%);fill-opacity:1;" d="M 101.039062 412.320312 C 101.039062 413.710938 98.949219 413.710938 98.949219 412.320312 C 98.949219 410.925781 101.039062 410.925781 101.039062 412.320312 "/>
<path style=" stroke:none;fill-rule:nonzero;fill:rgb(100%,84.3%,0%);fill-opacity:1;" d="M 135.289062 228.117188 C 135.289062 229.511719 133.199219 229.511719 133.199219 228.117188 C 133.199219 226.726562 135.289062 226.726562 135.289062 228.117188 "/>
<path style=" stroke:none;fill-rule:nonzero;fill:rgb(100%,84.3%,0%);fill-opacity:1;" d="M 91.847656 87.148438 C 91.847656 88.542969 89.761719 88.542969 89.761719 87.148438 C 89.761719 85.757812 91.847656 85.757812 91.847656 87.148438 "/>
<path style=" stroke:none;fill-rule:nonzero;fill:rgb(100%,84.3%,0%);fill-opacity:1;" d="M 316.355469 398.953125 C 316.355469 400.34375 314.265625 400.34375 314.265625 398.953125 C 314.265625 397.5625 316.355469 397.5625 316.355469 398.953125 "/>
<path style=" stroke:none;fill-rule:nonzero;fill:rgb(100%,84.3%,0%);fill-opacity:1;" d="M 85.792969 433.828125 C 85.792969 435.222656 83.703125 435.222656 83.703125 433.828125 C 83.703125 432.4375 85.792969 432.4375 85.792969 433.828125 "/>
<path style=" stroke:none;fill-rule:nonzero;fill:rgb(100%,84.3%,0%);fill-opacity:1;" d="M 122.96875 95.503906 C 122.96875 96.894531 120.878906 96.894531 120.878906 95.503906 C 120.878906 94.113281 122.96875 94.113281 122.96875 95.503906 "/>
<path style=" stroke:none;fill-rule:nonzero;fill:rgb(100%,84.3%,0%);fill-opacity:1;" d="M 242.632812 351.335938 C 242.632812 352.730469 240.546875 352.730469 240.546875 351.335938 C 240.546875 349.945312 242.632812 349.945312 242.632812 351.335938 "/>
<path style=" stroke:none;fill-rule:nonzero;fill:rgb(100%,84.3%,0%);fill-opacity:1;" d="M 262.472656 320.636719 C 262.472656 322.027344 260.386719 322.027344 260.386719 320.636719 C 260.386719 319.246094 262.472656 319.246094 262.472656 320.636719 "/>
<path style=" stroke:none;fill-rule:nonzero;fill:rgb(100%,84.3%,0%);fill-opacity:1;" d="M 295.679688 107.199219 C 295.679688 108.589844 293.589844 108.589844 293.589844 107.199219 C 293.589844 105.808594 295.679688 105.808594 295.679688 107.199219 "/>
<path style=" stroke:none;fill-rule:nonzero;fill:rgb(100%,84.3%,0%);fill-opacity:1;" d="M 104.171875 287.640625 C 104.171875 289.03125 102.082031 289.03125 102.082031 287.640625 C 102.082031 286.246094 104.171875 286.246094 104.171875 287.640625 "/>
<path style=" stroke:none;fill-rule:nonzero;fill:rgb(100%,84.3%,0%);fill-opacity:1;" d="M 275.839844 118.058594 C 275.839844 119.453125 273.75 119.453125 273.75 118.058594 C 273.75 116.667969 275.839844 116.667969 275.839844 118.058594 "/>
<path style=" stroke:none;fill-rule:nonzero;fill:rgb(100%,84.3%,0%);fill-opacity:1;" d="M 257.671875 389.554688 C 257.671875 390.949219 255.582031 390.949219 255.582031 389.554688 C 255.582031 388.164062 257.671875 388.164062 257.671875 389.554688 "/>
<path style=" stroke:none;fill-rule:nonzero;fill:rgb(100%,84.3%,0%);fill-opacity:1;" d="M 331.390625 285.96875 C 331.390625 287.359375 329.304688 287.359375 329.304688 285.96875 C 329.304688 284.578125 331.390625 284.578125 331.390625 285.96875 "/>
<path style=" stroke:none;fill-rule:nonzero;fill:rgb(100%,84.3%,0%);fill-opacity:1;" d="M 120.667969 63.34375 C 120.667969 64.734375 118.582031 64.734375 118.582031 63.34375 C 118.582031 61.949219 120.667969 61.949219 120.667969 63.34375 "/>
<path style=" stroke:none;fill-rule:nonzero;fill:rgb(100%,84.3%,0%);fill-opacity:1;" d="M 253.496094 191.78125 C 253.496094 193.171875 251.40625 193.171875 251.40625 191.78125 C 251.40625 190.390625 253.496094 190.390625 253.496094 191.78125 "/>
<path style=" stroke:none;fill-rule:nonzero;fill:rgb(100%,84.3%,0%);fill-opacity:1;" d="M 135.289062 351.128906 C 135.289062 352.519531 133.199219 352.519531 133.199219 351.128906 C 133.199219 349.734375 135.289062 349.734375 135.289062 351.128906 "/>
<path style=" stroke:none;fill-rule:nonzero;fill:rgb(100%,84.3%,0%);fill-opacity:1;" d="M 281.6875 449.703125 C 281.6875 451.09375 279.597656 451.09375 279.597656 449.703125 C 279.597656 448.308594 281.6875 448.308594 281.6875 449.703125 "/>
<path style=" stroke:none;fill-rule:nonzero;fill:rgb(100%,84.3%,0%);fill-opacity:1;" d="M 296.308594 443.644531 C 296.308594 445.039062 294.21875 445.039062 294.21875 443.644531 C 294.21875 442.253906 296.308594 442.253906 296.308594 443.644531 "/>
<path style=" stroke:none;fill-rule:nonzero;fill:rgb(100%,84.3%,0%);fill-opacity:1;" d="M 119.835938 419.003906 C 119.835938 420.394531 117.746094 420.394531 117.746094 419.003906 C 117.746094 417.609375 119.835938 417.609375 119.835938 419.003906 "/>
<path style=" stroke:none;fill-rule:nonzero;fill:rgb(100%,84.3%,0%);fill-opacity:1;" d="M 332.4375 419.628906 C 332.4375 421.019531 330.347656 421.019531 330.347656 419.628906 C 330.347656 418.238281 332.4375 418.238281 332.4375 419.628906 "/>
<path style=" stroke:none;fill-rule:nonzero;fill:rgb(100%,84.3%,0%);fill-opacity:1;" d="M 106.46875 91.953125 C 106.46875 93.347656 104.378906 93.347656 104.378906 91.953125 C 104.378906 90.5625 106.46875 90.5625 106.46875 91.953125 "/>
<path style=" stroke:none;fill-rule:nonzero;fill:rgb(100%,84.3%,0%);fill-opacity:1;" d="M 117.539062 389.765625 C 117.539062 391.15625 115.449219 391.15625 115.449219 389.765625 C 115.449219 388.371094 117.539062 388.371094 117.539062 389.765625 "/>
<path style=" stroke:none;fill-rule:nonzero;fill:rgb(100%,84.3%,0%);fill-opacity:1;" d="M 187.289062 256.3125 C 187.289062 257.707031 185.203125 257.707031 185.203125 256.3125 C 185.203125 254.921875 187.289062 254.921875 187.289062 256.3125 "/>
<path style=" stroke:none;fill-rule:nonzero;fill:rgb(100%,84.3%,0%);fill-opacity:1;" d="M 349.144531 244.828125 C 349.144531 246.21875 347.054688 246.21875 347.054688 244.828125 C 347.054688 243.433594 349.144531 243.433594 349.144531 244.828125 "/>
<path style=" stroke:none;fill-rule:nonzero;fill:rgb(100%,84.3%,0%);fill-opacity:1;" d="M 276.675781 229.371094 C 276.675781 230.765625 274.585938 230.765625 274.585938 229.371094 C 274.585938 227.980469 276.675781 227.980469 276.675781 229.371094 "/>
<path style=" stroke:none;fill-rule:nonzero;fill:rgb(100%,84.3%,0%);fill-opacity:1;" d="M 297.558594 239.398438 C 297.558594 240.789062 295.472656 240.789062 295.472656 239.398438 C 295.472656 238.003906 297.558594 238.003906 297.558594 239.398438 "/>
<path style=" stroke:none;fill-rule:nonzero;fill:rgb(100%,84.3%,0%);fill-opacity:1;" d="M 283.359375 233.96875 C 283.359375 235.359375 281.269531 235.359375 281.269531 233.96875 C 281.269531 232.574219 283.359375 232.574219 283.359375 233.96875 "/>
<path style=" stroke:none;fill-rule:nonzero;fill:rgb(100%,84.3%,0%);fill-opacity:1;" d="M 254.328125 152.519531 C 254.328125 153.910156 252.242188 153.910156 252.242188 152.519531 C 252.242188 151.125 254.328125 151.125 254.328125 152.519531 "/>
<path style=" stroke:none;fill-rule:nonzero;fill:rgb(100%,84.3%,0%);fill-opacity:1;" d="M 124.21875 388.511719 C 124.21875 389.902344 122.132812 389.902344 122.132812 388.511719 C 122.132812 387.117188 124.21875 387.117188 124.21875 388.511719 "/>
<path style=" stroke:none;fill-rule:nonzero;fill:rgb(100%,84.3%,0%);fill-opacity:1;" d="M 273.542969 349.875 C 273.542969 351.265625 271.453125 351.265625 271.453125 349.875 C 271.453125 348.484375 273.542969 348.484375 273.542969 349.875 "/>
<path style=" stroke:none;fill-rule:nonzero;fill:rgb(100%,84.3%,0%);fill-opacity:1;" d="M 189.796875 296.203125 C 189.796875 297.59375 187.707031 297.59375 187.707031 296.203125 C 187.707031 294.808594 189.796875 294.808594 189.796875 296.203125 "/>
<path style=" stroke:none;fill-rule:nonzero;fill:rgb(100%,84.3%,0%);fill-opacity:1;" d="M 336.195312 372.429688 C 336.195312 373.824219 334.109375 373.824219 334.109375 372.429688 C 334.109375 371.039062 336.195312 371.039062 336.195312 372.429688 "/>
<path style=" stroke:none;fill-rule:nonzero;fill:rgb(100%,84.3%,0%);fill-opacity:1;" d="M 58.015625 99.890625 C 58.015625 101.28125 55.929688 101.28125 55.929688 99.890625 C 55.929688 98.496094 58.015625 98.496094 58.015625 99.890625 "/>
<path style=" stroke:none;fill-rule:nonzero;fill:rgb(100%,84.3%,0%);fill-opacity:1;" d="M 258.925781 350.085938 C 258.925781 351.476562 256.835938 351.476562 256.835938 350.085938 C 256.835938 348.691406 258.925781 348.691406 258.925781 350.085938 "/>
<path style=" stroke:none;fill-rule:nonzero;fill:rgb(100%,84.3%,0%);fill-opacity:1;" d="M 306.121094 278.660156 C 306.121094 280.050781 304.035156 280.050781 304.035156 278.660156 C 304.035156 277.265625 306.121094 277.265625 306.121094 278.660156 "/>
<path style=" stroke:none;fill-rule:nonzero;fill:rgb(100%,84.3%,0%);fill-opacity:1;" d="M 254.539062 341.105469 C 254.539062 342.496094 252.449219 342.496094 252.449219 341.105469 C 252.449219 339.710938 254.539062 339.710938 254.539062 341.105469 "/>
<path style=" stroke:none;fill-rule:nonzero;fill:rgb(100%,84.3%,0%);fill-opacity:1;" d="M 73.054688 377.441406 C 73.054688 378.835938 70.964844 378.835938 70.964844 377.441406 C 70.964844 376.050781 73.054688 376.050781 73.054688 377.441406 "/>
<path style=" stroke:none;fill-rule:nonzero;fill:rgb(100%,84.3%,0%);fill-opacity:1;" d="M 111.480469 410.855469 C 111.480469 412.25 109.390625 412.25 109.390625 410.855469 C 109.390625 409.464844 111.480469 409.464844 111.480469 410.855469 "/>
<path style=" stroke:none;fill-rule:nonzero;fill:rgb(100%,84.3%,0%);fill-opacity:1;" d="M 80.988281 302.675781 C 80.988281 304.066406 78.902344 304.066406 78.902344 302.675781 C 78.902344 301.285156 80.988281 301.285156 80.988281 302.675781 "/>
<path style=" stroke:none;fill-rule:nonzero;fill:rgb(100%,84.3%,0%);fill-opacity:1;" d="M 301.109375 264.039062 C 301.109375 265.433594 299.023438 265.433594 299.023438 264.039062 C 299.023438 262.648438 301.109375 262.648438 301.109375 264.039062 "/>
<path style=" stroke:none;fill-rule:nonzero;fill:rgb(100%,84.3%,0%);fill-opacity:1;" d="M 233.234375 459.308594 C 233.234375 460.703125 231.148438 460.703125 231.148438 459.308594 C 231.148438 457.917969 233.234375 457.917969 233.234375 459.308594 "/>
<path style=" stroke:none;fill-rule:nonzero;fill:rgb(100%,84.3%,0%);fill-opacity:1;" d="M 344.339844 146.042969 C 344.339844 147.4375 342.25 147.4375 342.25 146.042969 C 342.25 144.652344 344.339844 144.652344 344.339844 146.042969 "/>
<path style=" stroke:none;fill-rule:nonzero;fill:rgb(100%,84.3%,0%);fill-opacity:1;" d="M 248.0625 152.101562 C 248.0625 153.492188 245.976562 153.492188 245.976562 152.101562 C 245.976562 150.707031 248.0625 150.707031 248.0625 152.101562 "/>
<path style=" stroke:none;fill-rule:nonzero;fill:rgb(100%,84.3%,0%);fill-opacity:1;" d="M 289.625 112.210938 C 289.625 113.601562 287.535156 113.601562 287.535156 112.210938 C 287.535156 110.820312 289.625 110.820312 289.625 112.210938 "/>
<path style=" stroke:none;fill-rule:nonzero;fill:rgb(100%,84.3%,0%);fill-opacity:1;" d="M 264.355469 175.28125 C 264.355469 176.675781 262.265625 176.675781 262.265625 175.28125 C 262.265625 173.890625 264.355469 173.890625 264.355469 175.28125 "/>
<path style=" stroke:none;fill-rule:nonzero;fill:rgb(100%,84.3%,0%);fill-opacity:1;" d="M 209.84375 151.683594 C 209.84375 153.074219 207.757812 153.074219 207.757812 151.683594 C 207.757812 150.289062 209.84375 150.289062 209.84375 151.683594 "/>
<path style=" stroke:none;fill-rule:nonzero;fill:rgb(100%,84.3%,0%);fill-opacity:1;" d="M 229.6875 111.585938 C 229.6875 112.976562 227.597656 112.976562 227.597656 111.585938 C 227.597656 110.191406 229.6875 110.191406 229.6875 111.585938 "/>
<path style=" stroke:none;fill-rule:nonzero;fill:rgb(100%,84.3%,0%);fill-opacity:1;" d="M 318.445312 321.890625 C 318.445312 323.28125 316.355469 323.28125 316.355469 321.890625 C 316.355469 320.496094 318.445312 320.496094 318.445312 321.890625 "/>
<path style=" stroke:none;fill-rule:nonzero;fill:rgb(100%,84.3%,0%);fill-opacity:1;" d="M 92.683594 64.59375 C 92.683594 65.988281 90.597656 65.988281 90.597656 64.59375 C 90.597656 63.203125 92.683594 63.203125 92.683594 64.59375 "/>
<path style=" stroke:none;fill-rule:nonzero;fill:rgb(100%,84.3%,0%);fill-opacity:1;" d="M 311.761719 194.703125 C 311.761719 196.097656 309.671875 196.097656 309.671875 194.703125 C 309.671875 193.3125 311.761719 193.3125 311.761719 194.703125 "/>
<path style=" stroke:none;fill-rule:nonzero;fill:rgb(100%,84.3%,0%);fill-opacity:1;" d="M 121.296875 282.835938 C 121.296875 284.226562 119.207031 284.226562 119.207031 282.835938 C 119.207031 281.445312 121.296875 281.445312 121.296875 282.835938 "/>
<path style=" stroke:none;fill-rule:nonzero;fill:rgb(100%,84.3%,0%);fill-opacity:1;" d="M 45.902344 171.3125 C 45.902344 172.707031 43.816406 172.707031 43.816406 171.3125 C 43.816406 169.921875 45.902344 169.921875 45.902344 171.3125 "/>
<path style=" stroke:none;fill-rule:nonzero;fill:rgb(100%,84.3%,0%);fill-opacity:1;" d="M 280.433594 191.152344 C 280.433594 192.546875 278.347656 192.546875 278.347656 191.152344 C 278.347656 189.761719 280.433594 189.761719 280.433594 191.152344 "/>
<path style=" stroke:none;fill-rule:nonzero;fill:rgb(100%,84.3%,0%);fill-opacity:1;" d="M 288.578125 402.296875 C 288.578125 403.6875 286.492188 403.6875 286.492188 402.296875 C 286.492188 400.902344 288.578125 400.902344 288.578125 402.296875 "/>
<path style=" stroke:none;fill-rule:nonzero;fill:rgb(100%,84.3%,0%);fill-opacity:1;" d="M 120.042969 110.539062 C 120.042969 111.933594 117.953125 111.933594 117.953125 110.539062 C 117.953125 109.148438 120.042969 109.148438 120.042969 110.539062 "/>
<path style=" stroke:none;fill-rule:nonzero;fill:rgb(100%,84.3%,0%);fill-opacity:1;" d="M 172.046875 318.339844 C 172.046875 319.730469 169.957031 319.730469 169.957031 318.339844 C 169.957031 316.949219 172.046875 316.949219 172.046875 318.339844 "/>
<path style=" stroke:none;fill-rule:nonzero;fill:rgb(100%,84.3%,0%);fill-opacity:1;" d="M 161.601562 382.035156 C 161.601562 383.429688 159.515625 383.429688 159.515625 382.035156 C 159.515625 380.644531 161.601562 380.644531 161.601562 382.035156 "/>
<path style=" stroke:none;fill-rule:nonzero;fill:rgb(100%,84.3%,0%);fill-opacity:1;" d="M 228.433594 155.023438 C 228.433594 156.417969 226.34375 156.417969 226.34375 155.023438 C 226.34375 153.632812 228.433594 153.632812 228.433594 155.023438 "/>
<path style=" stroke:none;fill-rule:nonzero;fill:rgb(100%,84.3%,0%);fill-opacity:1;" d="M 216.109375 261.324219 C 216.109375 262.71875 214.023438 262.71875 214.023438 261.324219 C 214.023438 259.933594 216.109375 259.933594 216.109375 261.324219 "/>
<path style=" stroke:none;fill-rule:nonzero;fill:rgb(100%,84.3%,0%);fill-opacity:1;" d="M 61.148438 311.867188 C 61.148438 313.257812 59.0625 313.257812 59.0625 311.867188 C 59.0625 310.472656 61.148438 310.472656 61.148438 311.867188 "/>
<path style=" stroke:none;fill-rule:nonzero;fill:rgb(100%,84.3%,0%);fill-opacity:1;" d="M 264.980469 71.277344 C 264.980469 72.671875 262.890625 72.671875 262.890625 71.277344 C 262.890625 69.886719 264.980469 69.886719 264.980469 71.277344 "/>
<path style=" stroke:none;fill-rule:nonzero;fill:rgb(100%,84.3%,0%);fill-opacity:1;" d="M 168.285156 393.730469 C 168.285156 395.125 166.199219 395.125 166.199219 393.730469 C 166.199219 392.339844 168.285156 392.339844 168.285156 393.730469 "/>
<path style=" stroke:none;fill-rule:nonzero;fill:rgb(100%,84.3%,0%);fill-opacity:1;" d="M 275.839844 238.351562 C 275.839844 239.746094 273.75 239.746094 273.75 238.351562 C 273.75 236.960938 275.839844 236.960938 275.839844 238.351562 "/>
<path style=" stroke:none;fill-rule:nonzero;fill:rgb(100%,84.3%,0%);fill-opacity:1;" d="M 267.695312 138.109375 C 267.695312 139.5 265.605469 139.5 265.605469 138.109375 C 265.605469 136.714844 267.695312 136.714844 267.695312 138.109375 "/>
<path style=" stroke:none;fill-rule:nonzero;fill:rgb(100%,84.3%,0%);fill-opacity:1;" d="M 204.625 100.097656 C 204.625 101.492188 202.535156 101.492188 202.535156 100.097656 C 202.535156 98.707031 204.625 98.707031 204.625 100.097656 "/>
<path style=" stroke:none;fill-rule:nonzero;fill:rgb(100%,84.3%,0%);fill-opacity:1;" d="M 272.917969 198.046875 C 272.917969 199.4375 270.828125 199.4375 270.828125 198.046875 C 270.828125 196.652344 272.917969 196.652344 272.917969 198.046875 "/>
<path style=" stroke:none;fill-rule:nonzero;fill:rgb(100%,84.3%,0%);fill-opacity:1;" d="M 41.933594 213.710938 C 41.933594 215.101562 39.847656 215.101562 39.847656 213.710938 C 39.847656 212.316406 41.933594 212.316406 41.933594 213.710938 "/>
<path style=" stroke:none;fill-rule:nonzero;fill:rgb(100%,84.3%,0%);fill-opacity:1;" d="M 309.464844 70.234375 C 309.464844 71.625 307.375 71.625 307.375 70.234375 C 307.375 68.839844 309.464844 68.839844 309.464844 70.234375 "/>
<path style=" stroke:none;fill-rule:nonzero;fill:rgb(100%,84.3%,0%);fill-opacity:1;" d="M 138.003906 47.886719 C 138.003906 49.28125 135.914062 49.28125 135.914062 47.886719 C 135.914062 46.496094 138.003906 46.496094 138.003906 47.886719 "/>
<path style=" stroke:none;fill-rule:nonzero;fill:rgb(100%,84.3%,0%);fill-opacity:1;" d="M 346.636719 207.445312 C 346.636719 208.835938 344.550781 208.835938 344.550781 207.445312 C 344.550781 206.050781 346.636719 206.050781 346.636719 207.445312 "/>
<path style=" stroke:none;fill-rule:nonzero;fill:rgb(100%,84.3%,0%);fill-opacity:1;" d="M 143.640625 390.597656 C 143.640625 391.992188 141.554688 391.992188 141.554688 390.597656 C 141.554688 389.207031 143.640625 389.207031 143.640625 390.597656 "/>
<path style=" stroke:none;fill-rule:nonzero;fill:rgb(100%,84.3%,0%);fill-opacity:1;" d="M 220.914062 430.070312 C 220.914062 431.464844 218.824219 431.464844 218.824219 430.070312 C 218.824219 428.679688 220.914062 428.679688 220.914062 430.070312 "/>
<path style=" stroke:none;fill-rule:nonzero;fill:rgb(100%,84.3%,0%);fill-opacity:1;" d="M 156.589844 302.46875 C 156.589844 303.859375 154.5 303.859375 154.5 302.46875 C 154.5 301.074219 156.589844 301.074219 156.589844 302.46875 "/>
<path style=" stroke:none;fill-rule:nonzero;fill:rgb(100%,84.3%,0%);fill-opacity:1;" d="M 303.824219 294.53125 C 303.824219 295.925781 301.738281 295.925781 301.738281 294.53125 C 301.738281 293.140625 303.824219 293.140625 303.824219 294.53125 "/>
<path style=" stroke:none;fill-rule:nonzero;fill:rgb(100%,84.3%,0%);fill-opacity:1;" d="M 154.710938 269.054688 C 154.710938 270.445312 152.621094 270.445312 152.621094 269.054688 C 152.621094 267.660156 154.710938 267.660156 154.710938 269.054688 "/>
<path style=" stroke:none;fill-rule:nonzero;fill:rgb(100%,84.3%,0%);fill-opacity:1;" d="M 155.335938 110.539062 C 155.335938 111.933594 153.25 111.933594 153.25 110.539062 C 153.25 109.148438 155.335938 109.148438 155.335938 110.539062 "/>
<path style=" stroke:none;fill-rule:nonzero;fill:rgb(100%,84.3%,0%);fill-opacity:1;" d="M 230.730469 145.625 C 230.730469 147.019531 228.640625 147.019531 228.640625 145.625 C 228.640625 144.234375 230.730469 144.234375 230.730469 145.625 "/>
<path style=" stroke:none;fill-rule:nonzero;fill:rgb(100%,84.3%,0%);fill-opacity:1;" d="M 78.066406 114.089844 C 78.066406 115.484375 75.976562 115.484375 75.976562 114.089844 C 75.976562 112.699219 78.066406 112.699219 78.066406 114.089844 "/>
<path style=" stroke:none;fill-rule:nonzero;fill:rgb(100%,84.3%,0%);fill-opacity:1;" d="M 226.554688 130.382812 C 226.554688 131.773438 224.464844 131.773438 224.464844 130.382812 C 224.464844 128.988281 226.554688 128.988281 226.554688 130.382812 "/>
<path style=" stroke:none;fill-rule:nonzero;fill:rgb(100%,84.3%,0%);fill-opacity:1;" d="M 145.730469 313.328125 C 145.730469 314.71875 143.644531 314.71875 143.644531 313.328125 C 143.644531 311.933594 145.730469 311.933594 145.730469 313.328125 "/>
<path style=" stroke:none;fill-rule:nonzero;fill:rgb(100%,84.3%,0%);fill-opacity:1;" d="M 250.570312 65.640625 C 250.570312 67.03125 248.480469 67.03125 248.480469 65.640625 C 248.480469 64.246094 250.570312 64.246094 250.570312 65.640625 "/>
<path style=" stroke:none;fill-rule:nonzero;fill:rgb(100%,84.3%,0%);fill-opacity:1;" d="M 145.523438 65.429688 C 145.523438 66.824219 143.433594 66.824219 143.433594 65.429688 C 143.433594 64.039062 145.523438 64.039062 145.523438 65.429688 "/>
<path style=" stroke:none;fill-rule:nonzero;fill:rgb(100%,84.3%,0%);fill-opacity:1;" d="M 37.96875 223.941406 C 37.96875 225.335938 35.878906 225.335938 35.878906 223.941406 C 35.878906 222.550781 37.96875 222.550781 37.96875 223.941406 "/>
<path style=" stroke:none;fill-rule:nonzero;fill:rgb(100%,84.3%,0%);fill-opacity:1;" d="M 288.996094 207.445312 C 288.996094 208.835938 286.910156 208.835938 286.910156 207.445312 C 286.910156 206.050781 288.996094 206.050781 288.996094 207.445312 "/>
<path style=" stroke:none;fill-rule:nonzero;fill:rgb(100%,84.3%,0%);fill-opacity:1;" d="M 294.425781 260.699219 C 294.425781 262.089844 292.339844 262.089844 292.339844 260.699219 C 292.339844 259.308594 294.425781 259.308594 294.425781 260.699219 "/>
<path style=" stroke:none;fill-rule:nonzero;fill:rgb(100%,84.3%,0%);fill-opacity:1;" d="M 105.84375 378.695312 C 105.84375 380.085938 103.753906 380.085938 103.753906 378.695312 C 103.753906 377.300781 105.84375 377.300781 105.84375 378.695312 "/>
<path style=" stroke:none;fill-rule:nonzero;fill:rgb(100%,84.3%,0%);fill-opacity:1;" d="M 126.933594 67.101562 C 126.933594 68.492188 124.847656 68.492188 124.847656 67.101562 C 124.847656 65.707031 126.933594 65.707031 126.933594 67.101562 "/>
<path style=" stroke:none;fill-rule:nonzero;fill:rgb(100%,84.3%,0%);fill-opacity:1;" d="M 44.648438 180.292969 C 44.648438 181.6875 42.5625 181.6875 42.5625 180.292969 C 42.5625 178.902344 44.648438 178.902344 44.648438 180.292969 "/>
<path style=" stroke:none;fill-rule:nonzero;fill:rgb(100%,84.3%,0%);fill-opacity:1;" d="M 261.429688 306.4375 C 261.429688 307.828125 259.339844 307.828125 259.339844 306.4375 C 259.339844 305.042969 261.429688 305.042969 261.429688 306.4375 "/>
<path style=" stroke:none;fill-rule:nonzero;fill:rgb(100%,84.3%,0%);fill-opacity:1;" d="M 177.683594 123.488281 C 177.683594 124.882812 175.597656 124.882812 175.597656 123.488281 C 175.597656 122.097656 177.683594 122.097656 177.683594 123.488281 "/>
<path style=" stroke:none;fill-rule:nonzero;fill:rgb(100%,84.3%,0%);fill-opacity:1;" d="M 192.09375 267.800781 C 192.09375 269.191406 190.003906 269.191406 190.003906 267.800781 C 190.003906 266.40625 192.09375 266.40625 192.09375 267.800781 "/>
<path style=" stroke:none;fill-rule:nonzero;fill:rgb(100%,84.3%,0%);fill-opacity:1;" d="M 320.113281 389.972656 C 320.113281 391.367188 318.027344 391.367188 318.027344 389.972656 C 318.027344 388.582031 320.113281 388.582031 320.113281 389.972656 "/>
<path style=" stroke:none;fill-rule:nonzero;fill:rgb(100%,84.3%,0%);fill-opacity:1;" d="M 169.539062 146.253906 C 169.539062 147.644531 167.449219 147.644531 167.449219 146.253906 C 167.449219 144.859375 169.539062 144.859375 169.539062 146.253906 "/>
<path style=" stroke:none;fill-rule:nonzero;fill:rgb(100%,84.3%,0%);fill-opacity:1;" d="M 136.332031 184.890625 C 136.332031 186.28125 134.246094 186.28125 134.246094 184.890625 C 134.246094 183.496094 136.332031 183.496094 136.332031 184.890625 "/>
<path style=" stroke:none;fill-rule:nonzero;fill:rgb(100%,84.3%,0%);fill-opacity:1;" d="M 150.535156 293.070312 C 150.535156 294.460938 148.445312 294.460938 148.445312 293.070312 C 148.445312 291.675781 150.535156 291.675781 150.535156 293.070312 "/>
<path style=" stroke:none;fill-rule:nonzero;fill:rgb(100%,84.3%,0%);fill-opacity:1;" d="M 258.714844 164.003906 C 258.714844 165.398438 256.625 165.398438 256.625 164.003906 C 256.625 162.613281 258.714844 162.613281 258.714844 164.003906 "/>
<path style=" stroke:none;fill-rule:nonzero;fill:rgb(100%,84.3%,0%);fill-opacity:1;" d="M 189.589844 338.179688 C 189.589844 339.574219 187.5 339.574219 187.5 338.179688 C 187.5 336.789062 189.589844 336.789062 189.589844 338.179688 "/>
<path style=" stroke:none;fill-rule:nonzero;fill:rgb(100%,84.3%,0%);fill-opacity:1;" d="M 156.382812 75.664062 C 156.382812 77.054688 154.292969 77.054688 154.292969 75.664062 C 154.292969 74.273438 156.382812 74.273438 156.382812 75.664062 "/>
<path style=" stroke:none;fill-rule:nonzero;fill:rgb(100%,84.3%,0%);fill-opacity:1;" d="M 212.976562 164.214844 C 212.976562 165.605469 210.890625 165.605469 210.890625 164.214844 C 210.890625 162.820312 212.976562 162.820312 212.976562 164.214844 "/>
<path style=" stroke:none;fill-rule:nonzero;fill:rgb(100%,84.3%,0%);fill-opacity:1;" d="M 253.496094 311.03125 C 253.496094 312.421875 251.40625 312.421875 251.40625 311.03125 C 251.40625 309.636719 253.496094 309.636719 253.496094 311.03125 "/>
<path style=" stroke:none;fill-rule:nonzero;fill:rgb(100%,84.3%,0%);fill-opacity:1;" d="M 50.5 388.929688 C 50.5 390.320312 48.410156 390.320312 48.410156 388.929688 C 48.410156 387.535156 50.5 387.535156 50.5 388.929688 "/>
<path style=" stroke:none;fill-rule:nonzero;fill:rgb(100%,84.3%,0%);fill-opacity:1;" d="M 88.300781 393.3125 C 88.300781 394.707031 86.210938 394.707031 86.210938 393.3125 C 86.210938 391.921875 88.300781 391.921875 88.300781 393.3125 "/>
<path style=" stroke:none;fill-rule:nonzero;fill:rgb(100%,84.3%,0%);fill-opacity:1;" d="M 114.195312 124.742188 C 114.195312 126.132812 112.105469 126.132812 112.105469 124.742188 C 112.105469 123.351562 114.195312 123.351562 114.195312 124.742188 "/>
<path style=" stroke:none;fill-rule:nonzero;fill:rgb(100%,84.3%,0%);fill-opacity:1;" d="M 221.957031 264.457031 C 221.957031 265.851562 219.871094 265.851562 219.871094 264.457031 C 219.871094 263.066406 221.957031 263.066406 221.957031 264.457031 "/>
<path style=" stroke:none;fill-rule:nonzero;fill:rgb(100%,84.3%,0%);fill-opacity:1;" d="M 103.542969 207.652344 C 103.542969 209.046875 101.457031 209.046875 101.457031 207.652344 C 101.457031 206.261719 103.542969 206.261719 103.542969 207.652344 "/>
<path style=" stroke:none;fill-rule:nonzero;fill:rgb(100%,84.3%,0%);fill-opacity:1;" d="M 257.671875 310.613281 C 257.671875 312.003906 255.582031 312.003906 255.582031 310.613281 C 255.582031 309.21875 257.671875 309.21875 257.671875 310.613281 "/>
<path style=" stroke:none;fill-rule:nonzero;fill:rgb(100%,84.3%,0%);fill-opacity:1;" d="M 274.378906 259.65625 C 274.378906 261.046875 272.289062 261.046875 272.289062 259.65625 C 272.289062 258.261719 274.378906 258.261719 274.378906 259.65625 "/>
<path style=" stroke:none;fill-rule:nonzero;fill:rgb(100%,84.3%,0%);fill-opacity:1;" d="M 239.082031 83.390625 C 239.082031 84.785156 236.996094 84.785156 236.996094 83.390625 C 236.996094 82 239.082031 82 239.082031 83.390625 "/>
<path style=" stroke:none;fill-rule:nonzero;fill:rgb(100%,84.3%,0%);fill-opacity:1;" d="M 62.609375 467.035156 C 62.609375 468.429688 60.523438 468.429688 60.523438 467.035156 C 60.523438 465.644531 62.609375 465.644531 62.609375 467.035156 "/>
<path style=" stroke:none;fill-rule:nonzero;fill:rgb(100%,84.3%,0%);fill-opacity:1;" d="M 177.683594 309.777344 C 177.683594 311.167969 175.597656 311.167969 175.597656 309.777344 C 175.597656 308.382812 177.683594 308.382812 177.683594 309.777344 "/>
<path style=" stroke:none;fill-rule:nonzero;fill:rgb(100%,84.3%,0%);fill-opacity:1;" d="M 196.269531 231.671875 C 196.269531 233.0625 194.183594 233.0625 194.183594 231.671875 C 194.183594 230.277344 196.269531 230.277344 196.269531 231.671875 "/>
<path style=" stroke:none;fill-rule:nonzero;fill:rgb(100%,84.3%,0%);fill-opacity:1;" d="M 107.511719 352.171875 C 107.511719 353.5625 105.421875 353.5625 105.421875 352.171875 C 105.421875 350.78125 107.511719 350.78125 107.511719 352.171875 "/>
<path style=" stroke:none;fill-rule:nonzero;fill:rgb(100%,84.3%,0%);fill-opacity:1;" d="M 74.097656 209.324219 C 74.097656 210.714844 72.007812 210.714844 72.007812 209.324219 C 72.007812 207.933594 74.097656 207.933594 74.097656 209.324219 "/>
<path style=" stroke:none;fill-rule:nonzero;fill:rgb(100%,84.3%,0%);fill-opacity:1;" d="M 317.609375 267.382812 C 317.609375 268.773438 315.519531 268.773438 315.519531 267.382812 C 315.519531 265.988281 317.609375 265.988281 317.609375 267.382812 "/>
<path style=" stroke:none;fill-rule:nonzero;fill:rgb(100%,84.3%,0%);fill-opacity:1;" d="M 156.171875 150.222656 C 156.171875 151.613281 154.085938 151.613281 154.085938 150.222656 C 154.085938 148.828125 156.171875 148.828125 156.171875 150.222656 "/>
<path style=" stroke:none;fill-rule:nonzero;fill:rgb(100%,84.3%,0%);fill-opacity:1;" d="M 214.230469 269.679688 C 214.230469 271.070312 212.144531 271.070312 212.144531 269.679688 C 212.144531 268.285156 214.230469 268.285156 214.230469 269.679688 "/>
<path style=" stroke:none;fill-rule:nonzero;fill:rgb(100%,84.3%,0%);fill-opacity:1;" d="M 171 291.191406 C 171 292.582031 168.914062 292.582031 168.914062 291.191406 C 168.914062 289.796875 171 289.796875 171 291.191406 "/>
<path style=" stroke:none;fill-rule:nonzero;fill:rgb(100%,84.3%,0%);fill-opacity:1;" d="M 330.558594 386.421875 C 330.558594 387.816406 328.46875 387.816406 328.46875 386.421875 C 328.46875 385.03125 330.558594 385.03125 330.558594 386.421875 "/>
<path style=" stroke:none;fill-rule:nonzero;fill:rgb(100%,84.3%,0%);fill-opacity:1;" d="M 133.199219 105.738281 C 133.199219 107.128906 131.113281 107.128906 131.113281 105.738281 C 131.113281 104.34375 133.199219 104.34375 133.199219 105.738281 "/>
<path style=" stroke:none;fill-rule:nonzero;fill:rgb(100%,84.3%,0%);fill-opacity:1;" d="M 206.503906 430.070312 C 206.503906 431.464844 204.414062 431.464844 204.414062 430.070312 C 204.414062 428.679688 206.503906 428.679688 206.503906 430.070312 "/>
<path style=" stroke:none;fill-rule:nonzero;fill:rgb(100%,84.3%,0%);fill-opacity:1;" d="M 128.398438 193.867188 C 128.398438 195.261719 126.308594 195.261719 126.308594 193.867188 C 126.308594 192.476562 128.398438 192.476562 128.398438 193.867188 "/>
<path style=" stroke:none;fill-rule:nonzero;fill:rgb(100%,84.3%,0%);fill-opacity:1;" d="M 206.921875 202.847656 C 206.921875 204.242188 204.832031 204.242188 204.832031 202.847656 C 204.832031 201.457031 206.921875 201.457031 206.921875 202.847656 "/>
<path style=" stroke:none;fill-rule:nonzero;fill:rgb(100%,84.3%,0%);fill-opacity:1;" d="M 135.496094 377.234375 C 135.496094 378.625 133.410156 378.625 133.410156 377.234375 C 133.410156 375.839844 135.496094 375.839844 135.496094 377.234375 "/>
<path style=" stroke:none;fill-rule:nonzero;fill:rgb(100%,84.3%,0%);fill-opacity:1;" d="M 335.988281 237.308594 C 335.988281 238.703125 333.898438 238.703125 333.898438 237.308594 C 333.898438 235.917969 335.988281 235.917969 335.988281 237.308594 "/>
<path style=" stroke:none;fill-rule:nonzero;fill:rgb(100%,84.3%,0%);fill-opacity:1;" d="M 278.347656 276.988281 C 278.347656 278.382812 276.257812 278.382812 276.257812 276.988281 C 276.257812 275.597656 278.347656 275.597656 278.347656 276.988281 "/>
<path style=" stroke:none;fill-rule:nonzero;fill:rgb(100%,84.3%,0%);fill-opacity:1;" d="M 95.191406 314.582031 C 95.191406 315.972656 93.101562 315.972656 93.101562 314.582031 C 93.101562 313.1875 95.191406 313.1875 95.191406 314.582031 "/>
<path style=" stroke:none;fill-rule:nonzero;fill:rgb(100%,84.3%,0%);fill-opacity:1;" d="M 231.984375 325.648438 C 231.984375 327.042969 229.894531 327.042969 229.894531 325.648438 C 229.894531 324.257812 231.984375 324.257812 231.984375 325.648438 "/>
<path style=" stroke:none;fill-rule:nonzero;fill:rgb(100%,84.3%,0%);fill-opacity:1;" d="M 130.277344 168.390625 C 130.277344 169.78125 128.1875 169.78125 128.1875 168.390625 C 128.1875 166.996094 130.277344 166.996094 130.277344 168.390625 "/>
<path style=" stroke:none;fill-rule:nonzero;fill:rgb(100%,84.3%,0%);fill-opacity:1;" d="M 247.019531 322.097656 C 247.019531 323.492188 244.933594 323.492188 244.933594 322.097656 C 244.933594 320.707031 247.019531 320.707031 247.019531 322.097656 "/>
<path style=" stroke:none;fill-rule:nonzero;fill:rgb(100%,84.3%,0%);fill-opacity:1;" d="M 105.84375 395.613281 C 105.84375 397.003906 103.753906 397.003906 103.753906 395.613281 C 103.753906 394.21875 105.84375 394.21875 105.84375 395.613281 "/>
<path style=" stroke:none;fill-rule:nonzero;fill:rgb(100%,84.3%,0%);fill-opacity:1;" d="M 303.40625 399.996094 C 303.40625 401.390625 301.320312 401.390625 301.320312 399.996094 C 301.320312 398.605469 303.40625 398.605469 303.40625 399.996094 "/>
<path style=" stroke:none;fill-rule:nonzero;fill:rgb(100%,84.3%,0%);fill-opacity:1;" d="M 61.777344 201.804688 C 61.777344 203.199219 59.6875 203.199219 59.6875 201.804688 C 59.6875 200.414062 61.777344 200.414062 61.777344 201.804688 "/>
<path style=" stroke:none;fill-rule:nonzero;fill:rgb(100%,84.3%,0%);fill-opacity:1;" d="M 307.792969 295.992188 C 307.792969 297.386719 305.703125 297.386719 305.703125 295.992188 C 305.703125 294.601562 307.792969 294.601562 307.792969 295.992188 "/>
<path style=" stroke:none;fill-rule:nonzero;fill:rgb(100%,84.3%,0%);fill-opacity:1;" d="M 145.523438 363.660156 C 145.523438 365.050781 143.433594 365.050781 143.433594 363.660156 C 143.433594 362.265625 145.523438 362.265625 145.523438 363.660156 "/>
<path style=" stroke:none;fill-rule:nonzero;fill:rgb(100%,84.3%,0%);fill-opacity:1;" d="M 279.390625 333.792969 C 279.390625 335.1875 277.300781 335.1875 277.300781 333.792969 C 277.300781 332.402344 279.390625 332.402344 279.390625 333.792969 "/>
<path style=" stroke:none;fill-rule:nonzero;fill:rgb(100%,84.3%,0%);fill-opacity:1;" d="M 349.769531 414.199219 C 349.769531 415.589844 347.683594 415.589844 347.683594 414.199219 C 347.683594 412.808594 349.769531 412.808594 349.769531 414.199219 "/>
<path style=" stroke:none;fill-rule:nonzero;fill:rgb(100%,84.3%,0%);fill-opacity:1;" d="M 304.242188 319.59375 C 304.242188 320.984375 302.15625 320.984375 302.15625 319.59375 C 302.15625 318.199219 304.242188 318.199219 304.242188 319.59375 "/>
<path style=" stroke:none;fill-rule:nonzero;fill:rgb(100%,84.3%,0%);fill-opacity:1;" d="M 171.417969 85.269531 C 171.417969 86.664062 169.328125 86.664062 169.328125 85.269531 C 169.328125 83.878906 171.417969 83.878906 171.417969 85.269531 "/>
<path style=" stroke:none;fill-rule:nonzero;fill:rgb(100%,84.3%,0%);fill-opacity:1;" d="M 101.664062 376.605469 C 101.664062 378 99.578125 378 99.578125 376.605469 C 99.578125 375.214844 101.664062 375.214844 101.664062 376.605469 "/>
<path style=" stroke:none;fill-rule:nonzero;fill:rgb(100%,84.3%,0%);fill-opacity:1;" d="M 339.957031 150.640625 C 339.957031 152.03125 337.867188 152.03125 337.867188 150.640625 C 337.867188 149.246094 339.957031 149.246094 339.957031 150.640625 "/>
<path style=" stroke:none;fill-rule:nonzero;fill:rgb(100%,84.3%,0%);fill-opacity:1;" d="M 263.519531 300.589844 C 263.519531 301.980469 261.429688 301.980469 261.429688 300.589844 C 261.429688 299.195312 263.519531 299.195312 263.519531 300.589844 "/>
<path style=" stroke:none;fill-rule:nonzero;fill:rgb(100%,84.3%,0%);fill-opacity:1;" d="M 66.996094 96.964844 C 66.996094 98.359375 64.910156 98.359375 64.910156 96.964844 C 64.910156 95.574219 66.996094 95.574219 66.996094 96.964844 "/>
<path style=" stroke:none;fill-rule:nonzero;fill:rgb(100%,84.3%,0%);fill-opacity:1;" d="M 316.355469 174.027344 C 316.355469 175.421875 314.265625 175.421875 314.265625 174.027344 C 314.265625 172.636719 316.355469 172.636719 316.355469 174.027344 "/>
<path style=" stroke:none;fill-rule:nonzero;fill:rgb(100%,84.3%,0%);fill-opacity:1;" d="M 282.3125 361.988281 C 282.3125 363.378906 280.226562 363.378906 280.226562 361.988281 C 280.226562 360.597656 282.3125 360.597656 282.3125 361.988281 "/>
<path style=" stroke:none;fill-rule:nonzero;fill:rgb(100%,84.3%,0%);fill-opacity:1;" d="M 161.394531 202.640625 C 161.394531 204.035156 159.304688 204.035156 159.304688 202.640625 C 159.304688 201.25 161.394531 201.25 161.394531 202.640625 "/>
<path style=" stroke:none;fill-rule:nonzero;fill:rgb(100%,84.3%,0%);fill-opacity:1;" d="M 109.601562 450.121094 C 109.601562 451.511719 107.511719 451.511719 107.511719 450.121094 C 107.511719 448.726562 109.601562 448.726562 109.601562 450.121094 "/>
<path style=" stroke:none;fill-rule:nonzero;fill:rgb(100%,84.3%,0%);fill-opacity:1;" d="M 354.363281 212.039062 C 354.363281 213.429688 352.277344 213.429688 352.277344 212.039062 C 352.277344 210.648438 354.363281 210.648438 354.363281 212.039062 "/>
<path style=" stroke:none;fill-rule:nonzero;fill:rgb(100%,84.3%,0%);fill-opacity:1;" d="M 245.976562 54.570312 C 245.976562 55.964844 243.886719 55.964844 243.886719 54.570312 C 243.886719 53.179688 245.976562 53.179688 245.976562 54.570312 "/>
<path style=" stroke:none;fill-rule:nonzero;fill:rgb(100%,84.3%,0%);fill-opacity:1;" d="M 57.808594 276.363281 C 57.808594 277.753906 55.71875 277.753906 55.71875 276.363281 C 55.71875 274.96875 57.808594 274.96875 57.808594 276.363281 "/>
<path style=" stroke:none;fill-rule:nonzero;fill:rgb(100%,84.3%,0%);fill-opacity:1;" d="M 175.386719 275.945312 C 175.386719 277.335938 173.296875 277.335938 173.296875 275.945312 C 173.296875 274.550781 175.386719 274.550781 175.386719 275.945312 "/>
<path style=" stroke:none;fill-rule:nonzero;fill:rgb(100%,84.3%,0%);fill-opacity:1;" d="M 290.25 444.273438 C 290.25 445.664062 288.160156 445.664062 288.160156 444.273438 C 288.160156 442.878906 290.25 442.878906 290.25 444.273438 "/>
<path style=" stroke:none;fill-rule:nonzero;fill:rgb(100%,84.3%,0%);fill-opacity:1;" d="M 160.558594 103.648438 C 160.558594 105.042969 158.46875 105.042969 158.46875 103.648438 C 158.46875 102.257812 160.558594 102.257812 160.558594 103.648438 "/>
<path style=" stroke:none;fill-rule:nonzero;fill:rgb(100%,84.3%,0%);fill-opacity:1;" d="M 157.21875 256.3125 C 157.21875 257.707031 155.128906 257.707031 155.128906 256.3125 C 155.128906 254.921875 157.21875 254.921875 157.21875 256.3125 "/>
<path style=" stroke:none;fill-rule:nonzero;fill:rgb(100%,84.3%,0%);fill-opacity:1;" d="M 166.613281 226.238281 C 166.613281 227.632812 164.527344 227.632812 164.527344 226.238281 C 164.527344 224.847656 166.613281 224.847656 166.613281 226.238281 "/>
<path style=" stroke:none;fill-rule:nonzero;fill:rgb(100%,84.3%,0%);fill-opacity:1;" d="M 329.722656 382.035156 C 329.722656 383.429688 327.632812 383.429688 327.632812 382.035156 C 327.632812 380.644531 329.722656 380.644531 329.722656 382.035156 "/>
<path style=" stroke:none;fill-rule:nonzero;fill:rgb(100%,84.3%,0%);fill-opacity:1;" d="M 153.457031 242.320312 C 153.457031 243.714844 151.371094 243.714844 151.371094 242.320312 C 151.371094 240.929688 153.457031 240.929688 153.457031 242.320312 "/>
<path style=" stroke:none;fill-rule:nonzero;fill:rgb(100%,84.3%,0%);fill-opacity:1;" d="M 243.050781 69.816406 C 243.050781 71.207031 240.964844 71.207031 240.964844 69.816406 C 240.964844 68.421875 243.050781 68.421875 243.050781 69.816406 "/>
<path style=" stroke:none;fill-rule:nonzero;fill:rgb(100%,84.3%,0%);fill-opacity:1;" d="M 160.765625 390.390625 C 160.765625 391.785156 158.679688 391.785156 158.679688 390.390625 C 158.679688 389 160.765625 389 160.765625 390.390625 "/>
<path style=" stroke:none;fill-rule:nonzero;fill:rgb(100%,84.3%,0%);fill-opacity:1;" d="M 332.644531 415.242188 C 332.644531 416.636719 330.558594 416.636719 330.558594 415.242188 C 330.558594 413.851562 332.644531 413.851562 332.644531 415.242188 "/>
<path style=" stroke:none;fill-rule:nonzero;fill:rgb(100%,84.3%,0%);fill-opacity:1;" d="M 216.738281 147.089844 C 216.738281 148.480469 214.648438 148.480469 214.648438 147.089844 C 214.648438 145.695312 216.738281 145.695312 216.738281 147.089844 "/>
<path style=" stroke:none;fill-rule:nonzero;fill:rgb(100%,84.3%,0%);fill-opacity:1;" d="M 170.375 246.496094 C 170.375 247.890625 168.285156 247.890625 168.285156 246.496094 C 168.285156 245.105469 170.375 245.105469 170.375 246.496094 "/>
<path style=" stroke:none;fill-rule:nonzero;fill:rgb(100%,84.3%,0%);fill-opacity:1;" d="M 331.808594 228.746094 C 331.808594 230.136719 329.722656 230.136719 329.722656 228.746094 C 329.722656 227.355469 331.808594 227.355469 331.808594 228.746094 "/>
<path style=" stroke:none;fill-rule:nonzero;fill:rgb(100%,84.3%,0%);fill-opacity:1;" d="M 291.710938 310.613281 C 291.710938 312.003906 289.625 312.003906 289.625 310.613281 C 289.625 309.21875 291.710938 309.21875 291.710938 310.613281 "/>
<path style=" stroke:none;fill-rule:nonzero;fill:rgb(100%,84.3%,0%);fill-opacity:1;" d="M 245.558594 98.011719 C 245.558594 99.402344 243.46875 99.402344 243.46875 98.011719 C 243.46875 96.617188 245.558594 96.617188 245.558594 98.011719 "/>
<path style=" stroke:none;fill-rule:nonzero;fill:rgb(100%,84.3%,0%);fill-opacity:1;" d="M 235.953125 84.433594 C 235.953125 85.828125 233.863281 85.828125 233.863281 84.433594 C 233.863281 83.042969 235.953125 83.042969 235.953125 84.433594 "/>
<path style=" stroke:none;fill-rule:nonzero;fill:rgb(100%,84.3%,0%);fill-opacity:1;" d="M 224.671875 62.507812 C 224.671875 63.898438 222.585938 63.898438 222.585938 62.507812 C 222.585938 61.113281 224.671875 61.113281 224.671875 62.507812 "/>
<path style=" stroke:none;fill-rule:nonzero;fill:rgb(100%,84.3%,0%);fill-opacity:1;" d="M 100.414062 65.429688 C 100.414062 66.824219 98.324219 66.824219 98.324219 65.429688 C 98.324219 64.039062 100.414062 64.039062 100.414062 65.429688 "/>
<path style=" stroke:none;fill-rule:nonzero;fill:rgb(100%,84.3%,0%);fill-opacity:1;" d="M 246.394531 230.625 C 246.394531 232.019531 244.304688 232.019531 244.304688 230.625 C 244.304688 229.234375 246.394531 229.234375 246.394531 230.625 "/>
<path style=" stroke:none;fill-rule:nonzero;fill:rgb(100%,84.3%,0%);fill-opacity:1;" d="M 55.300781 221.226562 C 55.300781 222.621094 53.210938 222.621094 53.210938 221.226562 C 53.210938 219.835938 55.300781 219.835938 55.300781 221.226562 "/>
<path style=" stroke:none;fill-rule:nonzero;fill:rgb(100%,84.3%,0%);fill-opacity:1;" d="M 72.84375 94.460938 C 72.84375 95.851562 70.753906 95.851562 70.753906 94.460938 C 70.753906 93.066406 72.84375 93.066406 72.84375 94.460938 "/>
<path style=" stroke:none;fill-rule:nonzero;fill:rgb(100%,84.3%,0%);fill-opacity:1;" d="M 44.234375 81.511719 C 44.234375 82.902344 42.144531 82.902344 42.144531 81.511719 C 42.144531 80.121094 44.234375 80.121094 44.234375 81.511719 "/>
<path style=" stroke:none;fill-rule:nonzero;fill:rgb(100%,84.3%,0%);fill-opacity:1;" d="M 98.949219 177.789062 C 98.949219 179.179688 96.863281 179.179688 96.863281 177.789062 C 96.863281 176.394531 98.949219 176.394531 98.949219 177.789062 "/>
<path style=" stroke:none;fill-rule:nonzero;fill:rgb(100%,84.3%,0%);fill-opacity:1;" d="M 338.910156 238.980469 C 338.910156 240.371094 336.824219 240.371094 336.824219 238.980469 C 336.824219 237.585938 338.910156 237.585938 338.910156 238.980469 "/>
<path style=" stroke:none;fill-rule:nonzero;fill:rgb(100%,84.3%,0%);fill-opacity:1;" d="M 53.839844 248.796875 C 53.839844 250.1875 51.75 250.1875 51.75 248.796875 C 51.75 247.402344 53.839844 247.402344 53.839844 248.796875 "/>
<path style=" stroke:none;fill-rule:nonzero;fill:rgb(100%,84.3%,0%);fill-opacity:1;" d="M 141.34375 301.421875 C 141.34375 302.816406 139.257812 302.816406 139.257812 301.421875 C 139.257812 300.03125 141.34375 300.03125 141.34375 301.421875 "/>
<path style=" stroke:none;fill-rule:nonzero;fill:rgb(100%,84.3%,0%);fill-opacity:1;" d="M 235.953125 160.664062 C 235.953125 162.054688 233.863281 162.054688 233.863281 160.664062 C 233.863281 159.269531 235.953125 159.269531 235.953125 160.664062 "/>
<path style=" stroke:none;fill-rule:nonzero;fill:rgb(100%,84.3%,0%);fill-opacity:1;" d="M 54.675781 243.574219 C 54.675781 244.964844 52.585938 244.964844 52.585938 243.574219 C 52.585938 242.183594 54.675781 242.183594 54.675781 243.574219 "/>
<path style=" stroke:none;fill-rule:nonzero;fill:rgb(100%,84.3%,0%);fill-opacity:1;" d="M 204.417969 161.496094 C 204.417969 162.890625 202.328125 162.890625 202.328125 161.496094 C 202.328125 160.105469 204.417969 160.105469 204.417969 161.496094 "/>
<path style=" stroke:none;fill-rule:nonzero;fill:rgb(100%,84.3%,0%);fill-opacity:1;" d="M 56.347656 308.316406 C 56.347656 309.707031 54.257812 309.707031 54.257812 308.316406 C 54.257812 306.921875 56.347656 306.921875 56.347656 308.316406 "/>
<path style=" stroke:none;fill-rule:nonzero;fill:rgb(100%,84.3%,0%);fill-opacity:1;" d="M 267.066406 317.714844 C 267.066406 319.105469 264.980469 319.105469 264.980469 317.714844 C 264.980469 316.320312 267.066406 316.320312 267.066406 317.714844 "/>
<path style=" stroke:none;fill-rule:nonzero;fill:rgb(100%,84.3%,0%);fill-opacity:1;" d="M 125.472656 339.640625 C 125.472656 341.035156 123.386719 341.035156 123.386719 339.640625 C 123.386719 338.25 125.472656 338.25 125.472656 339.640625 "/>
<path style=" stroke:none;fill-rule:nonzero;fill:rgb(100%,84.3%,0%);fill-opacity:1;" d="M 136.960938 162.753906 C 136.960938 164.144531 134.871094 164.144531 134.871094 162.753906 C 134.871094 161.359375 136.960938 161.359375 136.960938 162.753906 "/>
<path style=" stroke:none;fill-rule:nonzero;fill:rgb(100%,84.3%,0%);fill-opacity:1;" d="M 72.636719 277.40625 C 72.636719 278.796875 70.546875 278.796875 70.546875 277.40625 C 70.546875 276.015625 72.636719 276.015625 72.636719 277.40625 "/>
<path style=" stroke:none;fill-rule:nonzero;fill:rgb(100%,84.3%,0%);fill-opacity:1;" d="M 64.074219 429.027344 C 64.074219 430.417969 61.984375 430.417969 61.984375 429.027344 C 61.984375 427.632812 64.074219 427.632812 64.074219 429.027344 "/>
<path style=" stroke:none;fill-rule:nonzero;fill:rgb(100%,84.3%,0%);fill-opacity:1;" d="M 190.839844 233.339844 C 190.839844 234.734375 188.753906 234.734375 188.753906 233.339844 C 188.753906 231.949219 190.839844 231.949219 190.839844 233.339844 "/>
<path style=" stroke:none;fill-rule:nonzero;fill:rgb(100%,84.3%,0%);fill-opacity:1;" d="M 276.257812 57.703125 C 276.257812 59.09375 274.167969 59.09375 274.167969 57.703125 C 274.167969 56.3125 276.257812 56.3125 276.257812 57.703125 "/>
<path style=" stroke:none;fill-rule:nonzero;fill:rgb(100%,84.3%,0%);fill-opacity:1;" d="M 155.753906 329.199219 C 155.753906 330.59375 153.667969 330.59375 153.667969 329.199219 C 153.667969 327.808594 155.753906 327.808594 155.753906 329.199219 "/>
<path style=" stroke:none;fill-rule:nonzero;fill:rgb(100%,84.3%,0%);fill-opacity:1;" d="M 37.550781 189.691406 C 37.550781 191.085938 35.460938 191.085938 35.460938 189.691406 C 35.460938 188.300781 37.550781 188.300781 37.550781 189.691406 "/>
<path style=" stroke:none;fill-rule:nonzero;fill:rgb(100%,84.3%,0%);fill-opacity:1;" d="M 202.117188 183.007812 C 202.117188 184.402344 200.03125 184.402344 200.03125 183.007812 C 200.03125 181.617188 202.117188 181.617188 202.117188 183.007812 "/>
<path style=" stroke:none;fill-rule:nonzero;fill:rgb(100%,84.3%,0%);fill-opacity:1;" d="M 138.628906 241.695312 C 138.628906 243.085938 136.542969 243.085938 136.542969 241.695312 C 136.542969 240.300781 138.628906 240.300781 138.628906 241.695312 "/>
<path style=" stroke:none;fill-rule:nonzero;fill:rgb(100%,84.3%,0%);fill-opacity:1;" d="M 94.355469 247.542969 C 94.355469 248.933594 92.265625 248.933594 92.265625 247.542969 C 92.265625 246.148438 94.355469 246.148438 94.355469 247.542969 "/>
<path style=" stroke:none;fill-rule:nonzero;fill:rgb(100%,84.3%,0%);fill-opacity:1;" d="M 47.992188 145.210938 C 47.992188 146.601562 45.902344 146.601562 45.902344 145.210938 C 45.902344 143.816406 47.992188 143.816406 47.992188 145.210938 "/>
<path style=" stroke:none;fill-rule:nonzero;fill:rgb(100%,84.3%,0%);fill-opacity:1;" d="M 158.679688 204.519531 C 158.679688 205.914062 156.589844 205.914062 156.589844 204.519531 C 156.589844 203.128906 158.679688 203.128906 158.679688 204.519531 "/>
<path style=" stroke:none;fill-rule:nonzero;fill:rgb(100%,84.3%,0%);fill-opacity:1;" d="M 287.746094 200.96875 C 287.746094 202.363281 285.65625 202.363281 285.65625 200.96875 C 285.65625 199.578125 287.746094 199.578125 287.746094 200.96875 "/>
<path style=" stroke:none;fill-rule:nonzero;fill:rgb(100%,84.3%,0%);fill-opacity:1;" d="M 169.957031 158.367188 C 169.957031 159.757812 167.867188 159.757812 167.867188 158.367188 C 167.867188 156.972656 169.957031 156.972656 169.957031 158.367188 "/>
<path style=" stroke:none;fill-rule:nonzero;fill:rgb(100%,84.3%,0%);fill-opacity:1;" d="M 63.65625 229.164062 C 63.65625 230.554688 61.566406 230.554688 61.566406 229.164062 C 61.566406 227.773438 63.65625 227.773438 63.65625 229.164062 "/>
<path style=" stroke:none;fill-rule:nonzero;fill:rgb(100%,84.3%,0%);fill-opacity:1;" d="M 223.003906 203.894531 C 223.003906 205.285156 220.914062 205.285156 220.914062 203.894531 C 220.914062 202.5 223.003906 202.5 223.003906 203.894531 "/>
<path style=" stroke:none;fill-rule:nonzero;fill:rgb(100%,84.3%,0%);fill-opacity:1;" d="M 208.382812 207.863281 C 208.382812 209.253906 206.296875 209.253906 206.296875 207.863281 C 206.296875 206.46875 208.382812 206.46875 208.382812 207.863281 "/>
<path style=" stroke:none;fill-rule:nonzero;fill:rgb(100%,84.3%,0%);fill-opacity:1;" d="M 146.773438 106.78125 C 146.773438 108.175781 144.6875 108.175781 144.6875 106.78125 C 144.6875 105.390625 146.773438 105.390625 146.773438 106.78125 "/>
<path style=" stroke:none;fill-rule:nonzero;fill:rgb(100%,84.3%,0%);fill-opacity:1;" d="M 97.90625 225.613281 C 97.90625 227.003906 95.816406 227.003906 95.816406 225.613281 C 95.816406 224.222656 97.90625 224.222656 97.90625 225.613281 "/>
<path style=" stroke:none;fill-rule:nonzero;fill:rgb(100%,84.3%,0%);fill-opacity:1;" d="M 316.148438 160.035156 C 316.148438 161.429688 314.058594 161.429688 314.058594 160.035156 C 314.058594 158.644531 316.148438 158.644531 316.148438 160.035156 "/>
<path style=" stroke:none;fill-rule:nonzero;fill:rgb(100%,84.3%,0%);fill-opacity:1;" d="M 343.921875 307.898438 C 343.921875 309.289062 341.835938 309.289062 341.835938 307.898438 C 341.835938 306.503906 343.921875 306.503906 343.921875 307.898438 "/>
<path style=" stroke:none;fill-rule:nonzero;fill:rgb(100%,84.3%,0%);fill-opacity:1;" d="M 199.613281 207.863281 C 199.613281 209.253906 197.523438 209.253906 197.523438 207.863281 C 197.523438 206.46875 199.613281 206.46875 199.613281 207.863281 "/>
<path style=" stroke:none;fill-rule:nonzero;fill:rgb(100%,84.3%,0%);fill-opacity:1;" d="M 247.4375 49.140625 C 247.4375 50.535156 245.347656 50.535156 245.347656 49.140625 C 245.347656 47.75 247.4375 47.75 247.4375 49.140625 "/>
<path style=" stroke:none;fill-rule:nonzero;fill:rgb(100%,84.3%,0%);fill-opacity:1;" d="M 98.949219 307.6875 C 98.949219 309.082031 96.863281 309.082031 96.863281 307.6875 C 96.863281 306.296875 98.949219 306.296875 98.949219 307.6875 "/>
<path style=" stroke:none;fill-rule:nonzero;fill:rgb(100%,84.3%,0%);fill-opacity:1;" d="M 107.304688 269.46875 C 107.304688 270.863281 105.214844 270.863281 105.214844 269.46875 C 105.214844 268.078125 107.304688 268.078125 107.304688 269.46875 "/>
<path style=" stroke:none;fill-rule:nonzero;fill:rgb(100%,84.3%,0%);fill-opacity:1;" d="M 39.636719 230 C 39.636719 231.390625 37.550781 231.390625 37.550781 230 C 37.550781 228.605469 39.636719 228.605469 39.636719 230 "/>
<path style=" stroke:none;fill-rule:nonzero;fill:rgb(100%,84.3%,0%);fill-opacity:1;" d="M 133.410156 235.429688 C 133.410156 236.820312 131.320312 236.820312 131.320312 235.429688 C 131.320312 234.035156 133.410156 234.035156 133.410156 235.429688 "/>
<path style=" stroke:none;fill-rule:nonzero;fill:rgb(100%,84.3%,0%);fill-opacity:1;" d="M 116.703125 116.179688 C 116.703125 117.570312 114.613281 117.570312 114.613281 116.179688 C 114.613281 114.785156 116.703125 114.785156 116.703125 116.179688 "/>
<path style=" stroke:none;fill-rule:nonzero;fill:rgb(100%,84.3%,0%);fill-opacity:1;" d="M 227.179688 240.023438 C 227.179688 241.414062 225.089844 241.414062 225.089844 240.023438 C 225.089844 238.628906 227.179688 238.628906 227.179688 240.023438 "/>
<path style=" stroke:none;fill-rule:nonzero;fill:rgb(100%,84.3%,0%);fill-opacity:1;" d="M 297.558594 77.335938 C 297.558594 78.726562 295.472656 78.726562 295.472656 77.335938 C 295.472656 75.941406 297.558594 75.941406 297.558594 77.335938 "/>
<path style=" stroke:none;fill-rule:nonzero;fill:rgb(100%,84.3%,0%);fill-opacity:1;" d="M 182.070312 373.265625 C 182.070312 374.65625 179.980469 374.65625 179.980469 373.265625 C 179.980469 371.871094 182.070312 371.871094 182.070312 373.265625 "/>
<path style=" stroke:none;fill-rule:nonzero;fill:rgb(100%,84.3%,0%);fill-opacity:1;" d="M 73.679688 310.613281 C 73.679688 312.003906 71.589844 312.003906 71.589844 310.613281 C 71.589844 309.21875 73.679688 309.21875 73.679688 310.613281 "/>
<path style=" stroke:none;fill-rule:nonzero;fill:rgb(100%,84.3%,0%);fill-opacity:1;" d="M 207.757812 137.691406 C 207.757812 139.082031 205.667969 139.082031 205.667969 137.691406 C 205.667969 136.296875 207.757812 136.296875 207.757812 137.691406 "/>
<path style=" stroke:none;fill-rule:nonzero;fill:rgb(100%,84.3%,0%);fill-opacity:1;" d="M 317.816406 415.660156 C 317.816406 417.054688 315.730469 417.054688 315.730469 415.660156 C 315.730469 414.269531 317.816406 414.269531 317.816406 415.660156 "/>
</g>
</svg>
