<?xml version="1.0" encoding="UTF-8"?>
<svg xmlns="http://www.w3.org/2000/svg" xmlns:xlink="http://www.w3.org/1999/xlink" width="512pt" height="512pt" viewBox="0 0 512 512" version="1.1">
<g id="surface401">
<path style=" stroke:none;fill-rule:nonzero;fill:rgb(26.7%,26.7%,26.7%);fill-opacity:1;" d="M 187.644531 0 L 324.351562 0 L 324.351562 512 L 187.644531 512 Z M 187.644531 0 "/>
<path style=" stroke:none;fill-rule:nonzero;fill:rgb(19.2%,38.8%,66.7%);fill-opacity:1;" d="M 199.039062 42.667969 L 312.960938 42.667969 L 312.960938 469.332031 L 199.039062 469.332031 Z M 199.039062 42.667969 "/>
<path style=" stroke:none;fill-rule:nonzero;fill:rgb(90.6%,14.9%,14.9%);fill-opacity:1;" d="M 373.1875 483.847656 C 373.1875 489.652344 364.480469 489.652344 364.480469 483.847656 C 364.480469 478.039062 373.1875 478.039062 373.1875 483.847656 "/>
<path style=" stroke:none;fill-rule:nonzero;fill:rgb(90.6%,14.9%,14.9%);fill-opacity:1;" d="M 601.035156 170.375 C 601.035156 206.84375 571.46875 236.40625 535.003906 236.40625 C 498.535156 236.40625 468.96875 206.84375 468.96875 170.375 C 468.96875 133.90625 498.535156 104.34375 535.003906 104.34375 C 571.46875 104.34375 601.035156 133.90625 601.035156 170.375 "/>
<path style=" stroke:none;fill-rule:nonzero;fill:rgb(90.6%,14.9%,14.9%);fill-opacity:1;" d="M 416.726562 533.1875 C 416.726562 548.816406 404.054688 561.488281 388.425781 561.488281 C 372.796875 561.488281 360.125 548.816406 360.125 533.1875 C 360.125 517.558594 372.796875 504.890625 388.425781 504.890625 C 404.054688 504.890625 416.726562 517.558594 416.726562 533.1875 "/>
<path style=" stroke:none;fill-rule:nonzero;fill:rgb(90.6%,14.9%,14.9%);fill-opacity:1;" d="M 79.3125 192.871094 C 79.3125 211.304688 64.367188 226.25 45.933594 226.25 C 27.496094 226.25 12.554688 211.304688 12.554688 192.871094 C 12.554688 174.4375 27.496094 159.492188 45.933594 159.492188 C 64.367188 159.492188 79.3125 174.4375 79.3125 192.871094 "/>
<path style=" stroke:none;fill-rule:nonzero;fill:rgb(100%,100%,100%);fill-opacity:1;" d="M 484.933594 504.164062 C 484.933594 509 477.679688 509 477.679688 504.164062 C 477.679688 499.324219 484.933594 499.324219 484.933594 504.164062 "/>
<path style=" stroke:none;fill-rule:nonzero;fill:rgb(100%,100%,100%);fill-opacity:1;" d="M 423.257812 452.644531 C 423.257812 457.480469 416 457.480469 416 452.644531 C 416 447.804688 423.257812 447.804688 423.257812 452.644531 "/>
<path style=" stroke:none;fill-rule:nonzero;fill:rgb(100%,100%,100%);fill-opacity:1;" d="M 56.089844 136.996094 C 56.089844 141.835938 48.835938 141.835938 48.835938 136.996094 C 48.835938 132.160156 56.089844 132.160156 56.089844 136.996094 "/>
<path style=" stroke:none;fill-rule:nonzero;fill:rgb(100%,100%,100%);fill-opacity:1;" d="M 391.328125 490.375 C 391.328125 495.214844 384.074219 495.214844 384.074219 490.375 C 384.074219 485.539062 391.328125 485.539062 391.328125 490.375 "/>
<path style=" stroke:none;fill-rule:nonzero;fill:rgb(100%,100%,100%);fill-opacity:1;" d="M 351.417969 135.546875 C 351.417969 140.382812 344.164062 140.382812 344.164062 135.546875 C 344.164062 130.707031 351.417969 130.707031 351.417969 135.546875 "/>
<path style=" stroke:none;fill-rule:nonzero;fill:rgb(100%,100%,100%);fill-opacity:1;" d="M 146.066406 106.523438 C 146.066406 111.359375 138.8125 111.359375 138.8125 106.523438 C 138.8125 101.683594 146.066406 101.683594 146.066406 106.523438 "/>
<path style=" stroke:none;fill-rule:nonzero;fill:rgb(100%,100%,100%);fill-opacity:1;" d="M 8.199219 26.703125 C 8.199219 31.539062 0.941406 31.539062 0.941406 26.703125 C 0.941406 21.867188 8.199219 21.867188 8.199219 26.703125 "/>
<path style=" stroke:none;fill-rule:nonzero;fill:rgb(100%,100%,100%);fill-opacity:1;" d="M 396.40625 425.070312 C 396.40625 429.90625 389.152344 429.90625 389.152344 425.070312 C 389.152344 420.234375 396.40625 420.234375 396.40625 425.070312 "/>
<path style=" stroke:none;fill-rule:nonzero;fill:rgb(100%,100%,100%);fill-opacity:1;" d="M 518.3125 250.195312 C 518.3125 255.03125 511.058594 255.03125 511.058594 250.195312 C 511.058594 245.359375 518.3125 245.359375 518.3125 250.195312 "/>
<path style=" stroke:none;fill-rule:nonzero;fill:rgb(100%,100%,100%);fill-opacity:1;" d="M 180.171875 189.242188 C 180.171875 194.082031 172.914062 194.082031 172.914062 189.242188 C 172.914062 184.40625 180.171875 184.40625 180.171875 189.242188 "/>
<path style=" stroke:none;fill-rule:nonzero;fill:rgb(100%,100%,100%);fill-opacity:1;" d="M 146.066406 245.839844 C 146.066406 250.679688 138.8125 250.679688 138.8125 245.839844 C 138.8125 241.003906 146.066406 241.003906 146.066406 245.839844 "/>
<path style=" stroke:none;fill-rule:nonzero;fill:rgb(100%,100%,100%);fill-opacity:1;" d="M 162.03125 86.203125 C 162.03125 91.042969 154.777344 91.042969 154.777344 86.203125 C 154.777344 81.367188 162.03125 81.367188 162.03125 86.203125 "/>
<path style=" stroke:none;fill-rule:nonzero;fill:rgb(100%,100%,100%);fill-opacity:1;" d="M 42.304688 29.605469 C 42.304688 34.441406 35.046875 34.441406 35.046875 29.605469 C 35.046875 24.765625 42.304688 24.765625 42.304688 29.605469 "/>
<path style=" stroke:none;fill-rule:nonzero;fill:rgb(100%,100%,100%);fill-opacity:1;" d="M 124.300781 391.691406 C 124.300781 396.53125 117.042969 396.53125 117.042969 391.691406 C 117.042969 386.855469 124.300781 386.855469 124.300781 391.691406 "/>
<path style=" stroke:none;fill-rule:nonzero;fill:rgb(100%,100%,100%);fill-opacity:1;" d="M 411.644531 327.835938 C 411.644531 332.675781 404.390625 332.675781 404.390625 327.835938 C 404.390625 323 411.644531 323 411.644531 327.835938 "/>
<path style=" stroke:none;fill-rule:nonzero;fill:rgb(100%,100%,100%);fill-opacity:1;" d="M 58.265625 392.417969 C 58.265625 397.253906 51.011719 397.253906 51.011719 392.417969 C 51.011719 387.578125 58.265625 387.578125 58.265625 392.417969 "/>
<path style=" stroke:none;fill-rule:nonzero;fill:rgb(100%,100%,100%);fill-opacity:1;" d="M 365.207031 348.152344 C 365.207031 352.992188 357.949219 352.992188 357.949219 348.152344 C 357.949219 343.316406 365.207031 343.316406 365.207031 348.152344 "/>
<path style=" stroke:none;fill-rule:nonzero;fill:rgb(100%,100%,100%);fill-opacity:1;" d="M 381.171875 395.320312 C 381.171875 400.15625 373.914062 400.15625 373.914062 395.320312 C 373.914062 390.484375 381.171875 390.484375 381.171875 395.320312 "/>
<path style=" stroke:none;fill-rule:nonzero;fill:rgb(100%,100%,100%);fill-opacity:1;" d="M 469.695312 35.410156 C 469.695312 40.246094 462.441406 40.246094 462.441406 35.410156 C 462.441406 30.574219 469.695312 30.574219 469.695312 35.410156 "/>
<path style=" stroke:none;fill-rule:nonzero;fill:rgb(100%,100%,100%);fill-opacity:1;" d="M 397.859375 423.617188 C 397.859375 428.457031 390.601562 428.457031 390.601562 423.617188 C 390.601562 418.78125 397.859375 418.78125 397.859375 423.617188 "/>
<path style=" stroke:none;fill-rule:nonzero;fill:rgb(100%,100%,100%);fill-opacity:1;" d="M 356.5 323.484375 C 356.5 328.320312 349.242188 328.320312 349.242188 323.484375 C 349.242188 318.644531 356.5 318.644531 356.5 323.484375 "/>
<path style=" stroke:none;fill-rule:nonzero;fill:rgb(100%,100%,100%);fill-opacity:1;" d="M 101.804688 406.203125 C 101.804688 411.042969 94.550781 411.042969 94.550781 406.203125 C 94.550781 401.367188 101.804688 401.367188 101.804688 406.203125 "/>
<path style=" stroke:none;fill-rule:nonzero;fill:rgb(100%,84.3%,0%);fill-opacity:1;" d="M 227.339844 226.25 C 227.339844 231.085938 220.082031 231.085938 220.082031 226.25 C 220.082031 221.410156 227.339844 221.410156 227.339844 226.25 "/>
<path style=" stroke:none;fill-rule:nonzero;fill:rgb(100%,84.3%,0%);fill-opacity:1;" d="M 284.664062 303.164062 C 284.664062 308.003906 277.40625 308.003906 277.40625 303.164062 C 277.40625 298.328125 284.664062 298.328125 284.664062 303.164062 "/>
<path style=" stroke:none;fill-rule:nonzero;fill:rgb(100%,84.3%,0%);fill-opacity:1;" d="M 300.625 234.230469 C 300.625 239.070312 293.371094 239.070312 293.371094 234.230469 C 293.371094 229.394531 300.625 229.394531 300.625 234.230469 "/>
<path style=" stroke:none;fill-rule:nonzero;fill:rgb(100%,84.3%,0%);fill-opacity:1;" d="M 281.761719 258.902344 C 281.761719 263.738281 274.503906 263.738281 274.503906 258.902344 C 274.503906 254.066406 281.761719 254.066406 281.761719 258.902344 "/>
<path style=" stroke:none;fill-rule:nonzero;fill:rgb(100%,84.3%,0%);fill-opacity:1;" d="M 245.476562 353.234375 C 245.476562 358.070312 238.222656 358.070312 238.222656 353.234375 C 238.222656 348.398438 245.476562 348.398438 245.476562 353.234375 "/>
<path style=" stroke:none;fill-rule:nonzero;fill:rgb(100%,84.3%,0%);fill-opacity:1;" d="M 306.429688 319.855469 C 306.429688 324.691406 299.175781 324.691406 299.175781 319.855469 C 299.175781 315.015625 306.429688 315.015625 306.429688 319.855469 "/>
<path style=" stroke:none;fill-rule:nonzero;fill:rgb(100%,84.3%,0%);fill-opacity:1;" d="M 228.0625 136.996094 C 228.0625 141.835938 220.808594 141.835938 220.808594 136.996094 C 220.808594 132.160156 228.0625 132.160156 228.0625 136.996094 "/>
<path style=" stroke:none;fill-rule:nonzero;fill:rgb(100%,84.3%,0%);fill-opacity:1;" d="M 300.625 127.566406 C 300.625 132.402344 293.371094 132.402344 293.371094 127.566406 C 293.371094 122.726562 300.625 122.726562 300.625 127.566406 "/>
<path style=" stroke:none;fill-rule:nonzero;fill:rgb(100%,84.3%,0%);fill-opacity:1;" d="M 275.957031 108.699219 C 275.957031 113.535156 268.699219 113.535156 268.699219 108.699219 C 268.699219 103.859375 275.957031 103.859375 275.957031 108.699219 "/>
<path style=" stroke:none;fill-rule:nonzero;fill:rgb(100%,84.3%,0%);fill-opacity:1;" d="M 238.222656 347.429688 C 238.222656 352.265625 230.964844 352.265625 230.964844 347.429688 C 230.964844 342.589844 238.222656 342.589844 238.222656 347.429688 "/>
<path style=" stroke:none;fill-rule:nonzero;fill:rgb(100%,84.3%,0%);fill-opacity:1;" d="M 220.082031 240.761719 C 220.082031 245.597656 212.824219 245.597656 212.824219 240.761719 C 212.824219 235.925781 220.082031 235.925781 220.082031 240.761719 "/>
<path style=" stroke:none;fill-rule:nonzero;fill:rgb(100%,84.3%,0%);fill-opacity:1;" d="M 283.210938 160.21875 C 283.210938 165.054688 275.953125 165.054688 275.953125 160.21875 C 275.953125 155.378906 283.210938 155.378906 283.210938 160.21875 "/>
<path style=" stroke:none;fill-rule:nonzero;fill:rgb(100%,84.3%,0%);fill-opacity:1;" d="M 273.050781 310.421875 C 273.050781 315.257812 265.796875 315.257812 265.796875 310.421875 C 265.796875 305.585938 273.050781 305.585938 273.050781 310.421875 "/>
<path style=" stroke:none;fill-rule:nonzero;fill:rgb(100%,84.3%,0%);fill-opacity:1;" d="M 307.15625 382.984375 C 307.15625 387.820312 299.898438 387.820312 299.898438 382.984375 C 299.898438 378.148438 307.15625 378.148438 307.15625 382.984375 "/>
<path style=" stroke:none;fill-rule:nonzero;fill:rgb(100%,84.3%,0%);fill-opacity:1;" d="M 231.691406 288.652344 C 231.691406 293.492188 224.433594 293.492188 224.433594 288.652344 C 224.433594 283.816406 231.691406 283.816406 231.691406 288.652344 "/>
<path style=" stroke:none;fill-rule:nonzero;fill:rgb(100%,84.3%,0%);fill-opacity:1;" d="M 268.699219 84.027344 C 268.699219 88.863281 261.441406 88.863281 261.441406 84.027344 C 261.441406 79.191406 268.699219 79.191406 268.699219 84.027344 "/>
<path style=" stroke:none;fill-rule:nonzero;fill:rgb(100%,84.3%,0%);fill-opacity:1;" d="M 241.851562 270.511719 C 241.851562 275.347656 234.59375 275.347656 234.59375 270.511719 C 234.59375 265.675781 241.851562 265.675781 241.851562 270.511719 "/>
<path style=" stroke:none;fill-rule:nonzero;fill:rgb(100%,84.3%,0%);fill-opacity:1;" d="M 290.46875 403.300781 C 290.46875 408.140625 283.210938 408.140625 283.210938 403.300781 C 283.210938 398.464844 290.46875 398.464844 290.46875 403.300781 "/>
<path style=" stroke:none;fill-rule:nonzero;fill:rgb(100%,84.3%,0%);fill-opacity:1;" d="M 281.035156 152.234375 C 281.035156 157.074219 273.777344 157.074219 273.777344 152.234375 C 273.777344 147.398438 281.035156 147.398438 281.035156 152.234375 "/>
<path style=" stroke:none;fill-rule:nonzero;fill:rgb(100%,84.3%,0%);fill-opacity:1;" d="M 252.734375 428.699219 C 252.734375 433.535156 245.480469 433.535156 245.480469 428.699219 C 245.480469 423.859375 252.734375 423.859375 252.734375 428.699219 "/>
<path style=" stroke:none;fill-rule:nonzero;fill:rgb(100%,84.3%,0%);fill-opacity:1;" d="M 282.484375 241.488281 C 282.484375 246.324219 275.230469 246.324219 275.230469 241.488281 C 275.230469 236.652344 282.484375 236.652344 282.484375 241.488281 "/>
<path style=" stroke:none;fill-rule:nonzero;fill:rgb(100%,84.3%,0%);fill-opacity:1;" d="M 265.796875 150.785156 C 265.796875 155.621094 258.539062 155.621094 258.539062 150.785156 C 258.539062 145.949219 265.796875 145.949219 265.796875 150.785156 "/>
<path style=" stroke:none;fill-rule:nonzero;fill:rgb(100%,84.3%,0%);fill-opacity:1;" d="M 283.9375 179.085938 C 283.9375 183.921875 276.679688 183.921875 276.679688 179.085938 C 276.679688 174.246094 283.9375 174.246094 283.9375 179.085938 "/>
<path style=" stroke:none;fill-rule:nonzero;fill:rgb(100%,84.3%,0%);fill-opacity:1;" d="M 293.367188 271.964844 C 293.367188 276.800781 286.113281 276.800781 286.113281 271.964844 C 286.113281 267.125 293.367188 267.125 293.367188 271.964844 "/>
<path style=" stroke:none;fill-rule:nonzero;fill:rgb(100%,84.3%,0%);fill-opacity:1;" d="M 269.425781 285.75 C 269.425781 290.589844 262.167969 290.589844 262.167969 285.75 C 262.167969 280.914062 269.425781 280.914062 269.425781 285.75 "/>
<path style=" stroke:none;fill-rule:nonzero;fill:rgb(100%,84.3%,0%);fill-opacity:1;" d="M 244.753906 57.90625 C 244.753906 62.742188 237.496094 62.742188 237.496094 57.90625 C 237.496094 53.066406 244.753906 53.066406 244.753906 57.90625 "/>
<path style=" stroke:none;fill-rule:nonzero;fill:rgb(100%,84.3%,0%);fill-opacity:1;" d="M 231.691406 217.542969 C 231.691406 222.378906 224.433594 222.378906 224.433594 217.542969 C 224.433594 212.703125 231.691406 212.703125 231.691406 217.542969 "/>
<path style=" stroke:none;fill-rule:nonzero;fill:rgb(100%,84.3%,0%);fill-opacity:1;" d="M 247.65625 66.613281 C 247.65625 71.449219 240.398438 71.449219 240.398438 66.613281 C 240.398438 61.773438 247.65625 61.773438 247.65625 66.613281 "/>
<path style=" stroke:none;fill-rule:nonzero;fill:rgb(100%,84.3%,0%);fill-opacity:1;" d="M 249.105469 80.398438 C 249.105469 85.238281 241.851562 85.238281 241.851562 80.398438 C 241.851562 75.5625 249.105469 75.5625 249.105469 80.398438 "/>
<path style=" stroke:none;fill-rule:nonzero;fill:rgb(100%,84.3%,0%);fill-opacity:1;" d="M 256.363281 256 C 256.363281 260.835938 249.105469 260.835938 249.105469 256 C 249.105469 251.164062 256.363281 251.164062 256.363281 256 "/>
<path style=" stroke:none;fill-rule:nonzero;fill:rgb(100%,84.3%,0%);fill-opacity:1;" d="M 258.539062 67.339844 C 258.539062 72.175781 251.285156 72.175781 251.285156 67.339844 C 251.285156 62.5 258.539062 62.5 258.539062 67.339844 "/>
<path style=" stroke:none;fill-rule:nonzero;fill:rgb(100%,84.3%,0%);fill-opacity:1;" d="M 267.972656 235.683594 C 267.972656 240.519531 260.71875 240.519531 260.71875 235.683594 C 260.71875 230.84375 267.972656 230.84375 267.972656 235.683594 "/>
<path style=" stroke:none;fill-rule:nonzero;fill:rgb(100%,84.3%,0%);fill-opacity:1;" d="M 228.789062 101.441406 C 228.789062 106.28125 221.53125 106.28125 221.53125 101.441406 C 221.53125 96.605469 228.789062 96.605469 228.789062 101.441406 "/>
<path style=" stroke:none;fill-rule:nonzero;fill:rgb(100%,84.3%,0%);fill-opacity:1;" d="M 257.8125 212.464844 C 257.8125 217.300781 250.558594 217.300781 250.558594 212.464844 C 250.558594 207.625 257.8125 207.625 257.8125 212.464844 "/>
<path style=" stroke:none;fill-rule:nonzero;fill:rgb(100%,84.3%,0%);fill-opacity:1;" d="M 297 311.148438 C 297 315.984375 289.742188 315.984375 289.742188 311.148438 C 289.742188 306.308594 297 306.308594 297 311.148438 "/>
<path style=" stroke:none;fill-rule:nonzero;fill:rgb(100%,84.3%,0%);fill-opacity:1;" d="M 302.804688 361.214844 C 302.804688 366.050781 295.546875 366.050781 295.546875 361.214844 C 295.546875 356.378906 302.804688 356.378906 302.804688 361.214844 "/>
<path style=" stroke:none;fill-rule:nonzero;fill:rgb(100%,84.3%,0%);fill-opacity:1;" d="M 241.851562 411.28125 C 241.851562 416.121094 234.59375 416.121094 234.59375 411.28125 C 234.59375 406.445312 241.851562 406.445312 241.851562 411.28125 "/>
<path style=" stroke:none;fill-rule:nonzero;fill:rgb(100%,84.3%,0%);fill-opacity:1;" d="M 243.300781 125.386719 C 243.300781 130.226562 236.042969 130.226562 236.042969 125.386719 C 236.042969 120.550781 243.300781 120.550781 243.300781 125.386719 "/>
<path style=" stroke:none;fill-rule:nonzero;fill:rgb(100%,84.3%,0%);fill-opacity:1;" d="M 270.148438 143.527344 C 270.148438 148.367188 262.894531 148.367188 262.894531 143.527344 C 262.894531 138.691406 270.148438 138.691406 270.148438 143.527344 "/>
<path style=" stroke:none;fill-rule:nonzero;fill:rgb(100%,84.3%,0%);fill-opacity:1;" d="M 288.289062 365.570312 C 288.289062 370.40625 281.035156 370.40625 281.035156 365.570312 C 281.035156 360.730469 288.289062 360.730469 288.289062 365.570312 "/>
<path style=" stroke:none;fill-rule:nonzero;fill:rgb(100%,84.3%,0%);fill-opacity:1;" d="M 291.917969 107.972656 C 291.917969 112.808594 284.660156 112.808594 284.660156 107.972656 C 284.660156 103.136719 291.917969 103.136719 291.917969 107.972656 "/>
<path style=" stroke:none;fill-rule:nonzero;fill:rgb(100%,84.3%,0%);fill-opacity:1;" d="M 225.886719 406.203125 C 225.886719 411.042969 218.632812 411.042969 218.632812 406.203125 C 218.632812 401.367188 225.886719 401.367188 225.886719 406.203125 "/>
<path style=" stroke:none;fill-rule:nonzero;fill:rgb(100%,84.3%,0%);fill-opacity:1;" d="M 269.425781 268.335938 C 269.425781 273.171875 262.167969 273.171875 262.167969 268.335938 C 262.167969 263.5 269.425781 263.5 269.425781 268.335938 "/>
<path style=" stroke:none;fill-rule:nonzero;fill:rgb(100%,84.3%,0%);fill-opacity:1;" d="M 245.476562 216.816406 C 245.476562 221.652344 238.222656 221.652344 238.222656 216.816406 C 238.222656 211.976562 245.476562 211.976562 245.476562 216.816406 "/>
<path style=" stroke:none;fill-rule:nonzero;fill:rgb(100%,84.3%,0%);fill-opacity:1;" d="M 249.832031 414.910156 C 249.832031 419.75 242.574219 419.75 242.574219 414.910156 C 242.574219 410.074219 249.832031 410.074219 249.832031 414.910156 "/>
<path style=" stroke:none;fill-rule:nonzero;fill:rgb(100%,84.3%,0%);fill-opacity:1;" d="M 233.867188 206.65625 C 233.867188 211.496094 226.613281 211.496094 226.613281 206.65625 C 226.613281 201.820312 233.867188 201.820312 233.867188 206.65625 "/>
<path style=" stroke:none;fill-rule:nonzero;fill:rgb(100%,84.3%,0%);fill-opacity:1;" d="M 249.832031 306.066406 C 249.832031 310.90625 242.574219 310.90625 242.574219 306.066406 C 242.574219 301.230469 249.832031 301.230469 249.832031 306.066406 "/>
<path style=" stroke:none;fill-rule:nonzero;fill:rgb(100%,84.3%,0%);fill-opacity:1;" d="M 268.699219 451.917969 C 268.699219 456.753906 261.441406 456.753906 261.441406 451.917969 C 261.441406 447.082031 268.699219 447.082031 268.699219 451.917969 "/>
<path style=" stroke:none;fill-rule:nonzero;fill:rgb(100%,84.3%,0%);fill-opacity:1;" d="M 258.539062 84.753906 C 258.539062 89.589844 251.285156 89.589844 251.285156 84.753906 C 251.285156 79.914062 258.539062 79.914062 258.539062 84.753906 "/>
<path style=" stroke:none;fill-rule:nonzero;fill:rgb(100%,84.3%,0%);fill-opacity:1;" d="M 299.898438 53.550781 C 299.898438 58.386719 292.644531 58.386719 292.644531 53.550781 C 292.644531 48.714844 299.898438 48.714844 299.898438 53.550781 "/>
<path style=" stroke:none;fill-rule:nonzero;fill:rgb(100%,84.3%,0%);fill-opacity:1;" d="M 267.972656 404.027344 C 267.972656 408.863281 260.71875 408.863281 260.71875 404.027344 C 260.71875 399.191406 267.972656 399.191406 267.972656 404.027344 "/>
<path style=" stroke:none;fill-rule:nonzero;fill:rgb(100%,84.3%,0%);fill-opacity:1;" d="M 221.53125 84.027344 C 221.53125 88.863281 214.277344 88.863281 214.277344 84.027344 C 214.277344 79.191406 221.53125 79.191406 221.53125 84.027344 "/>
<path style=" stroke:none;fill-rule:nonzero;fill:rgb(100%,84.3%,0%);fill-opacity:1;" d="M 281.035156 398.222656 C 281.035156 403.058594 273.777344 403.058594 273.777344 398.222656 C 273.777344 393.382812 281.035156 393.382812 281.035156 398.222656 "/>
<path style=" stroke:none;fill-rule:nonzero;fill:rgb(100%,84.3%,0%);fill-opacity:1;" d="M 293.367188 224.074219 C 293.367188 228.910156 286.113281 228.910156 286.113281 224.074219 C 286.113281 219.234375 293.367188 219.234375 293.367188 224.074219 "/>
<path style=" stroke:none;fill-rule:nonzero;fill:rgb(100%,84.3%,0%);fill-opacity:1;" d="M 262.894531 359.039062 C 262.894531 363.875 255.636719 363.875 255.636719 359.039062 C 255.636719 354.203125 262.894531 354.203125 262.894531 359.039062 "/>
<path style=" stroke:none;fill-rule:nonzero;fill:rgb(100%,84.3%,0%);fill-opacity:1;" d="M 242.574219 459.175781 C 242.574219 464.011719 235.320312 464.011719 235.320312 459.175781 C 235.320312 454.335938 242.574219 454.335938 242.574219 459.175781 "/>
<path style=" stroke:none;fill-rule:nonzero;fill:rgb(100%,84.3%,0%);fill-opacity:1;" d="M 242.574219 195.773438 C 242.574219 200.609375 235.320312 200.609375 235.320312 195.773438 C 235.320312 190.933594 242.574219 190.933594 242.574219 195.773438 "/>
<path style=" stroke:none;fill-rule:nonzero;fill:rgb(100%,84.3%,0%);fill-opacity:1;" d="M 283.210938 427.972656 C 283.210938 432.808594 275.953125 432.808594 275.953125 427.972656 C 275.953125 423.136719 283.210938 423.136719 283.210938 427.972656 "/>
<path style=" stroke:none;fill-rule:nonzero;fill:rgb(100%,84.3%,0%);fill-opacity:1;" d="M 270.148438 207.382812 C 270.148438 212.21875 262.894531 212.21875 262.894531 207.382812 C 262.894531 202.546875 270.148438 202.546875 270.148438 207.382812 "/>
<path style=" stroke:none;fill-rule:nonzero;fill:rgb(100%,84.3%,0%);fill-opacity:1;" d="M 248.382812 164.570312 C 248.382812 169.410156 241.125 169.410156 241.125 164.570312 C 241.125 159.734375 248.382812 159.734375 248.382812 164.570312 "/>
<path style=" stroke:none;fill-rule:nonzero;fill:rgb(100%,84.3%,0%);fill-opacity:1;" d="M 236.769531 445.386719 C 236.769531 450.226562 229.515625 450.226562 229.515625 445.386719 C 229.515625 440.550781 236.769531 440.550781 236.769531 445.386719 "/>
<path style=" stroke:none;fill-rule:nonzero;fill:rgb(100%,84.3%,0%);fill-opacity:1;" d="M 233.867188 60.082031 C 233.867188 64.917969 226.613281 64.917969 226.613281 60.082031 C 226.613281 55.246094 233.867188 55.246094 233.867188 60.082031 "/>
<path style=" stroke:none;fill-rule:nonzero;fill:rgb(100%,84.3%,0%);fill-opacity:1;" d="M 262.894531 91.28125 C 262.894531 96.121094 255.636719 96.121094 255.636719 91.28125 C 255.636719 86.445312 262.894531 86.445312 262.894531 91.28125 "/>
<path style=" stroke:none;fill-rule:nonzero;fill:rgb(100%,84.3%,0%);fill-opacity:1;" d="M 212.824219 308.246094 C 212.824219 313.082031 205.570312 313.082031 205.570312 308.246094 C 205.570312 303.40625 212.824219 303.40625 212.824219 308.246094 "/>
<path style=" stroke:none;fill-rule:nonzero;fill:rgb(100%,84.3%,0%);fill-opacity:1;" d="M 271.601562 386.613281 C 271.601562 391.449219 264.34375 391.449219 264.34375 386.613281 C 264.34375 381.773438 271.601562 381.773438 271.601562 386.613281 "/>
<path style=" stroke:none;fill-rule:nonzero;fill:rgb(100%,84.3%,0%);fill-opacity:1;" d="M 299.898438 139.175781 C 299.898438 144.011719 292.644531 144.011719 292.644531 139.175781 C 292.644531 134.335938 299.898438 134.335938 299.898438 139.175781 "/>
<path style=" stroke:none;fill-rule:nonzero;fill:rgb(100%,84.3%,0%);fill-opacity:1;" d="M 274.503906 243.664062 C 274.503906 248.5 267.246094 248.5 267.246094 243.664062 C 267.246094 238.828125 274.503906 238.828125 274.503906 243.664062 "/>
<path style=" stroke:none;fill-rule:nonzero;fill:rgb(100%,84.3%,0%);fill-opacity:1;" d="M 291.917969 445.386719 C 291.917969 450.226562 284.660156 450.226562 284.660156 445.386719 C 284.660156 440.550781 291.917969 440.550781 291.917969 445.386719 "/>
<path style=" stroke:none;fill-rule:nonzero;fill:rgb(100%,84.3%,0%);fill-opacity:1;" d="M 303.527344 277.769531 C 303.527344 282.605469 296.273438 282.605469 296.273438 277.769531 C 296.273438 272.929688 303.527344 272.929688 303.527344 277.769531 "/>
<path style=" stroke:none;fill-rule:nonzero;fill:rgb(100%,84.3%,0%);fill-opacity:1;" d="M 306.429688 229.878906 C 306.429688 234.714844 299.175781 234.714844 299.175781 229.878906 C 299.175781 225.039062 306.429688 225.039062 306.429688 229.878906 "/>
<path style=" stroke:none;fill-rule:nonzero;fill:rgb(100%,84.3%,0%);fill-opacity:1;" d="M 244.753906 155.136719 C 244.753906 159.976562 237.496094 159.976562 237.496094 155.136719 C 237.496094 150.300781 244.753906 150.300781 244.753906 155.136719 "/>
<path style=" stroke:none;fill-rule:nonzero;fill:rgb(100%,84.3%,0%);fill-opacity:1;" d="M 220.082031 103.617188 C 220.082031 108.457031 212.824219 108.457031 212.824219 103.617188 C 212.824219 98.78125 220.082031 98.78125 220.082031 103.617188 "/>
<path style=" stroke:none;fill-rule:nonzero;fill:rgb(100%,84.3%,0%);fill-opacity:1;" d="M 229.515625 380.808594 C 229.515625 385.644531 222.257812 385.644531 222.257812 380.808594 C 222.257812 375.96875 229.515625 375.96875 229.515625 380.808594 "/>
<path style=" stroke:none;fill-rule:nonzero;fill:rgb(100%,84.3%,0%);fill-opacity:1;" d="M 294.09375 337.996094 C 294.09375 342.832031 286.839844 342.832031 286.839844 337.996094 C 286.839844 333.15625 294.09375 333.15625 294.09375 337.996094 "/>
<path style=" stroke:none;fill-rule:nonzero;fill:rgb(100%,84.3%,0%);fill-opacity:1;" d="M 248.382812 442.484375 C 248.382812 447.324219 241.125 447.324219 241.125 442.484375 C 241.125 437.648438 248.382812 437.648438 248.382812 442.484375 "/>
<path style=" stroke:none;fill-rule:nonzero;fill:rgb(100%,84.3%,0%);fill-opacity:1;" d="M 217.179688 317.679688 C 217.179688 322.515625 209.921875 322.515625 209.921875 317.679688 C 209.921875 312.839844 217.179688 312.839844 217.179688 317.679688 "/>
<path style=" stroke:none;fill-rule:nonzero;fill:rgb(100%,84.3%,0%);fill-opacity:1;" d="M 249.105469 330.015625 C 249.105469 334.851562 241.851562 334.851562 241.851562 330.015625 C 241.851562 325.175781 249.105469 325.175781 249.105469 330.015625 "/>
<path style=" stroke:none;fill-rule:nonzero;fill:rgb(100%,84.3%,0%);fill-opacity:1;" d="M 252.007812 372.824219 C 252.007812 377.664062 244.753906 377.664062 244.753906 372.824219 C 244.753906 367.988281 252.007812 367.988281 252.007812 372.824219 "/>
<path style=" stroke:none;fill-rule:nonzero;fill:rgb(100%,84.3%,0%);fill-opacity:1;" d="M 275.957031 337.996094 C 275.957031 342.832031 268.699219 342.832031 268.699219 337.996094 C 268.699219 333.15625 275.957031 333.15625 275.957031 337.996094 "/>
<path style=" stroke:none;fill-rule:nonzero;fill:rgb(100%,84.3%,0%);fill-opacity:1;" d="M 283.9375 455.546875 C 283.9375 460.382812 276.679688 460.382812 276.679688 455.546875 C 276.679688 450.707031 283.9375 450.707031 283.9375 455.546875 "/>
<path style=" stroke:none;fill-rule:nonzero;fill:rgb(100%,84.3%,0%);fill-opacity:1;" d="M 307.882812 404.027344 C 307.882812 408.863281 300.625 408.863281 300.625 404.027344 C 300.625 399.191406 307.882812 399.191406 307.882812 404.027344 "/>
<path style=" stroke:none;fill-rule:nonzero;fill:rgb(100%,84.3%,0%);fill-opacity:1;" d="M 209.921875 398.222656 C 209.921875 403.058594 202.667969 403.058594 202.667969 398.222656 C 202.667969 393.382812 209.921875 393.382812 209.921875 398.222656 "/>
<path style=" stroke:none;fill-rule:nonzero;fill:rgb(100%,84.3%,0%);fill-opacity:1;" d="M 283.210938 315.5 C 283.210938 320.339844 275.953125 320.339844 275.953125 315.5 C 275.953125 310.664062 283.210938 310.664062 283.210938 315.5 "/>
<path style=" stroke:none;fill-rule:nonzero;fill:rgb(100%,84.3%,0%);fill-opacity:1;" d="M 220.082031 55.726562 C 220.082031 60.566406 212.824219 60.566406 212.824219 55.726562 C 212.824219 50.890625 220.082031 50.890625 220.082031 55.726562 "/>
<path style=" stroke:none;fill-rule:nonzero;fill:rgb(100%,84.3%,0%);fill-opacity:1;" d="M 252.734375 248.019531 C 252.734375 252.855469 245.480469 252.855469 245.480469 248.019531 C 245.480469 243.179688 252.734375 243.179688 252.734375 248.019531 "/>
<path style=" stroke:none;fill-rule:nonzero;fill:rgb(100%,84.3%,0%);fill-opacity:1;" d="M 275.957031 379.355469 C 275.957031 384.195312 268.699219 384.195312 268.699219 379.355469 C 268.699219 374.519531 275.957031 374.519531 275.957031 379.355469 "/>
<path style=" stroke:none;fill-rule:nonzero;fill:rgb(100%,84.3%,0%);fill-opacity:1;" d="M 209.921875 277.042969 C 209.921875 281.878906 202.667969 281.878906 202.667969 277.042969 C 202.667969 272.207031 209.921875 272.207031 209.921875 277.042969 "/>
<path style=" stroke:none;fill-rule:nonzero;fill:rgb(100%,84.3%,0%);fill-opacity:1;" d="M 276.679688 224.074219 C 276.679688 228.910156 269.425781 228.910156 269.425781 224.074219 C 269.425781 219.234375 276.679688 219.234375 276.679688 224.074219 "/>
</g>
</svg>
