<?xml version="1.0" encoding="UTF-8"?>
<svg xmlns="http://www.w3.org/2000/svg" xmlns:xlink="http://www.w3.org/1999/xlink" width="512pt" height="512pt" viewBox="0 0 512 512" version="1.1">
<g id="surface411">
<rect x="0" y="0" width="512" height="512" style="fill:rgb(26.7%,26.7%,26.7%);fill-opacity:1;stroke:none;"/>
<path style=" stroke:none;fill-rule:nonzero;fill:rgb(19.2%,38.8%,66.7%);fill-opacity:1;" d="M 8.050781 42.667969 L 88.539062 42.667969 L 88.539062 469.332031 L 8.050781 469.332031 Z M 8.050781 42.667969 "/>
<path style=" stroke:none;fill-rule:nonzero;fill:rgb(90.6%,14.9%,14.9%);fill-opacity:1;" d="M 466.566406 488.40625 C 466.566406 495.019531 456.648438 495.019531 456.648438 488.40625 C 456.648438 481.792969 466.566406 481.792969 466.566406 488.40625 "/>
<path style=" stroke:none;fill-rule:nonzero;fill:rgb(90.6%,14.9%,14.9%);fill-opacity:1;" d="M 414.878906 133.453125 C 414.878906 143.777344 406.511719 152.148438 396.1875 152.148438 C 385.863281 152.148438 377.496094 143.777344 377.496094 133.453125 C 377.496094 123.132812 385.863281 114.761719 396.1875 114.761719 C 406.511719 114.761719 414.878906 123.132812 414.878906 133.453125 "/>
<path style=" stroke:none;fill-rule:nonzero;fill:rgb(90.6%,14.9%,14.9%);fill-opacity:1;" d="M 504.90625 510.914062 C 504.90625 516 497.273438 516 497.273438 510.914062 C 497.273438 505.828125 504.90625 505.828125 504.90625 510.914062 "/>
<path style=" stroke:none;fill-rule:nonzero;fill:rgb(90.6%,14.9%,14.9%);fill-opacity:1;" d="M 268.207031 63.265625 C 268.207031 68.097656 260.960938 68.097656 260.960938 63.265625 C 260.960938 58.433594 268.207031 58.433594 268.207031 63.265625 "/>
<path style=" stroke:none;fill-rule:nonzero;fill:rgb(90.6%,14.9%,14.9%);fill-opacity:1;" d="M 528.9375 180.945312 C 528.9375 188.425781 522.875 194.488281 515.394531 194.488281 C 507.914062 194.488281 501.851562 188.425781 501.851562 180.945312 C 501.851562 173.46875 507.914062 167.40625 515.394531 167.40625 C 522.875 167.40625 528.9375 173.46875 528.9375 180.945312 "/>
<path style=" stroke:none;fill-rule:nonzero;fill:rgb(90.6%,14.9%,14.9%);fill-opacity:1;" d="M 374.828125 376.257812 C 374.828125 382.613281 365.289062 382.613281 365.289062 376.257812 C 365.289062 369.898438 374.828125 369.898438 374.828125 376.257812 "/>
<path style=" stroke:none;fill-rule:nonzero;fill:rgb(90.6%,14.9%,14.9%);fill-opacity:1;" d="M 486.59375 443.203125 C 486.59375 447.019531 480.871094 447.019531 480.871094 443.203125 C 480.871094 439.386719 486.59375 439.386719 486.59375 443.203125 "/>
<path style=" stroke:none;fill-rule:nonzero;fill:rgb(90.6%,14.9%,14.9%);fill-opacity:1;" d="M 127.828125 328.382812 C 127.828125 336.074219 121.59375 342.304688 113.90625 342.304688 C 106.214844 342.304688 99.980469 336.074219 99.980469 328.382812 C 99.980469 320.691406 106.214844 314.460938 113.90625 314.460938 C 121.59375 314.460938 127.828125 320.691406 127.828125 328.382812 "/>
<path style=" stroke:none;fill-rule:nonzero;fill:rgb(90.6%,14.9%,14.9%);fill-opacity:1;" d="M 498.609375 418.027344 C 498.609375 422.660156 494.851562 426.417969 490.21875 426.417969 C 485.582031 426.417969 481.824219 422.660156 481.824219 418.027344 C 481.824219 413.390625 485.582031 409.636719 490.21875 409.636719 C 494.851562 409.636719 498.609375 413.390625 498.609375 418.027344 "/>
<path style=" stroke:none;fill-rule:nonzero;fill:rgb(90.6%,14.9%,14.9%);fill-opacity:1;" d="M 318.558594 68.414062 C 318.558594 73.246094 311.3125 73.246094 311.3125 68.414062 C 311.3125 63.582031 318.558594 63.582031 318.558594 68.414062 "/>
<path style=" stroke:none;fill-rule:nonzero;fill:rgb(90.6%,14.9%,14.9%);fill-opacity:1;" d="M 285.371094 317.511719 C 285.371094 327.625 277.175781 335.820312 267.0625 335.820312 C 256.949219 335.820312 248.75 327.625 248.75 317.511719 C 248.75 307.398438 256.949219 299.199219 267.0625 299.199219 C 277.175781 299.199219 285.371094 307.398438 285.371094 317.511719 "/>
<path style=" stroke:none;fill-rule:nonzero;fill:rgb(90.6%,14.9%,14.9%);fill-opacity:1;" d="M 464.085938 221 C 464.085938 224.050781 459.511719 224.050781 459.511719 221 C 459.511719 217.949219 464.085938 217.949219 464.085938 221 "/>
<path style=" stroke:none;fill-rule:nonzero;fill:rgb(90.6%,14.9%,14.9%);fill-opacity:1;" d="M 275.074219 405.820312 C 275.074219 411.191406 270.71875 415.546875 265.347656 415.546875 C 259.972656 415.546875 255.617188 411.191406 255.617188 405.820312 C 255.617188 400.449219 259.972656 396.09375 265.347656 396.09375 C 270.71875 396.09375 275.074219 400.449219 275.074219 405.820312 "/>
<path style=" stroke:none;fill-rule:nonzero;fill:rgb(90.6%,14.9%,14.9%);fill-opacity:1;" d="M 416.214844 249.230469 C 416.214844 256.351562 405.535156 256.351562 405.535156 249.230469 C 405.535156 242.109375 416.214844 242.109375 416.214844 249.230469 "/>
<path style=" stroke:none;fill-rule:nonzero;fill:rgb(90.6%,14.9%,14.9%);fill-opacity:1;" d="M 279.460938 420.507812 C 279.460938 430.300781 271.519531 438.242188 261.722656 438.242188 C 251.925781 438.242188 243.984375 430.300781 243.984375 420.507812 C 243.984375 410.710938 251.925781 402.769531 261.722656 402.769531 C 271.519531 402.769531 279.460938 410.710938 279.460938 420.507812 "/>
<path style=" stroke:none;fill-rule:nonzero;fill:rgb(90.6%,14.9%,14.9%);fill-opacity:1;" d="M 249.707031 453.3125 C 249.707031 458.683594 245.351562 463.039062 239.980469 463.039062 C 234.605469 463.039062 230.25 458.683594 230.25 453.3125 C 230.25 447.941406 234.605469 443.585938 239.980469 443.585938 C 245.351562 443.585938 249.707031 447.941406 249.707031 453.3125 "/>
<path style=" stroke:none;fill-rule:nonzero;fill:rgb(90.6%,14.9%,14.9%);fill-opacity:1;" d="M 283.273438 198.492188 C 283.273438 204.34375 274.5 204.34375 274.5 198.492188 C 274.5 192.644531 283.273438 192.644531 283.273438 198.492188 "/>
<path style=" stroke:none;fill-rule:nonzero;fill:rgb(90.6%,14.9%,14.9%);fill-opacity:1;" d="M 267.253906 213.753906 C 267.253906 216.804688 262.675781 216.804688 262.675781 213.753906 C 262.675781 210.703125 267.253906 210.703125 267.253906 213.753906 "/>
<path style=" stroke:none;fill-rule:nonzero;fill:rgb(90.6%,14.9%,14.9%);fill-opacity:1;" d="M 342.78125 109.996094 C 342.78125 113.578125 339.878906 116.480469 336.296875 116.480469 C 332.714844 116.480469 329.8125 113.578125 329.8125 109.996094 C 329.8125 106.414062 332.714844 103.511719 336.296875 103.511719 C 339.878906 103.511719 342.78125 106.414062 342.78125 109.996094 "/>
<path style=" stroke:none;fill-rule:nonzero;fill:rgb(90.6%,14.9%,14.9%);fill-opacity:1;" d="M 277.363281 436.144531 C 277.363281 439.960938 271.640625 439.960938 271.640625 436.144531 C 271.640625 432.332031 277.363281 432.332031 277.363281 436.144531 "/>
<path style=" stroke:none;fill-rule:nonzero;fill:rgb(90.6%,14.9%,14.9%);fill-opacity:1;" d="M 340.304688 444.539062 C 340.304688 447.804688 337.65625 450.449219 334.390625 450.449219 C 331.125 450.449219 328.476562 447.804688 328.476562 444.539062 C 328.476562 441.273438 331.125 438.625 334.390625 438.625 C 337.65625 438.625 340.304688 441.273438 340.304688 444.539062 "/>
<path style=" stroke:none;fill-rule:nonzero;fill:rgb(100%,100%,100%);fill-opacity:1;" d="M 259.433594 440.722656 C 259.433594 441.996094 257.527344 441.996094 257.527344 440.722656 C 257.527344 439.453125 259.433594 439.453125 259.433594 440.722656 "/>
<path style=" stroke:none;fill-rule:nonzero;fill:rgb(100%,100%,100%);fill-opacity:1;" d="M 173.222656 113.808594 C 173.222656 115.082031 171.316406 115.082031 171.316406 113.808594 C 171.316406 112.539062 173.222656 112.539062 173.222656 113.808594 "/>
<path style=" stroke:none;fill-rule:nonzero;fill:rgb(100%,100%,100%);fill-opacity:1;" d="M 79.191406 35.609375 C 79.191406 36.882812 77.285156 36.882812 77.285156 35.609375 C 77.285156 34.339844 79.191406 34.339844 79.191406 35.609375 "/>
<path style=" stroke:none;fill-rule:nonzero;fill:rgb(100%,100%,100%);fill-opacity:1;" d="M 130.878906 185.144531 C 130.878906 186.414062 128.972656 186.414062 128.972656 185.144531 C 128.972656 183.871094 130.878906 183.871094 130.878906 185.144531 "/>
<path style=" stroke:none;fill-rule:nonzero;fill:rgb(100%,100%,100%);fill-opacity:1;" d="M 170.171875 117.050781 C 170.171875 118.324219 168.261719 118.324219 168.261719 117.050781 C 168.261719 115.78125 170.171875 115.78125 170.171875 117.050781 "/>
<path style=" stroke:none;fill-rule:nonzero;fill:rgb(100%,100%,100%);fill-opacity:1;" d="M 336.871094 15.773438 C 336.871094 17.046875 334.964844 17.046875 334.964844 15.773438 C 334.964844 14.503906 336.871094 14.503906 336.871094 15.773438 "/>
<path style=" stroke:none;fill-rule:nonzero;fill:rgb(100%,100%,100%);fill-opacity:1;" d="M 420.21875 117.433594 C 420.21875 118.703125 418.3125 118.703125 418.3125 117.433594 C 418.3125 116.160156 420.21875 116.160156 420.21875 117.433594 "/>
<path style=" stroke:none;fill-rule:nonzero;fill:rgb(100%,100%,100%);fill-opacity:1;" d="M 504.523438 395.519531 C 504.523438 396.792969 502.617188 396.792969 502.617188 395.519531 C 502.617188 394.25 504.523438 394.25 504.523438 395.519531 "/>
<path style=" stroke:none;fill-rule:nonzero;fill:rgb(100%,100%,100%);fill-opacity:1;" d="M 319.894531 405.4375 C 319.894531 406.710938 317.988281 406.710938 317.988281 405.4375 C 317.988281 404.167969 319.894531 404.167969 319.894531 405.4375 "/>
<path style=" stroke:none;fill-rule:nonzero;fill:rgb(100%,100%,100%);fill-opacity:1;" d="M 339.351562 33.511719 C 339.351562 34.785156 337.441406 34.785156 337.441406 33.511719 C 337.441406 32.242188 339.351562 32.242188 339.351562 33.511719 "/>
<path style=" stroke:none;fill-rule:nonzero;fill:rgb(100%,100%,100%);fill-opacity:1;" d="M 284.800781 43.429688 C 284.800781 44.703125 282.894531 44.703125 282.894531 43.429688 C 282.894531 42.160156 284.800781 42.160156 284.800781 43.429688 "/>
<path style=" stroke:none;fill-rule:nonzero;fill:rgb(100%,100%,100%);fill-opacity:1;" d="M 151.859375 367.671875 C 151.859375 368.945312 149.953125 368.945312 149.953125 367.671875 C 149.953125 366.402344 151.859375 366.402344 151.859375 367.671875 "/>
<path style=" stroke:none;fill-rule:nonzero;fill:rgb(100%,100%,100%);fill-opacity:1;" d="M 294.148438 110.1875 C 294.148438 111.457031 292.238281 111.457031 292.238281 110.1875 C 292.238281 108.914062 294.148438 108.914062 294.148438 110.1875 "/>
<path style=" stroke:none;fill-rule:nonzero;fill:rgb(100%,100%,100%);fill-opacity:1;" d="M 405.726562 403.53125 C 405.726562 404.800781 403.816406 404.800781 403.816406 403.53125 C 403.816406 402.257812 405.726562 402.257812 405.726562 403.53125 "/>
<path style=" stroke:none;fill-rule:nonzero;fill:rgb(100%,100%,100%);fill-opacity:1;" d="M 469.238281 46.101562 C 469.238281 47.371094 467.332031 47.371094 467.332031 46.101562 C 467.332031 44.828125 469.238281 44.828125 469.238281 46.101562 "/>
<path style=" stroke:none;fill-rule:nonzero;fill:rgb(100%,100%,100%);fill-opacity:1;" d="M 412.210938 300.34375 C 412.210938 301.617188 410.300781 301.617188 410.300781 300.34375 C 410.300781 299.074219 412.210938 299.074219 412.210938 300.34375 "/>
<path style=" stroke:none;fill-rule:nonzero;fill:rgb(100%,100%,100%);fill-opacity:1;" d="M 137.554688 486.691406 C 137.554688 487.960938 135.648438 487.960938 135.648438 486.691406 C 135.648438 485.417969 137.554688 485.417969 137.554688 486.691406 "/>
<path style=" stroke:none;fill-rule:nonzero;fill:rgb(100%,100%,100%);fill-opacity:1;" d="M 49.4375 22.832031 C 49.4375 24.101562 47.53125 24.101562 47.53125 22.832031 C 47.53125 21.558594 49.4375 21.558594 49.4375 22.832031 "/>
<path style=" stroke:none;fill-rule:nonzero;fill:rgb(100%,100%,100%);fill-opacity:1;" d="M 165.976562 398.761719 C 165.976562 400.035156 164.066406 400.035156 164.066406 398.761719 C 164.066406 397.492188 165.976562 397.492188 165.976562 398.761719 "/>
<path style=" stroke:none;fill-rule:nonzero;fill:rgb(100%,100%,100%);fill-opacity:1;" d="M 150.90625 500.230469 C 150.90625 501.503906 149 501.503906 149 500.230469 C 149 498.960938 150.90625 498.960938 150.90625 500.230469 "/>
<path style=" stroke:none;fill-rule:nonzero;fill:rgb(100%,100%,100%);fill-opacity:1;" d="M 100.363281 7 C 100.363281 8.273438 98.457031 8.273438 98.457031 7 C 98.457031 5.726562 100.363281 5.726562 100.363281 7 "/>
<path style=" stroke:none;fill-rule:nonzero;fill:rgb(100%,100%,100%);fill-opacity:1;" d="M 419.457031 88.0625 C 419.457031 89.332031 417.550781 89.332031 417.550781 88.0625 C 417.550781 86.789062 419.457031 86.789062 419.457031 88.0625 "/>
<path style=" stroke:none;fill-rule:nonzero;fill:rgb(100%,100%,100%);fill-opacity:1;" d="M 408.203125 182.855469 C 408.203125 184.125 406.296875 184.125 406.296875 182.855469 C 406.296875 181.582031 408.203125 181.582031 408.203125 182.855469 "/>
<path style=" stroke:none;fill-rule:nonzero;fill:rgb(100%,100%,100%);fill-opacity:1;" d="M 470.191406 295.386719 C 470.191406 296.65625 468.285156 296.65625 468.285156 295.386719 C 468.285156 294.113281 470.191406 294.113281 470.191406 295.386719 "/>
<path style=" stroke:none;fill-rule:nonzero;fill:rgb(100%,100%,100%);fill-opacity:1;" d="M 143.660156 279.746094 C 143.660156 281.015625 141.75 281.015625 141.75 279.746094 C 141.75 278.472656 143.660156 278.472656 143.660156 279.746094 "/>
<path style=" stroke:none;fill-rule:nonzero;fill:rgb(100%,100%,100%);fill-opacity:1;" d="M 397.90625 73.945312 C 397.90625 75.21875 395.996094 75.21875 395.996094 73.945312 C 395.996094 72.675781 397.90625 72.675781 397.90625 73.945312 "/>
<path style=" stroke:none;fill-rule:nonzero;fill:rgb(100%,100%,100%);fill-opacity:1;" d="M 272.023438 243.316406 C 272.023438 244.585938 270.113281 244.585938 270.113281 243.316406 C 270.113281 242.042969 272.023438 242.042969 272.023438 243.316406 "/>
<path style=" stroke:none;fill-rule:nonzero;fill:rgb(100%,100%,100%);fill-opacity:1;" d="M 171.503906 448.542969 C 171.503906 449.816406 169.597656 449.816406 169.597656 448.542969 C 169.597656 447.273438 171.503906 447.273438 171.503906 448.542969 "/>
<path style=" stroke:none;fill-rule:nonzero;fill:rgb(100%,100%,100%);fill-opacity:1;" d="M 0.0390625 392.851562 C 0.0390625 394.121094 -1.871094 394.121094 -1.871094 392.851562 C -1.871094 391.578125 0.0390625 391.578125 0.0390625 392.851562 "/>
<path style=" stroke:none;fill-rule:nonzero;fill:rgb(100%,100%,100%);fill-opacity:1;" d="M 116.195312 310.644531 C 116.195312 311.917969 114.285156 311.917969 114.285156 310.644531 C 114.285156 309.375 116.195312 309.375 116.195312 310.644531 "/>
<path style=" stroke:none;fill-rule:nonzero;fill:rgb(100%,100%,100%);fill-opacity:1;" d="M 405.535156 485.355469 C 405.535156 486.625 403.625 486.625 403.625 485.355469 C 403.625 484.082031 405.535156 484.082031 405.535156 485.355469 "/>
<path style=" stroke:none;fill-rule:nonzero;fill:rgb(100%,100%,100%);fill-opacity:1;" d="M 384.933594 208.792969 C 384.933594 210.066406 383.027344 210.066406 383.027344 208.792969 C 383.027344 207.523438 384.933594 207.523438 384.933594 208.792969 "/>
<path style=" stroke:none;fill-rule:nonzero;fill:rgb(100%,100%,100%);fill-opacity:1;" d="M 235.972656 263.34375 C 235.972656 264.613281 234.066406 264.613281 234.066406 263.34375 C 234.066406 262.070312 235.972656 262.070312 235.972656 263.34375 "/>
<path style=" stroke:none;fill-rule:nonzero;fill:rgb(100%,100%,100%);fill-opacity:1;" d="M 397.90625 39.425781 C 397.90625 40.695312 395.996094 40.695312 395.996094 39.425781 C 395.996094 38.152344 397.90625 38.152344 397.90625 39.425781 "/>
<path style=" stroke:none;fill-rule:nonzero;fill:rgb(100%,100%,100%);fill-opacity:1;" d="M 251.421875 265.824219 C 251.421875 267.09375 249.515625 267.09375 249.515625 265.824219 C 249.515625 264.550781 251.421875 264.550781 251.421875 265.824219 "/>
<path style=" stroke:none;fill-rule:nonzero;fill:rgb(100%,100%,100%);fill-opacity:1;" d="M 282.511719 115.144531 C 282.511719 116.417969 280.605469 116.417969 280.605469 115.144531 C 280.605469 113.875 282.511719 113.875 282.511719 115.144531 "/>
<path style=" stroke:none;fill-rule:nonzero;fill:rgb(100%,100%,100%);fill-opacity:1;" d="M 478.203125 437.863281 C 478.203125 439.132812 476.296875 439.132812 476.296875 437.863281 C 476.296875 436.589844 478.203125 436.589844 478.203125 437.863281 "/>
<path style=" stroke:none;fill-rule:nonzero;fill:rgb(100%,100%,100%);fill-opacity:1;" d="M 74.234375 10.8125 C 74.234375 12.085938 72.324219 12.085938 72.324219 10.8125 C 72.324219 9.542969 74.234375 9.542969 74.234375 10.8125 "/>
<path style=" stroke:none;fill-rule:nonzero;fill:rgb(100%,100%,100%);fill-opacity:1;" d="M 276.21875 364.8125 C 276.21875 366.082031 274.308594 366.082031 274.308594 364.8125 C 274.308594 363.539062 276.21875 363.539062 276.21875 364.8125 "/>
<path style=" stroke:none;fill-rule:nonzero;fill:rgb(100%,100%,100%);fill-opacity:1;" d="M 158.34375 316.746094 C 158.34375 318.019531 156.4375 318.019531 156.4375 316.746094 C 156.4375 315.476562 158.34375 315.476562 158.34375 316.746094 "/>
<path style=" stroke:none;fill-rule:nonzero;fill:rgb(100%,100%,100%);fill-opacity:1;" d="M 227.773438 77.1875 C 227.773438 78.460938 225.863281 78.460938 225.863281 77.1875 C 225.863281 75.917969 227.773438 75.917969 227.773438 77.1875 "/>
<path style=" stroke:none;fill-rule:nonzero;fill:rgb(100%,100%,100%);fill-opacity:1;" d="M 500.707031 73.566406 C 500.707031 74.835938 498.800781 74.835938 498.800781 73.566406 C 498.800781 72.292969 500.707031 72.292969 500.707031 73.566406 "/>
<path style=" stroke:none;fill-rule:nonzero;fill:rgb(100%,100%,100%);fill-opacity:1;" d="M 491.363281 10.8125 C 491.363281 12.085938 489.457031 12.085938 489.457031 10.8125 C 489.457031 9.542969 491.363281 9.542969 491.363281 10.8125 "/>
<path style=" stroke:none;fill-rule:nonzero;fill:rgb(100%,100%,100%);fill-opacity:1;" d="M 113.140625 354.132812 C 113.140625 355.402344 111.234375 355.402344 111.234375 354.132812 C 111.234375 352.859375 113.140625 352.859375 113.140625 354.132812 "/>
<path style=" stroke:none;fill-rule:nonzero;fill:rgb(100%,100%,100%);fill-opacity:1;" d="M 323.136719 394.949219 C 323.136719 396.21875 321.230469 396.21875 321.230469 394.949219 C 321.230469 393.675781 323.136719 393.675781 323.136719 394.949219 "/>
<path style=" stroke:none;fill-rule:nonzero;fill:rgb(100%,100%,100%);fill-opacity:1;" d="M 165.019531 356.609375 C 165.019531 357.882812 163.113281 357.882812 163.113281 356.609375 C 163.113281 355.339844 165.019531 355.339844 165.019531 356.609375 "/>
<path style=" stroke:none;fill-rule:nonzero;fill:rgb(100%,100%,100%);fill-opacity:1;" d="M 124.777344 45.144531 C 124.777344 46.417969 122.871094 46.417969 122.871094 45.144531 C 122.871094 43.875 124.777344 43.875 124.777344 45.144531 "/>
<path style=" stroke:none;fill-rule:nonzero;fill:rgb(100%,100%,100%);fill-opacity:1;" d="M 304.828125 26.074219 C 304.828125 27.34375 302.921875 27.34375 302.921875 26.074219 C 302.921875 24.800781 304.828125 24.800781 304.828125 26.074219 "/>
<path style=" stroke:none;fill-rule:nonzero;fill:rgb(100%,100%,100%);fill-opacity:1;" d="M 378.640625 158.632812 C 378.640625 159.902344 376.734375 159.902344 376.734375 158.632812 C 376.734375 157.359375 378.640625 157.359375 378.640625 158.632812 "/>
<path style=" stroke:none;fill-rule:nonzero;fill:rgb(100%,100%,100%);fill-opacity:1;" d="M 494.796875 148.140625 C 494.796875 149.414062 492.886719 149.414062 492.886719 148.140625 C 492.886719 146.871094 494.796875 146.871094 494.796875 148.140625 "/>
<path style=" stroke:none;fill-rule:nonzero;fill:rgb(100%,100%,100%);fill-opacity:1;" d="M 297.199219 344.976562 C 297.199219 346.246094 295.289062 346.246094 295.289062 344.976562 C 295.289062 343.703125 297.199219 343.703125 297.199219 344.976562 "/>
<path style=" stroke:none;fill-rule:nonzero;fill:rgb(100%,100%,100%);fill-opacity:1;" d="M 252.1875 243.316406 C 252.1875 244.585938 250.277344 244.585938 250.277344 243.316406 C 250.277344 242.042969 252.1875 242.042969 252.1875 243.316406 "/>
<path style=" stroke:none;fill-rule:nonzero;fill:rgb(100%,100%,100%);fill-opacity:1;" d="M 440.054688 73.566406 C 440.054688 74.835938 438.148438 74.835938 438.148438 73.566406 C 438.148438 72.292969 440.054688 72.292969 440.054688 73.566406 "/>
<path style=" stroke:none;fill-rule:nonzero;fill:rgb(100%,100%,100%);fill-opacity:1;" d="M 480.683594 169.503906 C 480.683594 170.773438 478.773438 170.773438 478.773438 169.503906 C 478.773438 168.230469 480.683594 168.230469 480.683594 169.503906 "/>
<path style=" stroke:none;fill-rule:nonzero;fill:rgb(100%,100%,100%);fill-opacity:1;" d="M 394.472656 36.183594 C 394.472656 37.453125 392.5625 37.453125 392.5625 36.183594 C 392.5625 34.910156 394.472656 34.910156 394.472656 36.183594 "/>
<path style=" stroke:none;fill-rule:nonzero;fill:rgb(100%,100%,100%);fill-opacity:1;" d="M 319.324219 116.480469 C 319.324219 117.75 317.414062 117.75 317.414062 116.480469 C 317.414062 115.207031 319.324219 115.207031 319.324219 116.480469 "/>
<path style=" stroke:none;fill-rule:nonzero;fill:rgb(100%,100%,100%);fill-opacity:1;" d="M 354.796875 416.5 C 354.796875 417.773438 352.890625 417.773438 352.890625 416.5 C 352.890625 415.230469 354.796875 415.230469 354.796875 416.5 "/>
<path style=" stroke:none;fill-rule:nonzero;fill:rgb(100%,100%,100%);fill-opacity:1;" d="M 138.320312 416.308594 C 138.320312 417.582031 136.410156 417.582031 136.410156 416.308594 C 136.410156 415.039062 138.320312 415.039062 138.320312 416.308594 "/>
<path style=" stroke:none;fill-rule:nonzero;fill:rgb(100%,100%,100%);fill-opacity:1;" d="M 343.546875 68.988281 C 343.546875 70.257812 341.636719 70.257812 341.636719 68.988281 C 341.636719 67.714844 343.546875 67.714844 343.546875 68.988281 "/>
<path style=" stroke:none;fill-rule:nonzero;fill:rgb(100%,100%,100%);fill-opacity:1;" d="M 156.4375 352.605469 C 156.4375 353.878906 154.53125 353.878906 154.53125 352.605469 C 154.53125 351.335938 156.4375 351.335938 156.4375 352.605469 "/>
<path style=" stroke:none;fill-rule:nonzero;fill:rgb(100%,100%,100%);fill-opacity:1;" d="M 156.628906 59.640625 C 156.628906 60.914062 154.722656 60.914062 154.722656 59.640625 C 154.722656 58.371094 156.628906 58.371094 156.628906 59.640625 "/>
<path style=" stroke:none;fill-rule:nonzero;fill:rgb(100%,100%,100%);fill-opacity:1;" d="M 355.371094 97.40625 C 355.371094 98.679688 353.464844 98.679688 353.464844 97.40625 C 353.464844 96.136719 355.371094 96.136719 355.371094 97.40625 "/>
<path style=" stroke:none;fill-rule:nonzero;fill:rgb(100%,100%,100%);fill-opacity:1;" d="M 454.742188 101.984375 C 454.742188 103.253906 452.835938 103.253906 452.835938 101.984375 C 452.835938 100.710938 454.742188 100.710938 454.742188 101.984375 "/>
<path style=" stroke:none;fill-rule:nonzero;fill:rgb(100%,100%,100%);fill-opacity:1;" d="M 54.015625 476.007812 C 54.015625 477.28125 52.109375 477.28125 52.109375 476.007812 C 52.109375 474.738281 54.015625 474.738281 54.015625 476.007812 "/>
<path style=" stroke:none;fill-rule:nonzero;fill:rgb(100%,100%,100%);fill-opacity:1;" d="M 297.769531 445.109375 C 297.769531 446.382812 295.863281 446.382812 295.863281 445.109375 C 295.863281 443.839844 297.769531 443.839844 297.769531 445.109375 "/>
<path style=" stroke:none;fill-rule:nonzero;fill:rgb(100%,100%,100%);fill-opacity:1;" d="M 345.453125 480.394531 C 345.453125 481.667969 343.546875 481.667969 343.546875 480.394531 C 343.546875 479.125 345.453125 479.125 345.453125 480.394531 "/>
<path style=" stroke:none;fill-rule:nonzero;fill:rgb(100%,100%,100%);fill-opacity:1;" d="M 245.320312 168.738281 C 245.320312 170.011719 243.410156 170.011719 243.410156 168.738281 C 243.410156 167.46875 245.320312 167.46875 245.320312 168.738281 "/>
<path style=" stroke:none;fill-rule:nonzero;fill:rgb(100%,100%,100%);fill-opacity:1;" d="M 142.894531 389.988281 C 142.894531 391.261719 140.988281 391.261719 140.988281 389.988281 C 140.988281 388.71875 142.894531 388.71875 142.894531 389.988281 "/>
<path style=" stroke:none;fill-rule:nonzero;fill:rgb(100%,100%,100%);fill-opacity:1;" d="M 156.246094 451.214844 C 156.246094 452.484375 154.339844 452.484375 154.339844 451.214844 C 154.339844 449.941406 156.246094 449.941406 156.246094 451.214844 "/>
<path style=" stroke:none;fill-rule:nonzero;fill:rgb(100%,100%,100%);fill-opacity:1;" d="M 498.230469 303.015625 C 498.230469 304.285156 496.324219 304.285156 496.324219 303.015625 C 496.324219 301.742188 498.230469 301.742188 498.230469 303.015625 "/>
<path style=" stroke:none;fill-rule:nonzero;fill:rgb(100%,100%,100%);fill-opacity:1;" d="M 198.398438 358.710938 C 198.398438 359.980469 196.492188 359.980469 196.492188 358.710938 C 196.492188 357.4375 198.398438 357.4375 198.398438 358.710938 "/>
<path style=" stroke:none;fill-rule:nonzero;fill:rgb(100%,100%,100%);fill-opacity:1;" d="M 314.171875 498.132812 C 314.171875 499.40625 312.265625 499.40625 312.265625 498.132812 C 312.265625 496.863281 314.171875 496.863281 314.171875 498.132812 "/>
<path style=" stroke:none;fill-rule:nonzero;fill:rgb(100%,100%,100%);fill-opacity:1;" d="M 118.484375 98.359375 C 118.484375 99.632812 116.574219 99.632812 116.574219 98.359375 C 116.574219 97.089844 118.484375 97.089844 118.484375 98.359375 "/>
<path style=" stroke:none;fill-rule:nonzero;fill:rgb(100%,100%,100%);fill-opacity:1;" d="M 210.414062 69.558594 C 210.414062 70.832031 208.507812 70.832031 208.507812 69.558594 C 208.507812 68.289062 210.414062 68.289062 210.414062 69.558594 "/>
<path style=" stroke:none;fill-rule:nonzero;fill:rgb(100%,100%,100%);fill-opacity:1;" d="M 327.714844 158.632812 C 327.714844 159.902344 325.808594 159.902344 325.808594 158.632812 C 325.808594 157.359375 327.714844 157.359375 327.714844 158.632812 "/>
<path style=" stroke:none;fill-rule:nonzero;fill:rgb(100%,100%,100%);fill-opacity:1;" d="M 387.796875 351.078125 C 387.796875 352.351562 385.886719 352.351562 385.886719 351.078125 C 385.886719 349.808594 387.796875 349.808594 387.796875 351.078125 "/>
<path style=" stroke:none;fill-rule:nonzero;fill:rgb(100%,100%,100%);fill-opacity:1;" d="M 392.5625 429.28125 C 392.5625 430.550781 390.65625 430.550781 390.65625 429.28125 C 390.65625 428.007812 392.5625 428.007812 392.5625 429.28125 "/>
<path style=" stroke:none;fill-rule:nonzero;fill:rgb(100%,100%,100%);fill-opacity:1;" d="M 424.605469 27.027344 C 424.605469 28.296875 422.699219 28.296875 422.699219 27.027344 C 422.699219 25.753906 424.605469 25.753906 424.605469 27.027344 "/>
<path style=" stroke:none;fill-rule:nonzero;fill:rgb(100%,100%,100%);fill-opacity:1;" d="M 417.742188 245.222656 C 417.742188 246.496094 415.832031 246.496094 415.832031 245.222656 C 415.832031 243.953125 417.742188 243.953125 417.742188 245.222656 "/>
<path style=" stroke:none;fill-rule:nonzero;fill:rgb(100%,100%,100%);fill-opacity:1;" d="M 105.320312 381.40625 C 105.320312 382.675781 103.414062 382.675781 103.414062 381.40625 C 103.414062 380.132812 105.320312 380.132812 105.320312 381.40625 "/>
<path style=" stroke:none;fill-rule:nonzero;fill:rgb(100%,100%,100%);fill-opacity:1;" d="M 340.304688 502.519531 C 340.304688 503.792969 338.394531 503.792969 338.394531 502.519531 C 338.394531 501.25 340.304688 501.25 340.304688 502.519531 "/>
<path style=" stroke:none;fill-rule:nonzero;fill:rgb(100%,100%,100%);fill-opacity:1;" d="M 173.222656 124.109375 C 173.222656 125.378906 171.316406 125.378906 171.316406 124.109375 C 171.316406 122.835938 173.222656 122.835938 173.222656 124.109375 "/>
<path style=" stroke:none;fill-rule:nonzero;fill:rgb(100%,100%,100%);fill-opacity:1;" d="M 485.449219 68.796875 C 485.449219 70.070312 483.542969 70.070312 483.542969 68.796875 C 483.542969 67.527344 485.449219 67.527344 485.449219 68.796875 "/>
<path style=" stroke:none;fill-rule:nonzero;fill:rgb(100%,100%,100%);fill-opacity:1;" d="M 484.304688 141.273438 C 484.304688 142.546875 482.398438 142.546875 482.398438 141.273438 C 482.398438 140.003906 484.304688 140.003906 484.304688 141.273438 "/>
<path style=" stroke:none;fill-rule:nonzero;fill:rgb(100%,100%,100%);fill-opacity:1;" d="M 136.601562 306.066406 C 136.601562 307.339844 134.695312 307.339844 134.695312 306.066406 C 134.695312 304.796875 136.601562 304.796875 136.601562 306.066406 "/>
<path style=" stroke:none;fill-rule:nonzero;fill:rgb(100%,100%,100%);fill-opacity:1;" d="M 104.558594 76.425781 C 104.558594 77.699219 102.652344 77.699219 102.652344 76.425781 C 102.652344 75.15625 104.558594 75.15625 104.558594 76.425781 "/>
<path style=" stroke:none;fill-rule:nonzero;fill:rgb(100%,100%,100%);fill-opacity:1;" d="M 484.304688 495.652344 C 484.304688 496.925781 482.398438 496.925781 482.398438 495.652344 C 482.398438 494.382812 484.304688 494.382812 484.304688 495.652344 "/>
<path style=" stroke:none;fill-rule:nonzero;fill:rgb(100%,100%,100%);fill-opacity:1;" d="M 508.527344 82.71875 C 508.527344 83.992188 506.621094 83.992188 506.621094 82.71875 C 506.621094 81.449219 508.527344 81.449219 508.527344 82.71875 "/>
<path style=" stroke:none;fill-rule:nonzero;fill:rgb(100%,100%,100%);fill-opacity:1;" d="M 425.5625 278.984375 C 425.5625 280.253906 423.652344 280.253906 423.652344 278.984375 C 423.652344 277.710938 425.5625 277.710938 425.5625 278.984375 "/>
<path style=" stroke:none;fill-rule:nonzero;fill:rgb(100%,100%,100%);fill-opacity:1;" d="M 55.730469 494.890625 C 55.730469 496.164062 53.824219 496.164062 53.824219 494.890625 C 53.824219 493.621094 55.730469 493.621094 55.730469 494.890625 "/>
<path style=" stroke:none;fill-rule:nonzero;fill:rgb(100%,100%,100%);fill-opacity:1;" d="M 236.546875 501.757812 C 236.546875 503.03125 234.636719 503.03125 234.636719 501.757812 C 234.636719 500.488281 236.546875 500.488281 236.546875 501.757812 "/>
<path style=" stroke:none;fill-rule:nonzero;fill:rgb(100%,100%,100%);fill-opacity:1;" d="M 267.632812 353.941406 C 267.632812 355.210938 265.726562 355.210938 265.726562 353.941406 C 265.726562 352.667969 267.632812 352.667969 267.632812 353.941406 "/>
<path style=" stroke:none;fill-rule:nonzero;fill:rgb(100%,100%,100%);fill-opacity:1;" d="M 102.269531 64.601562 C 102.269531 65.871094 100.363281 65.871094 100.363281 64.601562 C 100.363281 63.328125 102.269531 63.328125 102.269531 64.601562 "/>
<path style=" stroke:none;fill-rule:nonzero;fill:rgb(100%,100%,100%);fill-opacity:1;" d="M 147.09375 45.910156 C 147.09375 47.179688 145.183594 47.179688 145.183594 45.910156 C 145.183594 44.636719 147.09375 44.636719 147.09375 45.910156 "/>
<path style=" stroke:none;fill-rule:nonzero;fill:rgb(100%,100%,100%);fill-opacity:1;" d="M 417.167969 198.113281 C 417.167969 199.382812 415.261719 199.382812 415.261719 198.113281 C 415.261719 196.839844 417.167969 196.839844 417.167969 198.113281 "/>
<path style=" stroke:none;fill-rule:nonzero;fill:rgb(100%,100%,100%);fill-opacity:1;" d="M 374.445312 414.976562 C 374.445312 416.246094 372.539062 416.246094 372.539062 414.976562 C 372.539062 413.703125 374.445312 413.703125 374.445312 414.976562 "/>
<path style=" stroke:none;fill-rule:nonzero;fill:rgb(100%,100%,100%);fill-opacity:1;" d="M 457.03125 470.667969 C 457.03125 471.941406 455.125 471.941406 455.125 470.667969 C 455.125 469.394531 457.03125 469.394531 457.03125 470.667969 "/>
<path style=" stroke:none;fill-rule:nonzero;fill:rgb(100%,100%,100%);fill-opacity:1;" d="M 298.53125 231.492188 C 298.53125 232.761719 296.625 232.761719 296.625 231.492188 C 296.625 230.21875 298.53125 230.21875 298.53125 231.492188 "/>
<path style=" stroke:none;fill-rule:nonzero;fill:rgb(100%,100%,100%);fill-opacity:1;" d="M 393.519531 337.347656 C 393.519531 338.617188 391.609375 338.617188 391.609375 337.347656 C 391.609375 336.074219 393.519531 336.074219 393.519531 337.347656 "/>
<path style=" stroke:none;fill-rule:nonzero;fill:rgb(100%,100%,100%);fill-opacity:1;" d="M 255.238281 102.175781 C 255.238281 103.445312 253.328125 103.445312 253.328125 102.175781 C 253.328125 100.902344 255.238281 100.902344 255.238281 102.175781 "/>
<path style=" stroke:none;fill-rule:nonzero;fill:rgb(100%,100%,100%);fill-opacity:1;" d="M 191.152344 61.929688 C 191.152344 63.203125 189.246094 63.203125 189.246094 61.929688 C 189.246094 60.660156 191.152344 60.660156 191.152344 61.929688 "/>
<path style=" stroke:none;fill-rule:nonzero;fill:rgb(100%,100%,100%);fill-opacity:1;" d="M 300.820312 290.425781 C 300.820312 291.699219 298.914062 291.699219 298.914062 290.425781 C 298.914062 289.15625 300.820312 289.15625 300.820312 290.425781 "/>
<path style=" stroke:none;fill-rule:nonzero;fill:rgb(100%,100%,100%);fill-opacity:1;" d="M 7.476562 453.3125 C 7.476562 454.582031 5.570312 454.582031 5.570312 453.3125 C 5.570312 452.039062 7.476562 452.039062 7.476562 453.3125 "/>
<path style=" stroke:none;fill-rule:nonzero;fill:rgb(100%,100%,100%);fill-opacity:1;" d="M 432.046875 361.949219 C 432.046875 363.222656 430.136719 363.222656 430.136719 361.949219 C 430.136719 360.679688 432.046875 360.679688 432.046875 361.949219 "/>
<path style=" stroke:none;fill-rule:nonzero;fill:rgb(100%,100%,100%);fill-opacity:1;" d="M 98.074219 384.074219 C 98.074219 385.347656 96.167969 385.347656 96.167969 384.074219 C 96.167969 382.804688 98.074219 382.804688 98.074219 384.074219 "/>
<path style=" stroke:none;fill-rule:nonzero;fill:rgb(100%,100%,100%);fill-opacity:1;" d="M 496.703125 237.785156 C 496.703125 239.054688 494.796875 239.054688 494.796875 237.785156 C 494.796875 236.511719 496.703125 236.511719 496.703125 237.785156 "/>
<path style=" stroke:none;fill-rule:nonzero;fill:rgb(100%,100%,100%);fill-opacity:1;" d="M 476.867188 426.992188 C 476.867188 428.261719 474.960938 428.261719 474.960938 426.992188 C 474.960938 425.71875 476.867188 425.71875 476.867188 426.992188 "/>
<path style=" stroke:none;fill-rule:nonzero;fill:rgb(100%,100%,100%);fill-opacity:1;" d="M 116.957031 24.738281 C 116.957031 26.007812 115.050781 26.007812 115.050781 24.738281 C 115.050781 23.464844 116.957031 23.464844 116.957031 24.738281 "/>
<path style=" stroke:none;fill-rule:nonzero;fill:rgb(100%,100%,100%);fill-opacity:1;" d="M 493.84375 94.546875 C 493.84375 95.816406 491.933594 95.816406 491.933594 94.546875 C 491.933594 93.273438 493.84375 93.273438 493.84375 94.546875 "/>
<path style=" stroke:none;fill-rule:nonzero;fill:rgb(100%,100%,100%);fill-opacity:1;" d="M 496.894531 426.992188 C 496.894531 428.261719 494.988281 428.261719 494.988281 426.992188 C 494.988281 425.71875 496.894531 425.71875 496.894531 426.992188 "/>
<path style=" stroke:none;fill-rule:nonzero;fill:rgb(100%,100%,100%);fill-opacity:1;" d="M 312.648438 287.566406 C 312.648438 288.835938 310.742188 288.835938 310.742188 287.566406 C 310.742188 286.292969 312.648438 286.292969 312.648438 287.566406 "/>
<path style=" stroke:none;fill-rule:nonzero;fill:rgb(100%,100%,100%);fill-opacity:1;" d="M 370.4375 91.683594 C 370.4375 92.957031 368.53125 92.957031 368.53125 91.683594 C 368.53125 90.414062 370.4375 90.414062 370.4375 91.683594 "/>
<path style=" stroke:none;fill-rule:nonzero;fill:rgb(100%,100%,100%);fill-opacity:1;" d="M 285.945312 477.535156 C 285.945312 478.804688 284.039062 478.804688 284.039062 477.535156 C 284.039062 476.261719 285.945312 476.261719 285.945312 477.535156 "/>
<path style=" stroke:none;fill-rule:nonzero;fill:rgb(100%,100%,100%);fill-opacity:1;" d="M 395.425781 374.347656 C 395.425781 375.621094 393.515625 375.621094 393.515625 374.347656 C 393.515625 373.078125 395.425781 373.078125 395.425781 374.347656 "/>
<path style=" stroke:none;fill-rule:nonzero;fill:rgb(100%,100%,100%);fill-opacity:1;" d="M 404.960938 306.066406 C 404.960938 307.339844 403.054688 307.339844 403.054688 306.066406 C 403.054688 304.796875 404.960938 304.796875 404.960938 306.066406 "/>
<path style=" stroke:none;fill-rule:nonzero;fill:rgb(100%,100%,100%);fill-opacity:1;" d="M 312.648438 494.699219 C 312.648438 495.972656 310.742188 495.972656 310.742188 494.699219 C 310.742188 493.429688 312.648438 493.429688 312.648438 494.699219 "/>
<path style=" stroke:none;fill-rule:nonzero;fill:rgb(100%,100%,100%);fill-opacity:1;" d="M 320.085938 342.878906 C 320.085938 344.148438 318.179688 344.148438 318.179688 342.878906 C 318.179688 341.605469 320.085938 341.605469 320.085938 342.878906 "/>
<path style=" stroke:none;fill-rule:nonzero;fill:rgb(100%,100%,100%);fill-opacity:1;" d="M 479.539062 43.8125 C 479.539062 45.082031 477.628906 45.082031 477.628906 43.8125 C 477.628906 42.539062 479.539062 42.539062 479.539062 43.8125 "/>
<path style=" stroke:none;fill-rule:nonzero;fill:rgb(100%,100%,100%);fill-opacity:1;" d="M 5.378906 487.644531 C 5.378906 488.914062 3.472656 488.914062 3.472656 487.644531 C 3.472656 486.371094 5.378906 486.371094 5.378906 487.644531 "/>
<path style=" stroke:none;fill-rule:nonzero;fill:rgb(100%,100%,100%);fill-opacity:1;" d="M 99.21875 82.339844 C 99.21875 83.609375 97.3125 83.609375 97.3125 82.339844 C 97.3125 81.066406 99.21875 81.066406 99.21875 82.339844 "/>
<path style=" stroke:none;fill-rule:nonzero;fill:rgb(100%,100%,100%);fill-opacity:1;" d="M 311.121094 331.816406 C 311.121094 333.085938 309.214844 333.085938 309.214844 331.816406 C 309.214844 330.542969 311.121094 330.542969 311.121094 331.816406 "/>
<path style=" stroke:none;fill-rule:nonzero;fill:rgb(100%,100%,100%);fill-opacity:1;" d="M 284.039062 271.734375 C 284.039062 273.007812 282.128906 273.007812 282.128906 271.734375 C 282.128906 270.464844 284.039062 270.464844 284.039062 271.734375 "/>
<path style=" stroke:none;fill-rule:nonzero;fill:rgb(100%,100%,100%);fill-opacity:1;" d="M 358.804688 274.976562 C 358.804688 276.25 356.898438 276.25 356.898438 274.976562 C 356.898438 273.707031 358.804688 273.707031 358.804688 274.976562 "/>
<path style=" stroke:none;fill-rule:nonzero;fill:rgb(100%,100%,100%);fill-opacity:1;" d="M 445.777344 504.429688 C 445.777344 505.699219 443.871094 505.699219 443.871094 504.429688 C 443.871094 503.15625 445.777344 503.15625 445.777344 504.429688 "/>
<path style=" stroke:none;fill-rule:nonzero;fill:rgb(100%,100%,100%);fill-opacity:1;" d="M 489.648438 55.445312 C 489.648438 56.71875 487.738281 56.71875 487.738281 55.445312 C 487.738281 54.175781 489.648438 54.175781 489.648438 55.445312 "/>
<path style=" stroke:none;fill-rule:nonzero;fill:rgb(100%,100%,100%);fill-opacity:1;" d="M 496.703125 280.699219 C 496.703125 281.972656 494.796875 281.972656 494.796875 280.699219 C 494.796875 279.429688 496.703125 279.429688 496.703125 280.699219 "/>
<path style=" stroke:none;fill-rule:nonzero;fill:rgb(100%,100%,100%);fill-opacity:1;" d="M 463.324219 224.625 C 463.324219 225.898438 461.417969 225.898438 461.417969 224.625 C 461.417969 223.351562 463.324219 223.351562 463.324219 224.625 "/>
<path style=" stroke:none;fill-rule:nonzero;fill:rgb(100%,100%,100%);fill-opacity:1;" d="M 296.625 408.488281 C 296.625 409.761719 294.71875 409.761719 294.71875 408.488281 C 294.71875 407.21875 296.625 407.21875 296.625 408.488281 "/>
<path style=" stroke:none;fill-rule:nonzero;fill:rgb(100%,100%,100%);fill-opacity:1;" d="M 127.636719 383.503906 C 127.636719 384.777344 125.730469 384.777344 125.730469 383.503906 C 125.730469 382.234375 127.636719 382.234375 127.636719 383.503906 "/>
<path style=" stroke:none;fill-rule:nonzero;fill:rgb(100%,100%,100%);fill-opacity:1;" d="M 208.316406 401.433594 C 208.316406 402.703125 206.410156 402.703125 206.410156 401.433594 C 206.410156 400.160156 208.316406 400.160156 208.316406 401.433594 "/>
<path style=" stroke:none;fill-rule:nonzero;fill:rgb(100%,100%,100%);fill-opacity:1;" d="M 375.398438 346.691406 C 375.398438 347.964844 373.492188 347.964844 373.492188 346.691406 C 373.492188 345.421875 375.398438 345.421875 375.398438 346.691406 "/>
<path style=" stroke:none;fill-rule:nonzero;fill:rgb(100%,100%,100%);fill-opacity:1;" d="M 353.464844 68.796875 C 353.464844 70.070312 351.554688 70.070312 351.554688 68.796875 C 351.554688 67.527344 353.464844 67.527344 353.464844 68.796875 "/>
<path style=" stroke:none;fill-rule:nonzero;fill:rgb(100%,100%,100%);fill-opacity:1;" d="M 201.640625 123.917969 C 201.640625 125.191406 199.734375 125.191406 199.734375 123.917969 C 199.734375 122.644531 201.640625 122.644531 201.640625 123.917969 "/>
<path style=" stroke:none;fill-rule:nonzero;fill:rgb(100%,100%,100%);fill-opacity:1;" d="M 277.933594 336.773438 C 277.933594 338.046875 276.027344 338.046875 276.027344 336.773438 C 276.027344 335.503906 277.933594 335.503906 277.933594 336.773438 "/>
<path style=" stroke:none;fill-rule:nonzero;fill:rgb(100%,100%,100%);fill-opacity:1;" d="M 330.957031 342.113281 C 330.957031 343.386719 329.050781 343.386719 329.050781 342.113281 C 329.050781 340.84375 330.957031 340.84375 330.957031 342.113281 "/>
<path style=" stroke:none;fill-rule:nonzero;fill:rgb(100%,100%,100%);fill-opacity:1;" d="M 94.449219 277.457031 C 94.449219 278.730469 92.542969 278.730469 92.542969 277.457031 C 92.542969 276.183594 94.449219 276.183594 94.449219 277.457031 "/>
<path style=" stroke:none;fill-rule:nonzero;fill:rgb(100%,100%,100%);fill-opacity:1;" d="M 144.421875 311.027344 C 144.421875 312.296875 142.515625 312.296875 142.515625 311.027344 C 142.515625 309.753906 144.421875 309.753906 144.421875 311.027344 "/>
<path style=" stroke:none;fill-rule:nonzero;fill:rgb(100%,100%,100%);fill-opacity:1;" d="M 214.992188 169.121094 C 214.992188 170.394531 213.085938 170.394531 213.085938 169.121094 C 213.085938 167.851562 214.992188 167.851562 214.992188 169.121094 "/>
<path style=" stroke:none;fill-rule:nonzero;fill:rgb(100%,100%,100%);fill-opacity:1;" d="M 354.417969 181.710938 C 354.417969 182.980469 352.511719 182.980469 352.511719 181.710938 C 352.511719 180.4375 354.417969 180.4375 354.417969 181.710938 "/>
<path style=" stroke:none;fill-rule:nonzero;fill:rgb(100%,100%,100%);fill-opacity:1;" d="M 411.066406 385.222656 C 411.066406 386.492188 409.15625 386.492188 409.15625 385.222656 C 409.15625 383.949219 411.066406 383.949219 411.066406 385.222656 "/>
<path style=" stroke:none;fill-rule:nonzero;fill:rgb(100%,100%,100%);fill-opacity:1;" d="M 428.992188 362.90625 C 428.992188 364.175781 427.085938 364.175781 427.085938 362.90625 C 427.085938 361.632812 428.992188 361.632812 428.992188 362.90625 "/>
<path style=" stroke:none;fill-rule:nonzero;fill:rgb(100%,100%,100%);fill-opacity:1;" d="M 142.894531 187.050781 C 142.894531 188.324219 140.988281 188.324219 140.988281 187.050781 C 140.988281 185.78125 142.894531 185.78125 142.894531 187.050781 "/>
<path style=" stroke:none;fill-rule:nonzero;fill:rgb(100%,100%,100%);fill-opacity:1;" d="M 316.84375 510.914062 C 316.84375 512.183594 314.9375 512.183594 314.9375 510.914062 C 314.9375 509.640625 316.84375 509.640625 316.84375 510.914062 "/>
<path style=" stroke:none;fill-rule:nonzero;fill:rgb(100%,100%,100%);fill-opacity:1;" d="M 255.617188 170.265625 C 255.617188 171.539062 253.710938 171.539062 253.710938 170.265625 C 253.710938 168.996094 255.617188 168.996094 255.617188 170.265625 "/>
<path style=" stroke:none;fill-rule:nonzero;fill:rgb(100%,100%,100%);fill-opacity:1;" d="M 488.691406 376.445312 C 488.691406 377.71875 486.785156 377.71875 486.785156 376.445312 C 486.785156 375.175781 488.691406 375.175781 488.691406 376.445312 "/>
<path style=" stroke:none;fill-rule:nonzero;fill:rgb(100%,100%,100%);fill-opacity:1;" d="M 202.976562 0.894531 C 202.976562 2.167969 201.070312 2.167969 201.070312 0.894531 C 201.070312 -0.375 202.976562 -0.375 202.976562 0.894531 "/>
<path style=" stroke:none;fill-rule:nonzero;fill:rgb(100%,100%,100%);fill-opacity:1;" d="M 153.003906 124.300781 C 153.003906 125.570312 151.097656 125.570312 151.097656 124.300781 C 151.097656 123.027344 153.003906 123.027344 153.003906 124.300781 "/>
<path style=" stroke:none;fill-rule:nonzero;fill:rgb(100%,100%,100%);fill-opacity:1;" d="M 219.1875 486.308594 C 219.1875 487.578125 217.28125 487.578125 217.28125 486.308594 C 217.28125 485.035156 219.1875 485.035156 219.1875 486.308594 "/>
<path style=" stroke:none;fill-rule:nonzero;fill:rgb(100%,100%,100%);fill-opacity:1;" d="M 309.023438 399.335938 C 309.023438 400.605469 307.117188 400.605469 307.117188 399.335938 C 307.117188 398.0625 309.023438 398.0625 309.023438 399.335938 "/>
<path style=" stroke:none;fill-rule:nonzero;fill:rgb(100%,100%,100%);fill-opacity:1;" d="M 216.710938 193.726562 C 216.710938 194.996094 214.800781 194.996094 214.800781 193.726562 C 214.800781 192.453125 216.710938 192.453125 216.710938 193.726562 "/>
<path style=" stroke:none;fill-rule:nonzero;fill:rgb(100%,100%,100%);fill-opacity:1;" d="M 201.449219 15.964844 C 201.449219 17.234375 199.542969 17.234375 199.542969 15.964844 C 199.542969 14.691406 201.449219 14.691406 201.449219 15.964844 "/>
<path style=" stroke:none;fill-rule:nonzero;fill:rgb(100%,100%,100%);fill-opacity:1;" d="M 401.335938 260.289062 C 401.335938 261.5625 399.429688 261.5625 399.429688 260.289062 C 399.429688 259.019531 401.335938 259.019531 401.335938 260.289062 "/>
<path style=" stroke:none;fill-rule:nonzero;fill:rgb(100%,100%,100%);fill-opacity:1;" d="M 242.078125 246.367188 C 242.078125 247.640625 240.167969 247.640625 240.167969 246.367188 C 240.167969 245.097656 242.078125 245.097656 242.078125 246.367188 "/>
<path style=" stroke:none;fill-rule:nonzero;fill:rgb(100%,100%,100%);fill-opacity:1;" d="M 264.773438 478.296875 C 264.773438 479.570312 262.867188 479.570312 262.867188 478.296875 C 262.867188 477.027344 264.773438 477.027344 264.773438 478.296875 "/>
<path style=" stroke:none;fill-rule:nonzero;fill:rgb(100%,100%,100%);fill-opacity:1;" d="M 312.074219 210.511719 C 312.074219 211.78125 310.167969 211.78125 310.167969 210.511719 C 310.167969 209.238281 312.074219 209.238281 312.074219 210.511719 "/>
<path style=" stroke:none;fill-rule:nonzero;fill:rgb(100%,100%,100%);fill-opacity:1;" d="M 346.214844 494.890625 C 346.214844 496.164062 344.308594 496.164062 344.308594 494.890625 C 344.308594 493.621094 346.214844 493.621094 346.214844 494.890625 "/>
<path style=" stroke:none;fill-rule:nonzero;fill:rgb(100%,100%,100%);fill-opacity:1;" d="M 126.300781 150.238281 C 126.300781 151.511719 124.394531 151.511719 124.394531 150.238281 C 124.394531 148.96875 126.300781 148.96875 126.300781 150.238281 "/>
<path style=" stroke:none;fill-rule:nonzero;fill:rgb(100%,100%,100%);fill-opacity:1;" d="M 378.449219 479.25 C 378.449219 480.523438 376.542969 480.523438 376.542969 479.25 C 376.542969 477.980469 378.449219 477.980469 378.449219 479.25 "/>
<path style=" stroke:none;fill-rule:nonzero;fill:rgb(100%,84.3%,0%);fill-opacity:1;" d="M 84.53125 393.992188 C 84.53125 395.265625 82.625 395.265625 82.625 393.992188 C 82.625 392.722656 84.53125 392.722656 84.53125 393.992188 "/>
<path style=" stroke:none;fill-rule:nonzero;fill:rgb(100%,84.3%,0%);fill-opacity:1;" d="M 39.136719 46.289062 C 39.136719 47.5625 37.230469 47.5625 37.230469 46.289062 C 37.230469 45.019531 39.136719 45.019531 39.136719 46.289062 "/>
<path style=" stroke:none;fill-rule:nonzero;fill:rgb(100%,84.3%,0%);fill-opacity:1;" d="M 83.386719 280.507812 C 83.386719 281.78125 81.480469 281.78125 81.480469 280.507812 C 81.480469 279.238281 83.386719 279.238281 83.386719 280.507812 "/>
<path style=" stroke:none;fill-rule:nonzero;fill:rgb(100%,84.3%,0%);fill-opacity:1;" d="M 49.246094 441.296875 C 49.246094 442.566406 47.339844 442.566406 47.339844 441.296875 C 47.339844 440.023438 49.246094 440.023438 49.246094 441.296875 "/>
<path style=" stroke:none;fill-rule:nonzero;fill:rgb(100%,84.3%,0%);fill-opacity:1;" d="M 14.535156 396.664062 C 14.535156 397.9375 12.625 397.9375 12.625 396.664062 C 12.625 395.394531 14.535156 395.394531 14.535156 396.664062 "/>
<path style=" stroke:none;fill-rule:nonzero;fill:rgb(100%,84.3%,0%);fill-opacity:1;" d="M 15.296875 102.175781 C 15.296875 103.445312 13.390625 103.445312 13.390625 102.175781 C 13.390625 100.902344 15.296875 100.902344 15.296875 102.175781 "/>
<path style=" stroke:none;fill-rule:nonzero;fill:rgb(100%,84.3%,0%);fill-opacity:1;" d="M 74.234375 452.359375 C 74.234375 453.628906 72.324219 453.628906 72.324219 452.359375 C 72.324219 451.085938 74.234375 451.085938 74.234375 452.359375 "/>
<path style=" stroke:none;fill-rule:nonzero;fill:rgb(100%,84.3%,0%);fill-opacity:1;" d="M 17.203125 247.132812 C 17.203125 248.402344 15.296875 248.402344 15.296875 247.132812 C 15.296875 245.859375 17.203125 245.859375 17.203125 247.132812 "/>
<path style=" stroke:none;fill-rule:nonzero;fill:rgb(100%,84.3%,0%);fill-opacity:1;" d="M 34.371094 447.78125 C 34.371094 449.050781 32.460938 449.050781 32.460938 447.78125 C 32.460938 446.507812 34.371094 446.507812 34.371094 447.78125 "/>
<path style=" stroke:none;fill-rule:nonzero;fill:rgb(100%,84.3%,0%);fill-opacity:1;" d="M 82.050781 276.695312 C 82.050781 277.964844 80.144531 277.964844 80.144531 276.695312 C 80.144531 275.421875 82.050781 275.421875 82.050781 276.695312 "/>
<path style=" stroke:none;fill-rule:nonzero;fill:rgb(100%,84.3%,0%);fill-opacity:1;" d="M 78.8125 385.410156 C 78.8125 386.683594 76.902344 386.683594 76.902344 385.410156 C 76.902344 384.140625 78.8125 384.140625 78.8125 385.410156 "/>
<path style=" stroke:none;fill-rule:nonzero;fill:rgb(100%,84.3%,0%);fill-opacity:1;" d="M 81.480469 355.46875 C 81.480469 356.738281 79.574219 356.738281 79.574219 355.46875 C 79.574219 354.195312 81.480469 354.195312 81.480469 355.46875 "/>
<path style=" stroke:none;fill-rule:nonzero;fill:rgb(100%,84.3%,0%);fill-opacity:1;" d="M 59.546875 46.289062 C 59.546875 47.5625 57.640625 47.5625 57.640625 46.289062 C 57.640625 45.019531 59.546875 45.019531 59.546875 46.289062 "/>
<path style=" stroke:none;fill-rule:nonzero;fill:rgb(100%,84.3%,0%);fill-opacity:1;" d="M 78.429688 368.4375 C 78.429688 369.707031 76.519531 369.707031 76.519531 368.4375 C 76.519531 367.164062 78.429688 367.164062 78.429688 368.4375 "/>
<path style=" stroke:none;fill-rule:nonzero;fill:rgb(100%,84.3%,0%);fill-opacity:1;" d="M 84.914062 265.25 C 84.914062 266.523438 83.007812 266.523438 83.007812 265.25 C 83.007812 263.976562 84.914062 263.976562 84.914062 265.25 "/>
<path style=" stroke:none;fill-rule:nonzero;fill:rgb(100%,84.3%,0%);fill-opacity:1;" d="M 84.53125 95.691406 C 84.53125 96.960938 82.625 96.960938 82.625 95.691406 C 82.625 94.417969 84.53125 94.417969 84.53125 95.691406 "/>
<path style=" stroke:none;fill-rule:nonzero;fill:rgb(100%,84.3%,0%);fill-opacity:1;" d="M 76.710938 269.257812 C 76.710938 270.527344 74.804688 270.527344 74.804688 269.257812 C 74.804688 267.984375 76.710938 267.984375 76.710938 269.257812 "/>
<path style=" stroke:none;fill-rule:nonzero;fill:rgb(100%,84.3%,0%);fill-opacity:1;" d="M 22.542969 297.675781 C 22.542969 298.945312 20.636719 298.945312 20.636719 297.675781 C 20.636719 296.402344 22.542969 296.402344 22.542969 297.675781 "/>
<path style=" stroke:none;fill-rule:nonzero;fill:rgb(100%,84.3%,0%);fill-opacity:1;" d="M 72.898438 383.886719 C 72.898438 385.15625 70.992188 385.15625 70.992188 383.886719 C 70.992188 382.613281 72.898438 382.613281 72.898438 383.886719 "/>
<path style=" stroke:none;fill-rule:nonzero;fill:rgb(100%,84.3%,0%);fill-opacity:1;" d="M 38.566406 455.027344 C 38.566406 456.300781 36.660156 456.300781 36.660156 455.027344 C 36.660156 453.757812 38.566406 453.757812 38.566406 455.027344 "/>
<path style=" stroke:none;fill-rule:nonzero;fill:rgb(100%,84.3%,0%);fill-opacity:1;" d="M 14.34375 274.785156 C 14.34375 276.058594 12.433594 276.058594 12.433594 274.785156 C 12.433594 273.515625 14.34375 273.515625 14.34375 274.785156 "/>
<path style=" stroke:none;fill-rule:nonzero;fill:rgb(100%,84.3%,0%);fill-opacity:1;" d="M 72.132812 370.914062 C 72.132812 372.1875 70.226562 372.1875 70.226562 370.914062 C 70.226562 369.644531 72.132812 369.644531 72.132812 370.914062 "/>
<path style=" stroke:none;fill-rule:nonzero;fill:rgb(100%,84.3%,0%);fill-opacity:1;" d="M 69.464844 391.132812 C 69.464844 392.40625 67.558594 392.40625 67.558594 391.132812 C 67.558594 389.863281 69.464844 389.863281 69.464844 391.132812 "/>
<path style=" stroke:none;fill-rule:nonzero;fill:rgb(100%,84.3%,0%);fill-opacity:1;" d="M 19.113281 392.851562 C 19.113281 394.121094 17.203125 394.121094 17.203125 392.851562 C 17.203125 391.578125 19.113281 391.578125 19.113281 392.851562 "/>
<path style=" stroke:none;fill-rule:nonzero;fill:rgb(100%,84.3%,0%);fill-opacity:1;" d="M 43.335938 453.691406 C 43.335938 454.964844 41.425781 454.964844 41.425781 453.691406 C 41.425781 452.421875 43.335938 452.421875 43.335938 453.691406 "/>
<path style=" stroke:none;fill-rule:nonzero;fill:rgb(100%,84.3%,0%);fill-opacity:1;" d="M 42.191406 153.101562 C 42.191406 154.371094 40.28125 154.371094 40.28125 153.101562 C 40.28125 151.828125 42.191406 151.828125 42.191406 153.101562 "/>
<path style=" stroke:none;fill-rule:nonzero;fill:rgb(100%,84.3%,0%);fill-opacity:1;" d="M 11.480469 277.648438 C 11.480469 278.917969 9.574219 278.917969 9.574219 277.648438 C 9.574219 276.375 11.480469 276.375 11.480469 277.648438 "/>
<path style=" stroke:none;fill-rule:nonzero;fill:rgb(100%,84.3%,0%);fill-opacity:1;" d="M 84.53125 309.5 C 84.53125 310.773438 82.625 310.773438 82.625 309.5 C 82.625 308.226562 84.53125 308.226562 84.53125 309.5 "/>
<path style=" stroke:none;fill-rule:nonzero;fill:rgb(100%,84.3%,0%);fill-opacity:1;" d="M 18.730469 49.34375 C 18.730469 50.613281 16.824219 50.613281 16.824219 49.34375 C 16.824219 48.070312 18.730469 48.070312 18.730469 49.34375 "/>
<path style=" stroke:none;fill-rule:nonzero;fill:rgb(100%,84.3%,0%);fill-opacity:1;" d="M 11.292969 65.554688 C 11.292969 66.824219 9.382812 66.824219 9.382812 65.554688 C 9.382812 64.28125 11.292969 64.28125 11.292969 65.554688 "/>
<path style=" stroke:none;fill-rule:nonzero;fill:rgb(100%,84.3%,0%);fill-opacity:1;" d="M 12.816406 169.3125 C 12.816406 170.582031 10.910156 170.582031 10.910156 169.3125 C 10.910156 168.039062 12.816406 168.039062 12.816406 169.3125 "/>
<path style=" stroke:none;fill-rule:nonzero;fill:rgb(100%,84.3%,0%);fill-opacity:1;" d="M 76.332031 286.230469 C 76.332031 287.503906 74.421875 287.503906 74.421875 286.230469 C 74.421875 284.960938 76.332031 284.960938 76.332031 286.230469 "/>
<path style=" stroke:none;fill-rule:nonzero;fill:rgb(100%,84.3%,0%);fill-opacity:1;" d="M 30.746094 278.984375 C 30.746094 280.253906 28.839844 280.253906 28.839844 278.984375 C 28.839844 277.710938 30.746094 277.710938 30.746094 278.984375 "/>
<path style=" stroke:none;fill-rule:nonzero;fill:rgb(100%,84.3%,0%);fill-opacity:1;" d="M 65.839844 280.507812 C 65.839844 281.78125 63.933594 281.78125 63.933594 280.507812 C 63.933594 279.238281 65.839844 279.238281 65.839844 280.507812 "/>
<path style=" stroke:none;fill-rule:nonzero;fill:rgb(100%,84.3%,0%);fill-opacity:1;" d="M 67.746094 377.210938 C 67.746094 378.480469 65.839844 378.480469 65.839844 377.210938 C 65.839844 375.9375 67.746094 375.9375 67.746094 377.210938 "/>
<path style=" stroke:none;fill-rule:nonzero;fill:rgb(100%,84.3%,0%);fill-opacity:1;" d="M 80.527344 251.136719 C 80.527344 252.40625 78.621094 252.40625 78.621094 251.136719 C 78.621094 249.863281 80.527344 249.863281 80.527344 251.136719 "/>
<path style=" stroke:none;fill-rule:nonzero;fill:rgb(100%,84.3%,0%);fill-opacity:1;" d="M 27.882812 398.953125 C 27.882812 400.222656 25.976562 400.222656 25.976562 398.953125 C 25.976562 397.679688 27.882812 397.679688 27.882812 398.953125 "/>
<path style=" stroke:none;fill-rule:nonzero;fill:rgb(100%,84.3%,0%);fill-opacity:1;" d="M 73.277344 255.714844 C 73.277344 256.984375 71.371094 256.984375 71.371094 255.714844 C 71.371094 254.441406 73.277344 254.441406 73.277344 255.714844 "/>
<path style=" stroke:none;fill-rule:nonzero;fill:rgb(100%,84.3%,0%);fill-opacity:1;" d="M 15.105469 352.03125 C 15.105469 353.304688 13.199219 353.304688 13.199219 352.03125 C 13.199219 350.761719 15.105469 350.761719 15.105469 352.03125 "/>
<path style=" stroke:none;fill-rule:nonzero;fill:rgb(100%,84.3%,0%);fill-opacity:1;" d="M 80.71875 64.601562 C 80.71875 65.871094 78.808594 65.871094 78.808594 64.601562 C 78.808594 63.328125 80.71875 63.328125 80.71875 64.601562 "/>
<path style=" stroke:none;fill-rule:nonzero;fill:rgb(100%,84.3%,0%);fill-opacity:1;" d="M 37.992188 179.804688 C 37.992188 181.074219 36.085938 181.074219 36.085938 179.804688 C 36.085938 178.53125 37.992188 178.53125 37.992188 179.804688 "/>
<path style=" stroke:none;fill-rule:nonzero;fill:rgb(100%,84.3%,0%);fill-opacity:1;" d="M 80.71875 425.273438 C 80.71875 426.546875 78.808594 426.546875 78.808594 425.273438 C 78.808594 424.003906 80.71875 424.003906 80.71875 425.273438 "/>
<path style=" stroke:none;fill-rule:nonzero;fill:rgb(100%,84.3%,0%);fill-opacity:1;" d="M 65.078125 107.132812 C 65.078125 108.40625 63.171875 108.40625 63.171875 107.132812 C 63.171875 105.863281 65.078125 105.863281 65.078125 107.132812 "/>
<path style=" stroke:none;fill-rule:nonzero;fill:rgb(100%,84.3%,0%);fill-opacity:1;" d="M 42.570312 316.9375 C 42.570312 318.210938 40.664062 318.210938 40.664062 316.9375 C 40.664062 315.667969 42.570312 315.667969 42.570312 316.9375 "/>
<path style=" stroke:none;fill-rule:nonzero;fill:rgb(100%,84.3%,0%);fill-opacity:1;" d="M 46.578125 58.878906 C 46.578125 60.152344 44.667969 60.152344 44.667969 58.878906 C 44.667969 57.609375 46.578125 57.609375 46.578125 58.878906 "/>
<path style=" stroke:none;fill-rule:nonzero;fill:rgb(100%,84.3%,0%);fill-opacity:1;" d="M 15.488281 408.871094 C 15.488281 410.140625 13.582031 410.140625 13.582031 408.871094 C 13.582031 407.597656 15.488281 407.597656 15.488281 408.871094 "/>
<path style=" stroke:none;fill-rule:nonzero;fill:rgb(100%,84.3%,0%);fill-opacity:1;" d="M 44.097656 314.269531 C 44.097656 315.539062 42.1875 315.539062 42.1875 314.269531 C 42.1875 312.996094 44.097656 312.996094 44.097656 314.269531 "/>
<path style=" stroke:none;fill-rule:nonzero;fill:rgb(100%,84.3%,0%);fill-opacity:1;" d="M 25.785156 63.074219 C 25.785156 64.347656 23.878906 64.347656 23.878906 63.074219 C 23.878906 61.804688 25.785156 61.804688 25.785156 63.074219 "/>
<path style=" stroke:none;fill-rule:nonzero;fill:rgb(100%,84.3%,0%);fill-opacity:1;" d="M 21.972656 338.683594 C 21.972656 339.953125 20.066406 339.953125 20.066406 338.683594 C 20.066406 337.410156 21.972656 337.410156 21.972656 338.683594 "/>
<path style=" stroke:none;fill-rule:nonzero;fill:rgb(100%,84.3%,0%);fill-opacity:1;" d="M 86.628906 211.65625 C 86.628906 212.925781 84.722656 212.925781 84.722656 211.65625 C 84.722656 210.382812 86.628906 210.382812 86.628906 211.65625 "/>
<path style=" stroke:none;fill-rule:nonzero;fill:rgb(100%,84.3%,0%);fill-opacity:1;" d="M 48.867188 338.492188 C 48.867188 339.761719 46.957031 339.761719 46.957031 338.492188 C 46.957031 337.21875 48.867188 337.21875 48.867188 338.492188 "/>
<path style=" stroke:none;fill-rule:nonzero;fill:rgb(100%,84.3%,0%);fill-opacity:1;" d="M 29.410156 306.066406 C 29.410156 307.339844 27.503906 307.339844 27.503906 306.066406 C 27.503906 304.796875 29.410156 304.796875 29.410156 306.066406 "/>
<path style=" stroke:none;fill-rule:nonzero;fill:rgb(100%,84.3%,0%);fill-opacity:1;" d="M 26.933594 191.820312 C 26.933594 193.089844 25.023438 193.089844 25.023438 191.820312 C 25.023438 190.546875 26.933594 190.546875 26.933594 191.820312 "/>
<path style=" stroke:none;fill-rule:nonzero;fill:rgb(100%,84.3%,0%);fill-opacity:1;" d="M 41.617188 226.722656 C 41.617188 227.996094 39.710938 227.996094 39.710938 226.722656 C 39.710938 225.453125 41.617188 225.453125 41.617188 226.722656 "/>
<path style=" stroke:none;fill-rule:nonzero;fill:rgb(100%,84.3%,0%);fill-opacity:1;" d="M 55.160156 440.722656 C 55.160156 441.996094 53.253906 441.996094 53.253906 440.722656 C 53.253906 439.453125 55.160156 439.453125 55.160156 440.722656 "/>
<path style=" stroke:none;fill-rule:nonzero;fill:rgb(100%,84.3%,0%);fill-opacity:1;" d="M 38.375 63.839844 C 38.375 65.109375 36.46875 65.109375 36.46875 63.839844 C 36.46875 62.566406 38.375 62.566406 38.375 63.839844 "/>
<path style=" stroke:none;fill-rule:nonzero;fill:rgb(100%,84.3%,0%);fill-opacity:1;" d="M 86.058594 181.710938 C 86.058594 182.980469 84.148438 182.980469 84.148438 181.710938 C 84.148438 180.4375 86.058594 180.4375 86.058594 181.710938 "/>
<path style=" stroke:none;fill-rule:nonzero;fill:rgb(100%,84.3%,0%);fill-opacity:1;" d="M 52.871094 294.433594 C 52.871094 295.703125 50.964844 295.703125 50.964844 294.433594 C 50.964844 293.160156 52.871094 293.160156 52.871094 294.433594 "/>
<path style=" stroke:none;fill-rule:nonzero;fill:rgb(100%,84.3%,0%);fill-opacity:1;" d="M 40.28125 60.785156 C 40.28125 62.058594 38.375 62.058594 38.375 60.785156 C 38.375 59.515625 40.28125 59.515625 40.28125 60.785156 "/>
<path style=" stroke:none;fill-rule:nonzero;fill:rgb(100%,84.3%,0%);fill-opacity:1;" d="M 53.441406 355.085938 C 53.441406 356.355469 51.535156 356.355469 51.535156 355.085938 C 51.535156 353.8125 53.441406 353.8125 53.441406 355.085938 "/>
<path style=" stroke:none;fill-rule:nonzero;fill:rgb(100%,84.3%,0%);fill-opacity:1;" d="M 27.695312 466.855469 C 27.695312 468.125 25.789062 468.125 25.789062 466.855469 C 25.789062 465.582031 27.695312 465.582031 27.695312 466.855469 "/>
<path style=" stroke:none;fill-rule:nonzero;fill:rgb(100%,84.3%,0%);fill-opacity:1;" d="M 57.449219 370.914062 C 57.449219 372.1875 55.542969 372.1875 55.542969 370.914062 C 55.542969 369.644531 57.449219 369.644531 57.449219 370.914062 "/>
<path style=" stroke:none;fill-rule:nonzero;fill:rgb(100%,84.3%,0%);fill-opacity:1;" d="M 26.359375 46.480469 C 26.359375 47.753906 24.453125 47.753906 24.453125 46.480469 C 24.453125 45.210938 26.359375 45.210938 26.359375 46.480469 "/>
<path style=" stroke:none;fill-rule:nonzero;fill:rgb(100%,84.3%,0%);fill-opacity:1;" d="M 35.894531 402.003906 C 35.894531 403.277344 33.988281 403.277344 33.988281 402.003906 C 33.988281 400.734375 35.894531 400.734375 35.894531 402.003906 "/>
<path style=" stroke:none;fill-rule:nonzero;fill:rgb(100%,84.3%,0%);fill-opacity:1;" d="M 65.457031 424.511719 C 65.457031 425.78125 63.550781 425.78125 63.550781 424.511719 C 63.550781 423.238281 65.457031 423.238281 65.457031 424.511719 "/>
<path style=" stroke:none;fill-rule:nonzero;fill:rgb(100%,84.3%,0%);fill-opacity:1;" d="M 25.785156 436.910156 C 25.785156 438.179688 23.878906 438.179688 23.878906 436.910156 C 23.878906 435.636719 25.785156 435.636719 25.785156 436.910156 "/>
<path style=" stroke:none;fill-rule:nonzero;fill:rgb(100%,84.3%,0%);fill-opacity:1;" d="M 14.726562 85.773438 C 14.726562 87.042969 12.816406 87.042969 12.816406 85.773438 C 12.816406 84.5 14.726562 84.5 14.726562 85.773438 "/>
<path style=" stroke:none;fill-rule:nonzero;fill:rgb(100%,84.3%,0%);fill-opacity:1;" d="M 77.09375 318.847656 C 77.09375 320.117188 75.1875 320.117188 75.1875 318.847656 C 75.1875 317.574219 77.09375 317.574219 77.09375 318.847656 "/>
<path style=" stroke:none;fill-rule:nonzero;fill:rgb(100%,84.3%,0%);fill-opacity:1;" d="M 26.933594 136.886719 C 26.933594 138.160156 25.023438 138.160156 25.023438 136.886719 C 25.023438 135.617188 26.933594 135.617188 26.933594 136.886719 "/>
<path style=" stroke:none;fill-rule:nonzero;fill:rgb(100%,84.3%,0%);fill-opacity:1;" d="M 74.234375 106.5625 C 74.234375 107.832031 72.324219 107.832031 72.324219 106.5625 C 72.324219 105.289062 74.234375 105.289062 74.234375 106.5625 "/>
<path style=" stroke:none;fill-rule:nonzero;fill:rgb(100%,84.3%,0%);fill-opacity:1;" d="M 74.234375 347.457031 C 74.234375 348.726562 72.324219 348.726562 72.324219 347.457031 C 72.324219 346.183594 74.234375 346.183594 74.234375 347.457031 "/>
<path style=" stroke:none;fill-rule:nonzero;fill:rgb(100%,84.3%,0%);fill-opacity:1;" d="M 85.296875 230.917969 C 85.296875 232.191406 83.386719 232.191406 83.386719 230.917969 C 83.386719 229.648438 85.296875 229.648438 85.296875 230.917969 "/>
<path style=" stroke:none;fill-rule:nonzero;fill:rgb(100%,84.3%,0%);fill-opacity:1;" d="M 33.226562 99.503906 C 33.226562 100.777344 31.316406 100.777344 31.316406 99.503906 C 31.316406 98.234375 33.226562 98.234375 33.226562 99.503906 "/>
<path style=" stroke:none;fill-rule:nonzero;fill:rgb(100%,84.3%,0%);fill-opacity:1;" d="M 59.925781 426.992188 C 59.925781 428.261719 58.019531 428.261719 58.019531 426.992188 C 58.019531 425.71875 59.925781 425.71875 59.925781 426.992188 "/>
<path style=" stroke:none;fill-rule:nonzero;fill:rgb(100%,84.3%,0%);fill-opacity:1;" d="M 71.5625 226.148438 C 71.5625 227.421875 69.65625 227.421875 69.65625 226.148438 C 69.65625 224.878906 71.5625 224.878906 71.5625 226.148438 "/>
<path style=" stroke:none;fill-rule:nonzero;fill:rgb(100%,84.3%,0%);fill-opacity:1;" d="M 28.648438 369.960938 C 28.648438 371.234375 26.742188 371.234375 26.742188 369.960938 C 26.742188 368.691406 28.648438 368.691406 28.648438 369.960938 "/>
<path style=" stroke:none;fill-rule:nonzero;fill:rgb(100%,84.3%,0%);fill-opacity:1;" d="M 70.035156 331.625 C 70.035156 332.898438 68.128906 332.898438 68.128906 331.625 C 68.128906 330.351562 70.035156 330.351562 70.035156 331.625 "/>
<path style=" stroke:none;fill-rule:nonzero;fill:rgb(100%,84.3%,0%);fill-opacity:1;" d="M 10.910156 354.703125 C 10.910156 355.976562 9.003906 355.976562 9.003906 354.703125 C 9.003906 353.433594 10.910156 353.433594 10.910156 354.703125 "/>
<path style=" stroke:none;fill-rule:nonzero;fill:rgb(100%,84.3%,0%);fill-opacity:1;" d="M 73.660156 344.023438 C 73.660156 345.292969 71.753906 345.292969 71.753906 344.023438 C 71.753906 342.75 73.660156 342.75 73.660156 344.023438 "/>
<path style=" stroke:none;fill-rule:nonzero;fill:rgb(100%,84.3%,0%);fill-opacity:1;" d="M 59.738281 102.9375 C 59.738281 104.210938 57.828125 104.210938 57.828125 102.9375 C 57.828125 101.667969 59.738281 101.667969 59.738281 102.9375 "/>
<path style=" stroke:none;fill-rule:nonzero;fill:rgb(100%,84.3%,0%);fill-opacity:1;" d="M 85.484375 130.976562 C 85.484375 132.246094 83.578125 132.246094 83.578125 130.976562 C 83.578125 129.703125 85.484375 129.703125 85.484375 130.976562 "/>
<path style=" stroke:none;fill-rule:nonzero;fill:rgb(100%,84.3%,0%);fill-opacity:1;" d="M 45.621094 179.039062 C 45.621094 180.3125 43.714844 180.3125 43.714844 179.039062 C 43.714844 177.769531 45.621094 177.769531 45.621094 179.039062 "/>
<path style=" stroke:none;fill-rule:nonzero;fill:rgb(100%,84.3%,0%);fill-opacity:1;" d="M 48.292969 172.746094 C 48.292969 174.015625 46.386719 174.015625 46.386719 172.746094 C 46.386719 171.472656 48.292969 171.472656 48.292969 172.746094 "/>
<path style=" stroke:none;fill-rule:nonzero;fill:rgb(100%,84.3%,0%);fill-opacity:1;" d="M 31.316406 414.019531 C 31.316406 415.292969 29.410156 415.292969 29.410156 414.019531 C 29.410156 412.75 31.316406 412.75 31.316406 414.019531 "/>
<path style=" stroke:none;fill-rule:nonzero;fill:rgb(100%,84.3%,0%);fill-opacity:1;" d="M 20.445312 429.46875 C 20.445312 430.742188 18.539062 430.742188 18.539062 429.46875 C 18.539062 428.199219 20.445312 428.199219 20.445312 429.46875 "/>
<path style=" stroke:none;fill-rule:nonzero;fill:rgb(100%,84.3%,0%);fill-opacity:1;" d="M 82.242188 319.988281 C 82.242188 321.261719 80.335938 321.261719 80.335938 319.988281 C 80.335938 318.71875 82.242188 318.71875 82.242188 319.988281 "/>
<path style=" stroke:none;fill-rule:nonzero;fill:rgb(100%,84.3%,0%);fill-opacity:1;" d="M 75.1875 197.730469 C 75.1875 199.003906 73.28125 199.003906 73.28125 197.730469 C 73.28125 196.460938 75.1875 196.460938 75.1875 197.730469 "/>
<path style=" stroke:none;fill-rule:nonzero;fill:rgb(100%,84.3%,0%);fill-opacity:1;" d="M 43.335938 156.722656 C 43.335938 157.996094 41.425781 157.996094 41.425781 156.722656 C 41.425781 155.453125 43.335938 155.453125 43.335938 156.722656 "/>
<path style=" stroke:none;fill-rule:nonzero;fill:rgb(100%,84.3%,0%);fill-opacity:1;" d="M 79.953125 428.898438 C 79.953125 430.167969 78.046875 430.167969 78.046875 428.898438 C 78.046875 427.625 79.953125 427.625 79.953125 428.898438 "/>
<path style=" stroke:none;fill-rule:nonzero;fill:rgb(100%,84.3%,0%);fill-opacity:1;" d="M 86.820312 68.988281 C 86.820312 70.257812 84.914062 70.257812 84.914062 68.988281 C 84.914062 67.714844 86.820312 67.714844 86.820312 68.988281 "/>
<path style=" stroke:none;fill-rule:nonzero;fill:rgb(100%,84.3%,0%);fill-opacity:1;" d="M 73.277344 113.617188 C 73.277344 114.890625 71.371094 114.890625 71.371094 113.617188 C 71.371094 112.347656 73.277344 112.347656 73.277344 113.617188 "/>
<path style=" stroke:none;fill-rule:nonzero;fill:rgb(100%,84.3%,0%);fill-opacity:1;" d="M 32.273438 315.414062 C 32.273438 316.683594 30.363281 316.683594 30.363281 315.414062 C 30.363281 314.140625 32.273438 314.140625 32.273438 315.414062 "/>
<path style=" stroke:none;fill-rule:nonzero;fill:rgb(100%,84.3%,0%);fill-opacity:1;" d="M 66.984375 414.210938 C 66.984375 415.484375 65.078125 415.484375 65.078125 414.210938 C 65.078125 412.941406 66.984375 412.941406 66.984375 414.210938 "/>
<path style=" stroke:none;fill-rule:nonzero;fill:rgb(100%,84.3%,0%);fill-opacity:1;" d="M 76.902344 309.5 C 76.902344 310.773438 74.996094 310.773438 74.996094 309.5 C 74.996094 308.226562 76.902344 308.226562 76.902344 309.5 "/>
<path style=" stroke:none;fill-rule:nonzero;fill:rgb(100%,84.3%,0%);fill-opacity:1;" d="M 81.289062 199.449219 C 81.289062 200.71875 79.382812 200.71875 79.382812 199.449219 C 79.382812 198.175781 81.289062 198.175781 81.289062 199.449219 "/>
<path style=" stroke:none;fill-rule:nonzero;fill:rgb(100%,84.3%,0%);fill-opacity:1;" d="M 73.46875 82.71875 C 73.46875 83.992188 71.5625 83.992188 71.5625 82.71875 C 71.5625 81.449219 73.46875 81.449219 73.46875 82.71875 "/>
<path style=" stroke:none;fill-rule:nonzero;fill:rgb(100%,84.3%,0%);fill-opacity:1;" d="M 27.3125 282.035156 C 27.3125 283.304688 25.40625 283.304688 25.40625 282.035156 C 25.40625 280.761719 27.3125 280.761719 27.3125 282.035156 "/>
<path style=" stroke:none;fill-rule:nonzero;fill:rgb(100%,84.3%,0%);fill-opacity:1;" d="M 79.191406 56.210938 C 79.191406 57.480469 77.285156 57.480469 77.285156 56.210938 C 77.285156 54.9375 79.191406 54.9375 79.191406 56.210938 "/>
<path style=" stroke:none;fill-rule:nonzero;fill:rgb(100%,84.3%,0%);fill-opacity:1;" d="M 56.6875 284.515625 C 56.6875 285.785156 54.777344 285.785156 54.777344 284.515625 C 54.777344 283.242188 56.6875 283.242188 56.6875 284.515625 "/>
<path style=" stroke:none;fill-rule:nonzero;fill:rgb(100%,84.3%,0%);fill-opacity:1;" d="M 20.636719 328.765625 C 20.636719 330.035156 18.730469 330.035156 18.730469 328.765625 C 18.730469 327.492188 20.636719 327.492188 20.636719 328.765625 "/>
<path style=" stroke:none;fill-rule:nonzero;fill:rgb(100%,84.3%,0%);fill-opacity:1;" d="M 42.761719 420.125 C 42.761719 421.398438 40.855469 421.398438 40.855469 420.125 C 40.855469 418.851562 42.761719 418.851562 42.761719 420.125 "/>
<path style=" stroke:none;fill-rule:nonzero;fill:rgb(100%,84.3%,0%);fill-opacity:1;" d="M 80.144531 195.0625 C 80.144531 196.332031 78.238281 196.332031 78.238281 195.0625 C 78.238281 193.789062 80.144531 193.789062 80.144531 195.0625 "/>
<path style=" stroke:none;fill-rule:nonzero;fill:rgb(100%,84.3%,0%);fill-opacity:1;" d="M 25.976562 434.429688 C 25.976562 435.699219 24.070312 435.699219 24.070312 434.429688 C 24.070312 433.15625 25.976562 433.15625 25.976562 434.429688 "/>
<path style=" stroke:none;fill-rule:nonzero;fill:rgb(100%,84.3%,0%);fill-opacity:1;" d="M 25.023438 304.160156 C 25.023438 305.429688 23.117188 305.429688 23.117188 304.160156 C 23.117188 302.886719 25.023438 302.886719 25.023438 304.160156 "/>
<path style=" stroke:none;fill-rule:nonzero;fill:rgb(100%,84.3%,0%);fill-opacity:1;" d="M 11.671875 130.023438 C 11.671875 131.292969 9.765625 131.292969 9.765625 130.023438 C 9.765625 128.75 11.671875 128.75 11.671875 130.023438 "/>
<path style=" stroke:none;fill-rule:nonzero;fill:rgb(100%,84.3%,0%);fill-opacity:1;" d="M 76.902344 166.070312 C 76.902344 167.339844 74.996094 167.339844 74.996094 166.070312 C 74.996094 164.796875 76.902344 164.796875 76.902344 166.070312 "/>
<path style=" stroke:none;fill-rule:nonzero;fill:rgb(100%,84.3%,0%);fill-opacity:1;" d="M 19.683594 129.257812 C 19.683594 130.53125 17.777344 130.53125 17.777344 129.257812 C 17.777344 127.988281 19.683594 127.988281 19.683594 129.257812 "/>
<path style=" stroke:none;fill-rule:nonzero;fill:rgb(100%,84.3%,0%);fill-opacity:1;" d="M 23.878906 163.398438 C 23.878906 164.671875 21.972656 164.671875 21.972656 163.398438 C 21.972656 162.128906 23.878906 162.128906 23.878906 163.398438 "/>
<path style=" stroke:none;fill-rule:nonzero;fill:rgb(100%,84.3%,0%);fill-opacity:1;" d="M 75.566406 214.324219 C 75.566406 215.597656 73.660156 215.597656 73.660156 214.324219 C 73.660156 213.054688 75.566406 213.054688 75.566406 214.324219 "/>
<path style=" stroke:none;fill-rule:nonzero;fill:rgb(100%,84.3%,0%);fill-opacity:1;" d="M 29.984375 88.632812 C 29.984375 89.90625 28.074219 89.90625 28.074219 88.632812 C 28.074219 87.363281 29.984375 87.363281 29.984375 88.632812 "/>
<path style=" stroke:none;fill-rule:nonzero;fill:rgb(100%,84.3%,0%);fill-opacity:1;" d="M 21.972656 231.683594 C 21.972656 232.953125 20.066406 232.953125 20.066406 231.683594 C 20.066406 230.410156 21.972656 230.410156 21.972656 231.683594 "/>
<path style=" stroke:none;fill-rule:nonzero;fill:rgb(100%,84.3%,0%);fill-opacity:1;" d="M 14.34375 95.117188 C 14.34375 96.390625 12.433594 96.390625 12.433594 95.117188 C 12.433594 93.847656 14.34375 93.847656 14.34375 95.117188 "/>
<path style=" stroke:none;fill-rule:nonzero;fill:rgb(100%,84.3%,0%);fill-opacity:1;" d="M 25.40625 165.496094 C 25.40625 166.769531 23.5 166.769531 23.5 165.496094 C 23.5 164.226562 25.40625 164.226562 25.40625 165.496094 "/>
<path style=" stroke:none;fill-rule:nonzero;fill:rgb(100%,84.3%,0%);fill-opacity:1;" d="M 21.972656 164.925781 C 21.972656 166.199219 20.066406 166.199219 20.066406 164.925781 C 20.066406 163.65625 21.972656 163.65625 21.972656 164.925781 "/>
<path style=" stroke:none;fill-rule:nonzero;fill:rgb(100%,84.3%,0%);fill-opacity:1;" d="M 23.117188 155.390625 C 23.117188 156.660156 21.210938 156.660156 21.210938 155.390625 C 21.210938 154.117188 23.117188 154.117188 23.117188 155.390625 "/>
<path style=" stroke:none;fill-rule:nonzero;fill:rgb(100%,84.3%,0%);fill-opacity:1;" d="M 36.46875 421.648438 C 36.46875 422.921875 34.558594 422.921875 34.558594 421.648438 C 34.558594 420.378906 36.46875 420.378906 36.46875 421.648438 "/>
<path style=" stroke:none;fill-rule:nonzero;fill:rgb(100%,84.3%,0%);fill-opacity:1;" d="M 59.546875 364.238281 C 59.546875 365.511719 57.640625 365.511719 57.640625 364.238281 C 57.640625 362.96875 59.546875 362.96875 59.546875 364.238281 "/>
<path style=" stroke:none;fill-rule:nonzero;fill:rgb(100%,84.3%,0%);fill-opacity:1;" d="M 51.726562 314.269531 C 51.726562 315.539062 49.820312 315.539062 49.820312 314.269531 C 49.820312 312.996094 51.726562 312.996094 51.726562 314.269531 "/>
<path style=" stroke:none;fill-rule:nonzero;fill:rgb(100%,84.3%,0%);fill-opacity:1;" d="M 17.964844 357.566406 C 17.964844 358.835938 16.058594 358.835938 16.058594 357.566406 C 16.058594 356.292969 17.964844 356.292969 17.964844 357.566406 "/>
<path style=" stroke:none;fill-rule:nonzero;fill:rgb(100%,84.3%,0%);fill-opacity:1;" d="M 21.019531 184.570312 C 21.019531 185.84375 19.113281 185.84375 19.113281 184.570312 C 19.113281 183.300781 21.019531 183.300781 21.019531 184.570312 "/>
<path style=" stroke:none;fill-rule:nonzero;fill:rgb(100%,84.3%,0%);fill-opacity:1;" d="M 66.03125 88.0625 C 66.03125 89.332031 64.125 89.332031 64.125 88.0625 C 64.125 86.789062 66.03125 86.789062 66.03125 88.0625 "/>
<path style=" stroke:none;fill-rule:nonzero;fill:rgb(100%,84.3%,0%);fill-opacity:1;" d="M 27.882812 366.527344 C 27.882812 367.800781 25.976562 367.800781 25.976562 366.527344 C 25.976562 365.257812 27.882812 365.257812 27.882812 366.527344 "/>
<path style=" stroke:none;fill-rule:nonzero;fill:rgb(100%,84.3%,0%);fill-opacity:1;" d="M 67.367188 332.195312 C 67.367188 333.46875 65.460938 333.46875 65.460938 332.195312 C 65.460938 330.925781 67.367188 330.925781 67.367188 332.195312 "/>
<path style=" stroke:none;fill-rule:nonzero;fill:rgb(100%,84.3%,0%);fill-opacity:1;" d="M 19.683594 269.066406 C 19.683594 270.335938 17.777344 270.335938 17.777344 269.066406 C 17.777344 267.792969 19.683594 267.792969 19.683594 269.066406 "/>
<path style=" stroke:none;fill-rule:nonzero;fill:rgb(100%,84.3%,0%);fill-opacity:1;" d="M 20.828125 84.628906 C 20.828125 85.898438 18.921875 85.898438 18.921875 84.628906 C 18.921875 83.355469 20.828125 83.355469 20.828125 84.628906 "/>
<path style=" stroke:none;fill-rule:nonzero;fill:rgb(100%,84.3%,0%);fill-opacity:1;" d="M 35.515625 340.589844 C 35.515625 341.859375 33.605469 341.859375 33.605469 340.589844 C 33.605469 339.316406 35.515625 339.316406 35.515625 340.589844 "/>
<path style=" stroke:none;fill-rule:nonzero;fill:rgb(100%,84.3%,0%);fill-opacity:1;" d="M 26.550781 209.367188 C 26.550781 210.636719 24.640625 210.636719 24.640625 209.367188 C 24.640625 208.09375 26.550781 208.09375 26.550781 209.367188 "/>
<path style=" stroke:none;fill-rule:nonzero;fill:rgb(100%,84.3%,0%);fill-opacity:1;" d="M 43.90625 466.472656 C 43.90625 467.742188 42 467.742188 42 466.472656 C 42 465.199219 43.90625 465.199219 43.90625 466.472656 "/>
<path style=" stroke:none;fill-rule:nonzero;fill:rgb(100%,84.3%,0%);fill-opacity:1;" d="M 42.570312 189.148438 C 42.570312 190.421875 40.664062 190.421875 40.664062 189.148438 C 40.664062 187.878906 42.570312 187.878906 42.570312 189.148438 "/>
<path style=" stroke:none;fill-rule:nonzero;fill:rgb(100%,84.3%,0%);fill-opacity:1;" d="M 54.398438 360.042969 C 54.398438 361.316406 52.488281 361.316406 52.488281 360.042969 C 52.488281 358.773438 54.398438 358.773438 54.398438 360.042969 "/>
<path style=" stroke:none;fill-rule:nonzero;fill:rgb(100%,84.3%,0%);fill-opacity:1;" d="M 61.644531 185.714844 C 61.644531 186.988281 59.738281 186.988281 59.738281 185.714844 C 59.738281 184.445312 61.644531 184.445312 61.644531 185.714844 "/>
<path style=" stroke:none;fill-rule:nonzero;fill:rgb(100%,84.3%,0%);fill-opacity:1;" d="M 65.648438 333.152344 C 65.648438 334.421875 63.742188 334.421875 63.742188 333.152344 C 63.742188 331.878906 65.648438 331.878906 65.648438 333.152344 "/>
<path style=" stroke:none;fill-rule:nonzero;fill:rgb(100%,84.3%,0%);fill-opacity:1;" d="M 62.980469 171.410156 C 62.980469 172.683594 61.074219 172.683594 61.074219 171.410156 C 61.074219 170.140625 62.980469 170.140625 62.980469 171.410156 "/>
<path style=" stroke:none;fill-rule:nonzero;fill:rgb(100%,84.3%,0%);fill-opacity:1;" d="M 43.523438 237.023438 C 43.523438 238.292969 41.617188 238.292969 41.617188 237.023438 C 41.617188 235.75 43.523438 235.75 43.523438 237.023438 "/>
<path style=" stroke:none;fill-rule:nonzero;fill:rgb(100%,84.3%,0%);fill-opacity:1;" d="M 35.894531 84.816406 C 35.894531 86.089844 33.988281 86.089844 33.988281 84.816406 C 33.988281 83.546875 35.894531 83.546875 35.894531 84.816406 "/>
<path style=" stroke:none;fill-rule:nonzero;fill:rgb(100%,84.3%,0%);fill-opacity:1;" d="M 38.375 415.546875 C 38.375 416.820312 36.46875 416.820312 36.46875 415.546875 C 36.46875 414.277344 38.375 414.277344 38.375 415.546875 "/>
<path style=" stroke:none;fill-rule:nonzero;fill:rgb(100%,84.3%,0%);fill-opacity:1;" d="M 84.914062 83.484375 C 84.914062 84.753906 83.007812 84.753906 83.007812 83.484375 C 83.007812 82.210938 84.914062 82.210938 84.914062 83.484375 "/>
<path style=" stroke:none;fill-rule:nonzero;fill:rgb(100%,84.3%,0%);fill-opacity:1;" d="M 12.4375 258.382812 C 12.4375 259.65625 10.527344 259.65625 10.527344 258.382812 C 10.527344 257.113281 12.4375 257.113281 12.4375 258.382812 "/>
<path style=" stroke:none;fill-rule:nonzero;fill:rgb(100%,84.3%,0%);fill-opacity:1;" d="M 39.136719 124.679688 C 39.136719 125.953125 37.230469 125.953125 37.230469 124.679688 C 37.230469 123.410156 39.136719 123.410156 39.136719 124.679688 "/>
<path style=" stroke:none;fill-rule:nonzero;fill:rgb(100%,84.3%,0%);fill-opacity:1;" d="M 49.058594 353.75 C 49.058594 355.023438 47.148438 355.023438 47.148438 353.75 C 47.148438 352.476562 49.058594 352.476562 49.058594 353.75 "/>
<path style=" stroke:none;fill-rule:nonzero;fill:rgb(100%,84.3%,0%);fill-opacity:1;" d="M 40.089844 105.035156 C 40.089844 106.308594 38.183594 106.308594 38.183594 105.035156 C 38.183594 103.765625 40.089844 103.765625 40.089844 105.035156 "/>
<path style=" stroke:none;fill-rule:nonzero;fill:rgb(100%,84.3%,0%);fill-opacity:1;" d="M 45.433594 278.984375 C 45.433594 280.253906 43.523438 280.253906 43.523438 278.984375 C 43.523438 277.710938 45.433594 277.710938 45.433594 278.984375 "/>
<path style=" stroke:none;fill-rule:nonzero;fill:rgb(100%,84.3%,0%);fill-opacity:1;" d="M 67.558594 251.328125 C 67.558594 252.597656 65.648438 252.597656 65.648438 251.328125 C 65.648438 250.054688 67.558594 250.054688 67.558594 251.328125 "/>
<path style=" stroke:none;fill-rule:nonzero;fill:rgb(100%,84.3%,0%);fill-opacity:1;" d="M 21.589844 364.238281 C 21.589844 365.511719 19.683594 365.511719 19.683594 364.238281 C 19.683594 362.96875 21.589844 362.96875 21.589844 364.238281 "/>
<path style=" stroke:none;fill-rule:nonzero;fill:rgb(100%,84.3%,0%);fill-opacity:1;" d="M 74.613281 202.5 C 74.613281 203.773438 72.707031 203.773438 72.707031 202.5 C 72.707031 201.226562 74.613281 201.226562 74.613281 202.5 "/>
<path style=" stroke:none;fill-rule:nonzero;fill:rgb(100%,84.3%,0%);fill-opacity:1;" d="M 84.914062 117.050781 C 84.914062 118.324219 83.007812 118.324219 83.007812 117.050781 C 83.007812 115.78125 84.914062 115.78125 84.914062 117.050781 "/>
<path style=" stroke:none;fill-rule:nonzero;fill:rgb(100%,84.3%,0%);fill-opacity:1;" d="M 33.417969 391.324219 C 33.417969 392.59375 31.507812 392.59375 31.507812 391.324219 C 31.507812 390.050781 33.417969 390.050781 33.417969 391.324219 "/>
<path style=" stroke:none;fill-rule:nonzero;fill:rgb(100%,84.3%,0%);fill-opacity:1;" d="M 68.511719 159.203125 C 68.511719 160.476562 66.601562 160.476562 66.601562 159.203125 C 66.601562 157.933594 68.511719 157.933594 68.511719 159.203125 "/>
<path style=" stroke:none;fill-rule:nonzero;fill:rgb(100%,84.3%,0%);fill-opacity:1;" d="M 50.964844 128.304688 C 50.964844 129.578125 49.054688 129.578125 49.054688 128.304688 C 49.054688 127.035156 50.964844 127.035156 50.964844 128.304688 "/>
<path style=" stroke:none;fill-rule:nonzero;fill:rgb(100%,84.3%,0%);fill-opacity:1;" d="M 71.179688 359.28125 C 71.179688 360.550781 69.273438 360.550781 69.273438 359.28125 C 69.273438 358.007812 71.179688 358.007812 71.179688 359.28125 "/>
<path style=" stroke:none;fill-rule:nonzero;fill:rgb(100%,84.3%,0%);fill-opacity:1;" d="M 85.675781 138.414062 C 85.675781 139.683594 83.769531 139.683594 83.769531 138.414062 C 83.769531 137.140625 85.675781 137.140625 85.675781 138.414062 "/>
<path style=" stroke:none;fill-rule:nonzero;fill:rgb(100%,84.3%,0%);fill-opacity:1;" d="M 70.992188 155.960938 C 70.992188 157.234375 69.082031 157.234375 69.082031 155.960938 C 69.082031 154.691406 70.992188 154.691406 70.992188 155.960938 "/>
<path style=" stroke:none;fill-rule:nonzero;fill:rgb(100%,84.3%,0%);fill-opacity:1;" d="M 27.695312 101.601562 C 27.695312 102.875 25.789062 102.875 25.789062 101.601562 C 25.789062 100.332031 27.695312 100.332031 27.695312 101.601562 "/>
<path style=" stroke:none;fill-rule:nonzero;fill:rgb(100%,84.3%,0%);fill-opacity:1;" d="M 64.316406 322.089844 C 64.316406 323.359375 62.40625 323.359375 62.40625 322.089844 C 62.40625 320.816406 64.316406 320.816406 64.316406 322.089844 "/>
<path style=" stroke:none;fill-rule:nonzero;fill:rgb(100%,84.3%,0%);fill-opacity:1;" d="M 43.90625 66.316406 C 43.90625 67.589844 42 67.589844 42 66.316406 C 42 65.046875 43.90625 65.046875 43.90625 66.316406 "/>
<path style=" stroke:none;fill-rule:nonzero;fill:rgb(100%,84.3%,0%);fill-opacity:1;" d="M 38.757812 343.070312 C 38.757812 344.339844 36.847656 344.339844 36.847656 343.070312 C 36.847656 341.796875 38.757812 341.796875 38.757812 343.070312 "/>
<path style=" stroke:none;fill-rule:nonzero;fill:rgb(100%,84.3%,0%);fill-opacity:1;" d="M 42.378906 299.964844 C 42.378906 301.234375 40.472656 301.234375 40.472656 299.964844 C 40.472656 298.691406 42.378906 298.691406 42.378906 299.964844 "/>
<path style=" stroke:none;fill-rule:nonzero;fill:rgb(100%,84.3%,0%);fill-opacity:1;" d="M 45.050781 229.585938 C 45.050781 230.855469 43.144531 230.855469 43.144531 229.585938 C 43.144531 228.3125 45.050781 228.3125 45.050781 229.585938 "/>
<path style=" stroke:none;fill-rule:nonzero;fill:rgb(100%,84.3%,0%);fill-opacity:1;" d="M 32.082031 348.601562 C 32.082031 349.871094 30.171875 349.871094 30.171875 348.601562 C 30.171875 347.328125 32.082031 347.328125 32.082031 348.601562 "/>
<path style=" stroke:none;fill-rule:nonzero;fill:rgb(100%,84.3%,0%);fill-opacity:1;" d="M 26.742188 345.738281 C 26.742188 347.011719 24.832031 347.011719 24.832031 345.738281 C 24.832031 344.46875 26.742188 344.46875 26.742188 345.738281 "/>
<path style=" stroke:none;fill-rule:nonzero;fill:rgb(100%,84.3%,0%);fill-opacity:1;" d="M 45.621094 461.511719 C 45.621094 462.785156 43.714844 462.785156 43.714844 461.511719 C 43.714844 460.242188 45.621094 460.242188 45.621094 461.511719 "/>
<path style=" stroke:none;fill-rule:nonzero;fill:rgb(100%,84.3%,0%);fill-opacity:1;" d="M 50.964844 166.832031 C 50.964844 168.105469 49.054688 168.105469 49.054688 166.832031 C 49.054688 165.5625 50.964844 165.5625 50.964844 166.832031 "/>
<path style=" stroke:none;fill-rule:nonzero;fill:rgb(100%,84.3%,0%);fill-opacity:1;" d="M 47.148438 198.492188 C 47.148438 199.765625 45.242188 199.765625 45.242188 198.492188 C 45.242188 197.222656 47.148438 197.222656 47.148438 198.492188 "/>
<path style=" stroke:none;fill-rule:nonzero;fill:rgb(100%,84.3%,0%);fill-opacity:1;" d="M 71.753906 454.839844 C 71.753906 456.109375 69.847656 456.109375 69.847656 454.839844 C 69.847656 453.566406 71.753906 453.566406 71.753906 454.839844 "/>
<path style=" stroke:none;fill-rule:nonzero;fill:rgb(100%,84.3%,0%);fill-opacity:1;" d="M 41.808594 286.230469 C 41.808594 287.503906 39.902344 287.503906 39.902344 286.230469 C 39.902344 284.960938 41.808594 284.960938 41.808594 286.230469 "/>
<path style=" stroke:none;fill-rule:nonzero;fill:rgb(100%,84.3%,0%);fill-opacity:1;" d="M 83.769531 138.03125 C 83.769531 139.304688 81.863281 139.304688 81.863281 138.03125 C 81.863281 136.761719 83.769531 136.761719 83.769531 138.03125 "/>
<path style=" stroke:none;fill-rule:nonzero;fill:rgb(100%,84.3%,0%);fill-opacity:1;" d="M 15.296875 373.015625 C 15.296875 374.285156 13.390625 374.285156 13.390625 373.015625 C 13.390625 371.742188 15.296875 371.742188 15.296875 373.015625 "/>
<path style=" stroke:none;fill-rule:nonzero;fill:rgb(100%,84.3%,0%);fill-opacity:1;" d="M 82.050781 144.515625 C 82.050781 145.789062 80.144531 145.789062 80.144531 144.515625 C 80.144531 143.246094 82.050781 143.246094 82.050781 144.515625 "/>
<path style=" stroke:none;fill-rule:nonzero;fill:rgb(100%,84.3%,0%);fill-opacity:1;" d="M 34.941406 181.136719 C 34.941406 182.410156 33.035156 182.410156 33.035156 181.136719 C 33.035156 179.867188 34.941406 179.867188 34.941406 181.136719 "/>
<path style=" stroke:none;fill-rule:nonzero;fill:rgb(100%,84.3%,0%);fill-opacity:1;" d="M 19.492188 86.535156 C 19.492188 87.804688 17.585938 87.804688 17.585938 86.535156 C 17.585938 85.261719 19.492188 85.261719 19.492188 86.535156 "/>
<path style=" stroke:none;fill-rule:nonzero;fill:rgb(100%,84.3%,0%);fill-opacity:1;" d="M 40.855469 156.152344 C 40.855469 157.421875 38.949219 157.421875 38.949219 156.152344 C 38.949219 154.878906 40.855469 154.878906 40.855469 156.152344 "/>
<path style=" stroke:none;fill-rule:nonzero;fill:rgb(100%,84.3%,0%);fill-opacity:1;" d="M 28.265625 240.644531 C 28.265625 241.917969 26.359375 241.917969 26.359375 240.644531 C 26.359375 239.375 28.265625 239.375 28.265625 240.644531 "/>
<path style=" stroke:none;fill-rule:nonzero;fill:rgb(100%,84.3%,0%);fill-opacity:1;" d="M 59.546875 167.785156 C 59.546875 169.058594 57.640625 169.058594 57.640625 167.785156 C 57.640625 166.515625 59.546875 166.515625 59.546875 167.785156 "/>
<path style=" stroke:none;fill-rule:nonzero;fill:rgb(100%,84.3%,0%);fill-opacity:1;" d="M 72.324219 144.328125 C 72.324219 145.597656 70.417969 145.597656 70.417969 144.328125 C 70.417969 143.054688 72.324219 143.054688 72.324219 144.328125 "/>
<path style=" stroke:none;fill-rule:nonzero;fill:rgb(100%,84.3%,0%);fill-opacity:1;" d="M 46.003906 259.910156 C 46.003906 261.179688 44.097656 261.179688 44.097656 259.910156 C 44.097656 258.636719 46.003906 258.636719 46.003906 259.910156 "/>
<path style=" stroke:none;fill-rule:nonzero;fill:rgb(100%,84.3%,0%);fill-opacity:1;" d="M 85.296875 127.925781 C 85.296875 129.195312 83.386719 129.195312 83.386719 127.925781 C 83.386719 126.652344 85.296875 126.652344 85.296875 127.925781 "/>
<path style=" stroke:none;fill-rule:nonzero;fill:rgb(100%,84.3%,0%);fill-opacity:1;" d="M 46.386719 411.351562 C 46.386719 412.621094 44.476562 412.621094 44.476562 411.351562 C 44.476562 410.078125 46.386719 410.078125 46.386719 411.351562 "/>
<path style=" stroke:none;fill-rule:nonzero;fill:rgb(100%,84.3%,0%);fill-opacity:1;" d="M 35.894531 296.722656 C 35.894531 297.992188 33.988281 297.992188 33.988281 296.722656 C 33.988281 295.449219 35.894531 295.449219 35.894531 296.722656 "/>
<path style=" stroke:none;fill-rule:nonzero;fill:rgb(100%,84.3%,0%);fill-opacity:1;" d="M 67.746094 216.613281 C 67.746094 217.886719 65.839844 217.886719 65.839844 216.613281 C 65.839844 215.34375 67.746094 215.34375 67.746094 216.613281 "/>
<path style=" stroke:none;fill-rule:nonzero;fill:rgb(100%,84.3%,0%);fill-opacity:1;" d="M 63.742188 128.304688 C 63.742188 129.578125 61.835938 129.578125 61.835938 128.304688 C 61.835938 127.035156 63.742188 127.035156 63.742188 128.304688 "/>
<path style=" stroke:none;fill-rule:nonzero;fill:rgb(100%,84.3%,0%);fill-opacity:1;" d="M 80.335938 328.765625 C 80.335938 330.035156 78.429688 330.035156 78.429688 328.765625 C 78.429688 327.492188 80.335938 327.492188 80.335938 328.765625 "/>
<path style=" stroke:none;fill-rule:nonzero;fill:rgb(100%,84.3%,0%);fill-opacity:1;" d="M 54.96875 417.265625 C 54.96875 418.535156 53.0625 418.535156 53.0625 417.265625 C 53.0625 415.992188 54.96875 415.992188 54.96875 417.265625 "/>
<path style=" stroke:none;fill-rule:nonzero;fill:rgb(100%,84.3%,0%);fill-opacity:1;" d="M 71.945312 346.882812 C 71.945312 348.15625 70.035156 348.15625 70.035156 346.882812 C 70.035156 345.613281 71.945312 345.613281 71.945312 346.882812 "/>
<path style=" stroke:none;fill-rule:nonzero;fill:rgb(100%,84.3%,0%);fill-opacity:1;" d="M 32.652344 427.183594 C 32.652344 428.453125 30.746094 428.453125 30.746094 427.183594 C 30.746094 425.910156 32.652344 425.910156 32.652344 427.183594 "/>
<path style=" stroke:none;fill-rule:nonzero;fill:rgb(100%,84.3%,0%);fill-opacity:1;" d="M 67.175781 214.132812 C 67.175781 215.40625 65.269531 215.40625 65.269531 214.132812 C 65.269531 212.863281 67.175781 212.863281 67.175781 214.132812 "/>
<path style=" stroke:none;fill-rule:nonzero;fill:rgb(100%,84.3%,0%);fill-opacity:1;" d="M 69.464844 227.296875 C 69.464844 228.566406 67.558594 228.566406 67.558594 227.296875 C 67.558594 226.023438 69.464844 226.023438 69.464844 227.296875 "/>
<path style=" stroke:none;fill-rule:nonzero;fill:rgb(100%,84.3%,0%);fill-opacity:1;" d="M 62.214844 114.761719 C 62.214844 116.035156 60.308594 116.035156 60.308594 114.761719 C 60.308594 113.492188 62.214844 113.492188 62.214844 114.761719 "/>
<path style=" stroke:none;fill-rule:nonzero;fill:rgb(100%,84.3%,0%);fill-opacity:1;" d="M 48.484375 265.441406 C 48.484375 266.710938 46.578125 266.710938 46.578125 265.441406 C 46.578125 264.167969 48.484375 264.167969 48.484375 265.441406 "/>
<path style=" stroke:none;fill-rule:nonzero;fill:rgb(100%,84.3%,0%);fill-opacity:1;" d="M 58.019531 173.128906 C 58.019531 174.398438 56.113281 174.398438 56.113281 173.128906 C 56.113281 171.855469 58.019531 171.855469 58.019531 173.128906 "/>
<path style=" stroke:none;fill-rule:nonzero;fill:rgb(100%,84.3%,0%);fill-opacity:1;" d="M 51.34375 223.480469 C 51.34375 224.75 49.4375 224.75 49.4375 223.480469 C 49.4375 222.207031 51.34375 222.207031 51.34375 223.480469 "/>
<path style=" stroke:none;fill-rule:nonzero;fill:rgb(100%,84.3%,0%);fill-opacity:1;" d="M 39.519531 323.613281 C 39.519531 324.886719 37.613281 324.886719 37.613281 323.613281 C 37.613281 322.34375 39.519531 322.34375 39.519531 323.613281 "/>
<path style=" stroke:none;fill-rule:nonzero;fill:rgb(100%,84.3%,0%);fill-opacity:1;" d="M 12.246094 239.503906 C 12.246094 240.773438 10.335938 240.773438 10.335938 239.503906 C 10.335938 238.230469 12.246094 238.230469 12.246094 239.503906 "/>
<path style=" stroke:none;fill-rule:nonzero;fill:rgb(100%,84.3%,0%);fill-opacity:1;" d="M 42 239.503906 C 42 240.773438 40.089844 240.773438 40.089844 239.503906 C 40.089844 238.230469 42 238.230469 42 239.503906 "/>
<path style=" stroke:none;fill-rule:nonzero;fill:rgb(100%,84.3%,0%);fill-opacity:1;" d="M 42 357.183594 C 42 358.453125 40.089844 358.453125 40.089844 357.183594 C 40.089844 355.910156 42 355.910156 42 357.183594 "/>
<path style=" stroke:none;fill-rule:nonzero;fill:rgb(100%,84.3%,0%);fill-opacity:1;" d="M 33.035156 143.5625 C 33.035156 144.835938 31.128906 144.835938 31.128906 143.5625 C 31.128906 142.292969 33.035156 142.292969 33.035156 143.5625 "/>
<path style=" stroke:none;fill-rule:nonzero;fill:rgb(100%,84.3%,0%);fill-opacity:1;" d="M 57.257812 165.6875 C 57.257812 166.960938 55.351562 166.960938 55.351562 165.6875 C 55.351562 164.417969 57.257812 164.417969 57.257812 165.6875 "/>
<path style=" stroke:none;fill-rule:nonzero;fill:rgb(100%,84.3%,0%);fill-opacity:1;" d="M 43.335938 219.285156 C 43.335938 220.554688 41.425781 220.554688 41.425781 219.285156 C 41.425781 218.011719 43.335938 218.011719 43.335938 219.285156 "/>
<path style=" stroke:none;fill-rule:nonzero;fill:rgb(100%,84.3%,0%);fill-opacity:1;" d="M 45.8125 367.292969 C 45.8125 368.5625 43.90625 368.5625 43.90625 367.292969 C 43.90625 366.019531 45.8125 366.019531 45.8125 367.292969 "/>
<path style=" stroke:none;fill-rule:nonzero;fill:rgb(100%,84.3%,0%);fill-opacity:1;" d="M 35.515625 290.808594 C 35.515625 292.082031 33.605469 292.082031 33.605469 290.808594 C 33.605469 289.539062 35.515625 289.539062 35.515625 290.808594 "/>
<path style=" stroke:none;fill-rule:nonzero;fill:rgb(100%,84.3%,0%);fill-opacity:1;" d="M 45.050781 318.847656 C 45.050781 320.117188 43.144531 320.117188 43.144531 318.847656 C 43.144531 317.574219 45.050781 317.574219 45.050781 318.847656 "/>
<path style=" stroke:none;fill-rule:nonzero;fill:rgb(100%,84.3%,0%);fill-opacity:1;" d="M 82.625 314.460938 C 82.625 315.730469 80.71875 315.730469 80.71875 314.460938 C 80.71875 313.1875 82.625 313.1875 82.625 314.460938 "/>
<path style=" stroke:none;fill-rule:nonzero;fill:rgb(100%,84.3%,0%);fill-opacity:1;" d="M 26.167969 232.824219 C 26.167969 234.097656 24.261719 234.097656 24.261719 232.824219 C 24.261719 231.554688 26.167969 231.554688 26.167969 232.824219 "/>
<path style=" stroke:none;fill-rule:nonzero;fill:rgb(100%,84.3%,0%);fill-opacity:1;" d="M 28.839844 155.578125 C 28.839844 156.851562 26.929688 156.851562 26.929688 155.578125 C 26.929688 154.308594 28.839844 154.308594 28.839844 155.578125 "/>
<path style=" stroke:none;fill-rule:nonzero;fill:rgb(100%,84.3%,0%);fill-opacity:1;" d="M 10.910156 201.738281 C 10.910156 203.007812 9.003906 203.007812 9.003906 201.738281 C 9.003906 200.464844 10.910156 200.464844 10.910156 201.738281 "/>
<path style=" stroke:none;fill-rule:nonzero;fill:rgb(100%,84.3%,0%);fill-opacity:1;" d="M 49.058594 381.214844 C 49.058594 382.488281 47.148438 382.488281 47.148438 381.214844 C 47.148438 379.945312 49.058594 379.945312 49.058594 381.214844 "/>
<path style=" stroke:none;fill-rule:nonzero;fill:rgb(100%,84.3%,0%);fill-opacity:1;" d="M 24.453125 75.855469 C 24.453125 77.125 22.542969 77.125 22.542969 75.855469 C 22.542969 74.582031 24.453125 74.582031 24.453125 75.855469 "/>
</g>
</svg>
