<?xml version="1.0" encoding="UTF-8"?>
<svg xmlns="http://www.w3.org/2000/svg" xmlns:xlink="http://www.w3.org/1999/xlink" width="512pt" height="512pt" viewBox="0 0 512 512" version="1.1">
<g id="surface41">
<path style=" stroke:none;fill-rule:nonzero;fill:rgb(26.7%,26.7%,26.7%);fill-opacity:1;" d="M 32 0 L 480 0 L 480 512 L 32 512 Z M 32 0 "/>
<path style=" stroke:none;fill-rule:nonzero;fill:rgb(19.2%,38.8%,66.7%);fill-opacity:1;" d="M 69.332031 42.667969 L 442.667969 42.667969 L 442.667969 469.332031 L 69.332031 469.332031 Z M 69.332031 42.667969 "/>
<path style=" stroke:none;fill-rule:nonzero;fill:rgb(100%,100%,100%);fill-opacity:1;" d="M 412.800781 8.53125 C 412.800781 14.425781 408.023438 19.199219 402.132812 19.199219 C 396.242188 19.199219 391.464844 14.425781 391.464844 8.53125 C 391.464844 2.640625 396.242188 -2.132812 402.132812 -2.132812 C 408.023438 -2.132812 412.800781 2.640625 412.800781 8.53125 "/>
<path style=" stroke:none;fill-rule:nonzero;fill:rgb(100%,100%,100%);fill-opacity:1;" d="M 459.734375 238.933594 C 459.734375 244.824219 454.957031 249.601562 449.066406 249.601562 C 443.175781 249.601562 438.398438 244.824219 438.398438 238.933594 C 438.398438 233.042969 443.175781 228.265625 449.066406 228.265625 C 454.957031 228.265625 459.734375 233.042969 459.734375 238.933594 "/>
<path style=" stroke:none;fill-rule:nonzero;fill:rgb(100%,100%,100%);fill-opacity:1;" d="M 468.265625 264.53125 C 468.265625 270.425781 463.492188 275.199219 457.601562 275.199219 C 451.707031 275.199219 446.933594 270.425781 446.933594 264.53125 C 446.933594 258.640625 451.707031 253.867188 457.601562 253.867188 C 463.492188 253.867188 468.265625 258.640625 468.265625 264.53125 "/>
<path style=" stroke:none;fill-rule:nonzero;fill:rgb(100%,100%,100%);fill-opacity:1;" d="M 242.132812 -8.53125 C 242.132812 -2.640625 237.359375 2.132812 231.46875 2.132812 C 225.574219 2.132812 220.800781 -2.640625 220.800781 -8.53125 C 220.800781 -14.425781 225.574219 -19.199219 231.46875 -19.199219 C 237.359375 -19.199219 242.132812 -14.425781 242.132812 -8.53125 "/>
<path style=" stroke:none;fill-rule:nonzero;fill:rgb(100%,100%,100%);fill-opacity:1;" d="M 35.199219 215.46875 C 35.199219 221.359375 30.425781 226.132812 24.53125 226.132812 C 18.640625 226.132812 13.867188 221.359375 13.867188 215.46875 C 13.867188 209.574219 18.640625 204.800781 24.53125 204.800781 C 30.425781 204.800781 35.199219 209.574219 35.199219 215.46875 "/>
<path style=" stroke:none;fill-rule:nonzero;fill:rgb(100%,100%,100%);fill-opacity:1;" d="M 500.265625 46.933594 C 500.265625 52.824219 495.492188 57.601562 489.601562 57.601562 C 483.707031 57.601562 478.933594 52.824219 478.933594 46.933594 C 478.933594 41.042969 483.707031 36.265625 489.601562 36.265625 C 495.492188 36.265625 500.265625 41.042969 500.265625 46.933594 "/>
<path style=" stroke:none;fill-rule:nonzero;fill:rgb(100%,100%,100%);fill-opacity:1;" d="M 478.933594 12.800781 C 478.933594 18.691406 474.15625 23.464844 468.265625 23.464844 C 462.375 23.464844 457.601562 18.691406 457.601562 12.800781 C 457.601562 6.910156 462.375 2.132812 468.265625 2.132812 C 474.15625 2.132812 478.933594 6.910156 478.933594 12.800781 "/>
<path style=" stroke:none;fill-rule:nonzero;fill:rgb(100%,100%,100%);fill-opacity:1;" d="M 137.601562 19.199219 C 137.601562 25.089844 132.824219 29.867188 126.933594 29.867188 C 121.042969 29.867188 116.265625 25.089844 116.265625 19.199219 C 116.265625 13.308594 121.042969 8.535156 126.933594 8.535156 C 132.824219 8.535156 137.601562 13.308594 137.601562 19.199219 "/>
<path style=" stroke:none;fill-rule:nonzero;fill:rgb(100%,100%,100%);fill-opacity:1;" d="M 37.332031 6.398438 C 37.332031 12.292969 32.558594 17.066406 26.667969 17.066406 C 20.777344 17.066406 16 12.292969 16 6.398438 C 16 0.507812 20.777344 -4.265625 26.667969 -4.265625 C 32.558594 -4.265625 37.332031 0.507812 37.332031 6.398438 "/>
<path style=" stroke:none;fill-rule:nonzero;fill:rgb(100%,100%,100%);fill-opacity:1;" d="M 69.332031 260.265625 C 69.332031 266.15625 64.558594 270.933594 58.667969 270.933594 C 52.777344 270.933594 48 266.15625 48 260.265625 C 48 254.375 52.777344 249.601562 58.667969 249.601562 C 64.558594 249.601562 69.332031 254.375 69.332031 260.265625 "/>
<path style=" stroke:none;fill-rule:nonzero;fill:rgb(100%,100%,100%);fill-opacity:1;" d="M 82.132812 8.53125 C 82.132812 14.425781 77.359375 19.199219 71.46875 19.199219 C 65.574219 19.199219 60.800781 14.425781 60.800781 8.53125 C 60.800781 2.640625 65.574219 -2.132812 71.46875 -2.132812 C 77.359375 -2.132812 82.132812 2.640625 82.132812 8.53125 "/>
<path style=" stroke:none;fill-rule:nonzero;fill:rgb(100%,100%,100%);fill-opacity:1;" d="M 468.265625 437.332031 C 468.265625 443.222656 463.492188 448 457.601562 448 C 451.707031 448 446.933594 443.222656 446.933594 437.332031 C 446.933594 431.441406 451.707031 426.667969 457.601562 426.667969 C 463.492188 426.667969 468.265625 431.441406 468.265625 437.332031 "/>
<path style=" stroke:none;fill-rule:nonzero;fill:rgb(100%,100%,100%);fill-opacity:1;" d="M 498.132812 326.398438 C 498.132812 332.292969 493.359375 337.066406 487.46875 337.066406 C 481.574219 337.066406 476.800781 332.292969 476.800781 326.398438 C 476.800781 320.507812 481.574219 315.734375 487.46875 315.734375 C 493.359375 315.734375 498.132812 320.507812 498.132812 326.398438 "/>
<path style=" stroke:none;fill-rule:nonzero;fill:rgb(100%,100%,100%);fill-opacity:1;" d="M 461.867188 326.398438 C 461.867188 332.292969 457.089844 337.066406 451.199219 337.066406 C 445.308594 337.066406 440.535156 332.292969 440.535156 326.398438 C 440.535156 320.507812 445.308594 315.734375 451.199219 315.734375 C 457.089844 315.734375 461.867188 320.507812 461.867188 326.398438 "/>
<path style=" stroke:none;fill-rule:nonzero;fill:rgb(100%,100%,100%);fill-opacity:1;" d="M 485.332031 -2.132812 C 485.332031 3.757812 480.558594 8.535156 474.667969 8.535156 C 468.777344 8.535156 464 3.757812 464 -2.132812 C 464 -8.023438 468.777344 -12.800781 474.667969 -12.800781 C 480.558594 -12.800781 485.332031 -8.023438 485.332031 -2.132812 "/>
<path style=" stroke:none;fill-rule:nonzero;fill:rgb(100%,84.3%,0%);fill-opacity:1;" d="M 265.601562 285.867188 C 265.601562 291.757812 260.824219 296.535156 254.933594 296.535156 C 249.042969 296.535156 244.265625 291.757812 244.265625 285.867188 C 244.265625 279.976562 249.042969 275.199219 254.933594 275.199219 C 260.824219 275.199219 265.601562 279.976562 265.601562 285.867188 "/>
<path style=" stroke:none;fill-rule:nonzero;fill:rgb(100%,84.3%,0%);fill-opacity:1;" d="M 231.464844 352 C 231.464844 357.890625 226.691406 362.667969 220.800781 362.667969 C 214.910156 362.667969 210.132812 357.890625 210.132812 352 C 210.132812 346.109375 214.910156 341.332031 220.800781 341.332031 C 226.691406 341.332031 231.464844 346.109375 231.464844 352 "/>
<path style=" stroke:none;fill-rule:nonzero;fill:rgb(100%,84.3%,0%);fill-opacity:1;" d="M 252.800781 228.265625 C 252.800781 234.15625 248.023438 238.933594 242.132812 238.933594 C 236.242188 238.933594 231.464844 234.15625 231.464844 228.265625 C 231.464844 222.375 236.242188 217.601562 242.132812 217.601562 C 248.023438 217.601562 252.800781 222.375 252.800781 228.265625 "/>
<path style=" stroke:none;fill-rule:nonzero;fill:rgb(100%,84.3%,0%);fill-opacity:1;" d="M 122.667969 256 C 122.667969 261.890625 117.890625 266.667969 112 266.667969 C 106.109375 266.667969 101.332031 261.890625 101.332031 256 C 101.332031 250.109375 106.109375 245.332031 112 245.332031 C 117.890625 245.332031 122.667969 250.109375 122.667969 256 "/>
<path style=" stroke:none;fill-rule:nonzero;fill:rgb(100%,84.3%,0%);fill-opacity:1;" d="M 380.800781 371.199219 C 380.800781 377.089844 376.023438 381.867188 370.132812 381.867188 C 364.242188 381.867188 359.464844 377.089844 359.464844 371.199219 C 359.464844 365.308594 364.242188 360.535156 370.132812 360.535156 C 376.023438 360.535156 380.800781 365.308594 380.800781 371.199219 "/>
<path style=" stroke:none;fill-rule:nonzero;fill:rgb(100%,84.3%,0%);fill-opacity:1;" d="M 316.800781 369.066406 C 316.800781 374.957031 312.023438 379.734375 306.132812 379.734375 C 300.242188 379.734375 295.464844 374.957031 295.464844 369.066406 C 295.464844 363.175781 300.242188 358.398438 306.132812 358.398438 C 312.023438 358.398438 316.800781 363.175781 316.800781 369.066406 "/>
<path style=" stroke:none;fill-rule:nonzero;fill:rgb(100%,84.3%,0%);fill-opacity:1;" d="M 254.933594 85.332031 C 254.933594 91.222656 250.15625 96 244.265625 96 C 238.375 96 233.601562 91.222656 233.601562 85.332031 C 233.601562 79.441406 238.375 74.667969 244.265625 74.667969 C 250.15625 74.667969 254.933594 79.441406 254.933594 85.332031 "/>
<path style=" stroke:none;fill-rule:nonzero;fill:rgb(100%,84.3%,0%);fill-opacity:1;" d="M 178.132812 83.199219 C 178.132812 89.089844 173.359375 93.867188 167.46875 93.867188 C 161.574219 93.867188 156.800781 89.089844 156.800781 83.199219 C 156.800781 77.308594 161.574219 72.535156 167.46875 72.535156 C 173.359375 72.535156 178.132812 77.308594 178.132812 83.199219 "/>
<path style=" stroke:none;fill-rule:nonzero;fill:rgb(100%,84.3%,0%);fill-opacity:1;" d="M 325.332031 398.933594 C 325.332031 404.824219 320.558594 409.601562 314.667969 409.601562 C 308.777344 409.601562 304 404.824219 304 398.933594 C 304 393.042969 308.777344 388.265625 314.667969 388.265625 C 320.558594 388.265625 325.332031 393.042969 325.332031 398.933594 "/>
<path style=" stroke:none;fill-rule:nonzero;fill:rgb(100%,84.3%,0%);fill-opacity:1;" d="M 286.933594 83.199219 C 286.933594 89.089844 282.15625 93.867188 276.265625 93.867188 C 270.375 93.867188 265.601562 89.089844 265.601562 83.199219 C 265.601562 77.308594 270.375 72.535156 276.265625 72.535156 C 282.15625 72.535156 286.933594 77.308594 286.933594 83.199219 "/>
<path style=" stroke:none;fill-rule:nonzero;fill:rgb(100%,84.3%,0%);fill-opacity:1;" d="M 131.199219 398.933594 C 131.199219 404.824219 126.425781 409.601562 120.53125 409.601562 C 114.640625 409.601562 109.867188 404.824219 109.867188 398.933594 C 109.867188 393.042969 114.640625 388.265625 120.53125 388.265625 C 126.425781 388.265625 131.199219 393.042969 131.199219 398.933594 "/>
<path style=" stroke:none;fill-rule:nonzero;fill:rgb(100%,84.3%,0%);fill-opacity:1;" d="M 222.933594 128 C 222.933594 133.890625 218.15625 138.667969 212.265625 138.667969 C 206.375 138.667969 201.601562 133.890625 201.601562 128 C 201.601562 122.109375 206.375 117.332031 212.265625 117.332031 C 218.15625 117.332031 222.933594 122.109375 222.933594 128 "/>
<path style=" stroke:none;fill-rule:nonzero;fill:rgb(100%,84.3%,0%);fill-opacity:1;" d="M 348.800781 418.132812 C 348.800781 424.023438 344.023438 428.800781 338.132812 428.800781 C 332.242188 428.800781 327.464844 424.023438 327.464844 418.132812 C 327.464844 412.242188 332.242188 407.464844 338.132812 407.464844 C 344.023438 407.464844 348.800781 412.242188 348.800781 418.132812 "/>
<path style=" stroke:none;fill-rule:nonzero;fill:rgb(100%,84.3%,0%);fill-opacity:1;" d="M 321.066406 196.265625 C 321.066406 202.15625 316.292969 206.933594 310.398438 206.933594 C 304.507812 206.933594 299.734375 202.15625 299.734375 196.265625 C 299.734375 190.375 304.507812 185.601562 310.398438 185.601562 C 316.292969 185.601562 321.066406 190.375 321.066406 196.265625 "/>
<path style=" stroke:none;fill-rule:nonzero;fill:rgb(100%,84.3%,0%);fill-opacity:1;" d="M 231.464844 413.867188 C 231.464844 419.757812 226.691406 424.535156 220.800781 424.535156 C 214.910156 424.535156 210.132812 419.757812 210.132812 413.867188 C 210.132812 407.976562 214.910156 403.199219 220.800781 403.199219 C 226.691406 403.199219 231.464844 407.976562 231.464844 413.867188 "/>
<path style=" stroke:none;fill-rule:nonzero;fill:rgb(100%,84.3%,0%);fill-opacity:1;" d="M 214.398438 379.734375 C 214.398438 385.625 209.625 390.398438 203.734375 390.398438 C 197.84375 390.398438 193.066406 385.625 193.066406 379.734375 C 193.066406 373.84375 197.84375 369.066406 203.734375 369.066406 C 209.625 369.066406 214.398438 373.84375 214.398438 379.734375 "/>
<path style=" stroke:none;fill-rule:nonzero;fill:rgb(100%,84.3%,0%);fill-opacity:1;" d="M 427.734375 100.265625 C 427.734375 106.15625 422.957031 110.933594 417.066406 110.933594 C 411.175781 110.933594 406.398438 106.15625 406.398438 100.265625 C 406.398438 94.375 411.175781 89.601562 417.066406 89.601562 C 422.957031 89.601562 427.734375 94.375 427.734375 100.265625 "/>
<path style=" stroke:none;fill-rule:nonzero;fill:rgb(100%,84.3%,0%);fill-opacity:1;" d="M 412.800781 258.132812 C 412.800781 264.023438 408.023438 268.800781 402.132812 268.800781 C 396.242188 268.800781 391.464844 264.023438 391.464844 258.132812 C 391.464844 252.242188 396.242188 247.464844 402.132812 247.464844 C 408.023438 247.464844 412.800781 252.242188 412.800781 258.132812 "/>
<path style=" stroke:none;fill-rule:nonzero;fill:rgb(100%,84.3%,0%);fill-opacity:1;" d="M 340.265625 213.332031 C 340.265625 219.222656 335.492188 224 329.601562 224 C 323.707031 224 318.933594 219.222656 318.933594 213.332031 C 318.933594 207.441406 323.707031 202.667969 329.601562 202.667969 C 335.492188 202.667969 340.265625 207.441406 340.265625 213.332031 "/>
<path style=" stroke:none;fill-rule:nonzero;fill:rgb(100%,84.3%,0%);fill-opacity:1;" d="M 327.464844 108.800781 C 327.464844 114.691406 322.691406 119.464844 316.800781 119.464844 C 310.910156 119.464844 306.132812 114.691406 306.132812 108.800781 C 306.132812 102.910156 310.910156 98.132812 316.800781 98.132812 C 322.691406 98.132812 327.464844 102.910156 327.464844 108.800781 "/>
<path style=" stroke:none;fill-rule:nonzero;fill:rgb(100%,84.3%,0%);fill-opacity:1;" d="M 355.199219 448 C 355.199219 453.890625 350.425781 458.667969 344.53125 458.667969 C 338.640625 458.667969 333.867188 453.890625 333.867188 448 C 333.867188 442.109375 338.640625 437.332031 344.53125 437.332031 C 350.425781 437.332031 355.199219 442.109375 355.199219 448 "/>
<path style=" stroke:none;fill-rule:nonzero;fill:rgb(100%,84.3%,0%);fill-opacity:1;" d="M 101.332031 249.601562 C 101.332031 255.492188 96.558594 260.265625 90.667969 260.265625 C 84.777344 260.265625 80 255.492188 80 249.601562 C 80 243.707031 84.777344 238.933594 90.667969 238.933594 C 96.558594 238.933594 101.332031 243.707031 101.332031 249.601562 "/>
<path style=" stroke:none;fill-rule:nonzero;fill:rgb(100%,84.3%,0%);fill-opacity:1;" d="M 395.734375 183.46875 C 395.734375 189.359375 390.957031 194.132812 385.066406 194.132812 C 379.175781 194.132812 374.398438 189.359375 374.398438 183.46875 C 374.398438 177.574219 379.175781 172.800781 385.066406 172.800781 C 390.957031 172.800781 395.734375 177.574219 395.734375 183.46875 "/>
<path style=" stroke:none;fill-rule:nonzero;fill:rgb(100%,84.3%,0%);fill-opacity:1;" d="M 109.867188 219.734375 C 109.867188 225.625 105.089844 230.398438 99.199219 230.398438 C 93.308594 230.398438 88.535156 225.625 88.535156 219.734375 C 88.535156 213.84375 93.308594 209.066406 99.199219 209.066406 C 105.089844 209.066406 109.867188 213.84375 109.867188 219.734375 "/>
<path style=" stroke:none;fill-rule:nonzero;fill:rgb(100%,84.3%,0%);fill-opacity:1;" d="M 370.132812 96 C 370.132812 101.890625 365.359375 106.667969 359.46875 106.667969 C 353.574219 106.667969 348.800781 101.890625 348.800781 96 C 348.800781 90.109375 353.574219 85.332031 359.46875 85.332031 C 365.359375 85.332031 370.132812 90.109375 370.132812 96 "/>
<path style=" stroke:none;fill-rule:nonzero;fill:rgb(100%,84.3%,0%);fill-opacity:1;" d="M 109.867188 356.265625 C 109.867188 362.15625 105.089844 366.933594 99.199219 366.933594 C 93.308594 366.933594 88.535156 362.15625 88.535156 356.265625 C 88.535156 350.375 93.308594 345.601562 99.199219 345.601562 C 105.089844 345.601562 109.867188 350.375 109.867188 356.265625 "/>
<path style=" stroke:none;fill-rule:nonzero;fill:rgb(100%,84.3%,0%);fill-opacity:1;" d="M 276.265625 435.199219 C 276.265625 441.089844 271.492188 445.867188 265.601562 445.867188 C 259.707031 445.867188 254.933594 441.089844 254.933594 435.199219 C 254.933594 429.308594 259.707031 424.535156 265.601562 424.535156 C 271.492188 424.535156 276.265625 429.308594 276.265625 435.199219 "/>
<path style=" stroke:none;fill-rule:nonzero;fill:rgb(100%,84.3%,0%);fill-opacity:1;" d="M 353.066406 379.734375 C 353.066406 385.625 348.292969 390.398438 342.398438 390.398438 C 336.507812 390.398438 331.734375 385.625 331.734375 379.734375 C 331.734375 373.84375 336.507812 369.066406 342.398438 369.066406 C 348.292969 369.066406 353.066406 373.84375 353.066406 379.734375 "/>
<path style=" stroke:none;fill-rule:nonzero;fill:rgb(100%,84.3%,0%);fill-opacity:1;" d="M 126.933594 375.46875 C 126.933594 381.359375 122.15625 386.132812 116.265625 386.132812 C 110.375 386.132812 105.601562 381.359375 105.601562 375.46875 C 105.601562 369.574219 110.375 364.800781 116.265625 364.800781 C 122.15625 364.800781 126.933594 369.574219 126.933594 375.46875 "/>
<path style=" stroke:none;fill-rule:nonzero;fill:rgb(100%,84.3%,0%);fill-opacity:1;" d="M 406.398438 352 C 406.398438 357.890625 401.625 362.667969 395.734375 362.667969 C 389.84375 362.667969 385.066406 357.890625 385.066406 352 C 385.066406 346.109375 389.84375 341.332031 395.734375 341.332031 C 401.625 341.332031 406.398438 346.109375 406.398438 352 "/>
<path style=" stroke:none;fill-rule:nonzero;fill:rgb(100%,84.3%,0%);fill-opacity:1;" d="M 414.933594 375.46875 C 414.933594 381.359375 410.15625 386.132812 404.265625 386.132812 C 398.375 386.132812 393.601562 381.359375 393.601562 375.46875 C 393.601562 369.574219 398.375 364.800781 404.265625 364.800781 C 410.15625 364.800781 414.933594 369.574219 414.933594 375.46875 "/>
<path style=" stroke:none;fill-rule:nonzero;fill:rgb(100%,84.3%,0%);fill-opacity:1;" d="M 429.867188 179.199219 C 429.867188 185.089844 425.089844 189.867188 419.199219 189.867188 C 413.308594 189.867188 408.535156 185.089844 408.535156 179.199219 C 408.535156 173.308594 413.308594 168.535156 419.199219 168.535156 C 425.089844 168.535156 429.867188 173.308594 429.867188 179.199219 "/>
<path style=" stroke:none;fill-rule:nonzero;fill:rgb(100%,84.3%,0%);fill-opacity:1;" d="M 133.332031 194.132812 C 133.332031 200.023438 128.558594 204.800781 122.667969 204.800781 C 116.777344 204.800781 112 200.023438 112 194.132812 C 112 188.242188 116.777344 183.464844 122.667969 183.464844 C 128.558594 183.464844 133.332031 188.242188 133.332031 194.132812 "/>
<path style=" stroke:none;fill-rule:nonzero;fill:rgb(100%,84.3%,0%);fill-opacity:1;" d="M 261.332031 388.265625 C 261.332031 394.15625 256.558594 398.933594 250.667969 398.933594 C 244.777344 398.933594 240 394.15625 240 388.265625 C 240 382.375 244.777344 377.601562 250.667969 377.601562 C 256.558594 377.601562 261.332031 382.375 261.332031 388.265625 "/>
<path style=" stroke:none;fill-rule:nonzero;fill:rgb(100%,84.3%,0%);fill-opacity:1;" d="M 161.066406 273.066406 C 161.066406 278.957031 156.292969 283.734375 150.398438 283.734375 C 144.507812 283.734375 139.734375 278.957031 139.734375 273.066406 C 139.734375 267.175781 144.507812 262.398438 150.398438 262.398438 C 156.292969 262.398438 161.066406 267.175781 161.066406 273.066406 "/>
<path style=" stroke:none;fill-rule:nonzero;fill:rgb(100%,84.3%,0%);fill-opacity:1;" d="M 412.800781 230.398438 C 412.800781 236.292969 408.023438 241.066406 402.132812 241.066406 C 396.242188 241.066406 391.464844 236.292969 391.464844 230.398438 C 391.464844 224.507812 396.242188 219.734375 402.132812 219.734375 C 408.023438 219.734375 412.800781 224.507812 412.800781 230.398438 "/>
<path style=" stroke:none;fill-rule:nonzero;fill:rgb(100%,84.3%,0%);fill-opacity:1;" d="M 308.265625 426.667969 C 308.265625 432.558594 303.492188 437.332031 297.601562 437.332031 C 291.707031 437.332031 286.933594 432.558594 286.933594 426.667969 C 286.933594 420.777344 291.707031 416 297.601562 416 C 303.492188 416 308.265625 420.777344 308.265625 426.667969 "/>
<path style=" stroke:none;fill-rule:nonzero;fill:rgb(100%,84.3%,0%);fill-opacity:1;" d="M 103.464844 311.46875 C 103.464844 317.359375 98.691406 322.132812 92.800781 322.132812 C 86.910156 322.132812 82.132812 317.359375 82.132812 311.46875 C 82.132812 305.574219 86.910156 300.800781 92.800781 300.800781 C 98.691406 300.800781 103.464844 305.574219 103.464844 311.46875 "/>
<path style=" stroke:none;fill-rule:nonzero;fill:rgb(100%,84.3%,0%);fill-opacity:1;" d="M 137.601562 305.066406 C 137.601562 310.957031 132.824219 315.734375 126.933594 315.734375 C 121.042969 315.734375 116.265625 310.957031 116.265625 305.066406 C 116.265625 299.175781 121.042969 294.398438 126.933594 294.398438 C 132.824219 294.398438 137.601562 299.175781 137.601562 305.066406 "/>
<path style=" stroke:none;fill-rule:nonzero;fill:rgb(100%,84.3%,0%);fill-opacity:1;" d="M 210.132812 347.734375 C 210.132812 353.625 205.359375 358.398438 199.46875 358.398438 C 193.574219 358.398438 188.800781 353.625 188.800781 347.734375 C 188.800781 341.84375 193.574219 337.066406 199.46875 337.066406 C 205.359375 337.066406 210.132812 341.84375 210.132812 347.734375 "/>
<path style=" stroke:none;fill-rule:nonzero;fill:rgb(100%,84.3%,0%);fill-opacity:1;" d="M 154.667969 113.066406 C 154.667969 118.957031 149.890625 123.734375 144 123.734375 C 138.109375 123.734375 133.332031 118.957031 133.332031 113.066406 C 133.332031 107.175781 138.109375 102.398438 144 102.398438 C 149.890625 102.398438 154.667969 107.175781 154.667969 113.066406 "/>
<path style=" stroke:none;fill-rule:nonzero;fill:rgb(100%,84.3%,0%);fill-opacity:1;" d="M 184.535156 302.933594 C 184.535156 308.824219 179.757812 313.601562 173.867188 313.601562 C 167.976562 313.601562 163.199219 308.824219 163.199219 302.933594 C 163.199219 297.042969 167.976562 292.265625 173.867188 292.265625 C 179.757812 292.265625 184.535156 297.042969 184.535156 302.933594 "/>
<path style=" stroke:none;fill-rule:nonzero;fill:rgb(100%,84.3%,0%);fill-opacity:1;" d="M 380.800781 416 C 380.800781 421.890625 376.023438 426.667969 370.132812 426.667969 C 364.242188 426.667969 359.464844 421.890625 359.464844 416 C 359.464844 410.109375 364.242188 405.332031 370.132812 405.332031 C 376.023438 405.332031 380.800781 410.109375 380.800781 416 "/>
<path style=" stroke:none;fill-rule:nonzero;fill:rgb(100%,84.3%,0%);fill-opacity:1;" d="M 233.601562 181.332031 C 233.601562 187.222656 228.824219 192 222.933594 192 C 217.042969 192 212.265625 187.222656 212.265625 181.332031 C 212.265625 175.441406 217.042969 170.667969 222.933594 170.667969 C 228.824219 170.667969 233.601562 175.441406 233.601562 181.332031 "/>
<path style=" stroke:none;fill-rule:nonzero;fill:rgb(100%,84.3%,0%);fill-opacity:1;" d="M 400 298.667969 C 400 304.558594 395.222656 309.332031 389.332031 309.332031 C 383.441406 309.332031 378.667969 304.558594 378.667969 298.667969 C 378.667969 292.777344 383.441406 288 389.332031 288 C 395.222656 288 400 292.777344 400 298.667969 "/>
<path style=" stroke:none;fill-rule:nonzero;fill:rgb(100%,84.3%,0%);fill-opacity:1;" d="M 161.066406 332.800781 C 161.066406 338.691406 156.292969 343.464844 150.398438 343.464844 C 144.507812 343.464844 139.734375 338.691406 139.734375 332.800781 C 139.734375 326.910156 144.507812 322.132812 150.398438 322.132812 C 156.292969 322.132812 161.066406 326.910156 161.066406 332.800781 "/>
<path style=" stroke:none;fill-rule:nonzero;fill:rgb(100%,84.3%,0%);fill-opacity:1;" d="M 404.265625 149.332031 C 404.265625 155.222656 399.492188 160 393.601562 160 C 387.707031 160 382.933594 155.222656 382.933594 149.332031 C 382.933594 143.441406 387.707031 138.667969 393.601562 138.667969 C 399.492188 138.667969 404.265625 143.441406 404.265625 149.332031 "/>
<path style=" stroke:none;fill-rule:nonzero;fill:rgb(100%,84.3%,0%);fill-opacity:1;" d="M 118.398438 279.46875 C 118.398438 285.359375 113.625 290.132812 107.734375 290.132812 C 101.84375 290.132812 97.066406 285.359375 97.066406 279.46875 C 97.066406 273.574219 101.84375 268.800781 107.734375 268.800781 C 113.625 268.800781 118.398438 273.574219 118.398438 279.46875 "/>
<path style=" stroke:none;fill-rule:nonzero;fill:rgb(100%,84.3%,0%);fill-opacity:1;" d="M 169.601562 373.332031 C 169.601562 379.222656 164.824219 384 158.933594 384 C 153.042969 384 148.265625 379.222656 148.265625 373.332031 C 148.265625 367.441406 153.042969 362.667969 158.933594 362.667969 C 164.824219 362.667969 169.601562 367.441406 169.601562 373.332031 "/>
<path style=" stroke:none;fill-rule:nonzero;fill:rgb(100%,84.3%,0%);fill-opacity:1;" d="M 280.535156 302.933594 C 280.535156 308.824219 275.757812 313.601562 269.867188 313.601562 C 263.976562 313.601562 259.199219 308.824219 259.199219 302.933594 C 259.199219 297.042969 263.976562 292.265625 269.867188 292.265625 C 275.757812 292.265625 280.535156 297.042969 280.535156 302.933594 "/>
<path style=" stroke:none;fill-rule:nonzero;fill:rgb(100%,84.3%,0%);fill-opacity:1;" d="M 165.332031 439.46875 C 165.332031 445.359375 160.558594 450.132812 154.667969 450.132812 C 148.777344 450.132812 144 445.359375 144 439.46875 C 144 433.574219 148.777344 428.800781 154.667969 428.800781 C 160.558594 428.800781 165.332031 433.574219 165.332031 439.46875 "/>
<path style=" stroke:none;fill-rule:nonzero;fill:rgb(100%,84.3%,0%);fill-opacity:1;" d="M 205.867188 266.667969 C 205.867188 272.558594 201.089844 277.332031 195.199219 277.332031 C 189.308594 277.332031 184.535156 272.558594 184.535156 266.667969 C 184.535156 260.777344 189.308594 256 195.199219 256 C 201.089844 256 205.867188 260.777344 205.867188 266.667969 "/>
<path style=" stroke:none;fill-rule:nonzero;fill:rgb(100%,84.3%,0%);fill-opacity:1;" d="M 336 87.46875 C 336 93.359375 331.222656 98.132812 325.332031 98.132812 C 319.441406 98.132812 314.667969 93.359375 314.667969 87.46875 C 314.667969 81.574219 319.441406 76.800781 325.332031 76.800781 C 331.222656 76.800781 336 81.574219 336 87.46875 "/>
<path style=" stroke:none;fill-rule:nonzero;fill:rgb(100%,84.3%,0%);fill-opacity:1;" d="M 342.398438 238.933594 C 342.398438 244.824219 337.625 249.601562 331.734375 249.601562 C 325.84375 249.601562 321.066406 244.824219 321.066406 238.933594 C 321.066406 233.042969 325.84375 228.265625 331.734375 228.265625 C 337.625 228.265625 342.398438 233.042969 342.398438 238.933594 "/>
<path style=" stroke:none;fill-rule:nonzero;fill:rgb(100%,84.3%,0%);fill-opacity:1;" d="M 274.132812 354.132812 C 274.132812 360.023438 269.359375 364.800781 263.46875 364.800781 C 257.574219 364.800781 252.800781 360.023438 252.800781 354.132812 C 252.800781 348.242188 257.574219 343.464844 263.46875 343.464844 C 269.359375 343.464844 274.132812 348.242188 274.132812 354.132812 "/>
<path style=" stroke:none;fill-rule:nonzero;fill:rgb(100%,84.3%,0%);fill-opacity:1;" d="M 188.800781 238.933594 C 188.800781 244.824219 184.023438 249.601562 178.132812 249.601562 C 172.242188 249.601562 167.464844 244.824219 167.464844 238.933594 C 167.464844 233.042969 172.242188 228.265625 178.132812 228.265625 C 184.023438 228.265625 188.800781 233.042969 188.800781 238.933594 "/>
</g>
</svg>
