<?xml version="1.0" encoding="UTF-8"?>
<svg xmlns="http://www.w3.org/2000/svg" xmlns:xlink="http://www.w3.org/1999/xlink" width="512pt" height="512pt" viewBox="0 0 512 512" version="1.1">
<g id="surface81">
<path style=" stroke:none;fill-rule:nonzero;fill:rgb(26.7%,26.7%,26.7%);fill-opacity:1;" d="M 149.09375 0 L 362.902344 0 L 362.902344 512 L 149.09375 512 Z M 149.09375 0 "/>
<path style=" stroke:none;fill-rule:nonzero;fill:rgb(19.2%,38.8%,66.7%);fill-opacity:1;" d="M 166.910156 42.667969 L 345.085938 42.667969 L 345.085938 469.332031 L 166.910156 469.332031 Z M 166.910156 42.667969 "/>
<path style=" stroke:none;fill-rule:nonzero;fill:rgb(100%,84.3%,0%);fill-opacity:1;" d="M 306.355469 48.625 C 306.355469 52.597656 300.394531 52.597656 300.394531 48.625 C 300.394531 44.652344 306.355469 44.652344 306.355469 48.625 "/>
<path style=" stroke:none;fill-rule:nonzero;fill:rgb(100%,84.3%,0%);fill-opacity:1;" d="M 256.710938 463.375 C 256.710938 467.347656 250.75 467.347656 250.75 463.375 C 250.75 459.402344 256.710938 459.402344 256.710938 463.375 "/>
<path style=" stroke:none;fill-rule:nonzero;fill:rgb(100%,84.3%,0%);fill-opacity:1;" d="M 330.191406 48.625 C 330.191406 52.597656 324.230469 52.597656 324.230469 48.625 C 324.230469 44.652344 330.191406 44.652344 330.191406 48.625 "/>
<path style=" stroke:none;fill-rule:nonzero;fill:rgb(100%,84.3%,0%);fill-opacity:1;" d="M 191.578125 452.277344 C 191.578125 456.25 185.617188 456.25 185.617188 452.277344 C 185.617188 448.304688 191.578125 448.304688 191.578125 452.277344 "/>
<path style=" stroke:none;fill-rule:nonzero;fill:rgb(100%,84.3%,0%);fill-opacity:1;" d="M 294.433594 48.625 C 294.433594 52.597656 288.476562 52.597656 288.476562 48.625 C 288.476562 44.652344 294.433594 44.652344 294.433594 48.625 "/>
<path style=" stroke:none;fill-rule:nonzero;fill:rgb(100%,84.3%,0%);fill-opacity:1;" d="M 243.808594 463.375 C 243.808594 467.347656 237.851562 467.347656 237.851562 463.375 C 237.851562 459.402344 243.808594 459.402344 243.808594 463.375 "/>
<path style=" stroke:none;fill-rule:nonzero;fill:rgb(100%,84.3%,0%);fill-opacity:1;" d="M 222.96875 463.375 C 222.96875 467.347656 217.007812 467.347656 217.007812 463.375 C 217.007812 459.402344 222.96875 459.402344 222.96875 463.375 "/>
<path style=" stroke:none;fill-rule:nonzero;fill:rgb(100%,84.3%,0%);fill-opacity:1;" d="M 208.417969 452.289062 C 208.417969 456.261719 202.457031 456.261719 202.457031 452.289062 C 202.457031 448.316406 208.417969 448.316406 208.417969 452.289062 "/>
<path style=" stroke:none;fill-rule:nonzero;fill:rgb(100%,84.3%,0%);fill-opacity:1;" d="M 239.433594 457.972656 C 239.433594 461.945312 233.476562 461.945312 233.476562 457.972656 C 233.476562 454 239.433594 454 239.433594 457.972656 "/>
<path style=" stroke:none;fill-rule:nonzero;fill:rgb(100%,84.3%,0%);fill-opacity:1;" d="M 337.296875 58.21875 C 337.296875 62.191406 331.339844 62.191406 331.339844 58.21875 C 331.339844 54.246094 337.296875 54.246094 337.296875 58.21875 "/>
<path style=" stroke:none;fill-rule:nonzero;fill:rgb(100%,84.3%,0%);fill-opacity:1;" d="M 218.65625 459.175781 C 218.65625 463.148438 212.695312 463.148438 212.695312 459.175781 C 212.695312 455.203125 218.65625 455.203125 218.65625 459.175781 "/>
<path style=" stroke:none;fill-rule:nonzero;fill:rgb(100%,84.3%,0%);fill-opacity:1;" d="M 300.394531 48.625 C 300.394531 52.597656 294.433594 52.597656 294.433594 48.625 C 294.433594 44.652344 300.394531 44.652344 300.394531 48.625 "/>
<path style=" stroke:none;fill-rule:nonzero;fill:rgb(100%,84.3%,0%);fill-opacity:1;" d="M 199.925781 457.664062 C 199.925781 461.640625 193.964844 461.640625 193.964844 457.664062 C 193.964844 453.691406 199.925781 453.691406 199.925781 457.664062 "/>
<path style=" stroke:none;fill-rule:nonzero;fill:rgb(100%,84.3%,0%);fill-opacity:1;" d="M 215.570312 452.554688 C 215.570312 456.527344 209.609375 456.527344 209.609375 452.554688 C 209.609375 448.582031 215.570312 448.582031 215.570312 452.554688 "/>
<path style=" stroke:none;fill-rule:nonzero;fill:rgb(100%,84.3%,0%);fill-opacity:1;" d="M 320.453125 54.171875 C 320.453125 58.144531 314.492188 58.144531 314.492188 54.171875 C 314.492188 50.199219 320.453125 50.199219 320.453125 54.171875 "/>
<path style=" stroke:none;fill-rule:nonzero;fill:rgb(100%,84.3%,0%);fill-opacity:1;" d="M 185.074219 446.273438 C 185.074219 450.246094 179.113281 450.246094 179.113281 446.273438 C 179.113281 442.300781 185.074219 442.300781 185.074219 446.273438 "/>
<path style=" stroke:none;fill-rule:nonzero;fill:rgb(100%,84.3%,0%);fill-opacity:1;" d="M 195.199219 463.375 C 195.199219 467.347656 189.242188 467.347656 189.242188 463.375 C 189.242188 459.402344 195.199219 459.402344 195.199219 463.375 "/>
<path style=" stroke:none;fill-rule:nonzero;fill:rgb(100%,84.3%,0%);fill-opacity:1;" d="M 208.0625 463.375 C 208.0625 467.347656 202.105469 467.347656 202.105469 463.375 C 202.105469 459.402344 208.0625 459.402344 208.0625 463.375 "/>
<path style=" stroke:none;fill-rule:nonzero;fill:rgb(100%,84.3%,0%);fill-opacity:1;" d="M 249.917969 463.375 C 249.917969 467.347656 243.960938 467.347656 243.960938 463.375 C 243.960938 459.402344 249.917969 459.402344 249.917969 463.375 "/>
<path style=" stroke:none;fill-rule:nonzero;fill:rgb(100%,84.3%,0%);fill-opacity:1;" d="M 212.578125 457.710938 C 212.578125 461.683594 206.621094 461.683594 206.621094 457.710938 C 206.621094 453.734375 212.578125 453.734375 212.578125 457.710938 "/>
<path style=" stroke:none;fill-rule:nonzero;fill:rgb(100%,84.3%,0%);fill-opacity:1;" d="M 201.425781 451.898438 C 201.425781 455.871094 195.464844 455.871094 195.464844 451.898438 C 195.464844 447.925781 201.425781 447.925781 201.425781 451.898438 "/>
<path style=" stroke:none;fill-rule:nonzero;fill:rgb(100%,84.3%,0%);fill-opacity:1;" d="M 191.515625 446.320312 C 191.515625 450.292969 185.558594 450.292969 185.558594 446.320312 C 185.558594 442.347656 191.515625 442.347656 191.515625 446.320312 "/>
<path style=" stroke:none;fill-rule:nonzero;fill:rgb(100%,84.3%,0%);fill-opacity:1;" d="M 326.667969 54.0625 C 326.667969 58.035156 320.710938 58.035156 320.710938 54.0625 C 320.710938 50.089844 326.667969 50.089844 326.667969 54.0625 "/>
<path style=" stroke:none;fill-rule:nonzero;fill:rgb(100%,84.3%,0%);fill-opacity:1;" d="M 184.859375 452.226562 C 184.859375 456.199219 178.898438 456.199219 178.898438 452.226562 C 178.898438 448.253906 184.859375 448.253906 184.859375 452.226562 "/>
<path style=" stroke:none;fill-rule:nonzero;fill:rgb(100%,84.3%,0%);fill-opacity:1;" d="M 334.414062 63.433594 C 334.414062 67.40625 328.453125 67.40625 328.453125 63.433594 C 328.453125 59.460938 334.414062 59.460938 334.414062 63.433594 "/>
<path style=" stroke:none;fill-rule:nonzero;fill:rgb(100%,84.3%,0%);fill-opacity:1;" d="M 214.425781 463.375 C 214.425781 467.347656 208.46875 467.347656 208.46875 463.375 C 208.46875 459.402344 214.425781 459.402344 214.425781 463.375 "/>
<path style=" stroke:none;fill-rule:nonzero;fill:rgb(100%,84.3%,0%);fill-opacity:1;" d="M 324.230469 48.625 C 324.230469 52.597656 318.269531 52.597656 318.269531 48.625 C 318.269531 44.652344 324.230469 44.652344 324.230469 48.625 "/>
<path style=" stroke:none;fill-rule:nonzero;fill:rgb(100%,84.3%,0%);fill-opacity:1;" d="M 236.921875 463.375 C 236.921875 467.347656 230.960938 467.347656 230.960938 463.375 C 230.960938 459.402344 236.921875 459.402344 236.921875 463.375 "/>
<path style=" stroke:none;fill-rule:nonzero;fill:rgb(100%,84.3%,0%);fill-opacity:1;" d="M 182.589844 463.375 C 182.589844 467.347656 176.628906 467.347656 176.628906 463.375 C 176.628906 459.402344 182.589844 459.402344 182.589844 463.375 "/>
<path style=" stroke:none;fill-rule:nonzero;fill:rgb(100%,84.3%,0%);fill-opacity:1;" d="M 329.183594 66.292969 C 329.183594 70.265625 323.226562 70.265625 323.226562 66.292969 C 323.226562 62.320312 329.183594 62.320312 329.183594 66.292969 "/>
<path style=" stroke:none;fill-rule:nonzero;fill:rgb(100%,84.3%,0%);fill-opacity:1;" d="M 185.464844 458.15625 C 185.464844 462.128906 179.503906 462.128906 179.503906 458.15625 C 179.503906 454.183594 185.464844 454.183594 185.464844 458.15625 "/>
<path style=" stroke:none;fill-rule:nonzero;fill:rgb(100%,84.3%,0%);fill-opacity:1;" d="M 329.050781 59.523438 C 329.050781 63.496094 323.09375 63.496094 323.09375 59.523438 C 323.09375 55.550781 329.050781 55.550781 329.050781 59.523438 "/>
<path style=" stroke:none;fill-rule:nonzero;fill:rgb(100%,84.3%,0%);fill-opacity:1;" d="M 189.070312 463.375 C 189.070312 467.347656 183.109375 467.347656 183.109375 463.375 C 183.109375 459.402344 189.070312 459.402344 189.070312 463.375 "/>
<path style=" stroke:none;fill-rule:nonzero;fill:rgb(100%,84.3%,0%);fill-opacity:1;" d="M 312.3125 48.625 C 312.3125 52.597656 306.351562 52.597656 306.351562 48.625 C 306.351562 44.652344 312.3125 44.652344 312.3125 48.625 "/>
<path style=" stroke:none;fill-rule:nonzero;fill:rgb(100%,84.3%,0%);fill-opacity:1;" d="M 333.03125 53.863281 C 333.03125 57.835938 327.074219 57.835938 327.074219 53.863281 C 327.074219 49.890625 333.03125 49.890625 333.03125 53.863281 "/>
<path style=" stroke:none;fill-rule:nonzero;fill:rgb(100%,84.3%,0%);fill-opacity:1;" d="M 318.273438 48.625 C 318.273438 52.597656 312.3125 52.597656 312.3125 48.625 C 312.3125 44.652344 318.273438 44.652344 318.273438 48.625 "/>
<path style=" stroke:none;fill-rule:nonzero;fill:rgb(100%,84.3%,0%);fill-opacity:1;" d="M 341.414062 67.675781 C 341.414062 71.648438 335.453125 71.648438 335.453125 67.675781 C 335.453125 63.703125 341.414062 63.703125 341.414062 67.675781 "/>
<path style=" stroke:none;fill-rule:nonzero;fill:rgb(100%,84.3%,0%);fill-opacity:1;" d="M 201.632812 463.375 C 201.632812 467.347656 195.675781 467.347656 195.675781 463.375 C 195.675781 459.402344 201.632812 459.402344 201.632812 463.375 "/>
<path style=" stroke:none;fill-rule:nonzero;fill:rgb(100%,84.3%,0%);fill-opacity:1;" d="M 175.851562 48.625 C 175.851562 52.597656 169.890625 52.597656 169.890625 48.625 C 169.890625 44.652344 175.851562 44.652344 175.851562 48.625 "/>
<path style=" stroke:none;fill-rule:nonzero;fill:rgb(100%,84.3%,0%);fill-opacity:1;" d="M 224.222656 457.050781 C 224.222656 461.023438 218.261719 461.023438 218.261719 457.050781 C 218.261719 453.078125 224.222656 453.078125 224.222656 457.050781 "/>
<path style=" stroke:none;fill-rule:nonzero;fill:rgb(100%,84.3%,0%);fill-opacity:1;" d="M 342.09375 61.757812 C 342.09375 65.730469 336.136719 65.730469 336.136719 61.757812 C 336.136719 57.785156 342.09375 57.785156 342.09375 61.757812 "/>
<path style=" stroke:none;fill-rule:nonzero;fill:rgb(100%,84.3%,0%);fill-opacity:1;" d="M 178.199219 452.175781 C 178.199219 456.148438 172.238281 456.148438 172.238281 452.175781 C 172.238281 448.203125 178.199219 448.203125 178.199219 452.175781 "/>
<path style=" stroke:none;fill-rule:nonzero;fill:rgb(100%,84.3%,0%);fill-opacity:1;" d="M 177.726562 446.238281 C 177.726562 450.210938 171.765625 450.210938 171.765625 446.238281 C 171.765625 442.265625 177.726562 442.265625 177.726562 446.238281 "/>
<path style=" stroke:none;fill-rule:nonzero;fill:rgb(100%,84.3%,0%);fill-opacity:1;" d="M 178.660156 458.117188 C 178.660156 462.089844 172.699219 462.089844 172.699219 458.117188 C 172.699219 454.144531 178.660156 454.144531 178.660156 458.117188 "/>
<path style=" stroke:none;fill-rule:nonzero;fill:rgb(100%,84.3%,0%);fill-opacity:1;" d="M 342.019531 54.585938 C 342.019531 58.558594 336.0625 58.558594 336.0625 54.585938 C 336.0625 50.609375 342.019531 50.609375 342.019531 54.585938 "/>
<path style=" stroke:none;fill-rule:nonzero;fill:rgb(100%,84.3%,0%);fill-opacity:1;" d="M 206.0625 457.761719 C 206.0625 461.734375 200.101562 461.734375 200.101562 457.761719 C 200.101562 453.789062 206.0625 453.789062 206.0625 457.761719 "/>
<path style=" stroke:none;fill-rule:nonzero;fill:rgb(100%,84.3%,0%);fill-opacity:1;" d="M 288.476562 48.625 C 288.476562 52.597656 282.515625 52.597656 282.515625 48.625 C 282.515625 44.652344 288.476562 44.652344 288.476562 48.625 "/>
<path style=" stroke:none;fill-rule:nonzero;fill:rgb(100%,84.3%,0%);fill-opacity:1;" d="M 308.171875 54.300781 C 308.171875 58.273438 302.214844 58.273438 302.214844 54.300781 C 302.214844 50.328125 308.171875 50.328125 308.171875 54.300781 "/>
<path style=" stroke:none;fill-rule:nonzero;fill:rgb(100%,84.3%,0%);fill-opacity:1;" d="M 192.246094 458.199219 C 192.246094 462.171875 186.289062 462.171875 186.289062 458.199219 C 186.289062 454.226562 192.246094 454.226562 192.246094 458.199219 "/>
<path style=" stroke:none;fill-rule:nonzero;fill:rgb(100%,84.3%,0%);fill-opacity:1;" d="M 232.34375 458.238281 C 232.34375 462.210938 226.386719 462.210938 226.386719 458.238281 C 226.386719 454.265625 232.34375 454.265625 232.34375 458.238281 "/>
<path style=" stroke:none;fill-rule:nonzero;fill:rgb(100%,84.3%,0%);fill-opacity:1;" d="M 175.851562 463.375 C 175.851562 467.347656 169.890625 467.347656 169.890625 463.375 C 169.890625 459.402344 175.851562 459.402344 175.851562 463.375 "/>
<path style=" stroke:none;fill-rule:nonzero;fill:rgb(100%,84.3%,0%);fill-opacity:1;" d="M 336.148438 48.625 C 336.148438 52.597656 330.191406 52.597656 330.191406 48.625 C 330.191406 44.652344 336.148438 44.652344 336.148438 48.625 "/>
<path style=" stroke:none;fill-rule:nonzero;fill:rgb(100%,84.3%,0%);fill-opacity:1;" d="M 314.472656 54.179688 C 314.472656 58.152344 308.515625 58.152344 308.515625 54.179688 C 308.515625 50.207031 314.472656 50.207031 314.472656 54.179688 "/>
<path style=" stroke:none;fill-rule:nonzero;fill:rgb(100%,84.3%,0%);fill-opacity:1;" d="M 229.324219 463.375 C 229.324219 467.347656 223.367188 467.347656 223.367188 463.375 C 223.367188 459.402344 229.324219 459.402344 229.324219 463.375 "/>
<path style=" stroke:none;fill-rule:nonzero;fill:rgb(100%,84.3%,0%);fill-opacity:1;" d="M 322.828125 59.636719 C 322.828125 63.609375 316.867188 63.609375 316.867188 59.636719 C 316.867188 55.664062 322.828125 55.664062 322.828125 59.636719 "/>
<path style=" stroke:none;fill-rule:nonzero;fill:rgb(100%,84.3%,0%);fill-opacity:1;" d="M 342.109375 48.625 C 342.109375 52.597656 336.148438 52.597656 336.148438 48.625 C 336.148438 44.652344 342.109375 44.652344 342.109375 48.625 "/>
</g>
</svg>
