<?xml version="1.0" encoding="UTF-8"?>
<svg xmlns="http://www.w3.org/2000/svg" xmlns:xlink="http://www.w3.org/1999/xlink" width="512pt" height="512pt" viewBox="0 0 512 512" version="1.1">
<g id="surface181">
<path style=" stroke:none;fill-rule:nonzero;fill:rgb(26.7%,26.7%,26.7%);fill-opacity:1;" d="M 0 143.699219 L 512 143.699219 L 512 368.304688 L 0 368.304688 Z M 0 143.699219 "/>
<path style=" stroke:none;fill-rule:nonzero;fill:rgb(19.2%,38.8%,66.7%);fill-opacity:1;" d="M 42.667969 162.414062 L 469.332031 162.414062 L 469.332031 349.585938 L 42.667969 349.585938 Z M 42.667969 162.414062 "/>
<path style=" stroke:none;fill-rule:nonzero;fill:rgb(100%,100%,100%);fill-opacity:1;" d="M 363.335938 411.304688 C 363.335938 415.777344 356.628906 415.777344 356.628906 411.304688 C 356.628906 406.832031 363.335938 406.832031 363.335938 411.304688 "/>
<path style=" stroke:none;fill-rule:nonzero;fill:rgb(100%,100%,100%);fill-opacity:1;" d="M 19.1875 276.460938 C 19.1875 280.933594 12.476562 280.933594 12.476562 276.460938 C 12.476562 271.988281 19.1875 271.988281 19.1875 276.460938 "/>
<path style=" stroke:none;fill-rule:nonzero;fill:rgb(100%,100%,100%);fill-opacity:1;" d="M 70.171875 79.898438 C 70.171875 84.371094 63.464844 84.371094 63.464844 79.898438 C 63.464844 75.425781 70.171875 75.425781 70.171875 79.898438 "/>
<path style=" stroke:none;fill-rule:nonzero;fill:rgb(100%,100%,100%);fill-opacity:1;" d="M 382.121094 511.933594 C 382.121094 516.40625 375.414062 516.40625 375.414062 511.933594 C 375.414062 507.460938 382.121094 507.460938 382.121094 511.933594 "/>
<path style=" stroke:none;fill-rule:nonzero;fill:rgb(100%,100%,100%);fill-opacity:1;" d="M 16.503906 87.949219 C 16.503906 92.421875 9.792969 92.421875 9.792969 87.949219 C 9.792969 83.476562 16.503906 83.476562 16.503906 87.949219 "/>
<path style=" stroke:none;fill-rule:nonzero;fill:rgb(100%,100%,100%);fill-opacity:1;" d="M 389.5 452.226562 C 389.5 456.699219 382.792969 456.699219 382.792969 452.226562 C 382.792969 447.753906 389.5 447.753906 389.5 452.226562 "/>
<path style=" stroke:none;fill-rule:nonzero;fill:rgb(100%,100%,100%);fill-opacity:1;" d="M 111.765625 379.101562 C 111.765625 383.574219 105.058594 383.574219 105.058594 379.101562 C 105.058594 374.628906 111.765625 374.628906 111.765625 379.101562 "/>
<path style=" stroke:none;fill-rule:nonzero;fill:rgb(100%,100%,100%);fill-opacity:1;" d="M 95.664062 93.988281 C 95.664062 98.460938 88.957031 98.460938 88.957031 93.988281 C 88.957031 89.515625 95.664062 89.515625 95.664062 93.988281 "/>
<path style=" stroke:none;fill-rule:nonzero;fill:rgb(100%,100%,100%);fill-opacity:1;" d="M 347.238281 46.355469 C 347.238281 50.828125 340.527344 50.828125 340.527344 46.355469 C 340.527344 41.882812 347.238281 41.882812 347.238281 46.355469 "/>
<path style=" stroke:none;fill-rule:nonzero;fill:rgb(100%,100%,100%);fill-opacity:1;" d="M 361.996094 434.785156 C 361.996094 439.257812 355.289062 439.257812 355.289062 434.785156 C 355.289062 430.3125 361.996094 430.3125 361.996094 434.785156 "/>
<path style=" stroke:none;fill-rule:nonzero;fill:rgb(100%,100%,100%);fill-opacity:1;" d="M 10.464844 276.460938 C 10.464844 280.933594 3.757812 280.933594 3.757812 276.460938 C 3.757812 271.988281 10.464844 271.988281 10.464844 276.460938 "/>
<path style=" stroke:none;fill-rule:nonzero;fill:rgb(100%,100%,100%);fill-opacity:1;" d="M 321.746094 45.015625 C 321.746094 49.488281 315.035156 49.488281 315.035156 45.015625 C 315.035156 40.542969 321.746094 40.542969 321.746094 45.015625 "/>
<path style=" stroke:none;fill-rule:nonzero;fill:rgb(100%,100%,100%);fill-opacity:1;" d="M 153.359375 124.847656 C 153.359375 129.320312 146.648438 129.320312 146.648438 124.847656 C 146.648438 120.375 153.359375 120.375 153.359375 124.847656 "/>
<path style=" stroke:none;fill-rule:nonzero;fill:rgb(100%,100%,100%);fill-opacity:1;" d="M 171.472656 509.921875 C 171.472656 514.390625 164.761719 514.390625 164.761719 509.921875 C 164.761719 505.449219 171.472656 505.449219 171.472656 509.921875 "/>
<path style=" stroke:none;fill-rule:nonzero;fill:rgb(100%,100%,100%);fill-opacity:1;" d="M 482.078125 365.015625 C 482.078125 369.488281 475.371094 369.488281 475.371094 365.015625 C 475.371094 360.542969 482.078125 360.542969 482.078125 365.015625 "/>
<path style=" stroke:none;fill-rule:nonzero;fill:rgb(100%,100%,100%);fill-opacity:1;" d="M 232.519531 107.40625 C 232.519531 111.878906 225.8125 111.878906 225.8125 107.40625 C 225.8125 102.933594 232.519531 102.933594 232.519531 107.40625 "/>
<path style=" stroke:none;fill-rule:nonzero;fill:rgb(100%,100%,100%);fill-opacity:1;" d="M 361.996094 93.988281 C 361.996094 98.460938 355.289062 98.460938 355.289062 93.988281 C 355.289062 89.515625 361.996094 89.515625 361.996094 93.988281 "/>
<path style=" stroke:none;fill-rule:nonzero;fill:rgb(100%,100%,100%);fill-opacity:1;" d="M 292.226562 98.683594 C 292.226562 103.15625 285.519531 103.15625 285.519531 98.683594 C 285.519531 94.210938 292.226562 94.210938 292.226562 98.683594 "/>
<path style=" stroke:none;fill-rule:nonzero;fill:rgb(100%,100%,100%);fill-opacity:1;" d="M 429.753906 95.328125 C 429.753906 99.800781 423.042969 99.800781 423.042969 95.328125 C 423.042969 90.855469 429.753906 90.855469 429.753906 95.328125 "/>
<path style=" stroke:none;fill-rule:nonzero;fill:rgb(100%,100%,100%);fill-opacity:1;" d="M 226.480469 110.089844 C 226.480469 114.558594 219.773438 114.558594 219.773438 110.089844 C 219.773438 105.617188 226.480469 105.617188 226.480469 110.089844 "/>
<path style=" stroke:none;fill-rule:nonzero;fill:rgb(100%,100%,100%);fill-opacity:1;" d="M 198.976562 116.125 C 198.976562 120.597656 192.269531 120.597656 192.269531 116.125 C 192.269531 111.652344 198.976562 111.652344 198.976562 116.125 "/>
<path style=" stroke:none;fill-rule:nonzero;fill:rgb(100%,100%,100%);fill-opacity:1;" d="M 130.550781 378.433594 C 130.550781 382.90625 123.839844 382.90625 123.839844 378.433594 C 123.839844 373.960938 130.550781 373.960938 130.550781 378.433594 "/>
<path style=" stroke:none;fill-rule:nonzero;fill:rgb(100%,100%,100%);fill-opacity:1;" d="M 472.015625 360.988281 C 472.015625 365.460938 465.308594 365.460938 465.308594 360.988281 C 465.308594 356.519531 472.015625 356.519531 472.015625 360.988281 "/>
<path style=" stroke:none;fill-rule:nonzero;fill:rgb(100%,100%,100%);fill-opacity:1;" d="M 285.519531 501.871094 C 285.519531 506.34375 278.808594 506.34375 278.808594 501.871094 C 278.808594 497.398438 285.519531 497.398438 285.519531 501.871094 "/>
<path style=" stroke:none;fill-rule:nonzero;fill:rgb(100%,100%,100%);fill-opacity:1;" d="M 72.183594 473.023438 C 72.183594 477.496094 65.476562 477.496094 65.476562 473.023438 C 65.476562 468.550781 72.183594 468.550781 72.183594 473.023438 "/>
<path style=" stroke:none;fill-rule:nonzero;fill:rgb(100%,100%,100%);fill-opacity:1;" d="M 253.316406 49.039062 C 253.316406 53.511719 246.609375 53.511719 246.609375 49.039062 C 246.609375 44.566406 253.316406 44.566406 253.316406 49.039062 "/>
<path style=" stroke:none;fill-rule:nonzero;fill:rgb(100%,100%,100%);fill-opacity:1;" d="M 343.210938 402.582031 C 343.210938 407.054688 336.503906 407.054688 336.503906 402.582031 C 336.503906 398.109375 343.210938 398.109375 343.210938 402.582031 "/>
<path style=" stroke:none;fill-rule:nonzero;fill:rgb(100%,100%,100%);fill-opacity:1;" d="M 417.007812 93.316406 C 417.007812 97.789062 410.296875 97.789062 410.296875 93.316406 C 410.296875 88.84375 417.007812 88.84375 417.007812 93.316406 "/>
<path style=" stroke:none;fill-rule:nonzero;fill:rgb(100%,100%,100%);fill-opacity:1;" d="M 181.535156 70.507812 C 181.535156 74.980469 174.824219 74.980469 174.824219 70.507812 C 174.824219 66.035156 181.535156 66.035156 181.535156 70.507812 "/>
<path style=" stroke:none;fill-rule:nonzero;fill:rgb(100%,100%,100%);fill-opacity:1;" d="M 154.03125 8.117188 C 154.03125 12.589844 147.320312 12.589844 147.320312 8.117188 C 147.320312 3.644531 154.03125 3.644531 154.03125 8.117188 "/>
<path style=" stroke:none;fill-rule:nonzero;fill:rgb(100%,100%,100%);fill-opacity:1;" d="M 73.527344 387.152344 C 73.527344 391.625 66.816406 391.625 66.816406 387.152344 C 66.816406 382.679688 73.527344 382.679688 73.527344 387.152344 "/>
<path style=" stroke:none;fill-rule:nonzero;fill:rgb(100%,100%,100%);fill-opacity:1;" d="M 372.730469 367.699219 C 372.730469 372.171875 366.019531 372.171875 366.019531 367.699219 C 366.019531 363.226562 372.730469 363.226562 372.730469 367.699219 "/>
<path style=" stroke:none;fill-rule:nonzero;fill:rgb(100%,100%,100%);fill-opacity:1;" d="M 401.578125 65.140625 C 401.578125 69.613281 394.867188 69.613281 394.867188 65.140625 C 394.867188 60.667969 401.578125 60.667969 401.578125 65.140625 "/>
<path style=" stroke:none;fill-rule:nonzero;fill:rgb(100%,100%,100%);fill-opacity:1;" d="M 373.398438 27.570312 C 373.398438 32.042969 366.691406 32.042969 366.691406 27.570312 C 366.691406 23.097656 373.398438 23.097656 373.398438 27.570312 "/>
<path style=" stroke:none;fill-rule:nonzero;fill:rgb(100%,100%,100%);fill-opacity:1;" d="M 360.65625 438.136719 C 360.65625 442.609375 353.945312 442.609375 353.945312 438.136719 C 353.945312 433.664062 360.65625 433.664062 360.65625 438.136719 "/>
<path style=" stroke:none;fill-rule:nonzero;fill:rgb(100%,100%,100%);fill-opacity:1;" d="M 394.867188 26.902344 C 394.867188 31.375 388.160156 31.375 388.160156 26.902344 C 388.160156 22.429688 394.867188 22.429688 394.867188 26.902344 "/>
<path style=" stroke:none;fill-rule:nonzero;fill:rgb(100%,100%,100%);fill-opacity:1;" d="M 351.261719 454.910156 C 351.261719 459.382812 344.554688 459.382812 344.554688 454.910156 C 344.554688 450.4375 351.261719 450.4375 351.261719 454.910156 "/>
<path style=" stroke:none;fill-rule:nonzero;fill:rgb(100%,100%,100%);fill-opacity:1;" d="M 21.199219 195.285156 C 21.199219 199.757812 14.492188 199.757812 14.492188 195.285156 C 14.492188 190.816406 21.199219 190.816406 21.199219 195.285156 "/>
<path style=" stroke:none;fill-rule:nonzero;fill:rgb(100%,100%,100%);fill-opacity:1;" d="M 3.085938 326.777344 C 3.085938 331.25 -3.621094 331.25 -3.621094 326.777344 C -3.621094 322.304688 3.085938 322.304688 3.085938 326.777344 "/>
<path style=" stroke:none;fill-rule:nonzero;fill:rgb(100%,100%,100%);fill-opacity:1;" d="M 185.558594 46.355469 C 185.558594 50.828125 178.851562 50.828125 178.851562 46.355469 C 178.851562 41.882812 185.558594 41.882812 185.558594 46.355469 "/>
<path style=" stroke:none;fill-rule:nonzero;fill:rgb(100%,100%,100%);fill-opacity:1;" d="M 24.554688 512.605469 C 24.554688 517.078125 17.84375 517.078125 17.84375 512.605469 C 17.84375 508.132812 24.554688 508.132812 24.554688 512.605469 "/>
<path style=" stroke:none;fill-rule:nonzero;fill:rgb(100%,100%,100%);fill-opacity:1;" d="M 64.132812 134.238281 C 64.132812 138.710938 57.425781 138.710938 57.425781 134.238281 C 57.425781 129.765625 64.132812 129.765625 64.132812 134.238281 "/>
<path style=" stroke:none;fill-rule:nonzero;fill:rgb(100%,100%,100%);fill-opacity:1;" d="M 394.867188 102.039062 C 394.867188 106.511719 388.160156 106.511719 388.160156 102.039062 C 388.160156 97.566406 394.867188 97.566406 394.867188 102.039062 "/>
<path style=" stroke:none;fill-rule:nonzero;fill:rgb(100%,100%,100%);fill-opacity:1;" d="M 476.710938 94.65625 C 476.710938 99.128906 470.003906 99.128906 470.003906 94.65625 C 470.003906 90.1875 476.710938 90.1875 476.710938 94.65625 "/>
<path style=" stroke:none;fill-rule:nonzero;fill:rgb(100%,100%,100%);fill-opacity:1;" d="M 425.054688 151.679688 C 425.054688 156.152344 418.347656 156.152344 418.347656 151.679688 C 418.347656 147.207031 425.054688 147.207031 425.054688 151.679688 "/>
<path style=" stroke:none;fill-rule:nonzero;fill:rgb(100%,100%,100%);fill-opacity:1;" d="M 85.601562 147.65625 C 85.601562 152.128906 78.894531 152.128906 78.894531 147.65625 C 78.894531 143.183594 85.601562 143.183594 85.601562 147.65625 "/>
<path style=" stroke:none;fill-rule:nonzero;fill:rgb(100%,100%,100%);fill-opacity:1;" d="M 221.785156 144.300781 C 221.785156 148.773438 215.078125 148.773438 215.078125 144.300781 C 215.078125 139.828125 221.785156 139.828125 221.785156 144.300781 "/>
<path style=" stroke:none;fill-rule:nonzero;fill:rgb(100%,100%,100%);fill-opacity:1;" d="M 19.1875 63.800781 C 19.1875 68.269531 12.476562 68.269531 12.476562 63.800781 C 12.476562 59.328125 19.1875 59.328125 19.1875 63.800781 "/>
<path style=" stroke:none;fill-rule:nonzero;fill:rgb(100%,100%,100%);fill-opacity:1;" d="M 247.949219 36.964844 C 247.949219 41.4375 241.242188 41.4375 241.242188 36.964844 C 241.242188 32.492188 247.949219 32.492188 247.949219 36.964844 "/>
<path style=" stroke:none;fill-rule:nonzero;fill:rgb(100%,100%,100%);fill-opacity:1;" d="M 80.90625 350.257812 C 80.90625 354.726562 74.195312 354.726562 74.195312 350.257812 C 74.195312 345.785156 80.90625 345.785156 80.90625 350.257812 "/>
<path style=" stroke:none;fill-rule:nonzero;fill:rgb(100%,100%,100%);fill-opacity:1;" d="M 290.882812 425.390625 C 290.882812 429.863281 284.175781 429.863281 284.175781 425.390625 C 284.175781 420.917969 290.882812 420.917969 290.882812 425.390625 "/>
<path style=" stroke:none;fill-rule:nonzero;fill:rgb(100%,100%,100%);fill-opacity:1;" d="M 166.773438 462.289062 C 166.773438 466.761719 160.066406 466.761719 160.066406 462.289062 C 160.066406 457.816406 166.773438 457.816406 166.773438 462.289062 "/>
<path style=" stroke:none;fill-rule:nonzero;fill:rgb(100%,100%,100%);fill-opacity:1;" d="M 269.417969 27.570312 C 269.417969 32.042969 262.707031 32.042969 262.707031 27.570312 C 262.707031 23.097656 269.417969 23.097656 269.417969 27.570312 "/>
<path style=" stroke:none;fill-rule:nonzero;fill:rgb(100%,100%,100%);fill-opacity:1;" d="M 213.066406 38.976562 C 213.066406 43.449219 206.355469 43.449219 206.355469 38.976562 C 206.355469 34.503906 213.066406 34.503906 213.066406 38.976562 "/>
<path style=" stroke:none;fill-rule:nonzero;fill:rgb(100%,100%,100%);fill-opacity:1;" d="M 113.105469 364.34375 C 113.105469 368.816406 106.398438 368.816406 106.398438 364.34375 C 106.398438 359.871094 113.105469 359.871094 113.105469 364.34375 "/>
<path style=" stroke:none;fill-rule:nonzero;fill:rgb(100%,100%,100%);fill-opacity:1;" d="M 429.082031 65.8125 C 429.082031 70.285156 422.371094 70.285156 422.371094 65.8125 C 422.371094 61.339844 429.082031 61.339844 429.082031 65.8125 "/>
<path style=" stroke:none;fill-rule:nonzero;fill:rgb(100%,100%,100%);fill-opacity:1;" d="M 398.222656 144.972656 C 398.222656 149.445312 391.515625 149.445312 391.515625 144.972656 C 391.515625 140.5 398.222656 140.5 398.222656 144.972656 "/>
<path style=" stroke:none;fill-rule:nonzero;fill:rgb(100%,100%,100%);fill-opacity:1;" d="M 240.570312 81.242188 C 240.570312 85.714844 233.863281 85.714844 233.863281 81.242188 C 233.863281 76.769531 240.570312 76.769531 240.570312 81.242188 "/>
<path style=" stroke:none;fill-rule:nonzero;fill:rgb(100%,100%,100%);fill-opacity:1;" d="M 35.957031 102.710938 C 35.957031 107.179688 29.25 107.179688 29.25 102.710938 C 29.25 98.238281 35.957031 98.238281 35.957031 102.710938 "/>
<path style=" stroke:none;fill-rule:nonzero;fill:rgb(100%,100%,100%);fill-opacity:1;" d="M 467.320312 494.492188 C 467.320312 498.964844 460.613281 498.964844 460.613281 494.492188 C 460.613281 490.019531 467.320312 490.019531 467.320312 494.492188 "/>
<path style=" stroke:none;fill-rule:nonzero;fill:rgb(100%,100%,100%);fill-opacity:1;" d="M 481.410156 343.546875 C 481.410156 348.019531 474.699219 348.019531 474.699219 343.546875 C 474.699219 339.074219 481.410156 339.074219 481.410156 343.546875 "/>
<path style=" stroke:none;fill-rule:nonzero;fill:rgb(100%,100%,100%);fill-opacity:1;" d="M 18.515625 295.914062 C 18.515625 300.386719 11.808594 300.386719 11.808594 295.914062 C 11.808594 291.445312 18.515625 291.445312 18.515625 295.914062 "/>
<path style=" stroke:none;fill-rule:nonzero;fill:rgb(100%,100%,100%);fill-opacity:1;" d="M 37.300781 193.273438 C 37.300781 197.746094 30.589844 197.746094 30.589844 193.273438 C 30.589844 188.800781 37.300781 188.800781 37.300781 193.273438 "/>
<path style=" stroke:none;fill-rule:nonzero;fill:rgb(100%,100%,100%);fill-opacity:1;" d="M 384.132812 464.300781 C 384.132812 468.773438 377.425781 468.773438 377.425781 464.300781 C 377.425781 459.828125 384.132812 459.828125 384.132812 464.300781 "/>
<path style=" stroke:none;fill-rule:nonzero;fill:rgb(100%,100%,100%);fill-opacity:1;" d="M 109.082031 71.179688 C 109.082031 75.652344 102.371094 75.652344 102.371094 71.179688 C 102.371094 66.707031 109.082031 66.707031 109.082031 71.179688 "/>
<path style=" stroke:none;fill-rule:nonzero;fill:rgb(100%,100%,100%);fill-opacity:1;" d="M 139.269531 131.554688 C 139.269531 136.027344 132.5625 136.027344 132.5625 131.554688 C 132.5625 127.082031 139.269531 127.082031 139.269531 131.554688 "/>
<path style=" stroke:none;fill-rule:nonzero;fill:rgb(100%,100%,100%);fill-opacity:1;" d="M 128.535156 452.898438 C 128.535156 457.371094 121.828125 457.371094 121.828125 452.898438 C 121.828125 448.425781 128.535156 448.425781 128.535156 452.898438 "/>
<path style=" stroke:none;fill-rule:nonzero;fill:rgb(100%,100%,100%);fill-opacity:1;" d="M 264.050781 80.570312 C 264.050781 85.042969 257.339844 85.042969 257.339844 80.570312 C 257.339844 76.097656 264.050781 76.097656 264.050781 80.570312 "/>
<path style=" stroke:none;fill-rule:nonzero;fill:rgb(100%,100%,100%);fill-opacity:1;" d="M 211.050781 383.800781 C 211.050781 388.269531 204.34375 388.269531 204.34375 383.800781 C 204.34375 379.328125 211.050781 379.328125 211.050781 383.800781 "/>
<path style=" stroke:none;fill-rule:nonzero;fill:rgb(100%,100%,100%);fill-opacity:1;" d="M 109.082031 432.101562 C 109.082031 436.574219 102.371094 436.574219 102.371094 432.101562 C 102.371094 427.628906 109.082031 427.628906 109.082031 432.101562 "/>
<path style=" stroke:none;fill-rule:nonzero;fill:rgb(100%,100%,100%);fill-opacity:1;" d="M 162.078125 -0.605469 C 162.078125 3.867188 155.371094 3.867188 155.371094 -0.605469 C 155.371094 -5.078125 162.078125 -5.078125 162.078125 -0.605469 "/>
<path style=" stroke:none;fill-rule:nonzero;fill:rgb(100%,100%,100%);fill-opacity:1;" d="M 86.941406 458.265625 C 86.941406 462.738281 80.234375 462.738281 80.234375 458.265625 C 80.234375 453.792969 86.941406 453.792969 86.941406 458.265625 "/>
<path style=" stroke:none;fill-rule:nonzero;fill:rgb(100%,100%,100%);fill-opacity:1;" d="M 35.957031 66.480469 C 35.957031 70.953125 29.25 70.953125 29.25 66.480469 C 29.25 62.007812 35.957031 62.007812 35.957031 66.480469 "/>
<path style=" stroke:none;fill-rule:nonzero;fill:rgb(100%,100%,100%);fill-opacity:1;" d="M 8.453125 366.355469 C 8.453125 370.828125 1.746094 370.828125 1.746094 366.355469 C 1.746094 361.882812 8.453125 361.882812 8.453125 366.355469 "/>
<path style=" stroke:none;fill-rule:nonzero;fill:rgb(100%,100%,100%);fill-opacity:1;" d="M 334.492188 479.730469 C 334.492188 484.203125 327.78125 484.203125 327.78125 479.730469 C 327.78125 475.257812 334.492188 475.257812 334.492188 479.730469 "/>
<path style=" stroke:none;fill-rule:nonzero;fill:rgb(100%,100%,100%);fill-opacity:1;" d="M 121.828125 469.667969 C 121.828125 474.140625 115.121094 474.140625 115.121094 469.667969 C 115.121094 465.195312 121.828125 465.195312 121.828125 469.667969 "/>
<path style=" stroke:none;fill-rule:nonzero;fill:rgb(100%,100%,100%);fill-opacity:1;" d="M 376.753906 81.242188 C 376.753906 85.714844 370.046875 85.714844 370.046875 81.242188 C 370.046875 76.769531 376.753906 76.769531 376.753906 81.242188 "/>
<path style=" stroke:none;fill-rule:nonzero;fill:rgb(100%,100%,100%);fill-opacity:1;" d="M 59.4375 78.558594 C 59.4375 83.03125 52.730469 83.03125 52.730469 78.558594 C 52.730469 74.085938 59.4375 74.085938 59.4375 78.558594 "/>
<path style=" stroke:none;fill-rule:nonzero;fill:rgb(100%,100%,100%);fill-opacity:1;" d="M 458.597656 412.644531 C 458.597656 417.117188 451.890625 417.117188 451.890625 412.644531 C 451.890625 408.171875 458.597656 408.171875 458.597656 412.644531 "/>
<path style=" stroke:none;fill-rule:nonzero;fill:rgb(100%,100%,100%);fill-opacity:1;" d="M 27.90625 307.320312 C 27.90625 311.792969 21.199219 311.792969 21.199219 307.320312 C 21.199219 302.847656 27.90625 302.847656 27.90625 307.320312 "/>
<path style=" stroke:none;fill-rule:nonzero;fill:rgb(100%,84.3%,0%);fill-opacity:1;" d="M 52.730469 314.117188 C 52.730469 318.589844 46.019531 318.589844 46.019531 314.117188 C 46.019531 309.644531 52.730469 309.644531 52.730469 314.117188 "/>
<path style=" stroke:none;fill-rule:nonzero;fill:rgb(100%,84.3%,0%);fill-opacity:1;" d="M 220.796875 169.125 C 220.796875 173.597656 214.089844 173.597656 214.089844 169.125 C 214.089844 164.652344 220.796875 164.652344 220.796875 169.125 "/>
<path style=" stroke:none;fill-rule:nonzero;fill:rgb(100%,84.3%,0%);fill-opacity:1;" d="M 121.242188 342.875 C 121.242188 347.347656 114.53125 347.347656 114.53125 342.875 C 114.53125 338.402344 121.242188 338.402344 121.242188 342.875 "/>
<path style=" stroke:none;fill-rule:nonzero;fill:rgb(100%,84.3%,0%);fill-opacity:1;" d="M 437.179688 180.863281 C 437.179688 185.335938 430.46875 185.335938 430.46875 180.863281 C 430.46875 176.390625 437.179688 176.390625 437.179688 180.863281 "/>
<path style=" stroke:none;fill-rule:nonzero;fill:rgb(100%,84.3%,0%);fill-opacity:1;" d="M 452.585938 342.6875 C 452.585938 347.160156 445.875 347.160156 445.875 342.6875 C 445.875 338.214844 452.585938 338.214844 452.585938 342.6875 "/>
<path style=" stroke:none;fill-rule:nonzero;fill:rgb(100%,84.3%,0%);fill-opacity:1;" d="M 465.980469 308.914062 C 465.980469 313.386719 459.269531 313.386719 459.269531 308.914062 C 459.269531 304.445312 465.980469 304.445312 465.980469 308.914062 "/>
<path style=" stroke:none;fill-rule:nonzero;fill:rgb(100%,84.3%,0%);fill-opacity:1;" d="M 111.683594 336.613281 C 111.683594 341.085938 104.972656 341.085938 104.972656 336.613281 C 104.972656 332.140625 111.683594 332.140625 111.683594 336.613281 "/>
<path style=" stroke:none;fill-rule:nonzero;fill:rgb(100%,84.3%,0%);fill-opacity:1;" d="M 412.726562 175.210938 C 412.726562 179.683594 406.019531 179.683594 406.019531 175.210938 C 406.019531 170.738281 412.726562 170.738281 412.726562 175.210938 "/>
<path style=" stroke:none;fill-rule:nonzero;fill:rgb(100%,84.3%,0%);fill-opacity:1;" d="M 408.902344 181.253906 C 408.902344 185.726562 402.195312 185.726562 402.195312 181.253906 C 402.195312 176.78125 408.902344 176.78125 408.902344 181.253906 "/>
<path style=" stroke:none;fill-rule:nonzero;fill:rgb(100%,84.3%,0%);fill-opacity:1;" d="M 52.730469 214.433594 C 52.730469 218.90625 46.019531 218.90625 46.019531 214.433594 C 46.019531 209.960938 52.730469 209.960938 52.730469 214.433594 "/>
<path style=" stroke:none;fill-rule:nonzero;fill:rgb(100%,84.3%,0%);fill-opacity:1;" d="M 59.003906 182.488281 C 59.003906 186.960938 52.296875 186.960938 52.296875 182.488281 C 52.296875 178.019531 59.003906 178.019531 59.003906 182.488281 "/>
<path style=" stroke:none;fill-rule:nonzero;fill:rgb(100%,84.3%,0%);fill-opacity:1;" d="M 155.886719 342.875 C 155.886719 347.347656 149.175781 347.347656 149.175781 342.875 C 149.175781 338.402344 155.886719 338.402344 155.886719 342.875 "/>
<path style=" stroke:none;fill-rule:nonzero;fill:rgb(100%,84.3%,0%);fill-opacity:1;" d="M 423.535156 169.125 C 423.535156 173.597656 416.824219 173.597656 416.824219 169.125 C 416.824219 164.652344 423.535156 164.652344 423.535156 169.125 "/>
<path style=" stroke:none;fill-rule:nonzero;fill:rgb(100%,84.3%,0%);fill-opacity:1;" d="M 80.972656 330.960938 C 80.972656 335.433594 74.265625 335.433594 74.265625 330.960938 C 74.265625 326.488281 80.972656 326.488281 80.972656 330.960938 "/>
<path style=" stroke:none;fill-rule:nonzero;fill:rgb(100%,84.3%,0%);fill-opacity:1;" d="M 443.886719 181.007812 C 443.886719 185.480469 437.175781 185.480469 437.175781 181.007812 C 437.175781 176.535156 443.886719 176.535156 443.886719 181.007812 "/>
<path style=" stroke:none;fill-rule:nonzero;fill:rgb(100%,84.3%,0%);fill-opacity:1;" d="M 403.175781 169.125 C 403.175781 173.597656 396.464844 173.597656 396.464844 169.125 C 396.464844 164.652344 403.175781 164.652344 403.175781 169.125 "/>
<path style=" stroke:none;fill-rule:nonzero;fill:rgb(100%,84.3%,0%);fill-opacity:1;" d="M 52.730469 200.371094 C 52.730469 204.84375 46.019531 204.84375 46.019531 200.371094 C 46.019531 195.902344 52.730469 195.902344 52.730469 200.371094 "/>
<path style=" stroke:none;fill-rule:nonzero;fill:rgb(100%,84.3%,0%);fill-opacity:1;" d="M 83.378906 318.414062 C 83.378906 322.886719 76.671875 322.886719 76.671875 318.414062 C 76.671875 313.941406 83.378906 313.941406 83.378906 318.414062 "/>
<path style=" stroke:none;fill-rule:nonzero;fill:rgb(100%,84.3%,0%);fill-opacity:1;" d="M 52.730469 285.046875 C 52.730469 289.519531 46.019531 289.519531 46.019531 285.046875 C 46.019531 280.574219 52.730469 280.574219 52.730469 285.046875 "/>
<path style=" stroke:none;fill-rule:nonzero;fill:rgb(100%,84.3%,0%);fill-opacity:1;" d="M 206.78125 169.125 C 206.78125 173.597656 200.074219 173.597656 200.074219 169.125 C 200.074219 164.652344 206.78125 164.652344 206.78125 169.125 "/>
<path style=" stroke:none;fill-rule:nonzero;fill:rgb(100%,84.3%,0%);fill-opacity:1;" d="M 107.761719 342.058594 C 107.761719 346.53125 101.050781 346.53125 101.050781 342.058594 C 101.050781 337.585938 107.761719 337.585938 107.761719 342.058594 "/>
<path style=" stroke:none;fill-rule:nonzero;fill:rgb(100%,84.3%,0%);fill-opacity:1;" d="M 61.039062 325.855469 C 61.039062 330.328125 54.328125 330.328125 54.328125 325.855469 C 54.328125 321.382812 61.039062 321.382812 61.039062 325.855469 "/>
<path style=" stroke:none;fill-rule:nonzero;fill:rgb(100%,84.3%,0%);fill-opacity:1;" d="M 405.953125 175.230469 C 405.953125 179.703125 399.242188 179.703125 399.242188 175.230469 C 399.242188 170.757812 405.953125 170.757812 405.953125 175.230469 "/>
<path style=" stroke:none;fill-rule:nonzero;fill:rgb(100%,84.3%,0%);fill-opacity:1;" d="M 92.980469 318.230469 C 92.980469 322.703125 86.273438 322.703125 86.273438 318.230469 C 86.273438 313.757812 92.980469 313.757812 92.980469 318.230469 "/>
<path style=" stroke:none;fill-rule:nonzero;fill:rgb(100%,84.3%,0%);fill-opacity:1;" d="M 419.929688 174.957031 C 419.929688 179.429688 413.21875 179.429688 413.21875 174.957031 C 413.21875 170.484375 419.929688 170.484375 419.929688 174.957031 "/>
<path style=" stroke:none;fill-rule:nonzero;fill:rgb(100%,84.3%,0%);fill-opacity:1;" d="M 345.246094 342.875 C 345.246094 347.347656 338.535156 347.347656 338.535156 342.875 C 338.535156 338.402344 345.246094 338.402344 345.246094 342.875 "/>
<path style=" stroke:none;fill-rule:nonzero;fill:rgb(100%,84.3%,0%);fill-opacity:1;" d="M 379.425781 342.875 C 379.425781 347.347656 372.714844 347.347656 372.714844 342.875 C 372.714844 338.402344 379.425781 338.402344 379.425781 342.875 "/>
<path style=" stroke:none;fill-rule:nonzero;fill:rgb(100%,84.3%,0%);fill-opacity:1;" d="M 217.097656 174.949219 C 217.097656 179.421875 210.390625 179.421875 210.390625 174.949219 C 210.390625 170.476562 217.097656 170.476562 217.097656 174.949219 "/>
<path style=" stroke:none;fill-rule:nonzero;fill:rgb(100%,84.3%,0%);fill-opacity:1;" d="M 375.804688 337.097656 C 375.804688 341.570312 369.097656 341.570312 369.097656 337.097656 C 369.097656 332.625 375.804688 332.625 375.804688 337.097656 "/>
<path style=" stroke:none;fill-rule:nonzero;fill:rgb(100%,84.3%,0%);fill-opacity:1;" d="M 231.199219 174.984375 C 231.199219 179.457031 224.492188 179.457031 224.492188 174.984375 C 224.492188 170.511719 231.199219 170.511719 231.199219 174.984375 "/>
<path style=" stroke:none;fill-rule:nonzero;fill:rgb(100%,84.3%,0%);fill-opacity:1;" d="M 465.980469 316.042969 C 465.980469 320.515625 459.269531 320.515625 459.269531 316.042969 C 459.269531 311.570312 465.980469 311.570312 465.980469 316.042969 "/>
<path style=" stroke:none;fill-rule:nonzero;fill:rgb(100%,84.3%,0%);fill-opacity:1;" d="M 440.632812 175.109375 C 440.632812 179.582031 433.921875 179.582031 433.921875 175.109375 C 433.921875 170.636719 440.632812 170.636719 440.632812 175.109375 "/>
<path style=" stroke:none;fill-rule:nonzero;fill:rgb(100%,84.3%,0%);fill-opacity:1;" d="M 87.511719 342.875 C 87.511719 347.347656 80.804688 347.347656 80.804688 342.875 C 80.804688 338.402344 87.511719 338.402344 87.511719 342.875 "/>
<path style=" stroke:none;fill-rule:nonzero;fill:rgb(100%,84.3%,0%);fill-opacity:1;" d="M 94.242188 342.875 C 94.242188 347.347656 87.535156 347.347656 87.535156 342.875 C 87.535156 338.402344 94.242188 338.402344 94.242188 342.875 "/>
<path style=" stroke:none;fill-rule:nonzero;fill:rgb(100%,84.3%,0%);fill-opacity:1;" d="M 457.078125 169.125 C 457.078125 173.597656 450.367188 173.597656 450.367188 169.125 C 450.367188 164.652344 457.078125 164.652344 457.078125 169.125 "/>
<path style=" stroke:none;fill-rule:nonzero;fill:rgb(100%,84.3%,0%);fill-opacity:1;" d="M 94.59375 331.015625 C 94.59375 335.488281 87.882812 335.488281 87.882812 331.015625 C 87.882812 326.542969 94.59375 326.542969 94.59375 331.015625 "/>
<path style=" stroke:none;fill-rule:nonzero;fill:rgb(100%,84.3%,0%);fill-opacity:1;" d="M 210.246094 174.867188 C 210.246094 179.339844 203.539062 179.339844 203.539062 174.867188 C 203.539062 170.398438 210.246094 170.398438 210.246094 174.867188 "/>
<path style=" stroke:none;fill-rule:nonzero;fill:rgb(100%,84.3%,0%);fill-opacity:1;" d="M 364.957031 330.613281 C 364.957031 335.085938 358.246094 335.085938 358.246094 330.613281 C 358.246094 326.140625 364.957031 326.140625 364.957031 330.613281 "/>
<path style=" stroke:none;fill-rule:nonzero;fill:rgb(100%,84.3%,0%);fill-opacity:1;" d="M 84.375 325.046875 C 84.375 329.519531 77.664062 329.519531 77.664062 325.046875 C 77.664062 320.574219 84.375 320.574219 84.375 325.046875 "/>
<path style=" stroke:none;fill-rule:nonzero;fill:rgb(100%,84.3%,0%);fill-opacity:1;" d="M 465.980469 342.875 C 465.980469 347.347656 459.269531 347.347656 459.269531 342.875 C 459.269531 338.402344 465.980469 338.402344 465.980469 342.875 "/>
<path style=" stroke:none;fill-rule:nonzero;fill:rgb(100%,84.3%,0%);fill-opacity:1;" d="M 416.613281 169.125 C 416.613281 173.597656 409.90625 173.597656 409.90625 169.125 C 409.90625 164.652344 416.613281 164.652344 416.613281 169.125 "/>
<path style=" stroke:none;fill-rule:nonzero;fill:rgb(100%,84.3%,0%);fill-opacity:1;" d="M 52.730469 193.535156 C 52.730469 198.007812 46.019531 198.007812 46.019531 193.535156 C 46.019531 189.0625 52.730469 189.0625 52.730469 193.535156 "/>
<path style=" stroke:none;fill-rule:nonzero;fill:rgb(100%,84.3%,0%);fill-opacity:1;" d="M 74.9375 181.679688 C 74.9375 186.152344 68.230469 186.152344 68.230469 181.679688 C 68.230469 177.207031 74.9375 177.207031 74.9375 181.679688 "/>
<path style=" stroke:none;fill-rule:nonzero;fill:rgb(100%,84.3%,0%);fill-opacity:1;" d="M 439.183594 342.109375 C 439.183594 346.582031 432.476562 346.582031 432.476562 342.109375 C 432.476562 337.636719 439.183594 337.636719 439.183594 342.109375 "/>
<path style=" stroke:none;fill-rule:nonzero;fill:rgb(100%,84.3%,0%);fill-opacity:1;" d="M 430.050781 181.164062 C 430.050781 185.636719 423.34375 185.636719 423.34375 181.164062 C 423.34375 176.695312 430.050781 176.695312 430.050781 181.164062 "/>
<path style=" stroke:none;fill-rule:nonzero;fill:rgb(100%,84.3%,0%);fill-opacity:1;" d="M 90.628906 180.886719 C 90.628906 185.359375 83.917969 185.359375 83.917969 180.886719 C 83.917969 176.414062 90.628906 176.414062 90.628906 180.886719 "/>
<path style=" stroke:none;fill-rule:nonzero;fill:rgb(100%,84.3%,0%);fill-opacity:1;" d="M 83.886719 169.125 C 83.886719 173.597656 77.175781 173.597656 77.175781 169.125 C 77.175781 164.652344 83.886719 164.652344 83.886719 169.125 "/>
<path style=" stroke:none;fill-rule:nonzero;fill:rgb(100%,84.3%,0%);fill-opacity:1;" d="M 63.761719 169.125 C 63.761719 173.597656 57.050781 173.597656 57.050781 169.125 C 57.050781 164.652344 63.761719 164.652344 63.761719 169.125 "/>
<path style=" stroke:none;fill-rule:nonzero;fill:rgb(100%,84.3%,0%);fill-opacity:1;" d="M 83.917969 180.847656 C 83.917969 185.320312 77.210938 185.320312 77.210938 180.847656 C 77.210938 176.375 83.917969 176.375 83.917969 180.847656 "/>
<path style=" stroke:none;fill-rule:nonzero;fill:rgb(100%,84.3%,0%);fill-opacity:1;" d="M 399.957031 342.875 C 399.957031 347.347656 393.246094 347.347656 393.246094 342.875 C 393.246094 338.402344 399.957031 338.402344 399.957031 342.875 "/>
<path style=" stroke:none;fill-rule:nonzero;fill:rgb(100%,84.3%,0%);fill-opacity:1;" d="M 438.777344 327.566406 C 438.777344 332.039062 432.070312 332.039062 432.070312 327.566406 C 432.070312 323.09375 438.777344 323.09375 438.777344 327.566406 "/>
<path style=" stroke:none;fill-rule:nonzero;fill:rgb(100%,84.3%,0%);fill-opacity:1;" d="M 348.472656 336.996094 C 348.472656 341.46875 341.765625 341.46875 341.765625 336.996094 C 341.765625 332.523438 348.472656 332.523438 348.472656 336.996094 "/>
<path style=" stroke:none;fill-rule:nonzero;fill:rgb(100%,84.3%,0%);fill-opacity:1;" d="M 458.816406 307.878906 C 458.816406 312.351562 452.105469 312.351562 452.105469 307.878906 C 452.105469 303.40625 458.816406 303.40625 458.816406 307.878906 "/>
<path style=" stroke:none;fill-rule:nonzero;fill:rgb(100%,84.3%,0%);fill-opacity:1;" d="M 77.101562 336.863281 C 77.101562 341.335938 70.390625 341.335938 70.390625 336.863281 C 70.390625 332.394531 77.101562 332.394531 77.101562 336.863281 "/>
<path style=" stroke:none;fill-rule:nonzero;fill:rgb(100%,84.3%,0%);fill-opacity:1;" d="M 112.816406 324.664062 C 112.816406 329.136719 106.109375 329.136719 106.109375 324.664062 C 106.109375 320.195312 112.816406 320.195312 112.816406 324.664062 "/>
<path style=" stroke:none;fill-rule:nonzero;fill:rgb(100%,84.3%,0%);fill-opacity:1;" d="M 139.28125 335.851562 C 139.28125 340.324219 132.574219 340.324219 132.574219 335.851562 C 132.574219 331.378906 139.28125 331.378906 139.28125 335.851562 "/>
<path style=" stroke:none;fill-rule:nonzero;fill:rgb(100%,84.3%,0%);fill-opacity:1;" d="M 154.121094 169.125 C 154.121094 173.597656 147.414062 173.597656 147.414062 169.125 C 147.414062 164.652344 154.121094 164.652344 154.121094 169.125 "/>
<path style=" stroke:none;fill-rule:nonzero;fill:rgb(100%,84.3%,0%);fill-opacity:1;" d="M 91.933594 324.859375 C 91.933594 329.332031 85.226562 329.332031 85.226562 324.859375 C 85.226562 320.386719 91.933594 320.386719 91.933594 324.859375 "/>
<path style=" stroke:none;fill-rule:nonzero;fill:rgb(100%,84.3%,0%);fill-opacity:1;" d="M 202.09375 342.875 C 202.09375 347.347656 195.386719 347.347656 195.386719 342.875 C 195.386719 338.402344 202.09375 338.402344 202.09375 342.875 "/>
<path style=" stroke:none;fill-rule:nonzero;fill:rgb(100%,84.3%,0%);fill-opacity:1;" d="M 52.976562 278.34375 C 52.976562 282.816406 46.265625 282.816406 46.265625 278.34375 C 46.265625 273.871094 52.976562 273.871094 52.976562 278.34375 "/>
<path style=" stroke:none;fill-rule:nonzero;fill:rgb(100%,84.3%,0%);fill-opacity:1;" d="M 64.53125 193.320312 C 64.53125 197.792969 57.820312 197.792969 57.820312 193.320312 C 57.820312 188.847656 64.53125 188.847656 64.53125 193.320312 "/>
<path style=" stroke:none;fill-rule:nonzero;fill:rgb(100%,84.3%,0%);fill-opacity:1;" d="M 465.933594 336.167969 C 465.933594 340.640625 459.222656 340.640625 459.222656 336.167969 C 459.222656 331.695312 465.933594 331.695312 465.933594 336.167969 "/>
<path style=" stroke:none;fill-rule:nonzero;fill:rgb(100%,84.3%,0%);fill-opacity:1;" d="M 452.730469 322.4375 C 452.730469 326.910156 446.023438 326.910156 446.023438 322.4375 C 446.023438 317.964844 452.730469 317.964844 452.730469 322.4375 "/>
<path style=" stroke:none;fill-rule:nonzero;fill:rgb(100%,84.3%,0%);fill-opacity:1;" d="M 438.296875 335.457031 C 438.296875 339.929688 431.589844 339.929688 431.589844 335.457031 C 431.589844 330.984375 438.296875 330.984375 438.296875 335.457031 "/>
<path style=" stroke:none;fill-rule:nonzero;fill:rgb(100%,84.3%,0%);fill-opacity:1;" d="M 419.675781 186.6875 C 419.675781 191.160156 412.964844 191.160156 412.964844 186.6875 C 412.964844 182.214844 419.675781 182.214844 419.675781 186.6875 "/>
<path style=" stroke:none;fill-rule:nonzero;fill:rgb(100%,84.3%,0%);fill-opacity:1;" d="M 52.730469 207.441406 C 52.730469 211.914062 46.019531 211.914062 46.019531 207.441406 C 46.019531 202.96875 52.730469 202.96875 52.730469 207.441406 "/>
<path style=" stroke:none;fill-rule:nonzero;fill:rgb(100%,84.3%,0%);fill-opacity:1;" d="M 56.097656 337.933594 C 56.097656 342.40625 49.390625 342.40625 49.390625 337.933594 C 49.390625 333.460938 56.097656 333.460938 56.097656 337.933594 "/>
<path style=" stroke:none;fill-rule:nonzero;fill:rgb(100%,84.3%,0%);fill-opacity:1;" d="M 375.214844 169.125 C 375.214844 173.597656 368.507812 173.597656 368.507812 169.125 C 368.507812 164.652344 375.214844 164.652344 375.214844 169.125 "/>
<path style=" stroke:none;fill-rule:nonzero;fill:rgb(100%,84.3%,0%);fill-opacity:1;" d="M 101.042969 342.875 C 101.042969 347.347656 94.335938 347.347656 94.335938 342.875 C 94.335938 338.402344 101.042969 338.402344 101.042969 342.875 "/>
<path style=" stroke:none;fill-rule:nonzero;fill:rgb(100%,84.3%,0%);fill-opacity:1;" d="M 199.765625 169.125 C 199.765625 173.597656 193.054688 173.597656 193.054688 169.125 C 193.054688 164.652344 199.765625 164.652344 199.765625 169.125 "/>
<path style=" stroke:none;fill-rule:nonzero;fill:rgb(100%,84.3%,0%);fill-opacity:1;" d="M 52.730469 180.117188 C 52.730469 184.589844 46.019531 184.589844 46.019531 180.117188 C 46.019531 175.644531 52.730469 175.644531 52.730469 180.117188 "/>
<path style=" stroke:none;fill-rule:nonzero;fill:rgb(100%,84.3%,0%);fill-opacity:1;" d="M 57.121094 331.300781 C 57.121094 335.773438 50.410156 335.773438 50.410156 331.300781 C 50.410156 326.828125 57.121094 326.828125 57.121094 331.300781 "/>
<path style=" stroke:none;fill-rule:nonzero;fill:rgb(100%,84.3%,0%);fill-opacity:1;" d="M 213.769531 169.125 C 213.769531 173.597656 207.058594 173.597656 207.058594 169.125 C 207.058594 164.652344 213.769531 164.652344 213.769531 169.125 "/>
<path style=" stroke:none;fill-rule:nonzero;fill:rgb(100%,84.3%,0%);fill-opacity:1;" d="M 365.402344 342.875 C 365.402344 347.347656 358.695312 347.347656 358.695312 342.875 C 358.695312 338.402344 365.402344 338.402344 365.402344 342.875 "/>
<path style=" stroke:none;fill-rule:nonzero;fill:rgb(100%,84.3%,0%);fill-opacity:1;" d="M 391.988281 175.484375 C 391.988281 179.957031 385.277344 179.957031 385.277344 175.484375 C 385.277344 171.011719 391.988281 171.011719 391.988281 175.484375 "/>
<path style=" stroke:none;fill-rule:nonzero;fill:rgb(100%,84.3%,0%);fill-opacity:1;" d="M 372.089844 331.242188 C 372.089844 335.714844 365.378906 335.714844 365.378906 331.242188 C 365.378906 326.773438 372.089844 326.773438 372.089844 331.242188 "/>
<path style=" stroke:none;fill-rule:nonzero;fill:rgb(100%,84.3%,0%);fill-opacity:1;" d="M 351.988281 342.785156 C 351.988281 347.257812 345.28125 347.257812 345.28125 342.785156 C 345.28125 338.316406 351.988281 338.316406 351.988281 342.785156 "/>
<path style=" stroke:none;fill-rule:nonzero;fill:rgb(100%,84.3%,0%);fill-opacity:1;" d="M 58.5625 303.140625 C 58.5625 307.613281 51.851562 307.613281 51.851562 303.140625 C 51.851562 298.667969 58.5625 298.667969 58.5625 303.140625 "/>
<path style=" stroke:none;fill-rule:nonzero;fill:rgb(100%,84.3%,0%);fill-opacity:1;" d="M 77.695312 324.429688 C 77.695312 328.902344 70.984375 328.902344 70.984375 324.429688 C 70.984375 319.957031 77.695312 319.957031 77.695312 324.429688 "/>
<path style=" stroke:none;fill-rule:nonzero;fill:rgb(100%,84.3%,0%);fill-opacity:1;" d="M 127.976562 342.875 C 127.976562 347.347656 121.269531 347.347656 121.269531 342.875 C 121.269531 338.402344 127.976562 338.402344 127.976562 342.875 "/>
<path style=" stroke:none;fill-rule:nonzero;fill:rgb(100%,84.3%,0%);fill-opacity:1;" d="M 140.320312 169.125 C 140.320312 173.597656 133.609375 173.597656 133.609375 169.125 C 133.609375 164.652344 140.320312 164.652344 140.320312 169.125 "/>
<path style=" stroke:none;fill-rule:nonzero;fill:rgb(100%,84.3%,0%);fill-opacity:1;" d="M 141.636719 342.875 C 141.636719 347.347656 134.929688 347.347656 134.929688 342.875 C 134.929688 338.402344 141.636719 338.402344 141.636719 342.875 "/>
<path style=" stroke:none;fill-rule:nonzero;fill:rgb(100%,84.3%,0%);fill-opacity:1;" d="M 445.878906 342.566406 C 445.878906 347.039062 439.167969 347.039062 439.167969 342.566406 C 439.167969 338.09375 445.878906 338.09375 445.878906 342.566406 "/>
<path style=" stroke:none;fill-rule:nonzero;fill:rgb(100%,84.3%,0%);fill-opacity:1;" d="M 386.261719 342.875 C 386.261719 347.347656 379.554688 347.347656 379.554688 342.875 C 379.554688 338.402344 386.261719 338.402344 386.261719 342.875 "/>
<path style=" stroke:none;fill-rule:nonzero;fill:rgb(100%,84.3%,0%);fill-opacity:1;" d="M 67.46875 341.65625 C 67.46875 346.128906 60.757812 346.128906 60.757812 341.65625 C 60.757812 337.183594 67.46875 337.183594 67.46875 341.65625 "/>
<path style=" stroke:none;fill-rule:nonzero;fill:rgb(100%,84.3%,0%);fill-opacity:1;" d="M 445.914062 322.035156 C 445.914062 326.507812 439.207031 326.507812 439.207031 322.035156 C 439.207031 317.5625 445.914062 317.5625 445.914062 322.035156 "/>
<path style=" stroke:none;fill-rule:nonzero;fill:rgb(100%,84.3%,0%);fill-opacity:1;" d="M 83.957031 336.96875 C 83.957031 341.441406 77.25 341.441406 77.25 336.96875 C 77.25 332.496094 83.957031 332.496094 83.957031 336.96875 "/>
<path style=" stroke:none;fill-rule:nonzero;fill:rgb(100%,84.3%,0%);fill-opacity:1;" d="M 459.289062 342.390625 C 459.289062 346.863281 452.578125 346.863281 452.578125 342.390625 C 452.578125 337.917969 459.289062 337.917969 459.289062 342.390625 "/>
<path style=" stroke:none;fill-rule:nonzero;fill:rgb(100%,84.3%,0%);fill-opacity:1;" d="M 114.421875 342.875 C 114.421875 347.347656 107.710938 347.347656 107.710938 342.875 C 107.710938 338.402344 114.421875 338.402344 114.421875 342.875 "/>
<path style=" stroke:none;fill-rule:nonzero;fill:rgb(100%,84.3%,0%);fill-opacity:1;" d="M 77.175781 169.125 C 77.175781 173.597656 70.46875 173.597656 70.46875 169.125 C 70.46875 164.652344 77.175781 164.652344 77.175781 169.125 "/>
<path style=" stroke:none;fill-rule:nonzero;fill:rgb(100%,84.3%,0%);fill-opacity:1;" d="M 459.347656 328.453125 C 459.347656 332.925781 452.636719 332.925781 452.636719 328.453125 C 452.636719 323.980469 459.347656 323.980469 459.347656 328.453125 "/>
<path style=" stroke:none;fill-rule:nonzero;fill:rgb(100%,84.3%,0%);fill-opacity:1;" d="M 452.074219 329.285156 C 452.074219 333.757812 445.363281 333.757812 445.363281 329.285156 C 445.363281 324.8125 452.074219 324.8125 452.074219 329.285156 "/>
<path style=" stroke:none;fill-rule:nonzero;fill:rgb(100%,84.3%,0%);fill-opacity:1;" d="M 368.730469 337.054688 C 368.730469 341.527344 362.023438 341.527344 362.023438 337.054688 C 362.023438 332.582031 368.730469 332.582031 368.730469 337.054688 "/>
<path style=" stroke:none;fill-rule:nonzero;fill:rgb(100%,84.3%,0%);fill-opacity:1;" d="M 60.632812 342.875 C 60.632812 347.347656 53.925781 347.347656 53.925781 342.875 C 53.925781 338.402344 60.632812 338.402344 60.632812 342.875 "/>
<path style=" stroke:none;fill-rule:nonzero;fill:rgb(100%,84.3%,0%);fill-opacity:1;" d="M 58.75 189.914062 C 58.75 194.386719 52.039062 194.386719 52.039062 189.914062 C 52.039062 185.441406 58.75 185.441406 58.75 189.914062 "/>
<path style=" stroke:none;fill-rule:nonzero;fill:rgb(100%,84.3%,0%);fill-opacity:1;" d="M 465.980469 329.460938 C 465.980469 333.929688 459.269531 333.929688 459.269531 329.460938 C 459.269531 324.988281 465.980469 324.988281 465.980469 329.460938 "/>
<path style=" stroke:none;fill-rule:nonzero;fill:rgb(100%,84.3%,0%);fill-opacity:1;" d="M 52.730469 292.183594 C 52.730469 296.65625 46.019531 296.65625 46.019531 292.183594 C 46.019531 287.710938 52.730469 287.710938 52.730469 292.183594 "/>
<path style=" stroke:none;fill-rule:nonzero;fill:rgb(100%,84.3%,0%);fill-opacity:1;" d="M 97.550781 337.039062 C 97.550781 341.511719 90.839844 341.511719 90.839844 337.039062 C 90.839844 332.566406 97.550781 332.566406 97.550781 337.039062 "/>
<path style=" stroke:none;fill-rule:nonzero;fill:rgb(100%,84.3%,0%);fill-opacity:1;" d="M 122.074219 330.761719 C 122.074219 335.234375 115.367188 335.234375 115.367188 330.761719 C 115.367188 326.289062 122.074219 326.289062 122.074219 330.761719 "/>
<path style=" stroke:none;fill-rule:nonzero;fill:rgb(100%,84.3%,0%);fill-opacity:1;" d="M 52.730469 186.824219 C 52.730469 191.296875 46.019531 191.296875 46.019531 186.824219 C 46.019531 182.355469 52.730469 182.355469 52.730469 186.824219 "/>
<path style=" stroke:none;fill-rule:nonzero;fill:rgb(100%,84.3%,0%);fill-opacity:1;" d="M 430.242188 169.125 C 430.242188 173.597656 423.535156 173.597656 423.535156 169.125 C 423.535156 164.652344 430.242188 164.652344 430.242188 169.125 "/>
<path style=" stroke:none;fill-rule:nonzero;fill:rgb(100%,84.3%,0%);fill-opacity:1;" d="M 58.425781 288.589844 C 58.425781 293.0625 51.71875 293.0625 51.71875 288.589844 C 51.71875 284.117188 58.425781 284.117188 58.425781 288.589844 "/>
<path style=" stroke:none;fill-rule:nonzero;fill:rgb(100%,84.3%,0%);fill-opacity:1;" d="M 416.121094 180.996094 C 416.121094 185.46875 409.414062 185.46875 409.414062 180.996094 C 409.414062 176.527344 416.121094 176.527344 416.121094 180.996094 "/>
<path style=" stroke:none;fill-rule:nonzero;fill:rgb(100%,84.3%,0%);fill-opacity:1;" d="M 58.601562 203.613281 C 58.601562 208.085938 51.894531 208.085938 51.894531 203.613281 C 51.894531 199.140625 58.601562 199.140625 58.601562 203.613281 "/>
<path style=" stroke:none;fill-rule:nonzero;fill:rgb(100%,84.3%,0%);fill-opacity:1;" d="M 98.53125 323.054688 C 98.53125 327.527344 91.824219 327.527344 91.824219 323.054688 C 91.824219 318.582031 98.53125 318.582031 98.53125 323.054688 "/>
<path style=" stroke:none;fill-rule:nonzero;fill:rgb(100%,84.3%,0%);fill-opacity:1;" d="M 65.714844 182.425781 C 65.714844 186.898438 59.003906 186.898438 59.003906 182.425781 C 59.003906 177.953125 65.714844 177.953125 65.714844 182.425781 "/>
<path style=" stroke:none;fill-rule:nonzero;fill:rgb(100%,84.3%,0%);fill-opacity:1;" d="M 389.078125 169.125 C 389.078125 173.597656 382.367188 173.597656 382.367188 169.125 C 382.367188 164.652344 389.078125 164.652344 389.078125 169.125 "/>
<path style=" stroke:none;fill-rule:nonzero;fill:rgb(100%,84.3%,0%);fill-opacity:1;" d="M 195.246094 342.875 C 195.246094 347.347656 188.535156 347.347656 188.535156 342.875 C 188.535156 338.402344 195.246094 338.402344 195.246094 342.875 "/>
<path style=" stroke:none;fill-rule:nonzero;fill:rgb(100%,84.3%,0%);fill-opacity:1;" d="M 64.777344 207.347656 C 64.777344 211.820312 58.070312 211.820312 58.070312 207.347656 C 58.070312 202.875 64.777344 202.875 64.777344 207.347656 "/>
<path style=" stroke:none;fill-rule:nonzero;fill:rgb(100%,84.3%,0%);fill-opacity:1;" d="M 147.175781 169.125 C 147.175781 173.597656 140.46875 173.597656 140.46875 169.125 C 140.46875 164.652344 147.175781 164.652344 147.175781 169.125 "/>
<path style=" stroke:none;fill-rule:nonzero;fill:rgb(100%,84.3%,0%);fill-opacity:1;" d="M 362.035156 336.652344 C 362.035156 341.125 355.328125 341.125 355.328125 336.652344 C 355.328125 332.179688 362.035156 332.179688 362.035156 336.652344 "/>
<path style=" stroke:none;fill-rule:nonzero;fill:rgb(100%,84.3%,0%);fill-opacity:1;" d="M 58.84375 281.589844 C 58.84375 286.0625 52.136719 286.0625 52.136719 281.589844 C 52.136719 277.117188 58.84375 277.117188 58.84375 281.589844 "/>
<path style=" stroke:none;fill-rule:nonzero;fill:rgb(100%,84.3%,0%);fill-opacity:1;" d="M 71.566406 321.453125 C 71.566406 325.925781 64.859375 325.925781 64.859375 321.453125 C 64.859375 316.980469 71.566406 316.980469 71.566406 321.453125 "/>
<path style=" stroke:none;fill-rule:nonzero;fill:rgb(100%,84.3%,0%);fill-opacity:1;" d="M 97.574219 169.125 C 97.574219 173.597656 90.867188 173.597656 90.867188 169.125 C 90.867188 164.652344 97.574219 164.652344 97.574219 169.125 "/>
<path style=" stroke:none;fill-rule:nonzero;fill:rgb(100%,84.3%,0%);fill-opacity:1;" d="M 59.023438 319.339844 C 59.023438 323.808594 52.316406 323.808594 52.316406 319.339844 C 52.316406 314.867188 59.023438 314.867188 59.023438 319.339844 "/>
<path style=" stroke:none;fill-rule:nonzero;fill:rgb(100%,84.3%,0%);fill-opacity:1;" d="M 459.378906 321.542969 C 459.378906 326.015625 452.671875 326.015625 452.671875 321.542969 C 452.671875 317.070312 459.378906 317.070312 459.378906 321.542969 "/>
<path style=" stroke:none;fill-rule:nonzero;fill:rgb(100%,84.3%,0%);fill-opacity:1;" d="M 74.175781 330.175781 C 74.175781 334.648438 67.464844 334.648438 67.464844 330.175781 C 67.464844 325.703125 74.175781 325.703125 74.175781 330.175781 "/>
<path style=" stroke:none;fill-rule:nonzero;fill:rgb(100%,84.3%,0%);fill-opacity:1;" d="M 58.433594 296.210938 C 58.433594 300.683594 51.726562 300.683594 51.726562 296.210938 C 51.726562 291.738281 58.433594 291.738281 58.433594 296.210938 "/>
<path style=" stroke:none;fill-rule:nonzero;fill:rgb(100%,84.3%,0%);fill-opacity:1;" d="M 134.683594 342.769531 C 134.683594 347.242188 127.976562 347.242188 127.976562 342.769531 C 127.976562 338.296875 134.683594 338.296875 134.683594 342.769531 "/>
<path style=" stroke:none;fill-rule:nonzero;fill:rgb(100%,84.3%,0%);fill-opacity:1;" d="M 452.53125 335.976562 C 452.53125 340.449219 445.824219 340.449219 445.824219 335.976562 C 445.824219 331.503906 452.53125 331.503906 452.53125 335.976562 "/>
<path style=" stroke:none;fill-rule:nonzero;fill:rgb(100%,84.3%,0%);fill-opacity:1;" d="M 52.730469 321.65625 C 52.730469 326.128906 46.019531 326.128906 46.019531 321.65625 C 46.019531 317.183594 52.730469 317.183594 52.730469 321.65625 "/>
<path style=" stroke:none;fill-rule:nonzero;fill:rgb(100%,84.3%,0%);fill-opacity:1;" d="M 459.246094 335.628906 C 459.246094 340.097656 452.539062 340.097656 452.539062 335.628906 C 452.539062 331.15625 459.246094 331.15625 459.246094 335.628906 "/>
<path style=" stroke:none;fill-rule:nonzero;fill:rgb(100%,84.3%,0%);fill-opacity:1;" d="M 90.597656 169.125 C 90.597656 173.597656 83.890625 173.597656 83.890625 169.125 C 83.890625 164.652344 90.597656 164.652344 90.597656 169.125 "/>
<path style=" stroke:none;fill-rule:nonzero;fill:rgb(100%,84.3%,0%);fill-opacity:1;" d="M 423.355469 180.746094 C 423.355469 185.21875 416.648438 185.21875 416.648438 180.746094 C 416.648438 176.273438 423.355469 176.273438 423.355469 180.746094 "/>
<path style=" stroke:none;fill-rule:nonzero;fill:rgb(100%,84.3%,0%);fill-opacity:1;" d="M 118.179688 169.125 C 118.179688 173.597656 111.472656 173.597656 111.472656 169.125 C 111.472656 164.652344 118.179688 164.652344 118.179688 169.125 "/>
<path style=" stroke:none;fill-rule:nonzero;fill:rgb(100%,84.3%,0%);fill-opacity:1;" d="M 104.160156 335.890625 C 104.160156 340.363281 97.449219 340.363281 97.449219 335.890625 C 97.449219 331.417969 104.160156 331.417969 104.160156 335.890625 "/>
<path style=" stroke:none;fill-rule:nonzero;fill:rgb(100%,84.3%,0%);fill-opacity:1;" d="M 443.660156 169.125 C 443.660156 173.597656 436.949219 173.597656 436.949219 169.125 C 436.949219 164.652344 443.660156 164.652344 443.660156 169.125 "/>
<path style=" stroke:none;fill-rule:nonzero;fill:rgb(100%,84.3%,0%);fill-opacity:1;" d="M 64.023438 175.828125 C 64.023438 180.300781 57.3125 180.300781 57.3125 175.828125 C 57.3125 171.355469 64.023438 171.355469 64.023438 175.828125 "/>
<path style=" stroke:none;fill-rule:nonzero;fill:rgb(100%,84.3%,0%);fill-opacity:1;" d="M 70.046875 335.464844 C 70.046875 339.933594 63.335938 339.933594 63.335938 335.464844 C 63.335938 330.992188 70.046875 330.992188 70.046875 335.464844 "/>
<path style=" stroke:none;fill-rule:nonzero;fill:rgb(100%,84.3%,0%);fill-opacity:1;" d="M 149.121094 342.875 C 149.121094 347.347656 142.410156 347.347656 142.410156 342.875 C 142.410156 338.402344 149.121094 338.402344 149.121094 342.875 "/>
<path style=" stroke:none;fill-rule:nonzero;fill:rgb(100%,84.3%,0%);fill-opacity:1;" d="M 58.285156 310.355469 C 58.285156 314.828125 51.574219 314.828125 51.574219 310.355469 C 51.574219 305.882812 58.285156 305.882812 58.285156 310.355469 "/>
<path style=" stroke:none;fill-rule:nonzero;fill:rgb(100%,84.3%,0%);fill-opacity:1;" d="M 436.949219 169.125 C 436.949219 173.597656 430.242188 173.597656 430.242188 169.125 C 430.242188 164.652344 436.949219 164.652344 436.949219 169.125 "/>
<path style=" stroke:none;fill-rule:nonzero;fill:rgb(100%,84.3%,0%);fill-opacity:1;" d="M 87.164062 174.976562 C 87.164062 179.449219 80.457031 179.449219 80.457031 174.976562 C 80.457031 170.503906 87.164062 170.503906 87.164062 174.976562 "/>
<path style=" stroke:none;fill-rule:nonzero;fill:rgb(100%,84.3%,0%);fill-opacity:1;" d="M 90.664062 336.871094 C 90.664062 341.34375 83.957031 341.34375 83.957031 336.871094 C 83.957031 332.402344 90.664062 332.402344 90.664062 336.871094 "/>
<path style=" stroke:none;fill-rule:nonzero;fill:rgb(100%,84.3%,0%);fill-opacity:1;" d="M 132.871094 169.125 C 132.871094 173.597656 126.160156 173.597656 126.160156 169.125 C 126.160156 164.652344 132.871094 164.652344 132.871094 169.125 "/>
<path style=" stroke:none;fill-rule:nonzero;fill:rgb(100%,84.3%,0%);fill-opacity:1;" d="M 74.070312 342.851562 C 74.070312 347.324219 67.363281 347.324219 67.363281 342.851562 C 67.363281 338.378906 74.070312 338.378906 74.070312 342.851562 "/>
<path style=" stroke:none;fill-rule:nonzero;fill:rgb(100%,84.3%,0%);fill-opacity:1;" d="M 393.113281 342.875 C 393.113281 347.347656 386.402344 347.347656 386.402344 342.875 C 386.402344 338.402344 393.113281 338.402344 393.113281 342.875 "/>
<path style=" stroke:none;fill-rule:nonzero;fill:rgb(100%,84.3%,0%);fill-opacity:1;" d="M 70.46875 169.125 C 70.46875 173.597656 63.757812 173.597656 63.757812 169.125 C 63.757812 164.652344 70.46875 164.652344 70.46875 169.125 "/>
<path style=" stroke:none;fill-rule:nonzero;fill:rgb(100%,84.3%,0%);fill-opacity:1;" d="M 209 342.875 C 209 347.347656 202.292969 347.347656 202.292969 342.875 C 202.292969 338.402344 209 338.402344 209 342.875 "/>
<path style=" stroke:none;fill-rule:nonzero;fill:rgb(100%,84.3%,0%);fill-opacity:1;" d="M 125.679688 336.574219 C 125.679688 341.046875 118.972656 341.046875 118.972656 336.574219 C 118.972656 332.101562 125.679688 332.101562 125.679688 336.574219 "/>
<path style=" stroke:none;fill-rule:nonzero;fill:rgb(100%,84.3%,0%);fill-opacity:1;" d="M 58.683594 196.621094 C 58.683594 201.09375 51.976562 201.09375 51.976562 196.621094 C 51.976562 192.148438 58.683594 192.148438 58.683594 196.621094 "/>
<path style=" stroke:none;fill-rule:nonzero;fill:rgb(100%,84.3%,0%);fill-opacity:1;" d="M 379.019531 331.210938 C 379.019531 335.683594 372.3125 335.683594 372.3125 331.210938 C 372.3125 326.738281 379.019531 326.738281 379.019531 331.210938 "/>
<path style=" stroke:none;fill-rule:nonzero;fill:rgb(100%,84.3%,0%);fill-opacity:1;" d="M 445.386719 328.722656 C 445.386719 333.195312 438.679688 333.195312 438.679688 328.722656 C 438.679688 324.25 445.386719 324.25 445.386719 328.722656 "/>
<path style=" stroke:none;fill-rule:nonzero;fill:rgb(100%,84.3%,0%);fill-opacity:1;" d="M 234.660156 169.125 C 234.660156 173.597656 227.953125 173.597656 227.953125 169.125 C 227.953125 164.652344 234.660156 164.652344 234.660156 169.125 "/>
<path style=" stroke:none;fill-rule:nonzero;fill:rgb(100%,84.3%,0%);fill-opacity:1;" d="M 64.589844 200.589844 C 64.589844 205.0625 57.882812 205.0625 57.882812 200.589844 C 57.882812 196.117188 64.589844 196.117188 64.589844 200.589844 "/>
<path style=" stroke:none;fill-rule:nonzero;fill:rgb(100%,84.3%,0%);fill-opacity:1;" d="M 216.921875 342.875 C 216.921875 347.347656 210.214844 347.347656 210.214844 342.875 C 210.214844 338.402344 216.921875 338.402344 216.921875 342.875 "/>
<path style=" stroke:none;fill-rule:nonzero;fill:rgb(100%,84.3%,0%);fill-opacity:1;" d="M 224.289062 174.851562 C 224.289062 179.324219 217.582031 179.324219 217.582031 174.851562 C 217.582031 170.378906 224.289062 170.378906 224.289062 174.851562 "/>
<path style=" stroke:none;fill-rule:nonzero;fill:rgb(100%,84.3%,0%);fill-opacity:1;" d="M 101.066406 329.265625 C 101.066406 333.738281 94.359375 333.738281 94.359375 329.265625 C 94.359375 324.792969 101.066406 324.792969 101.066406 329.265625 "/>
<path style=" stroke:none;fill-rule:nonzero;fill:rgb(100%,84.3%,0%);fill-opacity:1;" d="M 115.339844 330.882812 C 115.339844 335.355469 108.632812 335.355469 108.632812 330.882812 C 108.632812 326.410156 115.339844 326.410156 115.339844 330.882812 "/>
<path style=" stroke:none;fill-rule:nonzero;fill:rgb(100%,84.3%,0%);fill-opacity:1;" d="M 445.835938 335.542969 C 445.835938 340.015625 439.128906 340.015625 439.128906 335.542969 C 439.128906 331.070312 445.835938 331.070312 445.835938 335.542969 "/>
<path style=" stroke:none;fill-rule:nonzero;fill:rgb(100%,84.3%,0%);fill-opacity:1;" d="M 382.023438 169.125 C 382.023438 173.597656 375.316406 173.597656 375.316406 169.125 C 375.316406 164.652344 382.023438 164.652344 382.023438 169.125 "/>
<path style=" stroke:none;fill-rule:nonzero;fill:rgb(100%,84.3%,0%);fill-opacity:1;" d="M 100.785156 175.015625 C 100.785156 179.488281 94.074219 179.488281 94.074219 175.015625 C 94.074219 170.542969 100.785156 170.542969 100.785156 175.015625 "/>
<path style=" stroke:none;fill-rule:nonzero;fill:rgb(100%,84.3%,0%);fill-opacity:1;" d="M 104.320312 169.125 C 104.320312 173.597656 97.609375 173.597656 97.609375 169.125 C 97.609375 164.652344 104.320312 164.652344 104.320312 169.125 "/>
<path style=" stroke:none;fill-rule:nonzero;fill:rgb(100%,84.3%,0%);fill-opacity:1;" d="M 452.742188 315.730469 C 452.742188 320.203125 446.03125 320.203125 446.03125 315.730469 C 446.03125 311.257812 452.742188 311.257812 452.742188 315.730469 "/>
<path style=" stroke:none;fill-rule:nonzero;fill:rgb(100%,84.3%,0%);fill-opacity:1;" d="M 372.394531 342.875 C 372.394531 347.347656 365.6875 347.347656 365.6875 342.875 C 365.6875 338.402344 372.394531 338.402344 372.394531 342.875 "/>
<path style=" stroke:none;fill-rule:nonzero;fill:rgb(100%,84.3%,0%);fill-opacity:1;" d="M 409.90625 169.125 C 409.90625 173.597656 403.195312 173.597656 403.195312 169.125 C 403.195312 164.652344 409.90625 164.652344 409.90625 169.125 "/>
<path style=" stroke:none;fill-rule:nonzero;fill:rgb(100%,84.3%,0%);fill-opacity:1;" d="M 52.730469 299.738281 C 52.730469 304.210938 46.019531 304.210938 46.019531 299.738281 C 46.019531 295.269531 52.730469 295.269531 52.730469 299.738281 "/>
<path style=" stroke:none;fill-rule:nonzero;fill:rgb(100%,84.3%,0%);fill-opacity:1;" d="M 71.976562 175.660156 C 71.976562 180.132812 65.269531 180.132812 65.269531 175.660156 C 65.269531 171.1875 71.976562 171.1875 71.976562 175.660156 "/>
<path style=" stroke:none;fill-rule:nonzero;fill:rgb(100%,84.3%,0%);fill-opacity:1;" d="M 433.796875 175.046875 C 433.796875 179.515625 427.089844 179.515625 427.089844 175.046875 C 427.089844 170.574219 433.796875 170.574219 433.796875 175.046875 "/>
<path style=" stroke:none;fill-rule:nonzero;fill:rgb(100%,84.3%,0%);fill-opacity:1;" d="M 459.4375 314.558594 C 459.4375 319.03125 452.726562 319.03125 452.726562 314.558594 C 452.726562 310.085938 459.4375 310.085938 459.4375 314.558594 "/>
<path style=" stroke:none;fill-rule:nonzero;fill:rgb(100%,84.3%,0%);fill-opacity:1;" d="M 128.875 330.675781 C 128.875 335.148438 122.167969 335.148438 122.167969 330.675781 C 122.167969 326.203125 128.875 326.203125 128.875 330.675781 "/>
<path style=" stroke:none;fill-rule:nonzero;fill:rgb(100%,84.3%,0%);fill-opacity:1;" d="M 132.59375 336.394531 C 132.59375 340.867188 125.886719 340.867188 125.886719 336.394531 C 125.886719 331.921875 132.59375 331.921875 132.59375 336.394531 "/>
<path style=" stroke:none;fill-rule:nonzero;fill:rgb(100%,84.3%,0%);fill-opacity:1;" d="M 382.566406 336.949219 C 382.566406 341.421875 375.859375 341.421875 375.859375 336.949219 C 375.859375 332.476562 382.566406 332.476562 382.566406 336.949219 "/>
<path style=" stroke:none;fill-rule:nonzero;fill:rgb(100%,84.3%,0%);fill-opacity:1;" d="M 63.589844 333.632812 C 63.589844 338.105469 56.882812 338.105469 56.882812 333.632812 C 56.882812 329.160156 63.589844 329.160156 63.589844 333.632812 "/>
<path style=" stroke:none;fill-rule:nonzero;fill:rgb(100%,84.3%,0%);fill-opacity:1;" d="M 224.695312 342.875 C 224.695312 347.347656 217.988281 347.347656 217.988281 342.875 C 217.988281 338.402344 224.695312 338.402344 224.695312 342.875 "/>
<path style=" stroke:none;fill-rule:nonzero;fill:rgb(100%,84.3%,0%);fill-opacity:1;" d="M 402.179688 181.164062 C 402.179688 185.636719 395.472656 185.636719 395.472656 181.164062 C 395.472656 176.691406 402.179688 176.691406 402.179688 181.164062 "/>
<path style=" stroke:none;fill-rule:nonzero;fill:rgb(100%,84.3%,0%);fill-opacity:1;" d="M 463.785156 169.125 C 463.785156 173.597656 457.078125 173.597656 457.078125 169.125 C 457.078125 164.652344 463.785156 164.652344 463.785156 169.125 "/>
<path style=" stroke:none;fill-rule:nonzero;fill:rgb(100%,84.3%,0%);fill-opacity:1;" d="M 447.339844 175.175781 C 447.339844 179.648438 440.628906 179.648438 440.628906 175.175781 C 440.628906 170.703125 447.339844 170.703125 447.339844 175.175781 "/>
<path style=" stroke:none;fill-rule:nonzero;fill:rgb(100%,84.3%,0%);fill-opacity:1;" d="M 227.9375 169.125 C 227.9375 173.597656 221.230469 173.597656 221.230469 169.125 C 221.230469 164.652344 227.9375 164.652344 227.9375 169.125 "/>
<path style=" stroke:none;fill-rule:nonzero;fill:rgb(100%,84.3%,0%);fill-opacity:1;" d="M 241.472656 169.125 C 241.472656 173.597656 234.765625 173.597656 234.765625 169.125 C 234.765625 164.652344 241.472656 164.652344 241.472656 169.125 "/>
<path style=" stroke:none;fill-rule:nonzero;fill:rgb(100%,84.3%,0%);fill-opacity:1;" d="M 58.777344 210.347656 C 58.777344 214.820312 52.070312 214.820312 52.070312 210.347656 C 52.070312 205.875 58.777344 205.875 58.777344 210.347656 "/>
<path style=" stroke:none;fill-rule:nonzero;fill:rgb(100%,84.3%,0%);fill-opacity:1;" d="M 432.5 342.664062 C 432.5 347.136719 425.789062 347.136719 425.789062 342.664062 C 425.789062 338.191406 432.5 338.191406 432.5 342.664062 "/>
<path style=" stroke:none;fill-rule:nonzero;fill:rgb(100%,84.3%,0%);fill-opacity:1;" d="M 93.964844 174.925781 C 93.964844 179.398438 87.253906 179.398438 87.253906 174.925781 C 87.253906 170.453125 93.964844 170.453125 93.964844 174.925781 "/>
<path style=" stroke:none;fill-rule:nonzero;fill:rgb(100%,84.3%,0%);fill-opacity:1;" d="M 385.097656 175.085938 C 385.097656 179.558594 378.390625 179.558594 378.390625 175.085938 C 378.390625 170.613281 385.097656 170.613281 385.097656 175.085938 "/>
<path style=" stroke:none;fill-rule:nonzero;fill:rgb(100%,84.3%,0%);fill-opacity:1;" d="M 396.414062 169.125 C 396.414062 173.597656 389.707031 173.597656 389.707031 169.125 C 389.707031 164.652344 396.414062 164.652344 396.414062 169.125 "/>
<path style=" stroke:none;fill-rule:nonzero;fill:rgb(100%,84.3%,0%);fill-opacity:1;" d="M 120.171875 324.328125 C 120.171875 328.800781 113.460938 328.800781 113.460938 324.328125 C 113.460938 319.859375 120.171875 319.859375 120.171875 324.328125 "/>
<path style=" stroke:none;fill-rule:nonzero;fill:rgb(100%,84.3%,0%);fill-opacity:1;" d="M 107.5 175.03125 C 107.5 179.503906 100.789062 179.503906 100.789062 175.03125 C 100.789062 170.558594 107.5 170.558594 107.5 175.03125 "/>
<path style=" stroke:none;fill-rule:nonzero;fill:rgb(100%,84.3%,0%);fill-opacity:1;" d="M 105.644531 324.359375 C 105.644531 328.832031 98.933594 328.832031 98.933594 324.359375 C 98.933594 319.886719 105.644531 319.886719 105.644531 324.359375 "/>
<path style=" stroke:none;fill-rule:nonzero;fill:rgb(100%,84.3%,0%);fill-opacity:1;" d="M 398.695312 175.433594 C 398.695312 179.90625 391.988281 179.90625 391.988281 175.433594 C 391.988281 170.960938 398.695312 170.960938 398.695312 175.433594 "/>
<path style=" stroke:none;fill-rule:nonzero;fill:rgb(100%,84.3%,0%);fill-opacity:1;" d="M 108.28125 330.597656 C 108.28125 335.070312 101.570312 335.070312 101.570312 330.597656 C 101.570312 326.125 108.28125 326.125 108.28125 330.597656 "/>
<path style=" stroke:none;fill-rule:nonzero;fill:rgb(100%,84.3%,0%);fill-opacity:1;" d="M 355.21875 336.90625 C 355.21875 341.378906 348.507812 341.378906 348.507812 336.90625 C 348.507812 332.433594 355.21875 332.433594 355.21875 336.90625 "/>
<path style=" stroke:none;fill-rule:nonzero;fill:rgb(100%,84.3%,0%);fill-opacity:1;" d="M 146.335938 336.773438 C 146.335938 341.246094 139.628906 341.246094 139.628906 336.773438 C 139.628906 332.300781 146.335938 332.300781 146.335938 336.773438 "/>
<path style=" stroke:none;fill-rule:nonzero;fill:rgb(100%,84.3%,0%);fill-opacity:1;" d="M 358.695312 342.671875 C 358.695312 347.144531 351.988281 347.144531 351.988281 342.671875 C 351.988281 338.199219 358.695312 338.199219 358.695312 342.671875 "/>
<path style=" stroke:none;fill-rule:nonzero;fill:rgb(100%,84.3%,0%);fill-opacity:1;" d="M 465.980469 302.207031 C 465.980469 306.679688 459.269531 306.679688 459.269531 302.207031 C 459.269531 297.734375 465.980469 297.734375 465.980469 302.207031 "/>
<path style=" stroke:none;fill-rule:nonzero;fill:rgb(100%,84.3%,0%);fill-opacity:1;" d="M 87.863281 330.777344 C 87.863281 335.25 81.152344 335.25 81.152344 330.777344 C 81.152344 326.304688 87.863281 326.304688 87.863281 330.777344 "/>
<path style=" stroke:none;fill-rule:nonzero;fill:rgb(100%,84.3%,0%);fill-opacity:1;" d="M 465.980469 322.75 C 465.980469 327.222656 459.269531 327.222656 459.269531 322.75 C 459.269531 318.277344 465.980469 318.277344 465.980469 322.75 "/>
<path style=" stroke:none;fill-rule:nonzero;fill:rgb(100%,84.3%,0%);fill-opacity:1;" d="M 52.800781 271.636719 C 52.800781 276.109375 46.089844 276.109375 46.089844 271.636719 C 46.089844 267.164062 52.800781 267.164062 52.800781 271.636719 "/>
<path style=" stroke:none;fill-rule:nonzero;fill:rgb(100%,84.3%,0%);fill-opacity:1;" d="M 237.910156 175.058594 C 237.910156 179.53125 231.199219 179.53125 231.199219 175.058594 C 231.199219 170.585938 237.910156 170.585938 237.910156 175.058594 "/>
<path style=" stroke:none;fill-rule:nonzero;fill:rgb(100%,84.3%,0%);fill-opacity:1;" d="M 426.792969 174.984375 C 426.792969 179.457031 420.085938 179.457031 420.085938 174.984375 C 420.085938 170.511719 426.792969 170.511719 426.792969 174.984375 "/>
<path style=" stroke:none;fill-rule:nonzero;fill:rgb(100%,84.3%,0%);fill-opacity:1;" d="M 450.367188 169.125 C 450.367188 173.597656 443.660156 173.597656 443.660156 169.125 C 443.660156 164.652344 450.367188 164.652344 450.367188 169.125 "/>
<path style=" stroke:none;fill-rule:nonzero;fill:rgb(100%,84.3%,0%);fill-opacity:1;" d="M 52.730469 306.457031 C 52.730469 310.929688 46.019531 310.929688 46.019531 306.457031 C 46.019531 301.984375 52.730469 301.984375 52.730469 306.457031 "/>
<path style=" stroke:none;fill-rule:nonzero;fill:rgb(100%,84.3%,0%);fill-opacity:1;" d="M 52.730469 262.804688 C 52.730469 267.277344 46.019531 267.277344 46.019531 262.804688 C 46.019531 258.332031 52.730469 258.332031 52.730469 262.804688 "/>
<path style=" stroke:none;fill-rule:nonzero;fill:rgb(100%,84.3%,0%);fill-opacity:1;" d="M 68.148438 327.226562 C 68.148438 331.699219 61.441406 331.699219 61.441406 327.226562 C 61.441406 322.753906 68.148438 322.753906 68.148438 327.226562 "/>
<path style=" stroke:none;fill-rule:nonzero;fill:rgb(100%,84.3%,0%);fill-opacity:1;" d="M 79.789062 175.304688 C 79.789062 179.777344 73.078125 179.777344 73.078125 175.304688 C 73.078125 170.832031 79.789062 170.832031 79.789062 175.304688 "/>
<path style=" stroke:none;fill-rule:nonzero;fill:rgb(100%,84.3%,0%);fill-opacity:1;" d="M 389.496094 336.996094 C 389.496094 341.46875 382.789062 341.46875 382.789062 336.996094 C 382.789062 332.527344 389.496094 332.527344 389.496094 336.996094 "/>
<path style=" stroke:none;fill-rule:nonzero;fill:rgb(100%,84.3%,0%);fill-opacity:1;" d="M 57.050781 169.125 C 57.050781 173.597656 50.34375 173.597656 50.34375 169.125 C 50.34375 164.652344 57.050781 164.652344 57.050781 169.125 "/>
<path style=" stroke:none;fill-rule:nonzero;fill:rgb(100%,84.3%,0%);fill-opacity:1;" d="M 80.78125 342.875 C 80.78125 347.347656 74.070312 347.347656 74.070312 342.875 C 74.070312 338.402344 80.78125 338.402344 80.78125 342.875 "/>
<path style=" stroke:none;fill-rule:nonzero;fill:rgb(100%,84.3%,0%);fill-opacity:1;" d="M 118.808594 336.625 C 118.808594 341.097656 112.101562 341.097656 112.101562 336.625 C 112.101562 332.152344 118.808594 332.152344 118.808594 336.625 "/>
<path style=" stroke:none;fill-rule:nonzero;fill:rgb(100%,84.3%,0%);fill-opacity:1;" d="M 368.289062 169.125 C 368.289062 173.597656 361.582031 173.597656 361.582031 169.125 C 361.582031 164.652344 368.289062 164.652344 368.289062 169.125 "/>
<path style=" stroke:none;fill-rule:nonzero;fill:rgb(100%,84.3%,0%);fill-opacity:1;" d="M 111.082031 169.125 C 111.082031 173.597656 104.375 173.597656 104.375 169.125 C 104.375 164.652344 111.082031 164.652344 111.082031 169.125 "/>
<path style=" stroke:none;fill-rule:nonzero;fill:rgb(100%,84.3%,0%);fill-opacity:1;" d="M 69.21875 188.144531 C 69.21875 192.617188 62.507812 192.617188 62.507812 188.144531 C 62.507812 183.671875 69.21875 183.671875 69.21875 188.144531 "/>
</g>
</svg>
