<?xml version="1.0" encoding="UTF-8"?>
<svg xmlns="http://www.w3.org/2000/svg" xmlns:xlink="http://www.w3.org/1999/xlink" width="512pt" height="512pt" viewBox="0 0 512 512" version="1.1">
<g id="surface181">
<path style=" stroke:none;fill-rule:nonzero;fill:rgb(26.7%,26.7%,26.7%);fill-opacity:1;" d="M 0 -27.976562 L 480.738281 -27.976562 L 480.738281 512 L 0 512 Z M 0 -27.976562 "/>
<path style=" stroke:none;fill-rule:nonzero;fill:rgb(19.2%,38.8%,66.7%);fill-opacity:1;" d="M 42.667969 306.113281 L 469.332031 306.113281 L 469.332031 493.285156 L 42.667969 493.285156 Z M 42.667969 306.113281 "/>
<path style=" stroke:none;fill-rule:nonzero;fill:rgb(100%,100%,100%);fill-opacity:1;" d="M 19.1875 420.160156 C 19.1875 424.632812 12.476562 424.632812 12.476562 420.160156 C 12.476562 415.6875 19.1875 415.6875 19.1875 420.160156 "/>
<path style=" stroke:none;fill-rule:nonzero;fill:rgb(100%,100%,100%);fill-opacity:1;" d="M 36.628906 86.742188 C 36.628906 91.214844 29.921875 91.214844 29.921875 86.742188 C 29.921875 82.269531 36.628906 82.269531 36.628906 86.742188 "/>
<path style=" stroke:none;fill-rule:nonzero;fill:rgb(100%,100%,100%);fill-opacity:1;" d="M 70.171875 223.597656 C 70.171875 228.070312 63.464844 228.070312 63.464844 223.597656 C 63.464844 219.125 70.171875 219.125 70.171875 223.597656 "/>
<path style=" stroke:none;fill-rule:nonzero;fill:rgb(100%,100%,100%);fill-opacity:1;" d="M 423.042969 85.398438 C 423.042969 89.871094 416.335938 89.871094 416.335938 85.398438 C 416.335938 80.925781 423.042969 80.925781 423.042969 85.398438 "/>
<path style=" stroke:none;fill-rule:nonzero;fill:rgb(100%,100%,100%);fill-opacity:1;" d="M 9.792969 118.273438 C 9.792969 122.746094 3.085938 122.746094 3.085938 118.273438 C 3.085938 113.800781 9.792969 113.800781 9.792969 118.273438 "/>
<path style=" stroke:none;fill-rule:nonzero;fill:rgb(100%,100%,100%);fill-opacity:1;" d="M 16.503906 231.648438 C 16.503906 236.121094 9.792969 236.121094 9.792969 231.648438 C 9.792969 227.175781 16.503906 227.175781 16.503906 231.648438 "/>
<path style=" stroke:none;fill-rule:nonzero;fill:rgb(100%,100%,100%);fill-opacity:1;" d="M 95.664062 237.6875 C 95.664062 242.160156 88.957031 242.160156 88.957031 237.6875 C 88.957031 233.214844 95.664062 233.214844 95.664062 237.6875 "/>
<path style=" stroke:none;fill-rule:nonzero;fill:rgb(100%,100%,100%);fill-opacity:1;" d="M 347.238281 190.054688 C 347.238281 194.527344 340.527344 194.527344 340.527344 190.054688 C 340.527344 185.582031 347.238281 185.582031 347.238281 190.054688 "/>
<path style=" stroke:none;fill-rule:nonzero;fill:rgb(100%,100%,100%);fill-opacity:1;" d="M 10.464844 420.160156 C 10.464844 424.632812 3.757812 424.632812 3.757812 420.160156 C 3.757812 415.6875 10.464844 415.6875 10.464844 420.160156 "/>
<path style=" stroke:none;fill-rule:nonzero;fill:rgb(100%,100%,100%);fill-opacity:1;" d="M 31.933594 49.175781 C 31.933594 53.644531 25.226562 53.644531 25.226562 49.175781 C 25.226562 44.703125 31.933594 44.703125 31.933594 49.175781 "/>
<path style=" stroke:none;fill-rule:nonzero;fill:rgb(100%,100%,100%);fill-opacity:1;" d="M 144.636719 46.492188 C 144.636719 50.964844 137.929688 50.964844 137.929688 46.492188 C 137.929688 42.019531 144.636719 42.019531 144.636719 46.492188 "/>
<path style=" stroke:none;fill-rule:nonzero;fill:rgb(100%,100%,100%);fill-opacity:1;" d="M 321.746094 188.714844 C 321.746094 193.183594 315.035156 193.183594 315.035156 188.714844 C 315.035156 184.242188 321.746094 184.242188 321.746094 188.714844 "/>
<path style=" stroke:none;fill-rule:nonzero;fill:rgb(100%,100%,100%);fill-opacity:1;" d="M 319.730469 116.261719 C 319.730469 120.730469 313.023438 120.730469 313.023438 116.261719 C 313.023438 111.789062 319.730469 111.789062 319.730469 116.261719 "/>
<path style=" stroke:none;fill-rule:nonzero;fill:rgb(100%,100%,100%);fill-opacity:1;" d="M 345.222656 8.921875 C 345.222656 13.394531 338.515625 13.394531 338.515625 8.921875 C 338.515625 4.449219 345.222656 4.449219 345.222656 8.921875 "/>
<path style=" stroke:none;fill-rule:nonzero;fill:rgb(100%,100%,100%);fill-opacity:1;" d="M 153.359375 268.546875 C 153.359375 273.015625 146.648438 273.015625 146.648438 268.546875 C 146.648438 264.074219 153.359375 264.074219 153.359375 268.546875 "/>
<path style=" stroke:none;fill-rule:nonzero;fill:rgb(100%,100%,100%);fill-opacity:1;" d="M 482.078125 508.714844 C 482.078125 513.183594 475.371094 513.183594 475.371094 508.714844 C 475.371094 504.242188 482.078125 504.242188 482.078125 508.714844 "/>
<path style=" stroke:none;fill-rule:nonzero;fill:rgb(100%,100%,100%);fill-opacity:1;" d="M 232.519531 251.101562 C 232.519531 255.574219 225.8125 255.574219 225.8125 251.101562 C 225.8125 246.628906 232.519531 246.628906 232.519531 251.101562 "/>
<path style=" stroke:none;fill-rule:nonzero;fill:rgb(100%,100%,100%);fill-opacity:1;" d="M 361.996094 237.6875 C 361.996094 242.160156 355.289062 242.160156 355.289062 237.6875 C 355.289062 233.214844 361.996094 233.214844 361.996094 237.6875 "/>
<path style=" stroke:none;fill-rule:nonzero;fill:rgb(100%,100%,100%);fill-opacity:1;" d="M 292.226562 242.382812 C 292.226562 246.855469 285.519531 246.855469 285.519531 242.382812 C 285.519531 237.910156 292.226562 237.910156 292.226562 242.382812 "/>
<path style=" stroke:none;fill-rule:nonzero;fill:rgb(100%,100%,100%);fill-opacity:1;" d="M 429.753906 239.027344 C 429.753906 243.5 423.042969 243.5 423.042969 239.027344 C 423.042969 234.554688 429.753906 234.554688 429.753906 239.027344 "/>
<path style=" stroke:none;fill-rule:nonzero;fill:rgb(100%,100%,100%);fill-opacity:1;" d="M 439.816406 109.550781 C 439.816406 114.023438 433.105469 114.023438 433.105469 109.550781 C 433.105469 105.078125 439.816406 105.078125 439.816406 109.550781 "/>
<path style=" stroke:none;fill-rule:nonzero;fill:rgb(100%,100%,100%);fill-opacity:1;" d="M 226.480469 253.785156 C 226.480469 258.257812 219.773438 258.257812 219.773438 253.785156 C 219.773438 249.3125 226.480469 249.3125 226.480469 253.785156 "/>
<path style=" stroke:none;fill-rule:nonzero;fill:rgb(100%,100%,100%);fill-opacity:1;" d="M 198.976562 259.824219 C 198.976562 264.296875 192.269531 264.296875 192.269531 259.824219 C 192.269531 255.351562 198.976562 255.351562 198.976562 259.824219 "/>
<path style=" stroke:none;fill-rule:nonzero;fill:rgb(100%,100%,100%);fill-opacity:1;" d="M 444.511719 40.453125 C 444.511719 44.925781 437.800781 44.925781 437.800781 40.453125 C 437.800781 35.980469 444.511719 35.980469 444.511719 40.453125 "/>
<path style=" stroke:none;fill-rule:nonzero;fill:rgb(100%,100%,100%);fill-opacity:1;" d="M 283.503906 115.589844 C 283.503906 120.0625 276.796875 120.0625 276.796875 115.589844 C 276.796875 111.117188 283.503906 111.117188 283.503906 115.589844 "/>
<path style=" stroke:none;fill-rule:nonzero;fill:rgb(100%,100%,100%);fill-opacity:1;" d="M 472.015625 504.6875 C 472.015625 509.160156 465.308594 509.160156 465.308594 504.6875 C 465.308594 500.214844 472.015625 500.214844 472.015625 504.6875 "/>
<path style=" stroke:none;fill-rule:nonzero;fill:rgb(100%,100%,100%);fill-opacity:1;" d="M 180.191406 36.429688 C 180.191406 40.902344 173.484375 40.902344 173.484375 36.429688 C 173.484375 31.957031 180.191406 31.957031 180.191406 36.429688 "/>
<path style=" stroke:none;fill-rule:nonzero;fill:rgb(100%,100%,100%);fill-opacity:1;" d="M 253.316406 192.738281 C 253.316406 197.210938 246.609375 197.210938 246.609375 192.738281 C 246.609375 188.265625 253.316406 188.265625 253.316406 192.738281 "/>
<path style=" stroke:none;fill-rule:nonzero;fill:rgb(100%,100%,100%);fill-opacity:1;" d="M 72.855469 80.703125 C 72.855469 85.175781 66.148438 85.175781 66.148438 80.703125 C 66.148438 76.230469 72.855469 76.230469 72.855469 80.703125 "/>
<path style=" stroke:none;fill-rule:nonzero;fill:rgb(100%,100%,100%);fill-opacity:1;" d="M 417.007812 237.015625 C 417.007812 241.488281 410.296875 241.488281 410.296875 237.015625 C 410.296875 232.542969 417.007812 232.542969 417.007812 237.015625 "/>
<path style=" stroke:none;fill-rule:nonzero;fill:rgb(100%,100%,100%);fill-opacity:1;" d="M 350.589844 45.148438 C 350.589844 49.621094 343.882812 49.621094 343.882812 45.148438 C 343.882812 40.675781 350.589844 40.675781 350.589844 45.148438 "/>
<path style=" stroke:none;fill-rule:nonzero;fill:rgb(100%,100%,100%);fill-opacity:1;" d="M 181.535156 214.203125 C 181.535156 218.675781 174.824219 218.675781 174.824219 214.203125 C 174.824219 209.734375 181.535156 209.734375 181.535156 214.203125 "/>
<path style=" stroke:none;fill-rule:nonzero;fill:rgb(100%,100%,100%);fill-opacity:1;" d="M 154.03125 151.816406 C 154.03125 156.289062 147.320312 156.289062 147.320312 151.816406 C 147.320312 147.34375 154.03125 147.34375 154.03125 151.816406 "/>
<path style=" stroke:none;fill-rule:nonzero;fill:rgb(100%,100%,100%);fill-opacity:1;" d="M 82.917969 36.429688 C 82.917969 40.902344 76.210938 40.902344 76.210938 36.429688 C 76.210938 31.957031 82.917969 31.957031 82.917969 36.429688 "/>
<path style=" stroke:none;fill-rule:nonzero;fill:rgb(100%,100%,100%);fill-opacity:1;" d="M 372.730469 511.394531 C 372.730469 515.867188 366.019531 515.867188 366.019531 511.394531 C 366.019531 506.921875 372.730469 506.921875 372.730469 511.394531 "/>
<path style=" stroke:none;fill-rule:nonzero;fill:rgb(100%,100%,100%);fill-opacity:1;" d="M 401.578125 208.839844 C 401.578125 213.3125 394.867188 213.3125 394.867188 208.839844 C 394.867188 204.367188 401.578125 204.367188 401.578125 208.839844 "/>
<path style=" stroke:none;fill-rule:nonzero;fill:rgb(100%,100%,100%);fill-opacity:1;" d="M 373.398438 171.269531 C 373.398438 175.742188 366.691406 175.742188 366.691406 171.269531 C 366.691406 166.796875 373.398438 166.796875 373.398438 171.269531 "/>
<path style=" stroke:none;fill-rule:nonzero;fill:rgb(100%,100%,100%);fill-opacity:1;" d="M 388.160156 116.929688 C 388.160156 121.402344 381.449219 121.402344 381.449219 116.929688 C 381.449219 112.457031 388.160156 112.457031 388.160156 116.929688 "/>
<path style=" stroke:none;fill-rule:nonzero;fill:rgb(100%,100%,100%);fill-opacity:1;" d="M 394.867188 170.601562 C 394.867188 175.074219 388.160156 175.074219 388.160156 170.601562 C 388.160156 166.128906 394.867188 166.128906 394.867188 170.601562 "/>
<path style=" stroke:none;fill-rule:nonzero;fill:rgb(100%,100%,100%);fill-opacity:1;" d="M 103.714844 10.933594 C 103.714844 15.40625 97.007812 15.40625 97.007812 10.933594 C 97.007812 6.460938 103.714844 6.460938 103.714844 10.933594 "/>
<path style=" stroke:none;fill-rule:nonzero;fill:rgb(100%,100%,100%);fill-opacity:1;" d="M 21.199219 338.984375 C 21.199219 343.457031 14.492188 343.457031 14.492188 338.984375 C 14.492188 334.511719 21.199219 334.511719 21.199219 338.984375 "/>
<path style=" stroke:none;fill-rule:nonzero;fill:rgb(100%,100%,100%);fill-opacity:1;" d="M 3.085938 470.472656 C 3.085938 474.945312 -3.621094 474.945312 -3.621094 470.472656 C -3.621094 466 3.085938 466 3.085938 470.472656 "/>
<path style=" stroke:none;fill-rule:nonzero;fill:rgb(100%,100%,100%);fill-opacity:1;" d="M 203.671875 120.957031 C 203.671875 125.429688 196.964844 125.429688 196.964844 120.957031 C 196.964844 116.484375 203.671875 116.484375 203.671875 120.957031 "/>
<path style=" stroke:none;fill-rule:nonzero;fill:rgb(100%,100%,100%);fill-opacity:1;" d="M 185.558594 190.054688 C 185.558594 194.527344 178.851562 194.527344 178.851562 190.054688 C 178.851562 185.582031 185.558594 185.582031 185.558594 190.054688 "/>
<path style=" stroke:none;fill-rule:nonzero;fill:rgb(100%,100%,100%);fill-opacity:1;" d="M 424.386719 85.398438 C 424.386719 89.871094 417.675781 89.871094 417.675781 85.398438 C 417.675781 80.925781 424.386719 80.925781 424.386719 85.398438 "/>
<path style=" stroke:none;fill-rule:nonzero;fill:rgb(100%,100%,100%);fill-opacity:1;" d="M 64.132812 277.9375 C 64.132812 282.410156 57.425781 282.410156 57.425781 277.9375 C 57.425781 273.464844 64.132812 273.464844 64.132812 277.9375 "/>
<path style=" stroke:none;fill-rule:nonzero;fill:rgb(100%,100%,100%);fill-opacity:1;" d="M 394.867188 245.734375 C 394.867188 250.207031 388.160156 250.207031 388.160156 245.734375 C 388.160156 241.261719 394.867188 241.261719 394.867188 245.734375 "/>
<path style=" stroke:none;fill-rule:nonzero;fill:rgb(100%,100%,100%);fill-opacity:1;" d="M 476.710938 238.355469 C 476.710938 242.828125 470.003906 242.828125 470.003906 238.355469 C 470.003906 233.882812 476.710938 233.882812 476.710938 238.355469 "/>
<path style=" stroke:none;fill-rule:nonzero;fill:rgb(100%,100%,100%);fill-opacity:1;" d="M 425.054688 295.378906 C 425.054688 299.851562 418.347656 299.851562 418.347656 295.378906 C 418.347656 290.90625 425.054688 290.90625 425.054688 295.378906 "/>
<path style=" stroke:none;fill-rule:nonzero;fill:rgb(100%,100%,100%);fill-opacity:1;" d="M 455.917969 133.703125 C 455.917969 138.175781 449.207031 138.175781 449.207031 133.703125 C 449.207031 129.230469 455.917969 129.230469 455.917969 133.703125 "/>
<path style=" stroke:none;fill-rule:nonzero;fill:rgb(100%,100%,100%);fill-opacity:1;" d="M 85.601562 291.355469 C 85.601562 295.828125 78.894531 295.828125 78.894531 291.355469 C 78.894531 286.882812 85.601562 286.882812 85.601562 291.355469 "/>
<path style=" stroke:none;fill-rule:nonzero;fill:rgb(100%,100%,100%);fill-opacity:1;" d="M 221.785156 288 C 221.785156 292.472656 215.078125 292.472656 215.078125 288 C 215.078125 283.527344 221.785156 283.527344 221.785156 288 "/>
<path style=" stroke:none;fill-rule:nonzero;fill:rgb(100%,100%,100%);fill-opacity:1;" d="M 47.363281 77.351562 C 47.363281 81.824219 40.652344 81.824219 40.652344 77.351562 C 40.652344 72.878906 47.363281 72.878906 47.363281 77.351562 "/>
<path style=" stroke:none;fill-rule:nonzero;fill:rgb(100%,100%,100%);fill-opacity:1;" d="M 19.1875 207.496094 C 19.1875 211.96875 12.476562 211.96875 12.476562 207.496094 C 12.476562 203.023438 19.1875 203.023438 19.1875 207.496094 "/>
<path style=" stroke:none;fill-rule:nonzero;fill:rgb(100%,100%,100%);fill-opacity:1;" d="M 247.949219 180.660156 C 247.949219 185.132812 241.242188 185.132812 241.242188 180.660156 C 241.242188 176.191406 247.949219 176.191406 247.949219 180.660156 "/>
<path style=" stroke:none;fill-rule:nonzero;fill:rgb(100%,100%,100%);fill-opacity:1;" d="M 80.90625 493.953125 C 80.90625 498.425781 74.195312 498.425781 74.195312 493.953125 C 74.195312 489.480469 80.90625 489.480469 80.90625 493.953125 "/>
<path style=" stroke:none;fill-rule:nonzero;fill:rgb(100%,100%,100%);fill-opacity:1;" d="M 216.417969 58.566406 C 216.417969 63.039062 209.710938 63.039062 209.710938 58.566406 C 209.710938 54.09375 216.417969 54.09375 216.417969 58.566406 "/>
<path style=" stroke:none;fill-rule:nonzero;fill:rgb(100%,100%,100%);fill-opacity:1;" d="M 269.417969 171.269531 C 269.417969 175.742188 262.707031 175.742188 262.707031 171.269531 C 262.707031 166.796875 269.417969 166.796875 269.417969 171.269531 "/>
<path style=" stroke:none;fill-rule:nonzero;fill:rgb(100%,100%,100%);fill-opacity:1;" d="M 64.132812 56.554688 C 64.132812 61.027344 57.425781 61.027344 57.425781 56.554688 C 57.425781 52.082031 64.132812 52.082031 64.132812 56.554688 "/>
<path style=" stroke:none;fill-rule:nonzero;fill:rgb(100%,100%,100%);fill-opacity:1;" d="M 213.066406 182.675781 C 213.066406 187.148438 206.355469 187.148438 206.355469 182.675781 C 206.355469 178.203125 213.066406 178.203125 213.066406 182.675781 "/>
<path style=" stroke:none;fill-rule:nonzero;fill:rgb(100%,100%,100%);fill-opacity:1;" d="M 113.105469 508.042969 C 113.105469 512.515625 106.398438 512.515625 106.398438 508.042969 C 106.398438 503.570312 113.105469 503.570312 113.105469 508.042969 "/>
<path style=" stroke:none;fill-rule:nonzero;fill:rgb(100%,100%,100%);fill-opacity:1;" d="M 309.667969 102.171875 C 309.667969 106.644531 302.960938 106.644531 302.960938 102.171875 C 302.960938 97.699219 309.667969 97.699219 309.667969 102.171875 "/>
<path style=" stroke:none;fill-rule:nonzero;fill:rgb(100%,100%,100%);fill-opacity:1;" d="M 429.082031 209.507812 C 429.082031 213.980469 422.371094 213.980469 422.371094 209.507812 C 422.371094 205.035156 429.082031 205.035156 429.082031 209.507812 "/>
<path style=" stroke:none;fill-rule:nonzero;fill:rgb(100%,100%,100%);fill-opacity:1;" d="M 398.222656 288.671875 C 398.222656 293.144531 391.515625 293.144531 391.515625 288.671875 C 391.515625 284.199219 398.222656 284.199219 398.222656 288.671875 "/>
<path style=" stroke:none;fill-rule:nonzero;fill:rgb(100%,100%,100%);fill-opacity:1;" d="M 240.570312 224.9375 C 240.570312 229.410156 233.863281 229.410156 233.863281 224.9375 C 233.863281 220.464844 240.570312 220.464844 240.570312 224.9375 "/>
<path style=" stroke:none;fill-rule:nonzero;fill:rgb(100%,100%,100%);fill-opacity:1;" d="M 345.894531 27.707031 C 345.894531 32.179688 339.1875 32.179688 339.1875 27.707031 C 339.1875 23.234375 345.894531 23.234375 345.894531 27.707031 "/>
<path style=" stroke:none;fill-rule:nonzero;fill:rgb(100%,100%,100%);fill-opacity:1;" d="M 35.957031 246.40625 C 35.957031 250.878906 29.25 250.878906 29.25 246.40625 C 29.25 241.933594 35.957031 241.933594 35.957031 246.40625 "/>
<path style=" stroke:none;fill-rule:nonzero;fill:rgb(100%,100%,100%);fill-opacity:1;" d="M 73.527344 -1.140625 C 73.527344 3.332031 66.816406 3.332031 66.816406 -1.140625 C 66.816406 -5.613281 73.527344 -5.613281 73.527344 -1.140625 "/>
<path style=" stroke:none;fill-rule:nonzero;fill:rgb(100%,100%,100%);fill-opacity:1;" d="M 481.410156 487.246094 C 481.410156 491.71875 474.699219 491.71875 474.699219 487.246094 C 474.699219 482.773438 481.410156 482.773438 481.410156 487.246094 "/>
<path style=" stroke:none;fill-rule:nonzero;fill:rgb(100%,100%,100%);fill-opacity:1;" d="M 18.515625 439.613281 C 18.515625 444.085938 11.808594 444.085938 11.808594 439.613281 C 11.808594 435.140625 18.515625 435.140625 18.515625 439.613281 "/>
<path style=" stroke:none;fill-rule:nonzero;fill:rgb(100%,100%,100%);fill-opacity:1;" d="M 355.957031 38.441406 C 355.957031 42.914062 349.25 42.914062 349.25 38.441406 C 349.25 33.96875 355.957031 33.96875 355.957031 38.441406 "/>
<path style=" stroke:none;fill-rule:nonzero;fill:rgb(100%,100%,100%);fill-opacity:1;" d="M 101.03125 139.738281 C 101.03125 144.210938 94.324219 144.210938 94.324219 139.738281 C 94.324219 135.269531 101.03125 135.269531 101.03125 139.738281 "/>
<path style=" stroke:none;fill-rule:nonzero;fill:rgb(100%,100%,100%);fill-opacity:1;" d="M 37.300781 336.972656 C 37.300781 341.445312 30.589844 341.445312 30.589844 336.972656 C 30.589844 332.5 37.300781 332.5 37.300781 336.972656 "/>
<path style=" stroke:none;fill-rule:nonzero;fill:rgb(100%,100%,100%);fill-opacity:1;" d="M 109.082031 214.875 C 109.082031 219.347656 102.371094 219.347656 102.371094 214.875 C 102.371094 210.402344 109.082031 210.402344 109.082031 214.875 "/>
<path style=" stroke:none;fill-rule:nonzero;fill:rgb(100%,100%,100%);fill-opacity:1;" d="M 139.269531 275.253906 C 139.269531 279.726562 132.5625 279.726562 132.5625 275.253906 C 132.5625 270.78125 139.269531 270.78125 139.269531 275.253906 "/>
<path style=" stroke:none;fill-rule:nonzero;fill:rgb(100%,100%,100%);fill-opacity:1;" d="M 264.050781 224.269531 C 264.050781 228.742188 257.339844 228.742188 257.339844 224.269531 C 257.339844 219.796875 264.050781 219.796875 264.050781 224.269531 "/>
<path style=" stroke:none;fill-rule:nonzero;fill:rgb(100%,100%,100%);fill-opacity:1;" d="M 237.886719 2.214844 C 237.886719 6.6875 231.175781 6.6875 231.175781 2.214844 C 231.175781 -2.257812 237.886719 -2.257812 237.886719 2.214844 "/>
<path style=" stroke:none;fill-rule:nonzero;fill:rgb(100%,100%,100%);fill-opacity:1;" d="M 162.078125 143.09375 C 162.078125 147.566406 155.371094 147.566406 155.371094 143.09375 C 155.371094 138.621094 162.078125 138.621094 162.078125 143.09375 "/>
<path style=" stroke:none;fill-rule:nonzero;fill:rgb(100%,100%,100%);fill-opacity:1;" d="M 35.957031 210.179688 C 35.957031 214.652344 29.25 214.652344 29.25 210.179688 C 29.25 205.707031 35.957031 205.707031 35.957031 210.179688 "/>
<path style=" stroke:none;fill-rule:nonzero;fill:rgb(100%,100%,100%);fill-opacity:1;" d="M 167.445312 106.195312 C 167.445312 110.667969 160.738281 110.667969 160.738281 106.195312 C 160.738281 101.722656 167.445312 101.722656 167.445312 106.195312 "/>
<path style=" stroke:none;fill-rule:nonzero;fill:rgb(100%,100%,100%);fill-opacity:1;" d="M 8.453125 510.054688 C 8.453125 514.527344 1.746094 514.527344 1.746094 510.054688 C 1.746094 505.582031 8.453125 505.582031 8.453125 510.054688 "/>
<path style=" stroke:none;fill-rule:nonzero;fill:rgb(100%,100%,100%);fill-opacity:1;" d="M 376.753906 224.9375 C 376.753906 229.410156 370.046875 229.410156 370.046875 224.9375 C 370.046875 220.464844 376.753906 220.464844 376.753906 224.9375 "/>
<path style=" stroke:none;fill-rule:nonzero;fill:rgb(100%,100%,100%);fill-opacity:1;" d="M 59.4375 222.257812 C 59.4375 226.726562 52.730469 226.726562 52.730469 222.257812 C 52.730469 217.785156 59.4375 217.785156 59.4375 222.257812 "/>
<path style=" stroke:none;fill-rule:nonzero;fill:rgb(100%,100%,100%);fill-opacity:1;" d="M 107.070312 16.300781 C 107.070312 20.773438 100.359375 20.773438 100.359375 16.300781 C 100.359375 11.828125 107.070312 11.828125 107.070312 16.300781 "/>
<path style=" stroke:none;fill-rule:nonzero;fill:rgb(100%,100%,100%);fill-opacity:1;" d="M 182.207031 126.992188 C 182.207031 131.464844 175.496094 131.464844 175.496094 126.992188 C 175.496094 122.523438 182.207031 122.523438 182.207031 126.992188 "/>
<path style=" stroke:none;fill-rule:nonzero;fill:rgb(100%,100%,100%);fill-opacity:1;" d="M 27.90625 451.019531 C 27.90625 455.492188 21.199219 455.492188 21.199219 451.019531 C 21.199219 446.546875 27.90625 446.546875 27.90625 451.019531 "/>
<path style=" stroke:none;fill-rule:nonzero;fill:rgb(100%,100%,100%);fill-opacity:1;" d="M 288.871094 24.351562 C 288.871094 28.824219 282.164062 28.824219 282.164062 24.351562 C 282.164062 19.878906 288.871094 19.878906 288.871094 24.351562 "/>
<path style=" stroke:none;fill-rule:nonzero;fill:rgb(100%,84.3%,0%);fill-opacity:1;" d="M 52.730469 457.8125 C 52.730469 462.285156 46.019531 462.285156 46.019531 457.8125 C 46.019531 453.339844 52.730469 453.339844 52.730469 457.8125 "/>
<path style=" stroke:none;fill-rule:nonzero;fill:rgb(100%,84.3%,0%);fill-opacity:1;" d="M 220.796875 312.820312 C 220.796875 317.292969 214.089844 317.292969 214.089844 312.820312 C 214.089844 308.347656 220.796875 308.347656 220.796875 312.820312 "/>
<path style=" stroke:none;fill-rule:nonzero;fill:rgb(100%,84.3%,0%);fill-opacity:1;" d="M 121.242188 486.574219 C 121.242188 491.046875 114.53125 491.046875 114.53125 486.574219 C 114.53125 482.101562 121.242188 482.101562 121.242188 486.574219 "/>
<path style=" stroke:none;fill-rule:nonzero;fill:rgb(100%,84.3%,0%);fill-opacity:1;" d="M 437.179688 324.5625 C 437.179688 329.035156 430.46875 329.035156 430.46875 324.5625 C 430.46875 320.089844 437.179688 320.089844 437.179688 324.5625 "/>
<path style=" stroke:none;fill-rule:nonzero;fill:rgb(100%,84.3%,0%);fill-opacity:1;" d="M 452.585938 486.382812 C 452.585938 490.855469 445.875 490.855469 445.875 486.382812 C 445.875 481.910156 452.585938 481.910156 452.585938 486.382812 "/>
<path style=" stroke:none;fill-rule:nonzero;fill:rgb(100%,84.3%,0%);fill-opacity:1;" d="M 465.980469 452.613281 C 465.980469 457.085938 459.269531 457.085938 459.269531 452.613281 C 459.269531 448.144531 465.980469 448.144531 465.980469 452.613281 "/>
<path style=" stroke:none;fill-rule:nonzero;fill:rgb(100%,84.3%,0%);fill-opacity:1;" d="M 111.683594 480.3125 C 111.683594 484.785156 104.972656 484.785156 104.972656 480.3125 C 104.972656 475.839844 111.683594 475.839844 111.683594 480.3125 "/>
<path style=" stroke:none;fill-rule:nonzero;fill:rgb(100%,84.3%,0%);fill-opacity:1;" d="M 412.726562 318.910156 C 412.726562 323.382812 406.019531 323.382812 406.019531 318.910156 C 406.019531 314.4375 412.726562 314.4375 412.726562 318.910156 "/>
<path style=" stroke:none;fill-rule:nonzero;fill:rgb(100%,84.3%,0%);fill-opacity:1;" d="M 408.902344 324.953125 C 408.902344 329.425781 402.195312 329.425781 402.195312 324.953125 C 402.195312 320.480469 408.902344 320.480469 408.902344 324.953125 "/>
<path style=" stroke:none;fill-rule:nonzero;fill:rgb(100%,84.3%,0%);fill-opacity:1;" d="M 52.730469 358.128906 C 52.730469 362.601562 46.019531 362.601562 46.019531 358.128906 C 46.019531 353.65625 52.730469 353.65625 52.730469 358.128906 "/>
<path style=" stroke:none;fill-rule:nonzero;fill:rgb(100%,84.3%,0%);fill-opacity:1;" d="M 59.003906 326.1875 C 59.003906 330.660156 52.296875 330.660156 52.296875 326.1875 C 52.296875 321.714844 59.003906 321.714844 59.003906 326.1875 "/>
<path style=" stroke:none;fill-rule:nonzero;fill:rgb(100%,84.3%,0%);fill-opacity:1;" d="M 155.886719 486.574219 C 155.886719 491.046875 149.175781 491.046875 149.175781 486.574219 C 149.175781 482.101562 155.886719 482.101562 155.886719 486.574219 "/>
<path style=" stroke:none;fill-rule:nonzero;fill:rgb(100%,84.3%,0%);fill-opacity:1;" d="M 423.535156 312.820312 C 423.535156 317.292969 416.824219 317.292969 416.824219 312.820312 C 416.824219 308.347656 423.535156 308.347656 423.535156 312.820312 "/>
<path style=" stroke:none;fill-rule:nonzero;fill:rgb(100%,84.3%,0%);fill-opacity:1;" d="M 80.972656 474.65625 C 80.972656 479.128906 74.265625 479.128906 74.265625 474.65625 C 74.265625 470.1875 80.972656 470.1875 80.972656 474.65625 "/>
<path style=" stroke:none;fill-rule:nonzero;fill:rgb(100%,84.3%,0%);fill-opacity:1;" d="M 443.886719 324.707031 C 443.886719 329.179688 437.175781 329.179688 437.175781 324.707031 C 437.175781 320.234375 443.886719 320.234375 443.886719 324.707031 "/>
<path style=" stroke:none;fill-rule:nonzero;fill:rgb(100%,84.3%,0%);fill-opacity:1;" d="M 403.175781 312.820312 C 403.175781 317.292969 396.464844 317.292969 396.464844 312.820312 C 396.464844 308.347656 403.175781 308.347656 403.175781 312.820312 "/>
<path style=" stroke:none;fill-rule:nonzero;fill:rgb(100%,84.3%,0%);fill-opacity:1;" d="M 52.730469 344.070312 C 52.730469 348.542969 46.019531 348.542969 46.019531 344.070312 C 46.019531 339.597656 52.730469 339.597656 52.730469 344.070312 "/>
<path style=" stroke:none;fill-rule:nonzero;fill:rgb(100%,84.3%,0%);fill-opacity:1;" d="M 83.378906 462.109375 C 83.378906 466.582031 76.671875 466.582031 76.671875 462.109375 C 76.671875 457.636719 83.378906 457.636719 83.378906 462.109375 "/>
<path style=" stroke:none;fill-rule:nonzero;fill:rgb(100%,84.3%,0%);fill-opacity:1;" d="M 52.730469 428.746094 C 52.730469 433.21875 46.019531 433.21875 46.019531 428.746094 C 46.019531 424.273438 52.730469 424.273438 52.730469 428.746094 "/>
<path style=" stroke:none;fill-rule:nonzero;fill:rgb(100%,84.3%,0%);fill-opacity:1;" d="M 206.78125 312.820312 C 206.78125 317.292969 200.074219 317.292969 200.074219 312.820312 C 200.074219 308.347656 206.78125 308.347656 206.78125 312.820312 "/>
<path style=" stroke:none;fill-rule:nonzero;fill:rgb(100%,84.3%,0%);fill-opacity:1;" d="M 107.761719 485.753906 C 107.761719 490.226562 101.050781 490.226562 101.050781 485.753906 C 101.050781 481.28125 107.761719 481.28125 107.761719 485.753906 "/>
<path style=" stroke:none;fill-rule:nonzero;fill:rgb(100%,84.3%,0%);fill-opacity:1;" d="M 61.039062 469.554688 C 61.039062 474.027344 54.328125 474.027344 54.328125 469.554688 C 54.328125 465.082031 61.039062 465.082031 61.039062 469.554688 "/>
<path style=" stroke:none;fill-rule:nonzero;fill:rgb(100%,84.3%,0%);fill-opacity:1;" d="M 405.953125 318.929688 C 405.953125 323.402344 399.242188 323.402344 399.242188 318.929688 C 399.242188 314.457031 405.953125 314.457031 405.953125 318.929688 "/>
<path style=" stroke:none;fill-rule:nonzero;fill:rgb(100%,84.3%,0%);fill-opacity:1;" d="M 92.980469 461.929688 C 92.980469 466.402344 86.273438 466.402344 86.273438 461.929688 C 86.273438 457.457031 92.980469 457.457031 92.980469 461.929688 "/>
<path style=" stroke:none;fill-rule:nonzero;fill:rgb(100%,84.3%,0%);fill-opacity:1;" d="M 419.929688 318.65625 C 419.929688 323.128906 413.21875 323.128906 413.21875 318.65625 C 413.21875 314.183594 419.929688 314.183594 419.929688 318.65625 "/>
<path style=" stroke:none;fill-rule:nonzero;fill:rgb(100%,84.3%,0%);fill-opacity:1;" d="M 345.246094 486.574219 C 345.246094 491.046875 338.535156 491.046875 338.535156 486.574219 C 338.535156 482.101562 345.246094 482.101562 345.246094 486.574219 "/>
<path style=" stroke:none;fill-rule:nonzero;fill:rgb(100%,84.3%,0%);fill-opacity:1;" d="M 379.425781 486.574219 C 379.425781 491.046875 372.714844 491.046875 372.714844 486.574219 C 372.714844 482.101562 379.425781 482.101562 379.425781 486.574219 "/>
<path style=" stroke:none;fill-rule:nonzero;fill:rgb(100%,84.3%,0%);fill-opacity:1;" d="M 217.097656 318.648438 C 217.097656 323.121094 210.390625 323.121094 210.390625 318.648438 C 210.390625 314.175781 217.097656 314.175781 217.097656 318.648438 "/>
<path style=" stroke:none;fill-rule:nonzero;fill:rgb(100%,84.3%,0%);fill-opacity:1;" d="M 375.804688 480.796875 C 375.804688 485.269531 369.097656 485.269531 369.097656 480.796875 C 369.097656 476.324219 375.804688 476.324219 375.804688 480.796875 "/>
<path style=" stroke:none;fill-rule:nonzero;fill:rgb(100%,84.3%,0%);fill-opacity:1;" d="M 231.199219 318.683594 C 231.199219 323.15625 224.492188 323.15625 224.492188 318.683594 C 224.492188 314.210938 231.199219 314.210938 231.199219 318.683594 "/>
<path style=" stroke:none;fill-rule:nonzero;fill:rgb(100%,84.3%,0%);fill-opacity:1;" d="M 465.980469 459.738281 C 465.980469 464.210938 459.269531 464.210938 459.269531 459.738281 C 459.269531 455.269531 465.980469 455.269531 465.980469 459.738281 "/>
<path style=" stroke:none;fill-rule:nonzero;fill:rgb(100%,84.3%,0%);fill-opacity:1;" d="M 440.632812 318.808594 C 440.632812 323.28125 433.921875 323.28125 433.921875 318.808594 C 433.921875 314.335938 440.632812 314.335938 440.632812 318.808594 "/>
<path style=" stroke:none;fill-rule:nonzero;fill:rgb(100%,84.3%,0%);fill-opacity:1;" d="M 87.511719 486.574219 C 87.511719 491.046875 80.804688 491.046875 80.804688 486.574219 C 80.804688 482.101562 87.511719 482.101562 87.511719 486.574219 "/>
<path style=" stroke:none;fill-rule:nonzero;fill:rgb(100%,84.3%,0%);fill-opacity:1;" d="M 94.242188 486.574219 C 94.242188 491.046875 87.535156 491.046875 87.535156 486.574219 C 87.535156 482.101562 94.242188 482.101562 94.242188 486.574219 "/>
<path style=" stroke:none;fill-rule:nonzero;fill:rgb(100%,84.3%,0%);fill-opacity:1;" d="M 457.078125 312.820312 C 457.078125 317.292969 450.367188 317.292969 450.367188 312.820312 C 450.367188 308.347656 457.078125 308.347656 457.078125 312.820312 "/>
<path style=" stroke:none;fill-rule:nonzero;fill:rgb(100%,84.3%,0%);fill-opacity:1;" d="M 94.59375 474.714844 C 94.59375 479.1875 87.882812 479.1875 87.882812 474.714844 C 87.882812 470.242188 94.59375 470.242188 94.59375 474.714844 "/>
<path style=" stroke:none;fill-rule:nonzero;fill:rgb(100%,84.3%,0%);fill-opacity:1;" d="M 210.246094 318.566406 C 210.246094 323.039062 203.539062 323.039062 203.539062 318.566406 C 203.539062 314.09375 210.246094 314.09375 210.246094 318.566406 "/>
<path style=" stroke:none;fill-rule:nonzero;fill:rgb(100%,84.3%,0%);fill-opacity:1;" d="M 364.957031 474.308594 C 364.957031 478.78125 358.246094 478.78125 358.246094 474.308594 C 358.246094 469.835938 364.957031 469.835938 364.957031 474.308594 "/>
<path style=" stroke:none;fill-rule:nonzero;fill:rgb(100%,84.3%,0%);fill-opacity:1;" d="M 84.375 468.746094 C 84.375 473.21875 77.664062 473.21875 77.664062 468.746094 C 77.664062 464.273438 84.375 464.273438 84.375 468.746094 "/>
<path style=" stroke:none;fill-rule:nonzero;fill:rgb(100%,84.3%,0%);fill-opacity:1;" d="M 465.980469 486.574219 C 465.980469 491.046875 459.269531 491.046875 459.269531 486.574219 C 459.269531 482.101562 465.980469 482.101562 465.980469 486.574219 "/>
<path style=" stroke:none;fill-rule:nonzero;fill:rgb(100%,84.3%,0%);fill-opacity:1;" d="M 416.613281 312.820312 C 416.613281 317.292969 409.90625 317.292969 409.90625 312.820312 C 409.90625 308.347656 416.613281 308.347656 416.613281 312.820312 "/>
<path style=" stroke:none;fill-rule:nonzero;fill:rgb(100%,84.3%,0%);fill-opacity:1;" d="M 52.730469 337.230469 C 52.730469 341.703125 46.019531 341.703125 46.019531 337.230469 C 46.019531 332.757812 52.730469 332.757812 52.730469 337.230469 "/>
<path style=" stroke:none;fill-rule:nonzero;fill:rgb(100%,84.3%,0%);fill-opacity:1;" d="M 74.9375 325.378906 C 74.9375 329.851562 68.230469 329.851562 68.230469 325.378906 C 68.230469 320.90625 74.9375 320.90625 74.9375 325.378906 "/>
<path style=" stroke:none;fill-rule:nonzero;fill:rgb(100%,84.3%,0%);fill-opacity:1;" d="M 439.183594 485.804688 C 439.183594 490.277344 432.476562 490.277344 432.476562 485.804688 C 432.476562 481.332031 439.183594 481.332031 439.183594 485.804688 "/>
<path style=" stroke:none;fill-rule:nonzero;fill:rgb(100%,84.3%,0%);fill-opacity:1;" d="M 430.050781 324.863281 C 430.050781 329.335938 423.34375 329.335938 423.34375 324.863281 C 423.34375 320.390625 430.050781 320.390625 430.050781 324.863281 "/>
<path style=" stroke:none;fill-rule:nonzero;fill:rgb(100%,84.3%,0%);fill-opacity:1;" d="M 90.628906 324.585938 C 90.628906 329.058594 83.917969 329.058594 83.917969 324.585938 C 83.917969 320.113281 90.628906 320.113281 90.628906 324.585938 "/>
<path style=" stroke:none;fill-rule:nonzero;fill:rgb(100%,84.3%,0%);fill-opacity:1;" d="M 83.886719 312.820312 C 83.886719 317.292969 77.175781 317.292969 77.175781 312.820312 C 77.175781 308.347656 83.886719 308.347656 83.886719 312.820312 "/>
<path style=" stroke:none;fill-rule:nonzero;fill:rgb(100%,84.3%,0%);fill-opacity:1;" d="M 63.761719 312.820312 C 63.761719 317.292969 57.050781 317.292969 57.050781 312.820312 C 57.050781 308.347656 63.761719 308.347656 63.761719 312.820312 "/>
<path style=" stroke:none;fill-rule:nonzero;fill:rgb(100%,84.3%,0%);fill-opacity:1;" d="M 83.917969 324.546875 C 83.917969 329.019531 77.210938 329.019531 77.210938 324.546875 C 77.210938 320.074219 83.917969 320.074219 83.917969 324.546875 "/>
<path style=" stroke:none;fill-rule:nonzero;fill:rgb(100%,84.3%,0%);fill-opacity:1;" d="M 399.957031 486.574219 C 399.957031 491.046875 393.246094 491.046875 393.246094 486.574219 C 393.246094 482.101562 399.957031 482.101562 399.957031 486.574219 "/>
<path style=" stroke:none;fill-rule:nonzero;fill:rgb(100%,84.3%,0%);fill-opacity:1;" d="M 438.777344 471.265625 C 438.777344 475.738281 432.070312 475.738281 432.070312 471.265625 C 432.070312 466.792969 438.777344 466.792969 438.777344 471.265625 "/>
<path style=" stroke:none;fill-rule:nonzero;fill:rgb(100%,84.3%,0%);fill-opacity:1;" d="M 348.472656 480.691406 C 348.472656 485.164062 341.765625 485.164062 341.765625 480.691406 C 341.765625 476.21875 348.472656 476.21875 348.472656 480.691406 "/>
<path style=" stroke:none;fill-rule:nonzero;fill:rgb(100%,84.3%,0%);fill-opacity:1;" d="M 458.816406 451.578125 C 458.816406 456.050781 452.105469 456.050781 452.105469 451.578125 C 452.105469 447.105469 458.816406 447.105469 458.816406 451.578125 "/>
<path style=" stroke:none;fill-rule:nonzero;fill:rgb(100%,84.3%,0%);fill-opacity:1;" d="M 77.101562 480.5625 C 77.101562 485.035156 70.390625 485.035156 70.390625 480.5625 C 70.390625 476.089844 77.101562 476.089844 77.101562 480.5625 "/>
<path style=" stroke:none;fill-rule:nonzero;fill:rgb(100%,84.3%,0%);fill-opacity:1;" d="M 112.816406 468.363281 C 112.816406 472.835938 106.109375 472.835938 106.109375 468.363281 C 106.109375 463.890625 112.816406 463.890625 112.816406 468.363281 "/>
<path style=" stroke:none;fill-rule:nonzero;fill:rgb(100%,84.3%,0%);fill-opacity:1;" d="M 139.28125 479.550781 C 139.28125 484.023438 132.574219 484.023438 132.574219 479.550781 C 132.574219 475.078125 139.28125 475.078125 139.28125 479.550781 "/>
<path style=" stroke:none;fill-rule:nonzero;fill:rgb(100%,84.3%,0%);fill-opacity:1;" d="M 154.121094 312.820312 C 154.121094 317.292969 147.414062 317.292969 147.414062 312.820312 C 147.414062 308.347656 154.121094 308.347656 154.121094 312.820312 "/>
<path style=" stroke:none;fill-rule:nonzero;fill:rgb(100%,84.3%,0%);fill-opacity:1;" d="M 91.933594 468.554688 C 91.933594 473.027344 85.226562 473.027344 85.226562 468.554688 C 85.226562 464.082031 91.933594 464.082031 91.933594 468.554688 "/>
<path style=" stroke:none;fill-rule:nonzero;fill:rgb(100%,84.3%,0%);fill-opacity:1;" d="M 202.09375 486.574219 C 202.09375 491.046875 195.386719 491.046875 195.386719 486.574219 C 195.386719 482.101562 202.09375 482.101562 202.09375 486.574219 "/>
<path style=" stroke:none;fill-rule:nonzero;fill:rgb(100%,84.3%,0%);fill-opacity:1;" d="M 52.976562 422.042969 C 52.976562 426.515625 46.265625 426.515625 46.265625 422.042969 C 46.265625 417.570312 52.976562 417.570312 52.976562 422.042969 "/>
<path style=" stroke:none;fill-rule:nonzero;fill:rgb(100%,84.3%,0%);fill-opacity:1;" d="M 64.53125 337.019531 C 64.53125 341.492188 57.820312 341.492188 57.820312 337.019531 C 57.820312 332.546875 64.53125 332.546875 64.53125 337.019531 "/>
<path style=" stroke:none;fill-rule:nonzero;fill:rgb(100%,84.3%,0%);fill-opacity:1;" d="M 465.933594 479.867188 C 465.933594 484.339844 459.222656 484.339844 459.222656 479.867188 C 459.222656 475.394531 465.933594 475.394531 465.933594 479.867188 "/>
<path style=" stroke:none;fill-rule:nonzero;fill:rgb(100%,84.3%,0%);fill-opacity:1;" d="M 452.730469 466.136719 C 452.730469 470.609375 446.023438 470.609375 446.023438 466.136719 C 446.023438 461.664062 452.730469 461.664062 452.730469 466.136719 "/>
<path style=" stroke:none;fill-rule:nonzero;fill:rgb(100%,84.3%,0%);fill-opacity:1;" d="M 438.296875 479.15625 C 438.296875 483.628906 431.589844 483.628906 431.589844 479.15625 C 431.589844 474.683594 438.296875 474.683594 438.296875 479.15625 "/>
<path style=" stroke:none;fill-rule:nonzero;fill:rgb(100%,84.3%,0%);fill-opacity:1;" d="M 419.675781 330.386719 C 419.675781 334.859375 412.964844 334.859375 412.964844 330.386719 C 412.964844 325.914062 419.675781 325.914062 419.675781 330.386719 "/>
<path style=" stroke:none;fill-rule:nonzero;fill:rgb(100%,84.3%,0%);fill-opacity:1;" d="M 52.730469 351.140625 C 52.730469 355.613281 46.019531 355.613281 46.019531 351.140625 C 46.019531 346.667969 52.730469 346.667969 52.730469 351.140625 "/>
<path style=" stroke:none;fill-rule:nonzero;fill:rgb(100%,84.3%,0%);fill-opacity:1;" d="M 56.097656 481.628906 C 56.097656 486.101562 49.390625 486.101562 49.390625 481.628906 C 49.390625 477.15625 56.097656 477.15625 56.097656 481.628906 "/>
<path style=" stroke:none;fill-rule:nonzero;fill:rgb(100%,84.3%,0%);fill-opacity:1;" d="M 375.214844 312.820312 C 375.214844 317.292969 368.507812 317.292969 368.507812 312.820312 C 368.507812 308.347656 375.214844 308.347656 375.214844 312.820312 "/>
<path style=" stroke:none;fill-rule:nonzero;fill:rgb(100%,84.3%,0%);fill-opacity:1;" d="M 101.042969 486.574219 C 101.042969 491.046875 94.335938 491.046875 94.335938 486.574219 C 94.335938 482.101562 101.042969 482.101562 101.042969 486.574219 "/>
<path style=" stroke:none;fill-rule:nonzero;fill:rgb(100%,84.3%,0%);fill-opacity:1;" d="M 199.765625 312.820312 C 199.765625 317.292969 193.054688 317.292969 193.054688 312.820312 C 193.054688 308.347656 199.765625 308.347656 199.765625 312.820312 "/>
<path style=" stroke:none;fill-rule:nonzero;fill:rgb(100%,84.3%,0%);fill-opacity:1;" d="M 52.730469 323.816406 C 52.730469 328.289062 46.019531 328.289062 46.019531 323.816406 C 46.019531 319.34375 52.730469 319.34375 52.730469 323.816406 "/>
<path style=" stroke:none;fill-rule:nonzero;fill:rgb(100%,84.3%,0%);fill-opacity:1;" d="M 57.121094 475 C 57.121094 479.472656 50.410156 479.472656 50.410156 475 C 50.410156 470.527344 57.121094 470.527344 57.121094 475 "/>
<path style=" stroke:none;fill-rule:nonzero;fill:rgb(100%,84.3%,0%);fill-opacity:1;" d="M 213.769531 312.820312 C 213.769531 317.292969 207.058594 317.292969 207.058594 312.820312 C 207.058594 308.347656 213.769531 308.347656 213.769531 312.820312 "/>
<path style=" stroke:none;fill-rule:nonzero;fill:rgb(100%,84.3%,0%);fill-opacity:1;" d="M 365.402344 486.574219 C 365.402344 491.046875 358.695312 491.046875 358.695312 486.574219 C 358.695312 482.101562 365.402344 482.101562 365.402344 486.574219 "/>
<path style=" stroke:none;fill-rule:nonzero;fill:rgb(100%,84.3%,0%);fill-opacity:1;" d="M 391.988281 319.183594 C 391.988281 323.65625 385.277344 323.65625 385.277344 319.183594 C 385.277344 314.710938 391.988281 314.710938 391.988281 319.183594 "/>
<path style=" stroke:none;fill-rule:nonzero;fill:rgb(100%,84.3%,0%);fill-opacity:1;" d="M 372.089844 474.941406 C 372.089844 479.414062 365.378906 479.414062 365.378906 474.941406 C 365.378906 470.46875 372.089844 470.46875 372.089844 474.941406 "/>
<path style=" stroke:none;fill-rule:nonzero;fill:rgb(100%,84.3%,0%);fill-opacity:1;" d="M 351.988281 486.484375 C 351.988281 490.957031 345.28125 490.957031 345.28125 486.484375 C 345.28125 482.011719 351.988281 482.011719 351.988281 486.484375 "/>
<path style=" stroke:none;fill-rule:nonzero;fill:rgb(100%,84.3%,0%);fill-opacity:1;" d="M 58.5625 446.839844 C 58.5625 451.3125 51.851562 451.3125 51.851562 446.839844 C 51.851562 442.367188 58.5625 442.367188 58.5625 446.839844 "/>
<path style=" stroke:none;fill-rule:nonzero;fill:rgb(100%,84.3%,0%);fill-opacity:1;" d="M 77.695312 468.125 C 77.695312 472.597656 70.984375 472.597656 70.984375 468.125 C 70.984375 463.652344 77.695312 463.652344 77.695312 468.125 "/>
<path style=" stroke:none;fill-rule:nonzero;fill:rgb(100%,84.3%,0%);fill-opacity:1;" d="M 127.976562 486.574219 C 127.976562 491.046875 121.269531 491.046875 121.269531 486.574219 C 121.269531 482.101562 127.976562 482.101562 127.976562 486.574219 "/>
<path style=" stroke:none;fill-rule:nonzero;fill:rgb(100%,84.3%,0%);fill-opacity:1;" d="M 140.320312 312.820312 C 140.320312 317.292969 133.609375 317.292969 133.609375 312.820312 C 133.609375 308.347656 140.320312 308.347656 140.320312 312.820312 "/>
<path style=" stroke:none;fill-rule:nonzero;fill:rgb(100%,84.3%,0%);fill-opacity:1;" d="M 141.636719 486.574219 C 141.636719 491.046875 134.929688 491.046875 134.929688 486.574219 C 134.929688 482.101562 141.636719 482.101562 141.636719 486.574219 "/>
<path style=" stroke:none;fill-rule:nonzero;fill:rgb(100%,84.3%,0%);fill-opacity:1;" d="M 445.878906 486.265625 C 445.878906 490.738281 439.167969 490.738281 439.167969 486.265625 C 439.167969 481.792969 445.878906 481.792969 445.878906 486.265625 "/>
<path style=" stroke:none;fill-rule:nonzero;fill:rgb(100%,84.3%,0%);fill-opacity:1;" d="M 386.261719 486.574219 C 386.261719 491.046875 379.554688 491.046875 379.554688 486.574219 C 379.554688 482.101562 386.261719 482.101562 386.261719 486.574219 "/>
<path style=" stroke:none;fill-rule:nonzero;fill:rgb(100%,84.3%,0%);fill-opacity:1;" d="M 67.46875 485.355469 C 67.46875 489.828125 60.757812 489.828125 60.757812 485.355469 C 60.757812 480.882812 67.46875 480.882812 67.46875 485.355469 "/>
<path style=" stroke:none;fill-rule:nonzero;fill:rgb(100%,84.3%,0%);fill-opacity:1;" d="M 445.914062 465.734375 C 445.914062 470.207031 439.207031 470.207031 439.207031 465.734375 C 439.207031 461.261719 445.914062 461.261719 445.914062 465.734375 "/>
<path style=" stroke:none;fill-rule:nonzero;fill:rgb(100%,84.3%,0%);fill-opacity:1;" d="M 83.957031 480.667969 C 83.957031 485.140625 77.25 485.140625 77.25 480.667969 C 77.25 476.195312 83.957031 476.195312 83.957031 480.667969 "/>
<path style=" stroke:none;fill-rule:nonzero;fill:rgb(100%,84.3%,0%);fill-opacity:1;" d="M 459.289062 486.089844 C 459.289062 490.5625 452.578125 490.5625 452.578125 486.089844 C 452.578125 481.617188 459.289062 481.617188 459.289062 486.089844 "/>
<path style=" stroke:none;fill-rule:nonzero;fill:rgb(100%,84.3%,0%);fill-opacity:1;" d="M 114.421875 486.574219 C 114.421875 491.046875 107.710938 491.046875 107.710938 486.574219 C 107.710938 482.101562 114.421875 482.101562 114.421875 486.574219 "/>
<path style=" stroke:none;fill-rule:nonzero;fill:rgb(100%,84.3%,0%);fill-opacity:1;" d="M 77.175781 312.820312 C 77.175781 317.292969 70.46875 317.292969 70.46875 312.820312 C 70.46875 308.347656 77.175781 308.347656 77.175781 312.820312 "/>
<path style=" stroke:none;fill-rule:nonzero;fill:rgb(100%,84.3%,0%);fill-opacity:1;" d="M 459.347656 472.152344 C 459.347656 476.625 452.636719 476.625 452.636719 472.152344 C 452.636719 467.679688 459.347656 467.679688 459.347656 472.152344 "/>
<path style=" stroke:none;fill-rule:nonzero;fill:rgb(100%,84.3%,0%);fill-opacity:1;" d="M 452.074219 472.980469 C 452.074219 477.453125 445.363281 477.453125 445.363281 472.980469 C 445.363281 468.507812 452.074219 468.507812 452.074219 472.980469 "/>
<path style=" stroke:none;fill-rule:nonzero;fill:rgb(100%,84.3%,0%);fill-opacity:1;" d="M 368.730469 480.75 C 368.730469 485.222656 362.023438 485.222656 362.023438 480.75 C 362.023438 476.277344 368.730469 476.277344 368.730469 480.75 "/>
<path style=" stroke:none;fill-rule:nonzero;fill:rgb(100%,84.3%,0%);fill-opacity:1;" d="M 60.632812 486.574219 C 60.632812 491.046875 53.925781 491.046875 53.925781 486.574219 C 53.925781 482.101562 60.632812 482.101562 60.632812 486.574219 "/>
<path style=" stroke:none;fill-rule:nonzero;fill:rgb(100%,84.3%,0%);fill-opacity:1;" d="M 58.75 333.609375 C 58.75 338.082031 52.039062 338.082031 52.039062 333.609375 C 52.039062 329.136719 58.75 329.136719 58.75 333.609375 "/>
<path style=" stroke:none;fill-rule:nonzero;fill:rgb(100%,84.3%,0%);fill-opacity:1;" d="M 465.980469 473.15625 C 465.980469 477.628906 459.269531 477.628906 459.269531 473.15625 C 459.269531 468.6875 465.980469 468.6875 465.980469 473.15625 "/>
<path style=" stroke:none;fill-rule:nonzero;fill:rgb(100%,84.3%,0%);fill-opacity:1;" d="M 52.730469 435.882812 C 52.730469 440.355469 46.019531 440.355469 46.019531 435.882812 C 46.019531 431.410156 52.730469 431.410156 52.730469 435.882812 "/>
<path style=" stroke:none;fill-rule:nonzero;fill:rgb(100%,84.3%,0%);fill-opacity:1;" d="M 97.550781 480.738281 C 97.550781 485.210938 90.839844 485.210938 90.839844 480.738281 C 90.839844 476.265625 97.550781 476.265625 97.550781 480.738281 "/>
<path style=" stroke:none;fill-rule:nonzero;fill:rgb(100%,84.3%,0%);fill-opacity:1;" d="M 122.074219 474.460938 C 122.074219 478.933594 115.367188 478.933594 115.367188 474.460938 C 115.367188 469.988281 122.074219 469.988281 122.074219 474.460938 "/>
<path style=" stroke:none;fill-rule:nonzero;fill:rgb(100%,84.3%,0%);fill-opacity:1;" d="M 52.730469 330.523438 C 52.730469 334.996094 46.019531 334.996094 46.019531 330.523438 C 46.019531 326.050781 52.730469 326.050781 52.730469 330.523438 "/>
<path style=" stroke:none;fill-rule:nonzero;fill:rgb(100%,84.3%,0%);fill-opacity:1;" d="M 430.242188 312.820312 C 430.242188 317.292969 423.535156 317.292969 423.535156 312.820312 C 423.535156 308.347656 430.242188 308.347656 430.242188 312.820312 "/>
<path style=" stroke:none;fill-rule:nonzero;fill:rgb(100%,84.3%,0%);fill-opacity:1;" d="M 58.425781 432.289062 C 58.425781 436.761719 51.71875 436.761719 51.71875 432.289062 C 51.71875 427.816406 58.425781 427.816406 58.425781 432.289062 "/>
<path style=" stroke:none;fill-rule:nonzero;fill:rgb(100%,84.3%,0%);fill-opacity:1;" d="M 416.121094 324.695312 C 416.121094 329.167969 409.414062 329.167969 409.414062 324.695312 C 409.414062 320.222656 416.121094 320.222656 416.121094 324.695312 "/>
<path style=" stroke:none;fill-rule:nonzero;fill:rgb(100%,84.3%,0%);fill-opacity:1;" d="M 58.601562 347.3125 C 58.601562 351.785156 51.894531 351.785156 51.894531 347.3125 C 51.894531 342.839844 58.601562 342.839844 58.601562 347.3125 "/>
<path style=" stroke:none;fill-rule:nonzero;fill:rgb(100%,84.3%,0%);fill-opacity:1;" d="M 98.53125 466.753906 C 98.53125 471.222656 91.824219 471.222656 91.824219 466.753906 C 91.824219 462.28125 98.53125 462.28125 98.53125 466.753906 "/>
<path style=" stroke:none;fill-rule:nonzero;fill:rgb(100%,84.3%,0%);fill-opacity:1;" d="M 65.714844 326.125 C 65.714844 330.597656 59.003906 330.597656 59.003906 326.125 C 59.003906 321.652344 65.714844 321.652344 65.714844 326.125 "/>
<path style=" stroke:none;fill-rule:nonzero;fill:rgb(100%,84.3%,0%);fill-opacity:1;" d="M 389.078125 312.820312 C 389.078125 317.292969 382.367188 317.292969 382.367188 312.820312 C 382.367188 308.347656 389.078125 308.347656 389.078125 312.820312 "/>
<path style=" stroke:none;fill-rule:nonzero;fill:rgb(100%,84.3%,0%);fill-opacity:1;" d="M 195.246094 486.574219 C 195.246094 491.046875 188.535156 491.046875 188.535156 486.574219 C 188.535156 482.101562 195.246094 482.101562 195.246094 486.574219 "/>
<path style=" stroke:none;fill-rule:nonzero;fill:rgb(100%,84.3%,0%);fill-opacity:1;" d="M 64.777344 351.042969 C 64.777344 355.515625 58.070312 355.515625 58.070312 351.042969 C 58.070312 346.570312 64.777344 346.570312 64.777344 351.042969 "/>
<path style=" stroke:none;fill-rule:nonzero;fill:rgb(100%,84.3%,0%);fill-opacity:1;" d="M 147.175781 312.820312 C 147.175781 317.292969 140.46875 317.292969 140.46875 312.820312 C 140.46875 308.347656 147.175781 308.347656 147.175781 312.820312 "/>
<path style=" stroke:none;fill-rule:nonzero;fill:rgb(100%,84.3%,0%);fill-opacity:1;" d="M 362.035156 480.347656 C 362.035156 484.820312 355.328125 484.820312 355.328125 480.347656 C 355.328125 475.875 362.035156 475.875 362.035156 480.347656 "/>
<path style=" stroke:none;fill-rule:nonzero;fill:rgb(100%,84.3%,0%);fill-opacity:1;" d="M 58.84375 425.289062 C 58.84375 429.761719 52.136719 429.761719 52.136719 425.289062 C 52.136719 420.816406 58.84375 420.816406 58.84375 425.289062 "/>
<path style=" stroke:none;fill-rule:nonzero;fill:rgb(100%,84.3%,0%);fill-opacity:1;" d="M 71.566406 465.152344 C 71.566406 469.625 64.859375 469.625 64.859375 465.152344 C 64.859375 460.679688 71.566406 460.679688 71.566406 465.152344 "/>
<path style=" stroke:none;fill-rule:nonzero;fill:rgb(100%,84.3%,0%);fill-opacity:1;" d="M 97.574219 312.820312 C 97.574219 317.292969 90.867188 317.292969 90.867188 312.820312 C 90.867188 308.347656 97.574219 308.347656 97.574219 312.820312 "/>
<path style=" stroke:none;fill-rule:nonzero;fill:rgb(100%,84.3%,0%);fill-opacity:1;" d="M 59.023438 463.035156 C 59.023438 467.507812 52.316406 467.507812 52.316406 463.035156 C 52.316406 458.5625 59.023438 458.5625 59.023438 463.035156 "/>
<path style=" stroke:none;fill-rule:nonzero;fill:rgb(100%,84.3%,0%);fill-opacity:1;" d="M 459.378906 465.238281 C 459.378906 469.710938 452.671875 469.710938 452.671875 465.238281 C 452.671875 460.769531 459.378906 460.769531 459.378906 465.238281 "/>
<path style=" stroke:none;fill-rule:nonzero;fill:rgb(100%,84.3%,0%);fill-opacity:1;" d="M 74.175781 473.875 C 74.175781 478.347656 67.464844 478.347656 67.464844 473.875 C 67.464844 469.402344 74.175781 469.402344 74.175781 473.875 "/>
<path style=" stroke:none;fill-rule:nonzero;fill:rgb(100%,84.3%,0%);fill-opacity:1;" d="M 58.433594 439.910156 C 58.433594 444.382812 51.726562 444.382812 51.726562 439.910156 C 51.726562 435.4375 58.433594 435.4375 58.433594 439.910156 "/>
<path style=" stroke:none;fill-rule:nonzero;fill:rgb(100%,84.3%,0%);fill-opacity:1;" d="M 134.683594 486.46875 C 134.683594 490.941406 127.976562 490.941406 127.976562 486.46875 C 127.976562 481.996094 134.683594 481.996094 134.683594 486.46875 "/>
<path style=" stroke:none;fill-rule:nonzero;fill:rgb(100%,84.3%,0%);fill-opacity:1;" d="M 452.53125 479.675781 C 452.53125 484.148438 445.824219 484.148438 445.824219 479.675781 C 445.824219 475.203125 452.53125 475.203125 452.53125 479.675781 "/>
<path style=" stroke:none;fill-rule:nonzero;fill:rgb(100%,84.3%,0%);fill-opacity:1;" d="M 52.730469 465.355469 C 52.730469 469.828125 46.019531 469.828125 46.019531 465.355469 C 46.019531 460.882812 52.730469 460.882812 52.730469 465.355469 "/>
<path style=" stroke:none;fill-rule:nonzero;fill:rgb(100%,84.3%,0%);fill-opacity:1;" d="M 459.246094 479.324219 C 459.246094 483.796875 452.539062 483.796875 452.539062 479.324219 C 452.539062 474.851562 459.246094 474.851562 459.246094 479.324219 "/>
<path style=" stroke:none;fill-rule:nonzero;fill:rgb(100%,84.3%,0%);fill-opacity:1;" d="M 90.597656 312.820312 C 90.597656 317.292969 83.890625 317.292969 83.890625 312.820312 C 83.890625 308.347656 90.597656 308.347656 90.597656 312.820312 "/>
<path style=" stroke:none;fill-rule:nonzero;fill:rgb(100%,84.3%,0%);fill-opacity:1;" d="M 423.355469 324.445312 C 423.355469 328.917969 416.648438 328.917969 416.648438 324.445312 C 416.648438 319.972656 423.355469 319.972656 423.355469 324.445312 "/>
<path style=" stroke:none;fill-rule:nonzero;fill:rgb(100%,84.3%,0%);fill-opacity:1;" d="M 118.179688 312.820312 C 118.179688 317.292969 111.472656 317.292969 111.472656 312.820312 C 111.472656 308.347656 118.179688 308.347656 118.179688 312.820312 "/>
<path style=" stroke:none;fill-rule:nonzero;fill:rgb(100%,84.3%,0%);fill-opacity:1;" d="M 104.160156 479.585938 C 104.160156 484.058594 97.449219 484.058594 97.449219 479.585938 C 97.449219 475.113281 104.160156 475.113281 104.160156 479.585938 "/>
<path style=" stroke:none;fill-rule:nonzero;fill:rgb(100%,84.3%,0%);fill-opacity:1;" d="M 443.660156 312.820312 C 443.660156 317.292969 436.949219 317.292969 436.949219 312.820312 C 436.949219 308.347656 443.660156 308.347656 443.660156 312.820312 "/>
<path style=" stroke:none;fill-rule:nonzero;fill:rgb(100%,84.3%,0%);fill-opacity:1;" d="M 64.023438 319.523438 C 64.023438 323.996094 57.3125 323.996094 57.3125 319.523438 C 57.3125 315.050781 64.023438 315.050781 64.023438 319.523438 "/>
<path style=" stroke:none;fill-rule:nonzero;fill:rgb(100%,84.3%,0%);fill-opacity:1;" d="M 70.046875 479.160156 C 70.046875 483.632812 63.335938 483.632812 63.335938 479.160156 C 63.335938 474.6875 70.046875 474.6875 70.046875 479.160156 "/>
<path style=" stroke:none;fill-rule:nonzero;fill:rgb(100%,84.3%,0%);fill-opacity:1;" d="M 149.121094 486.574219 C 149.121094 491.046875 142.410156 491.046875 142.410156 486.574219 C 142.410156 482.101562 149.121094 482.101562 149.121094 486.574219 "/>
<path style=" stroke:none;fill-rule:nonzero;fill:rgb(100%,84.3%,0%);fill-opacity:1;" d="M 58.285156 454.054688 C 58.285156 458.527344 51.574219 458.527344 51.574219 454.054688 C 51.574219 449.582031 58.285156 449.582031 58.285156 454.054688 "/>
<path style=" stroke:none;fill-rule:nonzero;fill:rgb(100%,84.3%,0%);fill-opacity:1;" d="M 436.949219 312.820312 C 436.949219 317.292969 430.242188 317.292969 430.242188 312.820312 C 430.242188 308.347656 436.949219 308.347656 436.949219 312.820312 "/>
<path style=" stroke:none;fill-rule:nonzero;fill:rgb(100%,84.3%,0%);fill-opacity:1;" d="M 87.164062 318.675781 C 87.164062 323.148438 80.457031 323.148438 80.457031 318.675781 C 80.457031 314.203125 87.164062 314.203125 87.164062 318.675781 "/>
<path style=" stroke:none;fill-rule:nonzero;fill:rgb(100%,84.3%,0%);fill-opacity:1;" d="M 90.664062 480.570312 C 90.664062 485.042969 83.957031 485.042969 83.957031 480.570312 C 83.957031 476.097656 90.664062 476.097656 90.664062 480.570312 "/>
<path style=" stroke:none;fill-rule:nonzero;fill:rgb(100%,84.3%,0%);fill-opacity:1;" d="M 132.871094 312.820312 C 132.871094 317.292969 126.160156 317.292969 126.160156 312.820312 C 126.160156 308.347656 132.871094 308.347656 132.871094 312.820312 "/>
<path style=" stroke:none;fill-rule:nonzero;fill:rgb(100%,84.3%,0%);fill-opacity:1;" d="M 74.070312 486.546875 C 74.070312 491.019531 67.363281 491.019531 67.363281 486.546875 C 67.363281 482.074219 74.070312 482.074219 74.070312 486.546875 "/>
<path style=" stroke:none;fill-rule:nonzero;fill:rgb(100%,84.3%,0%);fill-opacity:1;" d="M 393.113281 486.574219 C 393.113281 491.046875 386.402344 491.046875 386.402344 486.574219 C 386.402344 482.101562 393.113281 482.101562 393.113281 486.574219 "/>
<path style=" stroke:none;fill-rule:nonzero;fill:rgb(100%,84.3%,0%);fill-opacity:1;" d="M 70.46875 312.820312 C 70.46875 317.292969 63.757812 317.292969 63.757812 312.820312 C 63.757812 308.347656 70.46875 308.347656 70.46875 312.820312 "/>
<path style=" stroke:none;fill-rule:nonzero;fill:rgb(100%,84.3%,0%);fill-opacity:1;" d="M 209 486.574219 C 209 491.046875 202.292969 491.046875 202.292969 486.574219 C 202.292969 482.101562 209 482.101562 209 486.574219 "/>
<path style=" stroke:none;fill-rule:nonzero;fill:rgb(100%,84.3%,0%);fill-opacity:1;" d="M 125.679688 480.269531 C 125.679688 484.742188 118.972656 484.742188 118.972656 480.269531 C 118.972656 475.796875 125.679688 475.796875 125.679688 480.269531 "/>
<path style=" stroke:none;fill-rule:nonzero;fill:rgb(100%,84.3%,0%);fill-opacity:1;" d="M 58.683594 340.320312 C 58.683594 344.792969 51.976562 344.792969 51.976562 340.320312 C 51.976562 335.847656 58.683594 335.847656 58.683594 340.320312 "/>
<path style=" stroke:none;fill-rule:nonzero;fill:rgb(100%,84.3%,0%);fill-opacity:1;" d="M 379.019531 474.910156 C 379.019531 479.382812 372.3125 479.382812 372.3125 474.910156 C 372.3125 470.4375 379.019531 470.4375 379.019531 474.910156 "/>
<path style=" stroke:none;fill-rule:nonzero;fill:rgb(100%,84.3%,0%);fill-opacity:1;" d="M 445.386719 472.421875 C 445.386719 476.894531 438.679688 476.894531 438.679688 472.421875 C 438.679688 467.949219 445.386719 467.949219 445.386719 472.421875 "/>
<path style=" stroke:none;fill-rule:nonzero;fill:rgb(100%,84.3%,0%);fill-opacity:1;" d="M 234.660156 312.820312 C 234.660156 317.292969 227.953125 317.292969 227.953125 312.820312 C 227.953125 308.347656 234.660156 308.347656 234.660156 312.820312 "/>
<path style=" stroke:none;fill-rule:nonzero;fill:rgb(100%,84.3%,0%);fill-opacity:1;" d="M 64.589844 344.285156 C 64.589844 348.757812 57.882812 348.757812 57.882812 344.285156 C 57.882812 339.816406 64.589844 339.816406 64.589844 344.285156 "/>
<path style=" stroke:none;fill-rule:nonzero;fill:rgb(100%,84.3%,0%);fill-opacity:1;" d="M 216.921875 486.574219 C 216.921875 491.046875 210.214844 491.046875 210.214844 486.574219 C 210.214844 482.101562 216.921875 482.101562 216.921875 486.574219 "/>
<path style=" stroke:none;fill-rule:nonzero;fill:rgb(100%,84.3%,0%);fill-opacity:1;" d="M 224.289062 318.550781 C 224.289062 323.019531 217.582031 323.019531 217.582031 318.550781 C 217.582031 314.078125 224.289062 314.078125 224.289062 318.550781 "/>
<path style=" stroke:none;fill-rule:nonzero;fill:rgb(100%,84.3%,0%);fill-opacity:1;" d="M 101.066406 472.964844 C 101.066406 477.433594 94.359375 477.433594 94.359375 472.964844 C 94.359375 468.492188 101.066406 468.492188 101.066406 472.964844 "/>
<path style=" stroke:none;fill-rule:nonzero;fill:rgb(100%,84.3%,0%);fill-opacity:1;" d="M 115.339844 474.578125 C 115.339844 479.050781 108.632812 479.050781 108.632812 474.578125 C 108.632812 470.109375 115.339844 470.109375 115.339844 474.578125 "/>
<path style=" stroke:none;fill-rule:nonzero;fill:rgb(100%,84.3%,0%);fill-opacity:1;" d="M 445.835938 479.242188 C 445.835938 483.714844 439.128906 483.714844 439.128906 479.242188 C 439.128906 474.769531 445.835938 474.769531 445.835938 479.242188 "/>
<path style=" stroke:none;fill-rule:nonzero;fill:rgb(100%,84.3%,0%);fill-opacity:1;" d="M 382.023438 312.820312 C 382.023438 317.292969 375.316406 317.292969 375.316406 312.820312 C 375.316406 308.347656 382.023438 308.347656 382.023438 312.820312 "/>
<path style=" stroke:none;fill-rule:nonzero;fill:rgb(100%,84.3%,0%);fill-opacity:1;" d="M 100.785156 318.710938 C 100.785156 323.183594 94.074219 323.183594 94.074219 318.710938 C 94.074219 314.238281 100.785156 314.238281 100.785156 318.710938 "/>
<path style=" stroke:none;fill-rule:nonzero;fill:rgb(100%,84.3%,0%);fill-opacity:1;" d="M 104.320312 312.820312 C 104.320312 317.292969 97.609375 317.292969 97.609375 312.820312 C 97.609375 308.347656 104.320312 308.347656 104.320312 312.820312 "/>
<path style=" stroke:none;fill-rule:nonzero;fill:rgb(100%,84.3%,0%);fill-opacity:1;" d="M 452.742188 459.429688 C 452.742188 463.902344 446.03125 463.902344 446.03125 459.429688 C 446.03125 454.957031 452.742188 454.957031 452.742188 459.429688 "/>
<path style=" stroke:none;fill-rule:nonzero;fill:rgb(100%,84.3%,0%);fill-opacity:1;" d="M 372.394531 486.574219 C 372.394531 491.046875 365.6875 491.046875 365.6875 486.574219 C 365.6875 482.101562 372.394531 482.101562 372.394531 486.574219 "/>
<path style=" stroke:none;fill-rule:nonzero;fill:rgb(100%,84.3%,0%);fill-opacity:1;" d="M 409.90625 312.824219 C 409.90625 317.296875 403.195312 317.296875 403.195312 312.824219 C 403.195312 308.351562 409.90625 308.351562 409.90625 312.824219 "/>
<path style=" stroke:none;fill-rule:nonzero;fill:rgb(100%,84.3%,0%);fill-opacity:1;" d="M 52.730469 443.4375 C 52.730469 447.910156 46.019531 447.910156 46.019531 443.4375 C 46.019531 438.964844 52.730469 438.964844 52.730469 443.4375 "/>
<path style=" stroke:none;fill-rule:nonzero;fill:rgb(100%,84.3%,0%);fill-opacity:1;" d="M 71.976562 319.359375 C 71.976562 323.832031 65.269531 323.832031 65.269531 319.359375 C 65.269531 314.886719 71.976562 314.886719 71.976562 319.359375 "/>
<path style=" stroke:none;fill-rule:nonzero;fill:rgb(100%,84.3%,0%);fill-opacity:1;" d="M 433.796875 318.742188 C 433.796875 323.214844 427.089844 323.214844 427.089844 318.742188 C 427.089844 314.273438 433.796875 314.273438 433.796875 318.742188 "/>
<path style=" stroke:none;fill-rule:nonzero;fill:rgb(100%,84.3%,0%);fill-opacity:1;" d="M 459.4375 458.257812 C 459.4375 462.730469 452.726562 462.730469 452.726562 458.257812 C 452.726562 453.785156 459.4375 453.785156 459.4375 458.257812 "/>
<path style=" stroke:none;fill-rule:nonzero;fill:rgb(100%,84.3%,0%);fill-opacity:1;" d="M 128.875 474.371094 C 128.875 478.84375 122.167969 478.84375 122.167969 474.371094 C 122.167969 469.902344 128.875 469.902344 128.875 474.371094 "/>
<path style=" stroke:none;fill-rule:nonzero;fill:rgb(100%,84.3%,0%);fill-opacity:1;" d="M 132.59375 480.09375 C 132.59375 484.566406 125.886719 484.566406 125.886719 480.09375 C 125.886719 475.621094 132.59375 475.621094 132.59375 480.09375 "/>
<path style=" stroke:none;fill-rule:nonzero;fill:rgb(100%,84.3%,0%);fill-opacity:1;" d="M 382.566406 480.648438 C 382.566406 485.121094 375.859375 485.121094 375.859375 480.648438 C 375.859375 476.175781 382.566406 476.175781 382.566406 480.648438 "/>
<path style=" stroke:none;fill-rule:nonzero;fill:rgb(100%,84.3%,0%);fill-opacity:1;" d="M 63.589844 477.332031 C 63.589844 481.804688 56.882812 481.804688 56.882812 477.332031 C 56.882812 472.859375 63.589844 472.859375 63.589844 477.332031 "/>
<path style=" stroke:none;fill-rule:nonzero;fill:rgb(100%,84.3%,0%);fill-opacity:1;" d="M 224.695312 486.574219 C 224.695312 491.046875 217.988281 491.046875 217.988281 486.574219 C 217.988281 482.101562 224.695312 482.101562 224.695312 486.574219 "/>
<path style=" stroke:none;fill-rule:nonzero;fill:rgb(100%,84.3%,0%);fill-opacity:1;" d="M 402.179688 324.863281 C 402.179688 329.335938 395.472656 329.335938 395.472656 324.863281 C 395.472656 320.390625 402.179688 320.390625 402.179688 324.863281 "/>
<path style=" stroke:none;fill-rule:nonzero;fill:rgb(100%,84.3%,0%);fill-opacity:1;" d="M 463.785156 312.820312 C 463.785156 317.292969 457.078125 317.292969 457.078125 312.820312 C 457.078125 308.347656 463.785156 308.347656 463.785156 312.820312 "/>
<path style=" stroke:none;fill-rule:nonzero;fill:rgb(100%,84.3%,0%);fill-opacity:1;" d="M 447.339844 318.871094 C 447.339844 323.34375 440.628906 323.34375 440.628906 318.871094 C 440.628906 314.402344 447.339844 314.402344 447.339844 318.871094 "/>
<path style=" stroke:none;fill-rule:nonzero;fill:rgb(100%,84.3%,0%);fill-opacity:1;" d="M 227.9375 312.820312 C 227.9375 317.292969 221.230469 317.292969 221.230469 312.820312 C 221.230469 308.347656 227.9375 308.347656 227.9375 312.820312 "/>
<path style=" stroke:none;fill-rule:nonzero;fill:rgb(100%,84.3%,0%);fill-opacity:1;" d="M 241.472656 312.820312 C 241.472656 317.292969 234.765625 317.292969 234.765625 312.820312 C 234.765625 308.347656 241.472656 308.347656 241.472656 312.820312 "/>
<path style=" stroke:none;fill-rule:nonzero;fill:rgb(100%,84.3%,0%);fill-opacity:1;" d="M 58.777344 354.042969 C 58.777344 358.515625 52.070312 358.515625 52.070312 354.042969 C 52.070312 349.570312 58.777344 349.570312 58.777344 354.042969 "/>
<path style=" stroke:none;fill-rule:nonzero;fill:rgb(100%,84.3%,0%);fill-opacity:1;" d="M 432.5 486.359375 C 432.5 490.832031 425.789062 490.832031 425.789062 486.359375 C 425.789062 481.886719 432.5 481.886719 432.5 486.359375 "/>
<path style=" stroke:none;fill-rule:nonzero;fill:rgb(100%,84.3%,0%);fill-opacity:1;" d="M 93.964844 318.625 C 93.964844 323.097656 87.253906 323.097656 87.253906 318.625 C 87.253906 314.152344 93.964844 314.152344 93.964844 318.625 "/>
<path style=" stroke:none;fill-rule:nonzero;fill:rgb(100%,84.3%,0%);fill-opacity:1;" d="M 385.097656 318.785156 C 385.097656 323.257812 378.390625 323.257812 378.390625 318.785156 C 378.390625 314.3125 385.097656 314.3125 385.097656 318.785156 "/>
<path style=" stroke:none;fill-rule:nonzero;fill:rgb(100%,84.3%,0%);fill-opacity:1;" d="M 396.414062 312.820312 C 396.414062 317.292969 389.707031 317.292969 389.707031 312.820312 C 389.707031 308.347656 396.414062 308.347656 396.414062 312.820312 "/>
<path style=" stroke:none;fill-rule:nonzero;fill:rgb(100%,84.3%,0%);fill-opacity:1;" d="M 120.171875 468.027344 C 120.171875 472.5 113.460938 472.5 113.460938 468.027344 C 113.460938 463.554688 120.171875 463.554688 120.171875 468.027344 "/>
<path style=" stroke:none;fill-rule:nonzero;fill:rgb(100%,84.3%,0%);fill-opacity:1;" d="M 107.5 318.730469 C 107.5 323.203125 100.789062 323.203125 100.789062 318.730469 C 100.789062 314.257812 107.5 314.257812 107.5 318.730469 "/>
<path style=" stroke:none;fill-rule:nonzero;fill:rgb(100%,84.3%,0%);fill-opacity:1;" d="M 105.644531 468.054688 C 105.644531 472.527344 98.933594 472.527344 98.933594 468.054688 C 98.933594 463.582031 105.644531 463.582031 105.644531 468.054688 "/>
<path style=" stroke:none;fill-rule:nonzero;fill:rgb(100%,84.3%,0%);fill-opacity:1;" d="M 398.695312 319.132812 C 398.695312 323.601562 391.988281 323.601562 391.988281 319.132812 C 391.988281 314.660156 398.695312 314.660156 398.695312 319.132812 "/>
<path style=" stroke:none;fill-rule:nonzero;fill:rgb(100%,84.3%,0%);fill-opacity:1;" d="M 108.28125 474.292969 C 108.28125 478.765625 101.570312 478.765625 101.570312 474.292969 C 101.570312 469.820312 108.28125 469.820312 108.28125 474.292969 "/>
<path style=" stroke:none;fill-rule:nonzero;fill:rgb(100%,84.3%,0%);fill-opacity:1;" d="M 355.21875 480.605469 C 355.21875 485.078125 348.507812 485.078125 348.507812 480.605469 C 348.507812 476.132812 355.21875 476.132812 355.21875 480.605469 "/>
<path style=" stroke:none;fill-rule:nonzero;fill:rgb(100%,84.3%,0%);fill-opacity:1;" d="M 146.335938 480.46875 C 146.335938 484.941406 139.628906 484.941406 139.628906 480.46875 C 139.628906 475.996094 146.335938 475.996094 146.335938 480.46875 "/>
<path style=" stroke:none;fill-rule:nonzero;fill:rgb(100%,84.3%,0%);fill-opacity:1;" d="M 358.695312 486.367188 C 358.695312 490.839844 351.988281 490.839844 351.988281 486.367188 C 351.988281 481.898438 358.695312 481.898438 358.695312 486.367188 "/>
<path style=" stroke:none;fill-rule:nonzero;fill:rgb(100%,84.3%,0%);fill-opacity:1;" d="M 465.980469 445.90625 C 465.980469 450.378906 459.269531 450.378906 459.269531 445.90625 C 459.269531 441.433594 465.980469 441.433594 465.980469 445.90625 "/>
<path style=" stroke:none;fill-rule:nonzero;fill:rgb(100%,84.3%,0%);fill-opacity:1;" d="M 87.863281 474.476562 C 87.863281 478.949219 81.152344 478.949219 81.152344 474.476562 C 81.152344 470.003906 87.863281 470.003906 87.863281 474.476562 "/>
<path style=" stroke:none;fill-rule:nonzero;fill:rgb(100%,84.3%,0%);fill-opacity:1;" d="M 465.980469 466.449219 C 465.980469 470.921875 459.269531 470.921875 459.269531 466.449219 C 459.269531 461.976562 465.980469 461.976562 465.980469 466.449219 "/>
<path style=" stroke:none;fill-rule:nonzero;fill:rgb(100%,84.3%,0%);fill-opacity:1;" d="M 52.800781 415.335938 C 52.800781 419.808594 46.089844 419.808594 46.089844 415.335938 C 46.089844 410.863281 52.800781 410.863281 52.800781 415.335938 "/>
<path style=" stroke:none;fill-rule:nonzero;fill:rgb(100%,84.3%,0%);fill-opacity:1;" d="M 237.910156 318.757812 C 237.910156 323.226562 231.199219 323.226562 231.199219 318.757812 C 231.199219 314.285156 237.910156 314.285156 237.910156 318.757812 "/>
<path style=" stroke:none;fill-rule:nonzero;fill:rgb(100%,84.3%,0%);fill-opacity:1;" d="M 426.792969 318.683594 C 426.792969 323.15625 420.085938 323.15625 420.085938 318.683594 C 420.085938 314.210938 426.792969 314.210938 426.792969 318.683594 "/>
<path style=" stroke:none;fill-rule:nonzero;fill:rgb(100%,84.3%,0%);fill-opacity:1;" d="M 450.367188 312.820312 C 450.367188 317.292969 443.660156 317.292969 443.660156 312.820312 C 443.660156 308.347656 450.367188 308.347656 450.367188 312.820312 "/>
<path style=" stroke:none;fill-rule:nonzero;fill:rgb(100%,84.3%,0%);fill-opacity:1;" d="M 52.730469 450.15625 C 52.730469 454.628906 46.019531 454.628906 46.019531 450.15625 C 46.019531 445.683594 52.730469 445.683594 52.730469 450.15625 "/>
<path style=" stroke:none;fill-rule:nonzero;fill:rgb(100%,84.3%,0%);fill-opacity:1;" d="M 52.730469 406.5 C 52.730469 410.972656 46.019531 410.972656 46.019531 406.5 C 46.019531 402.027344 52.730469 402.027344 52.730469 406.5 "/>
<path style=" stroke:none;fill-rule:nonzero;fill:rgb(100%,84.3%,0%);fill-opacity:1;" d="M 68.148438 470.925781 C 68.148438 475.398438 61.441406 475.398438 61.441406 470.925781 C 61.441406 466.453125 68.148438 466.453125 68.148438 470.925781 "/>
<path style=" stroke:none;fill-rule:nonzero;fill:rgb(100%,84.3%,0%);fill-opacity:1;" d="M 79.789062 319.003906 C 79.789062 323.472656 73.078125 323.472656 73.078125 319.003906 C 73.078125 314.53125 79.789062 314.53125 79.789062 319.003906 "/>
<path style=" stroke:none;fill-rule:nonzero;fill:rgb(100%,84.3%,0%);fill-opacity:1;" d="M 389.496094 480.695312 C 389.496094 485.167969 382.789062 485.167969 382.789062 480.695312 C 382.789062 476.222656 389.496094 476.222656 389.496094 480.695312 "/>
<path style=" stroke:none;fill-rule:nonzero;fill:rgb(100%,84.3%,0%);fill-opacity:1;" d="M 57.050781 312.820312 C 57.050781 317.292969 50.34375 317.292969 50.34375 312.820312 C 50.34375 308.347656 57.050781 308.347656 57.050781 312.820312 "/>
<path style=" stroke:none;fill-rule:nonzero;fill:rgb(100%,84.3%,0%);fill-opacity:1;" d="M 80.78125 486.574219 C 80.78125 491.046875 74.070312 491.046875 74.070312 486.574219 C 74.070312 482.101562 80.78125 482.101562 80.78125 486.574219 "/>
<path style=" stroke:none;fill-rule:nonzero;fill:rgb(100%,84.3%,0%);fill-opacity:1;" d="M 118.808594 480.320312 C 118.808594 484.792969 112.101562 484.792969 112.101562 480.320312 C 112.101562 475.847656 118.808594 475.847656 118.808594 480.320312 "/>
<path style=" stroke:none;fill-rule:nonzero;fill:rgb(100%,84.3%,0%);fill-opacity:1;" d="M 368.289062 312.820312 C 368.289062 317.292969 361.582031 317.292969 361.582031 312.820312 C 361.582031 308.347656 368.289062 308.347656 368.289062 312.820312 "/>
<path style=" stroke:none;fill-rule:nonzero;fill:rgb(100%,84.3%,0%);fill-opacity:1;" d="M 111.082031 312.820312 C 111.082031 317.292969 104.375 317.292969 104.375 312.820312 C 104.375 308.347656 111.082031 308.347656 111.082031 312.820312 "/>
<path style=" stroke:none;fill-rule:nonzero;fill:rgb(100%,84.3%,0%);fill-opacity:1;" d="M 69.21875 331.84375 C 69.21875 336.316406 62.507812 336.316406 62.507812 331.84375 C 62.507812 327.371094 69.21875 327.371094 69.21875 331.84375 "/>
</g>
</svg>
