<?xml version="1.0" encoding="UTF-8"?>
<svg xmlns="http://www.w3.org/2000/svg" xmlns:xlink="http://www.w3.org/1999/xlink" width="512pt" height="512pt" viewBox="0 0 512 512" version="1.1">
<g id="surface186">
<path style=" stroke:none;fill-rule:nonzero;fill:rgb(26.7%,26.7%,26.7%);fill-opacity:1;" d="M 147.613281 0 L 364.386719 0 L 364.386719 512 L 147.613281 512 Z M 147.613281 0 "/>
<path style=" stroke:none;fill-rule:nonzero;fill:rgb(19.2%,38.8%,66.7%);fill-opacity:1;" d="M 165.675781 42.667969 L 346.320312 42.667969 L 346.320312 469.332031 L 165.675781 469.332031 Z M 165.675781 42.667969 "/>
<path style=" stroke:none;fill-rule:nonzero;fill:rgb(100%,100%,100%);fill-opacity:1;" d="M 475.355469 428.042969 C 475.355469 433.777344 466.753906 433.777344 466.753906 428.042969 C 466.753906 422.308594 475.355469 422.308594 475.355469 428.042969 "/>
<path style=" stroke:none;fill-rule:nonzero;fill:rgb(100%,100%,100%);fill-opacity:1;" d="M 237.933594 498.582031 C 237.933594 504.316406 229.332031 504.316406 229.332031 498.582031 C 229.332031 492.847656 237.933594 492.847656 237.933594 498.582031 "/>
<path style=" stroke:none;fill-rule:nonzero;fill:rgb(100%,100%,100%);fill-opacity:1;" d="M 416.859375 421.160156 C 416.859375 426.894531 408.257812 426.894531 408.257812 421.160156 C 408.257812 415.425781 416.859375 415.425781 416.859375 421.160156 "/>
<path style=" stroke:none;fill-rule:nonzero;fill:rgb(100%,100%,100%);fill-opacity:1;" d="M 516.644531 28.902344 C 516.644531 34.636719 508.042969 34.636719 508.042969 28.902344 C 508.042969 23.167969 516.644531 23.167969 516.644531 28.902344 "/>
<path style=" stroke:none;fill-rule:nonzero;fill:rgb(100%,100%,100%);fill-opacity:1;" d="M 388.472656 502.882812 C 388.472656 508.617188 379.871094 508.617188 379.871094 502.882812 C 379.871094 497.148438 388.472656 497.148438 388.472656 502.882812 "/>
<path style=" stroke:none;fill-rule:nonzero;fill:rgb(100%,100%,100%);fill-opacity:1;" d="M 471.914062 29.761719 C 471.914062 35.496094 463.3125 35.496094 463.3125 29.761719 C 463.3125 24.027344 471.914062 24.027344 471.914062 29.761719 "/>
<path style=" stroke:none;fill-rule:nonzero;fill:rgb(100%,100%,100%);fill-opacity:1;" d="M 440.945312 34.925781 C 440.945312 40.660156 432.34375 40.660156 432.34375 34.925781 C 432.34375 29.191406 440.945312 29.191406 440.945312 34.925781 "/>
<path style=" stroke:none;fill-rule:nonzero;fill:rgb(100%,100%,100%);fill-opacity:1;" d="M 512.34375 50.410156 C 512.34375 56.144531 503.742188 56.144531 503.742188 50.410156 C 503.742188 44.675781 512.34375 44.675781 512.34375 50.410156 "/>
<path style=" stroke:none;fill-rule:nonzero;fill:rgb(100%,100%,100%);fill-opacity:1;" d="M 150.191406 393.632812 C 150.191406 399.367188 141.589844 399.367188 141.589844 393.632812 C 141.589844 387.898438 150.191406 387.898438 150.191406 393.632812 "/>
<path style=" stroke:none;fill-rule:nonzero;fill:rgb(100%,100%,100%);fill-opacity:1;" d="M 365.246094 128.6875 C 365.246094 134.421875 356.644531 134.421875 356.644531 128.6875 C 356.644531 122.953125 365.246094 122.953125 365.246094 128.6875 "/>
<path style=" stroke:none;fill-rule:nonzero;fill:rgb(100%,100%,100%);fill-opacity:1;" d="M 282.667969 -2.925781 C 282.667969 2.808594 274.066406 2.808594 274.066406 -2.925781 C 274.066406 -8.660156 282.667969 -8.660156 282.667969 -2.925781 "/>
<path style=" stroke:none;fill-rule:nonzero;fill:rgb(100%,100%,100%);fill-opacity:1;" d="M 514.925781 200.085938 C 514.925781 205.820312 506.324219 205.820312 506.324219 200.085938 C 506.324219 194.351562 514.925781 194.351562 514.925781 200.085938 "/>
<path style=" stroke:none;fill-rule:nonzero;fill:rgb(100%,100%,100%);fill-opacity:1;" d="M 323.957031 30.625 C 323.957031 36.359375 315.355469 36.359375 315.355469 30.625 C 315.355469 24.890625 323.957031 24.890625 323.957031 30.625 "/>
<path style=" stroke:none;fill-rule:nonzero;fill:rgb(100%,100%,100%);fill-opacity:1;" d="M 363.527344 2.238281 C 363.527344 7.972656 354.925781 7.972656 354.925781 2.238281 C 354.925781 -3.496094 363.527344 -3.496094 363.527344 2.238281 "/>
<path style=" stroke:none;fill-rule:nonzero;fill:rgb(100%,100%,100%);fill-opacity:1;" d="M 476.214844 266.324219 C 476.214844 272.058594 467.613281 272.058594 467.613281 266.324219 C 467.613281 260.589844 476.214844 260.589844 476.214844 266.324219 "/>
<path style=" stroke:none;fill-rule:nonzero;fill:rgb(100%,100%,100%);fill-opacity:1;" d="M 488.257812 442.667969 C 488.257812 448.402344 479.65625 448.402344 479.65625 442.667969 C 479.65625 436.933594 488.257812 436.933594 488.257812 442.667969 "/>
<path style=" stroke:none;fill-rule:nonzero;fill:rgb(100%,100%,100%);fill-opacity:1;" d="M 354.0625 458.152344 C 354.0625 463.886719 345.460938 463.886719 345.460938 458.152344 C 345.460938 452.417969 354.0625 452.417969 354.0625 458.152344 "/>
<path style=" stroke:none;fill-rule:nonzero;fill:rgb(100%,100%,100%);fill-opacity:1;" d="M 492.558594 180.300781 C 492.558594 186.035156 483.957031 186.035156 483.957031 180.300781 C 483.957031 174.566406 492.558594 174.566406 492.558594 180.300781 "/>
<path style=" stroke:none;fill-rule:nonzero;fill:rgb(100%,100%,100%);fill-opacity:1;" d="M 502.882812 264.601562 C 502.882812 270.335938 494.28125 270.335938 494.28125 264.601562 C 494.28125 258.867188 502.882812 258.867188 502.882812 264.601562 "/>
<path style=" stroke:none;fill-rule:nonzero;fill:rgb(100%,100%,100%);fill-opacity:1;" d="M 407.398438 158.796875 C 407.398438 164.53125 398.796875 164.53125 398.796875 158.796875 C 398.796875 153.0625 407.398438 153.0625 407.398438 158.796875 "/>
<path style=" stroke:none;fill-rule:nonzero;fill:rgb(100%,100%,100%);fill-opacity:1;" d="M 411.699219 477.074219 C 411.699219 482.808594 403.097656 482.808594 403.097656 477.074219 C 403.097656 471.339844 411.699219 471.339844 411.699219 477.074219 "/>
<path style=" stroke:none;fill-rule:nonzero;fill:rgb(100%,100%,100%);fill-opacity:1;" d="M 396.214844 475.355469 C 396.214844 481.089844 387.613281 481.089844 387.613281 475.355469 C 387.613281 469.621094 396.214844 469.621094 396.214844 475.355469 "/>
<path style=" stroke:none;fill-rule:nonzero;fill:rgb(100%,100%,100%);fill-opacity:1;" d="M 318.796875 496.859375 C 318.796875 502.59375 310.195312 502.59375 310.195312 496.859375 C 310.195312 491.125 318.796875 491.125 318.796875 496.859375 "/>
<path style=" stroke:none;fill-rule:nonzero;fill:rgb(100%,100%,100%);fill-opacity:1;" d="M 490.839844 220.730469 C 490.839844 226.464844 482.238281 226.464844 482.238281 220.730469 C 482.238281 214.996094 490.839844 214.996094 490.839844 220.730469 "/>
<path style=" stroke:none;fill-rule:nonzero;fill:rgb(100%,100%,100%);fill-opacity:1;" d="M 474.496094 191.484375 C 474.496094 197.21875 465.894531 197.21875 465.894531 191.484375 C 465.894531 185.75 474.496094 185.75 474.496094 191.484375 "/>
<path style=" stroke:none;fill-rule:nonzero;fill:rgb(100%,100%,100%);fill-opacity:1;" d="M 149.332031 354.925781 C 149.332031 360.660156 140.730469 360.660156 140.730469 354.925781 C 140.730469 349.191406 149.332031 349.191406 149.332031 354.925781 "/>
<path style=" stroke:none;fill-rule:nonzero;fill:rgb(100%,100%,100%);fill-opacity:1;" d="M 394.496094 129.546875 C 394.496094 135.28125 385.894531 135.28125 385.894531 129.546875 C 385.894531 123.8125 394.496094 123.8125 394.496094 129.546875 "/>
<path style=" stroke:none;fill-rule:nonzero;fill:rgb(100%,100%,100%);fill-opacity:1;" d="M 286.96875 502.023438 C 286.96875 507.757812 278.367188 507.757812 278.367188 502.023438 C 278.367188 496.289062 286.96875 496.289062 286.96875 502.023438 "/>
<path style=" stroke:none;fill-rule:nonzero;fill:rgb(100%,100%,100%);fill-opacity:1;" d="M 475.355469 216.429688 C 475.355469 222.164062 466.753906 222.164062 466.753906 216.429688 C 466.753906 210.695312 475.355469 210.695312 475.355469 216.429688 "/>
<path style=" stroke:none;fill-rule:nonzero;fill:rgb(100%,100%,100%);fill-opacity:1;" d="M 446.96875 212.988281 C 446.96875 218.722656 438.367188 218.722656 438.367188 212.988281 C 438.367188 207.253906 446.96875 207.253906 446.96875 212.988281 "/>
<path style=" stroke:none;fill-rule:nonzero;fill:rgb(100%,100%,100%);fill-opacity:1;" d="M 305.03125 9.976562 C 305.03125 15.710938 296.429688 15.710938 296.429688 9.976562 C 296.429688 4.242188 305.03125 4.242188 305.03125 9.976562 "/>
<path style=" stroke:none;fill-rule:nonzero;fill:rgb(100%,100%,100%);fill-opacity:1;" d="M 157.933594 499.441406 C 157.933594 505.175781 149.332031 505.175781 149.332031 499.441406 C 149.332031 493.707031 157.933594 493.707031 157.933594 499.441406 "/>
<path style=" stroke:none;fill-rule:nonzero;fill:rgb(100%,100%,100%);fill-opacity:1;" d="M 268.902344 512.34375 C 268.902344 518.078125 260.300781 518.078125 260.300781 512.34375 C 260.300781 506.609375 268.902344 506.609375 268.902344 512.34375 "/>
<path style=" stroke:none;fill-rule:nonzero;fill:rgb(100%,100%,100%);fill-opacity:1;" d="M 235.355469 5.675781 C 235.355469 11.410156 226.753906 11.410156 226.753906 5.675781 C 226.753906 -0.0585938 235.355469 -0.0585938 235.355469 5.675781 "/>
<path style=" stroke:none;fill-rule:nonzero;fill:rgb(100%,100%,100%);fill-opacity:1;" d="M 422.882812 21.160156 C 422.882812 26.894531 414.28125 26.894531 414.28125 21.160156 C 414.28125 15.425781 422.882812 15.425781 422.882812 21.160156 "/>
<path style=" stroke:none;fill-rule:nonzero;fill:rgb(100%,100%,100%);fill-opacity:1;" d="M 483.957031 392.773438 C 483.957031 398.507812 475.355469 398.507812 475.355469 392.773438 C 475.355469 387.039062 483.957031 387.039062 483.957031 392.773438 "/>
<path style=" stroke:none;fill-rule:nonzero;fill:rgb(100%,100%,100%);fill-opacity:1;" d="M 416.859375 446.109375 C 416.859375 451.84375 408.257812 451.84375 408.257812 446.109375 C 408.257812 440.375 416.859375 440.375 416.859375 446.109375 "/>
<path style=" stroke:none;fill-rule:nonzero;fill:rgb(100%,100%,100%);fill-opacity:1;" d="M 379.011719 18.582031 C 379.011719 24.316406 370.410156 24.316406 370.410156 18.582031 C 370.410156 12.847656 379.011719 12.847656 379.011719 18.582031 "/>
<path style=" stroke:none;fill-rule:nonzero;fill:rgb(100%,100%,100%);fill-opacity:1;" d="M 447.828125 397.074219 C 447.828125 402.808594 439.226562 402.808594 439.226562 397.074219 C 439.226562 391.339844 447.828125 391.339844 447.828125 397.074219 "/>
<path style=" stroke:none;fill-rule:nonzero;fill:rgb(100%,100%,100%);fill-opacity:1;" d="M 151.914062 325.675781 C 151.914062 331.410156 143.3125 331.410156 143.3125 325.675781 C 143.3125 319.941406 151.914062 319.941406 151.914062 325.675781 "/>
<path style=" stroke:none;fill-rule:nonzero;fill:rgb(100%,100%,100%);fill-opacity:1;" d="M 174.277344 40.085938 C 174.277344 45.820312 165.675781 45.820312 165.675781 40.085938 C 165.675781 34.351562 174.277344 34.351562 174.277344 40.085938 "/>
<path style=" stroke:none;fill-rule:nonzero;fill:rgb(100%,100%,100%);fill-opacity:1;" d="M 387.613281 168.257812 C 387.613281 173.992188 379.011719 173.992188 379.011719 168.257812 C 379.011719 162.523438 387.613281 162.523438 387.613281 168.257812 "/>
<path style=" stroke:none;fill-rule:nonzero;fill:rgb(100%,100%,100%);fill-opacity:1;" d="M 156.214844 240.515625 C 156.214844 246.25 147.613281 246.25 147.613281 240.515625 C 147.613281 234.78125 156.214844 234.78125 156.214844 240.515625 "/>
<path style=" stroke:none;fill-rule:nonzero;fill:rgb(100%,100%,100%);fill-opacity:1;" d="M 379.011719 291.269531 C 379.011719 297.003906 370.410156 297.003906 370.410156 291.269531 C 370.410156 285.535156 379.011719 285.535156 379.011719 291.269531 "/>
<path style=" stroke:none;fill-rule:nonzero;fill:rgb(100%,100%,100%);fill-opacity:1;" d="M 471.914062 145.03125 C 471.914062 150.765625 463.3125 150.765625 463.3125 145.03125 C 463.3125 139.296875 471.914062 139.296875 471.914062 145.03125 "/>
<path style=" stroke:none;fill-rule:nonzero;fill:rgb(100%,100%,100%);fill-opacity:1;" d="M 460.730469 157.074219 C 460.730469 162.808594 452.128906 162.808594 452.128906 157.074219 C 452.128906 151.339844 460.730469 151.339844 460.730469 157.074219 "/>
<path style=" stroke:none;fill-rule:nonzero;fill:rgb(100%,100%,100%);fill-opacity:1;" d="M 399.65625 483.957031 C 399.65625 489.691406 391.054688 489.691406 391.054688 483.957031 C 391.054688 478.222656 399.65625 478.222656 399.65625 483.957031 "/>
<path style=" stroke:none;fill-rule:nonzero;fill:rgb(100%,100%,100%);fill-opacity:1;" d="M 432.34375 137.289062 C 432.34375 143.023438 423.742188 143.023438 423.742188 137.289062 C 423.742188 131.554688 432.34375 131.554688 432.34375 137.289062 "/>
<path style=" stroke:none;fill-rule:nonzero;fill:rgb(100%,100%,100%);fill-opacity:1;" d="M 520.085938 462.453125 C 520.085938 468.1875 511.484375 468.1875 511.484375 462.453125 C 511.484375 456.71875 520.085938 456.71875 520.085938 462.453125 "/>
<path style=" stroke:none;fill-rule:nonzero;fill:rgb(100%,100%,100%);fill-opacity:1;" d="M 462.453125 120.945312 C 462.453125 126.679688 453.851562 126.679688 453.851562 120.945312 C 453.851562 115.210938 462.453125 115.210938 462.453125 120.945312 "/>
<path style=" stroke:none;fill-rule:nonzero;fill:rgb(100%,84.3%,0%);fill-opacity:1;" d="M 341.71875 142.6875 C 341.71875 148.421875 333.117188 148.421875 333.117188 142.6875 C 333.117188 136.953125 341.71875 136.953125 341.71875 142.6875 "/>
<path style=" stroke:none;fill-rule:nonzero;fill:rgb(100%,84.3%,0%);fill-opacity:1;" d="M 205.277344 445.636719 C 205.277344 451.371094 196.675781 451.371094 196.675781 445.636719 C 196.675781 439.902344 205.277344 439.902344 205.277344 445.636719 "/>
<path style=" stroke:none;fill-rule:nonzero;fill:rgb(100%,84.3%,0%);fill-opacity:1;" d="M 342.019531 458.359375 C 342.019531 464.09375 333.417969 464.09375 333.417969 458.359375 C 333.417969 452.625 342.019531 452.625 342.019531 458.359375 "/>
<path style=" stroke:none;fill-rule:nonzero;fill:rgb(100%,84.3%,0%);fill-opacity:1;" d="M 178.582031 241.570312 C 178.582031 247.304688 169.980469 247.304688 169.980469 241.570312 C 169.980469 235.835938 178.582031 235.835938 178.582031 241.570312 "/>
<path style=" stroke:none;fill-rule:nonzero;fill:rgb(100%,84.3%,0%);fill-opacity:1;" d="M 333.425781 281.128906 C 333.425781 286.863281 324.824219 286.863281 324.824219 281.128906 C 324.824219 275.394531 333.425781 275.394531 333.425781 281.128906 "/>
<path style=" stroke:none;fill-rule:nonzero;fill:rgb(100%,84.3%,0%);fill-opacity:1;" d="M 340.957031 68.335938 C 340.957031 74.070312 332.355469 74.070312 332.355469 68.335938 C 332.355469 62.597656 340.957031 62.597656 340.957031 68.335938 "/>
<path style=" stroke:none;fill-rule:nonzero;fill:rgb(100%,84.3%,0%);fill-opacity:1;" d="M 324.421875 74.507812 C 324.421875 80.242188 315.820312 80.242188 315.820312 74.507812 C 315.820312 68.773438 324.421875 68.773438 324.421875 74.507812 "/>
<path style=" stroke:none;fill-rule:nonzero;fill:rgb(100%,84.3%,0%);fill-opacity:1;" d="M 342.019531 260.152344 C 342.019531 265.886719 333.417969 265.886719 333.417969 260.152344 C 333.417969 254.417969 342.019531 254.417969 342.019531 260.152344 "/>
<path style=" stroke:none;fill-rule:nonzero;fill:rgb(100%,84.3%,0%);fill-opacity:1;" d="M 205.414062 379.21875 C 205.414062 384.953125 196.8125 384.953125 196.8125 379.21875 C 196.8125 373.484375 205.414062 373.484375 205.414062 379.21875 "/>
<path style=" stroke:none;fill-rule:nonzero;fill:rgb(100%,84.3%,0%);fill-opacity:1;" d="M 237.03125 452.429688 C 237.03125 458.164062 228.429688 458.164062 228.429688 452.429688 C 228.429688 446.695312 237.03125 446.695312 237.03125 452.429688 "/>
<path style=" stroke:none;fill-rule:nonzero;fill:rgb(100%,84.3%,0%);fill-opacity:1;" d="M 282.84375 438.742188 C 282.84375 444.476562 274.242188 444.476562 274.242188 438.742188 C 274.242188 433.007812 282.84375 433.007812 282.84375 438.742188 "/>
<path style=" stroke:none;fill-rule:nonzero;fill:rgb(100%,84.3%,0%);fill-opacity:1;" d="M 207.773438 369.421875 C 207.773438 375.15625 199.171875 375.15625 199.171875 369.421875 C 199.171875 363.683594 207.773438 363.683594 207.773438 369.421875 "/>
<path style=" stroke:none;fill-rule:nonzero;fill:rgb(100%,84.3%,0%);fill-opacity:1;" d="M 196.054688 289.371094 C 196.054688 295.105469 187.453125 295.105469 187.453125 289.371094 C 187.453125 283.636719 196.054688 283.636719 196.054688 289.371094 "/>
<path style=" stroke:none;fill-rule:nonzero;fill:rgb(100%,84.3%,0%);fill-opacity:1;" d="M 205.832031 51.269531 C 205.832031 57.003906 197.230469 57.003906 197.230469 51.269531 C 197.230469 45.535156 205.832031 45.535156 205.832031 51.269531 "/>
<path style=" stroke:none;fill-rule:nonzero;fill:rgb(100%,84.3%,0%);fill-opacity:1;" d="M 178.582031 88.925781 C 178.582031 94.660156 169.980469 94.660156 169.980469 88.925781 C 169.980469 83.191406 178.582031 83.191406 178.582031 88.925781 "/>
<path style=" stroke:none;fill-rule:nonzero;fill:rgb(100%,84.3%,0%);fill-opacity:1;" d="M 319.40625 58.417969 C 319.40625 64.152344 310.804688 64.152344 310.804688 58.417969 C 310.804688 52.683594 319.40625 52.683594 319.40625 58.417969 "/>
<path style=" stroke:none;fill-rule:nonzero;fill:rgb(100%,84.3%,0%);fill-opacity:1;" d="M 194.933594 231.289062 C 194.933594 237.023438 186.328125 237.023438 186.328125 231.289062 C 186.328125 225.554688 194.933594 225.554688 194.933594 231.289062 "/>
<path style=" stroke:none;fill-rule:nonzero;fill:rgb(100%,84.3%,0%);fill-opacity:1;" d="M 266.035156 446.964844 C 266.035156 452.699219 257.433594 452.699219 257.433594 446.964844 C 257.433594 441.226562 266.035156 441.226562 266.035156 446.964844 "/>
<path style=" stroke:none;fill-rule:nonzero;fill:rgb(100%,84.3%,0%);fill-opacity:1;" d="M 196.640625 60.332031 C 196.640625 66.066406 188.039062 66.066406 188.039062 60.332031 C 188.039062 54.597656 196.640625 54.597656 196.640625 60.332031 "/>
<path style=" stroke:none;fill-rule:nonzero;fill:rgb(100%,84.3%,0%);fill-opacity:1;" d="M 317.585938 450.679688 C 317.585938 456.414062 308.980469 456.414062 308.980469 450.679688 C 308.980469 444.945312 317.585938 444.945312 317.585938 450.679688 "/>
<path style=" stroke:none;fill-rule:nonzero;fill:rgb(100%,84.3%,0%);fill-opacity:1;" d="M 282.199219 454.507812 C 282.199219 460.242188 273.597656 460.242188 273.597656 454.507812 C 273.597656 448.773438 282.199219 448.773438 282.199219 454.507812 "/>
<path style=" stroke:none;fill-rule:nonzero;fill:rgb(100%,84.3%,0%);fill-opacity:1;" d="M 342.019531 281.445312 C 342.019531 287.179688 333.417969 287.179688 333.417969 281.445312 C 333.417969 275.710938 342.019531 275.710938 342.019531 281.445312 "/>
<path style=" stroke:none;fill-rule:nonzero;fill:rgb(100%,84.3%,0%);fill-opacity:1;" d="M 332.792969 51.269531 C 332.792969 57.003906 324.1875 57.003906 324.1875 51.269531 C 324.1875 45.535156 332.792969 45.535156 332.792969 51.269531 "/>
<path style=" stroke:none;fill-rule:nonzero;fill:rgb(100%,84.3%,0%);fill-opacity:1;" d="M 298.035156 65.710938 C 298.035156 71.445312 289.433594 71.445312 289.433594 65.710938 C 289.433594 59.972656 298.035156 59.972656 298.035156 65.710938 "/>
<path style=" stroke:none;fill-rule:nonzero;fill:rgb(100%,84.3%,0%);fill-opacity:1;" d="M 185.6875 333.335938 C 185.6875 339.070312 177.082031 339.070312 177.082031 333.335938 C 177.082031 327.601562 185.6875 327.601562 185.6875 333.335938 "/>
<path style=" stroke:none;fill-rule:nonzero;fill:rgb(100%,84.3%,0%);fill-opacity:1;" d="M 194.050781 307.65625 C 194.050781 313.394531 185.445312 313.394531 185.445312 307.65625 C 185.445312 301.921875 194.050781 301.921875 194.050781 307.65625 "/>
<path style=" stroke:none;fill-rule:nonzero;fill:rgb(100%,84.3%,0%);fill-opacity:1;" d="M 340.984375 322.566406 C 340.984375 328.300781 332.382812 328.300781 332.382812 322.566406 C 332.382812 316.832031 340.984375 316.832031 340.984375 322.566406 "/>
<path style=" stroke:none;fill-rule:nonzero;fill:rgb(100%,84.3%,0%);fill-opacity:1;" d="M 178.898438 232.972656 C 178.898438 238.707031 170.296875 238.707031 170.296875 232.972656 C 170.296875 227.238281 178.898438 227.238281 178.898438 232.972656 "/>
<path style=" stroke:none;fill-rule:nonzero;fill:rgb(100%,84.3%,0%);fill-opacity:1;" d="M 193.09375 85.320312 C 193.09375 91.054688 184.492188 91.054688 184.492188 85.320312 C 184.492188 79.585938 193.09375 79.585938 193.09375 85.320312 "/>
<path style=" stroke:none;fill-rule:nonzero;fill:rgb(100%,84.3%,0%);fill-opacity:1;" d="M 298.734375 446.5 C 298.734375 452.234375 290.132812 452.234375 290.132812 446.5 C 290.132812 440.765625 298.734375 440.765625 298.734375 446.5 "/>
<path style=" stroke:none;fill-rule:nonzero;fill:rgb(100%,84.3%,0%);fill-opacity:1;" d="M 323.5625 65.949219 C 323.5625 71.683594 314.960938 71.683594 314.960938 65.949219 C 314.960938 60.214844 323.5625 60.214844 323.5625 65.949219 "/>
<path style=" stroke:none;fill-rule:nonzero;fill:rgb(100%,84.3%,0%);fill-opacity:1;" d="M 322.003906 128.867188 C 322.003906 134.601562 313.402344 134.601562 313.402344 128.867188 C 313.402344 123.132812 322.003906 123.132812 322.003906 128.867188 "/>
<path style=" stroke:none;fill-rule:nonzero;fill:rgb(100%,84.3%,0%);fill-opacity:1;" d="M 186.683594 228.84375 C 186.683594 234.578125 178.082031 234.578125 178.082031 228.84375 C 178.082031 223.109375 186.683594 223.109375 186.683594 228.84375 "/>
<path style=" stroke:none;fill-rule:nonzero;fill:rgb(100%,84.3%,0%);fill-opacity:1;" d="M 186.015625 304.585938 C 186.015625 310.320312 177.414062 310.320312 177.414062 304.585938 C 177.414062 298.847656 186.015625 298.847656 186.015625 304.585938 "/>
<path style=" stroke:none;fill-rule:nonzero;fill:rgb(100%,84.3%,0%);fill-opacity:1;" d="M 187.109375 52.402344 C 187.109375 58.140625 178.507812 58.140625 178.507812 52.402344 C 178.507812 46.667969 187.109375 46.667969 187.109375 52.402344 "/>
<path style=" stroke:none;fill-rule:nonzero;fill:rgb(100%,84.3%,0%);fill-opacity:1;" d="M 342.019531 291.410156 C 342.019531 297.144531 333.417969 297.144531 333.417969 291.410156 C 333.417969 285.675781 342.019531 285.675781 342.019531 291.410156 "/>
<path style=" stroke:none;fill-rule:nonzero;fill:rgb(100%,84.3%,0%);fill-opacity:1;" d="M 193.660156 241.804688 C 193.660156 247.539062 185.058594 247.539062 185.058594 241.804688 C 185.058594 236.070312 193.660156 236.070312 193.660156 241.804688 "/>
<path style=" stroke:none;fill-rule:nonzero;fill:rgb(100%,84.3%,0%);fill-opacity:1;" d="M 335.570312 267.148438 C 335.570312 272.886719 326.96875 272.886719 326.96875 267.148438 C 326.96875 261.414062 335.570312 261.414062 335.570312 267.148438 "/>
<path style=" stroke:none;fill-rule:nonzero;fill:rgb(100%,84.3%,0%);fill-opacity:1;" d="M 196.75 460.550781 C 196.75 466.285156 188.144531 466.285156 188.144531 460.550781 C 188.144531 454.816406 196.75 454.816406 196.75 460.550781 "/>
<path style=" stroke:none;fill-rule:nonzero;fill:rgb(100%,84.3%,0%);fill-opacity:1;" d="M 181.039062 68.140625 C 181.039062 73.875 172.4375 73.875 172.4375 68.140625 C 172.4375 62.40625 181.039062 62.40625 181.039062 68.140625 "/>
<path style=" stroke:none;fill-rule:nonzero;fill:rgb(100%,84.3%,0%);fill-opacity:1;" d="M 179.777344 197.613281 C 179.777344 203.347656 171.175781 203.347656 171.175781 197.613281 C 171.175781 191.878906 179.777344 191.878906 179.777344 197.613281 "/>
<path style=" stroke:none;fill-rule:nonzero;fill:rgb(100%,84.3%,0%);fill-opacity:1;" d="M 303.824219 51.269531 C 303.824219 57.003906 295.222656 57.003906 295.222656 51.269531 C 295.222656 45.535156 303.824219 45.535156 303.824219 51.269531 "/>
<path style=" stroke:none;fill-rule:nonzero;fill:rgb(100%,84.3%,0%);fill-opacity:1;" d="M 186.582031 254.917969 C 186.582031 260.652344 177.980469 260.652344 177.980469 254.917969 C 177.980469 249.183594 186.582031 249.183594 186.582031 254.917969 "/>
<path style=" stroke:none;fill-rule:nonzero;fill:rgb(100%,84.3%,0%);fill-opacity:1;" d="M 193.648438 325.988281 C 193.648438 331.722656 185.046875 331.722656 185.046875 325.988281 C 185.046875 320.253906 193.648438 320.253906 193.648438 325.988281 "/>
<path style=" stroke:none;fill-rule:nonzero;fill:rgb(100%,84.3%,0%);fill-opacity:1;" d="M 342.019531 240.636719 C 342.019531 246.371094 333.417969 246.371094 333.417969 240.636719 C 333.417969 234.898438 342.019531 234.898438 342.019531 240.636719 "/>
<path style=" stroke:none;fill-rule:nonzero;fill:rgb(100%,84.3%,0%);fill-opacity:1;" d="M 284.945312 51.269531 C 284.945312 57.003906 276.34375 57.003906 276.34375 51.269531 C 276.34375 45.535156 284.945312 45.535156 284.945312 51.269531 "/>
<path style=" stroke:none;fill-rule:nonzero;fill:rgb(100%,84.3%,0%);fill-opacity:1;" d="M 186.101562 274.617188 C 186.101562 280.355469 177.5 280.355469 177.5 274.617188 C 177.5 268.882812 186.101562 268.882812 186.101562 274.617188 "/>
<path style=" stroke:none;fill-rule:nonzero;fill:rgb(100%,84.3%,0%);fill-opacity:1;" d="M 276.171875 447.691406 C 276.171875 453.429688 267.570312 453.429688 267.570312 447.691406 C 267.570312 441.957031 276.171875 441.957031 276.171875 447.691406 "/>
<path style=" stroke:none;fill-rule:nonzero;fill:rgb(100%,84.3%,0%);fill-opacity:1;" d="M 342.019531 151.808594 C 342.019531 157.542969 333.417969 157.542969 333.417969 151.808594 C 333.417969 146.074219 342.019531 146.074219 342.019531 151.808594 "/>
<path style=" stroke:none;fill-rule:nonzero;fill:rgb(100%,84.3%,0%);fill-opacity:1;" d="M 178.582031 290.84375 C 178.582031 296.578125 169.980469 296.578125 169.980469 290.84375 C 169.980469 285.109375 178.582031 285.109375 178.582031 290.84375 "/>
<path style=" stroke:none;fill-rule:nonzero;fill:rgb(100%,84.3%,0%);fill-opacity:1;" d="M 276.261719 460.730469 C 276.261719 466.464844 267.660156 466.464844 267.660156 460.730469 C 267.660156 454.996094 276.261719 454.996094 276.261719 460.730469 "/>
<path style=" stroke:none;fill-rule:nonzero;fill:rgb(100%,84.3%,0%);fill-opacity:1;" d="M 317.960938 411.476562 C 317.960938 417.210938 309.359375 417.210938 309.359375 411.476562 C 309.359375 405.742188 317.960938 405.742188 317.960938 411.476562 "/>
<path style=" stroke:none;fill-rule:nonzero;fill:rgb(100%,84.3%,0%);fill-opacity:1;" d="M 334.105469 454.992188 C 334.105469 460.726562 325.503906 460.726562 325.503906 454.992188 C 325.503906 449.257812 334.105469 449.257812 334.105469 454.992188 "/>
<path style=" stroke:none;fill-rule:nonzero;fill:rgb(100%,84.3%,0%);fill-opacity:1;" d="M 198.433594 353.90625 C 198.433594 359.640625 189.832031 359.640625 189.832031 353.90625 C 189.832031 348.171875 198.433594 348.171875 198.433594 353.90625 "/>
<path style=" stroke:none;fill-rule:nonzero;fill:rgb(100%,84.3%,0%);fill-opacity:1;" d="M 186.253906 237.433594 C 186.253906 243.167969 177.652344 243.167969 177.652344 237.433594 C 177.652344 231.699219 186.253906 231.699219 186.253906 237.433594 "/>
<path style=" stroke:none;fill-rule:nonzero;fill:rgb(100%,84.3%,0%);fill-opacity:1;" d="M 193.488281 268.476562 C 193.488281 274.210938 184.886719 274.210938 184.886719 268.476562 C 184.886719 262.742188 193.488281 262.742188 193.488281 268.476562 "/>
<path style=" stroke:none;fill-rule:nonzero;fill:rgb(100%,84.3%,0%);fill-opacity:1;" d="M 321.238281 425.058594 C 321.238281 430.792969 312.636719 430.792969 312.636719 425.058594 C 312.636719 419.320312 321.238281 419.320312 321.238281 425.058594 "/>
<path style=" stroke:none;fill-rule:nonzero;fill:rgb(100%,84.3%,0%);fill-opacity:1;" d="M 328.582031 123.328125 C 328.582031 129.0625 319.980469 129.0625 319.980469 123.328125 C 319.980469 117.59375 328.582031 117.59375 328.582031 123.328125 "/>
<path style=" stroke:none;fill-rule:nonzero;fill:rgb(100%,84.3%,0%);fill-opacity:1;" d="M 342.019531 418.246094 C 342.019531 423.984375 333.417969 423.984375 333.417969 418.246094 C 333.417969 412.511719 342.019531 412.511719 342.019531 418.246094 "/>
<path style=" stroke:none;fill-rule:nonzero;fill:rgb(100%,84.3%,0%);fill-opacity:1;" d="M 336.425781 434.621094 C 336.425781 440.359375 327.824219 440.359375 327.824219 434.621094 C 327.824219 428.886719 336.425781 428.886719 336.425781 434.621094 "/>
<path style=" stroke:none;fill-rule:nonzero;fill:rgb(100%,84.3%,0%);fill-opacity:1;" d="M 302.839844 460.730469 C 302.839844 466.464844 294.238281 466.464844 294.238281 460.730469 C 294.238281 454.996094 302.839844 454.996094 302.839844 460.730469 "/>
<path style=" stroke:none;fill-rule:nonzero;fill:rgb(100%,84.3%,0%);fill-opacity:1;" d="M 342.019531 123.910156 C 342.019531 129.648438 333.417969 129.648438 333.417969 123.910156 C 333.417969 118.175781 342.019531 118.175781 342.019531 123.910156 "/>
<path style=" stroke:none;fill-rule:nonzero;fill:rgb(100%,84.3%,0%);fill-opacity:1;" d="M 221.824219 53.984375 C 221.824219 59.71875 213.222656 59.71875 213.222656 53.984375 C 213.222656 48.25 221.824219 48.25 221.824219 53.984375 "/>
<path style=" stroke:none;fill-rule:nonzero;fill:rgb(100%,84.3%,0%);fill-opacity:1;" d="M 314.960938 65.945312 C 314.960938 71.679688 306.359375 71.679688 306.359375 65.945312 C 306.359375 60.210938 314.960938 60.210938 314.960938 65.945312 "/>
<path style=" stroke:none;fill-rule:nonzero;fill:rgb(100%,84.3%,0%);fill-opacity:1;" d="M 186.535156 210.390625 C 186.535156 216.125 177.933594 216.125 177.933594 210.390625 C 177.933594 204.65625 186.535156 204.65625 186.535156 210.390625 "/>
<path style=" stroke:none;fill-rule:nonzero;fill:rgb(100%,84.3%,0%);fill-opacity:1;" d="M 323.457031 401.097656 C 323.457031 406.832031 314.855469 406.832031 314.855469 401.097656 C 314.855469 395.363281 323.457031 395.363281 323.457031 401.097656 "/>
<path style=" stroke:none;fill-rule:nonzero;fill:rgb(100%,84.3%,0%);fill-opacity:1;" d="M 270.605469 454.25 C 270.605469 459.984375 262.003906 459.984375 262.003906 454.25 C 262.003906 448.515625 270.605469 448.515625 270.605469 454.25 "/>
<path style=" stroke:none;fill-rule:nonzero;fill:rgb(100%,84.3%,0%);fill-opacity:1;" d="M 178.582031 360.835938 C 178.582031 366.570312 169.980469 366.570312 169.980469 360.835938 C 169.980469 355.101562 178.582031 355.101562 178.582031 360.835938 "/>
<path style=" stroke:none;fill-rule:nonzero;fill:rgb(100%,84.3%,0%);fill-opacity:1;" d="M 195.457031 431.738281 C 195.457031 437.472656 186.855469 437.472656 186.855469 431.738281 C 186.855469 426.003906 195.457031 426.003906 195.457031 431.738281 "/>
<path style=" stroke:none;fill-rule:nonzero;fill:rgb(100%,84.3%,0%);fill-opacity:1;" d="M 189.503906 373.203125 C 189.503906 378.9375 180.902344 378.9375 180.902344 373.203125 C 180.902344 367.46875 189.503906 367.46875 189.503906 373.203125 "/>
<path style=" stroke:none;fill-rule:nonzero;fill:rgb(100%,84.3%,0%);fill-opacity:1;" d="M 334.171875 446.242188 C 334.171875 451.976562 325.570312 451.976562 325.570312 446.242188 C 325.570312 440.507812 334.171875 440.507812 334.171875 446.242188 "/>
<path style=" stroke:none;fill-rule:nonzero;fill:rgb(100%,84.3%,0%);fill-opacity:1;" d="M 294.59375 454.039062 C 294.59375 459.773438 285.988281 459.773438 285.988281 454.039062 C 285.988281 448.304688 294.59375 448.304688 294.59375 454.039062 "/>
<path style=" stroke:none;fill-rule:nonzero;fill:rgb(100%,84.3%,0%);fill-opacity:1;" d="M 317.207031 136.007812 C 317.207031 141.742188 308.605469 141.742188 308.605469 136.007812 C 308.605469 130.273438 317.207031 130.273438 317.207031 136.007812 "/>
<path style=" stroke:none;fill-rule:nonzero;fill:rgb(100%,84.3%,0%);fill-opacity:1;" d="M 333.9375 299.160156 C 333.9375 304.898438 325.335938 304.898438 325.335938 299.160156 C 325.335938 293.425781 333.9375 293.425781 333.9375 299.160156 "/>
<path style=" stroke:none;fill-rule:nonzero;fill:rgb(100%,84.3%,0%);fill-opacity:1;" d="M 320.605469 157.933594 C 320.605469 163.667969 312.003906 163.667969 312.003906 157.933594 C 312.003906 152.199219 320.605469 152.199219 320.605469 157.933594 "/>
<path style=" stroke:none;fill-rule:nonzero;fill:rgb(100%,84.3%,0%);fill-opacity:1;" d="M 249.039062 51.269531 C 249.039062 57.003906 240.4375 57.003906 240.4375 51.269531 C 240.4375 45.535156 249.039062 45.535156 249.039062 51.269531 "/>
<path style=" stroke:none;fill-rule:nonzero;fill:rgb(100%,84.3%,0%);fill-opacity:1;" d="M 338.855469 426.371094 C 338.855469 432.105469 330.253906 432.105469 330.253906 426.371094 C 330.253906 420.636719 338.855469 420.636719 338.855469 426.371094 "/>
<path style=" stroke:none;fill-rule:nonzero;fill:rgb(100%,84.3%,0%);fill-opacity:1;" d="M 342.019531 102.476562 C 342.019531 108.210938 333.417969 108.210938 333.417969 102.476562 C 333.417969 96.742188 342.019531 96.742188 342.019531 102.476562 "/>
<path style=" stroke:none;fill-rule:nonzero;fill:rgb(100%,84.3%,0%);fill-opacity:1;" d="M 184.171875 452.613281 C 184.171875 458.347656 175.570312 458.347656 175.570312 452.613281 C 175.570312 446.878906 184.171875 446.878906 184.171875 452.613281 "/>
<path style=" stroke:none;fill-rule:nonzero;fill:rgb(100%,84.3%,0%);fill-opacity:1;" d="M 255.382812 57.078125 C 255.382812 62.8125 246.78125 62.8125 246.78125 57.078125 C 246.78125 51.34375 255.382812 51.34375 255.382812 57.078125 "/>
<path style=" stroke:none;fill-rule:nonzero;fill:rgb(100%,84.3%,0%);fill-opacity:1;" d="M 324.328125 143.246094 C 324.328125 148.984375 315.726562 148.984375 315.726562 143.246094 C 315.726562 137.511719 324.328125 137.511719 324.328125 143.246094 "/>
<path style=" stroke:none;fill-rule:nonzero;fill:rgb(100%,84.3%,0%);fill-opacity:1;" d="M 178.582031 416.796875 C 178.582031 422.53125 169.980469 422.53125 169.980469 416.796875 C 169.980469 411.0625 178.582031 411.0625 178.582031 416.796875 "/>
<path style=" stroke:none;fill-rule:nonzero;fill:rgb(100%,84.3%,0%);fill-opacity:1;" d="M 332.792969 185.667969 C 332.792969 191.402344 324.191406 191.402344 324.191406 185.667969 C 324.191406 179.933594 332.792969 179.933594 332.792969 185.667969 "/>
<path style=" stroke:none;fill-rule:nonzero;fill:rgb(100%,84.3%,0%);fill-opacity:1;" d="M 187.015625 409.429688 C 187.015625 415.164062 178.414062 415.164062 178.414062 409.429688 C 178.414062 403.695312 187.015625 403.695312 187.015625 409.429688 "/>
<path style=" stroke:none;fill-rule:nonzero;fill:rgb(100%,84.3%,0%);fill-opacity:1;" d="M 204.1875 68.351562 C 204.1875 74.085938 195.582031 74.085938 195.582031 68.351562 C 195.582031 62.617188 204.1875 62.617188 204.1875 68.351562 "/>
<path style=" stroke:none;fill-rule:nonzero;fill:rgb(100%,84.3%,0%);fill-opacity:1;" d="M 328.40625 439.855469 C 328.40625 445.589844 319.804688 445.589844 319.804688 439.855469 C 319.804688 434.121094 328.40625 434.121094 328.40625 439.855469 "/>
<path style=" stroke:none;fill-rule:nonzero;fill:rgb(100%,84.3%,0%);fill-opacity:1;" d="M 288.429688 448.039062 C 288.429688 453.773438 279.828125 453.773438 279.828125 448.039062 C 279.828125 442.304688 288.429688 442.304688 288.429688 448.039062 "/>
<path style=" stroke:none;fill-rule:nonzero;fill:rgb(100%,84.3%,0%);fill-opacity:1;" d="M 218.160156 452.128906 C 218.160156 457.863281 209.558594 457.863281 209.558594 452.128906 C 209.558594 446.394531 218.160156 446.394531 218.160156 452.128906 "/>
<path style=" stroke:none;fill-rule:nonzero;fill:rgb(100%,84.3%,0%);fill-opacity:1;" d="M 342.019531 405.933594 C 342.019531 411.667969 333.417969 411.667969 333.417969 405.933594 C 333.417969 400.199219 342.019531 400.199219 342.019531 405.933594 "/>
<path style=" stroke:none;fill-rule:nonzero;fill:rgb(100%,84.3%,0%);fill-opacity:1;" d="M 184.773438 82.777344 C 184.773438 88.511719 176.171875 88.511719 176.171875 82.777344 C 176.171875 77.042969 184.773438 77.042969 184.773438 82.777344 "/>
<path style=" stroke:none;fill-rule:nonzero;fill:rgb(100%,84.3%,0%);fill-opacity:1;" d="M 342.019531 172.730469 C 342.019531 178.464844 333.417969 178.464844 333.417969 172.730469 C 333.417969 166.996094 342.019531 166.996094 342.019531 172.730469 "/>
<path style=" stroke:none;fill-rule:nonzero;fill:rgb(100%,84.3%,0%);fill-opacity:1;" d="M 201.179688 237.203125 C 201.179688 242.9375 192.574219 242.9375 192.574219 237.203125 C 192.574219 231.46875 201.179688 231.46875 201.179688 237.203125 "/>
<path style=" stroke:none;fill-rule:nonzero;fill:rgb(100%,84.3%,0%);fill-opacity:1;" d="M 342.019531 182.363281 C 342.019531 188.097656 333.417969 188.097656 333.417969 182.363281 C 333.417969 176.628906 342.019531 176.628906 342.019531 182.363281 "/>
<path style=" stroke:none;fill-rule:nonzero;fill:rgb(100%,84.3%,0%);fill-opacity:1;" d="M 197.457031 369.921875 C 197.457031 375.65625 188.855469 375.65625 188.855469 369.921875 C 188.855469 364.183594 197.457031 364.183594 197.457031 369.921875 "/>
<path style=" stroke:none;fill-rule:nonzero;fill:rgb(100%,84.3%,0%);fill-opacity:1;" d="M 201.714844 226 C 201.714844 231.734375 193.113281 231.734375 193.113281 226 C 193.113281 220.265625 201.714844 220.265625 201.714844 226 "/>
<path style=" stroke:none;fill-rule:nonzero;fill:rgb(100%,84.3%,0%);fill-opacity:1;" d="M 187.007812 400.386719 C 187.007812 406.121094 178.40625 406.121094 178.40625 400.386719 C 178.40625 394.648438 187.007812 394.648438 187.007812 400.386719 "/>
<path style=" stroke:none;fill-rule:nonzero;fill:rgb(100%,84.3%,0%);fill-opacity:1;" d="M 314.597656 51.269531 C 314.597656 57.003906 305.996094 57.003906 305.996094 51.269531 C 305.996094 45.535156 314.597656 45.535156 314.597656 51.269531 "/>
<path style=" stroke:none;fill-rule:nonzero;fill:rgb(100%,84.3%,0%);fill-opacity:1;" d="M 299.589844 74.171875 C 299.589844 79.90625 290.988281 79.90625 290.988281 74.171875 C 290.988281 68.433594 299.589844 68.433594 299.589844 74.171875 "/>
<path style=" stroke:none;fill-rule:nonzero;fill:rgb(100%,84.3%,0%);fill-opacity:1;" d="M 186.164062 218.984375 C 186.164062 224.722656 177.5625 224.722656 177.5625 218.984375 C 177.5625 213.25 186.164062 213.25 186.164062 218.984375 "/>
<path style=" stroke:none;fill-rule:nonzero;fill:rgb(100%,84.3%,0%);fill-opacity:1;" d="M 263.417969 460.730469 C 263.417969 466.464844 254.816406 466.464844 254.816406 460.730469 C 254.816406 454.996094 263.417969 454.996094 263.417969 460.730469 "/>
<path style=" stroke:none;fill-rule:nonzero;fill:rgb(100%,84.3%,0%);fill-opacity:1;" d="M 187.308594 193.457031 C 187.308594 199.191406 178.707031 199.191406 178.707031 193.457031 C 178.707031 187.722656 187.308594 187.722656 187.308594 193.457031 "/>
<path style=" stroke:none;fill-rule:nonzero;fill:rgb(100%,84.3%,0%);fill-opacity:1;" d="M 195.117188 210.929688 C 195.117188 216.664062 186.515625 216.664062 186.515625 210.929688 C 186.515625 205.195312 195.117188 205.195312 195.117188 210.929688 "/>
<path style=" stroke:none;fill-rule:nonzero;fill:rgb(100%,84.3%,0%);fill-opacity:1;" d="M 342.019531 134.09375 C 342.019531 139.828125 333.417969 139.828125 333.417969 134.09375 C 333.417969 128.355469 342.019531 128.355469 342.019531 134.09375 "/>
<path style=" stroke:none;fill-rule:nonzero;fill:rgb(100%,84.3%,0%);fill-opacity:1;" d="M 333.492188 290.296875 C 333.492188 296.03125 324.890625 296.03125 324.890625 290.296875 C 324.890625 284.5625 333.492188 284.5625 333.492188 290.296875 "/>
<path style=" stroke:none;fill-rule:nonzero;fill:rgb(100%,84.3%,0%);fill-opacity:1;" d="M 194.5625 220.855469 C 194.5625 226.589844 185.960938 226.589844 185.960938 220.855469 C 185.960938 215.121094 194.5625 215.121094 194.5625 220.855469 "/>
<path style=" stroke:none;fill-rule:nonzero;fill:rgb(100%,84.3%,0%);fill-opacity:1;" d="M 178.582031 373.804688 C 178.582031 379.539062 169.980469 379.539062 169.980469 373.804688 C 169.980469 368.070312 178.582031 368.070312 178.582031 373.804688 "/>
<path style=" stroke:none;fill-rule:nonzero;fill:rgb(100%,84.3%,0%);fill-opacity:1;" d="M 195.46875 411.039062 C 195.46875 416.777344 186.863281 416.777344 186.863281 411.039062 C 186.863281 405.304688 195.46875 405.304688 195.46875 411.039062 "/>
<path style=" stroke:none;fill-rule:nonzero;fill:rgb(100%,84.3%,0%);fill-opacity:1;" d="M 178.582031 351.425781 C 178.582031 357.160156 169.980469 357.160156 169.980469 351.425781 C 169.980469 345.691406 178.582031 345.691406 178.582031 351.425781 "/>
<path style=" stroke:none;fill-rule:nonzero;fill:rgb(100%,84.3%,0%);fill-opacity:1;" d="M 342.019531 396.707031 C 342.019531 402.441406 333.417969 402.441406 333.417969 396.707031 C 333.417969 390.972656 342.019531 390.972656 342.019531 396.707031 "/>
<path style=" stroke:none;fill-rule:nonzero;fill:rgb(100%,84.3%,0%);fill-opacity:1;" d="M 305.859375 419.238281 C 305.859375 424.972656 297.257812 424.972656 297.257812 419.238281 C 297.257812 413.503906 305.859375 413.503906 305.859375 419.238281 "/>
<path style=" stroke:none;fill-rule:nonzero;fill:rgb(100%,84.3%,0%);fill-opacity:1;" d="M 178.582031 434.421875 C 178.582031 440.15625 169.980469 440.15625 169.980469 434.421875 C 169.980469 428.6875 178.582031 428.6875 178.582031 434.421875 "/>
<path style=" stroke:none;fill-rule:nonzero;fill:rgb(100%,84.3%,0%);fill-opacity:1;" d="M 333.6875 157.714844 C 333.6875 163.449219 325.085938 163.449219 325.085938 157.714844 C 325.085938 151.980469 333.6875 151.980469 333.6875 157.714844 "/>
<path style=" stroke:none;fill-rule:nonzero;fill:rgb(100%,84.3%,0%);fill-opacity:1;" d="M 244.394531 460.730469 C 244.394531 466.464844 235.792969 466.464844 235.792969 460.730469 C 235.792969 454.996094 244.394531 454.996094 244.394531 460.730469 "/>
<path style=" stroke:none;fill-rule:nonzero;fill:rgb(100%,84.3%,0%);fill-opacity:1;" d="M 314.445312 419.777344 C 314.445312 425.511719 305.84375 425.511719 305.84375 419.777344 C 305.84375 414.042969 314.445312 414.042969 314.445312 419.777344 "/>
<path style=" stroke:none;fill-rule:nonzero;fill:rgb(100%,84.3%,0%);fill-opacity:1;" d="M 334.324219 108.746094 C 334.324219 114.480469 325.722656 114.480469 325.722656 108.746094 C 325.722656 103.011719 334.324219 103.011719 334.324219 108.746094 "/>
<path style=" stroke:none;fill-rule:nonzero;fill:rgb(100%,84.3%,0%);fill-opacity:1;" d="M 327.839844 431.273438 C 327.839844 437.007812 319.238281 437.007812 319.238281 431.273438 C 319.238281 425.539062 327.839844 425.539062 327.839844 431.273438 "/>
<path style=" stroke:none;fill-rule:nonzero;fill:rgb(100%,84.3%,0%);fill-opacity:1;" d="M 192.84375 281.390625 C 192.84375 287.125 184.242188 287.125 184.242188 281.390625 C 184.242188 275.65625 192.84375 275.65625 192.84375 281.390625 "/>
<path style=" stroke:none;fill-rule:nonzero;fill:rgb(100%,84.3%,0%);fill-opacity:1;" d="M 291.433594 438.265625 C 291.433594 444 282.832031 444 282.832031 438.265625 C 282.832031 432.53125 291.433594 432.53125 291.433594 438.265625 "/>
<path style=" stroke:none;fill-rule:nonzero;fill:rgb(100%,84.3%,0%);fill-opacity:1;" d="M 318.9375 433.347656 C 318.9375 439.082031 310.335938 439.082031 310.335938 433.347656 C 310.335938 427.609375 318.9375 427.609375 318.9375 433.347656 "/>
<path style=" stroke:none;fill-rule:nonzero;fill:rgb(100%,84.3%,0%);fill-opacity:1;" d="M 341.855469 160.40625 C 341.855469 166.144531 333.253906 166.144531 333.253906 160.40625 C 333.253906 154.671875 341.855469 154.671875 341.855469 160.40625 "/>
<path style=" stroke:none;fill-rule:nonzero;fill:rgb(100%,84.3%,0%);fill-opacity:1;" d="M 205.285156 76.882812 C 205.285156 82.617188 196.683594 82.617188 196.683594 76.882812 C 196.683594 71.148438 205.285156 71.148438 205.285156 76.882812 "/>
<path style=" stroke:none;fill-rule:nonzero;fill:rgb(100%,84.3%,0%);fill-opacity:1;" d="M 311.027344 438.28125 C 311.027344 444.015625 302.425781 444.015625 302.425781 438.28125 C 302.425781 432.546875 311.027344 432.546875 311.027344 438.28125 "/>
<path style=" stroke:none;fill-rule:nonzero;fill:rgb(100%,84.3%,0%);fill-opacity:1;" d="M 327.054688 152.238281 C 327.054688 157.972656 318.449219 157.972656 318.449219 152.238281 C 318.449219 146.503906 327.054688 146.503906 327.054688 152.238281 "/>
<path style=" stroke:none;fill-rule:nonzero;fill:rgb(100%,84.3%,0%);fill-opacity:1;" d="M 189.320312 202.253906 C 189.320312 207.988281 180.71875 207.988281 180.71875 202.253906 C 180.71875 196.519531 189.320312 196.519531 189.320312 202.253906 "/>
<path style=" stroke:none;fill-rule:nonzero;fill:rgb(100%,84.3%,0%);fill-opacity:1;" d="M 253.683594 460.730469 C 253.683594 466.464844 245.082031 466.464844 245.082031 460.730469 C 245.082031 454.996094 253.683594 454.996094 253.683594 460.730469 "/>
<path style=" stroke:none;fill-rule:nonzero;fill:rgb(100%,84.3%,0%);fill-opacity:1;" d="M 332.894531 71.324219 C 332.894531 77.058594 324.289062 77.058594 324.289062 71.324219 C 324.289062 65.589844 332.894531 65.589844 332.894531 71.324219 "/>
<path style=" stroke:none;fill-rule:nonzero;fill:rgb(100%,84.3%,0%);fill-opacity:1;" d="M 178.582031 206.132812 C 178.582031 211.867188 169.980469 211.867188 169.980469 206.132812 C 169.980469 200.398438 178.582031 200.398438 178.582031 206.132812 "/>
<path style=" stroke:none;fill-rule:nonzero;fill:rgb(100%,84.3%,0%);fill-opacity:1;" d="M 280.359375 58.546875 C 280.359375 64.28125 271.757812 64.28125 271.757812 58.546875 C 271.757812 52.8125 280.359375 52.8125 280.359375 58.546875 "/>
<path style=" stroke:none;fill-rule:nonzero;fill:rgb(100%,84.3%,0%);fill-opacity:1;" d="M 259.085938 453.300781 C 259.085938 459.035156 250.480469 459.035156 250.480469 453.300781 C 250.480469 447.566406 259.085938 447.566406 259.085938 453.300781 "/>
<path style=" stroke:none;fill-rule:nonzero;fill:rgb(100%,84.3%,0%);fill-opacity:1;" d="M 203.769531 347.160156 C 203.769531 352.894531 195.167969 352.894531 195.167969 347.160156 C 195.167969 341.425781 203.769531 341.425781 203.769531 347.160156 "/>
<path style=" stroke:none;fill-rule:nonzero;fill:rgb(100%,84.3%,0%);fill-opacity:1;" d="M 340.105469 59.773438 C 340.105469 65.507812 331.503906 65.507812 331.503906 59.773438 C 331.503906 54.039062 340.105469 54.039062 340.105469 59.773438 "/>
<path style=" stroke:none;fill-rule:nonzero;fill:rgb(100%,84.3%,0%);fill-opacity:1;" d="M 194.125 68.558594 C 194.125 74.292969 185.523438 74.292969 185.523438 68.558594 C 185.523438 62.824219 194.125 62.824219 194.125 68.558594 "/>
<path style=" stroke:none;fill-rule:nonzero;fill:rgb(100%,84.3%,0%);fill-opacity:1;" d="M 178.582031 407.746094 C 178.582031 413.484375 169.980469 413.484375 169.980469 407.746094 C 169.980469 402.011719 178.582031 402.011719 178.582031 407.746094 "/>
<path style=" stroke:none;fill-rule:nonzero;fill:rgb(100%,84.3%,0%);fill-opacity:1;" d="M 202.046875 269.363281 C 202.046875 275.101562 193.445312 275.101562 193.445312 269.363281 C 193.445312 263.628906 202.046875 263.628906 202.046875 269.363281 "/>
<path style=" stroke:none;fill-rule:nonzero;fill:rgb(100%,84.3%,0%);fill-opacity:1;" d="M 186.859375 432.09375 C 186.859375 437.828125 178.257812 437.828125 178.257812 432.09375 C 178.257812 426.359375 186.859375 426.359375 186.859375 432.09375 "/>
<path style=" stroke:none;fill-rule:nonzero;fill:rgb(100%,84.3%,0%);fill-opacity:1;" d="M 178.582031 317.714844 C 178.582031 323.449219 169.980469 323.449219 169.980469 317.714844 C 169.980469 311.980469 178.582031 311.980469 178.582031 317.714844 "/>
<path style=" stroke:none;fill-rule:nonzero;fill:rgb(100%,84.3%,0%);fill-opacity:1;" d="M 185.828125 356.199219 C 185.828125 361.9375 177.226562 361.9375 177.226562 356.199219 C 177.226562 350.464844 185.828125 350.464844 185.828125 356.199219 "/>
<path style=" stroke:none;fill-rule:nonzero;fill:rgb(100%,84.3%,0%);fill-opacity:1;" d="M 318.585938 460.730469 C 318.585938 466.464844 309.980469 466.464844 309.980469 460.730469 C 309.980469 454.996094 318.585938 454.996094 318.585938 460.730469 "/>
<path style=" stroke:none;fill-rule:nonzero;fill:rgb(100%,84.3%,0%);fill-opacity:1;" d="M 327.90625 408.460938 C 327.90625 414.195312 319.304688 414.195312 319.304688 408.460938 C 319.304688 402.726562 327.90625 402.726562 327.90625 408.460938 "/>
<path style=" stroke:none;fill-rule:nonzero;fill:rgb(100%,84.3%,0%);fill-opacity:1;" d="M 341.394531 51.269531 C 341.394531 57.003906 332.789062 57.003906 332.789062 51.269531 C 332.789062 45.535156 341.394531 45.535156 341.394531 51.269531 "/>
<path style=" stroke:none;fill-rule:nonzero;fill:rgb(100%,84.3%,0%);fill-opacity:1;" d="M 291.890625 59.691406 C 291.890625 65.425781 283.289062 65.425781 283.289062 59.691406 C 283.289062 53.957031 291.890625 53.957031 291.890625 59.691406 "/>
<path style=" stroke:none;fill-rule:nonzero;fill:rgb(100%,84.3%,0%);fill-opacity:1;" d="M 333.488281 312.925781 C 333.488281 318.660156 324.886719 318.660156 324.886719 312.925781 C 324.886719 307.191406 333.488281 307.191406 333.488281 312.925781 "/>
<path style=" stroke:none;fill-rule:nonzero;fill:rgb(100%,84.3%,0%);fill-opacity:1;" d="M 300.03125 437.996094 C 300.03125 443.730469 291.429688 443.730469 291.429688 437.996094 C 291.429688 432.261719 300.03125 432.261719 300.03125 437.996094 "/>
<path style=" stroke:none;fill-rule:nonzero;fill:rgb(100%,84.3%,0%);fill-opacity:1;" d="M 225.917969 457.03125 C 225.917969 462.765625 217.316406 462.765625 217.316406 457.03125 C 217.316406 451.296875 225.917969 451.296875 225.917969 457.03125 "/>
<path style=" stroke:none;fill-rule:nonzero;fill:rgb(100%,84.3%,0%);fill-opacity:1;" d="M 326.109375 451.820312 C 326.109375 457.554688 317.507812 457.554688 317.507812 451.820312 C 317.507812 446.085938 326.109375 446.085938 326.109375 451.820312 "/>
<path style=" stroke:none;fill-rule:nonzero;fill:rgb(100%,84.3%,0%);fill-opacity:1;" d="M 193.355469 337.234375 C 193.355469 342.96875 184.75 342.96875 184.75 337.234375 C 184.75 331.5 193.355469 331.5 193.355469 337.234375 "/>
<path style=" stroke:none;fill-rule:nonzero;fill:rgb(100%,84.3%,0%);fill-opacity:1;" d="M 273.886719 51.269531 C 273.886719 57.003906 265.285156 57.003906 265.285156 51.269531 C 265.285156 45.535156 273.886719 45.535156 273.886719 51.269531 "/>
<path style=" stroke:none;fill-rule:nonzero;fill:rgb(100%,84.3%,0%);fill-opacity:1;" d="M 243.203125 446.441406 C 243.203125 452.175781 234.601562 452.175781 234.601562 446.441406 C 234.601562 440.707031 243.203125 440.707031 243.203125 446.441406 "/>
<path style=" stroke:none;fill-rule:nonzero;fill:rgb(100%,84.3%,0%);fill-opacity:1;" d="M 178.582031 189.070312 C 178.582031 194.804688 169.980469 194.804688 169.980469 189.070312 C 169.980469 183.335938 178.582031 183.335938 178.582031 189.070312 "/>
<path style=" stroke:none;fill-rule:nonzero;fill:rgb(100%,84.3%,0%);fill-opacity:1;" d="M 333.214844 143.980469 C 333.214844 149.714844 324.609375 149.714844 324.609375 143.980469 C 324.609375 138.246094 333.214844 138.246094 333.214844 143.980469 "/>
<path style=" stroke:none;fill-rule:nonzero;fill:rgb(100%,84.3%,0%);fill-opacity:1;" d="M 185.222656 285.375 C 185.222656 291.109375 176.617188 291.109375 176.617188 285.375 C 176.617188 279.640625 185.222656 279.640625 185.222656 285.375 "/>
<path style=" stroke:none;fill-rule:nonzero;fill:rgb(100%,84.3%,0%);fill-opacity:1;" d="M 195.476562 77.054688 C 195.476562 82.789062 186.875 82.789062 186.875 77.054688 C 186.875 71.320312 195.476562 71.320312 195.476562 77.054688 "/>
<path style=" stroke:none;fill-rule:nonzero;fill:rgb(100%,84.3%,0%);fill-opacity:1;" d="M 308.472656 446.496094 C 308.472656 452.230469 299.871094 452.230469 299.871094 446.496094 C 299.871094 440.761719 308.472656 440.761719 308.472656 446.496094 "/>
<path style=" stroke:none;fill-rule:nonzero;fill:rgb(100%,84.3%,0%);fill-opacity:1;" d="M 194.703125 250.34375 C 194.703125 256.078125 186.101562 256.078125 186.101562 250.34375 C 186.101562 244.609375 194.703125 244.609375 194.703125 250.34375 "/>
<path style=" stroke:none;fill-rule:nonzero;fill:rgb(100%,84.3%,0%);fill-opacity:1;" d="M 196.828125 379.734375 C 196.828125 385.46875 188.226562 385.46875 188.226562 379.734375 C 188.226562 374 196.828125 374 196.828125 379.734375 "/>
<path style=" stroke:none;fill-rule:nonzero;fill:rgb(100%,84.3%,0%);fill-opacity:1;" d="M 185.777344 264.671875 C 185.777344 270.40625 177.175781 270.40625 177.175781 264.671875 C 177.175781 258.933594 185.777344 258.933594 185.777344 264.671875 "/>
<path style=" stroke:none;fill-rule:nonzero;fill:rgb(100%,84.3%,0%);fill-opacity:1;" d="M 186.90625 74.433594 C 186.90625 80.167969 178.304688 80.167969 178.304688 74.433594 C 178.304688 68.699219 186.90625 68.699219 186.90625 74.433594 "/>
<path style=" stroke:none;fill-rule:nonzero;fill:rgb(100%,84.3%,0%);fill-opacity:1;" d="M 342.019531 250.714844 C 342.019531 256.449219 333.417969 256.449219 333.417969 250.714844 C 333.417969 244.980469 342.019531 244.980469 342.019531 250.714844 "/>
<path style=" stroke:none;fill-rule:nonzero;fill:rgb(100%,84.3%,0%);fill-opacity:1;" d="M 233.007812 51.269531 C 233.007812 57.003906 224.40625 57.003906 224.40625 51.269531 C 224.40625 45.535156 233.007812 45.535156 233.007812 51.269531 "/>
<path style=" stroke:none;fill-rule:nonzero;fill:rgb(100%,84.3%,0%);fill-opacity:1;" d="M 193.589844 387.703125 C 193.589844 393.4375 184.984375 393.4375 184.984375 387.703125 C 184.984375 381.96875 193.589844 381.96875 193.589844 387.703125 "/>
<path style=" stroke:none;fill-rule:nonzero;fill:rgb(100%,84.3%,0%);fill-opacity:1;" d="M 331.183594 422.480469 C 331.183594 428.214844 322.582031 428.214844 322.582031 422.480469 C 322.582031 416.746094 331.183594 416.746094 331.183594 422.480469 "/>
<path style=" stroke:none;fill-rule:nonzero;fill:rgb(100%,84.3%,0%);fill-opacity:1;" d="M 342.019531 112.585938 C 342.019531 118.320312 333.417969 118.320312 333.417969 112.585938 C 333.417969 106.851562 342.019531 106.851562 342.019531 112.585938 "/>
<path style=" stroke:none;fill-rule:nonzero;fill:rgb(100%,84.3%,0%);fill-opacity:1;" d="M 342.019531 193.1875 C 342.019531 198.921875 333.417969 198.921875 333.417969 193.1875 C 333.417969 187.453125 342.019531 187.453125 342.019531 193.1875 "/>
<path style=" stroke:none;fill-rule:nonzero;fill:rgb(100%,84.3%,0%);fill-opacity:1;" d="M 342.019531 387.40625 C 342.019531 393.140625 333.417969 393.140625 333.417969 387.40625 C 333.417969 381.671875 342.019531 381.671875 342.019531 387.40625 "/>
<path style=" stroke:none;fill-rule:nonzero;fill:rgb(100%,84.3%,0%);fill-opacity:1;" d="M 255.1875 445.632812 C 255.1875 451.367188 246.585938 451.367188 246.585938 445.632812 C 246.585938 439.894531 255.1875 439.894531 255.1875 445.632812 "/>
<path style=" stroke:none;fill-rule:nonzero;fill:rgb(100%,84.3%,0%);fill-opacity:1;" d="M 185.867188 365.40625 C 185.867188 371.140625 177.265625 371.140625 177.265625 365.40625 C 177.265625 359.671875 185.867188 359.671875 185.867188 365.40625 "/>
<path style=" stroke:none;fill-rule:nonzero;fill:rgb(100%,84.3%,0%);fill-opacity:1;" d="M 335.324219 117.988281 C 335.324219 123.722656 326.722656 123.722656 326.722656 117.988281 C 326.722656 112.253906 335.324219 112.253906 335.324219 117.988281 "/>
<path style=" stroke:none;fill-rule:nonzero;fill:rgb(100%,84.3%,0%);fill-opacity:1;" d="M 334 390.710938 C 334 396.445312 325.398438 396.445312 325.398438 390.710938 C 325.398438 384.976562 334 384.976562 334 390.710938 "/>
<path style=" stroke:none;fill-rule:nonzero;fill:rgb(100%,84.3%,0%);fill-opacity:1;" d="M 342.019531 449.757812 C 342.019531 455.492188 333.417969 455.492188 333.417969 449.757812 C 333.417969 444.023438 342.019531 444.023438 342.019531 449.757812 "/>
<path style=" stroke:none;fill-rule:nonzero;fill:rgb(100%,84.3%,0%);fill-opacity:1;" d="M 327.25 163.417969 C 327.25 169.152344 318.648438 169.152344 318.648438 163.417969 C 318.648438 157.683594 327.25 157.683594 327.25 163.417969 "/>
<path style=" stroke:none;fill-rule:nonzero;fill:rgb(100%,84.3%,0%);fill-opacity:1;" d="M 334.550781 129.824219 C 334.550781 135.5625 325.949219 135.5625 325.949219 129.824219 C 325.949219 124.089844 334.550781 124.089844 334.550781 129.824219 "/>
<path style=" stroke:none;fill-rule:nonzero;fill:rgb(100%,84.3%,0%);fill-opacity:1;" d="M 178.582031 308.910156 C 178.582031 314.644531 169.980469 314.644531 169.980469 308.910156 C 169.980469 303.175781 178.582031 303.175781 178.582031 308.910156 "/>
<path style=" stroke:none;fill-rule:nonzero;fill:rgb(100%,84.3%,0%);fill-opacity:1;" d="M 333.824219 399.3125 C 333.824219 405.046875 325.222656 405.046875 325.222656 399.3125 C 325.222656 393.578125 333.824219 393.578125 333.824219 399.3125 "/>
<path style=" stroke:none;fill-rule:nonzero;fill:rgb(100%,84.3%,0%);fill-opacity:1;" d="M 204.5625 245.109375 C 204.5625 250.847656 195.960938 250.847656 195.960938 245.109375 C 195.960938 239.375 204.5625 239.375 204.5625 245.109375 "/>
<path style=" stroke:none;fill-rule:nonzero;fill:rgb(100%,84.3%,0%);fill-opacity:1;" d="M 201.980469 389.59375 C 201.980469 395.328125 193.375 395.328125 193.375 389.59375 C 193.375 383.859375 201.980469 383.859375 201.980469 389.59375 "/>
<path style=" stroke:none;fill-rule:nonzero;fill:rgb(100%,84.3%,0%);fill-opacity:1;" d="M 185.210938 343.664062 C 185.210938 349.398438 176.609375 349.398438 176.609375 343.664062 C 176.609375 337.929688 185.210938 337.929688 185.210938 343.664062 "/>
<path style=" stroke:none;fill-rule:nonzero;fill:rgb(100%,84.3%,0%);fill-opacity:1;" d="M 202.28125 362.800781 C 202.28125 368.535156 193.679688 368.535156 193.679688 362.800781 C 193.679688 357.0625 202.28125 357.0625 202.28125 362.800781 "/>
<path style=" stroke:none;fill-rule:nonzero;fill:rgb(100%,84.3%,0%);fill-opacity:1;" d="M 334.199219 98.894531 C 334.199219 104.628906 325.597656 104.628906 325.597656 98.894531 C 325.597656 93.160156 334.199219 93.160156 334.199219 98.894531 "/>
<path style=" stroke:none;fill-rule:nonzero;fill:rgb(100%,84.3%,0%);fill-opacity:1;" d="M 327.605469 460.625 C 327.605469 466.359375 319.003906 466.359375 319.003906 460.625 C 319.003906 454.890625 327.605469 454.890625 327.605469 460.625 "/>
<path style=" stroke:none;fill-rule:nonzero;fill:rgb(100%,84.3%,0%);fill-opacity:1;" d="M 201.867188 255.105469 C 201.867188 260.839844 193.265625 260.839844 193.265625 255.105469 C 193.265625 249.371094 201.867188 249.371094 201.867188 255.105469 "/>
<path style=" stroke:none;fill-rule:nonzero;fill:rgb(100%,84.3%,0%);fill-opacity:1;" d="M 193.636719 259.839844 C 193.636719 265.574219 185.035156 265.574219 185.035156 259.839844 C 185.035156 254.105469 193.636719 254.105469 193.636719 259.839844 "/>
<path style=" stroke:none;fill-rule:nonzero;fill:rgb(100%,84.3%,0%);fill-opacity:1;" d="M 334.453125 168.636719 C 334.453125 174.371094 325.851562 174.371094 325.851562 168.636719 C 325.851562 162.902344 334.453125 162.902344 334.453125 168.636719 "/>
<path style=" stroke:none;fill-rule:nonzero;fill:rgb(100%,84.3%,0%);fill-opacity:1;" d="M 342.019531 272.84375 C 342.019531 278.578125 333.417969 278.578125 333.417969 272.84375 C 333.417969 267.109375 342.019531 267.109375 342.019531 272.84375 "/>
<path style=" stroke:none;fill-rule:nonzero;fill:rgb(100%,84.3%,0%);fill-opacity:1;" d="M 205.601562 59.867188 C 205.601562 65.601562 197 65.601562 197 59.867188 C 197 54.132812 205.601562 54.132812 205.601562 59.867188 "/>
<path style=" stroke:none;fill-rule:nonzero;fill:rgb(100%,84.3%,0%);fill-opacity:1;" d="M 213.347656 55.453125 C 213.347656 61.1875 204.746094 61.1875 204.746094 55.453125 C 204.746094 49.71875 213.347656 49.71875 213.347656 55.453125 "/>
<path style=" stroke:none;fill-rule:nonzero;fill:rgb(100%,84.3%,0%);fill-opacity:1;" d="M 178.582031 278.789062 C 178.582031 284.527344 169.980469 284.527344 169.980469 278.789062 C 169.980469 273.054688 178.582031 273.054688 178.582031 278.789062 "/>
<path style=" stroke:none;fill-rule:nonzero;fill:rgb(100%,84.3%,0%);fill-opacity:1;" d="M 178.582031 259.957031 C 178.582031 265.691406 169.980469 265.691406 169.980469 259.957031 C 169.980469 254.222656 178.582031 254.222656 178.582031 259.957031 "/>
<path style=" stroke:none;fill-rule:nonzero;fill:rgb(100%,84.3%,0%);fill-opacity:1;" d="M 188.515625 419.050781 C 188.515625 424.785156 179.914062 424.785156 179.914062 419.050781 C 179.914062 413.3125 188.515625 413.3125 188.515625 419.050781 "/>
<path style=" stroke:none;fill-rule:nonzero;fill:rgb(100%,84.3%,0%);fill-opacity:1;" d="M 189.742188 296.832031 C 189.742188 302.566406 181.140625 302.566406 181.140625 296.832031 C 181.140625 291.097656 189.742188 291.097656 189.742188 296.832031 "/>
<path style=" stroke:none;fill-rule:nonzero;fill:rgb(100%,84.3%,0%);fill-opacity:1;" d="M 320.046875 441.878906 C 320.046875 447.613281 311.445312 447.613281 311.445312 441.878906 C 311.445312 436.140625 320.046875 436.140625 320.046875 441.878906 "/>
<path style=" stroke:none;fill-rule:nonzero;fill:rgb(100%,84.3%,0%);fill-opacity:1;" d="M 196.230469 51.269531 C 196.230469 57.003906 187.628906 57.003906 187.628906 51.269531 C 187.628906 45.535156 196.230469 45.535156 196.230469 51.269531 "/>
<path style=" stroke:none;fill-rule:nonzero;fill:rgb(100%,84.3%,0%);fill-opacity:1;" d="M 178.582031 338.183594 C 178.582031 343.917969 169.980469 343.917969 169.980469 338.183594 C 169.980469 332.449219 178.582031 332.449219 178.582031 338.183594 "/>
<path style=" stroke:none;fill-rule:nonzero;fill:rgb(100%,84.3%,0%);fill-opacity:1;" d="M 326.863281 113.027344 C 326.863281 118.765625 318.261719 118.765625 318.261719 113.027344 C 318.261719 107.292969 326.863281 107.292969 326.863281 113.027344 "/>
<path style=" stroke:none;fill-rule:nonzero;fill:rgb(100%,84.3%,0%);fill-opacity:1;" d="M 185.960938 322.136719 C 185.960938 327.871094 177.355469 327.871094 177.355469 322.136719 C 177.355469 316.402344 185.960938 316.402344 185.960938 322.136719 "/>
<path style=" stroke:none;fill-rule:nonzero;fill:rgb(100%,84.3%,0%);fill-opacity:1;" d="M 309.304688 455.054688 C 309.304688 460.789062 300.703125 460.789062 300.703125 455.054688 C 300.703125 449.320312 309.304688 449.320312 309.304688 455.054688 "/>
<path style=" stroke:none;fill-rule:nonzero;fill:rgb(100%,84.3%,0%);fill-opacity:1;" d="M 178.582031 51.269531 C 178.582031 57.003906 169.980469 57.003906 169.980469 51.269531 C 169.980469 45.535156 178.582031 45.535156 178.582031 51.269531 "/>
<path style=" stroke:none;fill-rule:nonzero;fill:rgb(100%,84.3%,0%);fill-opacity:1;" d="M 201.714844 335.210938 C 201.714844 340.945312 193.113281 340.945312 193.113281 335.210938 C 193.113281 329.476562 201.714844 329.476562 201.714844 335.210938 "/>
<path style=" stroke:none;fill-rule:nonzero;fill:rgb(100%,84.3%,0%);fill-opacity:1;" d="M 308.769531 71.917969 C 308.769531 77.652344 300.167969 77.652344 300.167969 71.917969 C 300.167969 66.183594 308.769531 66.183594 308.769531 71.917969 "/>
<path style=" stroke:none;fill-rule:nonzero;fill:rgb(100%,84.3%,0%);fill-opacity:1;" d="M 178.582031 251.21875 C 178.582031 256.953125 169.980469 256.953125 169.980469 251.21875 C 169.980469 245.484375 178.582031 245.484375 178.582031 251.21875 "/>
<path style=" stroke:none;fill-rule:nonzero;fill:rgb(100%,84.3%,0%);fill-opacity:1;" d="M 185.839844 391.4375 C 185.839844 397.171875 177.234375 397.171875 177.234375 391.4375 C 177.234375 385.703125 185.839844 385.703125 185.839844 391.4375 "/>
<path style=" stroke:none;fill-rule:nonzero;fill:rgb(100%,84.3%,0%);fill-opacity:1;" d="M 324.1875 51.269531 C 324.1875 57.003906 315.585938 57.003906 315.585938 51.269531 C 315.585938 45.535156 324.1875 45.535156 324.1875 51.269531 "/>
<path style=" stroke:none;fill-rule:nonzero;fill:rgb(100%,84.3%,0%);fill-opacity:1;" d="M 193.214844 360.929688 C 193.214844 366.664062 184.609375 366.664062 184.609375 360.929688 C 184.609375 355.195312 193.214844 355.195312 193.214844 360.929688 "/>
<path style=" stroke:none;fill-rule:nonzero;fill:rgb(100%,84.3%,0%);fill-opacity:1;" d="M 293.644531 51.269531 C 293.644531 57.003906 285.042969 57.003906 285.042969 51.269531 C 285.042969 45.535156 293.644531 45.535156 293.644531 51.269531 "/>
<path style=" stroke:none;fill-rule:nonzero;fill:rgb(100%,84.3%,0%);fill-opacity:1;" d="M 212.636719 64.820312 C 212.636719 70.554688 204.035156 70.554688 204.035156 64.820312 C 204.035156 59.085938 212.636719 59.085938 212.636719 64.820312 "/>
<path style=" stroke:none;fill-rule:nonzero;fill:rgb(100%,84.3%,0%);fill-opacity:1;" d="M 178.675781 59.871094 C 178.675781 65.605469 170.070312 65.605469 170.070312 59.871094 C 170.070312 54.136719 178.675781 54.136719 178.675781 59.871094 "/>
<path style=" stroke:none;fill-rule:nonzero;fill:rgb(100%,84.3%,0%);fill-opacity:1;" d="M 195.390625 402.3125 C 195.390625 408.046875 186.789062 408.046875 186.789062 402.3125 C 186.789062 396.578125 195.390625 396.578125 195.390625 402.3125 "/>
<path style=" stroke:none;fill-rule:nonzero;fill:rgb(100%,84.3%,0%);fill-opacity:1;" d="M 178.582031 459.148438 C 178.582031 464.882812 169.980469 464.882812 169.980469 459.148438 C 169.980469 453.414062 178.582031 453.414062 178.582031 459.148438 "/>
<path style=" stroke:none;fill-rule:nonzero;fill:rgb(100%,84.3%,0%);fill-opacity:1;" d="M 185.726562 246.355469 C 185.726562 252.089844 177.125 252.089844 177.125 246.355469 C 177.125 240.621094 185.726562 240.621094 185.726562 246.355469 "/>
<path style=" stroke:none;fill-rule:nonzero;fill:rgb(100%,84.3%,0%);fill-opacity:1;" d="M 342.019531 79.621094 C 342.019531 85.359375 333.417969 85.359375 333.417969 79.621094 C 333.417969 73.886719 342.019531 73.886719 342.019531 79.621094 "/>
<path style=" stroke:none;fill-rule:nonzero;fill:rgb(100%,84.3%,0%);fill-opacity:1;" d="M 307.082031 430.636719 C 307.082031 436.371094 298.480469 436.371094 298.480469 430.636719 C 298.480469 424.902344 307.082031 424.902344 307.082031 430.636719 "/>
<path style=" stroke:none;fill-rule:nonzero;fill:rgb(100%,84.3%,0%);fill-opacity:1;" d="M 208.261719 460.730469 C 208.261719 466.464844 199.65625 466.464844 199.65625 460.730469 C 199.65625 454.996094 208.261719 454.996094 208.261719 460.730469 "/>
<path style=" stroke:none;fill-rule:nonzero;fill:rgb(100%,84.3%,0%);fill-opacity:1;" d="M 324.574219 416.976562 C 324.574219 422.710938 315.972656 422.710938 315.972656 416.976562 C 315.972656 411.242188 324.574219 411.242188 324.574219 416.976562 "/>
<path style=" stroke:none;fill-rule:nonzero;fill:rgb(100%,84.3%,0%);fill-opacity:1;" d="M 178.582031 269.460938 C 178.582031 275.195312 169.980469 275.195312 169.980469 269.460938 C 169.980469 263.726562 178.582031 263.726562 178.582031 269.460938 "/>
<path style=" stroke:none;fill-rule:nonzero;fill:rgb(100%,84.3%,0%);fill-opacity:1;" d="M 332.726562 177.066406 C 332.726562 182.800781 324.125 182.800781 324.125 177.066406 C 324.125 171.332031 332.726562 171.332031 332.726562 177.066406 "/>
<path style=" stroke:none;fill-rule:nonzero;fill:rgb(100%,84.3%,0%);fill-opacity:1;" d="M 178.582031 76.804688 C 178.582031 82.539062 169.980469 82.539062 169.980469 76.804688 C 169.980469 71.070312 178.582031 71.070312 178.582031 76.804688 "/>
<path style=" stroke:none;fill-rule:nonzero;fill:rgb(100%,84.3%,0%);fill-opacity:1;" d="M 203.574219 408.167969 C 203.574219 413.902344 194.972656 413.902344 194.972656 408.167969 C 194.972656 402.433594 203.574219 402.433594 203.574219 408.167969 "/>
<path style=" stroke:none;fill-rule:nonzero;fill:rgb(100%,84.3%,0%);fill-opacity:1;" d="M 178.582031 386.816406 C 178.582031 392.554688 169.980469 392.554688 169.980469 386.816406 C 169.980469 381.082031 178.582031 381.082031 178.582031 386.816406 "/>
<path style=" stroke:none;fill-rule:nonzero;fill:rgb(100%,84.3%,0%);fill-opacity:1;" d="M 188.0625 60.953125 C 188.0625 66.6875 179.460938 66.6875 179.460938 60.953125 C 179.460938 55.21875 188.0625 55.21875 188.0625 60.953125 "/>
<path style=" stroke:none;fill-rule:nonzero;fill:rgb(100%,84.3%,0%);fill-opacity:1;" d="M 193.054688 347.191406 C 193.054688 352.929688 184.453125 352.929688 184.453125 347.191406 C 184.453125 341.457031 193.054688 341.457031 193.054688 347.191406 "/>
<path style=" stroke:none;fill-rule:nonzero;fill:rgb(100%,84.3%,0%);fill-opacity:1;" d="M 249.152344 453.417969 C 249.152344 459.152344 240.550781 459.152344 240.550781 453.417969 C 240.550781 447.683594 249.152344 447.683594 249.152344 453.417969 "/>
<path style=" stroke:none;fill-rule:nonzero;fill:rgb(100%,84.3%,0%);fill-opacity:1;" d="M 342.019531 441.15625 C 342.019531 446.890625 333.417969 446.890625 333.417969 441.15625 C 333.417969 435.421875 342.019531 435.421875 342.019531 441.15625 "/>
<path style=" stroke:none;fill-rule:nonzero;fill:rgb(100%,84.3%,0%);fill-opacity:1;" d="M 329.726562 59.304688 C 329.726562 65.039062 321.121094 65.039062 321.121094 59.304688 C 321.121094 53.570312 329.726562 53.570312 329.726562 59.304688 "/>
<path style=" stroke:none;fill-rule:nonzero;fill:rgb(100%,84.3%,0%);fill-opacity:1;" d="M 188.148438 460.730469 C 188.148438 466.464844 179.546875 466.464844 179.546875 460.730469 C 179.546875 454.996094 188.148438 454.996094 188.148438 460.730469 "/>
<path style=" stroke:none;fill-rule:nonzero;fill:rgb(100%,84.3%,0%);fill-opacity:1;" d="M 218.152344 460.730469 C 218.152344 466.464844 209.550781 466.464844 209.550781 460.730469 C 209.550781 454.996094 218.152344 454.996094 218.152344 460.730469 "/>
<path style=" stroke:none;fill-rule:nonzero;fill:rgb(100%,84.3%,0%);fill-opacity:1;" d="M 178.582031 398.65625 C 178.582031 404.390625 169.980469 404.390625 169.980469 398.65625 C 169.980469 392.921875 178.582031 392.921875 178.582031 398.65625 "/>
<path style=" stroke:none;fill-rule:nonzero;fill:rgb(100%,84.3%,0%);fill-opacity:1;" d="M 328.101562 135.519531 C 328.101562 141.253906 319.5 141.253906 319.5 135.519531 C 319.5 129.785156 328.101562 129.785156 328.101562 135.519531 "/>
<path style=" stroke:none;fill-rule:nonzero;fill:rgb(100%,84.3%,0%);fill-opacity:1;" d="M 186.027344 313.40625 C 186.027344 319.144531 177.425781 319.144531 177.425781 313.40625 C 177.425781 307.671875 186.027344 307.671875 186.027344 313.40625 "/>
<path style=" stroke:none;fill-rule:nonzero;fill:rgb(100%,84.3%,0%);fill-opacity:1;" d="M 304.921875 59.800781 C 304.921875 65.535156 296.320312 65.535156 296.320312 59.800781 C 296.320312 54.066406 304.921875 54.066406 304.921875 59.800781 "/>
<path style=" stroke:none;fill-rule:nonzero;fill:rgb(100%,84.3%,0%);fill-opacity:1;" d="M 342.019531 314.027344 C 342.019531 319.761719 333.417969 319.761719 333.417969 314.027344 C 333.417969 308.292969 342.019531 308.292969 342.019531 314.027344 "/>
<path style=" stroke:none;fill-rule:nonzero;fill:rgb(100%,84.3%,0%);fill-opacity:1;" d="M 262.460938 51.269531 C 262.460938 57.003906 253.859375 57.003906 253.859375 51.269531 C 253.859375 45.535156 262.460938 45.535156 262.460938 51.269531 "/>
<path style=" stroke:none;fill-rule:nonzero;fill:rgb(100%,84.3%,0%);fill-opacity:1;" d="M 342.019531 302.101562 C 342.019531 307.835938 333.417969 307.835938 333.417969 302.101562 C 333.417969 296.367188 342.019531 296.367188 342.019531 302.101562 "/>
<path style=" stroke:none;fill-rule:nonzero;fill:rgb(100%,84.3%,0%);fill-opacity:1;" d="M 231.105469 446.191406 C 231.105469 451.925781 222.503906 451.925781 222.503906 446.191406 C 222.503906 440.457031 231.105469 440.457031 231.105469 446.191406 "/>
<path style=" stroke:none;fill-rule:nonzero;fill:rgb(100%,84.3%,0%);fill-opacity:1;" d="M 194.003906 316.628906 C 194.003906 322.363281 185.402344 322.363281 185.402344 316.628906 C 185.402344 310.894531 194.003906 310.894531 194.003906 316.628906 "/>
<path style=" stroke:none;fill-rule:nonzero;fill:rgb(100%,84.3%,0%);fill-opacity:1;" d="M 178.582031 299.515625 C 178.582031 305.25 169.980469 305.25 169.980469 299.515625 C 169.980469 293.78125 178.582031 293.78125 178.582031 299.515625 "/>
<path style=" stroke:none;fill-rule:nonzero;fill:rgb(100%,84.3%,0%);fill-opacity:1;" d="M 178.582031 223.875 C 178.582031 229.609375 169.980469 229.609375 169.980469 223.875 C 169.980469 218.140625 178.582031 218.140625 178.582031 223.875 "/>
<path style=" stroke:none;fill-rule:nonzero;fill:rgb(100%,84.3%,0%);fill-opacity:1;" d="M 182.015625 424.683594 C 182.015625 430.417969 173.414062 430.417969 173.414062 424.683594 C 173.414062 418.949219 182.015625 418.949219 182.015625 424.683594 "/>
<path style=" stroke:none;fill-rule:nonzero;fill:rgb(100%,84.3%,0%);fill-opacity:1;" d="M 334.683594 413.761719 C 334.683594 419.496094 326.078125 419.496094 326.078125 413.761719 C 326.078125 408.027344 334.683594 408.027344 334.683594 413.761719 "/>
<path style=" stroke:none;fill-rule:nonzero;fill:rgb(100%,84.3%,0%);fill-opacity:1;" d="M 178.582031 214.929688 C 178.582031 220.664062 169.980469 220.664062 169.980469 214.929688 C 169.980469 209.191406 178.582031 209.191406 178.582031 214.929688 "/>
<path style=" stroke:none;fill-rule:nonzero;fill:rgb(100%,84.3%,0%);fill-opacity:1;" d="M 289.1875 460.730469 C 289.1875 466.464844 280.582031 466.464844 280.582031 460.730469 C 280.582031 454.996094 289.1875 454.996094 289.1875 460.730469 "/>
<path style=" stroke:none;fill-rule:nonzero;fill:rgb(100%,84.3%,0%);fill-opacity:1;" d="M 200.632812 452.878906 C 200.632812 458.613281 192.03125 458.613281 192.03125 452.878906 C 192.03125 447.140625 200.632812 447.140625 200.632812 452.878906 "/>
<path style=" stroke:none;fill-rule:nonzero;fill:rgb(100%,84.3%,0%);fill-opacity:1;" d="M 178.582031 326.691406 C 178.582031 332.425781 169.980469 332.425781 169.980469 326.691406 C 169.980469 320.957031 178.582031 320.957031 178.582031 326.691406 "/>
<path style=" stroke:none;fill-rule:nonzero;fill:rgb(100%,84.3%,0%);fill-opacity:1;" d="M 234.773438 460.730469 C 234.773438 466.464844 226.171875 466.464844 226.171875 460.730469 C 226.171875 454.996094 234.773438 454.996094 234.773438 460.730469 "/>
<path style=" stroke:none;fill-rule:nonzero;fill:rgb(100%,84.3%,0%);fill-opacity:1;" d="M 184.960938 381.046875 C 184.960938 386.78125 176.359375 386.78125 176.359375 381.046875 C 176.359375 375.3125 184.960938 375.3125 184.960938 381.046875 "/>
</g>
</svg>
