<?xml version="1.0" encoding="UTF-8"?>
<svg xmlns="http://www.w3.org/2000/svg" xmlns:xlink="http://www.w3.org/1999/xlink" width="512pt" height="512pt" viewBox="0 0 512 512" version="1.1">
<g id="surface266">
<rect x="0" y="0" width="512" height="512" style="fill:rgb(26.7%,26.7%,26.7%);fill-opacity:1;stroke:none;"/>
<path style=" stroke:none;fill-rule:nonzero;fill:rgb(19.2%,38.8%,66.7%);fill-opacity:1;" d="M 14.398438 42.667969 L 158.390625 42.667969 L 158.390625 469.332031 L 14.398438 469.332031 Z M 14.398438 42.667969 "/>
<path style=" stroke:none;fill-rule:nonzero;fill:rgb(100%,100%,100%);fill-opacity:1;" d="M 247.921875 383.785156 C 247.921875 385.558594 245.265625 385.558594 245.265625 383.785156 C 245.265625 382.015625 247.921875 382.015625 247.921875 383.785156 "/>
<path style=" stroke:none;fill-rule:nonzero;fill:rgb(100%,100%,100%);fill-opacity:1;" d="M 360.566406 423.371094 C 360.566406 425.144531 357.910156 425.144531 357.910156 423.371094 C 357.910156 421.601562 360.566406 421.601562 360.566406 423.371094 "/>
<path style=" stroke:none;fill-rule:nonzero;fill:rgb(100%,100%,100%);fill-opacity:1;" d="M 365.351562 68.4375 C 365.351562 70.207031 362.695312 70.207031 362.695312 68.4375 C 362.695312 66.664062 365.351562 66.664062 365.351562 68.4375 "/>
<path style=" stroke:none;fill-rule:nonzero;fill:rgb(100%,100%,100%);fill-opacity:1;" d="M 459.929688 417.792969 C 459.929688 419.5625 457.273438 419.5625 457.273438 417.792969 C 457.273438 416.023438 459.929688 416.023438 459.929688 417.792969 "/>
<path style=" stroke:none;fill-rule:nonzero;fill:rgb(100%,100%,100%);fill-opacity:1;" d="M 245.265625 99.785156 C 245.265625 101.558594 242.609375 101.558594 242.609375 99.785156 C 242.609375 98.015625 245.265625 98.015625 245.265625 99.785156 "/>
<path style=" stroke:none;fill-rule:nonzero;fill:rgb(100%,100%,100%);fill-opacity:1;" d="M 245.796875 235.542969 C 245.796875 237.3125 243.140625 237.3125 243.140625 235.542969 C 243.140625 233.773438 245.796875 233.773438 245.796875 235.542969 "/>
<path style=" stroke:none;fill-rule:nonzero;fill:rgb(100%,100%,100%);fill-opacity:1;" d="M 190.273438 315.242188 C 190.273438 317.015625 187.617188 317.015625 187.617188 315.242188 C 187.617188 313.472656 190.273438 313.472656 190.273438 315.242188 "/>
<path style=" stroke:none;fill-rule:nonzero;fill:rgb(100%,100%,100%);fill-opacity:1;" d="M 478.792969 429.746094 C 478.792969 431.519531 476.132812 431.519531 476.132812 429.746094 C 476.132812 427.976562 478.792969 427.976562 478.792969 429.746094 "/>
<path style=" stroke:none;fill-rule:nonzero;fill:rgb(100%,100%,100%);fill-opacity:1;" d="M 319.65625 445.421875 C 319.65625 447.195312 316.996094 447.195312 316.996094 445.421875 C 316.996094 443.652344 319.65625 443.652344 319.65625 445.421875 "/>
<path style=" stroke:none;fill-rule:nonzero;fill:rgb(100%,100%,100%);fill-opacity:1;" d="M 260.144531 272.738281 C 260.144531 274.507812 257.488281 274.507812 257.488281 272.738281 C 257.488281 270.964844 260.144531 270.964844 260.144531 272.738281 "/>
<path style=" stroke:none;fill-rule:nonzero;fill:rgb(100%,100%,100%);fill-opacity:1;" d="M 415.296875 390.960938 C 415.296875 392.730469 412.640625 392.730469 412.640625 390.960938 C 412.640625 389.191406 415.296875 389.191406 415.296875 390.960938 "/>
<path style=" stroke:none;fill-rule:nonzero;fill:rgb(100%,100%,100%);fill-opacity:1;" d="M 180.972656 212.695312 C 180.972656 214.46875 178.316406 214.46875 178.316406 212.695312 C 178.316406 210.925781 180.972656 210.925781 180.972656 212.695312 "/>
<path style=" stroke:none;fill-rule:nonzero;fill:rgb(100%,100%,100%);fill-opacity:1;" d="M 386.074219 250.15625 C 386.074219 251.925781 383.414062 251.925781 383.414062 250.15625 C 383.414062 248.382812 386.074219 248.382812 386.074219 250.15625 "/>
<path style=" stroke:none;fill-rule:nonzero;fill:rgb(100%,100%,100%);fill-opacity:1;" d="M 434.957031 98.191406 C 434.957031 99.964844 432.296875 99.964844 432.296875 98.191406 C 432.296875 96.421875 434.957031 96.421875 434.957031 98.191406 "/>
<path style=" stroke:none;fill-rule:nonzero;fill:rgb(100%,100%,100%);fill-opacity:1;" d="M 341.4375 375.550781 C 341.4375 377.324219 338.78125 377.324219 338.78125 375.550781 C 338.78125 373.78125 341.4375 373.78125 341.4375 375.550781 "/>
<path style=" stroke:none;fill-rule:nonzero;fill:rgb(100%,100%,100%);fill-opacity:1;" d="M 2.710938 223.589844 C 2.710938 225.359375 0.0507812 225.359375 0.0507812 223.589844 C 0.0507812 221.816406 2.710938 221.816406 2.710938 223.589844 "/>
<path style=" stroke:none;fill-rule:nonzero;fill:rgb(100%,100%,100%);fill-opacity:1;" d="M 254.832031 397.335938 C 254.832031 399.109375 252.175781 399.109375 252.175781 397.335938 C 252.175781 395.566406 254.832031 395.566406 254.832031 397.335938 "/>
<path style=" stroke:none;fill-rule:nonzero;fill:rgb(100%,100%,100%);fill-opacity:1;" d="M 242.078125 -1.167969 C 242.078125 0.601562 239.421875 0.601562 239.421875 -1.167969 C 239.421875 -2.941406 242.078125 -2.941406 242.078125 -1.167969 "/>
<path style=" stroke:none;fill-rule:nonzero;fill:rgb(100%,100%,100%);fill-opacity:1;" d="M 509.875 461.097656 C 509.875 462.867188 507.21875 462.867188 507.21875 461.097656 C 507.21875 459.328125 509.875 459.328125 509.875 461.097656 "/>
<path style=" stroke:none;fill-rule:nonzero;fill:rgb(100%,84.3%,0%);fill-opacity:1;" d="M 18.382812 313.792969 C 18.382812 315.5625 15.726562 315.5625 15.726562 313.792969 C 15.726562 312.019531 18.382812 312.019531 18.382812 313.792969 "/>
<path style=" stroke:none;fill-rule:nonzero;fill:rgb(100%,84.3%,0%);fill-opacity:1;" d="M 20.589844 228.058594 C 20.589844 229.828125 17.933594 229.828125 17.933594 228.058594 C 17.933594 226.285156 20.589844 226.285156 20.589844 228.058594 "/>
<path style=" stroke:none;fill-rule:nonzero;fill:rgb(100%,84.3%,0%);fill-opacity:1;" d="M 22.847656 220.375 C 22.847656 222.144531 20.191406 222.144531 20.191406 220.375 C 20.191406 218.605469 22.847656 218.605469 22.847656 220.375 "/>
<path style=" stroke:none;fill-rule:nonzero;fill:rgb(100%,84.3%,0%);fill-opacity:1;" d="M 21.277344 215.671875 C 21.277344 217.441406 18.621094 217.441406 18.621094 215.671875 C 18.621094 213.902344 21.277344 213.902344 21.277344 215.671875 "/>
<path style=" stroke:none;fill-rule:nonzero;fill:rgb(100%,84.3%,0%);fill-opacity:1;" d="M 18.382812 226.320312 C 18.382812 228.089844 15.726562 228.089844 15.726562 226.320312 C 15.726562 224.550781 18.382812 224.550781 18.382812 226.320312 "/>
<path style=" stroke:none;fill-rule:nonzero;fill:rgb(100%,84.3%,0%);fill-opacity:1;" d="M 20.632812 221.839844 C 20.632812 223.609375 17.976562 223.609375 17.976562 221.839844 C 17.976562 220.066406 20.632812 220.066406 20.632812 221.839844 "/>
<path style=" stroke:none;fill-rule:nonzero;fill:rgb(100%,84.3%,0%);fill-opacity:1;" d="M 18.382812 325.921875 C 18.382812 327.695312 15.726562 327.695312 15.726562 325.921875 C 15.726562 324.152344 18.382812 324.152344 18.382812 325.921875 "/>
<path style=" stroke:none;fill-rule:nonzero;fill:rgb(100%,84.3%,0%);fill-opacity:1;" d="M 18.382812 317.085938 C 18.382812 318.855469 15.726562 318.855469 15.726562 317.085938 C 15.726562 315.3125 18.382812 315.3125 18.382812 317.085938 "/>
<path style=" stroke:none;fill-rule:nonzero;fill:rgb(100%,84.3%,0%);fill-opacity:1;" d="M 18.382812 220.421875 C 18.382812 222.191406 15.726562 222.191406 15.726562 220.421875 C 15.726562 218.652344 18.382812 218.652344 18.382812 220.421875 "/>
<path style=" stroke:none;fill-rule:nonzero;fill:rgb(100%,84.3%,0%);fill-opacity:1;" d="M 18.382812 229.539062 C 18.382812 231.308594 15.726562 231.308594 15.726562 229.539062 C 15.726562 227.765625 18.382812 227.765625 18.382812 229.539062 "/>
<path style=" stroke:none;fill-rule:nonzero;fill:rgb(100%,84.3%,0%);fill-opacity:1;" d="M 18.382812 217.765625 C 18.382812 219.535156 15.726562 219.535156 15.726562 217.765625 C 15.726562 215.992188 18.382812 215.992188 18.382812 217.765625 "/>
<path style=" stroke:none;fill-rule:nonzero;fill:rgb(100%,84.3%,0%);fill-opacity:1;" d="M 18.9375 212.484375 C 18.9375 214.253906 16.28125 214.253906 16.28125 212.484375 C 16.28125 210.710938 18.9375 210.710938 18.9375 212.484375 "/>
<path style=" stroke:none;fill-rule:nonzero;fill:rgb(100%,84.3%,0%);fill-opacity:1;" d="M 20.984375 218.3125 C 20.984375 220.085938 18.328125 220.085938 18.328125 218.3125 C 18.328125 216.542969 20.984375 216.542969 20.984375 218.3125 "/>
<path style=" stroke:none;fill-rule:nonzero;fill:rgb(100%,84.3%,0%);fill-opacity:1;" d="M 18.382812 223.601562 C 18.382812 225.375 15.726562 225.375 15.726562 223.601562 C 15.726562 221.832031 18.382812 221.832031 18.382812 223.601562 "/>
<path style=" stroke:none;fill-rule:nonzero;fill:rgb(100%,84.3%,0%);fill-opacity:1;" d="M 22.910156 223.207031 C 22.910156 224.976562 20.253906 224.976562 20.253906 223.207031 C 20.253906 221.4375 22.910156 221.4375 22.910156 223.207031 "/>
<path style=" stroke:none;fill-rule:nonzero;fill:rgb(100%,84.3%,0%);fill-opacity:1;" d="M 18.382812 323.066406 C 18.382812 324.839844 15.726562 324.839844 15.726562 323.066406 C 15.726562 321.296875 18.382812 321.296875 18.382812 323.066406 "/>
<path style=" stroke:none;fill-rule:nonzero;fill:rgb(100%,84.3%,0%);fill-opacity:1;" d="M 18.382812 215.082031 C 18.382812 216.851562 15.726562 216.851562 15.726562 215.082031 C 15.726562 213.308594 18.382812 213.308594 18.382812 215.082031 "/>
<path style=" stroke:none;fill-rule:nonzero;fill:rgb(100%,84.3%,0%);fill-opacity:1;" d="M 157.0625 210.332031 C 157.0625 212.101562 154.40625 212.101562 154.40625 210.332031 C 154.40625 208.5625 157.0625 208.5625 157.0625 210.332031 "/>
<path style=" stroke:none;fill-rule:nonzero;fill:rgb(100%,84.3%,0%);fill-opacity:1;" d="M 18.382812 320.328125 C 18.382812 322.101562 15.726562 322.101562 15.726562 320.328125 C 15.726562 318.558594 18.382812 318.558594 18.382812 320.328125 "/>
<path style=" stroke:none;fill-rule:nonzero;fill:rgb(100%,84.3%,0%);fill-opacity:1;" d="M 18.429688 234.917969 C 18.429688 236.6875 15.773438 236.6875 15.773438 234.917969 C 15.773438 233.144531 18.429688 233.144531 18.429688 234.917969 "/>
<path style=" stroke:none;fill-rule:nonzero;fill:rgb(100%,84.3%,0%);fill-opacity:1;" d="M 157.0625 213.0625 C 157.0625 214.832031 154.40625 214.832031 154.40625 213.0625 C 154.40625 211.289062 157.0625 211.289062 157.0625 213.0625 "/>
<path style=" stroke:none;fill-rule:nonzero;fill:rgb(100%,84.3%,0%);fill-opacity:1;" d="M 20.867188 230.699219 C 20.867188 232.46875 18.210938 232.46875 18.210938 230.699219 C 18.210938 228.929688 20.867188 228.929688 20.867188 230.699219 "/>
<path style=" stroke:none;fill-rule:nonzero;fill:rgb(100%,84.3%,0%);fill-opacity:1;" d="M 18.382812 329.167969 C 18.382812 330.941406 15.726562 330.941406 15.726562 329.167969 C 15.726562 327.398438 18.382812 327.398438 18.382812 329.167969 "/>
<path style=" stroke:none;fill-rule:nonzero;fill:rgb(100%,84.3%,0%);fill-opacity:1;" d="M 20.765625 225.144531 C 20.765625 226.914062 18.109375 226.914062 18.109375 225.144531 C 18.109375 223.371094 20.765625 223.371094 20.765625 225.144531 "/>
<path style=" stroke:none;fill-rule:nonzero;fill:rgb(100%,84.3%,0%);fill-opacity:1;" d="M 18.382812 232.261719 C 18.382812 234.03125 15.726562 234.03125 15.726562 232.261719 C 15.726562 230.488281 18.382812 230.488281 18.382812 232.261719 "/>
<path style=" stroke:none;fill-rule:nonzero;fill:rgb(100%,84.3%,0%);fill-opacity:1;" d="M 22.984375 226.605469 C 22.984375 228.378906 20.328125 228.378906 20.328125 226.605469 C 20.328125 224.835938 22.984375 224.835938 22.984375 226.605469 "/>
</g>
</svg>
