<?xml version="1.0" encoding="UTF-8"?>
<svg xmlns="http://www.w3.org/2000/svg" xmlns:xlink="http://www.w3.org/1999/xlink" width="512pt" height="512pt" viewBox="0 0 512 512" version="1.1">
<g id="surface281">
<path style=" stroke:none;fill-rule:nonzero;fill:rgb(26.7%,26.7%,26.7%);fill-opacity:1;" d="M 0 182.015625 L 512 182.015625 L 512 329.984375 L 0 329.984375 Z M 0 182.015625 "/>
<path style=" stroke:none;fill-rule:nonzero;fill:rgb(19.2%,38.8%,66.7%);fill-opacity:1;" d="M 42.667969 194.347656 L 469.332031 194.347656 L 469.332031 317.652344 L 42.667969 317.652344 Z M 42.667969 194.347656 "/>
<path style=" stroke:none;fill-rule:nonzero;fill:rgb(90.6%,14.9%,14.9%);fill-opacity:1;" d="M 567.894531 511.785156 C 567.894531 527.8125 554.902344 540.800781 538.878906 540.800781 C 522.855469 540.800781 509.867188 527.8125 509.867188 511.785156 C 509.867188 495.761719 522.855469 482.773438 538.878906 482.773438 C 554.902344 482.773438 567.894531 495.761719 567.894531 511.785156 "/>
<path style=" stroke:none;fill-rule:nonzero;fill:rgb(90.6%,14.9%,14.9%);fill-opacity:1;" d="M 369.917969 518.613281 C 369.917969 531.574219 359.414062 542.078125 346.453125 542.078125 C 333.492188 542.078125 322.988281 531.574219 322.988281 518.613281 C 322.988281 505.652344 333.492188 495.144531 346.453125 495.144531 C 359.414062 495.144531 369.917969 505.652344 369.917969 518.613281 "/>
<path style=" stroke:none;fill-rule:nonzero;fill:rgb(90.6%,14.9%,14.9%);fill-opacity:1;" d="M 543.144531 444.800781 C 543.144531 460.824219 530.15625 473.8125 514.132812 473.8125 C 498.109375 473.8125 485.121094 460.824219 485.121094 444.800781 C 485.121094 428.777344 498.109375 415.785156 514.132812 415.785156 C 530.15625 415.785156 543.144531 428.777344 543.144531 444.800781 "/>
<path style=" stroke:none;fill-rule:nonzero;fill:rgb(90.6%,14.9%,14.9%);fill-opacity:1;" d="M 354.132812 149.121094 C 354.132812 165.851562 340.570312 179.414062 323.839844 179.414062 C 307.109375 179.414062 293.546875 165.851562 293.546875 149.121094 C 293.546875 132.390625 307.109375 118.828125 323.839844 118.828125 C 340.570312 118.828125 354.132812 132.390625 354.132812 149.121094 "/>
<path style=" stroke:none;fill-rule:nonzero;fill:rgb(90.6%,14.9%,14.9%);fill-opacity:1;" d="M 289.28125 82.988281 C 289.28125 93.121094 281.066406 101.332031 270.933594 101.332031 C 260.800781 101.332031 252.585938 93.121094 252.585938 82.988281 C 252.585938 72.855469 260.800781 64.640625 270.933594 64.640625 C 281.066406 64.640625 289.28125 72.855469 289.28125 82.988281 "/>
<path style=" stroke:none;fill-rule:nonzero;fill:rgb(90.6%,14.9%,14.9%);fill-opacity:1;" d="M 178.347656 71.039062 C 178.347656 85.886719 166.3125 97.921875 151.46875 97.921875 C 136.621094 97.921875 124.585938 85.886719 124.585938 71.039062 C 124.585938 56.195312 136.621094 44.160156 151.46875 44.160156 C 166.3125 44.160156 178.347656 56.195312 178.347656 71.039062 "/>
<path style=" stroke:none;fill-rule:nonzero;fill:rgb(90.6%,14.9%,14.9%);fill-opacity:1;" d="M 147.199219 174.71875 C 147.199219 178.960938 143.761719 182.398438 139.519531 182.398438 C 135.277344 182.398438 131.839844 178.960938 131.839844 174.71875 C 131.839844 170.476562 135.277344 167.039062 139.519531 167.039062 C 143.761719 167.039062 147.199219 170.476562 147.199219 174.71875 "/>
<path style=" stroke:none;fill-rule:nonzero;fill:rgb(90.6%,14.9%,14.9%);fill-opacity:1;" d="M 214.1875 91.519531 C 214.1875 109.664062 199.476562 124.375 181.332031 124.375 C 163.1875 124.375 148.480469 109.664062 148.480469 91.519531 C 148.480469 73.375 163.1875 58.667969 181.332031 58.667969 C 199.476562 58.667969 214.1875 73.375 214.1875 91.519531 "/>
<path style=" stroke:none;fill-rule:nonzero;fill:rgb(90.6%,14.9%,14.9%);fill-opacity:1;" d="M 466.773438 149.546875 C 466.773438 160.152344 458.175781 168.746094 447.574219 168.746094 C 436.96875 168.746094 428.371094 160.152344 428.371094 149.546875 C 428.371094 138.941406 436.96875 130.347656 447.574219 130.347656 C 458.175781 130.347656 466.773438 138.941406 466.773438 149.546875 "/>
<path style=" stroke:none;fill-rule:nonzero;fill:rgb(90.6%,14.9%,14.9%);fill-opacity:1;" d="M 389.546875 478.078125 C 389.546875 483.972656 384.769531 488.746094 378.878906 488.746094 C 372.988281 488.746094 368.214844 483.972656 368.214844 478.078125 C 368.214844 472.1875 372.988281 467.414062 378.878906 467.414062 C 384.769531 467.414062 389.546875 472.1875 389.546875 478.078125 "/>
<path style=" stroke:none;fill-rule:nonzero;fill:rgb(90.6%,14.9%,14.9%);fill-opacity:1;" d="M 413.011719 361.601562 C 413.011719 368.433594 407.472656 373.972656 400.640625 373.972656 C 393.804688 373.972656 388.265625 368.433594 388.265625 361.601562 C 388.265625 354.765625 393.804688 349.226562 400.640625 349.226562 C 407.472656 349.226562 413.011719 354.765625 413.011719 361.601562 "/>
<path style=" stroke:none;fill-rule:nonzero;fill:rgb(90.6%,14.9%,14.9%);fill-opacity:1;" d="M 138.242188 472.53125 C 138.242188 489.96875 124.105469 504.105469 106.667969 504.105469 C 89.230469 504.105469 75.09375 489.96875 75.09375 472.53125 C 75.09375 455.09375 89.230469 440.960938 106.667969 440.960938 C 124.105469 440.960938 138.242188 455.09375 138.242188 472.53125 "/>
<path style=" stroke:none;fill-rule:nonzero;fill:rgb(90.6%,14.9%,14.9%);fill-opacity:1;" d="M 372.480469 423.46875 C 372.480469 426.878906 367.359375 426.878906 367.359375 423.46875 C 367.359375 420.054688 372.480469 420.054688 372.480469 423.46875 "/>
<path style=" stroke:none;fill-rule:nonzero;fill:rgb(90.6%,14.9%,14.9%);fill-opacity:1;" d="M 483.414062 435.414062 C 483.414062 448.609375 472.714844 459.304688 459.519531 459.304688 C 446.324219 459.304688 435.625 448.609375 435.625 435.414062 C 435.625 422.21875 446.324219 411.519531 459.519531 411.519531 C 472.714844 411.519531 483.414062 422.21875 483.414062 435.414062 "/>
<path style=" stroke:none;fill-rule:nonzero;fill:rgb(90.6%,14.9%,14.9%);fill-opacity:1;" d="M 20.90625 260.054688 C 20.90625 267.59375 14.792969 273.707031 7.253906 273.707031 C -0.289062 273.707031 -6.398438 267.59375 -6.398438 260.054688 C -6.398438 252.511719 -0.289062 246.398438 7.253906 246.398438 C 14.792969 246.398438 20.90625 252.511719 20.90625 260.054688 "/>
<path style=" stroke:none;fill-rule:nonzero;fill:rgb(90.6%,14.9%,14.9%);fill-opacity:1;" d="M 35.414062 -10.027344 C 35.414062 8.117188 20.703125 22.828125 2.558594 22.828125 C -15.585938 22.828125 -30.292969 8.117188 -30.292969 -10.027344 C -30.292969 -28.171875 -15.585938 -42.878906 2.558594 -42.878906 C 20.703125 -42.878906 35.414062 -28.171875 35.414062 -10.027344 "/>
<path style=" stroke:none;fill-rule:nonzero;fill:rgb(90.6%,14.9%,14.9%);fill-opacity:1;" d="M 214.1875 185.386719 C 214.1875 190.101562 210.367188 193.921875 205.652344 193.921875 C 200.941406 193.921875 197.121094 190.101562 197.121094 185.386719 C 197.121094 180.675781 200.941406 176.855469 205.652344 176.855469 C 210.367188 176.855469 214.1875 180.675781 214.1875 185.386719 "/>
<path style=" stroke:none;fill-rule:nonzero;fill:rgb(90.6%,14.9%,14.9%);fill-opacity:1;" d="M 248.320312 -3.199219 C 248.320312 12.824219 235.332031 25.8125 219.308594 25.8125 C 203.285156 25.8125 190.292969 12.824219 190.292969 -3.199219 C 190.292969 -19.222656 203.285156 -32.214844 219.308594 -32.214844 C 235.332031 -32.214844 248.320312 -19.222656 248.320312 -3.199219 "/>
<path style=" stroke:none;fill-rule:nonzero;fill:rgb(90.6%,14.9%,14.9%);fill-opacity:1;" d="M 307.625 129.066406 C 307.625 144.382812 295.210938 156.800781 279.894531 156.800781 C 264.578125 156.800781 252.160156 144.382812 252.160156 129.066406 C 252.160156 113.75 264.578125 101.332031 279.894531 101.332031 C 295.210938 101.332031 307.625 113.75 307.625 129.066406 "/>
<path style=" stroke:none;fill-rule:nonzero;fill:rgb(90.6%,14.9%,14.9%);fill-opacity:1;" d="M 216.320312 484.054688 C 216.320312 500.078125 203.332031 513.066406 187.308594 513.066406 C 171.285156 513.066406 158.292969 500.078125 158.292969 484.054688 C 158.292969 468.03125 171.285156 455.039062 187.308594 455.039062 C 203.332031 455.039062 216.320312 468.03125 216.320312 484.054688 "/>
<path style=" stroke:none;fill-rule:nonzero;fill:rgb(90.6%,14.9%,14.9%);fill-opacity:1;" d="M 494.507812 417.492188 C 494.507812 425.742188 487.820312 432.425781 479.574219 432.425781 C 471.324219 432.425781 464.640625 425.742188 464.640625 417.492188 C 464.640625 409.246094 471.324219 402.558594 479.574219 402.558594 C 487.820312 402.558594 494.507812 409.246094 494.507812 417.492188 "/>
<path style=" stroke:none;fill-rule:nonzero;fill:rgb(90.6%,14.9%,14.9%);fill-opacity:1;" d="M 290.558594 445.226562 C 290.558594 449.777344 283.734375 449.777344 283.734375 445.226562 C 283.734375 440.675781 290.558594 440.675781 290.558594 445.226562 "/>
<path style=" stroke:none;fill-rule:nonzero;fill:rgb(100%,100%,100%);fill-opacity:1;" d="M 366.082031 94.507812 C 366.082031 97.351562 361.8125 97.351562 361.8125 94.507812 C 361.8125 91.664062 366.082031 91.664062 366.082031 94.507812 "/>
<path style=" stroke:none;fill-rule:nonzero;fill:rgb(100%,100%,100%);fill-opacity:1;" d="M 270.082031 381.226562 C 270.082031 384.070312 265.8125 384.070312 265.8125 381.226562 C 265.8125 378.382812 270.082031 378.382812 270.082031 381.226562 "/>
<path style=" stroke:none;fill-rule:nonzero;fill:rgb(100%,100%,100%);fill-opacity:1;" d="M 32.425781 430.292969 C 32.425781 433.136719 28.160156 433.136719 28.160156 430.292969 C 28.160156 427.449219 32.425781 427.449219 32.425781 430.292969 "/>
<path style=" stroke:none;fill-rule:nonzero;fill:rgb(100%,100%,100%);fill-opacity:1;" d="M 389.121094 70.613281 C 389.121094 73.457031 384.855469 73.457031 384.855469 70.613281 C 384.855469 67.769531 389.121094 67.769531 389.121094 70.613281 "/>
<path style=" stroke:none;fill-rule:nonzero;fill:rgb(100%,100%,100%);fill-opacity:1;" d="M 157.867188 364.585938 C 157.867188 367.429688 153.601562 367.429688 153.601562 364.585938 C 153.601562 361.742188 157.867188 361.742188 157.867188 364.585938 "/>
<path style=" stroke:none;fill-rule:nonzero;fill:rgb(100%,100%,100%);fill-opacity:1;" d="M 343.894531 18.558594 C 343.894531 21.40625 339.625 21.40625 339.625 18.558594 C 339.625 15.714844 343.894531 15.714844 343.894531 18.558594 "/>
<path style=" stroke:none;fill-rule:nonzero;fill:rgb(100%,100%,100%);fill-opacity:1;" d="M 190.292969 171.308594 C 190.292969 174.152344 186.027344 174.152344 186.027344 171.308594 C 186.027344 168.460938 190.292969 168.460938 190.292969 171.308594 "/>
<path style=" stroke:none;fill-rule:nonzero;fill:rgb(100%,100%,100%);fill-opacity:1;" d="M 218.027344 86.828125 C 218.027344 89.671875 213.757812 89.671875 213.757812 86.828125 C 213.757812 83.984375 218.027344 83.984375 218.027344 86.828125 "/>
<path style=" stroke:none;fill-rule:nonzero;fill:rgb(100%,100%,100%);fill-opacity:1;" d="M 34.988281 31.359375 C 34.988281 34.203125 30.71875 34.203125 30.71875 31.359375 C 30.71875 28.515625 34.988281 28.515625 34.988281 31.359375 "/>
<path style=" stroke:none;fill-rule:nonzero;fill:rgb(100%,100%,100%);fill-opacity:1;" d="M 191.144531 352.640625 C 191.144531 355.484375 186.878906 355.484375 186.878906 352.640625 C 186.878906 349.796875 191.144531 349.796875 191.144531 352.640625 "/>
<path style=" stroke:none;fill-rule:nonzero;fill:rgb(100%,100%,100%);fill-opacity:1;" d="M 183.039062 193.492188 C 183.039062 196.335938 178.773438 196.335938 178.773438 193.492188 C 178.773438 190.648438 183.039062 190.648438 183.039062 193.492188 "/>
<path style=" stroke:none;fill-rule:nonzero;fill:rgb(100%,100%,100%);fill-opacity:1;" d="M 241.492188 98.347656 C 241.492188 101.191406 237.226562 101.191406 237.226562 98.347656 C 237.226562 95.503906 241.492188 95.503906 241.492188 98.347656 "/>
<path style=" stroke:none;fill-rule:nonzero;fill:rgb(100%,100%,100%);fill-opacity:1;" d="M 176.214844 56.105469 C 176.214844 58.953125 171.945312 58.953125 171.945312 56.105469 C 171.945312 53.261719 176.214844 53.261719 176.214844 56.105469 "/>
<path style=" stroke:none;fill-rule:nonzero;fill:rgb(100%,100%,100%);fill-opacity:1;" d="M 393.8125 431.574219 C 393.8125 434.417969 389.546875 434.417969 389.546875 431.574219 C 389.546875 428.730469 393.8125 428.730469 393.8125 431.574219 "/>
<path style=" stroke:none;fill-rule:nonzero;fill:rgb(100%,100%,100%);fill-opacity:1;" d="M 79.359375 154.667969 C 79.359375 157.511719 75.09375 157.511719 75.09375 154.667969 C 75.09375 151.824219 79.359375 151.824219 79.359375 154.667969 "/>
<path style=" stroke:none;fill-rule:nonzero;fill:rgb(100%,100%,100%);fill-opacity:1;" d="M 5.972656 43.734375 C 5.972656 46.578125 1.707031 46.578125 1.707031 43.734375 C 1.707031 40.886719 5.972656 40.886719 5.972656 43.734375 "/>
<path style=" stroke:none;fill-rule:nonzero;fill:rgb(100%,100%,100%);fill-opacity:1;" d="M 458.667969 382.933594 C 458.667969 385.777344 454.398438 385.777344 454.398438 382.933594 C 454.398438 380.089844 458.667969 380.089844 458.667969 382.933594 "/>
<path style=" stroke:none;fill-rule:nonzero;fill:rgb(100%,100%,100%);fill-opacity:1;" d="M 470.613281 367.574219 C 470.613281 370.417969 466.347656 370.417969 466.347656 367.574219 C 466.347656 364.730469 470.613281 364.730469 470.613281 367.574219 "/>
<path style=" stroke:none;fill-rule:nonzero;fill:rgb(100%,100%,100%);fill-opacity:1;" d="M 421.121094 110.292969 C 421.121094 113.136719 416.855469 113.136719 416.855469 110.292969 C 416.855469 107.449219 421.121094 107.449219 421.121094 110.292969 "/>
<path style=" stroke:none;fill-rule:nonzero;fill:rgb(100%,100%,100%);fill-opacity:1;" d="M 488.105469 37.761719 C 488.105469 40.605469 483.839844 40.605469 483.839844 37.761719 C 483.839844 34.914062 488.105469 34.914062 488.105469 37.761719 "/>
<path style=" stroke:none;fill-rule:nonzero;fill:rgb(100%,100%,100%);fill-opacity:1;" d="M 277.332031 432 C 277.332031 434.84375 273.066406 434.84375 273.066406 432 C 273.066406 429.15625 277.332031 429.15625 277.332031 432 "/>
<path style=" stroke:none;fill-rule:nonzero;fill:rgb(100%,100%,100%);fill-opacity:1;" d="M 226.132812 321.492188 C 226.132812 324.335938 221.867188 324.335938 221.867188 321.492188 C 221.867188 318.648438 226.132812 318.648438 226.132812 321.492188 "/>
<path style=" stroke:none;fill-rule:nonzero;fill:rgb(100%,100%,100%);fill-opacity:1;" d="M 26.453125 241.28125 C 26.453125 244.125 22.1875 244.125 22.1875 241.28125 C 22.1875 238.4375 26.453125 238.4375 26.453125 241.28125 "/>
<path style=" stroke:none;fill-rule:nonzero;fill:rgb(100%,100%,100%);fill-opacity:1;" d="M 46.933594 502.828125 C 46.933594 505.671875 42.667969 505.671875 42.667969 502.828125 C 42.667969 499.984375 46.933594 499.984375 46.933594 502.828125 "/>
<path style=" stroke:none;fill-rule:nonzero;fill:rgb(100%,100%,100%);fill-opacity:1;" d="M 197.546875 340.691406 C 197.546875 343.539062 193.28125 343.539062 193.28125 340.691406 C 193.28125 337.847656 197.546875 337.847656 197.546875 340.691406 "/>
<path style=" stroke:none;fill-rule:nonzero;fill:rgb(100%,100%,100%);fill-opacity:1;" d="M 479.574219 251.09375 C 479.574219 253.9375 475.308594 253.9375 475.308594 251.09375 C 475.308594 248.25 479.574219 248.25 479.574219 251.09375 "/>
<path style=" stroke:none;fill-rule:nonzero;fill:rgb(100%,100%,100%);fill-opacity:1;" d="M 73.386719 370.558594 C 73.386719 373.40625 69.121094 373.40625 69.121094 370.558594 C 69.121094 367.714844 73.386719 367.714844 73.386719 370.558594 "/>
<path style=" stroke:none;fill-rule:nonzero;fill:rgb(100%,100%,100%);fill-opacity:1;" d="M 64.425781 388.480469 C 64.425781 391.324219 60.160156 391.324219 60.160156 388.480469 C 60.160156 385.636719 64.425781 385.636719 64.425781 388.480469 "/>
<path style=" stroke:none;fill-rule:nonzero;fill:rgb(100%,100%,100%);fill-opacity:1;" d="M 335.785156 356.90625 C 335.785156 359.75 331.519531 359.75 331.519531 356.90625 C 331.519531 354.0625 335.785156 354.0625 335.785156 356.90625 "/>
<path style=" stroke:none;fill-rule:nonzero;fill:rgb(100%,100%,100%);fill-opacity:1;" d="M 103.679688 371.839844 C 103.679688 374.683594 99.414062 374.683594 99.414062 371.839844 C 99.414062 368.996094 103.679688 368.996094 103.679688 371.839844 "/>
<path style=" stroke:none;fill-rule:nonzero;fill:rgb(100%,100%,100%);fill-opacity:1;" d="M 388.265625 319.785156 C 388.265625 322.632812 384 322.632812 384 319.785156 C 384 316.941406 388.265625 316.941406 388.265625 319.785156 "/>
<path style=" stroke:none;fill-rule:nonzero;fill:rgb(100%,100%,100%);fill-opacity:1;" d="M 146.773438 484.90625 C 146.773438 487.75 142.507812 487.75 142.507812 484.90625 C 142.507812 482.0625 146.773438 482.0625 146.773438 484.90625 "/>
<path style=" stroke:none;fill-rule:nonzero;fill:rgb(100%,100%,100%);fill-opacity:1;" d="M 145.066406 7.46875 C 145.066406 10.3125 140.800781 10.3125 140.800781 7.46875 C 140.800781 4.621094 145.066406 4.621094 145.066406 7.46875 "/>
<path style=" stroke:none;fill-rule:nonzero;fill:rgb(100%,100%,100%);fill-opacity:1;" d="M 95.144531 396.585938 C 95.144531 399.429688 90.878906 399.429688 90.878906 396.585938 C 90.878906 393.742188 95.144531 393.742188 95.144531 396.585938 "/>
<path style=" stroke:none;fill-rule:nonzero;fill:rgb(100%,100%,100%);fill-opacity:1;" d="M 514.558594 136.320312 C 514.558594 139.164062 510.292969 139.164062 510.292969 136.320312 C 510.292969 133.476562 514.558594 133.476562 514.558594 136.320312 "/>
<path style=" stroke:none;fill-rule:nonzero;fill:rgb(100%,100%,100%);fill-opacity:1;" d="M 11.945312 407.679688 C 11.945312 410.523438 7.679688 410.523438 7.679688 407.679688 C 7.679688 404.835938 11.945312 404.835938 11.945312 407.679688 "/>
<path style=" stroke:none;fill-rule:nonzero;fill:rgb(100%,100%,100%);fill-opacity:1;" d="M 23.894531 212.691406 C 23.894531 215.539062 19.625 215.539062 19.625 212.691406 C 19.625 209.847656 23.894531 209.847656 23.894531 212.691406 "/>
<path style=" stroke:none;fill-rule:nonzero;fill:rgb(100%,100%,100%);fill-opacity:1;" d="M 316.160156 378.238281 C 316.160156 381.085938 311.894531 381.085938 311.894531 378.238281 C 311.894531 375.394531 316.160156 375.394531 316.160156 378.238281 "/>
<path style=" stroke:none;fill-rule:nonzero;fill:rgb(100%,100%,100%);fill-opacity:1;" d="M 253.011719 330.027344 C 253.011719 332.871094 248.746094 332.871094 248.746094 330.027344 C 248.746094 327.183594 253.011719 327.183594 253.011719 330.027344 "/>
<path style=" stroke:none;fill-rule:nonzero;fill:rgb(100%,100%,100%);fill-opacity:1;" d="M 91.734375 118.828125 C 91.734375 121.671875 87.464844 121.671875 87.464844 118.828125 C 87.464844 115.984375 91.734375 115.984375 91.734375 118.828125 "/>
<path style=" stroke:none;fill-rule:nonzero;fill:rgb(100%,100%,100%);fill-opacity:1;" d="M 255.574219 362.453125 C 255.574219 365.296875 251.308594 365.296875 251.308594 362.453125 C 251.308594 359.609375 255.574219 359.609375 255.574219 362.453125 "/>
<path style=" stroke:none;fill-rule:nonzero;fill:rgb(100%,100%,100%);fill-opacity:1;" d="M 149.332031 12.160156 C 149.332031 15.003906 145.066406 15.003906 145.066406 12.160156 C 145.066406 9.316406 149.332031 9.316406 149.332031 12.160156 "/>
<path style=" stroke:none;fill-rule:nonzero;fill:rgb(100%,100%,100%);fill-opacity:1;" d="M 412.160156 80.851562 C 412.160156 83.699219 407.894531 83.699219 407.894531 80.851562 C 407.894531 78.007812 412.160156 78.007812 412.160156 80.851562 "/>
<path style=" stroke:none;fill-rule:nonzero;fill:rgb(100%,100%,100%);fill-opacity:1;" d="M 188.160156 437.972656 C 188.160156 440.816406 183.894531 440.816406 183.894531 437.972656 C 183.894531 435.128906 188.160156 435.128906 188.160156 437.972656 "/>
<path style=" stroke:none;fill-rule:nonzero;fill:rgb(100%,100%,100%);fill-opacity:1;" d="M 164.265625 27.945312 C 164.265625 30.792969 160 30.792969 160 27.945312 C 160 25.101562 164.265625 25.101562 164.265625 27.945312 "/>
<path style=" stroke:none;fill-rule:nonzero;fill:rgb(100%,100%,100%);fill-opacity:1;" d="M 115.625 349.226562 C 115.625 352.070312 111.359375 352.070312 111.359375 349.226562 C 111.359375 346.382812 115.625 346.382812 115.625 349.226562 "/>
<path style=" stroke:none;fill-rule:nonzero;fill:rgb(100%,100%,100%);fill-opacity:1;" d="M 53.761719 50.988281 C 53.761719 53.832031 49.492188 53.832031 49.492188 50.988281 C 49.492188 48.140625 53.761719 48.140625 53.761719 50.988281 "/>
<path style=" stroke:none;fill-rule:nonzero;fill:rgb(100%,100%,100%);fill-opacity:1;" d="M 7.253906 473.386719 C 7.253906 476.230469 2.988281 476.230469 2.988281 473.386719 C 2.988281 470.542969 7.253906 470.542969 7.253906 473.386719 "/>
<path style=" stroke:none;fill-rule:nonzero;fill:rgb(100%,100%,100%);fill-opacity:1;" d="M 14.933594 454.613281 C 14.933594 457.457031 10.667969 457.457031 10.667969 454.613281 C 10.667969 451.769531 14.933594 451.769531 14.933594 454.613281 "/>
<path style=" stroke:none;fill-rule:nonzero;fill:rgb(100%,100%,100%);fill-opacity:1;" d="M 307.625 513.066406 C 307.625 515.910156 303.359375 515.910156 303.359375 513.066406 C 303.359375 510.222656 307.625 510.222656 307.625 513.066406 "/>
<path style=" stroke:none;fill-rule:nonzero;fill:rgb(100%,100%,100%);fill-opacity:1;" d="M 279.039062 433.707031 C 279.039062 436.550781 274.773438 436.550781 274.773438 433.707031 C 274.773438 430.863281 279.039062 430.863281 279.039062 433.707031 "/>
<path style=" stroke:none;fill-rule:nonzero;fill:rgb(100%,100%,100%);fill-opacity:1;" d="M 216.320312 370.558594 C 216.320312 373.40625 212.054688 373.40625 212.054688 370.558594 C 212.054688 367.714844 216.320312 367.714844 216.320312 370.558594 "/>
<path style=" stroke:none;fill-rule:nonzero;fill:rgb(100%,100%,100%);fill-opacity:1;" d="M 108.800781 336.425781 C 108.800781 339.269531 104.535156 339.269531 104.535156 336.425781 C 104.535156 333.582031 108.800781 333.582031 108.800781 336.425781 "/>
<path style=" stroke:none;fill-rule:nonzero;fill:rgb(100%,100%,100%);fill-opacity:1;" d="M 16.214844 170.027344 C 16.214844 172.871094 11.945312 172.871094 11.945312 170.027344 C 11.945312 167.183594 16.214844 167.183594 16.214844 170.027344 "/>
<path style=" stroke:none;fill-rule:nonzero;fill:rgb(100%,100%,100%);fill-opacity:1;" d="M 437.761719 410.238281 C 437.761719 413.085938 433.492188 413.085938 433.492188 410.238281 C 433.492188 407.394531 437.761719 407.394531 437.761719 410.238281 "/>
<path style=" stroke:none;fill-rule:nonzero;fill:rgb(100%,100%,100%);fill-opacity:1;" d="M 459.519531 459.734375 C 459.519531 462.578125 455.253906 462.578125 455.253906 459.734375 C 455.253906 456.886719 459.519531 456.886719 459.519531 459.734375 "/>
<path style=" stroke:none;fill-rule:nonzero;fill:rgb(100%,100%,100%);fill-opacity:1;" d="M 61.441406 118.398438 C 61.441406 121.246094 57.171875 121.246094 57.171875 118.398438 C 57.171875 115.554688 61.441406 115.554688 61.441406 118.398438 "/>
<path style=" stroke:none;fill-rule:nonzero;fill:rgb(100%,100%,100%);fill-opacity:1;" d="M 232.535156 446.507812 C 232.535156 449.351562 228.265625 449.351562 228.265625 446.507812 C 228.265625 443.664062 232.535156 443.664062 232.535156 446.507812 "/>
<path style=" stroke:none;fill-rule:nonzero;fill:rgb(100%,100%,100%);fill-opacity:1;" d="M 35.414062 87.679688 C 35.414062 90.523438 31.148438 90.523438 31.148438 87.679688 C 31.148438 84.835938 35.414062 84.835938 35.414062 87.679688 "/>
<path style=" stroke:none;fill-rule:nonzero;fill:rgb(100%,100%,100%);fill-opacity:1;" d="M 349.867188 321.066406 C 349.867188 323.910156 345.601562 323.910156 345.601562 321.066406 C 345.601562 318.222656 349.867188 318.222656 349.867188 321.066406 "/>
<path style=" stroke:none;fill-rule:nonzero;fill:rgb(100%,100%,100%);fill-opacity:1;" d="M 506.878906 52.691406 C 506.878906 55.539062 502.613281 55.539062 502.613281 52.691406 C 502.613281 49.847656 506.878906 49.847656 506.878906 52.691406 "/>
<path style=" stroke:none;fill-rule:nonzero;fill:rgb(100%,100%,100%);fill-opacity:1;" d="M 37.972656 52.265625 C 37.972656 55.113281 33.707031 55.113281 33.707031 52.265625 C 33.707031 49.421875 37.972656 49.421875 37.972656 52.265625 "/>
<path style=" stroke:none;fill-rule:nonzero;fill:rgb(100%,100%,100%);fill-opacity:1;" d="M 473.601562 270.71875 C 473.601562 273.5625 469.332031 273.5625 469.332031 270.71875 C 469.332031 267.875 473.601562 267.875 473.601562 270.71875 "/>
<path style=" stroke:none;fill-rule:nonzero;fill:rgb(100%,100%,100%);fill-opacity:1;" d="M 180.480469 9.601562 C 180.480469 12.445312 176.214844 12.445312 176.214844 9.601562 C 176.214844 6.753906 180.480469 6.753906 180.480469 9.601562 "/>
<path style=" stroke:none;fill-rule:nonzero;fill:rgb(100%,100%,100%);fill-opacity:1;" d="M 347.304688 70.1875 C 347.304688 73.03125 343.039062 73.03125 343.039062 70.1875 C 343.039062 67.34375 347.304688 67.34375 347.304688 70.1875 "/>
<path style=" stroke:none;fill-rule:nonzero;fill:rgb(100%,84.3%,0%);fill-opacity:1;" d="M 185.183594 209.804688 C 185.183594 212.648438 180.914062 212.648438 180.914062 209.804688 C 180.914062 206.957031 185.183594 206.957031 185.183594 209.804688 "/>
<path style=" stroke:none;fill-rule:nonzero;fill:rgb(100%,84.3%,0%);fill-opacity:1;" d="M 467.199219 239.96875 C 467.199219 242.8125 462.933594 242.8125 462.933594 239.96875 C 462.933594 237.121094 467.199219 237.121094 467.199219 239.96875 "/>
<path style=" stroke:none;fill-rule:nonzero;fill:rgb(100%,84.3%,0%);fill-opacity:1;" d="M 455.984375 268.523438 C 455.984375 271.367188 451.71875 271.367188 451.71875 268.523438 C 451.71875 265.675781 455.984375 265.675781 455.984375 268.523438 "/>
<path style=" stroke:none;fill-rule:nonzero;fill:rgb(100%,84.3%,0%);fill-opacity:1;" d="M 467.199219 266.382812 C 467.199219 269.226562 462.933594 269.226562 462.933594 266.382812 C 462.933594 263.535156 467.199219 263.535156 467.199219 266.382812 "/>
<path style=" stroke:none;fill-rule:nonzero;fill:rgb(100%,84.3%,0%);fill-opacity:1;" d="M 189.917969 313.386719 C 189.917969 316.230469 185.648438 316.230469 185.648438 313.386719 C 185.648438 310.542969 189.917969 310.542969 189.917969 313.386719 "/>
<path style=" stroke:none;fill-rule:nonzero;fill:rgb(100%,84.3%,0%);fill-opacity:1;" d="M 243.417969 313.386719 C 243.417969 316.230469 239.152344 316.230469 239.152344 313.386719 C 239.152344 310.542969 243.417969 310.542969 243.417969 313.386719 "/>
<path style=" stroke:none;fill-rule:nonzero;fill:rgb(100%,84.3%,0%);fill-opacity:1;" d="M 183.042969 198.613281 C 183.042969 201.457031 178.777344 201.457031 178.777344 198.613281 C 178.777344 195.769531 183.042969 195.769531 183.042969 198.613281 "/>
<path style=" stroke:none;fill-rule:nonzero;fill:rgb(100%,84.3%,0%);fill-opacity:1;" d="M 217.625 313.203125 C 217.625 316.046875 213.359375 316.046875 213.359375 313.203125 C 213.359375 310.359375 217.625 310.359375 217.625 313.203125 "/>
<path style=" stroke:none;fill-rule:nonzero;fill:rgb(100%,84.3%,0%);fill-opacity:1;" d="M 239.027344 313.179688 C 239.027344 316.023438 234.761719 316.023438 234.761719 313.179688 C 234.761719 310.335938 239.027344 310.335938 239.027344 313.179688 "/>
<path style=" stroke:none;fill-rule:nonzero;fill:rgb(100%,84.3%,0%);fill-opacity:1;" d="M 459.539062 248.238281 C 459.539062 251.082031 455.269531 251.082031 455.269531 248.238281 C 455.269531 245.394531 459.539062 245.394531 459.539062 248.238281 "/>
<path style=" stroke:none;fill-rule:nonzero;fill:rgb(100%,84.3%,0%);fill-opacity:1;" d="M 167.816406 202.234375 C 167.816406 205.078125 163.550781 205.078125 163.550781 202.234375 C 163.550781 199.390625 167.816406 199.390625 167.816406 202.234375 "/>
<path style=" stroke:none;fill-rule:nonzero;fill:rgb(100%,84.3%,0%);fill-opacity:1;" d="M 390.273438 309.613281 C 390.273438 312.457031 386.003906 312.457031 386.003906 309.613281 C 386.003906 306.765625 390.273438 306.765625 390.273438 309.613281 "/>
<path style=" stroke:none;fill-rule:nonzero;fill:rgb(100%,84.3%,0%);fill-opacity:1;" d="M 176.667969 202.339844 C 176.667969 205.183594 172.402344 205.183594 172.402344 202.339844 C 172.402344 199.492188 176.667969 199.492188 176.667969 202.339844 "/>
<path style=" stroke:none;fill-rule:nonzero;fill:rgb(100%,84.3%,0%);fill-opacity:1;" d="M 241.46875 309.589844 C 241.46875 312.433594 237.203125 312.433594 237.203125 309.589844 C 237.203125 306.746094 241.46875 306.746094 241.46875 309.589844 "/>
<path style=" stroke:none;fill-rule:nonzero;fill:rgb(100%,84.3%,0%);fill-opacity:1;" d="M 387.964844 306.023438 C 387.964844 308.867188 383.699219 308.867188 383.699219 306.023438 C 383.699219 303.175781 387.964844 303.175781 387.964844 306.023438 "/>
<path style=" stroke:none;fill-rule:nonzero;fill:rgb(100%,84.3%,0%);fill-opacity:1;" d="M 49.066406 217.617188 C 49.066406 220.460938 44.800781 220.460938 44.800781 217.617188 C 44.800781 214.773438 49.066406 214.773438 49.066406 217.617188 "/>
<path style=" stroke:none;fill-rule:nonzero;fill:rgb(100%,84.3%,0%);fill-opacity:1;" d="M 250.515625 309.367188 C 250.515625 312.210938 246.25 312.210938 246.25 309.367188 C 246.25 306.523438 250.515625 306.523438 250.515625 309.367188 "/>
<path style=" stroke:none;fill-rule:nonzero;fill:rgb(100%,84.3%,0%);fill-opacity:1;" d="M 377.378906 309.207031 C 377.378906 312.050781 373.113281 312.050781 373.113281 309.207031 C 373.113281 306.363281 377.378906 306.363281 377.378906 309.207031 "/>
<path style=" stroke:none;fill-rule:nonzero;fill:rgb(100%,84.3%,0%);fill-opacity:1;" d="M 202.097656 203.925781 C 202.097656 206.769531 197.832031 206.769531 197.832031 203.925781 C 197.832031 201.078125 202.097656 201.078125 202.097656 203.925781 "/>
<path style=" stroke:none;fill-rule:nonzero;fill:rgb(100%,84.3%,0%);fill-opacity:1;" d="M 463.351562 263.953125 C 463.351562 266.796875 459.082031 266.796875 459.082031 263.953125 C 459.082031 261.109375 463.351562 261.109375 463.351562 263.953125 "/>
<path style=" stroke:none;fill-rule:nonzero;fill:rgb(100%,84.3%,0%);fill-opacity:1;" d="M 365.230469 309.441406 C 365.230469 312.289062 360.964844 312.289062 360.964844 309.441406 C 360.964844 306.597656 365.230469 306.597656 365.230469 309.441406 "/>
<path style=" stroke:none;fill-rule:nonzero;fill:rgb(100%,84.3%,0%);fill-opacity:1;" d="M 249.082031 313.386719 C 249.082031 316.230469 244.816406 316.230469 244.816406 313.386719 C 244.816406 310.542969 249.082031 310.542969 249.082031 313.386719 "/>
<path style=" stroke:none;fill-rule:nonzero;fill:rgb(100%,84.3%,0%);fill-opacity:1;" d="M 467.199219 257.847656 C 467.199219 260.691406 462.933594 260.691406 462.933594 257.847656 C 462.933594 255.003906 467.199219 255.003906 467.199219 257.847656 "/>
<path style=" stroke:none;fill-rule:nonzero;fill:rgb(100%,84.3%,0%);fill-opacity:1;" d="M 345.703125 305.652344 C 345.703125 308.5 341.4375 308.5 341.4375 305.652344 C 341.4375 302.808594 345.703125 302.808594 345.703125 305.652344 "/>
<path style=" stroke:none;fill-rule:nonzero;fill:rgb(100%,84.3%,0%);fill-opacity:1;" d="M 49.066406 251.023438 C 49.066406 253.867188 44.800781 253.867188 44.800781 251.023438 C 44.800781 248.175781 49.066406 248.175781 49.066406 251.023438 "/>
<path style=" stroke:none;fill-rule:nonzero;fill:rgb(100%,84.3%,0%);fill-opacity:1;" d="M 256.371094 310.058594 C 256.371094 312.902344 252.105469 312.902344 252.105469 310.058594 C 252.105469 307.214844 256.371094 307.214844 256.371094 310.058594 "/>
<path style=" stroke:none;fill-rule:nonzero;fill:rgb(100%,84.3%,0%);fill-opacity:1;" d="M 336.65625 313.386719 C 336.65625 316.230469 332.386719 316.230469 332.386719 313.386719 C 332.386719 310.542969 336.65625 310.542969 336.65625 313.386719 "/>
<path style=" stroke:none;fill-rule:nonzero;fill:rgb(100%,84.3%,0%);fill-opacity:1;" d="M 368.167969 313.386719 C 368.167969 316.230469 363.902344 316.230469 363.902344 313.386719 C 363.902344 310.542969 368.167969 310.542969 368.167969 313.386719 "/>
<path style=" stroke:none;fill-rule:nonzero;fill:rgb(100%,84.3%,0%);fill-opacity:1;" d="M 49.066406 228.695312 C 49.066406 231.539062 44.800781 231.539062 44.800781 228.695312 C 44.800781 225.847656 49.066406 225.847656 49.066406 228.695312 "/>
<path style=" stroke:none;fill-rule:nonzero;fill:rgb(100%,84.3%,0%);fill-opacity:1;" d="M 390.039062 302.246094 C 390.039062 305.09375 385.773438 305.09375 385.773438 302.246094 C 385.773438 299.402344 390.039062 299.402344 390.039062 302.246094 "/>
<path style=" stroke:none;fill-rule:nonzero;fill:rgb(100%,84.3%,0%);fill-opacity:1;" d="M 189.613281 202.398438 C 189.613281 205.246094 185.34375 205.246094 185.34375 202.398438 C 185.34375 199.554688 189.613281 199.554688 189.613281 202.398438 "/>
<path style=" stroke:none;fill-rule:nonzero;fill:rgb(100%,84.3%,0%);fill-opacity:1;" d="M 463.3125 254.523438 C 463.3125 257.367188 459.042969 257.367188 459.042969 254.523438 C 459.042969 251.679688 463.3125 251.679688 463.3125 254.523438 "/>
<path style=" stroke:none;fill-rule:nonzero;fill:rgb(100%,84.3%,0%);fill-opacity:1;" d="M 463.316406 285.683594 C 463.316406 288.527344 459.050781 288.527344 459.050781 285.683594 C 459.050781 282.835938 463.316406 282.835938 463.316406 285.683594 "/>
<path style=" stroke:none;fill-rule:nonzero;fill:rgb(100%,84.3%,0%);fill-opacity:1;" d="M 206.125 309.277344 C 206.125 312.121094 201.859375 312.121094 201.859375 309.277344 C 201.859375 306.433594 206.125 306.433594 206.125 309.277344 "/>
<path style=" stroke:none;fill-rule:nonzero;fill:rgb(100%,84.3%,0%);fill-opacity:1;" d="M 459.640625 261.742188 C 459.640625 264.585938 455.375 264.585938 455.375 261.742188 C 455.375 258.898438 459.640625 258.898438 459.640625 261.742188 "/>
<path style=" stroke:none;fill-rule:nonzero;fill:rgb(100%,84.3%,0%);fill-opacity:1;" d="M 349.820312 313.386719 C 349.820312 316.230469 345.554688 316.230469 345.554688 313.386719 C 345.554688 310.542969 349.820312 310.542969 349.820312 313.386719 "/>
<path style=" stroke:none;fill-rule:nonzero;fill:rgb(100%,84.3%,0%);fill-opacity:1;" d="M 223.683594 309.464844 C 223.683594 312.308594 219.417969 312.308594 219.417969 309.464844 C 219.417969 306.621094 223.683594 306.621094 223.683594 309.464844 "/>
<path style=" stroke:none;fill-rule:nonzero;fill:rgb(100%,84.3%,0%);fill-opacity:1;" d="M 49.066406 204.816406 C 49.066406 207.660156 44.800781 207.660156 44.800781 204.816406 C 44.800781 201.972656 49.066406 201.972656 49.066406 204.816406 "/>
<path style=" stroke:none;fill-rule:nonzero;fill:rgb(100%,84.3%,0%);fill-opacity:1;" d="M 396.832031 313.324219 C 396.832031 316.171875 392.566406 316.171875 392.566406 313.324219 C 392.566406 310.480469 396.832031 310.480469 396.832031 313.324219 "/>
<path style=" stroke:none;fill-rule:nonzero;fill:rgb(100%,84.3%,0%);fill-opacity:1;" d="M 165.558594 198.613281 C 165.558594 201.457031 161.292969 201.457031 161.292969 198.613281 C 161.292969 195.769531 165.558594 195.769531 165.558594 198.613281 "/>
<path style=" stroke:none;fill-rule:nonzero;fill:rgb(100%,84.3%,0%);fill-opacity:1;" d="M 459.710938 257.089844 C 459.710938 259.933594 455.445312 259.933594 455.445312 257.089844 C 455.445312 254.246094 459.710938 254.246094 459.710938 257.089844 "/>
<path style=" stroke:none;fill-rule:nonzero;fill:rgb(100%,84.3%,0%);fill-opacity:1;" d="M 358.507812 313.386719 C 358.507812 316.230469 354.242188 316.230469 354.242188 313.386719 C 354.242188 310.542969 358.507812 310.542969 358.507812 313.386719 "/>
<path style=" stroke:none;fill-rule:nonzero;fill:rgb(100%,84.3%,0%);fill-opacity:1;" d="M 189.363281 210.644531 C 189.363281 213.492188 185.097656 213.492188 185.097656 210.644531 C 185.097656 207.800781 189.363281 207.800781 189.363281 210.644531 "/>
<path style=" stroke:none;fill-rule:nonzero;fill:rgb(100%,84.3%,0%);fill-opacity:1;" d="M 232.609375 302.078125 C 232.609375 304.921875 228.339844 304.921875 228.339844 302.078125 C 228.339844 299.234375 232.609375 299.234375 232.609375 302.078125 "/>
<path style=" stroke:none;fill-rule:nonzero;fill:rgb(100%,84.3%,0%);fill-opacity:1;" d="M 230.230469 305.898438 C 230.230469 308.742188 225.964844 308.742188 225.964844 305.898438 C 225.964844 303.050781 230.230469 303.050781 230.230469 305.898438 "/>
<path style=" stroke:none;fill-rule:nonzero;fill:rgb(100%,84.3%,0%);fill-opacity:1;" d="M 191.578125 198.613281 C 191.578125 201.457031 187.3125 201.457031 187.3125 198.613281 C 187.3125 195.769531 191.578125 195.769531 191.578125 198.613281 "/>
<path style=" stroke:none;fill-rule:nonzero;fill:rgb(100%,84.3%,0%);fill-opacity:1;" d="M 226.15625 313.386719 C 226.15625 316.230469 221.886719 316.230469 221.886719 313.386719 C 221.886719 310.542969 226.15625 310.542969 226.15625 313.386719 "/>
<path style=" stroke:none;fill-rule:nonzero;fill:rgb(100%,84.3%,0%);fill-opacity:1;" d="M 180.914062 209.738281 C 180.914062 212.582031 176.648438 212.582031 176.648438 209.738281 C 176.648438 206.894531 180.914062 206.894531 180.914062 209.738281 "/>
<path style=" stroke:none;fill-rule:nonzero;fill:rgb(100%,84.3%,0%);fill-opacity:1;" d="M 399.074219 309.695312 C 399.074219 312.542969 394.808594 312.542969 394.808594 309.695312 C 394.808594 306.851562 399.074219 306.851562 399.074219 309.695312 "/>
<path style=" stroke:none;fill-rule:nonzero;fill:rgb(100%,84.3%,0%);fill-opacity:1;" d="M 459.582031 275.34375 C 459.582031 278.1875 455.316406 278.1875 455.316406 275.34375 C 455.316406 272.5 459.582031 272.5 459.582031 275.34375 "/>
<path style=" stroke:none;fill-rule:nonzero;fill:rgb(100%,84.3%,0%);fill-opacity:1;" d="M 236.984375 309.433594 C 236.984375 312.277344 232.71875 312.277344 232.71875 309.433594 C 232.71875 306.589844 236.984375 306.589844 236.984375 309.433594 "/>
<path style=" stroke:none;fill-rule:nonzero;fill:rgb(100%,84.3%,0%);fill-opacity:1;" d="M 49.066406 237.226562 C 49.066406 240.074219 44.800781 240.074219 44.800781 237.226562 C 44.800781 234.382812 49.066406 234.382812 49.066406 237.226562 "/>
<path style=" stroke:none;fill-rule:nonzero;fill:rgb(100%,84.3%,0%);fill-opacity:1;" d="M 196.097656 206.496094 C 196.097656 209.34375 191.832031 209.34375 191.832031 206.496094 C 191.832031 203.652344 196.097656 203.652344 196.097656 206.496094 "/>
<path style=" stroke:none;fill-rule:nonzero;fill:rgb(100%,84.3%,0%);fill-opacity:1;" d="M 388.285156 313.386719 C 388.285156 316.230469 384.015625 316.230469 384.015625 313.386719 C 384.015625 310.542969 388.285156 310.542969 388.285156 313.386719 "/>
<path style=" stroke:none;fill-rule:nonzero;fill:rgb(100%,84.3%,0%);fill-opacity:1;" d="M 263.457031 313.386719 C 263.457031 316.230469 259.191406 316.230469 259.191406 313.386719 C 259.191406 310.542969 263.457031 310.542969 263.457031 313.386719 "/>
<path style=" stroke:none;fill-rule:nonzero;fill:rgb(100%,84.3%,0%);fill-opacity:1;" d="M 223.953125 302.003906 C 223.953125 304.847656 219.6875 304.847656 219.6875 302.003906 C 219.6875 299.160156 223.953125 299.160156 223.953125 302.003906 "/>
<path style=" stroke:none;fill-rule:nonzero;fill:rgb(100%,84.3%,0%);fill-opacity:1;" d="M 456.050781 272.789062 C 456.050781 275.632812 451.785156 275.632812 451.785156 272.789062 C 451.785156 269.945312 456.050781 269.945312 456.050781 272.789062 "/>
<path style=" stroke:none;fill-rule:nonzero;fill:rgb(100%,84.3%,0%);fill-opacity:1;" d="M 246.207031 310.160156 C 246.207031 313.003906 241.941406 313.003906 241.941406 310.160156 C 241.941406 307.316406 246.207031 307.316406 246.207031 310.160156 "/>
<path style=" stroke:none;fill-rule:nonzero;fill:rgb(100%,84.3%,0%);fill-opacity:1;" d="M 467.199219 248.5 C 467.199219 251.34375 462.933594 251.34375 462.933594 248.5 C 462.933594 245.65625 467.199219 245.65625 467.199219 248.5 "/>
<path style=" stroke:none;fill-rule:nonzero;fill:rgb(100%,84.3%,0%);fill-opacity:1;" d="M 170.226562 206.078125 C 170.226562 208.921875 165.960938 208.921875 165.960938 206.078125 C 165.960938 203.234375 170.226562 203.234375 170.226562 206.078125 "/>
<path style=" stroke:none;fill-rule:nonzero;fill:rgb(100%,84.3%,0%);fill-opacity:1;" d="M 219.175781 302.015625 C 219.175781 304.859375 214.910156 304.859375 214.910156 302.015625 C 214.910156 299.171875 219.175781 299.171875 219.175781 302.015625 "/>
<path style=" stroke:none;fill-rule:nonzero;fill:rgb(100%,84.3%,0%);fill-opacity:1;" d="M 49.066406 209.082031 C 49.066406 211.925781 44.800781 211.925781 44.800781 209.082031 C 44.800781 206.238281 49.066406 206.238281 49.066406 209.082031 "/>
<path style=" stroke:none;fill-rule:nonzero;fill:rgb(100%,84.3%,0%);fill-opacity:1;" d="M 112.707031 313.386719 C 112.707031 316.230469 108.441406 316.230469 108.441406 313.386719 C 108.441406 310.542969 112.707031 310.542969 112.707031 313.386719 "/>
<path style=" stroke:none;fill-rule:nonzero;fill:rgb(100%,84.3%,0%);fill-opacity:1;" d="M 354.78125 305.714844 C 354.78125 308.558594 350.511719 308.558594 350.511719 305.714844 C 350.511719 302.871094 354.78125 302.871094 354.78125 305.714844 "/>
<path style=" stroke:none;fill-rule:nonzero;fill:rgb(100%,84.3%,0%);fill-opacity:1;" d="M 225.882812 305.808594 C 225.882812 308.65625 221.617188 308.65625 221.617188 305.808594 C 221.617188 302.964844 225.882812 302.964844 225.882812 305.808594 "/>
<path style=" stroke:none;fill-rule:nonzero;fill:rgb(100%,84.3%,0%);fill-opacity:1;" d="M 209.007812 313.386719 C 209.007812 316.230469 204.738281 316.230469 204.738281 313.386719 C 204.738281 310.542969 209.007812 310.542969 209.007812 313.386719 "/>
<path style=" stroke:none;fill-rule:nonzero;fill:rgb(100%,84.3%,0%);fill-opacity:1;" d="M 383.28125 305.691406 C 383.28125 308.535156 379.015625 308.535156 379.015625 305.691406 C 379.015625 302.847656 383.28125 302.847656 383.28125 305.691406 "/>
<path style=" stroke:none;fill-rule:nonzero;fill:rgb(100%,84.3%,0%);fill-opacity:1;" d="M 347.8125 309.621094 C 347.8125 312.46875 343.542969 312.46875 343.542969 309.621094 C 343.542969 306.777344 347.8125 306.777344 347.8125 309.621094 "/>
<path style=" stroke:none;fill-rule:nonzero;fill:rgb(100%,84.3%,0%);fill-opacity:1;" d="M 195.84375 198.640625 C 195.84375 201.484375 191.578125 201.484375 191.578125 198.640625 C 191.578125 195.796875 195.84375 195.796875 195.84375 198.640625 "/>
<path style=" stroke:none;fill-rule:nonzero;fill:rgb(100%,84.3%,0%);fill-opacity:1;" d="M 244.382812 306.300781 C 244.382812 309.144531 240.117188 309.144531 240.117188 306.300781 C 240.117188 303.457031 244.382812 303.457031 244.382812 306.300781 "/>
<path style=" stroke:none;fill-rule:nonzero;fill:rgb(100%,84.3%,0%);fill-opacity:1;" d="M 356.519531 309.609375 C 356.519531 312.457031 352.253906 312.457031 352.253906 309.609375 C 352.253906 306.765625 356.519531 306.765625 356.519531 309.609375 "/>
<path style=" stroke:none;fill-rule:nonzero;fill:rgb(100%,84.3%,0%);fill-opacity:1;" d="M 232.636719 309.691406 C 232.636719 312.535156 228.371094 312.535156 228.371094 309.691406 C 228.371094 306.84375 232.636719 306.84375 232.636719 309.691406 "/>
<path style=" stroke:none;fill-rule:nonzero;fill:rgb(100%,84.3%,0%);fill-opacity:1;" d="M 352.183594 309.640625 C 352.183594 312.484375 347.914062 312.484375 347.914062 309.640625 C 347.914062 306.792969 352.183594 306.792969 352.183594 309.640625 "/>
<path style=" stroke:none;fill-rule:nonzero;fill:rgb(100%,84.3%,0%);fill-opacity:1;" d="M 178.746094 198.613281 C 178.746094 201.457031 174.480469 201.457031 174.480469 198.613281 C 174.480469 195.769531 178.746094 195.769531 178.746094 198.613281 "/>
<path style=" stroke:none;fill-rule:nonzero;fill:rgb(100%,84.3%,0%);fill-opacity:1;" d="M 198.097656 202.4375 C 198.097656 205.285156 193.832031 205.285156 193.832031 202.4375 C 193.832031 199.59375 198.097656 199.59375 198.097656 202.4375 "/>
<path style=" stroke:none;fill-rule:nonzero;fill:rgb(100%,84.3%,0%);fill-opacity:1;" d="M 193.851562 202.871094 C 193.851562 205.714844 189.585938 205.714844 189.585938 202.871094 C 189.585938 200.027344 193.851562 200.027344 193.851562 202.871094 "/>
<path style=" stroke:none;fill-rule:nonzero;fill:rgb(100%,84.3%,0%);fill-opacity:1;" d="M 339.003906 309.675781 C 339.003906 312.519531 334.738281 312.519531 334.738281 309.675781 C 334.738281 306.828125 339.003906 306.828125 339.003906 309.675781 "/>
<path style=" stroke:none;fill-rule:nonzero;fill:rgb(100%,84.3%,0%);fill-opacity:1;" d="M 467.199219 270.648438 C 467.199219 273.492188 462.933594 273.492188 462.933594 270.648438 C 462.933594 267.800781 467.199219 267.800781 467.199219 270.648438 "/>
<path style=" stroke:none;fill-rule:nonzero;fill:rgb(100%,84.3%,0%);fill-opacity:1;" d="M 259.15625 313.386719 C 259.15625 316.230469 254.886719 316.230469 254.886719 313.386719 C 254.886719 310.542969 259.15625 310.542969 259.15625 313.386719 "/>
<path style=" stroke:none;fill-rule:nonzero;fill:rgb(100%,84.3%,0%);fill-opacity:1;" d="M 463.476562 268.46875 C 463.476562 271.3125 459.210938 271.3125 459.210938 268.46875 C 459.210938 265.625 463.476562 265.625 463.476562 268.46875 "/>
<path style=" stroke:none;fill-rule:nonzero;fill:rgb(100%,84.3%,0%);fill-opacity:1;" d="M 385.613281 302.117188 C 385.613281 304.960938 381.34375 304.960938 381.34375 302.117188 C 381.34375 299.273438 385.613281 299.273438 385.613281 302.117188 "/>
<path style=" stroke:none;fill-rule:nonzero;fill:rgb(100%,84.3%,0%);fill-opacity:1;" d="M 253.699219 313.386719 C 253.699219 316.230469 249.433594 316.230469 249.433594 313.386719 C 249.433594 310.542969 253.699219 310.542969 253.699219 313.386719 "/>
<path style=" stroke:none;fill-rule:nonzero;fill:rgb(100%,84.3%,0%);fill-opacity:1;" d="M 349.960938 305.9375 C 349.960938 308.78125 345.691406 308.78125 345.691406 305.9375 C 345.691406 303.09375 349.960938 303.09375 349.960938 305.9375 "/>
<path style=" stroke:none;fill-rule:nonzero;fill:rgb(100%,84.3%,0%);fill-opacity:1;" d="M 343.394531 309.648438 C 343.394531 312.492188 339.125 312.492188 339.125 309.648438 C 339.125 306.804688 343.394531 306.804688 343.394531 309.648438 "/>
<path style=" stroke:none;fill-rule:nonzero;fill:rgb(100%,84.3%,0%);fill-opacity:1;" d="M 467.199219 244.234375 C 467.199219 247.078125 462.933594 247.078125 462.933594 244.234375 C 462.933594 241.390625 467.199219 241.390625 467.199219 244.234375 "/>
<path style=" stroke:none;fill-rule:nonzero;fill:rgb(100%,84.3%,0%);fill-opacity:1;" d="M 463.253906 259.46875 C 463.253906 262.3125 458.988281 262.3125 458.988281 259.46875 C 458.988281 256.625 463.253906 256.625 463.253906 259.46875 "/>
<path style=" stroke:none;fill-rule:nonzero;fill:rgb(100%,84.3%,0%);fill-opacity:1;" d="M 396.863281 306.019531 C 396.863281 308.863281 392.59375 308.863281 392.59375 306.019531 C 392.59375 303.175781 396.863281 303.175781 396.863281 306.019531 "/>
<path style=" stroke:none;fill-rule:nonzero;fill:rgb(100%,84.3%,0%);fill-opacity:1;" d="M 178.78125 213.820312 C 178.78125 216.667969 174.515625 216.667969 174.515625 213.820312 C 174.515625 210.976562 178.78125 210.976562 178.78125 213.820312 "/>
<path style=" stroke:none;fill-rule:nonzero;fill:rgb(100%,84.3%,0%);fill-opacity:1;" d="M 392.5625 313.386719 C 392.5625 316.230469 388.296875 316.230469 388.296875 313.386719 C 388.296875 310.542969 392.5625 310.542969 392.5625 313.386719 "/>
<path style=" stroke:none;fill-rule:nonzero;fill:rgb(100%,84.3%,0%);fill-opacity:1;" d="M 467.171875 283.445312 C 467.171875 286.292969 462.90625 286.292969 462.90625 283.445312 C 462.90625 280.601562 467.171875 280.601562 467.171875 283.445312 "/>
<path style=" stroke:none;fill-rule:nonzero;fill:rgb(100%,84.3%,0%);fill-opacity:1;" d="M 354.222656 313.386719 C 354.222656 316.230469 349.953125 316.230469 349.953125 313.386719 C 349.953125 310.542969 354.222656 310.542969 354.222656 313.386719 "/>
<path style=" stroke:none;fill-rule:nonzero;fill:rgb(100%,84.3%,0%);fill-opacity:1;" d="M 264.90625 309.371094 C 264.90625 312.21875 260.640625 312.21875 260.640625 309.371094 C 260.640625 306.527344 264.90625 306.527344 264.90625 309.371094 "/>
<path style=" stroke:none;fill-rule:nonzero;fill:rgb(100%,84.3%,0%);fill-opacity:1;" d="M 210.585938 309.421875 C 210.585938 312.265625 206.320312 312.265625 206.320312 309.421875 C 206.320312 306.578125 210.585938 306.578125 210.585938 309.421875 "/>
<path style=" stroke:none;fill-rule:nonzero;fill:rgb(100%,84.3%,0%);fill-opacity:1;" d="M 467.199219 279.179688 C 467.199219 282.027344 462.933594 282.027344 462.933594 279.179688 C 462.933594 276.335938 467.199219 276.335938 467.199219 279.179688 "/>
<path style=" stroke:none;fill-rule:nonzero;fill:rgb(100%,84.3%,0%);fill-opacity:1;" d="M 49.066406 241.742188 C 49.066406 244.585938 44.800781 244.585938 44.800781 241.742188 C 44.800781 238.898438 49.066406 238.898438 49.066406 241.742188 "/>
<path style=" stroke:none;fill-rule:nonzero;fill:rgb(100%,84.3%,0%);fill-opacity:1;" d="M 230.46875 313.386719 C 230.46875 316.230469 226.203125 316.230469 226.203125 313.386719 C 226.203125 310.542969 230.46875 310.542969 230.46875 313.386719 "/>
<path style=" stroke:none;fill-rule:nonzero;fill:rgb(100%,84.3%,0%);fill-opacity:1;" d="M 216.8125 305.570312 C 216.8125 308.414062 212.546875 308.414062 212.546875 305.570312 C 212.546875 302.722656 216.8125 302.722656 216.8125 305.570312 "/>
<path style=" stroke:none;fill-rule:nonzero;fill:rgb(100%,84.3%,0%);fill-opacity:1;" d="M 172.398438 202.40625 C 172.398438 205.25 168.132812 205.25 168.132812 202.40625 C 168.132812 199.5625 172.398438 199.5625 172.398438 202.40625 "/>
<path style=" stroke:none;fill-rule:nonzero;fill:rgb(100%,84.3%,0%);fill-opacity:1;" d="M 204.742188 313.3125 C 204.742188 316.15625 200.472656 316.15625 200.472656 313.3125 C 200.472656 310.46875 204.742188 310.46875 204.742188 313.3125 "/>
<path style=" stroke:none;fill-rule:nonzero;fill:rgb(100%,84.3%,0%);fill-opacity:1;" d="M 253.882812 306.589844 C 253.882812 309.433594 249.617188 309.433594 249.617188 306.589844 C 249.617188 303.746094 253.882812 303.746094 253.882812 306.589844 "/>
<path style=" stroke:none;fill-rule:nonzero;fill:rgb(100%,84.3%,0%);fill-opacity:1;" d="M 248.582031 305.546875 C 248.582031 308.390625 244.316406 308.390625 244.316406 305.546875 C 244.316406 302.699219 248.582031 302.699219 248.582031 305.546875 "/>
<path style=" stroke:none;fill-rule:nonzero;fill:rgb(100%,84.3%,0%);fill-opacity:1;" d="M 187.3125 198.613281 C 187.3125 201.457031 183.042969 201.457031 183.042969 198.613281 C 183.042969 195.769531 187.3125 195.769531 187.3125 198.613281 "/>
<path style=" stroke:none;fill-rule:nonzero;fill:rgb(100%,84.3%,0%);fill-opacity:1;" d="M 459.460938 252.683594 C 459.460938 255.527344 455.195312 255.527344 455.195312 252.683594 C 455.195312 249.839844 459.460938 249.839844 459.460938 252.683594 "/>
<path style=" stroke:none;fill-rule:nonzero;fill:rgb(100%,84.3%,0%);fill-opacity:1;" d="M 341.378906 305.886719 C 341.378906 308.730469 337.113281 308.730469 337.113281 305.886719 C 337.113281 303.042969 341.378906 303.042969 341.378906 305.886719 "/>
<path style=" stroke:none;fill-rule:nonzero;fill:rgb(100%,84.3%,0%);fill-opacity:1;" d="M 363.605469 313.386719 C 363.605469 316.230469 359.335938 316.230469 359.335938 313.386719 C 359.335938 310.542969 363.605469 310.542969 363.605469 313.386719 "/>
<path style=" stroke:none;fill-rule:nonzero;fill:rgb(100%,84.3%,0%);fill-opacity:1;" d="M 174.480469 198.613281 C 174.480469 201.457031 170.214844 201.457031 170.214844 198.613281 C 170.214844 195.769531 174.480469 195.769531 174.480469 198.613281 "/>
<path style=" stroke:none;fill-rule:nonzero;fill:rgb(100%,84.3%,0%);fill-opacity:1;" d="M 183.179688 213.570312 C 183.179688 216.414062 178.914062 216.414062 178.914062 213.570312 C 178.914062 210.726562 183.179688 210.726562 183.179688 213.570312 "/>
<path style=" stroke:none;fill-rule:nonzero;fill:rgb(100%,84.3%,0%);fill-opacity:1;" d="M 267.960938 313.386719 C 267.960938 316.230469 263.695312 316.230469 263.695312 313.386719 C 263.695312 310.542969 267.960938 310.542969 267.960938 313.386719 "/>
<path style=" stroke:none;fill-rule:nonzero;fill:rgb(100%,84.3%,0%);fill-opacity:1;" d="M 200.113281 198.613281 C 200.113281 201.457031 195.84375 201.457031 195.84375 198.613281 C 195.84375 195.769531 200.113281 195.769531 200.113281 198.613281 "/>
<path style=" stroke:none;fill-rule:nonzero;fill:rgb(100%,84.3%,0%);fill-opacity:1;" d="M 228.21875 302.117188 C 228.21875 304.960938 223.953125 304.960938 223.953125 302.117188 C 223.953125 299.273438 228.21875 299.273438 228.21875 302.117188 "/>
<path style=" stroke:none;fill-rule:nonzero;fill:rgb(100%,84.3%,0%);fill-opacity:1;" d="M 341.109375 313.386719 C 341.109375 316.230469 336.839844 316.230469 336.839844 313.386719 C 336.839844 310.542969 341.109375 310.542969 341.109375 313.386719 "/>
<path style=" stroke:none;fill-rule:nonzero;fill:rgb(100%,84.3%,0%);fill-opacity:1;" d="M 234.765625 313.386719 C 234.765625 316.230469 230.5 316.230469 230.5 313.386719 C 230.5 310.542969 234.765625 310.542969 234.765625 313.386719 "/>
<path style=" stroke:none;fill-rule:nonzero;fill:rgb(100%,84.3%,0%);fill-opacity:1;" d="M 383.636719 313.386719 C 383.636719 316.230469 379.371094 316.230469 379.371094 313.386719 C 379.371094 310.542969 383.636719 310.542969 383.636719 313.386719 "/>
<path style=" stroke:none;fill-rule:nonzero;fill:rgb(100%,84.3%,0%);fill-opacity:1;" d="M 185.277344 202.363281 C 185.277344 205.207031 181.011719 205.207031 181.011719 202.363281 C 181.011719 199.519531 185.277344 199.519531 185.277344 202.363281 "/>
<path style=" stroke:none;fill-rule:nonzero;fill:rgb(100%,84.3%,0%);fill-opacity:1;" d="M 219.300781 309.277344 C 219.300781 312.125 215.03125 312.125 215.03125 309.277344 C 215.03125 306.433594 219.300781 306.433594 219.300781 309.277344 "/>
<path style=" stroke:none;fill-rule:nonzero;fill:rgb(100%,84.3%,0%);fill-opacity:1;" d="M 178.78125 206.046875 C 178.78125 208.890625 174.511719 208.890625 174.511719 206.046875 C 174.511719 203.203125 178.78125 203.203125 178.78125 206.046875 "/>
<path style=" stroke:none;fill-rule:nonzero;fill:rgb(100%,84.3%,0%);fill-opacity:1;" d="M 221.621094 305.585938 C 221.621094 308.429688 217.355469 308.429688 217.355469 305.585938 C 217.355469 302.738281 221.621094 302.738281 221.621094 305.585938 "/>
<path style=" stroke:none;fill-rule:nonzero;fill:rgb(100%,84.3%,0%);fill-opacity:1;" d="M 49.066406 224.429688 C 49.066406 227.273438 44.800781 227.273438 44.800781 224.429688 C 44.800781 221.582031 49.066406 221.582031 49.066406 224.429688 "/>
<path style=" stroke:none;fill-rule:nonzero;fill:rgb(100%,84.3%,0%);fill-opacity:1;" d="M 359.164062 305.9375 C 359.164062 308.78125 354.898438 308.78125 354.898438 305.9375 C 354.898438 303.09375 359.164062 303.09375 359.164062 305.9375 "/>
<path style=" stroke:none;fill-rule:nonzero;fill:rgb(100%,84.3%,0%);fill-opacity:1;" d="M 463.503906 272.785156 C 463.503906 275.628906 459.234375 275.628906 459.234375 272.785156 C 459.234375 269.941406 463.503906 269.941406 463.503906 272.785156 "/>
<path style=" stroke:none;fill-rule:nonzero;fill:rgb(100%,84.3%,0%);fill-opacity:1;" d="M 374.855469 313.355469 C 374.855469 316.199219 370.585938 316.199219 370.585938 313.355469 C 370.585938 310.507812 374.855469 310.507812 374.855469 313.355469 "/>
<path style=" stroke:none;fill-rule:nonzero;fill:rgb(100%,84.3%,0%);fill-opacity:1;" d="M 234.550781 305.878906 C 234.550781 308.722656 230.285156 308.722656 230.285156 305.878906 C 230.285156 303.035156 234.550781 303.035156 234.550781 305.878906 "/>
<path style=" stroke:none;fill-rule:nonzero;fill:rgb(100%,84.3%,0%);fill-opacity:1;" d="M 183.136719 206.058594 C 183.136719 208.90625 178.867188 208.90625 178.867188 206.058594 C 178.867188 203.214844 183.136719 203.214844 183.136719 206.058594 "/>
<path style=" stroke:none;fill-rule:nonzero;fill:rgb(100%,84.3%,0%);fill-opacity:1;" d="M 381.625 309.625 C 381.625 312.46875 377.359375 312.46875 377.359375 309.625 C 377.359375 306.78125 381.625 306.78125 381.625 309.625 "/>
<path style=" stroke:none;fill-rule:nonzero;fill:rgb(100%,84.3%,0%);fill-opacity:1;" d="M 463.277344 245.976562 C 463.277344 248.820312 459.011719 248.820312 459.011719 245.976562 C 459.011719 243.128906 463.277344 243.128906 463.277344 245.976562 "/>
<path style=" stroke:none;fill-rule:nonzero;fill:rgb(100%,84.3%,0%);fill-opacity:1;" d="M 459.792969 266.316406 C 459.792969 269.160156 455.527344 269.160156 455.527344 266.316406 C 455.527344 263.46875 459.792969 263.46875 459.792969 266.316406 "/>
<path style=" stroke:none;fill-rule:nonzero;fill:rgb(100%,84.3%,0%);fill-opacity:1;" d="M 174.519531 206.300781 C 174.519531 209.144531 170.253906 209.144531 170.253906 206.300781 C 170.253906 203.457031 174.519531 203.457031 174.519531 206.300781 "/>
<path style=" stroke:none;fill-rule:nonzero;fill:rgb(100%,84.3%,0%);fill-opacity:1;" d="M 463.277344 281.414062 C 463.277344 284.261719 459.007812 284.261719 459.007812 281.414062 C 459.007812 278.570312 463.277344 278.570312 463.277344 281.414062 "/>
<path style=" stroke:none;fill-rule:nonzero;fill:rgb(100%,84.3%,0%);fill-opacity:1;" d="M 181.007812 202.363281 C 181.007812 205.207031 176.738281 205.207031 176.738281 202.363281 C 176.738281 199.515625 181.007812 199.515625 181.007812 202.363281 "/>
<path style=" stroke:none;fill-rule:nonzero;fill:rgb(100%,84.3%,0%);fill-opacity:1;" d="M 345.449219 313.386719 C 345.449219 316.230469 341.183594 316.230469 341.183594 313.386719 C 341.183594 310.542969 345.449219 310.542969 345.449219 313.386719 "/>
<path style=" stroke:none;fill-rule:nonzero;fill:rgb(100%,84.3%,0%);fill-opacity:1;" d="M 260.578125 309.34375 C 260.578125 312.1875 256.3125 312.1875 256.3125 309.34375 C 256.3125 306.5 260.578125 306.5 260.578125 309.34375 "/>
<path style=" stroke:none;fill-rule:nonzero;fill:rgb(100%,84.3%,0%);fill-opacity:1;" d="M 52.410156 221.773438 C 52.410156 224.617188 48.140625 224.617188 48.140625 221.773438 C 48.140625 218.929688 52.410156 218.929688 52.410156 221.773438 "/>
<path style=" stroke:none;fill-rule:nonzero;fill:rgb(100%,84.3%,0%);fill-opacity:1;" d="M 176.664062 210.117188 C 176.664062 212.960938 172.398438 212.960938 172.398438 210.117188 C 172.398438 207.273438 176.664062 207.273438 176.664062 210.117188 "/>
<path style=" stroke:none;fill-rule:nonzero;fill:rgb(100%,84.3%,0%);fill-opacity:1;" d="M 372.699219 309.671875 C 372.699219 312.515625 368.429688 312.515625 368.429688 309.671875 C 368.429688 306.828125 372.699219 306.828125 372.699219 309.671875 "/>
<path style=" stroke:none;fill-rule:nonzero;fill:rgb(100%,84.3%,0%);fill-opacity:1;" d="M 463.445312 277.152344 C 463.445312 279.996094 459.179688 279.996094 459.179688 277.152344 C 459.179688 274.308594 463.445312 274.308594 463.445312 277.152344 "/>
<path style=" stroke:none;fill-rule:nonzero;fill:rgb(100%,84.3%,0%);fill-opacity:1;" d="M 379.121094 313.386719 C 379.121094 316.230469 374.855469 316.230469 374.855469 313.386719 C 374.855469 310.542969 379.121094 310.542969 379.121094 313.386719 "/>
<path style=" stroke:none;fill-rule:nonzero;fill:rgb(100%,84.3%,0%);fill-opacity:1;" d="M 456.101562 264.183594 C 456.101562 267.027344 451.832031 267.027344 451.832031 264.183594 C 451.832031 261.335938 456.101562 261.335938 456.101562 264.183594 "/>
<path style=" stroke:none;fill-rule:nonzero;fill:rgb(100%,84.3%,0%);fill-opacity:1;" d="M 467.199219 274.914062 C 467.199219 277.757812 462.933594 277.757812 462.933594 274.914062 C 462.933594 272.070312 467.199219 272.070312 467.199219 274.914062 "/>
<path style=" stroke:none;fill-rule:nonzero;fill:rgb(100%,84.3%,0%);fill-opacity:1;" d="M 228.054688 309.566406 C 228.054688 312.410156 223.789062 312.410156 223.789062 309.566406 C 223.789062 306.722656 228.054688 306.722656 228.054688 309.566406 "/>
<path style=" stroke:none;fill-rule:nonzero;fill:rgb(100%,84.3%,0%);fill-opacity:1;" d="M 238.820312 305.582031 C 238.820312 308.425781 234.554688 308.425781 234.554688 305.582031 C 234.554688 302.738281 238.820312 302.738281 238.820312 305.582031 "/>
<path style=" stroke:none;fill-rule:nonzero;fill:rgb(100%,84.3%,0%);fill-opacity:1;" d="M 385.9375 309.792969 C 385.9375 312.636719 381.667969 312.636719 381.667969 309.792969 C 381.667969 306.949219 385.9375 306.949219 385.9375 309.792969 "/>
<path style=" stroke:none;fill-rule:nonzero;fill:rgb(100%,84.3%,0%);fill-opacity:1;" d="M 392.308594 305.863281 C 392.308594 308.707031 388.039062 308.707031 388.039062 305.863281 C 388.039062 303.015625 392.308594 303.015625 392.308594 305.863281 "/>
<path style=" stroke:none;fill-rule:nonzero;fill:rgb(100%,84.3%,0%);fill-opacity:1;" d="M 191.578125 206.949219 C 191.578125 209.792969 187.3125 209.792969 187.3125 206.949219 C 187.3125 204.105469 191.578125 204.105469 191.578125 206.949219 "/>
<path style=" stroke:none;fill-rule:nonzero;fill:rgb(100%,84.3%,0%);fill-opacity:1;" d="M 467.199219 287.714844 C 467.199219 290.558594 462.933594 290.558594 462.933594 287.714844 C 462.933594 284.871094 467.199219 284.871094 467.199219 287.714844 "/>
<path style=" stroke:none;fill-rule:nonzero;fill:rgb(100%,84.3%,0%);fill-opacity:1;" d="M 221.886719 313.335938 C 221.886719 316.179688 217.621094 316.179688 217.621094 313.335938 C 217.621094 310.492188 221.886719 310.492188 221.886719 313.335938 "/>
<path style=" stroke:none;fill-rule:nonzero;fill:rgb(100%,84.3%,0%);fill-opacity:1;" d="M 170.214844 198.707031 C 170.214844 201.550781 165.949219 201.550781 165.949219 198.707031 C 165.949219 195.863281 170.214844 195.863281 170.214844 198.707031 "/>
<path style=" stroke:none;fill-rule:nonzero;fill:rgb(100%,84.3%,0%);fill-opacity:1;" d="M 459.773438 270.707031 C 459.773438 273.550781 455.507812 273.550781 455.507812 270.707031 C 455.507812 267.863281 459.773438 267.863281 459.773438 270.707031 "/>
<path style=" stroke:none;fill-rule:nonzero;fill:rgb(100%,84.3%,0%);fill-opacity:1;" d="M 108.40625 313.386719 C 108.40625 316.230469 104.140625 316.230469 104.140625 313.386719 C 104.140625 310.542969 108.40625 310.542969 108.40625 313.386719 "/>
<path style=" stroke:none;fill-rule:nonzero;fill:rgb(100%,84.3%,0%);fill-opacity:1;" d="M 463.304688 250.242188 C 463.304688 253.085938 459.039062 253.085938 459.039062 250.242188 C 459.039062 247.398438 463.304688 247.398438 463.304688 250.242188 "/>
<path style=" stroke:none;fill-rule:nonzero;fill:rgb(100%,84.3%,0%);fill-opacity:1;" d="M 467.199219 235.699219 C 467.199219 238.542969 462.933594 238.542969 462.933594 235.699219 C 462.933594 232.855469 467.199219 232.855469 467.199219 235.699219 "/>
<path style=" stroke:none;fill-rule:nonzero;fill:rgb(100%,84.3%,0%);fill-opacity:1;" d="M 204.28125 199.511719 C 204.28125 202.355469 200.015625 202.355469 200.015625 199.511719 C 200.015625 196.667969 204.28125 196.667969 204.28125 199.511719 "/>
<path style=" stroke:none;fill-rule:nonzero;fill:rgb(100%,84.3%,0%);fill-opacity:1;" d="M 195.140625 313.386719 C 195.140625 316.230469 190.875 316.230469 190.875 313.386719 C 190.875 310.542969 195.140625 310.542969 195.140625 313.386719 "/>
<path style=" stroke:none;fill-rule:nonzero;fill:rgb(100%,84.3%,0%);fill-opacity:1;" d="M 49.066406 232.960938 C 49.066406 235.804688 44.800781 235.804688 44.800781 232.960938 C 44.800781 230.117188 49.066406 230.117188 49.066406 232.960938 "/>
<path style=" stroke:none;fill-rule:nonzero;fill:rgb(100%,84.3%,0%);fill-opacity:1;" d="M 401.375 313.386719 C 401.375 316.230469 397.109375 316.230469 397.109375 313.386719 C 397.109375 310.542969 401.375 310.542969 401.375 313.386719 "/>
<path style=" stroke:none;fill-rule:nonzero;fill:rgb(100%,84.3%,0%);fill-opacity:1;" d="M 459.382812 279.675781 C 459.382812 282.519531 455.113281 282.519531 455.113281 279.675781 C 455.113281 276.832031 459.382812 276.832031 459.382812 279.675781 "/>
<path style=" stroke:none;fill-rule:nonzero;fill:rgb(100%,84.3%,0%);fill-opacity:1;" d="M 214.855469 309.359375 C 214.855469 312.203125 210.589844 312.203125 210.589844 309.359375 C 210.589844 306.515625 214.855469 306.515625 214.855469 309.359375 "/>
<path style=" stroke:none;fill-rule:nonzero;fill:rgb(100%,84.3%,0%);fill-opacity:1;" d="M 49.066406 213.347656 C 49.066406 216.195312 44.800781 216.195312 44.800781 213.347656 C 44.800781 210.503906 49.066406 210.503906 49.066406 213.347656 "/>
<path style=" stroke:none;fill-rule:nonzero;fill:rgb(100%,84.3%,0%);fill-opacity:1;" d="M 378.703125 305.152344 C 378.703125 307.996094 374.4375 307.996094 374.4375 305.152344 C 374.4375 302.304688 378.703125 302.304688 378.703125 305.152344 "/>
<path style=" stroke:none;fill-rule:nonzero;fill:rgb(100%,84.3%,0%);fill-opacity:1;" d="M 49.066406 246.3125 C 49.066406 249.15625 44.800781 249.15625 44.800781 246.3125 C 44.800781 243.46875 49.066406 243.46875 49.066406 246.3125 "/>
<path style=" stroke:none;fill-rule:nonzero;fill:rgb(100%,84.3%,0%);fill-opacity:1;" d="M 194.171875 210.335938 C 194.171875 213.179688 189.90625 213.179688 189.90625 210.335938 C 189.90625 207.492188 194.171875 207.492188 194.171875 210.335938 "/>
<path style=" stroke:none;fill-rule:nonzero;fill:rgb(100%,84.3%,0%);fill-opacity:1;" d="M 467.199219 262.113281 C 467.199219 264.957031 462.933594 264.957031 462.933594 262.113281 C 462.933594 259.269531 467.199219 259.269531 467.199219 262.113281 "/>
<path style=" stroke:none;fill-rule:nonzero;fill:rgb(100%,84.3%,0%);fill-opacity:1;" d="M 200.472656 313.214844 C 200.472656 316.058594 196.207031 316.058594 196.207031 313.214844 C 196.207031 310.367188 200.472656 310.367188 200.472656 313.214844 "/>
<path style=" stroke:none;fill-rule:nonzero;fill:rgb(100%,84.3%,0%);fill-opacity:1;" d="M 49.066406 200.550781 C 49.066406 203.394531 44.800781 203.394531 44.800781 200.550781 C 44.800781 197.703125 49.066406 197.703125 49.066406 200.550781 "/>
<path style=" stroke:none;fill-rule:nonzero;fill:rgb(100%,84.3%,0%);fill-opacity:1;" d="M 463.210938 241.476562 C 463.210938 244.320312 458.941406 244.320312 458.941406 241.476562 C 458.941406 238.632812 463.210938 238.632812 463.210938 241.476562 "/>
<path style=" stroke:none;fill-rule:nonzero;fill:rgb(100%,84.3%,0%);fill-opacity:1;" d="M 467.199219 252.765625 C 467.199219 255.613281 462.933594 255.613281 462.933594 252.765625 C 462.933594 249.921875 467.199219 249.921875 467.199219 252.765625 "/>
<path style=" stroke:none;fill-rule:nonzero;fill:rgb(100%,84.3%,0%);fill-opacity:1;" d="M 394.589844 309.632812 C 394.589844 312.476562 390.324219 312.476562 390.324219 309.632812 C 390.324219 306.785156 394.589844 306.785156 394.589844 309.632812 "/>
<path style=" stroke:none;fill-rule:nonzero;fill:rgb(100%,84.3%,0%);fill-opacity:1;" d="M 455.777344 277.277344 C 455.777344 280.121094 451.511719 280.121094 451.511719 277.277344 C 451.511719 274.433594 455.777344 274.433594 455.777344 277.277344 "/>
<path style=" stroke:none;fill-rule:nonzero;fill:rgb(100%,84.3%,0%);fill-opacity:1;" d="M 187.402344 206.078125 C 187.402344 208.921875 183.132812 208.921875 183.132812 206.078125 C 183.132812 203.234375 187.402344 203.234375 187.402344 206.078125 "/>
<path style=" stroke:none;fill-rule:nonzero;fill:rgb(100%,84.3%,0%);fill-opacity:1;" d="M 360.882812 309.84375 C 360.882812 312.6875 356.617188 312.6875 356.617188 309.84375 C 356.617188 307 360.882812 307 360.882812 309.84375 "/>
<path style=" stroke:none;fill-rule:nonzero;fill:rgb(100%,84.3%,0%);fill-opacity:1;" d="M 171.988281 209.964844 C 171.988281 212.808594 167.71875 212.808594 167.71875 209.964844 C 167.71875 207.121094 171.988281 207.121094 171.988281 209.964844 "/>
<path style=" stroke:none;fill-rule:nonzero;fill:rgb(100%,84.3%,0%);fill-opacity:1;" d="M 212.535156 305.628906 C 212.535156 308.472656 208.269531 308.472656 208.269531 305.628906 C 208.269531 302.78125 212.535156 302.78125 212.535156 305.628906 "/>
<path style=" stroke:none;fill-rule:nonzero;fill:rgb(100%,84.3%,0%);fill-opacity:1;" d="M 213.359375 313.355469 C 213.359375 316.199219 209.09375 316.199219 209.09375 313.355469 C 209.09375 310.511719 213.359375 310.511719 213.359375 313.355469 "/>
</g>
</svg>
