<?xml version="1.0" encoding="UTF-8"?>
<svg xmlns="http://www.w3.org/2000/svg" xmlns:xlink="http://www.w3.org/1999/xlink" width="512pt" height="512pt" viewBox="0 0 512 512" version="1.1">
<g id="surface396">
<path style=" stroke:none;fill-rule:nonzero;fill:rgb(26.7%,26.7%,26.7%);fill-opacity:1;" d="M 96.90625 0 L 415.09375 0 L 415.09375 512 L 96.90625 512 Z M 96.90625 0 "/>
<path style=" stroke:none;fill-rule:nonzero;fill:rgb(19.2%,38.8%,66.7%);fill-opacity:1;" d="M 123.421875 42.667969 L 388.578125 42.667969 L 388.578125 469.332031 L 123.421875 469.332031 Z M 123.421875 42.667969 "/>
<path style=" stroke:none;fill-rule:nonzero;fill:rgb(90.6%,14.9%,14.9%);fill-opacity:1;" d="M 574.273438 269.820312 C 574.273438 292.238281 556.097656 310.414062 533.679688 310.414062 C 511.257812 310.414062 493.085938 292.238281 493.085938 269.820312 C 493.085938 247.398438 511.257812 229.226562 533.679688 229.226562 C 556.097656 229.226562 574.273438 247.398438 574.273438 269.820312 "/>
<path style=" stroke:none;fill-rule:nonzero;fill:rgb(100%,100%,100%);fill-opacity:1;" d="M 115.648438 38.347656 C 115.648438 44.105469 107.011719 44.105469 107.011719 38.347656 C 107.011719 32.589844 115.648438 32.589844 115.648438 38.347656 "/>
<path style=" stroke:none;fill-rule:nonzero;fill:rgb(100%,100%,100%);fill-opacity:1;" d="M 89.738281 178.265625 C 89.738281 184.023438 81.101562 184.023438 81.101562 178.265625 C 81.101562 172.507812 89.738281 172.507812 89.738281 178.265625 "/>
<path style=" stroke:none;fill-rule:nonzero;fill:rgb(100%,100%,100%);fill-opacity:1;" d="M 236.566406 27.984375 C 236.566406 33.742188 227.929688 33.742188 227.929688 27.984375 C 227.929688 22.226562 236.566406 22.226562 236.566406 27.984375 "/>
<path style=" stroke:none;fill-rule:nonzero;fill:rgb(100%,100%,100%);fill-opacity:1;" d="M 77.648438 137.671875 C 77.648438 143.429688 69.007812 143.429688 69.007812 137.671875 C 69.007812 131.914062 77.648438 131.914062 77.648438 137.671875 "/>
<path style=" stroke:none;fill-rule:nonzero;fill:rgb(100%,100%,100%);fill-opacity:1;" d="M 325.527344 487.472656 C 325.527344 493.230469 316.890625 493.230469 316.890625 487.472656 C 316.890625 481.714844 325.527344 481.714844 325.527344 487.472656 "/>
<path style=" stroke:none;fill-rule:nonzero;fill:rgb(100%,100%,100%);fill-opacity:1;" d="M 340.210938 21.074219 C 340.210938 26.832031 331.574219 26.832031 331.574219 21.074219 C 331.574219 15.316406 340.210938 15.316406 340.210938 21.074219 "/>
<path style=" stroke:none;fill-rule:nonzero;fill:rgb(100%,100%,100%);fill-opacity:1;" d="M 67.28125 439.105469 C 67.28125 444.863281 58.644531 444.863281 58.644531 439.105469 C 58.644531 433.347656 67.28125 433.347656 67.28125 439.105469 "/>
<path style=" stroke:none;fill-rule:nonzero;fill:rgb(100%,100%,100%);fill-opacity:1;" d="M 137.242188 484.015625 C 137.242188 489.773438 128.605469 489.773438 128.605469 484.015625 C 128.605469 478.257812 137.242188 478.257812 137.242188 484.015625 "/>
<path style=" stroke:none;fill-rule:nonzero;fill:rgb(100%,100%,100%);fill-opacity:1;" d="M 401.535156 247.363281 C 401.535156 253.121094 392.898438 253.121094 392.898438 247.363281 C 392.898438 241.605469 401.535156 241.605469 401.535156 247.363281 "/>
<path style=" stroke:none;fill-rule:nonzero;fill:rgb(100%,100%,100%);fill-opacity:1;" d="M 383.394531 33.164062 C 383.394531 38.925781 374.757812 38.925781 374.757812 33.164062 C 374.757812 27.40625 383.394531 27.40625 383.394531 33.164062 "/>
<path style=" stroke:none;fill-rule:nonzero;fill:rgb(100%,100%,100%);fill-opacity:1;" d="M 483.585938 176.539062 C 483.585938 182.296875 474.949219 182.296875 474.949219 176.539062 C 474.949219 170.78125 483.585938 170.78125 483.585938 176.539062 "/>
<path style=" stroke:none;fill-rule:nonzero;fill:rgb(100%,100%,100%);fill-opacity:1;" d="M 172.652344 481.425781 C 172.652344 487.183594 164.015625 487.183594 164.015625 481.425781 C 164.015625 475.667969 172.652344 475.667969 172.652344 481.425781 "/>
<path style=" stroke:none;fill-rule:nonzero;fill:rgb(100%,100%,100%);fill-opacity:1;" d="M 396.351562 378.644531 C 396.351562 384.402344 387.714844 384.402344 387.714844 378.644531 C 387.714844 372.886719 396.351562 372.886719 396.351562 378.644531 "/>
<path style=" stroke:none;fill-rule:nonzero;fill:rgb(100%,100%,100%);fill-opacity:1;" d="M 475.8125 88.441406 C 475.8125 94.199219 467.175781 94.199219 467.175781 88.441406 C 467.175781 82.683594 475.8125 82.683594 475.8125 88.441406 "/>
<path style=" stroke:none;fill-rule:nonzero;fill:rgb(100%,100%,100%);fill-opacity:1;" d="M 379.078125 476.242188 C 379.078125 482 370.441406 482 370.441406 476.242188 C 370.441406 470.484375 379.078125 470.484375 379.078125 476.242188 "/>
<path style=" stroke:none;fill-rule:nonzero;fill:rgb(100%,100%,100%);fill-opacity:1;" d="M 508.632812 217.132812 C 508.632812 222.890625 499.996094 222.890625 499.996094 217.132812 C 499.996094 211.375 508.632812 211.375 508.632812 217.132812 "/>
<path style=" stroke:none;fill-rule:nonzero;fill:rgb(100%,100%,100%);fill-opacity:1;" d="M 458.539062 515.109375 C 458.539062 520.867188 449.902344 520.867188 449.902344 515.109375 C 449.902344 509.351562 458.539062 509.351562 458.539062 515.109375 "/>
<path style=" stroke:none;fill-rule:nonzero;fill:rgb(100%,100%,100%);fill-opacity:1;" d="M 499.996094 490.925781 C 499.996094 496.683594 491.359375 496.683594 491.359375 490.925781 C 491.359375 485.167969 499.996094 485.167969 499.996094 490.925781 "/>
<path style=" stroke:none;fill-rule:nonzero;fill:rgb(100%,100%,100%);fill-opacity:1;" d="M 465.445312 499.5625 C 465.445312 505.320312 456.808594 505.320312 456.808594 499.5625 C 456.808594 493.804688 465.445312 493.804688 465.445312 499.5625 "/>
<path style=" stroke:none;fill-rule:nonzero;fill:rgb(100%,84.3%,0%);fill-opacity:1;" d="M 244.949219 66.5 C 244.949219 72.257812 236.3125 72.257812 236.3125 66.5 C 236.3125 60.742188 244.949219 60.742188 244.949219 66.5 "/>
<path style=" stroke:none;fill-rule:nonzero;fill:rgb(100%,84.3%,0%);fill-opacity:1;" d="M 222.347656 58.828125 C 222.347656 64.589844 213.710938 64.589844 213.710938 58.828125 C 213.710938 53.070312 222.347656 53.070312 222.347656 58.828125 "/>
<path style=" stroke:none;fill-rule:nonzero;fill:rgb(100%,84.3%,0%);fill-opacity:1;" d="M 305.722656 438.015625 C 305.722656 443.773438 297.085938 443.773438 297.085938 438.015625 C 297.085938 432.257812 305.722656 432.257812 305.722656 438.015625 "/>
<path style=" stroke:none;fill-rule:nonzero;fill:rgb(100%,84.3%,0%);fill-opacity:1;" d="M 365.875 66.535156 C 365.875 72.292969 357.238281 72.292969 357.238281 66.535156 C 357.238281 60.777344 365.875 60.777344 365.875 66.535156 "/>
<path style=" stroke:none;fill-rule:nonzero;fill:rgb(100%,84.3%,0%);fill-opacity:1;" d="M 236.238281 51.304688 C 236.238281 57.0625 227.597656 57.0625 227.597656 51.304688 C 227.597656 45.546875 236.238281 45.546875 236.238281 51.304688 "/>
<path style=" stroke:none;fill-rule:nonzero;fill:rgb(100%,84.3%,0%);fill-opacity:1;" d="M 349.277344 449.507812 C 349.277344 455.265625 340.640625 455.265625 340.640625 449.507812 C 340.640625 443.75 349.277344 443.75 349.277344 449.507812 "/>
<path style=" stroke:none;fill-rule:nonzero;fill:rgb(100%,84.3%,0%);fill-opacity:1;" d="M 374.226562 51.304688 C 374.226562 57.0625 365.589844 57.0625 365.589844 51.304688 C 365.589844 45.546875 374.226562 45.546875 374.226562 51.304688 "/>
<path style=" stroke:none;fill-rule:nonzero;fill:rgb(100%,84.3%,0%);fill-opacity:1;" d="M 136.921875 460.695312 C 136.921875 466.453125 128.285156 466.453125 128.285156 460.695312 C 128.285156 454.9375 136.921875 454.9375 136.921875 460.695312 "/>
<path style=" stroke:none;fill-rule:nonzero;fill:rgb(100%,84.3%,0%);fill-opacity:1;" d="M 319.515625 58.941406 C 319.515625 64.699219 310.878906 64.699219 310.878906 58.941406 C 310.878906 53.183594 319.515625 53.183594 319.515625 58.941406 "/>
<path style=" stroke:none;fill-rule:nonzero;fill:rgb(100%,84.3%,0%);fill-opacity:1;" d="M 306.632812 51.304688 C 306.632812 57.0625 297.996094 57.0625 297.996094 51.304688 C 297.996094 45.546875 306.632812 45.546875 306.632812 51.304688 "/>
<path style=" stroke:none;fill-rule:nonzero;fill:rgb(100%,84.3%,0%);fill-opacity:1;" d="M 384.257812 378.753906 C 384.257812 384.511719 375.621094 384.511719 375.621094 378.753906 C 375.621094 372.996094 384.257812 372.996094 384.257812 378.753906 "/>
<path style=" stroke:none;fill-rule:nonzero;fill:rgb(100%,84.3%,0%);fill-opacity:1;" d="M 136.378906 51.304688 C 136.378906 57.0625 127.742188 57.0625 127.742188 51.304688 C 127.742188 45.546875 136.378906 45.546875 136.378906 51.304688 "/>
<path style=" stroke:none;fill-rule:nonzero;fill:rgb(100%,84.3%,0%);fill-opacity:1;" d="M 384.257812 247.371094 C 384.257812 253.128906 375.621094 253.128906 375.621094 247.371094 C 375.621094 241.613281 384.257812 241.613281 384.257812 247.371094 "/>
<path style=" stroke:none;fill-rule:nonzero;fill:rgb(100%,84.3%,0%);fill-opacity:1;" d="M 376.65625 269.695312 C 376.65625 275.453125 368.019531 275.453125 368.019531 269.695312 C 368.019531 263.9375 376.65625 263.9375 376.65625 269.695312 "/>
<path style=" stroke:none;fill-rule:nonzero;fill:rgb(100%,84.3%,0%);fill-opacity:1;" d="M 384.058594 396.558594 C 384.058594 402.316406 375.421875 402.316406 375.421875 396.558594 C 375.421875 390.800781 384.058594 390.800781 384.058594 396.558594 "/>
<path style=" stroke:none;fill-rule:nonzero;fill:rgb(100%,84.3%,0%);fill-opacity:1;" d="M 379.007812 460.695312 C 379.007812 466.453125 370.371094 466.453125 370.371094 460.695312 C 370.371094 454.9375 379.007812 454.9375 379.007812 460.695312 "/>
<path style=" stroke:none;fill-rule:nonzero;fill:rgb(100%,84.3%,0%);fill-opacity:1;" d="M 309.550781 460.695312 C 309.550781 466.453125 300.914062 466.453125 300.914062 460.695312 C 300.914062 454.9375 309.550781 454.9375 309.550781 460.695312 "/>
<path style=" stroke:none;fill-rule:nonzero;fill:rgb(100%,84.3%,0%);fill-opacity:1;" d="M 180.996094 444.257812 C 180.996094 450.015625 172.359375 450.015625 172.359375 444.257812 C 172.359375 438.496094 180.996094 438.496094 180.996094 444.257812 "/>
<path style=" stroke:none;fill-rule:nonzero;fill:rgb(100%,84.3%,0%);fill-opacity:1;" d="M 342.746094 51.304688 C 342.746094 57.0625 334.109375 57.0625 334.109375 51.304688 C 334.109375 45.546875 342.746094 45.546875 342.746094 51.304688 "/>
<path style=" stroke:none;fill-rule:nonzero;fill:rgb(100%,84.3%,0%);fill-opacity:1;" d="M 236.273438 66.226562 C 236.273438 71.984375 227.636719 71.984375 227.636719 66.226562 C 227.636719 60.46875 236.273438 60.46875 236.273438 66.226562 "/>
<path style=" stroke:none;fill-rule:nonzero;fill:rgb(100%,84.3%,0%);fill-opacity:1;" d="M 145.160156 60.527344 C 145.160156 66.285156 136.523438 66.285156 136.523438 60.527344 C 136.523438 54.769531 145.160156 54.769531 145.160156 60.527344 "/>
<path style=" stroke:none;fill-rule:nonzero;fill:rgb(100%,84.3%,0%);fill-opacity:1;" d="M 171.363281 460.695312 C 171.363281 466.453125 162.726562 466.453125 162.726562 460.695312 C 162.726562 454.9375 171.363281 454.9375 171.363281 460.695312 "/>
<path style=" stroke:none;fill-rule:nonzero;fill:rgb(100%,84.3%,0%);fill-opacity:1;" d="M 370.515625 445.652344 C 370.515625 451.410156 361.878906 451.410156 361.878906 445.652344 C 361.878906 439.894531 370.515625 439.894531 370.515625 445.652344 "/>
<path style=" stroke:none;fill-rule:nonzero;fill:rgb(100%,84.3%,0%);fill-opacity:1;" d="M 137.003906 68.675781 C 137.003906 74.433594 128.367188 74.433594 128.367188 68.675781 C 128.367188 62.917969 137.003906 62.917969 137.003906 68.675781 "/>
<path style=" stroke:none;fill-rule:nonzero;fill:rgb(100%,84.3%,0%);fill-opacity:1;" d="M 244.960938 51.304688 C 244.960938 57.0625 236.324219 57.0625 236.324219 51.304688 C 236.324219 45.546875 244.960938 45.546875 244.960938 51.304688 "/>
<path style=" stroke:none;fill-rule:nonzero;fill:rgb(100%,84.3%,0%);fill-opacity:1;" d="M 150.152344 449.699219 C 150.152344 455.457031 141.511719 455.457031 141.511719 449.699219 C 141.511719 443.941406 150.152344 443.941406 150.152344 449.699219 "/>
<path style=" stroke:none;fill-rule:nonzero;fill:rgb(100%,84.3%,0%);fill-opacity:1;" d="M 384.257812 256.128906 C 384.257812 261.886719 375.621094 261.886719 375.621094 256.128906 C 375.621094 250.367188 384.257812 250.367188 384.257812 256.128906 "/>
<path style=" stroke:none;fill-rule:nonzero;fill:rgb(100%,84.3%,0%);fill-opacity:1;" d="M 384.257812 238.273438 C 384.257812 244.03125 375.621094 244.03125 375.621094 238.273438 C 375.621094 232.515625 384.257812 232.515625 384.257812 238.273438 "/>
<path style=" stroke:none;fill-rule:nonzero;fill:rgb(100%,84.3%,0%);fill-opacity:1;" d="M 361.734375 460.609375 C 361.734375 466.367188 353.097656 466.367188 353.097656 460.609375 C 353.097656 454.851562 361.734375 454.851562 361.734375 460.609375 "/>
<path style=" stroke:none;fill-rule:nonzero;fill:rgb(100%,84.3%,0%);fill-opacity:1;" d="M 273.359375 51.304688 C 273.359375 57.0625 264.722656 57.0625 264.722656 51.304688 C 264.722656 45.546875 273.359375 45.546875 273.359375 51.304688 "/>
<path style=" stroke:none;fill-rule:nonzero;fill:rgb(100%,84.3%,0%);fill-opacity:1;" d="M 369.410156 379.097656 C 369.410156 384.855469 360.773438 384.855469 360.773438 379.097656 C 360.773438 373.339844 369.410156 373.339844 369.410156 379.097656 "/>
<path style=" stroke:none;fill-rule:nonzero;fill:rgb(100%,84.3%,0%);fill-opacity:1;" d="M 226.5 66.402344 C 226.5 72.160156 217.863281 72.160156 217.863281 66.402344 C 217.863281 60.644531 226.5 60.644531 226.5 66.402344 "/>
<path style=" stroke:none;fill-rule:nonzero;fill:rgb(100%,84.3%,0%);fill-opacity:1;" d="M 384.257812 264.921875 C 384.257812 270.679688 375.621094 270.679688 375.621094 264.921875 C 375.621094 259.164062 384.257812 259.164062 384.257812 264.921875 "/>
<path style=" stroke:none;fill-rule:nonzero;fill:rgb(100%,84.3%,0%);fill-opacity:1;" d="M 384.082031 352.847656 C 384.082031 358.605469 375.445312 358.605469 375.445312 352.847656 C 375.445312 347.089844 384.082031 347.089844 384.082031 352.847656 "/>
<path style=" stroke:none;fill-rule:nonzero;fill:rgb(100%,84.3%,0%);fill-opacity:1;" d="M 375.929688 438.765625 C 375.929688 444.523438 367.292969 444.523438 367.292969 438.765625 C 367.292969 433.007812 375.929688 433.007812 375.929688 438.765625 "/>
<path style=" stroke:none;fill-rule:nonzero;fill:rgb(100%,84.3%,0%);fill-opacity:1;" d="M 300.710938 460.695312 C 300.710938 466.453125 292.074219 466.453125 292.074219 460.695312 C 292.074219 454.9375 300.710938 454.9375 300.710938 460.695312 "/>
<path style=" stroke:none;fill-rule:nonzero;fill:rgb(100%,84.3%,0%);fill-opacity:1;" d="M 369.984375 58.9375 C 369.984375 64.695312 361.347656 64.695312 361.347656 58.9375 C 361.347656 53.179688 369.984375 53.179688 369.984375 58.9375 "/>
<path style=" stroke:none;fill-rule:nonzero;fill:rgb(100%,84.3%,0%);fill-opacity:1;" d="M 339.917969 450.140625 C 339.917969 455.898438 331.28125 455.898438 331.28125 450.140625 C 331.28125 444.382812 339.917969 444.382812 339.917969 450.140625 "/>
<path style=" stroke:none;fill-rule:nonzero;fill:rgb(100%,84.3%,0%);fill-opacity:1;" d="M 136.378906 171.292969 C 136.378906 177.050781 127.742188 177.050781 127.742188 171.292969 C 127.742188 165.535156 136.378906 165.535156 136.378906 171.292969 "/>
<path style=" stroke:none;fill-rule:nonzero;fill:rgb(100%,84.3%,0%);fill-opacity:1;" d="M 374.777344 453.164062 C 374.777344 458.925781 366.140625 458.925781 366.140625 453.164062 C 366.140625 447.40625 374.777344 447.40625 374.777344 453.164062 "/>
<path style=" stroke:none;fill-rule:nonzero;fill:rgb(100%,84.3%,0%);fill-opacity:1;" d="M 162.398438 445.980469 C 162.398438 451.738281 153.761719 451.738281 153.761719 445.980469 C 153.761719 440.222656 162.398438 440.222656 162.398438 445.980469 "/>
<path style=" stroke:none;fill-rule:nonzero;fill:rgb(100%,84.3%,0%);fill-opacity:1;" d="M 209.375 51.304688 C 209.375 57.0625 200.738281 57.0625 200.738281 51.304688 C 200.738281 45.546875 209.375 45.546875 209.375 51.304688 "/>
<path style=" stroke:none;fill-rule:nonzero;fill:rgb(100%,84.3%,0%);fill-opacity:1;" d="M 383.371094 405.167969 C 383.371094 410.925781 374.734375 410.925781 374.734375 405.167969 C 374.734375 399.410156 383.371094 399.410156 383.371094 405.167969 "/>
<path style=" stroke:none;fill-rule:nonzero;fill:rgb(100%,84.3%,0%);fill-opacity:1;" d="M 376.058594 393.296875 C 376.058594 399.054688 367.421875 399.054688 367.421875 393.296875 C 367.421875 387.539062 376.058594 387.539062 376.058594 393.296875 "/>
<path style=" stroke:none;fill-rule:nonzero;fill:rgb(100%,84.3%,0%);fill-opacity:1;" d="M 378.617188 58.742188 C 378.617188 64.5 369.980469 64.5 369.980469 58.742188 C 369.980469 52.984375 378.617188 52.984375 378.617188 58.742188 "/>
<path style=" stroke:none;fill-rule:nonzero;fill:rgb(100%,84.3%,0%);fill-opacity:1;" d="M 258.296875 59.097656 C 258.296875 64.855469 249.660156 64.855469 249.660156 59.097656 C 249.660156 53.339844 258.296875 53.339844 258.296875 59.097656 "/>
<path style=" stroke:none;fill-rule:nonzero;fill:rgb(100%,84.3%,0%);fill-opacity:1;" d="M 333.382812 51.304688 C 333.382812 57.0625 324.746094 57.0625 324.746094 51.304688 C 324.746094 45.546875 333.382812 45.546875 333.382812 51.304688 "/>
<path style=" stroke:none;fill-rule:nonzero;fill:rgb(100%,84.3%,0%);fill-opacity:1;" d="M 305.1875 453.242188 C 305.1875 459 296.550781 459 296.550781 453.242188 C 296.550781 447.484375 305.1875 447.484375 305.1875 453.242188 "/>
<path style=" stroke:none;fill-rule:nonzero;fill:rgb(100%,84.3%,0%);fill-opacity:1;" d="M 188.816406 459.652344 C 188.816406 465.410156 180.179688 465.410156 180.179688 459.652344 C 180.179688 453.894531 188.816406 453.894531 188.816406 459.652344 "/>
<path style=" stroke:none;fill-rule:nonzero;fill:rgb(100%,84.3%,0%);fill-opacity:1;" d="M 323.164062 438.363281 C 323.164062 444.121094 314.527344 444.121094 314.527344 438.363281 C 314.527344 432.605469 323.164062 432.605469 323.164062 438.363281 "/>
<path style=" stroke:none;fill-rule:nonzero;fill:rgb(100%,84.3%,0%);fill-opacity:1;" d="M 162.632812 460.695312 C 162.632812 466.453125 153.996094 466.453125 153.996094 460.695312 C 153.996094 454.9375 162.632812 454.9375 162.632812 460.695312 "/>
<path style=" stroke:none;fill-rule:nonzero;fill:rgb(100%,84.3%,0%);fill-opacity:1;" d="M 218.109375 51.304688 C 218.109375 57.0625 209.472656 57.0625 209.472656 51.304688 C 209.472656 45.546875 218.109375 45.546875 218.109375 51.304688 "/>
<path style=" stroke:none;fill-rule:nonzero;fill:rgb(100%,84.3%,0%);fill-opacity:1;" d="M 227.378906 51.304688 C 227.378906 57.0625 218.742188 57.0625 218.742188 51.304688 C 218.742188 45.546875 227.378906 45.546875 227.378906 51.304688 "/>
<path style=" stroke:none;fill-rule:nonzero;fill:rgb(100%,84.3%,0%);fill-opacity:1;" d="M 292.003906 460.695312 C 292.003906 466.453125 283.367188 466.453125 283.367188 460.695312 C 283.367188 454.9375 292.003906 454.9375 292.003906 460.695312 "/>
<path style=" stroke:none;fill-rule:nonzero;fill:rgb(100%,84.3%,0%);fill-opacity:1;" d="M 324.464844 51.304688 C 324.464844 57.0625 315.828125 57.0625 315.828125 51.304688 C 315.828125 45.546875 324.464844 45.546875 324.464844 51.304688 "/>
<path style=" stroke:none;fill-rule:nonzero;fill:rgb(100%,84.3%,0%);fill-opacity:1;" d="M 296.511719 453.148438 C 296.511719 458.90625 287.875 458.90625 287.875 453.148438 C 287.875 447.390625 296.511719 447.390625 296.511719 453.148438 "/>
<path style=" stroke:none;fill-rule:nonzero;fill:rgb(100%,84.3%,0%);fill-opacity:1;" d="M 384.164062 370.117188 C 384.164062 375.875 375.527344 375.875 375.527344 370.117188 C 375.527344 364.359375 384.164062 364.359375 384.164062 370.117188 "/>
<path style=" stroke:none;fill-rule:nonzero;fill:rgb(100%,84.3%,0%);fill-opacity:1;" d="M 309.898438 445.578125 C 309.898438 451.335938 301.261719 451.335938 301.261719 445.578125 C 301.261719 439.820312 309.898438 439.820312 309.898438 445.578125 "/>
<path style=" stroke:none;fill-rule:nonzero;fill:rgb(100%,84.3%,0%);fill-opacity:1;" d="M 349.746094 56.445312 C 349.746094 62.203125 341.109375 62.203125 341.109375 56.445312 C 341.109375 50.6875 349.746094 50.6875 349.746094 56.445312 "/>
<path style=" stroke:none;fill-rule:nonzero;fill:rgb(100%,84.3%,0%);fill-opacity:1;" d="M 384.257812 387.921875 C 384.257812 393.679688 375.621094 393.679688 375.621094 387.921875 C 375.621094 382.164062 384.257812 382.164062 384.257812 387.921875 "/>
<path style=" stroke:none;fill-rule:nonzero;fill:rgb(100%,84.3%,0%);fill-opacity:1;" d="M 262.246094 51.304688 C 262.246094 57.0625 253.609375 57.0625 253.609375 51.304688 C 253.609375 45.546875 262.246094 45.546875 262.246094 51.304688 "/>
<path style=" stroke:none;fill-rule:nonzero;fill:rgb(100%,84.3%,0%);fill-opacity:1;" d="M 376.90625 242.839844 C 376.90625 248.597656 368.269531 248.597656 368.269531 242.839844 C 368.269531 237.082031 376.90625 237.082031 376.90625 242.839844 "/>
<path style=" stroke:none;fill-rule:nonzero;fill:rgb(100%,84.3%,0%);fill-opacity:1;" d="M 137.492188 452.078125 C 137.492188 457.835938 128.855469 457.835938 128.855469 452.078125 C 128.855469 446.320312 137.492188 446.320312 137.492188 452.078125 "/>
<path style=" stroke:none;fill-rule:nonzero;fill:rgb(100%,84.3%,0%);fill-opacity:1;" d="M 369.046875 370.417969 C 369.046875 376.175781 360.410156 376.175781 360.410156 370.417969 C 360.410156 364.660156 369.046875 364.660156 369.046875 370.417969 "/>
<path style=" stroke:none;fill-rule:nonzero;fill:rgb(100%,84.3%,0%);fill-opacity:1;" d="M 180.242188 460.695312 C 180.242188 466.453125 171.605469 466.453125 171.605469 460.695312 C 171.605469 454.9375 180.242188 454.9375 180.242188 460.695312 "/>
<path style=" stroke:none;fill-rule:nonzero;fill:rgb(100%,84.3%,0%);fill-opacity:1;" d="M 154.070312 51.304688 C 154.070312 57.0625 145.433594 57.0625 145.433594 51.304688 C 145.433594 45.546875 154.070312 45.546875 154.070312 51.304688 "/>
<path style=" stroke:none;fill-rule:nonzero;fill:rgb(100%,84.3%,0%);fill-opacity:1;" d="M 327.273438 445.960938 C 327.273438 451.71875 318.636719 451.71875 318.636719 445.960938 C 318.636719 440.199219 327.273438 440.199219 327.273438 445.960938 "/>
<path style=" stroke:none;fill-rule:nonzero;fill:rgb(100%,84.3%,0%);fill-opacity:1;" d="M 184.757812 452.03125 C 184.757812 457.789062 176.121094 457.789062 176.121094 452.03125 C 176.121094 446.273438 184.757812 446.273438 184.757812 452.03125 "/>
<path style=" stroke:none;fill-rule:nonzero;fill:rgb(100%,84.3%,0%);fill-opacity:1;" d="M 144.996094 51.890625 C 144.996094 57.648438 136.359375 57.648438 136.359375 51.890625 C 136.359375 46.132812 144.996094 46.132812 144.996094 51.890625 "/>
<path style=" stroke:none;fill-rule:nonzero;fill:rgb(100%,84.3%,0%);fill-opacity:1;" d="M 380.742188 445.9375 C 380.742188 451.695312 372.105469 451.695312 372.105469 445.9375 C 372.105469 440.179688 380.742188 440.179688 380.742188 445.9375 "/>
<path style=" stroke:none;fill-rule:nonzero;fill:rgb(100%,84.3%,0%);fill-opacity:1;" d="M 384.257812 65.472656 C 384.257812 71.230469 375.621094 71.230469 375.621094 65.472656 C 375.621094 59.714844 384.257812 59.714844 384.257812 65.472656 "/>
<path style=" stroke:none;fill-rule:nonzero;fill:rgb(100%,84.3%,0%);fill-opacity:1;" d="M 154.628906 59.921875 C 154.628906 65.679688 145.992188 65.679688 145.992188 59.921875 C 145.992188 54.164062 154.628906 54.164062 154.628906 59.921875 "/>
<path style=" stroke:none;fill-rule:nonzero;fill:rgb(100%,84.3%,0%);fill-opacity:1;" d="M 375.261719 402.191406 C 375.261719 407.949219 366.625 407.949219 366.625 402.191406 C 366.625 396.433594 375.261719 396.433594 375.261719 402.191406 "/>
<path style=" stroke:none;fill-rule:nonzero;fill:rgb(100%,84.3%,0%);fill-opacity:1;" d="M 162.707031 51.351562 C 162.707031 57.109375 154.070312 57.109375 154.070312 51.351562 C 154.070312 45.59375 162.707031 45.59375 162.707031 51.351562 "/>
<path style=" stroke:none;fill-rule:nonzero;fill:rgb(100%,84.3%,0%);fill-opacity:1;" d="M 283.265625 460.695312 C 283.265625 466.453125 274.628906 466.453125 274.628906 460.695312 C 274.628906 454.9375 283.265625 454.9375 283.265625 460.695312 "/>
<path style=" stroke:none;fill-rule:nonzero;fill:rgb(100%,84.3%,0%);fill-opacity:1;" d="M 374.550781 66.359375 C 374.550781 72.117188 365.914062 72.117188 365.914062 66.359375 C 365.914062 60.601562 374.550781 60.601562 374.550781 66.359375 "/>
<path style=" stroke:none;fill-rule:nonzero;fill:rgb(100%,84.3%,0%);fill-opacity:1;" d="M 197.394531 460.65625 C 197.394531 466.414062 188.757812 466.414062 188.757812 460.65625 C 188.757812 454.898438 197.394531 454.898438 197.394531 460.65625 "/>
<path style=" stroke:none;fill-rule:nonzero;fill:rgb(100%,84.3%,0%);fill-opacity:1;" d="M 314.070312 453.140625 C 314.070312 458.898438 305.429688 458.898438 305.429688 453.140625 C 305.429688 447.382812 314.070312 447.382812 314.070312 453.140625 "/>
<path style=" stroke:none;fill-rule:nonzero;fill:rgb(100%,84.3%,0%);fill-opacity:1;" d="M 369.070312 246.476562 C 369.070312 252.234375 360.433594 252.234375 360.433594 246.476562 C 360.433594 240.71875 369.070312 240.71875 369.070312 246.476562 "/>
<path style=" stroke:none;fill-rule:nonzero;fill:rgb(100%,84.3%,0%);fill-opacity:1;" d="M 142.4375 444.996094 C 142.4375 450.753906 133.800781 450.753906 133.800781 444.996094 C 133.800781 439.238281 142.4375 439.238281 142.4375 444.996094 "/>
<path style=" stroke:none;fill-rule:nonzero;fill:rgb(100%,84.3%,0%);fill-opacity:1;" d="M 253.597656 51.320312 C 253.597656 57.078125 244.960938 57.078125 244.960938 51.320312 C 244.960938 45.5625 253.597656 45.5625 253.597656 51.320312 "/>
<path style=" stroke:none;fill-rule:nonzero;fill:rgb(100%,84.3%,0%);fill-opacity:1;" d="M 145.855469 69.136719 C 145.855469 74.894531 137.21875 74.894531 137.21875 69.136719 C 137.21875 63.378906 145.855469 63.378906 145.855469 69.136719 "/>
<path style=" stroke:none;fill-rule:nonzero;fill:rgb(100%,84.3%,0%);fill-opacity:1;" d="M 206.117188 460.695312 C 206.117188 466.453125 197.480469 466.453125 197.480469 460.695312 C 197.480469 454.9375 206.117188 454.9375 206.117188 460.695312 "/>
<path style=" stroke:none;fill-rule:nonzero;fill:rgb(100%,84.3%,0%);fill-opacity:1;" d="M 383.097656 51.304688 C 383.097656 57.0625 374.460938 57.0625 374.460938 51.304688 C 374.460938 45.546875 383.097656 45.546875 383.097656 51.304688 "/>
<path style=" stroke:none;fill-rule:nonzero;fill:rgb(100%,84.3%,0%);fill-opacity:1;" d="M 336.28125 460.695312 C 336.28125 466.453125 327.644531 466.453125 327.644531 460.695312 C 327.644531 454.9375 336.28125 454.9375 336.28125 460.695312 "/>
<path style=" stroke:none;fill-rule:nonzero;fill:rgb(100%,84.3%,0%);fill-opacity:1;" d="M 367.53125 361.914062 C 367.53125 367.675781 358.894531 367.675781 358.894531 361.914062 C 358.894531 356.15625 367.53125 356.15625 367.53125 361.914062 "/>
<path style=" stroke:none;fill-rule:nonzero;fill:rgb(100%,84.3%,0%);fill-opacity:1;" d="M 331.109375 434.976562 C 331.109375 440.734375 322.472656 440.734375 322.472656 434.976562 C 322.472656 429.21875 331.109375 429.21875 331.109375 434.976562 "/>
<path style=" stroke:none;fill-rule:nonzero;fill:rgb(100%,84.3%,0%);fill-opacity:1;" d="M 338.230469 58.664062 C 338.230469 64.421875 329.59375 64.421875 329.59375 58.664062 C 329.59375 52.90625 338.230469 52.90625 338.230469 58.664062 "/>
<path style=" stroke:none;fill-rule:nonzero;fill:rgb(100%,84.3%,0%);fill-opacity:1;" d="M 384.257812 229.496094 C 384.257812 235.257812 375.621094 235.257812 375.621094 229.496094 C 375.621094 223.738281 384.257812 223.738281 384.257812 229.496094 "/>
<path style=" stroke:none;fill-rule:nonzero;fill:rgb(100%,84.3%,0%);fill-opacity:1;" d="M 335.699219 442.605469 C 335.699219 448.363281 327.0625 448.363281 327.0625 442.605469 C 327.0625 436.847656 335.699219 436.847656 335.699219 442.605469 "/>
<path style=" stroke:none;fill-rule:nonzero;fill:rgb(100%,84.3%,0%);fill-opacity:1;" d="M 361.28125 58.890625 C 361.28125 64.648438 352.644531 64.648438 352.644531 58.890625 C 352.644531 53.132812 361.28125 53.132812 361.28125 58.890625 "/>
<path style=" stroke:none;fill-rule:nonzero;fill:rgb(100%,84.3%,0%);fill-opacity:1;" d="M 253.566406 67.078125 C 253.566406 72.835938 244.929688 72.835938 244.929688 67.078125 C 244.929688 61.320312 253.566406 61.320312 253.566406 67.078125 "/>
<path style=" stroke:none;fill-rule:nonzero;fill:rgb(100%,84.3%,0%);fill-opacity:1;" d="M 212.859375 59.203125 C 212.859375 64.964844 204.222656 64.964844 204.222656 59.203125 C 204.222656 53.445312 212.859375 53.445312 212.859375 59.203125 "/>
<path style=" stroke:none;fill-rule:nonzero;fill:rgb(100%,84.3%,0%);fill-opacity:1;" d="M 353.101562 460.375 C 353.101562 466.132812 344.464844 466.132812 344.464844 460.375 C 344.464844 454.617188 353.101562 454.617188 353.101562 460.375 "/>
<path style=" stroke:none;fill-rule:nonzero;fill:rgb(100%,84.3%,0%);fill-opacity:1;" d="M 376.882812 383.429688 C 376.882812 389.1875 368.246094 389.1875 368.246094 383.429688 C 368.246094 377.671875 376.882812 377.671875 376.882812 383.429688 "/>
<path style=" stroke:none;fill-rule:nonzero;fill:rgb(100%,84.3%,0%);fill-opacity:1;" d="M 376.371094 251.460938 C 376.371094 257.21875 367.734375 257.21875 367.734375 251.460938 C 367.734375 245.699219 376.371094 245.699219 376.371094 251.460938 "/>
<path style=" stroke:none;fill-rule:nonzero;fill:rgb(100%,84.3%,0%);fill-opacity:1;" d="M 200.5625 51.304688 C 200.5625 57.0625 191.925781 57.0625 191.925781 51.304688 C 191.925781 45.546875 200.5625 45.546875 200.5625 51.304688 "/>
<path style=" stroke:none;fill-rule:nonzero;fill:rgb(100%,84.3%,0%);fill-opacity:1;" d="M 376.429688 365.8125 C 376.429688 371.570312 367.792969 371.570312 367.792969 365.8125 C 367.792969 360.054688 376.429688 360.054688 376.429688 365.8125 "/>
<path style=" stroke:none;fill-rule:nonzero;fill:rgb(100%,84.3%,0%);fill-opacity:1;" d="M 231.824219 58.730469 C 231.824219 64.488281 223.1875 64.488281 223.1875 58.730469 C 223.1875 52.972656 231.824219 52.972656 231.824219 58.730469 "/>
<path style=" stroke:none;fill-rule:nonzero;fill:rgb(100%,84.3%,0%);fill-opacity:1;" d="M 287.820312 453.140625 C 287.820312 458.898438 279.183594 458.898438 279.183594 453.140625 C 279.183594 447.382812 287.820312 447.382812 287.820312 453.140625 "/>
<path style=" stroke:none;fill-rule:nonzero;fill:rgb(100%,84.3%,0%);fill-opacity:1;" d="M 152.910156 460.695312 C 152.910156 466.453125 144.273438 466.453125 144.273438 460.695312 C 144.273438 454.9375 152.910156 454.9375 152.910156 460.695312 "/>
<path style=" stroke:none;fill-rule:nonzero;fill:rgb(100%,84.3%,0%);fill-opacity:1;" d="M 370.371094 460.695312 C 370.371094 466.453125 361.734375 466.453125 361.734375 460.695312 C 361.734375 454.9375 370.371094 454.9375 370.371094 460.695312 "/>
<path style=" stroke:none;fill-rule:nonzero;fill:rgb(100%,84.3%,0%);fill-opacity:1;" d="M 376.214844 357.175781 C 376.214844 362.933594 367.578125 362.933594 367.578125 357.175781 C 367.578125 351.417969 376.214844 351.417969 376.214844 357.175781 "/>
<path style=" stroke:none;fill-rule:nonzero;fill:rgb(100%,84.3%,0%);fill-opacity:1;" d="M 361.902344 445.054688 C 361.902344 450.8125 353.261719 450.8125 353.261719 445.054688 C 353.261719 439.296875 361.902344 439.296875 361.902344 445.054688 "/>
<path style=" stroke:none;fill-rule:nonzero;fill:rgb(100%,84.3%,0%);fill-opacity:1;" d="M 384.25 453.832031 C 384.25 459.589844 375.613281 459.589844 375.613281 453.832031 C 375.613281 448.074219 384.25 448.074219 384.25 453.832031 "/>
<path style=" stroke:none;fill-rule:nonzero;fill:rgb(100%,84.3%,0%);fill-opacity:1;" d="M 357.257812 452.804688 C 357.257812 458.5625 348.621094 458.5625 348.621094 452.804688 C 348.621094 447.046875 357.257812 447.046875 357.257812 452.804688 "/>
<path style=" stroke:none;fill-rule:nonzero;fill:rgb(100%,84.3%,0%);fill-opacity:1;" d="M 267.21875 58.363281 C 267.21875 64.121094 258.582031 64.121094 258.582031 58.363281 C 258.582031 52.605469 267.21875 52.605469 267.21875 58.363281 "/>
<path style=" stroke:none;fill-rule:nonzero;fill:rgb(100%,84.3%,0%);fill-opacity:1;" d="M 274.636719 460.28125 C 274.636719 466.039062 266 466.039062 266 460.28125 C 266 454.523438 274.636719 454.523438 274.636719 460.28125 "/>
<path style=" stroke:none;fill-rule:nonzero;fill:rgb(100%,84.3%,0%);fill-opacity:1;" d="M 315.484375 51.304688 C 315.484375 57.0625 306.847656 57.0625 306.847656 51.304688 C 306.847656 45.546875 315.484375 45.546875 315.484375 51.304688 "/>
<path style=" stroke:none;fill-rule:nonzero;fill:rgb(100%,84.3%,0%);fill-opacity:1;" d="M 327.367188 460.695312 C 327.367188 466.453125 318.730469 466.453125 318.730469 460.695312 C 318.730469 454.9375 327.367188 454.9375 327.367188 460.695312 "/>
<path style=" stroke:none;fill-rule:nonzero;fill:rgb(100%,84.3%,0%);fill-opacity:1;" d="M 376.742188 260.378906 C 376.742188 266.136719 368.105469 266.136719 368.105469 260.378906 C 368.105469 254.621094 376.742188 254.621094 376.742188 260.378906 "/>
<path style=" stroke:none;fill-rule:nonzero;fill:rgb(100%,84.3%,0%);fill-opacity:1;" d="M 331.871094 453.273438 C 331.871094 459.03125 323.234375 459.03125 323.234375 453.273438 C 323.234375 447.515625 331.871094 447.515625 331.871094 453.273438 "/>
<path style=" stroke:none;fill-rule:nonzero;fill:rgb(100%,84.3%,0%);fill-opacity:1;" d="M 157.929688 453.453125 C 157.929688 459.210938 149.292969 459.210938 149.292969 453.453125 C 149.292969 447.695312 157.929688 447.695312 157.929688 453.453125 "/>
<path style=" stroke:none;fill-rule:nonzero;fill:rgb(100%,84.3%,0%);fill-opacity:1;" d="M 380.191406 73.09375 C 380.191406 78.851562 371.550781 78.851562 371.550781 73.09375 C 371.550781 67.335938 380.191406 67.335938 380.191406 73.09375 "/>
<path style=" stroke:none;fill-rule:nonzero;fill:rgb(100%,84.3%,0%);fill-opacity:1;" d="M 171.660156 445.519531 C 171.660156 451.277344 163.023438 451.277344 163.023438 445.519531 C 163.023438 439.761719 171.660156 439.761719 171.660156 445.519531 "/>
<path style=" stroke:none;fill-rule:nonzero;fill:rgb(100%,84.3%,0%);fill-opacity:1;" d="M 136.378906 60.0625 C 136.378906 65.820312 127.742188 65.820312 127.742188 60.0625 C 127.742188 54.304688 136.378906 54.304688 136.378906 60.0625 "/>
<path style=" stroke:none;fill-rule:nonzero;fill:rgb(100%,84.3%,0%);fill-opacity:1;" d="M 314.480469 438.207031 C 314.480469 443.964844 305.84375 443.964844 305.84375 438.207031 C 305.84375 432.449219 314.480469 432.449219 314.480469 438.207031 "/>
<path style=" stroke:none;fill-rule:nonzero;fill:rgb(100%,84.3%,0%);fill-opacity:1;" d="M 145.152344 456.898438 C 145.152344 462.65625 136.515625 462.65625 136.515625 456.898438 C 136.515625 451.140625 145.152344 451.140625 145.152344 456.898438 "/>
<path style=" stroke:none;fill-rule:nonzero;fill:rgb(100%,84.3%,0%);fill-opacity:1;" d="M 154.453125 442.210938 C 154.453125 447.96875 145.816406 447.96875 145.816406 442.210938 C 145.816406 436.453125 154.453125 436.453125 154.453125 442.210938 "/>
<path style=" stroke:none;fill-rule:nonzero;fill:rgb(100%,84.3%,0%);fill-opacity:1;" d="M 356.683594 51.304688 C 356.683594 57.0625 348.046875 57.0625 348.046875 51.304688 C 348.046875 45.546875 356.683594 45.546875 356.683594 51.304688 "/>
<path style=" stroke:none;fill-rule:nonzero;fill:rgb(100%,84.3%,0%);fill-opacity:1;" d="M 292.347656 445.582031 C 292.347656 451.339844 283.710938 451.339844 283.710938 445.582031 C 283.710938 439.824219 292.347656 439.824219 292.347656 445.582031 "/>
<path style=" stroke:none;fill-rule:nonzero;fill:rgb(100%,84.3%,0%);fill-opacity:1;" d="M 383.878906 435.382812 C 383.878906 441.140625 375.242188 441.140625 375.242188 435.382812 C 375.242188 429.621094 383.878906 429.621094 383.878906 435.382812 "/>
<path style=" stroke:none;fill-rule:nonzero;fill:rgb(100%,84.3%,0%);fill-opacity:1;" d="M 301.027344 445.675781 C 301.027344 451.433594 292.390625 451.433594 292.390625 445.675781 C 292.390625 439.914062 301.027344 439.914062 301.027344 445.675781 "/>
<path style=" stroke:none;fill-rule:nonzero;fill:rgb(100%,84.3%,0%);fill-opacity:1;" d="M 345.078125 457.179688 C 345.078125 462.9375 336.441406 462.9375 336.441406 457.179688 C 336.441406 451.421875 345.078125 451.421875 345.078125 457.179688 "/>
<path style=" stroke:none;fill-rule:nonzero;fill:rgb(100%,84.3%,0%);fill-opacity:1;" d="M 369.054688 256.050781 C 369.054688 261.808594 360.417969 261.808594 360.417969 256.050781 C 360.417969 250.292969 369.054688 250.292969 369.054688 256.050781 "/>
<path style=" stroke:none;fill-rule:nonzero;fill:rgb(100%,84.3%,0%);fill-opacity:1;" d="M 376.785156 233.945312 C 376.785156 239.703125 368.148438 239.703125 368.148438 233.945312 C 368.148438 228.1875 376.785156 228.1875 376.785156 233.945312 "/>
<path style=" stroke:none;fill-rule:nonzero;fill:rgb(100%,84.3%,0%);fill-opacity:1;" d="M 167.390625 453.027344 C 167.390625 458.785156 158.753906 458.785156 158.753906 453.027344 C 158.753906 447.269531 167.390625 447.269531 167.390625 453.027344 "/>
<path style=" stroke:none;fill-rule:nonzero;fill:rgb(100%,84.3%,0%);fill-opacity:1;" d="M 384.257812 273.792969 C 384.257812 279.550781 375.621094 279.550781 375.621094 273.792969 C 375.621094 268.035156 384.257812 268.035156 384.257812 273.792969 "/>
<path style=" stroke:none;fill-rule:nonzero;fill:rgb(100%,84.3%,0%);fill-opacity:1;" d="M 322.792969 453.347656 C 322.792969 459.105469 314.15625 459.105469 314.15625 453.347656 C 314.15625 447.589844 322.792969 447.589844 322.792969 453.347656 "/>
<path style=" stroke:none;fill-rule:nonzero;fill:rgb(100%,84.3%,0%);fill-opacity:1;" d="M 318.253906 460.695312 C 318.253906 466.453125 309.617188 466.453125 309.617188 460.695312 C 309.617188 454.9375 318.253906 454.9375 318.253906 460.695312 "/>
<path style=" stroke:none;fill-rule:nonzero;fill:rgb(100%,84.3%,0%);fill-opacity:1;" d="M 365.40625 51.304688 C 365.40625 57.0625 356.769531 57.0625 356.769531 51.304688 C 356.769531 45.546875 365.40625 45.546875 365.40625 51.304688 "/>
<path style=" stroke:none;fill-rule:nonzero;fill:rgb(100%,84.3%,0%);fill-opacity:1;" d="M 328.941406 58.710938 C 328.941406 64.46875 320.304688 64.46875 320.304688 58.710938 C 320.304688 52.953125 328.941406 52.953125 328.941406 58.710938 "/>
<path style=" stroke:none;fill-rule:nonzero;fill:rgb(100%,84.3%,0%);fill-opacity:1;" d="M 193.394531 452.085938 C 193.394531 457.84375 184.757812 457.84375 184.757812 452.085938 C 184.757812 446.328125 193.394531 446.328125 193.394531 452.085938 "/>
<path style=" stroke:none;fill-rule:nonzero;fill:rgb(100%,84.3%,0%);fill-opacity:1;" d="M 383.375 220.90625 C 383.375 226.664062 374.738281 226.664062 374.738281 220.90625 C 374.738281 215.148438 383.375 215.148438 383.375 220.90625 "/>
<path style=" stroke:none;fill-rule:nonzero;fill:rgb(100%,84.3%,0%);fill-opacity:1;" d="M 176.046875 453.144531 C 176.046875 458.902344 167.410156 458.902344 167.410156 453.144531 C 167.410156 447.386719 176.046875 447.386719 176.046875 453.144531 "/>
<path style=" stroke:none;fill-rule:nonzero;fill:rgb(100%,84.3%,0%);fill-opacity:1;" d="M 345.027344 441.988281 C 345.027344 447.746094 336.390625 447.746094 336.390625 441.988281 C 336.390625 436.230469 345.027344 436.230469 345.027344 441.988281 "/>
<path style=" stroke:none;fill-rule:nonzero;fill:rgb(100%,84.3%,0%);fill-opacity:1;" d="M 370.632812 74.058594 C 370.632812 79.816406 361.996094 79.816406 361.996094 74.058594 C 361.996094 68.300781 370.632812 68.300781 370.632812 74.058594 "/>
<path style=" stroke:none;fill-rule:nonzero;fill:rgb(100%,84.3%,0%);fill-opacity:1;" d="M 240.847656 58.898438 C 240.847656 64.65625 232.210938 64.65625 232.210938 58.898438 C 232.210938 53.140625 240.847656 53.140625 240.847656 58.898438 "/>
<path style=" stroke:none;fill-rule:nonzero;fill:rgb(100%,84.3%,0%);fill-opacity:1;" d="M 249.664062 59.011719 C 249.664062 64.769531 241.027344 64.769531 241.027344 59.011719 C 241.027344 53.253906 249.664062 53.253906 249.664062 59.011719 "/>
<path style=" stroke:none;fill-rule:nonzero;fill:rgb(100%,84.3%,0%);fill-opacity:1;" d="M 318.628906 445.78125 C 318.628906 451.539062 309.992188 451.539062 309.992188 445.78125 C 309.992188 440.023438 318.628906 440.023438 318.628906 445.78125 "/>
<path style=" stroke:none;fill-rule:nonzero;fill:rgb(100%,84.3%,0%);fill-opacity:1;" d="M 365.957031 453.074219 C 365.957031 458.835938 357.320312 458.835938 357.320312 453.074219 C 357.320312 447.316406 365.957031 447.316406 365.957031 453.074219 "/>
<path style=" stroke:none;fill-rule:nonzero;fill:rgb(100%,84.3%,0%);fill-opacity:1;" d="M 376.6875 374.445312 C 376.6875 380.203125 368.050781 380.203125 368.050781 374.445312 C 368.050781 368.6875 376.6875 368.6875 376.6875 374.445312 "/>
<path style=" stroke:none;fill-rule:nonzero;fill:rgb(100%,84.3%,0%);fill-opacity:1;" d="M 383.921875 361.484375 C 383.921875 367.242188 375.285156 367.242188 375.285156 361.484375 C 375.285156 355.726562 383.921875 355.726562 383.921875 361.484375 "/>
<path style=" stroke:none;fill-rule:nonzero;fill:rgb(100%,84.3%,0%);fill-opacity:1;" d="M 369.183594 388.070312 C 369.183594 393.828125 360.546875 393.828125 360.546875 388.070312 C 360.546875 382.3125 369.183594 382.3125 369.183594 388.070312 "/>
</g>
</svg>
