<?xml version="1.0" encoding="UTF-8"?>
<svg xmlns="http://www.w3.org/2000/svg" xmlns:xlink="http://www.w3.org/1999/xlink" width="512pt" height="512pt" viewBox="0 0 512 512" version="1.1">
<g id="surface401">
<rect x="0" y="0" width="512" height="512" style="fill:rgb(26.7%,26.7%,26.7%);fill-opacity:1;stroke:none;"/>
<path style=" stroke:none;fill-rule:nonzero;fill:rgb(19.2%,38.8%,66.7%);fill-opacity:1;" d="M 42.667969 115.851562 L 469.332031 115.851562 L 469.332031 475.988281 L 42.667969 475.988281 Z M 42.667969 115.851562 "/>
<path style=" stroke:none;fill-rule:nonzero;fill:rgb(100%,100%,100%);fill-opacity:1;" d="M 274.800781 78.96875 C 274.800781 83.789062 267.570312 83.789062 267.570312 78.96875 C 267.570312 74.148438 274.800781 74.148438 274.800781 78.96875 "/>
<path style=" stroke:none;fill-rule:nonzero;fill:rgb(100%,100%,100%);fill-opacity:1;" d="M 92.566406 18.222656 C 92.566406 23.046875 85.332031 23.046875 85.332031 18.222656 C 85.332031 13.402344 92.566406 13.402344 92.566406 18.222656 "/>
<path style=" stroke:none;fill-rule:nonzero;fill:rgb(100%,100%,100%);fill-opacity:1;" d="M 79.546875 62.335938 C 79.546875 67.15625 72.316406 67.15625 72.316406 62.335938 C 72.316406 57.515625 79.546875 57.515625 79.546875 62.335938 "/>
<path style=" stroke:none;fill-rule:nonzero;fill:rgb(100%,100%,100%);fill-opacity:1;" d="M 177.175781 491.894531 C 177.175781 496.71875 169.941406 496.71875 169.941406 491.894531 C 169.941406 487.074219 177.175781 487.074219 177.175781 491.894531 "/>
<path style=" stroke:none;fill-rule:nonzero;fill:rgb(100%,100%,100%);fill-opacity:1;" d="M 444.023438 55.828125 C 444.023438 60.648438 436.792969 60.648438 436.792969 55.828125 C 436.792969 51.007812 444.023438 51.007812 444.023438 55.828125 "/>
<path style=" stroke:none;fill-rule:nonzero;fill:rgb(100%,84.3%,0%);fill-opacity:1;" d="M 165.070312 436.261719 C 165.070312 441.085938 157.839844 441.085938 157.839844 436.261719 C 157.839844 431.441406 165.070312 431.441406 165.070312 436.261719 "/>
<path style=" stroke:none;fill-rule:nonzero;fill:rgb(100%,84.3%,0%);fill-opacity:1;" d="M 303.570312 123.082031 C 303.570312 127.902344 296.339844 127.902344 296.339844 123.082031 C 296.339844 118.261719 303.570312 118.261719 303.570312 123.082031 "/>
<path style=" stroke:none;fill-rule:nonzero;fill:rgb(100%,84.3%,0%);fill-opacity:1;" d="M 68.785156 468.480469 C 68.785156 473.300781 61.554688 473.300781 61.554688 468.480469 C 61.554688 463.660156 68.785156 463.660156 68.785156 468.480469 "/>
<path style=" stroke:none;fill-rule:nonzero;fill:rgb(100%,84.3%,0%);fill-opacity:1;" d="M 228.097656 455.074219 C 228.097656 459.894531 220.863281 459.894531 220.863281 455.074219 C 220.863281 450.25 228.097656 450.25 228.097656 455.074219 "/>
<path style=" stroke:none;fill-rule:nonzero;fill:rgb(100%,84.3%,0%);fill-opacity:1;" d="M 100.8125 466.050781 C 100.8125 470.871094 93.578125 470.871094 93.578125 466.050781 C 93.578125 461.226562 100.8125 461.226562 100.8125 466.050781 "/>
<path style=" stroke:none;fill-rule:nonzero;fill:rgb(100%,84.3%,0%);fill-opacity:1;" d="M 81.898438 161.164062 C 81.898438 165.988281 74.667969 165.988281 74.667969 161.164062 C 74.667969 156.34375 81.898438 156.34375 81.898438 161.164062 "/>
<path style=" stroke:none;fill-rule:nonzero;fill:rgb(100%,84.3%,0%);fill-opacity:1;" d="M 153.203125 442.175781 C 153.203125 446.996094 145.972656 446.996094 145.972656 442.175781 C 145.972656 437.351562 153.203125 437.351562 153.203125 442.175781 "/>
<path style=" stroke:none;fill-rule:nonzero;fill:rgb(100%,84.3%,0%);fill-opacity:1;" d="M 157.75 123.761719 C 157.75 128.582031 150.519531 128.582031 150.519531 123.761719 C 150.519531 118.9375 157.75 118.9375 157.75 123.761719 "/>
<path style=" stroke:none;fill-rule:nonzero;fill:rgb(100%,84.3%,0%);fill-opacity:1;" d="M 454.597656 123.082031 C 454.597656 127.902344 447.363281 127.902344 447.363281 123.082031 C 447.363281 118.261719 454.597656 118.261719 454.597656 123.082031 "/>
<path style=" stroke:none;fill-rule:nonzero;fill:rgb(100%,84.3%,0%);fill-opacity:1;" d="M 406.800781 123.082031 C 406.800781 127.902344 399.566406 127.902344 399.566406 123.082031 C 399.566406 118.261719 406.800781 118.261719 406.800781 123.082031 "/>
<path style=" stroke:none;fill-rule:nonzero;fill:rgb(100%,84.3%,0%);fill-opacity:1;" d="M 57.550781 147.082031 C 57.550781 151.902344 50.320312 151.902344 50.320312 147.082031 C 50.320312 142.261719 57.550781 142.261719 57.550781 147.082031 "/>
<path style=" stroke:none;fill-rule:nonzero;fill:rgb(100%,84.3%,0%);fill-opacity:1;" d="M 463.972656 136.195312 C 463.972656 141.015625 456.738281 141.015625 456.738281 136.195312 C 456.738281 131.375 463.972656 131.375 463.972656 136.195312 "/>
<path style=" stroke:none;fill-rule:nonzero;fill:rgb(100%,84.3%,0%);fill-opacity:1;" d="M 53.515625 153.089844 C 53.515625 157.910156 46.28125 157.910156 46.28125 153.089844 C 46.28125 148.265625 53.515625 148.265625 53.515625 153.089844 "/>
<path style=" stroke:none;fill-rule:nonzero;fill:rgb(100%,84.3%,0%);fill-opacity:1;" d="M 289.53125 137.058594 C 289.53125 141.878906 282.300781 141.878906 282.300781 137.058594 C 282.300781 132.238281 289.53125 132.238281 289.53125 137.058594 "/>
<path style=" stroke:none;fill-rule:nonzero;fill:rgb(100%,84.3%,0%);fill-opacity:1;" d="M 453.71875 136.332031 C 453.71875 141.152344 446.488281 141.152344 446.488281 136.332031 C 446.488281 131.511719 453.71875 131.511719 453.71875 136.332031 "/>
<path style=" stroke:none;fill-rule:nonzero;fill:rgb(100%,84.3%,0%);fill-opacity:1;" d="M 399.414062 468.753906 C 399.414062 473.574219 392.183594 473.574219 392.183594 468.753906 C 392.183594 463.933594 399.414062 463.933594 399.414062 468.753906 "/>
<path style=" stroke:none;fill-rule:nonzero;fill:rgb(100%,84.3%,0%);fill-opacity:1;" d="M 53.515625 207.601562 C 53.515625 212.421875 46.28125 212.421875 46.28125 207.601562 C 46.28125 202.777344 53.515625 202.777344 53.515625 207.601562 "/>
<path style=" stroke:none;fill-rule:nonzero;fill:rgb(100%,84.3%,0%);fill-opacity:1;" d="M 421.328125 468.753906 C 421.328125 473.574219 414.097656 473.574219 414.097656 468.753906 C 414.097656 463.933594 421.328125 463.933594 421.328125 468.753906 "/>
<path style=" stroke:none;fill-rule:nonzero;fill:rgb(100%,84.3%,0%);fill-opacity:1;" d="M 236.195312 123.082031 C 236.195312 127.902344 228.964844 127.902344 228.964844 123.082031 C 228.964844 118.261719 236.195312 118.261719 236.195312 123.082031 "/>
<path style=" stroke:none;fill-rule:nonzero;fill:rgb(100%,84.3%,0%);fill-opacity:1;" d="M 418.78125 129.339844 C 418.78125 134.160156 411.550781 134.160156 411.550781 129.339844 C 411.550781 124.519531 418.78125 124.519531 418.78125 129.339844 "/>
<path style=" stroke:none;fill-rule:nonzero;fill:rgb(100%,84.3%,0%);fill-opacity:1;" d="M 236.160156 468.554688 C 236.160156 473.375 228.929688 473.375 228.929688 468.554688 C 228.929688 463.734375 236.160156 463.734375 236.160156 468.554688 "/>
<path style=" stroke:none;fill-rule:nonzero;fill:rgb(100%,84.3%,0%);fill-opacity:1;" d="M 88.292969 142.152344 C 88.292969 146.972656 81.0625 146.972656 81.0625 142.152344 C 81.0625 137.332031 88.292969 137.332031 88.292969 142.152344 "/>
<path style=" stroke:none;fill-rule:nonzero;fill:rgb(100%,84.3%,0%);fill-opacity:1;" d="M 160.746094 442.492188 C 160.746094 447.3125 153.515625 447.3125 153.515625 442.492188 C 153.515625 437.671875 160.746094 437.671875 160.746094 442.492188 "/>
<path style=" stroke:none;fill-rule:nonzero;fill:rgb(100%,84.3%,0%);fill-opacity:1;" d="M 147.703125 454.949219 C 147.703125 459.769531 140.472656 459.769531 140.472656 454.949219 C 140.472656 450.128906 147.703125 450.128906 147.703125 454.949219 "/>
<path style=" stroke:none;fill-rule:nonzero;fill:rgb(100%,84.3%,0%);fill-opacity:1;" d="M 129.695312 136.167969 C 129.695312 140.988281 122.464844 140.988281 122.464844 136.167969 C 122.464844 131.347656 129.695312 131.347656 129.695312 136.167969 "/>
<path style=" stroke:none;fill-rule:nonzero;fill:rgb(100%,84.3%,0%);fill-opacity:1;" d="M 169.402344 455.808594 C 169.402344 460.628906 162.171875 460.628906 162.171875 455.808594 C 162.171875 450.988281 169.402344 450.988281 169.402344 455.808594 "/>
<path style=" stroke:none;fill-rule:nonzero;fill:rgb(100%,84.3%,0%);fill-opacity:1;" d="M 209.550781 447.949219 C 209.550781 452.769531 202.320312 452.769531 202.320312 447.949219 C 202.320312 443.128906 209.550781 443.128906 209.550781 447.949219 "/>
<path style=" stroke:none;fill-rule:nonzero;fill:rgb(100%,84.3%,0%);fill-opacity:1;" d="M 140.816406 468.328125 C 140.816406 473.148438 133.585938 473.148438 133.585938 468.328125 C 133.585938 463.507812 140.816406 463.507812 140.816406 468.328125 "/>
<path style=" stroke:none;fill-rule:nonzero;fill:rgb(100%,84.3%,0%);fill-opacity:1;" d="M 439.847656 468.753906 C 439.847656 473.574219 432.617188 473.574219 432.617188 468.753906 C 432.617188 463.933594 439.847656 463.933594 439.847656 468.753906 "/>
<path style=" stroke:none;fill-rule:nonzero;fill:rgb(100%,84.3%,0%);fill-opacity:1;" d="M 461.828125 123.082031 C 461.828125 127.902344 454.59375 127.902344 454.59375 123.082031 C 454.59375 118.261719 461.828125 118.261719 461.828125 123.082031 "/>
<path style=" stroke:none;fill-rule:nonzero;fill:rgb(100%,84.3%,0%);fill-opacity:1;" d="M 80.671875 129.402344 C 80.671875 134.226562 73.4375 134.226562 73.4375 129.402344 C 73.4375 124.582031 80.671875 124.582031 80.671875 129.402344 "/>
<path style=" stroke:none;fill-rule:nonzero;fill:rgb(100%,84.3%,0%);fill-opacity:1;" d="M 179.960938 449.632812 C 179.960938 454.457031 172.730469 454.457031 172.730469 449.632812 C 172.730469 444.8125 179.960938 444.8125 179.960938 449.632812 "/>
<path style=" stroke:none;fill-rule:nonzero;fill:rgb(100%,84.3%,0%);fill-opacity:1;" d="M 228.933594 468.753906 C 228.933594 473.574219 221.699219 473.574219 221.699219 468.753906 C 221.699219 463.933594 228.933594 463.933594 228.933594 468.753906 "/>
<path style=" stroke:none;fill-rule:nonzero;fill:rgb(100%,84.3%,0%);fill-opacity:1;" d="M 442.765625 128.664062 C 442.765625 133.484375 435.53125 133.484375 435.53125 128.664062 C 435.53125 123.84375 442.765625 123.84375 442.765625 128.664062 "/>
<path style=" stroke:none;fill-rule:nonzero;fill:rgb(100%,84.3%,0%);fill-opacity:1;" d="M 308.03125 129.761719 C 308.03125 134.582031 300.800781 134.582031 300.800781 129.761719 C 300.800781 124.941406 308.03125 124.941406 308.03125 129.761719 "/>
<path style=" stroke:none;fill-rule:nonzero;fill:rgb(100%,84.3%,0%);fill-opacity:1;" d="M 133.605469 447.984375 C 133.605469 452.808594 126.375 452.808594 126.375 447.984375 C 126.375 443.164062 133.605469 443.164062 133.605469 447.984375 "/>
<path style=" stroke:none;fill-rule:nonzero;fill:rgb(100%,84.3%,0%);fill-opacity:1;" d="M 453.882812 462.613281 C 453.882812 467.4375 446.652344 467.4375 446.652344 462.613281 C 446.652344 457.792969 453.882812 457.792969 453.882812 462.613281 "/>
<path style=" stroke:none;fill-rule:nonzero;fill:rgb(100%,84.3%,0%);fill-opacity:1;" d="M 259.082031 123.082031 C 259.082031 127.902344 251.851562 127.902344 251.851562 123.082031 C 251.851562 118.261719 259.082031 118.261719 259.082031 123.082031 "/>
<path style=" stroke:none;fill-rule:nonzero;fill:rgb(100%,84.3%,0%);fill-opacity:1;" d="M 126.074219 468.753906 C 126.074219 473.574219 118.839844 473.574219 118.839844 468.753906 C 118.839844 463.933594 126.074219 463.933594 126.074219 468.753906 "/>
<path style=" stroke:none;fill-rule:nonzero;fill:rgb(100%,84.3%,0%);fill-opacity:1;" d="M 180.789062 462.398438 C 180.789062 467.21875 173.558594 467.21875 173.558594 462.398438 C 173.558594 457.574219 180.789062 457.574219 180.789062 462.398438 "/>
<path style=" stroke:none;fill-rule:nonzero;fill:rgb(100%,84.3%,0%);fill-opacity:1;" d="M 169.734375 468.753906 C 169.734375 473.574219 162.5 473.574219 162.5 468.753906 C 162.5 463.933594 169.734375 463.933594 169.734375 468.753906 "/>
<path style=" stroke:none;fill-rule:nonzero;fill:rgb(100%,84.3%,0%);fill-opacity:1;" d="M 55.046875 461.535156 C 55.046875 466.359375 47.8125 466.359375 47.8125 461.535156 C 47.8125 456.714844 55.046875 456.714844 55.046875 461.535156 "/>
<path style=" stroke:none;fill-rule:nonzero;fill:rgb(100%,84.3%,0%);fill-opacity:1;" d="M 184.574219 468.714844 C 184.574219 473.535156 177.34375 473.535156 177.34375 468.714844 C 177.34375 463.894531 184.574219 463.894531 184.574219 468.714844 "/>
<path style=" stroke:none;fill-rule:nonzero;fill:rgb(100%,84.3%,0%);fill-opacity:1;" d="M 114.824219 136.097656 C 114.824219 140.917969 107.59375 140.917969 107.59375 136.097656 C 107.59375 131.273438 114.824219 131.273438 114.824219 136.097656 "/>
<path style=" stroke:none;fill-rule:nonzero;fill:rgb(100%,84.3%,0%);fill-opacity:1;" d="M 422.453125 135.625 C 422.453125 140.445312 415.222656 140.445312 415.222656 135.625 C 415.222656 130.804688 422.453125 130.804688 422.453125 135.625 "/>
<path style=" stroke:none;fill-rule:nonzero;fill:rgb(100%,84.3%,0%);fill-opacity:1;" d="M 167.96875 442.890625 C 167.96875 447.710938 160.738281 447.710938 160.738281 442.890625 C 160.738281 438.066406 167.96875 438.066406 167.96875 442.890625 "/>
<path style=" stroke:none;fill-rule:nonzero;fill:rgb(100%,84.3%,0%);fill-opacity:1;" d="M 60.433594 180.007812 C 60.433594 184.828125 53.203125 184.828125 53.203125 180.007812 C 53.203125 175.1875 60.433594 175.1875 60.433594 180.007812 "/>
<path style=" stroke:none;fill-rule:nonzero;fill:rgb(100%,84.3%,0%);fill-opacity:1;" d="M 175.921875 430.800781 C 175.921875 435.625 168.691406 435.625 168.691406 430.800781 C 168.691406 425.980469 175.921875 425.980469 175.921875 430.800781 "/>
<path style=" stroke:none;fill-rule:nonzero;fill:rgb(100%,84.3%,0%);fill-opacity:1;" d="M 333.667969 123.082031 C 333.667969 127.902344 326.433594 127.902344 326.433594 123.082031 C 326.433594 118.261719 333.667969 118.261719 333.667969 123.082031 "/>
<path style=" stroke:none;fill-rule:nonzero;fill:rgb(100%,84.3%,0%);fill-opacity:1;" d="M 195.40625 437.0625 C 195.40625 441.882812 188.175781 441.882812 188.175781 437.0625 C 188.175781 432.242188 195.40625 432.242188 195.40625 437.0625 "/>
<path style=" stroke:none;fill-rule:nonzero;fill:rgb(100%,84.3%,0%);fill-opacity:1;" d="M 86.097656 155.277344 C 86.097656 160.097656 78.863281 160.097656 78.863281 155.277344 C 78.863281 150.453125 86.097656 150.453125 86.097656 155.277344 "/>
<path style=" stroke:none;fill-rule:nonzero;fill:rgb(100%,84.3%,0%);fill-opacity:1;" d="M 99.203125 149.652344 C 99.203125 154.476562 91.972656 154.476562 91.972656 149.652344 C 91.972656 144.832031 99.203125 144.832031 99.203125 149.652344 "/>
<path style=" stroke:none;fill-rule:nonzero;fill:rgb(100%,84.3%,0%);fill-opacity:1;" d="M 267.296875 123.082031 C 267.296875 127.902344 260.066406 127.902344 260.066406 123.082031 C 260.066406 118.261719 267.296875 118.261719 267.296875 123.082031 "/>
<path style=" stroke:none;fill-rule:nonzero;fill:rgb(100%,84.3%,0%);fill-opacity:1;" d="M 98.855469 123.105469 C 98.855469 127.925781 91.625 127.925781 91.625 123.105469 C 91.625 118.285156 98.855469 118.285156 98.855469 123.105469 "/>
<path style=" stroke:none;fill-rule:nonzero;fill:rgb(100%,84.3%,0%);fill-opacity:1;" d="M 271.113281 129.449219 C 271.113281 134.269531 263.882812 134.269531 263.882812 129.449219 C 263.882812 124.628906 271.113281 124.628906 271.113281 129.449219 "/>
<path style=" stroke:none;fill-rule:nonzero;fill:rgb(100%,84.3%,0%);fill-opacity:1;" d="M 300.738281 130.011719 C 300.738281 134.832031 293.507812 134.832031 293.507812 130.011719 C 293.507812 125.191406 300.738281 125.191406 300.738281 130.011719 "/>
<path style=" stroke:none;fill-rule:nonzero;fill:rgb(100%,84.3%,0%);fill-opacity:1;" d="M 61.140625 436.871094 C 61.140625 441.695312 53.910156 441.695312 53.910156 436.871094 C 53.910156 432.050781 61.140625 432.050781 61.140625 436.871094 "/>
<path style=" stroke:none;fill-rule:nonzero;fill:rgb(100%,84.3%,0%);fill-opacity:1;" d="M 55.238281 123.082031 C 55.238281 127.902344 48.007812 127.902344 48.007812 123.082031 C 48.007812 118.261719 55.238281 118.261719 55.238281 123.082031 "/>
<path style=" stroke:none;fill-rule:nonzero;fill:rgb(100%,84.3%,0%);fill-opacity:1;" d="M 384.648438 468.753906 C 384.648438 473.574219 377.417969 473.574219 377.417969 468.753906 C 377.417969 463.933594 384.648438 463.933594 384.648438 468.753906 "/>
<path style=" stroke:none;fill-rule:nonzero;fill:rgb(100%,84.3%,0%);fill-opacity:1;" d="M 150.167969 434.769531 C 150.167969 439.589844 142.9375 439.589844 142.9375 434.769531 C 142.9375 429.949219 150.167969 429.949219 150.167969 434.769531 "/>
<path style=" stroke:none;fill-rule:nonzero;fill:rgb(100%,84.3%,0%);fill-opacity:1;" d="M 239.886719 129.300781 C 239.886719 134.125 232.652344 134.125 232.652344 129.300781 C 232.652344 124.480469 239.886719 124.480469 239.886719 129.300781 "/>
<path style=" stroke:none;fill-rule:nonzero;fill:rgb(100%,84.3%,0%);fill-opacity:1;" d="M 418.402344 462.144531 C 418.402344 466.964844 411.171875 466.964844 411.171875 462.144531 C 411.171875 457.320312 418.402344 457.320312 418.402344 462.144531 "/>
<path style=" stroke:none;fill-rule:nonzero;fill:rgb(100%,84.3%,0%);fill-opacity:1;" d="M 450.367188 142.738281 C 450.367188 147.5625 443.136719 147.5625 443.136719 142.738281 C 443.136719 137.917969 450.367188 137.917969 450.367188 142.738281 "/>
<path style=" stroke:none;fill-rule:nonzero;fill:rgb(100%,84.3%,0%);fill-opacity:1;" d="M 53.515625 439.785156 C 53.515625 444.605469 46.28125 444.605469 46.28125 439.785156 C 46.28125 434.964844 53.515625 434.964844 53.515625 439.785156 "/>
<path style=" stroke:none;fill-rule:nonzero;fill:rgb(100%,84.3%,0%);fill-opacity:1;" d="M 311.914062 135.863281 C 311.914062 140.683594 304.683594 140.683594 304.683594 135.863281 C 304.683594 131.042969 311.914062 131.042969 311.914062 135.863281 "/>
<path style=" stroke:none;fill-rule:nonzero;fill:rgb(100%,84.3%,0%);fill-opacity:1;" d="M 461.519531 462.609375 C 461.519531 467.429688 454.289062 467.429688 454.289062 462.609375 C 454.289062 457.789062 461.519531 457.789062 461.519531 462.609375 "/>
<path style=" stroke:none;fill-rule:nonzero;fill:rgb(100%,84.3%,0%);fill-opacity:1;" d="M 150.558594 461.59375 C 150.558594 466.414062 143.328125 466.414062 143.328125 461.59375 C 143.328125 456.773438 150.558594 456.773438 150.558594 461.59375 "/>
<path style=" stroke:none;fill-rule:nonzero;fill:rgb(100%,84.3%,0%);fill-opacity:1;" d="M 202.515625 449.625 C 202.515625 454.445312 195.285156 454.445312 195.285156 449.625 C 195.285156 444.804688 202.515625 444.804688 202.515625 449.625 "/>
<path style=" stroke:none;fill-rule:nonzero;fill:rgb(100%,84.3%,0%);fill-opacity:1;" d="M 53.515625 132.859375 C 53.515625 137.679688 46.28125 137.679688 46.28125 132.859375 C 46.28125 128.035156 53.515625 128.035156 53.515625 132.859375 "/>
<path style=" stroke:none;fill-rule:nonzero;fill:rgb(100%,84.3%,0%);fill-opacity:1;" d="M 399.398438 123.082031 C 399.398438 127.902344 392.167969 127.902344 392.167969 123.082031 C 392.167969 118.261719 399.398438 118.261719 399.398438 123.082031 "/>
<path style=" stroke:none;fill-rule:nonzero;fill:rgb(100%,84.3%,0%);fill-opacity:1;" d="M 232.492188 129.292969 C 232.492188 134.113281 225.261719 134.113281 225.261719 129.292969 C 225.261719 124.472656 232.492188 124.472656 232.492188 129.292969 "/>
<path style=" stroke:none;fill-rule:nonzero;fill:rgb(100%,84.3%,0%);fill-opacity:1;" d="M 308.621094 142.300781 C 308.621094 147.121094 301.390625 147.121094 301.390625 142.300781 C 301.390625 137.480469 308.621094 137.480469 308.621094 142.300781 "/>
<path style=" stroke:none;fill-rule:nonzero;fill:rgb(100%,84.3%,0%);fill-opacity:1;" d="M 76.09375 468.753906 C 76.09375 473.574219 68.863281 473.574219 68.863281 468.753906 C 68.863281 463.933594 76.09375 463.933594 76.09375 468.753906 "/>
<path style=" stroke:none;fill-rule:nonzero;fill:rgb(100%,84.3%,0%);fill-opacity:1;" d="M 330.347656 129.507812 C 330.347656 134.328125 323.113281 134.328125 323.113281 129.507812 C 323.113281 124.683594 330.347656 124.683594 330.347656 129.507812 "/>
<path style=" stroke:none;fill-rule:nonzero;fill:rgb(100%,84.3%,0%);fill-opacity:1;" d="M 274.542969 123.082031 C 274.542969 127.902344 267.3125 127.902344 267.3125 123.082031 C 267.3125 118.261719 274.542969 118.261719 274.542969 123.082031 "/>
<path style=" stroke:none;fill-rule:nonzero;fill:rgb(100%,84.3%,0%);fill-opacity:1;" d="M 143.199219 461.5 C 143.199219 466.320312 135.96875 466.320312 135.96875 461.5 C 135.96875 456.679688 143.199219 456.679688 143.199219 461.5 "/>
<path style=" stroke:none;fill-rule:nonzero;fill:rgb(100%,84.3%,0%);fill-opacity:1;" d="M 117.808594 129.335938 C 117.808594 134.15625 110.578125 134.15625 110.578125 129.335938 C 110.578125 124.515625 117.808594 124.515625 117.808594 129.335938 "/>
<path style=" stroke:none;fill-rule:nonzero;fill:rgb(100%,84.3%,0%);fill-opacity:1;" d="M 78.101562 154.925781 C 78.101562 159.746094 70.871094 159.746094 70.871094 154.925781 C 70.871094 150.101562 78.101562 150.101562 78.101562 154.925781 "/>
<path style=" stroke:none;fill-rule:nonzero;fill:rgb(100%,84.3%,0%);fill-opacity:1;" d="M 202.988281 462.34375 C 202.988281 467.167969 195.757812 467.167969 195.757812 462.34375 C 195.757812 457.523438 202.988281 457.523438 202.988281 462.34375 "/>
<path style=" stroke:none;fill-rule:nonzero;fill:rgb(100%,84.3%,0%);fill-opacity:1;" d="M 465.71875 468.753906 C 465.71875 473.574219 458.484375 473.574219 458.484375 468.753906 C 458.484375 463.933594 465.71875 463.933594 465.71875 468.753906 "/>
<path style=" stroke:none;fill-rule:nonzero;fill:rgb(100%,84.3%,0%);fill-opacity:1;" d="M 76.933594 123.082031 C 76.933594 127.902344 69.703125 127.902344 69.703125 123.082031 C 69.703125 118.261719 76.933594 118.261719 76.933594 123.082031 "/>
<path style=" stroke:none;fill-rule:nonzero;fill:rgb(100%,84.3%,0%);fill-opacity:1;" d="M 139.976562 129.5 C 139.976562 134.320312 132.742188 134.320312 132.742188 129.5 C 132.742188 124.679688 139.976562 124.679688 139.976562 129.5 "/>
<path style=" stroke:none;fill-rule:nonzero;fill:rgb(100%,84.3%,0%);fill-opacity:1;" d="M 429.65625 123.082031 C 429.65625 127.902344 422.425781 127.902344 422.425781 123.082031 C 422.425781 118.261719 429.65625 118.261719 429.65625 123.082031 "/>
<path style=" stroke:none;fill-rule:nonzero;fill:rgb(100%,84.3%,0%);fill-opacity:1;" d="M 118.574219 143.019531 C 118.574219 147.84375 111.339844 147.84375 111.339844 143.019531 C 111.339844 138.199219 118.574219 138.199219 118.574219 143.019531 "/>
<path style=" stroke:none;fill-rule:nonzero;fill:rgb(100%,84.3%,0%);fill-opacity:1;" d="M 281.777344 123.082031 C 281.777344 127.902344 274.542969 127.902344 274.542969 123.082031 C 274.542969 118.261719 281.777344 118.261719 281.777344 123.082031 "/>
<path style=" stroke:none;fill-rule:nonzero;fill:rgb(100%,84.3%,0%);fill-opacity:1;" d="M 103.398438 130.199219 C 103.398438 135.023438 96.164062 135.023438 96.164062 130.199219 C 96.164062 125.378906 103.398438 125.378906 103.398438 130.199219 "/>
<path style=" stroke:none;fill-rule:nonzero;fill:rgb(100%,84.3%,0%);fill-opacity:1;" d="M 110.628906 130.207031 C 110.628906 135.027344 103.398438 135.027344 103.398438 130.207031 C 103.398438 125.386719 110.628906 125.386719 110.628906 130.207031 "/>
<path style=" stroke:none;fill-rule:nonzero;fill:rgb(100%,84.3%,0%);fill-opacity:1;" d="M 115.324219 467.601562 C 115.324219 472.421875 108.09375 472.421875 108.09375 467.601562 C 108.09375 462.777344 115.324219 462.777344 115.324219 467.601562 "/>
<path style=" stroke:none;fill-rule:nonzero;fill:rgb(100%,84.3%,0%);fill-opacity:1;" d="M 173.40625 462.527344 C 173.40625 467.347656 166.175781 467.347656 166.175781 462.527344 C 166.175781 457.703125 173.40625 457.703125 173.40625 462.527344 "/>
<path style=" stroke:none;fill-rule:nonzero;fill:rgb(100%,84.3%,0%);fill-opacity:1;" d="M 262.859375 141.386719 C 262.859375 146.207031 255.628906 146.207031 255.628906 141.386719 C 255.628906 136.566406 262.859375 136.566406 262.859375 141.386719 "/>
<path style=" stroke:none;fill-rule:nonzero;fill:rgb(100%,84.3%,0%);fill-opacity:1;" d="M 53.515625 430.800781 C 53.515625 435.621094 46.28125 435.621094 46.28125 430.800781 C 46.28125 425.976562 53.515625 425.976562 53.515625 430.800781 "/>
<path style=" stroke:none;fill-rule:nonzero;fill:rgb(100%,84.3%,0%);fill-opacity:1;" d="M 442.976562 141.257812 C 442.976562 146.078125 435.746094 146.078125 435.746094 141.257812 C 435.746094 136.433594 442.976562 136.433594 442.976562 141.257812 "/>
<path style=" stroke:none;fill-rule:nonzero;fill:rgb(100%,84.3%,0%);fill-opacity:1;" d="M 447.363281 123.082031 C 447.363281 127.902344 440.132812 127.902344 440.132812 123.082031 C 440.132812 118.261719 447.363281 118.261719 447.363281 123.082031 "/>
<path style=" stroke:none;fill-rule:nonzero;fill:rgb(100%,84.3%,0%);fill-opacity:1;" d="M 54.605469 468.753906 C 54.605469 473.574219 47.375 473.574219 47.375 468.753906 C 47.375 463.933594 54.605469 463.933594 54.605469 468.753906 "/>
<path style=" stroke:none;fill-rule:nonzero;fill:rgb(100%,84.3%,0%);fill-opacity:1;" d="M 148.046875 468.375 C 148.046875 473.195312 140.816406 473.195312 140.816406 468.375 C 140.816406 463.554688 148.046875 463.554688 148.046875 468.375 "/>
<path style=" stroke:none;fill-rule:nonzero;fill:rgb(100%,84.3%,0%);fill-opacity:1;" d="M 391.925781 123.082031 C 391.925781 127.902344 384.695312 127.902344 384.695312 123.082031 C 384.695312 118.261719 391.925781 118.261719 391.925781 123.082031 "/>
<path style=" stroke:none;fill-rule:nonzero;fill:rgb(100%,84.3%,0%);fill-opacity:1;" d="M 434.398438 129.277344 C 434.398438 134.101562 427.164062 134.101562 427.164062 129.277344 C 427.164062 124.457031 434.398438 124.457031 434.398438 129.277344 "/>
<path style=" stroke:none;fill-rule:nonzero;fill:rgb(100%,84.3%,0%);fill-opacity:1;" d="M 448.640625 468.753906 C 448.640625 473.574219 441.40625 473.574219 441.40625 468.753906 C 441.40625 463.933594 448.640625 463.933594 448.640625 468.753906 "/>
<path style=" stroke:none;fill-rule:nonzero;fill:rgb(100%,84.3%,0%);fill-opacity:1;" d="M 267.046875 135.429688 C 267.046875 140.25 259.816406 140.25 259.816406 135.429688 C 259.816406 130.605469 267.046875 130.605469 267.046875 135.429688 "/>
<path style=" stroke:none;fill-rule:nonzero;fill:rgb(100%,84.3%,0%);fill-opacity:1;" d="M 111.363281 142.445312 C 111.363281 147.265625 104.132812 147.265625 104.132812 142.445312 C 104.132812 137.625 111.363281 137.625 111.363281 142.445312 "/>
<path style=" stroke:none;fill-rule:nonzero;fill:rgb(100%,84.3%,0%);fill-opacity:1;" d="M 94.105469 468.753906 C 94.105469 473.574219 86.871094 473.574219 86.871094 468.753906 C 86.871094 463.933594 94.105469 463.933594 94.105469 468.753906 "/>
<path style=" stroke:none;fill-rule:nonzero;fill:rgb(100%,84.3%,0%);fill-opacity:1;" d="M 69.703125 123.082031 C 69.703125 127.902344 62.472656 127.902344 62.472656 123.082031 C 62.472656 118.261719 69.703125 118.261719 69.703125 123.082031 "/>
<path style=" stroke:none;fill-rule:nonzero;fill:rgb(100%,84.3%,0%);fill-opacity:1;" d="M 391.949219 468.753906 C 391.949219 473.574219 384.71875 473.574219 384.71875 468.753906 C 384.71875 463.933594 391.949219 463.933594 391.949219 468.753906 "/>
<path style=" stroke:none;fill-rule:nonzero;fill:rgb(100%,84.3%,0%);fill-opacity:1;" d="M 184.089844 455.964844 C 184.089844 460.785156 176.859375 460.785156 176.859375 455.964844 C 176.859375 451.140625 184.089844 451.140625 184.089844 455.964844 "/>
<path style=" stroke:none;fill-rule:nonzero;fill:rgb(100%,84.3%,0%);fill-opacity:1;" d="M 250.792969 135.675781 C 250.792969 140.496094 243.5625 140.496094 243.5625 135.675781 C 243.5625 130.855469 250.792969 130.855469 250.792969 135.675781 "/>
<path style=" stroke:none;fill-rule:nonzero;fill:rgb(100%,84.3%,0%);fill-opacity:1;" d="M 188.34375 462.542969 C 188.34375 467.363281 181.109375 467.363281 181.109375 462.542969 C 181.109375 457.722656 188.34375 457.722656 188.34375 462.542969 "/>
<path style=" stroke:none;fill-rule:nonzero;fill:rgb(100%,84.3%,0%);fill-opacity:1;" d="M 413.90625 468.753906 C 413.90625 473.574219 406.675781 473.574219 406.675781 468.753906 C 406.675781 463.933594 413.90625 463.933594 413.90625 468.753906 "/>
<path style=" stroke:none;fill-rule:nonzero;fill:rgb(100%,84.3%,0%);fill-opacity:1;" d="M 53.515625 177.90625 C 53.515625 182.726562 46.28125 182.726562 46.28125 177.90625 C 46.28125 173.082031 53.515625 173.082031 53.515625 177.90625 "/>
<path style=" stroke:none;fill-rule:nonzero;fill:rgb(100%,84.3%,0%);fill-opacity:1;" d="M 426.855469 463.855469 C 426.855469 468.675781 419.625 468.675781 419.625 463.855469 C 419.625 459.035156 426.855469 459.035156 426.855469 463.855469 "/>
<path style=" stroke:none;fill-rule:nonzero;fill:rgb(100%,84.3%,0%);fill-opacity:1;" d="M 141.316406 447.640625 C 141.316406 452.460938 134.085938 452.460938 134.085938 447.640625 C 134.085938 442.820312 141.316406 442.820312 141.316406 447.640625 "/>
<path style=" stroke:none;fill-rule:nonzero;fill:rgb(100%,84.3%,0%);fill-opacity:1;" d="M 59.570312 137.132812 C 59.570312 141.953125 52.339844 141.953125 52.339844 137.132812 C 52.339844 132.3125 59.570312 132.3125 59.570312 137.132812 "/>
<path style=" stroke:none;fill-rule:nonzero;fill:rgb(100%,84.3%,0%);fill-opacity:1;" d="M 156.367188 448.742188 C 156.367188 453.5625 149.136719 453.5625 149.136719 448.742188 C 149.136719 443.917969 156.367188 443.917969 156.367188 448.742188 "/>
<path style=" stroke:none;fill-rule:nonzero;fill:rgb(100%,84.3%,0%);fill-opacity:1;" d="M 263.347656 129.140625 C 263.347656 133.960938 256.117188 133.960938 256.117188 129.140625 C 256.117188 124.316406 263.347656 124.316406 263.347656 129.140625 "/>
<path style=" stroke:none;fill-rule:nonzero;fill:rgb(100%,84.3%,0%);fill-opacity:1;" d="M 87.902344 129.375 C 87.902344 134.195312 80.671875 134.195312 80.671875 129.375 C 80.671875 124.554688 87.902344 124.554688 87.902344 129.375 "/>
<path style=" stroke:none;fill-rule:nonzero;fill:rgb(100%,84.3%,0%);fill-opacity:1;" d="M 73.1875 160.785156 C 73.1875 165.605469 65.957031 165.605469 65.957031 160.785156 C 65.957031 155.964844 73.1875 155.964844 73.1875 160.785156 "/>
<path style=" stroke:none;fill-rule:nonzero;fill:rgb(100%,84.3%,0%);fill-opacity:1;" d="M 278.789062 142.210938 C 278.789062 147.03125 271.558594 147.03125 271.558594 142.210938 C 271.558594 137.390625 278.789062 137.390625 278.789062 142.210938 "/>
<path style=" stroke:none;fill-rule:nonzero;fill:rgb(100%,84.3%,0%);fill-opacity:1;" d="M 432.175781 468.753906 C 432.175781 473.574219 424.945312 473.574219 424.945312 468.753906 C 424.945312 463.933594 432.175781 463.933594 432.175781 468.753906 "/>
<path style=" stroke:none;fill-rule:nonzero;fill:rgb(100%,84.3%,0%);fill-opacity:1;" d="M 430.425781 135.324219 C 430.425781 140.144531 423.195312 140.144531 423.195312 135.324219 C 423.195312 130.503906 430.425781 130.503906 430.425781 135.324219 "/>
<path style=" stroke:none;fill-rule:nonzero;fill:rgb(100%,84.3%,0%);fill-opacity:1;" d="M 103.242188 155.652344 C 103.242188 160.472656 96.011719 160.472656 96.011719 155.652344 C 96.011719 150.832031 103.242188 150.832031 103.242188 155.652344 "/>
<path style=" stroke:none;fill-rule:nonzero;fill:rgb(100%,84.3%,0%);fill-opacity:1;" d="M 96.175781 129.824219 C 96.175781 134.644531 88.941406 134.644531 88.941406 129.824219 C 88.941406 125 96.175781 125 96.175781 129.824219 "/>
<path style=" stroke:none;fill-rule:nonzero;fill:rgb(100%,84.3%,0%);fill-opacity:1;" d="M 66.691406 132.949219 C 66.691406 137.769531 59.460938 137.769531 59.460938 132.949219 C 59.460938 128.128906 66.691406 128.128906 66.691406 132.949219 "/>
<path style=" stroke:none;fill-rule:nonzero;fill:rgb(100%,84.3%,0%);fill-opacity:1;" d="M 165.980469 462.351562 C 165.980469 467.175781 158.746094 467.175781 158.746094 462.351562 C 158.746094 457.53125 165.980469 457.53125 165.980469 462.351562 "/>
<path style=" stroke:none;fill-rule:nonzero;fill:rgb(100%,84.3%,0%);fill-opacity:1;" d="M 255.203125 142.035156 C 255.203125 146.855469 247.972656 146.855469 247.972656 142.035156 C 247.972656 137.214844 255.203125 137.214844 255.203125 142.035156 "/>
<path style=" stroke:none;fill-rule:nonzero;fill:rgb(100%,84.3%,0%);fill-opacity:1;" d="M 184.238281 431.132812 C 184.238281 435.953125 177.007812 435.953125 177.007812 431.132812 C 177.007812 426.3125 184.238281 426.3125 184.238281 431.132812 "/>
<path style=" stroke:none;fill-rule:nonzero;fill:rgb(100%,84.3%,0%);fill-opacity:1;" d="M 258.515625 135.605469 C 258.515625 140.425781 251.28125 140.425781 251.28125 135.605469 C 251.28125 130.785156 258.515625 130.785156 258.515625 135.605469 "/>
<path style=" stroke:none;fill-rule:nonzero;fill:rgb(100%,84.3%,0%);fill-opacity:1;" d="M 435.328125 141.0625 C 435.328125 145.886719 428.09375 145.886719 428.09375 141.0625 C 428.09375 136.242188 435.328125 136.242188 435.328125 141.0625 "/>
<path style=" stroke:none;fill-rule:nonzero;fill:rgb(100%,84.3%,0%);fill-opacity:1;" d="M 199.195312 456.113281 C 199.195312 460.933594 191.964844 460.933594 191.964844 456.113281 C 191.964844 451.292969 199.195312 451.292969 199.195312 456.113281 "/>
<path style=" stroke:none;fill-rule:nonzero;fill:rgb(100%,84.3%,0%);fill-opacity:1;" d="M 465.71875 129.179688 C 465.71875 134 458.484375 134 458.484375 129.179688 C 458.484375 124.355469 465.71875 124.355469 465.71875 129.179688 "/>
<path style=" stroke:none;fill-rule:nonzero;fill:rgb(100%,84.3%,0%);fill-opacity:1;" d="M 113.921875 123.082031 C 113.921875 127.902344 106.691406 127.902344 106.691406 123.082031 C 106.691406 118.261719 113.921875 118.261719 113.921875 123.082031 "/>
<path style=" stroke:none;fill-rule:nonzero;fill:rgb(100%,84.3%,0%);fill-opacity:1;" d="M 162.171875 455.988281 C 162.171875 460.808594 154.941406 460.808594 154.941406 455.988281 C 154.941406 451.167969 162.171875 451.167969 162.171875 455.988281 "/>
<path style=" stroke:none;fill-rule:nonzero;fill:rgb(100%,84.3%,0%);fill-opacity:1;" d="M 99.46875 136.273438 C 99.46875 141.09375 92.238281 141.09375 92.238281 136.273438 C 92.238281 131.453125 99.46875 131.453125 99.46875 136.273438 "/>
<path style=" stroke:none;fill-rule:nonzero;fill:rgb(100%,84.3%,0%);fill-opacity:1;" d="M 84.183594 123.082031 C 84.183594 127.902344 76.953125 127.902344 76.953125 123.082031 C 76.953125 118.261719 84.183594 118.261719 84.183594 123.082031 "/>
<path style=" stroke:none;fill-rule:nonzero;fill:rgb(100%,84.3%,0%);fill-opacity:1;" d="M 143.308594 123.082031 C 143.308594 127.902344 136.078125 127.902344 136.078125 123.082031 C 136.078125 118.261719 143.308594 118.261719 143.308594 123.082031 "/>
<path style=" stroke:none;fill-rule:nonzero;fill:rgb(100%,84.3%,0%);fill-opacity:1;" d="M 66.503906 448.121094 C 66.503906 452.941406 59.273438 452.941406 59.273438 448.121094 C 59.273438 443.300781 66.503906 443.300781 66.503906 448.121094 "/>
<path style=" stroke:none;fill-rule:nonzero;fill:rgb(100%,84.3%,0%);fill-opacity:1;" d="M 82.617188 148.9375 C 82.617188 153.757812 75.382812 153.757812 75.382812 148.9375 C 75.382812 144.117188 82.617188 144.117188 82.617188 148.9375 "/>
<path style=" stroke:none;fill-rule:nonzero;fill:rgb(100%,84.3%,0%);fill-opacity:1;" d="M 192.167969 468.753906 C 192.167969 473.574219 184.9375 473.574219 184.9375 468.753906 C 184.9375 463.933594 192.167969 463.933594 192.167969 468.753906 "/>
<path style=" stroke:none;fill-rule:nonzero;fill:rgb(100%,84.3%,0%);fill-opacity:1;" d="M 106.398438 123.082031 C 106.398438 127.902344 99.164062 127.902344 99.164062 123.082031 C 99.164062 118.261719 106.398438 118.261719 106.398438 123.082031 "/>
<path style=" stroke:none;fill-rule:nonzero;fill:rgb(100%,84.3%,0%);fill-opacity:1;" d="M 53.9375 170.6875 C 53.9375 175.507812 46.703125 175.507812 46.703125 170.6875 C 46.703125 165.863281 53.9375 165.863281 53.9375 170.6875 "/>
<path style=" stroke:none;fill-rule:nonzero;fill:rgb(100%,84.3%,0%);fill-opacity:1;" d="M 243.394531 468.539062 C 243.394531 473.359375 236.160156 473.359375 236.160156 468.539062 C 236.160156 463.71875 243.394531 463.71875 243.394531 468.539062 "/>
<path style=" stroke:none;fill-rule:nonzero;fill:rgb(100%,84.3%,0%);fill-opacity:1;" d="M 150.539062 123.253906 C 150.539062 128.074219 143.304688 128.074219 143.304688 123.253906 C 143.304688 118.433594 150.539062 118.433594 150.539062 123.253906 "/>
<path style=" stroke:none;fill-rule:nonzero;fill:rgb(100%,84.3%,0%);fill-opacity:1;" d="M 135.96875 123.171875 C 135.96875 127.992188 128.738281 127.992188 128.738281 123.171875 C 128.738281 118.351562 135.96875 118.351562 135.96875 123.171875 "/>
<path style=" stroke:none;fill-rule:nonzero;fill:rgb(100%,84.3%,0%);fill-opacity:1;" d="M 60.890625 172.664062 C 60.890625 177.484375 53.660156 177.484375 53.660156 172.664062 C 53.660156 167.84375 60.890625 167.84375 60.890625 172.664062 "/>
<path style=" stroke:none;fill-rule:nonzero;fill:rgb(100%,84.3%,0%);fill-opacity:1;" d="M 191.53125 456.050781 C 191.53125 460.871094 184.296875 460.871094 184.296875 456.050781 C 184.296875 451.230469 191.53125 451.230469 191.53125 456.050781 "/>
<path style=" stroke:none;fill-rule:nonzero;fill:rgb(100%,84.3%,0%);fill-opacity:1;" d="M 128.738281 461.675781 C 128.738281 466.496094 121.507812 466.496094 121.507812 461.675781 C 121.507812 456.851562 128.738281 456.851562 128.738281 461.675781 "/>
<path style=" stroke:none;fill-rule:nonzero;fill:rgb(100%,84.3%,0%);fill-opacity:1;" d="M 164.152344 449.03125 C 164.152344 453.855469 156.921875 453.855469 156.921875 449.03125 C 156.921875 444.210938 164.152344 444.210938 164.152344 449.03125 "/>
<path style=" stroke:none;fill-rule:nonzero;fill:rgb(100%,84.3%,0%);fill-opacity:1;" d="M 60.527344 165.238281 C 60.527344 170.058594 53.292969 170.058594 53.292969 165.238281 C 53.292969 160.414062 60.527344 160.414062 60.527344 165.238281 "/>
<path style=" stroke:none;fill-rule:nonzero;fill:rgb(100%,84.3%,0%);fill-opacity:1;" d="M 95.628906 142.398438 C 95.628906 147.222656 88.394531 147.222656 88.394531 142.398438 C 88.394531 137.578125 95.628906 137.578125 95.628906 142.398438 "/>
<path style=" stroke:none;fill-rule:nonzero;fill:rgb(100%,84.3%,0%);fill-opacity:1;" d="M 60.097656 451.472656 C 60.097656 456.296875 52.863281 456.296875 52.863281 451.472656 C 52.863281 446.652344 60.097656 446.652344 60.097656 451.472656 "/>
<path style=" stroke:none;fill-rule:nonzero;fill:rgb(100%,84.3%,0%);fill-opacity:1;" d="M 63.984375 143.183594 C 63.984375 148.007812 56.753906 148.007812 56.753906 143.183594 C 56.753906 138.363281 63.984375 138.363281 63.984375 143.183594 "/>
<path style=" stroke:none;fill-rule:nonzero;fill:rgb(100%,84.3%,0%);fill-opacity:1;" d="M 53.515625 454.46875 C 53.515625 459.289062 46.28125 459.289062 46.28125 454.46875 C 46.28125 449.648438 53.515625 449.648438 53.515625 454.46875 "/>
<path style=" stroke:none;fill-rule:nonzero;fill:rgb(100%,84.3%,0%);fill-opacity:1;" d="M 340.910156 123.082031 C 340.910156 127.902344 333.675781 127.902344 333.675781 123.082031 C 333.675781 118.261719 340.910156 118.261719 340.910156 123.082031 "/>
<path style=" stroke:none;fill-rule:nonzero;fill:rgb(100%,84.3%,0%);fill-opacity:1;" d="M 73.078125 145.917969 C 73.078125 150.738281 65.847656 150.738281 65.847656 145.917969 C 65.847656 141.097656 73.078125 141.097656 73.078125 145.917969 "/>
<path style=" stroke:none;fill-rule:nonzero;fill:rgb(100%,84.3%,0%);fill-opacity:1;" d="M 61.667969 467.203125 C 61.667969 472.023438 54.4375 472.023438 54.4375 467.203125 C 54.4375 462.382812 61.667969 462.382812 61.667969 467.203125 "/>
<path style=" stroke:none;fill-rule:nonzero;fill:rgb(100%,84.3%,0%);fill-opacity:1;" d="M 183.777344 443.492188 C 183.777344 448.3125 176.546875 448.3125 176.546875 443.492188 C 176.546875 438.667969 183.777344 438.667969 183.777344 443.492188 "/>
<path style=" stroke:none;fill-rule:nonzero;fill:rgb(100%,84.3%,0%);fill-opacity:1;" d="M 177.34375 468.753906 C 177.34375 473.574219 170.113281 473.574219 170.113281 468.753906 C 170.113281 463.933594 177.34375 463.933594 177.34375 468.753906 "/>
<path style=" stroke:none;fill-rule:nonzero;fill:rgb(100%,84.3%,0%);fill-opacity:1;" d="M 132.292969 129.417969 C 132.292969 134.238281 125.0625 134.238281 125.0625 129.417969 C 125.0625 124.597656 132.292969 124.597656 132.292969 129.417969 "/>
<path style=" stroke:none;fill-rule:nonzero;fill:rgb(100%,84.3%,0%);fill-opacity:1;" d="M 210.21875 462.386719 C 210.21875 467.207031 202.988281 467.207031 202.988281 462.386719 C 202.988281 457.566406 210.21875 457.566406 210.21875 462.386719 "/>
<path style=" stroke:none;fill-rule:nonzero;fill:rgb(100%,84.3%,0%);fill-opacity:1;" d="M 62.097656 459.941406 C 62.097656 464.761719 54.867188 464.761719 54.867188 459.941406 C 54.867188 455.121094 62.097656 455.121094 62.097656 459.941406 "/>
<path style=" stroke:none;fill-rule:nonzero;fill:rgb(100%,84.3%,0%);fill-opacity:1;" d="M 125.832031 142.292969 C 125.832031 147.113281 118.601562 147.113281 118.601562 142.292969 C 118.601562 137.472656 125.832031 137.472656 125.832031 142.292969 "/>
<path style=" stroke:none;fill-rule:nonzero;fill:rgb(100%,84.3%,0%);fill-opacity:1;" d="M 297.023438 136.214844 C 297.023438 141.035156 289.789062 141.035156 289.789062 136.214844 C 289.789062 131.394531 297.023438 131.394531 297.023438 136.214844 "/>
<path style=" stroke:none;fill-rule:nonzero;fill:rgb(100%,84.3%,0%);fill-opacity:1;" d="M 301.382812 142.796875 C 301.382812 147.617188 294.148438 147.617188 294.148438 142.796875 C 294.148438 137.976562 301.382812 137.976562 301.382812 142.796875 "/>
<path style=" stroke:none;fill-rule:nonzero;fill:rgb(100%,84.3%,0%);fill-opacity:1;" d="M 114.105469 149.140625 C 114.105469 153.960938 106.871094 153.960938 106.871094 149.140625 C 106.871094 144.316406 114.105469 144.316406 114.105469 149.140625 "/>
<path style=" stroke:none;fill-rule:nonzero;fill:rgb(100%,84.3%,0%);fill-opacity:1;" d="M 243.636719 123.082031 C 243.636719 127.902344 236.40625 127.902344 236.40625 123.082031 C 236.40625 118.261719 243.636719 118.261719 243.636719 123.082031 "/>
<path style=" stroke:none;fill-rule:nonzero;fill:rgb(100%,84.3%,0%);fill-opacity:1;" d="M 207.152344 441.128906 C 207.152344 445.949219 199.917969 445.949219 199.917969 441.128906 C 199.917969 436.308594 207.152344 436.308594 207.152344 441.128906 "/>
<path style=" stroke:none;fill-rule:nonzero;fill:rgb(100%,84.3%,0%);fill-opacity:1;" d="M 232.039062 462.222656 C 232.039062 467.046875 224.804688 467.046875 224.804688 462.222656 C 224.804688 457.402344 232.039062 457.402344 232.039062 462.222656 "/>
<path style=" stroke:none;fill-rule:nonzero;fill:rgb(100%,84.3%,0%);fill-opacity:1;" d="M 326.421875 123.082031 C 326.421875 127.902344 319.191406 127.902344 319.191406 123.082031 C 319.191406 118.261719 326.421875 118.261719 326.421875 123.082031 "/>
<path style=" stroke:none;fill-rule:nonzero;fill:rgb(100%,84.3%,0%);fill-opacity:1;" d="M 310.804688 123.082031 C 310.804688 127.902344 303.570312 127.902344 303.570312 123.082031 C 303.570312 118.261719 310.804688 118.261719 310.804688 123.082031 "/>
<path style=" stroke:none;fill-rule:nonzero;fill:rgb(100%,84.3%,0%);fill-opacity:1;" d="M 180.261719 437.171875 C 180.261719 441.992188 173.03125 441.992188 173.03125 437.171875 C 173.03125 432.351562 180.261719 432.351562 180.261719 437.171875 "/>
<path style=" stroke:none;fill-rule:nonzero;fill:rgb(100%,84.3%,0%);fill-opacity:1;" d="M 285.859375 129.59375 C 285.859375 134.414062 278.628906 134.414062 278.628906 129.59375 C 278.628906 124.773438 285.859375 124.773438 285.859375 129.59375 "/>
<path style=" stroke:none;fill-rule:nonzero;fill:rgb(100%,84.3%,0%);fill-opacity:1;" d="M 60.121094 129.921875 C 60.121094 134.742188 52.890625 134.742188 52.890625 129.921875 C 52.890625 125.101562 60.121094 125.101562 60.121094 129.921875 "/>
<path style=" stroke:none;fill-rule:nonzero;fill:rgb(100%,84.3%,0%);fill-opacity:1;" d="M 458.640625 130.671875 C 458.640625 135.492188 451.410156 135.492188 451.410156 130.671875 C 451.410156 125.851562 458.640625 125.851562 458.640625 130.671875 "/>
<path style=" stroke:none;fill-rule:nonzero;fill:rgb(100%,84.3%,0%);fill-opacity:1;" d="M 315.355469 129.433594 C 315.355469 134.253906 308.125 134.253906 308.125 129.433594 C 308.125 124.613281 315.355469 124.613281 315.355469 129.433594 "/>
<path style=" stroke:none;fill-rule:nonzero;fill:rgb(100%,84.3%,0%);fill-opacity:1;" d="M 91.621094 123.082031 C 91.621094 127.902344 84.390625 127.902344 84.390625 123.082031 C 84.390625 118.261719 91.621094 118.261719 91.621094 123.082031 "/>
<path style=" stroke:none;fill-rule:nonzero;fill:rgb(100%,84.3%,0%);fill-opacity:1;" d="M 293.511719 129.777344 C 293.511719 134.601562 286.277344 134.601562 286.277344 129.777344 C 286.277344 124.957031 293.511719 124.957031 293.511719 129.777344 "/>
<path style=" stroke:none;fill-rule:nonzero;fill:rgb(100%,84.3%,0%);fill-opacity:1;" d="M 216.769531 447.476562 C 216.769531 452.296875 209.535156 452.296875 209.535156 447.476562 C 209.535156 442.652344 216.769531 442.652344 216.769531 447.476562 "/>
<path style=" stroke:none;fill-rule:nonzero;fill:rgb(100%,84.3%,0%);fill-opacity:1;" d="M 304.417969 136.234375 C 304.417969 141.054688 297.1875 141.054688 297.1875 136.234375 C 297.1875 131.414062 304.417969 131.414062 304.417969 136.234375 "/>
<path style=" stroke:none;fill-rule:nonzero;fill:rgb(100%,84.3%,0%);fill-opacity:1;" d="M 107.101562 136.519531 C 107.101562 141.339844 99.871094 141.339844 99.871094 136.519531 C 99.871094 131.699219 107.101562 131.699219 107.101562 136.519531 "/>
<path style=" stroke:none;fill-rule:nonzero;fill:rgb(100%,84.3%,0%);fill-opacity:1;" d="M 53.550781 447.238281 C 53.550781 452.058594 46.320312 452.058594 46.320312 447.238281 C 46.320312 442.414062 53.550781 442.414062 53.550781 447.238281 "/>
<path style=" stroke:none;fill-rule:nonzero;fill:rgb(100%,84.3%,0%);fill-opacity:1;" d="M 243.492188 135.570312 C 243.492188 140.390625 236.257812 140.390625 236.257812 135.570312 C 236.257812 130.75 243.492188 130.75 243.492188 135.570312 "/>
<path style=" stroke:none;fill-rule:nonzero;fill:rgb(100%,84.3%,0%);fill-opacity:1;" d="M 132.824219 455.175781 C 132.824219 459.996094 125.59375 459.996094 125.59375 455.175781 C 125.59375 450.355469 132.824219 450.355469 132.824219 455.175781 "/>
<path style=" stroke:none;fill-rule:nonzero;fill:rgb(100%,84.3%,0%);fill-opacity:1;" d="M 145.992188 441.042969 C 145.992188 445.863281 138.757812 445.863281 138.757812 441.042969 C 138.757812 436.222656 145.992188 436.222656 145.992188 441.042969 "/>
<path style=" stroke:none;fill-rule:nonzero;fill:rgb(100%,84.3%,0%);fill-opacity:1;" d="M 148.628906 447.777344 C 148.628906 452.597656 141.398438 452.597656 141.398438 447.777344 C 141.398438 442.957031 148.628906 442.957031 148.628906 447.777344 "/>
<path style=" stroke:none;fill-rule:nonzero;fill:rgb(100%,84.3%,0%);fill-opacity:1;" d="M 422.40625 123.082031 C 422.40625 127.902344 415.175781 127.902344 415.175781 123.082031 C 415.175781 118.261719 422.40625 118.261719 422.40625 123.082031 "/>
<path style=" stroke:none;fill-rule:nonzero;fill:rgb(100%,84.3%,0%);fill-opacity:1;" d="M 426.054688 129.351562 C 426.054688 134.171875 418.820312 134.171875 418.820312 129.351562 C 418.820312 124.53125 426.054688 124.53125 426.054688 129.351562 "/>
<path style=" stroke:none;fill-rule:nonzero;fill:rgb(100%,84.3%,0%);fill-opacity:1;" d="M 444.734375 462.667969 C 444.734375 467.488281 437.503906 467.488281 437.503906 462.667969 C 437.503906 457.847656 444.734375 457.847656 444.734375 462.667969 "/>
<path style=" stroke:none;fill-rule:nonzero;fill:rgb(100%,84.3%,0%);fill-opacity:1;" d="M 187.613281 449.648438 C 187.613281 454.46875 180.382812 454.46875 180.382812 449.648438 C 180.382812 444.824219 187.613281 444.824219 187.613281 449.648438 "/>
<path style=" stroke:none;fill-rule:nonzero;fill:rgb(100%,84.3%,0%);fill-opacity:1;" d="M 158.726562 462.386719 C 158.726562 467.207031 151.492188 467.207031 151.492188 462.386719 C 151.492188 457.566406 158.726562 457.566406 158.726562 462.386719 "/>
<path style=" stroke:none;fill-rule:nonzero;fill:rgb(100%,84.3%,0%);fill-opacity:1;" d="M 69.21875 461.214844 C 69.21875 466.035156 61.984375 466.035156 61.984375 461.214844 C 61.984375 456.394531 69.21875 456.394531 69.21875 461.214844 "/>
<path style=" stroke:none;fill-rule:nonzero;fill:rgb(100%,84.3%,0%);fill-opacity:1;" d="M 94.3125 155.25 C 94.3125 160.070312 87.082031 160.070312 87.082031 155.25 C 87.082031 150.429688 94.3125 150.429688 94.3125 155.25 "/>
<path style=" stroke:none;fill-rule:nonzero;fill:rgb(100%,84.3%,0%);fill-opacity:1;" d="M 68.042969 165.867188 C 68.042969 170.6875 60.8125 170.6875 60.8125 165.867188 C 60.8125 161.046875 68.042969 161.046875 68.042969 165.867188 "/>
<path style=" stroke:none;fill-rule:nonzero;fill:rgb(100%,84.3%,0%);fill-opacity:1;" d="M 106.859375 149.355469 C 106.859375 154.179688 99.628906 154.179688 99.628906 149.355469 C 99.628906 144.535156 106.859375 144.535156 106.859375 149.355469 "/>
<path style=" stroke:none;fill-rule:nonzero;fill:rgb(100%,84.3%,0%);fill-opacity:1;" d="M 79.507812 142.40625 C 79.507812 147.230469 72.273438 147.230469 72.273438 142.40625 C 72.273438 137.585938 79.507812 137.585938 79.507812 142.40625 "/>
<path style=" stroke:none;fill-rule:nonzero;fill:rgb(100%,84.3%,0%);fill-opacity:1;" d="M 122.054688 136.128906 C 122.054688 140.949219 114.824219 140.949219 114.824219 136.128906 C 114.824219 131.308594 122.054688 131.308594 122.054688 136.128906 "/>
<path style=" stroke:none;fill-rule:nonzero;fill:rgb(100%,84.3%,0%);fill-opacity:1;" d="M 247.363281 129.308594 C 247.363281 134.128906 240.132812 134.128906 240.132812 129.308594 C 240.132812 124.488281 247.363281 124.488281 247.363281 129.308594 "/>
<path style=" stroke:none;fill-rule:nonzero;fill:rgb(100%,84.3%,0%);fill-opacity:1;" d="M 107.539062 468.753906 C 107.539062 473.574219 100.308594 473.574219 100.308594 468.753906 C 100.308594 463.933594 107.539062 463.933594 107.539062 468.753906 "/>
<path style=" stroke:none;fill-rule:nonzero;fill:rgb(100%,84.3%,0%);fill-opacity:1;" d="M 121.210938 463.398438 C 121.210938 468.222656 113.980469 468.222656 113.980469 463.398438 C 113.980469 458.578125 121.210938 458.578125 121.210938 463.398438 "/>
<path style=" stroke:none;fill-rule:nonzero;fill:rgb(100%,84.3%,0%);fill-opacity:1;" d="M 213.945312 468.753906 C 213.945312 473.574219 206.710938 473.574219 206.710938 468.753906 C 206.710938 463.933594 213.945312 463.933594 213.945312 468.753906 "/>
<path style=" stroke:none;fill-rule:nonzero;fill:rgb(100%,84.3%,0%);fill-opacity:1;" d="M 187.984375 437.339844 C 187.984375 442.160156 180.753906 442.160156 180.753906 437.339844 C 180.753906 432.519531 187.984375 432.519531 187.984375 437.339844 "/>
<path style=" stroke:none;fill-rule:nonzero;fill:rgb(100%,84.3%,0%);fill-opacity:1;" d="M 195.644531 462.414062 C 195.644531 467.234375 188.414062 467.234375 188.414062 462.414062 C 188.414062 457.59375 195.644531 457.59375 195.644531 462.414062 "/>
<path style=" stroke:none;fill-rule:nonzero;fill:rgb(100%,84.3%,0%);fill-opacity:1;" d="M 53.515625 200.367188 C 53.515625 205.1875 46.28125 205.1875 46.28125 200.367188 C 46.28125 195.546875 53.515625 195.546875 53.515625 200.367188 "/>
<path style=" stroke:none;fill-rule:nonzero;fill:rgb(100%,84.3%,0%);fill-opacity:1;" d="M 446.53125 134.957031 C 446.53125 139.777344 439.300781 139.777344 439.300781 134.957031 C 439.300781 130.136719 446.53125 130.136719 446.53125 134.957031 "/>
<path style=" stroke:none;fill-rule:nonzero;fill:rgb(100%,84.3%,0%);fill-opacity:1;" d="M 282.390625 135.9375 C 282.390625 140.757812 275.15625 140.757812 275.15625 135.9375 C 275.15625 131.117188 282.390625 131.117188 282.390625 135.9375 "/>
<path style=" stroke:none;fill-rule:nonzero;fill:rgb(100%,84.3%,0%);fill-opacity:1;" d="M 68.289062 173.097656 C 68.289062 177.917969 61.054688 177.917969 61.054688 173.097656 C 61.054688 168.273438 68.289062 168.273438 68.289062 173.097656 "/>
<path style=" stroke:none;fill-rule:nonzero;fill:rgb(100%,84.3%,0%);fill-opacity:1;" d="M 202.773438 435.371094 C 202.773438 440.191406 195.542969 440.191406 195.542969 435.371094 C 195.542969 430.550781 202.773438 430.550781 202.773438 435.371094 "/>
<path style=" stroke:none;fill-rule:nonzero;fill:rgb(100%,84.3%,0%);fill-opacity:1;" d="M 162.5 468.691406 C 162.5 473.515625 155.269531 473.515625 155.269531 468.691406 C 155.269531 463.871094 162.5 463.871094 162.5 468.691406 "/>
<path style=" stroke:none;fill-rule:nonzero;fill:rgb(100%,84.3%,0%);fill-opacity:1;" d="M 53.636719 185.136719 C 53.636719 189.957031 46.402344 189.957031 46.402344 185.136719 C 46.402344 180.316406 53.636719 180.316406 53.636719 185.136719 "/>
<path style=" stroke:none;fill-rule:nonzero;fill:rgb(100%,84.3%,0%);fill-opacity:1;" d="M 102.792969 143.375 C 102.792969 148.195312 95.5625 148.195312 95.5625 143.375 C 95.5625 138.554688 102.792969 138.554688 102.792969 143.375 "/>
<path style=" stroke:none;fill-rule:nonzero;fill:rgb(100%,84.3%,0%);fill-opacity:1;" d="M 136.910156 136.636719 C 136.910156 141.457031 129.679688 141.457031 129.679688 136.636719 C 129.679688 131.816406 136.910156 131.816406 136.910156 136.636719 "/>
<path style=" stroke:none;fill-rule:nonzero;fill:rgb(100%,84.3%,0%);fill-opacity:1;" d="M 206.472656 456.007812 C 206.472656 460.828125 199.242188 460.828125 199.242188 456.007812 C 199.242188 451.1875 206.472656 451.1875 206.472656 456.007812 "/>
<path style=" stroke:none;fill-rule:nonzero;fill:rgb(100%,84.3%,0%);fill-opacity:1;" d="M 289.007812 123.082031 C 289.007812 127.902344 281.777344 127.902344 281.777344 123.082031 C 281.777344 118.261719 289.007812 118.261719 289.007812 123.082031 "/>
<path style=" stroke:none;fill-rule:nonzero;fill:rgb(100%,84.3%,0%);fill-opacity:1;" d="M 73.195312 129.414062 C 73.195312 134.234375 65.964844 134.234375 65.964844 129.414062 C 65.964844 124.59375 73.195312 124.59375 73.195312 129.414062 "/>
<path style=" stroke:none;fill-rule:nonzero;fill:rgb(100%,84.3%,0%);fill-opacity:1;" d="M 121.503906 123.082031 C 121.503906 127.902344 114.273438 127.902344 114.273438 123.082031 C 114.273438 118.261719 121.503906 118.261719 121.503906 123.082031 "/>
<path style=" stroke:none;fill-rule:nonzero;fill:rgb(100%,84.3%,0%);fill-opacity:1;" d="M 221.125 467.90625 C 221.125 472.726562 213.894531 472.726562 213.894531 467.90625 C 213.894531 463.085938 221.125 463.085938 221.125 467.90625 "/>
<path style=" stroke:none;fill-rule:nonzero;fill:rgb(100%,84.3%,0%);fill-opacity:1;" d="M 459.394531 141.792969 C 459.394531 146.613281 452.164062 146.613281 452.164062 141.792969 C 452.164062 136.972656 459.394531 136.972656 459.394531 141.792969 "/>
<path style=" stroke:none;fill-rule:nonzero;fill:rgb(100%,84.3%,0%);fill-opacity:1;" d="M 59.996094 188.578125 C 59.996094 193.398438 52.761719 193.398438 52.761719 188.578125 C 52.761719 183.757812 59.996094 183.757812 59.996094 188.578125 "/>
<path style=" stroke:none;fill-rule:nonzero;fill:rgb(100%,84.3%,0%);fill-opacity:1;" d="M 220.921875 454.167969 C 220.921875 458.988281 213.691406 458.988281 213.691406 454.167969 C 213.691406 449.347656 220.921875 449.347656 220.921875 454.167969 "/>
<path style=" stroke:none;fill-rule:nonzero;fill:rgb(100%,84.3%,0%);fill-opacity:1;" d="M 176.433594 443.320312 C 176.433594 448.144531 169.203125 448.144531 169.203125 443.320312 C 169.203125 438.5 176.433594 438.5 176.433594 443.320312 "/>
<path style=" stroke:none;fill-rule:nonzero;fill:rgb(100%,84.3%,0%);fill-opacity:1;" d="M 84.511719 468.753906 C 84.511719 473.574219 77.28125 473.574219 77.28125 468.753906 C 77.28125 463.933594 84.511719 463.933594 84.511719 468.753906 "/>
<path style=" stroke:none;fill-rule:nonzero;fill:rgb(100%,84.3%,0%);fill-opacity:1;" d="M 135.96875 461.6875 C 135.96875 466.507812 128.738281 466.507812 128.738281 461.6875 C 128.738281 456.867188 135.96875 456.867188 135.96875 461.6875 "/>
<path style=" stroke:none;fill-rule:nonzero;fill:rgb(100%,84.3%,0%);fill-opacity:1;" d="M 133.582031 468.753906 C 133.582031 473.574219 126.351562 473.574219 126.351562 468.753906 C 126.351562 463.933594 133.582031 463.933594 133.582031 468.753906 "/>
<path style=" stroke:none;fill-rule:nonzero;fill:rgb(100%,84.3%,0%);fill-opacity:1;" d="M 271.242188 142.039062 C 271.242188 146.859375 264.011719 146.859375 264.011719 142.039062 C 264.011719 137.21875 271.242188 137.21875 271.242188 142.039062 "/>
<path style=" stroke:none;fill-rule:nonzero;fill:rgb(100%,84.3%,0%);fill-opacity:1;" d="M 172.042969 449.074219 C 172.042969 453.898438 164.808594 453.898438 164.808594 449.074219 C 164.808594 444.253906 172.042969 444.253906 172.042969 449.074219 "/>
<path style=" stroke:none;fill-rule:nonzero;fill:rgb(100%,84.3%,0%);fill-opacity:1;" d="M 168.589844 429.945312 C 168.589844 434.765625 161.359375 434.765625 161.359375 429.945312 C 161.359375 425.125 168.589844 425.125 168.589844 429.945312 "/>
<path style=" stroke:none;fill-rule:nonzero;fill:rgb(100%,84.3%,0%);fill-opacity:1;" d="M 274.984375 135.851562 C 274.984375 140.671875 267.75 140.671875 267.75 135.851562 C 267.75 131.027344 274.984375 131.027344 274.984375 135.851562 "/>
<path style=" stroke:none;fill-rule:nonzero;fill:rgb(100%,84.3%,0%);fill-opacity:1;" d="M 318.8125 123.082031 C 318.8125 127.902344 311.582031 127.902344 311.582031 123.082031 C 311.582031 118.261719 318.8125 118.261719 318.8125 123.082031 "/>
<path style=" stroke:none;fill-rule:nonzero;fill:rgb(100%,84.3%,0%);fill-opacity:1;" d="M 71.160156 152.890625 C 71.160156 157.710938 63.929688 157.710938 63.929688 152.890625 C 63.929688 148.066406 71.160156 148.066406 71.160156 152.890625 "/>
<path style=" stroke:none;fill-rule:nonzero;fill:rgb(100%,84.3%,0%);fill-opacity:1;" d="M 457.703125 468.753906 C 457.703125 473.574219 450.472656 473.574219 450.472656 468.753906 C 450.472656 463.933594 457.703125 463.933594 457.703125 468.753906 "/>
<path style=" stroke:none;fill-rule:nonzero;fill:rgb(100%,84.3%,0%);fill-opacity:1;" d="M 66.386719 158.320312 C 66.386719 163.144531 59.15625 163.144531 59.15625 158.320312 C 59.15625 153.5 66.386719 153.5 66.386719 158.320312 "/>
<path style=" stroke:none;fill-rule:nonzero;fill:rgb(100%,84.3%,0%);fill-opacity:1;" d="M 155.269531 468.738281 C 155.269531 473.5625 148.039062 473.5625 148.039062 468.738281 C 148.039062 463.917969 155.269531 463.917969 155.269531 468.738281 "/>
<path style=" stroke:none;fill-rule:nonzero;fill:rgb(100%,84.3%,0%);fill-opacity:1;" d="M 251.042969 123.082031 C 251.042969 127.902344 243.808594 127.902344 243.808594 123.082031 C 243.808594 118.261719 251.042969 118.261719 251.042969 123.082031 "/>
<path style=" stroke:none;fill-rule:nonzero;fill:rgb(100%,84.3%,0%);fill-opacity:1;" d="M 206.660156 468.753906 C 206.660156 473.574219 199.429688 473.574219 199.429688 468.753906 C 199.429688 463.933594 206.660156 463.933594 206.660156 468.753906 "/>
<path style=" stroke:none;fill-rule:nonzero;fill:rgb(100%,84.3%,0%);fill-opacity:1;" d="M 90.757812 148.953125 C 90.757812 153.773438 83.523438 153.773438 83.523438 148.953125 C 83.523438 144.132812 90.757812 144.132812 90.757812 148.953125 "/>
<path style=" stroke:none;fill-rule:nonzero;fill:rgb(100%,84.3%,0%);fill-opacity:1;" d="M 157.265625 436.15625 C 157.265625 440.976562 150.035156 440.976562 150.035156 436.15625 C 150.035156 431.332031 157.265625 431.332031 157.265625 436.15625 "/>
<path style=" stroke:none;fill-rule:nonzero;fill:rgb(100%,84.3%,0%);fill-opacity:1;" d="M 91.949219 135.855469 C 91.949219 140.675781 84.71875 140.675781 84.71875 135.855469 C 84.71875 131.03125 91.949219 131.03125 91.949219 135.855469 "/>
<path style=" stroke:none;fill-rule:nonzero;fill:rgb(100%,84.3%,0%);fill-opacity:1;" d="M 403.53125 129.535156 C 403.53125 134.355469 396.300781 134.355469 396.300781 129.535156 C 396.300781 124.714844 403.53125 124.714844 403.53125 129.535156 "/>
<path style=" stroke:none;fill-rule:nonzero;fill:rgb(100%,84.3%,0%);fill-opacity:1;" d="M 320.082031 136.464844 C 320.082031 141.285156 312.847656 141.285156 312.847656 136.464844 C 312.847656 131.644531 320.082031 131.644531 320.082031 136.464844 "/>
<path style=" stroke:none;fill-rule:nonzero;fill:rgb(100%,84.3%,0%);fill-opacity:1;" d="M 172.570312 437.210938 C 172.570312 442.03125 165.335938 442.03125 165.335938 437.210938 C 165.335938 432.386719 172.570312 432.386719 172.570312 437.210938 "/>
<path style=" stroke:none;fill-rule:nonzero;fill:rgb(100%,84.3%,0%);fill-opacity:1;" d="M 84.71875 135.867188 C 84.71875 140.6875 77.488281 140.6875 77.488281 135.867188 C 77.488281 131.046875 84.71875 131.046875 84.71875 135.867188 "/>
<path style=" stroke:none;fill-rule:nonzero;fill:rgb(100%,84.3%,0%);fill-opacity:1;" d="M 176.628906 456.054688 C 176.628906 460.875 169.398438 460.875 169.398438 456.054688 C 169.398438 451.230469 176.628906 451.230469 176.628906 456.054688 "/>
<path style=" stroke:none;fill-rule:nonzero;fill:rgb(100%,84.3%,0%);fill-opacity:1;" d="M 53.515625 163.46875 C 53.515625 168.289062 46.28125 168.289062 46.28125 163.46875 C 46.28125 158.644531 53.515625 158.644531 53.515625 163.46875 "/>
<path style=" stroke:none;fill-rule:nonzero;fill:rgb(100%,84.3%,0%);fill-opacity:1;" d="M 451.296875 129.519531 C 451.296875 134.339844 444.066406 134.339844 444.066406 129.519531 C 444.066406 124.695312 451.296875 124.695312 451.296875 129.519531 "/>
<path style=" stroke:none;fill-rule:nonzero;fill:rgb(100%,84.3%,0%);fill-opacity:1;" d="M 406.667969 468.753906 C 406.667969 473.574219 399.4375 473.574219 399.4375 468.753906 C 399.4375 463.933594 406.667969 463.933594 406.667969 468.753906 "/>
<path style=" stroke:none;fill-rule:nonzero;fill:rgb(100%,84.3%,0%);fill-opacity:1;" d="M 255.195312 129.179688 C 255.195312 134.003906 247.964844 134.003906 247.964844 129.179688 C 247.964844 124.359375 255.195312 124.359375 255.195312 129.179688 "/>
<path style=" stroke:none;fill-rule:nonzero;fill:rgb(100%,84.3%,0%);fill-opacity:1;" d="M 217.15625 460.34375 C 217.15625 465.164062 209.925781 465.164062 209.925781 460.34375 C 209.925781 455.519531 217.15625 455.519531 217.15625 460.34375 "/>
<path style=" stroke:none;fill-rule:nonzero;fill:rgb(100%,84.3%,0%);fill-opacity:1;" d="M 80.265625 462.847656 C 80.265625 467.667969 73.03125 467.667969 73.03125 462.847656 C 73.03125 458.023438 80.265625 458.023438 80.265625 462.847656 "/>
<path style=" stroke:none;fill-rule:nonzero;fill:rgb(100%,84.3%,0%);fill-opacity:1;" d="M 125.109375 455.417969 C 125.109375 460.238281 117.878906 460.238281 117.878906 455.417969 C 117.878906 450.597656 125.109375 450.597656 125.109375 455.417969 "/>
<path style=" stroke:none;fill-rule:nonzero;fill:rgb(100%,84.3%,0%);fill-opacity:1;" d="M 63.863281 150.609375 C 63.863281 155.433594 56.632812 155.433594 56.632812 150.609375 C 56.632812 145.789062 63.863281 145.789062 63.863281 150.609375 "/>
<path style=" stroke:none;fill-rule:nonzero;fill:rgb(100%,84.3%,0%);fill-opacity:1;" d="M 439.175781 134.941406 C 439.175781 139.761719 431.941406 139.761719 431.941406 134.941406 C 431.941406 130.121094 439.175781 130.121094 439.175781 134.941406 "/>
<path style=" stroke:none;fill-rule:nonzero;fill:rgb(100%,84.3%,0%);fill-opacity:1;" d="M 60.027344 444.019531 C 60.027344 448.839844 52.796875 448.839844 52.796875 444.019531 C 52.796875 439.195312 60.027344 439.195312 60.027344 444.019531 "/>
<path style=" stroke:none;fill-rule:nonzero;fill:rgb(100%,84.3%,0%);fill-opacity:1;" d="M 213.652344 454.015625 C 213.652344 458.835938 206.421875 458.835938 206.421875 454.015625 C 206.421875 449.195312 213.652344 449.195312 213.652344 454.015625 "/>
<path style=" stroke:none;fill-rule:nonzero;fill:rgb(100%,84.3%,0%);fill-opacity:1;" d="M 154.921875 455.828125 C 154.921875 460.648438 147.691406 460.648438 147.691406 455.828125 C 147.691406 451.007812 154.921875 451.007812 154.921875 455.828125 "/>
<path style=" stroke:none;fill-rule:nonzero;fill:rgb(100%,84.3%,0%);fill-opacity:1;" d="M 199.398438 468.621094 C 199.398438 473.445312 192.167969 473.445312 192.167969 468.621094 C 192.167969 463.800781 199.398438 463.800781 199.398438 468.621094 "/>
<path style=" stroke:none;fill-rule:nonzero;fill:rgb(100%,84.3%,0%);fill-opacity:1;" d="M 53.515625 192.429688 C 53.515625 197.25 46.28125 197.25 46.28125 192.429688 C 46.28125 187.609375 53.515625 187.609375 53.515625 192.429688 "/>
<path style=" stroke:none;fill-rule:nonzero;fill:rgb(100%,84.3%,0%);fill-opacity:1;" d="M 465.71875 145.300781 C 465.71875 150.125 458.484375 150.125 458.484375 145.300781 C 458.484375 140.480469 465.71875 140.480469 465.71875 145.300781 "/>
<path style=" stroke:none;fill-rule:nonzero;fill:rgb(100%,84.3%,0%);fill-opacity:1;" d="M 286.339844 143.546875 C 286.339844 148.367188 279.105469 148.367188 279.105469 143.546875 C 279.105469 138.726562 286.339844 138.726562 286.339844 143.546875 "/>
<path style=" stroke:none;fill-rule:nonzero;fill:rgb(100%,84.3%,0%);fill-opacity:1;" d="M 296.238281 123.082031 C 296.238281 127.902344 289.007812 127.902344 289.007812 123.082031 C 289.007812 118.261719 296.238281 118.261719 296.238281 123.082031 "/>
<path style=" stroke:none;fill-rule:nonzero;fill:rgb(100%,84.3%,0%);fill-opacity:1;" d="M 199.367188 443.113281 C 199.367188 447.933594 192.136719 447.933594 192.136719 443.113281 C 192.136719 438.292969 199.367188 438.292969 199.367188 443.113281 "/>
<path style=" stroke:none;fill-rule:nonzero;fill:rgb(100%,84.3%,0%);fill-opacity:1;" d="M 322.582031 129.679688 C 322.582031 134.503906 315.351562 134.503906 315.351562 129.679688 C 315.351562 124.859375 322.582031 124.859375 322.582031 129.679688 "/>
<path style=" stroke:none;fill-rule:nonzero;fill:rgb(100%,84.3%,0%);fill-opacity:1;" d="M 414.460938 123.082031 C 414.460938 127.902344 407.230469 127.902344 407.230469 123.082031 C 407.230469 118.261719 414.460938 118.261719 414.460938 123.082031 "/>
<path style=" stroke:none;fill-rule:nonzero;fill:rgb(100%,84.3%,0%);fill-opacity:1;" d="M 294.019531 142.792969 C 294.019531 147.613281 286.785156 147.613281 286.785156 142.792969 C 286.785156 137.972656 294.019531 137.972656 294.019531 142.792969 "/>
<path style=" stroke:none;fill-rule:nonzero;fill:rgb(100%,84.3%,0%);fill-opacity:1;" d="M 410.785156 129.308594 C 410.785156 134.128906 403.550781 134.128906 403.550781 129.308594 C 403.550781 124.488281 410.785156 124.488281 410.785156 129.308594 "/>
<path style=" stroke:none;fill-rule:nonzero;fill:rgb(100%,84.3%,0%);fill-opacity:1;" d="M 128.738281 123.121094 C 128.738281 127.941406 121.503906 127.941406 121.503906 123.121094 C 121.503906 118.300781 128.738281 118.300781 128.738281 123.121094 "/>
<path style=" stroke:none;fill-rule:nonzero;fill:rgb(100%,84.3%,0%);fill-opacity:1;" d="M 53.515625 141.082031 C 53.515625 145.902344 46.28125 145.902344 46.28125 141.082031 C 46.28125 136.261719 53.515625 136.261719 53.515625 141.082031 "/>
<path style=" stroke:none;fill-rule:nonzero;fill:rgb(100%,84.3%,0%);fill-opacity:1;" d="M 125.039062 129.441406 C 125.039062 134.261719 117.808594 134.261719 117.808594 129.441406 C 117.808594 124.621094 125.039062 124.621094 125.039062 129.441406 "/>
<path style=" stroke:none;fill-rule:nonzero;fill:rgb(100%,84.3%,0%);fill-opacity:1;" d="M 436.074219 462.585938 C 436.074219 467.40625 428.84375 467.40625 428.84375 462.585938 C 428.84375 457.765625 436.074219 457.765625 436.074219 462.585938 "/>
<path style=" stroke:none;fill-rule:nonzero;fill:rgb(100%,84.3%,0%);fill-opacity:1;" d="M 191.589844 443.605469 C 191.589844 448.429688 184.359375 448.429688 184.359375 443.605469 C 184.359375 438.785156 191.589844 438.785156 191.589844 443.605469 "/>
<path style=" stroke:none;fill-rule:nonzero;fill:rgb(100%,84.3%,0%);fill-opacity:1;" d="M 62.472656 123.082031 C 62.472656 127.902344 55.238281 127.902344 55.238281 123.082031 C 55.238281 118.261719 62.472656 118.261719 62.472656 123.082031 "/>
<path style=" stroke:none;fill-rule:nonzero;fill:rgb(100%,84.3%,0%);fill-opacity:1;" d="M 138.816406 440.136719 C 138.816406 444.957031 131.585938 444.957031 131.585938 440.136719 C 131.585938 435.316406 138.816406 435.316406 138.816406 440.136719 "/>
<path style=" stroke:none;fill-rule:nonzero;fill:rgb(100%,84.3%,0%);fill-opacity:1;" d="M 224.5625 461.542969 C 224.5625 466.363281 217.332031 466.363281 217.332031 461.542969 C 217.332031 456.722656 224.5625 456.722656 224.5625 461.542969 "/>
<path style=" stroke:none;fill-rule:nonzero;fill:rgb(100%,84.3%,0%);fill-opacity:1;" d="M 76.683594 135.75 C 76.683594 140.570312 69.453125 140.570312 69.453125 135.75 C 69.453125 130.929688 76.683594 130.929688 76.683594 135.75 "/>
<path style=" stroke:none;fill-rule:nonzero;fill:rgb(100%,84.3%,0%);fill-opacity:1;" d="M 148.363281 130.152344 C 148.363281 134.972656 141.132812 134.972656 141.132812 130.152344 C 141.132812 125.328125 148.363281 125.328125 148.363281 130.152344 "/>
<path style=" stroke:none;fill-rule:nonzero;fill:rgb(100%,84.3%,0%);fill-opacity:1;" d="M 53.515625 214.933594 C 53.515625 219.753906 46.28125 219.753906 46.28125 214.933594 C 46.28125 210.113281 53.515625 210.113281 53.515625 214.933594 "/>
<path style=" stroke:none;fill-rule:nonzero;fill:rgb(100%,84.3%,0%);fill-opacity:1;" d="M 438.125 123.082031 C 438.125 127.902344 430.894531 127.902344 430.894531 123.082031 C 430.894531 118.261719 438.125 118.261719 438.125 123.082031 "/>
<path style=" stroke:none;fill-rule:nonzero;fill:rgb(100%,84.3%,0%);fill-opacity:1;" d="M 278.441406 129.5 C 278.441406 134.320312 271.210938 134.320312 271.210938 129.5 C 271.210938 124.679688 278.441406 124.679688 278.441406 129.5 "/>
<path style=" stroke:none;fill-rule:nonzero;fill:rgb(100%,84.3%,0%);fill-opacity:1;" d="M 195.289062 449.871094 C 195.289062 454.691406 188.058594 454.691406 188.058594 449.871094 C 188.058594 445.050781 195.289062 445.050781 195.289062 449.871094 "/>
<path style=" stroke:none;fill-rule:nonzero;fill:rgb(100%,84.3%,0%);fill-opacity:1;" d="M 140.4375 454.816406 C 140.4375 459.640625 133.207031 459.640625 133.207031 454.816406 C 133.207031 449.996094 140.4375 449.996094 140.4375 454.816406 "/>
<path style=" stroke:none;fill-rule:nonzero;fill:rgb(100%,84.3%,0%);fill-opacity:1;" d="M 58.550781 158.277344 C 58.550781 163.097656 51.320312 163.097656 51.320312 158.277344 C 51.320312 153.457031 58.550781 153.457031 58.550781 158.277344 "/>
<path style=" stroke:none;fill-rule:nonzero;fill:rgb(100%,84.3%,0%);fill-opacity:1;" d="M 227.265625 123.082031 C 227.265625 127.902344 220.035156 127.902344 220.035156 123.082031 C 220.035156 118.261719 227.265625 118.261719 227.265625 123.082031 "/>
<path style=" stroke:none;fill-rule:nonzero;fill:rgb(100%,84.3%,0%);fill-opacity:1;" d="M 70.101562 139.324219 C 70.101562 144.148438 62.871094 144.148438 62.871094 139.324219 C 62.871094 134.503906 70.101562 134.503906 70.101562 139.324219 "/>
</g>
</svg>
