<?xml version="1.0" encoding="UTF-8"?>
<svg xmlns="http://www.w3.org/2000/svg" xmlns:xlink="http://www.w3.org/1999/xlink" width="512pt" height="512pt" viewBox="0 0 512 512" version="1.1">
<g id="surface421">
<path style=" stroke:none;fill-rule:nonzero;fill:rgb(26.7%,26.7%,26.7%);fill-opacity:1;" d="M 159.867188 0 L 352.136719 0 L 352.136719 512 L 159.867188 512 Z M 159.867188 0 "/>
<path style=" stroke:none;fill-rule:nonzero;fill:rgb(19.2%,38.8%,66.7%);fill-opacity:1;" d="M 175.886719 42.667969 L 336.109375 42.667969 L 336.109375 469.332031 L 175.886719 469.332031 Z M 175.886719 42.667969 "/>
<path style=" stroke:none;fill-rule:nonzero;fill:rgb(90.6%,14.9%,14.9%);fill-opacity:1;" d="M 503.128906 -10.980469 C 503.128906 3.636719 491.28125 15.484375 476.664062 15.484375 C 462.046875 15.484375 450.199219 3.636719 450.199219 -10.980469 C 450.199219 -25.597656 462.046875 -37.445312 476.664062 -37.445312 C 491.28125 -37.445312 503.128906 -25.597656 503.128906 -10.980469 "/>
<path style=" stroke:none;fill-rule:nonzero;fill:rgb(90.6%,14.9%,14.9%);fill-opacity:1;" d="M 456.277344 244.378906 C 456.277344 260.375 443.308594 273.347656 427.308594 273.347656 C 411.3125 273.347656 398.339844 260.375 398.339844 244.378906 C 398.339844 228.378906 411.3125 215.40625 427.308594 215.40625 C 443.308594 215.40625 456.277344 228.378906 456.277344 244.378906 "/>
<path style=" stroke:none;fill-rule:nonzero;fill:rgb(90.6%,14.9%,14.9%);fill-opacity:1;" d="M 535.675781 440.722656 C 535.675781 447.832031 529.910156 453.597656 522.800781 453.597656 C 515.691406 453.597656 509.925781 447.832031 509.925781 440.722656 C 509.925781 433.609375 515.691406 427.847656 522.800781 427.847656 C 529.910156 427.847656 535.675781 433.609375 535.675781 440.722656 "/>
<path style=" stroke:none;fill-rule:nonzero;fill:rgb(90.6%,14.9%,14.9%);fill-opacity:1;" d="M 91.84375 132.078125 C 91.84375 147.878906 79.03125 160.6875 63.230469 160.6875 C 47.429688 160.6875 34.621094 147.878906 34.621094 132.078125 C 34.621094 116.277344 47.429688 103.464844 63.230469 103.464844 C 79.03125 103.464844 91.84375 116.277344 91.84375 132.078125 "/>
<path style=" stroke:none;fill-rule:nonzero;fill:rgb(100%,100%,100%);fill-opacity:1;" d="M 382.605469 223.632812 C 382.605469 226.015625 379.027344 226.015625 379.027344 223.632812 C 379.027344 221.25 382.605469 221.25 382.605469 223.632812 "/>
<path style=" stroke:none;fill-rule:nonzero;fill:rgb(100%,100%,100%);fill-opacity:1;" d="M 95.417969 383.855469 C 95.417969 386.242188 91.84375 386.242188 91.84375 383.855469 C 91.84375 381.472656 95.417969 381.472656 95.417969 383.855469 "/>
<path style=" stroke:none;fill-rule:nonzero;fill:rgb(100%,100%,100%);fill-opacity:1;" d="M 374.378906 19.777344 C 374.378906 22.164062 370.804688 22.164062 370.804688 19.777344 C 370.804688 17.394531 374.378906 17.394531 374.378906 19.777344 "/>
<path style=" stroke:none;fill-rule:nonzero;fill:rgb(100%,100%,100%);fill-opacity:1;" d="M 5.292969 273.347656 C 5.292969 275.730469 1.714844 275.730469 1.714844 273.347656 C 1.714844 270.960938 5.292969 270.960938 5.292969 273.347656 "/>
<path style=" stroke:none;fill-rule:nonzero;fill:rgb(100%,100%,100%);fill-opacity:1;" d="M 110.441406 466.828125 C 110.441406 469.214844 106.863281 469.214844 106.863281 466.828125 C 106.863281 464.445312 110.441406 464.445312 110.441406 466.828125 "/>
<path style=" stroke:none;fill-rule:nonzero;fill:rgb(100%,100%,100%);fill-opacity:1;" d="M 489.183594 269.054688 C 489.183594 271.4375 485.605469 271.4375 485.605469 269.054688 C 485.605469 266.667969 489.183594 266.667969 489.183594 269.054688 "/>
<path style=" stroke:none;fill-rule:nonzero;fill:rgb(100%,100%,100%);fill-opacity:1;" d="M 502.058594 91.304688 C 502.058594 93.691406 498.480469 93.691406 498.480469 91.304688 C 498.480469 88.921875 502.058594 88.921875 502.058594 91.304688 "/>
<path style=" stroke:none;fill-rule:nonzero;fill:rgb(100%,100%,100%);fill-opacity:1;" d="M 29.613281 420.695312 C 29.613281 423.078125 26.035156 423.078125 26.035156 420.695312 C 26.035156 418.308594 29.613281 418.308594 29.613281 420.695312 "/>
<path style=" stroke:none;fill-rule:nonzero;fill:rgb(100%,100%,100%);fill-opacity:1;" d="M 60.371094 44.453125 C 60.371094 46.839844 56.792969 46.839844 56.792969 44.453125 C 56.792969 42.070312 60.371094 42.070312 60.371094 44.453125 "/>
<path style=" stroke:none;fill-rule:nonzero;fill:rgb(100%,100%,100%);fill-opacity:1;" d="M 11.730469 459.675781 C 11.730469 462.0625 8.152344 462.0625 8.152344 459.675781 C 8.152344 457.292969 11.730469 457.292969 11.730469 459.675781 "/>
<path style=" stroke:none;fill-rule:nonzero;fill:rgb(100%,100%,100%);fill-opacity:1;" d="M 175.53125 367.40625 C 175.53125 369.789062 171.953125 369.789062 171.953125 367.40625 C 171.953125 365.019531 175.53125 365.019531 175.53125 367.40625 "/>
<path style=" stroke:none;fill-rule:nonzero;fill:rgb(100%,100%,100%);fill-opacity:1;" d="M 463.433594 510.105469 C 463.433594 512.488281 459.855469 512.488281 459.855469 510.105469 C 459.855469 507.71875 463.433594 507.71875 463.433594 510.105469 "/>
<path style=" stroke:none;fill-rule:nonzero;fill:rgb(100%,100%,100%);fill-opacity:1;" d="M 465.21875 287.292969 C 465.21875 289.679688 461.644531 289.679688 461.644531 287.292969 C 461.644531 284.910156 465.21875 284.910156 465.21875 287.292969 "/>
<path style=" stroke:none;fill-rule:nonzero;fill:rgb(100%,100%,100%);fill-opacity:1;" d="M 118.308594 194.308594 C 118.308594 196.691406 114.730469 196.691406 114.730469 194.308594 C 114.730469 191.921875 118.308594 191.921875 118.308594 194.308594 "/>
<path style=" stroke:none;fill-rule:nonzero;fill:rgb(100%,100%,100%);fill-opacity:1;" d="M 33.1875 351.667969 C 33.1875 354.054688 29.613281 354.054688 29.613281 351.667969 C 29.613281 349.285156 33.1875 349.285156 33.1875 351.667969 "/>
<path style=" stroke:none;fill-rule:nonzero;fill:rgb(100%,100%,100%);fill-opacity:1;" d="M 490.613281 415.6875 C 490.613281 418.070312 487.035156 418.070312 487.035156 415.6875 C 487.035156 413.300781 490.613281 413.300781 490.613281 415.6875 "/>
<path style=" stroke:none;fill-rule:nonzero;fill:rgb(100%,100%,100%);fill-opacity:1;" d="M 467.722656 114.910156 C 467.722656 117.292969 464.148438 117.292969 464.148438 114.910156 C 464.148438 112.527344 467.722656 112.527344 467.722656 114.910156 "/>
<path style=" stroke:none;fill-rule:nonzero;fill:rgb(100%,100%,100%);fill-opacity:1;" d="M 341.476562 231.144531 C 341.476562 233.527344 337.898438 233.527344 337.898438 231.144531 C 337.898438 228.757812 341.476562 228.757812 341.476562 231.144531 "/>
<path style=" stroke:none;fill-rule:nonzero;fill:rgb(100%,100%,100%);fill-opacity:1;" d="M 355.78125 313.402344 C 355.78125 315.785156 352.207031 315.785156 352.207031 313.402344 C 352.207031 311.019531 355.78125 311.019531 355.78125 313.402344 "/>
<path style=" stroke:none;fill-rule:nonzero;fill:rgb(100%,100%,100%);fill-opacity:1;" d="M 434.820312 443.582031 C 434.820312 445.96875 431.246094 445.96875 431.246094 443.582031 C 431.246094 441.199219 434.820312 441.199219 434.820312 443.582031 "/>
<path style=" stroke:none;fill-rule:nonzero;fill:rgb(100%,100%,100%);fill-opacity:1;" d="M 42.84375 182.503906 C 42.84375 184.890625 39.269531 184.890625 39.269531 182.503906 C 39.269531 180.121094 42.84375 180.121094 42.84375 182.503906 "/>
<path style=" stroke:none;fill-rule:nonzero;fill:rgb(100%,100%,100%);fill-opacity:1;" d="M 73.601562 308.394531 C 73.601562 310.777344 70.027344 310.777344 70.027344 308.394531 C 70.027344 306.011719 73.601562 306.011719 73.601562 308.394531 "/>
<path style=" stroke:none;fill-rule:nonzero;fill:rgb(100%,100%,100%);fill-opacity:1;" d="M 483.816406 231.144531 C 483.816406 233.527344 480.242188 233.527344 480.242188 231.144531 C 480.242188 228.757812 483.816406 228.757812 483.816406 231.144531 "/>
<path style=" stroke:none;fill-rule:nonzero;fill:rgb(100%,100%,100%);fill-opacity:1;" d="M 181.253906 492.222656 C 181.253906 494.605469 177.675781 494.605469 177.675781 492.222656 C 177.675781 489.835938 181.253906 489.835938 181.253906 492.222656 "/>
<path style=" stroke:none;fill-rule:nonzero;fill:rgb(100%,100%,100%);fill-opacity:1;" d="M 499.554688 369.910156 C 499.554688 372.292969 495.976562 372.292969 495.976562 369.910156 C 495.976562 367.523438 499.554688 367.523438 499.554688 369.910156 "/>
<path style=" stroke:none;fill-rule:nonzero;fill:rgb(100%,100%,100%);fill-opacity:1;" d="M 435.894531 288.367188 C 435.894531 290.75 432.316406 290.75 432.316406 288.367188 C 432.316406 285.984375 435.894531 285.984375 435.894531 288.367188 "/>
<path style=" stroke:none;fill-rule:nonzero;fill:rgb(100%,100%,100%);fill-opacity:1;" d="M 358.285156 309.109375 C 358.285156 311.496094 354.707031 311.496094 354.707031 309.109375 C 354.707031 306.726562 358.285156 306.726562 358.285156 309.109375 "/>
<path style=" stroke:none;fill-rule:nonzero;fill:rgb(100%,100%,100%);fill-opacity:1;" d="M 496.691406 368.476562 C 496.691406 370.863281 493.117188 370.863281 493.117188 368.476562 C 493.117188 366.09375 496.691406 366.09375 496.691406 368.476562 "/>
<path style=" stroke:none;fill-rule:nonzero;fill:rgb(100%,100%,100%);fill-opacity:1;" d="M 463.433594 366.332031 C 463.433594 368.714844 459.855469 368.714844 459.855469 366.332031 C 459.855469 363.949219 463.433594 363.949219 463.433594 366.332031 "/>
<path style=" stroke:none;fill-rule:nonzero;fill:rgb(100%,100%,100%);fill-opacity:1;" d="M 351.132812 324.488281 C 351.132812 326.871094 347.558594 326.871094 347.558594 324.488281 C 347.558594 322.105469 351.132812 322.105469 351.132812 324.488281 "/>
<path style=" stroke:none;fill-rule:nonzero;fill:rgb(100%,100%,100%);fill-opacity:1;" d="M 29.96875 103.109375 C 29.96875 105.492188 26.394531 105.492188 26.394531 103.109375 C 26.394531 100.722656 29.96875 100.722656 29.96875 103.109375 "/>
<path style=" stroke:none;fill-rule:nonzero;fill:rgb(100%,100%,100%);fill-opacity:1;" d="M 380.101562 244.019531 C 380.101562 246.402344 376.523438 246.402344 376.523438 244.019531 C 376.523438 241.632812 380.101562 241.632812 380.101562 244.019531 "/>
<path style=" stroke:none;fill-rule:nonzero;fill:rgb(100%,100%,100%);fill-opacity:1;" d="M 51.785156 351.667969 C 51.785156 354.054688 48.210938 354.054688 48.210938 351.667969 C 48.210938 349.285156 51.785156 349.285156 51.785156 351.667969 "/>
<path style=" stroke:none;fill-rule:nonzero;fill:rgb(100%,100%,100%);fill-opacity:1;" d="M 30.328125 356.320312 C 30.328125 358.703125 26.75 358.703125 26.75 356.320312 C 26.75 353.933594 30.328125 353.933594 30.328125 356.320312 "/>
<path style=" stroke:none;fill-rule:nonzero;fill:rgb(100%,100%,100%);fill-opacity:1;" d="M 92.199219 45.527344 C 92.199219 47.914062 88.625 47.914062 88.625 45.527344 C 88.625 43.144531 92.199219 43.144531 92.199219 45.527344 "/>
<path style=" stroke:none;fill-rule:nonzero;fill:rgb(100%,100%,100%);fill-opacity:1;" d="M 456.277344 457.53125 C 456.277344 459.914062 452.703125 459.914062 452.703125 457.53125 C 452.703125 455.148438 456.277344 455.148438 456.277344 457.53125 "/>
<path style=" stroke:none;fill-rule:nonzero;fill:rgb(100%,100%,100%);fill-opacity:1;" d="M 56.078125 231.144531 C 56.078125 233.527344 52.5 233.527344 52.5 231.144531 C 52.5 228.757812 56.078125 228.757812 56.078125 231.144531 "/>
<path style=" stroke:none;fill-rule:nonzero;fill:rgb(100%,100%,100%);fill-opacity:1;" d="M 397.269531 163.550781 C 397.269531 165.933594 393.691406 165.933594 393.691406 163.550781 C 393.691406 161.164062 397.269531 161.164062 397.269531 163.550781 "/>
<path style=" stroke:none;fill-rule:nonzero;fill:rgb(100%,100%,100%);fill-opacity:1;" d="M 395.480469 241.871094 C 395.480469 244.257812 391.902344 244.257812 391.902344 241.871094 C 391.902344 239.488281 395.480469 239.488281 395.480469 241.871094 "/>
<path style=" stroke:none;fill-rule:nonzero;fill:rgb(100%,100%,100%);fill-opacity:1;" d="M 32.832031 244.019531 C 32.832031 246.402344 29.253906 246.402344 29.253906 244.019531 C 29.253906 241.632812 32.832031 241.632812 32.832031 244.019531 "/>
<path style=" stroke:none;fill-rule:nonzero;fill:rgb(100%,100%,100%);fill-opacity:1;" d="M 333.25 477.917969 C 333.25 480.300781 329.671875 480.300781 329.671875 477.917969 C 329.671875 475.53125 333.25 475.53125 333.25 477.917969 "/>
<path style=" stroke:none;fill-rule:nonzero;fill:rgb(100%,100%,100%);fill-opacity:1;" d="M 493.832031 12.980469 C 493.832031 15.367188 490.253906 15.367188 490.253906 12.980469 C 490.253906 10.597656 493.832031 10.597656 493.832031 12.980469 "/>
<path style=" stroke:none;fill-rule:nonzero;fill:rgb(100%,100%,100%);fill-opacity:1;" d="M 150.136719 261.1875 C 150.136719 263.570312 146.5625 263.570312 146.5625 261.1875 C 146.5625 258.800781 150.136719 258.800781 150.136719 261.1875 "/>
<path style=" stroke:none;fill-rule:nonzero;fill:rgb(100%,100%,100%);fill-opacity:1;" d="M 6.722656 216.480469 C 6.722656 218.867188 3.148438 218.867188 3.148438 216.480469 C 3.148438 214.097656 6.722656 214.097656 6.722656 216.480469 "/>
<path style=" stroke:none;fill-rule:nonzero;fill:rgb(100%,84.3%,0%);fill-opacity:1;" d="M 334.324219 231.15625 C 334.324219 233.542969 330.746094 233.542969 330.746094 231.15625 C 330.746094 228.773438 334.324219 228.773438 334.324219 231.15625 "/>
<path style=" stroke:none;fill-rule:nonzero;fill:rgb(100%,84.3%,0%);fill-opacity:1;" d="M 193.667969 367.371094 C 193.667969 369.757812 190.089844 369.757812 190.089844 367.371094 C 190.089844 364.988281 193.667969 364.988281 193.667969 367.371094 "/>
<path style=" stroke:none;fill-rule:nonzero;fill:rgb(100%,84.3%,0%);fill-opacity:1;" d="M 181.253906 367.394531 C 181.253906 369.78125 177.675781 369.78125 177.675781 367.394531 C 177.675781 365.011719 181.253906 365.011719 181.253906 367.394531 "/>
<path style=" stroke:none;fill-rule:nonzero;fill:rgb(100%,84.3%,0%);fill-opacity:1;" d="M 181.253906 385.324219 C 181.253906 387.710938 177.675781 387.710938 177.675781 385.324219 C 177.675781 382.941406 181.253906 382.941406 181.253906 385.324219 "/>
<path style=" stroke:none;fill-rule:nonzero;fill:rgb(100%,84.3%,0%);fill-opacity:1;" d="M 181.253906 363.820312 C 181.253906 366.203125 177.675781 366.203125 177.675781 363.820312 C 177.675781 361.4375 181.253906 361.4375 181.253906 363.820312 "/>
<path style=" stroke:none;fill-rule:nonzero;fill:rgb(100%,84.3%,0%);fill-opacity:1;" d="M 181.253906 374.550781 C 181.253906 376.933594 177.675781 376.933594 177.675781 374.550781 C 177.675781 372.164062 181.253906 372.164062 181.253906 374.550781 "/>
<path style=" stroke:none;fill-rule:nonzero;fill:rgb(100%,84.3%,0%);fill-opacity:1;" d="M 334.3125 227.578125 C 334.3125 229.964844 330.738281 229.964844 330.738281 227.578125 C 330.738281 225.195312 334.3125 225.195312 334.3125 227.578125 "/>
<path style=" stroke:none;fill-rule:nonzero;fill:rgb(100%,84.3%,0%);fill-opacity:1;" d="M 190.664062 362.039062 C 190.664062 364.425781 187.085938 364.425781 187.085938 362.039062 C 187.085938 359.65625 190.664062 359.65625 190.664062 362.039062 "/>
<path style=" stroke:none;fill-rule:nonzero;fill:rgb(100%,84.3%,0%);fill-opacity:1;" d="M 187.511719 356.648438 C 187.511719 359.035156 183.9375 359.035156 183.9375 356.648438 C 183.9375 354.265625 187.511719 354.265625 187.511719 356.648438 "/>
<path style=" stroke:none;fill-rule:nonzero;fill:rgb(100%,84.3%,0%);fill-opacity:1;" d="M 334.324219 234.746094 C 334.324219 237.132812 330.746094 237.132812 330.746094 234.746094 C 330.746094 232.363281 334.324219 232.363281 334.324219 234.746094 "/>
<path style=" stroke:none;fill-rule:nonzero;fill:rgb(100%,84.3%,0%);fill-opacity:1;" d="M 190.589844 369.222656 C 190.589844 371.609375 187.015625 371.609375 187.015625 369.222656 C 187.015625 366.839844 190.589844 366.839844 190.589844 369.222656 "/>
<path style=" stroke:none;fill-rule:nonzero;fill:rgb(100%,84.3%,0%);fill-opacity:1;" d="M 190.585938 376.421875 C 190.585938 378.804688 187.011719 378.804688 187.011719 376.421875 C 187.011719 374.039062 190.585938 374.039062 190.585938 376.421875 "/>
<path style=" stroke:none;fill-rule:nonzero;fill:rgb(100%,84.3%,0%);fill-opacity:1;" d="M 334.320312 238.324219 C 334.320312 240.707031 330.742188 240.707031 330.742188 238.324219 C 330.742188 235.9375 334.320312 235.9375 334.320312 238.324219 "/>
<path style=" stroke:none;fill-rule:nonzero;fill:rgb(100%,84.3%,0%);fill-opacity:1;" d="M 334.3125 224.003906 C 334.3125 226.386719 330.738281 226.386719 330.738281 224.003906 C 330.738281 221.621094 334.3125 221.621094 334.3125 224.003906 "/>
<path style=" stroke:none;fill-rule:nonzero;fill:rgb(100%,84.3%,0%);fill-opacity:1;" d="M 181.253906 370.972656 C 181.253906 373.355469 177.679688 373.355469 177.679688 370.972656 C 177.679688 368.589844 181.253906 368.589844 181.253906 370.972656 "/>
<path style=" stroke:none;fill-rule:nonzero;fill:rgb(100%,84.3%,0%);fill-opacity:1;" d="M 334.324219 241.9375 C 334.324219 244.324219 330.746094 244.324219 330.746094 241.9375 C 330.746094 239.554688 334.324219 239.554688 334.324219 241.9375 "/>
<path style=" stroke:none;fill-rule:nonzero;fill:rgb(100%,84.3%,0%);fill-opacity:1;" d="M 193.808594 363.746094 C 193.808594 366.128906 190.230469 366.128906 190.230469 363.746094 C 190.230469 361.359375 193.808594 361.359375 193.808594 363.746094 "/>
<path style=" stroke:none;fill-rule:nonzero;fill:rgb(100%,84.3%,0%);fill-opacity:1;" d="M 334.324219 319.15625 C 334.324219 321.539062 330.746094 321.539062 330.746094 319.15625 C 330.746094 316.769531 334.324219 316.769531 334.324219 319.15625 "/>
<path style=" stroke:none;fill-rule:nonzero;fill:rgb(100%,84.3%,0%);fill-opacity:1;" d="M 181.261719 360.242188 C 181.261719 362.628906 177.6875 362.628906 177.6875 360.242188 C 177.6875 357.859375 181.261719 357.859375 181.261719 360.242188 "/>
<path style=" stroke:none;fill-rule:nonzero;fill:rgb(100%,84.3%,0%);fill-opacity:1;" d="M 334.324219 322.769531 C 334.324219 325.152344 330.746094 325.152344 330.746094 322.769531 C 330.746094 320.382812 334.324219 320.382812 334.324219 322.769531 "/>
<path style=" stroke:none;fill-rule:nonzero;fill:rgb(100%,84.3%,0%);fill-opacity:1;" d="M 190.617188 380.019531 C 190.617188 382.402344 187.042969 382.402344 187.042969 380.019531 C 187.042969 377.632812 190.617188 377.632812 190.617188 380.019531 "/>
<path style=" stroke:none;fill-rule:nonzero;fill:rgb(100%,84.3%,0%);fill-opacity:1;" d="M 193.671875 374.613281 C 193.671875 377 190.097656 377 190.097656 374.613281 C 190.097656 372.230469 193.671875 372.230469 193.671875 374.613281 "/>
<path style=" stroke:none;fill-rule:nonzero;fill:rgb(100%,84.3%,0%);fill-opacity:1;" d="M 184.335938 379.9375 C 184.335938 382.324219 180.761719 382.324219 180.761719 379.9375 C 180.761719 377.554688 184.335938 377.554688 184.335938 379.9375 "/>
<path style=" stroke:none;fill-rule:nonzero;fill:rgb(100%,84.3%,0%);fill-opacity:1;" d="M 190.554688 365.617188 C 190.554688 368 186.976562 368 186.976562 365.617188 C 186.976562 363.230469 190.554688 363.230469 190.554688 365.617188 "/>
<path style=" stroke:none;fill-rule:nonzero;fill:rgb(100%,84.3%,0%);fill-opacity:1;" d="M 181.257812 356.667969 C 181.257812 359.050781 177.679688 359.050781 177.679688 356.667969 C 177.679688 354.28125 181.257812 354.28125 181.257812 356.667969 "/>
<path style=" stroke:none;fill-rule:nonzero;fill:rgb(100%,84.3%,0%);fill-opacity:1;" d="M 193.839844 360.167969 C 193.839844 362.554688 190.265625 362.554688 190.265625 360.167969 C 190.265625 357.785156 193.839844 357.785156 193.839844 360.167969 "/>
<path style=" stroke:none;fill-rule:nonzero;fill:rgb(100%,84.3%,0%);fill-opacity:1;" d="M 322.476562 465.742188 C 322.476562 468.125 318.898438 468.125 318.898438 465.742188 C 318.898438 463.359375 322.476562 463.359375 322.476562 465.742188 "/>
<path style=" stroke:none;fill-rule:nonzero;fill:rgb(100%,84.3%,0%);fill-opacity:1;" d="M 184.359375 383.523438 C 184.359375 385.90625 180.78125 385.90625 180.78125 383.523438 C 180.78125 381.140625 184.359375 381.140625 184.359375 383.523438 "/>
<path style=" stroke:none;fill-rule:nonzero;fill:rgb(100%,84.3%,0%);fill-opacity:1;" d="M 187.480469 381.734375 C 187.480469 384.117188 183.902344 384.117188 183.902344 381.734375 C 183.902344 379.351562 187.480469 379.351562 187.480469 381.734375 "/>
<path style=" stroke:none;fill-rule:nonzero;fill:rgb(100%,84.3%,0%);fill-opacity:1;" d="M 187.464844 374.582031 C 187.464844 376.964844 183.886719 376.964844 183.886719 374.582031 C 183.886719 372.195312 187.464844 372.195312 187.464844 374.582031 "/>
<path style=" stroke:none;fill-rule:nonzero;fill:rgb(100%,84.3%,0%);fill-opacity:1;" d="M 181.253906 378.128906 C 181.253906 380.511719 177.675781 380.511719 177.675781 378.128906 C 177.675781 375.746094 181.253906 375.746094 181.253906 378.128906 "/>
<path style=" stroke:none;fill-rule:nonzero;fill:rgb(100%,84.3%,0%);fill-opacity:1;" d="M 193.683594 371.019531 C 193.683594 373.402344 190.105469 373.402344 190.105469 371.019531 C 190.105469 368.636719 193.683594 368.636719 193.683594 371.019531 "/>
<path style=" stroke:none;fill-rule:nonzero;fill:rgb(100%,84.3%,0%);fill-opacity:1;" d="M 184.355469 365.601562 C 184.355469 367.984375 180.777344 367.984375 180.777344 365.601562 C 180.777344 363.214844 184.355469 363.214844 184.355469 365.601562 "/>
<path style=" stroke:none;fill-rule:nonzero;fill:rgb(100%,84.3%,0%);fill-opacity:1;" d="M 326.050781 465.757812 C 326.050781 468.140625 322.476562 468.140625 322.476562 465.757812 C 322.476562 463.371094 326.050781 463.371094 326.050781 465.757812 "/>
<path style=" stroke:none;fill-rule:nonzero;fill:rgb(100%,84.3%,0%);fill-opacity:1;" d="M 181.253906 349.386719 C 181.253906 351.773438 177.675781 351.773438 177.675781 349.386719 C 177.675781 347.003906 181.253906 347.003906 181.253906 349.386719 "/>
<path style=" stroke:none;fill-rule:nonzero;fill:rgb(100%,84.3%,0%);fill-opacity:1;" d="M 327.828125 462.652344 C 327.828125 465.035156 324.25 465.035156 324.25 462.652344 C 324.25 460.265625 327.828125 460.265625 327.828125 462.652344 "/>
<path style=" stroke:none;fill-rule:nonzero;fill:rgb(100%,84.3%,0%);fill-opacity:1;" d="M 184.371094 372.757812 C 184.371094 375.140625 180.792969 375.140625 180.792969 372.757812 C 180.792969 370.371094 184.371094 370.371094 184.371094 372.757812 "/>
<path style=" stroke:none;fill-rule:nonzero;fill:rgb(100%,84.3%,0%);fill-opacity:1;" d="M 190.671875 354.871094 C 190.671875 357.257812 187.09375 357.257812 187.09375 354.871094 C 187.09375 352.488281 190.671875 352.488281 190.671875 354.871094 "/>
<path style=" stroke:none;fill-rule:nonzero;fill:rgb(100%,84.3%,0%);fill-opacity:1;" d="M 331.214844 236.550781 C 331.214844 238.933594 327.636719 238.933594 327.636719 236.550781 C 327.636719 234.164062 331.214844 234.164062 331.214844 236.550781 "/>
<path style=" stroke:none;fill-rule:nonzero;fill:rgb(100%,84.3%,0%);fill-opacity:1;" d="M 190.660156 358.449219 C 190.660156 360.835938 187.082031 360.835938 187.082031 358.449219 C 187.082031 356.066406 190.660156 356.066406 190.660156 358.449219 "/>
<path style=" stroke:none;fill-rule:nonzero;fill:rgb(100%,84.3%,0%);fill-opacity:1;" d="M 184.355469 376.347656 C 184.355469 378.730469 180.777344 378.730469 180.777344 376.347656 C 180.777344 373.964844 184.355469 373.964844 184.355469 376.347656 "/>
<path style=" stroke:none;fill-rule:nonzero;fill:rgb(100%,84.3%,0%);fill-opacity:1;" d="M 331.210938 225.785156 C 331.210938 228.167969 327.636719 228.167969 327.636719 225.785156 C 327.636719 223.402344 331.210938 223.402344 331.210938 225.785156 "/>
<path style=" stroke:none;fill-rule:nonzero;fill:rgb(100%,84.3%,0%);fill-opacity:1;" d="M 184.332031 354.84375 C 184.332031 357.226562 180.757812 357.226562 180.757812 354.84375 C 180.757812 352.457031 184.332031 352.457031 184.332031 354.84375 "/>
<path style=" stroke:none;fill-rule:nonzero;fill:rgb(100%,84.3%,0%);fill-opacity:1;" d="M 331.222656 232.964844 C 331.222656 235.351562 327.644531 235.351562 327.644531 232.964844 C 327.644531 230.582031 331.222656 230.582031 331.222656 232.964844 "/>
<path style=" stroke:none;fill-rule:nonzero;fill:rgb(100%,84.3%,0%);fill-opacity:1;" d="M 190.570312 372.808594 C 190.570312 375.191406 186.992188 375.191406 186.992188 372.808594 C 186.992188 370.425781 190.570312 370.425781 190.570312 372.808594 "/>
<path style=" stroke:none;fill-rule:nonzero;fill:rgb(100%,84.3%,0%);fill-opacity:1;" d="M 181.253906 381.75 C 181.253906 384.132812 177.675781 384.132812 177.675781 381.75 C 177.675781 379.363281 181.253906 379.363281 181.253906 381.75 "/>
<path style=" stroke:none;fill-rule:nonzero;fill:rgb(100%,84.3%,0%);fill-opacity:1;" d="M 184.402344 351.265625 C 184.402344 353.652344 180.824219 353.652344 180.824219 351.265625 C 180.824219 348.882812 184.402344 348.882812 184.402344 351.265625 "/>
<path style=" stroke:none;fill-rule:nonzero;fill:rgb(100%,84.3%,0%);fill-opacity:1;" d="M 181.253906 352.964844 C 181.253906 355.347656 177.675781 355.347656 177.675781 352.964844 C 177.675781 350.578125 181.253906 350.578125 181.253906 352.964844 "/>
<path style=" stroke:none;fill-rule:nonzero;fill:rgb(100%,84.3%,0%);fill-opacity:1;" d="M 184.351562 369.179688 C 184.351562 371.566406 180.777344 371.566406 180.777344 369.179688 C 180.777344 366.796875 184.351562 366.796875 184.351562 369.179688 "/>
<path style=" stroke:none;fill-rule:nonzero;fill:rgb(100%,84.3%,0%);fill-opacity:1;" d="M 331.21875 229.382812 C 331.21875 231.765625 327.640625 231.765625 327.640625 229.382812 C 327.640625 227 331.21875 227 331.21875 229.382812 "/>
<path style=" stroke:none;fill-rule:nonzero;fill:rgb(100%,84.3%,0%);fill-opacity:1;" d="M 187.511719 353.074219 C 187.511719 355.457031 183.9375 355.457031 183.9375 353.074219 C 183.9375 350.6875 187.511719 350.6875 187.511719 353.074219 "/>
<path style=" stroke:none;fill-rule:nonzero;fill:rgb(100%,84.3%,0%);fill-opacity:1;" d="M 184.371094 362.015625 C 184.371094 364.398438 180.792969 364.398438 180.792969 362.015625 C 180.792969 359.628906 184.371094 359.628906 184.371094 362.015625 "/>
<path style=" stroke:none;fill-rule:nonzero;fill:rgb(100%,84.3%,0%);fill-opacity:1;" d="M 187.449219 367.394531 C 187.449219 369.777344 183.875 369.777344 183.875 367.394531 C 183.875 365.007812 187.449219 365.007812 187.449219 367.394531 "/>
<path style=" stroke:none;fill-rule:nonzero;fill:rgb(100%,84.3%,0%);fill-opacity:1;" d="M 329.648438 465.757812 C 329.648438 468.140625 326.074219 468.140625 326.074219 465.757812 C 326.074219 463.371094 329.648438 463.371094 329.648438 465.757812 "/>
<path style=" stroke:none;fill-rule:nonzero;fill:rgb(100%,84.3%,0%);fill-opacity:1;" d="M 187.460938 363.8125 C 187.460938 366.195312 183.886719 366.195312 183.886719 363.8125 C 183.886719 361.425781 187.460938 361.425781 187.460938 363.8125 "/>
<path style=" stroke:none;fill-rule:nonzero;fill:rgb(100%,84.3%,0%);fill-opacity:1;" d="M 187.480469 370.988281 C 187.480469 373.375 183.902344 373.375 183.902344 370.988281 C 183.902344 368.605469 187.480469 368.605469 187.480469 370.988281 "/>
<path style=" stroke:none;fill-rule:nonzero;fill:rgb(100%,84.3%,0%);fill-opacity:1;" d="M 187.460938 378.15625 C 187.460938 380.542969 183.882812 380.542969 183.882812 378.15625 C 183.882812 375.773438 187.460938 375.773438 187.460938 378.15625 "/>
<path style=" stroke:none;fill-rule:nonzero;fill:rgb(100%,84.3%,0%);fill-opacity:1;" d="M 184.414062 358.4375 C 184.414062 360.824219 180.839844 360.824219 180.839844 358.4375 C 180.839844 356.054688 184.414062 356.054688 184.414062 358.4375 "/>
<path style=" stroke:none;fill-rule:nonzero;fill:rgb(100%,84.3%,0%);fill-opacity:1;" d="M 333.234375 465.757812 C 333.234375 468.140625 329.660156 468.140625 329.660156 465.757812 C 329.660156 463.371094 333.234375 463.371094 333.234375 465.757812 "/>
<path style=" stroke:none;fill-rule:nonzero;fill:rgb(100%,84.3%,0%);fill-opacity:1;" d="M 331.414062 462.648438 C 331.414062 465.03125 327.839844 465.03125 327.839844 462.648438 C 327.839844 460.261719 331.414062 460.261719 331.414062 462.648438 "/>
<path style=" stroke:none;fill-rule:nonzero;fill:rgb(100%,84.3%,0%);fill-opacity:1;" d="M 187.558594 360.234375 C 187.558594 362.621094 183.984375 362.621094 183.984375 360.234375 C 183.984375 357.851562 187.558594 357.851562 187.558594 360.234375 "/>
</g>
</svg>
