<?xml version="1.0" encoding="UTF-8"?>
<svg xmlns="http://www.w3.org/2000/svg" xmlns:xlink="http://www.w3.org/1999/xlink" width="512pt" height="512pt" viewBox="0 0 512 512" version="1.1">
<g id="surface436">
<rect x="0" y="0" width="512" height="512" style="fill:rgb(26.7%,26.7%,26.7%);fill-opacity:1;stroke:none;"/>
<path style=" stroke:none;fill-rule:nonzero;fill:rgb(19.2%,38.8%,66.7%);fill-opacity:1;" d="M 42.667969 102.601562 L 469.332031 102.601562 L 469.332031 474.78125 L 42.667969 474.78125 Z M 42.667969 102.601562 "/>
<path style=" stroke:none;fill-rule:nonzero;fill:rgb(90.6%,14.9%,14.9%);fill-opacity:1;" d="M 38.972656 303.007812 C 38.972656 342.28125 7.132812 374.117188 -32.140625 374.117188 C -71.414062 374.117188 -103.25 342.28125 -103.25 303.007812 C -103.25 263.734375 -71.414062 231.894531 -32.140625 231.894531 C 7.132812 231.894531 38.972656 263.734375 38.972656 303.007812 "/>
<path style=" stroke:none;fill-rule:nonzero;fill:rgb(90.6%,14.9%,14.9%);fill-opacity:1;" d="M 328.035156 23.179688 C 328.035156 62.964844 295.785156 95.214844 256 95.214844 C 216.214844 95.214844 183.964844 62.964844 183.964844 23.179688 C 183.964844 -16.605469 216.214844 -48.855469 256 -48.855469 C 295.785156 -48.855469 328.035156 -16.605469 328.035156 23.179688 "/>
<path style=" stroke:none;fill-rule:nonzero;fill:rgb(90.6%,14.9%,14.9%);fill-opacity:1;" d="M 30.660156 363.035156 C 30.660156 401.800781 -0.761719 433.222656 -39.527344 433.222656 C -78.289062 433.222656 -109.714844 401.800781 -109.714844 363.035156 C -109.714844 324.273438 -78.289062 292.847656 -39.527344 292.847656 C -0.761719 292.847656 30.660156 324.273438 30.660156 363.035156 "/>
<path style=" stroke:none;fill-rule:nonzero;fill:rgb(90.6%,14.9%,14.9%);fill-opacity:1;" d="M 400.070312 541.277344 C 400.070312 560.148438 384.769531 575.445312 365.898438 575.445312 C 347.027344 575.445312 331.730469 560.148438 331.730469 541.277344 C 331.730469 522.402344 347.027344 507.105469 365.898438 507.105469 C 384.769531 507.105469 400.070312 522.402344 400.070312 541.277344 "/>
<path style=" stroke:none;fill-rule:nonzero;fill:rgb(90.6%,14.9%,14.9%);fill-opacity:1;" d="M 263.386719 84.132812 C 263.386719 88.214844 260.082031 91.519531 256 91.519531 C 251.917969 91.519531 248.613281 88.214844 248.613281 84.132812 C 248.613281 80.050781 251.917969 76.746094 256 76.746094 C 260.082031 76.746094 263.386719 80.050781 263.386719 84.132812 "/>
<path style=" stroke:none;fill-rule:nonzero;fill:rgb(90.6%,14.9%,14.9%);fill-opacity:1;" d="M 624.484375 203.265625 C 624.484375 244.582031 590.992188 278.070312 549.679688 278.070312 C 508.367188 278.070312 474.875 244.582031 474.875 203.265625 C 474.875 161.953125 508.367188 128.460938 549.679688 128.460938 C 590.992188 128.460938 624.484375 161.953125 624.484375 203.265625 "/>
<path style=" stroke:none;fill-rule:nonzero;fill:rgb(100%,100%,100%);fill-opacity:1;" d="M 42.667969 94.289062 C 42.667969 100.449219 33.429688 100.449219 33.429688 94.289062 C 33.429688 88.132812 42.667969 88.132812 42.667969 94.289062 "/>
<path style=" stroke:none;fill-rule:nonzero;fill:rgb(100%,100%,100%);fill-opacity:1;" d="M 195.046875 481.246094 C 195.046875 487.402344 185.8125 487.402344 185.8125 481.246094 C 185.8125 475.089844 195.046875 475.089844 195.046875 481.246094 "/>
<path style=" stroke:none;fill-rule:nonzero;fill:rgb(100%,100%,100%);fill-opacity:1;" d="M 501.65625 427.683594 C 501.65625 433.839844 492.421875 433.839844 492.421875 427.683594 C 492.421875 421.527344 501.65625 421.527344 501.65625 427.683594 "/>
<path style=" stroke:none;fill-rule:nonzero;fill:rgb(100%,100%,100%);fill-opacity:1;" d="M 378.828125 37.03125 C 378.828125 43.191406 369.59375 43.191406 369.59375 37.03125 C 369.59375 30.875 378.828125 30.875 378.828125 37.03125 "/>
<path style=" stroke:none;fill-rule:nonzero;fill:rgb(100%,100%,100%);fill-opacity:1;" d="M 420.386719 477.554688 C 420.386719 483.710938 411.152344 483.710938 411.152344 477.554688 C 411.152344 471.394531 420.386719 471.394531 420.386719 477.554688 "/>
<path style=" stroke:none;fill-rule:nonzero;fill:rgb(100%,100%,100%);fill-opacity:1;" d="M 474.875 455.386719 C 474.875 461.542969 465.640625 461.542969 465.640625 455.386719 C 465.640625 449.230469 474.875 449.230469 474.875 455.386719 "/>
<path style=" stroke:none;fill-rule:nonzero;fill:rgb(100%,84.3%,0%);fill-opacity:1;" d="M 464.714844 403.9375 C 464.714844 410.097656 455.480469 410.097656 455.480469 403.9375 C 455.480469 397.78125 464.714844 397.78125 464.714844 403.9375 "/>
<path style=" stroke:none;fill-rule:nonzero;fill:rgb(100%,84.3%,0%);fill-opacity:1;" d="M 84.390625 148.902344 C 84.390625 155.058594 75.15625 155.058594 75.15625 148.902344 C 75.15625 142.746094 84.390625 142.746094 84.390625 148.902344 "/>
<path style=" stroke:none;fill-rule:nonzero;fill:rgb(100%,84.3%,0%);fill-opacity:1;" d="M 85.082031 465.546875 C 85.082031 471.703125 75.847656 471.703125 75.847656 465.546875 C 75.847656 459.390625 85.082031 459.390625 85.082031 465.546875 "/>
<path style=" stroke:none;fill-rule:nonzero;fill:rgb(100%,84.3%,0%);fill-opacity:1;" d="M 195.046875 465.546875 C 195.046875 471.703125 185.8125 471.703125 185.8125 465.546875 C 185.8125 459.390625 195.046875 459.390625 195.046875 465.546875 "/>
<path style=" stroke:none;fill-rule:nonzero;fill:rgb(100%,84.3%,0%);fill-opacity:1;" d="M 464.714844 455.464844 C 464.714844 461.621094 455.480469 461.621094 455.480469 455.464844 C 455.480469 449.308594 464.714844 449.308594 464.714844 455.464844 "/>
<path style=" stroke:none;fill-rule:nonzero;fill:rgb(100%,84.3%,0%);fill-opacity:1;" d="M 464.714844 394.53125 C 464.714844 400.6875 455.480469 400.6875 455.480469 394.53125 C 455.480469 388.375 464.714844 388.375 464.714844 394.53125 "/>
<path style=" stroke:none;fill-rule:nonzero;fill:rgb(100%,84.3%,0%);fill-opacity:1;" d="M 378.398438 111.839844 C 378.398438 117.996094 369.164062 117.996094 369.164062 111.839844 C 369.164062 105.679688 378.398438 105.679688 378.398438 111.839844 "/>
<path style=" stroke:none;fill-rule:nonzero;fill:rgb(100%,84.3%,0%);fill-opacity:1;" d="M 204.328125 465.546875 C 204.328125 471.703125 195.09375 471.703125 195.09375 465.546875 C 195.09375 459.390625 204.328125 459.390625 204.328125 465.546875 "/>
<path style=" stroke:none;fill-rule:nonzero;fill:rgb(100%,84.3%,0%);fill-opacity:1;" d="M 387.632812 111.839844 C 387.632812 117.996094 378.398438 117.996094 378.398438 111.839844 C 378.398438 105.679688 387.632812 105.679688 387.632812 111.839844 "/>
<path style=" stroke:none;fill-rule:nonzero;fill:rgb(100%,84.3%,0%);fill-opacity:1;" d="M 464.714844 464.933594 C 464.714844 471.089844 455.480469 471.089844 455.480469 464.933594 C 455.480469 458.777344 464.714844 458.777344 464.714844 464.933594 "/>
<path style=" stroke:none;fill-rule:nonzero;fill:rgb(100%,84.3%,0%);fill-opacity:1;" d="M 94.363281 465.546875 C 94.363281 471.703125 85.128906 471.703125 85.128906 465.546875 C 85.128906 459.390625 94.363281 459.390625 94.363281 465.546875 "/>
<path style=" stroke:none;fill-rule:nonzero;fill:rgb(100%,84.3%,0%);fill-opacity:1;" d="M 464.699219 446.226562 C 464.699219 452.386719 455.464844 452.386719 455.464844 446.226562 C 455.464844 440.070312 464.699219 440.070312 464.699219 446.226562 "/>
<path style=" stroke:none;fill-rule:nonzero;fill:rgb(100%,84.3%,0%);fill-opacity:1;" d="M 75.449219 465.546875 C 75.449219 471.703125 66.214844 471.703125 66.214844 465.546875 C 66.214844 459.390625 75.449219 459.390625 75.449219 465.546875 "/>
<path style=" stroke:none;fill-rule:nonzero;fill:rgb(100%,84.3%,0%);fill-opacity:1;" d="M 103.699219 465.546875 C 103.699219 471.703125 94.464844 471.703125 94.464844 465.546875 C 94.464844 459.390625 103.699219 459.390625 103.699219 465.546875 "/>
<path style=" stroke:none;fill-rule:nonzero;fill:rgb(100%,84.3%,0%);fill-opacity:1;" d="M 93.476562 139.691406 C 93.476562 145.851562 84.242188 145.851562 84.242188 139.691406 C 84.242188 133.535156 93.476562 133.535156 93.476562 139.691406 "/>
<path style=" stroke:none;fill-rule:nonzero;fill:rgb(100%,84.3%,0%);fill-opacity:1;" d="M 429.621094 465.546875 C 429.621094 471.703125 420.382812 471.703125 420.382812 465.546875 C 420.382812 459.390625 429.621094 459.390625 429.621094 465.546875 "/>
<path style=" stroke:none;fill-rule:nonzero;fill:rgb(100%,84.3%,0%);fill-opacity:1;" d="M 185.8125 465.539062 C 185.8125 471.695312 176.578125 471.695312 176.578125 465.539062 C 176.578125 459.382812 185.8125 459.382812 185.8125 465.539062 "/>
<path style=" stroke:none;fill-rule:nonzero;fill:rgb(100%,84.3%,0%);fill-opacity:1;" d="M 369.15625 111.839844 C 369.15625 117.996094 359.921875 117.996094 359.921875 111.839844 C 359.921875 105.679688 369.15625 105.679688 369.15625 111.839844 "/>
<path style=" stroke:none;fill-rule:nonzero;fill:rgb(100%,84.3%,0%);fill-opacity:1;" d="M 65.953125 465.546875 C 65.953125 471.703125 56.714844 471.703125 56.714844 465.546875 C 56.714844 459.390625 65.953125 459.390625 65.953125 465.546875 "/>
<path style=" stroke:none;fill-rule:nonzero;fill:rgb(100%,84.3%,0%);fill-opacity:1;" d="M 56.519531 111.839844 C 56.519531 117.996094 47.285156 117.996094 47.285156 111.839844 C 47.285156 105.679688 56.519531 105.679688 56.519531 111.839844 "/>
<path style=" stroke:none;fill-rule:nonzero;fill:rgb(100%,84.3%,0%);fill-opacity:1;" d="M 456.785156 460.199219 C 456.785156 466.355469 447.550781 466.355469 447.550781 460.199219 C 447.550781 454.042969 456.785156 454.042969 456.785156 460.199219 "/>
<path style=" stroke:none;fill-rule:nonzero;fill:rgb(100%,84.3%,0%);fill-opacity:1;" d="M 199.695312 457.558594 C 199.695312 463.714844 190.460938 463.714844 190.460938 457.558594 C 190.460938 451.398438 199.695312 451.398438 199.695312 457.558594 "/>
<path style=" stroke:none;fill-rule:nonzero;fill:rgb(100%,84.3%,0%);fill-opacity:1;" d="M 84.234375 139.667969 C 84.234375 145.824219 75 145.824219 75 139.667969 C 75 133.511719 84.234375 133.511719 84.234375 139.667969 "/>
<path style=" stroke:none;fill-rule:nonzero;fill:rgb(100%,84.3%,0%);fill-opacity:1;" d="M 190.449219 457.539062 C 190.449219 463.695312 181.214844 463.695312 181.214844 457.539062 C 181.214844 451.382812 190.449219 451.382812 190.449219 457.539062 "/>
<path style=" stroke:none;fill-rule:nonzero;fill:rgb(100%,84.3%,0%);fill-opacity:1;" d="M 359.832031 111.839844 C 359.832031 117.996094 350.597656 117.996094 350.597656 111.839844 C 350.597656 105.679688 359.832031 105.679688 359.832031 111.839844 "/>
<path style=" stroke:none;fill-rule:nonzero;fill:rgb(100%,84.3%,0%);fill-opacity:1;" d="M 396.867188 111.839844 C 396.867188 117.996094 387.632812 117.996094 387.632812 111.839844 C 387.632812 105.679688 396.867188 105.679688 396.867188 111.839844 "/>
<path style=" stroke:none;fill-rule:nonzero;fill:rgb(100%,84.3%,0%);fill-opacity:1;" d="M 464.714844 385.101562 C 464.714844 391.257812 455.480469 391.257812 455.480469 385.101562 C 455.480469 378.941406 464.714844 378.941406 464.714844 385.101562 "/>
<path style=" stroke:none;fill-rule:nonzero;fill:rgb(100%,84.3%,0%);fill-opacity:1;" d="M 213.644531 465.546875 C 213.644531 471.703125 204.410156 471.703125 204.410156 465.546875 C 204.410156 459.390625 213.644531 459.390625 213.644531 465.546875 "/>
<path style=" stroke:none;fill-rule:nonzero;fill:rgb(100%,84.3%,0%);fill-opacity:1;" d="M 112.933594 465.546875 C 112.933594 471.703125 103.699219 471.703125 103.699219 465.546875 C 103.699219 459.390625 112.933594 459.390625 112.933594 465.546875 "/>
<path style=" stroke:none;fill-rule:nonzero;fill:rgb(100%,84.3%,0%);fill-opacity:1;" d="M 176.574219 465.546875 C 176.574219 471.703125 167.335938 471.703125 167.335938 465.546875 C 167.335938 459.390625 176.574219 459.390625 176.574219 465.546875 "/>
<path style=" stroke:none;fill-rule:nonzero;fill:rgb(100%,84.3%,0%);fill-opacity:1;" d="M 65.753906 111.929688 C 65.753906 118.085938 56.519531 118.085938 56.519531 111.929688 C 56.519531 105.773438 65.753906 105.773438 65.753906 111.929688 "/>
<path style=" stroke:none;fill-rule:nonzero;fill:rgb(100%,84.3%,0%);fill-opacity:1;" d="M 456.707031 450.867188 C 456.707031 457.023438 447.46875 457.023438 447.46875 450.867188 C 447.46875 444.710938 456.707031 444.710938 456.707031 450.867188 "/>
<path style=" stroke:none;fill-rule:nonzero;fill:rgb(100%,84.3%,0%);fill-opacity:1;" d="M 369.332031 457.453125 C 369.332031 463.613281 360.097656 463.613281 360.097656 457.453125 C 360.097656 451.296875 369.332031 451.296875 369.332031 457.453125 "/>
<path style=" stroke:none;fill-rule:nonzero;fill:rgb(100%,84.3%,0%);fill-opacity:1;" d="M 438.941406 465.546875 C 438.941406 471.703125 429.707031 471.703125 429.707031 465.546875 C 429.707031 459.390625 438.941406 459.390625 438.941406 465.546875 "/>
<path style=" stroke:none;fill-rule:nonzero;fill:rgb(100%,84.3%,0%);fill-opacity:1;" d="M 56.59375 121.074219 C 56.59375 127.230469 47.359375 127.230469 47.359375 121.074219 C 47.359375 114.917969 56.59375 114.917969 56.59375 121.074219 "/>
<path style=" stroke:none;fill-rule:nonzero;fill:rgb(100%,84.3%,0%);fill-opacity:1;" d="M 350.574219 111.839844 C 350.574219 117.996094 341.339844 117.996094 341.339844 111.839844 C 341.339844 105.679688 350.574219 105.679688 350.574219 111.839844 "/>
<path style=" stroke:none;fill-rule:nonzero;fill:rgb(100%,84.3%,0%);fill-opacity:1;" d="M 406.105469 111.839844 C 406.105469 117.996094 396.867188 117.996094 396.867188 111.839844 C 396.867188 105.679688 406.105469 105.679688 406.105469 111.839844 "/>
<path style=" stroke:none;fill-rule:nonzero;fill:rgb(100%,84.3%,0%);fill-opacity:1;" d="M 93.550781 121.210938 C 93.550781 127.367188 84.316406 127.367188 84.316406 121.210938 C 84.316406 115.050781 93.550781 115.050781 93.550781 121.210938 "/>
<path style=" stroke:none;fill-rule:nonzero;fill:rgb(100%,84.3%,0%);fill-opacity:1;" d="M 56.519531 130.324219 C 56.519531 136.480469 47.285156 136.480469 47.285156 130.324219 C 47.285156 124.167969 56.519531 124.167969 56.519531 130.324219 "/>
<path style=" stroke:none;fill-rule:nonzero;fill:rgb(100%,84.3%,0%);fill-opacity:1;" d="M 464.714844 375.859375 C 464.714844 382.015625 455.480469 382.015625 455.480469 375.859375 C 455.480469 369.703125 464.714844 369.703125 464.714844 375.859375 "/>
<path style=" stroke:none;fill-rule:nonzero;fill:rgb(100%,84.3%,0%);fill-opacity:1;" d="M 456.769531 399.234375 C 456.769531 405.390625 447.53125 405.390625 447.53125 399.234375 C 447.53125 393.078125 456.769531 393.078125 456.769531 399.234375 "/>
<path style=" stroke:none;fill-rule:nonzero;fill:rgb(100%,84.3%,0%);fill-opacity:1;" d="M 383.042969 119.851562 C 383.042969 126.011719 373.808594 126.011719 373.808594 119.851562 C 373.808594 113.695312 383.042969 113.695312 383.042969 119.851562 "/>
<path style=" stroke:none;fill-rule:nonzero;fill:rgb(100%,84.3%,0%);fill-opacity:1;" d="M 424.898438 457.507812 C 424.898438 463.664062 415.664062 463.664062 415.664062 457.507812 C 415.664062 451.347656 424.898438 451.347656 424.898438 457.507812 "/>
<path style=" stroke:none;fill-rule:nonzero;fill:rgb(100%,84.3%,0%);fill-opacity:1;" d="M 373.773438 119.835938 C 373.773438 125.992188 364.539062 125.992188 364.539062 119.835938 C 364.539062 113.679688 373.773438 113.679688 373.773438 119.835938 "/>
<path style=" stroke:none;fill-rule:nonzero;fill:rgb(100%,84.3%,0%);fill-opacity:1;" d="M 102.785156 121.175781 C 102.785156 127.332031 93.550781 127.332031 93.550781 121.175781 C 93.550781 115.019531 102.785156 115.019531 102.785156 121.175781 "/>
<path style=" stroke:none;fill-rule:nonzero;fill:rgb(100%,84.3%,0%);fill-opacity:1;" d="M 56.707031 465.546875 C 56.707031 471.703125 47.472656 471.703125 47.472656 465.546875 C 47.472656 459.390625 56.707031 459.390625 56.707031 465.546875 "/>
<path style=" stroke:none;fill-rule:nonzero;fill:rgb(100%,84.3%,0%);fill-opacity:1;" d="M 209.007812 457.558594 C 209.007812 463.714844 199.773438 463.714844 199.773438 457.558594 C 199.773438 451.402344 209.007812 451.402344 209.007812 457.558594 "/>
<path style=" stroke:none;fill-rule:nonzero;fill:rgb(100%,84.3%,0%);fill-opacity:1;" d="M 122.375 465.546875 C 122.375 471.703125 113.140625 471.703125 113.140625 465.546875 C 113.140625 459.390625 122.375 459.390625 122.375 465.546875 "/>
<path style=" stroke:none;fill-rule:nonzero;fill:rgb(100%,84.3%,0%);fill-opacity:1;" d="M 135.992188 465.546875 C 135.992188 471.703125 126.757812 471.703125 126.757812 465.546875 C 126.757812 459.390625 135.992188 459.390625 135.992188 465.546875 "/>
<path style=" stroke:none;fill-rule:nonzero;fill:rgb(100%,84.3%,0%);fill-opacity:1;" d="M 415.664062 457.5 C 415.664062 463.65625 406.429688 463.65625 406.429688 457.5 C 406.429688 451.34375 415.664062 451.34375 415.664062 457.5 "/>
<path style=" stroke:none;fill-rule:nonzero;fill:rgb(100%,84.3%,0%);fill-opacity:1;" d="M 181.140625 457.519531 C 181.140625 463.679688 171.90625 463.679688 171.90625 457.519531 C 171.90625 451.363281 181.140625 451.363281 181.140625 457.519531 "/>
<path style=" stroke:none;fill-rule:nonzero;fill:rgb(100%,84.3%,0%);fill-opacity:1;" d="M 80.335938 457.625 C 80.335938 463.78125 71.101562 463.78125 71.101562 457.625 C 71.101562 451.46875 80.335938 451.46875 80.335938 457.625 "/>
<path style=" stroke:none;fill-rule:nonzero;fill:rgb(100%,84.3%,0%);fill-opacity:1;" d="M 394.945312 421.539062 C 394.945312 427.695312 385.710938 427.695312 385.710938 421.539062 C 385.710938 415.382812 394.945312 415.382812 394.945312 421.539062 "/>
<path style=" stroke:none;fill-rule:nonzero;fill:rgb(100%,84.3%,0%);fill-opacity:1;" d="M 341.339844 111.882812 C 341.339844 118.039062 332.105469 118.039062 332.105469 111.882812 C 332.105469 105.726562 341.339844 105.726562 341.339844 111.882812 "/>
<path style=" stroke:none;fill-rule:nonzero;fill:rgb(100%,84.3%,0%);fill-opacity:1;" d="M 415.339844 111.839844 C 415.339844 117.996094 406.101562 117.996094 406.101562 111.839844 C 406.101562 105.679688 415.339844 105.679688 415.339844 111.839844 "/>
<path style=" stroke:none;fill-rule:nonzero;fill:rgb(100%,84.3%,0%);fill-opacity:1;" d="M 65.84375 121.164062 C 65.84375 127.320312 56.609375 127.320312 56.609375 121.164062 C 56.609375 115.007812 65.84375 115.007812 65.84375 121.164062 "/>
<path style=" stroke:none;fill-rule:nonzero;fill:rgb(100%,84.3%,0%);fill-opacity:1;" d="M 195.097656 449.550781 C 195.097656 455.707031 185.863281 455.707031 185.863281 449.550781 C 185.863281 443.390625 195.097656 443.390625 195.097656 449.550781 "/>
<path style=" stroke:none;fill-rule:nonzero;fill:rgb(100%,84.3%,0%);fill-opacity:1;" d="M 222.878906 465.523438 C 222.878906 471.679688 213.644531 471.679688 213.644531 465.523438 C 213.644531 459.367188 222.878906 459.367188 222.878906 465.523438 "/>
<path style=" stroke:none;fill-rule:nonzero;fill:rgb(100%,84.3%,0%);fill-opacity:1;" d="M 167.335938 465.503906 C 167.335938 471.660156 158.101562 471.660156 158.101562 465.503906 C 158.101562 459.34375 167.335938 459.34375 167.335938 465.503906 "/>
<path style=" stroke:none;fill-rule:nonzero;fill:rgb(100%,84.3%,0%);fill-opacity:1;" d="M 89.75 457.546875 C 89.75 463.703125 80.515625 463.703125 80.515625 457.546875 C 80.515625 451.390625 89.75 451.390625 89.75 457.546875 "/>
<path style=" stroke:none;fill-rule:nonzero;fill:rgb(100%,84.3%,0%);fill-opacity:1;" d="M 448.183594 463.554688 C 448.183594 469.710938 438.949219 469.710938 438.949219 463.554688 C 438.949219 457.398438 448.183594 457.398438 448.183594 463.554688 "/>
<path style=" stroke:none;fill-rule:nonzero;fill:rgb(100%,84.3%,0%);fill-opacity:1;" d="M 75.011719 148.824219 C 75.011719 154.980469 65.777344 154.980469 65.777344 148.824219 C 65.777344 142.667969 75.011719 142.667969 75.011719 148.824219 "/>
<path style=" stroke:none;fill-rule:nonzero;fill:rgb(100%,84.3%,0%);fill-opacity:1;" d="M 456.769531 389.824219 C 456.769531 395.984375 447.535156 395.984375 447.535156 389.824219 C 447.535156 383.667969 456.769531 383.667969 456.769531 389.824219 "/>
<path style=" stroke:none;fill-rule:nonzero;fill:rgb(100%,84.3%,0%);fill-opacity:1;" d="M 456.691406 441.632812 C 456.691406 447.789062 447.453125 447.789062 447.453125 441.632812 C 447.453125 435.476562 456.691406 435.476562 456.691406 441.632812 "/>
<path style=" stroke:none;fill-rule:nonzero;fill:rgb(100%,84.3%,0%);fill-opacity:1;" d="M 93.472656 130.457031 C 93.472656 136.613281 84.238281 136.613281 84.238281 130.457031 C 84.238281 124.300781 93.472656 124.300781 93.472656 130.457031 "/>
<path style=" stroke:none;fill-rule:nonzero;fill:rgb(100%,84.3%,0%);fill-opacity:1;" d="M 99.027344 457.578125 C 99.027344 463.734375 89.792969 463.734375 89.792969 457.578125 C 89.792969 451.421875 99.027344 451.421875 99.027344 457.578125 "/>
<path style=" stroke:none;fill-rule:nonzero;fill:rgb(100%,84.3%,0%);fill-opacity:1;" d="M 74.988281 111.851562 C 74.988281 118.007812 65.753906 118.007812 65.753906 111.851562 C 65.753906 105.695312 74.988281 105.695312 74.988281 111.851562 "/>
<path style=" stroke:none;fill-rule:nonzero;fill:rgb(100%,84.3%,0%);fill-opacity:1;" d="M 204.332031 449.53125 C 204.332031 455.6875 195.097656 455.6875 195.097656 449.53125 C 195.097656 443.375 204.332031 443.375 204.332031 449.53125 "/>
<path style=" stroke:none;fill-rule:nonzero;fill:rgb(100%,84.3%,0%);fill-opacity:1;" d="M 434.285156 457.570312 C 434.285156 463.730469 425.050781 463.730469 425.050781 457.570312 C 425.050781 451.414062 434.285156 451.414062 434.285156 457.570312 "/>
<path style=" stroke:none;fill-rule:nonzero;fill:rgb(100%,84.3%,0%);fill-opacity:1;" d="M 218.257812 457.527344 C 218.257812 463.683594 209.023438 463.683594 209.023438 457.527344 C 209.023438 451.371094 218.257812 451.371094 218.257812 457.527344 "/>
<path style=" stroke:none;fill-rule:nonzero;fill:rgb(100%,84.3%,0%);fill-opacity:1;" d="M 185.820312 449.546875 C 185.820312 455.703125 176.582031 455.703125 176.582031 449.546875 C 176.582031 443.390625 185.820312 443.390625 185.820312 449.546875 "/>
<path style=" stroke:none;fill-rule:nonzero;fill:rgb(100%,84.3%,0%);fill-opacity:1;" d="M 75 139.570312 C 75 145.730469 65.765625 145.730469 65.765625 139.570312 C 65.765625 133.414062 75 133.414062 75 139.570312 "/>
<path style=" stroke:none;fill-rule:nonzero;fill:rgb(100%,84.3%,0%);fill-opacity:1;" d="M 448.015625 454.320312 C 448.015625 460.476562 438.78125 460.476562 438.78125 454.320312 C 438.78125 448.164062 448.015625 448.164062 448.015625 454.320312 "/>
<path style=" stroke:none;fill-rule:nonzero;fill:rgb(100%,84.3%,0%);fill-opacity:1;" d="M 364.511719 119.820312 C 364.511719 125.976562 355.277344 125.976562 355.277344 119.820312 C 355.277344 113.664062 364.511719 113.664062 364.511719 119.820312 "/>
<path style=" stroke:none;fill-rule:nonzero;fill:rgb(100%,84.3%,0%);fill-opacity:1;" d="M 401.84375 465.507812 C 401.84375 471.664062 392.605469 471.664062 392.605469 465.507812 C 392.605469 459.347656 401.84375 459.347656 401.84375 465.507812 "/>
<path style=" stroke:none;fill-rule:nonzero;fill:rgb(100%,84.3%,0%);fill-opacity:1;" d="M 406.261719 457.398438 C 406.261719 463.554688 397.027344 463.554688 397.027344 457.398438 C 397.027344 451.238281 406.261719 451.238281 406.261719 457.398438 "/>
<path style=" stroke:none;fill-rule:nonzero;fill:rgb(100%,84.3%,0%);fill-opacity:1;" d="M 448.121094 445.085938 C 448.121094 451.242188 438.886719 451.242188 438.886719 445.085938 C 438.886719 438.929688 448.121094 438.929688 448.121094 445.085938 "/>
<path style=" stroke:none;fill-rule:nonzero;fill:rgb(100%,84.3%,0%);fill-opacity:1;" d="M 364.347656 465.546875 C 364.347656 471.703125 355.113281 471.703125 355.113281 465.546875 C 355.113281 459.390625 364.347656 459.390625 364.347656 465.546875 "/>
<path style=" stroke:none;fill-rule:nonzero;fill:rgb(100%,84.3%,0%);fill-opacity:1;" d="M 392.910156 120.183594 C 392.910156 126.339844 383.675781 126.339844 383.675781 120.183594 C 383.675781 114.023438 392.910156 114.023438 392.910156 120.183594 "/>
<path style=" stroke:none;fill-rule:nonzero;fill:rgb(100%,84.3%,0%);fill-opacity:1;" d="M 70.75 457.597656 C 70.75 463.753906 61.515625 463.753906 61.515625 457.597656 C 61.515625 451.4375 70.75 451.4375 70.75 457.597656 "/>
<path style=" stroke:none;fill-rule:nonzero;fill:rgb(100%,84.3%,0%);fill-opacity:1;" d="M 355.210938 119.835938 C 355.210938 125.992188 345.976562 125.992188 345.976562 119.835938 C 345.976562 113.675781 355.210938 113.675781 355.210938 119.835938 "/>
<path style=" stroke:none;fill-rule:nonzero;fill:rgb(100%,84.3%,0%);fill-opacity:1;" d="M 65.777344 148.882812 C 65.777344 155.039062 56.539062 155.039062 56.539062 148.882812 C 56.539062 142.726562 65.777344 142.726562 65.777344 148.882812 "/>
<path style=" stroke:none;fill-rule:nonzero;fill:rgb(100%,84.3%,0%);fill-opacity:1;" d="M 56.523438 148.796875 C 56.523438 154.953125 47.289062 154.953125 47.289062 148.796875 C 47.289062 142.640625 56.523438 142.640625 56.523438 148.796875 "/>
<path style=" stroke:none;fill-rule:nonzero;fill:rgb(100%,84.3%,0%);fill-opacity:1;" d="M 108.3125 457.546875 C 108.3125 463.703125 99.078125 463.703125 99.078125 457.546875 C 99.078125 451.390625 108.3125 451.390625 108.3125 457.546875 "/>
<path style=" stroke:none;fill-rule:nonzero;fill:rgb(100%,84.3%,0%);fill-opacity:1;" d="M 439.828125 450.050781 C 439.828125 456.207031 430.589844 456.207031 430.589844 450.050781 C 430.589844 443.894531 439.828125 443.894531 439.828125 450.050781 "/>
<path style=" stroke:none;fill-rule:nonzero;fill:rgb(100%,84.3%,0%);fill-opacity:1;" d="M 171.90625 457.425781 C 171.90625 463.582031 162.671875 463.582031 162.671875 457.425781 C 162.671875 451.269531 171.90625 451.269531 171.90625 457.425781 "/>
<path style=" stroke:none;fill-rule:nonzero;fill:rgb(100%,84.3%,0%);fill-opacity:1;" d="M 61.398438 457.511719 C 61.398438 463.667969 52.160156 463.667969 52.160156 457.511719 C 52.160156 451.355469 61.398438 451.355469 61.398438 457.511719 "/>
<path style=" stroke:none;fill-rule:nonzero;fill:rgb(100%,84.3%,0%);fill-opacity:1;" d="M 162.496094 425.269531 C 162.496094 431.429688 153.261719 431.429688 153.261719 425.269531 C 153.261719 419.113281 162.496094 419.113281 162.496094 425.269531 "/>
<path style=" stroke:none;fill-rule:nonzero;fill:rgb(100%,84.3%,0%);fill-opacity:1;" d="M 429.636719 449.578125 C 429.636719 455.734375 420.402344 455.734375 420.402344 449.578125 C 420.402344 443.421875 429.636719 443.421875 429.636719 449.578125 "/>
<path style=" stroke:none;fill-rule:nonzero;fill:rgb(100%,84.3%,0%);fill-opacity:1;" d="M 129.171875 459.296875 C 129.171875 465.453125 119.9375 465.453125 119.9375 459.296875 C 119.9375 453.136719 129.171875 453.136719 129.171875 459.296875 "/>
<path style=" stroke:none;fill-rule:nonzero;fill:rgb(100%,84.3%,0%);fill-opacity:1;" d="M 117.605469 457.578125 C 117.605469 463.738281 108.371094 463.738281 108.371094 457.578125 C 108.371094 451.421875 117.605469 451.421875 117.605469 457.578125 "/>
<path style=" stroke:none;fill-rule:nonzero;fill:rgb(100%,84.3%,0%);fill-opacity:1;" d="M 56.578125 158.03125 C 56.578125 164.1875 47.34375 164.1875 47.34375 158.03125 C 47.34375 151.875 56.578125 151.875 56.578125 158.03125 "/>
<path style=" stroke:none;fill-rule:nonzero;fill:rgb(100%,84.3%,0%);fill-opacity:1;" d="M 102.695312 111.910156 C 102.695312 118.066406 93.460938 118.066406 93.460938 111.910156 C 93.460938 105.753906 102.695312 105.753906 102.695312 111.910156 "/>
<path style=" stroke:none;fill-rule:nonzero;fill:rgb(100%,84.3%,0%);fill-opacity:1;" d="M 213.582031 449.535156 C 213.582031 455.695312 204.347656 455.695312 204.347656 449.535156 C 204.347656 443.378906 213.582031 443.378906 213.582031 449.535156 "/>
<path style=" stroke:none;fill-rule:nonzero;fill:rgb(100%,84.3%,0%);fill-opacity:1;" d="M 84.960938 449.632812 C 84.960938 455.789062 75.726562 455.789062 75.726562 449.632812 C 75.726562 443.472656 84.960938 443.472656 84.960938 449.632812 "/>
<path style=" stroke:none;fill-rule:nonzero;fill:rgb(100%,84.3%,0%);fill-opacity:1;" d="M 260.011719 465.546875 C 260.011719 471.703125 250.777344 471.703125 250.777344 465.546875 C 250.777344 459.390625 260.011719 459.390625 260.011719 465.546875 "/>
<path style=" stroke:none;fill-rule:nonzero;fill:rgb(100%,84.3%,0%);fill-opacity:1;" d="M 75.082031 121.097656 C 75.082031 127.253906 65.84375 127.253906 65.84375 121.097656 C 65.84375 114.941406 75.082031 114.941406 75.082031 121.097656 "/>
<path style=" stroke:none;fill-rule:nonzero;fill:rgb(100%,84.3%,0%);fill-opacity:1;" d="M 84.316406 121.121094 C 84.316406 127.277344 75.082031 127.277344 75.082031 121.121094 C 75.082031 114.964844 84.316406 114.964844 84.316406 121.121094 "/>
<path style=" stroke:none;fill-rule:nonzero;fill:rgb(100%,84.3%,0%);fill-opacity:1;" d="M 94.410156 449.574219 C 94.410156 455.730469 85.171875 455.730469 85.171875 449.574219 C 85.171875 443.417969 94.410156 443.417969 94.410156 449.574219 "/>
<path style=" stroke:none;fill-rule:nonzero;fill:rgb(100%,84.3%,0%);fill-opacity:1;" d="M 420.300781 449.496094 C 420.300781 455.652344 411.066406 455.652344 411.066406 449.496094 C 411.066406 443.339844 420.300781 443.339844 420.300781 449.496094 "/>
<path style=" stroke:none;fill-rule:nonzero;fill:rgb(100%,84.3%,0%);fill-opacity:1;" d="M 75.492188 449.671875 C 75.492188 455.828125 66.257812 455.828125 66.257812 449.671875 C 66.257812 443.515625 75.492188 443.515625 75.492188 449.671875 "/>
<path style=" stroke:none;fill-rule:nonzero;fill:rgb(100%,84.3%,0%);fill-opacity:1;" d="M 176.585938 449.3125 C 176.585938 455.46875 167.351562 455.46875 167.351562 449.3125 C 167.351562 443.15625 176.585938 443.15625 176.585938 449.3125 "/>
<path style=" stroke:none;fill-rule:nonzero;fill:rgb(100%,84.3%,0%);fill-opacity:1;" d="M 227.585938 425.136719 C 227.585938 431.292969 218.351562 431.292969 218.351562 425.136719 C 218.351562 418.980469 227.585938 418.980469 227.585938 425.136719 "/>
<path style=" stroke:none;fill-rule:nonzero;fill:rgb(100%,84.3%,0%);fill-opacity:1;" d="M 402.164062 120.191406 C 402.164062 126.347656 392.929688 126.347656 392.929688 120.191406 C 392.929688 114.035156 402.164062 114.035156 402.164062 120.191406 "/>
<path style=" stroke:none;fill-rule:nonzero;fill:rgb(100%,84.3%,0%);fill-opacity:1;" d="M 111.949219 139.742188 C 111.949219 145.902344 102.714844 145.902344 102.714844 139.742188 C 102.714844 133.585938 111.949219 133.585938 111.949219 139.742188 "/>
<path style=" stroke:none;fill-rule:nonzero;fill:rgb(100%,84.3%,0%);fill-opacity:1;" d="M 185.8125 417.253906 C 185.8125 423.410156 176.578125 423.410156 176.578125 417.253906 C 176.578125 411.097656 185.8125 411.097656 185.8125 417.253906 "/>
<path style=" stroke:none;fill-rule:nonzero;fill:rgb(100%,84.3%,0%);fill-opacity:1;" d="M 103.699219 449.546875 C 103.699219 455.703125 94.460938 455.703125 94.460938 449.546875 C 94.460938 443.390625 103.699219 443.390625 103.699219 449.546875 "/>
<path style=" stroke:none;fill-rule:nonzero;fill:rgb(100%,84.3%,0%);fill-opacity:1;" d="M 124.464844 451.351562 C 124.464844 457.507812 115.230469 457.507812 115.230469 451.351562 C 115.230469 445.195312 124.464844 445.195312 124.464844 451.351562 "/>
<path style=" stroke:none;fill-rule:nonzero;fill:rgb(100%,84.3%,0%);fill-opacity:1;" d="M 255.207031 457.457031 C 255.207031 463.613281 245.972656 463.613281 245.972656 457.457031 C 245.972656 451.300781 255.207031 451.300781 255.207031 457.457031 "/>
<path style=" stroke:none;fill-rule:nonzero;fill:rgb(100%,84.3%,0%);fill-opacity:1;" d="M 456.6875 432.390625 C 456.6875 438.546875 447.449219 438.546875 447.449219 432.390625 C 447.449219 426.234375 456.6875 426.234375 456.6875 432.390625 "/>
<path style=" stroke:none;fill-rule:nonzero;fill:rgb(100%,84.3%,0%);fill-opacity:1;" d="M 66.160156 449.585938 C 66.160156 455.742188 56.921875 455.742188 56.921875 449.585938 C 56.921875 443.425781 66.160156 443.425781 66.160156 449.585938 "/>
<path style=" stroke:none;fill-rule:nonzero;fill:rgb(100%,84.3%,0%);fill-opacity:1;" d="M 112.933594 449.488281 C 112.933594 455.648438 103.699219 455.648438 103.699219 449.488281 C 103.699219 443.332031 112.933594 443.332031 112.933594 449.488281 "/>
<path style=" stroke:none;fill-rule:nonzero;fill:rgb(100%,84.3%,0%);fill-opacity:1;" d="M 111.976562 111.839844 C 111.976562 117.996094 102.742188 117.996094 102.742188 111.839844 C 102.742188 105.679688 111.976562 105.679688 111.976562 111.839844 "/>
<path style=" stroke:none;fill-rule:nonzero;fill:rgb(100%,84.3%,0%);fill-opacity:1;" d="M 411.0625 449.492188 C 411.0625 455.652344 401.828125 455.652344 401.828125 449.492188 C 401.828125 443.335938 411.0625 443.335938 411.0625 449.492188 "/>
<path style=" stroke:none;fill-rule:nonzero;fill:rgb(100%,84.3%,0%);fill-opacity:1;" d="M 464.714844 427.757812 C 464.714844 433.914062 455.480469 433.914062 455.480469 427.757812 C 455.480469 421.601562 464.714844 421.601562 464.714844 427.757812 "/>
<path style=" stroke:none;fill-rule:nonzero;fill:rgb(100%,84.3%,0%);fill-opacity:1;" d="M 232.113281 465.425781 C 232.113281 471.582031 222.878906 471.582031 222.878906 465.425781 C 222.878906 459.265625 232.113281 459.265625 232.113281 465.425781 "/>
<path style=" stroke:none;fill-rule:nonzero;fill:rgb(100%,84.3%,0%);fill-opacity:1;" d="M 227.496094 457.417969 C 227.496094 463.574219 218.257812 463.574219 218.257812 457.417969 C 218.257812 451.261719 227.496094 451.261719 227.496094 457.417969 "/>
<path style=" stroke:none;fill-rule:nonzero;fill:rgb(100%,84.3%,0%);fill-opacity:1;" d="M 93.792969 158.160156 C 93.792969 164.316406 84.558594 164.316406 84.558594 158.160156 C 84.558594 152.003906 93.792969 152.003906 93.792969 158.160156 "/>
<path style=" stroke:none;fill-rule:nonzero;fill:rgb(100%,84.3%,0%);fill-opacity:1;" d="M 464.679688 366.621094 C 464.679688 372.78125 455.445312 372.78125 455.445312 366.621094 C 455.445312 360.464844 464.679688 360.464844 464.679688 366.621094 "/>
<path style=" stroke:none;fill-rule:nonzero;fill:rgb(100%,84.3%,0%);fill-opacity:1;" d="M 56.519531 449.671875 C 56.519531 455.828125 47.285156 455.828125 47.285156 449.671875 C 47.285156 443.511719 56.519531 443.511719 56.519531 449.671875 "/>
<path style=" stroke:none;fill-rule:nonzero;fill:rgb(100%,84.3%,0%);fill-opacity:1;" d="M 131.328125 445.171875 C 131.328125 451.328125 122.09375 451.328125 122.09375 445.171875 C 122.09375 439.015625 131.328125 439.015625 131.328125 445.171875 "/>
<path style=" stroke:none;fill-rule:nonzero;fill:rgb(100%,84.3%,0%);fill-opacity:1;" d="M 199.699219 441.539062 C 199.699219 447.699219 190.464844 447.699219 190.464844 441.539062 C 190.464844 435.382812 199.699219 435.382812 199.699219 441.539062 "/>
<path style=" stroke:none;fill-rule:nonzero;fill:rgb(100%,84.3%,0%);fill-opacity:1;" d="M 190.429688 441.546875 C 190.429688 447.703125 181.195312 447.703125 181.195312 441.546875 C 181.195312 435.386719 190.429688 435.386719 190.429688 441.546875 "/>
<path style=" stroke:none;fill-rule:nonzero;fill:rgb(100%,84.3%,0%);fill-opacity:1;" d="M 84.238281 130.355469 C 84.238281 136.515625 75 136.515625 75 130.355469 C 75 124.199219 84.238281 124.199219 84.238281 130.355469 "/>
<path style=" stroke:none;fill-rule:nonzero;fill:rgb(100%,84.3%,0%);fill-opacity:1;" d="M 250.570312 449.238281 C 250.570312 455.394531 241.335938 455.394531 241.335938 449.238281 C 241.335938 443.082031 250.570312 443.082031 250.570312 449.238281 "/>
<path style=" stroke:none;fill-rule:nonzero;fill:rgb(100%,84.3%,0%);fill-opacity:1;" d="M 162.671875 457.53125 C 162.671875 463.6875 153.4375 463.6875 153.4375 457.53125 C 153.4375 451.375 162.671875 451.375 162.671875 457.53125 "/>
<path style=" stroke:none;fill-rule:nonzero;fill:rgb(100%,84.3%,0%);fill-opacity:1;" d="M 456.703125 380.507812 C 456.703125 386.664062 447.46875 386.664062 447.46875 380.507812 C 447.46875 374.351562 456.703125 374.351562 456.703125 380.507812 "/>
<path style=" stroke:none;fill-rule:nonzero;fill:rgb(100%,84.3%,0%);fill-opacity:1;" d="M 65.765625 139.648438 C 65.765625 145.804688 56.53125 145.804688 56.53125 139.648438 C 56.53125 133.488281 65.765625 133.488281 65.765625 139.648438 "/>
<path style=" stroke:none;fill-rule:nonzero;fill:rgb(100%,84.3%,0%);fill-opacity:1;" d="M 65.957031 158.113281 C 65.957031 164.273438 56.722656 164.273438 56.722656 158.113281 C 56.722656 151.957031 65.957031 151.957031 65.957031 158.113281 "/>
<path style=" stroke:none;fill-rule:nonzero;fill:rgb(100%,84.3%,0%);fill-opacity:1;" d="M 448.105469 435.851562 C 448.105469 442.007812 438.871094 442.007812 438.871094 435.851562 C 438.871094 429.691406 448.105469 429.691406 448.105469 435.851562 "/>
<path style=" stroke:none;fill-rule:nonzero;fill:rgb(100%,84.3%,0%);fill-opacity:1;" d="M 439.941406 440.796875 C 439.941406 446.953125 430.707031 446.953125 430.707031 440.796875 C 430.707031 434.640625 439.941406 434.640625 439.941406 440.796875 "/>
<path style=" stroke:none;fill-rule:nonzero;fill:rgb(100%,84.3%,0%);fill-opacity:1;" d="M 464.644531 416.253906 C 464.644531 422.410156 455.40625 422.410156 455.40625 416.253906 C 455.40625 410.097656 464.644531 410.097656 464.644531 416.253906 "/>
<path style=" stroke:none;fill-rule:nonzero;fill:rgb(100%,84.3%,0%);fill-opacity:1;" d="M 80.253906 441.6875 C 80.253906 447.84375 71.019531 447.84375 71.019531 441.6875 C 71.019531 435.527344 80.253906 435.527344 80.253906 441.6875 "/>
<path style=" stroke:none;fill-rule:nonzero;fill:rgb(100%,84.3%,0%);fill-opacity:1;" d="M 176.347656 417.199219 C 176.347656 423.355469 167.113281 423.355469 167.113281 417.199219 C 167.113281 411.042969 176.347656 411.042969 176.347656 417.199219 "/>
<path style=" stroke:none;fill-rule:nonzero;fill:rgb(100%,84.3%,0%);fill-opacity:1;" d="M 195.277344 417.371094 C 195.277344 423.53125 186.042969 423.53125 186.042969 417.371094 C 186.042969 411.214844 195.277344 411.214844 195.277344 417.371094 "/>
<path style=" stroke:none;fill-rule:nonzero;fill:rgb(100%,84.3%,0%);fill-opacity:1;" d="M 392.609375 465.445312 C 392.609375 471.601562 383.371094 471.601562 383.371094 465.445312 C 383.371094 459.289062 392.609375 459.289062 392.609375 465.445312 "/>
<path style=" stroke:none;fill-rule:nonzero;fill:rgb(100%,84.3%,0%);fill-opacity:1;" d="M 222.828125 449.449219 C 222.828125 455.605469 213.589844 455.605469 213.589844 449.449219 C 213.589844 443.292969 222.828125 443.292969 222.828125 449.449219 "/>
<path style=" stroke:none;fill-rule:nonzero;fill:rgb(100%,84.3%,0%);fill-opacity:1;" d="M 411.078125 465.546875 C 411.078125 471.703125 401.84375 471.703125 401.84375 465.546875 C 401.84375 459.390625 411.078125 459.390625 411.078125 465.546875 "/>
<path style=" stroke:none;fill-rule:nonzero;fill:rgb(100%,84.3%,0%);fill-opacity:1;" d="M 209.023438 441.507812 C 209.023438 447.664062 199.789062 447.664062 199.789062 441.507812 C 199.789062 435.347656 209.023438 435.347656 209.023438 441.507812 "/>
<path style=" stroke:none;fill-rule:nonzero;fill:rgb(100%,84.3%,0%);fill-opacity:1;" d="M 89.675781 441.640625 C 89.675781 447.796875 80.441406 447.796875 80.441406 441.640625 C 80.441406 435.484375 89.675781 435.484375 89.675781 441.640625 "/>
<path style=" stroke:none;fill-rule:nonzero;fill:rgb(100%,84.3%,0%);fill-opacity:1;" d="M 246.097656 441.070312 C 246.097656 447.230469 236.863281 447.230469 236.863281 441.070312 C 236.863281 434.914062 246.097656 434.914062 246.097656 441.070312 "/>
<path style=" stroke:none;fill-rule:nonzero;fill:rgb(100%,84.3%,0%);fill-opacity:1;" d="M 364.761719 449.429688 C 364.761719 455.585938 355.527344 455.585938 355.527344 449.429688 C 355.527344 443.273438 364.761719 443.273438 364.761719 449.429688 "/>
<path style=" stroke:none;fill-rule:nonzero;fill:rgb(100%,84.3%,0%);fill-opacity:1;" d="M 119.84375 443.355469 C 119.84375 449.511719 110.609375 449.511719 110.609375 443.355469 C 110.609375 437.199219 119.84375 437.199219 119.84375 443.355469 "/>
<path style=" stroke:none;fill-rule:nonzero;fill:rgb(100%,84.3%,0%);fill-opacity:1;" d="M 93.628906 148.925781 C 93.628906 155.082031 84.394531 155.082031 84.394531 148.925781 C 84.394531 142.769531 93.628906 142.769531 93.628906 148.925781 "/>
<path style=" stroke:none;fill-rule:nonzero;fill:rgb(100%,84.3%,0%);fill-opacity:1;" d="M 355.527344 449.316406 C 355.527344 455.472656 346.292969 455.472656 346.292969 449.316406 C 346.292969 443.160156 355.527344 443.160156 355.527344 449.316406 "/>
<path style=" stroke:none;fill-rule:nonzero;fill:rgb(100%,84.3%,0%);fill-opacity:1;" d="M 214 416.925781 C 214 423.082031 204.761719 423.082031 204.761719 416.925781 C 204.761719 410.769531 214 410.769531 214 416.925781 "/>
<path style=" stroke:none;fill-rule:nonzero;fill:rgb(100%,84.3%,0%);fill-opacity:1;" d="M 167.316406 449.414062 C 167.316406 455.570312 158.082031 455.570312 158.082031 449.414062 C 158.082031 443.257812 167.316406 443.257812 167.316406 449.414062 "/>
<path style=" stroke:none;fill-rule:nonzero;fill:rgb(100%,84.3%,0%);fill-opacity:1;" d="M 397.03125 457.160156 C 397.03125 463.320312 387.796875 463.320312 387.796875 457.160156 C 387.796875 451.003906 397.03125 451.003906 397.03125 457.160156 "/>
<path style=" stroke:none;fill-rule:nonzero;fill:rgb(100%,84.3%,0%);fill-opacity:1;" d="M 181.199219 441.277344 C 181.199219 447.433594 171.960938 447.433594 171.960938 441.277344 C 171.960938 435.121094 181.199219 435.121094 181.199219 441.277344 "/>
<path style=" stroke:none;fill-rule:nonzero;fill:rgb(100%,84.3%,0%);fill-opacity:1;" d="M 61.292969 407.703125 C 61.292969 413.859375 52.058594 413.859375 52.058594 407.703125 C 52.058594 401.546875 61.292969 401.546875 61.292969 407.703125 "/>
<path style=" stroke:none;fill-rule:nonzero;fill:rgb(100%,84.3%,0%);fill-opacity:1;" d="M 331.988281 111.839844 C 331.988281 117.996094 322.753906 117.996094 322.753906 111.839844 C 322.753906 105.679688 331.988281 105.679688 331.988281 111.839844 "/>
<path style=" stroke:none;fill-rule:nonzero;fill:rgb(100%,84.3%,0%);fill-opacity:1;" d="M 424.574219 111.839844 C 424.574219 117.996094 415.339844 117.996094 415.339844 111.839844 C 415.339844 105.679688 424.574219 105.679688 424.574219 111.839844 "/>
<path style=" stroke:none;fill-rule:nonzero;fill:rgb(100%,84.3%,0%);fill-opacity:1;" d="M 345.929688 119.898438 C 345.929688 126.054688 336.695312 126.054688 336.695312 119.898438 C 336.695312 113.738281 345.929688 113.738281 345.929688 119.898438 "/>
<path style=" stroke:none;fill-rule:nonzero;fill:rgb(100%,84.3%,0%);fill-opacity:1;" d="M 411.46875 120.222656 C 411.46875 126.378906 402.234375 126.378906 402.234375 120.222656 C 402.234375 114.066406 411.46875 114.066406 411.46875 120.222656 "/>
<path style=" stroke:none;fill-rule:nonzero;fill:rgb(100%,84.3%,0%);fill-opacity:1;" d="M 84.222656 111.882812 C 84.222656 118.039062 74.988281 118.039062 74.988281 111.882812 C 74.988281 105.726562 84.222656 105.726562 84.222656 111.882812 "/>
<path style=" stroke:none;fill-rule:nonzero;fill:rgb(100%,84.3%,0%);fill-opacity:1;" d="M 359.261719 457.839844 C 359.261719 463.996094 350.027344 463.996094 350.027344 457.839844 C 350.027344 451.683594 359.261719 451.683594 359.261719 457.839844 "/>
<path style=" stroke:none;fill-rule:nonzero;fill:rgb(100%,84.3%,0%);fill-opacity:1;" d="M 430.699219 440.402344 C 430.699219 446.5625 421.464844 446.5625 421.464844 440.402344 C 421.464844 434.246094 430.699219 434.246094 430.699219 440.402344 "/>
<path style=" stroke:none;fill-rule:nonzero;fill:rgb(100%,84.3%,0%);fill-opacity:1;" d="M 56.53125 139.5625 C 56.53125 145.71875 47.296875 145.71875 47.296875 139.5625 C 47.296875 133.402344 56.53125 133.402344 56.53125 139.5625 "/>
<path style=" stroke:none;fill-rule:nonzero;fill:rgb(100%,84.3%,0%);fill-opacity:1;" d="M 65.753906 130.398438 C 65.753906 136.558594 56.519531 136.558594 56.519531 130.398438 C 56.519531 124.242188 65.753906 124.242188 65.753906 130.398438 "/>
<path style=" stroke:none;fill-rule:nonzero;fill:rgb(100%,84.3%,0%);fill-opacity:1;" d="M 99.046875 441.570312 C 99.046875 447.726562 89.8125 447.726562 89.8125 441.570312 C 89.8125 435.414062 99.046875 435.414062 99.046875 441.570312 "/>
<path style=" stroke:none;fill-rule:nonzero;fill:rgb(100%,84.3%,0%);fill-opacity:1;" d="M 70.273438 441.316406 C 70.273438 447.472656 61.035156 447.472656 61.035156 441.316406 C 61.035156 435.15625 70.273438 435.15625 70.273438 441.316406 "/>
<path style=" stroke:none;fill-rule:nonzero;fill:rgb(100%,84.3%,0%);fill-opacity:1;" d="M 401.832031 449.1875 C 401.832031 455.34375 392.597656 455.34375 392.597656 449.1875 C 392.597656 443.027344 401.832031 443.027344 401.832031 449.1875 "/>
<path style=" stroke:none;fill-rule:nonzero;fill:rgb(100%,84.3%,0%);fill-opacity:1;" d="M 374.082031 449.277344 C 374.082031 455.433594 364.84375 455.433594 364.84375 449.277344 C 364.84375 443.121094 374.082031 443.121094 374.082031 449.277344 "/>
<path style=" stroke:none;fill-rule:nonzero;fill:rgb(100%,84.3%,0%);fill-opacity:1;" d="M 108.757812 441.253906 C 108.757812 447.410156 99.523438 447.410156 99.523438 441.253906 C 99.523438 435.09375 108.757812 435.09375 108.757812 441.253906 "/>
<path style=" stroke:none;fill-rule:nonzero;fill:rgb(100%,84.3%,0%);fill-opacity:1;" d="M 232.234375 433.160156 C 232.234375 439.316406 223 439.316406 223 433.160156 C 223 427.003906 232.234375 427.003906 232.234375 433.160156 "/>
<path style=" stroke:none;fill-rule:nonzero;fill:rgb(100%,84.3%,0%);fill-opacity:1;" d="M 157.878906 433.269531 C 157.878906 439.425781 148.644531 439.425781 148.644531 433.269531 C 148.644531 427.113281 157.878906 427.113281 157.878906 433.269531 "/>
<path style=" stroke:none;fill-rule:nonzero;fill:rgb(100%,84.3%,0%);fill-opacity:1;" d="M 112.019531 121.1875 C 112.019531 127.34375 102.785156 127.34375 102.785156 121.1875 C 102.785156 115.03125 112.019531 115.03125 112.019531 121.1875 "/>
<path style=" stroke:none;fill-rule:nonzero;fill:rgb(100%,84.3%,0%);fill-opacity:1;" d="M 448.765625 394.4375 C 448.765625 400.59375 439.53125 400.59375 439.53125 394.4375 C 439.53125 388.28125 448.765625 388.28125 448.765625 394.4375 "/>
<path style=" stroke:none;fill-rule:nonzero;fill:rgb(100%,84.3%,0%);fill-opacity:1;" d="M 218.398438 441.34375 C 218.398438 447.5 209.164062 447.5 209.164062 441.34375 C 209.164062 435.1875 218.398438 435.1875 218.398438 441.34375 "/>
<path style=" stroke:none;fill-rule:nonzero;fill:rgb(100%,84.3%,0%);fill-opacity:1;" d="M 157.210938 416.867188 C 157.210938 423.023438 147.976562 423.023438 147.976562 416.867188 C 147.976562 410.710938 157.210938 410.710938 157.210938 416.867188 "/>
<path style=" stroke:none;fill-rule:nonzero;fill:rgb(100%,84.3%,0%);fill-opacity:1;" d="M 60.683594 441.425781 C 60.683594 447.582031 51.449219 447.582031 51.449219 441.425781 C 51.449219 435.269531 60.683594 435.269531 60.683594 441.425781 "/>
<path style=" stroke:none;fill-rule:nonzero;fill:rgb(100%,84.3%,0%);fill-opacity:1;" d="M 135.820312 437.101562 C 135.820312 443.261719 126.585938 443.261719 126.585938 437.101562 C 126.585938 430.945312 135.820312 430.945312 135.820312 437.101562 "/>
<path style=" stroke:none;fill-rule:nonzero;fill:rgb(100%,84.3%,0%);fill-opacity:1;" d="M 126.070312 436.535156 C 126.070312 442.691406 116.835938 442.691406 116.835938 436.535156 C 116.835938 430.378906 126.070312 430.378906 126.070312 436.535156 "/>
<path style=" stroke:none;fill-rule:nonzero;fill:rgb(100%,84.3%,0%);fill-opacity:1;" d="M 171.917969 441.34375 C 171.917969 447.5 162.683594 447.5 162.683594 441.34375 C 162.683594 435.1875 171.917969 435.1875 171.917969 441.34375 "/>
<path style=" stroke:none;fill-rule:nonzero;fill:rgb(100%,84.3%,0%);fill-opacity:1;" d="M 421.367188 440.324219 C 421.367188 446.480469 412.132812 446.480469 412.132812 440.324219 C 412.132812 434.167969 421.367188 434.167969 421.367188 440.324219 "/>
<path style=" stroke:none;fill-rule:nonzero;fill:rgb(100%,84.3%,0%);fill-opacity:1;" d="M 439.898438 431.5625 C 439.898438 437.71875 430.660156 437.71875 430.660156 431.5625 C 430.660156 425.40625 439.898438 425.40625 439.898438 431.5625 "/>
<path style=" stroke:none;fill-rule:nonzero;fill:rgb(100%,84.3%,0%);fill-opacity:1;" d="M 378.445312 127.859375 C 378.445312 134.019531 369.207031 134.019531 369.207031 127.859375 C 369.207031 121.703125 378.445312 121.703125 378.445312 127.859375 "/>
<path style=" stroke:none;fill-rule:nonzero;fill:rgb(100%,84.3%,0%);fill-opacity:1;" d="M 204.546875 417.320312 C 204.546875 423.476562 195.3125 423.476562 195.3125 417.320312 C 195.3125 411.164062 204.546875 411.164062 204.546875 417.320312 "/>
<path style=" stroke:none;fill-rule:nonzero;fill:rgb(100%,84.3%,0%);fill-opacity:1;" d="M 269.328125 465.546875 C 269.328125 471.703125 260.089844 471.703125 260.089844 465.546875 C 260.089844 459.390625 269.328125 459.390625 269.328125 465.546875 "/>
<path style=" stroke:none;fill-rule:nonzero;fill:rgb(100%,84.3%,0%);fill-opacity:1;" d="M 56.601562 176.550781 C 56.601562 182.707031 47.367188 182.707031 47.367188 176.550781 C 47.367188 170.394531 56.601562 170.394531 56.601562 176.550781 "/>
<path style=" stroke:none;fill-rule:nonzero;fill:rgb(100%,84.3%,0%);fill-opacity:1;" d="M 115.722656 435.089844 C 115.722656 441.246094 106.488281 441.246094 106.488281 435.089844 C 106.488281 428.933594 115.722656 428.933594 115.722656 435.089844 "/>
<path style=" stroke:none;fill-rule:nonzero;fill:rgb(100%,84.3%,0%);fill-opacity:1;" d="M 149.03125 412.578125 C 149.03125 418.734375 139.796875 418.734375 139.796875 412.578125 C 139.796875 406.421875 149.03125 406.421875 149.03125 412.578125 "/>
<path style=" stroke:none;fill-rule:nonzero;fill:rgb(100%,84.3%,0%);fill-opacity:1;" d="M 464.691406 436.992188 C 464.691406 443.148438 455.457031 443.148438 455.457031 436.992188 C 455.457031 430.835938 464.691406 430.835938 464.691406 436.992188 "/>
<path style=" stroke:none;fill-rule:nonzero;fill:rgb(100%,84.3%,0%);fill-opacity:1;" d="M 387.785156 127.863281 C 387.785156 134.023438 378.550781 134.023438 378.550781 127.863281 C 378.550781 121.707031 387.785156 121.707031 387.785156 127.863281 "/>
<path style=" stroke:none;fill-rule:nonzero;fill:rgb(100%,84.3%,0%);fill-opacity:1;" d="M 75.195312 158.058594 C 75.195312 164.214844 65.960938 164.214844 65.960938 158.058594 C 65.960938 151.902344 75.195312 151.902344 75.195312 158.058594 "/>
<path style=" stroke:none;fill-rule:nonzero;fill:rgb(100%,84.3%,0%);fill-opacity:1;" d="M 236.738281 457.429688 C 236.738281 463.585938 227.5 463.585938 227.5 457.429688 C 227.5 451.273438 236.738281 451.273438 236.738281 457.429688 "/>
<path style=" stroke:none;fill-rule:nonzero;fill:rgb(100%,84.3%,0%);fill-opacity:1;" d="M 84.886719 433.699219 C 84.886719 439.855469 75.652344 439.855469 75.652344 433.699219 C 75.652344 427.542969 84.886719 427.542969 84.886719 433.699219 "/>
<path style=" stroke:none;fill-rule:nonzero;fill:rgb(100%,84.3%,0%);fill-opacity:1;" d="M 241.394531 465.40625 C 241.394531 471.5625 232.15625 471.5625 232.15625 465.40625 C 232.15625 459.25 241.394531 459.25 241.394531 465.40625 "/>
<path style=" stroke:none;fill-rule:nonzero;fill:rgb(100%,84.3%,0%);fill-opacity:1;" d="M 369.144531 127.828125 C 369.144531 133.984375 359.910156 133.984375 359.910156 127.828125 C 359.910156 121.671875 369.144531 121.671875 369.144531 127.828125 "/>
<path style=" stroke:none;fill-rule:nonzero;fill:rgb(100%,84.3%,0%);fill-opacity:1;" d="M 218.199219 425.152344 C 218.199219 431.308594 208.960938 431.308594 208.960938 425.152344 C 208.960938 418.996094 218.199219 418.996094 218.199219 425.152344 "/>
<path style=" stroke:none;fill-rule:nonzero;fill:rgb(100%,84.3%,0%);fill-opacity:1;" d="M 94.289062 433.640625 C 94.289062 439.796875 85.054688 439.796875 85.054688 433.640625 C 85.054688 427.484375 94.289062 427.484375 94.289062 433.640625 "/>
<path style=" stroke:none;fill-rule:nonzero;fill:rgb(100%,84.3%,0%);fill-opacity:1;" d="M 75.285156 433.558594 C 75.285156 439.714844 66.050781 439.714844 66.050781 433.558594 C 66.050781 427.402344 75.285156 427.402344 75.285156 433.558594 "/>
<path style=" stroke:none;fill-rule:nonzero;fill:rgb(100%,84.3%,0%);fill-opacity:1;" d="M 241.46875 433.046875 C 241.46875 439.203125 232.234375 439.203125 232.234375 433.046875 C 232.234375 426.886719 241.46875 426.886719 241.46875 433.046875 "/>
<path style=" stroke:none;fill-rule:nonzero;fill:rgb(100%,84.3%,0%);fill-opacity:1;" d="M 456.503906 370.914062 C 456.503906 377.070312 447.265625 377.070312 447.265625 370.914062 C 447.265625 364.757812 456.503906 364.757812 456.503906 370.914062 "/>
<path style=" stroke:none;fill-rule:nonzero;fill:rgb(100%,84.3%,0%);fill-opacity:1;" d="M 464.714844 357.335938 C 464.714844 363.492188 455.480469 363.492188 455.480469 357.335938 C 455.480469 351.179688 464.714844 351.179688 464.714844 357.335938 "/>
<path style=" stroke:none;fill-rule:nonzero;fill:rgb(100%,84.3%,0%);fill-opacity:1;" d="M 103.621094 433.546875 C 103.621094 439.703125 94.386719 439.703125 94.386719 433.546875 C 94.386719 427.390625 103.621094 427.390625 103.621094 433.546875 "/>
<path style=" stroke:none;fill-rule:nonzero;fill:rgb(100%,84.3%,0%);fill-opacity:1;" d="M 449.421875 426.6875 C 449.421875 432.84375 440.1875 432.84375 440.1875 426.6875 C 440.1875 420.527344 449.421875 420.527344 449.421875 426.6875 "/>
<path style=" stroke:none;fill-rule:nonzero;fill:rgb(100%,84.3%,0%);fill-opacity:1;" d="M 412.128906 440.320312 C 412.128906 446.476562 402.894531 446.476562 402.894531 440.320312 C 402.894531 434.164062 412.128906 434.164062 412.128906 440.320312 "/>
<path style=" stroke:none;fill-rule:nonzero;fill:rgb(100%,84.3%,0%);fill-opacity:1;" d="M 65.527344 433.390625 C 65.527344 439.546875 56.289062 439.546875 56.289062 433.390625 C 56.289062 427.234375 65.527344 427.234375 65.527344 433.390625 "/>
<path style=" stroke:none;fill-rule:nonzero;fill:rgb(100%,84.3%,0%);fill-opacity:1;" d="M 195.050781 433.550781 C 195.050781 439.707031 185.816406 439.707031 185.816406 433.550781 C 185.816406 427.394531 195.050781 427.394531 195.050781 433.550781 "/>
<path style=" stroke:none;fill-rule:nonzero;fill:rgb(100%,84.3%,0%);fill-opacity:1;" d="M 56.53125 431.304688 C 56.53125 437.460938 47.292969 437.460938 47.292969 431.304688 C 47.292969 425.148438 56.53125 425.148438 56.53125 431.304688 "/>
<path style=" stroke:none;fill-rule:nonzero;fill:rgb(100%,84.3%,0%);fill-opacity:1;" d="M 336.625 119.824219 C 336.625 125.984375 327.390625 125.984375 327.390625 119.824219 C 327.390625 113.667969 336.625 113.667969 336.625 119.824219 "/>
<path style=" stroke:none;fill-rule:nonzero;fill:rgb(100%,84.3%,0%);fill-opacity:1;" d="M 430.660156 431.167969 C 430.660156 437.324219 421.425781 437.324219 421.425781 431.167969 C 421.425781 425.011719 430.660156 425.011719 430.660156 431.167969 "/>
<path style=" stroke:none;fill-rule:nonzero;fill:rgb(100%,84.3%,0%);fill-opacity:1;" d="M 264.464844 457.453125 C 264.464844 463.613281 255.230469 463.613281 255.230469 457.453125 C 255.230469 451.296875 264.464844 451.296875 264.464844 457.453125 "/>
<path style=" stroke:none;fill-rule:nonzero;fill:rgb(100%,84.3%,0%);fill-opacity:1;" d="M 385.71875 421.925781 C 385.71875 428.082031 376.480469 428.082031 376.480469 421.925781 C 376.480469 415.769531 385.71875 415.769531 385.71875 421.925781 "/>
<path style=" stroke:none;fill-rule:nonzero;fill:rgb(100%,84.3%,0%);fill-opacity:1;" d="M 140.386719 428.898438 C 140.386719 435.054688 131.152344 435.054688 131.152344 428.898438 C 131.152344 422.742188 140.386719 422.742188 140.386719 428.898438 "/>
<path style=" stroke:none;fill-rule:nonzero;fill:rgb(100%,84.3%,0%);fill-opacity:1;" d="M 236.867188 441.316406 C 236.867188 447.472656 227.628906 447.472656 227.628906 441.316406 C 227.628906 435.15625 236.867188 435.15625 236.867188 441.316406 "/>
<path style=" stroke:none;fill-rule:nonzero;fill:rgb(100%,84.3%,0%);fill-opacity:1;" d="M 232.097656 449.410156 C 232.097656 455.566406 222.863281 455.566406 222.863281 449.410156 C 222.863281 443.253906 232.097656 443.253906 232.097656 449.410156 "/>
<path style=" stroke:none;fill-rule:nonzero;fill:rgb(100%,84.3%,0%);fill-opacity:1;" d="M 153.421875 457.570312 C 153.421875 463.730469 144.1875 463.730469 144.1875 457.570312 C 144.1875 451.414062 153.421875 451.414062 153.421875 457.570312 "/>
<path style=" stroke:none;fill-rule:nonzero;fill:rgb(100%,84.3%,0%);fill-opacity:1;" d="M 322.75 111.839844 C 322.75 117.996094 313.515625 117.996094 313.515625 111.839844 C 313.515625 105.679688 322.75 105.679688 322.75 111.839844 "/>
<path style=" stroke:none;fill-rule:nonzero;fill:rgb(100%,84.3%,0%);fill-opacity:1;" d="M 436.960938 404.988281 C 436.960938 411.144531 427.722656 411.144531 427.722656 404.988281 C 427.722656 398.832031 436.960938 398.832031 436.960938 404.988281 "/>
<path style=" stroke:none;fill-rule:nonzero;fill:rgb(100%,84.3%,0%);fill-opacity:1;" d="M 153.429688 441.445312 C 153.429688 447.605469 144.195312 447.605469 144.195312 441.445312 C 144.195312 435.289062 153.429688 435.289062 153.429688 441.445312 "/>
<path style=" stroke:none;fill-rule:nonzero;fill:rgb(100%,84.3%,0%);fill-opacity:1;" d="M 130.621094 428.496094 C 130.621094 434.65625 121.386719 434.65625 121.386719 428.496094 C 121.386719 422.339844 130.621094 422.339844 130.621094 428.496094 "/>
<path style=" stroke:none;fill-rule:nonzero;fill:rgb(100%,84.3%,0%);fill-opacity:1;" d="M 352.851562 465.546875 C 352.851562 471.703125 343.617188 471.703125 343.617188 465.546875 C 343.617188 459.390625 352.851562 459.390625 352.851562 465.546875 "/>
<path style=" stroke:none;fill-rule:nonzero;fill:rgb(100%,84.3%,0%);fill-opacity:1;" d="M 121.324219 427.75 C 121.324219 433.90625 112.089844 433.90625 112.089844 427.75 C 112.089844 421.59375 121.324219 421.59375 121.324219 427.75 "/>
<path style=" stroke:none;fill-rule:nonzero;fill:rgb(100%,84.3%,0%);fill-opacity:1;" d="M 408.828125 413.609375 C 408.828125 419.765625 399.59375 419.765625 399.59375 413.609375 C 399.59375 407.453125 408.828125 407.453125 408.828125 413.609375 "/>
<path style=" stroke:none;fill-rule:nonzero;fill:rgb(100%,84.3%,0%);fill-opacity:1;" d="M 387.804688 457.539062 C 387.804688 463.695312 378.570312 463.695312 378.570312 457.539062 C 378.570312 451.382812 387.804688 451.382812 387.804688 457.539062 "/>
<path style=" stroke:none;fill-rule:nonzero;fill:rgb(100%,84.3%,0%);fill-opacity:1;" d="M 204.398438 433.511719 C 204.398438 439.667969 195.164062 439.667969 195.164062 433.511719 C 195.164062 427.355469 204.398438 427.355469 204.398438 433.511719 "/>
<path style=" stroke:none;fill-rule:nonzero;fill:rgb(100%,84.3%,0%);fill-opacity:1;" d="M 359.894531 127.820312 C 359.894531 133.976562 350.660156 133.976562 350.660156 127.820312 C 350.660156 121.664062 359.894531 121.664062 359.894531 127.820312 "/>
<path style=" stroke:none;fill-rule:nonzero;fill:rgb(100%,84.3%,0%);fill-opacity:1;" d="M 110.511719 427.394531 C 110.511719 433.554688 101.277344 433.554688 101.277344 427.394531 C 101.277344 421.238281 110.511719 421.238281 110.511719 427.394531 "/>
<path style=" stroke:none;fill-rule:nonzero;fill:rgb(100%,84.3%,0%);fill-opacity:1;" d="M 80.15625 425.714844 C 80.15625 431.871094 70.921875 431.871094 70.921875 425.714844 C 70.921875 419.554688 80.15625 419.554688 80.15625 425.714844 "/>
<path style=" stroke:none;fill-rule:nonzero;fill:rgb(100%,84.3%,0%);fill-opacity:1;" d="M 158.078125 449.519531 C 158.078125 455.679688 148.839844 455.679688 148.839844 449.519531 C 148.839844 443.363281 158.078125 443.363281 158.078125 449.519531 "/>
<path style=" stroke:none;fill-rule:nonzero;fill:rgb(100%,84.3%,0%);fill-opacity:1;" d="M 433.808594 111.839844 C 433.808594 117.996094 424.574219 117.996094 424.574219 111.839844 C 424.574219 105.679688 433.808594 105.679688 433.808594 111.839844 "/>
<path style=" stroke:none;fill-rule:nonzero;fill:rgb(100%,84.3%,0%);fill-opacity:1;" d="M 383.148438 465.546875 C 383.148438 471.703125 373.914062 471.703125 373.914062 465.546875 C 373.914062 459.390625 383.148438 459.390625 383.148438 465.546875 "/>
<path style=" stroke:none;fill-rule:nonzero;fill:rgb(100%,84.3%,0%);fill-opacity:1;" d="M 70.597656 425.601562 C 70.597656 431.757812 61.363281 431.757812 61.363281 425.601562 C 61.363281 419.445312 70.597656 419.445312 70.597656 425.601562 "/>
<path style=" stroke:none;fill-rule:nonzero;fill:rgb(100%,84.3%,0%);fill-opacity:1;" d="M 89.53125 425.714844 C 89.53125 431.871094 80.296875 431.871094 80.296875 425.714844 C 80.296875 419.558594 89.53125 419.558594 89.53125 425.714844 "/>
<path style=" stroke:none;fill-rule:nonzero;fill:rgb(100%,84.3%,0%);fill-opacity:1;" d="M 448.734375 385.171875 C 448.734375 391.328125 439.496094 391.328125 439.496094 385.171875 C 439.496094 379.015625 448.734375 379.015625 448.734375 385.171875 "/>
<path style=" stroke:none;fill-rule:nonzero;fill:rgb(100%,84.3%,0%);fill-opacity:1;" d="M 103.253906 148.925781 C 103.253906 155.082031 94.019531 155.082031 94.019531 148.925781 C 94.019531 142.769531 103.253906 142.769531 103.253906 148.925781 "/>
<path style=" stroke:none;fill-rule:nonzero;fill:rgb(100%,84.3%,0%);fill-opacity:1;" d="M 121.210938 111.894531 C 121.210938 118.050781 111.976562 118.050781 111.976562 111.894531 C 111.976562 105.738281 121.210938 105.738281 121.210938 111.894531 "/>
<path style=" stroke:none;fill-rule:nonzero;fill:rgb(100%,84.3%,0%);fill-opacity:1;" d="M 392.558594 449.082031 C 392.558594 455.238281 383.324219 455.238281 383.324219 449.082031 C 383.324219 442.925781 392.558594 442.925781 392.558594 449.082031 "/>
<path style=" stroke:none;fill-rule:nonzero;fill:rgb(100%,84.3%,0%);fill-opacity:1;" d="M 397.53125 128.179688 C 397.53125 134.335938 388.296875 134.335938 388.296875 128.179688 C 388.296875 122.023438 397.53125 122.023438 397.53125 128.179688 "/>
<path style=" stroke:none;fill-rule:nonzero;fill:rgb(100%,84.3%,0%);fill-opacity:1;" d="M 98.808594 425.585938 C 98.808594 431.742188 89.574219 431.742188 89.574219 425.585938 C 89.574219 419.429688 98.808594 419.429688 98.808594 425.585938 "/>
<path style=" stroke:none;fill-rule:nonzero;fill:rgb(100%,84.3%,0%);fill-opacity:1;" d="M 402.902344 439.96875 C 402.902344 446.125 393.667969 446.125 393.667969 439.96875 C 393.667969 433.8125 402.902344 433.8125 402.902344 439.96875 "/>
<path style=" stroke:none;fill-rule:nonzero;fill:rgb(100%,84.3%,0%);fill-opacity:1;" d="M 185.816406 433.28125 C 185.816406 439.4375 176.582031 439.4375 176.582031 433.28125 C 176.582031 427.125 185.816406 427.125 185.816406 433.28125 "/>
<path style=" stroke:none;fill-rule:nonzero;fill:rgb(100%,84.3%,0%);fill-opacity:1;" d="M 223.234375 416.992188 C 223.234375 423.148438 214 423.148438 214 416.992188 C 214 410.835938 223.234375 410.835938 223.234375 416.992188 "/>
<path style=" stroke:none;fill-rule:nonzero;fill:rgb(100%,84.3%,0%);fill-opacity:1;" d="M 259.804688 449.445312 C 259.804688 455.605469 250.570312 455.605469 250.570312 449.445312 C 250.570312 443.289062 259.804688 443.289062 259.804688 449.445312 "/>
<path style=" stroke:none;fill-rule:nonzero;fill:rgb(100%,84.3%,0%);fill-opacity:1;" d="M 148.820312 449.566406 C 148.820312 455.722656 139.585938 455.722656 139.585938 449.566406 C 139.585938 443.40625 148.820312 443.40625 148.820312 449.566406 "/>
<path style=" stroke:none;fill-rule:nonzero;fill:rgb(100%,84.3%,0%);fill-opacity:1;" d="M 61.542969 423.546875 C 61.542969 429.703125 52.308594 429.703125 52.308594 423.546875 C 52.308594 417.390625 61.542969 417.390625 61.542969 423.546875 "/>
<path style=" stroke:none;fill-rule:nonzero;fill:rgb(100%,84.3%,0%);fill-opacity:1;" d="M 208.929688 425.445312 C 208.929688 431.601562 199.695312 431.601562 199.695312 425.445312 C 199.695312 419.289062 208.929688 419.289062 208.929688 425.445312 "/>
<path style=" stroke:none;fill-rule:nonzero;fill:rgb(100%,84.3%,0%);fill-opacity:1;" d="M 421.328125 431.089844 C 421.328125 437.246094 412.09375 437.246094 412.09375 431.089844 C 412.09375 424.929688 421.328125 424.929688 421.328125 431.089844 "/>
<path style=" stroke:none;fill-rule:nonzero;fill:rgb(100%,84.3%,0%);fill-opacity:1;" d="M 441.230469 422.425781 C 441.230469 428.582031 431.992188 428.582031 431.992188 422.425781 C 431.992188 416.265625 441.230469 416.265625 441.230469 422.425781 "/>
<path style=" stroke:none;fill-rule:nonzero;fill:rgb(100%,84.3%,0%);fill-opacity:1;" d="M 84.429688 158.210938 C 84.429688 164.367188 75.195312 164.367188 75.195312 158.210938 C 75.195312 152.050781 84.429688 152.050781 84.429688 158.210938 "/>
<path style=" stroke:none;fill-rule:nonzero;fill:rgb(100%,84.3%,0%);fill-opacity:1;" d="M 227.632812 441.167969 C 227.632812 447.324219 218.394531 447.324219 218.394531 441.167969 C 218.394531 435.011719 227.632812 435.011719 227.632812 441.167969 "/>
<path style=" stroke:none;fill-rule:nonzero;fill:rgb(100%,84.3%,0%);fill-opacity:1;" d="M 144.085938 457.554688 C 144.085938 463.710938 134.851562 463.710938 134.851562 457.554688 C 134.851562 451.398438 144.085938 451.398438 144.085938 457.554688 "/>
<path style=" stroke:none;fill-rule:nonzero;fill:rgb(100%,84.3%,0%);fill-opacity:1;" d="M 213.675781 433.40625 C 213.675781 439.566406 204.4375 439.566406 204.4375 433.40625 C 204.4375 427.25 213.675781 427.25 213.675781 433.40625 "/>
<path style=" stroke:none;fill-rule:nonzero;fill:rgb(100%,84.3%,0%);fill-opacity:1;" d="M 135.292969 420.53125 C 135.292969 426.691406 126.058594 426.691406 126.058594 420.53125 C 126.058594 414.375 135.292969 414.375 135.292969 420.53125 "/>
<path style=" stroke:none;fill-rule:nonzero;fill:rgb(100%,84.3%,0%);fill-opacity:1;" d="M 111.941406 130.4375 C 111.941406 136.59375 102.707031 136.59375 102.707031 130.4375 C 102.707031 124.28125 111.941406 124.28125 111.941406 130.4375 "/>
<path style=" stroke:none;fill-rule:nonzero;fill:rgb(100%,84.3%,0%);fill-opacity:1;" d="M 420.707031 120.226562 C 420.707031 126.382812 411.472656 126.382812 411.472656 120.226562 C 411.472656 114.066406 420.707031 114.066406 420.707031 120.226562 "/>
<path style=" stroke:none;fill-rule:nonzero;fill:rgb(100%,84.3%,0%);fill-opacity:1;" d="M 144.835938 420.804688 C 144.835938 426.960938 135.601562 426.960938 135.601562 420.804688 C 135.601562 414.648438 144.835938 414.648438 144.835938 420.804688 "/>
<path style=" stroke:none;fill-rule:nonzero;fill:rgb(100%,84.3%,0%);fill-opacity:1;" d="M 144.195312 441.320312 C 144.195312 447.480469 134.960938 447.480469 134.960938 441.320312 C 134.960938 435.164062 144.195312 435.164062 144.195312 441.320312 "/>
<path style=" stroke:none;fill-rule:nonzero;fill:rgb(100%,84.3%,0%);fill-opacity:1;" d="M 456.640625 411.640625 C 456.640625 417.796875 447.40625 417.796875 447.40625 411.640625 C 447.40625 405.484375 456.640625 405.484375 456.640625 411.640625 "/>
<path style=" stroke:none;fill-rule:nonzero;fill:rgb(100%,84.3%,0%);fill-opacity:1;" d="M 75 130.332031 C 75 136.488281 65.765625 136.488281 65.765625 130.332031 C 65.765625 124.175781 75 124.175781 75 130.332031 "/>
<path style=" stroke:none;fill-rule:nonzero;fill:rgb(100%,84.3%,0%);fill-opacity:1;" d="M 365.949219 439.832031 C 365.949219 445.988281 356.710938 445.988281 356.710938 439.832031 C 356.710938 433.675781 365.949219 433.675781 365.949219 439.832031 "/>
<path style=" stroke:none;fill-rule:nonzero;fill:rgb(100%,84.3%,0%);fill-opacity:1;" d="M 116.199219 420.066406 C 116.199219 426.222656 106.964844 426.222656 106.964844 420.066406 C 106.964844 413.910156 116.199219 413.910156 116.199219 420.066406 "/>
<path style=" stroke:none;fill-rule:nonzero;fill:rgb(100%,84.3%,0%);fill-opacity:1;" d="M 171.664062 409.222656 C 171.664062 415.378906 162.425781 415.378906 162.425781 409.222656 C 162.425781 403.066406 171.664062 403.066406 171.664062 409.222656 "/>
<path style=" stroke:none;fill-rule:nonzero;fill:rgb(100%,84.3%,0%);fill-opacity:1;" d="M 412.09375 431.054688 C 412.09375 437.210938 402.855469 437.210938 402.855469 431.054688 C 402.855469 424.898438 412.09375 424.898438 412.09375 431.054688 "/>
<path style=" stroke:none;fill-rule:nonzero;fill:rgb(100%,84.3%,0%);fill-opacity:1;" d="M 439.667969 396.015625 C 439.667969 402.171875 430.429688 402.171875 430.429688 396.015625 C 430.429688 389.859375 439.667969 389.859375 439.667969 396.015625 "/>
<path style=" stroke:none;fill-rule:nonzero;fill:rgb(100%,84.3%,0%);fill-opacity:1;" d="M 105.738281 419.484375 C 105.738281 425.640625 96.503906 425.640625 96.503906 419.484375 C 96.503906 413.328125 105.738281 413.328125 105.738281 419.484375 "/>
<path style=" stroke:none;fill-rule:nonzero;fill:rgb(100%,84.3%,0%);fill-opacity:1;" d="M 126.070312 419.824219 C 126.070312 425.984375 116.835938 425.984375 116.835938 419.824219 C 116.835938 413.667969 126.070312 413.667969 126.070312 419.824219 "/>
<path style=" stroke:none;fill-rule:nonzero;fill:rgb(100%,84.3%,0%);fill-opacity:1;" d="M 75.304688 417.65625 C 75.304688 423.816406 66.070312 423.816406 66.070312 417.65625 C 66.070312 411.5 75.304688 411.5 75.304688 417.65625 "/>
<path style=" stroke:none;fill-rule:nonzero;fill:rgb(100%,84.3%,0%);fill-opacity:1;" d="M 449.445312 417.449219 C 449.445312 423.609375 440.207031 423.609375 440.207031 417.449219 C 440.207031 411.292969 449.445312 411.292969 449.445312 417.449219 "/>
<path style=" stroke:none;fill-rule:nonzero;fill:rgb(100%,84.3%,0%);fill-opacity:1;" d="M 84.882812 417.738281 C 84.882812 423.894531 75.644531 423.894531 75.644531 417.738281 C 75.644531 411.582031 84.882812 411.582031 84.882812 417.738281 "/>
<path style=" stroke:none;fill-rule:nonzero;fill:rgb(100%,84.3%,0%);fill-opacity:1;" d="M 94.113281 417.535156 C 94.113281 423.691406 84.878906 423.691406 84.878906 417.535156 C 84.878906 411.378906 94.113281 411.378906 94.113281 417.535156 "/>
<path style=" stroke:none;fill-rule:nonzero;fill:rgb(100%,84.3%,0%);fill-opacity:1;" d="M 162.667969 441.433594 C 162.667969 447.589844 153.429688 447.589844 153.429688 441.433594 C 153.429688 435.277344 162.667969 435.277344 162.667969 441.433594 "/>
<path style=" stroke:none;fill-rule:nonzero;fill:rgb(100%,84.3%,0%);fill-opacity:1;" d="M 432.003906 422.007812 C 432.003906 428.164062 422.765625 428.164062 422.765625 422.007812 C 422.765625 415.847656 432.003906 415.847656 432.003906 422.007812 "/>
<path style=" stroke:none;fill-rule:nonzero;fill:rgb(100%,84.3%,0%);fill-opacity:1;" d="M 393.640625 439.910156 C 393.640625 446.066406 384.40625 446.066406 384.40625 439.910156 C 384.40625 433.753906 393.640625 433.753906 393.640625 439.910156 "/>
<path style=" stroke:none;fill-rule:nonzero;fill:rgb(100%,84.3%,0%);fill-opacity:1;" d="M 102.714844 139.707031 C 102.714844 145.863281 93.476562 145.863281 93.476562 139.707031 C 93.476562 133.550781 102.714844 133.550781 102.714844 139.707031 "/>
<path style=" stroke:none;fill-rule:nonzero;fill:rgb(100%,84.3%,0%);fill-opacity:1;" d="M 420.359375 465.546875 C 420.359375 471.703125 411.121094 471.703125 411.121094 465.546875 C 411.121094 459.390625 420.359375 459.390625 420.359375 465.546875 "/>
<path style=" stroke:none;fill-rule:nonzero;fill:rgb(100%,84.3%,0%);fill-opacity:1;" d="M 56.671875 415.699219 C 56.671875 421.859375 47.4375 421.859375 47.4375 415.699219 C 47.4375 409.542969 56.671875 409.542969 56.671875 415.699219 "/>
<path style=" stroke:none;fill-rule:nonzero;fill:rgb(100%,84.3%,0%);fill-opacity:1;" d="M 383.3125 449.46875 C 383.3125 455.625 374.078125 455.625 374.078125 449.46875 C 374.078125 443.3125 383.3125 443.3125 383.3125 449.46875 "/>
<path style=" stroke:none;fill-rule:nonzero;fill:rgb(100%,84.3%,0%);fill-opacity:1;" d="M 378.570312 457.492188 C 378.570312 463.648438 369.332031 463.648438 369.332031 457.492188 C 369.332031 451.335938 378.570312 451.335938 378.570312 457.492188 "/>
<path style=" stroke:none;fill-rule:nonzero;fill:rgb(100%,84.3%,0%);fill-opacity:1;" d="M 350.589844 127.871094 C 350.589844 134.027344 341.351562 134.027344 341.351562 127.871094 C 341.351562 121.714844 350.589844 121.714844 350.589844 127.871094 "/>
<path style=" stroke:none;fill-rule:nonzero;fill:rgb(100%,84.3%,0%);fill-opacity:1;" d="M 422.710938 421.957031 C 422.710938 428.113281 413.476562 428.113281 413.476562 421.957031 C 413.476562 415.800781 422.710938 415.800781 422.710938 421.957031 "/>
<path style=" stroke:none;fill-rule:nonzero;fill:rgb(100%,84.3%,0%);fill-opacity:1;" d="M 66.25 415.601562 C 66.25 421.757812 57.015625 421.757812 57.015625 415.601562 C 57.015625 409.445312 66.25 409.445312 66.25 415.601562 "/>
<path style=" stroke:none;fill-rule:nonzero;fill:rgb(100%,84.3%,0%);fill-opacity:1;" d="M 255.382812 441.339844 C 255.382812 447.496094 246.144531 447.496094 246.144531 441.339844 C 246.144531 435.183594 255.382812 435.183594 255.382812 441.339844 "/>
<path style=" stroke:none;fill-rule:nonzero;fill:rgb(100%,84.3%,0%);fill-opacity:1;" d="M 407.535156 128.578125 C 407.535156 134.738281 398.300781 134.738281 398.300781 128.578125 C 398.300781 122.421875 407.535156 122.421875 407.535156 128.578125 "/>
<path style=" stroke:none;fill-rule:nonzero;fill:rgb(100%,84.3%,0%);fill-opacity:1;" d="M 278.679688 465.546875 C 278.679688 471.703125 269.445312 471.703125 269.445312 465.546875 C 269.445312 459.390625 278.679688 459.390625 278.679688 465.546875 "/>
<path style=" stroke:none;fill-rule:nonzero;fill:rgb(100%,84.3%,0%);fill-opacity:1;" d="M 236.839844 425.054688 C 236.839844 431.210938 227.605469 431.210938 227.605469 425.054688 C 227.605469 418.894531 236.839844 418.894531 236.839844 425.054688 "/>
<path style=" stroke:none;fill-rule:nonzero;fill:rgb(100%,84.3%,0%);fill-opacity:1;" d="M 148.566406 433.183594 C 148.566406 439.34375 139.332031 439.34375 139.332031 433.183594 C 139.332031 427.027344 148.566406 427.027344 148.566406 433.183594 "/>
<path style=" stroke:none;fill-rule:nonzero;fill:rgb(100%,84.3%,0%);fill-opacity:1;" d="M 75.03125 167.296875 C 75.03125 173.453125 65.796875 173.453125 65.796875 167.296875 C 65.796875 161.140625 75.03125 161.140625 75.03125 167.296875 "/>
<path style=" stroke:none;fill-rule:nonzero;fill:rgb(100%,84.3%,0%);fill-opacity:1;" d="M 139.527344 412.324219 C 139.527344 418.480469 130.292969 418.480469 130.292969 412.324219 C 130.292969 406.167969 139.527344 406.167969 139.527344 412.324219 "/>
<path style=" stroke:none;fill-rule:nonzero;fill:rgb(100%,84.3%,0%);fill-opacity:1;" d="M 448.664062 375.9375 C 448.664062 382.09375 439.429688 382.09375 439.429688 375.9375 C 439.429688 369.78125 448.664062 369.78125 448.664062 375.9375 "/>
<path style=" stroke:none;fill-rule:nonzero;fill:rgb(100%,84.3%,0%);fill-opacity:1;" d="M 402.863281 430.730469 C 402.863281 436.886719 393.628906 436.886719 393.628906 430.730469 C 393.628906 424.570312 402.863281 424.570312 402.863281 430.730469 "/>
<path style=" stroke:none;fill-rule:nonzero;fill:rgb(100%,84.3%,0%);fill-opacity:1;" d="M 456.550781 361.652344 C 456.550781 367.808594 447.316406 367.808594 447.316406 361.652344 C 447.316406 355.496094 456.550781 355.496094 456.550781 361.652344 "/>
<path style=" stroke:none;fill-rule:nonzero;fill:rgb(100%,84.3%,0%);fill-opacity:1;" d="M 373.875 465.546875 C 373.875 471.703125 364.640625 471.703125 364.640625 465.546875 C 364.640625 459.390625 373.875 459.390625 373.875 465.546875 "/>
<path style=" stroke:none;fill-rule:nonzero;fill:rgb(100%,84.3%,0%);fill-opacity:1;" d="M 121.253906 121.210938 C 121.253906 127.367188 112.019531 127.367188 112.019531 121.210938 C 112.019531 115.054688 121.253906 115.054688 121.253906 121.210938 "/>
<path style=" stroke:none;fill-rule:nonzero;fill:rgb(100%,84.3%,0%);fill-opacity:1;" d="M 448.425781 407.421875 C 448.425781 413.578125 439.191406 413.578125 439.191406 407.421875 C 439.191406 401.265625 448.425781 401.265625 448.425781 407.421875 "/>
<path style=" stroke:none;fill-rule:nonzero;fill:rgb(100%,84.3%,0%);fill-opacity:1;" d="M 111.359375 412.15625 C 111.359375 418.3125 102.125 418.3125 102.125 412.15625 C 102.125 406 111.359375 406 111.359375 412.15625 "/>
<path style=" stroke:none;fill-rule:nonzero;fill:rgb(100%,84.3%,0%);fill-opacity:1;" d="M 327.390625 119.847656 C 327.390625 126.003906 318.15625 126.003906 318.15625 119.847656 C 318.15625 113.691406 327.390625 113.691406 327.390625 119.847656 "/>
<path style=" stroke:none;fill-rule:nonzero;fill:rgb(100%,84.3%,0%);fill-opacity:1;" d="M 102.707031 130.457031 C 102.707031 136.613281 93.472656 136.613281 93.472656 130.457031 C 93.472656 124.300781 102.707031 124.300781 102.707031 130.457031 "/>
<path style=" stroke:none;fill-rule:nonzero;fill:rgb(100%,84.3%,0%);fill-opacity:1;" d="M 441.203125 413.1875 C 441.203125 419.347656 431.96875 419.347656 431.96875 413.1875 C 431.96875 407.03125 441.203125 407.03125 441.203125 413.1875 "/>
<path style=" stroke:none;fill-rule:nonzero;fill:rgb(100%,84.3%,0%);fill-opacity:1;" d="M 101.121094 411.484375 C 101.121094 417.640625 91.886719 417.640625 91.886719 411.484375 C 91.886719 405.328125 101.121094 405.328125 101.121094 411.484375 "/>
<path style=" stroke:none;fill-rule:nonzero;fill:rgb(100%,84.3%,0%);fill-opacity:1;" d="M 424.527344 407.210938 C 424.527344 413.367188 415.292969 413.367188 415.292969 407.210938 C 415.292969 401.054688 424.527344 401.054688 424.527344 407.210938 "/>
<path style=" stroke:none;fill-rule:nonzero;fill:rgb(100%,84.3%,0%);fill-opacity:1;" d="M 181.105469 409.28125 C 181.105469 415.441406 171.867188 415.441406 171.867188 409.28125 C 171.867188 403.125 181.105469 403.125 181.105469 409.28125 "/>
<path style=" stroke:none;fill-rule:nonzero;fill:rgb(100%,84.3%,0%);fill-opacity:1;" d="M 413.476562 421.910156 C 413.476562 428.066406 404.242188 428.066406 404.242188 421.910156 C 404.242188 415.753906 413.476562 415.753906 413.476562 421.910156 "/>
<path style=" stroke:none;fill-rule:nonzero;fill:rgb(100%,84.3%,0%);fill-opacity:1;" d="M 273.699219 457.390625 C 273.699219 463.546875 264.464844 463.546875 264.464844 457.390625 C 264.464844 451.234375 273.699219 451.234375 273.699219 457.390625 "/>
<path style=" stroke:none;fill-rule:nonzero;fill:rgb(100%,84.3%,0%);fill-opacity:1;" d="M 384.414062 440.296875 C 384.414062 446.453125 375.179688 446.453125 375.179688 440.296875 C 375.179688 434.140625 384.414062 434.140625 384.414062 440.296875 "/>
<path style=" stroke:none;fill-rule:nonzero;fill:rgb(100%,84.3%,0%);fill-opacity:1;" d="M 176.578125 433.28125 C 176.578125 439.4375 167.34375 439.4375 167.34375 433.28125 C 167.34375 427.125 176.578125 427.125 176.578125 433.28125 "/>
<path style=" stroke:none;fill-rule:nonzero;fill:rgb(100%,84.3%,0%);fill-opacity:1;" d="M 93.460938 111.867188 C 93.460938 118.023438 84.222656 118.023438 84.222656 111.867188 C 84.222656 105.710938 93.460938 105.710938 93.460938 111.867188 "/>
<path style=" stroke:none;fill-rule:nonzero;fill:rgb(100%,84.3%,0%);fill-opacity:1;" d="M 120.820312 412.070312 C 120.820312 418.226562 111.585938 418.226562 111.585938 412.070312 C 111.585938 405.914062 120.820312 405.914062 120.820312 412.070312 "/>
<path style=" stroke:none;fill-rule:nonzero;fill:rgb(100%,84.3%,0%);fill-opacity:1;" d="M 429.972656 120.238281 C 429.972656 126.394531 420.738281 126.394531 420.738281 120.238281 C 420.738281 114.082031 429.972656 114.082031 429.972656 120.238281 "/>
<path style=" stroke:none;fill-rule:nonzero;fill:rgb(100%,84.3%,0%);fill-opacity:1;" d="M 167.117188 433.339844 C 167.117188 439.496094 157.878906 439.496094 157.878906 433.339844 C 157.878906 427.183594 167.117188 427.183594 167.117188 433.339844 "/>
<path style=" stroke:none;fill-rule:nonzero;fill:rgb(100%,84.3%,0%);fill-opacity:1;" d="M 313.449219 111.839844 C 313.449219 117.996094 304.214844 117.996094 304.214844 111.839844 C 304.214844 105.679688 313.449219 105.679688 313.449219 111.839844 "/>
<path style=" stroke:none;fill-rule:nonzero;fill:rgb(100%,84.3%,0%);fill-opacity:1;" d="M 153.261719 425.214844 C 153.261719 431.371094 144.027344 431.371094 144.027344 425.214844 C 144.027344 419.058594 153.261719 419.058594 153.261719 425.214844 "/>
<path style=" stroke:none;fill-rule:nonzero;fill:rgb(100%,84.3%,0%);fill-opacity:1;" d="M 431.902344 412.769531 C 431.902344 418.929688 422.664062 418.929688 422.664062 412.769531 C 422.664062 406.613281 431.902344 406.613281 431.902344 412.769531 "/>
<path style=" stroke:none;fill-rule:nonzero;fill:rgb(100%,84.3%,0%);fill-opacity:1;" d="M 167.113281 417.257812 C 167.113281 423.414062 157.875 423.414062 157.875 417.257812 C 157.875 411.101562 167.113281 411.101562 167.113281 417.257812 "/>
<path style=" stroke:none;fill-rule:nonzero;fill:rgb(100%,84.3%,0%);fill-opacity:1;" d="M 464.714844 348.09375 C 464.714844 354.25 455.480469 354.25 455.480469 348.09375 C 455.480469 341.9375 464.714844 341.9375 464.714844 348.09375 "/>
<path style=" stroke:none;fill-rule:nonzero;fill:rgb(100%,84.3%,0%);fill-opacity:1;" d="M 250.746094 433.09375 C 250.746094 439.25 241.511719 439.25 241.511719 433.09375 C 241.511719 426.933594 250.746094 426.933594 250.746094 433.09375 "/>
<path style=" stroke:none;fill-rule:nonzero;fill:rgb(100%,84.3%,0%);fill-opacity:1;" d="M 393.605469 430.675781 C 393.605469 436.832031 384.371094 436.832031 384.371094 430.675781 C 384.371094 424.519531 393.605469 424.519531 393.605469 430.675781 "/>
<path style=" stroke:none;fill-rule:nonzero;fill:rgb(100%,84.3%,0%);fill-opacity:1;" d="M 190.46875 425.257812 C 190.46875 431.414062 181.230469 431.414062 181.230469 425.257812 C 181.230469 419.097656 190.46875 419.097656 190.46875 425.257812 "/>
<path style=" stroke:none;fill-rule:nonzero;fill:rgb(100%,84.3%,0%);fill-opacity:1;" d="M 65.792969 167.347656 C 65.792969 173.503906 56.558594 173.503906 56.558594 167.347656 C 56.558594 161.191406 65.792969 161.191406 65.792969 167.347656 "/>
<path style=" stroke:none;fill-rule:nonzero;fill:rgb(100%,84.3%,0%);fill-opacity:1;" d="M 171.921875 425.304688 C 171.921875 431.460938 162.683594 431.460938 162.683594 425.304688 C 162.683594 419.148438 171.921875 419.148438 171.921875 425.304688 "/>
<path style=" stroke:none;fill-rule:nonzero;fill:rgb(100%,84.3%,0%);fill-opacity:1;" d="M 384.355469 431.0625 C 384.355469 437.21875 375.117188 437.21875 375.117188 431.0625 C 375.117188 424.902344 384.355469 424.902344 384.355469 431.0625 "/>
<path style=" stroke:none;fill-rule:nonzero;fill:rgb(100%,84.3%,0%);fill-opacity:1;" d="M 341.300781 127.886719 C 341.300781 134.042969 332.0625 134.042969 332.0625 127.886719 C 332.0625 121.730469 341.300781 121.730469 341.300781 127.886719 "/>
<path style=" stroke:none;fill-rule:nonzero;fill:rgb(100%,84.3%,0%);fill-opacity:1;" d="M 375.082031 430.871094 C 375.082031 437.027344 365.847656 437.027344 365.847656 430.871094 C 365.847656 424.714844 375.082031 424.714844 375.082031 430.871094 "/>
<path style=" stroke:none;fill-rule:nonzero;fill:rgb(100%,84.3%,0%);fill-opacity:1;" d="M 80.144531 409.792969 C 80.144531 415.949219 70.910156 415.949219 70.910156 409.792969 C 70.910156 403.636719 80.144531 403.636719 80.144531 409.792969 "/>
<path style=" stroke:none;fill-rule:nonzero;fill:rgb(100%,84.3%,0%);fill-opacity:1;" d="M 245.972656 457.386719 C 245.972656 463.542969 236.738281 463.542969 236.738281 457.386719 C 236.738281 451.226562 245.972656 451.226562 245.972656 457.386719 "/>
<path style=" stroke:none;fill-rule:nonzero;fill:rgb(100%,84.3%,0%);fill-opacity:1;" d="M 199.699219 425.5625 C 199.699219 431.71875 190.460938 431.71875 190.460938 425.5625 C 190.460938 419.40625 199.699219 419.40625 199.699219 425.5625 "/>
<path style=" stroke:none;fill-rule:nonzero;fill:rgb(100%,84.3%,0%);fill-opacity:1;" d="M 457.453125 422.050781 C 457.453125 428.207031 448.21875 428.207031 448.21875 422.050781 C 448.21875 415.894531 457.453125 415.894531 457.453125 422.050781 "/>
<path style=" stroke:none;fill-rule:nonzero;fill:rgb(100%,84.3%,0%);fill-opacity:1;" d="M 250.75 465.546875 C 250.75 471.703125 241.515625 471.703125 241.515625 465.546875 C 241.515625 459.390625 250.75 459.390625 250.75 465.546875 "/>
<path style=" stroke:none;fill-rule:nonzero;fill:rgb(100%,84.3%,0%);fill-opacity:1;" d="M 349.15625 457.082031 C 349.15625 463.238281 339.921875 463.238281 339.921875 457.082031 C 339.921875 450.925781 349.15625 450.925781 349.15625 457.082031 "/>
<path style=" stroke:none;fill-rule:nonzero;fill:rgb(100%,84.3%,0%);fill-opacity:1;" d="M 241.335938 449.398438 C 241.335938 455.554688 232.101562 455.554688 232.101562 449.398438 C 232.101562 443.238281 241.335938 443.238281 241.335938 449.398438 "/>
<path style=" stroke:none;fill-rule:nonzero;fill:rgb(100%,84.3%,0%);fill-opacity:1;" d="M 158.082031 465.546875 C 158.082031 471.703125 148.84375 471.703125 148.84375 465.546875 C 148.84375 459.390625 158.082031 459.390625 158.082031 465.546875 "/>
<path style=" stroke:none;fill-rule:nonzero;fill:rgb(100%,84.3%,0%);fill-opacity:1;" d="M 399.585938 413.554688 C 399.585938 419.710938 390.351562 419.710938 390.351562 413.554688 C 390.351562 407.398438 399.585938 407.398438 399.585938 413.554688 "/>
<path style=" stroke:none;fill-rule:nonzero;fill:rgb(100%,84.3%,0%);fill-opacity:1;" d="M 375.179688 440.105469 C 375.179688 446.261719 365.945312 446.261719 365.945312 440.105469 C 365.945312 433.949219 375.179688 433.949219 375.179688 440.105469 "/>
<path style=" stroke:none;fill-rule:nonzero;fill:rgb(100%,84.3%,0%);fill-opacity:1;" d="M 269.09375 449.386719 C 269.09375 455.542969 259.855469 455.542969 259.855469 449.386719 C 259.855469 443.230469 269.09375 443.230469 269.09375 449.386719 "/>
<path style=" stroke:none;fill-rule:nonzero;fill:rgb(100%,84.3%,0%);fill-opacity:1;" d="M 222.90625 433.097656 C 222.90625 439.253906 213.667969 439.253906 213.667969 433.097656 C 213.667969 426.941406 222.90625 426.941406 222.90625 433.097656 "/>
<path style=" stroke:none;fill-rule:nonzero;fill:rgb(100%,84.3%,0%);fill-opacity:1;" d="M 443.042969 111.839844 C 443.042969 117.996094 433.808594 117.996094 433.808594 111.839844 C 433.808594 105.679688 443.042969 105.679688 443.042969 111.839844 "/>
<path style=" stroke:none;fill-rule:nonzero;fill:rgb(100%,84.3%,0%);fill-opacity:1;" d="M 383.125 135.839844 C 383.125 141.996094 373.890625 141.996094 373.890625 135.839844 C 373.890625 129.679688 383.125 129.679688 383.125 135.839844 "/>
<path style=" stroke:none;fill-rule:nonzero;fill:rgb(100%,84.3%,0%);fill-opacity:1;" d="M 343.621094 465.238281 C 343.621094 471.398438 334.386719 471.398438 334.386719 465.238281 C 334.386719 459.082031 343.621094 459.082031 343.621094 465.238281 "/>
<path style=" stroke:none;fill-rule:nonzero;fill:rgb(100%,84.3%,0%);fill-opacity:1;" d="M 404.183594 421.589844 C 404.183594 427.746094 394.949219 427.746094 394.949219 421.589844 C 394.949219 415.433594 404.183594 415.433594 404.183594 421.589844 "/>
<path style=" stroke:none;fill-rule:nonzero;fill:rgb(100%,84.3%,0%);fill-opacity:1;" d="M 56.519531 167.316406 C 56.519531 173.472656 47.285156 173.472656 47.285156 167.316406 C 47.285156 161.160156 56.519531 161.160156 56.519531 167.316406 "/>
<path style=" stroke:none;fill-rule:nonzero;fill:rgb(100%,84.3%,0%);fill-opacity:1;" d="M 148.742188 465.53125 C 148.742188 471.691406 139.507812 471.691406 139.507812 465.53125 C 139.507812 459.375 148.742188 459.375 148.742188 465.53125 "/>
<path style=" stroke:none;fill-rule:nonzero;fill:rgb(100%,84.3%,0%);fill-opacity:1;" d="M 181.222656 425.269531 C 181.222656 431.425781 171.988281 431.425781 171.988281 425.269531 C 171.988281 419.109375 181.222656 419.109375 181.222656 425.269531 "/>
<path style=" stroke:none;fill-rule:nonzero;fill:rgb(100%,84.3%,0%);fill-opacity:1;" d="M 139.585938 449.492188 C 139.585938 455.648438 130.351562 455.648438 130.351562 449.492188 C 130.351562 443.335938 139.585938 443.335938 139.585938 449.492188 "/>
<path style=" stroke:none;fill-rule:nonzero;fill:rgb(100%,84.3%,0%);fill-opacity:1;" d="M 418.109375 413.921875 C 418.109375 420.078125 408.875 420.078125 408.875 413.921875 C 408.875 407.765625 418.109375 407.765625 418.109375 413.921875 "/>
</g>
</svg>
