<?xml version="1.0" encoding="UTF-8"?>
<svg xmlns="http://www.w3.org/2000/svg" xmlns:xlink="http://www.w3.org/1999/xlink" width="512pt" height="512pt" viewBox="0 0 512 512" version="1.1">
<g id="surface41">
<path style=" stroke:none;fill-rule:nonzero;fill:rgb(26.7%,26.7%,26.7%);fill-opacity:1;" d="M 32 0 L 480 0 L 480 512 L 32 512 Z M 32 0 "/>
<path style=" stroke:none;fill-rule:nonzero;fill:rgb(19.2%,38.8%,66.7%);fill-opacity:1;" d="M 69.332031 42.667969 L 442.667969 42.667969 L 442.667969 469.332031 L 69.332031 469.332031 Z M 69.332031 42.667969 "/>
<path style=" stroke:none;fill-rule:nonzero;fill:rgb(100%,100%,100%);fill-opacity:1;" d="M 412.800781 8.53125 C 412.800781 14.425781 408.023438 19.199219 402.132812 19.199219 C 396.242188 19.199219 391.464844 14.425781 391.464844 8.53125 C 391.464844 2.640625 396.242188 -2.132812 402.132812 -2.132812 C 408.023438 -2.132812 412.800781 2.640625 412.800781 8.53125 "/>
<path style=" stroke:none;fill-rule:nonzero;fill:rgb(100%,100%,100%);fill-opacity:1;" d="M 459.734375 238.933594 C 459.734375 244.824219 454.957031 249.601562 449.066406 249.601562 C 443.175781 249.601562 438.398438 244.824219 438.398438 238.933594 C 438.398438 233.042969 443.175781 228.265625 449.066406 228.265625 C 454.957031 228.265625 459.734375 233.042969 459.734375 238.933594 "/>
<path style=" stroke:none;fill-rule:nonzero;fill:rgb(100%,100%,100%);fill-opacity:1;" d="M 468.265625 264.53125 C 468.265625 270.425781 463.492188 275.199219 457.601562 275.199219 C 451.707031 275.199219 446.933594 270.425781 446.933594 264.53125 C 446.933594 258.640625 451.707031 253.867188 457.601562 253.867188 C 463.492188 253.867188 468.265625 258.640625 468.265625 264.53125 "/>
<path style=" stroke:none;fill-rule:nonzero;fill:rgb(100%,100%,100%);fill-opacity:1;" d="M 242.132812 -8.53125 C 242.132812 -2.640625 237.359375 2.132812 231.46875 2.132812 C 225.574219 2.132812 220.800781 -2.640625 220.800781 -8.53125 C 220.800781 -14.425781 225.574219 -19.199219 231.46875 -19.199219 C 237.359375 -19.199219 242.132812 -14.425781 242.132812 -8.53125 "/>
<path style=" stroke:none;fill-rule:nonzero;fill:rgb(100%,100%,100%);fill-opacity:1;" d="M 35.199219 215.46875 C 35.199219 221.359375 30.425781 226.132812 24.53125 226.132812 C 18.640625 226.132812 13.867188 221.359375 13.867188 215.46875 C 13.867188 209.574219 18.640625 204.800781 24.53125 204.800781 C 30.425781 204.800781 35.199219 209.574219 35.199219 215.46875 "/>
<path style=" stroke:none;fill-rule:nonzero;fill:rgb(100%,100%,100%);fill-opacity:1;" d="M 500.265625 46.933594 C 500.265625 52.824219 495.492188 57.601562 489.601562 57.601562 C 483.707031 57.601562 478.933594 52.824219 478.933594 46.933594 C 478.933594 41.042969 483.707031 36.265625 489.601562 36.265625 C 495.492188 36.265625 500.265625 41.042969 500.265625 46.933594 "/>
<path style=" stroke:none;fill-rule:nonzero;fill:rgb(100%,100%,100%);fill-opacity:1;" d="M 478.933594 12.800781 C 478.933594 18.691406 474.15625 23.464844 468.265625 23.464844 C 462.375 23.464844 457.601562 18.691406 457.601562 12.800781 C 457.601562 6.910156 462.375 2.132812 468.265625 2.132812 C 474.15625 2.132812 478.933594 6.910156 478.933594 12.800781 "/>
<path style=" stroke:none;fill-rule:nonzero;fill:rgb(100%,100%,100%);fill-opacity:1;" d="M 137.601562 19.199219 C 137.601562 25.089844 132.824219 29.867188 126.933594 29.867188 C 121.042969 29.867188 116.265625 25.089844 116.265625 19.199219 C 116.265625 13.308594 121.042969 8.535156 126.933594 8.535156 C 132.824219 8.535156 137.601562 13.308594 137.601562 19.199219 "/>
<path style=" stroke:none;fill-rule:nonzero;fill:rgb(100%,100%,100%);fill-opacity:1;" d="M 37.332031 6.398438 C 37.332031 12.292969 32.558594 17.066406 26.667969 17.066406 C 20.777344 17.066406 16 12.292969 16 6.398438 C 16 0.507812 20.777344 -4.265625 26.667969 -4.265625 C 32.558594 -4.265625 37.332031 0.507812 37.332031 6.398438 "/>
<path style=" stroke:none;fill-rule:nonzero;fill:rgb(100%,100%,100%);fill-opacity:1;" d="M 69.332031 260.265625 C 69.332031 266.15625 64.558594 270.933594 58.667969 270.933594 C 52.777344 270.933594 48 266.15625 48 260.265625 C 48 254.375 52.777344 249.601562 58.667969 249.601562 C 64.558594 249.601562 69.332031 254.375 69.332031 260.265625 "/>
<path style=" stroke:none;fill-rule:nonzero;fill:rgb(100%,100%,100%);fill-opacity:1;" d="M 82.132812 8.53125 C 82.132812 14.425781 77.359375 19.199219 71.46875 19.199219 C 65.574219 19.199219 60.800781 14.425781 60.800781 8.53125 C 60.800781 2.640625 65.574219 -2.132812 71.46875 -2.132812 C 77.359375 -2.132812 82.132812 2.640625 82.132812 8.53125 "/>
<path style=" stroke:none;fill-rule:nonzero;fill:rgb(100%,100%,100%);fill-opacity:1;" d="M 468.265625 437.332031 C 468.265625 443.222656 463.492188 448 457.601562 448 C 451.707031 448 446.933594 443.222656 446.933594 437.332031 C 446.933594 431.441406 451.707031 426.667969 457.601562 426.667969 C 463.492188 426.667969 468.265625 431.441406 468.265625 437.332031 "/>
<path style=" stroke:none;fill-rule:nonzero;fill:rgb(100%,100%,100%);fill-opacity:1;" d="M 498.132812 326.398438 C 498.132812 332.292969 493.359375 337.066406 487.46875 337.066406 C 481.574219 337.066406 476.800781 332.292969 476.800781 326.398438 C 476.800781 320.507812 481.574219 315.734375 487.46875 315.734375 C 493.359375 315.734375 498.132812 320.507812 498.132812 326.398438 "/>
<path style=" stroke:none;fill-rule:nonzero;fill:rgb(100%,100%,100%);fill-opacity:1;" d="M 461.867188 326.398438 C 461.867188 332.292969 457.089844 337.066406 451.199219 337.066406 C 445.308594 337.066406 440.535156 332.292969 440.535156 326.398438 C 440.535156 320.507812 445.308594 315.734375 451.199219 315.734375 C 457.089844 315.734375 461.867188 320.507812 461.867188 326.398438 "/>
<path style=" stroke:none;fill-rule:nonzero;fill:rgb(100%,100%,100%);fill-opacity:1;" d="M 485.332031 -2.132812 C 485.332031 3.757812 480.558594 8.535156 474.667969 8.535156 C 468.777344 8.535156 464 3.757812 464 -2.132812 C 464 -8.023438 468.777344 -12.800781 474.667969 -12.800781 C 480.558594 -12.800781 485.332031 -8.023438 485.332031 -2.132812 "/>
<path style=" stroke:none;fill-rule:nonzero;fill:rgb(100%,84.3%,0%);fill-opacity:1;" d="M 413.203125 232.761719 C 413.203125 238.652344 408.429688 243.429688 402.535156 243.429688 C 396.644531 243.429688 391.871094 238.652344 391.871094 232.761719 C 391.871094 226.871094 396.644531 222.097656 402.535156 222.097656 C 408.429688 222.097656 413.203125 226.871094 413.203125 232.761719 "/>
<path style=" stroke:none;fill-rule:nonzero;fill:rgb(100%,84.3%,0%);fill-opacity:1;" d="M 404.757812 274.042969 C 404.757812 279.933594 399.980469 284.707031 394.089844 284.707031 C 388.199219 284.707031 383.421875 279.933594 383.421875 274.042969 C 383.421875 268.152344 388.199219 263.375 394.089844 263.375 C 399.980469 263.375 404.757812 268.152344 404.757812 274.042969 "/>
<path style=" stroke:none;fill-rule:nonzero;fill:rgb(100%,84.3%,0%);fill-opacity:1;" d="M 119.886719 270.714844 C 119.886719 276.605469 115.113281 281.378906 109.222656 281.378906 C 103.332031 281.378906 98.554688 276.605469 98.554688 270.714844 C 98.554688 264.820312 103.332031 260.046875 109.222656 260.046875 C 115.113281 260.046875 119.886719 264.820312 119.886719 270.714844 "/>
<path style=" stroke:none;fill-rule:nonzero;fill:rgb(100%,84.3%,0%);fill-opacity:1;" d="M 413.320312 315.136719 C 413.320312 321.027344 408.542969 325.800781 402.652344 325.800781 C 396.761719 325.800781 391.984375 321.027344 391.984375 315.136719 C 391.984375 309.246094 396.761719 304.46875 402.652344 304.46875 C 408.542969 304.46875 413.320312 309.246094 413.320312 315.136719 "/>
<path style=" stroke:none;fill-rule:nonzero;fill:rgb(100%,84.3%,0%);fill-opacity:1;" d="M 413.210938 426.574219 C 413.210938 432.464844 408.433594 437.242188 402.542969 437.242188 C 396.652344 437.242188 391.875 432.464844 391.875 426.574219 C 391.875 420.683594 396.652344 415.910156 402.542969 415.910156 C 408.433594 415.910156 413.210938 420.683594 413.210938 426.574219 "/>
<path style=" stroke:none;fill-rule:nonzero;fill:rgb(100%,84.3%,0%);fill-opacity:1;" d="M 176.21875 448 C 176.21875 453.890625 171.445312 458.667969 165.554688 458.667969 C 159.664062 458.667969 154.886719 453.890625 154.886719 448 C 154.886719 442.109375 159.664062 437.332031 165.554688 437.332031 C 171.445312 437.332031 176.21875 442.109375 176.21875 448 "/>
<path style=" stroke:none;fill-rule:nonzero;fill:rgb(100%,84.3%,0%);fill-opacity:1;" d="M 209.9375 64 C 209.9375 69.890625 205.160156 74.667969 199.269531 74.667969 C 193.378906 74.667969 188.605469 69.890625 188.605469 64 C 188.605469 58.109375 193.378906 53.332031 199.269531 53.332031 C 205.160156 53.332031 209.9375 58.109375 209.9375 64 "/>
<path style=" stroke:none;fill-rule:nonzero;fill:rgb(100%,84.3%,0%);fill-opacity:1;" d="M 120.011719 350.933594 C 120.011719 356.824219 115.234375 361.601562 109.34375 361.601562 C 103.453125 361.601562 98.679688 356.824219 98.679688 350.933594 C 98.679688 345.042969 103.453125 340.269531 109.34375 340.269531 C 115.234375 340.269531 120.011719 345.042969 120.011719 350.933594 "/>
<path style=" stroke:none;fill-rule:nonzero;fill:rgb(100%,84.3%,0%);fill-opacity:1;" d="M 394.96875 244.277344 C 394.96875 250.167969 390.195312 254.945312 384.304688 254.945312 C 378.410156 254.945312 373.636719 250.167969 373.636719 244.277344 C 373.636719 238.386719 378.410156 233.609375 384.304688 233.609375 C 390.195312 233.609375 394.96875 238.386719 394.96875 244.277344 "/>
<path style=" stroke:none;fill-rule:nonzero;fill:rgb(100%,84.3%,0%);fill-opacity:1;" d="M 231.269531 64.105469 C 231.269531 69.996094 226.496094 74.773438 220.605469 74.773438 C 214.714844 74.773438 209.9375 69.996094 209.9375 64.105469 C 209.9375 58.214844 214.714844 53.4375 220.605469 53.4375 C 226.496094 53.4375 231.269531 58.214844 231.269531 64.105469 "/>
<path style=" stroke:none;fill-rule:nonzero;fill:rgb(100%,84.3%,0%);fill-opacity:1;" d="M 101.394531 382.574219 C 101.394531 388.46875 96.617188 393.242188 90.726562 393.242188 C 84.835938 393.242188 80.0625 388.46875 80.0625 382.574219 C 80.0625 376.683594 84.835938 371.910156 90.726562 371.910156 C 96.617188 371.910156 101.394531 376.683594 101.394531 382.574219 "/>
<path style=" stroke:none;fill-rule:nonzero;fill:rgb(100%,84.3%,0%);fill-opacity:1;" d="M 413.167969 359.265625 C 413.167969 365.15625 408.390625 369.933594 402.5 369.933594 C 396.609375 369.933594 391.832031 365.15625 391.832031 359.265625 C 391.832031 353.375 396.609375 348.597656 402.5 348.597656 C 408.390625 348.597656 413.167969 353.375 413.167969 359.265625 "/>
<path style=" stroke:none;fill-rule:nonzero;fill:rgb(100%,84.3%,0%);fill-opacity:1;" d="M 154.203125 448 C 154.203125 453.890625 149.429688 458.667969 143.535156 458.667969 C 137.644531 458.667969 132.871094 453.890625 132.871094 448 C 132.871094 442.109375 137.644531 437.332031 143.535156 437.332031 C 149.429688 437.332031 154.203125 442.109375 154.203125 448 "/>
<path style=" stroke:none;fill-rule:nonzero;fill:rgb(100%,84.3%,0%);fill-opacity:1;" d="M 413.242188 189.859375 C 413.242188 195.75 408.464844 200.523438 402.574219 200.523438 C 396.683594 200.523438 391.910156 195.75 391.910156 189.859375 C 391.910156 183.96875 396.683594 179.191406 402.574219 179.191406 C 408.464844 179.191406 413.242188 183.96875 413.242188 189.859375 "/>
<path style=" stroke:none;fill-rule:nonzero;fill:rgb(100%,84.3%,0%);fill-opacity:1;" d="M 246.71875 448 C 246.71875 453.890625 241.945312 458.667969 236.054688 458.667969 C 230.164062 458.667969 225.386719 453.890625 225.386719 448 C 225.386719 442.109375 230.164062 437.332031 236.054688 437.332031 C 241.945312 437.332031 246.71875 442.109375 246.71875 448 "/>
<path style=" stroke:none;fill-rule:nonzero;fill:rgb(100%,84.3%,0%);fill-opacity:1;" d="M 131.011719 448 C 131.011719 453.890625 126.234375 458.667969 120.34375 458.667969 C 114.453125 458.667969 109.679688 453.890625 109.679688 448 C 109.679688 442.109375 114.453125 437.332031 120.34375 437.332031 C 126.234375 437.332031 131.011719 442.109375 131.011719 448 "/>
<path style=" stroke:none;fill-rule:nonzero;fill:rgb(100%,84.3%,0%);fill-opacity:1;" d="M 432 64 C 432 69.890625 427.222656 74.667969 421.332031 74.667969 C 415.441406 74.667969 410.667969 69.890625 410.667969 64 C 410.667969 58.109375 415.441406 53.332031 421.332031 53.332031 C 427.222656 53.332031 432 58.109375 432 64 "/>
<path style=" stroke:none;fill-rule:nonzero;fill:rgb(100%,84.3%,0%);fill-opacity:1;" d="M 431.917969 304.46875 C 431.917969 310.359375 427.140625 315.132812 421.25 315.132812 C 415.359375 315.132812 410.582031 310.359375 410.582031 304.46875 C 410.582031 298.578125 415.359375 293.800781 421.25 293.800781 C 427.140625 293.800781 431.917969 298.578125 431.917969 304.46875 "/>
<path style=" stroke:none;fill-rule:nonzero;fill:rgb(100%,84.3%,0%);fill-opacity:1;" d="M 423.011719 285.082031 C 423.011719 290.972656 418.234375 295.75 412.34375 295.75 C 406.453125 295.75 401.679688 290.972656 401.679688 285.082031 C 401.679688 279.191406 406.453125 274.414062 412.34375 274.414062 C 418.234375 274.414062 423.011719 279.191406 423.011719 285.082031 "/>
<path style=" stroke:none;fill-rule:nonzero;fill:rgb(100%,84.3%,0%);fill-opacity:1;" d="M 188.484375 64 C 188.484375 69.890625 183.710938 74.667969 177.820312 74.667969 C 171.929688 74.667969 167.152344 69.890625 167.152344 64 C 167.152344 58.109375 171.929688 53.332031 177.820312 53.332031 C 183.710938 53.332031 188.484375 58.109375 188.484375 64 "/>
<path style=" stroke:none;fill-rule:nonzero;fill:rgb(100%,84.3%,0%);fill-opacity:1;" d="M 268.289062 448 C 268.289062 453.890625 263.511719 458.667969 257.621094 458.667969 C 251.730469 458.667969 246.953125 453.890625 246.953125 448 C 246.953125 442.109375 251.730469 437.332031 257.621094 437.332031 C 263.511719 437.332031 268.289062 442.109375 268.289062 448 "/>
<path style=" stroke:none;fill-rule:nonzero;fill:rgb(100%,84.3%,0%);fill-opacity:1;" d="M 101.332031 260.1875 C 101.332031 266.078125 96.558594 270.851562 90.667969 270.851562 C 84.777344 270.851562 80 266.078125 80 260.1875 C 80 254.296875 84.777344 249.519531 90.667969 249.519531 C 96.558594 249.519531 101.332031 254.296875 101.332031 260.1875 "/>
<path style=" stroke:none;fill-rule:nonzero;fill:rgb(100%,84.3%,0%);fill-opacity:1;" d="M 432 242.855469 C 432 248.746094 427.222656 253.519531 421.332031 253.519531 C 415.441406 253.519531 410.667969 248.746094 410.667969 242.855469 C 410.667969 236.964844 415.441406 232.1875 421.332031 232.1875 C 427.222656 232.1875 432 236.964844 432 242.855469 "/>
<path style=" stroke:none;fill-rule:nonzero;fill:rgb(100%,84.3%,0%);fill-opacity:1;" d="M 101.53125 217.269531 C 101.53125 223.160156 96.757812 227.9375 90.867188 227.9375 C 84.976562 227.9375 80.199219 223.160156 80.199219 217.269531 C 80.199219 211.378906 84.976562 206.605469 90.867188 206.605469 C 96.757812 206.605469 101.53125 211.378906 101.53125 217.269531 "/>
<path style=" stroke:none;fill-rule:nonzero;fill:rgb(100%,84.3%,0%);fill-opacity:1;" d="M 386.804688 64 C 386.804688 69.890625 382.027344 74.667969 376.136719 74.667969 C 370.246094 74.667969 365.46875 69.890625 365.46875 64 C 365.46875 58.109375 370.246094 53.332031 376.136719 53.332031 C 382.027344 53.332031 386.804688 58.109375 386.804688 64 "/>
<path style=" stroke:none;fill-rule:nonzero;fill:rgb(100%,84.3%,0%);fill-opacity:1;" d="M 101.332031 238.601562 C 101.332031 244.492188 96.558594 249.269531 90.667969 249.269531 C 84.777344 249.269531 80 244.492188 80 238.601562 C 80 232.710938 84.777344 227.9375 90.667969 227.9375 C 96.558594 227.9375 101.332031 232.710938 101.332031 238.601562 "/>
<path style=" stroke:none;fill-rule:nonzero;fill:rgb(100%,84.3%,0%);fill-opacity:1;" d="M 392.402344 447.667969 C 392.402344 453.558594 387.628906 458.332031 381.734375 458.332031 C 375.84375 458.332031 371.070312 453.558594 371.070312 447.667969 C 371.070312 441.777344 375.84375 437 381.734375 437 C 387.628906 437 392.402344 441.777344 392.402344 447.667969 "/>
<path style=" stroke:none;fill-rule:nonzero;fill:rgb(100%,84.3%,0%);fill-opacity:1;" d="M 432 200.019531 C 432 205.910156 427.222656 210.6875 421.332031 210.6875 C 415.441406 210.6875 410.667969 205.910156 410.667969 200.019531 C 410.667969 194.128906 415.441406 189.351562 421.332031 189.351562 C 427.222656 189.351562 432 194.128906 432 200.019531 "/>
<path style=" stroke:none;fill-rule:nonzero;fill:rgb(100%,84.3%,0%);fill-opacity:1;" d="M 101.332031 64 C 101.332031 69.890625 96.558594 74.667969 90.667969 74.667969 C 84.777344 74.667969 80 69.890625 80 64 C 80 58.109375 84.777344 53.332031 90.667969 53.332031 C 96.558594 53.332031 101.332031 58.109375 101.332031 64 "/>
<path style=" stroke:none;fill-rule:nonzero;fill:rgb(100%,84.3%,0%);fill-opacity:1;" d="M 101.332031 304.015625 C 101.332031 309.90625 96.558594 314.679688 90.667969 314.679688 C 84.777344 314.679688 80 309.90625 80 304.015625 C 80 298.121094 84.777344 293.347656 90.667969 293.347656 C 96.558594 293.347656 101.332031 298.121094 101.332031 304.015625 "/>
<path style=" stroke:none;fill-rule:nonzero;fill:rgb(100%,84.3%,0%);fill-opacity:1;" d="M 432 369.285156 C 432 375.175781 427.222656 379.953125 421.332031 379.953125 C 415.441406 379.953125 410.667969 375.175781 410.667969 369.285156 C 410.667969 363.394531 415.441406 358.617188 421.332031 358.617188 C 427.222656 358.617188 432 363.394531 432 369.285156 "/>
<path style=" stroke:none;fill-rule:nonzero;fill:rgb(100%,84.3%,0%);fill-opacity:1;" d="M 432 221.519531 C 432 227.410156 427.222656 232.1875 421.332031 232.1875 C 415.441406 232.1875 410.667969 227.410156 410.667969 221.519531 C 410.667969 215.628906 415.441406 210.851562 421.332031 210.851562 C 427.222656 210.851562 432 215.628906 432 221.519531 "/>
<path style=" stroke:none;fill-rule:nonzero;fill:rgb(100%,84.3%,0%);fill-opacity:1;" d="M 432 325.800781 C 432 331.691406 427.222656 336.46875 421.332031 336.46875 C 415.441406 336.46875 410.667969 331.691406 410.667969 325.800781 C 410.667969 319.910156 415.441406 315.132812 421.332031 315.132812 C 427.222656 315.132812 432 319.910156 432 325.800781 "/>
<path style=" stroke:none;fill-rule:nonzero;fill:rgb(100%,84.3%,0%);fill-opacity:1;" d="M 197.796875 448 C 197.796875 453.890625 193.019531 458.667969 187.128906 458.667969 C 181.238281 458.667969 176.460938 453.890625 176.460938 448 C 176.460938 442.109375 181.238281 437.332031 187.128906 437.332031 C 193.019531 437.332031 197.796875 442.109375 197.796875 448 "/>
<path style=" stroke:none;fill-rule:nonzero;fill:rgb(100%,84.3%,0%);fill-opacity:1;" d="M 166.824219 64 C 166.824219 69.890625 162.046875 74.667969 156.15625 74.667969 C 150.265625 74.667969 145.488281 69.890625 145.488281 64 C 145.488281 58.109375 150.265625 53.332031 156.15625 53.332031 C 162.046875 53.332031 166.824219 58.109375 166.824219 64 "/>
<path style=" stroke:none;fill-rule:nonzero;fill:rgb(100%,84.3%,0%);fill-opacity:1;" d="M 432 265.472656 C 432 271.363281 427.222656 276.140625 421.332031 276.140625 C 415.441406 276.140625 410.667969 271.363281 410.667969 265.472656 C 410.667969 259.582031 415.441406 254.808594 421.332031 254.808594 C 427.222656 254.808594 432 259.582031 432 265.472656 "/>
<path style=" stroke:none;fill-rule:nonzero;fill:rgb(100%,84.3%,0%);fill-opacity:1;" d="M 432 436.878906 C 432 442.769531 427.222656 447.546875 421.332031 447.546875 C 415.441406 447.546875 410.667969 442.769531 410.667969 436.878906 C 410.667969 430.988281 415.441406 426.214844 421.332031 426.214844 C 427.222656 426.214844 432 430.988281 432 436.878906 "/>
<path style=" stroke:none;fill-rule:nonzero;fill:rgb(100%,84.3%,0%);fill-opacity:1;" d="M 101.59375 339.910156 C 101.59375 345.800781 96.816406 350.578125 90.925781 350.578125 C 85.035156 350.578125 80.257812 345.800781 80.257812 339.910156 C 80.257812 334.019531 85.035156 329.246094 90.925781 329.246094 C 96.816406 329.246094 101.59375 334.019531 101.59375 339.910156 "/>
<path style=" stroke:none;fill-rule:nonzero;fill:rgb(100%,84.3%,0%);fill-opacity:1;" d="M 145.207031 64 C 145.207031 69.890625 140.433594 74.667969 134.539062 74.667969 C 128.648438 74.667969 123.875 69.890625 123.875 64 C 123.875 58.109375 128.648438 53.332031 134.539062 53.332031 C 140.433594 53.332031 145.207031 58.109375 145.207031 64 "/>
<path style=" stroke:none;fill-rule:nonzero;fill:rgb(100%,84.3%,0%);fill-opacity:1;" d="M 156.296875 180.777344 C 156.296875 186.667969 151.519531 191.445312 145.628906 191.445312 C 139.738281 191.445312 134.964844 186.667969 134.964844 180.777344 C 134.964844 174.886719 139.738281 170.109375 145.628906 170.109375 C 151.519531 170.109375 156.296875 174.886719 156.296875 180.777344 "/>
<path style=" stroke:none;fill-rule:nonzero;fill:rgb(100%,84.3%,0%);fill-opacity:1;" d="M 123.4375 64 C 123.4375 69.890625 118.660156 74.667969 112.769531 74.667969 C 106.878906 74.667969 102.101562 69.890625 102.101562 64 C 102.101562 58.109375 106.878906 53.332031 112.769531 53.332031 C 118.660156 53.332031 123.4375 58.109375 123.4375 64 "/>
<path style=" stroke:none;fill-rule:nonzero;fill:rgb(100%,84.3%,0%);fill-opacity:1;" d="M 413.527344 336.46875 C 413.527344 342.359375 408.75 347.136719 402.859375 347.136719 C 396.96875 347.136719 392.191406 342.359375 392.191406 336.46875 C 392.191406 330.578125 396.96875 325.800781 402.859375 325.800781 C 408.75 325.800781 413.527344 330.578125 413.527344 336.46875 "/>
<path style=" stroke:none;fill-rule:nonzero;fill:rgb(100%,84.3%,0%);fill-opacity:1;" d="M 112.300781 82.300781 C 112.300781 88.191406 107.523438 92.964844 101.632812 92.964844 C 95.742188 92.964844 90.96875 88.191406 90.96875 82.300781 C 90.96875 76.40625 95.742188 71.632812 101.632812 71.632812 C 107.523438 71.632812 112.300781 76.40625 112.300781 82.300781 "/>
<path style=" stroke:none;fill-rule:nonzero;fill:rgb(100%,84.3%,0%);fill-opacity:1;" d="M 413.890625 254.132812 C 413.890625 260.023438 409.113281 264.796875 403.222656 264.796875 C 397.332031 264.796875 392.558594 260.023438 392.558594 254.132812 C 392.558594 248.238281 397.332031 243.464844 403.222656 243.464844 C 409.113281 243.464844 413.890625 248.238281 413.890625 254.132812 "/>
<path style=" stroke:none;fill-rule:nonzero;fill:rgb(100%,84.3%,0%);fill-opacity:1;" d="M 413.734375 447.902344 C 413.734375 453.792969 408.960938 458.570312 403.066406 458.570312 C 397.175781 458.570312 392.402344 453.792969 392.402344 447.902344 C 392.402344 442.011719 397.175781 437.234375 403.066406 437.234375 C 408.960938 437.234375 413.734375 442.011719 413.734375 447.902344 "/>
<path style=" stroke:none;fill-rule:nonzero;fill:rgb(100%,84.3%,0%);fill-opacity:1;" d="M 119.851562 249.378906 C 119.851562 255.269531 115.074219 260.046875 109.183594 260.046875 C 103.292969 260.046875 98.515625 255.269531 98.515625 249.378906 C 98.515625 243.488281 103.292969 238.714844 109.183594 238.714844 C 115.074219 238.714844 119.851562 243.488281 119.851562 249.378906 "/>
<path style=" stroke:none;fill-rule:nonzero;fill:rgb(100%,84.3%,0%);fill-opacity:1;" d="M 119.964844 292.101562 C 119.964844 297.992188 115.1875 302.769531 109.296875 302.769531 C 103.40625 302.769531 98.628906 297.992188 98.628906 292.101562 C 98.628906 286.210938 103.40625 281.433594 109.296875 281.433594 C 115.1875 281.433594 119.964844 286.210938 119.964844 292.101562 "/>
<path style=" stroke:none;fill-rule:nonzero;fill:rgb(100%,84.3%,0%);fill-opacity:1;" d="M 101.332031 281.710938 C 101.332031 287.601562 96.558594 292.375 90.667969 292.375 C 84.777344 292.375 80 287.601562 80 281.710938 C 80 275.816406 84.777344 271.042969 90.667969 271.042969 C 96.558594 271.042969 101.332031 275.816406 101.332031 281.710938 "/>
<path style=" stroke:none;fill-rule:nonzero;fill:rgb(100%,84.3%,0%);fill-opacity:1;" d="M 404.496094 295.679688 C 404.496094 301.570312 399.71875 306.34375 393.828125 306.34375 C 387.9375 306.34375 383.164062 301.570312 383.164062 295.679688 C 383.164062 289.789062 387.9375 285.011719 393.828125 285.011719 C 399.71875 285.011719 404.496094 289.789062 404.496094 295.679688 "/>
<path style=" stroke:none;fill-rule:nonzero;fill:rgb(100%,84.3%,0%);fill-opacity:1;" d="M 413.128906 211.429688 C 413.128906 217.320312 408.355469 222.097656 402.464844 222.097656 C 396.574219 222.097656 391.796875 217.320312 391.796875 211.429688 C 391.796875 205.539062 396.574219 200.761719 402.464844 200.761719 C 408.355469 200.761719 413.128906 205.539062 413.128906 211.429688 "/>
<path style=" stroke:none;fill-rule:nonzero;fill:rgb(100%,84.3%,0%);fill-opacity:1;" d="M 220.925781 448 C 220.925781 453.890625 216.152344 458.667969 210.261719 458.667969 C 204.371094 458.667969 199.59375 453.890625 199.59375 448 C 199.59375 442.109375 204.371094 437.332031 210.261719 437.332031 C 216.152344 437.332031 220.925781 442.109375 220.925781 448 "/>
<path style=" stroke:none;fill-rule:nonzero;fill:rgb(100%,84.3%,0%);fill-opacity:1;" d="M 101.332031 361.242188 C 101.332031 367.132812 96.558594 371.910156 90.667969 371.910156 C 84.777344 371.910156 80 367.132812 80 361.242188 C 80 355.351562 84.777344 350.578125 90.667969 350.578125 C 96.558594 350.578125 101.332031 355.351562 101.332031 361.242188 "/>
<path style=" stroke:none;fill-rule:nonzero;fill:rgb(100%,84.3%,0%);fill-opacity:1;" d="M 409.652344 64 C 409.652344 69.890625 404.875 74.667969 398.984375 74.667969 C 393.09375 74.667969 388.316406 69.890625 388.316406 64 C 388.316406 58.109375 393.09375 53.332031 398.984375 53.332031 C 404.875 53.332031 409.652344 58.109375 409.652344 64 "/>
<path style=" stroke:none;fill-rule:nonzero;fill:rgb(100%,84.3%,0%);fill-opacity:1;" d="M 432 347.253906 C 432 353.144531 427.222656 357.917969 421.332031 357.917969 C 415.441406 357.917969 410.667969 353.144531 410.667969 347.253906 C 410.667969 341.363281 415.441406 336.585938 421.332031 336.585938 C 427.222656 336.585938 432 341.363281 432 347.253906 "/>
<path style=" stroke:none;fill-rule:nonzero;fill:rgb(100%,84.3%,0%);fill-opacity:1;" d="M 432 414.890625 C 432 420.78125 427.222656 425.558594 421.332031 425.558594 C 415.441406 425.558594 410.667969 420.78125 410.667969 414.890625 C 410.667969 409 415.441406 404.222656 421.332031 404.222656 C 427.222656 404.222656 432 409 432 414.890625 "/>
<path style=" stroke:none;fill-rule:nonzero;fill:rgb(100%,84.3%,0%);fill-opacity:1;" d="M 134.910156 82.683594 C 134.910156 88.574219 130.132812 93.351562 124.242188 93.351562 C 118.351562 93.351562 113.578125 88.574219 113.578125 82.683594 C 113.578125 76.792969 118.351562 72.015625 124.242188 72.015625 C 130.132812 72.015625 134.910156 76.792969 134.910156 82.683594 "/>
</g>
</svg>
