<?xml version="1.0" encoding="UTF-8"?>
<svg xmlns="http://www.w3.org/2000/svg" xmlns:xlink="http://www.w3.org/1999/xlink" width="512pt" height="512pt" viewBox="0 0 512 512" version="1.1">
<g id="surface61">
<path style=" stroke:none;fill-rule:nonzero;fill:rgb(26.7%,26.7%,26.7%);fill-opacity:1;" d="M 33.8125 0 L 478.191406 0 L 478.191406 512 L 33.8125 512 Z M 33.8125 0 "/>
<path style=" stroke:none;fill-rule:nonzero;fill:rgb(19.2%,38.8%,66.7%);fill-opacity:1;" d="M 70.84375 42.667969 L 441.15625 42.667969 L 441.15625 469.332031 L 70.84375 469.332031 Z M 70.84375 42.667969 "/>
<path style=" stroke:none;fill-rule:nonzero;fill:rgb(100%,100%,100%);fill-opacity:1;" d="M 42.667969 239.898438 C 42.667969 243.605469 39.664062 246.609375 35.957031 246.609375 C 32.253906 246.609375 29.25 243.605469 29.25 239.898438 C 29.25 236.195312 32.253906 233.191406 35.957031 233.191406 C 39.664062 233.191406 42.667969 236.195312 42.667969 239.898438 "/>
<path style=" stroke:none;fill-rule:nonzero;fill:rgb(100%,100%,100%);fill-opacity:1;" d="M 518.976562 489.460938 C 518.976562 493.164062 515.972656 496.167969 512.269531 496.167969 C 508.5625 496.167969 505.558594 493.164062 505.558594 489.460938 C 505.558594 485.753906 508.5625 482.75 512.269531 482.75 C 515.972656 482.75 518.976562 485.753906 518.976562 489.460938 "/>
<path style=" stroke:none;fill-rule:nonzero;fill:rgb(100%,100%,100%);fill-opacity:1;" d="M 141.953125 23.882812 C 141.953125 27.589844 138.949219 30.589844 135.246094 30.589844 C 131.539062 30.589844 128.535156 27.589844 128.535156 23.882812 C 128.535156 20.179688 131.539062 17.175781 135.246094 17.175781 C 138.949219 17.175781 141.953125 20.179688 141.953125 23.882812 "/>
<path style=" stroke:none;fill-rule:nonzero;fill:rgb(100%,100%,100%);fill-opacity:1;" d="M 143.296875 41.324219 C 143.296875 45.03125 140.292969 48.035156 136.585938 48.035156 C 132.882812 48.035156 129.878906 45.03125 129.878906 41.324219 C 129.878906 37.621094 132.882812 34.617188 136.585938 34.617188 C 140.292969 34.617188 143.296875 37.621094 143.296875 41.324219 "/>
<path style=" stroke:none;fill-rule:nonzero;fill:rgb(100%,100%,100%);fill-opacity:1;" d="M 15.832031 68.160156 C 15.832031 71.863281 12.828125 74.867188 9.125 74.867188 C 5.417969 74.867188 2.414062 71.863281 2.414062 68.160156 C 2.414062 64.453125 5.417969 61.449219 9.125 61.449219 C 12.828125 61.449219 15.832031 64.453125 15.832031 68.160156 "/>
<path style=" stroke:none;fill-rule:nonzero;fill:rgb(100%,100%,100%);fill-opacity:1;" d="M 422.375 508.242188 C 422.375 511.949219 419.371094 514.953125 415.664062 514.953125 C 411.960938 514.953125 408.957031 511.949219 408.957031 508.242188 C 408.957031 504.539062 411.960938 501.535156 415.664062 501.535156 C 419.371094 501.535156 422.375 504.539062 422.375 508.242188 "/>
<path style=" stroke:none;fill-rule:nonzero;fill:rgb(100%,100%,100%);fill-opacity:1;" d="M 1.074219 92.308594 C 1.074219 96.015625 -1.929688 99.019531 -5.636719 99.019531 C -9.339844 99.019531 -12.34375 96.015625 -12.34375 92.308594 C -12.34375 88.605469 -9.339844 85.601562 -5.636719 85.601562 C -1.929688 85.601562 1.074219 88.605469 1.074219 92.308594 "/>
<path style=" stroke:none;fill-rule:nonzero;fill:rgb(100%,100%,100%);fill-opacity:1;" d="M 517.636719 443.839844 C 517.636719 447.546875 514.632812 450.550781 510.925781 450.550781 C 507.222656 450.550781 504.21875 447.546875 504.21875 443.839844 C 504.21875 440.136719 507.222656 437.132812 510.925781 437.132812 C 514.632812 437.132812 517.636719 440.136719 517.636719 443.839844 "/>
<path style=" stroke:none;fill-rule:nonzero;fill:rgb(100%,100%,100%);fill-opacity:1;" d="M 21.199219 109.753906 C 21.199219 113.457031 18.195312 116.460938 14.492188 116.460938 C 10.785156 116.460938 7.78125 113.457031 7.78125 109.753906 C 7.78125 106.046875 10.785156 103.042969 14.492188 103.042969 C 18.195312 103.042969 21.199219 106.046875 21.199219 109.753906 "/>
<path style=" stroke:none;fill-rule:nonzero;fill:rgb(100%,100%,100%);fill-opacity:1;" d="M 72.183594 459.941406 C 72.183594 463.644531 69.179688 466.648438 65.476562 466.648438 C 61.769531 466.648438 58.765625 463.644531 58.765625 459.941406 C 58.765625 456.234375 61.769531 453.230469 65.476562 453.230469 C 69.179688 453.230469 72.183594 456.234375 72.183594 459.941406 "/>
<path style=" stroke:none;fill-rule:nonzero;fill:rgb(100%,100%,100%);fill-opacity:1;" d="M 23.882812 366.019531 C 23.882812 369.726562 20.878906 372.730469 17.175781 372.730469 C 13.46875 372.730469 10.464844 369.726562 10.464844 366.019531 C 10.464844 362.316406 13.46875 359.3125 17.175781 359.3125 C 20.878906 359.3125 23.882812 362.316406 23.882812 366.019531 "/>
<path style=" stroke:none;fill-rule:nonzero;fill:rgb(100%,100%,100%);fill-opacity:1;" d="M 89.625 34.617188 C 89.625 38.320312 86.625 41.324219 82.917969 41.324219 C 79.214844 41.324219 76.210938 38.320312 76.210938 34.617188 C 76.210938 30.910156 79.214844 27.90625 82.917969 27.90625 C 86.625 27.90625 89.625 30.910156 89.625 34.617188 "/>
<path style=" stroke:none;fill-rule:nonzero;fill:rgb(100%,100%,100%);fill-opacity:1;" d="M 200.988281 21.199219 C 200.988281 24.902344 197.984375 27.90625 194.28125 27.90625 C 190.574219 27.90625 187.574219 24.902344 187.574219 21.199219 C 187.574219 17.492188 190.574219 14.492188 194.28125 14.492188 C 197.984375 14.492188 200.988281 17.492188 200.988281 21.199219 "/>
<path style=" stroke:none;fill-rule:nonzero;fill:rgb(100%,100%,100%);fill-opacity:1;" d="M 513.609375 249.289062 C 513.609375 252.996094 510.605469 256 506.902344 256 C 503.195312 256 500.191406 252.996094 500.191406 249.289062 C 500.191406 245.585938 503.195312 242.582031 506.902344 242.582031 C 510.605469 242.582031 513.609375 245.585938 513.609375 249.289062 "/>
<path style=" stroke:none;fill-rule:nonzero;fill:rgb(100%,100%,100%);fill-opacity:1;" d="M 496.167969 345.894531 C 496.167969 349.601562 493.164062 352.605469 489.460938 352.605469 C 485.753906 352.605469 482.75 349.601562 482.75 345.894531 C 482.75 342.191406 485.753906 339.1875 489.460938 339.1875 C 493.164062 339.1875 496.167969 342.191406 496.167969 345.894531 "/>
<path style=" stroke:none;fill-rule:nonzero;fill:rgb(100%,100%,100%);fill-opacity:1;" d="M 467.992188 18.515625 C 467.992188 22.222656 464.988281 25.222656 461.28125 25.222656 C 457.578125 25.222656 454.574219 22.222656 454.574219 18.515625 C 454.574219 14.8125 457.578125 11.808594 461.28125 11.808594 C 464.988281 11.808594 467.992188 14.8125 467.992188 18.515625 "/>
<path style=" stroke:none;fill-rule:nonzero;fill:rgb(100%,100%,100%);fill-opacity:1;" d="M 454.574219 332.476562 C 454.574219 336.183594 451.570312 339.1875 447.867188 339.1875 C 444.160156 339.1875 441.15625 336.183594 441.15625 332.476562 C 441.15625 328.773438 444.160156 325.769531 447.867188 325.769531 C 451.570312 325.769531 454.574219 328.773438 454.574219 332.476562 "/>
<path style=" stroke:none;fill-rule:nonzero;fill:rgb(100%,100%,100%);fill-opacity:1;" d="M 69.5 73.527344 C 69.5 77.230469 66.496094 80.234375 62.792969 80.234375 C 59.085938 80.234375 56.082031 77.230469 56.082031 73.527344 C 56.082031 69.820312 59.085938 66.816406 62.792969 66.816406 C 66.496094 66.816406 69.5 69.820312 69.5 73.527344 "/>
<path style=" stroke:none;fill-rule:nonzero;fill:rgb(100%,100%,100%);fill-opacity:1;" d="M 256 6.441406 C 256 10.144531 252.996094 13.148438 249.289062 13.148438 C 245.585938 13.148438 242.582031 10.144531 242.582031 6.441406 C 242.582031 2.734375 245.585938 -0.269531 249.289062 -0.269531 C 252.996094 -0.269531 256 2.734375 256 6.441406 "/>
<path style=" stroke:none;fill-rule:nonzero;fill:rgb(100%,100%,100%);fill-opacity:1;" d="M 457.257812 70.84375 C 457.257812 74.546875 454.253906 77.550781 450.550781 77.550781 C 446.84375 77.550781 443.839844 74.546875 443.839844 70.84375 C 443.839844 67.136719 446.84375 64.132812 450.550781 64.132812 C 454.253906 64.132812 457.257812 67.136719 457.257812 70.84375 "/>
<path style=" stroke:none;fill-rule:nonzero;fill:rgb(100%,100%,100%);fill-opacity:1;" d="M 496.167969 128.535156 C 496.167969 132.242188 493.164062 135.246094 489.460938 135.246094 C 485.753906 135.246094 482.75 132.242188 482.75 128.535156 C 482.75 124.832031 485.753906 121.828125 489.460938 121.828125 C 493.164062 121.828125 496.167969 124.832031 496.167969 128.535156 "/>
<path style=" stroke:none;fill-rule:nonzero;fill:rgb(100%,100%,100%);fill-opacity:1;" d="M 514.953125 301.617188 C 514.953125 305.324219 511.949219 308.328125 508.242188 308.328125 C 504.539062 308.328125 501.535156 305.324219 501.535156 301.617188 C 501.535156 297.914062 504.539062 294.910156 508.242188 294.910156 C 511.949219 294.910156 514.953125 297.914062 514.953125 301.617188 "/>
<path style=" stroke:none;fill-rule:nonzero;fill:rgb(100%,100%,100%);fill-opacity:1;" d="M 100.359375 1.074219 C 100.359375 4.777344 97.355469 7.78125 93.652344 7.78125 C 89.945312 7.78125 86.945312 4.777344 86.945312 1.074219 C 86.945312 -2.632812 89.945312 -5.636719 93.652344 -5.636719 C 97.355469 -5.636719 100.359375 -2.632812 100.359375 1.074219 "/>
<path style=" stroke:none;fill-rule:nonzero;fill:rgb(100%,100%,100%);fill-opacity:1;" d="M 501.535156 215.746094 C 501.535156 219.453125 498.53125 222.457031 494.824219 222.457031 C 491.121094 222.457031 488.117188 219.453125 488.117188 215.746094 C 488.117188 212.042969 491.121094 209.039062 494.824219 209.039062 C 498.53125 209.039062 501.535156 212.042969 501.535156 215.746094 "/>
<path style=" stroke:none;fill-rule:nonzero;fill:rgb(100%,100%,100%);fill-opacity:1;" d="M 45.351562 219.773438 C 45.351562 223.480469 42.347656 226.484375 38.640625 226.484375 C 34.9375 226.484375 31.933594 223.480469 31.933594 219.773438 C 31.933594 216.070312 34.9375 213.066406 38.640625 213.066406 C 42.347656 213.066406 45.351562 216.070312 45.351562 219.773438 "/>
<path style=" stroke:none;fill-rule:nonzero;fill:rgb(100%,100%,100%);fill-opacity:1;" d="M 64.132812 143.296875 C 64.132812 147 61.132812 150.003906 57.425781 150.003906 C 53.722656 150.003906 50.71875 147 50.71875 143.296875 C 50.71875 139.589844 53.722656 136.585938 57.425781 136.585938 C 61.132812 136.585938 64.132812 139.589844 64.132812 143.296875 "/>
<path style=" stroke:none;fill-rule:nonzero;fill:rgb(100%,100%,100%);fill-opacity:1;" d="M 500.191406 44.007812 C 500.191406 47.714844 497.1875 50.714844 493.484375 50.714844 C 489.777344 50.714844 486.777344 47.714844 486.777344 44.007812 C 486.777344 40.304688 489.777344 37.300781 493.484375 37.300781 C 497.1875 37.300781 500.191406 40.304688 500.191406 44.007812 "/>
<path style=" stroke:none;fill-rule:nonzero;fill:rgb(100%,100%,100%);fill-opacity:1;" d="M 1.074219 400.90625 C 1.074219 404.609375 -1.929688 407.613281 -5.636719 407.613281 C -9.339844 407.613281 -12.34375 404.609375 -12.34375 400.90625 C -12.34375 397.199219 -9.339844 394.199219 -5.636719 394.199219 C -1.929688 394.199219 1.074219 397.199219 1.074219 400.90625 "/>
<path style=" stroke:none;fill-rule:nonzero;fill:rgb(100%,100%,100%);fill-opacity:1;" d="M 19.859375 510.925781 C 19.859375 514.632812 16.855469 517.636719 13.148438 517.636719 C 9.445312 517.636719 6.441406 514.632812 6.441406 510.925781 C 6.441406 507.222656 9.445312 504.21875 13.148438 504.21875 C 16.855469 504.21875 19.859375 507.222656 19.859375 510.925781 "/>
<path style=" stroke:none;fill-rule:nonzero;fill:rgb(100%,100%,100%);fill-opacity:1;" d="M 423.714844 501.535156 C 423.714844 505.238281 420.710938 508.242188 417.007812 508.242188 C 413.300781 508.242188 410.296875 505.238281 410.296875 501.535156 C 410.296875 497.828125 413.300781 494.828125 417.007812 494.828125 C 420.710938 494.828125 423.714844 497.828125 423.714844 501.535156 "/>
<path style=" stroke:none;fill-rule:nonzero;fill:rgb(100%,100%,100%);fill-opacity:1;" d="M 22.539062 378.097656 C 22.539062 381.800781 19.535156 384.804688 15.832031 384.804688 C 12.125 384.804688 9.125 381.800781 9.125 378.097656 C 9.125 374.390625 12.125 371.386719 15.832031 371.386719 C 19.535156 371.386719 22.539062 374.390625 22.539062 378.097656 "/>
<path style=" stroke:none;fill-rule:nonzero;fill:rgb(100%,100%,100%);fill-opacity:1;" d="M 510.925781 496.167969 C 510.925781 499.875 507.921875 502.875 504.21875 502.875 C 500.511719 502.875 497.507812 499.875 497.507812 496.167969 C 497.507812 492.464844 500.511719 489.460938 504.21875 489.460938 C 507.921875 489.460938 510.925781 492.464844 510.925781 496.167969 "/>
<path style=" stroke:none;fill-rule:nonzero;fill:rgb(100%,100%,100%);fill-opacity:1;" d="M 73.527344 147.320312 C 73.527344 151.027344 70.523438 154.03125 66.816406 154.03125 C 63.113281 154.03125 60.109375 151.027344 60.109375 147.320312 C 60.109375 143.617188 63.113281 140.613281 66.816406 140.613281 C 70.523438 140.613281 73.527344 143.617188 73.527344 147.320312 "/>
<path style=" stroke:none;fill-rule:nonzero;fill:rgb(100%,100%,100%);fill-opacity:1;" d="M 481.410156 115.117188 C 481.410156 118.824219 478.40625 121.828125 474.699219 121.828125 C 470.996094 121.828125 467.992188 118.824219 467.992188 115.117188 C 467.992188 111.414062 470.996094 108.410156 474.699219 108.410156 C 478.40625 108.410156 481.410156 111.414062 481.410156 115.117188 "/>
<path style=" stroke:none;fill-rule:nonzero;fill:rgb(100%,100%,100%);fill-opacity:1;" d="M 482.75 151.347656 C 482.75 155.050781 479.746094 158.054688 476.042969 158.054688 C 472.335938 158.054688 469.332031 155.050781 469.332031 151.347656 C 469.332031 147.640625 472.335938 144.636719 476.042969 144.636719 C 479.746094 144.636719 482.75 147.640625 482.75 151.347656 "/>
<path style=" stroke:none;fill-rule:nonzero;fill:rgb(100%,100%,100%);fill-opacity:1;" d="M 190.253906 5.097656 C 190.253906 8.804688 187.253906 11.808594 183.546875 11.808594 C 179.84375 11.808594 176.839844 8.804688 176.839844 5.097656 C 176.839844 1.394531 179.84375 -1.609375 183.546875 -1.609375 C 187.253906 -1.609375 190.253906 1.394531 190.253906 5.097656 "/>
<path style=" stroke:none;fill-rule:nonzero;fill:rgb(100%,100%,100%);fill-opacity:1;" d="M 398.222656 11.808594 C 398.222656 15.511719 395.21875 18.515625 391.515625 18.515625 C 387.808594 18.515625 384.804688 15.511719 384.804688 11.808594 C 384.804688 8.101562 387.808594 5.097656 391.515625 5.097656 C 395.21875 5.097656 398.222656 8.101562 398.222656 11.808594 "/>
<path style=" stroke:none;fill-rule:nonzero;fill:rgb(100%,100%,100%);fill-opacity:1;" d="M 400.90625 488.117188 C 400.90625 491.820312 397.902344 494.824219 394.195312 494.824219 C 390.492188 494.824219 387.488281 491.820312 387.488281 488.117188 C 387.488281 484.410156 390.492188 481.410156 394.195312 481.410156 C 397.902344 481.410156 400.90625 484.410156 400.90625 488.117188 "/>
<path style=" stroke:none;fill-rule:nonzero;fill:rgb(100%,100%,100%);fill-opacity:1;" d="M 512.269531 258.683594 C 512.269531 262.386719 509.265625 265.390625 505.558594 265.390625 C 501.855469 265.390625 498.851562 262.386719 498.851562 258.683594 C 498.851562 254.976562 501.855469 251.972656 505.558594 251.972656 C 509.265625 251.972656 512.269531 254.976562 512.269531 258.683594 "/>
<path style=" stroke:none;fill-rule:nonzero;fill:rgb(100%,100%,100%);fill-opacity:1;" d="M 84.257812 481.410156 C 84.257812 485.113281 81.257812 488.117188 77.550781 488.117188 C 73.847656 488.117188 70.84375 485.113281 70.84375 481.410156 C 70.84375 477.703125 73.847656 474.699219 77.550781 474.699219 C 81.257812 474.699219 84.257812 477.703125 84.257812 481.410156 "/>
<path style=" stroke:none;fill-rule:nonzero;fill:rgb(100%,100%,100%);fill-opacity:1;" d="M 517.636719 357.972656 C 517.636719 361.675781 514.632812 364.679688 510.925781 364.679688 C 507.222656 364.679688 504.21875 361.675781 504.21875 357.972656 C 504.21875 354.265625 507.222656 351.261719 510.925781 351.261719 C 514.632812 351.261719 517.636719 354.265625 517.636719 357.972656 "/>
<path style=" stroke:none;fill-rule:nonzero;fill:rgb(100%,100%,100%);fill-opacity:1;" d="M 56.082031 144.636719 C 56.082031 148.34375 53.078125 151.34375 49.375 151.34375 C 45.671875 151.34375 42.667969 148.34375 42.667969 144.636719 C 42.667969 140.933594 45.671875 137.929688 49.375 137.929688 C 53.078125 137.929688 56.082031 140.933594 56.082031 144.636719 "/>
<path style=" stroke:none;fill-rule:nonzero;fill:rgb(100%,100%,100%);fill-opacity:1;" d="M 1.074219 265.390625 C 1.074219 269.097656 -1.929688 272.101562 -5.636719 272.101562 C -9.339844 272.101562 -12.34375 269.097656 -12.34375 265.390625 C -12.34375 261.6875 -9.339844 258.683594 -5.636719 258.683594 C -1.929688 258.683594 1.074219 261.6875 1.074219 265.390625 "/>
<path style=" stroke:none;fill-rule:nonzero;fill:rgb(100%,100%,100%);fill-opacity:1;" d="M 54.742188 383.464844 C 54.742188 387.167969 51.738281 390.171875 48.035156 390.171875 C 44.328125 390.171875 41.324219 387.167969 41.324219 383.464844 C 41.324219 379.757812 44.328125 376.753906 48.035156 376.753906 C 51.738281 376.753906 54.742188 379.757812 54.742188 383.464844 "/>
<path style=" stroke:none;fill-rule:nonzero;fill:rgb(100%,100%,100%);fill-opacity:1;" d="M 510.925781 -0.269531 C 510.925781 3.4375 507.921875 6.441406 504.21875 6.441406 C 500.511719 6.441406 497.507812 3.4375 497.507812 -0.269531 C 497.507812 -3.972656 500.511719 -6.976562 504.21875 -6.976562 C 507.921875 -6.976562 510.925781 -3.972656 510.925781 -0.269531 "/>
<path style=" stroke:none;fill-rule:nonzero;fill:rgb(100%,100%,100%);fill-opacity:1;" d="M 13.148438 175.496094 C 13.148438 179.203125 10.144531 182.207031 6.441406 182.207031 C 2.734375 182.207031 -0.269531 179.203125 -0.269531 175.496094 C -0.269531 171.792969 2.734375 168.789062 6.441406 168.789062 C 10.144531 168.789062 13.148438 171.792969 13.148438 175.496094 "/>
<path style=" stroke:none;fill-rule:nonzero;fill:rgb(100%,100%,100%);fill-opacity:1;" d="M 450.550781 282.835938 C 450.550781 286.539062 447.546875 289.542969 443.839844 289.542969 C 440.136719 289.542969 437.132812 286.539062 437.132812 282.835938 C 437.132812 279.128906 440.136719 276.125 443.839844 276.125 C 447.546875 276.125 450.550781 279.128906 450.550781 282.835938 "/>
<path style=" stroke:none;fill-rule:nonzero;fill:rgb(100%,100%,100%);fill-opacity:1;" d="M 33.273438 209.039062 C 33.273438 212.746094 30.269531 215.75 26.566406 215.75 C 22.859375 215.75 19.855469 212.746094 19.855469 209.039062 C 19.855469 205.335938 22.859375 202.332031 26.566406 202.332031 C 30.269531 202.332031 33.273438 205.335938 33.273438 209.039062 "/>
<path style=" stroke:none;fill-rule:nonzero;fill:rgb(100%,100%,100%);fill-opacity:1;" d="M 455.917969 41.324219 C 455.917969 45.03125 452.914062 48.035156 449.207031 48.035156 C 445.503906 48.035156 442.5 45.03125 442.5 41.324219 C 442.5 37.621094 445.503906 34.617188 449.207031 34.617188 C 452.914062 34.617188 455.917969 37.621094 455.917969 41.324219 "/>
<path style=" stroke:none;fill-rule:nonzero;fill:rgb(100%,100%,100%);fill-opacity:1;" d="M 249.292969 34.617188 C 249.292969 38.320312 246.289062 41.324219 242.582031 41.324219 C 238.878906 41.324219 235.875 38.320312 235.875 34.617188 C 235.875 30.910156 238.878906 27.90625 242.582031 27.90625 C 246.289062 27.90625 249.292969 30.910156 249.292969 34.617188 "/>
<path style=" stroke:none;fill-rule:nonzero;fill:rgb(100%,100%,100%);fill-opacity:1;" d="M 516.292969 517.636719 C 516.292969 521.339844 513.289062 524.34375 509.585938 524.34375 C 505.878906 524.34375 502.875 521.339844 502.875 517.636719 C 502.875 513.929688 505.878906 510.925781 509.585938 510.925781 C 513.289062 510.925781 516.292969 513.929688 516.292969 517.636719 "/>
<path style=" stroke:none;fill-rule:nonzero;fill:rgb(100%,100%,100%);fill-opacity:1;" d="M 317.71875 517.636719 C 317.71875 521.339844 314.714844 524.34375 311.011719 524.34375 C 307.304688 524.34375 304.300781 521.339844 304.300781 517.636719 C 304.300781 513.929688 307.304688 510.925781 311.011719 510.925781 C 314.714844 510.925781 317.71875 513.929688 317.71875 517.636719 "/>
<path style=" stroke:none;fill-rule:nonzero;fill:rgb(100%,100%,100%);fill-opacity:1;" d="M 253.316406 2.414062 C 253.316406 6.121094 250.3125 9.125 246.609375 9.125 C 242.902344 9.125 239.898438 6.121094 239.898438 2.414062 C 239.898438 -1.289062 242.902344 -4.292969 246.609375 -4.292969 C 250.3125 -4.292969 253.316406 -1.289062 253.316406 2.414062 "/>
<path style=" stroke:none;fill-rule:nonzero;fill:rgb(100%,100%,100%);fill-opacity:1;" d="M 6.441406 10.464844 C 6.441406 14.171875 3.4375 17.171875 -0.269531 17.171875 C -3.972656 17.171875 -6.976562 14.171875 -6.976562 10.464844 C -6.976562 6.761719 -3.972656 3.757812 -0.269531 3.757812 C 3.4375 3.757812 6.441406 6.761719 6.441406 10.464844 "/>
<path style=" stroke:none;fill-rule:nonzero;fill:rgb(100%,100%,100%);fill-opacity:1;" d="M 52.058594 302.960938 C 52.058594 306.664062 49.054688 309.667969 45.351562 309.667969 C 41.644531 309.667969 38.640625 306.664062 38.640625 302.960938 C 38.640625 299.253906 41.644531 296.25 45.351562 296.25 C 49.054688 296.25 52.058594 299.253906 52.058594 302.960938 "/>
<path style=" stroke:none;fill-rule:nonzero;fill:rgb(100%,100%,100%);fill-opacity:1;" d="M 39.984375 347.238281 C 39.984375 350.941406 36.980469 353.945312 33.273438 353.945312 C 29.570312 353.945312 26.566406 350.941406 26.566406 347.238281 C 26.566406 343.53125 29.570312 340.527344 33.273438 340.527344 C 36.980469 340.527344 39.984375 343.53125 39.984375 347.238281 "/>
<path style=" stroke:none;fill-rule:nonzero;fill:rgb(100%,100%,100%);fill-opacity:1;" d="M 437.132812 510.925781 C 437.132812 514.632812 434.128906 517.636719 430.421875 517.636719 C 426.71875 517.636719 423.714844 514.632812 423.714844 510.925781 C 423.714844 507.222656 426.71875 504.21875 430.421875 504.21875 C 434.128906 504.21875 437.132812 507.222656 437.132812 510.925781 "/>
<path style=" stroke:none;fill-rule:nonzero;fill:rgb(100%,100%,100%);fill-opacity:1;" d="M 451.890625 431.765625 C 451.890625 435.46875 448.886719 438.472656 445.183594 438.472656 C 441.476562 438.472656 438.472656 435.46875 438.472656 431.765625 C 438.472656 428.058594 441.476562 425.054688 445.183594 425.054688 C 448.886719 425.054688 451.890625 428.058594 451.890625 431.765625 "/>
<path style=" stroke:none;fill-rule:nonzero;fill:rgb(100%,100%,100%);fill-opacity:1;" d="M 38.640625 502.875 C 38.640625 506.582031 35.636719 509.585938 31.933594 509.585938 C 28.226562 509.585938 25.222656 506.582031 25.222656 502.875 C 25.222656 499.171875 28.226562 496.167969 31.933594 496.167969 C 35.636719 496.167969 38.640625 499.171875 38.640625 502.875 "/>
<path style=" stroke:none;fill-rule:nonzero;fill:rgb(100%,100%,100%);fill-opacity:1;" d="M 70.84375 500.191406 C 70.84375 503.898438 67.839844 506.902344 64.132812 506.902344 C 60.429688 506.902344 57.425781 503.898438 57.425781 500.191406 C 57.425781 496.488281 60.429688 493.484375 64.132812 493.484375 C 67.839844 493.484375 70.84375 496.488281 70.84375 500.191406 "/>
<path style=" stroke:none;fill-rule:nonzero;fill:rgb(100%,100%,100%);fill-opacity:1;" d="M 239.898438 22.539062 C 239.898438 26.246094 236.894531 29.25 233.191406 29.25 C 229.484375 29.25 226.480469 26.246094 226.480469 22.539062 C 226.480469 18.835938 229.484375 15.832031 233.191406 15.832031 C 236.894531 15.832031 239.898438 18.835938 239.898438 22.539062 "/>
<path style=" stroke:none;fill-rule:nonzero;fill:rgb(100%,100%,100%);fill-opacity:1;" d="M 359.3125 7.78125 C 359.3125 11.488281 356.308594 14.492188 352.605469 14.492188 C 348.898438 14.492188 345.894531 11.488281 345.894531 7.78125 C 345.894531 4.078125 348.898438 1.074219 352.605469 1.074219 C 356.308594 1.074219 359.3125 4.078125 359.3125 7.78125 "/>
<path style=" stroke:none;fill-rule:nonzero;fill:rgb(100%,100%,100%);fill-opacity:1;" d="M 394.195312 29.25 C 394.195312 32.953125 391.191406 35.957031 387.488281 35.957031 C 383.78125 35.957031 380.78125 32.953125 380.78125 29.25 C 380.78125 25.542969 383.78125 22.539062 387.488281 22.539062 C 391.191406 22.539062 394.195312 25.542969 394.195312 29.25 "/>
<path style=" stroke:none;fill-rule:nonzero;fill:rgb(100%,100%,100%);fill-opacity:1;" d="M 485.433594 192.9375 C 485.433594 196.644531 482.429688 199.648438 478.726562 199.648438 C 475.019531 199.648438 472.015625 196.644531 472.015625 192.9375 C 472.015625 189.234375 475.019531 186.230469 478.726562 186.230469 C 482.429688 186.230469 485.433594 189.234375 485.433594 192.9375 "/>
<path style=" stroke:none;fill-rule:nonzero;fill:rgb(100%,100%,100%);fill-opacity:1;" d="M 152.6875 476.042969 C 152.6875 479.746094 149.683594 482.75 145.980469 482.75 C 142.273438 482.75 139.269531 479.746094 139.269531 476.042969 C 139.269531 472.335938 142.273438 469.332031 145.980469 469.332031 C 149.683594 469.332031 152.6875 472.335938 152.6875 476.042969 "/>
<path style=" stroke:none;fill-rule:nonzero;fill:rgb(100%,100%,100%);fill-opacity:1;" d="M 11.808594 453.234375 C 11.808594 456.9375 8.804688 459.941406 5.097656 459.941406 C 1.394531 459.941406 -1.609375 456.9375 -1.609375 453.234375 C -1.609375 449.527344 1.394531 446.523438 5.097656 446.523438 C 8.804688 446.523438 11.808594 449.527344 11.808594 453.234375 "/>
<path style=" stroke:none;fill-rule:nonzero;fill:rgb(100%,100%,100%);fill-opacity:1;" d="M 506.902344 251.976562 C 506.902344 255.679688 503.898438 258.683594 500.191406 258.683594 C 496.488281 258.683594 493.484375 255.679688 493.484375 251.976562 C 493.484375 248.269531 496.488281 245.265625 500.191406 245.265625 C 503.898438 245.265625 506.902344 248.269531 506.902344 251.976562 "/>
<path style=" stroke:none;fill-rule:nonzero;fill:rgb(100%,100%,100%);fill-opacity:1;" d="M 457.257812 506.902344 C 457.257812 510.605469 454.253906 513.609375 450.550781 513.609375 C 446.84375 513.609375 443.839844 510.605469 443.839844 506.902344 C 443.839844 503.195312 446.84375 500.191406 450.550781 500.191406 C 454.253906 500.191406 457.257812 503.195312 457.257812 506.902344 "/>
<path style=" stroke:none;fill-rule:nonzero;fill:rgb(100%,100%,100%);fill-opacity:1;" d="M 437.132812 472.015625 C 437.132812 475.722656 434.128906 478.726562 430.421875 478.726562 C 426.71875 478.726562 423.714844 475.722656 423.714844 472.015625 C 423.714844 468.3125 426.71875 465.308594 430.421875 465.308594 C 434.128906 465.308594 437.132812 468.3125 437.132812 472.015625 "/>
<path style=" stroke:none;fill-rule:nonzero;fill:rgb(100%,100%,100%);fill-opacity:1;" d="M 265.390625 477.382812 C 265.390625 481.089844 262.386719 484.09375 258.683594 484.09375 C 254.976562 484.09375 251.972656 481.089844 251.972656 477.382812 C 251.972656 473.679688 254.976562 470.675781 258.683594 470.675781 C 262.386719 470.675781 265.390625 473.679688 265.390625 477.382812 "/>
<path style=" stroke:none;fill-rule:nonzero;fill:rgb(100%,100%,100%);fill-opacity:1;" d="M 509.585938 482.75 C 509.585938 486.457031 506.582031 489.460938 502.875 489.460938 C 499.171875 489.460938 496.167969 486.457031 496.167969 482.75 C 496.167969 479.046875 499.171875 476.042969 502.875 476.042969 C 506.582031 476.042969 509.585938 479.046875 509.585938 482.75 "/>
<path style=" stroke:none;fill-rule:nonzero;fill:rgb(100%,100%,100%);fill-opacity:1;" d="M 90.96875 498.851562 C 90.96875 502.554688 87.964844 505.558594 84.261719 505.558594 C 80.554688 505.558594 77.550781 502.554688 77.550781 498.851562 C 77.550781 495.144531 80.554688 492.140625 84.261719 492.140625 C 87.964844 492.140625 90.96875 495.144531 90.96875 498.851562 "/>
<path style=" stroke:none;fill-rule:nonzero;fill:rgb(100%,100%,100%);fill-opacity:1;" d="M 341.871094 488.117188 C 341.871094 491.820312 338.867188 494.824219 335.160156 494.824219 C 331.457031 494.824219 328.453125 491.820312 328.453125 488.117188 C 328.453125 484.410156 331.457031 481.410156 335.160156 481.410156 C 338.867188 481.410156 341.871094 484.410156 341.871094 488.117188 "/>
<path style=" stroke:none;fill-rule:nonzero;fill:rgb(100%,100%,100%);fill-opacity:1;" d="M 13.148438 411.640625 C 13.148438 415.34375 10.144531 418.347656 6.441406 418.347656 C 2.734375 418.347656 -0.269531 415.34375 -0.269531 411.640625 C -0.269531 407.933594 2.734375 404.929688 6.441406 404.929688 C 10.144531 404.929688 13.148438 407.933594 13.148438 411.640625 "/>
<path style=" stroke:none;fill-rule:nonzero;fill:rgb(100%,100%,100%);fill-opacity:1;" d="M 45.351562 31.933594 C 45.351562 35.636719 42.347656 38.640625 38.640625 38.640625 C 34.9375 38.640625 31.933594 35.636719 31.933594 31.933594 C 31.933594 28.226562 34.9375 25.222656 38.640625 25.222656 C 42.347656 25.222656 45.351562 28.226562 45.351562 31.933594 "/>
<path style=" stroke:none;fill-rule:nonzero;fill:rgb(100%,100%,100%);fill-opacity:1;" d="M 453.234375 164.761719 C 453.234375 168.46875 450.230469 171.472656 446.523438 171.472656 C 442.820312 171.472656 439.816406 168.46875 439.816406 164.761719 C 439.816406 161.058594 442.820312 158.054688 446.523438 158.054688 C 450.230469 158.054688 453.234375 161.058594 453.234375 164.761719 "/>
<path style=" stroke:none;fill-rule:nonzero;fill:rgb(100%,84.3%,0%);fill-opacity:1;" d="M 434.449219 406.273438 C 434.449219 409.976562 431.445312 412.980469 427.738281 412.980469 C 424.035156 412.980469 421.03125 409.976562 421.03125 406.273438 C 421.03125 402.566406 424.035156 399.5625 427.738281 399.5625 C 431.445312 399.5625 434.449219 402.566406 434.449219 406.273438 "/>
<path style=" stroke:none;fill-rule:nonzero;fill:rgb(100%,84.3%,0%);fill-opacity:1;" d="M 156.710938 56.085938 C 156.710938 59.789062 153.710938 62.792969 150.003906 62.792969 C 146.300781 62.792969 143.296875 59.789062 143.296875 56.085938 C 143.296875 52.378906 146.300781 49.375 150.003906 49.375 C 153.710938 49.375 156.710938 52.378906 156.710938 56.085938 "/>
<path style=" stroke:none;fill-rule:nonzero;fill:rgb(100%,84.3%,0%);fill-opacity:1;" d="M 219.773438 455.914062 C 219.773438 459.621094 216.769531 462.625 213.066406 462.625 C 209.359375 462.625 206.355469 459.621094 206.355469 455.914062 C 206.355469 452.210938 209.359375 449.207031 213.066406 449.207031 C 216.769531 449.207031 219.773438 452.210938 219.773438 455.914062 "/>
<path style=" stroke:none;fill-rule:nonzero;fill:rgb(100%,84.3%,0%);fill-opacity:1;" d="M 434.449219 419.691406 C 434.449219 423.394531 431.445312 426.398438 427.738281 426.398438 C 424.035156 426.398438 421.03125 423.394531 421.03125 419.691406 C 421.03125 415.984375 424.035156 412.980469 427.738281 412.980469 C 431.445312 412.980469 434.449219 415.984375 434.449219 419.691406 "/>
<path style=" stroke:none;fill-rule:nonzero;fill:rgb(100%,84.3%,0%);fill-opacity:1;" d="M 411.640625 56.085938 C 411.640625 59.789062 408.636719 62.792969 404.929688 62.792969 C 401.226562 62.792969 398.222656 59.789062 398.222656 56.085938 C 398.222656 52.378906 401.226562 49.375 404.929688 49.375 C 408.636719 49.375 411.640625 52.378906 411.640625 56.085938 "/>
<path style=" stroke:none;fill-rule:nonzero;fill:rgb(100%,84.3%,0%);fill-opacity:1;" d="M 398.222656 56.085938 C 398.222656 59.789062 395.21875 62.792969 391.515625 62.792969 C 387.808594 62.792969 384.804688 59.789062 384.804688 56.085938 C 384.804688 52.378906 387.808594 49.375 391.515625 49.375 C 395.21875 49.375 398.222656 52.378906 398.222656 56.085938 "/>
<path style=" stroke:none;fill-rule:nonzero;fill:rgb(100%,84.3%,0%);fill-opacity:1;" d="M 103.042969 56.085938 C 103.042969 59.789062 100.039062 62.792969 96.335938 62.792969 C 92.628906 62.792969 89.625 59.789062 89.625 56.085938 C 89.625 52.378906 92.628906 49.375 96.335938 49.375 C 100.039062 49.375 103.042969 52.378906 103.042969 56.085938 "/>
<path style=" stroke:none;fill-rule:nonzero;fill:rgb(100%,84.3%,0%);fill-opacity:1;" d="M 143.296875 56.085938 C 143.296875 59.789062 140.292969 62.792969 136.585938 62.792969 C 132.882812 62.792969 129.878906 59.789062 129.878906 56.085938 C 129.878906 52.378906 132.882812 49.375 136.585938 49.375 C 140.292969 49.375 143.296875 52.378906 143.296875 56.085938 "/>
<path style=" stroke:none;fill-rule:nonzero;fill:rgb(100%,84.3%,0%);fill-opacity:1;" d="M 90.96875 345.894531 C 90.96875 349.601562 87.964844 352.605469 84.261719 352.605469 C 80.554688 352.605469 77.550781 349.601562 77.550781 345.894531 C 77.550781 342.191406 80.554688 339.1875 84.261719 339.1875 C 87.964844 339.1875 90.96875 342.191406 90.96875 345.894531 "/>
<path style=" stroke:none;fill-rule:nonzero;fill:rgb(100%,84.3%,0%);fill-opacity:1;" d="M 434.449219 339.1875 C 434.449219 342.890625 431.445312 345.894531 427.738281 345.894531 C 424.035156 345.894531 421.03125 342.890625 421.03125 339.1875 C 421.03125 335.480469 424.035156 332.476562 427.738281 332.476562 C 431.445312 332.476562 434.449219 335.480469 434.449219 339.1875 "/>
<path style=" stroke:none;fill-rule:nonzero;fill:rgb(100%,84.3%,0%);fill-opacity:1;" d="M 260.027344 455.914062 C 260.027344 459.621094 257.023438 462.625 253.316406 462.625 C 249.613281 462.625 246.609375 459.621094 246.609375 455.914062 C 246.609375 452.210938 249.613281 449.207031 253.316406 449.207031 C 257.023438 449.207031 260.027344 452.210938 260.027344 455.914062 "/>
<path style=" stroke:none;fill-rule:nonzero;fill:rgb(100%,84.3%,0%);fill-opacity:1;" d="M 90.96875 77.550781 C 90.96875 81.257812 87.964844 84.257812 84.261719 84.257812 C 80.554688 84.257812 77.550781 81.257812 77.550781 77.550781 C 77.550781 73.847656 80.554688 70.84375 84.261719 70.84375 C 87.964844 70.84375 90.96875 73.847656 90.96875 77.550781 "/>
<path style=" stroke:none;fill-rule:nonzero;fill:rgb(100%,84.3%,0%);fill-opacity:1;" d="M 250.632812 56.085938 C 250.632812 59.789062 247.628906 62.792969 243.925781 62.792969 C 240.21875 62.792969 237.214844 59.789062 237.214844 56.085938 C 237.214844 52.378906 240.21875 49.375 243.925781 49.375 C 247.628906 49.375 250.632812 52.378906 250.632812 56.085938 "/>
<path style=" stroke:none;fill-rule:nonzero;fill:rgb(100%,84.3%,0%);fill-opacity:1;" d="M 90.96875 251.976562 C 90.96875 255.679688 87.964844 258.683594 84.261719 258.683594 C 80.554688 258.683594 77.550781 255.679688 77.550781 251.976562 C 77.550781 248.269531 80.554688 245.265625 84.261719 245.265625 C 87.964844 245.265625 90.96875 248.269531 90.96875 251.976562 "/>
<path style=" stroke:none;fill-rule:nonzero;fill:rgb(100%,84.3%,0%);fill-opacity:1;" d="M 357.96875 56.085938 C 357.96875 59.789062 354.96875 62.792969 351.261719 62.792969 C 347.558594 62.792969 344.554688 59.789062 344.554688 56.085938 C 344.554688 52.378906 347.558594 49.375 351.261719 49.375 C 354.96875 49.375 357.96875 52.378906 357.96875 56.085938 "/>
<path style=" stroke:none;fill-rule:nonzero;fill:rgb(100%,84.3%,0%);fill-opacity:1;" d="M 434.449219 111.09375 C 434.449219 114.800781 431.445312 117.800781 427.738281 117.800781 C 424.035156 117.800781 421.03125 114.800781 421.03125 111.09375 C 421.03125 107.390625 424.035156 104.386719 427.738281 104.386719 C 431.445312 104.386719 434.449219 107.390625 434.449219 111.09375 "/>
<path style=" stroke:none;fill-rule:nonzero;fill:rgb(100%,84.3%,0%);fill-opacity:1;" d="M 327.113281 455.914062 C 327.113281 459.621094 324.109375 462.625 320.402344 462.625 C 316.699219 462.625 313.695312 459.621094 313.695312 455.914062 C 313.695312 452.210938 316.699219 449.207031 320.402344 449.207031 C 324.109375 449.207031 327.113281 452.210938 327.113281 455.914062 "/>
<path style=" stroke:none;fill-rule:nonzero;fill:rgb(100%,84.3%,0%);fill-opacity:1;" d="M 90.96875 144.636719 C 90.96875 148.34375 87.964844 151.34375 84.261719 151.34375 C 80.554688 151.34375 77.550781 148.34375 77.550781 144.636719 C 77.550781 140.933594 80.554688 137.929688 84.261719 137.929688 C 87.964844 137.929688 90.96875 140.933594 90.96875 144.636719 "/>
<path style=" stroke:none;fill-rule:nonzero;fill:rgb(100%,84.3%,0%);fill-opacity:1;" d="M 90.96875 225.140625 C 90.96875 228.84375 87.964844 231.847656 84.261719 231.847656 C 80.554688 231.847656 77.550781 228.84375 77.550781 225.140625 C 77.550781 221.433594 80.554688 218.429688 84.261719 218.429688 C 87.964844 218.429688 90.96875 221.433594 90.96875 225.140625 "/>
<path style=" stroke:none;fill-rule:nonzero;fill:rgb(100%,84.3%,0%);fill-opacity:1;" d="M 90.96875 171.472656 C 90.96875 175.175781 87.964844 178.179688 84.261719 178.179688 C 80.554688 178.179688 77.550781 175.175781 77.550781 171.472656 C 77.550781 167.765625 80.554688 164.761719 84.261719 164.761719 C 87.964844 164.761719 90.96875 167.765625 90.96875 171.472656 "/>
<path style=" stroke:none;fill-rule:nonzero;fill:rgb(100%,84.3%,0%);fill-opacity:1;" d="M 340.527344 455.914062 C 340.527344 459.621094 337.523438 462.625 333.820312 462.625 C 330.113281 462.625 327.113281 459.621094 327.113281 455.914062 C 327.113281 452.210938 330.113281 449.207031 333.820312 449.207031 C 337.523438 449.207031 340.527344 452.210938 340.527344 455.914062 "/>
<path style=" stroke:none;fill-rule:nonzero;fill:rgb(100%,84.3%,0%);fill-opacity:1;" d="M 434.449219 164.761719 C 434.449219 168.46875 431.445312 171.472656 427.738281 171.472656 C 424.035156 171.472656 421.03125 168.46875 421.03125 164.761719 C 421.03125 161.058594 424.035156 158.054688 427.738281 158.054688 C 431.445312 158.054688 434.449219 161.058594 434.449219 164.761719 "/>
<path style=" stroke:none;fill-rule:nonzero;fill:rgb(100%,84.3%,0%);fill-opacity:1;" d="M 434.449219 70.84375 C 434.449219 74.546875 431.445312 77.550781 427.738281 77.550781 C 424.035156 77.550781 421.03125 74.546875 421.03125 70.84375 C 421.03125 67.136719 424.035156 64.132812 427.738281 64.132812 C 431.445312 64.132812 434.449219 67.136719 434.449219 70.84375 "/>
<path style=" stroke:none;fill-rule:nonzero;fill:rgb(100%,84.3%,0%);fill-opacity:1;" d="M 434.449219 379.4375 C 434.449219 383.144531 431.445312 386.148438 427.738281 386.148438 C 424.035156 386.148438 421.03125 383.144531 421.03125 379.4375 C 421.03125 375.734375 424.035156 372.730469 427.738281 372.730469 C 431.445312 372.730469 434.449219 375.734375 434.449219 379.4375 "/>
<path style=" stroke:none;fill-rule:nonzero;fill:rgb(100%,84.3%,0%);fill-opacity:1;" d="M 170.128906 56.085938 C 170.128906 59.789062 167.125 62.792969 163.421875 62.792969 C 159.714844 62.792969 156.710938 59.789062 156.710938 56.085938 C 156.710938 52.378906 159.714844 49.375 163.421875 49.375 C 167.125 49.375 170.128906 52.378906 170.128906 56.085938 "/>
<path style=" stroke:none;fill-rule:nonzero;fill:rgb(100%,84.3%,0%);fill-opacity:1;" d="M 90.96875 158.054688 C 90.96875 161.761719 87.964844 164.761719 84.261719 164.761719 C 80.554688 164.761719 77.550781 161.761719 77.550781 158.054688 C 77.550781 154.351562 80.554688 151.347656 84.261719 151.347656 C 87.964844 151.347656 90.96875 154.351562 90.96875 158.054688 "/>
<path style=" stroke:none;fill-rule:nonzero;fill:rgb(100%,84.3%,0%);fill-opacity:1;" d="M 112.4375 455.914062 C 112.4375 459.621094 109.433594 462.625 105.726562 462.625 C 102.023438 462.625 99.019531 459.621094 99.019531 455.914062 C 99.019531 452.210938 102.023438 449.207031 105.726562 449.207031 C 109.433594 449.207031 112.4375 452.210938 112.4375 455.914062 "/>
<path style=" stroke:none;fill-rule:nonzero;fill:rgb(100%,84.3%,0%);fill-opacity:1;" d="M 90.96875 131.21875 C 90.96875 134.925781 87.964844 137.929688 84.261719 137.929688 C 80.554688 137.929688 77.550781 134.925781 77.550781 131.21875 C 77.550781 127.515625 80.554688 124.511719 84.261719 124.511719 C 87.964844 124.511719 90.96875 127.515625 90.96875 131.21875 "/>
<path style=" stroke:none;fill-rule:nonzero;fill:rgb(100%,84.3%,0%);fill-opacity:1;" d="M 90.96875 265.390625 C 90.96875 269.097656 87.964844 272.101562 84.261719 272.101562 C 80.554688 272.101562 77.550781 269.097656 77.550781 265.390625 C 77.550781 261.6875 80.554688 258.683594 84.261719 258.683594 C 87.964844 258.683594 90.96875 261.6875 90.96875 265.390625 "/>
<path style=" stroke:none;fill-rule:nonzero;fill:rgb(100%,84.3%,0%);fill-opacity:1;" d="M 273.441406 455.914062 C 273.441406 459.621094 270.4375 462.625 266.734375 462.625 C 263.027344 462.625 260.027344 459.621094 260.027344 455.914062 C 260.027344 452.210938 263.027344 449.207031 266.734375 449.207031 C 270.4375 449.207031 273.441406 452.210938 273.441406 455.914062 "/>
<path style=" stroke:none;fill-rule:nonzero;fill:rgb(100%,84.3%,0%);fill-opacity:1;" d="M 210.382812 56.085938 C 210.382812 59.789062 207.378906 62.792969 203.671875 62.792969 C 199.96875 62.792969 196.964844 59.789062 196.964844 56.085938 C 196.964844 52.378906 199.96875 49.375 203.671875 49.375 C 207.378906 49.375 210.382812 52.378906 210.382812 56.085938 "/>
<path style=" stroke:none;fill-rule:nonzero;fill:rgb(100%,84.3%,0%);fill-opacity:1;" d="M 434.449219 178.179688 C 434.449219 181.886719 431.445312 184.886719 427.738281 184.886719 C 424.035156 184.886719 421.03125 181.886719 421.03125 178.179688 C 421.03125 174.476562 424.035156 171.472656 427.738281 171.472656 C 431.445312 171.472656 434.449219 174.476562 434.449219 178.179688 "/>
<path style=" stroke:none;fill-rule:nonzero;fill:rgb(100%,84.3%,0%);fill-opacity:1;" d="M 434.449219 455.914062 C 434.449219 459.621094 431.445312 462.625 427.738281 462.625 C 424.035156 462.625 421.03125 459.621094 421.03125 455.914062 C 421.03125 452.210938 424.035156 449.207031 427.738281 449.207031 C 431.445312 449.207031 434.449219 452.210938 434.449219 455.914062 "/>
<path style=" stroke:none;fill-rule:nonzero;fill:rgb(100%,84.3%,0%);fill-opacity:1;" d="M 90.96875 64.132812 C 90.96875 67.839844 87.964844 70.84375 84.261719 70.84375 C 80.554688 70.84375 77.550781 67.839844 77.550781 64.132812 C 77.550781 60.429688 80.554688 57.425781 84.261719 57.425781 C 87.964844 57.425781 90.96875 60.429688 90.96875 64.132812 "/>
<path style=" stroke:none;fill-rule:nonzero;fill:rgb(100%,84.3%,0%);fill-opacity:1;" d="M 90.96875 90.96875 C 90.96875 94.675781 87.964844 97.675781 84.261719 97.675781 C 80.554688 97.675781 77.550781 94.675781 77.550781 90.96875 C 77.550781 87.265625 80.554688 84.261719 84.261719 84.261719 C 87.964844 84.261719 90.96875 87.265625 90.96875 90.96875 "/>
<path style=" stroke:none;fill-rule:nonzero;fill:rgb(100%,84.3%,0%);fill-opacity:1;" d="M 434.449219 312.351562 C 434.449219 316.058594 431.445312 319.0625 427.738281 319.0625 C 424.035156 319.0625 421.03125 316.058594 421.03125 312.351562 C 421.03125 308.648438 424.035156 305.644531 427.738281 305.644531 C 431.445312 305.644531 434.449219 308.648438 434.449219 312.351562 "/>
<path style=" stroke:none;fill-rule:nonzero;fill:rgb(100%,84.3%,0%);fill-opacity:1;" d="M 434.449219 124.511719 C 434.449219 128.21875 431.445312 131.21875 427.738281 131.21875 C 424.035156 131.21875 421.03125 128.21875 421.03125 124.511719 C 421.03125 120.808594 424.035156 117.804688 427.738281 117.804688 C 431.445312 117.804688 434.449219 120.808594 434.449219 124.511719 "/>
<path style=" stroke:none;fill-rule:nonzero;fill:rgb(100%,84.3%,0%);fill-opacity:1;" d="M 237.214844 56.085938 C 237.214844 59.789062 234.210938 62.792969 230.507812 62.792969 C 226.800781 62.792969 223.796875 59.789062 223.796875 56.085938 C 223.796875 52.378906 226.800781 49.375 230.507812 49.375 C 234.210938 49.375 237.214844 52.378906 237.214844 56.085938 "/>
<path style=" stroke:none;fill-rule:nonzero;fill:rgb(100%,84.3%,0%);fill-opacity:1;" d="M 90.96875 184.890625 C 90.96875 188.59375 87.964844 191.597656 84.261719 191.597656 C 80.554688 191.597656 77.550781 188.59375 77.550781 184.890625 C 77.550781 181.183594 80.554688 178.179688 84.261719 178.179688 C 87.964844 178.179688 90.96875 181.183594 90.96875 184.890625 "/>
<path style=" stroke:none;fill-rule:nonzero;fill:rgb(100%,84.3%,0%);fill-opacity:1;" d="M 434.449219 325.769531 C 434.449219 329.472656 431.445312 332.476562 427.738281 332.476562 C 424.035156 332.476562 421.03125 329.472656 421.03125 325.769531 C 421.03125 322.0625 424.035156 319.058594 427.738281 319.058594 C 431.445312 319.058594 434.449219 322.0625 434.449219 325.769531 "/>
<path style=" stroke:none;fill-rule:nonzero;fill:rgb(100%,84.3%,0%);fill-opacity:1;" d="M 264.050781 56.085938 C 264.050781 59.789062 261.046875 62.792969 257.34375 62.792969 C 253.636719 62.792969 250.632812 59.789062 250.632812 56.085938 C 250.632812 52.378906 253.636719 49.375 257.34375 49.375 C 261.046875 49.375 264.050781 52.378906 264.050781 56.085938 "/>
<path style=" stroke:none;fill-rule:nonzero;fill:rgb(100%,84.3%,0%);fill-opacity:1;" d="M 129.878906 56.085938 C 129.878906 59.789062 126.875 62.792969 123.171875 62.792969 C 119.464844 62.792969 116.460938 59.789062 116.460938 56.085938 C 116.460938 52.378906 119.464844 49.375 123.171875 49.375 C 126.875 49.375 129.878906 52.378906 129.878906 56.085938 "/>
<path style=" stroke:none;fill-rule:nonzero;fill:rgb(100%,84.3%,0%);fill-opacity:1;" d="M 223.796875 56.085938 C 223.796875 59.789062 220.796875 62.792969 217.089844 62.792969 C 213.386719 62.792969 210.382812 59.789062 210.382812 56.085938 C 210.382812 52.378906 213.386719 49.375 217.089844 49.375 C 220.796875 49.375 223.796875 52.378906 223.796875 56.085938 "/>
<path style=" stroke:none;fill-rule:nonzero;fill:rgb(100%,84.3%,0%);fill-opacity:1;" d="M 286.859375 455.914062 C 286.859375 459.621094 283.855469 462.625 280.152344 462.625 C 276.445312 462.625 273.441406 459.621094 273.441406 455.914062 C 273.441406 452.210938 276.445312 449.207031 280.152344 449.207031 C 283.855469 449.207031 286.859375 452.210938 286.859375 455.914062 "/>
<path style=" stroke:none;fill-rule:nonzero;fill:rgb(100%,84.3%,0%);fill-opacity:1;" d="M 434.449219 352.605469 C 434.449219 356.308594 431.445312 359.3125 427.738281 359.3125 C 424.035156 359.3125 421.03125 356.308594 421.03125 352.605469 C 421.03125 348.898438 424.035156 345.894531 427.738281 345.894531 C 431.445312 345.894531 434.449219 348.898438 434.449219 352.605469 "/>
<path style=" stroke:none;fill-rule:nonzero;fill:rgb(100%,84.3%,0%);fill-opacity:1;" d="M 90.96875 453.234375 C 90.96875 456.9375 87.964844 459.941406 84.261719 459.941406 C 80.554688 459.941406 77.550781 456.9375 77.550781 453.234375 C 77.550781 449.527344 80.554688 446.523438 84.261719 446.523438 C 87.964844 446.523438 90.96875 449.527344 90.96875 453.234375 "/>
<path style=" stroke:none;fill-rule:nonzero;fill:rgb(100%,84.3%,0%);fill-opacity:1;" d="M 384.804688 56.085938 C 384.804688 59.789062 381.800781 62.792969 378.097656 62.792969 C 374.390625 62.792969 371.386719 59.789062 371.386719 56.085938 C 371.386719 52.378906 374.390625 49.375 378.097656 49.375 C 381.800781 49.375 384.804688 52.378906 384.804688 56.085938 "/>
<path style=" stroke:none;fill-rule:nonzero;fill:rgb(100%,84.3%,0%);fill-opacity:1;" d="M 152.6875 455.914062 C 152.6875 459.621094 149.683594 462.625 145.980469 462.625 C 142.273438 462.625 139.269531 459.621094 139.269531 455.914062 C 139.269531 452.210938 142.273438 449.207031 145.980469 449.207031 C 149.683594 449.207031 152.6875 452.210938 152.6875 455.914062 "/>
<path style=" stroke:none;fill-rule:nonzero;fill:rgb(100%,84.3%,0%);fill-opacity:1;" d="M 434.449219 57.425781 C 434.449219 61.132812 431.445312 64.132812 427.738281 64.132812 C 424.035156 64.132812 421.03125 61.132812 421.03125 57.425781 C 421.03125 53.722656 424.035156 50.71875 427.738281 50.71875 C 431.445312 50.71875 434.449219 53.722656 434.449219 57.425781 "/>
<path style=" stroke:none;fill-rule:nonzero;fill:rgb(100%,84.3%,0%);fill-opacity:1;" d="M 90.96875 238.558594 C 90.96875 242.261719 87.964844 245.265625 84.261719 245.265625 C 80.554688 245.265625 77.550781 242.261719 77.550781 238.558594 C 77.550781 234.851562 80.554688 231.847656 84.261719 231.847656 C 87.964844 231.847656 90.96875 234.851562 90.96875 238.558594 "/>
<path style=" stroke:none;fill-rule:nonzero;fill:rgb(100%,84.3%,0%);fill-opacity:1;" d="M 434.449219 97.675781 C 434.449219 101.382812 431.445312 104.386719 427.738281 104.386719 C 424.035156 104.386719 421.03125 101.382812 421.03125 97.675781 C 421.03125 93.972656 424.035156 90.96875 427.738281 90.96875 C 431.445312 90.96875 434.449219 93.972656 434.449219 97.675781 "/>
<path style=" stroke:none;fill-rule:nonzero;fill:rgb(100%,84.3%,0%);fill-opacity:1;" d="M 371.386719 56.085938 C 371.386719 59.789062 368.382812 62.792969 364.679688 62.792969 C 360.972656 62.792969 357.96875 59.789062 357.96875 56.085938 C 357.96875 52.378906 360.972656 49.375 364.679688 49.375 C 368.382812 49.375 371.386719 52.378906 371.386719 56.085938 "/>
</g>
</svg>
