<?xml version="1.0" encoding="UTF-8"?>
<svg xmlns="http://www.w3.org/2000/svg" xmlns:xlink="http://www.w3.org/1999/xlink" width="512pt" height="512pt" viewBox="0 0 512 512" version="1.1">
<g id="surface156">
<rect x="0" y="0" width="512" height="512" style="fill:rgb(26.7%,26.7%,26.7%);fill-opacity:1;stroke:none;"/>
<path style=" stroke:none;fill-rule:nonzero;fill:rgb(19.2%,38.8%,66.7%);fill-opacity:1;" d="M 18.066406 42.667969 L 198.710938 42.667969 L 198.710938 469.332031 L 18.066406 469.332031 Z M 18.066406 42.667969 "/>
<path style=" stroke:none;fill-rule:nonzero;fill:rgb(100%,100%,100%);fill-opacity:1;" d="M 478.277344 440.945312 C 478.277344 446.679688 469.675781 446.679688 469.675781 440.945312 C 469.675781 435.210938 478.277344 435.210938 478.277344 440.945312 "/>
<path style=" stroke:none;fill-rule:nonzero;fill:rgb(100%,100%,100%);fill-opacity:1;" d="M 327.742188 428.042969 C 327.742188 433.777344 319.140625 433.777344 319.140625 428.042969 C 319.140625 422.308594 327.742188 422.308594 327.742188 428.042969 "/>
<path style=" stroke:none;fill-rule:nonzero;fill:rgb(100%,100%,100%);fill-opacity:1;" d="M 485.160156 385.03125 C 485.160156 390.765625 476.558594 390.765625 476.558594 385.03125 C 476.558594 379.296875 485.160156 379.296875 485.160156 385.03125 "/>
<path style=" stroke:none;fill-rule:nonzero;fill:rgb(100%,100%,100%);fill-opacity:1;" d="M 90.324219 498.582031 C 90.324219 504.316406 81.722656 504.316406 81.722656 498.582031 C 81.722656 492.847656 90.324219 492.847656 90.324219 498.582031 "/>
<path style=" stroke:none;fill-rule:nonzero;fill:rgb(100%,100%,100%);fill-opacity:1;" d="M 489.460938 342.882812 C 489.460938 348.617188 480.859375 348.617188 480.859375 342.882812 C 480.859375 337.148438 489.460938 337.148438 489.460938 342.882812 "/>
<path style=" stroke:none;fill-rule:nonzero;fill:rgb(100%,100%,100%);fill-opacity:1;" d="M 269.246094 421.160156 C 269.246094 426.894531 260.644531 426.894531 260.644531 421.160156 C 260.644531 415.425781 269.246094 415.425781 269.246094 421.160156 "/>
<path style=" stroke:none;fill-rule:nonzero;fill:rgb(100%,100%,100%);fill-opacity:1;" d="M 369.03125 28.902344 C 369.03125 34.636719 360.429688 34.636719 360.429688 28.902344 C 360.429688 23.167969 369.03125 23.167969 369.03125 28.902344 "/>
<path style=" stroke:none;fill-rule:nonzero;fill:rgb(100%,100%,100%);fill-opacity:1;" d="M 494.625 88.257812 C 494.625 93.992188 486.023438 93.992188 486.023438 88.257812 C 486.023438 82.523438 494.625 82.523438 494.625 88.257812 "/>
<path style=" stroke:none;fill-rule:nonzero;fill:rgb(100%,100%,100%);fill-opacity:1;" d="M 240.859375 502.882812 C 240.859375 508.617188 232.257812 508.617188 232.257812 502.882812 C 232.257812 497.148438 240.859375 497.148438 240.859375 502.882812 "/>
<path style=" stroke:none;fill-rule:nonzero;fill:rgb(100%,100%,100%);fill-opacity:1;" d="M 448.171875 72.773438 C 448.171875 78.507812 439.570312 78.507812 439.570312 72.773438 C 439.570312 67.039062 448.171875 67.039062 448.171875 72.773438 "/>
<path style=" stroke:none;fill-rule:nonzero;fill:rgb(100%,100%,100%);fill-opacity:1;" d="M 324.300781 29.761719 C 324.300781 35.496094 315.699219 35.496094 315.699219 29.761719 C 315.699219 24.027344 324.300781 24.027344 324.300781 29.761719 "/>
<path style=" stroke:none;fill-rule:nonzero;fill:rgb(100%,100%,100%);fill-opacity:1;" d="M 293.332031 34.925781 C 293.332031 40.660156 284.730469 40.660156 284.730469 34.925781 C 284.730469 29.191406 293.332031 29.191406 293.332031 34.925781 "/>
<path style=" stroke:none;fill-rule:nonzero;fill:rgb(100%,100%,100%);fill-opacity:1;" d="M 467.097656 279.226562 C 467.097656 284.960938 458.496094 284.960938 458.496094 279.226562 C 458.496094 273.492188 467.097656 273.492188 467.097656 279.226562 "/>
<path style=" stroke:none;fill-rule:nonzero;fill:rgb(100%,100%,100%);fill-opacity:1;" d="M 386.234375 280.085938 C 386.234375 285.820312 377.632812 285.820312 377.632812 280.085938 C 377.632812 274.351562 386.234375 274.351562 386.234375 280.085938 "/>
<path style=" stroke:none;fill-rule:nonzero;fill:rgb(100%,100%,100%);fill-opacity:1;" d="M 364.730469 50.410156 C 364.730469 56.144531 356.128906 56.144531 356.128906 50.410156 C 356.128906 44.675781 364.730469 44.675781 364.730469 50.410156 "/>
<path style=" stroke:none;fill-rule:nonzero;fill:rgb(100%,100%,100%);fill-opacity:1;" d="M 434.410156 107.183594 C 434.410156 112.917969 425.808594 112.917969 425.808594 107.183594 C 425.808594 101.449219 434.410156 101.449219 434.410156 107.183594 "/>
<path style=" stroke:none;fill-rule:nonzero;fill:rgb(100%,100%,100%);fill-opacity:1;" d="M 2.582031 393.632812 C 2.582031 399.367188 -6.019531 399.367188 -6.019531 393.632812 C -6.019531 387.898438 2.582031 387.898438 2.582031 393.632812 "/>
<path style=" stroke:none;fill-rule:nonzero;fill:rgb(100%,100%,100%);fill-opacity:1;" d="M 217.632812 128.6875 C 217.632812 134.421875 209.03125 134.421875 209.03125 128.6875 C 209.03125 122.953125 217.632812 122.953125 217.632812 128.6875 "/>
<path style=" stroke:none;fill-rule:nonzero;fill:rgb(100%,100%,100%);fill-opacity:1;" d="M 135.054688 -2.925781 C 135.054688 2.808594 126.453125 2.808594 126.453125 -2.925781 C 126.453125 -8.660156 135.054688 -8.660156 135.054688 -2.925781 "/>
<path style=" stroke:none;fill-rule:nonzero;fill:rgb(100%,100%,100%);fill-opacity:1;" d="M 367.3125 200.085938 C 367.3125 205.820312 358.710938 205.820312 358.710938 200.085938 C 358.710938 194.351562 367.3125 194.351562 367.3125 200.085938 "/>
<path style=" stroke:none;fill-rule:nonzero;fill:rgb(100%,100%,100%);fill-opacity:1;" d="M 176.34375 30.625 C 176.34375 36.359375 167.742188 36.359375 167.742188 30.625 C 167.742188 24.890625 176.34375 24.890625 176.34375 30.625 "/>
<path style=" stroke:none;fill-rule:nonzero;fill:rgb(100%,100%,100%);fill-opacity:1;" d="M 393.117188 92.558594 C 393.117188 98.292969 384.515625 98.292969 384.515625 92.558594 C 384.515625 86.824219 393.117188 86.824219 393.117188 92.558594 "/>
<path style=" stroke:none;fill-rule:nonzero;fill:rgb(100%,100%,100%);fill-opacity:1;" d="M 400.859375 339.441406 C 400.859375 345.175781 392.257812 345.175781 392.257812 339.441406 C 392.257812 333.707031 400.859375 333.707031 400.859375 339.441406 "/>
<path style=" stroke:none;fill-rule:nonzero;fill:rgb(100%,100%,100%);fill-opacity:1;" d="M 215.914062 2.238281 C 215.914062 7.972656 207.3125 7.972656 207.3125 2.238281 C 207.3125 -3.496094 215.914062 -3.496094 215.914062 2.238281 "/>
<path style=" stroke:none;fill-rule:nonzero;fill:rgb(100%,100%,100%);fill-opacity:1;" d="M 328.601562 266.324219 C 328.601562 272.058594 320 272.058594 320 266.324219 C 320 260.589844 328.601562 260.589844 328.601562 266.324219 "/>
<path style=" stroke:none;fill-rule:nonzero;fill:rgb(100%,100%,100%);fill-opacity:1;" d="M 340.644531 442.667969 C 340.644531 448.402344 332.042969 448.402344 332.042969 442.667969 C 332.042969 436.933594 340.644531 436.933594 340.644531 442.667969 "/>
<path style=" stroke:none;fill-rule:nonzero;fill:rgb(100%,100%,100%);fill-opacity:1;" d="M 206.453125 458.152344 C 206.453125 463.886719 197.851562 463.886719 197.851562 458.152344 C 197.851562 452.417969 206.453125 452.417969 206.453125 458.152344 "/>
<path style=" stroke:none;fill-rule:nonzero;fill:rgb(100%,100%,100%);fill-opacity:1;" d="M 344.945312 180.300781 C 344.945312 186.035156 336.34375 186.035156 336.34375 180.300781 C 336.34375 174.566406 344.945312 174.566406 344.945312 180.300781 "/>
<path style=" stroke:none;fill-rule:nonzero;fill:rgb(100%,100%,100%);fill-opacity:1;" d="M 477.417969 431.484375 C 477.417969 437.21875 468.816406 437.21875 468.816406 431.484375 C 468.816406 425.75 477.417969 425.75 477.417969 431.484375 "/>
<path style=" stroke:none;fill-rule:nonzero;fill:rgb(100%,100%,100%);fill-opacity:1;" d="M 485.160156 34.066406 C 485.160156 39.800781 476.558594 39.800781 476.558594 34.066406 C 476.558594 28.332031 485.160156 28.332031 485.160156 34.066406 "/>
<path style=" stroke:none;fill-rule:nonzero;fill:rgb(100%,100%,100%);fill-opacity:1;" d="M 376.773438 41.804688 C 376.773438 47.539062 368.171875 47.539062 368.171875 41.804688 C 368.171875 36.070312 376.773438 36.070312 376.773438 41.804688 "/>
<path style=" stroke:none;fill-rule:nonzero;fill:rgb(100%,100%,100%);fill-opacity:1;" d="M 355.269531 264.601562 C 355.269531 270.335938 346.667969 270.335938 346.667969 264.601562 C 346.667969 258.867188 355.269531 258.867188 355.269531 264.601562 "/>
<path style=" stroke:none;fill-rule:nonzero;fill:rgb(100%,100%,100%);fill-opacity:1;" d="M 472.257812 309.332031 C 472.257812 315.066406 463.65625 315.066406 463.65625 309.332031 C 463.65625 303.597656 472.257812 303.597656 472.257812 309.332031 "/>
<path style=" stroke:none;fill-rule:nonzero;fill:rgb(100%,100%,100%);fill-opacity:1;" d="M 402.582031 16.859375 C 402.582031 22.59375 393.980469 22.59375 393.980469 16.859375 C 393.980469 11.125 402.582031 11.125 402.582031 16.859375 "/>
<path style=" stroke:none;fill-rule:nonzero;fill:rgb(100%,100%,100%);fill-opacity:1;" d="M 387.957031 93.417969 C 387.957031 99.152344 379.355469 99.152344 379.355469 93.417969 C 379.355469 87.683594 387.957031 87.683594 387.957031 93.417969 "/>
<path style=" stroke:none;fill-rule:nonzero;fill:rgb(100%,100%,100%);fill-opacity:1;" d="M 259.785156 158.796875 C 259.785156 164.53125 251.183594 164.53125 251.183594 158.796875 C 251.183594 153.0625 259.785156 153.0625 259.785156 158.796875 "/>
<path style=" stroke:none;fill-rule:nonzero;fill:rgb(100%,100%,100%);fill-opacity:1;" d="M 264.085938 477.074219 C 264.085938 482.808594 255.484375 482.808594 255.484375 477.074219 C 255.484375 471.339844 264.085938 471.339844 264.085938 477.074219 "/>
<path style=" stroke:none;fill-rule:nonzero;fill:rgb(100%,100%,100%);fill-opacity:1;" d="M 248.601562 475.355469 C 248.601562 481.089844 240 481.089844 240 475.355469 C 240 469.621094 248.601562 469.621094 248.601562 475.355469 "/>
<path style=" stroke:none;fill-rule:nonzero;fill:rgb(100%,100%,100%);fill-opacity:1;" d="M 171.183594 496.859375 C 171.183594 502.59375 162.582031 502.59375 162.582031 496.859375 C 162.582031 491.125 171.183594 491.125 171.183594 496.859375 "/>
<path style=" stroke:none;fill-rule:nonzero;fill:rgb(100%,100%,100%);fill-opacity:1;" d="M 392.257812 206.96875 C 392.257812 212.703125 383.65625 212.703125 383.65625 206.96875 C 383.65625 201.234375 392.257812 201.234375 392.257812 206.96875 "/>
<path style=" stroke:none;fill-rule:nonzero;fill:rgb(100%,100%,100%);fill-opacity:1;" d="M 434.410156 73.632812 C 434.410156 79.367188 425.808594 79.367188 425.808594 73.632812 C 425.808594 67.898438 434.410156 67.898438 434.410156 73.632812 "/>
<path style=" stroke:none;fill-rule:nonzero;fill:rgb(100%,100%,100%);fill-opacity:1;" d="M 424.085938 510.625 C 424.085938 516.359375 415.484375 516.359375 415.484375 510.625 C 415.484375 504.890625 424.085938 504.890625 424.085938 510.625 "/>
<path style=" stroke:none;fill-rule:nonzero;fill:rgb(100%,100%,100%);fill-opacity:1;" d="M 343.226562 220.730469 C 343.226562 226.464844 334.625 226.464844 334.625 220.730469 C 334.625 214.996094 343.226562 214.996094 343.226562 220.730469 "/>
<path style=" stroke:none;fill-rule:nonzero;fill:rgb(100%,100%,100%);fill-opacity:1;" d="M 396.558594 295.570312 C 396.558594 301.304688 387.957031 301.304688 387.957031 295.570312 C 387.957031 289.835938 396.558594 289.835938 396.558594 295.570312 "/>
<path style=" stroke:none;fill-rule:nonzero;fill:rgb(100%,100%,100%);fill-opacity:1;" d="M 510.96875 332.558594 C 510.96875 338.292969 502.367188 338.292969 502.367188 332.558594 C 502.367188 326.824219 510.96875 326.824219 510.96875 332.558594 "/>
<path style=" stroke:none;fill-rule:nonzero;fill:rgb(100%,100%,100%);fill-opacity:1;" d="M 451.613281 288.6875 C 451.613281 294.421875 443.011719 294.421875 443.011719 288.6875 C 443.011719 282.953125 451.613281 282.953125 451.613281 288.6875 "/>
<path style=" stroke:none;fill-rule:nonzero;fill:rgb(100%,100%,100%);fill-opacity:1;" d="M 326.882812 191.484375 C 326.882812 197.21875 318.28125 197.21875 318.28125 191.484375 C 318.28125 185.75 326.882812 185.75 326.882812 191.484375 "/>
<path style=" stroke:none;fill-rule:nonzero;fill:rgb(100%,100%,100%);fill-opacity:1;" d="M 510.96875 275.785156 C 510.96875 281.519531 502.367188 281.519531 502.367188 275.785156 C 502.367188 270.050781 510.96875 270.050781 510.96875 275.785156 "/>
<path style=" stroke:none;fill-rule:nonzero;fill:rgb(100%,100%,100%);fill-opacity:1;" d="M 461.074219 320.515625 C 461.074219 326.25 452.472656 326.25 452.472656 320.515625 C 452.472656 314.78125 461.074219 314.78125 461.074219 320.515625 "/>
<path style=" stroke:none;fill-rule:nonzero;fill:rgb(100%,100%,100%);fill-opacity:1;" d="M 437.847656 461.589844 C 437.847656 467.324219 429.246094 467.324219 429.246094 461.589844 C 429.246094 455.855469 437.847656 455.855469 437.847656 461.589844 "/>
<path style=" stroke:none;fill-rule:nonzero;fill:rgb(100%,100%,100%);fill-opacity:1;" d="M 1.71875 354.925781 C 1.71875 360.660156 -6.882812 360.660156 -6.882812 354.925781 C -6.882812 349.191406 1.71875 349.191406 1.71875 354.925781 "/>
<path style=" stroke:none;fill-rule:nonzero;fill:rgb(100%,100%,100%);fill-opacity:1;" d="M 246.882812 129.546875 C 246.882812 135.28125 238.28125 135.28125 238.28125 129.546875 C 238.28125 123.8125 246.882812 123.8125 246.882812 129.546875 "/>
<path style=" stroke:none;fill-rule:nonzero;fill:rgb(100%,100%,100%);fill-opacity:1;" d="M 480 204.386719 C 480 210.121094 471.398438 210.121094 471.398438 204.386719 C 471.398438 198.652344 480 198.652344 480 204.386719 "/>
<path style=" stroke:none;fill-rule:nonzero;fill:rgb(100%,100%,100%);fill-opacity:1;" d="M 139.355469 502.023438 C 139.355469 507.757812 130.753906 507.757812 130.753906 502.023438 C 130.753906 496.289062 139.355469 496.289062 139.355469 502.023438 "/>
<path style=" stroke:none;fill-rule:nonzero;fill:rgb(100%,100%,100%);fill-opacity:1;" d="M 327.742188 216.429688 C 327.742188 222.164062 319.140625 222.164062 319.140625 216.429688 C 319.140625 210.695312 327.742188 210.695312 327.742188 216.429688 "/>
<path style=" stroke:none;fill-rule:nonzero;fill:rgb(100%,100%,100%);fill-opacity:1;" d="M 299.355469 212.988281 C 299.355469 218.722656 290.753906 218.722656 290.753906 212.988281 C 290.753906 207.253906 299.355469 207.253906 299.355469 212.988281 "/>
<path style=" stroke:none;fill-rule:nonzero;fill:rgb(100%,100%,100%);fill-opacity:1;" d="M 157.417969 9.976562 C 157.417969 15.710938 148.816406 15.710938 148.816406 9.976562 C 148.816406 4.242188 157.417969 4.242188 157.417969 9.976562 "/>
<path style=" stroke:none;fill-rule:nonzero;fill:rgb(100%,100%,100%);fill-opacity:1;" d="M 480 172.558594 C 480 178.292969 471.398438 178.292969 471.398438 172.558594 C 471.398438 166.824219 480 166.824219 480 172.558594 "/>
<path style=" stroke:none;fill-rule:nonzero;fill:rgb(100%,100%,100%);fill-opacity:1;" d="M 480.859375 404.816406 C 480.859375 410.550781 472.257812 410.550781 472.257812 404.816406 C 472.257812 399.082031 480.859375 399.082031 480.859375 404.816406 "/>
<path style=" stroke:none;fill-rule:nonzero;fill:rgb(100%,100%,100%);fill-opacity:1;" d="M 378.496094 311.914062 C 378.496094 317.648438 369.894531 317.648438 369.894531 311.914062 C 369.894531 306.179688 378.496094 306.179688 378.496094 311.914062 "/>
<path style=" stroke:none;fill-rule:nonzero;fill:rgb(100%,100%,100%);fill-opacity:1;" d="M 10.324219 499.441406 C 10.324219 505.175781 1.722656 505.175781 1.722656 499.441406 C 1.722656 493.707031 10.324219 493.707031 10.324219 499.441406 "/>
<path style=" stroke:none;fill-rule:nonzero;fill:rgb(100%,100%,100%);fill-opacity:1;" d="M 121.289062 512.34375 C 121.289062 518.078125 112.6875 518.078125 112.6875 512.34375 C 112.6875 506.609375 121.289062 506.609375 121.289062 512.34375 "/>
<path style=" stroke:none;fill-rule:nonzero;fill:rgb(100%,100%,100%);fill-opacity:1;" d="M 502.367188 459.871094 C 502.367188 465.605469 493.765625 465.605469 493.765625 459.871094 C 493.765625 454.136719 502.367188 454.136719 502.367188 459.871094 "/>
<path style=" stroke:none;fill-rule:nonzero;fill:rgb(100%,100%,100%);fill-opacity:1;" d="M 387.957031 489.976562 C 387.957031 495.710938 379.355469 495.710938 379.355469 489.976562 C 379.355469 484.242188 387.957031 484.242188 387.957031 489.976562 "/>
<path style=" stroke:none;fill-rule:nonzero;fill:rgb(100%,100%,100%);fill-opacity:1;" d="M 87.742188 5.675781 C 87.742188 11.410156 79.140625 11.410156 79.140625 5.675781 C 79.140625 -0.0585938 87.742188 -0.0585938 87.742188 5.675781 "/>
<path style=" stroke:none;fill-rule:nonzero;fill:rgb(100%,100%,100%);fill-opacity:1;" d="M 275.269531 21.160156 C 275.269531 26.894531 266.667969 26.894531 266.667969 21.160156 C 266.667969 15.425781 275.269531 15.425781 275.269531 21.160156 "/>
<path style=" stroke:none;fill-rule:nonzero;fill:rgb(100%,100%,100%);fill-opacity:1;" d="M 336.34375 392.773438 C 336.34375 398.507812 327.742188 398.507812 327.742188 392.773438 C 327.742188 387.039062 336.34375 387.039062 336.34375 392.773438 "/>
<path style=" stroke:none;fill-rule:nonzero;fill:rgb(100%,100%,100%);fill-opacity:1;" d="M 387.957031 474.496094 C 387.957031 480.230469 379.355469 480.230469 379.355469 474.496094 C 379.355469 468.761719 387.957031 468.761719 387.957031 474.496094 "/>
<path style=" stroke:none;fill-rule:nonzero;fill:rgb(100%,100%,100%);fill-opacity:1;" d="M 386.234375 363.527344 C 386.234375 369.261719 377.632812 369.261719 377.632812 363.527344 C 377.632812 357.792969 386.234375 357.792969 386.234375 363.527344 "/>
<path style=" stroke:none;fill-rule:nonzero;fill:rgb(100%,100%,100%);fill-opacity:1;" d="M 269.246094 446.109375 C 269.246094 451.84375 260.644531 451.84375 260.644531 446.109375 C 260.644531 440.375 269.246094 440.375 269.246094 446.109375 "/>
<path style=" stroke:none;fill-rule:nonzero;fill:rgb(100%,100%,100%);fill-opacity:1;" d="M 231.398438 18.582031 C 231.398438 24.316406 222.796875 24.316406 222.796875 18.582031 C 222.796875 12.847656 231.398438 12.847656 231.398438 18.582031 "/>
<path style=" stroke:none;fill-rule:nonzero;fill:rgb(100%,100%,100%);fill-opacity:1;" d="M 381.074219 468.472656 C 381.074219 474.207031 372.472656 474.207031 372.472656 468.472656 C 372.472656 462.738281 381.074219 462.738281 381.074219 468.472656 "/>
<path style=" stroke:none;fill-rule:nonzero;fill:rgb(100%,100%,100%);fill-opacity:1;" d="M 430.105469 145.890625 C 430.105469 151.625 421.503906 151.625 421.503906 145.890625 C 421.503906 140.15625 430.105469 140.15625 430.105469 145.890625 "/>
<path style=" stroke:none;fill-rule:nonzero;fill:rgb(100%,100%,100%);fill-opacity:1;" d="M 300.214844 397.074219 C 300.214844 402.808594 291.613281 402.808594 291.613281 397.074219 C 291.613281 391.339844 300.214844 391.339844 300.214844 397.074219 "/>
<path style=" stroke:none;fill-rule:nonzero;fill:rgb(100%,100%,100%);fill-opacity:1;" d="M 374.191406 59.011719 C 374.191406 64.746094 365.589844 64.746094 365.589844 59.011719 C 365.589844 53.277344 374.191406 53.277344 374.191406 59.011719 "/>
<path style=" stroke:none;fill-rule:nonzero;fill:rgb(100%,100%,100%);fill-opacity:1;" d="M 4.300781 325.675781 C 4.300781 331.410156 -4.300781 331.410156 -4.300781 325.675781 C -4.300781 319.941406 4.300781 319.941406 4.300781 325.675781 "/>
<path style=" stroke:none;fill-rule:nonzero;fill:rgb(100%,100%,100%);fill-opacity:1;" d="M 391.398438 114.925781 C 391.398438 120.660156 382.796875 120.660156 382.796875 114.925781 C 382.796875 109.191406 391.398438 109.191406 391.398438 114.925781 "/>
<path style=" stroke:none;fill-rule:nonzero;fill:rgb(100%,100%,100%);fill-opacity:1;" d="M 26.667969 40.085938 C 26.667969 45.820312 18.066406 45.820312 18.066406 40.085938 C 18.066406 34.351562 26.667969 34.351562 26.667969 40.085938 "/>
<path style=" stroke:none;fill-rule:nonzero;fill:rgb(100%,100%,100%);fill-opacity:1;" d="M 449.03125 219.011719 C 449.03125 224.746094 440.429688 224.746094 440.429688 219.011719 C 440.429688 213.277344 449.03125 213.277344 449.03125 219.011719 "/>
<path style=" stroke:none;fill-rule:nonzero;fill:rgb(100%,100%,100%);fill-opacity:1;" d="M 421.503906 468.472656 C 421.503906 474.207031 412.902344 474.207031 412.902344 468.472656 C 412.902344 462.738281 421.503906 462.738281 421.503906 468.472656 "/>
<path style=" stroke:none;fill-rule:nonzero;fill:rgb(100%,100%,100%);fill-opacity:1;" d="M 240 168.257812 C 240 173.992188 231.398438 173.992188 231.398438 168.257812 C 231.398438 162.523438 240 162.523438 240 168.257812 "/>
<path style=" stroke:none;fill-rule:nonzero;fill:rgb(100%,100%,100%);fill-opacity:1;" d="M 8.601562 240.515625 C 8.601562 246.25 0 246.25 0 240.515625 C 0 234.78125 8.601562 234.78125 8.601562 240.515625 "/>
<path style=" stroke:none;fill-rule:nonzero;fill:rgb(100%,100%,100%);fill-opacity:1;" d="M 231.398438 291.269531 C 231.398438 297.003906 222.796875 297.003906 222.796875 291.269531 C 222.796875 285.535156 231.398438 285.535156 231.398438 291.269531 "/>
<path style=" stroke:none;fill-rule:nonzero;fill:rgb(100%,100%,100%);fill-opacity:1;" d="M 324.300781 145.03125 C 324.300781 150.765625 315.699219 150.765625 315.699219 145.03125 C 315.699219 139.296875 324.300781 139.296875 324.300781 145.03125 "/>
<path style=" stroke:none;fill-rule:nonzero;fill:rgb(100%,100%,100%);fill-opacity:1;" d="M 313.117188 157.074219 C 313.117188 162.808594 304.515625 162.808594 304.515625 157.074219 C 304.515625 151.339844 313.117188 151.339844 313.117188 157.074219 "/>
<path style=" stroke:none;fill-rule:nonzero;fill:rgb(100%,100%,100%);fill-opacity:1;" d="M 252.042969 483.957031 C 252.042969 489.691406 243.441406 489.691406 243.441406 483.957031 C 243.441406 478.222656 252.042969 478.222656 252.042969 483.957031 "/>
<path style=" stroke:none;fill-rule:nonzero;fill:rgb(100%,100%,100%);fill-opacity:1;" d="M 284.730469 137.289062 C 284.730469 143.023438 276.128906 143.023438 276.128906 137.289062 C 276.128906 131.554688 284.730469 131.554688 284.730469 137.289062 "/>
<path style=" stroke:none;fill-rule:nonzero;fill:rgb(100%,100%,100%);fill-opacity:1;" d="M 372.472656 462.453125 C 372.472656 468.1875 363.871094 468.1875 363.871094 462.453125 C 363.871094 456.71875 372.472656 456.71875 372.472656 462.453125 "/>
<path style=" stroke:none;fill-rule:nonzero;fill:rgb(100%,100%,100%);fill-opacity:1;" d="M 388.816406 2.238281 C 388.816406 7.972656 380.214844 7.972656 380.214844 2.238281 C 380.214844 -3.496094 388.816406 -3.496094 388.816406 2.238281 "/>
<path style=" stroke:none;fill-rule:nonzero;fill:rgb(100%,100%,100%);fill-opacity:1;" d="M 426.667969 222.453125 C 426.667969 228.1875 418.066406 228.1875 418.066406 222.453125 C 418.066406 216.71875 426.667969 216.71875 426.667969 222.453125 "/>
<path style=" stroke:none;fill-rule:nonzero;fill:rgb(100%,100%,100%);fill-opacity:1;" d="M 314.839844 120.945312 C 314.839844 126.679688 306.238281 126.679688 306.238281 120.945312 C 306.238281 115.210938 314.839844 115.210938 314.839844 120.945312 "/>
<path style=" stroke:none;fill-rule:nonzero;fill:rgb(100%,100%,100%);fill-opacity:1;" d="M 439.570312 138.152344 C 439.570312 143.886719 430.96875 143.886719 430.96875 138.152344 C 430.96875 132.417969 439.570312 132.417969 439.570312 138.152344 "/>
<path style=" stroke:none;fill-rule:nonzero;fill:rgb(100%,100%,100%);fill-opacity:1;" d="M 379.355469 65.03125 C 379.355469 70.765625 370.753906 70.765625 370.753906 65.03125 C 370.753906 59.296875 379.355469 59.296875 379.355469 65.03125 "/>
<path style=" stroke:none;fill-rule:nonzero;fill:rgb(100%,84.3%,0%);fill-opacity:1;" d="M 194.410156 141.589844 C 194.410156 147.324219 185.808594 147.324219 185.808594 141.589844 C 185.808594 135.855469 194.410156 135.855469 194.410156 141.589844 "/>
<path style=" stroke:none;fill-rule:nonzero;fill:rgb(100%,84.3%,0%);fill-opacity:1;" d="M 38.417969 429.761719 C 38.417969 435.496094 29.816406 435.496094 29.816406 429.761719 C 29.816406 424.027344 38.417969 424.027344 38.417969 429.761719 "/>
<path style=" stroke:none;fill-rule:nonzero;fill:rgb(100%,84.3%,0%);fill-opacity:1;" d="M 192.6875 460.730469 C 192.6875 466.464844 184.085938 466.464844 184.085938 460.730469 C 184.085938 454.996094 192.6875 454.996094 192.6875 460.730469 "/>
<path style=" stroke:none;fill-rule:nonzero;fill:rgb(100%,84.3%,0%);fill-opacity:1;" d="M 194.410156 425.460938 C 194.410156 431.195312 185.808594 431.195312 185.808594 425.460938 C 185.808594 419.726562 194.410156 419.726562 194.410156 425.460938 "/>
<path style=" stroke:none;fill-rule:nonzero;fill:rgb(100%,84.3%,0%);fill-opacity:1;" d="M 186.960938 137.289062 C 186.960938 143.023438 178.355469 143.023438 178.355469 137.289062 C 178.355469 131.554688 186.960938 131.554688 186.960938 137.289062 "/>
<path style=" stroke:none;fill-rule:nonzero;fill:rgb(100%,84.3%,0%);fill-opacity:1;" d="M 194.410156 64.171875 C 194.410156 69.90625 185.808594 69.90625 185.808594 64.171875 C 185.808594 58.4375 194.410156 58.4375 194.410156 64.171875 "/>
<path style=" stroke:none;fill-rule:nonzero;fill:rgb(100%,84.3%,0%);fill-opacity:1;" d="M 194.410156 356.644531 C 194.410156 362.378906 185.808594 362.378906 185.808594 356.644531 C 185.808594 350.910156 194.410156 350.910156 194.410156 356.644531 "/>
<path style=" stroke:none;fill-rule:nonzero;fill:rgb(100%,84.3%,0%);fill-opacity:1;" d="M 194.410156 270.625 C 194.410156 276.359375 185.808594 276.359375 185.808594 270.625 C 185.808594 264.890625 194.410156 264.890625 194.410156 270.625 "/>
<path style=" stroke:none;fill-rule:nonzero;fill:rgb(100%,84.3%,0%);fill-opacity:1;" d="M 186.960938 360.945312 C 186.960938 366.679688 178.355469 366.679688 178.355469 360.945312 C 178.355469 355.210938 186.960938 355.210938 186.960938 360.945312 "/>
<path style=" stroke:none;fill-rule:nonzero;fill:rgb(100%,84.3%,0%);fill-opacity:1;" d="M 110.96875 453.28125 C 110.96875 459.015625 102.367188 459.015625 102.367188 453.28125 C 102.367188 447.546875 110.96875 447.546875 110.96875 453.28125 "/>
<path style=" stroke:none;fill-rule:nonzero;fill:rgb(100%,84.3%,0%);fill-opacity:1;" d="M 38.417969 163.097656 C 38.417969 168.832031 29.816406 168.832031 29.816406 163.097656 C 29.816406 157.363281 38.417969 157.363281 38.417969 163.097656 "/>
<path style=" stroke:none;fill-rule:nonzero;fill:rgb(100%,84.3%,0%);fill-opacity:1;" d="M 194.410156 201.804688 C 194.410156 207.539062 185.808594 207.539062 185.808594 201.804688 C 185.808594 196.070312 194.410156 196.070312 194.410156 201.804688 "/>
<path style=" stroke:none;fill-rule:nonzero;fill:rgb(100%,84.3%,0%);fill-opacity:1;" d="M 194.410156 373.847656 C 194.410156 379.582031 185.808594 379.582031 185.808594 373.847656 C 185.808594 368.113281 194.410156 368.113281 194.410156 373.847656 "/>
<path style=" stroke:none;fill-rule:nonzero;fill:rgb(100%,84.3%,0%);fill-opacity:1;" d="M 60.214844 51.269531 C 60.214844 57.003906 51.613281 57.003906 51.613281 51.269531 C 51.613281 45.535156 60.214844 45.535156 60.214844 51.269531 "/>
<path style=" stroke:none;fill-rule:nonzero;fill:rgb(100%,84.3%,0%);fill-opacity:1;" d="M 186.960938 77.074219 C 186.960938 82.808594 178.355469 82.808594 178.355469 77.074219 C 178.355469 71.339844 186.960938 71.339844 186.960938 77.074219 "/>
<path style=" stroke:none;fill-rule:nonzero;fill:rgb(100%,84.3%,0%);fill-opacity:1;" d="M 38.417969 120.085938 C 38.417969 125.820312 29.816406 125.820312 29.816406 120.085938 C 29.816406 114.351562 38.417969 114.351562 38.417969 120.085938 "/>
<path style=" stroke:none;fill-rule:nonzero;fill:rgb(100%,84.3%,0%);fill-opacity:1;" d="M 38.417969 326.539062 C 38.417969 332.273438 29.816406 332.273438 29.816406 326.539062 C 29.816406 320.804688 38.417969 320.804688 38.417969 326.539062 "/>
<path style=" stroke:none;fill-rule:nonzero;fill:rgb(100%,84.3%,0%);fill-opacity:1;" d="M 162.582031 453.28125 C 162.582031 459.015625 153.980469 459.015625 153.980469 453.28125 C 153.980469 447.546875 162.582031 447.546875 162.582031 453.28125 "/>
<path style=" stroke:none;fill-rule:nonzero;fill:rgb(100%,84.3%,0%);fill-opacity:1;" d="M 194.410156 322.238281 C 194.410156 327.972656 185.808594 327.972656 185.808594 322.238281 C 185.808594 316.503906 194.410156 316.503906 194.410156 322.238281 "/>
<path style=" stroke:none;fill-rule:nonzero;fill:rgb(100%,84.3%,0%);fill-opacity:1;" d="M 38.417969 188.902344 C 38.417969 194.636719 29.816406 194.636719 29.816406 188.902344 C 29.816406 183.167969 38.417969 183.167969 38.417969 188.902344 "/>
<path style=" stroke:none;fill-rule:nonzero;fill:rgb(100%,84.3%,0%);fill-opacity:1;" d="M 30.96875 348.042969 C 30.96875 353.777344 22.367188 353.777344 22.367188 348.042969 C 22.367188 342.308594 30.96875 342.308594 30.96875 348.042969 "/>
<path style=" stroke:none;fill-rule:nonzero;fill:rgb(100%,84.3%,0%);fill-opacity:1;" d="M 194.410156 287.828125 C 194.410156 293.5625 185.808594 293.5625 185.808594 287.828125 C 185.808594 282.09375 194.410156 282.09375 194.410156 287.828125 "/>
<path style=" stroke:none;fill-rule:nonzero;fill:rgb(100%,84.3%,0%);fill-opacity:1;" d="M 180.644531 51.269531 C 180.644531 57.003906 172.042969 57.003906 172.042969 51.269531 C 172.042969 45.535156 180.644531 45.535156 180.644531 51.269531 "/>
<path style=" stroke:none;fill-rule:nonzero;fill:rgb(100%,84.3%,0%);fill-opacity:1;" d="M 186.960938 188.902344 C 186.960938 194.636719 178.355469 194.636719 178.355469 188.902344 C 178.355469 183.167969 186.960938 183.167969 186.960938 188.902344 "/>
<path style=" stroke:none;fill-rule:nonzero;fill:rgb(100%,84.3%,0%);fill-opacity:1;" d="M 30.96875 296.429688 C 30.96875 302.164062 22.367188 302.164062 22.367188 296.429688 C 22.367188 290.695312 30.96875 290.695312 30.96875 296.429688 "/>
<path style=" stroke:none;fill-rule:nonzero;fill:rgb(100%,84.3%,0%);fill-opacity:1;" d="M 141.933594 58.71875 C 141.933594 64.453125 133.332031 64.453125 133.332031 58.71875 C 133.332031 52.984375 141.933594 52.984375 141.933594 58.71875 "/>
<path style=" stroke:none;fill-rule:nonzero;fill:rgb(100%,84.3%,0%);fill-opacity:1;" d="M 194.410156 244.816406 C 194.410156 250.550781 185.808594 250.550781 185.808594 244.816406 C 185.808594 239.082031 194.410156 239.082031 194.410156 244.816406 "/>
<path style=" stroke:none;fill-rule:nonzero;fill:rgb(100%,84.3%,0%);fill-opacity:1;" d="M 30.96875 244.816406 C 30.96875 250.550781 22.367188 250.550781 22.367188 244.816406 C 22.367188 239.082031 30.96875 239.082031 30.96875 244.816406 "/>
<path style=" stroke:none;fill-rule:nonzero;fill:rgb(100%,84.3%,0%);fill-opacity:1;" d="M 186.960938 111.484375 C 186.960938 117.21875 178.355469 117.21875 178.355469 111.484375 C 178.355469 105.75 186.960938 105.75 186.960938 111.484375 "/>
<path style=" stroke:none;fill-rule:nonzero;fill:rgb(100%,84.3%,0%);fill-opacity:1;" d="M 153.976562 453.28125 C 153.976562 459.015625 145.375 459.015625 145.375 453.28125 C 145.375 447.546875 153.976562 447.546875 153.976562 453.28125 "/>
<path style=" stroke:none;fill-rule:nonzero;fill:rgb(100%,84.3%,0%);fill-opacity:1;" d="M 38.417969 171.699219 C 38.417969 177.433594 29.816406 177.433594 29.816406 171.699219 C 29.816406 165.964844 38.417969 165.964844 38.417969 171.699219 "/>
<path style=" stroke:none;fill-rule:nonzero;fill:rgb(100%,84.3%,0%);fill-opacity:1;" d="M 186.960938 249.117188 C 186.960938 254.851562 178.355469 254.851562 178.355469 249.117188 C 178.355469 243.382812 186.960938 243.382812 186.960938 249.117188 "/>
<path style=" stroke:none;fill-rule:nonzero;fill:rgb(100%,84.3%,0%);fill-opacity:1;" d="M 30.96875 98.582031 C 30.96875 104.316406 22.367188 104.316406 22.367188 98.582031 C 22.367188 92.847656 30.96875 92.847656 30.96875 98.582031 "/>
<path style=" stroke:none;fill-rule:nonzero;fill:rgb(100%,84.3%,0%);fill-opacity:1;" d="M 38.417969 292.128906 C 38.417969 297.863281 29.816406 297.863281 29.816406 292.128906 C 29.816406 286.394531 38.417969 286.394531 38.417969 292.128906 "/>
<path style=" stroke:none;fill-rule:nonzero;fill:rgb(100%,84.3%,0%);fill-opacity:1;" d="M 34.410156 51.269531 C 34.410156 57.003906 25.808594 57.003906 25.808594 51.269531 C 25.808594 45.535156 34.410156 45.535156 34.410156 51.269531 "/>
<path style=" stroke:none;fill-rule:nonzero;fill:rgb(100%,84.3%,0%);fill-opacity:1;" d="M 194.410156 279.226562 C 194.410156 284.960938 185.808594 284.960938 185.808594 279.226562 C 185.808594 273.492188 194.410156 273.492188 194.410156 279.226562 "/>
<path style=" stroke:none;fill-rule:nonzero;fill:rgb(100%,84.3%,0%);fill-opacity:1;" d="M 102.367188 453.28125 C 102.367188 459.015625 93.765625 459.015625 93.765625 453.28125 C 93.765625 447.546875 102.367188 447.546875 102.367188 453.28125 "/>
<path style=" stroke:none;fill-rule:nonzero;fill:rgb(100%,84.3%,0%);fill-opacity:1;" d="M 194.410156 382.453125 C 194.410156 388.1875 185.808594 388.1875 185.808594 382.453125 C 185.808594 376.71875 194.410156 376.71875 194.410156 382.453125 "/>
<path style=" stroke:none;fill-rule:nonzero;fill:rgb(100%,84.3%,0%);fill-opacity:1;" d="M 37.847656 460.730469 C 37.847656 466.464844 29.246094 466.464844 29.246094 460.730469 C 29.246094 454.996094 37.847656 454.996094 37.847656 460.730469 "/>
<path style=" stroke:none;fill-rule:nonzero;fill:rgb(100%,84.3%,0%);fill-opacity:1;" d="M 38.417969 102.882812 C 38.417969 108.617188 29.816406 108.617188 29.816406 102.882812 C 29.816406 97.148438 38.417969 97.148438 38.417969 102.882812 "/>
<path style=" stroke:none;fill-rule:nonzero;fill:rgb(100%,84.3%,0%);fill-opacity:1;" d="M 186.960938 412.558594 C 186.960938 418.292969 178.355469 418.292969 178.355469 412.558594 C 178.355469 406.824219 186.960938 406.824219 186.960938 412.558594 "/>
<path style=" stroke:none;fill-rule:nonzero;fill:rgb(100%,84.3%,0%);fill-opacity:1;" d="M 163.441406 51.269531 C 163.441406 57.003906 154.839844 57.003906 154.839844 51.269531 C 154.839844 45.535156 163.441406 45.535156 163.441406 51.269531 "/>
<path style=" stroke:none;fill-rule:nonzero;fill:rgb(100%,84.3%,0%);fill-opacity:1;" d="M 30.96875 167.398438 C 30.96875 173.132812 22.367188 173.132812 22.367188 167.398438 C 22.367188 161.664062 30.96875 161.664062 30.96875 167.398438 "/>
<path style=" stroke:none;fill-rule:nonzero;fill:rgb(100%,84.3%,0%);fill-opacity:1;" d="M 30.96875 124.386719 C 30.96875 130.121094 22.367188 130.121094 22.367188 124.386719 C 22.367188 118.652344 30.96875 118.652344 30.96875 124.386719 "/>
<path style=" stroke:none;fill-rule:nonzero;fill:rgb(100%,84.3%,0%);fill-opacity:1;" d="M 194.410156 365.246094 C 194.410156 370.980469 185.808594 370.980469 185.808594 365.246094 C 185.808594 359.511719 194.410156 359.511719 194.410156 365.246094 "/>
<path style=" stroke:none;fill-rule:nonzero;fill:rgb(100%,84.3%,0%);fill-opacity:1;" d="M 137.632812 51.269531 C 137.632812 57.003906 129.03125 57.003906 129.03125 51.269531 C 129.03125 45.535156 137.632812 45.535156 137.632812 51.269531 "/>
<path style=" stroke:none;fill-rule:nonzero;fill:rgb(100%,84.3%,0%);fill-opacity:1;" d="M 186.960938 403.957031 C 186.960938 409.691406 178.355469 409.691406 178.355469 403.957031 C 178.355469 398.222656 186.960938 398.222656 186.960938 403.957031 "/>
<path style=" stroke:none;fill-rule:nonzero;fill:rgb(100%,84.3%,0%);fill-opacity:1;" d="M 38.417969 180.300781 C 38.417969 186.035156 29.816406 186.035156 29.816406 180.300781 C 29.816406 174.566406 38.417969 174.566406 38.417969 180.300781 "/>
<path style=" stroke:none;fill-rule:nonzero;fill:rgb(100%,84.3%,0%);fill-opacity:1;" d="M 146.234375 51.269531 C 146.234375 57.003906 137.632812 57.003906 137.632812 51.269531 C 137.632812 45.535156 146.234375 45.535156 146.234375 51.269531 "/>
<path style=" stroke:none;fill-rule:nonzero;fill:rgb(100%,84.3%,0%);fill-opacity:1;" d="M 30.96875 287.828125 C 30.96875 293.5625 22.367188 293.5625 22.367188 287.828125 C 22.367188 282.09375 30.96875 282.09375 30.96875 287.828125 "/>
<path style=" stroke:none;fill-rule:nonzero;fill:rgb(100%,84.3%,0%);fill-opacity:1;" d="M 123.871094 460.730469 C 123.871094 466.464844 115.269531 466.464844 115.269531 460.730469 C 115.269531 454.996094 123.871094 454.996094 123.871094 460.730469 "/>
<path style=" stroke:none;fill-rule:nonzero;fill:rgb(100%,84.3%,0%);fill-opacity:1;" d="M 77.417969 51.269531 C 77.417969 57.003906 68.816406 57.003906 68.816406 51.269531 C 68.816406 45.535156 77.417969 45.535156 77.417969 51.269531 "/>
<path style=" stroke:none;fill-rule:nonzero;fill:rgb(100%,84.3%,0%);fill-opacity:1;" d="M 38.417969 378.152344 C 38.417969 383.886719 29.816406 383.886719 29.816406 378.152344 C 29.816406 372.417969 38.417969 372.417969 38.417969 378.152344 "/>
<path style=" stroke:none;fill-rule:nonzero;fill:rgb(100%,84.3%,0%);fill-opacity:1;" d="M 166.882812 460.730469 C 166.882812 466.464844 158.28125 466.464844 158.28125 460.730469 C 158.28125 454.996094 166.882812 454.996094 166.882812 460.730469 "/>
<path style=" stroke:none;fill-rule:nonzero;fill:rgb(100%,84.3%,0%);fill-opacity:1;" d="M 38.417969 257.71875 C 38.417969 263.453125 29.816406 263.453125 29.816406 257.71875 C 29.816406 251.984375 38.417969 251.984375 38.417969 257.71875 "/>
<path style=" stroke:none;fill-rule:nonzero;fill:rgb(100%,84.3%,0%);fill-opacity:1;" d="M 30.96875 115.785156 C 30.96875 121.519531 22.367188 121.519531 22.367188 115.785156 C 22.367188 110.050781 30.96875 110.050781 30.96875 115.785156 "/>
<path style=" stroke:none;fill-rule:nonzero;fill:rgb(100%,84.3%,0%);fill-opacity:1;" d="M 38.417969 335.140625 C 38.417969 340.875 29.816406 340.875 29.816406 335.140625 C 29.816406 329.40625 38.417969 329.40625 38.417969 335.140625 "/>
<path style=" stroke:none;fill-rule:nonzero;fill:rgb(100%,84.3%,0%);fill-opacity:1;" d="M 38.417969 137.289062 C 38.417969 143.023438 29.816406 143.023438 29.816406 137.289062 C 29.816406 131.554688 38.417969 131.554688 38.417969 137.289062 "/>
<path style=" stroke:none;fill-rule:nonzero;fill:rgb(100%,84.3%,0%);fill-opacity:1;" d="M 194.410156 391.054688 C 194.410156 396.789062 185.808594 396.789062 185.808594 391.054688 C 185.808594 385.320312 194.410156 385.320312 194.410156 391.054688 "/>
<path style=" stroke:none;fill-rule:nonzero;fill:rgb(100%,84.3%,0%);fill-opacity:1;" d="M 186.960938 352.34375 C 186.960938 358.078125 178.355469 358.078125 178.355469 352.34375 C 178.355469 346.609375 186.960938 346.609375 186.960938 352.34375 "/>
<path style=" stroke:none;fill-rule:nonzero;fill:rgb(100%,84.3%,0%);fill-opacity:1;" d="M 141.074219 460.730469 C 141.074219 466.464844 132.472656 466.464844 132.472656 460.730469 C 132.472656 454.996094 141.074219 454.996094 141.074219 460.730469 "/>
<path style=" stroke:none;fill-rule:nonzero;fill:rgb(100%,84.3%,0%);fill-opacity:1;" d="M 194.410156 115.785156 C 194.410156 121.519531 185.808594 121.519531 185.808594 115.785156 C 185.808594 110.050781 194.410156 110.050781 194.410156 115.785156 "/>
<path style=" stroke:none;fill-rule:nonzero;fill:rgb(100%,84.3%,0%);fill-opacity:1;" d="M 51.613281 51.269531 C 51.613281 57.003906 43.011719 57.003906 43.011719 51.269531 C 43.011719 45.535156 51.613281 45.535156 51.613281 51.269531 "/>
<path style=" stroke:none;fill-rule:nonzero;fill:rgb(100%,84.3%,0%);fill-opacity:1;" d="M 186.960938 145.890625 C 186.960938 151.625 178.355469 151.625 178.355469 145.890625 C 178.355469 140.15625 186.960938 140.15625 186.960938 145.890625 "/>
<path style=" stroke:none;fill-rule:nonzero;fill:rgb(100%,84.3%,0%);fill-opacity:1;" d="M 38.417969 231.914062 C 38.417969 237.648438 29.816406 237.648438 29.816406 231.914062 C 29.816406 226.179688 38.417969 226.179688 38.417969 231.914062 "/>
<path style=" stroke:none;fill-rule:nonzero;fill:rgb(100%,84.3%,0%);fill-opacity:1;" d="M 194.410156 296.429688 C 194.410156 302.164062 185.808594 302.164062 185.808594 296.429688 C 185.808594 290.695312 194.410156 290.695312 194.410156 296.429688 "/>
<path style=" stroke:none;fill-rule:nonzero;fill:rgb(100%,84.3%,0%);fill-opacity:1;" d="M 30.96875 184.601562 C 30.96875 190.335938 22.367188 190.335938 22.367188 184.601562 C 22.367188 178.867188 30.96875 178.867188 30.96875 184.601562 "/>
<path style=" stroke:none;fill-rule:nonzero;fill:rgb(100%,84.3%,0%);fill-opacity:1;" d="M 30.96875 365.246094 C 30.96875 370.980469 22.367188 370.980469 22.367188 365.246094 C 22.367188 359.511719 30.96875 359.511719 30.96875 365.246094 "/>
<path style=" stroke:none;fill-rule:nonzero;fill:rgb(100%,84.3%,0%);fill-opacity:1;" d="M 194.410156 184.601562 C 194.410156 190.335938 185.808594 190.335938 185.808594 184.601562 C 185.808594 178.867188 194.410156 178.867188 194.410156 184.601562 "/>
<path style=" stroke:none;fill-rule:nonzero;fill:rgb(100%,84.3%,0%);fill-opacity:1;" d="M 30.96875 373.847656 C 30.96875 379.582031 22.367188 379.582031 22.367188 373.847656 C 22.367188 368.113281 30.96875 368.113281 30.96875 373.847656 "/>
<path style=" stroke:none;fill-rule:nonzero;fill:rgb(100%,84.3%,0%);fill-opacity:1;" d="M 67.957031 453.28125 C 67.957031 459.015625 59.355469 459.015625 59.355469 453.28125 C 59.355469 447.546875 67.957031 447.546875 67.957031 453.28125 "/>
<path style=" stroke:none;fill-rule:nonzero;fill:rgb(100%,84.3%,0%);fill-opacity:1;" d="M 186.960938 171.699219 C 186.960938 177.433594 178.355469 177.433594 178.355469 171.699219 C 178.355469 165.964844 186.960938 165.964844 186.960938 171.699219 "/>
<path style=" stroke:none;fill-rule:nonzero;fill:rgb(100%,84.3%,0%);fill-opacity:1;" d="M 50.753906 453.28125 C 50.753906 459.015625 42.152344 459.015625 42.152344 453.28125 C 42.152344 447.546875 50.753906 447.546875 50.753906 453.28125 "/>
<path style=" stroke:none;fill-rule:nonzero;fill:rgb(100%,84.3%,0%);fill-opacity:1;" d="M 184.945312 58.71875 C 184.945312 64.453125 176.34375 64.453125 176.34375 58.71875 C 176.34375 52.984375 184.945312 52.984375 184.945312 58.71875 "/>
<path style=" stroke:none;fill-rule:nonzero;fill:rgb(100%,84.3%,0%);fill-opacity:1;" d="M 186.960938 68.472656 C 186.960938 74.207031 178.355469 74.207031 178.355469 68.472656 C 178.355469 62.738281 186.960938 62.738281 186.960938 68.472656 "/>
<path style=" stroke:none;fill-rule:nonzero;fill:rgb(100%,84.3%,0%);fill-opacity:1;" d="M 111.828125 51.269531 C 111.828125 57.003906 103.226562 57.003906 103.226562 51.269531 C 103.226562 45.535156 111.828125 45.535156 111.828125 51.269531 "/>
<path style=" stroke:none;fill-rule:nonzero;fill:rgb(100%,84.3%,0%);fill-opacity:1;" d="M 171.183594 453.28125 C 171.183594 459.015625 162.582031 459.015625 162.582031 453.28125 C 162.582031 447.546875 171.183594 447.546875 171.183594 453.28125 "/>
<path style=" stroke:none;fill-rule:nonzero;fill:rgb(100%,84.3%,0%);fill-opacity:1;" d="M 98.0625 460.730469 C 98.0625 466.464844 89.460938 466.464844 89.460938 460.730469 C 89.460938 454.996094 98.0625 454.996094 98.0625 460.730469 "/>
<path style=" stroke:none;fill-rule:nonzero;fill:rgb(100%,84.3%,0%);fill-opacity:1;" d="M 30.96875 270.625 C 30.96875 276.359375 22.367188 276.359375 22.367188 270.625 C 22.367188 264.890625 30.96875 264.890625 30.96875 270.625 "/>
<path style=" stroke:none;fill-rule:nonzero;fill:rgb(100%,84.3%,0%);fill-opacity:1;" d="M 38.417969 111.484375 C 38.417969 117.21875 29.816406 117.21875 29.816406 111.484375 C 29.816406 105.75 38.417969 105.75 38.417969 111.484375 "/>
<path style=" stroke:none;fill-rule:nonzero;fill:rgb(100%,84.3%,0%);fill-opacity:1;" d="M 186.960938 446.96875 C 186.960938 452.703125 178.355469 452.703125 178.355469 446.96875 C 178.355469 441.234375 186.960938 441.234375 186.960938 446.96875 "/>
<path style=" stroke:none;fill-rule:nonzero;fill:rgb(100%,84.3%,0%);fill-opacity:1;" d="M 30.96875 434.066406 C 30.96875 439.800781 22.367188 439.800781 22.367188 434.066406 C 22.367188 428.332031 30.96875 428.332031 30.96875 434.066406 "/>
<path style=" stroke:none;fill-rule:nonzero;fill:rgb(100%,84.3%,0%);fill-opacity:1;" d="M 186.960938 128.6875 C 186.960938 134.421875 178.355469 134.421875 178.355469 128.6875 C 178.355469 122.953125 186.960938 122.953125 186.960938 128.6875 "/>
<path style=" stroke:none;fill-rule:nonzero;fill:rgb(100%,84.3%,0%);fill-opacity:1;" d="M 186.960938 438.367188 C 186.960938 444.101562 178.355469 444.101562 178.355469 438.367188 C 178.355469 432.632812 186.960938 432.632812 186.960938 438.367188 "/>
<path style=" stroke:none;fill-rule:nonzero;fill:rgb(100%,84.3%,0%);fill-opacity:1;" d="M 38.417969 438.367188 C 38.417969 444.101562 29.816406 444.101562 29.816406 438.367188 C 29.816406 432.632812 38.417969 432.632812 38.417969 438.367188 "/>
<path style=" stroke:none;fill-rule:nonzero;fill:rgb(100%,84.3%,0%);fill-opacity:1;" d="M 30.96875 176 C 30.96875 181.734375 22.367188 181.734375 22.367188 176 C 22.367188 170.265625 30.96875 170.265625 30.96875 176 "/>
<path style=" stroke:none;fill-rule:nonzero;fill:rgb(100%,84.3%,0%);fill-opacity:1;" d="M 38.710938 58.71875 C 38.710938 64.453125 30.109375 64.453125 30.109375 58.71875 C 30.109375 52.984375 38.710938 52.984375 38.710938 58.71875 "/>
<path style=" stroke:none;fill-rule:nonzero;fill:rgb(100%,84.3%,0%);fill-opacity:1;" d="M 175.484375 460.730469 C 175.484375 466.464844 166.882812 466.464844 166.882812 460.730469 C 166.882812 454.996094 175.484375 454.996094 175.484375 460.730469 "/>
<path style=" stroke:none;fill-rule:nonzero;fill:rgb(100%,84.3%,0%);fill-opacity:1;" d="M 194.410156 434.066406 C 194.410156 439.800781 185.808594 439.800781 185.808594 434.066406 C 185.808594 428.332031 194.410156 428.332031 194.410156 434.066406 "/>
<path style=" stroke:none;fill-rule:nonzero;fill:rgb(100%,84.3%,0%);fill-opacity:1;" d="M 30.96875 193.203125 C 30.96875 198.9375 22.367188 198.9375 22.367188 193.203125 C 22.367188 187.46875 30.96875 187.46875 30.96875 193.203125 "/>
<path style=" stroke:none;fill-rule:nonzero;fill:rgb(100%,84.3%,0%);fill-opacity:1;" d="M 194.410156 219.011719 C 194.410156 224.746094 185.808594 224.746094 185.808594 219.011719 C 185.808594 213.277344 194.410156 213.277344 194.410156 219.011719 "/>
<path style=" stroke:none;fill-rule:nonzero;fill:rgb(100%,84.3%,0%);fill-opacity:1;" d="M 30.96875 451.269531 C 30.96875 457.003906 22.367188 457.003906 22.367188 451.269531 C 22.367188 445.535156 30.96875 445.535156 30.96875 451.269531 "/>
<path style=" stroke:none;fill-rule:nonzero;fill:rgb(100%,84.3%,0%);fill-opacity:1;" d="M 194.410156 193.203125 C 194.410156 198.9375 185.808594 198.9375 185.808594 193.203125 C 185.808594 187.46875 194.410156 187.46875 194.410156 193.203125 "/>
<path style=" stroke:none;fill-rule:nonzero;fill:rgb(100%,84.3%,0%);fill-opacity:1;" d="M 194.410156 98.582031 C 194.410156 104.316406 185.808594 104.316406 185.808594 98.582031 C 185.808594 92.847656 194.410156 92.847656 194.410156 98.582031 "/>
<path style=" stroke:none;fill-rule:nonzero;fill:rgb(100%,84.3%,0%);fill-opacity:1;" d="M 86.019531 51.269531 C 86.019531 57.003906 77.417969 57.003906 77.417969 51.269531 C 77.417969 45.535156 86.019531 45.535156 86.019531 51.269531 "/>
<path style=" stroke:none;fill-rule:nonzero;fill:rgb(100%,84.3%,0%);fill-opacity:1;" d="M 30.96875 408.257812 C 30.96875 413.992188 22.367188 413.992188 22.367188 408.257812 C 22.367188 402.523438 30.96875 402.523438 30.96875 408.257812 "/>
<path style=" stroke:none;fill-rule:nonzero;fill:rgb(100%,84.3%,0%);fill-opacity:1;" d="M 189.246094 51.269531 C 189.246094 57.003906 180.644531 57.003906 180.644531 51.269531 C 180.644531 45.535156 189.246094 45.535156 189.246094 51.269531 "/>
<path style=" stroke:none;fill-rule:nonzero;fill:rgb(100%,84.3%,0%);fill-opacity:1;" d="M 38.417969 300.730469 C 38.417969 306.464844 29.816406 306.464844 29.816406 300.730469 C 29.816406 294.996094 38.417969 294.996094 38.417969 300.730469 "/>
<path style=" stroke:none;fill-rule:nonzero;fill:rgb(100%,84.3%,0%);fill-opacity:1;" d="M 119.570312 453.28125 C 119.570312 459.015625 110.96875 459.015625 110.96875 453.28125 C 110.96875 447.546875 119.570312 447.546875 119.570312 453.28125 "/>
<path style=" stroke:none;fill-rule:nonzero;fill:rgb(100%,84.3%,0%);fill-opacity:1;" d="M 132.472656 460.730469 C 132.472656 466.464844 123.871094 466.464844 123.871094 460.730469 C 123.871094 454.996094 132.472656 454.996094 132.472656 460.730469 "/>
<path style=" stroke:none;fill-rule:nonzero;fill:rgb(100%,84.3%,0%);fill-opacity:1;" d="M 55.054688 460.730469 C 55.054688 466.464844 46.453125 466.464844 46.453125 460.730469 C 46.453125 454.996094 55.054688 454.996094 55.054688 460.730469 "/>
<path style=" stroke:none;fill-rule:nonzero;fill:rgb(100%,84.3%,0%);fill-opacity:1;" d="M 129.03125 51.269531 C 129.03125 57.003906 120.429688 57.003906 120.429688 51.269531 C 120.429688 45.535156 129.03125 45.535156 129.03125 51.269531 "/>
<path style=" stroke:none;fill-rule:nonzero;fill:rgb(100%,84.3%,0%);fill-opacity:1;" d="M 194.410156 124.386719 C 194.410156 130.121094 185.808594 130.121094 185.808594 124.386719 C 185.808594 118.652344 194.410156 118.652344 194.410156 124.386719 "/>
<path style=" stroke:none;fill-rule:nonzero;fill:rgb(100%,84.3%,0%);fill-opacity:1;" d="M 136.773438 453.28125 C 136.773438 459.015625 128.171875 459.015625 128.171875 453.28125 C 128.171875 447.546875 136.773438 447.546875 136.773438 453.28125 "/>
<path style=" stroke:none;fill-rule:nonzero;fill:rgb(100%,84.3%,0%);fill-opacity:1;" d="M 30.96875 107.183594 C 30.96875 112.917969 22.367188 112.917969 22.367188 107.183594 C 22.367188 101.449219 30.96875 101.449219 30.96875 107.183594 "/>
<path style=" stroke:none;fill-rule:nonzero;fill:rgb(100%,84.3%,0%);fill-opacity:1;" d="M 30.96875 399.65625 C 30.96875 405.390625 22.367188 405.390625 22.367188 399.65625 C 22.367188 393.921875 30.96875 393.921875 30.96875 399.65625 "/>
<path style=" stroke:none;fill-rule:nonzero;fill:rgb(100%,84.3%,0%);fill-opacity:1;" d="M 30.96875 72.773438 C 30.96875 78.507812 22.367188 78.507812 22.367188 72.773438 C 22.367188 67.039062 30.96875 67.039062 30.96875 72.773438 "/>
<path style=" stroke:none;fill-rule:nonzero;fill:rgb(100%,84.3%,0%);fill-opacity:1;" d="M 30.96875 356.644531 C 30.96875 362.378906 22.367188 362.378906 22.367188 356.644531 C 22.367188 350.910156 30.96875 350.910156 30.96875 356.644531 "/>
<path style=" stroke:none;fill-rule:nonzero;fill:rgb(100%,84.3%,0%);fill-opacity:1;" d="M 194.410156 399.65625 C 194.410156 405.390625 185.808594 405.390625 185.808594 399.65625 C 185.808594 393.921875 194.410156 393.921875 194.410156 399.65625 "/>
<path style=" stroke:none;fill-rule:nonzero;fill:rgb(100%,84.3%,0%);fill-opacity:1;" d="M 167.742188 58.71875 C 167.742188 64.453125 159.140625 64.453125 159.140625 58.71875 C 159.140625 52.984375 167.742188 52.984375 167.742188 58.71875 "/>
<path style=" stroke:none;fill-rule:nonzero;fill:rgb(100%,84.3%,0%);fill-opacity:1;" d="M 38.417969 214.710938 C 38.417969 220.445312 29.816406 220.445312 29.816406 214.710938 C 29.816406 208.976562 38.417969 208.976562 38.417969 214.710938 "/>
<path style=" stroke:none;fill-rule:nonzero;fill:rgb(100%,84.3%,0%);fill-opacity:1;" d="M 186.960938 378.152344 C 186.960938 383.886719 178.355469 383.886719 178.355469 378.152344 C 178.355469 372.417969 186.960938 372.417969 186.960938 378.152344 "/>
<path style=" stroke:none;fill-rule:nonzero;fill:rgb(100%,84.3%,0%);fill-opacity:1;" d="M 106.667969 460.730469 C 106.667969 466.464844 98.066406 466.464844 98.066406 460.730469 C 98.066406 454.996094 106.667969 454.996094 106.667969 460.730469 "/>
<path style=" stroke:none;fill-rule:nonzero;fill:rgb(100%,84.3%,0%);fill-opacity:1;" d="M 186.960938 395.355469 C 186.960938 401.089844 178.355469 401.089844 178.355469 395.355469 C 178.355469 389.621094 186.960938 389.621094 186.960938 395.355469 "/>
<path style=" stroke:none;fill-rule:nonzero;fill:rgb(100%,84.3%,0%);fill-opacity:1;" d="M 124.730469 58.71875 C 124.730469 64.453125 116.128906 64.453125 116.128906 58.71875 C 116.128906 52.984375 124.730469 52.984375 124.730469 58.71875 "/>
<path style=" stroke:none;fill-rule:nonzero;fill:rgb(100%,84.3%,0%);fill-opacity:1;" d="M 38.417969 85.675781 C 38.417969 91.410156 29.816406 91.410156 29.816406 85.675781 C 29.816406 79.941406 38.417969 79.941406 38.417969 85.675781 "/>
<path style=" stroke:none;fill-rule:nonzero;fill:rgb(100%,84.3%,0%);fill-opacity:1;" d="M 186.960938 309.332031 C 186.960938 315.066406 178.355469 315.066406 178.355469 309.332031 C 178.355469 303.597656 186.960938 303.597656 186.960938 309.332031 "/>
<path style=" stroke:none;fill-rule:nonzero;fill:rgb(100%,84.3%,0%);fill-opacity:1;" d="M 38.417969 309.332031 C 38.417969 315.066406 29.816406 315.066406 29.816406 309.332031 C 29.816406 303.597656 38.417969 303.597656 38.417969 309.332031 "/>
<path style=" stroke:none;fill-rule:nonzero;fill:rgb(100%,84.3%,0%);fill-opacity:1;" d="M 30.96875 150.195312 C 30.96875 155.929688 22.367188 155.929688 22.367188 150.195312 C 22.367188 144.460938 30.96875 144.460938 30.96875 150.195312 "/>
<path style=" stroke:none;fill-rule:nonzero;fill:rgb(100%,84.3%,0%);fill-opacity:1;" d="M 194.410156 150.195312 C 194.410156 155.929688 185.808594 155.929688 185.808594 150.195312 C 185.808594 144.460938 194.410156 144.460938 194.410156 150.195312 "/>
<path style=" stroke:none;fill-rule:nonzero;fill:rgb(100%,84.3%,0%);fill-opacity:1;" d="M 159.140625 58.71875 C 159.140625 64.453125 150.539062 64.453125 150.539062 58.71875 C 150.539062 52.984375 159.140625 52.984375 159.140625 58.71875 "/>
<path style=" stroke:none;fill-rule:nonzero;fill:rgb(100%,84.3%,0%);fill-opacity:1;" d="M 38.417969 395.355469 C 38.417969 401.089844 29.816406 401.089844 29.816406 395.355469 C 29.816406 389.621094 38.417969 389.621094 38.417969 395.355469 "/>
<path style=" stroke:none;fill-rule:nonzero;fill:rgb(100%,84.3%,0%);fill-opacity:1;" d="M 186.960938 369.546875 C 186.960938 375.28125 178.355469 375.28125 178.355469 369.546875 C 178.355469 363.8125 186.960938 363.8125 186.960938 369.546875 "/>
<path style=" stroke:none;fill-rule:nonzero;fill:rgb(100%,84.3%,0%);fill-opacity:1;" d="M 103.226562 51.269531 C 103.226562 57.003906 94.625 57.003906 94.625 51.269531 C 94.625 45.535156 103.226562 45.535156 103.226562 51.269531 "/>
<path style=" stroke:none;fill-rule:nonzero;fill:rgb(100%,84.3%,0%);fill-opacity:1;" d="M 194.410156 262.023438 C 194.410156 267.757812 185.808594 267.757812 185.808594 262.023438 C 185.808594 256.289062 194.410156 256.289062 194.410156 262.023438 "/>
<path style=" stroke:none;fill-rule:nonzero;fill:rgb(100%,84.3%,0%);fill-opacity:1;" d="M 30.96875 416.859375 C 30.96875 422.59375 22.367188 422.59375 22.367188 416.859375 C 22.367188 411.125 30.96875 411.125 30.96875 416.859375 "/>
<path style=" stroke:none;fill-rule:nonzero;fill:rgb(100%,84.3%,0%);fill-opacity:1;" d="M 30.96875 210.410156 C 30.96875 216.144531 22.367188 216.144531 22.367188 210.410156 C 22.367188 204.675781 30.96875 204.675781 30.96875 210.410156 "/>
<path style=" stroke:none;fill-rule:nonzero;fill:rgb(100%,84.3%,0%);fill-opacity:1;" d="M 55.914062 58.71875 C 55.914062 64.453125 47.3125 64.453125 47.3125 58.71875 C 47.3125 52.984375 55.914062 52.984375 55.914062 58.71875 "/>
<path style=" stroke:none;fill-rule:nonzero;fill:rgb(100%,84.3%,0%);fill-opacity:1;" d="M 186.960938 85.675781 C 186.960938 91.410156 178.355469 91.410156 178.355469 85.675781 C 178.355469 79.941406 186.960938 79.941406 186.960938 85.675781 "/>
<path style=" stroke:none;fill-rule:nonzero;fill:rgb(100%,84.3%,0%);fill-opacity:1;" d="M 38.417969 145.890625 C 38.417969 151.625 29.816406 151.625 29.816406 145.890625 C 29.816406 140.15625 38.417969 140.15625 38.417969 145.890625 "/>
<path style=" stroke:none;fill-rule:nonzero;fill:rgb(100%,84.3%,0%);fill-opacity:1;" d="M 194.410156 81.375 C 194.410156 87.109375 185.808594 87.109375 185.808594 81.375 C 185.808594 75.640625 194.410156 75.640625 194.410156 81.375 "/>
<path style=" stroke:none;fill-rule:nonzero;fill:rgb(100%,84.3%,0%);fill-opacity:1;" d="M 186.960938 102.882812 C 186.960938 108.617188 178.355469 108.617188 178.355469 102.882812 C 178.355469 97.148438 186.960938 97.148438 186.960938 102.882812 "/>
<path style=" stroke:none;fill-rule:nonzero;fill:rgb(100%,84.3%,0%);fill-opacity:1;" d="M 30.96875 391.054688 C 30.96875 396.789062 22.367188 396.789062 22.367188 391.054688 C 22.367188 385.320312 30.96875 385.320312 30.96875 391.054688 "/>
<path style=" stroke:none;fill-rule:nonzero;fill:rgb(100%,84.3%,0%);fill-opacity:1;" d="M 89.460938 460.730469 C 89.460938 466.464844 80.859375 466.464844 80.859375 460.730469 C 80.859375 454.996094 89.460938 454.996094 89.460938 460.730469 "/>
<path style=" stroke:none;fill-rule:nonzero;fill:rgb(100%,84.3%,0%);fill-opacity:1;" d="M 194.410156 330.839844 C 194.410156 336.574219 185.808594 336.574219 185.808594 330.839844 C 185.808594 325.105469 194.410156 325.105469 194.410156 330.839844 "/>
<path style=" stroke:none;fill-rule:nonzero;fill:rgb(100%,84.3%,0%);fill-opacity:1;" d="M 154.839844 51.269531 C 154.839844 57.003906 146.238281 57.003906 146.238281 51.269531 C 146.238281 45.535156 154.839844 45.535156 154.839844 51.269531 "/>
<path style=" stroke:none;fill-rule:nonzero;fill:rgb(100%,84.3%,0%);fill-opacity:1;" d="M 38.417969 249.117188 C 38.417969 254.851562 29.816406 254.851562 29.816406 249.117188 C 29.816406 243.382812 38.417969 243.382812 38.417969 249.117188 "/>
<path style=" stroke:none;fill-rule:nonzero;fill:rgb(100%,84.3%,0%);fill-opacity:1;" d="M 158.277344 460.730469 C 158.277344 466.464844 149.675781 466.464844 149.675781 460.730469 C 149.675781 454.996094 158.277344 454.996094 158.277344 460.730469 "/>
<path style=" stroke:none;fill-rule:nonzero;fill:rgb(100%,84.3%,0%);fill-opacity:1;" d="M 38.417969 197.503906 C 38.417969 203.238281 29.816406 203.238281 29.816406 197.503906 C 29.816406 191.769531 38.417969 191.769531 38.417969 197.503906 "/>
<path style=" stroke:none;fill-rule:nonzero;fill:rgb(100%,84.3%,0%);fill-opacity:1;" d="M 172.042969 51.269531 C 172.042969 57.003906 163.441406 57.003906 163.441406 51.269531 C 163.441406 45.535156 172.042969 45.535156 172.042969 51.269531 "/>
<path style=" stroke:none;fill-rule:nonzero;fill:rgb(100%,84.3%,0%);fill-opacity:1;" d="M 186.960938 94.28125 C 186.960938 100.015625 178.355469 100.015625 178.355469 94.28125 C 178.355469 88.546875 186.960938 88.546875 186.960938 94.28125 "/>
<path style=" stroke:none;fill-rule:nonzero;fill:rgb(100%,84.3%,0%);fill-opacity:1;" d="M 30.96875 158.796875 C 30.96875 164.53125 22.367188 164.53125 22.367188 158.796875 C 22.367188 153.0625 30.96875 153.0625 30.96875 158.796875 "/>
<path style=" stroke:none;fill-rule:nonzero;fill:rgb(100%,84.3%,0%);fill-opacity:1;" d="M 107.527344 58.71875 C 107.527344 64.453125 98.925781 64.453125 98.925781 58.71875 C 98.925781 52.984375 107.527344 52.984375 107.527344 58.71875 "/>
<path style=" stroke:none;fill-rule:nonzero;fill:rgb(100%,84.3%,0%);fill-opacity:1;" d="M 186.960938 266.324219 C 186.960938 272.058594 178.355469 272.058594 178.355469 266.324219 C 178.355469 260.589844 186.960938 260.589844 186.960938 266.324219 "/>
<path style=" stroke:none;fill-rule:nonzero;fill:rgb(100%,84.3%,0%);fill-opacity:1;" d="M 38.417969 386.753906 C 38.417969 392.488281 29.816406 392.488281 29.816406 386.753906 C 29.816406 381.019531 38.417969 381.019531 38.417969 386.753906 "/>
<path style=" stroke:none;fill-rule:nonzero;fill:rgb(100%,84.3%,0%);fill-opacity:1;" d="M 186.960938 163.097656 C 186.960938 168.832031 178.355469 168.832031 178.355469 163.097656 C 178.355469 157.363281 186.960938 157.363281 186.960938 163.097656 "/>
<path style=" stroke:none;fill-rule:nonzero;fill:rgb(100%,84.3%,0%);fill-opacity:1;" d="M 94.625 51.269531 C 94.625 57.003906 86.023438 57.003906 86.023438 51.269531 C 86.023438 45.535156 94.625 45.535156 94.625 51.269531 "/>
<path style=" stroke:none;fill-rule:nonzero;fill:rgb(100%,84.3%,0%);fill-opacity:1;" d="M 186.960938 214.710938 C 186.960938 220.445312 178.355469 220.445312 178.355469 214.710938 C 178.355469 208.976562 186.960938 208.976562 186.960938 214.710938 "/>
<path style=" stroke:none;fill-rule:nonzero;fill:rgb(100%,84.3%,0%);fill-opacity:1;" d="M 38.417969 240.515625 C 38.417969 246.25 29.816406 246.25 29.816406 240.515625 C 29.816406 234.78125 38.417969 234.78125 38.417969 240.515625 "/>
<path style=" stroke:none;fill-rule:nonzero;fill:rgb(100%,84.3%,0%);fill-opacity:1;" d="M 30.96875 141.589844 C 30.96875 147.324219 22.367188 147.324219 22.367188 141.589844 C 22.367188 135.855469 30.96875 135.855469 30.96875 141.589844 "/>
<path style=" stroke:none;fill-rule:nonzero;fill:rgb(100%,84.3%,0%);fill-opacity:1;" d="M 38.417969 223.3125 C 38.417969 229.046875 29.816406 229.046875 29.816406 223.3125 C 29.816406 217.578125 38.417969 217.578125 38.417969 223.3125 "/>
<path style=" stroke:none;fill-rule:nonzero;fill:rgb(100%,84.3%,0%);fill-opacity:1;" d="M 38.417969 94.28125 C 38.417969 100.015625 29.816406 100.015625 29.816406 94.28125 C 29.816406 88.546875 38.417969 88.546875 38.417969 94.28125 "/>
<path style=" stroke:none;fill-rule:nonzero;fill:rgb(100%,84.3%,0%);fill-opacity:1;" d="M 194.410156 339.441406 C 194.410156 345.175781 185.808594 345.175781 185.808594 339.441406 C 185.808594 333.707031 194.410156 333.707031 194.410156 339.441406 "/>
<path style=" stroke:none;fill-rule:nonzero;fill:rgb(100%,84.3%,0%);fill-opacity:1;" d="M 186.960938 240.515625 C 186.960938 246.25 178.355469 246.25 178.355469 240.515625 C 178.355469 234.78125 186.960938 234.78125 186.960938 240.515625 "/>
<path style=" stroke:none;fill-rule:nonzero;fill:rgb(100%,84.3%,0%);fill-opacity:1;" d="M 38.417969 68.472656 C 38.417969 74.207031 29.816406 74.207031 29.816406 68.472656 C 29.816406 62.738281 38.417969 62.738281 38.417969 68.472656 "/>
<path style=" stroke:none;fill-rule:nonzero;fill:rgb(100%,84.3%,0%);fill-opacity:1;" d="M 73.117188 58.71875 C 73.117188 64.453125 64.515625 64.453125 64.515625 58.71875 C 64.515625 52.984375 73.117188 52.984375 73.117188 58.71875 "/>
<path style=" stroke:none;fill-rule:nonzero;fill:rgb(100%,84.3%,0%);fill-opacity:1;" d="M 30.96875 262.023438 C 30.96875 267.757812 22.367188 267.757812 22.367188 262.023438 C 22.367188 256.289062 30.96875 256.289062 30.96875 262.023438 "/>
<path style=" stroke:none;fill-rule:nonzero;fill:rgb(100%,84.3%,0%);fill-opacity:1;" d="M 194.410156 227.613281 C 194.410156 233.347656 185.808594 233.347656 185.808594 227.613281 C 185.808594 221.878906 194.410156 221.878906 194.410156 227.613281 "/>
<path style=" stroke:none;fill-rule:nonzero;fill:rgb(100%,84.3%,0%);fill-opacity:1;" d="M 68.816406 51.269531 C 68.816406 57.003906 60.214844 57.003906 60.214844 51.269531 C 60.214844 45.535156 68.816406 45.535156 68.816406 51.269531 "/>
<path style=" stroke:none;fill-rule:nonzero;fill:rgb(100%,84.3%,0%);fill-opacity:1;" d="M 81.71875 58.71875 C 81.71875 64.453125 73.117188 64.453125 73.117188 58.71875 C 73.117188 52.984375 81.71875 52.984375 81.71875 58.71875 "/>
<path style=" stroke:none;fill-rule:nonzero;fill:rgb(100%,84.3%,0%);fill-opacity:1;" d="M 38.417969 283.527344 C 38.417969 289.261719 29.816406 289.261719 29.816406 283.527344 C 29.816406 277.792969 38.417969 277.792969 38.417969 283.527344 "/>
<path style=" stroke:none;fill-rule:nonzero;fill:rgb(100%,84.3%,0%);fill-opacity:1;" d="M 194.410156 107.183594 C 194.410156 112.917969 185.808594 112.917969 185.808594 107.183594 C 185.808594 101.449219 194.410156 101.449219 194.410156 107.183594 "/>
<path style=" stroke:none;fill-rule:nonzero;fill:rgb(100%,84.3%,0%);fill-opacity:1;" d="M 194.410156 167.398438 C 194.410156 173.132812 185.808594 173.132812 185.808594 167.398438 C 185.808594 161.664062 194.410156 161.664062 194.410156 167.398438 "/>
<path style=" stroke:none;fill-rule:nonzero;fill:rgb(100%,84.3%,0%);fill-opacity:1;" d="M 194.410156 408.257812 C 194.410156 413.992188 185.808594 413.992188 185.808594 408.257812 C 185.808594 402.523438 194.410156 402.523438 194.410156 408.257812 "/>
<path style=" stroke:none;fill-rule:nonzero;fill:rgb(100%,84.3%,0%);fill-opacity:1;" d="M 186.960938 429.761719 C 186.960938 435.496094 178.355469 435.496094 178.355469 429.761719 C 178.355469 424.027344 186.960938 424.027344 186.960938 429.761719 "/>
<path style=" stroke:none;fill-rule:nonzero;fill:rgb(100%,84.3%,0%);fill-opacity:1;" d="M 38.417969 266.324219 C 38.417969 272.058594 29.816406 272.058594 29.816406 266.324219 C 29.816406 260.589844 38.417969 260.589844 38.417969 266.324219 "/>
<path style=" stroke:none;fill-rule:nonzero;fill:rgb(100%,84.3%,0%);fill-opacity:1;" d="M 186.960938 335.140625 C 186.960938 340.875 178.355469 340.875 178.355469 335.140625 C 178.355469 329.40625 186.960938 329.40625 186.960938 335.140625 "/>
<path style=" stroke:none;fill-rule:nonzero;fill:rgb(100%,84.3%,0%);fill-opacity:1;" d="M 38.417969 317.933594 C 38.417969 323.667969 29.816406 323.667969 29.816406 317.933594 C 29.816406 312.199219 38.417969 312.199219 38.417969 317.933594 "/>
<path style=" stroke:none;fill-rule:nonzero;fill:rgb(100%,84.3%,0%);fill-opacity:1;" d="M 194.410156 451.269531 C 194.410156 457.003906 185.808594 457.003906 185.808594 451.269531 C 185.808594 445.535156 194.410156 445.535156 194.410156 451.269531 "/>
<path style=" stroke:none;fill-rule:nonzero;fill:rgb(100%,84.3%,0%);fill-opacity:1;" d="M 186.960938 180.300781 C 186.960938 186.035156 178.355469 186.035156 178.355469 180.300781 C 178.355469 174.566406 186.960938 174.566406 186.960938 180.300781 "/>
<path style=" stroke:none;fill-rule:nonzero;fill:rgb(100%,84.3%,0%);fill-opacity:1;" d="M 194.410156 132.988281 C 194.410156 138.722656 185.808594 138.722656 185.808594 132.988281 C 185.808594 127.253906 194.410156 127.253906 194.410156 132.988281 "/>
<path style=" stroke:none;fill-rule:nonzero;fill:rgb(100%,84.3%,0%);fill-opacity:1;" d="M 30.96875 322.238281 C 30.96875 327.972656 22.367188 327.972656 22.367188 322.238281 C 22.367188 316.503906 30.96875 316.503906 30.96875 322.238281 "/>
<path style=" stroke:none;fill-rule:nonzero;fill:rgb(100%,84.3%,0%);fill-opacity:1;" d="M 186.960938 421.160156 C 186.960938 426.894531 178.355469 426.894531 178.355469 421.160156 C 178.355469 415.425781 186.960938 415.425781 186.960938 421.160156 "/>
<path style=" stroke:none;fill-rule:nonzero;fill:rgb(100%,84.3%,0%);fill-opacity:1;" d="M 30.96875 219.011719 C 30.96875 224.746094 22.367188 224.746094 22.367188 219.011719 C 22.367188 213.277344 30.96875 213.277344 30.96875 219.011719 "/>
<path style=" stroke:none;fill-rule:nonzero;fill:rgb(100%,84.3%,0%);fill-opacity:1;" d="M 194.410156 176 C 194.410156 181.734375 185.808594 181.734375 185.808594 176 C 185.808594 170.265625 194.410156 170.265625 194.410156 176 "/>
<path style=" stroke:none;fill-rule:nonzero;fill:rgb(100%,84.3%,0%);fill-opacity:1;" d="M 38.417969 412.558594 C 38.417969 418.292969 29.816406 418.292969 29.816406 412.558594 C 29.816406 406.824219 38.417969 406.824219 38.417969 412.558594 "/>
<path style=" stroke:none;fill-rule:nonzero;fill:rgb(100%,84.3%,0%);fill-opacity:1;" d="M 38.417969 369.546875 C 38.417969 375.28125 29.816406 375.28125 29.816406 369.546875 C 29.816406 363.8125 38.417969 363.8125 38.417969 369.546875 "/>
<path style=" stroke:none;fill-rule:nonzero;fill:rgb(100%,84.3%,0%);fill-opacity:1;" d="M 90.324219 58.71875 C 90.324219 64.453125 81.722656 64.453125 81.722656 58.71875 C 81.722656 52.984375 90.324219 52.984375 90.324219 58.71875 "/>
<path style=" stroke:none;fill-rule:nonzero;fill:rgb(100%,84.3%,0%);fill-opacity:1;" d="M 186.960938 283.527344 C 186.960938 289.261719 178.355469 289.261719 178.355469 283.527344 C 178.355469 277.792969 186.960938 277.792969 186.960938 283.527344 "/>
<path style=" stroke:none;fill-rule:nonzero;fill:rgb(100%,84.3%,0%);fill-opacity:1;" d="M 194.410156 348.042969 C 194.410156 353.777344 185.808594 353.777344 185.808594 348.042969 C 185.808594 342.308594 194.410156 342.308594 194.410156 348.042969 "/>
<path style=" stroke:none;fill-rule:nonzero;fill:rgb(100%,84.3%,0%);fill-opacity:1;" d="M 38.417969 128.6875 C 38.417969 134.421875 29.816406 134.421875 29.816406 128.6875 C 29.816406 122.953125 38.417969 122.953125 38.417969 128.6875 "/>
<path style=" stroke:none;fill-rule:nonzero;fill:rgb(100%,84.3%,0%);fill-opacity:1;" d="M 194.410156 72.773438 C 194.410156 78.507812 185.808594 78.507812 185.808594 72.773438 C 185.808594 67.039062 194.410156 67.039062 194.410156 72.773438 "/>
<path style=" stroke:none;fill-rule:nonzero;fill:rgb(100%,84.3%,0%);fill-opacity:1;" d="M 194.410156 236.214844 C 194.410156 241.949219 185.808594 241.949219 185.808594 236.214844 C 185.808594 230.480469 194.410156 230.480469 194.410156 236.214844 "/>
<path style=" stroke:none;fill-rule:nonzero;fill:rgb(100%,84.3%,0%);fill-opacity:1;" d="M 30.96875 305.03125 C 30.96875 310.765625 22.367188 310.765625 22.367188 305.03125 C 22.367188 299.296875 30.96875 299.296875 30.96875 305.03125 "/>
<path style=" stroke:none;fill-rule:nonzero;fill:rgb(100%,84.3%,0%);fill-opacity:1;" d="M 98.925781 58.71875 C 98.925781 64.453125 90.324219 64.453125 90.324219 58.71875 C 90.324219 52.984375 98.925781 52.984375 98.925781 58.71875 "/>
<path style=" stroke:none;fill-rule:nonzero;fill:rgb(100%,84.3%,0%);fill-opacity:1;" d="M 38.417969 403.957031 C 38.417969 409.691406 29.816406 409.691406 29.816406 403.957031 C 29.816406 398.222656 38.417969 398.222656 38.417969 403.957031 "/>
<path style=" stroke:none;fill-rule:nonzero;fill:rgb(100%,84.3%,0%);fill-opacity:1;" d="M 30.96875 227.613281 C 30.96875 233.347656 22.367188 233.347656 22.367188 227.613281 C 22.367188 221.878906 30.96875 221.878906 30.96875 227.613281 "/>
<path style=" stroke:none;fill-rule:nonzero;fill:rgb(100%,84.3%,0%);fill-opacity:1;" d="M 47.3125 58.71875 C 47.3125 64.453125 38.710938 64.453125 38.710938 58.71875 C 38.710938 52.984375 47.3125 52.984375 47.3125 58.71875 "/>
<path style=" stroke:none;fill-rule:nonzero;fill:rgb(100%,84.3%,0%);fill-opacity:1;" d="M 38.417969 154.496094 C 38.417969 160.230469 29.816406 160.230469 29.816406 154.496094 C 29.816406 148.761719 38.417969 148.761719 38.417969 154.496094 "/>
<path style=" stroke:none;fill-rule:nonzero;fill:rgb(100%,84.3%,0%);fill-opacity:1;" d="M 64.515625 58.71875 C 64.515625 64.453125 55.914062 64.453125 55.914062 58.71875 C 55.914062 52.984375 64.515625 52.984375 64.515625 58.71875 "/>
<path style=" stroke:none;fill-rule:nonzero;fill:rgb(100%,84.3%,0%);fill-opacity:1;" d="M 30.96875 425.460938 C 30.96875 431.195312 22.367188 431.195312 22.367188 425.460938 C 22.367188 419.726562 30.96875 419.726562 30.96875 425.460938 "/>
<path style=" stroke:none;fill-rule:nonzero;fill:rgb(100%,84.3%,0%);fill-opacity:1;" d="M 30.96875 313.632812 C 30.96875 319.367188 22.367188 319.367188 22.367188 313.632812 C 22.367188 307.898438 30.96875 307.898438 30.96875 313.632812 "/>
<path style=" stroke:none;fill-rule:nonzero;fill:rgb(100%,84.3%,0%);fill-opacity:1;" d="M 42.148438 453.28125 C 42.148438 459.015625 33.546875 459.015625 33.546875 453.28125 C 33.546875 447.546875 42.148438 447.546875 42.148438 453.28125 "/>
<path style=" stroke:none;fill-rule:nonzero;fill:rgb(100%,84.3%,0%);fill-opacity:1;" d="M 38.417969 421.160156 C 38.417969 426.894531 29.816406 426.894531 29.816406 421.160156 C 29.816406 415.425781 38.417969 415.425781 38.417969 421.160156 "/>
<path style=" stroke:none;fill-rule:nonzero;fill:rgb(100%,84.3%,0%);fill-opacity:1;" d="M 149.675781 460.730469 C 149.675781 466.464844 141.074219 466.464844 141.074219 460.730469 C 141.074219 454.996094 149.675781 454.996094 149.675781 460.730469 "/>
<path style=" stroke:none;fill-rule:nonzero;fill:rgb(100%,84.3%,0%);fill-opacity:1;" d="M 43.011719 51.269531 C 43.011719 57.003906 34.410156 57.003906 34.410156 51.269531 C 34.410156 45.535156 43.011719 45.535156 43.011719 51.269531 "/>
<path style=" stroke:none;fill-rule:nonzero;fill:rgb(100%,84.3%,0%);fill-opacity:1;" d="M 72.257812 460.730469 C 72.257812 466.464844 63.65625 466.464844 63.65625 460.730469 C 63.65625 454.996094 72.257812 454.996094 72.257812 460.730469 "/>
<path style=" stroke:none;fill-rule:nonzero;fill:rgb(100%,84.3%,0%);fill-opacity:1;" d="M 116.128906 58.71875 C 116.128906 64.453125 107.527344 64.453125 107.527344 58.71875 C 107.527344 52.984375 116.128906 52.984375 116.128906 58.71875 "/>
<path style=" stroke:none;fill-rule:nonzero;fill:rgb(100%,84.3%,0%);fill-opacity:1;" d="M 30.96875 253.417969 C 30.96875 259.152344 22.367188 259.152344 22.367188 253.417969 C 22.367188 247.683594 30.96875 247.683594 30.96875 253.417969 "/>
<path style=" stroke:none;fill-rule:nonzero;fill:rgb(100%,84.3%,0%);fill-opacity:1;" d="M 30.96875 442.667969 C 30.96875 448.402344 22.367188 448.402344 22.367188 442.667969 C 22.367188 436.933594 30.96875 436.933594 30.96875 442.667969 "/>
<path style=" stroke:none;fill-rule:nonzero;fill:rgb(100%,84.3%,0%);fill-opacity:1;" d="M 194.410156 158.796875 C 194.410156 164.53125 185.808594 164.53125 185.808594 158.796875 C 185.808594 153.0625 194.410156 153.0625 194.410156 158.796875 "/>
<path style=" stroke:none;fill-rule:nonzero;fill:rgb(100%,84.3%,0%);fill-opacity:1;" d="M 186.960938 343.742188 C 186.960938 349.476562 178.355469 349.476562 178.355469 343.742188 C 178.355469 338.007812 186.960938 338.007812 186.960938 343.742188 "/>
<path style=" stroke:none;fill-rule:nonzero;fill:rgb(100%,84.3%,0%);fill-opacity:1;" d="M 30.96875 330.839844 C 30.96875 336.574219 22.367188 336.574219 22.367188 330.839844 C 22.367188 325.105469 30.96875 325.105469 30.96875 330.839844 "/>
<path style=" stroke:none;fill-rule:nonzero;fill:rgb(100%,84.3%,0%);fill-opacity:1;" d="M 186.960938 386.753906 C 186.960938 392.488281 178.355469 392.488281 178.355469 386.753906 C 178.355469 381.019531 186.960938 381.019531 186.960938 386.753906 "/>
<path style=" stroke:none;fill-rule:nonzero;fill:rgb(100%,84.3%,0%);fill-opacity:1;" d="M 93.761719 453.28125 C 93.761719 459.015625 85.160156 459.015625 85.160156 453.28125 C 85.160156 447.546875 93.761719 447.546875 93.761719 453.28125 "/>
<path style=" stroke:none;fill-rule:nonzero;fill:rgb(100%,84.3%,0%);fill-opacity:1;" d="M 128.171875 453.28125 C 128.171875 459.015625 119.570312 459.015625 119.570312 453.28125 C 119.570312 447.546875 128.171875 447.546875 128.171875 453.28125 "/>
<path style=" stroke:none;fill-rule:nonzero;fill:rgb(100%,84.3%,0%);fill-opacity:1;" d="M 30.96875 89.976562 C 30.96875 95.710938 22.367188 95.710938 22.367188 89.976562 C 22.367188 84.242188 30.96875 84.242188 30.96875 89.976562 "/>
<path style=" stroke:none;fill-rule:nonzero;fill:rgb(100%,84.3%,0%);fill-opacity:1;" d="M 59.355469 453.28125 C 59.355469 459.015625 50.753906 459.015625 50.753906 453.28125 C 50.753906 447.546875 59.355469 447.546875 59.355469 453.28125 "/>
<path style=" stroke:none;fill-rule:nonzero;fill:rgb(100%,84.3%,0%);fill-opacity:1;" d="M 194.410156 416.859375 C 194.410156 422.59375 185.808594 422.59375 185.808594 416.859375 C 185.808594 411.125 194.410156 411.125 194.410156 416.859375 "/>
<path style=" stroke:none;fill-rule:nonzero;fill:rgb(100%,84.3%,0%);fill-opacity:1;" d="M 85.160156 453.28125 C 85.160156 459.015625 76.558594 459.015625 76.558594 453.28125 C 76.558594 447.546875 85.160156 447.546875 85.160156 453.28125 "/>
<path style=" stroke:none;fill-rule:nonzero;fill:rgb(100%,84.3%,0%);fill-opacity:1;" d="M 63.65625 460.730469 C 63.65625 466.464844 55.054688 466.464844 55.054688 460.730469 C 55.054688 454.996094 63.65625 454.996094 63.65625 460.730469 "/>
<path style=" stroke:none;fill-rule:nonzero;fill:rgb(100%,84.3%,0%);fill-opacity:1;" d="M 30.96875 132.988281 C 30.96875 138.722656 22.367188 138.722656 22.367188 132.988281 C 22.367188 127.253906 30.96875 127.253906 30.96875 132.988281 "/>
<path style=" stroke:none;fill-rule:nonzero;fill:rgb(100%,84.3%,0%);fill-opacity:1;" d="M 30.96875 279.226562 C 30.96875 284.960938 22.367188 284.960938 22.367188 279.226562 C 22.367188 273.492188 30.96875 273.492188 30.96875 279.226562 "/>
<path style=" stroke:none;fill-rule:nonzero;fill:rgb(100%,84.3%,0%);fill-opacity:1;" d="M 76.558594 453.28125 C 76.558594 459.015625 67.957031 459.015625 67.957031 453.28125 C 67.957031 447.546875 76.558594 447.546875 76.558594 453.28125 "/>
<path style=" stroke:none;fill-rule:nonzero;fill:rgb(100%,84.3%,0%);fill-opacity:1;" d="M 150.539062 58.71875 C 150.539062 64.453125 141.9375 64.453125 141.9375 58.71875 C 141.9375 52.984375 150.539062 52.984375 150.539062 58.71875 "/>
<path style=" stroke:none;fill-rule:nonzero;fill:rgb(100%,84.3%,0%);fill-opacity:1;" d="M 30.96875 81.375 C 30.96875 87.109375 22.367188 87.109375 22.367188 81.375 C 22.367188 75.640625 30.96875 75.640625 30.96875 81.375 "/>
<path style=" stroke:none;fill-rule:nonzero;fill:rgb(100%,84.3%,0%);fill-opacity:1;" d="M 30.96875 64.171875 C 30.96875 69.90625 22.367188 69.90625 22.367188 64.171875 C 22.367188 58.4375 30.96875 58.4375 30.96875 64.171875 "/>
<path style=" stroke:none;fill-rule:nonzero;fill:rgb(100%,84.3%,0%);fill-opacity:1;" d="M 38.417969 77.074219 C 38.417969 82.808594 29.816406 82.808594 29.816406 77.074219 C 29.816406 71.339844 38.417969 71.339844 38.417969 77.074219 "/>
<path style=" stroke:none;fill-rule:nonzero;fill:rgb(100%,84.3%,0%);fill-opacity:1;" d="M 145.375 453.28125 C 145.375 459.015625 136.773438 459.015625 136.773438 453.28125 C 136.773438 447.546875 145.375 447.546875 145.375 453.28125 "/>
<path style=" stroke:none;fill-rule:nonzero;fill:rgb(100%,84.3%,0%);fill-opacity:1;" d="M 38.417969 352.34375 C 38.417969 358.078125 29.816406 358.078125 29.816406 352.34375 C 29.816406 346.609375 38.417969 346.609375 38.417969 352.34375 "/>
<path style=" stroke:none;fill-rule:nonzero;fill:rgb(100%,84.3%,0%);fill-opacity:1;" d="M 194.410156 442.667969 C 194.410156 448.402344 185.808594 448.402344 185.808594 442.667969 C 185.808594 436.933594 194.410156 436.933594 194.410156 442.667969 "/>
<path style=" stroke:none;fill-rule:nonzero;fill:rgb(100%,84.3%,0%);fill-opacity:1;" d="M 133.332031 58.71875 C 133.332031 64.453125 124.730469 64.453125 124.730469 58.71875 C 124.730469 52.984375 133.332031 52.984375 133.332031 58.71875 "/>
<path style=" stroke:none;fill-rule:nonzero;fill:rgb(100%,84.3%,0%);fill-opacity:1;" d="M 46.453125 460.730469 C 46.453125 466.464844 37.851562 466.464844 37.851562 460.730469 C 37.851562 454.996094 46.453125 454.996094 46.453125 460.730469 "/>
<path style=" stroke:none;fill-rule:nonzero;fill:rgb(100%,84.3%,0%);fill-opacity:1;" d="M 194.410156 253.417969 C 194.410156 259.152344 185.808594 259.152344 185.808594 253.417969 C 185.808594 247.683594 194.410156 247.683594 194.410156 253.417969 "/>
<path style=" stroke:none;fill-rule:nonzero;fill:rgb(100%,84.3%,0%);fill-opacity:1;" d="M 30.96875 382.453125 C 30.96875 388.1875 22.367188 388.1875 22.367188 382.453125 C 22.367188 376.71875 30.96875 376.71875 30.96875 382.453125 "/>
<path style=" stroke:none;fill-rule:nonzero;fill:rgb(100%,84.3%,0%);fill-opacity:1;" d="M 38.417969 360.945312 C 38.417969 366.679688 29.816406 366.679688 29.816406 360.945312 C 29.816406 355.210938 38.417969 355.210938 38.417969 360.945312 "/>
<path style=" stroke:none;fill-rule:nonzero;fill:rgb(100%,84.3%,0%);fill-opacity:1;" d="M 38.417969 343.742188 C 38.417969 349.476562 29.816406 349.476562 29.816406 343.742188 C 29.816406 338.007812 38.417969 338.007812 38.417969 343.742188 "/>
<path style=" stroke:none;fill-rule:nonzero;fill:rgb(100%,84.3%,0%);fill-opacity:1;" d="M 184.085938 460.730469 C 184.085938 466.464844 175.484375 466.464844 175.484375 460.730469 C 175.484375 454.996094 184.085938 454.996094 184.085938 460.730469 "/>
<path style=" stroke:none;fill-rule:nonzero;fill:rgb(100%,84.3%,0%);fill-opacity:1;" d="M 194.410156 305.03125 C 194.410156 310.765625 185.808594 310.765625 185.808594 305.03125 C 185.808594 299.296875 194.410156 299.296875 194.410156 305.03125 "/>
<path style=" stroke:none;fill-rule:nonzero;fill:rgb(100%,84.3%,0%);fill-opacity:1;" d="M 120.429688 51.269531 C 120.429688 57.003906 111.828125 57.003906 111.828125 51.269531 C 111.828125 45.535156 120.429688 45.535156 120.429688 51.269531 "/>
<path style=" stroke:none;fill-rule:nonzero;fill:rgb(100%,84.3%,0%);fill-opacity:1;" d="M 194.410156 313.632812 C 194.410156 319.367188 185.808594 319.367188 185.808594 313.632812 C 185.808594 307.898438 194.410156 307.898438 194.410156 313.632812 "/>
<path style=" stroke:none;fill-rule:nonzero;fill:rgb(100%,84.3%,0%);fill-opacity:1;" d="M 38.417969 274.925781 C 38.417969 280.660156 29.816406 280.660156 29.816406 274.925781 C 29.816406 269.191406 38.417969 269.191406 38.417969 274.925781 "/>
<path style=" stroke:none;fill-rule:nonzero;fill:rgb(100%,84.3%,0%);fill-opacity:1;" d="M 194.410156 89.976562 C 194.410156 95.710938 185.808594 95.710938 185.808594 89.976562 C 185.808594 84.242188 194.410156 84.242188 194.410156 89.976562 "/>
<path style=" stroke:none;fill-rule:nonzero;fill:rgb(100%,84.3%,0%);fill-opacity:1;" d="M 30.96875 339.441406 C 30.96875 345.175781 22.367188 345.175781 22.367188 339.441406 C 22.367188 333.707031 30.96875 333.707031 30.96875 339.441406 "/>
<path style=" stroke:none;fill-rule:nonzero;fill:rgb(100%,84.3%,0%);fill-opacity:1;" d="M 30.96875 236.214844 C 30.96875 241.949219 22.367188 241.949219 22.367188 236.214844 C 22.367188 230.480469 30.96875 230.480469 30.96875 236.214844 "/>
<path style=" stroke:none;fill-rule:nonzero;fill:rgb(100%,84.3%,0%);fill-opacity:1;" d="M 38.417969 206.109375 C 38.417969 211.84375 29.816406 211.84375 29.816406 206.109375 C 29.816406 200.375 38.417969 200.375 38.417969 206.109375 "/>
<path style=" stroke:none;fill-rule:nonzero;fill:rgb(100%,84.3%,0%);fill-opacity:1;" d="M 179.785156 453.28125 C 179.785156 459.015625 171.183594 459.015625 171.183594 453.28125 C 171.183594 447.546875 179.785156 447.546875 179.785156 453.28125 "/>
<path style=" stroke:none;fill-rule:nonzero;fill:rgb(100%,84.3%,0%);fill-opacity:1;" d="M 30.96875 201.804688 C 30.96875 207.539062 22.367188 207.539062 22.367188 201.804688 C 22.367188 196.070312 30.96875 196.070312 30.96875 201.804688 "/>
<path style=" stroke:none;fill-rule:nonzero;fill:rgb(100%,84.3%,0%);fill-opacity:1;" d="M 115.269531 460.730469 C 115.269531 466.464844 106.667969 466.464844 106.667969 460.730469 C 106.667969 454.996094 115.269531 454.996094 115.269531 460.730469 "/>
<path style=" stroke:none;fill-rule:nonzero;fill:rgb(100%,84.3%,0%);fill-opacity:1;" d="M 194.410156 210.410156 C 194.410156 216.144531 185.808594 216.144531 185.808594 210.410156 C 185.808594 204.675781 194.410156 204.675781 194.410156 210.410156 "/>
<path style=" stroke:none;fill-rule:nonzero;fill:rgb(100%,84.3%,0%);fill-opacity:1;" d="M 176.34375 58.71875 C 176.34375 64.453125 167.742188 64.453125 167.742188 58.71875 C 167.742188 52.984375 176.34375 52.984375 176.34375 58.71875 "/>
<path style=" stroke:none;fill-rule:nonzero;fill:rgb(100%,84.3%,0%);fill-opacity:1;" d="M 80.859375 460.730469 C 80.859375 466.464844 72.257812 466.464844 72.257812 460.730469 C 72.257812 454.996094 80.859375 454.996094 80.859375 460.730469 "/>
<path style=" stroke:none;fill-rule:nonzero;fill:rgb(100%,84.3%,0%);fill-opacity:1;" d="M 186.960938 326.539062 C 186.960938 332.273438 178.355469 332.273438 178.355469 326.539062 C 178.355469 320.804688 186.960938 320.804688 186.960938 326.539062 "/>
</g>
</svg>
