<?xml version="1.0" encoding="UTF-8"?>
<svg xmlns="http://www.w3.org/2000/svg" xmlns:xlink="http://www.w3.org/1999/xlink" width="512pt" height="512pt" viewBox="0 0 512 512" version="1.1">
<g id="surface176">
<path style=" stroke:none;fill-rule:nonzero;fill:rgb(26.7%,26.7%,26.7%);fill-opacity:1;" d="M 31.8125 0 L 480.191406 0 L 480.191406 512 L 31.8125 512 Z M 31.8125 0 "/>
<path style=" stroke:none;fill-rule:nonzero;fill:rgb(19.2%,38.8%,66.7%);fill-opacity:1;" d="M 69.175781 42.667969 L 442.824219 42.667969 L 442.824219 469.332031 L 69.175781 469.332031 Z M 69.175781 42.667969 "/>
<path style=" stroke:none;fill-rule:nonzero;fill:rgb(100%,100%,100%);fill-opacity:1;" d="M 513.515625 171.425781 C 513.515625 178.394531 507.863281 184.046875 500.890625 184.046875 C 493.921875 184.046875 488.269531 178.394531 488.269531 171.425781 C 488.269531 164.453125 493.921875 158.800781 500.890625 158.800781 C 507.863281 158.800781 513.515625 164.453125 513.515625 171.425781 "/>
<path style=" stroke:none;fill-rule:nonzero;fill:rgb(100%,100%,100%);fill-opacity:1;" d="M 526.136719 441.5625 C 526.136719 448.535156 520.488281 454.183594 513.515625 454.183594 C 506.542969 454.183594 500.890625 448.535156 500.890625 441.5625 C 500.890625 434.589844 506.542969 428.9375 513.515625 428.9375 C 520.488281 428.9375 526.136719 434.589844 526.136719 441.5625 "/>
<path style=" stroke:none;fill-rule:nonzero;fill:rgb(100%,100%,100%);fill-opacity:1;" d="M 109.570312 19.945312 C 109.570312 26.917969 103.917969 32.566406 96.945312 32.566406 C 89.976562 32.566406 84.324219 26.917969 84.324219 19.945312 C 84.324219 12.972656 89.976562 7.320312 96.945312 7.320312 C 103.917969 7.320312 109.570312 12.972656 109.570312 19.945312 "/>
<path style=" stroke:none;fill-rule:nonzero;fill:rgb(100%,100%,100%);fill-opacity:1;" d="M 341.839844 -10.351562 C 341.839844 -3.378906 336.1875 2.273438 329.214844 2.273438 C 322.242188 2.273438 316.589844 -3.378906 316.589844 -10.351562 C 316.589844 -17.324219 322.242188 -22.972656 329.214844 -22.972656 C 336.1875 -22.972656 341.839844 -17.324219 341.839844 -10.351562 "/>
<path style=" stroke:none;fill-rule:nonzero;fill:rgb(100%,100%,100%);fill-opacity:1;" d="M 495.84375 363.296875 C 495.84375 370.269531 490.191406 375.921875 483.21875 375.921875 C 476.246094 375.921875 470.597656 370.269531 470.597656 363.296875 C 470.597656 356.328125 476.246094 350.675781 483.21875 350.675781 C 490.191406 350.675781 495.84375 356.328125 495.84375 363.296875 "/>
<path style=" stroke:none;fill-rule:nonzero;fill:rgb(100%,100%,100%);fill-opacity:1;" d="M 528.664062 396.117188 C 528.664062 403.089844 523.011719 408.742188 516.039062 408.742188 C 509.066406 408.742188 503.414062 403.089844 503.414062 396.117188 C 503.414062 389.144531 509.066406 383.496094 516.039062 383.496094 C 523.011719 383.496094 528.664062 389.144531 528.664062 396.117188 "/>
<path style=" stroke:none;fill-rule:nonzero;fill:rgb(100%,84.3%,0%);fill-opacity:1;" d="M 107.046875 67.914062 C 107.046875 74.882812 101.394531 80.535156 94.421875 80.535156 C 87.449219 80.535156 81.796875 74.882812 81.796875 67.914062 C 81.796875 60.941406 87.449219 55.289062 94.421875 55.289062 C 101.394531 55.289062 107.046875 60.941406 107.046875 67.914062 "/>
<path style=" stroke:none;fill-rule:nonzero;fill:rgb(100%,84.3%,0%);fill-opacity:1;" d="M 334.265625 67.914062 C 334.265625 74.882812 328.613281 80.535156 321.640625 80.535156 C 314.667969 80.535156 309.019531 74.882812 309.019531 67.914062 C 309.019531 60.941406 314.667969 55.289062 321.640625 55.289062 C 328.613281 55.289062 334.265625 60.941406 334.265625 67.914062 "/>
<path style=" stroke:none;fill-rule:nonzero;fill:rgb(100%,84.3%,0%);fill-opacity:1;" d="M 132.292969 67.914062 C 132.292969 74.882812 126.640625 80.535156 119.667969 80.535156 C 112.699219 80.535156 107.046875 74.882812 107.046875 67.914062 C 107.046875 60.941406 112.699219 55.289062 119.667969 55.289062 C 126.640625 55.289062 132.292969 60.941406 132.292969 67.914062 "/>
<path style=" stroke:none;fill-rule:nonzero;fill:rgb(100%,84.3%,0%);fill-opacity:1;" d="M 157.539062 67.914062 C 157.539062 74.882812 151.886719 80.535156 144.914062 80.535156 C 137.941406 80.535156 132.292969 74.882812 132.292969 67.914062 C 132.292969 60.941406 137.941406 55.289062 144.914062 55.289062 C 151.886719 55.289062 157.539062 60.941406 157.539062 67.914062 "/>
<path style=" stroke:none;fill-rule:nonzero;fill:rgb(100%,84.3%,0%);fill-opacity:1;" d="M 359.511719 67.914062 C 359.511719 74.882812 353.859375 80.535156 346.886719 80.535156 C 339.917969 80.535156 334.265625 74.882812 334.265625 67.914062 C 334.265625 60.941406 339.917969 55.289062 346.886719 55.289062 C 353.859375 55.289062 359.511719 60.941406 359.511719 67.914062 "/>
</g>
</svg>
