<?xml version="1.0" encoding="UTF-8"?>
<svg xmlns="http://www.w3.org/2000/svg" xmlns:xlink="http://www.w3.org/1999/xlink" width="512pt" height="512pt" viewBox="0 0 512 512" version="1.1">
<g id="surface181">
<path style=" stroke:none;fill-rule:nonzero;fill:rgb(26.7%,26.7%,26.7%);fill-opacity:1;" d="M 0 -1707.886719 L 330.363281 -1707.886719 L 330.363281 512 L 0 512 Z M 0 -1707.886719 "/>
<path style=" stroke:none;fill-rule:nonzero;fill:rgb(19.2%,38.8%,66.7%);fill-opacity:1;" d="M 25.601562 42.667969 L 281.601562 42.667969 L 281.601562 469.332031 L 25.601562 469.332031 Z M 25.601562 42.667969 "/>
<path style=" stroke:none;fill-rule:nonzero;fill:rgb(100%,84.3%,0%);fill-opacity:1;" d="M 62.171875 67.046875 C 62.171875 73.78125 56.714844 79.238281 49.980469 79.238281 C 43.25 79.238281 37.789062 73.78125 37.789062 67.046875 C 37.789062 60.316406 43.25 54.859375 49.980469 54.859375 C 56.714844 54.859375 62.171875 60.316406 62.171875 67.046875 "/>
<path style=" stroke:none;fill-rule:nonzero;fill:rgb(100%,84.3%,0%);fill-opacity:1;" d="M 62.171875 420.570312 C 62.171875 427.304688 56.714844 432.761719 49.980469 432.761719 C 43.25 432.761719 37.789062 427.304688 37.789062 420.570312 C 37.789062 413.839844 43.25 408.378906 49.980469 408.378906 C 56.714844 408.378906 62.171875 413.839844 62.171875 420.570312 "/>
<path style=" stroke:none;fill-rule:nonzero;fill:rgb(100%,84.3%,0%);fill-opacity:1;" d="M 86.550781 67.046875 C 86.550781 73.78125 81.09375 79.238281 74.363281 79.238281 C 67.628906 79.238281 62.171875 73.78125 62.171875 67.046875 C 62.171875 60.316406 67.628906 54.859375 74.363281 54.859375 C 81.09375 54.859375 86.550781 60.316406 86.550781 67.046875 "/>
<path style=" stroke:none;fill-rule:nonzero;fill:rgb(100%,84.3%,0%);fill-opacity:1;" d="M 110.933594 67.046875 C 110.933594 73.78125 105.476562 79.238281 98.742188 79.238281 C 92.011719 79.238281 86.550781 73.78125 86.550781 67.046875 C 86.550781 60.316406 92.011719 54.859375 98.742188 54.859375 C 105.476562 54.859375 110.933594 60.316406 110.933594 67.046875 "/>
<path style=" stroke:none;fill-rule:nonzero;fill:rgb(100%,84.3%,0%);fill-opacity:1;" d="M 62.171875 396.191406 C 62.171875 402.921875 56.714844 408.378906 49.980469 408.378906 C 43.25 408.378906 37.789062 402.921875 37.789062 396.191406 C 37.789062 389.457031 43.25 384 49.980469 384 C 56.714844 384 62.171875 389.457031 62.171875 396.191406 "/>
</g>
</svg>
