<?xml version="1.0" encoding="UTF-8"?>
<svg xmlns="http://www.w3.org/2000/svg" xmlns:xlink="http://www.w3.org/1999/xlink" width="512pt" height="512pt" viewBox="0 0 512 512" version="1.1">
<g id="surface201">
<path style=" stroke:none;fill-rule:nonzero;fill:rgb(26.7%,26.7%,26.7%);fill-opacity:1;" d="M 206.890625 0 L 305.105469 0 L 305.105469 512 L 206.890625 512 Z M 206.890625 0 "/>
<path style=" stroke:none;fill-rule:nonzero;fill:rgb(19.2%,38.8%,66.7%);fill-opacity:1;" d="M 206.890625 46.546875 L 296.179688 46.546875 L 296.179688 512 L 206.890625 512 Z M 206.890625 46.546875 "/>
<path style=" stroke:none;fill-rule:nonzero;fill:rgb(100%,100%,100%);fill-opacity:1;" d="M 371 172.210938 C 371 174.964844 366.867188 174.964844 366.867188 172.210938 C 366.867188 169.453125 371 169.453125 371 172.210938 "/>
<path style=" stroke:none;fill-rule:nonzero;fill:rgb(100%,100%,100%);fill-opacity:1;" d="M 496.664062 296.222656 C 496.664062 298.976562 492.53125 298.976562 492.53125 296.222656 C 492.53125 293.464844 496.664062 293.464844 496.664062 296.222656 "/>
<path style=" stroke:none;fill-rule:nonzero;fill:rgb(100%,100%,100%);fill-opacity:1;" d="M 342.0625 378.894531 C 342.0625 381.652344 337.929688 381.652344 337.929688 378.894531 C 337.929688 376.140625 342.0625 376.140625 342.0625 378.894531 "/>
<path style=" stroke:none;fill-rule:nonzero;fill:rgb(100%,100%,100%);fill-opacity:1;" d="M 371 509.519531 C 371 512.277344 366.867188 512.277344 366.867188 509.519531 C 366.867188 506.765625 371 506.765625 371 509.519531 "/>
<path style=" stroke:none;fill-rule:nonzero;fill:rgb(100%,84.3%,0%);fill-opacity:1;" d="M 294.113281 343.757812 C 294.113281 346.515625 289.980469 346.515625 289.980469 343.757812 C 289.980469 341.003906 294.113281 341.003906 294.113281 343.757812 "/>
<path style=" stroke:none;fill-rule:nonzero;fill:rgb(100%,84.3%,0%);fill-opacity:1;" d="M 294.113281 372.695312 C 294.113281 375.449219 289.980469 375.449219 289.980469 372.695312 C 289.980469 369.9375 294.113281 369.9375 294.113281 372.695312 "/>
<path style=" stroke:none;fill-rule:nonzero;fill:rgb(100%,84.3%,0%);fill-opacity:1;" d="M 294.113281 376.828125 C 294.113281 379.582031 289.980469 379.582031 289.980469 376.828125 C 289.980469 374.070312 294.113281 374.070312 294.113281 376.828125 "/>
<path style=" stroke:none;fill-rule:nonzero;fill:rgb(100%,84.3%,0%);fill-opacity:1;" d="M 294.113281 327.222656 C 294.113281 329.980469 289.980469 329.980469 289.980469 327.222656 C 289.980469 324.46875 294.113281 324.46875 294.113281 327.222656 "/>
<path style=" stroke:none;fill-rule:nonzero;fill:rgb(100%,84.3%,0%);fill-opacity:1;" d="M 294.113281 401.628906 C 294.113281 404.386719 289.980469 404.386719 289.980469 401.628906 C 289.980469 398.875 294.113281 398.875 294.113281 401.628906 "/>
<path style=" stroke:none;fill-rule:nonzero;fill:rgb(100%,84.3%,0%);fill-opacity:1;" d="M 294.113281 422.300781 C 294.113281 425.054688 289.980469 425.054688 289.980469 422.300781 C 289.980469 419.542969 294.113281 419.542969 294.113281 422.300781 "/>
<path style=" stroke:none;fill-rule:nonzero;fill:rgb(100%,84.3%,0%);fill-opacity:1;" d="M 294.113281 451.234375 C 294.113281 453.992188 289.980469 453.992188 289.980469 451.234375 C 289.980469 448.480469 294.113281 448.480469 294.113281 451.234375 "/>
<path style=" stroke:none;fill-rule:nonzero;fill:rgb(100%,84.3%,0%);fill-opacity:1;" d="M 294.113281 414.03125 C 294.113281 416.785156 289.980469 416.785156 289.980469 414.03125 C 289.980469 411.273438 294.113281 411.273438 294.113281 414.03125 "/>
<path style=" stroke:none;fill-rule:nonzero;fill:rgb(100%,84.3%,0%);fill-opacity:1;" d="M 290.53125 378.894531 C 290.53125 381.652344 286.398438 381.652344 286.398438 378.894531 C 286.398438 376.140625 290.53125 376.140625 290.53125 378.894531 "/>
<path style=" stroke:none;fill-rule:nonzero;fill:rgb(100%,84.3%,0%);fill-opacity:1;" d="M 294.113281 447.101562 C 294.113281 449.855469 289.980469 449.855469 289.980469 447.101562 C 289.980469 444.34375 294.113281 444.34375 294.113281 447.101562 "/>
<path style=" stroke:none;fill-rule:nonzero;fill:rgb(100%,84.3%,0%);fill-opacity:1;" d="M 294.113281 335.492188 C 294.113281 338.246094 289.980469 338.246094 289.980469 335.492188 C 289.980469 332.734375 294.113281 332.734375 294.113281 335.492188 "/>
<path style=" stroke:none;fill-rule:nonzero;fill:rgb(100%,84.3%,0%);fill-opacity:1;" d="M 294.113281 368.5625 C 294.113281 371.316406 289.980469 371.316406 289.980469 368.5625 C 289.980469 365.804688 294.113281 365.804688 294.113281 368.5625 "/>
<path style=" stroke:none;fill-rule:nonzero;fill:rgb(100%,84.3%,0%);fill-opacity:1;" d="M 294.113281 397.496094 C 294.113281 400.253906 289.980469 400.253906 289.980469 397.496094 C 289.980469 394.742188 294.113281 394.742188 294.113281 397.496094 "/>
<path style=" stroke:none;fill-rule:nonzero;fill:rgb(100%,84.3%,0%);fill-opacity:1;" d="M 294.113281 318.957031 C 294.113281 321.710938 289.980469 321.710938 289.980469 318.957031 C 289.980469 316.199219 294.113281 316.199219 294.113281 318.957031 "/>
<path style=" stroke:none;fill-rule:nonzero;fill:rgb(100%,84.3%,0%);fill-opacity:1;" d="M 292.871094 50.679688 C 292.871094 53.433594 288.738281 53.433594 288.738281 50.679688 C 288.738281 47.921875 292.871094 47.921875 292.871094 50.679688 "/>
<path style=" stroke:none;fill-rule:nonzero;fill:rgb(100%,84.3%,0%);fill-opacity:1;" d="M 294.113281 438.835938 C 294.113281 441.589844 289.980469 441.589844 289.980469 438.835938 C 289.980469 436.078125 294.113281 436.078125 294.113281 438.835938 "/>
<path style=" stroke:none;fill-rule:nonzero;fill:rgb(100%,84.3%,0%);fill-opacity:1;" d="M 294.113281 331.355469 C 294.113281 334.113281 289.980469 334.113281 289.980469 331.355469 C 289.980469 328.601562 294.113281 328.601562 294.113281 331.355469 "/>
<path style=" stroke:none;fill-rule:nonzero;fill:rgb(100%,84.3%,0%);fill-opacity:1;" d="M 294.113281 409.898438 C 294.113281 412.652344 289.980469 412.652344 289.980469 409.898438 C 289.980469 407.140625 294.113281 407.140625 294.113281 409.898438 "/>
<path style=" stroke:none;fill-rule:nonzero;fill:rgb(100%,84.3%,0%);fill-opacity:1;" d="M 294.113281 364.425781 C 294.113281 367.183594 289.980469 367.183594 289.980469 364.425781 C 289.980469 361.671875 294.113281 361.671875 294.113281 364.425781 "/>
<path style=" stroke:none;fill-rule:nonzero;fill:rgb(100%,84.3%,0%);fill-opacity:1;" d="M 294.113281 360.292969 C 294.113281 363.046875 289.980469 363.046875 289.980469 360.292969 C 289.980469 357.539062 294.113281 357.539062 294.113281 360.292969 "/>
<path style=" stroke:none;fill-rule:nonzero;fill:rgb(100%,84.3%,0%);fill-opacity:1;" d="M 294.113281 459.503906 C 294.113281 462.257812 289.980469 462.257812 289.980469 459.503906 C 289.980469 456.746094 294.113281 456.746094 294.113281 459.503906 "/>
<path style=" stroke:none;fill-rule:nonzero;fill:rgb(100%,84.3%,0%);fill-opacity:1;" d="M 294.113281 339.625 C 294.113281 342.378906 289.980469 342.378906 289.980469 339.625 C 289.980469 336.871094 294.113281 336.871094 294.113281 339.625 "/>
<path style=" stroke:none;fill-rule:nonzero;fill:rgb(100%,84.3%,0%);fill-opacity:1;" d="M 294.113281 356.160156 C 294.113281 358.914062 289.980469 358.914062 289.980469 356.160156 C 289.980469 353.402344 294.113281 353.402344 294.113281 356.160156 "/>
<path style=" stroke:none;fill-rule:nonzero;fill:rgb(100%,84.3%,0%);fill-opacity:1;" d="M 294.113281 393.363281 C 294.113281 396.117188 289.980469 396.117188 289.980469 393.363281 C 289.980469 390.605469 294.113281 390.605469 294.113281 393.363281 "/>
<path style=" stroke:none;fill-rule:nonzero;fill:rgb(100%,84.3%,0%);fill-opacity:1;" d="M 294.113281 380.960938 C 294.113281 383.71875 289.980469 383.71875 289.980469 380.960938 C 289.980469 378.207031 294.113281 378.207031 294.113281 380.960938 "/>
<path style=" stroke:none;fill-rule:nonzero;fill:rgb(100%,84.3%,0%);fill-opacity:1;" d="M 294.113281 385.09375 C 294.113281 387.851562 289.980469 387.851562 289.980469 385.09375 C 289.980469 382.339844 294.113281 382.339844 294.113281 385.09375 "/>
<path style=" stroke:none;fill-rule:nonzero;fill:rgb(100%,84.3%,0%);fill-opacity:1;" d="M 294.113281 455.367188 C 294.113281 458.125 289.980469 458.125 289.980469 455.367188 C 289.980469 452.613281 294.113281 452.613281 294.113281 455.367188 "/>
<path style=" stroke:none;fill-rule:nonzero;fill:rgb(100%,84.3%,0%);fill-opacity:1;" d="M 294.113281 418.164062 C 294.113281 420.921875 289.980469 420.921875 289.980469 418.164062 C 289.980469 415.410156 294.113281 415.410156 294.113281 418.164062 "/>
<path style=" stroke:none;fill-rule:nonzero;fill:rgb(100%,84.3%,0%);fill-opacity:1;" d="M 294.113281 352.027344 C 294.113281 354.78125 289.980469 354.78125 289.980469 352.027344 C 289.980469 349.269531 294.113281 349.269531 294.113281 352.027344 "/>
<path style=" stroke:none;fill-rule:nonzero;fill:rgb(100%,84.3%,0%);fill-opacity:1;" d="M 294.113281 405.765625 C 294.113281 408.519531 289.980469 408.519531 289.980469 405.765625 C 289.980469 403.007812 294.113281 403.007812 294.113281 405.765625 "/>
<path style=" stroke:none;fill-rule:nonzero;fill:rgb(100%,84.3%,0%);fill-opacity:1;" d="M 294.113281 389.230469 C 294.113281 391.984375 289.980469 391.984375 289.980469 389.230469 C 289.980469 386.472656 294.113281 386.472656 294.113281 389.230469 "/>
<path style=" stroke:none;fill-rule:nonzero;fill:rgb(100%,84.3%,0%);fill-opacity:1;" d="M 294.113281 434.699219 C 294.113281 437.457031 289.980469 437.457031 289.980469 434.699219 C 289.980469 431.945312 294.113281 431.945312 294.113281 434.699219 "/>
<path style=" stroke:none;fill-rule:nonzero;fill:rgb(100%,84.3%,0%);fill-opacity:1;" d="M 294.113281 426.433594 C 294.113281 429.1875 289.980469 429.1875 289.980469 426.433594 C 289.980469 423.675781 294.113281 423.675781 294.113281 426.433594 "/>
<path style=" stroke:none;fill-rule:nonzero;fill:rgb(100%,84.3%,0%);fill-opacity:1;" d="M 294.113281 507.867188 C 294.113281 510.621094 289.980469 510.621094 289.980469 507.867188 C 289.980469 505.109375 294.113281 505.109375 294.113281 507.867188 "/>
<path style=" stroke:none;fill-rule:nonzero;fill:rgb(100%,84.3%,0%);fill-opacity:1;" d="M 294.113281 323.089844 C 294.113281 325.847656 289.980469 325.847656 289.980469 323.089844 C 289.980469 320.335938 294.113281 320.335938 294.113281 323.089844 "/>
<path style=" stroke:none;fill-rule:nonzero;fill:rgb(100%,84.3%,0%);fill-opacity:1;" d="M 294.113281 347.890625 C 294.113281 350.648438 289.980469 350.648438 289.980469 347.890625 C 289.980469 345.136719 294.113281 345.136719 294.113281 347.890625 "/>
<path style=" stroke:none;fill-rule:nonzero;fill:rgb(100%,84.3%,0%);fill-opacity:1;" d="M 294.113281 442.96875 C 294.113281 445.722656 289.980469 445.722656 289.980469 442.96875 C 289.980469 440.210938 294.113281 440.210938 294.113281 442.96875 "/>
<path style=" stroke:none;fill-rule:nonzero;fill:rgb(100%,84.3%,0%);fill-opacity:1;" d="M 294.113281 430.566406 C 294.113281 433.320312 289.980469 433.320312 289.980469 430.566406 C 289.980469 427.808594 294.113281 427.808594 294.113281 430.566406 "/>
</g>
</svg>
