<?xml version="1.0" encoding="UTF-8"?>
<svg xmlns="http://www.w3.org/2000/svg" xmlns:xlink="http://www.w3.org/1999/xlink" width="512pt" height="512pt" viewBox="0 0 512 512" version="1.1">
<g id="surface211">
<path style=" stroke:none;fill-rule:nonzero;fill:rgb(26.7%,26.7%,26.7%);fill-opacity:1;" d="M 85.992188 0 L 426.007812 0 L 426.007812 512 L 85.992188 512 Z M 85.992188 0 "/>
<path style=" stroke:none;fill-rule:nonzero;fill:rgb(19.2%,38.8%,66.7%);fill-opacity:1;" d="M 85.992188 46.546875 L 395.097656 46.546875 L 395.097656 512 L 85.992188 512 Z M 85.992188 46.546875 "/>
<path style=" stroke:none;fill-rule:nonzero;fill:rgb(100%,100%,100%);fill-opacity:1;" d="M 470.472656 178.304688 C 470.472656 179.636719 468.472656 179.636719 468.472656 178.304688 C 468.472656 176.972656 470.472656 176.972656 470.472656 178.304688 "/>
<path style=" stroke:none;fill-rule:nonzero;fill:rgb(100%,100%,100%);fill-opacity:1;" d="M 487.46875 505.203125 C 487.46875 506.535156 485.46875 506.535156 485.46875 505.203125 C 485.46875 503.867188 487.46875 503.867188 487.46875 505.203125 "/>
<path style=" stroke:none;fill-rule:nonzero;fill:rgb(100%,100%,100%);fill-opacity:1;" d="M 486.269531 434.023438 C 486.269531 435.355469 484.269531 435.355469 484.269531 434.023438 C 484.269531 432.691406 486.269531 432.691406 486.269531 434.023438 "/>
<path style=" stroke:none;fill-rule:nonzero;fill:rgb(100%,100%,100%);fill-opacity:1;" d="M 452.480469 342.253906 C 452.480469 343.585938 450.480469 343.585938 450.480469 342.253906 C 450.480469 340.921875 452.480469 340.921875 452.480469 342.253906 "/>
<path style=" stroke:none;fill-rule:nonzero;fill:rgb(100%,100%,100%);fill-opacity:1;" d="M 399.09375 98.527344 C 399.09375 99.863281 397.097656 99.863281 397.097656 98.527344 C 397.097656 97.195312 399.09375 97.195312 399.09375 98.527344 "/>
<path style=" stroke:none;fill-rule:nonzero;fill:rgb(100%,100%,100%);fill-opacity:1;" d="M 88.394531 11.355469 C 88.394531 12.6875 86.394531 12.6875 86.394531 11.355469 C 86.394531 10.023438 88.394531 10.023438 88.394531 11.355469 "/>
<path style=" stroke:none;fill-rule:nonzero;fill:rgb(100%,100%,100%);fill-opacity:1;" d="M 490.265625 106.726562 C 490.265625 108.058594 488.265625 108.058594 488.265625 106.726562 C 488.265625 105.394531 490.265625 105.394531 490.265625 106.726562 "/>
<path style=" stroke:none;fill-rule:nonzero;fill:rgb(100%,100%,100%);fill-opacity:1;" d="M 465.273438 198.496094 C 465.273438 199.832031 463.273438 199.832031 463.273438 198.496094 C 463.273438 197.164062 465.273438 197.164062 465.273438 198.496094 "/>
<path style=" stroke:none;fill-rule:nonzero;fill:rgb(100%,100%,100%);fill-opacity:1;" d="M 425.488281 93.730469 C 425.488281 95.0625 423.488281 95.0625 423.488281 93.730469 C 423.488281 92.398438 425.488281 92.398438 425.488281 93.730469 "/>
<path style=" stroke:none;fill-rule:nonzero;fill:rgb(100%,100%,100%);fill-opacity:1;" d="M 424.886719 289.070312 C 424.886719 290.402344 422.886719 290.402344 422.886719 289.070312 C 422.886719 287.738281 424.886719 287.738281 424.886719 289.070312 "/>
<path style=" stroke:none;fill-rule:nonzero;fill:rgb(100%,100%,100%);fill-opacity:1;" d="M 293.925781 25.351562 C 293.925781 26.683594 291.929688 26.683594 291.929688 25.351562 C 291.929688 24.019531 293.925781 24.019531 293.925781 25.351562 "/>
<path style=" stroke:none;fill-rule:nonzero;fill:rgb(100%,100%,100%);fill-opacity:1;" d="M 211.554688 12.355469 C 211.554688 13.6875 209.554688 13.6875 209.554688 12.355469 C 209.554688 11.023438 211.554688 11.023438 211.554688 12.355469 "/>
<path style=" stroke:none;fill-rule:nonzero;fill:rgb(100%,100%,100%);fill-opacity:1;" d="M 227.949219 21.753906 C 227.949219 23.085938 225.949219 23.085938 225.949219 21.753906 C 225.949219 20.421875 227.949219 20.421875 227.949219 21.753906 "/>
<path style=" stroke:none;fill-rule:nonzero;fill:rgb(100%,100%,100%);fill-opacity:1;" d="M 407.691406 420.828125 C 407.691406 422.160156 405.691406 422.160156 405.691406 420.828125 C 405.691406 419.496094 407.691406 419.496094 407.691406 420.828125 "/>
<path style=" stroke:none;fill-rule:nonzero;fill:rgb(100%,84.3%,0%);fill-opacity:1;" d="M 394.097656 98.328125 C 394.097656 99.660156 392.097656 99.660156 392.097656 98.328125 C 392.097656 96.996094 394.097656 96.996094 394.097656 98.328125 "/>
<path style=" stroke:none;fill-rule:nonzero;fill:rgb(100%,84.3%,0%);fill-opacity:1;" d="M 394.097656 106.328125 C 394.097656 107.660156 392.097656 107.660156 392.097656 106.328125 C 392.097656 104.992188 394.097656 104.992188 394.097656 106.328125 "/>
<path style=" stroke:none;fill-rule:nonzero;fill:rgb(100%,84.3%,0%);fill-opacity:1;" d="M 394.097656 86.332031 C 394.097656 87.664062 392.097656 87.664062 392.097656 86.332031 C 392.097656 85 394.097656 85 394.097656 86.332031 "/>
<path style=" stroke:none;fill-rule:nonzero;fill:rgb(100%,84.3%,0%);fill-opacity:1;" d="M 394.097656 100.328125 C 394.097656 101.660156 392.097656 101.660156 392.097656 100.328125 C 392.097656 98.996094 394.097656 98.996094 394.097656 100.328125 "/>
<path style=" stroke:none;fill-rule:nonzero;fill:rgb(100%,84.3%,0%);fill-opacity:1;" d="M 394.097656 96.328125 C 394.097656 97.664062 392.097656 97.664062 392.097656 96.328125 C 392.097656 94.996094 394.097656 94.996094 394.097656 96.328125 "/>
<path style=" stroke:none;fill-rule:nonzero;fill:rgb(100%,84.3%,0%);fill-opacity:1;" d="M 221.949219 48.546875 C 221.949219 49.878906 219.953125 49.878906 219.953125 48.546875 C 219.953125 47.210938 221.949219 47.210938 221.949219 48.546875 "/>
<path style=" stroke:none;fill-rule:nonzero;fill:rgb(100%,84.3%,0%);fill-opacity:1;" d="M 394.097656 82.335938 C 394.097656 83.667969 392.097656 83.667969 392.097656 82.335938 C 392.097656 81 394.097656 81 394.097656 82.335938 "/>
<path style=" stroke:none;fill-rule:nonzero;fill:rgb(100%,84.3%,0%);fill-opacity:1;" d="M 394.097656 102.328125 C 394.097656 103.660156 392.097656 103.660156 392.097656 102.328125 C 392.097656 100.996094 394.097656 100.996094 394.097656 102.328125 "/>
<path style=" stroke:none;fill-rule:nonzero;fill:rgb(100%,84.3%,0%);fill-opacity:1;" d="M 394.097656 90.332031 C 394.097656 91.664062 392.097656 91.664062 392.097656 90.332031 C 392.097656 89 394.097656 89 394.097656 90.332031 "/>
<path style=" stroke:none;fill-rule:nonzero;fill:rgb(100%,84.3%,0%);fill-opacity:1;" d="M 394.097656 88.332031 C 394.097656 89.664062 392.097656 89.664062 392.097656 88.332031 C 392.097656 87 394.097656 87 394.097656 88.332031 "/>
<path style=" stroke:none;fill-rule:nonzero;fill:rgb(100%,84.3%,0%);fill-opacity:1;" d="M 394.097656 94.332031 C 394.097656 95.664062 392.097656 95.664062 392.097656 94.332031 C 392.097656 93 394.097656 93 394.097656 94.332031 "/>
<path style=" stroke:none;fill-rule:nonzero;fill:rgb(100%,84.3%,0%);fill-opacity:1;" d="M 219.953125 48.546875 C 219.953125 49.878906 217.953125 49.878906 217.953125 48.546875 C 217.953125 47.210938 219.953125 47.210938 219.953125 48.546875 "/>
<path style=" stroke:none;fill-rule:nonzero;fill:rgb(100%,84.3%,0%);fill-opacity:1;" d="M 394.097656 84.335938 C 394.097656 85.667969 392.097656 85.667969 392.097656 84.335938 C 392.097656 83 394.097656 83 394.097656 84.335938 "/>
<path style=" stroke:none;fill-rule:nonzero;fill:rgb(100%,84.3%,0%);fill-opacity:1;" d="M 394.097656 104.328125 C 394.097656 105.660156 392.097656 105.660156 392.097656 104.328125 C 392.097656 102.992188 394.097656 102.992188 394.097656 104.328125 "/>
<path style=" stroke:none;fill-rule:nonzero;fill:rgb(100%,84.3%,0%);fill-opacity:1;" d="M 223.949219 48.546875 C 223.949219 49.878906 221.949219 49.878906 221.949219 48.546875 C 221.949219 47.210938 223.949219 47.210938 223.949219 48.546875 "/>
<path style=" stroke:none;fill-rule:nonzero;fill:rgb(100%,84.3%,0%);fill-opacity:1;" d="M 393.898438 48.546875 C 393.898438 49.878906 391.898438 49.878906 391.898438 48.546875 C 391.898438 47.210938 393.898438 47.210938 393.898438 48.546875 "/>
<path style=" stroke:none;fill-rule:nonzero;fill:rgb(100%,84.3%,0%);fill-opacity:1;" d="M 217.953125 48.546875 C 217.953125 49.878906 215.953125 49.878906 215.953125 48.546875 C 215.953125 47.210938 217.953125 47.210938 217.953125 48.546875 "/>
<path style=" stroke:none;fill-rule:nonzero;fill:rgb(100%,84.3%,0%);fill-opacity:1;" d="M 394.097656 92.332031 C 394.097656 93.664062 392.097656 93.664062 392.097656 92.332031 C 392.097656 91 394.097656 91 394.097656 92.332031 "/>
<path style=" stroke:none;fill-rule:nonzero;fill:rgb(100%,84.3%,0%);fill-opacity:1;" d="M 215.953125 48.546875 C 215.953125 49.878906 213.953125 49.878906 213.953125 48.546875 C 213.953125 47.210938 215.953125 47.210938 215.953125 48.546875 "/>
</g>
</svg>
