<?xml version="1.0" encoding="UTF-8"?>
<svg xmlns="http://www.w3.org/2000/svg" xmlns:xlink="http://www.w3.org/1999/xlink" width="512pt" height="512pt" viewBox="0 0 512 512" version="1.1">
<g id="surface216">
<path style=" stroke:none;fill-rule:nonzero;fill:rgb(26.7%,26.7%,26.7%);fill-opacity:1;" d="M 0 62.160156 L 512 62.160156 L 512 449.839844 L 0 449.839844 Z M 0 62.160156 "/>
<path style=" stroke:none;fill-rule:nonzero;fill:rgb(19.2%,38.8%,66.7%);fill-opacity:1;" d="M 0 97.402344 L 465.453125 97.402344 L 465.453125 449.839844 L 0 449.839844 Z M 0 97.402344 "/>
<path style=" stroke:none;fill-rule:nonzero;fill:rgb(100%,100%,100%);fill-opacity:1;" d="M 374 30.484375 C 374 35.441406 366.5625 35.441406 366.5625 30.484375 C 366.5625 25.527344 374 25.527344 374 30.484375 "/>
<path style=" stroke:none;fill-rule:nonzero;fill:rgb(100%,100%,100%);fill-opacity:1;" d="M 479.582031 247.597656 C 479.582031 252.554688 472.144531 252.554688 472.144531 247.597656 C 472.144531 242.640625 479.582031 242.640625 479.582031 247.597656 "/>
<path style=" stroke:none;fill-rule:nonzero;fill:rgb(100%,100%,100%);fill-opacity:1;" d="M 17.101562 26.765625 C 17.101562 31.722656 9.667969 31.722656 9.667969 26.765625 C 9.667969 21.808594 17.101562 21.808594 17.101562 26.765625 "/>
<path style=" stroke:none;fill-rule:nonzero;fill:rgb(100%,100%,100%);fill-opacity:1;" d="M 361.359375 58.738281 C 361.359375 63.695312 353.925781 63.695312 353.925781 58.738281 C 353.925781 53.78125 361.359375 53.78125 361.359375 58.738281 "/>
<path style=" stroke:none;fill-rule:nonzero;fill:rgb(100%,84.3%,0%);fill-opacity:1;" d="M 302.621094 104.839844 C 302.621094 109.796875 295.183594 109.796875 295.183594 104.839844 C 295.183594 99.882812 302.621094 99.882812 302.621094 104.839844 "/>
<path style=" stroke:none;fill-rule:nonzero;fill:rgb(100%,84.3%,0%);fill-opacity:1;" d="M 461.738281 251.316406 C 461.738281 256.273438 454.300781 256.273438 454.300781 251.316406 C 454.300781 246.359375 461.738281 246.359375 461.738281 251.316406 "/>
<path style=" stroke:none;fill-rule:nonzero;fill:rgb(100%,84.3%,0%);fill-opacity:1;" d="M 458.761719 104.839844 C 458.761719 109.796875 451.328125 109.796875 451.328125 104.839844 C 451.328125 99.882812 458.761719 99.882812 458.761719 104.839844 "/>
<path style=" stroke:none;fill-rule:nonzero;fill:rgb(100%,84.3%,0%);fill-opacity:1;" d="M 461.738281 154.65625 C 461.738281 159.613281 454.300781 159.613281 454.300781 154.65625 C 454.300781 149.699219 461.738281 149.699219 461.738281 154.65625 "/>
<path style=" stroke:none;fill-rule:nonzero;fill:rgb(100%,84.3%,0%);fill-opacity:1;" d="M 461.738281 243.878906 C 461.738281 248.835938 454.300781 248.835938 454.300781 243.878906 C 454.300781 238.921875 461.738281 238.921875 461.738281 243.878906 "/>
<path style=" stroke:none;fill-rule:nonzero;fill:rgb(100%,84.3%,0%);fill-opacity:1;" d="M 461.738281 258.75 C 461.738281 263.707031 454.300781 263.707031 454.300781 258.75 C 454.300781 253.792969 461.738281 253.792969 461.738281 258.75 "/>
<path style=" stroke:none;fill-rule:nonzero;fill:rgb(100%,84.3%,0%);fill-opacity:1;" d="M 461.738281 236.445312 C 461.738281 241.402344 454.300781 241.402344 454.300781 236.445312 C 454.300781 231.488281 461.738281 231.488281 461.738281 236.445312 "/>
<path style=" stroke:none;fill-rule:nonzero;fill:rgb(100%,84.3%,0%);fill-opacity:1;" d="M 310.054688 104.839844 C 310.054688 109.796875 302.621094 109.796875 302.621094 104.839844 C 302.621094 99.882812 310.054688 99.882812 310.054688 104.839844 "/>
<path style=" stroke:none;fill-rule:nonzero;fill:rgb(100%,84.3%,0%);fill-opacity:1;" d="M 362.101562 104.839844 C 362.101562 109.796875 354.667969 109.796875 354.667969 104.839844 C 354.667969 99.882812 362.101562 99.882812 362.101562 104.839844 "/>
<path style=" stroke:none;fill-rule:nonzero;fill:rgb(100%,84.3%,0%);fill-opacity:1;" d="M 369.539062 104.839844 C 369.539062 109.796875 362.101562 109.796875 362.101562 104.839844 C 362.101562 99.882812 369.539062 99.882812 369.539062 104.839844 "/>
<path style=" stroke:none;fill-rule:nonzero;fill:rgb(100%,84.3%,0%);fill-opacity:1;" d="M 354.667969 104.839844 C 354.667969 109.796875 347.230469 109.796875 347.230469 104.839844 C 347.230469 99.882812 354.667969 99.882812 354.667969 104.839844 "/>
<path style=" stroke:none;fill-rule:nonzero;fill:rgb(100%,84.3%,0%);fill-opacity:1;" d="M 376.972656 104.839844 C 376.972656 109.796875 369.539062 109.796875 369.539062 104.839844 C 369.539062 99.882812 376.972656 99.882812 376.972656 104.839844 "/>
<path style=" stroke:none;fill-rule:nonzero;fill:rgb(100%,84.3%,0%);fill-opacity:1;" d="M 347.230469 104.839844 C 347.230469 109.796875 339.796875 109.796875 339.796875 104.839844 C 339.796875 99.882812 347.230469 99.882812 347.230469 104.839844 "/>
<path style=" stroke:none;fill-rule:nonzero;fill:rgb(100%,84.3%,0%);fill-opacity:1;" d="M 461.738281 117.480469 C 461.738281 122.4375 454.300781 122.4375 454.300781 117.480469 C 454.300781 112.523438 461.738281 112.523438 461.738281 117.480469 "/>
<path style=" stroke:none;fill-rule:nonzero;fill:rgb(100%,84.3%,0%);fill-opacity:1;" d="M 384.410156 104.839844 C 384.410156 109.796875 376.972656 109.796875 376.972656 104.839844 C 376.972656 99.882812 384.410156 99.882812 384.410156 104.839844 "/>
<path style=" stroke:none;fill-rule:nonzero;fill:rgb(100%,84.3%,0%);fill-opacity:1;" d="M 461.738281 147.21875 C 461.738281 152.175781 454.300781 152.175781 454.300781 147.21875 C 454.300781 142.261719 461.738281 142.261719 461.738281 147.21875 "/>
<path style=" stroke:none;fill-rule:nonzero;fill:rgb(100%,84.3%,0%);fill-opacity:1;" d="M 339.796875 104.839844 C 339.796875 109.796875 332.359375 109.796875 332.359375 104.839844 C 332.359375 99.882812 339.796875 99.882812 339.796875 104.839844 "/>
<path style=" stroke:none;fill-rule:nonzero;fill:rgb(100%,84.3%,0%);fill-opacity:1;" d="M 421.585938 104.839844 C 421.585938 109.796875 414.148438 109.796875 414.148438 104.839844 C 414.148438 99.882812 421.585938 99.882812 421.585938 104.839844 "/>
<path style=" stroke:none;fill-rule:nonzero;fill:rgb(100%,84.3%,0%);fill-opacity:1;" d="M 455.296875 247.597656 C 455.296875 252.554688 447.863281 252.554688 447.863281 247.597656 C 447.863281 242.640625 455.296875 242.640625 455.296875 247.597656 "/>
<path style=" stroke:none;fill-rule:nonzero;fill:rgb(100%,84.3%,0%);fill-opacity:1;" d="M 391.84375 104.839844 C 391.84375 109.796875 384.410156 109.796875 384.410156 104.839844 C 384.410156 99.882812 391.84375 99.882812 391.84375 104.839844 "/>
<path style=" stroke:none;fill-rule:nonzero;fill:rgb(100%,84.3%,0%);fill-opacity:1;" d="M 332.363281 104.839844 C 332.363281 109.796875 324.925781 109.796875 324.925781 104.839844 C 324.925781 99.882812 332.363281 99.882812 332.363281 104.839844 "/>
<path style=" stroke:none;fill-rule:nonzero;fill:rgb(100%,84.3%,0%);fill-opacity:1;" d="M 461.738281 124.914062 C 461.738281 129.871094 454.300781 129.871094 454.300781 124.914062 C 454.300781 119.957031 461.738281 119.957031 461.738281 124.914062 "/>
<path style=" stroke:none;fill-rule:nonzero;fill:rgb(100%,84.3%,0%);fill-opacity:1;" d="M 399.28125 104.839844 C 399.28125 109.796875 391.84375 109.796875 391.84375 104.839844 C 391.84375 99.882812 399.28125 99.882812 399.28125 104.839844 "/>
<path style=" stroke:none;fill-rule:nonzero;fill:rgb(100%,84.3%,0%);fill-opacity:1;" d="M 324.925781 104.839844 C 324.925781 109.796875 317.492188 109.796875 317.492188 104.839844 C 317.492188 99.882812 324.925781 99.882812 324.925781 104.839844 "/>
<path style=" stroke:none;fill-rule:nonzero;fill:rgb(100%,84.3%,0%);fill-opacity:1;" d="M 406.714844 104.839844 C 406.714844 109.796875 399.28125 109.796875 399.28125 104.839844 C 399.28125 99.882812 406.714844 99.882812 406.714844 104.839844 "/>
<path style=" stroke:none;fill-rule:nonzero;fill:rgb(100%,84.3%,0%);fill-opacity:1;" d="M 461.738281 266.1875 C 461.738281 271.144531 454.300781 271.144531 454.300781 266.1875 C 454.300781 261.230469 461.738281 261.230469 461.738281 266.1875 "/>
<path style=" stroke:none;fill-rule:nonzero;fill:rgb(100%,84.3%,0%);fill-opacity:1;" d="M 461.738281 229.011719 C 461.738281 233.96875 454.300781 233.96875 454.300781 229.011719 C 454.300781 224.054688 461.738281 224.054688 461.738281 229.011719 "/>
<path style=" stroke:none;fill-rule:nonzero;fill:rgb(100%,84.3%,0%);fill-opacity:1;" d="M 317.492188 104.839844 C 317.492188 109.796875 310.054688 109.796875 310.054688 104.839844 C 310.054688 99.882812 317.492188 99.882812 317.492188 104.839844 "/>
<path style=" stroke:none;fill-rule:nonzero;fill:rgb(100%,84.3%,0%);fill-opacity:1;" d="M 461.738281 132.351562 C 461.738281 137.308594 454.300781 137.308594 454.300781 132.351562 C 454.300781 127.394531 461.738281 127.394531 461.738281 132.351562 "/>
<path style=" stroke:none;fill-rule:nonzero;fill:rgb(100%,84.3%,0%);fill-opacity:1;" d="M 461.738281 139.785156 C 461.738281 144.742188 454.300781 144.742188 454.300781 139.785156 C 454.300781 134.828125 461.738281 134.828125 461.738281 139.785156 "/>
<path style=" stroke:none;fill-rule:nonzero;fill:rgb(100%,84.3%,0%);fill-opacity:1;" d="M 461.738281 273.621094 C 461.738281 278.578125 454.300781 278.578125 454.300781 273.621094 C 454.300781 268.664062 461.738281 268.664062 461.738281 273.621094 "/>
<path style=" stroke:none;fill-rule:nonzero;fill:rgb(100%,84.3%,0%);fill-opacity:1;" d="M 461.738281 221.574219 C 461.738281 226.53125 454.300781 226.53125 454.300781 221.574219 C 454.300781 216.617188 461.738281 216.617188 461.738281 221.574219 "/>
<path style=" stroke:none;fill-rule:nonzero;fill:rgb(100%,84.3%,0%);fill-opacity:1;" d="M 414.152344 104.839844 C 414.152344 109.796875 406.714844 109.796875 406.714844 104.839844 C 406.714844 99.882812 414.152344 99.882812 414.152344 104.839844 "/>
<path style=" stroke:none;fill-rule:nonzero;fill:rgb(100%,84.3%,0%);fill-opacity:1;" d="M 295.183594 104.839844 C 295.183594 109.796875 287.75 109.796875 287.75 104.839844 C 287.75 99.882812 295.183594 99.882812 295.183594 104.839844 "/>
</g>
</svg>
