<?xml version="1.0" encoding="UTF-8"?>
<svg xmlns="http://www.w3.org/2000/svg" xmlns:xlink="http://www.w3.org/1999/xlink" width="512pt" height="512pt" viewBox="0 0 512 512" version="1.1">
<g id="surface226">
<path style=" stroke:none;fill-rule:nonzero;fill:rgb(26.7%,26.7%,26.7%);fill-opacity:1;" d="M 219.601562 0 L 292.398438 0 L 292.398438 512 L 219.601562 512 Z M 219.601562 0 "/>
<path style=" stroke:none;fill-rule:nonzero;fill:rgb(19.2%,38.8%,66.7%);fill-opacity:1;" d="M 225.667969 42.667969 L 286.332031 42.667969 L 286.332031 469.332031 L 225.667969 469.332031 Z M 225.667969 42.667969 "/>
<path style=" stroke:none;fill-rule:nonzero;fill:rgb(100%,100%,100%);fill-opacity:1;" d="M 196.507812 262.535156 C 196.507812 264.769531 193.15625 264.769531 193.15625 262.535156 C 193.15625 260.300781 196.507812 260.300781 196.507812 262.535156 "/>
<path style=" stroke:none;fill-rule:nonzero;fill:rgb(100%,100%,100%);fill-opacity:1;" d="M 285.660156 22.222656 C 285.660156 24.457031 282.308594 24.457031 282.308594 22.222656 C 282.308594 19.988281 285.660156 19.988281 285.660156 22.222656 "/>
<path style=" stroke:none;fill-rule:nonzero;fill:rgb(100%,100%,100%);fill-opacity:1;" d="M 157.964844 72.160156 C 157.964844 74.394531 154.613281 74.394531 154.613281 72.160156 C 154.613281 69.925781 157.964844 69.925781 157.964844 72.160156 "/>
<path style=" stroke:none;fill-rule:nonzero;fill:rgb(100%,100%,100%);fill-opacity:1;" d="M 108.359375 44.34375 C 108.359375 46.578125 105.007812 46.578125 105.007812 44.34375 C 105.007812 42.109375 108.359375 42.109375 108.359375 44.34375 "/>
<path style=" stroke:none;fill-rule:nonzero;fill:rgb(100%,100%,100%);fill-opacity:1;" d="M 180.417969 181.425781 C 180.417969 183.660156 177.066406 183.660156 177.066406 181.425781 C 177.066406 179.191406 180.417969 179.191406 180.417969 181.425781 "/>
<path style=" stroke:none;fill-rule:nonzero;fill:rgb(100%,100%,100%);fill-opacity:1;" d="M 157.628906 106.347656 C 157.628906 108.582031 154.277344 108.582031 154.277344 106.347656 C 154.277344 104.113281 157.628906 104.113281 157.628906 106.347656 "/>
<path style=" stroke:none;fill-rule:nonzero;fill:rgb(100%,100%,100%);fill-opacity:1;" d="M 83.222656 500.839844 C 83.222656 503.074219 79.871094 503.074219 79.871094 500.839844 C 79.871094 498.605469 83.222656 498.605469 83.222656 500.839844 "/>
<path style=" stroke:none;fill-rule:nonzero;fill:rgb(100%,100%,100%);fill-opacity:1;" d="M 50.375 318.171875 C 50.375 320.40625 47.023438 320.40625 47.023438 318.171875 C 47.023438 315.9375 50.375 315.9375 50.375 318.171875 "/>
<path style=" stroke:none;fill-rule:nonzero;fill:rgb(100%,100%,100%);fill-opacity:1;" d="M 54.398438 230.023438 C 54.398438 232.257812 51.046875 232.257812 51.046875 230.023438 C 51.046875 227.789062 54.398438 227.789062 54.398438 230.023438 "/>
<path style=" stroke:none;fill-rule:nonzero;fill:rgb(100%,100%,100%);fill-opacity:1;" d="M 214.941406 110.703125 C 214.941406 112.9375 211.589844 112.9375 211.589844 110.703125 C 211.589844 108.46875 214.941406 108.46875 214.941406 110.703125 "/>
<path style=" stroke:none;fill-rule:nonzero;fill:rgb(100%,100%,100%);fill-opacity:1;" d="M 82.550781 140.199219 C 82.550781 142.433594 79.199219 142.433594 79.199219 140.199219 C 79.199219 137.964844 82.550781 137.964844 82.550781 140.199219 "/>
<path style=" stroke:none;fill-rule:nonzero;fill:rgb(100%,100%,100%);fill-opacity:1;" d="M 4.121094 52.050781 C 4.121094 54.285156 0.769531 54.285156 0.769531 52.050781 C 0.769531 49.816406 4.121094 49.816406 4.121094 52.050781 "/>
<path style=" stroke:none;fill-rule:nonzero;fill:rgb(100%,100%,100%);fill-opacity:1;" d="M 356.046875 278.960938 C 356.046875 281.195312 352.695312 281.195312 352.695312 278.960938 C 352.695312 276.722656 356.046875 276.722656 356.046875 278.960938 "/>
<path style=" stroke:none;fill-rule:nonzero;fill:rgb(100%,100%,100%);fill-opacity:1;" d="M 184.105469 417.382812 C 184.105469 419.617188 180.753906 419.617188 180.753906 417.382812 C 180.753906 415.148438 184.105469 415.148438 184.105469 417.382812 "/>
<path style=" stroke:none;fill-rule:nonzero;fill:rgb(100%,100%,100%);fill-opacity:1;" d="M 29.929688 223.320312 C 29.929688 225.554688 26.578125 225.554688 26.578125 223.320312 C 26.578125 221.085938 29.929688 221.085938 29.929688 223.320312 "/>
<path style=" stroke:none;fill-rule:nonzero;fill:rgb(100%,100%,100%);fill-opacity:1;" d="M 307.78125 109.03125 C 307.78125 111.265625 304.429688 111.265625 304.429688 109.03125 C 304.429688 106.796875 307.78125 106.796875 307.78125 109.03125 "/>
<path style=" stroke:none;fill-rule:nonzero;fill:rgb(100%,100%,100%);fill-opacity:1;" d="M 14.511719 94.28125 C 14.511719 96.515625 11.160156 96.515625 11.160156 94.28125 C 11.160156 92.046875 14.511719 92.046875 14.511719 94.28125 "/>
<path style=" stroke:none;fill-rule:nonzero;fill:rgb(100%,100%,100%);fill-opacity:1;" d="M 121.429688 17.527344 C 121.429688 19.761719 118.078125 19.761719 118.078125 17.527344 C 118.078125 15.292969 121.429688 15.292969 121.429688 17.527344 "/>
<path style=" stroke:none;fill-rule:nonzero;fill:rgb(100%,100%,100%);fill-opacity:1;" d="M 122.773438 200.863281 C 122.773438 203.097656 119.421875 203.097656 119.421875 200.863281 C 119.421875 198.628906 122.773438 198.628906 122.773438 200.863281 "/>
<path style=" stroke:none;fill-rule:nonzero;fill:rgb(100%,100%,100%);fill-opacity:1;" d="M 30.601562 147.238281 C 30.601562 149.472656 27.25 149.472656 27.25 147.238281 C 27.25 145.003906 30.601562 145.003906 30.601562 147.238281 "/>
<path style=" stroke:none;fill-rule:nonzero;fill:rgb(100%,84.3%,0%);fill-opacity:1;" d="M 272.589844 46.019531 C 272.589844 48.253906 269.238281 48.253906 269.238281 46.019531 C 269.238281 43.785156 272.589844 43.785156 272.589844 46.019531 "/>
<path style=" stroke:none;fill-rule:nonzero;fill:rgb(100%,84.3%,0%);fill-opacity:1;" d="M 230.695312 129.140625 C 230.695312 131.375 227.34375 131.375 227.34375 129.140625 C 227.34375 126.90625 230.695312 126.90625 230.695312 129.140625 "/>
<path style=" stroke:none;fill-rule:nonzero;fill:rgb(100%,84.3%,0%);fill-opacity:1;" d="M 275.941406 46.019531 C 275.941406 48.253906 272.589844 48.253906 272.589844 46.019531 C 272.589844 43.785156 275.941406 43.785156 275.941406 46.019531 "/>
<path style=" stroke:none;fill-rule:nonzero;fill:rgb(100%,84.3%,0%);fill-opacity:1;" d="M 230.695312 135.84375 C 230.695312 138.078125 227.34375 138.078125 227.34375 135.84375 C 227.34375 133.609375 230.695312 133.609375 230.695312 135.84375 "/>
<path style=" stroke:none;fill-rule:nonzero;fill:rgb(100%,84.3%,0%);fill-opacity:1;" d="M 284.65625 115.734375 C 284.65625 117.96875 281.304688 117.96875 281.304688 115.734375 C 281.304688 113.5 284.65625 113.5 284.65625 115.734375 "/>
<path style=" stroke:none;fill-rule:nonzero;fill:rgb(100%,84.3%,0%);fill-opacity:1;" d="M 230.695312 98.976562 C 230.695312 101.210938 227.34375 101.210938 227.34375 98.976562 C 227.34375 96.742188 230.695312 96.742188 230.695312 98.976562 "/>
<path style=" stroke:none;fill-rule:nonzero;fill:rgb(100%,84.3%,0%);fill-opacity:1;" d="M 230.695312 109.03125 C 230.695312 111.265625 227.34375 111.265625 227.34375 109.03125 C 227.34375 106.796875 230.695312 106.796875 230.695312 109.03125 "/>
<path style=" stroke:none;fill-rule:nonzero;fill:rgb(100%,84.3%,0%);fill-opacity:1;" d="M 282.644531 46.019531 C 282.644531 48.253906 279.292969 48.253906 279.292969 46.019531 C 279.292969 43.785156 282.644531 43.785156 282.644531 46.019531 "/>
<path style=" stroke:none;fill-rule:nonzero;fill:rgb(100%,84.3%,0%);fill-opacity:1;" d="M 230.695312 85.566406 C 230.695312 87.800781 227.34375 87.800781 227.34375 85.566406 C 227.34375 83.332031 230.695312 83.332031 230.695312 85.566406 "/>
<path style=" stroke:none;fill-rule:nonzero;fill:rgb(100%,84.3%,0%);fill-opacity:1;" d="M 269.238281 46.019531 C 269.238281 48.253906 265.886719 48.253906 265.886719 46.019531 C 265.886719 43.785156 269.238281 43.785156 269.238281 46.019531 "/>
<path style=" stroke:none;fill-rule:nonzero;fill:rgb(100%,84.3%,0%);fill-opacity:1;" d="M 284.65625 119.085938 C 284.65625 121.320312 281.304688 121.320312 281.304688 119.085938 C 281.304688 116.851562 284.65625 116.851562 284.65625 119.085938 "/>
<path style=" stroke:none;fill-rule:nonzero;fill:rgb(100%,84.3%,0%);fill-opacity:1;" d="M 284.65625 112.382812 C 284.65625 114.617188 281.304688 114.617188 281.304688 112.382812 C 281.304688 110.148438 284.65625 110.148438 284.65625 112.382812 "/>
<path style=" stroke:none;fill-rule:nonzero;fill:rgb(100%,84.3%,0%);fill-opacity:1;" d="M 230.695312 112.382812 C 230.695312 114.617188 227.34375 114.617188 227.34375 112.382812 C 227.34375 110.148438 230.695312 110.148438 230.695312 112.382812 "/>
<path style=" stroke:none;fill-rule:nonzero;fill:rgb(100%,84.3%,0%);fill-opacity:1;" d="M 230.695312 256.503906 C 230.695312 258.738281 227.34375 258.738281 227.34375 256.503906 C 227.34375 254.269531 230.695312 254.269531 230.695312 256.503906 "/>
<path style=" stroke:none;fill-rule:nonzero;fill:rgb(100%,84.3%,0%);fill-opacity:1;" d="M 284.65625 109.03125 C 284.65625 111.265625 281.304688 111.265625 281.304688 109.03125 C 281.304688 106.796875 284.65625 106.796875 284.65625 109.03125 "/>
<path style=" stroke:none;fill-rule:nonzero;fill:rgb(100%,84.3%,0%);fill-opacity:1;" d="M 230.695312 115.734375 C 230.695312 117.96875 227.34375 117.96875 227.34375 115.734375 C 227.34375 113.5 230.695312 113.5 230.695312 115.734375 "/>
<path style=" stroke:none;fill-rule:nonzero;fill:rgb(100%,84.3%,0%);fill-opacity:1;" d="M 284.65625 105.679688 C 284.65625 107.914062 281.304688 107.914062 281.304688 105.679688 C 281.304688 103.445312 284.65625 103.445312 284.65625 105.679688 "/>
<path style=" stroke:none;fill-rule:nonzero;fill:rgb(100%,84.3%,0%);fill-opacity:1;" d="M 279.292969 46.019531 C 279.292969 48.253906 275.941406 48.253906 275.941406 46.019531 C 275.941406 43.785156 279.292969 43.785156 279.292969 46.019531 "/>
<path style=" stroke:none;fill-rule:nonzero;fill:rgb(100%,84.3%,0%);fill-opacity:1;" d="M 230.695312 122.4375 C 230.695312 124.671875 227.34375 124.671875 227.34375 122.4375 C 227.34375 120.203125 230.695312 120.203125 230.695312 122.4375 "/>
<path style=" stroke:none;fill-rule:nonzero;fill:rgb(100%,84.3%,0%);fill-opacity:1;" d="M 230.695312 102.324219 C 230.695312 104.558594 227.34375 104.558594 227.34375 102.324219 C 227.34375 100.089844 230.695312 100.089844 230.695312 102.324219 "/>
<path style=" stroke:none;fill-rule:nonzero;fill:rgb(100%,84.3%,0%);fill-opacity:1;" d="M 230.695312 95.621094 C 230.695312 97.859375 227.34375 97.859375 227.34375 95.621094 C 227.34375 93.386719 230.695312 93.386719 230.695312 95.621094 "/>
<path style=" stroke:none;fill-rule:nonzero;fill:rgb(100%,84.3%,0%);fill-opacity:1;" d="M 284.65625 48.699219 C 284.65625 50.933594 281.304688 50.933594 281.304688 48.699219 C 281.304688 46.464844 284.65625 46.464844 284.65625 48.699219 "/>
<path style=" stroke:none;fill-rule:nonzero;fill:rgb(100%,84.3%,0%);fill-opacity:1;" d="M 230.695312 259.855469 C 230.695312 262.089844 227.34375 262.089844 227.34375 259.855469 C 227.34375 257.621094 230.695312 257.621094 230.695312 259.855469 "/>
<path style=" stroke:none;fill-rule:nonzero;fill:rgb(100%,84.3%,0%);fill-opacity:1;" d="M 230.695312 105.679688 C 230.695312 107.914062 227.34375 107.914062 227.34375 105.679688 C 227.34375 103.445312 230.695312 103.445312 230.695312 105.679688 "/>
<path style=" stroke:none;fill-rule:nonzero;fill:rgb(100%,84.3%,0%);fill-opacity:1;" d="M 230.695312 88.921875 C 230.695312 91.15625 227.34375 91.15625 227.34375 88.921875 C 227.34375 86.6875 230.695312 86.6875 230.695312 88.921875 "/>
<path style=" stroke:none;fill-rule:nonzero;fill:rgb(100%,84.3%,0%);fill-opacity:1;" d="M 284.65625 98.976562 C 284.65625 101.210938 281.304688 101.210938 281.304688 98.976562 C 281.304688 96.742188 284.65625 96.742188 284.65625 98.976562 "/>
<path style=" stroke:none;fill-rule:nonzero;fill:rgb(100%,84.3%,0%);fill-opacity:1;" d="M 230.695312 253.152344 C 230.695312 255.386719 227.34375 255.386719 227.34375 253.152344 C 227.34375 250.917969 230.695312 250.917969 230.695312 253.152344 "/>
<path style=" stroke:none;fill-rule:nonzero;fill:rgb(100%,84.3%,0%);fill-opacity:1;" d="M 284.65625 102.324219 C 284.65625 104.558594 281.304688 104.558594 281.304688 102.324219 C 281.304688 100.089844 284.65625 100.089844 284.65625 102.324219 "/>
<path style=" stroke:none;fill-rule:nonzero;fill:rgb(100%,84.3%,0%);fill-opacity:1;" d="M 230.695312 263.207031 C 230.695312 265.441406 227.34375 265.441406 227.34375 263.207031 C 227.34375 260.972656 230.695312 260.972656 230.695312 263.207031 "/>
<path style=" stroke:none;fill-rule:nonzero;fill:rgb(100%,84.3%,0%);fill-opacity:1;" d="M 233.597656 110.703125 C 233.597656 112.9375 230.246094 112.9375 230.246094 110.703125 C 230.246094 108.46875 233.597656 108.46875 233.597656 110.703125 "/>
<path style=" stroke:none;fill-rule:nonzero;fill:rgb(100%,84.3%,0%);fill-opacity:1;" d="M 230.695312 125.789062 C 230.695312 128.023438 227.34375 128.023438 227.34375 125.789062 C 227.34375 123.554688 230.695312 123.554688 230.695312 125.789062 "/>
<path style=" stroke:none;fill-rule:nonzero;fill:rgb(100%,84.3%,0%);fill-opacity:1;" d="M 230.695312 132.492188 C 230.695312 134.726562 227.34375 134.726562 227.34375 132.492188 C 227.34375 130.257812 230.695312 130.257812 230.695312 132.492188 "/>
<path style=" stroke:none;fill-rule:nonzero;fill:rgb(100%,84.3%,0%);fill-opacity:1;" d="M 230.695312 119.085938 C 230.695312 121.320312 227.34375 121.320312 227.34375 119.085938 C 227.34375 116.851562 230.695312 116.851562 230.695312 119.085938 "/>
<path style=" stroke:none;fill-rule:nonzero;fill:rgb(100%,84.3%,0%);fill-opacity:1;" d="M 230.695312 92.269531 C 230.695312 94.503906 227.34375 94.503906 227.34375 92.269531 C 227.34375 90.035156 230.695312 90.035156 230.695312 92.269531 "/>
</g>
</svg>
