<?xml version="1.0" encoding="UTF-8"?>
<svg xmlns="http://www.w3.org/2000/svg" xmlns:xlink="http://www.w3.org/1999/xlink" width="512pt" height="512pt" viewBox="0 0 512 512" version="1.1">
<g id="surface231">
<path style=" stroke:none;fill-rule:nonzero;fill:rgb(26.7%,26.7%,26.7%);fill-opacity:1;" d="M 0 259.269531 L 702.605469 259.269531 L 702.605469 512 L 0 512 Z M 0 259.269531 "/>
<path style=" stroke:none;fill-rule:nonzero;fill:rgb(19.2%,38.8%,66.7%);fill-opacity:1;" d="M 42.667969 383.699219 L 469.332031 383.699219 L 469.332031 500.335938 L 42.667969 500.335938 Z M 42.667969 383.699219 "/>
<path style=" stroke:none;fill-rule:nonzero;fill:rgb(100%,100%,100%);fill-opacity:1;" d="M 406.96875 506.933594 C 406.96875 508.933594 403.96875 508.933594 403.96875 506.933594 C 403.96875 504.933594 406.96875 504.933594 406.96875 506.933594 "/>
<path style=" stroke:none;fill-rule:nonzero;fill:rgb(100%,100%,100%);fill-opacity:1;" d="M 433.351562 359.113281 C 433.351562 361.113281 430.355469 361.113281 430.355469 359.113281 C 430.355469 357.113281 433.351562 357.113281 433.351562 359.113281 "/>
<path style=" stroke:none;fill-rule:nonzero;fill:rgb(100%,100%,100%);fill-opacity:1;" d="M 226.167969 271.261719 C 226.167969 273.261719 223.167969 273.261719 223.167969 271.261719 C 223.167969 269.261719 226.167969 269.261719 226.167969 271.261719 "/>
<path style=" stroke:none;fill-rule:nonzero;fill:rgb(100%,100%,100%);fill-opacity:1;" d="M 356.59375 330.328125 C 356.59375 332.328125 353.597656 332.328125 353.597656 330.328125 C 353.597656 328.332031 356.59375 328.332031 356.59375 330.328125 "/>
<path style=" stroke:none;fill-rule:nonzero;fill:rgb(100%,100%,100%);fill-opacity:1;" d="M 170.097656 350.117188 C 170.097656 352.117188 167.097656 352.117188 167.097656 350.117188 C 167.097656 348.121094 170.097656 348.121094 170.097656 350.117188 "/>
<path style=" stroke:none;fill-rule:nonzero;fill:rgb(100%,100%,100%);fill-opacity:1;" d="M 71.453125 272.460938 C 71.453125 274.460938 68.453125 274.460938 68.453125 272.460938 C 68.453125 270.460938 71.453125 270.460938 71.453125 272.460938 "/>
<path style=" stroke:none;fill-rule:nonzero;fill:rgb(100%,100%,100%);fill-opacity:1;" d="M 97.238281 352.515625 C 97.238281 354.515625 94.238281 354.515625 94.238281 352.515625 C 94.238281 350.519531 97.238281 350.519531 97.238281 352.515625 "/>
<path style=" stroke:none;fill-rule:nonzero;fill:rgb(100%,100%,100%);fill-opacity:1;" d="M 166.800781 373.507812 C 166.800781 375.503906 163.800781 375.503906 163.800781 373.507812 C 163.800781 371.507812 166.800781 371.507812 166.800781 373.507812 "/>
<path style=" stroke:none;fill-rule:nonzero;fill:rgb(100%,100%,100%);fill-opacity:1;" d="M 335.304688 506.933594 C 335.304688 508.933594 332.308594 508.933594 332.308594 506.933594 C 332.308594 504.933594 335.304688 504.933594 335.304688 506.933594 "/>
<path style=" stroke:none;fill-rule:nonzero;fill:rgb(100%,100%,100%);fill-opacity:1;" d="M 433.351562 267.664062 C 433.351562 269.664062 430.355469 269.664062 430.355469 267.664062 C 430.355469 265.664062 433.351562 265.664062 433.351562 267.664062 "/>
<path style=" stroke:none;fill-rule:nonzero;fill:rgb(100%,100%,100%);fill-opacity:1;" d="M 22.277344 388.199219 C 22.277344 390.195312 19.28125 390.195312 19.28125 388.199219 C 19.28125 386.199219 22.277344 386.199219 22.277344 388.199219 "/>
<path style=" stroke:none;fill-rule:nonzero;fill:rgb(100%,100%,100%);fill-opacity:1;" d="M 420.460938 341.421875 C 420.460938 343.421875 417.460938 343.421875 417.460938 341.421875 C 417.460938 339.425781 420.460938 339.425781 420.460938 341.421875 "/>
<path style=" stroke:none;fill-rule:nonzero;fill:rgb(100%,100%,100%);fill-opacity:1;" d="M 496.316406 266.464844 C 496.316406 268.464844 493.320312 268.464844 493.320312 266.464844 C 493.320312 264.464844 496.316406 264.464844 496.316406 266.464844 "/>
<path style=" stroke:none;fill-rule:nonzero;fill:rgb(100%,100%,100%);fill-opacity:1;" d="M 425.257812 340.824219 C 425.257812 342.824219 422.257812 342.824219 422.257812 340.824219 C 422.257812 338.824219 425.257812 338.824219 425.257812 340.824219 "/>
<path style=" stroke:none;fill-rule:nonzero;fill:rgb(100%,100%,100%);fill-opacity:1;" d="M 79.847656 299.746094 C 79.847656 301.746094 76.847656 301.746094 76.847656 299.746094 C 76.847656 297.746094 79.847656 297.746094 79.847656 299.746094 "/>
<path style=" stroke:none;fill-rule:nonzero;fill:rgb(100%,100%,100%);fill-opacity:1;" d="M 191.984375 377.703125 C 191.984375 379.703125 188.988281 379.703125 188.988281 377.703125 C 188.988281 375.703125 191.984375 375.703125 191.984375 377.703125 "/>
<path style=" stroke:none;fill-rule:nonzero;fill:rgb(100%,100%,100%);fill-opacity:1;" d="M 25.277344 262.867188 C 25.277344 264.863281 22.277344 264.863281 22.277344 262.867188 C 22.277344 260.867188 25.277344 260.867188 25.277344 262.867188 "/>
<path style=" stroke:none;fill-rule:nonzero;fill:rgb(100%,84.3%,0%);fill-opacity:1;" d="M 193.484375 386.699219 C 193.484375 388.699219 190.484375 388.699219 190.484375 386.699219 C 190.484375 384.699219 193.484375 384.699219 193.484375 386.699219 "/>
<path style=" stroke:none;fill-rule:nonzero;fill:rgb(100%,84.3%,0%);fill-opacity:1;" d="M 405.46875 497.339844 C 405.46875 499.335938 402.46875 499.335938 402.46875 497.339844 C 402.46875 495.339844 405.46875 495.339844 405.46875 497.339844 "/>
<path style=" stroke:none;fill-rule:nonzero;fill:rgb(100%,84.3%,0%);fill-opacity:1;" d="M 465.433594 497.339844 C 465.433594 499.335938 462.4375 499.335938 462.4375 497.339844 C 462.4375 495.339844 465.433594 495.339844 465.433594 497.339844 "/>
<path style=" stroke:none;fill-rule:nonzero;fill:rgb(100%,84.3%,0%);fill-opacity:1;" d="M 172.496094 386.699219 C 172.496094 388.699219 169.496094 388.699219 169.496094 386.699219 C 169.496094 384.699219 172.496094 384.699219 172.496094 386.699219 "/>
<path style=" stroke:none;fill-rule:nonzero;fill:rgb(100%,84.3%,0%);fill-opacity:1;" d="M 336.507812 497.339844 C 336.507812 499.335938 333.507812 499.335938 333.507812 497.339844 C 333.507812 495.339844 336.507812 495.339844 336.507812 497.339844 "/>
<path style=" stroke:none;fill-rule:nonzero;fill:rgb(100%,84.3%,0%);fill-opacity:1;" d="M 333.507812 497.339844 C 333.507812 499.335938 330.507812 499.335938 330.507812 497.339844 C 330.507812 495.339844 333.507812 495.339844 333.507812 497.339844 "/>
<path style=" stroke:none;fill-rule:nonzero;fill:rgb(100%,84.3%,0%);fill-opacity:1;" d="M 330.507812 497.339844 C 330.507812 499.335938 327.511719 499.335938 327.511719 497.339844 C 327.511719 495.339844 330.507812 495.339844 330.507812 497.339844 "/>
<path style=" stroke:none;fill-rule:nonzero;fill:rgb(100%,84.3%,0%);fill-opacity:1;" d="M 420.460938 497.339844 C 420.460938 499.335938 417.460938 499.335938 417.460938 497.339844 C 417.460938 495.339844 420.460938 495.339844 420.460938 497.339844 "/>
<path style=" stroke:none;fill-rule:nonzero;fill:rgb(100%,84.3%,0%);fill-opacity:1;" d="M 339.503906 497.339844 C 339.503906 499.335938 336.503906 499.335938 336.503906 497.339844 C 336.503906 495.339844 339.503906 495.339844 339.503906 497.339844 "/>
<path style=" stroke:none;fill-rule:nonzero;fill:rgb(100%,84.3%,0%);fill-opacity:1;" d="M 399.472656 497.339844 C 399.472656 499.335938 396.472656 499.335938 396.472656 497.339844 C 396.472656 495.339844 399.472656 495.339844 399.472656 497.339844 "/>
<path style=" stroke:none;fill-rule:nonzero;fill:rgb(100%,84.3%,0%);fill-opacity:1;" d="M 327.511719 497.339844 C 327.511719 499.335938 324.511719 499.335938 324.511719 497.339844 C 324.511719 495.339844 327.511719 495.339844 327.511719 497.339844 "/>
<path style=" stroke:none;fill-rule:nonzero;fill:rgb(100%,84.3%,0%);fill-opacity:1;" d="M 205.476562 386.699219 C 205.476562 388.699219 202.480469 388.699219 202.480469 386.699219 C 202.480469 384.699219 205.476562 384.699219 205.476562 386.699219 "/>
<path style=" stroke:none;fill-rule:nonzero;fill:rgb(100%,84.3%,0%);fill-opacity:1;" d="M 414.464844 497.339844 C 414.464844 499.335938 411.464844 499.335938 411.464844 497.339844 C 411.464844 495.339844 414.464844 495.339844 414.464844 497.339844 "/>
<path style=" stroke:none;fill-rule:nonzero;fill:rgb(100%,84.3%,0%);fill-opacity:1;" d="M 342.503906 497.339844 C 342.503906 499.335938 339.503906 499.335938 339.503906 497.339844 C 339.503906 495.339844 342.503906 495.339844 342.503906 497.339844 "/>
<path style=" stroke:none;fill-rule:nonzero;fill:rgb(100%,84.3%,0%);fill-opacity:1;" d="M 396.472656 497.339844 C 396.472656 499.335938 393.476562 499.335938 393.476562 497.339844 C 393.476562 495.339844 396.472656 495.339844 396.472656 497.339844 "/>
<path style=" stroke:none;fill-rule:nonzero;fill:rgb(100%,84.3%,0%);fill-opacity:1;" d="M 348.5 497.339844 C 348.5 499.335938 345.5 499.335938 345.5 497.339844 C 345.5 495.339844 348.5 495.339844 348.5 497.339844 "/>
<path style=" stroke:none;fill-rule:nonzero;fill:rgb(100%,84.3%,0%);fill-opacity:1;" d="M 406.96875 494.742188 C 406.96875 496.738281 403.96875 496.738281 403.96875 494.742188 C 403.96875 492.742188 406.96875 492.742188 406.96875 494.742188 "/>
<path style=" stroke:none;fill-rule:nonzero;fill:rgb(100%,84.3%,0%);fill-opacity:1;" d="M 411.464844 497.339844 C 411.464844 499.335938 408.46875 499.335938 408.46875 497.339844 C 408.46875 495.339844 411.464844 495.339844 411.464844 497.339844 "/>
<path style=" stroke:none;fill-rule:nonzero;fill:rgb(100%,84.3%,0%);fill-opacity:1;" d="M 417.460938 497.339844 C 417.460938 499.335938 414.464844 499.335938 414.464844 497.339844 C 414.464844 495.339844 417.460938 495.339844 417.460938 497.339844 "/>
<path style=" stroke:none;fill-rule:nonzero;fill:rgb(100%,84.3%,0%);fill-opacity:1;" d="M 190.484375 386.699219 C 190.484375 388.699219 187.488281 388.699219 187.488281 386.699219 C 187.488281 384.699219 190.484375 384.699219 190.484375 386.699219 "/>
<path style=" stroke:none;fill-rule:nonzero;fill:rgb(100%,84.3%,0%);fill-opacity:1;" d="M 345.5 497.339844 C 345.5 499.335938 342.503906 499.335938 342.503906 497.339844 C 342.503906 495.339844 345.5 495.339844 345.5 497.339844 "/>
<path style=" stroke:none;fill-rule:nonzero;fill:rgb(100%,84.3%,0%);fill-opacity:1;" d="M 393.476562 497.339844 C 393.476562 499.335938 390.476562 499.335938 390.476562 497.339844 C 390.476562 495.339844 393.476562 495.339844 393.476562 497.339844 "/>
<path style=" stroke:none;fill-rule:nonzero;fill:rgb(100%,84.3%,0%);fill-opacity:1;" d="M 181.492188 386.699219 C 181.492188 388.699219 178.492188 388.699219 178.492188 386.699219 C 178.492188 384.699219 181.492188 384.699219 181.492188 386.699219 "/>
<path style=" stroke:none;fill-rule:nonzero;fill:rgb(100%,84.3%,0%);fill-opacity:1;" d="M 351.5 497.339844 C 351.5 499.335938 348.5 499.335938 348.5 497.339844 C 348.5 495.339844 351.5 495.339844 351.5 497.339844 "/>
<path style=" stroke:none;fill-rule:nonzero;fill:rgb(100%,84.3%,0%);fill-opacity:1;" d="M 321.515625 497.339844 C 321.515625 499.335938 318.515625 499.335938 318.515625 497.339844 C 318.515625 495.339844 321.515625 495.339844 321.515625 497.339844 "/>
<path style=" stroke:none;fill-rule:nonzero;fill:rgb(100%,84.3%,0%);fill-opacity:1;" d="M 408.464844 497.339844 C 408.464844 499.335938 405.46875 499.335938 405.46875 497.339844 C 405.46875 495.339844 408.464844 495.339844 408.464844 497.339844 "/>
<path style=" stroke:none;fill-rule:nonzero;fill:rgb(100%,84.3%,0%);fill-opacity:1;" d="M 402.46875 497.339844 C 402.46875 499.335938 399.472656 499.335938 399.472656 497.339844 C 399.472656 495.339844 402.46875 495.339844 402.46875 497.339844 "/>
<path style=" stroke:none;fill-rule:nonzero;fill:rgb(100%,84.3%,0%);fill-opacity:1;" d="M 178.492188 386.699219 C 178.492188 388.699219 175.492188 388.699219 175.492188 386.699219 C 175.492188 384.699219 178.492188 384.699219 178.492188 386.699219 "/>
<path style=" stroke:none;fill-rule:nonzero;fill:rgb(100%,84.3%,0%);fill-opacity:1;" d="M 202.480469 386.699219 C 202.480469 388.699219 199.480469 388.699219 199.480469 386.699219 C 199.480469 384.699219 202.480469 384.699219 202.480469 386.699219 "/>
<path style=" stroke:none;fill-rule:nonzero;fill:rgb(100%,84.3%,0%);fill-opacity:1;" d="M 196.480469 386.699219 C 196.480469 388.699219 193.484375 388.699219 193.484375 386.699219 C 193.484375 384.699219 196.480469 384.699219 196.480469 386.699219 "/>
<path style=" stroke:none;fill-rule:nonzero;fill:rgb(100%,84.3%,0%);fill-opacity:1;" d="M 187.488281 386.699219 C 187.488281 388.699219 184.488281 388.699219 184.488281 386.699219 C 184.488281 384.699219 187.488281 384.699219 187.488281 386.699219 "/>
<path style=" stroke:none;fill-rule:nonzero;fill:rgb(100%,84.3%,0%);fill-opacity:1;" d="M 191.984375 389.296875 C 191.984375 391.292969 188.988281 391.292969 188.988281 389.296875 C 188.988281 387.296875 191.984375 387.296875 191.984375 389.296875 "/>
<path style=" stroke:none;fill-rule:nonzero;fill:rgb(100%,84.3%,0%);fill-opacity:1;" d="M 166.5 386.699219 C 166.5 388.699219 163.5 388.699219 163.5 386.699219 C 163.5 384.699219 166.5 384.699219 166.5 386.699219 "/>
<path style=" stroke:none;fill-rule:nonzero;fill:rgb(100%,84.3%,0%);fill-opacity:1;" d="M 423.457031 497.339844 C 423.457031 499.335938 420.460938 499.335938 420.460938 497.339844 C 420.460938 495.339844 423.457031 495.339844 423.457031 497.339844 "/>
<path style=" stroke:none;fill-rule:nonzero;fill:rgb(100%,84.3%,0%);fill-opacity:1;" d="M 199.480469 386.699219 C 199.480469 388.699219 196.484375 388.699219 196.484375 386.699219 C 196.484375 384.699219 199.480469 384.699219 199.480469 386.699219 "/>
<path style=" stroke:none;fill-rule:nonzero;fill:rgb(100%,84.3%,0%);fill-opacity:1;" d="M 324.511719 497.339844 C 324.511719 499.335938 321.515625 499.335938 321.515625 497.339844 C 321.515625 495.339844 324.511719 495.339844 324.511719 497.339844 "/>
<path style=" stroke:none;fill-rule:nonzero;fill:rgb(100%,84.3%,0%);fill-opacity:1;" d="M 169.496094 386.699219 C 169.496094 388.699219 166.5 388.699219 166.5 386.699219 C 166.5 384.699219 169.496094 384.699219 169.496094 386.699219 "/>
<path style=" stroke:none;fill-rule:nonzero;fill:rgb(100%,84.3%,0%);fill-opacity:1;" d="M 160.503906 386.699219 C 160.503906 388.699219 157.503906 388.699219 157.503906 386.699219 C 157.503906 384.699219 160.503906 384.699219 160.503906 386.699219 "/>
<path style=" stroke:none;fill-rule:nonzero;fill:rgb(100%,84.3%,0%);fill-opacity:1;" d="M 390.476562 497.339844 C 390.476562 499.335938 387.476562 499.335938 387.476562 497.339844 C 387.476562 495.339844 390.476562 495.339844 390.476562 497.339844 "/>
<path style=" stroke:none;fill-rule:nonzero;fill:rgb(100%,84.3%,0%);fill-opacity:1;" d="M 184.488281 386.699219 C 184.488281 388.699219 181.492188 388.699219 181.492188 386.699219 C 181.492188 384.699219 184.488281 384.699219 184.488281 386.699219 "/>
<path style=" stroke:none;fill-rule:nonzero;fill:rgb(100%,84.3%,0%);fill-opacity:1;" d="M 163.5 386.699219 C 163.5 388.699219 160.5 388.699219 160.5 386.699219 C 160.5 384.699219 163.5 384.699219 163.5 386.699219 "/>
<path style=" stroke:none;fill-rule:nonzero;fill:rgb(100%,84.3%,0%);fill-opacity:1;" d="M 175.496094 386.699219 C 175.496094 388.699219 172.496094 388.699219 172.496094 386.699219 C 172.496094 384.699219 175.496094 384.699219 175.496094 386.699219 "/>
</g>
</svg>
