<?xml version="1.0" encoding="UTF-8"?>
<svg xmlns="http://www.w3.org/2000/svg" xmlns:xlink="http://www.w3.org/1999/xlink" width="512pt" height="512pt" viewBox="0 0 512 512" version="1.1">
<g id="surface356">
<path style=" stroke:none;fill-rule:nonzero;fill:rgb(26.7%,26.7%,26.7%);fill-opacity:1;" d="M 0 103.410156 L 512 103.410156 L 512 408.585938 L 0 408.585938 Z M 0 103.410156 "/>
<path style=" stroke:none;fill-rule:nonzero;fill:rgb(19.2%,38.8%,66.7%);fill-opacity:1;" d="M 42.667969 128.84375 L 469.332031 128.84375 L 469.332031 383.15625 L 42.667969 383.15625 Z M 42.667969 128.84375 "/>
<path style=" stroke:none;fill-rule:nonzero;fill:rgb(90.6%,14.9%,14.9%);fill-opacity:1;" d="M 45.679688 413.289062 C 45.679688 417.304688 39.652344 417.304688 39.652344 413.289062 C 39.652344 409.269531 45.679688 409.269531 45.679688 413.289062 "/>
<path style=" stroke:none;fill-rule:nonzero;fill:rgb(90.6%,14.9%,14.9%);fill-opacity:1;" d="M 57.730469 413.289062 C 57.730469 417.304688 51.707031 417.304688 51.707031 413.289062 C 51.707031 409.269531 57.730469 409.269531 57.730469 413.289062 "/>
<path style=" stroke:none;fill-rule:nonzero;fill:rgb(90.6%,14.9%,14.9%);fill-opacity:1;" d="M 69.785156 413.289062 C 69.785156 417.304688 63.757812 417.304688 63.757812 413.289062 C 63.757812 409.269531 69.785156 409.269531 69.785156 413.289062 "/>
<path style=" stroke:none;fill-rule:nonzero;fill:rgb(90.6%,14.9%,14.9%);fill-opacity:1;" d="M 81.839844 413.289062 C 81.839844 417.304688 75.8125 417.304688 75.8125 413.289062 C 75.8125 409.269531 81.839844 409.269531 81.839844 413.289062 "/>
<path style=" stroke:none;fill-rule:nonzero;fill:rgb(90.6%,14.9%,14.9%);fill-opacity:1;" d="M 93.890625 413.289062 C 93.890625 417.304688 87.863281 417.304688 87.863281 413.289062 C 87.863281 409.269531 93.890625 409.269531 93.890625 413.289062 "/>
<path style=" stroke:none;fill-rule:nonzero;fill:rgb(90.6%,14.9%,14.9%);fill-opacity:1;" d="M 105.941406 413.289062 C 105.941406 417.304688 99.917969 417.304688 99.917969 413.289062 C 99.917969 409.269531 105.941406 409.269531 105.941406 413.289062 "/>
<path style=" stroke:none;fill-rule:nonzero;fill:rgb(90.6%,14.9%,14.9%);fill-opacity:1;" d="M 117.996094 413.289062 C 117.996094 417.304688 111.96875 417.304688 111.96875 413.289062 C 111.96875 409.269531 117.996094 409.269531 117.996094 413.289062 "/>
<path style=" stroke:none;fill-rule:nonzero;fill:rgb(90.6%,14.9%,14.9%);fill-opacity:1;" d="M 130.050781 413.289062 C 130.050781 417.304688 124.023438 417.304688 124.023438 413.289062 C 124.023438 409.269531 130.050781 409.269531 130.050781 413.289062 "/>
<path style=" stroke:none;fill-rule:nonzero;fill:rgb(90.6%,14.9%,14.9%);fill-opacity:1;" d="M 45.679688 98.710938 C 45.679688 102.730469 39.652344 102.730469 39.652344 98.710938 C 39.652344 94.695312 45.679688 94.695312 45.679688 98.710938 "/>
<path style=" stroke:none;fill-rule:nonzero;fill:rgb(90.6%,14.9%,14.9%);fill-opacity:1;" d="M 57.730469 98.710938 C 57.730469 102.730469 51.707031 102.730469 51.707031 98.710938 C 51.707031 94.695312 57.730469 94.695312 57.730469 98.710938 "/>
<path style=" stroke:none;fill-rule:nonzero;fill:rgb(90.6%,14.9%,14.9%);fill-opacity:1;" d="M 69.785156 98.710938 C 69.785156 102.730469 63.757812 102.730469 63.757812 98.710938 C 63.757812 94.695312 69.785156 94.695312 69.785156 98.710938 "/>
<path style=" stroke:none;fill-rule:nonzero;fill:rgb(90.6%,14.9%,14.9%);fill-opacity:1;" d="M 81.839844 98.710938 C 81.839844 102.730469 75.8125 102.730469 75.8125 98.710938 C 75.8125 94.695312 81.839844 94.695312 81.839844 98.710938 "/>
<path style=" stroke:none;fill-rule:nonzero;fill:rgb(90.6%,14.9%,14.9%);fill-opacity:1;" d="M 93.890625 98.710938 C 93.890625 102.730469 87.863281 102.730469 87.863281 98.710938 C 87.863281 94.695312 93.890625 94.695312 93.890625 98.710938 "/>
<path style=" stroke:none;fill-rule:nonzero;fill:rgb(90.6%,14.9%,14.9%);fill-opacity:1;" d="M 105.941406 98.710938 C 105.941406 102.730469 99.917969 102.730469 99.917969 98.710938 C 99.917969 94.695312 105.941406 94.695312 105.941406 98.710938 "/>
<path style=" stroke:none;fill-rule:nonzero;fill:rgb(90.6%,14.9%,14.9%);fill-opacity:1;" d="M 117.996094 98.710938 C 117.996094 102.730469 111.96875 102.730469 111.96875 98.710938 C 111.96875 94.695312 117.996094 94.695312 117.996094 98.710938 "/>
<path style=" stroke:none;fill-rule:nonzero;fill:rgb(90.6%,14.9%,14.9%);fill-opacity:1;" d="M 130.050781 98.710938 C 130.050781 102.730469 124.023438 102.730469 124.023438 98.710938 C 124.023438 94.695312 130.050781 94.695312 130.050781 98.710938 "/>
<path style=" stroke:none;fill-rule:nonzero;fill:rgb(90.6%,14.9%,14.9%);fill-opacity:1;" d="M 142.101562 98.710938 C 142.101562 102.730469 136.074219 102.730469 136.074219 98.710938 C 136.074219 94.695312 142.101562 94.695312 142.101562 98.710938 "/>
<path style=" stroke:none;fill-rule:nonzero;fill:rgb(100%,100%,100%);fill-opacity:1;" d="M 449.445312 122.816406 C 449.445312 126.835938 443.417969 126.835938 443.417969 122.816406 C 443.417969 118.800781 449.445312 118.800781 449.445312 122.816406 "/>
<path style=" stroke:none;fill-rule:nonzero;fill:rgb(100%,100%,100%);fill-opacity:1;" d="M 153.550781 63.757812 C 153.550781 67.777344 147.527344 67.777344 147.527344 63.757812 C 147.527344 59.742188 153.550781 59.742188 153.550781 63.757812 "/>
<path style=" stroke:none;fill-rule:nonzero;fill:rgb(100%,100%,100%);fill-opacity:1;" d="M 186.09375 16.152344 C 186.09375 20.167969 180.066406 20.167969 180.066406 16.152344 C 180.066406 12.132812 186.09375 12.132812 186.09375 16.152344 "/>
<path style=" stroke:none;fill-rule:nonzero;fill:rgb(100%,100%,100%);fill-opacity:1;" d="M 2.289062 51.707031 C 2.289062 55.722656 -3.734375 55.722656 -3.734375 51.707031 C -3.734375 47.6875 2.289062 47.6875 2.289062 51.707031 "/>
<path style=" stroke:none;fill-rule:nonzero;fill:rgb(100%,100%,100%);fill-opacity:1;" d="M 67.375 501.875 C 67.375 505.894531 61.347656 505.894531 61.347656 501.875 C 61.347656 497.859375 67.375 497.859375 67.375 501.875 "/>
<path style=" stroke:none;fill-rule:nonzero;fill:rgb(100%,100%,100%);fill-opacity:1;" d="M 345.191406 413.890625 C 345.191406 417.910156 339.164062 417.910156 339.164062 413.890625 C 339.164062 409.875 345.191406 409.875 345.191406 413.890625 "/>
<path style=" stroke:none;fill-rule:nonzero;fill:rgb(100%,100%,100%);fill-opacity:1;" d="M 265.039062 84.851562 C 265.039062 88.867188 259.011719 88.867188 259.011719 84.851562 C 259.011719 80.832031 265.039062 80.832031 265.039062 84.851562 "/>
<path style=" stroke:none;fill-rule:nonzero;fill:rgb(100%,100%,100%);fill-opacity:1;" d="M 319.878906 388.578125 C 319.878906 392.597656 313.851562 392.597656 313.851562 388.578125 C 313.851562 384.5625 319.878906 384.5625 319.878906 388.578125 "/>
<path style=" stroke:none;fill-rule:nonzero;fill:rgb(100%,100%,100%);fill-opacity:1;" d="M 263.230469 433.175781 C 263.230469 437.191406 257.203125 437.191406 257.203125 433.175781 C 257.203125 429.15625 263.230469 429.15625 263.230469 433.175781 "/>
<path style=" stroke:none;fill-rule:nonzero;fill:rgb(100%,100%,100%);fill-opacity:1;" d="M 126.433594 447.035156 C 126.433594 451.054688 120.40625 451.054688 120.40625 447.035156 C 120.40625 443.019531 126.433594 443.019531 126.433594 447.035156 "/>
<path style=" stroke:none;fill-rule:nonzero;fill:rgb(100%,100%,100%);fill-opacity:1;" d="M 516.941406 498.261719 C 516.941406 502.277344 510.914062 502.277344 510.914062 498.261719 C 510.914062 494.242188 516.941406 494.242188 516.941406 498.261719 "/>
<path style=" stroke:none;fill-rule:nonzero;fill:rgb(100%,100%,100%);fill-opacity:1;" d="M 236.113281 418.109375 C 236.113281 422.125 230.085938 422.125 230.085938 418.109375 C 230.085938 414.089844 236.113281 414.089844 236.113281 418.109375 "/>
<path style=" stroke:none;fill-rule:nonzero;fill:rgb(100%,100%,100%);fill-opacity:1;" d="M 154.152344 118.597656 C 154.152344 122.617188 148.128906 122.617188 148.128906 118.597656 C 148.128906 114.582031 154.152344 114.582031 154.152344 118.597656 "/>
<path style=" stroke:none;fill-rule:nonzero;fill:rgb(100%,100%,100%);fill-opacity:1;" d="M 22.175781 456.074219 C 22.175781 460.09375 16.152344 460.09375 16.152344 456.074219 C 16.152344 452.058594 22.175781 452.058594 22.175781 456.074219 "/>
<path style=" stroke:none;fill-rule:nonzero;fill:rgb(100%,100%,100%);fill-opacity:1;" d="M 228.277344 29.410156 C 228.277344 33.425781 222.253906 33.425781 222.253906 29.410156 C 222.253906 25.390625 228.277344 25.390625 228.277344 29.410156 "/>
<path style=" stroke:none;fill-rule:nonzero;fill:rgb(100%,100%,100%);fill-opacity:1;" d="M 377.730469 416.902344 C 377.730469 420.921875 371.707031 420.921875 371.707031 416.902344 C 371.707031 412.886719 377.730469 412.886719 377.730469 416.902344 "/>
<path style=" stroke:none;fill-rule:nonzero;fill:rgb(100%,100%,100%);fill-opacity:1;" d="M 110.164062 413.289062 C 110.164062 417.304688 104.136719 417.304688 104.136719 413.289062 C 104.136719 409.269531 110.164062 409.269531 110.164062 413.289062 "/>
<path style=" stroke:none;fill-rule:nonzero;fill:rgb(100%,100%,100%);fill-opacity:1;" d="M 67.976562 66.167969 C 67.976562 70.1875 61.949219 70.1875 61.949219 66.167969 C 61.949219 62.152344 67.976562 62.152344 67.976562 66.167969 "/>
<path style=" stroke:none;fill-rule:nonzero;fill:rgb(100%,100%,100%);fill-opacity:1;" d="M 318.070312 424.136719 C 318.070312 428.152344 312.042969 428.152344 312.042969 424.136719 C 312.042969 420.117188 318.070312 420.117188 318.070312 424.136719 "/>
<path style=" stroke:none;fill-rule:nonzero;fill:rgb(100%,100%,100%);fill-opacity:1;" d="M 344.585938 384.964844 C 344.585938 388.980469 338.5625 388.980469 338.5625 384.964844 C 338.5625 380.945312 344.585938 380.945312 344.585938 384.964844 "/>
<path style=" stroke:none;fill-rule:nonzero;fill:rgb(100%,100%,100%);fill-opacity:1;" d="M 515.734375 510.3125 C 515.734375 514.332031 509.710938 514.332031 509.710938 510.3125 C 509.710938 506.296875 515.734375 506.296875 515.734375 510.3125 "/>
<path style=" stroke:none;fill-rule:nonzero;fill:rgb(100%,100%,100%);fill-opacity:1;" d="M 309.03125 492.234375 C 309.03125 496.25 303.003906 496.25 303.003906 492.234375 C 303.003906 488.214844 309.03125 488.214844 309.03125 492.234375 "/>
<path style=" stroke:none;fill-rule:nonzero;fill:rgb(100%,100%,100%);fill-opacity:1;" d="M 2.890625 13.136719 C 2.890625 17.15625 -3.132812 17.15625 -3.132812 13.136719 C -3.132812 9.121094 2.890625 9.121094 2.890625 13.136719 "/>
<path style=" stroke:none;fill-rule:nonzero;fill:rgb(100%,100%,100%);fill-opacity:1;" d="M 70.386719 25.792969 C 70.386719 29.8125 64.363281 29.8125 64.363281 25.792969 C 64.363281 21.777344 70.386719 21.777344 70.386719 25.792969 "/>
<path style=" stroke:none;fill-rule:nonzero;fill:rgb(100%,100%,100%);fill-opacity:1;" d="M 451.855469 466.921875 C 451.855469 470.941406 445.832031 470.941406 445.832031 466.921875 C 445.832031 462.90625 451.855469 462.90625 451.855469 466.921875 "/>
<path style=" stroke:none;fill-rule:nonzero;fill:rgb(100%,100%,100%);fill-opacity:1;" d="M 163.195312 475.359375 C 163.195312 479.378906 157.167969 479.378906 157.167969 475.359375 C 157.167969 471.34375 163.195312 471.34375 163.195312 475.359375 "/>
<path style=" stroke:none;fill-rule:nonzero;fill:rgb(100%,84.3%,0%);fill-opacity:1;" d="M 51.707031 286.132812 C 51.707031 290.148438 45.679688 290.148438 45.679688 286.132812 C 45.679688 282.113281 51.707031 282.113281 51.707031 286.132812 "/>
<path style=" stroke:none;fill-rule:nonzero;fill:rgb(100%,84.3%,0%);fill-opacity:1;" d="M 247.5625 134.871094 C 247.5625 138.886719 241.535156 138.886719 241.535156 134.871094 C 241.535156 130.851562 247.5625 130.851562 247.5625 134.871094 "/>
<path style=" stroke:none;fill-rule:nonzero;fill:rgb(100%,84.3%,0%);fill-opacity:1;" d="M 466.320312 148.128906 C 466.320312 152.144531 460.292969 152.144531 460.292969 148.128906 C 460.292969 144.109375 466.320312 144.109375 466.320312 148.128906 "/>
<path style=" stroke:none;fill-rule:nonzero;fill:rgb(100%,84.3%,0%);fill-opacity:1;" d="M 431.96875 377.128906 C 431.96875 381.148438 425.945312 381.148438 425.945312 377.128906 C 425.945312 373.113281 431.96875 373.113281 431.96875 377.128906 "/>
<path style=" stroke:none;fill-rule:nonzero;fill:rgb(100%,84.3%,0%);fill-opacity:1;" d="M 51.707031 358.449219 C 51.707031 362.464844 45.679688 362.464844 45.679688 358.449219 C 45.679688 354.429688 51.707031 354.429688 51.707031 358.449219 "/>
<path style=" stroke:none;fill-rule:nonzero;fill:rgb(100%,84.3%,0%);fill-opacity:1;" d="M 233.101562 377.128906 C 233.101562 381.148438 227.074219 381.148438 227.074219 377.128906 C 227.074219 373.113281 233.101562 373.113281 233.101562 377.128906 "/>
<path style=" stroke:none;fill-rule:nonzero;fill:rgb(100%,84.3%,0%);fill-opacity:1;" d="M 145.113281 134.871094 C 145.113281 138.886719 139.089844 138.886719 139.089844 134.871094 C 139.089844 130.851562 145.113281 130.851562 145.113281 134.871094 "/>
<path style=" stroke:none;fill-rule:nonzero;fill:rgb(100%,84.3%,0%);fill-opacity:1;" d="M 466.320312 226.472656 C 466.320312 230.488281 460.292969 230.488281 460.292969 226.472656 C 460.292969 222.453125 466.320312 222.453125 466.320312 226.472656 "/>
<path style=" stroke:none;fill-rule:nonzero;fill:rgb(100%,84.3%,0%);fill-opacity:1;" d="M 407.863281 377.128906 C 407.863281 381.148438 401.835938 381.148438 401.835938 377.128906 C 401.835938 373.113281 407.863281 373.113281 407.863281 377.128906 "/>
<path style=" stroke:none;fill-rule:nonzero;fill:rgb(100%,84.3%,0%);fill-opacity:1;" d="M 440.40625 134.871094 C 440.40625 138.886719 434.378906 138.886719 434.378906 134.871094 C 434.378906 130.851562 440.40625 130.851562 440.40625 134.871094 "/>
<path style=" stroke:none;fill-rule:nonzero;fill:rgb(100%,84.3%,0%);fill-opacity:1;" d="M 377.730469 377.128906 C 377.730469 381.148438 371.707031 381.148438 371.707031 377.128906 C 371.707031 373.113281 377.730469 373.113281 377.730469 377.128906 "/>
<path style=" stroke:none;fill-rule:nonzero;fill:rgb(100%,84.3%,0%);fill-opacity:1;" d="M 56.925781 156.566406 C 56.925781 160.582031 50.898438 160.582031 50.898438 156.566406 C 50.898438 152.546875 56.925781 152.546875 56.925781 156.566406 "/>
<path style=" stroke:none;fill-rule:nonzero;fill:rgb(100%,84.3%,0%);fill-opacity:1;" d="M 208.390625 140.089844 C 208.390625 144.105469 202.367188 144.105469 202.367188 140.089844 C 202.367188 136.070312 208.390625 136.070312 208.390625 140.089844 "/>
<path style=" stroke:none;fill-rule:nonzero;fill:rgb(100%,84.3%,0%);fill-opacity:1;" d="M 51.707031 249.972656 C 51.707031 253.992188 45.679688 253.992188 45.679688 249.972656 C 45.679688 245.957031 51.707031 245.957031 51.707031 249.972656 "/>
<path style=" stroke:none;fill-rule:nonzero;fill:rgb(100%,84.3%,0%);fill-opacity:1;" d="M 112.570312 377.128906 C 112.570312 381.148438 106.546875 381.148438 106.546875 377.128906 C 106.546875 373.113281 112.570312 373.113281 112.570312 377.128906 "/>
<path style=" stroke:none;fill-rule:nonzero;fill:rgb(100%,84.3%,0%);fill-opacity:1;" d="M 466.320312 310.839844 C 466.320312 314.859375 460.292969 314.859375 460.292969 310.839844 C 460.292969 306.824219 466.320312 306.824219 466.320312 310.839844 "/>
<path style=" stroke:none;fill-rule:nonzero;fill:rgb(100%,84.3%,0%);fill-opacity:1;" d="M 51.707031 310.238281 C 51.707031 314.253906 45.679688 314.253906 45.679688 310.238281 C 45.679688 306.21875 51.707031 306.21875 51.707031 310.238281 "/>
<path style=" stroke:none;fill-rule:nonzero;fill:rgb(100%,84.3%,0%);fill-opacity:1;" d="M 163.796875 371.910156 C 163.796875 375.929688 157.769531 375.929688 157.769531 371.910156 C 157.769531 367.894531 163.796875 367.894531 163.796875 371.910156 "/>
<path style=" stroke:none;fill-rule:nonzero;fill:rgb(100%,84.3%,0%);fill-opacity:1;" d="M 466.320312 280.707031 C 466.320312 284.726562 460.292969 284.726562 460.292969 280.707031 C 460.292969 276.691406 466.320312 276.691406 466.320312 280.707031 "/>
<path style=" stroke:none;fill-rule:nonzero;fill:rgb(100%,84.3%,0%);fill-opacity:1;" d="M 127.636719 371.910156 C 127.636719 375.929688 121.613281 375.929688 121.613281 371.910156 C 121.613281 367.894531 127.636719 367.894531 127.636719 371.910156 "/>
<path style=" stroke:none;fill-rule:nonzero;fill:rgb(100%,84.3%,0%);fill-opacity:1;" d="M 51.707031 141.5 C 51.707031 145.515625 45.679688 145.515625 45.679688 141.5 C 45.679688 137.480469 51.707031 137.480469 51.707031 141.5 "/>
<path style=" stroke:none;fill-rule:nonzero;fill:rgb(100%,84.3%,0%);fill-opacity:1;" d="M 265.640625 134.871094 C 265.640625 138.886719 259.617188 138.886719 259.617188 134.871094 C 259.617188 130.851562 265.640625 130.851562 265.640625 134.871094 "/>
<path style=" stroke:none;fill-rule:nonzero;fill:rgb(100%,84.3%,0%);fill-opacity:1;" d="M 301.800781 134.871094 C 301.800781 138.886719 295.773438 138.886719 295.773438 134.871094 C 295.773438 130.851562 301.800781 130.851562 301.800781 134.871094 "/>
<path style=" stroke:none;fill-rule:nonzero;fill:rgb(100%,84.3%,0%);fill-opacity:1;" d="M 148.730469 377.128906 C 148.730469 381.148438 142.703125 381.148438 142.703125 377.128906 C 142.703125 373.113281 148.730469 373.113281 148.730469 377.128906 "/>
<path style=" stroke:none;fill-rule:nonzero;fill:rgb(100%,84.3%,0%);fill-opacity:1;" d="M 446.433594 134.871094 C 446.433594 138.886719 440.40625 138.886719 440.40625 134.871094 C 440.40625 130.851562 446.433594 130.851562 446.433594 134.871094 "/>
<path style=" stroke:none;fill-rule:nonzero;fill:rgb(100%,84.3%,0%);fill-opacity:1;" d="M 124.625 377.128906 C 124.625 381.148438 118.597656 381.148438 118.597656 377.128906 C 118.597656 373.113281 124.625 373.113281 124.625 377.128906 "/>
<path style=" stroke:none;fill-rule:nonzero;fill:rgb(100%,84.3%,0%);fill-opacity:1;" d="M 257.207031 377.128906 C 257.207031 381.148438 251.179688 381.148438 251.179688 377.128906 C 251.179688 373.113281 257.207031 373.113281 257.207031 377.128906 "/>
<path style=" stroke:none;fill-rule:nonzero;fill:rgb(100%,84.3%,0%);fill-opacity:1;" d="M 323.496094 377.128906 C 323.496094 381.148438 317.46875 381.148438 317.46875 377.128906 C 317.46875 373.113281 323.496094 373.113281 323.496094 377.128906 "/>
<path style=" stroke:none;fill-rule:nonzero;fill:rgb(100%,84.3%,0%);fill-opacity:1;" d="M 404.25 134.871094 C 404.25 138.886719 398.222656 138.886719 398.222656 134.871094 C 398.222656 130.851562 404.25 130.851562 404.25 134.871094 "/>
<path style=" stroke:none;fill-rule:nonzero;fill:rgb(100%,84.3%,0%);fill-opacity:1;" d="M 466.320312 359.050781 C 466.320312 363.070312 460.292969 363.070312 460.292969 359.050781 C 460.292969 355.035156 466.320312 355.035156 466.320312 359.050781 "/>
<path style=" stroke:none;fill-rule:nonzero;fill:rgb(100%,84.3%,0%);fill-opacity:1;" d="M 73.402344 371.910156 C 73.402344 375.929688 67.375 375.929688 67.375 371.910156 C 67.375 367.894531 73.402344 367.894531 73.402344 371.910156 "/>
<path style=" stroke:none;fill-rule:nonzero;fill:rgb(100%,84.3%,0%);fill-opacity:1;" d="M 466.320312 178.261719 C 466.320312 182.277344 460.292969 182.277344 460.292969 178.261719 C 460.292969 174.242188 466.320312 174.242188 466.320312 178.261719 "/>
<path style=" stroke:none;fill-rule:nonzero;fill:rgb(100%,84.3%,0%);fill-opacity:1;" d="M 72.796875 134.871094 C 72.796875 138.886719 66.773438 138.886719 66.773438 134.871094 C 66.773438 130.851562 72.796875 130.851562 72.796875 134.871094 "/>
<path style=" stroke:none;fill-rule:nonzero;fill:rgb(100%,84.3%,0%);fill-opacity:1;" d="M 211.40625 134.871094 C 211.40625 138.886719 205.378906 138.886719 205.378906 134.871094 C 205.378906 130.851562 211.40625 130.851562 211.40625 134.871094 "/>
<path style=" stroke:none;fill-rule:nonzero;fill:rgb(100%,84.3%,0%);fill-opacity:1;" d="M 392.195312 134.871094 C 392.195312 138.886719 386.167969 138.886719 386.167969 134.871094 C 386.167969 130.851562 392.195312 130.851562 392.195312 134.871094 "/>
<path style=" stroke:none;fill-rule:nonzero;fill:rgb(100%,84.3%,0%);fill-opacity:1;" d="M 51.707031 183.683594 C 51.707031 187.703125 45.679688 187.703125 45.679688 183.683594 C 45.679688 179.667969 51.707031 179.667969 51.707031 183.683594 "/>
<path style=" stroke:none;fill-rule:nonzero;fill:rgb(100%,84.3%,0%);fill-opacity:1;" d="M 178.863281 377.128906 C 178.863281 381.148438 172.835938 381.148438 172.835938 377.128906 C 172.835938 373.113281 178.863281 373.113281 178.863281 377.128906 "/>
<path style=" stroke:none;fill-rule:nonzero;fill:rgb(100%,84.3%,0%);fill-opacity:1;" d="M 217.429688 134.871094 C 217.429688 138.886719 211.40625 138.886719 211.40625 134.871094 C 211.40625 130.851562 217.429688 130.851562 217.429688 134.871094 "/>
<path style=" stroke:none;fill-rule:nonzero;fill:rgb(100%,84.3%,0%);fill-opacity:1;" d="M 347.601562 377.128906 C 347.601562 381.148438 341.574219 381.148438 341.574219 377.128906 C 341.574219 373.113281 347.601562 373.113281 347.601562 377.128906 "/>
<path style=" stroke:none;fill-rule:nonzero;fill:rgb(100%,84.3%,0%);fill-opacity:1;" d="M 241.539062 134.871094 C 241.539062 138.886719 235.511719 138.886719 235.511719 134.871094 C 235.511719 130.851562 241.539062 130.851562 241.539062 134.871094 "/>
<path style=" stroke:none;fill-rule:nonzero;fill:rgb(100%,84.3%,0%);fill-opacity:1;" d="M 419.3125 140.089844 C 419.3125 144.105469 413.289062 144.105469 413.289062 140.089844 C 413.289062 136.070312 419.3125 136.070312 419.3125 140.089844 "/>
<path style=" stroke:none;fill-rule:nonzero;fill:rgb(100%,84.3%,0%);fill-opacity:1;" d="M 118.597656 377.128906 C 118.597656 381.148438 112.574219 381.148438 112.574219 377.128906 C 112.574219 373.113281 118.597656 373.113281 118.597656 377.128906 "/>
<path style=" stroke:none;fill-rule:nonzero;fill:rgb(100%,84.3%,0%);fill-opacity:1;" d="M 51.707031 262.027344 C 51.707031 266.042969 45.679688 266.042969 45.679688 262.027344 C 45.679688 258.007812 51.707031 258.007812 51.707031 262.027344 "/>
<path style=" stroke:none;fill-rule:nonzero;fill:rgb(100%,84.3%,0%);fill-opacity:1;" d="M 96.902344 134.871094 C 96.902344 138.886719 90.878906 138.886719 90.878906 134.871094 C 90.878906 130.851562 96.902344 130.851562 96.902344 134.871094 "/>
<path style=" stroke:none;fill-rule:nonzero;fill:rgb(100%,84.3%,0%);fill-opacity:1;" d="M 130.652344 377.128906 C 130.652344 381.148438 124.625 381.148438 124.625 377.128906 C 124.625 373.113281 130.652344 373.113281 130.652344 377.128906 "/>
<path style=" stroke:none;fill-rule:nonzero;fill:rgb(100%,84.3%,0%);fill-opacity:1;" d="M 410.273438 134.871094 C 410.273438 138.886719 404.25 138.886719 404.25 134.871094 C 404.25 130.851562 410.273438 130.851562 410.273438 134.871094 "/>
<path style=" stroke:none;fill-rule:nonzero;fill:rgb(100%,84.3%,0%);fill-opacity:1;" d="M 70.386719 377.128906 C 70.386719 381.148438 64.363281 381.148438 64.363281 377.128906 C 64.363281 373.113281 70.386719 373.113281 70.386719 377.128906 "/>
<path style=" stroke:none;fill-rule:nonzero;fill:rgb(100%,84.3%,0%);fill-opacity:1;" d="M 51.707031 274.078125 C 51.707031 278.097656 45.679688 278.097656 45.679688 274.078125 C 45.679688 270.0625 51.707031 270.0625 51.707031 274.078125 "/>
<path style=" stroke:none;fill-rule:nonzero;fill:rgb(100%,84.3%,0%);fill-opacity:1;" d="M 142.703125 377.128906 C 142.703125 381.148438 136.679688 381.148438 136.679688 377.128906 C 136.679688 373.113281 142.703125 373.113281 142.703125 377.128906 "/>
<path style=" stroke:none;fill-rule:nonzero;fill:rgb(100%,84.3%,0%);fill-opacity:1;" d="M 452.460938 134.871094 C 452.460938 138.886719 446.433594 138.886719 446.433594 134.871094 C 446.433594 130.851562 452.460938 130.851562 452.460938 134.871094 "/>
<path style=" stroke:none;fill-rule:nonzero;fill:rgb(100%,84.3%,0%);fill-opacity:1;" d="M 386.167969 134.871094 C 386.167969 138.886719 380.144531 138.886719 380.144531 134.871094 C 380.144531 130.851562 386.167969 130.851562 386.167969 134.871094 "/>
<path style=" stroke:none;fill-rule:nonzero;fill:rgb(100%,84.3%,0%);fill-opacity:1;" d="M 56.925781 313.25 C 56.925781 317.265625 50.898438 317.265625 50.898438 313.25 C 50.898438 309.234375 56.925781 309.234375 56.925781 313.25 "/>
<path style=" stroke:none;fill-rule:nonzero;fill:rgb(100%,84.3%,0%);fill-opacity:1;" d="M 350.011719 134.871094 C 350.011719 138.886719 343.984375 138.886719 343.984375 134.871094 C 343.984375 130.851562 350.011719 130.851562 350.011719 134.871094 "/>
<path style=" stroke:none;fill-rule:nonzero;fill:rgb(100%,84.3%,0%);fill-opacity:1;" d="M 466.320312 238.523438 C 466.320312 242.542969 460.292969 242.542969 460.292969 238.523438 C 460.292969 234.507812 466.320312 234.507812 466.320312 238.523438 "/>
<path style=" stroke:none;fill-rule:nonzero;fill:rgb(100%,84.3%,0%);fill-opacity:1;" d="M 169.824219 371.910156 C 169.824219 375.929688 163.796875 375.929688 163.796875 371.910156 C 163.796875 367.894531 169.824219 367.894531 169.824219 371.910156 "/>
<path style=" stroke:none;fill-rule:nonzero;fill:rgb(100%,84.3%,0%);fill-opacity:1;" d="M 133.664062 371.910156 C 133.664062 375.929688 127.640625 375.929688 127.640625 371.910156 C 127.640625 367.894531 133.664062 367.894531 133.664062 371.910156 "/>
<path style=" stroke:none;fill-rule:nonzero;fill:rgb(100%,84.3%,0%);fill-opacity:1;" d="M 84.851562 134.871094 C 84.851562 138.886719 78.824219 138.886719 78.824219 134.871094 C 78.824219 130.851562 84.851562 130.851562 84.851562 134.871094 "/>
<path style=" stroke:none;fill-rule:nonzero;fill:rgb(100%,84.3%,0%);fill-opacity:1;" d="M 90.878906 134.871094 C 90.878906 138.886719 84.851562 138.886719 84.851562 134.871094 C 84.851562 130.851562 90.878906 130.851562 90.878906 134.871094 "/>
<path style=" stroke:none;fill-rule:nonzero;fill:rgb(100%,84.3%,0%);fill-opacity:1;" d="M 356.039062 134.871094 C 356.039062 138.886719 350.011719 138.886719 350.011719 134.871094 C 350.011719 130.851562 356.039062 130.851562 356.039062 134.871094 "/>
<path style=" stroke:none;fill-rule:nonzero;fill:rgb(100%,84.3%,0%);fill-opacity:1;" d="M 466.320312 202.363281 C 466.320312 206.382812 460.292969 206.382812 460.292969 202.363281 C 460.292969 198.347656 466.320312 198.347656 466.320312 202.363281 "/>
<path style=" stroke:none;fill-rule:nonzero;fill:rgb(100%,84.3%,0%);fill-opacity:1;" d="M 202.96875 377.128906 C 202.96875 381.148438 196.941406 381.148438 196.941406 377.128906 C 196.941406 373.113281 202.96875 373.113281 202.96875 377.128906 "/>
<path style=" stroke:none;fill-rule:nonzero;fill:rgb(100%,84.3%,0%);fill-opacity:1;" d="M 269.257812 377.128906 C 269.257812 381.148438 263.230469 381.148438 263.230469 377.128906 C 263.230469 373.113281 269.257812 373.113281 269.257812 377.128906 "/>
<path style=" stroke:none;fill-rule:nonzero;fill:rgb(100%,84.3%,0%);fill-opacity:1;" d="M 325.90625 134.871094 C 325.90625 138.886719 319.878906 138.886719 319.878906 134.871094 C 319.878906 130.851562 325.90625 130.851562 325.90625 134.871094 "/>
<path style=" stroke:none;fill-rule:nonzero;fill:rgb(100%,84.3%,0%);fill-opacity:1;" d="M 466.320312 274.683594 C 466.320312 278.699219 460.292969 278.699219 460.292969 274.683594 C 460.292969 270.664062 466.320312 270.664062 466.320312 274.683594 "/>
<path style=" stroke:none;fill-rule:nonzero;fill:rgb(100%,84.3%,0%);fill-opacity:1;" d="M 335.546875 377.128906 C 335.546875 381.148438 329.523438 381.148438 329.523438 377.128906 C 329.523438 373.113281 335.546875 373.113281 335.546875 377.128906 "/>
<path style=" stroke:none;fill-rule:nonzero;fill:rgb(100%,84.3%,0%);fill-opacity:1;" d="M 106.546875 377.128906 C 106.546875 381.148438 100.519531 381.148438 100.519531 377.128906 C 100.519531 373.113281 106.546875 373.113281 106.546875 377.128906 "/>
<path style=" stroke:none;fill-rule:nonzero;fill:rgb(100%,84.3%,0%);fill-opacity:1;" d="M 88.46875 377.128906 C 88.46875 381.148438 82.441406 381.148438 82.441406 377.128906 C 82.441406 373.113281 88.46875 373.113281 88.46875 377.128906 "/>
<path style=" stroke:none;fill-rule:nonzero;fill:rgb(100%,84.3%,0%);fill-opacity:1;" d="M 139.691406 371.910156 C 139.691406 375.929688 133.664062 375.929688 133.664062 371.910156 C 133.664062 367.894531 139.691406 367.894531 139.691406 371.910156 "/>
<path style=" stroke:none;fill-rule:nonzero;fill:rgb(100%,84.3%,0%);fill-opacity:1;" d="M 115.585938 371.910156 C 115.585938 375.929688 109.558594 375.929688 109.558594 371.910156 C 109.558594 367.894531 115.585938 367.894531 115.585938 371.910156 "/>
<path style=" stroke:none;fill-rule:nonzero;fill:rgb(100%,84.3%,0%);fill-opacity:1;" d="M 85.453125 371.910156 C 85.453125 375.929688 79.429688 375.929688 79.429688 371.910156 C 79.429688 367.894531 85.453125 367.894531 85.453125 371.910156 "/>
<path style=" stroke:none;fill-rule:nonzero;fill:rgb(100%,84.3%,0%);fill-opacity:1;" d="M 466.320312 262.628906 C 466.320312 266.648438 460.292969 266.648438 460.292969 262.628906 C 460.292969 258.613281 466.320312 258.613281 466.320312 262.628906 "/>
<path style=" stroke:none;fill-rule:nonzero;fill:rgb(100%,84.3%,0%);fill-opacity:1;" d="M 121.613281 371.910156 C 121.613281 375.929688 115.585938 375.929688 115.585938 371.910156 C 115.585938 367.894531 121.613281 367.894531 121.613281 371.910156 "/>
<path style=" stroke:none;fill-rule:nonzero;fill:rgb(100%,84.3%,0%);fill-opacity:1;" d="M 51.707031 237.921875 C 51.707031 241.9375 45.679688 241.9375 45.679688 237.921875 C 45.679688 233.902344 51.707031 233.902344 51.707031 237.921875 "/>
<path style=" stroke:none;fill-rule:nonzero;fill:rgb(100%,84.3%,0%);fill-opacity:1;" d="M 466.320312 244.550781 C 466.320312 248.566406 460.292969 248.566406 460.292969 244.550781 C 460.292969 240.53125 466.320312 240.53125 466.320312 244.550781 "/>
<path style=" stroke:none;fill-rule:nonzero;fill:rgb(100%,84.3%,0%);fill-opacity:1;" d="M 466.320312 371.105469 C 466.320312 375.121094 460.292969 375.121094 460.292969 371.105469 C 460.292969 367.085938 466.320312 367.085938 466.320312 371.105469 "/>
<path style=" stroke:none;fill-rule:nonzero;fill:rgb(100%,84.3%,0%);fill-opacity:1;" d="M 317.46875 377.128906 C 317.46875 381.148438 311.441406 381.148438 311.441406 377.128906 C 311.441406 373.113281 317.46875 373.113281 317.46875 377.128906 "/>
<path style=" stroke:none;fill-rule:nonzero;fill:rgb(100%,84.3%,0%);fill-opacity:1;" d="M 466.320312 334.945312 C 466.320312 338.960938 460.292969 338.960938 460.292969 334.945312 C 460.292969 330.925781 466.320312 330.925781 466.320312 334.945312 "/>
<path style=" stroke:none;fill-rule:nonzero;fill:rgb(100%,84.3%,0%);fill-opacity:1;" d="M 444.023438 377.128906 C 444.023438 381.148438 437.996094 381.148438 437.996094 377.128906 C 437.996094 373.113281 444.023438 373.113281 444.023438 377.128906 "/>
<path style=" stroke:none;fill-rule:nonzero;fill:rgb(100%,84.3%,0%);fill-opacity:1;" d="M 466.320312 142.101562 C 466.320312 146.121094 460.292969 146.121094 460.292969 142.101562 C 460.292969 138.085938 466.320312 138.085938 466.320312 142.101562 "/>
<path style=" stroke:none;fill-rule:nonzero;fill:rgb(100%,84.3%,0%);fill-opacity:1;" d="M 466.320312 184.285156 C 466.320312 188.304688 460.292969 188.304688 460.292969 184.285156 C 460.292969 180.269531 466.320312 180.269531 466.320312 184.285156 "/>
<path style=" stroke:none;fill-rule:nonzero;fill:rgb(100%,84.3%,0%);fill-opacity:1;" d="M 157.167969 134.871094 C 157.167969 138.886719 151.140625 138.886719 151.140625 134.871094 C 151.140625 130.851562 157.167969 130.851562 157.167969 134.871094 "/>
<path style=" stroke:none;fill-rule:nonzero;fill:rgb(100%,84.3%,0%);fill-opacity:1;" d="M 434.984375 371.910156 C 434.984375 375.929688 428.957031 375.929688 428.957031 371.910156 C 428.957031 367.894531 434.984375 367.894531 434.984375 371.910156 "/>
<path style=" stroke:none;fill-rule:nonzero;fill:rgb(100%,84.3%,0%);fill-opacity:1;" d="M 458.484375 134.871094 C 458.484375 138.886719 452.460938 138.886719 452.460938 134.871094 C 452.460938 130.851562 458.484375 130.851562 458.484375 134.871094 "/>
<path style=" stroke:none;fill-rule:nonzero;fill:rgb(100%,84.3%,0%);fill-opacity:1;" d="M 163.195312 134.871094 C 163.195312 138.886719 157.167969 138.886719 157.167969 134.871094 C 157.167969 130.851562 163.195312 130.851562 163.195312 134.871094 "/>
<path style=" stroke:none;fill-rule:nonzero;fill:rgb(100%,84.3%,0%);fill-opacity:1;" d="M 175.847656 371.910156 C 175.847656 375.929688 169.824219 375.929688 169.824219 371.910156 C 169.824219 367.894531 175.847656 367.894531 175.847656 371.910156 "/>
<path style=" stroke:none;fill-rule:nonzero;fill:rgb(100%,84.3%,0%);fill-opacity:1;" d="M 416.300781 134.871094 C 416.300781 138.886719 410.273438 138.886719 410.273438 134.871094 C 410.273438 130.851562 416.300781 130.851562 416.300781 134.871094 "/>
<path style=" stroke:none;fill-rule:nonzero;fill:rgb(100%,84.3%,0%);fill-opacity:1;" d="M 466.320312 316.867188 C 466.320312 320.882812 460.292969 320.882812 460.292969 316.867188 C 460.292969 312.847656 466.320312 312.847656 466.320312 316.867188 "/>
<path style=" stroke:none;fill-rule:nonzero;fill:rgb(100%,84.3%,0%);fill-opacity:1;" d="M 271.667969 134.871094 C 271.667969 138.886719 265.640625 138.886719 265.640625 134.871094 C 265.640625 130.851562 271.667969 130.851562 271.667969 134.871094 "/>
<path style=" stroke:none;fill-rule:nonzero;fill:rgb(100%,84.3%,0%);fill-opacity:1;" d="M 67.375 371.910156 C 67.375 375.929688 61.347656 375.929688 61.347656 371.910156 C 61.347656 367.894531 67.375 367.894531 67.375 371.910156 "/>
<path style=" stroke:none;fill-rule:nonzero;fill:rgb(100%,84.3%,0%);fill-opacity:1;" d="M 108.957031 134.871094 C 108.957031 138.886719 102.929688 138.886719 102.929688 134.871094 C 102.929688 130.851562 108.957031 130.851562 108.957031 134.871094 "/>
<path style=" stroke:none;fill-rule:nonzero;fill:rgb(100%,84.3%,0%);fill-opacity:1;" d="M 437.996094 377.128906 C 437.996094 381.148438 431.96875 381.148438 431.96875 377.128906 C 431.96875 373.113281 437.996094 373.113281 437.996094 377.128906 "/>
<path style=" stroke:none;fill-rule:nonzero;fill:rgb(100%,84.3%,0%);fill-opacity:1;" d="M 196.941406 377.128906 C 196.941406 381.148438 190.914062 381.148438 190.914062 377.128906 C 190.914062 373.113281 196.941406 373.113281 196.941406 377.128906 "/>
<path style=" stroke:none;fill-rule:nonzero;fill:rgb(100%,84.3%,0%);fill-opacity:1;" d="M 181.273438 134.871094 C 181.273438 138.886719 175.246094 138.886719 175.246094 134.871094 C 175.246094 130.851562 181.273438 130.851562 181.273438 134.871094 "/>
<path style=" stroke:none;fill-rule:nonzero;fill:rgb(100%,84.3%,0%);fill-opacity:1;" d="M 82.441406 377.128906 C 82.441406 381.148438 76.414062 381.148438 76.414062 377.128906 C 76.414062 373.113281 82.441406 373.113281 82.441406 377.128906 "/>
<path style=" stroke:none;fill-rule:nonzero;fill:rgb(100%,84.3%,0%);fill-opacity:1;" d="M 61.347656 371.910156 C 61.347656 375.929688 55.320312 375.929688 55.320312 371.910156 C 55.320312 367.894531 61.347656 367.894531 61.347656 371.910156 "/>
<path style=" stroke:none;fill-rule:nonzero;fill:rgb(100%,84.3%,0%);fill-opacity:1;" d="M 455.472656 140.089844 C 455.472656 144.105469 449.445312 144.105469 449.445312 140.089844 C 449.445312 136.070312 455.472656 136.070312 455.472656 140.089844 "/>
<path style=" stroke:none;fill-rule:nonzero;fill:rgb(100%,84.3%,0%);fill-opacity:1;" d="M 166.808594 377.128906 C 166.808594 381.148438 160.785156 381.148438 160.785156 377.128906 C 160.785156 373.113281 166.808594 373.113281 166.808594 377.128906 "/>
<path style=" stroke:none;fill-rule:nonzero;fill:rgb(100%,84.3%,0%);fill-opacity:1;" d="M 459.089844 371.910156 C 459.089844 375.929688 453.0625 375.929688 453.0625 371.910156 C 453.0625 367.894531 459.089844 367.894531 459.089844 371.910156 "/>
<path style=" stroke:none;fill-rule:nonzero;fill:rgb(100%,84.3%,0%);fill-opacity:1;" d="M 466.320312 214.417969 C 466.320312 218.4375 460.292969 218.4375 460.292969 214.417969 C 460.292969 210.402344 466.320312 210.402344 466.320312 214.417969 "/>
<path style=" stroke:none;fill-rule:nonzero;fill:rgb(100%,84.3%,0%);fill-opacity:1;" d="M 190.914062 377.128906 C 190.914062 381.148438 184.890625 381.148438 184.890625 377.128906 C 184.890625 373.113281 190.914062 373.113281 190.914062 377.128906 "/>
<path style=" stroke:none;fill-rule:nonzero;fill:rgb(100%,84.3%,0%);fill-opacity:1;" d="M 466.320312 286.734375 C 466.320312 290.75 460.292969 290.75 460.292969 286.734375 C 460.292969 282.714844 466.320312 282.714844 466.320312 286.734375 "/>
<path style=" stroke:none;fill-rule:nonzero;fill:rgb(100%,84.3%,0%);fill-opacity:1;" d="M 466.320312 365.078125 C 466.320312 369.09375 460.292969 369.09375 460.292969 365.078125 C 460.292969 361.058594 466.320312 361.058594 466.320312 365.078125 "/>
<path style=" stroke:none;fill-rule:nonzero;fill:rgb(100%,84.3%,0%);fill-opacity:1;" d="M 136.679688 377.128906 C 136.679688 381.148438 130.652344 381.148438 130.652344 377.128906 C 130.652344 373.113281 136.679688 373.113281 136.679688 377.128906 "/>
<path style=" stroke:none;fill-rule:nonzero;fill:rgb(100%,84.3%,0%);fill-opacity:1;" d="M 199.957031 371.910156 C 199.957031 375.929688 193.929688 375.929688 193.929688 371.910156 C 193.929688 367.894531 199.957031 367.894531 199.957031 371.910156 "/>
<path style=" stroke:none;fill-rule:nonzero;fill:rgb(100%,84.3%,0%);fill-opacity:1;" d="M 51.707031 364.476562 C 51.707031 368.492188 45.679688 368.492188 45.679688 364.476562 C 45.679688 360.457031 51.707031 360.457031 51.707031 364.476562 "/>
<path style=" stroke:none;fill-rule:nonzero;fill:rgb(100%,84.3%,0%);fill-opacity:1;" d="M 263.230469 377.128906 C 263.230469 381.148438 257.203125 381.148438 257.203125 377.128906 C 257.203125 373.113281 263.230469 373.113281 263.230469 377.128906 "/>
<path style=" stroke:none;fill-rule:nonzero;fill:rgb(100%,84.3%,0%);fill-opacity:1;" d="M 368.089844 134.871094 C 368.089844 138.886719 362.0625 138.886719 362.0625 134.871094 C 362.0625 130.851562 368.089844 130.851562 368.089844 134.871094 "/>
<path style=" stroke:none;fill-rule:nonzero;fill:rgb(100%,84.3%,0%);fill-opacity:1;" d="M 223.457031 134.871094 C 223.457031 138.886719 217.429688 138.886719 217.429688 134.871094 C 217.429688 130.851562 223.457031 130.851562 223.457031 134.871094 "/>
<path style=" stroke:none;fill-rule:nonzero;fill:rgb(100%,84.3%,0%);fill-opacity:1;" d="M 428.355469 134.871094 C 428.355469 138.886719 422.328125 138.886719 422.328125 134.871094 C 422.328125 130.851562 428.355469 130.851562 428.355469 134.871094 "/>
<path style=" stroke:none;fill-rule:nonzero;fill:rgb(100%,84.3%,0%);fill-opacity:1;" d="M 341.574219 377.128906 C 341.574219 381.148438 335.546875 381.148438 335.546875 377.128906 C 335.546875 373.113281 341.574219 373.113281 341.574219 377.128906 "/>
<path style=" stroke:none;fill-rule:nonzero;fill:rgb(100%,84.3%,0%);fill-opacity:1;" d="M 466.320312 256.601562 C 466.320312 260.621094 460.292969 260.621094 460.292969 256.601562 C 460.292969 252.585938 466.320312 252.585938 466.320312 256.601562 "/>
<path style=" stroke:none;fill-rule:nonzero;fill:rgb(100%,84.3%,0%);fill-opacity:1;" d="M 466.320312 154.152344 C 466.320312 158.171875 460.292969 158.171875 460.292969 154.152344 C 460.292969 150.136719 466.320312 150.136719 466.320312 154.152344 "/>
<path style=" stroke:none;fill-rule:nonzero;fill:rgb(100%,84.3%,0%);fill-opacity:1;" d="M 51.707031 352.421875 C 51.707031 356.441406 45.679688 356.441406 45.679688 352.421875 C 45.679688 348.40625 51.707031 348.40625 51.707031 352.421875 "/>
<path style=" stroke:none;fill-rule:nonzero;fill:rgb(100%,84.3%,0%);fill-opacity:1;" d="M 51.707031 171.632812 C 51.707031 175.648438 45.679688 175.648438 45.679688 171.632812 C 45.679688 167.613281 51.707031 167.613281 51.707031 171.632812 "/>
<path style=" stroke:none;fill-rule:nonzero;fill:rgb(100%,84.3%,0%);fill-opacity:1;" d="M 466.320312 160.179688 C 466.320312 164.199219 460.292969 164.199219 460.292969 160.179688 C 460.292969 156.164062 466.320312 156.164062 466.320312 160.179688 "/>
<path style=" stroke:none;fill-rule:nonzero;fill:rgb(100%,84.3%,0%);fill-opacity:1;" d="M 235.511719 134.871094 C 235.511719 138.886719 229.484375 138.886719 229.484375 134.871094 C 229.484375 130.851562 235.511719 130.851562 235.511719 134.871094 "/>
<path style=" stroke:none;fill-rule:nonzero;fill:rgb(100%,84.3%,0%);fill-opacity:1;" d="M 160.78125 377.128906 C 160.78125 381.148438 154.757812 381.148438 154.757812 377.128906 C 154.757812 373.113281 160.78125 373.113281 160.78125 377.128906 "/>
<path style=" stroke:none;fill-rule:nonzero;fill:rgb(100%,84.3%,0%);fill-opacity:1;" d="M 275.285156 377.128906 C 275.285156 381.148438 269.257812 381.148438 269.257812 377.128906 C 269.257812 373.113281 275.285156 373.113281 275.285156 377.128906 "/>
<path style=" stroke:none;fill-rule:nonzero;fill:rgb(100%,84.3%,0%);fill-opacity:1;" d="M 466.320312 250.574219 C 466.320312 254.59375 460.292969 254.59375 460.292969 250.574219 C 460.292969 246.558594 466.320312 246.558594 466.320312 250.574219 "/>
<path style=" stroke:none;fill-rule:nonzero;fill:rgb(100%,84.3%,0%);fill-opacity:1;" d="M 51.707031 316.265625 C 51.707031 320.28125 45.679688 320.28125 45.679688 316.265625 C 45.679688 312.246094 51.707031 312.246094 51.707031 316.265625 "/>
<path style=" stroke:none;fill-rule:nonzero;fill:rgb(100%,84.3%,0%);fill-opacity:1;" d="M 51.707031 292.15625 C 51.707031 296.175781 45.679688 296.175781 45.679688 292.15625 C 45.679688 288.140625 51.707031 288.140625 51.707031 292.15625 "/>
<path style=" stroke:none;fill-rule:nonzero;fill:rgb(100%,84.3%,0%);fill-opacity:1;" d="M 54.71875 134.871094 C 54.71875 138.886719 48.691406 138.886719 48.691406 134.871094 C 48.691406 130.851562 54.71875 130.851562 54.71875 134.871094 "/>
<path style=" stroke:none;fill-rule:nonzero;fill:rgb(100%,84.3%,0%);fill-opacity:1;" d="M 51.707031 334.34375 C 51.707031 338.359375 45.679688 338.359375 45.679688 334.34375 C 45.679688 330.324219 51.707031 330.324219 51.707031 334.34375 "/>
<path style=" stroke:none;fill-rule:nonzero;fill:rgb(100%,84.3%,0%);fill-opacity:1;" d="M 260.21875 371.910156 C 260.21875 375.929688 254.191406 375.929688 254.191406 371.910156 C 254.191406 367.894531 260.21875 367.894531 260.21875 371.910156 "/>
<path style=" stroke:none;fill-rule:nonzero;fill:rgb(100%,84.3%,0%);fill-opacity:1;" d="M 51.707031 231.894531 C 51.707031 235.914062 45.679688 235.914062 45.679688 231.894531 C 45.679688 227.878906 51.707031 227.878906 51.707031 231.894531 "/>
<path style=" stroke:none;fill-rule:nonzero;fill:rgb(100%,84.3%,0%);fill-opacity:1;" d="M 434.378906 134.871094 C 434.378906 138.886719 428.355469 138.886719 428.355469 134.871094 C 428.355469 130.851562 434.378906 130.851562 434.378906 134.871094 "/>
<path style=" stroke:none;fill-rule:nonzero;fill:rgb(100%,84.3%,0%);fill-opacity:1;" d="M 227.074219 377.128906 C 227.074219 381.148438 221.046875 381.148438 221.046875 377.128906 C 221.046875 373.113281 227.074219 373.113281 227.074219 377.128906 "/>
<path style=" stroke:none;fill-rule:nonzero;fill:rgb(100%,84.3%,0%);fill-opacity:1;" d="M 353.628906 377.128906 C 353.628906 381.148438 347.601562 381.148438 347.601562 377.128906 C 347.601562 373.113281 353.628906 373.113281 353.628906 377.128906 "/>
<path style=" stroke:none;fill-rule:nonzero;fill:rgb(100%,84.3%,0%);fill-opacity:1;" d="M 329.519531 377.128906 C 329.519531 381.148438 323.496094 381.148438 323.496094 377.128906 C 323.496094 373.113281 329.519531 373.113281 329.519531 377.128906 "/>
<path style=" stroke:none;fill-rule:nonzero;fill:rgb(100%,84.3%,0%);fill-opacity:1;" d="M 259.617188 134.871094 C 259.617188 138.886719 253.589844 138.886719 253.589844 134.871094 C 253.589844 130.851562 259.617188 130.851562 259.617188 134.871094 "/>
<path style=" stroke:none;fill-rule:nonzero;fill:rgb(100%,84.3%,0%);fill-opacity:1;" d="M 277.695312 134.871094 C 277.695312 138.886719 271.667969 138.886719 271.667969 134.871094 C 271.667969 130.851562 277.695312 130.851562 277.695312 134.871094 "/>
<path style=" stroke:none;fill-rule:nonzero;fill:rgb(100%,84.3%,0%);fill-opacity:1;" d="M 466.320312 232.496094 C 466.320312 236.515625 460.292969 236.515625 460.292969 232.496094 C 460.292969 228.480469 466.320312 228.480469 466.320312 232.496094 "/>
<path style=" stroke:none;fill-rule:nonzero;fill:rgb(100%,84.3%,0%);fill-opacity:1;" d="M 287.335938 377.128906 C 287.335938 381.148438 281.3125 381.148438 281.3125 377.128906 C 281.3125 373.113281 287.335938 373.113281 287.335938 377.128906 "/>
<path style=" stroke:none;fill-rule:nonzero;fill:rgb(100%,84.3%,0%);fill-opacity:1;" d="M 103.53125 371.910156 C 103.53125 375.929688 97.507812 375.929688 97.507812 371.910156 C 97.507812 367.894531 103.53125 367.894531 103.53125 371.910156 "/>
<path style=" stroke:none;fill-rule:nonzero;fill:rgb(100%,84.3%,0%);fill-opacity:1;" d="M 464.511719 134.871094 C 464.511719 138.886719 458.484375 138.886719 458.484375 134.871094 C 458.484375 130.851562 464.511719 130.851562 464.511719 134.871094 "/>
<path style=" stroke:none;fill-rule:nonzero;fill:rgb(100%,84.3%,0%);fill-opacity:1;" d="M 94.492188 377.128906 C 94.492188 381.148438 88.46875 381.148438 88.46875 377.128906 C 88.46875 373.113281 94.492188 373.113281 94.492188 377.128906 "/>
<path style=" stroke:none;fill-rule:nonzero;fill:rgb(100%,84.3%,0%);fill-opacity:1;" d="M 362.0625 134.871094 C 362.0625 138.886719 356.039062 138.886719 356.039062 134.871094 C 356.039062 130.851562 362.0625 130.851562 362.0625 134.871094 "/>
<path style=" stroke:none;fill-rule:nonzero;fill:rgb(100%,84.3%,0%);fill-opacity:1;" d="M 79.425781 371.910156 C 79.425781 375.929688 73.402344 375.929688 73.402344 371.910156 C 73.402344 367.894531 79.425781 367.894531 79.425781 371.910156 "/>
<path style=" stroke:none;fill-rule:nonzero;fill:rgb(100%,84.3%,0%);fill-opacity:1;" d="M 466.320312 208.390625 C 466.320312 212.410156 460.292969 212.410156 460.292969 208.390625 C 460.292969 204.375 466.320312 204.375 466.320312 208.390625 "/>
<path style=" stroke:none;fill-rule:nonzero;fill:rgb(100%,84.3%,0%);fill-opacity:1;" d="M 199.351562 134.871094 C 199.351562 138.886719 193.324219 138.886719 193.324219 134.871094 C 193.324219 130.851562 199.351562 130.851562 199.351562 134.871094 "/>
<path style=" stroke:none;fill-rule:nonzero;fill:rgb(100%,84.3%,0%);fill-opacity:1;" d="M 114.984375 134.871094 C 114.984375 138.886719 108.957031 138.886719 108.957031 134.871094 C 108.957031 130.851562 114.984375 130.851562 114.984375 134.871094 "/>
<path style=" stroke:none;fill-rule:nonzero;fill:rgb(100%,84.3%,0%);fill-opacity:1;" d="M 281.3125 377.128906 C 281.3125 381.148438 275.285156 381.148438 275.285156 377.128906 C 275.285156 373.113281 281.3125 373.113281 281.3125 377.128906 "/>
<path style=" stroke:none;fill-rule:nonzero;fill:rgb(100%,84.3%,0%);fill-opacity:1;" d="M 229.484375 134.871094 C 229.484375 138.886719 223.457031 138.886719 223.457031 134.871094 C 223.457031 130.851562 229.484375 130.851562 229.484375 134.871094 "/>
<path style=" stroke:none;fill-rule:nonzero;fill:rgb(100%,84.3%,0%);fill-opacity:1;" d="M 51.707031 243.945312 C 51.707031 247.964844 45.679688 247.964844 45.679688 243.945312 C 45.679688 239.929688 51.707031 239.929688 51.707031 243.945312 "/>
<path style=" stroke:none;fill-rule:nonzero;fill:rgb(100%,84.3%,0%);fill-opacity:1;" d="M 100.519531 377.128906 C 100.519531 381.148438 94.492188 381.148438 94.492188 377.128906 C 94.492188 373.113281 100.519531 373.113281 100.519531 377.128906 "/>
<path style=" stroke:none;fill-rule:nonzero;fill:rgb(100%,84.3%,0%);fill-opacity:1;" d="M 311.441406 377.128906 C 311.441406 381.148438 305.414062 381.148438 305.414062 377.128906 C 305.414062 373.113281 311.441406 373.113281 311.441406 377.128906 "/>
<path style=" stroke:none;fill-rule:nonzero;fill:rgb(100%,84.3%,0%);fill-opacity:1;" d="M 58.335938 377.128906 C 58.335938 381.148438 52.308594 381.148438 52.308594 377.128906 C 52.308594 373.113281 58.335938 373.113281 58.335938 377.128906 "/>
<path style=" stroke:none;fill-rule:nonzero;fill:rgb(100%,84.3%,0%);fill-opacity:1;" d="M 187.300781 134.871094 C 187.300781 138.886719 181.273438 138.886719 181.273438 134.871094 C 181.273438 130.851562 187.300781 130.851562 187.300781 134.871094 "/>
<path style=" stroke:none;fill-rule:nonzero;fill:rgb(100%,84.3%,0%);fill-opacity:1;" d="M 51.707031 153.550781 C 51.707031 157.570312 45.679688 157.570312 45.679688 153.550781 C 45.679688 149.535156 51.707031 149.535156 51.707031 153.550781 "/>
<path style=" stroke:none;fill-rule:nonzero;fill:rgb(100%,84.3%,0%);fill-opacity:1;" d="M 215.019531 377.128906 C 215.019531 381.148438 208.996094 381.148438 208.996094 377.128906 C 208.996094 373.113281 215.019531 373.113281 215.019531 377.128906 "/>
<path style=" stroke:none;fill-rule:nonzero;fill:rgb(100%,84.3%,0%);fill-opacity:1;" d="M 221.046875 377.128906 C 221.046875 381.148438 215.019531 381.148438 215.019531 377.128906 C 215.019531 373.113281 221.046875 373.113281 221.046875 377.128906 "/>
<path style=" stroke:none;fill-rule:nonzero;fill:rgb(100%,84.3%,0%);fill-opacity:1;" d="M 51.707031 147.523438 C 51.707031 151.542969 45.679688 151.542969 45.679688 147.523438 C 45.679688 143.507812 51.707031 143.507812 51.707031 147.523438 "/>
<path style=" stroke:none;fill-rule:nonzero;fill:rgb(100%,84.3%,0%);fill-opacity:1;" d="M 283.722656 134.871094 C 283.722656 138.886719 277.695312 138.886719 277.695312 134.871094 C 277.695312 130.851562 283.722656 130.851562 283.722656 134.871094 "/>
<path style=" stroke:none;fill-rule:nonzero;fill:rgb(100%,84.3%,0%);fill-opacity:1;" d="M 151.746094 371.910156 C 151.746094 375.929688 145.71875 375.929688 145.71875 371.910156 C 145.71875 367.894531 151.746094 367.894531 151.746094 371.910156 "/>
<path style=" stroke:none;fill-rule:nonzero;fill:rgb(100%,84.3%,0%);fill-opacity:1;" d="M 64.359375 377.128906 C 64.359375 381.148438 58.335938 381.148438 58.335938 377.128906 C 58.335938 373.113281 64.359375 373.113281 64.359375 377.128906 "/>
<path style=" stroke:none;fill-rule:nonzero;fill:rgb(100%,84.3%,0%);fill-opacity:1;" d="M 319.878906 134.871094 C 319.878906 138.886719 313.851562 138.886719 313.851562 134.871094 C 313.851562 130.851562 319.878906 130.851562 319.878906 134.871094 "/>
<path style=" stroke:none;fill-rule:nonzero;fill:rgb(100%,84.3%,0%);fill-opacity:1;" d="M 343.984375 134.871094 C 343.984375 138.886719 337.957031 138.886719 337.957031 134.871094 C 337.957031 130.851562 343.984375 130.851562 343.984375 134.871094 "/>
<path style=" stroke:none;fill-rule:nonzero;fill:rgb(100%,84.3%,0%);fill-opacity:1;" d="M 289.746094 134.871094 C 289.746094 138.886719 283.722656 138.886719 283.722656 134.871094 C 283.722656 130.851562 289.746094 130.851562 289.746094 134.871094 "/>
<path style=" stroke:none;fill-rule:nonzero;fill:rgb(100%,84.3%,0%);fill-opacity:1;" d="M 172.835938 377.128906 C 172.835938 381.148438 166.808594 381.148438 166.808594 377.128906 C 166.808594 373.113281 172.835938 373.113281 172.835938 377.128906 "/>
<path style=" stroke:none;fill-rule:nonzero;fill:rgb(100%,84.3%,0%);fill-opacity:1;" d="M 51.707031 256 C 51.707031 260.015625 45.679688 260.015625 45.679688 256 C 45.679688 251.984375 51.707031 251.984375 51.707031 256 "/>
<path style=" stroke:none;fill-rule:nonzero;fill:rgb(100%,84.3%,0%);fill-opacity:1;" d="M 51.707031 268.054688 C 51.707031 272.070312 45.679688 272.070312 45.679688 268.054688 C 45.679688 264.035156 51.707031 264.035156 51.707031 268.054688 "/>
<path style=" stroke:none;fill-rule:nonzero;fill:rgb(100%,84.3%,0%);fill-opacity:1;" d="M 109.558594 371.910156 C 109.558594 375.929688 103.53125 375.929688 103.53125 371.910156 C 103.53125 367.894531 109.558594 367.894531 109.558594 371.910156 "/>
<path style=" stroke:none;fill-rule:nonzero;fill:rgb(100%,84.3%,0%);fill-opacity:1;" d="M 419.917969 377.128906 C 419.917969 381.148438 413.890625 381.148438 413.890625 377.128906 C 413.890625 373.113281 419.917969 373.113281 419.917969 377.128906 "/>
<path style=" stroke:none;fill-rule:nonzero;fill:rgb(100%,84.3%,0%);fill-opacity:1;" d="M 157.769531 371.910156 C 157.769531 375.929688 151.742188 375.929688 151.742188 371.910156 C 151.742188 367.894531 157.769531 367.894531 157.769531 371.910156 "/>
<path style=" stroke:none;fill-rule:nonzero;fill:rgb(100%,84.3%,0%);fill-opacity:1;" d="M 413.890625 377.128906 C 413.890625 381.148438 407.863281 381.148438 407.863281 377.128906 C 407.863281 373.113281 413.890625 373.113281 413.890625 377.128906 "/>
<path style=" stroke:none;fill-rule:nonzero;fill:rgb(100%,84.3%,0%);fill-opacity:1;" d="M 205.378906 134.871094 C 205.378906 138.886719 199.351562 138.886719 199.351562 134.871094 C 199.351562 130.851562 205.378906 130.851562 205.378906 134.871094 "/>
<path style=" stroke:none;fill-rule:nonzero;fill:rgb(100%,84.3%,0%);fill-opacity:1;" d="M 151.140625 134.871094 C 151.140625 138.886719 145.113281 138.886719 145.113281 134.871094 C 145.113281 130.851562 151.140625 130.851562 151.140625 134.871094 "/>
<path style=" stroke:none;fill-rule:nonzero;fill:rgb(100%,84.3%,0%);fill-opacity:1;" d="M 466.320312 166.207031 C 466.320312 170.222656 460.292969 170.222656 460.292969 166.207031 C 460.292969 162.1875 466.320312 162.1875 466.320312 166.207031 "/>
<path style=" stroke:none;fill-rule:nonzero;fill:rgb(100%,84.3%,0%);fill-opacity:1;" d="M 97.507812 371.910156 C 97.507812 375.929688 91.480469 375.929688 91.480469 371.910156 C 91.480469 367.894531 97.507812 367.894531 97.507812 371.910156 "/>
<path style=" stroke:none;fill-rule:nonzero;fill:rgb(100%,84.3%,0%);fill-opacity:1;" d="M 52.308594 377.128906 C 52.308594 381.148438 46.28125 381.148438 46.28125 377.128906 C 46.28125 373.113281 52.308594 373.113281 52.308594 377.128906 "/>
<path style=" stroke:none;fill-rule:nonzero;fill:rgb(100%,84.3%,0%);fill-opacity:1;" d="M 344.585938 371.910156 C 344.585938 375.929688 338.5625 375.929688 338.5625 371.910156 C 338.5625 367.894531 344.585938 367.894531 344.585938 371.910156 "/>
<path style=" stroke:none;fill-rule:nonzero;fill:rgb(100%,84.3%,0%);fill-opacity:1;" d="M 51.707031 340.367188 C 51.707031 344.386719 45.679688 344.386719 45.679688 340.367188 C 45.679688 336.351562 51.707031 336.351562 51.707031 340.367188 "/>
<path style=" stroke:none;fill-rule:nonzero;fill:rgb(100%,84.3%,0%);fill-opacity:1;" d="M 466.320312 340.972656 C 466.320312 344.988281 460.292969 344.988281 460.292969 340.972656 C 460.292969 336.953125 466.320312 336.953125 466.320312 340.972656 "/>
<path style=" stroke:none;fill-rule:nonzero;fill:rgb(100%,84.3%,0%);fill-opacity:1;" d="M 395.8125 377.128906 C 395.8125 381.148438 389.785156 381.148438 389.785156 377.128906 C 389.785156 373.113281 395.8125 373.113281 395.8125 377.128906 "/>
<path style=" stroke:none;fill-rule:nonzero;fill:rgb(100%,84.3%,0%);fill-opacity:1;" d="M 51.707031 159.578125 C 51.707031 163.59375 45.679688 163.59375 45.679688 159.578125 C 45.679688 155.558594 51.707031 155.558594 51.707031 159.578125 "/>
<path style=" stroke:none;fill-rule:nonzero;fill:rgb(100%,84.3%,0%);fill-opacity:1;" d="M 365.679688 377.128906 C 365.679688 381.148438 359.652344 381.148438 359.652344 377.128906 C 359.652344 373.113281 365.679688 373.113281 365.679688 377.128906 "/>
<path style=" stroke:none;fill-rule:nonzero;fill:rgb(100%,84.3%,0%);fill-opacity:1;" d="M 51.707031 213.816406 C 51.707031 217.832031 45.679688 217.832031 45.679688 213.816406 C 45.679688 209.796875 51.707031 209.796875 51.707031 213.816406 "/>
<path style=" stroke:none;fill-rule:nonzero;fill:rgb(100%,84.3%,0%);fill-opacity:1;" d="M 251.179688 377.128906 C 251.179688 381.148438 245.152344 381.148438 245.152344 377.128906 C 245.152344 373.113281 251.179688 373.113281 251.179688 377.128906 "/>
<path style=" stroke:none;fill-rule:nonzero;fill:rgb(100%,84.3%,0%);fill-opacity:1;" d="M 401.839844 377.128906 C 401.839844 381.148438 395.8125 381.148438 395.8125 377.128906 C 395.8125 373.113281 401.839844 373.113281 401.839844 377.128906 "/>
<path style=" stroke:none;fill-rule:nonzero;fill:rgb(100%,84.3%,0%);fill-opacity:1;" d="M 466.320312 377.128906 C 466.320312 381.148438 460.292969 381.148438 460.292969 377.128906 C 460.292969 373.113281 466.320312 373.113281 466.320312 377.128906 "/>
<path style=" stroke:none;fill-rule:nonzero;fill:rgb(100%,84.3%,0%);fill-opacity:1;" d="M 371.707031 377.128906 C 371.707031 381.148438 365.679688 381.148438 365.679688 377.128906 C 365.679688 373.113281 371.707031 373.113281 371.707031 377.128906 "/>
<path style=" stroke:none;fill-rule:nonzero;fill:rgb(100%,84.3%,0%);fill-opacity:1;" d="M 307.828125 134.871094 C 307.828125 138.886719 301.800781 138.886719 301.800781 134.871094 C 301.800781 130.851562 307.828125 130.851562 307.828125 134.871094 "/>
<path style=" stroke:none;fill-rule:nonzero;fill:rgb(100%,84.3%,0%);fill-opacity:1;" d="M 51.707031 280.105469 C 51.707031 284.121094 45.679688 284.121094 45.679688 280.105469 C 45.679688 276.085938 51.707031 276.085938 51.707031 280.105469 "/>
<path style=" stroke:none;fill-rule:nonzero;fill:rgb(100%,84.3%,0%);fill-opacity:1;" d="M 139.089844 134.871094 C 139.089844 138.886719 133.0625 138.886719 133.0625 134.871094 C 133.0625 130.851562 139.089844 130.851562 139.089844 134.871094 "/>
<path style=" stroke:none;fill-rule:nonzero;fill:rgb(100%,84.3%,0%);fill-opacity:1;" d="M 374.117188 134.871094 C 374.117188 138.886719 368.089844 138.886719 368.089844 134.871094 C 368.089844 130.851562 374.117188 130.851562 374.117188 134.871094 "/>
<path style=" stroke:none;fill-rule:nonzero;fill:rgb(100%,84.3%,0%);fill-opacity:1;" d="M 133.0625 134.871094 C 133.0625 138.886719 127.035156 138.886719 127.035156 134.871094 C 127.035156 130.851562 133.0625 130.851562 133.0625 134.871094 "/>
<path style=" stroke:none;fill-rule:nonzero;fill:rgb(100%,84.3%,0%);fill-opacity:1;" d="M 181.875 371.910156 C 181.875 375.929688 175.851562 375.929688 175.851562 371.910156 C 175.851562 367.894531 181.875 367.894531 181.875 371.910156 "/>
<path style=" stroke:none;fill-rule:nonzero;fill:rgb(100%,84.3%,0%);fill-opacity:1;" d="M 51.707031 346.394531 C 51.707031 350.414062 45.679688 350.414062 45.679688 346.394531 C 45.679688 342.378906 51.707031 342.378906 51.707031 346.394531 "/>
<path style=" stroke:none;fill-rule:nonzero;fill:rgb(100%,84.3%,0%);fill-opacity:1;" d="M 359.652344 377.128906 C 359.652344 381.148438 353.625 381.148438 353.625 377.128906 C 353.625 373.113281 359.652344 373.113281 359.652344 377.128906 "/>
<path style=" stroke:none;fill-rule:nonzero;fill:rgb(100%,84.3%,0%);fill-opacity:1;" d="M 456.074219 377.128906 C 456.074219 381.148438 450.046875 381.148438 450.046875 377.128906 C 450.046875 373.113281 456.074219 373.113281 456.074219 377.128906 "/>
<path style=" stroke:none;fill-rule:nonzero;fill:rgb(100%,84.3%,0%);fill-opacity:1;" d="M 398.222656 134.871094 C 398.222656 138.886719 392.195312 138.886719 392.195312 134.871094 C 392.195312 130.851562 398.222656 130.851562 398.222656 134.871094 "/>
<path style=" stroke:none;fill-rule:nonzero;fill:rgb(100%,84.3%,0%);fill-opacity:1;" d="M 253.589844 134.871094 C 253.589844 138.886719 247.5625 138.886719 247.5625 134.871094 C 247.5625 130.851562 253.589844 130.851562 253.589844 134.871094 "/>
<path style=" stroke:none;fill-rule:nonzero;fill:rgb(100%,84.3%,0%);fill-opacity:1;" d="M 380.144531 134.871094 C 380.144531 138.886719 374.117188 138.886719 374.117188 134.871094 C 374.117188 130.851562 380.144531 130.851562 380.144531 134.871094 "/>
<path style=" stroke:none;fill-rule:nonzero;fill:rgb(100%,84.3%,0%);fill-opacity:1;" d="M 66.773438 134.871094 C 66.773438 138.886719 60.746094 138.886719 60.746094 134.871094 C 60.746094 130.851562 66.773438 130.851562 66.773438 134.871094 "/>
<path style=" stroke:none;fill-rule:nonzero;fill:rgb(100%,84.3%,0%);fill-opacity:1;" d="M 422.328125 134.871094 C 422.328125 138.886719 416.300781 138.886719 416.300781 134.871094 C 416.300781 130.851562 422.328125 130.851562 422.328125 134.871094 "/>
<path style=" stroke:none;fill-rule:nonzero;fill:rgb(100%,84.3%,0%);fill-opacity:1;" d="M 304.8125 140.089844 C 304.8125 144.105469 298.785156 144.105469 298.785156 140.089844 C 298.785156 136.070312 304.8125 136.070312 304.8125 140.089844 "/>
<path style=" stroke:none;fill-rule:nonzero;fill:rgb(100%,84.3%,0%);fill-opacity:1;" d="M 466.320312 268.65625 C 466.320312 272.671875 460.292969 272.671875 460.292969 268.65625 C 460.292969 264.636719 466.320312 264.636719 466.320312 268.65625 "/>
<path style=" stroke:none;fill-rule:nonzero;fill:rgb(100%,84.3%,0%);fill-opacity:1;" d="M 51.707031 304.210938 C 51.707031 308.230469 45.679688 308.230469 45.679688 304.210938 C 45.679688 300.195312 51.707031 300.195312 51.707031 304.210938 "/>
<path style=" stroke:none;fill-rule:nonzero;fill:rgb(100%,84.3%,0%);fill-opacity:1;" d="M 383.757812 377.128906 C 383.757812 381.148438 377.734375 381.148438 377.734375 377.128906 C 377.734375 373.113281 383.757812 373.113281 383.757812 377.128906 "/>
<path style=" stroke:none;fill-rule:nonzero;fill:rgb(100%,84.3%,0%);fill-opacity:1;" d="M 205.980469 371.910156 C 205.980469 375.929688 199.953125 375.929688 199.953125 371.910156 C 199.953125 367.894531 205.980469 367.894531 205.980469 371.910156 "/>
<path style=" stroke:none;fill-rule:nonzero;fill:rgb(100%,84.3%,0%);fill-opacity:1;" d="M 154.757812 377.128906 C 154.757812 381.148438 148.730469 381.148438 148.730469 377.128906 C 148.730469 373.113281 154.757812 373.113281 154.757812 377.128906 "/>
<path style=" stroke:none;fill-rule:nonzero;fill:rgb(100%,84.3%,0%);fill-opacity:1;" d="M 245.152344 377.128906 C 245.152344 381.148438 239.125 381.148438 239.125 377.128906 C 239.125 373.113281 245.152344 373.113281 245.152344 377.128906 "/>
<path style=" stroke:none;fill-rule:nonzero;fill:rgb(100%,84.3%,0%);fill-opacity:1;" d="M 184.890625 377.128906 C 184.890625 381.148438 178.863281 381.148438 178.863281 377.128906 C 178.863281 373.113281 184.890625 373.113281 184.890625 377.128906 "/>
<path style=" stroke:none;fill-rule:nonzero;fill:rgb(100%,84.3%,0%);fill-opacity:1;" d="M 386.773438 371.910156 C 386.773438 375.929688 380.746094 375.929688 380.746094 371.910156 C 380.746094 367.894531 386.773438 367.894531 386.773438 371.910156 "/>
<path style=" stroke:none;fill-rule:nonzero;fill:rgb(100%,84.3%,0%);fill-opacity:1;" d="M 313.851562 134.871094 C 313.851562 138.886719 307.828125 138.886719 307.828125 134.871094 C 307.828125 130.851562 313.851562 130.851562 313.851562 134.871094 "/>
<path style=" stroke:none;fill-rule:nonzero;fill:rgb(100%,84.3%,0%);fill-opacity:1;" d="M 91.480469 371.910156 C 91.480469 375.929688 85.453125 375.929688 85.453125 371.910156 C 85.453125 367.894531 91.480469 367.894531 91.480469 371.910156 "/>
<path style=" stroke:none;fill-rule:nonzero;fill:rgb(100%,84.3%,0%);fill-opacity:1;" d="M 51.707031 219.84375 C 51.707031 223.859375 45.679688 223.859375 45.679688 219.84375 C 45.679688 215.824219 51.707031 215.824219 51.707031 219.84375 "/>
<path style=" stroke:none;fill-rule:nonzero;fill:rgb(100%,84.3%,0%);fill-opacity:1;" d="M 449.445312 140.089844 C 449.445312 144.105469 443.417969 144.105469 443.417969 140.089844 C 443.417969 136.070312 449.445312 136.070312 449.445312 140.089844 "/>
<path style=" stroke:none;fill-rule:nonzero;fill:rgb(100%,84.3%,0%);fill-opacity:1;" d="M 127.035156 134.871094 C 127.035156 138.886719 121.011719 138.886719 121.011719 134.871094 C 121.011719 130.851562 127.035156 130.851562 127.035156 134.871094 "/>
<path style=" stroke:none;fill-rule:nonzero;fill:rgb(100%,84.3%,0%);fill-opacity:1;" d="M 450.050781 377.128906 C 450.050781 381.148438 444.023438 381.148438 444.023438 377.128906 C 444.023438 373.113281 450.050781 373.113281 450.050781 377.128906 "/>
<path style=" stroke:none;fill-rule:nonzero;fill:rgb(100%,84.3%,0%);fill-opacity:1;" d="M 60.746094 134.871094 C 60.746094 138.886719 54.71875 138.886719 54.71875 134.871094 C 54.71875 130.851562 60.746094 130.851562 60.746094 134.871094 "/>
<path style=" stroke:none;fill-rule:nonzero;fill:rgb(100%,84.3%,0%);fill-opacity:1;" d="M 208.996094 377.128906 C 208.996094 381.148438 202.96875 381.148438 202.96875 377.128906 C 202.96875 373.113281 208.996094 373.113281 208.996094 377.128906 "/>
<path style=" stroke:none;fill-rule:nonzero;fill:rgb(100%,84.3%,0%);fill-opacity:1;" d="M 466.320312 190.3125 C 466.320312 194.332031 460.292969 194.332031 460.292969 190.3125 C 460.292969 186.296875 466.320312 186.296875 466.320312 190.3125 "/>
<path style=" stroke:none;fill-rule:nonzero;fill:rgb(100%,84.3%,0%);fill-opacity:1;" d="M 51.707031 370.5 C 51.707031 374.519531 45.679688 374.519531 45.679688 370.5 C 45.679688 366.484375 51.707031 366.484375 51.707031 370.5 "/>
<path style=" stroke:none;fill-rule:nonzero;fill:rgb(100%,84.3%,0%);fill-opacity:1;" d="M 425.941406 377.128906 C 425.941406 381.148438 419.917969 381.148438 419.917969 377.128906 C 419.917969 373.113281 425.941406 373.113281 425.941406 377.128906 "/>
<path style=" stroke:none;fill-rule:nonzero;fill:rgb(100%,84.3%,0%);fill-opacity:1;" d="M 466.320312 196.339844 C 466.320312 200.355469 460.292969 200.355469 460.292969 196.339844 C 460.292969 192.320312 466.320312 192.320312 466.320312 196.339844 "/>
<path style=" stroke:none;fill-rule:nonzero;fill:rgb(100%,84.3%,0%);fill-opacity:1;" d="M 56.925781 367.488281 C 56.925781 371.503906 50.898438 371.503906 50.898438 367.488281 C 50.898438 363.46875 56.925781 363.46875 56.925781 367.488281 "/>
<path style=" stroke:none;fill-rule:nonzero;fill:rgb(100%,84.3%,0%);fill-opacity:1;" d="M 466.320312 220.445312 C 466.320312 224.460938 460.292969 224.460938 460.292969 220.445312 C 460.292969 216.425781 466.320312 216.425781 466.320312 220.445312 "/>
<path style=" stroke:none;fill-rule:nonzero;fill:rgb(100%,84.3%,0%);fill-opacity:1;" d="M 193.328125 134.871094 C 193.328125 138.886719 187.300781 138.886719 187.300781 134.871094 C 187.300781 130.851562 193.328125 130.851562 193.328125 134.871094 "/>
<path style=" stroke:none;fill-rule:nonzero;fill:rgb(100%,84.3%,0%);fill-opacity:1;" d="M 466.320312 328.917969 C 466.320312 332.9375 460.292969 332.9375 460.292969 328.917969 C 460.292969 324.902344 466.320312 324.902344 466.320312 328.917969 "/>
<path style=" stroke:none;fill-rule:nonzero;fill:rgb(100%,84.3%,0%);fill-opacity:1;" d="M 226.472656 140.089844 C 226.472656 144.105469 220.445312 144.105469 220.445312 140.089844 C 220.445312 136.070312 226.472656 136.070312 226.472656 140.089844 "/>
<path style=" stroke:none;fill-rule:nonzero;fill:rgb(100%,84.3%,0%);fill-opacity:1;" d="M 262.628906 140.089844 C 262.628906 144.105469 256.601562 144.105469 256.601562 140.089844 C 256.601562 136.070312 262.628906 136.070312 262.628906 140.089844 "/>
<path style=" stroke:none;fill-rule:nonzero;fill:rgb(100%,84.3%,0%);fill-opacity:1;" d="M 239.125 377.128906 C 239.125 381.148438 233.101562 381.148438 233.101562 377.128906 C 233.101562 373.113281 239.125 373.113281 239.125 377.128906 "/>
<path style=" stroke:none;fill-rule:nonzero;fill:rgb(100%,84.3%,0%);fill-opacity:1;" d="M 466.320312 304.8125 C 466.320312 308.832031 460.292969 308.832031 460.292969 304.8125 C 460.292969 300.796875 466.320312 300.796875 466.320312 304.8125 "/>
<path style=" stroke:none;fill-rule:nonzero;fill:rgb(100%,84.3%,0%);fill-opacity:1;" d="M 51.707031 165.605469 C 51.707031 169.621094 45.679688 169.621094 45.679688 165.605469 C 45.679688 161.585938 51.707031 161.585938 51.707031 165.605469 "/>
<path style=" stroke:none;fill-rule:nonzero;fill:rgb(100%,84.3%,0%);fill-opacity:1;" d="M 236.113281 371.910156 C 236.113281 375.929688 230.085938 375.929688 230.085938 371.910156 C 230.085938 367.894531 236.113281 367.894531 236.113281 371.910156 "/>
<path style=" stroke:none;fill-rule:nonzero;fill:rgb(100%,84.3%,0%);fill-opacity:1;" d="M 293.363281 377.128906 C 293.363281 381.148438 287.335938 381.148438 287.335938 377.128906 C 287.335938 373.113281 293.363281 373.113281 293.363281 377.128906 "/>
<path style=" stroke:none;fill-rule:nonzero;fill:rgb(100%,84.3%,0%);fill-opacity:1;" d="M 145.71875 371.910156 C 145.71875 375.929688 139.691406 375.929688 139.691406 371.910156 C 139.691406 367.894531 145.71875 367.894531 145.71875 371.910156 "/>
<path style=" stroke:none;fill-rule:nonzero;fill:rgb(100%,84.3%,0%);fill-opacity:1;" d="M 51.707031 328.316406 C 51.707031 332.332031 45.679688 332.332031 45.679688 328.316406 C 45.679688 324.296875 51.707031 324.296875 51.707031 328.316406 "/>
<path style=" stroke:none;fill-rule:nonzero;fill:rgb(100%,84.3%,0%);fill-opacity:1;" d="M 337.957031 134.871094 C 337.957031 138.886719 331.933594 138.886719 331.933594 134.871094 C 331.933594 130.851562 337.957031 130.851562 337.957031 134.871094 "/>
<path style=" stroke:none;fill-rule:nonzero;fill:rgb(100%,84.3%,0%);fill-opacity:1;" d="M 51.707031 207.789062 C 51.707031 211.804688 45.679688 211.804688 45.679688 207.789062 C 45.679688 203.769531 51.707031 203.769531 51.707031 207.789062 "/>
<path style=" stroke:none;fill-rule:nonzero;fill:rgb(100%,84.3%,0%);fill-opacity:1;" d="M 51.707031 225.867188 C 51.707031 229.886719 45.679688 229.886719 45.679688 225.867188 C 45.679688 221.851562 51.707031 221.851562 51.707031 225.867188 "/>
<path style=" stroke:none;fill-rule:nonzero;fill:rgb(100%,84.3%,0%);fill-opacity:1;" d="M 359.050781 140.089844 C 359.050781 144.105469 353.023438 144.105469 353.023438 140.089844 C 353.023438 136.070312 359.050781 136.070312 359.050781 140.089844 "/>
<path style=" stroke:none;fill-rule:nonzero;fill:rgb(100%,84.3%,0%);fill-opacity:1;" d="M 121.007812 134.871094 C 121.007812 138.886719 114.984375 138.886719 114.984375 134.871094 C 114.984375 130.851562 121.007812 130.851562 121.007812 134.871094 "/>
<path style=" stroke:none;fill-rule:nonzero;fill:rgb(100%,84.3%,0%);fill-opacity:1;" d="M 51.707031 298.183594 C 51.707031 302.203125 45.679688 302.203125 45.679688 298.183594 C 45.679688 294.167969 51.707031 294.167969 51.707031 298.183594 "/>
<path style=" stroke:none;fill-rule:nonzero;fill:rgb(100%,84.3%,0%);fill-opacity:1;" d="M 466.320312 292.761719 C 466.320312 296.777344 460.292969 296.777344 460.292969 292.761719 C 460.292969 288.742188 466.320312 288.742188 466.320312 292.761719 "/>
<path style=" stroke:none;fill-rule:nonzero;fill:rgb(100%,84.3%,0%);fill-opacity:1;" d="M 51.707031 195.734375 C 51.707031 199.753906 45.679688 199.753906 45.679688 195.734375 C 45.679688 191.71875 51.707031 191.71875 51.707031 195.734375 "/>
<path style=" stroke:none;fill-rule:nonzero;fill:rgb(100%,84.3%,0%);fill-opacity:1;" d="M 466.320312 298.785156 C 466.320312 302.804688 460.292969 302.804688 460.292969 298.785156 C 460.292969 294.769531 466.320312 294.769531 466.320312 298.785156 "/>
<path style=" stroke:none;fill-rule:nonzero;fill:rgb(100%,84.3%,0%);fill-opacity:1;" d="M 389.785156 377.128906 C 389.785156 381.148438 383.757812 381.148438 383.757812 377.128906 C 383.757812 373.113281 389.785156 373.113281 389.785156 377.128906 "/>
<path style=" stroke:none;fill-rule:nonzero;fill:rgb(100%,84.3%,0%);fill-opacity:1;" d="M 51.707031 177.65625 C 51.707031 181.675781 45.679688 181.675781 45.679688 177.65625 C 45.679688 173.640625 51.707031 173.640625 51.707031 177.65625 "/>
<path style=" stroke:none;fill-rule:nonzero;fill:rgb(100%,84.3%,0%);fill-opacity:1;" d="M 51.707031 189.710938 C 51.707031 193.726562 45.679688 193.726562 45.679688 189.710938 C 45.679688 185.691406 51.707031 185.691406 51.707031 189.710938 "/>
<path style=" stroke:none;fill-rule:nonzero;fill:rgb(100%,84.3%,0%);fill-opacity:1;" d="M 57.730469 140.089844 C 57.730469 144.105469 51.707031 144.105469 51.707031 140.089844 C 51.707031 136.070312 57.730469 136.070312 57.730469 140.089844 "/>
<path style=" stroke:none;fill-rule:nonzero;fill:rgb(100%,84.3%,0%);fill-opacity:1;" d="M 466.320312 322.894531 C 466.320312 326.910156 460.292969 326.910156 460.292969 322.894531 C 460.292969 318.875 466.320312 318.875 466.320312 322.894531 "/>
<path style=" stroke:none;fill-rule:nonzero;fill:rgb(100%,84.3%,0%);fill-opacity:1;" d="M 466.320312 353.023438 C 466.320312 357.042969 460.292969 357.042969 460.292969 353.023438 C 460.292969 349.007812 466.320312 349.007812 466.320312 353.023438 "/>
<path style=" stroke:none;fill-rule:nonzero;fill:rgb(100%,84.3%,0%);fill-opacity:1;" d="M 298.789062 140.089844 C 298.789062 144.105469 292.761719 144.105469 292.761719 140.089844 C 292.761719 136.070312 298.789062 136.070312 298.789062 140.089844 "/>
<path style=" stroke:none;fill-rule:nonzero;fill:rgb(100%,84.3%,0%);fill-opacity:1;" d="M 51.707031 322.289062 C 51.707031 326.308594 45.679688 326.308594 45.679688 322.289062 C 45.679688 318.273438 51.707031 318.273438 51.707031 322.289062 "/>
<path style=" stroke:none;fill-rule:nonzero;fill:rgb(100%,84.3%,0%);fill-opacity:1;" d="M 78.824219 134.871094 C 78.824219 138.886719 72.796875 138.886719 72.796875 134.871094 C 72.796875 130.851562 78.824219 130.851562 78.824219 134.871094 "/>
<path style=" stroke:none;fill-rule:nonzero;fill:rgb(100%,84.3%,0%);fill-opacity:1;" d="M 175.246094 134.871094 C 175.246094 138.886719 169.222656 138.886719 169.222656 134.871094 C 169.222656 130.851562 175.246094 130.851562 175.246094 134.871094 "/>
<path style=" stroke:none;fill-rule:nonzero;fill:rgb(100%,84.3%,0%);fill-opacity:1;" d="M 51.707031 201.761719 C 51.707031 205.78125 45.679688 205.78125 45.679688 201.761719 C 45.679688 197.746094 51.707031 197.746094 51.707031 201.761719 "/>
<path style=" stroke:none;fill-rule:nonzero;fill:rgb(100%,84.3%,0%);fill-opacity:1;" d="M 299.390625 377.128906 C 299.390625 381.148438 293.363281 381.148438 293.363281 377.128906 C 293.363281 373.113281 299.390625 373.113281 299.390625 377.128906 "/>
<path style=" stroke:none;fill-rule:nonzero;fill:rgb(100%,84.3%,0%);fill-opacity:1;" d="M 331.933594 134.871094 C 331.933594 138.886719 325.90625 138.886719 325.90625 134.871094 C 325.90625 130.851562 331.933594 130.851562 331.933594 134.871094 "/>
<path style=" stroke:none;fill-rule:nonzero;fill:rgb(100%,84.3%,0%);fill-opacity:1;" d="M 305.417969 377.128906 C 305.417969 381.148438 299.390625 381.148438 299.390625 377.128906 C 299.390625 373.113281 305.417969 373.113281 305.417969 377.128906 "/>
<path style=" stroke:none;fill-rule:nonzero;fill:rgb(100%,84.3%,0%);fill-opacity:1;" d="M 332.535156 371.910156 C 332.535156 375.929688 326.507812 375.929688 326.507812 371.910156 C 326.507812 367.894531 332.535156 367.894531 332.535156 371.910156 "/>
<path style=" stroke:none;fill-rule:nonzero;fill:rgb(100%,84.3%,0%);fill-opacity:1;" d="M 169.21875 134.871094 C 169.21875 138.886719 163.195312 138.886719 163.195312 134.871094 C 163.195312 130.851562 169.21875 130.851562 169.21875 134.871094 "/>
<path style=" stroke:none;fill-rule:nonzero;fill:rgb(100%,84.3%,0%);fill-opacity:1;" d="M 154.152344 140.089844 C 154.152344 144.105469 148.128906 144.105469 148.128906 140.089844 C 148.128906 136.070312 154.152344 136.070312 154.152344 140.089844 "/>
<path style=" stroke:none;fill-rule:nonzero;fill:rgb(100%,84.3%,0%);fill-opacity:1;" d="M 76.414062 377.128906 C 76.414062 381.148438 70.386719 381.148438 70.386719 377.128906 C 70.386719 373.113281 76.414062 373.113281 76.414062 377.128906 "/>
<path style=" stroke:none;fill-rule:nonzero;fill:rgb(100%,84.3%,0%);fill-opacity:1;" d="M 466.320312 172.234375 C 466.320312 176.25 460.292969 176.25 460.292969 172.234375 C 460.292969 168.214844 466.320312 168.214844 466.320312 172.234375 "/>
<path style=" stroke:none;fill-rule:nonzero;fill:rgb(100%,84.3%,0%);fill-opacity:1;" d="M 102.929688 134.871094 C 102.929688 138.886719 96.902344 138.886719 96.902344 134.871094 C 96.902344 130.851562 102.929688 130.851562 102.929688 134.871094 "/>
<path style=" stroke:none;fill-rule:nonzero;fill:rgb(100%,84.3%,0%);fill-opacity:1;" d="M 295.773438 134.871094 C 295.773438 138.886719 289.746094 138.886719 289.746094 134.871094 C 289.746094 130.851562 295.773438 130.851562 295.773438 134.871094 "/>
<path style=" stroke:none;fill-rule:nonzero;fill:rgb(100%,84.3%,0%);fill-opacity:1;" d="M 56.925781 355.433594 C 56.925781 359.453125 50.898438 359.453125 50.898438 355.433594 C 50.898438 351.417969 56.925781 351.417969 56.925781 355.433594 "/>
<path style=" stroke:none;fill-rule:nonzero;fill:rgb(100%,84.3%,0%);fill-opacity:1;" d="M 466.320312 346.996094 C 466.320312 351.015625 460.292969 351.015625 460.292969 346.996094 C 460.292969 342.980469 466.320312 342.980469 466.320312 346.996094 "/>
</g>
</svg>
