<?xml version="1.0" encoding="UTF-8"?>
<svg xmlns="http://www.w3.org/2000/svg" xmlns:xlink="http://www.w3.org/1999/xlink" width="512pt" height="512pt" viewBox="0 0 512 512" version="1.1">
<g id="surface401">
<rect x="0" y="0" width="512" height="512" style="fill:rgb(26.7%,26.7%,26.7%);fill-opacity:1;stroke:none;"/>
<path style=" stroke:none;fill-rule:nonzero;fill:rgb(19.2%,38.8%,66.7%);fill-opacity:1;" d="M 42.667969 294.492188 L 469.332031 294.492188 L 469.332031 492.226562 L 42.667969 492.226562 Z M 42.667969 294.492188 "/>
<path style=" stroke:none;fill-rule:nonzero;fill:rgb(90.6%,14.9%,14.9%);fill-opacity:1;" d="M 96.503906 240.402344 C 96.503906 249.988281 88.730469 257.761719 79.144531 257.761719 C 69.558594 257.761719 61.785156 249.988281 61.785156 240.402344 C 61.785156 230.816406 69.558594 223.042969 79.144531 223.042969 C 88.730469 223.042969 96.503906 230.816406 96.503906 240.402344 "/>
<path style=" stroke:none;fill-rule:nonzero;fill:rgb(90.6%,14.9%,14.9%);fill-opacity:1;" d="M 17.257812 460.277344 C 17.257812 464.300781 11.21875 464.300781 11.21875 460.277344 C 11.21875 456.25 17.257812 456.25 17.257812 460.277344 "/>
<path style=" stroke:none;fill-rule:nonzero;fill:rgb(90.6%,14.9%,14.9%);fill-opacity:1;" d="M 138.265625 517.132812 C 138.265625 521.855469 134.433594 525.683594 129.710938 525.683594 C 124.988281 525.683594 121.15625 521.855469 121.15625 517.132812 C 121.15625 512.40625 124.988281 508.578125 129.710938 508.578125 C 134.433594 508.578125 138.265625 512.40625 138.265625 517.132812 "/>
<path style=" stroke:none;fill-rule:nonzero;fill:rgb(90.6%,14.9%,14.9%);fill-opacity:1;" d="M 526.1875 2.164062 C 526.1875 8.136719 521.34375 12.980469 515.371094 12.980469 C 509.398438 12.980469 504.554688 8.136719 504.554688 2.164062 C 504.554688 -3.808594 509.398438 -8.652344 515.371094 -8.652344 C 521.34375 -8.652344 526.1875 -3.808594 526.1875 2.164062 "/>
<path style=" stroke:none;fill-rule:nonzero;fill:rgb(90.6%,14.9%,14.9%);fill-opacity:1;" d="M 495.75 142.792969 C 495.75 154.046875 486.625 163.167969 475.371094 163.167969 C 464.117188 163.167969 454.992188 154.046875 454.992188 142.792969 C 454.992188 131.539062 464.117188 122.414062 475.371094 122.414062 C 486.625 122.414062 495.75 131.539062 495.75 142.792969 "/>
<path style=" stroke:none;fill-rule:nonzero;fill:rgb(90.6%,14.9%,14.9%);fill-opacity:1;" d="M 190.089844 5.6875 C 190.089844 9.578125 186.933594 12.730469 183.042969 12.730469 C 179.152344 12.730469 176 9.578125 176 5.6875 C 176 1.796875 179.152344 -1.359375 183.042969 -1.359375 C 186.933594 -1.359375 190.089844 1.796875 190.089844 5.6875 "/>
<path style=" stroke:none;fill-rule:nonzero;fill:rgb(90.6%,14.9%,14.9%);fill-opacity:1;" d="M 449.460938 149.835938 C 449.460938 153.527344 443.925781 153.527344 443.925781 149.835938 C 443.925781 146.144531 449.460938 146.144531 449.460938 149.835938 "/>
<path style=" stroke:none;fill-rule:nonzero;fill:rgb(90.6%,14.9%,14.9%);fill-opacity:1;" d="M 323.671875 123.671875 C 323.671875 132.007812 316.914062 138.765625 308.578125 138.765625 C 300.242188 138.765625 293.484375 132.007812 293.484375 123.671875 C 293.484375 115.335938 300.242188 108.578125 308.578125 108.578125 C 316.914062 108.578125 323.671875 115.335938 323.671875 123.671875 "/>
<path style=" stroke:none;fill-rule:nonzero;fill:rgb(100%,100%,100%);fill-opacity:1;" d="M 1.15625 393.609375 C 1.15625 395.289062 -1.359375 395.289062 -1.359375 393.609375 C -1.359375 391.933594 1.15625 391.933594 1.15625 393.609375 "/>
<path style=" stroke:none;fill-rule:nonzero;fill:rgb(100%,100%,100%);fill-opacity:1;" d="M 490.96875 47.699219 C 490.96875 49.375 488.453125 49.375 488.453125 47.699219 C 488.453125 46.019531 490.96875 46.019531 490.96875 47.699219 "/>
<path style=" stroke:none;fill-rule:nonzero;fill:rgb(100%,100%,100%);fill-opacity:1;" d="M 319.898438 144.554688 C 319.898438 146.230469 317.382812 146.230469 317.382812 144.554688 C 317.382812 142.875 319.898438 142.875 319.898438 144.554688 "/>
<path style=" stroke:none;fill-rule:nonzero;fill:rgb(100%,100%,100%);fill-opacity:1;" d="M 349.332031 60.277344 C 349.332031 61.953125 346.816406 61.953125 346.816406 60.277344 C 346.816406 58.601562 349.332031 58.601562 349.332031 60.277344 "/>
<path style=" stroke:none;fill-rule:nonzero;fill:rgb(100%,100%,100%);fill-opacity:1;" d="M 90.214844 117.886719 C 90.214844 119.5625 87.699219 119.5625 87.699219 117.886719 C 87.699219 116.210938 90.214844 116.210938 90.214844 117.886719 "/>
<path style=" stroke:none;fill-rule:nonzero;fill:rgb(100%,100%,100%);fill-opacity:1;" d="M 502.792969 303.296875 C 502.792969 304.972656 500.277344 304.972656 500.277344 303.296875 C 500.277344 301.617188 502.792969 301.617188 502.792969 303.296875 "/>
<path style=" stroke:none;fill-rule:nonzero;fill:rgb(100%,100%,100%);fill-opacity:1;" d="M 14.238281 240.402344 C 14.238281 242.082031 11.722656 242.082031 11.722656 240.402344 C 11.722656 238.726562 14.238281 238.726562 14.238281 240.402344 "/>
<path style=" stroke:none;fill-rule:nonzero;fill:rgb(100%,100%,100%);fill-opacity:1;" d="M 144.554688 218.265625 C 144.554688 219.941406 142.039062 219.941406 142.039062 218.265625 C 142.039062 216.585938 144.554688 216.585938 144.554688 218.265625 "/>
<path style=" stroke:none;fill-rule:nonzero;fill:rgb(100%,100%,100%);fill-opacity:1;" d="M 502.039062 353.609375 C 502.039062 355.289062 499.523438 355.289062 499.523438 353.609375 C 499.523438 351.933594 502.039062 351.933594 502.039062 353.609375 "/>
<path style=" stroke:none;fill-rule:nonzero;fill:rgb(100%,100%,100%);fill-opacity:1;" d="M 30.589844 350.84375 C 30.589844 352.519531 28.074219 352.519531 28.074219 350.84375 C 28.074219 349.164062 30.589844 349.164062 30.589844 350.84375 "/>
<path style=" stroke:none;fill-rule:nonzero;fill:rgb(100%,100%,100%);fill-opacity:1;" d="M 321.910156 37.132812 C 321.910156 38.808594 319.394531 38.808594 319.394531 37.132812 C 319.394531 35.453125 321.910156 35.453125 321.910156 37.132812 "/>
<path style=" stroke:none;fill-rule:nonzero;fill:rgb(100%,100%,100%);fill-opacity:1;" d="M 227.570312 186.0625 C 227.570312 187.738281 225.054688 187.738281 225.054688 186.0625 C 225.054688 184.386719 227.570312 184.386719 227.570312 186.0625 "/>
<path style=" stroke:none;fill-rule:nonzero;fill:rgb(100%,100%,100%);fill-opacity:1;" d="M 387.070312 217.761719 C 387.070312 219.4375 384.554688 219.4375 384.554688 217.761719 C 384.554688 216.082031 387.070312 216.082031 387.070312 217.761719 "/>
<path style=" stroke:none;fill-rule:nonzero;fill:rgb(100%,100%,100%);fill-opacity:1;" d="M 464.300781 96.503906 C 464.300781 98.179688 461.785156 98.179688 461.785156 96.503906 C 461.785156 94.824219 464.300781 94.824219 464.300781 96.503906 "/>
<path style=" stroke:none;fill-rule:nonzero;fill:rgb(100%,100%,100%);fill-opacity:1;" d="M 223.546875 186.3125 C 223.546875 187.992188 221.03125 187.992188 221.03125 186.3125 C 221.03125 184.636719 223.546875 184.636719 223.546875 186.3125 "/>
<path style=" stroke:none;fill-rule:nonzero;fill:rgb(100%,100%,100%);fill-opacity:1;" d="M 189.585938 237.886719 C 189.585938 239.5625 187.070312 239.5625 187.070312 237.886719 C 187.070312 236.210938 189.585938 236.210938 189.585938 237.886719 "/>
<path style=" stroke:none;fill-rule:nonzero;fill:rgb(100%,100%,100%);fill-opacity:1;" d="M 416 32.101562 C 416 33.777344 413.484375 33.777344 413.484375 32.101562 C 413.484375 30.425781 416 30.425781 416 32.101562 "/>
<path style=" stroke:none;fill-rule:nonzero;fill:rgb(100%,100%,100%);fill-opacity:1;" d="M 468.828125 219.523438 C 468.828125 221.199219 466.3125 221.199219 466.3125 219.523438 C 466.3125 217.84375 468.828125 217.84375 468.828125 219.523438 "/>
<path style=" stroke:none;fill-rule:nonzero;fill:rgb(100%,100%,100%);fill-opacity:1;" d="M 71.597656 32.101562 C 71.597656 33.777344 69.082031 33.777344 69.082031 32.101562 C 69.082031 30.425781 71.597656 30.425781 71.597656 32.101562 "/>
<path style=" stroke:none;fill-rule:nonzero;fill:rgb(100%,100%,100%);fill-opacity:1;" d="M 193.609375 42.164062 C 193.609375 43.839844 191.09375 43.839844 191.09375 42.164062 C 191.09375 40.488281 193.609375 40.488281 193.609375 42.164062 "/>
<path style=" stroke:none;fill-rule:nonzero;fill:rgb(100%,100%,100%);fill-opacity:1;" d="M 431.597656 245.183594 C 431.597656 246.859375 429.082031 246.859375 429.082031 245.183594 C 429.082031 243.503906 431.597656 243.503906 431.597656 245.183594 "/>
<path style=" stroke:none;fill-rule:nonzero;fill:rgb(100%,100%,100%);fill-opacity:1;" d="M 28.074219 487.949219 C 28.074219 489.628906 25.558594 489.628906 25.558594 487.949219 C 25.558594 486.273438 28.074219 486.273438 28.074219 487.949219 "/>
<path style=" stroke:none;fill-rule:nonzero;fill:rgb(100%,100%,100%);fill-opacity:1;" d="M 190.84375 1.410156 C 190.84375 3.085938 188.328125 3.085938 188.328125 1.410156 C 188.328125 -0.269531 190.84375 -0.269531 190.84375 1.410156 "/>
<path style=" stroke:none;fill-rule:nonzero;fill:rgb(100%,100%,100%);fill-opacity:1;" d="M 43.671875 272.855469 C 43.671875 274.53125 41.15625 274.53125 41.15625 272.855469 C 41.15625 271.179688 43.671875 271.179688 43.671875 272.855469 "/>
<path style=" stroke:none;fill-rule:nonzero;fill:rgb(100%,100%,100%);fill-opacity:1;" d="M 157.382812 3.671875 C 157.382812 5.351562 154.867188 5.351562 154.867188 3.671875 C 154.867188 1.996094 157.382812 1.996094 157.382812 3.671875 "/>
<path style=" stroke:none;fill-rule:nonzero;fill:rgb(100%,100%,100%);fill-opacity:1;" d="M 472.605469 2.164062 C 472.605469 3.839844 470.089844 3.839844 470.089844 2.164062 C 470.089844 0.488281 472.605469 0.488281 472.605469 2.164062 "/>
<path style=" stroke:none;fill-rule:nonzero;fill:rgb(100%,100%,100%);fill-opacity:1;" d="M 139.019531 146.3125 C 139.019531 147.992188 136.503906 147.992188 136.503906 146.3125 C 136.503906 144.636719 139.019531 144.636719 139.019531 146.3125 "/>
<path style=" stroke:none;fill-rule:nonzero;fill:rgb(100%,100%,100%);fill-opacity:1;" d="M 475.371094 112.351562 C 475.371094 114.027344 472.855469 114.027344 472.855469 112.351562 C 472.855469 110.675781 475.371094 110.675781 475.371094 112.351562 "/>
<path style=" stroke:none;fill-rule:nonzero;fill:rgb(100%,100%,100%);fill-opacity:1;" d="M 501.28125 445.6875 C 501.28125 447.363281 498.765625 447.363281 498.765625 445.6875 C 498.765625 444.007812 501.28125 444.007812 501.28125 445.6875 "/>
<path style=" stroke:none;fill-rule:nonzero;fill:rgb(100%,100%,100%);fill-opacity:1;" d="M 34.363281 219.523438 C 34.363281 221.199219 31.847656 221.199219 31.847656 219.523438 C 31.847656 217.84375 34.363281 217.84375 34.363281 219.523438 "/>
<path style=" stroke:none;fill-rule:nonzero;fill:rgb(100%,100%,100%);fill-opacity:1;" d="M 17.257812 312.605469 C 17.257812 314.28125 14.742188 314.28125 14.742188 312.605469 C 14.742188 310.925781 17.257812 310.925781 17.257812 312.605469 "/>
<path style=" stroke:none;fill-rule:nonzero;fill:rgb(100%,100%,100%);fill-opacity:1;" d="M 103.042969 141.28125 C 103.042969 142.960938 100.527344 142.960938 100.527344 141.28125 C 100.527344 139.605469 103.042969 139.605469 103.042969 141.28125 "/>
<path style=" stroke:none;fill-rule:nonzero;fill:rgb(100%,100%,100%);fill-opacity:1;" d="M 351.347656 241.410156 C 351.347656 243.085938 348.832031 243.085938 348.832031 241.410156 C 348.832031 239.730469 351.347656 239.730469 351.347656 241.410156 "/>
<path style=" stroke:none;fill-rule:nonzero;fill:rgb(100%,100%,100%);fill-opacity:1;" d="M 53.484375 510.089844 C 53.484375 511.765625 50.96875 511.765625 50.96875 510.089844 C 50.96875 508.410156 53.484375 508.410156 53.484375 510.089844 "/>
<path style=" stroke:none;fill-rule:nonzero;fill:rgb(100%,100%,100%);fill-opacity:1;" d="M 283.421875 200.90625 C 283.421875 202.582031 280.90625 202.582031 280.90625 200.90625 C 280.90625 199.230469 283.421875 199.230469 283.421875 200.90625 "/>
<path style=" stroke:none;fill-rule:nonzero;fill:rgb(100%,100%,100%);fill-opacity:1;" d="M 473.105469 164.929688 C 473.105469 166.609375 470.589844 166.609375 470.589844 164.929688 C 470.589844 163.253906 473.105469 163.253906 473.105469 164.929688 "/>
<path style=" stroke:none;fill-rule:nonzero;fill:rgb(100%,100%,100%);fill-opacity:1;" d="M 268.328125 96.503906 C 268.328125 98.179688 265.8125 98.179688 265.8125 96.503906 C 265.8125 94.824219 268.328125 94.824219 268.328125 96.503906 "/>
<path style=" stroke:none;fill-rule:nonzero;fill:rgb(100%,100%,100%);fill-opacity:1;" d="M 417.511719 8.957031 C 417.511719 10.632812 414.992188 10.632812 414.992188 8.957031 C 414.992188 7.277344 417.511719 7.277344 417.511719 8.957031 "/>
<path style=" stroke:none;fill-rule:nonzero;fill:rgb(100%,84.3%,0%);fill-opacity:1;" d="M 46.441406 344.554688 C 46.441406 346.230469 43.925781 346.230469 43.925781 344.554688 C 43.925781 342.875 46.441406 342.875 46.441406 344.554688 "/>
<path style=" stroke:none;fill-rule:nonzero;fill:rgb(100%,84.3%,0%);fill-opacity:1;" d="M 403.671875 297.007812 C 403.671875 298.683594 401.15625 298.683594 401.15625 297.007812 C 401.15625 295.328125 403.671875 295.328125 403.671875 297.007812 "/>
<path style=" stroke:none;fill-rule:nonzero;fill:rgb(100%,84.3%,0%);fill-opacity:1;" d="M 206.945312 489.710938 C 206.945312 491.386719 204.429688 491.386719 204.429688 489.710938 C 204.429688 488.035156 206.945312 488.035156 206.945312 489.710938 "/>
<path style=" stroke:none;fill-rule:nonzero;fill:rgb(100%,84.3%,0%);fill-opacity:1;" d="M 46.441406 311.847656 C 46.441406 313.527344 43.925781 313.527344 43.925781 311.847656 C 43.925781 310.171875 46.441406 310.171875 46.441406 311.847656 "/>
<path style=" stroke:none;fill-rule:nonzero;fill:rgb(100%,84.3%,0%);fill-opacity:1;" d="M 466.0625 489.710938 C 466.0625 491.386719 463.546875 491.386719 463.546875 489.710938 C 463.546875 488.035156 466.0625 488.035156 466.0625 489.710938 "/>
<path style=" stroke:none;fill-rule:nonzero;fill:rgb(100%,84.3%,0%);fill-opacity:1;" d="M 46.441406 347.070312 C 46.441406 348.746094 43.925781 348.746094 43.925781 347.070312 C 43.925781 345.390625 46.441406 345.390625 46.441406 347.070312 "/>
<path style=" stroke:none;fill-rule:nonzero;fill:rgb(100%,84.3%,0%);fill-opacity:1;" d="M 468.074219 354.867188 C 468.074219 356.546875 465.558594 356.546875 465.558594 354.867188 C 465.558594 353.191406 468.074219 353.191406 468.074219 354.867188 "/>
<path style=" stroke:none;fill-rule:nonzero;fill:rgb(100%,84.3%,0%);fill-opacity:1;" d="M 441.410156 297.007812 C 441.410156 298.683594 438.894531 298.683594 438.894531 297.007812 C 438.894531 295.328125 441.410156 295.328125 441.410156 297.007812 "/>
<path style=" stroke:none;fill-rule:nonzero;fill:rgb(100%,84.3%,0%);fill-opacity:1;" d="M 468.074219 488.199219 C 468.074219 489.878906 465.558594 489.878906 465.558594 488.199219 C 465.558594 486.523438 468.074219 486.523438 468.074219 488.199219 "/>
<path style=" stroke:none;fill-rule:nonzero;fill:rgb(100%,84.3%,0%);fill-opacity:1;" d="M 46.441406 314.363281 C 46.441406 316.042969 43.925781 316.042969 43.925781 314.363281 C 43.925781 312.6875 46.441406 312.6875 46.441406 314.363281 "/>
<path style=" stroke:none;fill-rule:nonzero;fill:rgb(100%,84.3%,0%);fill-opacity:1;" d="M 463.546875 489.710938 C 463.546875 491.386719 461.03125 491.386719 461.03125 489.710938 C 461.03125 488.035156 463.546875 488.035156 463.546875 489.710938 "/>
<path style=" stroke:none;fill-rule:nonzero;fill:rgb(100%,84.3%,0%);fill-opacity:1;" d="M 468.074219 352.351562 C 468.074219 354.027344 465.558594 354.027344 465.558594 352.351562 C 465.558594 350.675781 468.074219 350.675781 468.074219 352.351562 "/>
<path style=" stroke:none;fill-rule:nonzero;fill:rgb(100%,84.3%,0%);fill-opacity:1;" d="M 46.441406 309.332031 C 46.441406 311.011719 43.925781 311.011719 43.925781 309.332031 C 43.925781 307.65625 46.441406 307.65625 46.441406 309.332031 "/>
<path style=" stroke:none;fill-rule:nonzero;fill:rgb(100%,84.3%,0%);fill-opacity:1;" d="M 46.441406 349.585938 C 46.441406 351.261719 43.925781 351.261719 43.925781 349.585938 C 43.925781 347.90625 46.441406 347.90625 46.441406 349.585938 "/>
<path style=" stroke:none;fill-rule:nonzero;fill:rgb(100%,84.3%,0%);fill-opacity:1;" d="M 458.515625 489.710938 C 458.515625 491.386719 456 491.386719 456 489.710938 C 456 488.035156 458.515625 488.035156 458.515625 489.710938 "/>
<path style=" stroke:none;fill-rule:nonzero;fill:rgb(100%,84.3%,0%);fill-opacity:1;" d="M 46.441406 352.101562 C 46.441406 353.777344 43.925781 353.777344 43.925781 352.101562 C 43.925781 350.425781 46.441406 350.425781 46.441406 352.101562 "/>
<path style=" stroke:none;fill-rule:nonzero;fill:rgb(100%,84.3%,0%);fill-opacity:1;" d="M 461.03125 489.710938 C 461.03125 491.386719 458.515625 491.386719 458.515625 489.710938 C 458.515625 488.035156 461.03125 488.035156 461.03125 489.710938 "/>
<path style=" stroke:none;fill-rule:nonzero;fill:rgb(100%,84.3%,0%);fill-opacity:1;" d="M 46.441406 316.882812 C 46.441406 318.558594 43.925781 318.558594 43.925781 316.882812 C 43.925781 315.203125 46.441406 315.203125 46.441406 316.882812 "/>
<path style=" stroke:none;fill-rule:nonzero;fill:rgb(100%,84.3%,0%);fill-opacity:1;" d="M 456 489.710938 C 456 491.386719 453.484375 491.386719 453.484375 489.710938 C 453.484375 488.035156 456 488.035156 456 489.710938 "/>
<path style=" stroke:none;fill-rule:nonzero;fill:rgb(100%,84.3%,0%);fill-opacity:1;" d="M 46.441406 297.007812 C 46.441406 298.683594 43.925781 298.683594 43.925781 297.007812 C 43.925781 295.328125 46.441406 295.328125 46.441406 297.007812 "/>
<path style=" stroke:none;fill-rule:nonzero;fill:rgb(100%,84.3%,0%);fill-opacity:1;" d="M 345.8125 297.007812 C 345.8125 298.683594 343.296875 298.683594 343.296875 297.007812 C 343.296875 295.328125 345.8125 295.328125 345.8125 297.007812 "/>
<path style=" stroke:none;fill-rule:nonzero;fill:rgb(100%,84.3%,0%);fill-opacity:1;" d="M 46.441406 319.394531 C 46.441406 321.074219 43.925781 321.074219 43.925781 319.394531 C 43.925781 317.71875 46.441406 317.71875 46.441406 319.394531 "/>
<path style=" stroke:none;fill-rule:nonzero;fill:rgb(100%,84.3%,0%);fill-opacity:1;" d="M 46.441406 306.816406 C 46.441406 308.496094 43.925781 308.496094 43.925781 306.816406 C 43.925781 305.140625 46.441406 305.140625 46.441406 306.816406 "/>
<path style=" stroke:none;fill-rule:nonzero;fill:rgb(100%,84.3%,0%);fill-opacity:1;" d="M 453.484375 489.710938 C 453.484375 491.386719 450.96875 491.386719 450.96875 489.710938 C 450.96875 488.035156 453.484375 488.035156 453.484375 489.710938 "/>
<path style=" stroke:none;fill-rule:nonzero;fill:rgb(100%,84.3%,0%);fill-opacity:1;" d="M 464.050781 297.007812 C 464.050781 298.683594 461.535156 298.683594 461.535156 297.007812 C 461.535156 295.328125 464.050781 295.328125 464.050781 297.007812 "/>
<path style=" stroke:none;fill-rule:nonzero;fill:rgb(100%,84.3%,0%);fill-opacity:1;" d="M 376 297.007812 C 376 298.683594 373.484375 298.683594 373.484375 297.007812 C 373.484375 295.328125 376 295.328125 376 297.007812 "/>
<path style=" stroke:none;fill-rule:nonzero;fill:rgb(100%,84.3%,0%);fill-opacity:1;" d="M 350.84375 297.007812 C 350.84375 298.683594 348.328125 298.683594 348.328125 297.007812 C 348.328125 295.328125 350.84375 295.328125 350.84375 297.007812 "/>
<path style=" stroke:none;fill-rule:nonzero;fill:rgb(100%,84.3%,0%);fill-opacity:1;" d="M 365.9375 297.007812 C 365.9375 298.683594 363.421875 298.683594 363.421875 297.007812 C 363.421875 295.328125 365.9375 295.328125 365.9375 297.007812 "/>
<path style=" stroke:none;fill-rule:nonzero;fill:rgb(100%,84.3%,0%);fill-opacity:1;" d="M 348.328125 297.007812 C 348.328125 298.683594 345.8125 298.683594 345.8125 297.007812 C 345.8125 295.328125 348.328125 295.328125 348.328125 297.007812 "/>
<path style=" stroke:none;fill-rule:nonzero;fill:rgb(100%,84.3%,0%);fill-opacity:1;" d="M 46.441406 487.949219 C 46.441406 489.628906 43.925781 489.628906 43.925781 487.949219 C 43.925781 486.273438 46.441406 486.273438 46.441406 487.949219 "/>
<path style=" stroke:none;fill-rule:nonzero;fill:rgb(100%,84.3%,0%);fill-opacity:1;" d="M 370.96875 297.007812 C 370.96875 298.683594 368.453125 298.683594 368.453125 297.007812 C 368.453125 295.328125 370.96875 295.328125 370.96875 297.007812 "/>
<path style=" stroke:none;fill-rule:nonzero;fill:rgb(100%,84.3%,0%);fill-opacity:1;" d="M 413.734375 297.007812 C 413.734375 298.683594 411.21875 298.683594 411.21875 297.007812 C 411.21875 295.328125 413.734375 295.328125 413.734375 297.007812 "/>
<path style=" stroke:none;fill-rule:nonzero;fill:rgb(100%,84.3%,0%);fill-opacity:1;" d="M 450.96875 489.710938 C 450.96875 491.386719 448.453125 491.386719 448.453125 489.710938 C 448.453125 488.035156 450.96875 488.035156 450.96875 489.710938 "/>
<path style=" stroke:none;fill-rule:nonzero;fill:rgb(100%,84.3%,0%);fill-opacity:1;" d="M 386.0625 297.007812 C 386.0625 298.683594 383.546875 298.683594 383.546875 297.007812 C 383.546875 295.328125 386.0625 295.328125 386.0625 297.007812 "/>
<path style=" stroke:none;fill-rule:nonzero;fill:rgb(100%,84.3%,0%);fill-opacity:1;" d="M 46.441406 321.910156 C 46.441406 323.589844 43.925781 323.589844 43.925781 321.910156 C 43.925781 320.234375 46.441406 320.234375 46.441406 321.910156 "/>
<path style=" stroke:none;fill-rule:nonzero;fill:rgb(100%,84.3%,0%);fill-opacity:1;" d="M 338.265625 297.007812 C 338.265625 298.683594 335.75 298.683594 335.75 297.007812 C 335.75 295.328125 338.265625 295.328125 338.265625 297.007812 "/>
<path style=" stroke:none;fill-rule:nonzero;fill:rgb(100%,84.3%,0%);fill-opacity:1;" d="M 411.21875 297.007812 C 411.21875 298.683594 408.703125 298.683594 408.703125 297.007812 C 408.703125 295.328125 411.21875 295.328125 411.21875 297.007812 "/>
<path style=" stroke:none;fill-rule:nonzero;fill:rgb(100%,84.3%,0%);fill-opacity:1;" d="M 209.457031 489.710938 C 209.457031 491.386719 206.941406 491.386719 206.941406 489.710938 C 206.941406 488.035156 209.457031 488.035156 209.457031 489.710938 "/>
<path style=" stroke:none;fill-rule:nonzero;fill:rgb(100%,84.3%,0%);fill-opacity:1;" d="M 46.441406 304.300781 C 46.441406 305.980469 43.925781 305.980469 43.925781 304.300781 C 43.925781 302.625 46.441406 302.625 46.441406 304.300781 "/>
<path style=" stroke:none;fill-rule:nonzero;fill:rgb(100%,84.3%,0%);fill-opacity:1;" d="M 388.578125 297.007812 C 388.578125 298.683594 386.0625 298.683594 386.0625 297.007812 C 386.0625 295.328125 388.578125 295.328125 388.578125 297.007812 "/>
<path style=" stroke:none;fill-rule:nonzero;fill:rgb(100%,84.3%,0%);fill-opacity:1;" d="M 383.546875 297.007812 C 383.546875 298.683594 381.03125 298.683594 381.03125 297.007812 C 381.03125 295.328125 383.546875 295.328125 383.546875 297.007812 "/>
<path style=" stroke:none;fill-rule:nonzero;fill:rgb(100%,84.3%,0%);fill-opacity:1;" d="M 401.15625 297.007812 C 401.15625 298.683594 398.640625 298.683594 398.640625 297.007812 C 398.640625 295.328125 401.15625 295.328125 401.15625 297.007812 "/>
<path style=" stroke:none;fill-rule:nonzero;fill:rgb(100%,84.3%,0%);fill-opacity:1;" d="M 46.441406 301.785156 C 46.441406 303.464844 43.925781 303.464844 43.925781 301.785156 C 43.925781 300.109375 46.441406 300.109375 46.441406 301.785156 "/>
<path style=" stroke:none;fill-rule:nonzero;fill:rgb(100%,84.3%,0%);fill-opacity:1;" d="M 426.316406 297.007812 C 426.316406 298.683594 423.800781 298.683594 423.800781 297.007812 C 423.800781 295.328125 426.316406 295.328125 426.316406 297.007812 "/>
<path style=" stroke:none;fill-rule:nonzero;fill:rgb(100%,84.3%,0%);fill-opacity:1;" d="M 453.988281 297.007812 C 453.988281 298.683594 451.472656 298.683594 451.472656 297.007812 C 451.472656 295.328125 453.988281 295.328125 453.988281 297.007812 "/>
<path style=" stroke:none;fill-rule:nonzero;fill:rgb(100%,84.3%,0%);fill-opacity:1;" d="M 406.1875 297.007812 C 406.1875 298.683594 403.671875 298.683594 403.671875 297.007812 C 403.671875 295.328125 406.1875 295.328125 406.1875 297.007812 "/>
<path style=" stroke:none;fill-rule:nonzero;fill:rgb(100%,84.3%,0%);fill-opacity:1;" d="M 423.800781 297.007812 C 423.800781 298.683594 421.28125 298.683594 421.28125 297.007812 C 421.28125 295.328125 423.800781 295.328125 423.800781 297.007812 "/>
<path style=" stroke:none;fill-rule:nonzero;fill:rgb(100%,84.3%,0%);fill-opacity:1;" d="M 47.699219 299.183594 C 47.699219 300.863281 45.183594 300.863281 45.183594 299.183594 C 45.183594 297.507812 47.699219 297.507812 47.699219 299.183594 "/>
<path style=" stroke:none;fill-rule:nonzero;fill:rgb(100%,84.3%,0%);fill-opacity:1;" d="M 46.441406 342.039062 C 46.441406 343.714844 43.925781 343.714844 43.925781 342.039062 C 43.925781 340.359375 46.441406 340.359375 46.441406 342.039062 "/>
<path style=" stroke:none;fill-rule:nonzero;fill:rgb(100%,84.3%,0%);fill-opacity:1;" d="M 451.472656 297.007812 C 451.472656 298.683594 448.957031 298.683594 448.957031 297.007812 C 448.957031 295.328125 451.472656 295.328125 451.472656 297.007812 "/>
<path style=" stroke:none;fill-rule:nonzero;fill:rgb(100%,84.3%,0%);fill-opacity:1;" d="M 46.441406 354.617188 C 46.441406 356.292969 43.925781 356.292969 43.925781 354.617188 C 43.925781 352.9375 46.441406 352.9375 46.441406 354.617188 "/>
<path style=" stroke:none;fill-rule:nonzero;fill:rgb(100%,84.3%,0%);fill-opacity:1;" d="M 204.429688 489.710938 C 204.429688 491.386719 201.914062 491.386719 201.914062 489.710938 C 201.914062 488.035156 204.429688 488.035156 204.429688 489.710938 "/>
<path style=" stroke:none;fill-rule:nonzero;fill:rgb(100%,84.3%,0%);fill-opacity:1;" d="M 211.976562 489.710938 C 211.976562 491.386719 209.460938 491.386719 209.460938 489.710938 C 209.460938 488.035156 211.976562 488.035156 211.976562 489.710938 "/>
<path style=" stroke:none;fill-rule:nonzero;fill:rgb(100%,84.3%,0%);fill-opacity:1;" d="M 398.640625 297.007812 C 398.640625 298.683594 396.125 298.683594 396.125 297.007812 C 396.125 295.328125 398.640625 295.328125 398.640625 297.007812 "/>
<path style=" stroke:none;fill-rule:nonzero;fill:rgb(100%,84.3%,0%);fill-opacity:1;" d="M 448.957031 297.007812 C 448.957031 298.683594 446.441406 298.683594 446.441406 297.007812 C 446.441406 295.328125 448.957031 295.328125 448.957031 297.007812 "/>
<path style=" stroke:none;fill-rule:nonzero;fill:rgb(100%,84.3%,0%);fill-opacity:1;" d="M 201.910156 489.710938 C 201.910156 491.386719 199.394531 491.386719 199.394531 489.710938 C 199.394531 488.035156 201.910156 488.035156 201.910156 489.710938 "/>
<path style=" stroke:none;fill-rule:nonzero;fill:rgb(100%,84.3%,0%);fill-opacity:1;" d="M 448.453125 489.710938 C 448.453125 491.386719 445.9375 491.386719 445.9375 489.710938 C 445.9375 488.035156 448.453125 488.035156 448.453125 489.710938 "/>
<path style=" stroke:none;fill-rule:nonzero;fill:rgb(100%,84.3%,0%);fill-opacity:1;" d="M 393.609375 297.007812 C 393.609375 298.683594 391.09375 298.683594 391.09375 297.007812 C 391.09375 295.328125 393.609375 295.328125 393.609375 297.007812 "/>
<path style=" stroke:none;fill-rule:nonzero;fill:rgb(100%,84.3%,0%);fill-opacity:1;" d="M 445.9375 489.710938 C 445.9375 491.386719 443.421875 491.386719 443.421875 489.710938 C 443.421875 488.035156 445.9375 488.035156 445.9375 489.710938 "/>
<path style=" stroke:none;fill-rule:nonzero;fill:rgb(100%,84.3%,0%);fill-opacity:1;" d="M 46.441406 339.523438 C 46.441406 341.199219 43.925781 341.199219 43.925781 339.523438 C 43.925781 337.84375 46.441406 337.84375 46.441406 339.523438 "/>
<path style=" stroke:none;fill-rule:nonzero;fill:rgb(100%,84.3%,0%);fill-opacity:1;" d="M 446.441406 297.007812 C 446.441406 298.683594 443.925781 298.683594 443.925781 297.007812 C 443.925781 295.328125 446.441406 295.328125 446.441406 297.007812 "/>
<path style=" stroke:none;fill-rule:nonzero;fill:rgb(100%,84.3%,0%);fill-opacity:1;" d="M 468.074219 299.523438 C 468.074219 301.199219 465.558594 301.199219 465.558594 299.523438 C 465.558594 297.84375 468.074219 297.84375 468.074219 299.523438 "/>
<path style=" stroke:none;fill-rule:nonzero;fill:rgb(100%,84.3%,0%);fill-opacity:1;" d="M 466.566406 297.007812 C 466.566406 298.683594 464.050781 298.683594 464.050781 297.007812 C 464.050781 295.328125 466.566406 295.328125 466.566406 297.007812 "/>
<path style=" stroke:none;fill-rule:nonzero;fill:rgb(100%,84.3%,0%);fill-opacity:1;" d="M 46.441406 334.492188 C 46.441406 336.167969 43.925781 336.167969 43.925781 334.492188 C 43.925781 332.8125 46.441406 332.8125 46.441406 334.492188 "/>
<path style=" stroke:none;fill-rule:nonzero;fill:rgb(100%,84.3%,0%);fill-opacity:1;" d="M 443.421875 489.710938 C 443.421875 491.386719 440.90625 491.386719 440.90625 489.710938 C 440.90625 488.035156 443.421875 488.035156 443.421875 489.710938 "/>
<path style=" stroke:none;fill-rule:nonzero;fill:rgb(100%,84.3%,0%);fill-opacity:1;" d="M 436.375 297.007812 C 436.375 298.683594 433.859375 298.683594 433.859375 297.007812 C 433.859375 295.328125 436.375 295.328125 436.375 297.007812 "/>
<path style=" stroke:none;fill-rule:nonzero;fill:rgb(100%,84.3%,0%);fill-opacity:1;" d="M 378.515625 297.007812 C 378.515625 298.683594 376 298.683594 376 297.007812 C 376 295.328125 378.515625 295.328125 378.515625 297.007812 "/>
<path style=" stroke:none;fill-rule:nonzero;fill:rgb(100%,84.3%,0%);fill-opacity:1;" d="M 443.925781 297.007812 C 443.925781 298.683594 441.410156 298.683594 441.410156 297.007812 C 441.410156 295.328125 443.925781 295.328125 443.925781 297.007812 "/>
<path style=" stroke:none;fill-rule:nonzero;fill:rgb(100%,84.3%,0%);fill-opacity:1;" d="M 440.90625 489.710938 C 440.90625 491.386719 438.390625 491.386719 438.390625 489.710938 C 438.390625 488.035156 440.90625 488.035156 440.90625 489.710938 "/>
<path style=" stroke:none;fill-rule:nonzero;fill:rgb(100%,84.3%,0%);fill-opacity:1;" d="M 214.492188 489.710938 C 214.492188 491.386719 211.976562 491.386719 211.976562 489.710938 C 211.976562 488.035156 214.492188 488.035156 214.492188 489.710938 "/>
<path style=" stroke:none;fill-rule:nonzero;fill:rgb(100%,84.3%,0%);fill-opacity:1;" d="M 438.894531 297.007812 C 438.894531 298.683594 436.378906 298.683594 436.378906 297.007812 C 436.378906 295.328125 438.894531 295.328125 438.894531 297.007812 "/>
<path style=" stroke:none;fill-rule:nonzero;fill:rgb(100%,84.3%,0%);fill-opacity:1;" d="M 46.441406 324.429688 C 46.441406 326.105469 43.925781 326.105469 43.925781 324.429688 C 43.925781 322.75 46.441406 322.75 46.441406 324.429688 "/>
<path style=" stroke:none;fill-rule:nonzero;fill:rgb(100%,84.3%,0%);fill-opacity:1;" d="M 199.394531 489.710938 C 199.394531 491.386719 196.878906 491.386719 196.878906 489.710938 C 196.878906 488.035156 199.394531 488.035156 199.394531 489.710938 "/>
<path style=" stroke:none;fill-rule:nonzero;fill:rgb(100%,84.3%,0%);fill-opacity:1;" d="M 46.441406 337.007812 C 46.441406 338.683594 43.925781 338.683594 43.925781 337.007812 C 43.925781 335.328125 46.441406 335.328125 46.441406 337.007812 "/>
<path style=" stroke:none;fill-rule:nonzero;fill:rgb(100%,84.3%,0%);fill-opacity:1;" d="M 46.441406 357.132812 C 46.441406 358.808594 43.925781 358.808594 43.925781 357.132812 C 43.925781 355.453125 46.441406 355.453125 46.441406 357.132812 "/>
<path style=" stroke:none;fill-rule:nonzero;fill:rgb(100%,84.3%,0%);fill-opacity:1;" d="M 438.390625 489.710938 C 438.390625 491.386719 435.875 491.386719 435.875 489.710938 C 435.875 488.035156 438.390625 488.035156 438.390625 489.710938 "/>
<path style=" stroke:none;fill-rule:nonzero;fill:rgb(100%,84.3%,0%);fill-opacity:1;" d="M 431.347656 297.007812 C 431.347656 298.683594 428.832031 298.683594 428.832031 297.007812 C 428.832031 295.328125 431.347656 295.328125 431.347656 297.007812 "/>
<path style=" stroke:none;fill-rule:nonzero;fill:rgb(100%,84.3%,0%);fill-opacity:1;" d="M 435.875 489.710938 C 435.875 491.386719 433.359375 491.386719 433.359375 489.710938 C 433.359375 488.035156 435.875 488.035156 435.875 489.710938 "/>
<path style=" stroke:none;fill-rule:nonzero;fill:rgb(100%,84.3%,0%);fill-opacity:1;" d="M 433.863281 297.007812 C 433.863281 298.683594 431.347656 298.683594 431.347656 297.007812 C 431.347656 295.328125 433.863281 295.328125 433.863281 297.007812 "/>
<path style=" stroke:none;fill-rule:nonzero;fill:rgb(100%,84.3%,0%);fill-opacity:1;" d="M 217.007812 489.710938 C 217.007812 491.386719 214.488281 491.386719 214.488281 489.710938 C 214.488281 488.035156 217.007812 488.035156 217.007812 489.710938 "/>
<path style=" stroke:none;fill-rule:nonzero;fill:rgb(100%,84.3%,0%);fill-opacity:1;" d="M 73.609375 489.710938 C 73.609375 491.386719 71.09375 491.386719 71.09375 489.710938 C 71.09375 488.035156 73.609375 488.035156 73.609375 489.710938 "/>
<path style=" stroke:none;fill-rule:nonzero;fill:rgb(100%,84.3%,0%);fill-opacity:1;" d="M 46.441406 359.648438 C 46.441406 361.324219 43.925781 361.324219 43.925781 359.648438 C 43.925781 357.972656 46.441406 357.972656 46.441406 359.648438 "/>
<path style=" stroke:none;fill-rule:nonzero;fill:rgb(100%,84.3%,0%);fill-opacity:1;" d="M 433.359375 489.710938 C 433.359375 491.386719 430.84375 491.386719 430.84375 489.710938 C 430.84375 488.035156 433.359375 488.035156 433.359375 489.710938 "/>
<path style=" stroke:none;fill-rule:nonzero;fill:rgb(100%,84.3%,0%);fill-opacity:1;" d="M 363.421875 297.007812 C 363.421875 298.683594 360.90625 298.683594 360.90625 297.007812 C 360.90625 295.328125 363.421875 295.328125 363.421875 297.007812 "/>
<path style=" stroke:none;fill-rule:nonzero;fill:rgb(100%,84.3%,0%);fill-opacity:1;" d="M 196.882812 489.710938 C 196.882812 491.386719 194.363281 491.386719 194.363281 489.710938 C 194.363281 488.035156 196.882812 488.035156 196.882812 489.710938 "/>
<path style=" stroke:none;fill-rule:nonzero;fill:rgb(100%,84.3%,0%);fill-opacity:1;" d="M 78.640625 489.710938 C 78.640625 491.386719 76.125 491.386719 76.125 489.710938 C 76.125 488.035156 78.640625 488.035156 78.640625 489.710938 "/>
<path style=" stroke:none;fill-rule:nonzero;fill:rgb(100%,84.3%,0%);fill-opacity:1;" d="M 46.441406 362.164062 C 46.441406 363.839844 43.925781 363.839844 43.925781 362.164062 C 43.925781 360.488281 46.441406 360.488281 46.441406 362.164062 "/>
<path style=" stroke:none;fill-rule:nonzero;fill:rgb(100%,84.3%,0%);fill-opacity:1;" d="M 468.074219 302.039062 C 468.074219 303.714844 465.558594 303.714844 465.558594 302.039062 C 465.558594 300.359375 468.074219 300.359375 468.074219 302.039062 "/>
<path style=" stroke:none;fill-rule:nonzero;fill:rgb(100%,84.3%,0%);fill-opacity:1;" d="M 76.125 489.710938 C 76.125 491.386719 73.609375 491.386719 73.609375 489.710938 C 73.609375 488.035156 76.125 488.035156 76.125 489.710938 "/>
<path style=" stroke:none;fill-rule:nonzero;fill:rgb(100%,84.3%,0%);fill-opacity:1;" d="M 71.09375 489.710938 C 71.09375 491.386719 68.578125 491.386719 68.578125 489.710938 C 68.578125 488.035156 71.09375 488.035156 71.09375 489.710938 "/>
<path style=" stroke:none;fill-rule:nonzero;fill:rgb(100%,84.3%,0%);fill-opacity:1;" d="M 430.84375 489.710938 C 430.84375 491.386719 428.328125 491.386719 428.328125 489.710938 C 428.328125 488.035156 430.84375 488.035156 430.84375 489.710938 "/>
<path style=" stroke:none;fill-rule:nonzero;fill:rgb(100%,84.3%,0%);fill-opacity:1;" d="M 219.523438 489.710938 C 219.523438 491.386719 217.007812 491.386719 217.007812 489.710938 C 217.007812 488.035156 219.523438 488.035156 219.523438 489.710938 "/>
<path style=" stroke:none;fill-rule:nonzero;fill:rgb(100%,84.3%,0%);fill-opacity:1;" d="M 68.578125 489.710938 C 68.578125 491.386719 66.0625 491.386719 66.0625 489.710938 C 66.0625 488.035156 68.578125 488.035156 68.578125 489.710938 "/>
<path style=" stroke:none;fill-rule:nonzero;fill:rgb(100%,84.3%,0%);fill-opacity:1;" d="M 101.785156 297.007812 C 101.785156 298.683594 99.269531 298.683594 99.269531 297.007812 C 99.269531 295.328125 101.785156 295.328125 101.785156 297.007812 "/>
<path style=" stroke:none;fill-rule:nonzero;fill:rgb(100%,84.3%,0%);fill-opacity:1;" d="M 194.363281 489.710938 C 194.363281 491.386719 191.847656 491.386719 191.847656 489.710938 C 191.847656 488.035156 194.363281 488.035156 194.363281 489.710938 "/>
<path style=" stroke:none;fill-rule:nonzero;fill:rgb(100%,84.3%,0%);fill-opacity:1;" d="M 468.074219 304.554688 C 468.074219 306.230469 465.558594 306.230469 465.558594 304.554688 C 465.558594 302.875 468.074219 302.875 468.074219 304.554688 "/>
<path style=" stroke:none;fill-rule:nonzero;fill:rgb(100%,84.3%,0%);fill-opacity:1;" d="M 368.453125 297.007812 C 368.453125 298.683594 365.9375 298.683594 365.9375 297.007812 C 365.9375 295.328125 368.453125 295.328125 368.453125 297.007812 "/>
<path style=" stroke:none;fill-rule:nonzero;fill:rgb(100%,84.3%,0%);fill-opacity:1;" d="M 46.441406 331.976562 C 46.441406 333.652344 43.925781 333.652344 43.925781 331.976562 C 43.925781 330.296875 46.441406 330.296875 46.441406 331.976562 "/>
<path style=" stroke:none;fill-rule:nonzero;fill:rgb(100%,84.3%,0%);fill-opacity:1;" d="M 428.328125 489.710938 C 428.328125 491.386719 425.8125 491.386719 425.8125 489.710938 C 425.8125 488.035156 428.328125 488.035156 428.328125 489.710938 "/>
<path style=" stroke:none;fill-rule:nonzero;fill:rgb(100%,84.3%,0%);fill-opacity:1;" d="M 421.28125 297.007812 C 421.28125 298.683594 418.765625 298.683594 418.765625 297.007812 C 418.765625 295.328125 421.28125 295.328125 421.28125 297.007812 "/>
<path style=" stroke:none;fill-rule:nonzero;fill:rgb(100%,84.3%,0%);fill-opacity:1;" d="M 222.039062 489.710938 C 222.039062 491.386719 219.523438 491.386719 219.523438 489.710938 C 219.523438 488.035156 222.039062 488.035156 222.039062 489.710938 "/>
<path style=" stroke:none;fill-rule:nonzero;fill:rgb(100%,84.3%,0%);fill-opacity:1;" d="M 46.441406 367.195312 C 46.441406 368.871094 43.925781 368.871094 43.925781 367.195312 C 43.925781 365.519531 46.441406 365.519531 46.441406 367.195312 "/>
<path style=" stroke:none;fill-rule:nonzero;fill:rgb(100%,84.3%,0%);fill-opacity:1;" d="M 461.535156 297.007812 C 461.535156 298.683594 459.019531 298.683594 459.019531 297.007812 C 459.019531 295.328125 461.535156 295.328125 461.535156 297.007812 "/>
<path style=" stroke:none;fill-rule:nonzero;fill:rgb(100%,84.3%,0%);fill-opacity:1;" d="M 191.847656 489.710938 C 191.847656 491.386719 189.332031 491.386719 189.332031 489.710938 C 189.332031 488.035156 191.847656 488.035156 191.847656 489.710938 "/>
<path style=" stroke:none;fill-rule:nonzero;fill:rgb(100%,84.3%,0%);fill-opacity:1;" d="M 468.074219 307.070312 C 468.074219 308.746094 465.558594 308.746094 465.558594 307.070312 C 465.558594 305.390625 468.074219 305.390625 468.074219 307.070312 "/>
<path style=" stroke:none;fill-rule:nonzero;fill:rgb(100%,84.3%,0%);fill-opacity:1;" d="M 428.828125 297.007812 C 428.828125 298.683594 426.3125 298.683594 426.3125 297.007812 C 426.3125 295.328125 428.828125 295.328125 428.828125 297.007812 "/>
<path style=" stroke:none;fill-rule:nonzero;fill:rgb(100%,84.3%,0%);fill-opacity:1;" d="M 83.671875 489.710938 C 83.671875 491.386719 81.15625 491.386719 81.15625 489.710938 C 81.15625 488.035156 83.671875 488.035156 83.671875 489.710938 "/>
<path style=" stroke:none;fill-rule:nonzero;fill:rgb(100%,84.3%,0%);fill-opacity:1;" d="M 224.554688 489.710938 C 224.554688 491.386719 222.039062 491.386719 222.039062 489.710938 C 222.039062 488.035156 224.554688 488.035156 224.554688 489.710938 "/>
<path style=" stroke:none;fill-rule:nonzero;fill:rgb(100%,84.3%,0%);fill-opacity:1;" d="M 416.25 297.007812 C 416.25 298.683594 413.734375 298.683594 413.734375 297.007812 C 413.734375 295.328125 416.25 295.328125 416.25 297.007812 "/>
<path style=" stroke:none;fill-rule:nonzero;fill:rgb(100%,84.3%,0%);fill-opacity:1;" d="M 468.074219 309.585938 C 468.074219 311.261719 465.558594 311.261719 465.558594 309.585938 C 465.558594 307.90625 468.074219 307.90625 468.074219 309.585938 "/>
<path style=" stroke:none;fill-rule:nonzero;fill:rgb(100%,84.3%,0%);fill-opacity:1;" d="M 468.074219 312.101562 C 468.074219 313.777344 465.558594 313.777344 465.558594 312.101562 C 465.558594 310.425781 468.074219 310.425781 468.074219 312.101562 "/>
<path style=" stroke:none;fill-rule:nonzero;fill:rgb(100%,84.3%,0%);fill-opacity:1;" d="M 189.332031 489.710938 C 189.332031 491.386719 186.816406 491.386719 186.816406 489.710938 C 186.816406 488.035156 189.332031 488.035156 189.332031 489.710938 "/>
<path style=" stroke:none;fill-rule:nonzero;fill:rgb(100%,84.3%,0%);fill-opacity:1;" d="M 468.074219 314.617188 C 468.074219 316.292969 465.558594 316.292969 465.558594 314.617188 C 465.558594 312.9375 468.074219 312.9375 468.074219 314.617188 "/>
<path style=" stroke:none;fill-rule:nonzero;fill:rgb(100%,84.3%,0%);fill-opacity:1;" d="M 227.070312 489.710938 C 227.070312 491.386719 224.554688 491.386719 224.554688 489.710938 C 224.554688 488.035156 227.070312 488.035156 227.070312 489.710938 "/>
<path style=" stroke:none;fill-rule:nonzero;fill:rgb(100%,84.3%,0%);fill-opacity:1;" d="M 360.90625 297.007812 C 360.90625 298.683594 358.390625 298.683594 358.390625 297.007812 C 358.390625 295.328125 360.90625 295.328125 360.90625 297.007812 "/>
<path style=" stroke:none;fill-rule:nonzero;fill:rgb(100%,84.3%,0%);fill-opacity:1;" d="M 186.816406 489.710938 C 186.816406 491.386719 184.300781 491.386719 184.300781 489.710938 C 184.300781 488.035156 186.816406 488.035156 186.816406 489.710938 "/>
<path style=" stroke:none;fill-rule:nonzero;fill:rgb(100%,84.3%,0%);fill-opacity:1;" d="M 358.390625 297.007812 C 358.390625 298.683594 355.875 298.683594 355.875 297.007812 C 355.875 295.328125 358.390625 295.328125 358.390625 297.007812 "/>
<path style=" stroke:none;fill-rule:nonzero;fill:rgb(100%,84.3%,0%);fill-opacity:1;" d="M 48.453125 489.710938 C 48.453125 491.386719 45.9375 491.386719 45.9375 489.710938 C 45.9375 488.035156 48.453125 488.035156 48.453125 489.710938 "/>
<path style=" stroke:none;fill-rule:nonzero;fill:rgb(100%,84.3%,0%);fill-opacity:1;" d="M 81.15625 489.710938 C 81.15625 491.386719 78.640625 491.386719 78.640625 489.710938 C 78.640625 488.035156 81.15625 488.035156 81.15625 489.710938 "/>
<path style=" stroke:none;fill-rule:nonzero;fill:rgb(100%,84.3%,0%);fill-opacity:1;" d="M 277.886719 297.007812 C 277.886719 298.683594 275.371094 298.683594 275.371094 297.007812 C 275.371094 295.328125 277.886719 295.328125 277.886719 297.007812 "/>
<path style=" stroke:none;fill-rule:nonzero;fill:rgb(100%,84.3%,0%);fill-opacity:1;" d="M 425.8125 489.710938 C 425.8125 491.386719 423.296875 491.386719 423.296875 489.710938 C 423.296875 488.035156 425.8125 488.035156 425.8125 489.710938 "/>
<path style=" stroke:none;fill-rule:nonzero;fill:rgb(100%,84.3%,0%);fill-opacity:1;" d="M 468.074219 327.195312 C 468.074219 328.871094 465.558594 328.871094 465.558594 327.195312 C 465.558594 325.519531 468.074219 325.519531 468.074219 327.195312 "/>
<path style=" stroke:none;fill-rule:nonzero;fill:rgb(100%,84.3%,0%);fill-opacity:1;" d="M 46.441406 364.679688 C 46.441406 366.355469 43.925781 366.355469 43.925781 364.679688 C 43.925781 363 46.441406 363 46.441406 364.679688 "/>
<path style=" stroke:none;fill-rule:nonzero;fill:rgb(100%,84.3%,0%);fill-opacity:1;" d="M 229.585938 489.710938 C 229.585938 491.386719 227.070312 491.386719 227.070312 489.710938 C 227.070312 488.035156 229.585938 488.035156 229.585938 489.710938 "/>
<path style=" stroke:none;fill-rule:nonzero;fill:rgb(100%,84.3%,0%);fill-opacity:1;" d="M 184.300781 489.710938 C 184.300781 491.386719 181.785156 491.386719 181.785156 489.710938 C 181.785156 488.035156 184.300781 488.035156 184.300781 489.710938 "/>
<path style=" stroke:none;fill-rule:nonzero;fill:rgb(100%,84.3%,0%);fill-opacity:1;" d="M 46.441406 369.710938 C 46.441406 371.386719 43.925781 371.386719 43.925781 369.710938 C 43.925781 368.035156 46.441406 368.035156 46.441406 369.710938 "/>
<path style=" stroke:none;fill-rule:nonzero;fill:rgb(100%,84.3%,0%);fill-opacity:1;" d="M 88.703125 489.710938 C 88.703125 491.386719 86.1875 491.386719 86.1875 489.710938 C 86.1875 488.035156 88.703125 488.035156 88.703125 489.710938 "/>
<path style=" stroke:none;fill-rule:nonzero;fill:rgb(100%,84.3%,0%);fill-opacity:1;" d="M 418.765625 297.007812 C 418.765625 298.683594 416.25 298.683594 416.25 297.007812 C 416.25 295.328125 418.765625 295.328125 418.765625 297.007812 "/>
<path style=" stroke:none;fill-rule:nonzero;fill:rgb(100%,84.3%,0%);fill-opacity:1;" d="M 468.074219 317.132812 C 468.074219 318.808594 465.558594 318.808594 465.558594 317.132812 C 465.558594 315.453125 468.074219 315.453125 468.074219 317.132812 "/>
<path style=" stroke:none;fill-rule:nonzero;fill:rgb(100%,84.3%,0%);fill-opacity:1;" d="M 255.246094 297.007812 C 255.246094 298.683594 252.730469 298.683594 252.730469 297.007812 C 252.730469 295.328125 255.246094 295.328125 255.246094 297.007812 "/>
<path style=" stroke:none;fill-rule:nonzero;fill:rgb(100%,84.3%,0%);fill-opacity:1;" d="M 423.296875 489.710938 C 423.296875 491.386719 420.78125 491.386719 420.78125 489.710938 C 420.78125 488.035156 423.296875 488.035156 423.296875 489.710938 "/>
<path style=" stroke:none;fill-rule:nonzero;fill:rgb(100%,84.3%,0%);fill-opacity:1;" d="M 51.472656 297.007812 C 51.472656 298.683594 48.957031 298.683594 48.957031 297.007812 C 48.957031 295.328125 51.472656 295.328125 51.472656 297.007812 "/>
<path style=" stroke:none;fill-rule:nonzero;fill:rgb(100%,84.3%,0%);fill-opacity:1;" d="M 46.441406 372.226562 C 46.441406 373.902344 43.925781 373.902344 43.925781 372.226562 C 43.925781 370.550781 46.441406 370.550781 46.441406 372.226562 "/>
<path style=" stroke:none;fill-rule:nonzero;fill:rgb(100%,84.3%,0%);fill-opacity:1;" d="M 468.074219 324.679688 C 468.074219 326.355469 465.558594 326.355469 465.558594 324.679688 C 465.558594 323 468.074219 323 468.074219 324.679688 "/>
<path style=" stroke:none;fill-rule:nonzero;fill:rgb(100%,84.3%,0%);fill-opacity:1;" d="M 86.1875 489.710938 C 86.1875 491.386719 83.671875 491.386719 83.671875 489.710938 C 83.671875 488.035156 86.1875 488.035156 86.1875 489.710938 "/>
<path style=" stroke:none;fill-rule:nonzero;fill:rgb(100%,84.3%,0%);fill-opacity:1;" d="M 48.957031 297.007812 C 48.957031 298.683594 46.441406 298.683594 46.441406 297.007812 C 46.441406 295.328125 48.957031 295.328125 48.957031 297.007812 "/>
<path style=" stroke:none;fill-rule:nonzero;fill:rgb(100%,84.3%,0%);fill-opacity:1;" d="M 232.101562 489.710938 C 232.101562 491.386719 229.585938 491.386719 229.585938 489.710938 C 229.585938 488.035156 232.101562 488.035156 232.101562 489.710938 "/>
<path style=" stroke:none;fill-rule:nonzero;fill:rgb(100%,84.3%,0%);fill-opacity:1;" d="M 391.09375 297.007812 C 391.09375 298.683594 388.578125 298.683594 388.578125 297.007812 C 388.578125 295.328125 391.09375 295.328125 391.09375 297.007812 "/>
<path style=" stroke:none;fill-rule:nonzero;fill:rgb(100%,84.3%,0%);fill-opacity:1;" d="M 46.441406 374.742188 C 46.441406 376.417969 43.925781 376.417969 43.925781 374.742188 C 43.925781 373.066406 46.441406 373.066406 46.441406 374.742188 "/>
<path style=" stroke:none;fill-rule:nonzero;fill:rgb(100%,84.3%,0%);fill-opacity:1;" d="M 181.785156 489.710938 C 181.785156 491.386719 179.269531 491.386719 179.269531 489.710938 C 179.269531 488.035156 181.785156 488.035156 181.785156 489.710938 "/>
<path style=" stroke:none;fill-rule:nonzero;fill:rgb(100%,84.3%,0%);fill-opacity:1;" d="M 381.03125 297.007812 C 381.03125 298.683594 378.515625 298.683594 378.515625 297.007812 C 378.515625 295.328125 381.03125 295.328125 381.03125 297.007812 "/>
<path style=" stroke:none;fill-rule:nonzero;fill:rgb(100%,84.3%,0%);fill-opacity:1;" d="M 53.988281 297.007812 C 53.988281 298.683594 51.472656 298.683594 51.472656 297.007812 C 51.472656 295.328125 53.988281 295.328125 53.988281 297.007812 "/>
<path style=" stroke:none;fill-rule:nonzero;fill:rgb(100%,84.3%,0%);fill-opacity:1;" d="M 46.441406 377.257812 C 46.441406 378.933594 43.925781 378.933594 43.925781 377.257812 C 43.925781 375.582031 46.441406 375.582031 46.441406 377.257812 "/>
<path style=" stroke:none;fill-rule:nonzero;fill:rgb(100%,84.3%,0%);fill-opacity:1;" d="M 46.441406 329.460938 C 46.441406 331.136719 43.925781 331.136719 43.925781 329.460938 C 43.925781 327.78125 46.441406 327.78125 46.441406 329.460938 "/>
<path style=" stroke:none;fill-rule:nonzero;fill:rgb(100%,84.3%,0%);fill-opacity:1;" d="M 66.0625 489.710938 C 66.0625 491.386719 63.546875 491.386719 63.546875 489.710938 C 63.546875 488.035156 66.0625 488.035156 66.0625 489.710938 "/>
<path style=" stroke:none;fill-rule:nonzero;fill:rgb(100%,84.3%,0%);fill-opacity:1;" d="M 252.730469 297.007812 C 252.730469 298.683594 250.214844 298.683594 250.214844 297.007812 C 250.214844 295.328125 252.730469 295.328125 252.730469 297.007812 "/>
<path style=" stroke:none;fill-rule:nonzero;fill:rgb(100%,84.3%,0%);fill-opacity:1;" d="M 408.703125 297.007812 C 408.703125 298.683594 406.1875 298.683594 406.1875 297.007812 C 406.1875 295.328125 408.703125 295.328125 408.703125 297.007812 "/>
<path style=" stroke:none;fill-rule:nonzero;fill:rgb(100%,84.3%,0%);fill-opacity:1;" d="M 353.359375 297.007812 C 353.359375 298.683594 350.84375 298.683594 350.84375 297.007812 C 350.84375 295.328125 353.359375 295.328125 353.359375 297.007812 "/>
<path style=" stroke:none;fill-rule:nonzero;fill:rgb(100%,84.3%,0%);fill-opacity:1;" d="M 468.074219 319.648438 C 468.074219 321.324219 465.558594 321.324219 465.558594 319.648438 C 465.558594 317.972656 468.074219 317.972656 468.074219 319.648438 "/>
<path style=" stroke:none;fill-rule:nonzero;fill:rgb(100%,84.3%,0%);fill-opacity:1;" d="M 355.875 297.007812 C 355.875 298.683594 353.359375 298.683594 353.359375 297.007812 C 353.359375 295.328125 355.875 295.328125 355.875 297.007812 "/>
<path style=" stroke:none;fill-rule:nonzero;fill:rgb(100%,84.3%,0%);fill-opacity:1;" d="M 179.269531 489.710938 C 179.269531 491.386719 176.753906 491.386719 176.753906 489.710938 C 176.753906 488.035156 179.269531 488.035156 179.269531 489.710938 "/>
<path style=" stroke:none;fill-rule:nonzero;fill:rgb(100%,84.3%,0%);fill-opacity:1;" d="M 415.75 489.710938 C 415.75 491.386719 413.234375 491.386719 413.234375 489.710938 C 413.234375 488.035156 415.75 488.035156 415.75 489.710938 "/>
<path style=" stroke:none;fill-rule:nonzero;fill:rgb(100%,84.3%,0%);fill-opacity:1;" d="M 234.617188 489.710938 C 234.617188 491.386719 232.101562 491.386719 232.101562 489.710938 C 232.101562 488.035156 234.617188 488.035156 234.617188 489.710938 "/>
<path style=" stroke:none;fill-rule:nonzero;fill:rgb(100%,84.3%,0%);fill-opacity:1;" d="M 56.503906 297.007812 C 56.503906 298.683594 53.988281 298.683594 53.988281 297.007812 C 53.988281 295.328125 56.503906 295.328125 56.503906 297.007812 "/>
<path style=" stroke:none;fill-rule:nonzero;fill:rgb(100%,84.3%,0%);fill-opacity:1;" d="M 420.78125 489.710938 C 420.78125 491.386719 418.265625 491.386719 418.265625 489.710938 C 418.265625 488.035156 420.78125 488.035156 420.78125 489.710938 "/>
<path style=" stroke:none;fill-rule:nonzero;fill:rgb(100%,84.3%,0%);fill-opacity:1;" d="M 176.753906 489.710938 C 176.753906 491.386719 174.238281 491.386719 174.238281 489.710938 C 174.238281 488.035156 176.753906 488.035156 176.753906 489.710938 "/>
<path style=" stroke:none;fill-rule:nonzero;fill:rgb(100%,84.3%,0%);fill-opacity:1;" d="M 59.019531 297.007812 C 59.019531 298.683594 56.503906 298.683594 56.503906 297.007812 C 56.503906 295.328125 59.019531 295.328125 59.019531 297.007812 "/>
<path style=" stroke:none;fill-rule:nonzero;fill:rgb(100%,84.3%,0%);fill-opacity:1;" d="M 373.484375 297.007812 C 373.484375 298.683594 370.96875 298.683594 370.96875 297.007812 C 370.96875 295.328125 373.484375 295.328125 373.484375 297.007812 "/>
<path style=" stroke:none;fill-rule:nonzero;fill:rgb(100%,84.3%,0%);fill-opacity:1;" d="M 61.535156 297.007812 C 61.535156 298.683594 59.019531 298.683594 59.019531 297.007812 C 59.019531 295.328125 61.535156 295.328125 61.535156 297.007812 "/>
<path style=" stroke:none;fill-rule:nonzero;fill:rgb(100%,84.3%,0%);fill-opacity:1;" d="M 396.125 297.007812 C 396.125 298.683594 393.609375 298.683594 393.609375 297.007812 C 393.609375 295.328125 396.125 295.328125 396.125 297.007812 "/>
<path style=" stroke:none;fill-rule:nonzero;fill:rgb(100%,84.3%,0%);fill-opacity:1;" d="M 418.265625 489.710938 C 418.265625 491.386719 415.75 491.386719 415.75 489.710938 C 415.75 488.035156 418.265625 488.035156 418.265625 489.710938 "/>
<path style=" stroke:none;fill-rule:nonzero;fill:rgb(100%,84.3%,0%);fill-opacity:1;" d="M 468.074219 322.164062 C 468.074219 323.839844 465.558594 323.839844 465.558594 322.164062 C 465.558594 320.488281 468.074219 320.488281 468.074219 322.164062 "/>
<path style=" stroke:none;fill-rule:nonzero;fill:rgb(100%,84.3%,0%);fill-opacity:1;" d="M 237.132812 489.710938 C 237.132812 491.386719 234.617188 491.386719 234.617188 489.710938 C 234.617188 488.035156 237.132812 488.035156 237.132812 489.710938 "/>
<path style=" stroke:none;fill-rule:nonzero;fill:rgb(100%,84.3%,0%);fill-opacity:1;" d="M 174.238281 489.710938 C 174.238281 491.386719 171.722656 491.386719 171.722656 489.710938 C 171.722656 488.035156 174.238281 488.035156 174.238281 489.710938 "/>
<path style=" stroke:none;fill-rule:nonzero;fill:rgb(100%,84.3%,0%);fill-opacity:1;" d="M 343.296875 297.007812 C 343.296875 298.683594 340.78125 298.683594 340.78125 297.007812 C 340.78125 295.328125 343.296875 295.328125 343.296875 297.007812 "/>
<path style=" stroke:none;fill-rule:nonzero;fill:rgb(100%,84.3%,0%);fill-opacity:1;" d="M 262.792969 297.007812 C 262.792969 298.683594 260.277344 298.683594 260.277344 297.007812 C 260.277344 295.328125 262.792969 295.328125 262.792969 297.007812 "/>
<path style=" stroke:none;fill-rule:nonzero;fill:rgb(100%,84.3%,0%);fill-opacity:1;" d="M 468.074219 339.773438 C 468.074219 341.449219 465.558594 341.449219 465.558594 339.773438 C 465.558594 338.097656 468.074219 338.097656 468.074219 339.773438 "/>
<path style=" stroke:none;fill-rule:nonzero;fill:rgb(100%,84.3%,0%);fill-opacity:1;" d="M 239.648438 489.710938 C 239.648438 491.386719 237.132812 491.386719 237.132812 489.710938 C 237.132812 488.035156 239.648438 488.035156 239.648438 489.710938 "/>
<path style=" stroke:none;fill-rule:nonzero;fill:rgb(100%,84.3%,0%);fill-opacity:1;" d="M 468.074219 344.804688 C 468.074219 346.480469 465.558594 346.480469 465.558594 344.804688 C 465.558594 343.128906 468.074219 343.128906 468.074219 344.804688 "/>
<path style=" stroke:none;fill-rule:nonzero;fill:rgb(100%,84.3%,0%);fill-opacity:1;" d="M 340.78125 297.007812 C 340.78125 298.683594 338.265625 298.683594 338.265625 297.007812 C 338.265625 295.328125 340.78125 295.328125 340.78125 297.007812 "/>
<path style=" stroke:none;fill-rule:nonzero;fill:rgb(100%,84.3%,0%);fill-opacity:1;" d="M 171.722656 489.710938 C 171.722656 491.386719 169.207031 491.386719 169.207031 489.710938 C 169.207031 488.035156 171.722656 488.035156 171.722656 489.710938 "/>
<path style=" stroke:none;fill-rule:nonzero;fill:rgb(100%,84.3%,0%);fill-opacity:1;" d="M 468.074219 362.414062 C 468.074219 364.09375 465.558594 364.09375 465.558594 362.414062 C 465.558594 360.738281 468.074219 360.738281 468.074219 362.414062 "/>
<path style=" stroke:none;fill-rule:nonzero;fill:rgb(100%,84.3%,0%);fill-opacity:1;" d="M 468.074219 357.382812 C 468.074219 359.0625 465.558594 359.0625 465.558594 357.382812 C 465.558594 355.707031 468.074219 355.707031 468.074219 357.382812 "/>
<path style=" stroke:none;fill-rule:nonzero;fill:rgb(100%,84.3%,0%);fill-opacity:1;" d="M 169.207031 489.710938 C 169.207031 491.386719 166.691406 491.386719 166.691406 489.710938 C 166.691406 488.035156 169.207031 488.035156 169.207031 489.710938 "/>
<path style=" stroke:none;fill-rule:nonzero;fill:rgb(100%,84.3%,0%);fill-opacity:1;" d="M 257.761719 297.007812 C 257.761719 298.683594 255.246094 298.683594 255.246094 297.007812 C 255.246094 295.328125 257.761719 295.328125 257.761719 297.007812 "/>
<path style=" stroke:none;fill-rule:nonzero;fill:rgb(100%,84.3%,0%);fill-opacity:1;" d="M 64.050781 297.007812 C 64.050781 298.683594 61.535156 298.683594 61.535156 297.007812 C 61.535156 295.328125 64.050781 295.328125 64.050781 297.007812 "/>
<path style=" stroke:none;fill-rule:nonzero;fill:rgb(100%,84.3%,0%);fill-opacity:1;" d="M 66.566406 297.007812 C 66.566406 298.683594 64.050781 298.683594 64.050781 297.007812 C 64.050781 295.328125 66.566406 295.328125 66.566406 297.007812 "/>
<path style=" stroke:none;fill-rule:nonzero;fill:rgb(100%,84.3%,0%);fill-opacity:1;" d="M 48.617188 350.84375 C 48.617188 352.519531 46.101562 352.519531 46.101562 350.84375 C 46.101562 349.164062 48.617188 349.164062 48.617188 350.84375 "/>
<path style=" stroke:none;fill-rule:nonzero;fill:rgb(100%,84.3%,0%);fill-opacity:1;" d="M 58.515625 489.710938 C 58.515625 491.386719 56 491.386719 56 489.710938 C 56 488.035156 58.515625 488.035156 58.515625 489.710938 "/>
<path style=" stroke:none;fill-rule:nonzero;fill:rgb(100%,84.3%,0%);fill-opacity:1;" d="M 242.164062 489.710938 C 242.164062 491.386719 239.648438 491.386719 239.648438 489.710938 C 239.648438 488.035156 242.164062 488.035156 242.164062 489.710938 "/>
<path style=" stroke:none;fill-rule:nonzero;fill:rgb(100%,84.3%,0%);fill-opacity:1;" d="M 69.082031 297.007812 C 69.082031 298.683594 66.566406 298.683594 66.566406 297.007812 C 66.566406 295.328125 69.082031 295.328125 69.082031 297.007812 "/>
<path style=" stroke:none;fill-rule:nonzero;fill:rgb(100%,84.3%,0%);fill-opacity:1;" d="M 260.277344 297.007812 C 260.277344 298.683594 257.761719 298.683594 257.761719 297.007812 C 257.761719 295.328125 260.277344 295.328125 260.277344 297.007812 "/>
<path style=" stroke:none;fill-rule:nonzero;fill:rgb(100%,84.3%,0%);fill-opacity:1;" d="M 46.441406 485.433594 C 46.441406 487.109375 43.925781 487.109375 43.925781 485.433594 C 43.925781 483.757812 46.441406 483.757812 46.441406 485.433594 "/>
<path style=" stroke:none;fill-rule:nonzero;fill:rgb(100%,84.3%,0%);fill-opacity:1;" d="M 468.074219 359.898438 C 468.074219 361.574219 465.558594 361.574219 465.558594 359.898438 C 465.558594 358.222656 468.074219 358.222656 468.074219 359.898438 "/>
<path style=" stroke:none;fill-rule:nonzero;fill:rgb(100%,84.3%,0%);fill-opacity:1;" d="M 468.074219 329.710938 C 468.074219 331.386719 465.558594 331.386719 465.558594 329.710938 C 465.558594 328.035156 468.074219 328.035156 468.074219 329.710938 "/>
<path style=" stroke:none;fill-rule:nonzero;fill:rgb(100%,84.3%,0%);fill-opacity:1;" d="M 335.75 297.007812 C 335.75 298.683594 333.234375 298.683594 333.234375 297.007812 C 333.234375 295.328125 335.75 295.328125 335.75 297.007812 "/>
<path style=" stroke:none;fill-rule:nonzero;fill:rgb(100%,84.3%,0%);fill-opacity:1;" d="M 46.441406 482.917969 C 46.441406 484.59375 43.925781 484.59375 43.925781 482.917969 C 43.925781 481.242188 46.441406 481.242188 46.441406 482.917969 "/>
<path style=" stroke:none;fill-rule:nonzero;fill:rgb(100%,84.3%,0%);fill-opacity:1;" d="M 468.074219 349.835938 C 468.074219 351.511719 465.558594 351.511719 465.558594 349.835938 C 465.558594 348.160156 468.074219 348.160156 468.074219 349.835938 "/>
<path style=" stroke:none;fill-rule:nonzero;fill:rgb(100%,84.3%,0%);fill-opacity:1;" d="M 287.949219 297.007812 C 287.949219 298.683594 285.433594 298.683594 285.433594 297.007812 C 285.433594 295.328125 287.949219 295.328125 287.949219 297.007812 "/>
<path style=" stroke:none;fill-rule:nonzero;fill:rgb(100%,84.3%,0%);fill-opacity:1;" d="M 290.464844 297.007812 C 290.464844 298.683594 287.949219 298.683594 287.949219 297.007812 C 287.949219 295.328125 290.464844 295.328125 290.464844 297.007812 "/>
<path style=" stroke:none;fill-rule:nonzero;fill:rgb(100%,84.3%,0%);fill-opacity:1;" d="M 71.597656 297.007812 C 71.597656 298.683594 69.082031 298.683594 69.082031 297.007812 C 69.082031 295.328125 71.597656 295.328125 71.597656 297.007812 "/>
<path style=" stroke:none;fill-rule:nonzero;fill:rgb(100%,84.3%,0%);fill-opacity:1;" d="M 247.195312 489.710938 C 247.195312 491.386719 244.679688 491.386719 244.679688 489.710938 C 244.679688 488.035156 247.195312 488.035156 247.195312 489.710938 "/>
<path style=" stroke:none;fill-rule:nonzero;fill:rgb(100%,84.3%,0%);fill-opacity:1;" d="M 89.207031 297.007812 C 89.207031 298.683594 86.691406 298.683594 86.691406 297.007812 C 86.691406 295.328125 89.207031 295.328125 89.207031 297.007812 "/>
<path style=" stroke:none;fill-rule:nonzero;fill:rgb(100%,84.3%,0%);fill-opacity:1;" d="M 46.441406 480.402344 C 46.441406 482.082031 43.925781 482.082031 43.925781 480.402344 C 43.925781 478.726562 46.441406 478.726562 46.441406 480.402344 "/>
<path style=" stroke:none;fill-rule:nonzero;fill:rgb(100%,84.3%,0%);fill-opacity:1;" d="M 468.074219 347.320312 C 468.074219 349 465.558594 349 465.558594 347.320312 C 465.558594 345.644531 468.074219 345.644531 468.074219 347.320312 "/>
<path style=" stroke:none;fill-rule:nonzero;fill:rgb(100%,84.3%,0%);fill-opacity:1;" d="M 244.679688 489.710938 C 244.679688 491.386719 242.164062 491.386719 242.164062 489.710938 C 242.164062 488.035156 244.679688 488.035156 244.679688 489.710938 "/>
<path style=" stroke:none;fill-rule:nonzero;fill:rgb(100%,84.3%,0%);fill-opacity:1;" d="M 237.636719 297.007812 C 237.636719 298.683594 235.117188 298.683594 235.117188 297.007812 C 235.117188 295.328125 237.636719 295.328125 237.636719 297.007812 "/>
<path style=" stroke:none;fill-rule:nonzero;fill:rgb(100%,84.3%,0%);fill-opacity:1;" d="M 106.816406 297.007812 C 106.816406 298.683594 104.300781 298.683594 104.300781 297.007812 C 104.300781 295.328125 106.816406 295.328125 106.816406 297.007812 "/>
<path style=" stroke:none;fill-rule:nonzero;fill:rgb(100%,84.3%,0%);fill-opacity:1;" d="M 99.269531 297.007812 C 99.269531 298.683594 96.753906 298.683594 96.753906 297.007812 C 96.753906 295.328125 99.269531 295.328125 99.269531 297.007812 "/>
<path style=" stroke:none;fill-rule:nonzero;fill:rgb(100%,84.3%,0%);fill-opacity:1;" d="M 74.113281 297.007812 C 74.113281 298.683594 71.597656 298.683594 71.597656 297.007812 C 71.597656 295.328125 74.113281 295.328125 74.113281 297.007812 "/>
<path style=" stroke:none;fill-rule:nonzero;fill:rgb(100%,84.3%,0%);fill-opacity:1;" d="M 310.589844 297.007812 C 310.589844 298.683594 308.074219 298.683594 308.074219 297.007812 C 308.074219 295.328125 310.589844 295.328125 310.589844 297.007812 "/>
<path style=" stroke:none;fill-rule:nonzero;fill:rgb(100%,84.3%,0%);fill-opacity:1;" d="M 139.523438 297.007812 C 139.523438 298.683594 137.007812 298.683594 137.007812 297.007812 C 137.007812 295.328125 139.523438 295.328125 139.523438 297.007812 "/>
<path style=" stroke:none;fill-rule:nonzero;fill:rgb(100%,84.3%,0%);fill-opacity:1;" d="M 46.441406 422.539062 C 46.441406 424.21875 43.925781 424.21875 43.925781 422.539062 C 43.925781 420.863281 46.441406 420.863281 46.441406 422.539062 "/>
<path style=" stroke:none;fill-rule:nonzero;fill:rgb(100%,84.3%,0%);fill-opacity:1;" d="M 166.691406 489.710938 C 166.691406 491.386719 164.175781 491.386719 164.175781 489.710938 C 164.175781 488.035156 166.691406 488.035156 166.691406 489.710938 "/>
<path style=" stroke:none;fill-rule:nonzero;fill:rgb(100%,84.3%,0%);fill-opacity:1;" d="M 250.214844 297.007812 C 250.214844 298.683594 247.699219 298.683594 247.699219 297.007812 C 247.699219 295.328125 250.214844 295.328125 250.214844 297.007812 "/>
<path style=" stroke:none;fill-rule:nonzero;fill:rgb(100%,84.3%,0%);fill-opacity:1;" d="M 46.441406 472.855469 C 46.441406 474.53125 43.925781 474.53125 43.925781 472.855469 C 43.925781 471.179688 46.441406 471.179688 46.441406 472.855469 "/>
<path style=" stroke:none;fill-rule:nonzero;fill:rgb(100%,84.3%,0%);fill-opacity:1;" d="M 247.699219 297.007812 C 247.699219 298.683594 245.183594 298.683594 245.183594 297.007812 C 245.183594 295.328125 247.699219 295.328125 247.699219 297.007812 "/>
<path style=" stroke:none;fill-rule:nonzero;fill:rgb(100%,84.3%,0%);fill-opacity:1;" d="M 46.441406 326.941406 C 46.441406 328.621094 43.925781 328.621094 43.925781 326.941406 C 43.925781 325.265625 46.441406 325.265625 46.441406 326.941406 "/>
<path style=" stroke:none;fill-rule:nonzero;fill:rgb(100%,84.3%,0%);fill-opacity:1;" d="M 46.441406 477.886719 C 46.441406 479.5625 43.925781 479.5625 43.925781 477.886719 C 43.925781 476.210938 46.441406 476.210938 46.441406 477.886719 "/>
<path style=" stroke:none;fill-rule:nonzero;fill:rgb(100%,84.3%,0%);fill-opacity:1;" d="M 46.441406 475.371094 C 46.441406 477.046875 43.925781 477.046875 43.925781 475.371094 C 43.925781 473.695312 46.441406 473.695312 46.441406 475.371094 "/>
<path style=" stroke:none;fill-rule:nonzero;fill:rgb(100%,84.3%,0%);fill-opacity:1;" d="M 46.441406 435.117188 C 46.441406 436.796875 43.925781 436.796875 43.925781 435.117188 C 43.925781 433.441406 46.441406 433.441406 46.441406 435.117188 "/>
<path style=" stroke:none;fill-rule:nonzero;fill:rgb(100%,84.3%,0%);fill-opacity:1;" d="M 46.441406 397.382812 C 46.441406 399.0625 43.925781 399.0625 43.925781 397.382812 C 43.925781 395.707031 46.441406 395.707031 46.441406 397.382812 "/>
<path style=" stroke:none;fill-rule:nonzero;fill:rgb(100%,84.3%,0%);fill-opacity:1;" d="M 46.441406 437.636719 C 46.441406 439.3125 43.925781 439.3125 43.925781 437.636719 C 43.925781 435.957031 46.441406 435.957031 46.441406 437.636719 "/>
<path style=" stroke:none;fill-rule:nonzero;fill:rgb(100%,84.3%,0%);fill-opacity:1;" d="M 46.441406 457.761719 C 46.441406 459.4375 43.925781 459.4375 43.925781 457.761719 C 43.925781 456.082031 46.441406 456.082031 46.441406 457.761719 "/>
<path style=" stroke:none;fill-rule:nonzero;fill:rgb(100%,84.3%,0%);fill-opacity:1;" d="M 456.503906 297.007812 C 456.503906 298.683594 453.988281 298.683594 453.988281 297.007812 C 453.988281 295.328125 456.503906 295.328125 456.503906 297.007812 "/>
<path style=" stroke:none;fill-rule:nonzero;fill:rgb(100%,84.3%,0%);fill-opacity:1;" d="M 328.199219 297.007812 C 328.199219 298.683594 325.683594 298.683594 325.683594 297.007812 C 325.683594 295.328125 328.199219 295.328125 328.199219 297.007812 "/>
<path style=" stroke:none;fill-rule:nonzero;fill:rgb(100%,84.3%,0%);fill-opacity:1;" d="M 46.441406 404.929688 C 46.441406 406.609375 43.925781 406.609375 43.925781 404.929688 C 43.925781 403.253906 46.441406 403.253906 46.441406 404.929688 "/>
<path style=" stroke:none;fill-rule:nonzero;fill:rgb(100%,84.3%,0%);fill-opacity:1;" d="M 333.234375 297.007812 C 333.234375 298.683594 330.71875 298.683594 330.71875 297.007812 C 330.71875 295.328125 333.234375 295.328125 333.234375 297.007812 "/>
<path style=" stroke:none;fill-rule:nonzero;fill:rgb(100%,84.3%,0%);fill-opacity:1;" d="M 86.691406 297.007812 C 86.691406 298.683594 84.175781 298.683594 84.175781 297.007812 C 84.175781 295.328125 86.691406 295.328125 86.691406 297.007812 "/>
<path style=" stroke:none;fill-rule:nonzero;fill:rgb(100%,84.3%,0%);fill-opacity:1;" d="M 468.074219 382.539062 C 468.074219 384.21875 465.558594 384.21875 465.558594 382.539062 C 465.558594 380.863281 468.074219 380.863281 468.074219 382.539062 "/>
<path style=" stroke:none;fill-rule:nonzero;fill:rgb(100%,84.3%,0%);fill-opacity:1;" d="M 46.441406 450.214844 C 46.441406 451.890625 43.925781 451.890625 43.925781 450.214844 C 43.925781 448.535156 46.441406 448.535156 46.441406 450.214844 "/>
<path style=" stroke:none;fill-rule:nonzero;fill:rgb(100%,84.3%,0%);fill-opacity:1;" d="M 76.628906 297.007812 C 76.628906 298.683594 74.113281 298.683594 74.113281 297.007812 C 74.113281 295.328125 76.628906 295.328125 76.628906 297.007812 "/>
<path style=" stroke:none;fill-rule:nonzero;fill:rgb(100%,84.3%,0%);fill-opacity:1;" d="M 63.546875 489.710938 C 63.546875 491.386719 61.03125 491.386719 61.03125 489.710938 C 61.03125 488.035156 63.546875 488.035156 63.546875 489.710938 "/>
<path style=" stroke:none;fill-rule:nonzero;fill:rgb(100%,84.3%,0%);fill-opacity:1;" d="M 46.441406 394.867188 C 46.441406 396.546875 43.925781 396.546875 43.925781 394.867188 C 43.925781 393.191406 46.441406 393.191406 46.441406 394.867188 "/>
<path style=" stroke:none;fill-rule:nonzero;fill:rgb(100%,84.3%,0%);fill-opacity:1;" d="M 46.441406 382.289062 C 46.441406 383.964844 43.925781 383.964844 43.925781 382.289062 C 43.925781 380.613281 46.441406 380.613281 46.441406 382.289062 "/>
<path style=" stroke:none;fill-rule:nonzero;fill:rgb(100%,84.3%,0%);fill-opacity:1;" d="M 330.71875 297.007812 C 330.71875 298.683594 328.199219 298.683594 328.199219 297.007812 C 328.199219 295.328125 330.71875 295.328125 330.71875 297.007812 "/>
<path style=" stroke:none;fill-rule:nonzero;fill:rgb(100%,84.3%,0%);fill-opacity:1;" d="M 46.441406 452.730469 C 46.441406 454.40625 43.925781 454.40625 43.925781 452.730469 C 43.925781 451.054688 46.441406 451.054688 46.441406 452.730469 "/>
<path style=" stroke:none;fill-rule:nonzero;fill:rgb(100%,84.3%,0%);fill-opacity:1;" d="M 245.183594 297.007812 C 245.183594 298.683594 242.667969 298.683594 242.667969 297.007812 C 242.667969 295.328125 245.183594 295.328125 245.183594 297.007812 "/>
<path style=" stroke:none;fill-rule:nonzero;fill:rgb(100%,84.3%,0%);fill-opacity:1;" d="M 325.6875 297.007812 C 325.6875 298.683594 323.171875 298.683594 323.171875 297.007812 C 323.171875 295.328125 325.6875 295.328125 325.6875 297.007812 "/>
<path style=" stroke:none;fill-rule:nonzero;fill:rgb(100%,84.3%,0%);fill-opacity:1;" d="M 96.753906 297.007812 C 96.753906 298.683594 94.238281 298.683594 94.238281 297.007812 C 94.238281 295.328125 96.753906 295.328125 96.753906 297.007812 "/>
<path style=" stroke:none;fill-rule:nonzero;fill:rgb(100%,84.3%,0%);fill-opacity:1;" d="M 265.308594 297.007812 C 265.308594 298.683594 262.792969 298.683594 262.792969 297.007812 C 262.792969 295.328125 265.308594 295.328125 265.308594 297.007812 "/>
<path style=" stroke:none;fill-rule:nonzero;fill:rgb(100%,84.3%,0%);fill-opacity:1;" d="M 468.074219 337.257812 C 468.074219 338.933594 465.558594 338.933594 465.558594 337.257812 C 465.558594 335.582031 468.074219 335.582031 468.074219 337.257812 "/>
<path style=" stroke:none;fill-rule:nonzero;fill:rgb(100%,84.3%,0%);fill-opacity:1;" d="M 116.882812 297.007812 C 116.882812 298.683594 114.363281 298.683594 114.363281 297.007812 C 114.363281 295.328125 116.882812 295.328125 116.882812 297.007812 "/>
<path style=" stroke:none;fill-rule:nonzero;fill:rgb(100%,84.3%,0%);fill-opacity:1;" d="M 114.363281 297.007812 C 114.363281 298.683594 111.847656 298.683594 111.847656 297.007812 C 111.847656 295.328125 114.363281 295.328125 114.363281 297.007812 "/>
<path style=" stroke:none;fill-rule:nonzero;fill:rgb(100%,84.3%,0%);fill-opacity:1;" d="M 468.074219 367.445312 C 468.074219 369.125 465.558594 369.125 465.558594 367.445312 C 465.558594 365.769531 468.074219 365.769531 468.074219 367.445312 "/>
<path style=" stroke:none;fill-rule:nonzero;fill:rgb(100%,84.3%,0%);fill-opacity:1;" d="M 50.96875 489.710938 C 50.96875 491.386719 48.453125 491.386719 48.453125 489.710938 C 48.453125 488.035156 50.96875 488.035156 50.96875 489.710938 "/>
<path style=" stroke:none;fill-rule:nonzero;fill:rgb(100%,84.3%,0%);fill-opacity:1;" d="M 323.167969 297.007812 C 323.167969 298.683594 320.652344 298.683594 320.652344 297.007812 C 320.652344 295.328125 323.167969 295.328125 323.167969 297.007812 "/>
<path style=" stroke:none;fill-rule:nonzero;fill:rgb(100%,84.3%,0%);fill-opacity:1;" d="M 468.074219 332.226562 C 468.074219 333.902344 465.558594 333.902344 465.558594 332.226562 C 465.558594 330.550781 468.074219 330.550781 468.074219 332.226562 "/>
<path style=" stroke:none;fill-rule:nonzero;fill:rgb(100%,84.3%,0%);fill-opacity:1;" d="M 275.371094 297.007812 C 275.371094 298.683594 272.855469 298.683594 272.855469 297.007812 C 272.855469 295.328125 275.371094 295.328125 275.371094 297.007812 "/>
<path style=" stroke:none;fill-rule:nonzero;fill:rgb(100%,84.3%,0%);fill-opacity:1;" d="M 267.824219 297.007812 C 267.824219 298.683594 265.308594 298.683594 265.308594 297.007812 C 265.308594 295.328125 267.824219 295.328125 267.824219 297.007812 "/>
<path style=" stroke:none;fill-rule:nonzero;fill:rgb(100%,84.3%,0%);fill-opacity:1;" d="M 280.402344 297.007812 C 280.402344 298.683594 277.886719 298.683594 277.886719 297.007812 C 277.886719 295.328125 280.402344 295.328125 280.402344 297.007812 "/>
<path style=" stroke:none;fill-rule:nonzero;fill:rgb(100%,84.3%,0%);fill-opacity:1;" d="M 242.667969 297.007812 C 242.667969 298.683594 240.152344 298.683594 240.152344 297.007812 C 240.152344 295.328125 242.667969 295.328125 242.667969 297.007812 "/>
<path style=" stroke:none;fill-rule:nonzero;fill:rgb(100%,84.3%,0%);fill-opacity:1;" d="M 270.339844 297.007812 C 270.339844 298.683594 267.824219 298.683594 267.824219 297.007812 C 267.824219 295.328125 270.339844 295.328125 270.339844 297.007812 "/>
<path style=" stroke:none;fill-rule:nonzero;fill:rgb(100%,84.3%,0%);fill-opacity:1;" d="M 468.074219 334.742188 C 468.074219 336.417969 465.558594 336.417969 465.558594 334.742188 C 465.558594 333.066406 468.074219 333.066406 468.074219 334.742188 "/>
<path style=" stroke:none;fill-rule:nonzero;fill:rgb(100%,84.3%,0%);fill-opacity:1;" d="M 272.855469 297.007812 C 272.855469 298.683594 270.339844 298.683594 270.339844 297.007812 C 270.339844 295.328125 272.855469 295.328125 272.855469 297.007812 "/>
<path style=" stroke:none;fill-rule:nonzero;fill:rgb(100%,84.3%,0%);fill-opacity:1;" d="M 119.394531 297.007812 C 119.394531 298.683594 116.878906 298.683594 116.878906 297.007812 C 116.878906 295.328125 119.394531 295.328125 119.394531 297.007812 "/>
<path style=" stroke:none;fill-rule:nonzero;fill:rgb(100%,84.3%,0%);fill-opacity:1;" d="M 459.019531 297.007812 C 459.019531 298.683594 456.503906 298.683594 456.503906 297.007812 C 456.503906 295.328125 459.019531 295.328125 459.019531 297.007812 "/>
<path style=" stroke:none;fill-rule:nonzero;fill:rgb(100%,84.3%,0%);fill-opacity:1;" d="M 121.910156 297.007812 C 121.910156 298.683594 119.394531 298.683594 119.394531 297.007812 C 119.394531 295.328125 121.910156 295.328125 121.910156 297.007812 "/>
<path style=" stroke:none;fill-rule:nonzero;fill:rgb(100%,84.3%,0%);fill-opacity:1;" d="M 46.441406 455.246094 C 46.441406 456.921875 43.925781 456.921875 43.925781 455.246094 C 43.925781 453.566406 46.441406 453.566406 46.441406 455.246094 "/>
<path style=" stroke:none;fill-rule:nonzero;fill:rgb(100%,84.3%,0%);fill-opacity:1;" d="M 468.074219 364.929688 C 468.074219 366.609375 465.558594 366.609375 465.558594 364.929688 C 465.558594 363.253906 468.074219 363.253906 468.074219 364.929688 "/>
<path style=" stroke:none;fill-rule:nonzero;fill:rgb(100%,84.3%,0%);fill-opacity:1;" d="M 124.429688 297.007812 C 124.429688 298.683594 121.914062 298.683594 121.914062 297.007812 C 121.914062 295.328125 124.429688 295.328125 124.429688 297.007812 "/>
<path style=" stroke:none;fill-rule:nonzero;fill:rgb(100%,84.3%,0%);fill-opacity:1;" d="M 468.074219 369.960938 C 468.074219 371.640625 465.558594 371.640625 465.558594 369.960938 C 465.558594 368.285156 468.074219 368.285156 468.074219 369.960938 "/>
<path style=" stroke:none;fill-rule:nonzero;fill:rgb(100%,84.3%,0%);fill-opacity:1;" d="M 320.652344 297.007812 C 320.652344 298.683594 318.136719 298.683594 318.136719 297.007812 C 318.136719 295.328125 320.652344 295.328125 320.652344 297.007812 "/>
<path style=" stroke:none;fill-rule:nonzero;fill:rgb(100%,84.3%,0%);fill-opacity:1;" d="M 46.441406 392.351562 C 46.441406 394.027344 43.925781 394.027344 43.925781 392.351562 C 43.925781 390.675781 46.441406 390.675781 46.441406 392.351562 "/>
<path style=" stroke:none;fill-rule:nonzero;fill:rgb(100%,84.3%,0%);fill-opacity:1;" d="M 468.074219 380.023438 C 468.074219 381.703125 465.558594 381.703125 465.558594 380.023438 C 465.558594 378.347656 468.074219 378.347656 468.074219 380.023438 "/>
<path style=" stroke:none;fill-rule:nonzero;fill:rgb(100%,84.3%,0%);fill-opacity:1;" d="M 134.492188 297.007812 C 134.492188 298.683594 131.976562 298.683594 131.976562 297.007812 C 131.976562 295.328125 134.492188 295.328125 134.492188 297.007812 "/>
<path style=" stroke:none;fill-rule:nonzero;fill:rgb(100%,84.3%,0%);fill-opacity:1;" d="M 53.484375 489.710938 C 53.484375 491.386719 50.96875 491.386719 50.96875 489.710938 C 50.96875 488.035156 53.484375 488.035156 53.484375 489.710938 "/>
<path style=" stroke:none;fill-rule:nonzero;fill:rgb(100%,84.3%,0%);fill-opacity:1;" d="M 46.441406 407.445312 C 46.441406 409.125 43.925781 409.125 43.925781 407.445312 C 43.925781 405.769531 46.441406 405.769531 46.441406 407.445312 "/>
<path style=" stroke:none;fill-rule:nonzero;fill:rgb(100%,84.3%,0%);fill-opacity:1;" d="M 46.441406 430.089844 C 46.441406 431.765625 43.925781 431.765625 43.925781 430.089844 C 43.925781 428.410156 46.441406 428.410156 46.441406 430.089844 "/>
<path style=" stroke:none;fill-rule:nonzero;fill:rgb(100%,84.3%,0%);fill-opacity:1;" d="M 79.144531 297.007812 C 79.144531 298.683594 76.628906 298.683594 76.628906 297.007812 C 76.628906 295.328125 79.144531 295.328125 79.144531 297.007812 "/>
<path style=" stroke:none;fill-rule:nonzero;fill:rgb(100%,84.3%,0%);fill-opacity:1;" d="M 240.152344 297.007812 C 240.152344 298.683594 237.636719 298.683594 237.636719 297.007812 C 237.636719 295.328125 240.152344 295.328125 240.152344 297.007812 "/>
<path style=" stroke:none;fill-rule:nonzero;fill:rgb(100%,84.3%,0%);fill-opacity:1;" d="M 126.945312 297.007812 C 126.945312 298.683594 124.429688 298.683594 124.429688 297.007812 C 124.429688 295.328125 126.945312 295.328125 126.945312 297.007812 "/>
<path style=" stroke:none;fill-rule:nonzero;fill:rgb(100%,84.3%,0%);fill-opacity:1;" d="M 46.441406 432.605469 C 46.441406 434.28125 43.925781 434.28125 43.925781 432.605469 C 43.925781 430.925781 46.441406 430.925781 46.441406 432.605469 "/>
<path style=" stroke:none;fill-rule:nonzero;fill:rgb(100%,84.3%,0%);fill-opacity:1;" d="M 46.441406 440.152344 C 46.441406 441.828125 43.925781 441.828125 43.925781 440.152344 C 43.925781 438.472656 46.441406 438.472656 46.441406 440.152344 "/>
<path style=" stroke:none;fill-rule:nonzero;fill:rgb(100%,84.3%,0%);fill-opacity:1;" d="M 468.074219 377.507812 C 468.074219 379.1875 465.558594 379.1875 465.558594 377.507812 C 465.558594 375.832031 468.074219 375.832031 468.074219 377.507812 "/>
<path style=" stroke:none;fill-rule:nonzero;fill:rgb(100%,84.3%,0%);fill-opacity:1;" d="M 46.441406 447.699219 C 46.441406 449.375 43.925781 449.375 43.925781 447.699219 C 43.925781 446.019531 46.441406 446.019531 46.441406 447.699219 "/>
<path style=" stroke:none;fill-rule:nonzero;fill:rgb(100%,84.3%,0%);fill-opacity:1;" d="M 313.105469 297.007812 C 313.105469 298.683594 310.589844 298.683594 310.589844 297.007812 C 310.589844 295.328125 313.105469 295.328125 313.105469 297.007812 "/>
<path style=" stroke:none;fill-rule:nonzero;fill:rgb(100%,84.3%,0%);fill-opacity:1;" d="M 129.457031 297.007812 C 129.457031 298.683594 126.941406 298.683594 126.941406 297.007812 C 126.941406 295.328125 129.457031 295.328125 129.457031 297.007812 "/>
<path style=" stroke:none;fill-rule:nonzero;fill:rgb(100%,84.3%,0%);fill-opacity:1;" d="M 46.441406 389.835938 C 46.441406 391.511719 43.925781 391.511719 43.925781 389.835938 C 43.925781 388.160156 46.441406 388.160156 46.441406 389.835938 "/>
<path style=" stroke:none;fill-rule:nonzero;fill:rgb(100%,84.3%,0%);fill-opacity:1;" d="M 56 489.710938 C 56 491.386719 53.484375 491.386719 53.484375 489.710938 C 53.484375 488.035156 56 488.035156 56 489.710938 "/>
<path style=" stroke:none;fill-rule:nonzero;fill:rgb(100%,84.3%,0%);fill-opacity:1;" d="M 235.121094 297.007812 C 235.121094 298.683594 232.605469 298.683594 232.605469 297.007812 C 232.605469 295.328125 235.121094 295.328125 235.121094 297.007812 "/>
<path style=" stroke:none;fill-rule:nonzero;fill:rgb(100%,84.3%,0%);fill-opacity:1;" d="M 137.007812 297.007812 C 137.007812 298.683594 134.488281 298.683594 134.488281 297.007812 C 134.488281 295.328125 137.007812 295.328125 137.007812 297.007812 "/>
<path style=" stroke:none;fill-rule:nonzero;fill:rgb(100%,84.3%,0%);fill-opacity:1;" d="M 46.441406 427.570312 C 46.441406 429.25 43.925781 429.25 43.925781 427.570312 C 43.925781 425.894531 46.441406 425.894531 46.441406 427.570312 "/>
<path style=" stroke:none;fill-rule:nonzero;fill:rgb(100%,84.3%,0%);fill-opacity:1;" d="M 46.441406 442.667969 C 46.441406 444.34375 43.925781 444.34375 43.925781 442.667969 C 43.925781 440.988281 46.441406 440.988281 46.441406 442.667969 "/>
<path style=" stroke:none;fill-rule:nonzero;fill:rgb(100%,84.3%,0%);fill-opacity:1;" d="M 104.300781 297.007812 C 104.300781 298.683594 101.785156 298.683594 101.785156 297.007812 C 101.785156 295.328125 104.300781 295.328125 104.300781 297.007812 "/>
<path style=" stroke:none;fill-rule:nonzero;fill:rgb(100%,84.3%,0%);fill-opacity:1;" d="M 468.074219 374.992188 C 468.074219 376.671875 465.558594 376.671875 465.558594 374.992188 C 465.558594 373.316406 468.074219 373.316406 468.074219 374.992188 "/>
<path style=" stroke:none;fill-rule:nonzero;fill:rgb(100%,84.3%,0%);fill-opacity:1;" d="M 292.980469 297.007812 C 292.980469 298.683594 290.464844 298.683594 290.464844 297.007812 C 290.464844 295.328125 292.980469 295.328125 292.980469 297.007812 "/>
<path style=" stroke:none;fill-rule:nonzero;fill:rgb(100%,84.3%,0%);fill-opacity:1;" d="M 46.441406 387.320312 C 46.441406 389 43.925781 389 43.925781 387.320312 C 43.925781 385.644531 46.441406 385.644531 46.441406 387.320312 "/>
<path style=" stroke:none;fill-rule:nonzero;fill:rgb(100%,84.3%,0%);fill-opacity:1;" d="M 232.605469 297.007812 C 232.605469 298.683594 230.089844 298.683594 230.089844 297.007812 C 230.089844 295.328125 232.605469 295.328125 232.605469 297.007812 "/>
<path style=" stroke:none;fill-rule:nonzero;fill:rgb(100%,84.3%,0%);fill-opacity:1;" d="M 46.441406 445.183594 C 46.441406 446.859375 43.925781 446.859375 43.925781 445.183594 C 43.925781 443.503906 46.441406 443.503906 46.441406 445.183594 "/>
<path style=" stroke:none;fill-rule:nonzero;fill:rgb(100%,84.3%,0%);fill-opacity:1;" d="M 315.621094 297.007812 C 315.621094 298.683594 313.105469 298.683594 313.105469 297.007812 C 313.105469 295.328125 315.621094 295.328125 315.621094 297.007812 "/>
<path style=" stroke:none;fill-rule:nonzero;fill:rgb(100%,84.3%,0%);fill-opacity:1;" d="M 468.074219 342.289062 C 468.074219 343.964844 465.558594 343.964844 465.558594 342.289062 C 465.558594 340.613281 468.074219 340.613281 468.074219 342.289062 "/>
<path style=" stroke:none;fill-rule:nonzero;fill:rgb(100%,84.3%,0%);fill-opacity:1;" d="M 46.441406 399.898438 C 46.441406 401.574219 43.925781 401.574219 43.925781 399.898438 C 43.925781 398.222656 46.441406 398.222656 46.441406 399.898438 "/>
<path style=" stroke:none;fill-rule:nonzero;fill:rgb(100%,84.3%,0%);fill-opacity:1;" d="M 131.976562 297.007812 C 131.976562 298.683594 129.460938 298.683594 129.460938 297.007812 C 129.460938 295.328125 131.976562 295.328125 131.976562 297.007812 "/>
<path style=" stroke:none;fill-rule:nonzero;fill:rgb(100%,84.3%,0%);fill-opacity:1;" d="M 81.660156 297.007812 C 81.660156 298.683594 79.144531 298.683594 79.144531 297.007812 C 79.144531 295.328125 81.660156 295.328125 81.660156 297.007812 "/>
<path style=" stroke:none;fill-rule:nonzero;fill:rgb(100%,84.3%,0%);fill-opacity:1;" d="M 111.847656 297.007812 C 111.847656 298.683594 109.332031 298.683594 109.332031 297.007812 C 109.332031 295.328125 111.847656 295.328125 111.847656 297.007812 "/>
<path style=" stroke:none;fill-rule:nonzero;fill:rgb(100%,84.3%,0%);fill-opacity:1;" d="M 46.441406 384.804688 C 46.441406 386.480469 43.925781 386.480469 43.925781 384.804688 C 43.925781 383.128906 46.441406 383.128906 46.441406 384.804688 "/>
<path style=" stroke:none;fill-rule:nonzero;fill:rgb(100%,84.3%,0%);fill-opacity:1;" d="M 61.03125 489.710938 C 61.03125 491.386719 58.515625 491.386719 58.515625 489.710938 C 58.515625 488.035156 61.03125 488.035156 61.03125 489.710938 "/>
<path style=" stroke:none;fill-rule:nonzero;fill:rgb(100%,84.3%,0%);fill-opacity:1;" d="M 282.917969 297.007812 C 282.917969 298.683594 280.402344 298.683594 280.402344 297.007812 C 280.402344 295.328125 282.917969 295.328125 282.917969 297.007812 "/>
<path style=" stroke:none;fill-rule:nonzero;fill:rgb(100%,84.3%,0%);fill-opacity:1;" d="M 46.441406 402.414062 C 46.441406 404.09375 43.925781 404.09375 43.925781 402.414062 C 43.925781 400.738281 46.441406 400.738281 46.441406 402.414062 "/>
<path style=" stroke:none;fill-rule:nonzero;fill:rgb(100%,84.3%,0%);fill-opacity:1;" d="M 300.527344 297.007812 C 300.527344 298.683594 298.011719 298.683594 298.011719 297.007812 C 298.011719 295.328125 300.527344 295.328125 300.527344 297.007812 "/>
<path style=" stroke:none;fill-rule:nonzero;fill:rgb(100%,84.3%,0%);fill-opacity:1;" d="M 295.496094 297.007812 C 295.496094 298.683594 292.980469 298.683594 292.980469 297.007812 C 292.980469 295.328125 295.496094 295.328125 295.496094 297.007812 "/>
<path style=" stroke:none;fill-rule:nonzero;fill:rgb(100%,84.3%,0%);fill-opacity:1;" d="M 285.433594 297.007812 C 285.433594 298.683594 282.917969 298.683594 282.917969 297.007812 C 282.917969 295.328125 285.433594 295.328125 285.433594 297.007812 "/>
<path style=" stroke:none;fill-rule:nonzero;fill:rgb(100%,84.3%,0%);fill-opacity:1;" d="M 46.441406 470.339844 C 46.441406 472.015625 43.925781 472.015625 43.925781 470.339844 C 43.925781 468.664062 46.441406 468.664062 46.441406 470.339844 "/>
<path style=" stroke:none;fill-rule:nonzero;fill:rgb(100%,84.3%,0%);fill-opacity:1;" d="M 109.332031 297.007812 C 109.332031 298.683594 106.816406 298.683594 106.816406 297.007812 C 106.816406 295.328125 109.332031 295.328125 109.332031 297.007812 "/>
<path style=" stroke:none;fill-rule:nonzero;fill:rgb(100%,84.3%,0%);fill-opacity:1;" d="M 298.011719 297.007812 C 298.011719 298.683594 295.496094 298.683594 295.496094 297.007812 C 295.496094 295.328125 298.011719 295.328125 298.011719 297.007812 "/>
<path style=" stroke:none;fill-rule:nonzero;fill:rgb(100%,84.3%,0%);fill-opacity:1;" d="M 46.441406 467.824219 C 46.441406 469.5 43.925781 469.5 43.925781 467.824219 C 43.925781 466.148438 46.441406 466.148438 46.441406 467.824219 "/>
<path style=" stroke:none;fill-rule:nonzero;fill:rgb(100%,84.3%,0%);fill-opacity:1;" d="M 468.074219 372.476562 C 468.074219 374.15625 465.558594 374.15625 465.558594 372.476562 C 465.558594 370.800781 468.074219 370.800781 468.074219 372.476562 "/>
<path style=" stroke:none;fill-rule:nonzero;fill:rgb(100%,84.3%,0%);fill-opacity:1;" d="M 318.140625 297.007812 C 318.140625 298.683594 315.625 298.683594 315.625 297.007812 C 315.625 295.328125 318.140625 295.328125 318.140625 297.007812 "/>
<path style=" stroke:none;fill-rule:nonzero;fill:rgb(100%,84.3%,0%);fill-opacity:1;" d="M 46.441406 412.476562 C 46.441406 414.15625 43.925781 414.15625 43.925781 412.476562 C 43.925781 410.800781 46.441406 410.800781 46.441406 412.476562 "/>
<path style=" stroke:none;fill-rule:nonzero;fill:rgb(100%,84.3%,0%);fill-opacity:1;" d="M 46.441406 379.773438 C 46.441406 381.449219 43.925781 381.449219 43.925781 379.773438 C 43.925781 378.097656 46.441406 378.097656 46.441406 379.773438 "/>
</g>
</svg>
