<?xml version="1.0" encoding="UTF-8"?>
<svg xmlns="http://www.w3.org/2000/svg" xmlns:xlink="http://www.w3.org/1999/xlink" width="512pt" height="512pt" viewBox="0 0 512 512" version="1.1">
<g id="surface41">
<rect x="0" y="0" width="512" height="512" style="fill:rgb(26.7%,26.7%,26.7%);fill-opacity:1;stroke:none;"/>
<path style=" stroke:none;fill-rule:nonzero;fill:rgb(19.2%,38.8%,66.7%);fill-opacity:1;" d="M 0 46.546875 L 259.730469 46.546875 L 259.730469 512 L 0 512 Z M 0 46.546875 "/>
<path style=" stroke:none;fill-rule:nonzero;fill:rgb(100%,84.3%,0%);fill-opacity:1;" d="M 50.726562 484.835938 C 50.726562 490.550781 42.15625 490.550781 42.15625 484.835938 C 42.15625 479.121094 50.726562 479.121094 50.726562 484.835938 "/>
<path style=" stroke:none;fill-rule:nonzero;fill:rgb(100%,84.3%,0%);fill-opacity:1;" d="M 240.6875 253 C 240.6875 258.714844 232.117188 258.714844 232.117188 253 C 232.117188 247.285156 240.6875 247.285156 240.6875 253 "/>
<path style=" stroke:none;fill-rule:nonzero;fill:rgb(100%,84.3%,0%);fill-opacity:1;" d="M 148.488281 414.640625 C 148.488281 420.355469 139.917969 420.355469 139.917969 414.640625 C 139.917969 408.925781 148.488281 408.925781 148.488281 414.640625 "/>
<path style=" stroke:none;fill-rule:nonzero;fill:rgb(100%,84.3%,0%);fill-opacity:1;" d="M 18.316406 176.378906 C 18.316406 182.089844 9.746094 182.089844 9.746094 176.378906 C 9.746094 170.664062 18.316406 170.664062 18.316406 176.378906 "/>
<path style=" stroke:none;fill-rule:nonzero;fill:rgb(100%,84.3%,0%);fill-opacity:1;" d="M 185.105469 301.480469 C 185.105469 307.195312 176.53125 307.195312 176.53125 301.480469 C 176.53125 295.765625 185.105469 295.765625 185.105469 301.480469 "/>
<path style=" stroke:none;fill-rule:nonzero;fill:rgb(100%,84.3%,0%);fill-opacity:1;" d="M 14.386719 317.226562 C 14.386719 322.941406 5.816406 322.941406 5.816406 317.226562 C 5.816406 311.511719 14.386719 311.511719 14.386719 317.226562 "/>
<path style=" stroke:none;fill-rule:nonzero;fill:rgb(100%,84.3%,0%);fill-opacity:1;" d="M 170.746094 388.648438 C 170.746094 394.363281 162.175781 394.363281 162.175781 388.648438 C 162.175781 382.933594 170.746094 382.933594 170.746094 388.648438 "/>
<path style=" stroke:none;fill-rule:nonzero;fill:rgb(100%,84.3%,0%);fill-opacity:1;" d="M 20.101562 460.421875 C 20.101562 466.136719 11.527344 466.136719 11.527344 460.421875 C 11.527344 454.707031 20.101562 454.707031 20.101562 460.421875 "/>
<path style=" stroke:none;fill-rule:nonzero;fill:rgb(100%,84.3%,0%);fill-opacity:1;" d="M 194.230469 202.636719 C 194.230469 208.347656 185.65625 208.347656 185.65625 202.636719 C 185.65625 196.921875 194.230469 196.921875 194.230469 202.636719 "/>
<path style=" stroke:none;fill-rule:nonzero;fill:rgb(100%,84.3%,0%);fill-opacity:1;" d="M 169.722656 55.117188 C 169.722656 60.832031 161.152344 60.832031 161.152344 55.117188 C 161.152344 49.402344 169.722656 49.402344 169.722656 55.117188 "/>
<path style=" stroke:none;fill-rule:nonzero;fill:rgb(100%,84.3%,0%);fill-opacity:1;" d="M 255.441406 128.246094 C 255.441406 133.960938 246.871094 133.960938 246.871094 128.246094 C 246.871094 122.53125 255.441406 122.53125 255.441406 128.246094 "/>
<path style=" stroke:none;fill-rule:nonzero;fill:rgb(100%,84.3%,0%);fill-opacity:1;" d="M 246.871094 55.117188 C 246.871094 60.832031 238.300781 60.832031 238.300781 55.117188 C 238.300781 49.402344 246.871094 49.402344 246.871094 55.117188 "/>
<path style=" stroke:none;fill-rule:nonzero;fill:rgb(100%,84.3%,0%);fill-opacity:1;" d="M 139.550781 341.15625 C 139.550781 346.871094 130.980469 346.871094 130.980469 341.15625 C 130.980469 335.441406 139.550781 335.441406 139.550781 341.15625 "/>
<path style=" stroke:none;fill-rule:nonzero;fill:rgb(100%,84.3%,0%);fill-opacity:1;" d="M 105.269531 369.652344 C 105.269531 375.367188 96.695312 375.367188 96.695312 369.652344 C 96.695312 363.9375 105.269531 363.9375 105.269531 369.652344 "/>
<path style=" stroke:none;fill-rule:nonzero;fill:rgb(100%,84.3%,0%);fill-opacity:1;" d="M 95.980469 104.386719 C 95.980469 110.101562 87.410156 110.101562 87.410156 104.386719 C 87.410156 98.671875 95.980469 98.671875 95.980469 104.386719 "/>
<path style=" stroke:none;fill-rule:nonzero;fill:rgb(100%,84.3%,0%);fill-opacity:1;" d="M 41.144531 55.117188 C 41.144531 60.832031 32.574219 60.832031 32.574219 55.117188 C 32.574219 49.402344 41.144531 49.402344 41.144531 55.117188 "/>
<path style=" stroke:none;fill-rule:nonzero;fill:rgb(100%,84.3%,0%);fill-opacity:1;" d="M 161.152344 55.117188 C 161.152344 60.832031 152.578125 60.832031 152.578125 55.117188 C 152.578125 49.402344 161.152344 49.402344 161.152344 55.117188 "/>
<path style=" stroke:none;fill-rule:nonzero;fill:rgb(100%,84.3%,0%);fill-opacity:1;" d="M 120.828125 304.847656 C 120.828125 310.5625 112.257812 310.5625 112.257812 304.847656 C 112.257812 299.132812 120.828125 299.132812 120.828125 304.847656 "/>
<path style=" stroke:none;fill-rule:nonzero;fill:rgb(100%,84.3%,0%);fill-opacity:1;" d="M 24 55.117188 C 24 60.832031 15.429688 60.832031 15.429688 55.117188 C 15.429688 49.402344 24 49.402344 24 55.117188 "/>
<path style=" stroke:none;fill-rule:nonzero;fill:rgb(100%,84.3%,0%);fill-opacity:1;" d="M 160.164062 101.800781 C 160.164062 107.515625 151.59375 107.515625 151.59375 101.800781 C 151.59375 96.085938 160.164062 96.085938 160.164062 101.800781 "/>
<path style=" stroke:none;fill-rule:nonzero;fill:rgb(100%,84.3%,0%);fill-opacity:1;" d="M 184.542969 415.554688 C 184.542969 421.269531 175.972656 421.269531 175.972656 415.554688 C 175.972656 409.839844 184.542969 409.839844 184.542969 415.554688 "/>
<path style=" stroke:none;fill-rule:nonzero;fill:rgb(100%,84.3%,0%);fill-opacity:1;" d="M 97.199219 164.90625 C 97.199219 170.621094 88.628906 170.621094 88.628906 164.90625 C 88.628906 159.191406 97.199219 159.191406 97.199219 164.90625 "/>
<path style=" stroke:none;fill-rule:nonzero;fill:rgb(100%,84.3%,0%);fill-opacity:1;" d="M 254.71875 63.660156 C 254.71875 69.375 246.144531 69.375 246.144531 63.660156 C 246.144531 57.945312 254.71875 57.945312 254.71875 63.660156 "/>
<path style=" stroke:none;fill-rule:nonzero;fill:rgb(100%,84.3%,0%);fill-opacity:1;" d="M 58.289062 55.117188 C 58.289062 60.832031 49.71875 60.832031 49.71875 55.117188 C 49.71875 49.402344 58.289062 49.402344 58.289062 55.117188 "/>
<path style=" stroke:none;fill-rule:nonzero;fill:rgb(100%,84.3%,0%);fill-opacity:1;" d="M 229.726562 55.117188 C 229.726562 60.832031 221.15625 60.832031 221.15625 55.117188 C 221.15625 49.402344 229.726562 49.402344 229.726562 55.117188 "/>
<path style=" stroke:none;fill-rule:nonzero;fill:rgb(100%,84.3%,0%);fill-opacity:1;" d="M 68.132812 213.429688 C 68.132812 219.144531 59.558594 219.144531 59.558594 213.429688 C 59.558594 207.714844 68.132812 207.714844 68.132812 213.429688 "/>
<path style=" stroke:none;fill-rule:nonzero;fill:rgb(100%,84.3%,0%);fill-opacity:1;" d="M 255.441406 379.75 C 255.441406 385.464844 246.871094 385.464844 246.871094 379.75 C 246.871094 374.035156 255.441406 374.035156 255.441406 379.75 "/>
<path style=" stroke:none;fill-rule:nonzero;fill:rgb(100%,84.3%,0%);fill-opacity:1;" d="M 196.738281 293.972656 C 196.738281 299.6875 188.167969 299.6875 188.167969 293.972656 C 188.167969 288.257812 196.738281 288.257812 196.738281 293.972656 "/>
<path style=" stroke:none;fill-rule:nonzero;fill:rgb(100%,84.3%,0%);fill-opacity:1;" d="M 199.242188 152.714844 C 199.242188 158.425781 190.671875 158.425781 190.671875 152.714844 C 190.671875 147 199.242188 147 199.242188 152.714844 "/>
<path style=" stroke:none;fill-rule:nonzero;fill:rgb(100%,84.3%,0%);fill-opacity:1;" d="M 205.035156 303.671875 C 205.035156 309.382812 196.460938 309.382812 196.460938 303.671875 C 196.460938 297.957031 205.035156 297.957031 205.035156 303.671875 "/>
<path style=" stroke:none;fill-rule:nonzero;fill:rgb(100%,84.3%,0%);fill-opacity:1;" d="M 195.441406 55.117188 C 195.441406 60.832031 186.867188 60.832031 186.867188 55.117188 C 186.867188 49.402344 195.441406 49.402344 195.441406 55.117188 "/>
<path style=" stroke:none;fill-rule:nonzero;fill:rgb(100%,84.3%,0%);fill-opacity:1;" d="M 237.785156 314.492188 C 237.785156 320.207031 229.210938 320.207031 229.210938 314.492188 C 229.210938 308.777344 237.785156 308.777344 237.785156 314.492188 "/>
<path style=" stroke:none;fill-rule:nonzero;fill:rgb(100%,84.3%,0%);fill-opacity:1;" d="M 80.378906 138.351562 C 80.378906 144.066406 71.808594 144.066406 71.808594 138.351562 C 71.808594 132.636719 80.378906 132.636719 80.378906 138.351562 "/>
<path style=" stroke:none;fill-rule:nonzero;fill:rgb(100%,84.3%,0%);fill-opacity:1;" d="M 109.71875 55.117188 C 109.71875 60.832031 101.148438 60.832031 101.148438 55.117188 C 101.148438 49.402344 109.71875 49.402344 109.71875 55.117188 "/>
<path style=" stroke:none;fill-rule:nonzero;fill:rgb(100%,84.3%,0%);fill-opacity:1;" d="M 176.558594 349.625 C 176.558594 355.339844 167.988281 355.339844 167.988281 349.625 C 167.988281 343.910156 176.558594 343.910156 176.558594 349.625 "/>
<path style=" stroke:none;fill-rule:nonzero;fill:rgb(100%,84.3%,0%);fill-opacity:1;" d="M 60.300781 372.855469 C 60.300781 378.570312 51.730469 378.570312 51.730469 372.855469 C 51.730469 367.140625 60.300781 367.140625 60.300781 372.855469 "/>
<path style=" stroke:none;fill-rule:nonzero;fill:rgb(100%,84.3%,0%);fill-opacity:1;" d="M 72.175781 75.90625 C 72.175781 81.621094 63.605469 81.621094 63.605469 75.90625 C 63.605469 70.195312 72.175781 70.195312 72.175781 75.90625 "/>
<path style=" stroke:none;fill-rule:nonzero;fill:rgb(100%,84.3%,0%);fill-opacity:1;" d="M 212.714844 413.792969 C 212.714844 419.507812 204.144531 419.507812 204.144531 413.792969 C 204.144531 408.078125 212.714844 408.078125 212.714844 413.792969 "/>
<path style=" stroke:none;fill-rule:nonzero;fill:rgb(100%,84.3%,0%);fill-opacity:1;" d="M 19.664062 451.859375 C 19.664062 457.574219 11.09375 457.574219 11.09375 451.859375 C 11.09375 446.144531 19.664062 446.144531 19.664062 451.859375 "/>
<path style=" stroke:none;fill-rule:nonzero;fill:rgb(100%,84.3%,0%);fill-opacity:1;" d="M 101.324219 117.035156 C 101.324219 122.75 92.75 122.75 92.75 117.035156 C 92.75 111.320312 101.324219 111.320312 101.324219 117.035156 "/>
<path style=" stroke:none;fill-rule:nonzero;fill:rgb(100%,84.3%,0%);fill-opacity:1;" d="M 194.132812 280.8125 C 194.132812 286.527344 185.5625 286.527344 185.5625 280.8125 C 185.5625 275.097656 194.132812 275.097656 194.132812 280.8125 "/>
<path style=" stroke:none;fill-rule:nonzero;fill:rgb(100%,84.3%,0%);fill-opacity:1;" d="M 141.328125 474.425781 C 141.328125 480.140625 132.757812 480.140625 132.757812 474.425781 C 132.757812 468.710938 141.328125 468.710938 141.328125 474.425781 "/>
<path style=" stroke:none;fill-rule:nonzero;fill:rgb(100%,84.3%,0%);fill-opacity:1;" d="M 144.007812 55.117188 C 144.007812 60.832031 135.4375 60.832031 135.4375 55.117188 C 135.4375 49.402344 144.007812 49.402344 144.007812 55.117188 "/>
<path style=" stroke:none;fill-rule:nonzero;fill:rgb(100%,84.3%,0%);fill-opacity:1;" d="M 247.128906 176.308594 C 247.128906 182.023438 238.558594 182.023438 238.558594 176.308594 C 238.558594 170.59375 247.128906 170.59375 247.128906 176.308594 "/>
<path style=" stroke:none;fill-rule:nonzero;fill:rgb(100%,84.3%,0%);fill-opacity:1;" d="M 228.53125 220.046875 C 228.53125 225.761719 219.960938 225.761719 219.960938 220.046875 C 219.960938 214.332031 228.53125 214.332031 228.53125 220.046875 "/>
<path style=" stroke:none;fill-rule:nonzero;fill:rgb(100%,84.3%,0%);fill-opacity:1;" d="M 123.773438 227.300781 C 123.773438 233.015625 115.199219 233.015625 115.199219 227.300781 C 115.199219 221.585938 123.773438 221.585938 123.773438 227.300781 "/>
<path style=" stroke:none;fill-rule:nonzero;fill:rgb(100%,84.3%,0%);fill-opacity:1;" d="M 29.429688 210.511719 C 29.429688 216.226562 20.855469 216.226562 20.855469 210.511719 C 20.855469 204.796875 29.429688 204.796875 29.429688 210.511719 "/>
<path style=" stroke:none;fill-rule:nonzero;fill:rgb(100%,84.3%,0%);fill-opacity:1;" d="M 207.144531 147.730469 C 207.144531 153.445312 198.574219 153.445312 198.574219 147.730469 C 198.574219 142.015625 207.144531 142.015625 207.144531 147.730469 "/>
<path style=" stroke:none;fill-rule:nonzero;fill:rgb(100%,84.3%,0%);fill-opacity:1;" d="M 30.164062 431.082031 C 30.164062 436.796875 21.59375 436.796875 21.59375 431.082031 C 21.59375 425.367188 30.164062 425.367188 30.164062 431.082031 "/>
<path style=" stroke:none;fill-rule:nonzero;fill:rgb(100%,84.3%,0%);fill-opacity:1;" d="M 246.941406 91.3125 C 246.941406 97.027344 238.367188 97.027344 238.367188 91.3125 C 238.367188 85.597656 246.941406 85.597656 246.941406 91.3125 "/>
<path style=" stroke:none;fill-rule:nonzero;fill:rgb(100%,84.3%,0%);fill-opacity:1;" d="M 255.441406 299.859375 C 255.441406 305.574219 246.871094 305.574219 246.871094 299.859375 C 246.871094 294.144531 255.441406 294.144531 255.441406 299.859375 "/>
<path style=" stroke:none;fill-rule:nonzero;fill:rgb(100%,84.3%,0%);fill-opacity:1;" d="M 75.433594 55.117188 C 75.433594 60.832031 66.859375 60.832031 66.859375 55.117188 C 66.859375 49.402344 75.433594 49.402344 75.433594 55.117188 "/>
<path style=" stroke:none;fill-rule:nonzero;fill:rgb(100%,84.3%,0%);fill-opacity:1;" d="M 60.121094 225.035156 C 60.121094 230.75 51.550781 230.75 51.550781 225.035156 C 51.550781 219.320312 60.121094 219.320312 60.121094 225.035156 "/>
<path style=" stroke:none;fill-rule:nonzero;fill:rgb(100%,84.3%,0%);fill-opacity:1;" d="M 234.984375 165.683594 C 234.984375 171.398438 226.414062 171.398438 226.414062 165.683594 C 226.414062 159.96875 234.984375 159.96875 234.984375 165.683594 "/>
<path style=" stroke:none;fill-rule:nonzero;fill:rgb(100%,84.3%,0%);fill-opacity:1;" d="M 221.15625 55.117188 C 221.15625 60.832031 212.582031 60.832031 212.582031 55.117188 C 212.582031 49.402344 221.15625 49.402344 221.15625 55.117188 "/>
<path style=" stroke:none;fill-rule:nonzero;fill:rgb(100%,84.3%,0%);fill-opacity:1;" d="M 233.003906 375.414062 C 233.003906 381.128906 224.433594 381.128906 224.433594 375.414062 C 224.433594 369.703125 233.003906 369.703125 233.003906 375.414062 "/>
<path style=" stroke:none;fill-rule:nonzero;fill:rgb(100%,84.3%,0%);fill-opacity:1;" d="M 175.410156 220.507812 C 175.410156 226.222656 166.835938 226.222656 166.835938 220.507812 C 166.835938 214.792969 175.410156 214.792969 175.410156 220.507812 "/>
<path style=" stroke:none;fill-rule:nonzero;fill:rgb(100%,84.3%,0%);fill-opacity:1;" d="M 255.441406 55.117188 C 255.441406 60.832031 246.871094 60.832031 246.871094 55.117188 C 246.871094 49.402344 255.441406 49.402344 255.441406 55.117188 "/>
<path style=" stroke:none;fill-rule:nonzero;fill:rgb(100%,84.3%,0%);fill-opacity:1;" d="M 126.863281 55.117188 C 126.863281 60.832031 118.292969 60.832031 118.292969 55.117188 C 118.292969 49.402344 126.863281 49.402344 126.863281 55.117188 "/>
<path style=" stroke:none;fill-rule:nonzero;fill:rgb(100%,84.3%,0%);fill-opacity:1;" d="M 180.046875 270.46875 C 180.046875 276.183594 171.476562 276.183594 171.476562 270.46875 C 171.476562 264.753906 180.046875 264.753906 180.046875 270.46875 "/>
<path style=" stroke:none;fill-rule:nonzero;fill:rgb(100%,84.3%,0%);fill-opacity:1;" d="M 155.6875 302.34375 C 155.6875 308.054688 147.113281 308.054688 147.113281 302.34375 C 147.113281 296.628906 155.6875 296.628906 155.6875 302.34375 "/>
<path style=" stroke:none;fill-rule:nonzero;fill:rgb(100%,84.3%,0%);fill-opacity:1;" d="M 134.074219 418.761719 C 134.074219 424.472656 125.503906 424.472656 125.503906 418.761719 C 125.503906 413.046875 134.074219 413.046875 134.074219 418.761719 "/>
<path style=" stroke:none;fill-rule:nonzero;fill:rgb(100%,84.3%,0%);fill-opacity:1;" d="M 145.828125 295.308594 C 145.828125 301.023438 137.253906 301.023438 137.253906 295.308594 C 137.253906 289.59375 145.828125 289.59375 145.828125 295.308594 "/>
<path style=" stroke:none;fill-rule:nonzero;fill:rgb(100%,84.3%,0%);fill-opacity:1;" d="M 16.214844 225.933594 C 16.214844 231.648438 7.640625 231.648438 7.640625 225.933594 C 7.640625 220.21875 16.214844 220.21875 16.214844 225.933594 "/>
<path style=" stroke:none;fill-rule:nonzero;fill:rgb(100%,84.3%,0%);fill-opacity:1;" d="M 186.074219 310.597656 C 186.074219 316.3125 177.503906 316.3125 177.503906 310.597656 C 177.503906 304.882812 186.074219 304.882812 186.074219 310.597656 "/>
<path style=" stroke:none;fill-rule:nonzero;fill:rgb(100%,84.3%,0%);fill-opacity:1;" d="M 212.582031 55.117188 C 212.582031 60.832031 204.011719 60.832031 204.011719 55.117188 C 204.011719 49.402344 212.582031 49.402344 212.582031 55.117188 "/>
<path style=" stroke:none;fill-rule:nonzero;fill:rgb(100%,84.3%,0%);fill-opacity:1;" d="M 135.4375 55.117188 C 135.4375 60.832031 126.863281 60.832031 126.863281 55.117188 C 126.863281 49.402344 135.4375 49.402344 135.4375 55.117188 "/>
<path style=" stroke:none;fill-rule:nonzero;fill:rgb(100%,84.3%,0%);fill-opacity:1;" d="M 238.425781 344.046875 C 238.425781 349.757812 229.851562 349.757812 229.851562 344.046875 C 229.851562 338.332031 238.425781 338.332031 238.425781 344.046875 "/>
<path style=" stroke:none;fill-rule:nonzero;fill:rgb(100%,84.3%,0%);fill-opacity:1;" d="M 186.867188 55.117188 C 186.867188 60.832031 178.296875 60.832031 178.296875 55.117188 C 178.296875 49.402344 186.867188 49.402344 186.867188 55.117188 "/>
<path style=" stroke:none;fill-rule:nonzero;fill:rgb(100%,84.3%,0%);fill-opacity:1;" d="M 197.144531 186.390625 C 197.144531 192.105469 188.570312 192.105469 188.570312 186.390625 C 188.570312 180.675781 197.144531 180.675781 197.144531 186.390625 "/>
<path style=" stroke:none;fill-rule:nonzero;fill:rgb(100%,84.3%,0%);fill-opacity:1;" d="M 104.910156 74.011719 C 104.910156 79.726562 96.339844 79.726562 96.339844 74.011719 C 96.339844 68.296875 104.910156 68.296875 104.910156 74.011719 "/>
<path style=" stroke:none;fill-rule:nonzero;fill:rgb(100%,84.3%,0%);fill-opacity:1;" d="M 84.003906 55.117188 C 84.003906 60.832031 75.433594 60.832031 75.433594 55.117188 C 75.433594 49.402344 84.003906 49.402344 84.003906 55.117188 "/>
<path style=" stroke:none;fill-rule:nonzero;fill:rgb(100%,84.3%,0%);fill-opacity:1;" d="M 56 272.90625 C 56 278.621094 47.429688 278.621094 47.429688 272.90625 C 47.429688 267.191406 56 267.191406 56 272.90625 "/>
<path style=" stroke:none;fill-rule:nonzero;fill:rgb(100%,84.3%,0%);fill-opacity:1;" d="M 255.441406 326.648438 C 255.441406 332.363281 246.871094 332.363281 246.871094 326.648438 C 246.871094 320.933594 255.441406 320.933594 255.441406 326.648438 "/>
<path style=" stroke:none;fill-rule:nonzero;fill:rgb(100%,84.3%,0%);fill-opacity:1;" d="M 255.441406 151.417969 C 255.441406 157.132812 246.871094 157.132812 246.871094 151.417969 C 246.871094 145.703125 255.441406 145.703125 255.441406 151.417969 "/>
<path style=" stroke:none;fill-rule:nonzero;fill:rgb(100%,84.3%,0%);fill-opacity:1;" d="M 178.296875 55.117188 C 178.296875 60.832031 169.722656 60.832031 169.722656 55.117188 C 169.722656 49.402344 178.296875 49.402344 178.296875 55.117188 "/>
<path style=" stroke:none;fill-rule:nonzero;fill:rgb(100%,84.3%,0%);fill-opacity:1;" d="M 255.441406 174.222656 C 255.441406 179.9375 246.871094 179.9375 246.871094 174.222656 C 246.871094 168.507812 255.441406 168.507812 255.441406 174.222656 "/>
<path style=" stroke:none;fill-rule:nonzero;fill:rgb(100%,84.3%,0%);fill-opacity:1;" d="M 226.246094 354.519531 C 226.246094 360.234375 217.675781 360.234375 217.675781 354.519531 C 217.675781 348.804688 226.246094 348.804688 226.246094 354.519531 "/>
<path style=" stroke:none;fill-rule:nonzero;fill:rgb(100%,84.3%,0%);fill-opacity:1;" d="M 162.539062 243.179688 C 162.539062 248.894531 153.96875 248.894531 153.96875 243.179688 C 153.96875 237.464844 162.539062 237.464844 162.539062 243.179688 "/>
<path style=" stroke:none;fill-rule:nonzero;fill:rgb(100%,84.3%,0%);fill-opacity:1;" d="M 217.886719 154.410156 C 217.886719 160.125 209.3125 160.125 209.3125 154.410156 C 209.3125 148.695312 217.886719 148.695312 217.886719 154.410156 "/>
<path style=" stroke:none;fill-rule:nonzero;fill:rgb(100%,84.3%,0%);fill-opacity:1;" d="M 224.984375 164.539062 C 224.984375 170.253906 216.414062 170.253906 216.414062 164.539062 C 216.414062 158.824219 224.984375 158.824219 224.984375 164.539062 "/>
<path style=" stroke:none;fill-rule:nonzero;fill:rgb(100%,84.3%,0%);fill-opacity:1;" d="M 75.902344 338.890625 C 75.902344 344.605469 67.328125 344.605469 67.328125 338.890625 C 67.328125 333.175781 75.902344 333.175781 75.902344 338.890625 "/>
<path style=" stroke:none;fill-rule:nonzero;fill:rgb(100%,84.3%,0%);fill-opacity:1;" d="M 210.808594 248.648438 C 210.808594 254.363281 202.234375 254.363281 202.234375 248.648438 C 202.234375 242.933594 210.808594 242.933594 210.808594 248.648438 "/>
<path style=" stroke:none;fill-rule:nonzero;fill:rgb(100%,84.3%,0%);fill-opacity:1;" d="M 223.878906 261.996094 C 223.878906 267.710938 215.308594 267.710938 215.308594 261.996094 C 215.308594 256.285156 223.878906 256.285156 223.878906 261.996094 "/>
<path style=" stroke:none;fill-rule:nonzero;fill:rgb(100%,84.3%,0%);fill-opacity:1;" d="M 244.265625 350.898438 C 244.265625 356.613281 235.695312 356.613281 235.695312 350.898438 C 235.695312 345.183594 244.265625 345.183594 244.265625 350.898438 "/>
<path style=" stroke:none;fill-rule:nonzero;fill:rgb(100%,84.3%,0%);fill-opacity:1;" d="M 74.445312 362.511719 C 74.445312 368.226562 65.875 368.226562 65.875 362.511719 C 65.875 356.796875 74.445312 356.796875 74.445312 362.511719 "/>
<path style=" stroke:none;fill-rule:nonzero;fill:rgb(100%,84.3%,0%);fill-opacity:1;" d="M 229.445312 181.691406 C 229.445312 187.40625 220.875 187.40625 220.875 181.691406 C 220.875 175.976562 229.445312 175.976562 229.445312 181.691406 "/>
<path style=" stroke:none;fill-rule:nonzero;fill:rgb(100%,84.3%,0%);fill-opacity:1;" d="M 107.417969 169.800781 C 107.417969 175.511719 98.847656 175.511719 98.847656 169.800781 C 98.847656 164.085938 107.417969 164.085938 107.417969 169.800781 "/>
<path style=" stroke:none;fill-rule:nonzero;fill:rgb(100%,84.3%,0%);fill-opacity:1;" d="M 101.148438 55.117188 C 101.148438 60.832031 92.578125 60.832031 92.578125 55.117188 C 92.578125 49.402344 101.148438 49.402344 101.148438 55.117188 "/>
<path style=" stroke:none;fill-rule:nonzero;fill:rgb(100%,84.3%,0%);fill-opacity:1;" d="M 13.320312 326.925781 C 13.320312 332.640625 4.746094 332.640625 4.746094 326.925781 C 4.746094 321.210938 13.320312 321.210938 13.320312 326.925781 "/>
<path style=" stroke:none;fill-rule:nonzero;fill:rgb(100%,84.3%,0%);fill-opacity:1;" d="M 117.460938 317.289062 C 117.460938 323.003906 108.890625 323.003906 108.890625 317.289062 C 108.890625 311.574219 117.460938 311.574219 117.460938 317.289062 "/>
<path style=" stroke:none;fill-rule:nonzero;fill:rgb(100%,84.3%,0%);fill-opacity:1;" d="M 66.859375 55.117188 C 66.859375 60.832031 58.289062 60.832031 58.289062 55.117188 C 58.289062 49.402344 66.859375 49.402344 66.859375 55.117188 "/>
<path style=" stroke:none;fill-rule:nonzero;fill:rgb(100%,84.3%,0%);fill-opacity:1;" d="M 197.183594 375.632812 C 197.183594 381.347656 188.613281 381.347656 188.613281 375.632812 C 188.613281 369.917969 197.183594 369.917969 197.183594 375.632812 "/>
<path style=" stroke:none;fill-rule:nonzero;fill:rgb(100%,84.3%,0%);fill-opacity:1;" d="M 243.359375 322.71875 C 243.359375 328.433594 234.785156 328.433594 234.785156 322.71875 C 234.785156 317.003906 243.359375 317.003906 243.359375 322.71875 "/>
<path style=" stroke:none;fill-rule:nonzero;fill:rgb(100%,84.3%,0%);fill-opacity:1;" d="M 81.066406 203.71875 C 81.066406 209.433594 72.492188 209.433594 72.492188 203.71875 C 72.492188 198.003906 81.066406 198.003906 81.066406 203.71875 "/>
<path style=" stroke:none;fill-rule:nonzero;fill:rgb(100%,84.3%,0%);fill-opacity:1;" d="M 255.441406 273.199219 C 255.441406 278.914062 246.871094 278.914062 246.871094 273.199219 C 246.871094 267.488281 255.441406 267.488281 255.441406 273.199219 "/>
<path style=" stroke:none;fill-rule:nonzero;fill:rgb(100%,84.3%,0%);fill-opacity:1;" d="M 32.574219 55.117188 C 32.574219 60.832031 24 60.832031 24 55.117188 C 24 49.402344 32.574219 49.402344 32.574219 55.117188 "/>
<path style=" stroke:none;fill-rule:nonzero;fill:rgb(100%,84.3%,0%);fill-opacity:1;" d="M 37.34375 345.039062 C 37.34375 350.753906 28.773438 350.753906 28.773438 345.039062 C 28.773438 339.328125 37.34375 339.328125 37.34375 345.039062 "/>
<path style=" stroke:none;fill-rule:nonzero;fill:rgb(100%,84.3%,0%);fill-opacity:1;" d="M 213.359375 124.550781 C 213.359375 130.265625 204.785156 130.265625 204.785156 124.550781 C 204.785156 118.835938 213.359375 118.835938 213.359375 124.550781 "/>
<path style=" stroke:none;fill-rule:nonzero;fill:rgb(100%,84.3%,0%);fill-opacity:1;" d="M 94.679688 198.226562 C 94.679688 203.941406 86.105469 203.941406 86.105469 198.226562 C 86.105469 192.511719 94.679688 192.511719 94.679688 198.226562 "/>
<path style=" stroke:none;fill-rule:nonzero;fill:rgb(100%,84.3%,0%);fill-opacity:1;" d="M 211.089844 400.347656 C 211.089844 406.0625 202.519531 406.0625 202.519531 400.347656 C 202.519531 394.632812 211.089844 394.632812 211.089844 400.347656 "/>
<path style=" stroke:none;fill-rule:nonzero;fill:rgb(100%,84.3%,0%);fill-opacity:1;" d="M 238.300781 55.117188 C 238.300781 60.832031 229.726562 60.832031 229.726562 55.117188 C 229.726562 49.402344 238.300781 49.402344 238.300781 55.117188 "/>
<path style=" stroke:none;fill-rule:nonzero;fill:rgb(100%,84.3%,0%);fill-opacity:1;" d="M 204.011719 55.117188 C 204.011719 60.832031 195.4375 60.832031 195.4375 55.117188 C 195.4375 49.402344 204.011719 49.402344 204.011719 55.117188 "/>
<path style=" stroke:none;fill-rule:nonzero;fill:rgb(100%,84.3%,0%);fill-opacity:1;" d="M 239.40625 411.445312 C 239.40625 417.160156 230.835938 417.160156 230.835938 411.445312 C 230.835938 405.730469 239.40625 405.730469 239.40625 411.445312 "/>
<path style=" stroke:none;fill-rule:nonzero;fill:rgb(100%,84.3%,0%);fill-opacity:1;" d="M 140.972656 178.785156 C 140.972656 184.5 132.402344 184.5 132.402344 178.785156 C 132.402344 173.070312 140.972656 173.070312 140.972656 178.785156 "/>
<path style=" stroke:none;fill-rule:nonzero;fill:rgb(100%,84.3%,0%);fill-opacity:1;" d="M 236.359375 108.269531 C 236.359375 113.984375 227.785156 113.984375 227.785156 108.269531 C 227.785156 102.554688 236.359375 102.554688 236.359375 108.269531 "/>
<path style=" stroke:none;fill-rule:nonzero;fill:rgb(100%,84.3%,0%);fill-opacity:1;" d="M 40.578125 454.691406 C 40.578125 460.40625 32.003906 460.40625 32.003906 454.691406 C 32.003906 448.976562 40.578125 448.976562 40.578125 454.691406 "/>
<path style=" stroke:none;fill-rule:nonzero;fill:rgb(100%,84.3%,0%);fill-opacity:1;" d="M 130.363281 382.234375 C 130.363281 387.949219 121.792969 387.949219 121.792969 382.234375 C 121.792969 376.519531 130.363281 376.519531 130.363281 382.234375 "/>
<path style=" stroke:none;fill-rule:nonzero;fill:rgb(100%,84.3%,0%);fill-opacity:1;" d="M 237.425781 98.570312 C 237.425781 104.285156 228.855469 104.285156 228.855469 98.570312 C 228.855469 92.855469 237.425781 92.855469 237.425781 98.570312 "/>
<path style=" stroke:none;fill-rule:nonzero;fill:rgb(100%,84.3%,0%);fill-opacity:1;" d="M 132.371094 427.199219 C 132.371094 432.914062 123.800781 432.914062 123.800781 427.199219 C 123.800781 421.484375 132.371094 421.484375 132.371094 427.199219 "/>
<path style=" stroke:none;fill-rule:nonzero;fill:rgb(100%,84.3%,0%);fill-opacity:1;" d="M 246.046875 294.859375 C 246.046875 300.574219 237.476562 300.574219 237.476562 294.859375 C 237.476562 289.144531 246.046875 289.144531 246.046875 294.859375 "/>
<path style=" stroke:none;fill-rule:nonzero;fill:rgb(100%,84.3%,0%);fill-opacity:1;" d="M 226.375 308.453125 C 226.375 314.167969 217.804688 314.167969 217.804688 308.453125 C 217.804688 302.738281 226.375 302.738281 226.375 308.453125 "/>
<path style=" stroke:none;fill-rule:nonzero;fill:rgb(100%,84.3%,0%);fill-opacity:1;" d="M 15.429688 55.117188 C 15.429688 60.832031 6.855469 60.832031 6.855469 55.117188 C 6.855469 49.402344 15.429688 49.402344 15.429688 55.117188 "/>
<path style=" stroke:none;fill-rule:nonzero;fill:rgb(100%,84.3%,0%);fill-opacity:1;" d="M 221.363281 385.917969 C 221.363281 391.632812 212.789062 391.632812 212.789062 385.917969 C 212.789062 380.203125 221.363281 380.203125 221.363281 385.917969 "/>
<path style=" stroke:none;fill-rule:nonzero;fill:rgb(100%,84.3%,0%);fill-opacity:1;" d="M 49.71875 55.117188 C 49.71875 60.832031 41.144531 60.832031 41.144531 55.117188 C 41.144531 49.402344 49.71875 49.402344 49.71875 55.117188 "/>
<path style=" stroke:none;fill-rule:nonzero;fill:rgb(100%,84.3%,0%);fill-opacity:1;" d="M 143.496094 145.464844 C 143.496094 151.179688 134.925781 151.179688 134.925781 145.464844 C 134.925781 139.75 143.496094 139.75 143.496094 145.464844 "/>
<path style=" stroke:none;fill-rule:nonzero;fill:rgb(100%,84.3%,0%);fill-opacity:1;" d="M 97.554688 460.546875 C 97.554688 466.257812 88.984375 466.257812 88.984375 460.546875 C 88.984375 454.832031 97.554688 454.832031 97.554688 460.546875 "/>
<path style=" stroke:none;fill-rule:nonzero;fill:rgb(100%,84.3%,0%);fill-opacity:1;" d="M 246.949219 279.699219 C 246.949219 285.414062 238.375 285.414062 238.375 279.699219 C 238.375 273.984375 246.949219 273.984375 246.949219 279.699219 "/>
<path style=" stroke:none;fill-rule:nonzero;fill:rgb(100%,84.3%,0%);fill-opacity:1;" d="M 71.957031 86.273438 C 71.957031 91.988281 63.386719 91.988281 63.386719 86.273438 C 63.386719 80.558594 71.957031 80.558594 71.957031 86.273438 "/>
<path style=" stroke:none;fill-rule:nonzero;fill:rgb(100%,84.3%,0%);fill-opacity:1;" d="M 118.292969 55.117188 C 118.292969 60.832031 109.71875 60.832031 109.71875 55.117188 C 109.71875 49.402344 118.292969 49.402344 118.292969 55.117188 "/>
<path style=" stroke:none;fill-rule:nonzero;fill:rgb(100%,84.3%,0%);fill-opacity:1;" d="M 163.929688 206.601562 C 163.929688 212.316406 155.359375 212.316406 155.359375 206.601562 C 155.359375 200.886719 163.929688 200.886719 163.929688 206.601562 "/>
<path style=" stroke:none;fill-rule:nonzero;fill:rgb(100%,84.3%,0%);fill-opacity:1;" d="M 81.242188 351.539062 C 81.242188 357.253906 72.671875 357.253906 72.671875 351.539062 C 72.671875 345.824219 81.242188 345.824219 81.242188 351.539062 "/>
<path style=" stroke:none;fill-rule:nonzero;fill:rgb(100%,84.3%,0%);fill-opacity:1;" d="M 97.378906 312.726562 C 97.378906 318.441406 88.804688 318.441406 88.804688 312.726562 C 88.804688 307.011719 97.378906 307.011719 97.378906 312.726562 "/>
<path style=" stroke:none;fill-rule:nonzero;fill:rgb(100%,84.3%,0%);fill-opacity:1;" d="M 255.441406 92.398438 C 255.441406 98.113281 246.871094 98.113281 246.871094 92.398438 C 246.871094 86.683594 255.441406 86.683594 255.441406 92.398438 "/>
<path style=" stroke:none;fill-rule:nonzero;fill:rgb(100%,84.3%,0%);fill-opacity:1;" d="M 92.578125 55.117188 C 92.578125 60.832031 84.003906 60.832031 84.003906 55.117188 C 84.003906 49.402344 92.578125 49.402344 92.578125 55.117188 "/>
<path style=" stroke:none;fill-rule:nonzero;fill:rgb(100%,84.3%,0%);fill-opacity:1;" d="M 255.441406 223.15625 C 255.441406 228.871094 246.871094 228.871094 246.871094 223.15625 C 246.871094 217.445312 255.441406 217.445312 255.441406 223.15625 "/>
<path style=" stroke:none;fill-rule:nonzero;fill:rgb(100%,84.3%,0%);fill-opacity:1;" d="M 155.507812 154.523438 C 155.507812 160.238281 146.9375 160.238281 146.9375 154.523438 C 146.9375 148.808594 155.507812 148.808594 155.507812 154.523438 "/>
<path style=" stroke:none;fill-rule:nonzero;fill:rgb(100%,84.3%,0%);fill-opacity:1;" d="M 167.34375 464.070312 C 167.34375 469.785156 158.769531 469.785156 158.769531 464.070312 C 158.769531 458.355469 167.34375 458.355469 167.34375 464.070312 "/>
<path style=" stroke:none;fill-rule:nonzero;fill:rgb(100%,84.3%,0%);fill-opacity:1;" d="M 152.578125 55.117188 C 152.578125 60.832031 144.007812 60.832031 144.007812 55.117188 C 144.007812 49.402344 152.578125 49.402344 152.578125 55.117188 "/>
</g>
</svg>
