<?xml version="1.0" encoding="UTF-8"?>
<svg xmlns="http://www.w3.org/2000/svg" xmlns:xlink="http://www.w3.org/1999/xlink" width="512pt" height="512pt" viewBox="0 0 512 512" version="1.1">
<g id="surface151">
<rect x="0" y="0" width="512" height="512" style="fill:rgb(26.7%,26.7%,26.7%);fill-opacity:1;stroke:none;"/>
<path style=" stroke:none;fill-rule:nonzero;fill:rgb(19.2%,38.8%,66.7%);fill-opacity:1;" d="M 0 159.5625 L 465.453125 159.5625 L 465.453125 512 L 0 512 Z M 0 159.5625 "/>
<path style=" stroke:none;fill-rule:nonzero;fill:rgb(100%,100%,100%);fill-opacity:1;" d="M 374 92.644531 C 374 97.601562 366.5625 97.601562 366.5625 92.644531 C 366.5625 87.6875 374 87.6875 374 92.644531 "/>
<path style=" stroke:none;fill-rule:nonzero;fill:rgb(100%,100%,100%);fill-opacity:1;" d="M 353.921875 47.289062 C 353.921875 52.246094 346.488281 52.246094 346.488281 47.289062 C 346.488281 42.332031 353.921875 42.332031 353.921875 47.289062 "/>
<path style=" stroke:none;fill-rule:nonzero;fill:rgb(100%,100%,100%);fill-opacity:1;" d="M 237.1875 50.261719 C 237.1875 55.21875 229.753906 55.21875 229.753906 50.261719 C 229.753906 45.304688 237.1875 45.304688 237.1875 50.261719 "/>
<path style=" stroke:none;fill-rule:nonzero;fill:rgb(100%,100%,100%);fill-opacity:1;" d="M 479.582031 309.757812 C 479.582031 314.714844 472.144531 314.714844 472.144531 309.757812 C 472.144531 304.800781 479.582031 304.800781 479.582031 309.757812 "/>
<path style=" stroke:none;fill-rule:nonzero;fill:rgb(100%,100%,100%);fill-opacity:1;" d="M 17.101562 88.925781 C 17.101562 93.882812 9.667969 93.882812 9.667969 88.925781 C 9.667969 83.96875 17.101562 83.96875 17.101562 88.925781 "/>
<path style=" stroke:none;fill-rule:nonzero;fill:rgb(100%,100%,100%);fill-opacity:1;" d="M 361.359375 120.898438 C 361.359375 125.855469 353.925781 125.855469 353.925781 120.898438 C 353.925781 115.941406 361.359375 115.941406 361.359375 120.898438 "/>
<path style=" stroke:none;fill-rule:nonzero;fill:rgb(100%,84.3%,0%);fill-opacity:1;" d="M 422.601562 167 C 422.601562 171.957031 415.164062 171.957031 415.164062 167 C 415.164062 162.042969 422.601562 162.042969 422.601562 167 "/>
<path style=" stroke:none;fill-rule:nonzero;fill:rgb(100%,84.3%,0%);fill-opacity:1;" d="M 461.738281 310.171875 C 461.738281 315.125 454.300781 315.125 454.300781 310.171875 C 454.300781 305.214844 461.738281 305.214844 461.738281 310.171875 "/>
<path style=" stroke:none;fill-rule:nonzero;fill:rgb(100%,84.3%,0%);fill-opacity:1;" d="M 461.738281 167 C 461.738281 171.957031 454.300781 171.957031 454.300781 167 C 454.300781 162.042969 461.738281 162.042969 461.738281 167 "/>
<path style=" stroke:none;fill-rule:nonzero;fill:rgb(100%,84.3%,0%);fill-opacity:1;" d="M 461.738281 240.6875 C 461.738281 245.644531 454.300781 245.644531 454.300781 240.6875 C 454.300781 235.730469 461.738281 235.730469 461.738281 240.6875 "/>
<path style=" stroke:none;fill-rule:nonzero;fill:rgb(100%,84.3%,0%);fill-opacity:1;" d="M 461.738281 301.972656 C 461.738281 306.929688 454.300781 306.929688 454.300781 301.972656 C 454.300781 297.015625 461.738281 297.015625 461.738281 301.972656 "/>
<path style=" stroke:none;fill-rule:nonzero;fill:rgb(100%,84.3%,0%);fill-opacity:1;" d="M 461.738281 317.976562 C 461.738281 322.933594 454.300781 322.933594 454.300781 317.976562 C 454.300781 313.019531 461.738281 313.019531 461.738281 317.976562 "/>
<path style=" stroke:none;fill-rule:nonzero;fill:rgb(100%,84.3%,0%);fill-opacity:1;" d="M 461.191406 325.390625 C 461.191406 330.347656 453.753906 330.347656 453.753906 325.390625 C 453.753906 320.433594 461.191406 320.433594 461.191406 325.390625 "/>
<path style=" stroke:none;fill-rule:nonzero;fill:rgb(100%,84.3%,0%);fill-opacity:1;" d="M 363.8125 167 C 363.8125 171.957031 356.375 171.957031 356.375 167 C 356.375 162.042969 363.8125 162.042969 363.8125 167 "/>
<path style=" stroke:none;fill-rule:nonzero;fill:rgb(100%,84.3%,0%);fill-opacity:1;" d="M 353.9375 167 C 353.9375 171.957031 346.5 171.957031 346.5 167 C 346.5 162.042969 353.9375 162.042969 353.9375 167 "/>
<path style=" stroke:none;fill-rule:nonzero;fill:rgb(100%,84.3%,0%);fill-opacity:1;" d="M 373.6875 167 C 373.6875 171.957031 366.25 171.957031 366.25 167 C 366.25 162.042969 373.6875 162.042969 373.6875 167 "/>
<path style=" stroke:none;fill-rule:nonzero;fill:rgb(100%,84.3%,0%);fill-opacity:1;" d="M 302.988281 167 C 302.988281 171.957031 295.554688 171.957031 295.554688 167 C 295.554688 162.042969 302.988281 162.042969 302.988281 167 "/>
<path style=" stroke:none;fill-rule:nonzero;fill:rgb(100%,84.3%,0%);fill-opacity:1;" d="M 345.09375 167 C 345.09375 171.957031 337.660156 171.957031 337.660156 167 C 337.660156 162.042969 345.09375 162.042969 345.09375 167 "/>
<path style=" stroke:none;fill-rule:nonzero;fill:rgb(100%,84.3%,0%);fill-opacity:1;" d="M 383.015625 167 C 383.015625 171.957031 375.578125 171.957031 375.578125 167 C 375.578125 162.042969 383.015625 162.042969 383.015625 167 "/>
<path style=" stroke:none;fill-rule:nonzero;fill:rgb(100%,84.3%,0%);fill-opacity:1;" d="M 393.75 167 C 393.75 171.957031 386.316406 171.957031 386.316406 167 C 386.316406 162.042969 393.75 162.042969 393.75 167 "/>
<path style=" stroke:none;fill-rule:nonzero;fill:rgb(100%,84.3%,0%);fill-opacity:1;" d="M 406.105469 167 C 406.105469 171.957031 398.667969 171.957031 398.667969 167 C 398.667969 162.042969 406.105469 162.042969 406.105469 167 "/>
<path style=" stroke:none;fill-rule:nonzero;fill:rgb(100%,84.3%,0%);fill-opacity:1;" d="M 461.738281 275.453125 C 461.738281 280.410156 454.300781 280.410156 454.300781 275.453125 C 454.300781 270.5 461.738281 270.5 461.738281 275.453125 "/>
<path style=" stroke:none;fill-rule:nonzero;fill:rgb(100%,84.3%,0%);fill-opacity:1;" d="M 336.507812 167 C 336.507812 171.957031 329.074219 171.957031 329.074219 167 C 329.074219 162.042969 336.507812 162.042969 336.507812 167 "/>
<path style=" stroke:none;fill-rule:nonzero;fill:rgb(100%,84.3%,0%);fill-opacity:1;" d="M 368.664062 172.632812 C 368.664062 177.589844 361.226562 177.589844 361.226562 172.632812 C 361.226562 167.675781 368.664062 167.675781 368.664062 172.632812 "/>
<path style=" stroke:none;fill-rule:nonzero;fill:rgb(100%,84.3%,0%);fill-opacity:1;" d="M 461.738281 293.488281 C 461.738281 298.445312 454.300781 298.445312 454.300781 293.488281 C 454.300781 288.53125 461.738281 288.53125 461.738281 293.488281 "/>
<path style=" stroke:none;fill-rule:nonzero;fill:rgb(100%,84.3%,0%);fill-opacity:1;" d="M 444.824219 167 C 444.824219 171.957031 437.390625 171.957031 437.390625 167 C 437.390625 162.042969 444.824219 162.042969 444.824219 167 "/>
<path style=" stroke:none;fill-rule:nonzero;fill:rgb(100%,84.3%,0%);fill-opacity:1;" d="M 432.582031 167 C 432.582031 171.957031 425.148438 171.957031 425.148438 167 C 425.148438 162.042969 432.582031 162.042969 432.582031 167 "/>
<path style=" stroke:none;fill-rule:nonzero;fill:rgb(100%,84.3%,0%);fill-opacity:1;" d="M 324.871094 167 C 324.871094 171.957031 317.433594 171.957031 317.433594 167 C 317.433594 162.042969 324.871094 162.042969 324.871094 167 "/>
<path style=" stroke:none;fill-rule:nonzero;fill:rgb(100%,84.3%,0%);fill-opacity:1;" d="M 461.738281 261.132812 C 461.738281 266.089844 454.300781 266.089844 454.300781 261.132812 C 454.300781 256.175781 461.738281 256.175781 461.738281 261.132812 "/>
<path style=" stroke:none;fill-rule:nonzero;fill:rgb(100%,84.3%,0%);fill-opacity:1;" d="M 358.835938 172.589844 C 358.835938 177.546875 351.398438 177.546875 351.398438 172.589844 C 351.398438 167.632812 358.835938 167.632812 358.835938 172.589844 "/>
<path style=" stroke:none;fill-rule:nonzero;fill:rgb(100%,84.3%,0%);fill-opacity:1;" d="M 461.738281 197.777344 C 461.738281 202.734375 454.300781 202.734375 454.300781 197.777344 C 454.300781 192.820312 461.738281 192.820312 461.738281 197.777344 "/>
<path style=" stroke:none;fill-rule:nonzero;fill:rgb(100%,84.3%,0%);fill-opacity:1;" d="M 454.605469 315.871094 C 454.605469 320.828125 447.171875 320.828125 447.171875 315.871094 C 447.171875 310.914062 454.605469 310.914062 454.605469 315.871094 "/>
<path style=" stroke:none;fill-rule:nonzero;fill:rgb(100%,84.3%,0%);fill-opacity:1;" d="M 454.683594 304.320312 C 454.683594 309.277344 447.246094 309.277344 447.246094 304.320312 C 447.246094 299.363281 454.683594 299.363281 454.683594 304.320312 "/>
<path style=" stroke:none;fill-rule:nonzero;fill:rgb(100%,84.3%,0%);fill-opacity:1;" d="M 461.738281 221.769531 C 461.738281 226.726562 454.300781 226.726562 454.300781 221.769531 C 454.300781 216.8125 461.738281 216.8125 461.738281 221.769531 "/>
<path style=" stroke:none;fill-rule:nonzero;fill:rgb(100%,84.3%,0%);fill-opacity:1;" d="M 461.605469 181.519531 C 461.605469 186.476562 454.171875 186.476562 454.171875 181.519531 C 454.171875 176.5625 461.605469 176.5625 461.605469 181.519531 "/>
<path style=" stroke:none;fill-rule:nonzero;fill:rgb(100%,84.3%,0%);fill-opacity:1;" d="M 459.421875 174.066406 C 459.421875 179.023438 451.988281 179.023438 451.988281 174.066406 C 451.988281 169.109375 459.421875 169.109375 459.421875 174.066406 "/>
<path style=" stroke:none;fill-rule:nonzero;fill:rgb(100%,84.3%,0%);fill-opacity:1;" d="M 461.417969 332.820312 C 461.417969 337.777344 453.984375 337.777344 453.984375 332.820312 C 453.984375 327.863281 461.417969 327.863281 461.417969 332.820312 "/>
<path style=" stroke:none;fill-rule:nonzero;fill:rgb(100%,84.3%,0%);fill-opacity:1;" d="M 461.738281 285.058594 C 461.738281 290.015625 454.300781 290.015625 454.300781 285.058594 C 454.300781 280.101562 461.738281 280.101562 461.738281 285.058594 "/>
<path style=" stroke:none;fill-rule:nonzero;fill:rgb(100%,84.3%,0%);fill-opacity:1;" d="M 461.738281 340.308594 C 461.738281 345.265625 454.300781 345.265625 454.300781 340.308594 C 454.300781 335.351562 461.738281 335.351562 461.738281 340.308594 "/>
<path style=" stroke:none;fill-rule:nonzero;fill:rgb(100%,84.3%,0%);fill-opacity:1;" d="M 461.738281 205.261719 C 461.738281 210.21875 454.300781 210.21875 454.300781 205.261719 C 454.300781 200.304688 461.738281 200.304688 461.738281 205.261719 "/>
</g>
</svg>
