<?xml version="1.0" encoding="UTF-8"?>
<svg xmlns="http://www.w3.org/2000/svg" xmlns:xlink="http://www.w3.org/1999/xlink" width="512pt" height="512pt" viewBox="0 0 512 512" version="1.1">
<g id="surface166">
<path style=" stroke:none;fill-rule:nonzero;fill:rgb(26.7%,26.7%,26.7%);fill-opacity:1;" d="M 0 259.269531 L 702.605469 259.269531 L 702.605469 512 L 0 512 Z M 0 259.269531 "/>
<path style=" stroke:none;fill-rule:nonzero;fill:rgb(19.2%,38.8%,66.7%);fill-opacity:1;" d="M 42.667969 383.699219 L 469.332031 383.699219 L 469.332031 500.335938 L 42.667969 500.335938 Z M 42.667969 383.699219 "/>
<path style=" stroke:none;fill-rule:nonzero;fill:rgb(100%,100%,100%);fill-opacity:1;" d="M 406.96875 506.933594 C 406.96875 508.933594 403.96875 508.933594 403.96875 506.933594 C 403.96875 504.933594 406.96875 504.933594 406.96875 506.933594 "/>
<path style=" stroke:none;fill-rule:nonzero;fill:rgb(100%,100%,100%);fill-opacity:1;" d="M 433.351562 359.113281 C 433.351562 361.113281 430.355469 361.113281 430.355469 359.113281 C 430.355469 357.113281 433.351562 357.113281 433.351562 359.113281 "/>
<path style=" stroke:none;fill-rule:nonzero;fill:rgb(100%,100%,100%);fill-opacity:1;" d="M 226.167969 271.261719 C 226.167969 273.261719 223.167969 273.261719 223.167969 271.261719 C 223.167969 269.261719 226.167969 269.261719 226.167969 271.261719 "/>
<path style=" stroke:none;fill-rule:nonzero;fill:rgb(100%,100%,100%);fill-opacity:1;" d="M 356.59375 330.328125 C 356.59375 332.328125 353.597656 332.328125 353.597656 330.328125 C 353.597656 328.332031 356.59375 328.332031 356.59375 330.328125 "/>
<path style=" stroke:none;fill-rule:nonzero;fill:rgb(100%,100%,100%);fill-opacity:1;" d="M 170.097656 350.117188 C 170.097656 352.117188 167.097656 352.117188 167.097656 350.117188 C 167.097656 348.121094 170.097656 348.121094 170.097656 350.117188 "/>
<path style=" stroke:none;fill-rule:nonzero;fill:rgb(100%,100%,100%);fill-opacity:1;" d="M 71.453125 272.460938 C 71.453125 274.460938 68.453125 274.460938 68.453125 272.460938 C 68.453125 270.460938 71.453125 270.460938 71.453125 272.460938 "/>
<path style=" stroke:none;fill-rule:nonzero;fill:rgb(100%,100%,100%);fill-opacity:1;" d="M 97.238281 352.515625 C 97.238281 354.515625 94.238281 354.515625 94.238281 352.515625 C 94.238281 350.519531 97.238281 350.519531 97.238281 352.515625 "/>
<path style=" stroke:none;fill-rule:nonzero;fill:rgb(100%,100%,100%);fill-opacity:1;" d="M 166.800781 373.507812 C 166.800781 375.503906 163.800781 375.503906 163.800781 373.507812 C 163.800781 371.507812 166.800781 371.507812 166.800781 373.507812 "/>
<path style=" stroke:none;fill-rule:nonzero;fill:rgb(100%,100%,100%);fill-opacity:1;" d="M 335.304688 506.933594 C 335.304688 508.933594 332.308594 508.933594 332.308594 506.933594 C 332.308594 504.933594 335.304688 504.933594 335.304688 506.933594 "/>
<path style=" stroke:none;fill-rule:nonzero;fill:rgb(100%,100%,100%);fill-opacity:1;" d="M 433.351562 267.664062 C 433.351562 269.664062 430.355469 269.664062 430.355469 267.664062 C 430.355469 265.664062 433.351562 265.664062 433.351562 267.664062 "/>
<path style=" stroke:none;fill-rule:nonzero;fill:rgb(100%,100%,100%);fill-opacity:1;" d="M 22.277344 388.199219 C 22.277344 390.195312 19.28125 390.195312 19.28125 388.199219 C 19.28125 386.199219 22.277344 386.199219 22.277344 388.199219 "/>
<path style=" stroke:none;fill-rule:nonzero;fill:rgb(100%,100%,100%);fill-opacity:1;" d="M 420.460938 341.421875 C 420.460938 343.421875 417.460938 343.421875 417.460938 341.421875 C 417.460938 339.425781 420.460938 339.425781 420.460938 341.421875 "/>
<path style=" stroke:none;fill-rule:nonzero;fill:rgb(100%,100%,100%);fill-opacity:1;" d="M 496.316406 266.464844 C 496.316406 268.464844 493.320312 268.464844 493.320312 266.464844 C 493.320312 264.464844 496.316406 264.464844 496.316406 266.464844 "/>
<path style=" stroke:none;fill-rule:nonzero;fill:rgb(100%,100%,100%);fill-opacity:1;" d="M 425.257812 340.824219 C 425.257812 342.824219 422.257812 342.824219 422.257812 340.824219 C 422.257812 338.824219 425.257812 338.824219 425.257812 340.824219 "/>
<path style=" stroke:none;fill-rule:nonzero;fill:rgb(100%,100%,100%);fill-opacity:1;" d="M 79.847656 299.746094 C 79.847656 301.746094 76.847656 301.746094 76.847656 299.746094 C 76.847656 297.746094 79.847656 297.746094 79.847656 299.746094 "/>
<path style=" stroke:none;fill-rule:nonzero;fill:rgb(100%,100%,100%);fill-opacity:1;" d="M 191.984375 377.703125 C 191.984375 379.703125 188.988281 379.703125 188.988281 377.703125 C 188.988281 375.703125 191.984375 375.703125 191.984375 377.703125 "/>
<path style=" stroke:none;fill-rule:nonzero;fill:rgb(100%,100%,100%);fill-opacity:1;" d="M 25.277344 262.867188 C 25.277344 264.863281 22.277344 264.863281 22.277344 262.867188 C 22.277344 260.867188 25.277344 260.867188 25.277344 262.867188 "/>
<path style=" stroke:none;fill-rule:nonzero;fill:rgb(100%,84.3%,0%);fill-opacity:1;" d="M 191.847656 386.699219 C 191.847656 388.699219 188.847656 388.699219 188.847656 386.699219 C 188.847656 384.699219 191.847656 384.699219 191.847656 386.699219 "/>
<path style=" stroke:none;fill-rule:nonzero;fill:rgb(100%,84.3%,0%);fill-opacity:1;" d="M 406.710938 497.339844 C 406.710938 499.335938 403.714844 499.335938 403.714844 497.339844 C 403.714844 495.339844 406.710938 495.339844 406.710938 497.339844 "/>
<path style=" stroke:none;fill-rule:nonzero;fill:rgb(100%,84.3%,0%);fill-opacity:1;" d="M 203.832031 386.921875 C 203.832031 388.921875 200.832031 388.921875 200.832031 386.921875 C 200.832031 384.921875 203.832031 384.921875 203.832031 386.921875 "/>
<path style=" stroke:none;fill-rule:nonzero;fill:rgb(100%,84.3%,0%);fill-opacity:1;" d="M 423.164062 497.339844 C 423.164062 499.335938 420.164062 499.335938 420.164062 497.339844 C 420.164062 495.339844 423.164062 495.339844 423.164062 497.339844 "/>
<path style=" stroke:none;fill-rule:nonzero;fill:rgb(100%,84.3%,0%);fill-opacity:1;" d="M 335.402344 497.339844 C 335.402344 499.335938 332.40625 499.335938 332.40625 497.339844 C 332.40625 495.339844 335.402344 495.339844 335.402344 497.339844 "/>
<path style=" stroke:none;fill-rule:nonzero;fill:rgb(100%,84.3%,0%);fill-opacity:1;" d="M 332.339844 497.339844 C 332.339844 499.335938 329.34375 499.335938 329.34375 497.339844 C 329.34375 495.339844 332.339844 495.339844 332.339844 497.339844 "/>
<path style=" stroke:none;fill-rule:nonzero;fill:rgb(100%,84.3%,0%);fill-opacity:1;" d="M 338.933594 497.339844 C 338.933594 499.335938 335.933594 499.335938 335.933594 497.339844 C 335.933594 495.339844 338.933594 495.339844 338.933594 497.339844 "/>
<path style=" stroke:none;fill-rule:nonzero;fill:rgb(100%,84.3%,0%);fill-opacity:1;" d="M 413.238281 497.339844 C 413.238281 499.335938 410.242188 499.335938 410.242188 497.339844 C 410.242188 495.339844 413.238281 495.339844 413.238281 497.339844 "/>
<path style=" stroke:none;fill-rule:nonzero;fill:rgb(100%,84.3%,0%);fill-opacity:1;" d="M 341.929688 497.328125 C 341.929688 499.328125 338.933594 499.328125 338.933594 497.328125 C 338.933594 495.332031 341.929688 495.332031 341.929688 497.328125 "/>
<path style=" stroke:none;fill-rule:nonzero;fill:rgb(100%,84.3%,0%);fill-opacity:1;" d="M 400.554688 497.339844 C 400.554688 499.335938 397.558594 499.335938 397.558594 497.339844 C 397.558594 495.339844 400.554688 495.339844 400.554688 497.339844 "/>
<path style=" stroke:none;fill-rule:nonzero;fill:rgb(100%,84.3%,0%);fill-opacity:1;" d="M 329.277344 497.339844 C 329.277344 499.335938 326.277344 499.335938 326.277344 497.339844 C 326.277344 495.339844 329.277344 495.339844 329.277344 497.339844 "/>
<path style=" stroke:none;fill-rule:nonzero;fill:rgb(100%,84.3%,0%);fill-opacity:1;" d="M 322.421875 497.339844 C 322.421875 499.335938 319.421875 499.335938 319.421875 497.339844 C 319.421875 495.339844 322.421875 495.339844 322.421875 497.339844 "/>
<path style=" stroke:none;fill-rule:nonzero;fill:rgb(100%,84.3%,0%);fill-opacity:1;" d="M 404.625 494.527344 C 404.625 496.523438 401.625 496.523438 401.625 494.527344 C 401.625 492.527344 404.625 492.527344 404.625 494.527344 "/>
<path style=" stroke:none;fill-rule:nonzero;fill:rgb(100%,84.3%,0%);fill-opacity:1;" d="M 325.902344 497.339844 C 325.902344 499.335938 322.90625 499.335938 322.90625 497.339844 C 322.90625 495.339844 325.902344 495.339844 325.902344 497.339844 "/>
<path style=" stroke:none;fill-rule:nonzero;fill:rgb(100%,84.3%,0%);fill-opacity:1;" d="M 397.523438 497.339844 C 397.523438 499.335938 394.527344 499.335938 394.527344 497.339844 C 394.527344 495.339844 397.523438 495.339844 397.523438 497.339844 "/>
<path style=" stroke:none;fill-rule:nonzero;fill:rgb(100%,84.3%,0%);fill-opacity:1;" d="M 467.835938 497.339844 C 467.835938 499.335938 464.835938 499.335938 464.835938 497.339844 C 464.835938 495.339844 467.835938 495.339844 467.835938 497.339844 "/>
<path style=" stroke:none;fill-rule:nonzero;fill:rgb(100%,84.3%,0%);fill-opacity:1;" d="M 416.464844 497.339844 C 416.464844 499.335938 413.46875 499.335938 413.46875 497.339844 C 413.46875 495.339844 416.464844 495.339844 416.464844 497.339844 "/>
<path style=" stroke:none;fill-rule:nonzero;fill:rgb(100%,84.3%,0%);fill-opacity:1;" d="M 337.503906 494.699219 C 337.503906 496.699219 334.507812 496.699219 334.507812 494.699219 C 334.507812 492.703125 337.503906 492.703125 337.503906 494.699219 "/>
<path style=" stroke:none;fill-rule:nonzero;fill:rgb(100%,84.3%,0%);fill-opacity:1;" d="M 420.007812 497.339844 C 420.007812 499.335938 417.011719 499.335938 417.011719 497.339844 C 417.011719 495.339844 420.007812 495.339844 420.007812 497.339844 "/>
<path style=" stroke:none;fill-rule:nonzero;fill:rgb(100%,84.3%,0%);fill-opacity:1;" d="M 194.84375 386.707031 C 194.84375 388.703125 191.847656 388.703125 191.847656 386.707031 C 191.847656 384.707031 194.84375 384.707031 194.84375 386.707031 "/>
<path style=" stroke:none;fill-rule:nonzero;fill:rgb(100%,84.3%,0%);fill-opacity:1;" d="M 344.929688 497.332031 C 344.929688 499.328125 341.933594 499.328125 341.933594 497.332031 C 341.933594 495.332031 344.929688 495.332031 344.929688 497.332031 "/>
<path style=" stroke:none;fill-rule:nonzero;fill:rgb(100%,84.3%,0%);fill-opacity:1;" d="M 394.527344 497.320312 C 394.527344 499.316406 391.527344 499.316406 391.527344 497.320312 C 391.527344 495.320312 394.527344 495.320312 394.527344 497.320312 "/>
<path style=" stroke:none;fill-rule:nonzero;fill:rgb(100%,84.3%,0%);fill-opacity:1;" d="M 157.453125 386.699219 C 157.453125 388.699219 154.453125 388.699219 154.453125 386.699219 C 154.453125 384.699219 157.453125 384.699219 157.453125 386.699219 "/>
<path style=" stroke:none;fill-rule:nonzero;fill:rgb(100%,84.3%,0%);fill-opacity:1;" d="M 179.039062 386.699219 C 179.039062 388.699219 176.039062 388.699219 176.039062 386.699219 C 176.039062 384.699219 179.039062 384.699219 179.039062 386.699219 "/>
<path style=" stroke:none;fill-rule:nonzero;fill:rgb(100%,84.3%,0%);fill-opacity:1;" d="M 174.847656 386.699219 C 174.847656 388.699219 171.851562 388.699219 171.851562 386.699219 C 171.851562 384.699219 174.847656 384.699219 174.847656 386.699219 "/>
<path style=" stroke:none;fill-rule:nonzero;fill:rgb(100%,84.3%,0%);fill-opacity:1;" d="M 409.921875 497.339844 C 409.921875 499.335938 406.921875 499.335938 406.921875 497.339844 C 406.921875 495.339844 409.921875 495.339844 409.921875 497.339844 "/>
<path style=" stroke:none;fill-rule:nonzero;fill:rgb(100%,84.3%,0%);fill-opacity:1;" d="M 163.992188 386.699219 C 163.992188 388.699219 160.992188 388.699219 160.992188 386.699219 C 160.992188 384.699219 163.992188 384.699219 163.992188 386.699219 "/>
<path style=" stroke:none;fill-rule:nonzero;fill:rgb(100%,84.3%,0%);fill-opacity:1;" d="M 318.9375 497.339844 C 318.9375 499.335938 315.941406 499.335938 315.941406 497.339844 C 315.941406 495.339844 318.9375 495.339844 318.9375 497.339844 "/>
<path style=" stroke:none;fill-rule:nonzero;fill:rgb(100%,84.3%,0%);fill-opacity:1;" d="M 170.9375 386.699219 C 170.9375 388.699219 167.9375 388.699219 167.9375 386.699219 C 167.9375 384.699219 170.9375 384.699219 170.9375 386.699219 "/>
<path style=" stroke:none;fill-rule:nonzero;fill:rgb(100%,84.3%,0%);fill-opacity:1;" d="M 188.847656 386.796875 C 188.847656 388.796875 185.851562 388.796875 185.851562 386.796875 C 185.851562 384.796875 188.847656 384.796875 188.847656 386.796875 "/>
<path style=" stroke:none;fill-rule:nonzero;fill:rgb(100%,84.3%,0%);fill-opacity:1;" d="M 197.84375 386.753906 C 197.84375 388.753906 194.84375 388.753906 194.84375 386.753906 C 194.84375 384.757812 197.84375 384.757812 197.84375 386.753906 "/>
<path style=" stroke:none;fill-rule:nonzero;fill:rgb(100%,84.3%,0%);fill-opacity:1;" d="M 185.800781 386.699219 C 185.800781 388.699219 182.800781 388.699219 182.800781 386.699219 C 182.800781 384.699219 185.800781 384.699219 185.800781 386.699219 "/>
<path style=" stroke:none;fill-rule:nonzero;fill:rgb(100%,84.3%,0%);fill-opacity:1;" d="M 403.585938 497.339844 C 403.585938 499.335938 400.585938 499.335938 400.585938 497.339844 C 400.585938 495.339844 403.585938 495.339844 403.585938 497.339844 "/>
<path style=" stroke:none;fill-rule:nonzero;fill:rgb(100%,84.3%,0%);fill-opacity:1;" d="M 391.3125 497.339844 C 391.3125 499.335938 388.316406 499.335938 388.316406 497.339844 C 388.316406 495.339844 391.3125 495.339844 391.3125 497.339844 "/>
<path style=" stroke:none;fill-rule:nonzero;fill:rgb(100%,84.3%,0%);fill-opacity:1;" d="M 200.835938 386.945312 C 200.835938 388.945312 197.835938 388.945312 197.835938 386.945312 C 197.835938 384.949219 200.835938 384.949219 200.835938 386.945312 "/>
<path style=" stroke:none;fill-rule:nonzero;fill:rgb(100%,84.3%,0%);fill-opacity:1;" d="M 167.058594 386.699219 C 167.058594 388.699219 164.058594 388.699219 164.058594 386.699219 C 164.058594 384.699219 167.058594 384.699219 167.058594 386.699219 "/>
<path style=" stroke:none;fill-rule:nonzero;fill:rgb(100%,84.3%,0%);fill-opacity:1;" d="M 347.917969 497.085938 C 347.917969 499.085938 344.917969 499.085938 344.917969 497.085938 C 344.917969 495.085938 347.917969 495.085938 347.917969 497.085938 "/>
<path style=" stroke:none;fill-rule:nonzero;fill:rgb(100%,84.3%,0%);fill-opacity:1;" d="M 160.566406 386.699219 C 160.566406 388.699219 157.570312 388.699219 157.570312 386.699219 C 157.570312 384.699219 160.566406 384.699219 160.566406 386.699219 "/>
<path style=" stroke:none;fill-rule:nonzero;fill:rgb(100%,84.3%,0%);fill-opacity:1;" d="M 168.917969 389.050781 C 168.917969 391.050781 165.917969 391.050781 165.917969 389.050781 C 165.917969 387.054688 168.917969 387.054688 168.917969 389.050781 "/>
<path style=" stroke:none;fill-rule:nonzero;fill:rgb(100%,84.3%,0%);fill-opacity:1;" d="M 182.800781 386.699219 C 182.800781 388.699219 179.800781 388.699219 179.800781 386.699219 C 179.800781 384.699219 182.800781 384.699219 182.800781 386.699219 "/>
<path style=" stroke:none;fill-rule:nonzero;fill:rgb(100%,84.3%,0%);fill-opacity:1;" d="M 350.917969 497.15625 C 350.917969 499.15625 347.917969 499.15625 347.917969 497.15625 C 347.917969 495.160156 350.917969 495.160156 350.917969 497.15625 "/>
<path style=" stroke:none;fill-rule:nonzero;fill:rgb(100%,84.3%,0%);fill-opacity:1;" d="M 427.945312 497.339844 C 427.945312 499.335938 424.945312 499.335938 424.945312 497.339844 C 424.945312 495.339844 427.945312 495.339844 427.945312 497.339844 "/>
</g>
</svg>
