<?xml version="1.0" encoding="UTF-8"?>
<svg xmlns="http://www.w3.org/2000/svg" xmlns:xlink="http://www.w3.org/1999/xlink" width="512pt" height="512pt" viewBox="0 0 512 512" version="1.1">
<g id="surface181">
<path style=" stroke:none;fill-rule:nonzero;fill:rgb(26.7%,26.7%,26.7%);fill-opacity:1;" d="M 0 188.203125 L 512 188.203125 L 512 323.792969 L 0 323.792969 Z M 0 188.203125 "/>
<path style=" stroke:none;fill-rule:nonzero;fill:rgb(19.2%,38.8%,66.7%);fill-opacity:1;" d="M 42.667969 199.503906 L 469.332031 199.503906 L 469.332031 312.496094 L 42.667969 312.496094 Z M 42.667969 199.503906 "/>
<path style=" stroke:none;fill-rule:nonzero;fill:rgb(90.6%,14.9%,14.9%);fill-opacity:1;" d="M 490.824219 237.285156 C 490.824219 239.59375 487.355469 239.59375 487.355469 237.285156 C 487.355469 234.972656 490.824219 234.972656 490.824219 237.285156 "/>
<path style=" stroke:none;fill-rule:nonzero;fill:rgb(90.6%,14.9%,14.9%);fill-opacity:1;" d="M 502.605469 -23.359375 C 502.605469 -8.621094 490.660156 3.328125 475.917969 3.328125 C 461.179688 3.328125 449.230469 -8.621094 449.230469 -23.359375 C 449.230469 -38.101562 461.179688 -50.050781 475.917969 -50.050781 C 490.660156 -50.050781 502.605469 -38.101562 502.605469 -23.359375 "/>
<path style=" stroke:none;fill-rule:nonzero;fill:rgb(90.6%,14.9%,14.9%);fill-opacity:1;" d="M 398.972656 -5.339844 C 398.972656 -2.273438 396.492188 0.207031 393.429688 0.207031 C 390.367188 0.207031 387.882812 -2.273438 387.882812 -5.339844 C 387.882812 -8.402344 390.367188 -10.882812 393.429688 -10.882812 C 396.492188 -10.882812 398.972656 -8.402344 398.972656 -5.339844 "/>
<path style=" stroke:none;fill-rule:nonzero;fill:rgb(90.6%,14.9%,14.9%);fill-opacity:1;" d="M 558.757812 235.550781 C 558.757812 248.949219 547.894531 259.8125 534.492188 259.8125 C 521.09375 259.8125 510.230469 248.949219 510.230469 235.550781 C 510.230469 222.152344 521.09375 211.289062 534.492188 211.289062 C 547.894531 211.289062 558.757812 222.152344 558.757812 235.550781 "/>
<path style=" stroke:none;fill-rule:nonzero;fill:rgb(90.6%,14.9%,14.9%);fill-opacity:1;" d="M 21.175781 133.996094 C 21.175781 146.628906 10.9375 156.871094 -1.699219 156.871094 C -14.332031 156.871094 -24.574219 146.628906 -24.574219 133.996094 C -24.574219 121.363281 -14.332031 111.121094 -1.699219 111.121094 C 10.9375 111.121094 21.175781 121.363281 21.175781 133.996094 "/>
<path style=" stroke:none;fill-rule:nonzero;fill:rgb(90.6%,14.9%,14.9%);fill-opacity:1;" d="M 357.726562 47.691406 C 357.726562 62.238281 345.933594 74.035156 331.386719 74.035156 C 316.835938 74.035156 305.042969 62.238281 305.042969 47.691406 C 305.042969 33.144531 316.835938 21.351562 331.386719 21.351562 C 345.933594 21.351562 357.726562 33.144531 357.726562 47.691406 "/>
<path style=" stroke:none;fill-rule:nonzero;fill:rgb(90.6%,14.9%,14.9%);fill-opacity:1;" d="M 335.890625 73.339844 C 335.890625 84.0625 327.203125 92.75 316.480469 92.75 C 305.761719 92.75 297.074219 84.0625 297.074219 73.339844 C 297.074219 62.621094 305.761719 53.929688 316.480469 53.929688 C 327.203125 53.929688 335.890625 62.621094 335.890625 73.339844 "/>
<path style=" stroke:none;fill-rule:nonzero;fill:rgb(90.6%,14.9%,14.9%);fill-opacity:1;" d="M 424.277344 89.632812 C 424.277344 94.226562 420.550781 97.949219 415.957031 97.949219 C 411.363281 97.949219 407.636719 94.226562 407.636719 89.632812 C 407.636719 85.035156 411.363281 81.3125 415.957031 81.3125 C 420.550781 81.3125 424.277344 85.035156 424.277344 89.632812 "/>
<path style=" stroke:none;fill-rule:nonzero;fill:rgb(90.6%,14.9%,14.9%);fill-opacity:1;" d="M 502.953125 -2.21875 C 502.953125 6.011719 496.28125 12.6875 488.050781 12.6875 C 479.820312 12.6875 473.144531 6.011719 473.144531 -2.21875 C 473.144531 -10.449219 479.820312 -17.121094 488.050781 -17.121094 C 496.28125 -17.121094 502.953125 -10.449219 502.953125 -2.21875 "/>
<path style=" stroke:none;fill-rule:nonzero;fill:rgb(90.6%,14.9%,14.9%);fill-opacity:1;" d="M 167.097656 159.296875 C 167.097656 164.65625 162.75 169.003906 157.390625 169.003906 C 152.03125 169.003906 147.6875 164.65625 147.6875 159.296875 C 147.6875 153.9375 152.03125 149.59375 157.390625 149.59375 C 162.75 149.59375 167.097656 153.9375 167.097656 159.296875 "/>
<path style=" stroke:none;fill-rule:nonzero;fill:rgb(90.6%,14.9%,14.9%);fill-opacity:1;" d="M 134.167969 48.039062 C 134.167969 51.273438 129.316406 51.273438 129.316406 48.039062 C 129.316406 44.804688 134.167969 44.804688 134.167969 48.039062 "/>
<path style=" stroke:none;fill-rule:nonzero;fill:rgb(90.6%,14.9%,14.9%);fill-opacity:1;" d="M 514.390625 200.195312 C 514.390625 205.558594 510.046875 209.902344 504.6875 209.902344 C 499.328125 209.902344 494.980469 205.558594 494.980469 200.195312 C 494.980469 194.835938 499.328125 190.492188 504.6875 190.492188 C 510.046875 190.492188 514.390625 194.835938 514.390625 200.195312 "/>
<path style=" stroke:none;fill-rule:nonzero;fill:rgb(90.6%,14.9%,14.9%);fill-opacity:1;" d="M 30.535156 258.773438 C 30.535156 267.195312 23.707031 274.023438 15.285156 274.023438 C 6.863281 274.023438 0.0351562 267.195312 0.0351562 258.773438 C 0.0351562 250.351562 6.863281 243.523438 15.285156 243.523438 C 23.707031 243.523438 30.535156 250.351562 30.535156 258.773438 "/>
<path style=" stroke:none;fill-rule:nonzero;fill:rgb(90.6%,14.9%,14.9%);fill-opacity:1;" d="M 140.0625 59.824219 C 140.0625 64.992188 135.871094 69.179688 130.703125 69.179688 C 125.535156 69.179688 121.34375 64.992188 121.34375 59.824219 C 121.34375 54.65625 125.535156 50.464844 130.703125 50.464844 C 135.871094 50.464844 140.0625 54.65625 140.0625 59.824219 "/>
<path style=" stroke:none;fill-rule:nonzero;fill:rgb(90.6%,14.9%,14.9%);fill-opacity:1;" d="M 491.167969 98.296875 C 491.167969 108.25 483.101562 116.320312 473.144531 116.320312 C 463.191406 116.320312 455.121094 108.25 455.121094 98.296875 C 455.121094 88.34375 463.191406 80.273438 473.144531 80.273438 C 483.101562 80.273438 491.167969 88.34375 491.167969 98.296875 "/>
<path style=" stroke:none;fill-rule:nonzero;fill:rgb(90.6%,14.9%,14.9%);fill-opacity:1;" d="M 29.496094 4.367188 C 29.496094 19.488281 17.238281 31.75 2.113281 31.75 C -13.007812 31.75 -25.265625 19.488281 -25.265625 4.367188 C -25.265625 -10.753906 -13.007812 -23.015625 2.113281 -23.015625 C 17.238281 -23.015625 29.496094 -10.753906 29.496094 4.367188 "/>
<path style=" stroke:none;fill-rule:nonzero;fill:rgb(100%,100%,100%);fill-opacity:1;" d="M 305.390625 189.105469 C 305.390625 191.417969 301.925781 191.417969 301.925781 189.105469 C 301.925781 186.796875 305.390625 186.796875 305.390625 189.105469 "/>
<path style=" stroke:none;fill-rule:nonzero;fill:rgb(100%,100%,100%);fill-opacity:1;" d="M 36.082031 32.441406 C 36.082031 34.753906 32.613281 34.753906 32.613281 32.441406 C 32.613281 30.132812 36.082031 30.132812 36.082031 32.441406 "/>
<path style=" stroke:none;fill-rule:nonzero;fill:rgb(100%,100%,100%);fill-opacity:1;" d="M 484.585938 274.714844 C 484.585938 277.027344 481.117188 277.027344 481.117188 274.714844 C 481.117188 272.40625 484.585938 272.40625 484.585938 274.714844 "/>
<path style=" stroke:none;fill-rule:nonzero;fill:rgb(100%,100%,100%);fill-opacity:1;" d="M 497.40625 70.914062 C 497.40625 73.226562 493.941406 73.226562 493.941406 70.914062 C 493.941406 68.605469 497.40625 68.605469 497.40625 70.914062 "/>
<path style=" stroke:none;fill-rule:nonzero;fill:rgb(100%,100%,100%);fill-opacity:1;" d="M 308.855469 138.847656 C 308.855469 141.160156 305.390625 141.160156 305.390625 138.847656 C 305.390625 136.539062 308.855469 136.539062 308.855469 138.847656 "/>
<path style=" stroke:none;fill-rule:nonzero;fill:rgb(100%,100%,100%);fill-opacity:1;" d="M 408.332031 122.210938 C 408.332031 124.523438 404.863281 124.523438 404.863281 122.210938 C 404.863281 119.902344 408.332031 119.902344 408.332031 122.210938 "/>
<path style=" stroke:none;fill-rule:nonzero;fill:rgb(100%,100%,100%);fill-opacity:1;" d="M 290.140625 141.273438 C 290.140625 143.585938 286.675781 143.585938 286.675781 141.273438 C 286.675781 138.964844 290.140625 138.964844 290.140625 141.273438 "/>
<path style=" stroke:none;fill-rule:nonzero;fill:rgb(100%,100%,100%);fill-opacity:1;" d="M 450.617188 121.171875 C 450.617188 123.484375 447.152344 123.484375 447.152344 121.171875 C 447.152344 118.859375 450.617188 118.859375 450.617188 121.171875 "/>
<path style=" stroke:none;fill-rule:nonzero;fill:rgb(100%,100%,100%);fill-opacity:1;" d="M 339.359375 193.957031 C 339.359375 196.269531 335.890625 196.269531 335.890625 193.957031 C 335.890625 191.648438 339.359375 191.648438 339.359375 193.957031 "/>
<path style=" stroke:none;fill-rule:nonzero;fill:rgb(100%,100%,100%);fill-opacity:1;" d="M 224.285156 83.046875 C 224.285156 85.355469 220.820312 85.355469 220.820312 83.046875 C 220.820312 80.734375 224.285156 80.734375 224.285156 83.046875 "/>
<path style=" stroke:none;fill-rule:nonzero;fill:rgb(100%,100%,100%);fill-opacity:1;" d="M 128.96875 83.738281 C 128.96875 86.050781 125.503906 86.050781 125.503906 83.738281 C 125.503906 81.429688 128.96875 81.429688 128.96875 83.738281 "/>
<path style=" stroke:none;fill-rule:nonzero;fill:rgb(100%,100%,100%);fill-opacity:1;" d="M 254.09375 187.71875 C 254.09375 190.03125 250.628906 190.03125 250.628906 187.71875 C 250.628906 185.410156 254.09375 185.410156 254.09375 187.71875 "/>
<path style=" stroke:none;fill-rule:nonzero;fill:rgb(100%,100%,100%);fill-opacity:1;" d="M 40.238281 272.984375 C 40.238281 275.292969 36.773438 275.292969 36.773438 272.984375 C 36.773438 270.671875 40.238281 270.671875 40.238281 272.984375 "/>
<path style=" stroke:none;fill-rule:nonzero;fill:rgb(100%,100%,100%);fill-opacity:1;" d="M 143.179688 79.234375 C 143.179688 81.542969 139.714844 81.542969 139.714844 79.234375 C 139.714844 76.921875 143.179688 76.921875 143.179688 79.234375 "/>
<path style=" stroke:none;fill-rule:nonzero;fill:rgb(100%,100%,100%);fill-opacity:1;" d="M 236.765625 149.941406 C 236.765625 152.25 233.296875 152.25 233.296875 149.941406 C 233.296875 147.628906 236.765625 147.628906 236.765625 149.941406 "/>
<path style=" stroke:none;fill-rule:nonzero;fill:rgb(100%,100%,100%);fill-opacity:1;" d="M 36.429688 213.367188 C 36.429688 215.679688 32.960938 215.679688 32.960938 213.367188 C 32.960938 211.058594 36.429688 211.058594 36.429688 213.367188 "/>
<path style=" stroke:none;fill-rule:nonzero;fill:rgb(100%,100%,100%);fill-opacity:1;" d="M 466.90625 18.230469 C 466.90625 20.542969 463.441406 20.542969 463.441406 18.230469 C 463.441406 15.921875 466.90625 15.921875 466.90625 18.230469 "/>
<path style=" stroke:none;fill-rule:nonzero;fill:rgb(100%,100%,100%);fill-opacity:1;" d="M 111.292969 157.21875 C 111.292969 159.53125 107.828125 159.53125 107.828125 157.21875 C 107.828125 154.910156 111.292969 154.910156 111.292969 157.21875 "/>
<path style=" stroke:none;fill-rule:nonzero;fill:rgb(100%,100%,100%);fill-opacity:1;" d="M 455.816406 93.445312 C 455.816406 95.753906 452.351562 95.753906 452.351562 93.445312 C 452.351562 91.132812 455.816406 91.132812 455.816406 93.445312 "/>
<path style=" stroke:none;fill-rule:nonzero;fill:rgb(100%,100%,100%);fill-opacity:1;" d="M 26.722656 213.367188 C 26.722656 215.679688 23.257812 215.679688 23.257812 213.367188 C 23.257812 211.058594 26.722656 211.058594 26.722656 213.367188 "/>
<path style=" stroke:none;fill-rule:nonzero;fill:rgb(100%,100%,100%);fill-opacity:1;" d="M 506.074219 -0.140625 C 506.074219 2.171875 502.605469 2.171875 502.605469 -0.140625 C 502.605469 -2.449219 506.074219 -2.449219 506.074219 -0.140625 "/>
<path style=" stroke:none;fill-rule:nonzero;fill:rgb(100%,100%,100%);fill-opacity:1;" d="M 60.691406 315.613281 C 60.691406 317.925781 57.222656 317.925781 57.222656 315.613281 C 57.222656 313.304688 60.691406 313.304688 60.691406 315.613281 "/>
<path style=" stroke:none;fill-rule:nonzero;fill:rgb(100%,100%,100%);fill-opacity:1;" d="M 132.78125 183.214844 C 132.78125 185.523438 129.316406 185.523438 129.316406 183.214844 C 129.316406 180.902344 132.78125 180.902344 132.78125 183.214844 "/>
<path style=" stroke:none;fill-rule:nonzero;fill:rgb(100%,100%,100%);fill-opacity:1;" d="M 491.515625 198.464844 C 491.515625 200.773438 488.050781 200.773438 488.050781 198.464844 C 488.050781 196.152344 491.515625 196.152344 491.515625 198.464844 "/>
<path style=" stroke:none;fill-rule:nonzero;fill:rgb(100%,100%,100%);fill-opacity:1;" d="M 182 150.980469 C 182 153.289062 178.535156 153.289062 178.535156 150.980469 C 178.535156 148.667969 182 148.667969 182 150.980469 "/>
<path style=" stroke:none;fill-rule:nonzero;fill:rgb(100%,100%,100%);fill-opacity:1;" d="M 463.789062 34.175781 C 463.789062 36.484375 460.320312 36.484375 460.320312 34.175781 C 460.320312 31.863281 463.789062 31.863281 463.789062 34.175781 "/>
<path style=" stroke:none;fill-rule:nonzero;fill:rgb(100%,100%,100%);fill-opacity:1;" d="M 363.964844 138.847656 C 363.964844 141.160156 360.5 141.160156 360.5 138.847656 C 360.5 136.539062 363.964844 136.539062 363.964844 138.847656 "/>
<path style=" stroke:none;fill-rule:nonzero;fill:rgb(100%,100%,100%);fill-opacity:1;" d="M 229.136719 331.558594 C 229.136719 333.871094 225.671875 333.871094 225.671875 331.558594 C 225.671875 329.25 229.136719 329.25 229.136719 331.558594 "/>
<path style=" stroke:none;fill-rule:nonzero;fill:rgb(100%,100%,100%);fill-opacity:1;" d="M 230.871094 188.414062 C 230.871094 190.722656 227.40625 190.722656 227.40625 188.414062 C 227.40625 186.101562 230.871094 186.101562 230.871094 188.414062 "/>
<path style=" stroke:none;fill-rule:nonzero;fill:rgb(100%,100%,100%);fill-opacity:1;" d="M 90.84375 173.855469 C 90.84375 176.164062 87.378906 176.164062 87.378906 173.855469 C 87.378906 171.542969 90.84375 171.542969 90.84375 173.855469 "/>
<path style=" stroke:none;fill-rule:nonzero;fill:rgb(100%,100%,100%);fill-opacity:1;" d="M 421.503906 27.9375 C 421.503906 30.246094 418.035156 30.246094 418.035156 27.9375 C 418.035156 25.625 421.503906 25.625 421.503906 27.9375 "/>
<path style=" stroke:none;fill-rule:nonzero;fill:rgb(100%,100%,100%);fill-opacity:1;" d="M 68.660156 116.320312 C 68.660156 118.628906 65.195312 118.628906 65.195312 116.320312 C 65.195312 114.007812 68.660156 114.007812 68.660156 116.320312 "/>
<path style=" stroke:none;fill-rule:nonzero;fill:rgb(100%,100%,100%);fill-opacity:1;" d="M 279.742188 66.0625 C 279.742188 68.371094 276.277344 68.371094 276.277344 66.0625 C 276.277344 63.75 279.742188 63.75 279.742188 66.0625 "/>
<path style=" stroke:none;fill-rule:nonzero;fill:rgb(100%,100%,100%);fill-opacity:1;" d="M 211.460938 193.613281 C 211.460938 195.921875 207.996094 195.921875 207.996094 193.613281 C 207.996094 191.300781 211.460938 191.300781 211.460938 193.613281 "/>
<path style=" stroke:none;fill-rule:nonzero;fill:rgb(100%,100%,100%);fill-opacity:1;" d="M 509.191406 293.085938 C 509.191406 295.398438 505.726562 295.398438 505.726562 293.085938 C 505.726562 290.773438 509.191406 290.773438 509.191406 293.085938 "/>
<path style=" stroke:none;fill-rule:nonzero;fill:rgb(100%,100%,100%);fill-opacity:1;" d="M 265.878906 179.746094 C 265.878906 182.058594 262.410156 182.058594 262.410156 179.746094 C 262.410156 177.4375 265.878906 177.4375 265.878906 179.746094 "/>
<path style=" stroke:none;fill-rule:nonzero;fill:rgb(100%,100%,100%);fill-opacity:1;" d="M 154.273438 317.347656 C 154.273438 319.660156 150.804688 319.660156 150.804688 317.347656 C 150.804688 315.039062 154.273438 315.039062 154.273438 317.347656 "/>
<path style=" stroke:none;fill-rule:nonzero;fill:rgb(100%,100%,100%);fill-opacity:1;" d="M 205.222656 45.613281 C 205.222656 47.921875 201.757812 47.921875 201.757812 45.613281 C 201.757812 43.300781 205.222656 43.300781 205.222656 45.613281 "/>
<path style=" stroke:none;fill-rule:nonzero;fill:rgb(100%,100%,100%);fill-opacity:1;" d="M 190.320312 93.097656 C 190.320312 95.40625 186.851562 95.40625 186.851562 93.097656 C 186.851562 90.785156 190.320312 90.785156 190.320312 93.097656 "/>
<path style=" stroke:none;fill-rule:nonzero;fill:rgb(100%,100%,100%);fill-opacity:1;" d="M 515.085938 325.667969 C 515.085938 327.976562 511.617188 327.976562 511.617188 325.667969 C 511.617188 323.355469 515.085938 323.355469 515.085938 325.667969 "/>
<path style=" stroke:none;fill-rule:nonzero;fill:rgb(100%,100%,100%);fill-opacity:1;" d="M 268.304688 177.667969 C 268.304688 179.980469 264.839844 179.980469 264.839844 177.667969 C 264.839844 175.355469 268.304688 175.355469 268.304688 177.667969 "/>
<path style=" stroke:none;fill-rule:nonzero;fill:rgb(100%,100%,100%);fill-opacity:1;" d="M 119.960938 137.808594 C 119.960938 140.121094 116.492188 140.121094 116.492188 137.808594 C 116.492188 135.5 119.960938 135.5 119.960938 137.808594 "/>
<path style=" stroke:none;fill-rule:nonzero;fill:rgb(100%,100%,100%);fill-opacity:1;" d="M 134.515625 152.367188 C 134.515625 154.675781 131.050781 154.675781 131.050781 152.367188 C 131.050781 150.054688 134.515625 150.054688 134.515625 152.367188 "/>
<path style=" stroke:none;fill-rule:nonzero;fill:rgb(100%,100%,100%);fill-opacity:1;" d="M 344.210938 9.566406 C 344.210938 11.875 340.742188 11.875 340.742188 9.566406 C 340.742188 7.253906 344.210938 7.253906 344.210938 9.566406 "/>
<path style=" stroke:none;fill-rule:nonzero;fill:rgb(100%,100%,100%);fill-opacity:1;" d="M 502.953125 241.441406 C 502.953125 243.753906 499.488281 243.753906 499.488281 241.441406 C 499.488281 239.132812 502.953125 239.132812 502.953125 241.441406 "/>
<path style=" stroke:none;fill-rule:nonzero;fill:rgb(100%,84.3%,0%);fill-opacity:1;" d="M 251.753906 209.160156 C 251.753906 211.472656 248.289062 211.472656 248.289062 209.160156 C 248.289062 206.851562 251.753906 206.851562 251.753906 209.160156 "/>
<path style=" stroke:none;fill-rule:nonzero;fill:rgb(100%,84.3%,0%);fill-opacity:1;" d="M 159.578125 207.621094 C 159.578125 209.929688 156.113281 209.929688 156.113281 207.621094 C 156.113281 205.308594 159.578125 205.308594 159.578125 207.621094 "/>
<path style=" stroke:none;fill-rule:nonzero;fill:rgb(100%,84.3%,0%);fill-opacity:1;" d="M 467.601562 295.921875 C 467.601562 298.230469 464.132812 298.230469 464.132812 295.921875 C 464.132812 293.609375 467.601562 293.609375 467.601562 295.921875 "/>
<path style=" stroke:none;fill-rule:nonzero;fill:rgb(100%,84.3%,0%);fill-opacity:1;" d="M 83.855469 202.96875 C 83.855469 205.28125 80.390625 205.28125 80.390625 202.96875 C 80.390625 200.660156 83.855469 200.660156 83.855469 202.96875 "/>
<path style=" stroke:none;fill-rule:nonzero;fill:rgb(100%,84.3%,0%);fill-opacity:1;" d="M 263.433594 203.304688 C 263.433594 205.613281 259.96875 205.613281 259.96875 203.304688 C 259.96875 200.992188 263.433594 200.992188 263.433594 203.304688 "/>
<path style=" stroke:none;fill-rule:nonzero;fill:rgb(100%,84.3%,0%);fill-opacity:1;" d="M 467.601562 285.644531 C 467.601562 287.957031 464.132812 287.957031 464.132812 285.644531 C 464.132812 283.335938 467.601562 283.335938 467.601562 285.644531 "/>
<path style=" stroke:none;fill-rule:nonzero;fill:rgb(100%,84.3%,0%);fill-opacity:1;" d="M 467.601562 258.953125 C 467.601562 261.265625 464.132812 261.265625 464.132812 258.953125 C 464.132812 256.640625 467.601562 256.640625 467.601562 258.953125 "/>
<path style=" stroke:none;fill-rule:nonzero;fill:rgb(100%,84.3%,0%);fill-opacity:1;" d="M 149.648438 202.992188 C 149.648438 205.304688 146.179688 205.304688 146.179688 202.992188 C 146.179688 200.683594 149.648438 200.683594 149.648438 202.992188 "/>
<path style=" stroke:none;fill-rule:nonzero;fill:rgb(100%,84.3%,0%);fill-opacity:1;" d="M 47.867188 264.449219 C 47.867188 266.761719 44.398438 266.761719 44.398438 264.449219 C 44.398438 262.140625 47.867188 262.140625 47.867188 264.449219 "/>
<path style=" stroke:none;fill-rule:nonzero;fill:rgb(100%,84.3%,0%);fill-opacity:1;" d="M 102.429688 308.730469 C 102.429688 311.042969 98.964844 311.042969 98.964844 308.730469 C 98.964844 306.421875 102.429688 306.421875 102.429688 308.730469 "/>
<path style=" stroke:none;fill-rule:nonzero;fill:rgb(100%,84.3%,0%);fill-opacity:1;" d="M 57.367188 309.03125 C 57.367188 311.339844 53.902344 311.339844 53.902344 309.03125 C 53.902344 306.71875 57.367188 306.71875 57.367188 309.03125 "/>
<path style=" stroke:none;fill-rule:nonzero;fill:rgb(100%,84.3%,0%);fill-opacity:1;" d="M 460.863281 236.242188 C 460.863281 238.554688 457.398438 238.554688 457.398438 236.242188 C 457.398438 233.933594 460.863281 233.933594 460.863281 236.242188 "/>
<path style=" stroke:none;fill-rule:nonzero;fill:rgb(100%,84.3%,0%);fill-opacity:1;" d="M 332.199219 202.96875 C 332.199219 205.28125 328.734375 205.28125 328.734375 202.96875 C 328.734375 200.660156 332.199219 200.660156 332.199219 202.96875 "/>
<path style=" stroke:none;fill-rule:nonzero;fill:rgb(100%,84.3%,0%);fill-opacity:1;" d="M 218.652344 202.96875 C 218.652344 205.28125 215.1875 205.28125 215.1875 202.96875 C 215.1875 200.660156 218.652344 200.660156 218.652344 202.96875 "/>
<path style=" stroke:none;fill-rule:nonzero;fill:rgb(100%,84.3%,0%);fill-opacity:1;" d="M 305.515625 205.113281 C 305.515625 207.421875 302.050781 207.421875 302.050781 205.113281 C 302.050781 202.800781 305.515625 202.800781 305.515625 205.113281 "/>
<path style=" stroke:none;fill-rule:nonzero;fill:rgb(100%,84.3%,0%);fill-opacity:1;" d="M 140.046875 308.777344 C 140.046875 311.089844 136.582031 311.089844 136.582031 308.777344 C 136.582031 306.46875 140.046875 306.46875 140.046875 308.777344 "/>
<path style=" stroke:none;fill-rule:nonzero;fill:rgb(100%,84.3%,0%);fill-opacity:1;" d="M 107.972656 202.96875 C 107.972656 205.28125 104.507812 205.28125 104.507812 202.96875 C 104.507812 200.660156 107.972656 200.660156 107.972656 202.96875 "/>
<path style=" stroke:none;fill-rule:nonzero;fill:rgb(100%,84.3%,0%);fill-opacity:1;" d="M 467.601562 217.953125 C 467.601562 220.265625 464.132812 220.265625 464.132812 217.953125 C 464.132812 215.644531 467.601562 215.644531 467.601562 217.953125 "/>
<path style=" stroke:none;fill-rule:nonzero;fill:rgb(100%,84.3%,0%);fill-opacity:1;" d="M 217.035156 309.03125 C 217.035156 311.339844 213.570312 311.339844 213.570312 309.03125 C 213.570312 306.71875 217.035156 306.71875 217.035156 309.03125 "/>
<path style=" stroke:none;fill-rule:nonzero;fill:rgb(100%,84.3%,0%);fill-opacity:1;" d="M 302.792969 202.96875 C 302.792969 205.28125 299.328125 205.28125 299.328125 202.96875 C 299.328125 200.660156 302.792969 200.660156 302.792969 202.96875 "/>
<path style=" stroke:none;fill-rule:nonzero;fill:rgb(100%,84.3%,0%);fill-opacity:1;" d="M 96.898438 205.0625 C 96.898438 207.375 93.429688 207.375 93.429688 205.0625 C 93.429688 202.753906 96.898438 202.753906 96.898438 205.0625 "/>
<path style=" stroke:none;fill-rule:nonzero;fill:rgb(100%,84.3%,0%);fill-opacity:1;" d="M 290.605469 202.96875 C 290.605469 205.28125 287.140625 205.28125 287.140625 202.96875 C 287.140625 200.660156 290.605469 200.660156 290.605469 202.96875 "/>
<path style=" stroke:none;fill-rule:nonzero;fill:rgb(100%,84.3%,0%);fill-opacity:1;" d="M 227.300781 202.96875 C 227.300781 205.28125 223.835938 205.28125 223.835938 202.96875 C 223.835938 200.660156 227.300781 200.660156 227.300781 202.96875 "/>
<path style=" stroke:none;fill-rule:nonzero;fill:rgb(100%,84.3%,0%);fill-opacity:1;" d="M 47.867188 278.417969 C 47.867188 280.730469 44.398438 280.730469 44.398438 278.417969 C 44.398438 276.105469 47.867188 276.105469 47.867188 278.417969 "/>
<path style=" stroke:none;fill-rule:nonzero;fill:rgb(100%,84.3%,0%);fill-opacity:1;" d="M 211.71875 202.96875 C 211.71875 205.28125 208.25 205.28125 208.25 202.96875 C 208.25 200.660156 211.71875 200.660156 211.71875 202.96875 "/>
<path style=" stroke:none;fill-rule:nonzero;fill:rgb(100%,84.3%,0%);fill-opacity:1;" d="M 101.46875 202.96875 C 101.46875 205.28125 98.003906 205.28125 98.003906 202.96875 C 98.003906 200.660156 101.46875 200.660156 101.46875 202.96875 "/>
<path style=" stroke:none;fill-rule:nonzero;fill:rgb(100%,84.3%,0%);fill-opacity:1;" d="M 228.398438 309.03125 C 228.398438 311.339844 224.933594 311.339844 224.933594 309.03125 C 224.933594 306.71875 228.398438 306.71875 228.398438 309.03125 "/>
<path style=" stroke:none;fill-rule:nonzero;fill:rgb(100%,84.3%,0%);fill-opacity:1;" d="M 51.554688 285.878906 C 51.554688 288.1875 48.085938 288.1875 48.085938 285.878906 C 48.085938 283.566406 51.554688 283.566406 51.554688 285.878906 "/>
<path style=" stroke:none;fill-rule:nonzero;fill:rgb(100%,84.3%,0%);fill-opacity:1;" d="M 47.867188 206.421875 C 47.867188 208.730469 44.398438 208.730469 44.398438 206.421875 C 44.398438 204.109375 47.867188 204.109375 47.867188 206.421875 "/>
<path style=" stroke:none;fill-rule:nonzero;fill:rgb(100%,84.3%,0%);fill-opacity:1;" d="M 134.984375 309.03125 C 134.984375 311.339844 131.519531 311.339844 131.519531 309.03125 C 131.519531 306.71875 134.984375 306.71875 134.984375 309.03125 "/>
<path style=" stroke:none;fill-rule:nonzero;fill:rgb(100%,84.3%,0%);fill-opacity:1;" d="M 128.121094 205.660156 C 128.121094 207.96875 124.65625 207.96875 124.65625 205.660156 C 124.65625 203.347656 128.121094 203.347656 128.121094 205.660156 "/>
<path style=" stroke:none;fill-rule:nonzero;fill:rgb(100%,84.3%,0%);fill-opacity:1;" d="M 166.019531 202.96875 C 166.019531 205.28125 162.554688 205.28125 162.554688 202.96875 C 162.554688 200.660156 166.019531 200.660156 166.019531 202.96875 "/>
<path style=" stroke:none;fill-rule:nonzero;fill:rgb(100%,84.3%,0%);fill-opacity:1;" d="M 199.230469 202.96875 C 199.230469 205.28125 195.765625 205.28125 195.765625 202.96875 C 195.765625 200.660156 199.230469 200.660156 199.230469 202.96875 "/>
<path style=" stroke:none;fill-rule:nonzero;fill:rgb(100%,84.3%,0%);fill-opacity:1;" d="M 47.867188 217.027344 C 47.867188 219.339844 44.398438 219.339844 44.398438 217.027344 C 44.398438 214.71875 47.867188 214.71875 47.867188 217.027344 "/>
<path style=" stroke:none;fill-rule:nonzero;fill:rgb(100%,84.3%,0%);fill-opacity:1;" d="M 254.929688 202.96875 C 254.929688 205.28125 251.464844 205.28125 251.464844 202.96875 C 251.464844 200.660156 254.929688 200.660156 254.929688 202.96875 "/>
<path style=" stroke:none;fill-rule:nonzero;fill:rgb(100%,84.3%,0%);fill-opacity:1;" d="M 229.808594 205.675781 C 229.808594 207.988281 226.34375 207.988281 226.34375 205.675781 C 226.34375 203.367188 229.808594 203.367188 229.808594 205.675781 "/>
<path style=" stroke:none;fill-rule:nonzero;fill:rgb(100%,84.3%,0%);fill-opacity:1;" d="M 204.132812 202.96875 C 204.132812 205.28125 200.664062 205.28125 200.664062 202.96875 C 200.664062 200.660156 204.132812 200.660156 204.132812 202.96875 "/>
<path style=" stroke:none;fill-rule:nonzero;fill:rgb(100%,84.3%,0%);fill-opacity:1;" d="M 467.601562 248.039062 C 467.601562 250.351562 464.132812 250.351562 464.132812 248.039062 C 464.132812 245.726562 467.601562 245.726562 467.601562 248.039062 "/>
<path style=" stroke:none;fill-rule:nonzero;fill:rgb(100%,84.3%,0%);fill-opacity:1;" d="M 325.316406 203.214844 C 325.316406 205.527344 321.851562 205.527344 321.851562 203.214844 C 321.851562 200.90625 325.316406 200.90625 325.316406 203.214844 "/>
<path style=" stroke:none;fill-rule:nonzero;fill:rgb(100%,84.3%,0%);fill-opacity:1;" d="M 467.601562 202.96875 C 467.601562 205.28125 464.132812 205.28125 464.132812 202.96875 C 464.132812 200.660156 467.601562 200.660156 467.601562 202.96875 "/>
<path style=" stroke:none;fill-rule:nonzero;fill:rgb(100%,84.3%,0%);fill-opacity:1;" d="M 234.382812 206.109375 C 234.382812 208.421875 230.914062 208.421875 230.914062 206.109375 C 230.914062 203.800781 234.382812 203.800781 234.382812 206.109375 "/>
<path style=" stroke:none;fill-rule:nonzero;fill:rgb(100%,84.3%,0%);fill-opacity:1;" d="M 281.550781 202.976562 C 281.550781 205.289062 278.085938 205.289062 278.085938 202.976562 C 278.085938 200.667969 281.550781 200.667969 281.550781 202.976562 "/>
<path style=" stroke:none;fill-rule:nonzero;fill:rgb(100%,84.3%,0%);fill-opacity:1;" d="M 74.535156 309.03125 C 74.535156 311.339844 71.070312 311.339844 71.070312 309.03125 C 71.070312 306.71875 74.535156 306.71875 74.535156 309.03125 "/>
<path style=" stroke:none;fill-rule:nonzero;fill:rgb(100%,84.3%,0%);fill-opacity:1;" d="M 342.730469 203.234375 C 342.730469 205.546875 339.265625 205.546875 339.265625 203.234375 C 339.265625 200.925781 342.730469 200.925781 342.730469 203.234375 "/>
<path style=" stroke:none;fill-rule:nonzero;fill:rgb(100%,84.3%,0%);fill-opacity:1;" d="M 49.246094 203.242188 C 49.246094 205.550781 45.78125 205.550781 45.78125 203.242188 C 45.78125 200.929688 49.246094 200.929688 49.246094 203.242188 "/>
<path style=" stroke:none;fill-rule:nonzero;fill:rgb(100%,84.3%,0%);fill-opacity:1;" d="M 150.160156 309.03125 C 150.160156 311.339844 146.695312 311.339844 146.695312 309.03125 C 146.695312 306.71875 150.160156 306.71875 150.160156 309.03125 "/>
<path style=" stroke:none;fill-rule:nonzero;fill:rgb(100%,84.3%,0%);fill-opacity:1;" d="M 467.601562 270.667969 C 467.601562 272.980469 464.132812 272.980469 464.132812 270.667969 C 464.132812 268.359375 467.601562 268.359375 467.601562 270.667969 "/>
<path style=" stroke:none;fill-rule:nonzero;fill:rgb(100%,84.3%,0%);fill-opacity:1;" d="M 194.933594 202.96875 C 194.933594 205.28125 191.464844 205.28125 191.464844 202.96875 C 191.464844 200.660156 194.933594 200.660156 194.933594 202.96875 "/>
<path style=" stroke:none;fill-rule:nonzero;fill:rgb(100%,84.3%,0%);fill-opacity:1;" d="M 366.136719 202.96875 C 366.136719 205.28125 362.667969 205.28125 362.667969 202.96875 C 362.667969 200.660156 366.136719 200.660156 366.136719 202.96875 "/>
<path style=" stroke:none;fill-rule:nonzero;fill:rgb(100%,84.3%,0%);fill-opacity:1;" d="M 317.441406 203.5625 C 317.441406 205.871094 313.976562 205.871094 313.976562 203.5625 C 313.976562 201.25 317.441406 201.25 317.441406 203.5625 "/>
<path style=" stroke:none;fill-rule:nonzero;fill:rgb(100%,84.3%,0%);fill-opacity:1;" d="M 145.183594 202.96875 C 145.183594 205.28125 141.71875 205.28125 141.71875 202.96875 C 141.71875 200.660156 145.183594 200.660156 145.183594 202.96875 "/>
<path style=" stroke:none;fill-rule:nonzero;fill:rgb(100%,84.3%,0%);fill-opacity:1;" d="M 165.246094 308.109375 C 165.246094 310.421875 161.777344 310.421875 161.777344 308.109375 C 161.777344 305.800781 165.246094 305.800781 165.246094 308.109375 "/>
<path style=" stroke:none;fill-rule:nonzero;fill:rgb(100%,84.3%,0%);fill-opacity:1;" d="M 273.167969 205.367188 C 273.167969 207.675781 269.699219 207.675781 269.699219 205.367188 C 269.699219 203.054688 273.167969 203.054688 273.167969 205.367188 "/>
<path style=" stroke:none;fill-rule:nonzero;fill:rgb(100%,84.3%,0%);fill-opacity:1;" d="M 250.304688 206.015625 C 250.304688 208.324219 246.835938 208.324219 246.835938 206.015625 C 246.835938 203.703125 250.304688 203.703125 250.304688 206.015625 "/>
<path style=" stroke:none;fill-rule:nonzero;fill:rgb(100%,84.3%,0%);fill-opacity:1;" d="M 61.660156 309.03125 C 61.660156 311.339844 58.195312 311.339844 58.195312 309.03125 C 58.195312 306.71875 61.660156 306.71875 61.660156 309.03125 "/>
<path style=" stroke:none;fill-rule:nonzero;fill:rgb(100%,84.3%,0%);fill-opacity:1;" d="M 51.089844 215.753906 C 51.089844 218.0625 47.621094 218.0625 47.621094 215.753906 C 47.621094 213.441406 51.089844 213.441406 51.089844 215.753906 "/>
<path style=" stroke:none;fill-rule:nonzero;fill:rgb(100%,84.3%,0%);fill-opacity:1;" d="M 47.867188 260.40625 C 47.867188 262.714844 44.398438 262.714844 44.398438 260.40625 C 44.398438 258.09375 47.867188 258.09375 47.867188 260.40625 "/>
<path style=" stroke:none;fill-rule:nonzero;fill:rgb(100%,84.3%,0%);fill-opacity:1;" d="M 111.964844 202.96875 C 111.964844 205.28125 108.496094 205.28125 108.496094 202.96875 C 108.496094 200.660156 111.964844 200.660156 111.964844 202.96875 "/>
<path style=" stroke:none;fill-rule:nonzero;fill:rgb(100%,84.3%,0%);fill-opacity:1;" d="M 189.628906 202.96875 C 189.628906 205.28125 186.164062 205.28125 186.164062 202.96875 C 186.164062 200.660156 189.628906 200.660156 189.628906 202.96875 "/>
<path style=" stroke:none;fill-rule:nonzero;fill:rgb(100%,84.3%,0%);fill-opacity:1;" d="M 395.460938 203.628906 C 395.460938 205.9375 391.992188 205.9375 391.992188 203.628906 C 391.992188 201.316406 395.460938 201.316406 395.460938 203.628906 "/>
<path style=" stroke:none;fill-rule:nonzero;fill:rgb(100%,84.3%,0%);fill-opacity:1;" d="M 295.601562 202.96875 C 295.601562 205.28125 292.136719 205.28125 292.136719 202.96875 C 292.136719 200.660156 295.601562 200.660156 295.601562 202.96875 "/>
<path style=" stroke:none;fill-rule:nonzero;fill:rgb(100%,84.3%,0%);fill-opacity:1;" d="M 357.648438 206.09375 C 357.648438 208.40625 354.183594 208.40625 354.183594 206.09375 C 354.183594 203.785156 357.648438 203.785156 357.648438 206.09375 "/>
<path style=" stroke:none;fill-rule:nonzero;fill:rgb(100%,84.3%,0%);fill-opacity:1;" d="M 244.464844 202.96875 C 244.464844 205.28125 240.996094 205.28125 240.996094 202.96875 C 240.996094 200.660156 244.464844 200.660156 244.464844 202.96875 "/>
<path style=" stroke:none;fill-rule:nonzero;fill:rgb(100%,84.3%,0%);fill-opacity:1;" d="M 125.9375 202.96875 C 125.9375 205.28125 122.46875 205.28125 122.46875 202.96875 C 122.46875 200.660156 125.9375 200.660156 125.9375 202.96875 "/>
<path style=" stroke:none;fill-rule:nonzero;fill:rgb(100%,84.3%,0%);fill-opacity:1;" d="M 116.339844 202.96875 C 116.339844 205.28125 112.871094 205.28125 112.871094 202.96875 C 112.871094 200.660156 116.339844 200.660156 116.339844 202.96875 "/>
<path style=" stroke:none;fill-rule:nonzero;fill:rgb(100%,84.3%,0%);fill-opacity:1;" d="M 467.601562 277.675781 C 467.601562 279.988281 464.132812 279.988281 464.132812 277.675781 C 464.132812 275.367188 467.601562 275.367188 467.601562 277.675781 "/>
<path style=" stroke:none;fill-rule:nonzero;fill:rgb(100%,84.3%,0%);fill-opacity:1;" d="M 47.867188 238.597656 C 47.867188 240.910156 44.398438 240.910156 44.398438 238.597656 C 44.398438 236.289062 47.867188 236.289062 47.867188 238.597656 "/>
<path style=" stroke:none;fill-rule:nonzero;fill:rgb(100%,84.3%,0%);fill-opacity:1;" d="M 235.847656 202.96875 C 235.847656 205.28125 232.382812 205.28125 232.382812 202.96875 C 232.382812 200.660156 235.847656 200.660156 235.847656 202.96875 "/>
<path style=" stroke:none;fill-rule:nonzero;fill:rgb(100%,84.3%,0%);fill-opacity:1;" d="M 314.027344 202.96875 C 314.027344 205.28125 310.5625 205.28125 310.5625 202.96875 C 310.5625 200.660156 314.027344 200.660156 314.027344 202.96875 "/>
<path style=" stroke:none;fill-rule:nonzero;fill:rgb(100%,84.3%,0%);fill-opacity:1;" d="M 239.773438 202.96875 C 239.773438 205.28125 236.304688 205.28125 236.304688 202.96875 C 236.304688 200.660156 239.773438 200.660156 239.773438 202.96875 "/>
<path style=" stroke:none;fill-rule:nonzero;fill:rgb(100%,84.3%,0%);fill-opacity:1;" d="M 270.527344 202.96875 C 270.527344 205.28125 267.058594 205.28125 267.058594 202.96875 C 267.058594 200.660156 270.527344 200.660156 270.527344 202.96875 "/>
<path style=" stroke:none;fill-rule:nonzero;fill:rgb(100%,84.3%,0%);fill-opacity:1;" d="M 140.890625 202.96875 C 140.890625 205.28125 137.425781 205.28125 137.425781 202.96875 C 137.425781 200.660156 140.890625 200.660156 140.890625 202.96875 "/>
<path style=" stroke:none;fill-rule:nonzero;fill:rgb(100%,84.3%,0%);fill-opacity:1;" d="M 467.601562 232.429688 C 467.601562 234.738281 464.132812 234.738281 464.132812 232.429688 C 464.132812 230.117188 467.601562 230.117188 467.601562 232.429688 "/>
<path style=" stroke:none;fill-rule:nonzero;fill:rgb(100%,84.3%,0%);fill-opacity:1;" d="M 339.273438 202.96875 C 339.273438 205.28125 335.808594 205.28125 335.808594 202.96875 C 335.808594 200.660156 339.273438 200.660156 339.273438 202.96875 "/>
<path style=" stroke:none;fill-rule:nonzero;fill:rgb(100%,84.3%,0%);fill-opacity:1;" d="M 47.867188 242.292969 C 47.867188 244.605469 44.398438 244.605469 44.398438 242.292969 C 44.398438 239.980469 47.867188 239.980469 47.867188 242.292969 "/>
<path style=" stroke:none;fill-rule:nonzero;fill:rgb(100%,84.3%,0%);fill-opacity:1;" d="M 143.371094 307.796875 C 143.371094 310.109375 139.90625 310.109375 139.90625 307.796875 C 139.90625 305.484375 143.371094 305.484375 143.371094 307.796875 "/>
<path style=" stroke:none;fill-rule:nonzero;fill:rgb(100%,84.3%,0%);fill-opacity:1;" d="M 320.882812 202.96875 C 320.882812 205.28125 317.417969 205.28125 317.417969 202.96875 C 317.417969 200.660156 320.882812 200.660156 320.882812 202.96875 "/>
<path style=" stroke:none;fill-rule:nonzero;fill:rgb(100%,84.3%,0%);fill-opacity:1;" d="M 467.601562 210.246094 C 467.601562 212.558594 464.132812 212.558594 464.132812 210.246094 C 464.132812 207.9375 467.601562 207.9375 467.601562 210.246094 "/>
<path style=" stroke:none;fill-rule:nonzero;fill:rgb(100%,84.3%,0%);fill-opacity:1;" d="M 77.191406 204.679688 C 77.191406 206.992188 73.722656 206.992188 73.722656 204.679688 C 73.722656 202.371094 77.191406 202.371094 77.191406 204.679688 "/>
<path style=" stroke:none;fill-rule:nonzero;fill:rgb(100%,84.3%,0%);fill-opacity:1;" d="M 51.199219 220.59375 C 51.199219 222.902344 47.730469 222.902344 47.730469 220.59375 C 47.730469 218.28125 51.199219 218.28125 51.199219 220.59375 "/>
<path style=" stroke:none;fill-rule:nonzero;fill:rgb(100%,84.3%,0%);fill-opacity:1;" d="M 467.601562 237.855469 C 467.601562 240.164062 464.132812 240.164062 464.132812 237.855469 C 464.132812 235.542969 467.601562 235.542969 467.601562 237.855469 "/>
<path style=" stroke:none;fill-rule:nonzero;fill:rgb(100%,84.3%,0%);fill-opacity:1;" d="M 47.867188 213.351562 C 47.867188 215.664062 44.398438 215.664062 44.398438 213.351562 C 44.398438 211.042969 47.867188 211.042969 47.867188 213.351562 "/>
<path style=" stroke:none;fill-rule:nonzero;fill:rgb(100%,84.3%,0%);fill-opacity:1;" d="M 297.046875 206.710938 C 297.046875 209.023438 293.582031 209.023438 293.582031 206.710938 C 293.582031 204.402344 297.046875 204.402344 297.046875 206.710938 "/>
<path style=" stroke:none;fill-rule:nonzero;fill:rgb(100%,84.3%,0%);fill-opacity:1;" d="M 245.074219 206.382812 C 245.074219 208.691406 241.609375 208.691406 241.609375 206.382812 C 241.609375 204.070312 245.074219 204.070312 245.074219 206.382812 "/>
<path style=" stroke:none;fill-rule:nonzero;fill:rgb(100%,84.3%,0%);fill-opacity:1;" d="M 47.867188 221.542969 C 47.867188 223.855469 44.398438 223.855469 44.398438 221.542969 C 44.398438 219.234375 47.867188 219.234375 47.867188 221.542969 "/>
<path style=" stroke:none;fill-rule:nonzero;fill:rgb(100%,84.3%,0%);fill-opacity:1;" d="M 361.078125 202.96875 C 361.078125 205.28125 357.613281 205.28125 357.613281 202.96875 C 357.613281 200.660156 361.078125 200.660156 361.078125 202.96875 "/>
<path style=" stroke:none;fill-rule:nonzero;fill:rgb(100%,84.3%,0%);fill-opacity:1;" d="M 47.867188 255.40625 C 47.867188 257.71875 44.398438 257.71875 44.398438 255.40625 C 44.398438 253.097656 47.867188 253.097656 47.867188 255.40625 "/>
<path style=" stroke:none;fill-rule:nonzero;fill:rgb(100%,84.3%,0%);fill-opacity:1;" d="M 47.867188 284.90625 C 47.867188 287.214844 44.398438 287.214844 44.398438 284.90625 C 44.398438 282.59375 47.867188 282.59375 47.867188 284.90625 "/>
<path style=" stroke:none;fill-rule:nonzero;fill:rgb(100%,84.3%,0%);fill-opacity:1;" d="M 233.480469 309.03125 C 233.480469 311.339844 230.015625 311.339844 230.015625 309.03125 C 230.015625 306.71875 233.480469 306.71875 233.480469 309.03125 "/>
<path style=" stroke:none;fill-rule:nonzero;fill:rgb(100%,84.3%,0%);fill-opacity:1;" d="M 81.589844 309.03125 C 81.589844 311.339844 78.121094 311.339844 78.121094 309.03125 C 78.121094 306.71875 81.589844 306.71875 81.589844 309.03125 "/>
<path style=" stroke:none;fill-rule:nonzero;fill:rgb(100%,84.3%,0%);fill-opacity:1;" d="M 158.570312 309.03125 C 158.570312 311.339844 155.101562 311.339844 155.101562 309.03125 C 155.101562 306.71875 158.570312 306.71875 158.570312 309.03125 "/>
<path style=" stroke:none;fill-rule:nonzero;fill:rgb(100%,84.3%,0%);fill-opacity:1;" d="M 467.601562 291.191406 C 467.601562 293.503906 464.132812 293.503906 464.132812 291.191406 C 464.132812 288.882812 467.601562 288.882812 467.601562 291.191406 "/>
<path style=" stroke:none;fill-rule:nonzero;fill:rgb(100%,84.3%,0%);fill-opacity:1;" d="M 47.894531 225.011719 C 47.894531 227.320312 44.429688 227.320312 44.429688 225.011719 C 44.429688 222.699219 47.894531 222.699219 47.894531 225.011719 "/>
<path style=" stroke:none;fill-rule:nonzero;fill:rgb(100%,84.3%,0%);fill-opacity:1;" d="M 51.324219 264.644531 C 51.324219 266.953125 47.859375 266.953125 47.859375 264.644531 C 47.859375 262.332031 51.324219 262.332031 51.324219 264.644531 "/>
<path style=" stroke:none;fill-rule:nonzero;fill:rgb(100%,84.3%,0%);fill-opacity:1;" d="M 239.308594 206.40625 C 239.308594 208.714844 235.84375 208.714844 235.84375 206.40625 C 235.84375 204.09375 239.308594 204.09375 239.308594 206.40625 "/>
<path style=" stroke:none;fill-rule:nonzero;fill:rgb(100%,84.3%,0%);fill-opacity:1;" d="M 204.460938 206.421875 C 204.460938 208.730469 200.996094 208.730469 200.996094 206.421875 C 200.996094 204.109375 204.460938 204.109375 204.460938 206.421875 "/>
<path style=" stroke:none;fill-rule:nonzero;fill:rgb(100%,84.3%,0%);fill-opacity:1;" d="M 215.132812 203.5625 C 215.132812 205.871094 211.667969 205.871094 211.667969 203.5625 C 211.667969 201.25 215.132812 201.25 215.132812 203.5625 "/>
<path style=" stroke:none;fill-rule:nonzero;fill:rgb(100%,84.3%,0%);fill-opacity:1;" d="M 309.089844 202.96875 C 309.089844 205.28125 305.625 205.28125 305.625 202.96875 C 305.625 200.660156 309.089844 200.660156 309.089844 202.96875 "/>
<path style=" stroke:none;fill-rule:nonzero;fill:rgb(100%,84.3%,0%);fill-opacity:1;" d="M 467.601562 267.203125 C 467.601562 269.515625 464.132812 269.515625 464.132812 267.203125 C 464.132812 264.890625 467.601562 264.890625 467.601562 267.203125 "/>
<path style=" stroke:none;fill-rule:nonzero;fill:rgb(100%,84.3%,0%);fill-opacity:1;" d="M 208.386719 203.929688 C 208.386719 206.238281 204.921875 206.238281 204.921875 203.929688 C 204.921875 201.617188 208.386719 201.617188 208.386719 203.929688 "/>
<path style=" stroke:none;fill-rule:nonzero;fill:rgb(100%,84.3%,0%);fill-opacity:1;" d="M 467.601562 281.308594 C 467.601562 283.617188 464.132812 283.617188 464.132812 281.308594 C 464.132812 278.996094 467.601562 278.996094 467.601562 281.308594 "/>
<path style=" stroke:none;fill-rule:nonzero;fill:rgb(100%,84.3%,0%);fill-opacity:1;" d="M 248.648438 202.96875 C 248.648438 205.28125 245.183594 205.28125 245.183594 202.96875 C 245.183594 200.660156 248.648438 200.660156 248.648438 202.96875 "/>
<path style=" stroke:none;fill-rule:nonzero;fill:rgb(100%,84.3%,0%);fill-opacity:1;" d="M 47.867188 293.851562 C 47.867188 296.164062 44.398438 296.164062 44.398438 293.851562 C 44.398438 291.542969 47.867188 291.542969 47.867188 293.851562 "/>
<path style=" stroke:none;fill-rule:nonzero;fill:rgb(100%,84.3%,0%);fill-opacity:1;" d="M 231.972656 202.96875 C 231.972656 205.28125 228.507812 205.28125 228.507812 202.96875 C 228.507812 200.660156 231.972656 200.660156 231.972656 202.96875 "/>
<path style=" stroke:none;fill-rule:nonzero;fill:rgb(100%,84.3%,0%);fill-opacity:1;" d="M 335.773438 202.96875 C 335.773438 205.28125 332.308594 205.28125 332.308594 202.96875 C 332.308594 200.660156 335.773438 200.660156 335.773438 202.96875 "/>
<path style=" stroke:none;fill-rule:nonzero;fill:rgb(100%,84.3%,0%);fill-opacity:1;" d="M 152.015625 306.101562 C 152.015625 308.410156 148.546875 308.410156 148.546875 306.101562 C 148.546875 303.789062 152.015625 303.789062 152.015625 306.101562 "/>
<path style=" stroke:none;fill-rule:nonzero;fill:rgb(100%,84.3%,0%);fill-opacity:1;" d="M 286.035156 202.96875 C 286.035156 205.28125 282.570312 205.28125 282.570312 202.96875 C 282.570312 200.660156 286.035156 200.660156 286.035156 202.96875 "/>
<path style=" stroke:none;fill-rule:nonzero;fill:rgb(100%,84.3%,0%);fill-opacity:1;" d="M 467.601562 263.738281 C 467.601562 266.046875 464.132812 266.046875 464.132812 263.738281 C 464.132812 261.425781 467.601562 261.425781 467.601562 263.738281 "/>
<path style=" stroke:none;fill-rule:nonzero;fill:rgb(100%,84.3%,0%);fill-opacity:1;" d="M 467.601562 222.433594 C 467.601562 224.742188 464.132812 224.742188 464.132812 222.433594 C 464.132812 220.121094 467.601562 220.121094 467.601562 222.433594 "/>
<path style=" stroke:none;fill-rule:nonzero;fill:rgb(100%,84.3%,0%);fill-opacity:1;" d="M 47.867188 230.386719 C 47.867188 232.695312 44.398438 232.695312 44.398438 230.386719 C 44.398438 228.074219 47.867188 228.074219 47.867188 230.386719 "/>
<path style=" stroke:none;fill-rule:nonzero;fill:rgb(100%,84.3%,0%);fill-opacity:1;" d="M 223.710938 206.355469 C 223.710938 208.667969 220.242188 208.667969 220.242188 206.355469 C 220.242188 204.046875 223.710938 204.046875 223.710938 206.355469 "/>
<path style=" stroke:none;fill-rule:nonzero;fill:rgb(100%,84.3%,0%);fill-opacity:1;" d="M 65.40625 309.03125 C 65.40625 311.339844 61.941406 311.339844 61.941406 309.03125 C 61.941406 306.71875 65.40625 306.71875 65.40625 309.03125 "/>
<path style=" stroke:none;fill-rule:nonzero;fill:rgb(100%,84.3%,0%);fill-opacity:1;" d="M 257.363281 205.4375 C 257.363281 207.75 253.898438 207.75 253.898438 205.4375 C 253.898438 203.128906 257.363281 203.128906 257.363281 205.4375 "/>
<path style=" stroke:none;fill-rule:nonzero;fill:rgb(100%,84.3%,0%);fill-opacity:1;" d="M 129.480469 309.03125 C 129.480469 311.339844 126.015625 311.339844 126.015625 309.03125 C 126.015625 306.71875 129.480469 306.71875 129.480469 309.03125 "/>
<path style=" stroke:none;fill-rule:nonzero;fill:rgb(100%,84.3%,0%);fill-opacity:1;" d="M 346.164062 203.691406 C 346.164062 206.003906 342.699219 206.003906 342.699219 203.691406 C 342.699219 201.382812 346.164062 201.382812 346.164062 203.691406 "/>
<path style=" stroke:none;fill-rule:nonzero;fill:rgb(100%,84.3%,0%);fill-opacity:1;" d="M 467.601562 304.527344 C 467.601562 306.839844 464.132812 306.839844 464.132812 304.527344 C 464.132812 302.21875 467.601562 302.21875 467.601562 304.527344 "/>
<path style=" stroke:none;fill-rule:nonzero;fill:rgb(100%,84.3%,0%);fill-opacity:1;" d="M 94.136719 202.96875 C 94.136719 205.28125 90.667969 205.28125 90.667969 202.96875 C 90.667969 200.660156 94.136719 200.660156 94.136719 202.96875 "/>
<path style=" stroke:none;fill-rule:nonzero;fill:rgb(100%,84.3%,0%);fill-opacity:1;" d="M 467.601562 253.738281 C 467.601562 256.050781 464.132812 256.050781 464.132812 253.738281 C 464.132812 251.429688 467.601562 251.429688 467.601562 253.738281 "/>
<path style=" stroke:none;fill-rule:nonzero;fill:rgb(100%,84.3%,0%);fill-opacity:1;" d="M 467.601562 300.09375 C 467.601562 302.402344 464.132812 302.402344 464.132812 300.09375 C 464.132812 297.78125 467.601562 297.78125 467.601562 300.09375 "/>
<path style=" stroke:none;fill-rule:nonzero;fill:rgb(100%,84.3%,0%);fill-opacity:1;" d="M 266.964844 202.96875 C 266.964844 205.28125 263.496094 205.28125 263.496094 202.96875 C 263.496094 200.660156 266.964844 200.660156 266.964844 202.96875 "/>
<path style=" stroke:none;fill-rule:nonzero;fill:rgb(100%,84.3%,0%);fill-opacity:1;" d="M 307.59375 207.890625 C 307.59375 210.199219 304.125 210.199219 304.125 207.890625 C 304.125 205.578125 307.59375 205.578125 307.59375 207.890625 "/>
<path style=" stroke:none;fill-rule:nonzero;fill:rgb(100%,84.3%,0%);fill-opacity:1;" d="M 467.601562 226.480469 C 467.601562 228.789062 464.132812 228.789062 464.132812 226.480469 C 464.132812 224.167969 467.601562 224.167969 467.601562 226.480469 "/>
<path style=" stroke:none;fill-rule:nonzero;fill:rgb(100%,84.3%,0%);fill-opacity:1;" d="M 161.796875 307.765625 C 161.796875 310.074219 158.328125 310.074219 158.328125 307.765625 C 158.328125 305.453125 161.796875 305.453125 161.796875 307.765625 "/>
<path style=" stroke:none;fill-rule:nonzero;fill:rgb(100%,84.3%,0%);fill-opacity:1;" d="M 50.132812 275.601562 C 50.132812 277.910156 46.664062 277.910156 46.664062 275.601562 C 46.664062 273.289062 50.132812 273.289062 50.132812 275.601562 "/>
<path style=" stroke:none;fill-rule:nonzero;fill:rgb(100%,84.3%,0%);fill-opacity:1;" d="M 59.160156 306.0625 C 59.160156 308.375 55.691406 308.375 55.691406 306.0625 C 55.691406 303.753906 59.160156 303.753906 59.160156 306.0625 "/>
<path style=" stroke:none;fill-rule:nonzero;fill:rgb(100%,84.3%,0%);fill-opacity:1;" d="M 467.601562 206.613281 C 467.601562 208.921875 464.132812 208.921875 464.132812 206.613281 C 464.132812 204.300781 467.601562 204.300781 467.601562 206.613281 "/>
<path style=" stroke:none;fill-rule:nonzero;fill:rgb(100%,84.3%,0%);fill-opacity:1;" d="M 47.867188 249.46875 C 47.867188 251.78125 44.398438 251.78125 44.398438 249.46875 C 44.398438 247.160156 47.867188 247.160156 47.867188 249.46875 "/>
<path style=" stroke:none;fill-rule:nonzero;fill:rgb(100%,84.3%,0%);fill-opacity:1;" d="M 238.191406 309.03125 C 238.191406 311.339844 234.722656 311.339844 234.722656 309.03125 C 234.722656 306.71875 238.191406 306.71875 238.191406 309.03125 "/>
<path style=" stroke:none;fill-rule:nonzero;fill:rgb(100%,84.3%,0%);fill-opacity:1;" d="M 281.640625 207.839844 C 281.640625 210.152344 278.175781 210.152344 278.175781 207.839844 C 278.175781 205.53125 281.640625 205.53125 281.640625 207.839844 "/>
<path style=" stroke:none;fill-rule:nonzero;fill:rgb(100%,84.3%,0%);fill-opacity:1;" d="M 47.867188 272.976562 C 47.867188 275.289062 44.398438 275.289062 44.398438 272.976562 C 44.398438 270.667969 47.867188 270.667969 47.867188 272.976562 "/>
<path style=" stroke:none;fill-rule:nonzero;fill:rgb(100%,84.3%,0%);fill-opacity:1;" d="M 371.167969 202.96875 C 371.167969 205.28125 367.699219 205.28125 367.699219 202.96875 C 367.699219 200.660156 371.167969 200.660156 371.167969 202.96875 "/>
<path style=" stroke:none;fill-rule:nonzero;fill:rgb(100%,84.3%,0%);fill-opacity:1;" d="M 356.148438 202.96875 C 356.148438 205.28125 352.683594 205.28125 352.683594 202.96875 C 352.683594 200.660156 356.148438 200.660156 356.148438 202.96875 "/>
<path style=" stroke:none;fill-rule:nonzero;fill:rgb(100%,84.3%,0%);fill-opacity:1;" d="M 312.195312 205.910156 C 312.195312 208.222656 308.726562 208.222656 308.726562 205.910156 C 308.726562 203.601562 312.195312 203.601562 312.195312 205.910156 "/>
<path style=" stroke:none;fill-rule:nonzero;fill:rgb(100%,84.3%,0%);fill-opacity:1;" d="M 259.984375 202.96875 C 259.984375 205.28125 256.515625 205.28125 256.515625 202.96875 C 256.515625 200.660156 259.984375 200.660156 259.984375 202.96875 "/>
<path style=" stroke:none;fill-rule:nonzero;fill:rgb(100%,84.3%,0%);fill-opacity:1;" d="M 467.601562 274.136719 C 467.601562 276.445312 464.132812 276.445312 464.132812 274.136719 C 464.132812 271.824219 467.601562 271.824219 467.601562 274.136719 "/>
<path style=" stroke:none;fill-rule:nonzero;fill:rgb(100%,84.3%,0%);fill-opacity:1;" d="M 157.117188 202.96875 C 157.117188 205.28125 153.652344 205.28125 153.652344 202.96875 C 153.652344 200.660156 157.117188 200.660156 157.117188 202.96875 "/>
<path style=" stroke:none;fill-rule:nonzero;fill:rgb(100%,84.3%,0%);fill-opacity:1;" d="M 225.046875 308.140625 C 225.046875 310.449219 221.582031 310.449219 221.582031 308.140625 C 221.582031 305.828125 225.046875 305.828125 225.046875 308.140625 "/>
<path style=" stroke:none;fill-rule:nonzero;fill:rgb(100%,84.3%,0%);fill-opacity:1;" d="M 181.910156 202.96875 C 181.910156 205.28125 178.441406 205.28125 178.441406 202.96875 C 178.441406 200.660156 181.910156 200.660156 181.910156 202.96875 "/>
<path style=" stroke:none;fill-rule:nonzero;fill:rgb(100%,84.3%,0%);fill-opacity:1;" d="M 275.671875 202.96875 C 275.671875 205.28125 272.207031 205.28125 272.207031 202.96875 C 272.207031 200.660156 275.671875 200.660156 275.671875 202.96875 "/>
<path style=" stroke:none;fill-rule:nonzero;fill:rgb(100%,84.3%,0%);fill-opacity:1;" d="M 221.417969 309.03125 C 221.417969 311.339844 217.949219 311.339844 217.949219 309.03125 C 217.949219 306.71875 221.417969 306.71875 221.417969 309.03125 "/>
<path style=" stroke:none;fill-rule:nonzero;fill:rgb(100%,84.3%,0%);fill-opacity:1;" d="M 222.96875 202.96875 C 222.96875 205.28125 219.503906 205.28125 219.503906 202.96875 C 219.503906 200.660156 222.96875 200.660156 222.96875 202.96875 "/>
<path style=" stroke:none;fill-rule:nonzero;fill:rgb(100%,84.3%,0%);fill-opacity:1;" d="M 157.039062 305.921875 C 157.039062 308.230469 153.574219 308.230469 153.574219 305.921875 C 153.574219 303.609375 157.039062 303.609375 157.039062 305.921875 "/>
<path style=" stroke:none;fill-rule:nonzero;fill:rgb(100%,84.3%,0%);fill-opacity:1;" d="M 154.386719 309.03125 C 154.386719 311.339844 150.917969 311.339844 150.917969 309.03125 C 150.917969 306.71875 154.386719 306.71875 154.386719 309.03125 "/>
<path style=" stroke:none;fill-rule:nonzero;fill:rgb(100%,84.3%,0%);fill-opacity:1;" d="M 146.824219 308.089844 C 146.824219 310.402344 143.359375 310.402344 143.359375 308.089844 C 143.359375 305.78125 146.824219 305.78125 146.824219 308.089844 "/>
<path style=" stroke:none;fill-rule:nonzero;fill:rgb(100%,84.3%,0%);fill-opacity:1;" d="M 47.867188 209.886719 C 47.867188 212.195312 44.398438 212.195312 44.398438 209.886719 C 44.398438 207.574219 47.867188 207.574219 47.867188 209.886719 "/>
<path style=" stroke:none;fill-rule:nonzero;fill:rgb(100%,84.3%,0%);fill-opacity:1;" d="M 53.8125 309.03125 C 53.8125 311.339844 50.347656 311.339844 50.347656 309.03125 C 50.347656 306.71875 53.8125 306.71875 53.8125 309.03125 "/>
<path style=" stroke:none;fill-rule:nonzero;fill:rgb(100%,84.3%,0%);fill-opacity:1;" d="M 379.871094 202.96875 C 379.871094 205.28125 376.40625 205.28125 376.40625 202.96875 C 376.40625 200.660156 379.871094 200.660156 379.871094 202.96875 "/>
<path style=" stroke:none;fill-rule:nonzero;fill:rgb(100%,84.3%,0%);fill-opacity:1;" d="M 169.328125 309.03125 C 169.328125 311.339844 165.863281 311.339844 165.863281 309.03125 C 165.863281 306.71875 169.328125 306.71875 169.328125 309.03125 "/>
<path style=" stroke:none;fill-rule:nonzero;fill:rgb(100%,84.3%,0%);fill-opacity:1;" d="M 174.359375 309.03125 C 174.359375 311.339844 170.890625 311.339844 170.890625 309.03125 C 170.890625 306.71875 174.359375 306.71875 174.359375 309.03125 "/>
<path style=" stroke:none;fill-rule:nonzero;fill:rgb(100%,84.3%,0%);fill-opacity:1;" d="M 51.121094 229.195312 C 51.121094 231.507812 47.65625 231.507812 47.65625 229.195312 C 47.65625 226.886719 51.121094 226.886719 51.121094 229.195312 "/>
<path style=" stroke:none;fill-rule:nonzero;fill:rgb(100%,84.3%,0%);fill-opacity:1;" d="M 349.625 203.457031 C 349.625 205.769531 346.15625 205.769531 346.15625 203.457031 C 346.15625 201.148438 349.625 201.148438 349.625 203.457031 "/>
<path style=" stroke:none;fill-rule:nonzero;fill:rgb(100%,84.3%,0%);fill-opacity:1;" d="M 89.960938 202.96875 C 89.960938 205.28125 86.496094 205.28125 86.496094 202.96875 C 86.496094 200.660156 89.960938 200.660156 89.960938 202.96875 "/>
<path style=" stroke:none;fill-rule:nonzero;fill:rgb(100%,84.3%,0%);fill-opacity:1;" d="M 131.828125 202.96875 C 131.828125 205.28125 128.363281 205.28125 128.363281 202.96875 C 128.363281 200.660156 131.828125 200.660156 131.828125 202.96875 "/>
<path style=" stroke:none;fill-rule:nonzero;fill:rgb(100%,84.3%,0%);fill-opacity:1;" d="M 135.726562 202.96875 C 135.726562 205.28125 132.257812 205.28125 132.257812 202.96875 C 132.257812 200.660156 135.726562 200.660156 135.726562 202.96875 "/>
<path style=" stroke:none;fill-rule:nonzero;fill:rgb(100%,84.3%,0%);fill-opacity:1;" d="M 120.882812 202.96875 C 120.882812 205.28125 117.414062 205.28125 117.414062 202.96875 C 117.414062 200.660156 120.882812 200.660156 120.882812 202.96875 "/>
<path style=" stroke:none;fill-rule:nonzero;fill:rgb(100%,84.3%,0%);fill-opacity:1;" d="M 47.867188 234.339844 C 47.867188 236.652344 44.398438 236.652344 44.398438 234.339844 C 44.398438 232.03125 47.867188 232.03125 47.867188 234.339844 "/>
<path style=" stroke:none;fill-rule:nonzero;fill:rgb(100%,84.3%,0%);fill-opacity:1;" d="M 69.972656 309.03125 C 69.972656 311.339844 66.507812 311.339844 66.507812 309.03125 C 66.507812 306.71875 69.972656 306.71875 69.972656 309.03125 "/>
<path style=" stroke:none;fill-rule:nonzero;fill:rgb(100%,84.3%,0%);fill-opacity:1;" d="M 47.867188 269.511719 C 47.867188 271.820312 44.398438 271.820312 44.398438 269.511719 C 44.398438 267.199219 47.867188 267.199219 47.867188 269.511719 "/>
<path style=" stroke:none;fill-rule:nonzero;fill:rgb(100%,84.3%,0%);fill-opacity:1;" d="M 328.773438 203.496094 C 328.773438 205.804688 325.308594 205.804688 325.308594 203.496094 C 325.308594 201.183594 328.773438 201.183594 328.773438 203.496094 "/>
<path style=" stroke:none;fill-rule:nonzero;fill:rgb(100%,84.3%,0%);fill-opacity:1;" d="M 80.628906 204.230469 C 80.628906 206.542969 77.160156 206.542969 77.160156 204.230469 C 77.160156 201.921875 80.628906 201.921875 80.628906 204.230469 "/>
<path style=" stroke:none;fill-rule:nonzero;fill:rgb(100%,84.3%,0%);fill-opacity:1;" d="M 462.898438 214.644531 C 462.898438 216.957031 459.433594 216.957031 459.433594 214.644531 C 459.433594 212.335938 462.898438 212.335938 462.898438 214.644531 "/>
</g>
</svg>
