<?xml version="1.0" encoding="UTF-8"?>
<svg xmlns="http://www.w3.org/2000/svg" xmlns:xlink="http://www.w3.org/1999/xlink" width="512pt" height="512pt" viewBox="0 0 512 512" version="1.1">
<g id="surface186">
<rect x="0" y="0" width="512" height="512" style="fill:rgb(26.7%,26.7%,26.7%);fill-opacity:1;stroke:none;"/>
<path style=" stroke:none;fill-rule:nonzero;fill:rgb(19.2%,38.8%,66.7%);fill-opacity:1;" d="M 40.621094 42.667969 L 446.847656 42.667969 L 446.847656 469.332031 L 40.621094 469.332031 Z M 40.621094 42.667969 "/>
<path style=" stroke:none;fill-rule:nonzero;fill:rgb(100%,100%,100%);fill-opacity:1;" d="M 154.953125 -2.042969 C 154.953125 2.214844 148.566406 2.214844 148.566406 -2.042969 C 148.566406 -6.300781 154.953125 -6.300781 154.953125 -2.042969 "/>
<path style=" stroke:none;fill-rule:nonzero;fill:rgb(100%,100%,100%);fill-opacity:1;" d="M 29.125 14.5625 C 29.125 18.820312 22.738281 18.820312 22.738281 14.5625 C 22.738281 10.304688 29.125 10.304688 29.125 14.5625 "/>
<path style=" stroke:none;fill-rule:nonzero;fill:rgb(100%,100%,100%);fill-opacity:1;" d="M 505.613281 385.660156 C 505.613281 389.917969 499.226562 389.917969 499.226562 385.660156 C 499.226562 381.402344 505.613281 381.402344 505.613281 385.660156 "/>
<path style=" stroke:none;fill-rule:nonzero;fill:rgb(100%,100%,100%);fill-opacity:1;" d="M 46.371094 502.546875 C 46.371094 506.804688 39.984375 506.804688 39.984375 502.546875 C 39.984375 498.289062 46.371094 498.289062 46.371094 502.546875 "/>
<path style=" stroke:none;fill-rule:nonzero;fill:rgb(100%,100%,100%);fill-opacity:1;" d="M 384.894531 6.898438 C 384.894531 11.15625 378.507812 11.15625 378.507812 6.898438 C 378.507812 2.640625 384.894531 2.640625 384.894531 6.898438 "/>
<path style=" stroke:none;fill-rule:nonzero;fill:rgb(100%,100%,100%);fill-opacity:1;" d="M 41.902344 25.421875 C 41.902344 29.679688 35.511719 29.679688 35.511719 25.421875 C 35.511719 21.164062 41.902344 21.164062 41.902344 25.421875 "/>
<path style=" stroke:none;fill-rule:nonzero;fill:rgb(100%,100%,100%);fill-opacity:1;" d="M 505.613281 390.769531 C 505.613281 395.027344 499.226562 395.027344 499.226562 390.769531 C 499.226562 386.511719 505.613281 386.511719 505.613281 390.769531 "/>
<path style=" stroke:none;fill-rule:nonzero;fill:rgb(100%,84.3%,0%);fill-opacity:1;" d="M 50.203125 76.40625 C 50.203125 80.664062 43.816406 80.664062 43.816406 76.40625 C 43.816406 72.148438 50.203125 72.148438 50.203125 76.40625 "/>
<path style=" stroke:none;fill-rule:nonzero;fill:rgb(100%,84.3%,0%);fill-opacity:1;" d="M 292.273438 402.960938 C 292.273438 407.21875 285.882812 407.21875 285.882812 402.960938 C 285.882812 398.703125 292.273438 398.703125 292.273438 402.960938 "/>
<path style=" stroke:none;fill-rule:nonzero;fill:rgb(100%,84.3%,0%);fill-opacity:1;" d="M 79.042969 49.054688 C 79.042969 53.3125 72.65625 53.3125 72.65625 49.054688 C 72.65625 44.796875 79.042969 44.796875 79.042969 49.054688 "/>
<path style=" stroke:none;fill-rule:nonzero;fill:rgb(100%,84.3%,0%);fill-opacity:1;" d="M 436.0625 49.054688 C 436.0625 53.3125 429.675781 53.3125 429.675781 49.054688 C 429.675781 44.796875 436.0625 44.796875 436.0625 49.054688 "/>
<path style=" stroke:none;fill-rule:nonzero;fill:rgb(100%,84.3%,0%);fill-opacity:1;" d="M 393.601562 460.316406 C 393.601562 464.574219 387.214844 464.574219 387.214844 460.316406 C 387.214844 456.058594 393.601562 456.058594 393.601562 460.316406 "/>
<path style=" stroke:none;fill-rule:nonzero;fill:rgb(100%,84.3%,0%);fill-opacity:1;" d="M 343.101562 92.652344 C 343.101562 96.910156 336.710938 96.910156 336.710938 92.652344 C 336.710938 88.394531 343.101562 88.394531 343.101562 92.652344 "/>
<path style=" stroke:none;fill-rule:nonzero;fill:rgb(100%,84.3%,0%);fill-opacity:1;" d="M 52.207031 431.800781 C 52.207031 436.058594 45.820312 436.058594 45.820312 431.800781 C 45.820312 427.542969 52.207031 427.542969 52.207031 431.800781 "/>
<path style=" stroke:none;fill-rule:nonzero;fill:rgb(100%,84.3%,0%);fill-opacity:1;" d="M 50.945312 458.34375 C 50.945312 462.601562 44.558594 462.601562 44.558594 458.34375 C 44.558594 454.085938 50.945312 454.085938 50.945312 458.34375 "/>
<path style=" stroke:none;fill-rule:nonzero;fill:rgb(100%,84.3%,0%);fill-opacity:1;" d="M 443.65625 90.003906 C 443.65625 94.261719 437.269531 94.261719 437.269531 90.003906 C 437.269531 85.746094 443.65625 85.746094 443.65625 90.003906 "/>
<path style=" stroke:none;fill-rule:nonzero;fill:rgb(100%,84.3%,0%);fill-opacity:1;" d="M 51.300781 358.292969 C 51.300781 362.550781 44.914062 362.550781 44.914062 358.292969 C 44.914062 354.035156 51.300781 354.035156 51.300781 358.292969 "/>
<path style=" stroke:none;fill-rule:nonzero;fill:rgb(100%,84.3%,0%);fill-opacity:1;" d="M 67.925781 50.316406 C 67.925781 54.574219 61.539062 54.574219 61.539062 50.316406 C 61.539062 46.058594 67.925781 46.058594 67.925781 50.316406 "/>
<path style=" stroke:none;fill-rule:nonzero;fill:rgb(100%,84.3%,0%);fill-opacity:1;" d="M 50.203125 59.578125 C 50.203125 63.835938 43.816406 63.835938 43.816406 59.578125 C 43.816406 55.320312 50.203125 55.320312 50.203125 59.578125 "/>
<path style=" stroke:none;fill-rule:nonzero;fill:rgb(100%,84.3%,0%);fill-opacity:1;" d="M 61.667969 49.054688 C 61.667969 53.3125 55.28125 53.3125 55.28125 49.054688 C 55.28125 44.796875 61.667969 44.796875 61.667969 49.054688 "/>
<path style=" stroke:none;fill-rule:nonzero;fill:rgb(100%,84.3%,0%);fill-opacity:1;" d="M 434.789062 201.898438 C 434.789062 206.15625 428.402344 206.15625 428.402344 201.898438 C 428.402344 197.640625 434.789062 197.640625 434.789062 201.898438 "/>
<path style=" stroke:none;fill-rule:nonzero;fill:rgb(100%,84.3%,0%);fill-opacity:1;" d="M 62.507812 456.714844 C 62.507812 460.972656 56.121094 460.972656 56.121094 456.714844 C 56.121094 452.453125 62.507812 452.453125 62.507812 456.714844 "/>
<path style=" stroke:none;fill-rule:nonzero;fill:rgb(100%,84.3%,0%);fill-opacity:1;" d="M 88.671875 49.054688 C 88.671875 53.3125 82.285156 53.3125 82.285156 49.054688 C 82.285156 44.796875 88.671875 44.796875 88.671875 49.054688 "/>
<path style=" stroke:none;fill-rule:nonzero;fill:rgb(100%,84.3%,0%);fill-opacity:1;" d="M 97.210938 49.054688 C 97.210938 53.3125 90.824219 53.3125 90.824219 49.054688 C 90.824219 44.796875 97.210938 44.796875 97.210938 49.054688 "/>
<path style=" stroke:none;fill-rule:nonzero;fill:rgb(100%,84.3%,0%);fill-opacity:1;" d="M 408.0625 454.691406 C 408.0625 458.949219 401.671875 458.949219 401.671875 454.691406 C 401.671875 450.433594 408.0625 450.433594 408.0625 454.691406 "/>
<path style=" stroke:none;fill-rule:nonzero;fill:rgb(100%,84.3%,0%);fill-opacity:1;" d="M 50.203125 94.175781 C 50.203125 98.433594 43.816406 98.433594 43.816406 94.175781 C 43.816406 89.917969 50.203125 89.917969 50.203125 94.175781 "/>
<path style=" stroke:none;fill-rule:nonzero;fill:rgb(100%,84.3%,0%);fill-opacity:1;" d="M 392.363281 54.808594 C 392.363281 59.066406 385.976562 59.066406 385.976562 54.808594 C 385.976562 50.550781 392.363281 50.550781 392.363281 54.808594 "/>
<path style=" stroke:none;fill-rule:nonzero;fill:rgb(100%,84.3%,0%);fill-opacity:1;" d="M 50.203125 49.054688 C 50.203125 53.3125 43.816406 53.3125 43.816406 49.054688 C 43.816406 44.796875 50.203125 44.796875 50.203125 49.054688 "/>
<path style=" stroke:none;fill-rule:nonzero;fill:rgb(100%,84.3%,0%);fill-opacity:1;" d="M 106.863281 49.054688 C 106.863281 53.3125 100.472656 53.3125 100.472656 49.054688 C 100.472656 44.796875 106.863281 44.796875 106.863281 49.054688 "/>
<path style=" stroke:none;fill-rule:nonzero;fill:rgb(100%,84.3%,0%);fill-opacity:1;" d="M 315.550781 462.664062 C 315.550781 466.925781 309.164062 466.925781 309.164062 462.664062 C 309.164062 458.40625 315.550781 458.40625 315.550781 462.664062 "/>
<path style=" stroke:none;fill-rule:nonzero;fill:rgb(100%,84.3%,0%);fill-opacity:1;" d="M 372.269531 59.824219 C 372.269531 64.082031 365.882812 64.082031 365.882812 59.824219 C 365.882812 55.566406 372.269531 55.566406 372.269531 59.824219 "/>
<path style=" stroke:none;fill-rule:nonzero;fill:rgb(100%,84.3%,0%);fill-opacity:1;" d="M 437.402344 195.113281 C 437.402344 199.371094 431.011719 199.371094 431.011719 195.113281 C 431.011719 190.855469 437.402344 190.855469 437.402344 195.113281 "/>
<path style=" stroke:none;fill-rule:nonzero;fill:rgb(100%,84.3%,0%);fill-opacity:1;" d="M 88.6875 462.945312 C 88.6875 467.203125 82.300781 467.203125 82.300781 462.945312 C 82.300781 458.6875 88.6875 458.6875 88.6875 462.945312 "/>
<path style=" stroke:none;fill-rule:nonzero;fill:rgb(100%,84.3%,0%);fill-opacity:1;" d="M 96.164062 462.945312 C 96.164062 467.203125 89.777344 467.203125 89.777344 462.945312 C 89.777344 458.6875 96.164062 458.6875 96.164062 462.945312 "/>
<path style=" stroke:none;fill-rule:nonzero;fill:rgb(100%,84.3%,0%);fill-opacity:1;" d="M 269.042969 459.46875 C 269.042969 463.726562 262.65625 463.726562 262.65625 459.46875 C 262.65625 455.207031 269.042969 455.207031 269.042969 459.46875 "/>
<path style=" stroke:none;fill-rule:nonzero;fill:rgb(100%,84.3%,0%);fill-opacity:1;" d="M 337.621094 461.699219 C 337.621094 465.957031 331.234375 465.957031 331.234375 461.699219 C 331.234375 457.441406 337.621094 457.441406 337.621094 461.699219 "/>
<path style=" stroke:none;fill-rule:nonzero;fill:rgb(100%,84.3%,0%);fill-opacity:1;" d="M 443.65625 425.480469 C 443.65625 429.738281 437.269531 429.738281 437.269531 425.480469 C 437.269531 421.222656 443.65625 421.222656 443.65625 425.480469 "/>
<path style=" stroke:none;fill-rule:nonzero;fill:rgb(100%,84.3%,0%);fill-opacity:1;" d="M 103.316406 462.945312 C 103.316406 467.203125 96.929688 467.203125 96.929688 462.945312 C 96.929688 458.6875 103.316406 458.6875 103.316406 462.945312 "/>
<path style=" stroke:none;fill-rule:nonzero;fill:rgb(100%,84.3%,0%);fill-opacity:1;" d="M 148.195312 49.058594 C 148.195312 53.316406 141.808594 53.316406 141.808594 49.058594 C 141.808594 44.800781 148.195312 44.800781 148.195312 49.058594 "/>
<path style=" stroke:none;fill-rule:nonzero;fill:rgb(100%,84.3%,0%);fill-opacity:1;" d="M 118.925781 49.058594 C 118.925781 53.316406 112.539062 53.316406 112.539062 49.058594 C 112.539062 44.800781 118.925781 44.800781 118.925781 49.058594 "/>
<path style=" stroke:none;fill-rule:nonzero;fill:rgb(100%,84.3%,0%);fill-opacity:1;" d="M 110.769531 462.945312 C 110.769531 467.203125 104.382812 467.203125 104.382812 462.945312 C 104.382812 458.6875 110.769531 458.6875 110.769531 462.945312 "/>
<path style=" stroke:none;fill-rule:nonzero;fill:rgb(100%,84.3%,0%);fill-opacity:1;" d="M 443.320312 96.53125 C 443.320312 100.789062 436.933594 100.789062 436.933594 96.53125 C 436.933594 92.273438 443.320312 92.273438 443.320312 96.53125 "/>
<path style=" stroke:none;fill-rule:nonzero;fill:rgb(100%,84.3%,0%);fill-opacity:1;" d="M 443.65625 104.902344 C 443.65625 109.160156 437.269531 109.160156 437.269531 104.902344 C 437.269531 100.644531 443.65625 100.644531 443.65625 104.902344 "/>
<path style=" stroke:none;fill-rule:nonzero;fill:rgb(100%,84.3%,0%);fill-opacity:1;" d="M 132.6875 49.054688 C 132.6875 53.3125 126.296875 53.3125 126.296875 49.054688 C 126.296875 44.796875 132.6875 44.796875 132.6875 49.054688 "/>
<path style=" stroke:none;fill-rule:nonzero;fill:rgb(100%,84.3%,0%);fill-opacity:1;" d="M 78.179688 457.289062 C 78.179688 461.546875 71.792969 461.546875 71.792969 457.289062 C 71.792969 453.03125 78.179688 453.03125 78.179688 457.289062 "/>
<path style=" stroke:none;fill-rule:nonzero;fill:rgb(100%,84.3%,0%);fill-opacity:1;" d="M 245.773438 462.832031 C 245.773438 467.089844 239.386719 467.089844 239.386719 462.832031 C 239.386719 458.574219 245.773438 458.574219 245.773438 462.832031 "/>
<path style=" stroke:none;fill-rule:nonzero;fill:rgb(100%,84.3%,0%);fill-opacity:1;" d="M 443.65625 79.496094 C 443.65625 83.753906 437.269531 83.753906 437.269531 79.496094 C 437.269531 75.238281 443.65625 75.238281 443.65625 79.496094 "/>
<path style=" stroke:none;fill-rule:nonzero;fill:rgb(100%,84.3%,0%);fill-opacity:1;" d="M 156.863281 49.121094 C 156.863281 53.378906 150.476562 53.378906 150.476562 49.121094 C 150.476562 44.863281 156.863281 44.863281 156.863281 49.121094 "/>
<path style=" stroke:none;fill-rule:nonzero;fill:rgb(100%,84.3%,0%);fill-opacity:1;" d="M 120.910156 462.945312 C 120.910156 467.203125 114.523438 467.203125 114.523438 462.945312 C 114.523438 458.6875 120.910156 458.6875 120.910156 462.945312 "/>
<path style=" stroke:none;fill-rule:nonzero;fill:rgb(100%,84.3%,0%);fill-opacity:1;" d="M 439.226562 399.441406 C 439.226562 403.699219 432.839844 403.699219 432.839844 399.441406 C 432.839844 395.183594 439.226562 395.183594 439.226562 399.441406 "/>
<path style=" stroke:none;fill-rule:nonzero;fill:rgb(100%,84.3%,0%);fill-opacity:1;" d="M 443.65625 448.011719 C 443.65625 452.269531 437.269531 452.269531 437.269531 448.011719 C 437.269531 443.753906 443.65625 443.753906 443.65625 448.011719 "/>
<path style=" stroke:none;fill-rule:nonzero;fill:rgb(100%,84.3%,0%);fill-opacity:1;" d="M 163.578125 49.054688 C 163.578125 53.3125 157.191406 53.3125 157.191406 49.054688 C 157.191406 44.796875 163.578125 44.796875 163.578125 49.054688 "/>
<path style=" stroke:none;fill-rule:nonzero;fill:rgb(100%,84.3%,0%);fill-opacity:1;" d="M 439.515625 152.007812 C 439.515625 156.265625 433.128906 156.265625 433.128906 152.007812 C 433.128906 147.75 439.515625 147.75 439.515625 152.007812 "/>
<path style=" stroke:none;fill-rule:nonzero;fill:rgb(100%,84.3%,0%);fill-opacity:1;" d="M 443.324219 165.410156 C 443.324219 169.667969 436.9375 169.667969 436.9375 165.410156 C 436.9375 161.152344 443.324219 161.152344 443.324219 165.410156 "/>
<path style=" stroke:none;fill-rule:nonzero;fill:rgb(100%,84.3%,0%);fill-opacity:1;" d="M 439.59375 85.074219 C 439.59375 89.332031 433.207031 89.332031 433.207031 85.074219 C 433.207031 80.816406 439.59375 80.816406 439.59375 85.074219 "/>
<path style=" stroke:none;fill-rule:nonzero;fill:rgb(100%,84.3%,0%);fill-opacity:1;" d="M 75.214844 462.945312 C 75.214844 467.203125 68.828125 467.203125 68.828125 462.945312 C 68.828125 458.6875 75.214844 458.6875 75.214844 462.945312 "/>
<path style=" stroke:none;fill-rule:nonzero;fill:rgb(100%,84.3%,0%);fill-opacity:1;" d="M 129.503906 462.945312 C 129.503906 467.203125 123.117188 467.203125 123.117188 462.945312 C 123.117188 458.6875 129.503906 458.6875 129.503906 462.945312 "/>
<path style=" stroke:none;fill-rule:nonzero;fill:rgb(100%,84.3%,0%);fill-opacity:1;" d="M 170.371094 49.503906 C 170.371094 53.761719 163.984375 53.761719 163.984375 49.503906 C 163.984375 45.246094 170.371094 45.246094 170.371094 49.503906 "/>
<path style=" stroke:none;fill-rule:nonzero;fill:rgb(100%,84.3%,0%);fill-opacity:1;" d="M 443.65625 462.601562 C 443.65625 466.859375 437.269531 466.859375 437.269531 462.601562 C 437.269531 458.34375 443.65625 458.34375 443.65625 462.601562 "/>
<path style=" stroke:none;fill-rule:nonzero;fill:rgb(100%,84.3%,0%);fill-opacity:1;" d="M 443.65625 179.058594 C 443.65625 183.316406 437.269531 183.316406 437.269531 179.058594 C 437.269531 174.800781 443.65625 174.800781 443.65625 179.058594 "/>
<path style=" stroke:none;fill-rule:nonzero;fill:rgb(100%,84.3%,0%);fill-opacity:1;" d="M 442.425781 276.214844 C 442.425781 280.472656 436.039062 280.472656 436.039062 276.214844 C 436.039062 271.957031 442.425781 271.957031 442.425781 276.214844 "/>
<path style=" stroke:none;fill-rule:nonzero;fill:rgb(100%,84.3%,0%);fill-opacity:1;" d="M 415.535156 77.738281 C 415.535156 82 409.144531 82 409.144531 77.738281 C 409.144531 73.480469 415.535156 73.480469 415.535156 77.738281 "/>
<path style=" stroke:none;fill-rule:nonzero;fill:rgb(100%,84.3%,0%);fill-opacity:1;" d="M 81.628906 451.910156 C 81.628906 456.167969 75.242188 456.167969 75.242188 451.910156 C 75.242188 447.652344 81.628906 447.652344 81.628906 451.910156 "/>
<path style=" stroke:none;fill-rule:nonzero;fill:rgb(100%,84.3%,0%);fill-opacity:1;" d="M 179.011719 49.054688 C 179.011719 53.3125 172.625 53.3125 172.625 49.054688 C 172.625 44.796875 179.011719 44.796875 179.011719 49.054688 "/>
<path style=" stroke:none;fill-rule:nonzero;fill:rgb(100%,84.3%,0%);fill-opacity:1;" d="M 439.28125 412.496094 C 439.28125 416.753906 432.894531 416.753906 432.894531 412.496094 C 432.894531 408.238281 439.28125 408.238281 439.28125 412.496094 "/>
<path style=" stroke:none;fill-rule:nonzero;fill:rgb(100%,84.3%,0%);fill-opacity:1;" d="M 443.65625 131.980469 C 443.65625 136.238281 437.269531 136.238281 437.269531 131.980469 C 437.269531 127.722656 443.65625 127.722656 443.65625 131.980469 "/>
<path style=" stroke:none;fill-rule:nonzero;fill:rgb(100%,84.3%,0%);fill-opacity:1;" d="M 50.203125 125.871094 C 50.203125 130.132812 43.816406 130.132812 43.816406 125.871094 C 43.816406 121.613281 50.203125 121.613281 50.203125 125.871094 "/>
<path style=" stroke:none;fill-rule:nonzero;fill:rgb(100%,84.3%,0%);fill-opacity:1;" d="M 356.1875 460.609375 C 356.1875 464.867188 349.796875 464.867188 349.796875 460.609375 C 349.796875 456.351562 356.1875 456.351562 356.1875 460.609375 "/>
<path style=" stroke:none;fill-rule:nonzero;fill:rgb(100%,84.3%,0%);fill-opacity:1;" d="M 79.636719 283.78125 C 79.636719 288.042969 73.25 288.042969 73.25 283.78125 C 73.25 279.523438 79.636719 279.523438 79.636719 283.78125 "/>
<path style=" stroke:none;fill-rule:nonzero;fill:rgb(100%,84.3%,0%);fill-opacity:1;" d="M 441.191406 437.511719 C 441.191406 441.769531 434.800781 441.769531 434.800781 437.511719 C 434.800781 433.253906 441.191406 433.253906 441.191406 437.511719 "/>
<path style=" stroke:none;fill-rule:nonzero;fill:rgb(100%,84.3%,0%);fill-opacity:1;" d="M 438.972656 458.257812 C 438.972656 462.515625 432.585938 462.515625 432.585938 458.257812 C 432.585938 454 438.972656 454 438.972656 458.257812 "/>
<path style=" stroke:none;fill-rule:nonzero;fill:rgb(100%,84.3%,0%);fill-opacity:1;" d="M 285.183594 445.316406 C 285.183594 449.574219 278.796875 449.574219 278.796875 445.316406 C 278.796875 441.058594 285.183594 441.058594 285.183594 445.316406 "/>
<path style=" stroke:none;fill-rule:nonzero;fill:rgb(100%,84.3%,0%);fill-opacity:1;" d="M 443.65625 115.546875 C 443.65625 119.804688 437.269531 119.804688 437.269531 115.546875 C 437.269531 111.289062 443.65625 111.289062 443.65625 115.546875 "/>
<path style=" stroke:none;fill-rule:nonzero;fill:rgb(100%,84.3%,0%);fill-opacity:1;" d="M 443.65625 287.863281 C 443.65625 292.121094 437.269531 292.121094 437.269531 287.863281 C 437.269531 283.605469 443.65625 283.605469 443.65625 287.863281 "/>
<path style=" stroke:none;fill-rule:nonzero;fill:rgb(100%,84.3%,0%);fill-opacity:1;" d="M 343.921875 462.945312 C 343.921875 467.203125 337.535156 467.203125 337.535156 462.945312 C 337.535156 458.6875 343.921875 458.6875 343.921875 462.945312 "/>
<path style=" stroke:none;fill-rule:nonzero;fill:rgb(100%,84.3%,0%);fill-opacity:1;" d="M 443.65625 267.59375 C 443.65625 271.851562 437.269531 271.851562 437.269531 267.59375 C 437.269531 263.335938 443.65625 263.335938 443.65625 267.59375 "/>
<path style=" stroke:none;fill-rule:nonzero;fill:rgb(100%,84.3%,0%);fill-opacity:1;" d="M 50.246094 114.261719 C 50.246094 118.519531 43.859375 118.519531 43.859375 114.261719 C 43.859375 110.003906 50.246094 110.003906 50.246094 114.261719 "/>
<path style=" stroke:none;fill-rule:nonzero;fill:rgb(100%,84.3%,0%);fill-opacity:1;" d="M 437.339844 424.53125 C 437.339844 428.789062 430.953125 428.789062 430.953125 424.53125 C 430.953125 420.273438 437.339844 420.273438 437.339844 424.53125 "/>
<path style=" stroke:none;fill-rule:nonzero;fill:rgb(100%,84.3%,0%);fill-opacity:1;" d="M 437.988281 220.460938 C 437.988281 224.71875 431.601562 224.71875 431.601562 220.460938 C 431.601562 216.199219 437.988281 216.199219 437.988281 220.460938 "/>
<path style=" stroke:none;fill-rule:nonzero;fill:rgb(100%,84.3%,0%);fill-opacity:1;" d="M 443.65625 417.148438 C 443.65625 421.40625 437.269531 421.40625 437.269531 417.148438 C 437.269531 412.890625 443.65625 412.890625 443.65625 417.148438 "/>
<path style=" stroke:none;fill-rule:nonzero;fill:rgb(100%,84.3%,0%);fill-opacity:1;" d="M 50.203125 134.628906 C 50.203125 138.886719 43.816406 138.886719 43.816406 134.628906 C 43.816406 130.371094 50.203125 130.371094 50.203125 134.628906 "/>
<path style=" stroke:none;fill-rule:nonzero;fill:rgb(100%,84.3%,0%);fill-opacity:1;" d="M 436.050781 447.714844 C 436.050781 451.972656 429.664062 451.972656 429.664062 447.714844 C 429.664062 443.457031 436.050781 443.457031 436.050781 447.714844 "/>
<path style=" stroke:none;fill-rule:nonzero;fill:rgb(100%,84.3%,0%);fill-opacity:1;" d="M 443.65625 200.792969 C 443.65625 205.050781 437.269531 205.050781 437.269531 200.792969 C 437.269531 196.535156 443.65625 196.535156 443.65625 200.792969 "/>
<path style=" stroke:none;fill-rule:nonzero;fill:rgb(100%,84.3%,0%);fill-opacity:1;" d="M 192.878906 49.054688 C 192.878906 53.3125 186.492188 53.3125 186.492188 49.054688 C 186.492188 44.796875 192.878906 44.796875 192.878906 49.054688 "/>
<path style=" stroke:none;fill-rule:nonzero;fill:rgb(100%,84.3%,0%);fill-opacity:1;" d="M 443.65625 300.636719 C 443.65625 304.894531 437.269531 304.894531 437.269531 300.636719 C 437.269531 296.378906 443.65625 296.378906 443.65625 300.636719 "/>
<path style=" stroke:none;fill-rule:nonzero;fill:rgb(100%,84.3%,0%);fill-opacity:1;" d="M 443.65625 294.25 C 443.65625 298.507812 437.269531 298.507812 437.269531 294.25 C 437.269531 289.992188 443.65625 289.992188 443.65625 294.25 "/>
<path style=" stroke:none;fill-rule:nonzero;fill:rgb(100%,84.3%,0%);fill-opacity:1;" d="M 50.203125 236.191406 C 50.203125 240.449219 43.816406 240.449219 43.816406 236.191406 C 43.816406 231.933594 50.203125 231.933594 50.203125 236.191406 "/>
<path style=" stroke:none;fill-rule:nonzero;fill:rgb(100%,84.3%,0%);fill-opacity:1;" d="M 56.582031 454.324219 C 56.582031 458.582031 50.195312 458.582031 50.195312 454.324219 C 50.195312 450.066406 56.582031 450.066406 56.582031 454.324219 "/>
<path style=" stroke:none;fill-rule:nonzero;fill:rgb(100%,84.3%,0%);fill-opacity:1;" d="M 50.203125 104.5625 C 50.203125 108.820312 43.816406 108.820312 43.816406 104.5625 C 43.816406 100.304688 50.203125 100.304688 50.203125 104.5625 "/>
<path style=" stroke:none;fill-rule:nonzero;fill:rgb(100%,84.3%,0%);fill-opacity:1;" d="M 50.203125 347.296875 C 50.203125 351.554688 43.816406 351.554688 43.816406 347.296875 C 43.816406 343.039062 50.203125 343.039062 50.203125 347.296875 "/>
<path style=" stroke:none;fill-rule:nonzero;fill:rgb(100%,84.3%,0%);fill-opacity:1;" d="M 438.714844 389.734375 C 438.714844 393.996094 432.328125 393.996094 432.328125 389.734375 C 432.328125 385.476562 438.714844 385.476562 438.714844 389.734375 "/>
<path style=" stroke:none;fill-rule:nonzero;fill:rgb(100%,84.3%,0%);fill-opacity:1;" d="M 50.203125 271.828125 C 50.203125 276.085938 43.816406 276.085938 43.816406 271.828125 C 43.816406 267.570312 50.203125 267.570312 50.203125 271.828125 "/>
<path style=" stroke:none;fill-rule:nonzero;fill:rgb(100%,84.3%,0%);fill-opacity:1;" d="M 386.863281 49.054688 C 386.863281 53.3125 380.476562 53.3125 380.476562 49.054688 C 380.476562 44.796875 386.863281 44.796875 386.863281 49.054688 "/>
<path style=" stroke:none;fill-rule:nonzero;fill:rgb(100%,84.3%,0%);fill-opacity:1;" d="M 65.410156 451.023438 C 65.410156 455.28125 59.023438 455.28125 59.023438 451.023438 C 59.023438 446.765625 65.410156 446.765625 65.410156 451.023438 "/>
<path style=" stroke:none;fill-rule:nonzero;fill:rgb(100%,84.3%,0%);fill-opacity:1;" d="M 89.726562 451.910156 C 89.726562 456.167969 83.339844 456.167969 83.339844 451.910156 C 83.339844 447.652344 89.726562 447.652344 89.726562 451.910156 "/>
<path style=" stroke:none;fill-rule:nonzero;fill:rgb(100%,84.3%,0%);fill-opacity:1;" d="M 349.652344 460.121094 C 349.652344 464.378906 343.265625 464.378906 343.265625 460.121094 C 343.265625 455.863281 349.652344 455.863281 349.652344 460.121094 "/>
<path style=" stroke:none;fill-rule:nonzero;fill:rgb(100%,84.3%,0%);fill-opacity:1;" d="M 224.914062 456.558594 C 224.914062 460.816406 218.527344 460.816406 218.527344 456.558594 C 218.527344 452.300781 224.914062 452.300781 224.914062 456.558594 "/>
<path style=" stroke:none;fill-rule:nonzero;fill:rgb(100%,84.3%,0%);fill-opacity:1;" d="M 50.203125 263.113281 C 50.203125 267.371094 43.816406 267.371094 43.816406 263.113281 C 43.816406 258.855469 50.203125 258.855469 50.203125 263.113281 "/>
<path style=" stroke:none;fill-rule:nonzero;fill:rgb(100%,84.3%,0%);fill-opacity:1;" d="M 443.65625 365.101562 C 443.65625 369.359375 437.269531 369.359375 437.269531 365.101562 C 437.269531 360.84375 443.65625 360.84375 443.65625 365.101562 "/>
<path style=" stroke:none;fill-rule:nonzero;fill:rgb(100%,84.3%,0%);fill-opacity:1;" d="M 134.769531 55.746094 C 134.769531 60.003906 128.382812 60.003906 128.382812 55.746094 C 128.382812 51.488281 134.769531 51.488281 134.769531 55.746094 "/>
<path style=" stroke:none;fill-rule:nonzero;fill:rgb(100%,84.3%,0%);fill-opacity:1;" d="M 421.21875 452.390625 C 421.21875 456.648438 414.832031 456.648438 414.832031 452.390625 C 414.832031 448.132812 421.21875 448.132812 421.21875 452.390625 "/>
<path style=" stroke:none;fill-rule:nonzero;fill:rgb(100%,84.3%,0%);fill-opacity:1;" d="M 443.65625 307.023438 C 443.65625 311.28125 437.269531 311.28125 437.269531 307.023438 C 437.269531 302.765625 443.65625 302.765625 443.65625 307.023438 "/>
<path style=" stroke:none;fill-rule:nonzero;fill:rgb(100%,84.3%,0%);fill-opacity:1;" d="M 138.488281 462.945312 C 138.488281 467.203125 132.097656 467.203125 132.097656 462.945312 C 132.097656 458.6875 138.488281 458.6875 138.488281 462.945312 "/>
<path style=" stroke:none;fill-rule:nonzero;fill:rgb(100%,84.3%,0%);fill-opacity:1;" d="M 204.238281 49.09375 C 204.238281 53.351562 197.851562 53.351562 197.851562 49.09375 C 197.851562 44.832031 204.238281 44.832031 204.238281 49.09375 "/>
<path style=" stroke:none;fill-rule:nonzero;fill:rgb(100%,84.3%,0%);fill-opacity:1;" d="M 50.851562 252.363281 C 50.851562 256.621094 44.464844 256.621094 44.464844 252.363281 C 44.464844 248.105469 50.851562 248.105469 50.851562 252.363281 "/>
<path style=" stroke:none;fill-rule:nonzero;fill:rgb(100%,84.3%,0%);fill-opacity:1;" d="M 418.835938 182.011719 C 418.835938 186.269531 412.449219 186.269531 412.449219 182.011719 C 412.449219 177.753906 418.835938 177.753906 418.835938 182.011719 "/>
<path style=" stroke:none;fill-rule:nonzero;fill:rgb(100%,84.3%,0%);fill-opacity:1;" d="M 50.355469 243.976562 C 50.355469 248.234375 43.96875 248.234375 43.96875 243.976562 C 43.96875 239.71875 50.355469 239.71875 50.355469 243.976562 "/>
<path style=" stroke:none;fill-rule:nonzero;fill:rgb(100%,84.3%,0%);fill-opacity:1;" d="M 443.65625 313.410156 C 443.65625 317.667969 437.269531 317.667969 437.269531 313.410156 C 437.269531 309.152344 443.65625 309.152344 443.65625 313.410156 "/>
<path style=" stroke:none;fill-rule:nonzero;fill:rgb(100%,84.3%,0%);fill-opacity:1;" d="M 153.964844 462.945312 C 153.964844 467.203125 147.578125 467.203125 147.578125 462.945312 C 147.578125 458.6875 153.964844 458.6875 153.964844 462.945312 "/>
<path style=" stroke:none;fill-rule:nonzero;fill:rgb(100%,84.3%,0%);fill-opacity:1;" d="M 443.65625 256.6875 C 443.65625 260.945312 437.269531 260.945312 437.269531 256.6875 C 437.269531 252.429688 443.65625 252.429688 443.65625 256.6875 "/>
<path style=" stroke:none;fill-rule:nonzero;fill:rgb(100%,84.3%,0%);fill-opacity:1;" d="M 443.65625 147.144531 C 443.65625 151.402344 437.269531 151.402344 437.269531 147.144531 C 437.269531 142.886719 443.65625 142.886719 443.65625 147.144531 "/>
<path style=" stroke:none;fill-rule:nonzero;fill:rgb(100%,84.3%,0%);fill-opacity:1;" d="M 443.65625 319.796875 C 443.65625 324.054688 437.269531 324.054688 437.269531 319.796875 C 437.269531 315.539062 443.65625 315.539062 443.65625 319.796875 "/>
<path style=" stroke:none;fill-rule:nonzero;fill:rgb(100%,84.3%,0%);fill-opacity:1;" d="M 436.445312 187.285156 C 436.445312 191.542969 430.058594 191.542969 430.058594 187.285156 C 430.058594 183.027344 436.445312 183.027344 436.445312 187.285156 "/>
<path style=" stroke:none;fill-rule:nonzero;fill:rgb(100%,84.3%,0%);fill-opacity:1;" d="M 443.65625 326.183594 C 443.65625 330.441406 437.269531 330.441406 437.269531 326.183594 C 437.269531 321.925781 443.65625 321.925781 443.65625 326.183594 "/>
<path style=" stroke:none;fill-rule:nonzero;fill:rgb(100%,84.3%,0%);fill-opacity:1;" d="M 238.984375 462.945312 C 238.984375 467.203125 232.59375 467.203125 232.59375 462.945312 C 232.59375 458.6875 238.984375 458.6875 238.984375 462.945312 "/>
<path style=" stroke:none;fill-rule:nonzero;fill:rgb(100%,84.3%,0%);fill-opacity:1;" d="M 56.667969 209.941406 C 56.667969 214.199219 50.28125 214.199219 50.28125 209.941406 C 50.28125 205.683594 56.667969 205.683594 56.667969 209.941406 "/>
<path style=" stroke:none;fill-rule:nonzero;fill:rgb(100%,84.3%,0%);fill-opacity:1;" d="M 50.25 229.34375 C 50.25 233.601562 43.863281 233.601562 43.863281 229.34375 C 43.863281 225.085938 50.25 225.085938 50.25 229.34375 "/>
<path style=" stroke:none;fill-rule:nonzero;fill:rgb(100%,84.3%,0%);fill-opacity:1;" d="M 50.203125 219.09375 C 50.203125 223.351562 43.816406 223.351562 43.816406 219.09375 C 43.816406 214.832031 50.203125 214.832031 50.203125 219.09375 "/>
<path style=" stroke:none;fill-rule:nonzero;fill:rgb(100%,84.3%,0%);fill-opacity:1;" d="M 365.402344 462.265625 C 365.402344 466.523438 359.015625 466.523438 359.015625 462.265625 C 359.015625 458.003906 365.402344 458.003906 365.402344 462.265625 "/>
<path style=" stroke:none;fill-rule:nonzero;fill:rgb(100%,84.3%,0%);fill-opacity:1;" d="M 57.492188 250.144531 C 57.492188 254.402344 51.101562 254.402344 51.101562 250.144531 C 51.101562 245.886719 57.492188 245.886719 57.492188 250.144531 "/>
<path style=" stroke:none;fill-rule:nonzero;fill:rgb(100%,84.3%,0%);fill-opacity:1;" d="M 144.710938 461.5 C 144.710938 465.757812 138.324219 465.757812 138.324219 461.5 C 138.324219 457.242188 144.710938 457.242188 144.710938 461.5 "/>
<path style=" stroke:none;fill-rule:nonzero;fill:rgb(100%,84.3%,0%);fill-opacity:1;" d="M 443.65625 332.570312 C 443.65625 336.832031 437.269531 336.832031 437.269531 332.570312 C 437.269531 328.3125 443.65625 328.3125 443.65625 332.570312 "/>
<path style=" stroke:none;fill-rule:nonzero;fill:rgb(100%,84.3%,0%);fill-opacity:1;" d="M 50.203125 207.707031 C 50.203125 211.964844 43.816406 211.964844 43.816406 207.707031 C 43.816406 203.449219 50.203125 203.449219 50.203125 207.707031 "/>
<path style=" stroke:none;fill-rule:nonzero;fill:rgb(100%,84.3%,0%);fill-opacity:1;" d="M 54.117188 120.824219 C 54.117188 125.082031 47.730469 125.082031 47.730469 120.824219 C 47.730469 116.566406 54.117188 116.566406 54.117188 120.824219 "/>
<path style=" stroke:none;fill-rule:nonzero;fill:rgb(100%,84.3%,0%);fill-opacity:1;" d="M 433.261719 177.601562 C 433.261719 181.859375 426.875 181.859375 426.875 177.601562 C 426.875 173.34375 433.261719 173.34375 433.261719 177.601562 "/>
<path style=" stroke:none;fill-rule:nonzero;fill:rgb(100%,84.3%,0%);fill-opacity:1;" d="M 212.714844 49.054688 C 212.714844 53.3125 206.328125 53.3125 206.328125 49.054688 C 206.328125 44.796875 212.714844 44.796875 212.714844 49.054688 "/>
<path style=" stroke:none;fill-rule:nonzero;fill:rgb(100%,84.3%,0%);fill-opacity:1;" d="M 443.65625 240.648438 C 443.65625 244.90625 437.269531 244.90625 437.269531 240.648438 C 437.269531 236.390625 443.65625 236.390625 443.65625 240.648438 "/>
<path style=" stroke:none;fill-rule:nonzero;fill:rgb(100%,84.3%,0%);fill-opacity:1;" d="M 371.699219 461.1875 C 371.699219 465.445312 365.3125 465.445312 365.3125 461.1875 C 365.3125 456.929688 371.699219 456.929688 371.699219 461.1875 "/>
<path style=" stroke:none;fill-rule:nonzero;fill:rgb(100%,84.3%,0%);fill-opacity:1;" d="M 68.5625 108.859375 C 68.5625 113.117188 62.171875 113.117188 62.171875 108.859375 C 62.171875 104.601562 68.5625 104.601562 68.5625 108.859375 "/>
<path style=" stroke:none;fill-rule:nonzero;fill:rgb(100%,84.3%,0%);fill-opacity:1;" d="M 410.515625 174.832031 C 410.515625 179.089844 404.128906 179.089844 404.128906 174.832031 C 404.128906 170.574219 410.515625 170.574219 410.515625 174.832031 "/>
<path style=" stroke:none;fill-rule:nonzero;fill:rgb(100%,84.3%,0%);fill-opacity:1;" d="M 124.019531 334.253906 C 124.019531 338.511719 117.632812 338.511719 117.632812 334.253906 C 117.632812 329.996094 124.019531 329.996094 124.019531 334.253906 "/>
<path style=" stroke:none;fill-rule:nonzero;fill:rgb(100%,84.3%,0%);fill-opacity:1;" d="M 51.050781 193.171875 C 51.050781 197.429688 44.664062 197.429688 44.664062 193.171875 C 44.664062 188.910156 51.050781 188.910156 51.050781 193.171875 "/>
<path style=" stroke:none;fill-rule:nonzero;fill:rgb(100%,84.3%,0%);fill-opacity:1;" d="M 443.65625 339.207031 C 443.65625 343.464844 437.269531 343.464844 437.269531 339.207031 C 437.269531 334.949219 443.65625 334.949219 443.65625 339.207031 "/>
<path style=" stroke:none;fill-rule:nonzero;fill:rgb(100%,84.3%,0%);fill-opacity:1;" d="M 306.121094 53.925781 C 306.121094 58.183594 299.734375 58.183594 299.734375 53.925781 C 299.734375 49.667969 306.121094 49.667969 306.121094 53.925781 "/>
<path style=" stroke:none;fill-rule:nonzero;fill:rgb(100%,84.3%,0%);fill-opacity:1;" d="M 299.761719 453.621094 C 299.761719 457.878906 293.375 457.878906 293.375 453.621094 C 293.375 449.363281 299.761719 449.363281 299.761719 453.621094 "/>
<path style=" stroke:none;fill-rule:nonzero;fill:rgb(100%,84.3%,0%);fill-opacity:1;" d="M 223.019531 49.054688 C 223.019531 53.3125 216.628906 53.3125 216.628906 49.054688 C 216.628906 44.796875 223.019531 44.796875 223.019531 49.054688 "/>
<path style=" stroke:none;fill-rule:nonzero;fill:rgb(100%,84.3%,0%);fill-opacity:1;" d="M 93.273438 457.222656 C 93.273438 461.480469 86.886719 461.480469 86.886719 457.222656 C 86.886719 452.964844 93.273438 452.964844 93.273438 457.222656 "/>
<path style=" stroke:none;fill-rule:nonzero;fill:rgb(100%,84.3%,0%);fill-opacity:1;" d="M 331.292969 460.832031 C 331.292969 465.089844 324.90625 465.089844 324.90625 460.832031 C 324.90625 456.574219 331.292969 456.574219 331.292969 460.832031 "/>
<path style=" stroke:none;fill-rule:nonzero;fill:rgb(100%,84.3%,0%);fill-opacity:1;" d="M 443.65625 345.59375 C 443.65625 349.851562 437.269531 349.851562 437.269531 345.59375 C 437.269531 341.335938 443.65625 341.335938 443.65625 345.59375 "/>
<path style=" stroke:none;fill-rule:nonzero;fill:rgb(100%,84.3%,0%);fill-opacity:1;" d="M 52.296875 88.140625 C 52.296875 92.398438 45.910156 92.398438 45.910156 88.140625 C 45.910156 83.882812 52.296875 83.882812 52.296875 88.140625 "/>
<path style=" stroke:none;fill-rule:nonzero;fill:rgb(100%,84.3%,0%);fill-opacity:1;" d="M 443.65625 351.980469 C 443.65625 356.238281 437.269531 356.238281 437.269531 351.980469 C 437.269531 347.722656 443.65625 347.722656 443.65625 351.980469 "/>
<path style=" stroke:none;fill-rule:nonzero;fill:rgb(100%,84.3%,0%);fill-opacity:1;" d="M 160.910156 462.945312 C 160.910156 467.203125 154.523438 467.203125 154.523438 462.945312 C 154.523438 458.6875 160.910156 458.6875 160.910156 462.945312 "/>
<path style=" stroke:none;fill-rule:nonzero;fill:rgb(100%,84.3%,0%);fill-opacity:1;" d="M 443.65625 157.074219 C 443.65625 161.335938 437.269531 161.335938 437.269531 157.074219 C 437.269531 152.816406 443.65625 152.816406 443.65625 157.074219 "/>
<path style=" stroke:none;fill-rule:nonzero;fill:rgb(100%,84.3%,0%);fill-opacity:1;" d="M 101.222656 456.910156 C 101.222656 461.167969 94.835938 461.167969 94.835938 456.910156 C 94.835938 452.652344 101.222656 452.652344 101.222656 456.910156 "/>
<path style=" stroke:none;fill-rule:nonzero;fill:rgb(100%,84.3%,0%);fill-opacity:1;" d="M 387.386719 461.796875 C 387.386719 466.054688 381 466.054688 381 461.796875 C 381 457.539062 387.386719 457.539062 387.386719 461.796875 "/>
<path style=" stroke:none;fill-rule:nonzero;fill:rgb(100%,84.3%,0%);fill-opacity:1;" d="M 443.65625 123.96875 C 443.65625 128.226562 437.269531 128.226562 437.269531 123.96875 C 437.269531 119.707031 443.65625 119.707031 443.65625 123.96875 "/>
<path style=" stroke:none;fill-rule:nonzero;fill:rgb(100%,84.3%,0%);fill-opacity:1;" d="M 438.351562 227.722656 C 438.351562 231.980469 431.964844 231.980469 431.964844 227.722656 C 431.964844 223.464844 438.351562 223.464844 438.351562 227.722656 "/>
<path style=" stroke:none;fill-rule:nonzero;fill:rgb(100%,84.3%,0%);fill-opacity:1;" d="M 443.65625 62.265625 C 443.65625 66.523438 437.269531 66.523438 437.269531 62.265625 C 437.269531 58.007812 443.65625 58.007812 443.65625 62.265625 "/>
<path style=" stroke:none;fill-rule:nonzero;fill:rgb(100%,84.3%,0%);fill-opacity:1;" d="M 79.613281 445.851562 C 79.613281 450.109375 73.226562 450.109375 73.226562 445.851562 C 73.226562 441.59375 79.613281 441.59375 79.613281 445.851562 "/>
<path style=" stroke:none;fill-rule:nonzero;fill:rgb(100%,84.3%,0%);fill-opacity:1;" d="M 425.519531 244.355469 C 425.519531 248.613281 419.132812 248.613281 419.132812 244.355469 C 419.132812 240.097656 425.519531 240.097656 425.519531 244.355469 "/>
<path style=" stroke:none;fill-rule:nonzero;fill:rgb(100%,84.3%,0%);fill-opacity:1;" d="M 441.109375 250.832031 C 441.109375 255.089844 434.722656 255.089844 434.722656 250.832031 C 434.722656 246.574219 441.109375 246.574219 441.109375 250.832031 "/>
<path style=" stroke:none;fill-rule:nonzero;fill:rgb(100%,84.3%,0%);fill-opacity:1;" d="M 442.449219 49.054688 C 442.449219 53.3125 436.0625 53.3125 436.0625 49.054688 C 436.0625 44.796875 442.449219 44.796875 442.449219 49.054688 "/>
<path style=" stroke:none;fill-rule:nonzero;fill:rgb(100%,84.3%,0%);fill-opacity:1;" d="M 435.300781 405.242188 C 435.300781 409.5 428.914062 409.5 428.914062 405.242188 C 428.914062 400.984375 435.300781 400.984375 435.300781 405.242188 "/>
<path style=" stroke:none;fill-rule:nonzero;fill:rgb(100%,84.3%,0%);fill-opacity:1;" d="M 51.523438 391.976562 C 51.523438 396.234375 45.136719 396.234375 45.136719 391.976562 C 45.136719 387.71875 51.523438 387.71875 51.523438 391.976562 "/>
<path style=" stroke:none;fill-rule:nonzero;fill:rgb(100%,84.3%,0%);fill-opacity:1;" d="M 412.433594 462.511719 C 412.433594 466.769531 406.046875 466.769531 406.046875 462.511719 C 406.046875 458.253906 412.433594 458.253906 412.433594 462.511719 "/>
<path style=" stroke:none;fill-rule:nonzero;fill:rgb(100%,84.3%,0%);fill-opacity:1;" d="M 190.042969 54.777344 C 190.042969 59.035156 183.65625 59.035156 183.65625 54.777344 C 183.65625 50.519531 190.042969 50.519531 190.042969 54.777344 "/>
<path style=" stroke:none;fill-rule:nonzero;fill:rgb(100%,84.3%,0%);fill-opacity:1;" d="M 70.09375 196.316406 C 70.09375 200.574219 63.707031 200.574219 63.707031 196.316406 C 63.707031 192.058594 70.09375 192.058594 70.09375 196.316406 "/>
<path style=" stroke:none;fill-rule:nonzero;fill:rgb(100%,84.3%,0%);fill-opacity:1;" d="M 157.003906 397.070312 C 157.003906 401.328125 150.617188 401.328125 150.617188 397.070312 C 150.617188 392.8125 157.003906 392.8125 157.003906 397.070312 "/>
<path style=" stroke:none;fill-rule:nonzero;fill:rgb(100%,84.3%,0%);fill-opacity:1;" d="M 443.65625 232.269531 C 443.65625 236.527344 437.269531 236.527344 437.269531 232.269531 C 437.269531 228.011719 443.65625 228.011719 443.65625 232.269531 "/>
<path style=" stroke:none;fill-rule:nonzero;fill:rgb(100%,84.3%,0%);fill-opacity:1;" d="M 122.292969 54.488281 C 122.292969 58.746094 115.90625 58.746094 115.90625 54.488281 C 115.90625 50.230469 122.292969 50.230469 122.292969 54.488281 "/>
<path style=" stroke:none;fill-rule:nonzero;fill:rgb(100%,84.3%,0%);fill-opacity:1;" d="M 340.171875 49.113281 C 340.171875 53.371094 333.785156 53.371094 333.785156 49.113281 C 333.785156 44.855469 340.171875 44.855469 340.171875 49.113281 "/>
<path style=" stroke:none;fill-rule:nonzero;fill:rgb(100%,84.3%,0%);fill-opacity:1;" d="M 323.515625 462.21875 C 323.515625 466.476562 317.128906 466.476562 317.128906 462.21875 C 317.128906 457.960938 323.515625 457.960938 323.515625 462.21875 "/>
<path style=" stroke:none;fill-rule:nonzero;fill:rgb(100%,84.3%,0%);fill-opacity:1;" d="M 50.203125 141.203125 C 50.203125 145.460938 43.816406 145.460938 43.816406 141.203125 C 43.816406 136.945312 50.203125 136.945312 50.203125 141.203125 "/>
<path style=" stroke:none;fill-rule:nonzero;fill:rgb(100%,84.3%,0%);fill-opacity:1;" d="M 443.65625 217.511719 C 443.65625 221.769531 437.269531 221.769531 437.269531 217.511719 C 437.269531 213.253906 443.65625 213.253906 443.65625 217.511719 "/>
<path style=" stroke:none;fill-rule:nonzero;fill:rgb(100%,84.3%,0%);fill-opacity:1;" d="M 55.484375 80 C 55.484375 84.257812 49.097656 84.257812 49.097656 80 C 49.097656 75.742188 55.484375 75.742188 55.484375 80 "/>
<path style=" stroke:none;fill-rule:nonzero;fill:rgb(100%,84.3%,0%);fill-opacity:1;" d="M 171.695312 462.945312 C 171.695312 467.203125 165.308594 467.203125 165.308594 462.945312 C 165.308594 458.6875 171.695312 458.6875 171.695312 462.945312 "/>
<path style=" stroke:none;fill-rule:nonzero;fill:rgb(100%,84.3%,0%);fill-opacity:1;" d="M 443.65625 211.09375 C 443.65625 215.351562 437.269531 215.351562 437.269531 211.09375 C 437.269531 206.835938 443.65625 206.835938 443.65625 211.09375 "/>
<path style=" stroke:none;fill-rule:nonzero;fill:rgb(100%,84.3%,0%);fill-opacity:1;" d="M 120.554688 456.222656 C 120.554688 460.480469 114.167969 460.480469 114.167969 456.222656 C 114.167969 451.964844 120.554688 451.964844 120.554688 456.222656 "/>
<path style=" stroke:none;fill-rule:nonzero;fill:rgb(100%,84.3%,0%);fill-opacity:1;" d="M 300.65625 70.460938 C 300.65625 74.71875 294.269531 74.71875 294.269531 70.460938 C 294.269531 66.203125 300.65625 66.203125 300.65625 70.460938 "/>
<path style=" stroke:none;fill-rule:nonzero;fill:rgb(100%,84.3%,0%);fill-opacity:1;" d="M 378.585938 458.867188 C 378.585938 463.125 372.199219 463.125 372.199219 458.867188 C 372.199219 454.609375 378.585938 454.609375 378.585938 458.867188 "/>
<path style=" stroke:none;fill-rule:nonzero;fill:rgb(100%,84.3%,0%);fill-opacity:1;" d="M 431.089844 82.007812 C 431.089844 86.265625 424.703125 86.265625 424.703125 82.007812 C 424.703125 77.746094 431.089844 77.746094 431.089844 82.007812 "/>
<path style=" stroke:none;fill-rule:nonzero;fill:rgb(100%,84.3%,0%);fill-opacity:1;" d="M 443.65625 224.164062 C 443.65625 228.425781 437.269531 228.425781 437.269531 224.164062 C 437.269531 219.90625 443.65625 219.90625 443.65625 224.164062 "/>
<path style=" stroke:none;fill-rule:nonzero;fill:rgb(100%,84.3%,0%);fill-opacity:1;" d="M 53.988281 71.261719 C 53.988281 75.519531 47.601562 75.519531 47.601562 71.261719 C 47.601562 67.003906 53.988281 67.003906 53.988281 71.261719 "/>
<path style=" stroke:none;fill-rule:nonzero;fill:rgb(100%,84.3%,0%);fill-opacity:1;" d="M 184.320312 462.945312 C 184.320312 467.203125 177.933594 467.203125 177.933594 462.945312 C 177.933594 458.6875 184.320312 458.6875 184.320312 462.945312 "/>
<path style=" stroke:none;fill-rule:nonzero;fill:rgb(100%,84.3%,0%);fill-opacity:1;" d="M 195.84375 462.945312 C 195.84375 467.203125 189.457031 467.203125 189.457031 462.945312 C 189.457031 458.6875 195.84375 458.6875 195.84375 462.945312 "/>
<path style=" stroke:none;fill-rule:nonzero;fill:rgb(100%,84.3%,0%);fill-opacity:1;" d="M 424.96875 233.878906 C 424.96875 238.136719 418.582031 238.136719 418.582031 233.878906 C 418.582031 229.621094 424.96875 229.621094 424.96875 233.878906 "/>
<path style=" stroke:none;fill-rule:nonzero;fill:rgb(100%,84.3%,0%);fill-opacity:1;" d="M 85.269531 442.886719 C 85.269531 447.144531 78.882812 447.144531 78.882812 442.886719 C 78.882812 438.625 85.269531 438.625 85.269531 442.886719 "/>
<path style=" stroke:none;fill-rule:nonzero;fill:rgb(100%,84.3%,0%);fill-opacity:1;" d="M 112.726562 244.039062 C 112.726562 248.300781 106.335938 248.300781 106.335938 244.039062 C 106.335938 239.78125 112.726562 239.78125 112.726562 244.039062 "/>
<path style=" stroke:none;fill-rule:nonzero;fill:rgb(100%,84.3%,0%);fill-opacity:1;" d="M 426 282.644531 C 426 286.902344 419.613281 286.902344 419.613281 282.644531 C 419.613281 278.386719 426 278.386719 426 282.644531 "/>
<path style=" stroke:none;fill-rule:nonzero;fill:rgb(100%,84.3%,0%);fill-opacity:1;" d="M 443.65625 186.828125 C 443.65625 191.085938 437.269531 191.085938 437.269531 186.828125 C 437.269531 182.570312 443.65625 182.570312 443.65625 186.828125 "/>
<path style=" stroke:none;fill-rule:nonzero;fill:rgb(100%,84.3%,0%);fill-opacity:1;" d="M 204 462.945312 C 204 467.203125 197.613281 467.203125 197.613281 462.945312 C 197.613281 458.6875 204 458.6875 204 462.945312 "/>
<path style=" stroke:none;fill-rule:nonzero;fill:rgb(100%,84.3%,0%);fill-opacity:1;" d="M 326.550781 49.617188 C 326.550781 53.875 320.164062 53.875 320.164062 49.617188 C 320.164062 45.359375 326.550781 45.359375 326.550781 49.617188 "/>
<path style=" stroke:none;fill-rule:nonzero;fill:rgb(100%,84.3%,0%);fill-opacity:1;" d="M 443.65625 139.703125 C 443.65625 143.960938 437.269531 143.960938 437.269531 139.703125 C 437.269531 135.445312 443.65625 135.445312 443.65625 139.703125 "/>
<path style=" stroke:none;fill-rule:nonzero;fill:rgb(100%,84.3%,0%);fill-opacity:1;" d="M 50.554688 317.503906 C 50.554688 321.761719 44.167969 321.761719 44.167969 317.503906 C 44.167969 313.246094 50.554688 313.246094 50.554688 317.503906 "/>
<path style=" stroke:none;fill-rule:nonzero;fill:rgb(100%,84.3%,0%);fill-opacity:1;" d="M 312.820312 438.375 C 312.820312 442.632812 306.429688 442.632812 306.429688 438.375 C 306.429688 434.117188 312.820312 434.117188 312.820312 438.375 "/>
<path style=" stroke:none;fill-rule:nonzero;fill:rgb(100%,84.3%,0%);fill-opacity:1;" d="M 58 296.316406 C 58 300.574219 51.613281 300.574219 51.613281 296.316406 C 51.613281 292.058594 58 292.058594 58 296.316406 "/>
<path style=" stroke:none;fill-rule:nonzero;fill:rgb(100%,84.3%,0%);fill-opacity:1;" d="M 59.367188 314.238281 C 59.367188 318.496094 52.980469 318.496094 52.980469 314.238281 C 52.980469 309.980469 59.367188 309.980469 59.367188 314.238281 "/>
<path style=" stroke:none;fill-rule:nonzero;fill:rgb(100%,84.3%,0%);fill-opacity:1;" d="M 423.492188 462.945312 C 423.492188 467.203125 417.101562 467.203125 417.101562 462.945312 C 417.101562 458.6875 423.492188 458.6875 423.492188 462.945312 "/>
<path style=" stroke:none;fill-rule:nonzero;fill:rgb(100%,84.3%,0%);fill-opacity:1;" d="M 56.707031 280.503906 C 56.707031 284.761719 50.320312 284.761719 50.320312 280.503906 C 50.320312 276.246094 56.707031 276.246094 56.707031 280.503906 "/>
<path style=" stroke:none;fill-rule:nonzero;fill:rgb(100%,84.3%,0%);fill-opacity:1;" d="M 237.5 49.414062 C 237.5 53.675781 231.113281 53.675781 231.113281 49.414062 C 231.113281 45.15625 237.5 45.15625 237.5 49.414062 "/>
<path style=" stroke:none;fill-rule:nonzero;fill:rgb(100%,84.3%,0%);fill-opacity:1;" d="M 203 55.359375 C 203 59.617188 196.613281 59.617188 196.613281 55.359375 C 196.613281 51.101562 203 51.101562 203 55.359375 "/>
<path style=" stroke:none;fill-rule:nonzero;fill:rgb(100%,84.3%,0%);fill-opacity:1;" d="M 303.191406 462.234375 C 303.191406 466.492188 296.804688 466.492188 296.804688 462.234375 C 296.804688 457.976562 303.191406 457.976562 303.191406 462.234375 "/>
<path style=" stroke:none;fill-rule:nonzero;fill:rgb(100%,84.3%,0%);fill-opacity:1;" d="M 50.25 152.988281 C 50.25 157.246094 43.863281 157.246094 43.863281 152.988281 C 43.863281 148.730469 50.25 148.730469 50.25 152.988281 "/>
<path style=" stroke:none;fill-rule:nonzero;fill:rgb(100%,84.3%,0%);fill-opacity:1;" d="M 130.425781 455.832031 C 130.425781 460.089844 124.039062 460.089844 124.039062 455.832031 C 124.039062 451.574219 130.425781 451.574219 130.425781 455.832031 "/>
<path style=" stroke:none;fill-rule:nonzero;fill:rgb(100%,84.3%,0%);fill-opacity:1;" d="M 224.796875 462.945312 C 224.796875 467.203125 218.410156 467.203125 218.410156 462.945312 C 218.410156 458.6875 224.796875 458.6875 224.796875 462.945312 "/>
<path style=" stroke:none;fill-rule:nonzero;fill:rgb(100%,84.3%,0%);fill-opacity:1;" d="M 430.144531 272.007812 C 430.144531 276.265625 423.757812 276.265625 423.757812 272.007812 C 423.757812 267.75 430.144531 267.75 430.144531 272.007812 "/>
<path style=" stroke:none;fill-rule:nonzero;fill:rgb(100%,84.3%,0%);fill-opacity:1;" d="M 54.820312 258.699219 C 54.820312 262.957031 48.433594 262.957031 48.433594 258.699219 C 48.433594 254.441406 54.820312 254.441406 54.820312 258.699219 "/>
<path style=" stroke:none;fill-rule:nonzero;fill:rgb(100%,84.3%,0%);fill-opacity:1;" d="M 433.402344 260.566406 C 433.402344 264.824219 427.015625 264.824219 427.015625 260.566406 C 427.015625 256.308594 433.402344 256.308594 433.402344 260.566406 "/>
<path style=" stroke:none;fill-rule:nonzero;fill:rgb(100%,84.3%,0%);fill-opacity:1;" d="M 57.777344 222.148438 C 57.777344 226.40625 51.390625 226.40625 51.390625 222.148438 C 51.390625 217.890625 57.777344 217.890625 57.777344 222.148438 "/>
<path style=" stroke:none;fill-rule:nonzero;fill:rgb(100%,84.3%,0%);fill-opacity:1;" d="M 279.511719 49.199219 C 279.511719 53.457031 273.125 53.457031 273.125 49.199219 C 273.125 44.941406 279.511719 44.941406 279.511719 49.199219 "/>
<path style=" stroke:none;fill-rule:nonzero;fill:rgb(100%,84.3%,0%);fill-opacity:1;" d="M 213.101562 462.945312 C 213.101562 467.203125 206.714844 467.203125 206.714844 462.945312 C 206.714844 458.6875 213.101562 458.6875 213.101562 462.945312 "/>
<path style=" stroke:none;fill-rule:nonzero;fill:rgb(100%,84.3%,0%);fill-opacity:1;" d="M 56.191406 290.191406 C 56.191406 294.449219 49.804688 294.449219 49.804688 290.191406 C 49.804688 285.933594 56.191406 285.933594 56.191406 290.191406 "/>
<path style=" stroke:none;fill-rule:nonzero;fill:rgb(100%,84.3%,0%);fill-opacity:1;" d="M 58.738281 307.882812 C 58.738281 312.140625 52.351562 312.140625 52.351562 307.882812 C 52.351562 303.625 58.738281 303.625 58.738281 307.882812 "/>
<path style=" stroke:none;fill-rule:nonzero;fill:rgb(100%,84.3%,0%);fill-opacity:1;" d="M 385.085938 455.839844 C 385.085938 460.097656 378.699219 460.097656 378.699219 455.839844 C 378.699219 451.578125 385.085938 451.578125 385.085938 455.839844 "/>
<path style=" stroke:none;fill-rule:nonzero;fill:rgb(100%,84.3%,0%);fill-opacity:1;" d="M 57.300781 194.480469 C 57.300781 198.738281 50.914062 198.738281 50.914062 194.480469 C 50.914062 190.222656 57.300781 190.222656 57.300781 194.480469 "/>
<path style=" stroke:none;fill-rule:nonzero;fill:rgb(100%,84.3%,0%);fill-opacity:1;" d="M 123.609375 60.738281 C 123.609375 64.996094 117.21875 64.996094 117.21875 60.738281 C 117.21875 56.480469 123.609375 56.480469 123.609375 60.738281 "/>
<path style=" stroke:none;fill-rule:nonzero;fill:rgb(100%,84.3%,0%);fill-opacity:1;" d="M 293.738281 462.28125 C 293.738281 466.539062 287.351562 466.539062 287.351562 462.28125 C 287.351562 458.023438 293.738281 458.023438 293.738281 462.28125 "/>
<path style=" stroke:none;fill-rule:nonzero;fill:rgb(100%,84.3%,0%);fill-opacity:1;" d="M 55.644531 145.4375 C 55.644531 149.695312 49.257812 149.695312 49.257812 145.4375 C 49.257812 141.179688 55.644531 141.179688 55.644531 145.4375 "/>
<path style=" stroke:none;fill-rule:nonzero;fill:rgb(100%,84.3%,0%);fill-opacity:1;" d="M 62.589844 212.335938 C 62.589844 216.59375 56.203125 216.59375 56.203125 212.335938 C 56.203125 208.078125 62.589844 208.078125 62.589844 212.335938 "/>
<path style=" stroke:none;fill-rule:nonzero;fill:rgb(100%,84.3%,0%);fill-opacity:1;" d="M 50.203125 171.257812 C 50.203125 175.515625 43.816406 175.515625 43.816406 171.257812 C 43.816406 167 50.203125 167 50.203125 171.257812 "/>
<path style=" stroke:none;fill-rule:nonzero;fill:rgb(100%,84.3%,0%);fill-opacity:1;" d="M 412.570312 440.605469 C 412.570312 444.863281 406.179688 444.863281 406.179688 440.605469 C 406.179688 436.347656 412.570312 436.347656 412.570312 440.605469 "/>
<path style=" stroke:none;fill-rule:nonzero;fill:rgb(100%,84.3%,0%);fill-opacity:1;" d="M 370.851562 49.054688 C 370.851562 53.3125 364.460938 53.3125 364.460938 49.054688 C 364.460938 44.796875 370.851562 44.796875 370.851562 49.054688 "/>
<path style=" stroke:none;fill-rule:nonzero;fill:rgb(100%,84.3%,0%);fill-opacity:1;" d="M 54.195312 322.753906 C 54.195312 327.011719 47.808594 327.011719 47.808594 322.753906 C 47.808594 318.496094 54.195312 318.496094 54.195312 322.753906 "/>
<path style=" stroke:none;fill-rule:nonzero;fill:rgb(100%,84.3%,0%);fill-opacity:1;" d="M 82.691406 320.382812 C 82.691406 324.640625 76.300781 324.640625 76.300781 320.382812 C 76.300781 316.125 82.691406 316.125 82.691406 320.382812 "/>
<path style=" stroke:none;fill-rule:nonzero;fill:rgb(100%,84.3%,0%);fill-opacity:1;" d="M 331.375 385.5 C 331.375 389.757812 324.988281 389.757812 324.988281 385.5 C 324.988281 381.242188 331.375 381.242188 331.375 385.5 "/>
<path style=" stroke:none;fill-rule:nonzero;fill:rgb(100%,84.3%,0%);fill-opacity:1;" d="M 284.832031 462.179688 C 284.832031 466.4375 278.445312 466.4375 278.445312 462.179688 C 278.445312 457.921875 284.832031 457.921875 284.832031 462.179688 "/>
<path style=" stroke:none;fill-rule:nonzero;fill:rgb(100%,84.3%,0%);fill-opacity:1;" d="M 134.433594 450.859375 C 134.433594 455.117188 128.046875 455.117188 128.046875 450.859375 C 128.046875 446.601562 134.433594 446.601562 134.433594 450.859375 "/>
<path style=" stroke:none;fill-rule:nonzero;fill:rgb(100%,84.3%,0%);fill-opacity:1;" d="M 58.609375 231.800781 C 58.609375 236.058594 52.222656 236.058594 52.222656 231.800781 C 52.222656 227.539062 58.609375 227.539062 58.609375 231.800781 "/>
<path style=" stroke:none;fill-rule:nonzero;fill:rgb(100%,84.3%,0%);fill-opacity:1;" d="M 57.101562 185.558594 C 57.101562 189.816406 50.714844 189.816406 50.714844 185.558594 C 50.714844 181.300781 57.101562 181.300781 57.101562 185.558594 "/>
<path style=" stroke:none;fill-rule:nonzero;fill:rgb(100%,84.3%,0%);fill-opacity:1;" d="M 395.132812 49.054688 C 395.132812 53.3125 388.746094 53.3125 388.746094 49.054688 C 388.746094 44.796875 395.132812 44.796875 395.132812 49.054688 "/>
<path style=" stroke:none;fill-rule:nonzero;fill:rgb(100%,84.3%,0%);fill-opacity:1;" d="M 428.390625 107.035156 C 428.390625 111.292969 422.003906 111.292969 422.003906 107.035156 C 422.003906 102.777344 428.390625 102.777344 428.390625 107.035156 "/>
<path style=" stroke:none;fill-rule:nonzero;fill:rgb(100%,84.3%,0%);fill-opacity:1;" d="M 55.257812 129.777344 C 55.257812 134.035156 48.871094 134.035156 48.871094 129.777344 C 48.871094 125.519531 55.257812 125.519531 55.257812 129.777344 "/>
<path style=" stroke:none;fill-rule:nonzero;fill:rgb(100%,84.3%,0%);fill-opacity:1;" d="M 52.929688 403.742188 C 52.929688 408.003906 46.542969 408.003906 46.542969 403.742188 C 46.542969 399.484375 52.929688 399.484375 52.929688 403.742188 "/>
<path style=" stroke:none;fill-rule:nonzero;fill:rgb(100%,84.3%,0%);fill-opacity:1;" d="M 50.5 298.316406 C 50.5 302.574219 44.113281 302.574219 44.113281 298.316406 C 44.113281 294.058594 50.5 294.058594 50.5 298.316406 "/>
<path style=" stroke:none;fill-rule:nonzero;fill:rgb(100%,84.3%,0%);fill-opacity:1;" d="M 246.554688 49.054688 C 246.554688 53.3125 240.167969 53.3125 240.167969 49.054688 C 240.167969 44.796875 246.554688 44.796875 246.554688 49.054688 "/>
<path style=" stroke:none;fill-rule:nonzero;fill:rgb(100%,84.3%,0%);fill-opacity:1;" d="M 437.90625 284.828125 C 437.90625 289.085938 431.519531 289.085938 431.519531 284.828125 C 431.519531 280.570312 437.90625 280.570312 437.90625 284.828125 "/>
<path style=" stroke:none;fill-rule:nonzero;fill:rgb(100%,84.3%,0%);fill-opacity:1;" d="M 50.203125 177.871094 C 50.203125 182.128906 43.816406 182.128906 43.816406 177.871094 C 43.816406 173.613281 50.203125 173.613281 50.203125 177.871094 "/>
<path style=" stroke:none;fill-rule:nonzero;fill:rgb(100%,84.3%,0%);fill-opacity:1;" d="M 433.324219 153.578125 C 433.324219 157.839844 426.9375 157.839844 426.9375 153.578125 C 426.9375 149.320312 433.324219 149.320312 433.324219 153.578125 "/>
<path style=" stroke:none;fill-rule:nonzero;fill:rgb(100%,84.3%,0%);fill-opacity:1;" d="M 59.117188 85.253906 C 59.117188 89.511719 52.730469 89.511719 52.730469 85.253906 C 52.730469 80.996094 59.117188 80.996094 59.117188 85.253906 "/>
<path style=" stroke:none;fill-rule:nonzero;fill:rgb(100%,84.3%,0%);fill-opacity:1;" d="M 401.53125 49.054688 C 401.53125 53.3125 395.144531 53.3125 395.144531 49.054688 C 395.144531 44.796875 401.53125 44.796875 401.53125 49.054688 "/>
<path style=" stroke:none;fill-rule:nonzero;fill:rgb(100%,84.3%,0%);fill-opacity:1;" d="M 56.316406 274.058594 C 56.316406 278.316406 49.929688 278.316406 49.929688 274.058594 C 49.929688 269.800781 56.316406 269.800781 56.316406 274.058594 "/>
<path style=" stroke:none;fill-rule:nonzero;fill:rgb(100%,84.3%,0%);fill-opacity:1;" d="M 426.539062 96.589844 C 426.539062 100.847656 420.152344 100.847656 420.152344 96.589844 C 420.152344 92.328125 426.539062 92.328125 426.539062 96.589844 "/>
<path style=" stroke:none;fill-rule:nonzero;fill:rgb(100%,84.3%,0%);fill-opacity:1;" d="M 57.582031 103.011719 C 57.582031 107.269531 51.195312 107.269531 51.195312 103.011719 C 51.195312 98.753906 57.582031 98.753906 57.582031 103.011719 "/>
<path style=" stroke:none;fill-rule:nonzero;fill:rgb(100%,84.3%,0%);fill-opacity:1;" d="M 200.753906 61.335938 C 200.753906 65.59375 194.367188 65.59375 194.367188 61.335938 C 194.367188 57.078125 200.753906 57.078125 200.753906 61.335938 "/>
<path style=" stroke:none;fill-rule:nonzero;fill:rgb(100%,84.3%,0%);fill-opacity:1;" d="M 262.128906 49.054688 C 262.128906 53.3125 255.742188 53.3125 255.742188 49.054688 C 255.742188 44.796875 262.128906 44.796875 262.128906 49.054688 "/>
<path style=" stroke:none;fill-rule:nonzero;fill:rgb(100%,84.3%,0%);fill-opacity:1;" d="M 135.625 62.074219 C 135.625 66.332031 129.238281 66.332031 129.238281 62.074219 C 129.238281 57.816406 135.625 57.816406 135.625 62.074219 "/>
<path style=" stroke:none;fill-rule:nonzero;fill:rgb(100%,84.3%,0%);fill-opacity:1;" d="M 212.066406 55.601562 C 212.066406 59.859375 205.679688 59.859375 205.679688 55.601562 C 205.679688 51.34375 212.066406 51.34375 212.066406 55.601562 "/>
<path style=" stroke:none;fill-rule:nonzero;fill:rgb(100%,84.3%,0%);fill-opacity:1;" d="M 187.3125 60.550781 C 187.3125 64.808594 180.925781 64.808594 180.925781 60.550781 C 180.925781 56.292969 187.3125 56.292969 187.3125 60.550781 "/>
<path style=" stroke:none;fill-rule:nonzero;fill:rgb(100%,84.3%,0%);fill-opacity:1;" d="M 157.289062 454.550781 C 157.289062 458.808594 150.898438 458.808594 150.898438 454.550781 C 150.898438 450.292969 157.289062 450.292969 157.289062 454.550781 "/>
<path style=" stroke:none;fill-rule:nonzero;fill:rgb(100%,84.3%,0%);fill-opacity:1;" d="M 414.9375 56.152344 C 414.9375 60.410156 408.546875 60.410156 408.546875 56.152344 C 408.546875 51.894531 414.9375 51.894531 414.9375 56.152344 "/>
<path style=" stroke:none;fill-rule:nonzero;fill:rgb(100%,84.3%,0%);fill-opacity:1;" d="M 56.585938 93.945312 C 56.585938 98.203125 50.199219 98.203125 50.199219 93.945312 C 50.199219 89.6875 56.585938 89.6875 56.585938 93.945312 "/>
<path style=" stroke:none;fill-rule:nonzero;fill:rgb(100%,84.3%,0%);fill-opacity:1;" d="M 63.769531 104.601562 C 63.769531 108.859375 57.382812 108.859375 57.382812 104.601562 C 57.382812 100.34375 63.769531 100.34375 63.769531 104.601562 "/>
<path style=" stroke:none;fill-rule:nonzero;fill:rgb(100%,84.3%,0%);fill-opacity:1;" d="M 435.3125 67.425781 C 435.3125 71.683594 428.921875 71.683594 428.921875 67.425781 C 428.921875 63.167969 435.3125 63.167969 435.3125 67.425781 "/>
<path style=" stroke:none;fill-rule:nonzero;fill:rgb(100%,84.3%,0%);fill-opacity:1;" d="M 432.324219 278.488281 C 432.324219 282.746094 425.9375 282.746094 425.9375 278.488281 C 425.9375 274.230469 432.324219 274.230469 432.324219 278.488281 "/>
<path style=" stroke:none;fill-rule:nonzero;fill:rgb(100%,84.3%,0%);fill-opacity:1;" d="M 67.480469 154.320312 C 67.480469 158.582031 61.089844 158.582031 61.089844 154.320312 C 61.089844 150.0625 67.480469 150.0625 67.480469 154.320312 "/>
<path style=" stroke:none;fill-rule:nonzero;fill:rgb(100%,84.3%,0%);fill-opacity:1;" d="M 254.847656 49.113281 C 254.847656 53.371094 248.460938 53.371094 248.460938 49.113281 C 248.460938 44.855469 254.847656 44.855469 254.847656 49.113281 "/>
<path style=" stroke:none;fill-rule:nonzero;fill:rgb(100%,84.3%,0%);fill-opacity:1;" d="M 406.925781 443.601562 C 406.925781 447.859375 400.539062 447.859375 400.539062 443.601562 C 400.539062 439.34375 406.925781 439.34375 406.925781 443.601562 "/>
<path style=" stroke:none;fill-rule:nonzero;fill:rgb(100%,84.3%,0%);fill-opacity:1;" d="M 286.488281 452.917969 C 286.488281 457.175781 280.101562 457.175781 280.101562 452.917969 C 280.101562 448.660156 286.488281 448.660156 286.488281 452.917969 "/>
<path style=" stroke:none;fill-rule:nonzero;fill:rgb(100%,84.3%,0%);fill-opacity:1;" d="M 173.304688 55.257812 C 173.304688 59.515625 166.917969 59.515625 166.917969 55.257812 C 166.917969 51 173.304688 51 173.304688 55.257812 "/>
<path style=" stroke:none;fill-rule:nonzero;fill:rgb(100%,84.3%,0%);fill-opacity:1;" d="M 58.441406 114.695312 C 58.441406 118.953125 52.054688 118.953125 52.054688 114.695312 C 52.054688 110.4375 58.441406 110.4375 58.441406 114.695312 "/>
<path style=" stroke:none;fill-rule:nonzero;fill:rgb(100%,84.3%,0%);fill-opacity:1;" d="M 378.253906 55.832031 C 378.253906 60.089844 371.867188 60.089844 371.867188 55.832031 C 371.867188 51.574219 378.253906 51.574219 378.253906 55.832031 "/>
<path style=" stroke:none;fill-rule:nonzero;fill:rgb(100%,84.3%,0%);fill-opacity:1;" d="M 435.261719 239.128906 C 435.261719 243.386719 428.875 243.386719 428.875 239.128906 C 428.875 234.871094 435.261719 234.871094 435.261719 239.128906 "/>
<path style=" stroke:none;fill-rule:nonzero;fill:rgb(100%,84.3%,0%);fill-opacity:1;" d="M 359.71875 49.480469 C 359.71875 53.738281 353.332031 53.738281 353.332031 49.480469 C 353.332031 45.222656 359.71875 45.222656 359.71875 49.480469 "/>
<path style=" stroke:none;fill-rule:nonzero;fill:rgb(100%,84.3%,0%);fill-opacity:1;" d="M 423.804688 49.054688 C 423.804688 53.3125 417.417969 53.3125 417.417969 49.054688 C 417.417969 44.796875 423.804688 44.796875 423.804688 49.054688 "/>
<path style=" stroke:none;fill-rule:nonzero;fill:rgb(100%,84.3%,0%);fill-opacity:1;" d="M 280.324219 427.179688 C 280.324219 431.4375 273.9375 431.4375 273.9375 427.179688 C 273.9375 422.921875 280.324219 422.921875 280.324219 427.179688 "/>
<path style=" stroke:none;fill-rule:nonzero;fill:rgb(100%,84.3%,0%);fill-opacity:1;" d="M 352.425781 49.054688 C 352.425781 53.3125 346.039062 53.3125 346.039062 49.054688 C 346.039062 44.796875 352.425781 44.796875 352.425781 49.054688 "/>
<path style=" stroke:none;fill-rule:nonzero;fill:rgb(100%,84.3%,0%);fill-opacity:1;" d="M 414.90625 49.054688 C 414.90625 53.3125 408.519531 53.3125 408.519531 49.054688 C 408.519531 44.796875 414.90625 44.796875 414.90625 49.054688 "/>
<path style=" stroke:none;fill-rule:nonzero;fill:rgb(100%,84.3%,0%);fill-opacity:1;" d="M 56.507812 239.71875 C 56.507812 243.976562 50.121094 243.976562 50.121094 239.71875 C 50.121094 235.460938 56.507812 235.460938 56.507812 239.71875 "/>
<path style=" stroke:none;fill-rule:nonzero;fill:rgb(100%,84.3%,0%);fill-opacity:1;" d="M 208.214844 445.832031 C 208.214844 450.089844 201.828125 450.089844 201.828125 445.832031 C 201.828125 441.574219 208.214844 441.574219 208.214844 445.832031 "/>
<path style=" stroke:none;fill-rule:nonzero;fill:rgb(100%,84.3%,0%);fill-opacity:1;" d="M 56.472656 345.066406 C 56.472656 349.324219 50.085938 349.324219 50.085938 345.066406 C 50.085938 340.808594 56.472656 340.808594 56.472656 345.066406 "/>
<path style=" stroke:none;fill-rule:nonzero;fill:rgb(100%,84.3%,0%);fill-opacity:1;" d="M 140.949219 449.363281 C 140.949219 453.621094 134.5625 453.621094 134.5625 449.363281 C 134.5625 445.105469 140.949219 445.105469 140.949219 449.363281 "/>
<path style=" stroke:none;fill-rule:nonzero;fill:rgb(100%,84.3%,0%);fill-opacity:1;" d="M 53.765625 202.230469 C 53.765625 206.488281 47.378906 206.488281 47.378906 202.230469 C 47.378906 197.972656 53.765625 197.972656 53.765625 202.230469 "/>
<path style=" stroke:none;fill-rule:nonzero;fill:rgb(100%,84.3%,0%);fill-opacity:1;" d="M 88.296875 55.429688 C 88.296875 59.6875 81.910156 59.6875 81.910156 55.429688 C 81.910156 51.171875 88.296875 51.171875 88.296875 55.429688 "/>
<path style=" stroke:none;fill-rule:nonzero;fill:rgb(100%,84.3%,0%);fill-opacity:1;" d="M 231.363281 462.945312 C 231.363281 467.203125 224.976562 467.203125 224.976562 462.945312 C 224.976562 458.6875 231.363281 458.6875 231.363281 462.945312 "/>
<path style=" stroke:none;fill-rule:nonzero;fill:rgb(100%,84.3%,0%);fill-opacity:1;" d="M 238.367188 55.867188 C 238.367188 60.128906 231.980469 60.128906 231.980469 55.867188 C 231.980469 51.609375 238.367188 51.609375 238.367188 55.867188 "/>
<path style=" stroke:none;fill-rule:nonzero;fill:rgb(100%,84.3%,0%);fill-opacity:1;" d="M 363.148438 55.023438 C 363.148438 59.28125 356.757812 59.28125 356.757812 55.023438 C 356.757812 50.765625 363.148438 50.765625 363.148438 55.023438 "/>
<path style=" stroke:none;fill-rule:nonzero;fill:rgb(100%,84.3%,0%);fill-opacity:1;" d="M 50.765625 415.414062 C 50.765625 419.671875 44.378906 419.671875 44.378906 415.414062 C 44.378906 411.15625 50.765625 411.15625 50.765625 415.414062 "/>
<path style=" stroke:none;fill-rule:nonzero;fill:rgb(100%,84.3%,0%);fill-opacity:1;" d="M 50.203125 184.488281 C 50.203125 188.746094 43.816406 188.746094 43.816406 184.488281 C 43.816406 180.230469 50.203125 180.230469 50.203125 184.488281 "/>
<path style=" stroke:none;fill-rule:nonzero;fill:rgb(100%,84.3%,0%);fill-opacity:1;" d="M 97.691406 55.570312 C 97.691406 59.828125 91.304688 59.828125 91.304688 55.570312 C 91.304688 51.3125 97.691406 51.3125 97.691406 55.570312 "/>
<path style=" stroke:none;fill-rule:nonzero;fill:rgb(100%,84.3%,0%);fill-opacity:1;" d="M 50.203125 287.84375 C 50.203125 292.101562 43.816406 292.101562 43.816406 287.84375 C 43.816406 283.582031 50.203125 283.582031 50.203125 287.84375 "/>
<path style=" stroke:none;fill-rule:nonzero;fill:rgb(100%,84.3%,0%);fill-opacity:1;" d="M 50.203125 311.128906 C 50.203125 315.386719 43.816406 315.386719 43.816406 311.128906 C 43.816406 306.867188 50.203125 306.867188 50.203125 311.128906 "/>
<path style=" stroke:none;fill-rule:nonzero;fill:rgb(100%,84.3%,0%);fill-opacity:1;" d="M 60.453125 55.324219 C 60.453125 59.582031 54.066406 59.582031 54.066406 55.324219 C 54.066406 51.066406 60.453125 51.066406 60.453125 55.324219 "/>
<path style=" stroke:none;fill-rule:nonzero;fill:rgb(100%,84.3%,0%);fill-opacity:1;" d="M 52.324219 385.066406 C 52.324219 389.324219 45.9375 389.324219 45.9375 385.066406 C 45.9375 380.808594 52.324219 380.808594 52.324219 385.066406 "/>
<path style=" stroke:none;fill-rule:nonzero;fill:rgb(100%,84.3%,0%);fill-opacity:1;" d="M 113.261719 448.707031 C 113.261719 452.964844 106.875 452.964844 106.875 448.707031 C 106.875 444.449219 113.261719 444.449219 113.261719 448.707031 "/>
<path style=" stroke:none;fill-rule:nonzero;fill:rgb(100%,84.3%,0%);fill-opacity:1;" d="M 116.320312 65.277344 C 116.320312 69.535156 109.929688 69.535156 109.929688 65.277344 C 109.929688 61.019531 116.320312 61.019531 116.320312 65.277344 "/>
<path style=" stroke:none;fill-rule:nonzero;fill:rgb(100%,84.3%,0%);fill-opacity:1;" d="M 59.539062 157.855469 C 59.539062 162.113281 53.148438 162.113281 53.148438 157.855469 C 53.148438 153.597656 59.539062 153.597656 59.539062 157.855469 "/>
<path style=" stroke:none;fill-rule:nonzero;fill:rgb(100%,84.3%,0%);fill-opacity:1;" d="M 149.210938 55.363281 C 149.210938 59.621094 142.824219 59.621094 142.824219 55.363281 C 142.824219 51.105469 149.210938 51.105469 149.210938 55.363281 "/>
<path style=" stroke:none;fill-rule:nonzero;fill:rgb(100%,84.3%,0%);fill-opacity:1;" d="M 358.683594 452.792969 C 358.683594 457.050781 352.296875 457.050781 352.296875 452.792969 C 352.296875 448.535156 358.683594 448.535156 358.683594 452.792969 "/>
<path style=" stroke:none;fill-rule:nonzero;fill:rgb(100%,84.3%,0%);fill-opacity:1;" d="M 433.832031 74.523438 C 433.832031 78.78125 427.445312 78.78125 427.445312 74.523438 C 427.445312 70.265625 433.832031 70.265625 433.832031 74.523438 "/>
<path style=" stroke:none;fill-rule:nonzero;fill:rgb(100%,84.3%,0%);fill-opacity:1;" d="M 431.261719 250.207031 C 431.261719 254.464844 424.875 254.464844 424.875 250.207031 C 424.875 245.949219 431.261719 245.949219 431.261719 250.207031 "/>
<path style=" stroke:none;fill-rule:nonzero;fill:rgb(100%,84.3%,0%);fill-opacity:1;" d="M 64.09375 462.945312 C 64.09375 467.203125 57.707031 467.203125 57.707031 462.945312 C 57.707031 458.6875 64.09375 458.6875 64.09375 462.945312 "/>
<path style=" stroke:none;fill-rule:nonzero;fill:rgb(100%,84.3%,0%);fill-opacity:1;" d="M 66.507812 168.175781 C 66.507812 172.433594 60.121094 172.433594 60.121094 168.175781 C 60.121094 163.917969 66.507812 163.917969 66.507812 168.175781 "/>
<path style=" stroke:none;fill-rule:nonzero;fill:rgb(100%,84.3%,0%);fill-opacity:1;" d="M 64.957031 98.324219 C 64.957031 102.585938 58.570312 102.585938 58.570312 98.324219 C 58.570312 94.066406 64.957031 94.066406 64.957031 98.324219 "/>
<path style=" stroke:none;fill-rule:nonzero;fill:rgb(100%,84.3%,0%);fill-opacity:1;" d="M 59.601562 361.148438 C 59.601562 365.40625 53.214844 365.40625 53.214844 361.148438 C 53.214844 356.890625 59.601562 356.890625 59.601562 361.148438 "/>
<path style=" stroke:none;fill-rule:nonzero;fill:rgb(100%,84.3%,0%);fill-opacity:1;" d="M 393.933594 329.980469 C 393.933594 334.238281 387.546875 334.238281 387.546875 329.980469 C 387.546875 325.722656 393.933594 325.722656 393.933594 329.980469 "/>
<path style=" stroke:none;fill-rule:nonzero;fill:rgb(100%,84.3%,0%);fill-opacity:1;" d="M 71.386719 273.074219 C 71.386719 277.332031 65 277.332031 65 273.074219 C 65 268.816406 71.386719 268.816406 71.386719 273.074219 "/>
<path style=" stroke:none;fill-rule:nonzero;fill:rgb(100%,84.3%,0%);fill-opacity:1;" d="M 438.359375 143.269531 C 438.359375 147.527344 431.972656 147.527344 431.972656 143.269531 C 431.972656 139.011719 438.359375 139.011719 438.359375 143.269531 "/>
<path style=" stroke:none;fill-rule:nonzero;fill:rgb(100%,84.3%,0%);fill-opacity:1;" d="M 77.304688 55.300781 C 77.304688 59.558594 70.917969 59.558594 70.917969 55.300781 C 70.917969 51.042969 77.304688 51.042969 77.304688 55.300781 "/>
<path style=" stroke:none;fill-rule:nonzero;fill:rgb(100%,84.3%,0%);fill-opacity:1;" d="M 76.523438 289.359375 C 76.523438 293.617188 70.132812 293.617188 70.132812 289.359375 C 70.132812 285.101562 76.523438 285.101562 76.523438 289.359375 "/>
<path style=" stroke:none;fill-rule:nonzero;fill:rgb(100%,84.3%,0%);fill-opacity:1;" d="M 51.496094 159.253906 C 51.496094 163.511719 45.109375 163.511719 45.109375 159.253906 C 45.109375 154.992188 51.496094 154.992188 51.496094 159.253906 "/>
<path style=" stroke:none;fill-rule:nonzero;fill:rgb(100%,84.3%,0%);fill-opacity:1;" d="M 56.207031 412.066406 C 56.207031 416.324219 49.820312 416.324219 49.820312 412.066406 C 49.820312 407.808594 56.207031 407.808594 56.207031 412.066406 "/>
<path style=" stroke:none;fill-rule:nonzero;fill:rgb(100%,84.3%,0%);fill-opacity:1;" d="M 189.90625 459.453125 C 189.90625 463.710938 183.515625 463.710938 183.515625 459.453125 C 183.515625 455.195312 189.90625 455.195312 189.90625 459.453125 "/>
<path style=" stroke:none;fill-rule:nonzero;fill:rgb(100%,84.3%,0%);fill-opacity:1;" d="M 424.308594 126.246094 C 424.308594 130.503906 417.921875 130.503906 417.921875 126.246094 C 417.921875 121.988281 424.308594 121.988281 424.308594 126.246094 "/>
<path style=" stroke:none;fill-rule:nonzero;fill:rgb(100%,84.3%,0%);fill-opacity:1;" d="M 437.246094 265.667969 C 437.246094 269.925781 430.859375 269.925781 430.859375 265.667969 C 430.859375 261.410156 437.246094 261.410156 437.246094 265.667969 "/>
<path style=" stroke:none;fill-rule:nonzero;fill:rgb(100%,84.3%,0%);fill-opacity:1;" d="M 211.628906 451.980469 C 211.628906 456.238281 205.242188 456.238281 205.242188 451.980469 C 205.242188 447.722656 211.628906 447.722656 211.628906 451.980469 "/>
<path style=" stroke:none;fill-rule:nonzero;fill:rgb(100%,84.3%,0%);fill-opacity:1;" d="M 383.046875 70.523438 C 383.046875 74.78125 376.660156 74.78125 376.660156 70.523438 C 376.660156 66.265625 383.046875 66.265625 383.046875 70.523438 "/>
<path style=" stroke:none;fill-rule:nonzero;fill:rgb(100%,84.3%,0%);fill-opacity:1;" d="M 443.65625 171.96875 C 443.65625 176.226562 437.269531 176.226562 437.269531 171.96875 C 437.269531 167.707031 443.65625 167.707031 443.65625 171.96875 "/>
<path style=" stroke:none;fill-rule:nonzero;fill:rgb(100%,84.3%,0%);fill-opacity:1;" d="M 59.800781 386.609375 C 59.800781 390.871094 53.414062 390.871094 53.414062 386.609375 C 53.414062 382.351562 59.800781 382.351562 59.800781 386.609375 "/>
<path style=" stroke:none;fill-rule:nonzero;fill:rgb(100%,84.3%,0%);fill-opacity:1;" d="M 423.390625 164.117188 C 423.390625 168.378906 417.003906 168.378906 417.003906 164.117188 C 417.003906 159.859375 423.390625 159.859375 423.390625 164.117188 "/>
<path style=" stroke:none;fill-rule:nonzero;fill:rgb(100%,84.3%,0%);fill-opacity:1;" d="M 428.921875 135.570312 C 428.921875 139.828125 422.535156 139.828125 422.535156 135.570312 C 422.535156 131.3125 428.921875 131.3125 428.921875 135.570312 "/>
<path style=" stroke:none;fill-rule:nonzero;fill:rgb(100%,84.3%,0%);fill-opacity:1;" d="M 88.035156 245.332031 C 88.035156 249.589844 81.644531 249.589844 81.644531 245.332031 C 81.644531 241.074219 88.035156 241.074219 88.035156 245.332031 "/>
<path style=" stroke:none;fill-rule:nonzero;fill:rgb(100%,84.3%,0%);fill-opacity:1;" d="M 421.21875 73.191406 C 421.21875 77.449219 414.832031 77.449219 414.832031 73.191406 C 414.832031 68.933594 421.21875 68.933594 421.21875 73.191406 "/>
<path style=" stroke:none;fill-rule:nonzero;fill:rgb(100%,84.3%,0%);fill-opacity:1;" d="M 123.367188 440.429688 C 123.367188 444.6875 116.980469 444.6875 116.980469 440.429688 C 116.980469 436.171875 123.367188 436.171875 123.367188 440.429688 "/>
<path style=" stroke:none;fill-rule:nonzero;fill:rgb(100%,84.3%,0%);fill-opacity:1;" d="M 428.714844 118.375 C 428.714844 122.632812 422.328125 122.632812 422.328125 118.375 C 422.328125 114.117188 428.714844 114.117188 428.714844 118.375 "/>
<path style=" stroke:none;fill-rule:nonzero;fill:rgb(100%,84.3%,0%);fill-opacity:1;" d="M 366.410156 388.652344 C 366.410156 392.914062 360.023438 392.914062 360.023438 388.652344 C 360.023438 384.394531 366.410156 384.394531 366.410156 388.652344 "/>
<path style=" stroke:none;fill-rule:nonzero;fill:rgb(100%,84.3%,0%);fill-opacity:1;" d="M 71.824219 190.167969 C 71.824219 194.425781 65.4375 194.425781 65.4375 190.167969 C 65.4375 185.910156 71.824219 185.910156 71.824219 190.167969 "/>
<path style=" stroke:none;fill-rule:nonzero;fill:rgb(100%,84.3%,0%);fill-opacity:1;" d="M 71.746094 449.136719 C 71.746094 453.394531 65.359375 453.394531 65.359375 449.136719 C 65.359375 444.878906 71.746094 444.878906 71.746094 449.136719 "/>
<path style=" stroke:none;fill-rule:nonzero;fill:rgb(100%,84.3%,0%);fill-opacity:1;" d="M 127.585938 447.394531 C 127.585938 451.652344 121.199219 451.652344 121.199219 447.394531 C 121.199219 443.136719 127.585938 443.136719 127.585938 447.394531 "/>
<path style=" stroke:none;fill-rule:nonzero;fill:rgb(100%,84.3%,0%);fill-opacity:1;" d="M 440.703125 431.144531 C 440.703125 435.402344 434.316406 435.402344 434.316406 431.144531 C 434.316406 426.886719 440.703125 426.886719 440.703125 431.144531 "/>
<path style=" stroke:none;fill-rule:nonzero;fill:rgb(100%,84.3%,0%);fill-opacity:1;" d="M 179.527344 458.726562 C 179.527344 462.984375 173.140625 462.984375 173.140625 458.726562 C 173.140625 454.46875 179.527344 454.46875 179.527344 458.726562 "/>
<path style=" stroke:none;fill-rule:nonzero;fill:rgb(100%,84.3%,0%);fill-opacity:1;" d="M 343.667969 61.332031 C 343.667969 65.589844 337.28125 65.589844 337.28125 61.332031 C 337.28125 57.074219 343.667969 57.074219 343.667969 61.332031 "/>
<path style=" stroke:none;fill-rule:nonzero;fill:rgb(100%,84.3%,0%);fill-opacity:1;" d="M 391.972656 187.859375 C 391.972656 192.117188 385.585938 192.117188 385.585938 187.859375 C 385.585938 183.601562 391.972656 183.601562 391.972656 187.859375 "/>
<path style=" stroke:none;fill-rule:nonzero;fill:rgb(100%,84.3%,0%);fill-opacity:1;" d="M 305.195312 363.457031 C 305.195312 367.714844 298.804688 367.714844 298.804688 363.457031 C 298.804688 359.199219 305.195312 359.199219 305.195312 363.457031 "/>
<path style=" stroke:none;fill-rule:nonzero;fill:rgb(100%,84.3%,0%);fill-opacity:1;" d="M 315.40625 456.28125 C 315.40625 460.539062 309.019531 460.539062 309.019531 456.28125 C 309.019531 452.023438 315.40625 452.023438 315.40625 456.28125 "/>
<path style=" stroke:none;fill-rule:nonzero;fill:rgb(100%,84.3%,0%);fill-opacity:1;" d="M 226.246094 435.144531 C 226.246094 439.402344 219.859375 439.402344 219.859375 435.144531 C 219.859375 430.886719 226.246094 430.886719 226.246094 435.144531 "/>
<path style=" stroke:none;fill-rule:nonzero;fill:rgb(100%,84.3%,0%);fill-opacity:1;" d="M 377.773438 81.878906 C 377.773438 86.136719 371.386719 86.136719 371.386719 81.878906 C 371.386719 77.617188 377.773438 77.617188 377.773438 81.878906 "/>
<path style=" stroke:none;fill-rule:nonzero;fill:rgb(100%,84.3%,0%);fill-opacity:1;" d="M 159.980469 422.113281 C 159.980469 426.371094 153.59375 426.371094 153.59375 422.113281 C 153.59375 417.855469 159.980469 417.855469 159.980469 422.113281 "/>
<path style=" stroke:none;fill-rule:nonzero;fill:rgb(100%,84.3%,0%);fill-opacity:1;" d="M 189.183594 404.023438 C 189.183594 408.28125 182.796875 408.28125 182.796875 404.023438 C 182.796875 399.765625 189.183594 399.765625 189.183594 404.023438 "/>
<path style=" stroke:none;fill-rule:nonzero;fill:rgb(100%,84.3%,0%);fill-opacity:1;" d="M 340 56.105469 C 340 60.363281 333.613281 60.363281 333.613281 56.105469 C 333.613281 51.847656 340 51.847656 340 56.105469 "/>
<path style=" stroke:none;fill-rule:nonzero;fill:rgb(100%,84.3%,0%);fill-opacity:1;" d="M 443.65625 193.824219 C 443.65625 198.085938 437.269531 198.085938 437.269531 193.824219 C 437.269531 189.566406 443.65625 189.566406 443.65625 193.824219 "/>
<path style=" stroke:none;fill-rule:nonzero;fill:rgb(100%,84.3%,0%);fill-opacity:1;" d="M 117.300781 443.460938 C 117.300781 447.71875 110.914062 447.71875 110.914062 443.460938 C 110.914062 439.203125 117.300781 439.203125 117.300781 443.460938 "/>
<path style=" stroke:none;fill-rule:nonzero;fill:rgb(100%,84.3%,0%);fill-opacity:1;" d="M 305.941406 402.722656 C 305.941406 406.980469 299.554688 406.980469 299.554688 402.722656 C 299.554688 398.464844 305.941406 398.464844 305.941406 402.722656 "/>
<path style=" stroke:none;fill-rule:nonzero;fill:rgb(100%,84.3%,0%);fill-opacity:1;" d="M 65.589844 380.363281 C 65.589844 384.621094 59.203125 384.621094 59.203125 380.363281 C 59.203125 376.105469 65.589844 376.105469 65.589844 380.363281 "/>
<path style=" stroke:none;fill-rule:nonzero;fill:rgb(100%,84.3%,0%);fill-opacity:1;" d="M 125.550781 389.382812 C 125.550781 393.640625 119.164062 393.640625 119.164062 389.382812 C 119.164062 385.125 125.550781 385.125 125.550781 389.382812 "/>
<path style=" stroke:none;fill-rule:nonzero;fill:rgb(100%,84.3%,0%);fill-opacity:1;" d="M 165.890625 458.945312 C 165.890625 463.203125 159.503906 463.203125 159.503906 458.945312 C 159.503906 454.6875 165.890625 454.6875 165.890625 458.945312 "/>
<path style=" stroke:none;fill-rule:nonzero;fill:rgb(100%,84.3%,0%);fill-opacity:1;" d="M 165.683594 55.085938 C 165.683594 59.34375 159.296875 59.34375 159.296875 55.085938 C 159.296875 50.824219 165.683594 50.824219 165.683594 55.085938 "/>
<path style=" stroke:none;fill-rule:nonzero;fill:rgb(100%,84.3%,0%);fill-opacity:1;" d="M 59.472656 419.417969 C 59.472656 423.675781 53.085938 423.675781 53.085938 419.417969 C 53.085938 415.160156 59.472656 415.160156 59.472656 419.417969 "/>
<path style=" stroke:none;fill-rule:nonzero;fill:rgb(100%,84.3%,0%);fill-opacity:1;" d="M 103.257812 437.953125 C 103.257812 442.210938 96.871094 442.210938 96.871094 437.953125 C 96.871094 433.695312 103.257812 433.695312 103.257812 437.953125 "/>
<path style=" stroke:none;fill-rule:nonzero;fill:rgb(100%,84.3%,0%);fill-opacity:1;" d="M 218.792969 453.644531 C 218.792969 457.902344 212.40625 457.902344 212.40625 453.644531 C 212.40625 449.386719 218.792969 449.386719 218.792969 453.644531 "/>
<path style=" stroke:none;fill-rule:nonzero;fill:rgb(100%,84.3%,0%);fill-opacity:1;" d="M 97.671875 61.957031 C 97.671875 66.214844 91.285156 66.214844 91.285156 61.957031 C 91.285156 57.699219 97.671875 57.699219 97.671875 61.957031 "/>
<path style=" stroke:none;fill-rule:nonzero;fill:rgb(100%,84.3%,0%);fill-opacity:1;" d="M 376.65625 213.265625 C 376.65625 217.523438 370.269531 217.523438 370.269531 213.265625 C 370.269531 209.007812 376.65625 209.007812 376.65625 213.265625 "/>
<path style=" stroke:none;fill-rule:nonzero;fill:rgb(100%,84.3%,0%);fill-opacity:1;" d="M 69.945312 428.941406 C 69.945312 433.199219 63.554688 433.199219 63.554688 428.941406 C 63.554688 424.683594 69.945312 424.683594 69.945312 428.941406 "/>
<path style=" stroke:none;fill-rule:nonzero;fill:rgb(100%,84.3%,0%);fill-opacity:1;" d="M 176.988281 439.589844 C 176.988281 443.847656 170.601562 443.847656 170.601562 439.589844 C 170.601562 435.328125 176.988281 435.328125 176.988281 439.589844 "/>
<path style=" stroke:none;fill-rule:nonzero;fill:rgb(100%,84.3%,0%);fill-opacity:1;" d="M 252.597656 458.601562 C 252.597656 462.859375 246.210938 462.859375 246.210938 458.601562 C 246.210938 454.34375 252.597656 454.34375 252.597656 458.601562 "/>
<path style=" stroke:none;fill-rule:nonzero;fill:rgb(100%,84.3%,0%);fill-opacity:1;" d="M 55.792969 62.671875 C 55.792969 66.929688 49.40625 66.929688 49.40625 62.671875 C 49.40625 58.410156 55.792969 58.410156 55.792969 62.671875 "/>
<path style=" stroke:none;fill-rule:nonzero;fill:rgb(100%,84.3%,0%);fill-opacity:1;" d="M 261.792969 387.976562 C 261.792969 392.234375 255.40625 392.234375 255.40625 387.976562 C 255.40625 383.71875 261.792969 383.71875 261.792969 387.976562 "/>
<path style=" stroke:none;fill-rule:nonzero;fill:rgb(100%,84.3%,0%);fill-opacity:1;" d="M 427.128906 158.261719 C 427.128906 162.519531 420.742188 162.519531 420.742188 158.261719 C 420.742188 154.003906 427.128906 154.003906 427.128906 158.261719 "/>
<path style=" stroke:none;fill-rule:nonzero;fill:rgb(100%,84.3%,0%);fill-opacity:1;" d="M 324.539062 381.480469 C 324.539062 385.738281 318.152344 385.738281 318.152344 381.480469 C 318.152344 377.222656 324.539062 377.222656 324.539062 381.480469 "/>
<path style=" stroke:none;fill-rule:nonzero;fill:rgb(100%,84.3%,0%);fill-opacity:1;" d="M 323.460938 180.125 C 323.460938 184.382812 317.074219 184.382812 317.074219 180.125 C 317.074219 175.867188 323.460938 175.867188 323.460938 180.125 "/>
<path style=" stroke:none;fill-rule:nonzero;fill:rgb(100%,84.3%,0%);fill-opacity:1;" d="M 301.09375 410.773438 C 301.09375 415.03125 294.707031 415.03125 294.707031 410.773438 C 294.707031 406.515625 301.09375 406.515625 301.09375 410.773438 "/>
<path style=" stroke:none;fill-rule:nonzero;fill:rgb(100%,84.3%,0%);fill-opacity:1;" d="M 443.65625 371.578125 C 443.65625 375.835938 437.269531 375.835938 437.269531 371.578125 C 437.269531 367.320312 443.65625 367.320312 443.65625 371.578125 "/>
<path style=" stroke:none;fill-rule:nonzero;fill:rgb(100%,84.3%,0%);fill-opacity:1;" d="M 443.65625 394.839844 C 443.65625 399.097656 437.269531 399.097656 437.269531 394.839844 C 437.269531 390.582031 443.65625 390.582031 443.65625 394.839844 "/>
<path style=" stroke:none;fill-rule:nonzero;fill:rgb(100%,84.3%,0%);fill-opacity:1;" d="M 55.375 462.945312 C 55.375 467.203125 48.988281 467.203125 48.988281 462.945312 C 48.988281 458.6875 55.375 458.6875 55.375 462.945312 "/>
<path style=" stroke:none;fill-rule:nonzero;fill:rgb(100%,84.3%,0%);fill-opacity:1;" d="M 50.203125 369.484375 C 50.203125 373.742188 43.816406 373.742188 43.816406 369.484375 C 43.816406 365.226562 50.203125 365.226562 50.203125 369.484375 "/>
<path style=" stroke:none;fill-rule:nonzero;fill:rgb(100%,84.3%,0%);fill-opacity:1;" d="M 288.421875 50.300781 C 288.421875 54.558594 282.035156 54.558594 282.035156 50.300781 C 282.035156 46.042969 288.421875 46.042969 288.421875 50.300781 "/>
<path style=" stroke:none;fill-rule:nonzero;fill:rgb(100%,84.3%,0%);fill-opacity:1;" d="M 260.207031 452.835938 C 260.207031 457.09375 253.820312 457.09375 253.820312 452.835938 C 253.820312 448.578125 260.207031 448.578125 260.207031 452.835938 "/>
<path style=" stroke:none;fill-rule:nonzero;fill:rgb(100%,84.3%,0%);fill-opacity:1;" d="M 305 441.648438 C 305 445.90625 298.613281 445.90625 298.613281 441.648438 C 298.613281 437.390625 305 437.390625 305 441.648438 "/>
<path style=" stroke:none;fill-rule:nonzero;fill:rgb(100%,84.3%,0%);fill-opacity:1;" d="M 106.261719 395.734375 C 106.261719 399.992188 99.875 399.992188 99.875 395.734375 C 99.875 391.476562 106.261719 391.476562 106.261719 395.734375 "/>
<path style=" stroke:none;fill-rule:nonzero;fill:rgb(100%,84.3%,0%);fill-opacity:1;" d="M 443.65625 358.570312 C 443.65625 362.828125 437.269531 362.828125 437.269531 358.570312 C 437.269531 354.3125 443.65625 354.3125 443.65625 358.570312 "/>
<path style=" stroke:none;fill-rule:nonzero;fill:rgb(100%,84.3%,0%);fill-opacity:1;" d="M 443.65625 377.996094 C 443.65625 382.253906 437.269531 382.253906 437.269531 377.996094 C 437.269531 373.738281 443.65625 373.738281 443.65625 377.996094 "/>
<path style=" stroke:none;fill-rule:nonzero;fill:rgb(100%,84.3%,0%);fill-opacity:1;" d="M 50.203125 439.847656 C 50.203125 444.105469 43.816406 444.105469 43.816406 439.847656 C 43.816406 435.589844 50.203125 435.589844 50.203125 439.847656 "/>
<path style=" stroke:none;fill-rule:nonzero;fill:rgb(100%,84.3%,0%);fill-opacity:1;" d="M 60.269531 169.550781 C 60.269531 173.808594 53.882812 173.808594 53.882812 169.550781 C 53.882812 165.292969 60.269531 165.292969 60.269531 169.550781 "/>
<path style=" stroke:none;fill-rule:nonzero;fill:rgb(100%,84.3%,0%);fill-opacity:1;" d="M 50.203125 333.714844 C 50.203125 337.972656 43.816406 337.972656 43.816406 333.714844 C 43.816406 329.457031 50.203125 329.457031 50.203125 333.714844 "/>
<path style=" stroke:none;fill-rule:nonzero;fill:rgb(100%,84.3%,0%);fill-opacity:1;" d="M 55.492188 330.007812 C 55.492188 334.265625 49.105469 334.265625 49.105469 330.007812 C 49.105469 325.746094 55.492188 325.746094 55.492188 330.007812 "/>
<path style=" stroke:none;fill-rule:nonzero;fill:rgb(100%,84.3%,0%);fill-opacity:1;" d="M 307.269531 70.613281 C 307.269531 74.875 300.882812 74.875 300.882812 70.613281 C 300.882812 66.355469 307.269531 66.355469 307.269531 70.613281 "/>
<path style=" stroke:none;fill-rule:nonzero;fill:rgb(100%,84.3%,0%);fill-opacity:1;" d="M 148.257812 452.691406 C 148.257812 456.949219 141.871094 456.949219 141.871094 452.691406 C 141.871094 448.433594 148.257812 448.433594 148.257812 452.691406 "/>
<path style=" stroke:none;fill-rule:nonzero;fill:rgb(100%,84.3%,0%);fill-opacity:1;" d="M 443.65625 384.382812 C 443.65625 388.640625 437.269531 388.640625 437.269531 384.382812 C 437.269531 380.125 443.65625 380.125 443.65625 384.382812 "/>
<path style=" stroke:none;fill-rule:nonzero;fill:rgb(100%,84.3%,0%);fill-opacity:1;" d="M 321.042969 374.445312 C 321.042969 378.703125 314.65625 378.703125 314.65625 374.445312 C 314.65625 370.1875 321.042969 370.1875 321.042969 374.445312 "/>
<path style=" stroke:none;fill-rule:nonzero;fill:rgb(100%,84.3%,0%);fill-opacity:1;" d="M 227.320312 443.363281 C 227.320312 447.621094 220.933594 447.621094 220.933594 443.363281 C 220.933594 439.105469 227.320312 439.105469 227.320312 443.363281 "/>
<path style=" stroke:none;fill-rule:nonzero;fill:rgb(100%,84.3%,0%);fill-opacity:1;" d="M 274.699219 446.179688 C 274.699219 450.4375 268.3125 450.4375 268.3125 446.179688 C 268.3125 441.921875 274.699219 441.921875 274.699219 446.179688 "/>
<path style=" stroke:none;fill-rule:nonzero;fill:rgb(100%,84.3%,0%);fill-opacity:1;" d="M 309.261719 454.523438 C 309.261719 458.78125 302.875 458.78125 302.875 454.523438 C 302.875 450.265625 309.261719 450.265625 309.261719 454.523438 "/>
<path style=" stroke:none;fill-rule:nonzero;fill:rgb(100%,84.3%,0%);fill-opacity:1;" d="M 266.382812 451.214844 C 266.382812 455.472656 259.996094 455.472656 259.996094 451.214844 C 259.996094 446.957031 266.382812 446.957031 266.382812 451.214844 "/>
<path style=" stroke:none;fill-rule:nonzero;fill:rgb(100%,84.3%,0%);fill-opacity:1;" d="M 274.023438 417.433594 C 274.023438 421.691406 267.636719 421.691406 267.636719 417.433594 C 267.636719 413.175781 274.023438 413.175781 274.023438 417.433594 "/>
<path style=" stroke:none;fill-rule:nonzero;fill:rgb(100%,84.3%,0%);fill-opacity:1;" d="M 407.070312 430.0625 C 407.070312 434.320312 400.683594 434.320312 400.683594 430.0625 C 400.683594 425.804688 407.070312 425.804688 407.070312 430.0625 "/>
<path style=" stroke:none;fill-rule:nonzero;fill:rgb(100%,84.3%,0%);fill-opacity:1;" d="M 412.28125 399.261719 C 412.28125 403.519531 405.894531 403.519531 405.894531 399.261719 C 405.894531 395.003906 412.28125 395.003906 412.28125 399.261719 "/>
<path style=" stroke:none;fill-rule:nonzero;fill:rgb(100%,84.3%,0%);fill-opacity:1;" d="M 202.199219 443.617188 C 202.199219 447.875 195.8125 447.875 195.8125 443.617188 C 195.8125 439.359375 202.199219 439.359375 202.199219 443.617188 "/>
<path style=" stroke:none;fill-rule:nonzero;fill:rgb(100%,84.3%,0%);fill-opacity:1;" d="M 74.707031 61.136719 C 74.707031 65.394531 68.320312 65.394531 68.320312 61.136719 C 68.320312 56.875 74.707031 56.875 74.707031 61.136719 "/>
<path style=" stroke:none;fill-rule:nonzero;fill:rgb(100%,84.3%,0%);fill-opacity:1;" d="M 439.191406 206.527344 C 439.191406 210.785156 432.804688 210.785156 432.804688 206.527344 C 432.804688 202.269531 439.191406 202.269531 439.191406 206.527344 "/>
<path style=" stroke:none;fill-rule:nonzero;fill:rgb(100%,84.3%,0%);fill-opacity:1;" d="M 275.324219 368.710938 C 275.324219 372.96875 268.9375 372.96875 268.9375 368.710938 C 268.9375 364.453125 275.324219 364.453125 275.324219 368.710938 "/>
<path style=" stroke:none;fill-rule:nonzero;fill:rgb(100%,84.3%,0%);fill-opacity:1;" d="M 389.304688 103.875 C 389.304688 108.132812 382.917969 108.132812 382.917969 103.875 C 382.917969 99.617188 389.304688 99.617188 389.304688 103.875 "/>
<path style=" stroke:none;fill-rule:nonzero;fill:rgb(100%,84.3%,0%);fill-opacity:1;" d="M 443.65625 406.277344 C 443.65625 410.535156 437.269531 410.535156 437.269531 406.277344 C 437.269531 402.019531 443.65625 402.019531 443.65625 406.277344 "/>
<path style=" stroke:none;fill-rule:nonzero;fill:rgb(100%,84.3%,0%);fill-opacity:1;" d="M 71.453125 266.6875 C 71.453125 270.945312 65.066406 270.945312 65.066406 266.6875 C 65.066406 262.429688 71.453125 262.429688 71.453125 266.6875 "/>
<path style=" stroke:none;fill-rule:nonzero;fill:rgb(100%,84.3%,0%);fill-opacity:1;" d="M 57.746094 139.210938 C 57.746094 143.46875 51.355469 143.46875 51.355469 139.210938 C 51.355469 134.953125 57.746094 134.953125 57.746094 139.210938 "/>
<path style=" stroke:none;fill-rule:nonzero;fill:rgb(100%,84.3%,0%);fill-opacity:1;" d="M 279.121094 413.589844 C 279.121094 417.847656 272.734375 417.847656 272.734375 413.589844 C 272.734375 409.328125 279.121094 409.328125 279.121094 413.589844 "/>
<path style=" stroke:none;fill-rule:nonzero;fill:rgb(100%,84.3%,0%);fill-opacity:1;" d="M 229.171875 51.117188 C 229.171875 55.375 222.785156 55.375 222.785156 51.117188 C 222.785156 46.859375 229.171875 46.859375 229.171875 51.117188 "/>
<path style=" stroke:none;fill-rule:nonzero;fill:rgb(100%,84.3%,0%);fill-opacity:1;" d="M 370.894531 75.203125 C 370.894531 79.460938 364.503906 79.460938 364.503906 75.203125 C 364.503906 70.945312 370.894531 70.945312 370.894531 75.203125 "/>
<path style=" stroke:none;fill-rule:nonzero;fill:rgb(100%,84.3%,0%);fill-opacity:1;" d="M 432.394531 112.734375 C 432.394531 116.996094 426.007812 116.996094 426.007812 112.734375 C 426.007812 108.476562 432.394531 108.476562 432.394531 112.734375 "/>
<path style=" stroke:none;fill-rule:nonzero;fill:rgb(100%,84.3%,0%);fill-opacity:1;" d="M 271.34375 57.125 C 271.34375 61.382812 264.957031 61.382812 264.957031 57.125 C 264.957031 52.867188 271.34375 52.867188 271.34375 57.125 "/>
<path style=" stroke:none;fill-rule:nonzero;fill:rgb(100%,84.3%,0%);fill-opacity:1;" d="M 257.28125 462.945312 C 257.28125 467.203125 250.894531 467.203125 250.894531 462.945312 C 250.894531 458.6875 257.28125 458.6875 257.28125 462.945312 "/>
<path style=" stroke:none;fill-rule:nonzero;fill:rgb(100%,84.3%,0%);fill-opacity:1;" d="M 70.957031 326.199219 C 70.957031 330.457031 64.570312 330.457031 64.570312 326.199219 C 64.570312 321.941406 70.957031 321.941406 70.957031 326.199219 "/>
<path style=" stroke:none;fill-rule:nonzero;fill:rgb(100%,84.3%,0%);fill-opacity:1;" d="M 86.085938 263.488281 C 86.085938 267.746094 79.699219 267.746094 79.699219 263.488281 C 79.699219 259.230469 86.085938 259.230469 86.085938 263.488281 "/>
<path style=" stroke:none;fill-rule:nonzero;fill:rgb(100%,84.3%,0%);fill-opacity:1;" d="M 418.117188 410.03125 C 418.117188 414.292969 411.726562 414.292969 411.726562 410.03125 C 411.726562 405.773438 418.117188 405.773438 418.117188 410.03125 "/>
<path style=" stroke:none;fill-rule:nonzero;fill:rgb(100%,84.3%,0%);fill-opacity:1;" d="M 53.875 303.742188 C 53.875 308 47.488281 308 47.488281 303.742188 C 47.488281 299.484375 53.875 299.484375 53.875 303.742188 "/>
<path style=" stroke:none;fill-rule:nonzero;fill:rgb(100%,84.3%,0%);fill-opacity:1;" d="M 365.667969 444.273438 C 365.667969 448.53125 359.28125 448.53125 359.28125 444.273438 C 359.28125 440.015625 365.667969 440.015625 365.667969 444.273438 "/>
<path style=" stroke:none;fill-rule:nonzero;fill:rgb(100%,84.3%,0%);fill-opacity:1;" d="M 81.433594 259.113281 C 81.433594 263.371094 75.046875 263.371094 75.046875 259.113281 C 75.046875 254.855469 81.433594 254.855469 81.433594 259.113281 "/>
<path style=" stroke:none;fill-rule:nonzero;fill:rgb(100%,84.3%,0%);fill-opacity:1;" d="M 79.351562 370.171875 C 79.351562 374.429688 72.960938 374.429688 72.960938 370.171875 C 72.960938 365.914062 79.351562 365.914062 79.351562 370.171875 "/>
<path style=" stroke:none;fill-rule:nonzero;fill:rgb(100%,84.3%,0%);fill-opacity:1;" d="M 244.644531 451.835938 C 244.644531 456.09375 238.257812 456.09375 238.257812 451.835938 C 238.257812 447.578125 244.644531 447.578125 244.644531 451.835938 "/>
<path style=" stroke:none;fill-rule:nonzero;fill:rgb(100%,84.3%,0%);fill-opacity:1;" d="M 63.648438 424.25 C 63.648438 428.507812 57.261719 428.507812 57.261719 424.25 C 57.261719 419.992188 63.648438 419.992188 63.648438 424.25 "/>
<path style=" stroke:none;fill-rule:nonzero;fill:rgb(100%,84.3%,0%);fill-opacity:1;" d="M 221.53125 56.007812 C 221.53125 60.265625 215.144531 60.265625 215.144531 56.007812 C 215.144531 51.75 221.53125 51.75 221.53125 56.007812 "/>
<path style=" stroke:none;fill-rule:nonzero;fill:rgb(100%,84.3%,0%);fill-opacity:1;" d="M 183.277344 53.808594 C 183.277344 58.066406 176.890625 58.066406 176.890625 53.808594 C 176.890625 49.550781 183.277344 49.550781 183.277344 53.808594 "/>
<path style=" stroke:none;fill-rule:nonzero;fill:rgb(100%,84.3%,0%);fill-opacity:1;" d="M 50.332031 280.898438 C 50.332031 285.15625 43.945312 285.15625 43.945312 280.898438 C 43.945312 276.640625 50.332031 276.640625 50.332031 280.898438 "/>
<path style=" stroke:none;fill-rule:nonzero;fill:rgb(100%,84.3%,0%);fill-opacity:1;" d="M 275.816406 458.253906 C 275.816406 462.511719 269.425781 462.511719 269.425781 458.253906 C 269.425781 453.996094 275.816406 453.996094 275.816406 458.253906 "/>
<path style=" stroke:none;fill-rule:nonzero;fill:rgb(100%,84.3%,0%);fill-opacity:1;" d="M 112.847656 456.90625 C 112.847656 461.164062 106.460938 461.164062 106.460938 456.90625 C 106.460938 452.648438 112.847656 452.648438 112.847656 456.90625 "/>
</g>
</svg>
