<?xml version="1.0" encoding="UTF-8"?>
<svg xmlns="http://www.w3.org/2000/svg" xmlns:xlink="http://www.w3.org/1999/xlink" width="512pt" height="512pt" viewBox="0 0 512 512" version="1.1">
<g id="surface186">
<path style=" stroke:none;fill-rule:nonzero;fill:rgb(26.7%,26.7%,26.7%);fill-opacity:1;" d="M 12.261719 0 L 499.734375 0 L 499.734375 512 L 12.261719 512 Z M 12.261719 0 "/>
<path style=" stroke:none;fill-rule:nonzero;fill:rgb(19.2%,38.8%,66.7%);fill-opacity:1;" d="M 52.886719 42.667969 L 459.113281 42.667969 L 459.113281 469.332031 L 52.886719 469.332031 Z M 52.886719 42.667969 "/>
<path style=" stroke:none;fill-rule:nonzero;fill:rgb(100%,100%,100%);fill-opacity:1;" d="M 4.980469 134.003906 C 4.980469 138.261719 -1.40625 138.261719 -1.40625 134.003906 C -1.40625 129.746094 4.980469 129.746094 4.980469 134.003906 "/>
<path style=" stroke:none;fill-rule:nonzero;fill:rgb(100%,100%,100%);fill-opacity:1;" d="M 167.21875 -2.042969 C 167.21875 2.214844 160.832031 2.214844 160.832031 -2.042969 C 160.832031 -6.300781 167.21875 -6.300781 167.21875 -2.042969 "/>
<path style=" stroke:none;fill-rule:nonzero;fill:rgb(100%,100%,100%);fill-opacity:1;" d="M 41.390625 14.5625 C 41.390625 18.820312 35.003906 18.820312 35.003906 14.5625 C 35.003906 10.304688 41.390625 10.304688 41.390625 14.5625 "/>
<path style=" stroke:none;fill-rule:nonzero;fill:rgb(100%,100%,100%);fill-opacity:1;" d="M 517.875 385.660156 C 517.875 389.917969 511.488281 389.917969 511.488281 385.660156 C 511.488281 381.402344 517.875 381.402344 517.875 385.660156 "/>
<path style=" stroke:none;fill-rule:nonzero;fill:rgb(100%,100%,100%);fill-opacity:1;" d="M 58.632812 502.546875 C 58.632812 506.804688 52.246094 506.804688 52.246094 502.546875 C 52.246094 498.289062 58.632812 498.289062 58.632812 502.546875 "/>
<path style=" stroke:none;fill-rule:nonzero;fill:rgb(100%,100%,100%);fill-opacity:1;" d="M 397.15625 6.898438 C 397.15625 11.15625 390.769531 11.15625 390.769531 6.898438 C 390.769531 2.640625 397.15625 2.640625 397.15625 6.898438 "/>
<path style=" stroke:none;fill-rule:nonzero;fill:rgb(100%,100%,100%);fill-opacity:1;" d="M 54.164062 25.421875 C 54.164062 29.679688 47.777344 29.679688 47.777344 25.421875 C 47.777344 21.164062 54.164062 21.164062 54.164062 25.421875 "/>
<path style=" stroke:none;fill-rule:nonzero;fill:rgb(100%,100%,100%);fill-opacity:1;" d="M 6.898438 299.433594 C 6.898438 303.691406 0.511719 303.691406 0.511719 299.433594 C 0.511719 295.175781 6.898438 295.175781 6.898438 299.433594 "/>
<path style=" stroke:none;fill-rule:nonzero;fill:rgb(100%,100%,100%);fill-opacity:1;" d="M 517.875 390.769531 C 517.875 395.027344 511.488281 395.027344 511.488281 390.769531 C 511.488281 386.511719 517.875 386.511719 517.875 390.769531 "/>
<path style=" stroke:none;fill-rule:nonzero;fill:rgb(100%,84.3%,0%);fill-opacity:1;" d="M 62.464844 76.40625 C 62.464844 80.664062 56.078125 80.664062 56.078125 76.40625 C 56.078125 72.148438 62.464844 72.148438 62.464844 76.40625 "/>
<path style=" stroke:none;fill-rule:nonzero;fill:rgb(100%,84.3%,0%);fill-opacity:1;" d="M 304.535156 402.960938 C 304.535156 407.21875 298.148438 407.21875 298.148438 402.960938 C 298.148438 398.703125 304.535156 398.703125 304.535156 402.960938 "/>
<path style=" stroke:none;fill-rule:nonzero;fill:rgb(100%,84.3%,0%);fill-opacity:1;" d="M 91.308594 49.054688 C 91.308594 53.3125 84.921875 53.3125 84.921875 49.054688 C 84.921875 44.796875 91.308594 44.796875 91.308594 49.054688 "/>
<path style=" stroke:none;fill-rule:nonzero;fill:rgb(100%,84.3%,0%);fill-opacity:1;" d="M 448.328125 49.054688 C 448.328125 53.3125 441.9375 53.3125 441.9375 49.054688 C 441.9375 44.796875 448.328125 44.796875 448.328125 49.054688 "/>
<path style=" stroke:none;fill-rule:nonzero;fill:rgb(100%,84.3%,0%);fill-opacity:1;" d="M 405.863281 460.316406 C 405.863281 464.574219 399.476562 464.574219 399.476562 460.316406 C 399.476562 456.058594 405.863281 456.058594 405.863281 460.316406 "/>
<path style=" stroke:none;fill-rule:nonzero;fill:rgb(100%,84.3%,0%);fill-opacity:1;" d="M 355.363281 92.652344 C 355.363281 96.910156 348.976562 96.910156 348.976562 92.652344 C 348.976562 88.394531 355.363281 88.394531 355.363281 92.652344 "/>
<path style=" stroke:none;fill-rule:nonzero;fill:rgb(100%,84.3%,0%);fill-opacity:1;" d="M 64.46875 431.800781 C 64.46875 436.058594 58.082031 436.058594 58.082031 431.800781 C 58.082031 427.542969 64.46875 427.542969 64.46875 431.800781 "/>
<path style=" stroke:none;fill-rule:nonzero;fill:rgb(100%,84.3%,0%);fill-opacity:1;" d="M 63.207031 458.34375 C 63.207031 462.601562 56.820312 462.601562 56.820312 458.34375 C 56.820312 454.085938 63.207031 454.085938 63.207031 458.34375 "/>
<path style=" stroke:none;fill-rule:nonzero;fill:rgb(100%,84.3%,0%);fill-opacity:1;" d="M 455.921875 90.003906 C 455.921875 94.261719 449.535156 94.261719 449.535156 90.003906 C 449.535156 85.746094 455.921875 85.746094 455.921875 90.003906 "/>
<path style=" stroke:none;fill-rule:nonzero;fill:rgb(100%,84.3%,0%);fill-opacity:1;" d="M 63.566406 358.292969 C 63.566406 362.550781 57.175781 362.550781 57.175781 358.292969 C 57.175781 354.035156 63.566406 354.035156 63.566406 358.292969 "/>
<path style=" stroke:none;fill-rule:nonzero;fill:rgb(100%,84.3%,0%);fill-opacity:1;" d="M 80.191406 50.316406 C 80.191406 54.574219 73.804688 54.574219 73.804688 50.316406 C 73.804688 46.058594 80.191406 46.058594 80.191406 50.316406 "/>
<path style=" stroke:none;fill-rule:nonzero;fill:rgb(100%,84.3%,0%);fill-opacity:1;" d="M 62.464844 59.578125 C 62.464844 63.835938 56.078125 63.835938 56.078125 59.578125 C 56.078125 55.320312 62.464844 55.320312 62.464844 59.578125 "/>
<path style=" stroke:none;fill-rule:nonzero;fill:rgb(100%,84.3%,0%);fill-opacity:1;" d="M 73.929688 49.054688 C 73.929688 53.3125 67.542969 53.3125 67.542969 49.054688 C 67.542969 44.796875 73.929688 44.796875 73.929688 49.054688 "/>
<path style=" stroke:none;fill-rule:nonzero;fill:rgb(100%,84.3%,0%);fill-opacity:1;" d="M 447.050781 201.898438 C 447.050781 206.15625 440.664062 206.15625 440.664062 201.898438 C 440.664062 197.640625 447.050781 197.640625 447.050781 201.898438 "/>
<path style=" stroke:none;fill-rule:nonzero;fill:rgb(100%,84.3%,0%);fill-opacity:1;" d="M 74.773438 456.714844 C 74.773438 460.972656 68.382812 460.972656 68.382812 456.714844 C 68.382812 452.453125 74.773438 452.453125 74.773438 456.714844 "/>
<path style=" stroke:none;fill-rule:nonzero;fill:rgb(100%,84.3%,0%);fill-opacity:1;" d="M 100.933594 49.054688 C 100.933594 53.3125 94.546875 53.3125 94.546875 49.054688 C 94.546875 44.796875 100.933594 44.796875 100.933594 49.054688 "/>
<path style=" stroke:none;fill-rule:nonzero;fill:rgb(100%,84.3%,0%);fill-opacity:1;" d="M 109.476562 49.054688 C 109.476562 53.3125 103.085938 53.3125 103.085938 49.054688 C 103.085938 44.796875 109.476562 44.796875 109.476562 49.054688 "/>
<path style=" stroke:none;fill-rule:nonzero;fill:rgb(100%,84.3%,0%);fill-opacity:1;" d="M 420.324219 454.691406 C 420.324219 458.949219 413.9375 458.949219 413.9375 454.691406 C 413.9375 450.433594 420.324219 450.433594 420.324219 454.691406 "/>
<path style=" stroke:none;fill-rule:nonzero;fill:rgb(100%,84.3%,0%);fill-opacity:1;" d="M 62.464844 94.175781 C 62.464844 98.433594 56.078125 98.433594 56.078125 94.175781 C 56.078125 89.917969 62.464844 89.917969 62.464844 94.175781 "/>
<path style=" stroke:none;fill-rule:nonzero;fill:rgb(100%,84.3%,0%);fill-opacity:1;" d="M 404.625 54.808594 C 404.625 59.066406 398.238281 59.066406 398.238281 54.808594 C 398.238281 50.550781 404.625 50.550781 404.625 54.808594 "/>
<path style=" stroke:none;fill-rule:nonzero;fill:rgb(100%,84.3%,0%);fill-opacity:1;" d="M 62.464844 49.054688 C 62.464844 53.3125 56.078125 53.3125 56.078125 49.054688 C 56.078125 44.796875 62.464844 44.796875 62.464844 49.054688 "/>
<path style=" stroke:none;fill-rule:nonzero;fill:rgb(100%,84.3%,0%);fill-opacity:1;" d="M 119.125 49.054688 C 119.125 53.3125 112.738281 53.3125 112.738281 49.054688 C 112.738281 44.796875 119.125 44.796875 119.125 49.054688 "/>
<path style=" stroke:none;fill-rule:nonzero;fill:rgb(100%,84.3%,0%);fill-opacity:1;" d="M 327.8125 462.664062 C 327.8125 466.925781 321.425781 466.925781 321.425781 462.664062 C 321.425781 458.40625 327.8125 458.40625 327.8125 462.664062 "/>
<path style=" stroke:none;fill-rule:nonzero;fill:rgb(100%,84.3%,0%);fill-opacity:1;" d="M 384.53125 59.824219 C 384.53125 64.082031 378.144531 64.082031 378.144531 59.824219 C 378.144531 55.566406 384.53125 55.566406 384.53125 59.824219 "/>
<path style=" stroke:none;fill-rule:nonzero;fill:rgb(100%,84.3%,0%);fill-opacity:1;" d="M 449.664062 195.113281 C 449.664062 199.371094 443.277344 199.371094 443.277344 195.113281 C 443.277344 190.855469 449.664062 190.855469 449.664062 195.113281 "/>
<path style=" stroke:none;fill-rule:nonzero;fill:rgb(100%,84.3%,0%);fill-opacity:1;" d="M 100.949219 462.945312 C 100.949219 467.203125 94.5625 467.203125 94.5625 462.945312 C 94.5625 458.6875 100.949219 458.6875 100.949219 462.945312 "/>
<path style=" stroke:none;fill-rule:nonzero;fill:rgb(100%,84.3%,0%);fill-opacity:1;" d="M 108.429688 462.945312 C 108.429688 467.203125 102.042969 467.203125 102.042969 462.945312 C 102.042969 458.6875 108.429688 458.6875 108.429688 462.945312 "/>
<path style=" stroke:none;fill-rule:nonzero;fill:rgb(100%,84.3%,0%);fill-opacity:1;" d="M 281.308594 459.46875 C 281.308594 463.726562 274.921875 463.726562 274.921875 459.46875 C 274.921875 455.207031 281.308594 455.207031 281.308594 459.46875 "/>
<path style=" stroke:none;fill-rule:nonzero;fill:rgb(100%,84.3%,0%);fill-opacity:1;" d="M 349.882812 461.699219 C 349.882812 465.957031 343.496094 465.957031 343.496094 461.699219 C 343.496094 457.441406 349.882812 457.441406 349.882812 461.699219 "/>
<path style=" stroke:none;fill-rule:nonzero;fill:rgb(100%,84.3%,0%);fill-opacity:1;" d="M 455.921875 425.480469 C 455.921875 429.738281 449.535156 429.738281 449.535156 425.480469 C 449.535156 421.222656 455.921875 421.222656 455.921875 425.480469 "/>
<path style=" stroke:none;fill-rule:nonzero;fill:rgb(100%,84.3%,0%);fill-opacity:1;" d="M 115.578125 462.945312 C 115.578125 467.203125 109.191406 467.203125 109.191406 462.945312 C 109.191406 458.6875 115.578125 458.6875 115.578125 462.945312 "/>
<path style=" stroke:none;fill-rule:nonzero;fill:rgb(100%,84.3%,0%);fill-opacity:1;" d="M 160.460938 49.058594 C 160.460938 53.316406 154.074219 53.316406 154.074219 49.058594 C 154.074219 44.800781 160.460938 44.800781 160.460938 49.058594 "/>
<path style=" stroke:none;fill-rule:nonzero;fill:rgb(100%,84.3%,0%);fill-opacity:1;" d="M 131.191406 49.058594 C 131.191406 53.316406 124.804688 53.316406 124.804688 49.058594 C 124.804688 44.800781 131.191406 44.800781 131.191406 49.058594 "/>
<path style=" stroke:none;fill-rule:nonzero;fill:rgb(100%,84.3%,0%);fill-opacity:1;" d="M 123.03125 462.945312 C 123.03125 467.203125 116.644531 467.203125 116.644531 462.945312 C 116.644531 458.6875 123.03125 458.6875 123.03125 462.945312 "/>
<path style=" stroke:none;fill-rule:nonzero;fill:rgb(100%,84.3%,0%);fill-opacity:1;" d="M 455.585938 96.53125 C 455.585938 100.789062 449.199219 100.789062 449.199219 96.53125 C 449.199219 92.273438 455.585938 92.273438 455.585938 96.53125 "/>
<path style=" stroke:none;fill-rule:nonzero;fill:rgb(100%,84.3%,0%);fill-opacity:1;" d="M 455.921875 104.902344 C 455.921875 109.160156 449.535156 109.160156 449.535156 104.902344 C 449.535156 100.644531 455.921875 100.644531 455.921875 104.902344 "/>
<path style=" stroke:none;fill-rule:nonzero;fill:rgb(100%,84.3%,0%);fill-opacity:1;" d="M 144.949219 49.054688 C 144.949219 53.3125 138.5625 53.3125 138.5625 49.054688 C 138.5625 44.796875 144.949219 44.796875 144.949219 49.054688 "/>
<path style=" stroke:none;fill-rule:nonzero;fill:rgb(100%,84.3%,0%);fill-opacity:1;" d="M 90.445312 457.289062 C 90.445312 461.546875 84.058594 461.546875 84.058594 457.289062 C 84.058594 453.03125 90.445312 453.03125 90.445312 457.289062 "/>
<path style=" stroke:none;fill-rule:nonzero;fill:rgb(100%,84.3%,0%);fill-opacity:1;" d="M 258.035156 462.832031 C 258.035156 467.089844 251.648438 467.089844 251.648438 462.832031 C 251.648438 458.574219 258.035156 458.574219 258.035156 462.832031 "/>
<path style=" stroke:none;fill-rule:nonzero;fill:rgb(100%,84.3%,0%);fill-opacity:1;" d="M 455.921875 79.496094 C 455.921875 83.753906 449.535156 83.753906 449.535156 79.496094 C 449.535156 75.238281 455.921875 75.238281 455.921875 79.496094 "/>
<path style=" stroke:none;fill-rule:nonzero;fill:rgb(100%,84.3%,0%);fill-opacity:1;" d="M 169.128906 49.121094 C 169.128906 53.378906 162.742188 53.378906 162.742188 49.121094 C 162.742188 44.863281 169.128906 44.863281 169.128906 49.121094 "/>
<path style=" stroke:none;fill-rule:nonzero;fill:rgb(100%,84.3%,0%);fill-opacity:1;" d="M 133.175781 462.945312 C 133.175781 467.203125 126.789062 467.203125 126.789062 462.945312 C 126.789062 458.6875 133.175781 458.6875 133.175781 462.945312 "/>
<path style=" stroke:none;fill-rule:nonzero;fill:rgb(100%,84.3%,0%);fill-opacity:1;" d="M 451.488281 399.441406 C 451.488281 403.699219 445.101562 403.699219 445.101562 399.441406 C 445.101562 395.183594 451.488281 395.183594 451.488281 399.441406 "/>
<path style=" stroke:none;fill-rule:nonzero;fill:rgb(100%,84.3%,0%);fill-opacity:1;" d="M 455.921875 448.011719 C 455.921875 452.269531 449.535156 452.269531 449.535156 448.011719 C 449.535156 443.753906 455.921875 443.753906 455.921875 448.011719 "/>
<path style=" stroke:none;fill-rule:nonzero;fill:rgb(100%,84.3%,0%);fill-opacity:1;" d="M 175.84375 49.054688 C 175.84375 53.3125 169.457031 53.3125 169.457031 49.054688 C 169.457031 44.796875 175.84375 44.796875 175.84375 49.054688 "/>
<path style=" stroke:none;fill-rule:nonzero;fill:rgb(100%,84.3%,0%);fill-opacity:1;" d="M 451.777344 152.007812 C 451.777344 156.265625 445.390625 156.265625 445.390625 152.007812 C 445.390625 147.75 451.777344 147.75 451.777344 152.007812 "/>
<path style=" stroke:none;fill-rule:nonzero;fill:rgb(100%,84.3%,0%);fill-opacity:1;" d="M 455.589844 165.410156 C 455.589844 169.667969 449.203125 169.667969 449.203125 165.410156 C 449.203125 161.152344 455.589844 161.152344 455.589844 165.410156 "/>
<path style=" stroke:none;fill-rule:nonzero;fill:rgb(100%,84.3%,0%);fill-opacity:1;" d="M 451.859375 85.074219 C 451.859375 89.332031 445.472656 89.332031 445.472656 85.074219 C 445.472656 80.816406 451.859375 80.816406 451.859375 85.074219 "/>
<path style=" stroke:none;fill-rule:nonzero;fill:rgb(100%,84.3%,0%);fill-opacity:1;" d="M 87.480469 462.945312 C 87.480469 467.203125 81.09375 467.203125 81.09375 462.945312 C 81.09375 458.6875 87.480469 458.6875 87.480469 462.945312 "/>
<path style=" stroke:none;fill-rule:nonzero;fill:rgb(100%,84.3%,0%);fill-opacity:1;" d="M 141.765625 462.945312 C 141.765625 467.203125 135.378906 467.203125 135.378906 462.945312 C 135.378906 458.6875 141.765625 458.6875 141.765625 462.945312 "/>
<path style=" stroke:none;fill-rule:nonzero;fill:rgb(100%,84.3%,0%);fill-opacity:1;" d="M 182.632812 49.503906 C 182.632812 53.761719 176.246094 53.761719 176.246094 49.503906 C 176.246094 45.246094 182.632812 45.246094 182.632812 49.503906 "/>
<path style=" stroke:none;fill-rule:nonzero;fill:rgb(100%,84.3%,0%);fill-opacity:1;" d="M 455.921875 462.601562 C 455.921875 466.859375 449.535156 466.859375 449.535156 462.601562 C 449.535156 458.34375 455.921875 458.34375 455.921875 462.601562 "/>
<path style=" stroke:none;fill-rule:nonzero;fill:rgb(100%,84.3%,0%);fill-opacity:1;" d="M 455.921875 179.058594 C 455.921875 183.316406 449.535156 183.316406 449.535156 179.058594 C 449.535156 174.800781 455.921875 174.800781 455.921875 179.058594 "/>
<path style=" stroke:none;fill-rule:nonzero;fill:rgb(100%,84.3%,0%);fill-opacity:1;" d="M 454.6875 276.214844 C 454.6875 280.472656 448.300781 280.472656 448.300781 276.214844 C 448.300781 271.957031 454.6875 271.957031 454.6875 276.214844 "/>
<path style=" stroke:none;fill-rule:nonzero;fill:rgb(100%,84.3%,0%);fill-opacity:1;" d="M 427.796875 77.738281 C 427.796875 82 421.410156 82 421.410156 77.738281 C 421.410156 73.480469 427.796875 73.480469 427.796875 77.738281 "/>
<path style=" stroke:none;fill-rule:nonzero;fill:rgb(100%,84.3%,0%);fill-opacity:1;" d="M 93.890625 451.910156 C 93.890625 456.167969 87.503906 456.167969 87.503906 451.910156 C 87.503906 447.652344 93.890625 447.652344 93.890625 451.910156 "/>
<path style=" stroke:none;fill-rule:nonzero;fill:rgb(100%,84.3%,0%);fill-opacity:1;" d="M 191.273438 49.054688 C 191.273438 53.3125 184.886719 53.3125 184.886719 49.054688 C 184.886719 44.796875 191.273438 44.796875 191.273438 49.054688 "/>
<path style=" stroke:none;fill-rule:nonzero;fill:rgb(100%,84.3%,0%);fill-opacity:1;" d="M 451.542969 412.496094 C 451.542969 416.753906 445.15625 416.753906 445.15625 412.496094 C 445.15625 408.238281 451.542969 408.238281 451.542969 412.496094 "/>
<path style=" stroke:none;fill-rule:nonzero;fill:rgb(100%,84.3%,0%);fill-opacity:1;" d="M 455.921875 131.980469 C 455.921875 136.238281 449.535156 136.238281 449.535156 131.980469 C 449.535156 127.722656 455.921875 127.722656 455.921875 131.980469 "/>
<path style=" stroke:none;fill-rule:nonzero;fill:rgb(100%,84.3%,0%);fill-opacity:1;" d="M 62.464844 125.871094 C 62.464844 130.132812 56.078125 130.132812 56.078125 125.871094 C 56.078125 121.613281 62.464844 121.613281 62.464844 125.871094 "/>
<path style=" stroke:none;fill-rule:nonzero;fill:rgb(100%,84.3%,0%);fill-opacity:1;" d="M 368.449219 460.609375 C 368.449219 464.867188 362.0625 464.867188 362.0625 460.609375 C 362.0625 456.351562 368.449219 456.351562 368.449219 460.609375 "/>
<path style=" stroke:none;fill-rule:nonzero;fill:rgb(100%,84.3%,0%);fill-opacity:1;" d="M 91.902344 283.78125 C 91.902344 288.042969 85.515625 288.042969 85.515625 283.78125 C 85.515625 279.523438 91.902344 279.523438 91.902344 283.78125 "/>
<path style=" stroke:none;fill-rule:nonzero;fill:rgb(100%,84.3%,0%);fill-opacity:1;" d="M 453.453125 437.511719 C 453.453125 441.769531 447.066406 441.769531 447.066406 437.511719 C 447.066406 433.253906 453.453125 433.253906 453.453125 437.511719 "/>
<path style=" stroke:none;fill-rule:nonzero;fill:rgb(100%,84.3%,0%);fill-opacity:1;" d="M 451.238281 458.257812 C 451.238281 462.515625 444.847656 462.515625 444.847656 458.257812 C 444.847656 454 451.238281 454 451.238281 458.257812 "/>
<path style=" stroke:none;fill-rule:nonzero;fill:rgb(100%,84.3%,0%);fill-opacity:1;" d="M 297.449219 445.316406 C 297.449219 449.574219 291.0625 449.574219 291.0625 445.316406 C 291.0625 441.058594 297.449219 441.058594 297.449219 445.316406 "/>
<path style=" stroke:none;fill-rule:nonzero;fill:rgb(100%,84.3%,0%);fill-opacity:1;" d="M 455.921875 115.546875 C 455.921875 119.804688 449.535156 119.804688 449.535156 115.546875 C 449.535156 111.289062 455.921875 111.289062 455.921875 115.546875 "/>
<path style=" stroke:none;fill-rule:nonzero;fill:rgb(100%,84.3%,0%);fill-opacity:1;" d="M 455.921875 287.863281 C 455.921875 292.121094 449.535156 292.121094 449.535156 287.863281 C 449.535156 283.605469 455.921875 283.605469 455.921875 287.863281 "/>
<path style=" stroke:none;fill-rule:nonzero;fill:rgb(100%,84.3%,0%);fill-opacity:1;" d="M 356.1875 462.945312 C 356.1875 467.203125 349.800781 467.203125 349.800781 462.945312 C 349.800781 458.6875 356.1875 458.6875 356.1875 462.945312 "/>
<path style=" stroke:none;fill-rule:nonzero;fill:rgb(100%,84.3%,0%);fill-opacity:1;" d="M 455.921875 267.59375 C 455.921875 271.851562 449.535156 271.851562 449.535156 267.59375 C 449.535156 263.335938 455.921875 263.335938 455.921875 267.59375 "/>
<path style=" stroke:none;fill-rule:nonzero;fill:rgb(100%,84.3%,0%);fill-opacity:1;" d="M 62.511719 114.261719 C 62.511719 118.519531 56.125 118.519531 56.125 114.261719 C 56.125 110.003906 62.511719 110.003906 62.511719 114.261719 "/>
<path style=" stroke:none;fill-rule:nonzero;fill:rgb(100%,84.3%,0%);fill-opacity:1;" d="M 449.605469 424.53125 C 449.605469 428.789062 443.214844 428.789062 443.214844 424.53125 C 443.214844 420.273438 449.605469 420.273438 449.605469 424.53125 "/>
<path style=" stroke:none;fill-rule:nonzero;fill:rgb(100%,84.3%,0%);fill-opacity:1;" d="M 450.253906 220.460938 C 450.253906 224.71875 443.867188 224.71875 443.867188 220.460938 C 443.867188 216.199219 450.253906 216.199219 450.253906 220.460938 "/>
<path style=" stroke:none;fill-rule:nonzero;fill:rgb(100%,84.3%,0%);fill-opacity:1;" d="M 455.921875 417.148438 C 455.921875 421.40625 449.535156 421.40625 449.535156 417.148438 C 449.535156 412.890625 455.921875 412.890625 455.921875 417.148438 "/>
<path style=" stroke:none;fill-rule:nonzero;fill:rgb(100%,84.3%,0%);fill-opacity:1;" d="M 62.464844 134.628906 C 62.464844 138.886719 56.078125 138.886719 56.078125 134.628906 C 56.078125 130.371094 62.464844 130.371094 62.464844 134.628906 "/>
<path style=" stroke:none;fill-rule:nonzero;fill:rgb(100%,84.3%,0%);fill-opacity:1;" d="M 448.3125 447.714844 C 448.3125 451.972656 441.925781 451.972656 441.925781 447.714844 C 441.925781 443.457031 448.3125 443.457031 448.3125 447.714844 "/>
<path style=" stroke:none;fill-rule:nonzero;fill:rgb(100%,84.3%,0%);fill-opacity:1;" d="M 455.921875 200.792969 C 455.921875 205.050781 449.535156 205.050781 449.535156 200.792969 C 449.535156 196.535156 455.921875 196.535156 455.921875 200.792969 "/>
<path style=" stroke:none;fill-rule:nonzero;fill:rgb(100%,84.3%,0%);fill-opacity:1;" d="M 205.140625 49.054688 C 205.140625 53.3125 198.753906 53.3125 198.753906 49.054688 C 198.753906 44.796875 205.140625 44.796875 205.140625 49.054688 "/>
<path style=" stroke:none;fill-rule:nonzero;fill:rgb(100%,84.3%,0%);fill-opacity:1;" d="M 455.921875 300.636719 C 455.921875 304.894531 449.535156 304.894531 449.535156 300.636719 C 449.535156 296.378906 455.921875 296.378906 455.921875 300.636719 "/>
<path style=" stroke:none;fill-rule:nonzero;fill:rgb(100%,84.3%,0%);fill-opacity:1;" d="M 455.921875 294.25 C 455.921875 298.507812 449.535156 298.507812 449.535156 294.25 C 449.535156 289.992188 455.921875 289.992188 455.921875 294.25 "/>
<path style=" stroke:none;fill-rule:nonzero;fill:rgb(100%,84.3%,0%);fill-opacity:1;" d="M 62.464844 236.191406 C 62.464844 240.449219 56.078125 240.449219 56.078125 236.191406 C 56.078125 231.933594 62.464844 231.933594 62.464844 236.191406 "/>
<path style=" stroke:none;fill-rule:nonzero;fill:rgb(100%,84.3%,0%);fill-opacity:1;" d="M 68.847656 454.324219 C 68.847656 458.582031 62.460938 458.582031 62.460938 454.324219 C 62.460938 450.066406 68.847656 450.066406 68.847656 454.324219 "/>
<path style=" stroke:none;fill-rule:nonzero;fill:rgb(100%,84.3%,0%);fill-opacity:1;" d="M 62.464844 104.5625 C 62.464844 108.820312 56.078125 108.820312 56.078125 104.5625 C 56.078125 100.304688 62.464844 100.304688 62.464844 104.5625 "/>
<path style=" stroke:none;fill-rule:nonzero;fill:rgb(100%,84.3%,0%);fill-opacity:1;" d="M 62.464844 347.296875 C 62.464844 351.554688 56.078125 351.554688 56.078125 347.296875 C 56.078125 343.039062 62.464844 343.039062 62.464844 347.296875 "/>
<path style=" stroke:none;fill-rule:nonzero;fill:rgb(100%,84.3%,0%);fill-opacity:1;" d="M 450.980469 389.734375 C 450.980469 393.996094 444.59375 393.996094 444.59375 389.734375 C 444.59375 385.476562 450.980469 385.476562 450.980469 389.734375 "/>
<path style=" stroke:none;fill-rule:nonzero;fill:rgb(100%,84.3%,0%);fill-opacity:1;" d="M 62.464844 271.828125 C 62.464844 276.085938 56.078125 276.085938 56.078125 271.828125 C 56.078125 267.570312 62.464844 267.570312 62.464844 271.828125 "/>
<path style=" stroke:none;fill-rule:nonzero;fill:rgb(100%,84.3%,0%);fill-opacity:1;" d="M 399.128906 49.054688 C 399.128906 53.3125 392.742188 53.3125 392.742188 49.054688 C 392.742188 44.796875 399.128906 44.796875 399.128906 49.054688 "/>
<path style=" stroke:none;fill-rule:nonzero;fill:rgb(100%,84.3%,0%);fill-opacity:1;" d="M 77.675781 451.023438 C 77.675781 455.28125 71.289062 455.28125 71.289062 451.023438 C 71.289062 446.765625 77.675781 446.765625 77.675781 451.023438 "/>
<path style=" stroke:none;fill-rule:nonzero;fill:rgb(100%,84.3%,0%);fill-opacity:1;" d="M 101.988281 451.910156 C 101.988281 456.167969 95.601562 456.167969 95.601562 451.910156 C 95.601562 447.652344 101.988281 447.652344 101.988281 451.910156 "/>
<path style=" stroke:none;fill-rule:nonzero;fill:rgb(100%,84.3%,0%);fill-opacity:1;" d="M 361.914062 460.121094 C 361.914062 464.378906 355.527344 464.378906 355.527344 460.121094 C 355.527344 455.863281 361.914062 455.863281 361.914062 460.121094 "/>
<path style=" stroke:none;fill-rule:nonzero;fill:rgb(100%,84.3%,0%);fill-opacity:1;" d="M 237.179688 456.558594 C 237.179688 460.816406 230.792969 460.816406 230.792969 456.558594 C 230.792969 452.300781 237.179688 452.300781 237.179688 456.558594 "/>
<path style=" stroke:none;fill-rule:nonzero;fill:rgb(100%,84.3%,0%);fill-opacity:1;" d="M 62.464844 263.113281 C 62.464844 267.371094 56.078125 267.371094 56.078125 263.113281 C 56.078125 258.855469 62.464844 258.855469 62.464844 263.113281 "/>
<path style=" stroke:none;fill-rule:nonzero;fill:rgb(100%,84.3%,0%);fill-opacity:1;" d="M 455.921875 365.101562 C 455.921875 369.359375 449.535156 369.359375 449.535156 365.101562 C 449.535156 360.84375 455.921875 360.84375 455.921875 365.101562 "/>
<path style=" stroke:none;fill-rule:nonzero;fill:rgb(100%,84.3%,0%);fill-opacity:1;" d="M 147.035156 55.746094 C 147.035156 60.003906 140.648438 60.003906 140.648438 55.746094 C 140.648438 51.488281 147.035156 51.488281 147.035156 55.746094 "/>
<path style=" stroke:none;fill-rule:nonzero;fill:rgb(100%,84.3%,0%);fill-opacity:1;" d="M 433.484375 452.390625 C 433.484375 456.648438 427.09375 456.648438 427.09375 452.390625 C 427.09375 448.132812 433.484375 448.132812 433.484375 452.390625 "/>
<path style=" stroke:none;fill-rule:nonzero;fill:rgb(100%,84.3%,0%);fill-opacity:1;" d="M 455.921875 307.023438 C 455.921875 311.28125 449.535156 311.28125 449.535156 307.023438 C 449.535156 302.765625 455.921875 302.765625 455.921875 307.023438 "/>
<path style=" stroke:none;fill-rule:nonzero;fill:rgb(100%,84.3%,0%);fill-opacity:1;" d="M 150.75 462.945312 C 150.75 467.203125 144.363281 467.203125 144.363281 462.945312 C 144.363281 458.6875 150.75 458.6875 150.75 462.945312 "/>
<path style=" stroke:none;fill-rule:nonzero;fill:rgb(100%,84.3%,0%);fill-opacity:1;" d="M 216.5 49.09375 C 216.5 53.351562 210.113281 53.351562 210.113281 49.09375 C 210.113281 44.832031 216.5 44.832031 216.5 49.09375 "/>
<path style=" stroke:none;fill-rule:nonzero;fill:rgb(100%,84.3%,0%);fill-opacity:1;" d="M 63.113281 252.363281 C 63.113281 256.621094 56.726562 256.621094 56.726562 252.363281 C 56.726562 248.105469 63.113281 248.105469 63.113281 252.363281 "/>
<path style=" stroke:none;fill-rule:nonzero;fill:rgb(100%,84.3%,0%);fill-opacity:1;" d="M 431.101562 182.011719 C 431.101562 186.269531 424.710938 186.269531 424.710938 182.011719 C 424.710938 177.753906 431.101562 177.753906 431.101562 182.011719 "/>
<path style=" stroke:none;fill-rule:nonzero;fill:rgb(100%,84.3%,0%);fill-opacity:1;" d="M 62.617188 243.976562 C 62.617188 248.234375 56.230469 248.234375 56.230469 243.976562 C 56.230469 239.71875 62.617188 239.71875 62.617188 243.976562 "/>
<path style=" stroke:none;fill-rule:nonzero;fill:rgb(100%,84.3%,0%);fill-opacity:1;" d="M 455.921875 313.410156 C 455.921875 317.667969 449.535156 317.667969 449.535156 313.410156 C 449.535156 309.152344 455.921875 309.152344 455.921875 313.410156 "/>
<path style=" stroke:none;fill-rule:nonzero;fill:rgb(100%,84.3%,0%);fill-opacity:1;" d="M 166.226562 462.945312 C 166.226562 467.203125 159.839844 467.203125 159.839844 462.945312 C 159.839844 458.6875 166.226562 458.6875 166.226562 462.945312 "/>
<path style=" stroke:none;fill-rule:nonzero;fill:rgb(100%,84.3%,0%);fill-opacity:1;" d="M 455.921875 256.6875 C 455.921875 260.945312 449.535156 260.945312 449.535156 256.6875 C 449.535156 252.429688 455.921875 252.429688 455.921875 256.6875 "/>
<path style=" stroke:none;fill-rule:nonzero;fill:rgb(100%,84.3%,0%);fill-opacity:1;" d="M 455.921875 147.144531 C 455.921875 151.402344 449.535156 151.402344 449.535156 147.144531 C 449.535156 142.886719 455.921875 142.886719 455.921875 147.144531 "/>
<path style=" stroke:none;fill-rule:nonzero;fill:rgb(100%,84.3%,0%);fill-opacity:1;" d="M 455.921875 319.796875 C 455.921875 324.054688 449.535156 324.054688 449.535156 319.796875 C 449.535156 315.539062 455.921875 315.539062 455.921875 319.796875 "/>
<path style=" stroke:none;fill-rule:nonzero;fill:rgb(100%,84.3%,0%);fill-opacity:1;" d="M 448.710938 187.285156 C 448.710938 191.542969 442.324219 191.542969 442.324219 187.285156 C 442.324219 183.027344 448.710938 183.027344 448.710938 187.285156 "/>
<path style=" stroke:none;fill-rule:nonzero;fill:rgb(100%,84.3%,0%);fill-opacity:1;" d="M 455.921875 326.183594 C 455.921875 330.441406 449.535156 330.441406 449.535156 326.183594 C 449.535156 321.925781 455.921875 321.925781 455.921875 326.183594 "/>
<path style=" stroke:none;fill-rule:nonzero;fill:rgb(100%,84.3%,0%);fill-opacity:1;" d="M 251.246094 462.945312 C 251.246094 467.203125 244.859375 467.203125 244.859375 462.945312 C 244.859375 458.6875 251.246094 458.6875 251.246094 462.945312 "/>
<path style=" stroke:none;fill-rule:nonzero;fill:rgb(100%,84.3%,0%);fill-opacity:1;" d="M 68.929688 209.941406 C 68.929688 214.199219 62.542969 214.199219 62.542969 209.941406 C 62.542969 205.683594 68.929688 205.683594 68.929688 209.941406 "/>
<path style=" stroke:none;fill-rule:nonzero;fill:rgb(100%,84.3%,0%);fill-opacity:1;" d="M 62.515625 229.34375 C 62.515625 233.601562 56.128906 233.601562 56.128906 229.34375 C 56.128906 225.085938 62.515625 225.085938 62.515625 229.34375 "/>
<path style=" stroke:none;fill-rule:nonzero;fill:rgb(100%,84.3%,0%);fill-opacity:1;" d="M 62.464844 219.09375 C 62.464844 223.351562 56.078125 223.351562 56.078125 219.09375 C 56.078125 214.832031 62.464844 214.832031 62.464844 219.09375 "/>
<path style=" stroke:none;fill-rule:nonzero;fill:rgb(100%,84.3%,0%);fill-opacity:1;" d="M 377.667969 462.265625 C 377.667969 466.523438 371.28125 466.523438 371.28125 462.265625 C 371.28125 458.003906 377.667969 458.003906 377.667969 462.265625 "/>
<path style=" stroke:none;fill-rule:nonzero;fill:rgb(100%,84.3%,0%);fill-opacity:1;" d="M 69.753906 250.144531 C 69.753906 254.402344 63.367188 254.402344 63.367188 250.144531 C 63.367188 245.886719 69.753906 245.886719 69.753906 250.144531 "/>
<path style=" stroke:none;fill-rule:nonzero;fill:rgb(100%,84.3%,0%);fill-opacity:1;" d="M 156.976562 461.5 C 156.976562 465.757812 150.589844 465.757812 150.589844 461.5 C 150.589844 457.242188 156.976562 457.242188 156.976562 461.5 "/>
<path style=" stroke:none;fill-rule:nonzero;fill:rgb(100%,84.3%,0%);fill-opacity:1;" d="M 455.921875 332.570312 C 455.921875 336.832031 449.535156 336.832031 449.535156 332.570312 C 449.535156 328.3125 455.921875 328.3125 455.921875 332.570312 "/>
<path style=" stroke:none;fill-rule:nonzero;fill:rgb(100%,84.3%,0%);fill-opacity:1;" d="M 62.464844 207.707031 C 62.464844 211.964844 56.078125 211.964844 56.078125 207.707031 C 56.078125 203.449219 62.464844 203.449219 62.464844 207.707031 "/>
<path style=" stroke:none;fill-rule:nonzero;fill:rgb(100%,84.3%,0%);fill-opacity:1;" d="M 66.382812 120.824219 C 66.382812 125.082031 59.996094 125.082031 59.996094 120.824219 C 59.996094 116.566406 66.382812 116.566406 66.382812 120.824219 "/>
<path style=" stroke:none;fill-rule:nonzero;fill:rgb(100%,84.3%,0%);fill-opacity:1;" d="M 445.527344 177.601562 C 445.527344 181.859375 439.140625 181.859375 439.140625 177.601562 C 439.140625 173.34375 445.527344 173.34375 445.527344 177.601562 "/>
<path style=" stroke:none;fill-rule:nonzero;fill:rgb(100%,84.3%,0%);fill-opacity:1;" d="M 224.980469 49.054688 C 224.980469 53.3125 218.59375 53.3125 218.59375 49.054688 C 218.59375 44.796875 224.980469 44.796875 224.980469 49.054688 "/>
<path style=" stroke:none;fill-rule:nonzero;fill:rgb(100%,84.3%,0%);fill-opacity:1;" d="M 455.921875 240.648438 C 455.921875 244.90625 449.535156 244.90625 449.535156 240.648438 C 449.535156 236.390625 455.921875 236.390625 455.921875 240.648438 "/>
<path style=" stroke:none;fill-rule:nonzero;fill:rgb(100%,84.3%,0%);fill-opacity:1;" d="M 383.960938 461.1875 C 383.960938 465.445312 377.574219 465.445312 377.574219 461.1875 C 377.574219 456.929688 383.960938 456.929688 383.960938 461.1875 "/>
<path style=" stroke:none;fill-rule:nonzero;fill:rgb(100%,84.3%,0%);fill-opacity:1;" d="M 80.824219 108.859375 C 80.824219 113.117188 74.4375 113.117188 74.4375 108.859375 C 74.4375 104.601562 80.824219 104.601562 80.824219 108.859375 "/>
<path style=" stroke:none;fill-rule:nonzero;fill:rgb(100%,84.3%,0%);fill-opacity:1;" d="M 422.777344 174.832031 C 422.777344 179.089844 416.390625 179.089844 416.390625 174.832031 C 416.390625 170.574219 422.777344 170.574219 422.777344 174.832031 "/>
<path style=" stroke:none;fill-rule:nonzero;fill:rgb(100%,84.3%,0%);fill-opacity:1;" d="M 136.285156 334.253906 C 136.285156 338.511719 129.894531 338.511719 129.894531 334.253906 C 129.894531 329.996094 136.285156 329.996094 136.285156 334.253906 "/>
<path style=" stroke:none;fill-rule:nonzero;fill:rgb(100%,84.3%,0%);fill-opacity:1;" d="M 63.3125 193.171875 C 63.3125 197.429688 56.925781 197.429688 56.925781 193.171875 C 56.925781 188.910156 63.3125 188.910156 63.3125 193.171875 "/>
<path style=" stroke:none;fill-rule:nonzero;fill:rgb(100%,84.3%,0%);fill-opacity:1;" d="M 455.921875 339.207031 C 455.921875 343.464844 449.535156 343.464844 449.535156 339.207031 C 449.535156 334.949219 455.921875 334.949219 455.921875 339.207031 "/>
<path style=" stroke:none;fill-rule:nonzero;fill:rgb(100%,84.3%,0%);fill-opacity:1;" d="M 318.386719 53.925781 C 318.386719 58.183594 312 58.183594 312 53.925781 C 312 49.667969 318.386719 49.667969 318.386719 53.925781 "/>
<path style=" stroke:none;fill-rule:nonzero;fill:rgb(100%,84.3%,0%);fill-opacity:1;" d="M 312.027344 453.621094 C 312.027344 457.878906 305.640625 457.878906 305.640625 453.621094 C 305.640625 449.363281 312.027344 449.363281 312.027344 453.621094 "/>
<path style=" stroke:none;fill-rule:nonzero;fill:rgb(100%,84.3%,0%);fill-opacity:1;" d="M 235.28125 49.054688 C 235.28125 53.3125 228.894531 53.3125 228.894531 49.054688 C 228.894531 44.796875 235.28125 44.796875 235.28125 49.054688 "/>
<path style=" stroke:none;fill-rule:nonzero;fill:rgb(100%,84.3%,0%);fill-opacity:1;" d="M 105.539062 457.222656 C 105.539062 461.480469 99.148438 461.480469 99.148438 457.222656 C 99.148438 452.964844 105.539062 452.964844 105.539062 457.222656 "/>
<path style=" stroke:none;fill-rule:nonzero;fill:rgb(100%,84.3%,0%);fill-opacity:1;" d="M 343.554688 460.832031 C 343.554688 465.089844 337.167969 465.089844 337.167969 460.832031 C 337.167969 456.574219 343.554688 456.574219 343.554688 460.832031 "/>
<path style=" stroke:none;fill-rule:nonzero;fill:rgb(100%,84.3%,0%);fill-opacity:1;" d="M 455.921875 345.59375 C 455.921875 349.851562 449.535156 349.851562 449.535156 345.59375 C 449.535156 341.335938 455.921875 341.335938 455.921875 345.59375 "/>
<path style=" stroke:none;fill-rule:nonzero;fill:rgb(100%,84.3%,0%);fill-opacity:1;" d="M 64.558594 88.140625 C 64.558594 92.398438 58.171875 92.398438 58.171875 88.140625 C 58.171875 83.882812 64.558594 83.882812 64.558594 88.140625 "/>
<path style=" stroke:none;fill-rule:nonzero;fill:rgb(100%,84.3%,0%);fill-opacity:1;" d="M 455.921875 351.980469 C 455.921875 356.238281 449.535156 356.238281 449.535156 351.980469 C 449.535156 347.722656 455.921875 347.722656 455.921875 351.980469 "/>
<path style=" stroke:none;fill-rule:nonzero;fill:rgb(100%,84.3%,0%);fill-opacity:1;" d="M 173.175781 462.945312 C 173.175781 467.203125 166.789062 467.203125 166.789062 462.945312 C 166.789062 458.6875 173.175781 458.6875 173.175781 462.945312 "/>
<path style=" stroke:none;fill-rule:nonzero;fill:rgb(100%,84.3%,0%);fill-opacity:1;" d="M 455.921875 157.074219 C 455.921875 161.335938 449.535156 161.335938 449.535156 157.074219 C 449.535156 152.816406 455.921875 152.816406 455.921875 157.074219 "/>
<path style=" stroke:none;fill-rule:nonzero;fill:rgb(100%,84.3%,0%);fill-opacity:1;" d="M 113.488281 456.910156 C 113.488281 461.167969 107.101562 461.167969 107.101562 456.910156 C 107.101562 452.652344 113.488281 452.652344 113.488281 456.910156 "/>
<path style=" stroke:none;fill-rule:nonzero;fill:rgb(100%,84.3%,0%);fill-opacity:1;" d="M 399.652344 461.796875 C 399.652344 466.054688 393.261719 466.054688 393.261719 461.796875 C 393.261719 457.539062 399.652344 457.539062 399.652344 461.796875 "/>
<path style=" stroke:none;fill-rule:nonzero;fill:rgb(100%,84.3%,0%);fill-opacity:1;" d="M 455.921875 123.96875 C 455.921875 128.226562 449.535156 128.226562 449.535156 123.96875 C 449.535156 119.707031 455.921875 119.707031 455.921875 123.96875 "/>
<path style=" stroke:none;fill-rule:nonzero;fill:rgb(100%,84.3%,0%);fill-opacity:1;" d="M 450.617188 227.722656 C 450.617188 231.980469 444.226562 231.980469 444.226562 227.722656 C 444.226562 223.464844 450.617188 223.464844 450.617188 227.722656 "/>
<path style=" stroke:none;fill-rule:nonzero;fill:rgb(100%,84.3%,0%);fill-opacity:1;" d="M 455.921875 62.265625 C 455.921875 66.523438 449.535156 66.523438 449.535156 62.265625 C 449.535156 58.007812 455.921875 58.007812 455.921875 62.265625 "/>
<path style=" stroke:none;fill-rule:nonzero;fill:rgb(100%,84.3%,0%);fill-opacity:1;" d="M 91.875 445.851562 C 91.875 450.109375 85.488281 450.109375 85.488281 445.851562 C 85.488281 441.59375 91.875 441.59375 91.875 445.851562 "/>
<path style=" stroke:none;fill-rule:nonzero;fill:rgb(100%,84.3%,0%);fill-opacity:1;" d="M 437.785156 244.355469 C 437.785156 248.613281 431.398438 248.613281 431.398438 244.355469 C 431.398438 240.097656 437.785156 240.097656 437.785156 244.355469 "/>
<path style=" stroke:none;fill-rule:nonzero;fill:rgb(100%,84.3%,0%);fill-opacity:1;" d="M 453.371094 250.832031 C 453.371094 255.089844 446.984375 255.089844 446.984375 250.832031 C 446.984375 246.574219 453.371094 246.574219 453.371094 250.832031 "/>
<path style=" stroke:none;fill-rule:nonzero;fill:rgb(100%,84.3%,0%);fill-opacity:1;" d="M 454.714844 49.054688 C 454.714844 53.3125 448.328125 53.3125 448.328125 49.054688 C 448.328125 44.796875 454.714844 44.796875 454.714844 49.054688 "/>
<path style=" stroke:none;fill-rule:nonzero;fill:rgb(100%,84.3%,0%);fill-opacity:1;" d="M 447.5625 405.242188 C 447.5625 409.5 441.175781 409.5 441.175781 405.242188 C 441.175781 400.984375 447.5625 400.984375 447.5625 405.242188 "/>
<path style=" stroke:none;fill-rule:nonzero;fill:rgb(100%,84.3%,0%);fill-opacity:1;" d="M 63.785156 391.976562 C 63.785156 396.234375 57.398438 396.234375 57.398438 391.976562 C 57.398438 387.71875 63.785156 387.71875 63.785156 391.976562 "/>
<path style=" stroke:none;fill-rule:nonzero;fill:rgb(100%,84.3%,0%);fill-opacity:1;" d="M 424.695312 462.511719 C 424.695312 466.769531 418.308594 466.769531 418.308594 462.511719 C 418.308594 458.253906 424.695312 458.253906 424.695312 462.511719 "/>
<path style=" stroke:none;fill-rule:nonzero;fill:rgb(100%,84.3%,0%);fill-opacity:1;" d="M 202.304688 54.777344 C 202.304688 59.035156 195.917969 59.035156 195.917969 54.777344 C 195.917969 50.519531 202.304688 50.519531 202.304688 54.777344 "/>
<path style=" stroke:none;fill-rule:nonzero;fill:rgb(100%,84.3%,0%);fill-opacity:1;" d="M 82.359375 196.316406 C 82.359375 200.574219 75.96875 200.574219 75.96875 196.316406 C 75.96875 192.058594 82.359375 192.058594 82.359375 196.316406 "/>
<path style=" stroke:none;fill-rule:nonzero;fill:rgb(100%,84.3%,0%);fill-opacity:1;" d="M 169.265625 397.070312 C 169.265625 401.328125 162.878906 401.328125 162.878906 397.070312 C 162.878906 392.8125 169.265625 392.8125 169.265625 397.070312 "/>
<path style=" stroke:none;fill-rule:nonzero;fill:rgb(100%,84.3%,0%);fill-opacity:1;" d="M 455.921875 232.269531 C 455.921875 236.527344 449.535156 236.527344 449.535156 232.269531 C 449.535156 228.011719 455.921875 228.011719 455.921875 232.269531 "/>
<path style=" stroke:none;fill-rule:nonzero;fill:rgb(100%,84.3%,0%);fill-opacity:1;" d="M 134.558594 54.488281 C 134.558594 58.746094 128.171875 58.746094 128.171875 54.488281 C 128.171875 50.230469 134.558594 50.230469 134.558594 54.488281 "/>
<path style=" stroke:none;fill-rule:nonzero;fill:rgb(100%,84.3%,0%);fill-opacity:1;" d="M 352.433594 49.113281 C 352.433594 53.371094 346.046875 53.371094 346.046875 49.113281 C 346.046875 44.855469 352.433594 44.855469 352.433594 49.113281 "/>
<path style=" stroke:none;fill-rule:nonzero;fill:rgb(100%,84.3%,0%);fill-opacity:1;" d="M 335.777344 462.21875 C 335.777344 466.476562 329.390625 466.476562 329.390625 462.21875 C 329.390625 457.960938 335.777344 457.960938 335.777344 462.21875 "/>
<path style=" stroke:none;fill-rule:nonzero;fill:rgb(100%,84.3%,0%);fill-opacity:1;" d="M 62.464844 141.203125 C 62.464844 145.460938 56.078125 145.460938 56.078125 141.203125 C 56.078125 136.945312 62.464844 136.945312 62.464844 141.203125 "/>
<path style=" stroke:none;fill-rule:nonzero;fill:rgb(100%,84.3%,0%);fill-opacity:1;" d="M 455.921875 217.511719 C 455.921875 221.769531 449.535156 221.769531 449.535156 217.511719 C 449.535156 213.253906 455.921875 213.253906 455.921875 217.511719 "/>
<path style=" stroke:none;fill-rule:nonzero;fill:rgb(100%,84.3%,0%);fill-opacity:1;" d="M 67.75 80 C 67.75 84.257812 61.363281 84.257812 61.363281 80 C 61.363281 75.742188 67.75 75.742188 67.75 80 "/>
<path style=" stroke:none;fill-rule:nonzero;fill:rgb(100%,84.3%,0%);fill-opacity:1;" d="M 183.960938 462.945312 C 183.960938 467.203125 177.574219 467.203125 177.574219 462.945312 C 177.574219 458.6875 183.960938 458.6875 183.960938 462.945312 "/>
<path style=" stroke:none;fill-rule:nonzero;fill:rgb(100%,84.3%,0%);fill-opacity:1;" d="M 455.921875 211.09375 C 455.921875 215.351562 449.535156 215.351562 449.535156 211.09375 C 449.535156 206.835938 455.921875 206.835938 455.921875 211.09375 "/>
<path style=" stroke:none;fill-rule:nonzero;fill:rgb(100%,84.3%,0%);fill-opacity:1;" d="M 132.816406 456.222656 C 132.816406 460.480469 126.429688 460.480469 126.429688 456.222656 C 126.429688 451.964844 132.816406 451.964844 132.816406 456.222656 "/>
<path style=" stroke:none;fill-rule:nonzero;fill:rgb(100%,84.3%,0%);fill-opacity:1;" d="M 312.917969 70.460938 C 312.917969 74.71875 306.53125 74.71875 306.53125 70.460938 C 306.53125 66.203125 312.917969 66.203125 312.917969 70.460938 "/>
<path style=" stroke:none;fill-rule:nonzero;fill:rgb(100%,84.3%,0%);fill-opacity:1;" d="M 390.851562 458.867188 C 390.851562 463.125 384.460938 463.125 384.460938 458.867188 C 384.460938 454.609375 390.851562 454.609375 390.851562 458.867188 "/>
<path style=" stroke:none;fill-rule:nonzero;fill:rgb(100%,84.3%,0%);fill-opacity:1;" d="M 443.355469 82.007812 C 443.355469 86.265625 436.96875 86.265625 436.96875 82.007812 C 436.96875 77.746094 443.355469 77.746094 443.355469 82.007812 "/>
<path style=" stroke:none;fill-rule:nonzero;fill:rgb(100%,84.3%,0%);fill-opacity:1;" d="M 455.921875 224.164062 C 455.921875 228.425781 449.535156 228.425781 449.535156 224.164062 C 449.535156 219.90625 455.921875 219.90625 455.921875 224.164062 "/>
<path style=" stroke:none;fill-rule:nonzero;fill:rgb(100%,84.3%,0%);fill-opacity:1;" d="M 66.25 71.261719 C 66.25 75.519531 59.863281 75.519531 59.863281 71.261719 C 59.863281 67.003906 66.25 67.003906 66.25 71.261719 "/>
<path style=" stroke:none;fill-rule:nonzero;fill:rgb(100%,84.3%,0%);fill-opacity:1;" d="M 196.585938 462.945312 C 196.585938 467.203125 190.199219 467.203125 190.199219 462.945312 C 190.199219 458.6875 196.585938 458.6875 196.585938 462.945312 "/>
<path style=" stroke:none;fill-rule:nonzero;fill:rgb(100%,84.3%,0%);fill-opacity:1;" d="M 208.109375 462.945312 C 208.109375 467.203125 201.722656 467.203125 201.722656 462.945312 C 201.722656 458.6875 208.109375 458.6875 208.109375 462.945312 "/>
<path style=" stroke:none;fill-rule:nonzero;fill:rgb(100%,84.3%,0%);fill-opacity:1;" d="M 437.234375 233.878906 C 437.234375 238.136719 430.847656 238.136719 430.847656 233.878906 C 430.847656 229.621094 437.234375 229.621094 437.234375 233.878906 "/>
<path style=" stroke:none;fill-rule:nonzero;fill:rgb(100%,84.3%,0%);fill-opacity:1;" d="M 97.535156 442.886719 C 97.535156 447.144531 91.144531 447.144531 91.144531 442.886719 C 91.144531 438.625 97.535156 438.625 97.535156 442.886719 "/>
<path style=" stroke:none;fill-rule:nonzero;fill:rgb(100%,84.3%,0%);fill-opacity:1;" d="M 124.988281 244.039062 C 124.988281 248.300781 118.601562 248.300781 118.601562 244.039062 C 118.601562 239.78125 124.988281 239.78125 124.988281 244.039062 "/>
<path style=" stroke:none;fill-rule:nonzero;fill:rgb(100%,84.3%,0%);fill-opacity:1;" d="M 438.261719 282.644531 C 438.261719 286.902344 431.875 286.902344 431.875 282.644531 C 431.875 278.386719 438.261719 278.386719 438.261719 282.644531 "/>
<path style=" stroke:none;fill-rule:nonzero;fill:rgb(100%,84.3%,0%);fill-opacity:1;" d="M 455.921875 186.828125 C 455.921875 191.085938 449.535156 191.085938 449.535156 186.828125 C 449.535156 182.570312 455.921875 182.570312 455.921875 186.828125 "/>
<path style=" stroke:none;fill-rule:nonzero;fill:rgb(100%,84.3%,0%);fill-opacity:1;" d="M 216.261719 462.945312 C 216.261719 467.203125 209.875 467.203125 209.875 462.945312 C 209.875 458.6875 216.261719 458.6875 216.261719 462.945312 "/>
<path style=" stroke:none;fill-rule:nonzero;fill:rgb(100%,84.3%,0%);fill-opacity:1;" d="M 338.816406 49.617188 C 338.816406 53.875 332.425781 53.875 332.425781 49.617188 C 332.425781 45.359375 338.816406 45.359375 338.816406 49.617188 "/>
<path style=" stroke:none;fill-rule:nonzero;fill:rgb(100%,84.3%,0%);fill-opacity:1;" d="M 455.921875 139.703125 C 455.921875 143.960938 449.535156 143.960938 449.535156 139.703125 C 449.535156 135.445312 455.921875 135.445312 455.921875 139.703125 "/>
<path style=" stroke:none;fill-rule:nonzero;fill:rgb(100%,84.3%,0%);fill-opacity:1;" d="M 62.820312 317.503906 C 62.820312 321.761719 56.429688 321.761719 56.429688 317.503906 C 56.429688 313.246094 62.820312 313.246094 62.820312 317.503906 "/>
<path style=" stroke:none;fill-rule:nonzero;fill:rgb(100%,84.3%,0%);fill-opacity:1;" d="M 325.082031 438.375 C 325.082031 442.632812 318.695312 442.632812 318.695312 438.375 C 318.695312 434.117188 325.082031 434.117188 325.082031 438.375 "/>
<path style=" stroke:none;fill-rule:nonzero;fill:rgb(100%,84.3%,0%);fill-opacity:1;" d="M 70.261719 296.316406 C 70.261719 300.574219 63.875 300.574219 63.875 296.316406 C 63.875 292.058594 70.261719 292.058594 70.261719 296.316406 "/>
<path style=" stroke:none;fill-rule:nonzero;fill:rgb(100%,84.3%,0%);fill-opacity:1;" d="M 71.632812 314.238281 C 71.632812 318.496094 65.246094 318.496094 65.246094 314.238281 C 65.246094 309.980469 71.632812 309.980469 71.632812 314.238281 "/>
<path style=" stroke:none;fill-rule:nonzero;fill:rgb(100%,84.3%,0%);fill-opacity:1;" d="M 435.753906 462.945312 C 435.753906 467.203125 429.367188 467.203125 429.367188 462.945312 C 429.367188 458.6875 435.753906 458.6875 435.753906 462.945312 "/>
<path style=" stroke:none;fill-rule:nonzero;fill:rgb(100%,84.3%,0%);fill-opacity:1;" d="M 68.96875 280.503906 C 68.96875 284.761719 62.582031 284.761719 62.582031 280.503906 C 62.582031 276.246094 68.96875 276.246094 68.96875 280.503906 "/>
<path style=" stroke:none;fill-rule:nonzero;fill:rgb(100%,84.3%,0%);fill-opacity:1;" d="M 249.765625 49.414062 C 249.765625 53.675781 243.378906 53.675781 243.378906 49.414062 C 243.378906 45.15625 249.765625 45.15625 249.765625 49.414062 "/>
<path style=" stroke:none;fill-rule:nonzero;fill:rgb(100%,84.3%,0%);fill-opacity:1;" d="M 215.265625 55.359375 C 215.265625 59.617188 208.878906 59.617188 208.878906 55.359375 C 208.878906 51.101562 215.265625 51.101562 215.265625 55.359375 "/>
<path style=" stroke:none;fill-rule:nonzero;fill:rgb(100%,84.3%,0%);fill-opacity:1;" d="M 315.457031 462.234375 C 315.457031 466.492188 309.070312 466.492188 309.070312 462.234375 C 309.070312 457.976562 315.457031 457.976562 315.457031 462.234375 "/>
<path style=" stroke:none;fill-rule:nonzero;fill:rgb(100%,84.3%,0%);fill-opacity:1;" d="M 62.511719 152.988281 C 62.511719 157.246094 56.125 157.246094 56.125 152.988281 C 56.125 148.730469 62.511719 148.730469 62.511719 152.988281 "/>
<path style=" stroke:none;fill-rule:nonzero;fill:rgb(100%,84.3%,0%);fill-opacity:1;" d="M 142.6875 455.832031 C 142.6875 460.089844 136.300781 460.089844 136.300781 455.832031 C 136.300781 451.574219 142.6875 451.574219 142.6875 455.832031 "/>
<path style=" stroke:none;fill-rule:nonzero;fill:rgb(100%,84.3%,0%);fill-opacity:1;" d="M 237.058594 462.945312 C 237.058594 467.203125 230.671875 467.203125 230.671875 462.945312 C 230.671875 458.6875 237.058594 458.6875 237.058594 462.945312 "/>
<path style=" stroke:none;fill-rule:nonzero;fill:rgb(100%,84.3%,0%);fill-opacity:1;" d="M 442.40625 272.007812 C 442.40625 276.265625 436.019531 276.265625 436.019531 272.007812 C 436.019531 267.75 442.40625 267.75 442.40625 272.007812 "/>
<path style=" stroke:none;fill-rule:nonzero;fill:rgb(100%,84.3%,0%);fill-opacity:1;" d="M 67.085938 258.699219 C 67.085938 262.957031 60.699219 262.957031 60.699219 258.699219 C 60.699219 254.441406 67.085938 254.441406 67.085938 258.699219 "/>
<path style=" stroke:none;fill-rule:nonzero;fill:rgb(100%,84.3%,0%);fill-opacity:1;" d="M 445.667969 260.566406 C 445.667969 264.824219 439.28125 264.824219 439.28125 260.566406 C 439.28125 256.308594 445.667969 256.308594 445.667969 260.566406 "/>
<path style=" stroke:none;fill-rule:nonzero;fill:rgb(100%,84.3%,0%);fill-opacity:1;" d="M 70.039062 222.148438 C 70.039062 226.40625 63.652344 226.40625 63.652344 222.148438 C 63.652344 217.890625 70.039062 217.890625 70.039062 222.148438 "/>
<path style=" stroke:none;fill-rule:nonzero;fill:rgb(100%,84.3%,0%);fill-opacity:1;" d="M 291.773438 49.199219 C 291.773438 53.457031 285.386719 53.457031 285.386719 49.199219 C 285.386719 44.941406 291.773438 44.941406 291.773438 49.199219 "/>
<path style=" stroke:none;fill-rule:nonzero;fill:rgb(100%,84.3%,0%);fill-opacity:1;" d="M 225.363281 462.945312 C 225.363281 467.203125 218.976562 467.203125 218.976562 462.945312 C 218.976562 458.6875 225.363281 458.6875 225.363281 462.945312 "/>
<path style=" stroke:none;fill-rule:nonzero;fill:rgb(100%,84.3%,0%);fill-opacity:1;" d="M 68.457031 290.191406 C 68.457031 294.449219 62.070312 294.449219 62.070312 290.191406 C 62.070312 285.933594 68.457031 285.933594 68.457031 290.191406 "/>
<path style=" stroke:none;fill-rule:nonzero;fill:rgb(100%,84.3%,0%);fill-opacity:1;" d="M 71 307.882812 C 71 312.140625 64.613281 312.140625 64.613281 307.882812 C 64.613281 303.625 71 303.625 71 307.882812 "/>
<path style=" stroke:none;fill-rule:nonzero;fill:rgb(100%,84.3%,0%);fill-opacity:1;" d="M 397.351562 455.839844 C 397.351562 460.097656 390.960938 460.097656 390.960938 455.839844 C 390.960938 451.578125 397.351562 451.578125 397.351562 455.839844 "/>
<path style=" stroke:none;fill-rule:nonzero;fill:rgb(100%,84.3%,0%);fill-opacity:1;" d="M 69.566406 194.480469 C 69.566406 198.738281 63.175781 198.738281 63.175781 194.480469 C 63.175781 190.222656 69.566406 190.222656 69.566406 194.480469 "/>
<path style=" stroke:none;fill-rule:nonzero;fill:rgb(100%,84.3%,0%);fill-opacity:1;" d="M 135.871094 60.738281 C 135.871094 64.996094 129.484375 64.996094 129.484375 60.738281 C 129.484375 56.480469 135.871094 56.480469 135.871094 60.738281 "/>
<path style=" stroke:none;fill-rule:nonzero;fill:rgb(100%,84.3%,0%);fill-opacity:1;" d="M 306 462.28125 C 306 466.539062 299.613281 466.539062 299.613281 462.28125 C 299.613281 458.023438 306 458.023438 306 462.28125 "/>
<path style=" stroke:none;fill-rule:nonzero;fill:rgb(100%,84.3%,0%);fill-opacity:1;" d="M 67.90625 145.4375 C 67.90625 149.695312 61.519531 149.695312 61.519531 145.4375 C 61.519531 141.179688 67.90625 141.179688 67.90625 145.4375 "/>
<path style=" stroke:none;fill-rule:nonzero;fill:rgb(100%,84.3%,0%);fill-opacity:1;" d="M 74.851562 212.335938 C 74.851562 216.59375 68.464844 216.59375 68.464844 212.335938 C 68.464844 208.078125 74.851562 208.078125 74.851562 212.335938 "/>
<path style=" stroke:none;fill-rule:nonzero;fill:rgb(100%,84.3%,0%);fill-opacity:1;" d="M 62.464844 171.257812 C 62.464844 175.515625 56.078125 175.515625 56.078125 171.257812 C 56.078125 167 62.464844 167 62.464844 171.257812 "/>
<path style=" stroke:none;fill-rule:nonzero;fill:rgb(100%,84.3%,0%);fill-opacity:1;" d="M 424.832031 440.605469 C 424.832031 444.863281 418.445312 444.863281 418.445312 440.605469 C 418.445312 436.347656 424.832031 436.347656 424.832031 440.605469 "/>
<path style=" stroke:none;fill-rule:nonzero;fill:rgb(100%,84.3%,0%);fill-opacity:1;" d="M 383.113281 49.054688 C 383.113281 53.3125 376.726562 53.3125 376.726562 49.054688 C 376.726562 44.796875 383.113281 44.796875 383.113281 49.054688 "/>
<path style=" stroke:none;fill-rule:nonzero;fill:rgb(100%,84.3%,0%);fill-opacity:1;" d="M 66.457031 322.753906 C 66.457031 327.011719 60.070312 327.011719 60.070312 322.753906 C 60.070312 318.496094 66.457031 318.496094 66.457031 322.753906 "/>
<path style=" stroke:none;fill-rule:nonzero;fill:rgb(100%,84.3%,0%);fill-opacity:1;" d="M 94.953125 320.382812 C 94.953125 324.640625 88.566406 324.640625 88.566406 320.382812 C 88.566406 316.125 94.953125 316.125 94.953125 320.382812 "/>
<path style=" stroke:none;fill-rule:nonzero;fill:rgb(100%,84.3%,0%);fill-opacity:1;" d="M 343.636719 385.5 C 343.636719 389.757812 337.25 389.757812 337.25 385.5 C 337.25 381.242188 343.636719 381.242188 343.636719 385.5 "/>
<path style=" stroke:none;fill-rule:nonzero;fill:rgb(100%,84.3%,0%);fill-opacity:1;" d="M 297.09375 462.179688 C 297.09375 466.4375 290.707031 466.4375 290.707031 462.179688 C 290.707031 457.921875 297.09375 457.921875 297.09375 462.179688 "/>
<path style=" stroke:none;fill-rule:nonzero;fill:rgb(100%,84.3%,0%);fill-opacity:1;" d="M 146.695312 450.859375 C 146.695312 455.117188 140.308594 455.117188 140.308594 450.859375 C 140.308594 446.601562 146.695312 446.601562 146.695312 450.859375 "/>
<path style=" stroke:none;fill-rule:nonzero;fill:rgb(100%,84.3%,0%);fill-opacity:1;" d="M 70.875 231.800781 C 70.875 236.058594 64.488281 236.058594 64.488281 231.800781 C 64.488281 227.539062 70.875 227.539062 70.875 231.800781 "/>
<path style=" stroke:none;fill-rule:nonzero;fill:rgb(100%,84.3%,0%);fill-opacity:1;" d="M 69.367188 185.558594 C 69.367188 189.816406 62.976562 189.816406 62.976562 185.558594 C 62.976562 181.300781 69.367188 181.300781 69.367188 185.558594 "/>
<path style=" stroke:none;fill-rule:nonzero;fill:rgb(100%,84.3%,0%);fill-opacity:1;" d="M 407.398438 49.054688 C 407.398438 53.3125 401.011719 53.3125 401.011719 49.054688 C 401.011719 44.796875 407.398438 44.796875 407.398438 49.054688 "/>
<path style=" stroke:none;fill-rule:nonzero;fill:rgb(100%,84.3%,0%);fill-opacity:1;" d="M 440.65625 107.035156 C 440.65625 111.292969 434.269531 111.292969 434.269531 107.035156 C 434.269531 102.777344 440.65625 102.777344 440.65625 107.035156 "/>
<path style=" stroke:none;fill-rule:nonzero;fill:rgb(100%,84.3%,0%);fill-opacity:1;" d="M 67.523438 129.777344 C 67.523438 134.035156 61.132812 134.035156 61.132812 129.777344 C 61.132812 125.519531 67.523438 125.519531 67.523438 129.777344 "/>
<path style=" stroke:none;fill-rule:nonzero;fill:rgb(100%,84.3%,0%);fill-opacity:1;" d="M 65.195312 403.742188 C 65.195312 408.003906 58.808594 408.003906 58.808594 403.742188 C 58.808594 399.484375 65.195312 399.484375 65.195312 403.742188 "/>
<path style=" stroke:none;fill-rule:nonzero;fill:rgb(100%,84.3%,0%);fill-opacity:1;" d="M 62.765625 298.316406 C 62.765625 302.574219 56.378906 302.574219 56.378906 298.316406 C 56.378906 294.058594 62.765625 294.058594 62.765625 298.316406 "/>
<path style=" stroke:none;fill-rule:nonzero;fill:rgb(100%,84.3%,0%);fill-opacity:1;" d="M 258.816406 49.054688 C 258.816406 53.3125 252.429688 53.3125 252.429688 49.054688 C 252.429688 44.796875 258.816406 44.796875 258.816406 49.054688 "/>
<path style=" stroke:none;fill-rule:nonzero;fill:rgb(100%,84.3%,0%);fill-opacity:1;" d="M 450.167969 284.828125 C 450.167969 289.085938 443.78125 289.085938 443.78125 284.828125 C 443.78125 280.570312 450.167969 280.570312 450.167969 284.828125 "/>
<path style=" stroke:none;fill-rule:nonzero;fill:rgb(100%,84.3%,0%);fill-opacity:1;" d="M 62.464844 177.871094 C 62.464844 182.128906 56.078125 182.128906 56.078125 177.871094 C 56.078125 173.613281 62.464844 173.613281 62.464844 177.871094 "/>
<path style=" stroke:none;fill-rule:nonzero;fill:rgb(100%,84.3%,0%);fill-opacity:1;" d="M 445.585938 153.578125 C 445.585938 157.839844 439.199219 157.839844 439.199219 153.578125 C 439.199219 149.320312 445.585938 149.320312 445.585938 153.578125 "/>
<path style=" stroke:none;fill-rule:nonzero;fill:rgb(100%,84.3%,0%);fill-opacity:1;" d="M 71.378906 85.253906 C 71.378906 89.511719 64.992188 89.511719 64.992188 85.253906 C 64.992188 80.996094 71.378906 80.996094 71.378906 85.253906 "/>
<path style=" stroke:none;fill-rule:nonzero;fill:rgb(100%,84.3%,0%);fill-opacity:1;" d="M 413.796875 49.054688 C 413.796875 53.3125 407.410156 53.3125 407.410156 49.054688 C 407.410156 44.796875 413.796875 44.796875 413.796875 49.054688 "/>
<path style=" stroke:none;fill-rule:nonzero;fill:rgb(100%,84.3%,0%);fill-opacity:1;" d="M 68.582031 274.058594 C 68.582031 278.316406 62.195312 278.316406 62.195312 274.058594 C 62.195312 269.800781 68.582031 269.800781 68.582031 274.058594 "/>
<path style=" stroke:none;fill-rule:nonzero;fill:rgb(100%,84.3%,0%);fill-opacity:1;" d="M 438.800781 96.589844 C 438.800781 100.847656 432.414062 100.847656 432.414062 96.589844 C 432.414062 92.328125 438.800781 92.328125 438.800781 96.589844 "/>
<path style=" stroke:none;fill-rule:nonzero;fill:rgb(100%,84.3%,0%);fill-opacity:1;" d="M 69.84375 103.011719 C 69.84375 107.269531 63.457031 107.269531 63.457031 103.011719 C 63.457031 98.753906 69.84375 98.753906 69.84375 103.011719 "/>
<path style=" stroke:none;fill-rule:nonzero;fill:rgb(100%,84.3%,0%);fill-opacity:1;" d="M 213.015625 61.335938 C 213.015625 65.59375 206.628906 65.59375 206.628906 61.335938 C 206.628906 57.078125 213.015625 57.078125 213.015625 61.335938 "/>
<path style=" stroke:none;fill-rule:nonzero;fill:rgb(100%,84.3%,0%);fill-opacity:1;" d="M 274.394531 49.054688 C 274.394531 53.3125 268.007812 53.3125 268.007812 49.054688 C 268.007812 44.796875 274.394531 44.796875 274.394531 49.054688 "/>
<path style=" stroke:none;fill-rule:nonzero;fill:rgb(100%,84.3%,0%);fill-opacity:1;" d="M 147.890625 62.074219 C 147.890625 66.332031 141.503906 66.332031 141.503906 62.074219 C 141.503906 57.816406 147.890625 57.816406 147.890625 62.074219 "/>
<path style=" stroke:none;fill-rule:nonzero;fill:rgb(100%,84.3%,0%);fill-opacity:1;" d="M 224.328125 55.601562 C 224.328125 59.859375 217.941406 59.859375 217.941406 55.601562 C 217.941406 51.34375 224.328125 51.34375 224.328125 55.601562 "/>
<path style=" stroke:none;fill-rule:nonzero;fill:rgb(100%,84.3%,0%);fill-opacity:1;" d="M 199.578125 60.550781 C 199.578125 64.808594 193.1875 64.808594 193.1875 60.550781 C 193.1875 56.292969 199.578125 56.292969 199.578125 60.550781 "/>
<path style=" stroke:none;fill-rule:nonzero;fill:rgb(100%,84.3%,0%);fill-opacity:1;" d="M 169.550781 454.550781 C 169.550781 458.808594 163.164062 458.808594 163.164062 454.550781 C 163.164062 450.292969 169.550781 450.292969 169.550781 454.550781 "/>
<path style=" stroke:none;fill-rule:nonzero;fill:rgb(100%,84.3%,0%);fill-opacity:1;" d="M 427.199219 56.152344 C 427.199219 60.410156 420.8125 60.410156 420.8125 56.152344 C 420.8125 51.894531 427.199219 51.894531 427.199219 56.152344 "/>
<path style=" stroke:none;fill-rule:nonzero;fill:rgb(100%,84.3%,0%);fill-opacity:1;" d="M 68.851562 93.945312 C 68.851562 98.203125 62.464844 98.203125 62.464844 93.945312 C 62.464844 89.6875 68.851562 89.6875 68.851562 93.945312 "/>
<path style=" stroke:none;fill-rule:nonzero;fill:rgb(100%,84.3%,0%);fill-opacity:1;" d="M 76.03125 104.601562 C 76.03125 108.859375 69.644531 108.859375 69.644531 104.601562 C 69.644531 100.34375 76.03125 100.34375 76.03125 104.601562 "/>
<path style=" stroke:none;fill-rule:nonzero;fill:rgb(100%,84.3%,0%);fill-opacity:1;" d="M 447.574219 67.425781 C 447.574219 71.683594 441.1875 71.683594 441.1875 67.425781 C 441.1875 63.167969 447.574219 63.167969 447.574219 67.425781 "/>
<path style=" stroke:none;fill-rule:nonzero;fill:rgb(100%,84.3%,0%);fill-opacity:1;" d="M 444.585938 278.488281 C 444.585938 282.746094 438.199219 282.746094 438.199219 278.488281 C 438.199219 274.230469 444.585938 274.230469 444.585938 278.488281 "/>
<path style=" stroke:none;fill-rule:nonzero;fill:rgb(100%,84.3%,0%);fill-opacity:1;" d="M 79.742188 154.320312 C 79.742188 158.582031 73.355469 158.582031 73.355469 154.320312 C 73.355469 150.0625 79.742188 150.0625 79.742188 154.320312 "/>
<path style=" stroke:none;fill-rule:nonzero;fill:rgb(100%,84.3%,0%);fill-opacity:1;" d="M 267.109375 49.113281 C 267.109375 53.371094 260.722656 53.371094 260.722656 49.113281 C 260.722656 44.855469 267.109375 44.855469 267.109375 49.113281 "/>
<path style=" stroke:none;fill-rule:nonzero;fill:rgb(100%,84.3%,0%);fill-opacity:1;" d="M 419.191406 443.601562 C 419.191406 447.859375 412.804688 447.859375 412.804688 443.601562 C 412.804688 439.34375 419.191406 439.34375 419.191406 443.601562 "/>
<path style=" stroke:none;fill-rule:nonzero;fill:rgb(100%,84.3%,0%);fill-opacity:1;" d="M 298.75 452.917969 C 298.75 457.175781 292.363281 457.175781 292.363281 452.917969 C 292.363281 448.660156 298.75 448.660156 298.75 452.917969 "/>
<path style=" stroke:none;fill-rule:nonzero;fill:rgb(100%,84.3%,0%);fill-opacity:1;" d="M 185.566406 55.257812 C 185.566406 59.515625 179.179688 59.515625 179.179688 55.257812 C 179.179688 51 185.566406 51 185.566406 55.257812 "/>
<path style=" stroke:none;fill-rule:nonzero;fill:rgb(100%,84.3%,0%);fill-opacity:1;" d="M 70.703125 114.695312 C 70.703125 118.953125 64.316406 118.953125 64.316406 114.695312 C 64.316406 110.4375 70.703125 110.4375 70.703125 114.695312 "/>
<path style=" stroke:none;fill-rule:nonzero;fill:rgb(100%,84.3%,0%);fill-opacity:1;" d="M 390.519531 55.832031 C 390.519531 60.089844 384.128906 60.089844 384.128906 55.832031 C 384.128906 51.574219 390.519531 51.574219 390.519531 55.832031 "/>
<path style=" stroke:none;fill-rule:nonzero;fill:rgb(100%,84.3%,0%);fill-opacity:1;" d="M 447.527344 239.128906 C 447.527344 243.386719 441.136719 243.386719 441.136719 239.128906 C 441.136719 234.871094 447.527344 234.871094 447.527344 239.128906 "/>
<path style=" stroke:none;fill-rule:nonzero;fill:rgb(100%,84.3%,0%);fill-opacity:1;" d="M 371.980469 49.480469 C 371.980469 53.738281 365.59375 53.738281 365.59375 49.480469 C 365.59375 45.222656 371.980469 45.222656 371.980469 49.480469 "/>
<path style=" stroke:none;fill-rule:nonzero;fill:rgb(100%,84.3%,0%);fill-opacity:1;" d="M 436.070312 49.054688 C 436.070312 53.3125 429.679688 53.3125 429.679688 49.054688 C 429.679688 44.796875 436.070312 44.796875 436.070312 49.054688 "/>
<path style=" stroke:none;fill-rule:nonzero;fill:rgb(100%,84.3%,0%);fill-opacity:1;" d="M 292.585938 427.179688 C 292.585938 431.4375 286.199219 431.4375 286.199219 427.179688 C 286.199219 422.921875 292.585938 422.921875 292.585938 427.179688 "/>
<path style=" stroke:none;fill-rule:nonzero;fill:rgb(100%,84.3%,0%);fill-opacity:1;" d="M 364.6875 49.054688 C 364.6875 53.3125 358.300781 53.3125 358.300781 49.054688 C 358.300781 44.796875 364.6875 44.796875 364.6875 49.054688 "/>
<path style=" stroke:none;fill-rule:nonzero;fill:rgb(100%,84.3%,0%);fill-opacity:1;" d="M 427.171875 49.054688 C 427.171875 53.3125 420.785156 53.3125 420.785156 49.054688 C 420.785156 44.796875 427.171875 44.796875 427.171875 49.054688 "/>
<path style=" stroke:none;fill-rule:nonzero;fill:rgb(100%,84.3%,0%);fill-opacity:1;" d="M 68.773438 239.71875 C 68.773438 243.976562 62.382812 243.976562 62.382812 239.71875 C 62.382812 235.460938 68.773438 235.460938 68.773438 239.71875 "/>
<path style=" stroke:none;fill-rule:nonzero;fill:rgb(100%,84.3%,0%);fill-opacity:1;" d="M 220.480469 445.832031 C 220.480469 450.089844 214.09375 450.089844 214.09375 445.832031 C 214.09375 441.574219 220.480469 441.574219 220.480469 445.832031 "/>
<path style=" stroke:none;fill-rule:nonzero;fill:rgb(100%,84.3%,0%);fill-opacity:1;" d="M 68.734375 345.066406 C 68.734375 349.324219 62.347656 349.324219 62.347656 345.066406 C 62.347656 340.808594 68.734375 340.808594 68.734375 345.066406 "/>
<path style=" stroke:none;fill-rule:nonzero;fill:rgb(100%,84.3%,0%);fill-opacity:1;" d="M 153.214844 449.363281 C 153.214844 453.621094 146.828125 453.621094 146.828125 449.363281 C 146.828125 445.105469 153.214844 445.105469 153.214844 449.363281 "/>
<path style=" stroke:none;fill-rule:nonzero;fill:rgb(100%,84.3%,0%);fill-opacity:1;" d="M 66.03125 202.230469 C 66.03125 206.488281 59.640625 206.488281 59.640625 202.230469 C 59.640625 197.972656 66.03125 197.972656 66.03125 202.230469 "/>
<path style=" stroke:none;fill-rule:nonzero;fill:rgb(100%,84.3%,0%);fill-opacity:1;" d="M 100.558594 55.429688 C 100.558594 59.6875 94.171875 59.6875 94.171875 55.429688 C 94.171875 51.171875 100.558594 51.171875 100.558594 55.429688 "/>
<path style=" stroke:none;fill-rule:nonzero;fill:rgb(100%,84.3%,0%);fill-opacity:1;" d="M 243.625 462.945312 C 243.625 467.203125 237.238281 467.203125 237.238281 462.945312 C 237.238281 458.6875 243.625 458.6875 243.625 462.945312 "/>
<path style=" stroke:none;fill-rule:nonzero;fill:rgb(100%,84.3%,0%);fill-opacity:1;" d="M 250.628906 55.867188 C 250.628906 60.128906 244.242188 60.128906 244.242188 55.867188 C 244.242188 51.609375 250.628906 51.609375 250.628906 55.867188 "/>
<path style=" stroke:none;fill-rule:nonzero;fill:rgb(100%,84.3%,0%);fill-opacity:1;" d="M 375.410156 55.023438 C 375.410156 59.28125 369.023438 59.28125 369.023438 55.023438 C 369.023438 50.765625 375.410156 50.765625 375.410156 55.023438 "/>
<path style=" stroke:none;fill-rule:nonzero;fill:rgb(100%,84.3%,0%);fill-opacity:1;" d="M 63.03125 415.414062 C 63.03125 419.671875 56.644531 419.671875 56.644531 415.414062 C 56.644531 411.15625 63.03125 411.15625 63.03125 415.414062 "/>
<path style=" stroke:none;fill-rule:nonzero;fill:rgb(100%,84.3%,0%);fill-opacity:1;" d="M 62.464844 184.488281 C 62.464844 188.746094 56.078125 188.746094 56.078125 184.488281 C 56.078125 180.230469 62.464844 180.230469 62.464844 184.488281 "/>
<path style=" stroke:none;fill-rule:nonzero;fill:rgb(100%,84.3%,0%);fill-opacity:1;" d="M 109.953125 55.570312 C 109.953125 59.828125 103.566406 59.828125 103.566406 55.570312 C 103.566406 51.3125 109.953125 51.3125 109.953125 55.570312 "/>
<path style=" stroke:none;fill-rule:nonzero;fill:rgb(100%,84.3%,0%);fill-opacity:1;" d="M 62.464844 287.84375 C 62.464844 292.101562 56.078125 292.101562 56.078125 287.84375 C 56.078125 283.582031 62.464844 283.582031 62.464844 287.84375 "/>
<path style=" stroke:none;fill-rule:nonzero;fill:rgb(100%,84.3%,0%);fill-opacity:1;" d="M 62.464844 311.128906 C 62.464844 315.386719 56.078125 315.386719 56.078125 311.128906 C 56.078125 306.867188 62.464844 306.867188 62.464844 311.128906 "/>
<path style=" stroke:none;fill-rule:nonzero;fill:rgb(100%,84.3%,0%);fill-opacity:1;" d="M 72.71875 55.324219 C 72.71875 59.582031 66.332031 59.582031 66.332031 55.324219 C 66.332031 51.066406 72.71875 51.066406 72.71875 55.324219 "/>
<path style=" stroke:none;fill-rule:nonzero;fill:rgb(100%,84.3%,0%);fill-opacity:1;" d="M 64.585938 385.066406 C 64.585938 389.324219 58.199219 389.324219 58.199219 385.066406 C 58.199219 380.808594 64.585938 380.808594 64.585938 385.066406 "/>
<path style=" stroke:none;fill-rule:nonzero;fill:rgb(100%,84.3%,0%);fill-opacity:1;" d="M 125.523438 448.707031 C 125.523438 452.964844 119.136719 452.964844 119.136719 448.707031 C 119.136719 444.449219 125.523438 444.449219 125.523438 448.707031 "/>
<path style=" stroke:none;fill-rule:nonzero;fill:rgb(100%,84.3%,0%);fill-opacity:1;" d="M 128.582031 65.277344 C 128.582031 69.535156 122.195312 69.535156 122.195312 65.277344 C 122.195312 61.019531 128.582031 61.019531 128.582031 65.277344 "/>
<path style=" stroke:none;fill-rule:nonzero;fill:rgb(100%,84.3%,0%);fill-opacity:1;" d="M 71.800781 157.855469 C 71.800781 162.113281 65.414062 162.113281 65.414062 157.855469 C 65.414062 153.597656 71.800781 153.597656 71.800781 157.855469 "/>
<path style=" stroke:none;fill-rule:nonzero;fill:rgb(100%,84.3%,0%);fill-opacity:1;" d="M 161.476562 55.363281 C 161.476562 59.621094 155.089844 59.621094 155.089844 55.363281 C 155.089844 51.105469 161.476562 51.105469 161.476562 55.363281 "/>
<path style=" stroke:none;fill-rule:nonzero;fill:rgb(100%,84.3%,0%);fill-opacity:1;" d="M 370.945312 452.792969 C 370.945312 457.050781 364.558594 457.050781 364.558594 452.792969 C 364.558594 448.535156 370.945312 448.535156 370.945312 452.792969 "/>
<path style=" stroke:none;fill-rule:nonzero;fill:rgb(100%,84.3%,0%);fill-opacity:1;" d="M 446.097656 74.523438 C 446.097656 78.78125 439.710938 78.78125 439.710938 74.523438 C 439.710938 70.265625 446.097656 70.265625 446.097656 74.523438 "/>
<path style=" stroke:none;fill-rule:nonzero;fill:rgb(100%,84.3%,0%);fill-opacity:1;" d="M 443.523438 250.207031 C 443.523438 254.464844 437.136719 254.464844 437.136719 250.207031 C 437.136719 245.949219 443.523438 245.949219 443.523438 250.207031 "/>
<path style=" stroke:none;fill-rule:nonzero;fill:rgb(100%,84.3%,0%);fill-opacity:1;" d="M 76.359375 462.945312 C 76.359375 467.203125 69.972656 467.203125 69.972656 462.945312 C 69.972656 458.6875 76.359375 458.6875 76.359375 462.945312 "/>
<path style=" stroke:none;fill-rule:nonzero;fill:rgb(100%,84.3%,0%);fill-opacity:1;" d="M 78.769531 168.175781 C 78.769531 172.433594 72.382812 172.433594 72.382812 168.175781 C 72.382812 163.917969 78.769531 163.917969 78.769531 168.175781 "/>
<path style=" stroke:none;fill-rule:nonzero;fill:rgb(100%,84.3%,0%);fill-opacity:1;" d="M 77.21875 98.324219 C 77.21875 102.585938 70.832031 102.585938 70.832031 98.324219 C 70.832031 94.066406 77.21875 94.066406 77.21875 98.324219 "/>
<path style=" stroke:none;fill-rule:nonzero;fill:rgb(100%,84.3%,0%);fill-opacity:1;" d="M 71.867188 361.148438 C 71.867188 365.40625 65.476562 365.40625 65.476562 361.148438 C 65.476562 356.890625 71.867188 356.890625 71.867188 361.148438 "/>
<path style=" stroke:none;fill-rule:nonzero;fill:rgb(100%,84.3%,0%);fill-opacity:1;" d="M 406.195312 329.980469 C 406.195312 334.238281 399.808594 334.238281 399.808594 329.980469 C 399.808594 325.722656 406.195312 325.722656 406.195312 329.980469 "/>
<path style=" stroke:none;fill-rule:nonzero;fill:rgb(100%,84.3%,0%);fill-opacity:1;" d="M 83.648438 273.074219 C 83.648438 277.332031 77.261719 277.332031 77.261719 273.074219 C 77.261719 268.816406 83.648438 268.816406 83.648438 273.074219 "/>
<path style=" stroke:none;fill-rule:nonzero;fill:rgb(100%,84.3%,0%);fill-opacity:1;" d="M 450.621094 143.269531 C 450.621094 147.527344 444.234375 147.527344 444.234375 143.269531 C 444.234375 139.011719 450.621094 139.011719 450.621094 143.269531 "/>
<path style=" stroke:none;fill-rule:nonzero;fill:rgb(100%,84.3%,0%);fill-opacity:1;" d="M 89.570312 55.300781 C 89.570312 59.558594 83.183594 59.558594 83.183594 55.300781 C 83.183594 51.042969 89.570312 51.042969 89.570312 55.300781 "/>
<path style=" stroke:none;fill-rule:nonzero;fill:rgb(100%,84.3%,0%);fill-opacity:1;" d="M 88.785156 289.359375 C 88.785156 293.617188 82.398438 293.617188 82.398438 289.359375 C 82.398438 285.101562 88.785156 285.101562 88.785156 289.359375 "/>
<path style=" stroke:none;fill-rule:nonzero;fill:rgb(100%,84.3%,0%);fill-opacity:1;" d="M 63.761719 159.253906 C 63.761719 163.511719 57.375 163.511719 57.375 159.253906 C 57.375 154.992188 63.761719 154.992188 63.761719 159.253906 "/>
<path style=" stroke:none;fill-rule:nonzero;fill:rgb(100%,84.3%,0%);fill-opacity:1;" d="M 68.472656 412.066406 C 68.472656 416.324219 62.085938 416.324219 62.085938 412.066406 C 62.085938 407.808594 68.472656 407.808594 68.472656 412.066406 "/>
<path style=" stroke:none;fill-rule:nonzero;fill:rgb(100%,84.3%,0%);fill-opacity:1;" d="M 202.167969 459.453125 C 202.167969 463.710938 195.78125 463.710938 195.78125 459.453125 C 195.78125 455.195312 202.167969 455.195312 202.167969 459.453125 "/>
<path style=" stroke:none;fill-rule:nonzero;fill:rgb(100%,84.3%,0%);fill-opacity:1;" d="M 436.574219 126.246094 C 436.574219 130.503906 430.1875 130.503906 430.1875 126.246094 C 430.1875 121.988281 436.574219 121.988281 436.574219 126.246094 "/>
<path style=" stroke:none;fill-rule:nonzero;fill:rgb(100%,84.3%,0%);fill-opacity:1;" d="M 449.507812 265.667969 C 449.507812 269.925781 443.121094 269.925781 443.121094 265.667969 C 443.121094 261.410156 449.507812 261.410156 449.507812 265.667969 "/>
<path style=" stroke:none;fill-rule:nonzero;fill:rgb(100%,84.3%,0%);fill-opacity:1;" d="M 223.890625 451.980469 C 223.890625 456.238281 217.503906 456.238281 217.503906 451.980469 C 217.503906 447.722656 223.890625 447.722656 223.890625 451.980469 "/>
<path style=" stroke:none;fill-rule:nonzero;fill:rgb(100%,84.3%,0%);fill-opacity:1;" d="M 395.308594 70.523438 C 395.308594 74.78125 388.921875 74.78125 388.921875 70.523438 C 388.921875 66.265625 395.308594 66.265625 395.308594 70.523438 "/>
<path style=" stroke:none;fill-rule:nonzero;fill:rgb(100%,84.3%,0%);fill-opacity:1;" d="M 455.921875 171.96875 C 455.921875 176.226562 449.535156 176.226562 449.535156 171.96875 C 449.535156 167.707031 455.921875 167.707031 455.921875 171.96875 "/>
<path style=" stroke:none;fill-rule:nonzero;fill:rgb(100%,84.3%,0%);fill-opacity:1;" d="M 72.066406 386.609375 C 72.066406 390.871094 65.675781 390.871094 65.675781 386.609375 C 65.675781 382.351562 72.066406 382.351562 72.066406 386.609375 "/>
<path style=" stroke:none;fill-rule:nonzero;fill:rgb(100%,84.3%,0%);fill-opacity:1;" d="M 435.652344 164.117188 C 435.652344 168.378906 429.265625 168.378906 429.265625 164.117188 C 429.265625 159.859375 435.652344 159.859375 435.652344 164.117188 "/>
<path style=" stroke:none;fill-rule:nonzero;fill:rgb(100%,84.3%,0%);fill-opacity:1;" d="M 441.183594 135.570312 C 441.183594 139.828125 434.796875 139.828125 434.796875 135.570312 C 434.796875 131.3125 441.183594 131.3125 441.183594 135.570312 "/>
<path style=" stroke:none;fill-rule:nonzero;fill:rgb(100%,84.3%,0%);fill-opacity:1;" d="M 100.296875 245.332031 C 100.296875 249.589844 93.910156 249.589844 93.910156 245.332031 C 93.910156 241.074219 100.296875 241.074219 100.296875 245.332031 "/>
<path style=" stroke:none;fill-rule:nonzero;fill:rgb(100%,84.3%,0%);fill-opacity:1;" d="M 433.484375 73.191406 C 433.484375 77.449219 427.097656 77.449219 427.097656 73.191406 C 427.097656 68.933594 433.484375 68.933594 433.484375 73.191406 "/>
<path style=" stroke:none;fill-rule:nonzero;fill:rgb(100%,84.3%,0%);fill-opacity:1;" d="M 135.632812 440.429688 C 135.632812 444.6875 129.246094 444.6875 129.246094 440.429688 C 129.246094 436.171875 135.632812 436.171875 135.632812 440.429688 "/>
<path style=" stroke:none;fill-rule:nonzero;fill:rgb(100%,84.3%,0%);fill-opacity:1;" d="M 440.980469 118.375 C 440.980469 122.632812 434.59375 122.632812 434.59375 118.375 C 434.59375 114.117188 440.980469 114.117188 440.980469 118.375 "/>
<path style=" stroke:none;fill-rule:nonzero;fill:rgb(100%,84.3%,0%);fill-opacity:1;" d="M 378.671875 388.652344 C 378.671875 392.914062 372.285156 392.914062 372.285156 388.652344 C 372.285156 384.394531 378.671875 384.394531 378.671875 388.652344 "/>
<path style=" stroke:none;fill-rule:nonzero;fill:rgb(100%,84.3%,0%);fill-opacity:1;" d="M 84.085938 190.167969 C 84.085938 194.425781 77.699219 194.425781 77.699219 190.167969 C 77.699219 185.910156 84.085938 185.910156 84.085938 190.167969 "/>
<path style=" stroke:none;fill-rule:nonzero;fill:rgb(100%,84.3%,0%);fill-opacity:1;" d="M 84.011719 449.136719 C 84.011719 453.394531 77.625 453.394531 77.625 449.136719 C 77.625 444.878906 84.011719 444.878906 84.011719 449.136719 "/>
<path style=" stroke:none;fill-rule:nonzero;fill:rgb(100%,84.3%,0%);fill-opacity:1;" d="M 139.847656 447.394531 C 139.847656 451.652344 133.460938 451.652344 133.460938 447.394531 C 133.460938 443.136719 139.847656 443.136719 139.847656 447.394531 "/>
<path style=" stroke:none;fill-rule:nonzero;fill:rgb(100%,84.3%,0%);fill-opacity:1;" d="M 452.96875 431.144531 C 452.96875 435.402344 446.582031 435.402344 446.582031 431.144531 C 446.582031 426.886719 452.96875 426.886719 452.96875 431.144531 "/>
<path style=" stroke:none;fill-rule:nonzero;fill:rgb(100%,84.3%,0%);fill-opacity:1;" d="M 191.789062 458.726562 C 191.789062 462.984375 185.402344 462.984375 185.402344 458.726562 C 185.402344 454.46875 191.789062 454.46875 191.789062 458.726562 "/>
<path style=" stroke:none;fill-rule:nonzero;fill:rgb(100%,84.3%,0%);fill-opacity:1;" d="M 355.929688 61.332031 C 355.929688 65.589844 349.542969 65.589844 349.542969 61.332031 C 349.542969 57.074219 355.929688 57.074219 355.929688 61.332031 "/>
<path style=" stroke:none;fill-rule:nonzero;fill:rgb(100%,84.3%,0%);fill-opacity:1;" d="M 404.234375 187.859375 C 404.234375 192.117188 397.847656 192.117188 397.847656 187.859375 C 397.847656 183.601562 404.234375 183.601562 404.234375 187.859375 "/>
<path style=" stroke:none;fill-rule:nonzero;fill:rgb(100%,84.3%,0%);fill-opacity:1;" d="M 317.457031 363.457031 C 317.457031 367.714844 311.070312 367.714844 311.070312 363.457031 C 311.070312 359.199219 317.457031 359.199219 317.457031 363.457031 "/>
<path style=" stroke:none;fill-rule:nonzero;fill:rgb(100%,84.3%,0%);fill-opacity:1;" d="M 327.667969 456.28125 C 327.667969 460.539062 321.28125 460.539062 321.28125 456.28125 C 321.28125 452.023438 327.667969 452.023438 327.667969 456.28125 "/>
<path style=" stroke:none;fill-rule:nonzero;fill:rgb(100%,84.3%,0%);fill-opacity:1;" d="M 238.511719 435.144531 C 238.511719 439.402344 232.125 439.402344 232.125 435.144531 C 232.125 430.886719 238.511719 430.886719 238.511719 435.144531 "/>
<path style=" stroke:none;fill-rule:nonzero;fill:rgb(100%,84.3%,0%);fill-opacity:1;" d="M 390.039062 81.878906 C 390.039062 86.136719 383.648438 86.136719 383.648438 81.878906 C 383.648438 77.617188 390.039062 77.617188 390.039062 81.878906 "/>
<path style=" stroke:none;fill-rule:nonzero;fill:rgb(100%,84.3%,0%);fill-opacity:1;" d="M 172.242188 422.113281 C 172.242188 426.371094 165.855469 426.371094 165.855469 422.113281 C 165.855469 417.855469 172.242188 417.855469 172.242188 422.113281 "/>
<path style=" stroke:none;fill-rule:nonzero;fill:rgb(100%,84.3%,0%);fill-opacity:1;" d="M 201.449219 404.023438 C 201.449219 408.28125 195.058594 408.28125 195.058594 404.023438 C 195.058594 399.765625 201.449219 399.765625 201.449219 404.023438 "/>
<path style=" stroke:none;fill-rule:nonzero;fill:rgb(100%,84.3%,0%);fill-opacity:1;" d="M 352.261719 56.105469 C 352.261719 60.363281 345.875 60.363281 345.875 56.105469 C 345.875 51.847656 352.261719 51.847656 352.261719 56.105469 "/>
<path style=" stroke:none;fill-rule:nonzero;fill:rgb(100%,84.3%,0%);fill-opacity:1;" d="M 455.921875 193.824219 C 455.921875 198.085938 449.535156 198.085938 449.535156 193.824219 C 449.535156 189.566406 455.921875 189.566406 455.921875 193.824219 "/>
<path style=" stroke:none;fill-rule:nonzero;fill:rgb(100%,84.3%,0%);fill-opacity:1;" d="M 129.5625 443.460938 C 129.5625 447.71875 123.175781 447.71875 123.175781 443.460938 C 123.175781 439.203125 129.5625 439.203125 129.5625 443.460938 "/>
<path style=" stroke:none;fill-rule:nonzero;fill:rgb(100%,84.3%,0%);fill-opacity:1;" d="M 318.203125 402.722656 C 318.203125 406.980469 311.816406 406.980469 311.816406 402.722656 C 311.816406 398.464844 318.203125 398.464844 318.203125 402.722656 "/>
<path style=" stroke:none;fill-rule:nonzero;fill:rgb(100%,84.3%,0%);fill-opacity:1;" d="M 77.855469 380.363281 C 77.855469 384.621094 71.46875 384.621094 71.46875 380.363281 C 71.46875 376.105469 77.855469 376.105469 77.855469 380.363281 "/>
<path style=" stroke:none;fill-rule:nonzero;fill:rgb(100%,84.3%,0%);fill-opacity:1;" d="M 137.816406 389.382812 C 137.816406 393.640625 131.429688 393.640625 131.429688 389.382812 C 131.429688 385.125 137.816406 385.125 137.816406 389.382812 "/>
<path style=" stroke:none;fill-rule:nonzero;fill:rgb(100%,84.3%,0%);fill-opacity:1;" d="M 178.152344 458.945312 C 178.152344 463.203125 171.765625 463.203125 171.765625 458.945312 C 171.765625 454.6875 178.152344 454.6875 178.152344 458.945312 "/>
<path style=" stroke:none;fill-rule:nonzero;fill:rgb(100%,84.3%,0%);fill-opacity:1;" d="M 177.949219 55.085938 C 177.949219 59.34375 171.5625 59.34375 171.5625 55.085938 C 171.5625 50.824219 177.949219 50.824219 177.949219 55.085938 "/>
<path style=" stroke:none;fill-rule:nonzero;fill:rgb(100%,84.3%,0%);fill-opacity:1;" d="M 71.738281 419.417969 C 71.738281 423.675781 65.347656 423.675781 65.347656 419.417969 C 65.347656 415.160156 71.738281 415.160156 71.738281 419.417969 "/>
<path style=" stroke:none;fill-rule:nonzero;fill:rgb(100%,84.3%,0%);fill-opacity:1;" d="M 115.519531 437.953125 C 115.519531 442.210938 109.132812 442.210938 109.132812 437.953125 C 109.132812 433.695312 115.519531 433.695312 115.519531 437.953125 "/>
<path style=" stroke:none;fill-rule:nonzero;fill:rgb(100%,84.3%,0%);fill-opacity:1;" d="M 231.054688 453.644531 C 231.054688 457.902344 224.667969 457.902344 224.667969 453.644531 C 224.667969 449.386719 231.054688 449.386719 231.054688 453.644531 "/>
<path style=" stroke:none;fill-rule:nonzero;fill:rgb(100%,84.3%,0%);fill-opacity:1;" d="M 109.9375 61.957031 C 109.9375 66.214844 103.550781 66.214844 103.550781 61.957031 C 103.550781 57.699219 109.9375 57.699219 109.9375 61.957031 "/>
<path style=" stroke:none;fill-rule:nonzero;fill:rgb(100%,84.3%,0%);fill-opacity:1;" d="M 388.921875 213.265625 C 388.921875 217.523438 382.535156 217.523438 382.535156 213.265625 C 382.535156 209.007812 388.921875 209.007812 388.921875 213.265625 "/>
<path style=" stroke:none;fill-rule:nonzero;fill:rgb(100%,84.3%,0%);fill-opacity:1;" d="M 82.207031 428.941406 C 82.207031 433.199219 75.820312 433.199219 75.820312 428.941406 C 75.820312 424.683594 82.207031 424.683594 82.207031 428.941406 "/>
<path style=" stroke:none;fill-rule:nonzero;fill:rgb(100%,84.3%,0%);fill-opacity:1;" d="M 189.253906 439.589844 C 189.253906 443.847656 182.867188 443.847656 182.867188 439.589844 C 182.867188 435.328125 189.253906 435.328125 189.253906 439.589844 "/>
<path style=" stroke:none;fill-rule:nonzero;fill:rgb(100%,84.3%,0%);fill-opacity:1;" d="M 264.859375 458.601562 C 264.859375 462.859375 258.472656 462.859375 258.472656 458.601562 C 258.472656 454.34375 264.859375 454.34375 264.859375 458.601562 "/>
<path style=" stroke:none;fill-rule:nonzero;fill:rgb(100%,84.3%,0%);fill-opacity:1;" d="M 68.054688 62.671875 C 68.054688 66.929688 61.667969 66.929688 61.667969 62.671875 C 61.667969 58.410156 68.054688 58.410156 68.054688 62.671875 "/>
<path style=" stroke:none;fill-rule:nonzero;fill:rgb(100%,84.3%,0%);fill-opacity:1;" d="M 274.054688 387.976562 C 274.054688 392.234375 267.667969 392.234375 267.667969 387.976562 C 267.667969 383.71875 274.054688 383.71875 274.054688 387.976562 "/>
<path style=" stroke:none;fill-rule:nonzero;fill:rgb(100%,84.3%,0%);fill-opacity:1;" d="M 439.394531 158.261719 C 439.394531 162.519531 433.003906 162.519531 433.003906 158.261719 C 433.003906 154.003906 439.394531 154.003906 439.394531 158.261719 "/>
<path style=" stroke:none;fill-rule:nonzero;fill:rgb(100%,84.3%,0%);fill-opacity:1;" d="M 336.804688 381.480469 C 336.804688 385.738281 330.417969 385.738281 330.417969 381.480469 C 330.417969 377.222656 336.804688 377.222656 336.804688 381.480469 "/>
<path style=" stroke:none;fill-rule:nonzero;fill:rgb(100%,84.3%,0%);fill-opacity:1;" d="M 335.726562 180.125 C 335.726562 184.382812 329.339844 184.382812 329.339844 180.125 C 329.339844 175.867188 335.726562 175.867188 335.726562 180.125 "/>
<path style=" stroke:none;fill-rule:nonzero;fill:rgb(100%,84.3%,0%);fill-opacity:1;" d="M 313.359375 410.773438 C 313.359375 415.03125 306.96875 415.03125 306.96875 410.773438 C 306.96875 406.515625 313.359375 406.515625 313.359375 410.773438 "/>
<path style=" stroke:none;fill-rule:nonzero;fill:rgb(100%,84.3%,0%);fill-opacity:1;" d="M 455.921875 371.578125 C 455.921875 375.835938 449.535156 375.835938 449.535156 371.578125 C 449.535156 367.320312 455.921875 367.320312 455.921875 371.578125 "/>
<path style=" stroke:none;fill-rule:nonzero;fill:rgb(100%,84.3%,0%);fill-opacity:1;" d="M 455.921875 394.839844 C 455.921875 399.097656 449.535156 399.097656 449.535156 394.839844 C 449.535156 390.582031 455.921875 390.582031 455.921875 394.839844 "/>
<path style=" stroke:none;fill-rule:nonzero;fill:rgb(100%,84.3%,0%);fill-opacity:1;" d="M 67.636719 462.945312 C 67.636719 467.203125 61.25 467.203125 61.25 462.945312 C 61.25 458.6875 67.636719 458.6875 67.636719 462.945312 "/>
<path style=" stroke:none;fill-rule:nonzero;fill:rgb(100%,84.3%,0%);fill-opacity:1;" d="M 62.464844 369.484375 C 62.464844 373.742188 56.078125 373.742188 56.078125 369.484375 C 56.078125 365.226562 62.464844 365.226562 62.464844 369.484375 "/>
<path style=" stroke:none;fill-rule:nonzero;fill:rgb(100%,84.3%,0%);fill-opacity:1;" d="M 300.683594 50.300781 C 300.683594 54.558594 294.296875 54.558594 294.296875 50.300781 C 294.296875 46.042969 300.683594 46.042969 300.683594 50.300781 "/>
<path style=" stroke:none;fill-rule:nonzero;fill:rgb(100%,84.3%,0%);fill-opacity:1;" d="M 272.46875 452.835938 C 272.46875 457.09375 266.082031 457.09375 266.082031 452.835938 C 266.082031 448.578125 272.46875 448.578125 272.46875 452.835938 "/>
<path style=" stroke:none;fill-rule:nonzero;fill:rgb(100%,84.3%,0%);fill-opacity:1;" d="M 317.261719 441.648438 C 317.261719 445.90625 310.875 445.90625 310.875 441.648438 C 310.875 437.390625 317.261719 437.390625 317.261719 441.648438 "/>
<path style=" stroke:none;fill-rule:nonzero;fill:rgb(100%,84.3%,0%);fill-opacity:1;" d="M 118.523438 395.734375 C 118.523438 399.992188 112.136719 399.992188 112.136719 395.734375 C 112.136719 391.476562 118.523438 391.476562 118.523438 395.734375 "/>
<path style=" stroke:none;fill-rule:nonzero;fill:rgb(100%,84.3%,0%);fill-opacity:1;" d="M 455.921875 358.570312 C 455.921875 362.828125 449.535156 362.828125 449.535156 358.570312 C 449.535156 354.3125 455.921875 354.3125 455.921875 358.570312 "/>
<path style=" stroke:none;fill-rule:nonzero;fill:rgb(100%,84.3%,0%);fill-opacity:1;" d="M 455.921875 377.996094 C 455.921875 382.253906 449.535156 382.253906 449.535156 377.996094 C 449.535156 373.738281 455.921875 373.738281 455.921875 377.996094 "/>
<path style=" stroke:none;fill-rule:nonzero;fill:rgb(100%,84.3%,0%);fill-opacity:1;" d="M 62.464844 439.847656 C 62.464844 444.105469 56.078125 444.105469 56.078125 439.847656 C 56.078125 435.589844 62.464844 435.589844 62.464844 439.847656 "/>
<path style=" stroke:none;fill-rule:nonzero;fill:rgb(100%,84.3%,0%);fill-opacity:1;" d="M 72.535156 169.550781 C 72.535156 173.808594 66.144531 173.808594 66.144531 169.550781 C 66.144531 165.292969 72.535156 165.292969 72.535156 169.550781 "/>
<path style=" stroke:none;fill-rule:nonzero;fill:rgb(100%,84.3%,0%);fill-opacity:1;" d="M 62.464844 333.714844 C 62.464844 337.972656 56.078125 337.972656 56.078125 333.714844 C 56.078125 329.457031 62.464844 329.457031 62.464844 333.714844 "/>
<path style=" stroke:none;fill-rule:nonzero;fill:rgb(100%,84.3%,0%);fill-opacity:1;" d="M 67.753906 330.007812 C 67.753906 334.265625 61.367188 334.265625 61.367188 330.007812 C 61.367188 325.746094 67.753906 325.746094 67.753906 330.007812 "/>
<path style=" stroke:none;fill-rule:nonzero;fill:rgb(100%,84.3%,0%);fill-opacity:1;" d="M 319.53125 70.613281 C 319.53125 74.875 313.144531 74.875 313.144531 70.613281 C 313.144531 66.355469 319.53125 66.355469 319.53125 70.613281 "/>
<path style=" stroke:none;fill-rule:nonzero;fill:rgb(100%,84.3%,0%);fill-opacity:1;" d="M 160.523438 452.691406 C 160.523438 456.949219 154.132812 456.949219 154.132812 452.691406 C 154.132812 448.433594 160.523438 448.433594 160.523438 452.691406 "/>
<path style=" stroke:none;fill-rule:nonzero;fill:rgb(100%,84.3%,0%);fill-opacity:1;" d="M 455.921875 384.382812 C 455.921875 388.640625 449.535156 388.640625 449.535156 384.382812 C 449.535156 380.125 455.921875 380.125 455.921875 384.382812 "/>
<path style=" stroke:none;fill-rule:nonzero;fill:rgb(100%,84.3%,0%);fill-opacity:1;" d="M 333.308594 374.445312 C 333.308594 378.703125 326.921875 378.703125 326.921875 374.445312 C 326.921875 370.1875 333.308594 370.1875 333.308594 374.445312 "/>
<path style=" stroke:none;fill-rule:nonzero;fill:rgb(100%,84.3%,0%);fill-opacity:1;" d="M 239.585938 443.363281 C 239.585938 447.621094 233.199219 447.621094 233.199219 443.363281 C 233.199219 439.105469 239.585938 439.105469 239.585938 443.363281 "/>
<path style=" stroke:none;fill-rule:nonzero;fill:rgb(100%,84.3%,0%);fill-opacity:1;" d="M 286.964844 446.179688 C 286.964844 450.4375 280.578125 450.4375 280.578125 446.179688 C 280.578125 441.921875 286.964844 441.921875 286.964844 446.179688 "/>
<path style=" stroke:none;fill-rule:nonzero;fill:rgb(100%,84.3%,0%);fill-opacity:1;" d="M 321.527344 454.523438 C 321.527344 458.78125 315.140625 458.78125 315.140625 454.523438 C 315.140625 450.265625 321.527344 450.265625 321.527344 454.523438 "/>
<path style=" stroke:none;fill-rule:nonzero;fill:rgb(100%,84.3%,0%);fill-opacity:1;" d="M 278.648438 451.214844 C 278.648438 455.472656 272.261719 455.472656 272.261719 451.214844 C 272.261719 446.957031 278.648438 446.957031 278.648438 451.214844 "/>
<path style=" stroke:none;fill-rule:nonzero;fill:rgb(100%,84.3%,0%);fill-opacity:1;" d="M 286.289062 417.433594 C 286.289062 421.691406 279.898438 421.691406 279.898438 417.433594 C 279.898438 413.175781 286.289062 413.175781 286.289062 417.433594 "/>
<path style=" stroke:none;fill-rule:nonzero;fill:rgb(100%,84.3%,0%);fill-opacity:1;" d="M 419.332031 430.0625 C 419.332031 434.320312 412.945312 434.320312 412.945312 430.0625 C 412.945312 425.804688 419.332031 425.804688 419.332031 430.0625 "/>
<path style=" stroke:none;fill-rule:nonzero;fill:rgb(100%,84.3%,0%);fill-opacity:1;" d="M 424.546875 399.261719 C 424.546875 403.519531 418.160156 403.519531 418.160156 399.261719 C 418.160156 395.003906 424.546875 395.003906 424.546875 399.261719 "/>
<path style=" stroke:none;fill-rule:nonzero;fill:rgb(100%,84.3%,0%);fill-opacity:1;" d="M 214.460938 443.617188 C 214.460938 447.875 208.074219 447.875 208.074219 443.617188 C 208.074219 439.359375 214.460938 439.359375 214.460938 443.617188 "/>
<path style=" stroke:none;fill-rule:nonzero;fill:rgb(100%,84.3%,0%);fill-opacity:1;" d="M 86.96875 61.136719 C 86.96875 65.394531 80.582031 65.394531 80.582031 61.136719 C 80.582031 56.875 86.96875 56.875 86.96875 61.136719 "/>
<path style=" stroke:none;fill-rule:nonzero;fill:rgb(100%,84.3%,0%);fill-opacity:1;" d="M 451.453125 206.527344 C 451.453125 210.785156 445.066406 210.785156 445.066406 206.527344 C 445.066406 202.269531 451.453125 202.269531 451.453125 206.527344 "/>
<path style=" stroke:none;fill-rule:nonzero;fill:rgb(100%,84.3%,0%);fill-opacity:1;" d="M 287.589844 368.710938 C 287.589844 372.96875 281.203125 372.96875 281.203125 368.710938 C 281.203125 364.453125 287.589844 364.453125 287.589844 368.710938 "/>
<path style=" stroke:none;fill-rule:nonzero;fill:rgb(100%,84.3%,0%);fill-opacity:1;" d="M 401.570312 103.875 C 401.570312 108.132812 395.179688 108.132812 395.179688 103.875 C 395.179688 99.617188 401.570312 99.617188 401.570312 103.875 "/>
<path style=" stroke:none;fill-rule:nonzero;fill:rgb(100%,84.3%,0%);fill-opacity:1;" d="M 455.921875 406.277344 C 455.921875 410.535156 449.535156 410.535156 449.535156 406.277344 C 449.535156 402.019531 455.921875 402.019531 455.921875 406.277344 "/>
<path style=" stroke:none;fill-rule:nonzero;fill:rgb(100%,84.3%,0%);fill-opacity:1;" d="M 83.71875 266.6875 C 83.71875 270.945312 77.332031 270.945312 77.332031 266.6875 C 77.332031 262.429688 83.71875 262.429688 83.71875 266.6875 "/>
<path style=" stroke:none;fill-rule:nonzero;fill:rgb(100%,84.3%,0%);fill-opacity:1;" d="M 70.007812 139.210938 C 70.007812 143.46875 63.621094 143.46875 63.621094 139.210938 C 63.621094 134.953125 70.007812 134.953125 70.007812 139.210938 "/>
<path style=" stroke:none;fill-rule:nonzero;fill:rgb(100%,84.3%,0%);fill-opacity:1;" d="M 291.386719 413.589844 C 291.386719 417.847656 285 417.847656 285 413.589844 C 285 409.328125 291.386719 409.328125 291.386719 413.589844 "/>
<path style=" stroke:none;fill-rule:nonzero;fill:rgb(100%,84.3%,0%);fill-opacity:1;" d="M 241.433594 51.117188 C 241.433594 55.375 235.046875 55.375 235.046875 51.117188 C 235.046875 46.859375 241.433594 46.859375 241.433594 51.117188 "/>
<path style=" stroke:none;fill-rule:nonzero;fill:rgb(100%,84.3%,0%);fill-opacity:1;" d="M 383.15625 75.203125 C 383.15625 79.460938 376.769531 79.460938 376.769531 75.203125 C 376.769531 70.945312 383.15625 70.945312 383.15625 75.203125 "/>
<path style=" stroke:none;fill-rule:nonzero;fill:rgb(100%,84.3%,0%);fill-opacity:1;" d="M 444.65625 112.734375 C 444.65625 116.996094 438.269531 116.996094 438.269531 112.734375 C 438.269531 108.476562 444.65625 108.476562 444.65625 112.734375 "/>
<path style=" stroke:none;fill-rule:nonzero;fill:rgb(100%,84.3%,0%);fill-opacity:1;" d="M 283.605469 57.125 C 283.605469 61.382812 277.21875 61.382812 277.21875 57.125 C 277.21875 52.867188 283.605469 52.867188 283.605469 57.125 "/>
<path style=" stroke:none;fill-rule:nonzero;fill:rgb(100%,84.3%,0%);fill-opacity:1;" d="M 269.542969 462.945312 C 269.542969 467.203125 263.15625 467.203125 263.15625 462.945312 C 263.15625 458.6875 269.542969 458.6875 269.542969 462.945312 "/>
<path style=" stroke:none;fill-rule:nonzero;fill:rgb(100%,84.3%,0%);fill-opacity:1;" d="M 83.21875 326.199219 C 83.21875 330.457031 76.832031 330.457031 76.832031 326.199219 C 76.832031 321.941406 83.21875 321.941406 83.21875 326.199219 "/>
<path style=" stroke:none;fill-rule:nonzero;fill:rgb(100%,84.3%,0%);fill-opacity:1;" d="M 98.351562 263.488281 C 98.351562 267.746094 91.964844 267.746094 91.964844 263.488281 C 91.964844 259.230469 98.351562 259.230469 98.351562 263.488281 "/>
<path style=" stroke:none;fill-rule:nonzero;fill:rgb(100%,84.3%,0%);fill-opacity:1;" d="M 430.378906 410.03125 C 430.378906 414.292969 423.992188 414.292969 423.992188 410.03125 C 423.992188 405.773438 430.378906 405.773438 430.378906 410.03125 "/>
<path style=" stroke:none;fill-rule:nonzero;fill:rgb(100%,84.3%,0%);fill-opacity:1;" d="M 66.136719 303.742188 C 66.136719 308 59.75 308 59.75 303.742188 C 59.75 299.484375 66.136719 299.484375 66.136719 303.742188 "/>
<path style=" stroke:none;fill-rule:nonzero;fill:rgb(100%,84.3%,0%);fill-opacity:1;" d="M 377.929688 444.273438 C 377.929688 448.53125 371.542969 448.53125 371.542969 444.273438 C 371.542969 440.015625 377.929688 440.015625 377.929688 444.273438 "/>
<path style=" stroke:none;fill-rule:nonzero;fill:rgb(100%,84.3%,0%);fill-opacity:1;" d="M 93.695312 259.113281 C 93.695312 263.371094 87.308594 263.371094 87.308594 259.113281 C 87.308594 254.855469 93.695312 254.855469 93.695312 259.113281 "/>
<path style=" stroke:none;fill-rule:nonzero;fill:rgb(100%,84.3%,0%);fill-opacity:1;" d="M 91.613281 370.171875 C 91.613281 374.429688 85.226562 374.429688 85.226562 370.171875 C 85.226562 365.914062 91.613281 365.914062 91.613281 370.171875 "/>
<path style=" stroke:none;fill-rule:nonzero;fill:rgb(100%,84.3%,0%);fill-opacity:1;" d="M 256.90625 451.835938 C 256.90625 456.09375 250.519531 456.09375 250.519531 451.835938 C 250.519531 447.578125 256.90625 447.578125 256.90625 451.835938 "/>
<path style=" stroke:none;fill-rule:nonzero;fill:rgb(100%,84.3%,0%);fill-opacity:1;" d="M 75.914062 424.25 C 75.914062 428.507812 69.523438 428.507812 69.523438 424.25 C 69.523438 419.992188 75.914062 419.992188 75.914062 424.25 "/>
<path style=" stroke:none;fill-rule:nonzero;fill:rgb(100%,84.3%,0%);fill-opacity:1;" d="M 233.796875 56.007812 C 233.796875 60.265625 227.410156 60.265625 227.410156 56.007812 C 227.410156 51.75 233.796875 51.75 233.796875 56.007812 "/>
<path style=" stroke:none;fill-rule:nonzero;fill:rgb(100%,84.3%,0%);fill-opacity:1;" d="M 195.539062 53.808594 C 195.539062 58.066406 189.152344 58.066406 189.152344 53.808594 C 189.152344 49.550781 195.539062 49.550781 195.539062 53.808594 "/>
<path style=" stroke:none;fill-rule:nonzero;fill:rgb(100%,84.3%,0%);fill-opacity:1;" d="M 62.59375 280.898438 C 62.59375 285.15625 56.207031 285.15625 56.207031 280.898438 C 56.207031 276.640625 62.59375 276.640625 62.59375 280.898438 "/>
<path style=" stroke:none;fill-rule:nonzero;fill:rgb(100%,84.3%,0%);fill-opacity:1;" d="M 288.078125 458.253906 C 288.078125 462.511719 281.691406 462.511719 281.691406 458.253906 C 281.691406 453.996094 288.078125 453.996094 288.078125 458.253906 "/>
<path style=" stroke:none;fill-rule:nonzero;fill:rgb(100%,84.3%,0%);fill-opacity:1;" d="M 125.113281 456.90625 C 125.113281 461.164062 118.726562 461.164062 118.726562 456.90625 C 118.726562 452.648438 125.113281 452.648438 125.113281 456.90625 "/>
</g>
</svg>
