<?xml version="1.0" encoding="UTF-8"?>
<svg xmlns="http://www.w3.org/2000/svg" xmlns:xlink="http://www.w3.org/1999/xlink" width="512pt" height="512pt" viewBox="0 0 512 512" version="1.1">
<g id="surface1">
<path style=" stroke:none;fill-rule:nonzero;fill:rgb(26.7%,26.7%,26.7%);fill-opacity:1;" d="M 32 0 L 480 0 L 480 512 L 32 512 Z M 32 0 "/>
<path style=" stroke:none;fill-rule:nonzero;fill:rgb(19.2%,38.8%,66.7%);fill-opacity:1;" d="M 69.332031 42.667969 L 442.667969 42.667969 L 442.667969 469.332031 L 69.332031 469.332031 Z M 69.332031 42.667969 "/>
<path style=" stroke:none;fill-rule:nonzero;fill:rgb(100%,100%,100%);fill-opacity:1;" d="M 412.800781 8.53125 C 412.800781 14.425781 408.023438 19.199219 402.132812 19.199219 C 396.242188 19.199219 391.464844 14.425781 391.464844 8.53125 C 391.464844 2.640625 396.242188 -2.132812 402.132812 -2.132812 C 408.023438 -2.132812 412.800781 2.640625 412.800781 8.53125 "/>
<path style=" stroke:none;fill-rule:nonzero;fill:rgb(100%,100%,100%);fill-opacity:1;" d="M 459.734375 238.933594 C 459.734375 244.824219 454.957031 249.601562 449.066406 249.601562 C 443.175781 249.601562 438.398438 244.824219 438.398438 238.933594 C 438.398438 233.042969 443.175781 228.265625 449.066406 228.265625 C 454.957031 228.265625 459.734375 233.042969 459.734375 238.933594 "/>
<path style=" stroke:none;fill-rule:nonzero;fill:rgb(100%,100%,100%);fill-opacity:1;" d="M 468.265625 264.53125 C 468.265625 270.425781 463.492188 275.199219 457.601562 275.199219 C 451.707031 275.199219 446.933594 270.425781 446.933594 264.53125 C 446.933594 258.640625 451.707031 253.867188 457.601562 253.867188 C 463.492188 253.867188 468.265625 258.640625 468.265625 264.53125 "/>
<path style=" stroke:none;fill-rule:nonzero;fill:rgb(100%,100%,100%);fill-opacity:1;" d="M 242.132812 -8.53125 C 242.132812 -2.640625 237.359375 2.132812 231.46875 2.132812 C 225.574219 2.132812 220.800781 -2.640625 220.800781 -8.53125 C 220.800781 -14.425781 225.574219 -19.199219 231.46875 -19.199219 C 237.359375 -19.199219 242.132812 -14.425781 242.132812 -8.53125 "/>
<path style=" stroke:none;fill-rule:nonzero;fill:rgb(100%,100%,100%);fill-opacity:1;" d="M 35.199219 215.46875 C 35.199219 221.359375 30.425781 226.132812 24.53125 226.132812 C 18.640625 226.132812 13.867188 221.359375 13.867188 215.46875 C 13.867188 209.574219 18.640625 204.800781 24.53125 204.800781 C 30.425781 204.800781 35.199219 209.574219 35.199219 215.46875 "/>
<path style=" stroke:none;fill-rule:nonzero;fill:rgb(100%,100%,100%);fill-opacity:1;" d="M 500.265625 46.933594 C 500.265625 52.824219 495.492188 57.601562 489.601562 57.601562 C 483.707031 57.601562 478.933594 52.824219 478.933594 46.933594 C 478.933594 41.042969 483.707031 36.265625 489.601562 36.265625 C 495.492188 36.265625 500.265625 41.042969 500.265625 46.933594 "/>
<path style=" stroke:none;fill-rule:nonzero;fill:rgb(100%,100%,100%);fill-opacity:1;" d="M 478.933594 12.800781 C 478.933594 18.691406 474.15625 23.464844 468.265625 23.464844 C 462.375 23.464844 457.601562 18.691406 457.601562 12.800781 C 457.601562 6.910156 462.375 2.132812 468.265625 2.132812 C 474.15625 2.132812 478.933594 6.910156 478.933594 12.800781 "/>
<path style=" stroke:none;fill-rule:nonzero;fill:rgb(100%,100%,100%);fill-opacity:1;" d="M 137.601562 19.199219 C 137.601562 25.089844 132.824219 29.867188 126.933594 29.867188 C 121.042969 29.867188 116.265625 25.089844 116.265625 19.199219 C 116.265625 13.308594 121.042969 8.535156 126.933594 8.535156 C 132.824219 8.535156 137.601562 13.308594 137.601562 19.199219 "/>
<path style=" stroke:none;fill-rule:nonzero;fill:rgb(100%,100%,100%);fill-opacity:1;" d="M 37.332031 6.398438 C 37.332031 12.292969 32.558594 17.066406 26.667969 17.066406 C 20.777344 17.066406 16 12.292969 16 6.398438 C 16 0.507812 20.777344 -4.265625 26.667969 -4.265625 C 32.558594 -4.265625 37.332031 0.507812 37.332031 6.398438 "/>
<path style=" stroke:none;fill-rule:nonzero;fill:rgb(100%,100%,100%);fill-opacity:1;" d="M 69.332031 260.265625 C 69.332031 266.15625 64.558594 270.933594 58.667969 270.933594 C 52.777344 270.933594 48 266.15625 48 260.265625 C 48 254.375 52.777344 249.601562 58.667969 249.601562 C 64.558594 249.601562 69.332031 254.375 69.332031 260.265625 "/>
<path style=" stroke:none;fill-rule:nonzero;fill:rgb(100%,100%,100%);fill-opacity:1;" d="M 82.132812 8.53125 C 82.132812 14.425781 77.359375 19.199219 71.46875 19.199219 C 65.574219 19.199219 60.800781 14.425781 60.800781 8.53125 C 60.800781 2.640625 65.574219 -2.132812 71.46875 -2.132812 C 77.359375 -2.132812 82.132812 2.640625 82.132812 8.53125 "/>
<path style=" stroke:none;fill-rule:nonzero;fill:rgb(100%,100%,100%);fill-opacity:1;" d="M 468.265625 437.332031 C 468.265625 443.222656 463.492188 448 457.601562 448 C 451.707031 448 446.933594 443.222656 446.933594 437.332031 C 446.933594 431.441406 451.707031 426.667969 457.601562 426.667969 C 463.492188 426.667969 468.265625 431.441406 468.265625 437.332031 "/>
<path style=" stroke:none;fill-rule:nonzero;fill:rgb(100%,100%,100%);fill-opacity:1;" d="M 498.132812 326.398438 C 498.132812 332.292969 493.359375 337.066406 487.46875 337.066406 C 481.574219 337.066406 476.800781 332.292969 476.800781 326.398438 C 476.800781 320.507812 481.574219 315.734375 487.46875 315.734375 C 493.359375 315.734375 498.132812 320.507812 498.132812 326.398438 "/>
<path style=" stroke:none;fill-rule:nonzero;fill:rgb(100%,100%,100%);fill-opacity:1;" d="M 461.867188 326.398438 C 461.867188 332.292969 457.089844 337.066406 451.199219 337.066406 C 445.308594 337.066406 440.535156 332.292969 440.535156 326.398438 C 440.535156 320.507812 445.308594 315.734375 451.199219 315.734375 C 457.089844 315.734375 461.867188 320.507812 461.867188 326.398438 "/>
<path style=" stroke:none;fill-rule:nonzero;fill:rgb(100%,100%,100%);fill-opacity:1;" d="M 485.332031 -2.132812 C 485.332031 3.757812 480.558594 8.535156 474.667969 8.535156 C 468.777344 8.535156 464 3.757812 464 -2.132812 C 464 -8.023438 468.777344 -12.800781 474.667969 -12.800781 C 480.558594 -12.800781 485.332031 -8.023438 485.332031 -2.132812 "/>
<path style=" stroke:none;fill-rule:nonzero;fill:rgb(100%,84.3%,0%);fill-opacity:1;" d="M 122.472656 219.609375 C 122.472656 225.5 117.699219 230.277344 111.808594 230.277344 C 105.914062 230.277344 101.140625 225.5 101.140625 219.609375 C 101.140625 213.71875 105.914062 208.941406 111.808594 208.941406 C 117.699219 208.941406 122.472656 213.71875 122.472656 219.609375 "/>
<path style=" stroke:none;fill-rule:nonzero;fill:rgb(100%,84.3%,0%);fill-opacity:1;" d="M 167.148438 382.347656 C 167.148438 388.238281 162.375 393.015625 156.484375 393.015625 C 150.59375 393.015625 145.816406 388.238281 145.816406 382.347656 C 145.816406 376.457031 150.59375 371.683594 156.484375 371.683594 C 162.375 371.683594 167.148438 376.457031 167.148438 382.347656 "/>
<path style=" stroke:none;fill-rule:nonzero;fill:rgb(100%,84.3%,0%);fill-opacity:1;" d="M 187.421875 401.839844 C 187.421875 407.730469 182.644531 412.503906 176.753906 412.503906 C 170.863281 412.503906 166.089844 407.730469 166.089844 401.839844 C 166.089844 395.945312 170.863281 391.171875 176.753906 391.171875 C 182.644531 391.171875 187.421875 395.945312 187.421875 401.839844 "/>
<path style=" stroke:none;fill-rule:nonzero;fill:rgb(100%,84.3%,0%);fill-opacity:1;" d="M 187.230469 368.535156 C 187.230469 374.425781 182.453125 379.203125 176.5625 379.203125 C 170.671875 379.203125 165.894531 374.425781 165.894531 368.535156 C 165.894531 362.644531 170.671875 357.871094 176.5625 357.871094 C 182.453125 357.871094 187.230469 362.644531 187.230469 368.535156 "/>
<path style=" stroke:none;fill-rule:nonzero;fill:rgb(100%,84.3%,0%);fill-opacity:1;" d="M 121.898438 78.019531 C 121.898438 83.910156 117.121094 88.6875 111.230469 88.6875 C 105.339844 88.6875 100.5625 83.910156 100.5625 78.019531 C 100.5625 72.128906 105.339844 67.351562 111.230469 67.351562 C 117.121094 67.351562 121.898438 72.128906 121.898438 78.019531 "/>
<path style=" stroke:none;fill-rule:nonzero;fill:rgb(100%,84.3%,0%);fill-opacity:1;" d="M 202.375 448 C 202.375 453.890625 197.601562 458.667969 191.710938 458.667969 C 185.820312 458.667969 181.042969 453.890625 181.042969 448 C 181.042969 442.109375 185.820312 437.332031 191.710938 437.332031 C 197.601562 437.332031 202.375 442.109375 202.375 448 "/>
<path style=" stroke:none;fill-rule:nonzero;fill:rgb(100%,84.3%,0%);fill-opacity:1;" d="M 268.503906 64.203125 C 268.503906 70.097656 263.730469 74.871094 257.839844 74.871094 C 251.945312 74.871094 247.171875 70.097656 247.171875 64.203125 C 247.171875 58.3125 251.945312 53.539062 257.839844 53.539062 C 263.730469 53.539062 268.503906 58.3125 268.503906 64.203125 "/>
<path style=" stroke:none;fill-rule:nonzero;fill:rgb(100%,84.3%,0%);fill-opacity:1;" d="M 183.53125 64 C 183.53125 69.890625 178.753906 74.667969 172.863281 74.667969 C 166.972656 74.667969 162.199219 69.890625 162.199219 64 C 162.199219 58.109375 166.972656 53.332031 172.863281 53.332031 C 178.753906 53.332031 183.53125 58.109375 183.53125 64 "/>
<path style=" stroke:none;fill-rule:nonzero;fill:rgb(100%,84.3%,0%);fill-opacity:1;" d="M 232.859375 392.171875 C 232.859375 398.0625 228.082031 402.835938 222.191406 402.835938 C 216.300781 402.835938 211.523438 398.0625 211.523438 392.171875 C 211.523438 386.277344 216.300781 381.503906 222.191406 381.503906 C 228.082031 381.503906 232.859375 386.277344 232.859375 392.171875 "/>
<path style=" stroke:none;fill-rule:nonzero;fill:rgb(100%,84.3%,0%);fill-opacity:1;" d="M 205.101562 64 C 205.101562 69.890625 200.324219 74.667969 194.433594 74.667969 C 188.542969 74.667969 183.765625 69.890625 183.765625 64 C 183.765625 58.109375 188.542969 53.332031 194.433594 53.332031 C 200.324219 53.332031 205.101562 58.109375 205.101562 64 "/>
<path style=" stroke:none;fill-rule:nonzero;fill:rgb(100%,84.3%,0%);fill-opacity:1;" d="M 412.15625 333.933594 C 412.15625 339.824219 407.382812 344.601562 401.492188 344.601562 C 395.601562 344.601562 390.824219 339.824219 390.824219 333.933594 C 390.824219 328.042969 395.601562 323.265625 401.492188 323.265625 C 407.382812 323.265625 412.15625 328.042969 412.15625 333.933594 "/>
<path style=" stroke:none;fill-rule:nonzero;fill:rgb(100%,84.3%,0%);fill-opacity:1;" d="M 400.285156 247.226562 C 400.285156 253.117188 395.507812 257.890625 389.617188 257.890625 C 383.726562 257.890625 378.953125 253.117188 378.953125 247.226562 C 378.953125 241.332031 383.726562 236.558594 389.617188 236.558594 C 395.507812 236.558594 400.285156 241.332031 400.285156 247.226562 "/>
<path style=" stroke:none;fill-rule:nonzero;fill:rgb(100%,84.3%,0%);fill-opacity:1;" d="M 190.601562 429.109375 C 190.601562 435.003906 185.828125 439.777344 179.9375 439.777344 C 174.046875 439.777344 169.269531 435.003906 169.269531 429.109375 C 169.269531 423.21875 174.046875 418.445312 179.9375 418.445312 C 185.828125 418.445312 190.601562 423.21875 190.601562 429.109375 "/>
<path style=" stroke:none;fill-rule:nonzero;fill:rgb(100%,84.3%,0%);fill-opacity:1;" d="M 430.195312 85.664062 C 430.195312 91.554688 425.421875 96.328125 419.53125 96.328125 C 413.640625 96.328125 408.863281 91.554688 408.863281 85.664062 C 408.863281 79.773438 413.640625 74.996094 419.53125 74.996094 C 425.421875 74.996094 430.195312 79.773438 430.195312 85.664062 "/>
<path style=" stroke:none;fill-rule:nonzero;fill:rgb(100%,84.3%,0%);fill-opacity:1;" d="M 165.488281 448 C 165.488281 453.890625 160.710938 458.667969 154.820312 458.667969 C 148.929688 458.667969 144.15625 453.890625 144.15625 448 C 144.15625 442.109375 148.929688 437.332031 154.820312 437.332031 C 160.710938 437.332031 165.488281 442.109375 165.488281 448 "/>
<path style=" stroke:none;fill-rule:nonzero;fill:rgb(100%,84.3%,0%);fill-opacity:1;" d="M 128.957031 448 C 128.957031 453.890625 124.179688 458.667969 118.289062 458.667969 C 112.398438 458.667969 107.621094 453.890625 107.621094 448 C 107.621094 442.109375 112.398438 437.332031 118.289062 437.332031 C 124.179688 437.332031 128.957031 442.109375 128.957031 448 "/>
<path style=" stroke:none;fill-rule:nonzero;fill:rgb(100%,84.3%,0%);fill-opacity:1;" d="M 432 64 C 432 69.890625 427.222656 74.667969 421.332031 74.667969 C 415.441406 74.667969 410.667969 69.890625 410.667969 64 C 410.667969 58.109375 415.441406 53.332031 421.332031 53.332031 C 427.222656 53.332031 432 58.109375 432 64 "/>
<path style=" stroke:none;fill-rule:nonzero;fill:rgb(100%,84.3%,0%);fill-opacity:1;" d="M 431.714844 298.453125 C 431.714844 304.34375 426.9375 309.121094 421.046875 309.121094 C 415.15625 309.121094 410.382812 304.34375 410.382812 298.453125 C 410.382812 292.5625 415.15625 287.785156 421.046875 287.785156 C 426.9375 287.785156 431.714844 292.5625 431.714844 298.453125 "/>
<path style=" stroke:none;fill-rule:nonzero;fill:rgb(100%,84.3%,0%);fill-opacity:1;" d="M 410.953125 293.449219 C 410.953125 299.339844 406.175781 304.117188 400.285156 304.117188 C 394.394531 304.117188 389.617188 299.339844 389.617188 293.449219 C 389.617188 287.558594 394.394531 282.785156 400.285156 282.785156 C 406.175781 282.785156 410.953125 287.558594 410.953125 293.449219 "/>
<path style=" stroke:none;fill-rule:nonzero;fill:rgb(100%,84.3%,0%);fill-opacity:1;" d="M 233.460938 64 C 233.460938 69.890625 228.6875 74.667969 222.796875 74.667969 C 216.902344 74.667969 212.128906 69.890625 212.128906 64 C 212.128906 58.109375 216.902344 53.332031 222.796875 53.332031 C 228.6875 53.332031 233.460938 58.109375 233.460938 64 "/>
<path style=" stroke:none;fill-rule:nonzero;fill:rgb(100%,84.3%,0%);fill-opacity:1;" d="M 219.226562 433.4375 C 219.226562 439.328125 214.449219 444.105469 208.558594 444.105469 C 202.667969 444.105469 197.890625 439.328125 197.890625 433.4375 C 197.890625 427.546875 202.667969 422.773438 208.558594 422.773438 C 214.449219 422.773438 219.226562 427.546875 219.226562 433.4375 "/>
<path style=" stroke:none;fill-rule:nonzero;fill:rgb(100%,84.3%,0%);fill-opacity:1;" d="M 101.332031 259.9375 C 101.332031 265.828125 96.558594 270.601562 90.667969 270.601562 C 84.777344 270.601562 80 265.828125 80 259.9375 C 80 254.046875 84.777344 249.269531 90.667969 249.269531 C 96.558594 249.269531 101.332031 254.046875 101.332031 259.9375 "/>
<path style=" stroke:none;fill-rule:nonzero;fill:rgb(100%,84.3%,0%);fill-opacity:1;" d="M 432 241.6875 C 432 247.578125 427.222656 252.351562 421.332031 252.351562 C 415.441406 252.351562 410.667969 247.578125 410.667969 241.6875 C 410.667969 235.796875 415.441406 231.019531 421.332031 231.019531 C 427.222656 231.019531 432 235.796875 432 241.6875 "/>
<path style=" stroke:none;fill-rule:nonzero;fill:rgb(100%,84.3%,0%);fill-opacity:1;" d="M 101.332031 208.289062 C 101.332031 214.183594 96.558594 218.957031 90.667969 218.957031 C 84.777344 218.957031 80 214.183594 80 208.289062 C 80 202.398438 84.777344 197.625 90.667969 197.625 C 96.558594 197.625 101.332031 202.398438 101.332031 208.289062 "/>
<path style=" stroke:none;fill-rule:nonzero;fill:rgb(100%,84.3%,0%);fill-opacity:1;" d="M 376.234375 73.230469 C 376.234375 79.121094 371.460938 83.898438 365.566406 83.898438 C 359.675781 83.898438 354.902344 79.121094 354.902344 73.230469 C 354.902344 67.339844 359.675781 62.566406 365.566406 62.566406 C 371.460938 62.566406 376.234375 67.339844 376.234375 73.230469 "/>
<path style=" stroke:none;fill-rule:nonzero;fill:rgb(100%,84.3%,0%);fill-opacity:1;" d="M 101.332031 238.601562 C 101.332031 244.492188 96.558594 249.269531 90.667969 249.269531 C 84.777344 249.269531 80 244.492188 80 238.601562 C 80 232.710938 84.777344 227.9375 90.667969 227.9375 C 96.558594 227.9375 101.332031 232.710938 101.332031 238.601562 "/>
<path style=" stroke:none;fill-rule:nonzero;fill:rgb(100%,84.3%,0%);fill-opacity:1;" d="M 236.710938 448 C 236.710938 453.890625 231.933594 458.667969 226.042969 458.667969 C 220.152344 458.667969 215.378906 453.890625 215.378906 448 C 215.378906 442.109375 220.152344 437.332031 226.042969 437.332031 C 231.933594 437.332031 236.710938 442.109375 236.710938 448 "/>
<path style=" stroke:none;fill-rule:nonzero;fill:rgb(100%,84.3%,0%);fill-opacity:1;" d="M 410.6875 265.886719 C 410.6875 271.777344 405.910156 276.550781 400.019531 276.550781 C 394.128906 276.550781 389.355469 271.777344 389.355469 265.886719 C 389.355469 259.996094 394.128906 255.21875 400.019531 255.21875 C 405.910156 255.21875 410.6875 259.996094 410.6875 265.886719 "/>
<path style=" stroke:none;fill-rule:nonzero;fill:rgb(100%,84.3%,0%);fill-opacity:1;" d="M 432 165.132812 C 432 171.023438 427.222656 175.800781 421.332031 175.800781 C 415.441406 175.800781 410.667969 171.023438 410.667969 165.132812 C 410.667969 159.242188 415.441406 154.46875 421.332031 154.46875 C 427.222656 154.46875 432 159.242188 432 165.132812 "/>
<path style=" stroke:none;fill-rule:nonzero;fill:rgb(100%,84.3%,0%);fill-opacity:1;" d="M 432 108.738281 C 432 114.632812 427.222656 119.40625 421.332031 119.40625 C 415.441406 119.40625 410.667969 114.632812 410.667969 108.738281 C 410.667969 102.847656 415.441406 98.074219 421.332031 98.074219 C 427.222656 98.074219 432 102.847656 432 108.738281 "/>
<path style=" stroke:none;fill-rule:nonzero;fill:rgb(100%,84.3%,0%);fill-opacity:1;" d="M 432 341.765625 C 432 347.65625 427.222656 352.433594 421.332031 352.433594 C 415.441406 352.433594 410.667969 347.65625 410.667969 341.765625 C 410.667969 335.875 415.441406 331.101562 421.332031 331.101562 C 427.222656 331.101562 432 335.875 432 341.765625 "/>
<path style=" stroke:none;fill-rule:nonzero;fill:rgb(100%,84.3%,0%);fill-opacity:1;" d="M 432 220.351562 C 432 226.242188 427.222656 231.019531 421.332031 231.019531 C 415.441406 231.019531 410.667969 226.242188 410.667969 220.351562 C 410.667969 214.460938 415.441406 209.6875 421.332031 209.6875 C 427.222656 209.6875 432 214.460938 432 220.351562 "/>
<path style=" stroke:none;fill-rule:nonzero;fill:rgb(100%,84.3%,0%);fill-opacity:1;" d="M 432 319.785156 C 432 325.675781 427.222656 330.449219 421.332031 330.449219 C 415.441406 330.449219 410.667969 325.675781 410.667969 319.785156 C 410.667969 313.894531 415.441406 309.117188 421.332031 309.117188 C 427.222656 309.117188 432 313.894531 432 319.785156 "/>
<path style=" stroke:none;fill-rule:nonzero;fill:rgb(100%,84.3%,0%);fill-opacity:1;" d="M 421.5625 360.632812 C 421.5625 366.523438 416.785156 371.300781 410.894531 371.300781 C 405.003906 371.300781 400.230469 366.523438 400.230469 360.632812 C 400.230469 354.742188 405.003906 349.96875 410.894531 349.96875 C 416.785156 349.96875 421.5625 354.742188 421.5625 360.632812 "/>
<path style=" stroke:none;fill-rule:nonzero;fill:rgb(100%,84.3%,0%);fill-opacity:1;" d="M 137.976562 64 C 137.976562 69.890625 133.199219 74.667969 127.308594 74.667969 C 121.417969 74.667969 116.644531 69.890625 116.644531 64 C 116.644531 58.109375 121.417969 53.332031 127.308594 53.332031 C 133.199219 53.332031 137.976562 58.109375 137.976562 64 "/>
<path style=" stroke:none;fill-rule:nonzero;fill:rgb(100%,84.3%,0%);fill-opacity:1;" d="M 432 266.824219 C 432 272.71875 427.222656 277.492188 421.332031 277.492188 C 415.441406 277.492188 410.667969 272.71875 410.667969 266.824219 C 410.667969 260.933594 415.441406 256.160156 421.332031 256.160156 C 427.222656 256.160156 432 260.933594 432 266.824219 "/>
<path style=" stroke:none;fill-rule:nonzero;fill:rgb(100%,84.3%,0%);fill-opacity:1;" d="M 432 430.800781 C 432 436.691406 427.222656 441.46875 421.332031 441.46875 C 415.441406 441.46875 410.667969 436.691406 410.667969 430.800781 C 410.667969 424.910156 415.441406 420.132812 421.332031 420.132812 C 427.222656 420.132812 432 424.910156 432 430.800781 "/>
<path style=" stroke:none;fill-rule:nonzero;fill:rgb(100%,84.3%,0%);fill-opacity:1;" d="M 291.398438 64.917969 C 291.398438 70.808594 286.621094 75.585938 280.730469 75.585938 C 274.839844 75.585938 270.0625 70.808594 270.0625 64.917969 C 270.0625 59.027344 274.839844 54.25 280.730469 54.25 C 286.621094 54.25 291.398438 59.027344 291.398438 64.917969 "/>
<path style=" stroke:none;fill-rule:nonzero;fill:rgb(100%,84.3%,0%);fill-opacity:1;" d="M 160.945312 64.074219 C 160.945312 69.964844 156.167969 74.742188 150.277344 74.742188 C 144.386719 74.742188 139.609375 69.964844 139.609375 64.074219 C 139.609375 58.183594 144.386719 53.410156 150.277344 53.410156 C 156.167969 53.410156 160.945312 58.183594 160.945312 64.074219 "/>
<path style=" stroke:none;fill-rule:nonzero;fill:rgb(100%,84.3%,0%);fill-opacity:1;" d="M 101.398438 181.492188 C 101.398438 187.382812 96.621094 192.160156 90.730469 192.160156 C 84.839844 192.160156 80.0625 187.382812 80.0625 181.492188 C 80.0625 175.601562 84.839844 170.828125 90.730469 170.828125 C 96.621094 170.828125 101.398438 175.601562 101.398438 181.492188 "/>
<path style=" stroke:none;fill-rule:nonzero;fill:rgb(100%,84.3%,0%);fill-opacity:1;" d="M 101.332031 64 C 101.332031 69.890625 96.558594 74.667969 90.667969 74.667969 C 84.777344 74.667969 80 69.890625 80 64 C 80 58.109375 84.777344 53.332031 90.667969 53.332031 C 96.558594 53.332031 101.332031 58.109375 101.332031 64 "/>
<path style=" stroke:none;fill-rule:nonzero;fill:rgb(100%,84.3%,0%);fill-opacity:1;" d="M 172.589844 417.683594 C 172.589844 423.574219 167.8125 428.347656 161.921875 428.347656 C 156.03125 428.347656 151.257812 423.574219 151.257812 417.683594 C 151.257812 411.789062 156.03125 407.015625 161.921875 407.015625 C 167.8125 407.015625 172.589844 411.789062 172.589844 417.683594 "/>
<path style=" stroke:none;fill-rule:nonzero;fill:rgb(100%,84.3%,0%);fill-opacity:1;" d="M 432 383.242188 C 432 389.136719 427.222656 393.910156 421.332031 393.910156 C 415.441406 393.910156 410.667969 389.136719 410.667969 383.242188 C 410.667969 377.351562 415.441406 372.578125 421.332031 372.578125 C 427.222656 372.578125 432 377.351562 432 383.242188 "/>
<path style=" stroke:none;fill-rule:nonzero;fill:rgb(100%,84.3%,0%);fill-opacity:1;" d="M 429.570312 134.410156 C 429.570312 140.300781 424.792969 145.074219 418.902344 145.074219 C 413.011719 145.074219 408.238281 140.300781 408.238281 134.410156 C 408.238281 128.519531 413.011719 123.742188 418.902344 123.742188 C 424.792969 123.742188 429.570312 128.519531 429.570312 134.410156 "/>
<path style=" stroke:none;fill-rule:nonzero;fill:rgb(100%,84.3%,0%);fill-opacity:1;" d="M 418.726562 447.5 C 418.726562 453.390625 413.949219 458.167969 408.058594 458.167969 C 402.167969 458.167969 397.390625 453.390625 397.390625 447.5 C 397.390625 441.609375 402.167969 436.832031 408.058594 436.832031 C 413.949219 436.832031 418.726562 441.609375 418.726562 447.5 "/>
<path style=" stroke:none;fill-rule:nonzero;fill:rgb(100%,84.3%,0%);fill-opacity:1;" d="M 125.425781 260.527344 C 125.425781 266.417969 120.652344 271.191406 114.761719 271.191406 C 108.871094 271.191406 104.09375 266.417969 104.09375 260.527344 C 104.09375 254.636719 108.871094 249.859375 114.761719 249.859375 C 120.652344 249.859375 125.425781 254.636719 125.425781 260.527344 "/>
<path style=" stroke:none;fill-rule:nonzero;fill:rgb(100%,84.3%,0%);fill-opacity:1;" d="M 351.074219 447.867188 C 351.074219 453.757812 346.300781 458.535156 340.410156 458.535156 C 334.519531 458.535156 329.742188 453.757812 329.742188 447.867188 C 329.742188 441.976562 334.519531 437.199219 340.410156 437.199219 C 346.300781 437.199219 351.074219 441.976562 351.074219 447.867188 "/>
<path style=" stroke:none;fill-rule:nonzero;fill:rgb(100%,84.3%,0%);fill-opacity:1;" d="M 101.332031 282.070312 C 101.332031 287.964844 96.558594 292.738281 90.667969 292.738281 C 84.777344 292.738281 80 287.964844 80 282.070312 C 80 276.179688 84.777344 271.40625 90.667969 271.40625 C 96.558594 271.40625 101.332031 276.179688 101.332031 282.070312 "/>
<path style=" stroke:none;fill-rule:nonzero;fill:rgb(100%,84.3%,0%);fill-opacity:1;" d="M 255.667969 430.875 C 255.667969 436.765625 250.894531 441.542969 245.003906 441.542969 C 239.109375 441.542969 234.335938 436.765625 234.335938 430.875 C 234.335938 424.984375 239.109375 420.207031 245.003906 420.207031 C 250.894531 420.207031 255.667969 424.984375 255.667969 430.875 "/>
<path style=" stroke:none;fill-rule:nonzero;fill:rgb(100%,84.3%,0%);fill-opacity:1;" d="M 410.625 382.144531 C 410.625 388.035156 405.847656 392.808594 399.957031 392.808594 C 394.066406 392.808594 389.292969 388.035156 389.292969 382.144531 C 389.292969 376.253906 394.066406 371.476562 399.957031 371.476562 C 405.847656 371.476562 410.625 376.253906 410.625 382.144531 "/>
<path style=" stroke:none;fill-rule:nonzero;fill:rgb(100%,84.3%,0%);fill-opacity:1;" d="M 127.96875 422.148438 C 127.96875 428.039062 123.191406 432.816406 117.300781 432.816406 C 111.410156 432.816406 106.632812 428.039062 106.632812 422.148438 C 106.632812 416.257812 111.410156 411.480469 117.300781 411.480469 C 123.191406 411.480469 127.96875 416.257812 127.96875 422.148438 "/>
<path style=" stroke:none;fill-rule:nonzero;fill:rgb(100%,84.3%,0%);fill-opacity:1;" d="M 163.511719 307.738281 C 163.511719 313.628906 158.738281 318.402344 152.847656 318.402344 C 146.953125 318.402344 142.179688 313.628906 142.179688 307.738281 C 142.179688 301.847656 146.953125 297.070312 152.847656 297.070312 C 158.738281 297.070312 163.511719 301.847656 163.511719 307.738281 "/>
<path style=" stroke:none;fill-rule:nonzero;fill:rgb(100%,84.3%,0%);fill-opacity:1;" d="M 395.539062 64 C 395.539062 69.890625 390.765625 74.667969 384.875 74.667969 C 378.984375 74.667969 374.207031 69.890625 374.207031 64 C 374.207031 58.109375 378.984375 53.332031 384.875 53.332031 C 390.765625 53.332031 395.539062 58.109375 395.539062 64 "/>
<path style=" stroke:none;fill-rule:nonzero;fill:rgb(100%,84.3%,0%);fill-opacity:1;" d="M 101.332031 310.78125 C 101.332031 316.671875 96.558594 321.449219 90.667969 321.449219 C 84.777344 321.449219 80 316.671875 80 310.78125 C 80 304.890625 84.777344 300.117188 90.667969 300.117188 C 96.558594 300.117188 101.332031 304.890625 101.332031 310.78125 "/>
<path style=" stroke:none;fill-rule:nonzero;fill:rgb(100%,84.3%,0%);fill-opacity:1;" d="M 425.460938 410.035156 C 425.460938 415.925781 420.6875 420.703125 414.796875 420.703125 C 408.90625 420.703125 404.128906 415.925781 404.128906 410.035156 C 404.128906 404.144531 408.90625 399.371094 414.796875 399.371094 C 420.6875 399.371094 425.460938 404.144531 425.460938 410.035156 "/>
<path style=" stroke:none;fill-rule:nonzero;fill:rgb(100%,84.3%,0%);fill-opacity:1;" d="M 432 196.011719 C 432 201.902344 427.222656 206.679688 421.332031 206.679688 C 415.441406 206.679688 410.667969 201.902344 410.667969 196.011719 C 410.667969 190.121094 415.441406 185.34375 421.332031 185.34375 C 427.222656 185.34375 432 190.121094 432 196.011719 "/>
</g>
</svg>
