<?xml version="1.0" encoding="UTF-8"?>
<svg xmlns="http://www.w3.org/2000/svg" xmlns:xlink="http://www.w3.org/1999/xlink" width="512pt" height="512pt" viewBox="0 0 512 512" version="1.1">
<g id="surface16">
<path style=" stroke:none;fill-rule:nonzero;fill:rgb(26.7%,26.7%,26.7%);fill-opacity:1;" d="M 33.8125 0 L 478.191406 0 L 478.191406 512 L 33.8125 512 Z M 33.8125 0 "/>
<path style=" stroke:none;fill-rule:nonzero;fill:rgb(19.2%,38.8%,66.7%);fill-opacity:1;" d="M 70.84375 42.667969 L 441.15625 42.667969 L 441.15625 469.332031 L 70.84375 469.332031 Z M 70.84375 42.667969 "/>
<path style=" stroke:none;fill-rule:nonzero;fill:rgb(100%,100%,100%);fill-opacity:1;" d="M 42.667969 239.898438 C 42.667969 243.605469 39.664062 246.609375 35.957031 246.609375 C 32.253906 246.609375 29.25 243.605469 29.25 239.898438 C 29.25 236.195312 32.253906 233.191406 35.957031 233.191406 C 39.664062 233.191406 42.667969 236.195312 42.667969 239.898438 "/>
<path style=" stroke:none;fill-rule:nonzero;fill:rgb(100%,100%,100%);fill-opacity:1;" d="M 518.976562 489.460938 C 518.976562 493.164062 515.972656 496.167969 512.269531 496.167969 C 508.5625 496.167969 505.558594 493.164062 505.558594 489.460938 C 505.558594 485.753906 508.5625 482.75 512.269531 482.75 C 515.972656 482.75 518.976562 485.753906 518.976562 489.460938 "/>
<path style=" stroke:none;fill-rule:nonzero;fill:rgb(100%,100%,100%);fill-opacity:1;" d="M 141.953125 23.882812 C 141.953125 27.589844 138.949219 30.589844 135.246094 30.589844 C 131.539062 30.589844 128.535156 27.589844 128.535156 23.882812 C 128.535156 20.179688 131.539062 17.175781 135.246094 17.175781 C 138.949219 17.175781 141.953125 20.179688 141.953125 23.882812 "/>
<path style=" stroke:none;fill-rule:nonzero;fill:rgb(100%,100%,100%);fill-opacity:1;" d="M 143.296875 41.324219 C 143.296875 45.03125 140.292969 48.035156 136.585938 48.035156 C 132.882812 48.035156 129.878906 45.03125 129.878906 41.324219 C 129.878906 37.621094 132.882812 34.617188 136.585938 34.617188 C 140.292969 34.617188 143.296875 37.621094 143.296875 41.324219 "/>
<path style=" stroke:none;fill-rule:nonzero;fill:rgb(100%,100%,100%);fill-opacity:1;" d="M 15.832031 68.160156 C 15.832031 71.863281 12.828125 74.867188 9.125 74.867188 C 5.417969 74.867188 2.414062 71.863281 2.414062 68.160156 C 2.414062 64.453125 5.417969 61.449219 9.125 61.449219 C 12.828125 61.449219 15.832031 64.453125 15.832031 68.160156 "/>
<path style=" stroke:none;fill-rule:nonzero;fill:rgb(100%,100%,100%);fill-opacity:1;" d="M 422.375 508.242188 C 422.375 511.949219 419.371094 514.953125 415.664062 514.953125 C 411.960938 514.953125 408.957031 511.949219 408.957031 508.242188 C 408.957031 504.539062 411.960938 501.535156 415.664062 501.535156 C 419.371094 501.535156 422.375 504.539062 422.375 508.242188 "/>
<path style=" stroke:none;fill-rule:nonzero;fill:rgb(100%,100%,100%);fill-opacity:1;" d="M 1.074219 92.308594 C 1.074219 96.015625 -1.929688 99.019531 -5.636719 99.019531 C -9.339844 99.019531 -12.34375 96.015625 -12.34375 92.308594 C -12.34375 88.605469 -9.339844 85.601562 -5.636719 85.601562 C -1.929688 85.601562 1.074219 88.605469 1.074219 92.308594 "/>
<path style=" stroke:none;fill-rule:nonzero;fill:rgb(100%,100%,100%);fill-opacity:1;" d="M 517.636719 443.839844 C 517.636719 447.546875 514.632812 450.550781 510.925781 450.550781 C 507.222656 450.550781 504.21875 447.546875 504.21875 443.839844 C 504.21875 440.136719 507.222656 437.132812 510.925781 437.132812 C 514.632812 437.132812 517.636719 440.136719 517.636719 443.839844 "/>
<path style=" stroke:none;fill-rule:nonzero;fill:rgb(100%,100%,100%);fill-opacity:1;" d="M 21.199219 109.753906 C 21.199219 113.457031 18.195312 116.460938 14.492188 116.460938 C 10.785156 116.460938 7.78125 113.457031 7.78125 109.753906 C 7.78125 106.046875 10.785156 103.042969 14.492188 103.042969 C 18.195312 103.042969 21.199219 106.046875 21.199219 109.753906 "/>
<path style=" stroke:none;fill-rule:nonzero;fill:rgb(100%,100%,100%);fill-opacity:1;" d="M 72.183594 459.941406 C 72.183594 463.644531 69.179688 466.648438 65.476562 466.648438 C 61.769531 466.648438 58.765625 463.644531 58.765625 459.941406 C 58.765625 456.234375 61.769531 453.230469 65.476562 453.230469 C 69.179688 453.230469 72.183594 456.234375 72.183594 459.941406 "/>
<path style=" stroke:none;fill-rule:nonzero;fill:rgb(100%,100%,100%);fill-opacity:1;" d="M 23.882812 366.019531 C 23.882812 369.726562 20.878906 372.730469 17.175781 372.730469 C 13.46875 372.730469 10.464844 369.726562 10.464844 366.019531 C 10.464844 362.316406 13.46875 359.3125 17.175781 359.3125 C 20.878906 359.3125 23.882812 362.316406 23.882812 366.019531 "/>
<path style=" stroke:none;fill-rule:nonzero;fill:rgb(100%,100%,100%);fill-opacity:1;" d="M 89.625 34.617188 C 89.625 38.320312 86.625 41.324219 82.917969 41.324219 C 79.214844 41.324219 76.210938 38.320312 76.210938 34.617188 C 76.210938 30.910156 79.214844 27.90625 82.917969 27.90625 C 86.625 27.90625 89.625 30.910156 89.625 34.617188 "/>
<path style=" stroke:none;fill-rule:nonzero;fill:rgb(100%,100%,100%);fill-opacity:1;" d="M 200.988281 21.199219 C 200.988281 24.902344 197.984375 27.90625 194.28125 27.90625 C 190.574219 27.90625 187.574219 24.902344 187.574219 21.199219 C 187.574219 17.492188 190.574219 14.492188 194.28125 14.492188 C 197.984375 14.492188 200.988281 17.492188 200.988281 21.199219 "/>
<path style=" stroke:none;fill-rule:nonzero;fill:rgb(100%,100%,100%);fill-opacity:1;" d="M 513.609375 249.289062 C 513.609375 252.996094 510.605469 256 506.902344 256 C 503.195312 256 500.191406 252.996094 500.191406 249.289062 C 500.191406 245.585938 503.195312 242.582031 506.902344 242.582031 C 510.605469 242.582031 513.609375 245.585938 513.609375 249.289062 "/>
<path style=" stroke:none;fill-rule:nonzero;fill:rgb(100%,100%,100%);fill-opacity:1;" d="M 496.167969 345.894531 C 496.167969 349.601562 493.164062 352.605469 489.460938 352.605469 C 485.753906 352.605469 482.75 349.601562 482.75 345.894531 C 482.75 342.191406 485.753906 339.1875 489.460938 339.1875 C 493.164062 339.1875 496.167969 342.191406 496.167969 345.894531 "/>
<path style=" stroke:none;fill-rule:nonzero;fill:rgb(100%,100%,100%);fill-opacity:1;" d="M 467.992188 18.515625 C 467.992188 22.222656 464.988281 25.222656 461.28125 25.222656 C 457.578125 25.222656 454.574219 22.222656 454.574219 18.515625 C 454.574219 14.8125 457.578125 11.808594 461.28125 11.808594 C 464.988281 11.808594 467.992188 14.8125 467.992188 18.515625 "/>
<path style=" stroke:none;fill-rule:nonzero;fill:rgb(100%,100%,100%);fill-opacity:1;" d="M 454.574219 332.476562 C 454.574219 336.183594 451.570312 339.1875 447.867188 339.1875 C 444.160156 339.1875 441.15625 336.183594 441.15625 332.476562 C 441.15625 328.773438 444.160156 325.769531 447.867188 325.769531 C 451.570312 325.769531 454.574219 328.773438 454.574219 332.476562 "/>
<path style=" stroke:none;fill-rule:nonzero;fill:rgb(100%,100%,100%);fill-opacity:1;" d="M 69.5 73.527344 C 69.5 77.230469 66.496094 80.234375 62.792969 80.234375 C 59.085938 80.234375 56.082031 77.230469 56.082031 73.527344 C 56.082031 69.820312 59.085938 66.816406 62.792969 66.816406 C 66.496094 66.816406 69.5 69.820312 69.5 73.527344 "/>
<path style=" stroke:none;fill-rule:nonzero;fill:rgb(100%,100%,100%);fill-opacity:1;" d="M 256 6.441406 C 256 10.144531 252.996094 13.148438 249.289062 13.148438 C 245.585938 13.148438 242.582031 10.144531 242.582031 6.441406 C 242.582031 2.734375 245.585938 -0.269531 249.289062 -0.269531 C 252.996094 -0.269531 256 2.734375 256 6.441406 "/>
<path style=" stroke:none;fill-rule:nonzero;fill:rgb(100%,100%,100%);fill-opacity:1;" d="M 457.257812 70.84375 C 457.257812 74.546875 454.253906 77.550781 450.550781 77.550781 C 446.84375 77.550781 443.839844 74.546875 443.839844 70.84375 C 443.839844 67.136719 446.84375 64.132812 450.550781 64.132812 C 454.253906 64.132812 457.257812 67.136719 457.257812 70.84375 "/>
<path style=" stroke:none;fill-rule:nonzero;fill:rgb(100%,100%,100%);fill-opacity:1;" d="M 496.167969 128.535156 C 496.167969 132.242188 493.164062 135.246094 489.460938 135.246094 C 485.753906 135.246094 482.75 132.242188 482.75 128.535156 C 482.75 124.832031 485.753906 121.828125 489.460938 121.828125 C 493.164062 121.828125 496.167969 124.832031 496.167969 128.535156 "/>
<path style=" stroke:none;fill-rule:nonzero;fill:rgb(100%,100%,100%);fill-opacity:1;" d="M 514.953125 301.617188 C 514.953125 305.324219 511.949219 308.328125 508.242188 308.328125 C 504.539062 308.328125 501.535156 305.324219 501.535156 301.617188 C 501.535156 297.914062 504.539062 294.910156 508.242188 294.910156 C 511.949219 294.910156 514.953125 297.914062 514.953125 301.617188 "/>
<path style=" stroke:none;fill-rule:nonzero;fill:rgb(100%,100%,100%);fill-opacity:1;" d="M 100.359375 1.074219 C 100.359375 4.777344 97.355469 7.78125 93.652344 7.78125 C 89.945312 7.78125 86.945312 4.777344 86.945312 1.074219 C 86.945312 -2.632812 89.945312 -5.636719 93.652344 -5.636719 C 97.355469 -5.636719 100.359375 -2.632812 100.359375 1.074219 "/>
<path style=" stroke:none;fill-rule:nonzero;fill:rgb(100%,100%,100%);fill-opacity:1;" d="M 501.535156 215.746094 C 501.535156 219.453125 498.53125 222.457031 494.824219 222.457031 C 491.121094 222.457031 488.117188 219.453125 488.117188 215.746094 C 488.117188 212.042969 491.121094 209.039062 494.824219 209.039062 C 498.53125 209.039062 501.535156 212.042969 501.535156 215.746094 "/>
<path style=" stroke:none;fill-rule:nonzero;fill:rgb(100%,100%,100%);fill-opacity:1;" d="M 45.351562 219.773438 C 45.351562 223.480469 42.347656 226.484375 38.640625 226.484375 C 34.9375 226.484375 31.933594 223.480469 31.933594 219.773438 C 31.933594 216.070312 34.9375 213.066406 38.640625 213.066406 C 42.347656 213.066406 45.351562 216.070312 45.351562 219.773438 "/>
<path style=" stroke:none;fill-rule:nonzero;fill:rgb(100%,100%,100%);fill-opacity:1;" d="M 64.132812 143.296875 C 64.132812 147 61.132812 150.003906 57.425781 150.003906 C 53.722656 150.003906 50.71875 147 50.71875 143.296875 C 50.71875 139.589844 53.722656 136.585938 57.425781 136.585938 C 61.132812 136.585938 64.132812 139.589844 64.132812 143.296875 "/>
<path style=" stroke:none;fill-rule:nonzero;fill:rgb(100%,100%,100%);fill-opacity:1;" d="M 500.191406 44.007812 C 500.191406 47.714844 497.1875 50.714844 493.484375 50.714844 C 489.777344 50.714844 486.777344 47.714844 486.777344 44.007812 C 486.777344 40.304688 489.777344 37.300781 493.484375 37.300781 C 497.1875 37.300781 500.191406 40.304688 500.191406 44.007812 "/>
<path style=" stroke:none;fill-rule:nonzero;fill:rgb(100%,100%,100%);fill-opacity:1;" d="M 1.074219 400.90625 C 1.074219 404.609375 -1.929688 407.613281 -5.636719 407.613281 C -9.339844 407.613281 -12.34375 404.609375 -12.34375 400.90625 C -12.34375 397.199219 -9.339844 394.199219 -5.636719 394.199219 C -1.929688 394.199219 1.074219 397.199219 1.074219 400.90625 "/>
<path style=" stroke:none;fill-rule:nonzero;fill:rgb(100%,100%,100%);fill-opacity:1;" d="M 19.859375 510.925781 C 19.859375 514.632812 16.855469 517.636719 13.148438 517.636719 C 9.445312 517.636719 6.441406 514.632812 6.441406 510.925781 C 6.441406 507.222656 9.445312 504.21875 13.148438 504.21875 C 16.855469 504.21875 19.859375 507.222656 19.859375 510.925781 "/>
<path style=" stroke:none;fill-rule:nonzero;fill:rgb(100%,100%,100%);fill-opacity:1;" d="M 423.714844 501.535156 C 423.714844 505.238281 420.710938 508.242188 417.007812 508.242188 C 413.300781 508.242188 410.296875 505.238281 410.296875 501.535156 C 410.296875 497.828125 413.300781 494.828125 417.007812 494.828125 C 420.710938 494.828125 423.714844 497.828125 423.714844 501.535156 "/>
<path style=" stroke:none;fill-rule:nonzero;fill:rgb(100%,100%,100%);fill-opacity:1;" d="M 22.539062 378.097656 C 22.539062 381.800781 19.535156 384.804688 15.832031 384.804688 C 12.125 384.804688 9.125 381.800781 9.125 378.097656 C 9.125 374.390625 12.125 371.386719 15.832031 371.386719 C 19.535156 371.386719 22.539062 374.390625 22.539062 378.097656 "/>
<path style=" stroke:none;fill-rule:nonzero;fill:rgb(100%,100%,100%);fill-opacity:1;" d="M 510.925781 496.167969 C 510.925781 499.875 507.921875 502.875 504.21875 502.875 C 500.511719 502.875 497.507812 499.875 497.507812 496.167969 C 497.507812 492.464844 500.511719 489.460938 504.21875 489.460938 C 507.921875 489.460938 510.925781 492.464844 510.925781 496.167969 "/>
<path style=" stroke:none;fill-rule:nonzero;fill:rgb(100%,100%,100%);fill-opacity:1;" d="M 73.527344 147.320312 C 73.527344 151.027344 70.523438 154.03125 66.816406 154.03125 C 63.113281 154.03125 60.109375 151.027344 60.109375 147.320312 C 60.109375 143.617188 63.113281 140.613281 66.816406 140.613281 C 70.523438 140.613281 73.527344 143.617188 73.527344 147.320312 "/>
<path style=" stroke:none;fill-rule:nonzero;fill:rgb(100%,100%,100%);fill-opacity:1;" d="M 481.410156 115.117188 C 481.410156 118.824219 478.40625 121.828125 474.699219 121.828125 C 470.996094 121.828125 467.992188 118.824219 467.992188 115.117188 C 467.992188 111.414062 470.996094 108.410156 474.699219 108.410156 C 478.40625 108.410156 481.410156 111.414062 481.410156 115.117188 "/>
<path style=" stroke:none;fill-rule:nonzero;fill:rgb(100%,100%,100%);fill-opacity:1;" d="M 482.75 151.347656 C 482.75 155.050781 479.746094 158.054688 476.042969 158.054688 C 472.335938 158.054688 469.332031 155.050781 469.332031 151.347656 C 469.332031 147.640625 472.335938 144.636719 476.042969 144.636719 C 479.746094 144.636719 482.75 147.640625 482.75 151.347656 "/>
<path style=" stroke:none;fill-rule:nonzero;fill:rgb(100%,100%,100%);fill-opacity:1;" d="M 190.253906 5.097656 C 190.253906 8.804688 187.253906 11.808594 183.546875 11.808594 C 179.84375 11.808594 176.839844 8.804688 176.839844 5.097656 C 176.839844 1.394531 179.84375 -1.609375 183.546875 -1.609375 C 187.253906 -1.609375 190.253906 1.394531 190.253906 5.097656 "/>
<path style=" stroke:none;fill-rule:nonzero;fill:rgb(100%,100%,100%);fill-opacity:1;" d="M 398.222656 11.808594 C 398.222656 15.511719 395.21875 18.515625 391.515625 18.515625 C 387.808594 18.515625 384.804688 15.511719 384.804688 11.808594 C 384.804688 8.101562 387.808594 5.097656 391.515625 5.097656 C 395.21875 5.097656 398.222656 8.101562 398.222656 11.808594 "/>
<path style=" stroke:none;fill-rule:nonzero;fill:rgb(100%,100%,100%);fill-opacity:1;" d="M 400.90625 488.117188 C 400.90625 491.820312 397.902344 494.824219 394.195312 494.824219 C 390.492188 494.824219 387.488281 491.820312 387.488281 488.117188 C 387.488281 484.410156 390.492188 481.410156 394.195312 481.410156 C 397.902344 481.410156 400.90625 484.410156 400.90625 488.117188 "/>
<path style=" stroke:none;fill-rule:nonzero;fill:rgb(100%,100%,100%);fill-opacity:1;" d="M 512.269531 258.683594 C 512.269531 262.386719 509.265625 265.390625 505.558594 265.390625 C 501.855469 265.390625 498.851562 262.386719 498.851562 258.683594 C 498.851562 254.976562 501.855469 251.972656 505.558594 251.972656 C 509.265625 251.972656 512.269531 254.976562 512.269531 258.683594 "/>
<path style=" stroke:none;fill-rule:nonzero;fill:rgb(100%,100%,100%);fill-opacity:1;" d="M 84.257812 481.410156 C 84.257812 485.113281 81.257812 488.117188 77.550781 488.117188 C 73.847656 488.117188 70.84375 485.113281 70.84375 481.410156 C 70.84375 477.703125 73.847656 474.699219 77.550781 474.699219 C 81.257812 474.699219 84.257812 477.703125 84.257812 481.410156 "/>
<path style=" stroke:none;fill-rule:nonzero;fill:rgb(100%,100%,100%);fill-opacity:1;" d="M 517.636719 357.972656 C 517.636719 361.675781 514.632812 364.679688 510.925781 364.679688 C 507.222656 364.679688 504.21875 361.675781 504.21875 357.972656 C 504.21875 354.265625 507.222656 351.261719 510.925781 351.261719 C 514.632812 351.261719 517.636719 354.265625 517.636719 357.972656 "/>
<path style=" stroke:none;fill-rule:nonzero;fill:rgb(100%,100%,100%);fill-opacity:1;" d="M 56.082031 144.636719 C 56.082031 148.34375 53.078125 151.34375 49.375 151.34375 C 45.671875 151.34375 42.667969 148.34375 42.667969 144.636719 C 42.667969 140.933594 45.671875 137.929688 49.375 137.929688 C 53.078125 137.929688 56.082031 140.933594 56.082031 144.636719 "/>
<path style=" stroke:none;fill-rule:nonzero;fill:rgb(100%,100%,100%);fill-opacity:1;" d="M 1.074219 265.390625 C 1.074219 269.097656 -1.929688 272.101562 -5.636719 272.101562 C -9.339844 272.101562 -12.34375 269.097656 -12.34375 265.390625 C -12.34375 261.6875 -9.339844 258.683594 -5.636719 258.683594 C -1.929688 258.683594 1.074219 261.6875 1.074219 265.390625 "/>
<path style=" stroke:none;fill-rule:nonzero;fill:rgb(100%,100%,100%);fill-opacity:1;" d="M 54.742188 383.464844 C 54.742188 387.167969 51.738281 390.171875 48.035156 390.171875 C 44.328125 390.171875 41.324219 387.167969 41.324219 383.464844 C 41.324219 379.757812 44.328125 376.753906 48.035156 376.753906 C 51.738281 376.753906 54.742188 379.757812 54.742188 383.464844 "/>
<path style=" stroke:none;fill-rule:nonzero;fill:rgb(100%,100%,100%);fill-opacity:1;" d="M 510.925781 -0.269531 C 510.925781 3.4375 507.921875 6.441406 504.21875 6.441406 C 500.511719 6.441406 497.507812 3.4375 497.507812 -0.269531 C 497.507812 -3.972656 500.511719 -6.976562 504.21875 -6.976562 C 507.921875 -6.976562 510.925781 -3.972656 510.925781 -0.269531 "/>
<path style=" stroke:none;fill-rule:nonzero;fill:rgb(100%,100%,100%);fill-opacity:1;" d="M 13.148438 175.496094 C 13.148438 179.203125 10.144531 182.207031 6.441406 182.207031 C 2.734375 182.207031 -0.269531 179.203125 -0.269531 175.496094 C -0.269531 171.792969 2.734375 168.789062 6.441406 168.789062 C 10.144531 168.789062 13.148438 171.792969 13.148438 175.496094 "/>
<path style=" stroke:none;fill-rule:nonzero;fill:rgb(100%,100%,100%);fill-opacity:1;" d="M 450.550781 282.835938 C 450.550781 286.539062 447.546875 289.542969 443.839844 289.542969 C 440.136719 289.542969 437.132812 286.539062 437.132812 282.835938 C 437.132812 279.128906 440.136719 276.125 443.839844 276.125 C 447.546875 276.125 450.550781 279.128906 450.550781 282.835938 "/>
<path style=" stroke:none;fill-rule:nonzero;fill:rgb(100%,100%,100%);fill-opacity:1;" d="M 33.273438 209.039062 C 33.273438 212.746094 30.269531 215.75 26.566406 215.75 C 22.859375 215.75 19.855469 212.746094 19.855469 209.039062 C 19.855469 205.335938 22.859375 202.332031 26.566406 202.332031 C 30.269531 202.332031 33.273438 205.335938 33.273438 209.039062 "/>
<path style=" stroke:none;fill-rule:nonzero;fill:rgb(100%,100%,100%);fill-opacity:1;" d="M 455.917969 41.324219 C 455.917969 45.03125 452.914062 48.035156 449.207031 48.035156 C 445.503906 48.035156 442.5 45.03125 442.5 41.324219 C 442.5 37.621094 445.503906 34.617188 449.207031 34.617188 C 452.914062 34.617188 455.917969 37.621094 455.917969 41.324219 "/>
<path style=" stroke:none;fill-rule:nonzero;fill:rgb(100%,100%,100%);fill-opacity:1;" d="M 249.292969 34.617188 C 249.292969 38.320312 246.289062 41.324219 242.582031 41.324219 C 238.878906 41.324219 235.875 38.320312 235.875 34.617188 C 235.875 30.910156 238.878906 27.90625 242.582031 27.90625 C 246.289062 27.90625 249.292969 30.910156 249.292969 34.617188 "/>
<path style=" stroke:none;fill-rule:nonzero;fill:rgb(100%,100%,100%);fill-opacity:1;" d="M 516.292969 517.636719 C 516.292969 521.339844 513.289062 524.34375 509.585938 524.34375 C 505.878906 524.34375 502.875 521.339844 502.875 517.636719 C 502.875 513.929688 505.878906 510.925781 509.585938 510.925781 C 513.289062 510.925781 516.292969 513.929688 516.292969 517.636719 "/>
<path style=" stroke:none;fill-rule:nonzero;fill:rgb(100%,100%,100%);fill-opacity:1;" d="M 317.71875 517.636719 C 317.71875 521.339844 314.714844 524.34375 311.011719 524.34375 C 307.304688 524.34375 304.300781 521.339844 304.300781 517.636719 C 304.300781 513.929688 307.304688 510.925781 311.011719 510.925781 C 314.714844 510.925781 317.71875 513.929688 317.71875 517.636719 "/>
<path style=" stroke:none;fill-rule:nonzero;fill:rgb(100%,100%,100%);fill-opacity:1;" d="M 253.316406 2.414062 C 253.316406 6.121094 250.3125 9.125 246.609375 9.125 C 242.902344 9.125 239.898438 6.121094 239.898438 2.414062 C 239.898438 -1.289062 242.902344 -4.292969 246.609375 -4.292969 C 250.3125 -4.292969 253.316406 -1.289062 253.316406 2.414062 "/>
<path style=" stroke:none;fill-rule:nonzero;fill:rgb(100%,100%,100%);fill-opacity:1;" d="M 6.441406 10.464844 C 6.441406 14.171875 3.4375 17.171875 -0.269531 17.171875 C -3.972656 17.171875 -6.976562 14.171875 -6.976562 10.464844 C -6.976562 6.761719 -3.972656 3.757812 -0.269531 3.757812 C 3.4375 3.757812 6.441406 6.761719 6.441406 10.464844 "/>
<path style=" stroke:none;fill-rule:nonzero;fill:rgb(100%,100%,100%);fill-opacity:1;" d="M 52.058594 302.960938 C 52.058594 306.664062 49.054688 309.667969 45.351562 309.667969 C 41.644531 309.667969 38.640625 306.664062 38.640625 302.960938 C 38.640625 299.253906 41.644531 296.25 45.351562 296.25 C 49.054688 296.25 52.058594 299.253906 52.058594 302.960938 "/>
<path style=" stroke:none;fill-rule:nonzero;fill:rgb(100%,100%,100%);fill-opacity:1;" d="M 39.984375 347.238281 C 39.984375 350.941406 36.980469 353.945312 33.273438 353.945312 C 29.570312 353.945312 26.566406 350.941406 26.566406 347.238281 C 26.566406 343.53125 29.570312 340.527344 33.273438 340.527344 C 36.980469 340.527344 39.984375 343.53125 39.984375 347.238281 "/>
<path style=" stroke:none;fill-rule:nonzero;fill:rgb(100%,100%,100%);fill-opacity:1;" d="M 437.132812 510.925781 C 437.132812 514.632812 434.128906 517.636719 430.421875 517.636719 C 426.71875 517.636719 423.714844 514.632812 423.714844 510.925781 C 423.714844 507.222656 426.71875 504.21875 430.421875 504.21875 C 434.128906 504.21875 437.132812 507.222656 437.132812 510.925781 "/>
<path style=" stroke:none;fill-rule:nonzero;fill:rgb(100%,100%,100%);fill-opacity:1;" d="M 451.890625 431.765625 C 451.890625 435.46875 448.886719 438.472656 445.183594 438.472656 C 441.476562 438.472656 438.472656 435.46875 438.472656 431.765625 C 438.472656 428.058594 441.476562 425.054688 445.183594 425.054688 C 448.886719 425.054688 451.890625 428.058594 451.890625 431.765625 "/>
<path style=" stroke:none;fill-rule:nonzero;fill:rgb(100%,100%,100%);fill-opacity:1;" d="M 38.640625 502.875 C 38.640625 506.582031 35.636719 509.585938 31.933594 509.585938 C 28.226562 509.585938 25.222656 506.582031 25.222656 502.875 C 25.222656 499.171875 28.226562 496.167969 31.933594 496.167969 C 35.636719 496.167969 38.640625 499.171875 38.640625 502.875 "/>
<path style=" stroke:none;fill-rule:nonzero;fill:rgb(100%,100%,100%);fill-opacity:1;" d="M 70.84375 500.191406 C 70.84375 503.898438 67.839844 506.902344 64.132812 506.902344 C 60.429688 506.902344 57.425781 503.898438 57.425781 500.191406 C 57.425781 496.488281 60.429688 493.484375 64.132812 493.484375 C 67.839844 493.484375 70.84375 496.488281 70.84375 500.191406 "/>
<path style=" stroke:none;fill-rule:nonzero;fill:rgb(100%,100%,100%);fill-opacity:1;" d="M 239.898438 22.539062 C 239.898438 26.246094 236.894531 29.25 233.191406 29.25 C 229.484375 29.25 226.480469 26.246094 226.480469 22.539062 C 226.480469 18.835938 229.484375 15.832031 233.191406 15.832031 C 236.894531 15.832031 239.898438 18.835938 239.898438 22.539062 "/>
<path style=" stroke:none;fill-rule:nonzero;fill:rgb(100%,100%,100%);fill-opacity:1;" d="M 359.3125 7.78125 C 359.3125 11.488281 356.308594 14.492188 352.605469 14.492188 C 348.898438 14.492188 345.894531 11.488281 345.894531 7.78125 C 345.894531 4.078125 348.898438 1.074219 352.605469 1.074219 C 356.308594 1.074219 359.3125 4.078125 359.3125 7.78125 "/>
<path style=" stroke:none;fill-rule:nonzero;fill:rgb(100%,100%,100%);fill-opacity:1;" d="M 394.195312 29.25 C 394.195312 32.953125 391.191406 35.957031 387.488281 35.957031 C 383.78125 35.957031 380.78125 32.953125 380.78125 29.25 C 380.78125 25.542969 383.78125 22.539062 387.488281 22.539062 C 391.191406 22.539062 394.195312 25.542969 394.195312 29.25 "/>
<path style=" stroke:none;fill-rule:nonzero;fill:rgb(100%,100%,100%);fill-opacity:1;" d="M 485.433594 192.9375 C 485.433594 196.644531 482.429688 199.648438 478.726562 199.648438 C 475.019531 199.648438 472.015625 196.644531 472.015625 192.9375 C 472.015625 189.234375 475.019531 186.230469 478.726562 186.230469 C 482.429688 186.230469 485.433594 189.234375 485.433594 192.9375 "/>
<path style=" stroke:none;fill-rule:nonzero;fill:rgb(100%,100%,100%);fill-opacity:1;" d="M 152.6875 476.042969 C 152.6875 479.746094 149.683594 482.75 145.980469 482.75 C 142.273438 482.75 139.269531 479.746094 139.269531 476.042969 C 139.269531 472.335938 142.273438 469.332031 145.980469 469.332031 C 149.683594 469.332031 152.6875 472.335938 152.6875 476.042969 "/>
<path style=" stroke:none;fill-rule:nonzero;fill:rgb(100%,100%,100%);fill-opacity:1;" d="M 11.808594 453.234375 C 11.808594 456.9375 8.804688 459.941406 5.097656 459.941406 C 1.394531 459.941406 -1.609375 456.9375 -1.609375 453.234375 C -1.609375 449.527344 1.394531 446.523438 5.097656 446.523438 C 8.804688 446.523438 11.808594 449.527344 11.808594 453.234375 "/>
<path style=" stroke:none;fill-rule:nonzero;fill:rgb(100%,100%,100%);fill-opacity:1;" d="M 506.902344 251.976562 C 506.902344 255.679688 503.898438 258.683594 500.191406 258.683594 C 496.488281 258.683594 493.484375 255.679688 493.484375 251.976562 C 493.484375 248.269531 496.488281 245.265625 500.191406 245.265625 C 503.898438 245.265625 506.902344 248.269531 506.902344 251.976562 "/>
<path style=" stroke:none;fill-rule:nonzero;fill:rgb(100%,100%,100%);fill-opacity:1;" d="M 457.257812 506.902344 C 457.257812 510.605469 454.253906 513.609375 450.550781 513.609375 C 446.84375 513.609375 443.839844 510.605469 443.839844 506.902344 C 443.839844 503.195312 446.84375 500.191406 450.550781 500.191406 C 454.253906 500.191406 457.257812 503.195312 457.257812 506.902344 "/>
<path style=" stroke:none;fill-rule:nonzero;fill:rgb(100%,100%,100%);fill-opacity:1;" d="M 437.132812 472.015625 C 437.132812 475.722656 434.128906 478.726562 430.421875 478.726562 C 426.71875 478.726562 423.714844 475.722656 423.714844 472.015625 C 423.714844 468.3125 426.71875 465.308594 430.421875 465.308594 C 434.128906 465.308594 437.132812 468.3125 437.132812 472.015625 "/>
<path style=" stroke:none;fill-rule:nonzero;fill:rgb(100%,100%,100%);fill-opacity:1;" d="M 265.390625 477.382812 C 265.390625 481.089844 262.386719 484.09375 258.683594 484.09375 C 254.976562 484.09375 251.972656 481.089844 251.972656 477.382812 C 251.972656 473.679688 254.976562 470.675781 258.683594 470.675781 C 262.386719 470.675781 265.390625 473.679688 265.390625 477.382812 "/>
<path style=" stroke:none;fill-rule:nonzero;fill:rgb(100%,100%,100%);fill-opacity:1;" d="M 509.585938 482.75 C 509.585938 486.457031 506.582031 489.460938 502.875 489.460938 C 499.171875 489.460938 496.167969 486.457031 496.167969 482.75 C 496.167969 479.046875 499.171875 476.042969 502.875 476.042969 C 506.582031 476.042969 509.585938 479.046875 509.585938 482.75 "/>
<path style=" stroke:none;fill-rule:nonzero;fill:rgb(100%,100%,100%);fill-opacity:1;" d="M 90.96875 498.851562 C 90.96875 502.554688 87.964844 505.558594 84.261719 505.558594 C 80.554688 505.558594 77.550781 502.554688 77.550781 498.851562 C 77.550781 495.144531 80.554688 492.140625 84.261719 492.140625 C 87.964844 492.140625 90.96875 495.144531 90.96875 498.851562 "/>
<path style=" stroke:none;fill-rule:nonzero;fill:rgb(100%,100%,100%);fill-opacity:1;" d="M 341.871094 488.117188 C 341.871094 491.820312 338.867188 494.824219 335.160156 494.824219 C 331.457031 494.824219 328.453125 491.820312 328.453125 488.117188 C 328.453125 484.410156 331.457031 481.410156 335.160156 481.410156 C 338.867188 481.410156 341.871094 484.410156 341.871094 488.117188 "/>
<path style=" stroke:none;fill-rule:nonzero;fill:rgb(100%,100%,100%);fill-opacity:1;" d="M 13.148438 411.640625 C 13.148438 415.34375 10.144531 418.347656 6.441406 418.347656 C 2.734375 418.347656 -0.269531 415.34375 -0.269531 411.640625 C -0.269531 407.933594 2.734375 404.929688 6.441406 404.929688 C 10.144531 404.929688 13.148438 407.933594 13.148438 411.640625 "/>
<path style=" stroke:none;fill-rule:nonzero;fill:rgb(100%,100%,100%);fill-opacity:1;" d="M 45.351562 31.933594 C 45.351562 35.636719 42.347656 38.640625 38.640625 38.640625 C 34.9375 38.640625 31.933594 35.636719 31.933594 31.933594 C 31.933594 28.226562 34.9375 25.222656 38.640625 25.222656 C 42.347656 25.222656 45.351562 28.226562 45.351562 31.933594 "/>
<path style=" stroke:none;fill-rule:nonzero;fill:rgb(100%,100%,100%);fill-opacity:1;" d="M 453.234375 164.761719 C 453.234375 168.46875 450.230469 171.472656 446.523438 171.472656 C 442.820312 171.472656 439.816406 168.46875 439.816406 164.761719 C 439.816406 161.058594 442.820312 158.054688 446.523438 158.054688 C 450.230469 158.054688 453.234375 161.058594 453.234375 164.761719 "/>
<path style=" stroke:none;fill-rule:nonzero;fill:rgb(100%,84.3%,0%);fill-opacity:1;" d="M 104.386719 160.738281 C 104.386719 164.441406 101.382812 167.445312 97.675781 167.445312 C 93.972656 167.445312 90.96875 164.441406 90.96875 160.738281 C 90.96875 157.03125 93.972656 154.03125 97.675781 154.03125 C 101.382812 154.03125 104.386719 157.03125 104.386719 160.738281 "/>
<path style=" stroke:none;fill-rule:nonzero;fill:rgb(100%,84.3%,0%);fill-opacity:1;" d="M 104.386719 147.320312 C 104.386719 151.027344 101.382812 154.03125 97.675781 154.03125 C 93.972656 154.03125 90.96875 151.027344 90.96875 147.320312 C 90.96875 143.617188 93.972656 140.613281 97.675781 140.613281 C 101.382812 140.613281 104.386719 143.617188 104.386719 147.320312 "/>
<path style=" stroke:none;fill-rule:nonzero;fill:rgb(100%,84.3%,0%);fill-opacity:1;" d="M 434.449219 429.082031 C 434.449219 432.785156 431.445312 435.789062 427.738281 435.789062 C 424.035156 435.789062 421.03125 432.785156 421.03125 429.082031 C 421.03125 425.375 424.035156 422.375 427.738281 422.375 C 431.445312 422.375 434.449219 425.375 434.449219 429.082031 "/>
<path style=" stroke:none;fill-rule:nonzero;fill:rgb(100%,84.3%,0%);fill-opacity:1;" d="M 104.386719 69.5 C 104.386719 73.207031 101.382812 76.210938 97.675781 76.210938 C 93.972656 76.210938 90.96875 73.207031 90.96875 69.5 C 90.96875 65.796875 93.972656 62.792969 97.675781 62.792969 C 101.382812 62.792969 104.386719 65.796875 104.386719 69.5 "/>
<path style=" stroke:none;fill-rule:nonzero;fill:rgb(100%,84.3%,0%);fill-opacity:1;" d="M 433.105469 56.085938 C 433.105469 59.789062 430.101562 62.792969 426.398438 62.792969 C 422.691406 62.792969 419.6875 59.789062 419.6875 56.085938 C 419.6875 52.378906 422.691406 49.375 426.398438 49.375 C 430.101562 49.375 433.105469 52.378906 433.105469 56.085938 "/>
<path style=" stroke:none;fill-rule:nonzero;fill:rgb(100%,84.3%,0%);fill-opacity:1;" d="M 392.855469 56.085938 C 392.855469 59.789062 389.851562 62.792969 386.148438 62.792969 C 382.441406 62.792969 379.4375 59.789062 379.4375 56.085938 C 379.4375 52.378906 382.441406 49.375 386.148438 49.375 C 389.851562 49.375 392.855469 52.378906 392.855469 56.085938 "/>
<path style=" stroke:none;fill-rule:nonzero;fill:rgb(100%,84.3%,0%);fill-opacity:1;" d="M 104.386719 56.085938 C 104.386719 59.789062 101.382812 62.792969 97.675781 62.792969 C 93.972656 62.792969 90.96875 59.789062 90.96875 56.085938 C 90.96875 52.378906 93.972656 49.375 97.675781 49.375 C 101.382812 49.375 104.386719 52.378906 104.386719 56.085938 "/>
<path style=" stroke:none;fill-rule:nonzero;fill:rgb(100%,84.3%,0%);fill-opacity:1;" d="M 144.636719 56.085938 C 144.636719 59.789062 141.632812 62.792969 137.929688 62.792969 C 134.222656 62.792969 131.21875 59.789062 131.21875 56.085938 C 131.21875 52.378906 134.222656 49.375 137.929688 49.375 C 141.632812 49.375 144.636719 52.378906 144.636719 56.085938 "/>
<path style=" stroke:none;fill-rule:nonzero;fill:rgb(100%,84.3%,0%);fill-opacity:1;" d="M 90.96875 355.285156 C 90.96875 358.992188 87.964844 361.996094 84.261719 361.996094 C 80.554688 361.996094 77.550781 358.992188 77.550781 355.285156 C 77.550781 351.582031 80.554688 348.578125 84.261719 348.578125 C 87.964844 348.578125 90.96875 351.582031 90.96875 355.285156 "/>
<path style=" stroke:none;fill-rule:nonzero;fill:rgb(100%,84.3%,0%);fill-opacity:1;" d="M 434.449219 335.160156 C 434.449219 338.867188 431.445312 341.871094 427.738281 341.871094 C 424.035156 341.871094 421.03125 338.867188 421.03125 335.160156 C 421.03125 331.457031 424.035156 328.453125 427.738281 328.453125 C 431.445312 328.453125 434.449219 331.457031 434.449219 335.160156 "/>
<path style=" stroke:none;fill-rule:nonzero;fill:rgb(100%,84.3%,0%);fill-opacity:1;" d="M 265.390625 455.914062 C 265.390625 459.621094 262.386719 462.625 258.683594 462.625 C 254.976562 462.625 251.972656 459.621094 251.972656 455.914062 C 251.972656 452.210938 254.976562 449.207031 258.683594 449.207031 C 262.386719 449.207031 265.390625 452.210938 265.390625 455.914062 "/>
<path style=" stroke:none;fill-rule:nonzero;fill:rgb(100%,84.3%,0%);fill-opacity:1;" d="M 90.96875 73.527344 C 90.96875 77.230469 87.964844 80.234375 84.261719 80.234375 C 80.554688 80.234375 77.550781 77.230469 77.550781 73.527344 C 77.550781 69.820312 80.554688 66.816406 84.261719 66.816406 C 87.964844 66.816406 90.96875 69.820312 90.96875 73.527344 "/>
<path style=" stroke:none;fill-rule:nonzero;fill:rgb(100%,84.3%,0%);fill-opacity:1;" d="M 245.265625 56.085938 C 245.265625 59.789062 242.261719 62.792969 238.558594 62.792969 C 234.851562 62.792969 231.847656 59.789062 231.847656 56.085938 C 231.847656 52.378906 234.851562 49.375 238.558594 49.375 C 242.261719 49.375 245.265625 52.378906 245.265625 56.085938 "/>
<path style=" stroke:none;fill-rule:nonzero;fill:rgb(100%,84.3%,0%);fill-opacity:1;" d="M 90.96875 268.074219 C 90.96875 271.78125 87.964844 274.785156 84.261719 274.785156 C 80.554688 274.785156 77.550781 271.78125 77.550781 268.074219 C 77.550781 264.371094 80.554688 261.367188 84.261719 261.367188 C 87.964844 261.367188 90.96875 264.371094 90.96875 268.074219 "/>
<path style=" stroke:none;fill-rule:nonzero;fill:rgb(100%,84.3%,0%);fill-opacity:1;" d="M 352.605469 56.085938 C 352.605469 59.789062 349.601562 62.792969 345.894531 62.792969 C 342.191406 62.792969 339.1875 59.789062 339.1875 56.085938 C 339.1875 52.378906 342.191406 49.375 345.894531 49.375 C 349.601562 49.375 352.605469 52.378906 352.605469 56.085938 "/>
<path style=" stroke:none;fill-rule:nonzero;fill:rgb(100%,84.3%,0%);fill-opacity:1;" d="M 298.933594 56.085938 C 298.933594 59.789062 295.929688 62.792969 292.226562 62.792969 C 288.519531 62.792969 285.515625 59.789062 285.515625 56.085938 C 285.515625 52.378906 288.519531 49.375 292.226562 49.375 C 295.929688 49.375 298.933594 52.378906 298.933594 56.085938 "/>
<path style=" stroke:none;fill-rule:nonzero;fill:rgb(100%,84.3%,0%);fill-opacity:1;" d="M 325.769531 455.914062 C 325.769531 459.621094 322.765625 462.625 319.0625 462.625 C 315.355469 462.625 312.351562 459.621094 312.351562 455.914062 C 312.351562 452.210938 315.355469 449.207031 319.0625 449.207031 C 322.765625 449.207031 325.769531 452.210938 325.769531 455.914062 "/>
<path style=" stroke:none;fill-rule:nonzero;fill:rgb(100%,84.3%,0%);fill-opacity:1;" d="M 90.96875 147.320312 C 90.96875 151.027344 87.964844 154.03125 84.261719 154.03125 C 80.554688 154.03125 77.550781 151.027344 77.550781 147.320312 C 77.550781 143.617188 80.554688 140.613281 84.261719 140.613281 C 87.964844 140.613281 90.96875 143.617188 90.96875 147.320312 "/>
<path style=" stroke:none;fill-rule:nonzero;fill:rgb(100%,84.3%,0%);fill-opacity:1;" d="M 90.96875 221.113281 C 90.96875 224.820312 87.964844 227.824219 84.261719 227.824219 C 80.554688 227.824219 77.550781 224.820312 77.550781 221.113281 C 77.550781 217.410156 80.554688 214.40625 84.261719 214.40625 C 87.964844 214.40625 90.96875 217.410156 90.96875 221.113281 "/>
<path style=" stroke:none;fill-rule:nonzero;fill:rgb(100%,84.3%,0%);fill-opacity:1;" d="M 90.96875 160.738281 C 90.96875 164.441406 87.964844 167.445312 84.261719 167.445312 C 80.554688 167.445312 77.550781 164.441406 77.550781 160.738281 C 77.550781 157.03125 80.554688 154.03125 84.261719 154.03125 C 87.964844 154.03125 90.96875 157.03125 90.96875 160.738281 "/>
<path style=" stroke:none;fill-rule:nonzero;fill:rgb(100%,84.3%,0%);fill-opacity:1;" d="M 339.1875 455.914062 C 339.1875 459.621094 336.183594 462.625 332.476562 462.625 C 328.773438 462.625 325.769531 459.621094 325.769531 455.914062 C 325.769531 452.210938 328.773438 449.207031 332.476562 449.207031 C 336.183594 449.207031 339.1875 452.210938 339.1875 455.914062 "/>
<path style=" stroke:none;fill-rule:nonzero;fill:rgb(100%,84.3%,0%);fill-opacity:1;" d="M 434.449219 160.738281 C 434.449219 164.441406 431.445312 167.445312 427.738281 167.445312 C 424.035156 167.445312 421.03125 164.441406 421.03125 160.738281 C 421.03125 157.03125 424.035156 154.03125 427.738281 154.03125 C 431.445312 154.03125 434.449219 157.03125 434.449219 160.738281 "/>
<path style=" stroke:none;fill-rule:nonzero;fill:rgb(100%,84.3%,0%);fill-opacity:1;" d="M 117.800781 56.085938 C 117.800781 59.789062 114.800781 62.792969 111.09375 62.792969 C 107.390625 62.792969 104.386719 59.789062 104.386719 56.085938 C 104.386719 52.378906 107.390625 49.375 111.09375 49.375 C 114.800781 49.375 117.800781 52.378906 117.800781 56.085938 "/>
<path style=" stroke:none;fill-rule:nonzero;fill:rgb(100%,84.3%,0%);fill-opacity:1;" d="M 90.96875 207.699219 C 90.96875 211.402344 87.964844 214.40625 84.261719 214.40625 C 80.554688 214.40625 77.550781 211.402344 77.550781 207.699219 C 77.550781 203.992188 80.554688 200.988281 84.261719 200.988281 C 87.964844 200.988281 90.96875 203.992188 90.96875 207.699219 "/>
<path style=" stroke:none;fill-rule:nonzero;fill:rgb(100%,84.3%,0%);fill-opacity:1;" d="M 406.273438 455.914062 C 406.273438 459.621094 403.269531 462.625 399.5625 462.625 C 395.859375 462.625 392.855469 459.621094 392.855469 455.914062 C 392.855469 452.210938 395.859375 449.207031 399.5625 449.207031 C 403.269531 449.207031 406.273438 452.210938 406.273438 455.914062 "/>
<path style=" stroke:none;fill-rule:nonzero;fill:rgb(100%,84.3%,0%);fill-opacity:1;" d="M 90.96875 133.902344 C 90.96875 137.609375 87.964844 140.613281 84.261719 140.613281 C 80.554688 140.613281 77.550781 137.609375 77.550781 133.902344 C 77.550781 130.199219 80.554688 127.195312 84.261719 127.195312 C 87.964844 127.195312 90.96875 130.199219 90.96875 133.902344 "/>
<path style=" stroke:none;fill-rule:nonzero;fill:rgb(100%,84.3%,0%);fill-opacity:1;" d="M 104.386719 455.914062 C 104.386719 459.621094 101.382812 462.625 97.675781 462.625 C 93.972656 462.625 90.96875 459.621094 90.96875 455.914062 C 90.96875 452.210938 93.972656 449.207031 97.675781 449.207031 C 101.382812 449.207031 104.386719 452.210938 104.386719 455.914062 "/>
<path style=" stroke:none;fill-rule:nonzero;fill:rgb(100%,84.3%,0%);fill-opacity:1;" d="M 90.96875 174.15625 C 90.96875 177.859375 87.964844 180.863281 84.261719 180.863281 C 80.554688 180.863281 77.550781 177.859375 77.550781 174.15625 C 77.550781 170.449219 80.554688 167.445312 84.261719 167.445312 C 87.964844 167.445312 90.96875 170.449219 90.96875 174.15625 "/>
<path style=" stroke:none;fill-rule:nonzero;fill:rgb(100%,84.3%,0%);fill-opacity:1;" d="M 90.96875 341.871094 C 90.96875 345.574219 87.964844 348.578125 84.261719 348.578125 C 80.554688 348.578125 77.550781 345.574219 77.550781 341.871094 C 77.550781 338.164062 80.554688 335.160156 84.261719 335.160156 C 87.964844 335.160156 90.96875 338.164062 90.96875 341.871094 "/>
<path style=" stroke:none;fill-rule:nonzero;fill:rgb(100%,84.3%,0%);fill-opacity:1;" d="M 251.972656 455.914062 C 251.972656 459.621094 248.972656 462.625 245.265625 462.625 C 241.5625 462.625 238.558594 459.621094 238.558594 455.914062 C 238.558594 452.210938 241.5625 449.207031 245.265625 449.207031 C 248.972656 449.207031 251.972656 452.210938 251.972656 455.914062 "/>
<path style=" stroke:none;fill-rule:nonzero;fill:rgb(100%,84.3%,0%);fill-opacity:1;" d="M 434.449219 281.492188 C 434.449219 285.199219 431.445312 288.203125 427.738281 288.203125 C 424.035156 288.203125 421.03125 285.199219 421.03125 281.492188 C 421.03125 277.789062 424.035156 274.785156 427.738281 274.785156 C 431.445312 274.785156 434.449219 277.789062 434.449219 281.492188 "/>
<path style=" stroke:none;fill-rule:nonzero;fill:rgb(100%,84.3%,0%);fill-opacity:1;" d="M 434.449219 294.910156 C 434.449219 298.613281 431.445312 301.617188 427.738281 301.617188 C 424.035156 301.617188 421.03125 298.613281 421.03125 294.910156 C 421.03125 291.203125 424.035156 288.203125 427.738281 288.203125 C 431.445312 288.203125 434.449219 291.203125 434.449219 294.910156 "/>
<path style=" stroke:none;fill-rule:nonzero;fill:rgb(100%,84.3%,0%);fill-opacity:1;" d="M 434.449219 455.914062 C 434.449219 459.621094 431.445312 462.625 427.738281 462.625 C 424.035156 462.625 421.03125 459.621094 421.03125 455.914062 C 421.03125 452.210938 424.035156 449.207031 427.738281 449.207031 C 431.445312 449.207031 434.449219 452.210938 434.449219 455.914062 "/>
<path style=" stroke:none;fill-rule:nonzero;fill:rgb(100%,84.3%,0%);fill-opacity:1;" d="M 90.96875 86.941406 C 90.96875 90.648438 87.964844 93.652344 84.261719 93.652344 C 80.554688 93.652344 77.550781 90.648438 77.550781 86.941406 C 77.550781 83.238281 80.554688 80.234375 84.261719 80.234375 C 87.964844 80.234375 90.96875 83.238281 90.96875 86.941406 "/>
<path style=" stroke:none;fill-rule:nonzero;fill:rgb(100%,84.3%,0%);fill-opacity:1;" d="M 90.96875 60.109375 C 90.96875 63.8125 87.964844 66.816406 84.261719 66.816406 C 80.554688 66.816406 77.550781 63.8125 77.550781 60.109375 C 77.550781 56.402344 80.554688 53.402344 84.261719 53.402344 C 87.964844 53.402344 90.96875 56.402344 90.96875 60.109375 "/>
<path style=" stroke:none;fill-rule:nonzero;fill:rgb(100%,84.3%,0%);fill-opacity:1;" d="M 434.449219 361.996094 C 434.449219 365.699219 431.445312 368.703125 427.738281 368.703125 C 424.035156 368.703125 421.03125 365.699219 421.03125 361.996094 C 421.03125 358.289062 424.035156 355.289062 427.738281 355.289062 C 431.445312 355.289062 434.449219 358.289062 434.449219 361.996094 "/>
<path style=" stroke:none;fill-rule:nonzero;fill:rgb(100%,84.3%,0%);fill-opacity:1;" d="M 434.449219 73.527344 C 434.449219 77.230469 431.445312 80.234375 427.738281 80.234375 C 424.035156 80.234375 421.03125 77.230469 421.03125 73.527344 C 421.03125 69.820312 424.035156 66.816406 427.738281 66.816406 C 431.445312 66.816406 434.449219 69.820312 434.449219 73.527344 "/>
<path style=" stroke:none;fill-rule:nonzero;fill:rgb(100%,84.3%,0%);fill-opacity:1;" d="M 272.101562 56.085938 C 272.101562 59.789062 269.097656 62.792969 265.390625 62.792969 C 261.6875 62.792969 258.683594 59.789062 258.683594 56.085938 C 258.683594 52.378906 261.6875 49.375 265.390625 49.375 C 269.097656 49.375 272.101562 52.378906 272.101562 56.085938 "/>
<path style=" stroke:none;fill-rule:nonzero;fill:rgb(100%,84.3%,0%);fill-opacity:1;" d="M 298.933594 455.914062 C 298.933594 459.621094 295.929688 462.625 292.226562 462.625 C 288.519531 462.625 285.515625 459.621094 285.515625 455.914062 C 285.515625 452.210938 288.519531 449.207031 292.226562 449.207031 C 295.929688 449.207031 298.933594 452.210938 298.933594 455.914062 "/>
<path style=" stroke:none;fill-rule:nonzero;fill:rgb(100%,84.3%,0%);fill-opacity:1;" d="M 434.449219 315.035156 C 434.449219 318.742188 431.445312 321.746094 427.738281 321.746094 C 424.035156 321.746094 421.03125 318.742188 421.03125 315.035156 C 421.03125 311.332031 424.035156 308.328125 427.738281 308.328125 C 431.445312 308.328125 434.449219 311.332031 434.449219 315.035156 "/>
<path style=" stroke:none;fill-rule:nonzero;fill:rgb(100%,84.3%,0%);fill-opacity:1;" d="M 211.722656 56.085938 C 211.722656 59.789062 208.71875 62.792969 205.015625 62.792969 C 201.308594 62.792969 198.304688 59.789062 198.304688 56.085938 C 198.304688 52.378906 201.308594 49.375 205.015625 49.375 C 208.71875 49.375 211.722656 52.378906 211.722656 56.085938 "/>
<path style=" stroke:none;fill-rule:nonzero;fill:rgb(100%,84.3%,0%);fill-opacity:1;" d="M 434.449219 194.28125 C 434.449219 197.984375 431.445312 200.988281 427.738281 200.988281 C 424.035156 200.988281 421.03125 197.984375 421.03125 194.28125 C 421.03125 190.574219 424.035156 187.574219 427.738281 187.574219 C 431.445312 187.574219 434.449219 190.574219 434.449219 194.28125 "/>
<path style=" stroke:none;fill-rule:nonzero;fill:rgb(100%,84.3%,0%);fill-opacity:1;" d="M 90.96875 294.910156 C 90.96875 298.613281 87.964844 301.617188 84.261719 301.617188 C 80.554688 301.617188 77.550781 298.613281 77.550781 294.910156 C 77.550781 291.203125 80.554688 288.203125 84.261719 288.203125 C 87.964844 288.203125 90.96875 291.203125 90.96875 294.910156 "/>
<path style=" stroke:none;fill-rule:nonzero;fill:rgb(100%,84.3%,0%);fill-opacity:1;" d="M 151.34375 455.914062 C 151.34375 459.621094 148.34375 462.625 144.636719 462.625 C 140.933594 462.625 137.929688 459.621094 137.929688 455.914062 C 137.929688 452.210938 140.933594 449.207031 144.636719 449.207031 C 148.34375 449.207031 151.34375 452.210938 151.34375 455.914062 "/>
<path style=" stroke:none;fill-rule:nonzero;fill:rgb(100%,84.3%,0%);fill-opacity:1;" d="M 434.449219 348.578125 C 434.449219 352.285156 431.445312 355.289062 427.738281 355.289062 C 424.035156 355.289062 421.03125 352.285156 421.03125 348.578125 C 421.03125 344.875 424.035156 341.871094 427.738281 341.871094 C 431.445312 341.871094 434.449219 344.875 434.449219 348.578125 "/>
<path style=" stroke:none;fill-rule:nonzero;fill:rgb(100%,84.3%,0%);fill-opacity:1;" d="M 90.96875 455.914062 C 90.96875 459.621094 87.964844 462.625 84.261719 462.625 C 80.554688 462.625 77.550781 459.621094 77.550781 455.914062 C 77.550781 452.210938 80.554688 449.207031 84.261719 449.207031 C 87.964844 449.207031 90.96875 452.210938 90.96875 455.914062 "/>
<path style=" stroke:none;fill-rule:nonzero;fill:rgb(100%,84.3%,0%);fill-opacity:1;" d="M 406.273438 56.085938 C 406.273438 59.789062 403.269531 62.792969 399.5625 62.792969 C 395.859375 62.792969 392.855469 59.789062 392.855469 56.085938 C 392.855469 52.378906 395.859375 49.375 399.5625 49.375 C 403.269531 49.375 406.273438 52.378906 406.273438 56.085938 "/>
<path style=" stroke:none;fill-rule:nonzero;fill:rgb(100%,84.3%,0%);fill-opacity:1;" d="M 434.449219 415.664062 C 434.449219 419.371094 431.445312 422.375 427.738281 422.375 C 424.035156 422.375 421.03125 419.371094 421.03125 415.664062 C 421.03125 411.960938 424.035156 408.957031 427.738281 408.957031 C 431.445312 408.957031 434.449219 411.960938 434.449219 415.664062 "/>
<path style=" stroke:none;fill-rule:nonzero;fill:rgb(100%,84.3%,0%);fill-opacity:1;" d="M 379.4375 56.085938 C 379.4375 59.789062 376.433594 62.792969 372.730469 62.792969 C 369.023438 62.792969 366.019531 59.789062 366.019531 56.085938 C 366.019531 52.378906 369.023438 49.375 372.730469 49.375 C 376.433594 49.375 379.4375 52.378906 379.4375 56.085938 "/>
<path style=" stroke:none;fill-rule:nonzero;fill:rgb(100%,84.3%,0%);fill-opacity:1;" d="M 90.96875 234.53125 C 90.96875 238.238281 87.964844 241.242188 84.261719 241.242188 C 80.554688 241.242188 77.550781 238.238281 77.550781 234.53125 C 77.550781 230.828125 80.554688 227.824219 84.261719 227.824219 C 87.964844 227.824219 90.96875 230.828125 90.96875 234.53125 "/>
<path style=" stroke:none;fill-rule:nonzero;fill:rgb(100%,84.3%,0%);fill-opacity:1;" d="M 434.449219 140.613281 C 434.449219 144.316406 431.445312 147.320312 427.738281 147.320312 C 424.035156 147.320312 421.03125 144.316406 421.03125 140.613281 C 421.03125 136.90625 424.035156 133.902344 427.738281 133.902344 C 431.445312 133.902344 434.449219 136.90625 434.449219 140.613281 "/>
<path style=" stroke:none;fill-rule:nonzero;fill:rgb(100%,84.3%,0%);fill-opacity:1;" d="M 419.691406 56.085938 C 419.691406 59.789062 416.6875 62.792969 412.980469 62.792969 C 409.277344 62.792969 406.273438 59.789062 406.273438 56.085938 C 406.273438 52.378906 409.277344 49.375 412.980469 49.375 C 416.6875 49.375 419.691406 52.378906 419.691406 56.085938 "/>
</g>
</svg>
