<?xml version="1.0" encoding="UTF-8"?>
<svg xmlns="http://www.w3.org/2000/svg" xmlns:xlink="http://www.w3.org/1999/xlink" width="512pt" height="512pt" viewBox="0 0 512 512" version="1.1">
<g id="surface26">
<rect x="0" y="0" width="512" height="512" style="fill:rgb(26.7%,26.7%,26.7%);fill-opacity:1;stroke:none;"/>
<path style=" stroke:none;fill-rule:nonzero;fill:rgb(19.2%,38.8%,66.7%);fill-opacity:1;" d="M 42.667969 135.179688 L 469.332031 135.179688 L 469.332031 477.746094 L 42.667969 477.746094 Z M 42.667969 135.179688 "/>
<path style=" stroke:none;fill-rule:nonzero;fill:rgb(100%,100%,100%);fill-opacity:1;" d="M 176 -6.359375 C 176 -0.695312 171.410156 3.898438 165.742188 3.898438 C 160.078125 3.898438 155.488281 -0.695312 155.488281 -6.359375 C 155.488281 -12.023438 160.078125 -16.617188 165.742188 -16.617188 C 171.410156 -16.617188 176 -12.023438 176 -6.359375 "/>
<path style=" stroke:none;fill-rule:nonzero;fill:rgb(100%,100%,100%);fill-opacity:1;" d="M 379.078125 94.152344 C 379.078125 99.820312 374.484375 104.410156 368.820312 104.410156 C 363.15625 104.410156 358.566406 99.820312 358.566406 94.152344 C 358.566406 88.488281 363.15625 83.898438 368.820312 83.898438 C 374.484375 83.898438 379.078125 88.488281 379.078125 94.152344 "/>
<path style=" stroke:none;fill-rule:nonzero;fill:rgb(100%,100%,100%);fill-opacity:1;" d="M 434.460938 18.257812 C 434.460938 23.921875 429.871094 28.511719 424.203125 28.511719 C 418.539062 28.511719 413.949219 23.921875 413.949219 18.257812 C 413.949219 12.589844 418.539062 8 424.203125 8 C 429.871094 8 434.460938 12.589844 434.460938 18.257812 "/>
<path style=" stroke:none;fill-rule:nonzero;fill:rgb(100%,100%,100%);fill-opacity:1;" d="M 274.460938 122.871094 C 274.460938 128.535156 269.871094 133.128906 264.203125 133.128906 C 258.539062 133.128906 253.949219 128.535156 253.949219 122.871094 C 253.949219 117.207031 258.539062 112.617188 264.203125 112.617188 C 269.871094 112.617188 274.460938 117.207031 274.460938 122.871094 "/>
<path style=" stroke:none;fill-rule:nonzero;fill:rgb(100%,100%,100%);fill-opacity:1;" d="M 28.308594 49.027344 C 28.308594 54.691406 23.714844 59.28125 18.050781 59.28125 C 12.386719 59.28125 7.792969 54.691406 7.792969 49.027344 C 7.792969 43.363281 12.386719 38.769531 18.050781 38.769531 C 23.714844 38.769531 28.308594 43.363281 28.308594 49.027344 "/>
<path style=" stroke:none;fill-rule:nonzero;fill:rgb(100%,100%,100%);fill-opacity:1;" d="M 237.539062 504.410156 C 237.539062 510.074219 232.945312 514.667969 227.28125 514.667969 C 221.617188 514.667969 217.027344 510.074219 217.027344 504.410156 C 217.027344 498.746094 221.617188 494.152344 227.28125 494.152344 C 232.945312 494.152344 237.539062 498.746094 237.539062 504.410156 "/>
<path style=" stroke:none;fill-rule:nonzero;fill:rgb(100%,100%,100%);fill-opacity:1;" d="M 44.71875 157.742188 C 44.71875 163.410156 40.125 168 34.460938 168 C 28.796875 168 24.207031 163.410156 24.207031 157.742188 C 24.207031 152.078125 28.796875 147.488281 34.460938 147.488281 C 40.125 147.488281 44.71875 152.078125 44.71875 157.742188 "/>
<path style=" stroke:none;fill-rule:nonzero;fill:rgb(100%,100%,100%);fill-opacity:1;" d="M 212.921875 518.769531 C 212.921875 524.433594 208.332031 529.027344 202.667969 529.027344 C 197.003906 529.027344 192.410156 524.433594 192.410156 518.769531 C 192.410156 513.105469 197.003906 508.511719 202.667969 508.511719 C 208.332031 508.511719 212.921875 513.105469 212.921875 518.769531 "/>
<path style=" stroke:none;fill-rule:nonzero;fill:rgb(100%,100%,100%);fill-opacity:1;" d="M 450.871094 108.511719 C 450.871094 114.175781 446.28125 118.769531 440.613281 118.769531 C 434.949219 118.769531 430.359375 114.175781 430.359375 108.511719 C 430.359375 102.847656 434.949219 98.257812 440.613281 98.257812 C 446.28125 98.257812 450.871094 102.847656 450.871094 108.511719 "/>
<path style=" stroke:none;fill-rule:nonzero;fill:rgb(100%,100%,100%);fill-opacity:1;" d="M 512.410156 496.203125 C 512.410156 501.871094 507.820312 506.460938 502.152344 506.460938 C 496.488281 506.460938 491.898438 501.871094 491.898438 496.203125 C 491.898438 490.539062 496.488281 485.949219 502.152344 485.949219 C 507.820312 485.949219 512.410156 490.539062 512.410156 496.203125 "/>
<path style=" stroke:none;fill-rule:nonzero;fill:rgb(100%,100%,100%);fill-opacity:1;" d="M 173.949219 98.257812 C 173.949219 103.921875 169.355469 108.511719 163.691406 108.511719 C 158.027344 108.511719 153.4375 103.921875 153.4375 98.257812 C 153.4375 92.589844 158.027344 88 163.691406 88 C 169.355469 88 173.949219 92.589844 173.949219 98.257812 "/>
<path style=" stroke:none;fill-rule:nonzero;fill:rgb(100%,100%,100%);fill-opacity:1;" d="M 42.667969 20.308594 C 42.667969 25.972656 38.074219 30.5625 32.410156 30.5625 C 26.746094 30.5625 22.152344 25.972656 22.152344 20.308594 C 22.152344 14.644531 26.746094 10.050781 32.410156 10.050781 C 38.074219 10.050781 42.667969 14.644531 42.667969 20.308594 "/>
<path style=" stroke:none;fill-rule:nonzero;fill:rgb(100%,100%,100%);fill-opacity:1;" d="M 485.742188 272.613281 C 485.742188 278.28125 481.152344 282.871094 475.488281 282.871094 C 469.824219 282.871094 465.230469 278.28125 465.230469 272.613281 C 465.230469 266.949219 469.824219 262.359375 475.488281 262.359375 C 481.152344 262.359375 485.742188 266.949219 485.742188 272.613281 "/>
<path style=" stroke:none;fill-rule:nonzero;fill:rgb(100%,100%,100%);fill-opacity:1;" d="M 498.050781 42.871094 C 498.050781 48.535156 493.460938 53.128906 487.796875 53.128906 C 482.128906 53.128906 477.539062 48.535156 477.539062 42.871094 C 477.539062 37.207031 482.128906 32.617188 487.796875 32.617188 C 493.460938 32.617188 498.050781 37.207031 498.050781 42.871094 "/>
<path style=" stroke:none;fill-rule:nonzero;fill:rgb(100%,100%,100%);fill-opacity:1;" d="M 188.308594 114.667969 C 188.308594 120.332031 183.714844 124.921875 178.050781 124.921875 C 172.386719 124.921875 167.792969 120.332031 167.792969 114.667969 C 167.792969 109.003906 172.386719 104.410156 178.050781 104.410156 C 183.714844 104.410156 188.308594 109.003906 188.308594 114.667969 "/>
<path style=" stroke:none;fill-rule:nonzero;fill:rgb(100%,100%,100%);fill-opacity:1;" d="M 75.488281 8 C 75.488281 13.664062 70.894531 18.257812 65.230469 18.257812 C 59.566406 18.257812 54.972656 13.664062 54.972656 8 C 54.972656 2.335938 59.566406 -2.257812 65.230469 -2.257812 C 70.894531 -2.257812 75.488281 2.335938 75.488281 8 "/>
<path style=" stroke:none;fill-rule:nonzero;fill:rgb(100%,100%,100%);fill-opacity:1;" d="M 510.359375 473.640625 C 510.359375 479.304688 505.765625 483.898438 500.101562 483.898438 C 494.4375 483.898438 489.847656 479.304688 489.847656 473.640625 C 489.847656 467.976562 494.4375 463.382812 500.101562 463.382812 C 505.765625 463.382812 510.359375 467.976562 510.359375 473.640625 "/>
<path style=" stroke:none;fill-rule:nonzero;fill:rgb(100%,100%,100%);fill-opacity:1;" d="M 303.179688 90.050781 C 303.179688 95.714844 298.585938 100.308594 292.921875 100.308594 C 287.257812 100.308594 282.667969 95.714844 282.667969 90.050781 C 282.667969 84.386719 287.257812 79.792969 292.921875 79.792969 C 298.585938 79.792969 303.179688 84.386719 303.179688 90.050781 "/>
<path style=" stroke:none;fill-rule:nonzero;fill:rgb(100%,100%,100%);fill-opacity:1;" d="M 307.28125 508.511719 C 307.28125 514.175781 302.691406 518.769531 297.027344 518.769531 C 291.363281 518.769531 286.769531 514.175781 286.769531 508.511719 C 286.769531 502.847656 291.363281 498.257812 297.027344 498.257812 C 302.691406 498.257812 307.28125 502.847656 307.28125 508.511719 "/>
<path style=" stroke:none;fill-rule:nonzero;fill:rgb(100%,100%,100%);fill-opacity:1;" d="M 438.5625 75.691406 C 438.5625 81.355469 433.972656 85.949219 428.308594 85.949219 C 422.644531 85.949219 418.050781 81.355469 418.050781 75.691406 C 418.050781 70.027344 422.644531 65.4375 428.308594 65.4375 C 433.972656 65.4375 438.5625 70.027344 438.5625 75.691406 "/>
<path style=" stroke:none;fill-rule:nonzero;fill:rgb(100%,100%,100%);fill-opacity:1;" d="M 93.949219 14.152344 C 93.949219 19.820312 89.355469 24.410156 83.691406 24.410156 C 78.027344 24.410156 73.4375 19.820312 73.4375 14.152344 C 73.4375 8.488281 78.027344 3.898438 83.691406 3.898438 C 89.355469 3.898438 93.949219 8.488281 93.949219 14.152344 "/>
<path style=" stroke:none;fill-rule:nonzero;fill:rgb(100%,100%,100%);fill-opacity:1;" d="M 100.101562 108.511719 C 100.101562 114.175781 95.511719 118.769531 89.847656 118.769531 C 84.179688 118.769531 79.589844 114.175781 79.589844 108.511719 C 79.589844 102.847656 84.179688 98.257812 89.847656 98.257812 C 95.511719 98.257812 100.101562 102.847656 100.101562 108.511719 "/>
<path style=" stroke:none;fill-rule:nonzero;fill:rgb(100%,100%,100%);fill-opacity:1;" d="M 221.128906 114.667969 C 221.128906 120.332031 216.535156 124.921875 210.871094 124.921875 C 205.207031 124.921875 200.617188 120.332031 200.617188 114.667969 C 200.617188 109.003906 205.207031 104.410156 210.871094 104.410156 C 216.535156 104.410156 221.128906 109.003906 221.128906 114.667969 "/>
<path style=" stroke:none;fill-rule:nonzero;fill:rgb(100%,100%,100%);fill-opacity:1;" d="M 407.792969 502.359375 C 407.792969 508.023438 403.203125 512.617188 397.539062 512.617188 C 391.875 512.617188 387.28125 508.023438 387.28125 502.359375 C 387.28125 496.695312 391.875 492.101562 397.539062 492.101562 C 403.203125 492.101562 407.792969 496.695312 407.792969 502.359375 "/>
<path style=" stroke:none;fill-rule:nonzero;fill:rgb(100%,100%,100%);fill-opacity:1;" d="M 18.050781 299.28125 C 18.050781 304.945312 13.460938 309.539062 7.796875 309.539062 C 2.128906 309.539062 -2.460938 304.945312 -2.460938 299.28125 C -2.460938 293.617188 2.128906 289.027344 7.796875 289.027344 C 13.460938 289.027344 18.050781 293.617188 18.050781 299.28125 "/>
<path style=" stroke:none;fill-rule:nonzero;fill:rgb(100%,100%,100%);fill-opacity:1;" d="M 46.769531 422.359375 C 46.769531 428.023438 42.175781 432.617188 36.511719 432.617188 C 30.847656 432.617188 26.257812 428.023438 26.257812 422.359375 C 26.257812 416.695312 30.847656 412.101562 36.511719 412.101562 C 42.175781 412.101562 46.769531 416.695312 46.769531 422.359375 "/>
<path style=" stroke:none;fill-rule:nonzero;fill:rgb(100%,100%,100%);fill-opacity:1;" d="M 301.128906 479.796875 C 301.128906 485.460938 296.535156 490.050781 290.871094 490.050781 C 285.207031 490.050781 280.617188 485.460938 280.617188 479.796875 C 280.617188 474.128906 285.207031 469.539062 290.871094 469.539062 C 296.535156 469.539062 301.128906 474.128906 301.128906 479.796875 "/>
<path style=" stroke:none;fill-rule:nonzero;fill:rgb(100%,100%,100%);fill-opacity:1;" d="M 485.742188 354.667969 C 485.742188 360.332031 481.152344 364.921875 475.488281 364.921875 C 469.824219 364.921875 465.230469 360.332031 465.230469 354.667969 C 465.230469 349.003906 469.824219 344.410156 475.488281 344.410156 C 481.152344 344.410156 485.742188 349.003906 485.742188 354.667969 "/>
<path style=" stroke:none;fill-rule:nonzero;fill:rgb(100%,100%,100%);fill-opacity:1;" d="M 516.511719 129.027344 C 516.511719 134.691406 511.921875 139.28125 506.257812 139.28125 C 500.589844 139.28125 496 134.691406 496 129.027344 C 496 123.363281 500.589844 118.769531 506.257812 118.769531 C 511.921875 118.769531 516.511719 123.363281 516.511719 129.027344 "/>
<path style=" stroke:none;fill-rule:nonzero;fill:rgb(100%,100%,100%);fill-opacity:1;" d="M 128.820312 -4.308594 C 128.820312 1.355469 124.226562 5.949219 118.5625 5.949219 C 112.898438 5.949219 108.308594 1.355469 108.308594 -4.308594 C 108.308594 -9.972656 112.898438 -14.5625 118.5625 -14.5625 C 124.226562 -14.5625 128.820312 -9.972656 128.820312 -4.308594 "/>
<path style=" stroke:none;fill-rule:nonzero;fill:rgb(100%,100%,100%);fill-opacity:1;" d="M 188.308594 44.921875 C 188.308594 50.585938 183.714844 55.179688 178.050781 55.179688 C 172.386719 55.179688 167.792969 50.585938 167.792969 44.921875 C 167.792969 39.257812 172.386719 34.667969 178.050781 34.667969 C 183.714844 34.667969 188.308594 39.257812 188.308594 44.921875 "/>
<path style=" stroke:none;fill-rule:nonzero;fill:rgb(100%,100%,100%);fill-opacity:1;" d="M 416 24.410156 C 416 30.074219 411.410156 34.667969 405.742188 34.667969 C 400.078125 34.667969 395.488281 30.074219 395.488281 24.410156 C 395.488281 18.746094 400.078125 14.152344 405.742188 14.152344 C 411.410156 14.152344 416 18.746094 416 24.410156 "/>
<path style=" stroke:none;fill-rule:nonzero;fill:rgb(100%,100%,100%);fill-opacity:1;" d="M 104.207031 30.5625 C 104.207031 36.226562 99.613281 40.820312 93.949219 40.820312 C 88.285156 40.820312 83.691406 36.226562 83.691406 30.5625 C 83.691406 24.898438 88.285156 20.308594 93.949219 20.308594 C 99.613281 20.308594 104.207031 24.898438 104.207031 30.5625 "/>
<path style=" stroke:none;fill-rule:nonzero;fill:rgb(100%,100%,100%);fill-opacity:1;" d="M 260.101562 73.640625 C 260.101562 79.304688 255.511719 83.898438 249.847656 83.898438 C 244.179688 83.898438 239.589844 79.304688 239.589844 73.640625 C 239.589844 67.976562 244.179688 63.382812 249.847656 63.382812 C 255.511719 63.382812 260.101562 67.976562 260.101562 73.640625 "/>
<path style=" stroke:none;fill-rule:nonzero;fill:rgb(100%,100%,100%);fill-opacity:1;" d="M 54.972656 69.539062 C 54.972656 75.203125 50.382812 79.792969 44.71875 79.792969 C 39.054688 79.792969 34.460938 75.203125 34.460938 69.539062 C 34.460938 63.875 39.054688 59.28125 44.71875 59.28125 C 50.382812 59.28125 54.972656 63.875 54.972656 69.539062 "/>
<path style=" stroke:none;fill-rule:nonzero;fill:rgb(100%,100%,100%);fill-opacity:1;" d="M 465.230469 494.152344 C 465.230469 499.820312 460.636719 504.410156 454.972656 504.410156 C 449.308594 504.410156 444.71875 499.820312 444.71875 494.152344 C 444.71875 488.488281 449.308594 483.898438 454.972656 483.898438 C 460.636719 483.898438 465.230469 488.488281 465.230469 494.152344 "/>
<path style=" stroke:none;fill-rule:nonzero;fill:rgb(100%,100%,100%);fill-opacity:1;" d="M 83.691406 118.769531 C 83.691406 124.433594 79.101562 129.027344 73.4375 129.027344 C 67.773438 129.027344 63.179688 124.433594 63.179688 118.769531 C 63.179688 113.105469 67.773438 108.511719 73.4375 108.511719 C 79.101562 108.511719 83.691406 113.105469 83.691406 118.769531 "/>
<path style=" stroke:none;fill-rule:nonzero;fill:rgb(100%,84.3%,0%);fill-opacity:1;" d="M 381.128906 155.691406 C 381.128906 161.355469 376.535156 165.949219 370.871094 165.949219 C 365.207031 165.949219 360.617188 161.355469 360.617188 155.691406 C 360.617188 150.027344 365.207031 145.4375 370.871094 145.4375 C 376.535156 145.4375 381.128906 150.027344 381.128906 155.691406 "/>
<path style=" stroke:none;fill-rule:nonzero;fill:rgb(100%,84.3%,0%);fill-opacity:1;" d="M 73.433594 170.050781 C 73.433594 175.714844 68.84375 180.308594 63.179688 180.308594 C 57.515625 180.308594 52.921875 175.714844 52.921875 170.050781 C 52.921875 164.386719 57.515625 159.792969 63.179688 159.792969 C 68.84375 159.792969 73.433594 164.386719 73.433594 170.050781 "/>
<path style=" stroke:none;fill-rule:nonzero;fill:rgb(100%,84.3%,0%);fill-opacity:1;" d="M 134.972656 155.691406 C 134.972656 161.355469 130.382812 165.949219 124.71875 165.949219 C 119.054688 165.949219 114.460938 161.355469 114.460938 155.691406 C 114.460938 150.027344 119.054688 145.4375 124.71875 145.4375 C 130.382812 145.4375 134.972656 150.027344 134.972656 155.691406 "/>
<path style=" stroke:none;fill-rule:nonzero;fill:rgb(100%,84.3%,0%);fill-opacity:1;" d="M 278.5625 457.230469 C 278.5625 462.894531 273.972656 467.488281 268.308594 467.488281 C 262.644531 467.488281 258.050781 462.894531 258.050781 457.230469 C 258.050781 451.566406 262.644531 446.972656 268.308594 446.972656 C 273.972656 446.972656 278.5625 451.566406 278.5625 457.230469 "/>
<path style=" stroke:none;fill-rule:nonzero;fill:rgb(100%,84.3%,0%);fill-opacity:1;" d="M 73.433594 416.203125 C 73.433594 421.871094 68.84375 426.460938 63.179688 426.460938 C 57.515625 426.460938 52.921875 421.871094 52.921875 416.203125 C 52.921875 410.539062 57.515625 405.949219 63.179688 405.949219 C 68.84375 405.949219 73.433594 410.539062 73.433594 416.203125 "/>
<path style=" stroke:none;fill-rule:nonzero;fill:rgb(100%,84.3%,0%);fill-opacity:1;" d="M 93.949219 155.691406 C 93.949219 161.355469 89.355469 165.949219 83.691406 165.949219 C 78.027344 165.949219 73.4375 161.355469 73.4375 155.691406 C 73.4375 150.027344 78.027344 145.4375 83.691406 145.4375 C 89.355469 145.4375 93.949219 150.027344 93.949219 155.691406 "/>
<path style=" stroke:none;fill-rule:nonzero;fill:rgb(100%,84.3%,0%);fill-opacity:1;" d="M 258.050781 155.691406 C 258.050781 161.355469 253.460938 165.949219 247.796875 165.949219 C 242.128906 165.949219 237.539062 161.355469 237.539062 155.691406 C 237.539062 150.027344 242.128906 145.4375 247.796875 145.4375 C 253.460938 145.4375 258.050781 150.027344 258.050781 155.691406 "/>
<path style=" stroke:none;fill-rule:nonzero;fill:rgb(100%,84.3%,0%);fill-opacity:1;" d="M 381.128906 457.230469 C 381.128906 462.894531 376.535156 467.488281 370.871094 467.488281 C 365.207031 467.488281 360.617188 462.894531 360.617188 457.230469 C 360.617188 451.566406 365.207031 446.972656 370.871094 446.972656 C 376.535156 446.972656 381.128906 451.566406 381.128906 457.230469 "/>
<path style=" stroke:none;fill-rule:nonzero;fill:rgb(100%,84.3%,0%);fill-opacity:1;" d="M 459.078125 354.667969 C 459.078125 360.332031 454.484375 364.921875 448.820312 364.921875 C 443.15625 364.921875 438.566406 360.332031 438.566406 354.667969 C 438.566406 349.003906 443.15625 344.410156 448.820312 344.410156 C 454.484375 344.410156 459.078125 349.003906 459.078125 354.667969 "/>
<path style=" stroke:none;fill-rule:nonzero;fill:rgb(100%,84.3%,0%);fill-opacity:1;" d="M 73.433594 190.5625 C 73.433594 196.226562 68.84375 200.820312 63.179688 200.820312 C 57.515625 200.820312 52.921875 196.226562 52.921875 190.5625 C 52.921875 184.898438 57.515625 180.308594 63.179688 180.308594 C 68.84375 180.308594 73.433594 184.898438 73.433594 190.5625 "/>
<path style=" stroke:none;fill-rule:nonzero;fill:rgb(100%,84.3%,0%);fill-opacity:1;" d="M 73.433594 436.71875 C 73.433594 442.382812 68.84375 446.972656 63.179688 446.972656 C 57.515625 446.972656 52.921875 442.382812 52.921875 436.71875 C 52.921875 431.054688 57.515625 426.460938 63.179688 426.460938 C 68.84375 426.460938 73.433594 431.054688 73.433594 436.71875 "/>
<path style=" stroke:none;fill-rule:nonzero;fill:rgb(100%,84.3%,0%);fill-opacity:1;" d="M 196.511719 155.691406 C 196.511719 161.355469 191.921875 165.949219 186.257812 165.949219 C 180.589844 165.949219 176 161.355469 176 155.691406 C 176 150.027344 180.589844 145.4375 186.257812 145.4375 C 191.921875 145.4375 196.511719 150.027344 196.511719 155.691406 "/>
<path style=" stroke:none;fill-rule:nonzero;fill:rgb(100%,84.3%,0%);fill-opacity:1;" d="M 237.539062 155.691406 C 237.539062 161.355469 232.945312 165.949219 227.28125 165.949219 C 221.617188 165.949219 217.027344 161.355469 217.027344 155.691406 C 217.027344 150.027344 221.617188 145.4375 227.28125 145.4375 C 232.945312 145.4375 237.539062 150.027344 237.539062 155.691406 "/>
<path style=" stroke:none;fill-rule:nonzero;fill:rgb(100%,84.3%,0%);fill-opacity:1;" d="M 73.433594 313.640625 C 73.433594 319.304688 68.84375 323.898438 63.179688 323.898438 C 57.515625 323.898438 52.921875 319.304688 52.921875 313.640625 C 52.921875 307.976562 57.515625 303.382812 63.179688 303.382812 C 68.84375 303.382812 73.433594 307.976562 73.433594 313.640625 "/>
<path style=" stroke:none;fill-rule:nonzero;fill:rgb(100%,84.3%,0%);fill-opacity:1;" d="M 114.460938 155.691406 C 114.460938 161.355469 109.871094 165.949219 104.203125 165.949219 C 98.539062 165.949219 93.949219 161.355469 93.949219 155.691406 C 93.949219 150.027344 98.539062 145.4375 104.203125 145.4375 C 109.871094 145.4375 114.460938 150.027344 114.460938 155.691406 "/>
<path style=" stroke:none;fill-rule:nonzero;fill:rgb(100%,84.3%,0%);fill-opacity:1;" d="M 319.589844 155.691406 C 319.589844 161.355469 314.996094 165.949219 309.332031 165.949219 C 303.667969 165.949219 299.078125 161.355469 299.078125 155.691406 C 299.078125 150.027344 303.667969 145.4375 309.332031 145.4375 C 314.996094 145.4375 319.589844 150.027344 319.589844 155.691406 "/>
<path style=" stroke:none;fill-rule:nonzero;fill:rgb(100%,84.3%,0%);fill-opacity:1;" d="M 299.078125 457.230469 C 299.078125 462.894531 294.484375 467.488281 288.820312 467.488281 C 283.15625 467.488281 278.566406 462.894531 278.566406 457.230469 C 278.566406 451.566406 283.15625 446.972656 288.820312 446.972656 C 294.484375 446.972656 299.078125 451.566406 299.078125 457.230469 "/>
<path style=" stroke:none;fill-rule:nonzero;fill:rgb(100%,84.3%,0%);fill-opacity:1;" d="M 278.5625 155.691406 C 278.5625 161.355469 273.972656 165.949219 268.308594 165.949219 C 262.644531 165.949219 258.050781 161.355469 258.050781 155.691406 C 258.050781 150.027344 262.644531 145.4375 268.308594 145.4375 C 273.972656 145.4375 278.5625 150.027344 278.5625 155.691406 "/>
<path style=" stroke:none;fill-rule:nonzero;fill:rgb(100%,84.3%,0%);fill-opacity:1;" d="M 176 155.691406 C 176 161.355469 171.410156 165.949219 165.742188 165.949219 C 160.078125 165.949219 155.488281 161.355469 155.488281 155.691406 C 155.488281 150.027344 160.078125 145.4375 165.742188 145.4375 C 171.410156 145.4375 176 150.027344 176 155.691406 "/>
<path style=" stroke:none;fill-rule:nonzero;fill:rgb(100%,84.3%,0%);fill-opacity:1;" d="M 401.640625 457.230469 C 401.640625 462.894531 397.050781 467.488281 391.386719 467.488281 C 385.71875 467.488281 381.128906 462.894531 381.128906 457.230469 C 381.128906 451.566406 385.71875 446.972656 391.386719 446.972656 C 397.050781 446.972656 401.640625 451.566406 401.640625 457.230469 "/>
<path style=" stroke:none;fill-rule:nonzero;fill:rgb(100%,84.3%,0%);fill-opacity:1;" d="M 73.433594 231.589844 C 73.433594 237.253906 68.84375 241.847656 63.179688 241.847656 C 57.515625 241.847656 52.921875 237.253906 52.921875 231.589844 C 52.921875 225.925781 57.515625 221.332031 63.179688 221.332031 C 68.84375 221.332031 73.433594 225.925781 73.433594 231.589844 "/>
<path style=" stroke:none;fill-rule:nonzero;fill:rgb(100%,84.3%,0%);fill-opacity:1;" d="M 459.078125 231.589844 C 459.078125 237.253906 454.484375 241.847656 448.820312 241.847656 C 443.15625 241.847656 438.566406 237.253906 438.566406 231.589844 C 438.566406 225.925781 443.15625 221.332031 448.820312 221.332031 C 454.484375 221.332031 459.078125 225.925781 459.078125 231.589844 "/>
<path style=" stroke:none;fill-rule:nonzero;fill:rgb(100%,84.3%,0%);fill-opacity:1;" d="M 73.433594 293.128906 C 73.433594 298.792969 68.84375 303.382812 63.179688 303.382812 C 57.515625 303.382812 52.921875 298.792969 52.921875 293.128906 C 52.921875 287.464844 57.515625 282.871094 63.179688 282.871094 C 68.84375 282.871094 73.433594 287.464844 73.433594 293.128906 "/>
<path style=" stroke:none;fill-rule:nonzero;fill:rgb(100%,84.3%,0%);fill-opacity:1;" d="M 438.5625 170.050781 C 438.5625 175.714844 433.972656 180.308594 428.308594 180.308594 C 422.644531 180.308594 418.050781 175.714844 418.050781 170.050781 C 418.050781 164.386719 422.644531 159.792969 428.308594 159.792969 C 433.972656 159.792969 438.5625 164.386719 438.5625 170.050781 "/>
<path style=" stroke:none;fill-rule:nonzero;fill:rgb(100%,84.3%,0%);fill-opacity:1;" d="M 237.539062 457.230469 C 237.539062 462.894531 232.945312 467.488281 227.28125 467.488281 C 221.617188 467.488281 217.027344 462.894531 217.027344 457.230469 C 217.027344 451.566406 221.617188 446.972656 227.28125 446.972656 C 232.945312 446.972656 237.539062 451.566406 237.539062 457.230469 "/>
<path style=" stroke:none;fill-rule:nonzero;fill:rgb(100%,84.3%,0%);fill-opacity:1;" d="M 299.078125 155.691406 C 299.078125 161.355469 294.484375 165.949219 288.820312 165.949219 C 283.15625 165.949219 278.566406 161.355469 278.566406 155.691406 C 278.566406 150.027344 283.15625 145.4375 288.820312 145.4375 C 294.484375 145.4375 299.078125 150.027344 299.078125 155.691406 "/>
<path style=" stroke:none;fill-rule:nonzero;fill:rgb(100%,84.3%,0%);fill-opacity:1;" d="M 73.433594 395.691406 C 73.433594 401.355469 68.84375 405.949219 63.179688 405.949219 C 57.515625 405.949219 52.921875 401.355469 52.921875 395.691406 C 52.921875 390.027344 57.515625 385.4375 63.179688 385.4375 C 68.84375 385.4375 73.433594 390.027344 73.433594 395.691406 "/>
<path style=" stroke:none;fill-rule:nonzero;fill:rgb(100%,84.3%,0%);fill-opacity:1;" d="M 155.488281 436.71875 C 155.488281 442.382812 150.894531 446.972656 145.230469 446.972656 C 139.566406 446.972656 134.972656 442.382812 134.972656 436.71875 C 134.972656 431.054688 139.566406 426.460938 145.230469 426.460938 C 150.894531 426.460938 155.488281 431.054688 155.488281 436.71875 "/>
<path style=" stroke:none;fill-rule:nonzero;fill:rgb(100%,84.3%,0%);fill-opacity:1;" d="M 217.027344 457.230469 C 217.027344 462.894531 212.433594 467.488281 206.769531 467.488281 C 201.105469 467.488281 196.511719 462.894531 196.511719 457.230469 C 196.511719 451.566406 201.105469 446.972656 206.769531 446.972656 C 212.433594 446.972656 217.027344 451.566406 217.027344 457.230469 "/>
<path style=" stroke:none;fill-rule:nonzero;fill:rgb(100%,84.3%,0%);fill-opacity:1;" d="M 258.050781 457.230469 C 258.050781 462.894531 253.460938 467.488281 247.796875 467.488281 C 242.128906 467.488281 237.539062 462.894531 237.539062 457.230469 C 237.539062 451.566406 242.128906 446.972656 247.796875 446.972656 C 253.460938 446.972656 258.050781 451.566406 258.050781 457.230469 "/>
<path style=" stroke:none;fill-rule:nonzero;fill:rgb(100%,84.3%,0%);fill-opacity:1;" d="M 319.589844 457.230469 C 319.589844 462.894531 314.996094 467.488281 309.332031 467.488281 C 303.667969 467.488281 299.078125 462.894531 299.078125 457.230469 C 299.078125 451.566406 303.667969 446.972656 309.332031 446.972656 C 314.996094 446.972656 319.589844 451.566406 319.589844 457.230469 "/>
<path style=" stroke:none;fill-rule:nonzero;fill:rgb(100%,84.3%,0%);fill-opacity:1;" d="M 73.433594 457.230469 C 73.433594 462.894531 68.84375 467.488281 63.179688 467.488281 C 57.515625 467.488281 52.921875 462.894531 52.921875 457.230469 C 52.921875 451.566406 57.515625 446.972656 63.179688 446.972656 C 68.84375 446.972656 73.433594 451.566406 73.433594 457.230469 "/>
<path style=" stroke:none;fill-rule:nonzero;fill:rgb(100%,84.3%,0%);fill-opacity:1;" d="M 459.078125 416.203125 C 459.078125 421.871094 454.484375 426.460938 448.820312 426.460938 C 443.15625 426.460938 438.566406 421.871094 438.566406 416.203125 C 438.566406 410.539062 443.15625 405.949219 448.820312 405.949219 C 454.484375 405.949219 459.078125 410.539062 459.078125 416.203125 "/>
<path style=" stroke:none;fill-rule:nonzero;fill:rgb(100%,84.3%,0%);fill-opacity:1;" d="M 176 457.230469 C 176 462.894531 171.410156 467.488281 165.742188 467.488281 C 160.078125 467.488281 155.488281 462.894531 155.488281 457.230469 C 155.488281 451.566406 160.078125 446.972656 165.742188 446.972656 C 171.410156 446.972656 176 451.566406 176 457.230469 "/>
<path style=" stroke:none;fill-rule:nonzero;fill:rgb(100%,84.3%,0%);fill-opacity:1;" d="M 340.101562 155.691406 C 340.101562 161.355469 335.511719 165.949219 329.847656 165.949219 C 324.179688 165.949219 319.589844 161.355469 319.589844 155.691406 C 319.589844 150.027344 324.179688 145.4375 329.847656 145.4375 C 335.511719 145.4375 340.101562 150.027344 340.101562 155.691406 "/>
<path style=" stroke:none;fill-rule:nonzero;fill:rgb(100%,84.3%,0%);fill-opacity:1;" d="M 459.078125 252.101562 C 459.078125 257.765625 454.484375 262.359375 448.820312 262.359375 C 443.15625 262.359375 438.566406 257.765625 438.566406 252.101562 C 438.566406 246.4375 443.15625 241.847656 448.820312 241.847656 C 454.484375 241.847656 459.078125 246.4375 459.078125 252.101562 "/>
<path style=" stroke:none;fill-rule:nonzero;fill:rgb(100%,84.3%,0%);fill-opacity:1;" d="M 93.949219 457.230469 C 93.949219 462.894531 89.355469 467.488281 83.691406 467.488281 C 78.027344 467.488281 73.4375 462.894531 73.4375 457.230469 C 73.4375 451.566406 78.027344 446.972656 83.691406 446.972656 C 89.355469 446.972656 93.949219 451.566406 93.949219 457.230469 "/>
<path style=" stroke:none;fill-rule:nonzero;fill:rgb(100%,84.3%,0%);fill-opacity:1;" d="M 459.078125 272.613281 C 459.078125 278.28125 454.484375 282.871094 448.820312 282.871094 C 443.15625 282.871094 438.566406 278.28125 438.566406 272.613281 C 438.566406 266.949219 443.15625 262.359375 448.820312 262.359375 C 454.484375 262.359375 459.078125 266.949219 459.078125 272.613281 "/>
<path style=" stroke:none;fill-rule:nonzero;fill:rgb(100%,84.3%,0%);fill-opacity:1;" d="M 340.101562 457.230469 C 340.101562 462.894531 335.511719 467.488281 329.847656 467.488281 C 324.179688 467.488281 319.589844 462.894531 319.589844 457.230469 C 319.589844 451.566406 324.179688 446.972656 329.847656 446.972656 C 335.511719 446.972656 340.101562 451.566406 340.101562 457.230469 "/>
<path style=" stroke:none;fill-rule:nonzero;fill:rgb(100%,84.3%,0%);fill-opacity:1;" d="M 114.460938 457.230469 C 114.460938 462.894531 109.871094 467.488281 104.203125 467.488281 C 98.539062 467.488281 93.949219 462.894531 93.949219 457.230469 C 93.949219 451.566406 98.539062 446.972656 104.203125 446.972656 C 109.871094 446.972656 114.460938 451.566406 114.460938 457.230469 "/>
<path style=" stroke:none;fill-rule:nonzero;fill:rgb(100%,84.3%,0%);fill-opacity:1;" d="M 459.078125 190.5625 C 459.078125 196.226562 454.484375 200.820312 448.820312 200.820312 C 443.15625 200.820312 438.566406 196.226562 438.566406 190.5625 C 438.566406 184.898438 443.15625 180.308594 448.820312 180.308594 C 454.484375 180.308594 459.078125 184.898438 459.078125 190.5625 "/>
<path style=" stroke:none;fill-rule:nonzero;fill:rgb(100%,84.3%,0%);fill-opacity:1;" d="M 459.078125 313.640625 C 459.078125 319.304688 454.484375 323.898438 448.820312 323.898438 C 443.15625 323.898438 438.566406 319.304688 438.566406 313.640625 C 438.566406 307.976562 443.15625 303.382812 448.820312 303.382812 C 454.484375 303.382812 459.078125 307.976562 459.078125 313.640625 "/>
<path style=" stroke:none;fill-rule:nonzero;fill:rgb(100%,84.3%,0%);fill-opacity:1;" d="M 459.078125 211.078125 C 459.078125 216.742188 454.484375 221.332031 448.820312 221.332031 C 443.15625 221.332031 438.566406 216.742188 438.566406 211.078125 C 438.566406 205.414062 443.15625 200.820312 448.820312 200.820312 C 454.484375 200.820312 459.078125 205.414062 459.078125 211.078125 "/>
<path style=" stroke:none;fill-rule:nonzero;fill:rgb(100%,84.3%,0%);fill-opacity:1;" d="M 459.078125 334.152344 C 459.078125 339.820312 454.484375 344.410156 448.820312 344.410156 C 443.15625 344.410156 438.566406 339.820312 438.566406 334.152344 C 438.566406 328.488281 443.15625 323.898438 448.820312 323.898438 C 454.484375 323.898438 459.078125 328.488281 459.078125 334.152344 "/>
<path style=" stroke:none;fill-rule:nonzero;fill:rgb(100%,84.3%,0%);fill-opacity:1;" d="M 459.078125 293.128906 C 459.078125 298.792969 454.484375 303.382812 448.820312 303.382812 C 443.15625 303.382812 438.566406 298.792969 438.566406 293.128906 C 438.566406 287.464844 443.15625 282.871094 448.820312 282.871094 C 454.484375 282.871094 459.078125 287.464844 459.078125 293.128906 "/>
<path style=" stroke:none;fill-rule:nonzero;fill:rgb(100%,84.3%,0%);fill-opacity:1;" d="M 73.433594 252.101562 C 73.433594 257.765625 68.84375 262.359375 63.179688 262.359375 C 57.515625 262.359375 52.921875 257.765625 52.921875 252.101562 C 52.921875 246.4375 57.515625 241.847656 63.179688 241.847656 C 68.84375 241.847656 73.433594 246.4375 73.433594 252.101562 "/>
<path style=" stroke:none;fill-rule:nonzero;fill:rgb(100%,84.3%,0%);fill-opacity:1;" d="M 73.433594 272.613281 C 73.433594 278.28125 68.84375 282.871094 63.179688 282.871094 C 57.515625 282.871094 52.921875 278.28125 52.921875 272.613281 C 52.921875 266.949219 57.515625 262.359375 63.179688 262.359375 C 68.84375 262.359375 73.433594 266.949219 73.433594 272.613281 "/>
<path style=" stroke:none;fill-rule:nonzero;fill:rgb(100%,84.3%,0%);fill-opacity:1;" d="M 155.488281 155.691406 C 155.488281 161.355469 150.894531 165.949219 145.230469 165.949219 C 139.566406 165.949219 134.972656 161.355469 134.972656 155.691406 C 134.972656 150.027344 139.566406 145.4375 145.230469 145.4375 C 150.894531 145.4375 155.488281 150.027344 155.488281 155.691406 "/>
<path style=" stroke:none;fill-rule:nonzero;fill:rgb(100%,84.3%,0%);fill-opacity:1;" d="M 176 416.203125 C 176 421.871094 171.410156 426.460938 165.742188 426.460938 C 160.078125 426.460938 155.488281 421.871094 155.488281 416.203125 C 155.488281 410.539062 160.078125 405.949219 165.742188 405.949219 C 171.410156 405.949219 176 410.539062 176 416.203125 "/>
<path style=" stroke:none;fill-rule:nonzero;fill:rgb(100%,84.3%,0%);fill-opacity:1;" d="M 422.152344 155.691406 C 422.152344 161.355469 417.5625 165.949219 411.898438 165.949219 C 406.234375 165.949219 401.640625 161.355469 401.640625 155.691406 C 401.640625 150.027344 406.234375 145.4375 411.898438 145.4375 C 417.5625 145.4375 422.152344 150.027344 422.152344 155.691406 "/>
<path style=" stroke:none;fill-rule:nonzero;fill:rgb(100%,84.3%,0%);fill-opacity:1;" d="M 217.027344 155.691406 C 217.027344 161.355469 212.433594 165.949219 206.769531 165.949219 C 201.105469 165.949219 196.511719 161.355469 196.511719 155.691406 C 196.511719 150.027344 201.105469 145.4375 206.769531 145.4375 C 212.433594 145.4375 217.027344 150.027344 217.027344 155.691406 "/>
<path style=" stroke:none;fill-rule:nonzero;fill:rgb(100%,84.3%,0%);fill-opacity:1;" d="M 459.078125 457.230469 C 459.078125 462.894531 454.484375 467.488281 448.820312 467.488281 C 443.15625 467.488281 438.566406 462.894531 438.566406 457.230469 C 438.566406 451.566406 443.15625 446.972656 448.820312 446.972656 C 454.484375 446.972656 459.078125 451.566406 459.078125 457.230469 "/>
<path style=" stroke:none;fill-rule:nonzero;fill:rgb(100%,84.3%,0%);fill-opacity:1;" d="M 73.433594 211.078125 C 73.433594 216.742188 68.84375 221.332031 63.179688 221.332031 C 57.515625 221.332031 52.921875 216.742188 52.921875 211.078125 C 52.921875 205.414062 57.515625 200.820312 63.179688 200.820312 C 68.84375 200.820312 73.433594 205.414062 73.433594 211.078125 "/>
<path style=" stroke:none;fill-rule:nonzero;fill:rgb(100%,84.3%,0%);fill-opacity:1;" d="M 438.5625 190.5625 C 438.5625 196.226562 433.972656 200.820312 428.308594 200.820312 C 422.644531 200.820312 418.050781 196.226562 418.050781 190.5625 C 418.050781 184.898438 422.644531 180.308594 428.308594 180.308594 C 433.972656 180.308594 438.5625 184.898438 438.5625 190.5625 "/>
<path style=" stroke:none;fill-rule:nonzero;fill:rgb(100%,84.3%,0%);fill-opacity:1;" d="M 401.640625 155.691406 C 401.640625 161.355469 397.050781 165.949219 391.386719 165.949219 C 385.71875 165.949219 381.128906 161.355469 381.128906 155.691406 C 381.128906 150.027344 385.71875 145.4375 391.386719 145.4375 C 397.050781 145.4375 401.640625 150.027344 401.640625 155.691406 "/>
<path style=" stroke:none;fill-rule:nonzero;fill:rgb(100%,84.3%,0%);fill-opacity:1;" d="M 134.972656 457.230469 C 134.972656 462.894531 130.382812 467.488281 124.71875 467.488281 C 119.054688 467.488281 114.460938 462.894531 114.460938 457.230469 C 114.460938 451.566406 119.054688 446.972656 124.71875 446.972656 C 130.382812 446.972656 134.972656 451.566406 134.972656 457.230469 "/>
</g>
</svg>
