<?xml version="1.0" encoding="UTF-8"?>
<svg xmlns="http://www.w3.org/2000/svg" xmlns:xlink="http://www.w3.org/1999/xlink" width="512pt" height="512pt" viewBox="0 0 512 512" version="1.1">
<g id="surface86">
<path style=" stroke:none;fill-rule:nonzero;fill:rgb(26.7%,26.7%,26.7%);fill-opacity:1;" d="M 17.066406 0 L 494.933594 0 L 494.933594 512 L 17.066406 512 Z M 17.066406 0 "/>
<path style=" stroke:none;fill-rule:nonzero;fill:rgb(19.2%,38.8%,66.7%);fill-opacity:1;" d="M 56.890625 42.667969 L 455.113281 42.667969 L 455.113281 469.332031 L 56.890625 469.332031 Z M 56.890625 42.667969 "/>
<path style=" stroke:none;fill-rule:nonzero;fill:rgb(100%,100%,100%);fill-opacity:1;" d="M 56.890625 313.984375 C 56.890625 320.023438 51.992188 324.921875 45.949219 324.921875 C 39.90625 324.921875 35.007812 320.023438 35.007812 313.984375 C 35.007812 307.941406 39.90625 303.042969 45.949219 303.042969 C 51.992188 303.042969 56.890625 307.941406 56.890625 313.984375 "/>
<path style=" stroke:none;fill-rule:nonzero;fill:rgb(100%,100%,100%);fill-opacity:1;" d="M 363.214844 506.53125 C 363.214844 512.570312 358.316406 517.46875 352.273438 517.46875 C 346.230469 517.46875 341.332031 512.570312 341.332031 506.53125 C 341.332031 500.488281 346.230469 495.589844 352.273438 495.589844 C 358.316406 495.589844 363.214844 500.488281 363.214844 506.53125 "/>
<path style=" stroke:none;fill-rule:nonzero;fill:rgb(100%,100%,100%);fill-opacity:1;" d="M 56.890625 79.863281 C 56.890625 85.90625 51.992188 90.804688 45.949219 90.804688 C 39.90625 90.804688 35.007812 85.90625 35.007812 79.863281 C 35.007812 73.820312 39.90625 68.921875 45.949219 68.921875 C 51.992188 68.921875 56.890625 73.820312 56.890625 79.863281 "/>
<path style=" stroke:none;fill-rule:nonzero;fill:rgb(100%,100%,100%);fill-opacity:1;" d="M 59.078125 47.042969 C 59.078125 53.085938 54.179688 57.984375 48.136719 57.984375 C 42.09375 57.984375 37.195312 53.085938 37.195312 47.042969 C 37.195312 41 42.09375 36.101562 48.136719 36.101562 C 54.179688 36.101562 59.078125 41 59.078125 47.042969 "/>
<path style=" stroke:none;fill-rule:nonzero;fill:rgb(100%,100%,100%);fill-opacity:1;" d="M 509.8125 47.042969 C 509.8125 53.085938 504.914062 57.984375 498.871094 57.984375 C 492.828125 57.984375 487.933594 53.085938 487.933594 47.042969 C 487.933594 41 492.828125 36.101562 498.871094 36.101562 C 504.914062 36.101562 509.8125 41 509.8125 47.042969 "/>
<path style=" stroke:none;fill-rule:nonzero;fill:rgb(100%,100%,100%);fill-opacity:1;" d="M 435.417969 519.65625 C 435.417969 525.699219 430.519531 530.597656 424.480469 530.597656 C 418.4375 530.597656 413.539062 525.699219 413.539062 519.65625 C 413.539062 513.617188 418.4375 508.71875 424.480469 508.71875 C 430.519531 508.71875 435.417969 513.617188 435.417969 519.65625 "/>
<path style=" stroke:none;fill-rule:nonzero;fill:rgb(100%,100%,100%);fill-opacity:1;" d="M 505.4375 489.027344 C 505.4375 495.066406 500.539062 499.964844 494.496094 499.964844 C 488.453125 499.964844 483.554688 495.066406 483.554688 489.027344 C 483.554688 482.984375 488.453125 478.085938 494.496094 478.085938 C 500.539062 478.085938 505.4375 482.984375 505.4375 489.027344 "/>
<path style=" stroke:none;fill-rule:nonzero;fill:rgb(100%,100%,100%);fill-opacity:1;" d="M 518.5625 239.589844 C 518.5625 245.632812 513.667969 250.53125 507.625 250.53125 C 501.582031 250.53125 496.683594 245.632812 496.683594 239.589844 C 496.683594 233.546875 501.582031 228.648438 507.625 228.648438 C 513.667969 228.648438 518.5625 233.546875 518.5625 239.589844 "/>
<path style=" stroke:none;fill-rule:nonzero;fill:rgb(100%,100%,100%);fill-opacity:1;" d="M 65.640625 213.332031 C 65.640625 219.375 60.742188 224.273438 54.699219 224.273438 C 48.660156 224.273438 43.761719 219.375 43.761719 213.332031 C 43.761719 207.289062 48.660156 202.394531 54.699219 202.394531 C 60.742188 202.394531 65.640625 207.289062 65.640625 213.332031 "/>
<path style=" stroke:none;fill-rule:nonzero;fill:rgb(100%,100%,100%);fill-opacity:1;" d="M 358.835938 12.035156 C 358.835938 18.074219 353.9375 22.972656 347.898438 22.972656 C 341.855469 22.972656 336.957031 18.074219 336.957031 12.035156 C 336.957031 5.992188 341.855469 1.09375 347.898438 1.09375 C 353.9375 1.09375 358.835938 5.992188 358.835938 12.035156 "/>
<path style=" stroke:none;fill-rule:nonzero;fill:rgb(100%,100%,100%);fill-opacity:1;" d="M 65.640625 33.914062 C 65.640625 39.957031 60.742188 44.855469 54.699219 44.855469 C 48.660156 44.855469 43.761719 39.957031 43.761719 33.914062 C 43.761719 27.871094 48.660156 22.976562 54.699219 22.976562 C 60.742188 22.976562 65.640625 27.871094 65.640625 33.914062 "/>
<path style=" stroke:none;fill-rule:nonzero;fill:rgb(100%,100%,100%);fill-opacity:1;" d="M 479.179688 82.050781 C 479.179688 88.09375 474.28125 92.992188 468.238281 92.992188 C 462.195312 92.992188 457.300781 88.09375 457.300781 82.050781 C 457.300781 76.007812 462.195312 71.109375 468.238281 71.109375 C 474.28125 71.109375 479.179688 76.007812 479.179688 82.050781 "/>
<path style=" stroke:none;fill-rule:nonzero;fill:rgb(100%,100%,100%);fill-opacity:1;" d="M 452.921875 3.28125 C 452.921875 9.324219 448.023438 14.222656 441.984375 14.222656 C 435.941406 14.222656 431.042969 9.324219 431.042969 3.28125 C 431.042969 -2.761719 435.941406 -7.65625 441.984375 -7.65625 C 448.023438 -7.65625 452.921875 -2.761719 452.921875 3.28125 "/>
<path style=" stroke:none;fill-rule:nonzero;fill:rgb(100%,100%,100%);fill-opacity:1;" d="M 45.949219 475.898438 C 45.949219 481.9375 41.050781 486.835938 35.007812 486.835938 C 28.96875 486.835938 24.070312 481.9375 24.070312 475.898438 C 24.070312 469.855469 28.96875 464.957031 35.007812 464.957031 C 41.050781 464.957031 45.949219 469.855469 45.949219 475.898438 "/>
<path style=" stroke:none;fill-rule:nonzero;fill:rgb(100%,100%,100%);fill-opacity:1;" d="M 207.863281 504.34375 C 207.863281 510.382812 202.964844 515.28125 196.921875 515.28125 C 190.882812 515.28125 185.984375 510.382812 185.984375 504.34375 C 185.984375 498.300781 190.882812 493.402344 196.921875 493.402344 C 202.964844 493.402344 207.863281 498.300781 207.863281 504.34375 "/>
<path style=" stroke:none;fill-rule:nonzero;fill:rgb(100%,100%,100%);fill-opacity:1;" d="M 56.890625 504.34375 C 56.890625 510.382812 51.992188 515.28125 45.949219 515.28125 C 39.90625 515.28125 35.007812 510.382812 35.007812 504.34375 C 35.007812 498.300781 39.90625 493.402344 45.949219 493.402344 C 51.992188 493.402344 56.890625 498.300781 56.890625 504.34375 "/>
<path style=" stroke:none;fill-rule:nonzero;fill:rgb(100%,100%,100%);fill-opacity:1;" d="M 380.71875 -9.847656 C 380.71875 -3.804688 375.820312 1.09375 369.777344 1.09375 C 363.734375 1.09375 358.835938 -3.804688 358.835938 -9.847656 C 358.835938 -15.886719 363.734375 -20.785156 369.777344 -20.785156 C 375.820312 -20.785156 380.71875 -15.886719 380.71875 -9.847656 "/>
<path style=" stroke:none;fill-rule:nonzero;fill:rgb(100%,100%,100%);fill-opacity:1;" d="M 245.058594 40.480469 C 245.058594 46.519531 240.160156 51.417969 234.121094 51.417969 C 228.078125 51.417969 223.179688 46.519531 223.179688 40.480469 C 223.179688 34.4375 228.078125 29.539062 234.121094 29.539062 C 240.160156 29.539062 245.058594 34.4375 245.058594 40.480469 "/>
<path style=" stroke:none;fill-rule:nonzero;fill:rgb(100%,100%,100%);fill-opacity:1;" d="M 299.761719 473.710938 C 299.761719 479.75 294.863281 484.648438 288.820312 484.648438 C 282.777344 484.648438 277.878906 479.75 277.878906 473.710938 C 277.878906 467.667969 282.777344 462.769531 288.820312 462.769531 C 294.863281 462.769531 299.761719 467.667969 299.761719 473.710938 "/>
<path style=" stroke:none;fill-rule:nonzero;fill:rgb(100%,100%,100%);fill-opacity:1;" d="M 212.238281 3.28125 C 212.238281 9.324219 207.339844 14.222656 201.300781 14.222656 C 195.257812 14.222656 190.359375 9.324219 190.359375 3.28125 C 190.359375 -2.761719 195.257812 -7.65625 201.300781 -7.65625 C 207.339844 -7.65625 212.238281 -2.761719 212.238281 3.28125 "/>
<path style=" stroke:none;fill-rule:nonzero;fill:rgb(100%,100%,100%);fill-opacity:1;" d="M 516.375 160.820312 C 516.375 166.863281 511.476562 171.761719 505.4375 171.761719 C 499.394531 171.761719 494.496094 166.863281 494.496094 160.820312 C 494.496094 154.777344 499.394531 149.878906 505.4375 149.878906 C 511.476562 149.878906 516.375 154.777344 516.375 160.820312 "/>
<path style=" stroke:none;fill-rule:nonzero;fill:rgb(100%,100%,100%);fill-opacity:1;" d="M 240.683594 40.480469 C 240.683594 46.519531 235.785156 51.417969 229.742188 51.417969 C 223.703125 51.417969 218.804688 46.519531 218.804688 40.480469 C 218.804688 34.4375 223.703125 29.539062 229.742188 29.539062 C 235.785156 29.539062 240.683594 34.4375 240.683594 40.480469 "/>
<path style=" stroke:none;fill-rule:nonzero;fill:rgb(100%,100%,100%);fill-opacity:1;" d="M 63.453125 7.65625 C 63.453125 13.699219 58.554688 18.597656 52.511719 18.597656 C 46.472656 18.597656 41.574219 13.699219 41.574219 7.65625 C 41.574219 1.617188 46.472656 -3.28125 52.511719 -3.28125 C 58.554688 -3.28125 63.453125 1.617188 63.453125 7.65625 "/>
<path style=" stroke:none;fill-rule:nonzero;fill:rgb(100%,84.3%,0%);fill-opacity:1;" d="M 242.871094 64.546875 C 242.871094 70.589844 237.972656 75.488281 231.933594 75.488281 C 225.890625 75.488281 220.992188 70.589844 220.992188 64.546875 C 220.992188 58.503906 225.890625 53.605469 231.933594 53.605469 C 237.972656 53.605469 242.871094 58.503906 242.871094 64.546875 "/>
<path style=" stroke:none;fill-rule:nonzero;fill:rgb(100%,84.3%,0%);fill-opacity:1;" d="M 89.710938 217.710938 C 89.710938 223.75 84.8125 228.648438 78.769531 228.648438 C 72.726562 228.648438 67.828125 223.75 67.828125 217.710938 C 67.828125 211.667969 72.726562 206.769531 78.769531 206.769531 C 84.8125 206.769531 89.710938 211.667969 89.710938 217.710938 "/>
<path style=" stroke:none;fill-rule:nonzero;fill:rgb(100%,84.3%,0%);fill-opacity:1;" d="M 297.570312 447.453125 C 297.570312 453.496094 292.675781 458.394531 286.632812 458.394531 C 280.589844 458.394531 275.691406 453.496094 275.691406 447.453125 C 275.691406 441.410156 280.589844 436.511719 286.632812 436.511719 C 292.675781 436.511719 297.570312 441.410156 297.570312 447.453125 "/>
<path style=" stroke:none;fill-rule:nonzero;fill:rgb(100%,84.3%,0%);fill-opacity:1;" d="M 444.171875 75.488281 C 444.171875 81.527344 439.273438 86.425781 433.230469 86.425781 C 427.1875 86.425781 422.289062 81.527344 422.289062 75.488281 C 422.289062 69.445312 427.1875 64.546875 433.230469 64.546875 C 439.273438 64.546875 444.171875 69.445312 444.171875 75.488281 "/>
<path style=" stroke:none;fill-rule:nonzero;fill:rgb(100%,84.3%,0%);fill-opacity:1;" d="M 210.050781 64.546875 C 210.050781 70.589844 205.152344 75.488281 199.109375 75.488281 C 193.070312 75.488281 188.171875 70.589844 188.171875 64.546875 C 188.171875 58.503906 193.070312 53.605469 199.109375 53.605469 C 205.152344 53.605469 210.050781 58.503906 210.050781 64.546875 "/>
<path style=" stroke:none;fill-rule:nonzero;fill:rgb(100%,84.3%,0%);fill-opacity:1;" d="M 89.710938 195.828125 C 89.710938 201.871094 84.8125 206.769531 78.769531 206.769531 C 72.726562 206.769531 67.828125 201.871094 67.828125 195.828125 C 67.828125 189.785156 72.726562 184.890625 78.769531 184.890625 C 84.8125 184.890625 89.710938 189.785156 89.710938 195.828125 "/>
<path style=" stroke:none;fill-rule:nonzero;fill:rgb(100%,84.3%,0%);fill-opacity:1;" d="M 319.453125 447.453125 C 319.453125 453.496094 314.554688 458.394531 308.511719 458.394531 C 302.472656 458.394531 297.574219 453.496094 297.574219 447.453125 C 297.574219 441.410156 302.472656 436.511719 308.511719 436.511719 C 314.554688 436.511719 319.453125 441.410156 319.453125 447.453125 "/>
<path style=" stroke:none;fill-rule:nonzero;fill:rgb(100%,84.3%,0%);fill-opacity:1;" d="M 89.710938 283.351562 C 89.710938 289.390625 84.8125 294.289062 78.769531 294.289062 C 72.726562 294.289062 67.828125 289.390625 67.828125 283.351562 C 67.828125 277.308594 72.726562 272.410156 78.769531 272.410156 C 84.8125 272.410156 89.710938 277.308594 89.710938 283.351562 "/>
<path style=" stroke:none;fill-rule:nonzero;fill:rgb(100%,84.3%,0%);fill-opacity:1;" d="M 89.710938 86.425781 C 89.710938 92.46875 84.8125 97.367188 78.769531 97.367188 C 72.726562 97.367188 67.828125 92.46875 67.828125 86.425781 C 67.828125 80.386719 72.726562 75.488281 78.769531 75.488281 C 84.8125 75.488281 89.710938 80.386719 89.710938 86.425781 "/>
<path style=" stroke:none;fill-rule:nonzero;fill:rgb(100%,84.3%,0%);fill-opacity:1;" d="M 100.648438 64.546875 C 100.648438 70.589844 95.75 75.488281 89.710938 75.488281 C 83.667969 75.488281 78.769531 70.589844 78.769531 64.546875 C 78.769531 58.503906 83.667969 53.605469 89.710938 53.605469 C 95.75 53.605469 100.648438 58.503906 100.648438 64.546875 "/>
</g>
</svg>
