<?xml version="1.0" encoding="UTF-8"?>
<svg xmlns="http://www.w3.org/2000/svg" xmlns:xlink="http://www.w3.org/1999/xlink" width="512pt" height="512pt" viewBox="0 0 512 512" version="1.1">
<g id="surface86">
<rect x="0" y="0" width="512" height="512" style="fill:rgb(26.7%,26.7%,26.7%);fill-opacity:1;stroke:none;"/>
<path style=" stroke:none;fill-rule:nonzero;fill:rgb(19.2%,38.8%,66.7%);fill-opacity:1;" d="M 39.820312 42.667969 L 438.042969 42.667969 L 438.042969 469.332031 L 39.820312 469.332031 Z M 39.820312 42.667969 "/>
<path style=" stroke:none;fill-rule:nonzero;fill:rgb(100%,100%,100%);fill-opacity:1;" d="M 39.820312 313.984375 C 39.820312 320.023438 34.925781 324.921875 28.882812 324.921875 C 22.839844 324.921875 17.941406 320.023438 17.941406 313.984375 C 17.941406 307.941406 22.839844 303.042969 28.882812 303.042969 C 34.925781 303.042969 39.820312 307.941406 39.820312 313.984375 "/>
<path style=" stroke:none;fill-rule:nonzero;fill:rgb(100%,100%,100%);fill-opacity:1;" d="M 346.148438 506.53125 C 346.148438 512.570312 341.25 517.46875 335.207031 517.46875 C 329.164062 517.46875 324.265625 512.570312 324.265625 506.53125 C 324.265625 500.488281 329.164062 495.589844 335.207031 495.589844 C 341.25 495.589844 346.148438 500.488281 346.148438 506.53125 "/>
<path style=" stroke:none;fill-rule:nonzero;fill:rgb(100%,100%,100%);fill-opacity:1;" d="M 516.8125 82.050781 C 516.8125 88.09375 511.917969 92.992188 505.875 92.992188 C 499.832031 92.992188 494.933594 88.09375 494.933594 82.050781 C 494.933594 76.007812 499.832031 71.109375 505.875 71.109375 C 511.917969 71.109375 516.8125 76.007812 516.8125 82.050781 "/>
<path style=" stroke:none;fill-rule:nonzero;fill:rgb(100%,100%,100%);fill-opacity:1;" d="M 39.820312 79.863281 C 39.820312 85.90625 34.925781 90.804688 28.882812 90.804688 C 22.839844 90.804688 17.941406 85.90625 17.941406 79.863281 C 17.941406 73.820312 22.839844 68.921875 28.882812 68.921875 C 34.925781 68.921875 39.820312 73.820312 39.820312 79.863281 "/>
<path style=" stroke:none;fill-rule:nonzero;fill:rgb(100%,100%,100%);fill-opacity:1;" d="M 42.011719 47.042969 C 42.011719 53.085938 37.113281 57.984375 31.070312 57.984375 C 25.027344 57.984375 20.128906 53.085938 20.128906 47.042969 C 20.128906 41 25.027344 36.101562 31.070312 36.101562 C 37.113281 36.101562 42.011719 41 42.011719 47.042969 "/>
<path style=" stroke:none;fill-rule:nonzero;fill:rgb(100%,100%,100%);fill-opacity:1;" d="M 492.746094 47.042969 C 492.746094 53.085938 487.847656 57.984375 481.804688 57.984375 C 475.761719 57.984375 470.863281 53.085938 470.863281 47.042969 C 470.863281 41 475.761719 36.101562 481.804688 36.101562 C 487.847656 36.101562 492.746094 41 492.746094 47.042969 "/>
<path style=" stroke:none;fill-rule:nonzero;fill:rgb(100%,100%,100%);fill-opacity:1;" d="M 418.351562 519.65625 C 418.351562 525.699219 413.453125 530.597656 407.410156 530.597656 C 401.371094 530.597656 396.472656 525.699219 396.472656 519.65625 C 396.472656 513.617188 401.371094 508.71875 407.410156 508.71875 C 413.453125 508.71875 418.351562 513.617188 418.351562 519.65625 "/>
<path style=" stroke:none;fill-rule:nonzero;fill:rgb(100%,100%,100%);fill-opacity:1;" d="M 488.371094 489.027344 C 488.371094 495.066406 483.472656 499.964844 477.429688 499.964844 C 471.386719 499.964844 466.488281 495.066406 466.488281 489.027344 C 466.488281 482.984375 471.386719 478.085938 477.429688 478.085938 C 483.472656 478.085938 488.371094 482.984375 488.371094 489.027344 "/>
<path style=" stroke:none;fill-rule:nonzero;fill:rgb(100%,100%,100%);fill-opacity:1;" d="M 501.496094 239.589844 C 501.496094 245.632812 496.597656 250.53125 490.558594 250.53125 C 484.515625 250.53125 479.617188 245.632812 479.617188 239.589844 C 479.617188 233.546875 484.515625 228.648438 490.558594 228.648438 C 496.597656 228.648438 501.496094 233.546875 501.496094 239.589844 "/>
<path style=" stroke:none;fill-rule:nonzero;fill:rgb(100%,100%,100%);fill-opacity:1;" d="M 48.574219 213.332031 C 48.574219 219.375 43.675781 224.273438 37.632812 224.273438 C 31.59375 224.273438 26.695312 219.375 26.695312 213.332031 C 26.695312 207.289062 31.59375 202.394531 37.632812 202.394531 C 43.675781 202.394531 48.574219 207.289062 48.574219 213.332031 "/>
<path style=" stroke:none;fill-rule:nonzero;fill:rgb(100%,100%,100%);fill-opacity:1;" d="M 341.769531 12.035156 C 341.769531 18.074219 336.875 22.972656 330.832031 22.972656 C 324.789062 22.972656 319.890625 18.074219 319.890625 12.035156 C 319.890625 5.992188 324.789062 1.09375 330.832031 1.09375 C 336.875 1.09375 341.769531 5.992188 341.769531 12.035156 "/>
<path style=" stroke:none;fill-rule:nonzero;fill:rgb(100%,100%,100%);fill-opacity:1;" d="M 48.574219 33.914062 C 48.574219 39.957031 43.675781 44.855469 37.632812 44.855469 C 31.59375 44.855469 26.695312 39.957031 26.695312 33.914062 C 26.695312 27.871094 31.59375 22.976562 37.632812 22.976562 C 43.675781 22.976562 48.574219 27.871094 48.574219 33.914062 "/>
<path style=" stroke:none;fill-rule:nonzero;fill:rgb(100%,100%,100%);fill-opacity:1;" d="M 462.113281 82.050781 C 462.113281 88.09375 457.214844 92.992188 451.171875 92.992188 C 445.132812 92.992188 440.234375 88.09375 440.234375 82.050781 C 440.234375 76.007812 445.132812 71.109375 451.171875 71.109375 C 457.214844 71.109375 462.113281 76.007812 462.113281 82.050781 "/>
<path style=" stroke:none;fill-rule:nonzero;fill:rgb(100%,100%,100%);fill-opacity:1;" d="M 435.855469 3.28125 C 435.855469 9.324219 430.957031 14.222656 424.914062 14.222656 C 418.875 14.222656 413.976562 9.324219 413.976562 3.28125 C 413.976562 -2.761719 418.875 -7.65625 424.914062 -7.65625 C 430.957031 -7.65625 435.855469 -2.761719 435.855469 3.28125 "/>
<path style=" stroke:none;fill-rule:nonzero;fill:rgb(100%,100%,100%);fill-opacity:1;" d="M 28.882812 475.898438 C 28.882812 481.9375 23.984375 486.835938 17.941406 486.835938 C 11.898438 486.835938 7 481.9375 7 475.898438 C 7 469.855469 11.898438 464.957031 17.941406 464.957031 C 23.984375 464.957031 28.882812 469.855469 28.882812 475.898438 "/>
<path style=" stroke:none;fill-rule:nonzero;fill:rgb(100%,100%,100%);fill-opacity:1;" d="M 190.796875 504.34375 C 190.796875 510.382812 185.898438 515.28125 179.855469 515.28125 C 173.8125 515.28125 168.914062 510.382812 168.914062 504.34375 C 168.914062 498.300781 173.8125 493.402344 179.855469 493.402344 C 185.898438 493.402344 190.796875 498.300781 190.796875 504.34375 "/>
<path style=" stroke:none;fill-rule:nonzero;fill:rgb(100%,100%,100%);fill-opacity:1;" d="M 39.820312 504.34375 C 39.820312 510.382812 34.925781 515.28125 28.882812 515.28125 C 22.839844 515.28125 17.941406 510.382812 17.941406 504.34375 C 17.941406 498.300781 22.839844 493.402344 28.882812 493.402344 C 34.925781 493.402344 39.820312 498.300781 39.820312 504.34375 "/>
<path style=" stroke:none;fill-rule:nonzero;fill:rgb(100%,100%,100%);fill-opacity:1;" d="M 363.652344 -9.847656 C 363.652344 -3.804688 358.753906 1.09375 352.710938 1.09375 C 346.667969 1.09375 341.769531 -3.804688 341.769531 -9.847656 C 341.769531 -15.886719 346.667969 -20.785156 352.710938 -20.785156 C 358.753906 -20.785156 363.652344 -15.886719 363.652344 -9.847656 "/>
<path style=" stroke:none;fill-rule:nonzero;fill:rgb(100%,100%,100%);fill-opacity:1;" d="M 227.992188 40.480469 C 227.992188 46.519531 223.09375 51.417969 217.054688 51.417969 C 211.011719 51.417969 206.113281 46.519531 206.113281 40.480469 C 206.113281 34.4375 211.011719 29.539062 217.054688 29.539062 C 223.09375 29.539062 227.992188 34.4375 227.992188 40.480469 "/>
<path style=" stroke:none;fill-rule:nonzero;fill:rgb(100%,100%,100%);fill-opacity:1;" d="M 282.695312 473.710938 C 282.695312 479.75 277.796875 484.648438 271.753906 484.648438 C 265.710938 484.648438 260.8125 479.75 260.8125 473.710938 C 260.8125 467.667969 265.710938 462.769531 271.753906 462.769531 C 277.796875 462.769531 282.695312 467.667969 282.695312 473.710938 "/>
<path style=" stroke:none;fill-rule:nonzero;fill:rgb(100%,100%,100%);fill-opacity:1;" d="M 195.171875 3.28125 C 195.171875 9.324219 190.273438 14.222656 184.230469 14.222656 C 178.191406 14.222656 173.292969 9.324219 173.292969 3.28125 C 173.292969 -2.761719 178.191406 -7.65625 184.230469 -7.65625 C 190.273438 -7.65625 195.171875 -2.761719 195.171875 3.28125 "/>
<path style=" stroke:none;fill-rule:nonzero;fill:rgb(100%,100%,100%);fill-opacity:1;" d="M 499.308594 160.820312 C 499.308594 166.863281 494.410156 171.761719 488.367188 171.761719 C 482.328125 171.761719 477.429688 166.863281 477.429688 160.820312 C 477.429688 154.777344 482.328125 149.878906 488.367188 149.878906 C 494.410156 149.878906 499.308594 154.777344 499.308594 160.820312 "/>
<path style=" stroke:none;fill-rule:nonzero;fill:rgb(100%,100%,100%);fill-opacity:1;" d="M 223.617188 40.480469 C 223.617188 46.519531 218.71875 51.417969 212.675781 51.417969 C 206.636719 51.417969 201.738281 46.519531 201.738281 40.480469 C 201.738281 34.4375 206.636719 29.539062 212.675781 29.539062 C 218.71875 29.539062 223.617188 34.4375 223.617188 40.480469 "/>
<path style=" stroke:none;fill-rule:nonzero;fill:rgb(100%,100%,100%);fill-opacity:1;" d="M 46.386719 7.65625 C 46.386719 13.699219 41.488281 18.597656 35.445312 18.597656 C 29.402344 18.597656 24.503906 13.699219 24.503906 7.65625 C 24.503906 1.617188 29.402344 -3.28125 35.445312 -3.28125 C 41.488281 -3.28125 46.386719 1.617188 46.386719 7.65625 "/>
<path style=" stroke:none;fill-rule:nonzero;fill:rgb(100%,84.3%,0%);fill-opacity:1;" d="M 225.804688 64.546875 C 225.804688 70.589844 220.90625 75.488281 214.863281 75.488281 C 208.824219 75.488281 203.925781 70.589844 203.925781 64.546875 C 203.925781 58.503906 208.824219 53.605469 214.863281 53.605469 C 220.90625 53.605469 225.804688 58.503906 225.804688 64.546875 "/>
<path style=" stroke:none;fill-rule:nonzero;fill:rgb(100%,84.3%,0%);fill-opacity:1;" d="M 72.644531 217.710938 C 72.644531 223.75 67.746094 228.648438 61.703125 228.648438 C 55.660156 228.648438 50.761719 223.75 50.761719 217.710938 C 50.761719 211.667969 55.660156 206.769531 61.703125 206.769531 C 67.746094 206.769531 72.644531 211.667969 72.644531 217.710938 "/>
<path style=" stroke:none;fill-rule:nonzero;fill:rgb(100%,84.3%,0%);fill-opacity:1;" d="M 280.507812 447.453125 C 280.507812 453.496094 275.609375 458.394531 269.566406 458.394531 C 263.523438 458.394531 258.625 453.496094 258.625 447.453125 C 258.625 441.410156 263.523438 436.511719 269.566406 436.511719 C 275.609375 436.511719 280.507812 441.410156 280.507812 447.453125 "/>
<path style=" stroke:none;fill-rule:nonzero;fill:rgb(100%,84.3%,0%);fill-opacity:1;" d="M 427.105469 75.488281 C 427.105469 81.527344 422.207031 86.425781 416.164062 86.425781 C 410.121094 86.425781 405.222656 81.527344 405.222656 75.488281 C 405.222656 69.445312 410.121094 64.546875 416.164062 64.546875 C 422.207031 64.546875 427.105469 69.445312 427.105469 75.488281 "/>
<path style=" stroke:none;fill-rule:nonzero;fill:rgb(100%,84.3%,0%);fill-opacity:1;" d="M 192.984375 64.546875 C 192.984375 70.589844 188.085938 75.488281 182.042969 75.488281 C 176 75.488281 171.105469 70.589844 171.105469 64.546875 C 171.105469 58.503906 176 53.605469 182.042969 53.605469 C 188.085938 53.605469 192.984375 58.503906 192.984375 64.546875 "/>
<path style=" stroke:none;fill-rule:nonzero;fill:rgb(100%,84.3%,0%);fill-opacity:1;" d="M 72.644531 195.828125 C 72.644531 201.871094 67.746094 206.769531 61.703125 206.769531 C 55.660156 206.769531 50.761719 201.871094 50.761719 195.828125 C 50.761719 189.785156 55.660156 184.890625 61.703125 184.890625 C 67.746094 184.890625 72.644531 189.785156 72.644531 195.828125 "/>
<path style=" stroke:none;fill-rule:nonzero;fill:rgb(100%,84.3%,0%);fill-opacity:1;" d="M 302.386719 447.453125 C 302.386719 453.496094 297.488281 458.394531 291.445312 458.394531 C 285.402344 458.394531 280.503906 453.496094 280.503906 447.453125 C 280.503906 441.410156 285.402344 436.511719 291.445312 436.511719 C 297.488281 436.511719 302.386719 441.410156 302.386719 447.453125 "/>
<path style=" stroke:none;fill-rule:nonzero;fill:rgb(100%,84.3%,0%);fill-opacity:1;" d="M 72.644531 283.351562 C 72.644531 289.390625 67.746094 294.289062 61.703125 294.289062 C 55.660156 294.289062 50.761719 289.390625 50.761719 283.351562 C 50.761719 277.308594 55.660156 272.410156 61.703125 272.410156 C 67.746094 272.410156 72.644531 277.308594 72.644531 283.351562 "/>
<path style=" stroke:none;fill-rule:nonzero;fill:rgb(100%,84.3%,0%);fill-opacity:1;" d="M 72.644531 86.425781 C 72.644531 92.46875 67.746094 97.367188 61.703125 97.367188 C 55.660156 97.367188 50.761719 92.46875 50.761719 86.425781 C 50.761719 80.386719 55.660156 75.488281 61.703125 75.488281 C 67.746094 75.488281 72.644531 80.386719 72.644531 86.425781 "/>
<path style=" stroke:none;fill-rule:nonzero;fill:rgb(100%,84.3%,0%);fill-opacity:1;" d="M 83.582031 64.546875 C 83.582031 70.589844 78.683594 75.488281 72.644531 75.488281 C 66.601562 75.488281 61.703125 70.589844 61.703125 64.546875 C 61.703125 58.503906 66.601562 53.605469 72.644531 53.605469 C 78.683594 53.605469 83.582031 58.503906 83.582031 64.546875 "/>
</g>
</svg>
