<?xml version="1.0" encoding="UTF-8"?>
<svg xmlns="http://www.w3.org/2000/svg" xmlns:xlink="http://www.w3.org/1999/xlink" width="512pt" height="512pt" viewBox="0 0 512 512" version="1.1">
<g id="surface156">
<rect x="0" y="0" width="512" height="512" style="fill:rgb(26.7%,26.7%,26.7%);fill-opacity:1;stroke:none;"/>
<path style=" stroke:none;fill-rule:nonzero;fill:rgb(19.2%,38.8%,66.7%);fill-opacity:1;" d="M 14.398438 42.667969 L 158.390625 42.667969 L 158.390625 469.332031 L 14.398438 469.332031 Z M 14.398438 42.667969 "/>
<path style=" stroke:none;fill-rule:nonzero;fill:rgb(100%,100%,100%);fill-opacity:1;" d="M 247.921875 383.785156 C 247.921875 385.558594 245.265625 385.558594 245.265625 383.785156 C 245.265625 382.015625 247.921875 382.015625 247.921875 383.785156 "/>
<path style=" stroke:none;fill-rule:nonzero;fill:rgb(100%,100%,100%);fill-opacity:1;" d="M 360.566406 423.371094 C 360.566406 425.144531 357.910156 425.144531 357.910156 423.371094 C 357.910156 421.601562 360.566406 421.601562 360.566406 423.371094 "/>
<path style=" stroke:none;fill-rule:nonzero;fill:rgb(100%,100%,100%);fill-opacity:1;" d="M 365.351562 68.4375 C 365.351562 70.207031 362.695312 70.207031 362.695312 68.4375 C 362.695312 66.664062 365.351562 66.664062 365.351562 68.4375 "/>
<path style=" stroke:none;fill-rule:nonzero;fill:rgb(100%,100%,100%);fill-opacity:1;" d="M 459.929688 417.792969 C 459.929688 419.5625 457.273438 419.5625 457.273438 417.792969 C 457.273438 416.023438 459.929688 416.023438 459.929688 417.792969 "/>
<path style=" stroke:none;fill-rule:nonzero;fill:rgb(100%,100%,100%);fill-opacity:1;" d="M 245.265625 99.785156 C 245.265625 101.558594 242.609375 101.558594 242.609375 99.785156 C 242.609375 98.015625 245.265625 98.015625 245.265625 99.785156 "/>
<path style=" stroke:none;fill-rule:nonzero;fill:rgb(100%,100%,100%);fill-opacity:1;" d="M 245.796875 235.542969 C 245.796875 237.3125 243.140625 237.3125 243.140625 235.542969 C 243.140625 233.773438 245.796875 233.773438 245.796875 235.542969 "/>
<path style=" stroke:none;fill-rule:nonzero;fill:rgb(100%,100%,100%);fill-opacity:1;" d="M 190.273438 315.242188 C 190.273438 317.015625 187.617188 317.015625 187.617188 315.242188 C 187.617188 313.472656 190.273438 313.472656 190.273438 315.242188 "/>
<path style=" stroke:none;fill-rule:nonzero;fill:rgb(100%,100%,100%);fill-opacity:1;" d="M 478.792969 429.746094 C 478.792969 431.519531 476.132812 431.519531 476.132812 429.746094 C 476.132812 427.976562 478.792969 427.976562 478.792969 429.746094 "/>
<path style=" stroke:none;fill-rule:nonzero;fill:rgb(100%,100%,100%);fill-opacity:1;" d="M 319.65625 445.421875 C 319.65625 447.195312 316.996094 447.195312 316.996094 445.421875 C 316.996094 443.652344 319.65625 443.652344 319.65625 445.421875 "/>
<path style=" stroke:none;fill-rule:nonzero;fill:rgb(100%,100%,100%);fill-opacity:1;" d="M 260.144531 272.738281 C 260.144531 274.507812 257.488281 274.507812 257.488281 272.738281 C 257.488281 270.964844 260.144531 270.964844 260.144531 272.738281 "/>
<path style=" stroke:none;fill-rule:nonzero;fill:rgb(100%,100%,100%);fill-opacity:1;" d="M 415.296875 390.960938 C 415.296875 392.730469 412.640625 392.730469 412.640625 390.960938 C 412.640625 389.191406 415.296875 389.191406 415.296875 390.960938 "/>
<path style=" stroke:none;fill-rule:nonzero;fill:rgb(100%,100%,100%);fill-opacity:1;" d="M 180.972656 212.695312 C 180.972656 214.46875 178.316406 214.46875 178.316406 212.695312 C 178.316406 210.925781 180.972656 210.925781 180.972656 212.695312 "/>
<path style=" stroke:none;fill-rule:nonzero;fill:rgb(100%,100%,100%);fill-opacity:1;" d="M 386.074219 250.15625 C 386.074219 251.925781 383.414062 251.925781 383.414062 250.15625 C 383.414062 248.382812 386.074219 248.382812 386.074219 250.15625 "/>
<path style=" stroke:none;fill-rule:nonzero;fill:rgb(100%,100%,100%);fill-opacity:1;" d="M 434.957031 98.191406 C 434.957031 99.964844 432.296875 99.964844 432.296875 98.191406 C 432.296875 96.421875 434.957031 96.421875 434.957031 98.191406 "/>
<path style=" stroke:none;fill-rule:nonzero;fill:rgb(100%,100%,100%);fill-opacity:1;" d="M 341.4375 375.550781 C 341.4375 377.324219 338.78125 377.324219 338.78125 375.550781 C 338.78125 373.78125 341.4375 373.78125 341.4375 375.550781 "/>
<path style=" stroke:none;fill-rule:nonzero;fill:rgb(100%,100%,100%);fill-opacity:1;" d="M 2.710938 223.589844 C 2.710938 225.359375 0.0507812 225.359375 0.0507812 223.589844 C 0.0507812 221.816406 2.710938 221.816406 2.710938 223.589844 "/>
<path style=" stroke:none;fill-rule:nonzero;fill:rgb(100%,100%,100%);fill-opacity:1;" d="M 254.832031 397.335938 C 254.832031 399.109375 252.175781 399.109375 252.175781 397.335938 C 252.175781 395.566406 254.832031 395.566406 254.832031 397.335938 "/>
<path style=" stroke:none;fill-rule:nonzero;fill:rgb(100%,100%,100%);fill-opacity:1;" d="M 242.078125 -1.167969 C 242.078125 0.601562 239.421875 0.601562 239.421875 -1.167969 C 239.421875 -2.941406 242.078125 -2.941406 242.078125 -1.167969 "/>
<path style=" stroke:none;fill-rule:nonzero;fill:rgb(100%,100%,100%);fill-opacity:1;" d="M 509.875 461.097656 C 509.875 462.867188 507.21875 462.867188 507.21875 461.097656 C 507.21875 459.328125 509.875 459.328125 509.875 461.097656 "/>
<path style=" stroke:none;fill-rule:nonzero;fill:rgb(100%,84.3%,0%);fill-opacity:1;" d="M 18.382812 312.589844 C 18.382812 314.359375 15.726562 314.359375 15.726562 312.589844 C 15.726562 310.816406 18.382812 310.816406 18.382812 312.589844 "/>
<path style=" stroke:none;fill-rule:nonzero;fill:rgb(100%,84.3%,0%);fill-opacity:1;" d="M 157.0625 218.273438 C 157.0625 220.046875 154.40625 220.046875 154.40625 218.273438 C 154.40625 216.503906 157.0625 216.503906 157.0625 218.273438 "/>
<path style=" stroke:none;fill-rule:nonzero;fill:rgb(100%,84.3%,0%);fill-opacity:1;" d="M 157.0625 307.273438 C 157.0625 309.046875 154.40625 309.046875 154.40625 307.273438 C 154.40625 305.503906 157.0625 305.503906 157.0625 307.273438 "/>
<path style=" stroke:none;fill-rule:nonzero;fill:rgb(100%,84.3%,0%);fill-opacity:1;" d="M 18.382812 344.46875 C 18.382812 346.238281 15.726562 346.238281 15.726562 344.46875 C 15.726562 342.695312 18.382812 342.695312 18.382812 344.46875 "/>
<path style=" stroke:none;fill-rule:nonzero;fill:rgb(100%,84.3%,0%);fill-opacity:1;" d="M 18.382812 223.589844 C 18.382812 225.359375 15.726562 225.359375 15.726562 223.589844 C 15.726562 221.816406 18.382812 221.816406 18.382812 223.589844 "/>
<path style=" stroke:none;fill-rule:nonzero;fill:rgb(100%,84.3%,0%);fill-opacity:1;" d="M 157.0625 220.933594 C 157.0625 222.703125 154.40625 222.703125 154.40625 220.933594 C 154.40625 219.160156 157.0625 219.160156 157.0625 220.933594 "/>
<path style=" stroke:none;fill-rule:nonzero;fill:rgb(100%,84.3%,0%);fill-opacity:1;" d="M 18.382812 321.886719 C 18.382812 323.65625 15.726562 323.65625 15.726562 321.886719 C 15.726562 320.113281 18.382812 320.113281 18.382812 321.886719 "/>
<path style=" stroke:none;fill-rule:nonzero;fill:rgb(100%,84.3%,0%);fill-opacity:1;" d="M 18.382812 331.183594 C 18.382812 332.957031 15.726562 332.957031 15.726562 331.183594 C 15.726562 329.414062 18.382812 329.414062 18.382812 331.183594 "/>
<path style=" stroke:none;fill-rule:nonzero;fill:rgb(100%,84.3%,0%);fill-opacity:1;" d="M 18.382812 227.574219 C 18.382812 229.34375 15.726562 229.34375 15.726562 227.574219 C 15.726562 225.800781 18.382812 225.800781 18.382812 227.574219 "/>
<path style=" stroke:none;fill-rule:nonzero;fill:rgb(100%,84.3%,0%);fill-opacity:1;" d="M 18.382812 219.601562 C 18.382812 221.375 15.726562 221.375 15.726562 219.601562 C 15.726562 217.832031 18.382812 217.832031 18.382812 219.601562 "/>
<path style=" stroke:none;fill-rule:nonzero;fill:rgb(100%,84.3%,0%);fill-opacity:1;" d="M 18.382812 216.945312 C 18.382812 218.71875 15.726562 218.71875 15.726562 216.945312 C 15.726562 215.175781 18.382812 215.175781 18.382812 216.945312 "/>
<path style=" stroke:none;fill-rule:nonzero;fill:rgb(100%,84.3%,0%);fill-opacity:1;" d="M 18.382812 211.632812 C 18.382812 213.402344 15.726562 213.402344 15.726562 211.632812 C 15.726562 209.863281 18.382812 209.863281 18.382812 211.632812 "/>
<path style=" stroke:none;fill-rule:nonzero;fill:rgb(100%,84.3%,0%);fill-opacity:1;" d="M 18.382812 337.824219 C 18.382812 339.597656 15.726562 339.597656 15.726562 337.824219 C 15.726562 336.054688 18.382812 336.054688 18.382812 337.824219 "/>
<path style=" stroke:none;fill-rule:nonzero;fill:rgb(100%,84.3%,0%);fill-opacity:1;" d="M 18.382812 231.558594 C 18.382812 233.328125 15.726562 233.328125 15.726562 231.558594 C 15.726562 229.785156 18.382812 229.785156 18.382812 231.558594 "/>
<path style=" stroke:none;fill-rule:nonzero;fill:rgb(100%,84.3%,0%);fill-opacity:1;" d="M 157.0625 313.914062 C 157.0625 315.6875 154.40625 315.6875 154.40625 313.914062 C 154.40625 312.144531 157.0625 312.144531 157.0625 313.914062 "/>
<path style=" stroke:none;fill-rule:nonzero;fill:rgb(100%,84.3%,0%);fill-opacity:1;" d="M 18.382812 327.199219 C 18.382812 328.972656 15.726562 328.972656 15.726562 327.199219 C 15.726562 325.429688 18.382812 325.429688 18.382812 327.199219 "/>
<path style=" stroke:none;fill-rule:nonzero;fill:rgb(100%,84.3%,0%);fill-opacity:1;" d="M 18.382812 214.289062 C 18.382812 216.0625 15.726562 216.0625 15.726562 214.289062 C 15.726562 212.519531 18.382812 212.519531 18.382812 214.289062 "/>
<path style=" stroke:none;fill-rule:nonzero;fill:rgb(100%,84.3%,0%);fill-opacity:1;" d="M 157.0625 204.992188 C 157.0625 206.761719 154.40625 206.761719 154.40625 204.992188 C 154.40625 203.21875 157.0625 203.21875 157.0625 204.992188 "/>
<path style=" stroke:none;fill-rule:nonzero;fill:rgb(100%,84.3%,0%);fill-opacity:1;" d="M 18.382812 304.617188 C 18.382812 306.390625 15.726562 306.390625 15.726562 304.617188 C 15.726562 302.847656 18.382812 302.847656 18.382812 304.617188 "/>
<path style=" stroke:none;fill-rule:nonzero;fill:rgb(100%,84.3%,0%);fill-opacity:1;" d="M 18.382812 239.527344 C 18.382812 241.300781 15.726562 241.300781 15.726562 239.527344 C 15.726562 237.757812 18.382812 237.757812 18.382812 239.527344 "/>
<path style=" stroke:none;fill-rule:nonzero;fill:rgb(100%,84.3%,0%);fill-opacity:1;" d="M 157.0625 207.648438 C 157.0625 209.417969 154.40625 209.417969 154.40625 207.648438 C 154.40625 205.875 157.0625 205.875 157.0625 207.648438 "/>
<path style=" stroke:none;fill-rule:nonzero;fill:rgb(100%,84.3%,0%);fill-opacity:1;" d="M 157.0625 223.589844 C 157.0625 225.359375 154.40625 225.359375 154.40625 223.589844 C 154.40625 221.816406 157.0625 221.816406 157.0625 223.589844 "/>
<path style=" stroke:none;fill-rule:nonzero;fill:rgb(100%,84.3%,0%);fill-opacity:1;" d="M 18.382812 324.542969 C 18.382812 326.3125 15.726562 326.3125 15.726562 324.542969 C 15.726562 322.773438 18.382812 322.773438 18.382812 324.542969 "/>
<path style=" stroke:none;fill-rule:nonzero;fill:rgb(100%,84.3%,0%);fill-opacity:1;" d="M 157.0625 210.304688 C 157.0625 212.074219 154.40625 212.074219 154.40625 210.304688 C 154.40625 208.535156 157.0625 208.535156 157.0625 210.304688 "/>
<path style=" stroke:none;fill-rule:nonzero;fill:rgb(100%,84.3%,0%);fill-opacity:1;" d="M 18.382812 235.542969 C 18.382812 237.3125 15.726562 237.3125 15.726562 235.542969 C 15.726562 233.773438 18.382812 233.773438 18.382812 235.542969 "/>
<path style=" stroke:none;fill-rule:nonzero;fill:rgb(100%,84.3%,0%);fill-opacity:1;" d="M 18.382812 207.648438 C 18.382812 209.417969 15.726562 209.417969 15.726562 207.648438 C 15.726562 205.875 18.382812 205.875 18.382812 207.648438 "/>
</g>
</svg>
