<?xml version="1.0" encoding="UTF-8"?>
<svg xmlns="http://www.w3.org/2000/svg" xmlns:xlink="http://www.w3.org/1999/xlink" width="512pt" height="512pt" viewBox="0 0 512 512" version="1.1">
<g id="surface1">
<rect x="0" y="0" width="512" height="512" style="fill:rgb(26.7%,26.7%,26.7%);fill-opacity:1;stroke:none;"/>
<path style=" stroke:none;fill-rule:nonzero;fill:rgb(19.2%,38.8%,66.7%);fill-opacity:1;" d="M 37.332031 42.667969 L 410.667969 42.667969 L 410.667969 469.332031 L 37.332031 469.332031 Z M 37.332031 42.667969 "/>
<path style=" stroke:none;fill-rule:nonzero;fill:rgb(100%,100%,100%);fill-opacity:1;" d="M 380.800781 8.53125 C 380.800781 14.425781 376.023438 19.199219 370.132812 19.199219 C 364.242188 19.199219 359.464844 14.425781 359.464844 8.53125 C 359.464844 2.640625 364.242188 -2.132812 370.132812 -2.132812 C 376.023438 -2.132812 380.800781 2.640625 380.800781 8.53125 "/>
<path style=" stroke:none;fill-rule:nonzero;fill:rgb(100%,100%,100%);fill-opacity:1;" d="M 504.535156 375.46875 C 504.535156 381.359375 499.757812 386.132812 493.867188 386.132812 C 487.976562 386.132812 483.199219 381.359375 483.199219 375.46875 C 483.199219 369.574219 487.976562 364.800781 493.867188 364.800781 C 499.757812 364.800781 504.535156 369.574219 504.535156 375.46875 "/>
<path style=" stroke:none;fill-rule:nonzero;fill:rgb(100%,100%,100%);fill-opacity:1;" d="M 427.734375 238.933594 C 427.734375 244.824219 422.957031 249.601562 417.066406 249.601562 C 411.175781 249.601562 406.398438 244.824219 406.398438 238.933594 C 406.398438 233.042969 411.175781 228.265625 417.066406 228.265625 C 422.957031 228.265625 427.734375 233.042969 427.734375 238.933594 "/>
<path style=" stroke:none;fill-rule:nonzero;fill:rgb(100%,100%,100%);fill-opacity:1;" d="M 436.265625 264.53125 C 436.265625 270.425781 431.492188 275.199219 425.601562 275.199219 C 419.707031 275.199219 414.933594 270.425781 414.933594 264.53125 C 414.933594 258.640625 419.707031 253.867188 425.601562 253.867188 C 431.492188 253.867188 436.265625 258.640625 436.265625 264.53125 "/>
<path style=" stroke:none;fill-rule:nonzero;fill:rgb(100%,100%,100%);fill-opacity:1;" d="M 210.132812 -8.53125 C 210.132812 -2.640625 205.359375 2.132812 199.46875 2.132812 C 193.574219 2.132812 188.800781 -2.640625 188.800781 -8.53125 C 188.800781 -14.425781 193.574219 -19.199219 199.46875 -19.199219 C 205.359375 -19.199219 210.132812 -14.425781 210.132812 -8.53125 "/>
<path style=" stroke:none;fill-rule:nonzero;fill:rgb(100%,100%,100%);fill-opacity:1;" d="M 3.199219 215.46875 C 3.199219 221.359375 -1.574219 226.132812 -7.46875 226.132812 C -13.359375 226.132812 -18.132812 221.359375 -18.132812 215.46875 C -18.132812 209.574219 -13.359375 204.800781 -7.46875 204.800781 C -1.574219 204.800781 3.199219 209.574219 3.199219 215.46875 "/>
<path style=" stroke:none;fill-rule:nonzero;fill:rgb(100%,100%,100%);fill-opacity:1;" d="M 468.265625 46.933594 C 468.265625 52.824219 463.492188 57.601562 457.601562 57.601562 C 451.707031 57.601562 446.933594 52.824219 446.933594 46.933594 C 446.933594 41.042969 451.707031 36.265625 457.601562 36.265625 C 463.492188 36.265625 468.265625 41.042969 468.265625 46.933594 "/>
<path style=" stroke:none;fill-rule:nonzero;fill:rgb(100%,100%,100%);fill-opacity:1;" d="M 446.933594 12.800781 C 446.933594 18.691406 442.15625 23.464844 436.265625 23.464844 C 430.375 23.464844 425.601562 18.691406 425.601562 12.800781 C 425.601562 6.910156 430.375 2.132812 436.265625 2.132812 C 442.15625 2.132812 446.933594 6.910156 446.933594 12.800781 "/>
<path style=" stroke:none;fill-rule:nonzero;fill:rgb(100%,100%,100%);fill-opacity:1;" d="M 105.601562 19.199219 C 105.601562 25.089844 100.824219 29.867188 94.933594 29.867188 C 89.042969 29.867188 84.265625 25.089844 84.265625 19.199219 C 84.265625 13.308594 89.042969 8.535156 94.933594 8.535156 C 100.824219 8.535156 105.601562 13.308594 105.601562 19.199219 "/>
<path style=" stroke:none;fill-rule:nonzero;fill:rgb(100%,100%,100%);fill-opacity:1;" d="M 508.800781 292.265625 C 508.800781 298.15625 504.023438 302.933594 498.132812 302.933594 C 492.242188 302.933594 487.464844 298.15625 487.464844 292.265625 C 487.464844 286.375 492.242188 281.601562 498.132812 281.601562 C 504.023438 281.601562 508.800781 286.375 508.800781 292.265625 "/>
<path style=" stroke:none;fill-rule:nonzero;fill:rgb(100%,100%,100%);fill-opacity:1;" d="M 5.332031 6.398438 C 5.332031 12.292969 0.558594 17.066406 -5.332031 17.066406 C -11.222656 17.066406 -16 12.292969 -16 6.398438 C -16 0.507812 -11.222656 -4.265625 -5.332031 -4.265625 C 0.558594 -4.265625 5.332031 0.507812 5.332031 6.398438 "/>
<path style=" stroke:none;fill-rule:nonzero;fill:rgb(100%,100%,100%);fill-opacity:1;" d="M 37.332031 260.265625 C 37.332031 266.15625 32.558594 270.933594 26.667969 270.933594 C 20.777344 270.933594 16 266.15625 16 260.265625 C 16 254.375 20.777344 249.601562 26.667969 249.601562 C 32.558594 249.601562 37.332031 254.375 37.332031 260.265625 "/>
<path style=" stroke:none;fill-rule:nonzero;fill:rgb(100%,100%,100%);fill-opacity:1;" d="M 50.132812 8.53125 C 50.132812 14.425781 45.359375 19.199219 39.46875 19.199219 C 33.574219 19.199219 28.800781 14.425781 28.800781 8.53125 C 28.800781 2.640625 33.574219 -2.132812 39.46875 -2.132812 C 45.359375 -2.132812 50.132812 2.640625 50.132812 8.53125 "/>
<path style=" stroke:none;fill-rule:nonzero;fill:rgb(100%,100%,100%);fill-opacity:1;" d="M 436.265625 437.332031 C 436.265625 443.222656 431.492188 448 425.601562 448 C 419.707031 448 414.933594 443.222656 414.933594 437.332031 C 414.933594 431.441406 419.707031 426.667969 425.601562 426.667969 C 431.492188 426.667969 436.265625 431.441406 436.265625 437.332031 "/>
<path style=" stroke:none;fill-rule:nonzero;fill:rgb(100%,100%,100%);fill-opacity:1;" d="M 466.132812 326.398438 C 466.132812 332.292969 461.359375 337.066406 455.46875 337.066406 C 449.574219 337.066406 444.800781 332.292969 444.800781 326.398438 C 444.800781 320.507812 449.574219 315.734375 455.46875 315.734375 C 461.359375 315.734375 466.132812 320.507812 466.132812 326.398438 "/>
<path style=" stroke:none;fill-rule:nonzero;fill:rgb(100%,100%,100%);fill-opacity:1;" d="M 515.199219 251.734375 C 515.199219 257.625 510.425781 262.398438 504.53125 262.398438 C 498.640625 262.398438 493.867188 257.625 493.867188 251.734375 C 493.867188 245.84375 498.640625 241.066406 504.53125 241.066406 C 510.425781 241.066406 515.199219 245.84375 515.199219 251.734375 "/>
<path style=" stroke:none;fill-rule:nonzero;fill:rgb(100%,100%,100%);fill-opacity:1;" d="M 429.867188 326.398438 C 429.867188 332.292969 425.089844 337.066406 419.199219 337.066406 C 413.308594 337.066406 408.535156 332.292969 408.535156 326.398438 C 408.535156 320.507812 413.308594 315.734375 419.199219 315.734375 C 425.089844 315.734375 429.867188 320.507812 429.867188 326.398438 "/>
<path style=" stroke:none;fill-rule:nonzero;fill:rgb(100%,100%,100%);fill-opacity:1;" d="M 453.332031 -2.132812 C 453.332031 3.757812 448.558594 8.535156 442.667969 8.535156 C 436.777344 8.535156 432 3.757812 432 -2.132812 C 432 -8.023438 436.777344 -12.800781 442.667969 -12.800781 C 448.558594 -12.800781 453.332031 -8.023438 453.332031 -2.132812 "/>
<path style=" stroke:none;fill-rule:nonzero;fill:rgb(100%,84.3%,0%);fill-opacity:1;" d="M 378.667969 245.332031 C 378.667969 251.222656 373.890625 256 368 256 C 362.109375 256 357.332031 251.222656 357.332031 245.332031 C 357.332031 239.441406 362.109375 234.667969 368 234.667969 C 373.890625 234.667969 378.667969 239.441406 378.667969 245.332031 "/>
<path style=" stroke:none;fill-rule:nonzero;fill:rgb(100%,84.3%,0%);fill-opacity:1;" d="M 378.667969 266.667969 C 378.667969 272.558594 373.890625 277.332031 368 277.332031 C 362.109375 277.332031 357.332031 272.558594 357.332031 266.667969 C 357.332031 260.777344 362.109375 256 368 256 C 373.890625 256 378.667969 260.777344 378.667969 266.667969 "/>
<path style=" stroke:none;fill-rule:nonzero;fill:rgb(100%,84.3%,0%);fill-opacity:1;" d="M 378.667969 224 C 378.667969 229.890625 373.890625 234.667969 368 234.667969 C 362.109375 234.667969 357.332031 229.890625 357.332031 224 C 357.332031 218.109375 362.109375 213.332031 368 213.332031 C 373.890625 213.332031 378.667969 218.109375 378.667969 224 "/>
<path style=" stroke:none;fill-rule:nonzero;fill:rgb(100%,84.3%,0%);fill-opacity:1;" d="M 90.667969 234.667969 C 90.667969 240.558594 85.890625 245.332031 80 245.332031 C 74.109375 245.332031 69.332031 240.558594 69.332031 234.667969 C 69.332031 228.777344 74.109375 224 80 224 C 85.890625 224 90.667969 228.777344 90.667969 234.667969 "/>
<path style=" stroke:none;fill-rule:nonzero;fill:rgb(100%,84.3%,0%);fill-opacity:1;" d="M 69.332031 128 C 69.332031 133.890625 64.558594 138.667969 58.667969 138.667969 C 52.777344 138.667969 48 133.890625 48 128 C 48 122.109375 52.777344 117.332031 58.667969 117.332031 C 64.558594 117.332031 69.332031 122.109375 69.332031 128 "/>
<path style=" stroke:none;fill-rule:nonzero;fill:rgb(100%,84.3%,0%);fill-opacity:1;" d="M 186.667969 448 C 186.667969 453.890625 181.890625 458.667969 176 458.667969 C 170.109375 458.667969 165.332031 453.890625 165.332031 448 C 165.332031 442.109375 170.109375 437.332031 176 437.332031 C 181.890625 437.332031 186.667969 442.109375 186.667969 448 "/>
<path style=" stroke:none;fill-rule:nonzero;fill:rgb(100%,84.3%,0%);fill-opacity:1;" d="M 250.667969 64 C 250.667969 69.890625 245.890625 74.667969 240 74.667969 C 234.109375 74.667969 229.332031 69.890625 229.332031 64 C 229.332031 58.109375 234.109375 53.332031 240 53.332031 C 245.890625 53.332031 250.667969 58.109375 250.667969 64 "/>
<path style=" stroke:none;fill-rule:nonzero;fill:rgb(100%,84.3%,0%);fill-opacity:1;" d="M 229.332031 64 C 229.332031 69.890625 224.558594 74.667969 218.667969 74.667969 C 212.777344 74.667969 208 69.890625 208 64 C 208 58.109375 212.777344 53.332031 218.667969 53.332031 C 224.558594 53.332031 229.332031 58.109375 229.332031 64 "/>
<path style=" stroke:none;fill-rule:nonzero;fill:rgb(100%,84.3%,0%);fill-opacity:1;" d="M 325.332031 448 C 325.332031 453.890625 320.558594 458.667969 314.667969 458.667969 C 308.777344 458.667969 304 453.890625 304 448 C 304 442.109375 308.777344 437.332031 314.667969 437.332031 C 320.558594 437.332031 325.332031 442.109375 325.332031 448 "/>
<path style=" stroke:none;fill-rule:nonzero;fill:rgb(100%,84.3%,0%);fill-opacity:1;" d="M 176 64 C 176 69.890625 171.222656 74.667969 165.332031 74.667969 C 159.441406 74.667969 154.667969 69.890625 154.667969 64 C 154.667969 58.109375 159.441406 53.332031 165.332031 53.332031 C 171.222656 53.332031 176 58.109375 176 64 "/>
<path style=" stroke:none;fill-rule:nonzero;fill:rgb(100%,84.3%,0%);fill-opacity:1;" d="M 90.667969 448 C 90.667969 453.890625 85.890625 458.667969 80 458.667969 C 74.109375 458.667969 69.332031 453.890625 69.332031 448 C 69.332031 442.109375 74.109375 437.332031 80 437.332031 C 85.890625 437.332031 90.667969 442.109375 90.667969 448 "/>
<path style=" stroke:none;fill-rule:nonzero;fill:rgb(100%,84.3%,0%);fill-opacity:1;" d="M 293.332031 448 C 293.332031 453.890625 288.558594 458.667969 282.667969 458.667969 C 276.777344 458.667969 272 453.890625 272 448 C 272 442.109375 276.777344 437.332031 282.667969 437.332031 C 288.558594 437.332031 293.332031 442.109375 293.332031 448 "/>
<path style=" stroke:none;fill-rule:nonzero;fill:rgb(100%,84.3%,0%);fill-opacity:1;" d="M 69.332031 181.332031 C 69.332031 187.222656 64.558594 192 58.667969 192 C 52.777344 192 48 187.222656 48 181.332031 C 48 175.441406 52.777344 170.667969 58.667969 170.667969 C 64.558594 170.667969 69.332031 175.441406 69.332031 181.332031 "/>
<path style=" stroke:none;fill-rule:nonzero;fill:rgb(100%,84.3%,0%);fill-opacity:1;" d="M 400 96 C 400 101.890625 395.222656 106.667969 389.332031 106.667969 C 383.441406 106.667969 378.667969 101.890625 378.667969 96 C 378.667969 90.109375 383.441406 85.332031 389.332031 85.332031 C 395.222656 85.332031 400 90.109375 400 96 "/>
<path style=" stroke:none;fill-rule:nonzero;fill:rgb(100%,84.3%,0%);fill-opacity:1;" d="M 218.667969 448 C 218.667969 453.890625 213.890625 458.667969 208 458.667969 C 202.109375 458.667969 197.332031 453.890625 197.332031 448 C 197.332031 442.109375 202.109375 437.332031 208 437.332031 C 213.890625 437.332031 218.667969 442.109375 218.667969 448 "/>
<path style=" stroke:none;fill-rule:nonzero;fill:rgb(100%,84.3%,0%);fill-opacity:1;" d="M 69.332031 448 C 69.332031 453.890625 64.558594 458.667969 58.667969 458.667969 C 52.777344 458.667969 48 453.890625 48 448 C 48 442.109375 52.777344 437.332031 58.667969 437.332031 C 64.558594 437.332031 69.332031 442.109375 69.332031 448 "/>
<path style=" stroke:none;fill-rule:nonzero;fill:rgb(100%,84.3%,0%);fill-opacity:1;" d="M 400 74.667969 C 400 80.558594 395.222656 85.332031 389.332031 85.332031 C 383.441406 85.332031 378.667969 80.558594 378.667969 74.667969 C 378.667969 68.777344 383.441406 64 389.332031 64 C 395.222656 64 400 68.777344 400 74.667969 "/>
<path style=" stroke:none;fill-rule:nonzero;fill:rgb(100%,84.3%,0%);fill-opacity:1;" d="M 400 266.667969 C 400 272.558594 395.222656 277.332031 389.332031 277.332031 C 383.441406 277.332031 378.667969 272.558594 378.667969 266.667969 C 378.667969 260.777344 383.441406 256 389.332031 256 C 395.222656 256 400 260.777344 400 266.667969 "/>
<path style=" stroke:none;fill-rule:nonzero;fill:rgb(100%,84.3%,0%);fill-opacity:1;" d="M 400 288 C 400 293.890625 395.222656 298.667969 389.332031 298.667969 C 383.441406 298.667969 378.667969 293.890625 378.667969 288 C 378.667969 282.109375 383.441406 277.332031 389.332031 277.332031 C 395.222656 277.332031 400 282.109375 400 288 "/>
<path style=" stroke:none;fill-rule:nonzero;fill:rgb(100%,84.3%,0%);fill-opacity:1;" d="M 197.332031 64 C 197.332031 69.890625 192.558594 74.667969 186.667969 74.667969 C 180.777344 74.667969 176 69.890625 176 64 C 176 58.109375 180.777344 53.332031 186.667969 53.332031 C 192.558594 53.332031 197.332031 58.109375 197.332031 64 "/>
<path style=" stroke:none;fill-rule:nonzero;fill:rgb(100%,84.3%,0%);fill-opacity:1;" d="M 250.667969 448 C 250.667969 453.890625 245.890625 458.667969 240 458.667969 C 234.109375 458.667969 229.332031 453.890625 229.332031 448 C 229.332031 442.109375 234.109375 437.332031 240 437.332031 C 245.890625 437.332031 250.667969 442.109375 250.667969 448 "/>
<path style=" stroke:none;fill-rule:nonzero;fill:rgb(100%,84.3%,0%);fill-opacity:1;" d="M 69.332031 256 C 69.332031 261.890625 64.558594 266.667969 58.667969 266.667969 C 52.777344 266.667969 48 261.890625 48 256 C 48 250.109375 52.777344 245.332031 58.667969 245.332031 C 64.558594 245.332031 69.332031 250.109375 69.332031 256 "/>
<path style=" stroke:none;fill-rule:nonzero;fill:rgb(100%,84.3%,0%);fill-opacity:1;" d="M 400 245.332031 C 400 251.222656 395.222656 256 389.332031 256 C 383.441406 256 378.667969 251.222656 378.667969 245.332031 C 378.667969 239.441406 383.441406 234.667969 389.332031 234.667969 C 395.222656 234.667969 400 239.441406 400 245.332031 "/>
<path style=" stroke:none;fill-rule:nonzero;fill:rgb(100%,84.3%,0%);fill-opacity:1;" d="M 69.332031 213.332031 C 69.332031 219.222656 64.558594 224 58.667969 224 C 52.777344 224 48 219.222656 48 213.332031 C 48 207.441406 52.777344 202.667969 58.667969 202.667969 C 64.558594 202.667969 69.332031 207.441406 69.332031 213.332031 "/>
<path style=" stroke:none;fill-rule:nonzero;fill:rgb(100%,84.3%,0%);fill-opacity:1;" d="M 346.667969 64 C 346.667969 69.890625 341.890625 74.667969 336 74.667969 C 330.109375 74.667969 325.332031 69.890625 325.332031 64 C 325.332031 58.109375 330.109375 53.332031 336 53.332031 C 341.890625 53.332031 346.667969 58.109375 346.667969 64 "/>
<path style=" stroke:none;fill-rule:nonzero;fill:rgb(100%,84.3%,0%);fill-opacity:1;" d="M 69.332031 234.667969 C 69.332031 240.558594 64.558594 245.332031 58.667969 245.332031 C 52.777344 245.332031 48 240.558594 48 234.667969 C 48 228.777344 52.777344 224 58.667969 224 C 64.558594 224 69.332031 228.777344 69.332031 234.667969 "/>
<path style=" stroke:none;fill-rule:nonzero;fill:rgb(100%,84.3%,0%);fill-opacity:1;" d="M 357.332031 448 C 357.332031 453.890625 352.558594 458.667969 346.667969 458.667969 C 340.777344 458.667969 336 453.890625 336 448 C 336 442.109375 340.777344 437.332031 346.667969 437.332031 C 352.558594 437.332031 357.332031 442.109375 357.332031 448 "/>
<path style=" stroke:none;fill-rule:nonzero;fill:rgb(100%,84.3%,0%);fill-opacity:1;" d="M 69.332031 85.332031 C 69.332031 91.222656 64.558594 96 58.667969 96 C 52.777344 96 48 91.222656 48 85.332031 C 48 79.441406 52.777344 74.667969 58.667969 74.667969 C 64.558594 74.667969 69.332031 79.441406 69.332031 85.332031 "/>
<path style=" stroke:none;fill-rule:nonzero;fill:rgb(100%,84.3%,0%);fill-opacity:1;" d="M 400 160 C 400 165.890625 395.222656 170.667969 389.332031 170.667969 C 383.441406 170.667969 378.667969 165.890625 378.667969 160 C 378.667969 154.109375 383.441406 149.332031 389.332031 149.332031 C 395.222656 149.332031 400 154.109375 400 160 "/>
<path style=" stroke:none;fill-rule:nonzero;fill:rgb(100%,84.3%,0%);fill-opacity:1;" d="M 400 352 C 400 357.890625 395.222656 362.667969 389.332031 362.667969 C 383.441406 362.667969 378.667969 357.890625 378.667969 352 C 378.667969 346.109375 383.441406 341.332031 389.332031 341.332031 C 395.222656 341.332031 400 346.109375 400 352 "/>
<path style=" stroke:none;fill-rule:nonzero;fill:rgb(100%,84.3%,0%);fill-opacity:1;" d="M 400 405.332031 C 400 411.222656 395.222656 416 389.332031 416 C 383.441406 416 378.667969 411.222656 378.667969 405.332031 C 378.667969 399.441406 383.441406 394.667969 389.332031 394.667969 C 395.222656 394.667969 400 399.441406 400 405.332031 "/>
<path style=" stroke:none;fill-rule:nonzero;fill:rgb(100%,84.3%,0%);fill-opacity:1;" d="M 400 202.667969 C 400 208.558594 395.222656 213.332031 389.332031 213.332031 C 383.441406 213.332031 378.667969 208.558594 378.667969 202.667969 C 378.667969 196.777344 383.441406 192 389.332031 192 C 395.222656 192 400 196.777344 400 202.667969 "/>
<path style=" stroke:none;fill-rule:nonzero;fill:rgb(100%,84.3%,0%);fill-opacity:1;" d="M 378.667969 64 C 378.667969 69.890625 373.890625 74.667969 368 74.667969 C 362.109375 74.667969 357.332031 69.890625 357.332031 64 C 357.332031 58.109375 362.109375 53.332031 368 53.332031 C 373.890625 53.332031 378.667969 58.109375 378.667969 64 "/>
<path style=" stroke:none;fill-rule:nonzero;fill:rgb(100%,84.3%,0%);fill-opacity:1;" d="M 90.667969 256 C 90.667969 261.890625 85.890625 266.667969 80 266.667969 C 74.109375 266.667969 69.332031 261.890625 69.332031 256 C 69.332031 250.109375 74.109375 245.332031 80 245.332031 C 85.890625 245.332031 90.667969 250.109375 90.667969 256 "/>
<path style=" stroke:none;fill-rule:nonzero;fill:rgb(100%,84.3%,0%);fill-opacity:1;" d="M 112 64 C 112 69.890625 107.222656 74.667969 101.332031 74.667969 C 95.441406 74.667969 90.667969 69.890625 90.667969 64 C 90.667969 58.109375 95.441406 53.332031 101.332031 53.332031 C 107.222656 53.332031 112 58.109375 112 64 "/>
<path style=" stroke:none;fill-rule:nonzero;fill:rgb(100%,84.3%,0%);fill-opacity:1;" d="M 400 224 C 400 229.890625 395.222656 234.667969 389.332031 234.667969 C 383.441406 234.667969 378.667969 229.890625 378.667969 224 C 378.667969 218.109375 383.441406 213.332031 389.332031 213.332031 C 395.222656 213.332031 400 218.109375 400 224 "/>
<path style=" stroke:none;fill-rule:nonzero;fill:rgb(100%,84.3%,0%);fill-opacity:1;" d="M 400 448 C 400 453.890625 395.222656 458.667969 389.332031 458.667969 C 383.441406 458.667969 378.667969 453.890625 378.667969 448 C 378.667969 442.109375 383.441406 437.332031 389.332031 437.332031 C 395.222656 437.332031 400 442.109375 400 448 "/>
<path style=" stroke:none;fill-rule:nonzero;fill:rgb(100%,84.3%,0%);fill-opacity:1;" d="M 69.332031 298.667969 C 69.332031 304.558594 64.558594 309.332031 58.667969 309.332031 C 52.777344 309.332031 48 304.558594 48 298.667969 C 48 292.777344 52.777344 288 58.667969 288 C 64.558594 288 69.332031 292.777344 69.332031 298.667969 "/>
<path style=" stroke:none;fill-rule:nonzero;fill:rgb(100%,84.3%,0%);fill-opacity:1;" d="M 144 64 C 144 69.890625 139.222656 74.667969 133.332031 74.667969 C 127.441406 74.667969 122.667969 69.890625 122.667969 64 C 122.667969 58.109375 127.441406 53.332031 133.332031 53.332031 C 139.222656 53.332031 144 58.109375 144 64 "/>
<path style=" stroke:none;fill-rule:nonzero;fill:rgb(100%,84.3%,0%);fill-opacity:1;" d="M 69.332031 352 C 69.332031 357.890625 64.558594 362.667969 58.667969 362.667969 C 52.777344 362.667969 48 357.890625 48 352 C 48 346.109375 52.777344 341.332031 58.667969 341.332031 C 64.558594 341.332031 69.332031 346.109375 69.332031 352 "/>
<path style=" stroke:none;fill-rule:nonzero;fill:rgb(100%,84.3%,0%);fill-opacity:1;" d="M 80 64 C 80 69.890625 75.222656 74.667969 69.332031 74.667969 C 63.441406 74.667969 58.667969 69.890625 58.667969 64 C 58.667969 58.109375 63.441406 53.332031 69.332031 53.332031 C 75.222656 53.332031 80 58.109375 80 64 "/>
<path style=" stroke:none;fill-rule:nonzero;fill:rgb(100%,84.3%,0%);fill-opacity:1;" d="M 122.667969 448 C 122.667969 453.890625 117.890625 458.667969 112 458.667969 C 106.109375 458.667969 101.332031 453.890625 101.332031 448 C 101.332031 442.109375 106.109375 437.332031 112 437.332031 C 117.890625 437.332031 122.667969 442.109375 122.667969 448 "/>
<path style=" stroke:none;fill-rule:nonzero;fill:rgb(100%,84.3%,0%);fill-opacity:1;" d="M 400 330.667969 C 400 336.558594 395.222656 341.332031 389.332031 341.332031 C 383.441406 341.332031 378.667969 336.558594 378.667969 330.667969 C 378.667969 324.777344 383.441406 320 389.332031 320 C 395.222656 320 400 324.777344 400 330.667969 "/>
<path style=" stroke:none;fill-rule:nonzero;fill:rgb(100%,84.3%,0%);fill-opacity:1;" d="M 400 138.667969 C 400 144.558594 395.222656 149.332031 389.332031 149.332031 C 383.441406 149.332031 378.667969 144.558594 378.667969 138.667969 C 378.667969 132.777344 383.441406 128 389.332031 128 C 395.222656 128 400 132.777344 400 138.667969 "/>
<path style=" stroke:none;fill-rule:nonzero;fill:rgb(100%,84.3%,0%);fill-opacity:1;" d="M 400 373.332031 C 400 379.222656 395.222656 384 389.332031 384 C 383.441406 384 378.667969 379.222656 378.667969 373.332031 C 378.667969 367.441406 383.441406 362.667969 389.332031 362.667969 C 395.222656 362.667969 400 367.441406 400 373.332031 "/>
<path style=" stroke:none;fill-rule:nonzero;fill:rgb(100%,84.3%,0%);fill-opacity:1;" d="M 69.332031 405.332031 C 69.332031 411.222656 64.558594 416 58.667969 416 C 52.777344 416 48 411.222656 48 405.332031 C 48 399.441406 52.777344 394.667969 58.667969 394.667969 C 64.558594 394.667969 69.332031 399.441406 69.332031 405.332031 "/>
<path style=" stroke:none;fill-rule:nonzero;fill:rgb(100%,84.3%,0%);fill-opacity:1;" d="M 378.667969 448 C 378.667969 453.890625 373.890625 458.667969 368 458.667969 C 362.109375 458.667969 357.332031 453.890625 357.332031 448 C 357.332031 442.109375 362.109375 437.332031 368 437.332031 C 373.890625 437.332031 378.667969 442.109375 378.667969 448 "/>
<path style=" stroke:none;fill-rule:nonzero;fill:rgb(100%,84.3%,0%);fill-opacity:1;" d="M 69.332031 277.332031 C 69.332031 283.222656 64.558594 288 58.667969 288 C 52.777344 288 48 283.222656 48 277.332031 C 48 271.441406 52.777344 266.667969 58.667969 266.667969 C 64.558594 266.667969 69.332031 271.441406 69.332031 277.332031 "/>
<path style=" stroke:none;fill-rule:nonzero;fill:rgb(100%,84.3%,0%);fill-opacity:1;" d="M 272 448 C 272 453.890625 267.222656 458.667969 261.332031 458.667969 C 255.441406 458.667969 250.667969 453.890625 250.667969 448 C 250.667969 442.109375 255.441406 437.332031 261.332031 437.332031 C 267.222656 437.332031 272 442.109375 272 448 "/>
<path style=" stroke:none;fill-rule:nonzero;fill:rgb(100%,84.3%,0%);fill-opacity:1;" d="M 400 309.332031 C 400 315.222656 395.222656 320 389.332031 320 C 383.441406 320 378.667969 315.222656 378.667969 309.332031 C 378.667969 303.441406 383.441406 298.667969 389.332031 298.667969 C 395.222656 298.667969 400 303.441406 400 309.332031 "/>
<path style=" stroke:none;fill-rule:nonzero;fill:rgb(100%,84.3%,0%);fill-opacity:1;" d="M 144 448 C 144 453.890625 139.222656 458.667969 133.332031 458.667969 C 127.441406 458.667969 122.667969 453.890625 122.667969 448 C 122.667969 442.109375 127.441406 437.332031 133.332031 437.332031 C 139.222656 437.332031 144 442.109375 144 448 "/>
<path style=" stroke:none;fill-rule:nonzero;fill:rgb(100%,84.3%,0%);fill-opacity:1;" d="M 69.332031 320 C 69.332031 325.890625 64.558594 330.667969 58.667969 330.667969 C 52.777344 330.667969 48 325.890625 48 320 C 48 314.109375 52.777344 309.332031 58.667969 309.332031 C 64.558594 309.332031 69.332031 314.109375 69.332031 320 "/>
<path style=" stroke:none;fill-rule:nonzero;fill:rgb(100%,84.3%,0%);fill-opacity:1;" d="M 304 64 C 304 69.890625 299.222656 74.667969 293.332031 74.667969 C 287.441406 74.667969 282.667969 69.890625 282.667969 64 C 282.667969 58.109375 287.441406 53.332031 293.332031 53.332031 C 299.222656 53.332031 304 58.109375 304 64 "/>
<path style=" stroke:none;fill-rule:nonzero;fill:rgb(100%,84.3%,0%);fill-opacity:1;" d="M 400 117.332031 C 400 123.222656 395.222656 128 389.332031 128 C 383.441406 128 378.667969 123.222656 378.667969 117.332031 C 378.667969 111.441406 383.441406 106.667969 389.332031 106.667969 C 395.222656 106.667969 400 111.441406 400 117.332031 "/>
<path style=" stroke:none;fill-rule:nonzero;fill:rgb(100%,84.3%,0%);fill-opacity:1;" d="M 400 426.667969 C 400 432.558594 395.222656 437.332031 389.332031 437.332031 C 383.441406 437.332031 378.667969 432.558594 378.667969 426.667969 C 378.667969 420.777344 383.441406 416 389.332031 416 C 395.222656 416 400 420.777344 400 426.667969 "/>
<path style=" stroke:none;fill-rule:nonzero;fill:rgb(100%,84.3%,0%);fill-opacity:1;" d="M 69.332031 106.667969 C 69.332031 112.558594 64.558594 117.332031 58.667969 117.332031 C 52.777344 117.332031 48 112.558594 48 106.667969 C 48 100.777344 52.777344 96 58.667969 96 C 64.558594 96 69.332031 100.777344 69.332031 106.667969 "/>
</g>
</svg>
