<?xml version="1.0" encoding="UTF-8"?>
<svg xmlns="http://www.w3.org/2000/svg" xmlns:xlink="http://www.w3.org/1999/xlink" width="512pt" height="512pt" viewBox="0 0 512 512" version="1.1">
<g id="surface46">
<path style=" stroke:none;fill-rule:nonzero;fill:rgb(26.7%,26.7%,26.7%);fill-opacity:1;" d="M 0 -1707.886719 L 330.363281 -1707.886719 L 330.363281 512 L 0 512 Z M 0 -1707.886719 "/>
<path style=" stroke:none;fill-rule:nonzero;fill:rgb(19.2%,38.8%,66.7%);fill-opacity:1;" d="M 25.601562 42.667969 L 281.601562 42.667969 L 281.601562 469.332031 L 25.601562 469.332031 Z M 25.601562 42.667969 "/>
<path style=" stroke:none;fill-rule:nonzero;fill:rgb(100%,84.3%,0%);fill-opacity:1;" d="M 62.171875 67.046875 C 62.171875 73.78125 56.714844 79.238281 49.980469 79.238281 C 43.25 79.238281 37.789062 73.78125 37.789062 67.046875 C 37.789062 60.316406 43.25 54.859375 49.980469 54.859375 C 56.714844 54.859375 62.171875 60.316406 62.171875 67.046875 "/>
<path style=" stroke:none;fill-rule:nonzero;fill:rgb(100%,84.3%,0%);fill-opacity:1;" d="M 62.171875 407.28125 C 62.171875 414.011719 56.714844 419.46875 49.980469 419.46875 C 43.25 419.46875 37.789062 414.011719 37.789062 407.28125 C 37.789062 400.546875 43.25 395.089844 49.980469 395.089844 C 56.714844 395.089844 62.171875 400.546875 62.171875 407.28125 "/>
<path style=" stroke:none;fill-rule:nonzero;fill:rgb(100%,84.3%,0%);fill-opacity:1;" d="M 86.652344 67.046875 C 86.652344 73.78125 81.195312 79.238281 74.460938 79.238281 C 67.730469 79.238281 62.273438 73.78125 62.273438 67.046875 C 62.273438 60.316406 67.730469 54.859375 74.460938 54.859375 C 81.195312 54.859375 86.652344 60.316406 86.652344 67.046875 "/>
<path style=" stroke:none;fill-rule:nonzero;fill:rgb(100%,84.3%,0%);fill-opacity:1;" d="M 62.171875 91.460938 C 62.171875 98.195312 56.714844 103.652344 49.980469 103.652344 C 43.25 103.652344 37.789062 98.195312 37.789062 91.460938 C 37.789062 84.726562 43.25 79.269531 49.980469 79.269531 C 56.714844 79.269531 62.171875 84.726562 62.171875 91.460938 "/>
<path style=" stroke:none;fill-rule:nonzero;fill:rgb(100%,84.3%,0%);fill-opacity:1;" d="M 62.171875 382.128906 C 62.171875 388.859375 56.714844 394.316406 49.980469 394.316406 C 43.25 394.316406 37.789062 388.859375 37.789062 382.128906 C 37.789062 375.394531 43.25 369.9375 49.980469 369.9375 C 56.714844 369.9375 62.171875 375.394531 62.171875 382.128906 "/>
</g>
</svg>
