<?xml version="1.0" encoding="UTF-8"?>
<svg xmlns="http://www.w3.org/2000/svg" xmlns:xlink="http://www.w3.org/1999/xlink" width="512pt" height="512pt" viewBox="0 0 512 512" version="1.1">
<g id="surface66">
<rect x="0" y="0" width="512" height="512" style="fill:rgb(26.7%,26.7%,26.7%);fill-opacity:1;stroke:none;"/>
<path style=" stroke:none;fill-rule:nonzero;fill:rgb(19.2%,38.8%,66.7%);fill-opacity:1;" d="M 0 46.546875 L 89.289062 46.546875 L 89.289062 512 L 0 512 Z M 0 46.546875 "/>
<path style=" stroke:none;fill-rule:nonzero;fill:rgb(100%,100%,100%);fill-opacity:1;" d="M 164.109375 172.210938 C 164.109375 174.964844 159.972656 174.964844 159.972656 172.210938 C 159.972656 169.453125 164.109375 169.453125 164.109375 172.210938 "/>
<path style=" stroke:none;fill-rule:nonzero;fill:rgb(100%,100%,100%);fill-opacity:1;" d="M 289.773438 296.222656 C 289.773438 298.976562 285.636719 298.976562 285.636719 296.222656 C 285.636719 293.464844 289.773438 293.464844 289.773438 296.222656 "/>
<path style=" stroke:none;fill-rule:nonzero;fill:rgb(100%,100%,100%);fill-opacity:1;" d="M 439 383.855469 C 439 386.609375 434.863281 386.609375 434.863281 383.855469 C 434.863281 381.097656 439 381.097656 439 383.855469 "/>
<path style=" stroke:none;fill-rule:nonzero;fill:rgb(100%,100%,100%);fill-opacity:1;" d="M 371.207031 313.582031 C 371.207031 316.335938 367.070312 316.335938 367.070312 313.582031 C 367.070312 310.828125 371.207031 310.828125 371.207031 313.582031 "/>
<path style=" stroke:none;fill-rule:nonzero;fill:rgb(100%,100%,100%);fill-opacity:1;" d="M 135.171875 378.894531 C 135.171875 381.652344 131.039062 381.652344 131.039062 378.894531 C 131.039062 376.140625 135.171875 376.140625 135.171875 378.894531 "/>
<path style=" stroke:none;fill-rule:nonzero;fill:rgb(100%,100%,100%);fill-opacity:1;" d="M 164.109375 509.519531 C 164.109375 512.277344 159.972656 512.277344 159.972656 509.519531 C 159.972656 506.765625 164.109375 506.765625 164.109375 509.519531 "/>
<path style=" stroke:none;fill-rule:nonzero;fill:rgb(100%,100%,100%);fill-opacity:1;" d="M 394.769531 156.503906 C 394.769531 159.257812 390.632812 159.257812 390.632812 156.503906 C 390.632812 153.746094 394.769531 153.746094 394.769531 156.503906 "/>
<path style=" stroke:none;fill-rule:nonzero;fill:rgb(100%,100%,100%);fill-opacity:1;" d="M 334.003906 209.828125 C 334.003906 212.582031 329.871094 212.582031 329.871094 209.828125 C 329.871094 207.070312 334.003906 207.070312 334.003906 209.828125 "/>
<path style=" stroke:none;fill-rule:nonzero;fill:rgb(100%,84.3%,0%);fill-opacity:1;" d="M 87.222656 170.992188 C 87.222656 173.746094 83.085938 173.746094 83.085938 170.992188 C 83.085938 168.234375 87.222656 168.234375 87.222656 170.992188 "/>
<path style=" stroke:none;fill-rule:nonzero;fill:rgb(100%,84.3%,0%);fill-opacity:1;" d="M 87.222656 325.632812 C 87.222656 328.390625 83.085938 328.390625 83.085938 325.632812 C 83.085938 322.878906 87.222656 322.878906 87.222656 325.632812 "/>
<path style=" stroke:none;fill-rule:nonzero;fill:rgb(100%,84.3%,0%);fill-opacity:1;" d="M 87.222656 370.960938 C 87.222656 373.71875 83.085938 373.71875 83.085938 370.960938 C 83.085938 368.207031 87.222656 368.207031 87.222656 370.960938 "/>
<path style=" stroke:none;fill-rule:nonzero;fill:rgb(100%,84.3%,0%);fill-opacity:1;" d="M 87.222656 303.425781 C 87.222656 306.179688 83.085938 306.179688 83.085938 303.425781 C 83.085938 300.667969 87.222656 300.667969 87.222656 303.425781 "/>
<path style=" stroke:none;fill-rule:nonzero;fill:rgb(100%,84.3%,0%);fill-opacity:1;" d="M 87.222656 379.632812 C 87.222656 382.386719 83.085938 382.386719 83.085938 379.632812 C 83.085938 376.875 87.222656 376.875 87.222656 379.632812 "/>
<path style=" stroke:none;fill-rule:nonzero;fill:rgb(100%,84.3%,0%);fill-opacity:1;" d="M 87.222656 416.429688 C 87.222656 419.1875 83.085938 419.1875 83.085938 416.429688 C 83.085938 413.675781 87.222656 413.675781 87.222656 416.429688 "/>
<path style=" stroke:none;fill-rule:nonzero;fill:rgb(100%,84.3%,0%);fill-opacity:1;" d="M 87.222656 476.535156 C 87.222656 479.289062 83.085938 479.289062 83.085938 476.535156 C 83.085938 473.777344 87.222656 473.777344 87.222656 476.535156 "/>
<path style=" stroke:none;fill-rule:nonzero;fill:rgb(100%,84.3%,0%);fill-opacity:1;" d="M 87.222656 436.730469 C 87.222656 439.484375 83.085938 439.484375 83.085938 436.730469 C 83.085938 433.972656 87.222656 433.972656 87.222656 436.730469 "/>
<path style=" stroke:none;fill-rule:nonzero;fill:rgb(100%,84.3%,0%);fill-opacity:1;" d="M 87.222656 400.609375 C 87.222656 403.363281 83.085938 403.363281 83.085938 400.609375 C 83.085938 397.851562 87.222656 397.851562 87.222656 400.609375 "/>
<path style=" stroke:none;fill-rule:nonzero;fill:rgb(100%,84.3%,0%);fill-opacity:1;" d="M 87.222656 452.707031 C 87.222656 455.464844 83.085938 455.464844 83.085938 452.707031 C 83.085938 449.953125 87.222656 449.953125 87.222656 452.707031 "/>
<path style=" stroke:none;fill-rule:nonzero;fill:rgb(100%,84.3%,0%);fill-opacity:1;" d="M 87.222656 314.105469 C 87.222656 316.859375 83.085938 316.859375 83.085938 314.105469 C 83.085938 311.347656 87.222656 311.347656 87.222656 314.105469 "/>
<path style=" stroke:none;fill-rule:nonzero;fill:rgb(100%,84.3%,0%);fill-opacity:1;" d="M 87.222656 355.035156 C 87.222656 357.789062 83.085938 357.789062 83.085938 355.035156 C 83.085938 352.277344 87.222656 352.277344 87.222656 355.035156 "/>
<path style=" stroke:none;fill-rule:nonzero;fill:rgb(100%,84.3%,0%);fill-opacity:1;" d="M 87.222656 375.367188 C 87.222656 378.121094 83.085938 378.121094 83.085938 375.367188 C 83.085938 372.609375 87.222656 372.609375 87.222656 375.367188 "/>
<path style=" stroke:none;fill-rule:nonzero;fill:rgb(100%,84.3%,0%);fill-opacity:1;" d="M 87.222656 318.84375 C 87.222656 321.597656 83.085938 321.597656 83.085938 318.84375 C 83.085938 316.085938 87.222656 316.085938 87.222656 318.84375 "/>
<path style=" stroke:none;fill-rule:nonzero;fill:rgb(100%,84.3%,0%);fill-opacity:1;" d="M 87.222656 289.554688 C 87.222656 292.308594 83.085938 292.308594 83.085938 289.554688 C 83.085938 286.796875 87.222656 286.796875 87.222656 289.554688 "/>
<path style=" stroke:none;fill-rule:nonzero;fill:rgb(100%,84.3%,0%);fill-opacity:1;" d="M 87.222656 422.222656 C 87.222656 424.976562 83.085938 424.976562 83.085938 422.222656 C 83.085938 419.464844 87.222656 419.464844 87.222656 422.222656 "/>
<path style=" stroke:none;fill-rule:nonzero;fill:rgb(100%,84.3%,0%);fill-opacity:1;" d="M 87.222656 309.085938 C 87.222656 311.839844 83.085938 311.839844 83.085938 309.085938 C 83.085938 306.328125 87.222656 306.328125 87.222656 309.085938 "/>
<path style=" stroke:none;fill-rule:nonzero;fill:rgb(100%,84.3%,0%);fill-opacity:1;" d="M 87.222656 388.472656 C 87.222656 391.230469 83.085938 391.230469 83.085938 388.472656 C 83.085938 385.71875 87.222656 385.71875 87.222656 388.472656 "/>
<path style=" stroke:none;fill-rule:nonzero;fill:rgb(100%,84.3%,0%);fill-opacity:1;" d="M 87.222656 350.6875 C 87.222656 353.445312 83.085938 353.445312 83.085938 350.6875 C 83.085938 347.933594 87.222656 347.933594 87.222656 350.6875 "/>
<path style=" stroke:none;fill-rule:nonzero;fill:rgb(100%,84.3%,0%);fill-opacity:1;" d="M 87.222656 359.527344 C 87.222656 362.28125 83.085938 362.28125 83.085938 359.527344 C 83.085938 356.769531 87.222656 356.769531 87.222656 359.527344 "/>
<path style=" stroke:none;fill-rule:nonzero;fill:rgb(100%,84.3%,0%);fill-opacity:1;" d="M 87.222656 444.59375 C 87.222656 447.347656 83.085938 447.347656 83.085938 444.59375 C 83.085938 441.835938 87.222656 441.835938 87.222656 444.59375 "/>
<path style=" stroke:none;fill-rule:nonzero;fill:rgb(100%,84.3%,0%);fill-opacity:1;" d="M 87.222656 296.394531 C 87.222656 299.152344 83.085938 299.152344 83.085938 296.394531 C 83.085938 293.640625 87.222656 293.640625 87.222656 296.394531 "/>
<path style=" stroke:none;fill-rule:nonzero;fill:rgb(100%,84.3%,0%);fill-opacity:1;" d="M 87.222656 346.519531 C 87.222656 349.273438 83.085938 349.273438 83.085938 346.519531 C 83.085938 343.761719 87.222656 343.761719 87.222656 346.519531 "/>
<path style=" stroke:none;fill-rule:nonzero;fill:rgb(100%,84.3%,0%);fill-opacity:1;" d="M 87.222656 393.378906 C 87.222656 396.136719 83.085938 396.136719 83.085938 393.378906 C 83.085938 390.625 87.222656 390.625 87.222656 393.378906 "/>
<path style=" stroke:none;fill-rule:nonzero;fill:rgb(100%,84.3%,0%);fill-opacity:1;" d="M 87.222656 175.871094 C 87.222656 178.628906 83.085938 178.628906 83.085938 175.871094 C 83.085938 173.117188 87.222656 173.117188 87.222656 175.871094 "/>
<path style=" stroke:none;fill-rule:nonzero;fill:rgb(100%,84.3%,0%);fill-opacity:1;" d="M 87.222656 180.351562 C 87.222656 183.105469 83.085938 183.105469 83.085938 180.351562 C 83.085938 177.59375 87.222656 177.59375 87.222656 180.351562 "/>
<path style=" stroke:none;fill-rule:nonzero;fill:rgb(100%,84.3%,0%);fill-opacity:1;" d="M 87.222656 467.5625 C 87.222656 470.320312 83.085938 470.320312 83.085938 467.5625 C 83.085938 464.808594 87.222656 464.808594 87.222656 467.5625 "/>
<path style=" stroke:none;fill-rule:nonzero;fill:rgb(100%,84.3%,0%);fill-opacity:1;" d="M 87.222656 411.273438 C 87.222656 414.027344 83.085938 414.027344 83.085938 411.273438 C 83.085938 408.515625 87.222656 408.515625 87.222656 411.273438 "/>
<path style=" stroke:none;fill-rule:nonzero;fill:rgb(100%,84.3%,0%);fill-opacity:1;" d="M 87.222656 364.695312 C 87.222656 367.453125 83.085938 367.453125 83.085938 364.695312 C 83.085938 361.941406 87.222656 361.941406 87.222656 364.695312 "/>
<path style=" stroke:none;fill-rule:nonzero;fill:rgb(100%,84.3%,0%);fill-opacity:1;" d="M 87.222656 384.066406 C 87.222656 386.820312 83.085938 386.820312 83.085938 384.066406 C 83.085938 381.308594 87.222656 381.308594 87.222656 384.066406 "/>
<path style=" stroke:none;fill-rule:nonzero;fill:rgb(100%,84.3%,0%);fill-opacity:1;" d="M 87.222656 337.867188 C 87.222656 340.625 83.085938 340.625 83.085938 337.867188 C 83.085938 335.113281 87.222656 335.113281 87.222656 337.867188 "/>
<path style=" stroke:none;fill-rule:nonzero;fill:rgb(100%,84.3%,0%);fill-opacity:1;" d="M 87.222656 429.425781 C 87.222656 432.179688 83.085938 432.179688 83.085938 429.425781 C 83.085938 426.667969 87.222656 426.667969 87.222656 429.425781 "/>
<path style=" stroke:none;fill-rule:nonzero;fill:rgb(100%,84.3%,0%);fill-opacity:1;" d="M 87.222656 278.527344 C 87.222656 281.285156 83.085938 281.285156 83.085938 278.527344 C 83.085938 275.773438 87.222656 275.773438 87.222656 278.527344 "/>
<path style=" stroke:none;fill-rule:nonzero;fill:rgb(100%,84.3%,0%);fill-opacity:1;" d="M 87.222656 460.257812 C 87.222656 463.015625 83.085938 463.015625 83.085938 460.257812 C 83.085938 457.503906 87.222656 457.503906 87.222656 460.257812 "/>
<path style=" stroke:none;fill-rule:nonzero;fill:rgb(100%,84.3%,0%);fill-opacity:1;" d="M 87.222656 284.816406 C 87.222656 287.570312 83.085938 287.570312 83.085938 284.816406 C 83.085938 282.058594 87.222656 282.058594 87.222656 284.816406 "/>
<path style=" stroke:none;fill-rule:nonzero;fill:rgb(100%,84.3%,0%);fill-opacity:1;" d="M 87.222656 330.925781 C 87.222656 333.679688 83.085938 333.679688 83.085938 330.925781 C 83.085938 328.167969 87.222656 328.167969 87.222656 330.925781 "/>
<path style=" stroke:none;fill-rule:nonzero;fill:rgb(100%,84.3%,0%);fill-opacity:1;" d="M 87.222656 483.839844 C 87.222656 486.59375 83.085938 486.59375 83.085938 483.839844 C 83.085938 481.082031 87.222656 481.082031 87.222656 483.839844 "/>
<path style=" stroke:none;fill-rule:nonzero;fill:rgb(100%,84.3%,0%);fill-opacity:1;" d="M 87.222656 406.1875 C 87.222656 408.941406 83.085938 408.941406 83.085938 406.1875 C 83.085938 403.429688 87.222656 403.429688 87.222656 406.1875 "/>
</g>
</svg>
