<?xml version="1.0" encoding="UTF-8"?>
<svg xmlns="http://www.w3.org/2000/svg" xmlns:xlink="http://www.w3.org/1999/xlink" width="512pt" height="512pt" viewBox="0 0 512 512" version="1.1">
<g id="surface71">
<rect x="0" y="0" width="512" height="512" style="fill:rgb(26.7%,26.7%,26.7%);fill-opacity:1;stroke:none;"/>
<path style=" stroke:none;fill-rule:nonzero;fill:rgb(19.2%,38.8%,66.7%);fill-opacity:1;" d="M 0 280.574219 L 465.453125 280.574219 L 465.453125 512 L 0 512 Z M 0 280.574219 "/>
<path style=" stroke:none;fill-rule:nonzero;fill:rgb(100%,100%,100%);fill-opacity:1;" d="M 465.164062 63.015625 C 465.164062 64.941406 462.277344 64.941406 462.277344 63.015625 C 462.277344 61.085938 465.164062 61.085938 465.164062 63.015625 "/>
<path style=" stroke:none;fill-rule:nonzero;fill:rgb(100%,100%,100%);fill-opacity:1;" d="M 118.746094 36.722656 C 118.746094 38.648438 115.859375 38.648438 115.859375 36.722656 C 115.859375 34.796875 118.746094 34.796875 118.746094 36.722656 "/>
<path style=" stroke:none;fill-rule:nonzero;fill:rgb(100%,100%,100%);fill-opacity:1;" d="M 178.84375 237.8125 C 178.84375 239.738281 175.953125 239.738281 175.953125 237.8125 C 175.953125 235.886719 178.84375 235.886719 178.84375 237.8125 "/>
<path style=" stroke:none;fill-rule:nonzero;fill:rgb(100%,100%,100%);fill-opacity:1;" d="M 313.769531 55.214844 C 313.769531 57.140625 310.878906 57.140625 310.878906 55.214844 C 310.878906 53.285156 313.769531 53.285156 313.769531 55.214844 "/>
<path style=" stroke:none;fill-rule:nonzero;fill:rgb(100%,100%,100%);fill-opacity:1;" d="M 436.5625 127.15625 C 436.5625 129.082031 433.671875 129.082031 433.671875 127.15625 C 433.671875 125.230469 436.5625 125.230469 436.5625 127.15625 "/>
<path style=" stroke:none;fill-rule:nonzero;fill:rgb(100%,100%,100%);fill-opacity:1;" d="M 334.285156 50.589844 C 334.285156 52.515625 331.394531 52.515625 331.394531 50.589844 C 331.394531 48.664062 334.285156 48.664062 334.285156 50.589844 "/>
<path style=" stroke:none;fill-rule:nonzero;fill:rgb(100%,100%,100%);fill-opacity:1;" d="M 28.894531 231.167969 C 28.894531 233.09375 26.003906 233.09375 26.003906 231.167969 C 26.003906 229.242188 28.894531 229.242188 28.894531 231.167969 "/>
<path style=" stroke:none;fill-rule:nonzero;fill:rgb(100%,100%,100%);fill-opacity:1;" d="M 457.363281 238.390625 C 457.363281 240.316406 454.476562 240.316406 454.476562 238.390625 C 454.476562 236.464844 457.363281 236.464844 457.363281 238.390625 "/>
<path style=" stroke:none;fill-rule:nonzero;fill:rgb(100%,100%,100%);fill-opacity:1;" d="M 492.035156 402.785156 C 492.035156 404.714844 489.144531 404.714844 489.144531 402.785156 C 489.144531 400.859375 492.035156 400.859375 492.035156 402.785156 "/>
<path style=" stroke:none;fill-rule:nonzero;fill:rgb(100%,100%,100%);fill-opacity:1;" d="M 372.710938 128.023438 C 372.710938 129.949219 369.820312 129.949219 369.820312 128.023438 C 369.820312 126.097656 372.710938 126.097656 372.710938 128.023438 "/>
<path style=" stroke:none;fill-rule:nonzero;fill:rgb(100%,100%,100%);fill-opacity:1;" d="M 303.945312 185.804688 C 303.945312 187.730469 301.058594 187.730469 301.058594 185.804688 C 301.058594 183.878906 303.945312 183.878906 303.945312 185.804688 "/>
<path style=" stroke:none;fill-rule:nonzero;fill:rgb(100%,100%,100%);fill-opacity:1;" d="M 407.667969 272.195312 C 407.667969 274.121094 404.78125 274.121094 404.78125 272.195312 C 404.78125 270.269531 407.667969 270.269531 407.667969 272.195312 "/>
<path style=" stroke:none;fill-rule:nonzero;fill:rgb(100%,100%,100%);fill-opacity:1;" d="M 255.695312 151.425781 C 255.695312 153.351562 252.808594 153.351562 252.808594 151.425781 C 252.808594 149.496094 255.695312 149.496094 255.695312 151.425781 "/>
<path style=" stroke:none;fill-rule:nonzero;fill:rgb(100%,100%,100%);fill-opacity:1;" d="M 387.445312 113.863281 C 387.445312 115.789062 384.554688 115.789062 384.554688 113.863281 C 384.554688 111.9375 387.445312 111.9375 387.445312 113.863281 "/>
<path style=" stroke:none;fill-rule:nonzero;fill:rgb(100%,100%,100%);fill-opacity:1;" d="M 469.789062 219.898438 C 469.789062 221.824219 466.898438 221.824219 466.898438 219.898438 C 466.898438 217.972656 469.789062 217.972656 469.789062 219.898438 "/>
<path style=" stroke:none;fill-rule:nonzero;fill:rgb(100%,100%,100%);fill-opacity:1;" d="M 404.78125 12.453125 C 404.78125 14.378906 401.890625 14.378906 401.890625 12.453125 C 401.890625 10.527344 404.78125 10.527344 404.78125 12.453125 "/>
<path style=" stroke:none;fill-rule:nonzero;fill:rgb(100%,100%,100%);fill-opacity:1;" d="M 205.421875 214.121094 C 205.421875 216.046875 202.535156 216.046875 202.535156 214.121094 C 202.535156 212.195312 205.421875 212.195312 205.421875 214.121094 "/>
<path style=" stroke:none;fill-rule:nonzero;fill:rgb(100%,100%,100%);fill-opacity:1;" d="M 161.507812 129.464844 C 161.507812 131.390625 158.617188 131.390625 158.617188 129.464844 C 158.617188 127.539062 161.507812 127.539062 161.507812 129.464844 "/>
<path style=" stroke:none;fill-rule:nonzero;fill:rgb(100%,100%,100%);fill-opacity:1;" d="M 43.628906 8.40625 C 43.628906 10.335938 40.738281 10.335938 40.738281 8.40625 C 40.738281 6.480469 43.628906 6.480469 43.628906 8.40625 "/>
<path style=" stroke:none;fill-rule:nonzero;fill:rgb(100%,100%,100%);fill-opacity:1;" d="M 505.613281 461.148438 C 505.613281 463.074219 502.726562 463.074219 502.726562 461.148438 C 502.726562 459.222656 505.613281 459.222656 505.613281 461.148438 "/>
<path style=" stroke:none;fill-rule:nonzero;fill:rgb(100%,100%,100%);fill-opacity:1;" d="M 91.589844 42.789062 C 91.589844 44.714844 88.699219 44.714844 88.699219 42.789062 C 88.699219 40.863281 91.589844 40.863281 91.589844 42.789062 "/>
<path style=" stroke:none;fill-rule:nonzero;fill:rgb(100%,100%,100%);fill-opacity:1;" d="M 26.003906 39.898438 C 26.003906 41.824219 23.113281 41.824219 23.113281 39.898438 C 23.113281 37.972656 26.003906 37.972656 26.003906 39.898438 "/>
<path style=" stroke:none;fill-rule:nonzero;fill:rgb(100%,100%,100%);fill-opacity:1;" d="M 29.46875 21.988281 C 29.46875 23.914062 26.582031 23.914062 26.582031 21.988281 C 26.582031 20.0625 29.46875 20.0625 29.46875 21.988281 "/>
<path style=" stroke:none;fill-rule:nonzero;fill:rgb(100%,100%,100%);fill-opacity:1;" d="M 388.023438 100.285156 C 388.023438 102.210938 385.132812 102.210938 385.132812 100.285156 C 385.132812 98.359375 388.023438 98.359375 388.023438 100.285156 "/>
<path style=" stroke:none;fill-rule:nonzero;fill:rgb(100%,100%,100%);fill-opacity:1;" d="M 470.945312 396.140625 C 470.945312 398.066406 468.054688 398.066406 468.054688 396.140625 C 468.054688 394.214844 470.945312 394.214844 470.945312 396.140625 "/>
<path style=" stroke:none;fill-rule:nonzero;fill:rgb(100%,100%,100%);fill-opacity:1;" d="M 197.625 4.363281 C 197.625 6.289062 194.734375 6.289062 194.734375 4.363281 C 194.734375 2.4375 197.625 2.4375 197.625 4.363281 "/>
<path style=" stroke:none;fill-rule:nonzero;fill:rgb(100%,100%,100%);fill-opacity:1;" d="M 502.726562 397.585938 C 502.726562 399.511719 499.835938 399.511719 499.835938 397.585938 C 499.835938 395.660156 502.726562 395.660156 502.726562 397.585938 "/>
<path style=" stroke:none;fill-rule:nonzero;fill:rgb(100%,100%,100%);fill-opacity:1;" d="M 281.121094 185.804688 C 281.121094 187.730469 278.230469 187.730469 278.230469 185.804688 C 278.230469 183.878906 281.121094 183.878906 281.121094 185.804688 "/>
<path style=" stroke:none;fill-rule:nonzero;fill:rgb(100%,100%,100%);fill-opacity:1;" d="M 95.054688 188.40625 C 95.054688 190.332031 92.167969 190.332031 92.167969 188.40625 C 92.167969 186.480469 95.054688 186.480469 95.054688 188.40625 "/>
<path style=" stroke:none;fill-rule:nonzero;fill:rgb(100%,100%,100%);fill-opacity:1;" d="M 396.113281 152.289062 C 396.113281 154.21875 393.222656 154.21875 393.222656 152.289062 C 393.222656 150.363281 396.113281 150.363281 396.113281 152.289062 "/>
<path style=" stroke:none;fill-rule:nonzero;fill:rgb(100%,84.3%,0%);fill-opacity:1;" d="M 464.007812 378.554688 C 464.007812 380.480469 461.121094 380.480469 461.121094 378.554688 C 461.121094 376.628906 464.007812 376.628906 464.007812 378.554688 "/>
<path style=" stroke:none;fill-rule:nonzero;fill:rgb(100%,84.3%,0%);fill-opacity:1;" d="M 407.738281 283.460938 C 407.738281 285.386719 404.847656 285.386719 404.847656 283.460938 C 404.847656 281.535156 407.738281 281.535156 407.738281 283.460938 "/>
<path style=" stroke:none;fill-rule:nonzero;fill:rgb(100%,84.3%,0%);fill-opacity:1;" d="M 442.664062 283.460938 C 442.664062 285.386719 439.773438 285.386719 439.773438 283.460938 C 439.773438 281.535156 442.664062 281.535156 442.664062 283.460938 "/>
<path style=" stroke:none;fill-rule:nonzero;fill:rgb(100%,84.3%,0%);fill-opacity:1;" d="M 448.691406 283.460938 C 448.691406 285.386719 445.804688 285.386719 445.804688 283.460938 C 445.804688 281.535156 448.691406 281.535156 448.691406 283.460938 "/>
<path style=" stroke:none;fill-rule:nonzero;fill:rgb(100%,84.3%,0%);fill-opacity:1;" d="M 400.957031 283.460938 C 400.957031 285.386719 398.066406 285.386719 398.066406 283.460938 C 398.066406 281.535156 400.957031 281.535156 400.957031 283.460938 "/>
<path style=" stroke:none;fill-rule:nonzero;fill:rgb(100%,84.3%,0%);fill-opacity:1;" d="M 392.324219 283.460938 C 392.324219 285.386719 389.433594 285.386719 389.433594 283.460938 C 389.433594 281.535156 392.324219 281.535156 392.324219 283.460938 "/>
<path style=" stroke:none;fill-rule:nonzero;fill:rgb(100%,84.3%,0%);fill-opacity:1;" d="M 384.773438 283.460938 C 384.773438 285.386719 381.882812 285.386719 381.882812 283.460938 C 381.882812 281.535156 384.773438 281.535156 384.773438 283.460938 "/>
<path style=" stroke:none;fill-rule:nonzero;fill:rgb(100%,84.3%,0%);fill-opacity:1;" d="M 464.007812 286.460938 C 464.007812 288.386719 461.121094 288.386719 461.121094 286.460938 C 461.121094 284.535156 464.007812 284.535156 464.007812 286.460938 "/>
<path style=" stroke:none;fill-rule:nonzero;fill:rgb(100%,84.3%,0%);fill-opacity:1;" d="M 464.007812 393.117188 C 464.007812 395.042969 461.121094 395.042969 461.121094 393.117188 C 461.121094 391.191406 464.007812 391.191406 464.007812 393.117188 "/>
<path style=" stroke:none;fill-rule:nonzero;fill:rgb(100%,84.3%,0%);fill-opacity:1;" d="M 437.582031 283.460938 C 437.582031 285.386719 434.695312 285.386719 434.695312 283.460938 C 434.695312 281.535156 437.582031 281.535156 437.582031 283.460938 "/>
<path style=" stroke:none;fill-rule:nonzero;fill:rgb(100%,84.3%,0%);fill-opacity:1;" d="M 418.324219 283.460938 C 418.324219 285.386719 415.433594 285.386719 415.433594 283.460938 C 415.433594 281.535156 418.324219 281.535156 418.324219 283.460938 "/>
<path style=" stroke:none;fill-rule:nonzero;fill:rgb(100%,84.3%,0%);fill-opacity:1;" d="M 464.007812 283.460938 C 464.007812 285.386719 461.121094 285.386719 461.121094 283.460938 C 461.121094 281.535156 464.007812 281.535156 464.007812 283.460938 "/>
<path style=" stroke:none;fill-rule:nonzero;fill:rgb(100%,84.3%,0%);fill-opacity:1;" d="M 404.417969 283.460938 C 404.417969 285.386719 401.527344 285.386719 401.527344 283.460938 C 401.527344 281.535156 404.417969 281.535156 404.417969 283.460938 "/>
<path style=" stroke:none;fill-rule:nonzero;fill:rgb(100%,84.3%,0%);fill-opacity:1;" d="M 413.867188 283.460938 C 413.867188 285.386719 410.976562 285.386719 410.976562 283.460938 C 410.976562 281.535156 413.867188 281.535156 413.867188 283.460938 "/>
<path style=" stroke:none;fill-rule:nonzero;fill:rgb(100%,84.3%,0%);fill-opacity:1;" d="M 464.007812 390.109375 C 464.007812 392.035156 461.121094 392.035156 461.121094 390.109375 C 461.121094 388.183594 464.007812 388.183594 464.007812 390.109375 "/>
<path style=" stroke:none;fill-rule:nonzero;fill:rgb(100%,84.3%,0%);fill-opacity:1;" d="M 422.648438 283.460938 C 422.648438 285.386719 419.757812 285.386719 419.757812 283.460938 C 419.757812 281.535156 422.648438 281.535156 422.648438 283.460938 "/>
<path style=" stroke:none;fill-rule:nonzero;fill:rgb(100%,84.3%,0%);fill-opacity:1;" d="M 464.007812 385.347656 C 464.007812 387.273438 461.121094 387.273438 461.121094 385.347656 C 461.121094 383.421875 464.007812 383.421875 464.007812 385.347656 "/>
<path style=" stroke:none;fill-rule:nonzero;fill:rgb(100%,84.3%,0%);fill-opacity:1;" d="M 464.007812 402.703125 C 464.007812 404.628906 461.121094 404.628906 461.121094 402.703125 C 461.121094 400.777344 464.007812 400.777344 464.007812 402.703125 "/>
<path style=" stroke:none;fill-rule:nonzero;fill:rgb(100%,84.3%,0%);fill-opacity:1;" d="M 427.246094 283.460938 C 427.246094 285.386719 424.355469 285.386719 424.355469 283.460938 C 424.355469 281.535156 427.246094 281.535156 427.246094 283.460938 "/>
<path style=" stroke:none;fill-rule:nonzero;fill:rgb(100%,84.3%,0%);fill-opacity:1;" d="M 464.007812 371.679688 C 464.007812 373.605469 461.121094 373.605469 461.121094 371.679688 C 461.121094 369.753906 464.007812 369.753906 464.007812 371.679688 "/>
<path style=" stroke:none;fill-rule:nonzero;fill:rgb(100%,84.3%,0%);fill-opacity:1;" d="M 460.820312 283.460938 C 460.820312 285.386719 457.929688 285.386719 457.929688 283.460938 C 457.929688 281.535156 460.820312 281.535156 460.820312 283.460938 "/>
<path style=" stroke:none;fill-rule:nonzero;fill:rgb(100%,84.3%,0%);fill-opacity:1;" d="M 464.007812 358.777344 C 464.007812 360.703125 461.121094 360.703125 461.121094 358.777344 C 461.121094 356.851562 464.007812 356.851562 464.007812 358.777344 "/>
<path style=" stroke:none;fill-rule:nonzero;fill:rgb(100%,84.3%,0%);fill-opacity:1;" d="M 464.007812 406.058594 C 464.007812 407.984375 461.121094 407.984375 461.121094 406.058594 C 461.121094 404.132812 464.007812 404.132812 464.007812 406.058594 "/>
<path style=" stroke:none;fill-rule:nonzero;fill:rgb(100%,84.3%,0%);fill-opacity:1;" d="M 464.007812 396.164062 C 464.007812 398.089844 461.121094 398.089844 461.121094 396.164062 C 461.121094 394.238281 464.007812 394.238281 464.007812 396.164062 "/>
<path style=" stroke:none;fill-rule:nonzero;fill:rgb(100%,84.3%,0%);fill-opacity:1;" d="M 464.007812 399.488281 C 464.007812 401.414062 461.121094 401.414062 461.121094 399.488281 C 461.121094 397.5625 464.007812 397.5625 464.007812 399.488281 "/>
<path style=" stroke:none;fill-rule:nonzero;fill:rgb(100%,84.3%,0%);fill-opacity:1;" d="M 464.007812 374.769531 C 464.007812 376.695312 461.121094 376.695312 461.121094 374.769531 C 461.121094 372.84375 464.007812 372.84375 464.007812 374.769531 "/>
<path style=" stroke:none;fill-rule:nonzero;fill:rgb(100%,84.3%,0%);fill-opacity:1;" d="M 464.007812 433.351562 C 464.007812 435.277344 461.121094 435.277344 461.121094 433.351562 C 461.121094 431.425781 464.007812 431.425781 464.007812 433.351562 "/>
<path style=" stroke:none;fill-rule:nonzero;fill:rgb(100%,84.3%,0%);fill-opacity:1;" d="M 397.484375 283.460938 C 397.484375 285.386719 394.597656 285.386719 394.597656 283.460938 C 394.597656 281.535156 397.484375 281.535156 397.484375 283.460938 "/>
<path style=" stroke:none;fill-rule:nonzero;fill:rgb(100%,84.3%,0%);fill-opacity:1;" d="M 464.007812 408.972656 C 464.007812 410.898438 461.121094 410.898438 461.121094 408.972656 C 461.121094 407.046875 464.007812 407.046875 464.007812 408.972656 "/>
<path style=" stroke:none;fill-rule:nonzero;fill:rgb(100%,84.3%,0%);fill-opacity:1;" d="M 410.695312 283.460938 C 410.695312 285.386719 407.808594 285.386719 407.808594 283.460938 C 407.808594 281.535156 410.695312 281.535156 410.695312 283.460938 "/>
<path style=" stroke:none;fill-rule:nonzero;fill:rgb(100%,84.3%,0%);fill-opacity:1;" d="M 451.941406 283.460938 C 451.941406 285.386719 449.050781 285.386719 449.050781 283.460938 C 449.050781 281.535156 451.941406 281.535156 451.941406 283.460938 "/>
<path style=" stroke:none;fill-rule:nonzero;fill:rgb(100%,84.3%,0%);fill-opacity:1;" d="M 464.007812 382.222656 C 464.007812 384.148438 461.121094 384.148438 461.121094 382.222656 C 461.121094 380.296875 464.007812 380.296875 464.007812 382.222656 "/>
<path style=" stroke:none;fill-rule:nonzero;fill:rgb(100%,84.3%,0%);fill-opacity:1;" d="M 464.007812 412.671875 C 464.007812 414.597656 461.121094 414.597656 461.121094 412.671875 C 461.121094 410.746094 464.007812 410.746094 464.007812 412.671875 "/>
<path style=" stroke:none;fill-rule:nonzero;fill:rgb(100%,84.3%,0%);fill-opacity:1;" d="M 464.007812 422.128906 C 464.007812 424.054688 461.121094 424.054688 461.121094 422.128906 C 461.121094 420.199219 464.007812 420.199219 464.007812 422.128906 "/>
<path style=" stroke:none;fill-rule:nonzero;fill:rgb(100%,84.3%,0%);fill-opacity:1;" d="M 455.15625 283.460938 C 455.15625 285.386719 452.265625 285.386719 452.265625 283.460938 C 452.265625 281.535156 455.15625 281.535156 455.15625 283.460938 "/>
<path style=" stroke:none;fill-rule:nonzero;fill:rgb(100%,84.3%,0%);fill-opacity:1;" d="M 464.007812 367.5625 C 464.007812 369.488281 461.121094 369.488281 461.121094 367.5625 C 461.121094 365.636719 464.007812 365.636719 464.007812 367.5625 "/>
<path style=" stroke:none;fill-rule:nonzero;fill:rgb(100%,84.3%,0%);fill-opacity:1;" d="M 464.007812 417.019531 C 464.007812 418.945312 461.121094 418.945312 461.121094 417.019531 C 461.121094 415.09375 464.007812 415.09375 464.007812 417.019531 "/>
<path style=" stroke:none;fill-rule:nonzero;fill:rgb(100%,84.3%,0%);fill-opacity:1;" d="M 433.34375 283.460938 C 433.34375 285.386719 430.453125 285.386719 430.453125 283.460938 C 430.453125 281.535156 433.34375 281.535156 433.34375 283.460938 "/>
<path style=" stroke:none;fill-rule:nonzero;fill:rgb(100%,84.3%,0%);fill-opacity:1;" d="M 464.007812 427.363281 C 464.007812 429.289062 461.121094 429.289062 461.121094 427.363281 C 461.121094 425.4375 464.007812 425.4375 464.007812 427.363281 "/>
<path style=" stroke:none;fill-rule:nonzero;fill:rgb(100%,84.3%,0%);fill-opacity:1;" d="M 388.390625 283.460938 C 388.390625 285.386719 385.5 285.386719 385.5 283.460938 C 385.5 281.535156 388.390625 281.535156 388.390625 283.460938 "/>
</g>
</svg>
