<?xml version="1.0" encoding="UTF-8"?>
<svg xmlns="http://www.w3.org/2000/svg" xmlns:xlink="http://www.w3.org/1999/xlink" width="512pt" height="512pt" viewBox="0 0 512 512" version="1.1">
<g id="surface81">
<path style=" stroke:none;fill-rule:nonzero;fill:rgb(26.7%,26.7%,26.7%);fill-opacity:1;" d="M 0 62.160156 L 512 62.160156 L 512 449.839844 L 0 449.839844 Z M 0 62.160156 "/>
<path style=" stroke:none;fill-rule:nonzero;fill:rgb(19.2%,38.8%,66.7%);fill-opacity:1;" d="M 0 97.402344 L 465.453125 97.402344 L 465.453125 449.839844 L 0 449.839844 Z M 0 97.402344 "/>
<path style=" stroke:none;fill-rule:nonzero;fill:rgb(100%,100%,100%);fill-opacity:1;" d="M 374 30.484375 C 374 35.441406 366.5625 35.441406 366.5625 30.484375 C 366.5625 25.527344 374 25.527344 374 30.484375 "/>
<path style=" stroke:none;fill-rule:nonzero;fill:rgb(100%,100%,100%);fill-opacity:1;" d="M 479.582031 247.597656 C 479.582031 252.554688 472.144531 252.554688 472.144531 247.597656 C 472.144531 242.640625 479.582031 242.640625 479.582031 247.597656 "/>
<path style=" stroke:none;fill-rule:nonzero;fill:rgb(100%,100%,100%);fill-opacity:1;" d="M 17.101562 26.765625 C 17.101562 31.722656 9.667969 31.722656 9.667969 26.765625 C 9.667969 21.808594 17.101562 21.808594 17.101562 26.765625 "/>
<path style=" stroke:none;fill-rule:nonzero;fill:rgb(100%,100%,100%);fill-opacity:1;" d="M 361.359375 58.738281 C 361.359375 63.695312 353.925781 63.695312 353.925781 58.738281 C 353.925781 53.78125 361.359375 53.78125 361.359375 58.738281 "/>
<path style=" stroke:none;fill-rule:nonzero;fill:rgb(100%,84.3%,0%);fill-opacity:1;" d="M 444.375 104.839844 C 444.375 109.796875 436.941406 109.796875 436.941406 104.839844 C 436.941406 99.882812 444.375 99.882812 444.375 104.839844 "/>
<path style=" stroke:none;fill-rule:nonzero;fill:rgb(100%,84.3%,0%);fill-opacity:1;" d="M 461.738281 247.566406 C 461.738281 252.523438 454.300781 252.523438 454.300781 247.566406 C 454.300781 242.609375 461.738281 242.609375 461.738281 247.566406 "/>
<path style=" stroke:none;fill-rule:nonzero;fill:rgb(100%,84.3%,0%);fill-opacity:1;" d="M 461.738281 104.839844 C 461.738281 109.796875 454.300781 109.796875 454.300781 104.839844 C 454.300781 99.882812 461.738281 99.882812 461.738281 104.839844 "/>
<path style=" stroke:none;fill-rule:nonzero;fill:rgb(100%,84.3%,0%);fill-opacity:1;" d="M 356.65625 104.839844 C 356.65625 109.796875 349.222656 109.796875 349.222656 104.839844 C 349.222656 99.882812 356.65625 99.882812 356.65625 104.839844 "/>
<path style=" stroke:none;fill-rule:nonzero;fill:rgb(100%,84.3%,0%);fill-opacity:1;" d="M 461.738281 239.960938 C 461.738281 244.917969 454.300781 244.917969 454.300781 239.960938 C 454.300781 235.003906 461.738281 235.003906 461.738281 239.960938 "/>
<path style=" stroke:none;fill-rule:nonzero;fill:rgb(100%,84.3%,0%);fill-opacity:1;" d="M 461.738281 255.523438 C 461.738281 260.480469 454.300781 260.480469 454.300781 255.523438 C 454.300781 250.566406 461.738281 250.566406 461.738281 255.523438 "/>
<path style=" stroke:none;fill-rule:nonzero;fill:rgb(100%,84.3%,0%);fill-opacity:1;" d="M 461.738281 232.085938 C 461.738281 237.042969 454.300781 237.042969 454.300781 232.085938 C 454.300781 227.128906 461.738281 227.128906 461.738281 232.085938 "/>
<path style=" stroke:none;fill-rule:nonzero;fill:rgb(100%,84.3%,0%);fill-opacity:1;" d="M 364.152344 104.839844 C 364.152344 109.796875 356.71875 109.796875 356.71875 104.839844 C 356.71875 99.882812 364.152344 99.882812 364.152344 104.839844 "/>
<path style=" stroke:none;fill-rule:nonzero;fill:rgb(100%,84.3%,0%);fill-opacity:1;" d="M 372.019531 104.839844 C 372.019531 109.796875 364.582031 109.796875 364.582031 104.839844 C 364.582031 99.882812 372.019531 99.882812 372.019531 104.839844 "/>
<path style=" stroke:none;fill-rule:nonzero;fill:rgb(100%,84.3%,0%);fill-opacity:1;" d="M 348.757812 104.839844 C 348.757812 109.796875 341.324219 109.796875 341.324219 104.839844 C 341.324219 99.882812 348.757812 99.882812 348.757812 104.839844 "/>
<path style=" stroke:none;fill-rule:nonzero;fill:rgb(100%,84.3%,0%);fill-opacity:1;" d="M 408.828125 104.839844 C 408.828125 109.796875 401.390625 109.796875 401.390625 104.839844 C 401.390625 99.882812 408.828125 99.882812 408.828125 104.839844 "/>
<path style=" stroke:none;fill-rule:nonzero;fill:rgb(100%,84.3%,0%);fill-opacity:1;" d="M 461.738281 132.699219 C 461.738281 137.65625 454.300781 137.65625 454.300781 132.699219 C 454.300781 127.742188 461.738281 127.742188 461.738281 132.699219 "/>
<path style=" stroke:none;fill-rule:nonzero;fill:rgb(100%,84.3%,0%);fill-opacity:1;" d="M 379.695312 104.839844 C 379.695312 109.796875 372.257812 109.796875 372.257812 104.839844 C 372.257812 99.882812 379.695312 99.882812 379.695312 104.839844 "/>
<path style=" stroke:none;fill-rule:nonzero;fill:rgb(100%,84.3%,0%);fill-opacity:1;" d="M 436.851562 104.839844 C 436.851562 109.796875 429.417969 109.796875 429.417969 104.839844 C 429.417969 99.882812 436.851562 99.882812 436.851562 104.839844 "/>
<path style=" stroke:none;fill-rule:nonzero;fill:rgb(100%,84.3%,0%);fill-opacity:1;" d="M 340.738281 104.839844 C 340.738281 109.796875 333.300781 109.796875 333.300781 104.839844 C 333.300781 99.882812 340.738281 99.882812 340.738281 104.839844 "/>
<path style=" stroke:none;fill-rule:nonzero;fill:rgb(100%,84.3%,0%);fill-opacity:1;" d="M 397.238281 104.839844 C 397.238281 109.796875 389.804688 109.796875 389.804688 104.839844 C 389.804688 99.882812 397.238281 99.882812 397.238281 104.839844 "/>
<path style=" stroke:none;fill-rule:nonzero;fill:rgb(100%,84.3%,0%);fill-opacity:1;" d="M 388.089844 104.839844 C 388.089844 109.796875 380.65625 109.796875 380.65625 104.839844 C 380.65625 99.882812 388.089844 99.882812 388.089844 104.839844 "/>
<path style=" stroke:none;fill-rule:nonzero;fill:rgb(100%,84.3%,0%);fill-opacity:1;" d="M 331.28125 104.839844 C 331.28125 109.796875 323.84375 109.796875 323.84375 104.839844 C 323.84375 99.882812 331.28125 99.882812 331.28125 104.839844 "/>
<path style=" stroke:none;fill-rule:nonzero;fill:rgb(100%,84.3%,0%);fill-opacity:1;" d="M 461.738281 263.71875 C 461.738281 268.675781 454.300781 268.675781 454.300781 263.71875 C 454.300781 258.761719 461.738281 258.761719 461.738281 263.71875 "/>
<path style=" stroke:none;fill-rule:nonzero;fill:rgb(100%,84.3%,0%);fill-opacity:1;" d="M 428.578125 104.839844 C 428.578125 109.796875 421.144531 109.796875 421.144531 104.839844 C 421.144531 99.882812 428.578125 99.882812 428.578125 104.839844 "/>
<path style=" stroke:none;fill-rule:nonzero;fill:rgb(100%,84.3%,0%);fill-opacity:1;" d="M 323.023438 104.839844 C 323.023438 109.796875 315.585938 109.796875 315.585938 104.839844 C 315.585938 99.882812 323.023438 99.882812 323.023438 104.839844 "/>
<path style=" stroke:none;fill-rule:nonzero;fill:rgb(100%,84.3%,0%);fill-opacity:1;" d="M 416.964844 104.839844 C 416.964844 109.796875 409.53125 109.796875 409.53125 104.839844 C 409.53125 99.882812 416.964844 99.882812 416.964844 104.839844 "/>
<path style=" stroke:none;fill-rule:nonzero;fill:rgb(100%,84.3%,0%);fill-opacity:1;" d="M 461.738281 113.484375 C 461.738281 118.441406 454.300781 118.441406 454.300781 113.484375 C 454.300781 108.527344 461.738281 108.527344 461.738281 113.484375 "/>
<path style=" stroke:none;fill-rule:nonzero;fill:rgb(100%,84.3%,0%);fill-opacity:1;" d="M 461.738281 121.480469 C 461.738281 126.4375 454.300781 126.4375 454.300781 121.480469 C 454.300781 116.523438 461.738281 116.523438 461.738281 121.480469 "/>
<path style=" stroke:none;fill-rule:nonzero;fill:rgb(100%,84.3%,0%);fill-opacity:1;" d="M 461.738281 163.332031 C 461.738281 168.289062 454.300781 168.289062 454.300781 163.332031 C 454.300781 158.375 461.738281 158.375 461.738281 163.332031 "/>
<path style=" stroke:none;fill-rule:nonzero;fill:rgb(100%,84.3%,0%);fill-opacity:1;" d="M 461.738281 224.472656 C 461.738281 229.429688 454.300781 229.429688 454.300781 224.472656 C 454.300781 219.515625 461.738281 219.515625 461.738281 224.472656 "/>
<path style=" stroke:none;fill-rule:nonzero;fill:rgb(100%,84.3%,0%);fill-opacity:1;" d="M 461.738281 271.496094 C 461.738281 276.453125 454.300781 276.453125 454.300781 271.496094 C 454.300781 266.539062 461.738281 266.539062 461.738281 271.496094 "/>
<path style=" stroke:none;fill-rule:nonzero;fill:rgb(100%,84.3%,0%);fill-opacity:1;" d="M 452.457031 104.839844 C 452.457031 109.796875 445.019531 109.796875 445.019531 104.839844 C 445.019531 99.882812 452.457031 99.882812 452.457031 104.839844 "/>
<path style=" stroke:none;fill-rule:nonzero;fill:rgb(100%,84.3%,0%);fill-opacity:1;" d="M 461.738281 151.261719 C 461.738281 156.21875 454.300781 156.21875 454.300781 151.261719 C 454.300781 146.304688 461.738281 146.304688 461.738281 151.261719 "/>
<path style=" stroke:none;fill-rule:nonzero;fill:rgb(100%,84.3%,0%);fill-opacity:1;" d="M 461.738281 142.15625 C 461.738281 147.113281 454.300781 147.113281 454.300781 142.15625 C 454.300781 137.199219 461.738281 137.199219 461.738281 142.15625 "/>
<path style=" stroke:none;fill-rule:nonzero;fill:rgb(100%,84.3%,0%);fill-opacity:1;" d="M 461.738281 279.550781 C 461.738281 284.507812 454.300781 284.507812 454.300781 279.550781 C 454.300781 274.59375 461.738281 274.59375 461.738281 279.550781 "/>
<path style=" stroke:none;fill-rule:nonzero;fill:rgb(100%,84.3%,0%);fill-opacity:1;" d="M 461.738281 216.773438 C 461.738281 221.730469 454.300781 221.730469 454.300781 216.773438 C 454.300781 211.816406 461.738281 211.816406 461.738281 216.773438 "/>
<path style=" stroke:none;fill-rule:nonzero;fill:rgb(100%,84.3%,0%);fill-opacity:1;" d="M 461.738281 199.671875 C 461.738281 204.628906 454.300781 204.628906 454.300781 199.671875 C 454.300781 194.714844 461.738281 194.714844 461.738281 199.671875 "/>
<path style=" stroke:none;fill-rule:nonzero;fill:rgb(100%,84.3%,0%);fill-opacity:1;" d="M 461.738281 287.445312 C 461.738281 292.402344 454.300781 292.402344 454.300781 287.445312 C 454.300781 282.488281 461.738281 282.488281 461.738281 287.445312 "/>
</g>
</svg>
