<?xml version="1.0" encoding="UTF-8"?>
<svg xmlns="http://www.w3.org/2000/svg" xmlns:xlink="http://www.w3.org/1999/xlink" width="512pt" height="512pt" viewBox="0 0 512 512" version="1.1">
<g id="surface101">
<path style=" stroke:none;fill-rule:nonzero;fill:rgb(26.7%,26.7%,26.7%);fill-opacity:1;" d="M 169.605469 0 L 342.398438 0 L 342.398438 512 L 169.605469 512 Z M 169.605469 0 "/>
<path style=" stroke:none;fill-rule:nonzero;fill:rgb(19.2%,38.8%,66.7%);fill-opacity:1;" d="M 184.003906 42.667969 L 327.996094 42.667969 L 327.996094 469.332031 L 184.003906 469.332031 Z M 184.003906 42.667969 "/>
<path style=" stroke:none;fill-rule:nonzero;fill:rgb(100%,100%,100%);fill-opacity:1;" d="M 417.527344 383.785156 C 417.527344 385.558594 414.871094 385.558594 414.871094 383.785156 C 414.871094 382.015625 417.527344 382.015625 417.527344 383.785156 "/>
<path style=" stroke:none;fill-rule:nonzero;fill:rgb(100%,100%,100%);fill-opacity:1;" d="M 153.453125 319.761719 C 153.453125 321.53125 150.792969 321.53125 150.792969 319.761719 C 150.792969 317.988281 153.453125 317.988281 153.453125 319.761719 "/>
<path style=" stroke:none;fill-rule:nonzero;fill:rgb(100%,100%,100%);fill-opacity:1;" d="M 139.636719 404.511719 C 139.636719 406.28125 136.980469 406.28125 136.980469 404.511719 C 136.980469 402.738281 139.636719 402.738281 139.636719 404.511719 "/>
<path style=" stroke:none;fill-rule:nonzero;fill:rgb(100%,100%,100%);fill-opacity:1;" d="M 70.296875 202.335938 C 70.296875 204.105469 67.640625 204.105469 67.640625 202.335938 C 67.640625 200.5625 70.296875 200.5625 70.296875 202.335938 "/>
<path style=" stroke:none;fill-rule:nonzero;fill:rgb(100%,100%,100%);fill-opacity:1;" d="M 144.152344 324.542969 C 144.152344 326.3125 141.496094 326.3125 141.496094 324.542969 C 141.496094 322.773438 144.152344 322.773438 144.152344 324.542969 "/>
<path style=" stroke:none;fill-rule:nonzero;fill:rgb(100%,100%,100%);fill-opacity:1;" d="M 82.515625 54.089844 C 82.515625 55.859375 79.859375 55.859375 79.859375 54.089844 C 79.859375 52.320312 82.515625 52.320312 82.515625 54.089844 "/>
<path style=" stroke:none;fill-rule:nonzero;fill:rgb(100%,100%,100%);fill-opacity:1;" d="M 414.871094 99.785156 C 414.871094 101.558594 412.214844 101.558594 412.214844 99.785156 C 412.214844 98.015625 414.871094 98.015625 414.871094 99.785156 "/>
<path style=" stroke:none;fill-rule:nonzero;fill:rgb(100%,100%,100%);fill-opacity:1;" d="M 415.402344 235.542969 C 415.402344 237.3125 412.746094 237.3125 412.746094 235.542969 C 412.746094 233.773438 415.402344 233.773438 415.402344 235.542969 "/>
<path style=" stroke:none;fill-rule:nonzero;fill:rgb(100%,100%,100%);fill-opacity:1;" d="M 138.574219 44.527344 C 138.574219 46.296875 135.917969 46.296875 135.917969 44.527344 C 135.917969 42.753906 138.574219 42.753906 138.574219 44.527344 "/>
<path style=" stroke:none;fill-rule:nonzero;fill:rgb(100%,100%,100%);fill-opacity:1;" d="M 359.878906 315.242188 C 359.878906 317.015625 357.21875 317.015625 357.21875 315.242188 C 357.21875 313.472656 359.878906 313.472656 359.878906 315.242188 "/>
<path style=" stroke:none;fill-rule:nonzero;fill:rgb(100%,100%,100%);fill-opacity:1;" d="M 93.675781 99.785156 C 93.675781 101.558594 91.019531 101.558594 91.019531 99.785156 C 91.019531 98.015625 93.675781 98.015625 93.675781 99.785156 "/>
<path style=" stroke:none;fill-rule:nonzero;fill:rgb(100%,100%,100%);fill-opacity:1;" d="M 489.257812 445.421875 C 489.257812 447.195312 486.601562 447.195312 486.601562 445.421875 C 486.601562 443.652344 489.257812 443.652344 489.257812 445.421875 "/>
<path style=" stroke:none;fill-rule:nonzero;fill:rgb(100%,100%,100%);fill-opacity:1;" d="M 429.75 272.738281 C 429.75 274.507812 427.089844 274.507812 427.089844 272.738281 C 427.089844 270.964844 429.75 270.964844 429.75 272.738281 "/>
<path style=" stroke:none;fill-rule:nonzero;fill:rgb(100%,100%,100%);fill-opacity:1;" d="M 350.578125 212.695312 C 350.578125 214.46875 347.921875 214.46875 347.921875 212.695312 C 347.921875 210.925781 350.578125 210.925781 350.578125 212.695312 "/>
<path style=" stroke:none;fill-rule:nonzero;fill:rgb(100%,100%,100%);fill-opacity:1;" d="M 0.160156 427.890625 C 0.160156 429.660156 -2.496094 429.660156 -2.496094 427.890625 C -2.496094 426.117188 0.160156 426.117188 0.160156 427.890625 "/>
<path style=" stroke:none;fill-rule:nonzero;fill:rgb(100%,100%,100%);fill-opacity:1;" d="M 511.042969 375.550781 C 511.042969 377.324219 508.386719 377.324219 508.386719 375.550781 C 508.386719 373.78125 511.042969 373.78125 511.042969 375.550781 "/>
<path style=" stroke:none;fill-rule:nonzero;fill:rgb(100%,100%,100%);fill-opacity:1;" d="M 77.46875 325.871094 C 77.46875 327.640625 74.8125 327.640625 74.8125 325.871094 C 74.8125 324.101562 77.46875 324.101562 77.46875 325.871094 "/>
<path style=" stroke:none;fill-rule:nonzero;fill:rgb(100%,100%,100%);fill-opacity:1;" d="M 172.3125 223.589844 C 172.3125 225.359375 169.65625 225.359375 169.65625 223.589844 C 169.65625 221.816406 172.3125 221.816406 172.3125 223.589844 "/>
<path style=" stroke:none;fill-rule:nonzero;fill:rgb(100%,100%,100%);fill-opacity:1;" d="M 424.433594 397.335938 C 424.433594 399.109375 421.777344 399.109375 421.777344 397.335938 C 421.777344 395.566406 424.433594 395.566406 424.433594 397.335938 "/>
<path style=" stroke:none;fill-rule:nonzero;fill:rgb(100%,100%,100%);fill-opacity:1;" d="M 411.683594 -1.167969 C 411.683594 0.601562 409.027344 0.601562 409.027344 -1.167969 C 409.027344 -2.941406 411.683594 -2.941406 411.683594 -1.167969 "/>
<path style=" stroke:none;fill-rule:nonzero;fill:rgb(100%,84.3%,0%);fill-opacity:1;" d="M 187.988281 314.289062 C 187.988281 316.0625 185.332031 316.0625 185.332031 314.289062 C 185.332031 312.519531 187.988281 312.519531 187.988281 314.289062 "/>
<path style=" stroke:none;fill-rule:nonzero;fill:rgb(100%,84.3%,0%);fill-opacity:1;" d="M 326.667969 209.378906 C 326.667969 211.148438 324.011719 211.148438 324.011719 209.378906 C 324.011719 207.605469 326.667969 207.605469 326.667969 209.378906 "/>
<path style=" stroke:none;fill-rule:nonzero;fill:rgb(100%,84.3%,0%);fill-opacity:1;" d="M 326.667969 317.492188 C 326.667969 319.261719 324.011719 319.261719 324.011719 317.492188 C 324.011719 315.71875 326.667969 315.71875 326.667969 317.492188 "/>
<path style=" stroke:none;fill-rule:nonzero;fill:rgb(100%,84.3%,0%);fill-opacity:1;" d="M 187.988281 334.707031 C 187.988281 336.476562 185.332031 336.476562 185.332031 334.707031 C 185.332031 332.933594 187.988281 332.933594 187.988281 334.707031 "/>
<path style=" stroke:none;fill-rule:nonzero;fill:rgb(100%,84.3%,0%);fill-opacity:1;" d="M 187.988281 223.976562 C 187.988281 225.746094 185.332031 225.746094 185.332031 223.976562 C 185.332031 222.203125 187.988281 222.203125 187.988281 223.976562 "/>
<path style=" stroke:none;fill-rule:nonzero;fill:rgb(100%,84.3%,0%);fill-opacity:1;" d="M 187.988281 240.535156 C 187.988281 242.304688 185.332031 242.304688 185.332031 240.535156 C 185.332031 238.761719 187.988281 238.761719 187.988281 240.535156 "/>
<path style=" stroke:none;fill-rule:nonzero;fill:rgb(100%,84.3%,0%);fill-opacity:1;" d="M 187.988281 326.78125 C 187.988281 328.554688 185.332031 328.554688 185.332031 326.78125 C 185.332031 325.011719 187.988281 325.011719 187.988281 326.78125 "/>
<path style=" stroke:none;fill-rule:nonzero;fill:rgb(100%,84.3%,0%);fill-opacity:1;" d="M 187.988281 317.761719 C 187.988281 319.53125 185.332031 319.53125 185.332031 317.761719 C 185.332031 315.992188 187.988281 315.992188 187.988281 317.761719 "/>
<path style=" stroke:none;fill-rule:nonzero;fill:rgb(100%,84.3%,0%);fill-opacity:1;" d="M 187.988281 226.632812 C 187.988281 228.40625 185.332031 228.40625 185.332031 226.632812 C 185.332031 224.863281 187.988281 224.863281 187.988281 226.632812 "/>
<path style=" stroke:none;fill-rule:nonzero;fill:rgb(100%,84.3%,0%);fill-opacity:1;" d="M 187.988281 220.9375 C 187.988281 222.707031 185.332031 222.707031 185.332031 220.9375 C 185.332031 219.164062 187.988281 219.164062 187.988281 220.9375 "/>
<path style=" stroke:none;fill-rule:nonzero;fill:rgb(100%,84.3%,0%);fill-opacity:1;" d="M 187.988281 218.15625 C 187.988281 219.925781 185.332031 219.925781 185.332031 218.15625 C 185.332031 216.382812 187.988281 216.382812 187.988281 218.15625 "/>
<path style=" stroke:none;fill-rule:nonzero;fill:rgb(100%,84.3%,0%);fill-opacity:1;" d="M 326.667969 216.65625 C 326.667969 218.425781 324.011719 218.425781 324.011719 216.65625 C 324.011719 214.882812 326.667969 214.882812 326.667969 216.65625 "/>
<path style=" stroke:none;fill-rule:nonzero;fill:rgb(100%,84.3%,0%);fill-opacity:1;" d="M 187.988281 206.949219 C 187.988281 208.71875 185.332031 208.71875 185.332031 206.949219 C 185.332031 205.175781 187.988281 205.175781 187.988281 206.949219 "/>
<path style=" stroke:none;fill-rule:nonzero;fill:rgb(100%,84.3%,0%);fill-opacity:1;" d="M 187.988281 229.855469 C 187.988281 231.625 185.332031 231.625 185.332031 229.855469 C 185.332031 228.082031 187.988281 228.082031 187.988281 229.855469 "/>
<path style=" stroke:none;fill-rule:nonzero;fill:rgb(100%,84.3%,0%);fill-opacity:1;" d="M 326.667969 314.816406 C 326.667969 316.589844 324.011719 316.589844 324.011719 314.816406 C 324.011719 313.046875 326.667969 313.046875 326.667969 314.816406 "/>
<path style=" stroke:none;fill-rule:nonzero;fill:rgb(100%,84.3%,0%);fill-opacity:1;" d="M 187.988281 323.746094 C 187.988281 325.515625 185.332031 325.515625 185.332031 323.746094 C 185.332031 321.976562 187.988281 321.976562 187.988281 323.746094 "/>
<path style=" stroke:none;fill-rule:nonzero;fill:rgb(100%,84.3%,0%);fill-opacity:1;" d="M 187.988281 214.425781 C 187.988281 216.195312 185.332031 216.195312 185.332031 214.425781 C 185.332031 212.652344 187.988281 212.652344 187.988281 214.425781 "/>
<path style=" stroke:none;fill-rule:nonzero;fill:rgb(100%,84.3%,0%);fill-opacity:1;" d="M 326.667969 204.320312 C 326.667969 206.09375 324.011719 206.09375 324.011719 204.320312 C 324.011719 202.550781 326.667969 202.550781 326.667969 204.320312 "/>
<path style=" stroke:none;fill-rule:nonzero;fill:rgb(100%,84.3%,0%);fill-opacity:1;" d="M 187.988281 320.945312 C 187.988281 322.714844 185.332031 322.714844 185.332031 320.945312 C 185.332031 319.171875 187.988281 319.171875 187.988281 320.945312 "/>
<path style=" stroke:none;fill-rule:nonzero;fill:rgb(100%,84.3%,0%);fill-opacity:1;" d="M 326.667969 219.402344 C 326.667969 221.171875 324.011719 221.171875 324.011719 219.402344 C 324.011719 217.632812 326.667969 217.632812 326.667969 219.402344 "/>
<path style=" stroke:none;fill-rule:nonzero;fill:rgb(100%,84.3%,0%);fill-opacity:1;" d="M 187.988281 237.113281 C 187.988281 238.882812 185.332031 238.882812 185.332031 237.113281 C 185.332031 235.34375 187.988281 235.34375 187.988281 237.113281 "/>
<path style=" stroke:none;fill-rule:nonzero;fill:rgb(100%,84.3%,0%);fill-opacity:1;" d="M 326.667969 223.84375 C 326.667969 225.613281 324.011719 225.613281 324.011719 223.84375 C 324.011719 222.070312 326.667969 222.070312 326.667969 223.84375 "/>
<path style=" stroke:none;fill-rule:nonzero;fill:rgb(100%,84.3%,0%);fill-opacity:1;" d="M 187.988281 329.539062 C 187.988281 331.308594 185.332031 331.308594 185.332031 329.539062 C 185.332031 327.769531 187.988281 327.769531 187.988281 329.539062 "/>
<path style=" stroke:none;fill-rule:nonzero;fill:rgb(100%,84.3%,0%);fill-opacity:1;" d="M 326.667969 213.105469 C 326.667969 214.875 324.011719 214.875 324.011719 213.105469 C 324.011719 211.332031 326.667969 211.332031 326.667969 213.105469 "/>
<path style=" stroke:none;fill-rule:nonzero;fill:rgb(100%,84.3%,0%);fill-opacity:1;" d="M 187.988281 233.570312 C 187.988281 235.34375 185.332031 235.34375 185.332031 233.570312 C 185.332031 231.800781 187.988281 231.800781 187.988281 233.570312 "/>
<path style=" stroke:none;fill-rule:nonzero;fill:rgb(100%,84.3%,0%);fill-opacity:1;" d="M 187.988281 210.53125 C 187.988281 212.304688 185.332031 212.304688 185.332031 210.53125 C 185.332031 208.761719 187.988281 208.761719 187.988281 210.53125 "/>
</g>
</svg>
