<?xml version="1.0" encoding="UTF-8"?>
<svg xmlns="http://www.w3.org/2000/svg" xmlns:xlink="http://www.w3.org/1999/xlink" width="512pt" height="512pt" viewBox="0 0 512 512" version="1.1">
<g id="surface66">
<rect x="0" y="0" width="512" height="512" style="fill:rgb(26.7%,26.7%,26.7%);fill-opacity:1;stroke:none;"/>
<path style=" stroke:none;fill-rule:nonzero;fill:rgb(19.2%,38.8%,66.7%);fill-opacity:1;" d="M 39.617188 42.667969 L 435.808594 42.667969 L 435.808594 469.332031 L 39.617188 469.332031 Z M 39.617188 42.667969 "/>
<path style=" stroke:none;fill-rule:nonzero;fill:rgb(100%,100%,100%);fill-opacity:1;" d="M 34.539062 426.160156 C 34.539062 433.171875 28.855469 438.855469 21.839844 438.855469 C 14.828125 438.855469 9.144531 433.171875 9.144531 426.160156 C 9.144531 419.144531 14.828125 413.460938 21.839844 413.460938 C 28.855469 413.460938 34.539062 419.144531 34.539062 426.160156 "/>
<path style=" stroke:none;fill-rule:nonzero;fill:rgb(100%,100%,100%);fill-opacity:1;" d="M 509.460938 410.921875 C 509.460938 417.933594 503.773438 423.621094 496.761719 423.621094 C 489.75 423.621094 484.0625 417.933594 484.0625 410.921875 C 484.0625 403.90625 489.75 398.222656 496.761719 398.222656 C 503.773438 398.222656 509.460938 403.90625 509.460938 410.921875 "/>
<path style=" stroke:none;fill-rule:nonzero;fill:rgb(100%,100%,100%);fill-opacity:1;" d="M 504.382812 517.585938 C 504.382812 524.601562 498.695312 530.285156 491.683594 530.285156 C 484.667969 530.285156 478.984375 524.601562 478.984375 517.585938 C 478.984375 510.574219 484.667969 504.886719 491.683594 504.886719 C 498.695312 504.886719 504.382812 510.574219 504.382812 517.585938 "/>
<path style=" stroke:none;fill-rule:nonzero;fill:rgb(100%,100%,100%);fill-opacity:1;" d="M 506.921875 309.332031 C 506.921875 316.347656 501.234375 322.03125 494.222656 322.03125 C 487.207031 322.03125 481.523438 316.347656 481.523438 309.332031 C 481.523438 302.320312 487.207031 296.632812 494.222656 296.632812 C 501.234375 296.632812 506.921875 302.320312 506.921875 309.332031 "/>
<path style=" stroke:none;fill-rule:nonzero;fill:rgb(100%,100%,100%);fill-opacity:1;" d="M 4.0625 83.300781 C 4.0625 90.316406 -1.621094 96 -8.636719 96 C -15.648438 96 -21.332031 90.316406 -21.332031 83.300781 C -21.332031 76.289062 -15.648438 70.605469 -8.636719 70.605469 C -1.621094 70.605469 4.0625 76.289062 4.0625 83.300781 "/>
<path style=" stroke:none;fill-rule:nonzero;fill:rgb(100%,100%,100%);fill-opacity:1;" d="M 47.238281 451.554688 C 47.238281 458.570312 41.554688 464.253906 34.539062 464.253906 C 27.527344 464.253906 21.839844 458.570312 21.839844 451.554688 C 21.839844 444.542969 27.527344 438.859375 34.539062 438.859375 C 41.554688 438.859375 47.238281 444.542969 47.238281 451.554688 "/>
<path style=" stroke:none;fill-rule:nonzero;fill:rgb(100%,100%,100%);fill-opacity:1;" d="M 489.140625 271.238281 C 489.140625 278.25 483.457031 283.9375 476.445312 283.9375 C 469.429688 283.9375 463.746094 278.25 463.746094 271.238281 C 463.746094 264.226562 469.429688 258.539062 476.445312 258.539062 C 483.457031 258.539062 489.140625 264.226562 489.140625 271.238281 "/>
<path style=" stroke:none;fill-rule:nonzero;fill:rgb(100%,100%,100%);fill-opacity:1;" d="M 34.539062 189.96875 C 34.539062 196.980469 28.855469 202.667969 21.839844 202.667969 C 14.828125 202.667969 9.144531 196.980469 9.144531 189.96875 C 9.144531 182.953125 14.828125 177.269531 21.839844 177.269531 C 28.855469 177.269531 34.539062 182.953125 34.539062 189.96875 "/>
<path style=" stroke:none;fill-rule:nonzero;fill:rgb(100%,100%,100%);fill-opacity:1;" d="M 202.160156 2.03125 C 202.160156 9.046875 196.472656 14.730469 189.460938 14.730469 C 182.445312 14.730469 176.761719 9.046875 176.761719 2.03125 C 176.761719 -4.980469 182.445312 -10.667969 189.460938 -10.667969 C 196.472656 -10.667969 202.160156 -4.980469 202.160156 2.03125 "/>
<path style=" stroke:none;fill-rule:nonzero;fill:rgb(100%,100%,100%);fill-opacity:1;" d="M 9.140625 517.585938 C 9.140625 524.601562 3.457031 530.285156 -3.554688 530.285156 C -10.570312 530.285156 -16.253906 524.601562 -16.253906 517.585938 C -16.253906 510.574219 -10.570312 504.886719 -3.554688 504.886719 C 3.457031 504.886719 9.140625 510.574219 9.140625 517.585938 "/>
<path style=" stroke:none;fill-rule:nonzero;fill:rgb(100%,100%,100%);fill-opacity:1;" d="M 529.777344 126.476562 C 529.777344 133.488281 524.09375 139.175781 517.078125 139.175781 C 510.066406 139.175781 504.378906 133.488281 504.378906 126.476562 C 504.378906 119.460938 510.066406 113.777344 517.078125 113.777344 C 524.09375 113.777344 529.777344 119.460938 529.777344 126.476562 "/>
<path style=" stroke:none;fill-rule:nonzero;fill:rgb(100%,100%,100%);fill-opacity:1;" d="M 524.699219 515.046875 C 524.699219 522.0625 519.011719 527.746094 512 527.746094 C 504.988281 527.746094 499.300781 522.0625 499.300781 515.046875 C 499.300781 508.035156 504.988281 502.347656 512 502.347656 C 519.011719 502.347656 524.699219 508.035156 524.699219 515.046875 "/>
<path style=" stroke:none;fill-rule:nonzero;fill:rgb(100%,100%,100%);fill-opacity:1;" d="M 268.191406 504.890625 C 268.191406 511.902344 262.503906 517.585938 255.492188 517.585938 C 248.480469 517.585938 242.792969 511.902344 242.792969 504.890625 C 242.792969 497.875 248.480469 492.191406 255.492188 492.191406 C 262.503906 492.191406 268.191406 497.875 268.191406 504.890625 "/>
<path style=" stroke:none;fill-rule:nonzero;fill:rgb(100%,100%,100%);fill-opacity:1;" d="M 382.476562 29.96875 C 382.476562 36.980469 376.792969 42.667969 369.777344 42.667969 C 362.765625 42.667969 357.078125 36.980469 357.078125 29.96875 C 357.078125 22.953125 362.765625 17.269531 369.777344 17.269531 C 376.792969 17.269531 382.476562 22.953125 382.476562 29.96875 "/>
<path style=" stroke:none;fill-rule:nonzero;fill:rgb(100%,100%,100%);fill-opacity:1;" d="M 9.140625 426.160156 C 9.140625 433.171875 3.457031 438.855469 -3.554688 438.855469 C -10.570312 438.855469 -16.253906 433.171875 -16.253906 426.160156 C -16.253906 419.144531 -10.570312 413.460938 -3.554688 413.460938 C 3.457031 413.460938 9.140625 419.144531 9.140625 426.160156 "/>
<path style=" stroke:none;fill-rule:nonzero;fill:rgb(100%,100%,100%);fill-opacity:1;" d="M 146.285156 502.347656 C 146.285156 509.363281 140.601562 515.046875 133.585938 515.046875 C 126.574219 515.046875 120.886719 509.363281 120.886719 502.347656 C 120.886719 495.335938 126.574219 489.652344 133.585938 489.652344 C 140.601562 489.652344 146.285156 495.335938 146.285156 502.347656 "/>
<path style=" stroke:none;fill-rule:nonzero;fill:rgb(100%,100%,100%);fill-opacity:1;" d="M 362.160156 482.03125 C 362.160156 489.046875 356.472656 494.730469 349.460938 494.730469 C 342.445312 494.730469 336.761719 489.046875 336.761719 482.03125 C 336.761719 475.019531 342.445312 469.332031 349.460938 469.332031 C 356.472656 469.332031 362.160156 475.019531 362.160156 482.03125 "/>
<path style=" stroke:none;fill-rule:nonzero;fill:rgb(100%,100%,100%);fill-opacity:1;" d="M 164.0625 -0.507812 C 164.0625 6.503906 158.378906 12.191406 151.363281 12.191406 C 144.351562 12.191406 138.667969 6.503906 138.667969 -0.507812 C 138.667969 -7.519531 144.351562 -13.207031 151.363281 -13.207031 C 158.378906 -13.207031 164.0625 -7.519531 164.0625 -0.507812 "/>
<path style=" stroke:none;fill-rule:nonzero;fill:rgb(100%,100%,100%);fill-opacity:1;" d="M 458.667969 446.476562 C 458.667969 453.488281 452.980469 459.175781 445.96875 459.175781 C 438.953125 459.175781 433.269531 453.488281 433.269531 446.476562 C 433.269531 439.460938 438.953125 433.777344 445.96875 433.777344 C 452.980469 433.777344 458.667969 439.460938 458.667969 446.476562 "/>
<path style=" stroke:none;fill-rule:nonzero;fill:rgb(100%,100%,100%);fill-opacity:1;" d="M 346.921875 509.96875 C 346.921875 516.980469 341.234375 522.667969 334.222656 522.667969 C 327.207031 522.667969 321.523438 516.980469 321.523438 509.96875 C 321.523438 502.953125 327.207031 497.269531 334.222656 497.269531 C 341.234375 497.269531 346.921875 502.953125 346.921875 509.96875 "/>
<path style=" stroke:none;fill-rule:nonzero;fill:rgb(100%,100%,100%);fill-opacity:1;" d="M 39.621094 250.921875 C 39.621094 257.933594 33.933594 263.621094 26.921875 263.621094 C 19.90625 263.621094 14.222656 257.933594 14.222656 250.921875 C 14.222656 243.90625 19.90625 238.222656 26.921875 238.222656 C 33.933594 238.222656 39.621094 243.90625 39.621094 250.921875 "/>
<path style=" stroke:none;fill-rule:nonzero;fill:rgb(100%,84.3%,0%);fill-opacity:1;" d="M 79.605469 430.320312 C 79.605469 437.335938 73.921875 443.019531 66.90625 443.019531 C 59.894531 443.019531 54.210938 437.335938 54.210938 430.320312 C 54.210938 423.308594 59.894531 417.625 66.90625 417.625 C 73.921875 417.625 79.605469 423.308594 79.605469 430.320312 "/>
<path style=" stroke:none;fill-rule:nonzero;fill:rgb(100%,84.3%,0%);fill-opacity:1;" d="M 282.558594 202.144531 C 282.558594 209.160156 276.871094 214.84375 269.859375 214.84375 C 262.847656 214.84375 257.160156 209.160156 257.160156 202.144531 C 257.160156 195.132812 262.847656 189.449219 269.859375 189.449219 C 276.871094 189.449219 282.558594 195.132812 282.558594 202.144531 "/>
<path style=" stroke:none;fill-rule:nonzero;fill:rgb(100%,84.3%,0%);fill-opacity:1;" d="M 303.636719 183.21875 C 303.636719 190.230469 297.953125 195.917969 290.941406 195.917969 C 283.925781 195.917969 278.242188 190.230469 278.242188 183.21875 C 278.242188 176.203125 283.925781 170.519531 290.941406 170.519531 C 297.953125 170.519531 303.636719 176.203125 303.636719 183.21875 "/>
<path style=" stroke:none;fill-rule:nonzero;fill:rgb(100%,84.3%,0%);fill-opacity:1;" d="M 358.515625 119.898438 C 358.515625 126.910156 352.832031 132.59375 345.816406 132.59375 C 338.804688 132.59375 333.117188 126.910156 333.117188 119.898438 C 333.117188 112.882812 338.804688 107.199219 345.816406 107.199219 C 352.832031 107.199219 358.515625 112.882812 358.515625 119.898438 "/>
<path style=" stroke:none;fill-rule:nonzero;fill:rgb(100%,84.3%,0%);fill-opacity:1;" d="M 283.859375 135.140625 C 283.859375 142.152344 278.175781 147.839844 271.160156 147.839844 C 264.148438 147.839844 258.464844 142.152344 258.464844 135.140625 C 258.464844 128.125 264.148438 122.441406 271.160156 122.441406 C 278.175781 122.441406 283.859375 128.125 283.859375 135.140625 "/>
<path style=" stroke:none;fill-rule:nonzero;fill:rgb(100%,84.3%,0%);fill-opacity:1;" d="M 381.523438 152.414062 C 381.523438 159.429688 375.839844 165.113281 368.824219 165.113281 C 361.8125 165.113281 356.128906 159.429688 356.128906 152.414062 C 356.128906 145.402344 361.8125 139.71875 368.824219 139.71875 C 375.839844 139.71875 381.523438 145.402344 381.523438 152.414062 "/>
<path style=" stroke:none;fill-rule:nonzero;fill:rgb(100%,84.3%,0%);fill-opacity:1;" d="M 322.492188 248.449219 C 322.492188 255.460938 316.804688 261.144531 309.792969 261.144531 C 302.777344 261.144531 297.09375 255.460938 297.09375 248.449219 C 297.09375 241.433594 302.777344 235.75 309.792969 235.75 C 316.804688 235.75 322.492188 241.433594 322.492188 248.449219 "/>
<path style=" stroke:none;fill-rule:nonzero;fill:rgb(100%,84.3%,0%);fill-opacity:1;" d="M 351.585938 299.703125 C 351.585938 306.71875 345.902344 312.402344 338.886719 312.402344 C 331.875 312.402344 326.191406 306.71875 326.191406 299.703125 C 326.191406 292.691406 331.875 287.007812 338.886719 287.007812 C 345.902344 287.007812 351.585938 292.691406 351.585938 299.703125 "/>
<path style=" stroke:none;fill-rule:nonzero;fill:rgb(100%,84.3%,0%);fill-opacity:1;" d="M 344.332031 225.453125 C 344.332031 232.464844 338.644531 238.152344 331.632812 238.152344 C 324.621094 238.152344 318.933594 232.464844 318.933594 225.453125 C 318.933594 218.441406 324.621094 212.753906 331.632812 212.753906 C 338.644531 212.753906 344.332031 218.441406 344.332031 225.453125 "/>
<path style=" stroke:none;fill-rule:nonzero;fill:rgb(100%,84.3%,0%);fill-opacity:1;" d="M 282.800781 274.8125 C 282.800781 281.824219 277.117188 287.511719 270.105469 287.511719 C 263.089844 287.511719 257.40625 281.824219 257.40625 274.8125 C 257.40625 267.800781 263.089844 262.113281 270.105469 262.113281 C 277.117188 262.113281 282.800781 267.800781 282.800781 274.8125 "/>
<path style=" stroke:none;fill-rule:nonzero;fill:rgb(100%,84.3%,0%);fill-opacity:1;" d="M 296.46875 245.988281 C 296.46875 253 290.785156 258.683594 283.773438 258.683594 C 276.757812 258.683594 271.074219 253 271.074219 245.988281 C 271.074219 238.972656 276.757812 233.289062 283.773438 233.289062 C 290.785156 233.289062 296.46875 238.972656 296.46875 245.988281 "/>
<path style=" stroke:none;fill-rule:nonzero;fill:rgb(100%,84.3%,0%);fill-opacity:1;" d="M 379.273438 178.40625 C 379.273438 185.421875 373.589844 191.105469 366.574219 191.105469 C 359.5625 191.105469 353.878906 185.421875 353.878906 178.40625 C 353.878906 171.394531 359.5625 165.710938 366.574219 165.710938 C 373.589844 165.710938 379.273438 171.394531 379.273438 178.40625 "/>
<path style=" stroke:none;fill-rule:nonzero;fill:rgb(100%,84.3%,0%);fill-opacity:1;" d="M 411.746094 142.855469 C 411.746094 149.867188 406.058594 155.554688 399.046875 155.554688 C 392.03125 155.554688 386.347656 149.867188 386.347656 142.855469 C 386.347656 135.84375 392.03125 130.15625 399.046875 130.15625 C 406.058594 130.15625 411.746094 135.84375 411.746094 142.855469 "/>
<path style=" stroke:none;fill-rule:nonzero;fill:rgb(100%,84.3%,0%);fill-opacity:1;" d="M 404.742188 192.539062 C 404.742188 199.550781 399.058594 205.238281 392.042969 205.238281 C 385.03125 205.238281 379.34375 199.550781 379.34375 192.539062 C 379.34375 185.527344 385.03125 179.839844 392.042969 179.839844 C 399.058594 179.839844 404.742188 185.527344 404.742188 192.539062 "/>
<path style=" stroke:none;fill-rule:nonzero;fill:rgb(100%,84.3%,0%);fill-opacity:1;" d="M 374.355469 215.183594 C 374.355469 222.195312 368.671875 227.882812 361.660156 227.882812 C 354.644531 227.882812 348.960938 222.195312 348.960938 215.183594 C 348.960938 208.171875 354.644531 202.484375 361.660156 202.484375 C 368.671875 202.484375 374.355469 208.171875 374.355469 215.183594 "/>
<path style=" stroke:none;fill-rule:nonzero;fill:rgb(100%,84.3%,0%);fill-opacity:1;" d="M 262.675781 290.378906 C 262.675781 297.394531 256.988281 303.078125 249.976562 303.078125 C 242.960938 303.078125 237.277344 297.394531 237.277344 290.378906 C 237.277344 283.367188 242.960938 277.679688 249.976562 277.679688 C 256.988281 277.679688 262.675781 283.367188 262.675781 290.378906 "/>
<path style=" stroke:none;fill-rule:nonzero;fill:rgb(100%,84.3%,0%);fill-opacity:1;" d="M 383.753906 68.257812 C 383.753906 75.269531 378.066406 80.957031 371.054688 80.957031 C 364.039062 80.957031 358.355469 75.269531 358.355469 68.257812 C 358.355469 61.246094 364.039062 55.558594 371.054688 55.558594 C 378.066406 55.558594 383.753906 61.246094 383.753906 68.257812 "/>
<path style=" stroke:none;fill-rule:nonzero;fill:rgb(100%,84.3%,0%);fill-opacity:1;" d="M 261.476562 221.074219 C 261.476562 228.085938 255.792969 233.773438 248.777344 233.773438 C 241.765625 233.773438 236.078125 228.085938 236.078125 221.074219 C 236.078125 214.0625 241.765625 208.375 248.777344 208.375 C 255.792969 208.375 261.476562 214.0625 261.476562 221.074219 "/>
<path style=" stroke:none;fill-rule:nonzero;fill:rgb(100%,84.3%,0%);fill-opacity:1;" d="M 292.515625 330.675781 C 292.515625 337.6875 286.832031 343.375 279.816406 343.375 C 272.804688 343.375 267.117188 337.6875 267.117188 330.675781 C 267.117188 323.660156 272.804688 317.976562 279.816406 317.976562 C 286.832031 317.976562 292.515625 323.660156 292.515625 330.675781 "/>
<path style=" stroke:none;fill-rule:nonzero;fill:rgb(100%,84.3%,0%);fill-opacity:1;" d="M 201.132812 332.84375 C 201.132812 339.855469 195.445312 345.542969 188.433594 345.542969 C 181.417969 345.542969 175.734375 339.855469 175.734375 332.84375 C 175.734375 325.828125 181.417969 320.144531 188.433594 320.144531 C 195.445312 320.144531 201.132812 325.828125 201.132812 332.84375 "/>
<path style=" stroke:none;fill-rule:nonzero;fill:rgb(100%,84.3%,0%);fill-opacity:1;" d="M 335.542969 152.4375 C 335.542969 159.453125 329.855469 165.136719 322.84375 165.136719 C 315.832031 165.136719 310.144531 159.453125 310.144531 152.4375 C 310.144531 145.425781 315.832031 139.742188 322.84375 139.742188 C 329.855469 139.742188 335.542969 145.425781 335.542969 152.4375 "/>
<path style=" stroke:none;fill-rule:nonzero;fill:rgb(100%,84.3%,0%);fill-opacity:1;" d="M 222.597656 315.328125 C 222.597656 322.34375 216.914062 328.027344 209.898438 328.027344 C 202.886719 328.027344 197.203125 322.34375 197.203125 315.328125 C 197.203125 308.316406 202.886719 302.628906 209.898438 302.628906 C 216.914062 302.628906 222.597656 308.316406 222.597656 315.328125 "/>
<path style=" stroke:none;fill-rule:nonzero;fill:rgb(100%,84.3%,0%);fill-opacity:1;" d="M 416.3125 169.726562 C 416.3125 176.738281 410.625 182.421875 403.613281 182.421875 C 396.601562 182.421875 390.914062 176.738281 390.914062 169.726562 C 390.914062 162.710938 396.601562 157.027344 403.613281 157.027344 C 410.625 157.027344 416.3125 162.710938 416.3125 169.726562 "/>
<path style=" stroke:none;fill-rule:nonzero;fill:rgb(100%,84.3%,0%);fill-opacity:1;" d="M 261.921875 345.71875 C 261.921875 352.730469 256.238281 358.414062 249.226562 358.414062 C 242.210938 358.414062 236.527344 352.730469 236.527344 345.71875 C 236.527344 338.703125 242.210938 333.019531 249.226562 333.019531 C 256.238281 333.019531 261.921875 338.703125 261.921875 345.71875 "/>
<path style=" stroke:none;fill-rule:nonzero;fill:rgb(100%,84.3%,0%);fill-opacity:1;" d="M 420.363281 273.328125 C 420.363281 280.339844 414.675781 286.027344 407.664062 286.027344 C 400.652344 286.027344 394.964844 280.339844 394.964844 273.328125 C 394.964844 266.3125 400.652344 260.628906 407.664062 260.628906 C 414.675781 260.628906 420.363281 266.3125 420.363281 273.328125 "/>
<path style=" stroke:none;fill-rule:nonzero;fill:rgb(100%,84.3%,0%);fill-opacity:1;" d="M 380.851562 293.503906 C 380.851562 300.515625 375.167969 306.203125 368.15625 306.203125 C 361.140625 306.203125 355.457031 300.515625 355.457031 293.503906 C 355.457031 286.488281 361.140625 280.804688 368.15625 280.804688 C 375.167969 280.804688 380.851562 286.488281 380.851562 293.503906 "/>
<path style=" stroke:none;fill-rule:nonzero;fill:rgb(100%,84.3%,0%);fill-opacity:1;" d="M 322.527344 313.511719 C 322.527344 320.523438 316.84375 326.207031 309.828125 326.207031 C 302.816406 326.207031 297.128906 320.523438 297.128906 313.511719 C 297.128906 306.496094 302.816406 300.8125 309.828125 300.8125 C 316.84375 300.8125 322.527344 306.496094 322.527344 313.511719 "/>
<path style=" stroke:none;fill-rule:nonzero;fill:rgb(100%,84.3%,0%);fill-opacity:1;" d="M 410.742188 74.257812 C 410.742188 81.269531 405.054688 86.953125 398.042969 86.953125 C 391.027344 86.953125 385.34375 81.269531 385.34375 74.257812 C 385.34375 67.242188 391.027344 61.558594 398.042969 61.558594 C 405.054688 61.558594 410.742188 67.242188 410.742188 74.257812 "/>
<path style=" stroke:none;fill-rule:nonzero;fill:rgb(100%,84.3%,0%);fill-opacity:1;" d="M 389.09375 97.957031 C 389.09375 104.972656 383.40625 110.65625 376.394531 110.65625 C 369.382812 110.65625 363.695312 104.972656 363.695312 97.957031 C 363.695312 90.945312 369.382812 85.257812 376.394531 85.257812 C 383.40625 85.257812 389.09375 90.945312 389.09375 97.957031 "/>
<path style=" stroke:none;fill-rule:nonzero;fill:rgb(100%,84.3%,0%);fill-opacity:1;" d="M 306.832031 102.597656 C 306.832031 109.609375 301.148438 115.296875 294.136719 115.296875 C 287.121094 115.296875 281.4375 109.609375 281.4375 102.597656 C 281.4375 95.582031 287.121094 89.898438 294.136719 89.898438 C 301.148438 89.898438 306.832031 95.582031 306.832031 102.597656 "/>
<path style=" stroke:none;fill-rule:nonzero;fill:rgb(100%,84.3%,0%);fill-opacity:1;" d="M 348.695312 200.347656 C 348.695312 207.359375 343.011719 213.042969 335.996094 213.042969 C 328.984375 213.042969 323.296875 207.359375 323.296875 200.347656 C 323.296875 193.332031 328.984375 187.648438 335.996094 187.648438 C 343.011719 187.648438 348.695312 193.332031 348.695312 200.347656 "/>
<path style=" stroke:none;fill-rule:nonzero;fill:rgb(100%,84.3%,0%);fill-opacity:1;" d="M 318.117188 222.285156 C 318.117188 229.296875 312.433594 234.984375 305.417969 234.984375 C 298.40625 234.984375 292.71875 229.296875 292.71875 222.285156 C 292.71875 215.273438 298.40625 209.585938 305.417969 209.585938 C 312.433594 209.585938 318.117188 215.273438 318.117188 222.285156 "/>
<path style=" stroke:none;fill-rule:nonzero;fill:rgb(100%,84.3%,0%);fill-opacity:1;" d="M 422.925781 118.625 C 422.925781 125.640625 417.242188 131.324219 410.226562 131.324219 C 403.214844 131.324219 397.53125 125.640625 397.53125 118.625 C 397.53125 111.613281 403.214844 105.925781 410.226562 105.925781 C 417.242188 105.925781 422.925781 111.613281 422.925781 118.625 "/>
<path style=" stroke:none;fill-rule:nonzero;fill:rgb(100%,84.3%,0%);fill-opacity:1;" d="M 329.242188 74.828125 C 329.242188 81.839844 323.554688 87.527344 316.542969 87.527344 C 309.527344 87.527344 303.84375 81.839844 303.84375 74.828125 C 303.84375 67.816406 309.527344 62.128906 316.542969 62.128906 C 323.554688 62.128906 329.242188 67.816406 329.242188 74.828125 "/>
</g>
</svg>
