<?xml version="1.0" encoding="UTF-8"?>
<svg xmlns="http://www.w3.org/2000/svg" xmlns:xlink="http://www.w3.org/1999/xlink" width="512pt" height="512pt" viewBox="0 0 512 512" version="1.1">
<g id="surface91">
<path style=" stroke:none;fill-rule:nonzero;fill:rgb(26.7%,26.7%,26.7%);fill-opacity:1;" d="M 0 130.425781 L 512 130.425781 L 512 381.570312 L 0 381.570312 Z M 0 130.425781 "/>
<path style=" stroke:none;fill-rule:nonzero;fill:rgb(19.2%,38.8%,66.7%);fill-opacity:1;" d="M 42.667969 151.355469 L 469.332031 151.355469 L 469.332031 360.644531 L 42.667969 360.644531 Z M 42.667969 151.355469 "/>
<path style=" stroke:none;fill-rule:nonzero;fill:rgb(100%,84.3%,0%);fill-opacity:1;" d="M 456.070312 320.332031 C 456.070312 323.929688 450.675781 323.929688 450.675781 320.332031 C 450.675781 316.738281 456.070312 316.738281 456.070312 320.332031 "/>
<path style=" stroke:none;fill-rule:nonzero;fill:rgb(100%,84.3%,0%);fill-opacity:1;" d="M 351.320312 338.9375 C 351.320312 342.53125 345.925781 342.53125 345.925781 338.9375 C 345.925781 335.339844 351.320312 335.339844 351.320312 338.9375 "/>
<path style=" stroke:none;fill-rule:nonzero;fill:rgb(100%,84.3%,0%);fill-opacity:1;" d="M 134.683594 332.261719 C 134.683594 335.859375 129.289062 335.859375 129.289062 332.261719 C 129.289062 328.664062 134.683594 328.664062 134.683594 332.261719 "/>
<path style=" stroke:none;fill-rule:nonzero;fill:rgb(100%,84.3%,0%);fill-opacity:1;" d="M 451.703125 300.726562 C 451.703125 304.320312 446.308594 304.320312 446.308594 300.726562 C 446.308594 297.128906 451.703125 297.128906 451.703125 300.726562 "/>
<path style=" stroke:none;fill-rule:nonzero;fill:rgb(100%,84.3%,0%);fill-opacity:1;" d="M 141.066406 313.589844 C 141.066406 317.183594 135.671875 317.183594 135.671875 313.589844 C 135.671875 309.992188 141.066406 309.992188 141.066406 313.589844 "/>
<path style=" stroke:none;fill-rule:nonzero;fill:rgb(100%,84.3%,0%);fill-opacity:1;" d="M 76.589844 342.359375 C 76.589844 345.953125 71.195312 345.953125 71.195312 342.359375 C 71.195312 338.761719 76.589844 338.761719 76.589844 342.359375 "/>
<path style=" stroke:none;fill-rule:nonzero;fill:rgb(100%,84.3%,0%);fill-opacity:1;" d="M 446.84375 249.65625 C 446.84375 253.25 441.449219 253.25 441.449219 249.65625 C 441.449219 246.058594 446.84375 246.058594 446.84375 249.65625 "/>
<path style=" stroke:none;fill-rule:nonzero;fill:rgb(100%,84.3%,0%);fill-opacity:1;" d="M 408.238281 299.894531 C 408.238281 303.492188 402.84375 303.492188 402.84375 299.894531 C 402.84375 296.300781 408.238281 296.300781 408.238281 299.894531 "/>
<path style=" stroke:none;fill-rule:nonzero;fill:rgb(100%,84.3%,0%);fill-opacity:1;" d="M 327.769531 344.636719 C 327.769531 348.234375 322.375 348.234375 322.375 344.636719 C 322.375 341.039062 327.769531 341.039062 327.769531 344.636719 "/>
<path style=" stroke:none;fill-rule:nonzero;fill:rgb(100%,84.3%,0%);fill-opacity:1;" d="M 369.332031 284.6875 C 369.332031 288.28125 363.9375 288.28125 363.9375 284.6875 C 363.9375 281.089844 369.332031 281.089844 369.332031 284.6875 "/>
<path style=" stroke:none;fill-rule:nonzero;fill:rgb(100%,84.3%,0%);fill-opacity:1;" d="M 338.710938 311.582031 C 338.710938 315.179688 333.316406 315.179688 333.316406 311.582031 C 333.316406 307.984375 338.710938 307.984375 338.710938 311.582031 "/>
<path style=" stroke:none;fill-rule:nonzero;fill:rgb(100%,84.3%,0%);fill-opacity:1;" d="M 107.632812 281.851562 C 107.632812 285.445312 102.238281 285.445312 102.238281 281.851562 C 102.238281 278.253906 107.632812 278.253906 107.632812 281.851562 "/>
<path style=" stroke:none;fill-rule:nonzero;fill:rgb(100%,84.3%,0%);fill-opacity:1;" d="M 96.878906 280.917969 C 96.878906 284.515625 91.484375 284.515625 91.484375 280.917969 C 91.484375 277.324219 96.878906 277.324219 96.878906 280.917969 "/>
<path style=" stroke:none;fill-rule:nonzero;fill:rgb(100%,84.3%,0%);fill-opacity:1;" d="M 117.46875 284.929688 C 117.46875 288.523438 112.074219 288.523438 112.074219 284.929688 C 112.074219 281.332031 117.46875 281.332031 117.46875 284.929688 "/>
<path style=" stroke:none;fill-rule:nonzero;fill:rgb(100%,84.3%,0%);fill-opacity:1;" d="M 413.898438 249.382812 C 413.898438 252.980469 408.503906 252.980469 408.503906 249.382812 C 408.503906 245.785156 413.898438 245.785156 413.898438 249.382812 "/>
<path style=" stroke:none;fill-rule:nonzero;fill:rgb(100%,84.3%,0%);fill-opacity:1;" d="M 194.183594 351.484375 C 194.183594 355.078125 188.789062 355.078125 188.789062 351.484375 C 188.789062 347.886719 194.183594 347.886719 194.183594 351.484375 "/>
<path style=" stroke:none;fill-rule:nonzero;fill:rgb(100%,84.3%,0%);fill-opacity:1;" d="M 140.761719 248.136719 C 140.761719 251.734375 135.367188 251.734375 135.367188 248.136719 C 135.367188 244.539062 140.761719 244.539062 140.761719 248.136719 "/>
<path style=" stroke:none;fill-rule:nonzero;fill:rgb(100%,84.3%,0%);fill-opacity:1;" d="M 181.339844 323.757812 C 181.339844 327.351562 175.945312 327.351562 175.945312 323.757812 C 175.945312 320.160156 181.339844 320.160156 181.339844 323.757812 "/>
<path style=" stroke:none;fill-rule:nonzero;fill:rgb(100%,84.3%,0%);fill-opacity:1;" d="M 75.296875 213.980469 C 75.296875 217.574219 69.902344 217.574219 69.902344 213.980469 C 69.902344 210.382812 75.296875 210.382812 75.296875 213.980469 "/>
<path style=" stroke:none;fill-rule:nonzero;fill:rgb(100%,84.3%,0%);fill-opacity:1;" d="M 173.894531 214.425781 C 173.894531 218.019531 168.5 218.019531 168.5 214.425781 C 168.5 210.828125 173.894531 210.828125 173.894531 214.425781 "/>
<path style=" stroke:none;fill-rule:nonzero;fill:rgb(100%,84.3%,0%);fill-opacity:1;" d="M 53.71875 345.539062 C 53.71875 349.136719 48.324219 349.136719 48.324219 345.539062 C 48.324219 341.941406 53.71875 341.941406 53.71875 345.539062 "/>
<path style=" stroke:none;fill-rule:nonzero;fill:rgb(100%,84.3%,0%);fill-opacity:1;" d="M 295.316406 177.328125 C 295.316406 180.925781 289.925781 180.925781 289.925781 177.328125 C 289.925781 173.734375 295.316406 173.734375 295.316406 177.328125 "/>
<path style=" stroke:none;fill-rule:nonzero;fill:rgb(100%,84.3%,0%);fill-opacity:1;" d="M 349.042969 346.125 C 349.042969 349.722656 343.648438 349.722656 343.648438 346.125 C 343.648438 342.53125 349.042969 342.53125 349.042969 346.125 "/>
<path style=" stroke:none;fill-rule:nonzero;fill:rgb(100%,84.3%,0%);fill-opacity:1;" d="M 52.238281 251.144531 C 52.238281 254.742188 46.84375 254.742188 46.84375 251.144531 C 46.84375 247.550781 52.238281 247.550781 52.238281 251.144531 "/>
<path style=" stroke:none;fill-rule:nonzero;fill:rgb(100%,84.3%,0%);fill-opacity:1;" d="M 405.726562 306.710938 C 405.726562 310.308594 400.335938 310.308594 400.335938 306.710938 C 400.335938 303.117188 405.726562 303.117188 405.726562 306.710938 "/>
<path style=" stroke:none;fill-rule:nonzero;fill:rgb(100%,84.3%,0%);fill-opacity:1;" d="M 356.910156 223.347656 C 356.910156 226.941406 351.515625 226.941406 351.515625 223.347656 C 351.515625 219.75 356.910156 219.75 356.910156 223.347656 "/>
<path style=" stroke:none;fill-rule:nonzero;fill:rgb(100%,84.3%,0%);fill-opacity:1;" d="M 438.480469 340.972656 C 438.480469 344.566406 433.089844 344.566406 433.089844 340.972656 C 433.089844 337.375 438.480469 337.375 438.480469 340.972656 "/>
<path style=" stroke:none;fill-rule:nonzero;fill:rgb(100%,84.3%,0%);fill-opacity:1;" d="M 159.265625 225.351562 C 159.265625 228.945312 153.871094 228.945312 153.871094 225.351562 C 153.871094 221.753906 159.265625 221.753906 159.265625 225.351562 "/>
<path style=" stroke:none;fill-rule:nonzero;fill:rgb(100%,84.3%,0%);fill-opacity:1;" d="M 101.359375 201.460938 C 101.359375 205.058594 95.96875 205.058594 95.96875 201.460938 C 95.96875 197.867188 101.359375 197.867188 101.359375 201.460938 "/>
<path style=" stroke:none;fill-rule:nonzero;fill:rgb(100%,84.3%,0%);fill-opacity:1;" d="M 147.410156 260.554688 C 147.410156 264.148438 142.015625 264.148438 142.015625 260.554688 C 142.015625 256.957031 147.410156 256.957031 147.410156 260.554688 "/>
<path style=" stroke:none;fill-rule:nonzero;fill:rgb(100%,84.3%,0%);fill-opacity:1;" d="M 103.757812 293.710938 C 103.757812 297.304688 98.363281 297.304688 98.363281 293.710938 C 98.363281 290.113281 103.757812 290.113281 103.757812 293.710938 "/>
<path style=" stroke:none;fill-rule:nonzero;fill:rgb(100%,84.3%,0%);fill-opacity:1;" d="M 352.046875 172.273438 C 352.046875 175.871094 346.652344 175.871094 346.652344 172.273438 C 346.652344 168.679688 352.046875 168.679688 352.046875 172.273438 "/>
<path style=" stroke:none;fill-rule:nonzero;fill:rgb(100%,84.3%,0%);fill-opacity:1;" d="M 433.011719 158.996094 C 433.011719 162.59375 427.617188 162.59375 427.617188 158.996094 C 427.617188 155.402344 433.011719 155.402344 433.011719 158.996094 "/>
<path style=" stroke:none;fill-rule:nonzero;fill:rgb(100%,84.3%,0%);fill-opacity:1;" d="M 100.070312 271.582031 C 100.070312 275.175781 94.675781 275.175781 94.675781 271.582031 C 94.675781 267.984375 100.070312 267.984375 100.070312 271.582031 "/>
<path style=" stroke:none;fill-rule:nonzero;fill:rgb(100%,84.3%,0%);fill-opacity:1;" d="M 449.003906 341.527344 C 449.003906 345.125 443.609375 345.125 443.609375 341.527344 C 443.609375 337.933594 449.003906 337.933594 449.003906 341.527344 "/>
<path style=" stroke:none;fill-rule:nonzero;fill:rgb(100%,84.3%,0%);fill-opacity:1;" d="M 297.828125 170.511719 C 297.828125 174.109375 292.433594 174.109375 292.433594 170.511719 C 292.433594 166.917969 297.828125 166.917969 297.828125 170.511719 "/>
<path style=" stroke:none;fill-rule:nonzero;fill:rgb(100%,84.3%,0%);fill-opacity:1;" d="M 185.636719 278.285156 C 185.636719 281.882812 180.242188 281.882812 180.242188 278.285156 C 180.242188 274.6875 185.636719 274.6875 185.636719 278.285156 "/>
<path style=" stroke:none;fill-rule:nonzero;fill:rgb(100%,84.3%,0%);fill-opacity:1;" d="M 106.527344 317.984375 C 106.527344 321.578125 101.132812 321.578125 101.132812 317.984375 C 101.132812 314.386719 106.527344 314.386719 106.527344 317.984375 "/>
<path style=" stroke:none;fill-rule:nonzero;fill:rgb(100%,84.3%,0%);fill-opacity:1;" d="M 291.066406 257.160156 C 291.066406 260.757812 285.671875 260.757812 285.671875 257.160156 C 285.671875 253.5625 291.066406 253.5625 291.066406 257.160156 "/>
<path style=" stroke:none;fill-rule:nonzero;fill:rgb(100%,84.3%,0%);fill-opacity:1;" d="M 89.621094 336.101562 C 89.621094 339.695312 84.226562 339.695312 84.226562 336.101562 C 84.226562 332.503906 89.621094 332.503906 89.621094 336.101562 "/>
<path style=" stroke:none;fill-rule:nonzero;fill:rgb(100%,84.3%,0%);fill-opacity:1;" d="M 125.148438 196.136719 C 125.148438 199.730469 119.753906 199.730469 119.753906 196.136719 C 119.753906 192.539062 125.148438 192.539062 125.148438 196.136719 "/>
<path style=" stroke:none;fill-rule:nonzero;fill:rgb(100%,84.3%,0%);fill-opacity:1;" d="M 324.574219 353.976562 C 324.574219 357.570312 319.179688 357.570312 319.179688 353.976562 C 319.179688 350.378906 324.574219 350.378906 324.574219 353.976562 "/>
<path style=" stroke:none;fill-rule:nonzero;fill:rgb(100%,84.3%,0%);fill-opacity:1;" d="M 260.707031 315.148438 C 260.707031 318.742188 255.3125 318.742188 255.3125 315.148438 C 255.3125 311.550781 260.707031 311.550781 260.707031 315.148438 "/>
<path style=" stroke:none;fill-rule:nonzero;fill:rgb(100%,84.3%,0%);fill-opacity:1;" d="M 320.019531 169.855469 C 320.019531 173.449219 314.625 173.449219 314.625 169.855469 C 314.625 166.257812 320.019531 166.257812 320.019531 169.855469 "/>
<path style=" stroke:none;fill-rule:nonzero;fill:rgb(100%,84.3%,0%);fill-opacity:1;" d="M 401.664062 352.558594 C 401.664062 356.152344 396.269531 356.152344 396.269531 352.558594 C 396.269531 348.960938 401.664062 348.960938 401.664062 352.558594 "/>
<path style=" stroke:none;fill-rule:nonzero;fill:rgb(100%,84.3%,0%);fill-opacity:1;" d="M 258.121094 256.886719 C 258.121094 260.484375 252.730469 260.484375 252.730469 256.886719 C 252.730469 253.289062 258.121094 253.289062 258.121094 256.886719 "/>
<path style=" stroke:none;fill-rule:nonzero;fill:rgb(100%,84.3%,0%);fill-opacity:1;" d="M 355.617188 293.464844 C 355.617188 297.0625 350.222656 297.0625 350.222656 293.464844 C 350.222656 289.867188 355.617188 289.867188 355.617188 293.464844 "/>
<path style=" stroke:none;fill-rule:nonzero;fill:rgb(100%,84.3%,0%);fill-opacity:1;" d="M 106.339844 351.96875 C 106.339844 355.566406 100.945312 355.566406 100.945312 351.96875 C 100.945312 348.371094 106.339844 348.371094 106.339844 351.96875 "/>
<path style=" stroke:none;fill-rule:nonzero;fill:rgb(100%,84.3%,0%);fill-opacity:1;" d="M 302.808594 321.019531 C 302.808594 324.617188 297.414062 324.617188 297.414062 321.019531 C 297.414062 317.425781 302.808594 317.425781 302.808594 321.019531 "/>
<path style=" stroke:none;fill-rule:nonzero;fill:rgb(100%,84.3%,0%);fill-opacity:1;" d="M 225.71875 322.4375 C 225.71875 326.035156 220.324219 326.035156 220.324219 322.4375 C 220.324219 318.84375 225.71875 318.84375 225.71875 322.4375 "/>
<path style=" stroke:none;fill-rule:nonzero;fill:rgb(100%,84.3%,0%);fill-opacity:1;" d="M 160.746094 319.746094 C 160.746094 323.339844 155.351562 323.339844 155.351562 319.746094 C 155.351562 316.148438 160.746094 316.148438 160.746094 319.746094 "/>
<path style=" stroke:none;fill-rule:nonzero;fill:rgb(100%,84.3%,0%);fill-opacity:1;" d="M 352.425781 302.804688 C 352.425781 306.398438 347.03125 306.398438 347.03125 302.804688 C 347.03125 299.207031 352.425781 299.207031 352.425781 302.804688 "/>
<path style=" stroke:none;fill-rule:nonzero;fill:rgb(100%,84.3%,0%);fill-opacity:1;" d="M 85.746094 347.960938 C 85.746094 351.554688 80.351562 351.554688 80.351562 347.960938 C 80.351562 344.363281 85.746094 344.363281 85.746094 347.960938 "/>
<path style=" stroke:none;fill-rule:nonzero;fill:rgb(100%,84.3%,0%);fill-opacity:1;" d="M 251.054688 278.082031 C 251.054688 281.679688 245.660156 281.679688 245.660156 278.082031 C 245.660156 274.488281 251.054688 274.488281 251.054688 278.082031 "/>
<path style=" stroke:none;fill-rule:nonzero;fill:rgb(100%,84.3%,0%);fill-opacity:1;" d="M 145.4375 333.195312 C 145.4375 336.789062 140.042969 336.789062 140.042969 333.195312 C 140.042969 329.597656 145.4375 329.597656 145.4375 333.195312 "/>
<path style=" stroke:none;fill-rule:nonzero;fill:rgb(100%,84.3%,0%);fill-opacity:1;" d="M 204.023438 354.5625 C 204.023438 358.15625 198.628906 358.15625 198.628906 354.5625 C 198.628906 350.964844 204.023438 350.964844 204.023438 354.5625 "/>
<path style=" stroke:none;fill-rule:nonzero;fill:rgb(100%,84.3%,0%);fill-opacity:1;" d="M 337.605469 347.714844 C 337.605469 351.3125 332.214844 351.3125 332.214844 347.714844 C 332.214844 344.121094 337.605469 344.121094 337.605469 347.714844 "/>
<path style=" stroke:none;fill-rule:nonzero;fill:rgb(100%,84.3%,0%);fill-opacity:1;" d="M 186.621094 341.214844 C 186.621094 344.808594 181.226562 344.808594 181.226562 341.214844 C 181.226562 337.617188 186.621094 337.617188 186.621094 341.214844 "/>
<path style=" stroke:none;fill-rule:nonzero;fill:rgb(100%,84.3%,0%);fill-opacity:1;" d="M 190.308594 164.84375 C 190.308594 168.4375 184.914062 168.4375 184.914062 164.84375 C 184.914062 161.246094 190.308594 161.246094 190.308594 164.84375 "/>
<path style=" stroke:none;fill-rule:nonzero;fill:rgb(100%,84.3%,0%);fill-opacity:1;" d="M 130.921875 245.058594 C 130.921875 248.652344 125.527344 248.652344 125.527344 245.058594 C 125.527344 241.460938 130.921875 241.460938 130.921875 245.058594 "/>
<path style=" stroke:none;fill-rule:nonzero;fill:rgb(100%,84.3%,0%);fill-opacity:1;" d="M 225.90625 288.453125 C 225.90625 292.050781 220.511719 292.050781 220.511719 288.453125 C 220.511719 284.855469 225.90625 284.855469 225.90625 288.453125 "/>
<path style=" stroke:none;fill-rule:nonzero;fill:rgb(100%,84.3%,0%);fill-opacity:1;" d="M 230.765625 339.523438 C 230.765625 343.121094 225.371094 343.121094 225.371094 339.523438 C 225.371094 335.929688 230.765625 335.929688 230.765625 339.523438 "/>
<path style=" stroke:none;fill-rule:nonzero;fill:rgb(100%,84.3%,0%);fill-opacity:1;" d="M 56.417969 304.738281 C 56.417969 308.332031 51.023438 308.332031 51.023438 304.738281 C 51.023438 301.140625 56.417969 301.140625 56.417969 304.738281 "/>
<path style=" stroke:none;fill-rule:nonzero;fill:rgb(100%,84.3%,0%);fill-opacity:1;" d="M 396.804688 301.484375 C 396.804688 305.082031 391.410156 305.082031 391.410156 301.484375 C 391.410156 297.890625 396.804688 297.890625 396.804688 301.484375 "/>
<path style=" stroke:none;fill-rule:nonzero;fill:rgb(100%,84.3%,0%);fill-opacity:1;" d="M 90.417969 234.515625 C 90.417969 238.113281 85.023438 238.113281 85.023438 234.515625 C 85.023438 230.921875 90.417969 230.921875 90.417969 234.515625 "/>
<path style=" stroke:none;fill-rule:nonzero;fill:rgb(100%,84.3%,0%);fill-opacity:1;" d="M 381.1875 249.484375 C 381.1875 253.078125 375.792969 253.078125 375.792969 249.484375 C 375.792969 245.886719 381.1875 245.886719 381.1875 249.484375 "/>
<path style=" stroke:none;fill-rule:nonzero;fill:rgb(100%,84.3%,0%);fill-opacity:1;" d="M 424.230469 283.925781 C 424.230469 287.523438 418.835938 287.523438 418.835938 283.925781 C 418.835938 280.328125 424.230469 280.328125 424.230469 283.925781 "/>
<path style=" stroke:none;fill-rule:nonzero;fill:rgb(100%,84.3%,0%);fill-opacity:1;" d="M 183.125 285.101562 C 183.125 288.695312 177.730469 288.695312 177.730469 285.101562 C 177.730469 281.503906 183.125 281.503906 183.125 285.101562 "/>
<path style=" stroke:none;fill-rule:nonzero;fill:rgb(100%,84.3%,0%);fill-opacity:1;" d="M 113.101562 265.324219 C 113.101562 268.917969 107.707031 268.917969 107.707031 265.324219 C 107.707031 261.726562 113.101562 261.726562 113.101562 265.324219 "/>
<path style=" stroke:none;fill-rule:nonzero;fill:rgb(100%,84.3%,0%);fill-opacity:1;" d="M 353.902344 198.695312 C 353.902344 202.292969 348.511719 202.292969 348.511719 198.695312 C 348.511719 195.101562 353.902344 195.101562 353.902344 198.695312 "/>
<path style=" stroke:none;fill-rule:nonzero;fill:rgb(100%,84.3%,0%);fill-opacity:1;" d="M 69.824219 230.507812 C 69.824219 234.101562 64.433594 234.101562 64.433594 230.507812 C 64.433594 226.910156 69.824219 226.910156 69.824219 230.507812 "/>
<path style=" stroke:none;fill-rule:nonzero;fill:rgb(100%,84.3%,0%);fill-opacity:1;" d="M 114.511719 294.640625 C 114.511719 298.234375 109.117188 298.234375 109.117188 294.640625 C 109.117188 291.042969 114.511719 291.042969 114.511719 294.640625 "/>
<path style=" stroke:none;fill-rule:nonzero;fill:rgb(100%,84.3%,0%);fill-opacity:1;" d="M 403.941406 345.367188 C 403.941406 348.964844 398.550781 348.964844 398.550781 345.367188 C 398.550781 341.769531 403.941406 341.769531 403.941406 345.367188 "/>
<path style=" stroke:none;fill-rule:nonzero;fill:rgb(100%,84.3%,0%);fill-opacity:1;" d="M 459.265625 310.996094 C 459.265625 314.589844 453.871094 314.589844 453.871094 310.996094 C 453.871094 307.398438 459.265625 307.398438 459.265625 310.996094 "/>
<path style=" stroke:none;fill-rule:nonzero;fill:rgb(100%,84.3%,0%);fill-opacity:1;" d="M 95.585938 351.039062 C 95.585938 354.632812 90.191406 354.632812 90.191406 351.039062 C 90.191406 347.441406 95.585938 347.441406 95.585938 351.039062 "/>
<path style=" stroke:none;fill-rule:nonzero;fill:rgb(100%,84.3%,0%);fill-opacity:1;" d="M 101.171875 235.449219 C 101.171875 239.042969 95.777344 239.042969 95.777344 235.449219 C 95.777344 231.851562 101.171875 231.851562 101.171875 235.449219 "/>
<path style=" stroke:none;fill-rule:nonzero;fill:rgb(100%,84.3%,0%);fill-opacity:1;" d="M 113.40625 330.773438 C 113.40625 334.367188 108.011719 334.367188 108.011719 330.773438 C 108.011719 327.175781 113.40625 327.175781 113.40625 330.773438 "/>
<path style=" stroke:none;fill-rule:nonzero;fill:rgb(100%,84.3%,0%);fill-opacity:1;" d="M 142.242188 342.53125 C 142.242188 346.128906 136.847656 346.128906 136.847656 342.53125 C 136.847656 338.933594 142.242188 338.933594 142.242188 342.53125 "/>
<path style=" stroke:none;fill-rule:nonzero;fill:rgb(100%,84.3%,0%);fill-opacity:1;" d="M 392.203125 281.507812 C 392.203125 285.101562 386.808594 285.101562 386.808594 281.507812 C 386.808594 277.910156 392.203125 277.910156 392.203125 281.507812 "/>
<path style=" stroke:none;fill-rule:nonzero;fill:rgb(100%,84.3%,0%);fill-opacity:1;" d="M 270.472656 253.148438 C 270.472656 256.746094 265.078125 256.746094 265.078125 253.148438 C 265.078125 249.554688 270.472656 249.554688 270.472656 253.148438 "/>
<path style=" stroke:none;fill-rule:nonzero;fill:rgb(100%,84.3%,0%);fill-opacity:1;" d="M 205.007812 218.992188 C 205.007812 222.589844 199.613281 222.589844 199.613281 218.992188 C 199.613281 215.394531 205.007812 215.394531 205.007812 218.992188 "/>
<path style=" stroke:none;fill-rule:nonzero;fill:rgb(100%,84.3%,0%);fill-opacity:1;" d="M 217.664062 280.703125 C 217.664062 284.300781 212.269531 284.300781 212.269531 280.703125 C 212.269531 277.109375 217.664062 277.109375 217.664062 280.703125 "/>
<path style=" stroke:none;fill-rule:nonzero;fill:rgb(100%,84.3%,0%);fill-opacity:1;" d="M 342.585938 299.722656 C 342.585938 303.320312 337.191406 303.320312 337.191406 299.722656 C 337.191406 296.128906 342.585938 296.128906 342.585938 299.722656 "/>
<path style=" stroke:none;fill-rule:nonzero;fill:rgb(100%,84.3%,0%);fill-opacity:1;" d="M 397.296875 332.949219 C 397.296875 336.546875 391.902344 336.546875 391.902344 332.949219 C 391.902344 329.355469 397.296875 329.355469 397.296875 332.949219 "/>
<path style=" stroke:none;fill-rule:nonzero;fill:rgb(100%,84.3%,0%);fill-opacity:1;" d="M 274.230469 340.355469 C 274.230469 343.949219 268.839844 343.949219 268.839844 340.355469 C 268.839844 336.757812 274.230469 336.757812 274.230469 340.355469 "/>
<path style=" stroke:none;fill-rule:nonzero;fill:rgb(100%,84.3%,0%);fill-opacity:1;" d="M 370.738281 314.003906 C 370.738281 317.597656 365.34375 317.597656 365.34375 314.003906 C 365.34375 310.40625 370.738281 310.40625 370.738281 314.003906 "/>
<path style=" stroke:none;fill-rule:nonzero;fill:rgb(100%,84.3%,0%);fill-opacity:1;" d="M 100.1875 172.519531 C 100.1875 176.113281 94.792969 176.113281 94.792969 172.519531 C 94.792969 168.921875 100.1875 168.921875 100.1875 172.519531 "/>
<path style=" stroke:none;fill-rule:nonzero;fill:rgb(100%,84.3%,0%);fill-opacity:1;" d="M 335.707031 286.933594 C 335.707031 290.53125 330.3125 290.53125 330.3125 286.933594 C 330.3125 283.339844 335.707031 283.339844 335.707031 286.933594 "/>
<path style=" stroke:none;fill-rule:nonzero;fill:rgb(100%,84.3%,0%);fill-opacity:1;" d="M 324.386719 189.460938 C 324.386719 193.058594 318.992188 193.058594 318.992188 189.460938 C 318.992188 185.863281 324.386719 185.863281 324.386719 189.460938 "/>
<path style=" stroke:none;fill-rule:nonzero;fill:rgb(100%,84.3%,0%);fill-opacity:1;" d="M 452.195312 332.191406 C 452.195312 335.785156 446.800781 335.785156 446.800781 332.191406 C 446.800781 328.59375 452.195312 328.59375 452.195312 332.191406 "/>
<path style=" stroke:none;fill-rule:nonzero;fill:rgb(100%,84.3%,0%);fill-opacity:1;" d="M 264.582031 303.289062 C 264.582031 306.886719 259.1875 306.886719 259.1875 303.289062 C 259.1875 299.691406 264.582031 299.691406 264.582031 303.289062 "/>
<path style=" stroke:none;fill-rule:nonzero;fill:rgb(100%,84.3%,0%);fill-opacity:1;" d="M 294.144531 346.886719 C 294.144531 350.480469 288.75 350.480469 288.75 346.886719 C 288.75 343.289062 294.144531 343.289062 294.144531 346.886719 "/>
<path style=" stroke:none;fill-rule:nonzero;fill:rgb(100%,84.3%,0%);fill-opacity:1;" d="M 207.519531 212.175781 C 207.519531 215.769531 202.125 215.769531 202.125 212.175781 C 202.125 208.578125 207.519531 208.578125 207.519531 212.175781 "/>
<path style=" stroke:none;fill-rule:nonzero;fill:rgb(100%,84.3%,0%);fill-opacity:1;" d="M 138.0625 288.9375 C 138.0625 292.535156 132.667969 292.535156 132.667969 288.9375 C 132.667969 285.34375 138.0625 285.34375 138.0625 288.9375 "/>
<path style=" stroke:none;fill-rule:nonzero;fill:rgb(100%,84.3%,0%);fill-opacity:1;" d="M 53.222656 314.074219 C 53.222656 317.671875 47.828125 317.671875 47.828125 314.074219 C 47.828125 310.476562 53.222656 310.476562 53.222656 314.074219 "/>
<path style=" stroke:none;fill-rule:nonzero;fill:rgb(100%,84.3%,0%);fill-opacity:1;" d="M 284.375 210.382812 C 284.375 213.980469 278.980469 213.980469 278.980469 210.382812 C 278.980469 206.789062 284.375 206.789062 284.375 210.382812 "/>
<path style=" stroke:none;fill-rule:nonzero;fill:rgb(100%,84.3%,0%);fill-opacity:1;" d="M 281.792969 350.621094 C 281.792969 354.21875 276.398438 354.21875 276.398438 350.621094 C 276.398438 347.027344 281.792969 347.027344 281.792969 350.621094 "/>
<path style=" stroke:none;fill-rule:nonzero;fill:rgb(100%,84.3%,0%);fill-opacity:1;" d="M 71.539062 325.273438 C 71.539062 328.871094 66.144531 328.871094 66.144531 325.273438 C 66.144531 321.679688 71.539062 321.679688 71.539062 325.273438 "/>
<path style=" stroke:none;fill-rule:nonzero;fill:rgb(100%,84.3%,0%);fill-opacity:1;" d="M 72.410156 288.765625 C 72.410156 292.363281 67.015625 292.363281 67.015625 288.765625 C 67.015625 285.171875 72.410156 285.171875 72.410156 288.765625 "/>
<path style=" stroke:none;fill-rule:nonzero;fill:rgb(100%,84.3%,0%);fill-opacity:1;" d="M 116.296875 255.984375 C 116.296875 259.582031 110.902344 259.582031 110.902344 255.984375 C 110.902344 252.390625 116.296875 252.390625 116.296875 255.984375 "/>
<path style=" stroke:none;fill-rule:nonzero;fill:rgb(100%,84.3%,0%);fill-opacity:1;" d="M 65.152344 343.949219 C 65.152344 347.546875 59.757812 347.546875 59.757812 343.949219 C 59.757812 340.351562 65.152344 340.351562 65.152344 343.949219 "/>
<path style=" stroke:none;fill-rule:nonzero;fill:rgb(100%,84.3%,0%);fill-opacity:1;" d="M 94.597656 288.109375 C 94.597656 291.703125 89.203125 291.703125 89.203125 288.109375 C 89.203125 284.511719 94.597656 284.511719 94.597656 288.109375 "/>
<path style=" stroke:none;fill-rule:nonzero;fill:rgb(100%,84.3%,0%);fill-opacity:1;" d="M 361.464844 208.964844 C 361.464844 212.5625 356.070312 212.5625 356.070312 208.964844 C 356.070312 205.371094 361.464844 205.371094 361.464844 208.964844 "/>
<path style=" stroke:none;fill-rule:nonzero;fill:rgb(100%,84.3%,0%);fill-opacity:1;" d="M 321.308594 298.234375 C 321.308594 301.832031 315.914062 301.832031 315.914062 298.234375 C 315.914062 294.640625 321.308594 294.640625 321.308594 298.234375 "/>
<path style=" stroke:none;fill-rule:nonzero;fill:rgb(100%,84.3%,0%);fill-opacity:1;" d="M 91.40625 297.445312 C 91.40625 301.042969 86.011719 301.042969 86.011719 297.445312 C 86.011719 293.851562 91.40625 293.851562 91.40625 297.445312 "/>
<path style=" stroke:none;fill-rule:nonzero;fill:rgb(100%,84.3%,0%);fill-opacity:1;" d="M 464.734375 294.46875 C 464.734375 298.0625 459.339844 298.0625 459.339844 294.46875 C 459.339844 290.871094 464.734375 290.871094 464.734375 294.46875 "/>
<path style=" stroke:none;fill-rule:nonzero;fill:rgb(100%,84.3%,0%);fill-opacity:1;" d="M 459.757812 342.460938 C 459.757812 346.054688 454.363281 346.054688 454.363281 342.460938 C 454.363281 338.863281 459.757812 338.863281 459.757812 342.460938 "/>
<path style=" stroke:none;fill-rule:nonzero;fill:rgb(100%,84.3%,0%);fill-opacity:1;" d="M 117.585938 185.867188 C 117.585938 189.460938 112.191406 189.460938 112.191406 185.867188 C 112.191406 182.269531 117.585938 182.269531 117.585938 185.867188 "/>
<path style=" stroke:none;fill-rule:nonzero;fill:rgb(100%,84.3%,0%);fill-opacity:1;" d="M 61.277344 157.308594 C 61.277344 160.902344 55.886719 160.902344 55.886719 157.308594 C 55.886719 153.710938 61.277344 153.710938 61.277344 157.308594 "/>
<path style=" stroke:none;fill-rule:nonzero;fill:rgb(100%,84.3%,0%);fill-opacity:1;" d="M 240.839844 342.976562 C 240.839844 346.570312 235.445312 346.570312 235.445312 342.976562 C 235.445312 339.378906 240.839844 339.378906 240.839844 342.976562 "/>
<path style=" stroke:none;fill-rule:nonzero;fill:rgb(100%,84.3%,0%);fill-opacity:1;" d="M 66.9375 305.292969 C 66.9375 308.890625 61.542969 308.890625 61.542969 305.292969 C 61.542969 301.699219 66.9375 301.699219 66.9375 305.292969 "/>
<path style=" stroke:none;fill-rule:nonzero;fill:rgb(100%,84.3%,0%);fill-opacity:1;" d="M 365.644531 262.558594 C 365.644531 266.152344 360.25 266.152344 360.25 262.558594 C 360.25 258.960938 365.644531 258.960938 365.644531 262.558594 "/>
<path style=" stroke:none;fill-rule:nonzero;fill:rgb(100%,84.3%,0%);fill-opacity:1;" d="M 167.8125 298.550781 C 167.8125 302.144531 162.417969 302.144531 162.417969 298.550781 C 162.417969 294.953125 167.8125 294.953125 167.8125 298.550781 "/>
<path style=" stroke:none;fill-rule:nonzero;fill:rgb(100%,84.3%,0%);fill-opacity:1;" d="M 267.773438 293.953125 C 267.773438 297.546875 262.378906 297.546875 262.378906 293.953125 C 262.378906 290.355469 267.773438 290.355469 267.773438 293.953125 "/>
<path style=" stroke:none;fill-rule:nonzero;fill:rgb(100%,84.3%,0%);fill-opacity:1;" d="M 215.457031 352.972656 C 215.457031 356.566406 210.0625 356.566406 210.0625 352.972656 C 210.0625 349.375 215.457031 349.375 215.457031 352.972656 "/>
<path style=" stroke:none;fill-rule:nonzero;fill:rgb(100%,84.3%,0%);fill-opacity:1;" d="M 466.636719 156.75 C 466.636719 160.347656 461.242188 160.347656 461.242188 156.75 C 461.242188 153.152344 466.636719 153.152344 466.636719 156.75 "/>
<path style=" stroke:none;fill-rule:nonzero;fill:rgb(100%,84.3%,0%);fill-opacity:1;" d="M 290.269531 160.242188 C 290.269531 163.839844 284.875 163.839844 284.875 160.242188 C 284.875 156.648438 290.269531 156.648438 290.269531 160.242188 "/>
<path style=" stroke:none;fill-rule:nonzero;fill:rgb(100%,84.3%,0%);fill-opacity:1;" d="M 58.203125 266.082031 C 58.203125 269.679688 52.808594 269.679688 52.808594 266.082031 C 52.808594 262.484375 58.203125 262.484375 58.203125 266.082031 "/>
<path style=" stroke:none;fill-rule:nonzero;fill:rgb(100%,84.3%,0%);fill-opacity:1;" d="M 63.367188 184.105469 C 63.367188 187.699219 57.972656 187.699219 57.972656 184.105469 C 57.972656 180.507812 63.367188 180.507812 63.367188 184.105469 "/>
<path style=" stroke:none;fill-rule:nonzero;fill:rgb(100%,84.3%,0%);fill-opacity:1;" d="M 55.996094 338.347656 C 55.996094 341.945312 50.601562 341.945312 50.601562 338.347656 C 50.601562 334.753906 55.996094 334.753906 55.996094 338.347656 "/>
<path style=" stroke:none;fill-rule:nonzero;fill:rgb(100%,84.3%,0%);fill-opacity:1;" d="M 442.242188 229.675781 C 442.242188 233.273438 436.847656 233.273438 436.847656 229.675781 C 436.847656 226.078125 442.242188 226.078125 442.242188 229.675781 "/>
<path style=" stroke:none;fill-rule:nonzero;fill:rgb(100%,84.3%,0%);fill-opacity:1;" d="M 210.902344 168.851562 C 210.902344 172.449219 205.507812 172.449219 205.507812 168.851562 C 205.507812 165.257812 210.902344 165.257812 210.902344 168.851562 "/>
<path style=" stroke:none;fill-rule:nonzero;fill:rgb(100%,84.3%,0%);fill-opacity:1;" d="M 60.480469 258.890625 C 60.480469 262.488281 55.085938 262.488281 55.085938 258.890625 C 55.085938 255.296875 60.480469 255.296875 60.480469 258.890625 "/>
<path style=" stroke:none;fill-rule:nonzero;fill:rgb(100%,84.3%,0%);fill-opacity:1;" d="M 259.53125 286.203125 C 259.53125 289.800781 254.136719 289.800781 254.136719 286.203125 C 254.136719 282.609375 259.53125 282.609375 259.53125 286.203125 "/>
<path style=" stroke:none;fill-rule:nonzero;fill:rgb(100%,84.3%,0%);fill-opacity:1;" d="M 280.429688 157.164062 C 280.429688 160.761719 275.035156 160.761719 275.035156 157.164062 C 275.035156 153.570312 280.429688 153.570312 280.429688 157.164062 "/>
<path style=" stroke:none;fill-rule:nonzero;fill:rgb(100%,84.3%,0%);fill-opacity:1;" d="M 109.722656 308.644531 C 109.722656 312.242188 104.328125 312.242188 104.328125 308.644531 C 104.328125 305.050781 109.722656 305.050781 109.722656 308.644531 "/>
<path style=" stroke:none;fill-rule:nonzero;fill:rgb(100%,84.3%,0%);fill-opacity:1;" d="M 399.574219 325.761719 C 399.574219 329.355469 394.179688 329.355469 394.179688 325.761719 C 394.179688 322.164062 399.574219 322.164062 399.574219 325.761719 "/>
<path style=" stroke:none;fill-rule:nonzero;fill:rgb(100%,84.3%,0%);fill-opacity:1;" d="M 140.574219 282.121094 C 140.574219 285.71875 135.179688 285.71875 135.179688 282.121094 C 135.179688 278.527344 140.574219 278.527344 140.574219 282.121094 "/>
<path style=" stroke:none;fill-rule:nonzero;fill:rgb(100%,84.3%,0%);fill-opacity:1;" d="M 130.996094 310.136719 C 130.996094 313.730469 125.601562 313.730469 125.601562 310.136719 C 125.601562 306.539062 130.996094 306.539062 130.996094 310.136719 "/>
<path style=" stroke:none;fill-rule:nonzero;fill:rgb(100%,84.3%,0%);fill-opacity:1;" d="M 56.300781 205.300781 C 56.300781 208.894531 50.90625 208.894531 50.90625 205.300781 C 50.90625 201.703125 56.300781 201.703125 56.300781 205.300781 "/>
<path style=" stroke:none;fill-rule:nonzero;fill:rgb(100%,84.3%,0%);fill-opacity:1;" d="M 126.320312 225.078125 C 126.320312 228.675781 120.929688 228.675781 120.929688 225.078125 C 120.929688 221.480469 126.320312 221.480469 126.320312 225.078125 "/>
<path style=" stroke:none;fill-rule:nonzero;fill:rgb(100%,84.3%,0%);fill-opacity:1;" d="M 233.773438 165.671875 C 233.773438 169.269531 228.378906 169.269531 228.378906 165.671875 C 228.378906 162.074219 233.773438 162.074219 233.773438 165.671875 "/>
<path style=" stroke:none;fill-rule:nonzero;fill:rgb(100%,84.3%,0%);fill-opacity:1;" d="M 266.671875 330.085938 C 266.671875 333.679688 261.277344 333.679688 261.277344 330.085938 C 261.277344 326.488281 266.671875 326.488281 266.671875 330.085938 "/>
<path style=" stroke:none;fill-rule:nonzero;fill:rgb(100%,84.3%,0%);fill-opacity:1;" d="M 125.335938 162.148438 C 125.335938 165.746094 119.941406 165.746094 119.941406 162.148438 C 119.941406 158.554688 125.335938 158.554688 125.335938 162.148438 "/>
<path style=" stroke:none;fill-rule:nonzero;fill:rgb(100%,84.3%,0%);fill-opacity:1;" d="M 331.339844 267.328125 C 331.339844 270.925781 325.945312 270.925781 325.945312 267.328125 C 325.945312 263.730469 331.339844 263.730469 331.339844 267.328125 "/>
<path style=" stroke:none;fill-rule:nonzero;fill:rgb(100%,84.3%,0%);fill-opacity:1;" d="M 189.203125 200.976562 C 189.203125 204.570312 183.8125 204.570312 183.8125 200.976562 C 183.8125 197.378906 189.203125 197.378906 189.203125 200.976562 "/>
<path style=" stroke:none;fill-rule:nonzero;fill:rgb(100%,84.3%,0%);fill-opacity:1;" d="M 384.265625 339.210938 C 384.265625 342.804688 378.871094 342.804688 378.871094 339.210938 C 378.871094 335.613281 384.265625 335.613281 384.265625 339.210938 "/>
<path style=" stroke:none;fill-rule:nonzero;fill:rgb(100%,84.3%,0%);fill-opacity:1;" d="M 179.0625 330.945312 C 179.0625 334.539062 173.667969 334.539062 173.667969 330.945312 C 173.667969 327.347656 179.0625 327.347656 179.0625 330.945312 "/>
<path style=" stroke:none;fill-rule:nonzero;fill:rgb(100%,84.3%,0%);fill-opacity:1;" d="M 279.210938 292.363281 C 279.210938 295.957031 273.816406 295.957031 273.816406 292.363281 C 273.816406 288.765625 279.210938 288.765625 279.210938 292.363281 "/>
<path style=" stroke:none;fill-rule:nonzero;fill:rgb(100%,84.3%,0%);fill-opacity:1;" d="M 270.96875 284.613281 C 270.96875 288.210938 265.574219 288.210938 265.574219 284.613281 C 265.574219 281.019531 270.96875 281.019531 270.96875 284.613281 "/>
<path style=" stroke:none;fill-rule:nonzero;fill:rgb(100%,84.3%,0%);fill-opacity:1;" d="M 431.296875 262.730469 C 431.296875 266.324219 425.902344 266.324219 425.902344 262.730469 C 425.902344 259.132812 431.296875 259.132812 431.296875 262.730469 "/>
<path style=" stroke:none;fill-rule:nonzero;fill:rgb(100%,84.3%,0%);fill-opacity:1;" d="M 453.605469 163.007812 C 453.605469 166.605469 448.210938 166.605469 448.210938 163.007812 C 448.210938 159.414062 453.605469 159.414062 453.605469 163.007812 "/>
<path style=" stroke:none;fill-rule:nonzero;fill:rgb(100%,84.3%,0%);fill-opacity:1;" d="M 401.78125 253.492188 C 401.78125 257.089844 396.386719 257.089844 396.386719 253.492188 C 396.386719 249.898438 401.78125 249.898438 401.78125 253.492188 "/>
<path style=" stroke:none;fill-rule:nonzero;fill:rgb(100%,84.3%,0%);fill-opacity:1;" d="M 363.671875 335.199219 C 363.671875 338.796875 358.277344 338.796875 358.277344 335.199219 C 358.277344 331.601562 363.671875 331.601562 363.671875 335.199219 "/>
<path style=" stroke:none;fill-rule:nonzero;fill:rgb(100%,84.3%,0%);fill-opacity:1;" d="M 437.261719 277.667969 C 437.261719 281.265625 431.867188 281.265625 431.867188 277.667969 C 431.867188 274.070312 437.261719 274.070312 437.261719 277.667969 "/>
<path style=" stroke:none;fill-rule:nonzero;fill:rgb(100%,84.3%,0%);fill-opacity:1;" d="M 444.140625 290.457031 C 444.140625 294.054688 438.746094 294.054688 438.746094 290.457031 C 438.746094 286.863281 444.140625 286.863281 444.140625 290.457031 "/>
<path style=" stroke:none;fill-rule:nonzero;fill:rgb(100%,84.3%,0%);fill-opacity:1;" d="M 194.558594 283.511719 C 194.558594 287.105469 189.164062 287.105469 189.164062 283.511719 C 189.164062 279.914062 194.558594 279.914062 194.558594 283.511719 "/>
<path style=" stroke:none;fill-rule:nonzero;fill:rgb(100%,84.3%,0%);fill-opacity:1;" d="M 210.785156 267.914062 C 210.785156 271.511719 205.390625 271.511719 205.390625 267.914062 C 205.390625 264.320312 210.785156 264.320312 210.785156 267.914062 "/>
<path style=" stroke:none;fill-rule:nonzero;fill:rgb(100%,84.3%,0%);fill-opacity:1;" d="M 152.503906 311.996094 C 152.503906 315.59375 147.109375 315.59375 147.109375 311.996094 C 147.109375 308.402344 152.503906 308.402344 152.503906 311.996094 "/>
<path style=" stroke:none;fill-rule:nonzero;fill:rgb(100%,84.3%,0%);fill-opacity:1;" d="M 420.167969 329.769531 C 420.167969 333.367188 414.773438 333.367188 414.773438 329.769531 C 414.773438 326.175781 420.167969 326.175781 420.167969 329.769531 "/>
<path style=" stroke:none;fill-rule:nonzero;fill:rgb(100%,84.3%,0%);fill-opacity:1;" d="M 378.675781 256.300781 C 378.675781 259.894531 373.28125 259.894531 373.28125 256.300781 C 373.28125 252.703125 378.675781 252.703125 378.675781 256.300781 "/>
<path style=" stroke:none;fill-rule:nonzero;fill:rgb(100%,84.3%,0%);fill-opacity:1;" d="M 200.148438 167.921875 C 200.148438 171.515625 194.753906 171.515625 194.753906 167.921875 C 194.753906 164.324219 200.148438 164.324219 200.148438 167.921875 "/>
<path style=" stroke:none;fill-rule:nonzero;fill:rgb(100%,84.3%,0%);fill-opacity:1;" d="M 289.28125 295.8125 C 289.28125 299.410156 283.886719 299.410156 283.886719 295.8125 C 283.886719 292.21875 289.28125 292.21875 289.28125 295.8125 "/>
<path style=" stroke:none;fill-rule:nonzero;fill:rgb(100%,84.3%,0%);fill-opacity:1;" d="M 438.671875 306.984375 C 438.671875 310.582031 433.277344 310.582031 433.277344 306.984375 C 433.277344 303.390625 438.671875 303.390625 438.671875 306.984375 "/>
<path style=" stroke:none;fill-rule:nonzero;fill:rgb(100%,84.3%,0%);fill-opacity:1;" d="M 323.398438 325.03125 C 323.398438 328.628906 318.007812 328.628906 318.007812 325.03125 C 318.007812 321.433594 323.398438 321.433594 323.398438 325.03125 "/>
<path style=" stroke:none;fill-rule:nonzero;fill:rgb(100%,84.3%,0%);fill-opacity:1;" d="M 384.570312 206.160156 C 384.570312 209.757812 379.175781 209.757812 379.175781 206.160156 C 379.175781 202.5625 384.570312 202.5625 384.570312 206.160156 "/>
<path style=" stroke:none;fill-rule:nonzero;fill:rgb(100%,84.3%,0%);fill-opacity:1;" d="M 247.179688 289.941406 C 247.179688 293.539062 241.785156 293.539062 241.785156 289.941406 C 241.785156 286.347656 247.179688 286.347656 247.179688 289.941406 "/>
<path style=" stroke:none;fill-rule:nonzero;fill:rgb(100%,84.3%,0%);fill-opacity:1;" d="M 383.960938 273.757812 C 383.960938 277.355469 378.566406 277.355469 378.566406 273.757812 C 378.566406 270.160156 383.960938 270.160156 383.960938 273.757812 "/>
<path style=" stroke:none;fill-rule:nonzero;fill:rgb(100%,84.3%,0%);fill-opacity:1;" d="M 378.980469 321.75 C 378.980469 325.347656 373.589844 325.347656 373.589844 321.75 C 373.589844 318.152344 378.980469 318.152344 378.980469 321.75 "/>
<path style=" stroke:none;fill-rule:nonzero;fill:rgb(100%,84.3%,0%);fill-opacity:1;" d="M 152.996094 343.464844 C 152.996094 347.058594 147.601562 347.058594 147.601562 343.464844 C 147.601562 339.867188 152.996094 339.867188 152.996094 343.464844 "/>
<path style=" stroke:none;fill-rule:nonzero;fill:rgb(100%,84.3%,0%);fill-opacity:1;" d="M 433.691406 354.976562 C 433.691406 358.574219 428.300781 358.574219 428.300781 354.976562 C 428.300781 351.382812 433.691406 351.382812 433.691406 354.976562 "/>
<path style=" stroke:none;fill-rule:nonzero;fill:rgb(100%,84.3%,0%);fill-opacity:1;" d="M 228.183594 281.261719 C 228.183594 284.859375 222.789062 284.859375 222.789062 281.261719 C 222.789062 277.667969 228.183594 277.667969 228.183594 281.261719 "/>
<path style=" stroke:none;fill-rule:nonzero;fill:rgb(100%,84.3%,0%);fill-opacity:1;" d="M 239.546875 214.597656 C 239.546875 218.191406 234.152344 218.191406 234.152344 214.597656 C 234.152344 211 239.546875 211 239.546875 214.597656 "/>
<path style=" stroke:none;fill-rule:nonzero;fill:rgb(100%,84.3%,0%);fill-opacity:1;" d="M 197.5625 308.160156 C 197.5625 311.757812 192.171875 311.757812 192.171875 308.160156 C 192.171875 304.5625 197.5625 304.5625 197.5625 308.160156 "/>
<path style=" stroke:none;fill-rule:nonzero;fill:rgb(100%,84.3%,0%);fill-opacity:1;" d="M 106.152344 187.457031 C 106.152344 191.050781 100.757812 191.050781 100.757812 187.457031 C 100.757812 183.859375 106.152344 183.859375 106.152344 187.457031 "/>
<path style=" stroke:none;fill-rule:nonzero;fill:rgb(100%,84.3%,0%);fill-opacity:1;" d="M 163.75 344.394531 C 163.75 347.988281 158.355469 347.988281 158.355469 344.394531 C 158.355469 340.796875 163.75 340.796875 163.75 344.394531 "/>
<path style=" stroke:none;fill-rule:nonzero;fill:rgb(100%,84.3%,0%);fill-opacity:1;" d="M 403.871094 280.289062 C 403.871094 283.886719 398.476562 283.886719 398.476562 280.289062 C 398.476562 276.695312 403.871094 276.695312 403.871094 280.289062 "/>
<path style=" stroke:none;fill-rule:nonzero;fill:rgb(100%,84.3%,0%);fill-opacity:1;" d="M 339.886719 340.527344 C 339.886719 344.121094 334.492188 344.121094 334.492188 340.527344 C 334.492188 336.929688 339.886719 336.929688 339.886719 340.527344 "/>
<path style=" stroke:none;fill-rule:nonzero;fill:rgb(100%,84.3%,0%);fill-opacity:1;" d="M 260.519531 349.132812 C 260.519531 352.730469 255.125 352.730469 255.125 349.132812 C 255.125 345.539062 260.519531 345.539062 260.519531 349.132812 "/>
<path style=" stroke:none;fill-rule:nonzero;fill:rgb(100%,84.3%,0%);fill-opacity:1;" d="M 60.292969 292.878906 C 60.292969 296.472656 54.898438 296.472656 54.898438 292.878906 C 54.898438 289.28125 60.292969 289.28125 60.292969 292.878906 "/>
<path style=" stroke:none;fill-rule:nonzero;fill:rgb(100%,84.3%,0%);fill-opacity:1;" d="M 53.527344 181.023438 C 53.527344 184.621094 48.136719 184.621094 48.136719 181.023438 C 48.136719 177.429688 53.527344 177.429688 53.527344 181.023438 "/>
<path style=" stroke:none;fill-rule:nonzero;fill:rgb(100%,84.3%,0%);fill-opacity:1;" d="M 233.65625 264.734375 C 233.65625 268.332031 228.261719 268.332031 228.261719 264.734375 C 228.261719 261.140625 233.65625 261.140625 233.65625 264.734375 "/>
<path style=" stroke:none;fill-rule:nonzero;fill:rgb(100%,84.3%,0%);fill-opacity:1;" d="M 130.808594 344.121094 C 130.808594 347.71875 125.414062 347.71875 125.414062 344.121094 C 125.414062 340.523438 130.808594 340.523438 130.808594 344.121094 "/>
<path style=" stroke:none;fill-rule:nonzero;fill:rgb(100%,84.3%,0%);fill-opacity:1;" d="M 431.601562 328.179688 C 431.601562 331.777344 426.210938 331.777344 426.210938 328.179688 C 426.210938 324.585938 431.601562 324.585938 431.601562 328.179688 "/>
<path style=" stroke:none;fill-rule:nonzero;fill:rgb(100%,84.3%,0%);fill-opacity:1;" d="M 231.378906 271.925781 C 231.378906 275.519531 225.984375 275.519531 225.984375 271.925781 C 225.984375 268.328125 231.378906 268.328125 231.378906 271.925781 "/>
<path style=" stroke:none;fill-rule:nonzero;fill:rgb(100%,84.3%,0%);fill-opacity:1;" d="M 430.121094 233.785156 C 430.121094 237.382812 424.730469 237.382812 424.730469 233.785156 C 424.730469 230.191406 430.121094 230.191406 430.121094 233.785156 "/>
<path style=" stroke:none;fill-rule:nonzero;fill:rgb(100%,84.3%,0%);fill-opacity:1;" d="M 388.75 259.753906 C 388.75 263.347656 383.355469 263.347656 383.355469 259.753906 C 383.355469 256.15625 388.75 256.15625 388.75 259.753906 "/>
<path style=" stroke:none;fill-rule:nonzero;fill:rgb(100%,84.3%,0%);fill-opacity:1;" d="M 462.644531 267.671875 C 462.644531 271.269531 457.25 271.269531 457.25 267.671875 C 457.25 264.074219 462.644531 264.074219 462.644531 267.671875 "/>
<path style=" stroke:none;fill-rule:nonzero;fill:rgb(100%,84.3%,0%);fill-opacity:1;" d="M 331.453125 168.265625 C 331.453125 171.859375 326.058594 171.859375 326.058594 168.265625 C 326.058594 164.667969 331.453125 164.667969 331.453125 168.265625 "/>
<path style=" stroke:none;fill-rule:nonzero;fill:rgb(100%,84.3%,0%);fill-opacity:1;" d="M 284.984375 341.285156 C 284.984375 344.882812 279.59375 344.882812 279.59375 341.285156 C 279.59375 337.6875 284.984375 337.6875 284.984375 341.285156 "/>
<path style=" stroke:none;fill-rule:nonzero;fill:rgb(100%,84.3%,0%);fill-opacity:1;" d="M 447.03125 215.671875 C 447.03125 219.265625 441.636719 219.265625 441.636719 215.671875 C 441.636719 212.074219 447.03125 212.074219 447.03125 215.671875 "/>
<path style=" stroke:none;fill-rule:nonzero;fill:rgb(100%,84.3%,0%);fill-opacity:1;" d="M 439.773438 270.851562 C 439.773438 274.445312 434.378906 274.445312 434.378906 270.851562 C 434.378906 267.253906 439.773438 267.253906 439.773438 270.851562 "/>
<path style=" stroke:none;fill-rule:nonzero;fill:rgb(100%,84.3%,0%);fill-opacity:1;" d="M 174.882812 277.351562 C 174.882812 280.949219 169.488281 280.949219 169.488281 277.351562 C 169.488281 273.757812 174.882812 273.757812 174.882812 277.351562 "/>
<path style=" stroke:none;fill-rule:nonzero;fill:rgb(100%,84.3%,0%);fill-opacity:1;" d="M 101.058594 334.511719 C 101.058594 338.105469 95.664062 338.105469 95.664062 334.511719 C 95.664062 330.914062 101.058594 330.914062 101.058594 334.511719 "/>
<path style=" stroke:none;fill-rule:nonzero;fill:rgb(100%,84.3%,0%);fill-opacity:1;" d="M 236.660156 289.382812 C 236.660156 292.980469 231.265625 292.980469 231.265625 289.382812 C 231.265625 285.789062 236.660156 285.789062 236.660156 289.382812 "/>
<path style=" stroke:none;fill-rule:nonzero;fill:rgb(100%,84.3%,0%);fill-opacity:1;" d="M 286.769531 302.632812 C 286.769531 306.226562 281.375 306.226562 281.375 302.632812 C 281.375 299.035156 286.769531 299.035156 286.769531 302.632812 "/>
<path style=" stroke:none;fill-rule:nonzero;fill:rgb(100%,84.3%,0%);fill-opacity:1;" d="M 394.714844 274.691406 C 394.714844 278.285156 389.320312 278.285156 389.320312 274.691406 C 389.320312 271.09375 394.714844 271.09375 394.714844 274.691406 "/>
<path style=" stroke:none;fill-rule:nonzero;fill:rgb(100%,84.3%,0%);fill-opacity:1;" d="M 330.164062 238.382812 C 330.164062 241.980469 324.769531 241.980469 324.769531 238.382812 C 324.769531 234.789062 330.164062 234.789062 330.164062 238.382812 "/>
<path style=" stroke:none;fill-rule:nonzero;fill:rgb(100%,84.3%,0%);fill-opacity:1;" d="M 108.734375 245.714844 C 108.734375 249.3125 103.339844 249.3125 103.339844 245.714844 C 103.339844 242.121094 108.734375 242.121094 108.734375 245.714844 "/>
<path style=" stroke:none;fill-rule:nonzero;fill:rgb(100%,84.3%,0%);fill-opacity:1;" d="M 426.929688 243.125 C 426.929688 246.71875 421.535156 246.71875 421.535156 243.125 C 421.535156 239.527344 426.929688 239.527344 426.929688 243.125 "/>
<path style=" stroke:none;fill-rule:nonzero;fill:rgb(100%,84.3%,0%);fill-opacity:1;" d="M 244.902344 297.132812 C 244.902344 300.726562 239.507812 300.726562 239.507812 297.132812 C 239.507812 293.535156 244.902344 293.535156 244.902344 297.132812 "/>
<path style=" stroke:none;fill-rule:nonzero;fill:rgb(100%,84.3%,0%);fill-opacity:1;" d="M 149.308594 321.335938 C 149.308594 324.929688 143.914062 324.929688 143.914062 321.335938 C 143.914062 317.738281 149.308594 317.738281 149.308594 321.335938 "/>
<path style=" stroke:none;fill-rule:nonzero;fill:rgb(100%,84.3%,0%);fill-opacity:1;" d="M 111.011719 238.527344 C 111.011719 242.121094 105.617188 242.121094 105.617188 238.527344 C 105.617188 234.929688 111.011719 234.929688 111.011719 238.527344 "/>
<path style=" stroke:none;fill-rule:nonzero;fill:rgb(100%,84.3%,0%);fill-opacity:1;" d="M 429.019531 269.921875 C 429.019531 273.515625 423.625 273.515625 423.625 269.921875 C 423.625 266.324219 429.019531 266.324219 429.019531 269.921875 "/>
<path style=" stroke:none;fill-rule:nonzero;fill:rgb(100%,84.3%,0%);fill-opacity:1;" d="M 304.097656 250.902344 C 304.097656 254.496094 298.703125 254.496094 298.703125 250.902344 C 298.703125 247.304688 304.097656 247.304688 304.097656 250.902344 "/>
<path style=" stroke:none;fill-rule:nonzero;fill:rgb(100%,84.3%,0%);fill-opacity:1;" d="M 171.804688 187.628906 C 171.804688 191.222656 166.410156 191.222656 166.410156 187.628906 C 166.410156 184.03125 171.804688 184.03125 171.804688 187.628906 "/>
<path style=" stroke:none;fill-rule:nonzero;fill:rgb(100%,84.3%,0%);fill-opacity:1;" d="M 356.109375 324.929688 C 356.109375 328.527344 350.714844 328.527344 350.714844 324.929688 C 350.714844 321.335938 356.109375 321.335938 356.109375 324.929688 "/>
<path style=" stroke:none;fill-rule:nonzero;fill:rgb(100%,84.3%,0%);fill-opacity:1;" d="M 247.601562 256.328125 C 247.601562 259.925781 242.207031 259.925781 242.207031 256.328125 C 242.207031 252.734375 247.601562 252.734375 247.601562 256.328125 "/>
<path style=" stroke:none;fill-rule:nonzero;fill:rgb(100%,84.3%,0%);fill-opacity:1;" d="M 258.429688 322.339844 C 258.429688 325.933594 253.035156 325.933594 253.035156 322.339844 C 253.035156 318.742188 258.429688 318.742188 258.429688 322.339844 "/>
<path style=" stroke:none;fill-rule:nonzero;fill:rgb(100%,84.3%,0%);fill-opacity:1;" d="M 315.417969 348.375 C 315.417969 351.972656 310.023438 351.972656 310.023438 348.375 C 310.023438 344.777344 315.417969 344.777344 315.417969 348.375 "/>
<path style=" stroke:none;fill-rule:nonzero;fill:rgb(100%,84.3%,0%);fill-opacity:1;" d="M 96.6875 314.90625 C 96.6875 318.5 91.296875 318.5 91.296875 314.90625 C 91.296875 311.308594 96.6875 311.308594 96.6875 314.90625 "/>
<path style=" stroke:none;fill-rule:nonzero;fill:rgb(100%,84.3%,0%);fill-opacity:1;" d="M 170.699219 223.761719 C 170.699219 227.355469 165.308594 227.355469 165.308594 223.761719 C 165.308594 220.164062 170.699219 220.164062 170.699219 223.761719 "/>
<path style=" stroke:none;fill-rule:nonzero;fill:rgb(100%,84.3%,0%);fill-opacity:1;" d="M 157.480469 264.007812 C 157.480469 267.601562 152.085938 267.601562 152.085938 264.007812 C 152.085938 260.410156 157.480469 260.410156 157.480469 264.007812 "/>
<path style=" stroke:none;fill-rule:nonzero;fill:rgb(100%,84.3%,0%);fill-opacity:1;" d="M 65.269531 244.886719 C 65.269531 248.480469 59.875 248.480469 59.875 244.886719 C 59.875 241.289062 65.269531 241.289062 65.269531 244.886719 "/>
<path style=" stroke:none;fill-rule:nonzero;fill:rgb(100%,84.3%,0%);fill-opacity:1;" d="M 349.839844 244.542969 C 349.839844 248.136719 344.445312 248.136719 344.445312 244.542969 C 344.445312 240.945312 349.839844 240.945312 349.839844 244.542969 "/>
<path style=" stroke:none;fill-rule:nonzero;fill:rgb(100%,84.3%,0%);fill-opacity:1;" d="M 342.398438 333.710938 C 342.398438 337.304688 337.003906 337.304688 337.003906 333.710938 C 337.003906 330.113281 342.398438 330.113281 342.398438 333.710938 "/>
<path style=" stroke:none;fill-rule:nonzero;fill:rgb(100%,84.3%,0%);fill-opacity:1;" d="M 137.875 322.925781 C 137.875 326.519531 132.480469 326.519531 132.480469 322.925781 C 132.480469 319.328125 137.875 319.328125 137.875 322.925781 "/>
<path style=" stroke:none;fill-rule:nonzero;fill:rgb(100%,84.3%,0%);fill-opacity:1;" d="M 371.914062 342.945312 C 371.914062 346.542969 366.519531 346.542969 366.519531 342.945312 C 366.519531 339.351562 371.914062 339.351562 371.914062 342.945312 "/>
<path style=" stroke:none;fill-rule:nonzero;fill:rgb(100%,84.3%,0%);fill-opacity:1;" d="M 312.835938 290.113281 C 312.835938 293.710938 307.441406 293.710938 307.441406 290.113281 C 307.441406 286.519531 312.835938 286.519531 312.835938 290.113281 "/>
<path style=" stroke:none;fill-rule:nonzero;fill:rgb(100%,84.3%,0%);fill-opacity:1;" d="M 110.214844 340.109375 C 110.214844 343.707031 104.820312 343.707031 104.820312 340.109375 C 104.820312 336.515625 110.214844 336.515625 110.214844 340.109375 "/>
<path style=" stroke:none;fill-rule:nonzero;fill:rgb(100%,84.3%,0%);fill-opacity:1;" d="M 218.460938 179.121094 C 218.460938 182.71875 213.066406 182.71875 213.066406 179.121094 C 213.066406 175.523438 218.460938 175.523438 218.460938 179.121094 "/>
<path style=" stroke:none;fill-rule:nonzero;fill:rgb(100%,84.3%,0%);fill-opacity:1;" d="M 416.175781 242.191406 C 416.175781 245.789062 410.78125 245.789062 410.78125 242.191406 C 410.78125 238.597656 416.175781 238.597656 416.175781 242.191406 "/>
<path style=" stroke:none;fill-rule:nonzero;fill:rgb(100%,84.3%,0%);fill-opacity:1;" d="M 110.824219 272.511719 C 110.824219 276.109375 105.429688 276.109375 105.429688 272.511719 C 105.429688 268.917969 110.824219 268.917969 110.824219 272.511719 "/>
<path style=" stroke:none;fill-rule:nonzero;fill:rgb(100%,84.3%,0%);fill-opacity:1;" d="M 408.542969 166.847656 C 408.542969 170.441406 403.148438 170.441406 403.148438 166.847656 C 403.148438 163.25 408.542969 163.25 408.542969 166.847656 "/>
<path style=" stroke:none;fill-rule:nonzero;fill:rgb(100%,84.3%,0%);fill-opacity:1;" d="M 236.167969 257.917969 C 236.167969 261.515625 230.773438 261.515625 230.773438 257.917969 C 230.773438 254.324219 236.167969 254.324219 236.167969 257.917969 "/>
<path style=" stroke:none;fill-rule:nonzero;fill:rgb(100%,84.3%,0%);fill-opacity:1;" d="M 360.476562 344.535156 C 360.476562 348.132812 355.085938 348.132812 355.085938 344.535156 C 355.085938 340.941406 360.476562 340.941406 360.476562 344.535156 "/>
<path style=" stroke:none;fill-rule:nonzero;fill:rgb(100%,84.3%,0%);fill-opacity:1;" d="M 421.574219 160.589844 C 421.574219 164.183594 416.183594 164.183594 416.183594 160.589844 C 416.183594 156.992188 421.574219 156.992188 421.574219 160.589844 "/>
<path style=" stroke:none;fill-rule:nonzero;fill:rgb(100%,84.3%,0%);fill-opacity:1;" d="M 228.605469 247.648438 C 228.605469 251.246094 223.210938 251.246094 223.210938 247.648438 C 223.210938 244.054688 228.605469 244.054688 228.605469 247.648438 "/>
<path style=" stroke:none;fill-rule:nonzero;fill:rgb(100%,84.3%,0%);fill-opacity:1;" d="M 95.210938 220.511719 C 95.210938 224.105469 89.816406 224.105469 89.816406 220.511719 C 89.816406 216.914062 95.210938 216.914062 95.210938 220.511719 "/>
<path style=" stroke:none;fill-rule:nonzero;fill:rgb(100%,84.3%,0%);fill-opacity:1;" d="M 179.25 296.960938 C 179.25 300.554688 173.855469 300.554688 173.855469 296.960938 C 173.855469 293.363281 179.25 293.363281 179.25 296.960938 "/>
<path style=" stroke:none;fill-rule:nonzero;fill:rgb(100%,84.3%,0%);fill-opacity:1;" d="M 148.207031 158.96875 C 148.207031 162.566406 142.8125 162.566406 142.8125 158.96875 C 142.8125 155.371094 148.207031 155.371094 148.207031 158.96875 "/>
<path style=" stroke:none;fill-rule:nonzero;fill:rgb(100%,84.3%,0%);fill-opacity:1;" d="M 320.207031 334.367188 C 320.207031 337.964844 314.8125 337.964844 314.8125 334.367188 C 314.8125 330.773438 320.207031 330.773438 320.207031 334.367188 "/>
<path style=" stroke:none;fill-rule:nonzero;fill:rgb(100%,84.3%,0%);fill-opacity:1;" d="M 445.128906 353.386719 C 445.128906 356.984375 439.734375 356.984375 439.734375 353.386719 C 439.734375 349.789062 445.128906 349.789062 445.128906 353.386719 "/>
<path style=" stroke:none;fill-rule:nonzero;fill:rgb(100%,84.3%,0%);fill-opacity:1;" d="M 98.96875 307.714844 C 98.96875 311.3125 93.574219 311.3125 93.574219 307.714844 C 93.574219 304.117188 98.96875 304.117188 98.96875 307.714844 "/>
<path style=" stroke:none;fill-rule:nonzero;fill:rgb(100%,84.3%,0%);fill-opacity:1;" d="M 58.085938 166.644531 C 58.085938 170.242188 52.691406 170.242188 52.691406 166.644531 C 52.691406 163.050781 58.085938 163.050781 58.085938 166.644531 "/>
<path style=" stroke:none;fill-rule:nonzero;fill:rgb(100%,84.3%,0%);fill-opacity:1;" d="M 437.871094 210.070312 C 437.871094 213.664062 432.480469 213.664062 432.480469 210.070312 C 432.480469 206.472656 437.871094 206.472656 437.871094 210.070312 "/>
<path style=" stroke:none;fill-rule:nonzero;fill:rgb(100%,84.3%,0%);fill-opacity:1;" d="M 206.300781 347.371094 C 206.300781 350.96875 200.90625 350.96875 200.90625 347.371094 C 200.90625 343.777344 206.300781 343.777344 206.300781 347.371094 "/>
<path style=" stroke:none;fill-rule:nonzero;fill:rgb(100%,84.3%,0%);fill-opacity:1;" d="M 183.429688 350.550781 C 183.429688 354.148438 178.035156 354.148438 178.035156 350.550781 C 178.035156 346.957031 183.429688 346.957031 183.429688 350.550781 "/>
<path style=" stroke:none;fill-rule:nonzero;fill:rgb(100%,84.3%,0%);fill-opacity:1;" d="M 435.101562 185.796875 C 435.101562 189.390625 429.707031 189.390625 429.707031 185.796875 C 429.707031 182.199219 435.101562 182.199219 435.101562 185.796875 "/>
<path style=" stroke:none;fill-rule:nonzero;fill:rgb(100%,84.3%,0%);fill-opacity:1;" d="M 133.390625 203.882812 C 133.390625 207.476562 127.996094 207.476562 127.996094 203.882812 C 127.996094 200.285156 133.390625 200.285156 133.390625 203.882812 "/>
<path style=" stroke:none;fill-rule:nonzero;fill:rgb(100%,84.3%,0%);fill-opacity:1;" d="M 68.15625 170.097656 C 68.15625 173.695312 62.765625 173.695312 62.765625 170.097656 C 62.765625 166.503906 68.15625 166.503906 68.15625 170.097656 "/>
<path style=" stroke:none;fill-rule:nonzero;fill:rgb(100%,84.3%,0%);fill-opacity:1;" d="M 65.648438 176.914062 C 65.648438 180.511719 60.253906 180.511719 60.253906 176.914062 C 60.253906 173.316406 65.648438 173.316406 65.648438 176.914062 "/>
<path style=" stroke:none;fill-rule:nonzero;fill:rgb(100%,84.3%,0%);fill-opacity:1;" d="M 163.023438 312.554688 C 163.023438 316.152344 157.628906 316.152344 157.628906 312.554688 C 157.628906 308.960938 163.023438 308.960938 163.023438 312.554688 "/>
<path style=" stroke:none;fill-rule:nonzero;fill:rgb(100%,84.3%,0%);fill-opacity:1;" d="M 94.410156 322.09375 C 94.410156 325.691406 89.015625 325.691406 89.015625 322.09375 C 89.015625 318.5 94.410156 318.5 94.410156 322.09375 "/>
<path style=" stroke:none;fill-rule:nonzero;fill:rgb(100%,84.3%,0%);fill-opacity:1;" d="M 87.953125 275.691406 C 87.953125 279.289062 82.558594 279.289062 82.558594 275.691406 C 82.558594 272.097656 87.953125 272.097656 87.953125 275.691406 "/>
<path style=" stroke:none;fill-rule:nonzero;fill:rgb(100%,84.3%,0%);fill-opacity:1;" d="M 209.492188 338.035156 C 209.492188 341.632812 204.097656 341.632812 204.097656 338.035156 C 204.097656 334.4375 209.492188 334.4375 209.492188 338.035156 "/>
<path style=" stroke:none;fill-rule:nonzero;fill:rgb(100%,84.3%,0%);fill-opacity:1;" d="M 103.945312 259.722656 C 103.945312 263.320312 98.550781 263.320312 98.550781 259.722656 C 98.550781 256.128906 103.945312 256.128906 103.945312 259.722656 "/>
<path style=" stroke:none;fill-rule:nonzero;fill:rgb(100%,84.3%,0%);fill-opacity:1;" d="M 433.386719 289.527344 C 433.386719 293.121094 427.992188 293.121094 427.992188 289.527344 C 427.992188 285.929688 433.386719 285.929688 433.386719 289.527344 "/>
<path style=" stroke:none;fill-rule:nonzero;fill:rgb(100%,84.3%,0%);fill-opacity:1;" d="M 391.636719 184.964844 C 391.636719 188.558594 386.242188 188.558594 386.242188 184.964844 C 386.242188 181.367188 391.636719 181.367188 391.636719 184.964844 "/>
<path style=" stroke:none;fill-rule:nonzero;fill:rgb(100%,84.3%,0%);fill-opacity:1;" d="M 283.507812 246.890625 C 283.507812 250.488281 278.113281 250.488281 278.113281 246.890625 C 278.113281 243.296875 283.507812 243.296875 283.507812 246.890625 "/>
<path style=" stroke:none;fill-rule:nonzero;fill:rgb(100%,84.3%,0%);fill-opacity:1;" d="M 119.863281 178.675781 C 119.863281 182.273438 114.472656 182.273438 114.472656 178.675781 C 114.472656 175.078125 119.863281 175.078125 119.863281 178.675781 "/>
<path style=" stroke:none;fill-rule:nonzero;fill:rgb(100%,84.3%,0%);fill-opacity:1;" d="M 376.398438 263.488281 C 376.398438 267.085938 371.003906 267.085938 371.003906 263.488281 C 371.003906 259.894531 376.398438 259.894531 376.398438 263.488281 "/>
<path style=" stroke:none;fill-rule:nonzero;fill:rgb(100%,84.3%,0%);fill-opacity:1;" d="M 363.976562 202.148438 C 363.976562 205.746094 358.582031 205.746094 358.582031 202.148438 C 358.582031 198.554688 363.976562 198.554688 363.976562 202.148438 "/>
<path style=" stroke:none;fill-rule:nonzero;fill:rgb(100%,84.3%,0%);fill-opacity:1;" d="M 237.835938 318.328125 C 237.835938 321.925781 232.441406 321.925781 232.441406 318.328125 C 232.441406 314.730469 237.835938 314.730469 237.835938 318.328125 "/>
<path style=" stroke:none;fill-rule:nonzero;fill:rgb(100%,84.3%,0%);fill-opacity:1;" d="M 394.785156 339.765625 C 394.785156 343.363281 389.390625 343.363281 389.390625 339.765625 C 389.390625 336.171875 394.785156 336.171875 394.785156 339.765625 "/>
<path style=" stroke:none;fill-rule:nonzero;fill:rgb(100%,84.3%,0%);fill-opacity:1;" d="M 303.675781 284.515625 C 303.675781 288.109375 298.28125 288.109375 298.28125 284.515625 C 298.28125 280.917969 303.675781 280.917969 303.675781 284.515625 "/>
<path style=" stroke:none;fill-rule:nonzero;fill:rgb(100%,84.3%,0%);fill-opacity:1;" d="M 98.097656 344.222656 C 98.097656 347.816406 92.703125 347.816406 92.703125 344.222656 C 92.703125 340.625 98.097656 340.625 98.097656 344.222656 "/>
<path style=" stroke:none;fill-rule:nonzero;fill:rgb(100%,84.3%,0%);fill-opacity:1;" d="M 269.488281 190.21875 C 269.488281 193.816406 264.09375 193.816406 264.09375 190.21875 C 264.09375 186.625 269.488281 186.625 269.488281 190.21875 "/>
<path style=" stroke:none;fill-rule:nonzero;fill:rgb(100%,84.3%,0%);fill-opacity:1;" d="M 339.582031 275.074219 C 339.582031 278.671875 334.1875 278.671875 334.1875 275.074219 C 334.1875 271.480469 339.582031 271.480469 339.582031 275.074219 "/>
<path style=" stroke:none;fill-rule:nonzero;fill:rgb(100%,84.3%,0%);fill-opacity:1;" d="M 56.113281 239.285156 C 56.113281 242.882812 50.71875 242.882812 50.71875 239.285156 C 50.71875 235.691406 56.113281 235.691406 56.113281 239.285156 "/>
<path style=" stroke:none;fill-rule:nonzero;fill:rgb(100%,84.3%,0%);fill-opacity:1;" d="M 428.410156 337.519531 C 428.410156 341.113281 423.015625 341.113281 423.015625 337.519531 C 423.015625 333.921875 428.410156 333.921875 428.410156 337.519531 "/>
<path style=" stroke:none;fill-rule:nonzero;fill:rgb(100%,84.3%,0%);fill-opacity:1;" d="M 206.722656 313.761719 C 206.722656 317.355469 201.328125 317.355469 201.328125 313.761719 C 201.328125 310.164062 206.722656 310.164062 206.722656 313.761719 "/>
<path style=" stroke:none;fill-rule:nonzero;fill:rgb(100%,84.3%,0%);fill-opacity:1;" d="M 86.847656 311.824219 C 86.847656 315.421875 81.453125 315.421875 81.453125 311.824219 C 81.453125 308.230469 86.847656 308.230469 86.847656 311.824219 "/>
<path style=" stroke:none;fill-rule:nonzero;fill:rgb(100%,84.3%,0%);fill-opacity:1;" d="M 58.507812 331.53125 C 58.507812 335.128906 53.113281 335.128906 53.113281 331.53125 C 53.113281 327.9375 58.507812 327.9375 58.507812 331.53125 "/>
<path style=" stroke:none;fill-rule:nonzero;fill:rgb(100%,84.3%,0%);fill-opacity:1;" d="M 418.078125 302.976562 C 418.078125 306.570312 412.683594 306.570312 412.683594 302.976562 C 412.683594 299.378906 418.078125 299.378906 418.078125 302.976562 "/>
<path style=" stroke:none;fill-rule:nonzero;fill:rgb(100%,84.3%,0%);fill-opacity:1;" d="M 444.328125 256.472656 C 444.328125 260.066406 438.9375 260.066406 438.9375 256.472656 C 438.9375 252.875 444.328125 252.875 444.328125 256.472656 "/>
<path style=" stroke:none;fill-rule:nonzero;fill:rgb(100%,84.3%,0%);fill-opacity:1;" d="M 281.414062 220.09375 C 281.414062 223.691406 276.023438 223.691406 276.023438 220.09375 C 276.023438 216.5 281.414062 216.5 281.414062 220.09375 "/>
<path style=" stroke:none;fill-rule:nonzero;fill:rgb(100%,84.3%,0%);fill-opacity:1;" d="M 367.546875 323.339844 C 367.546875 326.9375 362.152344 326.9375 362.152344 323.339844 C 362.152344 319.742188 367.546875 319.742188 367.546875 323.339844 "/>
<path style=" stroke:none;fill-rule:nonzero;fill:rgb(100%,84.3%,0%);fill-opacity:1;" d="M 457.175781 284.199219 C 457.175781 287.796875 451.78125 287.796875 451.78125 284.199219 C 451.78125 280.601562 457.175781 280.601562 457.175781 284.199219 "/>
<path style=" stroke:none;fill-rule:nonzero;fill:rgb(100%,84.3%,0%);fill-opacity:1;" d="M 415.304688 278.699219 C 415.304688 282.296875 409.910156 282.296875 409.910156 278.699219 C 409.910156 275.105469 415.304688 275.105469 415.304688 278.699219 "/>
<path style=" stroke:none;fill-rule:nonzero;fill:rgb(100%,84.3%,0%);fill-opacity:1;" d="M 233.960938 330.1875 C 233.960938 333.78125 228.566406 333.78125 228.566406 330.1875 C 228.566406 326.589844 233.960938 326.589844 233.960938 330.1875 "/>
<path style=" stroke:none;fill-rule:nonzero;fill:rgb(100%,84.3%,0%);fill-opacity:1;" d="M 383.769531 307.742188 C 383.769531 311.339844 378.378906 311.339844 378.378906 307.742188 C 378.378906 304.148438 383.769531 304.148438 383.769531 307.742188 "/>
<path style=" stroke:none;fill-rule:nonzero;fill:rgb(100%,84.3%,0%);fill-opacity:1;" d="M 287.265625 334.097656 C 287.265625 337.691406 281.871094 337.691406 281.871094 334.097656 C 281.871094 330.5 287.265625 330.5 287.265625 334.097656 "/>
<path style=" stroke:none;fill-rule:nonzero;fill:rgb(100%,84.3%,0%);fill-opacity:1;" d="M 426.132812 344.707031 C 426.132812 348.304688 420.738281 348.304688 420.738281 344.707031 C 420.738281 341.113281 426.132812 341.113281 426.132812 344.707031 "/>
<path style=" stroke:none;fill-rule:nonzero;fill:rgb(100%,84.3%,0%);fill-opacity:1;" d="M 423.664062 187.382812 C 423.664062 190.980469 418.269531 190.980469 418.269531 187.382812 C 418.269531 183.789062 423.664062 183.789062 423.664062 187.382812 "/>
<path style=" stroke:none;fill-rule:nonzero;fill:rgb(100%,84.3%,0%);fill-opacity:1;" d="M 104.25 325.171875 C 104.25 328.769531 98.855469 328.769531 98.855469 325.171875 C 98.855469 321.578125 104.25 321.578125 104.25 325.171875 "/>
<path style=" stroke:none;fill-rule:nonzero;fill:rgb(100%,84.3%,0%);fill-opacity:1;" d="M 287.875 266.496094 C 287.875 270.09375 282.480469 270.09375 282.480469 266.496094 C 282.480469 262.902344 287.875 262.902344 287.875 266.496094 "/>
<path style=" stroke:none;fill-rule:nonzero;fill:rgb(100%,84.3%,0%);fill-opacity:1;" d="M 290.457031 324.757812 C 290.457031 328.355469 285.0625 328.355469 285.0625 324.757812 C 285.0625 321.160156 290.457031 321.160156 290.457031 324.757812 "/>
<path style=" stroke:none;fill-rule:nonzero;fill:rgb(100%,84.3%,0%);fill-opacity:1;" d="M 112 301.457031 C 112 305.050781 106.605469 305.050781 106.605469 301.457031 C 106.605469 297.859375 112 297.859375 112 301.457031 "/>
<path style=" stroke:none;fill-rule:nonzero;fill:rgb(100%,84.3%,0%);fill-opacity:1;" d="M 435.972656 347.785156 C 435.972656 351.382812 430.578125 351.382812 430.578125 347.785156 C 430.578125 344.191406 435.972656 344.191406 435.972656 347.785156 "/>
<path style=" stroke:none;fill-rule:nonzero;fill:rgb(100%,84.3%,0%);fill-opacity:1;" d="M 124.84375 329.183594 C 124.84375 332.78125 119.449219 332.78125 119.449219 329.183594 C 119.449219 325.589844 124.84375 325.589844 124.84375 329.183594 "/>
<path style=" stroke:none;fill-rule:nonzero;fill:rgb(100%,84.3%,0%);fill-opacity:1;" d="M 53.414062 280.089844 C 53.414062 283.683594 48.019531 283.683594 48.019531 280.089844 C 48.019531 276.492188 53.414062 276.492188 53.414062 280.089844 "/>
<path style=" stroke:none;fill-rule:nonzero;fill:rgb(100%,84.3%,0%);fill-opacity:1;" d="M 254.25 268.746094 C 254.25 272.34375 248.855469 272.34375 248.855469 268.746094 C 248.855469 265.148438 254.25 265.148438 254.25 268.746094 "/>
<path style=" stroke:none;fill-rule:nonzero;fill:rgb(100%,84.3%,0%);fill-opacity:1;" d="M 117.773438 350.378906 C 117.773438 353.976562 112.382812 353.976562 112.382812 350.378906 C 112.382812 346.785156 117.773438 346.785156 117.773438 350.378906 "/>
<path style=" stroke:none;fill-rule:nonzero;fill:rgb(100%,84.3%,0%);fill-opacity:1;" d="M 305.390625 180.78125 C 305.390625 184.378906 299.996094 184.378906 299.996094 180.78125 C 299.996094 177.1875 305.390625 177.1875 305.390625 180.78125 "/>
<path style=" stroke:none;fill-rule:nonzero;fill:rgb(100%,84.3%,0%);fill-opacity:1;" d="M 82.175781 226.769531 C 82.175781 230.363281 76.78125 230.363281 76.78125 226.769531 C 76.78125 223.171875 82.175781 223.171875 82.175781 226.769531 "/>
<path style=" stroke:none;fill-rule:nonzero;fill:rgb(100%,84.3%,0%);fill-opacity:1;" d="M 241.027344 308.988281 C 241.027344 312.585938 235.632812 312.585938 235.632812 308.988281 C 235.632812 305.394531 241.027344 305.394531 241.027344 308.988281 "/>
<path style=" stroke:none;fill-rule:nonzero;fill:rgb(100%,84.3%,0%);fill-opacity:1;" d="M 165.839844 172.691406 C 165.839844 176.285156 160.445312 176.285156 160.445312 172.691406 C 160.445312 169.09375 165.839844 169.09375 165.839844 172.691406 "/>
<path style=" stroke:none;fill-rule:nonzero;fill:rgb(100%,84.3%,0%);fill-opacity:1;" d="M 276.742188 333.539062 C 276.742188 337.132812 271.347656 337.132812 271.347656 333.539062 C 271.347656 329.941406 276.742188 329.941406 276.742188 333.539062 "/>
<path style=" stroke:none;fill-rule:nonzero;fill:rgb(100%,84.3%,0%);fill-opacity:1;" d="M 280.992188 253.707031 C 280.992188 257.304688 275.601562 257.304688 275.601562 253.707031 C 275.601562 250.109375 280.992188 250.109375 280.992188 253.707031 "/>
<path style=" stroke:none;fill-rule:nonzero;fill:rgb(100%,84.3%,0%);fill-opacity:1;" d="M 269.183594 323.269531 C 269.183594 326.863281 263.789062 326.863281 263.789062 323.269531 C 263.789062 319.671875 269.183594 319.671875 269.183594 323.269531 "/>
<path style=" stroke:none;fill-rule:nonzero;fill:rgb(100%,84.3%,0%);fill-opacity:1;" d="M 201.132812 230.851562 C 201.132812 234.445312 195.738281 234.445312 195.738281 230.851562 C 195.738281 227.253906 201.132812 227.253906 201.132812 230.851562 "/>
<path style=" stroke:none;fill-rule:nonzero;fill:rgb(100%,84.3%,0%);fill-opacity:1;" d="M 311.050781 328.769531 C 311.050781 332.363281 305.65625 332.363281 305.65625 328.769531 C 305.65625 325.171875 311.050781 325.171875 311.050781 328.769531 "/>
<path style=" stroke:none;fill-rule:nonzero;fill:rgb(100%,84.3%,0%);fill-opacity:1;" d="M 250.488281 181.539062 C 250.488281 185.136719 245.097656 185.136719 245.097656 181.539062 C 245.097656 177.945312 250.488281 177.945312 250.488281 181.539062 "/>
<path style=" stroke:none;fill-rule:nonzero;fill:rgb(100%,84.3%,0%);fill-opacity:1;" d="M 378.488281 290.285156 C 378.488281 293.882812 373.09375 293.882812 373.09375 290.285156 C 373.09375 286.691406 378.488281 286.691406 378.488281 290.285156 "/>
<path style=" stroke:none;fill-rule:nonzero;fill:rgb(100%,84.3%,0%);fill-opacity:1;" d="M 423.738281 252.460938 C 423.738281 256.058594 418.34375 256.058594 418.34375 252.460938 C 418.34375 248.867188 423.738281 248.867188 423.738281 252.460938 "/>
<path style=" stroke:none;fill-rule:nonzero;fill:rgb(100%,84.3%,0%);fill-opacity:1;" d="M 258.546875 223.273438 C 258.546875 226.871094 253.152344 226.871094 253.152344 223.273438 C 253.152344 219.679688 258.546875 219.679688 258.546875 223.273438 "/>
<path style=" stroke:none;fill-rule:nonzero;fill:rgb(100%,84.3%,0%);fill-opacity:1;" d="M 256.148438 329.527344 C 256.148438 333.125 250.757812 333.125 250.757812 329.527344 C 250.757812 325.933594 256.148438 325.933594 256.148438 329.527344 "/>
<path style=" stroke:none;fill-rule:nonzero;fill:rgb(100%,84.3%,0%);fill-opacity:1;" d="M 420.355469 295.785156 C 420.355469 299.382812 414.960938 299.382812 414.960938 295.785156 C 414.960938 292.1875 420.355469 292.1875 420.355469 295.785156 "/>
<path style=" stroke:none;fill-rule:nonzero;fill:rgb(100%,84.3%,0%);fill-opacity:1;" d="M 80.769531 197.453125 C 80.769531 201.046875 75.375 201.046875 75.375 197.453125 C 75.375 193.855469 80.769531 193.855469 80.769531 197.453125 "/>
<path style=" stroke:none;fill-rule:nonzero;fill:rgb(100%,84.3%,0%);fill-opacity:1;" d="M 359.304688 315.59375 C 359.304688 319.1875 353.910156 319.1875 353.910156 315.59375 C 353.910156 311.996094 359.304688 311.996094 359.304688 315.59375 "/>
<path style=" stroke:none;fill-rule:nonzero;fill:rgb(100%,84.3%,0%);fill-opacity:1;" d="M 90.113281 169.066406 C 90.113281 172.660156 84.71875 172.660156 84.71875 169.066406 C 84.71875 165.46875 90.113281 165.46875 90.113281 169.066406 "/>
<path style=" stroke:none;fill-rule:nonzero;fill:rgb(100%,84.3%,0%);fill-opacity:1;" d="M 351.929688 271.339844 C 351.929688 274.933594 346.535156 274.933594 346.535156 271.339844 C 346.535156 267.742188 351.929688 267.742188 351.929688 271.339844 "/>
<path style=" stroke:none;fill-rule:nonzero;fill:rgb(100%,84.3%,0%);fill-opacity:1;" d="M 213.367188 326.175781 C 213.367188 329.773438 207.972656 329.773438 207.972656 326.175781 C 207.972656 322.578125 213.367188 322.578125 213.367188 326.175781 "/>
<path style=" stroke:none;fill-rule:nonzero;fill:rgb(100%,84.3%,0%);fill-opacity:1;" d="M 71.117188 160.386719 C 71.117188 163.984375 65.722656 163.984375 65.722656 160.386719 C 65.722656 156.789062 71.117188 156.789062 71.117188 160.386719 "/>
<path style=" stroke:none;fill-rule:nonzero;fill:rgb(100%,84.3%,0%);fill-opacity:1;" d="M 97.488281 213.320312 C 97.488281 216.914062 92.09375 216.914062 92.09375 213.320312 C 92.09375 209.722656 97.488281 209.722656 97.488281 213.320312 "/>
<path style=" stroke:none;fill-rule:nonzero;fill:rgb(100%,84.3%,0%);fill-opacity:1;" d="M 82.976562 323.683594 C 82.976562 327.28125 77.582031 327.28125 77.582031 323.683594 C 77.582031 320.089844 82.976562 320.089844 82.976562 323.683594 "/>
<path style=" stroke:none;fill-rule:nonzero;fill:rgb(100%,84.3%,0%);fill-opacity:1;" d="M 170.511719 257.746094 C 170.511719 261.34375 165.117188 261.34375 165.117188 257.746094 C 165.117188 254.152344 170.511719 254.152344 170.511719 257.746094 "/>
<path style=" stroke:none;fill-rule:nonzero;fill:rgb(100%,84.3%,0%);fill-opacity:1;" d="M 315.039062 217.847656 C 315.039062 221.441406 309.648438 221.441406 309.648438 217.847656 C 309.648438 214.25 315.039062 214.25 315.039062 217.847656 "/>
<path style=" stroke:none;fill-rule:nonzero;fill:rgb(100%,84.3%,0%);fill-opacity:1;" d="M 81.191406 163.839844 C 81.191406 167.433594 75.796875 167.433594 75.796875 163.839844 C 75.796875 160.242188 81.191406 160.242188 81.191406 163.839844 "/>
<path style=" stroke:none;fill-rule:nonzero;fill:rgb(100%,84.3%,0%);fill-opacity:1;" d="M 116.601562 321.4375 C 116.601562 325.03125 111.207031 325.03125 111.207031 321.4375 C 111.207031 317.839844 116.601562 317.839844 116.601562 321.4375 "/>
<path style=" stroke:none;fill-rule:nonzero;fill:rgb(100%,84.3%,0%);fill-opacity:1;" d="M 59.304688 229.949219 C 59.304688 233.542969 53.910156 233.542969 53.910156 229.949219 C 53.910156 226.351562 59.304688 226.351562 59.304688 229.949219 "/>
<path style=" stroke:none;fill-rule:nonzero;fill:rgb(100%,84.3%,0%);fill-opacity:1;" d="M 371.042969 180.953125 C 371.042969 184.550781 365.648438 184.550781 365.648438 180.953125 C 365.648438 177.359375 371.042969 177.359375 371.042969 180.953125 "/>
<path style=" stroke:none;fill-rule:nonzero;fill:rgb(100%,84.3%,0%);fill-opacity:1;" d="M 92.507812 261.3125 C 92.507812 264.910156 87.113281 264.910156 87.113281 261.3125 C 87.113281 257.71875 92.507812 257.71875 92.507812 261.3125 "/>
<path style=" stroke:none;fill-rule:nonzero;fill:rgb(100%,84.3%,0%);fill-opacity:1;" d="M 301.585938 257.71875 C 301.585938 261.3125 296.191406 261.3125 296.191406 257.71875 C 296.191406 254.121094 301.585938 254.121094 301.585938 257.71875 "/>
<path style=" stroke:none;fill-rule:nonzero;fill:rgb(100%,84.3%,0%);fill-opacity:1;" d="M 197.070312 276.695312 C 197.070312 280.289062 191.675781 280.289062 191.675781 276.695312 C 191.675781 273.097656 197.070312 273.097656 197.070312 276.695312 "/>
<path style=" stroke:none;fill-rule:nonzero;fill:rgb(100%,84.3%,0%);fill-opacity:1;" d="M 410.703125 258.71875 C 410.703125 262.316406 405.3125 262.316406 405.3125 258.71875 C 405.3125 255.125 410.703125 255.125 410.703125 258.71875 "/>
<path style=" stroke:none;fill-rule:nonzero;fill:rgb(100%,84.3%,0%);fill-opacity:1;" d="M 130.617188 179.605469 C 130.617188 183.203125 125.226562 183.203125 125.226562 179.605469 C 125.226562 176.011719 130.617188 176.011719 130.617188 179.605469 "/>
<path style=" stroke:none;fill-rule:nonzero;fill:rgb(100%,84.3%,0%);fill-opacity:1;" d="M 188.40625 302.558594 C 188.40625 306.15625 183.011719 306.15625 183.011719 302.558594 C 183.011719 298.964844 188.40625 298.964844 188.40625 302.558594 "/>
<path style=" stroke:none;fill-rule:nonzero;fill:rgb(100%,84.3%,0%);fill-opacity:1;" d="M 147.335938 195.476562 C 147.335938 199.070312 141.941406 199.070312 141.941406 195.476562 C 141.941406 191.878906 147.335938 191.878906 147.335938 195.476562 "/>
<path style=" stroke:none;fill-rule:nonzero;fill:rgb(100%,84.3%,0%);fill-opacity:1;" d="M 446.914062 314.734375 C 446.914062 318.328125 441.519531 318.328125 441.519531 314.734375 C 441.519531 311.136719 446.914062 311.136719 446.914062 314.734375 "/>
<path style=" stroke:none;fill-rule:nonzero;fill:rgb(100%,84.3%,0%);fill-opacity:1;" d="M 213.976562 258.578125 C 213.976562 262.175781 208.582031 262.175781 208.582031 258.578125 C 208.582031 254.980469 213.976562 254.980469 213.976562 258.578125 "/>
<path style=" stroke:none;fill-rule:nonzero;fill:rgb(100%,84.3%,0%);fill-opacity:1;" d="M 362.683594 272.269531 C 362.683594 275.863281 357.289062 275.863281 357.289062 272.269531 C 357.289062 268.671875 362.683594 268.671875 362.683594 272.269531 "/>
<path style=" stroke:none;fill-rule:nonzero;fill:rgb(100%,84.3%,0%);fill-opacity:1;" d="M 380.765625 283.097656 C 380.765625 286.691406 375.371094 286.691406 375.371094 283.097656 C 375.371094 279.5 380.765625 279.5 380.765625 283.097656 "/>
<path style=" stroke:none;fill-rule:nonzero;fill:rgb(100%,84.3%,0%);fill-opacity:1;" d="M 153.300781 210.414062 C 153.300781 214.007812 147.90625 214.007812 147.90625 210.414062 C 147.90625 206.816406 153.300781 206.816406 153.300781 210.414062 "/>
<path style=" stroke:none;fill-rule:nonzero;fill:rgb(100%,84.3%,0%);fill-opacity:1;" d="M 388.140625 327.351562 C 388.140625 330.945312 382.746094 330.945312 382.746094 327.351562 C 382.746094 323.753906 388.140625 323.753906 388.140625 327.351562 "/>
<path style=" stroke:none;fill-rule:nonzero;fill:rgb(100%,84.3%,0%);fill-opacity:1;" d="M 303.300781 352.484375 C 303.300781 356.082031 297.90625 356.082031 297.90625 352.484375 C 297.90625 348.890625 303.300781 348.890625 303.300781 352.484375 "/>
<path style=" stroke:none;fill-rule:nonzero;fill:rgb(100%,84.3%,0%);fill-opacity:1;" d="M 139.964844 349.722656 C 139.964844 353.316406 134.570312 353.316406 134.570312 349.722656 C 134.570312 346.125 139.964844 346.125 139.964844 349.722656 "/>
<path style=" stroke:none;fill-rule:nonzero;fill:rgb(100%,84.3%,0%);fill-opacity:1;" d="M 433.808594 255.914062 C 433.808594 259.511719 428.414062 259.511719 428.414062 255.914062 C 428.414062 252.316406 433.808594 252.316406 433.808594 255.914062 "/>
<path style=" stroke:none;fill-rule:nonzero;fill:rgb(100%,84.3%,0%);fill-opacity:1;" d="M 264.394531 337.273438 C 264.394531 340.871094 259 340.871094 259 337.273438 C 259 333.679688 264.394531 333.679688 264.394531 337.273438 "/>
<path style=" stroke:none;fill-rule:nonzero;fill:rgb(100%,84.3%,0%);fill-opacity:1;" d="M 372.523438 275.347656 C 372.523438 278.945312 367.128906 278.945312 367.128906 275.347656 C 367.128906 271.753906 372.523438 271.753906 372.523438 275.347656 "/>
<path style=" stroke:none;fill-rule:nonzero;fill:rgb(100%,84.3%,0%);fill-opacity:1;" d="M 427.234375 308.574219 C 427.234375 312.171875 421.839844 312.171875 421.839844 308.574219 C 421.839844 304.980469 427.234375 304.980469 427.234375 308.574219 "/>
<path style=" stroke:none;fill-rule:nonzero;fill:rgb(100%,84.3%,0%);fill-opacity:1;" d="M 220.433594 304.980469 C 220.433594 308.574219 215.039062 308.574219 215.039062 304.980469 C 215.039062 301.382812 220.433594 301.382812 220.433594 304.980469 "/>
<path style=" stroke:none;fill-rule:nonzero;fill:rgb(100%,84.3%,0%);fill-opacity:1;" d="M 344.863281 292.535156 C 344.863281 296.128906 339.46875 296.128906 339.46875 292.535156 C 339.46875 288.9375 344.863281 288.9375 344.863281 292.535156 "/>
<path style=" stroke:none;fill-rule:nonzero;fill:rgb(100%,84.3%,0%);fill-opacity:1;" d="M 317.203125 309.71875 C 317.203125 313.316406 311.808594 313.316406 311.808594 309.71875 C 311.808594 306.125 317.203125 306.125 317.203125 309.71875 "/>
<path style=" stroke:none;fill-rule:nonzero;fill:rgb(100%,84.3%,0%);fill-opacity:1;" d="M 226.894531 351.382812 C 226.894531 354.976562 221.5 354.976562 221.5 351.382812 C 221.5 347.785156 226.894531 347.785156 226.894531 351.382812 "/>
</g>
</svg>
