<?xml version="1.0" encoding="UTF-8"?>
<svg xmlns="http://www.w3.org/2000/svg" xmlns:xlink="http://www.w3.org/1999/xlink" width="512pt" height="512pt" viewBox="0 0 512 512" version="1.1">
<g id="surface91">
<rect x="0" y="0" width="512" height="512" style="fill:rgb(26.7%,26.7%,26.7%);fill-opacity:1;stroke:none;"/>
<path style=" stroke:none;fill-rule:nonzero;fill:rgb(19.2%,38.8%,66.7%);fill-opacity:1;" d="M 42.667969 281.78125 L 469.332031 281.78125 L 469.332031 491.070312 L 42.667969 491.070312 Z M 42.667969 281.78125 "/>
<path style=" stroke:none;fill-rule:nonzero;fill:rgb(100%,84.3%,0%);fill-opacity:1;" d="M 456.070312 450.761719 C 456.070312 454.355469 450.675781 454.355469 450.675781 450.761719 C 450.675781 447.164062 456.070312 447.164062 456.070312 450.761719 "/>
<path style=" stroke:none;fill-rule:nonzero;fill:rgb(100%,84.3%,0%);fill-opacity:1;" d="M 351.320312 469.363281 C 351.320312 472.960938 345.925781 472.960938 345.925781 469.363281 C 345.925781 465.769531 351.320312 465.769531 351.320312 469.363281 "/>
<path style=" stroke:none;fill-rule:nonzero;fill:rgb(100%,84.3%,0%);fill-opacity:1;" d="M 134.683594 462.691406 C 134.683594 466.285156 129.289062 466.285156 129.289062 462.691406 C 129.289062 459.09375 134.683594 459.09375 134.683594 462.691406 "/>
<path style=" stroke:none;fill-rule:nonzero;fill:rgb(100%,84.3%,0%);fill-opacity:1;" d="M 451.703125 431.152344 C 451.703125 434.75 446.308594 434.75 446.308594 431.152344 C 446.308594 427.558594 451.703125 427.558594 451.703125 431.152344 "/>
<path style=" stroke:none;fill-rule:nonzero;fill:rgb(100%,84.3%,0%);fill-opacity:1;" d="M 141.066406 444.015625 C 141.066406 447.609375 135.671875 447.609375 135.671875 444.015625 C 135.671875 440.417969 141.066406 440.417969 141.066406 444.015625 "/>
<path style=" stroke:none;fill-rule:nonzero;fill:rgb(100%,84.3%,0%);fill-opacity:1;" d="M 76.589844 472.785156 C 76.589844 476.382812 71.195312 476.382812 71.195312 472.785156 C 71.195312 469.191406 76.589844 469.191406 76.589844 472.785156 "/>
<path style=" stroke:none;fill-rule:nonzero;fill:rgb(100%,84.3%,0%);fill-opacity:1;" d="M 446.84375 380.082031 C 446.84375 383.679688 441.449219 383.679688 441.449219 380.082031 C 441.449219 376.488281 446.84375 376.488281 446.84375 380.082031 "/>
<path style=" stroke:none;fill-rule:nonzero;fill:rgb(100%,84.3%,0%);fill-opacity:1;" d="M 408.238281 430.324219 C 408.238281 433.917969 402.84375 433.917969 402.84375 430.324219 C 402.84375 426.726562 408.238281 426.726562 408.238281 430.324219 "/>
<path style=" stroke:none;fill-rule:nonzero;fill:rgb(100%,84.3%,0%);fill-opacity:1;" d="M 327.769531 475.0625 C 327.769531 478.660156 322.375 478.660156 322.375 475.0625 C 322.375 471.46875 327.769531 471.46875 327.769531 475.0625 "/>
<path style=" stroke:none;fill-rule:nonzero;fill:rgb(100%,84.3%,0%);fill-opacity:1;" d="M 369.332031 415.113281 C 369.332031 418.710938 363.9375 418.710938 363.9375 415.113281 C 363.9375 411.515625 369.332031 411.515625 369.332031 415.113281 "/>
<path style=" stroke:none;fill-rule:nonzero;fill:rgb(100%,84.3%,0%);fill-opacity:1;" d="M 338.710938 442.011719 C 338.710938 445.605469 333.316406 445.605469 333.316406 442.011719 C 333.316406 438.414062 338.710938 438.414062 338.710938 442.011719 "/>
<path style=" stroke:none;fill-rule:nonzero;fill:rgb(100%,84.3%,0%);fill-opacity:1;" d="M 107.632812 412.277344 C 107.632812 415.871094 102.238281 415.871094 102.238281 412.277344 C 102.238281 408.679688 107.632812 408.679688 107.632812 412.277344 "/>
<path style=" stroke:none;fill-rule:nonzero;fill:rgb(100%,84.3%,0%);fill-opacity:1;" d="M 96.878906 411.347656 C 96.878906 414.941406 91.484375 414.941406 91.484375 411.347656 C 91.484375 407.75 96.878906 407.75 96.878906 411.347656 "/>
<path style=" stroke:none;fill-rule:nonzero;fill:rgb(100%,84.3%,0%);fill-opacity:1;" d="M 117.46875 415.355469 C 117.46875 418.953125 112.074219 418.953125 112.074219 415.355469 C 112.074219 411.761719 117.46875 411.761719 117.46875 415.355469 "/>
<path style=" stroke:none;fill-rule:nonzero;fill:rgb(100%,84.3%,0%);fill-opacity:1;" d="M 413.898438 379.808594 C 413.898438 383.40625 408.503906 383.40625 408.503906 379.808594 C 408.503906 376.214844 413.898438 376.214844 413.898438 379.808594 "/>
<path style=" stroke:none;fill-rule:nonzero;fill:rgb(100%,84.3%,0%);fill-opacity:1;" d="M 194.183594 481.910156 C 194.183594 485.507812 188.789062 485.507812 188.789062 481.910156 C 188.789062 478.3125 194.183594 478.3125 194.183594 481.910156 "/>
<path style=" stroke:none;fill-rule:nonzero;fill:rgb(100%,84.3%,0%);fill-opacity:1;" d="M 140.761719 378.5625 C 140.761719 382.160156 135.367188 382.160156 135.367188 378.5625 C 135.367188 374.96875 140.761719 374.96875 140.761719 378.5625 "/>
<path style=" stroke:none;fill-rule:nonzero;fill:rgb(100%,84.3%,0%);fill-opacity:1;" d="M 181.339844 454.183594 C 181.339844 457.777344 175.945312 457.777344 175.945312 454.183594 C 175.945312 450.585938 181.339844 450.585938 181.339844 454.183594 "/>
<path style=" stroke:none;fill-rule:nonzero;fill:rgb(100%,84.3%,0%);fill-opacity:1;" d="M 75.296875 344.40625 C 75.296875 348.003906 69.902344 348.003906 69.902344 344.40625 C 69.902344 340.808594 75.296875 340.808594 75.296875 344.40625 "/>
<path style=" stroke:none;fill-rule:nonzero;fill:rgb(100%,84.3%,0%);fill-opacity:1;" d="M 173.894531 344.851562 C 173.894531 348.445312 168.5 348.445312 168.5 344.851562 C 168.5 341.253906 173.894531 341.253906 173.894531 344.851562 "/>
<path style=" stroke:none;fill-rule:nonzero;fill:rgb(100%,84.3%,0%);fill-opacity:1;" d="M 53.71875 475.964844 C 53.71875 479.5625 48.324219 479.5625 48.324219 475.964844 C 48.324219 472.371094 53.71875 472.371094 53.71875 475.964844 "/>
<path style=" stroke:none;fill-rule:nonzero;fill:rgb(100%,84.3%,0%);fill-opacity:1;" d="M 295.316406 307.757812 C 295.316406 311.351562 289.925781 311.351562 289.925781 307.757812 C 289.925781 304.160156 295.316406 304.160156 295.316406 307.757812 "/>
<path style=" stroke:none;fill-rule:nonzero;fill:rgb(100%,84.3%,0%);fill-opacity:1;" d="M 349.042969 476.554688 C 349.042969 480.148438 343.648438 480.148438 343.648438 476.554688 C 343.648438 472.957031 349.042969 472.957031 349.042969 476.554688 "/>
<path style=" stroke:none;fill-rule:nonzero;fill:rgb(100%,84.3%,0%);fill-opacity:1;" d="M 52.238281 381.570312 C 52.238281 385.167969 46.84375 385.167969 46.84375 381.570312 C 46.84375 377.976562 52.238281 377.976562 52.238281 381.570312 "/>
<path style=" stroke:none;fill-rule:nonzero;fill:rgb(100%,84.3%,0%);fill-opacity:1;" d="M 405.726562 437.140625 C 405.726562 440.734375 400.335938 440.734375 400.335938 437.140625 C 400.335938 433.542969 405.726562 433.542969 405.726562 437.140625 "/>
<path style=" stroke:none;fill-rule:nonzero;fill:rgb(100%,84.3%,0%);fill-opacity:1;" d="M 356.910156 353.773438 C 356.910156 357.367188 351.515625 357.367188 351.515625 353.773438 C 351.515625 350.175781 356.910156 350.175781 356.910156 353.773438 "/>
<path style=" stroke:none;fill-rule:nonzero;fill:rgb(100%,84.3%,0%);fill-opacity:1;" d="M 438.480469 471.398438 C 438.480469 474.992188 433.089844 474.992188 433.089844 471.398438 C 433.089844 467.800781 438.480469 467.800781 438.480469 471.398438 "/>
<path style=" stroke:none;fill-rule:nonzero;fill:rgb(100%,84.3%,0%);fill-opacity:1;" d="M 159.265625 355.777344 C 159.265625 359.375 153.871094 359.375 153.871094 355.777344 C 153.871094 352.183594 159.265625 352.183594 159.265625 355.777344 "/>
<path style=" stroke:none;fill-rule:nonzero;fill:rgb(100%,84.3%,0%);fill-opacity:1;" d="M 101.359375 331.890625 C 101.359375 335.484375 95.96875 335.484375 95.96875 331.890625 C 95.96875 328.292969 101.359375 328.292969 101.359375 331.890625 "/>
<path style=" stroke:none;fill-rule:nonzero;fill:rgb(100%,84.3%,0%);fill-opacity:1;" d="M 147.410156 390.980469 C 147.410156 394.578125 142.015625 394.578125 142.015625 390.980469 C 142.015625 387.386719 147.410156 387.386719 147.410156 390.980469 "/>
<path style=" stroke:none;fill-rule:nonzero;fill:rgb(100%,84.3%,0%);fill-opacity:1;" d="M 103.757812 424.136719 C 103.757812 427.730469 98.363281 427.730469 98.363281 424.136719 C 98.363281 420.539062 103.757812 420.539062 103.757812 424.136719 "/>
<path style=" stroke:none;fill-rule:nonzero;fill:rgb(100%,84.3%,0%);fill-opacity:1;" d="M 352.046875 302.703125 C 352.046875 306.296875 346.652344 306.296875 346.652344 302.703125 C 346.652344 299.105469 352.046875 299.105469 352.046875 302.703125 "/>
<path style=" stroke:none;fill-rule:nonzero;fill:rgb(100%,84.3%,0%);fill-opacity:1;" d="M 433.011719 289.425781 C 433.011719 293.023438 427.617188 293.023438 427.617188 289.425781 C 427.617188 285.828125 433.011719 285.828125 433.011719 289.425781 "/>
<path style=" stroke:none;fill-rule:nonzero;fill:rgb(100%,84.3%,0%);fill-opacity:1;" d="M 100.070312 402.007812 C 100.070312 405.605469 94.675781 405.605469 94.675781 402.007812 C 94.675781 398.414062 100.070312 398.414062 100.070312 402.007812 "/>
<path style=" stroke:none;fill-rule:nonzero;fill:rgb(100%,84.3%,0%);fill-opacity:1;" d="M 449.003906 471.957031 C 449.003906 475.550781 443.609375 475.550781 443.609375 471.957031 C 443.609375 468.359375 449.003906 468.359375 449.003906 471.957031 "/>
<path style=" stroke:none;fill-rule:nonzero;fill:rgb(100%,84.3%,0%);fill-opacity:1;" d="M 297.828125 300.941406 C 297.828125 304.535156 292.433594 304.535156 292.433594 300.941406 C 292.433594 297.34375 297.828125 297.34375 297.828125 300.941406 "/>
<path style=" stroke:none;fill-rule:nonzero;fill:rgb(100%,84.3%,0%);fill-opacity:1;" d="M 185.636719 408.710938 C 185.636719 412.308594 180.242188 412.308594 180.242188 408.710938 C 180.242188 405.117188 185.636719 405.117188 185.636719 408.710938 "/>
<path style=" stroke:none;fill-rule:nonzero;fill:rgb(100%,84.3%,0%);fill-opacity:1;" d="M 106.527344 448.410156 C 106.527344 452.007812 101.132812 452.007812 101.132812 448.410156 C 101.132812 444.816406 106.527344 444.816406 106.527344 448.410156 "/>
<path style=" stroke:none;fill-rule:nonzero;fill:rgb(100%,84.3%,0%);fill-opacity:1;" d="M 291.066406 387.585938 C 291.066406 391.183594 285.671875 391.183594 285.671875 387.585938 C 285.671875 383.992188 291.066406 383.992188 291.066406 387.585938 "/>
<path style=" stroke:none;fill-rule:nonzero;fill:rgb(100%,84.3%,0%);fill-opacity:1;" d="M 89.621094 466.527344 C 89.621094 470.125 84.226562 470.125 84.226562 466.527344 C 84.226562 462.933594 89.621094 462.933594 89.621094 466.527344 "/>
<path style=" stroke:none;fill-rule:nonzero;fill:rgb(100%,84.3%,0%);fill-opacity:1;" d="M 125.148438 326.5625 C 125.148438 330.15625 119.753906 330.15625 119.753906 326.5625 C 119.753906 322.964844 125.148438 322.964844 125.148438 326.5625 "/>
<path style=" stroke:none;fill-rule:nonzero;fill:rgb(100%,84.3%,0%);fill-opacity:1;" d="M 324.574219 484.402344 C 324.574219 487.996094 319.179688 487.996094 319.179688 484.402344 C 319.179688 480.804688 324.574219 480.804688 324.574219 484.402344 "/>
<path style=" stroke:none;fill-rule:nonzero;fill:rgb(100%,84.3%,0%);fill-opacity:1;" d="M 260.707031 445.574219 C 260.707031 449.171875 255.3125 449.171875 255.3125 445.574219 C 255.3125 441.980469 260.707031 441.980469 260.707031 445.574219 "/>
<path style=" stroke:none;fill-rule:nonzero;fill:rgb(100%,84.3%,0%);fill-opacity:1;" d="M 320.019531 300.28125 C 320.019531 303.878906 314.625 303.878906 314.625 300.28125 C 314.625 296.6875 320.019531 296.6875 320.019531 300.28125 "/>
<path style=" stroke:none;fill-rule:nonzero;fill:rgb(100%,84.3%,0%);fill-opacity:1;" d="M 401.664062 482.984375 C 401.664062 486.578125 396.269531 486.578125 396.269531 482.984375 C 396.269531 479.386719 401.664062 479.386719 401.664062 482.984375 "/>
<path style=" stroke:none;fill-rule:nonzero;fill:rgb(100%,84.3%,0%);fill-opacity:1;" d="M 258.121094 387.3125 C 258.121094 390.910156 252.730469 390.910156 252.730469 387.3125 C 252.730469 383.71875 258.121094 383.71875 258.121094 387.3125 "/>
<path style=" stroke:none;fill-rule:nonzero;fill:rgb(100%,84.3%,0%);fill-opacity:1;" d="M 355.617188 423.894531 C 355.617188 427.488281 350.222656 427.488281 350.222656 423.894531 C 350.222656 420.296875 355.617188 420.296875 355.617188 423.894531 "/>
<path style=" stroke:none;fill-rule:nonzero;fill:rgb(100%,84.3%,0%);fill-opacity:1;" d="M 106.339844 482.398438 C 106.339844 485.992188 100.945312 485.992188 100.945312 482.398438 C 100.945312 478.800781 106.339844 478.800781 106.339844 482.398438 "/>
<path style=" stroke:none;fill-rule:nonzero;fill:rgb(100%,84.3%,0%);fill-opacity:1;" d="M 302.808594 451.449219 C 302.808594 455.042969 297.414062 455.042969 297.414062 451.449219 C 297.414062 447.851562 302.808594 447.851562 302.808594 451.449219 "/>
<path style=" stroke:none;fill-rule:nonzero;fill:rgb(100%,84.3%,0%);fill-opacity:1;" d="M 225.71875 452.867188 C 225.71875 456.460938 220.324219 456.460938 220.324219 452.867188 C 220.324219 449.269531 225.71875 449.269531 225.71875 452.867188 "/>
<path style=" stroke:none;fill-rule:nonzero;fill:rgb(100%,84.3%,0%);fill-opacity:1;" d="M 160.746094 450.171875 C 160.746094 453.769531 155.351562 453.769531 155.351562 450.171875 C 155.351562 446.578125 160.746094 446.578125 160.746094 450.171875 "/>
<path style=" stroke:none;fill-rule:nonzero;fill:rgb(100%,84.3%,0%);fill-opacity:1;" d="M 352.425781 433.230469 C 352.425781 436.824219 347.03125 436.824219 347.03125 433.230469 C 347.03125 429.632812 352.425781 429.632812 352.425781 433.230469 "/>
<path style=" stroke:none;fill-rule:nonzero;fill:rgb(100%,84.3%,0%);fill-opacity:1;" d="M 85.746094 478.386719 C 85.746094 481.984375 80.351562 481.984375 80.351562 478.386719 C 80.351562 474.789062 85.746094 474.789062 85.746094 478.386719 "/>
<path style=" stroke:none;fill-rule:nonzero;fill:rgb(100%,84.3%,0%);fill-opacity:1;" d="M 251.054688 408.511719 C 251.054688 412.105469 245.660156 412.105469 245.660156 408.511719 C 245.660156 404.914062 251.054688 404.914062 251.054688 408.511719 "/>
<path style=" stroke:none;fill-rule:nonzero;fill:rgb(100%,84.3%,0%);fill-opacity:1;" d="M 145.4375 463.621094 C 145.4375 467.21875 140.042969 467.21875 140.042969 463.621094 C 140.042969 460.023438 145.4375 460.023438 145.4375 463.621094 "/>
<path style=" stroke:none;fill-rule:nonzero;fill:rgb(100%,84.3%,0%);fill-opacity:1;" d="M 204.023438 484.988281 C 204.023438 488.585938 198.628906 488.585938 198.628906 484.988281 C 198.628906 481.394531 204.023438 481.394531 204.023438 484.988281 "/>
<path style=" stroke:none;fill-rule:nonzero;fill:rgb(100%,84.3%,0%);fill-opacity:1;" d="M 337.605469 478.144531 C 337.605469 481.738281 332.214844 481.738281 332.214844 478.144531 C 332.214844 474.546875 337.605469 474.546875 337.605469 478.144531 "/>
<path style=" stroke:none;fill-rule:nonzero;fill:rgb(100%,84.3%,0%);fill-opacity:1;" d="M 186.621094 471.640625 C 186.621094 475.238281 181.226562 475.238281 181.226562 471.640625 C 181.226562 468.046875 186.621094 468.046875 186.621094 471.640625 "/>
<path style=" stroke:none;fill-rule:nonzero;fill:rgb(100%,84.3%,0%);fill-opacity:1;" d="M 190.308594 295.269531 C 190.308594 298.863281 184.914062 298.863281 184.914062 295.269531 C 184.914062 291.671875 190.308594 291.671875 190.308594 295.269531 "/>
<path style=" stroke:none;fill-rule:nonzero;fill:rgb(100%,84.3%,0%);fill-opacity:1;" d="M 130.921875 375.484375 C 130.921875 379.082031 125.527344 379.082031 125.527344 375.484375 C 125.527344 371.890625 130.921875 371.890625 130.921875 375.484375 "/>
<path style=" stroke:none;fill-rule:nonzero;fill:rgb(100%,84.3%,0%);fill-opacity:1;" d="M 225.90625 418.878906 C 225.90625 422.476562 220.511719 422.476562 220.511719 418.878906 C 220.511719 415.285156 225.90625 415.285156 225.90625 418.878906 "/>
<path style=" stroke:none;fill-rule:nonzero;fill:rgb(100%,84.3%,0%);fill-opacity:1;" d="M 230.765625 469.949219 C 230.765625 473.546875 225.371094 473.546875 225.371094 469.949219 C 225.371094 466.355469 230.765625 466.355469 230.765625 469.949219 "/>
<path style=" stroke:none;fill-rule:nonzero;fill:rgb(100%,84.3%,0%);fill-opacity:1;" d="M 56.417969 435.164062 C 56.417969 438.761719 51.023438 438.761719 51.023438 435.164062 C 51.023438 431.566406 56.417969 431.566406 56.417969 435.164062 "/>
<path style=" stroke:none;fill-rule:nonzero;fill:rgb(100%,84.3%,0%);fill-opacity:1;" d="M 396.804688 431.914062 C 396.804688 435.507812 391.410156 435.507812 391.410156 431.914062 C 391.410156 428.316406 396.804688 428.316406 396.804688 431.914062 "/>
<path style=" stroke:none;fill-rule:nonzero;fill:rgb(100%,84.3%,0%);fill-opacity:1;" d="M 90.417969 364.945312 C 90.417969 368.539062 85.023438 368.539062 85.023438 364.945312 C 85.023438 361.347656 90.417969 361.347656 90.417969 364.945312 "/>
<path style=" stroke:none;fill-rule:nonzero;fill:rgb(100%,84.3%,0%);fill-opacity:1;" d="M 381.1875 379.910156 C 381.1875 383.507812 375.792969 383.507812 375.792969 379.910156 C 375.792969 376.316406 381.1875 376.316406 381.1875 379.910156 "/>
<path style=" stroke:none;fill-rule:nonzero;fill:rgb(100%,84.3%,0%);fill-opacity:1;" d="M 424.230469 414.355469 C 424.230469 417.949219 418.835938 417.949219 418.835938 414.355469 C 418.835938 410.757812 424.230469 410.757812 424.230469 414.355469 "/>
<path style=" stroke:none;fill-rule:nonzero;fill:rgb(100%,84.3%,0%);fill-opacity:1;" d="M 183.125 415.527344 C 183.125 419.125 177.730469 419.125 177.730469 415.527344 C 177.730469 411.933594 183.125 411.933594 183.125 415.527344 "/>
<path style=" stroke:none;fill-rule:nonzero;fill:rgb(100%,84.3%,0%);fill-opacity:1;" d="M 113.101562 395.75 C 113.101562 399.347656 107.707031 399.347656 107.707031 395.75 C 107.707031 392.152344 113.101562 392.152344 113.101562 395.75 "/>
<path style=" stroke:none;fill-rule:nonzero;fill:rgb(100%,84.3%,0%);fill-opacity:1;" d="M 353.902344 329.125 C 353.902344 332.722656 348.511719 332.722656 348.511719 329.125 C 348.511719 325.527344 353.902344 325.527344 353.902344 329.125 "/>
<path style=" stroke:none;fill-rule:nonzero;fill:rgb(100%,84.3%,0%);fill-opacity:1;" d="M 69.824219 360.933594 C 69.824219 364.53125 64.433594 364.53125 64.433594 360.933594 C 64.433594 357.339844 69.824219 357.339844 69.824219 360.933594 "/>
<path style=" stroke:none;fill-rule:nonzero;fill:rgb(100%,84.3%,0%);fill-opacity:1;" d="M 114.511719 425.066406 C 114.511719 428.664062 109.117188 428.664062 109.117188 425.066406 C 109.117188 421.472656 114.511719 421.472656 114.511719 425.066406 "/>
<path style=" stroke:none;fill-rule:nonzero;fill:rgb(100%,84.3%,0%);fill-opacity:1;" d="M 403.941406 475.792969 C 403.941406 479.390625 398.550781 479.390625 398.550781 475.792969 C 398.550781 472.199219 403.941406 472.199219 403.941406 475.792969 "/>
<path style=" stroke:none;fill-rule:nonzero;fill:rgb(100%,84.3%,0%);fill-opacity:1;" d="M 459.265625 441.421875 C 459.265625 445.019531 453.871094 445.019531 453.871094 441.421875 C 453.871094 437.828125 459.265625 437.828125 459.265625 441.421875 "/>
<path style=" stroke:none;fill-rule:nonzero;fill:rgb(100%,84.3%,0%);fill-opacity:1;" d="M 95.585938 481.464844 C 95.585938 485.0625 90.191406 485.0625 90.191406 481.464844 C 90.191406 477.867188 95.585938 477.867188 95.585938 481.464844 "/>
<path style=" stroke:none;fill-rule:nonzero;fill:rgb(100%,84.3%,0%);fill-opacity:1;" d="M 101.171875 365.875 C 101.171875 369.472656 95.777344 369.472656 95.777344 365.875 C 95.777344 362.277344 101.171875 362.277344 101.171875 365.875 "/>
<path style=" stroke:none;fill-rule:nonzero;fill:rgb(100%,84.3%,0%);fill-opacity:1;" d="M 113.40625 461.199219 C 113.40625 464.796875 108.011719 464.796875 108.011719 461.199219 C 108.011719 457.605469 113.40625 457.605469 113.40625 461.199219 "/>
<path style=" stroke:none;fill-rule:nonzero;fill:rgb(100%,84.3%,0%);fill-opacity:1;" d="M 142.242188 472.960938 C 142.242188 476.554688 136.847656 476.554688 136.847656 472.960938 C 136.847656 469.363281 142.242188 469.363281 142.242188 472.960938 "/>
<path style=" stroke:none;fill-rule:nonzero;fill:rgb(100%,84.3%,0%);fill-opacity:1;" d="M 392.203125 411.933594 C 392.203125 415.527344 386.808594 415.527344 386.808594 411.933594 C 386.808594 408.335938 392.203125 408.335938 392.203125 411.933594 "/>
<path style=" stroke:none;fill-rule:nonzero;fill:rgb(100%,84.3%,0%);fill-opacity:1;" d="M 270.472656 383.578125 C 270.472656 387.171875 265.078125 387.171875 265.078125 383.578125 C 265.078125 379.980469 270.472656 379.980469 270.472656 383.578125 "/>
<path style=" stroke:none;fill-rule:nonzero;fill:rgb(100%,84.3%,0%);fill-opacity:1;" d="M 205.007812 349.417969 C 205.007812 353.015625 199.613281 353.015625 199.613281 349.417969 C 199.613281 345.824219 205.007812 345.824219 205.007812 349.417969 "/>
<path style=" stroke:none;fill-rule:nonzero;fill:rgb(100%,84.3%,0%);fill-opacity:1;" d="M 217.664062 411.132812 C 217.664062 414.726562 212.269531 414.726562 212.269531 411.132812 C 212.269531 407.535156 217.664062 407.535156 217.664062 411.132812 "/>
<path style=" stroke:none;fill-rule:nonzero;fill:rgb(100%,84.3%,0%);fill-opacity:1;" d="M 342.585938 430.152344 C 342.585938 433.746094 337.191406 433.746094 337.191406 430.152344 C 337.191406 426.554688 342.585938 426.554688 342.585938 430.152344 "/>
<path style=" stroke:none;fill-rule:nonzero;fill:rgb(100%,84.3%,0%);fill-opacity:1;" d="M 397.296875 463.378906 C 397.296875 466.972656 391.902344 466.972656 391.902344 463.378906 C 391.902344 459.78125 397.296875 459.78125 397.296875 463.378906 "/>
<path style=" stroke:none;fill-rule:nonzero;fill:rgb(100%,84.3%,0%);fill-opacity:1;" d="M 274.230469 470.78125 C 274.230469 474.378906 268.839844 474.378906 268.839844 470.78125 C 268.839844 467.183594 274.230469 467.183594 274.230469 470.78125 "/>
<path style=" stroke:none;fill-rule:nonzero;fill:rgb(100%,84.3%,0%);fill-opacity:1;" d="M 370.738281 444.429688 C 370.738281 448.027344 365.34375 448.027344 365.34375 444.429688 C 365.34375 440.835938 370.738281 440.835938 370.738281 444.429688 "/>
<path style=" stroke:none;fill-rule:nonzero;fill:rgb(100%,84.3%,0%);fill-opacity:1;" d="M 100.1875 302.945312 C 100.1875 306.539062 94.792969 306.539062 94.792969 302.945312 C 94.792969 299.347656 100.1875 299.347656 100.1875 302.945312 "/>
<path style=" stroke:none;fill-rule:nonzero;fill:rgb(100%,84.3%,0%);fill-opacity:1;" d="M 335.707031 417.359375 C 335.707031 420.957031 330.3125 420.957031 330.3125 417.359375 C 330.3125 413.765625 335.707031 413.765625 335.707031 417.359375 "/>
<path style=" stroke:none;fill-rule:nonzero;fill:rgb(100%,84.3%,0%);fill-opacity:1;" d="M 324.386719 319.886719 C 324.386719 323.484375 318.992188 323.484375 318.992188 319.886719 C 318.992188 316.292969 324.386719 316.292969 324.386719 319.886719 "/>
<path style=" stroke:none;fill-rule:nonzero;fill:rgb(100%,84.3%,0%);fill-opacity:1;" d="M 452.195312 462.617188 C 452.195312 466.214844 446.800781 466.214844 446.800781 462.617188 C 446.800781 459.023438 452.195312 459.023438 452.195312 462.617188 "/>
<path style=" stroke:none;fill-rule:nonzero;fill:rgb(100%,84.3%,0%);fill-opacity:1;" d="M 264.582031 433.71875 C 264.582031 437.3125 259.1875 437.3125 259.1875 433.71875 C 259.1875 430.121094 264.582031 430.121094 264.582031 433.71875 "/>
<path style=" stroke:none;fill-rule:nonzero;fill:rgb(100%,84.3%,0%);fill-opacity:1;" d="M 294.144531 477.3125 C 294.144531 480.910156 288.75 480.910156 288.75 477.3125 C 288.75 473.71875 294.144531 473.71875 294.144531 477.3125 "/>
<path style=" stroke:none;fill-rule:nonzero;fill:rgb(100%,84.3%,0%);fill-opacity:1;" d="M 207.519531 342.601562 C 207.519531 346.199219 202.125 346.199219 202.125 342.601562 C 202.125 339.007812 207.519531 339.007812 207.519531 342.601562 "/>
<path style=" stroke:none;fill-rule:nonzero;fill:rgb(100%,84.3%,0%);fill-opacity:1;" d="M 138.0625 419.367188 C 138.0625 422.960938 132.667969 422.960938 132.667969 419.367188 C 132.667969 415.769531 138.0625 415.769531 138.0625 419.367188 "/>
<path style=" stroke:none;fill-rule:nonzero;fill:rgb(100%,84.3%,0%);fill-opacity:1;" d="M 53.222656 444.5 C 53.222656 448.097656 47.828125 448.097656 47.828125 444.5 C 47.828125 440.90625 53.222656 440.90625 53.222656 444.5 "/>
<path style=" stroke:none;fill-rule:nonzero;fill:rgb(100%,84.3%,0%);fill-opacity:1;" d="M 284.375 340.8125 C 284.375 344.40625 278.980469 344.40625 278.980469 340.8125 C 278.980469 337.214844 284.375 337.214844 284.375 340.8125 "/>
<path style=" stroke:none;fill-rule:nonzero;fill:rgb(100%,84.3%,0%);fill-opacity:1;" d="M 281.792969 481.050781 C 281.792969 484.644531 276.398438 484.644531 276.398438 481.050781 C 276.398438 477.453125 281.792969 477.453125 281.792969 481.050781 "/>
<path style=" stroke:none;fill-rule:nonzero;fill:rgb(100%,84.3%,0%);fill-opacity:1;" d="M 71.539062 455.699219 C 71.539062 459.296875 66.144531 459.296875 66.144531 455.699219 C 66.144531 452.105469 71.539062 452.105469 71.539062 455.699219 "/>
<path style=" stroke:none;fill-rule:nonzero;fill:rgb(100%,84.3%,0%);fill-opacity:1;" d="M 72.410156 419.195312 C 72.410156 422.789062 67.015625 422.789062 67.015625 419.195312 C 67.015625 415.597656 72.410156 415.597656 72.410156 419.195312 "/>
<path style=" stroke:none;fill-rule:nonzero;fill:rgb(100%,84.3%,0%);fill-opacity:1;" d="M 116.296875 386.414062 C 116.296875 390.007812 110.902344 390.007812 110.902344 386.414062 C 110.902344 382.816406 116.296875 382.816406 116.296875 386.414062 "/>
<path style=" stroke:none;fill-rule:nonzero;fill:rgb(100%,84.3%,0%);fill-opacity:1;" d="M 65.152344 474.375 C 65.152344 477.972656 59.757812 477.972656 59.757812 474.375 C 59.757812 470.78125 65.152344 470.78125 65.152344 474.375 "/>
<path style=" stroke:none;fill-rule:nonzero;fill:rgb(100%,84.3%,0%);fill-opacity:1;" d="M 94.597656 418.535156 C 94.597656 422.132812 89.203125 422.132812 89.203125 418.535156 C 89.203125 414.941406 94.597656 414.941406 94.597656 418.535156 "/>
<path style=" stroke:none;fill-rule:nonzero;fill:rgb(100%,84.3%,0%);fill-opacity:1;" d="M 361.464844 339.394531 C 361.464844 342.988281 356.070312 342.988281 356.070312 339.394531 C 356.070312 335.796875 361.464844 335.796875 361.464844 339.394531 "/>
<path style=" stroke:none;fill-rule:nonzero;fill:rgb(100%,84.3%,0%);fill-opacity:1;" d="M 321.308594 428.660156 C 321.308594 432.257812 315.914062 432.257812 315.914062 428.660156 C 315.914062 425.066406 321.308594 425.066406 321.308594 428.660156 "/>
<path style=" stroke:none;fill-rule:nonzero;fill:rgb(100%,84.3%,0%);fill-opacity:1;" d="M 91.40625 427.871094 C 91.40625 431.46875 86.011719 431.46875 86.011719 427.871094 C 86.011719 424.277344 91.40625 424.277344 91.40625 427.871094 "/>
<path style=" stroke:none;fill-rule:nonzero;fill:rgb(100%,84.3%,0%);fill-opacity:1;" d="M 464.734375 424.894531 C 464.734375 428.492188 459.339844 428.492188 459.339844 424.894531 C 459.339844 421.300781 464.734375 421.300781 464.734375 424.894531 "/>
<path style=" stroke:none;fill-rule:nonzero;fill:rgb(100%,84.3%,0%);fill-opacity:1;" d="M 459.757812 472.886719 C 459.757812 476.484375 454.363281 476.484375 454.363281 472.886719 C 454.363281 469.289062 459.757812 469.289062 459.757812 472.886719 "/>
<path style=" stroke:none;fill-rule:nonzero;fill:rgb(100%,84.3%,0%);fill-opacity:1;" d="M 117.585938 316.292969 C 117.585938 319.890625 112.191406 319.890625 112.191406 316.292969 C 112.191406 312.695312 117.585938 312.695312 117.585938 316.292969 "/>
<path style=" stroke:none;fill-rule:nonzero;fill:rgb(100%,84.3%,0%);fill-opacity:1;" d="M 61.277344 287.734375 C 61.277344 291.332031 55.886719 291.332031 55.886719 287.734375 C 55.886719 284.140625 61.277344 284.140625 61.277344 287.734375 "/>
<path style=" stroke:none;fill-rule:nonzero;fill:rgb(100%,84.3%,0%);fill-opacity:1;" d="M 240.839844 473.402344 C 240.839844 477 235.445312 477 235.445312 473.402344 C 235.445312 469.808594 240.839844 469.808594 240.839844 473.402344 "/>
<path style=" stroke:none;fill-rule:nonzero;fill:rgb(100%,84.3%,0%);fill-opacity:1;" d="M 66.9375 435.722656 C 66.9375 439.316406 61.542969 439.316406 61.542969 435.722656 C 61.542969 432.125 66.9375 432.125 66.9375 435.722656 "/>
<path style=" stroke:none;fill-rule:nonzero;fill:rgb(100%,84.3%,0%);fill-opacity:1;" d="M 365.644531 392.984375 C 365.644531 396.582031 360.25 396.582031 360.25 392.984375 C 360.25 389.390625 365.644531 389.390625 365.644531 392.984375 "/>
<path style=" stroke:none;fill-rule:nonzero;fill:rgb(100%,84.3%,0%);fill-opacity:1;" d="M 167.8125 428.976562 C 167.8125 432.574219 162.417969 432.574219 162.417969 428.976562 C 162.417969 425.382812 167.8125 425.382812 167.8125 428.976562 "/>
<path style=" stroke:none;fill-rule:nonzero;fill:rgb(100%,84.3%,0%);fill-opacity:1;" d="M 267.773438 424.378906 C 267.773438 427.976562 262.378906 427.976562 262.378906 424.378906 C 262.378906 420.78125 267.773438 420.78125 267.773438 424.378906 "/>
<path style=" stroke:none;fill-rule:nonzero;fill:rgb(100%,84.3%,0%);fill-opacity:1;" d="M 215.457031 483.398438 C 215.457031 486.996094 210.0625 486.996094 210.0625 483.398438 C 210.0625 479.804688 215.457031 479.804688 215.457031 483.398438 "/>
<path style=" stroke:none;fill-rule:nonzero;fill:rgb(100%,84.3%,0%);fill-opacity:1;" d="M 466.636719 287.175781 C 466.636719 290.773438 461.242188 290.773438 461.242188 287.175781 C 461.242188 283.582031 466.636719 283.582031 466.636719 287.175781 "/>
<path style=" stroke:none;fill-rule:nonzero;fill:rgb(100%,84.3%,0%);fill-opacity:1;" d="M 290.269531 290.671875 C 290.269531 294.269531 284.875 294.269531 284.875 290.671875 C 284.875 287.074219 290.269531 287.074219 290.269531 290.671875 "/>
<path style=" stroke:none;fill-rule:nonzero;fill:rgb(100%,84.3%,0%);fill-opacity:1;" d="M 58.203125 396.507812 C 58.203125 400.105469 52.808594 400.105469 52.808594 396.507812 C 52.808594 392.914062 58.203125 392.914062 58.203125 396.507812 "/>
<path style=" stroke:none;fill-rule:nonzero;fill:rgb(100%,84.3%,0%);fill-opacity:1;" d="M 63.367188 314.53125 C 63.367188 318.128906 57.972656 318.128906 57.972656 314.53125 C 57.972656 310.933594 63.367188 310.933594 63.367188 314.53125 "/>
<path style=" stroke:none;fill-rule:nonzero;fill:rgb(100%,84.3%,0%);fill-opacity:1;" d="M 55.996094 468.777344 C 55.996094 472.371094 50.601562 472.371094 50.601562 468.777344 C 50.601562 465.179688 55.996094 465.179688 55.996094 468.777344 "/>
<path style=" stroke:none;fill-rule:nonzero;fill:rgb(100%,84.3%,0%);fill-opacity:1;" d="M 442.242188 360.101562 C 442.242188 363.699219 436.847656 363.699219 436.847656 360.101562 C 436.847656 356.507812 442.242188 356.507812 442.242188 360.101562 "/>
<path style=" stroke:none;fill-rule:nonzero;fill:rgb(100%,84.3%,0%);fill-opacity:1;" d="M 210.902344 299.277344 C 210.902344 302.875 205.507812 302.875 205.507812 299.277344 C 205.507812 295.683594 210.902344 295.683594 210.902344 299.277344 "/>
<path style=" stroke:none;fill-rule:nonzero;fill:rgb(100%,84.3%,0%);fill-opacity:1;" d="M 60.480469 389.320312 C 60.480469 392.914062 55.085938 392.914062 55.085938 389.320312 C 55.085938 385.722656 60.480469 385.722656 60.480469 389.320312 "/>
<path style=" stroke:none;fill-rule:nonzero;fill:rgb(100%,84.3%,0%);fill-opacity:1;" d="M 259.53125 416.632812 C 259.53125 420.226562 254.136719 420.226562 254.136719 416.632812 C 254.136719 413.035156 259.53125 413.035156 259.53125 416.632812 "/>
<path style=" stroke:none;fill-rule:nonzero;fill:rgb(100%,84.3%,0%);fill-opacity:1;" d="M 280.429688 287.59375 C 280.429688 291.1875 275.035156 291.1875 275.035156 287.59375 C 275.035156 283.996094 280.429688 283.996094 280.429688 287.59375 "/>
<path style=" stroke:none;fill-rule:nonzero;fill:rgb(100%,84.3%,0%);fill-opacity:1;" d="M 109.722656 439.074219 C 109.722656 442.667969 104.328125 442.667969 104.328125 439.074219 C 104.328125 435.476562 109.722656 435.476562 109.722656 439.074219 "/>
<path style=" stroke:none;fill-rule:nonzero;fill:rgb(100%,84.3%,0%);fill-opacity:1;" d="M 399.574219 456.1875 C 399.574219 459.785156 394.179688 459.785156 394.179688 456.1875 C 394.179688 452.59375 399.574219 452.59375 399.574219 456.1875 "/>
<path style=" stroke:none;fill-rule:nonzero;fill:rgb(100%,84.3%,0%);fill-opacity:1;" d="M 140.574219 412.550781 C 140.574219 416.144531 135.179688 416.144531 135.179688 412.550781 C 135.179688 408.953125 140.574219 408.953125 140.574219 412.550781 "/>
<path style=" stroke:none;fill-rule:nonzero;fill:rgb(100%,84.3%,0%);fill-opacity:1;" d="M 130.996094 440.5625 C 130.996094 444.15625 125.601562 444.15625 125.601562 440.5625 C 125.601562 436.964844 130.996094 436.964844 130.996094 440.5625 "/>
<path style=" stroke:none;fill-rule:nonzero;fill:rgb(100%,84.3%,0%);fill-opacity:1;" d="M 56.300781 335.726562 C 56.300781 339.324219 50.90625 339.324219 50.90625 335.726562 C 50.90625 332.132812 56.300781 332.132812 56.300781 335.726562 "/>
<path style=" stroke:none;fill-rule:nonzero;fill:rgb(100%,84.3%,0%);fill-opacity:1;" d="M 126.320312 355.507812 C 126.320312 359.101562 120.929688 359.101562 120.929688 355.507812 C 120.929688 351.910156 126.320312 351.910156 126.320312 355.507812 "/>
<path style=" stroke:none;fill-rule:nonzero;fill:rgb(100%,84.3%,0%);fill-opacity:1;" d="M 233.773438 296.101562 C 233.773438 299.695312 228.378906 299.695312 228.378906 296.101562 C 228.378906 292.503906 233.773438 292.503906 233.773438 296.101562 "/>
<path style=" stroke:none;fill-rule:nonzero;fill:rgb(100%,84.3%,0%);fill-opacity:1;" d="M 266.671875 460.511719 C 266.671875 464.109375 261.277344 464.109375 261.277344 460.511719 C 261.277344 456.917969 266.671875 456.917969 266.671875 460.511719 "/>
<path style=" stroke:none;fill-rule:nonzero;fill:rgb(100%,84.3%,0%);fill-opacity:1;" d="M 125.335938 292.574219 C 125.335938 296.171875 119.941406 296.171875 119.941406 292.574219 C 119.941406 288.980469 125.335938 288.980469 125.335938 292.574219 "/>
<path style=" stroke:none;fill-rule:nonzero;fill:rgb(100%,84.3%,0%);fill-opacity:1;" d="M 331.339844 397.753906 C 331.339844 401.351562 325.945312 401.351562 325.945312 397.753906 C 325.945312 394.160156 331.339844 394.160156 331.339844 397.753906 "/>
<path style=" stroke:none;fill-rule:nonzero;fill:rgb(100%,84.3%,0%);fill-opacity:1;" d="M 189.203125 331.402344 C 189.203125 335 183.8125 335 183.8125 331.402344 C 183.8125 327.808594 189.203125 327.808594 189.203125 331.402344 "/>
<path style=" stroke:none;fill-rule:nonzero;fill:rgb(100%,84.3%,0%);fill-opacity:1;" d="M 384.265625 469.636719 C 384.265625 473.230469 378.871094 473.230469 378.871094 469.636719 C 378.871094 466.039062 384.265625 466.039062 384.265625 469.636719 "/>
<path style=" stroke:none;fill-rule:nonzero;fill:rgb(100%,84.3%,0%);fill-opacity:1;" d="M 179.0625 461.371094 C 179.0625 464.96875 173.667969 464.96875 173.667969 461.371094 C 173.667969 457.777344 179.0625 457.777344 179.0625 461.371094 "/>
<path style=" stroke:none;fill-rule:nonzero;fill:rgb(100%,84.3%,0%);fill-opacity:1;" d="M 279.210938 422.789062 C 279.210938 426.386719 273.816406 426.386719 273.816406 422.789062 C 273.816406 419.191406 279.210938 419.191406 279.210938 422.789062 "/>
<path style=" stroke:none;fill-rule:nonzero;fill:rgb(100%,84.3%,0%);fill-opacity:1;" d="M 270.96875 415.042969 C 270.96875 418.636719 265.574219 418.636719 265.574219 415.042969 C 265.574219 411.445312 270.96875 411.445312 270.96875 415.042969 "/>
<path style=" stroke:none;fill-rule:nonzero;fill:rgb(100%,84.3%,0%);fill-opacity:1;" d="M 431.296875 393.15625 C 431.296875 396.753906 425.902344 396.753906 425.902344 393.15625 C 425.902344 389.5625 431.296875 389.5625 431.296875 393.15625 "/>
<path style=" stroke:none;fill-rule:nonzero;fill:rgb(100%,84.3%,0%);fill-opacity:1;" d="M 453.605469 293.4375 C 453.605469 297.03125 448.210938 297.03125 448.210938 293.4375 C 448.210938 289.839844 453.605469 289.839844 453.605469 293.4375 "/>
<path style=" stroke:none;fill-rule:nonzero;fill:rgb(100%,84.3%,0%);fill-opacity:1;" d="M 401.78125 383.921875 C 401.78125 387.515625 396.386719 387.515625 396.386719 383.921875 C 396.386719 380.324219 401.78125 380.324219 401.78125 383.921875 "/>
<path style=" stroke:none;fill-rule:nonzero;fill:rgb(100%,84.3%,0%);fill-opacity:1;" d="M 363.671875 465.625 C 363.671875 469.222656 358.277344 469.222656 358.277344 465.625 C 358.277344 462.03125 363.671875 462.03125 363.671875 465.625 "/>
<path style=" stroke:none;fill-rule:nonzero;fill:rgb(100%,84.3%,0%);fill-opacity:1;" d="M 437.261719 408.09375 C 437.261719 411.691406 431.867188 411.691406 431.867188 408.09375 C 431.867188 404.5 437.261719 404.5 437.261719 408.09375 "/>
<path style=" stroke:none;fill-rule:nonzero;fill:rgb(100%,84.3%,0%);fill-opacity:1;" d="M 444.140625 420.886719 C 444.140625 424.480469 438.746094 424.480469 438.746094 420.886719 C 438.746094 417.289062 444.140625 417.289062 444.140625 420.886719 "/>
<path style=" stroke:none;fill-rule:nonzero;fill:rgb(100%,84.3%,0%);fill-opacity:1;" d="M 194.558594 413.9375 C 194.558594 417.535156 189.164062 417.535156 189.164062 413.9375 C 189.164062 410.34375 194.558594 410.34375 194.558594 413.9375 "/>
<path style=" stroke:none;fill-rule:nonzero;fill:rgb(100%,84.3%,0%);fill-opacity:1;" d="M 210.785156 398.34375 C 210.785156 401.9375 205.390625 401.9375 205.390625 398.34375 C 205.390625 394.746094 210.785156 394.746094 210.785156 398.34375 "/>
<path style=" stroke:none;fill-rule:nonzero;fill:rgb(100%,84.3%,0%);fill-opacity:1;" d="M 152.503906 442.425781 C 152.503906 446.019531 147.109375 446.019531 147.109375 442.425781 C 147.109375 438.828125 152.503906 438.828125 152.503906 442.425781 "/>
<path style=" stroke:none;fill-rule:nonzero;fill:rgb(100%,84.3%,0%);fill-opacity:1;" d="M 420.167969 460.199219 C 420.167969 463.792969 414.773438 463.792969 414.773438 460.199219 C 414.773438 456.601562 420.167969 456.601562 420.167969 460.199219 "/>
<path style=" stroke:none;fill-rule:nonzero;fill:rgb(100%,84.3%,0%);fill-opacity:1;" d="M 378.675781 386.726562 C 378.675781 390.324219 373.28125 390.324219 373.28125 386.726562 C 373.28125 383.132812 378.675781 383.132812 378.675781 386.726562 "/>
<path style=" stroke:none;fill-rule:nonzero;fill:rgb(100%,84.3%,0%);fill-opacity:1;" d="M 200.148438 298.347656 C 200.148438 301.945312 194.753906 301.945312 194.753906 298.347656 C 194.753906 294.753906 200.148438 294.753906 200.148438 298.347656 "/>
<path style=" stroke:none;fill-rule:nonzero;fill:rgb(100%,84.3%,0%);fill-opacity:1;" d="M 289.28125 426.242188 C 289.28125 429.839844 283.886719 429.839844 283.886719 426.242188 C 283.886719 422.644531 289.28125 422.644531 289.28125 426.242188 "/>
<path style=" stroke:none;fill-rule:nonzero;fill:rgb(100%,84.3%,0%);fill-opacity:1;" d="M 438.671875 437.410156 C 438.671875 441.007812 433.277344 441.007812 433.277344 437.410156 C 433.277344 433.816406 438.671875 433.816406 438.671875 437.410156 "/>
<path style=" stroke:none;fill-rule:nonzero;fill:rgb(100%,84.3%,0%);fill-opacity:1;" d="M 323.398438 455.457031 C 323.398438 459.054688 318.007812 459.054688 318.007812 455.457031 C 318.007812 451.863281 323.398438 451.863281 323.398438 455.457031 "/>
<path style=" stroke:none;fill-rule:nonzero;fill:rgb(100%,84.3%,0%);fill-opacity:1;" d="M 384.570312 336.585938 C 384.570312 340.183594 379.175781 340.183594 379.175781 336.585938 C 379.175781 332.992188 384.570312 332.992188 384.570312 336.585938 "/>
<path style=" stroke:none;fill-rule:nonzero;fill:rgb(100%,84.3%,0%);fill-opacity:1;" d="M 247.179688 420.367188 C 247.179688 423.964844 241.785156 423.964844 241.785156 420.367188 C 241.785156 416.773438 247.179688 416.773438 247.179688 420.367188 "/>
<path style=" stroke:none;fill-rule:nonzero;fill:rgb(100%,84.3%,0%);fill-opacity:1;" d="M 383.960938 404.1875 C 383.960938 407.78125 378.566406 407.78125 378.566406 404.1875 C 378.566406 400.589844 383.960938 400.589844 383.960938 404.1875 "/>
<path style=" stroke:none;fill-rule:nonzero;fill:rgb(100%,84.3%,0%);fill-opacity:1;" d="M 378.980469 452.179688 C 378.980469 455.773438 373.589844 455.773438 373.589844 452.179688 C 373.589844 448.582031 378.980469 448.582031 378.980469 452.179688 "/>
<path style=" stroke:none;fill-rule:nonzero;fill:rgb(100%,84.3%,0%);fill-opacity:1;" d="M 152.996094 473.890625 C 152.996094 477.484375 147.601562 477.484375 147.601562 473.890625 C 147.601562 470.292969 152.996094 470.292969 152.996094 473.890625 "/>
<path style=" stroke:none;fill-rule:nonzero;fill:rgb(100%,84.3%,0%);fill-opacity:1;" d="M 433.691406 485.402344 C 433.691406 489 428.300781 489 428.300781 485.402344 C 428.300781 481.808594 433.691406 481.808594 433.691406 485.402344 "/>
<path style=" stroke:none;fill-rule:nonzero;fill:rgb(100%,84.3%,0%);fill-opacity:1;" d="M 228.183594 411.691406 C 228.183594 415.285156 222.789062 415.285156 222.789062 411.691406 C 222.789062 408.09375 228.183594 408.09375 228.183594 411.691406 "/>
<path style=" stroke:none;fill-rule:nonzero;fill:rgb(100%,84.3%,0%);fill-opacity:1;" d="M 239.546875 345.023438 C 239.546875 348.617188 234.152344 348.617188 234.152344 345.023438 C 234.152344 341.425781 239.546875 341.425781 239.546875 345.023438 "/>
<path style=" stroke:none;fill-rule:nonzero;fill:rgb(100%,84.3%,0%);fill-opacity:1;" d="M 197.5625 438.585938 C 197.5625 442.183594 192.171875 442.183594 192.171875 438.585938 C 192.171875 434.992188 197.5625 434.992188 197.5625 438.585938 "/>
<path style=" stroke:none;fill-rule:nonzero;fill:rgb(100%,84.3%,0%);fill-opacity:1;" d="M 106.152344 317.882812 C 106.152344 321.480469 100.757812 321.480469 100.757812 317.882812 C 100.757812 314.285156 106.152344 314.285156 106.152344 317.882812 "/>
<path style=" stroke:none;fill-rule:nonzero;fill:rgb(100%,84.3%,0%);fill-opacity:1;" d="M 163.75 474.820312 C 163.75 478.417969 158.355469 478.417969 158.355469 474.820312 C 158.355469 471.226562 163.75 471.226562 163.75 474.820312 "/>
<path style=" stroke:none;fill-rule:nonzero;fill:rgb(100%,84.3%,0%);fill-opacity:1;" d="M 403.871094 410.71875 C 403.871094 414.3125 398.476562 414.3125 398.476562 410.71875 C 398.476562 407.121094 403.871094 407.121094 403.871094 410.71875 "/>
<path style=" stroke:none;fill-rule:nonzero;fill:rgb(100%,84.3%,0%);fill-opacity:1;" d="M 339.886719 470.953125 C 339.886719 474.550781 334.492188 474.550781 334.492188 470.953125 C 334.492188 467.355469 339.886719 467.355469 339.886719 470.953125 "/>
<path style=" stroke:none;fill-rule:nonzero;fill:rgb(100%,84.3%,0%);fill-opacity:1;" d="M 260.519531 479.5625 C 260.519531 483.15625 255.125 483.15625 255.125 479.5625 C 255.125 475.964844 260.519531 475.964844 260.519531 479.5625 "/>
<path style=" stroke:none;fill-rule:nonzero;fill:rgb(100%,84.3%,0%);fill-opacity:1;" d="M 60.292969 423.304688 C 60.292969 426.902344 54.898438 426.902344 54.898438 423.304688 C 54.898438 419.710938 60.292969 419.710938 60.292969 423.304688 "/>
<path style=" stroke:none;fill-rule:nonzero;fill:rgb(100%,84.3%,0%);fill-opacity:1;" d="M 53.527344 311.453125 C 53.527344 315.046875 48.136719 315.046875 48.136719 311.453125 C 48.136719 307.855469 53.527344 307.855469 53.527344 311.453125 "/>
<path style=" stroke:none;fill-rule:nonzero;fill:rgb(100%,84.3%,0%);fill-opacity:1;" d="M 233.65625 395.164062 C 233.65625 398.757812 228.261719 398.757812 228.261719 395.164062 C 228.261719 391.566406 233.65625 391.566406 233.65625 395.164062 "/>
<path style=" stroke:none;fill-rule:nonzero;fill:rgb(100%,84.3%,0%);fill-opacity:1;" d="M 130.808594 474.546875 C 130.808594 478.144531 125.414062 478.144531 125.414062 474.546875 C 125.414062 470.953125 130.808594 470.953125 130.808594 474.546875 "/>
<path style=" stroke:none;fill-rule:nonzero;fill:rgb(100%,84.3%,0%);fill-opacity:1;" d="M 431.601562 458.609375 C 431.601562 462.203125 426.210938 462.203125 426.210938 458.609375 C 426.210938 455.011719 431.601562 455.011719 431.601562 458.609375 "/>
<path style=" stroke:none;fill-rule:nonzero;fill:rgb(100%,84.3%,0%);fill-opacity:1;" d="M 231.378906 402.351562 C 231.378906 405.949219 225.984375 405.949219 225.984375 402.351562 C 225.984375 398.757812 231.378906 398.757812 231.378906 402.351562 "/>
<path style=" stroke:none;fill-rule:nonzero;fill:rgb(100%,84.3%,0%);fill-opacity:1;" d="M 430.121094 364.214844 C 430.121094 367.808594 424.730469 367.808594 424.730469 364.214844 C 424.730469 360.617188 430.121094 360.617188 430.121094 364.214844 "/>
<path style=" stroke:none;fill-rule:nonzero;fill:rgb(100%,84.3%,0%);fill-opacity:1;" d="M 388.75 390.179688 C 388.75 393.773438 383.355469 393.773438 383.355469 390.179688 C 383.355469 386.582031 388.75 386.582031 388.75 390.179688 "/>
<path style=" stroke:none;fill-rule:nonzero;fill:rgb(100%,84.3%,0%);fill-opacity:1;" d="M 462.644531 398.097656 C 462.644531 401.695312 457.25 401.695312 457.25 398.097656 C 457.25 394.503906 462.644531 394.503906 462.644531 398.097656 "/>
<path style=" stroke:none;fill-rule:nonzero;fill:rgb(100%,84.3%,0%);fill-opacity:1;" d="M 331.453125 298.691406 C 331.453125 302.289062 326.058594 302.289062 326.058594 298.691406 C 326.058594 295.097656 331.453125 295.097656 331.453125 298.691406 "/>
<path style=" stroke:none;fill-rule:nonzero;fill:rgb(100%,84.3%,0%);fill-opacity:1;" d="M 284.984375 471.714844 C 284.984375 475.308594 279.59375 475.308594 279.59375 471.714844 C 279.59375 468.117188 284.984375 468.117188 284.984375 471.714844 "/>
<path style=" stroke:none;fill-rule:nonzero;fill:rgb(100%,84.3%,0%);fill-opacity:1;" d="M 447.03125 346.097656 C 447.03125 349.691406 441.636719 349.691406 441.636719 346.097656 C 441.636719 342.5 447.03125 342.5 447.03125 346.097656 "/>
<path style=" stroke:none;fill-rule:nonzero;fill:rgb(100%,84.3%,0%);fill-opacity:1;" d="M 439.773438 401.277344 C 439.773438 404.875 434.378906 404.875 434.378906 401.277344 C 434.378906 397.683594 439.773438 397.683594 439.773438 401.277344 "/>
<path style=" stroke:none;fill-rule:nonzero;fill:rgb(100%,84.3%,0%);fill-opacity:1;" d="M 174.882812 407.78125 C 174.882812 411.378906 169.488281 411.378906 169.488281 407.78125 C 169.488281 404.183594 174.882812 404.183594 174.882812 407.78125 "/>
<path style=" stroke:none;fill-rule:nonzero;fill:rgb(100%,84.3%,0%);fill-opacity:1;" d="M 101.058594 464.9375 C 101.058594 468.535156 95.664062 468.535156 95.664062 464.9375 C 95.664062 461.34375 101.058594 461.34375 101.058594 464.9375 "/>
<path style=" stroke:none;fill-rule:nonzero;fill:rgb(100%,84.3%,0%);fill-opacity:1;" d="M 236.660156 419.8125 C 236.660156 423.40625 231.265625 423.40625 231.265625 419.8125 C 231.265625 416.214844 236.660156 416.214844 236.660156 419.8125 "/>
<path style=" stroke:none;fill-rule:nonzero;fill:rgb(100%,84.3%,0%);fill-opacity:1;" d="M 286.769531 433.058594 C 286.769531 436.652344 281.375 436.652344 281.375 433.058594 C 281.375 429.460938 286.769531 429.460938 286.769531 433.058594 "/>
<path style=" stroke:none;fill-rule:nonzero;fill:rgb(100%,84.3%,0%);fill-opacity:1;" d="M 394.714844 405.117188 C 394.714844 408.714844 389.320312 408.714844 389.320312 405.117188 C 389.320312 401.519531 394.714844 401.519531 394.714844 405.117188 "/>
<path style=" stroke:none;fill-rule:nonzero;fill:rgb(100%,84.3%,0%);fill-opacity:1;" d="M 330.164062 368.8125 C 330.164062 372.40625 324.769531 372.40625 324.769531 368.8125 C 324.769531 365.214844 330.164062 365.214844 330.164062 368.8125 "/>
<path style=" stroke:none;fill-rule:nonzero;fill:rgb(100%,84.3%,0%);fill-opacity:1;" d="M 108.734375 376.144531 C 108.734375 379.738281 103.339844 379.738281 103.339844 376.144531 C 103.339844 372.546875 108.734375 372.546875 108.734375 376.144531 "/>
<path style=" stroke:none;fill-rule:nonzero;fill:rgb(100%,84.3%,0%);fill-opacity:1;" d="M 426.929688 373.550781 C 426.929688 377.148438 421.535156 377.148438 421.535156 373.550781 C 421.535156 369.953125 426.929688 369.953125 426.929688 373.550781 "/>
<path style=" stroke:none;fill-rule:nonzero;fill:rgb(100%,84.3%,0%);fill-opacity:1;" d="M 244.902344 427.558594 C 244.902344 431.15625 239.507812 431.15625 239.507812 427.558594 C 239.507812 423.964844 244.902344 423.964844 244.902344 427.558594 "/>
<path style=" stroke:none;fill-rule:nonzero;fill:rgb(100%,84.3%,0%);fill-opacity:1;" d="M 149.308594 451.761719 C 149.308594 455.359375 143.914062 455.359375 143.914062 451.761719 C 143.914062 448.167969 149.308594 448.167969 149.308594 451.761719 "/>
<path style=" stroke:none;fill-rule:nonzero;fill:rgb(100%,84.3%,0%);fill-opacity:1;" d="M 111.011719 368.953125 C 111.011719 372.550781 105.617188 372.550781 105.617188 368.953125 C 105.617188 365.359375 111.011719 365.359375 111.011719 368.953125 "/>
<path style=" stroke:none;fill-rule:nonzero;fill:rgb(100%,84.3%,0%);fill-opacity:1;" d="M 429.019531 400.347656 C 429.019531 403.941406 423.625 403.941406 423.625 400.347656 C 423.625 396.75 429.019531 396.75 429.019531 400.347656 "/>
<path style=" stroke:none;fill-rule:nonzero;fill:rgb(100%,84.3%,0%);fill-opacity:1;" d="M 304.097656 381.328125 C 304.097656 384.925781 298.703125 384.925781 298.703125 381.328125 C 298.703125 377.734375 304.097656 377.734375 304.097656 381.328125 "/>
<path style=" stroke:none;fill-rule:nonzero;fill:rgb(100%,84.3%,0%);fill-opacity:1;" d="M 171.804688 318.054688 C 171.804688 321.652344 166.410156 321.652344 166.410156 318.054688 C 166.410156 314.460938 171.804688 314.460938 171.804688 318.054688 "/>
<path style=" stroke:none;fill-rule:nonzero;fill:rgb(100%,84.3%,0%);fill-opacity:1;" d="M 356.109375 455.355469 C 356.109375 458.953125 350.714844 458.953125 350.714844 455.355469 C 350.714844 451.761719 356.109375 451.761719 356.109375 455.355469 "/>
<path style=" stroke:none;fill-rule:nonzero;fill:rgb(100%,84.3%,0%);fill-opacity:1;" d="M 247.601562 386.757812 C 247.601562 390.351562 242.207031 390.351562 242.207031 386.757812 C 242.207031 383.160156 247.601562 383.160156 247.601562 386.757812 "/>
<path style=" stroke:none;fill-rule:nonzero;fill:rgb(100%,84.3%,0%);fill-opacity:1;" d="M 258.429688 452.765625 C 258.429688 456.359375 253.035156 456.359375 253.035156 452.765625 C 253.035156 449.167969 258.429688 449.167969 258.429688 452.765625 "/>
<path style=" stroke:none;fill-rule:nonzero;fill:rgb(100%,84.3%,0%);fill-opacity:1;" d="M 315.417969 478.800781 C 315.417969 482.398438 310.023438 482.398438 310.023438 478.800781 C 310.023438 475.207031 315.417969 475.207031 315.417969 478.800781 "/>
<path style=" stroke:none;fill-rule:nonzero;fill:rgb(100%,84.3%,0%);fill-opacity:1;" d="M 96.6875 445.332031 C 96.6875 448.929688 91.296875 448.929688 91.296875 445.332031 C 91.296875 441.734375 96.6875 441.734375 96.6875 445.332031 "/>
<path style=" stroke:none;fill-rule:nonzero;fill:rgb(100%,84.3%,0%);fill-opacity:1;" d="M 170.699219 354.1875 C 170.699219 357.785156 165.308594 357.785156 165.308594 354.1875 C 165.308594 350.59375 170.699219 350.59375 170.699219 354.1875 "/>
<path style=" stroke:none;fill-rule:nonzero;fill:rgb(100%,84.3%,0%);fill-opacity:1;" d="M 157.480469 394.433594 C 157.480469 398.027344 152.085938 398.027344 152.085938 394.433594 C 152.085938 390.835938 157.480469 390.835938 157.480469 394.433594 "/>
<path style=" stroke:none;fill-rule:nonzero;fill:rgb(100%,84.3%,0%);fill-opacity:1;" d="M 65.269531 375.3125 C 65.269531 378.910156 59.875 378.910156 59.875 375.3125 C 59.875 371.71875 65.269531 371.71875 65.269531 375.3125 "/>
<path style=" stroke:none;fill-rule:nonzero;fill:rgb(100%,84.3%,0%);fill-opacity:1;" d="M 349.839844 374.96875 C 349.839844 378.566406 344.445312 378.566406 344.445312 374.96875 C 344.445312 371.371094 349.839844 371.371094 349.839844 374.96875 "/>
<path style=" stroke:none;fill-rule:nonzero;fill:rgb(100%,84.3%,0%);fill-opacity:1;" d="M 342.398438 464.136719 C 342.398438 467.734375 337.003906 467.734375 337.003906 464.136719 C 337.003906 460.539062 342.398438 460.539062 342.398438 464.136719 "/>
<path style=" stroke:none;fill-rule:nonzero;fill:rgb(100%,84.3%,0%);fill-opacity:1;" d="M 137.875 453.351562 C 137.875 456.949219 132.480469 456.949219 132.480469 453.351562 C 132.480469 449.757812 137.875 449.757812 137.875 453.351562 "/>
<path style=" stroke:none;fill-rule:nonzero;fill:rgb(100%,84.3%,0%);fill-opacity:1;" d="M 371.914062 473.375 C 371.914062 476.96875 366.519531 476.96875 366.519531 473.375 C 366.519531 469.777344 371.914062 469.777344 371.914062 473.375 "/>
<path style=" stroke:none;fill-rule:nonzero;fill:rgb(100%,84.3%,0%);fill-opacity:1;" d="M 312.835938 420.539062 C 312.835938 424.136719 307.441406 424.136719 307.441406 420.539062 C 307.441406 416.945312 312.835938 416.945312 312.835938 420.539062 "/>
<path style=" stroke:none;fill-rule:nonzero;fill:rgb(100%,84.3%,0%);fill-opacity:1;" d="M 110.214844 470.539062 C 110.214844 474.132812 104.820312 474.132812 104.820312 470.539062 C 104.820312 466.941406 110.214844 466.941406 110.214844 470.539062 "/>
<path style=" stroke:none;fill-rule:nonzero;fill:rgb(100%,84.3%,0%);fill-opacity:1;" d="M 218.460938 309.546875 C 218.460938 313.144531 213.066406 313.144531 213.066406 309.546875 C 213.066406 305.953125 218.460938 305.953125 218.460938 309.546875 "/>
<path style=" stroke:none;fill-rule:nonzero;fill:rgb(100%,84.3%,0%);fill-opacity:1;" d="M 416.175781 372.621094 C 416.175781 376.214844 410.78125 376.214844 410.78125 372.621094 C 410.78125 369.023438 416.175781 369.023438 416.175781 372.621094 "/>
<path style=" stroke:none;fill-rule:nonzero;fill:rgb(100%,84.3%,0%);fill-opacity:1;" d="M 110.824219 402.941406 C 110.824219 406.535156 105.429688 406.535156 105.429688 402.941406 C 105.429688 399.34375 110.824219 399.34375 110.824219 402.941406 "/>
<path style=" stroke:none;fill-rule:nonzero;fill:rgb(100%,84.3%,0%);fill-opacity:1;" d="M 408.542969 297.273438 C 408.542969 300.871094 403.148438 300.871094 403.148438 297.273438 C 403.148438 293.679688 408.542969 293.679688 408.542969 297.273438 "/>
<path style=" stroke:none;fill-rule:nonzero;fill:rgb(100%,84.3%,0%);fill-opacity:1;" d="M 236.167969 388.347656 C 236.167969 391.941406 230.773438 391.941406 230.773438 388.347656 C 230.773438 384.75 236.167969 384.75 236.167969 388.347656 "/>
<path style=" stroke:none;fill-rule:nonzero;fill:rgb(100%,84.3%,0%);fill-opacity:1;" d="M 360.476562 474.964844 C 360.476562 478.558594 355.085938 478.558594 355.085938 474.964844 C 355.085938 471.367188 360.476562 471.367188 360.476562 474.964844 "/>
<path style=" stroke:none;fill-rule:nonzero;fill:rgb(100%,84.3%,0%);fill-opacity:1;" d="M 421.574219 291.015625 C 421.574219 294.613281 416.183594 294.613281 416.183594 291.015625 C 416.183594 287.421875 421.574219 287.421875 421.574219 291.015625 "/>
<path style=" stroke:none;fill-rule:nonzero;fill:rgb(100%,84.3%,0%);fill-opacity:1;" d="M 228.605469 378.078125 C 228.605469 381.675781 223.210938 381.675781 223.210938 378.078125 C 223.210938 374.480469 228.605469 374.480469 228.605469 378.078125 "/>
<path style=" stroke:none;fill-rule:nonzero;fill:rgb(100%,84.3%,0%);fill-opacity:1;" d="M 95.210938 350.9375 C 95.210938 354.535156 89.816406 354.535156 89.816406 350.9375 C 89.816406 347.34375 95.210938 347.34375 95.210938 350.9375 "/>
<path style=" stroke:none;fill-rule:nonzero;fill:rgb(100%,84.3%,0%);fill-opacity:1;" d="M 179.25 427.386719 C 179.25 430.984375 173.855469 430.984375 173.855469 427.386719 C 173.855469 423.789062 179.25 423.789062 179.25 427.386719 "/>
<path style=" stroke:none;fill-rule:nonzero;fill:rgb(100%,84.3%,0%);fill-opacity:1;" d="M 148.207031 289.394531 C 148.207031 292.992188 142.8125 292.992188 142.8125 289.394531 C 142.8125 285.800781 148.207031 285.800781 148.207031 289.394531 "/>
<path style=" stroke:none;fill-rule:nonzero;fill:rgb(100%,84.3%,0%);fill-opacity:1;" d="M 320.207031 464.796875 C 320.207031 468.390625 314.8125 468.390625 314.8125 464.796875 C 314.8125 461.199219 320.207031 461.199219 320.207031 464.796875 "/>
<path style=" stroke:none;fill-rule:nonzero;fill:rgb(100%,84.3%,0%);fill-opacity:1;" d="M 445.128906 483.816406 C 445.128906 487.410156 439.734375 487.410156 439.734375 483.816406 C 439.734375 480.21875 445.128906 480.21875 445.128906 483.816406 "/>
<path style=" stroke:none;fill-rule:nonzero;fill:rgb(100%,84.3%,0%);fill-opacity:1;" d="M 98.96875 438.140625 C 98.96875 441.738281 93.574219 441.738281 93.574219 438.140625 C 93.574219 434.546875 98.96875 434.546875 98.96875 438.140625 "/>
<path style=" stroke:none;fill-rule:nonzero;fill:rgb(100%,84.3%,0%);fill-opacity:1;" d="M 58.085938 297.074219 C 58.085938 300.667969 52.691406 300.667969 52.691406 297.074219 C 52.691406 293.476562 58.085938 293.476562 58.085938 297.074219 "/>
<path style=" stroke:none;fill-rule:nonzero;fill:rgb(100%,84.3%,0%);fill-opacity:1;" d="M 437.871094 340.496094 C 437.871094 344.09375 432.480469 344.09375 432.480469 340.496094 C 432.480469 336.902344 437.871094 336.902344 437.871094 340.496094 "/>
<path style=" stroke:none;fill-rule:nonzero;fill:rgb(100%,84.3%,0%);fill-opacity:1;" d="M 206.300781 477.800781 C 206.300781 481.394531 200.90625 481.394531 200.90625 477.800781 C 200.90625 474.203125 206.300781 474.203125 206.300781 477.800781 "/>
<path style=" stroke:none;fill-rule:nonzero;fill:rgb(100%,84.3%,0%);fill-opacity:1;" d="M 183.429688 480.980469 C 183.429688 484.574219 178.035156 484.574219 178.035156 480.980469 C 178.035156 477.382812 183.429688 477.382812 183.429688 480.980469 "/>
<path style=" stroke:none;fill-rule:nonzero;fill:rgb(100%,84.3%,0%);fill-opacity:1;" d="M 435.101562 316.222656 C 435.101562 319.816406 429.707031 319.816406 429.707031 316.222656 C 429.707031 312.625 435.101562 312.625 435.101562 316.222656 "/>
<path style=" stroke:none;fill-rule:nonzero;fill:rgb(100%,84.3%,0%);fill-opacity:1;" d="M 133.390625 334.308594 C 133.390625 337.90625 127.996094 337.90625 127.996094 334.308594 C 127.996094 330.714844 133.390625 330.714844 133.390625 334.308594 "/>
<path style=" stroke:none;fill-rule:nonzero;fill:rgb(100%,84.3%,0%);fill-opacity:1;" d="M 68.15625 300.523438 C 68.15625 304.121094 62.765625 304.121094 62.765625 300.523438 C 62.765625 296.929688 68.15625 296.929688 68.15625 300.523438 "/>
<path style=" stroke:none;fill-rule:nonzero;fill:rgb(100%,84.3%,0%);fill-opacity:1;" d="M 65.648438 307.339844 C 65.648438 310.9375 60.253906 310.9375 60.253906 307.339844 C 60.253906 303.746094 65.648438 303.746094 65.648438 307.339844 "/>
<path style=" stroke:none;fill-rule:nonzero;fill:rgb(100%,84.3%,0%);fill-opacity:1;" d="M 163.023438 442.984375 C 163.023438 446.578125 157.628906 446.578125 157.628906 442.984375 C 157.628906 439.386719 163.023438 439.386719 163.023438 442.984375 "/>
<path style=" stroke:none;fill-rule:nonzero;fill:rgb(100%,84.3%,0%);fill-opacity:1;" d="M 94.410156 452.523438 C 94.410156 456.117188 89.015625 456.117188 89.015625 452.523438 C 89.015625 448.925781 94.410156 448.925781 94.410156 452.523438 "/>
<path style=" stroke:none;fill-rule:nonzero;fill:rgb(100%,84.3%,0%);fill-opacity:1;" d="M 87.953125 406.121094 C 87.953125 409.714844 82.558594 409.714844 82.558594 406.121094 C 82.558594 402.523438 87.953125 402.523438 87.953125 406.121094 "/>
<path style=" stroke:none;fill-rule:nonzero;fill:rgb(100%,84.3%,0%);fill-opacity:1;" d="M 209.492188 468.460938 C 209.492188 472.058594 204.097656 472.058594 204.097656 468.460938 C 204.097656 464.867188 209.492188 464.867188 209.492188 468.460938 "/>
<path style=" stroke:none;fill-rule:nonzero;fill:rgb(100%,84.3%,0%);fill-opacity:1;" d="M 103.945312 390.148438 C 103.945312 393.746094 98.550781 393.746094 98.550781 390.148438 C 98.550781 386.554688 103.945312 386.554688 103.945312 390.148438 "/>
<path style=" stroke:none;fill-rule:nonzero;fill:rgb(100%,84.3%,0%);fill-opacity:1;" d="M 433.386719 419.953125 C 433.386719 423.550781 427.992188 423.550781 427.992188 419.953125 C 427.992188 416.359375 433.386719 416.359375 433.386719 419.953125 "/>
<path style=" stroke:none;fill-rule:nonzero;fill:rgb(100%,84.3%,0%);fill-opacity:1;" d="M 391.636719 315.390625 C 391.636719 318.988281 386.242188 318.988281 386.242188 315.390625 C 386.242188 311.796875 391.636719 311.796875 391.636719 315.390625 "/>
<path style=" stroke:none;fill-rule:nonzero;fill:rgb(100%,84.3%,0%);fill-opacity:1;" d="M 283.507812 377.316406 C 283.507812 380.914062 278.113281 380.914062 278.113281 377.316406 C 278.113281 373.722656 283.507812 373.722656 283.507812 377.316406 "/>
<path style=" stroke:none;fill-rule:nonzero;fill:rgb(100%,84.3%,0%);fill-opacity:1;" d="M 119.863281 309.101562 C 119.863281 312.699219 114.472656 312.699219 114.472656 309.101562 C 114.472656 305.507812 119.863281 305.507812 119.863281 309.101562 "/>
<path style=" stroke:none;fill-rule:nonzero;fill:rgb(100%,84.3%,0%);fill-opacity:1;" d="M 376.398438 393.917969 C 376.398438 397.511719 371.003906 397.511719 371.003906 393.917969 C 371.003906 390.320312 376.398438 390.320312 376.398438 393.917969 "/>
<path style=" stroke:none;fill-rule:nonzero;fill:rgb(100%,84.3%,0%);fill-opacity:1;" d="M 363.976562 332.578125 C 363.976562 336.171875 358.582031 336.171875 358.582031 332.578125 C 358.582031 328.980469 363.976562 328.980469 363.976562 332.578125 "/>
<path style=" stroke:none;fill-rule:nonzero;fill:rgb(100%,84.3%,0%);fill-opacity:1;" d="M 237.835938 448.753906 C 237.835938 452.351562 232.441406 452.351562 232.441406 448.753906 C 232.441406 445.160156 237.835938 445.160156 237.835938 448.753906 "/>
<path style=" stroke:none;fill-rule:nonzero;fill:rgb(100%,84.3%,0%);fill-opacity:1;" d="M 394.785156 470.195312 C 394.785156 473.789062 389.390625 473.789062 389.390625 470.195312 C 389.390625 466.597656 394.785156 466.597656 394.785156 470.195312 "/>
<path style=" stroke:none;fill-rule:nonzero;fill:rgb(100%,84.3%,0%);fill-opacity:1;" d="M 303.675781 414.941406 C 303.675781 418.535156 298.28125 418.535156 298.28125 414.941406 C 298.28125 411.34375 303.675781 411.34375 303.675781 414.941406 "/>
<path style=" stroke:none;fill-rule:nonzero;fill:rgb(100%,84.3%,0%);fill-opacity:1;" d="M 98.097656 474.648438 C 98.097656 478.246094 92.703125 478.246094 92.703125 474.648438 C 92.703125 471.054688 98.097656 471.054688 98.097656 474.648438 "/>
<path style=" stroke:none;fill-rule:nonzero;fill:rgb(100%,84.3%,0%);fill-opacity:1;" d="M 269.488281 320.648438 C 269.488281 324.242188 264.09375 324.242188 264.09375 320.648438 C 264.09375 317.050781 269.488281 317.050781 269.488281 320.648438 "/>
<path style=" stroke:none;fill-rule:nonzero;fill:rgb(100%,84.3%,0%);fill-opacity:1;" d="M 339.582031 405.503906 C 339.582031 409.097656 334.1875 409.097656 334.1875 405.503906 C 334.1875 401.90625 339.582031 401.90625 339.582031 405.503906 "/>
<path style=" stroke:none;fill-rule:nonzero;fill:rgb(100%,84.3%,0%);fill-opacity:1;" d="M 56.113281 369.714844 C 56.113281 373.308594 50.71875 373.308594 50.71875 369.714844 C 50.71875 366.117188 56.113281 366.117188 56.113281 369.714844 "/>
<path style=" stroke:none;fill-rule:nonzero;fill:rgb(100%,84.3%,0%);fill-opacity:1;" d="M 428.410156 467.945312 C 428.410156 471.542969 423.015625 471.542969 423.015625 467.945312 C 423.015625 464.351562 428.410156 464.351562 428.410156 467.945312 "/>
<path style=" stroke:none;fill-rule:nonzero;fill:rgb(100%,84.3%,0%);fill-opacity:1;" d="M 206.722656 444.1875 C 206.722656 447.78125 201.328125 447.78125 201.328125 444.1875 C 201.328125 440.589844 206.722656 440.589844 206.722656 444.1875 "/>
<path style=" stroke:none;fill-rule:nonzero;fill:rgb(100%,84.3%,0%);fill-opacity:1;" d="M 86.847656 442.253906 C 86.847656 445.847656 81.453125 445.847656 81.453125 442.253906 C 81.453125 438.65625 86.847656 438.65625 86.847656 442.253906 "/>
<path style=" stroke:none;fill-rule:nonzero;fill:rgb(100%,84.3%,0%);fill-opacity:1;" d="M 58.507812 461.960938 C 58.507812 465.554688 53.113281 465.554688 53.113281 461.960938 C 53.113281 458.363281 58.507812 458.363281 58.507812 461.960938 "/>
<path style=" stroke:none;fill-rule:nonzero;fill:rgb(100%,84.3%,0%);fill-opacity:1;" d="M 418.078125 433.402344 C 418.078125 436.996094 412.683594 436.996094 412.683594 433.402344 C 412.683594 429.804688 418.078125 429.804688 418.078125 433.402344 "/>
<path style=" stroke:none;fill-rule:nonzero;fill:rgb(100%,84.3%,0%);fill-opacity:1;" d="M 444.328125 386.898438 C 444.328125 390.496094 438.9375 390.496094 438.9375 386.898438 C 438.9375 383.304688 444.328125 383.304688 444.328125 386.898438 "/>
<path style=" stroke:none;fill-rule:nonzero;fill:rgb(100%,84.3%,0%);fill-opacity:1;" d="M 281.414062 350.523438 C 281.414062 354.117188 276.023438 354.117188 276.023438 350.523438 C 276.023438 346.925781 281.414062 346.925781 281.414062 350.523438 "/>
<path style=" stroke:none;fill-rule:nonzero;fill:rgb(100%,84.3%,0%);fill-opacity:1;" d="M 367.546875 453.769531 C 367.546875 457.363281 362.152344 457.363281 362.152344 453.769531 C 362.152344 450.171875 367.546875 450.171875 367.546875 453.769531 "/>
<path style=" stroke:none;fill-rule:nonzero;fill:rgb(100%,84.3%,0%);fill-opacity:1;" d="M 457.175781 414.625 C 457.175781 418.222656 451.78125 418.222656 451.78125 414.625 C 451.78125 411.03125 457.175781 411.03125 457.175781 414.625 "/>
<path style=" stroke:none;fill-rule:nonzero;fill:rgb(100%,84.3%,0%);fill-opacity:1;" d="M 415.304688 409.128906 C 415.304688 412.722656 409.910156 412.722656 409.910156 409.128906 C 409.910156 405.53125 415.304688 405.53125 415.304688 409.128906 "/>
<path style=" stroke:none;fill-rule:nonzero;fill:rgb(100%,84.3%,0%);fill-opacity:1;" d="M 233.960938 460.613281 C 233.960938 464.210938 228.566406 464.210938 228.566406 460.613281 C 228.566406 457.015625 233.960938 457.015625 233.960938 460.613281 "/>
<path style=" stroke:none;fill-rule:nonzero;fill:rgb(100%,84.3%,0%);fill-opacity:1;" d="M 383.769531 438.171875 C 383.769531 441.769531 378.378906 441.769531 378.378906 438.171875 C 378.378906 434.574219 383.769531 434.574219 383.769531 438.171875 "/>
<path style=" stroke:none;fill-rule:nonzero;fill:rgb(100%,84.3%,0%);fill-opacity:1;" d="M 287.265625 464.523438 C 287.265625 468.117188 281.871094 468.117188 281.871094 464.523438 C 281.871094 460.925781 287.265625 460.925781 287.265625 464.523438 "/>
<path style=" stroke:none;fill-rule:nonzero;fill:rgb(100%,84.3%,0%);fill-opacity:1;" d="M 426.132812 475.136719 C 426.132812 478.730469 420.738281 478.730469 420.738281 475.136719 C 420.738281 471.539062 426.132812 471.539062 426.132812 475.136719 "/>
<path style=" stroke:none;fill-rule:nonzero;fill:rgb(100%,84.3%,0%);fill-opacity:1;" d="M 423.664062 317.8125 C 423.664062 321.40625 418.269531 321.40625 418.269531 317.8125 C 418.269531 314.214844 423.664062 314.214844 423.664062 317.8125 "/>
<path style=" stroke:none;fill-rule:nonzero;fill:rgb(100%,84.3%,0%);fill-opacity:1;" d="M 104.25 455.601562 C 104.25 459.195312 98.855469 459.195312 98.855469 455.601562 C 98.855469 452.003906 104.25 452.003906 104.25 455.601562 "/>
<path style=" stroke:none;fill-rule:nonzero;fill:rgb(100%,84.3%,0%);fill-opacity:1;" d="M 287.875 396.925781 C 287.875 400.519531 282.480469 400.519531 282.480469 396.925781 C 282.480469 393.328125 287.875 393.328125 287.875 396.925781 "/>
<path style=" stroke:none;fill-rule:nonzero;fill:rgb(100%,84.3%,0%);fill-opacity:1;" d="M 290.457031 455.183594 C 290.457031 458.78125 285.0625 458.78125 285.0625 455.183594 C 285.0625 451.589844 290.457031 451.589844 290.457031 455.183594 "/>
<path style=" stroke:none;fill-rule:nonzero;fill:rgb(100%,84.3%,0%);fill-opacity:1;" d="M 112 431.882812 C 112 435.480469 106.605469 435.480469 106.605469 431.882812 C 106.605469 428.289062 112 428.289062 112 431.882812 "/>
<path style=" stroke:none;fill-rule:nonzero;fill:rgb(100%,84.3%,0%);fill-opacity:1;" d="M 435.972656 478.214844 C 435.972656 481.8125 430.578125 481.8125 430.578125 478.214844 C 430.578125 474.617188 435.972656 474.617188 435.972656 478.214844 "/>
<path style=" stroke:none;fill-rule:nonzero;fill:rgb(100%,84.3%,0%);fill-opacity:1;" d="M 124.84375 459.609375 C 124.84375 463.207031 119.449219 463.207031 119.449219 459.609375 C 119.449219 456.015625 124.84375 456.015625 124.84375 459.609375 "/>
<path style=" stroke:none;fill-rule:nonzero;fill:rgb(100%,84.3%,0%);fill-opacity:1;" d="M 53.414062 410.515625 C 53.414062 414.109375 48.019531 414.109375 48.019531 410.515625 C 48.019531 406.917969 53.414062 406.917969 53.414062 410.515625 "/>
<path style=" stroke:none;fill-rule:nonzero;fill:rgb(100%,84.3%,0%);fill-opacity:1;" d="M 254.25 399.171875 C 254.25 402.769531 248.855469 402.769531 248.855469 399.171875 C 248.855469 395.578125 254.25 395.578125 254.25 399.171875 "/>
<path style=" stroke:none;fill-rule:nonzero;fill:rgb(100%,84.3%,0%);fill-opacity:1;" d="M 117.773438 480.808594 C 117.773438 484.402344 112.382812 484.402344 112.382812 480.808594 C 112.382812 477.210938 117.773438 477.210938 117.773438 480.808594 "/>
<path style=" stroke:none;fill-rule:nonzero;fill:rgb(100%,84.3%,0%);fill-opacity:1;" d="M 305.390625 311.210938 C 305.390625 314.804688 299.996094 314.804688 299.996094 311.210938 C 299.996094 307.613281 305.390625 307.613281 305.390625 311.210938 "/>
<path style=" stroke:none;fill-rule:nonzero;fill:rgb(100%,84.3%,0%);fill-opacity:1;" d="M 82.175781 357.195312 C 82.175781 360.792969 76.78125 360.792969 76.78125 357.195312 C 76.78125 353.601562 82.175781 353.601562 82.175781 357.195312 "/>
<path style=" stroke:none;fill-rule:nonzero;fill:rgb(100%,84.3%,0%);fill-opacity:1;" d="M 241.027344 439.417969 C 241.027344 443.011719 235.632812 443.011719 235.632812 439.417969 C 235.632812 435.820312 241.027344 435.820312 241.027344 439.417969 "/>
<path style=" stroke:none;fill-rule:nonzero;fill:rgb(100%,84.3%,0%);fill-opacity:1;" d="M 165.839844 303.117188 C 165.839844 306.714844 160.445312 306.714844 160.445312 303.117188 C 160.445312 299.519531 165.839844 299.519531 165.839844 303.117188 "/>
<path style=" stroke:none;fill-rule:nonzero;fill:rgb(100%,84.3%,0%);fill-opacity:1;" d="M 276.742188 463.964844 C 276.742188 467.5625 271.347656 467.5625 271.347656 463.964844 C 271.347656 460.367188 276.742188 460.367188 276.742188 463.964844 "/>
<path style=" stroke:none;fill-rule:nonzero;fill:rgb(100%,84.3%,0%);fill-opacity:1;" d="M 280.992188 384.136719 C 280.992188 387.730469 275.601562 387.730469 275.601562 384.136719 C 275.601562 380.539062 280.992188 380.539062 280.992188 384.136719 "/>
<path style=" stroke:none;fill-rule:nonzero;fill:rgb(100%,84.3%,0%);fill-opacity:1;" d="M 269.183594 453.695312 C 269.183594 457.292969 263.789062 457.292969 263.789062 453.695312 C 263.789062 450.101562 269.183594 450.101562 269.183594 453.695312 "/>
<path style=" stroke:none;fill-rule:nonzero;fill:rgb(100%,84.3%,0%);fill-opacity:1;" d="M 201.132812 361.277344 C 201.132812 364.875 195.738281 364.875 195.738281 361.277344 C 195.738281 357.683594 201.132812 357.683594 201.132812 361.277344 "/>
<path style=" stroke:none;fill-rule:nonzero;fill:rgb(100%,84.3%,0%);fill-opacity:1;" d="M 311.050781 459.195312 C 311.050781 462.792969 305.65625 462.792969 305.65625 459.195312 C 305.65625 455.601562 311.050781 455.601562 311.050781 459.195312 "/>
<path style=" stroke:none;fill-rule:nonzero;fill:rgb(100%,84.3%,0%);fill-opacity:1;" d="M 250.488281 311.96875 C 250.488281 315.5625 245.097656 315.5625 245.097656 311.96875 C 245.097656 308.371094 250.488281 308.371094 250.488281 311.96875 "/>
<path style=" stroke:none;fill-rule:nonzero;fill:rgb(100%,84.3%,0%);fill-opacity:1;" d="M 378.488281 420.714844 C 378.488281 424.308594 373.09375 424.308594 373.09375 420.714844 C 373.09375 417.117188 378.488281 417.117188 378.488281 420.714844 "/>
<path style=" stroke:none;fill-rule:nonzero;fill:rgb(100%,84.3%,0%);fill-opacity:1;" d="M 423.738281 382.890625 C 423.738281 386.484375 418.34375 386.484375 418.34375 382.890625 C 418.34375 379.292969 423.738281 379.292969 423.738281 382.890625 "/>
<path style=" stroke:none;fill-rule:nonzero;fill:rgb(100%,84.3%,0%);fill-opacity:1;" d="M 258.546875 353.703125 C 258.546875 357.296875 253.152344 357.296875 253.152344 353.703125 C 253.152344 350.105469 258.546875 350.105469 258.546875 353.703125 "/>
<path style=" stroke:none;fill-rule:nonzero;fill:rgb(100%,84.3%,0%);fill-opacity:1;" d="M 256.148438 459.953125 C 256.148438 463.550781 250.757812 463.550781 250.757812 459.953125 C 250.757812 456.359375 256.148438 456.359375 256.148438 459.953125 "/>
<path style=" stroke:none;fill-rule:nonzero;fill:rgb(100%,84.3%,0%);fill-opacity:1;" d="M 420.355469 426.210938 C 420.355469 429.808594 414.960938 429.808594 414.960938 426.210938 C 414.960938 422.617188 420.355469 422.617188 420.355469 426.210938 "/>
<path style=" stroke:none;fill-rule:nonzero;fill:rgb(100%,84.3%,0%);fill-opacity:1;" d="M 80.769531 327.878906 C 80.769531 331.476562 75.375 331.476562 75.375 327.878906 C 75.375 324.28125 80.769531 324.28125 80.769531 327.878906 "/>
<path style=" stroke:none;fill-rule:nonzero;fill:rgb(100%,84.3%,0%);fill-opacity:1;" d="M 359.304688 446.019531 C 359.304688 449.617188 353.910156 449.617188 353.910156 446.019531 C 353.910156 442.425781 359.304688 442.425781 359.304688 446.019531 "/>
<path style=" stroke:none;fill-rule:nonzero;fill:rgb(100%,84.3%,0%);fill-opacity:1;" d="M 90.113281 299.492188 C 90.113281 303.089844 84.71875 303.089844 84.71875 299.492188 C 84.71875 295.898438 90.113281 295.898438 90.113281 299.492188 "/>
<path style=" stroke:none;fill-rule:nonzero;fill:rgb(100%,84.3%,0%);fill-opacity:1;" d="M 351.929688 401.765625 C 351.929688 405.359375 346.535156 405.359375 346.535156 401.765625 C 346.535156 398.167969 351.929688 398.167969 351.929688 401.765625 "/>
<path style=" stroke:none;fill-rule:nonzero;fill:rgb(100%,84.3%,0%);fill-opacity:1;" d="M 213.367188 456.601562 C 213.367188 460.199219 207.972656 460.199219 207.972656 456.601562 C 207.972656 453.007812 213.367188 453.007812 213.367188 456.601562 "/>
<path style=" stroke:none;fill-rule:nonzero;fill:rgb(100%,84.3%,0%);fill-opacity:1;" d="M 71.117188 290.8125 C 71.117188 294.410156 65.722656 294.410156 65.722656 290.8125 C 65.722656 287.21875 71.117188 287.21875 71.117188 290.8125 "/>
<path style=" stroke:none;fill-rule:nonzero;fill:rgb(100%,84.3%,0%);fill-opacity:1;" d="M 97.488281 343.746094 C 97.488281 347.34375 92.09375 347.34375 92.09375 343.746094 C 92.09375 340.152344 97.488281 340.152344 97.488281 343.746094 "/>
<path style=" stroke:none;fill-rule:nonzero;fill:rgb(100%,84.3%,0%);fill-opacity:1;" d="M 82.976562 454.113281 C 82.976562 457.707031 77.582031 457.707031 77.582031 454.113281 C 77.582031 450.515625 82.976562 450.515625 82.976562 454.113281 "/>
<path style=" stroke:none;fill-rule:nonzero;fill:rgb(100%,84.3%,0%);fill-opacity:1;" d="M 170.511719 388.175781 C 170.511719 391.769531 165.117188 391.769531 165.117188 388.175781 C 165.117188 384.578125 170.511719 384.578125 170.511719 388.175781 "/>
<path style=" stroke:none;fill-rule:nonzero;fill:rgb(100%,84.3%,0%);fill-opacity:1;" d="M 315.039062 348.273438 C 315.039062 351.871094 309.648438 351.871094 309.648438 348.273438 C 309.648438 344.679688 315.039062 344.679688 315.039062 348.273438 "/>
<path style=" stroke:none;fill-rule:nonzero;fill:rgb(100%,84.3%,0%);fill-opacity:1;" d="M 81.191406 294.265625 C 81.191406 297.863281 75.796875 297.863281 75.796875 294.265625 C 75.796875 290.671875 81.191406 290.671875 81.191406 294.265625 "/>
<path style=" stroke:none;fill-rule:nonzero;fill:rgb(100%,84.3%,0%);fill-opacity:1;" d="M 116.601562 451.863281 C 116.601562 455.460938 111.207031 455.460938 111.207031 451.863281 C 111.207031 448.265625 116.601562 448.265625 116.601562 451.863281 "/>
<path style=" stroke:none;fill-rule:nonzero;fill:rgb(100%,84.3%,0%);fill-opacity:1;" d="M 59.304688 360.375 C 59.304688 363.972656 53.910156 363.972656 53.910156 360.375 C 53.910156 356.78125 59.304688 356.78125 59.304688 360.375 "/>
<path style=" stroke:none;fill-rule:nonzero;fill:rgb(100%,84.3%,0%);fill-opacity:1;" d="M 371.042969 311.382812 C 371.042969 314.976562 365.648438 314.976562 365.648438 311.382812 C 365.648438 307.785156 371.042969 307.785156 371.042969 311.382812 "/>
<path style=" stroke:none;fill-rule:nonzero;fill:rgb(100%,84.3%,0%);fill-opacity:1;" d="M 92.507812 391.738281 C 92.507812 395.335938 87.113281 395.335938 87.113281 391.738281 C 87.113281 388.144531 92.507812 388.144531 92.507812 391.738281 "/>
<path style=" stroke:none;fill-rule:nonzero;fill:rgb(100%,84.3%,0%);fill-opacity:1;" d="M 301.585938 388.144531 C 301.585938 391.742188 296.191406 391.742188 296.191406 388.144531 C 296.191406 384.550781 301.585938 384.550781 301.585938 388.144531 "/>
<path style=" stroke:none;fill-rule:nonzero;fill:rgb(100%,84.3%,0%);fill-opacity:1;" d="M 197.070312 407.121094 C 197.070312 410.71875 191.675781 410.71875 191.675781 407.121094 C 191.675781 403.527344 197.070312 403.527344 197.070312 407.121094 "/>
<path style=" stroke:none;fill-rule:nonzero;fill:rgb(100%,84.3%,0%);fill-opacity:1;" d="M 410.703125 389.148438 C 410.703125 392.742188 405.3125 392.742188 405.3125 389.148438 C 405.3125 385.550781 410.703125 385.550781 410.703125 389.148438 "/>
<path style=" stroke:none;fill-rule:nonzero;fill:rgb(100%,84.3%,0%);fill-opacity:1;" d="M 130.617188 310.035156 C 130.617188 313.632812 125.226562 313.632812 125.226562 310.035156 C 125.226562 306.4375 130.617188 306.4375 130.617188 310.035156 "/>
<path style=" stroke:none;fill-rule:nonzero;fill:rgb(100%,84.3%,0%);fill-opacity:1;" d="M 188.40625 432.988281 C 188.40625 436.582031 183.011719 436.582031 183.011719 432.988281 C 183.011719 429.390625 188.40625 429.390625 188.40625 432.988281 "/>
<path style=" stroke:none;fill-rule:nonzero;fill:rgb(100%,84.3%,0%);fill-opacity:1;" d="M 147.335938 325.902344 C 147.335938 329.5 141.941406 329.5 141.941406 325.902344 C 141.941406 322.308594 147.335938 322.308594 147.335938 325.902344 "/>
<path style=" stroke:none;fill-rule:nonzero;fill:rgb(100%,84.3%,0%);fill-opacity:1;" d="M 446.914062 445.160156 C 446.914062 448.757812 441.519531 448.757812 441.519531 445.160156 C 441.519531 441.5625 446.914062 441.5625 446.914062 445.160156 "/>
<path style=" stroke:none;fill-rule:nonzero;fill:rgb(100%,84.3%,0%);fill-opacity:1;" d="M 213.976562 389.003906 C 213.976562 392.601562 208.582031 392.601562 208.582031 389.003906 C 208.582031 385.410156 213.976562 385.410156 213.976562 389.003906 "/>
<path style=" stroke:none;fill-rule:nonzero;fill:rgb(100%,84.3%,0%);fill-opacity:1;" d="M 362.683594 402.695312 C 362.683594 406.292969 357.289062 406.292969 357.289062 402.695312 C 357.289062 399.101562 362.683594 399.101562 362.683594 402.695312 "/>
<path style=" stroke:none;fill-rule:nonzero;fill:rgb(100%,84.3%,0%);fill-opacity:1;" d="M 380.765625 413.523438 C 380.765625 417.117188 375.371094 417.117188 375.371094 413.523438 C 375.371094 409.925781 380.765625 409.925781 380.765625 413.523438 "/>
<path style=" stroke:none;fill-rule:nonzero;fill:rgb(100%,84.3%,0%);fill-opacity:1;" d="M 153.300781 340.839844 C 153.300781 344.4375 147.90625 344.4375 147.90625 340.839844 C 147.90625 337.246094 153.300781 337.246094 153.300781 340.839844 "/>
<path style=" stroke:none;fill-rule:nonzero;fill:rgb(100%,84.3%,0%);fill-opacity:1;" d="M 388.140625 457.777344 C 388.140625 461.375 382.746094 461.375 382.746094 457.777344 C 382.746094 454.183594 388.140625 454.183594 388.140625 457.777344 "/>
<path style=" stroke:none;fill-rule:nonzero;fill:rgb(100%,84.3%,0%);fill-opacity:1;" d="M 303.300781 482.914062 C 303.300781 486.507812 297.90625 486.507812 297.90625 482.914062 C 297.90625 479.316406 303.300781 479.316406 303.300781 482.914062 "/>
<path style=" stroke:none;fill-rule:nonzero;fill:rgb(100%,84.3%,0%);fill-opacity:1;" d="M 139.964844 480.148438 C 139.964844 483.742188 134.570312 483.742188 134.570312 480.148438 C 134.570312 476.550781 139.964844 476.550781 139.964844 480.148438 "/>
<path style=" stroke:none;fill-rule:nonzero;fill:rgb(100%,84.3%,0%);fill-opacity:1;" d="M 433.808594 386.339844 C 433.808594 389.9375 428.414062 389.9375 428.414062 386.339844 C 428.414062 382.746094 433.808594 382.746094 433.808594 386.339844 "/>
<path style=" stroke:none;fill-rule:nonzero;fill:rgb(100%,84.3%,0%);fill-opacity:1;" d="M 264.394531 467.703125 C 264.394531 471.300781 259 471.300781 259 467.703125 C 259 464.105469 264.394531 464.105469 264.394531 467.703125 "/>
<path style=" stroke:none;fill-rule:nonzero;fill:rgb(100%,84.3%,0%);fill-opacity:1;" d="M 372.523438 405.777344 C 372.523438 409.371094 367.128906 409.371094 367.128906 405.777344 C 367.128906 402.179688 372.523438 402.179688 372.523438 405.777344 "/>
<path style=" stroke:none;fill-rule:nonzero;fill:rgb(100%,84.3%,0%);fill-opacity:1;" d="M 427.234375 439.003906 C 427.234375 442.597656 421.839844 442.597656 421.839844 439.003906 C 421.839844 435.40625 427.234375 435.40625 427.234375 439.003906 "/>
<path style=" stroke:none;fill-rule:nonzero;fill:rgb(100%,84.3%,0%);fill-opacity:1;" d="M 220.433594 435.40625 C 220.433594 439.003906 215.039062 439.003906 215.039062 435.40625 C 215.039062 431.8125 220.433594 431.8125 220.433594 435.40625 "/>
<path style=" stroke:none;fill-rule:nonzero;fill:rgb(100%,84.3%,0%);fill-opacity:1;" d="M 344.863281 422.960938 C 344.863281 426.558594 339.46875 426.558594 339.46875 422.960938 C 339.46875 419.363281 344.863281 419.363281 344.863281 422.960938 "/>
<path style=" stroke:none;fill-rule:nonzero;fill:rgb(100%,84.3%,0%);fill-opacity:1;" d="M 317.203125 440.148438 C 317.203125 443.742188 311.808594 443.742188 311.808594 440.148438 C 311.808594 436.550781 317.203125 436.550781 317.203125 440.148438 "/>
<path style=" stroke:none;fill-rule:nonzero;fill:rgb(100%,84.3%,0%);fill-opacity:1;" d="M 226.894531 481.808594 C 226.894531 485.40625 221.5 485.40625 221.5 481.808594 C 221.5 478.214844 226.894531 478.214844 226.894531 481.808594 "/>
</g>
</svg>
