<?xml version="1.0" encoding="UTF-8"?>
<svg xmlns="http://www.w3.org/2000/svg" xmlns:xlink="http://www.w3.org/1999/xlink" width="512pt" height="512pt" viewBox="0 0 512 512" version="1.1">
<g id="surface146">
<rect x="0" y="0" width="512" height="512" style="fill:rgb(26.7%,26.7%,26.7%);fill-opacity:1;stroke:none;"/>
<path style=" stroke:none;fill-rule:nonzero;fill:rgb(19.2%,38.8%,66.7%);fill-opacity:1;" d="M 42.667969 172.210938 L 469.332031 172.210938 L 469.332031 481.109375 L 42.667969 481.109375 Z M 42.667969 172.210938 "/>
<path style=" stroke:none;fill-rule:nonzero;fill:rgb(100%,100%,100%);fill-opacity:1;" d="M 185.53125 496.554688 C 185.53125 501.886719 181.210938 506.207031 175.878906 506.207031 C 170.546875 506.207031 166.226562 501.886719 166.226562 496.554688 C 166.226562 491.222656 170.546875 486.902344 175.878906 486.902344 C 181.210938 486.902344 185.53125 491.222656 185.53125 496.554688 "/>
<path style=" stroke:none;fill-rule:nonzero;fill:rgb(100%,100%,100%);fill-opacity:1;" d="M 270.480469 46.722656 C 270.480469 52.050781 266.160156 56.375 260.828125 56.375 C 255.496094 56.375 251.175781 52.050781 251.175781 46.722656 C 251.175781 41.390625 255.496094 37.066406 260.828125 37.066406 C 266.160156 37.066406 270.480469 41.390625 270.480469 46.722656 "/>
<path style=" stroke:none;fill-rule:nonzero;fill:rgb(100%,100%,100%);fill-opacity:1;" d="M 359.289062 4.246094 C 359.289062 9.578125 354.964844 13.898438 349.636719 13.898438 C 344.304688 13.898438 339.980469 9.578125 339.980469 4.246094 C 339.980469 -1.085938 344.304688 -5.40625 349.636719 -5.40625 C 354.964844 -5.40625 359.289062 -1.085938 359.289062 4.246094 "/>
<path style=" stroke:none;fill-rule:nonzero;fill:rgb(100%,100%,100%);fill-opacity:1;" d="M 11.777344 164.488281 C 11.777344 169.820312 7.457031 174.140625 2.125 174.140625 C -3.207031 174.140625 -7.527344 169.820312 -7.527344 164.488281 C -7.527344 159.15625 -3.207031 154.835938 2.125 154.835938 C 7.457031 154.835938 11.777344 159.15625 11.777344 164.488281 "/>
<path style=" stroke:none;fill-rule:nonzero;fill:rgb(100%,100%,100%);fill-opacity:1;" d="M 382.457031 112.363281 C 382.457031 117.691406 378.132812 122.015625 372.800781 122.015625 C 367.472656 122.015625 363.148438 117.691406 363.148438 112.363281 C 363.148438 107.03125 367.472656 102.707031 372.800781 102.707031 C 378.132812 102.707031 382.457031 107.03125 382.457031 112.363281 "/>
<path style=" stroke:none;fill-rule:nonzero;fill:rgb(100%,100%,100%);fill-opacity:1;" d="M 119.890625 73.75 C 119.890625 79.082031 115.570312 83.402344 110.238281 83.402344 C 104.90625 83.402344 100.585938 79.082031 100.585938 73.75 C 100.585938 68.417969 104.90625 64.097656 110.238281 64.097656 C 115.570312 64.097656 119.890625 68.417969 119.890625 73.75 "/>
<path style=" stroke:none;fill-rule:nonzero;fill:rgb(100%,100%,100%);fill-opacity:1;" d="M 181.671875 69.886719 C 181.671875 75.21875 177.347656 79.542969 172.019531 79.542969 C 166.6875 79.542969 162.363281 75.21875 162.363281 69.886719 C 162.363281 64.558594 166.6875 60.234375 172.019531 60.234375 C 177.347656 60.234375 181.671875 64.558594 181.671875 69.886719 "/>
<path style=" stroke:none;fill-rule:nonzero;fill:rgb(100%,100%,100%);fill-opacity:1;" d="M 2.125 232.058594 C 2.125 237.390625 -2.199219 241.714844 -7.527344 241.714844 C -12.859375 241.714844 -17.183594 237.390625 -17.183594 232.058594 C -17.183594 226.730469 -12.859375 222.40625 -7.527344 222.40625 C -2.199219 222.40625 2.125 226.730469 2.125 232.058594 "/>
<path style=" stroke:none;fill-rule:nonzero;fill:rgb(100%,100%,100%);fill-opacity:1;" d="M 13.707031 40.929688 C 13.707031 46.261719 9.386719 50.582031 4.054688 50.582031 C -1.277344 50.582031 -5.597656 46.261719 -5.597656 40.929688 C -5.597656 35.597656 -1.277344 31.277344 4.054688 31.277344 C 9.386719 31.277344 13.707031 35.597656 13.707031 40.929688 "/>
<path style=" stroke:none;fill-rule:nonzero;fill:rgb(100%,100%,100%);fill-opacity:1;" d="M 108.308594 504.277344 C 108.308594 509.609375 103.984375 513.929688 98.65625 513.929688 C 93.324219 513.929688 89 509.609375 89 504.277344 C 89 498.945312 93.324219 494.625 98.65625 494.625 C 103.984375 494.625 108.308594 498.945312 108.308594 504.277344 "/>
<path style=" stroke:none;fill-rule:nonzero;fill:rgb(100%,100%,100%);fill-opacity:1;" d="M 117.960938 162.558594 C 117.960938 167.890625 113.640625 172.210938 108.308594 172.210938 C 102.976562 172.210938 98.65625 167.890625 98.65625 162.558594 C 98.65625 157.226562 102.976562 152.90625 108.308594 152.90625 C 113.640625 152.90625 117.960938 157.226562 117.960938 162.558594 "/>
<path style=" stroke:none;fill-rule:nonzero;fill:rgb(100%,100%,100%);fill-opacity:1;" d="M 455.820312 483.039062 C 455.820312 488.371094 451.496094 492.695312 446.164062 492.695312 C 440.835938 492.695312 436.511719 488.371094 436.511719 483.039062 C 436.511719 477.710938 440.835938 473.386719 446.164062 473.386719 C 451.496094 473.386719 455.820312 477.710938 455.820312 483.039062 "/>
<path style=" stroke:none;fill-rule:nonzero;fill:rgb(100%,100%,100%);fill-opacity:1;" d="M 0.191406 116.222656 C 0.191406 121.554688 -4.128906 125.875 -9.460938 125.875 C -14.792969 125.875 -19.113281 121.554688 -19.113281 116.222656 C -19.113281 110.890625 -14.792969 106.570312 -9.460938 106.570312 C -4.128906 106.570312 0.191406 110.890625 0.191406 116.222656 "/>
<path style=" stroke:none;fill-rule:nonzero;fill:rgb(100%,100%,100%);fill-opacity:1;" d="M 202.90625 17.761719 C 202.90625 23.09375 198.585938 27.414062 193.253906 27.414062 C 187.921875 27.414062 183.601562 23.09375 183.601562 17.761719 C 183.601562 12.429688 187.921875 8.109375 193.253906 8.109375 C 198.585938 8.109375 202.90625 12.429688 202.90625 17.761719 "/>
<path style=" stroke:none;fill-rule:nonzero;fill:rgb(100%,100%,100%);fill-opacity:1;" d="M 374.734375 81.472656 C 374.734375 86.804688 370.410156 91.125 365.078125 91.125 C 359.75 91.125 355.425781 86.804688 355.425781 81.472656 C 355.425781 76.140625 359.75 71.820312 365.078125 71.820312 C 370.410156 71.820312 374.734375 76.140625 374.734375 81.472656 "/>
<path style=" stroke:none;fill-rule:nonzero;fill:rgb(100%,100%,100%);fill-opacity:1;" d="M 531.113281 322.800781 C 531.113281 328.128906 526.792969 332.453125 521.460938 332.453125 C 516.128906 332.453125 511.808594 328.128906 511.808594 322.800781 C 511.808594 317.46875 516.128906 313.144531 521.460938 313.144531 C 526.792969 313.144531 531.113281 317.46875 531.113281 322.800781 "/>
<path style=" stroke:none;fill-rule:nonzero;fill:rgb(100%,100%,100%);fill-opacity:1;" d="M 46.527344 484.972656 C 46.527344 490.300781 42.207031 494.625 36.875 494.625 C 31.542969 494.625 27.222656 490.300781 27.222656 484.972656 C 27.222656 479.640625 31.542969 475.316406 36.875 475.316406 C 42.207031 475.316406 46.527344 479.640625 46.527344 484.972656 "/>
<path style=" stroke:none;fill-rule:nonzero;fill:rgb(100%,100%,100%);fill-opacity:1;" d="M 478.984375 152.90625 C 478.984375 158.234375 474.664062 162.558594 469.332031 162.558594 C 464 162.558594 459.679688 158.234375 459.679688 152.90625 C 459.679688 147.574219 464 143.25 469.332031 143.25 C 474.664062 143.25 478.984375 147.574219 478.984375 152.90625 "/>
<path style=" stroke:none;fill-rule:nonzero;fill:rgb(100%,100%,100%);fill-opacity:1;" d="M 77.417969 512 C 77.417969 517.332031 73.097656 521.652344 67.765625 521.652344 C 62.433594 521.652344 58.113281 517.332031 58.113281 512 C 58.113281 506.667969 62.433594 502.347656 67.765625 502.347656 C 73.097656 502.347656 77.417969 506.667969 77.417969 512 "/>
<path style=" stroke:none;fill-rule:nonzero;fill:rgb(100%,100%,100%);fill-opacity:1;" d="M 316.8125 156.765625 C 316.8125 162.097656 312.492188 166.417969 307.160156 166.417969 C 301.828125 166.417969 297.507812 162.097656 297.507812 156.765625 C 297.507812 151.433594 301.828125 147.113281 307.160156 147.113281 C 312.492188 147.113281 316.8125 151.433594 316.8125 156.765625 "/>
<path style=" stroke:none;fill-rule:nonzero;fill:rgb(100%,100%,100%);fill-opacity:1;" d="M 531.113281 199.238281 C 531.113281 204.570312 526.792969 208.894531 521.460938 208.894531 C 516.128906 208.894531 511.808594 204.570312 511.808594 199.238281 C 511.808594 193.910156 516.128906 189.585938 521.460938 189.585938 C 526.792969 189.585938 531.113281 193.910156 531.113281 199.238281 "/>
<path style=" stroke:none;fill-rule:nonzero;fill:rgb(100%,100%,100%);fill-opacity:1;" d="M 243.449219 23.554688 C 243.449219 28.886719 239.128906 33.207031 233.796875 33.207031 C 228.464844 33.207031 224.144531 28.886719 224.144531 23.554688 C 224.144531 18.222656 228.464844 13.902344 233.796875 13.902344 C 239.128906 13.902344 243.449219 18.222656 243.449219 23.554688 "/>
<path style=" stroke:none;fill-rule:nonzero;fill:rgb(100%,100%,100%);fill-opacity:1;" d="M 247.3125 114.292969 C 247.3125 119.625 242.992188 123.945312 237.660156 123.945312 C 232.328125 123.945312 228.007812 119.625 228.007812 114.292969 C 228.007812 108.960938 232.328125 104.640625 237.660156 104.640625 C 242.992188 104.640625 247.3125 108.960938 247.3125 114.292969 "/>
<path style=" stroke:none;fill-rule:nonzero;fill:rgb(100%,100%,100%);fill-opacity:1;" d="M 326.46875 118.152344 C 326.46875 123.484375 322.144531 127.808594 316.8125 127.808594 C 311.484375 127.808594 307.160156 123.484375 307.160156 118.152344 C 307.160156 112.824219 311.484375 108.5 316.8125 108.5 C 322.144531 108.5 326.46875 112.824219 326.46875 118.152344 "/>
<path style=" stroke:none;fill-rule:nonzero;fill:rgb(100%,100%,100%);fill-opacity:1;" d="M 158.503906 112.363281 C 158.503906 117.691406 154.183594 122.015625 148.851562 122.015625 C 143.519531 122.015625 139.199219 117.691406 139.199219 112.363281 C 139.199219 107.03125 143.519531 102.707031 148.851562 102.707031 C 154.183594 102.707031 158.503906 107.03125 158.503906 112.363281 "/>
<path style=" stroke:none;fill-rule:nonzero;fill:rgb(100%,100%,100%);fill-opacity:1;" d="M 494.429688 91.125 C 494.429688 96.457031 490.109375 100.777344 484.777344 100.777344 C 479.445312 100.777344 475.125 96.457031 475.125 91.125 C 475.125 85.792969 479.445312 81.472656 484.777344 81.472656 C 490.109375 81.472656 494.429688 85.792969 494.429688 91.125 "/>
<path style=" stroke:none;fill-rule:nonzero;fill:rgb(100%,100%,100%);fill-opacity:1;" d="M 54.25 19.691406 C 54.25 25.023438 49.929688 29.34375 44.597656 29.34375 C 39.265625 29.34375 34.945312 25.023438 34.945312 19.691406 C 34.945312 14.359375 39.265625 10.039062 44.597656 10.039062 C 49.929688 10.039062 54.25 14.359375 54.25 19.691406 "/>
<path style=" stroke:none;fill-rule:nonzero;fill:rgb(100%,100%,100%);fill-opacity:1;" d="M 75.488281 6.179688 C 75.488281 11.507812 71.164062 15.832031 65.835938 15.832031 C 60.503906 15.832031 56.179688 11.507812 56.179688 6.179688 C 56.179688 0.847656 60.503906 -3.476562 65.835938 -3.476562 C 71.164062 -3.476562 75.488281 0.847656 75.488281 6.179688 "/>
<path style=" stroke:none;fill-rule:nonzero;fill:rgb(100%,100%,100%);fill-opacity:1;" d="M 509.875 407.746094 C 509.875 413.078125 505.554688 417.398438 500.222656 417.398438 C 494.890625 417.398438 490.570312 413.078125 490.570312 407.746094 C 490.570312 402.414062 494.890625 398.09375 500.222656 398.09375 C 505.554688 398.09375 509.875 402.414062 509.875 407.746094 "/>
<path style=" stroke:none;fill-rule:nonzero;fill:rgb(100%,100%,100%);fill-opacity:1;" d="M 206.769531 137.460938 C 206.769531 142.792969 202.445312 147.113281 197.117188 147.113281 C 191.785156 147.113281 187.464844 142.792969 187.464844 137.460938 C 187.464844 132.128906 191.785156 127.808594 197.117188 127.808594 C 202.445312 127.808594 206.769531 132.128906 206.769531 137.460938 "/>
<path style=" stroke:none;fill-rule:nonzero;fill:rgb(100%,100%,100%);fill-opacity:1;" d="M 307.160156 58.304688 C 307.160156 63.636719 302.839844 67.957031 297.507812 67.957031 C 292.175781 67.957031 287.855469 63.636719 287.855469 58.304688 C 287.855469 52.972656 292.175781 48.652344 297.507812 48.652344 C 302.839844 48.652344 307.160156 52.972656 307.160156 58.304688 "/>
<path style=" stroke:none;fill-rule:nonzero;fill:rgb(100%,100%,100%);fill-opacity:1;" d="M 459.679688 0.386719 C 459.679688 5.71875 455.359375 10.039062 450.027344 10.039062 C 444.695312 10.039062 440.375 5.71875 440.375 0.386719 C 440.375 -4.945312 444.695312 -9.265625 450.027344 -9.265625 C 455.359375 -9.265625 459.679688 -4.945312 459.679688 0.386719 "/>
<path style=" stroke:none;fill-rule:nonzero;fill:rgb(100%,100%,100%);fill-opacity:1;" d="M 104.445312 23.554688 C 104.445312 28.886719 100.125 33.207031 94.792969 33.207031 C 89.460938 33.207031 85.140625 28.886719 85.140625 23.554688 C 85.140625 18.222656 89.460938 13.902344 94.792969 13.902344 C 100.125 13.902344 104.445312 18.222656 104.445312 23.554688 "/>
<path style=" stroke:none;fill-rule:nonzero;fill:rgb(100%,100%,100%);fill-opacity:1;" d="M 199.046875 -7.335938 C 199.046875 -2.003906 194.726562 2.316406 189.394531 2.316406 C 184.0625 2.316406 179.742188 -2.003906 179.742188 -7.335938 C 179.742188 -12.667969 184.0625 -16.988281 189.394531 -16.988281 C 194.726562 -16.988281 199.046875 -12.667969 199.046875 -7.335938 "/>
<path style=" stroke:none;fill-rule:nonzero;fill:rgb(100%,100%,100%);fill-opacity:1;" d="M 488.640625 226.269531 C 488.640625 231.597656 484.316406 235.921875 478.984375 235.921875 C 473.65625 235.921875 469.332031 231.597656 469.332031 226.269531 C 469.332031 220.9375 473.65625 216.613281 478.984375 216.613281 C 484.316406 216.613281 488.640625 220.9375 488.640625 226.269531 "/>
<path style=" stroke:none;fill-rule:nonzero;fill:rgb(100%,100%,100%);fill-opacity:1;" d="M 392.109375 502.347656 C 392.109375 507.679688 387.789062 512 382.457031 512 C 377.125 512 372.804688 507.679688 372.804688 502.347656 C 372.804688 497.015625 377.125 492.695312 382.457031 492.695312 C 387.789062 492.695312 392.109375 497.015625 392.109375 502.347656 "/>
<path style=" stroke:none;fill-rule:nonzero;fill:rgb(100%,100%,100%);fill-opacity:1;" d="M 2.125 147.113281 C 2.125 152.445312 -2.199219 156.765625 -7.527344 156.765625 C -12.859375 156.765625 -17.183594 152.445312 -17.183594 147.113281 C -17.183594 141.78125 -12.859375 137.460938 -7.527344 137.460938 C -2.199219 137.460938 2.125 141.78125 2.125 147.113281 "/>
<path style=" stroke:none;fill-rule:nonzero;fill:rgb(100%,100%,100%);fill-opacity:1;" d="M 60.042969 139.390625 C 60.042969 144.722656 55.71875 149.042969 50.390625 149.042969 C 45.058594 149.042969 40.734375 144.722656 40.734375 139.390625 C 40.734375 134.058594 45.058594 129.738281 50.390625 129.738281 C 55.71875 129.738281 60.042969 134.058594 60.042969 139.390625 "/>
<path style=" stroke:none;fill-rule:nonzero;fill:rgb(100%,100%,100%);fill-opacity:1;" d="M 486.710938 288.046875 C 486.710938 293.378906 482.386719 297.699219 477.054688 297.699219 C 471.726562 297.699219 467.402344 293.378906 467.402344 288.046875 C 467.402344 282.714844 471.726562 278.394531 477.054688 278.394531 C 482.386719 278.394531 486.710938 282.714844 486.710938 288.046875 "/>
<path style=" stroke:none;fill-rule:nonzero;fill:rgb(100%,100%,100%);fill-opacity:1;" d="M 480.917969 143.253906 C 480.917969 148.582031 476.59375 152.90625 471.265625 152.90625 C 465.933594 152.90625 461.609375 148.582031 461.609375 143.253906 C 461.609375 137.921875 465.933594 133.597656 471.265625 133.597656 C 476.59375 133.597656 480.917969 137.921875 480.917969 143.253906 "/>
<path style=" stroke:none;fill-rule:nonzero;fill:rgb(100%,84.3%,0%);fill-opacity:1;" d="M 459.679688 191.515625 C 459.679688 196.847656 455.359375 201.171875 450.027344 201.171875 C 444.695312 201.171875 440.375 196.847656 440.375 191.515625 C 440.375 186.1875 444.695312 181.863281 450.027344 181.863281 C 455.359375 181.863281 459.679688 186.1875 459.679688 191.515625 "/>
<path style=" stroke:none;fill-rule:nonzero;fill:rgb(100%,84.3%,0%);fill-opacity:1;" d="M 449.644531 460.535156 C 449.644531 465.867188 445.324219 470.1875 439.992188 470.1875 C 434.660156 470.1875 430.339844 465.867188 430.339844 460.535156 C 430.339844 455.203125 434.660156 450.882812 439.992188 450.882812 C 445.324219 450.882812 449.644531 455.203125 449.644531 460.535156 "/>
<path style=" stroke:none;fill-rule:nonzero;fill:rgb(100%,84.3%,0%);fill-opacity:1;" d="M 419.328125 254.714844 C 419.328125 260.042969 415.007812 264.367188 409.675781 264.367188 C 404.34375 264.367188 400.023438 260.042969 400.023438 254.714844 C 400.023438 249.382812 404.34375 245.058594 409.675781 245.058594 C 415.007812 245.058594 419.328125 249.382812 419.328125 254.714844 "/>
<path style=" stroke:none;fill-rule:nonzero;fill:rgb(100%,84.3%,0%);fill-opacity:1;" d="M 261.574219 231.117188 C 261.574219 236.449219 257.25 240.769531 251.921875 240.769531 C 246.589844 240.769531 242.265625 236.449219 242.265625 231.117188 C 242.265625 225.785156 246.589844 221.464844 251.921875 221.464844 C 257.25 221.464844 261.574219 225.785156 261.574219 231.117188 "/>
<path style=" stroke:none;fill-rule:nonzero;fill:rgb(100%,84.3%,0%);fill-opacity:1;" d="M 453.625 388.703125 C 453.625 394.035156 449.300781 398.355469 443.96875 398.355469 C 438.640625 398.355469 434.316406 394.035156 434.316406 388.703125 C 434.316406 383.371094 438.640625 379.050781 443.96875 379.050781 C 449.300781 379.050781 453.625 383.371094 453.625 388.703125 "/>
<path style=" stroke:none;fill-rule:nonzero;fill:rgb(100%,84.3%,0%);fill-opacity:1;" d="M 380.992188 374.230469 C 380.992188 379.5625 376.667969 383.882812 371.339844 383.882812 C 366.007812 383.882812 361.683594 379.5625 361.683594 374.230469 C 361.683594 368.898438 366.007812 364.578125 371.339844 364.578125 C 376.667969 364.578125 380.992188 368.898438 380.992188 374.230469 "/>
<path style=" stroke:none;fill-rule:nonzero;fill:rgb(100%,84.3%,0%);fill-opacity:1;" d="M 404.082031 410.839844 C 404.082031 416.171875 399.757812 420.492188 394.429688 420.492188 C 389.097656 420.492188 384.773438 416.171875 384.773438 410.839844 C 384.773438 405.507812 389.097656 401.1875 394.429688 401.1875 C 399.757812 401.1875 404.082031 405.507812 404.082031 410.839844 "/>
<path style=" stroke:none;fill-rule:nonzero;fill:rgb(100%,84.3%,0%);fill-opacity:1;" d="M 80.371094 194.691406 C 80.371094 200.023438 76.050781 204.34375 70.71875 204.34375 C 65.386719 204.34375 61.066406 200.023438 61.066406 194.691406 C 61.066406 189.359375 65.386719 185.039062 70.71875 185.039062 C 76.050781 185.039062 80.371094 189.359375 80.371094 194.691406 "/>
<path style=" stroke:none;fill-rule:nonzero;fill:rgb(100%,84.3%,0%);fill-opacity:1;" d="M 101.742188 300.96875 C 101.742188 306.296875 97.421875 310.621094 92.089844 310.621094 C 86.757812 310.621094 82.4375 306.296875 82.4375 300.96875 C 82.4375 295.636719 86.757812 291.3125 92.089844 291.3125 C 97.421875 291.3125 101.742188 295.636719 101.742188 300.96875 "/>
<path style=" stroke:none;fill-rule:nonzero;fill:rgb(100%,84.3%,0%);fill-opacity:1;" d="M 72.027344 452.902344 C 72.027344 458.234375 67.707031 462.558594 62.375 462.558594 C 57.042969 462.558594 52.722656 458.234375 52.722656 452.902344 C 52.722656 447.574219 57.042969 443.25 62.375 443.25 C 67.707031 443.25 72.027344 447.574219 72.027344 452.902344 "/>
<path style=" stroke:none;fill-rule:nonzero;fill:rgb(100%,84.3%,0%);fill-opacity:1;" d="M 91.894531 459.890625 C 91.894531 465.222656 87.574219 469.542969 82.242188 469.542969 C 76.910156 469.542969 72.589844 465.222656 72.589844 459.890625 C 72.589844 454.558594 76.910156 450.238281 82.242188 450.238281 C 87.574219 450.238281 91.894531 454.558594 91.894531 459.890625 "/>
<path style=" stroke:none;fill-rule:nonzero;fill:rgb(100%,84.3%,0%);fill-opacity:1;" d="M 459.285156 237.285156 C 459.285156 242.617188 454.964844 246.9375 449.632812 246.9375 C 444.304688 246.9375 439.980469 242.617188 439.980469 237.285156 C 439.980469 231.953125 444.304688 227.632812 449.632812 227.632812 C 454.964844 227.632812 459.285156 231.953125 459.285156 237.285156 "/>
<path style=" stroke:none;fill-rule:nonzero;fill:rgb(100%,84.3%,0%);fill-opacity:1;" d="M 111.964844 192.140625 C 111.964844 197.472656 107.644531 201.792969 102.3125 201.792969 C 96.980469 201.792969 92.660156 197.472656 92.660156 192.140625 C 92.660156 186.808594 96.980469 182.488281 102.3125 182.488281 C 107.644531 182.488281 111.964844 186.808594 111.964844 192.140625 "/>
<path style=" stroke:none;fill-rule:nonzero;fill:rgb(100%,84.3%,0%);fill-opacity:1;" d="M 72.054688 224.445312 C 72.054688 229.773438 67.730469 234.097656 62.402344 234.097656 C 57.070312 234.097656 52.746094 229.773438 52.746094 224.445312 C 52.746094 219.113281 57.070312 214.789062 62.402344 214.789062 C 67.730469 214.789062 72.054688 219.113281 72.054688 224.445312 "/>
<path style=" stroke:none;fill-rule:nonzero;fill:rgb(100%,84.3%,0%);fill-opacity:1;" d="M 132.019531 460.003906 C 132.019531 465.335938 127.695312 469.65625 122.363281 469.65625 C 117.035156 469.65625 112.710938 465.335938 112.710938 460.003906 C 112.710938 454.671875 117.035156 450.351562 122.363281 450.351562 C 127.695312 450.351562 132.019531 454.671875 132.019531 460.003906 "/>
<path style=" stroke:none;fill-rule:nonzero;fill:rgb(100%,84.3%,0%);fill-opacity:1;" d="M 127.742188 236.246094 C 127.742188 241.578125 123.421875 245.902344 118.089844 245.902344 C 112.757812 245.902344 108.4375 241.578125 108.4375 236.246094 C 108.4375 230.917969 112.757812 226.59375 118.089844 226.59375 C 123.421875 226.59375 127.742188 230.917969 127.742188 236.246094 "/>
<path style=" stroke:none;fill-rule:nonzero;fill:rgb(100%,84.3%,0%);fill-opacity:1;" d="M 458.894531 283.054688 C 458.894531 288.386719 454.570312 292.707031 449.242188 292.707031 C 443.910156 292.707031 439.589844 288.386719 439.589844 283.054688 C 439.589844 277.722656 443.910156 273.402344 449.242188 273.402344 C 454.570312 273.402344 458.894531 277.722656 458.894531 283.054688 "/>
<path style=" stroke:none;fill-rule:nonzero;fill:rgb(100%,84.3%,0%);fill-opacity:1;" d="M 131.777344 216.160156 C 131.777344 221.492188 127.457031 225.8125 122.125 225.8125 C 116.792969 225.8125 112.472656 221.492188 112.472656 216.160156 C 112.472656 210.828125 116.792969 206.507812 122.125 206.507812 C 127.457031 206.507812 131.777344 210.828125 131.777344 216.160156 "/>
<path style=" stroke:none;fill-rule:nonzero;fill:rgb(100%,84.3%,0%);fill-opacity:1;" d="M 172.140625 460.117188 C 172.140625 465.449219 167.816406 469.769531 162.484375 469.769531 C 157.15625 469.769531 152.832031 465.449219 152.832031 460.117188 C 152.832031 454.785156 157.15625 450.464844 162.484375 450.464844 C 167.816406 450.464844 172.140625 454.785156 172.140625 460.117188 "/>
<path style=" stroke:none;fill-rule:nonzero;fill:rgb(100%,84.3%,0%);fill-opacity:1;" d="M 162.121094 193.519531 C 162.121094 198.851562 157.800781 203.175781 152.46875 203.175781 C 147.136719 203.175781 142.816406 198.851562 142.816406 193.519531 C 142.816406 188.191406 147.136719 183.867188 152.46875 183.867188 C 157.800781 183.867188 162.121094 188.191406 162.121094 193.519531 "/>
<path style=" stroke:none;fill-rule:nonzero;fill:rgb(100%,84.3%,0%);fill-opacity:1;" d="M 307.25 214.703125 C 307.25 220.035156 302.929688 224.355469 297.597656 224.355469 C 292.265625 224.355469 287.945312 220.035156 287.945312 214.703125 C 287.945312 209.371094 292.265625 205.050781 297.597656 205.050781 C 302.929688 205.050781 307.25 209.371094 307.25 214.703125 "/>
<path style=" stroke:none;fill-rule:nonzero;fill:rgb(100%,84.3%,0%);fill-opacity:1;" d="M 193.496094 460.746094 C 193.496094 466.078125 189.175781 470.398438 183.84375 470.398438 C 178.511719 470.398438 174.191406 466.078125 174.191406 460.746094 C 174.191406 455.414062 178.511719 451.09375 183.84375 451.09375 C 189.175781 451.09375 193.496094 455.414062 193.496094 460.746094 "/>
<path style=" stroke:none;fill-rule:nonzero;fill:rgb(100%,84.3%,0%);fill-opacity:1;" d="M 411.152344 429.78125 C 411.152344 435.109375 406.832031 439.433594 401.5 439.433594 C 396.167969 439.433594 391.847656 435.109375 391.847656 429.78125 C 391.847656 424.449219 396.167969 420.125 401.5 420.125 C 406.832031 420.125 411.152344 424.449219 411.152344 429.78125 "/>
<path style=" stroke:none;fill-rule:nonzero;fill:rgb(100%,84.3%,0%);fill-opacity:1;" d="M 441.824219 341.539062 C 441.824219 346.871094 437.503906 351.191406 432.171875 351.191406 C 426.839844 351.191406 422.519531 346.871094 422.519531 341.539062 C 422.519531 336.207031 426.839844 331.886719 432.171875 331.886719 C 437.503906 331.886719 441.824219 336.207031 441.824219 341.539062 "/>
<path style=" stroke:none;fill-rule:nonzero;fill:rgb(100%,84.3%,0%);fill-opacity:1;" d="M 213.128906 191.980469 C 213.128906 197.308594 208.808594 201.632812 203.476562 201.632812 C 198.144531 201.632812 193.824219 197.308594 193.824219 191.980469 C 193.824219 186.648438 198.144531 182.324219 203.476562 182.324219 C 208.808594 182.324219 213.128906 186.648438 213.128906 191.980469 "/>
<path style=" stroke:none;fill-rule:nonzero;fill:rgb(100%,84.3%,0%);fill-opacity:1;" d="M 415.6875 229.035156 C 415.6875 234.367188 411.367188 238.6875 406.035156 238.6875 C 400.703125 238.6875 396.382812 234.367188 396.382812 229.035156 C 396.382812 223.703125 400.703125 219.382812 406.035156 219.382812 C 411.367188 219.382812 415.6875 223.703125 415.6875 229.035156 "/>
<path style=" stroke:none;fill-rule:nonzero;fill:rgb(100%,84.3%,0%);fill-opacity:1;" d="M 429.777344 453.550781 C 429.777344 458.878906 425.457031 463.203125 420.125 463.203125 C 414.792969 463.203125 410.472656 458.878906 410.472656 453.550781 C 410.472656 448.21875 414.792969 443.894531 420.125 443.894531 C 425.457031 443.894531 429.777344 448.21875 429.777344 453.550781 "/>
<path style=" stroke:none;fill-rule:nonzero;fill:rgb(100%,84.3%,0%);fill-opacity:1;" d="M 453.488281 211.480469 C 453.488281 216.808594 449.167969 221.132812 443.835938 221.132812 C 438.503906 221.132812 434.183594 216.808594 434.183594 211.480469 C 434.183594 206.148438 438.503906 201.824219 443.835938 201.824219 C 449.167969 201.824219 453.488281 206.148438 453.488281 211.480469 "/>
<path style=" stroke:none;fill-rule:nonzero;fill:rgb(100%,84.3%,0%);fill-opacity:1;" d="M 190.703125 193.765625 C 190.703125 199.097656 186.378906 203.417969 181.050781 203.417969 C 175.71875 203.417969 171.394531 199.097656 171.394531 193.765625 C 171.394531 188.433594 175.71875 184.113281 181.050781 184.113281 C 186.378906 184.113281 190.703125 188.433594 190.703125 193.765625 "/>
<path style=" stroke:none;fill-rule:nonzero;fill:rgb(100%,84.3%,0%);fill-opacity:1;" d="M 450.980469 303.90625 C 450.980469 309.234375 446.65625 313.558594 441.324219 313.558594 C 435.996094 313.558594 431.671875 309.234375 431.671875 303.90625 C 431.671875 298.574219 435.996094 294.25 441.324219 294.25 C 446.65625 294.25 450.980469 298.574219 450.980469 303.90625 "/>
<path style=" stroke:none;fill-rule:nonzero;fill:rgb(100%,84.3%,0%);fill-opacity:1;" d="M 106.875 320.289062 C 106.875 325.621094 102.550781 329.941406 97.21875 329.941406 C 91.890625 329.941406 87.566406 325.621094 87.566406 320.289062 C 87.566406 314.957031 91.890625 310.636719 97.21875 310.636719 C 102.550781 310.636719 106.875 314.957031 106.875 320.289062 "/>
<path style=" stroke:none;fill-rule:nonzero;fill:rgb(100%,84.3%,0%);fill-opacity:1;" d="M 435.429688 365.949219 C 435.429688 371.28125 431.109375 375.605469 425.777344 375.605469 C 420.445312 375.605469 416.125 371.28125 416.125 365.949219 C 416.125 360.621094 420.445312 356.296875 425.777344 356.296875 C 431.109375 356.296875 435.429688 360.621094 435.429688 365.949219 "/>
<path style=" stroke:none;fill-rule:nonzero;fill:rgb(100%,84.3%,0%);fill-opacity:1;" d="M 434.519531 317.132812 C 434.519531 322.460938 430.199219 326.785156 424.867188 326.785156 C 419.535156 326.785156 415.214844 322.460938 415.214844 317.132812 C 415.214844 311.800781 419.535156 307.476562 424.867188 307.476562 C 430.199219 307.476562 434.519531 311.800781 434.519531 317.132812 "/>
<path style=" stroke:none;fill-rule:nonzero;fill:rgb(100%,84.3%,0%);fill-opacity:1;" d="M 222.078125 460.988281 C 222.078125 466.320312 217.757812 470.644531 212.425781 470.644531 C 207.09375 470.644531 202.773438 466.320312 202.773438 460.988281 C 202.773438 455.660156 207.09375 451.335938 212.425781 451.335938 C 217.757812 451.335938 222.078125 455.660156 222.078125 460.988281 "/>
<path style=" stroke:none;fill-rule:nonzero;fill:rgb(100%,84.3%,0%);fill-opacity:1;" d="M 422.753906 279.882812 C 422.753906 285.214844 418.429688 289.535156 413.101562 289.535156 C 407.769531 289.535156 403.445312 285.214844 403.445312 279.882812 C 403.445312 274.554688 407.769531 270.230469 413.101562 270.230469 C 418.429688 270.230469 422.753906 274.554688 422.753906 279.882812 "/>
<path style=" stroke:none;fill-rule:nonzero;fill:rgb(100%,84.3%,0%);fill-opacity:1;" d="M 242.058594 401.863281 C 242.058594 407.195312 237.734375 411.519531 232.402344 411.519531 C 227.074219 411.519531 222.75 407.195312 222.75 401.863281 C 222.75 396.535156 227.074219 392.210938 232.402344 392.210938 C 237.734375 392.210938 242.058594 396.535156 242.058594 401.863281 "/>
<path style=" stroke:none;fill-rule:nonzero;fill:rgb(100%,84.3%,0%);fill-opacity:1;" d="M 366.53125 438.820312 C 366.53125 444.152344 362.207031 448.472656 356.878906 448.472656 C 351.546875 448.472656 347.222656 444.152344 347.222656 438.820312 C 347.222656 433.488281 351.546875 429.167969 356.878906 429.167969 C 362.207031 429.167969 366.53125 433.488281 366.53125 438.820312 "/>
<path style=" stroke:none;fill-rule:nonzero;fill:rgb(100%,84.3%,0%);fill-opacity:1;" d="M 326.054688 192.195312 C 326.054688 197.527344 321.730469 201.847656 316.398438 201.847656 C 311.070312 201.847656 306.746094 197.527344 306.746094 192.195312 C 306.746094 186.863281 311.070312 182.542969 316.398438 182.542969 C 321.730469 182.542969 326.054688 186.863281 326.054688 192.195312 "/>
<path style=" stroke:none;fill-rule:nonzero;fill:rgb(100%,84.3%,0%);fill-opacity:1;" d="M 151.199219 455.546875 C 151.199219 460.878906 146.878906 465.199219 141.546875 465.199219 C 136.214844 465.199219 131.894531 460.878906 131.894531 455.546875 C 131.894531 450.214844 136.214844 445.894531 141.546875 445.894531 C 146.878906 445.894531 151.199219 450.214844 151.199219 455.546875 "/>
<path style=" stroke:none;fill-rule:nonzero;fill:rgb(100%,84.3%,0%);fill-opacity:1;" d="M 349.078125 208.96875 C 349.078125 214.300781 344.757812 218.621094 339.425781 218.621094 C 334.09375 218.621094 329.773438 214.300781 329.773438 208.96875 C 329.773438 203.636719 334.09375 199.316406 339.425781 199.316406 C 344.757812 199.316406 349.078125 203.636719 349.078125 208.96875 "/>
<path style=" stroke:none;fill-rule:nonzero;fill:rgb(100%,84.3%,0%);fill-opacity:1;" d="M 347.097656 432.851562 C 347.097656 438.183594 342.773438 442.503906 337.445312 442.503906 C 332.113281 442.503906 327.789062 438.183594 327.789062 432.851562 C 327.789062 427.519531 332.113281 423.199219 337.445312 423.199219 C 342.773438 423.199219 347.097656 427.519531 347.097656 432.851562 "/>
<path style=" stroke:none;fill-rule:nonzero;fill:rgb(100%,84.3%,0%);fill-opacity:1;" d="M 110.863281 454.925781 C 110.863281 460.253906 106.539062 464.578125 101.210938 464.578125 C 95.878906 464.578125 91.554688 460.253906 91.554688 454.925781 C 91.554688 449.59375 95.878906 445.269531 101.210938 445.269531 C 106.539062 445.269531 110.863281 449.59375 110.863281 454.925781 "/>
<path style=" stroke:none;fill-rule:nonzero;fill:rgb(100%,84.3%,0%);fill-opacity:1;" d="M 140.128906 196.324219 C 140.128906 201.65625 135.804688 205.976562 130.476562 205.976562 C 125.144531 205.976562 120.820312 201.65625 120.820312 196.324219 C 120.820312 190.992188 125.144531 186.671875 130.476562 186.671875 C 135.804688 186.671875 140.128906 190.992188 140.128906 196.324219 "/>
<path style=" stroke:none;fill-rule:nonzero;fill:rgb(100%,84.3%,0%);fill-opacity:1;" d="M 273.539062 195.136719 C 273.539062 200.46875 269.214844 204.789062 263.886719 204.789062 C 258.554688 204.789062 254.230469 200.46875 254.230469 195.136719 C 254.230469 189.804688 258.554688 185.484375 263.886719 185.484375 C 269.214844 185.484375 273.539062 189.804688 273.539062 195.136719 "/>
<path style=" stroke:none;fill-rule:nonzero;fill:rgb(100%,84.3%,0%);fill-opacity:1;" d="M 133.320312 293.453125 C 133.320312 298.785156 128.996094 303.109375 123.664062 303.109375 C 118.335938 303.109375 114.011719 298.785156 114.011719 293.453125 C 114.011719 288.125 118.335938 283.800781 123.664062 283.800781 C 128.996094 283.800781 133.320312 288.125 133.320312 293.453125 "/>
<path style=" stroke:none;fill-rule:nonzero;fill:rgb(100%,84.3%,0%);fill-opacity:1;" d="M 364.667969 193.710938 C 364.667969 199.039062 360.347656 203.363281 355.015625 203.363281 C 349.683594 203.363281 345.363281 199.039062 345.363281 193.710938 C 345.363281 188.378906 349.683594 184.054688 355.015625 184.054688 C 360.347656 184.054688 364.667969 188.378906 364.667969 193.710938 "/>
<path style=" stroke:none;fill-rule:nonzero;fill:rgb(100%,84.3%,0%);fill-opacity:1;" d="M 394.121094 195.988281 C 394.121094 201.316406 389.796875 205.640625 384.46875 205.640625 C 379.136719 205.640625 374.8125 201.316406 374.8125 195.988281 C 374.8125 190.65625 379.136719 186.332031 384.46875 186.332031 C 389.796875 186.332031 394.121094 190.65625 394.121094 195.988281 "/>
<path style=" stroke:none;fill-rule:nonzero;fill:rgb(100%,84.3%,0%);fill-opacity:1;" d="M 375.984375 224.980469 C 375.984375 230.308594 371.664062 234.632812 366.332031 234.632812 C 361 234.632812 356.679688 230.308594 356.679688 224.980469 C 356.679688 219.648438 361 215.324219 366.332031 215.324219 C 371.664062 215.324219 375.984375 219.648438 375.984375 224.980469 "/>
<path style=" stroke:none;fill-rule:nonzero;fill:rgb(100%,84.3%,0%);fill-opacity:1;" d="M 98.695312 225.070312 C 98.695312 230.398438 94.375 234.722656 89.042969 234.722656 C 83.710938 234.722656 79.390625 230.398438 79.390625 225.070312 C 79.390625 219.738281 83.710938 215.414062 89.042969 215.414062 C 94.375 215.414062 98.695312 219.738281 98.695312 225.070312 "/>
<path style=" stroke:none;fill-rule:nonzero;fill:rgb(100%,84.3%,0%);fill-opacity:1;" d="M 241.511719 196.671875 C 241.511719 202.003906 237.1875 206.324219 231.855469 206.324219 C 226.527344 206.324219 222.203125 202.003906 222.203125 196.671875 C 222.203125 191.339844 226.527344 187.019531 231.855469 187.019531 C 237.1875 187.019531 241.511719 191.339844 241.511719 196.671875 "/>
<path style=" stroke:none;fill-rule:nonzero;fill:rgb(100%,84.3%,0%);fill-opacity:1;" d="M 428.636719 399.261719 C 428.636719 404.59375 424.3125 408.914062 418.980469 408.914062 C 413.652344 408.914062 409.328125 404.59375 409.328125 399.261719 C 409.328125 393.929688 413.652344 389.609375 418.980469 389.609375 C 424.3125 389.609375 428.636719 393.929688 428.636719 399.261719 "/>
<path style=" stroke:none;fill-rule:nonzero;fill:rgb(100%,84.3%,0%);fill-opacity:1;" d="M 293.589844 192.714844 C 293.589844 198.046875 289.269531 202.367188 283.9375 202.367188 C 278.605469 202.367188 274.285156 198.046875 274.285156 192.714844 C 274.285156 187.382812 278.605469 183.0625 283.9375 183.0625 C 289.269531 183.0625 293.589844 187.382812 293.589844 192.714844 "/>
<path style=" stroke:none;fill-rule:nonzero;fill:rgb(100%,84.3%,0%);fill-opacity:1;" d="M 354.199219 461.710938 C 354.199219 467.042969 349.878906 471.363281 344.546875 471.363281 C 339.214844 471.363281 334.894531 467.042969 334.894531 461.710938 C 334.894531 456.378906 339.214844 452.058594 344.546875 452.058594 C 349.878906 452.058594 354.199219 456.378906 354.199219 461.710938 "/>
<path style=" stroke:none;fill-rule:nonzero;fill:rgb(100%,84.3%,0%);fill-opacity:1;" d="M 72.082031 266.269531 C 72.082031 271.601562 67.757812 275.921875 62.425781 275.921875 C 57.097656 275.921875 52.773438 271.601562 52.773438 266.269531 C 52.773438 260.9375 57.097656 256.617188 62.425781 256.617188 C 67.757812 256.617188 72.082031 260.9375 72.082031 266.269531 "/>
<path style=" stroke:none;fill-rule:nonzero;fill:rgb(100%,84.3%,0%);fill-opacity:1;" d="M 291.660156 229.964844 C 291.660156 235.296875 287.339844 239.617188 282.007812 239.617188 C 276.675781 239.617188 272.355469 235.296875 272.355469 229.964844 C 272.355469 224.632812 276.675781 220.3125 282.007812 220.3125 C 287.339844 220.3125 291.660156 224.632812 291.660156 229.964844 "/>
<path style=" stroke:none;fill-rule:nonzero;fill:rgb(100%,84.3%,0%);fill-opacity:1;" d="M 387.296875 457.757812 C 387.296875 463.089844 382.976562 467.410156 377.644531 467.410156 C 372.3125 467.410156 367.992188 463.089844 367.992188 457.757812 C 367.992188 452.429688 372.3125 448.105469 377.644531 448.105469 C 382.976562 448.105469 387.296875 452.429688 387.296875 457.757812 "/>
<path style=" stroke:none;fill-rule:nonzero;fill:rgb(100%,84.3%,0%);fill-opacity:1;" d="M 452.242188 260.171875 C 452.242188 265.503906 447.921875 269.824219 442.589844 269.824219 C 437.257812 269.824219 432.9375 265.503906 432.9375 260.171875 C 432.9375 254.839844 437.257812 250.519531 442.589844 250.519531 C 447.921875 250.519531 452.242188 254.839844 452.242188 260.171875 "/>
<path style=" stroke:none;fill-rule:nonzero;fill:rgb(100%,84.3%,0%);fill-opacity:1;" d="M 74.390625 247.070312 C 74.390625 252.402344 70.070312 256.726562 64.738281 256.726562 C 59.40625 256.726562 55.085938 252.402344 55.085938 247.070312 C 55.085938 241.742188 59.40625 237.417969 64.738281 237.417969 C 70.070312 237.417969 74.390625 241.742188 74.390625 247.070312 "/>
<path style=" stroke:none;fill-rule:nonzero;fill:rgb(100%,84.3%,0%);fill-opacity:1;" d="M 393.492188 236.289062 C 393.492188 241.621094 389.171875 245.941406 383.839844 245.941406 C 378.507812 245.941406 374.1875 241.621094 374.1875 236.289062 C 374.1875 230.957031 378.507812 226.636719 383.839844 226.636719 C 389.171875 226.636719 393.492188 230.957031 393.492188 236.289062 "/>
<path style=" stroke:none;fill-rule:nonzero;fill:rgb(100%,84.3%,0%);fill-opacity:1;" d="M 304.042969 460.328125 C 304.042969 465.660156 299.722656 469.980469 294.390625 469.980469 C 289.058594 469.980469 284.738281 465.660156 284.738281 460.328125 C 284.738281 454.996094 289.058594 450.675781 294.390625 450.675781 C 299.722656 450.675781 304.042969 454.996094 304.042969 460.328125 "/>
<path style=" stroke:none;fill-rule:nonzero;fill:rgb(100%,84.3%,0%);fill-opacity:1;" d="M 201.988281 215.117188 C 201.988281 220.449219 197.664062 224.769531 192.335938 224.769531 C 187.003906 224.769531 182.679688 220.449219 182.679688 215.117188 C 182.679688 209.785156 187.003906 205.464844 192.335938 205.464844 C 197.664062 205.464844 201.988281 209.785156 201.988281 215.117188 "/>
<path style=" stroke:none;fill-rule:nonzero;fill:rgb(100%,84.3%,0%);fill-opacity:1;" d="M 458.917969 324.878906 C 458.917969 330.210938 454.597656 334.53125 449.265625 334.53125 C 443.933594 334.53125 439.613281 330.210938 439.613281 324.878906 C 439.613281 319.546875 443.933594 315.226562 449.265625 315.226562 C 454.597656 315.226562 458.917969 319.546875 458.917969 324.878906 "/>
<path style=" stroke:none;fill-rule:nonzero;fill:rgb(100%,84.3%,0%);fill-opacity:1;" d="M 81.070312 311.78125 C 81.070312 317.113281 76.746094 321.433594 71.414062 321.433594 C 66.085938 321.433594 61.761719 317.113281 61.761719 311.78125 C 61.761719 306.449219 66.085938 302.128906 71.414062 302.128906 C 76.746094 302.128906 81.070312 306.449219 81.070312 311.78125 "/>
<path style=" stroke:none;fill-rule:nonzero;fill:rgb(100%,84.3%,0%);fill-opacity:1;" d="M 407.550781 450.886719 C 407.550781 456.21875 403.230469 460.539062 397.898438 460.539062 C 392.566406 460.539062 388.246094 456.21875 388.246094 450.886719 C 388.246094 445.554688 392.566406 441.234375 397.898438 441.234375 C 403.230469 441.234375 407.550781 445.554688 407.550781 450.886719 "/>
<path style=" stroke:none;fill-rule:nonzero;fill:rgb(100%,84.3%,0%);fill-opacity:1;" d="M 262.835938 457.671875 C 262.835938 463.003906 258.515625 467.324219 253.183594 467.324219 C 247.851562 467.324219 243.53125 463.003906 243.53125 457.671875 C 243.53125 452.339844 247.851562 448.019531 253.183594 448.019531 C 258.515625 448.019531 262.835938 452.339844 262.835938 457.671875 "/>
<path style=" stroke:none;fill-rule:nonzero;fill:rgb(100%,84.3%,0%);fill-opacity:1;" d="M 455.121094 419.214844 C 455.121094 424.546875 450.800781 428.867188 445.46875 428.867188 C 440.136719 428.867188 435.816406 424.546875 435.816406 419.214844 C 435.816406 413.882812 440.136719 409.5625 445.46875 409.5625 C 450.800781 409.5625 455.121094 413.882812 455.121094 419.214844 "/>
<path style=" stroke:none;fill-rule:nonzero;fill:rgb(100%,84.3%,0%);fill-opacity:1;" d="M 457.640625 363.65625 C 457.640625 368.984375 453.320312 373.308594 447.988281 373.308594 C 442.65625 373.308594 438.335938 368.984375 438.335938 363.65625 C 438.335938 358.324219 442.65625 354 447.988281 354 C 453.320312 354 457.640625 358.324219 457.640625 363.65625 "/>
<path style=" stroke:none;fill-rule:nonzero;fill:rgb(100%,84.3%,0%);fill-opacity:1;" d="M 254.542969 258.964844 C 254.542969 264.292969 250.222656 268.617188 244.890625 268.617188 C 239.558594 268.617188 235.238281 264.292969 235.238281 258.964844 C 235.238281 253.632812 239.558594 249.308594 244.890625 249.308594 C 250.222656 249.308594 254.542969 253.632812 254.542969 258.964844 "/>
<path style=" stroke:none;fill-rule:nonzero;fill:rgb(100%,84.3%,0%);fill-opacity:1;" d="M 241.042969 456.023438 C 241.042969 461.355469 236.722656 465.679688 231.390625 465.679688 C 226.058594 465.679688 221.738281 461.355469 221.738281 456.023438 C 221.738281 450.695312 226.058594 446.371094 231.390625 446.371094 C 236.722656 446.371094 241.042969 450.695312 241.042969 456.023438 "/>
<path style=" stroke:none;fill-rule:nonzero;fill:rgb(100%,84.3%,0%);fill-opacity:1;" d="M 387.953125 257.773438 C 387.953125 263.105469 383.632812 267.429688 378.300781 267.429688 C 372.96875 267.429688 368.648438 263.105469 368.648438 257.773438 C 368.648438 252.445312 372.96875 248.121094 378.300781 248.121094 C 383.632812 248.121094 387.953125 252.445312 387.953125 257.773438 "/>
</g>
</svg>
