<?xml version="1.0" encoding="UTF-8"?>
<svg xmlns="http://www.w3.org/2000/svg" xmlns:xlink="http://www.w3.org/1999/xlink" width="512pt" height="512pt" viewBox="0 0 512 512" version="1.1">
<g id="surface181">
<path style=" stroke:none;fill-rule:nonzero;fill:rgb(26.7%,26.7%,26.7%);fill-opacity:1;" d="M 0 -27.976562 L 480.738281 -27.976562 L 480.738281 512 L 0 512 Z M 0 -27.976562 "/>
<path style=" stroke:none;fill-rule:nonzero;fill:rgb(19.2%,38.8%,66.7%);fill-opacity:1;" d="M 42.667969 306.113281 L 469.332031 306.113281 L 469.332031 493.285156 L 42.667969 493.285156 Z M 42.667969 306.113281 "/>
<path style=" stroke:none;fill-rule:nonzero;fill:rgb(100%,100%,100%);fill-opacity:1;" d="M 19.1875 420.160156 C 19.1875 424.632812 12.476562 424.632812 12.476562 420.160156 C 12.476562 415.6875 19.1875 415.6875 19.1875 420.160156 "/>
<path style=" stroke:none;fill-rule:nonzero;fill:rgb(100%,100%,100%);fill-opacity:1;" d="M 36.628906 86.742188 C 36.628906 91.214844 29.921875 91.214844 29.921875 86.742188 C 29.921875 82.269531 36.628906 82.269531 36.628906 86.742188 "/>
<path style=" stroke:none;fill-rule:nonzero;fill:rgb(100%,100%,100%);fill-opacity:1;" d="M 70.171875 223.597656 C 70.171875 228.070312 63.464844 228.070312 63.464844 223.597656 C 63.464844 219.125 70.171875 219.125 70.171875 223.597656 "/>
<path style=" stroke:none;fill-rule:nonzero;fill:rgb(100%,100%,100%);fill-opacity:1;" d="M 423.042969 85.398438 C 423.042969 89.871094 416.335938 89.871094 416.335938 85.398438 C 416.335938 80.925781 423.042969 80.925781 423.042969 85.398438 "/>
<path style=" stroke:none;fill-rule:nonzero;fill:rgb(100%,100%,100%);fill-opacity:1;" d="M 9.792969 118.273438 C 9.792969 122.746094 3.085938 122.746094 3.085938 118.273438 C 3.085938 113.800781 9.792969 113.800781 9.792969 118.273438 "/>
<path style=" stroke:none;fill-rule:nonzero;fill:rgb(100%,100%,100%);fill-opacity:1;" d="M 16.503906 231.648438 C 16.503906 236.121094 9.792969 236.121094 9.792969 231.648438 C 9.792969 227.175781 16.503906 227.175781 16.503906 231.648438 "/>
<path style=" stroke:none;fill-rule:nonzero;fill:rgb(100%,100%,100%);fill-opacity:1;" d="M 95.664062 237.6875 C 95.664062 242.160156 88.957031 242.160156 88.957031 237.6875 C 88.957031 233.214844 95.664062 233.214844 95.664062 237.6875 "/>
<path style=" stroke:none;fill-rule:nonzero;fill:rgb(100%,100%,100%);fill-opacity:1;" d="M 347.238281 190.054688 C 347.238281 194.527344 340.527344 194.527344 340.527344 190.054688 C 340.527344 185.582031 347.238281 185.582031 347.238281 190.054688 "/>
<path style=" stroke:none;fill-rule:nonzero;fill:rgb(100%,100%,100%);fill-opacity:1;" d="M 10.464844 420.160156 C 10.464844 424.632812 3.757812 424.632812 3.757812 420.160156 C 3.757812 415.6875 10.464844 415.6875 10.464844 420.160156 "/>
<path style=" stroke:none;fill-rule:nonzero;fill:rgb(100%,100%,100%);fill-opacity:1;" d="M 31.933594 49.175781 C 31.933594 53.644531 25.226562 53.644531 25.226562 49.175781 C 25.226562 44.703125 31.933594 44.703125 31.933594 49.175781 "/>
<path style=" stroke:none;fill-rule:nonzero;fill:rgb(100%,100%,100%);fill-opacity:1;" d="M 144.636719 46.492188 C 144.636719 50.964844 137.929688 50.964844 137.929688 46.492188 C 137.929688 42.019531 144.636719 42.019531 144.636719 46.492188 "/>
<path style=" stroke:none;fill-rule:nonzero;fill:rgb(100%,100%,100%);fill-opacity:1;" d="M 321.746094 188.714844 C 321.746094 193.183594 315.035156 193.183594 315.035156 188.714844 C 315.035156 184.242188 321.746094 184.242188 321.746094 188.714844 "/>
<path style=" stroke:none;fill-rule:nonzero;fill:rgb(100%,100%,100%);fill-opacity:1;" d="M 319.730469 116.261719 C 319.730469 120.730469 313.023438 120.730469 313.023438 116.261719 C 313.023438 111.789062 319.730469 111.789062 319.730469 116.261719 "/>
<path style=" stroke:none;fill-rule:nonzero;fill:rgb(100%,100%,100%);fill-opacity:1;" d="M 345.222656 8.921875 C 345.222656 13.394531 338.515625 13.394531 338.515625 8.921875 C 338.515625 4.449219 345.222656 4.449219 345.222656 8.921875 "/>
<path style=" stroke:none;fill-rule:nonzero;fill:rgb(100%,100%,100%);fill-opacity:1;" d="M 153.359375 268.546875 C 153.359375 273.015625 146.648438 273.015625 146.648438 268.546875 C 146.648438 264.074219 153.359375 264.074219 153.359375 268.546875 "/>
<path style=" stroke:none;fill-rule:nonzero;fill:rgb(100%,100%,100%);fill-opacity:1;" d="M 482.078125 508.714844 C 482.078125 513.183594 475.371094 513.183594 475.371094 508.714844 C 475.371094 504.242188 482.078125 504.242188 482.078125 508.714844 "/>
<path style=" stroke:none;fill-rule:nonzero;fill:rgb(100%,100%,100%);fill-opacity:1;" d="M 232.519531 251.101562 C 232.519531 255.574219 225.8125 255.574219 225.8125 251.101562 C 225.8125 246.628906 232.519531 246.628906 232.519531 251.101562 "/>
<path style=" stroke:none;fill-rule:nonzero;fill:rgb(100%,100%,100%);fill-opacity:1;" d="M 361.996094 237.6875 C 361.996094 242.160156 355.289062 242.160156 355.289062 237.6875 C 355.289062 233.214844 361.996094 233.214844 361.996094 237.6875 "/>
<path style=" stroke:none;fill-rule:nonzero;fill:rgb(100%,100%,100%);fill-opacity:1;" d="M 292.226562 242.382812 C 292.226562 246.855469 285.519531 246.855469 285.519531 242.382812 C 285.519531 237.910156 292.226562 237.910156 292.226562 242.382812 "/>
<path style=" stroke:none;fill-rule:nonzero;fill:rgb(100%,100%,100%);fill-opacity:1;" d="M 429.753906 239.027344 C 429.753906 243.5 423.042969 243.5 423.042969 239.027344 C 423.042969 234.554688 429.753906 234.554688 429.753906 239.027344 "/>
<path style=" stroke:none;fill-rule:nonzero;fill:rgb(100%,100%,100%);fill-opacity:1;" d="M 439.816406 109.550781 C 439.816406 114.023438 433.105469 114.023438 433.105469 109.550781 C 433.105469 105.078125 439.816406 105.078125 439.816406 109.550781 "/>
<path style=" stroke:none;fill-rule:nonzero;fill:rgb(100%,100%,100%);fill-opacity:1;" d="M 226.480469 253.785156 C 226.480469 258.257812 219.773438 258.257812 219.773438 253.785156 C 219.773438 249.3125 226.480469 249.3125 226.480469 253.785156 "/>
<path style=" stroke:none;fill-rule:nonzero;fill:rgb(100%,100%,100%);fill-opacity:1;" d="M 198.976562 259.824219 C 198.976562 264.296875 192.269531 264.296875 192.269531 259.824219 C 192.269531 255.351562 198.976562 255.351562 198.976562 259.824219 "/>
<path style=" stroke:none;fill-rule:nonzero;fill:rgb(100%,100%,100%);fill-opacity:1;" d="M 444.511719 40.453125 C 444.511719 44.925781 437.800781 44.925781 437.800781 40.453125 C 437.800781 35.980469 444.511719 35.980469 444.511719 40.453125 "/>
<path style=" stroke:none;fill-rule:nonzero;fill:rgb(100%,100%,100%);fill-opacity:1;" d="M 283.503906 115.589844 C 283.503906 120.0625 276.796875 120.0625 276.796875 115.589844 C 276.796875 111.117188 283.503906 111.117188 283.503906 115.589844 "/>
<path style=" stroke:none;fill-rule:nonzero;fill:rgb(100%,100%,100%);fill-opacity:1;" d="M 472.015625 504.6875 C 472.015625 509.160156 465.308594 509.160156 465.308594 504.6875 C 465.308594 500.214844 472.015625 500.214844 472.015625 504.6875 "/>
<path style=" stroke:none;fill-rule:nonzero;fill:rgb(100%,100%,100%);fill-opacity:1;" d="M 180.191406 36.429688 C 180.191406 40.902344 173.484375 40.902344 173.484375 36.429688 C 173.484375 31.957031 180.191406 31.957031 180.191406 36.429688 "/>
<path style=" stroke:none;fill-rule:nonzero;fill:rgb(100%,100%,100%);fill-opacity:1;" d="M 253.316406 192.738281 C 253.316406 197.210938 246.609375 197.210938 246.609375 192.738281 C 246.609375 188.265625 253.316406 188.265625 253.316406 192.738281 "/>
<path style=" stroke:none;fill-rule:nonzero;fill:rgb(100%,100%,100%);fill-opacity:1;" d="M 72.855469 80.703125 C 72.855469 85.175781 66.148438 85.175781 66.148438 80.703125 C 66.148438 76.230469 72.855469 76.230469 72.855469 80.703125 "/>
<path style=" stroke:none;fill-rule:nonzero;fill:rgb(100%,100%,100%);fill-opacity:1;" d="M 417.007812 237.015625 C 417.007812 241.488281 410.296875 241.488281 410.296875 237.015625 C 410.296875 232.542969 417.007812 232.542969 417.007812 237.015625 "/>
<path style=" stroke:none;fill-rule:nonzero;fill:rgb(100%,100%,100%);fill-opacity:1;" d="M 350.589844 45.148438 C 350.589844 49.621094 343.882812 49.621094 343.882812 45.148438 C 343.882812 40.675781 350.589844 40.675781 350.589844 45.148438 "/>
<path style=" stroke:none;fill-rule:nonzero;fill:rgb(100%,100%,100%);fill-opacity:1;" d="M 181.535156 214.203125 C 181.535156 218.675781 174.824219 218.675781 174.824219 214.203125 C 174.824219 209.734375 181.535156 209.734375 181.535156 214.203125 "/>
<path style=" stroke:none;fill-rule:nonzero;fill:rgb(100%,100%,100%);fill-opacity:1;" d="M 154.03125 151.816406 C 154.03125 156.289062 147.320312 156.289062 147.320312 151.816406 C 147.320312 147.34375 154.03125 147.34375 154.03125 151.816406 "/>
<path style=" stroke:none;fill-rule:nonzero;fill:rgb(100%,100%,100%);fill-opacity:1;" d="M 82.917969 36.429688 C 82.917969 40.902344 76.210938 40.902344 76.210938 36.429688 C 76.210938 31.957031 82.917969 31.957031 82.917969 36.429688 "/>
<path style=" stroke:none;fill-rule:nonzero;fill:rgb(100%,100%,100%);fill-opacity:1;" d="M 372.730469 511.394531 C 372.730469 515.867188 366.019531 515.867188 366.019531 511.394531 C 366.019531 506.921875 372.730469 506.921875 372.730469 511.394531 "/>
<path style=" stroke:none;fill-rule:nonzero;fill:rgb(100%,100%,100%);fill-opacity:1;" d="M 401.578125 208.839844 C 401.578125 213.3125 394.867188 213.3125 394.867188 208.839844 C 394.867188 204.367188 401.578125 204.367188 401.578125 208.839844 "/>
<path style=" stroke:none;fill-rule:nonzero;fill:rgb(100%,100%,100%);fill-opacity:1;" d="M 373.398438 171.269531 C 373.398438 175.742188 366.691406 175.742188 366.691406 171.269531 C 366.691406 166.796875 373.398438 166.796875 373.398438 171.269531 "/>
<path style=" stroke:none;fill-rule:nonzero;fill:rgb(100%,100%,100%);fill-opacity:1;" d="M 388.160156 116.929688 C 388.160156 121.402344 381.449219 121.402344 381.449219 116.929688 C 381.449219 112.457031 388.160156 112.457031 388.160156 116.929688 "/>
<path style=" stroke:none;fill-rule:nonzero;fill:rgb(100%,100%,100%);fill-opacity:1;" d="M 394.867188 170.601562 C 394.867188 175.074219 388.160156 175.074219 388.160156 170.601562 C 388.160156 166.128906 394.867188 166.128906 394.867188 170.601562 "/>
<path style=" stroke:none;fill-rule:nonzero;fill:rgb(100%,100%,100%);fill-opacity:1;" d="M 103.714844 10.933594 C 103.714844 15.40625 97.007812 15.40625 97.007812 10.933594 C 97.007812 6.460938 103.714844 6.460938 103.714844 10.933594 "/>
<path style=" stroke:none;fill-rule:nonzero;fill:rgb(100%,100%,100%);fill-opacity:1;" d="M 21.199219 338.984375 C 21.199219 343.457031 14.492188 343.457031 14.492188 338.984375 C 14.492188 334.511719 21.199219 334.511719 21.199219 338.984375 "/>
<path style=" stroke:none;fill-rule:nonzero;fill:rgb(100%,100%,100%);fill-opacity:1;" d="M 3.085938 470.472656 C 3.085938 474.945312 -3.621094 474.945312 -3.621094 470.472656 C -3.621094 466 3.085938 466 3.085938 470.472656 "/>
<path style=" stroke:none;fill-rule:nonzero;fill:rgb(100%,100%,100%);fill-opacity:1;" d="M 203.671875 120.957031 C 203.671875 125.429688 196.964844 125.429688 196.964844 120.957031 C 196.964844 116.484375 203.671875 116.484375 203.671875 120.957031 "/>
<path style=" stroke:none;fill-rule:nonzero;fill:rgb(100%,100%,100%);fill-opacity:1;" d="M 185.558594 190.054688 C 185.558594 194.527344 178.851562 194.527344 178.851562 190.054688 C 178.851562 185.582031 185.558594 185.582031 185.558594 190.054688 "/>
<path style=" stroke:none;fill-rule:nonzero;fill:rgb(100%,100%,100%);fill-opacity:1;" d="M 424.386719 85.398438 C 424.386719 89.871094 417.675781 89.871094 417.675781 85.398438 C 417.675781 80.925781 424.386719 80.925781 424.386719 85.398438 "/>
<path style=" stroke:none;fill-rule:nonzero;fill:rgb(100%,100%,100%);fill-opacity:1;" d="M 64.132812 277.9375 C 64.132812 282.410156 57.425781 282.410156 57.425781 277.9375 C 57.425781 273.464844 64.132812 273.464844 64.132812 277.9375 "/>
<path style=" stroke:none;fill-rule:nonzero;fill:rgb(100%,100%,100%);fill-opacity:1;" d="M 394.867188 245.734375 C 394.867188 250.207031 388.160156 250.207031 388.160156 245.734375 C 388.160156 241.261719 394.867188 241.261719 394.867188 245.734375 "/>
<path style=" stroke:none;fill-rule:nonzero;fill:rgb(100%,100%,100%);fill-opacity:1;" d="M 476.710938 238.355469 C 476.710938 242.828125 470.003906 242.828125 470.003906 238.355469 C 470.003906 233.882812 476.710938 233.882812 476.710938 238.355469 "/>
<path style=" stroke:none;fill-rule:nonzero;fill:rgb(100%,100%,100%);fill-opacity:1;" d="M 425.054688 295.378906 C 425.054688 299.851562 418.347656 299.851562 418.347656 295.378906 C 418.347656 290.90625 425.054688 290.90625 425.054688 295.378906 "/>
<path style=" stroke:none;fill-rule:nonzero;fill:rgb(100%,100%,100%);fill-opacity:1;" d="M 455.917969 133.703125 C 455.917969 138.175781 449.207031 138.175781 449.207031 133.703125 C 449.207031 129.230469 455.917969 129.230469 455.917969 133.703125 "/>
<path style=" stroke:none;fill-rule:nonzero;fill:rgb(100%,100%,100%);fill-opacity:1;" d="M 85.601562 291.355469 C 85.601562 295.828125 78.894531 295.828125 78.894531 291.355469 C 78.894531 286.882812 85.601562 286.882812 85.601562 291.355469 "/>
<path style=" stroke:none;fill-rule:nonzero;fill:rgb(100%,100%,100%);fill-opacity:1;" d="M 221.785156 288 C 221.785156 292.472656 215.078125 292.472656 215.078125 288 C 215.078125 283.527344 221.785156 283.527344 221.785156 288 "/>
<path style=" stroke:none;fill-rule:nonzero;fill:rgb(100%,100%,100%);fill-opacity:1;" d="M 47.363281 77.351562 C 47.363281 81.824219 40.652344 81.824219 40.652344 77.351562 C 40.652344 72.878906 47.363281 72.878906 47.363281 77.351562 "/>
<path style=" stroke:none;fill-rule:nonzero;fill:rgb(100%,100%,100%);fill-opacity:1;" d="M 19.1875 207.496094 C 19.1875 211.96875 12.476562 211.96875 12.476562 207.496094 C 12.476562 203.023438 19.1875 203.023438 19.1875 207.496094 "/>
<path style=" stroke:none;fill-rule:nonzero;fill:rgb(100%,100%,100%);fill-opacity:1;" d="M 247.949219 180.660156 C 247.949219 185.132812 241.242188 185.132812 241.242188 180.660156 C 241.242188 176.191406 247.949219 176.191406 247.949219 180.660156 "/>
<path style=" stroke:none;fill-rule:nonzero;fill:rgb(100%,100%,100%);fill-opacity:1;" d="M 80.90625 493.953125 C 80.90625 498.425781 74.195312 498.425781 74.195312 493.953125 C 74.195312 489.480469 80.90625 489.480469 80.90625 493.953125 "/>
<path style=" stroke:none;fill-rule:nonzero;fill:rgb(100%,100%,100%);fill-opacity:1;" d="M 216.417969 58.566406 C 216.417969 63.039062 209.710938 63.039062 209.710938 58.566406 C 209.710938 54.09375 216.417969 54.09375 216.417969 58.566406 "/>
<path style=" stroke:none;fill-rule:nonzero;fill:rgb(100%,100%,100%);fill-opacity:1;" d="M 269.417969 171.269531 C 269.417969 175.742188 262.707031 175.742188 262.707031 171.269531 C 262.707031 166.796875 269.417969 166.796875 269.417969 171.269531 "/>
<path style=" stroke:none;fill-rule:nonzero;fill:rgb(100%,100%,100%);fill-opacity:1;" d="M 64.132812 56.554688 C 64.132812 61.027344 57.425781 61.027344 57.425781 56.554688 C 57.425781 52.082031 64.132812 52.082031 64.132812 56.554688 "/>
<path style=" stroke:none;fill-rule:nonzero;fill:rgb(100%,100%,100%);fill-opacity:1;" d="M 213.066406 182.675781 C 213.066406 187.148438 206.355469 187.148438 206.355469 182.675781 C 206.355469 178.203125 213.066406 178.203125 213.066406 182.675781 "/>
<path style=" stroke:none;fill-rule:nonzero;fill:rgb(100%,100%,100%);fill-opacity:1;" d="M 113.105469 508.042969 C 113.105469 512.515625 106.398438 512.515625 106.398438 508.042969 C 106.398438 503.570312 113.105469 503.570312 113.105469 508.042969 "/>
<path style=" stroke:none;fill-rule:nonzero;fill:rgb(100%,100%,100%);fill-opacity:1;" d="M 309.667969 102.171875 C 309.667969 106.644531 302.960938 106.644531 302.960938 102.171875 C 302.960938 97.699219 309.667969 97.699219 309.667969 102.171875 "/>
<path style=" stroke:none;fill-rule:nonzero;fill:rgb(100%,100%,100%);fill-opacity:1;" d="M 429.082031 209.507812 C 429.082031 213.980469 422.371094 213.980469 422.371094 209.507812 C 422.371094 205.035156 429.082031 205.035156 429.082031 209.507812 "/>
<path style=" stroke:none;fill-rule:nonzero;fill:rgb(100%,100%,100%);fill-opacity:1;" d="M 398.222656 288.671875 C 398.222656 293.144531 391.515625 293.144531 391.515625 288.671875 C 391.515625 284.199219 398.222656 284.199219 398.222656 288.671875 "/>
<path style=" stroke:none;fill-rule:nonzero;fill:rgb(100%,100%,100%);fill-opacity:1;" d="M 240.570312 224.9375 C 240.570312 229.410156 233.863281 229.410156 233.863281 224.9375 C 233.863281 220.464844 240.570312 220.464844 240.570312 224.9375 "/>
<path style=" stroke:none;fill-rule:nonzero;fill:rgb(100%,100%,100%);fill-opacity:1;" d="M 345.894531 27.707031 C 345.894531 32.179688 339.1875 32.179688 339.1875 27.707031 C 339.1875 23.234375 345.894531 23.234375 345.894531 27.707031 "/>
<path style=" stroke:none;fill-rule:nonzero;fill:rgb(100%,100%,100%);fill-opacity:1;" d="M 35.957031 246.40625 C 35.957031 250.878906 29.25 250.878906 29.25 246.40625 C 29.25 241.933594 35.957031 241.933594 35.957031 246.40625 "/>
<path style=" stroke:none;fill-rule:nonzero;fill:rgb(100%,100%,100%);fill-opacity:1;" d="M 73.527344 -1.140625 C 73.527344 3.332031 66.816406 3.332031 66.816406 -1.140625 C 66.816406 -5.613281 73.527344 -5.613281 73.527344 -1.140625 "/>
<path style=" stroke:none;fill-rule:nonzero;fill:rgb(100%,100%,100%);fill-opacity:1;" d="M 481.410156 487.246094 C 481.410156 491.71875 474.699219 491.71875 474.699219 487.246094 C 474.699219 482.773438 481.410156 482.773438 481.410156 487.246094 "/>
<path style=" stroke:none;fill-rule:nonzero;fill:rgb(100%,100%,100%);fill-opacity:1;" d="M 18.515625 439.613281 C 18.515625 444.085938 11.808594 444.085938 11.808594 439.613281 C 11.808594 435.140625 18.515625 435.140625 18.515625 439.613281 "/>
<path style=" stroke:none;fill-rule:nonzero;fill:rgb(100%,100%,100%);fill-opacity:1;" d="M 355.957031 38.441406 C 355.957031 42.914062 349.25 42.914062 349.25 38.441406 C 349.25 33.96875 355.957031 33.96875 355.957031 38.441406 "/>
<path style=" stroke:none;fill-rule:nonzero;fill:rgb(100%,100%,100%);fill-opacity:1;" d="M 101.03125 139.738281 C 101.03125 144.210938 94.324219 144.210938 94.324219 139.738281 C 94.324219 135.269531 101.03125 135.269531 101.03125 139.738281 "/>
<path style=" stroke:none;fill-rule:nonzero;fill:rgb(100%,100%,100%);fill-opacity:1;" d="M 37.300781 336.972656 C 37.300781 341.445312 30.589844 341.445312 30.589844 336.972656 C 30.589844 332.5 37.300781 332.5 37.300781 336.972656 "/>
<path style=" stroke:none;fill-rule:nonzero;fill:rgb(100%,100%,100%);fill-opacity:1;" d="M 109.082031 214.875 C 109.082031 219.347656 102.371094 219.347656 102.371094 214.875 C 102.371094 210.402344 109.082031 210.402344 109.082031 214.875 "/>
<path style=" stroke:none;fill-rule:nonzero;fill:rgb(100%,100%,100%);fill-opacity:1;" d="M 139.269531 275.253906 C 139.269531 279.726562 132.5625 279.726562 132.5625 275.253906 C 132.5625 270.78125 139.269531 270.78125 139.269531 275.253906 "/>
<path style=" stroke:none;fill-rule:nonzero;fill:rgb(100%,100%,100%);fill-opacity:1;" d="M 264.050781 224.269531 C 264.050781 228.742188 257.339844 228.742188 257.339844 224.269531 C 257.339844 219.796875 264.050781 219.796875 264.050781 224.269531 "/>
<path style=" stroke:none;fill-rule:nonzero;fill:rgb(100%,100%,100%);fill-opacity:1;" d="M 237.886719 2.214844 C 237.886719 6.6875 231.175781 6.6875 231.175781 2.214844 C 231.175781 -2.257812 237.886719 -2.257812 237.886719 2.214844 "/>
<path style=" stroke:none;fill-rule:nonzero;fill:rgb(100%,100%,100%);fill-opacity:1;" d="M 162.078125 143.09375 C 162.078125 147.566406 155.371094 147.566406 155.371094 143.09375 C 155.371094 138.621094 162.078125 138.621094 162.078125 143.09375 "/>
<path style=" stroke:none;fill-rule:nonzero;fill:rgb(100%,100%,100%);fill-opacity:1;" d="M 35.957031 210.179688 C 35.957031 214.652344 29.25 214.652344 29.25 210.179688 C 29.25 205.707031 35.957031 205.707031 35.957031 210.179688 "/>
<path style=" stroke:none;fill-rule:nonzero;fill:rgb(100%,100%,100%);fill-opacity:1;" d="M 167.445312 106.195312 C 167.445312 110.667969 160.738281 110.667969 160.738281 106.195312 C 160.738281 101.722656 167.445312 101.722656 167.445312 106.195312 "/>
<path style=" stroke:none;fill-rule:nonzero;fill:rgb(100%,100%,100%);fill-opacity:1;" d="M 8.453125 510.054688 C 8.453125 514.527344 1.746094 514.527344 1.746094 510.054688 C 1.746094 505.582031 8.453125 505.582031 8.453125 510.054688 "/>
<path style=" stroke:none;fill-rule:nonzero;fill:rgb(100%,100%,100%);fill-opacity:1;" d="M 376.753906 224.9375 C 376.753906 229.410156 370.046875 229.410156 370.046875 224.9375 C 370.046875 220.464844 376.753906 220.464844 376.753906 224.9375 "/>
<path style=" stroke:none;fill-rule:nonzero;fill:rgb(100%,100%,100%);fill-opacity:1;" d="M 59.4375 222.257812 C 59.4375 226.726562 52.730469 226.726562 52.730469 222.257812 C 52.730469 217.785156 59.4375 217.785156 59.4375 222.257812 "/>
<path style=" stroke:none;fill-rule:nonzero;fill:rgb(100%,100%,100%);fill-opacity:1;" d="M 107.070312 16.300781 C 107.070312 20.773438 100.359375 20.773438 100.359375 16.300781 C 100.359375 11.828125 107.070312 11.828125 107.070312 16.300781 "/>
<path style=" stroke:none;fill-rule:nonzero;fill:rgb(100%,100%,100%);fill-opacity:1;" d="M 182.207031 126.992188 C 182.207031 131.464844 175.496094 131.464844 175.496094 126.992188 C 175.496094 122.523438 182.207031 122.523438 182.207031 126.992188 "/>
<path style=" stroke:none;fill-rule:nonzero;fill:rgb(100%,100%,100%);fill-opacity:1;" d="M 27.90625 451.019531 C 27.90625 455.492188 21.199219 455.492188 21.199219 451.019531 C 21.199219 446.546875 27.90625 446.546875 27.90625 451.019531 "/>
<path style=" stroke:none;fill-rule:nonzero;fill:rgb(100%,100%,100%);fill-opacity:1;" d="M 288.871094 24.351562 C 288.871094 28.824219 282.164062 28.824219 282.164062 24.351562 C 282.164062 19.878906 288.871094 19.878906 288.871094 24.351562 "/>
<path style=" stroke:none;fill-rule:nonzero;fill:rgb(100%,84.3%,0%);fill-opacity:1;" d="M 58.527344 453.636719 C 58.527344 458.105469 51.820312 458.105469 51.820312 453.636719 C 51.820312 449.164062 58.527344 449.164062 58.527344 453.636719 "/>
<path style=" stroke:none;fill-rule:nonzero;fill:rgb(100%,84.3%,0%);fill-opacity:1;" d="M 197.917969 314.835938 C 197.917969 319.304688 191.207031 319.304688 191.207031 314.835938 C 191.207031 310.363281 197.917969 310.363281 197.917969 314.835938 "/>
<path style=" stroke:none;fill-rule:nonzero;fill:rgb(100%,84.3%,0%);fill-opacity:1;" d="M 137.488281 485.738281 C 137.488281 490.210938 130.78125 490.210938 130.78125 485.738281 C 130.78125 481.269531 137.488281 481.269531 137.488281 485.738281 "/>
<path style=" stroke:none;fill-rule:nonzero;fill:rgb(100%,84.3%,0%);fill-opacity:1;" d="M 230.84375 329.539062 C 230.84375 334.011719 224.132812 334.011719 224.132812 329.539062 C 224.132812 325.066406 230.84375 325.066406 230.84375 329.539062 "/>
<path style=" stroke:none;fill-rule:nonzero;fill:rgb(100%,84.3%,0%);fill-opacity:1;" d="M 446.101562 485.433594 C 446.101562 489.90625 439.394531 489.90625 439.394531 485.433594 C 439.394531 480.960938 446.101562 480.960938 446.101562 485.433594 "/>
<path style=" stroke:none;fill-rule:nonzero;fill:rgb(100%,84.3%,0%);fill-opacity:1;" d="M 333.484375 322.242188 C 333.484375 326.714844 326.777344 326.714844 326.777344 322.242188 C 326.777344 317.769531 333.484375 317.769531 333.484375 322.242188 "/>
<path style=" stroke:none;fill-rule:nonzero;fill:rgb(100%,84.3%,0%);fill-opacity:1;" d="M 456.691406 337.582031 C 456.691406 342.054688 449.984375 342.054688 449.984375 337.582031 C 449.984375 333.109375 456.691406 333.109375 456.691406 337.582031 "/>
<path style=" stroke:none;fill-rule:nonzero;fill:rgb(100%,84.3%,0%);fill-opacity:1;" d="M 80.355469 411.617188 C 80.355469 416.089844 73.648438 416.089844 73.648438 411.617188 C 73.648438 407.148438 80.355469 407.148438 80.355469 411.617188 "/>
<path style=" stroke:none;fill-rule:nonzero;fill:rgb(100%,84.3%,0%);fill-opacity:1;" d="M 465.359375 348.203125 C 465.359375 352.675781 458.652344 352.675781 458.652344 348.203125 C 458.652344 343.730469 465.359375 343.730469 465.359375 348.203125 "/>
<path style=" stroke:none;fill-rule:nonzero;fill:rgb(100%,84.3%,0%);fill-opacity:1;" d="M 60.585938 364.875 C 60.585938 369.347656 53.875 369.347656 53.875 364.875 C 53.875 360.402344 60.585938 360.402344 60.585938 364.875 "/>
<path style=" stroke:none;fill-rule:nonzero;fill:rgb(100%,84.3%,0%);fill-opacity:1;" d="M 252.800781 333.535156 C 252.800781 338.007812 246.09375 338.007812 246.09375 333.535156 C 246.09375 329.0625 252.800781 329.0625 252.800781 333.535156 "/>
<path style=" stroke:none;fill-rule:nonzero;fill:rgb(100%,84.3%,0%);fill-opacity:1;" d="M 441.632812 313.316406 C 441.632812 317.789062 434.921875 317.789062 434.921875 313.316406 C 434.921875 308.84375 441.632812 308.84375 441.632812 313.316406 "/>
<path style=" stroke:none;fill-rule:nonzero;fill:rgb(100%,84.3%,0%);fill-opacity:1;" d="M 431.871094 313.808594 C 431.871094 318.28125 425.164062 318.28125 425.164062 313.808594 C 425.164062 309.335938 431.871094 309.335938 431.871094 313.808594 "/>
<path style=" stroke:none;fill-rule:nonzero;fill:rgb(100%,84.3%,0%);fill-opacity:1;" d="M 110.777344 473.402344 C 110.777344 477.875 104.066406 477.875 104.066406 473.402344 C 104.066406 468.929688 110.777344 468.929688 110.777344 473.402344 "/>
<path style=" stroke:none;fill-rule:nonzero;fill:rgb(100%,84.3%,0%);fill-opacity:1;" d="M 131.46875 477.238281 C 131.46875 481.710938 124.761719 481.710938 124.761719 477.238281 C 124.761719 472.765625 131.46875 472.765625 131.46875 477.238281 "/>
<path style=" stroke:none;fill-rule:nonzero;fill:rgb(100%,84.3%,0%);fill-opacity:1;" d="M 398.90625 313.242188 C 398.90625 317.714844 392.195312 317.714844 392.195312 313.242188 C 392.195312 308.769531 398.90625 308.769531 398.90625 313.242188 "/>
<path style=" stroke:none;fill-rule:nonzero;fill:rgb(100%,84.3%,0%);fill-opacity:1;" d="M 53.664062 337.828125 C 53.664062 342.300781 46.957031 342.300781 46.957031 337.828125 C 46.957031 333.359375 53.664062 333.359375 53.664062 337.828125 "/>
<path style=" stroke:none;fill-rule:nonzero;fill:rgb(100%,84.3%,0%);fill-opacity:1;" d="M 71.285156 324.664062 C 71.285156 329.136719 64.574219 329.136719 64.574219 324.664062 C 64.574219 320.195312 71.285156 320.195312 71.285156 324.664062 "/>
<path style=" stroke:none;fill-rule:nonzero;fill:rgb(100%,84.3%,0%);fill-opacity:1;" d="M 53.054688 417.515625 C 53.054688 421.988281 46.34375 421.988281 46.34375 417.515625 C 46.34375 413.042969 53.054688 413.042969 53.054688 417.515625 "/>
<path style=" stroke:none;fill-rule:nonzero;fill:rgb(100%,84.3%,0%);fill-opacity:1;" d="M 222.957031 315.320312 C 222.957031 319.792969 216.25 319.792969 216.25 315.320312 C 216.25 310.847656 222.957031 310.847656 222.957031 315.320312 "/>
<path style=" stroke:none;fill-rule:nonzero;fill:rgb(100%,84.3%,0%);fill-opacity:1;" d="M 117.734375 486.398438 C 117.734375 490.871094 111.027344 490.871094 111.027344 486.398438 C 111.027344 481.925781 117.734375 481.925781 117.734375 486.398438 "/>
<path style=" stroke:none;fill-rule:nonzero;fill:rgb(100%,84.3%,0%);fill-opacity:1;" d="M 323.3125 331.644531 C 323.3125 336.117188 316.605469 336.117188 316.605469 331.644531 C 316.605469 327.171875 323.3125 327.171875 323.3125 331.644531 "/>
<path style=" stroke:none;fill-rule:nonzero;fill:rgb(100%,84.3%,0%);fill-opacity:1;" d="M 156.933594 318.765625 C 156.933594 323.238281 150.226562 323.238281 150.226562 318.765625 C 150.226562 314.292969 156.933594 314.292969 156.933594 318.765625 "/>
<path style=" stroke:none;fill-rule:nonzero;fill:rgb(100%,84.3%,0%);fill-opacity:1;" d="M 465.175781 313.226562 C 465.175781 317.699219 458.46875 317.699219 458.46875 313.226562 C 458.46875 308.753906 465.175781 308.753906 465.175781 313.226562 "/>
<path style=" stroke:none;fill-rule:nonzero;fill:rgb(100%,84.3%,0%);fill-opacity:1;" d="M 65.882812 345.507812 C 65.882812 349.980469 59.171875 349.980469 59.171875 345.507812 C 59.171875 341.035156 65.882812 341.035156 65.882812 345.507812 "/>
<path style=" stroke:none;fill-rule:nonzero;fill:rgb(100%,84.3%,0%);fill-opacity:1;" d="M 341.683594 482.261719 C 341.683594 486.734375 334.972656 486.734375 334.972656 482.261719 C 334.972656 477.789062 341.683594 477.789062 341.683594 482.261719 "/>
<path style=" stroke:none;fill-rule:nonzero;fill:rgb(100%,84.3%,0%);fill-opacity:1;" d="M 375.929688 486.265625 C 375.929688 490.738281 369.222656 490.738281 369.222656 486.265625 C 369.222656 481.792969 375.929688 481.792969 375.929688 486.265625 "/>
<path style=" stroke:none;fill-rule:nonzero;fill:rgb(100%,84.3%,0%);fill-opacity:1;" d="M 312.402344 483.742188 C 312.402344 488.214844 305.695312 488.214844 305.695312 483.742188 C 305.695312 479.269531 312.402344 479.269531 312.402344 483.742188 "/>
<path style=" stroke:none;fill-rule:nonzero;fill:rgb(100%,84.3%,0%);fill-opacity:1;" d="M 153.492188 340.746094 C 153.492188 345.21875 146.78125 345.21875 146.78125 340.746094 C 146.78125 336.273438 153.492188 336.273438 153.492188 340.746094 "/>
<path style=" stroke:none;fill-rule:nonzero;fill:rgb(100%,84.3%,0%);fill-opacity:1;" d="M 62.902344 477.171875 C 62.902344 481.644531 56.195312 481.644531 56.195312 477.171875 C 56.195312 472.699219 62.902344 472.699219 62.902344 477.171875 "/>
<path style=" stroke:none;fill-rule:nonzero;fill:rgb(100%,84.3%,0%);fill-opacity:1;" d="M 465.894531 470.636719 C 465.894531 475.109375 459.1875 475.109375 459.1875 470.636719 C 459.1875 466.164062 465.894531 466.164062 465.894531 470.636719 "/>
<path style=" stroke:none;fill-rule:nonzero;fill:rgb(100%,84.3%,0%);fill-opacity:1;" d="M 163.578125 315.496094 C 163.578125 319.96875 156.871094 319.96875 156.871094 315.496094 C 156.871094 311.023438 163.578125 311.023438 163.578125 315.496094 "/>
<path style=" stroke:none;fill-rule:nonzero;fill:rgb(100%,84.3%,0%);fill-opacity:1;" d="M 57.5 324.261719 C 57.5 328.734375 50.789062 328.734375 50.789062 324.261719 C 50.789062 319.789062 57.5 319.789062 57.5 324.261719 "/>
<path style=" stroke:none;fill-rule:nonzero;fill:rgb(100%,84.3%,0%);fill-opacity:1;" d="M 301.691406 326.496094 C 301.691406 330.96875 294.984375 330.96875 294.984375 326.496094 C 294.984375 322.027344 301.691406 322.027344 301.691406 326.496094 "/>
<path style=" stroke:none;fill-rule:nonzero;fill:rgb(100%,84.3%,0%);fill-opacity:1;" d="M 66.347656 390.375 C 66.347656 394.847656 59.640625 394.847656 59.640625 390.375 C 59.640625 385.902344 66.347656 385.902344 66.347656 390.375 "/>
<path style=" stroke:none;fill-rule:nonzero;fill:rgb(100%,84.3%,0%);fill-opacity:1;" d="M 57.902344 400.59375 C 57.902344 405.0625 51.195312 405.0625 51.195312 400.59375 C 51.195312 396.121094 57.902344 396.121094 57.902344 400.59375 "/>
<path style=" stroke:none;fill-rule:nonzero;fill:rgb(100%,84.3%,0%);fill-opacity:1;" d="M 173.289062 479.191406 C 173.289062 483.664062 166.578125 483.664062 166.578125 479.191406 C 166.578125 474.71875 173.289062 474.71875 173.289062 479.191406 "/>
<path style=" stroke:none;fill-rule:nonzero;fill:rgb(100%,84.3%,0%);fill-opacity:1;" d="M 342.855469 313.332031 C 342.855469 317.804688 336.148438 317.804688 336.148438 313.332031 C 336.148438 308.859375 342.855469 308.859375 342.855469 313.332031 "/>
<path style=" stroke:none;fill-rule:nonzero;fill:rgb(100%,84.3%,0%);fill-opacity:1;" d="M 62.957031 357.195312 C 62.957031 361.667969 56.246094 361.667969 56.246094 357.195312 C 56.246094 352.722656 62.957031 352.722656 62.957031 357.195312 "/>
<path style=" stroke:none;fill-rule:nonzero;fill:rgb(100%,84.3%,0%);fill-opacity:1;" d="M 387.46875 322.398438 C 387.46875 326.871094 380.757812 326.871094 380.757812 322.398438 C 380.757812 317.925781 387.46875 317.925781 387.46875 322.398438 "/>
<path style=" stroke:none;fill-rule:nonzero;fill:rgb(100%,84.3%,0%);fill-opacity:1;" d="M 410.964844 312.832031 C 410.964844 317.304688 404.253906 317.304688 404.253906 312.832031 C 404.253906 308.359375 410.964844 308.359375 410.964844 312.832031 "/>
<path style=" stroke:none;fill-rule:nonzero;fill:rgb(100%,84.3%,0%);fill-opacity:1;" d="M 55.699219 331.210938 C 55.699219 335.683594 48.988281 335.683594 48.988281 331.210938 C 48.988281 326.738281 55.699219 326.738281 55.699219 331.210938 "/>
<path style=" stroke:none;fill-rule:nonzero;fill:rgb(100%,84.3%,0%);fill-opacity:1;" d="M 323.679688 466.410156 C 323.679688 470.882812 316.972656 470.882812 316.972656 466.410156 C 316.972656 461.9375 323.679688 461.9375 323.679688 466.410156 "/>
<path style=" stroke:none;fill-rule:nonzero;fill:rgb(100%,84.3%,0%);fill-opacity:1;" d="M 253.765625 320.707031 C 253.765625 325.179688 247.058594 325.179688 247.058594 320.707031 C 247.058594 316.234375 253.765625 316.234375 253.765625 320.707031 "/>
<path style=" stroke:none;fill-rule:nonzero;fill:rgb(100%,84.3%,0%);fill-opacity:1;" d="M 290.78125 478.597656 C 290.78125 483.070312 284.074219 483.070312 284.074219 478.597656 C 284.074219 474.125 290.78125 474.125 290.78125 478.597656 "/>
<path style=" stroke:none;fill-rule:nonzero;fill:rgb(100%,84.3%,0%);fill-opacity:1;" d="M 212.824219 484.25 C 212.824219 488.722656 206.117188 488.722656 206.117188 484.25 C 206.117188 479.777344 212.824219 479.777344 212.824219 484.25 "/>
<path style=" stroke:none;fill-rule:nonzero;fill:rgb(100%,84.3%,0%);fill-opacity:1;" d="M 77.464844 320.742188 C 77.464844 325.214844 70.757812 325.214844 70.757812 320.742188 C 70.757812 316.269531 77.464844 316.269531 77.464844 320.742188 "/>
<path style=" stroke:none;fill-rule:nonzero;fill:rgb(100%,84.3%,0%);fill-opacity:1;" d="M 70.894531 316.25 C 70.894531 320.722656 64.1875 320.722656 64.1875 316.25 C 64.1875 311.777344 70.894531 311.777344 70.894531 316.25 "/>
<path style=" stroke:none;fill-rule:nonzero;fill:rgb(100%,84.3%,0%);fill-opacity:1;" d="M 404.78125 316.753906 C 404.78125 321.226562 398.074219 321.226562 398.074219 316.753906 C 398.074219 312.28125 404.78125 312.28125 404.78125 316.753906 "/>
<path style=" stroke:none;fill-rule:nonzero;fill:rgb(100%,84.3%,0%);fill-opacity:1;" d="M 393.617188 485.851562 C 393.617188 490.324219 386.90625 490.324219 386.90625 485.851562 C 386.90625 481.378906 393.617188 481.378906 393.617188 485.851562 "/>
<path style=" stroke:none;fill-rule:nonzero;fill:rgb(100%,84.3%,0%);fill-opacity:1;" d="M 267.859375 313.675781 C 267.859375 318.148438 261.148438 318.148438 261.148438 313.675781 C 261.148438 309.203125 267.859375 309.203125 267.859375 313.675781 "/>
<path style=" stroke:none;fill-rule:nonzero;fill:rgb(100%,84.3%,0%);fill-opacity:1;" d="M 176.257812 323.828125 C 176.257812 328.300781 169.546875 328.300781 169.546875 323.828125 C 169.546875 319.355469 176.257812 319.355469 176.257812 323.828125 "/>
<path style=" stroke:none;fill-rule:nonzero;fill:rgb(100%,84.3%,0%);fill-opacity:1;" d="M 458.53125 316.496094 C 458.53125 320.96875 451.824219 320.96875 451.824219 316.496094 C 451.824219 312.023438 458.53125 312.023438 458.53125 316.496094 "/>
<path style=" stroke:none;fill-rule:nonzero;fill:rgb(100%,84.3%,0%);fill-opacity:1;" d="M 70.199219 379.996094 C 70.199219 384.46875 63.488281 384.46875 63.488281 379.996094 C 63.488281 375.523438 70.199219 375.523438 70.199219 379.996094 "/>
<path style=" stroke:none;fill-rule:nonzero;fill:rgb(100%,84.3%,0%);fill-opacity:1;" d="M 385.425781 479.070312 C 385.425781 483.542969 378.714844 483.542969 378.714844 479.070312 C 378.714844 474.597656 385.425781 474.597656 385.425781 479.070312 "/>
<path style=" stroke:none;fill-rule:nonzero;fill:rgb(100%,84.3%,0%);fill-opacity:1;" d="M 66.199219 470.714844 C 66.199219 475.183594 59.488281 475.183594 59.488281 470.714844 C 59.488281 466.242188 66.199219 466.242188 66.199219 470.714844 "/>
<path style=" stroke:none;fill-rule:nonzero;fill:rgb(100%,84.3%,0%);fill-opacity:1;" d="M 143.808594 312.964844 C 143.808594 317.4375 137.101562 317.4375 137.101562 312.964844 C 137.101562 308.492188 143.808594 308.492188 143.808594 312.964844 "/>
<path style=" stroke:none;fill-rule:nonzero;fill:rgb(100%,84.3%,0%);fill-opacity:1;" d="M 77.703125 474.308594 C 77.703125 478.78125 70.996094 478.78125 70.996094 474.308594 C 70.996094 469.835938 77.703125 469.835938 77.703125 474.308594 "/>
<path style=" stroke:none;fill-rule:nonzero;fill:rgb(100%,84.3%,0%);fill-opacity:1;" d="M 226.039062 485.472656 C 226.039062 489.945312 219.332031 489.945312 219.332031 485.472656 C 219.332031 481 226.039062 481 226.039062 485.472656 "/>
<path style=" stroke:none;fill-rule:nonzero;fill:rgb(100%,84.3%,0%);fill-opacity:1;" d="M 53.0625 441.214844 C 53.0625 445.6875 46.355469 445.6875 46.355469 441.214844 C 46.355469 436.742188 53.0625 436.742188 53.0625 441.214844 "/>
<path style=" stroke:none;fill-rule:nonzero;fill:rgb(100%,84.3%,0%);fill-opacity:1;" d="M 197.15625 474.855469 C 197.15625 479.328125 190.445312 479.328125 190.445312 474.855469 C 190.445312 470.382812 197.15625 470.382812 197.15625 474.855469 "/>
<path style=" stroke:none;fill-rule:nonzero;fill:rgb(100%,84.3%,0%);fill-opacity:1;" d="M 465.25 479.21875 C 465.25 483.691406 458.542969 483.691406 458.542969 479.21875 C 458.542969 474.746094 465.25 474.746094 465.25 479.21875 "/>
<path style=" stroke:none;fill-rule:nonzero;fill:rgb(100%,84.3%,0%);fill-opacity:1;" d="M 75.457031 483.789062 C 75.457031 488.261719 68.746094 488.261719 68.746094 483.789062 C 68.746094 479.320312 75.457031 479.320312 75.457031 483.789062 "/>
<path style=" stroke:none;fill-rule:nonzero;fill:rgb(100%,84.3%,0%);fill-opacity:1;" d="M 146.023438 470.859375 C 146.023438 475.332031 139.316406 475.332031 139.316406 470.859375 C 139.316406 466.386719 146.023438 466.386719 146.023438 470.859375 "/>
<path style=" stroke:none;fill-rule:nonzero;fill:rgb(100%,84.3%,0%);fill-opacity:1;" d="M 242.335938 483.097656 C 242.335938 487.570312 235.628906 487.570312 235.628906 483.097656 C 235.628906 478.625 242.335938 478.625 242.335938 483.097656 "/>
<path style=" stroke:none;fill-rule:nonzero;fill:rgb(100%,84.3%,0%);fill-opacity:1;" d="M 163.03125 472.65625 C 163.03125 477.128906 156.324219 477.128906 156.324219 472.65625 C 156.324219 468.183594 163.03125 468.183594 163.03125 472.65625 "/>
<path style=" stroke:none;fill-rule:nonzero;fill:rgb(100%,84.3%,0%);fill-opacity:1;" d="M 103.613281 313.300781 C 103.613281 317.773438 96.90625 317.773438 96.90625 313.300781 C 96.90625 308.828125 103.613281 308.828125 103.613281 313.300781 "/>
<path style=" stroke:none;fill-rule:nonzero;fill:rgb(100%,84.3%,0%);fill-opacity:1;" d="M 380.203125 316.921875 C 380.203125 321.394531 373.496094 321.394531 373.496094 316.921875 C 373.496094 312.449219 380.203125 312.449219 380.203125 316.921875 "/>
<path style=" stroke:none;fill-rule:nonzero;fill:rgb(100%,84.3%,0%);fill-opacity:1;" d="M 114.710938 478.960938 C 114.710938 483.433594 108.003906 483.433594 108.003906 478.960938 C 108.003906 474.488281 114.710938 474.488281 114.710938 478.960938 "/>
<path style=" stroke:none;fill-rule:nonzero;fill:rgb(100%,84.3%,0%);fill-opacity:1;" d="M 205.628906 317.773438 C 205.628906 322.246094 198.917969 322.246094 198.917969 317.773438 C 198.917969 313.300781 205.628906 313.300781 205.628906 317.773438 "/>
<path style=" stroke:none;fill-rule:nonzero;fill:rgb(100%,84.3%,0%);fill-opacity:1;" d="M 53.875 355.480469 C 53.875 359.953125 47.164062 359.953125 47.164062 355.480469 C 47.164062 351.007812 53.875 351.007812 53.875 355.480469 "/>
<path style=" stroke:none;fill-rule:nonzero;fill:rgb(100%,84.3%,0%);fill-opacity:1;" d="M 61.546875 416.773438 C 61.546875 421.246094 54.839844 421.246094 54.839844 416.773438 C 54.839844 412.300781 61.546875 412.300781 61.546875 416.773438 "/>
<path style=" stroke:none;fill-rule:nonzero;fill:rgb(100%,84.3%,0%);fill-opacity:1;" d="M 231.347656 316.054688 C 231.347656 320.527344 224.636719 320.527344 224.636719 316.054688 C 224.636719 311.582031 231.347656 311.582031 231.347656 316.054688 "/>
<path style=" stroke:none;fill-rule:nonzero;fill:rgb(100%,84.3%,0%);fill-opacity:1;" d="M 371.996094 480.707031 C 371.996094 485.179688 365.289062 485.179688 365.289062 480.707031 C 365.289062 476.234375 371.996094 476.234375 371.996094 480.707031 "/>
<path style=" stroke:none;fill-rule:nonzero;fill:rgb(100%,84.3%,0%);fill-opacity:1;" d="M 67.984375 331.039062 C 67.984375 335.511719 61.277344 335.511719 61.277344 331.039062 C 61.277344 326.566406 67.984375 326.566406 67.984375 331.039062 "/>
<path style=" stroke:none;fill-rule:nonzero;fill:rgb(100%,84.3%,0%);fill-opacity:1;" d="M 277.632812 316.371094 C 277.632812 320.84375 270.925781 320.84375 270.925781 316.371094 C 270.925781 311.898438 277.632812 311.898438 277.632812 316.371094 "/>
<path style=" stroke:none;fill-rule:nonzero;fill:rgb(100%,84.3%,0%);fill-opacity:1;" d="M 124.289062 313.949219 C 124.289062 318.421875 117.582031 318.421875 117.582031 313.949219 C 117.582031 309.480469 124.289062 309.480469 124.289062 313.949219 "/>
<path style=" stroke:none;fill-rule:nonzero;fill:rgb(100%,84.3%,0%);fill-opacity:1;" d="M 363.046875 330.652344 C 363.046875 335.125 356.339844 335.125 356.339844 330.652344 C 356.339844 326.179688 363.046875 326.179688 363.046875 330.652344 "/>
<path style=" stroke:none;fill-rule:nonzero;fill:rgb(100%,84.3%,0%);fill-opacity:1;" d="M 198.074219 322.921875 C 198.074219 327.394531 191.367188 327.394531 191.367188 322.921875 C 191.367188 318.449219 198.074219 318.449219 198.074219 322.921875 "/>
<path style=" stroke:none;fill-rule:nonzero;fill:rgb(100%,84.3%,0%);fill-opacity:1;" d="M 106.355469 484.601562 C 106.355469 489.074219 99.648438 489.074219 99.648438 484.601562 C 99.648438 480.128906 106.355469 480.128906 106.355469 484.601562 "/>
<path style=" stroke:none;fill-rule:nonzero;fill:rgb(100%,84.3%,0%);fill-opacity:1;" d="M 149.933594 319.992188 C 149.933594 324.464844 143.226562 324.464844 143.226562 319.992188 C 143.226562 315.519531 149.933594 315.519531 149.933594 319.992188 "/>
<path style=" stroke:none;fill-rule:nonzero;fill:rgb(100%,84.3%,0%);fill-opacity:1;" d="M 147.925781 483.039062 C 147.925781 487.511719 141.21875 487.511719 141.21875 483.039062 C 141.21875 478.566406 147.925781 478.566406 147.925781 483.039062 "/>
<path style=" stroke:none;fill-rule:nonzero;fill:rgb(100%,84.3%,0%);fill-opacity:1;" d="M 438.871094 486.332031 C 438.871094 490.804688 432.164062 490.804688 432.164062 486.332031 C 432.164062 481.859375 438.871094 481.859375 438.871094 486.332031 "/>
<path style=" stroke:none;fill-rule:nonzero;fill:rgb(100%,84.3%,0%);fill-opacity:1;" d="M 386.152344 486.425781 C 386.152344 490.898438 379.445312 490.898438 379.445312 486.425781 C 379.445312 481.953125 386.152344 481.953125 386.152344 486.425781 "/>
<path style=" stroke:none;fill-rule:nonzero;fill:rgb(100%,84.3%,0%);fill-opacity:1;" d="M 82.671875 479.703125 C 82.671875 484.175781 75.960938 484.175781 75.960938 479.703125 C 75.960938 475.230469 82.671875 475.230469 82.671875 479.703125 "/>
<path style=" stroke:none;fill-rule:nonzero;fill:rgb(100%,84.3%,0%);fill-opacity:1;" d="M 78.820312 425.269531 C 78.820312 429.742188 72.113281 429.742188 72.113281 425.269531 C 72.113281 420.796875 78.820312 420.796875 78.820312 425.269531 "/>
<path style=" stroke:none;fill-rule:nonzero;fill:rgb(100%,84.3%,0%);fill-opacity:1;" d="M 272.378906 321.601562 C 272.378906 326.074219 265.671875 326.074219 265.671875 321.601562 C 265.671875 317.128906 272.378906 317.128906 272.378906 321.601562 "/>
<path style=" stroke:none;fill-rule:nonzero;fill:rgb(100%,84.3%,0%);fill-opacity:1;" d="M 452.996094 485.675781 C 452.996094 490.148438 446.285156 490.148438 446.285156 485.675781 C 446.285156 481.203125 452.996094 481.203125 452.996094 485.675781 "/>
<path style=" stroke:none;fill-rule:nonzero;fill:rgb(100%,84.3%,0%);fill-opacity:1;" d="M 127.496094 485.90625 C 127.496094 490.378906 120.789062 490.378906 120.789062 485.90625 C 120.789062 481.433594 127.496094 481.433594 127.496094 485.90625 "/>
<path style=" stroke:none;fill-rule:nonzero;fill:rgb(100%,84.3%,0%);fill-opacity:1;" d="M 82.953125 315.839844 C 82.953125 320.3125 76.242188 320.3125 76.242188 315.839844 C 76.242188 311.367188 82.953125 311.367188 82.953125 315.839844 "/>
<path style=" stroke:none;fill-rule:nonzero;fill:rgb(100%,84.3%,0%);fill-opacity:1;" d="M 100.125 478.960938 C 100.125 483.433594 93.414062 483.433594 93.414062 478.960938 C 93.414062 474.488281 100.125 474.488281 100.125 478.960938 "/>
<path style=" stroke:none;fill-rule:nonzero;fill:rgb(100%,84.3%,0%);fill-opacity:1;" d="M 68.316406 415.21875 C 68.316406 419.6875 61.609375 419.6875 61.609375 415.21875 C 61.609375 410.746094 68.316406 410.746094 68.316406 415.21875 "/>
<path style=" stroke:none;fill-rule:nonzero;fill:rgb(100%,84.3%,0%);fill-opacity:1;" d="M 243.347656 326.59375 C 243.347656 331.066406 236.640625 331.066406 236.640625 326.59375 C 236.640625 322.121094 243.347656 322.121094 243.347656 326.59375 "/>
<path style=" stroke:none;fill-rule:nonzero;fill:rgb(100%,84.3%,0%);fill-opacity:1;" d="M 85.234375 486.484375 C 85.234375 490.957031 78.523438 490.957031 78.523438 486.484375 C 78.523438 482.011719 85.234375 482.011719 85.234375 486.484375 "/>
<path style=" stroke:none;fill-rule:nonzero;fill:rgb(100%,84.3%,0%);fill-opacity:1;" d="M 87.539062 336.429688 C 87.539062 340.902344 80.832031 340.902344 80.832031 336.429688 C 80.832031 331.957031 87.539062 331.957031 87.539062 336.429688 "/>
<path style=" stroke:none;fill-rule:nonzero;fill:rgb(100%,84.3%,0%);fill-opacity:1;" d="M 465.398438 463.605469 C 465.398438 468.078125 458.691406 468.078125 458.691406 463.605469 C 458.691406 459.132812 465.398438 459.132812 465.398438 463.605469 "/>
<path style=" stroke:none;fill-rule:nonzero;fill:rgb(100%,84.3%,0%);fill-opacity:1;" d="M 56.058594 486.488281 C 56.058594 490.960938 49.351562 490.960938 49.351562 486.488281 C 49.351562 482.019531 56.058594 482.019531 56.058594 486.488281 "/>
<path style=" stroke:none;fill-rule:nonzero;fill:rgb(100%,84.3%,0%);fill-opacity:1;" d="M 152.246094 452.714844 C 152.246094 457.183594 145.535156 457.183594 145.535156 452.714844 C 145.535156 448.242188 152.246094 448.242188 152.246094 452.714844 "/>
<path style=" stroke:none;fill-rule:nonzero;fill:rgb(100%,84.3%,0%);fill-opacity:1;" d="M 56.964844 375.582031 C 56.964844 380.054688 50.257812 380.054688 50.257812 375.582031 C 50.257812 371.109375 56.964844 371.109375 56.964844 375.582031 "/>
<path style=" stroke:none;fill-rule:nonzero;fill:rgb(100%,84.3%,0%);fill-opacity:1;" d="M 96.132812 484.441406 C 96.132812 488.914062 89.425781 488.914062 89.425781 484.441406 C 89.425781 479.96875 96.132812 479.96875 96.132812 484.441406 "/>
<path style=" stroke:none;fill-rule:nonzero;fill:rgb(100%,84.3%,0%);fill-opacity:1;" d="M 421.417969 313.320312 C 421.417969 317.792969 414.707031 317.792969 414.707031 313.320312 C 414.707031 308.847656 421.417969 308.847656 421.417969 313.320312 "/>
<path style=" stroke:none;fill-rule:nonzero;fill:rgb(100%,84.3%,0%);fill-opacity:1;" d="M 276.117188 442.144531 C 276.117188 446.617188 269.410156 446.617188 269.410156 442.144531 C 269.410156 437.671875 276.117188 437.671875 276.117188 442.144531 "/>
<path style=" stroke:none;fill-rule:nonzero;fill:rgb(100%,84.3%,0%);fill-opacity:1;" d="M 448.796875 473.417969 C 448.796875 477.890625 442.085938 477.890625 442.085938 473.417969 C 442.085938 468.945312 448.796875 468.945312 448.796875 473.417969 "/>
<path style=" stroke:none;fill-rule:nonzero;fill:rgb(100%,84.3%,0%);fill-opacity:1;" d="M 212.449219 325.78125 C 212.449219 330.253906 205.738281 330.253906 205.738281 325.78125 C 205.738281 321.308594 212.449219 321.308594 212.449219 325.78125 "/>
<path style=" stroke:none;fill-rule:nonzero;fill:rgb(100%,84.3%,0%);fill-opacity:1;" d="M 285.3125 312.933594 C 285.3125 317.40625 278.605469 317.40625 278.605469 312.933594 C 278.605469 308.460938 285.3125 308.460938 285.3125 312.933594 "/>
<path style=" stroke:none;fill-rule:nonzero;fill:rgb(100%,84.3%,0%);fill-opacity:1;" d="M 300.0625 474.261719 C 300.0625 478.734375 293.355469 478.734375 293.355469 474.261719 C 293.355469 469.789062 300.0625 469.789062 300.0625 474.261719 "/>
<path style=" stroke:none;fill-rule:nonzero;fill:rgb(100%,84.3%,0%);fill-opacity:1;" d="M 184.644531 324.558594 C 184.644531 329.03125 177.9375 329.03125 177.9375 324.558594 C 177.9375 320.085938 184.644531 320.085938 184.644531 324.558594 "/>
<path style=" stroke:none;fill-rule:nonzero;fill:rgb(100%,84.3%,0%);fill-opacity:1;" d="M 131.882812 468.328125 C 131.882812 472.800781 125.175781 472.800781 125.175781 468.328125 C 125.175781 463.855469 131.882812 463.855469 131.882812 468.328125 "/>
<path style=" stroke:none;fill-rule:nonzero;fill:rgb(100%,84.3%,0%);fill-opacity:1;" d="M 70.988281 355.800781 C 70.988281 360.273438 64.28125 360.273438 64.28125 355.800781 C 64.28125 351.328125 70.988281 351.328125 70.988281 355.800781 "/>
<path style=" stroke:none;fill-rule:nonzero;fill:rgb(100%,84.3%,0%);fill-opacity:1;" d="M 170.828125 317.78125 C 170.828125 322.253906 164.117188 322.253906 164.117188 317.78125 C 164.117188 313.308594 170.828125 313.308594 170.828125 317.78125 "/>
<path style=" stroke:none;fill-rule:nonzero;fill:rgb(100%,84.3%,0%);fill-opacity:1;" d="M 367.898438 313.820312 C 367.898438 318.292969 361.1875 318.292969 361.1875 313.820312 C 361.1875 309.347656 367.898438 309.347656 367.898438 313.820312 "/>
<path style=" stroke:none;fill-rule:nonzero;fill:rgb(100%,84.3%,0%);fill-opacity:1;" d="M 119.34375 464.898438 C 119.34375 469.371094 112.636719 469.371094 112.636719 464.898438 C 112.636719 460.425781 119.34375 460.425781 119.34375 464.898438 "/>
<path style=" stroke:none;fill-rule:nonzero;fill:rgb(100%,84.3%,0%);fill-opacity:1;" d="M 163.734375 323.585938 C 163.734375 328.054688 157.027344 328.054688 157.027344 323.585938 C 157.027344 319.113281 163.734375 319.113281 163.734375 323.585938 "/>
<path style=" stroke:none;fill-rule:nonzero;fill:rgb(100%,84.3%,0%);fill-opacity:1;" d="M 112.695312 315.015625 C 112.695312 319.488281 105.988281 319.488281 105.988281 315.015625 C 105.988281 310.542969 112.695312 310.542969 112.695312 315.015625 "/>
<path style=" stroke:none;fill-rule:nonzero;fill:rgb(100%,84.3%,0%);fill-opacity:1;" d="M 54.445312 463.6875 C 54.445312 468.160156 47.738281 468.160156 47.738281 463.6875 C 47.738281 459.214844 54.445312 459.214844 54.445312 463.6875 "/>
<path style=" stroke:none;fill-rule:nonzero;fill:rgb(100%,84.3%,0%);fill-opacity:1;" d="M 62.316406 409.992188 C 62.316406 414.464844 55.609375 414.464844 55.609375 409.992188 C 55.609375 405.519531 62.316406 405.519531 62.316406 409.992188 "/>
<path style=" stroke:none;fill-rule:nonzero;fill:rgb(100%,84.3%,0%);fill-opacity:1;" d="M 414.507812 483.640625 C 414.507812 488.113281 407.800781 488.113281 407.800781 483.640625 C 407.800781 479.167969 414.507812 479.167969 414.507812 483.640625 "/>
<path style=" stroke:none;fill-rule:nonzero;fill:rgb(100%,84.3%,0%);fill-opacity:1;" d="M 350.195312 484.796875 C 350.195312 489.269531 343.488281 489.269531 343.488281 484.796875 C 343.488281 480.324219 350.195312 480.324219 350.195312 484.796875 "/>
<path style=" stroke:none;fill-rule:nonzero;fill:rgb(100%,84.3%,0%);fill-opacity:1;" d="M 334.21875 482.835938 C 334.21875 487.308594 327.511719 487.308594 327.511719 482.835938 C 327.511719 478.363281 334.21875 478.363281 334.21875 482.835938 "/>
<path style=" stroke:none;fill-rule:nonzero;fill:rgb(100%,84.3%,0%);fill-opacity:1;" d="M 351.03125 316.925781 C 351.03125 321.398438 344.320312 321.398438 344.320312 316.925781 C 344.320312 312.453125 351.03125 312.453125 351.03125 316.925781 "/>
<path style=" stroke:none;fill-rule:nonzero;fill:rgb(100%,84.3%,0%);fill-opacity:1;" d="M 54.175781 477.5 C 54.175781 481.972656 47.464844 481.972656 47.464844 477.5 C 47.464844 473.027344 54.175781 473.027344 54.175781 477.5 "/>
<path style=" stroke:none;fill-rule:nonzero;fill:rgb(100%,84.3%,0%);fill-opacity:1;" d="M 171.867188 470.855469 C 171.867188 475.328125 165.15625 475.328125 165.15625 470.855469 C 165.15625 466.382812 171.867188 466.382812 171.867188 470.855469 "/>
<path style=" stroke:none;fill-rule:nonzero;fill:rgb(100%,84.3%,0%);fill-opacity:1;" d="M 87.917969 321.230469 C 87.917969 325.703125 81.210938 325.703125 81.210938 321.230469 C 81.210938 316.757812 87.917969 316.757812 87.917969 321.230469 "/>
<path style=" stroke:none;fill-rule:nonzero;fill:rgb(100%,84.3%,0%);fill-opacity:1;" d="M 70.929688 431.5625 C 70.929688 436.035156 64.222656 436.035156 64.222656 431.5625 C 64.222656 427.089844 70.929688 427.089844 70.929688 431.5625 "/>
<path style=" stroke:none;fill-rule:nonzero;fill:rgb(100%,84.3%,0%);fill-opacity:1;" d="M 353.074219 334.007812 C 353.074219 338.476562 346.363281 338.476562 346.363281 334.007812 C 346.363281 329.535156 353.074219 329.535156 353.074219 334.007812 "/>
<path style=" stroke:none;fill-rule:nonzero;fill:rgb(100%,84.3%,0%);fill-opacity:1;" d="M 77.941406 454.035156 C 77.941406 458.507812 71.230469 458.507812 71.230469 454.035156 C 71.230469 449.5625 77.941406 449.5625 77.941406 454.035156 "/>
<path style=" stroke:none;fill-rule:nonzero;fill:rgb(100%,84.3%,0%);fill-opacity:1;" d="M 187.105469 485.972656 C 187.105469 490.445312 180.398438 490.445312 180.398438 485.972656 C 180.398438 481.5 187.105469 481.5 187.105469 485.972656 "/>
<path style=" stroke:none;fill-rule:nonzero;fill:rgb(100%,84.3%,0%);fill-opacity:1;" d="M 322.359375 477.199219 C 322.359375 481.671875 315.652344 481.671875 315.652344 477.199219 C 315.652344 472.726562 322.359375 472.726562 322.359375 477.199219 "/>
<path style=" stroke:none;fill-rule:nonzero;fill:rgb(100%,84.3%,0%);fill-opacity:1;" d="M 465.757812 445.132812 C 465.757812 449.605469 459.050781 449.605469 459.050781 445.132812 C 459.050781 440.660156 465.757812 440.660156 465.757812 445.132812 "/>
<path style=" stroke:none;fill-rule:nonzero;fill:rgb(100%,84.3%,0%);fill-opacity:1;" d="M 438.144531 478.976562 C 438.144531 483.449219 431.433594 483.449219 431.433594 478.976562 C 431.433594 474.503906 438.144531 474.503906 438.144531 478.976562 "/>
<path style=" stroke:none;fill-rule:nonzero;fill:rgb(100%,84.3%,0%);fill-opacity:1;" d="M 349.449219 474.253906 C 349.449219 478.726562 342.742188 478.726562 342.742188 474.253906 C 342.742188 469.78125 349.449219 469.78125 349.449219 474.253906 "/>
<path style=" stroke:none;fill-rule:nonzero;fill:rgb(100%,84.3%,0%);fill-opacity:1;" d="M 451.625 313.152344 C 451.625 317.625 444.914062 317.625 444.914062 313.152344 C 444.914062 308.679688 451.625 308.679688 451.625 313.152344 "/>
<path style=" stroke:none;fill-rule:nonzero;fill:rgb(100%,84.3%,0%);fill-opacity:1;" d="M 186.609375 478.941406 C 186.609375 483.414062 179.902344 483.414062 179.902344 478.941406 C 179.902344 474.46875 186.609375 474.46875 186.609375 478.941406 "/>
<path style=" stroke:none;fill-rule:nonzero;fill:rgb(100%,84.3%,0%);fill-opacity:1;" d="M 413.113281 328.4375 C 413.113281 332.910156 406.40625 332.910156 406.40625 328.4375 C 406.40625 323.964844 413.113281 323.964844 413.113281 328.4375 "/>
<path style=" stroke:none;fill-rule:nonzero;fill:rgb(100%,84.3%,0%);fill-opacity:1;" d="M 134.511719 314.113281 C 134.511719 318.585938 127.804688 318.585938 127.804688 314.113281 C 127.804688 309.640625 134.511719 309.640625 134.511719 314.113281 "/>
<path style=" stroke:none;fill-rule:nonzero;fill:rgb(100%,84.3%,0%);fill-opacity:1;" d="M 194 486.214844 C 194 490.6875 187.289062 490.6875 187.289062 486.214844 C 187.289062 481.742188 194 481.742188 194 486.214844 "/>
<path style=" stroke:none;fill-rule:nonzero;fill:rgb(100%,84.3%,0%);fill-opacity:1;" d="M 62.816406 461.234375 C 62.816406 465.707031 56.109375 465.707031 56.109375 461.234375 C 56.109375 456.761719 62.816406 456.761719 62.816406 461.234375 "/>
<path style=" stroke:none;fill-rule:nonzero;fill:rgb(100%,84.3%,0%);fill-opacity:1;" d="M 58.140625 315.679688 C 58.140625 320.152344 51.433594 320.152344 51.433594 315.679688 C 51.433594 311.207031 58.140625 311.207031 58.140625 315.679688 "/>
<path style=" stroke:none;fill-rule:nonzero;fill:rgb(100%,84.3%,0%);fill-opacity:1;" d="M 314.1875 473.605469 C 314.1875 478.078125 307.476562 478.078125 307.476562 473.605469 C 307.476562 469.132812 314.1875 469.132812 314.1875 473.605469 "/>
<path style=" stroke:none;fill-rule:nonzero;fill:rgb(100%,84.3%,0%);fill-opacity:1;" d="M 65.246094 442.515625 C 65.246094 446.988281 58.535156 446.988281 58.535156 442.515625 C 58.535156 438.042969 65.246094 438.042969 65.246094 442.515625 "/>
<path style=" stroke:none;fill-rule:nonzero;fill:rgb(100%,84.3%,0%);fill-opacity:1;" d="M 134.367188 329.636719 C 134.367188 334.109375 127.65625 334.109375 127.65625 329.636719 C 127.65625 325.164062 134.367188 325.164062 134.367188 329.636719 "/>
<path style=" stroke:none;fill-rule:nonzero;fill:rgb(100%,84.3%,0%);fill-opacity:1;" d="M 125.933594 472.578125 C 125.933594 477.050781 119.226562 477.050781 119.226562 472.578125 C 119.226562 468.105469 125.933594 468.105469 125.933594 472.578125 "/>
<path style=" stroke:none;fill-rule:nonzero;fill:rgb(100%,84.3%,0%);fill-opacity:1;" d="M 465.578125 454.371094 C 465.578125 458.84375 458.871094 458.84375 458.871094 454.371094 C 458.871094 449.898438 465.578125 449.898438 465.578125 454.371094 "/>
<path style=" stroke:none;fill-rule:nonzero;fill:rgb(100%,84.3%,0%);fill-opacity:1;" d="M 217.472656 320.226562 C 217.472656 324.699219 210.761719 324.699219 210.761719 320.226562 C 210.761719 315.753906 217.472656 315.753906 217.472656 320.226562 "/>
<path style=" stroke:none;fill-rule:nonzero;fill:rgb(100%,84.3%,0%);fill-opacity:1;" d="M 224.617188 477.136719 C 224.617188 481.609375 217.910156 481.609375 217.910156 477.136719 C 217.910156 472.664062 224.617188 472.664062 224.617188 477.136719 "/>
<path style=" stroke:none;fill-rule:nonzero;fill:rgb(100%,84.3%,0%);fill-opacity:1;" d="M 217.386719 478.039062 C 217.386719 482.511719 210.675781 482.511719 210.675781 478.039062 C 210.675781 473.566406 217.386719 473.566406 217.386719 478.039062 "/>
<path style=" stroke:none;fill-rule:nonzero;fill:rgb(100%,84.3%,0%);fill-opacity:1;" d="M 410.574219 478.082031 C 410.574219 482.554688 403.863281 482.554688 403.863281 478.082031 C 403.863281 473.609375 410.574219 473.609375 410.574219 478.082031 "/>
<path style=" stroke:none;fill-rule:nonzero;fill:rgb(100%,84.3%,0%);fill-opacity:1;" d="M 357.539062 461.910156 C 357.539062 466.382812 350.832031 466.382812 350.832031 461.910156 C 350.832031 457.4375 357.539062 457.4375 357.539062 461.910156 "/>
<path style=" stroke:none;fill-rule:nonzero;fill:rgb(100%,84.3%,0%);fill-opacity:1;" d="M 83.421875 469.644531 C 83.421875 474.117188 76.710938 474.117188 76.710938 469.644531 C 76.710938 465.171875 83.421875 465.171875 83.421875 469.644531 "/>
<path style=" stroke:none;fill-rule:nonzero;fill:rgb(100%,84.3%,0%);fill-opacity:1;" d="M 94.304688 464.410156 C 94.304688 468.882812 87.59375 468.882812 87.59375 464.410156 C 87.59375 459.941406 94.304688 459.941406 94.304688 464.410156 "/>
<path style=" stroke:none;fill-rule:nonzero;fill:rgb(100%,84.3%,0%);fill-opacity:1;" d="M 429.425781 329.25 C 429.425781 333.722656 422.71875 333.722656 422.71875 329.25 C 422.71875 324.777344 429.425781 324.777344 429.425781 329.25 "/>
<path style=" stroke:none;fill-rule:nonzero;fill:rgb(100%,84.3%,0%);fill-opacity:1;" d="M 255.964844 475.414062 C 255.964844 479.886719 249.253906 479.886719 249.253906 475.414062 C 249.253906 470.941406 255.964844 470.941406 255.964844 475.414062 "/>
<path style=" stroke:none;fill-rule:nonzero;fill:rgb(100%,84.3%,0%);fill-opacity:1;" d="M 128.117188 320.894531 C 128.117188 325.367188 121.410156 325.367188 121.410156 320.894531 C 121.410156 316.421875 128.117188 316.421875 128.117188 320.894531 "/>
<path style=" stroke:none;fill-rule:nonzero;fill:rgb(100%,84.3%,0%);fill-opacity:1;" d="M 449.675781 335.621094 C 449.675781 340.09375 442.964844 340.09375 442.964844 335.621094 C 442.964844 331.148438 449.675781 331.148438 449.675781 335.621094 "/>
<path style=" stroke:none;fill-rule:nonzero;fill:rgb(100%,84.3%,0%);fill-opacity:1;" d="M 362.949219 485.367188 C 362.949219 489.839844 356.238281 489.839844 356.238281 485.367188 C 356.238281 480.894531 362.949219 480.894531 362.949219 485.367188 "/>
<path style=" stroke:none;fill-rule:nonzero;fill:rgb(100%,84.3%,0%);fill-opacity:1;" d="M 386.617188 313.328125 C 386.617188 317.800781 379.90625 317.800781 379.90625 313.328125 C 379.90625 308.855469 386.617188 308.855469 386.617188 313.328125 "/>
<path style=" stroke:none;fill-rule:nonzero;fill:rgb(100%,84.3%,0%);fill-opacity:1;" d="M 59.179688 424.539062 C 59.179688 429.011719 52.46875 429.011719 52.46875 424.539062 C 52.46875 420.066406 59.179688 420.066406 59.179688 424.539062 "/>
<path style=" stroke:none;fill-rule:nonzero;fill:rgb(100%,84.3%,0%);fill-opacity:1;" d="M 63.628906 484.527344 C 63.628906 489 56.921875 489 56.921875 484.527344 C 56.921875 480.054688 63.628906 480.054688 63.628906 484.527344 "/>
<path style=" stroke:none;fill-rule:nonzero;fill:rgb(100%,84.3%,0%);fill-opacity:1;" d="M 456.398438 477.832031 C 456.398438 482.304688 449.691406 482.304688 449.691406 477.832031 C 449.691406 473.359375 456.398438 473.359375 456.398438 477.832031 "/>
<path style=" stroke:none;fill-rule:nonzero;fill:rgb(100%,84.3%,0%);fill-opacity:1;" d="M 267.128906 480.070312 C 267.128906 484.542969 260.421875 484.542969 260.421875 480.070312 C 260.421875 475.597656 267.128906 475.597656 267.128906 480.070312 "/>
<path style=" stroke:none;fill-rule:nonzero;fill:rgb(100%,84.3%,0%);fill-opacity:1;" d="M 404.175781 484.863281 C 404.175781 489.335938 397.46875 489.335938 397.46875 484.863281 C 397.46875 480.394531 404.175781 480.394531 404.175781 484.863281 "/>
<path style=" stroke:none;fill-rule:nonzero;fill:rgb(100%,84.3%,0%);fill-opacity:1;" d="M 137.878906 320.402344 C 137.878906 324.875 131.167969 324.875 131.167969 320.402344 C 131.167969 315.929688 137.878906 315.929688 137.878906 320.402344 "/>
<path style=" stroke:none;fill-rule:nonzero;fill:rgb(100%,84.3%,0%);fill-opacity:1;" d="M 57.394531 434.675781 C 57.394531 439.148438 50.6875 439.148438 50.6875 434.675781 C 50.6875 430.203125 57.394531 430.203125 57.394531 434.675781 "/>
<path style=" stroke:none;fill-rule:nonzero;fill:rgb(100%,84.3%,0%);fill-opacity:1;" d="M 345.464844 459.132812 C 345.464844 463.605469 338.757812 463.605469 338.757812 459.132812 C 338.757812 454.660156 345.464844 454.660156 345.464844 459.132812 "/>
<path style=" stroke:none;fill-rule:nonzero;fill:rgb(100%,84.3%,0%);fill-opacity:1;" d="M 234.660156 486.535156 C 234.660156 491.007812 227.953125 491.007812 227.953125 486.535156 C 227.953125 482.0625 234.660156 482.0625 234.660156 486.535156 "/>
<path style=" stroke:none;fill-rule:nonzero;fill:rgb(100%,84.3%,0%);fill-opacity:1;" d="M 415.699219 317.898438 C 415.699219 322.371094 408.992188 322.371094 408.992188 317.898438 C 408.992188 313.425781 415.699219 313.425781 415.699219 317.898438 "/>
<path style=" stroke:none;fill-rule:nonzero;fill:rgb(100%,84.3%,0%);fill-opacity:1;" d="M 75.464844 398.464844 C 75.464844 402.9375 68.753906 402.9375 68.753906 398.464844 C 68.753906 393.992188 75.464844 393.992188 75.464844 398.464844 "/>
<path style=" stroke:none;fill-rule:nonzero;fill:rgb(100%,84.3%,0%);fill-opacity:1;" d="M 464.558594 413.425781 C 464.558594 417.894531 457.851562 417.894531 457.851562 413.425781 C 457.851562 408.953125 464.558594 408.953125 464.558594 413.425781 "/>
<path style=" stroke:none;fill-rule:nonzero;fill:rgb(100%,84.3%,0%);fill-opacity:1;" d="M 251.773438 313.1875 C 251.773438 317.660156 245.066406 317.660156 245.066406 313.1875 C 245.066406 308.714844 251.773438 308.714844 251.773438 313.1875 "/>
<path style=" stroke:none;fill-rule:nonzero;fill:rgb(100%,84.3%,0%);fill-opacity:1;" d="M 241.550781 313.027344 C 241.550781 317.5 234.84375 317.5 234.84375 313.027344 C 234.84375 308.554688 241.550781 308.554688 241.550781 313.027344 "/>
<path style=" stroke:none;fill-rule:nonzero;fill:rgb(100%,84.3%,0%);fill-opacity:1;" d="M 392.722656 317.164062 C 392.722656 321.636719 386.015625 321.636719 386.015625 317.164062 C 386.015625 312.695312 392.722656 312.695312 392.722656 317.164062 "/>
<path style=" stroke:none;fill-rule:nonzero;fill:rgb(100%,84.3%,0%);fill-opacity:1;" d="M 206.058594 485.804688 C 206.058594 490.277344 199.347656 490.277344 199.347656 485.804688 C 199.347656 481.332031 206.058594 481.332031 206.058594 485.804688 "/>
<path style=" stroke:none;fill-rule:nonzero;fill:rgb(100%,84.3%,0%);fill-opacity:1;" d="M 293.289062 322.578125 C 293.289062 327.050781 286.578125 327.050781 286.578125 322.578125 C 286.578125 318.105469 293.289062 318.105469 293.289062 322.578125 "/>
<path style=" stroke:none;fill-rule:nonzero;fill:rgb(100%,84.3%,0%);fill-opacity:1;" d="M 239.421875 344.734375 C 239.421875 349.207031 232.714844 349.207031 232.714844 344.734375 C 232.714844 340.261719 239.421875 340.261719 239.421875 344.734375 "/>
<path style=" stroke:none;fill-rule:nonzero;fill:rgb(100%,84.3%,0%);fill-opacity:1;" d="M 465.746094 486.246094 C 465.746094 490.71875 459.039062 490.71875 459.039062 486.246094 C 459.039062 481.773438 465.746094 481.773438 465.746094 486.246094 "/>
<path style=" stroke:none;fill-rule:nonzero;fill:rgb(100%,84.3%,0%);fill-opacity:1;" d="M 92.769531 478.0625 C 92.769531 482.535156 86.058594 482.535156 86.058594 478.0625 C 86.058594 473.589844 92.769531 473.589844 92.769531 478.0625 "/>
<path style=" stroke:none;fill-rule:nonzero;fill:rgb(100%,84.3%,0%);fill-opacity:1;" d="M 373.328125 319.863281 C 373.328125 324.335938 366.617188 324.335938 366.617188 319.863281 C 366.617188 315.394531 373.328125 315.394531 373.328125 319.863281 "/>
<path style=" stroke:none;fill-rule:nonzero;fill:rgb(100%,84.3%,0%);fill-opacity:1;" d="M 357.675781 313.65625 C 357.675781 318.128906 350.964844 318.128906 350.964844 313.65625 C 350.964844 309.1875 357.675781 309.1875 357.675781 313.65625 "/>
<path style=" stroke:none;fill-rule:nonzero;fill:rgb(100%,84.3%,0%);fill-opacity:1;" d="M 180.46875 468.726562 C 180.46875 473.199219 173.757812 473.199219 173.757812 468.726562 C 173.757812 464.253906 180.46875 464.253906 180.46875 468.726562 "/>
<path style=" stroke:none;fill-rule:nonzero;fill:rgb(100%,84.3%,0%);fill-opacity:1;" d="M 156.617188 476.25 C 156.617188 480.722656 149.910156 480.722656 149.910156 476.25 C 149.910156 471.777344 156.617188 471.777344 156.617188 476.25 "/>
<path style=" stroke:none;fill-rule:nonzero;fill:rgb(100%,84.3%,0%);fill-opacity:1;" d="M 335.164062 313.578125 C 335.164062 318.050781 328.453125 318.050781 328.453125 313.578125 C 328.453125 309.109375 335.164062 309.109375 335.164062 313.578125 "/>
<path style=" stroke:none;fill-rule:nonzero;fill:rgb(100%,84.3%,0%);fill-opacity:1;" d="M 364.5 474.90625 C 364.5 479.378906 357.792969 479.378906 357.792969 474.90625 C 357.792969 470.433594 364.5 470.433594 364.5 474.90625 "/>
<path style=" stroke:none;fill-rule:nonzero;fill:rgb(100%,84.3%,0%);fill-opacity:1;" d="M 182.636719 313.855469 C 182.636719 318.328125 175.925781 318.328125 175.925781 313.855469 C 175.925781 309.382812 182.636719 309.382812 182.636719 313.855469 "/>
<path style=" stroke:none;fill-rule:nonzero;fill:rgb(100%,84.3%,0%);fill-opacity:1;" d="M 93.117188 326.949219 C 93.117188 331.421875 86.410156 331.421875 86.410156 326.949219 C 86.410156 322.476562 93.117188 322.476562 93.117188 326.949219 "/>
<path style=" stroke:none;fill-rule:nonzero;fill:rgb(100%,84.3%,0%);fill-opacity:1;" d="M 105.390625 323.679688 C 105.390625 328.152344 98.683594 328.152344 98.683594 323.679688 C 98.683594 319.207031 105.390625 319.207031 105.390625 323.679688 "/>
<path style=" stroke:none;fill-rule:nonzero;fill:rgb(100%,84.3%,0%);fill-opacity:1;" d="M 455.421875 466.960938 C 455.421875 471.433594 448.714844 471.433594 448.714844 466.960938 C 448.714844 462.488281 455.421875 462.488281 455.421875 466.960938 "/>
<path style=" stroke:none;fill-rule:nonzero;fill:rgb(100%,84.3%,0%);fill-opacity:1;" d="M 54.265625 408.109375 C 54.265625 412.582031 47.558594 412.582031 47.558594 408.109375 C 47.558594 403.636719 54.265625 403.636719 54.265625 408.109375 "/>
<path style=" stroke:none;fill-rule:nonzero;fill:rgb(100%,84.3%,0%);fill-opacity:1;" d="M 319.898438 315.789062 C 319.898438 320.261719 313.191406 320.261719 313.191406 315.789062 C 313.191406 311.316406 319.898438 311.316406 319.898438 315.789062 "/>
<path style=" stroke:none;fill-rule:nonzero;fill:rgb(100%,84.3%,0%);fill-opacity:1;" d="M 72.714844 421.429688 C 72.714844 425.902344 66.003906 425.902344 66.003906 421.429688 C 66.003906 416.957031 72.714844 416.957031 72.714844 421.429688 "/>
<path style=" stroke:none;fill-rule:nonzero;fill:rgb(100%,84.3%,0%);fill-opacity:1;" d="M 260.992188 340.316406 C 260.992188 344.789062 254.285156 344.789062 254.285156 340.316406 C 254.285156 335.84375 260.992188 335.84375 260.992188 340.316406 "/>
<path style=" stroke:none;fill-rule:nonzero;fill:rgb(100%,84.3%,0%);fill-opacity:1;" d="M 53.558594 448.242188 C 53.558594 452.714844 46.851562 452.714844 46.851562 448.242188 C 46.851562 443.769531 53.558594 443.769531 53.558594 448.242188 "/>
<path style=" stroke:none;fill-rule:nonzero;fill:rgb(100%,84.3%,0%);fill-opacity:1;" d="M 53.941406 368.144531 C 53.941406 372.617188 47.230469 372.617188 47.230469 368.144531 C 47.230469 363.671875 53.941406 363.671875 53.941406 368.144531 "/>
<path style=" stroke:none;fill-rule:nonzero;fill:rgb(100%,84.3%,0%);fill-opacity:1;" d="M 439.417969 329.085938 C 439.417969 333.558594 432.710938 333.558594 432.710938 329.085938 C 432.710938 324.613281 439.417969 324.613281 439.417969 329.085938 "/>
<path style=" stroke:none;fill-rule:nonzero;fill:rgb(100%,84.3%,0%);fill-opacity:1;" d="M 223.007812 324.796875 C 223.007812 329.269531 216.300781 329.269531 216.300781 324.796875 C 216.300781 320.324219 223.007812 320.324219 223.007812 324.796875 "/>
<path style=" stroke:none;fill-rule:nonzero;fill:rgb(100%,84.3%,0%);fill-opacity:1;" d="M 191.042969 317.777344 C 191.042969 322.25 184.332031 322.25 184.332031 317.777344 C 184.332031 313.304688 191.042969 313.304688 191.042969 317.777344 "/>
<path style=" stroke:none;fill-rule:nonzero;fill:rgb(100%,84.3%,0%);fill-opacity:1;" d="M 443.179688 323.367188 C 443.179688 327.839844 436.46875 327.839844 436.46875 323.367188 C 436.46875 318.894531 443.179688 318.894531 443.179688 323.367188 "/>
<path style=" stroke:none;fill-rule:nonzero;fill:rgb(100%,84.3%,0%);fill-opacity:1;" d="M 59.34375 347.390625 C 59.34375 351.863281 52.636719 351.863281 52.636719 347.390625 C 52.636719 342.917969 59.34375 342.917969 59.34375 347.390625 "/>
<path style=" stroke:none;fill-rule:nonzero;fill:rgb(100%,84.3%,0%);fill-opacity:1;" d="M 88.492188 364.625 C 88.492188 369.097656 81.785156 369.097656 81.785156 364.625 C 81.785156 360.152344 88.492188 360.152344 88.492188 364.625 "/>
<path style=" stroke:none;fill-rule:nonzero;fill:rgb(100%,84.3%,0%);fill-opacity:1;" d="M 211.808594 313.851562 C 211.808594 318.324219 205.101562 318.324219 205.101562 313.851562 C 205.101562 309.378906 211.808594 309.378906 211.808594 313.851562 "/>
<path style=" stroke:none;fill-rule:nonzero;fill:rgb(100%,84.3%,0%);fill-opacity:1;" d="M 93.851562 313.792969 C 93.851562 318.265625 87.144531 318.265625 87.144531 313.792969 C 87.144531 309.320312 93.851562 309.320312 93.851562 313.792969 "/>
<path style=" stroke:none;fill-rule:nonzero;fill:rgb(100%,84.3%,0%);fill-opacity:1;" d="M 427.542969 320.347656 C 427.542969 324.820312 420.832031 324.820312 420.832031 320.347656 C 420.832031 315.875 427.542969 315.875 427.542969 320.347656 "/>
</g>
</svg>
