<?xml version="1.0" encoding="UTF-8"?>
<svg xmlns="http://www.w3.org/2000/svg" xmlns:xlink="http://www.w3.org/1999/xlink" width="512pt" height="512pt" viewBox="0 0 512 512" version="1.1">
<g id="surface181">
<path style=" stroke:none;fill-rule:nonzero;fill:rgb(26.7%,26.7%,26.7%);fill-opacity:1;" d="M 0 143.699219 L 512 143.699219 L 512 368.304688 L 0 368.304688 Z M 0 143.699219 "/>
<path style=" stroke:none;fill-rule:nonzero;fill:rgb(19.2%,38.8%,66.7%);fill-opacity:1;" d="M 42.667969 162.414062 L 469.332031 162.414062 L 469.332031 349.585938 L 42.667969 349.585938 Z M 42.667969 162.414062 "/>
<path style=" stroke:none;fill-rule:nonzero;fill:rgb(100%,100%,100%);fill-opacity:1;" d="M 363.335938 411.304688 C 363.335938 415.777344 356.628906 415.777344 356.628906 411.304688 C 356.628906 406.832031 363.335938 406.832031 363.335938 411.304688 "/>
<path style=" stroke:none;fill-rule:nonzero;fill:rgb(100%,100%,100%);fill-opacity:1;" d="M 19.1875 276.460938 C 19.1875 280.933594 12.476562 280.933594 12.476562 276.460938 C 12.476562 271.988281 19.1875 271.988281 19.1875 276.460938 "/>
<path style=" stroke:none;fill-rule:nonzero;fill:rgb(100%,100%,100%);fill-opacity:1;" d="M 70.171875 79.898438 C 70.171875 84.371094 63.464844 84.371094 63.464844 79.898438 C 63.464844 75.425781 70.171875 75.425781 70.171875 79.898438 "/>
<path style=" stroke:none;fill-rule:nonzero;fill:rgb(100%,100%,100%);fill-opacity:1;" d="M 382.121094 511.933594 C 382.121094 516.40625 375.414062 516.40625 375.414062 511.933594 C 375.414062 507.460938 382.121094 507.460938 382.121094 511.933594 "/>
<path style=" stroke:none;fill-rule:nonzero;fill:rgb(100%,100%,100%);fill-opacity:1;" d="M 16.503906 87.949219 C 16.503906 92.421875 9.792969 92.421875 9.792969 87.949219 C 9.792969 83.476562 16.503906 83.476562 16.503906 87.949219 "/>
<path style=" stroke:none;fill-rule:nonzero;fill:rgb(100%,100%,100%);fill-opacity:1;" d="M 389.5 452.226562 C 389.5 456.699219 382.792969 456.699219 382.792969 452.226562 C 382.792969 447.753906 389.5 447.753906 389.5 452.226562 "/>
<path style=" stroke:none;fill-rule:nonzero;fill:rgb(100%,100%,100%);fill-opacity:1;" d="M 111.765625 379.101562 C 111.765625 383.574219 105.058594 383.574219 105.058594 379.101562 C 105.058594 374.628906 111.765625 374.628906 111.765625 379.101562 "/>
<path style=" stroke:none;fill-rule:nonzero;fill:rgb(100%,100%,100%);fill-opacity:1;" d="M 95.664062 93.988281 C 95.664062 98.460938 88.957031 98.460938 88.957031 93.988281 C 88.957031 89.515625 95.664062 89.515625 95.664062 93.988281 "/>
<path style=" stroke:none;fill-rule:nonzero;fill:rgb(100%,100%,100%);fill-opacity:1;" d="M 347.238281 46.355469 C 347.238281 50.828125 340.527344 50.828125 340.527344 46.355469 C 340.527344 41.882812 347.238281 41.882812 347.238281 46.355469 "/>
<path style=" stroke:none;fill-rule:nonzero;fill:rgb(100%,100%,100%);fill-opacity:1;" d="M 361.996094 434.785156 C 361.996094 439.257812 355.289062 439.257812 355.289062 434.785156 C 355.289062 430.3125 361.996094 430.3125 361.996094 434.785156 "/>
<path style=" stroke:none;fill-rule:nonzero;fill:rgb(100%,100%,100%);fill-opacity:1;" d="M 10.464844 276.460938 C 10.464844 280.933594 3.757812 280.933594 3.757812 276.460938 C 3.757812 271.988281 10.464844 271.988281 10.464844 276.460938 "/>
<path style=" stroke:none;fill-rule:nonzero;fill:rgb(100%,100%,100%);fill-opacity:1;" d="M 321.746094 45.015625 C 321.746094 49.488281 315.035156 49.488281 315.035156 45.015625 C 315.035156 40.542969 321.746094 40.542969 321.746094 45.015625 "/>
<path style=" stroke:none;fill-rule:nonzero;fill:rgb(100%,100%,100%);fill-opacity:1;" d="M 153.359375 124.847656 C 153.359375 129.320312 146.648438 129.320312 146.648438 124.847656 C 146.648438 120.375 153.359375 120.375 153.359375 124.847656 "/>
<path style=" stroke:none;fill-rule:nonzero;fill:rgb(100%,100%,100%);fill-opacity:1;" d="M 171.472656 509.921875 C 171.472656 514.390625 164.761719 514.390625 164.761719 509.921875 C 164.761719 505.449219 171.472656 505.449219 171.472656 509.921875 "/>
<path style=" stroke:none;fill-rule:nonzero;fill:rgb(100%,100%,100%);fill-opacity:1;" d="M 482.078125 365.015625 C 482.078125 369.488281 475.371094 369.488281 475.371094 365.015625 C 475.371094 360.542969 482.078125 360.542969 482.078125 365.015625 "/>
<path style=" stroke:none;fill-rule:nonzero;fill:rgb(100%,100%,100%);fill-opacity:1;" d="M 232.519531 107.40625 C 232.519531 111.878906 225.8125 111.878906 225.8125 107.40625 C 225.8125 102.933594 232.519531 102.933594 232.519531 107.40625 "/>
<path style=" stroke:none;fill-rule:nonzero;fill:rgb(100%,100%,100%);fill-opacity:1;" d="M 361.996094 93.988281 C 361.996094 98.460938 355.289062 98.460938 355.289062 93.988281 C 355.289062 89.515625 361.996094 89.515625 361.996094 93.988281 "/>
<path style=" stroke:none;fill-rule:nonzero;fill:rgb(100%,100%,100%);fill-opacity:1;" d="M 292.226562 98.683594 C 292.226562 103.15625 285.519531 103.15625 285.519531 98.683594 C 285.519531 94.210938 292.226562 94.210938 292.226562 98.683594 "/>
<path style=" stroke:none;fill-rule:nonzero;fill:rgb(100%,100%,100%);fill-opacity:1;" d="M 429.753906 95.328125 C 429.753906 99.800781 423.042969 99.800781 423.042969 95.328125 C 423.042969 90.855469 429.753906 90.855469 429.753906 95.328125 "/>
<path style=" stroke:none;fill-rule:nonzero;fill:rgb(100%,100%,100%);fill-opacity:1;" d="M 226.480469 110.089844 C 226.480469 114.558594 219.773438 114.558594 219.773438 110.089844 C 219.773438 105.617188 226.480469 105.617188 226.480469 110.089844 "/>
<path style=" stroke:none;fill-rule:nonzero;fill:rgb(100%,100%,100%);fill-opacity:1;" d="M 198.976562 116.125 C 198.976562 120.597656 192.269531 120.597656 192.269531 116.125 C 192.269531 111.652344 198.976562 111.652344 198.976562 116.125 "/>
<path style=" stroke:none;fill-rule:nonzero;fill:rgb(100%,100%,100%);fill-opacity:1;" d="M 130.550781 378.433594 C 130.550781 382.90625 123.839844 382.90625 123.839844 378.433594 C 123.839844 373.960938 130.550781 373.960938 130.550781 378.433594 "/>
<path style=" stroke:none;fill-rule:nonzero;fill:rgb(100%,100%,100%);fill-opacity:1;" d="M 472.015625 360.988281 C 472.015625 365.460938 465.308594 365.460938 465.308594 360.988281 C 465.308594 356.519531 472.015625 356.519531 472.015625 360.988281 "/>
<path style=" stroke:none;fill-rule:nonzero;fill:rgb(100%,100%,100%);fill-opacity:1;" d="M 285.519531 501.871094 C 285.519531 506.34375 278.808594 506.34375 278.808594 501.871094 C 278.808594 497.398438 285.519531 497.398438 285.519531 501.871094 "/>
<path style=" stroke:none;fill-rule:nonzero;fill:rgb(100%,100%,100%);fill-opacity:1;" d="M 72.183594 473.023438 C 72.183594 477.496094 65.476562 477.496094 65.476562 473.023438 C 65.476562 468.550781 72.183594 468.550781 72.183594 473.023438 "/>
<path style=" stroke:none;fill-rule:nonzero;fill:rgb(100%,100%,100%);fill-opacity:1;" d="M 253.316406 49.039062 C 253.316406 53.511719 246.609375 53.511719 246.609375 49.039062 C 246.609375 44.566406 253.316406 44.566406 253.316406 49.039062 "/>
<path style=" stroke:none;fill-rule:nonzero;fill:rgb(100%,100%,100%);fill-opacity:1;" d="M 343.210938 402.582031 C 343.210938 407.054688 336.503906 407.054688 336.503906 402.582031 C 336.503906 398.109375 343.210938 398.109375 343.210938 402.582031 "/>
<path style=" stroke:none;fill-rule:nonzero;fill:rgb(100%,100%,100%);fill-opacity:1;" d="M 417.007812 93.316406 C 417.007812 97.789062 410.296875 97.789062 410.296875 93.316406 C 410.296875 88.84375 417.007812 88.84375 417.007812 93.316406 "/>
<path style=" stroke:none;fill-rule:nonzero;fill:rgb(100%,100%,100%);fill-opacity:1;" d="M 181.535156 70.507812 C 181.535156 74.980469 174.824219 74.980469 174.824219 70.507812 C 174.824219 66.035156 181.535156 66.035156 181.535156 70.507812 "/>
<path style=" stroke:none;fill-rule:nonzero;fill:rgb(100%,100%,100%);fill-opacity:1;" d="M 154.03125 8.117188 C 154.03125 12.589844 147.320312 12.589844 147.320312 8.117188 C 147.320312 3.644531 154.03125 3.644531 154.03125 8.117188 "/>
<path style=" stroke:none;fill-rule:nonzero;fill:rgb(100%,100%,100%);fill-opacity:1;" d="M 73.527344 387.152344 C 73.527344 391.625 66.816406 391.625 66.816406 387.152344 C 66.816406 382.679688 73.527344 382.679688 73.527344 387.152344 "/>
<path style=" stroke:none;fill-rule:nonzero;fill:rgb(100%,100%,100%);fill-opacity:1;" d="M 372.730469 367.699219 C 372.730469 372.171875 366.019531 372.171875 366.019531 367.699219 C 366.019531 363.226562 372.730469 363.226562 372.730469 367.699219 "/>
<path style=" stroke:none;fill-rule:nonzero;fill:rgb(100%,100%,100%);fill-opacity:1;" d="M 401.578125 65.140625 C 401.578125 69.613281 394.867188 69.613281 394.867188 65.140625 C 394.867188 60.667969 401.578125 60.667969 401.578125 65.140625 "/>
<path style=" stroke:none;fill-rule:nonzero;fill:rgb(100%,100%,100%);fill-opacity:1;" d="M 373.398438 27.570312 C 373.398438 32.042969 366.691406 32.042969 366.691406 27.570312 C 366.691406 23.097656 373.398438 23.097656 373.398438 27.570312 "/>
<path style=" stroke:none;fill-rule:nonzero;fill:rgb(100%,100%,100%);fill-opacity:1;" d="M 360.65625 438.136719 C 360.65625 442.609375 353.945312 442.609375 353.945312 438.136719 C 353.945312 433.664062 360.65625 433.664062 360.65625 438.136719 "/>
<path style=" stroke:none;fill-rule:nonzero;fill:rgb(100%,100%,100%);fill-opacity:1;" d="M 394.867188 26.902344 C 394.867188 31.375 388.160156 31.375 388.160156 26.902344 C 388.160156 22.429688 394.867188 22.429688 394.867188 26.902344 "/>
<path style=" stroke:none;fill-rule:nonzero;fill:rgb(100%,100%,100%);fill-opacity:1;" d="M 351.261719 454.910156 C 351.261719 459.382812 344.554688 459.382812 344.554688 454.910156 C 344.554688 450.4375 351.261719 450.4375 351.261719 454.910156 "/>
<path style=" stroke:none;fill-rule:nonzero;fill:rgb(100%,100%,100%);fill-opacity:1;" d="M 21.199219 195.285156 C 21.199219 199.757812 14.492188 199.757812 14.492188 195.285156 C 14.492188 190.816406 21.199219 190.816406 21.199219 195.285156 "/>
<path style=" stroke:none;fill-rule:nonzero;fill:rgb(100%,100%,100%);fill-opacity:1;" d="M 3.085938 326.777344 C 3.085938 331.25 -3.621094 331.25 -3.621094 326.777344 C -3.621094 322.304688 3.085938 322.304688 3.085938 326.777344 "/>
<path style=" stroke:none;fill-rule:nonzero;fill:rgb(100%,100%,100%);fill-opacity:1;" d="M 185.558594 46.355469 C 185.558594 50.828125 178.851562 50.828125 178.851562 46.355469 C 178.851562 41.882812 185.558594 41.882812 185.558594 46.355469 "/>
<path style=" stroke:none;fill-rule:nonzero;fill:rgb(100%,100%,100%);fill-opacity:1;" d="M 24.554688 512.605469 C 24.554688 517.078125 17.84375 517.078125 17.84375 512.605469 C 17.84375 508.132812 24.554688 508.132812 24.554688 512.605469 "/>
<path style=" stroke:none;fill-rule:nonzero;fill:rgb(100%,100%,100%);fill-opacity:1;" d="M 64.132812 134.238281 C 64.132812 138.710938 57.425781 138.710938 57.425781 134.238281 C 57.425781 129.765625 64.132812 129.765625 64.132812 134.238281 "/>
<path style=" stroke:none;fill-rule:nonzero;fill:rgb(100%,100%,100%);fill-opacity:1;" d="M 394.867188 102.039062 C 394.867188 106.511719 388.160156 106.511719 388.160156 102.039062 C 388.160156 97.566406 394.867188 97.566406 394.867188 102.039062 "/>
<path style=" stroke:none;fill-rule:nonzero;fill:rgb(100%,100%,100%);fill-opacity:1;" d="M 476.710938 94.65625 C 476.710938 99.128906 470.003906 99.128906 470.003906 94.65625 C 470.003906 90.1875 476.710938 90.1875 476.710938 94.65625 "/>
<path style=" stroke:none;fill-rule:nonzero;fill:rgb(100%,100%,100%);fill-opacity:1;" d="M 425.054688 151.679688 C 425.054688 156.152344 418.347656 156.152344 418.347656 151.679688 C 418.347656 147.207031 425.054688 147.207031 425.054688 151.679688 "/>
<path style=" stroke:none;fill-rule:nonzero;fill:rgb(100%,100%,100%);fill-opacity:1;" d="M 85.601562 147.65625 C 85.601562 152.128906 78.894531 152.128906 78.894531 147.65625 C 78.894531 143.183594 85.601562 143.183594 85.601562 147.65625 "/>
<path style=" stroke:none;fill-rule:nonzero;fill:rgb(100%,100%,100%);fill-opacity:1;" d="M 221.785156 144.300781 C 221.785156 148.773438 215.078125 148.773438 215.078125 144.300781 C 215.078125 139.828125 221.785156 139.828125 221.785156 144.300781 "/>
<path style=" stroke:none;fill-rule:nonzero;fill:rgb(100%,100%,100%);fill-opacity:1;" d="M 19.1875 63.800781 C 19.1875 68.269531 12.476562 68.269531 12.476562 63.800781 C 12.476562 59.328125 19.1875 59.328125 19.1875 63.800781 "/>
<path style=" stroke:none;fill-rule:nonzero;fill:rgb(100%,100%,100%);fill-opacity:1;" d="M 247.949219 36.964844 C 247.949219 41.4375 241.242188 41.4375 241.242188 36.964844 C 241.242188 32.492188 247.949219 32.492188 247.949219 36.964844 "/>
<path style=" stroke:none;fill-rule:nonzero;fill:rgb(100%,100%,100%);fill-opacity:1;" d="M 80.90625 350.257812 C 80.90625 354.726562 74.195312 354.726562 74.195312 350.257812 C 74.195312 345.785156 80.90625 345.785156 80.90625 350.257812 "/>
<path style=" stroke:none;fill-rule:nonzero;fill:rgb(100%,100%,100%);fill-opacity:1;" d="M 290.882812 425.390625 C 290.882812 429.863281 284.175781 429.863281 284.175781 425.390625 C 284.175781 420.917969 290.882812 420.917969 290.882812 425.390625 "/>
<path style=" stroke:none;fill-rule:nonzero;fill:rgb(100%,100%,100%);fill-opacity:1;" d="M 166.773438 462.289062 C 166.773438 466.761719 160.066406 466.761719 160.066406 462.289062 C 160.066406 457.816406 166.773438 457.816406 166.773438 462.289062 "/>
<path style=" stroke:none;fill-rule:nonzero;fill:rgb(100%,100%,100%);fill-opacity:1;" d="M 269.417969 27.570312 C 269.417969 32.042969 262.707031 32.042969 262.707031 27.570312 C 262.707031 23.097656 269.417969 23.097656 269.417969 27.570312 "/>
<path style=" stroke:none;fill-rule:nonzero;fill:rgb(100%,100%,100%);fill-opacity:1;" d="M 213.066406 38.976562 C 213.066406 43.449219 206.355469 43.449219 206.355469 38.976562 C 206.355469 34.503906 213.066406 34.503906 213.066406 38.976562 "/>
<path style=" stroke:none;fill-rule:nonzero;fill:rgb(100%,100%,100%);fill-opacity:1;" d="M 113.105469 364.34375 C 113.105469 368.816406 106.398438 368.816406 106.398438 364.34375 C 106.398438 359.871094 113.105469 359.871094 113.105469 364.34375 "/>
<path style=" stroke:none;fill-rule:nonzero;fill:rgb(100%,100%,100%);fill-opacity:1;" d="M 429.082031 65.8125 C 429.082031 70.285156 422.371094 70.285156 422.371094 65.8125 C 422.371094 61.339844 429.082031 61.339844 429.082031 65.8125 "/>
<path style=" stroke:none;fill-rule:nonzero;fill:rgb(100%,100%,100%);fill-opacity:1;" d="M 398.222656 144.972656 C 398.222656 149.445312 391.515625 149.445312 391.515625 144.972656 C 391.515625 140.5 398.222656 140.5 398.222656 144.972656 "/>
<path style=" stroke:none;fill-rule:nonzero;fill:rgb(100%,100%,100%);fill-opacity:1;" d="M 240.570312 81.242188 C 240.570312 85.714844 233.863281 85.714844 233.863281 81.242188 C 233.863281 76.769531 240.570312 76.769531 240.570312 81.242188 "/>
<path style=" stroke:none;fill-rule:nonzero;fill:rgb(100%,100%,100%);fill-opacity:1;" d="M 35.957031 102.710938 C 35.957031 107.179688 29.25 107.179688 29.25 102.710938 C 29.25 98.238281 35.957031 98.238281 35.957031 102.710938 "/>
<path style=" stroke:none;fill-rule:nonzero;fill:rgb(100%,100%,100%);fill-opacity:1;" d="M 467.320312 494.492188 C 467.320312 498.964844 460.613281 498.964844 460.613281 494.492188 C 460.613281 490.019531 467.320312 490.019531 467.320312 494.492188 "/>
<path style=" stroke:none;fill-rule:nonzero;fill:rgb(100%,100%,100%);fill-opacity:1;" d="M 481.410156 343.546875 C 481.410156 348.019531 474.699219 348.019531 474.699219 343.546875 C 474.699219 339.074219 481.410156 339.074219 481.410156 343.546875 "/>
<path style=" stroke:none;fill-rule:nonzero;fill:rgb(100%,100%,100%);fill-opacity:1;" d="M 18.515625 295.914062 C 18.515625 300.386719 11.808594 300.386719 11.808594 295.914062 C 11.808594 291.445312 18.515625 291.445312 18.515625 295.914062 "/>
<path style=" stroke:none;fill-rule:nonzero;fill:rgb(100%,100%,100%);fill-opacity:1;" d="M 37.300781 193.273438 C 37.300781 197.746094 30.589844 197.746094 30.589844 193.273438 C 30.589844 188.800781 37.300781 188.800781 37.300781 193.273438 "/>
<path style=" stroke:none;fill-rule:nonzero;fill:rgb(100%,100%,100%);fill-opacity:1;" d="M 384.132812 464.300781 C 384.132812 468.773438 377.425781 468.773438 377.425781 464.300781 C 377.425781 459.828125 384.132812 459.828125 384.132812 464.300781 "/>
<path style=" stroke:none;fill-rule:nonzero;fill:rgb(100%,100%,100%);fill-opacity:1;" d="M 109.082031 71.179688 C 109.082031 75.652344 102.371094 75.652344 102.371094 71.179688 C 102.371094 66.707031 109.082031 66.707031 109.082031 71.179688 "/>
<path style=" stroke:none;fill-rule:nonzero;fill:rgb(100%,100%,100%);fill-opacity:1;" d="M 139.269531 131.554688 C 139.269531 136.027344 132.5625 136.027344 132.5625 131.554688 C 132.5625 127.082031 139.269531 127.082031 139.269531 131.554688 "/>
<path style=" stroke:none;fill-rule:nonzero;fill:rgb(100%,100%,100%);fill-opacity:1;" d="M 128.535156 452.898438 C 128.535156 457.371094 121.828125 457.371094 121.828125 452.898438 C 121.828125 448.425781 128.535156 448.425781 128.535156 452.898438 "/>
<path style=" stroke:none;fill-rule:nonzero;fill:rgb(100%,100%,100%);fill-opacity:1;" d="M 264.050781 80.570312 C 264.050781 85.042969 257.339844 85.042969 257.339844 80.570312 C 257.339844 76.097656 264.050781 76.097656 264.050781 80.570312 "/>
<path style=" stroke:none;fill-rule:nonzero;fill:rgb(100%,100%,100%);fill-opacity:1;" d="M 211.050781 383.800781 C 211.050781 388.269531 204.34375 388.269531 204.34375 383.800781 C 204.34375 379.328125 211.050781 379.328125 211.050781 383.800781 "/>
<path style=" stroke:none;fill-rule:nonzero;fill:rgb(100%,100%,100%);fill-opacity:1;" d="M 109.082031 432.101562 C 109.082031 436.574219 102.371094 436.574219 102.371094 432.101562 C 102.371094 427.628906 109.082031 427.628906 109.082031 432.101562 "/>
<path style=" stroke:none;fill-rule:nonzero;fill:rgb(100%,100%,100%);fill-opacity:1;" d="M 162.078125 -0.605469 C 162.078125 3.867188 155.371094 3.867188 155.371094 -0.605469 C 155.371094 -5.078125 162.078125 -5.078125 162.078125 -0.605469 "/>
<path style=" stroke:none;fill-rule:nonzero;fill:rgb(100%,100%,100%);fill-opacity:1;" d="M 86.941406 458.265625 C 86.941406 462.738281 80.234375 462.738281 80.234375 458.265625 C 80.234375 453.792969 86.941406 453.792969 86.941406 458.265625 "/>
<path style=" stroke:none;fill-rule:nonzero;fill:rgb(100%,100%,100%);fill-opacity:1;" d="M 35.957031 66.480469 C 35.957031 70.953125 29.25 70.953125 29.25 66.480469 C 29.25 62.007812 35.957031 62.007812 35.957031 66.480469 "/>
<path style=" stroke:none;fill-rule:nonzero;fill:rgb(100%,100%,100%);fill-opacity:1;" d="M 8.453125 366.355469 C 8.453125 370.828125 1.746094 370.828125 1.746094 366.355469 C 1.746094 361.882812 8.453125 361.882812 8.453125 366.355469 "/>
<path style=" stroke:none;fill-rule:nonzero;fill:rgb(100%,100%,100%);fill-opacity:1;" d="M 334.492188 479.730469 C 334.492188 484.203125 327.78125 484.203125 327.78125 479.730469 C 327.78125 475.257812 334.492188 475.257812 334.492188 479.730469 "/>
<path style=" stroke:none;fill-rule:nonzero;fill:rgb(100%,100%,100%);fill-opacity:1;" d="M 121.828125 469.667969 C 121.828125 474.140625 115.121094 474.140625 115.121094 469.667969 C 115.121094 465.195312 121.828125 465.195312 121.828125 469.667969 "/>
<path style=" stroke:none;fill-rule:nonzero;fill:rgb(100%,100%,100%);fill-opacity:1;" d="M 376.753906 81.242188 C 376.753906 85.714844 370.046875 85.714844 370.046875 81.242188 C 370.046875 76.769531 376.753906 76.769531 376.753906 81.242188 "/>
<path style=" stroke:none;fill-rule:nonzero;fill:rgb(100%,100%,100%);fill-opacity:1;" d="M 59.4375 78.558594 C 59.4375 83.03125 52.730469 83.03125 52.730469 78.558594 C 52.730469 74.085938 59.4375 74.085938 59.4375 78.558594 "/>
<path style=" stroke:none;fill-rule:nonzero;fill:rgb(100%,100%,100%);fill-opacity:1;" d="M 458.597656 412.644531 C 458.597656 417.117188 451.890625 417.117188 451.890625 412.644531 C 451.890625 408.171875 458.597656 408.171875 458.597656 412.644531 "/>
<path style=" stroke:none;fill-rule:nonzero;fill:rgb(100%,100%,100%);fill-opacity:1;" d="M 27.90625 307.320312 C 27.90625 311.792969 21.199219 311.792969 21.199219 307.320312 C 21.199219 302.847656 27.90625 302.847656 27.90625 307.320312 "/>
<path style=" stroke:none;fill-rule:nonzero;fill:rgb(100%,84.3%,0%);fill-opacity:1;" d="M 58.527344 309.9375 C 58.527344 314.410156 51.820312 314.410156 51.820312 309.9375 C 51.820312 305.464844 58.527344 305.464844 58.527344 309.9375 "/>
<path style=" stroke:none;fill-rule:nonzero;fill:rgb(100%,84.3%,0%);fill-opacity:1;" d="M 197.917969 171.136719 C 197.917969 175.609375 191.207031 175.609375 191.207031 171.136719 C 191.207031 166.664062 197.917969 166.664062 197.917969 171.136719 "/>
<path style=" stroke:none;fill-rule:nonzero;fill:rgb(100%,84.3%,0%);fill-opacity:1;" d="M 137.488281 342.042969 C 137.488281 346.515625 130.78125 346.515625 130.78125 342.042969 C 130.78125 337.570312 137.488281 337.570312 137.488281 342.042969 "/>
<path style=" stroke:none;fill-rule:nonzero;fill:rgb(100%,84.3%,0%);fill-opacity:1;" d="M 230.84375 185.839844 C 230.84375 190.3125 224.132812 190.3125 224.132812 185.839844 C 224.132812 181.367188 230.84375 181.367188 230.84375 185.839844 "/>
<path style=" stroke:none;fill-rule:nonzero;fill:rgb(100%,84.3%,0%);fill-opacity:1;" d="M 446.101562 341.734375 C 446.101562 346.207031 439.394531 346.207031 439.394531 341.734375 C 439.394531 337.261719 446.101562 337.261719 446.101562 341.734375 "/>
<path style=" stroke:none;fill-rule:nonzero;fill:rgb(100%,84.3%,0%);fill-opacity:1;" d="M 333.484375 178.542969 C 333.484375 183.015625 326.777344 183.015625 326.777344 178.542969 C 326.777344 174.070312 333.484375 174.070312 333.484375 178.542969 "/>
<path style=" stroke:none;fill-rule:nonzero;fill:rgb(100%,84.3%,0%);fill-opacity:1;" d="M 456.691406 193.882812 C 456.691406 198.355469 449.984375 198.355469 449.984375 193.882812 C 449.984375 189.410156 456.691406 189.410156 456.691406 193.882812 "/>
<path style=" stroke:none;fill-rule:nonzero;fill:rgb(100%,84.3%,0%);fill-opacity:1;" d="M 80.355469 267.921875 C 80.355469 272.390625 73.648438 272.390625 73.648438 267.921875 C 73.648438 263.449219 80.355469 263.449219 80.355469 267.921875 "/>
<path style=" stroke:none;fill-rule:nonzero;fill:rgb(100%,84.3%,0%);fill-opacity:1;" d="M 465.359375 204.507812 C 465.359375 208.976562 458.652344 208.976562 458.652344 204.507812 C 458.652344 200.035156 465.359375 200.035156 465.359375 204.507812 "/>
<path style=" stroke:none;fill-rule:nonzero;fill:rgb(100%,84.3%,0%);fill-opacity:1;" d="M 60.585938 221.179688 C 60.585938 225.652344 53.875 225.652344 53.875 221.179688 C 53.875 216.707031 60.585938 216.707031 60.585938 221.179688 "/>
<path style=" stroke:none;fill-rule:nonzero;fill:rgb(100%,84.3%,0%);fill-opacity:1;" d="M 252.800781 189.835938 C 252.800781 194.308594 246.09375 194.308594 246.09375 189.835938 C 246.09375 185.363281 252.800781 185.363281 252.800781 189.835938 "/>
<path style=" stroke:none;fill-rule:nonzero;fill:rgb(100%,84.3%,0%);fill-opacity:1;" d="M 441.632812 169.617188 C 441.632812 174.089844 434.921875 174.089844 434.921875 169.617188 C 434.921875 165.144531 441.632812 165.144531 441.632812 169.617188 "/>
<path style=" stroke:none;fill-rule:nonzero;fill:rgb(100%,84.3%,0%);fill-opacity:1;" d="M 431.871094 170.109375 C 431.871094 174.582031 425.164062 174.582031 425.164062 170.109375 C 425.164062 165.636719 431.871094 165.636719 431.871094 170.109375 "/>
<path style=" stroke:none;fill-rule:nonzero;fill:rgb(100%,84.3%,0%);fill-opacity:1;" d="M 110.777344 329.703125 C 110.777344 334.175781 104.066406 334.175781 104.066406 329.703125 C 104.066406 325.230469 110.777344 325.230469 110.777344 329.703125 "/>
<path style=" stroke:none;fill-rule:nonzero;fill:rgb(100%,84.3%,0%);fill-opacity:1;" d="M 131.46875 333.539062 C 131.46875 338.011719 124.761719 338.011719 124.761719 333.539062 C 124.761719 329.066406 131.46875 329.066406 131.46875 333.539062 "/>
<path style=" stroke:none;fill-rule:nonzero;fill:rgb(100%,84.3%,0%);fill-opacity:1;" d="M 398.90625 169.546875 C 398.90625 174.015625 392.195312 174.015625 392.195312 169.546875 C 392.195312 165.074219 398.90625 165.074219 398.90625 169.546875 "/>
<path style=" stroke:none;fill-rule:nonzero;fill:rgb(100%,84.3%,0%);fill-opacity:1;" d="M 53.664062 194.132812 C 53.664062 198.605469 46.957031 198.605469 46.957031 194.132812 C 46.957031 189.660156 53.664062 189.660156 53.664062 194.132812 "/>
<path style=" stroke:none;fill-rule:nonzero;fill:rgb(100%,84.3%,0%);fill-opacity:1;" d="M 71.285156 180.96875 C 71.285156 185.441406 64.574219 185.441406 64.574219 180.96875 C 64.574219 176.496094 71.285156 176.496094 71.285156 180.96875 "/>
<path style=" stroke:none;fill-rule:nonzero;fill:rgb(100%,84.3%,0%);fill-opacity:1;" d="M 53.054688 273.816406 C 53.054688 278.289062 46.34375 278.289062 46.34375 273.816406 C 46.34375 269.34375 53.054688 269.34375 53.054688 273.816406 "/>
<path style=" stroke:none;fill-rule:nonzero;fill:rgb(100%,84.3%,0%);fill-opacity:1;" d="M 222.957031 171.621094 C 222.957031 176.09375 216.25 176.09375 216.25 171.621094 C 216.25 167.152344 222.957031 167.152344 222.957031 171.621094 "/>
<path style=" stroke:none;fill-rule:nonzero;fill:rgb(100%,84.3%,0%);fill-opacity:1;" d="M 117.734375 342.699219 C 117.734375 347.171875 111.027344 347.171875 111.027344 342.699219 C 111.027344 338.226562 117.734375 338.226562 117.734375 342.699219 "/>
<path style=" stroke:none;fill-rule:nonzero;fill:rgb(100%,84.3%,0%);fill-opacity:1;" d="M 323.3125 187.945312 C 323.3125 192.417969 316.605469 192.417969 316.605469 187.945312 C 316.605469 183.472656 323.3125 183.472656 323.3125 187.945312 "/>
<path style=" stroke:none;fill-rule:nonzero;fill:rgb(100%,84.3%,0%);fill-opacity:1;" d="M 156.933594 175.066406 C 156.933594 179.539062 150.226562 179.539062 150.226562 175.066406 C 150.226562 170.59375 156.933594 170.59375 156.933594 175.066406 "/>
<path style=" stroke:none;fill-rule:nonzero;fill:rgb(100%,84.3%,0%);fill-opacity:1;" d="M 465.175781 169.527344 C 465.175781 174 458.46875 174 458.46875 169.527344 C 458.46875 165.054688 465.175781 165.054688 465.175781 169.527344 "/>
<path style=" stroke:none;fill-rule:nonzero;fill:rgb(100%,84.3%,0%);fill-opacity:1;" d="M 65.882812 201.808594 C 65.882812 206.28125 59.171875 206.28125 59.171875 201.808594 C 59.171875 197.335938 65.882812 197.335938 65.882812 201.808594 "/>
<path style=" stroke:none;fill-rule:nonzero;fill:rgb(100%,84.3%,0%);fill-opacity:1;" d="M 341.683594 338.5625 C 341.683594 343.035156 334.972656 343.035156 334.972656 338.5625 C 334.972656 334.089844 341.683594 334.089844 341.683594 338.5625 "/>
<path style=" stroke:none;fill-rule:nonzero;fill:rgb(100%,84.3%,0%);fill-opacity:1;" d="M 375.929688 342.566406 C 375.929688 347.039062 369.222656 347.039062 369.222656 342.566406 C 369.222656 338.09375 375.929688 338.09375 375.929688 342.566406 "/>
<path style=" stroke:none;fill-rule:nonzero;fill:rgb(100%,84.3%,0%);fill-opacity:1;" d="M 312.402344 340.042969 C 312.402344 344.515625 305.695312 344.515625 305.695312 340.042969 C 305.695312 335.570312 312.402344 335.570312 312.402344 340.042969 "/>
<path style=" stroke:none;fill-rule:nonzero;fill:rgb(100%,84.3%,0%);fill-opacity:1;" d="M 153.492188 197.050781 C 153.492188 201.519531 146.78125 201.519531 146.78125 197.050781 C 146.78125 192.578125 153.492188 192.578125 153.492188 197.050781 "/>
<path style=" stroke:none;fill-rule:nonzero;fill:rgb(100%,84.3%,0%);fill-opacity:1;" d="M 62.902344 333.472656 C 62.902344 337.945312 56.195312 337.945312 56.195312 333.472656 C 56.195312 329 62.902344 329 62.902344 333.472656 "/>
<path style=" stroke:none;fill-rule:nonzero;fill:rgb(100%,84.3%,0%);fill-opacity:1;" d="M 465.894531 326.9375 C 465.894531 331.410156 459.1875 331.410156 459.1875 326.9375 C 459.1875 322.464844 465.894531 322.464844 465.894531 326.9375 "/>
<path style=" stroke:none;fill-rule:nonzero;fill:rgb(100%,84.3%,0%);fill-opacity:1;" d="M 163.578125 171.796875 C 163.578125 176.269531 156.871094 176.269531 156.871094 171.796875 C 156.871094 167.324219 163.578125 167.324219 163.578125 171.796875 "/>
<path style=" stroke:none;fill-rule:nonzero;fill:rgb(100%,84.3%,0%);fill-opacity:1;" d="M 57.5 180.5625 C 57.5 185.035156 50.789062 185.035156 50.789062 180.5625 C 50.789062 176.089844 57.5 176.089844 57.5 180.5625 "/>
<path style=" stroke:none;fill-rule:nonzero;fill:rgb(100%,84.3%,0%);fill-opacity:1;" d="M 301.691406 182.800781 C 301.691406 187.273438 294.984375 187.273438 294.984375 182.800781 C 294.984375 178.328125 301.691406 178.328125 301.691406 182.800781 "/>
<path style=" stroke:none;fill-rule:nonzero;fill:rgb(100%,84.3%,0%);fill-opacity:1;" d="M 66.347656 246.675781 C 66.347656 251.148438 59.640625 251.148438 59.640625 246.675781 C 59.640625 242.203125 66.347656 242.203125 66.347656 246.675781 "/>
<path style=" stroke:none;fill-rule:nonzero;fill:rgb(100%,84.3%,0%);fill-opacity:1;" d="M 57.902344 256.894531 C 57.902344 261.367188 51.195312 261.367188 51.195312 256.894531 C 51.195312 252.421875 57.902344 252.421875 57.902344 256.894531 "/>
<path style=" stroke:none;fill-rule:nonzero;fill:rgb(100%,84.3%,0%);fill-opacity:1;" d="M 173.289062 335.492188 C 173.289062 339.964844 166.578125 339.964844 166.578125 335.492188 C 166.578125 331.019531 173.289062 331.019531 173.289062 335.492188 "/>
<path style=" stroke:none;fill-rule:nonzero;fill:rgb(100%,84.3%,0%);fill-opacity:1;" d="M 342.855469 169.632812 C 342.855469 174.105469 336.148438 174.105469 336.148438 169.632812 C 336.148438 165.160156 342.855469 165.160156 342.855469 169.632812 "/>
<path style=" stroke:none;fill-rule:nonzero;fill:rgb(100%,84.3%,0%);fill-opacity:1;" d="M 62.957031 213.496094 C 62.957031 217.96875 56.246094 217.96875 56.246094 213.496094 C 56.246094 209.027344 62.957031 209.027344 62.957031 213.496094 "/>
<path style=" stroke:none;fill-rule:nonzero;fill:rgb(100%,84.3%,0%);fill-opacity:1;" d="M 387.46875 178.699219 C 387.46875 183.171875 380.757812 183.171875 380.757812 178.699219 C 380.757812 174.226562 387.46875 174.226562 387.46875 178.699219 "/>
<path style=" stroke:none;fill-rule:nonzero;fill:rgb(100%,84.3%,0%);fill-opacity:1;" d="M 410.964844 169.132812 C 410.964844 173.605469 404.253906 173.605469 404.253906 169.132812 C 404.253906 164.660156 410.964844 164.660156 410.964844 169.132812 "/>
<path style=" stroke:none;fill-rule:nonzero;fill:rgb(100%,84.3%,0%);fill-opacity:1;" d="M 55.699219 187.511719 C 55.699219 191.984375 48.988281 191.984375 48.988281 187.511719 C 48.988281 183.039062 55.699219 183.039062 55.699219 187.511719 "/>
<path style=" stroke:none;fill-rule:nonzero;fill:rgb(100%,84.3%,0%);fill-opacity:1;" d="M 323.679688 322.710938 C 323.679688 327.183594 316.972656 327.183594 316.972656 322.710938 C 316.972656 318.238281 323.679688 318.238281 323.679688 322.710938 "/>
<path style=" stroke:none;fill-rule:nonzero;fill:rgb(100%,84.3%,0%);fill-opacity:1;" d="M 253.765625 177.007812 C 253.765625 181.480469 247.058594 181.480469 247.058594 177.007812 C 247.058594 172.535156 253.765625 172.535156 253.765625 177.007812 "/>
<path style=" stroke:none;fill-rule:nonzero;fill:rgb(100%,84.3%,0%);fill-opacity:1;" d="M 290.78125 334.898438 C 290.78125 339.371094 284.074219 339.371094 284.074219 334.898438 C 284.074219 330.425781 290.78125 330.425781 290.78125 334.898438 "/>
<path style=" stroke:none;fill-rule:nonzero;fill:rgb(100%,84.3%,0%);fill-opacity:1;" d="M 212.824219 340.550781 C 212.824219 345.023438 206.117188 345.023438 206.117188 340.550781 C 206.117188 336.078125 212.824219 336.078125 212.824219 340.550781 "/>
<path style=" stroke:none;fill-rule:nonzero;fill:rgb(100%,84.3%,0%);fill-opacity:1;" d="M 77.464844 177.046875 C 77.464844 181.515625 70.757812 181.515625 70.757812 177.046875 C 70.757812 172.574219 77.464844 172.574219 77.464844 177.046875 "/>
<path style=" stroke:none;fill-rule:nonzero;fill:rgb(100%,84.3%,0%);fill-opacity:1;" d="M 70.894531 172.550781 C 70.894531 177.023438 64.1875 177.023438 64.1875 172.550781 C 64.1875 168.078125 70.894531 168.078125 70.894531 172.550781 "/>
<path style=" stroke:none;fill-rule:nonzero;fill:rgb(100%,84.3%,0%);fill-opacity:1;" d="M 404.78125 173.058594 C 404.78125 177.53125 398.074219 177.53125 398.074219 173.058594 C 398.074219 168.585938 404.78125 168.585938 404.78125 173.058594 "/>
<path style=" stroke:none;fill-rule:nonzero;fill:rgb(100%,84.3%,0%);fill-opacity:1;" d="M 393.617188 342.152344 C 393.617188 346.625 386.90625 346.625 386.90625 342.152344 C 386.90625 337.679688 393.617188 337.679688 393.617188 342.152344 "/>
<path style=" stroke:none;fill-rule:nonzero;fill:rgb(100%,84.3%,0%);fill-opacity:1;" d="M 267.859375 169.976562 C 267.859375 174.449219 261.148438 174.449219 261.148438 169.976562 C 261.148438 165.503906 267.859375 165.503906 267.859375 169.976562 "/>
<path style=" stroke:none;fill-rule:nonzero;fill:rgb(100%,84.3%,0%);fill-opacity:1;" d="M 176.257812 180.128906 C 176.257812 184.601562 169.546875 184.601562 169.546875 180.128906 C 169.546875 175.65625 176.257812 175.65625 176.257812 180.128906 "/>
<path style=" stroke:none;fill-rule:nonzero;fill:rgb(100%,84.3%,0%);fill-opacity:1;" d="M 458.53125 172.796875 C 458.53125 177.269531 451.824219 177.269531 451.824219 172.796875 C 451.824219 168.324219 458.53125 168.324219 458.53125 172.796875 "/>
<path style=" stroke:none;fill-rule:nonzero;fill:rgb(100%,84.3%,0%);fill-opacity:1;" d="M 70.199219 236.296875 C 70.199219 240.769531 63.488281 240.769531 63.488281 236.296875 C 63.488281 231.824219 70.199219 231.824219 70.199219 236.296875 "/>
<path style=" stroke:none;fill-rule:nonzero;fill:rgb(100%,84.3%,0%);fill-opacity:1;" d="M 385.425781 335.371094 C 385.425781 339.84375 378.714844 339.84375 378.714844 335.371094 C 378.714844 330.898438 385.425781 330.898438 385.425781 335.371094 "/>
<path style=" stroke:none;fill-rule:nonzero;fill:rgb(100%,84.3%,0%);fill-opacity:1;" d="M 66.199219 327.015625 C 66.199219 331.488281 59.488281 331.488281 59.488281 327.015625 C 59.488281 322.542969 66.199219 322.542969 66.199219 327.015625 "/>
<path style=" stroke:none;fill-rule:nonzero;fill:rgb(100%,84.3%,0%);fill-opacity:1;" d="M 143.808594 169.265625 C 143.808594 173.738281 137.101562 173.738281 137.101562 169.265625 C 137.101562 164.792969 143.808594 164.792969 143.808594 169.265625 "/>
<path style=" stroke:none;fill-rule:nonzero;fill:rgb(100%,84.3%,0%);fill-opacity:1;" d="M 77.703125 330.613281 C 77.703125 335.085938 70.996094 335.085938 70.996094 330.613281 C 70.996094 326.140625 77.703125 326.140625 77.703125 330.613281 "/>
<path style=" stroke:none;fill-rule:nonzero;fill:rgb(100%,84.3%,0%);fill-opacity:1;" d="M 226.039062 341.777344 C 226.039062 346.25 219.332031 346.25 219.332031 341.777344 C 219.332031 337.304688 226.039062 337.304688 226.039062 341.777344 "/>
<path style=" stroke:none;fill-rule:nonzero;fill:rgb(100%,84.3%,0%);fill-opacity:1;" d="M 53.0625 297.515625 C 53.0625 301.988281 46.355469 301.988281 46.355469 297.515625 C 46.355469 293.042969 53.0625 293.042969 53.0625 297.515625 "/>
<path style=" stroke:none;fill-rule:nonzero;fill:rgb(100%,84.3%,0%);fill-opacity:1;" d="M 197.15625 331.15625 C 197.15625 335.628906 190.445312 335.628906 190.445312 331.15625 C 190.445312 326.683594 197.15625 326.683594 197.15625 331.15625 "/>
<path style=" stroke:none;fill-rule:nonzero;fill:rgb(100%,84.3%,0%);fill-opacity:1;" d="M 465.25 335.519531 C 465.25 339.992188 458.542969 339.992188 458.542969 335.519531 C 458.542969 331.046875 465.25 331.046875 465.25 335.519531 "/>
<path style=" stroke:none;fill-rule:nonzero;fill:rgb(100%,84.3%,0%);fill-opacity:1;" d="M 75.457031 340.09375 C 75.457031 344.566406 68.746094 344.566406 68.746094 340.09375 C 68.746094 335.621094 75.457031 335.621094 75.457031 340.09375 "/>
<path style=" stroke:none;fill-rule:nonzero;fill:rgb(100%,84.3%,0%);fill-opacity:1;" d="M 146.023438 327.164062 C 146.023438 331.636719 139.316406 331.636719 139.316406 327.164062 C 139.316406 322.691406 146.023438 322.691406 146.023438 327.164062 "/>
<path style=" stroke:none;fill-rule:nonzero;fill:rgb(100%,84.3%,0%);fill-opacity:1;" d="M 242.335938 339.402344 C 242.335938 343.875 235.628906 343.875 235.628906 339.402344 C 235.628906 334.929688 242.335938 334.929688 242.335938 339.402344 "/>
<path style=" stroke:none;fill-rule:nonzero;fill:rgb(100%,84.3%,0%);fill-opacity:1;" d="M 163.03125 328.957031 C 163.03125 333.429688 156.324219 333.429688 156.324219 328.957031 C 156.324219 324.484375 163.03125 324.484375 163.03125 328.957031 "/>
<path style=" stroke:none;fill-rule:nonzero;fill:rgb(100%,84.3%,0%);fill-opacity:1;" d="M 103.613281 169.601562 C 103.613281 174.074219 96.90625 174.074219 96.90625 169.601562 C 96.90625 165.128906 103.613281 165.128906 103.613281 169.601562 "/>
<path style=" stroke:none;fill-rule:nonzero;fill:rgb(100%,84.3%,0%);fill-opacity:1;" d="M 380.203125 173.226562 C 380.203125 177.699219 373.496094 177.699219 373.496094 173.226562 C 373.496094 168.753906 380.203125 168.753906 380.203125 173.226562 "/>
<path style=" stroke:none;fill-rule:nonzero;fill:rgb(100%,84.3%,0%);fill-opacity:1;" d="M 114.710938 335.261719 C 114.710938 339.734375 108.003906 339.734375 108.003906 335.261719 C 108.003906 330.789062 114.710938 330.789062 114.710938 335.261719 "/>
<path style=" stroke:none;fill-rule:nonzero;fill:rgb(100%,84.3%,0%);fill-opacity:1;" d="M 205.628906 174.074219 C 205.628906 178.546875 198.917969 178.546875 198.917969 174.074219 C 198.917969 169.605469 205.628906 169.605469 205.628906 174.074219 "/>
<path style=" stroke:none;fill-rule:nonzero;fill:rgb(100%,84.3%,0%);fill-opacity:1;" d="M 53.875 211.785156 C 53.875 216.257812 47.164062 216.257812 47.164062 211.785156 C 47.164062 207.3125 53.875 207.3125 53.875 211.785156 "/>
<path style=" stroke:none;fill-rule:nonzero;fill:rgb(100%,84.3%,0%);fill-opacity:1;" d="M 61.546875 273.074219 C 61.546875 277.546875 54.839844 277.546875 54.839844 273.074219 C 54.839844 268.601562 61.546875 268.601562 61.546875 273.074219 "/>
<path style=" stroke:none;fill-rule:nonzero;fill:rgb(100%,84.3%,0%);fill-opacity:1;" d="M 231.347656 172.355469 C 231.347656 176.828125 224.636719 176.828125 224.636719 172.355469 C 224.636719 167.882812 231.347656 167.882812 231.347656 172.355469 "/>
<path style=" stroke:none;fill-rule:nonzero;fill:rgb(100%,84.3%,0%);fill-opacity:1;" d="M 371.996094 337.007812 C 371.996094 341.480469 365.289062 341.480469 365.289062 337.007812 C 365.289062 332.535156 371.996094 332.535156 371.996094 337.007812 "/>
<path style=" stroke:none;fill-rule:nonzero;fill:rgb(100%,84.3%,0%);fill-opacity:1;" d="M 67.984375 187.339844 C 67.984375 191.8125 61.277344 191.8125 61.277344 187.339844 C 61.277344 182.867188 67.984375 182.867188 67.984375 187.339844 "/>
<path style=" stroke:none;fill-rule:nonzero;fill:rgb(100%,84.3%,0%);fill-opacity:1;" d="M 277.632812 172.671875 C 277.632812 177.144531 270.925781 177.144531 270.925781 172.671875 C 270.925781 168.199219 277.632812 168.199219 277.632812 172.671875 "/>
<path style=" stroke:none;fill-rule:nonzero;fill:rgb(100%,84.3%,0%);fill-opacity:1;" d="M 124.289062 170.253906 C 124.289062 174.726562 117.582031 174.726562 117.582031 170.253906 C 117.582031 165.78125 124.289062 165.78125 124.289062 170.253906 "/>
<path style=" stroke:none;fill-rule:nonzero;fill:rgb(100%,84.3%,0%);fill-opacity:1;" d="M 363.046875 186.953125 C 363.046875 191.425781 356.339844 191.425781 356.339844 186.953125 C 356.339844 182.484375 363.046875 182.484375 363.046875 186.953125 "/>
<path style=" stroke:none;fill-rule:nonzero;fill:rgb(100%,84.3%,0%);fill-opacity:1;" d="M 198.074219 179.226562 C 198.074219 183.699219 191.367188 183.699219 191.367188 179.226562 C 191.367188 174.753906 198.074219 174.753906 198.074219 179.226562 "/>
<path style=" stroke:none;fill-rule:nonzero;fill:rgb(100%,84.3%,0%);fill-opacity:1;" d="M 106.355469 340.902344 C 106.355469 345.375 99.648438 345.375 99.648438 340.902344 C 99.648438 336.429688 106.355469 336.429688 106.355469 340.902344 "/>
<path style=" stroke:none;fill-rule:nonzero;fill:rgb(100%,84.3%,0%);fill-opacity:1;" d="M 149.933594 176.292969 C 149.933594 180.765625 143.226562 180.765625 143.226562 176.292969 C 143.226562 171.820312 149.933594 171.820312 149.933594 176.292969 "/>
<path style=" stroke:none;fill-rule:nonzero;fill:rgb(100%,84.3%,0%);fill-opacity:1;" d="M 147.925781 339.34375 C 147.925781 343.8125 141.21875 343.8125 141.21875 339.34375 C 141.21875 334.871094 147.925781 334.871094 147.925781 339.34375 "/>
<path style=" stroke:none;fill-rule:nonzero;fill:rgb(100%,84.3%,0%);fill-opacity:1;" d="M 438.871094 342.636719 C 438.871094 347.105469 432.164062 347.105469 432.164062 342.636719 C 432.164062 338.164062 438.871094 338.164062 438.871094 342.636719 "/>
<path style=" stroke:none;fill-rule:nonzero;fill:rgb(100%,84.3%,0%);fill-opacity:1;" d="M 386.152344 342.726562 C 386.152344 347.199219 379.445312 347.199219 379.445312 342.726562 C 379.445312 338.253906 386.152344 338.253906 386.152344 342.726562 "/>
<path style=" stroke:none;fill-rule:nonzero;fill:rgb(100%,84.3%,0%);fill-opacity:1;" d="M 82.671875 336.003906 C 82.671875 340.476562 75.960938 340.476562 75.960938 336.003906 C 75.960938 331.53125 82.671875 331.53125 82.671875 336.003906 "/>
<path style=" stroke:none;fill-rule:nonzero;fill:rgb(100%,84.3%,0%);fill-opacity:1;" d="M 78.820312 281.570312 C 78.820312 286.042969 72.113281 286.042969 72.113281 281.570312 C 72.113281 277.097656 78.820312 277.097656 78.820312 281.570312 "/>
<path style=" stroke:none;fill-rule:nonzero;fill:rgb(100%,84.3%,0%);fill-opacity:1;" d="M 272.378906 177.902344 C 272.378906 182.375 265.671875 182.375 265.671875 177.902344 C 265.671875 173.429688 272.378906 173.429688 272.378906 177.902344 "/>
<path style=" stroke:none;fill-rule:nonzero;fill:rgb(100%,84.3%,0%);fill-opacity:1;" d="M 452.996094 341.980469 C 452.996094 346.453125 446.285156 346.453125 446.285156 341.980469 C 446.285156 337.507812 452.996094 337.507812 452.996094 341.980469 "/>
<path style=" stroke:none;fill-rule:nonzero;fill:rgb(100%,84.3%,0%);fill-opacity:1;" d="M 127.496094 342.207031 C 127.496094 346.679688 120.789062 346.679688 120.789062 342.207031 C 120.789062 337.734375 127.496094 337.734375 127.496094 342.207031 "/>
<path style=" stroke:none;fill-rule:nonzero;fill:rgb(100%,84.3%,0%);fill-opacity:1;" d="M 82.953125 172.140625 C 82.953125 176.613281 76.242188 176.613281 76.242188 172.140625 C 76.242188 167.667969 82.953125 167.667969 82.953125 172.140625 "/>
<path style=" stroke:none;fill-rule:nonzero;fill:rgb(100%,84.3%,0%);fill-opacity:1;" d="M 100.125 335.265625 C 100.125 339.738281 93.414062 339.738281 93.414062 335.265625 C 93.414062 330.792969 100.125 330.792969 100.125 335.265625 "/>
<path style=" stroke:none;fill-rule:nonzero;fill:rgb(100%,84.3%,0%);fill-opacity:1;" d="M 68.316406 271.519531 C 68.316406 275.992188 61.609375 275.992188 61.609375 271.519531 C 61.609375 267.046875 68.316406 267.046875 68.316406 271.519531 "/>
<path style=" stroke:none;fill-rule:nonzero;fill:rgb(100%,84.3%,0%);fill-opacity:1;" d="M 243.347656 182.894531 C 243.347656 187.367188 236.640625 187.367188 236.640625 182.894531 C 236.640625 178.421875 243.347656 178.421875 243.347656 182.894531 "/>
<path style=" stroke:none;fill-rule:nonzero;fill:rgb(100%,84.3%,0%);fill-opacity:1;" d="M 85.234375 342.789062 C 85.234375 347.261719 78.523438 347.261719 78.523438 342.789062 C 78.523438 338.316406 85.234375 338.316406 85.234375 342.789062 "/>
<path style=" stroke:none;fill-rule:nonzero;fill:rgb(100%,84.3%,0%);fill-opacity:1;" d="M 87.539062 192.730469 C 87.539062 197.203125 80.832031 197.203125 80.832031 192.730469 C 80.832031 188.257812 87.539062 188.257812 87.539062 192.730469 "/>
<path style=" stroke:none;fill-rule:nonzero;fill:rgb(100%,84.3%,0%);fill-opacity:1;" d="M 465.398438 319.90625 C 465.398438 324.378906 458.691406 324.378906 458.691406 319.90625 C 458.691406 315.4375 465.398438 315.4375 465.398438 319.90625 "/>
<path style=" stroke:none;fill-rule:nonzero;fill:rgb(100%,84.3%,0%);fill-opacity:1;" d="M 56.058594 342.792969 C 56.058594 347.265625 49.351562 347.265625 49.351562 342.792969 C 49.351562 338.320312 56.058594 338.320312 56.058594 342.792969 "/>
<path style=" stroke:none;fill-rule:nonzero;fill:rgb(100%,84.3%,0%);fill-opacity:1;" d="M 152.246094 309.015625 C 152.246094 313.488281 145.535156 313.488281 145.535156 309.015625 C 145.535156 304.542969 152.246094 304.542969 152.246094 309.015625 "/>
<path style=" stroke:none;fill-rule:nonzero;fill:rgb(100%,84.3%,0%);fill-opacity:1;" d="M 56.964844 231.886719 C 56.964844 236.355469 50.257812 236.355469 50.257812 231.886719 C 50.257812 227.414062 56.964844 227.414062 56.964844 231.886719 "/>
<path style=" stroke:none;fill-rule:nonzero;fill:rgb(100%,84.3%,0%);fill-opacity:1;" d="M 96.132812 340.742188 C 96.132812 345.214844 89.425781 345.214844 89.425781 340.742188 C 89.425781 336.269531 96.132812 336.269531 96.132812 340.742188 "/>
<path style=" stroke:none;fill-rule:nonzero;fill:rgb(100%,84.3%,0%);fill-opacity:1;" d="M 421.417969 169.621094 C 421.417969 174.09375 414.707031 174.09375 414.707031 169.621094 C 414.707031 165.152344 421.417969 165.152344 421.417969 169.621094 "/>
<path style=" stroke:none;fill-rule:nonzero;fill:rgb(100%,84.3%,0%);fill-opacity:1;" d="M 276.117188 298.449219 C 276.117188 302.921875 269.410156 302.921875 269.410156 298.449219 C 269.410156 293.976562 276.117188 293.976562 276.117188 298.449219 "/>
<path style=" stroke:none;fill-rule:nonzero;fill:rgb(100%,84.3%,0%);fill-opacity:1;" d="M 448.796875 329.71875 C 448.796875 334.191406 442.085938 334.191406 442.085938 329.71875 C 442.085938 325.246094 448.796875 325.246094 448.796875 329.71875 "/>
<path style=" stroke:none;fill-rule:nonzero;fill:rgb(100%,84.3%,0%);fill-opacity:1;" d="M 212.449219 182.085938 C 212.449219 186.554688 205.738281 186.554688 205.738281 182.085938 C 205.738281 177.613281 212.449219 177.613281 212.449219 182.085938 "/>
<path style=" stroke:none;fill-rule:nonzero;fill:rgb(100%,84.3%,0%);fill-opacity:1;" d="M 285.3125 169.234375 C 285.3125 173.707031 278.605469 173.707031 278.605469 169.234375 C 278.605469 164.761719 285.3125 164.761719 285.3125 169.234375 "/>
<path style=" stroke:none;fill-rule:nonzero;fill:rgb(100%,84.3%,0%);fill-opacity:1;" d="M 300.0625 330.5625 C 300.0625 335.035156 293.355469 335.035156 293.355469 330.5625 C 293.355469 326.089844 300.0625 326.089844 300.0625 330.5625 "/>
<path style=" stroke:none;fill-rule:nonzero;fill:rgb(100%,84.3%,0%);fill-opacity:1;" d="M 184.644531 180.863281 C 184.644531 185.335938 177.9375 185.335938 177.9375 180.863281 C 177.9375 176.390625 184.644531 176.390625 184.644531 180.863281 "/>
<path style=" stroke:none;fill-rule:nonzero;fill:rgb(100%,84.3%,0%);fill-opacity:1;" d="M 131.882812 324.632812 C 131.882812 329.101562 125.175781 329.101562 125.175781 324.632812 C 125.175781 320.160156 131.882812 320.160156 131.882812 324.632812 "/>
<path style=" stroke:none;fill-rule:nonzero;fill:rgb(100%,84.3%,0%);fill-opacity:1;" d="M 70.988281 212.101562 C 70.988281 216.574219 64.28125 216.574219 64.28125 212.101562 C 64.28125 207.628906 70.988281 207.628906 70.988281 212.101562 "/>
<path style=" stroke:none;fill-rule:nonzero;fill:rgb(100%,84.3%,0%);fill-opacity:1;" d="M 170.828125 174.082031 C 170.828125 178.554688 164.117188 178.554688 164.117188 174.082031 C 164.117188 169.609375 170.828125 169.609375 170.828125 174.082031 "/>
<path style=" stroke:none;fill-rule:nonzero;fill:rgb(100%,84.3%,0%);fill-opacity:1;" d="M 367.898438 170.121094 C 367.898438 174.59375 361.1875 174.59375 361.1875 170.121094 C 361.1875 165.648438 367.898438 165.648438 367.898438 170.121094 "/>
<path style=" stroke:none;fill-rule:nonzero;fill:rgb(100%,84.3%,0%);fill-opacity:1;" d="M 119.34375 321.199219 C 119.34375 325.671875 112.636719 325.671875 112.636719 321.199219 C 112.636719 316.726562 119.34375 316.726562 119.34375 321.199219 "/>
<path style=" stroke:none;fill-rule:nonzero;fill:rgb(100%,84.3%,0%);fill-opacity:1;" d="M 163.734375 179.886719 C 163.734375 184.355469 157.027344 184.355469 157.027344 179.886719 C 157.027344 175.414062 163.734375 175.414062 163.734375 179.886719 "/>
<path style=" stroke:none;fill-rule:nonzero;fill:rgb(100%,84.3%,0%);fill-opacity:1;" d="M 112.695312 171.316406 C 112.695312 175.789062 105.988281 175.789062 105.988281 171.316406 C 105.988281 166.84375 112.695312 166.84375 112.695312 171.316406 "/>
<path style=" stroke:none;fill-rule:nonzero;fill:rgb(100%,84.3%,0%);fill-opacity:1;" d="M 54.445312 319.988281 C 54.445312 324.460938 47.738281 324.460938 47.738281 319.988281 C 47.738281 315.519531 54.445312 315.519531 54.445312 319.988281 "/>
<path style=" stroke:none;fill-rule:nonzero;fill:rgb(100%,84.3%,0%);fill-opacity:1;" d="M 62.316406 266.292969 C 62.316406 270.765625 55.609375 270.765625 55.609375 266.292969 C 55.609375 261.820312 62.316406 261.820312 62.316406 266.292969 "/>
<path style=" stroke:none;fill-rule:nonzero;fill:rgb(100%,84.3%,0%);fill-opacity:1;" d="M 414.507812 339.941406 C 414.507812 344.414062 407.800781 344.414062 407.800781 339.941406 C 407.800781 335.46875 414.507812 335.46875 414.507812 339.941406 "/>
<path style=" stroke:none;fill-rule:nonzero;fill:rgb(100%,84.3%,0%);fill-opacity:1;" d="M 350.195312 341.097656 C 350.195312 345.570312 343.488281 345.570312 343.488281 341.097656 C 343.488281 336.625 350.195312 336.625 350.195312 341.097656 "/>
<path style=" stroke:none;fill-rule:nonzero;fill:rgb(100%,84.3%,0%);fill-opacity:1;" d="M 334.21875 339.140625 C 334.21875 343.613281 327.511719 343.613281 327.511719 339.140625 C 327.511719 334.667969 334.21875 334.667969 334.21875 339.140625 "/>
<path style=" stroke:none;fill-rule:nonzero;fill:rgb(100%,84.3%,0%);fill-opacity:1;" d="M 351.03125 173.226562 C 351.03125 177.699219 344.320312 177.699219 344.320312 173.226562 C 344.320312 168.753906 351.03125 168.753906 351.03125 173.226562 "/>
<path style=" stroke:none;fill-rule:nonzero;fill:rgb(100%,84.3%,0%);fill-opacity:1;" d="M 54.175781 333.800781 C 54.175781 338.273438 47.464844 338.273438 47.464844 333.800781 C 47.464844 329.328125 54.175781 329.328125 54.175781 333.800781 "/>
<path style=" stroke:none;fill-rule:nonzero;fill:rgb(100%,84.3%,0%);fill-opacity:1;" d="M 171.867188 327.15625 C 171.867188 331.628906 165.15625 331.628906 165.15625 327.15625 C 165.15625 322.683594 171.867188 322.683594 171.867188 327.15625 "/>
<path style=" stroke:none;fill-rule:nonzero;fill:rgb(100%,84.3%,0%);fill-opacity:1;" d="M 87.917969 177.53125 C 87.917969 182.003906 81.210938 182.003906 81.210938 177.53125 C 81.210938 173.0625 87.917969 173.0625 87.917969 177.53125 "/>
<path style=" stroke:none;fill-rule:nonzero;fill:rgb(100%,84.3%,0%);fill-opacity:1;" d="M 70.929688 287.867188 C 70.929688 292.339844 64.222656 292.339844 64.222656 287.867188 C 64.222656 283.394531 70.929688 283.394531 70.929688 287.867188 "/>
<path style=" stroke:none;fill-rule:nonzero;fill:rgb(100%,84.3%,0%);fill-opacity:1;" d="M 353.074219 190.308594 C 353.074219 194.78125 346.363281 194.78125 346.363281 190.308594 C 346.363281 185.835938 353.074219 185.835938 353.074219 190.308594 "/>
<path style=" stroke:none;fill-rule:nonzero;fill:rgb(100%,84.3%,0%);fill-opacity:1;" d="M 77.941406 310.339844 C 77.941406 314.808594 71.230469 314.808594 71.230469 310.339844 C 71.230469 305.867188 77.941406 305.867188 77.941406 310.339844 "/>
<path style=" stroke:none;fill-rule:nonzero;fill:rgb(100%,84.3%,0%);fill-opacity:1;" d="M 187.105469 342.273438 C 187.105469 346.746094 180.398438 346.746094 180.398438 342.273438 C 180.398438 337.800781 187.105469 337.800781 187.105469 342.273438 "/>
<path style=" stroke:none;fill-rule:nonzero;fill:rgb(100%,84.3%,0%);fill-opacity:1;" d="M 322.359375 333.5 C 322.359375 337.972656 315.652344 337.972656 315.652344 333.5 C 315.652344 329.027344 322.359375 329.027344 322.359375 333.5 "/>
<path style=" stroke:none;fill-rule:nonzero;fill:rgb(100%,84.3%,0%);fill-opacity:1;" d="M 465.757812 301.4375 C 465.757812 305.910156 459.050781 305.910156 459.050781 301.4375 C 459.050781 296.964844 465.757812 296.964844 465.757812 301.4375 "/>
<path style=" stroke:none;fill-rule:nonzero;fill:rgb(100%,84.3%,0%);fill-opacity:1;" d="M 438.144531 335.277344 C 438.144531 339.75 431.433594 339.75 431.433594 335.277344 C 431.433594 330.804688 438.144531 330.804688 438.144531 335.277344 "/>
<path style=" stroke:none;fill-rule:nonzero;fill:rgb(100%,84.3%,0%);fill-opacity:1;" d="M 349.449219 330.554688 C 349.449219 335.027344 342.742188 335.027344 342.742188 330.554688 C 342.742188 326.082031 349.449219 326.082031 349.449219 330.554688 "/>
<path style=" stroke:none;fill-rule:nonzero;fill:rgb(100%,84.3%,0%);fill-opacity:1;" d="M 451.625 169.453125 C 451.625 173.925781 444.914062 173.925781 444.914062 169.453125 C 444.914062 164.980469 451.625 164.980469 451.625 169.453125 "/>
<path style=" stroke:none;fill-rule:nonzero;fill:rgb(100%,84.3%,0%);fill-opacity:1;" d="M 186.609375 335.242188 C 186.609375 339.714844 179.902344 339.714844 179.902344 335.242188 C 179.902344 330.769531 186.609375 330.769531 186.609375 335.242188 "/>
<path style=" stroke:none;fill-rule:nonzero;fill:rgb(100%,84.3%,0%);fill-opacity:1;" d="M 413.113281 184.738281 C 413.113281 189.210938 406.40625 189.210938 406.40625 184.738281 C 406.40625 180.269531 413.113281 180.269531 413.113281 184.738281 "/>
<path style=" stroke:none;fill-rule:nonzero;fill:rgb(100%,84.3%,0%);fill-opacity:1;" d="M 134.511719 170.414062 C 134.511719 174.886719 127.804688 174.886719 127.804688 170.414062 C 127.804688 165.941406 134.511719 165.941406 134.511719 170.414062 "/>
<path style=" stroke:none;fill-rule:nonzero;fill:rgb(100%,84.3%,0%);fill-opacity:1;" d="M 194 342.519531 C 194 346.992188 187.289062 346.992188 187.289062 342.519531 C 187.289062 338.046875 194 338.046875 194 342.519531 "/>
<path style=" stroke:none;fill-rule:nonzero;fill:rgb(100%,84.3%,0%);fill-opacity:1;" d="M 62.816406 317.535156 C 62.816406 322.007812 56.109375 322.007812 56.109375 317.535156 C 56.109375 313.0625 62.816406 313.0625 62.816406 317.535156 "/>
<path style=" stroke:none;fill-rule:nonzero;fill:rgb(100%,84.3%,0%);fill-opacity:1;" d="M 58.140625 171.980469 C 58.140625 176.453125 51.433594 176.453125 51.433594 171.980469 C 51.433594 167.507812 58.140625 167.507812 58.140625 171.980469 "/>
<path style=" stroke:none;fill-rule:nonzero;fill:rgb(100%,84.3%,0%);fill-opacity:1;" d="M 314.1875 329.90625 C 314.1875 334.378906 307.476562 334.378906 307.476562 329.90625 C 307.476562 325.433594 314.1875 325.433594 314.1875 329.90625 "/>
<path style=" stroke:none;fill-rule:nonzero;fill:rgb(100%,84.3%,0%);fill-opacity:1;" d="M 65.246094 298.820312 C 65.246094 303.292969 58.535156 303.292969 58.535156 298.820312 C 58.535156 294.347656 65.246094 294.347656 65.246094 298.820312 "/>
<path style=" stroke:none;fill-rule:nonzero;fill:rgb(100%,84.3%,0%);fill-opacity:1;" d="M 134.367188 185.9375 C 134.367188 190.410156 127.65625 190.410156 127.65625 185.9375 C 127.65625 181.464844 134.367188 181.464844 134.367188 185.9375 "/>
<path style=" stroke:none;fill-rule:nonzero;fill:rgb(100%,84.3%,0%);fill-opacity:1;" d="M 125.933594 328.882812 C 125.933594 333.351562 119.226562 333.351562 119.226562 328.882812 C 119.226562 324.410156 125.933594 324.410156 125.933594 328.882812 "/>
<path style=" stroke:none;fill-rule:nonzero;fill:rgb(100%,84.3%,0%);fill-opacity:1;" d="M 465.578125 310.671875 C 465.578125 315.144531 458.871094 315.144531 458.871094 310.671875 C 458.871094 306.199219 465.578125 306.199219 465.578125 310.671875 "/>
<path style=" stroke:none;fill-rule:nonzero;fill:rgb(100%,84.3%,0%);fill-opacity:1;" d="M 217.472656 176.527344 C 217.472656 181 210.761719 181 210.761719 176.527344 C 210.761719 172.054688 217.472656 172.054688 217.472656 176.527344 "/>
<path style=" stroke:none;fill-rule:nonzero;fill:rgb(100%,84.3%,0%);fill-opacity:1;" d="M 224.617188 333.4375 C 224.617188 337.910156 217.910156 337.910156 217.910156 333.4375 C 217.910156 328.964844 224.617188 328.964844 224.617188 333.4375 "/>
<path style=" stroke:none;fill-rule:nonzero;fill:rgb(100%,84.3%,0%);fill-opacity:1;" d="M 217.386719 334.339844 C 217.386719 338.8125 210.675781 338.8125 210.675781 334.339844 C 210.675781 329.867188 217.386719 329.867188 217.386719 334.339844 "/>
<path style=" stroke:none;fill-rule:nonzero;fill:rgb(100%,84.3%,0%);fill-opacity:1;" d="M 410.574219 334.382812 C 410.574219 338.855469 403.863281 338.855469 403.863281 334.382812 C 403.863281 329.910156 410.574219 329.910156 410.574219 334.382812 "/>
<path style=" stroke:none;fill-rule:nonzero;fill:rgb(100%,84.3%,0%);fill-opacity:1;" d="M 357.539062 318.210938 C 357.539062 322.683594 350.832031 322.683594 350.832031 318.210938 C 350.832031 313.738281 357.539062 313.738281 357.539062 318.210938 "/>
<path style=" stroke:none;fill-rule:nonzero;fill:rgb(100%,84.3%,0%);fill-opacity:1;" d="M 83.421875 325.945312 C 83.421875 330.417969 76.710938 330.417969 76.710938 325.945312 C 76.710938 321.472656 83.421875 321.472656 83.421875 325.945312 "/>
<path style=" stroke:none;fill-rule:nonzero;fill:rgb(100%,84.3%,0%);fill-opacity:1;" d="M 94.304688 320.714844 C 94.304688 325.1875 87.59375 325.1875 87.59375 320.714844 C 87.59375 316.242188 94.304688 316.242188 94.304688 320.714844 "/>
<path style=" stroke:none;fill-rule:nonzero;fill:rgb(100%,84.3%,0%);fill-opacity:1;" d="M 429.425781 185.554688 C 429.425781 190.027344 422.71875 190.027344 422.71875 185.554688 C 422.71875 181.082031 429.425781 181.082031 429.425781 185.554688 "/>
<path style=" stroke:none;fill-rule:nonzero;fill:rgb(100%,84.3%,0%);fill-opacity:1;" d="M 255.964844 331.714844 C 255.964844 336.1875 249.253906 336.1875 249.253906 331.714844 C 249.253906 327.242188 255.964844 327.242188 255.964844 331.714844 "/>
<path style=" stroke:none;fill-rule:nonzero;fill:rgb(100%,84.3%,0%);fill-opacity:1;" d="M 128.117188 177.195312 C 128.117188 181.667969 121.410156 181.667969 121.410156 177.195312 C 121.410156 172.722656 128.117188 172.722656 128.117188 177.195312 "/>
<path style=" stroke:none;fill-rule:nonzero;fill:rgb(100%,84.3%,0%);fill-opacity:1;" d="M 449.675781 191.925781 C 449.675781 196.394531 442.964844 196.394531 442.964844 191.925781 C 442.964844 187.453125 449.675781 187.453125 449.675781 191.925781 "/>
<path style=" stroke:none;fill-rule:nonzero;fill:rgb(100%,84.3%,0%);fill-opacity:1;" d="M 362.949219 341.667969 C 362.949219 346.140625 356.238281 346.140625 356.238281 341.667969 C 356.238281 337.195312 362.949219 337.195312 362.949219 341.667969 "/>
<path style=" stroke:none;fill-rule:nonzero;fill:rgb(100%,84.3%,0%);fill-opacity:1;" d="M 386.617188 169.628906 C 386.617188 174.101562 379.90625 174.101562 379.90625 169.628906 C 379.90625 165.15625 386.617188 165.15625 386.617188 169.628906 "/>
<path style=" stroke:none;fill-rule:nonzero;fill:rgb(100%,84.3%,0%);fill-opacity:1;" d="M 59.179688 280.84375 C 59.179688 285.3125 52.46875 285.3125 52.46875 280.84375 C 52.46875 276.371094 59.179688 276.371094 59.179688 280.84375 "/>
<path style=" stroke:none;fill-rule:nonzero;fill:rgb(100%,84.3%,0%);fill-opacity:1;" d="M 63.628906 340.832031 C 63.628906 345.304688 56.921875 345.304688 56.921875 340.832031 C 56.921875 336.359375 63.628906 336.359375 63.628906 340.832031 "/>
<path style=" stroke:none;fill-rule:nonzero;fill:rgb(100%,84.3%,0%);fill-opacity:1;" d="M 456.398438 334.132812 C 456.398438 338.605469 449.691406 338.605469 449.691406 334.132812 C 449.691406 329.660156 456.398438 329.660156 456.398438 334.132812 "/>
<path style=" stroke:none;fill-rule:nonzero;fill:rgb(100%,84.3%,0%);fill-opacity:1;" d="M 267.128906 336.371094 C 267.128906 340.84375 260.421875 340.84375 260.421875 336.371094 C 260.421875 331.902344 267.128906 331.902344 267.128906 336.371094 "/>
<path style=" stroke:none;fill-rule:nonzero;fill:rgb(100%,84.3%,0%);fill-opacity:1;" d="M 404.175781 341.167969 C 404.175781 345.640625 397.46875 345.640625 397.46875 341.167969 C 397.46875 336.695312 404.175781 336.695312 404.175781 341.167969 "/>
<path style=" stroke:none;fill-rule:nonzero;fill:rgb(100%,84.3%,0%);fill-opacity:1;" d="M 137.878906 176.703125 C 137.878906 181.175781 131.167969 181.175781 131.167969 176.703125 C 131.167969 172.234375 137.878906 172.234375 137.878906 176.703125 "/>
<path style=" stroke:none;fill-rule:nonzero;fill:rgb(100%,84.3%,0%);fill-opacity:1;" d="M 57.394531 290.976562 C 57.394531 295.449219 50.6875 295.449219 50.6875 290.976562 C 50.6875 286.503906 57.394531 286.503906 57.394531 290.976562 "/>
<path style=" stroke:none;fill-rule:nonzero;fill:rgb(100%,84.3%,0%);fill-opacity:1;" d="M 345.464844 315.433594 C 345.464844 319.90625 338.757812 319.90625 338.757812 315.433594 C 338.757812 310.960938 345.464844 310.960938 345.464844 315.433594 "/>
<path style=" stroke:none;fill-rule:nonzero;fill:rgb(100%,84.3%,0%);fill-opacity:1;" d="M 234.660156 342.835938 C 234.660156 347.308594 227.953125 347.308594 227.953125 342.835938 C 227.953125 338.363281 234.660156 338.363281 234.660156 342.835938 "/>
<path style=" stroke:none;fill-rule:nonzero;fill:rgb(100%,84.3%,0%);fill-opacity:1;" d="M 415.699219 174.199219 C 415.699219 178.671875 408.992188 178.671875 408.992188 174.199219 C 408.992188 169.726562 415.699219 169.726562 415.699219 174.199219 "/>
<path style=" stroke:none;fill-rule:nonzero;fill:rgb(100%,84.3%,0%);fill-opacity:1;" d="M 75.464844 254.765625 C 75.464844 259.238281 68.753906 259.238281 68.753906 254.765625 C 68.753906 250.292969 75.464844 250.292969 75.464844 254.765625 "/>
<path style=" stroke:none;fill-rule:nonzero;fill:rgb(100%,84.3%,0%);fill-opacity:1;" d="M 464.558594 269.726562 C 464.558594 274.199219 457.851562 274.199219 457.851562 269.726562 C 457.851562 265.253906 464.558594 265.253906 464.558594 269.726562 "/>
<path style=" stroke:none;fill-rule:nonzero;fill:rgb(100%,84.3%,0%);fill-opacity:1;" d="M 251.773438 169.492188 C 251.773438 173.964844 245.066406 173.964844 245.066406 169.492188 C 245.066406 165.019531 251.773438 165.019531 251.773438 169.492188 "/>
<path style=" stroke:none;fill-rule:nonzero;fill:rgb(100%,84.3%,0%);fill-opacity:1;" d="M 241.550781 169.328125 C 241.550781 173.800781 234.84375 173.800781 234.84375 169.328125 C 234.84375 164.859375 241.550781 164.859375 241.550781 169.328125 "/>
<path style=" stroke:none;fill-rule:nonzero;fill:rgb(100%,84.3%,0%);fill-opacity:1;" d="M 392.722656 173.46875 C 392.722656 177.941406 386.015625 177.941406 386.015625 173.46875 C 386.015625 168.996094 392.722656 168.996094 392.722656 173.46875 "/>
<path style=" stroke:none;fill-rule:nonzero;fill:rgb(100%,84.3%,0%);fill-opacity:1;" d="M 206.058594 342.109375 C 206.058594 346.582031 199.347656 346.582031 199.347656 342.109375 C 199.347656 337.636719 206.058594 337.636719 206.058594 342.109375 "/>
<path style=" stroke:none;fill-rule:nonzero;fill:rgb(100%,84.3%,0%);fill-opacity:1;" d="M 293.289062 178.878906 C 293.289062 183.351562 286.578125 183.351562 286.578125 178.878906 C 286.578125 174.40625 293.289062 174.40625 293.289062 178.878906 "/>
<path style=" stroke:none;fill-rule:nonzero;fill:rgb(100%,84.3%,0%);fill-opacity:1;" d="M 239.421875 201.035156 C 239.421875 205.507812 232.714844 205.507812 232.714844 201.035156 C 232.714844 196.566406 239.421875 196.566406 239.421875 201.035156 "/>
<path style=" stroke:none;fill-rule:nonzero;fill:rgb(100%,84.3%,0%);fill-opacity:1;" d="M 465.746094 342.550781 C 465.746094 347.019531 459.039062 347.019531 459.039062 342.550781 C 459.039062 338.078125 465.746094 338.078125 465.746094 342.550781 "/>
<path style=" stroke:none;fill-rule:nonzero;fill:rgb(100%,84.3%,0%);fill-opacity:1;" d="M 92.769531 334.363281 C 92.769531 338.835938 86.058594 338.835938 86.058594 334.363281 C 86.058594 329.890625 92.769531 329.890625 92.769531 334.363281 "/>
<path style=" stroke:none;fill-rule:nonzero;fill:rgb(100%,84.3%,0%);fill-opacity:1;" d="M 373.328125 176.167969 C 373.328125 180.640625 366.617188 180.640625 366.617188 176.167969 C 366.617188 171.695312 373.328125 171.695312 373.328125 176.167969 "/>
<path style=" stroke:none;fill-rule:nonzero;fill:rgb(100%,84.3%,0%);fill-opacity:1;" d="M 357.675781 169.960938 C 357.675781 174.433594 350.964844 174.433594 350.964844 169.960938 C 350.964844 165.488281 357.675781 165.488281 357.675781 169.960938 "/>
<path style=" stroke:none;fill-rule:nonzero;fill:rgb(100%,84.3%,0%);fill-opacity:1;" d="M 180.46875 325.027344 C 180.46875 329.5 173.757812 329.5 173.757812 325.027344 C 173.757812 320.554688 180.46875 320.554688 180.46875 325.027344 "/>
<path style=" stroke:none;fill-rule:nonzero;fill:rgb(100%,84.3%,0%);fill-opacity:1;" d="M 156.617188 332.554688 C 156.617188 337.027344 149.910156 337.027344 149.910156 332.554688 C 149.910156 328.082031 156.617188 328.082031 156.617188 332.554688 "/>
<path style=" stroke:none;fill-rule:nonzero;fill:rgb(100%,84.3%,0%);fill-opacity:1;" d="M 335.164062 169.882812 C 335.164062 174.355469 328.453125 174.355469 328.453125 169.882812 C 328.453125 165.410156 335.164062 165.410156 335.164062 169.882812 "/>
<path style=" stroke:none;fill-rule:nonzero;fill:rgb(100%,84.3%,0%);fill-opacity:1;" d="M 364.5 331.207031 C 364.5 335.679688 357.792969 335.679688 357.792969 331.207031 C 357.792969 326.734375 364.5 326.734375 364.5 331.207031 "/>
<path style=" stroke:none;fill-rule:nonzero;fill:rgb(100%,84.3%,0%);fill-opacity:1;" d="M 182.636719 170.15625 C 182.636719 174.628906 175.925781 174.628906 175.925781 170.15625 C 175.925781 165.683594 182.636719 165.683594 182.636719 170.15625 "/>
<path style=" stroke:none;fill-rule:nonzero;fill:rgb(100%,84.3%,0%);fill-opacity:1;" d="M 93.117188 183.253906 C 93.117188 187.722656 86.410156 187.722656 86.410156 183.253906 C 86.410156 178.78125 93.117188 178.78125 93.117188 183.253906 "/>
<path style=" stroke:none;fill-rule:nonzero;fill:rgb(100%,84.3%,0%);fill-opacity:1;" d="M 105.390625 179.980469 C 105.390625 184.453125 98.683594 184.453125 98.683594 179.980469 C 98.683594 175.507812 105.390625 175.507812 105.390625 179.980469 "/>
<path style=" stroke:none;fill-rule:nonzero;fill:rgb(100%,84.3%,0%);fill-opacity:1;" d="M 455.421875 323.261719 C 455.421875 327.734375 448.714844 327.734375 448.714844 323.261719 C 448.714844 318.789062 455.421875 318.789062 455.421875 323.261719 "/>
<path style=" stroke:none;fill-rule:nonzero;fill:rgb(100%,84.3%,0%);fill-opacity:1;" d="M 54.265625 264.414062 C 54.265625 268.886719 47.558594 268.886719 47.558594 264.414062 C 47.558594 259.941406 54.265625 259.941406 54.265625 264.414062 "/>
<path style=" stroke:none;fill-rule:nonzero;fill:rgb(100%,84.3%,0%);fill-opacity:1;" d="M 319.898438 172.089844 C 319.898438 176.5625 313.191406 176.5625 313.191406 172.089844 C 313.191406 167.617188 319.898438 167.617188 319.898438 172.089844 "/>
<path style=" stroke:none;fill-rule:nonzero;fill:rgb(100%,84.3%,0%);fill-opacity:1;" d="M 72.714844 277.730469 C 72.714844 282.203125 66.003906 282.203125 66.003906 277.730469 C 66.003906 273.257812 72.714844 273.257812 72.714844 277.730469 "/>
<path style=" stroke:none;fill-rule:nonzero;fill:rgb(100%,84.3%,0%);fill-opacity:1;" d="M 260.992188 196.617188 C 260.992188 201.089844 254.285156 201.089844 254.285156 196.617188 C 254.285156 192.148438 260.992188 192.148438 260.992188 196.617188 "/>
<path style=" stroke:none;fill-rule:nonzero;fill:rgb(100%,84.3%,0%);fill-opacity:1;" d="M 53.558594 304.546875 C 53.558594 309.015625 46.851562 309.015625 46.851562 304.546875 C 46.851562 300.074219 53.558594 300.074219 53.558594 304.546875 "/>
<path style=" stroke:none;fill-rule:nonzero;fill:rgb(100%,84.3%,0%);fill-opacity:1;" d="M 53.941406 224.445312 C 53.941406 228.917969 47.230469 228.917969 47.230469 224.445312 C 47.230469 219.972656 53.941406 219.972656 53.941406 224.445312 "/>
<path style=" stroke:none;fill-rule:nonzero;fill:rgb(100%,84.3%,0%);fill-opacity:1;" d="M 439.417969 185.386719 C 439.417969 189.859375 432.710938 189.859375 432.710938 185.386719 C 432.710938 180.914062 439.417969 180.914062 439.417969 185.386719 "/>
<path style=" stroke:none;fill-rule:nonzero;fill:rgb(100%,84.3%,0%);fill-opacity:1;" d="M 223.007812 181.097656 C 223.007812 185.570312 216.300781 185.570312 216.300781 181.097656 C 216.300781 176.625 223.007812 176.625 223.007812 181.097656 "/>
<path style=" stroke:none;fill-rule:nonzero;fill:rgb(100%,84.3%,0%);fill-opacity:1;" d="M 191.042969 174.078125 C 191.042969 178.550781 184.332031 178.550781 184.332031 174.078125 C 184.332031 169.605469 191.042969 169.605469 191.042969 174.078125 "/>
<path style=" stroke:none;fill-rule:nonzero;fill:rgb(100%,84.3%,0%);fill-opacity:1;" d="M 443.179688 179.667969 C 443.179688 184.140625 436.46875 184.140625 436.46875 179.667969 C 436.46875 175.195312 443.179688 175.195312 443.179688 179.667969 "/>
<path style=" stroke:none;fill-rule:nonzero;fill:rgb(100%,84.3%,0%);fill-opacity:1;" d="M 59.34375 203.691406 C 59.34375 208.164062 52.636719 208.164062 52.636719 203.691406 C 52.636719 199.21875 59.34375 199.21875 59.34375 203.691406 "/>
<path style=" stroke:none;fill-rule:nonzero;fill:rgb(100%,84.3%,0%);fill-opacity:1;" d="M 88.492188 220.925781 C 88.492188 225.398438 81.785156 225.398438 81.785156 220.925781 C 81.785156 216.453125 88.492188 216.453125 88.492188 220.925781 "/>
<path style=" stroke:none;fill-rule:nonzero;fill:rgb(100%,84.3%,0%);fill-opacity:1;" d="M 211.808594 170.152344 C 211.808594 174.625 205.101562 174.625 205.101562 170.152344 C 205.101562 165.679688 211.808594 165.679688 211.808594 170.152344 "/>
<path style=" stroke:none;fill-rule:nonzero;fill:rgb(100%,84.3%,0%);fill-opacity:1;" d="M 93.851562 170.097656 C 93.851562 174.570312 87.144531 174.570312 87.144531 170.097656 C 87.144531 165.625 93.851562 165.625 93.851562 170.097656 "/>
<path style=" stroke:none;fill-rule:nonzero;fill:rgb(100%,84.3%,0%);fill-opacity:1;" d="M 427.542969 176.648438 C 427.542969 181.121094 420.832031 181.121094 420.832031 176.648438 C 420.832031 172.175781 427.542969 172.175781 427.542969 176.648438 "/>
</g>
</svg>
