<?xml version="1.0" encoding="UTF-8"?>
<svg xmlns="http://www.w3.org/2000/svg" xmlns:xlink="http://www.w3.org/1999/xlink" width="512pt" height="512pt" viewBox="0 0 512 512" version="1.1">
<g id="surface191">
<rect x="0" y="0" width="512" height="512" style="fill:rgb(26.7%,26.7%,26.7%);fill-opacity:1;stroke:none;"/>
<path style=" stroke:none;fill-rule:nonzero;fill:rgb(19.2%,38.8%,66.7%);fill-opacity:1;" d="M 14.085938 42.667969 L 154.929688 42.667969 L 154.929688 469.332031 L 14.085938 469.332031 Z M 14.085938 42.667969 "/>
<path style=" stroke:none;fill-rule:nonzero;fill:rgb(100%,100%,100%);fill-opacity:1;" d="M 392.421875 129.65625 C 392.421875 133.46875 389.332031 136.5625 385.519531 136.5625 C 381.707031 136.5625 378.613281 133.46875 378.613281 129.65625 C 378.613281 125.84375 381.707031 122.753906 385.519531 122.753906 C 389.332031 122.753906 392.421875 125.84375 392.421875 129.65625 "/>
<path style=" stroke:none;fill-rule:nonzero;fill:rgb(100%,100%,100%);fill-opacity:1;" d="M 258.484375 97.898438 C 258.484375 101.710938 255.394531 104.804688 251.582031 104.804688 C 247.769531 104.804688 244.675781 101.710938 244.675781 97.898438 C 244.675781 94.085938 247.769531 90.996094 251.582031 90.996094 C 255.394531 90.996094 258.484375 94.085938 258.484375 97.898438 "/>
<path style=" stroke:none;fill-rule:nonzero;fill:rgb(100%,100%,100%);fill-opacity:1;" d="M 449.035156 516.28125 C 449.035156 520.09375 445.945312 523.183594 442.132812 523.183594 C 438.320312 523.183594 435.226562 520.09375 435.226562 516.28125 C 435.226562 512.46875 438.320312 509.375 442.132812 509.375 C 445.945312 509.375 449.035156 512.46875 449.035156 516.28125 "/>
<path style=" stroke:none;fill-rule:nonzero;fill:rgb(100%,100%,100%);fill-opacity:1;" d="M 268.152344 461.050781 C 268.152344 464.863281 265.058594 467.953125 261.246094 467.953125 C 257.433594 467.953125 254.34375 464.863281 254.34375 461.050781 C 254.34375 457.234375 257.433594 454.144531 261.246094 454.144531 C 265.058594 454.144531 268.152344 457.234375 268.152344 461.050781 "/>
<path style=" stroke:none;fill-rule:nonzero;fill:rgb(100%,100%,100%);fill-opacity:1;" d="M 309.574219 30.238281 C 309.574219 34.050781 306.484375 37.144531 302.671875 37.144531 C 298.859375 37.144531 295.765625 34.050781 295.765625 30.238281 C 295.765625 26.425781 298.859375 23.335938 302.671875 23.335938 C 306.484375 23.335938 309.574219 26.425781 309.574219 30.238281 "/>
<path style=" stroke:none;fill-rule:nonzero;fill:rgb(100%,100%,100%);fill-opacity:1;" d="M 141.117188 492.808594 C 141.117188 496.621094 138.027344 499.710938 134.214844 499.710938 C 130.402344 499.710938 127.308594 496.621094 127.308594 492.808594 C 127.308594 488.992188 130.402344 485.902344 134.214844 485.902344 C 138.027344 485.902344 141.117188 488.992188 141.117188 492.808594 "/>
<path style=" stroke:none;fill-rule:nonzero;fill:rgb(100%,100%,100%);fill-opacity:1;" d="M 241.914062 423.765625 C 241.914062 427.578125 238.824219 430.671875 235.011719 430.671875 C 231.199219 430.671875 228.109375 427.578125 228.109375 423.765625 C 228.109375 419.953125 231.199219 416.863281 235.011719 416.863281 C 238.824219 416.863281 241.914062 419.953125 241.914062 423.765625 "/>
<path style=" stroke:none;fill-rule:nonzero;fill:rgb(100%,100%,100%);fill-opacity:1;" d="M 442.132812 198.695312 C 442.132812 202.511719 439.039062 205.601562 435.226562 205.601562 C 431.414062 205.601562 428.324219 202.511719 428.324219 198.695312 C 428.324219 194.882812 431.414062 191.792969 435.226562 191.792969 C 439.039062 191.792969 442.132812 194.882812 442.132812 198.695312 "/>
<path style=" stroke:none;fill-rule:nonzero;fill:rgb(100%,100%,100%);fill-opacity:1;" d="M 393.804688 97.898438 C 393.804688 101.710938 390.714844 104.804688 386.898438 104.804688 C 383.085938 104.804688 379.996094 101.710938 379.996094 97.898438 C 379.996094 94.085938 383.085938 90.996094 386.898438 90.996094 C 390.714844 90.996094 393.804688 94.085938 393.804688 97.898438 "/>
<path style=" stroke:none;fill-rule:nonzero;fill:rgb(100%,100%,100%);fill-opacity:1;" d="M 170.113281 392.007812 C 170.113281 395.820312 167.023438 398.914062 163.210938 398.914062 C 159.398438 398.914062 156.304688 395.820312 156.304688 392.007812 C 156.304688 388.195312 159.398438 385.105469 163.210938 385.105469 C 167.023438 385.105469 170.113281 388.195312 170.113281 392.007812 "/>
<path style=" stroke:none;fill-rule:nonzero;fill:rgb(100%,100%,100%);fill-opacity:1;" d="M 258.484375 479 C 258.484375 482.8125 255.394531 485.902344 251.582031 485.902344 C 247.769531 485.902344 244.675781 482.8125 244.675781 479 C 244.675781 475.1875 247.769531 472.09375 251.582031 472.09375 C 255.394531 472.09375 258.484375 475.1875 258.484375 479 "/>
<path style=" stroke:none;fill-rule:nonzero;fill:rgb(100%,100%,100%);fill-opacity:1;" d="M 3.039062 187.648438 C 3.039062 191.464844 -0.0546875 194.554688 -3.867188 194.554688 C -7.679688 194.554688 -10.769531 191.464844 -10.769531 187.648438 C -10.769531 183.835938 -7.679688 180.746094 -3.867188 180.746094 C -0.0546875 180.746094 3.039062 183.835938 3.039062 187.648438 "/>
<path style=" stroke:none;fill-rule:nonzero;fill:rgb(100%,100%,100%);fill-opacity:1;" d="M 306.8125 397.53125 C 306.8125 401.34375 303.722656 404.4375 299.910156 404.4375 C 296.097656 404.4375 293.003906 401.34375 293.003906 397.53125 C 293.003906 393.71875 296.097656 390.628906 299.910156 390.628906 C 303.722656 390.628906 306.8125 393.71875 306.8125 397.53125 "/>
<path style=" stroke:none;fill-rule:nonzero;fill:rgb(100%,84.3%,0%);fill-opacity:1;" d="M 35.648438 360.359375 C 35.648438 364.171875 32.558594 367.261719 28.746094 367.261719 C 24.933594 367.261719 21.839844 364.171875 21.839844 360.359375 C 21.839844 356.546875 24.933594 353.453125 28.746094 353.453125 C 32.558594 353.453125 35.648438 356.546875 35.648438 360.359375 "/>
<path style=" stroke:none;fill-rule:nonzero;fill:rgb(100%,84.3%,0%);fill-opacity:1;" d="M 49.566406 176.199219 C 49.566406 180.015625 46.476562 183.105469 42.664062 183.105469 C 38.851562 183.105469 35.761719 180.015625 35.761719 176.199219 C 35.761719 172.386719 38.851562 169.296875 42.664062 169.296875 C 46.476562 169.296875 49.566406 172.386719 49.566406 176.199219 "/>
<path style=" stroke:none;fill-rule:nonzero;fill:rgb(100%,84.3%,0%);fill-opacity:1;" d="M 36.636719 328.445312 C 36.636719 332.261719 33.546875 335.351562 29.730469 335.351562 C 25.917969 335.351562 22.828125 332.261719 22.828125 328.445312 C 22.828125 324.632812 25.917969 321.542969 29.730469 321.542969 C 33.546875 321.542969 36.636719 324.632812 36.636719 328.445312 "/>
<path style=" stroke:none;fill-rule:nonzero;fill:rgb(100%,84.3%,0%);fill-opacity:1;" d="M 132.9375 440.90625 C 132.9375 444.722656 129.847656 447.8125 126.035156 447.8125 C 122.222656 447.8125 119.132812 444.722656 119.132812 440.90625 C 119.132812 437.09375 122.222656 434.003906 126.035156 434.003906 C 129.847656 434.003906 132.9375 437.09375 132.9375 440.90625 "/>
<path style=" stroke:none;fill-rule:nonzero;fill:rgb(100%,84.3%,0%);fill-opacity:1;" d="M 111.820312 434.933594 C 111.820312 438.746094 108.726562 441.839844 104.914062 441.839844 C 101.101562 441.839844 98.011719 438.746094 98.011719 434.933594 C 98.011719 431.121094 101.101562 428.03125 104.914062 428.03125 C 108.726562 428.03125 111.820312 431.121094 111.820312 434.933594 "/>
<path style=" stroke:none;fill-rule:nonzero;fill:rgb(100%,84.3%,0%);fill-opacity:1;" d="M 94.804688 354.066406 C 94.804688 357.878906 91.714844 360.96875 87.902344 360.96875 C 84.089844 360.96875 80.996094 357.878906 80.996094 354.066406 C 80.996094 350.253906 84.089844 347.160156 87.902344 347.160156 C 91.714844 347.160156 94.804688 350.253906 94.804688 354.066406 "/>
<path style=" stroke:none;fill-rule:nonzero;fill:rgb(100%,84.3%,0%);fill-opacity:1;" d="M 67.175781 449.089844 C 67.175781 452.902344 64.082031 455.992188 60.269531 455.992188 C 56.457031 455.992188 53.367188 452.902344 53.367188 449.089844 C 53.367188 445.273438 56.457031 442.183594 60.269531 442.183594 C 64.082031 442.183594 67.175781 445.273438 67.175781 449.089844 "/>
<path style=" stroke:none;fill-rule:nonzero;fill:rgb(100%,84.3%,0%);fill-opacity:1;" d="M 144.96875 452.152344 C 144.96875 455.964844 141.875 459.054688 138.0625 459.054688 C 134.25 459.054688 131.160156 455.964844 131.160156 452.152344 C 131.160156 448.339844 134.25 445.246094 138.0625 445.246094 C 141.875 445.246094 144.96875 448.339844 144.96875 452.152344 "/>
<path style=" stroke:none;fill-rule:nonzero;fill:rgb(100%,84.3%,0%);fill-opacity:1;" d="M 147.453125 401.65625 C 147.453125 405.46875 144.363281 408.558594 140.550781 408.558594 C 136.734375 408.558594 133.644531 405.46875 133.644531 401.65625 C 133.644531 397.84375 136.734375 394.753906 140.550781 394.753906 C 144.363281 394.753906 147.453125 397.84375 147.453125 401.65625 "/>
<path style=" stroke:none;fill-rule:nonzero;fill:rgb(100%,84.3%,0%);fill-opacity:1;" d="M 61.222656 244.691406 C 61.222656 248.503906 58.132812 251.597656 54.320312 251.597656 C 50.507812 251.597656 47.414062 248.503906 47.414062 244.691406 C 47.414062 240.878906 50.507812 237.789062 54.320312 237.789062 C 58.132812 237.789062 61.222656 240.878906 61.222656 244.691406 "/>
<path style=" stroke:none;fill-rule:nonzero;fill:rgb(100%,84.3%,0%);fill-opacity:1;" d="M 36.496094 210.761719 C 36.496094 214.574219 33.40625 217.664062 29.59375 217.664062 C 25.78125 217.664062 22.691406 214.574219 22.691406 210.761719 C 22.691406 206.949219 25.78125 203.855469 29.59375 203.855469 C 33.40625 203.855469 36.496094 206.949219 36.496094 210.761719 "/>
<path style=" stroke:none;fill-rule:nonzero;fill:rgb(100%,84.3%,0%);fill-opacity:1;" d="M 110.691406 396.269531 C 110.691406 400.082031 107.601562 403.175781 103.789062 403.175781 C 99.976562 403.175781 96.886719 400.082031 96.886719 396.269531 C 96.886719 392.457031 99.976562 389.367188 103.789062 389.367188 C 107.601562 389.367188 110.691406 392.457031 110.691406 396.269531 "/>
<path style=" stroke:none;fill-rule:nonzero;fill:rgb(100%,84.3%,0%);fill-opacity:1;" d="M 133.578125 158.230469 C 133.578125 162.042969 130.488281 165.132812 126.675781 165.132812 C 122.863281 165.132812 119.769531 162.042969 119.769531 158.230469 C 119.769531 154.417969 122.863281 151.324219 126.675781 151.324219 C 130.488281 151.324219 133.578125 154.417969 133.578125 158.230469 "/>
<path style=" stroke:none;fill-rule:nonzero;fill:rgb(100%,84.3%,0%);fill-opacity:1;" d="M 35.371094 172.097656 C 35.371094 175.910156 32.28125 179 28.46875 179 C 24.65625 179 21.566406 175.910156 21.566406 172.097656 C 21.566406 168.285156 24.65625 165.191406 28.46875 165.191406 C 32.28125 165.191406 35.371094 168.285156 35.371094 172.097656 "/>
<path style=" stroke:none;fill-rule:nonzero;fill:rgb(100%,84.3%,0%);fill-opacity:1;" d="M 114.882812 452.949219 C 114.882812 456.765625 111.792969 459.855469 107.980469 459.855469 C 104.167969 459.855469 101.074219 456.765625 101.074219 452.949219 C 101.074219 449.136719 104.167969 446.046875 107.980469 446.046875 C 111.792969 446.046875 114.882812 449.136719 114.882812 452.949219 "/>
<path style=" stroke:none;fill-rule:nonzero;fill:rgb(100%,84.3%,0%);fill-opacity:1;" d="M 37.085938 395.457031 C 37.085938 399.269531 33.996094 402.359375 30.183594 402.359375 C 26.371094 402.359375 23.277344 399.269531 23.277344 395.457031 C 23.277344 391.644531 26.371094 388.554688 30.183594 388.554688 C 33.996094 388.554688 37.085938 391.644531 37.085938 395.457031 "/>
<path style=" stroke:none;fill-rule:nonzero;fill:rgb(100%,84.3%,0%);fill-opacity:1;" d="M 40.757812 377.054688 C 40.757812 380.867188 37.664062 383.960938 33.851562 383.960938 C 30.039062 383.960938 26.949219 380.867188 26.949219 377.054688 C 26.949219 373.242188 30.039062 370.152344 33.851562 370.152344 C 37.664062 370.152344 40.757812 373.242188 40.757812 377.054688 "/>
<path style=" stroke:none;fill-rule:nonzero;fill:rgb(100%,84.3%,0%);fill-opacity:1;" d="M 140.898438 335.21875 C 140.898438 339.03125 137.804688 342.125 133.992188 342.125 C 130.179688 342.125 127.089844 339.03125 127.089844 335.21875 C 127.089844 331.40625 130.179688 328.316406 133.992188 328.316406 C 137.804688 328.316406 140.898438 331.40625 140.898438 335.21875 "/>
<path style=" stroke:none;fill-rule:nonzero;fill:rgb(100%,84.3%,0%);fill-opacity:1;" d="M 37.679688 188.421875 C 37.679688 192.234375 34.589844 195.328125 30.777344 195.328125 C 26.964844 195.328125 23.871094 192.234375 23.871094 188.421875 C 23.871094 184.609375 26.964844 181.519531 30.777344 181.519531 C 34.589844 181.519531 37.679688 184.609375 37.679688 188.421875 "/>
<path style=" stroke:none;fill-rule:nonzero;fill:rgb(100%,84.3%,0%);fill-opacity:1;" d="M 142.03125 388.527344 C 142.03125 392.339844 138.941406 395.429688 135.128906 395.429688 C 131.316406 395.429688 128.222656 392.339844 128.222656 388.527344 C 128.222656 384.714844 131.316406 381.621094 135.128906 381.621094 C 138.941406 381.621094 142.03125 384.714844 142.03125 388.527344 "/>
<path style=" stroke:none;fill-rule:nonzero;fill:rgb(100%,84.3%,0%);fill-opacity:1;" d="M 131.457031 136.835938 C 131.457031 140.648438 128.367188 143.738281 124.554688 143.738281 C 120.738281 143.738281 117.648438 140.648438 117.648438 136.835938 C 117.648438 133.023438 120.738281 129.929688 124.554688 129.929688 C 128.367188 129.929688 131.457031 133.023438 131.457031 136.835938 "/>
<path style=" stroke:none;fill-rule:nonzero;fill:rgb(100%,84.3%,0%);fill-opacity:1;" d="M 90.96875 453.929688 C 90.96875 457.742188 87.875 460.832031 84.0625 460.832031 C 80.25 460.832031 77.160156 457.742188 77.160156 453.929688 C 77.160156 450.117188 80.25 447.023438 84.0625 447.023438 C 87.875 447.023438 90.96875 450.117188 90.96875 453.929688 "/>
<path style=" stroke:none;fill-rule:nonzero;fill:rgb(100%,84.3%,0%);fill-opacity:1;" d="M 130.085938 454.429688 C 130.085938 458.242188 126.992188 461.332031 123.179688 461.332031 C 119.367188 461.332031 116.277344 458.242188 116.277344 454.429688 C 116.277344 450.617188 119.367188 447.523438 123.179688 447.523438 C 126.992188 447.523438 130.085938 450.617188 130.085938 454.429688 "/>
<path style=" stroke:none;fill-rule:nonzero;fill:rgb(100%,84.3%,0%);fill-opacity:1;" d="M 130.964844 207.222656 C 130.964844 211.035156 127.875 214.128906 124.0625 214.128906 C 120.25 214.128906 117.15625 211.035156 117.15625 207.222656 C 117.15625 203.410156 120.25 200.320312 124.0625 200.320312 C 127.875 200.320312 130.964844 203.410156 130.964844 207.222656 "/>
<path style=" stroke:none;fill-rule:nonzero;fill:rgb(100%,84.3%,0%);fill-opacity:1;" d="M 82.613281 431.605469 C 82.613281 435.417969 79.523438 438.511719 75.710938 438.511719 C 71.898438 438.511719 68.804688 435.417969 68.804688 431.605469 C 68.804688 427.792969 71.898438 424.703125 75.710938 424.703125 C 79.523438 424.703125 82.613281 427.792969 82.613281 431.605469 "/>
<path style=" stroke:none;fill-rule:nonzero;fill:rgb(100%,84.3%,0%);fill-opacity:1;" d="M 41.46875 156.882812 C 41.46875 160.695312 38.378906 163.785156 34.5625 163.785156 C 30.75 163.785156 27.660156 160.695312 27.660156 156.882812 C 27.660156 153.066406 30.75 149.976562 34.5625 149.976562 C 38.378906 149.976562 41.46875 153.066406 41.46875 156.882812 "/>
<path style=" stroke:none;fill-rule:nonzero;fill:rgb(100%,84.3%,0%);fill-opacity:1;" d="M 102.996094 167.664062 C 102.996094 171.476562 99.90625 174.570312 96.09375 174.570312 C 92.28125 174.570312 89.1875 171.476562 89.1875 167.664062 C 89.1875 163.851562 92.28125 160.761719 96.09375 160.761719 C 99.90625 160.761719 102.996094 163.851562 102.996094 167.664062 "/>
<path style=" stroke:none;fill-rule:nonzero;fill:rgb(100%,84.3%,0%);fill-opacity:1;" d="M 145.765625 370.875 C 145.765625 374.6875 142.675781 377.78125 138.859375 377.78125 C 135.046875 377.78125 131.957031 374.6875 131.957031 370.875 C 131.957031 367.0625 135.046875 363.972656 138.859375 363.972656 C 142.675781 363.972656 145.765625 367.0625 145.765625 370.875 "/>
<path style=" stroke:none;fill-rule:nonzero;fill:rgb(100%,84.3%,0%);fill-opacity:1;" d="M 36.089844 412.726562 C 36.089844 416.539062 33 419.628906 29.1875 419.628906 C 25.375 419.628906 22.28125 416.539062 22.28125 412.726562 C 22.28125 408.914062 25.375 405.820312 29.1875 405.820312 C 33 405.820312 36.089844 408.914062 36.089844 412.726562 "/>
<path style=" stroke:none;fill-rule:nonzero;fill:rgb(100%,84.3%,0%);fill-opacity:1;" d="M 69.003906 205.824219 C 69.003906 209.636719 65.910156 212.730469 62.097656 212.730469 C 58.285156 212.730469 55.195312 209.636719 55.195312 205.824219 C 55.195312 202.011719 58.285156 198.921875 62.097656 198.921875 C 65.910156 198.921875 69.003906 202.011719 69.003906 205.824219 "/>
<path style=" stroke:none;fill-rule:nonzero;fill:rgb(100%,84.3%,0%);fill-opacity:1;" d="M 100.746094 90.335938 C 100.746094 94.148438 97.652344 97.242188 93.839844 97.242188 C 90.027344 97.242188 86.9375 94.148438 86.9375 90.335938 C 86.9375 86.523438 90.027344 83.433594 93.839844 83.433594 C 97.652344 83.433594 100.746094 86.523438 100.746094 90.335938 "/>
<path style=" stroke:none;fill-rule:nonzero;fill:rgb(100%,84.3%,0%);fill-opacity:1;" d="M 36.207031 345.152344 C 36.207031 348.96875 33.113281 352.058594 29.300781 352.058594 C 25.488281 352.058594 22.398438 348.96875 22.398438 345.152344 C 22.398438 341.339844 25.488281 338.25 29.300781 338.25 C 33.113281 338.25 36.207031 341.339844 36.207031 345.152344 "/>
<path style=" stroke:none;fill-rule:nonzero;fill:rgb(100%,84.3%,0%);fill-opacity:1;" d="M 127.578125 374.097656 C 127.578125 377.910156 124.488281 381 120.675781 381 C 116.859375 381 113.769531 377.910156 113.769531 374.097656 C 113.769531 370.285156 116.859375 367.191406 120.675781 367.191406 C 124.488281 367.191406 127.578125 370.285156 127.578125 374.097656 "/>
<path style=" stroke:none;fill-rule:nonzero;fill:rgb(100%,84.3%,0%);fill-opacity:1;" d="M 60.328125 125.316406 C 60.328125 129.128906 57.238281 132.21875 53.425781 132.21875 C 49.613281 132.21875 46.519531 129.128906 46.519531 125.316406 C 46.519531 121.503906 49.613281 118.410156 53.425781 118.410156 C 57.238281 118.410156 60.328125 121.503906 60.328125 125.316406 "/>
<path style=" stroke:none;fill-rule:nonzero;fill:rgb(100%,84.3%,0%);fill-opacity:1;" d="M 36.496094 257.871094 C 36.496094 261.683594 33.40625 264.773438 29.59375 264.773438 C 25.78125 264.773438 22.6875 261.683594 22.6875 257.871094 C 22.6875 254.058594 25.78125 250.96875 29.59375 250.96875 C 33.40625 250.96875 36.496094 254.058594 36.496094 257.871094 "/>
<path style=" stroke:none;fill-rule:nonzero;fill:rgb(100%,84.3%,0%);fill-opacity:1;" d="M 144.316406 321.136719 C 144.316406 324.949219 141.226562 328.039062 137.414062 328.039062 C 133.601562 328.039062 130.511719 324.949219 130.511719 321.136719 C 130.511719 317.324219 133.601562 314.230469 137.414062 314.230469 C 141.226562 314.230469 144.316406 317.324219 144.316406 321.136719 "/>
<path style=" stroke:none;fill-rule:nonzero;fill:rgb(100%,84.3%,0%);fill-opacity:1;" d="M 141.480469 113.542969 C 141.480469 117.355469 138.390625 120.449219 134.578125 120.449219 C 130.765625 120.449219 127.671875 117.355469 127.671875 113.542969 C 127.671875 109.730469 130.765625 106.640625 134.578125 106.640625 C 138.390625 106.640625 141.480469 109.730469 141.480469 113.542969 "/>
<path style=" stroke:none;fill-rule:nonzero;fill:rgb(100%,84.3%,0%);fill-opacity:1;" d="M 107.464844 67.988281 C 107.464844 71.800781 104.375 74.894531 100.5625 74.894531 C 96.746094 74.894531 93.65625 71.800781 93.65625 67.988281 C 93.65625 64.175781 96.746094 61.085938 100.5625 61.085938 C 104.375 61.085938 107.464844 64.175781 107.464844 67.988281 "/>
<path style=" stroke:none;fill-rule:nonzero;fill:rgb(100%,84.3%,0%);fill-opacity:1;" d="M 145.710938 431.878906 C 145.710938 435.691406 142.617188 438.78125 138.804688 438.78125 C 134.992188 438.78125 131.902344 435.691406 131.902344 431.878906 C 131.902344 428.066406 134.992188 424.972656 138.804688 424.972656 C 142.617188 424.972656 145.710938 428.066406 145.710938 431.878906 "/>
<path style=" stroke:none;fill-rule:nonzero;fill:rgb(100%,84.3%,0%);fill-opacity:1;" d="M 39.527344 123.097656 C 39.527344 126.910156 36.4375 130 32.621094 130 C 28.808594 130 25.71875 126.910156 25.71875 123.097656 C 25.71875 119.285156 28.808594 116.191406 32.621094 116.191406 C 36.4375 116.191406 39.527344 119.285156 39.527344 123.097656 "/>
<path style=" stroke:none;fill-rule:nonzero;fill:rgb(100%,84.3%,0%);fill-opacity:1;" d="M 143.59375 417.804688 C 143.59375 421.617188 140.5 424.710938 136.6875 424.710938 C 132.875 424.710938 129.785156 421.617188 129.785156 417.804688 C 129.785156 413.992188 132.875 410.902344 136.6875 410.902344 C 140.5 410.902344 143.59375 413.992188 143.59375 417.804688 "/>
<path style=" stroke:none;fill-rule:nonzero;fill:rgb(100%,84.3%,0%);fill-opacity:1;" d="M 72.941406 313.933594 C 72.941406 317.746094 69.851562 320.839844 66.039062 320.839844 C 62.226562 320.839844 59.132812 317.746094 59.132812 313.933594 C 59.132812 310.121094 62.226562 307.03125 66.039062 307.03125 C 69.851562 307.03125 72.941406 310.121094 72.941406 313.933594 "/>
<path style=" stroke:none;fill-rule:nonzero;fill:rgb(100%,84.3%,0%);fill-opacity:1;" d="M 51.445312 209.234375 C 51.445312 213.046875 48.355469 216.136719 44.539062 216.136719 C 40.726562 216.136719 37.636719 213.046875 37.636719 209.234375 C 37.636719 205.421875 40.726562 202.328125 44.539062 202.328125 C 48.355469 202.328125 51.445312 205.421875 51.445312 209.234375 "/>
<path style=" stroke:none;fill-rule:nonzero;fill:rgb(100%,84.3%,0%);fill-opacity:1;" d="M 38.96875 138.300781 C 38.96875 142.113281 35.878906 145.207031 32.066406 145.207031 C 28.253906 145.207031 25.160156 142.113281 25.160156 138.300781 C 25.160156 134.488281 28.253906 131.398438 32.066406 131.398438 C 35.878906 131.398438 38.96875 134.488281 38.96875 138.300781 "/>
<path style=" stroke:none;fill-rule:nonzero;fill:rgb(100%,84.3%,0%);fill-opacity:1;" d="M 140.46875 351.925781 C 140.46875 355.738281 137.375 358.832031 133.5625 358.832031 C 129.75 358.832031 126.660156 355.738281 126.660156 351.925781 C 126.660156 348.113281 129.75 345.023438 133.5625 345.023438 C 137.375 345.023438 140.46875 348.113281 140.46875 351.925781 "/>
<path style=" stroke:none;fill-rule:nonzero;fill:rgb(100%,84.3%,0%);fill-opacity:1;" d="M 49.113281 453.8125 C 49.113281 457.625 46.023438 460.714844 42.210938 460.714844 C 38.394531 460.714844 35.304688 457.625 35.304688 453.8125 C 35.304688 449.996094 38.394531 446.90625 42.210938 446.90625 C 46.023438 446.90625 49.113281 449.996094 49.113281 453.8125 "/>
</g>
</svg>
