<?xml version="1.0" encoding="UTF-8"?>
<svg xmlns="http://www.w3.org/2000/svg" xmlns:xlink="http://www.w3.org/1999/xlink" width="512pt" height="512pt" viewBox="0 0 512 512" version="1.1">
<g id="surface196">
<path style=" stroke:none;fill-rule:nonzero;fill:rgb(26.7%,26.7%,26.7%);fill-opacity:1;" d="M 17.066406 0 L 494.933594 0 L 494.933594 512 L 17.066406 512 Z M 17.066406 0 "/>
<path style=" stroke:none;fill-rule:nonzero;fill:rgb(19.2%,38.8%,66.7%);fill-opacity:1;" d="M 56.890625 42.667969 L 455.113281 42.667969 L 455.113281 469.332031 L 56.890625 469.332031 Z M 56.890625 42.667969 "/>
<path style=" stroke:none;fill-rule:nonzero;fill:rgb(100%,100%,100%);fill-opacity:1;" d="M 56.890625 313.984375 C 56.890625 320.023438 51.992188 324.921875 45.949219 324.921875 C 39.90625 324.921875 35.007812 320.023438 35.007812 313.984375 C 35.007812 307.941406 39.90625 303.042969 45.949219 303.042969 C 51.992188 303.042969 56.890625 307.941406 56.890625 313.984375 "/>
<path style=" stroke:none;fill-rule:nonzero;fill:rgb(100%,100%,100%);fill-opacity:1;" d="M 363.214844 506.53125 C 363.214844 512.570312 358.316406 517.46875 352.273438 517.46875 C 346.230469 517.46875 341.332031 512.570312 341.332031 506.53125 C 341.332031 500.488281 346.230469 495.589844 352.273438 495.589844 C 358.316406 495.589844 363.214844 500.488281 363.214844 506.53125 "/>
<path style=" stroke:none;fill-rule:nonzero;fill:rgb(100%,100%,100%);fill-opacity:1;" d="M 56.890625 79.863281 C 56.890625 85.90625 51.992188 90.804688 45.949219 90.804688 C 39.90625 90.804688 35.007812 85.90625 35.007812 79.863281 C 35.007812 73.820312 39.90625 68.921875 45.949219 68.921875 C 51.992188 68.921875 56.890625 73.820312 56.890625 79.863281 "/>
<path style=" stroke:none;fill-rule:nonzero;fill:rgb(100%,100%,100%);fill-opacity:1;" d="M 59.078125 47.042969 C 59.078125 53.085938 54.179688 57.984375 48.136719 57.984375 C 42.09375 57.984375 37.195312 53.085938 37.195312 47.042969 C 37.195312 41 42.09375 36.101562 48.136719 36.101562 C 54.179688 36.101562 59.078125 41 59.078125 47.042969 "/>
<path style=" stroke:none;fill-rule:nonzero;fill:rgb(100%,100%,100%);fill-opacity:1;" d="M 509.8125 47.042969 C 509.8125 53.085938 504.914062 57.984375 498.871094 57.984375 C 492.828125 57.984375 487.933594 53.085938 487.933594 47.042969 C 487.933594 41 492.828125 36.101562 498.871094 36.101562 C 504.914062 36.101562 509.8125 41 509.8125 47.042969 "/>
<path style=" stroke:none;fill-rule:nonzero;fill:rgb(100%,100%,100%);fill-opacity:1;" d="M 435.417969 519.65625 C 435.417969 525.699219 430.519531 530.597656 424.480469 530.597656 C 418.4375 530.597656 413.539062 525.699219 413.539062 519.65625 C 413.539062 513.617188 418.4375 508.71875 424.480469 508.71875 C 430.519531 508.71875 435.417969 513.617188 435.417969 519.65625 "/>
<path style=" stroke:none;fill-rule:nonzero;fill:rgb(100%,100%,100%);fill-opacity:1;" d="M 505.4375 489.027344 C 505.4375 495.066406 500.539062 499.964844 494.496094 499.964844 C 488.453125 499.964844 483.554688 495.066406 483.554688 489.027344 C 483.554688 482.984375 488.453125 478.085938 494.496094 478.085938 C 500.539062 478.085938 505.4375 482.984375 505.4375 489.027344 "/>
<path style=" stroke:none;fill-rule:nonzero;fill:rgb(100%,100%,100%);fill-opacity:1;" d="M 518.5625 239.589844 C 518.5625 245.632812 513.667969 250.53125 507.625 250.53125 C 501.582031 250.53125 496.683594 245.632812 496.683594 239.589844 C 496.683594 233.546875 501.582031 228.648438 507.625 228.648438 C 513.667969 228.648438 518.5625 233.546875 518.5625 239.589844 "/>
<path style=" stroke:none;fill-rule:nonzero;fill:rgb(100%,100%,100%);fill-opacity:1;" d="M 65.640625 213.332031 C 65.640625 219.375 60.742188 224.273438 54.699219 224.273438 C 48.660156 224.273438 43.761719 219.375 43.761719 213.332031 C 43.761719 207.289062 48.660156 202.394531 54.699219 202.394531 C 60.742188 202.394531 65.640625 207.289062 65.640625 213.332031 "/>
<path style=" stroke:none;fill-rule:nonzero;fill:rgb(100%,100%,100%);fill-opacity:1;" d="M 358.835938 12.035156 C 358.835938 18.074219 353.9375 22.972656 347.898438 22.972656 C 341.855469 22.972656 336.957031 18.074219 336.957031 12.035156 C 336.957031 5.992188 341.855469 1.09375 347.898438 1.09375 C 353.9375 1.09375 358.835938 5.992188 358.835938 12.035156 "/>
<path style=" stroke:none;fill-rule:nonzero;fill:rgb(100%,100%,100%);fill-opacity:1;" d="M 65.640625 33.914062 C 65.640625 39.957031 60.742188 44.855469 54.699219 44.855469 C 48.660156 44.855469 43.761719 39.957031 43.761719 33.914062 C 43.761719 27.871094 48.660156 22.976562 54.699219 22.976562 C 60.742188 22.976562 65.640625 27.871094 65.640625 33.914062 "/>
<path style=" stroke:none;fill-rule:nonzero;fill:rgb(100%,100%,100%);fill-opacity:1;" d="M 479.179688 82.050781 C 479.179688 88.09375 474.28125 92.992188 468.238281 92.992188 C 462.195312 92.992188 457.300781 88.09375 457.300781 82.050781 C 457.300781 76.007812 462.195312 71.109375 468.238281 71.109375 C 474.28125 71.109375 479.179688 76.007812 479.179688 82.050781 "/>
<path style=" stroke:none;fill-rule:nonzero;fill:rgb(100%,100%,100%);fill-opacity:1;" d="M 452.921875 3.28125 C 452.921875 9.324219 448.023438 14.222656 441.984375 14.222656 C 435.941406 14.222656 431.042969 9.324219 431.042969 3.28125 C 431.042969 -2.761719 435.941406 -7.65625 441.984375 -7.65625 C 448.023438 -7.65625 452.921875 -2.761719 452.921875 3.28125 "/>
<path style=" stroke:none;fill-rule:nonzero;fill:rgb(100%,100%,100%);fill-opacity:1;" d="M 45.949219 475.898438 C 45.949219 481.9375 41.050781 486.835938 35.007812 486.835938 C 28.96875 486.835938 24.070312 481.9375 24.070312 475.898438 C 24.070312 469.855469 28.96875 464.957031 35.007812 464.957031 C 41.050781 464.957031 45.949219 469.855469 45.949219 475.898438 "/>
<path style=" stroke:none;fill-rule:nonzero;fill:rgb(100%,100%,100%);fill-opacity:1;" d="M 207.863281 504.34375 C 207.863281 510.382812 202.964844 515.28125 196.921875 515.28125 C 190.882812 515.28125 185.984375 510.382812 185.984375 504.34375 C 185.984375 498.300781 190.882812 493.402344 196.921875 493.402344 C 202.964844 493.402344 207.863281 498.300781 207.863281 504.34375 "/>
<path style=" stroke:none;fill-rule:nonzero;fill:rgb(100%,100%,100%);fill-opacity:1;" d="M 56.890625 504.34375 C 56.890625 510.382812 51.992188 515.28125 45.949219 515.28125 C 39.90625 515.28125 35.007812 510.382812 35.007812 504.34375 C 35.007812 498.300781 39.90625 493.402344 45.949219 493.402344 C 51.992188 493.402344 56.890625 498.300781 56.890625 504.34375 "/>
<path style=" stroke:none;fill-rule:nonzero;fill:rgb(100%,100%,100%);fill-opacity:1;" d="M 380.71875 -9.847656 C 380.71875 -3.804688 375.820312 1.09375 369.777344 1.09375 C 363.734375 1.09375 358.835938 -3.804688 358.835938 -9.847656 C 358.835938 -15.886719 363.734375 -20.785156 369.777344 -20.785156 C 375.820312 -20.785156 380.71875 -15.886719 380.71875 -9.847656 "/>
<path style=" stroke:none;fill-rule:nonzero;fill:rgb(100%,100%,100%);fill-opacity:1;" d="M 245.058594 40.480469 C 245.058594 46.519531 240.160156 51.417969 234.121094 51.417969 C 228.078125 51.417969 223.179688 46.519531 223.179688 40.480469 C 223.179688 34.4375 228.078125 29.539062 234.121094 29.539062 C 240.160156 29.539062 245.058594 34.4375 245.058594 40.480469 "/>
<path style=" stroke:none;fill-rule:nonzero;fill:rgb(100%,100%,100%);fill-opacity:1;" d="M 299.761719 473.710938 C 299.761719 479.75 294.863281 484.648438 288.820312 484.648438 C 282.777344 484.648438 277.878906 479.75 277.878906 473.710938 C 277.878906 467.667969 282.777344 462.769531 288.820312 462.769531 C 294.863281 462.769531 299.761719 467.667969 299.761719 473.710938 "/>
<path style=" stroke:none;fill-rule:nonzero;fill:rgb(100%,100%,100%);fill-opacity:1;" d="M 212.238281 3.28125 C 212.238281 9.324219 207.339844 14.222656 201.300781 14.222656 C 195.257812 14.222656 190.359375 9.324219 190.359375 3.28125 C 190.359375 -2.761719 195.257812 -7.65625 201.300781 -7.65625 C 207.339844 -7.65625 212.238281 -2.761719 212.238281 3.28125 "/>
<path style=" stroke:none;fill-rule:nonzero;fill:rgb(100%,100%,100%);fill-opacity:1;" d="M 516.375 160.820312 C 516.375 166.863281 511.476562 171.761719 505.4375 171.761719 C 499.394531 171.761719 494.496094 166.863281 494.496094 160.820312 C 494.496094 154.777344 499.394531 149.878906 505.4375 149.878906 C 511.476562 149.878906 516.375 154.777344 516.375 160.820312 "/>
<path style=" stroke:none;fill-rule:nonzero;fill:rgb(100%,100%,100%);fill-opacity:1;" d="M 240.683594 40.480469 C 240.683594 46.519531 235.785156 51.417969 229.742188 51.417969 C 223.703125 51.417969 218.804688 46.519531 218.804688 40.480469 C 218.804688 34.4375 223.703125 29.539062 229.742188 29.539062 C 235.785156 29.539062 240.683594 34.4375 240.683594 40.480469 "/>
<path style=" stroke:none;fill-rule:nonzero;fill:rgb(100%,100%,100%);fill-opacity:1;" d="M 63.453125 7.65625 C 63.453125 13.699219 58.554688 18.597656 52.511719 18.597656 C 46.472656 18.597656 41.574219 13.699219 41.574219 7.65625 C 41.574219 1.617188 46.472656 -3.28125 52.511719 -3.28125 C 58.554688 -3.28125 63.453125 1.617188 63.453125 7.65625 "/>
<path style=" stroke:none;fill-rule:nonzero;fill:rgb(100%,84.3%,0%);fill-opacity:1;" d="M 322.109375 65.507812 C 322.109375 71.550781 317.214844 76.449219 311.171875 76.449219 C 305.128906 76.449219 300.230469 71.550781 300.230469 65.507812 C 300.230469 59.46875 305.128906 54.570312 311.171875 54.570312 C 317.214844 54.570312 322.109375 59.46875 322.109375 65.507812 "/>
<path style=" stroke:none;fill-rule:nonzero;fill:rgb(100%,84.3%,0%);fill-opacity:1;" d="M 295.210938 445.1875 C 295.210938 451.230469 290.3125 456.128906 284.269531 456.128906 C 278.226562 456.128906 273.328125 451.230469 273.328125 445.1875 C 273.328125 439.144531 278.226562 434.246094 284.269531 434.246094 C 290.3125 434.246094 295.210938 439.144531 295.210938 445.1875 "/>
<path style=" stroke:none;fill-rule:nonzero;fill:rgb(100%,84.3%,0%);fill-opacity:1;" d="M 95.632812 214.753906 C 95.632812 220.796875 90.734375 225.691406 84.695312 225.691406 C 78.652344 225.691406 73.753906 220.796875 73.753906 214.753906 C 73.753906 208.710938 78.652344 203.8125 84.695312 203.8125 C 90.734375 203.8125 95.632812 208.710938 95.632812 214.753906 "/>
<path style=" stroke:none;fill-rule:nonzero;fill:rgb(100%,84.3%,0%);fill-opacity:1;" d="M 237.496094 69.515625 C 237.496094 75.554688 232.597656 80.453125 226.554688 80.453125 C 220.511719 80.453125 215.613281 75.554688 215.613281 69.515625 C 215.613281 63.472656 220.511719 58.574219 226.554688 58.574219 C 232.597656 58.574219 237.496094 63.472656 237.496094 69.515625 "/>
<path style=" stroke:none;fill-rule:nonzero;fill:rgb(100%,84.3%,0%);fill-opacity:1;" d="M 266.734375 443.21875 C 266.734375 449.261719 261.835938 454.160156 255.792969 454.160156 C 249.75 454.160156 244.855469 449.261719 244.855469 443.21875 C 244.855469 437.179688 249.75 432.28125 255.792969 432.28125 C 261.835938 432.28125 266.734375 437.179688 266.734375 443.21875 "/>
<path style=" stroke:none;fill-rule:nonzero;fill:rgb(100%,84.3%,0%);fill-opacity:1;" d="M 89.769531 190.082031 C 89.769531 196.125 84.875 201.019531 78.832031 201.019531 C 72.789062 201.019531 67.890625 196.125 67.890625 190.082031 C 67.890625 184.039062 72.789062 179.140625 78.832031 179.140625 C 84.875 179.140625 89.769531 184.039062 89.769531 190.082031 "/>
<path style=" stroke:none;fill-rule:nonzero;fill:rgb(100%,84.3%,0%);fill-opacity:1;" d="M 92.132812 236.90625 C 92.132812 242.949219 87.234375 247.847656 81.191406 247.847656 C 75.152344 247.847656 70.253906 242.949219 70.253906 236.90625 C 70.253906 230.863281 75.152344 225.96875 81.191406 225.96875 C 87.234375 225.96875 92.132812 230.863281 92.132812 236.90625 "/>
<path style=" stroke:none;fill-rule:nonzero;fill:rgb(100%,84.3%,0%);fill-opacity:1;" d="M 369.101562 64.765625 C 369.101562 70.808594 364.203125 75.707031 358.160156 75.707031 C 352.121094 75.707031 347.222656 70.808594 347.222656 64.765625 C 347.222656 58.722656 352.121094 53.824219 358.160156 53.824219 C 364.203125 53.824219 369.101562 58.722656 369.101562 64.765625 "/>
<path style=" stroke:none;fill-rule:nonzero;fill:rgb(100%,84.3%,0%);fill-opacity:1;" d="M 322.890625 444.273438 C 322.890625 450.3125 317.992188 455.210938 311.949219 455.210938 C 305.910156 455.210938 301.011719 450.3125 301.011719 444.273438 C 301.011719 438.230469 305.910156 433.332031 311.949219 433.332031 C 317.992188 433.332031 322.890625 438.230469 322.890625 444.273438 "/>
<path style=" stroke:none;fill-rule:nonzero;fill:rgb(100%,84.3%,0%);fill-opacity:1;" d="M 265.375 69.320312 C 265.375 75.363281 260.476562 80.261719 254.433594 80.261719 C 248.390625 80.261719 243.492188 75.363281 243.492188 69.320312 C 243.492188 63.277344 248.390625 58.378906 254.433594 58.378906 C 260.476562 58.378906 265.375 63.277344 265.375 69.320312 "/>
</g>
</svg>
