<?xml version="1.0" encoding="UTF-8"?>
<svg xmlns="http://www.w3.org/2000/svg" xmlns:xlink="http://www.w3.org/1999/xlink" width="512pt" height="512pt" viewBox="0 0 512 512" version="1.1">
<g id="surface221">
<path style=" stroke:none;fill-rule:nonzero;fill:rgb(26.7%,26.7%,26.7%);fill-opacity:1;" d="M 121.535156 0 L 390.464844 0 L 390.464844 512 L 121.535156 512 Z M 121.535156 0 "/>
<path style=" stroke:none;fill-rule:nonzero;fill:rgb(19.2%,38.8%,66.7%);fill-opacity:1;" d="M 143.945312 42.667969 L 368.054688 42.667969 L 368.054688 469.332031 L 143.945312 469.332031 Z M 143.945312 42.667969 "/>
<path style=" stroke:none;fill-rule:nonzero;fill:rgb(100%,100%,100%);fill-opacity:1;" d="M 262.464844 490.882812 C 262.464844 496.832031 257.640625 501.65625 251.691406 501.65625 C 245.738281 501.65625 240.914062 496.832031 240.914062 490.882812 C 240.914062 484.929688 245.738281 480.109375 251.691406 480.109375 C 257.640625 480.109375 262.464844 484.929688 262.464844 490.882812 "/>
<path style=" stroke:none;fill-rule:nonzero;fill:rgb(100%,100%,100%);fill-opacity:1;" d="M 42.667969 150.410156 C 42.667969 156.363281 37.84375 161.183594 31.890625 161.183594 C 25.941406 161.183594 21.117188 156.363281 21.117188 150.410156 C 21.117188 144.460938 25.941406 139.636719 31.890625 139.636719 C 37.84375 139.636719 42.667969 144.460938 42.667969 150.410156 "/>
<path style=" stroke:none;fill-rule:nonzero;fill:rgb(100%,100%,100%);fill-opacity:1;" d="M 124.550781 21.117188 C 124.550781 27.070312 119.730469 31.890625 113.777344 31.890625 C 107.828125 31.890625 103.003906 27.070312 103.003906 21.117188 C 103.003906 15.167969 107.828125 10.34375 113.777344 10.34375 C 119.730469 10.34375 124.550781 15.167969 124.550781 21.117188 "/>
<path style=" stroke:none;fill-rule:nonzero;fill:rgb(100%,100%,100%);fill-opacity:1;" d="M 359.433594 -2.585938 C 359.433594 3.363281 354.609375 8.1875 348.660156 8.1875 C 342.710938 8.1875 337.886719 3.363281 337.886719 -2.585938 C 337.886719 -8.535156 342.710938 -13.359375 348.660156 -13.359375 C 354.609375 -13.359375 359.433594 -8.535156 359.433594 -2.585938 "/>
<path style=" stroke:none;fill-rule:nonzero;fill:rgb(100%,100%,100%);fill-opacity:1;" d="M 70.679688 64.214844 C 70.679688 70.164062 65.855469 74.988281 59.90625 74.988281 C 53.957031 74.988281 49.132812 70.164062 49.132812 64.214844 C 49.132812 58.265625 53.957031 53.441406 59.90625 53.441406 C 65.855469 53.441406 70.679688 58.265625 70.679688 64.214844 "/>
<path style=" stroke:none;fill-rule:nonzero;fill:rgb(100%,100%,100%);fill-opacity:1;" d="M 417.617188 92.230469 C 417.617188 98.179688 412.792969 103.003906 406.84375 103.003906 C 400.890625 103.003906 396.066406 98.179688 396.066406 92.230469 C 396.066406 86.277344 400.890625 81.453125 406.84375 81.453125 C 412.792969 81.453125 417.617188 86.277344 417.617188 92.230469 "/>
<path style=" stroke:none;fill-rule:nonzero;fill:rgb(100%,100%,100%);fill-opacity:1;" d="M 368.054688 512.429688 C 368.054688 518.382812 363.230469 523.207031 357.277344 523.207031 C 351.328125 523.207031 346.503906 518.382812 346.503906 512.429688 C 346.503906 506.480469 351.328125 501.65625 357.277344 501.65625 C 363.230469 501.65625 368.054688 506.480469 368.054688 512.429688 "/>
<path style=" stroke:none;fill-rule:nonzero;fill:rgb(100%,100%,100%);fill-opacity:1;" d="M 57.75 100.847656 C 57.75 106.796875 52.925781 111.621094 46.976562 111.621094 C 41.027344 111.621094 36.203125 106.796875 36.203125 100.847656 C 36.203125 94.898438 41.027344 90.074219 46.976562 90.074219 C 52.925781 90.074219 57.75 94.898438 57.75 100.847656 "/>
<path style=" stroke:none;fill-rule:nonzero;fill:rgb(100%,100%,100%);fill-opacity:1;" d="M 497.347656 249.535156 C 497.347656 255.484375 492.523438 260.308594 486.570312 260.308594 C 480.621094 260.308594 475.796875 255.484375 475.796875 249.535156 C 475.796875 243.585938 480.621094 238.761719 486.570312 238.761719 C 492.523438 238.761719 497.347656 243.585938 497.347656 249.535156 "/>
<path style=" stroke:none;fill-rule:nonzero;fill:rgb(100%,100%,100%);fill-opacity:1;" d="M 103.003906 411.152344 C 103.003906 417.101562 98.179688 421.925781 92.230469 421.925781 C 86.277344 421.925781 81.453125 417.101562 81.453125 411.152344 C 81.453125 405.203125 86.277344 400.378906 92.230469 400.378906 C 98.179688 400.378906 103.003906 405.203125 103.003906 411.152344 "/>
<path style=" stroke:none;fill-rule:nonzero;fill:rgb(100%,100%,100%);fill-opacity:1;" d="M 107.3125 10.34375 C 107.3125 16.292969 102.488281 21.117188 96.539062 21.117188 C 90.589844 21.117188 85.765625 16.292969 85.765625 10.34375 C 85.765625 4.390625 90.589844 -0.429688 96.539062 -0.429688 C 102.488281 -0.429688 107.3125 4.390625 107.3125 10.34375 "/>
<path style=" stroke:none;fill-rule:nonzero;fill:rgb(100%,100%,100%);fill-opacity:1;" d="M 55.597656 346.503906 C 55.597656 352.457031 50.773438 357.28125 44.820312 357.28125 C 38.871094 357.28125 34.046875 352.457031 34.046875 346.503906 C 34.046875 340.554688 38.871094 335.730469 44.820312 335.730469 C 50.773438 335.730469 55.597656 340.554688 55.597656 346.503906 "/>
<path style=" stroke:none;fill-rule:nonzero;fill:rgb(100%,100%,100%);fill-opacity:1;" d="M 55.597656 305.5625 C 55.597656 311.511719 50.773438 316.335938 44.820312 316.335938 C 38.871094 316.335938 34.046875 311.511719 34.046875 305.5625 C 34.046875 299.613281 38.871094 294.789062 44.820312 294.789062 C 50.773438 294.789062 55.597656 299.613281 55.597656 305.5625 "/>
<path style=" stroke:none;fill-rule:nonzero;fill:rgb(100%,100%,100%);fill-opacity:1;" d="M 495.191406 404.6875 C 495.191406 410.636719 490.367188 415.460938 484.417969 415.460938 C 478.46875 415.460938 473.644531 410.636719 473.644531 404.6875 C 473.644531 398.738281 478.46875 393.914062 484.417969 393.914062 C 490.367188 393.914062 495.191406 398.738281 495.191406 404.6875 "/>
<path style=" stroke:none;fill-rule:nonzero;fill:rgb(100%,100%,100%);fill-opacity:1;" d="M 512.429688 434.855469 C 512.429688 440.804688 507.609375 445.628906 501.65625 445.628906 C 495.707031 445.628906 490.882812 440.804688 490.882812 434.855469 C 490.882812 428.90625 495.707031 424.082031 501.65625 424.082031 C 507.609375 424.082031 512.429688 428.90625 512.429688 434.855469 "/>
<path style=" stroke:none;fill-rule:nonzero;fill:rgb(100%,100%,100%);fill-opacity:1;" d="M 307.71875 1.722656 C 307.71875 7.675781 302.894531 12.5 296.941406 12.5 C 290.992188 12.5 286.167969 7.675781 286.167969 1.722656 C 286.167969 -4.226562 290.992188 -9.050781 296.941406 -9.050781 C 302.894531 -9.050781 307.71875 -4.226562 307.71875 1.722656 "/>
<path style=" stroke:none;fill-rule:nonzero;fill:rgb(100%,84.3%,0%);fill-opacity:1;" d="M 352.394531 444.539062 C 352.394531 450.492188 347.574219 455.316406 341.621094 455.316406 C 335.671875 455.316406 330.847656 450.492188 330.847656 444.539062 C 330.847656 438.589844 335.671875 433.765625 341.621094 433.765625 C 347.574219 433.765625 352.394531 438.589844 352.394531 444.539062 "/>
<path style=" stroke:none;fill-rule:nonzero;fill:rgb(100%,84.3%,0%);fill-opacity:1;" d="M 328.203125 67.3125 C 328.203125 73.261719 323.378906 78.085938 317.429688 78.085938 C 311.480469 78.085938 306.65625 73.261719 306.65625 67.3125 C 306.65625 61.359375 311.480469 56.535156 317.429688 56.535156 C 323.378906 56.535156 328.203125 61.359375 328.203125 67.3125 "/>
<path style=" stroke:none;fill-rule:nonzero;fill:rgb(100%,84.3%,0%);fill-opacity:1;" d="M 349.421875 102.652344 C 349.421875 108.601562 344.597656 113.425781 338.648438 113.425781 C 332.695312 113.425781 327.871094 108.601562 327.871094 102.652344 C 327.871094 96.703125 332.695312 91.878906 338.648438 91.878906 C 344.597656 91.878906 349.421875 96.703125 349.421875 102.652344 "/>
<path style=" stroke:none;fill-rule:nonzero;fill:rgb(100%,84.3%,0%);fill-opacity:1;" d="M 357.28125 64.214844 C 357.28125 70.164062 352.457031 74.988281 346.503906 74.988281 C 340.554688 74.988281 335.730469 70.164062 335.730469 64.214844 C 335.730469 58.265625 340.554688 53.441406 346.503906 53.441406 C 352.457031 53.441406 357.28125 58.265625 357.28125 64.214844 "/>
<path style=" stroke:none;fill-rule:nonzero;fill:rgb(100%,84.3%,0%);fill-opacity:1;" d="M 271.550781 446.785156 C 271.550781 452.738281 266.730469 457.5625 260.777344 457.5625 C 254.828125 457.5625 250.003906 452.738281 250.003906 446.785156 C 250.003906 440.835938 254.828125 436.011719 260.777344 436.011719 C 266.730469 436.011719 271.550781 440.835938 271.550781 446.785156 "/>
<path style=" stroke:none;fill-rule:nonzero;fill:rgb(100%,84.3%,0%);fill-opacity:1;" d="M 180.132812 391.488281 C 180.132812 397.441406 175.308594 402.265625 169.359375 402.265625 C 163.410156 402.265625 158.585938 397.441406 158.585938 391.488281 C 158.585938 385.539062 163.410156 380.714844 169.359375 380.714844 C 175.308594 380.714844 180.132812 385.539062 180.132812 391.488281 "/>
<path style=" stroke:none;fill-rule:nonzero;fill:rgb(100%,84.3%,0%);fill-opacity:1;" d="M 334.070312 433.191406 C 334.070312 439.144531 329.246094 443.96875 323.296875 443.96875 C 317.347656 443.96875 312.523438 439.144531 312.523438 433.191406 C 312.523438 427.242188 317.347656 422.417969 323.296875 422.417969 C 329.246094 422.417969 334.070312 427.242188 334.070312 433.191406 "/>
<path style=" stroke:none;fill-rule:nonzero;fill:rgb(100%,84.3%,0%);fill-opacity:1;" d="M 177.855469 424.148438 C 177.855469 430.097656 173.03125 434.921875 167.078125 434.921875 C 161.128906 434.921875 156.304688 430.097656 156.304688 424.148438 C 156.304688 418.199219 161.128906 413.375 167.078125 413.375 C 173.03125 413.375 177.855469 418.199219 177.855469 424.148438 "/>
<path style=" stroke:none;fill-rule:nonzero;fill:rgb(100%,84.3%,0%);fill-opacity:1;" d="M 291.953125 424.035156 C 291.953125 429.984375 287.128906 434.808594 281.179688 434.808594 C 275.230469 434.808594 270.40625 429.984375 270.40625 424.035156 C 270.40625 418.082031 275.230469 413.257812 281.179688 413.257812 C 287.128906 413.257812 291.953125 418.082031 291.953125 424.035156 "/>
<path style=" stroke:none;fill-rule:nonzero;fill:rgb(100%,84.3%,0%);fill-opacity:1;" d="M 180.847656 65.292969 C 180.847656 71.242188 176.023438 76.066406 170.074219 76.066406 C 164.125 76.066406 159.300781 71.242188 159.300781 65.292969 C 159.300781 59.34375 164.125 54.519531 170.074219 54.519531 C 176.023438 54.519531 180.847656 59.34375 180.847656 65.292969 "/>
</g>
</svg>
