<?xml version="1.0" encoding="UTF-8"?>
<svg xmlns="http://www.w3.org/2000/svg" xmlns:xlink="http://www.w3.org/1999/xlink" width="512pt" height="512pt" viewBox="0 0 512 512" version="1.1">
<g id="surface241">
<rect x="0" y="0" width="512" height="512" style="fill:rgb(26.7%,26.7%,26.7%);fill-opacity:1;stroke:none;"/>
<path style=" stroke:none;fill-rule:nonzero;fill:rgb(19.2%,38.8%,66.7%);fill-opacity:1;" d="M 0 46.546875 L 309.101562 46.546875 L 309.101562 512 L 0 512 Z M 0 46.546875 "/>
<path style=" stroke:none;fill-rule:nonzero;fill:rgb(100%,100%,100%);fill-opacity:1;" d="M 384.480469 178.304688 C 384.480469 179.636719 382.480469 179.636719 382.480469 178.304688 C 382.480469 176.972656 384.480469 176.972656 384.480469 178.304688 "/>
<path style=" stroke:none;fill-rule:nonzero;fill:rgb(100%,100%,100%);fill-opacity:1;" d="M 401.476562 505.203125 C 401.476562 506.535156 399.476562 506.535156 399.476562 505.203125 C 399.476562 503.867188 401.476562 503.867188 401.476562 505.203125 "/>
<path style=" stroke:none;fill-rule:nonzero;fill:rgb(100%,100%,100%);fill-opacity:1;" d="M 502.441406 258.277344 C 502.441406 259.613281 500.441406 259.613281 500.441406 258.277344 C 500.441406 256.945312 502.441406 256.945312 502.441406 258.277344 "/>
<path style=" stroke:none;fill-rule:nonzero;fill:rgb(100%,100%,100%);fill-opacity:1;" d="M 400.273438 434.023438 C 400.273438 435.355469 398.273438 435.355469 398.273438 434.023438 C 398.273438 432.691406 400.273438 432.691406 400.273438 434.023438 "/>
<path style=" stroke:none;fill-rule:nonzero;fill:rgb(100%,100%,100%);fill-opacity:1;" d="M 464.65625 91.132812 C 464.65625 92.464844 462.65625 92.464844 462.65625 91.132812 C 462.65625 89.800781 464.65625 89.800781 464.65625 91.132812 "/>
<path style=" stroke:none;fill-rule:nonzero;fill:rgb(100%,100%,100%);fill-opacity:1;" d="M 366.484375 342.253906 C 366.484375 343.585938 364.484375 343.585938 364.484375 342.253906 C 364.484375 340.921875 366.484375 340.921875 366.484375 342.253906 "/>
<path style=" stroke:none;fill-rule:nonzero;fill:rgb(100%,100%,100%);fill-opacity:1;" d="M 313.101562 98.527344 C 313.101562 99.863281 311.101562 99.863281 311.101562 98.527344 C 311.101562 97.195312 313.101562 97.195312 313.101562 98.527344 "/>
<path style=" stroke:none;fill-rule:nonzero;fill:rgb(100%,100%,100%);fill-opacity:1;" d="M 460.253906 211.492188 C 460.253906 212.828125 458.257812 212.828125 458.257812 211.492188 C 458.257812 210.160156 460.253906 210.160156 460.253906 211.492188 "/>
<path style=" stroke:none;fill-rule:nonzero;fill:rgb(100%,100%,100%);fill-opacity:1;" d="M 2.398438 11.355469 C 2.398438 12.6875 0.398438 12.6875 0.398438 11.355469 C 0.398438 10.023438 2.398438 10.023438 2.398438 11.355469 "/>
<path style=" stroke:none;fill-rule:nonzero;fill:rgb(100%,100%,100%);fill-opacity:1;" d="M 404.273438 106.726562 C 404.273438 108.058594 402.273438 108.058594 402.273438 106.726562 C 402.273438 105.394531 404.273438 105.394531 404.273438 106.726562 "/>
<path style=" stroke:none;fill-rule:nonzero;fill:rgb(100%,100%,100%);fill-opacity:1;" d="M 437.265625 495.003906 C 437.265625 496.339844 435.265625 496.339844 435.265625 495.003906 C 435.265625 493.671875 437.265625 493.671875 437.265625 495.003906 "/>
<path style=" stroke:none;fill-rule:nonzero;fill:rgb(100%,100%,100%);fill-opacity:1;" d="M 379.28125 198.496094 C 379.28125 199.832031 377.28125 199.832031 377.28125 198.496094 C 377.28125 197.164062 379.28125 197.164062 379.28125 198.496094 "/>
<path style=" stroke:none;fill-rule:nonzero;fill:rgb(100%,100%,100%);fill-opacity:1;" d="M 496.644531 410.230469 C 496.644531 411.566406 494.644531 411.566406 494.644531 410.230469 C 494.644531 408.898438 496.644531 408.898438 496.644531 410.230469 "/>
<path style=" stroke:none;fill-rule:nonzero;fill:rgb(100%,100%,100%);fill-opacity:1;" d="M 482.25 207.894531 C 482.25 209.226562 480.25 209.226562 480.25 207.894531 C 480.25 206.5625 482.25 206.5625 482.25 207.894531 "/>
<path style=" stroke:none;fill-rule:nonzero;fill:rgb(100%,100%,100%);fill-opacity:1;" d="M 339.492188 93.730469 C 339.492188 95.0625 337.496094 95.0625 337.496094 93.730469 C 337.496094 92.398438 339.492188 92.398438 339.492188 93.730469 "/>
<path style=" stroke:none;fill-rule:nonzero;fill:rgb(100%,100%,100%);fill-opacity:1;" d="M 434.664062 3.558594 C 434.664062 4.890625 432.664062 4.890625 432.664062 3.558594 C 432.664062 2.226562 434.664062 2.226562 434.664062 3.558594 "/>
<path style=" stroke:none;fill-rule:nonzero;fill:rgb(100%,100%,100%);fill-opacity:1;" d="M 338.894531 289.070312 C 338.894531 290.402344 336.894531 290.402344 336.894531 289.070312 C 336.894531 287.738281 338.894531 287.738281 338.894531 289.070312 "/>
<path style=" stroke:none;fill-rule:nonzero;fill:rgb(100%,100%,100%);fill-opacity:1;" d="M 207.933594 25.351562 C 207.933594 26.683594 205.933594 26.683594 205.933594 25.351562 C 205.933594 24.019531 207.933594 24.019531 207.933594 25.351562 "/>
<path style=" stroke:none;fill-rule:nonzero;fill:rgb(100%,100%,100%);fill-opacity:1;" d="M 428.265625 107.925781 C 428.265625 109.257812 426.265625 109.257812 426.265625 107.925781 C 426.265625 106.59375 428.265625 106.59375 428.265625 107.925781 "/>
<path style=" stroke:none;fill-rule:nonzero;fill:rgb(100%,100%,100%);fill-opacity:1;" d="M 125.5625 12.355469 C 125.5625 13.6875 123.5625 13.6875 123.5625 12.355469 C 123.5625 11.023438 125.5625 11.023438 125.5625 12.355469 "/>
<path style=" stroke:none;fill-rule:nonzero;fill:rgb(100%,100%,100%);fill-opacity:1;" d="M 458.058594 416.230469 C 458.058594 417.5625 456.058594 417.5625 456.058594 416.230469 C 456.058594 414.898438 458.058594 414.898438 458.058594 416.230469 "/>
<path style=" stroke:none;fill-rule:nonzero;fill:rgb(100%,100%,100%);fill-opacity:1;" d="M 141.957031 21.753906 C 141.957031 23.085938 139.957031 23.085938 139.957031 21.753906 C 139.957031 20.421875 141.957031 20.421875 141.957031 21.753906 "/>
<path style=" stroke:none;fill-rule:nonzero;fill:rgb(100%,100%,100%);fill-opacity:1;" d="M 454.65625 198.496094 C 454.65625 199.832031 452.660156 199.832031 452.660156 198.496094 C 452.660156 197.164062 454.65625 197.164062 454.65625 198.496094 "/>
<path style=" stroke:none;fill-rule:nonzero;fill:rgb(100%,100%,100%);fill-opacity:1;" d="M 321.699219 420.828125 C 321.699219 422.160156 319.699219 422.160156 319.699219 420.828125 C 319.699219 419.496094 321.699219 419.496094 321.699219 420.828125 "/>
<path style=" stroke:none;fill-rule:nonzero;fill:rgb(100%,100%,100%);fill-opacity:1;" d="M 505.441406 174.703125 C 505.441406 176.039062 503.441406 176.039062 503.441406 174.703125 C 503.441406 173.371094 505.441406 173.371094 505.441406 174.703125 "/>
<path style=" stroke:none;fill-rule:nonzero;fill:rgb(100%,100%,100%);fill-opacity:1;" d="M 438.460938 186.101562 C 438.460938 187.433594 436.464844 187.433594 436.464844 186.101562 C 436.464844 184.769531 438.460938 184.769531 438.460938 186.101562 "/>
<path style=" stroke:none;fill-rule:nonzero;fill:rgb(100%,100%,100%);fill-opacity:1;" d="M 448.660156 260.277344 C 448.660156 261.613281 446.660156 261.613281 446.660156 260.277344 C 446.660156 258.945312 448.660156 258.945312 448.660156 260.277344 "/>
<path style=" stroke:none;fill-rule:nonzero;fill:rgb(100%,84.3%,0%);fill-opacity:1;" d="M 302.917969 97.820312 C 302.917969 99.152344 300.917969 99.152344 300.917969 97.820312 C 300.917969 96.488281 302.917969 96.488281 302.917969 97.820312 "/>
<path style=" stroke:none;fill-rule:nonzero;fill:rgb(100%,84.3%,0%);fill-opacity:1;" d="M 304.25 79.367188 C 304.25 80.703125 302.25 80.703125 302.25 79.367188 C 302.25 78.035156 304.25 78.035156 304.25 79.367188 "/>
<path style=" stroke:none;fill-rule:nonzero;fill:rgb(100%,84.3%,0%);fill-opacity:1;" d="M 303.917969 86.097656 C 303.917969 87.429688 301.917969 87.429688 301.917969 86.097656 C 301.917969 84.765625 303.917969 84.765625 303.917969 86.097656 "/>
<path style=" stroke:none;fill-rule:nonzero;fill:rgb(100%,84.3%,0%);fill-opacity:1;" d="M 302.40625 95.214844 C 302.40625 96.546875 300.40625 96.546875 300.40625 95.214844 C 300.40625 93.882812 302.40625 93.882812 302.40625 95.214844 "/>
<path style=" stroke:none;fill-rule:nonzero;fill:rgb(100%,84.3%,0%);fill-opacity:1;" d="M 301.734375 100.207031 C 301.734375 101.539062 299.734375 101.539062 299.734375 100.207031 C 299.734375 98.875 301.734375 98.875 301.734375 100.207031 "/>
<path style=" stroke:none;fill-rule:nonzero;fill:rgb(100%,84.3%,0%);fill-opacity:1;" d="M 306.578125 49.195312 C 306.578125 50.527344 304.578125 50.527344 304.578125 49.195312 C 304.578125 47.863281 306.578125 47.863281 306.578125 49.195312 "/>
<path style=" stroke:none;fill-rule:nonzero;fill:rgb(100%,84.3%,0%);fill-opacity:1;" d="M 306.941406 122.34375 C 306.941406 123.675781 304.941406 123.675781 304.941406 122.34375 C 304.941406 121.007812 306.941406 121.007812 306.941406 122.34375 "/>
<path style=" stroke:none;fill-rule:nonzero;fill:rgb(100%,84.3%,0%);fill-opacity:1;" d="M 303.417969 91.960938 C 303.417969 93.292969 301.417969 93.292969 301.417969 91.960938 C 301.417969 90.625 303.417969 90.625 303.417969 91.960938 "/>
<path style=" stroke:none;fill-rule:nonzero;fill:rgb(100%,84.3%,0%);fill-opacity:1;" d="M 301.578125 107.804688 C 301.578125 109.136719 299.578125 109.136719 299.578125 107.804688 C 299.578125 106.472656 301.578125 106.472656 301.578125 107.804688 "/>
<path style=" stroke:none;fill-rule:nonzero;fill:rgb(100%,84.3%,0%);fill-opacity:1;" d="M 303.234375 82.625 C 303.234375 83.957031 301.234375 83.957031 301.234375 82.625 C 301.234375 81.292969 303.234375 81.292969 303.234375 82.625 "/>
<path style=" stroke:none;fill-rule:nonzero;fill:rgb(100%,84.3%,0%);fill-opacity:1;" d="M 302.246094 102.8125 C 302.246094 104.144531 300.25 104.144531 300.25 102.8125 C 300.25 101.480469 302.246094 101.480469 302.246094 102.8125 "/>
<path style=" stroke:none;fill-rule:nonzero;fill:rgb(100%,84.3%,0%);fill-opacity:1;" d="M 300.90625 112.796875 C 300.90625 114.128906 298.90625 114.128906 298.90625 112.796875 C 298.90625 111.464844 300.90625 111.464844 300.90625 112.796875 "/>
<path style=" stroke:none;fill-rule:nonzero;fill:rgb(100%,84.3%,0%);fill-opacity:1;" d="M 304.75 73.507812 C 304.75 74.839844 302.75 74.839844 302.75 73.507812 C 302.75 72.175781 304.75 72.175781 304.75 73.507812 "/>
<path style=" stroke:none;fill-rule:nonzero;fill:rgb(100%,84.3%,0%);fill-opacity:1;" d="M 301.0625 105.199219 C 301.0625 106.53125 299.0625 106.53125 299.0625 105.199219 C 299.0625 103.867188 301.0625 103.867188 301.0625 105.199219 "/>
<path style=" stroke:none;fill-rule:nonzero;fill:rgb(100%,84.3%,0%);fill-opacity:1;" d="M 295.359375 88.925781 C 295.359375 90.257812 293.359375 90.257812 293.359375 88.925781 C 293.359375 87.59375 295.359375 87.59375 295.359375 88.925781 "/>
<path style=" stroke:none;fill-rule:nonzero;fill:rgb(100%,84.3%,0%);fill-opacity:1;" d="M 305.917969 62.652344 C 305.917969 63.988281 303.921875 63.988281 303.921875 62.652344 C 303.921875 61.320312 305.917969 61.320312 305.917969 62.652344 "/>
<path style=" stroke:none;fill-rule:nonzero;fill:rgb(100%,84.3%,0%);fill-opacity:1;" d="M 299.394531 121.914062 C 299.394531 123.246094 297.394531 123.246094 297.394531 121.914062 C 297.394531 120.582031 299.394531 120.582031 299.394531 121.914062 "/>
<path style=" stroke:none;fill-rule:nonzero;fill:rgb(100%,84.3%,0%);fill-opacity:1;" d="M 302.734375 88.484375 C 302.734375 89.816406 300.734375 89.816406 300.734375 88.484375 C 300.734375 87.152344 302.734375 87.152344 302.734375 88.484375 "/>
<path style=" stroke:none;fill-rule:nonzero;fill:rgb(100%,84.3%,0%);fill-opacity:1;" d="M 121.976562 50.628906 C 121.976562 51.960938 119.976562 51.960938 119.976562 50.628906 C 119.976562 49.296875 121.976562 49.296875 121.976562 50.628906 "/>
</g>
</svg>
