<?xml version="1.0" encoding="UTF-8"?>
<svg xmlns="http://www.w3.org/2000/svg" xmlns:xlink="http://www.w3.org/1999/xlink" width="512pt" height="512pt" viewBox="0 0 512 512" version="1.1">
<g id="surface256">
<path style=" stroke:none;fill-rule:nonzero;fill:rgb(26.7%,26.7%,26.7%);fill-opacity:1;" d="M 219.601562 0 L 292.398438 0 L 292.398438 512 L 219.601562 512 Z M 219.601562 0 "/>
<path style=" stroke:none;fill-rule:nonzero;fill:rgb(19.2%,38.8%,66.7%);fill-opacity:1;" d="M 225.667969 42.667969 L 286.332031 42.667969 L 286.332031 469.332031 L 225.667969 469.332031 Z M 225.667969 42.667969 "/>
<path style=" stroke:none;fill-rule:nonzero;fill:rgb(100%,100%,100%);fill-opacity:1;" d="M 196.507812 262.535156 C 196.507812 264.769531 193.15625 264.769531 193.15625 262.535156 C 193.15625 260.300781 196.507812 260.300781 196.507812 262.535156 "/>
<path style=" stroke:none;fill-rule:nonzero;fill:rgb(100%,100%,100%);fill-opacity:1;" d="M 285.660156 22.222656 C 285.660156 24.457031 282.308594 24.457031 282.308594 22.222656 C 282.308594 19.988281 285.660156 19.988281 285.660156 22.222656 "/>
<path style=" stroke:none;fill-rule:nonzero;fill:rgb(100%,100%,100%);fill-opacity:1;" d="M 157.964844 72.160156 C 157.964844 74.394531 154.613281 74.394531 154.613281 72.160156 C 154.613281 69.925781 157.964844 69.925781 157.964844 72.160156 "/>
<path style=" stroke:none;fill-rule:nonzero;fill:rgb(100%,100%,100%);fill-opacity:1;" d="M 108.359375 44.34375 C 108.359375 46.578125 105.007812 46.578125 105.007812 44.34375 C 105.007812 42.109375 108.359375 42.109375 108.359375 44.34375 "/>
<path style=" stroke:none;fill-rule:nonzero;fill:rgb(100%,100%,100%);fill-opacity:1;" d="M 180.417969 181.425781 C 180.417969 183.660156 177.066406 183.660156 177.066406 181.425781 C 177.066406 179.191406 180.417969 179.191406 180.417969 181.425781 "/>
<path style=" stroke:none;fill-rule:nonzero;fill:rgb(100%,100%,100%);fill-opacity:1;" d="M 157.628906 106.347656 C 157.628906 108.582031 154.277344 108.582031 154.277344 106.347656 C 154.277344 104.113281 157.628906 104.113281 157.628906 106.347656 "/>
<path style=" stroke:none;fill-rule:nonzero;fill:rgb(100%,100%,100%);fill-opacity:1;" d="M 83.222656 500.839844 C 83.222656 503.074219 79.871094 503.074219 79.871094 500.839844 C 79.871094 498.605469 83.222656 498.605469 83.222656 500.839844 "/>
<path style=" stroke:none;fill-rule:nonzero;fill:rgb(100%,100%,100%);fill-opacity:1;" d="M 50.375 318.171875 C 50.375 320.40625 47.023438 320.40625 47.023438 318.171875 C 47.023438 315.9375 50.375 315.9375 50.375 318.171875 "/>
<path style=" stroke:none;fill-rule:nonzero;fill:rgb(100%,100%,100%);fill-opacity:1;" d="M 54.398438 230.023438 C 54.398438 232.257812 51.046875 232.257812 51.046875 230.023438 C 51.046875 227.789062 54.398438 227.789062 54.398438 230.023438 "/>
<path style=" stroke:none;fill-rule:nonzero;fill:rgb(100%,100%,100%);fill-opacity:1;" d="M 214.941406 110.703125 C 214.941406 112.9375 211.589844 112.9375 211.589844 110.703125 C 211.589844 108.46875 214.941406 108.46875 214.941406 110.703125 "/>
<path style=" stroke:none;fill-rule:nonzero;fill:rgb(100%,100%,100%);fill-opacity:1;" d="M 82.550781 140.199219 C 82.550781 142.433594 79.199219 142.433594 79.199219 140.199219 C 79.199219 137.964844 82.550781 137.964844 82.550781 140.199219 "/>
<path style=" stroke:none;fill-rule:nonzero;fill:rgb(100%,100%,100%);fill-opacity:1;" d="M 4.121094 52.050781 C 4.121094 54.285156 0.769531 54.285156 0.769531 52.050781 C 0.769531 49.816406 4.121094 49.816406 4.121094 52.050781 "/>
<path style=" stroke:none;fill-rule:nonzero;fill:rgb(100%,100%,100%);fill-opacity:1;" d="M 356.046875 278.960938 C 356.046875 281.195312 352.695312 281.195312 352.695312 278.960938 C 352.695312 276.722656 356.046875 276.722656 356.046875 278.960938 "/>
<path style=" stroke:none;fill-rule:nonzero;fill:rgb(100%,100%,100%);fill-opacity:1;" d="M 184.105469 417.382812 C 184.105469 419.617188 180.753906 419.617188 180.753906 417.382812 C 180.753906 415.148438 184.105469 415.148438 184.105469 417.382812 "/>
<path style=" stroke:none;fill-rule:nonzero;fill:rgb(100%,100%,100%);fill-opacity:1;" d="M 29.929688 223.320312 C 29.929688 225.554688 26.578125 225.554688 26.578125 223.320312 C 26.578125 221.085938 29.929688 221.085938 29.929688 223.320312 "/>
<path style=" stroke:none;fill-rule:nonzero;fill:rgb(100%,100%,100%);fill-opacity:1;" d="M 307.78125 109.03125 C 307.78125 111.265625 304.429688 111.265625 304.429688 109.03125 C 304.429688 106.796875 307.78125 106.796875 307.78125 109.03125 "/>
<path style=" stroke:none;fill-rule:nonzero;fill:rgb(100%,100%,100%);fill-opacity:1;" d="M 14.511719 94.28125 C 14.511719 96.515625 11.160156 96.515625 11.160156 94.28125 C 11.160156 92.046875 14.511719 92.046875 14.511719 94.28125 "/>
<path style=" stroke:none;fill-rule:nonzero;fill:rgb(100%,100%,100%);fill-opacity:1;" d="M 121.429688 17.527344 C 121.429688 19.761719 118.078125 19.761719 118.078125 17.527344 C 118.078125 15.292969 121.429688 15.292969 121.429688 17.527344 "/>
<path style=" stroke:none;fill-rule:nonzero;fill:rgb(100%,100%,100%);fill-opacity:1;" d="M 122.773438 200.863281 C 122.773438 203.097656 119.421875 203.097656 119.421875 200.863281 C 119.421875 198.628906 122.773438 198.628906 122.773438 200.863281 "/>
<path style=" stroke:none;fill-rule:nonzero;fill:rgb(100%,100%,100%);fill-opacity:1;" d="M 30.601562 147.238281 C 30.601562 149.472656 27.25 149.472656 27.25 147.238281 C 27.25 145.003906 30.601562 145.003906 30.601562 147.238281 "/>
<path style=" stroke:none;fill-rule:nonzero;fill:rgb(100%,84.3%,0%);fill-opacity:1;" d="M 274.382812 49.609375 C 274.382812 51.84375 271.03125 51.84375 271.03125 49.609375 C 271.03125 47.375 274.382812 47.375 274.382812 49.609375 "/>
<path style=" stroke:none;fill-rule:nonzero;fill:rgb(100%,84.3%,0%);fill-opacity:1;" d="M 232.835938 136.085938 C 232.835938 138.320312 229.484375 138.320312 229.484375 136.085938 C 229.484375 133.851562 232.835938 133.851562 232.835938 136.085938 "/>
<path style=" stroke:none;fill-rule:nonzero;fill:rgb(100%,84.3%,0%);fill-opacity:1;" d="M 278.808594 46.433594 C 278.808594 48.667969 275.457031 48.667969 275.457031 46.433594 C 275.457031 44.199219 278.808594 44.199219 278.808594 46.433594 "/>
<path style=" stroke:none;fill-rule:nonzero;fill:rgb(100%,84.3%,0%);fill-opacity:1;" d="M 230.90625 158.414062 C 230.90625 160.648438 227.554688 160.648438 227.554688 158.414062 C 227.554688 156.179688 230.90625 156.179688 230.90625 158.414062 "/>
<path style=" stroke:none;fill-rule:nonzero;fill:rgb(100%,84.3%,0%);fill-opacity:1;" d="M 283.324219 102.914062 C 283.324219 105.148438 279.972656 105.148438 279.972656 102.914062 C 279.972656 100.679688 283.324219 100.679688 283.324219 102.914062 "/>
<path style=" stroke:none;fill-rule:nonzero;fill:rgb(100%,84.3%,0%);fill-opacity:1;" d="M 233.785156 99.738281 C 233.785156 101.972656 230.433594 101.972656 230.433594 99.738281 C 230.433594 97.503906 233.785156 97.503906 233.785156 99.738281 "/>
<path style=" stroke:none;fill-rule:nonzero;fill:rgb(100%,84.3%,0%);fill-opacity:1;" d="M 230.757812 112.589844 C 230.757812 114.824219 227.40625 114.824219 227.40625 112.589844 C 227.40625 110.355469 230.757812 110.355469 230.757812 112.589844 "/>
<path style=" stroke:none;fill-rule:nonzero;fill:rgb(100%,84.3%,0%);fill-opacity:1;" d="M 272.929688 46.058594 C 272.929688 48.292969 269.578125 48.292969 269.578125 46.058594 C 269.578125 43.824219 272.929688 43.824219 272.929688 46.058594 "/>
<path style=" stroke:none;fill-rule:nonzero;fill:rgb(100%,84.3%,0%);fill-opacity:1;" d="M 230.960938 87.300781 C 230.960938 89.535156 227.609375 89.535156 227.609375 87.300781 C 227.609375 85.066406 230.960938 85.066406 230.960938 87.300781 "/>
<path style=" stroke:none;fill-rule:nonzero;fill:rgb(100%,84.3%,0%);fill-opacity:1;" d="M 234.429688 47.78125 C 234.429688 50.015625 231.078125 50.015625 231.078125 47.78125 C 231.078125 45.546875 234.429688 45.546875 234.429688 47.78125 "/>
<path style=" stroke:none;fill-rule:nonzero;fill:rgb(100%,84.3%,0%);fill-opacity:1;" d="M 233.402344 120.28125 C 233.402344 122.515625 230.050781 122.515625 230.050781 120.28125 C 230.050781 118.046875 233.402344 118.046875 233.402344 120.28125 "/>
<path style=" stroke:none;fill-rule:nonzero;fill:rgb(100%,84.3%,0%);fill-opacity:1;" d="M 284.542969 115.550781 C 284.542969 117.785156 281.191406 117.785156 281.191406 115.550781 C 281.191406 113.316406 284.542969 113.316406 284.542969 115.550781 "/>
<path style=" stroke:none;fill-rule:nonzero;fill:rgb(100%,84.3%,0%);fill-opacity:1;" d="M 233.578125 109.613281 C 233.578125 111.847656 230.226562 111.847656 230.226562 109.613281 C 230.226562 107.378906 233.578125 107.378906 233.578125 109.613281 "/>
<path style=" stroke:none;fill-rule:nonzero;fill:rgb(100%,84.3%,0%);fill-opacity:1;" d="M 233.257812 246.308594 C 233.257812 248.542969 229.90625 248.542969 229.90625 246.308594 C 229.90625 244.074219 233.257812 244.074219 233.257812 246.308594 "/>
<path style=" stroke:none;fill-rule:nonzero;fill:rgb(100%,84.3%,0%);fill-opacity:1;" d="M 284.570312 108.636719 C 284.570312 110.871094 281.21875 110.871094 281.21875 108.636719 C 281.21875 106.402344 284.570312 106.402344 284.570312 108.636719 "/>
<path style=" stroke:none;fill-rule:nonzero;fill:rgb(100%,84.3%,0%);fill-opacity:1;" d="M 233.488281 114.949219 C 233.488281 117.183594 230.136719 117.183594 230.136719 114.949219 C 230.136719 112.714844 233.488281 112.714844 233.488281 114.949219 "/>
<path style=" stroke:none;fill-rule:nonzero;fill:rgb(100%,84.3%,0%);fill-opacity:1;" d="M 284.625 94.808594 C 284.625 97.042969 281.273438 97.042969 281.273438 94.808594 C 281.273438 92.574219 284.625 92.574219 284.625 94.808594 "/>
<path style=" stroke:none;fill-rule:nonzero;fill:rgb(100%,84.3%,0%);fill-opacity:1;" d="M 283.082031 47.011719 C 283.082031 49.246094 279.730469 49.246094 279.730469 47.011719 C 279.730469 44.777344 283.082031 44.777344 283.082031 47.011719 "/>
<path style=" stroke:none;fill-rule:nonzero;fill:rgb(100%,84.3%,0%);fill-opacity:1;" d="M 235.949219 117.898438 C 235.949219 120.132812 232.597656 120.132812 232.597656 117.898438 C 232.597656 115.664062 235.949219 115.664062 235.949219 117.898438 "/>
<path style=" stroke:none;fill-rule:nonzero;fill:rgb(100%,84.3%,0%);fill-opacity:1;" d="M 232.332031 103.890625 C 232.332031 106.125 228.980469 106.125 228.980469 103.890625 C 228.980469 101.65625 232.332031 101.65625 232.332031 103.890625 "/>
<path style=" stroke:none;fill-rule:nonzero;fill:rgb(100%,84.3%,0%);fill-opacity:1;" d="M 230.992188 95.796875 C 230.992188 98.03125 227.640625 98.03125 227.640625 95.796875 C 227.640625 93.5625 230.992188 93.5625 230.992188 95.796875 "/>
<path style=" stroke:none;fill-rule:nonzero;fill:rgb(100%,84.3%,0%);fill-opacity:1;" d="M 279.875 55.121094 C 279.875 57.355469 276.523438 57.355469 276.523438 55.121094 C 276.523438 52.886719 279.875 52.886719 279.875 55.121094 "/>
<path style=" stroke:none;fill-rule:nonzero;fill:rgb(100%,84.3%,0%);fill-opacity:1;" d="M 231.417969 271.007812 C 231.417969 273.242188 228.066406 273.242188 228.066406 271.007812 C 228.066406 268.773438 231.417969 268.773438 231.417969 271.007812 "/>
<path style=" stroke:none;fill-rule:nonzero;fill:rgb(100%,84.3%,0%);fill-opacity:1;" d="M 230.847656 107.253906 C 230.847656 109.488281 227.496094 109.488281 227.496094 107.253906 C 227.496094 105.019531 230.847656 105.019531 230.847656 107.253906 "/>
<path style=" stroke:none;fill-rule:nonzero;fill:rgb(100%,84.3%,0%);fill-opacity:1;" d="M 230.988281 80.386719 C 230.988281 82.621094 227.636719 82.621094 227.636719 80.386719 C 227.636719 78.152344 230.988281 78.152344 230.988281 80.386719 "/>
<path style=" stroke:none;fill-rule:nonzero;fill:rgb(100%,84.3%,0%);fill-opacity:1;" d="M 281.867188 99.363281 C 281.867188 101.597656 278.515625 101.597656 278.515625 99.363281 C 278.515625 97.128906 281.867188 97.128906 281.867188 99.363281 "/>
<path style=" stroke:none;fill-rule:nonzero;fill:rgb(100%,84.3%,0%);fill-opacity:1;" d="M 231.257812 72.089844 C 231.257812 74.324219 227.90625 74.324219 227.90625 72.089844 C 227.90625 69.855469 231.257812 69.855469 231.257812 72.089844 "/>
<path style=" stroke:none;fill-rule:nonzero;fill:rgb(100%,84.3%,0%);fill-opacity:1;" d="M 284.394531 119.304688 C 284.394531 121.539062 281.042969 121.539062 281.042969 119.304688 C 281.042969 117.070312 284.394531 117.070312 284.394531 119.304688 "/>
<path style=" stroke:none;fill-rule:nonzero;fill:rgb(100%,84.3%,0%);fill-opacity:1;" d="M 231.828125 178.558594 C 231.828125 180.792969 228.476562 180.792969 228.476562 178.558594 C 228.476562 176.324219 231.828125 176.324219 231.828125 178.558594 "/>
<path style=" stroke:none;fill-rule:nonzero;fill:rgb(100%,84.3%,0%);fill-opacity:1;" d="M 231.804688 258.167969 C 231.804688 260.402344 228.453125 260.402344 228.453125 258.167969 C 228.453125 255.933594 231.804688 255.933594 231.804688 258.167969 "/>
<path style=" stroke:none;fill-rule:nonzero;fill:rgb(100%,84.3%,0%);fill-opacity:1;" d="M 234.46875 128.96875 C 234.46875 131.203125 231.117188 131.203125 231.117188 128.96875 C 231.117188 126.734375 234.46875 126.734375 234.46875 128.96875 "/>
<path style=" stroke:none;fill-rule:nonzero;fill:rgb(100%,84.3%,0%);fill-opacity:1;" d="M 230.964844 152.289062 C 230.964844 154.523438 227.613281 154.523438 227.613281 152.289062 C 227.613281 150.054688 230.964844 150.054688 230.964844 152.289062 "/>
<path style=" stroke:none;fill-rule:nonzero;fill:rgb(100%,84.3%,0%);fill-opacity:1;" d="M 234.617188 125.214844 C 234.617188 127.449219 231.265625 127.449219 231.265625 125.214844 C 231.265625 122.980469 234.617188 122.980469 234.617188 125.214844 "/>
<path style=" stroke:none;fill-rule:nonzero;fill:rgb(100%,84.3%,0%);fill-opacity:1;" d="M 232.417969 90.851562 C 232.417969 93.085938 229.066406 93.085938 229.066406 90.851562 C 229.066406 88.617188 232.417969 88.617188 232.417969 90.851562 "/>
</g>
</svg>
