<?xml version="1.0" encoding="UTF-8"?>
<svg xmlns="http://www.w3.org/2000/svg" xmlns:xlink="http://www.w3.org/1999/xlink" width="512pt" height="512pt" viewBox="0 0 512 512" version="1.1">
<g id="surface266">
<path style=" stroke:none;fill-rule:nonzero;fill:rgb(26.7%,26.7%,26.7%);fill-opacity:1;" d="M 169.605469 0 L 342.398438 0 L 342.398438 512 L 169.605469 512 Z M 169.605469 0 "/>
<path style=" stroke:none;fill-rule:nonzero;fill:rgb(19.2%,38.8%,66.7%);fill-opacity:1;" d="M 184.003906 42.667969 L 327.996094 42.667969 L 327.996094 469.332031 L 184.003906 469.332031 Z M 184.003906 42.667969 "/>
<path style=" stroke:none;fill-rule:nonzero;fill:rgb(100%,100%,100%);fill-opacity:1;" d="M 417.527344 383.785156 C 417.527344 385.558594 414.871094 385.558594 414.871094 383.785156 C 414.871094 382.015625 417.527344 382.015625 417.527344 383.785156 "/>
<path style=" stroke:none;fill-rule:nonzero;fill:rgb(100%,100%,100%);fill-opacity:1;" d="M 153.453125 319.761719 C 153.453125 321.53125 150.792969 321.53125 150.792969 319.761719 C 150.792969 317.988281 153.453125 317.988281 153.453125 319.761719 "/>
<path style=" stroke:none;fill-rule:nonzero;fill:rgb(100%,100%,100%);fill-opacity:1;" d="M 139.636719 404.511719 C 139.636719 406.28125 136.980469 406.28125 136.980469 404.511719 C 136.980469 402.738281 139.636719 402.738281 139.636719 404.511719 "/>
<path style=" stroke:none;fill-rule:nonzero;fill:rgb(100%,100%,100%);fill-opacity:1;" d="M 70.296875 202.335938 C 70.296875 204.105469 67.640625 204.105469 67.640625 202.335938 C 67.640625 200.5625 70.296875 200.5625 70.296875 202.335938 "/>
<path style=" stroke:none;fill-rule:nonzero;fill:rgb(100%,100%,100%);fill-opacity:1;" d="M 144.152344 324.542969 C 144.152344 326.3125 141.496094 326.3125 141.496094 324.542969 C 141.496094 322.773438 144.152344 322.773438 144.152344 324.542969 "/>
<path style=" stroke:none;fill-rule:nonzero;fill:rgb(100%,100%,100%);fill-opacity:1;" d="M 82.515625 54.089844 C 82.515625 55.859375 79.859375 55.859375 79.859375 54.089844 C 79.859375 52.320312 82.515625 52.320312 82.515625 54.089844 "/>
<path style=" stroke:none;fill-rule:nonzero;fill:rgb(100%,100%,100%);fill-opacity:1;" d="M 414.871094 99.785156 C 414.871094 101.558594 412.214844 101.558594 412.214844 99.785156 C 412.214844 98.015625 414.871094 98.015625 414.871094 99.785156 "/>
<path style=" stroke:none;fill-rule:nonzero;fill:rgb(100%,100%,100%);fill-opacity:1;" d="M 415.402344 235.542969 C 415.402344 237.3125 412.746094 237.3125 412.746094 235.542969 C 412.746094 233.773438 415.402344 233.773438 415.402344 235.542969 "/>
<path style=" stroke:none;fill-rule:nonzero;fill:rgb(100%,100%,100%);fill-opacity:1;" d="M 138.574219 44.527344 C 138.574219 46.296875 135.917969 46.296875 135.917969 44.527344 C 135.917969 42.753906 138.574219 42.753906 138.574219 44.527344 "/>
<path style=" stroke:none;fill-rule:nonzero;fill:rgb(100%,100%,100%);fill-opacity:1;" d="M 359.878906 315.242188 C 359.878906 317.015625 357.21875 317.015625 357.21875 315.242188 C 357.21875 313.472656 359.878906 313.472656 359.878906 315.242188 "/>
<path style=" stroke:none;fill-rule:nonzero;fill:rgb(100%,100%,100%);fill-opacity:1;" d="M 93.675781 99.785156 C 93.675781 101.558594 91.019531 101.558594 91.019531 99.785156 C 91.019531 98.015625 93.675781 98.015625 93.675781 99.785156 "/>
<path style=" stroke:none;fill-rule:nonzero;fill:rgb(100%,100%,100%);fill-opacity:1;" d="M 489.257812 445.421875 C 489.257812 447.195312 486.601562 447.195312 486.601562 445.421875 C 486.601562 443.652344 489.257812 443.652344 489.257812 445.421875 "/>
<path style=" stroke:none;fill-rule:nonzero;fill:rgb(100%,100%,100%);fill-opacity:1;" d="M 429.75 272.738281 C 429.75 274.507812 427.089844 274.507812 427.089844 272.738281 C 427.089844 270.964844 429.75 270.964844 429.75 272.738281 "/>
<path style=" stroke:none;fill-rule:nonzero;fill:rgb(100%,100%,100%);fill-opacity:1;" d="M 350.578125 212.695312 C 350.578125 214.46875 347.921875 214.46875 347.921875 212.695312 C 347.921875 210.925781 350.578125 210.925781 350.578125 212.695312 "/>
<path style=" stroke:none;fill-rule:nonzero;fill:rgb(100%,100%,100%);fill-opacity:1;" d="M 0.160156 427.890625 C 0.160156 429.660156 -2.496094 429.660156 -2.496094 427.890625 C -2.496094 426.117188 0.160156 426.117188 0.160156 427.890625 "/>
<path style=" stroke:none;fill-rule:nonzero;fill:rgb(100%,100%,100%);fill-opacity:1;" d="M 511.042969 375.550781 C 511.042969 377.324219 508.386719 377.324219 508.386719 375.550781 C 508.386719 373.78125 511.042969 373.78125 511.042969 375.550781 "/>
<path style=" stroke:none;fill-rule:nonzero;fill:rgb(100%,100%,100%);fill-opacity:1;" d="M 77.46875 325.871094 C 77.46875 327.640625 74.8125 327.640625 74.8125 325.871094 C 74.8125 324.101562 77.46875 324.101562 77.46875 325.871094 "/>
<path style=" stroke:none;fill-rule:nonzero;fill:rgb(100%,100%,100%);fill-opacity:1;" d="M 172.3125 223.589844 C 172.3125 225.359375 169.65625 225.359375 169.65625 223.589844 C 169.65625 221.816406 172.3125 221.816406 172.3125 223.589844 "/>
<path style=" stroke:none;fill-rule:nonzero;fill:rgb(100%,100%,100%);fill-opacity:1;" d="M 424.433594 397.335938 C 424.433594 399.109375 421.777344 399.109375 421.777344 397.335938 C 421.777344 395.566406 424.433594 395.566406 424.433594 397.335938 "/>
<path style=" stroke:none;fill-rule:nonzero;fill:rgb(100%,100%,100%);fill-opacity:1;" d="M 411.683594 -1.167969 C 411.683594 0.601562 409.027344 0.601562 409.027344 -1.167969 C 409.027344 -2.941406 411.683594 -2.941406 411.683594 -1.167969 "/>
<path style=" stroke:none;fill-rule:nonzero;fill:rgb(100%,84.3%,0%);fill-opacity:1;" d="M 188.1875 315.457031 C 188.1875 317.226562 185.53125 317.226562 185.53125 315.457031 C 185.53125 313.683594 188.1875 313.683594 188.1875 315.457031 "/>
<path style=" stroke:none;fill-rule:nonzero;fill:rgb(100%,84.3%,0%);fill-opacity:1;" d="M 324.253906 219.929688 C 324.253906 221.703125 321.59375 221.703125 321.59375 219.929688 C 321.59375 218.160156 324.253906 218.160156 324.253906 219.929688 "/>
<path style=" stroke:none;fill-rule:nonzero;fill:rgb(100%,84.3%,0%);fill-opacity:1;" d="M 326.5625 320.015625 C 326.5625 321.785156 323.90625 321.785156 323.90625 320.015625 C 323.90625 318.242188 326.5625 318.242188 326.5625 320.015625 "/>
<path style=" stroke:none;fill-rule:nonzero;fill:rgb(100%,84.3%,0%);fill-opacity:1;" d="M 188.265625 373.722656 C 188.265625 375.492188 185.609375 375.492188 185.609375 373.722656 C 185.609375 371.953125 188.265625 371.953125 188.265625 373.722656 "/>
<path style=" stroke:none;fill-rule:nonzero;fill:rgb(100%,84.3%,0%);fill-opacity:1;" d="M 189.546875 225.871094 C 189.546875 227.644531 186.890625 227.644531 186.890625 225.871094 C 186.890625 224.101562 189.546875 224.101562 189.546875 225.871094 "/>
<path style=" stroke:none;fill-rule:nonzero;fill:rgb(100%,84.3%,0%);fill-opacity:1;" d="M 324.933594 203.878906 C 324.933594 205.648438 322.277344 205.648438 322.277344 203.878906 C 322.277344 202.105469 324.933594 202.105469 324.933594 203.878906 "/>
<path style=" stroke:none;fill-rule:nonzero;fill:rgb(100%,84.3%,0%);fill-opacity:1;" d="M 188.101562 306.933594 C 188.101562 308.703125 185.445312 308.703125 185.445312 306.933594 C 185.445312 305.160156 188.101562 305.160156 188.101562 306.933594 "/>
<path style=" stroke:none;fill-rule:nonzero;fill:rgb(100%,84.3%,0%);fill-opacity:1;" d="M 190.703125 329.523438 C 190.703125 331.292969 188.042969 331.292969 188.042969 329.523438 C 188.042969 327.75 190.703125 327.75 190.703125 329.523438 "/>
<path style=" stroke:none;fill-rule:nonzero;fill:rgb(100%,84.3%,0%);fill-opacity:1;" d="M 189.773438 220.519531 C 189.773438 222.292969 187.117188 222.292969 187.117188 220.519531 C 187.117188 218.75 189.773438 218.75 189.773438 220.519531 "/>
<path style=" stroke:none;fill-rule:nonzero;fill:rgb(100%,84.3%,0%);fill-opacity:1;" d="M 189.242188 230.429688 C 189.242188 232.203125 186.585938 232.203125 186.585938 230.429688 C 186.585938 228.660156 189.242188 228.660156 189.242188 230.429688 "/>
<path style=" stroke:none;fill-rule:nonzero;fill:rgb(100%,84.3%,0%);fill-opacity:1;" d="M 189.464844 217.351562 C 189.464844 219.121094 186.808594 219.121094 186.808594 217.351562 C 186.808594 215.578125 189.464844 215.578125 189.464844 217.351562 "/>
<path style=" stroke:none;fill-rule:nonzero;fill:rgb(100%,84.3%,0%);fill-opacity:1;" d="M 192.746094 223.886719 C 192.746094 225.65625 190.085938 225.65625 190.085938 223.886719 C 190.085938 222.113281 192.746094 222.113281 192.746094 223.886719 "/>
<path style=" stroke:none;fill-rule:nonzero;fill:rgb(100%,84.3%,0%);fill-opacity:1;" d="M 189.027344 358.460938 C 189.027344 360.230469 186.371094 360.230469 186.371094 358.460938 C 186.371094 356.691406 189.027344 356.691406 189.027344 358.460938 "/>
<path style=" stroke:none;fill-rule:nonzero;fill:rgb(100%,84.3%,0%);fill-opacity:1;" d="M 189.921875 214.378906 C 189.921875 216.148438 187.265625 216.148438 187.265625 214.378906 C 187.265625 212.605469 189.921875 212.605469 189.921875 214.378906 "/>
<path style=" stroke:none;fill-rule:nonzero;fill:rgb(100%,84.3%,0%);fill-opacity:1;" d="M 326.332031 325.367188 C 326.332031 327.136719 323.675781 327.136719 323.675781 325.367188 C 323.675781 323.59375 326.332031 323.59375 326.332031 325.367188 "/>
<path style=" stroke:none;fill-rule:nonzero;fill:rgb(100%,84.3%,0%);fill-opacity:1;" d="M 188.484375 303.167969 C 188.484375 304.9375 185.828125 304.9375 185.828125 303.167969 C 185.828125 301.394531 188.484375 301.394531 188.484375 303.167969 "/>
<path style=" stroke:none;fill-rule:nonzero;fill:rgb(100%,84.3%,0%);fill-opacity:1;" d="M 188.9375 234.988281 C 188.9375 236.761719 186.28125 236.761719 186.28125 234.988281 C 186.28125 233.21875 188.9375 233.21875 188.9375 234.988281 "/>
<path style=" stroke:none;fill-rule:nonzero;fill:rgb(100%,84.3%,0%);fill-opacity:1;" d="M 190.226562 209.816406 C 190.226562 211.589844 187.570312 211.589844 187.570312 209.816406 C 187.570312 208.046875 190.226562 208.046875 190.226562 209.816406 "/>
<path style=" stroke:none;fill-rule:nonzero;fill:rgb(100%,84.3%,0%);fill-opacity:1;" d="M 190.472656 334.875 C 190.472656 336.644531 187.816406 336.644531 187.816406 334.875 C 187.816406 333.105469 190.472656 333.105469 190.472656 334.875 "/>
<path style=" stroke:none;fill-rule:nonzero;fill:rgb(100%,84.3%,0%);fill-opacity:1;" d="M 188.554688 238.757812 C 188.554688 240.527344 185.898438 240.527344 185.898438 238.757812 C 185.898438 236.984375 188.554688 236.984375 188.554688 238.757812 "/>
<path style=" stroke:none;fill-rule:nonzero;fill:rgb(100%,84.3%,0%);fill-opacity:1;" d="M 325.324219 207.839844 C 325.324219 209.613281 322.664062 209.613281 322.664062 207.839844 C 322.664062 206.070312 325.324219 206.070312 325.324219 207.839844 "/>
<path style=" stroke:none;fill-rule:nonzero;fill:rgb(100%,84.3%,0%);fill-opacity:1;" d="M 325.394531 200.902344 C 325.394531 202.675781 322.738281 202.675781 322.738281 200.902344 C 322.738281 199.132812 325.394531 199.132812 325.394531 200.902344 "/>
<path style=" stroke:none;fill-rule:nonzero;fill:rgb(100%,84.3%,0%);fill-opacity:1;" d="M 189.863281 343.992188 C 189.863281 345.761719 187.207031 345.761719 187.207031 343.992188 C 187.207031 342.222656 189.863281 342.222656 189.863281 343.992188 "/>
<path style=" stroke:none;fill-rule:nonzero;fill:rgb(100%,84.3%,0%);fill-opacity:1;" d="M 325.015625 212.398438 C 325.015625 214.171875 322.359375 214.171875 322.359375 212.398438 C 322.359375 210.628906 325.015625 210.628906 325.015625 212.398438 "/>
<path style=" stroke:none;fill-rule:nonzero;fill:rgb(100%,84.3%,0%);fill-opacity:1;" d="M 192.4375 228.445312 C 192.4375 230.214844 189.78125 230.214844 189.78125 228.445312 C 189.78125 226.671875 192.4375 226.671875 192.4375 228.445312 "/>
<path style=" stroke:none;fill-rule:nonzero;fill:rgb(100%,84.3%,0%);fill-opacity:1;" d="M 323.507812 308.128906 C 323.507812 309.898438 320.851562 309.898438 320.851562 308.128906 C 320.851562 306.355469 323.507812 306.355469 323.507812 308.128906 "/>
</g>
</svg>
