<?xml version="1.0" encoding="UTF-8"?>
<svg xmlns="http://www.w3.org/2000/svg" xmlns:xlink="http://www.w3.org/1999/xlink" width="512pt" height="512pt" viewBox="0 0 512 512" version="1.1">
<g id="surface286">
<rect x="0" y="0" width="512" height="512" style="fill:rgb(26.7%,26.7%,26.7%);fill-opacity:1;stroke:none;"/>
<path style=" stroke:none;fill-rule:nonzero;fill:rgb(19.2%,38.8%,66.7%);fill-opacity:1;" d="M 40.621094 42.667969 L 446.847656 42.667969 L 446.847656 469.332031 L 40.621094 469.332031 Z M 40.621094 42.667969 "/>
<path style=" stroke:none;fill-rule:nonzero;fill:rgb(100%,100%,100%);fill-opacity:1;" d="M 154.953125 -2.042969 C 154.953125 2.214844 148.566406 2.214844 148.566406 -2.042969 C 148.566406 -6.300781 154.953125 -6.300781 154.953125 -2.042969 "/>
<path style=" stroke:none;fill-rule:nonzero;fill:rgb(100%,100%,100%);fill-opacity:1;" d="M 29.125 14.5625 C 29.125 18.820312 22.738281 18.820312 22.738281 14.5625 C 22.738281 10.304688 29.125 10.304688 29.125 14.5625 "/>
<path style=" stroke:none;fill-rule:nonzero;fill:rgb(100%,100%,100%);fill-opacity:1;" d="M 505.613281 385.660156 C 505.613281 389.917969 499.226562 389.917969 499.226562 385.660156 C 499.226562 381.402344 505.613281 381.402344 505.613281 385.660156 "/>
<path style=" stroke:none;fill-rule:nonzero;fill:rgb(100%,100%,100%);fill-opacity:1;" d="M 46.371094 502.546875 C 46.371094 506.804688 39.984375 506.804688 39.984375 502.546875 C 39.984375 498.289062 46.371094 498.289062 46.371094 502.546875 "/>
<path style=" stroke:none;fill-rule:nonzero;fill:rgb(100%,100%,100%);fill-opacity:1;" d="M 384.894531 6.898438 C 384.894531 11.15625 378.507812 11.15625 378.507812 6.898438 C 378.507812 2.640625 384.894531 2.640625 384.894531 6.898438 "/>
<path style=" stroke:none;fill-rule:nonzero;fill:rgb(100%,100%,100%);fill-opacity:1;" d="M 41.902344 25.421875 C 41.902344 29.679688 35.511719 29.679688 35.511719 25.421875 C 35.511719 21.164062 41.902344 21.164062 41.902344 25.421875 "/>
<path style=" stroke:none;fill-rule:nonzero;fill:rgb(100%,100%,100%);fill-opacity:1;" d="M 505.613281 390.769531 C 505.613281 395.027344 499.226562 395.027344 499.226562 390.769531 C 499.226562 386.511719 505.613281 386.511719 505.613281 390.769531 "/>
<path style=" stroke:none;fill-rule:nonzero;fill:rgb(100%,84.3%,0%);fill-opacity:1;" d="M 81.914062 461.5625 C 81.914062 465.820312 75.523438 465.820312 75.523438 461.5625 C 75.523438 457.304688 81.914062 457.304688 81.914062 461.5625 "/>
<path style=" stroke:none;fill-rule:nonzero;fill:rgb(100%,84.3%,0%);fill-opacity:1;" d="M 408.988281 99.863281 C 408.988281 104.121094 402.601562 104.121094 402.601562 99.863281 C 402.601562 95.605469 408.988281 95.605469 408.988281 99.863281 "/>
<path style=" stroke:none;fill-rule:nonzero;fill:rgb(100%,84.3%,0%);fill-opacity:1;" d="M 59.511719 55.472656 C 59.511719 59.730469 53.125 59.730469 53.125 55.472656 C 53.125 51.214844 59.511719 51.214844 59.511719 55.472656 "/>
<path style=" stroke:none;fill-rule:nonzero;fill:rgb(100%,84.3%,0%);fill-opacity:1;" d="M 442.453125 462.355469 C 442.453125 466.613281 436.066406 466.613281 436.066406 462.355469 C 436.066406 458.097656 442.453125 458.097656 442.453125 462.355469 "/>
<path style=" stroke:none;fill-rule:nonzero;fill:rgb(100%,84.3%,0%);fill-opacity:1;" d="M 442.65625 455.539062 C 442.65625 459.796875 436.269531 459.796875 436.269531 455.539062 C 436.269531 451.28125 442.65625 451.28125 442.65625 455.539062 "/>
<path style=" stroke:none;fill-rule:nonzero;fill:rgb(100%,84.3%,0%);fill-opacity:1;" d="M 63.199219 402.949219 C 63.199219 407.210938 56.8125 407.210938 56.8125 402.949219 C 56.8125 398.691406 63.199219 398.691406 63.199219 402.949219 "/>
<path style=" stroke:none;fill-rule:nonzero;fill:rgb(100%,84.3%,0%);fill-opacity:1;" d="M 93.375 452.988281 C 93.375 457.246094 86.988281 457.246094 86.988281 452.988281 C 86.988281 448.730469 93.375 448.730469 93.375 452.988281 "/>
<path style=" stroke:none;fill-rule:nonzero;fill:rgb(100%,84.3%,0%);fill-opacity:1;" d="M 74.878906 444.230469 C 74.878906 448.488281 68.492188 448.488281 68.492188 444.230469 C 68.492188 439.972656 74.878906 439.972656 74.878906 444.230469 "/>
<path style=" stroke:none;fill-rule:nonzero;fill:rgb(100%,84.3%,0%);fill-opacity:1;" d="M 267.609375 53.792969 C 267.609375 58.050781 261.21875 58.050781 261.21875 53.792969 C 261.21875 49.535156 267.609375 49.535156 267.609375 53.792969 "/>
<path style=" stroke:none;fill-rule:nonzero;fill:rgb(100%,84.3%,0%);fill-opacity:1;" d="M 408.453125 52.953125 C 408.453125 57.214844 402.066406 57.214844 402.066406 52.953125 C 402.066406 48.695312 408.453125 48.695312 408.453125 52.953125 "/>
<path style=" stroke:none;fill-rule:nonzero;fill:rgb(100%,84.3%,0%);fill-opacity:1;" d="M 70.332031 52.160156 C 70.332031 56.417969 63.945312 56.417969 63.945312 52.160156 C 63.945312 47.902344 70.332031 47.902344 70.332031 52.160156 "/>
<path style=" stroke:none;fill-rule:nonzero;fill:rgb(100%,84.3%,0%);fill-opacity:1;" d="M 102.6875 459.410156 C 102.6875 463.667969 96.296875 463.667969 96.296875 459.410156 C 96.296875 455.152344 102.6875 455.152344 102.6875 459.410156 "/>
<path style=" stroke:none;fill-rule:nonzero;fill:rgb(100%,84.3%,0%);fill-opacity:1;" d="M 90.457031 55.265625 C 90.457031 59.523438 84.070312 59.523438 84.070312 55.265625 C 84.070312 51.003906 90.457031 51.003906 90.457031 55.265625 "/>
<path style=" stroke:none;fill-rule:nonzero;fill:rgb(100%,84.3%,0%);fill-opacity:1;" d="M 432.378906 197.191406 C 432.378906 201.449219 425.992188 201.449219 425.992188 197.191406 C 425.992188 192.933594 432.378906 192.933594 432.378906 197.191406 "/>
<path style=" stroke:none;fill-rule:nonzero;fill:rgb(100%,84.3%,0%);fill-opacity:1;" d="M 434.53125 182.199219 C 434.53125 186.457031 428.144531 186.457031 428.144531 182.199219 C 428.144531 177.941406 434.53125 177.941406 434.53125 182.199219 "/>
<path style=" stroke:none;fill-rule:nonzero;fill:rgb(100%,84.3%,0%);fill-opacity:1;" d="M 80.285156 53.320312 C 80.285156 57.582031 73.898438 57.582031 73.898438 53.320312 C 73.898438 49.0625 80.285156 49.0625 80.285156 53.320312 "/>
<path style=" stroke:none;fill-rule:nonzero;fill:rgb(100%,84.3%,0%);fill-opacity:1;" d="M 68.601562 61.113281 C 68.601562 65.375 62.214844 65.375 62.214844 61.113281 C 62.214844 56.855469 68.601562 56.855469 68.601562 61.113281 "/>
<path style=" stroke:none;fill-rule:nonzero;fill:rgb(100%,84.3%,0%);fill-opacity:1;" d="M 406.28125 60.351562 C 406.28125 64.609375 399.894531 64.609375 399.894531 60.351562 C 399.894531 56.09375 406.28125 56.09375 406.28125 60.351562 "/>
<path style=" stroke:none;fill-rule:nonzero;fill:rgb(100%,84.3%,0%);fill-opacity:1;" d="M 62.210938 452.421875 C 62.210938 456.679688 55.824219 456.679688 55.824219 452.421875 C 55.824219 448.160156 62.210938 448.160156 62.210938 452.421875 "/>
<path style=" stroke:none;fill-rule:nonzero;fill:rgb(100%,84.3%,0%);fill-opacity:1;" d="M 417.523438 51.003906 C 417.523438 55.261719 411.136719 55.261719 411.136719 51.003906 C 411.136719 46.746094 417.523438 46.746094 417.523438 51.003906 "/>
<path style=" stroke:none;fill-rule:nonzero;fill:rgb(100%,84.3%,0%);fill-opacity:1;" d="M 101.058594 51.171875 C 101.058594 55.429688 94.671875 55.429688 94.671875 51.171875 C 94.671875 46.910156 101.058594 46.910156 101.058594 51.171875 "/>
<path style=" stroke:none;fill-rule:nonzero;fill:rgb(100%,84.3%,0%);fill-opacity:1;" d="M 56.914062 68.90625 C 56.914062 73.167969 50.527344 73.167969 50.527344 68.90625 C 50.527344 64.648438 56.914062 64.648438 56.914062 68.90625 "/>
<path style=" stroke:none;fill-rule:nonzero;fill:rgb(100%,84.3%,0%);fill-opacity:1;" d="M 394.15625 66.589844 C 394.15625 70.847656 387.769531 70.847656 387.769531 66.589844 C 387.769531 62.332031 394.15625 62.332031 394.15625 66.589844 "/>
<path style=" stroke:none;fill-rule:nonzero;fill:rgb(100%,84.3%,0%);fill-opacity:1;" d="M 427.902344 460.023438 C 427.902344 464.28125 421.515625 464.28125 421.515625 460.023438 C 421.515625 455.765625 427.902344 455.765625 427.902344 460.023438 "/>
<path style=" stroke:none;fill-rule:nonzero;fill:rgb(100%,84.3%,0%);fill-opacity:1;" d="M 288.378906 51.640625 C 288.378906 55.898438 281.992188 55.898438 281.992188 51.640625 C 281.992188 47.382812 288.378906 47.382812 288.378906 51.640625 "/>
<path style=" stroke:none;fill-rule:nonzero;fill:rgb(100%,84.3%,0%);fill-opacity:1;" d="M 71.519531 458.839844 C 71.519531 463.097656 65.132812 463.097656 65.132812 458.839844 C 65.132812 454.582031 71.519531 454.582031 71.519531 458.839844 "/>
<path style=" stroke:none;fill-rule:nonzero;fill:rgb(100%,84.3%,0%);fill-opacity:1;" d="M 113.285156 455.316406 C 113.285156 459.574219 106.894531 459.574219 106.894531 455.316406 C 106.894531 451.058594 113.285156 451.058594 113.285156 455.316406 "/>
<path style=" stroke:none;fill-rule:nonzero;fill:rgb(100%,84.3%,0%);fill-opacity:1;" d="M 406.910156 461.394531 C 406.910156 465.652344 400.523438 465.652344 400.523438 461.394531 C 400.523438 457.136719 406.910156 457.136719 406.910156 461.394531 "/>
<path style=" stroke:none;fill-rule:nonzero;fill:rgb(100%,84.3%,0%);fill-opacity:1;" d="M 416.863281 462.558594 C 416.863281 466.816406 410.476562 466.816406 410.476562 462.558594 C 410.476562 458.300781 416.863281 458.300781 416.863281 462.558594 "/>
<path style=" stroke:none;fill-rule:nonzero;fill:rgb(100%,84.3%,0%);fill-opacity:1;" d="M 384.832031 52.574219 C 384.832031 56.832031 378.445312 56.832031 378.445312 52.574219 C 378.445312 48.316406 384.832031 48.316406 384.832031 52.574219 "/>
<path style=" stroke:none;fill-rule:nonzero;fill:rgb(100%,84.3%,0%);fill-opacity:1;" d="M 122.59375 461.734375 C 122.59375 465.992188 116.207031 465.992188 116.207031 461.734375 C 116.207031 457.476562 122.59375 457.476562 122.59375 461.734375 "/>
<path style=" stroke:none;fill-rule:nonzero;fill:rgb(100%,84.3%,0%);fill-opacity:1;" d="M 132.003906 50.960938 C 132.003906 55.21875 125.617188 55.21875 125.617188 50.960938 C 125.617188 46.703125 132.003906 46.703125 132.003906 50.960938 "/>
<path style=" stroke:none;fill-rule:nonzero;fill:rgb(100%,84.3%,0%);fill-opacity:1;" d="M 68.222656 89.722656 C 68.222656 93.980469 61.835938 93.980469 61.835938 89.722656 C 61.835938 85.460938 68.222656 85.460938 68.222656 89.722656 "/>
<path style=" stroke:none;fill-rule:nonzero;fill:rgb(100%,84.3%,0%);fill-opacity:1;" d="M 51.816406 449.699219 C 51.816406 453.957031 45.429688 453.957031 45.429688 449.699219 C 45.429688 445.441406 51.816406 445.441406 51.816406 449.699219 "/>
<path style=" stroke:none;fill-rule:nonzero;fill:rgb(100%,84.3%,0%);fill-opacity:1;" d="M 428.492188 221.136719 C 428.492188 225.394531 422.105469 225.394531 422.105469 221.136719 C 422.105469 216.878906 428.492188 216.878906 428.492188 221.136719 "/>
<path style=" stroke:none;fill-rule:nonzero;fill:rgb(100%,84.3%,0%);fill-opacity:1;" d="M 435.824219 171.683594 C 435.824219 175.941406 429.433594 175.941406 429.433594 171.683594 C 429.433594 167.425781 435.824219 167.425781 435.824219 171.683594 "/>
<path style=" stroke:none;fill-rule:nonzero;fill:rgb(100%,84.3%,0%);fill-opacity:1;" d="M 120.964844 53.496094 C 120.964844 57.753906 114.578125 57.753906 114.578125 53.496094 C 114.578125 49.238281 120.964844 49.238281 120.964844 53.496094 "/>
<path style=" stroke:none;fill-rule:nonzero;fill:rgb(100%,84.3%,0%);fill-opacity:1;" d="M 132.546875 462.898438 C 132.546875 467.15625 126.160156 467.15625 126.160156 462.898438 C 126.160156 458.640625 132.546875 458.640625 132.546875 462.898438 "/>
<path style=" stroke:none;fill-rule:nonzero;fill:rgb(100%,84.3%,0%);fill-opacity:1;" d="M 436.839844 446.394531 C 436.839844 450.652344 430.453125 450.652344 430.453125 446.394531 C 430.453125 442.136719 436.839844 442.136719 436.839844 446.394531 "/>
<path style=" stroke:none;fill-rule:nonzero;fill:rgb(100%,84.3%,0%);fill-opacity:1;" d="M 436.78125 261.839844 C 436.78125 266.097656 430.390625 266.097656 430.390625 261.839844 C 430.390625 257.582031 436.78125 257.582031 436.78125 261.839844 "/>
<path style=" stroke:none;fill-rule:nonzero;fill:rgb(100%,84.3%,0%);fill-opacity:1;" d="M 172.902344 51.914062 C 172.902344 56.171875 166.515625 56.171875 166.515625 51.914062 C 166.515625 47.65625 172.902344 47.65625 172.902344 51.914062 "/>
<path style=" stroke:none;fill-rule:nonzero;fill:rgb(100%,84.3%,0%);fill-opacity:1;" d="M 74.097656 437.8125 C 74.097656 442.070312 67.710938 442.070312 67.710938 437.8125 C 67.710938 433.554688 74.097656 433.554688 74.097656 437.8125 "/>
<path style=" stroke:none;fill-rule:nonzero;fill:rgb(100%,84.3%,0%);fill-opacity:1;" d="M 364.484375 462.585938 C 364.484375 466.84375 358.097656 466.84375 358.097656 462.585938 C 358.097656 458.324219 364.484375 458.324219 364.484375 462.585938 "/>
<path style=" stroke:none;fill-rule:nonzero;fill:rgb(100%,84.3%,0%);fill-opacity:1;" d="M 374.4375 49.855469 C 374.4375 54.113281 368.050781 54.113281 368.050781 49.855469 C 368.050781 45.597656 374.4375 45.597656 374.4375 49.855469 "/>
<path style=" stroke:none;fill-rule:nonzero;fill:rgb(100%,84.3%,0%);fill-opacity:1;" d="M 77.46875 65.976562 C 77.46875 70.234375 71.082031 70.234375 71.082031 65.976562 C 71.082031 61.71875 77.46875 61.71875 77.46875 65.976562 "/>
<path style=" stroke:none;fill-rule:nonzero;fill:rgb(100%,84.3%,0%);fill-opacity:1;" d="M 430.25 276.230469 C 430.25 280.488281 423.863281 280.488281 423.863281 276.230469 C 423.863281 271.972656 430.25 271.972656 430.25 276.230469 "/>
<path style=" stroke:none;fill-rule:nonzero;fill:rgb(100%,84.3%,0%);fill-opacity:1;" d="M 423.273438 183.957031 C 423.273438 188.214844 416.886719 188.214844 416.886719 183.957031 C 416.886719 179.699219 423.273438 179.699219 423.273438 183.957031 "/>
<path style=" stroke:none;fill-rule:nonzero;fill:rgb(100%,84.3%,0%);fill-opacity:1;" d="M 402.746094 250.9375 C 402.746094 255.195312 396.359375 255.195312 396.359375 250.9375 C 396.359375 246.679688 402.746094 246.679688 402.746094 250.9375 "/>
<path style=" stroke:none;fill-rule:nonzero;fill:rgb(100%,84.3%,0%);fill-opacity:1;" d="M 105.046875 437.601562 C 105.046875 441.859375 98.660156 441.859375 98.660156 437.601562 C 98.660156 433.34375 105.046875 433.34375 105.046875 437.601562 "/>
<path style=" stroke:none;fill-rule:nonzero;fill:rgb(100%,84.3%,0%);fill-opacity:1;" d="M 133.835938 452.382812 C 133.835938 456.640625 127.449219 456.640625 127.449219 452.382812 C 127.449219 448.125 133.835938 448.125 133.835938 452.382812 "/>
<path style=" stroke:none;fill-rule:nonzero;fill:rgb(100%,84.3%,0%);fill-opacity:1;" d="M 65.136719 79.027344 C 65.136719 83.285156 58.75 83.285156 58.75 79.027344 C 58.75 74.769531 65.136719 74.769531 65.136719 79.027344 "/>
<path style=" stroke:none;fill-rule:nonzero;fill:rgb(100%,84.3%,0%);fill-opacity:1;" d="M 395.210938 461.59375 C 395.210938 465.851562 388.824219 465.851562 388.824219 461.59375 C 388.824219 457.335938 395.210938 457.335938 395.210938 461.59375 "/>
<path style=" stroke:none;fill-rule:nonzero;fill:rgb(100%,84.3%,0%);fill-opacity:1;" d="M 438.917969 239.253906 C 438.917969 243.511719 432.53125 243.511719 432.53125 239.253906 C 432.53125 234.996094 438.917969 234.996094 438.917969 239.253906 "/>
<path style=" stroke:none;fill-rule:nonzero;fill:rgb(100%,84.3%,0%);fill-opacity:1;" d="M 161.863281 54.449219 C 161.863281 58.707031 155.476562 58.707031 155.476562 54.449219 C 155.476562 50.191406 161.863281 50.191406 161.863281 54.449219 "/>
<path style=" stroke:none;fill-rule:nonzero;fill:rgb(100%,84.3%,0%);fill-opacity:1;" d="M 419.386719 207.902344 C 419.386719 212.160156 413 212.160156 413 207.902344 C 413 203.644531 419.386719 203.644531 419.386719 207.902344 "/>
<path style=" stroke:none;fill-rule:nonzero;fill:rgb(100%,84.3%,0%);fill-opacity:1;" d="M 63.058594 440.347656 C 63.058594 444.605469 56.671875 444.605469 56.671875 440.347656 C 56.671875 436.089844 63.058594 436.089844 63.058594 440.347656 "/>
<path style=" stroke:none;fill-rule:nonzero;fill:rgb(100%,84.3%,0%);fill-opacity:1;" d="M 110.570312 50.773438 C 110.570312 55.03125 104.183594 55.03125 104.183594 50.773438 C 104.183594 46.515625 110.570312 46.515625 110.570312 50.773438 "/>
<path style=" stroke:none;fill-rule:nonzero;fill:rgb(100%,84.3%,0%);fill-opacity:1;" d="M 385.035156 459.652344 C 385.035156 463.910156 378.648438 463.910156 378.648438 459.652344 C 378.648438 455.394531 385.035156 455.394531 385.035156 459.652344 "/>
<path style=" stroke:none;fill-rule:nonzero;fill:rgb(100%,84.3%,0%);fill-opacity:1;" d="M 404.039062 240.421875 C 404.039062 244.679688 397.648438 244.679688 397.648438 240.421875 C 397.648438 236.164062 404.039062 236.164062 404.039062 240.421875 "/>
<path style=" stroke:none;fill-rule:nonzero;fill:rgb(100%,84.3%,0%);fill-opacity:1;" d="M 115 438.765625 C 115 443.023438 108.613281 443.023438 108.613281 438.765625 C 108.613281 434.507812 115 434.507812 115 438.765625 "/>
<path style=" stroke:none;fill-rule:nonzero;fill:rgb(100%,84.3%,0%);fill-opacity:1;" d="M 374.863281 457.710938 C 374.863281 461.96875 368.472656 461.96875 368.472656 457.710938 C 368.472656 453.453125 374.863281 453.453125 374.863281 457.710938 "/>
<path style=" stroke:none;fill-rule:nonzero;fill:rgb(100%,84.3%,0%);fill-opacity:1;" d="M 406.191406 225.429688 C 406.191406 229.6875 399.804688 229.6875 399.804688 225.429688 C 399.804688 221.171875 406.191406 221.171875 406.191406 225.429688 "/>
<path style=" stroke:none;fill-rule:nonzero;fill:rgb(100%,84.3%,0%);fill-opacity:1;" d="M 343.050781 462.398438 C 343.050781 466.65625 336.664062 466.65625 336.664062 462.398438 C 336.664062 458.140625 343.050781 458.140625 343.050781 462.398438 "/>
<path style=" stroke:none;fill-rule:nonzero;fill:rgb(100%,84.3%,0%);fill-opacity:1;" d="M 354.511719 453.828125 C 354.511719 458.085938 348.125 458.085938 348.125 453.828125 C 348.125 449.570312 354.511719 449.570312 354.511719 453.828125 "/>
<path style=" stroke:none;fill-rule:nonzero;fill:rgb(100%,84.3%,0%);fill-opacity:1;" d="M 435.246094 53.132812 C 435.246094 57.390625 428.855469 57.390625 428.855469 53.132812 C 428.855469 48.875 435.246094 48.875 435.246094 53.132812 "/>
<path style=" stroke:none;fill-rule:nonzero;fill:rgb(100%,84.3%,0%);fill-opacity:1;" d="M 424.34375 172.664062 C 424.34375 176.921875 417.957031 176.921875 417.957031 172.664062 C 417.957031 168.40625 424.34375 168.40625 424.34375 172.664062 "/>
<path style=" stroke:none;fill-rule:nonzero;fill:rgb(100%,84.3%,0%);fill-opacity:1;" d="M 141.515625 50.566406 C 141.515625 54.824219 135.128906 54.824219 135.128906 50.566406 C 135.128906 46.308594 141.515625 46.308594 141.515625 50.566406 "/>
<path style=" stroke:none;fill-rule:nonzero;fill:rgb(100%,84.3%,0%);fill-opacity:1;" d="M 352.785156 462.78125 C 352.785156 467.042969 346.394531 467.042969 346.394531 462.78125 C 346.394531 458.523438 352.785156 458.523438 352.785156 462.78125 "/>
<path style=" stroke:none;fill-rule:nonzero;fill:rgb(100%,84.3%,0%);fill-opacity:1;" d="M 150.824219 56.984375 C 150.824219 61.242188 144.4375 61.242188 144.4375 56.984375 C 144.4375 52.726562 150.824219 52.726562 150.824219 56.984375 "/>
<path style=" stroke:none;fill-rule:nonzero;fill:rgb(100%,84.3%,0%);fill-opacity:1;" d="M 122.796875 454.921875 C 122.796875 459.179688 116.410156 459.179688 116.410156 454.921875 C 116.410156 450.660156 122.796875 450.660156 122.796875 454.921875 "/>
<path style=" stroke:none;fill-rule:nonzero;fill:rgb(100%,84.3%,0%);fill-opacity:1;" d="M 362.738281 50.054688 C 362.738281 54.3125 356.347656 54.3125 356.347656 50.054688 C 356.347656 45.796875 362.738281 45.796875 362.738281 50.054688 "/>
<path style=" stroke:none;fill-rule:nonzero;fill:rgb(100%,84.3%,0%);fill-opacity:1;" d="M 296.160156 60.199219 C 296.160156 64.460938 289.773438 64.460938 289.773438 60.199219 C 289.773438 55.941406 296.160156 55.941406 296.160156 60.199219 "/>
<path style=" stroke:none;fill-rule:nonzero;fill:rgb(100%,84.3%,0%);fill-opacity:1;" d="M 406.011719 450.6875 C 406.011719 454.945312 399.625 454.945312 399.625 450.6875 C 399.625 446.429688 406.011719 446.429688 406.011719 450.6875 "/>
<path style=" stroke:none;fill-rule:nonzero;fill:rgb(100%,84.3%,0%);fill-opacity:1;" d="M 142.925781 458.023438 C 142.925781 462.28125 136.539062 462.28125 136.539062 458.023438 C 136.539062 453.765625 142.925781 453.765625 142.925781 458.023438 "/>
<path style=" stroke:none;fill-rule:nonzero;fill:rgb(100%,84.3%,0%);fill-opacity:1;" d="M 424.628906 49.632812 C 424.628906 53.890625 418.242188 53.890625 418.242188 49.632812 C 418.242188 45.375 424.628906 45.375 424.628906 49.632812 "/>
<path style=" stroke:none;fill-rule:nonzero;fill:rgb(100%,84.3%,0%);fill-opacity:1;" d="M 442.570312 206.933594 C 442.570312 211.191406 436.179688 211.191406 436.179688 206.933594 C 436.179688 202.675781 442.570312 202.675781 442.570312 206.933594 "/>
<path style=" stroke:none;fill-rule:nonzero;fill:rgb(100%,84.3%,0%);fill-opacity:1;" d="M 108.839844 59.730469 C 108.839844 63.988281 102.453125 63.988281 102.453125 59.730469 C 102.453125 55.472656 108.839844 55.472656 108.839844 59.730469 "/>
<path style=" stroke:none;fill-rule:nonzero;fill:rgb(100%,84.3%,0%);fill-opacity:1;" d="M 432.792969 394.410156 C 432.792969 398.667969 426.40625 398.667969 426.40625 394.410156 C 426.40625 390.152344 432.792969 390.152344 432.792969 394.410156 "/>
<path style=" stroke:none;fill-rule:nonzero;fill:rgb(100%,84.3%,0%);fill-opacity:1;" d="M 77.671875 59.160156 C 77.671875 63.421875 71.285156 63.421875 71.285156 59.160156 C 71.285156 54.902344 77.671875 54.902344 77.671875 59.160156 "/>
<path style=" stroke:none;fill-rule:nonzero;fill:rgb(100%,84.3%,0%);fill-opacity:1;" d="M 401.261719 65.21875 C 401.261719 69.476562 394.875 69.476562 394.875 65.21875 C 394.875 60.960938 401.261719 60.960938 401.261719 65.21875 "/>
<path style=" stroke:none;fill-rule:nonzero;fill:rgb(100%,84.3%,0%);fill-opacity:1;" d="M 152.878906 459.1875 C 152.878906 463.445312 146.492188 463.445312 146.492188 459.1875 C 146.492188 454.929688 152.878906 454.929688 152.878906 459.1875 "/>
<path style=" stroke:none;fill-rule:nonzero;fill:rgb(100%,84.3%,0%);fill-opacity:1;" d="M 90.765625 458.828125 C 90.765625 463.085938 84.378906 463.085938 84.378906 458.828125 C 84.378906 454.570312 90.765625 454.570312 90.765625 458.828125 "/>
<path style=" stroke:none;fill-rule:nonzero;fill:rgb(100%,84.3%,0%);fill-opacity:1;" d="M 389.578125 73.011719 C 389.578125 77.269531 383.1875 77.269531 383.1875 73.011719 C 383.1875 68.753906 389.578125 68.753906 389.578125 73.011719 "/>
<path style=" stroke:none;fill-rule:nonzero;fill:rgb(100%,84.3%,0%);fill-opacity:1;" d="M 331.128906 461.820312 C 331.128906 466.078125 324.742188 466.078125 324.742188 461.820312 C 324.742188 457.5625 331.128906 457.5625 331.128906 461.820312 "/>
<path style=" stroke:none;fill-rule:nonzero;fill:rgb(100%,84.3%,0%);fill-opacity:1;" d="M 51.617188 253.261719 C 51.617188 257.519531 45.230469 257.519531 45.230469 253.261719 C 45.230469 249 51.617188 249 51.617188 253.261719 "/>
<path style=" stroke:none;fill-rule:nonzero;fill:rgb(100%,84.3%,0%);fill-opacity:1;" d="M 380.691406 60.558594 C 380.691406 64.816406 374.304688 64.816406 374.304688 60.558594 C 374.304688 56.300781 380.691406 56.300781 380.691406 60.558594 "/>
<path style=" stroke:none;fill-rule:nonzero;fill:rgb(100%,84.3%,0%);fill-opacity:1;" d="M 162.832031 460.351562 C 162.832031 464.609375 156.445312 464.609375 156.445312 460.351562 C 156.445312 456.09375 162.832031 456.09375 162.832031 460.351562 "/>
<path style=" stroke:none;fill-rule:nonzero;fill:rgb(100%,84.3%,0%);fill-opacity:1;" d="M 443.636719 195.640625 C 443.636719 199.898438 437.25 199.898438 437.25 195.640625 C 437.25 191.382812 443.636719 191.382812 443.636719 195.640625 "/>
<path style=" stroke:none;fill-rule:nonzero;fill:rgb(100%,84.3%,0%);fill-opacity:1;" d="M 394.3125 450.886719 C 394.3125 455.144531 387.925781 455.144531 387.925781 450.886719 C 387.925781 446.628906 394.3125 446.628906 394.3125 450.886719 "/>
<path style=" stroke:none;fill-rule:nonzero;fill:rgb(100%,84.3%,0%);fill-opacity:1;" d="M 297.453125 49.6875 C 297.453125 53.945312 291.0625 53.945312 291.0625 49.6875 C 291.0625 45.429688 297.453125 45.429688 297.453125 49.6875 "/>
<path style=" stroke:none;fill-rule:nonzero;fill:rgb(100%,84.3%,0%);fill-opacity:1;" d="M 383.273438 453.421875 C 383.273438 457.679688 376.886719 457.679688 376.886719 453.421875 C 376.886719 449.164062 383.273438 449.164062 383.273438 453.421875 "/>
<path style=" stroke:none;fill-rule:nonzero;fill:rgb(100%,84.3%,0%);fill-opacity:1;" d="M 51.824219 246.445312 C 51.824219 250.703125 45.4375 250.703125 45.4375 246.445312 C 45.4375 242.1875 51.824219 242.1875 51.824219 246.445312 "/>
<path style=" stroke:none;fill-rule:nonzero;fill:rgb(100%,84.3%,0%);fill-opacity:1;" d="M 181.550781 55.996094 C 181.550781 60.253906 175.164062 60.253906 175.164062 55.996094 C 175.164062 51.738281 181.550781 51.738281 181.550781 55.996094 "/>
<path style=" stroke:none;fill-rule:nonzero;fill:rgb(100%,84.3%,0%);fill-opacity:1;" d="M 58.109375 272.335938 C 58.109375 276.59375 51.722656 276.59375 51.722656 272.335938 C 51.722656 268.078125 58.109375 268.078125 58.109375 272.335938 "/>
<path style=" stroke:none;fill-rule:nonzero;fill:rgb(100%,84.3%,0%);fill-opacity:1;" d="M 192.371094 52.679688 C 192.371094 56.9375 185.984375 56.9375 185.984375 52.679688 C 185.984375 48.421875 192.371094 48.421875 192.371094 52.679688 "/>
<path style=" stroke:none;fill-rule:nonzero;fill:rgb(100%,84.3%,0%);fill-opacity:1;" d="M 123.867188 443.628906 C 123.867188 447.886719 117.480469 447.886719 117.480469 443.628906 C 117.480469 439.371094 123.867188 439.371094 123.867188 443.628906 "/>
<path style=" stroke:none;fill-rule:nonzero;fill:rgb(100%,84.3%,0%);fill-opacity:1;" d="M 54.304688 74.746094 C 54.304688 79.007812 47.917969 79.007812 47.917969 74.746094 C 47.917969 70.488281 54.304688 70.488281 54.304688 74.746094 "/>
<path style=" stroke:none;fill-rule:nonzero;fill:rgb(100%,84.3%,0%);fill-opacity:1;" d="M 435.109375 455.351562 C 435.109375 459.609375 428.722656 459.609375 428.722656 455.351562 C 428.722656 451.09375 435.109375 451.09375 435.109375 455.351562 "/>
<path style=" stroke:none;fill-rule:nonzero;fill:rgb(100%,84.3%,0%);fill-opacity:1;" d="M 427.210938 288.109375 C 427.210938 292.367188 420.824219 292.367188 420.824219 288.109375 C 420.824219 283.851562 427.210938 283.851562 427.210938 288.109375 "/>
<path style=" stroke:none;fill-rule:nonzero;fill:rgb(100%,84.3%,0%);fill-opacity:1;" d="M 59.402344 261.820312 C 59.402344 266.078125 53.015625 266.078125 53.015625 261.820312 C 53.015625 257.5625 59.402344 257.5625 59.402344 261.820312 "/>
<path style=" stroke:none;fill-rule:nonzero;fill:rgb(100%,84.3%,0%);fill-opacity:1;" d="M 213.144531 50.527344 C 213.144531 54.789062 206.753906 54.789062 206.753906 50.527344 C 206.753906 46.269531 213.144531 46.269531 213.144531 50.527344 "/>
<path style=" stroke:none;fill-rule:nonzero;fill:rgb(100%,84.3%,0%);fill-opacity:1;" d="M 172.785156 461.515625 C 172.785156 465.773438 166.398438 465.773438 166.398438 461.515625 C 166.398438 457.253906 172.785156 457.253906 172.785156 461.515625 "/>
<path style=" stroke:none;fill-rule:nonzero;fill:rgb(100%,84.3%,0%);fill-opacity:1;" d="M 138.699219 63.21875 C 138.699219 67.476562 132.3125 67.476562 132.3125 63.21875 C 132.3125 58.960938 138.699219 58.960938 138.699219 63.21875 "/>
<path style=" stroke:none;fill-rule:nonzero;fill:rgb(100%,84.3%,0%);fill-opacity:1;" d="M 441.875 189.203125 C 441.875 193.460938 435.488281 193.460938 435.488281 189.203125 C 435.488281 184.945312 441.875 184.945312 441.875 189.203125 "/>
<path style=" stroke:none;fill-rule:nonzero;fill:rgb(100%,84.3%,0%);fill-opacity:1;" d="M 201.457031 58.320312 C 201.457031 62.582031 195.070312 62.582031 195.070312 58.320312 C 195.070312 54.0625 201.457031 54.0625 201.457031 58.320312 "/>
<path style=" stroke:none;fill-rule:nonzero;fill:rgb(100%,84.3%,0%);fill-opacity:1;" d="M 382.960938 98.511719 C 382.960938 102.769531 376.574219 102.769531 376.574219 98.511719 C 376.574219 94.25 382.960938 94.25 382.960938 98.511719 "/>
<path style=" stroke:none;fill-rule:nonzero;fill:rgb(100%,84.3%,0%);fill-opacity:1;" d="M 443.582031 376.117188 C 443.582031 380.375 437.195312 380.375 437.195312 376.117188 C 437.195312 371.859375 443.582031 371.859375 443.582031 376.117188 "/>
<path style=" stroke:none;fill-rule:nonzero;fill:rgb(100%,84.3%,0%);fill-opacity:1;" d="M 56.378906 281.289062 C 56.378906 285.550781 49.992188 285.550781 49.992188 281.289062 C 49.992188 277.03125 56.378906 277.03125 56.378906 281.289062 "/>
<path style=" stroke:none;fill-rule:nonzero;fill:rgb(100%,84.3%,0%);fill-opacity:1;" d="M 414.195312 234.769531 C 414.195312 239.027344 407.808594 239.027344 407.808594 234.769531 C 407.808594 230.511719 414.195312 230.511719 414.195312 234.769531 "/>
<path style=" stroke:none;fill-rule:nonzero;fill:rgb(100%,84.3%,0%);fill-opacity:1;" d="M 319.855469 455.984375 C 319.855469 460.242188 313.464844 460.242188 313.464844 455.984375 C 313.464844 451.726562 319.855469 451.726562 319.855469 455.984375 "/>
<path style=" stroke:none;fill-rule:nonzero;fill:rgb(100%,84.3%,0%);fill-opacity:1;" d="M 52.027344 239.632812 C 52.027344 243.890625 45.640625 243.890625 45.640625 239.632812 C 45.640625 235.371094 52.027344 235.371094 52.027344 239.632812 "/>
<path style=" stroke:none;fill-rule:nonzero;fill:rgb(100%,84.3%,0%);fill-opacity:1;" d="M 54.648438 290.246094 C 54.648438 294.503906 48.261719 294.503906 48.261719 290.246094 C 48.261719 285.988281 54.648438 285.988281 54.648438 290.246094 "/>
<path style=" stroke:none;fill-rule:nonzero;fill:rgb(100%,84.3%,0%);fill-opacity:1;" d="M 425.191406 160.59375 C 425.191406 164.851562 418.804688 164.851562 418.804688 160.59375 C 418.804688 156.332031 425.191406 156.332031 425.191406 160.59375 "/>
<path style=" stroke:none;fill-rule:nonzero;fill:rgb(100%,84.3%,0%);fill-opacity:1;" d="M 183.605469 458.199219 C 183.605469 462.457031 177.21875 462.457031 177.21875 458.199219 C 177.21875 453.941406 183.605469 453.941406 183.605469 458.199219 "/>
<path style=" stroke:none;fill-rule:nonzero;fill:rgb(100%,84.3%,0%);fill-opacity:1;" d="M 150.808594 49.390625 C 150.808594 53.648438 144.421875 53.648438 144.421875 49.390625 C 144.421875 45.132812 150.808594 45.132812 150.808594 49.390625 "/>
<path style=" stroke:none;fill-rule:nonzero;fill:rgb(100%,84.3%,0%);fill-opacity:1;" d="M 51.628906 309.714844 C 51.628906 313.972656 45.242188 313.972656 45.242188 309.714844 C 45.242188 305.457031 51.628906 305.457031 51.628906 309.714844 "/>
<path style=" stroke:none;fill-rule:nonzero;fill:rgb(100%,84.3%,0%);fill-opacity:1;" d="M 53.15625 153.394531 C 53.15625 157.652344 46.769531 157.652344 46.769531 153.394531 C 46.769531 149.136719 53.15625 149.136719 53.15625 153.394531 "/>
<path style=" stroke:none;fill-rule:nonzero;fill:rgb(100%,84.3%,0%);fill-opacity:1;" d="M 420.660156 189.796875 C 420.660156 194.054688 414.273438 194.054688 414.273438 189.796875 C 414.273438 185.539062 420.660156 185.539062 420.660156 189.796875 "/>
<path style=" stroke:none;fill-rule:nonzero;fill:rgb(100%,84.3%,0%);fill-opacity:1;" d="M 441.207031 390.328125 C 441.207031 394.585938 434.820312 394.585938 434.820312 390.328125 C 434.820312 386.070312 441.207031 386.070312 441.207031 390.328125 "/>
<path style=" stroke:none;fill-rule:nonzero;fill:rgb(100%,84.3%,0%);fill-opacity:1;" d="M 64.683594 69.875 C 64.683594 74.132812 58.296875 74.132812 58.296875 69.875 C 58.296875 65.617188 64.683594 65.617188 64.683594 69.875 "/>
<path style=" stroke:none;fill-rule:nonzero;fill:rgb(100%,84.3%,0%);fill-opacity:1;" d="M 360.753906 456.9375 C 360.753906 461.195312 354.367188 461.195312 354.367188 456.9375 C 354.367188 452.679688 360.753906 452.679688 360.753906 456.9375 "/>
<path style=" stroke:none;fill-rule:nonzero;fill:rgb(100%,84.3%,0%);fill-opacity:1;" d="M 441.5 218.226562 C 441.5 222.484375 435.113281 222.484375 435.113281 218.226562 C 435.113281 213.96875 441.5 213.96875 441.5 218.226562 "/>
<path style=" stroke:none;fill-rule:nonzero;fill:rgb(100%,84.3%,0%);fill-opacity:1;" d="M 435.789062 156.496094 C 435.789062 160.757812 429.402344 160.757812 429.402344 156.496094 C 429.402344 152.238281 435.789062 152.238281 435.789062 156.496094 "/>
<path style=" stroke:none;fill-rule:nonzero;fill:rgb(100%,84.3%,0%);fill-opacity:1;" d="M 379.320312 187.285156 C 379.320312 191.542969 372.933594 191.542969 372.933594 187.285156 C 372.933594 183.027344 379.320312 183.027344 379.320312 187.285156 "/>
<path style=" stroke:none;fill-rule:nonzero;fill:rgb(100%,84.3%,0%);fill-opacity:1;" d="M 341.917969 443.316406 C 341.917969 447.574219 335.53125 447.574219 335.53125 443.316406 C 335.53125 439.058594 341.917969 439.058594 341.917969 443.316406 "/>
<path style=" stroke:none;fill-rule:nonzero;fill:rgb(100%,84.3%,0%);fill-opacity:1;" d="M 438.832031 404.542969 C 438.832031 408.800781 432.445312 408.800781 432.445312 404.542969 C 432.445312 400.285156 438.832031 400.285156 438.832031 404.542969 "/>
<path style=" stroke:none;fill-rule:nonzero;fill:rgb(100%,84.3%,0%);fill-opacity:1;" d="M 413.289062 167.605469 C 413.289062 171.863281 406.898438 171.863281 406.898438 167.605469 C 406.898438 163.347656 413.289062 163.347656 413.289062 167.605469 "/>
<path style=" stroke:none;fill-rule:nonzero;fill:rgb(100%,84.3%,0%);fill-opacity:1;" d="M 52.917969 299.203125 C 52.917969 303.460938 46.53125 303.460938 46.53125 299.203125 C 46.53125 294.945312 52.917969 294.945312 52.917969 299.203125 "/>
<path style=" stroke:none;fill-rule:nonzero;fill:rgb(100%,84.3%,0%);fill-opacity:1;" d="M 55.152344 62.675781 C 55.152344 66.933594 48.765625 66.933594 48.765625 62.675781 C 48.765625 58.417969 55.152344 58.417969 55.152344 62.675781 "/>
<path style=" stroke:none;fill-rule:nonzero;fill:rgb(100%,84.3%,0%);fill-opacity:1;" d="M 153.082031 452.375 C 153.082031 456.632812 146.695312 456.632812 146.695312 452.375 C 146.695312 448.117188 153.082031 448.117188 153.082031 452.375 "/>
<path style=" stroke:none;fill-rule:nonzero;fill:rgb(100%,84.3%,0%);fill-opacity:1;" d="M 330.230469 451.109375 C 330.230469 455.371094 323.84375 455.371094 323.84375 451.109375 C 323.84375 446.851562 330.230469 446.851562 330.230469 451.109375 "/>
<path style=" stroke:none;fill-rule:nonzero;fill:rgb(100%,84.3%,0%);fill-opacity:1;" d="M 222.65625 50.132812 C 222.65625 54.390625 216.269531 54.390625 216.269531 50.132812 C 216.269531 45.875 222.65625 45.875 222.65625 50.132812 "/>
<path style=" stroke:none;fill-rule:nonzero;fill:rgb(100%,84.3%,0%);fill-opacity:1;" d="M 50.78125 167.605469 C 50.78125 171.863281 44.394531 171.863281 44.394531 167.605469 C 44.394531 163.347656 50.78125 163.347656 50.78125 167.605469 "/>
<path style=" stroke:none;fill-rule:nonzero;fill:rgb(100%,84.3%,0%);fill-opacity:1;" d="M 96.917969 59.152344 C 96.917969 63.410156 90.53125 63.410156 90.53125 59.152344 C 90.53125 54.894531 96.917969 54.894531 96.917969 59.152344 "/>
<path style=" stroke:none;fill-rule:nonzero;fill:rgb(100%,84.3%,0%);fill-opacity:1;" d="M 193.335938 458.582031 C 193.335938 462.839844 186.949219 462.839844 186.949219 458.582031 C 186.949219 454.324219 193.335938 454.324219 193.335938 458.582031 "/>
<path style=" stroke:none;fill-rule:nonzero;fill:rgb(100%,84.3%,0%);fill-opacity:1;" d="M 434.609375 269.238281 C 434.609375 273.496094 428.222656 273.496094 428.222656 269.238281 C 428.222656 264.980469 434.609375 264.980469 434.609375 269.238281 "/>
<path style=" stroke:none;fill-rule:nonzero;fill:rgb(100%,84.3%,0%);fill-opacity:1;" d="M 57.246094 122.632812 C 57.246094 126.890625 50.859375 126.890625 50.859375 122.632812 C 50.859375 118.371094 57.246094 118.371094 57.246094 122.632812 "/>
<path style=" stroke:none;fill-rule:nonzero;fill:rgb(100%,84.3%,0%);fill-opacity:1;" d="M 52.230469 232.816406 C 52.230469 237.074219 45.84375 237.074219 45.84375 232.816406 C 45.84375 228.558594 52.230469 228.558594 52.230469 232.816406 "/>
<path style=" stroke:none;fill-rule:nonzero;fill:rgb(100%,84.3%,0%);fill-opacity:1;" d="M 442.722656 177.132812 C 442.722656 181.390625 436.335938 181.390625 436.335938 177.132812 C 436.335938 172.871094 442.722656 172.871094 442.722656 177.132812 "/>
<path style=" stroke:none;fill-rule:nonzero;fill:rgb(100%,84.3%,0%);fill-opacity:1;" d="M 425.398438 153.777344 C 425.398438 158.035156 419.007812 158.035156 419.007812 153.777344 C 419.007812 149.519531 425.398438 149.519531 425.398438 153.777344 "/>
<path style=" stroke:none;fill-rule:nonzero;fill:rgb(100%,84.3%,0%);fill-opacity:1;" d="M 371.996094 447.585938 C 371.996094 451.84375 365.609375 451.84375 365.609375 447.585938 C 365.609375 443.328125 371.996094 443.328125 371.996094 447.585938 "/>
<path style=" stroke:none;fill-rule:nonzero;fill:rgb(100%,84.3%,0%);fill-opacity:1;" d="M 424.351562 229.121094 C 424.351562 233.378906 417.964844 233.378906 417.964844 229.121094 C 417.964844 224.863281 424.351562 224.863281 424.351562 229.121094 "/>
<path style=" stroke:none;fill-rule:nonzero;fill:rgb(100%,84.3%,0%);fill-opacity:1;" d="M 433.839844 164.675781 C 433.839844 168.933594 427.453125 168.933594 427.453125 164.675781 C 427.453125 160.417969 433.839844 160.417969 433.839844 164.675781 "/>
<path style=" stroke:none;fill-rule:nonzero;fill:rgb(100%,84.3%,0%);fill-opacity:1;" d="M 189.980469 59.300781 C 189.980469 63.558594 183.589844 63.558594 183.589844 59.300781 C 183.589844 55.042969 189.980469 55.042969 189.980469 59.300781 "/>
<path style=" stroke:none;fill-rule:nonzero;fill:rgb(100%,84.3%,0%);fill-opacity:1;" d="M 307.507812 461.441406 C 307.507812 465.699219 301.121094 465.699219 301.121094 461.441406 C 301.121094 457.183594 307.507812 457.183594 307.507812 461.441406 "/>
<path style=" stroke:none;fill-rule:nonzero;fill:rgb(100%,84.3%,0%);fill-opacity:1;" d="M 54.167969 217.046875 C 54.167969 221.304688 47.78125 221.304688 47.78125 217.046875 C 47.78125 212.789062 54.167969 212.789062 54.167969 217.046875 "/>
<path style=" stroke:none;fill-rule:nonzero;fill:rgb(100%,84.3%,0%);fill-opacity:1;" d="M 435.996094 149.683594 C 435.996094 153.941406 429.609375 153.941406 429.609375 149.683594 C 429.609375 145.425781 435.996094 145.425781 435.996094 149.683594 "/>
<path style=" stroke:none;fill-rule:nonzero;fill:rgb(100%,84.3%,0%);fill-opacity:1;" d="M 441.6875 49.429688 C 441.6875 53.6875 435.300781 53.6875 435.300781 49.429688 C 435.300781 45.167969 441.6875 45.167969 441.6875 49.429688 "/>
<path style=" stroke:none;fill-rule:nonzero;fill:rgb(100%,84.3%,0%);fill-opacity:1;" d="M 435.769531 352.367188 C 435.769531 356.625 429.382812 356.625 429.382812 352.367188 C 429.382812 348.109375 435.769531 348.109375 435.769531 352.367188 "/>
<path style=" stroke:none;fill-rule:nonzero;fill:rgb(100%,84.3%,0%);fill-opacity:1;" d="M 422.621094 238.074219 C 422.621094 242.335938 416.234375 242.335938 416.234375 238.074219 C 416.234375 233.816406 422.621094 233.816406 422.621094 238.074219 "/>
<path style=" stroke:none;fill-rule:nonzero;fill:rgb(100%,84.3%,0%);fill-opacity:1;" d="M 431.929688 244.496094 C 431.929688 248.753906 425.542969 248.753906 425.542969 244.496094 C 425.542969 240.238281 431.929688 240.238281 431.929688 244.496094 "/>
<path style=" stroke:none;fill-rule:nonzero;fill:rgb(100%,84.3%,0%);fill-opacity:1;" d="M 441.410156 383.515625 C 441.410156 387.773438 435.023438 387.773438 435.023438 383.515625 C 435.023438 379.257812 441.410156 379.257812 441.410156 383.515625 "/>
<path style=" stroke:none;fill-rule:nonzero;fill:rgb(100%,84.3%,0%);fill-opacity:1;" d="M 443.566406 368.523438 C 443.566406 372.78125 437.179688 372.78125 437.179688 368.523438 C 437.179688 364.265625 443.566406 364.265625 443.566406 368.523438 "/>
<path style=" stroke:none;fill-rule:nonzero;fill:rgb(100%,84.3%,0%);fill-opacity:1;" d="M 422.851562 449.703125 C 422.851562 453.960938 416.464844 453.960938 416.464844 449.703125 C 416.464844 445.445312 422.851562 445.445312 422.851562 449.703125 "/>
<path style=" stroke:none;fill-rule:nonzero;fill:rgb(100%,84.3%,0%);fill-opacity:1;" d="M 52.4375 226.003906 C 52.4375 230.261719 46.046875 230.261719 46.046875 226.003906 C 46.046875 221.742188 52.4375 221.742188 52.4375 226.003906 "/>
<path style=" stroke:none;fill-rule:nonzero;fill:rgb(100%,84.3%,0%);fill-opacity:1;" d="M 60.914062 97.902344 C 60.914062 102.164062 54.527344 102.164062 54.527344 97.902344 C 54.527344 93.644531 60.914062 93.644531 60.914062 97.902344 "/>
<path style=" stroke:none;fill-rule:nonzero;fill:rgb(100%,84.3%,0%);fill-opacity:1;" d="M 439.035156 397.726562 C 439.035156 401.984375 432.648438 401.984375 432.648438 397.726562 C 432.648438 393.46875 439.035156 393.46875 439.035156 397.726562 "/>
<path style=" stroke:none;fill-rule:nonzero;fill:rgb(100%,84.3%,0%);fill-opacity:1;" d="M 65.046875 138.785156 C 65.046875 143.042969 58.660156 143.042969 58.660156 138.785156 C 58.660156 134.527344 65.046875 134.527344 65.046875 138.785156 "/>
<path style=" stroke:none;fill-rule:nonzero;fill:rgb(100%,84.3%,0%);fill-opacity:1;" d="M 53.363281 146.578125 C 53.363281 150.835938 46.972656 150.835938 46.972656 146.578125 C 46.972656 142.320312 53.363281 142.320312 53.363281 146.578125 "/>
<path style=" stroke:none;fill-rule:nonzero;fill:rgb(100%,84.3%,0%);fill-opacity:1;" d="M 201.222656 49.949219 C 201.222656 54.207031 194.835938 54.207031 194.835938 49.949219 C 194.835938 45.691406 201.222656 45.691406 201.222656 49.949219 "/>
<path style=" stroke:none;fill-rule:nonzero;fill:rgb(100%,84.3%,0%);fill-opacity:1;" d="M 59.183594 106.859375 C 59.183594 111.117188 52.796875 111.117188 52.796875 106.859375 C 52.796875 102.601562 59.183594 102.601562 59.183594 106.859375 "/>
<path style=" stroke:none;fill-rule:nonzero;fill:rgb(100%,84.3%,0%);fill-opacity:1;" d="M 442.925781 170.316406 C 442.925781 174.574219 436.539062 174.574219 436.539062 170.316406 C 436.539062 166.058594 442.925781 166.058594 442.925781 170.316406 "/>
<path style=" stroke:none;fill-rule:nonzero;fill:rgb(100%,84.3%,0%);fill-opacity:1;" d="M 383.019531 437.457031 C 383.019531 441.714844 376.632812 441.714844 376.632812 437.457031 C 376.632812 433.199219 383.019531 433.199219 383.019531 437.457031 "/>
<path style=" stroke:none;fill-rule:nonzero;fill:rgb(100%,84.3%,0%);fill-opacity:1;" d="M 437.929688 133.914062 C 437.929688 138.171875 431.542969 138.171875 431.542969 133.914062 C 431.542969 129.65625 437.929688 129.65625 437.929688 133.914062 "/>
<path style=" stroke:none;fill-rule:nonzero;fill:rgb(100%,84.3%,0%);fill-opacity:1;" d="M 436.660156 411.941406 C 436.660156 416.199219 430.273438 416.199219 430.273438 411.941406 C 430.273438 407.683594 436.660156 407.683594 436.660156 411.941406 "/>
<path style=" stroke:none;fill-rule:nonzero;fill:rgb(100%,84.3%,0%);fill-opacity:1;" d="M 435.148438 421.675781 C 435.148438 425.933594 428.761719 425.933594 428.761719 421.675781 C 428.761719 417.417969 435.148438 417.417969 435.148438 421.675781 "/>
<path style=" stroke:none;fill-rule:nonzero;fill:rgb(100%,84.3%,0%);fill-opacity:1;" d="M 50.988281 160.789062 C 50.988281 165.050781 44.597656 165.050781 44.597656 160.789062 C 44.597656 156.53125 50.988281 156.53125 50.988281 160.789062 "/>
<path style=" stroke:none;fill-rule:nonzero;fill:rgb(100%,84.3%,0%);fill-opacity:1;" d="M 104.148438 426.894531 C 104.148438 431.152344 97.761719 431.152344 97.761719 426.894531 C 97.761719 422.636719 104.148438 422.636719 104.148438 426.894531 "/>
<path style=" stroke:none;fill-rule:nonzero;fill:rgb(100%,84.3%,0%);fill-opacity:1;" d="M 418.449219 125.550781 C 418.449219 129.808594 412.058594 129.808594 412.058594 125.550781 C 412.058594 121.292969 418.449219 121.292969 418.449219 125.550781 "/>
<path style=" stroke:none;fill-rule:nonzero;fill:rgb(100%,84.3%,0%);fill-opacity:1;" d="M 55.296875 130.808594 C 55.296875 135.066406 48.910156 135.066406 48.910156 130.808594 C 48.910156 126.550781 55.296875 126.550781 55.296875 130.808594 "/>
<path style=" stroke:none;fill-rule:nonzero;fill:rgb(100%,84.3%,0%);fill-opacity:1;" d="M 429.910156 116.980469 C 429.910156 121.238281 423.523438 121.238281 423.523438 116.980469 C 423.523438 112.722656 429.910156 112.722656 429.910156 116.980469 "/>
<path style=" stroke:none;fill-rule:nonzero;fill:rgb(100%,84.3%,0%);fill-opacity:1;" d="M 433.816406 360.546875 C 433.816406 364.804688 427.429688 364.804688 427.429688 360.546875 C 427.429688 356.285156 433.816406 356.285156 433.816406 360.546875 "/>
<path style=" stroke:none;fill-rule:nonzero;fill:rgb(100%,84.3%,0%);fill-opacity:1;" d="M 439.21875 123.398438 C 439.21875 127.65625 432.832031 127.65625 432.832031 123.398438 C 432.832031 119.140625 439.21875 119.140625 439.21875 123.398438 "/>
<path style=" stroke:none;fill-rule:nonzero;fill:rgb(100%,84.3%,0%);fill-opacity:1;" d="M 202.851562 458.1875 C 202.851562 462.445312 196.464844 462.445312 196.464844 458.1875 C 196.464844 453.929688 202.851562 453.929688 202.851562 458.1875 "/>
<path style=" stroke:none;fill-rule:nonzero;fill:rgb(100%,84.3%,0%);fill-opacity:1;" d="M 435.972656 345.554688 C 435.972656 349.8125 429.585938 349.8125 429.585938 345.554688 C 429.585938 341.296875 435.972656 341.296875 435.972656 345.554688 "/>
<path style=" stroke:none;fill-rule:nonzero;fill:rgb(100%,84.3%,0%);fill-opacity:1;" d="M 429.511719 187.066406 C 429.511719 191.324219 423.125 191.324219 423.125 187.066406 C 423.125 182.808594 429.511719 182.808594 429.511719 187.066406 "/>
<path style=" stroke:none;fill-rule:nonzero;fill:rgb(100%,84.3%,0%);fill-opacity:1;" d="M 55.78125 49.828125 C 55.78125 54.085938 49.394531 54.085938 49.394531 49.828125 C 49.394531 45.570312 55.78125 45.570312 55.78125 49.828125 "/>
<path style=" stroke:none;fill-rule:nonzero;fill:rgb(100%,84.3%,0%);fill-opacity:1;" d="M 367.671875 56.085938 C 367.671875 60.34375 361.285156 60.34375 361.285156 56.085938 C 361.285156 51.824219 367.671875 51.824219 367.671875 56.085938 "/>
<path style=" stroke:none;fill-rule:nonzero;fill:rgb(100%,84.3%,0%);fill-opacity:1;" d="M 417.652344 265.722656 C 417.652344 269.980469 411.261719 269.980469 411.261719 265.722656 C 411.261719 261.464844 417.652344 261.464844 417.652344 265.722656 "/>
<path style=" stroke:none;fill-rule:nonzero;fill:rgb(100%,84.3%,0%);fill-opacity:1;" d="M 420.636719 385.457031 C 420.636719 389.714844 414.25 389.714844 414.25 385.457031 C 414.25 381.199219 420.636719 381.199219 420.636719 385.457031 "/>
<path style=" stroke:none;fill-rule:nonzero;fill:rgb(100%,84.3%,0%);fill-opacity:1;" d="M 375.46875 72.238281 C 375.46875 76.496094 369.082031 76.496094 369.082031 72.238281 C 369.082031 67.980469 375.46875 67.980469 375.46875 72.238281 "/>
<path style=" stroke:none;fill-rule:nonzero;fill:rgb(100%,84.3%,0%);fill-opacity:1;" d="M 167.460938 62.816406 C 167.460938 67.074219 161.074219 67.074219 161.074219 62.816406 C 161.074219 58.558594 167.460938 58.558594 167.460938 62.816406 "/>
<path style=" stroke:none;fill-rule:nonzero;fill:rgb(100%,84.3%,0%);fill-opacity:1;" d="M 443.550781 360.929688 C 443.550781 365.1875 437.164062 365.1875 437.164062 360.929688 C 437.164062 356.671875 443.550781 356.671875 443.550781 360.929688 "/>
<path style=" stroke:none;fill-rule:nonzero;fill:rgb(100%,84.3%,0%);fill-opacity:1;" d="M 177.414062 63.976562 C 177.414062 68.234375 171.023438 68.234375 171.023438 63.976562 C 171.023438 59.71875 177.414062 59.71875 177.414062 63.976562 "/>
<path style=" stroke:none;fill-rule:nonzero;fill:rgb(100%,84.3%,0%);fill-opacity:1;" d="M 54.371094 210.230469 C 54.371094 214.488281 47.984375 214.488281 47.984375 210.230469 C 47.984375 205.972656 54.371094 205.972656 54.371094 210.230469 "/>
<path style=" stroke:none;fill-rule:nonzero;fill:rgb(100%,84.3%,0%);fill-opacity:1;" d="M 67.40625 116.980469 C 67.40625 121.238281 61.019531 121.238281 61.019531 116.980469 C 61.019531 112.722656 67.40625 112.722656 67.40625 116.980469 "/>
<path style=" stroke:none;fill-rule:nonzero;fill:rgb(100%,84.3%,0%);fill-opacity:1;" d="M 183.148438 449.046875 C 183.148438 453.304688 176.761719 453.304688 176.761719 449.046875 C 176.761719 444.789062 183.148438 444.789062 183.148438 449.046875 "/>
<path style=" stroke:none;fill-rule:nonzero;fill:rgb(100%,84.3%,0%);fill-opacity:1;" d="M 172.972656 447.105469 C 172.972656 451.363281 166.585938 451.363281 166.585938 447.105469 C 166.585938 442.847656 172.972656 442.847656 172.972656 447.105469 "/>
<path style=" stroke:none;fill-rule:nonzero;fill:rgb(100%,84.3%,0%);fill-opacity:1;" d="M 437.042969 334.261719 C 437.042969 338.519531 430.65625 338.519531 430.65625 334.261719 C 430.65625 330.003906 437.042969 330.003906 437.042969 334.261719 "/>
<path style=" stroke:none;fill-rule:nonzero;fill:rgb(100%,84.3%,0%);fill-opacity:1;" d="M 440.511719 112.886719 C 440.511719 117.144531 434.125 117.144531 434.125 112.886719 C 434.125 108.628906 440.511719 108.628906 440.511719 112.886719 "/>
<path style=" stroke:none;fill-rule:nonzero;fill:rgb(100%,84.3%,0%);fill-opacity:1;" d="M 439.199219 319.269531 C 439.199219 323.527344 432.808594 323.527344 432.808594 319.269531 C 432.808594 315.011719 439.199219 315.011719 439.199219 319.269531 "/>
<path style=" stroke:none;fill-rule:nonzero;fill:rgb(100%,84.3%,0%);fill-opacity:1;" d="M 430.800781 176.550781 C 430.800781 180.808594 424.414062 180.808594 424.414062 176.550781 C 424.414062 172.292969 430.800781 172.292969 430.800781 176.550781 "/>
<path style=" stroke:none;fill-rule:nonzero;fill:rgb(100%,84.3%,0%);fill-opacity:1;" d="M 441.351562 304.277344 C 441.351562 308.535156 434.964844 308.535156 434.964844 304.277344 C 434.964844 300.019531 441.351562 300.019531 441.351562 304.277344 "/>
<path style=" stroke:none;fill-rule:nonzero;fill:rgb(100%,84.3%,0%);fill-opacity:1;" d="M 212.582031 458.574219 C 212.582031 462.832031 206.195312 462.832031 206.195312 458.574219 C 206.195312 454.316406 212.582031 454.316406 212.582031 458.574219 "/>
<path style=" stroke:none;fill-rule:nonzero;fill:rgb(100%,84.3%,0%);fill-opacity:1;" d="M 443.507812 289.285156 C 443.507812 293.546875 437.121094 293.546875 437.121094 289.285156 C 437.121094 285.027344 443.507812 285.027344 443.507812 289.285156 "/>
<path style=" stroke:none;fill-rule:nonzero;fill:rgb(100%,84.3%,0%);fill-opacity:1;" d="M 442.929688 430.234375 C 442.929688 434.496094 436.542969 434.496094 436.542969 430.234375 C 436.542969 425.976562 442.929688 425.976562 442.929688 430.234375 "/>
<path style=" stroke:none;fill-rule:nonzero;fill:rgb(100%,84.3%,0%);fill-opacity:1;" d="M 403.394531 91.496094 C 403.394531 95.757812 397.007812 95.757812 397.007812 91.496094 C 397.007812 87.238281 403.394531 87.238281 403.394531 91.496094 "/>
<path style=" stroke:none;fill-rule:nonzero;fill:rgb(100%,84.3%,0%);fill-opacity:1;" d="M 432.492188 95.953125 C 432.492188 100.210938 426.105469 100.210938 426.105469 95.953125 C 426.105469 91.695312 432.492188 91.695312 432.492188 95.953125 "/>
<path style=" stroke:none;fill-rule:nonzero;fill:rgb(100%,84.3%,0%);fill-opacity:1;" d="M 208.785156 57.730469 C 208.785156 61.988281 202.394531 61.988281 202.394531 57.730469 C 202.394531 53.472656 208.785156 53.472656 208.785156 57.730469 "/>
<path style=" stroke:none;fill-rule:nonzero;fill:rgb(100%,84.3%,0%);fill-opacity:1;" d="M 251.398438 455.816406 C 251.398438 460.074219 245.011719 460.074219 245.011719 455.816406 C 245.011719 451.558594 251.398438 451.558594 251.398438 455.816406 "/>
<path style=" stroke:none;fill-rule:nonzero;fill:rgb(100%,84.3%,0%);fill-opacity:1;" d="M 65.675781 125.933594 C 65.675781 130.191406 59.289062 130.191406 59.289062 125.933594 C 59.289062 121.675781 65.675781 121.675781 65.675781 125.933594 "/>
<path style=" stroke:none;fill-rule:nonzero;fill:rgb(100%,84.3%,0%);fill-opacity:1;" d="M 431.914062 236.902344 C 431.914062 241.160156 425.527344 241.160156 425.527344 236.902344 C 425.527344 232.644531 431.914062 232.644531 431.914062 236.902344 "/>
<path style=" stroke:none;fill-rule:nonzero;fill:rgb(100%,84.3%,0%);fill-opacity:1;" d="M 222.539062 459.734375 C 222.539062 463.996094 216.148438 463.996094 216.148438 459.734375 C 216.148438 455.476562 222.539062 455.476562 222.539062 459.734375 "/>
<path style=" stroke:none;fill-rule:nonzero;fill:rgb(100%,84.3%,0%);fill-opacity:1;" d="M 57.636719 255.589844 C 57.636719 259.847656 51.25 259.847656 51.25 255.589844 C 51.25 251.332031 57.636719 251.332031 57.636719 255.589844 "/>
<path style=" stroke:none;fill-rule:nonzero;fill:rgb(100%,84.3%,0%);fill-opacity:1;" d="M 354.054688 444.46875 C 354.054688 448.726562 347.667969 448.726562 347.667969 444.46875 C 347.667969 440.207031 354.054688 440.207031 354.054688 444.46875 "/>
<path style=" stroke:none;fill-rule:nonzero;fill:rgb(100%,84.3%,0%);fill-opacity:1;" d="M 230.421875 51.101562 C 230.421875 55.359375 224.035156 55.359375 224.035156 51.101562 C 224.035156 46.84375 230.421875 46.84375 230.421875 51.101562 "/>
<path style=" stroke:none;fill-rule:nonzero;fill:rgb(100%,84.3%,0%);fill-opacity:1;" d="M 437.1875 248.210938 C 437.1875 252.46875 430.800781 252.46875 430.800781 248.210938 C 430.800781 243.953125 437.1875 243.953125 437.1875 248.210938 "/>
<path style=" stroke:none;fill-rule:nonzero;fill:rgb(100%,84.3%,0%);fill-opacity:1;" d="M 409.121094 111.539062 C 409.121094 115.796875 402.734375 115.796875 402.734375 111.539062 C 402.734375 107.28125 409.121094 107.28125 409.121094 111.539062 "/>
<path style=" stroke:none;fill-rule:nonzero;fill:rgb(100%,84.3%,0%);fill-opacity:1;" d="M 57.238281 325.675781 C 57.238281 329.933594 50.851562 329.933594 50.851562 325.675781 C 50.851562 321.417969 57.238281 321.417969 57.238281 325.675781 "/>
<path style=" stroke:none;fill-rule:nonzero;fill:rgb(100%,84.3%,0%);fill-opacity:1;" d="M 68.476562 105.6875 C 68.476562 109.945312 62.089844 109.945312 62.089844 105.6875 C 62.089844 101.429688 68.476562 101.429688 68.476562 105.6875 "/>
<path style=" stroke:none;fill-rule:nonzero;fill:rgb(100%,84.3%,0%);fill-opacity:1;" d="M 58.480469 446.5625 C 58.480469 450.820312 52.089844 450.820312 52.089844 446.5625 C 52.089844 442.304688 58.480469 442.304688 58.480469 446.5625 "/>
<path style=" stroke:none;fill-rule:nonzero;fill:rgb(100%,84.3%,0%);fill-opacity:1;" d="M 414.367188 212.769531 C 414.367188 217.027344 407.980469 217.027344 407.980469 212.769531 C 407.980469 208.511719 414.367188 208.511719 414.367188 212.769531 "/>
<path style=" stroke:none;fill-rule:nonzero;fill:rgb(100%,84.3%,0%);fill-opacity:1;" d="M 55.730469 335.410156 C 55.730469 339.667969 49.34375 339.667969 49.34375 335.410156 C 49.34375 331.152344 55.730469 331.152344 55.730469 335.410156 "/>
<path style=" stroke:none;fill-rule:nonzero;fill:rgb(100%,84.3%,0%);fill-opacity:1;" d="M 414.546875 141.90625 C 414.546875 146.164062 408.160156 146.164062 408.160156 141.90625 C 408.160156 137.648438 414.546875 137.648438 414.546875 141.90625 "/>
<path style=" stroke:none;fill-rule:nonzero;fill:rgb(100%,84.3%,0%);fill-opacity:1;" d="M 53.125 138.207031 C 53.125 142.464844 46.738281 142.464844 46.738281 138.207031 C 46.738281 133.949219 53.125 133.949219 53.125 138.207031 "/>
<path style=" stroke:none;fill-rule:nonzero;fill:rgb(100%,84.3%,0%);fill-opacity:1;" d="M 62.433594 144.625 C 62.433594 148.882812 56.046875 148.882812 56.046875 144.625 C 56.046875 140.367188 62.433594 140.367188 62.433594 144.625 "/>
<path style=" stroke:none;fill-rule:nonzero;fill:rgb(100%,84.3%,0%);fill-opacity:1;" d="M 277.339844 54.175781 C 277.339844 58.433594 270.953125 58.433594 270.953125 54.175781 C 270.953125 49.917969 277.339844 49.917969 277.339844 54.175781 "/>
<path style=" stroke:none;fill-rule:nonzero;fill:rgb(100%,84.3%,0%);fill-opacity:1;" d="M 437.246094 327.445312 C 437.246094 331.707031 430.859375 331.707031 430.859375 327.445312 C 430.859375 323.1875 437.246094 323.1875 437.246094 327.445312 "/>
<path style=" stroke:none;fill-rule:nonzero;fill:rgb(100%,84.3%,0%);fill-opacity:1;" d="M 439.402344 312.453125 C 439.402344 316.714844 433.015625 316.714844 433.015625 312.453125 C 433.015625 308.195312 439.402344 308.195312 439.402344 312.453125 "/>
<path style=" stroke:none;fill-rule:nonzero;fill:rgb(100%,84.3%,0%);fill-opacity:1;" d="M 232.269531 460.121094 C 232.269531 464.378906 225.882812 464.378906 225.882812 460.121094 C 225.882812 455.863281 232.269531 455.863281 232.269531 460.121094 "/>
<path style=" stroke:none;fill-rule:nonzero;fill:rgb(100%,84.3%,0%);fill-opacity:1;" d="M 435.015625 255.609375 C 435.015625 259.867188 428.628906 259.867188 428.628906 255.609375 C 428.628906 251.351562 435.015625 251.351562 435.015625 255.609375 "/>
<path style=" stroke:none;fill-rule:nonzero;fill:rgb(100%,84.3%,0%);fill-opacity:1;" d="M 77.742188 454.355469 C 77.742188 458.613281 71.355469 458.613281 71.355469 454.355469 C 71.355469 450.097656 77.742188 450.097656 77.742188 454.355469 "/>
<path style=" stroke:none;fill-rule:nonzero;fill:rgb(100%,84.3%,0%);fill-opacity:1;" d="M 73.878906 282.644531 C 73.878906 286.902344 67.492188 286.902344 67.492188 282.644531 C 67.492188 278.386719 73.878906 278.386719 73.878906 282.644531 "/>
<path style=" stroke:none;fill-rule:nonzero;fill:rgb(100%,84.3%,0%);fill-opacity:1;" d="M 441.558594 297.464844 C 441.558594 301.722656 435.171875 301.722656 435.171875 297.464844 C 435.171875 293.207031 441.558594 293.207031 441.558594 297.464844 "/>
<path style=" stroke:none;fill-rule:nonzero;fill:rgb(100%,84.3%,0%);fill-opacity:1;" d="M 415.65625 202.257812 C 415.65625 206.515625 409.269531 206.515625 409.269531 202.257812 C 409.269531 197.996094 415.65625 197.996094 415.65625 202.257812 "/>
<path style=" stroke:none;fill-rule:nonzero;fill:rgb(100%,84.3%,0%);fill-opacity:1;" d="M 140.5 449.457031 C 140.5 453.714844 134.113281 453.714844 134.113281 449.457031 C 134.113281 445.199219 140.5 445.199219 140.5 449.457031 "/>
<path style=" stroke:none;fill-rule:nonzero;fill:rgb(100%,84.3%,0%);fill-opacity:1;" d="M 145.585938 61.070312 C 145.585938 65.332031 139.199219 65.332031 139.199219 61.070312 C 139.199219 56.8125 145.585938 56.8125 145.585938 61.070312 "/>
<path style=" stroke:none;fill-rule:nonzero;fill:rgb(100%,84.3%,0%);fill-opacity:1;" d="M 443.136719 423.421875 C 443.136719 427.679688 436.75 427.679688 436.75 423.421875 C 436.75 419.164062 443.136719 419.164062 443.136719 423.421875 "/>
<path style=" stroke:none;fill-rule:nonzero;fill:rgb(100%,84.3%,0%);fill-opacity:1;" d="M 155.539062 62.234375 C 155.539062 66.492188 149.152344 66.492188 149.152344 62.234375 C 149.152344 57.976562 155.539062 57.976562 155.539062 62.234375 "/>
<path style=" stroke:none;fill-rule:nonzero;fill:rgb(100%,84.3%,0%);fill-opacity:1;" d="M 443.492188 281.691406 C 443.492188 285.949219 437.105469 285.949219 437.105469 281.691406 C 437.105469 277.433594 443.492188 277.433594 443.492188 281.691406 "/>
<path style=" stroke:none;fill-rule:nonzero;fill:rgb(100%,84.3%,0%);fill-opacity:1;" d="M 92.558594 66.355469 C 92.558594 70.613281 86.171875 70.613281 86.171875 66.355469 C 86.171875 62.097656 92.558594 62.097656 92.558594 66.355469 "/>
<path style=" stroke:none;fill-rule:nonzero;fill:rgb(100%,84.3%,0%);fill-opacity:1;" d="M 100.023438 442.46875 C 100.023438 446.726562 93.636719 446.726562 93.636719 442.46875 C 93.636719 438.210938 100.023438 438.210938 100.023438 442.46875 "/>
<path style=" stroke:none;fill-rule:nonzero;fill:rgb(100%,84.3%,0%);fill-opacity:1;" d="M 442.726562 437.050781 C 442.726562 441.308594 436.339844 441.308594 436.339844 437.050781 C 436.339844 432.792969 442.726562 432.792969 442.726562 437.050781 "/>
<path style=" stroke:none;fill-rule:nonzero;fill:rgb(100%,84.3%,0%);fill-opacity:1;" d="M 161.273438 447.304688 C 161.273438 451.5625 154.886719 451.5625 154.886719 447.304688 C 154.886719 443.046875 161.273438 443.046875 161.273438 447.304688 "/>
<path style=" stroke:none;fill-rule:nonzero;fill:rgb(100%,84.3%,0%);fill-opacity:1;" d="M 130.105469 446.738281 C 130.105469 450.996094 123.71875 450.996094 123.71875 446.738281 C 123.71875 442.480469 130.105469 442.480469 130.105469 446.738281 "/>
<path style=" stroke:none;fill-rule:nonzero;fill:rgb(100%,84.3%,0%);fill-opacity:1;" d="M 61.328125 294.914062 C 61.328125 299.171875 54.941406 299.171875 54.941406 294.914062 C 54.941406 290.65625 61.328125 290.65625 61.328125 294.914062 "/>
<path style=" stroke:none;fill-rule:nonzero;fill:rgb(100%,84.3%,0%);fill-opacity:1;" d="M 185.621094 66.503906 C 185.621094 70.761719 179.230469 70.761719 179.230469 66.503906 C 179.230469 62.246094 185.621094 62.246094 185.621094 66.503906 "/>
<path style=" stroke:none;fill-rule:nonzero;fill:rgb(100%,84.3%,0%);fill-opacity:1;" d="M 109.757812 442.851562 C 109.757812 447.109375 103.371094 447.109375 103.371094 442.851562 C 103.371094 438.59375 109.757812 438.59375 109.757812 442.851562 "/>
<path style=" stroke:none;fill-rule:nonzero;fill:rgb(100%,84.3%,0%);fill-opacity:1;" d="M 254.804688 50.097656 C 254.804688 54.355469 248.417969 54.355469 248.417969 50.097656 C 248.417969 45.839844 254.804688 45.839844 254.804688 50.097656 "/>
<path style=" stroke:none;fill-rule:nonzero;fill:rgb(100%,84.3%,0%);fill-opacity:1;" d="M 59.820312 304.648438 C 59.820312 308.90625 53.433594 308.90625 53.433594 304.648438 C 53.433594 300.390625 59.820312 300.390625 59.820312 304.648438 "/>
<path style=" stroke:none;fill-rule:nonzero;fill:rgb(100%,84.3%,0%);fill-opacity:1;" d="M 64.128906 274.664062 C 64.128906 278.921875 57.742188 278.921875 57.742188 274.664062 C 57.742188 270.40625 64.128906 270.40625 64.128906 274.664062 "/>
<path style=" stroke:none;fill-rule:nonzero;fill:rgb(100%,84.3%,0%);fill-opacity:1;" d="M 134.96875 57.574219 C 134.96875 61.832031 128.582031 61.832031 128.582031 57.574219 C 128.582031 53.316406 134.96875 53.316406 134.96875 57.574219 "/>
<path style=" stroke:none;fill-rule:nonzero;fill:rgb(100%,84.3%,0%);fill-opacity:1;" d="M 88.765625 444.226562 C 88.765625 448.484375 82.378906 448.484375 82.378906 444.226562 C 82.378906 439.96875 88.765625 439.96875 88.765625 444.226562 "/>
<path style=" stroke:none;fill-rule:nonzero;fill:rgb(100%,84.3%,0%);fill-opacity:1;" d="M 57.445312 318.859375 C 57.445312 323.121094 51.054688 323.121094 51.054688 318.859375 C 51.054688 314.601562 57.445312 314.601562 57.445312 318.859375 "/>
<path style=" stroke:none;fill-rule:nonzero;fill:rgb(100%,84.3%,0%);fill-opacity:1;" d="M 224.316406 59.457031 C 224.316406 63.714844 217.929688 63.714844 217.929688 59.457031 C 217.929688 55.199219 224.316406 55.199219 224.316406 59.457031 "/>
<path style=" stroke:none;fill-rule:nonzero;fill:rgb(100%,84.3%,0%);fill-opacity:1;" d="M 65.421875 264.152344 C 65.421875 268.410156 59.035156 268.410156 59.035156 264.152344 C 59.035156 259.894531 65.421875 259.894531 65.421875 264.152344 "/>
<path style=" stroke:none;fill-rule:nonzero;fill:rgb(100%,84.3%,0%);fill-opacity:1;" d="M 53.558594 342.808594 C 53.558594 347.066406 47.171875 347.066406 47.171875 342.808594 C 47.171875 338.550781 53.558594 338.550781 53.558594 342.808594 "/>
<path style=" stroke:none;fill-rule:nonzero;fill:rgb(100%,84.3%,0%);fill-opacity:1;" d="M 260.839844 60.019531 C 260.839844 64.277344 254.453125 64.277344 254.453125 60.019531 C 254.453125 55.761719 260.839844 55.761719 260.839844 60.019531 "/>
<path style=" stroke:none;fill-rule:nonzero;fill:rgb(100%,84.3%,0%);fill-opacity:1;" d="M 355.53125 54.726562 C 355.53125 58.984375 349.140625 58.984375 349.140625 54.726562 C 349.140625 50.46875 355.53125 50.46875 355.53125 54.726562 "/>
<path style=" stroke:none;fill-rule:nonzero;fill:rgb(100%,84.3%,0%);fill-opacity:1;" d="M 51.179688 357.019531 C 51.179688 361.277344 44.792969 361.277344 44.792969 357.019531 C 44.792969 352.761719 51.179688 352.761719 51.179688 357.019531 "/>
<path style=" stroke:none;fill-rule:nonzero;fill:rgb(100%,84.3%,0%);fill-opacity:1;" d="M 443.117188 155.90625 C 443.117188 160.167969 436.730469 160.167969 436.730469 155.90625 C 436.730469 151.648438 443.117188 151.648438 443.117188 155.90625 "/>
<path style=" stroke:none;fill-rule:nonzero;fill:rgb(100%,84.3%,0%);fill-opacity:1;" d="M 425.789062 132.554688 C 425.789062 136.8125 419.402344 136.8125 419.402344 132.554688 C 419.402344 128.296875 425.789062 128.296875 425.789062 132.554688 "/>
<path style=" stroke:none;fill-rule:nonzero;fill:rgb(100%,84.3%,0%);fill-opacity:1;" d="M 54.160156 265.910156 C 54.160156 270.167969 47.773438 270.167969 47.773438 265.910156 C 47.773438 261.652344 54.160156 261.652344 54.160156 265.910156 "/>
<path style=" stroke:none;fill-rule:nonzero;fill:rgb(100%,84.3%,0%);fill-opacity:1;" d="M 63.0625 131.777344 C 63.0625 136.035156 56.675781 136.035156 56.675781 131.777344 C 56.675781 127.519531 63.0625 127.519531 63.0625 131.777344 "/>
<path style=" stroke:none;fill-rule:nonzero;fill:rgb(100%,84.3%,0%);fill-opacity:1;" d="M 58.472656 235.925781 C 58.472656 240.183594 52.085938 240.183594 52.085938 235.925781 C 52.085938 231.667969 58.472656 231.667969 58.472656 235.925781 "/>
<path style=" stroke:none;fill-rule:nonzero;fill:rgb(100%,84.3%,0%);fill-opacity:1;" d="M 50.355469 68.320312 C 50.355469 72.582031 43.964844 72.582031 43.964844 68.320312 C 43.964844 64.0625 50.355469 64.0625 50.355469 68.320312 "/>
<path style=" stroke:none;fill-rule:nonzero;fill:rgb(100%,84.3%,0%);fill-opacity:1;" d="M 55.511719 180.449219 C 55.511719 184.707031 49.125 184.707031 49.125 180.449219 C 49.125 176.191406 55.511719 176.191406 55.511719 180.449219 "/>
<path style=" stroke:none;fill-rule:nonzero;fill:rgb(100%,84.3%,0%);fill-opacity:1;" d="M 63.328125 50.015625 C 63.328125 54.273438 56.941406 54.273438 56.941406 50.015625 C 56.941406 45.757812 63.328125 45.757812 63.328125 50.015625 "/>
<path style=" stroke:none;fill-rule:nonzero;fill:rgb(100%,84.3%,0%);fill-opacity:1;" d="M 60.625 220.933594 C 60.625 225.191406 54.238281 225.191406 54.238281 220.933594 C 54.238281 216.675781 60.625 216.675781 60.625 220.933594 "/>
<path style=" stroke:none;fill-rule:nonzero;fill:rgb(100%,84.3%,0%);fill-opacity:1;" d="M 412.417969 220.945312 C 412.417969 225.207031 406.03125 225.207031 406.03125 220.945312 C 406.03125 216.6875 412.417969 216.6875 412.417969 220.945312 "/>
<path style=" stroke:none;fill-rule:nonzero;fill:rgb(100%,84.3%,0%);fill-opacity:1;" d="M 58.3125 160.199219 C 58.3125 164.460938 51.925781 164.460938 51.925781 160.199219 C 51.925781 155.941406 58.3125 155.941406 58.3125 160.199219 "/>
<path style=" stroke:none;fill-rule:nonzero;fill:rgb(100%,84.3%,0%);fill-opacity:1;" d="M 248.242188 49.511719 C 248.242188 53.769531 241.855469 53.769531 241.855469 49.511719 C 241.855469 45.253906 248.242188 45.253906 248.242188 49.511719 "/>
<path style=" stroke:none;fill-rule:nonzero;fill:rgb(100%,84.3%,0%);fill-opacity:1;" d="M 205.675781 87.886719 C 205.675781 92.144531 199.289062 92.144531 199.289062 87.886719 C 199.289062 83.628906 205.675781 83.628906 205.675781 87.886719 "/>
<path style=" stroke:none;fill-rule:nonzero;fill:rgb(100%,84.3%,0%);fill-opacity:1;" d="M 123.710938 59.328125 C 123.710938 63.589844 117.324219 63.589844 117.324219 59.328125 C 117.324219 55.070312 123.710938 55.070312 123.710938 59.328125 "/>
<path style=" stroke:none;fill-rule:nonzero;fill:rgb(100%,84.3%,0%);fill-opacity:1;" d="M 432.414062 317.695312 C 432.414062 321.953125 426.027344 321.953125 426.027344 317.695312 C 426.027344 313.4375 432.414062 313.4375 432.414062 317.695312 "/>
<path style=" stroke:none;fill-rule:nonzero;fill:rgb(100%,84.3%,0%);fill-opacity:1;" d="M 66.738281 317.6875 C 66.738281 321.945312 60.347656 321.945312 60.347656 317.6875 C 60.347656 313.429688 66.738281 313.429688 66.738281 317.6875 "/>
<path style=" stroke:none;fill-rule:nonzero;fill:rgb(100%,84.3%,0%);fill-opacity:1;" d="M 86.816406 452.402344 C 86.816406 456.660156 80.425781 456.660156 80.425781 452.402344 C 80.425781 448.144531 86.816406 448.144531 86.816406 452.402344 "/>
<path style=" stroke:none;fill-rule:nonzero;fill:rgb(100%,84.3%,0%);fill-opacity:1;" d="M 51.421875 57.03125 C 51.421875 61.289062 45.035156 61.289062 45.035156 57.03125 C 45.035156 52.773438 51.421875 52.773438 51.421875 57.03125 "/>
<path style=" stroke:none;fill-rule:nonzero;fill:rgb(100%,84.3%,0%);fill-opacity:1;" d="M 149.351562 446.726562 C 149.351562 450.984375 142.964844 450.984375 142.964844 446.726562 C 142.964844 442.46875 149.351562 442.46875 149.351562 446.726562 "/>
<path style=" stroke:none;fill-rule:nonzero;fill:rgb(100%,84.3%,0%);fill-opacity:1;" d="M 443.078125 344.183594 C 443.078125 348.441406 436.691406 348.441406 436.691406 344.183594 C 436.691406 339.925781 443.078125 339.925781 443.078125 344.183594 "/>
<path style=" stroke:none;fill-rule:nonzero;fill:rgb(100%,84.3%,0%);fill-opacity:1;" d="M 51.386719 350.207031 C 51.386719 354.464844 45 354.464844 45 350.207031 C 45 345.949219 51.386719 345.949219 51.386719 350.207031 "/>
<path style=" stroke:none;fill-rule:nonzero;fill:rgb(100%,84.3%,0%);fill-opacity:1;" d="M 346.203125 454.605469 C 346.203125 458.863281 339.816406 458.863281 339.816406 454.605469 C 339.816406 450.347656 346.203125 450.347656 346.203125 454.605469 "/>
<path style=" stroke:none;fill-rule:nonzero;fill:rgb(100%,84.3%,0%);fill-opacity:1;" d="M 443.253906 273.320312 C 443.253906 277.578125 436.867188 277.578125 436.867188 273.320312 C 436.867188 269.0625 443.253906 269.0625 443.253906 273.320312 "/>
<path style=" stroke:none;fill-rule:nonzero;fill:rgb(100%,84.3%,0%);fill-opacity:1;" d="M 54.539062 83.121094 C 54.539062 87.378906 48.152344 87.378906 48.152344 83.121094 C 48.152344 78.863281 54.539062 78.863281 54.539062 83.121094 "/>
<path style=" stroke:none;fill-rule:nonzero;fill:rgb(100%,84.3%,0%);fill-opacity:1;" d="M 426.902344 192.90625 C 426.902344 197.164062 420.511719 197.164062 420.511719 192.90625 C 420.511719 188.648438 426.902344 188.648438 426.902344 192.90625 "/>
<path style=" stroke:none;fill-rule:nonzero;fill:rgb(100%,84.3%,0%);fill-opacity:1;" d="M 53.339844 187.847656 C 53.339844 192.105469 46.953125 192.105469 46.953125 187.847656 C 46.953125 183.589844 53.339844 183.589844 53.339844 187.847656 "/>
<path style=" stroke:none;fill-rule:nonzero;fill:rgb(100%,84.3%,0%);fill-opacity:1;" d="M 343.183594 60.183594 C 343.183594 64.441406 336.796875 64.441406 336.796875 60.183594 C 336.796875 55.925781 343.183594 55.925781 343.183594 60.183594 "/>
<path style=" stroke:none;fill-rule:nonzero;fill:rgb(100%,84.3%,0%);fill-opacity:1;" d="M 420.394531 166.238281 C 420.394531 170.496094 414.003906 170.496094 414.003906 166.238281 C 414.003906 161.980469 420.394531 161.980469 420.394531 166.238281 "/>
<path style=" stroke:none;fill-rule:nonzero;fill:rgb(100%,84.3%,0%);fill-opacity:1;" d="M 393.757812 136.464844 C 393.757812 140.722656 387.371094 140.722656 387.371094 136.464844 C 387.371094 132.207031 393.757812 132.207031 393.757812 136.464844 "/>
<path style=" stroke:none;fill-rule:nonzero;fill:rgb(100%,84.3%,0%);fill-opacity:1;" d="M 417.839844 251.3125 C 417.839844 255.570312 411.453125 255.570312 411.453125 251.3125 C 411.453125 247.054688 417.839844 247.054688 417.839844 251.3125 "/>
<path style=" stroke:none;fill-rule:nonzero;fill:rgb(100%,84.3%,0%);fill-opacity:1;" d="M 442.679688 414.269531 C 442.679688 418.527344 436.292969 418.527344 436.292969 414.269531 C 436.292969 410.011719 442.679688 410.011719 442.679688 414.269531 "/>
<path style=" stroke:none;fill-rule:nonzero;fill:rgb(100%,84.3%,0%);fill-opacity:1;" d="M 405.6875 193.5 C 405.6875 197.757812 399.300781 197.757812 399.300781 193.5 C 399.300781 189.242188 405.6875 189.242188 405.6875 193.5 "/>
<path style=" stroke:none;fill-rule:nonzero;fill:rgb(100%,84.3%,0%);fill-opacity:1;" d="M 106.0625 452.394531 C 106.0625 456.652344 99.671875 456.652344 99.671875 452.394531 C 99.671875 448.136719 106.0625 448.136719 106.0625 452.394531 "/>
<path style=" stroke:none;fill-rule:nonzero;fill:rgb(100%,84.3%,0%);fill-opacity:1;" d="M 392.027344 145.421875 C 392.027344 149.679688 385.636719 149.679688 385.636719 145.421875 C 385.636719 141.160156 392.027344 141.160156 392.027344 145.421875 "/>
<path style=" stroke:none;fill-rule:nonzero;fill:rgb(100%,84.3%,0%);fill-opacity:1;" d="M 50.964844 461.769531 C 50.964844 466.027344 44.578125 466.027344 44.578125 461.769531 C 44.578125 457.511719 50.964844 457.511719 50.964844 461.769531 "/>
<path style=" stroke:none;fill-rule:nonzero;fill:rgb(100%,84.3%,0%);fill-opacity:1;" d="M 395.691406 120.695312 C 395.691406 124.953125 389.304688 124.953125 389.304688 120.695312 C 389.304688 116.4375 395.691406 116.4375 395.691406 120.695312 "/>
<path style=" stroke:none;fill-rule:nonzero;fill:rgb(100%,84.3%,0%);fill-opacity:1;" d="M 215.683594 63.179688 C 215.683594 67.4375 209.296875 67.4375 209.296875 63.179688 C 209.296875 58.917969 215.683594 58.917969 215.683594 63.179688 "/>
<path style=" stroke:none;fill-rule:nonzero;fill:rgb(100%,84.3%,0%);fill-opacity:1;" d="M 116.660156 448.300781 C 116.660156 452.558594 110.269531 452.558594 110.269531 448.300781 C 110.269531 444.039062 116.660156 444.039062 116.660156 448.300781 "/>
<path style=" stroke:none;fill-rule:nonzero;fill:rgb(100%,84.3%,0%);fill-opacity:1;" d="M 63.273438 335.597656 C 63.273438 339.855469 56.886719 339.855469 56.886719 335.597656 C 56.886719 331.339844 63.273438 331.339844 63.273438 335.597656 "/>
<path style=" stroke:none;fill-rule:nonzero;fill:rgb(100%,84.3%,0%);fill-opacity:1;" d="M 417.796875 179.671875 C 417.796875 183.929688 411.410156 183.929688 411.410156 179.671875 C 411.410156 175.414062 417.796875 175.414062 417.796875 179.671875 "/>
<path style=" stroke:none;fill-rule:nonzero;fill:rgb(100%,84.3%,0%);fill-opacity:1;" d="M 114.285156 462.511719 C 114.285156 466.769531 107.894531 466.769531 107.894531 462.511719 C 107.894531 458.253906 114.285156 458.253906 114.285156 462.511719 "/>
<path style=" stroke:none;fill-rule:nonzero;fill:rgb(100%,84.3%,0%);fill-opacity:1;" d="M 421.367188 109.59375 C 421.367188 113.851562 414.980469 113.851562 414.980469 109.59375 C 414.980469 105.335938 421.367188 105.335938 421.367188 109.59375 "/>
<path style=" stroke:none;fill-rule:nonzero;fill:rgb(100%,84.3%,0%);fill-opacity:1;" d="M 408.269531 172.472656 C 408.269531 176.730469 401.878906 176.730469 401.878906 172.472656 C 401.878906 168.214844 408.269531 168.214844 408.269531 172.472656 "/>
<path style=" stroke:none;fill-rule:nonzero;fill:rgb(100%,84.3%,0%);fill-opacity:1;" d="M 62.121094 203.605469 C 62.121094 207.863281 55.734375 207.863281 55.734375 203.605469 C 55.734375 199.347656 62.121094 199.347656 62.121094 203.605469 "/>
<path style=" stroke:none;fill-rule:nonzero;fill:rgb(100%,84.3%,0%);fill-opacity:1;" d="M 410.421875 157.480469 C 410.421875 161.738281 404.035156 161.738281 404.035156 157.480469 C 404.035156 153.222656 410.421875 153.222656 410.421875 157.480469 "/>
<path style=" stroke:none;fill-rule:nonzero;fill:rgb(100%,84.3%,0%);fill-opacity:1;" d="M 53.75 174.21875 C 53.75 178.476562 47.363281 178.476562 47.363281 174.21875 C 47.363281 169.960938 53.75 169.960938 53.75 174.21875 "/>
<path style=" stroke:none;fill-rule:nonzero;fill:rgb(100%,84.3%,0%);fill-opacity:1;" d="M 428.574219 104.714844 C 428.574219 108.972656 422.1875 108.972656 422.1875 104.714844 C 422.1875 100.453125 428.574219 100.453125 428.574219 104.714844 "/>
<path style=" stroke:none;fill-rule:nonzero;fill:rgb(100%,84.3%,0%);fill-opacity:1;" d="M 50.523438 200.503906 C 50.523438 204.761719 44.136719 204.761719 44.136719 200.503906 C 44.136719 196.246094 50.523438 196.246094 50.523438 200.503906 "/>
<path style=" stroke:none;fill-rule:nonzero;fill:rgb(100%,84.3%,0%);fill-opacity:1;" d="M 50.726562 193.6875 C 50.726562 197.945312 44.339844 197.945312 44.339844 193.6875 C 44.339844 189.429688 50.726562 189.429688 50.726562 193.6875 "/>
<path style=" stroke:none;fill-rule:nonzero;fill:rgb(100%,84.3%,0%);fill-opacity:1;" d="M 65.992188 431.773438 C 65.992188 436.03125 59.605469 436.03125 59.605469 431.773438 C 59.605469 427.515625 65.992188 427.515625 65.992188 431.773438 "/>
<path style=" stroke:none;fill-rule:nonzero;fill:rgb(100%,84.3%,0%);fill-opacity:1;" d="M 51.652344 114.265625 C 51.652344 118.523438 45.265625 118.523438 45.265625 114.265625 C 45.265625 110.007812 51.652344 110.007812 51.652344 114.265625 "/>
<path style=" stroke:none;fill-rule:nonzero;fill:rgb(100%,84.3%,0%);fill-opacity:1;" d="M 368.691406 435.902344 C 368.691406 440.160156 362.304688 440.160156 362.304688 435.902344 C 362.304688 431.644531 368.691406 431.644531 368.691406 435.902344 "/>
<path style=" stroke:none;fill-rule:nonzero;fill:rgb(100%,84.3%,0%);fill-opacity:1;" d="M 176.160156 454.496094 C 176.160156 458.757812 169.773438 458.757812 169.773438 454.496094 C 169.773438 450.238281 176.160156 450.238281 176.160156 454.496094 "/>
<path style=" stroke:none;fill-rule:nonzero;fill:rgb(100%,84.3%,0%);fill-opacity:1;" d="M 422.355469 214.515625 C 422.355469 218.773438 415.964844 218.773438 415.964844 214.515625 C 415.964844 210.257812 422.355469 210.257812 422.355469 214.515625 "/>
<path style=" stroke:none;fill-rule:nonzero;fill:rgb(100%,84.3%,0%);fill-opacity:1;" d="M 402.871094 206.15625 C 402.871094 210.414062 396.484375 210.414062 396.484375 206.15625 C 396.484375 201.898438 402.871094 201.898438 402.871094 206.15625 "/>
<path style=" stroke:none;fill-rule:nonzero;fill:rgb(100%,84.3%,0%);fill-opacity:1;" d="M 312.324219 49.285156 C 312.324219 53.546875 305.933594 53.546875 305.933594 49.285156 C 305.933594 45.027344 312.324219 45.027344 312.324219 49.285156 "/>
<path style=" stroke:none;fill-rule:nonzero;fill:rgb(100%,84.3%,0%);fill-opacity:1;" d="M 60.390625 212.5625 C 60.390625 216.820312 54.003906 216.820312 54.003906 212.5625 C 54.003906 208.304688 60.390625 208.304688 60.390625 212.5625 "/>
<path style=" stroke:none;fill-rule:nonzero;fill:rgb(100%,84.3%,0%);fill-opacity:1;" d="M 79.035156 135.269531 C 79.035156 139.527344 72.648438 139.527344 72.648438 135.269531 C 72.648438 131.011719 79.035156 131.011719 79.035156 135.269531 "/>
<path style=" stroke:none;fill-rule:nonzero;fill:rgb(100%,84.3%,0%);fill-opacity:1;" d="M 393.34375 198.957031 C 393.34375 203.214844 386.957031 203.214844 386.957031 198.957031 C 386.957031 194.699219 393.34375 194.699219 393.34375 198.957031 "/>
<path style=" stroke:none;fill-rule:nonzero;fill:rgb(100%,84.3%,0%);fill-opacity:1;" d="M 60.917969 462.933594 C 60.917969 467.191406 54.53125 467.191406 54.53125 462.933594 C 54.53125 458.675781 60.917969 458.675781 60.917969 462.933594 "/>
<path style=" stroke:none;fill-rule:nonzero;fill:rgb(100%,84.3%,0%);fill-opacity:1;" d="M 52.367188 90.519531 C 52.367188 94.777344 45.980469 94.777344 45.980469 90.519531 C 45.980469 86.261719 52.367188 86.261719 52.367188 90.519531 "/>
<path style=" stroke:none;fill-rule:nonzero;fill:rgb(100%,84.3%,0%);fill-opacity:1;" d="M 64.523438 253.441406 C 64.523438 257.699219 58.136719 257.699219 58.136719 253.441406 C 58.136719 249.183594 64.523438 249.183594 64.523438 253.441406 "/>
<path style=" stroke:none;fill-rule:nonzero;fill:rgb(100%,84.3%,0%);fill-opacity:1;" d="M 424.289062 198.746094 C 424.289062 203.003906 417.902344 203.003906 417.902344 198.746094 C 417.902344 194.488281 424.289062 194.488281 424.289062 198.746094 "/>
<path style=" stroke:none;fill-rule:nonzero;fill:rgb(100%,84.3%,0%);fill-opacity:1;" d="M 74.046875 155.320312 C 74.046875 159.582031 67.660156 159.582031 67.660156 155.320312 C 67.660156 151.0625 74.046875 151.0625 74.046875 155.320312 "/>
<path style=" stroke:none;fill-rule:nonzero;fill:rgb(100%,84.3%,0%);fill-opacity:1;" d="M 433.597656 205.164062 C 433.597656 209.425781 427.210938 209.425781 427.210938 205.164062 C 427.210938 200.90625 433.597656 200.90625 433.597656 205.164062 "/>
<path style=" stroke:none;fill-rule:nonzero;fill:rgb(100%,84.3%,0%);fill-opacity:1;" d="M 69.300781 289.066406 C 69.300781 293.324219 62.914062 293.324219 62.914062 289.066406 C 62.914062 284.808594 69.300781 284.808594 69.300781 289.066406 "/>
<path style=" stroke:none;fill-rule:nonzero;fill:rgb(100%,84.3%,0%);fill-opacity:1;" d="M 81.335938 448.117188 C 81.335938 452.378906 74.949219 452.378906 74.949219 448.117188 C 74.949219 443.859375 81.335938 443.859375 81.335938 448.117188 "/>
<path style=" stroke:none;fill-rule:nonzero;fill:rgb(100%,84.3%,0%);fill-opacity:1;" d="M 61.441406 88.355469 C 61.441406 92.613281 55.054688 92.613281 55.054688 88.355469 C 55.054688 84.097656 61.441406 84.097656 61.441406 88.355469 "/>
<path style=" stroke:none;fill-rule:nonzero;fill:rgb(100%,84.3%,0%);fill-opacity:1;" d="M 429.875 410.367188 C 429.875 414.625 423.488281 414.625 423.488281 410.367188 C 423.488281 406.109375 429.875 406.109375 429.875 410.367188 "/>
<path style=" stroke:none;fill-rule:nonzero;fill:rgb(100%,84.3%,0%);fill-opacity:1;" d="M 69.664062 98.476562 C 69.664062 102.734375 63.273438 102.734375 63.273438 98.476562 C 63.273438 94.21875 69.664062 94.21875 69.664062 98.476562 "/>
<path style=" stroke:none;fill-rule:nonzero;fill:rgb(100%,84.3%,0%);fill-opacity:1;" d="M 65.378906 192.507812 C 65.378906 196.765625 58.992188 196.765625 58.992188 192.507812 C 58.992188 188.25 65.378906 188.25 65.378906 192.507812 "/>
<path style=" stroke:none;fill-rule:nonzero;fill:rgb(100%,84.3%,0%);fill-opacity:1;" d="M 91.902344 428.839844 C 91.902344 433.097656 85.515625 433.097656 85.515625 428.839844 C 85.515625 424.578125 91.902344 424.578125 91.902344 428.839844 "/>
<path style=" stroke:none;fill-rule:nonzero;fill:rgb(100%,84.3%,0%);fill-opacity:1;" d="M 237.96875 51.289062 C 237.96875 55.550781 231.582031 55.550781 231.582031 51.289062 C 231.582031 47.03125 237.96875 47.03125 237.96875 51.289062 "/>
<path style=" stroke:none;fill-rule:nonzero;fill:rgb(100%,84.3%,0%);fill-opacity:1;" d="M 430.445312 213.171875 C 430.445312 217.429688 424.054688 217.429688 424.054688 213.171875 C 424.054688 208.910156 430.445312 208.910156 430.445312 213.171875 "/>
<path style=" stroke:none;fill-rule:nonzero;fill:rgb(100%,84.3%,0%);fill-opacity:1;" d="M 62.246094 418.535156 C 62.246094 422.792969 55.859375 422.792969 55.859375 418.535156 C 55.859375 414.277344 62.246094 414.277344 62.246094 418.535156 "/>
<path style=" stroke:none;fill-rule:nonzero;fill:rgb(100%,84.3%,0%);fill-opacity:1;" d="M 96.242188 462.90625 C 96.242188 467.164062 89.851562 467.164062 89.851562 462.90625 C 89.851562 458.648438 96.242188 458.648438 96.242188 462.90625 "/>
<path style=" stroke:none;fill-rule:nonzero;fill:rgb(100%,84.3%,0%);fill-opacity:1;" d="M 61.105469 342.996094 C 61.105469 347.253906 54.714844 347.253906 54.714844 342.996094 C 54.714844 338.738281 61.105469 338.738281 61.105469 342.996094 "/>
<path style=" stroke:none;fill-rule:nonzero;fill:rgb(100%,84.3%,0%);fill-opacity:1;" d="M 250.886719 58.859375 C 250.886719 63.117188 244.5 63.117188 244.5 58.859375 C 244.5 54.601562 250.886719 54.601562 250.886719 58.859375 "/>
<path style=" stroke:none;fill-rule:nonzero;fill:rgb(100%,84.3%,0%);fill-opacity:1;" d="M 404.117188 123.996094 C 404.117188 128.257812 397.730469 128.257812 397.730469 123.996094 C 397.730469 119.738281 404.117188 119.738281 404.117188 123.996094 "/>
<path style=" stroke:none;fill-rule:nonzero;fill:rgb(100%,84.3%,0%);fill-opacity:1;" d="M 417.382812 242.164062 C 417.382812 246.421875 410.996094 246.421875 410.996094 242.164062 C 410.996094 237.90625 417.382812 237.90625 417.382812 242.164062 "/>
<path style=" stroke:none;fill-rule:nonzero;fill:rgb(100%,84.3%,0%);fill-opacity:1;" d="M 413.894531 196.027344 C 413.894531 200.285156 407.507812 200.285156 407.507812 196.027344 C 407.507812 191.769531 413.894531 191.769531 413.894531 196.027344 "/>
<path style=" stroke:none;fill-rule:nonzero;fill:rgb(100%,84.3%,0%);fill-opacity:1;" d="M 404.1875 259.691406 C 404.1875 263.949219 397.800781 263.949219 397.800781 259.691406 C 397.800781 255.433594 404.1875 255.433594 404.1875 259.691406 "/>
<path style=" stroke:none;fill-rule:nonzero;fill:rgb(100%,84.3%,0%);fill-opacity:1;" d="M 313.289062 455.398438 C 313.289062 459.65625 306.902344 459.65625 306.902344 455.398438 C 306.902344 451.140625 313.289062 451.140625 313.289062 455.398438 "/>
<path style=" stroke:none;fill-rule:nonzero;fill:rgb(100%,84.3%,0%);fill-opacity:1;" d="M 292.296875 456.769531 C 292.296875 461.027344 285.910156 461.027344 285.910156 456.769531 C 285.910156 452.511719 292.296875 452.511719 292.296875 456.769531 "/>
<path style=" stroke:none;fill-rule:nonzero;fill:rgb(100%,84.3%,0%);fill-opacity:1;" d="M 59.371094 351.953125 C 59.371094 356.210938 52.984375 356.210938 52.984375 351.953125 C 52.984375 347.695312 59.371094 347.695312 59.371094 351.953125 "/>
<path style=" stroke:none;fill-rule:nonzero;fill:rgb(100%,84.3%,0%);fill-opacity:1;" d="M 121.542969 431.546875 C 121.542969 435.804688 115.15625 435.804688 115.15625 431.546875 C 115.15625 427.289062 121.542969 427.289062 121.542969 431.546875 "/>
<path style=" stroke:none;fill-rule:nonzero;fill:rgb(100%,84.3%,0%);fill-opacity:1;" d="M 52.398438 259.679688 C 52.398438 263.9375 46.011719 263.9375 46.011719 259.679688 C 46.011719 255.417969 52.398438 255.417969 52.398438 259.679688 "/>
<path style=" stroke:none;fill-rule:nonzero;fill:rgb(100%,84.3%,0%);fill-opacity:1;" d="M 110.71875 70.042969 C 110.71875 74.300781 104.332031 74.300781 104.332031 70.042969 C 104.332031 65.785156 110.71875 65.785156 110.71875 70.042969 "/>
<path style=" stroke:none;fill-rule:nonzero;fill:rgb(100%,84.3%,0%);fill-opacity:1;" d="M 64.972656 311.457031 C 64.972656 315.714844 58.585938 315.714844 58.585938 311.457031 C 58.585938 307.199219 64.972656 307.199219 64.972656 311.457031 "/>
<path style=" stroke:none;fill-rule:nonzero;fill:rgb(100%,84.3%,0%);fill-opacity:1;" d="M 302.675781 451.898438 C 302.675781 456.15625 296.289062 456.15625 296.289062 451.898438 C 296.289062 447.640625 302.675781 447.640625 302.675781 451.898438 "/>
<path style=" stroke:none;fill-rule:nonzero;fill:rgb(100%,84.3%,0%);fill-opacity:1;" d="M 413.207031 129.640625 C 413.207031 133.898438 406.820312 133.898438 406.820312 129.640625 C 406.820312 125.378906 413.207031 125.378906 413.207031 129.640625 "/>
<path style=" stroke:none;fill-rule:nonzero;fill:rgb(100%,84.3%,0%);fill-opacity:1;" d="M 55.265625 375.121094 C 55.265625 379.378906 48.878906 379.378906 48.878906 375.121094 C 48.878906 370.863281 55.265625 370.863281 55.265625 375.121094 "/>
<path style=" stroke:none;fill-rule:nonzero;fill:rgb(100%,84.3%,0%);fill-opacity:1;" d="M 66.261719 300.941406 C 66.261719 305.199219 59.875 305.199219 59.875 300.941406 C 59.875 296.683594 66.261719 296.683594 66.261719 300.941406 "/>
<path style=" stroke:none;fill-rule:nonzero;fill:rgb(100%,84.3%,0%);fill-opacity:1;" d="M 76.359375 110.734375 C 76.359375 114.996094 69.972656 114.996094 69.972656 110.734375 C 69.972656 106.476562 76.359375 106.476562 76.359375 110.734375 "/>
<path style=" stroke:none;fill-rule:nonzero;fill:rgb(100%,84.3%,0%);fill-opacity:1;" d="M 190.589844 452.539062 C 190.589844 456.796875 184.203125 456.796875 184.203125 452.539062 C 184.203125 448.28125 190.589844 448.28125 190.589844 452.539062 "/>
<path style=" stroke:none;fill-rule:nonzero;fill:rgb(100%,84.3%,0%);fill-opacity:1;" d="M 162.660156 68.460938 C 162.660156 72.71875 156.273438 72.71875 156.273438 68.460938 C 156.273438 64.203125 162.660156 64.203125 162.660156 68.460938 "/>
<path style=" stroke:none;fill-rule:nonzero;fill:rgb(100%,84.3%,0%);fill-opacity:1;" d="M 119.128906 65.546875 C 119.128906 69.804688 112.742188 69.804688 112.742188 65.546875 C 112.742188 61.285156 119.128906 61.285156 119.128906 65.546875 "/>
<path style=" stroke:none;fill-rule:nonzero;fill:rgb(100%,84.3%,0%);fill-opacity:1;" d="M 399.835938 218.03125 C 399.835938 222.289062 393.449219 222.289062 393.449219 218.03125 C 393.449219 213.773438 399.835938 213.773438 399.835938 218.03125 "/>
<path style=" stroke:none;fill-rule:nonzero;fill:rgb(100%,84.3%,0%);fill-opacity:1;" d="M 201.191406 448.445312 C 201.191406 452.703125 194.800781 452.703125 194.800781 448.445312 C 194.800781 444.1875 201.191406 444.1875 201.191406 448.445312 "/>
<path style=" stroke:none;fill-rule:nonzero;fill:rgb(100%,84.3%,0%);fill-opacity:1;" d="M 261.335938 449.386719 C 261.335938 453.644531 254.949219 453.644531 254.949219 449.386719 C 254.949219 445.128906 261.335938 445.128906 261.335938 449.386719 "/>
<path style=" stroke:none;fill-rule:nonzero;fill:rgb(100%,84.3%,0%);fill-opacity:1;" d="M 421.003906 145.792969 C 421.003906 150.050781 414.617188 150.050781 414.617188 145.792969 C 414.617188 141.535156 421.003906 141.535156 421.003906 145.792969 "/>
<path style=" stroke:none;fill-rule:nonzero;fill:rgb(100%,84.3%,0%);fill-opacity:1;" d="M 437.644531 102.761719 C 437.644531 107.019531 431.257812 107.019531 431.257812 102.761719 C 431.257812 98.503906 437.644531 98.503906 437.644531 102.761719 "/>
<path style=" stroke:none;fill-rule:nonzero;fill:rgb(100%,84.3%,0%);fill-opacity:1;" d="M 279.953125 462.226562 C 279.953125 466.484375 273.566406 466.484375 273.566406 462.226562 C 273.566406 457.96875 279.953125 457.96875 279.953125 462.226562 "/>
<path style=" stroke:none;fill-rule:nonzero;fill:rgb(100%,84.3%,0%);fill-opacity:1;" d="M 269.777344 460.285156 C 269.777344 464.542969 263.390625 464.542969 263.390625 460.285156 C 263.390625 456.027344 269.777344 456.027344 269.777344 460.285156 "/>
<path style=" stroke:none;fill-rule:nonzero;fill:rgb(100%,84.3%,0%);fill-opacity:1;" d="M 313.054688 447.027344 C 313.054688 451.285156 306.667969 451.285156 306.667969 447.027344 C 306.667969 442.769531 313.054688 442.769531 313.054688 447.027344 "/>
<path style=" stroke:none;fill-rule:nonzero;fill:rgb(100%,84.3%,0%);fill-opacity:1;" d="M 418.628906 160.007812 C 418.628906 164.265625 412.242188 164.265625 412.242188 160.007812 C 412.242188 155.75 418.628906 155.75 418.628906 160.007812 "/>
<path style=" stroke:none;fill-rule:nonzero;fill:rgb(100%,84.3%,0%);fill-opacity:1;" d="M 359.816406 66.011719 C 359.816406 70.269531 353.429688 70.269531 353.429688 66.011719 C 353.429688 61.753906 359.816406 61.753906 359.816406 66.011719 "/>
<path style=" stroke:none;fill-rule:nonzero;fill:rgb(100%,84.3%,0%);fill-opacity:1;" d="M 55.46875 368.308594 C 55.46875 372.566406 49.082031 372.566406 49.082031 368.308594 C 49.082031 364.050781 55.46875 364.050781 55.46875 368.308594 "/>
<path style=" stroke:none;fill-rule:nonzero;fill:rgb(100%,84.3%,0%);fill-opacity:1;" d="M 54.734375 433.53125 C 54.734375 437.789062 48.347656 437.789062 48.347656 433.53125 C 48.347656 429.273438 54.734375 429.273438 54.734375 433.53125 "/>
<path style=" stroke:none;fill-rule:nonzero;fill:rgb(100%,84.3%,0%);fill-opacity:1;" d="M 172.613281 69.621094 C 172.613281 73.882812 166.226562 73.882812 166.226562 69.621094 C 166.226562 65.363281 172.613281 65.363281 172.613281 69.621094 "/>
<path style=" stroke:none;fill-rule:nonzero;fill:rgb(100%,84.3%,0%);fill-opacity:1;" d="M 409.964844 148.328125 C 409.964844 152.589844 403.578125 152.589844 403.578125 148.328125 C 403.578125 144.070312 409.964844 144.070312 409.964844 148.328125 "/>
<path style=" stroke:none;fill-rule:nonzero;fill:rgb(100%,84.3%,0%);fill-opacity:1;" d="M 407.414062 233.40625 C 407.414062 237.664062 401.023438 237.664062 401.023438 233.40625 C 401.023438 229.148438 407.414062 229.148438 407.414062 233.40625 "/>
<path style=" stroke:none;fill-rule:nonzero;fill:rgb(100%,84.3%,0%);fill-opacity:1;" d="M 420.855469 280.707031 C 420.855469 284.964844 414.464844 284.964844 414.464844 280.707031 C 414.464844 276.449219 420.855469 276.449219 420.855469 280.707031 "/>
<path style=" stroke:none;fill-rule:nonzero;fill:rgb(100%,84.3%,0%);fill-opacity:1;" d="M 271.714844 444.515625 C 271.714844 448.773438 265.328125 448.773438 265.328125 444.515625 C 265.328125 440.257812 271.714844 440.257812 271.714844 444.515625 "/>
<path style=" stroke:none;fill-rule:nonzero;fill:rgb(100%,84.3%,0%);fill-opacity:1;" d="M 418.875 224.835938 C 418.875 229.09375 412.488281 229.09375 412.488281 224.835938 C 412.488281 220.578125 418.875 220.578125 418.875 224.835938 "/>
<path style=" stroke:none;fill-rule:nonzero;fill:rgb(100%,84.3%,0%);fill-opacity:1;" d="M 168.070312 456.054688 C 168.070312 460.3125 161.683594 460.3125 161.683594 456.054688 C 161.683594 451.796875 168.070312 451.796875 168.070312 456.054688 "/>
<path style=" stroke:none;fill-rule:nonzero;fill:rgb(100%,84.3%,0%);fill-opacity:1;" d="M 416.035156 173.441406 C 416.035156 177.699219 409.644531 177.699219 409.644531 173.441406 C 409.644531 169.183594 416.035156 169.183594 416.035156 173.441406 "/>
<path style=" stroke:none;fill-rule:nonzero;fill:rgb(100%,84.3%,0%);fill-opacity:1;" d="M 70.15625 73.742188 C 70.15625 78 63.769531 78 63.769531 73.742188 C 63.769531 69.484375 70.15625 69.484375 70.15625 73.742188 "/>
<path style=" stroke:none;fill-rule:nonzero;fill:rgb(100%,84.3%,0%);fill-opacity:1;" d="M 440.207031 228.742188 C 440.207031 233 433.820312 233 433.820312 228.742188 C 433.820312 224.484375 440.207031 224.484375 440.207031 228.742188 "/>
<path style=" stroke:none;fill-rule:nonzero;fill:rgb(100%,84.3%,0%);fill-opacity:1;" d="M 222.25 428.375 C 222.25 432.632812 215.863281 432.632812 215.863281 428.375 C 215.863281 424.117188 222.25 424.117188 222.25 428.375 "/>
<path style=" stroke:none;fill-rule:nonzero;fill:rgb(100%,84.3%,0%);fill-opacity:1;" d="M 418.832031 153.191406 C 418.832031 157.449219 412.445312 157.449219 412.445312 153.191406 C 412.445312 148.933594 418.832031 148.933594 418.832031 153.191406 "/>
<path style=" stroke:none;fill-rule:nonzero;fill:rgb(100%,84.3%,0%);fill-opacity:1;" d="M 409.382812 78.640625 C 409.382812 82.898438 402.996094 82.898438 402.996094 78.640625 C 402.996094 74.382812 409.382812 74.382812 409.382812 78.640625 "/>
<path style=" stroke:none;fill-rule:nonzero;fill:rgb(100%,84.3%,0%);fill-opacity:1;" d="M 141.300781 414.398438 C 141.300781 418.65625 134.914062 418.65625 134.914062 414.398438 C 134.914062 410.140625 141.300781 410.140625 141.300781 414.398438 "/>
<path style=" stroke:none;fill-rule:nonzero;fill:rgb(100%,84.3%,0%);fill-opacity:1;" d="M 432.453125 129.628906 C 432.453125 133.886719 426.066406 133.886719 426.066406 129.628906 C 426.066406 125.371094 432.453125 125.371094 432.453125 129.628906 "/>
<path style=" stroke:none;fill-rule:nonzero;fill:rgb(100%,84.3%,0%);fill-opacity:1;" d="M 283.175781 435.945312 C 283.175781 440.203125 276.789062 440.203125 276.789062 435.945312 C 276.789062 431.6875 283.175781 431.6875 283.175781 435.945312 "/>
<path style=" stroke:none;fill-rule:nonzero;fill:rgb(100%,84.3%,0%);fill-opacity:1;" d="M 429.152344 377.867188 C 429.152344 382.125 422.765625 382.125 422.765625 377.867188 C 422.765625 373.609375 429.152344 373.609375 429.152344 377.867188 "/>
<path style=" stroke:none;fill-rule:nonzero;fill:rgb(100%,84.3%,0%);fill-opacity:1;" d="M 280.15625 455.414062 C 280.15625 459.671875 273.769531 459.671875 273.769531 455.414062 C 273.769531 451.15625 280.15625 451.15625 280.15625 455.414062 "/>
<path style=" stroke:none;fill-rule:nonzero;fill:rgb(100%,84.3%,0%);fill-opacity:1;" d="M 443.648438 97.707031 C 443.648438 101.964844 437.261719 101.964844 437.261719 97.707031 C 437.261719 93.449219 443.648438 93.449219 443.648438 97.707031 "/>
<path style=" stroke:none;fill-rule:nonzero;fill:rgb(100%,84.3%,0%);fill-opacity:1;" d="M 423.210938 258.902344 C 423.210938 263.160156 416.824219 263.160156 416.824219 258.902344 C 416.824219 254.644531 423.210938 254.644531 423.210938 258.902344 "/>
<path style=" stroke:none;fill-rule:nonzero;fill:rgb(100%,84.3%,0%);fill-opacity:1;" d="M 392.699219 50.03125 C 392.699219 54.289062 386.3125 54.289062 386.3125 50.03125 C 386.3125 45.773438 392.699219 45.773438 392.699219 50.03125 "/>
<path style=" stroke:none;fill-rule:nonzero;fill:rgb(100%,84.3%,0%);fill-opacity:1;" d="M 239.273438 462.054688 C 239.273438 466.3125 232.886719 466.3125 232.886719 462.054688 C 232.886719 457.796875 239.273438 457.796875 239.273438 462.054688 "/>
<path style=" stroke:none;fill-rule:nonzero;fill:rgb(100%,84.3%,0%);fill-opacity:1;" d="M 432.8125 402.003906 C 432.8125 406.261719 426.421875 406.261719 426.421875 402.003906 C 426.421875 397.742188 432.8125 397.742188 432.8125 402.003906 "/>
<path style=" stroke:none;fill-rule:nonzero;fill:rgb(100%,84.3%,0%);fill-opacity:1;" d="M 185.367188 50.539062 C 185.367188 54.796875 178.980469 54.796875 178.980469 50.539062 C 178.980469 46.28125 185.367188 46.28125 185.367188 50.539062 "/>
<path style=" stroke:none;fill-rule:nonzero;fill:rgb(100%,84.3%,0%);fill-opacity:1;" d="M 436.679688 370.460938 C 436.679688 374.71875 430.292969 374.71875 430.292969 370.460938 C 430.292969 366.203125 436.679688 366.203125 436.679688 370.460938 "/>
<path style=" stroke:none;fill-rule:nonzero;fill:rgb(100%,84.3%,0%);fill-opacity:1;" d="M 418.46875 84.28125 C 418.46875 88.539062 412.082031 88.539062 412.082031 84.28125 C 412.082031 80.023438 418.46875 80.023438 418.46875 84.28125 "/>
<path style=" stroke:none;fill-rule:nonzero;fill:rgb(100%,84.3%,0%);fill-opacity:1;" d="M 219.789062 453.691406 C 219.789062 457.949219 213.402344 457.949219 213.402344 453.691406 C 213.402344 449.433594 219.789062 449.433594 219.789062 453.691406 "/>
</g>
</svg>
