<?xml version="1.0" encoding="UTF-8"?>
<svg xmlns="http://www.w3.org/2000/svg" xmlns:xlink="http://www.w3.org/1999/xlink" width="512pt" height="512pt" viewBox="0 0 512 512" version="1.1">
<g id="surface386">
<path style=" stroke:none;fill-rule:nonzero;fill:rgb(26.7%,26.7%,26.7%);fill-opacity:1;" d="M 0 103.410156 L 512 103.410156 L 512 408.585938 L 0 408.585938 Z M 0 103.410156 "/>
<path style=" stroke:none;fill-rule:nonzero;fill:rgb(19.2%,38.8%,66.7%);fill-opacity:1;" d="M 42.667969 128.84375 L 469.332031 128.84375 L 469.332031 383.15625 L 42.667969 383.15625 Z M 42.667969 128.84375 "/>
<path style=" stroke:none;fill-rule:nonzero;fill:rgb(90.6%,14.9%,14.9%);fill-opacity:1;" d="M 45.679688 413.289062 C 45.679688 417.304688 39.652344 417.304688 39.652344 413.289062 C 39.652344 409.269531 45.679688 409.269531 45.679688 413.289062 "/>
<path style=" stroke:none;fill-rule:nonzero;fill:rgb(90.6%,14.9%,14.9%);fill-opacity:1;" d="M 57.730469 413.289062 C 57.730469 417.304688 51.707031 417.304688 51.707031 413.289062 C 51.707031 409.269531 57.730469 409.269531 57.730469 413.289062 "/>
<path style=" stroke:none;fill-rule:nonzero;fill:rgb(90.6%,14.9%,14.9%);fill-opacity:1;" d="M 69.785156 413.289062 C 69.785156 417.304688 63.757812 417.304688 63.757812 413.289062 C 63.757812 409.269531 69.785156 409.269531 69.785156 413.289062 "/>
<path style=" stroke:none;fill-rule:nonzero;fill:rgb(90.6%,14.9%,14.9%);fill-opacity:1;" d="M 81.839844 413.289062 C 81.839844 417.304688 75.8125 417.304688 75.8125 413.289062 C 75.8125 409.269531 81.839844 409.269531 81.839844 413.289062 "/>
<path style=" stroke:none;fill-rule:nonzero;fill:rgb(90.6%,14.9%,14.9%);fill-opacity:1;" d="M 93.890625 413.289062 C 93.890625 417.304688 87.863281 417.304688 87.863281 413.289062 C 87.863281 409.269531 93.890625 409.269531 93.890625 413.289062 "/>
<path style=" stroke:none;fill-rule:nonzero;fill:rgb(90.6%,14.9%,14.9%);fill-opacity:1;" d="M 105.941406 413.289062 C 105.941406 417.304688 99.917969 417.304688 99.917969 413.289062 C 99.917969 409.269531 105.941406 409.269531 105.941406 413.289062 "/>
<path style=" stroke:none;fill-rule:nonzero;fill:rgb(90.6%,14.9%,14.9%);fill-opacity:1;" d="M 117.996094 413.289062 C 117.996094 417.304688 111.96875 417.304688 111.96875 413.289062 C 111.96875 409.269531 117.996094 409.269531 117.996094 413.289062 "/>
<path style=" stroke:none;fill-rule:nonzero;fill:rgb(90.6%,14.9%,14.9%);fill-opacity:1;" d="M 130.050781 413.289062 C 130.050781 417.304688 124.023438 417.304688 124.023438 413.289062 C 124.023438 409.269531 130.050781 409.269531 130.050781 413.289062 "/>
<path style=" stroke:none;fill-rule:nonzero;fill:rgb(90.6%,14.9%,14.9%);fill-opacity:1;" d="M 45.679688 98.710938 C 45.679688 102.730469 39.652344 102.730469 39.652344 98.710938 C 39.652344 94.695312 45.679688 94.695312 45.679688 98.710938 "/>
<path style=" stroke:none;fill-rule:nonzero;fill:rgb(90.6%,14.9%,14.9%);fill-opacity:1;" d="M 57.730469 98.710938 C 57.730469 102.730469 51.707031 102.730469 51.707031 98.710938 C 51.707031 94.695312 57.730469 94.695312 57.730469 98.710938 "/>
<path style=" stroke:none;fill-rule:nonzero;fill:rgb(90.6%,14.9%,14.9%);fill-opacity:1;" d="M 69.785156 98.710938 C 69.785156 102.730469 63.757812 102.730469 63.757812 98.710938 C 63.757812 94.695312 69.785156 94.695312 69.785156 98.710938 "/>
<path style=" stroke:none;fill-rule:nonzero;fill:rgb(90.6%,14.9%,14.9%);fill-opacity:1;" d="M 81.839844 98.710938 C 81.839844 102.730469 75.8125 102.730469 75.8125 98.710938 C 75.8125 94.695312 81.839844 94.695312 81.839844 98.710938 "/>
<path style=" stroke:none;fill-rule:nonzero;fill:rgb(90.6%,14.9%,14.9%);fill-opacity:1;" d="M 93.890625 98.710938 C 93.890625 102.730469 87.863281 102.730469 87.863281 98.710938 C 87.863281 94.695312 93.890625 94.695312 93.890625 98.710938 "/>
<path style=" stroke:none;fill-rule:nonzero;fill:rgb(90.6%,14.9%,14.9%);fill-opacity:1;" d="M 105.941406 98.710938 C 105.941406 102.730469 99.917969 102.730469 99.917969 98.710938 C 99.917969 94.695312 105.941406 94.695312 105.941406 98.710938 "/>
<path style=" stroke:none;fill-rule:nonzero;fill:rgb(90.6%,14.9%,14.9%);fill-opacity:1;" d="M 117.996094 98.710938 C 117.996094 102.730469 111.96875 102.730469 111.96875 98.710938 C 111.96875 94.695312 117.996094 94.695312 117.996094 98.710938 "/>
<path style=" stroke:none;fill-rule:nonzero;fill:rgb(90.6%,14.9%,14.9%);fill-opacity:1;" d="M 130.050781 98.710938 C 130.050781 102.730469 124.023438 102.730469 124.023438 98.710938 C 124.023438 94.695312 130.050781 94.695312 130.050781 98.710938 "/>
<path style=" stroke:none;fill-rule:nonzero;fill:rgb(90.6%,14.9%,14.9%);fill-opacity:1;" d="M 142.101562 98.710938 C 142.101562 102.730469 136.074219 102.730469 136.074219 98.710938 C 136.074219 94.695312 142.101562 94.695312 142.101562 98.710938 "/>
<path style=" stroke:none;fill-rule:nonzero;fill:rgb(100%,100%,100%);fill-opacity:1;" d="M 449.445312 122.816406 C 449.445312 126.835938 443.417969 126.835938 443.417969 122.816406 C 443.417969 118.800781 449.445312 118.800781 449.445312 122.816406 "/>
<path style=" stroke:none;fill-rule:nonzero;fill:rgb(100%,100%,100%);fill-opacity:1;" d="M 153.550781 63.757812 C 153.550781 67.777344 147.527344 67.777344 147.527344 63.757812 C 147.527344 59.742188 153.550781 59.742188 153.550781 63.757812 "/>
<path style=" stroke:none;fill-rule:nonzero;fill:rgb(100%,100%,100%);fill-opacity:1;" d="M 186.09375 16.152344 C 186.09375 20.167969 180.066406 20.167969 180.066406 16.152344 C 180.066406 12.132812 186.09375 12.132812 186.09375 16.152344 "/>
<path style=" stroke:none;fill-rule:nonzero;fill:rgb(100%,100%,100%);fill-opacity:1;" d="M 2.289062 51.707031 C 2.289062 55.722656 -3.734375 55.722656 -3.734375 51.707031 C -3.734375 47.6875 2.289062 47.6875 2.289062 51.707031 "/>
<path style=" stroke:none;fill-rule:nonzero;fill:rgb(100%,100%,100%);fill-opacity:1;" d="M 67.375 501.875 C 67.375 505.894531 61.347656 505.894531 61.347656 501.875 C 61.347656 497.859375 67.375 497.859375 67.375 501.875 "/>
<path style=" stroke:none;fill-rule:nonzero;fill:rgb(100%,100%,100%);fill-opacity:1;" d="M 345.191406 413.890625 C 345.191406 417.910156 339.164062 417.910156 339.164062 413.890625 C 339.164062 409.875 345.191406 409.875 345.191406 413.890625 "/>
<path style=" stroke:none;fill-rule:nonzero;fill:rgb(100%,100%,100%);fill-opacity:1;" d="M 265.039062 84.851562 C 265.039062 88.867188 259.011719 88.867188 259.011719 84.851562 C 259.011719 80.832031 265.039062 80.832031 265.039062 84.851562 "/>
<path style=" stroke:none;fill-rule:nonzero;fill:rgb(100%,100%,100%);fill-opacity:1;" d="M 319.878906 388.578125 C 319.878906 392.597656 313.851562 392.597656 313.851562 388.578125 C 313.851562 384.5625 319.878906 384.5625 319.878906 388.578125 "/>
<path style=" stroke:none;fill-rule:nonzero;fill:rgb(100%,100%,100%);fill-opacity:1;" d="M 263.230469 433.175781 C 263.230469 437.191406 257.203125 437.191406 257.203125 433.175781 C 257.203125 429.15625 263.230469 429.15625 263.230469 433.175781 "/>
<path style=" stroke:none;fill-rule:nonzero;fill:rgb(100%,100%,100%);fill-opacity:1;" d="M 126.433594 447.035156 C 126.433594 451.054688 120.40625 451.054688 120.40625 447.035156 C 120.40625 443.019531 126.433594 443.019531 126.433594 447.035156 "/>
<path style=" stroke:none;fill-rule:nonzero;fill:rgb(100%,100%,100%);fill-opacity:1;" d="M 516.941406 498.261719 C 516.941406 502.277344 510.914062 502.277344 510.914062 498.261719 C 510.914062 494.242188 516.941406 494.242188 516.941406 498.261719 "/>
<path style=" stroke:none;fill-rule:nonzero;fill:rgb(100%,100%,100%);fill-opacity:1;" d="M 236.113281 418.109375 C 236.113281 422.125 230.085938 422.125 230.085938 418.109375 C 230.085938 414.089844 236.113281 414.089844 236.113281 418.109375 "/>
<path style=" stroke:none;fill-rule:nonzero;fill:rgb(100%,100%,100%);fill-opacity:1;" d="M 154.152344 118.597656 C 154.152344 122.617188 148.128906 122.617188 148.128906 118.597656 C 148.128906 114.582031 154.152344 114.582031 154.152344 118.597656 "/>
<path style=" stroke:none;fill-rule:nonzero;fill:rgb(100%,100%,100%);fill-opacity:1;" d="M 22.175781 456.074219 C 22.175781 460.09375 16.152344 460.09375 16.152344 456.074219 C 16.152344 452.058594 22.175781 452.058594 22.175781 456.074219 "/>
<path style=" stroke:none;fill-rule:nonzero;fill:rgb(100%,100%,100%);fill-opacity:1;" d="M 228.277344 29.410156 C 228.277344 33.425781 222.253906 33.425781 222.253906 29.410156 C 222.253906 25.390625 228.277344 25.390625 228.277344 29.410156 "/>
<path style=" stroke:none;fill-rule:nonzero;fill:rgb(100%,100%,100%);fill-opacity:1;" d="M 377.730469 416.902344 C 377.730469 420.921875 371.707031 420.921875 371.707031 416.902344 C 371.707031 412.886719 377.730469 412.886719 377.730469 416.902344 "/>
<path style=" stroke:none;fill-rule:nonzero;fill:rgb(100%,100%,100%);fill-opacity:1;" d="M 110.164062 413.289062 C 110.164062 417.304688 104.136719 417.304688 104.136719 413.289062 C 104.136719 409.269531 110.164062 409.269531 110.164062 413.289062 "/>
<path style=" stroke:none;fill-rule:nonzero;fill:rgb(100%,100%,100%);fill-opacity:1;" d="M 67.976562 66.167969 C 67.976562 70.1875 61.949219 70.1875 61.949219 66.167969 C 61.949219 62.152344 67.976562 62.152344 67.976562 66.167969 "/>
<path style=" stroke:none;fill-rule:nonzero;fill:rgb(100%,100%,100%);fill-opacity:1;" d="M 318.070312 424.136719 C 318.070312 428.152344 312.042969 428.152344 312.042969 424.136719 C 312.042969 420.117188 318.070312 420.117188 318.070312 424.136719 "/>
<path style=" stroke:none;fill-rule:nonzero;fill:rgb(100%,100%,100%);fill-opacity:1;" d="M 344.585938 384.964844 C 344.585938 388.980469 338.5625 388.980469 338.5625 384.964844 C 338.5625 380.945312 344.585938 380.945312 344.585938 384.964844 "/>
<path style=" stroke:none;fill-rule:nonzero;fill:rgb(100%,100%,100%);fill-opacity:1;" d="M 515.734375 510.3125 C 515.734375 514.332031 509.710938 514.332031 509.710938 510.3125 C 509.710938 506.296875 515.734375 506.296875 515.734375 510.3125 "/>
<path style=" stroke:none;fill-rule:nonzero;fill:rgb(100%,100%,100%);fill-opacity:1;" d="M 309.03125 492.234375 C 309.03125 496.25 303.003906 496.25 303.003906 492.234375 C 303.003906 488.214844 309.03125 488.214844 309.03125 492.234375 "/>
<path style=" stroke:none;fill-rule:nonzero;fill:rgb(100%,100%,100%);fill-opacity:1;" d="M 2.890625 13.136719 C 2.890625 17.15625 -3.132812 17.15625 -3.132812 13.136719 C -3.132812 9.121094 2.890625 9.121094 2.890625 13.136719 "/>
<path style=" stroke:none;fill-rule:nonzero;fill:rgb(100%,100%,100%);fill-opacity:1;" d="M 70.386719 25.792969 C 70.386719 29.8125 64.363281 29.8125 64.363281 25.792969 C 64.363281 21.777344 70.386719 21.777344 70.386719 25.792969 "/>
<path style=" stroke:none;fill-rule:nonzero;fill:rgb(100%,100%,100%);fill-opacity:1;" d="M 451.855469 466.921875 C 451.855469 470.941406 445.832031 470.941406 445.832031 466.921875 C 445.832031 462.90625 451.855469 462.90625 451.855469 466.921875 "/>
<path style=" stroke:none;fill-rule:nonzero;fill:rgb(100%,100%,100%);fill-opacity:1;" d="M 163.195312 475.359375 C 163.195312 479.378906 157.167969 479.378906 157.167969 475.359375 C 157.167969 471.34375 163.195312 471.34375 163.195312 475.359375 "/>
<path style=" stroke:none;fill-rule:nonzero;fill:rgb(100%,84.3%,0%);fill-opacity:1;" d="M 446.683594 365.171875 C 446.683594 369.1875 440.660156 369.1875 440.660156 365.171875 C 440.660156 361.152344 446.683594 361.152344 446.683594 365.171875 "/>
<path style=" stroke:none;fill-rule:nonzero;fill:rgb(100%,84.3%,0%);fill-opacity:1;" d="M 305.753906 364.980469 C 305.753906 369 299.726562 369 299.726562 364.980469 C 299.726562 360.964844 305.753906 360.964844 305.753906 364.980469 "/>
<path style=" stroke:none;fill-rule:nonzero;fill:rgb(100%,84.3%,0%);fill-opacity:1;" d="M 450.269531 308.308594 C 450.269531 312.324219 444.246094 312.324219 444.246094 308.308594 C 444.246094 304.289062 450.269531 304.289062 450.269531 308.308594 "/>
<path style=" stroke:none;fill-rule:nonzero;fill:rgb(100%,84.3%,0%);fill-opacity:1;" d="M 172.109375 372.425781 C 172.109375 376.441406 166.082031 376.441406 166.082031 372.425781 C 166.082031 368.40625 172.109375 368.40625 172.109375 372.425781 "/>
<path style=" stroke:none;fill-rule:nonzero;fill:rgb(100%,84.3%,0%);fill-opacity:1;" d="M 60.007812 256.792969 C 60.007812 260.8125 53.980469 260.8125 53.980469 256.792969 C 53.980469 252.777344 60.007812 252.777344 60.007812 256.792969 "/>
<path style=" stroke:none;fill-rule:nonzero;fill:rgb(100%,84.3%,0%);fill-opacity:1;" d="M 259.917969 372.285156 C 259.917969 376.304688 253.890625 376.304688 253.890625 372.285156 C 253.890625 368.269531 259.917969 368.269531 259.917969 372.285156 "/>
<path style=" stroke:none;fill-rule:nonzero;fill:rgb(100%,84.3%,0%);fill-opacity:1;" d="M 159.582031 138.714844 C 159.582031 142.734375 153.554688 142.734375 153.554688 138.714844 C 153.554688 134.699219 159.582031 134.699219 159.582031 138.714844 "/>
<path style=" stroke:none;fill-rule:nonzero;fill:rgb(100%,84.3%,0%);fill-opacity:1;" d="M 220.414062 347.910156 C 220.414062 351.929688 214.386719 351.929688 214.386719 347.910156 C 214.386719 343.894531 220.414062 343.894531 220.414062 347.910156 "/>
<path style=" stroke:none;fill-rule:nonzero;fill:rgb(100%,84.3%,0%);fill-opacity:1;" d="M 443.269531 376.109375 C 443.269531 380.128906 437.242188 380.128906 437.242188 376.109375 C 437.242188 372.09375 443.269531 372.09375 443.269531 376.109375 "/>
<path style=" stroke:none;fill-rule:nonzero;fill:rgb(100%,84.3%,0%);fill-opacity:1;" d="M 432.796875 137.613281 C 432.796875 141.632812 426.769531 141.632812 426.769531 137.613281 C 426.769531 133.597656 432.796875 133.597656 432.796875 137.613281 "/>
<path style=" stroke:none;fill-rule:nonzero;fill:rgb(100%,84.3%,0%);fill-opacity:1;" d="M 378.960938 373.734375 C 378.960938 377.753906 372.933594 377.753906 372.933594 373.734375 C 372.933594 369.71875 378.960938 369.71875 378.960938 373.734375 "/>
<path style=" stroke:none;fill-rule:nonzero;fill:rgb(100%,84.3%,0%);fill-opacity:1;" d="M 232.742188 347.792969 C 232.742188 351.8125 226.71875 351.8125 226.71875 347.792969 C 226.71875 343.777344 232.742188 343.777344 232.742188 347.792969 "/>
<path style=" stroke:none;fill-rule:nonzero;fill:rgb(100%,84.3%,0%);fill-opacity:1;" d="M 456.734375 160.167969 C 456.734375 164.1875 450.710938 164.1875 450.710938 160.167969 C 450.710938 156.152344 456.734375 156.152344 456.734375 160.167969 "/>
<path style=" stroke:none;fill-rule:nonzero;fill:rgb(100%,84.3%,0%);fill-opacity:1;" d="M 56.910156 352.058594 C 56.910156 356.078125 50.886719 356.078125 50.886719 352.058594 C 50.886719 348.042969 56.910156 348.042969 56.910156 352.058594 "/>
<path style=" stroke:none;fill-rule:nonzero;fill:rgb(100%,84.3%,0%);fill-opacity:1;" d="M 85.210938 369.941406 C 85.210938 373.957031 79.1875 373.957031 79.1875 369.941406 C 79.1875 365.921875 85.210938 365.921875 85.210938 369.941406 "/>
<path style=" stroke:none;fill-rule:nonzero;fill:rgb(100%,84.3%,0%);fill-opacity:1;" d="M 126.738281 138.382812 C 126.738281 142.398438 120.710938 142.398438 120.710938 138.382812 C 120.710938 134.363281 126.738281 134.363281 126.738281 138.382812 "/>
<path style=" stroke:none;fill-rule:nonzero;fill:rgb(100%,84.3%,0%);fill-opacity:1;" d="M 60.5 295.195312 C 60.5 299.214844 54.472656 299.214844 54.472656 295.195312 C 54.472656 291.179688 60.5 291.179688 60.5 295.195312 "/>
<path style=" stroke:none;fill-rule:nonzero;fill:rgb(100%,84.3%,0%);fill-opacity:1;" d="M 294.351562 366.921875 C 294.351562 370.941406 288.324219 370.941406 288.324219 366.921875 C 288.324219 362.90625 294.351562 362.90625 294.351562 366.921875 "/>
<path style=" stroke:none;fill-rule:nonzero;fill:rgb(100%,84.3%,0%);fill-opacity:1;" d="M 343.84375 139.917969 C 343.84375 143.933594 337.820312 143.933594 337.820312 139.917969 C 337.820312 135.898438 343.84375 135.898438 343.84375 139.917969 "/>
<path style=" stroke:none;fill-rule:nonzero;fill:rgb(100%,84.3%,0%);fill-opacity:1;" d="M 73.363281 375.414062 C 73.363281 379.429688 67.335938 379.429688 67.335938 375.414062 C 67.335938 371.394531 73.363281 371.394531 73.363281 375.414062 "/>
<path style=" stroke:none;fill-rule:nonzero;fill:rgb(100%,84.3%,0%);fill-opacity:1;" d="M 61.050781 137.714844 C 61.050781 141.734375 55.023438 141.734375 55.023438 137.714844 C 55.023438 133.699219 61.050781 133.699219 61.050781 137.714844 "/>
<path style=" stroke:none;fill-rule:nonzero;fill:rgb(100%,84.3%,0%);fill-opacity:1;" d="M 240.757812 152.023438 C 240.757812 156.042969 234.730469 156.042969 234.730469 152.023438 C 234.730469 148.007812 240.757812 148.007812 240.757812 152.023438 "/>
<path style=" stroke:none;fill-rule:nonzero;fill:rgb(100%,84.3%,0%);fill-opacity:1;" d="M 294.828125 158.617188 C 294.828125 162.636719 288.800781 162.636719 288.800781 158.617188 C 288.800781 154.601562 294.828125 154.601562 294.828125 158.617188 "/>
<path style=" stroke:none;fill-rule:nonzero;fill:rgb(100%,84.3%,0%);fill-opacity:1;" d="M 348.90625 198.257812 C 348.90625 202.277344 342.878906 202.277344 342.878906 198.257812 C 342.878906 194.242188 348.90625 194.242188 348.90625 198.257812 "/>
<path style=" stroke:none;fill-rule:nonzero;fill:rgb(100%,84.3%,0%);fill-opacity:1;" d="M 444.199219 135.675781 C 444.199219 139.691406 438.171875 139.691406 438.171875 135.675781 C 438.171875 131.65625 444.199219 131.65625 444.199219 135.675781 "/>
<path style=" stroke:none;fill-rule:nonzero;fill:rgb(100%,84.3%,0%);fill-opacity:1;" d="M 162.066406 368.210938 C 162.066406 372.230469 156.039062 372.230469 156.039062 368.210938 C 156.039062 364.195312 162.066406 364.195312 162.066406 368.210938 "/>
<path style=" stroke:none;fill-rule:nonzero;fill:rgb(100%,84.3%,0%);fill-opacity:1;" d="M 227.054688 367.507812 C 227.054688 371.527344 221.03125 371.527344 221.03125 367.507812 C 221.03125 363.492188 227.054688 363.492188 227.054688 367.507812 "/>
<path style=" stroke:none;fill-rule:nonzero;fill:rgb(100%,84.3%,0%);fill-opacity:1;" d="M 325.601562 372.953125 C 325.601562 376.96875 319.578125 376.96875 319.578125 372.953125 C 319.578125 368.933594 325.601562 368.933594 325.601562 372.953125 "/>
<path style=" stroke:none;fill-rule:nonzero;fill:rgb(100%,84.3%,0%);fill-opacity:1;" d="M 332.445312 141.855469 C 332.445312 145.875 326.417969 145.875 326.417969 141.855469 C 326.417969 137.839844 332.445312 137.839844 332.445312 141.855469 "/>
<path style=" stroke:none;fill-rule:nonzero;fill:rgb(100%,84.3%,0%);fill-opacity:1;" d="M 451.890625 340.097656 C 451.890625 344.117188 445.863281 344.117188 445.863281 340.097656 C 445.863281 336.082031 451.890625 336.082031 451.890625 340.097656 "/>
<path style=" stroke:none;fill-rule:nonzero;fill:rgb(100%,84.3%,0%);fill-opacity:1;" d="M 62.367188 331.886719 C 62.367188 335.90625 56.339844 335.90625 56.339844 331.886719 C 56.339844 327.871094 62.367188 327.871094 62.367188 331.886719 "/>
<path style=" stroke:none;fill-rule:nonzero;fill:rgb(100%,84.3%,0%);fill-opacity:1;" d="M 372.996094 351.058594 C 372.996094 355.078125 366.96875 355.078125 366.96875 351.058594 C 366.96875 347.042969 372.996094 347.042969 372.996094 351.058594 "/>
<path style=" stroke:none;fill-rule:nonzero;fill:rgb(100%,84.3%,0%);fill-opacity:1;" d="M 122.320312 310.335938 C 122.320312 314.351562 116.292969 314.351562 116.292969 310.335938 C 116.292969 306.316406 122.320312 306.316406 122.320312 310.335938 "/>
<path style=" stroke:none;fill-rule:nonzero;fill:rgb(100%,84.3%,0%);fill-opacity:1;" d="M 392.183594 366.554688 C 392.183594 370.570312 386.15625 370.570312 386.15625 366.554688 C 386.15625 362.535156 392.183594 362.535156 392.183594 366.554688 "/>
<path style=" stroke:none;fill-rule:nonzero;fill:rgb(100%,84.3%,0%);fill-opacity:1;" d="M 450.144531 153.902344 C 450.144531 157.921875 444.117188 157.921875 444.117188 153.902344 C 444.117188 149.886719 450.144531 149.886719 450.144531 153.902344 "/>
<path style=" stroke:none;fill-rule:nonzero;fill:rgb(100%,84.3%,0%);fill-opacity:1;" d="M 105.0625 135.652344 C 105.0625 139.671875 99.035156 139.671875 99.035156 135.652344 C 99.035156 131.636719 105.0625 131.636719 105.0625 135.652344 "/>
<path style=" stroke:none;fill-rule:nonzero;fill:rgb(100%,84.3%,0%);fill-opacity:1;" d="M 205.398438 369.226562 C 205.398438 373.242188 199.371094 373.242188 199.371094 369.226562 C 199.371094 365.207031 205.398438 365.207031 205.398438 369.226562 "/>
<path style=" stroke:none;fill-rule:nonzero;fill:rgb(100%,84.3%,0%);fill-opacity:1;" d="M 279.535156 137.542969 C 279.535156 141.558594 273.507812 141.558594 273.507812 137.542969 C 273.507812 133.523438 279.535156 133.523438 279.535156 137.542969 "/>
<path style=" stroke:none;fill-rule:nonzero;fill:rgb(100%,84.3%,0%);fill-opacity:1;" d="M 346.8125 374.769531 C 346.8125 378.789062 340.785156 378.789062 340.785156 374.769531 C 340.785156 370.753906 346.8125 370.753906 346.8125 374.769531 "/>
<path style=" stroke:none;fill-rule:nonzero;fill:rgb(100%,84.3%,0%);fill-opacity:1;" d="M 329.707031 149.722656 C 329.707031 153.738281 323.683594 153.738281 323.683594 149.722656 C 323.683594 145.703125 329.707031 145.703125 329.707031 149.722656 "/>
<path style=" stroke:none;fill-rule:nonzero;fill:rgb(100%,84.3%,0%);fill-opacity:1;" d="M 101.863281 142.605469 C 101.863281 146.621094 95.835938 146.621094 95.835938 142.605469 C 95.835938 138.585938 101.863281 138.585938 101.863281 142.605469 "/>
<path style=" stroke:none;fill-rule:nonzero;fill:rgb(100%,84.3%,0%);fill-opacity:1;" d="M 412.714844 371.445312 C 412.714844 375.464844 406.6875 375.464844 406.6875 371.445312 C 406.6875 367.429688 412.714844 367.429688 412.714844 371.445312 "/>
<path style=" stroke:none;fill-rule:nonzero;fill:rgb(100%,84.3%,0%);fill-opacity:1;" d="M 427.496094 349.675781 C 427.496094 353.695312 421.472656 353.695312 421.472656 349.675781 C 421.472656 345.660156 427.496094 345.660156 427.496094 349.675781 "/>
<path style=" stroke:none;fill-rule:nonzero;fill:rgb(100%,84.3%,0%);fill-opacity:1;" d="M 460.902344 225.574219 C 460.902344 229.59375 454.875 229.59375 454.875 225.574219 C 454.875 221.558594 460.902344 221.558594 460.902344 225.574219 "/>
<path style=" stroke:none;fill-rule:nonzero;fill:rgb(100%,84.3%,0%);fill-opacity:1;" d="M 98.882812 359.226562 C 98.882812 363.242188 92.859375 363.242188 92.859375 359.226562 C 92.859375 355.207031 98.882812 355.207031 98.882812 359.226562 "/>
<path style=" stroke:none;fill-rule:nonzero;fill:rgb(100%,84.3%,0%);fill-opacity:1;" d="M 362.058594 353.910156 C 362.058594 357.929688 356.035156 357.929688 356.035156 353.910156 C 356.035156 349.894531 362.058594 349.894531 362.058594 353.910156 "/>
<path style=" stroke:none;fill-rule:nonzero;fill:rgb(100%,84.3%,0%);fill-opacity:1;" d="M 422.390625 249.402344 C 422.390625 253.417969 416.363281 253.417969 416.363281 249.402344 C 416.363281 245.382812 422.390625 245.382812 422.390625 249.402344 "/>
<path style=" stroke:none;fill-rule:nonzero;fill:rgb(100%,84.3%,0%);fill-opacity:1;" d="M 118.371094 240.9375 C 118.371094 244.957031 112.34375 244.957031 112.34375 240.9375 C 112.34375 236.921875 118.371094 236.921875 118.371094 240.9375 "/>
<path style=" stroke:none;fill-rule:nonzero;fill:rgb(100%,84.3%,0%);fill-opacity:1;" d="M 454.207031 373.257812 C 454.207031 377.277344 448.179688 377.277344 448.179688 373.257812 C 448.179688 369.242188 454.207031 369.242188 454.207031 373.257812 "/>
<path style=" stroke:none;fill-rule:nonzero;fill:rgb(100%,84.3%,0%);fill-opacity:1;" d="M 454.007812 139.429688 C 454.007812 143.449219 447.980469 143.449219 447.980469 139.429688 C 447.980469 135.414062 454.007812 135.414062 454.007812 139.429688 "/>
<path style=" stroke:none;fill-rule:nonzero;fill:rgb(100%,84.3%,0%);fill-opacity:1;" d="M 446.480469 159.945312 C 446.480469 163.960938 440.453125 163.960938 440.453125 159.945312 C 440.453125 155.925781 446.480469 155.925781 446.480469 159.945312 "/>
<path style=" stroke:none;fill-rule:nonzero;fill:rgb(100%,84.3%,0%);fill-opacity:1;" d="M 264.84375 304.824219 C 264.84375 308.84375 258.820312 308.84375 258.820312 304.824219 C 258.820312 300.808594 264.84375 300.808594 264.84375 304.824219 "/>
<path style=" stroke:none;fill-rule:nonzero;fill:rgb(100%,84.3%,0%);fill-opacity:1;" d="M 395.84375 146.855469 C 395.84375 150.871094 389.816406 150.871094 389.816406 146.855469 C 389.816406 142.835938 395.84375 142.835938 395.84375 146.855469 "/>
<path style=" stroke:none;fill-rule:nonzero;fill:rgb(100%,84.3%,0%);fill-opacity:1;" d="M 286.117188 353.019531 C 286.117188 357.039062 280.089844 357.039062 280.089844 353.019531 C 280.089844 349.003906 286.117188 349.003906 286.117188 353.019531 "/>
<path style=" stroke:none;fill-rule:nonzero;fill:rgb(100%,84.3%,0%);fill-opacity:1;" d="M 174.828125 360.117188 C 174.828125 364.132812 168.800781 364.132812 168.800781 360.117188 C 168.800781 356.097656 174.828125 356.097656 174.828125 360.117188 "/>
<path style=" stroke:none;fill-rule:nonzero;fill:rgb(100%,84.3%,0%);fill-opacity:1;" d="M 464.953125 169.625 C 464.953125 173.640625 458.929688 173.640625 458.929688 169.625 C 458.929688 165.605469 464.953125 165.605469 464.953125 169.625 "/>
<path style=" stroke:none;fill-rule:nonzero;fill:rgb(100%,84.3%,0%);fill-opacity:1;" d="M 355.792969 251.355469 C 355.792969 255.375 349.765625 255.375 349.765625 251.355469 C 349.765625 247.339844 355.792969 247.339844 355.792969 251.355469 "/>
<path style=" stroke:none;fill-rule:nonzero;fill:rgb(100%,84.3%,0%);fill-opacity:1;" d="M 195.152344 159.785156 C 195.152344 163.800781 189.125 163.800781 189.125 159.785156 C 189.125 155.765625 195.152344 155.765625 195.152344 159.785156 "/>
<path style=" stroke:none;fill-rule:nonzero;fill:rgb(100%,84.3%,0%);fill-opacity:1;" d="M 376.671875 135.804688 C 376.671875 139.824219 370.644531 139.824219 370.644531 135.804688 C 370.644531 131.789062 376.671875 131.789062 376.671875 135.804688 "/>
<path style=" stroke:none;fill-rule:nonzero;fill:rgb(100%,84.3%,0%);fill-opacity:1;" d="M 167.738281 344.050781 C 167.738281 348.070312 161.710938 348.070312 161.710938 344.050781 C 161.710938 340.035156 167.738281 340.035156 167.738281 344.050781 "/>
<path style=" stroke:none;fill-rule:nonzero;fill:rgb(100%,84.3%,0%);fill-opacity:1;" d="M 279.519531 375.355469 C 279.519531 379.375 273.492188 379.375 273.492188 375.355469 C 273.492188 371.339844 279.519531 371.339844 279.519531 375.355469 "/>
<path style=" stroke:none;fill-rule:nonzero;fill:rgb(100%,84.3%,0%);fill-opacity:1;" d="M 204.273438 375.835938 C 204.273438 379.851562 198.246094 379.851562 198.246094 375.835938 C 198.246094 371.816406 204.273438 371.816406 204.273438 375.835938 "/>
<path style=" stroke:none;fill-rule:nonzero;fill:rgb(100%,84.3%,0%);fill-opacity:1;" d="M 323.3125 135.023438 C 323.3125 139.039062 317.289062 139.039062 317.289062 135.023438 C 317.289062 131.003906 323.3125 131.003906 323.3125 135.023438 "/>
<path style=" stroke:none;fill-rule:nonzero;fill:rgb(100%,84.3%,0%);fill-opacity:1;" d="M 353.421875 143.21875 C 353.421875 147.238281 347.394531 147.238281 347.394531 143.21875 C 347.394531 139.203125 353.421875 139.203125 353.421875 143.21875 "/>
<path style=" stroke:none;fill-rule:nonzero;fill:rgb(100%,84.3%,0%);fill-opacity:1;" d="M 333.339844 377.050781 C 333.339844 381.070312 327.3125 381.070312 327.3125 377.050781 C 327.3125 373.035156 333.339844 373.035156 333.339844 377.050781 "/>
<path style=" stroke:none;fill-rule:nonzero;fill:rgb(100%,84.3%,0%);fill-opacity:1;" d="M 129.6875 368.789062 C 129.6875 372.808594 123.660156 372.808594 123.660156 368.789062 C 123.660156 364.773438 129.6875 364.773438 129.6875 368.789062 "/>
<path style=" stroke:none;fill-rule:nonzero;fill:rgb(100%,84.3%,0%);fill-opacity:1;" d="M 152.472656 360.464844 C 152.472656 364.484375 146.445312 364.484375 146.445312 360.464844 C 146.445312 356.449219 152.472656 356.449219 152.472656 360.464844 "/>
<path style=" stroke:none;fill-rule:nonzero;fill:rgb(100%,84.3%,0%);fill-opacity:1;" d="M 395.796875 347.179688 C 395.796875 351.195312 389.773438 351.195312 389.773438 347.179688 C 389.773438 343.160156 395.796875 343.160156 395.796875 347.179688 "/>
<path style=" stroke:none;fill-rule:nonzero;fill:rgb(100%,84.3%,0%);fill-opacity:1;" d="M 309.089844 303.21875 C 309.089844 307.234375 303.0625 307.234375 303.0625 303.21875 C 303.0625 299.199219 309.089844 299.199219 309.089844 303.21875 "/>
<path style=" stroke:none;fill-rule:nonzero;fill:rgb(100%,84.3%,0%);fill-opacity:1;" d="M 233.871094 341.183594 C 233.871094 345.203125 227.84375 345.203125 227.84375 341.183594 C 227.84375 337.167969 233.871094 337.167969 233.871094 341.183594 "/>
<path style=" stroke:none;fill-rule:nonzero;fill:rgb(100%,84.3%,0%);fill-opacity:1;" d="M 68.035156 307.726562 C 68.035156 311.746094 62.011719 311.746094 62.011719 307.726562 C 62.011719 303.710938 68.035156 303.710938 68.035156 307.726562 "/>
<path style=" stroke:none;fill-rule:nonzero;fill:rgb(100%,84.3%,0%);fill-opacity:1;" d="M 429.769531 340.902344 C 429.769531 344.921875 423.742188 344.921875 423.742188 340.902344 C 423.742188 336.886719 429.769531 336.886719 429.769531 340.902344 "/>
<path style=" stroke:none;fill-rule:nonzero;fill:rgb(100%,84.3%,0%);fill-opacity:1;" d="M 53.46875 325.507812 C 53.46875 329.527344 47.441406 329.527344 47.441406 325.507812 C 47.441406 321.492188 53.46875 321.492188 53.46875 325.507812 "/>
<path style=" stroke:none;fill-rule:nonzero;fill:rgb(100%,84.3%,0%);fill-opacity:1;" d="M 97.464844 319 C 97.464844 323.019531 91.4375 323.019531 91.4375 319 C 91.4375 314.984375 97.464844 314.984375 97.464844 319 "/>
<path style=" stroke:none;fill-rule:nonzero;fill:rgb(100%,84.3%,0%);fill-opacity:1;" d="M 461.714844 348.300781 C 461.714844 352.320312 455.691406 352.320312 455.691406 348.300781 C 455.691406 344.285156 461.714844 344.285156 461.714844 348.300781 "/>
<path style=" stroke:none;fill-rule:nonzero;fill:rgb(100%,84.3%,0%);fill-opacity:1;" d="M 316.472656 366.117188 C 316.472656 370.136719 310.445312 370.136719 310.445312 366.117188 C 310.445312 362.101562 316.472656 362.101562 316.472656 366.117188 "/>
<path style=" stroke:none;fill-rule:nonzero;fill:rgb(100%,84.3%,0%);fill-opacity:1;" d="M 458.316406 363.6875 C 458.316406 367.703125 452.292969 367.703125 452.292969 363.6875 C 452.292969 359.667969 458.316406 359.667969 458.316406 363.6875 "/>
<path style=" stroke:none;fill-rule:nonzero;fill:rgb(100%,84.3%,0%);fill-opacity:1;" d="M 118.519531 371.1875 C 118.519531 375.203125 112.492188 375.203125 112.492188 371.1875 C 112.492188 367.167969 118.519531 367.167969 118.519531 371.1875 "/>
<path style=" stroke:none;fill-rule:nonzero;fill:rgb(100%,84.3%,0%);fill-opacity:1;" d="M 411.125 134.886719 C 411.125 138.902344 405.097656 138.902344 405.097656 134.886719 C 405.097656 130.867188 411.125 130.867188 411.125 134.886719 "/>
<path style=" stroke:none;fill-rule:nonzero;fill:rgb(100%,84.3%,0%);fill-opacity:1;" d="M 178.519531 149.308594 C 178.519531 153.324219 172.492188 153.324219 172.492188 149.308594 C 172.492188 145.289062 178.519531 145.289062 178.519531 149.308594 "/>
<path style=" stroke:none;fill-rule:nonzero;fill:rgb(100%,84.3%,0%);fill-opacity:1;" d="M 180.789062 140.53125 C 180.789062 144.550781 174.765625 144.550781 174.765625 140.53125 C 174.765625 136.515625 180.789062 136.515625 180.789062 140.53125 "/>
<path style=" stroke:none;fill-rule:nonzero;fill:rgb(100%,84.3%,0%);fill-opacity:1;" d="M 97.078125 368.914062 C 97.078125 372.929688 91.050781 372.929688 91.050781 368.914062 C 91.050781 364.894531 97.078125 364.894531 97.078125 368.914062 "/>
<path style=" stroke:none;fill-rule:nonzero;fill:rgb(100%,84.3%,0%);fill-opacity:1;" d="M 465.40625 137.492188 C 465.40625 141.507812 459.382812 141.507812 459.382812 137.492188 C 459.382812 133.472656 465.40625 133.472656 465.40625 137.492188 "/>
<path style=" stroke:none;fill-rule:nonzero;fill:rgb(100%,84.3%,0%);fill-opacity:1;" d="M 191.046875 140.757812 C 191.046875 144.773438 185.019531 144.773438 185.019531 140.757812 C 185.019531 136.738281 191.046875 136.738281 191.046875 140.757812 "/>
<path style=" stroke:none;fill-rule:nonzero;fill:rgb(100%,84.3%,0%);fill-opacity:1;" d="M 217.480469 364.207031 C 217.480469 368.222656 211.453125 368.222656 211.453125 364.207031 C 211.453125 360.1875 217.480469 360.1875 217.480469 364.207031 "/>
<path style=" stroke:none;fill-rule:nonzero;fill:rgb(100%,84.3%,0%);fill-opacity:1;" d="M 329.664062 350.046875 C 329.664062 354.0625 323.636719 354.0625 323.636719 350.046875 C 323.636719 346.027344 329.664062 346.027344 329.664062 350.046875 "/>
<path style=" stroke:none;fill-rule:nonzero;fill:rgb(100%,84.3%,0%);fill-opacity:1;" d="M 456.003906 330.527344 C 456.003906 334.542969 449.976562 334.542969 449.976562 330.527344 C 449.976562 326.507812 456.003906 326.507812 456.003906 330.527344 "/>
<path style=" stroke:none;fill-rule:nonzero;fill:rgb(100%,84.3%,0%);fill-opacity:1;" d="M 268.8125 136.40625 C 268.8125 140.421875 262.789062 140.421875 262.789062 136.40625 C 262.789062 132.386719 268.8125 132.386719 268.8125 136.40625 "/>
<path style=" stroke:none;fill-rule:nonzero;fill:rgb(100%,84.3%,0%);fill-opacity:1;" d="M 297.5 346.636719 C 297.5 350.652344 291.472656 350.652344 291.472656 346.636719 C 291.472656 342.617188 297.5 342.617188 297.5 346.636719 "/>
<path style=" stroke:none;fill-rule:nonzero;fill:rgb(100%,84.3%,0%);fill-opacity:1;" d="M 158.070312 256.882812 C 158.070312 260.898438 152.042969 260.898438 152.042969 256.882812 C 152.042969 252.863281 158.070312 252.863281 158.070312 256.882812 "/>
<path style=" stroke:none;fill-rule:nonzero;fill:rgb(100%,84.3%,0%);fill-opacity:1;" d="M 194.230469 371.621094 C 194.230469 375.636719 188.203125 375.636719 188.203125 371.621094 C 188.203125 367.601562 194.230469 367.601562 194.230469 371.621094 "/>
<path style=" stroke:none;fill-rule:nonzero;fill:rgb(100%,84.3%,0%);fill-opacity:1;" d="M 291.613281 374.785156 C 291.613281 378.800781 285.589844 378.800781 285.589844 374.785156 C 285.589844 370.765625 291.613281 370.765625 291.613281 374.785156 "/>
<path style=" stroke:none;fill-rule:nonzero;fill:rgb(100%,84.3%,0%);fill-opacity:1;" d="M 202 142.347656 C 202 146.367188 195.972656 146.367188 195.972656 142.347656 C 195.972656 138.332031 202 138.332031 202 142.347656 "/>
<path style=" stroke:none;fill-rule:nonzero;fill:rgb(100%,84.3%,0%);fill-opacity:1;" d="M 140.410156 369.925781 C 140.410156 373.945312 134.382812 373.945312 134.382812 369.925781 C 134.382812 365.910156 140.410156 365.910156 140.410156 369.925781 "/>
<path style=" stroke:none;fill-rule:nonzero;fill:rgb(100%,84.3%,0%);fill-opacity:1;" d="M 160.054688 172.671875 C 160.054688 176.6875 154.027344 176.6875 154.027344 172.671875 C 154.027344 168.652344 160.054688 168.652344 160.054688 172.671875 "/>
<path style=" stroke:none;fill-rule:nonzero;fill:rgb(100%,84.3%,0%);fill-opacity:1;" d="M 451.273438 147.296875 C 451.273438 151.3125 445.246094 151.3125 445.246094 147.296875 C 445.246094 143.277344 451.273438 143.277344 451.273438 147.296875 "/>
<path style=" stroke:none;fill-rule:nonzero;fill:rgb(100%,84.3%,0%);fill-opacity:1;" d="M 422.523438 375.203125 C 422.523438 379.222656 416.496094 379.222656 416.496094 375.203125 C 416.496094 371.1875 422.523438 371.1875 422.523438 375.203125 "/>
<path style=" stroke:none;fill-rule:nonzero;fill:rgb(100%,84.3%,0%);fill-opacity:1;" d="M 296.285156 269.378906 C 296.285156 273.394531 290.257812 273.394531 290.257812 269.378906 C 290.257812 265.359375 296.285156 265.359375 296.285156 269.378906 "/>
<path style=" stroke:none;fill-rule:nonzero;fill:rgb(100%,84.3%,0%);fill-opacity:1;" d="M 444.226562 173.164062 C 444.226562 177.179688 438.199219 177.179688 438.199219 173.164062 C 438.199219 169.144531 444.226562 169.144531 444.226562 173.164062 "/>
<path style=" stroke:none;fill-rule:nonzero;fill:rgb(100%,84.3%,0%);fill-opacity:1;" d="M 178.457031 345.1875 C 178.457031 349.207031 172.433594 349.207031 172.433594 345.1875 C 172.433594 341.171875 178.457031 341.171875 178.457031 345.1875 "/>
<path style=" stroke:none;fill-rule:nonzero;fill:rgb(100%,84.3%,0%);fill-opacity:1;" d="M 394.484375 153.007812 C 394.484375 157.023438 388.457031 157.023438 388.457031 153.007812 C 388.457031 148.988281 394.484375 148.988281 394.484375 153.007812 "/>
<path style=" stroke:none;fill-rule:nonzero;fill:rgb(100%,84.3%,0%);fill-opacity:1;" d="M 461.902344 306.824219 C 461.902344 310.839844 455.878906 310.839844 455.878906 306.824219 C 455.878906 302.804688 461.902344 302.804688 461.902344 306.824219 "/>
<path style=" stroke:none;fill-rule:nonzero;fill:rgb(100%,84.3%,0%);fill-opacity:1;" d="M 142.214844 360.238281 C 142.214844 364.257812 136.191406 364.257812 136.191406 360.238281 C 136.191406 356.222656 142.214844 356.222656 142.214844 360.238281 "/>
<path style=" stroke:none;fill-rule:nonzero;fill:rgb(100%,84.3%,0%);fill-opacity:1;" d="M 243.464844 348.929688 C 243.464844 352.949219 237.4375 352.949219 237.4375 348.929688 C 237.4375 344.914062 243.464844 344.914062 243.464844 348.929688 "/>
<path style=" stroke:none;fill-rule:nonzero;fill:rgb(100%,84.3%,0%);fill-opacity:1;" d="M 378.828125 247.933594 C 378.828125 251.949219 372.800781 251.949219 372.800781 247.933594 C 372.800781 243.914062 378.828125 243.914062 378.828125 247.933594 "/>
<path style=" stroke:none;fill-rule:nonzero;fill:rgb(100%,84.3%,0%);fill-opacity:1;" d="M 237.792969 373.089844 C 237.792969 377.109375 231.769531 377.109375 231.769531 373.089844 C 231.769531 369.074219 237.792969 369.074219 237.792969 373.089844 "/>
<path style=" stroke:none;fill-rule:nonzero;fill:rgb(100%,84.3%,0%);fill-opacity:1;" d="M 365.054688 141.734375 C 365.054688 145.75 359.027344 145.75 359.027344 141.734375 C 359.027344 137.714844 365.054688 137.714844 365.054688 141.734375 "/>
<path style=" stroke:none;fill-rule:nonzero;fill:rgb(100%,84.3%,0%);fill-opacity:1;" d="M 290.023438 138.222656 C 290.023438 142.242188 283.996094 142.242188 283.996094 138.222656 C 283.996094 134.207031 290.023438 134.207031 290.023438 138.222656 "/>
<path style=" stroke:none;fill-rule:nonzero;fill:rgb(100%,84.3%,0%);fill-opacity:1;" d="M 418.644531 142.972656 C 418.644531 146.992188 412.617188 146.992188 412.617188 142.972656 C 412.617188 138.957031 418.644531 138.957031 418.644531 142.972656 "/>
<path style=" stroke:none;fill-rule:nonzero;fill:rgb(100%,84.3%,0%);fill-opacity:1;" d="M 369.382812 370.433594 C 369.382812 374.449219 363.355469 374.449219 363.355469 370.433594 C 363.355469 366.414062 369.382812 366.414062 369.382812 370.433594 "/>
<path style=" stroke:none;fill-rule:nonzero;fill:rgb(100%,84.3%,0%);fill-opacity:1;" d="M 350.195312 354.941406 C 350.195312 358.957031 344.167969 358.957031 344.167969 354.941406 C 344.167969 350.921875 350.195312 350.921875 350.195312 354.941406 "/>
<path style=" stroke:none;fill-rule:nonzero;fill:rgb(100%,84.3%,0%);fill-opacity:1;" d="M 456.78125 202.101562 C 456.78125 206.121094 450.753906 206.121094 450.753906 202.101562 C 450.753906 198.085938 456.78125 198.085938 456.78125 202.101562 "/>
<path style=" stroke:none;fill-rule:nonzero;fill:rgb(100%,84.3%,0%);fill-opacity:1;" d="M 89.363281 188.644531 C 89.363281 192.660156 83.335938 192.660156 83.335938 188.644531 C 83.335938 184.625 89.363281 184.625 89.363281 188.644531 "/>
<path style=" stroke:none;fill-rule:nonzero;fill:rgb(100%,84.3%,0%);fill-opacity:1;" d="M 80.667969 145.230469 C 80.667969 149.25 74.644531 149.25 74.644531 145.230469 C 74.644531 141.214844 80.667969 141.214844 80.667969 145.230469 "/>
<path style=" stroke:none;fill-rule:nonzero;fill:rgb(100%,84.3%,0%);fill-opacity:1;" d="M 406.304688 352.304688 C 406.304688 356.324219 400.277344 356.324219 400.277344 352.304688 C 400.277344 348.289062 406.304688 348.289062 406.304688 352.304688 "/>
<path style=" stroke:none;fill-rule:nonzero;fill:rgb(100%,84.3%,0%);fill-opacity:1;" d="M 218.679688 194.761719 C 218.679688 198.777344 212.652344 198.777344 212.652344 194.761719 C 212.652344 190.742188 218.679688 190.742188 218.679688 194.761719 "/>
<path style=" stroke:none;fill-rule:nonzero;fill:rgb(100%,84.3%,0%);fill-opacity:1;" d="M 372.796875 359.492188 C 372.796875 363.511719 366.773438 363.511719 366.773438 359.492188 C 366.773438 355.476562 372.796875 355.476562 372.796875 359.492188 "/>
<path style=" stroke:none;fill-rule:nonzero;fill:rgb(100%,84.3%,0%);fill-opacity:1;" d="M 214.992188 376.972656 C 214.992188 380.988281 208.96875 380.988281 208.96875 376.972656 C 208.96875 372.953125 214.992188 372.953125 214.992188 376.972656 "/>
<path style=" stroke:none;fill-rule:nonzero;fill:rgb(100%,84.3%,0%);fill-opacity:1;" d="M 327.132812 320.875 C 327.132812 324.894531 321.105469 324.894531 321.105469 320.875 C 321.105469 316.859375 327.132812 316.859375 327.132812 320.875 "/>
<path style=" stroke:none;fill-rule:nonzero;fill:rgb(100%,84.3%,0%);fill-opacity:1;" d="M 60.890625 216.683594 C 60.890625 220.703125 54.863281 220.703125 54.863281 216.683594 C 54.863281 212.667969 60.890625 212.667969 60.890625 216.683594 "/>
<path style=" stroke:none;fill-rule:nonzero;fill:rgb(100%,84.3%,0%);fill-opacity:1;" d="M 284.582031 191.4375 C 284.582031 195.457031 278.554688 195.457031 278.554688 191.4375 C 278.554688 187.421875 284.582031 187.421875 284.582031 191.4375 "/>
<path style=" stroke:none;fill-rule:nonzero;fill:rgb(100%,84.3%,0%);fill-opacity:1;" d="M 57.1875 152.1875 C 57.1875 156.207031 51.160156 156.207031 51.160156 152.1875 C 51.160156 148.171875 57.1875 148.171875 57.1875 152.1875 "/>
<path style=" stroke:none;fill-rule:nonzero;fill:rgb(100%,84.3%,0%);fill-opacity:1;" d="M 91.605469 142.378906 C 91.605469 146.398438 85.578125 146.398438 85.578125 142.378906 C 85.578125 138.363281 91.605469 138.363281 91.605469 142.378906 "/>
<path style=" stroke:none;fill-rule:nonzero;fill:rgb(100%,84.3%,0%);fill-opacity:1;" d="M 230.023438 360.101562 C 230.023438 364.121094 223.996094 364.121094 223.996094 360.101562 C 223.996094 356.085938 230.023438 356.085938 230.023438 360.101562 "/>
<path style=" stroke:none;fill-rule:nonzero;fill:rgb(100%,84.3%,0%);fill-opacity:1;" d="M 54.191406 364.367188 C 54.191406 368.382812 48.167969 368.382812 48.167969 364.367188 C 48.167969 360.347656 54.191406 360.347656 54.191406 364.367188 "/>
<path style=" stroke:none;fill-rule:nonzero;fill:rgb(100%,84.3%,0%);fill-opacity:1;" d="M 115.335938 140.320312 C 115.335938 144.339844 109.308594 144.339844 109.308594 140.320312 C 109.308594 136.304688 115.335938 136.304688 115.335938 140.320312 "/>
<path style=" stroke:none;fill-rule:nonzero;fill:rgb(100%,84.3%,0%);fill-opacity:1;" d="M 262.851562 355.988281 C 262.851562 360.007812 256.824219 360.007812 256.824219 355.988281 C 256.824219 351.972656 262.851562 351.972656 262.851562 355.988281 "/>
<path style=" stroke:none;fill-rule:nonzero;fill:rgb(100%,84.3%,0%);fill-opacity:1;" d="M 358.214844 372.828125 C 358.214844 376.847656 352.1875 376.847656 352.1875 372.828125 C 352.1875 368.8125 358.214844 368.8125 358.214844 372.828125 "/>
<path style=" stroke:none;fill-rule:nonzero;fill:rgb(100%,84.3%,0%);fill-opacity:1;" d="M 302.570312 376.378906 C 302.570312 380.394531 296.542969 380.394531 296.542969 376.378906 C 296.542969 372.359375 302.570312 372.359375 302.570312 376.378906 "/>
<path style=" stroke:none;fill-rule:nonzero;fill:rgb(100%,84.3%,0%);fill-opacity:1;" d="M 216.59375 162.058594 C 216.59375 166.074219 210.570312 166.074219 210.570312 162.058594 C 210.570312 158.039062 216.59375 158.039062 216.59375 162.058594 "/>
<path style=" stroke:none;fill-rule:nonzero;fill:rgb(100%,84.3%,0%);fill-opacity:1;" d="M 264.484375 149.96875 C 264.484375 153.984375 258.460938 153.984375 258.460938 149.96875 C 258.460938 145.949219 264.484375 145.949219 264.484375 149.96875 "/>
<path style=" stroke:none;fill-rule:nonzero;fill:rgb(100%,84.3%,0%);fill-opacity:1;" d="M 95.191406 327.777344 C 95.191406 331.792969 89.164062 331.792969 89.164062 327.777344 C 89.164062 323.757812 95.191406 323.757812 95.191406 327.777344 "/>
<path style=" stroke:none;fill-rule:nonzero;fill:rgb(100%,84.3%,0%);fill-opacity:1;" d="M 238.457031 365.570312 C 238.457031 369.585938 232.429688 369.585938 232.429688 365.570312 C 232.429688 361.550781 238.457031 361.550781 238.457031 365.570312 "/>
<path style=" stroke:none;fill-rule:nonzero;fill:rgb(100%,84.3%,0%);fill-opacity:1;" d="M 109.605469 360.363281 C 109.605469 364.378906 103.578125 364.378906 103.578125 360.363281 C 103.578125 356.34375 109.605469 356.34375 109.605469 360.363281 "/>
<path style=" stroke:none;fill-rule:nonzero;fill:rgb(100%,84.3%,0%);fill-opacity:1;" d="M 429.382812 148.554688 C 429.382812 152.570312 423.355469 152.570312 423.355469 148.554688 C 423.355469 144.535156 429.382812 144.535156 429.382812 148.554688 "/>
<path style=" stroke:none;fill-rule:nonzero;fill:rgb(100%,84.3%,0%);fill-opacity:1;" d="M 144.933594 347.933594 C 144.933594 351.949219 138.910156 351.949219 138.910156 347.933594 C 138.910156 343.914062 144.933594 343.914062 144.933594 347.933594 "/>
<path style=" stroke:none;fill-rule:nonzero;fill:rgb(100%,84.3%,0%);fill-opacity:1;" d="M 438.523438 188.433594 C 438.523438 192.453125 432.496094 192.453125 432.496094 188.433594 C 432.496094 184.417969 438.523438 184.417969 438.523438 188.433594 "/>
<path style=" stroke:none;fill-rule:nonzero;fill:rgb(100%,84.3%,0%);fill-opacity:1;" d="M 83.34375 333.25 C 83.34375 337.265625 77.316406 337.265625 77.316406 333.25 C 77.316406 329.230469 83.34375 329.230469 83.34375 333.25 "/>
<path style=" stroke:none;fill-rule:nonzero;fill:rgb(100%,84.3%,0%);fill-opacity:1;" d="M 124.621094 339.050781 C 124.621094 343.066406 118.59375 343.066406 118.59375 339.050781 C 118.59375 335.03125 124.621094 335.03125 124.621094 339.050781 "/>
<path style=" stroke:none;fill-rule:nonzero;fill:rgb(100%,84.3%,0%);fill-opacity:1;" d="M 225.25 134.9375 C 225.25 138.953125 219.222656 138.953125 219.222656 134.9375 C 219.222656 130.917969 225.25 130.917969 225.25 134.9375 "/>
<path style=" stroke:none;fill-rule:nonzero;fill:rgb(100%,84.3%,0%);fill-opacity:1;" d="M 464.175781 298.046875 C 464.175781 302.066406 458.148438 302.066406 458.148438 298.046875 C 458.148438 294.03125 464.175781 294.03125 464.175781 298.046875 "/>
<path style=" stroke:none;fill-rule:nonzero;fill:rgb(100%,84.3%,0%);fill-opacity:1;" d="M 250.554688 364.996094 C 250.554688 369.011719 244.527344 369.011719 244.527344 364.996094 C 244.527344 360.976562 250.554688 360.976562 250.554688 364.996094 "/>
<path style=" stroke:none;fill-rule:nonzero;fill:rgb(100%,84.3%,0%);fill-opacity:1;" d="M 365.109375 216.714844 C 365.109375 220.730469 359.082031 220.730469 359.082031 216.714844 C 359.082031 212.695312 365.109375 212.695312 365.109375 216.714844 "/>
<path style=" stroke:none;fill-rule:nonzero;fill:rgb(100%,84.3%,0%);fill-opacity:1;" d="M 68.777344 351.03125 C 68.777344 355.046875 62.75 355.046875 62.75 351.03125 C 62.75 347.011719 68.777344 347.011719 68.777344 351.03125 "/>
<path style=" stroke:none;fill-rule:nonzero;fill:rgb(100%,84.3%,0%);fill-opacity:1;" d="M 113.917969 342.355469 C 113.917969 346.375 107.890625 346.375 107.890625 342.355469 C 107.890625 338.339844 113.917969 338.339844 113.917969 342.355469 "/>
<path style=" stroke:none;fill-rule:nonzero;fill:rgb(100%,84.3%,0%);fill-opacity:1;" d="M 320.105469 351.1875 C 320.105469 355.207031 314.078125 355.207031 314.078125 351.1875 C 314.078125 347.171875 320.105469 347.171875 320.105469 351.1875 "/>
<path style=" stroke:none;fill-rule:nonzero;fill:rgb(100%,84.3%,0%);fill-opacity:1;" d="M 73.980469 325.960938 C 73.980469 329.976562 67.957031 329.976562 67.957031 325.960938 C 67.957031 321.941406 73.980469 321.941406 73.980469 325.960938 "/>
<path style=" stroke:none;fill-rule:nonzero;fill:rgb(100%,84.3%,0%);fill-opacity:1;" d="M 170.980469 136.773438 C 170.980469 140.792969 164.953125 140.792969 164.953125 136.773438 C 164.953125 132.757812 170.980469 132.757812 170.980469 136.773438 "/>
<path style=" stroke:none;fill-rule:nonzero;fill:rgb(100%,84.3%,0%);fill-opacity:1;" d="M 54.683594 160.507812 C 54.683594 164.527344 48.65625 164.527344 48.65625 160.507812 C 48.65625 156.492188 54.683594 156.492188 54.683594 160.507812 "/>
<path style=" stroke:none;fill-rule:nonzero;fill:rgb(100%,84.3%,0%);fill-opacity:1;" d="M 283.628906 365.785156 C 283.628906 369.800781 277.605469 369.800781 277.605469 365.785156 C 277.605469 361.765625 283.628906 361.765625 283.628906 365.785156 "/>
<path style=" stroke:none;fill-rule:nonzero;fill:rgb(100%,84.3%,0%);fill-opacity:1;" d="M 268.796875 374.222656 C 268.796875 378.238281 262.769531 378.238281 262.769531 374.222656 C 262.769531 370.203125 268.796875 370.203125 268.796875 374.222656 "/>
<path style=" stroke:none;fill-rule:nonzero;fill:rgb(100%,84.3%,0%);fill-opacity:1;" d="M 58.082031 145.121094 C 58.082031 149.140625 52.058594 149.140625 52.058594 145.121094 C 52.058594 141.105469 58.082031 141.105469 58.082031 145.121094 "/>
<path style=" stroke:none;fill-rule:nonzero;fill:rgb(100%,84.3%,0%);fill-opacity:1;" d="M 275.886719 148.027344 C 275.886719 152.042969 269.859375 152.042969 269.859375 148.027344 C 269.859375 144.007812 275.886719 144.007812 275.886719 148.027344 "/>
<path style=" stroke:none;fill-rule:nonzero;fill:rgb(100%,84.3%,0%);fill-opacity:1;" d="M 185.996094 357.722656 C 185.996094 361.738281 179.96875 361.738281 179.96875 357.722656 C 179.96875 353.703125 185.996094 353.703125 185.996094 357.722656 "/>
<path style=" stroke:none;fill-rule:nonzero;fill:rgb(100%,84.3%,0%);fill-opacity:1;" d="M 123.320312 149.320312 C 123.320312 153.339844 117.296875 153.339844 117.296875 149.320312 C 117.296875 145.304688 123.320312 145.304688 123.320312 149.320312 "/>
<path style=" stroke:none;fill-rule:nonzero;fill:rgb(100%,84.3%,0%);fill-opacity:1;" d="M 311.234375 140.039062 C 311.234375 144.058594 305.207031 144.058594 305.207031 140.039062 C 305.207031 136.023438 311.234375 136.023438 311.234375 140.039062 "/>
<path style=" stroke:none;fill-rule:nonzero;fill:rgb(100%,84.3%,0%);fill-opacity:1;" d="M 407.921875 141.835938 C 407.921875 145.855469 401.898438 145.855469 401.898438 141.835938 C 401.898438 137.820312 407.921875 137.820312 407.921875 141.835938 "/>
<path style=" stroke:none;fill-rule:nonzero;fill:rgb(100%,84.3%,0%);fill-opacity:1;" d="M 259.246094 166.148438 C 259.246094 170.167969 253.222656 170.167969 253.222656 166.148438 C 253.222656 162.132812 259.246094 162.132812 259.246094 166.148438 "/>
<path style=" stroke:none;fill-rule:nonzero;fill:rgb(100%,84.3%,0%);fill-opacity:1;" d="M 69.511719 180.671875 C 69.511719 184.691406 63.484375 184.691406 63.484375 180.671875 C 63.484375 176.65625 69.511719 176.65625 69.511719 180.671875 "/>
<path style=" stroke:none;fill-rule:nonzero;fill:rgb(100%,84.3%,0%);fill-opacity:1;" d="M 58.691406 304.882812 C 58.691406 308.898438 52.664062 308.898438 52.664062 304.882812 C 52.664062 300.863281 58.691406 300.863281 58.691406 304.882812 "/>
<path style=" stroke:none;fill-rule:nonzero;fill:rgb(100%,84.3%,0%);fill-opacity:1;" d="M 381.925781 366.328125 C 381.925781 370.34375 375.902344 370.34375 375.902344 366.328125 C 375.902344 362.308594 381.925781 362.308594 381.925781 366.328125 "/>
<path style=" stroke:none;fill-rule:nonzero;fill:rgb(100%,84.3%,0%);fill-opacity:1;" d="M 253.722656 349.15625 C 253.722656 353.171875 247.695312 353.171875 247.695312 349.15625 C 247.695312 345.136719 253.722656 345.136719 253.722656 349.15625 "/>
<path style=" stroke:none;fill-rule:nonzero;fill:rgb(100%,84.3%,0%);fill-opacity:1;" d="M 414.984375 362.671875 C 414.984375 366.691406 408.960938 366.691406 408.960938 362.671875 C 408.960938 358.65625 414.984375 358.65625 414.984375 362.671875 "/>
<path style=" stroke:none;fill-rule:nonzero;fill:rgb(100%,84.3%,0%);fill-opacity:1;" d="M 393.410156 234.597656 C 393.410156 238.613281 387.382812 238.613281 387.382812 234.597656 C 387.382812 230.578125 393.410156 230.578125 393.410156 234.597656 "/>
<path style=" stroke:none;fill-rule:nonzero;fill:rgb(100%,84.3%,0%);fill-opacity:1;" d="M 425.242188 362.898438 C 425.242188 366.914062 419.214844 366.914062 419.214844 362.898438 C 419.214844 358.878906 425.242188 358.878906 425.242188 362.898438 "/>
<path style=" stroke:none;fill-rule:nonzero;fill:rgb(100%,84.3%,0%);fill-opacity:1;" d="M 235.292969 139.148438 C 235.292969 143.167969 229.265625 143.167969 229.265625 139.148438 C 229.265625 135.132812 235.292969 135.132812 235.292969 139.148438 "/>
<path style=" stroke:none;fill-rule:nonzero;fill:rgb(100%,84.3%,0%);fill-opacity:1;" d="M 212.257812 142.574219 C 212.257812 146.589844 206.230469 146.589844 206.230469 142.574219 C 206.230469 138.554688 212.257812 138.554688 212.257812 142.574219 "/>
<path style=" stroke:none;fill-rule:nonzero;fill:rgb(100%,84.3%,0%);fill-opacity:1;" d="M 144.398438 267.597656 C 144.398438 271.613281 138.371094 271.613281 138.371094 267.597656 C 138.371094 263.578125 144.398438 263.578125 144.398438 267.597656 "/>
<path style=" stroke:none;fill-rule:nonzero;fill:rgb(100%,84.3%,0%);fill-opacity:1;" d="M 270.71875 243.632812 C 270.71875 247.648438 264.695312 247.648438 264.695312 243.632812 C 264.695312 239.613281 270.71875 239.613281 270.71875 243.632812 "/>
<path style=" stroke:none;fill-rule:nonzero;fill:rgb(100%,84.3%,0%);fill-opacity:1;" d="M 183.535156 165.714844 C 183.535156 169.730469 177.511719 169.730469 177.511719 165.714844 C 177.511719 161.695312 183.535156 161.695312 183.535156 165.714844 "/>
<path style=" stroke:none;fill-rule:nonzero;fill:rgb(100%,84.3%,0%);fill-opacity:1;" d="M 361.398438 361.433594 C 361.398438 365.453125 355.371094 365.453125 355.371094 361.433594 C 355.371094 357.417969 361.398438 357.417969 361.398438 361.433594 "/>
<path style=" stroke:none;fill-rule:nonzero;fill:rgb(100%,84.3%,0%);fill-opacity:1;" d="M 52.699219 244.71875 C 52.699219 248.734375 46.671875 248.734375 46.671875 244.71875 C 46.671875 240.699219 52.699219 240.699219 52.699219 244.71875 "/>
<path style=" stroke:none;fill-rule:nonzero;fill:rgb(100%,84.3%,0%);fill-opacity:1;" d="M 452.050781 261.132812 C 452.050781 265.148438 446.023438 265.148438 446.023438 261.132812 C 446.023438 257.113281 452.050781 257.113281 452.050781 261.132812 "/>
<path style=" stroke:none;fill-rule:nonzero;fill:rgb(100%,84.3%,0%);fill-opacity:1;" d="M 401.992188 370.308594 C 401.992188 374.328125 395.96875 374.328125 395.96875 370.308594 C 395.96875 366.292969 401.992188 366.292969 401.992188 370.308594 "/>
<path style=" stroke:none;fill-rule:nonzero;fill:rgb(100%,84.3%,0%);fill-opacity:1;" d="M 58.574219 183.523438 C 58.574219 187.542969 52.546875 187.542969 52.546875 183.523438 C 52.546875 179.507812 58.574219 179.507812 58.574219 183.523438 "/>
<path style=" stroke:none;fill-rule:nonzero;fill:rgb(100%,84.3%,0%);fill-opacity:1;" d="M 339.273438 362.238281 C 339.273438 366.253906 333.25 366.253906 333.25 362.238281 C 333.25 358.21875 339.273438 358.21875 339.273438 362.238281 "/>
<path style=" stroke:none;fill-rule:nonzero;fill:rgb(100%,84.3%,0%);fill-opacity:1;" d="M 87.714844 361.621094 C 87.714844 365.640625 81.6875 365.640625 81.6875 361.621094 C 81.6875 357.605469 87.714844 357.605469 87.714844 361.621094 "/>
<path style=" stroke:none;fill-rule:nonzero;fill:rgb(100%,84.3%,0%);fill-opacity:1;" d="M 226.394531 375.03125 C 226.394531 379.046875 220.367188 379.046875 220.367188 375.03125 C 220.367188 371.011719 226.394531 371.011719 226.394531 375.03125 "/>
<path style=" stroke:none;fill-rule:nonzero;fill:rgb(100%,84.3%,0%);fill-opacity:1;" d="M 246.691406 137.210938 C 246.691406 141.226562 240.664062 141.226562 240.664062 137.210938 C 240.664062 133.191406 246.691406 133.191406 246.691406 137.210938 "/>
<path style=" stroke:none;fill-rule:nonzero;fill:rgb(100%,84.3%,0%);fill-opacity:1;" d="M 106.207031 375.746094 C 106.207031 379.765625 100.179688 379.765625 100.179688 375.746094 C 100.179688 371.730469 106.207031 371.730469 106.207031 375.746094 "/>
<path style=" stroke:none;fill-rule:nonzero;fill:rgb(100%,84.3%,0%);fill-opacity:1;" d="M 417.023438 353.441406 C 417.023438 357.457031 411 357.457031 411 353.441406 C 411 349.421875 417.023438 349.421875 417.023438 353.441406 "/>
<path style=" stroke:none;fill-rule:nonzero;fill:rgb(100%,84.3%,0%);fill-opacity:1;" d="M 312.386719 170.921875 C 312.386719 174.9375 306.363281 174.9375 306.363281 170.921875 C 306.363281 166.902344 312.386719 166.902344 312.386719 170.921875 "/>
<path style=" stroke:none;fill-rule:nonzero;fill:rgb(100%,84.3%,0%);fill-opacity:1;" d="M 206.554688 157.84375 C 206.554688 161.863281 200.527344 161.863281 200.527344 157.84375 C 200.527344 153.828125 206.554688 153.828125 206.554688 157.84375 "/>
<path style=" stroke:none;fill-rule:nonzero;fill:rgb(100%,84.3%,0%);fill-opacity:1;" d="M 154.804688 155.808594 C 154.804688 159.828125 148.777344 159.828125 148.777344 155.808594 C 148.777344 151.792969 154.804688 151.792969 154.804688 155.808594 "/>
<path style=" stroke:none;fill-rule:nonzero;fill:rgb(100%,84.3%,0%);fill-opacity:1;" d="M 368.945312 164.75 C 368.945312 168.769531 362.917969 168.769531 362.917969 164.75 C 362.917969 160.734375 368.945312 160.734375 368.945312 164.75 "/>
<path style=" stroke:none;fill-rule:nonzero;fill:rgb(100%,84.3%,0%);fill-opacity:1;" d="M 167.796875 148.171875 C 167.796875 152.1875 161.773438 152.1875 161.773438 148.171875 C 161.773438 144.152344 167.796875 144.152344 167.796875 148.171875 "/>
<path style=" stroke:none;fill-rule:nonzero;fill:rgb(100%,84.3%,0%);fill-opacity:1;" d="M 107.96875 324.128906 C 107.96875 328.144531 101.941406 328.144531 101.941406 324.128906 C 101.941406 320.109375 107.96875 320.109375 107.96875 324.128906 "/>
<path style=" stroke:none;fill-rule:nonzero;fill:rgb(100%,84.3%,0%);fill-opacity:1;" d="M 70.726562 257.929688 C 70.726562 261.949219 64.699219 261.949219 64.699219 257.929688 C 64.699219 253.914062 70.726562 253.914062 70.726562 257.929688 "/>
<path style=" stroke:none;fill-rule:nonzero;fill:rgb(100%,84.3%,0%);fill-opacity:1;" d="M 368.023438 376.585938 C 368.023438 380.605469 361.996094 380.605469 361.996094 376.585938 C 361.996094 372.570312 368.023438 372.570312 368.023438 376.585938 "/>
<path style=" stroke:none;fill-rule:nonzero;fill:rgb(100%,84.3%,0%);fill-opacity:1;" d="M 94.339844 376.777344 C 94.339844 380.792969 88.316406 380.792969 88.316406 376.777344 C 88.316406 372.757812 94.339844 372.757812 94.339844 376.777344 "/>
<path style=" stroke:none;fill-rule:nonzero;fill:rgb(100%,84.3%,0%);fill-opacity:1;" d="M 363.375 305.824219 C 363.375 309.839844 357.347656 309.839844 357.347656 305.824219 C 357.347656 301.804688 363.375 301.804688 363.375 305.824219 "/>
<path style=" stroke:none;fill-rule:nonzero;fill:rgb(100%,84.3%,0%);fill-opacity:1;" d="M 221.152344 148.953125 C 221.152344 152.96875 215.128906 152.96875 215.128906 148.953125 C 215.128906 144.933594 221.152344 144.933594 221.152344 148.953125 "/>
<path style=" stroke:none;fill-rule:nonzero;fill:rgb(100%,84.3%,0%);fill-opacity:1;" d="M 407.027344 148.902344 C 407.027344 152.917969 401 152.917969 401 148.902344 C 401 144.882812 407.027344 144.882812 407.027344 148.902344 "/>
<path style=" stroke:none;fill-rule:nonzero;fill:rgb(100%,84.3%,0%);fill-opacity:1;" d="M 51.949219 168.371094 C 51.949219 172.386719 45.921875 172.386719 45.921875 168.371094 C 45.921875 164.351562 51.949219 164.351562 51.949219 168.371094 "/>
<path style=" stroke:none;fill-rule:nonzero;fill:rgb(100%,84.3%,0%);fill-opacity:1;" d="M 421.84375 136.023438 C 421.84375 140.039062 415.816406 140.039062 415.816406 136.023438 C 415.816406 132.003906 421.84375 132.003906 421.84375 136.023438 "/>
<path style=" stroke:none;fill-rule:nonzero;fill:rgb(100%,84.3%,0%);fill-opacity:1;" d="M 266.265625 345.050781 C 266.265625 349.066406 260.238281 349.066406 260.238281 345.050781 C 260.238281 341.03125 266.265625 341.03125 266.265625 345.050781 "/>
<path style=" stroke:none;fill-rule:nonzero;fill:rgb(100%,84.3%,0%);fill-opacity:1;" d="M 465.535156 291.894531 C 465.535156 295.910156 459.507812 295.910156 459.507812 291.894531 C 459.507812 287.875 465.535156 287.875 465.535156 291.894531 "/>
<path style=" stroke:none;fill-rule:nonzero;fill:rgb(100%,84.3%,0%);fill-opacity:1;" d="M 70.539062 299.410156 C 70.539062 303.425781 64.511719 303.425781 64.511719 299.410156 C 64.511719 295.390625 70.539062 295.390625 70.539062 299.410156 "/>
<path style=" stroke:none;fill-rule:nonzero;fill:rgb(100%,84.3%,0%);fill-opacity:1;" d="M 436.945312 198.574219 C 436.945312 202.59375 430.921875 202.59375 430.921875 198.574219 C 430.921875 194.558594 436.945312 194.558594 436.945312 198.574219 "/>
<path style=" stroke:none;fill-rule:nonzero;fill:rgb(100%,84.3%,0%);fill-opacity:1;" d="M 313.96875 374.4375 C 313.96875 378.453125 307.945312 378.453125 307.945312 374.4375 C 307.945312 370.417969 313.96875 370.417969 313.96875 374.4375 "/>
<path style=" stroke:none;fill-rule:nonzero;fill:rgb(100%,84.3%,0%);fill-opacity:1;" d="M 151.808594 367.984375 C 151.808594 372.003906 145.785156 372.003906 145.785156 367.984375 C 145.785156 363.96875 151.808594 363.96875 151.808594 367.984375 "/>
<path style=" stroke:none;fill-rule:nonzero;fill:rgb(100%,84.3%,0%);fill-opacity:1;" d="M 248.515625 374.226562 C 248.515625 378.246094 242.488281 378.246094 242.488281 374.226562 C 242.488281 370.210938 248.515625 370.210938 248.515625 374.226562 "/>
<path style=" stroke:none;fill-rule:nonzero;fill:rgb(100%,84.3%,0%);fill-opacity:1;" d="M 194.660156 363.644531 C 194.660156 367.660156 188.636719 367.660156 188.636719 363.644531 C 188.636719 359.625 194.660156 359.625 194.660156 363.644531 "/>
<path style=" stroke:none;fill-rule:nonzero;fill:rgb(100%,84.3%,0%);fill-opacity:1;" d="M 337.003906 371.011719 C 337.003906 375.03125 330.976562 375.03125 330.976562 371.011719 C 330.976562 366.996094 337.003906 366.996094 337.003906 371.011719 "/>
<path style=" stroke:none;fill-rule:nonzero;fill:rgb(100%,84.3%,0%);fill-opacity:1;" d="M 75.386719 361.738281 C 75.386719 365.757812 69.359375 365.757812 69.359375 361.738281 C 69.359375 357.722656 75.386719 357.722656 75.386719 361.738281 "/>
<path style=" stroke:none;fill-rule:nonzero;fill:rgb(100%,84.3%,0%);fill-opacity:1;" d="M 151.398438 199.792969 C 151.398438 203.8125 145.375 203.8125 145.375 199.792969 C 145.375 195.777344 151.398438 195.777344 151.398438 199.792969 "/>
<path style=" stroke:none;fill-rule:nonzero;fill:rgb(100%,84.3%,0%);fill-opacity:1;" d="M 252.085938 312.917969 C 252.085938 316.9375 246.058594 316.9375 246.058594 312.917969 C 246.058594 308.902344 252.085938 308.902344 252.085938 312.917969 "/>
<path style=" stroke:none;fill-rule:nonzero;fill:rgb(100%,84.3%,0%);fill-opacity:1;" d="M 462.90625 145.808594 C 462.90625 149.828125 456.878906 149.828125 456.878906 145.808594 C 456.878906 141.792969 462.90625 141.792969 462.90625 145.808594 "/>
<path style=" stroke:none;fill-rule:nonzero;fill:rgb(100%,84.3%,0%);fill-opacity:1;" d="M 149.769531 134.957031 C 149.769531 138.972656 143.746094 138.972656 143.746094 134.957031 C 143.746094 130.9375 149.769531 130.9375 149.769531 134.957031 "/>
<path style=" stroke:none;fill-rule:nonzero;fill:rgb(100%,84.3%,0%);fill-opacity:1;" d="M 182.597656 373.105469 C 182.597656 377.121094 176.570312 377.121094 176.570312 373.105469 C 176.570312 369.085938 182.597656 369.085938 182.597656 373.105469 "/>
<path style=" stroke:none;fill-rule:nonzero;fill:rgb(100%,84.3%,0%);fill-opacity:1;" d="M 54.710938 197.996094 C 54.710938 202.015625 48.6875 202.015625 48.6875 197.996094 C 48.6875 193.980469 54.710938 193.980469 54.710938 197.996094 "/>
<path style=" stroke:none;fill-rule:nonzero;fill:rgb(100%,84.3%,0%);fill-opacity:1;" d="M 272.890625 360.203125 C 272.890625 364.222656 266.867188 364.222656 266.867188 360.203125 C 266.867188 356.1875 272.890625 356.1875 272.890625 360.203125 "/>
<path style=" stroke:none;fill-rule:nonzero;fill:rgb(100%,84.3%,0%);fill-opacity:1;" d="M 443.136719 250.308594 C 443.136719 254.324219 437.109375 254.324219 437.109375 250.308594 C 437.109375 246.289062 443.136719 246.289062 443.136719 250.308594 "/>
<path style=" stroke:none;fill-rule:nonzero;fill:rgb(100%,84.3%,0%);fill-opacity:1;" d="M 79.625 264.308594 C 79.625 268.328125 73.597656 268.328125 73.597656 264.308594 C 73.597656 260.292969 79.625 260.292969 79.625 264.308594 "/>
<path style=" stroke:none;fill-rule:nonzero;fill:rgb(100%,84.3%,0%);fill-opacity:1;" d="M 466.304688 372.683594 C 466.304688 376.703125 460.277344 376.703125 460.277344 372.683594 C 460.277344 368.667969 466.304688 368.667969 466.304688 372.683594 "/>
<path style=" stroke:none;fill-rule:nonzero;fill:rgb(100%,84.3%,0%);fill-opacity:1;" d="M 336.898438 282.699219 C 336.898438 286.714844 330.871094 286.714844 330.871094 282.699219 C 330.871094 278.679688 336.898438 278.679688 336.898438 282.699219 "/>
<path style=" stroke:none;fill-rule:nonzero;fill:rgb(100%,84.3%,0%);fill-opacity:1;" d="M 306.414062 357.460938 C 306.414062 361.476562 300.390625 361.476562 300.390625 357.460938 C 300.390625 353.441406 306.414062 353.441406 306.414062 357.460938 "/>
<path style=" stroke:none;fill-rule:nonzero;fill:rgb(100%,84.3%,0%);fill-opacity:1;" d="M 231.179688 148.722656 C 231.179688 152.738281 225.152344 152.738281 225.152344 148.722656 C 225.152344 144.703125 231.179688 144.703125 231.179688 148.722656 "/>
<path style=" stroke:none;fill-rule:nonzero;fill:rgb(100%,84.3%,0%);fill-opacity:1;" d="M 257.414062 138.347656 C 257.414062 142.363281 251.386719 142.363281 251.386719 138.347656 C 251.386719 134.328125 257.414062 134.328125 257.414062 138.347656 "/>
<path style=" stroke:none;fill-rule:nonzero;fill:rgb(100%,84.3%,0%);fill-opacity:1;" d="M 451.226562 347.621094 C 451.226562 351.636719 445.199219 351.636719 445.199219 347.621094 C 445.199219 343.601562 451.226562 343.601562 451.226562 347.621094 "/>
<path style=" stroke:none;fill-rule:nonzero;fill:rgb(100%,84.3%,0%);fill-opacity:1;" d="M 249.4375 162.390625 C 249.4375 166.410156 243.410156 166.410156 243.410156 162.390625 C 243.410156 158.375 249.4375 158.375 249.4375 162.390625 "/>
<path style=" stroke:none;fill-rule:nonzero;fill:rgb(100%,84.3%,0%);fill-opacity:1;" d="M 132.460938 189.199219 C 132.460938 193.21875 126.4375 193.21875 126.4375 189.199219 C 126.4375 185.183594 132.460938 185.183594 132.460938 189.199219 "/>
<path style=" stroke:none;fill-rule:nonzero;fill:rgb(100%,84.3%,0%);fill-opacity:1;" d="M 216.351562 370.816406 C 216.351562 374.835938 210.324219 374.835938 210.324219 370.816406 C 210.324219 366.800781 216.351562 366.800781 216.351562 370.816406 "/>
<path style=" stroke:none;fill-rule:nonzero;fill:rgb(100%,84.3%,0%);fill-opacity:1;" d="M 127.445312 172.792969 C 127.445312 176.8125 121.417969 176.8125 121.417969 172.792969 C 121.417969 168.777344 127.445312 168.777344 127.445312 172.792969 "/>
<path style=" stroke:none;fill-rule:nonzero;fill:rgb(100%,84.3%,0%);fill-opacity:1;" d="M 57.449219 190.132812 C 57.449219 194.152344 51.421875 194.152344 51.421875 190.132812 C 51.421875 186.117188 57.449219 186.117188 57.449219 190.132812 "/>
<path style=" stroke:none;fill-rule:nonzero;fill:rgb(100%,84.3%,0%);fill-opacity:1;" d="M 272.230469 367.726562 C 272.230469 371.742188 266.203125 371.742188 266.203125 367.726562 C 266.203125 363.707031 272.230469 363.707031 272.230469 367.726562 "/>
<path style=" stroke:none;fill-rule:nonzero;fill:rgb(100%,84.3%,0%);fill-opacity:1;" d="M 326.960938 366.800781 C 326.960938 370.816406 320.9375 370.816406 320.9375 366.800781 C 320.9375 362.78125 326.960938 362.78125 326.960938 366.800781 "/>
<path style=" stroke:none;fill-rule:nonzero;fill:rgb(100%,84.3%,0%);fill-opacity:1;" d="M 359.84375 195.40625 C 359.84375 199.421875 353.816406 199.421875 353.816406 195.40625 C 353.816406 191.386719 359.84375 191.386719 359.84375 195.40625 "/>
<path style=" stroke:none;fill-rule:nonzero;fill:rgb(100%,84.3%,0%);fill-opacity:1;" d="M 52.746094 286.652344 C 52.746094 290.667969 46.71875 290.667969 46.71875 286.652344 C 46.71875 282.632812 52.746094 282.632812 52.746094 286.652344 "/>
<path style=" stroke:none;fill-rule:nonzero;fill:rgb(100%,84.3%,0%);fill-opacity:1;" d="M 298.714844 181.636719 C 298.714844 185.652344 292.691406 185.652344 292.691406 181.636719 C 292.691406 177.617188 298.714844 177.617188 298.714844 181.636719 "/>
<path style=" stroke:none;fill-rule:nonzero;fill:rgb(100%,84.3%,0%);fill-opacity:1;" d="M 121.453125 354.890625 C 121.453125 358.90625 115.429688 358.90625 115.429688 354.890625 C 115.429688 350.871094 121.453125 350.871094 121.453125 354.890625 "/>
<path style=" stroke:none;fill-rule:nonzero;fill:rgb(100%,84.3%,0%);fill-opacity:1;" d="M 272.613281 317.8125 C 272.613281 321.832031 266.589844 321.832031 266.589844 317.8125 C 266.589844 313.796875 272.613281 313.796875 272.613281 317.8125 "/>
<path style=" stroke:none;fill-rule:nonzero;fill:rgb(100%,84.3%,0%);fill-opacity:1;" d="M 385.351562 146.171875 C 385.351562 150.191406 379.328125 150.191406 379.328125 146.171875 C 379.328125 142.15625 385.351562 142.15625 385.351562 146.171875 "/>
<path style=" stroke:none;fill-rule:nonzero;fill:rgb(100%,84.3%,0%);fill-opacity:1;" d="M 103.035156 177.929688 C 103.035156 181.945312 97.007812 181.945312 97.007812 177.929688 C 97.007812 173.910156 103.035156 173.910156 103.035156 177.929688 "/>
<path style=" stroke:none;fill-rule:nonzero;fill:rgb(100%,84.3%,0%);fill-opacity:1;" d="M 168.257812 177.683594 C 168.257812 181.699219 162.230469 181.699219 162.230469 177.683594 C 162.230469 173.664062 168.257812 173.664062 168.257812 177.683594 "/>
<path style=" stroke:none;fill-rule:nonzero;fill:rgb(100%,84.3%,0%);fill-opacity:1;" d="M 374.632812 145.035156 C 374.632812 149.054688 368.605469 149.054688 368.605469 145.035156 C 368.605469 141.019531 374.632812 141.019531 374.632812 145.035156 "/>
<path style=" stroke:none;fill-rule:nonzero;fill:rgb(100%,84.3%,0%);fill-opacity:1;" d="M 157.464844 339.382812 C 157.464844 343.398438 151.4375 343.398438 151.4375 339.382812 C 151.4375 335.363281 157.464844 335.363281 157.464844 339.382812 "/>
<path style=" stroke:none;fill-rule:nonzero;fill:rgb(100%,84.3%,0%);fill-opacity:1;" d="M 150.246094 168.914062 C 150.246094 172.929688 144.21875 172.929688 144.21875 168.914062 C 144.21875 164.894531 150.246094 164.894531 150.246094 168.914062 "/>
<path style=" stroke:none;fill-rule:nonzero;fill:rgb(100%,84.3%,0%);fill-opacity:1;" d="M 435.730469 363.578125 C 435.730469 367.59375 429.703125 367.59375 429.703125 363.578125 C 429.703125 359.558594 435.730469 359.558594 435.730469 363.578125 "/>
<path style=" stroke:none;fill-rule:nonzero;fill:rgb(100%,84.3%,0%);fill-opacity:1;" d="M 82.941406 136.457031 C 82.941406 140.472656 76.914062 140.472656 76.914062 136.457031 C 76.914062 132.4375 82.941406 132.4375 82.941406 136.457031 "/>
<path style=" stroke:none;fill-rule:nonzero;fill:rgb(100%,84.3%,0%);fill-opacity:1;" d="M 209.011719 349.851562 C 209.011719 353.867188 202.988281 353.867188 202.988281 349.851562 C 202.988281 345.832031 209.011719 345.832031 209.011719 349.851562 "/>
<path style=" stroke:none;fill-rule:nonzero;fill:rgb(100%,84.3%,0%);fill-opacity:1;" d="M 78.398438 154.007812 C 78.398438 158.023438 72.371094 158.023438 72.371094 154.007812 C 72.371094 149.988281 78.398438 149.988281 78.398438 154.007812 "/>
<path style=" stroke:none;fill-rule:nonzero;fill:rgb(100%,84.3%,0%);fill-opacity:1;" d="M 439.550781 307.171875 C 439.550781 311.1875 433.523438 311.1875 433.523438 307.171875 C 433.523438 303.152344 439.550781 303.152344 439.550781 307.171875 "/>
<path style=" stroke:none;fill-rule:nonzero;fill:rgb(100%,84.3%,0%);fill-opacity:1;" d="M 463.074219 342.148438 C 463.074219 346.164062 457.046875 346.164062 457.046875 342.148438 C 457.046875 338.128906 463.074219 338.128906 463.074219 342.148438 "/>
<path style=" stroke:none;fill-rule:nonzero;fill:rgb(100%,84.3%,0%);fill-opacity:1;" d="M 341.3125 353.007812 C 341.3125 357.023438 335.289062 357.023438 335.289062 353.007812 C 335.289062 348.988281 341.3125 348.988281 341.3125 353.007812 "/>
<path style=" stroke:none;fill-rule:nonzero;fill:rgb(100%,84.3%,0%);fill-opacity:1;" d="M 84.09375 167.335938 C 84.09375 171.355469 78.070312 171.355469 78.070312 167.335938 C 78.070312 163.320312 84.09375 163.320312 84.09375 167.335938 "/>
<path style=" stroke:none;fill-rule:nonzero;fill:rgb(100%,84.3%,0%);fill-opacity:1;" d="M 196.136719 236.589844 C 196.136719 240.605469 190.109375 240.605469 190.109375 236.589844 C 190.109375 232.570312 196.136719 232.570312 196.136719 236.589844 "/>
<path style=" stroke:none;fill-rule:nonzero;fill:rgb(100%,84.3%,0%);fill-opacity:1;" d="M 213.617188 136.421875 C 213.617188 140.4375 207.589844 140.4375 207.589844 136.421875 C 207.589844 132.402344 213.617188 132.402344 213.617188 136.421875 "/>
<path style=" stroke:none;fill-rule:nonzero;fill:rgb(100%,84.3%,0%);fill-opacity:1;" d="M 193.140625 206.503906 C 193.140625 210.523438 187.113281 210.523438 187.113281 206.503906 C 187.113281 202.488281 193.140625 202.488281 193.140625 206.503906 "/>
<path style=" stroke:none;fill-rule:nonzero;fill:rgb(100%,84.3%,0%);fill-opacity:1;" d="M 296.390625 357.691406 C 296.390625 361.707031 290.363281 361.707031 290.363281 357.691406 C 290.363281 353.671875 296.390625 353.671875 296.390625 357.691406 "/>
<path style=" stroke:none;fill-rule:nonzero;fill:rgb(100%,84.3%,0%);fill-opacity:1;" d="M 300.511719 138.902344 C 300.511719 142.921875 294.488281 142.921875 294.488281 138.902344 C 294.488281 134.886719 300.511719 134.886719 300.511719 138.902344 "/>
<path style=" stroke:none;fill-rule:nonzero;fill:rgb(100%,84.3%,0%);fill-opacity:1;" d="M 328.304688 356.199219 C 328.304688 360.21875 322.277344 360.21875 322.277344 356.199219 C 322.277344 352.183594 328.304688 352.183594 328.304688 356.199219 "/>
<path style=" stroke:none;fill-rule:nonzero;fill:rgb(100%,84.3%,0%);fill-opacity:1;" d="M 349.996094 363.375 C 349.996094 367.390625 343.96875 367.390625 343.96875 363.375 C 343.96875 359.355469 349.996094 359.355469 349.996094 363.375 "/>
<path style=" stroke:none;fill-rule:nonzero;fill:rgb(100%,84.3%,0%);fill-opacity:1;" d="M 134.273438 150.914062 C 134.273438 154.929688 128.25 154.929688 128.25 150.914062 C 128.25 146.894531 134.273438 146.894531 134.273438 150.914062 "/>
<path style=" stroke:none;fill-rule:nonzero;fill:rgb(100%,84.3%,0%);fill-opacity:1;" d="M 137.457031 139.519531 C 137.457031 143.535156 131.433594 143.535156 131.433594 139.519531 C 131.433594 135.5 137.457031 135.5 137.457031 139.519531 "/>
<path style=" stroke:none;fill-rule:nonzero;fill:rgb(100%,84.3%,0%);fill-opacity:1;" d="M 415.605469 313.214844 C 415.605469 317.234375 409.578125 317.234375 409.578125 313.214844 C 409.578125 309.199219 415.605469 309.199219 415.605469 313.214844 "/>
<path style=" stroke:none;fill-rule:nonzero;fill:rgb(100%,84.3%,0%);fill-opacity:1;" d="M 380.980469 360.058594 C 380.980469 364.078125 374.953125 364.078125 374.953125 360.058594 C 374.953125 356.042969 380.980469 356.042969 380.980469 360.058594 "/>
<path style=" stroke:none;fill-rule:nonzero;fill:rgb(100%,84.3%,0%);fill-opacity:1;" d="M 135.125 344.175781 C 135.125 348.191406 129.101562 348.191406 129.101562 344.175781 C 129.101562 340.15625 135.125 340.15625 135.125 344.175781 "/>
<path style=" stroke:none;fill-rule:nonzero;fill:rgb(100%,84.3%,0%);fill-opacity:1;" d="M 74.722656 369.261719 C 74.722656 373.277344 68.695312 373.277344 68.695312 369.261719 C 68.695312 365.242188 74.722656 365.242188 74.722656 369.261719 "/>
<path style=" stroke:none;fill-rule:nonzero;fill:rgb(100%,84.3%,0%);fill-opacity:1;" d="M 415.53125 233.792969 C 415.53125 237.8125 409.503906 237.8125 409.503906 233.792969 C 409.503906 229.777344 415.53125 229.777344 415.53125 233.792969 "/>
<path style=" stroke:none;fill-rule:nonzero;fill:rgb(100%,84.3%,0%);fill-opacity:1;" d="M 466.257812 330.75 C 466.257812 334.769531 460.234375 334.769531 460.234375 330.75 C 460.234375 326.734375 466.257812 326.734375 466.257812 330.75 "/>
</g>
</svg>
