<?xml version="1.0" encoding="UTF-8"?>
<svg xmlns="http://www.w3.org/2000/svg" xmlns:xlink="http://www.w3.org/1999/xlink" width="512pt" height="512pt" viewBox="0 0 512 512" version="1.1">
<g id="surface411">
<path style=" stroke:none;fill-rule:nonzero;fill:rgb(26.7%,26.7%,26.7%);fill-opacity:1;" d="M 202.867188 0 L 309.132812 0 L 309.132812 512 L 202.867188 512 Z M 202.867188 0 "/>
<path style=" stroke:none;fill-rule:nonzero;fill:rgb(19.2%,38.8%,66.7%);fill-opacity:1;" d="M 211.722656 42.667969 L 300.277344 42.667969 L 300.277344 469.332031 L 211.722656 469.332031 Z M 211.722656 42.667969 "/>
<path style=" stroke:none;fill-rule:nonzero;fill:rgb(90.6%,14.9%,14.9%);fill-opacity:1;" d="M 315.804688 -19.4375 C 315.804688 5.96875 295.207031 26.566406 269.800781 26.566406 C 244.394531 26.566406 223.800781 5.96875 223.800781 -19.4375 C 223.800781 -44.84375 244.394531 -65.4375 269.800781 -65.4375 C 295.207031 -65.4375 315.804688 -44.84375 315.804688 -19.4375 "/>
<path style=" stroke:none;fill-rule:nonzero;fill:rgb(90.6%,14.9%,14.9%);fill-opacity:1;" d="M 468.757812 515.910156 C 468.757812 519.722656 465.667969 522.808594 461.859375 522.808594 C 458.046875 522.808594 454.957031 519.722656 454.957031 515.910156 C 454.957031 512.097656 458.046875 509.007812 461.859375 509.007812 C 465.667969 509.007812 468.757812 512.097656 468.757812 515.910156 "/>
<path style=" stroke:none;fill-rule:nonzero;fill:rgb(90.6%,14.9%,14.9%);fill-opacity:1;" d="M 495.210938 208.273438 C 495.210938 212.71875 491.605469 216.324219 487.160156 216.324219 C 482.714844 216.324219 479.109375 212.71875 479.109375 208.273438 C 479.109375 203.828125 482.714844 200.222656 487.160156 200.222656 C 491.605469 200.222656 495.210938 203.828125 495.210938 208.273438 "/>
<path style=" stroke:none;fill-rule:nonzero;fill:rgb(90.6%,14.9%,14.9%);fill-opacity:1;" d="M 418.730469 293.949219 C 418.730469 307.289062 407.917969 318.101562 394.578125 318.101562 C 381.242188 318.101562 370.429688 307.289062 370.429688 293.949219 C 370.429688 280.613281 381.242188 269.800781 394.578125 269.800781 C 407.917969 269.800781 418.730469 280.613281 418.730469 293.949219 "/>
<path style=" stroke:none;fill-rule:nonzero;fill:rgb(90.6%,14.9%,14.9%);fill-opacity:1;" d="M 362.378906 145.019531 C 362.378906 150.101562 358.261719 154.222656 353.179688 154.222656 C 348.097656 154.222656 343.980469 150.101562 343.980469 145.019531 C 343.980469 139.941406 348.097656 135.820312 353.179688 135.820312 C 358.261719 135.820312 362.378906 139.941406 362.378906 145.019531 "/>
<path style=" stroke:none;fill-rule:nonzero;fill:rgb(90.6%,14.9%,14.9%);fill-opacity:1;" d="M 361.804688 302.003906 C 361.804688 306.765625 357.941406 310.628906 353.179688 310.628906 C 348.414062 310.628906 344.554688 306.765625 344.554688 302.003906 C 344.554688 297.238281 348.414062 293.375 353.179688 293.375 C 357.941406 293.375 361.804688 297.238281 361.804688 302.003906 "/>
<path style=" stroke:none;fill-rule:nonzero;fill:rgb(100%,100%,100%);fill-opacity:1;" d="M 460.707031 269.800781 C 460.707031 273.632812 454.957031 273.632812 454.957031 269.800781 C 454.957031 265.96875 460.707031 265.96875 460.707031 269.800781 "/>
<path style=" stroke:none;fill-rule:nonzero;fill:rgb(100%,100%,100%);fill-opacity:1;" d="M 448.058594 264.625 C 448.058594 268.457031 442.308594 268.457031 442.308594 264.625 C 442.308594 260.792969 448.058594 260.792969 448.058594 264.625 "/>
<path style=" stroke:none;fill-rule:nonzero;fill:rgb(100%,100%,100%);fill-opacity:1;" d="M 347.429688 396.304688 C 347.429688 400.136719 341.679688 400.136719 341.679688 396.304688 C 341.679688 392.472656 347.429688 392.472656 347.429688 396.304688 "/>
<path style=" stroke:none;fill-rule:nonzero;fill:rgb(100%,100%,100%);fill-opacity:1;" d="M 400.90625 441.730469 C 400.90625 445.566406 395.15625 445.566406 395.15625 441.730469 C 395.15625 437.898438 400.90625 437.898438 400.90625 441.730469 "/>
<path style=" stroke:none;fill-rule:nonzero;fill:rgb(100%,100%,100%);fill-opacity:1;" d="M 463.582031 39.21875 C 463.582031 43.050781 457.832031 43.050781 457.832031 39.21875 C 457.832031 35.382812 463.582031 35.382812 463.582031 39.21875 "/>
<path style=" stroke:none;fill-rule:nonzero;fill:rgb(100%,100%,100%);fill-opacity:1;" d="M 339.953125 169.746094 C 339.953125 173.582031 334.203125 173.582031 334.203125 169.746094 C 334.203125 165.914062 339.953125 165.914062 339.953125 169.746094 "/>
<path style=" stroke:none;fill-rule:nonzero;fill:rgb(100%,100%,100%);fill-opacity:1;" d="M 321.550781 436.558594 C 321.550781 440.390625 315.800781 440.390625 315.800781 436.558594 C 315.800781 432.722656 321.550781 432.722656 321.550781 436.558594 "/>
<path style=" stroke:none;fill-rule:nonzero;fill:rgb(100%,100%,100%);fill-opacity:1;" d="M 265.199219 472.207031 C 265.199219 476.042969 259.449219 476.042969 259.449219 472.207031 C 259.449219 468.375 265.199219 468.375 265.199219 472.207031 "/>
<path style=" stroke:none;fill-rule:nonzero;fill:rgb(100%,100%,100%);fill-opacity:1;" d="M 327.304688 85.792969 C 327.304688 89.625 321.554688 89.625 321.554688 85.792969 C 321.554688 81.960938 327.304688 81.960938 327.304688 85.792969 "/>
<path style=" stroke:none;fill-rule:nonzero;fill:rgb(100%,100%,100%);fill-opacity:1;" d="M 348.003906 260.601562 C 348.003906 264.433594 342.253906 264.433594 342.253906 260.601562 C 342.253906 256.765625 348.003906 256.765625 348.003906 260.601562 "/>
<path style=" stroke:none;fill-rule:nonzero;fill:rgb(100%,100%,100%);fill-opacity:1;" d="M 414.132812 93.269531 C 414.132812 97.101562 408.382812 97.101562 408.382812 93.269531 C 408.382812 89.433594 414.132812 89.433594 414.132812 93.269531 "/>
<path style=" stroke:none;fill-rule:nonzero;fill:rgb(100%,100%,100%);fill-opacity:1;" d="M 419.304688 438.28125 C 419.304688 442.117188 413.554688 442.117188 413.554688 438.28125 C 413.554688 434.449219 419.304688 434.449219 419.304688 438.28125 "/>
<path style=" stroke:none;fill-rule:nonzero;fill:rgb(100%,100%,100%);fill-opacity:1;" d="M 354.328125 503.835938 C 354.328125 507.667969 348.578125 507.667969 348.578125 503.835938 C 348.578125 500 354.328125 500 354.328125 503.835938 "/>
<path style=" stroke:none;fill-rule:nonzero;fill:rgb(100%,100%,100%);fill-opacity:1;" d="M 325.578125 16.789062 C 325.578125 20.625 319.828125 20.625 319.828125 16.789062 C 319.828125 12.957031 325.578125 12.957031 325.578125 16.789062 "/>
<path style=" stroke:none;fill-rule:nonzero;fill:rgb(100%,100%,100%);fill-opacity:1;" d="M 378.480469 200.222656 C 378.480469 204.054688 372.730469 204.054688 372.730469 200.222656 C 372.730469 196.390625 378.480469 196.390625 378.480469 200.222656 "/>
<path style=" stroke:none;fill-rule:nonzero;fill:rgb(100%,100%,100%);fill-opacity:1;" d="M 444.605469 128.921875 C 444.605469 132.753906 438.855469 132.753906 438.855469 128.921875 C 438.855469 125.085938 444.605469 125.085938 444.605469 128.921875 "/>
<path style=" stroke:none;fill-rule:nonzero;fill:rgb(100%,100%,100%);fill-opacity:1;" d="M 201.375 316.953125 C 201.375 320.785156 195.621094 320.785156 195.621094 316.953125 C 195.621094 313.117188 201.375 313.117188 201.375 316.953125 "/>
<path style=" stroke:none;fill-rule:nonzero;fill:rgb(100%,100%,100%);fill-opacity:1;" d="M 162.847656 140.421875 C 162.847656 144.253906 157.097656 144.253906 157.097656 140.421875 C 157.097656 136.585938 162.847656 136.585938 162.847656 140.421875 "/>
<path style=" stroke:none;fill-rule:nonzero;fill:rgb(100%,100%,100%);fill-opacity:1;" d="M 398.03125 354.328125 C 398.03125 358.164062 392.28125 358.164062 392.28125 354.328125 C 392.28125 350.496094 398.03125 350.496094 398.03125 354.328125 "/>
<path style=" stroke:none;fill-rule:nonzero;fill:rgb(100%,100%,100%);fill-opacity:1;" d="M 428.507812 402.632812 C 428.507812 406.464844 422.757812 406.464844 422.757812 402.632812 C 422.757812 398.796875 428.507812 398.796875 428.507812 402.632812 "/>
<path style=" stroke:none;fill-rule:nonzero;fill:rgb(100%,100%,100%);fill-opacity:1;" d="M 506.710938 479.683594 C 506.710938 483.515625 500.960938 483.515625 500.960938 479.683594 C 500.960938 475.851562 506.710938 475.851562 506.710938 479.683594 "/>
<path style=" stroke:none;fill-rule:nonzero;fill:rgb(100%,100%,100%);fill-opacity:1;" d="M 375.605469 444.605469 C 375.605469 448.441406 369.855469 448.441406 369.855469 444.605469 C 369.855469 440.773438 375.605469 440.773438 375.605469 444.605469 "/>
<path style=" stroke:none;fill-rule:nonzero;fill:rgb(100%,100%,100%);fill-opacity:1;" d="M 410.679688 186.421875 C 410.679688 190.253906 404.929688 190.253906 404.929688 186.421875 C 404.929688 182.589844 410.679688 182.589844 410.679688 186.421875 "/>
<path style=" stroke:none;fill-rule:nonzero;fill:rgb(100%,100%,100%);fill-opacity:1;" d="M 173.773438 212.296875 C 173.773438 216.132812 168.023438 216.132812 168.023438 212.296875 C 168.023438 208.464844 173.773438 208.464844 173.773438 212.296875 "/>
<path style=" stroke:none;fill-rule:nonzero;fill:rgb(100%,84.3%,0%);fill-opacity:1;" d="M 271.082031 460.914062 C 271.082031 464.75 265.332031 464.75 265.332031 460.914062 C 265.332031 457.082031 271.082031 457.082031 271.082031 460.914062 "/>
<path style=" stroke:none;fill-rule:nonzero;fill:rgb(100%,84.3%,0%);fill-opacity:1;" d="M 221.519531 133.546875 C 221.519531 137.378906 215.769531 137.378906 215.769531 133.546875 C 215.769531 129.714844 221.519531 129.714844 221.519531 133.546875 "/>
<path style=" stroke:none;fill-rule:nonzero;fill:rgb(100%,84.3%,0%);fill-opacity:1;" d="M 288.15625 323.1875 C 288.15625 327.019531 282.40625 327.019531 282.40625 323.1875 C 282.40625 319.355469 288.15625 319.355469 288.15625 323.1875 "/>
<path style=" stroke:none;fill-rule:nonzero;fill:rgb(100%,84.3%,0%);fill-opacity:1;" d="M 268.992188 279.6875 C 268.992188 283.523438 263.242188 283.523438 263.242188 279.6875 C 263.242188 275.855469 268.992188 275.855469 268.992188 279.6875 "/>
<path style=" stroke:none;fill-rule:nonzero;fill:rgb(100%,84.3%,0%);fill-opacity:1;" d="M 283.148438 281.996094 C 283.148438 285.828125 277.398438 285.828125 277.398438 281.996094 C 277.398438 278.164062 283.148438 278.164062 283.148438 281.996094 "/>
<path style=" stroke:none;fill-rule:nonzero;fill:rgb(100%,84.3%,0%);fill-opacity:1;" d="M 296.972656 463.386719 C 296.972656 467.21875 291.222656 467.21875 291.222656 463.386719 C 291.222656 459.554688 296.972656 459.554688 296.972656 463.386719 "/>
<path style=" stroke:none;fill-rule:nonzero;fill:rgb(100%,84.3%,0%);fill-opacity:1;" d="M 290.140625 204.257812 C 290.140625 208.09375 284.390625 208.09375 284.390625 204.257812 C 284.390625 200.425781 290.140625 200.425781 290.140625 204.257812 "/>
<path style=" stroke:none;fill-rule:nonzero;fill:rgb(100%,84.3%,0%);fill-opacity:1;" d="M 289.210938 183.757812 C 289.210938 187.59375 283.460938 187.59375 283.460938 183.757812 C 283.460938 179.925781 289.210938 179.925781 289.210938 183.757812 "/>
<path style=" stroke:none;fill-rule:nonzero;fill:rgb(100%,84.3%,0%);fill-opacity:1;" d="M 290.515625 124.195312 C 290.515625 128.027344 284.765625 128.027344 284.765625 124.195312 C 284.765625 120.359375 290.515625 120.359375 290.515625 124.195312 "/>
<path style=" stroke:none;fill-rule:nonzero;fill:rgb(100%,84.3%,0%);fill-opacity:1;" d="M 222.234375 101.128906 C 222.234375 104.960938 216.484375 104.960938 216.484375 101.128906 C 216.484375 97.292969 222.234375 97.292969 222.234375 101.128906 "/>
<path style=" stroke:none;fill-rule:nonzero;fill:rgb(100%,84.3%,0%);fill-opacity:1;" d="M 259.945312 48.695312 C 259.945312 52.53125 254.195312 52.53125 254.195312 48.695312 C 254.195312 44.863281 259.945312 44.863281 259.945312 48.695312 "/>
<path style=" stroke:none;fill-rule:nonzero;fill:rgb(100%,84.3%,0%);fill-opacity:1;" d="M 221.03125 404.011719 C 221.03125 407.84375 215.28125 407.84375 215.28125 404.011719 C 215.28125 400.175781 221.03125 400.175781 221.03125 404.011719 "/>
<path style=" stroke:none;fill-rule:nonzero;fill:rgb(100%,84.3%,0%);fill-opacity:1;" d="M 295.832031 88.0625 C 295.832031 91.894531 290.082031 91.894531 290.082031 88.0625 C 290.082031 84.226562 295.832031 84.226562 295.832031 88.0625 "/>
<path style=" stroke:none;fill-rule:nonzero;fill:rgb(100%,84.3%,0%);fill-opacity:1;" d="M 287.742188 361.074219 C 287.742188 364.910156 281.992188 364.910156 281.992188 361.074219 C 281.992188 357.242188 287.742188 357.242188 287.742188 361.074219 "/>
<path style=" stroke:none;fill-rule:nonzero;fill:rgb(100%,84.3%,0%);fill-opacity:1;" d="M 226.230469 184.503906 C 226.230469 188.335938 220.480469 188.335938 220.480469 184.503906 C 220.480469 180.671875 226.230469 180.671875 226.230469 184.503906 "/>
<path style=" stroke:none;fill-rule:nonzero;fill:rgb(100%,84.3%,0%);fill-opacity:1;" d="M 290.652344 92.757812 C 290.652344 96.589844 284.902344 96.589844 284.902344 92.757812 C 284.902344 88.925781 290.652344 88.925781 290.652344 92.757812 "/>
<path style=" stroke:none;fill-rule:nonzero;fill:rgb(100%,84.3%,0%);fill-opacity:1;" d="M 293.203125 251.902344 C 293.203125 255.734375 287.453125 255.734375 287.453125 251.902344 C 287.453125 248.066406 293.203125 248.066406 293.203125 251.902344 "/>
<path style=" stroke:none;fill-rule:nonzero;fill:rgb(100%,84.3%,0%);fill-opacity:1;" d="M 228.253906 311.632812 C 228.253906 315.464844 222.5 315.464844 222.5 311.632812 C 222.5 307.800781 228.253906 307.800781 228.253906 311.632812 "/>
<path style=" stroke:none;fill-rule:nonzero;fill:rgb(100%,84.3%,0%);fill-opacity:1;" d="M 288.5625 66.398438 C 288.5625 70.230469 282.8125 70.230469 282.8125 66.398438 C 282.8125 62.5625 288.5625 62.5625 288.5625 66.398438 "/>
<path style=" stroke:none;fill-rule:nonzero;fill:rgb(100%,84.3%,0%);fill-opacity:1;" d="M 285.601562 148.8125 C 285.601562 152.644531 279.851562 152.644531 279.851562 148.8125 C 279.851562 144.976562 285.601562 144.976562 285.601562 148.8125 "/>
<path style=" stroke:none;fill-rule:nonzero;fill:rgb(100%,84.3%,0%);fill-opacity:1;" d="M 240.394531 462.554688 C 240.394531 466.386719 234.644531 466.386719 234.644531 462.554688 C 234.644531 458.722656 240.394531 458.722656 240.394531 462.554688 "/>
<path style=" stroke:none;fill-rule:nonzero;fill:rgb(100%,84.3%,0%);fill-opacity:1;" d="M 222.046875 222.402344 C 222.046875 226.238281 216.296875 226.238281 216.296875 222.402344 C 216.296875 218.570312 222.046875 218.570312 222.046875 222.402344 "/>
<path style=" stroke:none;fill-rule:nonzero;fill:rgb(100%,84.3%,0%);fill-opacity:1;" d="M 231.898438 169.644531 C 231.898438 173.476562 226.148438 173.476562 226.148438 169.644531 C 226.148438 165.8125 231.898438 165.8125 231.898438 169.644531 "/>
<path style=" stroke:none;fill-rule:nonzero;fill:rgb(100%,84.3%,0%);fill-opacity:1;" d="M 289.636719 429.230469 C 289.636719 433.066406 283.886719 433.066406 283.886719 429.230469 C 283.886719 425.398438 289.636719 425.398438 289.636719 429.230469 "/>
<path style=" stroke:none;fill-rule:nonzero;fill:rgb(100%,84.3%,0%);fill-opacity:1;" d="M 287.050781 446.8125 C 287.050781 450.644531 281.300781 450.644531 281.300781 446.8125 C 281.300781 442.980469 287.050781 442.980469 287.050781 446.8125 "/>
<path style=" stroke:none;fill-rule:nonzero;fill:rgb(100%,84.3%,0%);fill-opacity:1;" d="M 295.667969 149.183594 C 295.667969 153.015625 289.914062 153.015625 289.914062 149.183594 C 289.914062 145.347656 295.667969 145.347656 295.667969 149.183594 "/>
<path style=" stroke:none;fill-rule:nonzero;fill:rgb(100%,84.3%,0%);fill-opacity:1;" d="M 223.605469 152.289062 C 223.605469 156.125 217.855469 156.125 217.855469 152.289062 C 217.855469 148.457031 223.605469 148.457031 223.605469 152.289062 "/>
<path style=" stroke:none;fill-rule:nonzero;fill:rgb(100%,84.3%,0%);fill-opacity:1;" d="M 220.605469 256.773438 C 220.605469 260.609375 214.855469 260.609375 214.855469 256.773438 C 214.855469 252.941406 220.605469 252.941406 220.605469 256.773438 "/>
<path style=" stroke:none;fill-rule:nonzero;fill:rgb(100%,84.3%,0%);fill-opacity:1;" d="M 293.777344 454.796875 C 293.777344 458.632812 288.027344 458.632812 288.027344 454.796875 C 288.027344 450.964844 293.777344 450.964844 293.777344 454.796875 "/>
<path style=" stroke:none;fill-rule:nonzero;fill:rgb(100%,84.3%,0%);fill-opacity:1;" d="M 271.054688 448.996094 C 271.054688 452.828125 265.304688 452.828125 265.304688 448.996094 C 265.304688 445.160156 271.054688 445.160156 271.054688 448.996094 "/>
<path style=" stroke:none;fill-rule:nonzero;fill:rgb(100%,84.3%,0%);fill-opacity:1;" d="M 292.085938 401.6875 C 292.085938 405.523438 286.335938 405.523438 286.335938 401.6875 C 286.335938 397.855469 292.085938 397.855469 292.085938 401.6875 "/>
<path style=" stroke:none;fill-rule:nonzero;fill:rgb(100%,84.3%,0%);fill-opacity:1;" d="M 296.214844 185.503906 C 296.214844 189.335938 290.464844 189.335938 290.464844 185.503906 C 290.464844 181.667969 296.214844 181.667969 296.214844 185.503906 "/>
<path style=" stroke:none;fill-rule:nonzero;fill:rgb(100%,84.3%,0%);fill-opacity:1;" d="M 220.375 320.636719 C 220.375 324.46875 214.625 324.46875 214.625 320.636719 C 214.625 316.804688 220.375 316.804688 220.375 320.636719 "/>
<path style=" stroke:none;fill-rule:nonzero;fill:rgb(100%,84.3%,0%);fill-opacity:1;" d="M 283.867188 53.523438 C 283.867188 57.359375 278.117188 57.359375 278.117188 53.523438 C 278.117188 49.691406 283.867188 49.691406 283.867188 53.523438 "/>
<path style=" stroke:none;fill-rule:nonzero;fill:rgb(100%,84.3%,0%);fill-opacity:1;" d="M 221.355469 209.902344 C 221.355469 213.738281 215.605469 213.738281 215.605469 209.902344 C 215.605469 206.070312 221.355469 206.070312 221.355469 209.902344 "/>
<path style=" stroke:none;fill-rule:nonzero;fill:rgb(100%,84.3%,0%);fill-opacity:1;" d="M 294.769531 49.984375 C 294.769531 53.816406 289.019531 53.816406 289.019531 49.984375 C 289.019531 46.152344 294.769531 46.152344 294.769531 49.984375 "/>
<path style=" stroke:none;fill-rule:nonzero;fill:rgb(100%,84.3%,0%);fill-opacity:1;" d="M 294.867188 342.3125 C 294.867188 346.144531 289.117188 346.144531 289.117188 342.3125 C 289.117188 338.480469 294.867188 338.480469 294.867188 342.3125 "/>
<path style=" stroke:none;fill-rule:nonzero;fill:rgb(100%,84.3%,0%);fill-opacity:1;" d="M 292.832031 290.570312 C 292.832031 294.40625 287.082031 294.40625 287.082031 290.570312 C 287.082031 286.738281 292.832031 286.738281 292.832031 290.570312 "/>
<path style=" stroke:none;fill-rule:nonzero;fill:rgb(100%,84.3%,0%);fill-opacity:1;" d="M 289.90625 415.160156 C 289.90625 418.996094 284.15625 418.996094 284.15625 415.160156 C 284.15625 411.328125 289.90625 411.328125 289.90625 415.160156 "/>
<path style=" stroke:none;fill-rule:nonzero;fill:rgb(100%,84.3%,0%);fill-opacity:1;" d="M 295.953125 433.707031 C 295.953125 437.542969 290.203125 437.542969 290.203125 433.707031 C 290.203125 429.875 295.953125 429.875 295.953125 433.707031 "/>
<path style=" stroke:none;fill-rule:nonzero;fill:rgb(100%,84.3%,0%);fill-opacity:1;" d="M 221.320312 167.726562 C 221.320312 171.558594 215.570312 171.558594 215.570312 167.726562 C 215.570312 163.890625 221.320312 163.890625 221.320312 167.726562 "/>
<path style=" stroke:none;fill-rule:nonzero;fill:rgb(100%,84.3%,0%);fill-opacity:1;" d="M 220.421875 117.539062 C 220.421875 121.371094 214.667969 121.371094 214.667969 117.539062 C 214.667969 113.707031 220.421875 113.707031 220.421875 117.539062 "/>
<path style=" stroke:none;fill-rule:nonzero;fill:rgb(100%,84.3%,0%);fill-opacity:1;" d="M 226.199219 214.191406 C 226.199219 218.023438 220.449219 218.023438 220.449219 214.191406 C 220.449219 210.355469 226.199219 210.355469 226.199219 214.191406 "/>
<path style=" stroke:none;fill-rule:nonzero;fill:rgb(100%,84.3%,0%);fill-opacity:1;" d="M 272.347656 366.578125 C 272.347656 370.414062 266.597656 370.414062 266.597656 366.578125 C 266.597656 362.746094 272.347656 362.746094 272.347656 366.578125 "/>
<path style=" stroke:none;fill-rule:nonzero;fill:rgb(100%,84.3%,0%);fill-opacity:1;" d="M 223.253906 342.304688 C 223.253906 346.136719 217.503906 346.136719 217.503906 342.304688 C 217.503906 338.46875 223.253906 338.46875 223.253906 342.304688 "/>
<path style=" stroke:none;fill-rule:nonzero;fill:rgb(100%,84.3%,0%);fill-opacity:1;" d="M 225.320312 111.46875 C 225.320312 115.300781 219.570312 115.300781 219.570312 111.46875 C 219.570312 107.632812 225.320312 107.632812 225.320312 111.46875 "/>
<path style=" stroke:none;fill-rule:nonzero;fill:rgb(100%,84.3%,0%);fill-opacity:1;" d="M 281.753906 324.765625 C 281.753906 328.597656 276.003906 328.597656 276.003906 324.765625 C 276.003906 320.933594 281.753906 320.933594 281.753906 324.765625 "/>
<path style=" stroke:none;fill-rule:nonzero;fill:rgb(100%,84.3%,0%);fill-opacity:1;" d="M 297.402344 203.074219 C 297.402344 206.90625 291.652344 206.90625 291.652344 203.074219 C 291.652344 199.238281 297.402344 199.238281 297.402344 203.074219 "/>
<path style=" stroke:none;fill-rule:nonzero;fill:rgb(100%,84.3%,0%);fill-opacity:1;" d="M 220.398438 373.746094 C 220.398438 377.578125 214.648438 377.578125 214.648438 373.746094 C 214.648438 369.910156 220.398438 369.910156 220.398438 373.746094 "/>
<path style=" stroke:none;fill-rule:nonzero;fill:rgb(100%,84.3%,0%);fill-opacity:1;" d="M 221.773438 334.496094 C 221.773438 338.332031 216.023438 338.332031 216.023438 334.496094 C 216.023438 330.664062 221.773438 330.664062 221.773438 334.496094 "/>
<path style=" stroke:none;fill-rule:nonzero;fill:rgb(100%,84.3%,0%);fill-opacity:1;" d="M 235.839844 116.128906 C 235.839844 119.964844 230.085938 119.964844 230.085938 116.128906 C 230.085938 112.296875 235.839844 112.296875 235.839844 116.128906 "/>
<path style=" stroke:none;fill-rule:nonzero;fill:rgb(100%,84.3%,0%);fill-opacity:1;" d="M 222.082031 249.347656 C 222.082031 253.179688 216.328125 253.179688 216.328125 249.347656 C 216.328125 245.511719 222.082031 245.511719 222.082031 249.347656 "/>
<path style=" stroke:none;fill-rule:nonzero;fill:rgb(100%,84.3%,0%);fill-opacity:1;" d="M 250.695312 463.3125 C 250.695312 467.144531 244.945312 467.144531 244.945312 463.3125 C 244.945312 459.476562 250.695312 459.476562 250.695312 463.3125 "/>
<path style=" stroke:none;fill-rule:nonzero;fill:rgb(100%,84.3%,0%);fill-opacity:1;" d="M 280.285156 453.070312 C 280.285156 456.902344 274.535156 456.902344 274.535156 453.070312 C 274.535156 449.238281 280.285156 449.238281 280.285156 453.070312 "/>
<path style=" stroke:none;fill-rule:nonzero;fill:rgb(100%,84.3%,0%);fill-opacity:1;" d="M 222.78125 284.695312 C 222.78125 288.53125 217.03125 288.53125 217.03125 284.695312 C 217.03125 280.863281 222.78125 280.863281 222.78125 284.695312 "/>
<path style=" stroke:none;fill-rule:nonzero;fill:rgb(100%,84.3%,0%);fill-opacity:1;" d="M 226.855469 199.535156 C 226.855469 203.371094 221.105469 203.371094 221.105469 199.535156 C 221.105469 195.703125 226.855469 195.703125 226.855469 199.535156 "/>
<path style=" stroke:none;fill-rule:nonzero;fill:rgb(100%,84.3%,0%);fill-opacity:1;" d="M 297.367188 274.15625 C 297.367188 277.988281 291.617188 277.988281 291.617188 274.15625 C 291.617188 270.324219 297.367188 270.324219 297.367188 274.15625 "/>
<path style=" stroke:none;fill-rule:nonzero;fill:rgb(100%,84.3%,0%);fill-opacity:1;" d="M 296.296875 122.816406 C 296.296875 126.652344 290.546875 126.652344 290.546875 122.816406 C 290.546875 118.984375 296.296875 118.984375 296.296875 122.816406 "/>
<path style=" stroke:none;fill-rule:nonzero;fill:rgb(100%,84.3%,0%);fill-opacity:1;" d="M 294.640625 209.914062 C 294.640625 213.746094 288.890625 213.746094 288.890625 209.914062 C 288.890625 206.078125 294.640625 206.078125 294.640625 209.914062 "/>
<path style=" stroke:none;fill-rule:nonzero;fill:rgb(100%,84.3%,0%);fill-opacity:1;" d="M 221.675781 359.097656 C 221.675781 362.929688 215.925781 362.929688 215.925781 359.097656 C 215.925781 355.265625 221.675781 355.265625 221.675781 359.097656 "/>
<path style=" stroke:none;fill-rule:nonzero;fill:rgb(100%,84.3%,0%);fill-opacity:1;" d="M 297.277344 264.976562 C 297.277344 268.808594 291.527344 268.808594 291.527344 264.976562 C 291.527344 261.140625 297.277344 261.140625 297.277344 264.976562 "/>
<path style=" stroke:none;fill-rule:nonzero;fill:rgb(100%,84.3%,0%);fill-opacity:1;" d="M 294.222656 232.566406 C 294.222656 236.402344 288.472656 236.402344 288.472656 232.566406 C 288.472656 228.734375 294.222656 228.734375 294.222656 232.566406 "/>
<path style=" stroke:none;fill-rule:nonzero;fill:rgb(100%,84.3%,0%);fill-opacity:1;" d="M 240.542969 151.851562 C 240.542969 155.6875 234.792969 155.6875 234.792969 151.851562 C 234.792969 148.019531 240.542969 148.019531 240.542969 151.851562 "/>
<path style=" stroke:none;fill-rule:nonzero;fill:rgb(100%,84.3%,0%);fill-opacity:1;" d="M 283.742188 270.085938 C 283.742188 273.917969 277.992188 273.917969 277.992188 270.085938 C 277.992188 266.25 283.742188 266.25 283.742188 270.085938 "/>
<path style=" stroke:none;fill-rule:nonzero;fill:rgb(100%,84.3%,0%);fill-opacity:1;" d="M 227.617188 126.5 C 227.617188 130.335938 221.867188 130.335938 221.867188 126.5 C 221.867188 122.667969 227.617188 122.667969 227.617188 126.5 "/>
<path style=" stroke:none;fill-rule:nonzero;fill:rgb(100%,84.3%,0%);fill-opacity:1;" d="M 296.289062 417.109375 C 296.289062 420.941406 290.539062 420.941406 290.539062 417.109375 C 290.539062 413.273438 296.289062 413.273438 296.289062 417.109375 "/>
<path style=" stroke:none;fill-rule:nonzero;fill:rgb(100%,84.3%,0%);fill-opacity:1;" d="M 241.125 52.84375 C 241.125 56.675781 235.371094 56.675781 235.371094 52.84375 C 235.371094 49.007812 241.125 49.007812 241.125 52.84375 "/>
<path style=" stroke:none;fill-rule:nonzero;fill:rgb(100%,84.3%,0%);fill-opacity:1;" d="M 285.136719 423.578125 C 285.136719 427.410156 279.386719 427.410156 279.386719 423.578125 C 279.386719 419.742188 285.136719 419.742188 285.136719 423.578125 "/>
<path style=" stroke:none;fill-rule:nonzero;fill:rgb(100%,84.3%,0%);fill-opacity:1;" d="M 296.242188 408.710938 C 296.242188 412.542969 290.492188 412.542969 290.492188 408.710938 C 290.492188 404.875 296.242188 404.875 296.242188 408.710938 "/>
<path style=" stroke:none;fill-rule:nonzero;fill:rgb(100%,84.3%,0%);fill-opacity:1;" d="M 291.199219 227.101562 C 291.199219 230.9375 285.449219 230.9375 285.449219 227.101562 C 285.449219 223.269531 291.199219 223.269531 291.199219 227.101562 "/>
<path style=" stroke:none;fill-rule:nonzero;fill:rgb(100%,84.3%,0%);fill-opacity:1;" d="M 294.796875 378.835938 C 294.796875 382.667969 289.046875 382.667969 289.046875 378.835938 C 289.046875 375 294.796875 375 294.796875 378.835938 "/>
<path style=" stroke:none;fill-rule:nonzero;fill:rgb(100%,84.3%,0%);fill-opacity:1;" d="M 220.878906 299.546875 C 220.878906 303.378906 215.128906 303.378906 215.128906 299.546875 C 215.128906 295.710938 220.878906 295.710938 220.878906 299.546875 "/>
<path style=" stroke:none;fill-rule:nonzero;fill:rgb(100%,84.3%,0%);fill-opacity:1;" d="M 294.476562 173.007812 C 294.476562 176.84375 288.726562 176.84375 288.726562 173.007812 C 288.726562 169.175781 294.476562 169.175781 294.476562 173.007812 "/>
<path style=" stroke:none;fill-rule:nonzero;fill:rgb(100%,84.3%,0%);fill-opacity:1;" d="M 291.167969 460.667969 C 291.167969 464.503906 285.417969 464.503906 285.417969 460.667969 C 285.417969 456.835938 291.167969 456.835938 291.167969 460.667969 "/>
<path style=" stroke:none;fill-rule:nonzero;fill:rgb(100%,84.3%,0%);fill-opacity:1;" d="M 296.761719 108.5625 C 296.761719 112.394531 291.011719 112.394531 291.011719 108.5625 C 291.011719 104.730469 296.761719 104.730469 296.761719 108.5625 "/>
<path style=" stroke:none;fill-rule:nonzero;fill:rgb(100%,84.3%,0%);fill-opacity:1;" d="M 297.320312 167.730469 C 297.320312 171.566406 291.570312 171.566406 291.570312 167.730469 C 291.570312 163.898438 297.320312 163.898438 297.320312 167.730469 "/>
<path style=" stroke:none;fill-rule:nonzero;fill:rgb(100%,84.3%,0%);fill-opacity:1;" d="M 292.648438 102.320312 C 292.648438 106.15625 286.898438 106.15625 286.898438 102.320312 C 286.898438 98.488281 292.648438 98.488281 292.648438 102.320312 "/>
<path style=" stroke:none;fill-rule:nonzero;fill:rgb(100%,84.3%,0%);fill-opacity:1;" d="M 289.707031 392.710938 C 289.707031 396.542969 283.953125 396.542969 283.953125 392.710938 C 283.953125 388.875 289.707031 388.875 289.707031 392.710938 "/>
<path style=" stroke:none;fill-rule:nonzero;fill:rgb(100%,84.3%,0%);fill-opacity:1;" d="M 295.839844 257.949219 C 295.839844 261.785156 290.089844 261.785156 290.089844 257.949219 C 290.089844 254.117188 295.839844 254.117188 295.839844 257.949219 "/>
<path style=" stroke:none;fill-rule:nonzero;fill:rgb(100%,84.3%,0%);fill-opacity:1;" d="M 287.285156 130.054688 C 287.285156 133.890625 281.535156 133.890625 281.535156 130.054688 C 281.535156 126.222656 287.285156 126.222656 287.285156 130.054688 "/>
<path style=" stroke:none;fill-rule:nonzero;fill:rgb(100%,84.3%,0%);fill-opacity:1;" d="M 221.496094 389.753906 C 221.496094 393.585938 215.746094 393.585938 215.746094 389.753906 C 215.746094 385.917969 221.496094 385.917969 221.496094 389.753906 "/>
<path style=" stroke:none;fill-rule:nonzero;fill:rgb(100%,84.3%,0%);fill-opacity:1;" d="M 229.988281 105.011719 C 229.988281 108.847656 224.238281 108.847656 224.238281 105.011719 C 224.238281 101.179688 229.988281 101.179688 229.988281 105.011719 "/>
<path style=" stroke:none;fill-rule:nonzero;fill:rgb(100%,84.3%,0%);fill-opacity:1;" d="M 220.628906 310.089844 C 220.628906 313.925781 214.878906 313.925781 214.878906 310.089844 C 214.878906 306.257812 220.628906 306.257812 220.628906 310.089844 "/>
<path style=" stroke:none;fill-rule:nonzero;fill:rgb(100%,84.3%,0%);fill-opacity:1;" d="M 294.003906 115.402344 C 294.003906 119.234375 288.253906 119.234375 288.253906 115.402344 C 288.253906 111.566406 294.003906 111.566406 294.003906 115.402344 "/>
<path style=" stroke:none;fill-rule:nonzero;fill:rgb(100%,84.3%,0%);fill-opacity:1;" d="M 235.273438 49.34375 C 235.273438 53.175781 229.523438 53.175781 229.523438 49.34375 C 229.523438 45.511719 235.273438 45.511719 235.273438 49.34375 "/>
<path style=" stroke:none;fill-rule:nonzero;fill:rgb(100%,84.3%,0%);fill-opacity:1;" d="M 295.914062 131.019531 C 295.914062 134.851562 290.164062 134.851562 290.164062 131.019531 C 290.164062 127.1875 295.914062 127.1875 295.914062 131.019531 "/>
<path style=" stroke:none;fill-rule:nonzero;fill:rgb(100%,84.3%,0%);fill-opacity:1;" d="M 220.863281 49.964844 C 220.863281 53.796875 215.113281 53.796875 215.113281 49.964844 C 215.113281 46.132812 220.863281 46.132812 220.863281 49.964844 "/>
<path style=" stroke:none;fill-rule:nonzero;fill:rgb(100%,84.3%,0%);fill-opacity:1;" d="M 296.410156 396.601562 C 296.410156 400.433594 290.660156 400.433594 290.660156 396.601562 C 290.660156 392.765625 296.410156 392.765625 296.410156 396.601562 "/>
<path style=" stroke:none;fill-rule:nonzero;fill:rgb(100%,84.3%,0%);fill-opacity:1;" d="M 227.863281 353.613281 C 227.863281 357.449219 222.113281 357.449219 222.113281 353.613281 C 222.113281 349.78125 227.863281 349.78125 227.863281 353.613281 "/>
<path style=" stroke:none;fill-rule:nonzero;fill:rgb(100%,84.3%,0%);fill-opacity:1;" d="M 229.230469 136.652344 C 229.230469 140.484375 223.480469 140.484375 223.480469 136.652344 C 223.480469 132.816406 229.230469 132.816406 229.230469 136.652344 "/>
<path style=" stroke:none;fill-rule:nonzero;fill:rgb(100%,84.3%,0%);fill-opacity:1;" d="M 295.492188 97.046875 C 295.492188 100.878906 289.742188 100.878906 289.742188 97.046875 C 289.742188 93.210938 295.492188 93.210938 295.492188 97.046875 "/>
<path style=" stroke:none;fill-rule:nonzero;fill:rgb(100%,84.3%,0%);fill-opacity:1;" d="M 274.832031 56.667969 C 274.832031 60.5 269.082031 60.5 269.082031 56.667969 C 269.082031 52.835938 274.832031 52.835938 274.832031 56.667969 "/>
<path style=" stroke:none;fill-rule:nonzero;fill:rgb(100%,84.3%,0%);fill-opacity:1;" d="M 279.324219 201.746094 C 279.324219 205.578125 273.574219 205.578125 273.574219 201.746094 C 273.574219 197.910156 279.324219 197.910156 279.324219 201.746094 "/>
<path style=" stroke:none;fill-rule:nonzero;fill:rgb(100%,84.3%,0%);fill-opacity:1;" d="M 297.238281 328.441406 C 297.238281 332.277344 291.488281 332.277344 291.488281 328.441406 C 291.488281 324.609375 297.238281 324.609375 297.238281 328.441406 "/>
<path style=" stroke:none;fill-rule:nonzero;fill:rgb(100%,84.3%,0%);fill-opacity:1;" d="M 222.15625 326.296875 C 222.15625 330.128906 216.40625 330.128906 216.40625 326.296875 C 216.40625 322.460938 222.15625 322.460938 222.15625 326.296875 "/>
<path style=" stroke:none;fill-rule:nonzero;fill:rgb(100%,84.3%,0%);fill-opacity:1;" d="M 236.476562 161.628906 C 236.476562 165.460938 230.726562 165.460938 230.726562 161.628906 C 230.726562 157.792969 236.476562 157.792969 236.476562 161.628906 "/>
<path style=" stroke:none;fill-rule:nonzero;fill:rgb(100%,84.3%,0%);fill-opacity:1;" d="M 297.042969 370.234375 C 297.042969 374.070312 291.292969 374.070312 291.292969 370.234375 C 291.292969 366.402344 297.042969 366.402344 297.042969 370.234375 "/>
<path style=" stroke:none;fill-rule:nonzero;fill:rgb(100%,84.3%,0%);fill-opacity:1;" d="M 221.359375 160.890625 C 221.359375 164.722656 215.609375 164.722656 215.609375 160.890625 C 215.609375 157.054688 221.359375 157.054688 221.359375 160.890625 "/>
<path style=" stroke:none;fill-rule:nonzero;fill:rgb(100%,84.3%,0%);fill-opacity:1;" d="M 224.367188 241.53125 C 224.367188 245.363281 218.617188 245.363281 218.617188 241.53125 C 218.617188 237.695312 224.367188 237.695312 224.367188 241.53125 "/>
<path style=" stroke:none;fill-rule:nonzero;fill:rgb(100%,84.3%,0%);fill-opacity:1;" d="M 279.054688 378.085938 C 279.054688 381.921875 273.304688 381.921875 273.304688 378.085938 C 273.304688 374.253906 279.054688 374.253906 279.054688 378.085938 "/>
<path style=" stroke:none;fill-rule:nonzero;fill:rgb(100%,84.3%,0%);fill-opacity:1;" d="M 295.53125 448.746094 C 295.53125 452.578125 289.78125 452.578125 289.78125 448.746094 C 289.78125 444.914062 295.53125 444.914062 295.53125 448.746094 "/>
<path style=" stroke:none;fill-rule:nonzero;fill:rgb(100%,84.3%,0%);fill-opacity:1;" d="M 290.921875 331.582031 C 290.921875 335.414062 285.171875 335.414062 285.171875 331.582031 C 285.171875 327.75 290.921875 327.75 290.921875 331.582031 "/>
<path style=" stroke:none;fill-rule:nonzero;fill:rgb(100%,84.3%,0%);fill-opacity:1;" d="M 287.347656 437.046875 C 287.347656 440.882812 281.597656 440.882812 281.597656 437.046875 C 281.597656 433.214844 287.347656 433.214844 287.347656 437.046875 "/>
<path style=" stroke:none;fill-rule:nonzero;fill:rgb(100%,84.3%,0%);fill-opacity:1;" d="M 265.019531 461.125 C 265.019531 464.960938 259.269531 464.960938 259.269531 461.125 C 259.269531 457.292969 265.019531 457.292969 265.019531 461.125 "/>
<path style=" stroke:none;fill-rule:nonzero;fill:rgb(100%,84.3%,0%);fill-opacity:1;" d="M 292.09375 164.027344 C 292.09375 167.863281 286.34375 167.863281 286.34375 164.027344 C 286.34375 160.195312 292.09375 160.195312 292.09375 164.027344 "/>
<path style=" stroke:none;fill-rule:nonzero;fill:rgb(100%,84.3%,0%);fill-opacity:1;" d="M 222.859375 271.027344 C 222.859375 274.859375 217.109375 274.859375 217.109375 271.027344 C 217.109375 267.191406 222.859375 267.191406 222.859375 271.027344 "/>
<path style=" stroke:none;fill-rule:nonzero;fill:rgb(100%,84.3%,0%);fill-opacity:1;" d="M 231.234375 218.078125 C 231.234375 221.914062 225.484375 221.914062 225.484375 218.078125 C 225.484375 214.246094 231.234375 214.246094 231.234375 218.078125 "/>
<path style=" stroke:none;fill-rule:nonzero;fill:rgb(100%,84.3%,0%);fill-opacity:1;" d="M 284.691406 385.296875 C 284.691406 389.132812 278.941406 389.132812 278.941406 385.296875 C 278.941406 381.464844 284.691406 381.464844 284.691406 385.296875 "/>
<path style=" stroke:none;fill-rule:nonzero;fill:rgb(100%,84.3%,0%);fill-opacity:1;" d="M 224.304688 81.789062 C 224.304688 85.621094 218.554688 85.621094 218.554688 81.789062 C 218.554688 77.953125 224.304688 77.953125 224.304688 81.789062 "/>
<path style=" stroke:none;fill-rule:nonzero;fill:rgb(100%,84.3%,0%);fill-opacity:1;" d="M 225.304688 228.25 C 225.304688 232.085938 219.554688 232.085938 219.554688 228.25 C 219.554688 224.417969 225.304688 224.417969 225.304688 228.25 "/>
<path style=" stroke:none;fill-rule:nonzero;fill:rgb(100%,84.3%,0%);fill-opacity:1;" d="M 245.402344 454.523438 C 245.402344 458.359375 239.652344 458.359375 239.652344 454.523438 C 239.652344 450.691406 245.402344 450.691406 245.402344 454.523438 "/>
<path style=" stroke:none;fill-rule:nonzero;fill:rgb(100%,84.3%,0%);fill-opacity:1;" d="M 289.769531 284.324219 C 289.769531 288.160156 284.019531 288.160156 284.019531 284.324219 C 284.019531 280.492188 289.769531 280.492188 289.769531 284.324219 "/>
<path style=" stroke:none;fill-rule:nonzero;fill:rgb(100%,84.3%,0%);fill-opacity:1;" d="M 276.601562 447.027344 C 276.601562 450.859375 270.851562 450.859375 270.851562 447.027344 C 270.851562 443.191406 276.601562 443.191406 276.601562 447.027344 "/>
<path style=" stroke:none;fill-rule:nonzero;fill:rgb(100%,84.3%,0%);fill-opacity:1;" d="M 293.492188 72.246094 C 293.492188 76.082031 287.742188 76.082031 287.742188 72.246094 C 287.742188 68.414062 293.492188 68.414062 293.492188 72.246094 "/>
<path style=" stroke:none;fill-rule:nonzero;fill:rgb(100%,84.3%,0%);fill-opacity:1;" d="M 222.863281 278.644531 C 222.863281 282.476562 217.113281 282.476562 217.113281 278.644531 C 217.113281 274.808594 222.863281 274.808594 222.863281 278.644531 "/>
<path style=" stroke:none;fill-rule:nonzero;fill:rgb(100%,84.3%,0%);fill-opacity:1;" d="M 221.539062 235.878906 C 221.539062 239.710938 215.789062 239.710938 215.789062 235.878906 C 215.789062 232.042969 221.539062 232.042969 221.539062 235.878906 "/>
<path style=" stroke:none;fill-rule:nonzero;fill:rgb(100%,84.3%,0%);fill-opacity:1;" d="M 293.238281 82.792969 C 293.238281 86.625 287.488281 86.625 287.488281 82.792969 C 287.488281 78.960938 293.238281 78.960938 293.238281 82.792969 "/>
<path style=" stroke:none;fill-rule:nonzero;fill:rgb(100%,84.3%,0%);fill-opacity:1;" d="M 286.539062 241.175781 C 286.539062 245.007812 280.789062 245.007812 280.789062 241.175781 C 280.789062 237.339844 286.539062 237.339844 286.539062 241.175781 "/>
<path style=" stroke:none;fill-rule:nonzero;fill:rgb(100%,84.3%,0%);fill-opacity:1;" d="M 220.449219 348.363281 C 220.449219 352.195312 214.699219 352.195312 214.699219 348.363281 C 214.699219 344.53125 220.449219 344.53125 220.449219 348.363281 "/>
<path style=" stroke:none;fill-rule:nonzero;fill:rgb(100%,84.3%,0%);fill-opacity:1;" d="M 223.410156 462.003906 C 223.410156 465.835938 217.660156 465.835938 217.660156 462.003906 C 217.660156 458.167969 223.410156 458.167969 223.410156 462.003906 "/>
<path style=" stroke:none;fill-rule:nonzero;fill:rgb(100%,84.3%,0%);fill-opacity:1;" d="M 283.203125 460.492188 C 283.203125 464.328125 277.453125 464.328125 277.453125 460.492188 C 277.453125 456.660156 283.203125 456.660156 283.203125 460.492188 "/>
<path style=" stroke:none;fill-rule:nonzero;fill:rgb(100%,84.3%,0%);fill-opacity:1;" d="M 231.050781 192.105469 C 231.050781 195.9375 225.300781 195.9375 225.300781 192.105469 C 225.300781 188.269531 231.050781 188.269531 231.050781 192.105469 "/>
<path style=" stroke:none;fill-rule:nonzero;fill:rgb(100%,84.3%,0%);fill-opacity:1;" d="M 296.339844 66.96875 C 296.339844 70.800781 290.585938 70.800781 290.585938 66.96875 C 290.585938 63.136719 296.339844 63.136719 296.339844 66.96875 "/>
<path style=" stroke:none;fill-rule:nonzero;fill:rgb(100%,84.3%,0%);fill-opacity:1;" d="M 277.226562 405.429688 C 277.226562 409.261719 271.476562 409.261719 271.476562 405.429688 C 271.476562 401.59375 277.226562 401.59375 277.226562 405.429688 "/>
<path style=" stroke:none;fill-rule:nonzero;fill:rgb(100%,84.3%,0%);fill-opacity:1;" d="M 296.9375 224.945312 C 296.9375 228.78125 291.1875 228.78125 291.1875 224.945312 C 291.1875 221.113281 296.9375 221.113281 296.9375 224.945312 "/>
<path style=" stroke:none;fill-rule:nonzero;fill:rgb(100%,84.3%,0%);fill-opacity:1;" d="M 295.964844 196.046875 C 295.964844 199.882812 290.210938 199.882812 290.210938 196.046875 C 290.210938 192.214844 295.964844 192.214844 295.964844 196.046875 "/>
<path style=" stroke:none;fill-rule:nonzero;fill:rgb(100%,84.3%,0%);fill-opacity:1;" d="M 288.28125 261.285156 C 288.28125 265.117188 282.53125 265.117188 282.53125 261.285156 C 282.53125 257.453125 288.28125 257.453125 288.28125 261.285156 "/>
<path style=" stroke:none;fill-rule:nonzero;fill:rgb(100%,84.3%,0%);fill-opacity:1;" d="M 290.894531 59.359375 C 290.894531 63.195312 285.144531 63.195312 285.144531 59.359375 C 285.144531 55.527344 290.894531 55.527344 290.894531 59.359375 "/>
<path style=" stroke:none;fill-rule:nonzero;fill:rgb(100%,84.3%,0%);fill-opacity:1;" d="M 231.65625 463.550781 C 231.65625 467.382812 225.90625 467.382812 225.90625 463.550781 C 225.90625 459.71875 231.65625 459.71875 231.65625 463.550781 "/>
<path style=" stroke:none;fill-rule:nonzero;fill:rgb(100%,84.3%,0%);fill-opacity:1;" d="M 247.054688 50.289062 C 247.054688 54.121094 241.304688 54.121094 241.304688 50.289062 C 241.304688 46.457031 247.054688 46.457031 247.054688 50.289062 "/>
<path style=" stroke:none;fill-rule:nonzero;fill:rgb(100%,84.3%,0%);fill-opacity:1;" d="M 228.140625 249.136719 C 228.140625 252.96875 222.390625 252.96875 222.390625 249.136719 C 222.390625 245.300781 228.140625 245.300781 228.140625 249.136719 "/>
<path style=" stroke:none;fill-rule:nonzero;fill:rgb(100%,84.3%,0%);fill-opacity:1;" d="M 294.015625 349.539062 C 294.015625 353.371094 288.265625 353.371094 288.265625 349.539062 C 288.265625 345.703125 294.015625 345.703125 294.015625 349.539062 "/>
<path style=" stroke:none;fill-rule:nonzero;fill:rgb(100%,84.3%,0%);fill-opacity:1;" d="M 281.558594 366.558594 C 281.558594 370.394531 275.808594 370.394531 275.808594 366.558594 C 275.808594 362.726562 281.558594 362.726562 281.558594 366.558594 "/>
<path style=" stroke:none;fill-rule:nonzero;fill:rgb(100%,84.3%,0%);fill-opacity:1;" d="M 228.679688 205.976562 C 228.679688 209.808594 222.929688 209.808594 222.929688 205.976562 C 222.929688 202.140625 228.679688 202.140625 228.679688 205.976562 "/>
<path style=" stroke:none;fill-rule:nonzero;fill:rgb(100%,84.3%,0%);fill-opacity:1;" d="M 296.632812 57.203125 C 296.632812 61.039062 290.882812 61.039062 290.882812 57.203125 C 290.882812 53.371094 296.632812 53.371094 296.632812 57.203125 "/>
<path style=" stroke:none;fill-rule:nonzero;fill:rgb(100%,84.3%,0%);fill-opacity:1;" d="M 268.8125 50.042969 C 268.8125 53.878906 263.0625 53.878906 263.0625 50.042969 C 263.0625 46.210938 268.8125 46.210938 268.8125 50.042969 "/>
<path style=" stroke:none;fill-rule:nonzero;fill:rgb(100%,84.3%,0%);fill-opacity:1;" d="M 279.75 186.707031 C 279.75 190.542969 273.996094 190.542969 273.996094 186.707031 C 273.996094 182.875 279.75 182.875 279.75 186.707031 "/>
<path style=" stroke:none;fill-rule:nonzero;fill:rgb(100%,84.3%,0%);fill-opacity:1;" d="M 295.832031 137.074219 C 295.832031 140.910156 290.082031 140.910156 290.082031 137.074219 C 290.082031 133.242188 295.832031 133.242188 295.832031 137.074219 "/>
<path style=" stroke:none;fill-rule:nonzero;fill:rgb(100%,84.3%,0%);fill-opacity:1;" d="M 297.070312 178.277344 C 297.070312 182.109375 291.320312 182.109375 291.320312 178.277344 C 291.320312 174.445312 297.070312 174.445312 297.070312 178.277344 "/>
<path style=" stroke:none;fill-rule:nonzero;fill:rgb(100%,84.3%,0%);fill-opacity:1;" d="M 276.515625 86.925781 C 276.515625 90.761719 270.765625 90.761719 270.765625 86.925781 C 270.765625 83.09375 276.515625 83.09375 276.515625 86.925781 "/>
<path style=" stroke:none;fill-rule:nonzero;fill:rgb(100%,84.3%,0%);fill-opacity:1;" d="M 289.886719 109.160156 C 289.886719 112.996094 284.136719 112.996094 284.136719 109.160156 C 284.136719 105.328125 289.886719 105.328125 289.886719 109.160156 "/>
<path style=" stroke:none;fill-rule:nonzero;fill:rgb(100%,84.3%,0%);fill-opacity:1;" d="M 222.242188 123.976562 C 222.242188 127.8125 216.492188 127.8125 216.492188 123.976562 C 216.492188 120.144531 222.242188 120.144531 222.242188 123.976562 "/>
<path style=" stroke:none;fill-rule:nonzero;fill:rgb(100%,84.3%,0%);fill-opacity:1;" d="M 287.125 214.027344 C 287.125 217.863281 281.375 217.863281 281.375 214.027344 C 281.375 210.195312 287.125 210.195312 287.125 214.027344 "/>
<path style=" stroke:none;fill-rule:nonzero;fill:rgb(100%,84.3%,0%);fill-opacity:1;" d="M 224.3125 316.136719 C 224.3125 319.96875 218.5625 319.96875 218.5625 316.136719 C 218.5625 312.300781 224.3125 312.300781 224.3125 316.136719 "/>
<path style=" stroke:none;fill-rule:nonzero;fill:rgb(100%,84.3%,0%);fill-opacity:1;" d="M 258.917969 460.554688 C 258.917969 464.390625 253.167969 464.390625 253.167969 460.554688 C 253.167969 456.722656 258.917969 456.722656 258.917969 460.554688 "/>
<path style=" stroke:none;fill-rule:nonzero;fill:rgb(100%,84.3%,0%);fill-opacity:1;" d="M 272.765625 442.160156 C 272.765625 445.996094 267.015625 445.996094 267.015625 442.160156 C 267.015625 438.328125 272.765625 438.328125 272.765625 442.160156 "/>
<path style=" stroke:none;fill-rule:nonzero;fill:rgb(100%,84.3%,0%);fill-opacity:1;" d="M 295.320312 142.933594 C 295.320312 146.765625 289.570312 146.765625 289.570312 142.933594 C 289.570312 139.097656 295.320312 139.097656 295.320312 142.933594 "/>
<path style=" stroke:none;fill-rule:nonzero;fill:rgb(100%,84.3%,0%);fill-opacity:1;" d="M 220.535156 293.296875 C 220.535156 297.128906 214.785156 297.128906 214.785156 293.296875 C 214.785156 289.460938 220.535156 289.460938 220.535156 293.296875 "/>
<path style=" stroke:none;fill-rule:nonzero;fill:rgb(100%,84.3%,0%);fill-opacity:1;" d="M 226.597656 300.699219 C 226.597656 304.535156 220.847656 304.535156 220.847656 300.699219 C 220.847656 296.867188 226.597656 296.867188 226.597656 300.699219 "/>
<path style=" stroke:none;fill-rule:nonzero;fill:rgb(100%,84.3%,0%);fill-opacity:1;" d="M 296.664062 386.054688 C 296.664062 389.886719 290.914062 389.886719 290.914062 386.054688 C 290.914062 382.222656 296.664062 382.222656 296.664062 386.054688 "/>
<path style=" stroke:none;fill-rule:nonzero;fill:rgb(100%,84.3%,0%);fill-opacity:1;" d="M 296.421875 215.570312 C 296.421875 219.40625 290.671875 219.40625 290.671875 215.570312 C 290.671875 211.738281 296.421875 211.738281 296.421875 215.570312 "/>
<path style=" stroke:none;fill-rule:nonzero;fill:rgb(100%,84.3%,0%);fill-opacity:1;" d="M 229.355469 335.257812 C 229.355469 339.089844 223.605469 339.089844 223.605469 335.257812 C 223.605469 331.425781 229.355469 331.425781 229.355469 335.257812 "/>
<path style=" stroke:none;fill-rule:nonzero;fill:rgb(100%,84.3%,0%);fill-opacity:1;" d="M 228.136719 233.902344 C 228.136719 237.738281 222.386719 237.738281 222.386719 233.902344 C 222.386719 230.070312 228.136719 230.070312 228.136719 233.902344 "/>
<path style=" stroke:none;fill-rule:nonzero;fill:rgb(100%,84.3%,0%);fill-opacity:1;" d="M 297.363281 160.894531 C 297.363281 164.730469 291.613281 164.730469 291.613281 160.894531 C 291.613281 157.0625 297.363281 157.0625 297.363281 160.894531 "/>
<path style=" stroke:none;fill-rule:nonzero;fill:rgb(100%,84.3%,0%);fill-opacity:1;" d="M 224.710938 191.148438 C 224.710938 194.984375 218.960938 194.984375 218.960938 191.148438 C 218.960938 187.316406 224.710938 187.316406 224.710938 191.148438 "/>
<path style=" stroke:none;fill-rule:nonzero;fill:rgb(100%,84.3%,0%);fill-opacity:1;" d="M 228.804688 144.070312 C 228.804688 147.90625 223.054688 147.90625 223.054688 144.070312 C 223.054688 140.238281 228.804688 140.238281 228.804688 144.070312 "/>
<path style=" stroke:none;fill-rule:nonzero;fill:rgb(100%,84.3%,0%);fill-opacity:1;" d="M 277.097656 459.925781 C 277.097656 463.757812 271.347656 463.757812 271.347656 459.925781 C 271.347656 456.089844 277.097656 456.089844 277.097656 459.925781 "/>
<path style=" stroke:none;fill-rule:nonzero;fill:rgb(100%,84.3%,0%);fill-opacity:1;" d="M 223.34375 139.988281 C 223.34375 143.820312 217.59375 143.820312 217.59375 139.988281 C 217.59375 136.152344 223.34375 136.152344 223.34375 139.988281 "/>
<path style=" stroke:none;fill-rule:nonzero;fill:rgb(100%,84.3%,0%);fill-opacity:1;" d="M 296.085938 77.515625 C 296.085938 81.347656 290.335938 81.347656 290.335938 77.515625 C 290.335938 73.679688 296.085938 73.679688 296.085938 77.515625 "/>
<path style=" stroke:none;fill-rule:nonzero;fill:rgb(100%,84.3%,0%);fill-opacity:1;" d="M 221.292969 367.300781 C 221.292969 371.132812 215.542969 371.132812 215.542969 367.300781 C 215.542969 363.46875 221.292969 363.46875 221.292969 367.300781 "/>
<path style=" stroke:none;fill-rule:nonzero;fill:rgb(100%,84.3%,0%);fill-opacity:1;" d="M 222.472656 263.996094 C 222.472656 267.828125 216.722656 267.828125 216.722656 263.996094 C 216.722656 260.160156 222.472656 260.160156 222.472656 263.996094 "/>
<path style=" stroke:none;fill-rule:nonzero;fill:rgb(100%,84.3%,0%);fill-opacity:1;" d="M 290.914062 154.074219 C 290.914062 157.910156 285.164062 157.910156 285.164062 154.074219 C 285.164062 150.242188 290.914062 150.242188 290.914062 154.074219 "/>
<path style=" stroke:none;fill-rule:nonzero;fill:rgb(100%,84.3%,0%);fill-opacity:1;" d="M 259.59375 385.75 C 259.59375 389.582031 253.84375 389.582031 253.84375 385.75 C 253.84375 381.914062 259.59375 381.914062 259.59375 385.75 "/>
<path style=" stroke:none;fill-rule:nonzero;fill:rgb(100%,84.3%,0%);fill-opacity:1;" d="M 291.550781 191.957031 C 291.550781 195.789062 285.800781 195.789062 285.800781 191.957031 C 285.800781 188.125 291.550781 188.125 291.550781 191.957031 "/>
<path style=" stroke:none;fill-rule:nonzero;fill:rgb(100%,84.3%,0%);fill-opacity:1;" d="M 291.847656 238.820312 C 291.847656 242.65625 286.097656 242.65625 286.097656 238.820312 C 286.097656 234.988281 291.847656 234.988281 291.847656 238.820312 "/>
<path style=" stroke:none;fill-rule:nonzero;fill:rgb(100%,84.3%,0%);fill-opacity:1;" d="M 280.734375 246.074219 C 280.734375 249.90625 274.984375 249.90625 274.984375 246.074219 C 274.984375 242.238281 280.734375 242.238281 280.734375 246.074219 "/>
<path style=" stroke:none;fill-rule:nonzero;fill:rgb(100%,84.3%,0%);fill-opacity:1;" d="M 287.613281 302.101562 C 287.613281 305.933594 281.863281 305.933594 281.863281 302.101562 C 281.863281 298.269531 287.613281 298.269531 287.613281 302.101562 "/>
<path style=" stroke:none;fill-rule:nonzero;fill:rgb(100%,84.3%,0%);fill-opacity:1;" d="M 225.226562 453.207031 C 225.226562 457.042969 219.476562 457.042969 219.476562 453.207031 C 219.476562 449.375 225.226562 449.375 225.226562 453.207031 "/>
<path style=" stroke:none;fill-rule:nonzero;fill:rgb(100%,84.3%,0%);fill-opacity:1;" d="M 293.625 440.742188 C 293.625 444.578125 287.871094 444.578125 287.871094 440.742188 C 287.871094 436.910156 293.625 436.910156 293.625 440.742188 "/>
<path style=" stroke:none;fill-rule:nonzero;fill:rgb(100%,84.3%,0%);fill-opacity:1;" d="M 220.421875 174.167969 C 220.421875 178.003906 214.671875 178.003906 214.671875 174.167969 C 214.671875 170.335938 220.421875 170.335938 220.421875 174.167969 "/>
<path style=" stroke:none;fill-rule:nonzero;fill:rgb(100%,84.3%,0%);fill-opacity:1;" d="M 296.207031 423.160156 C 296.207031 426.996094 290.457031 426.996094 290.457031 423.160156 C 290.457031 419.328125 296.207031 419.328125 296.207031 423.160156 "/>
<path style=" stroke:none;fill-rule:nonzero;fill:rgb(100%,84.3%,0%);fill-opacity:1;" d="M 283.890625 106.632812 C 283.890625 110.464844 278.140625 110.464844 278.140625 106.632812 C 278.140625 102.796875 283.890625 102.796875 283.890625 106.632812 "/>
<path style=" stroke:none;fill-rule:nonzero;fill:rgb(100%,84.3%,0%);fill-opacity:1;" d="M 277.121094 48.851562 C 277.121094 52.683594 271.371094 52.683594 271.371094 48.851562 C 271.371094 45.019531 277.121094 45.019531 277.121094 48.851562 "/>
<path style=" stroke:none;fill-rule:nonzero;fill:rgb(100%,84.3%,0%);fill-opacity:1;" d="M 220.472656 197.800781 C 220.472656 201.632812 214.722656 201.632812 214.722656 197.800781 C 214.722656 193.964844 220.472656 193.964844 220.472656 197.800781 "/>
<path style=" stroke:none;fill-rule:nonzero;fill:rgb(100%,84.3%,0%);fill-opacity:1;" d="M 296.265625 356.175781 C 296.265625 360.007812 290.515625 360.007812 290.515625 356.175781 C 290.515625 352.339844 296.265625 352.339844 296.265625 356.175781 "/>
<path style=" stroke:none;fill-rule:nonzero;fill:rgb(100%,84.3%,0%);fill-opacity:1;" d="M 250.777344 457.257812 C 250.777344 461.089844 245.027344 461.089844 245.027344 457.257812 C 245.027344 453.421875 250.777344 453.421875 250.777344 457.257812 "/>
<path style=" stroke:none;fill-rule:nonzero;fill:rgb(100%,84.3%,0%);fill-opacity:1;" d="M 288.8125 406.769531 C 288.8125 410.605469 283.0625 410.605469 283.0625 406.769531 C 283.0625 402.9375 288.8125 402.9375 288.8125 406.769531 "/>
<path style=" stroke:none;fill-rule:nonzero;fill:rgb(100%,84.3%,0%);fill-opacity:1;" d="M 289.933594 272.21875 C 289.933594 276.050781 284.183594 276.050781 284.183594 272.21875 C 284.183594 268.382812 289.933594 268.382812 289.933594 272.21875 "/>
<path style=" stroke:none;fill-rule:nonzero;fill:rgb(100%,84.3%,0%);fill-opacity:1;" d="M 297.113281 284.703125 C 297.113281 288.535156 291.363281 288.535156 291.363281 284.703125 C 291.363281 280.867188 297.113281 280.867188 297.113281 284.703125 "/>
</g>
</svg>
