<?xml version="1.0" encoding="UTF-8"?>
<svg xmlns="http://www.w3.org/2000/svg" xmlns:xlink="http://www.w3.org/1999/xlink" width="512pt" height="512pt" viewBox="0 0 512 512" version="1.1">
<g id="surface431">
<rect x="0" y="0" width="512" height="512" style="fill:rgb(26.7%,26.7%,26.7%);fill-opacity:1;stroke:none;"/>
<path style=" stroke:none;fill-rule:nonzero;fill:rgb(19.2%,38.8%,66.7%);fill-opacity:1;" d="M 42.667969 294.492188 L 469.332031 294.492188 L 469.332031 492.226562 L 42.667969 492.226562 Z M 42.667969 294.492188 "/>
<path style=" stroke:none;fill-rule:nonzero;fill:rgb(90.6%,14.9%,14.9%);fill-opacity:1;" d="M 96.503906 240.402344 C 96.503906 249.988281 88.730469 257.761719 79.144531 257.761719 C 69.558594 257.761719 61.785156 249.988281 61.785156 240.402344 C 61.785156 230.816406 69.558594 223.042969 79.144531 223.042969 C 88.730469 223.042969 96.503906 230.816406 96.503906 240.402344 "/>
<path style=" stroke:none;fill-rule:nonzero;fill:rgb(90.6%,14.9%,14.9%);fill-opacity:1;" d="M 17.257812 460.277344 C 17.257812 464.300781 11.21875 464.300781 11.21875 460.277344 C 11.21875 456.25 17.257812 456.25 17.257812 460.277344 "/>
<path style=" stroke:none;fill-rule:nonzero;fill:rgb(90.6%,14.9%,14.9%);fill-opacity:1;" d="M 138.265625 517.132812 C 138.265625 521.855469 134.433594 525.683594 129.710938 525.683594 C 124.988281 525.683594 121.15625 521.855469 121.15625 517.132812 C 121.15625 512.40625 124.988281 508.578125 129.710938 508.578125 C 134.433594 508.578125 138.265625 512.40625 138.265625 517.132812 "/>
<path style=" stroke:none;fill-rule:nonzero;fill:rgb(90.6%,14.9%,14.9%);fill-opacity:1;" d="M 526.1875 2.164062 C 526.1875 8.136719 521.34375 12.980469 515.371094 12.980469 C 509.398438 12.980469 504.554688 8.136719 504.554688 2.164062 C 504.554688 -3.808594 509.398438 -8.652344 515.371094 -8.652344 C 521.34375 -8.652344 526.1875 -3.808594 526.1875 2.164062 "/>
<path style=" stroke:none;fill-rule:nonzero;fill:rgb(90.6%,14.9%,14.9%);fill-opacity:1;" d="M 495.75 142.792969 C 495.75 154.046875 486.625 163.167969 475.371094 163.167969 C 464.117188 163.167969 454.992188 154.046875 454.992188 142.792969 C 454.992188 131.539062 464.117188 122.414062 475.371094 122.414062 C 486.625 122.414062 495.75 131.539062 495.75 142.792969 "/>
<path style=" stroke:none;fill-rule:nonzero;fill:rgb(90.6%,14.9%,14.9%);fill-opacity:1;" d="M 190.089844 5.6875 C 190.089844 9.578125 186.933594 12.730469 183.042969 12.730469 C 179.152344 12.730469 176 9.578125 176 5.6875 C 176 1.796875 179.152344 -1.359375 183.042969 -1.359375 C 186.933594 -1.359375 190.089844 1.796875 190.089844 5.6875 "/>
<path style=" stroke:none;fill-rule:nonzero;fill:rgb(90.6%,14.9%,14.9%);fill-opacity:1;" d="M 449.460938 149.835938 C 449.460938 153.527344 443.925781 153.527344 443.925781 149.835938 C 443.925781 146.144531 449.460938 146.144531 449.460938 149.835938 "/>
<path style=" stroke:none;fill-rule:nonzero;fill:rgb(90.6%,14.9%,14.9%);fill-opacity:1;" d="M 323.671875 123.671875 C 323.671875 132.007812 316.914062 138.765625 308.578125 138.765625 C 300.242188 138.765625 293.484375 132.007812 293.484375 123.671875 C 293.484375 115.335938 300.242188 108.578125 308.578125 108.578125 C 316.914062 108.578125 323.671875 115.335938 323.671875 123.671875 "/>
<path style=" stroke:none;fill-rule:nonzero;fill:rgb(100%,100%,100%);fill-opacity:1;" d="M 1.15625 393.609375 C 1.15625 395.289062 -1.359375 395.289062 -1.359375 393.609375 C -1.359375 391.933594 1.15625 391.933594 1.15625 393.609375 "/>
<path style=" stroke:none;fill-rule:nonzero;fill:rgb(100%,100%,100%);fill-opacity:1;" d="M 490.96875 47.699219 C 490.96875 49.375 488.453125 49.375 488.453125 47.699219 C 488.453125 46.019531 490.96875 46.019531 490.96875 47.699219 "/>
<path style=" stroke:none;fill-rule:nonzero;fill:rgb(100%,100%,100%);fill-opacity:1;" d="M 319.898438 144.554688 C 319.898438 146.230469 317.382812 146.230469 317.382812 144.554688 C 317.382812 142.875 319.898438 142.875 319.898438 144.554688 "/>
<path style=" stroke:none;fill-rule:nonzero;fill:rgb(100%,100%,100%);fill-opacity:1;" d="M 349.332031 60.277344 C 349.332031 61.953125 346.816406 61.953125 346.816406 60.277344 C 346.816406 58.601562 349.332031 58.601562 349.332031 60.277344 "/>
<path style=" stroke:none;fill-rule:nonzero;fill:rgb(100%,100%,100%);fill-opacity:1;" d="M 90.214844 117.886719 C 90.214844 119.5625 87.699219 119.5625 87.699219 117.886719 C 87.699219 116.210938 90.214844 116.210938 90.214844 117.886719 "/>
<path style=" stroke:none;fill-rule:nonzero;fill:rgb(100%,100%,100%);fill-opacity:1;" d="M 502.792969 303.296875 C 502.792969 304.972656 500.277344 304.972656 500.277344 303.296875 C 500.277344 301.617188 502.792969 301.617188 502.792969 303.296875 "/>
<path style=" stroke:none;fill-rule:nonzero;fill:rgb(100%,100%,100%);fill-opacity:1;" d="M 14.238281 240.402344 C 14.238281 242.082031 11.722656 242.082031 11.722656 240.402344 C 11.722656 238.726562 14.238281 238.726562 14.238281 240.402344 "/>
<path style=" stroke:none;fill-rule:nonzero;fill:rgb(100%,100%,100%);fill-opacity:1;" d="M 144.554688 218.265625 C 144.554688 219.941406 142.039062 219.941406 142.039062 218.265625 C 142.039062 216.585938 144.554688 216.585938 144.554688 218.265625 "/>
<path style=" stroke:none;fill-rule:nonzero;fill:rgb(100%,100%,100%);fill-opacity:1;" d="M 502.039062 353.609375 C 502.039062 355.289062 499.523438 355.289062 499.523438 353.609375 C 499.523438 351.933594 502.039062 351.933594 502.039062 353.609375 "/>
<path style=" stroke:none;fill-rule:nonzero;fill:rgb(100%,100%,100%);fill-opacity:1;" d="M 30.589844 350.84375 C 30.589844 352.519531 28.074219 352.519531 28.074219 350.84375 C 28.074219 349.164062 30.589844 349.164062 30.589844 350.84375 "/>
<path style=" stroke:none;fill-rule:nonzero;fill:rgb(100%,100%,100%);fill-opacity:1;" d="M 321.910156 37.132812 C 321.910156 38.808594 319.394531 38.808594 319.394531 37.132812 C 319.394531 35.453125 321.910156 35.453125 321.910156 37.132812 "/>
<path style=" stroke:none;fill-rule:nonzero;fill:rgb(100%,100%,100%);fill-opacity:1;" d="M 227.570312 186.0625 C 227.570312 187.738281 225.054688 187.738281 225.054688 186.0625 C 225.054688 184.386719 227.570312 184.386719 227.570312 186.0625 "/>
<path style=" stroke:none;fill-rule:nonzero;fill:rgb(100%,100%,100%);fill-opacity:1;" d="M 387.070312 217.761719 C 387.070312 219.4375 384.554688 219.4375 384.554688 217.761719 C 384.554688 216.082031 387.070312 216.082031 387.070312 217.761719 "/>
<path style=" stroke:none;fill-rule:nonzero;fill:rgb(100%,100%,100%);fill-opacity:1;" d="M 464.300781 96.503906 C 464.300781 98.179688 461.785156 98.179688 461.785156 96.503906 C 461.785156 94.824219 464.300781 94.824219 464.300781 96.503906 "/>
<path style=" stroke:none;fill-rule:nonzero;fill:rgb(100%,100%,100%);fill-opacity:1;" d="M 223.546875 186.3125 C 223.546875 187.992188 221.03125 187.992188 221.03125 186.3125 C 221.03125 184.636719 223.546875 184.636719 223.546875 186.3125 "/>
<path style=" stroke:none;fill-rule:nonzero;fill:rgb(100%,100%,100%);fill-opacity:1;" d="M 189.585938 237.886719 C 189.585938 239.5625 187.070312 239.5625 187.070312 237.886719 C 187.070312 236.210938 189.585938 236.210938 189.585938 237.886719 "/>
<path style=" stroke:none;fill-rule:nonzero;fill:rgb(100%,100%,100%);fill-opacity:1;" d="M 416 32.101562 C 416 33.777344 413.484375 33.777344 413.484375 32.101562 C 413.484375 30.425781 416 30.425781 416 32.101562 "/>
<path style=" stroke:none;fill-rule:nonzero;fill:rgb(100%,100%,100%);fill-opacity:1;" d="M 468.828125 219.523438 C 468.828125 221.199219 466.3125 221.199219 466.3125 219.523438 C 466.3125 217.84375 468.828125 217.84375 468.828125 219.523438 "/>
<path style=" stroke:none;fill-rule:nonzero;fill:rgb(100%,100%,100%);fill-opacity:1;" d="M 71.597656 32.101562 C 71.597656 33.777344 69.082031 33.777344 69.082031 32.101562 C 69.082031 30.425781 71.597656 30.425781 71.597656 32.101562 "/>
<path style=" stroke:none;fill-rule:nonzero;fill:rgb(100%,100%,100%);fill-opacity:1;" d="M 193.609375 42.164062 C 193.609375 43.839844 191.09375 43.839844 191.09375 42.164062 C 191.09375 40.488281 193.609375 40.488281 193.609375 42.164062 "/>
<path style=" stroke:none;fill-rule:nonzero;fill:rgb(100%,100%,100%);fill-opacity:1;" d="M 431.597656 245.183594 C 431.597656 246.859375 429.082031 246.859375 429.082031 245.183594 C 429.082031 243.503906 431.597656 243.503906 431.597656 245.183594 "/>
<path style=" stroke:none;fill-rule:nonzero;fill:rgb(100%,100%,100%);fill-opacity:1;" d="M 28.074219 487.949219 C 28.074219 489.628906 25.558594 489.628906 25.558594 487.949219 C 25.558594 486.273438 28.074219 486.273438 28.074219 487.949219 "/>
<path style=" stroke:none;fill-rule:nonzero;fill:rgb(100%,100%,100%);fill-opacity:1;" d="M 190.84375 1.410156 C 190.84375 3.085938 188.328125 3.085938 188.328125 1.410156 C 188.328125 -0.269531 190.84375 -0.269531 190.84375 1.410156 "/>
<path style=" stroke:none;fill-rule:nonzero;fill:rgb(100%,100%,100%);fill-opacity:1;" d="M 43.671875 272.855469 C 43.671875 274.53125 41.15625 274.53125 41.15625 272.855469 C 41.15625 271.179688 43.671875 271.179688 43.671875 272.855469 "/>
<path style=" stroke:none;fill-rule:nonzero;fill:rgb(100%,100%,100%);fill-opacity:1;" d="M 157.382812 3.671875 C 157.382812 5.351562 154.867188 5.351562 154.867188 3.671875 C 154.867188 1.996094 157.382812 1.996094 157.382812 3.671875 "/>
<path style=" stroke:none;fill-rule:nonzero;fill:rgb(100%,100%,100%);fill-opacity:1;" d="M 472.605469 2.164062 C 472.605469 3.839844 470.089844 3.839844 470.089844 2.164062 C 470.089844 0.488281 472.605469 0.488281 472.605469 2.164062 "/>
<path style=" stroke:none;fill-rule:nonzero;fill:rgb(100%,100%,100%);fill-opacity:1;" d="M 139.019531 146.3125 C 139.019531 147.992188 136.503906 147.992188 136.503906 146.3125 C 136.503906 144.636719 139.019531 144.636719 139.019531 146.3125 "/>
<path style=" stroke:none;fill-rule:nonzero;fill:rgb(100%,100%,100%);fill-opacity:1;" d="M 475.371094 112.351562 C 475.371094 114.027344 472.855469 114.027344 472.855469 112.351562 C 472.855469 110.675781 475.371094 110.675781 475.371094 112.351562 "/>
<path style=" stroke:none;fill-rule:nonzero;fill:rgb(100%,100%,100%);fill-opacity:1;" d="M 501.28125 445.6875 C 501.28125 447.363281 498.765625 447.363281 498.765625 445.6875 C 498.765625 444.007812 501.28125 444.007812 501.28125 445.6875 "/>
<path style=" stroke:none;fill-rule:nonzero;fill:rgb(100%,100%,100%);fill-opacity:1;" d="M 34.363281 219.523438 C 34.363281 221.199219 31.847656 221.199219 31.847656 219.523438 C 31.847656 217.84375 34.363281 217.84375 34.363281 219.523438 "/>
<path style=" stroke:none;fill-rule:nonzero;fill:rgb(100%,100%,100%);fill-opacity:1;" d="M 17.257812 312.605469 C 17.257812 314.28125 14.742188 314.28125 14.742188 312.605469 C 14.742188 310.925781 17.257812 310.925781 17.257812 312.605469 "/>
<path style=" stroke:none;fill-rule:nonzero;fill:rgb(100%,100%,100%);fill-opacity:1;" d="M 103.042969 141.28125 C 103.042969 142.960938 100.527344 142.960938 100.527344 141.28125 C 100.527344 139.605469 103.042969 139.605469 103.042969 141.28125 "/>
<path style=" stroke:none;fill-rule:nonzero;fill:rgb(100%,100%,100%);fill-opacity:1;" d="M 351.347656 241.410156 C 351.347656 243.085938 348.832031 243.085938 348.832031 241.410156 C 348.832031 239.730469 351.347656 239.730469 351.347656 241.410156 "/>
<path style=" stroke:none;fill-rule:nonzero;fill:rgb(100%,100%,100%);fill-opacity:1;" d="M 53.484375 510.089844 C 53.484375 511.765625 50.96875 511.765625 50.96875 510.089844 C 50.96875 508.410156 53.484375 508.410156 53.484375 510.089844 "/>
<path style=" stroke:none;fill-rule:nonzero;fill:rgb(100%,100%,100%);fill-opacity:1;" d="M 283.421875 200.90625 C 283.421875 202.582031 280.90625 202.582031 280.90625 200.90625 C 280.90625 199.230469 283.421875 199.230469 283.421875 200.90625 "/>
<path style=" stroke:none;fill-rule:nonzero;fill:rgb(100%,100%,100%);fill-opacity:1;" d="M 473.105469 164.929688 C 473.105469 166.609375 470.589844 166.609375 470.589844 164.929688 C 470.589844 163.253906 473.105469 163.253906 473.105469 164.929688 "/>
<path style=" stroke:none;fill-rule:nonzero;fill:rgb(100%,100%,100%);fill-opacity:1;" d="M 268.328125 96.503906 C 268.328125 98.179688 265.8125 98.179688 265.8125 96.503906 C 265.8125 94.824219 268.328125 94.824219 268.328125 96.503906 "/>
<path style=" stroke:none;fill-rule:nonzero;fill:rgb(100%,100%,100%);fill-opacity:1;" d="M 417.511719 8.957031 C 417.511719 10.632812 414.992188 10.632812 414.992188 8.957031 C 414.992188 7.277344 417.511719 7.277344 417.511719 8.957031 "/>
<path style=" stroke:none;fill-rule:nonzero;fill:rgb(100%,84.3%,0%);fill-opacity:1;" d="M 53.90625 362.71875 C 53.90625 364.394531 51.390625 364.394531 51.390625 362.71875 C 51.390625 361.042969 53.90625 361.042969 53.90625 362.71875 "/>
<path style=" stroke:none;fill-rule:nonzero;fill:rgb(100%,84.3%,0%);fill-opacity:1;" d="M 467.222656 362.269531 C 467.222656 363.945312 464.707031 363.945312 464.707031 362.269531 C 464.707031 360.589844 467.222656 360.589844 467.222656 362.269531 "/>
<path style=" stroke:none;fill-rule:nonzero;fill:rgb(100%,84.3%,0%);fill-opacity:1;" d="M 213.417969 487.5 C 213.417969 489.175781 210.902344 489.175781 210.902344 487.5 C 210.902344 485.820312 213.417969 485.820312 213.417969 487.5 "/>
<path style=" stroke:none;fill-rule:nonzero;fill:rgb(100%,84.3%,0%);fill-opacity:1;" d="M 459.109375 381.394531 C 459.109375 383.070312 456.59375 383.070312 456.59375 381.394531 C 456.59375 379.71875 459.109375 379.71875 459.109375 381.394531 "/>
<path style=" stroke:none;fill-rule:nonzero;fill:rgb(100%,84.3%,0%);fill-opacity:1;" d="M 458.789062 484.273438 C 458.789062 485.949219 456.273438 485.949219 456.273438 484.273438 C 456.273438 482.597656 458.789062 482.597656 458.789062 484.273438 "/>
<path style=" stroke:none;fill-rule:nonzero;fill:rgb(100%,84.3%,0%);fill-opacity:1;" d="M 56.726562 363.535156 C 56.726562 365.210938 54.210938 365.210938 54.210938 363.535156 C 54.210938 361.859375 56.726562 361.859375 56.726562 363.535156 "/>
<path style=" stroke:none;fill-rule:nonzero;fill:rgb(100%,84.3%,0%);fill-opacity:1;" d="M 464.867188 335.890625 C 464.867188 337.570312 462.351562 337.570312 462.351562 335.890625 C 462.351562 334.214844 464.867188 334.214844 464.867188 335.890625 "/>
<path style=" stroke:none;fill-rule:nonzero;fill:rgb(100%,84.3%,0%);fill-opacity:1;" d="M 422.609375 297.558594 C 422.609375 299.238281 420.09375 299.238281 420.09375 297.558594 C 420.09375 295.882812 422.609375 295.882812 422.609375 297.558594 "/>
<path style=" stroke:none;fill-rule:nonzero;fill:rgb(100%,84.3%,0%);fill-opacity:1;" d="M 457.171875 488.808594 C 457.171875 490.484375 454.65625 490.484375 454.65625 488.808594 C 454.65625 487.128906 457.171875 487.128906 457.171875 488.808594 "/>
<path style=" stroke:none;fill-rule:nonzero;fill:rgb(100%,84.3%,0%);fill-opacity:1;" d="M 73.59375 338.511719 C 73.59375 340.191406 71.078125 340.191406 71.078125 338.511719 C 71.078125 336.835938 73.59375 336.835938 73.59375 338.511719 "/>
<path style=" stroke:none;fill-rule:nonzero;fill:rgb(100%,84.3%,0%);fill-opacity:1;" d="M 461.101562 477.292969 C 461.101562 478.972656 458.585938 478.972656 458.585938 477.292969 C 458.585938 475.617188 461.101562 475.617188 461.101562 477.292969 "/>
<path style=" stroke:none;fill-rule:nonzero;fill:rgb(100%,84.3%,0%);fill-opacity:1;" d="M 455.082031 299.910156 C 455.082031 301.585938 452.566406 301.585938 452.566406 299.910156 C 452.566406 298.230469 455.082031 298.230469 455.082031 299.910156 "/>
<path style=" stroke:none;fill-rule:nonzero;fill:rgb(100%,84.3%,0%);fill-opacity:1;" d="M 136.417969 317.199219 C 136.417969 318.875 133.902344 318.875 133.902344 317.199219 C 133.902344 315.523438 136.417969 315.523438 136.417969 317.199219 "/>
<path style=" stroke:none;fill-rule:nonzero;fill:rgb(100%,84.3%,0%);fill-opacity:1;" d="M 49.058594 353.566406 C 49.058594 355.242188 46.542969 355.242188 46.542969 353.566406 C 46.542969 351.890625 49.058594 351.890625 49.058594 353.566406 "/>
<path style=" stroke:none;fill-rule:nonzero;fill:rgb(100%,84.3%,0%);fill-opacity:1;" d="M 448.578125 480.921875 C 448.578125 482.601562 446.0625 482.601562 446.0625 480.921875 C 446.0625 479.246094 448.578125 479.246094 448.578125 480.921875 "/>
<path style=" stroke:none;fill-rule:nonzero;fill:rgb(100%,84.3%,0%);fill-opacity:1;" d="M 58.035156 488.167969 C 58.035156 489.84375 55.519531 489.84375 55.519531 488.167969 C 55.519531 486.488281 58.035156 486.488281 58.035156 488.167969 "/>
<path style=" stroke:none;fill-rule:nonzero;fill:rgb(100%,84.3%,0%);fill-opacity:1;" d="M 467.839844 489.347656 C 467.839844 491.023438 465.324219 491.023438 465.324219 489.347656 C 465.324219 487.671875 467.839844 487.671875 467.839844 489.347656 "/>
<path style=" stroke:none;fill-rule:nonzero;fill:rgb(100%,84.3%,0%);fill-opacity:1;" d="M 58.265625 318.574219 C 58.265625 320.253906 55.75 320.253906 55.75 318.574219 C 55.75 316.898438 58.265625 316.898438 58.265625 318.574219 "/>
<path style=" stroke:none;fill-rule:nonzero;fill:rgb(100%,84.3%,0%);fill-opacity:1;" d="M 450.890625 473.941406 C 450.890625 475.621094 448.375 475.621094 448.375 473.941406 C 448.375 472.265625 450.890625 472.265625 450.890625 473.941406 "/>
<path style=" stroke:none;fill-rule:nonzero;fill:rgb(100%,84.3%,0%);fill-opacity:1;" d="M 50.367188 478.199219 C 50.367188 479.875 47.851562 479.875 47.851562 478.199219 C 47.851562 476.519531 50.367188 476.519531 50.367188 478.199219 "/>
<path style=" stroke:none;fill-rule:nonzero;fill:rgb(100%,84.3%,0%);fill-opacity:1;" d="M 441.871094 305.984375 C 441.871094 307.664062 439.355469 307.664062 439.355469 305.984375 C 439.355469 304.308594 441.871094 304.308594 441.871094 305.984375 "/>
<path style=" stroke:none;fill-rule:nonzero;fill:rgb(100%,84.3%,0%);fill-opacity:1;" d="M 459.828125 408.769531 C 459.828125 410.445312 457.3125 410.445312 457.3125 408.769531 C 457.3125 407.089844 459.828125 407.089844 459.828125 408.769531 "/>
<path style=" stroke:none;fill-rule:nonzero;fill:rgb(100%,84.3%,0%);fill-opacity:1;" d="M 71.976562 343.046875 C 71.976562 344.722656 69.460938 344.722656 69.460938 343.046875 C 69.460938 341.367188 71.976562 341.367188 71.976562 343.046875 "/>
<path style=" stroke:none;fill-rule:nonzero;fill:rgb(100%,84.3%,0%);fill-opacity:1;" d="M 446.035156 487.539062 C 446.035156 489.21875 443.519531 489.21875 443.519531 487.539062 C 443.519531 485.863281 446.035156 485.863281 446.035156 487.539062 "/>
<path style=" stroke:none;fill-rule:nonzero;fill:rgb(100%,84.3%,0%);fill-opacity:1;" d="M 466.675781 298.367188 C 466.675781 300.042969 464.160156 300.042969 464.160156 298.367188 C 464.160156 296.6875 466.675781 296.6875 466.675781 298.367188 "/>
<path style=" stroke:none;fill-rule:nonzero;fill:rgb(100%,84.3%,0%);fill-opacity:1;" d="M 375.308594 305.816406 C 375.308594 307.496094 372.792969 307.496094 372.792969 305.816406 C 372.792969 304.140625 375.308594 304.140625 375.308594 305.816406 "/>
<path style=" stroke:none;fill-rule:nonzero;fill:rgb(100%,84.3%,0%);fill-opacity:1;" d="M 407.777344 308.167969 C 407.777344 309.84375 405.261719 309.84375 405.261719 308.167969 C 405.261719 306.492188 407.777344 306.492188 407.777344 308.167969 "/>
<path style=" stroke:none;fill-rule:nonzero;fill:rgb(100%,84.3%,0%);fill-opacity:1;" d="M 465.058594 302.898438 C 465.058594 304.574219 462.542969 304.574219 462.542969 302.898438 C 462.542969 301.222656 465.058594 301.222656 465.058594 302.898438 "/>
<path style=" stroke:none;fill-rule:nonzero;fill:rgb(100%,84.3%,0%);fill-opacity:1;" d="M 386.902344 304.273438 C 386.902344 305.953125 384.386719 305.953125 384.386719 304.273438 C 384.386719 302.597656 386.902344 302.597656 386.902344 304.273438 "/>
<path style=" stroke:none;fill-rule:nonzero;fill:rgb(100%,84.3%,0%);fill-opacity:1;" d="M 69.628906 486.625 C 69.628906 488.300781 67.113281 488.300781 67.113281 486.625 C 67.113281 484.945312 69.628906 484.945312 69.628906 486.625 "/>
<path style=" stroke:none;fill-rule:nonzero;fill:rgb(100%,84.3%,0%);fill-opacity:1;" d="M 419.371094 306.625 C 419.371094 308.300781 416.855469 308.300781 416.855469 306.625 C 416.855469 304.945312 419.371094 304.945312 419.371094 306.625 "/>
<path style=" stroke:none;fill-rule:nonzero;fill:rgb(100%,84.3%,0%);fill-opacity:1;" d="M 444.179688 299.003906 C 444.179688 300.683594 441.664062 300.683594 441.664062 299.003906 C 441.664062 297.328125 444.179688 297.328125 444.179688 299.003906 "/>
<path style=" stroke:none;fill-rule:nonzero;fill:rgb(100%,84.3%,0%);fill-opacity:1;" d="M 435.132812 486.636719 C 435.132812 488.3125 432.613281 488.3125 432.613281 486.636719 C 432.613281 484.957031 435.132812 484.957031 435.132812 486.636719 "/>
<path style=" stroke:none;fill-rule:nonzero;fill:rgb(100%,84.3%,0%);fill-opacity:1;" d="M 463.4375 307.429688 C 463.4375 309.109375 460.921875 309.109375 460.921875 307.429688 C 460.921875 305.753906 463.4375 305.753906 463.4375 307.429688 "/>
<path style=" stroke:none;fill-rule:nonzero;fill:rgb(100%,84.3%,0%);fill-opacity:1;" d="M 450.046875 372.785156 C 450.046875 374.464844 447.53125 374.464844 447.53125 372.785156 C 447.53125 371.109375 450.046875 371.109375 450.046875 372.785156 "/>
<path style=" stroke:none;fill-rule:nonzero;fill:rgb(100%,84.3%,0%);fill-opacity:1;" d="M 377.617188 298.839844 C 377.617188 300.515625 375.101562 300.515625 375.101562 298.839844 C 375.101562 297.160156 377.617188 297.160156 377.617188 298.839844 "/>
<path style=" stroke:none;fill-rule:nonzero;fill:rgb(100%,84.3%,0%);fill-opacity:1;" d="M 442.5625 303.539062 C 442.5625 305.214844 440.046875 305.214844 440.046875 303.539062 C 440.046875 301.859375 442.5625 301.859375 442.5625 303.539062 "/>
<path style=" stroke:none;fill-rule:nonzero;fill:rgb(100%,84.3%,0%);fill-opacity:1;" d="M 225.015625 485.957031 C 225.015625 487.632812 222.5 487.632812 222.5 485.957031 C 222.5 484.277344 225.015625 484.277344 225.015625 485.957031 "/>
<path style=" stroke:none;fill-rule:nonzero;fill:rgb(100%,84.3%,0%);fill-opacity:1;" d="M 140.347656 305.6875 C 140.347656 307.363281 137.832031 307.363281 137.832031 305.6875 C 137.832031 304.011719 140.347656 304.011719 140.347656 305.6875 "/>
<path style=" stroke:none;fill-rule:nonzero;fill:rgb(100%,84.3%,0%);fill-opacity:1;" d="M 396.875 307.265625 C 396.875 308.941406 394.359375 308.941406 394.359375 307.265625 C 394.359375 305.585938 396.875 305.585938 396.875 307.265625 "/>
<path style=" stroke:none;fill-rule:nonzero;fill:rgb(100%,84.3%,0%);fill-opacity:1;" d="M 461.820312 311.964844 C 461.820312 313.640625 459.304688 313.640625 459.304688 311.964844 C 459.304688 310.285156 461.820312 310.285156 461.820312 311.964844 "/>
<path style=" stroke:none;fill-rule:nonzero;fill:rgb(100%,84.3%,0%);fill-opacity:1;" d="M 311.054688 298.671875 C 311.054688 300.347656 308.539062 300.347656 308.539062 298.671875 C 308.539062 296.992188 311.054688 296.992188 311.054688 298.671875 "/>
<path style=" stroke:none;fill-rule:nonzero;fill:rgb(100%,84.3%,0%);fill-opacity:1;" d="M 127.136719 311.761719 C 127.136719 313.441406 124.621094 313.441406 124.621094 311.761719 C 124.621094 310.085938 127.136719 310.085938 127.136719 311.761719 "/>
<path style=" stroke:none;fill-rule:nonzero;fill:rgb(100%,84.3%,0%);fill-opacity:1;" d="M 343.527344 301.019531 C 343.527344 302.699219 341.011719 302.699219 341.011719 301.019531 C 341.011719 299.34375 343.527344 299.34375 343.527344 301.019531 "/>
<path style=" stroke:none;fill-rule:nonzero;fill:rgb(100%,84.3%,0%);fill-opacity:1;" d="M 362.785156 309.445312 C 362.785156 311.125 360.269531 311.125 360.269531 309.445312 C 360.269531 307.769531 362.785156 307.769531 362.785156 309.445312 "/>
<path style=" stroke:none;fill-rule:nonzero;fill:rgb(100%,84.3%,0%);fill-opacity:1;" d="M 355.121094 299.476562 C 355.121094 301.15625 352.605469 301.15625 352.605469 299.476562 C 352.605469 297.800781 355.121094 297.800781 355.121094 299.476562 "/>
<path style=" stroke:none;fill-rule:nonzero;fill:rgb(100%,84.3%,0%);fill-opacity:1;" d="M 452.535156 306.527344 C 452.535156 308.203125 450.019531 308.203125 450.019531 306.527344 C 450.019531 304.851562 452.535156 304.851562 452.535156 306.527344 "/>
<path style=" stroke:none;fill-rule:nonzero;fill:rgb(100%,84.3%,0%);fill-opacity:1;" d="M 119.46875 301.792969 C 119.46875 303.472656 116.953125 303.472656 116.953125 301.792969 C 116.953125 300.117188 119.46875 300.117188 119.46875 301.792969 "/>
<path style=" stroke:none;fill-rule:nonzero;fill:rgb(100%,84.3%,0%);fill-opacity:1;" d="M 47.441406 358.097656 C 47.441406 359.777344 44.925781 359.777344 44.925781 358.097656 C 44.925781 356.421875 47.441406 356.421875 47.441406 358.097656 "/>
<path style=" stroke:none;fill-rule:nonzero;fill:rgb(100%,84.3%,0%);fill-opacity:1;" d="M 321.03125 301.660156 C 321.03125 303.335938 318.515625 303.335938 318.515625 301.660156 C 318.515625 299.984375 321.03125 299.984375 321.03125 301.660156 "/>
<path style=" stroke:none;fill-rule:nonzero;fill:rgb(100%,84.3%,0%);fill-opacity:1;" d="M 48.75 482.730469 C 48.75 484.40625 46.234375 484.40625 46.234375 482.730469 C 46.234375 481.054688 48.75 481.054688 48.75 482.730469 "/>
<path style=" stroke:none;fill-rule:nonzero;fill:rgb(100%,84.3%,0%);fill-opacity:1;" d="M 201.589844 488.679688 C 201.589844 490.355469 199.074219 490.355469 199.074219 488.679688 C 199.074219 487.003906 201.589844 487.003906 201.589844 488.679688 "/>
<path style=" stroke:none;fill-rule:nonzero;fill:rgb(100%,84.3%,0%);fill-opacity:1;" d="M 205.519531 477.167969 C 205.519531 478.84375 203.003906 478.84375 203.003906 477.167969 C 203.003906 475.492188 205.519531 475.492188 205.519531 477.167969 "/>
<path style=" stroke:none;fill-rule:nonzero;fill:rgb(100%,84.3%,0%);fill-opacity:1;" d="M 372.761719 312.4375 C 372.761719 314.113281 370.246094 314.113281 370.246094 312.4375 C 370.246094 310.757812 372.761719 310.757812 372.761719 312.4375 "/>
<path style=" stroke:none;fill-rule:nonzero;fill:rgb(100%,84.3%,0%);fill-opacity:1;" d="M 332.625 300.117188 C 332.625 301.792969 330.109375 301.792969 330.109375 300.117188 C 330.109375 298.441406 332.625 298.441406 332.625 300.117188 "/>
<path style=" stroke:none;fill-rule:nonzero;fill:rgb(100%,84.3%,0%);fill-opacity:1;" d="M 203.898438 481.699219 C 203.898438 483.378906 201.382812 483.378906 201.382812 481.699219 C 201.382812 480.023438 203.898438 480.023438 203.898438 481.699219 "/>
<path style=" stroke:none;fill-rule:nonzero;fill:rgb(100%,84.3%,0%);fill-opacity:1;" d="M 446.726562 485.09375 C 446.726562 486.769531 444.210938 486.769531 444.210938 485.09375 C 444.210938 483.414062 446.726562 483.414062 446.726562 485.09375 "/>
<path style=" stroke:none;fill-rule:nonzero;fill:rgb(100%,84.3%,0%);fill-opacity:1;" d="M 430.039062 307.164062 C 430.039062 308.84375 427.523438 308.84375 427.523438 307.164062 C 427.523438 305.488281 430.039062 305.488281 430.039062 307.164062 "/>
<path style=" stroke:none;fill-rule:nonzero;fill:rgb(100%,84.3%,0%);fill-opacity:1;" d="M 462.246094 472.035156 C 462.246094 473.714844 459.730469 473.714844 459.730469 472.035156 C 459.730469 470.359375 462.246094 470.359375 462.246094 472.035156 "/>
<path style=" stroke:none;fill-rule:nonzero;fill:rgb(100%,84.3%,0%);fill-opacity:1;" d="M 61.152344 382.570312 C 61.152344 384.246094 58.636719 384.246094 58.636719 382.570312 C 58.636719 380.890625 61.152344 380.890625 61.152344 382.570312 "/>
<path style=" stroke:none;fill-rule:nonzero;fill:rgb(100%,84.3%,0%);fill-opacity:1;" d="M 409.160156 303.273438 C 409.160156 304.949219 406.644531 304.949219 406.644531 303.273438 C 406.644531 301.597656 409.160156 301.597656 409.160156 303.273438 "/>
<path style=" stroke:none;fill-rule:nonzero;fill:rgb(100%,84.3%,0%);fill-opacity:1;" d="M 151.941406 304.144531 C 151.941406 305.820312 149.425781 305.820312 149.425781 304.144531 C 149.425781 302.464844 151.941406 302.464844 151.941406 304.144531 "/>
<path style=" stroke:none;fill-rule:nonzero;fill:rgb(100%,84.3%,0%);fill-opacity:1;" d="M 138.730469 310.21875 C 138.730469 311.894531 136.214844 311.894531 136.214844 310.21875 C 136.214844 308.542969 138.730469 308.542969 138.730469 310.21875 "/>
<path style=" stroke:none;fill-rule:nonzero;fill:rgb(100%,84.3%,0%);fill-opacity:1;" d="M 51.367188 346.585938 C 51.367188 348.261719 48.851562 348.261719 48.851562 346.585938 C 48.851562 344.910156 51.367188 344.910156 51.367188 346.585938 "/>
<path style=" stroke:none;fill-rule:nonzero;fill:rgb(100%,84.3%,0%);fill-opacity:1;" d="M 449.035156 478.113281 C 449.035156 479.789062 446.519531 479.789062 446.519531 478.113281 C 446.519531 476.433594 449.035156 476.433594 449.035156 478.113281 "/>
<path style=" stroke:none;fill-rule:nonzero;fill:rgb(100%,84.3%,0%);fill-opacity:1;" d="M 298.53125 302.300781 C 298.53125 303.976562 296.015625 303.976562 296.015625 302.300781 C 296.015625 300.621094 298.53125 300.621094 298.53125 302.300781 "/>
<path style=" stroke:none;fill-rule:nonzero;fill:rgb(100%,84.3%,0%);fill-opacity:1;" d="M 388.28125 299.378906 C 388.28125 301.058594 385.765625 301.058594 385.765625 299.378906 C 385.765625 297.703125 388.28125 297.703125 388.28125 299.378906 "/>
<path style=" stroke:none;fill-rule:nonzero;fill:rgb(100%,84.3%,0%);fill-opacity:1;" d="M 337.050781 319.152344 C 337.050781 320.828125 334.535156 320.828125 334.535156 319.152344 C 334.535156 317.472656 337.050781 317.472656 337.050781 319.152344 "/>
<path style=" stroke:none;fill-rule:nonzero;fill:rgb(100%,84.3%,0%);fill-opacity:1;" d="M 435.824219 484.1875 C 435.824219 485.863281 433.308594 485.863281 433.308594 484.1875 C 433.308594 482.511719 435.824219 482.511719 435.824219 484.1875 "/>
<path style=" stroke:none;fill-rule:nonzero;fill:rgb(100%,84.3%,0%);fill-opacity:1;" d="M 190.6875 487.777344 C 190.6875 489.453125 188.171875 489.453125 188.171875 487.777344 C 188.171875 486.097656 190.6875 486.097656 190.6875 487.777344 "/>
<path style=" stroke:none;fill-rule:nonzero;fill:rgb(100%,84.3%,0%);fill-opacity:1;" d="M 440.015625 310.15625 C 440.015625 311.832031 437.5 311.832031 437.5 310.15625 C 437.5 308.476562 440.015625 308.476562 440.015625 310.15625 "/>
<path style=" stroke:none;fill-rule:nonzero;fill:rgb(100%,84.3%,0%);fill-opacity:1;" d="M 95.164062 339.960938 C 95.164062 341.636719 92.648438 341.636719 92.648438 339.960938 C 92.648438 338.28125 95.164062 338.28125 95.164062 339.960938 "/>
<path style=" stroke:none;fill-rule:nonzero;fill:rgb(100%,84.3%,0%);fill-opacity:1;" d="M 192.996094 480.796875 C 192.996094 482.472656 190.480469 482.472656 190.480469 480.796875 C 190.480469 479.117188 192.996094 479.117188 192.996094 480.796875 "/>
<path style=" stroke:none;fill-rule:nonzero;fill:rgb(100%,84.3%,0%);fill-opacity:1;" d="M 54.796875 304.527344 C 54.796875 306.207031 52.28125 306.207031 52.28125 304.527344 C 52.28125 302.851562 54.796875 302.851562 54.796875 304.527344 "/>
<path style=" stroke:none;fill-rule:nonzero;fill:rgb(100%,84.3%,0%);fill-opacity:1;" d="M 47.132812 487.261719 C 47.132812 488.941406 44.617188 488.941406 44.617188 487.261719 C 44.617188 485.585938 47.132812 485.585938 47.132812 487.261719 "/>
<path style=" stroke:none;fill-rule:nonzero;fill:rgb(100%,84.3%,0%);fill-opacity:1;" d="M 464.558594 465.058594 C 464.558594 466.734375 462.042969 466.734375 462.042969 465.058594 C 462.042969 463.378906 464.558594 463.378906 464.558594 465.058594 "/>
<path style=" stroke:none;fill-rule:nonzero;fill:rgb(100%,84.3%,0%);fill-opacity:1;" d="M 399.875 297.835938 C 399.875 299.511719 397.359375 299.511719 397.359375 297.835938 C 397.359375 296.160156 399.875 296.160156 399.875 297.835938 "/>
<path style=" stroke:none;fill-rule:nonzero;fill:rgb(100%,84.3%,0%);fill-opacity:1;" d="M 436.515625 481.742188 C 436.515625 483.417969 434 483.417969 434 481.742188 C 434 480.0625 436.515625 480.0625 436.515625 481.742188 "/>
<path style=" stroke:none;fill-rule:nonzero;fill:rgb(100%,84.3%,0%);fill-opacity:1;" d="M 308.507812 305.289062 C 308.507812 306.964844 305.992188 306.964844 305.992188 305.289062 C 305.992188 303.613281 308.507812 303.613281 308.507812 305.289062 "/>
<path style=" stroke:none;fill-rule:nonzero;fill:rgb(100%,84.3%,0%);fill-opacity:1;" d="M 193.6875 478.347656 C 193.6875 480.027344 191.171875 480.027344 191.171875 478.347656 C 191.171875 476.671875 193.6875 476.671875 193.6875 478.347656 "/>
<path style=" stroke:none;fill-rule:nonzero;fill:rgb(100%,84.3%,0%);fill-opacity:1;" d="M 423.300781 487.816406 C 423.300781 489.496094 420.785156 489.496094 420.785156 487.816406 C 420.785156 486.140625 423.300781 486.140625 423.300781 487.816406 "/>
<path style=" stroke:none;fill-rule:nonzero;fill:rgb(100%,84.3%,0%);fill-opacity:1;" d="M 66.390625 302.984375 C 66.390625 304.660156 63.875 304.660156 63.875 302.984375 C 63.875 301.308594 66.390625 301.308594 66.390625 302.984375 "/>
<path style=" stroke:none;fill-rule:nonzero;fill:rgb(100%,84.3%,0%);fill-opacity:1;" d="M 423.992188 485.367188 C 423.992188 487.046875 421.476562 487.046875 421.476562 485.367188 C 421.476562 483.691406 423.992188 483.691406 423.992188 485.367188 "/>
<path style=" stroke:none;fill-rule:nonzero;fill:rgb(100%,84.3%,0%);fill-opacity:1;" d="M 467.441406 359.097656 C 467.441406 360.773438 464.925781 360.773438 464.925781 359.097656 C 464.925781 357.417969 467.441406 357.417969 467.441406 359.097656 "/>
<path style=" stroke:none;fill-rule:nonzero;fill:rgb(100%,84.3%,0%);fill-opacity:1;" d="M 225.230469 482.78125 C 225.230469 484.460938 222.714844 484.460938 222.714844 482.78125 C 222.714844 481.105469 225.230469 481.105469 225.230469 482.78125 "/>
<path style=" stroke:none;fill-rule:nonzero;fill:rgb(100%,84.3%,0%);fill-opacity:1;" d="M 425.375 480.472656 C 425.375 482.152344 422.859375 482.152344 422.859375 480.472656 C 422.859375 478.796875 425.375 478.796875 425.375 480.472656 "/>
<path style=" stroke:none;fill-rule:nonzero;fill:rgb(100%,84.3%,0%);fill-opacity:1;" d="M 49.75 351.117188 C 49.75 352.796875 47.234375 352.796875 47.234375 351.117188 C 47.234375 349.441406 49.75 349.441406 49.75 351.117188 "/>
<path style=" stroke:none;fill-rule:nonzero;fill:rgb(100%,84.3%,0%);fill-opacity:1;" d="M 196.007812 304.949219 C 196.007812 306.628906 193.492188 306.628906 193.492188 304.949219 C 193.492188 303.273438 196.007812 303.273438 196.007812 304.949219 "/>
<path style=" stroke:none;fill-rule:nonzero;fill:rgb(100%,84.3%,0%);fill-opacity:1;" d="M 455.726562 456.808594 C 455.726562 458.488281 453.210938 458.488281 453.210938 456.808594 C 453.210938 455.132812 455.726562 455.132812 455.726562 456.808594 "/>
<path style=" stroke:none;fill-rule:nonzero;fill:rgb(100%,84.3%,0%);fill-opacity:1;" d="M 466.394531 457.351562 C 466.394531 459.027344 463.878906 459.027344 463.878906 457.351562 C 463.878906 455.675781 466.394531 455.675781 466.394531 457.351562 "/>
<path style=" stroke:none;fill-rule:nonzero;fill:rgb(100%,84.3%,0%);fill-opacity:1;" d="M 436.734375 478.566406 C 436.734375 480.246094 434.21875 480.246094 434.21875 478.566406 C 434.21875 476.890625 436.734375 476.890625 436.734375 478.566406 "/>
<path style=" stroke:none;fill-rule:nonzero;fill:rgb(100%,84.3%,0%);fill-opacity:1;" d="M 236.824219 481.238281 C 236.824219 482.917969 234.308594 482.917969 234.308594 481.238281 C 234.308594 479.5625 236.824219 479.5625 236.824219 481.238281 "/>
<path style=" stroke:none;fill-rule:nonzero;fill:rgb(100%,84.3%,0%);fill-opacity:1;" d="M 462.230469 468.5 C 462.230469 470.179688 459.714844 470.179688 459.714844 468.5 C 459.714844 466.824219 462.230469 466.824219 462.230469 468.5 "/>
<path style=" stroke:none;fill-rule:nonzero;fill:rgb(100%,84.3%,0%);fill-opacity:1;" d="M 303.417969 318.523438 C 303.417969 320.199219 300.902344 320.199219 300.902344 318.523438 C 300.902344 316.847656 303.417969 316.847656 303.417969 318.523438 "/>
<path style=" stroke:none;fill-rule:nonzero;fill:rgb(100%,84.3%,0%);fill-opacity:1;" d="M 191.140625 484.964844 C 191.140625 486.644531 188.625 486.644531 188.625 484.964844 C 188.625 483.289062 191.140625 483.289062 191.140625 484.964844 "/>
<path style=" stroke:none;fill-rule:nonzero;fill:rgb(100%,84.3%,0%);fill-opacity:1;" d="M 247.738281 315.726562 C 247.738281 317.402344 245.222656 317.402344 245.222656 315.726562 C 245.222656 314.046875 247.738281 314.046875 247.738281 315.726562 "/>
<path style=" stroke:none;fill-rule:nonzero;fill:rgb(100%,84.3%,0%);fill-opacity:1;" d="M 365.785156 300.019531 C 365.785156 301.695312 363.269531 301.695312 363.269531 300.019531 C 363.269531 298.34375 365.785156 298.34375 365.785156 300.019531 "/>
<path style=" stroke:none;fill-rule:nonzero;fill:rgb(100%,84.3%,0%);fill-opacity:1;" d="M 47.632812 325.105469 C 47.632812 326.78125 45.117188 326.78125 45.117188 325.105469 C 45.117188 323.429688 47.632812 323.429688 47.632812 325.105469 "/>
<path style=" stroke:none;fill-rule:nonzero;fill:rgb(100%,84.3%,0%);fill-opacity:1;" d="M 411 488.273438 C 411 489.949219 408.484375 489.949219 408.484375 488.273438 C 408.484375 486.59375 411 486.59375 411 488.273438 "/>
<path style=" stroke:none;fill-rule:nonzero;fill:rgb(100%,84.3%,0%);fill-opacity:1;" d="M 392.710938 318.414062 C 392.710938 320.089844 390.195312 320.089844 390.195312 318.414062 C 390.195312 316.738281 392.710938 316.738281 392.710938 318.414062 "/>
<path style=" stroke:none;fill-rule:nonzero;fill:rgb(100%,84.3%,0%);fill-opacity:1;" d="M 181.859375 479.527344 C 181.859375 481.207031 179.34375 481.207031 179.34375 479.527344 C 179.34375 477.851562 181.859375 477.851562 181.859375 479.527344 "/>
<path style=" stroke:none;fill-rule:nonzero;fill:rgb(100%,84.3%,0%);fill-opacity:1;" d="M 69.011719 359.542969 C 69.011719 361.222656 66.492188 361.222656 66.492188 359.542969 C 66.492188 357.867188 69.011719 357.867188 69.011719 359.542969 "/>
<path style=" stroke:none;fill-rule:nonzero;fill:rgb(100%,84.3%,0%);fill-opacity:1;" d="M 385.046875 308.445312 C 385.046875 310.121094 382.53125 310.121094 382.53125 308.445312 C 382.53125 306.769531 385.046875 306.769531 385.046875 308.445312 "/>
<path style=" stroke:none;fill-rule:nonzero;fill:rgb(100%,84.3%,0%);fill-opacity:1;" d="M 206.664062 471.910156 C 206.664062 473.585938 204.148438 473.585938 204.148438 471.910156 C 204.148438 470.234375 206.664062 470.234375 206.664062 471.910156 "/>
<path style=" stroke:none;fill-rule:nonzero;fill:rgb(100%,84.3%,0%);fill-opacity:1;" d="M 142.65625 298.707031 C 142.65625 300.382812 140.140625 300.382812 140.140625 298.707031 C 140.140625 297.03125 142.65625 297.03125 142.65625 298.707031 "/>
<path style=" stroke:none;fill-rule:nonzero;fill:rgb(100%,84.3%,0%);fill-opacity:1;" d="M 350.957031 310.628906 C 350.957031 312.304688 348.441406 312.304688 348.441406 310.628906 C 348.441406 308.949219 350.957031 308.949219 350.957031 310.628906 "/>
<path style=" stroke:none;fill-rule:nonzero;fill:rgb(100%,84.3%,0%);fill-opacity:1;" d="M 433.6875 454.640625 C 433.6875 456.316406 431.171875 456.316406 431.171875 454.640625 C 431.171875 452.960938 433.6875 452.960938 433.6875 454.640625 "/>
<path style=" stroke:none;fill-rule:nonzero;fill:rgb(100%,84.3%,0%);fill-opacity:1;" d="M 180.238281 484.0625 C 180.238281 485.738281 177.722656 485.738281 177.722656 484.0625 C 177.722656 482.386719 180.238281 482.386719 180.238281 484.0625 "/>
<path style=" stroke:none;fill-rule:nonzero;fill:rgb(100%,84.3%,0%);fill-opacity:1;" d="M 383.429688 312.976562 C 383.429688 314.652344 380.914062 314.652344 380.914062 312.976562 C 380.914062 311.300781 383.429688 311.300781 383.429688 312.976562 "/>
<path style=" stroke:none;fill-rule:nonzero;fill:rgb(100%,84.3%,0%);fill-opacity:1;" d="M 185.414062 367.585938 C 185.414062 369.261719 182.898438 369.261719 182.898438 367.585938 C 182.898438 365.90625 185.414062 365.90625 185.414062 367.585938 "/>
<path style=" stroke:none;fill-rule:nonzero;fill:rgb(100%,84.3%,0%);fill-opacity:1;" d="M 80.332031 350.566406 C 80.332031 352.246094 77.816406 352.246094 77.816406 350.566406 C 77.816406 348.890625 80.332031 348.890625 80.332031 350.566406 "/>
<path style=" stroke:none;fill-rule:nonzero;fill:rgb(100%,84.3%,0%);fill-opacity:1;" d="M 178.621094 488.59375 C 178.621094 490.269531 176.105469 490.269531 176.105469 488.59375 C 176.105469 486.917969 178.621094 486.917969 178.621094 488.59375 "/>
<path style=" stroke:none;fill-rule:nonzero;fill:rgb(100%,84.3%,0%);fill-opacity:1;" d="M 78.214844 324.554688 C 78.214844 326.230469 75.699219 326.230469 75.699219 324.554688 C 75.699219 322.875 78.214844 322.875 78.214844 324.554688 "/>
<path style=" stroke:none;fill-rule:nonzero;fill:rgb(100%,84.3%,0%);fill-opacity:1;" d="M 169.335938 483.15625 C 169.335938 484.835938 166.820312 484.835938 166.820312 483.15625 C 166.820312 481.480469 169.335938 481.480469 169.335938 483.15625 "/>
<path style=" stroke:none;fill-rule:nonzero;fill:rgb(100%,84.3%,0%);fill-opacity:1;" d="M 375.761719 303.007812 C 375.761719 304.683594 373.246094 304.683594 373.246094 303.007812 C 373.246094 301.332031 375.761719 301.332031 375.761719 303.007812 "/>
<path style=" stroke:none;fill-rule:nonzero;fill:rgb(100%,84.3%,0%);fill-opacity:1;" d="M 234.28125 487.855469 C 234.28125 489.535156 231.765625 489.535156 231.765625 487.855469 C 231.765625 486.179688 234.28125 486.179688 234.28125 487.855469 "/>
<path style=" stroke:none;fill-rule:nonzero;fill:rgb(100%,84.3%,0%);fill-opacity:1;" d="M 462.082031 342.148438 C 462.082031 343.824219 459.566406 343.824219 459.566406 342.148438 C 459.566406 340.46875 462.082031 340.46875 462.082031 342.148438 "/>
<path style=" stroke:none;fill-rule:nonzero;fill:rgb(100%,84.3%,0%);fill-opacity:1;" d="M 53.679688 339.605469 C 53.679688 341.28125 51.164062 341.28125 51.164062 339.605469 C 51.164062 337.929688 53.679688 337.929688 53.679688 339.605469 "/>
<path style=" stroke:none;fill-rule:nonzero;fill:rgb(100%,84.3%,0%);fill-opacity:1;" d="M 458.492188 447.019531 C 458.492188 448.695312 455.976562 448.695312 455.976562 447.019531 C 455.976562 445.34375 458.492188 445.34375 458.492188 447.019531 "/>
<path style=" stroke:none;fill-rule:nonzero;fill:rgb(100%,84.3%,0%);fill-opacity:1;" d="M 437.613281 443.128906 C 437.613281 444.804688 435.097656 444.804688 435.097656 443.128906 C 435.097656 441.449219 437.613281 441.449219 437.613281 443.128906 "/>
<path style=" stroke:none;fill-rule:nonzero;fill:rgb(100%,84.3%,0%);fill-opacity:1;" d="M 435.496094 417.113281 C 435.496094 418.789062 432.980469 418.789062 432.980469 417.113281 C 432.980469 415.4375 435.496094 415.4375 435.496094 417.113281 "/>
<path style=" stroke:none;fill-rule:nonzero;fill:rgb(100%,84.3%,0%);fill-opacity:1;" d="M 108.566406 300.890625 C 108.566406 302.566406 106.050781 302.566406 106.050781 300.890625 C 106.050781 299.210938 108.566406 299.210938 108.566406 300.890625 "/>
<path style=" stroke:none;fill-rule:nonzero;fill:rgb(100%,84.3%,0%);fill-opacity:1;" d="M 57.105469 297.546875 C 57.105469 299.226562 54.589844 299.226562 54.589844 297.546875 C 54.589844 295.871094 57.105469 295.871094 57.105469 297.546875 "/>
<path style=" stroke:none;fill-rule:nonzero;fill:rgb(100%,84.3%,0%);fill-opacity:1;" d="M 194.144531 475.539062 C 194.144531 477.214844 191.628906 477.214844 191.628906 475.539062 C 191.628906 473.859375 194.144531 473.859375 194.144531 475.539062 "/>
<path style=" stroke:none;fill-rule:nonzero;fill:rgb(100%,84.3%,0%);fill-opacity:1;" d="M 194.832031 473.089844 C 194.832031 474.769531 192.316406 474.769531 192.316406 473.089844 C 192.316406 471.414062 194.832031 471.414062 194.832031 473.089844 "/>
<path style=" stroke:none;fill-rule:nonzero;fill:rgb(100%,84.3%,0%);fill-opacity:1;" d="M 61.84375 380.121094 C 61.84375 381.796875 59.328125 381.796875 59.328125 380.121094 C 59.328125 378.445312 61.84375 378.445312 61.84375 380.121094 "/>
<path style=" stroke:none;fill-rule:nonzero;fill:rgb(100%,84.3%,0%);fill-opacity:1;" d="M 80.75 484.355469 C 80.75 486.03125 78.234375 486.03125 78.234375 484.355469 C 78.234375 482.679688 80.75 482.679688 80.75 484.355469 "/>
<path style=" stroke:none;fill-rule:nonzero;fill:rgb(100%,84.3%,0%);fill-opacity:1;" d="M 433.039062 297.738281 C 433.039062 299.414062 430.523438 299.414062 430.523438 297.738281 C 430.523438 296.0625 433.039062 296.0625 433.039062 297.738281 "/>
<path style=" stroke:none;fill-rule:nonzero;fill:rgb(100%,84.3%,0%);fill-opacity:1;" d="M 64.390625 373.503906 C 64.390625 375.179688 61.875 375.179688 61.875 373.503906 C 61.875 371.828125 64.390625 371.828125 64.390625 373.503906 "/>
<path style=" stroke:none;fill-rule:nonzero;fill:rgb(100%,84.3%,0%);fill-opacity:1;" d="M 447.089844 415.570312 C 447.089844 417.246094 444.574219 417.246094 444.574219 415.570312 C 444.574219 413.894531 447.089844 413.894531 447.089844 415.570312 "/>
<path style=" stroke:none;fill-rule:nonzero;fill:rgb(100%,84.3%,0%);fill-opacity:1;" d="M 411.691406 485.824219 C 411.691406 487.503906 409.175781 487.503906 409.175781 485.824219 C 409.175781 484.148438 411.691406 484.148438 411.691406 485.824219 "/>
<path style=" stroke:none;fill-rule:nonzero;fill:rgb(100%,84.3%,0%);fill-opacity:1;" d="M 54.179688 370.152344 C 54.179688 371.828125 51.664062 371.828125 51.664062 370.152344 C 51.664062 368.476562 54.179688 368.476562 54.179688 370.152344 "/>
<path style=" stroke:none;fill-rule:nonzero;fill:rgb(100%,84.3%,0%);fill-opacity:1;" d="M 52.058594 344.140625 C 52.058594 345.816406 49.542969 345.816406 49.542969 344.140625 C 49.542969 342.460938 52.058594 342.460938 52.058594 344.140625 "/>
<path style=" stroke:none;fill-rule:nonzero;fill:rgb(100%,84.3%,0%);fill-opacity:1;" d="M 156.871094 353.722656 C 156.871094 355.398438 154.355469 355.398438 154.355469 353.722656 C 154.355469 352.046875 156.871094 352.046875 156.871094 353.722656 "/>
<path style=" stroke:none;fill-rule:nonzero;fill:rgb(100%,84.3%,0%);fill-opacity:1;" d="M 404.023438 475.855469 C 404.023438 477.53125 401.507812 477.53125 401.507812 475.855469 C 401.507812 474.179688 404.023438 474.179688 404.023438 475.855469 "/>
<path style=" stroke:none;fill-rule:nonzero;fill:rgb(100%,84.3%,0%);fill-opacity:1;" d="M 55.488281 302.078125 C 55.488281 303.757812 52.972656 303.757812 52.972656 302.078125 C 52.972656 300.402344 55.488281 300.402344 55.488281 302.078125 "/>
<path style=" stroke:none;fill-rule:nonzero;fill:rgb(100%,84.3%,0%);fill-opacity:1;" d="M 237.28125 478.429688 C 237.28125 480.105469 234.765625 480.105469 234.765625 478.429688 C 234.765625 476.753906 237.28125 476.753906 237.28125 478.429688 "/>
<path style=" stroke:none;fill-rule:nonzero;fill:rgb(100%,84.3%,0%);fill-opacity:1;" d="M 462.582031 372.691406 C 462.582031 374.371094 460.066406 374.371094 460.066406 372.691406 C 460.066406 371.015625 462.582031 371.015625 462.582031 372.691406 "/>
<path style=" stroke:none;fill-rule:nonzero;fill:rgb(100%,84.3%,0%);fill-opacity:1;" d="M 74.746094 310.507812 C 74.746094 312.183594 72.230469 312.183594 72.230469 310.507812 C 72.230469 308.828125 74.746094 308.828125 74.746094 310.507812 "/>
<path style=" stroke:none;fill-rule:nonzero;fill:rgb(100%,84.3%,0%);fill-opacity:1;" d="M 167.480469 487.328125 C 167.480469 489.003906 164.964844 489.003906 164.964844 487.328125 C 164.964844 485.648438 167.480469 485.648438 167.480469 487.328125 "/>
<path style=" stroke:none;fill-rule:nonzero;fill:rgb(100%,84.3%,0%);fill-opacity:1;" d="M 431.421875 302.269531 C 431.421875 303.949219 428.90625 303.949219 428.90625 302.269531 C 428.90625 300.59375 431.421875 300.59375 431.421875 302.269531 "/>
<path style=" stroke:none;fill-rule:nonzero;fill:rgb(100%,84.3%,0%);fill-opacity:1;" d="M 58.105469 358.640625 C 58.105469 360.316406 55.589844 360.316406 55.589844 358.640625 C 55.589844 356.960938 58.105469 356.960938 58.105469 358.640625 "/>
<path style=" stroke:none;fill-rule:nonzero;fill:rgb(100%,84.3%,0%);fill-opacity:1;" d="M 55.988281 332.625 C 55.988281 334.304688 53.472656 334.304688 53.472656 332.625 C 53.472656 330.949219 55.988281 330.949219 55.988281 332.625 "/>
<path style=" stroke:none;fill-rule:nonzero;fill:rgb(100%,84.3%,0%);fill-opacity:1;" d="M 78.675781 298.992188 C 78.675781 300.671875 76.160156 300.671875 76.160156 298.992188 C 76.160156 297.316406 78.675781 297.316406 78.675781 298.992188 "/>
<path style=" stroke:none;fill-rule:nonzero;fill:rgb(100%,84.3%,0%);fill-opacity:1;" d="M 83.734375 471.390625 C 83.734375 473.070312 81.21875 473.070312 81.21875 471.390625 C 81.21875 469.714844 83.734375 469.714844 83.734375 471.390625 "/>
<path style=" stroke:none;fill-rule:nonzero;fill:rgb(100%,84.3%,0%);fill-opacity:1;" d="M 240.546875 306.480469 C 240.546875 308.15625 238.03125 308.15625 238.03125 306.480469 C 238.03125 304.804688 240.546875 304.804688 240.546875 306.480469 "/>
<path style=" stroke:none;fill-rule:nonzero;fill:rgb(100%,84.3%,0%);fill-opacity:1;" d="M 353.265625 303.648438 C 353.265625 305.324219 350.75 305.324219 350.75 303.648438 C 350.75 301.96875 353.265625 301.96875 353.265625 303.648438 "/>
<path style=" stroke:none;fill-rule:nonzero;fill:rgb(100%,84.3%,0%);fill-opacity:1;" d="M 412.664062 324.390625 C 412.664062 326.070312 410.148438 326.070312 410.148438 324.390625 C 410.148438 322.714844 412.664062 322.714844 412.664062 324.390625 "/>
<path style=" stroke:none;fill-rule:nonzero;fill:rgb(100%,84.3%,0%);fill-opacity:1;" d="M 149.203125 343.753906 C 149.203125 345.429688 146.6875 345.429688 146.6875 343.753906 C 146.6875 342.078125 149.203125 342.078125 149.203125 343.753906 "/>
<path style=" stroke:none;fill-rule:nonzero;fill:rgb(100%,84.3%,0%);fill-opacity:1;" d="M 410.542969 298.378906 C 410.542969 300.054688 408.027344 300.054688 408.027344 298.378906 C 408.027344 296.699219 410.542969 296.699219 410.542969 298.378906 "/>
<path style=" stroke:none;fill-rule:nonzero;fill:rgb(100%,84.3%,0%);fill-opacity:1;" d="M 230.308594 466.011719 C 230.308594 467.691406 227.792969 467.691406 227.792969 466.011719 C 227.792969 464.335938 230.308594 464.335938 230.308594 466.011719 "/>
<path style=" stroke:none;fill-rule:nonzero;fill:rgb(100%,84.3%,0%);fill-opacity:1;" d="M 431.140625 461.257812 C 431.140625 462.933594 428.625 462.933594 428.625 461.257812 C 428.625 459.578125 431.140625 459.578125 431.140625 461.257812 "/>
<path style=" stroke:none;fill-rule:nonzero;fill:rgb(100%,84.3%,0%);fill-opacity:1;" d="M 238.664062 473.535156 C 238.664062 475.210938 236.148438 475.210938 236.148438 473.535156 C 236.148438 471.859375 238.664062 471.859375 238.664062 473.535156 "/>
<path style=" stroke:none;fill-rule:nonzero;fill:rgb(100%,84.3%,0%);fill-opacity:1;" d="M 62.035156 347.128906 C 62.035156 348.804688 59.519531 348.804688 59.519531 347.128906 C 59.519531 345.449219 62.035156 345.449219 62.035156 347.128906 "/>
<path style=" stroke:none;fill-rule:nonzero;fill:rgb(100%,84.3%,0%);fill-opacity:1;" d="M 412.382812 483.378906 C 412.382812 485.054688 409.863281 485.054688 409.863281 483.378906 C 409.863281 481.699219 412.382812 481.699219 412.382812 483.378906 "/>
<path style=" stroke:none;fill-rule:nonzero;fill:rgb(100%,84.3%,0%);fill-opacity:1;" d="M 225.449219 479.609375 C 225.449219 481.289062 222.933594 481.289062 222.933594 479.609375 C 222.933594 477.933594 225.449219 477.933594 225.449219 479.609375 "/>
<path style=" stroke:none;fill-rule:nonzero;fill:rgb(100%,84.3%,0%);fill-opacity:1;" d="M 54.371094 337.160156 C 54.371094 338.835938 51.855469 338.835938 51.855469 337.160156 C 51.855469 335.480469 54.371094 335.480469 54.371094 337.160156 "/>
<path style=" stroke:none;fill-rule:nonzero;fill:rgb(100%,84.3%,0%);fill-opacity:1;" d="M 458.847656 351.210938 C 458.847656 352.890625 456.332031 352.890625 456.332031 351.210938 C 456.332031 349.535156 458.847656 349.535156 458.847656 351.210938 "/>
<path style=" stroke:none;fill-rule:nonzero;fill:rgb(100%,84.3%,0%);fill-opacity:1;" d="M 55.679688 461.789062 C 55.679688 463.46875 53.164062 463.46875 53.164062 461.789062 C 53.164062 460.113281 55.679688 460.113281 55.679688 461.789062 "/>
<path style=" stroke:none;fill-rule:nonzero;fill:rgb(100%,84.3%,0%);fill-opacity:1;" d="M 451.183594 341.242188 C 451.183594 342.921875 448.667969 342.921875 448.667969 341.242188 C 448.667969 339.566406 451.183594 339.566406 451.183594 341.242188 "/>
<path style=" stroke:none;fill-rule:nonzero;fill:rgb(100%,84.3%,0%);fill-opacity:1;" d="M 399.167969 489.453125 C 399.167969 491.128906 396.652344 491.128906 396.652344 489.453125 C 396.652344 487.777344 399.167969 487.777344 399.167969 489.453125 "/>
<path style=" stroke:none;fill-rule:nonzero;fill:rgb(100%,84.3%,0%);fill-opacity:1;" d="M 212.03125 322.441406 C 212.03125 324.117188 209.515625 324.117188 209.515625 322.441406 C 209.515625 320.761719 212.03125 320.761719 212.03125 322.441406 "/>
<path style=" stroke:none;fill-rule:nonzero;fill:rgb(100%,84.3%,0%);fill-opacity:1;" d="M 210.121094 459.671875 C 210.121094 461.347656 207.605469 461.347656 207.605469 459.671875 C 207.605469 457.996094 210.121094 457.996094 210.121094 459.671875 "/>
<path style=" stroke:none;fill-rule:nonzero;fill:rgb(100%,84.3%,0%);fill-opacity:1;" d="M 256.304688 486.492188 C 256.304688 488.167969 253.789062 488.167969 253.789062 486.492188 C 253.789062 484.816406 256.304688 484.816406 256.304688 486.492188 "/>
<path style=" stroke:none;fill-rule:nonzero;fill:rgb(100%,84.3%,0%);fill-opacity:1;" d="M 437.96875 347.316406 C 437.96875 348.996094 435.453125 348.996094 435.453125 347.316406 C 435.453125 345.640625 437.96875 345.640625 437.96875 347.316406 "/>
<path style=" stroke:none;fill-rule:nonzero;fill:rgb(100%,84.3%,0%);fill-opacity:1;" d="M 391.503906 479.484375 C 391.503906 481.160156 388.988281 481.160156 388.988281 479.484375 C 388.988281 477.808594 391.503906 477.808594 391.503906 479.484375 "/>
<path style=" stroke:none;fill-rule:nonzero;fill:rgb(100%,84.3%,0%);fill-opacity:1;" d="M 464.894531 365.714844 C 464.894531 367.390625 462.378906 367.390625 462.378906 365.714844 C 462.378906 364.035156 464.894531 364.035156 464.894531 365.714844 "/>
<path style=" stroke:none;fill-rule:nonzero;fill:rgb(100%,84.3%,0%);fill-opacity:1;" d="M 208.5 464.203125 C 208.5 465.882812 205.984375 465.882812 205.984375 464.203125 C 205.984375 462.527344 208.5 462.527344 208.5 464.203125 "/>
<path style=" stroke:none;fill-rule:nonzero;fill:rgb(100%,84.3%,0%);fill-opacity:1;" d="M 457.230469 355.742188 C 457.230469 357.421875 454.714844 357.421875 454.714844 355.742188 C 454.714844 354.066406 457.230469 354.066406 457.230469 355.742188 "/>
<path style=" stroke:none;fill-rule:nonzero;fill:rgb(100%,84.3%,0%);fill-opacity:1;" d="M 285.085938 308.011719 C 285.085938 309.691406 282.570312 309.691406 282.570312 308.011719 C 282.570312 306.335938 285.085938 306.335938 285.085938 308.011719 "/>
<path style=" stroke:none;fill-rule:nonzero;fill:rgb(100%,84.3%,0%);fill-opacity:1;" d="M 157.269531 483.976562 C 157.269531 485.652344 154.753906 485.652344 154.753906 483.976562 C 154.753906 482.300781 157.269531 482.300781 157.269531 483.976562 "/>
<path style=" stroke:none;fill-rule:nonzero;fill:rgb(100%,84.3%,0%);fill-opacity:1;" d="M 452.992188 303.71875 C 452.992188 305.394531 450.476562 305.394531 450.476562 303.71875 C 450.476562 302.039062 452.992188 302.039062 452.992188 303.71875 "/>
<path style=" stroke:none;fill-rule:nonzero;fill:rgb(100%,84.3%,0%);fill-opacity:1;" d="M 463.277344 370.246094 C 463.277344 371.921875 460.761719 371.921875 460.761719 370.246094 C 460.761719 368.566406 463.277344 368.566406 463.277344 370.246094 "/>
<path style=" stroke:none;fill-rule:nonzero;fill:rgb(100%,84.3%,0%);fill-opacity:1;" d="M 247.019531 481.054688 C 247.019531 482.734375 244.503906 482.734375 244.503906 481.054688 C 244.503906 479.378906 247.019531 479.378906 247.019531 481.054688 "/>
<path style=" stroke:none;fill-rule:nonzero;fill:rgb(100%,84.3%,0%);fill-opacity:1;" d="M 468.039062 482.640625 C 468.039062 484.316406 465.523438 484.316406 465.523438 482.640625 C 465.523438 480.960938 468.039062 480.960938 468.039062 482.640625 "/>
<path style=" stroke:none;fill-rule:nonzero;fill:rgb(100%,84.3%,0%);fill-opacity:1;" d="M 77.058594 303.527344 C 77.058594 305.203125 74.542969 305.203125 74.542969 303.527344 C 74.542969 301.847656 77.058594 301.847656 77.058594 303.527344 "/>
<path style=" stroke:none;fill-rule:nonzero;fill:rgb(100%,84.3%,0%);fill-opacity:1;" d="M 56.988281 393.71875 C 56.988281 395.394531 54.472656 395.394531 54.472656 393.71875 C 54.472656 392.042969 56.988281 392.042969 56.988281 393.71875 "/>
<path style=" stroke:none;fill-rule:nonzero;fill:rgb(100%,84.3%,0%);fill-opacity:1;" d="M 54.871094 367.703125 C 54.871094 369.382812 52.355469 369.382812 52.355469 367.703125 C 52.355469 366.027344 54.871094 366.027344 54.871094 367.703125 "/>
<path style=" stroke:none;fill-rule:nonzero;fill:rgb(100%,84.3%,0%);fill-opacity:1;" d="M 254.449219 297.957031 C 254.449219 299.636719 251.933594 299.636719 251.933594 297.957031 C 251.933594 296.28125 254.449219 296.28125 254.449219 297.957031 "/>
<path style=" stroke:none;fill-rule:nonzero;fill:rgb(100%,84.3%,0%);fill-opacity:1;" d="M 155.652344 488.507812 C 155.652344 490.183594 153.136719 490.183594 153.136719 488.507812 C 153.136719 486.832031 155.652344 486.832031 155.652344 488.507812 "/>
<path style=" stroke:none;fill-rule:nonzero;fill:rgb(100%,84.3%,0%);fill-opacity:1;" d="M 50.632812 315.675781 C 50.632812 317.355469 48.117188 317.355469 48.117188 315.675781 C 48.117188 314 50.632812 314 50.632812 315.675781 "/>
<path style=" stroke:none;fill-rule:nonzero;fill:rgb(100%,84.3%,0%);fill-opacity:1;" d="M 463.804688 430.613281 C 463.804688 432.289062 461.289062 432.289062 461.289062 430.613281 C 461.289062 428.933594 463.804688 428.933594 463.804688 430.613281 "/>
<path style=" stroke:none;fill-rule:nonzero;fill:rgb(100%,84.3%,0%);fill-opacity:1;" d="M 75.4375 308.058594 C 75.4375 309.734375 72.921875 309.734375 72.921875 308.058594 C 72.921875 306.378906 75.4375 306.378906 75.4375 308.058594 "/>
<path style=" stroke:none;fill-rule:nonzero;fill:rgb(100%,84.3%,0%);fill-opacity:1;" d="M 394.09375 313.519531 C 394.09375 315.195312 391.578125 315.195312 391.578125 313.519531 C 391.578125 311.839844 394.09375 311.839844 394.09375 313.519531 "/>
<path style=" stroke:none;fill-rule:nonzero;fill:rgb(100%,84.3%,0%);fill-opacity:1;" d="M 195.390625 370.574219 C 195.390625 372.25 192.875 372.25 192.875 370.574219 C 192.875 368.898438 195.390625 368.898438 195.390625 370.574219 "/>
<path style=" stroke:none;fill-rule:nonzero;fill:rgb(100%,84.3%,0%);fill-opacity:1;" d="M 348.410156 317.246094 C 348.410156 318.921875 345.894531 318.921875 345.894531 317.246094 C 345.894531 315.566406 348.410156 315.566406 348.410156 317.246094 "/>
<path style=" stroke:none;fill-rule:nonzero;fill:rgb(100%,84.3%,0%);fill-opacity:1;" d="M 55.371094 398.25 C 55.371094 399.929688 52.855469 399.929688 52.855469 398.25 C 52.855469 396.574219 55.371094 396.574219 55.371094 398.25 "/>
<path style=" stroke:none;fill-rule:nonzero;fill:rgb(100%,84.3%,0%);fill-opacity:1;" d="M 340.742188 307.277344 C 340.742188 308.953125 338.226562 308.953125 338.226562 307.277344 C 338.226562 305.597656 340.742188 305.597656 340.742188 307.277344 "/>
<path style=" stroke:none;fill-rule:nonzero;fill:rgb(100%,84.3%,0%);fill-opacity:1;" d="M 407.027344 466.429688 C 407.027344 468.105469 404.511719 468.105469 404.511719 466.429688 C 404.511719 464.75 407.027344 464.75 407.027344 466.429688 "/>
<path style=" stroke:none;fill-rule:nonzero;fill:rgb(100%,84.3%,0%);fill-opacity:1;" d="M 466.421875 487.171875 C 466.421875 488.847656 463.90625 488.847656 463.90625 487.171875 C 463.90625 485.496094 466.421875 485.496094 466.421875 487.171875 "/>
<path style=" stroke:none;fill-rule:nonzero;fill:rgb(100%,84.3%,0%);fill-opacity:1;" d="M 47.703125 388.28125 C 47.703125 389.960938 45.1875 389.960938 45.1875 388.28125 C 45.1875 386.605469 47.703125 386.605469 47.703125 388.28125 "/>
<path style=" stroke:none;fill-rule:nonzero;fill:rgb(100%,84.3%,0%);fill-opacity:1;" d="M 245.402344 485.589844 C 245.402344 487.265625 242.886719 487.265625 242.886719 485.589844 C 242.886719 483.910156 245.402344 483.910156 245.402344 485.589844 "/>
<path style=" stroke:none;fill-rule:nonzero;fill:rgb(100%,84.3%,0%);fill-opacity:1;" d="M 93.738281 311.496094 C 93.738281 313.175781 91.222656 313.175781 91.222656 311.496094 C 91.222656 309.820312 93.738281 309.820312 93.738281 311.496094 "/>
<path style=" stroke:none;fill-rule:nonzero;fill:rgb(100%,84.3%,0%);fill-opacity:1;" d="M 52.441406 470.855469 C 52.441406 472.53125 49.925781 472.53125 49.925781 470.855469 C 49.925781 469.179688 52.441406 469.179688 52.441406 470.855469 "/>
<path style=" stroke:none;fill-rule:nonzero;fill:rgb(100%,84.3%,0%);fill-opacity:1;" d="M 405.6875 311.976562 C 405.6875 313.652344 403.171875 313.652344 403.171875 311.976562 C 403.171875 310.296875 405.6875 310.296875 405.6875 311.976562 "/>
<path style=" stroke:none;fill-rule:nonzero;fill:rgb(100%,84.3%,0%);fill-opacity:1;" d="M 184.386719 469.378906 C 184.386719 471.054688 181.871094 471.054688 181.871094 469.378906 C 181.871094 467.699219 184.386719 467.699219 184.386719 469.378906 "/>
<path style=" stroke:none;fill-rule:nonzero;fill:rgb(100%,84.3%,0%);fill-opacity:1;" d="M 464.304688 461.160156 C 464.304688 462.835938 461.789062 462.835938 461.789062 461.160156 C 461.789062 459.480469 464.304688 459.480469 464.304688 461.160156 "/>
<path style=" stroke:none;fill-rule:nonzero;fill:rgb(100%,84.3%,0%);fill-opacity:1;" d="M 196.699219 302.503906 C 196.699219 304.179688 194.183594 304.179688 194.183594 302.503906 C 194.183594 300.824219 196.699219 300.824219 196.699219 302.503906 "/>
<path style=" stroke:none;fill-rule:nonzero;fill:rgb(100%,84.3%,0%);fill-opacity:1;" d="M 453.046875 363.359375 C 453.046875 365.035156 450.53125 365.035156 450.53125 363.359375 C 450.53125 361.679688 453.046875 361.679688 453.046875 363.359375 "/>
<path style=" stroke:none;fill-rule:nonzero;fill:rgb(100%,84.3%,0%);fill-opacity:1;" d="M 64.847656 370.695312 C 64.847656 372.371094 62.332031 372.371094 62.332031 370.695312 C 62.332031 369.015625 64.847656 369.015625 64.847656 370.695312 "/>
<path style=" stroke:none;fill-rule:nonzero;fill:rgb(100%,84.3%,0%);fill-opacity:1;" d="M 398.023438 302.007812 C 398.023438 303.683594 395.507812 303.683594 395.507812 302.007812 C 395.507812 300.328125 398.023438 300.328125 398.023438 302.007812 "/>
<path style=" stroke:none;fill-rule:nonzero;fill:rgb(100%,84.3%,0%);fill-opacity:1;" d="M 248.429688 313.277344 C 248.429688 314.953125 245.914062 314.953125 245.914062 313.277344 C 245.914062 311.601562 248.429688 311.601562 248.429688 313.277344 "/>
<path style=" stroke:none;fill-rule:nonzero;fill:rgb(100%,84.3%,0%);fill-opacity:1;" d="M 51.632812 376.769531 C 51.632812 378.445312 49.117188 378.445312 49.117188 376.769531 C 49.117188 375.09375 51.632812 375.09375 51.632812 376.769531 "/>
<path style=" stroke:none;fill-rule:nonzero;fill:rgb(100%,84.3%,0%);fill-opacity:1;" d="M 216.859375 471.726562 C 216.859375 473.402344 214.34375 473.402344 214.34375 471.726562 C 214.34375 470.050781 216.859375 470.050781 216.859375 471.726562 "/>
<path style=" stroke:none;fill-rule:nonzero;fill:rgb(100%,84.3%,0%);fill-opacity:1;" d="M 88.851562 487.980469 C 88.851562 489.65625 86.335938 489.65625 86.335938 487.980469 C 86.335938 486.300781 88.851562 486.300781 88.851562 487.980469 "/>
<path style=" stroke:none;fill-rule:nonzero;fill:rgb(100%,84.3%,0%);fill-opacity:1;" d="M 234 454.136719 C 234 455.816406 231.484375 455.816406 231.484375 454.136719 C 231.484375 452.460938 234 452.460938 234 454.136719 "/>
<path style=" stroke:none;fill-rule:nonzero;fill:rgb(100%,84.3%,0%);fill-opacity:1;" d="M 432.332031 489.355469 C 432.332031 491.03125 429.816406 491.03125 429.816406 489.355469 C 429.816406 487.679688 432.332031 487.679688 432.332031 489.355469 "/>
<path style=" stroke:none;fill-rule:nonzero;fill:rgb(100%,84.3%,0%);fill-opacity:1;" d="M 50.824219 475.386719 C 50.824219 477.066406 48.308594 477.066406 48.308594 475.386719 C 48.308594 473.710938 50.824219 473.710938 50.824219 475.386719 "/>
<path style=" stroke:none;fill-rule:nonzero;fill:rgb(100%,84.3%,0%);fill-opacity:1;" d="M 72.203125 317.121094 C 72.203125 318.800781 69.6875 318.800781 69.6875 317.121094 C 69.6875 315.445312 72.203125 315.445312 72.203125 317.121094 "/>
<path style=" stroke:none;fill-rule:nonzero;fill:rgb(100%,84.3%,0%);fill-opacity:1;" d="M 144.75 487.605469 C 144.75 489.28125 142.234375 489.28125 142.234375 487.605469 C 142.234375 485.925781 144.75 485.925781 144.75 487.605469 "/>
<path style=" stroke:none;fill-rule:nonzero;fill:rgb(100%,84.3%,0%);fill-opacity:1;" d="M 247.710938 478.609375 C 247.710938 480.285156 245.195312 480.285156 245.195312 478.609375 C 245.195312 476.929688 247.710938 476.929688 247.710938 478.609375 "/>
<path style=" stroke:none;fill-rule:nonzero;fill:rgb(100%,84.3%,0%);fill-opacity:1;" d="M 57.679688 391.269531 C 57.679688 392.949219 55.164062 392.949219 55.164062 391.269531 C 55.164062 389.59375 57.679688 389.59375 57.679688 391.269531 "/>
<path style=" stroke:none;fill-rule:nonzero;fill:rgb(100%,84.3%,0%);fill-opacity:1;" d="M 240.046875 468.640625 C 240.046875 470.316406 237.53125 470.316406 237.53125 468.640625 C 237.53125 466.960938 240.046875 466.960938 240.046875 468.640625 "/>
<path style=" stroke:none;fill-rule:nonzero;fill:rgb(100%,84.3%,0%);fill-opacity:1;" d="M 161.890625 470.015625 C 161.890625 471.691406 159.375 471.691406 159.375 470.015625 C 159.375 468.339844 161.890625 468.339844 161.890625 470.015625 "/>
<path style=" stroke:none;fill-rule:nonzero;fill:rgb(100%,84.3%,0%);fill-opacity:1;" d="M 449.753906 312.78125 C 449.753906 314.457031 447.238281 314.457031 447.238281 312.78125 C 447.238281 311.105469 449.753906 311.105469 449.753906 312.78125 "/>
<path style=" stroke:none;fill-rule:nonzero;fill:rgb(100%,84.3%,0%);fill-opacity:1;" d="M 274.183594 307.109375 C 274.183594 308.785156 271.667969 308.785156 271.667969 307.109375 C 271.667969 305.433594 274.183594 305.433594 274.183594 307.109375 "/>
<path style=" stroke:none;fill-rule:nonzero;fill:rgb(100%,84.3%,0%);fill-opacity:1;" d="M 72.703125 347.667969 C 72.703125 349.347656 70.1875 349.347656 70.1875 347.667969 C 70.1875 345.992188 72.703125 345.992188 72.703125 347.667969 "/>
<path style=" stroke:none;fill-rule:nonzero;fill:rgb(100%,84.3%,0%);fill-opacity:1;" d="M 266.515625 297.140625 C 266.515625 298.816406 264 298.816406 264 297.140625 C 264 295.460938 266.515625 295.460938 266.515625 297.140625 "/>
<path style=" stroke:none;fill-rule:nonzero;fill:rgb(100%,84.3%,0%);fill-opacity:1;" d="M 164.726562 330.699219 C 164.726562 332.375 162.210938 332.375 162.210938 330.699219 C 162.210938 329.023438 164.726562 329.023438 164.726562 330.699219 "/>
<path style=" stroke:none;fill-rule:nonzero;fill:rgb(100%,84.3%,0%);fill-opacity:1;" d="M 457.136719 481.734375 C 457.136719 483.414062 454.621094 483.414062 454.621094 481.734375 C 454.621094 480.058594 457.136719 480.058594 457.136719 481.734375 "/>
<path style=" stroke:none;fill-rule:nonzero;fill:rgb(100%,84.3%,0%);fill-opacity:1;" d="M 217.050781 438.734375 C 217.050781 440.410156 214.535156 440.410156 214.535156 438.734375 C 214.535156 437.054688 217.050781 437.054688 217.050781 438.734375 "/>
<path style=" stroke:none;fill-rule:nonzero;fill:rgb(100%,84.3%,0%);fill-opacity:1;" d="M 65.035156 337.699219 C 65.035156 339.378906 62.519531 339.378906 62.519531 337.699219 C 62.519531 336.023438 65.035156 336.023438 65.035156 337.699219 "/>
<path style=" stroke:none;fill-rule:nonzero;fill:rgb(100%,84.3%,0%);fill-opacity:1;" d="M 458.449219 413.664062 C 458.449219 415.339844 455.933594 415.339844 455.933594 413.664062 C 455.933594 411.988281 458.449219 411.988281 458.449219 413.664062 "/>
<path style=" stroke:none;fill-rule:nonzero;fill:rgb(100%,84.3%,0%);fill-opacity:1;" d="M 48.394531 385.835938 C 48.394531 387.511719 45.878906 387.511719 45.878906 385.835938 C 45.878906 384.15625 48.394531 384.15625 48.394531 385.835938 "/>
<path style=" stroke:none;fill-rule:nonzero;fill:rgb(100%,84.3%,0%);fill-opacity:1;" d="M 72.59375 470.125 C 72.59375 471.804688 70.078125 471.804688 70.078125 470.125 C 70.078125 468.449219 72.59375 468.449219 72.59375 470.125 "/>
<path style=" stroke:none;fill-rule:nonzero;fill:rgb(100%,84.3%,0%);fill-opacity:1;" d="M 363.933594 304.1875 C 363.933594 305.867188 361.417969 305.867188 361.417969 304.1875 C 361.417969 302.511719 363.933594 302.511719 363.933594 304.1875 "/>
<path style=" stroke:none;fill-rule:nonzero;fill:rgb(100%,84.3%,0%);fill-opacity:1;" d="M 198.289062 460.851562 C 198.289062 462.53125 195.773438 462.53125 195.773438 460.851562 C 195.773438 459.175781 198.289062 459.175781 198.289062 460.851562 "/>
<path style=" stroke:none;fill-rule:nonzero;fill:rgb(100%,84.3%,0%);fill-opacity:1;" d="M 466.613281 454.179688 C 466.613281 455.855469 464.097656 455.855469 464.097656 454.179688 C 464.097656 452.5 466.613281 452.5 466.613281 454.179688 "/>
<path style=" stroke:none;fill-rule:nonzero;fill:rgb(100%,84.3%,0%);fill-opacity:1;" d="M 455.800781 327.28125 C 455.800781 328.960938 453.285156 328.960938 453.285156 327.28125 C 453.285156 325.605469 455.800781 325.605469 455.800781 327.28125 "/>
<path style=" stroke:none;fill-rule:nonzero;fill:rgb(100%,84.3%,0%);fill-opacity:1;" d="M 186.105469 365.136719 C 186.105469 366.816406 183.589844 366.816406 183.589844 365.136719 C 183.589844 363.460938 186.105469 363.460938 186.105469 365.136719 "/>
<path style=" stroke:none;fill-rule:nonzero;fill:rgb(100%,84.3%,0%);fill-opacity:1;" d="M 456.828125 418.195312 C 456.828125 419.875 454.3125 419.875 454.3125 418.195312 C 454.3125 416.519531 456.828125 416.519531 456.828125 418.195312 "/>
<path style=" stroke:none;fill-rule:nonzero;fill:rgb(100%,84.3%,0%);fill-opacity:1;" d="M 444.707031 359.371094 C 444.707031 361.050781 442.191406 361.050781 442.191406 359.371094 C 442.191406 357.695312 444.707031 357.695312 444.707031 359.371094 "/>
<path style=" stroke:none;fill-rule:nonzero;fill:rgb(100%,84.3%,0%);fill-opacity:1;" d="M 145.96875 352.820312 C 145.96875 354.496094 143.453125 354.496094 143.453125 352.820312 C 143.453125 351.140625 145.96875 351.140625 145.96875 352.820312 "/>
<path style=" stroke:none;fill-rule:nonzero;fill:rgb(100%,84.3%,0%);fill-opacity:1;" d="M 67.8125 354.195312 C 67.8125 355.875 65.296875 355.875 65.296875 354.195312 C 65.296875 352.519531 67.8125 352.519531 67.8125 354.195312 "/>
<path style=" stroke:none;fill-rule:nonzero;fill:rgb(100%,84.3%,0%);fill-opacity:1;" d="M 459.730469 315.769531 C 459.730469 317.445312 457.214844 317.445312 457.214844 315.769531 C 457.214844 314.09375 459.730469 314.09375 459.730469 315.769531 "/>
<path style=" stroke:none;fill-rule:nonzero;fill:rgb(100%,84.3%,0%);fill-opacity:1;" d="M 460.257812 376.136719 C 460.257812 377.8125 457.742188 377.8125 457.742188 376.136719 C 457.742188 374.460938 460.257812 374.460938 460.257812 376.136719 "/>
<path style=" stroke:none;fill-rule:nonzero;fill:rgb(100%,84.3%,0%);fill-opacity:1;" d="M 419.59375 303.453125 C 419.59375 305.128906 417.074219 305.128906 417.074219 303.453125 C 417.074219 301.773438 419.59375 301.773438 419.59375 303.453125 "/>
<path style=" stroke:none;fill-rule:nonzero;fill:rgb(100%,84.3%,0%);fill-opacity:1;" d="M 206.675781 305.492188 C 206.675781 307.167969 204.160156 307.167969 204.160156 305.492188 C 204.160156 303.8125 206.675781 303.8125 206.675781 305.492188 "/>
<path style=" stroke:none;fill-rule:nonzero;fill:rgb(100%,84.3%,0%);fill-opacity:1;" d="M 110.421875 489.425781 C 110.421875 491.101562 107.90625 491.101562 107.90625 489.425781 C 107.90625 487.746094 110.421875 487.746094 110.421875 489.425781 "/>
<path style=" stroke:none;fill-rule:nonzero;fill:rgb(100%,84.3%,0%);fill-opacity:1;" d="M 459.449219 474.757812 C 459.449219 476.433594 456.933594 476.433594 456.933594 474.757812 C 456.933594 473.078125 459.449219 473.078125 459.449219 474.757812 "/>
<path style=" stroke:none;fill-rule:nonzero;fill:rgb(100%,84.3%,0%);fill-opacity:1;" d="M 451.78125 464.785156 C 451.78125 466.464844 449.265625 466.464844 449.265625 464.785156 C 449.265625 463.109375 451.78125 463.109375 451.78125 464.785156 "/>
<path style=" stroke:none;fill-rule:nonzero;fill:rgb(100%,84.3%,0%);fill-opacity:1;" d="M 122.015625 487.882812 C 122.015625 489.558594 119.5 489.558594 119.5 487.882812 C 119.5 486.203125 122.015625 486.203125 122.015625 487.882812 "/>
<path style=" stroke:none;fill-rule:nonzero;fill:rgb(100%,84.3%,0%);fill-opacity:1;" d="M 441.996094 428.804688 C 441.996094 430.480469 439.480469 430.480469 439.480469 428.804688 C 439.480469 427.125 441.996094 427.125 441.996094 428.804688 "/>
<path style=" stroke:none;fill-rule:nonzero;fill:rgb(100%,84.3%,0%);fill-opacity:1;" d="M 465.140625 392.359375 C 465.140625 394.039062 462.625 394.039062 462.625 392.359375 C 462.625 390.683594 465.140625 390.683594 465.140625 392.359375 "/>
<path style=" stroke:none;fill-rule:nonzero;fill:rgb(100%,84.3%,0%);fill-opacity:1;" d="M 425.359375 476.9375 C 425.359375 478.617188 422.84375 478.617188 422.84375 476.9375 C 422.84375 475.261719 425.359375 475.261719 425.359375 476.9375 "/>
<path style=" stroke:none;fill-rule:nonzero;fill:rgb(100%,84.3%,0%);fill-opacity:1;" d="M 187.914062 327.613281 C 187.914062 329.289062 185.398438 329.289062 185.398438 327.613281 C 185.398438 325.933594 187.914062 325.933594 187.914062 327.613281 "/>
<path style=" stroke:none;fill-rule:nonzero;fill:rgb(100%,84.3%,0%);fill-opacity:1;" d="M 463.449219 333.714844 C 463.449219 335.394531 460.933594 335.394531 460.933594 333.714844 C 460.933594 332.039062 463.449219 332.039062 463.449219 333.714844 "/>
<path style=" stroke:none;fill-rule:nonzero;fill:rgb(100%,84.3%,0%);fill-opacity:1;" d="M 153.324219 299.246094 C 153.324219 300.925781 150.808594 300.925781 150.808594 299.246094 C 150.808594 297.570312 153.324219 297.570312 153.324219 299.246094 "/>
<path style=" stroke:none;fill-rule:nonzero;fill:rgb(100%,84.3%,0%);fill-opacity:1;" d="M 257.6875 481.597656 C 257.6875 483.273438 255.171875 483.273438 255.171875 481.597656 C 255.171875 479.917969 257.6875 479.917969 257.6875 481.597656 "/>
<path style=" stroke:none;fill-rule:nonzero;fill:rgb(100%,84.3%,0%);fill-opacity:1;" d="M 295.75 308.554688 C 295.75 310.230469 293.234375 310.230469 293.234375 308.554688 C 293.234375 306.875 295.75 306.875 295.75 308.554688 "/>
<path style=" stroke:none;fill-rule:nonzero;fill:rgb(100%,84.3%,0%);fill-opacity:1;" d="M 212.722656 319.992188 C 212.722656 321.671875 210.207031 321.671875 210.207031 319.992188 C 210.207031 318.316406 212.722656 318.316406 212.722656 319.992188 "/>
<path style=" stroke:none;fill-rule:nonzero;fill:rgb(100%,84.3%,0%);fill-opacity:1;" d="M 288.085938 298.585938 C 288.085938 300.261719 285.570312 300.261719 285.570312 298.585938 C 285.570312 296.90625 288.085938 296.90625 288.085938 298.585938 "/>
<path style=" stroke:none;fill-rule:nonzero;fill:rgb(100%,84.3%,0%);fill-opacity:1;" d="M 447.015625 352.390625 C 447.015625 354.070312 444.5 354.070312 444.5 352.390625 C 444.5 350.714844 447.015625 350.714844 447.015625 352.390625 "/>
<path style=" stroke:none;fill-rule:nonzero;fill:rgb(100%,84.3%,0%);fill-opacity:1;" d="M 68.964844 326.1875 C 68.964844 327.863281 66.449219 327.863281 66.449219 326.1875 C 66.449219 324.511719 68.964844 324.511719 68.964844 326.1875 "/>
<path style=" stroke:none;fill-rule:nonzero;fill:rgb(100%,84.3%,0%);fill-opacity:1;" d="M 439.351562 342.421875 C 439.351562 344.101562 436.835938 344.101562 436.835938 342.421875 C 436.835938 340.746094 439.351562 340.746094 439.351562 342.421875 "/>
<path style=" stroke:none;fill-rule:nonzero;fill:rgb(100%,84.3%,0%);fill-opacity:1;" d="M 61.957031 306.699219 C 61.957031 308.378906 59.441406 308.378906 59.441406 306.699219 C 59.441406 305.023438 61.957031 305.023438 61.957031 306.699219 "/>
<path style=" stroke:none;fill-rule:nonzero;fill:rgb(100%,84.3%,0%);fill-opacity:1;" d="M 457.828125 479.289062 C 457.828125 480.964844 455.3125 480.964844 455.3125 479.289062 C 455.3125 477.609375 457.828125 477.609375 457.828125 479.289062 "/>
<path style=" stroke:none;fill-rule:nonzero;fill:rgb(100%,84.3%,0%);fill-opacity:1;" d="M 52.324219 374.320312 C 52.324219 376 49.808594 376 49.808594 374.320312 C 49.808594 372.644531 52.324219 372.644531 52.324219 374.320312 "/>
<path style=" stroke:none;fill-rule:nonzero;fill:rgb(100%,84.3%,0%);fill-opacity:1;" d="M 212.003906 485.324219 C 212.003906 487 209.488281 487 209.488281 485.324219 C 209.488281 483.648438 212.003906 483.648438 212.003906 485.324219 "/>
<path style=" stroke:none;fill-rule:nonzero;fill:rgb(100%,84.3%,0%);fill-opacity:1;" d="M 73.703125 408.761719 C 73.703125 410.4375 71.1875 410.4375 71.1875 408.761719 C 71.1875 407.085938 73.703125 407.085938 73.703125 408.761719 "/>
<path style=" stroke:none;fill-rule:nonzero;fill:rgb(100%,84.3%,0%);fill-opacity:1;" d="M 453.59375 427.261719 C 453.59375 428.9375 451.074219 428.9375 451.074219 427.261719 C 451.074219 425.582031 453.59375 425.582031 453.59375 427.261719 "/>
<path style=" stroke:none;fill-rule:nonzero;fill:rgb(100%,84.3%,0%);fill-opacity:1;" d="M 197.390625 300.054688 C 197.390625 301.730469 194.875 301.730469 194.875 300.054688 C 194.875 298.378906 197.390625 298.378906 197.390625 300.054688 "/>
<path style=" stroke:none;fill-rule:nonzero;fill:rgb(100%,84.3%,0%);fill-opacity:1;" d="M 164.199219 463.035156 C 164.199219 464.714844 161.683594 464.714844 161.683594 463.035156 C 161.683594 461.359375 164.199219 461.359375 164.199219 463.035156 "/>
<path style=" stroke:none;fill-rule:nonzero;fill:rgb(100%,84.3%,0%);fill-opacity:1;" d="M 213.8125 447.796875 C 213.8125 449.472656 211.296875 449.472656 211.296875 447.796875 C 211.296875 446.121094 213.8125 446.121094 213.8125 447.796875 "/>
<path style=" stroke:none;fill-rule:nonzero;fill:rgb(100%,84.3%,0%);fill-opacity:1;" d="M 299.679688 297.042969 C 299.679688 298.71875 297.164062 298.71875 297.164062 297.042969 C 297.164062 295.363281 299.679688 295.363281 299.679688 297.042969 "/>
<path style=" stroke:none;fill-rule:nonzero;fill:rgb(100%,84.3%,0%);fill-opacity:1;" d="M 267.664062 484.585938 C 267.664062 486.261719 265.148438 486.261719 265.148438 484.585938 C 265.148438 482.910156 267.664062 482.910156 267.664062 484.585938 "/>
<path style=" stroke:none;fill-rule:nonzero;fill:rgb(100%,84.3%,0%);fill-opacity:1;" d="M 359.074219 317.785156 C 359.074219 319.464844 356.558594 319.464844 356.558594 317.785156 C 356.558594 316.109375 359.074219 316.109375 359.074219 317.785156 "/>
<path style=" stroke:none;fill-rule:nonzero;fill:rgb(100%,84.3%,0%);fill-opacity:1;" d="M 285.832031 365.207031 C 285.832031 366.882812 283.316406 366.882812 283.316406 365.207031 C 283.316406 363.53125 285.832031 363.53125 285.832031 365.207031 "/>
<path style=" stroke:none;fill-rule:nonzero;fill:rgb(100%,84.3%,0%);fill-opacity:1;" d="M 58.371094 388.824219 C 58.371094 390.5 55.855469 390.5 55.855469 388.824219 C 55.855469 387.148438 58.371094 387.148438 58.371094 388.824219 "/>
<path style=" stroke:none;fill-rule:nonzero;fill:rgb(100%,84.3%,0%);fill-opacity:1;" d="M 366.460938 486.742188 C 366.460938 488.417969 363.945312 488.417969 363.945312 486.742188 C 363.945312 485.0625 366.460938 485.0625 366.460938 486.742188 "/>
<path style=" stroke:none;fill-rule:nonzero;fill:rgb(100%,84.3%,0%);fill-opacity:1;" d="M 80.261719 480.09375 C 80.261719 481.773438 77.742188 481.773438 77.742188 480.09375 C 77.742188 478.417969 80.261719 478.417969 80.261719 480.09375 "/>
<path style=" stroke:none;fill-rule:nonzero;fill:rgb(100%,84.3%,0%);fill-opacity:1;" d="M 75.667969 331.171875 C 75.667969 332.847656 73.152344 332.847656 73.152344 331.171875 C 73.152344 329.492188 75.667969 329.492188 75.667969 331.171875 "/>
<path style=" stroke:none;fill-rule:nonzero;fill:rgb(100%,84.3%,0%);fill-opacity:1;" d="M 201.101562 484.417969 C 201.101562 486.097656 198.585938 486.097656 198.585938 484.417969 C 198.585938 482.742188 201.101562 482.742188 201.101562 484.417969 "/>
<path style=" stroke:none;fill-rule:nonzero;fill:rgb(100%,84.3%,0%);fill-opacity:1;" d="M 172.554688 470.558594 C 172.554688 472.234375 170.039062 472.234375 170.039062 470.558594 C 170.039062 468.878906 172.554688 468.878906 172.554688 470.558594 "/>
<path style=" stroke:none;fill-rule:nonzero;fill:rgb(100%,84.3%,0%);fill-opacity:1;" d="M 132.945312 325.902344 C 132.945312 327.578125 130.429688 327.578125 130.429688 325.902344 C 130.429688 324.222656 132.945312 324.222656 132.945312 325.902344 "/>
<path style=" stroke:none;fill-rule:nonzero;fill:rgb(100%,84.3%,0%);fill-opacity:1;" d="M 318.9375 305.46875 C 318.9375 307.144531 316.421875 307.144531 316.421875 305.46875 C 316.421875 303.789062 318.9375 303.789062 318.9375 305.46875 "/>
<path style=" stroke:none;fill-rule:nonzero;fill:rgb(100%,84.3%,0%);fill-opacity:1;" d="M 80.058594 486.804688 C 80.058594 488.480469 77.542969 488.480469 77.542969 486.804688 C 77.542969 485.125 80.058594 485.125 80.058594 486.804688 "/>
<path style=" stroke:none;fill-rule:nonzero;fill:rgb(100%,84.3%,0%);fill-opacity:1;" d="M 70.773438 481.367188 C 70.773438 483.042969 68.257812 483.042969 68.257812 481.367188 C 68.257812 479.6875 70.773438 479.6875 70.773438 481.367188 "/>
<path style=" stroke:none;fill-rule:nonzero;fill:rgb(100%,84.3%,0%);fill-opacity:1;" d="M 99.519531 488.519531 C 99.519531 490.195312 97.003906 490.195312 97.003906 488.519531 C 97.003906 486.84375 99.519531 486.84375 99.519531 488.519531 "/>
<path style=" stroke:none;fill-rule:nonzero;fill:rgb(100%,84.3%,0%);fill-opacity:1;" d="M 227.714844 439.273438 C 227.714844 440.949219 225.199219 440.949219 225.199219 439.273438 C 225.199219 437.597656 227.714844 437.597656 227.714844 439.273438 "/>
<path style=" stroke:none;fill-rule:nonzero;fill:rgb(100%,84.3%,0%);fill-opacity:1;" d="M 465.304688 329.546875 C 465.304688 331.222656 462.789062 331.222656 462.789062 329.546875 C 462.789062 327.867188 465.304688 327.867188 465.304688 329.546875 "/>
<path style=" stroke:none;fill-rule:nonzero;fill:rgb(100%,84.3%,0%);fill-opacity:1;" d="M 427.949219 310.972656 C 427.949219 312.648438 425.433594 312.648438 425.433594 310.972656 C 425.433594 309.296875 427.949219 309.296875 427.949219 310.972656 "/>
<path style=" stroke:none;fill-rule:nonzero;fill:rgb(100%,84.3%,0%);fill-opacity:1;" d="M 58.871094 419.371094 C 58.871094 421.046875 56.355469 421.046875 56.355469 419.371094 C 56.355469 417.691406 58.871094 417.691406 58.871094 419.371094 "/>
<path style=" stroke:none;fill-rule:nonzero;fill:rgb(100%,84.3%,0%);fill-opacity:1;" d="M 130.828125 299.886719 C 130.828125 301.566406 128.3125 301.566406 128.3125 299.886719 C 128.3125 298.210938 130.828125 298.210938 130.828125 299.886719 "/>
<path style=" stroke:none;fill-rule:nonzero;fill:rgb(100%,84.3%,0%);fill-opacity:1;" d="M 51.207031 409.402344 C 51.207031 411.078125 48.691406 411.078125 48.691406 409.402344 C 48.691406 407.722656 51.207031 407.722656 51.207031 409.402344 "/>
<path style=" stroke:none;fill-rule:nonzero;fill:rgb(100%,84.3%,0%);fill-opacity:1;" d="M 186.796875 362.691406 C 186.796875 364.367188 184.28125 364.367188 184.28125 362.691406 C 184.28125 361.011719 186.796875 361.011719 186.796875 362.691406 "/>
<path style=" stroke:none;fill-rule:nonzero;fill:rgb(100%,84.3%,0%);fill-opacity:1;" d="M 49.085938 383.386719 C 49.085938 385.0625 46.570312 385.0625 46.570312 383.386719 C 46.570312 381.710938 49.085938 381.710938 49.085938 383.386719 "/>
<path style=" stroke:none;fill-rule:nonzero;fill:rgb(100%,84.3%,0%);fill-opacity:1;" d="M 124.324219 480.902344 C 124.324219 482.578125 121.808594 482.578125 121.808594 480.902344 C 121.808594 479.222656 124.324219 479.222656 124.324219 480.902344 "/>
<path style=" stroke:none;fill-rule:nonzero;fill:rgb(100%,84.3%,0%);fill-opacity:1;" d="M 455.402344 389.734375 C 455.402344 391.414062 452.886719 391.414062 452.886719 389.734375 C 452.886719 388.058594 455.402344 388.058594 455.402344 389.734375 "/>
<path style=" stroke:none;fill-rule:nonzero;fill:rgb(100%,84.3%,0%);fill-opacity:1;" d="M 88.414062 301.621094 C 88.414062 303.296875 85.898438 303.296875 85.898438 301.621094 C 85.898438 299.941406 88.414062 299.941406 88.414062 301.621094 "/>
<path style=" stroke:none;fill-rule:nonzero;fill:rgb(100%,84.3%,0%);fill-opacity:1;" d="M 357.175781 481.304688 C 357.175781 482.980469 354.660156 482.980469 354.660156 481.304688 C 354.660156 479.625 357.175781 479.625 357.175781 481.304688 "/>
<path style=" stroke:none;fill-rule:nonzero;fill:rgb(100%,84.3%,0%);fill-opacity:1;" d="M 454.59375 488.351562 C 454.59375 490.03125 452.078125 490.03125 452.078125 488.351562 C 452.078125 486.675781 454.59375 486.675781 454.59375 488.351562 "/>
<path style=" stroke:none;fill-rule:nonzero;fill:rgb(100%,84.3%,0%);fill-opacity:1;" d="M 452.472656 462.339844 C 452.472656 464.015625 449.957031 464.015625 449.957031 462.339844 C 449.957031 460.660156 452.472656 460.660156 452.472656 462.339844 "/>
<path style=" stroke:none;fill-rule:nonzero;fill:rgb(100%,84.3%,0%);fill-opacity:1;" d="M 268.355469 482.140625 C 268.355469 483.816406 265.839844 483.816406 265.839844 482.140625 C 265.839844 480.460938 268.355469 480.460938 268.355469 482.140625 "/>
<path style=" stroke:none;fill-rule:nonzero;fill:rgb(100%,84.3%,0%);fill-opacity:1;" d="M 150.085938 308.3125 C 150.085938 309.988281 147.570312 309.988281 147.570312 308.3125 C 147.570312 306.636719 150.085938 306.636719 150.085938 308.3125 "/>
<path style=" stroke:none;fill-rule:nonzero;fill:rgb(100%,84.3%,0%);fill-opacity:1;" d="M 90.234375 483.085938 C 90.234375 484.761719 87.71875 484.761719 87.71875 483.085938 C 87.71875 481.40625 90.234375 481.40625 90.234375 483.085938 "/>
<path style=" stroke:none;fill-rule:nonzero;fill:rgb(100%,84.3%,0%);fill-opacity:1;" d="M 136.847656 477.273438 C 136.847656 478.949219 134.332031 478.949219 134.332031 477.273438 C 134.332031 475.597656 136.847656 475.597656 136.847656 477.273438 "/>
<path style=" stroke:none;fill-rule:nonzero;fill:rgb(100%,84.3%,0%);fill-opacity:1;" d="M 420.28125 301.003906 C 420.28125 302.679688 417.765625 302.679688 417.765625 301.003906 C 417.765625 299.328125 420.28125 299.328125 420.28125 301.003906 "/>
<path style=" stroke:none;fill-rule:nonzero;fill:rgb(100%,84.3%,0%);fill-opacity:1;" d="M 328.914062 308.457031 C 328.914062 310.132812 326.398438 310.132812 326.398438 308.457031 C 326.398438 306.777344 328.914062 306.777344 328.914062 308.457031 "/>
<path style=" stroke:none;fill-rule:nonzero;fill:rgb(100%,84.3%,0%);fill-opacity:1;" d="M 53.824219 465.960938 C 53.824219 467.636719 51.308594 467.636719 51.308594 465.960938 C 51.308594 464.285156 53.824219 464.285156 53.824219 465.960938 "/>
<path style=" stroke:none;fill-rule:nonzero;fill:rgb(100%,84.3%,0%);fill-opacity:1;" d="M 56.617188 485.992188 C 56.617188 487.667969 54.101562 487.667969 54.101562 485.992188 C 54.101562 484.316406 56.617188 484.316406 56.617188 485.992188 "/>
</g>
</svg>
