<?xml version="1.0" encoding="UTF-8"?>
<svg xmlns="http://www.w3.org/2000/svg" xmlns:xlink="http://www.w3.org/1999/xlink" width="512pt" height="512pt" viewBox="0 0 512 512" version="1.1">
<g id="surface436">
<rect x="0" y="0" width="512" height="512" style="fill:rgb(26.7%,26.7%,26.7%);fill-opacity:1;stroke:none;"/>
<path style=" stroke:none;fill-rule:nonzero;fill:rgb(19.2%,38.8%,66.7%);fill-opacity:1;" d="M 42.667969 102.601562 L 469.332031 102.601562 L 469.332031 474.78125 L 42.667969 474.78125 Z M 42.667969 102.601562 "/>
<path style=" stroke:none;fill-rule:nonzero;fill:rgb(90.6%,14.9%,14.9%);fill-opacity:1;" d="M 38.972656 303.007812 C 38.972656 342.28125 7.132812 374.117188 -32.140625 374.117188 C -71.414062 374.117188 -103.25 342.28125 -103.25 303.007812 C -103.25 263.734375 -71.414062 231.894531 -32.140625 231.894531 C 7.132812 231.894531 38.972656 263.734375 38.972656 303.007812 "/>
<path style=" stroke:none;fill-rule:nonzero;fill:rgb(90.6%,14.9%,14.9%);fill-opacity:1;" d="M 328.035156 23.179688 C 328.035156 62.964844 295.785156 95.214844 256 95.214844 C 216.214844 95.214844 183.964844 62.964844 183.964844 23.179688 C 183.964844 -16.605469 216.214844 -48.855469 256 -48.855469 C 295.785156 -48.855469 328.035156 -16.605469 328.035156 23.179688 "/>
<path style=" stroke:none;fill-rule:nonzero;fill:rgb(90.6%,14.9%,14.9%);fill-opacity:1;" d="M 30.660156 363.035156 C 30.660156 401.800781 -0.761719 433.222656 -39.527344 433.222656 C -78.289062 433.222656 -109.714844 401.800781 -109.714844 363.035156 C -109.714844 324.273438 -78.289062 292.847656 -39.527344 292.847656 C -0.761719 292.847656 30.660156 324.273438 30.660156 363.035156 "/>
<path style=" stroke:none;fill-rule:nonzero;fill:rgb(90.6%,14.9%,14.9%);fill-opacity:1;" d="M 400.070312 541.277344 C 400.070312 560.148438 384.769531 575.445312 365.898438 575.445312 C 347.027344 575.445312 331.730469 560.148438 331.730469 541.277344 C 331.730469 522.402344 347.027344 507.105469 365.898438 507.105469 C 384.769531 507.105469 400.070312 522.402344 400.070312 541.277344 "/>
<path style=" stroke:none;fill-rule:nonzero;fill:rgb(90.6%,14.9%,14.9%);fill-opacity:1;" d="M 263.386719 84.132812 C 263.386719 88.214844 260.082031 91.519531 256 91.519531 C 251.917969 91.519531 248.613281 88.214844 248.613281 84.132812 C 248.613281 80.050781 251.917969 76.746094 256 76.746094 C 260.082031 76.746094 263.386719 80.050781 263.386719 84.132812 "/>
<path style=" stroke:none;fill-rule:nonzero;fill:rgb(90.6%,14.9%,14.9%);fill-opacity:1;" d="M 624.484375 203.265625 C 624.484375 244.582031 590.992188 278.070312 549.679688 278.070312 C 508.367188 278.070312 474.875 244.582031 474.875 203.265625 C 474.875 161.953125 508.367188 128.460938 549.679688 128.460938 C 590.992188 128.460938 624.484375 161.953125 624.484375 203.265625 "/>
<path style=" stroke:none;fill-rule:nonzero;fill:rgb(100%,100%,100%);fill-opacity:1;" d="M 42.667969 94.289062 C 42.667969 100.449219 33.429688 100.449219 33.429688 94.289062 C 33.429688 88.132812 42.667969 88.132812 42.667969 94.289062 "/>
<path style=" stroke:none;fill-rule:nonzero;fill:rgb(100%,100%,100%);fill-opacity:1;" d="M 195.046875 481.246094 C 195.046875 487.402344 185.8125 487.402344 185.8125 481.246094 C 185.8125 475.089844 195.046875 475.089844 195.046875 481.246094 "/>
<path style=" stroke:none;fill-rule:nonzero;fill:rgb(100%,100%,100%);fill-opacity:1;" d="M 501.65625 427.683594 C 501.65625 433.839844 492.421875 433.839844 492.421875 427.683594 C 492.421875 421.527344 501.65625 421.527344 501.65625 427.683594 "/>
<path style=" stroke:none;fill-rule:nonzero;fill:rgb(100%,100%,100%);fill-opacity:1;" d="M 378.828125 37.03125 C 378.828125 43.191406 369.59375 43.191406 369.59375 37.03125 C 369.59375 30.875 378.828125 30.875 378.828125 37.03125 "/>
<path style=" stroke:none;fill-rule:nonzero;fill:rgb(100%,100%,100%);fill-opacity:1;" d="M 420.386719 477.554688 C 420.386719 483.710938 411.152344 483.710938 411.152344 477.554688 C 411.152344 471.394531 420.386719 471.394531 420.386719 477.554688 "/>
<path style=" stroke:none;fill-rule:nonzero;fill:rgb(100%,100%,100%);fill-opacity:1;" d="M 474.875 455.386719 C 474.875 461.542969 465.640625 461.542969 465.640625 455.386719 C 465.640625 449.230469 474.875 449.230469 474.875 455.386719 "/>
<path style=" stroke:none;fill-rule:nonzero;fill:rgb(100%,84.3%,0%);fill-opacity:1;" d="M 259.042969 116.734375 C 259.042969 122.890625 249.804688 122.890625 249.804688 116.734375 C 249.804688 110.578125 259.042969 110.578125 259.042969 116.734375 "/>
<path style=" stroke:none;fill-rule:nonzero;fill:rgb(100%,84.3%,0%);fill-opacity:1;" d="M 422.722656 459.574219 C 422.722656 465.730469 413.488281 465.730469 413.488281 459.574219 C 413.488281 453.417969 422.722656 453.417969 422.722656 459.574219 "/>
<path style=" stroke:none;fill-rule:nonzero;fill:rgb(100%,84.3%,0%);fill-opacity:1;" d="M 91.6875 464.53125 C 91.6875 470.6875 82.453125 470.6875 82.453125 464.53125 C 82.453125 458.375 91.6875 458.375 91.6875 464.53125 "/>
<path style=" stroke:none;fill-rule:nonzero;fill:rgb(100%,84.3%,0%);fill-opacity:1;" d="M 185.171875 465.492188 C 185.171875 471.652344 175.9375 471.652344 175.9375 465.492188 C 175.9375 459.335938 185.171875 459.335938 185.171875 465.492188 "/>
<path style=" stroke:none;fill-rule:nonzero;fill:rgb(100%,84.3%,0%);fill-opacity:1;" d="M 455.726562 455.566406 C 455.726562 461.726562 446.492188 461.726562 446.492188 455.566406 C 446.492188 449.410156 455.726562 449.410156 455.726562 455.566406 "/>
<path style=" stroke:none;fill-rule:nonzero;fill:rgb(100%,84.3%,0%);fill-opacity:1;" d="M 296.371094 118.886719 C 296.371094 125.042969 287.136719 125.042969 287.136719 118.886719 C 287.136719 112.726562 296.371094 112.726562 296.371094 118.886719 "/>
<path style=" stroke:none;fill-rule:nonzero;fill:rgb(100%,84.3%,0%);fill-opacity:1;" d="M 320.332031 127.191406 C 320.332031 133.347656 311.097656 133.347656 311.097656 127.191406 C 311.097656 121.03125 320.332031 121.03125 320.332031 127.191406 "/>
<path style=" stroke:none;fill-rule:nonzero;fill:rgb(100%,84.3%,0%);fill-opacity:1;" d="M 196.167969 461.996094 C 196.167969 468.152344 186.933594 468.152344 186.933594 461.996094 C 186.933594 455.839844 196.167969 455.839844 196.167969 461.996094 "/>
<path style=" stroke:none;fill-rule:nonzero;fill:rgb(100%,84.3%,0%);fill-opacity:1;" d="M 449.285156 243.765625 C 449.285156 249.921875 440.046875 249.921875 440.046875 243.765625 C 440.046875 237.609375 449.285156 237.609375 449.285156 243.765625 "/>
<path style=" stroke:none;fill-rule:nonzero;fill:rgb(100%,84.3%,0%);fill-opacity:1;" d="M 464.488281 464.882812 C 464.488281 471.039062 455.253906 471.039062 455.253906 464.882812 C 455.253906 458.722656 464.488281 458.722656 464.488281 464.882812 "/>
<path style=" stroke:none;fill-rule:nonzero;fill:rgb(100%,84.3%,0%);fill-opacity:1;" d="M 79.777344 465.367188 C 79.777344 471.523438 70.542969 471.523438 70.542969 465.367188 C 70.542969 459.210938 79.777344 459.210938 79.777344 465.367188 "/>
<path style=" stroke:none;fill-rule:nonzero;fill:rgb(100%,84.3%,0%);fill-opacity:1;" d="M 456.835938 445.917969 C 456.835938 452.074219 447.601562 452.074219 447.601562 445.917969 C 447.601562 439.761719 456.835938 439.761719 456.835938 445.917969 "/>
<path style=" stroke:none;fill-rule:nonzero;fill:rgb(100%,84.3%,0%);fill-opacity:1;" d="M 69.21875 463.707031 C 69.21875 469.863281 59.984375 469.863281 59.984375 463.707031 C 59.984375 457.550781 69.21875 457.550781 69.21875 463.707031 "/>
<path style=" stroke:none;fill-rule:nonzero;fill:rgb(100%,84.3%,0%);fill-opacity:1;" d="M 58.664062 462.046875 C 58.664062 468.203125 49.429688 468.203125 49.429688 462.046875 C 49.429688 455.890625 58.664062 455.890625 58.664062 462.046875 "/>
<path style=" stroke:none;fill-rule:nonzero;fill:rgb(100%,84.3%,0%);fill-opacity:1;" d="M 432.152344 464.394531 C 432.152344 470.550781 422.917969 470.550781 422.917969 464.394531 C 422.917969 458.238281 432.152344 458.238281 432.152344 464.394531 "/>
<path style=" stroke:none;fill-rule:nonzero;fill:rgb(100%,84.3%,0%);fill-opacity:1;" d="M 442.25 464.722656 C 442.25 470.878906 433.015625 470.878906 433.015625 464.722656 C 433.015625 458.566406 442.25 458.566406 442.25 464.722656 "/>
<path style=" stroke:none;fill-rule:nonzero;fill:rgb(100%,84.3%,0%);fill-opacity:1;" d="M 206.496094 462.988281 C 206.496094 469.148438 197.257812 469.148438 197.257812 462.988281 C 197.257812 456.832031 206.496094 456.832031 206.496094 462.988281 "/>
<path style=" stroke:none;fill-rule:nonzero;fill:rgb(100%,84.3%,0%);fill-opacity:1;" d="M 329.089844 136.503906 C 329.089844 142.660156 319.855469 142.660156 319.855469 136.503906 C 319.855469 130.347656 329.089844 130.347656 329.089844 136.503906 "/>
<path style=" stroke:none;fill-rule:nonzero;fill:rgb(100%,84.3%,0%);fill-opacity:1;" d="M 101.996094 459.035156 C 101.996094 465.191406 92.761719 465.191406 92.761719 459.035156 C 92.761719 452.878906 101.996094 452.878906 101.996094 459.035156 "/>
<path style=" stroke:none;fill-rule:nonzero;fill:rgb(100%,84.3%,0%);fill-opacity:1;" d="M 174.160156 462.503906 C 174.160156 468.660156 164.925781 468.660156 164.925781 462.503906 C 164.925781 456.347656 174.160156 456.347656 174.160156 462.503906 "/>
<path style=" stroke:none;fill-rule:nonzero;fill:rgb(100%,84.3%,0%);fill-opacity:1;" d="M 457.945312 436.265625 C 457.945312 442.421875 448.710938 442.421875 448.710938 436.265625 C 448.710938 430.109375 457.945312 430.109375 457.945312 436.265625 "/>
<path style=" stroke:none;fill-rule:nonzero;fill:rgb(100%,84.3%,0%);fill-opacity:1;" d="M 216.59375 463.316406 C 216.59375 469.476562 207.355469 469.476562 207.355469 463.316406 C 207.355469 457.160156 216.59375 457.160156 216.59375 463.316406 "/>
<path style=" stroke:none;fill-rule:nonzero;fill:rgb(100%,84.3%,0%);fill-opacity:1;" d="M 411.042969 461.074219 C 411.042969 467.234375 401.804688 467.234375 401.804688 461.074219 C 401.804688 454.917969 411.042969 454.917969 411.042969 461.074219 "/>
<path style=" stroke:none;fill-rule:nonzero;fill:rgb(100%,84.3%,0%);fill-opacity:1;" d="M 186.496094 450.019531 C 186.496094 456.175781 177.257812 456.175781 177.257812 450.019531 C 177.257812 443.863281 186.496094 443.863281 186.496094 450.019531 "/>
<path style=" stroke:none;fill-rule:nonzero;fill:rgb(100%,84.3%,0%);fill-opacity:1;" d="M 246.671875 116.238281 C 246.671875 122.394531 237.4375 122.394531 237.4375 116.238281 C 237.4375 110.082031 246.671875 110.082031 246.671875 116.238281 "/>
<path style=" stroke:none;fill-rule:nonzero;fill:rgb(100%,84.3%,0%);fill-opacity:1;" d="M 449.539062 299.164062 C 449.539062 305.324219 440.304688 305.324219 440.304688 299.164062 C 440.304688 293.007812 449.539062 293.007812 449.539062 299.164062 "/>
<path style=" stroke:none;fill-rule:nonzero;fill:rgb(100%,84.3%,0%);fill-opacity:1;" d="M 461.433594 291.839844 C 461.433594 297.996094 452.199219 297.996094 452.199219 291.839844 C 452.199219 285.683594 461.433594 285.683594 461.433594 291.839844 "/>
<path style=" stroke:none;fill-rule:nonzero;fill:rgb(100%,84.3%,0%);fill-opacity:1;" d="M 64.804688 113.332031 C 64.804688 119.488281 55.570312 119.488281 55.570312 113.332031 C 55.570312 107.175781 64.804688 107.175781 64.804688 113.332031 "/>
<path style=" stroke:none;fill-rule:nonzero;fill:rgb(100%,84.3%,0%);fill-opacity:1;" d="M 110.96875 462.523438 C 110.96875 468.679688 101.730469 468.679688 101.730469 462.523438 C 101.730469 456.367188 110.96875 456.367188 110.96875 462.523438 "/>
<path style=" stroke:none;fill-rule:nonzero;fill:rgb(100%,84.3%,0%);fill-opacity:1;" d="M 61.671875 129.96875 C 61.671875 136.125 52.4375 136.125 52.4375 129.96875 C 52.4375 123.8125 61.671875 123.8125 61.671875 129.96875 "/>
<path style=" stroke:none;fill-rule:nonzero;fill:rgb(100%,84.3%,0%);fill-opacity:1;" d="M 162.023438 462.675781 C 162.023438 468.832031 152.785156 468.832031 152.785156 462.675781 C 152.785156 456.515625 162.023438 456.515625 162.023438 462.675781 "/>
<path style=" stroke:none;fill-rule:nonzero;fill:rgb(100%,84.3%,0%);fill-opacity:1;" d="M 452.121094 464.386719 C 452.121094 470.542969 442.882812 470.542969 442.882812 464.386719 C 442.882812 458.230469 452.121094 458.230469 452.121094 464.386719 "/>
<path style=" stroke:none;fill-rule:nonzero;fill:rgb(100%,84.3%,0%);fill-opacity:1;" d="M 400.257812 458.75 C 400.257812 464.90625 391.023438 464.90625 391.023438 458.75 C 391.023438 452.59375 400.257812 452.59375 400.257812 458.75 "/>
<path style=" stroke:none;fill-rule:nonzero;fill:rgb(100%,84.3%,0%);fill-opacity:1;" d="M 464.683594 452.566406 C 464.683594 458.726562 455.449219 458.726562 455.449219 452.566406 C 455.449219 446.410156 464.683594 446.410156 464.683594 452.566406 "/>
<path style=" stroke:none;fill-rule:nonzero;fill:rgb(100%,84.3%,0%);fill-opacity:1;" d="M 208.484375 443.023438 C 208.484375 449.179688 199.25 449.179688 199.25 443.023438 C 199.25 436.867188 208.484375 436.867188 208.484375 443.023438 "/>
<path style=" stroke:none;fill-rule:nonzero;fill:rgb(100%,84.3%,0%);fill-opacity:1;" d="M 285.359375 115.894531 C 285.359375 122.050781 276.125 122.050781 276.125 115.894531 C 276.125 109.738281 285.359375 109.738281 285.359375 115.894531 "/>
<path style=" stroke:none;fill-rule:nonzero;fill:rgb(100%,84.3%,0%);fill-opacity:1;" d="M 464.339844 274.535156 C 464.339844 280.695312 455.101562 280.695312 455.101562 274.535156 C 455.101562 268.378906 464.339844 268.378906 464.339844 274.535156 "/>
<path style=" stroke:none;fill-rule:nonzero;fill:rgb(100%,84.3%,0%);fill-opacity:1;" d="M 412.820312 446.933594 C 412.820312 453.089844 403.585938 453.089844 403.585938 446.933594 C 403.585938 440.777344 412.820312 440.777344 412.820312 446.933594 "/>
<path style=" stroke:none;fill-rule:nonzero;fill:rgb(100%,84.3%,0%);fill-opacity:1;" d="M 433.703125 449.585938 C 433.703125 455.742188 424.46875 455.742188 424.46875 449.585938 C 424.46875 443.429688 433.703125 443.429688 433.703125 449.585938 "/>
<path style=" stroke:none;fill-rule:nonzero;fill:rgb(100%,84.3%,0%);fill-opacity:1;" d="M 253.636719 133.207031 C 253.636719 139.363281 244.402344 139.363281 244.402344 133.207031 C 244.402344 127.050781 253.636719 127.050781 253.636719 133.207031 "/>
<path style=" stroke:none;fill-rule:nonzero;fill:rgb(100%,84.3%,0%);fill-opacity:1;" d="M 439.644531 113.003906 C 439.644531 119.160156 430.410156 119.160156 430.410156 113.003906 C 430.410156 106.847656 439.644531 106.847656 439.644531 113.003906 "/>
<path style=" stroke:none;fill-rule:nonzero;fill:rgb(100%,84.3%,0%);fill-opacity:1;" d="M 242.183594 135.371094 C 242.183594 141.53125 232.949219 141.53125 232.949219 135.371094 C 232.949219 129.214844 242.183594 129.214844 242.183594 135.371094 "/>
<path style=" stroke:none;fill-rule:nonzero;fill:rgb(100%,84.3%,0%);fill-opacity:1;" d="M 458.597656 425.285156 C 458.597656 431.441406 449.363281 431.441406 449.363281 425.285156 C 449.363281 419.128906 458.597656 419.128906 458.597656 425.285156 "/>
<path style=" stroke:none;fill-rule:nonzero;fill:rgb(100%,84.3%,0%);fill-opacity:1;" d="M 410.039062 114.015625 C 410.039062 120.171875 400.800781 120.171875 400.800781 114.015625 C 400.800781 107.859375 410.039062 107.859375 410.039062 114.015625 "/>
<path style=" stroke:none;fill-rule:nonzero;fill:rgb(100%,84.3%,0%);fill-opacity:1;" d="M 273.605469 133.195312 C 273.605469 139.355469 264.371094 139.355469 264.371094 133.195312 C 264.371094 127.039062 273.605469 127.039062 273.605469 133.195312 "/>
<path style=" stroke:none;fill-rule:nonzero;fill:rgb(100%,84.3%,0%);fill-opacity:1;" d="M 109.578125 452.039062 C 109.578125 458.199219 100.34375 458.199219 100.34375 452.039062 C 100.34375 445.882812 109.578125 445.882812 109.578125 452.039062 "/>
<path style=" stroke:none;fill-rule:nonzero;fill:rgb(100%,84.3%,0%);fill-opacity:1;" d="M 74.902344 113.660156 C 74.902344 119.816406 65.667969 119.816406 65.667969 113.660156 C 65.667969 107.503906 74.902344 107.503906 74.902344 113.660156 "/>
<path style=" stroke:none;fill-rule:nonzero;fill:rgb(100%,84.3%,0%);fill-opacity:1;" d="M 119.238281 457.527344 C 119.238281 463.683594 110 463.683594 110 457.527344 C 110 451.371094 119.238281 451.371094 119.238281 457.527344 "/>
<path style=" stroke:none;fill-rule:nonzero;fill:rgb(100%,84.3%,0%);fill-opacity:1;" d="M 87.570312 452.550781 C 87.570312 458.707031 78.335938 458.707031 78.335938 452.550781 C 78.335938 446.390625 87.570312 446.390625 87.570312 452.550781 "/>
<path style=" stroke:none;fill-rule:nonzero;fill:rgb(100%,84.3%,0%);fill-opacity:1;" d="M 460.378906 411.144531 C 460.378906 417.300781 451.144531 417.300781 451.144531 411.144531 C 451.144531 404.984375 460.378906 404.984375 460.378906 411.144531 "/>
<path style=" stroke:none;fill-rule:nonzero;fill:rgb(100%,84.3%,0%);fill-opacity:1;" d="M 71.769531 130.296875 C 71.769531 136.453125 62.535156 136.453125 62.535156 130.296875 C 62.535156 124.140625 71.769531 124.140625 71.769531 130.296875 "/>
<path style=" stroke:none;fill-rule:nonzero;fill:rgb(100%,84.3%,0%);fill-opacity:1;" d="M 67.996094 427.933594 C 67.996094 434.089844 58.757812 434.089844 58.757812 427.933594 C 58.757812 421.773438 67.996094 421.773438 67.996094 427.933594 "/>
<path style=" stroke:none;fill-rule:nonzero;fill:rgb(100%,84.3%,0%);fill-opacity:1;" d="M 442.886719 447.253906 C 442.886719 453.410156 433.652344 453.410156 433.652344 447.253906 C 433.652344 441.097656 442.886719 441.097656 442.886719 447.253906 "/>
<path style=" stroke:none;fill-rule:nonzero;fill:rgb(100%,84.3%,0%);fill-opacity:1;" d="M 278.105469 162.308594 C 278.105469 168.46875 268.871094 168.46875 268.871094 162.308594 C 268.871094 156.152344 278.105469 156.152344 278.105469 162.308594 "/>
<path style=" stroke:none;fill-rule:nonzero;fill:rgb(100%,84.3%,0%);fill-opacity:1;" d="M 274.925781 117.722656 C 274.925781 123.878906 265.691406 123.878906 265.691406 117.722656 C 265.691406 111.566406 274.925781 111.566406 274.925781 117.722656 "/>
<path style=" stroke:none;fill-rule:nonzero;fill:rgb(100%,84.3%,0%);fill-opacity:1;" d="M 236.5625 463.308594 C 236.5625 469.464844 227.324219 469.464844 227.324219 463.308594 C 227.324219 457.152344 236.5625 457.152344 236.5625 463.308594 "/>
<path style=" stroke:none;fill-rule:nonzero;fill:rgb(100%,84.3%,0%);fill-opacity:1;" d="M 150.339844 464.175781 C 150.339844 470.332031 141.105469 470.332031 141.105469 464.175781 C 141.105469 458.019531 150.339844 458.019531 150.339844 464.175781 "/>
<path style=" stroke:none;fill-rule:nonzero;fill:rgb(100%,84.3%,0%);fill-opacity:1;" d="M 58.75 140.785156 C 58.75 146.941406 49.515625 146.941406 49.515625 140.785156 C 49.515625 134.628906 58.75 134.628906 58.75 140.785156 "/>
<path style=" stroke:none;fill-rule:nonzero;fill:rgb(100%,84.3%,0%);fill-opacity:1;" d="M 195.90625 448.351562 C 195.90625 454.507812 186.671875 454.507812 186.671875 448.351562 C 186.671875 442.195312 195.90625 442.195312 195.90625 448.351562 "/>
<path style=" stroke:none;fill-rule:nonzero;fill:rgb(100%,84.3%,0%);fill-opacity:1;" d="M 72.933594 451.886719 C 72.933594 458.042969 63.699219 458.042969 63.699219 451.886719 C 63.699219 445.730469 72.933594 445.730469 72.933594 451.886719 "/>
<path style=" stroke:none;fill-rule:nonzero;fill:rgb(100%,84.3%,0%);fill-opacity:1;" d="M 444.894531 433.773438 C 444.894531 439.933594 435.660156 439.933594 435.660156 433.773438 C 435.660156 427.617188 444.894531 427.617188 444.894531 433.773438 "/>
<path style=" stroke:none;fill-rule:nonzero;fill:rgb(100%,84.3%,0%);fill-opacity:1;" d="M 388.578125 460.253906 C 388.578125 466.410156 379.339844 466.410156 379.339844 460.253906 C 379.339844 454.097656 388.578125 454.097656 388.578125 460.253906 "/>
<path style=" stroke:none;fill-rule:nonzero;fill:rgb(100%,84.3%,0%);fill-opacity:1;" d="M 442.738281 256.90625 C 442.738281 263.066406 433.503906 263.066406 433.503906 256.90625 C 433.503906 250.75 442.738281 250.75 442.738281 256.90625 "/>
<path style=" stroke:none;fill-rule:nonzero;fill:rgb(100%,84.3%,0%);fill-opacity:1;" d="M 446.671875 419.632812 C 446.671875 425.789062 437.4375 425.789062 437.4375 419.632812 C 437.4375 413.476562 446.671875 413.476562 446.671875 419.632812 "/>
<path style=" stroke:none;fill-rule:nonzero;fill:rgb(100%,84.3%,0%);fill-opacity:1;" d="M 375.539062 464.25 C 375.539062 470.40625 366.304688 470.40625 366.304688 464.25 C 366.304688 458.09375 375.539062 458.09375 375.539062 464.25 "/>
<path style=" stroke:none;fill-rule:nonzero;fill:rgb(100%,84.3%,0%);fill-opacity:1;" d="M 62.800781 438.578125 C 62.800781 444.738281 53.566406 444.738281 53.566406 438.578125 C 53.566406 432.421875 62.800781 432.421875 62.800781 438.578125 "/>
<path style=" stroke:none;fill-rule:nonzero;fill:rgb(100%,84.3%,0%);fill-opacity:1;" d="M 256.984375 464.632812 C 256.984375 470.789062 247.75 470.789062 247.75 464.632812 C 247.75 458.472656 256.984375 458.472656 256.984375 464.632812 "/>
<path style=" stroke:none;fill-rule:nonzero;fill:rgb(100%,84.3%,0%);fill-opacity:1;" d="M 95.097656 114.316406 C 95.097656 120.472656 85.863281 120.472656 85.863281 114.316406 C 85.863281 108.160156 95.097656 108.160156 95.097656 114.316406 "/>
<path style=" stroke:none;fill-rule:nonzero;fill:rgb(100%,84.3%,0%);fill-opacity:1;" d="M 461.699219 395.667969 C 461.699219 401.824219 452.464844 401.824219 452.464844 395.667969 C 452.464844 389.511719 461.699219 389.511719 461.699219 395.667969 "/>
<path style=" stroke:none;fill-rule:nonzero;fill:rgb(100%,84.3%,0%);fill-opacity:1;" d="M 84.542969 112.65625 C 84.542969 118.8125 75.308594 118.8125 75.308594 112.65625 C 75.308594 106.5 84.542969 106.5 84.542969 112.65625 "/>
<path style=" stroke:none;fill-rule:nonzero;fill:rgb(100%,84.3%,0%);fill-opacity:1;" d="M 205.105469 452.507812 C 205.105469 458.664062 195.871094 458.664062 195.871094 452.507812 C 195.871094 446.351562 205.105469 446.351562 205.105469 452.507812 "/>
<path style=" stroke:none;fill-rule:nonzero;fill:rgb(100%,84.3%,0%);fill-opacity:1;" d="M 398.414062 446.9375 C 398.414062 453.09375 389.175781 453.09375 389.175781 446.9375 C 389.175781 440.78125 398.414062 440.78125 398.414062 446.9375 "/>
<path style=" stroke:none;fill-rule:nonzero;fill:rgb(100%,84.3%,0%);fill-opacity:1;" d="M 431.855469 437.773438 C 431.855469 443.929688 422.621094 443.929688 422.621094 437.773438 C 422.621094 431.617188 431.855469 431.617188 431.855469 437.773438 "/>
<path style=" stroke:none;fill-rule:nonzero;fill:rgb(100%,84.3%,0%);fill-opacity:1;" d="M 368.289062 115.199219 C 368.289062 121.355469 359.054688 121.355469 359.054688 115.199219 C 359.054688 109.042969 368.289062 109.042969 368.289062 115.199219 "/>
<path style=" stroke:none;fill-rule:nonzero;fill:rgb(100%,84.3%,0%);fill-opacity:1;" d="M 464.148438 377.03125 C 464.148438 383.191406 454.914062 383.191406 454.914062 377.03125 C 454.914062 370.875 464.148438 370.875 464.148438 377.03125 "/>
<path style=" stroke:none;fill-rule:nonzero;fill:rgb(100%,84.3%,0%);fill-opacity:1;" d="M 448.890625 400.332031 C 448.890625 406.488281 439.65625 406.488281 439.65625 400.332031 C 439.65625 394.175781 448.890625 394.175781 448.890625 400.332031 "/>
<path style=" stroke:none;fill-rule:nonzero;fill:rgb(100%,84.3%,0%);fill-opacity:1;" d="M 434.078125 418.472656 C 434.078125 424.628906 424.839844 424.628906 424.839844 418.472656 C 424.839844 412.316406 434.078125 412.316406 434.078125 418.472656 "/>
<path style=" stroke:none;fill-rule:nonzero;fill:rgb(100%,84.3%,0%);fill-opacity:1;" d="M 420.863281 441.269531 C 420.863281 447.429688 411.625 447.429688 411.625 441.269531 C 411.625 435.113281 420.863281 435.113281 420.863281 441.269531 "/>
<path style=" stroke:none;fill-rule:nonzero;fill:rgb(100%,84.3%,0%);fill-opacity:1;" d="M 302.984375 131.519531 C 302.984375 137.675781 293.75 137.675781 293.75 131.519531 C 293.75 125.363281 302.984375 125.363281 302.984375 131.519531 "/>
<path style=" stroke:none;fill-rule:nonzero;fill:rgb(100%,84.3%,0%);fill-opacity:1;" d="M 82.558594 444.394531 C 82.558594 450.550781 73.324219 450.550781 73.324219 444.394531 C 73.324219 438.238281 82.558594 438.238281 82.558594 444.394531 "/>
<path style=" stroke:none;fill-rule:nonzero;fill:rgb(100%,84.3%,0%);fill-opacity:1;" d="M 336.65625 123.019531 C 336.65625 129.175781 327.421875 129.175781 327.421875 123.019531 C 327.421875 116.863281 336.65625 116.863281 336.65625 123.019531 "/>
<path style=" stroke:none;fill-rule:nonzero;fill:rgb(100%,84.3%,0%);fill-opacity:1;" d="M 351.492188 465.257812 C 351.492188 471.414062 342.253906 471.414062 342.253906 465.257812 C 342.253906 459.101562 351.492188 459.101562 351.492188 465.257812 "/>
<path style=" stroke:none;fill-rule:nonzero;fill:rgb(100%,84.3%,0%);fill-opacity:1;" d="M 386.503906 447.773438 C 386.503906 453.929688 377.265625 453.929688 377.265625 447.773438 C 377.265625 441.617188 386.503906 441.617188 386.503906 447.773438 "/>
<path style=" stroke:none;fill-rule:nonzero;fill:rgb(100%,84.3%,0%);fill-opacity:1;" d="M 135.53125 440.378906 C 135.53125 446.535156 126.292969 446.535156 126.292969 440.378906 C 126.292969 434.222656 135.53125 434.222656 135.53125 440.378906 "/>
<path style=" stroke:none;fill-rule:nonzero;fill:rgb(100%,84.3%,0%);fill-opacity:1;" d="M 436.3125 405.660156 C 436.3125 411.816406 427.078125 411.816406 427.078125 405.660156 C 427.078125 399.503906 436.3125 399.503906 436.3125 405.660156 "/>
<path style=" stroke:none;fill-rule:nonzero;fill:rgb(100%,84.3%,0%);fill-opacity:1;" d="M 172.773438 452.019531 C 172.773438 458.179688 163.535156 458.179688 163.535156 452.019531 C 163.535156 445.863281 172.773438 445.863281 172.773438 452.019531 "/>
<path style=" stroke:none;fill-rule:nonzero;fill:rgb(100%,84.3%,0%);fill-opacity:1;" d="M 58.070312 450.558594 C 58.070312 456.71875 48.832031 456.71875 48.832031 450.558594 C 48.832031 444.402344 58.070312 444.402344 58.070312 450.558594 "/>
<path style=" stroke:none;fill-rule:nonzero;fill:rgb(100%,84.3%,0%);fill-opacity:1;" d="M 215.433594 453.5 C 215.433594 459.65625 206.199219 459.65625 206.199219 453.5 C 206.199219 447.34375 215.433594 447.34375 215.433594 453.5 "/>
<path style=" stroke:none;fill-rule:nonzero;fill:rgb(100%,84.3%,0%);fill-opacity:1;" d="M 451.113281 381.03125 C 451.113281 387.1875 441.875 387.1875 441.875 381.03125 C 441.875 374.875 451.113281 374.875 451.113281 381.03125 "/>
<path style=" stroke:none;fill-rule:nonzero;fill:rgb(100%,84.3%,0%);fill-opacity:1;" d="M 82.753906 432.082031 C 82.753906 438.238281 73.519531 438.238281 73.519531 432.082031 C 73.519531 425.925781 82.753906 425.925781 82.753906 432.082031 "/>
<path style=" stroke:none;fill-rule:nonzero;fill:rgb(100%,84.3%,0%);fill-opacity:1;" d="M 102.070312 443.054688 C 102.070312 449.210938 92.832031 449.210938 92.832031 443.054688 C 92.832031 436.898438 102.070312 436.898438 102.070312 443.054688 "/>
<path style=" stroke:none;fill-rule:nonzero;fill:rgb(100%,84.3%,0%);fill-opacity:1;" d="M 409.390625 436.949219 C 409.390625 443.105469 400.15625 443.105469 400.15625 436.949219 C 400.15625 430.792969 409.390625 430.792969 409.390625 436.949219 "/>
<path style=" stroke:none;fill-rule:nonzero;fill:rgb(100%,84.3%,0%);fill-opacity:1;" d="M 462.890625 196.339844 C 462.890625 202.496094 453.65625 202.496094 453.65625 196.339844 C 453.65625 190.183594 462.890625 190.183594 462.890625 196.339844 "/>
<path style=" stroke:none;fill-rule:nonzero;fill:rgb(100%,84.3%,0%);fill-opacity:1;" d="M 225.089844 458.988281 C 225.089844 465.144531 215.855469 465.144531 215.855469 458.988281 C 215.855469 452.832031 225.089844 452.832031 225.089844 458.988281 "/>
<path style=" stroke:none;fill-rule:nonzero;fill:rgb(100%,84.3%,0%);fill-opacity:1;" d="M 74.433594 417.609375 C 74.433594 423.769531 65.199219 423.769531 65.199219 417.609375 C 65.199219 411.453125 74.433594 411.453125 74.433594 417.609375 "/>
<path style=" stroke:none;fill-rule:nonzero;fill:rgb(100%,84.3%,0%);fill-opacity:1;" d="M 373.007812 450.4375 C 373.007812 456.597656 363.773438 456.597656 363.773438 450.4375 C 363.773438 444.28125 373.007812 444.28125 373.007812 450.4375 "/>
<path style=" stroke:none;fill-rule:nonzero;fill:rgb(100%,84.3%,0%);fill-opacity:1;" d="M 185.335938 440.203125 C 185.335938 446.359375 176.097656 446.359375 176.097656 440.203125 C 176.097656 434.046875 185.335938 434.046875 185.335938 440.203125 "/>
<path style=" stroke:none;fill-rule:nonzero;fill:rgb(100%,84.3%,0%);fill-opacity:1;" d="M 395.210938 437.617188 C 395.210938 443.777344 385.976562 443.777344 385.976562 437.617188 C 385.976562 431.460938 395.210938 431.460938 395.210938 437.617188 "/>
<path style=" stroke:none;fill-rule:nonzero;fill:rgb(100%,84.3%,0%);fill-opacity:1;" d="M 91.511719 441.394531 C 91.511719 447.550781 82.277344 447.550781 82.277344 441.394531 C 82.277344 435.238281 91.511719 435.238281 91.511719 441.394531 "/>
<path style=" stroke:none;fill-rule:nonzero;fill:rgb(100%,84.3%,0%);fill-opacity:1;" d="M 430.699219 427.953125 C 430.699219 434.113281 421.460938 434.113281 421.460938 427.953125 C 421.460938 421.796875 430.699219 421.796875 430.699219 427.953125 "/>
<path style=" stroke:none;fill-rule:nonzero;fill:rgb(100%,84.3%,0%);fill-opacity:1;" d="M 95.085938 419.597656 C 95.085938 425.753906 85.851562 425.753906 85.851562 419.597656 C 85.851562 413.441406 95.085938 413.441406 95.085938 419.597656 "/>
<path style=" stroke:none;fill-rule:nonzero;fill:rgb(100%,84.3%,0%);fill-opacity:1;" d="M 196.558594 437.371094 C 196.558594 443.527344 187.324219 443.527344 187.324219 437.371094 C 187.324219 431.214844 196.558594 431.214844 196.558594 437.371094 "/>
<path style=" stroke:none;fill-rule:nonzero;fill:rgb(100%,84.3%,0%);fill-opacity:1;" d="M 259.203125 445.328125 C 259.203125 451.488281 249.96875 451.488281 249.96875 445.328125 C 249.96875 439.171875 259.203125 439.171875 259.203125 445.328125 "/>
<path style=" stroke:none;fill-rule:nonzero;fill:rgb(100%,84.3%,0%);fill-opacity:1;" d="M 457.960938 220.632812 C 457.960938 226.789062 448.726562 226.789062 448.726562 220.632812 C 448.726562 214.476562 457.960938 214.476562 457.960938 220.632812 "/>
<path style=" stroke:none;fill-rule:nonzero;fill:rgb(100%,84.3%,0%);fill-opacity:1;" d="M 366.902344 458.425781 C 366.902344 464.582031 357.667969 464.582031 357.667969 458.425781 C 357.667969 452.269531 366.902344 452.269531 366.902344 458.425781 "/>
<path style=" stroke:none;fill-rule:nonzero;fill:rgb(100%,84.3%,0%);fill-opacity:1;" d="M 132.328125 431.0625 C 132.328125 437.21875 123.09375 437.21875 123.09375 431.0625 C 123.09375 424.902344 132.328125 424.902344 132.328125 431.0625 "/>
<path style=" stroke:none;fill-rule:nonzero;fill:rgb(100%,84.3%,0%);fill-opacity:1;" d="M 122.492188 444.378906 C 122.492188 450.535156 113.257812 450.535156 113.257812 444.378906 C 113.257812 438.21875 122.492188 438.21875 122.492188 444.378906 "/>
<path style=" stroke:none;fill-rule:nonzero;fill:rgb(100%,84.3%,0%);fill-opacity:1;" d="M 111.710938 442.050781 C 111.710938 448.207031 102.472656 448.207031 102.472656 442.050781 C 102.472656 435.894531 111.710938 435.894531 111.710938 442.050781 "/>
<path style=" stroke:none;fill-rule:nonzero;fill:rgb(100%,84.3%,0%);fill-opacity:1;" d="M 404.378906 428.796875 C 404.378906 434.953125 395.144531 434.953125 395.144531 428.796875 C 395.144531 422.636719 404.378906 422.636719 404.378906 428.796875 "/>
<path style=" stroke:none;fill-rule:nonzero;fill:rgb(100%,84.3%,0%);fill-opacity:1;" d="M 462.988281 367.214844 C 462.988281 373.371094 453.753906 373.371094 453.753906 367.214844 C 453.753906 361.058594 462.988281 361.058594 462.988281 367.214844 "/>
<path style=" stroke:none;fill-rule:nonzero;fill:rgb(100%,84.3%,0%);fill-opacity:1;" d="M 91.9375 429.746094 C 91.9375 435.90625 82.703125 435.90625 82.703125 429.746094 C 82.703125 423.589844 91.9375 423.589844 91.9375 429.746094 "/>
<path style=" stroke:none;fill-rule:nonzero;fill:rgb(100%,84.3%,0%);fill-opacity:1;" d="M 104.316406 124.78125 C 104.316406 130.9375 95.078125 130.9375 95.078125 124.78125 C 95.078125 118.625 104.316406 118.625 104.316406 124.78125 "/>
<path style=" stroke:none;fill-rule:nonzero;fill:rgb(100%,84.3%,0%);fill-opacity:1;" d="M 447.734375 126.632812 C 447.734375 132.789062 438.5 132.789062 438.5 126.632812 C 438.5 120.476562 447.734375 120.476562 447.734375 126.632812 "/>
<path style=" stroke:none;fill-rule:nonzero;fill:rgb(100%,84.3%,0%);fill-opacity:1;" d="M 439.777344 296.503906 C 439.777344 302.660156 430.539062 302.660156 430.539062 296.503906 C 430.539062 290.34375 439.777344 290.34375 439.777344 296.503906 "/>
<path style=" stroke:none;fill-rule:nonzero;fill:rgb(100%,84.3%,0%);fill-opacity:1;" d="M 464 186.6875 C 464 192.847656 454.765625 192.847656 454.765625 186.6875 C 454.765625 180.53125 464 180.53125 464 186.6875 "/>
<path style=" stroke:none;fill-rule:nonzero;fill:rgb(100%,84.3%,0%);fill-opacity:1;" d="M 137.710938 449.859375 C 137.710938 456.015625 128.472656 456.015625 128.472656 449.859375 C 128.472656 443.703125 137.710938 443.703125 137.710938 449.859375 "/>
<path style=" stroke:none;fill-rule:nonzero;fill:rgb(100%,84.3%,0%);fill-opacity:1;" d="M 160.632812 452.191406 C 160.632812 458.347656 151.398438 458.347656 151.398438 452.191406 C 151.398438 446.035156 160.632812 446.035156 160.632812 452.191406 "/>
<path style=" stroke:none;fill-rule:nonzero;fill:rgb(100%,84.3%,0%);fill-opacity:1;" d="M 379.675781 440.785156 C 379.675781 446.941406 370.441406 446.941406 370.441406 440.785156 C 370.441406 434.628906 379.675781 434.628906 379.675781 440.785156 "/>
<path style=" stroke:none;fill-rule:nonzero;fill:rgb(100%,84.3%,0%);fill-opacity:1;" d="M 446.992188 278.867188 C 446.992188 285.023438 437.757812 285.023438 437.757812 278.867188 C 437.757812 272.710938 446.992188 272.710938 446.992188 278.867188 "/>
<path style=" stroke:none;fill-rule:nonzero;fill:rgb(100%,84.3%,0%);fill-opacity:1;" d="M 126.761719 119.117188 C 126.761719 125.273438 117.527344 125.273438 117.527344 119.117188 C 117.527344 112.960938 126.761719 112.960938 126.761719 119.117188 "/>
<path style=" stroke:none;fill-rule:nonzero;fill:rgb(100%,84.3%,0%);fill-opacity:1;" d="M 102.933594 426.25 C 102.933594 432.40625 93.699219 432.40625 93.699219 426.25 C 93.699219 420.09375 102.933594 420.09375 102.933594 426.25 "/>
<path style=" stroke:none;fill-rule:nonzero;fill:rgb(100%,84.3%,0%);fill-opacity:1;" d="M 61.207031 170.394531 C 61.207031 176.554688 51.972656 176.554688 51.972656 170.394531 C 51.972656 164.238281 61.207031 164.238281 61.207031 170.394531 "/>
<path style=" stroke:none;fill-rule:nonzero;fill:rgb(100%,84.3%,0%);fill-opacity:1;" d="M 172.964844 439.707031 C 172.964844 445.863281 163.730469 445.863281 163.730469 439.707031 C 163.730469 433.550781 172.964844 433.550781 172.964844 439.707031 "/>
<path style=" stroke:none;fill-rule:nonzero;fill:rgb(100%,84.3%,0%);fill-opacity:1;" d="M 354.289062 450.773438 C 354.289062 456.933594 345.054688 456.933594 345.054688 450.773438 C 345.054688 444.617188 354.289062 444.617188 354.289062 450.773438 "/>
<path style=" stroke:none;fill-rule:nonzero;fill:rgb(100%,84.3%,0%);fill-opacity:1;" d="M 390.199219 429.464844 C 390.199219 435.621094 380.964844 435.621094 380.964844 429.464844 C 380.964844 423.308594 390.199219 423.308594 390.199219 429.464844 "/>
<path style=" stroke:none;fill-rule:nonzero;fill:rgb(100%,84.3%,0%);fill-opacity:1;" d="M 225.285156 446.675781 C 225.285156 452.832031 216.050781 452.832031 216.050781 446.675781 C 216.050781 440.515625 225.285156 440.515625 225.285156 446.675781 "/>
<path style=" stroke:none;fill-rule:nonzero;fill:rgb(100%,84.3%,0%);fill-opacity:1;" d="M 459.070312 210.980469 C 459.070312 217.136719 449.835938 217.136719 449.835938 210.980469 C 449.835938 204.824219 459.070312 204.824219 459.070312 210.980469 "/>
<path style=" stroke:none;fill-rule:nonzero;fill:rgb(100%,84.3%,0%);fill-opacity:1;" d="M 343.503906 448.449219 C 343.503906 454.605469 334.269531 454.605469 334.269531 448.449219 C 334.269531 442.292969 343.503906 442.292969 343.503906 448.449219 "/>
<path style=" stroke:none;fill-rule:nonzero;fill:rgb(100%,84.3%,0%);fill-opacity:1;" d="M 366.167969 436.960938 C 366.167969 443.117188 356.929688 443.117188 356.929688 436.960938 C 356.929688 430.804688 366.167969 430.804688 366.167969 436.960938 "/>
<path style=" stroke:none;fill-rule:nonzero;fill:rgb(100%,84.3%,0%);fill-opacity:1;" d="M 392.613281 397.851562 C 392.613281 404.007812 383.378906 404.007812 383.378906 397.851562 C 383.378906 391.695312 392.613281 391.695312 392.613281 397.851562 "/>
<path style=" stroke:none;fill-rule:nonzero;fill:rgb(100%,84.3%,0%);fill-opacity:1;" d="M 441.425781 320.628906 C 441.425781 326.785156 432.191406 326.785156 432.191406 320.628906 C 432.191406 314.472656 441.425781 314.472656 441.425781 320.628906 "/>
<path style=" stroke:none;fill-rule:nonzero;fill:rgb(100%,84.3%,0%);fill-opacity:1;" d="M 463.359375 245.917969 C 463.359375 252.074219 454.121094 252.074219 454.121094 245.917969 C 454.121094 239.761719 463.359375 239.761719 463.359375 245.917969 "/>
<path style=" stroke:none;fill-rule:nonzero;fill:rgb(100%,84.3%,0%);fill-opacity:1;" d="M 122.917969 432.730469 C 122.917969 438.886719 113.679688 438.886719 113.679688 432.730469 C 113.679688 426.574219 122.917969 426.574219 122.917969 432.730469 "/>
<path style=" stroke:none;fill-rule:nonzero;fill:rgb(100%,84.3%,0%);fill-opacity:1;" d="M 216.296875 436.695312 C 216.296875 442.851562 207.0625 442.851562 207.0625 436.695312 C 207.0625 430.539062 216.296875 430.539062 216.296875 436.695312 "/>
<path style=" stroke:none;fill-rule:nonzero;fill:rgb(100%,84.3%,0%);fill-opacity:1;" d="M 58.515625 181.878906 C 58.515625 188.035156 49.28125 188.035156 49.28125 181.878906 C 49.28125 175.71875 58.515625 175.71875 58.515625 181.878906 "/>
<path style=" stroke:none;fill-rule:nonzero;fill:rgb(100%,84.3%,0%);fill-opacity:1;" d="M 450.082031 332.945312 C 450.082031 339.101562 440.84375 339.101562 440.84375 332.945312 C 440.84375 326.789062 450.082031 326.789062 450.082031 332.945312 "/>
<path style=" stroke:none;fill-rule:nonzero;fill:rgb(100%,84.3%,0%);fill-opacity:1;" d="M 235.382812 447.003906 C 235.382812 453.160156 226.148438 453.160156 226.148438 447.003906 C 226.148438 440.84375 235.382812 440.84375 235.382812 447.003906 "/>
<path style=" stroke:none;fill-rule:nonzero;fill:rgb(100%,84.3%,0%);fill-opacity:1;" d="M 426.832031 381.371094 C 426.832031 387.527344 417.597656 387.527344 417.597656 381.371094 C 417.597656 375.214844 426.832031 375.214844 426.832031 381.371094 "/>
<path style=" stroke:none;fill-rule:nonzero;fill:rgb(100%,84.3%,0%);fill-opacity:1;" d="M 79.351562 123.304688 C 79.351562 129.460938 70.117188 129.460938 70.117188 123.304688 C 70.117188 117.148438 79.351562 117.148438 79.351562 123.304688 "/>
<path style=" stroke:none;fill-rule:nonzero;fill:rgb(100%,84.3%,0%);fill-opacity:1;" d="M 148.984375 112.785156 C 148.984375 118.941406 139.75 118.941406 139.75 112.785156 C 139.75 106.628906 148.984375 106.628906 148.984375 112.785156 "/>
<path style=" stroke:none;fill-rule:nonzero;fill:rgb(100%,84.3%,0%);fill-opacity:1;" d="M 379.628906 421.316406 C 379.628906 427.472656 370.390625 427.472656 370.390625 421.316406 C 370.390625 415.160156 379.628906 415.160156 379.628906 421.316406 "/>
<path style=" stroke:none;fill-rule:nonzero;fill:rgb(100%,84.3%,0%);fill-opacity:1;" d="M 363.703125 449.105469 C 363.703125 455.265625 354.464844 455.265625 354.464844 449.105469 C 354.464844 442.949219 363.703125 442.949219 363.703125 449.105469 "/>
<path style=" stroke:none;fill-rule:nonzero;fill:rgb(100%,84.3%,0%);fill-opacity:1;" d="M 83.160156 413.945312 C 83.160156 420.101562 73.925781 420.101562 73.925781 413.945312 C 73.925781 407.789062 83.160156 407.789062 83.160156 413.945312 "/>
<path style=" stroke:none;fill-rule:nonzero;fill:rgb(100%,84.3%,0%);fill-opacity:1;" d="M 330.699219 453.113281 C 330.699219 459.269531 321.460938 459.269531 321.460938 453.113281 C 321.460938 446.957031 330.699219 446.957031 330.699219 453.113281 "/>
<path style=" stroke:none;fill-rule:nonzero;fill:rgb(100%,84.3%,0%);fill-opacity:1;" d="M 460.894531 258.0625 C 460.894531 264.222656 451.65625 264.222656 451.65625 258.0625 C 451.65625 251.90625 460.894531 251.90625 460.894531 258.0625 "/>
<path style=" stroke:none;fill-rule:nonzero;fill:rgb(100%,84.3%,0%);fill-opacity:1;" d="M 205.285156 433.703125 C 205.285156 439.863281 196.050781 439.863281 196.050781 433.703125 C 196.050781 427.546875 205.285156 427.546875 205.285156 433.703125 "/>
<path style=" stroke:none;fill-rule:nonzero;fill:rgb(100%,84.3%,0%);fill-opacity:1;" d="M 184.175781 430.386719 C 184.175781 436.542969 174.9375 436.542969 174.9375 430.386719 C 174.9375 424.230469 184.175781 424.230469 184.175781 430.386719 "/>
<path style=" stroke:none;fill-rule:nonzero;fill:rgb(100%,84.3%,0%);fill-opacity:1;" d="M 436.414062 312.476562 C 436.414062 318.632812 427.179688 318.632812 427.179688 312.476562 C 427.179688 306.316406 436.414062 306.316406 436.414062 312.476562 "/>
<path style=" stroke:none;fill-rule:nonzero;fill:rgb(100%,84.3%,0%);fill-opacity:1;" d="M 195.398438 427.554688 C 195.398438 433.710938 186.164062 433.710938 186.164062 427.554688 C 186.164062 421.394531 195.398438 421.394531 195.398438 427.554688 "/>
<path style=" stroke:none;fill-rule:nonzero;fill:rgb(100%,84.3%,0%);fill-opacity:1;" d="M 368.175781 423.484375 C 368.175781 429.640625 358.9375 429.640625 358.9375 423.484375 C 358.9375 417.328125 368.175781 417.328125 368.175781 423.484375 "/>
<path style=" stroke:none;fill-rule:nonzero;fill:rgb(100%,84.3%,0%);fill-opacity:1;" d="M 437.546875 267.554688 C 437.546875 273.710938 428.308594 273.710938 428.308594 267.554688 C 428.308594 261.398438 437.546875 261.398438 437.546875 267.554688 "/>
<path style=" stroke:none;fill-rule:nonzero;fill:rgb(100%,84.3%,0%);fill-opacity:1;" d="M 454.808594 230.78125 C 454.808594 236.9375 445.574219 236.9375 445.574219 230.78125 C 445.574219 224.625 454.808594 224.625 454.808594 230.78125 "/>
<path style=" stroke:none;fill-rule:nonzero;fill:rgb(100%,84.3%,0%);fill-opacity:1;" d="M 464.464844 236.265625 C 464.464844 242.421875 455.230469 242.421875 455.230469 236.265625 C 455.230469 230.109375 464.464844 230.109375 464.464844 236.265625 "/>
<path style=" stroke:none;fill-rule:nonzero;fill:rgb(100%,84.3%,0%);fill-opacity:1;" d="M 429.851562 187.367188 C 429.851562 193.523438 420.617188 193.523438 420.617188 187.367188 C 420.617188 181.210938 429.851562 181.210938 429.851562 187.367188 "/>
<path style=" stroke:none;fill-rule:nonzero;fill:rgb(100%,84.3%,0%);fill-opacity:1;" d="M 374.113281 128.839844 C 374.113281 134.996094 364.875 134.996094 364.875 128.839844 C 364.875 122.679688 374.113281 122.679688 374.113281 128.839844 "/>
<path style=" stroke:none;fill-rule:nonzero;fill:rgb(100%,84.3%,0%);fill-opacity:1;" d="M 354.484375 438.460938 C 354.484375 444.617188 345.25 444.617188 345.25 438.460938 C 345.25 432.304688 354.484375 432.304688 354.484375 438.460938 "/>
<path style=" stroke:none;fill-rule:nonzero;fill:rgb(100%,84.3%,0%);fill-opacity:1;" d="M 430.832031 347.75 C 430.832031 353.90625 421.597656 353.90625 421.597656 347.75 C 421.597656 341.59375 430.832031 341.59375 430.832031 347.75 "/>
<path style=" stroke:none;fill-rule:nonzero;fill:rgb(100%,84.3%,0%);fill-opacity:1;" d="M 334.273438 431.316406 C 334.273438 437.472656 325.039062 437.472656 325.039062 431.316406 C 325.039062 425.160156 334.273438 425.160156 334.273438 431.316406 "/>
<path style=" stroke:none;fill-rule:nonzero;fill:rgb(100%,84.3%,0%);fill-opacity:1;" d="M 322.152344 437.976562 C 322.152344 444.132812 312.914062 444.132812 312.914062 437.976562 C 312.914062 431.820312 322.152344 431.820312 322.152344 437.976562 "/>
<path style=" stroke:none;fill-rule:nonzero;fill:rgb(100%,84.3%,0%);fill-opacity:1;" d="M 159.3125 113.777344 C 159.3125 119.933594 150.074219 119.933594 150.074219 113.777344 C 150.074219 107.621094 159.3125 107.621094 159.3125 113.777344 "/>
<path style=" stroke:none;fill-rule:nonzero;fill:rgb(100%,84.3%,0%);fill-opacity:1;" d="M 62.050781 410.628906 C 62.050781 416.785156 52.816406 416.785156 52.816406 410.628906 C 52.816406 404.46875 62.050781 404.46875 62.050781 410.628906 "/>
<path style=" stroke:none;fill-rule:nonzero;fill:rgb(100%,84.3%,0%);fill-opacity:1;" d="M 446.386719 309.316406 C 446.386719 315.472656 437.152344 315.472656 437.152344 309.316406 C 437.152344 303.160156 446.386719 303.160156 446.386719 309.316406 "/>
<path style=" stroke:none;fill-rule:nonzero;fill:rgb(100%,84.3%,0%);fill-opacity:1;" d="M 307.792969 457.449219 C 307.792969 463.605469 298.554688 463.605469 298.554688 457.449219 C 298.554688 451.292969 307.792969 451.292969 307.792969 457.449219 "/>
<path style=" stroke:none;fill-rule:nonzero;fill:rgb(100%,84.3%,0%);fill-opacity:1;" d="M 169.636719 114.773438 C 169.636719 120.929688 160.402344 120.929688 160.402344 114.773438 C 160.402344 108.613281 169.636719 108.613281 169.636719 114.773438 "/>
<path style=" stroke:none;fill-rule:nonzero;fill:rgb(100%,84.3%,0%);fill-opacity:1;" d="M 160.828125 439.878906 C 160.828125 446.035156 151.59375 446.035156 151.59375 439.878906 C 151.59375 433.722656 160.828125 433.722656 160.828125 439.878906 "/>
<path style=" stroke:none;fill-rule:nonzero;fill:rgb(100%,84.3%,0%);fill-opacity:1;" d="M 133.878906 416.253906 C 133.878906 422.410156 124.644531 422.410156 124.644531 416.253906 C 124.644531 410.097656 133.878906 410.097656 133.878906 416.253906 "/>
<path style=" stroke:none;fill-rule:nonzero;fill:rgb(100%,84.3%,0%);fill-opacity:1;" d="M 268.59375 125.042969 C 268.59375 131.199219 259.355469 131.199219 259.355469 125.042969 C 259.355469 118.886719 268.59375 118.886719 268.59375 125.042969 "/>
<path style=" stroke:none;fill-rule:nonzero;fill:rgb(100%,84.3%,0%);fill-opacity:1;" d="M 429.792969 119.832031 C 429.792969 125.988281 420.558594 125.988281 420.558594 119.832031 C 420.558594 113.675781 429.792969 113.675781 429.792969 119.832031 "/>
<path style=" stroke:none;fill-rule:nonzero;fill:rgb(100%,84.3%,0%);fill-opacity:1;" d="M 236.265625 436.6875 C 236.265625 442.84375 227.03125 442.84375 227.03125 436.6875 C 227.03125 430.527344 236.265625 430.527344 236.265625 436.6875 "/>
<path style=" stroke:none;fill-rule:nonzero;fill:rgb(100%,84.3%,0%);fill-opacity:1;" d="M 339.898438 457.269531 C 339.898438 463.425781 330.664062 463.425781 330.664062 457.269531 C 330.664062 451.109375 339.898438 451.109375 339.898438 457.269531 "/>
<path style=" stroke:none;fill-rule:nonzero;fill:rgb(100%,84.3%,0%);fill-opacity:1;" d="M 179.964844 115.765625 C 179.964844 121.921875 170.726562 121.921875 170.726562 115.765625 C 170.726562 109.609375 179.964844 109.609375 179.964844 115.765625 "/>
<path style=" stroke:none;fill-rule:nonzero;fill:rgb(100%,84.3%,0%);fill-opacity:1;" d="M 73.046875 407.128906 C 73.046875 413.285156 63.8125 413.285156 63.8125 407.128906 C 63.8125 400.972656 73.046875 400.972656 73.046875 407.128906 "/>
<path style=" stroke:none;fill-rule:nonzero;fill:rgb(100%,84.3%,0%);fill-opacity:1;" d="M 190.289062 116.761719 C 190.289062 122.917969 181.054688 122.917969 181.054688 116.761719 C 181.054688 110.601562 190.289062 110.601562 190.289062 116.761719 "/>
<path style=" stroke:none;fill-rule:nonzero;fill:rgb(100%,84.3%,0%);fill-opacity:1;" d="M 225.710938 435.027344 C 225.710938 441.183594 216.472656 441.183594 216.472656 435.027344 C 216.472656 428.871094 225.710938 428.871094 225.710938 435.027344 "/>
<path style=" stroke:none;fill-rule:nonzero;fill:rgb(100%,84.3%,0%);fill-opacity:1;" d="M 422.042969 283.699219 C 422.042969 289.855469 412.808594 289.855469 412.808594 283.699219 C 412.808594 277.542969 422.042969 277.542969 422.042969 283.699219 "/>
<path style=" stroke:none;fill-rule:nonzero;fill:rgb(100%,84.3%,0%);fill-opacity:1;" d="M 408.78125 287.03125 C 408.78125 293.1875 399.542969 293.1875 399.542969 287.03125 C 399.542969 280.875 408.78125 280.875 408.78125 287.03125 "/>
<path style=" stroke:none;fill-rule:nonzero;fill:rgb(100%,84.3%,0%);fill-opacity:1;" d="M 399.484375 112.355469 C 399.484375 118.515625 390.246094 118.515625 390.246094 112.355469 C 390.246094 106.199219 399.484375 106.199219 399.484375 112.355469 "/>
<path style=" stroke:none;fill-rule:nonzero;fill:rgb(100%,84.3%,0%);fill-opacity:1;" d="M 146.910156 454.191406 C 146.910156 460.347656 137.675781 460.347656 137.675781 454.191406 C 137.675781 448.035156 146.910156 448.035156 146.910156 454.191406 "/>
<path style=" stroke:none;fill-rule:nonzero;fill:rgb(100%,84.3%,0%);fill-opacity:1;" d="M 391.734375 408.167969 C 391.734375 414.324219 382.496094 414.324219 382.496094 408.167969 C 382.496094 402.011719 391.734375 402.011719 391.734375 408.167969 "/>
<path style=" stroke:none;fill-rule:nonzero;fill:rgb(100%,84.3%,0%);fill-opacity:1;" d="M 355.59375 428.8125 C 355.59375 434.96875 346.359375 434.96875 346.359375 428.8125 C 346.359375 422.65625 355.59375 422.65625 355.59375 428.8125 "/>
<path style=" stroke:none;fill-rule:nonzero;fill:rgb(100%,84.3%,0%);fill-opacity:1;" d="M 103.585938 415.269531 C 103.585938 421.425781 94.351562 421.425781 94.351562 415.269531 C 94.351562 409.109375 103.585938 409.109375 103.585938 415.269531 "/>
<path style=" stroke:none;fill-rule:nonzero;fill:rgb(100%,84.3%,0%);fill-opacity:1;" d="M 376.476562 431.464844 C 376.476562 437.621094 367.242188 437.621094 367.242188 431.464844 C 367.242188 425.308594 376.476562 425.308594 376.476562 431.464844 "/>
<path style=" stroke:none;fill-rule:nonzero;fill:rgb(100%,84.3%,0%);fill-opacity:1;" d="M 361.957031 122.519531 C 361.957031 128.675781 352.722656 128.675781 352.722656 122.519531 C 352.722656 116.363281 361.957031 116.363281 361.957031 122.519531 "/>
<path style=" stroke:none;fill-rule:nonzero;fill:rgb(100%,84.3%,0%);fill-opacity:1;" d="M 428.082031 249.757812 C 428.082031 255.914062 418.847656 255.914062 418.847656 249.757812 C 418.847656 243.601562 428.082031 243.601562 428.082031 249.757812 "/>
<path style=" stroke:none;fill-rule:nonzero;fill:rgb(100%,84.3%,0%);fill-opacity:1;" d="M 380.28125 410.335938 C 380.28125 416.492188 371.042969 416.492188 371.042969 410.335938 C 371.042969 404.175781 380.28125 404.175781 380.28125 410.335938 "/>
<path style=" stroke:none;fill-rule:nonzero;fill:rgb(100%,84.3%,0%);fill-opacity:1;" d="M 196.28125 417.238281 C 196.28125 423.394531 187.046875 423.394531 187.046875 417.238281 C 187.046875 411.082031 196.28125 411.082031 196.28125 417.238281 "/>
<path style=" stroke:none;fill-rule:nonzero;fill:rgb(100%,84.3%,0%);fill-opacity:1;" d="M 200.617188 117.753906 C 200.617188 123.910156 191.382812 123.910156 191.382812 117.753906 C 191.382812 111.597656 200.617188 111.597656 200.617188 117.753906 "/>
<path style=" stroke:none;fill-rule:nonzero;fill:rgb(100%,84.3%,0%);fill-opacity:1;" d="M 56.660156 121.816406 C 56.660156 127.972656 47.421875 127.972656 47.421875 121.816406 C 47.421875 115.660156 56.660156 115.660156 56.660156 121.816406 "/>
<path style=" stroke:none;fill-rule:nonzero;fill:rgb(100%,84.3%,0%);fill-opacity:1;" d="M 461.320312 114.652344 C 461.320312 120.8125 452.082031 120.8125 452.082031 114.652344 C 452.082031 108.496094 461.320312 108.496094 461.320312 114.652344 "/>
<path style=" stroke:none;fill-rule:nonzero;fill:rgb(100%,84.3%,0%);fill-opacity:1;" d="M 172.476562 425.398438 C 172.476562 431.554688 163.242188 431.554688 163.242188 425.398438 C 163.242188 419.242188 172.476562 419.242188 172.476562 425.398438 "/>
<path style=" stroke:none;fill-rule:nonzero;fill:rgb(100%,84.3%,0%);fill-opacity:1;" d="M 154.820312 132.910156 C 154.820312 139.070312 145.585938 139.070312 145.585938 132.910156 C 145.585938 126.753906 154.820312 126.753906 154.820312 132.910156 "/>
<path style=" stroke:none;fill-rule:nonzero;fill:rgb(100%,84.3%,0%);fill-opacity:1;" d="M 142.699219 139.570312 C 142.699219 145.730469 133.464844 145.730469 133.464844 139.570312 C 133.464844 133.414062 142.699219 133.414062 142.699219 139.570312 "/>
<path style=" stroke:none;fill-rule:nonzero;fill:rgb(100%,84.3%,0%);fill-opacity:1;" d="M 318.558594 453.285156 C 318.558594 459.441406 309.324219 459.441406 309.324219 453.285156 C 309.324219 447.128906 318.558594 447.128906 318.558594 453.285156 "/>
<path style=" stroke:none;fill-rule:nonzero;fill:rgb(100%,84.3%,0%);fill-opacity:1;" d="M 65.453125 233.933594 C 65.453125 240.089844 56.21875 240.089844 56.21875 233.933594 C 56.21875 227.777344 65.453125 227.777344 65.453125 233.933594 "/>
<path style=" stroke:none;fill-rule:nonzero;fill:rgb(100%,84.3%,0%);fill-opacity:1;" d="M 62.320312 250.570312 C 62.320312 256.726562 53.085938 256.726562 53.085938 250.570312 C 53.085938 244.414062 62.320312 244.414062 62.320312 250.570312 "/>
<path style=" stroke:none;fill-rule:nonzero;fill:rgb(100%,84.3%,0%);fill-opacity:1;" d="M 115.066406 114.308594 C 115.066406 120.464844 105.832031 120.464844 105.832031 114.308594 C 105.832031 108.148438 115.066406 108.148438 115.066406 114.308594 "/>
<path style=" stroke:none;fill-rule:nonzero;fill:rgb(100%,84.3%,0%);fill-opacity:1;" d="M 421.78125 270.054688 C 421.78125 276.210938 412.546875 276.210938 412.546875 270.054688 C 412.546875 263.898438 421.78125 263.898438 421.78125 270.054688 "/>
<path style=" stroke:none;fill-rule:nonzero;fill:rgb(100%,84.3%,0%);fill-opacity:1;" d="M 461.828125 357.398438 C 461.828125 363.554688 452.59375 363.554688 452.59375 357.398438 C 452.59375 351.242188 461.828125 351.242188 461.828125 357.398438 "/>
<path style=" stroke:none;fill-rule:nonzero;fill:rgb(100%,84.3%,0%);fill-opacity:1;" d="M 112.117188 423.914062 C 112.117188 430.070312 102.882812 430.070312 102.882812 423.914062 C 102.882812 417.757812 112.117188 417.757812 112.117188 423.914062 "/>
<path style=" stroke:none;fill-rule:nonzero;fill:rgb(100%,84.3%,0%);fill-opacity:1;" d="M 275.40625 437.492188 C 275.40625 443.652344 266.171875 443.652344 266.171875 437.492188 C 266.171875 431.335938 275.40625 431.335938 275.40625 437.492188 "/>
<path style=" stroke:none;fill-rule:nonzero;fill:rgb(100%,84.3%,0%);fill-opacity:1;" d="M 114.351562 411.105469 C 114.351562 417.261719 105.117188 417.261719 105.117188 411.105469 C 105.117188 404.945312 114.351562 404.945312 114.351562 411.105469 "/>
<path style=" stroke:none;fill-rule:nonzero;fill:rgb(100%,84.3%,0%);fill-opacity:1;" d="M 311.222656 113.722656 C 311.222656 119.878906 301.988281 119.878906 301.988281 113.722656 C 301.988281 107.566406 311.222656 107.566406 311.222656 113.722656 "/>
<path style=" stroke:none;fill-rule:nonzero;fill:rgb(100%,84.3%,0%);fill-opacity:1;" d="M 434.167969 277.039062 C 434.167969 283.195312 424.929688 283.195312 424.929688 277.039062 C 424.929688 270.882812 434.167969 270.882812 434.167969 277.039062 "/>
<path style=" stroke:none;fill-rule:nonzero;fill:rgb(100%,84.3%,0%);fill-opacity:1;" d="M 401.832031 408.496094 C 401.832031 414.652344 392.59375 414.652344 392.59375 408.496094 C 392.59375 402.339844 401.832031 402.339844 401.832031 408.496094 "/>
<path style=" stroke:none;fill-rule:nonzero;fill:rgb(100%,84.3%,0%);fill-opacity:1;" d="M 348.460938 125.1875 C 348.460938 131.34375 339.226562 131.34375 339.226562 125.1875 C 339.226562 119.027344 348.460938 119.027344 348.460938 125.1875 "/>
<path style=" stroke:none;fill-rule:nonzero;fill:rgb(100%,84.3%,0%);fill-opacity:1;" d="M 76.164062 384 C 76.164062 390.15625 66.929688 390.15625 66.929688 384 C 66.929688 377.84375 76.164062 377.84375 76.164062 384 "/>
<path style=" stroke:none;fill-rule:nonzero;fill:rgb(100%,84.3%,0%);fill-opacity:1;" d="M 251.972656 456.476562 C 251.972656 462.632812 242.738281 462.632812 242.738281 456.476562 C 242.738281 450.320312 251.972656 450.320312 251.972656 456.476562 "/>
<path style=" stroke:none;fill-rule:nonzero;fill:rgb(100%,84.3%,0%);fill-opacity:1;" d="M 282.511719 464.617188 C 282.511719 470.773438 273.277344 470.773438 273.277344 464.617188 C 273.277344 458.460938 282.511719 458.460938 282.511719 464.617188 "/>
<path style=" stroke:none;fill-rule:nonzero;fill:rgb(100%,84.3%,0%);fill-opacity:1;" d="M 272.625 458.464844 C 272.625 464.621094 263.390625 464.621094 263.390625 458.464844 C 263.390625 452.308594 272.625 452.308594 272.625 458.464844 "/>
<path style=" stroke:none;fill-rule:nonzero;fill:rgb(100%,84.3%,0%);fill-opacity:1;" d="M 438.851562 245.59375 C 438.851562 251.75 429.617188 251.75 429.617188 245.59375 C 429.617188 239.4375 438.851562 239.4375 438.851562 245.59375 "/>
<path style=" stroke:none;fill-rule:nonzero;fill:rgb(100%,84.3%,0%);fill-opacity:1;" d="M 429.863281 235.613281 C 429.863281 241.769531 420.628906 241.769531 420.628906 235.613281 C 420.628906 229.457031 429.863281 229.457031 429.863281 235.613281 "/>
<path style=" stroke:none;fill-rule:nonzero;fill:rgb(100%,84.3%,0%);fill-opacity:1;" d="M 182.785156 419.902344 C 182.785156 426.058594 173.550781 426.058594 173.550781 419.902344 C 173.550781 413.746094 182.785156 413.746094 182.785156 419.902344 "/>
<path style=" stroke:none;fill-rule:nonzero;fill:rgb(100%,84.3%,0%);fill-opacity:1;" d="M 64.042969 390.660156 C 64.042969 396.816406 54.804688 396.816406 54.804688 390.660156 C 54.804688 384.503906 64.042969 384.503906 64.042969 390.660156 "/>
<path style=" stroke:none;fill-rule:nonzero;fill:rgb(100%,84.3%,0%);fill-opacity:1;" d="M 368.828125 412.503906 C 368.828125 418.660156 359.589844 418.660156 359.589844 412.503906 C 359.589844 406.34375 368.828125 406.34375 368.828125 412.503906 "/>
<path style=" stroke:none;fill-rule:nonzero;fill:rgb(100%,84.3%,0%);fill-opacity:1;" d="M 93.011719 407.117188 C 93.011719 413.277344 83.777344 413.277344 83.777344 407.117188 C 83.777344 400.960938 93.011719 400.960938 93.011719 407.117188 "/>
<path style=" stroke:none;fill-rule:nonzero;fill:rgb(100%,84.3%,0%);fill-opacity:1;" d="M 375.820312 352.261719 C 375.820312 358.417969 366.585938 358.417969 366.585938 352.261719 C 366.585938 346.105469 375.820312 346.105469 375.820312 352.261719 "/>
<path style=" stroke:none;fill-rule:nonzero;fill:rgb(100%,84.3%,0%);fill-opacity:1;" d="M 430.59375 298.835938 C 430.59375 304.992188 421.355469 304.992188 421.355469 298.835938 C 421.355469 292.679688 430.59375 292.679688 430.59375 298.835938 "/>
<path style=" stroke:none;fill-rule:nonzero;fill:rgb(100%,84.3%,0%);fill-opacity:1;" d="M 214.222656 424.214844 C 214.222656 430.371094 204.988281 430.371094 204.988281 424.214844 C 204.988281 418.058594 214.222656 418.058594 214.222656 424.214844 "/>
<path style=" stroke:none;fill-rule:nonzero;fill:rgb(100%,84.3%,0%);fill-opacity:1;" d="M 335.269531 112.71875 C 335.269531 118.875 326.035156 118.875 326.035156 112.71875 C 326.035156 106.558594 335.269531 106.558594 335.269531 112.71875 "/>
<path style=" stroke:none;fill-rule:nonzero;fill:rgb(100%,84.3%,0%);fill-opacity:1;" d="M 67.617188 368.863281 C 67.617188 375.019531 58.378906 375.019531 58.378906 368.863281 C 58.378906 362.707031 67.617188 362.707031 67.617188 368.863281 "/>
<path style=" stroke:none;fill-rule:nonzero;fill:rgb(100%,84.3%,0%);fill-opacity:1;" d="M 57.0625 367.203125 C 57.0625 373.359375 47.824219 373.359375 47.824219 367.203125 C 47.824219 361.046875 57.0625 361.046875 57.0625 367.203125 "/>
<path style=" stroke:none;fill-rule:nonzero;fill:rgb(100%,84.3%,0%);fill-opacity:1;" d="M 261.839844 456.140625 C 261.839844 462.296875 252.605469 462.296875 252.605469 456.140625 C 252.605469 449.984375 261.839844 449.984375 261.839844 456.140625 "/>
<path style=" stroke:none;fill-rule:nonzero;fill:rgb(100%,84.3%,0%);fill-opacity:1;" d="M 449.742188 113.332031 C 449.742188 119.488281 440.507812 119.488281 440.507812 113.332031 C 440.507812 107.175781 449.742188 107.175781 449.742188 113.332031 "/>
<path style=" stroke:none;fill-rule:nonzero;fill:rgb(100%,84.3%,0%);fill-opacity:1;" d="M 440.429688 285.519531 C 440.429688 291.679688 431.195312 291.679688 431.195312 285.519531 C 431.195312 279.363281 440.429688 279.363281 440.429688 285.519531 "/>
<path style=" stroke:none;fill-rule:nonzero;fill:rgb(100%,84.3%,0%);fill-opacity:1;" d="M 134.347656 112.300781 C 134.347656 118.457031 125.113281 118.457031 125.113281 112.300781 C 125.113281 106.144531 134.347656 106.144531 134.347656 112.300781 "/>
<path style=" stroke:none;fill-rule:nonzero;fill:rgb(100%,84.3%,0%);fill-opacity:1;" d="M 123.324219 414.59375 C 123.324219 420.75 114.089844 420.75 114.089844 414.59375 C 114.089844 408.4375 123.324219 408.4375 123.324219 414.59375 "/>
<path style=" stroke:none;fill-rule:nonzero;fill:rgb(100%,84.3%,0%);fill-opacity:1;" d="M 449.457031 266.71875 C 449.457031 272.875 440.222656 272.875 440.222656 266.71875 C 440.222656 260.5625 449.457031 260.5625 449.457031 266.71875 "/>
<path style=" stroke:none;fill-rule:nonzero;fill:rgb(100%,84.3%,0%);fill-opacity:1;" d="M 356.703125 419.160156 C 356.703125 425.316406 347.46875 425.316406 347.46875 419.160156 C 347.46875 413.003906 356.703125 413.003906 356.703125 419.160156 "/>
<path style=" stroke:none;fill-rule:nonzero;fill:rgb(100%,84.3%,0%);fill-opacity:1;" d="M 379.742188 113.03125 C 379.742188 119.1875 370.507812 119.1875 370.507812 113.03125 C 370.507812 106.875 379.742188 106.875 379.742188 113.03125 "/>
<path style=" stroke:none;fill-rule:nonzero;fill:rgb(100%,84.3%,0%);fill-opacity:1;" d="M 443.878906 392.179688 C 443.878906 398.335938 434.644531 398.335938 434.644531 392.179688 C 434.644531 386.019531 443.878906 386.019531 443.878906 392.179688 "/>
<path style=" stroke:none;fill-rule:nonzero;fill:rgb(100%,84.3%,0%);fill-opacity:1;" d="M 323.359375 113.554688 C 323.359375 119.710938 314.125 119.710938 314.125 113.554688 C 314.125 107.394531 323.359375 107.394531 323.359375 113.554688 "/>
<path style=" stroke:none;fill-rule:nonzero;fill:rgb(100%,84.3%,0%);fill-opacity:1;" d="M 227.777344 135.378906 C 227.777344 141.535156 218.542969 141.535156 218.542969 135.378906 C 218.542969 129.21875 227.777344 129.21875 227.777344 135.378906 "/>
<path style=" stroke:none;fill-rule:nonzero;fill:rgb(100%,84.3%,0%);fill-opacity:1;" d="M 417.398438 418.308594 C 417.398438 424.464844 408.164062 424.464844 408.164062 418.308594 C 408.164062 412.152344 417.398438 412.152344 417.398438 418.308594 "/>
<path style=" stroke:none;fill-rule:nonzero;fill:rgb(100%,84.3%,0%);fill-opacity:1;" d="M 71.90625 140.273438 C 71.90625 146.433594 62.671875 146.433594 62.671875 140.273438 C 62.671875 134.117188 71.90625 134.117188 71.90625 140.273438 "/>
<path style=" stroke:none;fill-rule:nonzero;fill:rgb(100%,84.3%,0%);fill-opacity:1;" d="M 223.863281 423.214844 C 223.863281 429.371094 214.628906 429.371094 214.628906 423.214844 C 214.628906 417.054688 223.863281 417.054688 223.863281 423.214844 "/>
<path style=" stroke:none;fill-rule:nonzero;fill:rgb(100%,84.3%,0%);fill-opacity:1;" d="M 289.128906 435.492188 C 289.128906 441.648438 279.894531 441.648438 279.894531 435.492188 C 279.894531 429.335938 289.128906 429.335938 289.128906 435.492188 "/>
<path style=" stroke:none;fill-rule:nonzero;fill:rgb(100%,84.3%,0%);fill-opacity:1;" d="M 145.734375 437.886719 C 145.734375 444.042969 136.5 444.042969 136.5 437.886719 C 136.5 431.726562 145.734375 431.726562 145.734375 437.886719 "/>
<path style=" stroke:none;fill-rule:nonzero;fill:rgb(100%,84.3%,0%);fill-opacity:1;" d="M 103.78125 402.953125 C 103.78125 409.113281 94.546875 409.113281 94.546875 402.953125 C 94.546875 396.796875 103.78125 396.796875 103.78125 402.953125 "/>
<path style=" stroke:none;fill-rule:nonzero;fill:rgb(100%,84.3%,0%);fill-opacity:1;" d="M 141.742188 429.394531 C 141.742188 435.550781 132.507812 435.550781 132.507812 429.394531 C 132.507812 423.234375 141.742188 423.234375 141.742188 429.394531 "/>
<path style=" stroke:none;fill-rule:nonzero;fill:rgb(100%,84.3%,0%);fill-opacity:1;" d="M 451.070312 409.808594 C 451.070312 415.96875 441.835938 415.96875 441.835938 409.808594 C 441.835938 403.652344 451.070312 403.652344 451.070312 409.808594 "/>
<path style=" stroke:none;fill-rule:nonzero;fill:rgb(100%,84.3%,0%);fill-opacity:1;" d="M 425.207031 321.796875 C 425.207031 327.953125 415.96875 327.953125 415.96875 321.796875 C 415.96875 315.640625 425.207031 315.640625 425.207031 321.796875 "/>
<path style=" stroke:none;fill-rule:nonzero;fill:rgb(100%,84.3%,0%);fill-opacity:1;" d="M 418.785156 428.792969 C 418.785156 434.949219 409.550781 434.949219 409.550781 428.792969 C 409.550781 422.636719 418.785156 422.636719 418.785156 428.792969 "/>
<path style=" stroke:none;fill-rule:nonzero;fill:rgb(100%,84.3%,0%);fill-opacity:1;" d="M 82.898438 178.355469 C 82.898438 184.511719 73.660156 184.511719 73.660156 178.355469 C 73.660156 172.199219 82.898438 172.199219 82.898438 178.355469 "/>
<path style=" stroke:none;fill-rule:nonzero;fill:rgb(100%,84.3%,0%);fill-opacity:1;" d="M 141.035156 462.84375 C 141.035156 469 131.796875 469 131.796875 462.84375 C 131.796875 456.6875 141.035156 456.6875 141.035156 462.84375 "/>
<path style=" stroke:none;fill-rule:nonzero;fill:rgb(100%,84.3%,0%);fill-opacity:1;" d="M 232.835938 426.703125 C 232.835938 432.859375 223.601562 432.859375 223.601562 426.703125 C 223.601562 420.546875 232.835938 420.546875 232.835938 426.703125 "/>
<path style=" stroke:none;fill-rule:nonzero;fill:rgb(100%,84.3%,0%);fill-opacity:1;" d="M 82.671875 399.636719 C 82.671875 405.792969 73.433594 405.792969 73.433594 399.636719 C 73.433594 393.480469 82.671875 393.480469 82.671875 399.636719 "/>
<path style=" stroke:none;fill-rule:nonzero;fill:rgb(100%,84.3%,0%);fill-opacity:1;" d="M 342.117188 437.96875 C 342.117188 444.125 332.882812 444.125 332.882812 437.96875 C 332.882812 431.808594 342.117188 431.808594 342.117188 437.96875 "/>
<path style=" stroke:none;fill-rule:nonzero;fill:rgb(100%,84.3%,0%);fill-opacity:1;" d="M 439.554688 122.316406 C 439.554688 128.472656 430.320312 128.472656 430.320312 122.316406 C 430.320312 116.160156 439.554688 116.160156 439.554688 122.316406 "/>
<path style=" stroke:none;fill-rule:nonzero;fill:rgb(100%,84.3%,0%);fill-opacity:1;" d="M 381.160156 400.019531 C 381.160156 406.175781 371.925781 406.175781 371.925781 400.019531 C 371.925781 393.859375 381.160156 393.859375 381.160156 400.019531 "/>
<path style=" stroke:none;fill-rule:nonzero;fill:rgb(100%,84.3%,0%);fill-opacity:1;" d="M 134.988281 406.601562 C 134.988281 412.757812 125.753906 412.757812 125.753906 406.601562 C 125.753906 400.445312 134.988281 400.445312 134.988281 406.601562 "/>
<path style=" stroke:none;fill-rule:nonzero;fill:rgb(100%,84.3%,0%);fill-opacity:1;" d="M 73.527344 241.25 C 73.527344 247.40625 64.292969 247.40625 64.292969 241.25 C 64.292969 235.09375 73.527344 235.09375 73.527344 241.25 "/>
<path style=" stroke:none;fill-rule:nonzero;fill:rgb(100%,84.3%,0%);fill-opacity:1;" d="M 357.816406 409.511719 C 357.816406 415.667969 348.578125 415.667969 348.578125 409.511719 C 348.578125 403.355469 357.816406 403.355469 357.816406 409.511719 "/>
<path style=" stroke:none;fill-rule:nonzero;fill:rgb(100%,84.3%,0%);fill-opacity:1;" d="M 346.054688 115.042969 C 346.054688 121.199219 336.820312 121.199219 336.820312 115.042969 C 336.820312 108.886719 346.054688 108.886719 346.054688 115.042969 "/>
<path style=" stroke:none;fill-rule:nonzero;fill:rgb(100%,84.3%,0%);fill-opacity:1;" d="M 126.289062 465.183594 C 126.289062 471.339844 117.054688 471.339844 117.054688 465.183594 C 117.054688 459.027344 126.289062 459.027344 126.289062 465.183594 "/>
<path style=" stroke:none;fill-rule:nonzero;fill:rgb(100%,84.3%,0%);fill-opacity:1;" d="M 334.46875 419.003906 C 334.46875 425.160156 325.230469 425.160156 325.230469 419.003906 C 325.230469 412.847656 334.46875 412.847656 334.46875 419.003906 "/>
<path style=" stroke:none;fill-rule:nonzero;fill:rgb(100%,84.3%,0%);fill-opacity:1;" d="M 431.300781 397.507812 C 431.300781 403.664062 422.0625 403.664062 422.0625 397.507812 C 422.0625 391.347656 431.300781 391.347656 431.300781 397.507812 "/>
<path style=" stroke:none;fill-rule:nonzero;fill:rgb(100%,84.3%,0%);fill-opacity:1;" d="M 387.359375 119.015625 C 387.359375 125.171875 378.125 125.171875 378.125 119.015625 C 378.125 112.859375 387.359375 112.859375 387.359375 119.015625 "/>
<path style=" stroke:none;fill-rule:nonzero;fill:rgb(100%,84.3%,0%);fill-opacity:1;" d="M 93.4375 395.472656 C 93.4375 401.628906 84.203125 401.628906 84.203125 395.472656 C 84.203125 389.316406 93.4375 389.316406 93.4375 395.472656 "/>
<path style=" stroke:none;fill-rule:nonzero;fill:rgb(100%,84.3%,0%);fill-opacity:1;" d="M 142.4375 125.929688 C 142.4375 132.085938 133.203125 132.085938 133.203125 125.929688 C 133.203125 119.769531 142.4375 119.769531 142.4375 125.929688 "/>
<path style=" stroke:none;fill-rule:nonzero;fill:rgb(100%,84.3%,0%);fill-opacity:1;" d="M 123.976562 403.609375 C 123.976562 409.769531 114.742188 409.769531 114.742188 403.609375 C 114.742188 397.453125 123.976562 397.453125 123.976562 403.609375 "/>
<path style=" stroke:none;fill-rule:nonzero;fill:rgb(100%,84.3%,0%);fill-opacity:1;" d="M 450.648438 289.515625 C 450.648438 295.671875 441.414062 295.671875 441.414062 289.515625 C 441.414062 283.359375 450.648438 283.359375 450.648438 289.515625 "/>
<path style=" stroke:none;fill-rule:nonzero;fill:rgb(100%,84.3%,0%);fill-opacity:1;" d="M 74.148438 439.234375 C 74.148438 445.390625 64.914062 445.390625 64.914062 439.234375 C 64.914062 433.078125 74.148438 433.078125 74.148438 439.234375 "/>
<path style=" stroke:none;fill-rule:nonzero;fill:rgb(100%,84.3%,0%);fill-opacity:1;" d="M 113.863281 396.792969 C 113.863281 402.949219 104.625 402.949219 104.625 396.792969 C 104.625 390.636719 113.863281 390.636719 113.863281 396.792969 "/>
<path style=" stroke:none;fill-rule:nonzero;fill:rgb(100%,84.3%,0%);fill-opacity:1;" d="M 81.761719 133.449219 C 81.761719 139.605469 72.527344 139.605469 72.527344 133.449219 C 72.527344 127.292969 81.761719 127.292969 81.761719 133.449219 "/>
<path style=" stroke:none;fill-rule:nonzero;fill:rgb(100%,84.3%,0%);fill-opacity:1;" d="M 431.015625 287.1875 C 431.015625 293.347656 421.78125 293.347656 421.78125 287.1875 C 421.78125 281.03125 431.015625 281.03125 431.015625 287.1875 "/>
<path style=" stroke:none;fill-rule:nonzero;fill:rgb(100%,84.3%,0%);fill-opacity:1;" d="M 433.753906 336.933594 C 433.753906 343.089844 424.519531 343.089844 424.519531 336.933594 C 424.519531 330.777344 433.753906 330.777344 433.753906 336.933594 "/>
<path style=" stroke:none;fill-rule:nonzero;fill:rgb(100%,84.3%,0%);fill-opacity:1;" d="M 369.707031 402.1875 C 369.707031 408.34375 360.472656 408.34375 360.472656 402.1875 C 360.472656 396.027344 369.707031 396.027344 369.707031 402.1875 "/>
<path style=" stroke:none;fill-rule:nonzero;fill:rgb(100%,84.3%,0%);fill-opacity:1;" d="M 427.25 411.480469 C 427.25 417.640625 418.015625 417.640625 418.015625 411.480469 C 418.015625 405.324219 427.25 405.324219 427.25 411.480469 "/>
<path style=" stroke:none;fill-rule:nonzero;fill:rgb(100%,84.3%,0%);fill-opacity:1;" d="M 76.34375 365.199219 C 76.34375 371.355469 67.105469 371.355469 67.105469 365.199219 C 67.105469 359.042969 76.34375 359.042969 76.34375 365.199219 "/>
<path style=" stroke:none;fill-rule:nonzero;fill:rgb(100%,84.3%,0%);fill-opacity:1;" d="M 460.441406 346.914062 C 460.441406 353.074219 451.207031 353.074219 451.207031 346.914062 C 451.207031 340.757812 460.441406 340.757812 460.441406 346.914062 "/>
<path style=" stroke:none;fill-rule:nonzero;fill:rgb(100%,84.3%,0%);fill-opacity:1;" d="M 453.460938 323.460938 C 453.460938 329.617188 444.222656 329.617188 444.222656 323.460938 C 444.222656 317.304688 453.460938 317.304688 453.460938 323.460938 "/>
<path style=" stroke:none;fill-rule:nonzero;fill:rgb(100%,84.3%,0%);fill-opacity:1;" d="M 286.535156 132.023438 C 286.535156 138.179688 277.300781 138.179688 277.300781 132.023438 C 277.300781 125.863281 286.535156 125.863281 286.535156 132.023438 "/>
<path style=" stroke:none;fill-rule:nonzero;fill:rgb(100%,84.3%,0%);fill-opacity:1;" d="M 388.628906 347.601562 C 388.628906 353.757812 379.390625 353.757812 379.390625 347.601562 C 379.390625 341.441406 388.628906 341.441406 388.628906 347.601562 "/>
<path style=" stroke:none;fill-rule:nonzero;fill:rgb(100%,84.3%,0%);fill-opacity:1;" d="M 103.746094 389.976562 C 103.746094 396.132812 94.511719 396.132812 94.511719 389.976562 C 94.511719 383.820312 103.746094 383.820312 103.746094 389.976562 "/>
<path style=" stroke:none;fill-rule:nonzero;fill:rgb(100%,84.3%,0%);fill-opacity:1;" d="M 343.226562 428.316406 C 343.226562 434.472656 333.992188 434.472656 333.992188 428.316406 C 333.992188 422.160156 343.226562 422.160156 343.226562 428.316406 "/>
<path style=" stroke:none;fill-rule:nonzero;fill:rgb(100%,84.3%,0%);fill-opacity:1;" d="M 305.851562 142.992188 C 305.851562 149.152344 296.617188 149.152344 296.617188 142.992188 C 296.617188 136.835938 305.851562 136.835938 305.851562 142.992188 "/>
<path style=" stroke:none;fill-rule:nonzero;fill:rgb(100%,84.3%,0%);fill-opacity:1;" d="M 345.464844 415.503906 C 345.464844 421.660156 336.226562 421.660156 336.226562 415.503906 C 336.226562 409.347656 345.464844 409.347656 345.464844 415.503906 "/>
<path style=" stroke:none;fill-rule:nonzero;fill:rgb(100%,84.3%,0%);fill-opacity:1;" d="M 371.714844 388.707031 C 371.714844 394.863281 362.480469 394.863281 362.480469 388.707031 C 362.480469 382.550781 371.714844 382.550781 371.714844 388.707031 "/>
<path style=" stroke:none;fill-rule:nonzero;fill:rgb(100%,84.3%,0%);fill-opacity:1;" d="M 172.730469 126.914062 C 172.730469 133.070312 163.496094 133.070312 163.496094 126.914062 C 163.496094 120.757812 172.730469 120.757812 172.730469 126.914062 "/>
<path style=" stroke:none;fill-rule:nonzero;fill:rgb(100%,84.3%,0%);fill-opacity:1;" d="M 335.578125 409.351562 C 335.578125 415.511719 326.34375 415.511719 326.34375 409.351562 C 326.34375 403.195312 335.578125 403.195312 335.578125 409.351562 "/>
<path style=" stroke:none;fill-rule:nonzero;fill:rgb(100%,84.3%,0%);fill-opacity:1;" d="M 162.175781 125.253906 C 162.175781 131.410156 152.941406 131.410156 152.941406 125.253906 C 152.941406 119.097656 162.175781 119.097656 162.175781 125.253906 "/>
<path style=" stroke:none;fill-rule:nonzero;fill:rgb(100%,84.3%,0%);fill-opacity:1;" d="M 68.597656 265.539062 C 68.597656 271.699219 59.363281 271.699219 59.363281 265.539062 C 59.363281 259.382812 68.597656 259.382812 68.597656 265.539062 "/>
<path style=" stroke:none;fill-rule:nonzero;fill:rgb(100%,84.3%,0%);fill-opacity:1;" d="M 416.238281 408.492188 C 416.238281 414.648438 407.003906 414.648438 407.003906 408.492188 C 407.003906 402.335938 416.238281 402.335938 416.238281 408.492188 "/>
<path style=" stroke:none;fill-rule:nonzero;fill:rgb(100%,84.3%,0%);fill-opacity:1;" d="M 58.042969 263.882812 C 58.042969 270.039062 48.808594 270.039062 48.808594 263.882812 C 48.808594 257.726562 58.042969 257.726562 58.042969 263.882812 "/>
<path style=" stroke:none;fill-rule:nonzero;fill:rgb(100%,84.3%,0%);fill-opacity:1;" d="M 403.578125 381.375 C 403.578125 387.53125 394.339844 387.53125 394.339844 381.375 C 394.339844 375.21875 403.578125 375.21875 403.578125 381.375 "/>
<path style=" stroke:none;fill-rule:nonzero;fill:rgb(100%,84.3%,0%);fill-opacity:1;" d="M 244.363281 144.851562 C 244.363281 151.007812 235.128906 151.007812 235.128906 144.851562 C 235.128906 138.695312 244.363281 138.695312 244.363281 144.851562 "/>
<path style=" stroke:none;fill-rule:nonzero;fill:rgb(100%,84.3%,0%);fill-opacity:1;" d="M 339.292969 133.828125 C 339.292969 139.988281 330.058594 139.988281 330.058594 133.828125 C 330.058594 127.671875 339.292969 127.671875 339.292969 133.828125 "/>
<path style=" stroke:none;fill-rule:nonzero;fill:rgb(100%,84.3%,0%);fill-opacity:1;" d="M 131.148438 456.691406 C 131.148438 462.847656 121.914062 462.847656 121.914062 456.691406 C 121.914062 450.535156 131.148438 450.535156 131.148438 456.691406 "/>
<path style=" stroke:none;fill-rule:nonzero;fill:rgb(100%,84.3%,0%);fill-opacity:1;" d="M 419.464844 118.839844 C 419.464844 124.996094 410.230469 124.996094 410.230469 118.839844 C 410.230469 112.679688 419.464844 112.679688 419.464844 118.839844 "/>
<path style=" stroke:none;fill-rule:nonzero;fill:rgb(100%,84.3%,0%);fill-opacity:1;" d="M 382.042969 389.703125 C 382.042969 395.859375 372.804688 395.859375 372.804688 389.703125 C 372.804688 383.546875 382.042969 383.546875 382.042969 389.703125 "/>
<path style=" stroke:none;fill-rule:nonzero;fill:rgb(100%,84.3%,0%);fill-opacity:1;" d="M 418.246094 395.015625 C 418.246094 401.171875 409.011719 401.171875 409.011719 395.015625 C 409.011719 388.855469 418.246094 388.855469 418.246094 395.015625 "/>
<path style=" stroke:none;fill-rule:nonzero;fill:rgb(100%,84.3%,0%);fill-opacity:1;" d="M 226.152344 165.984375 C 226.152344 172.144531 216.917969 172.144531 216.917969 165.984375 C 216.917969 159.828125 226.152344 159.828125 226.152344 165.984375 "/>
<path style=" stroke:none;fill-rule:nonzero;fill:rgb(100%,84.3%,0%);fill-opacity:1;" d="M 414.378906 258.246094 C 414.378906 264.402344 405.144531 264.402344 405.144531 258.246094 C 405.144531 252.089844 414.378906 252.089844 414.378906 258.246094 "/>
<path style=" stroke:none;fill-rule:nonzero;fill:rgb(100%,84.3%,0%);fill-opacity:1;" d="M 358.695312 399.195312 C 358.695312 405.351562 349.460938 405.351562 349.460938 399.195312 C 349.460938 393.039062 358.695312 393.039062 358.695312 399.195312 "/>
<path style=" stroke:none;fill-rule:nonzero;fill:rgb(100%,84.3%,0%);fill-opacity:1;" d="M 406.566406 396.515625 C 406.566406 402.671875 397.328125 402.671875 397.328125 396.515625 C 397.328125 390.359375 406.566406 390.359375 406.566406 396.515625 "/>
<path style=" stroke:none;fill-rule:nonzero;fill:rgb(100%,84.3%,0%);fill-opacity:1;" d="M 362.5 378.0625 C 362.5 384.222656 353.261719 384.222656 353.261719 378.0625 C 353.261719 371.90625 362.5 371.90625 362.5 378.0625 "/>
<path style=" stroke:none;fill-rule:nonzero;fill:rgb(100%,84.3%,0%);fill-opacity:1;" d="M 427.441406 308.984375 C 427.441406 315.144531 418.207031 315.144531 418.207031 308.984375 C 418.207031 302.828125 427.441406 302.828125 427.441406 308.984375 "/>
<path style=" stroke:none;fill-rule:nonzero;fill:rgb(100%,84.3%,0%);fill-opacity:1;" d="M 157.382812 423.40625 C 157.382812 429.5625 148.148438 429.5625 148.148438 423.40625 C 148.148438 417.25 157.382812 417.25 157.382812 423.40625 "/>
<path style=" stroke:none;fill-rule:nonzero;fill:rgb(100%,84.3%,0%);fill-opacity:1;" d="M 396.5625 123.171875 C 396.5625 129.328125 387.324219 129.328125 387.324219 123.171875 C 387.324219 117.015625 396.5625 117.015625 396.5625 123.171875 "/>
<path style=" stroke:none;fill-rule:nonzero;fill:rgb(100%,84.3%,0%);fill-opacity:1;" d="M 58.164062 399.3125 C 58.164062 405.46875 48.929688 405.46875 48.929688 399.3125 C 48.929688 393.152344 58.164062 393.152344 58.164062 399.3125 "/>
<path style=" stroke:none;fill-rule:nonzero;fill:rgb(100%,84.3%,0%);fill-opacity:1;" d="M 357.734375 113.539062 C 357.734375 119.695312 348.5 119.695312 348.5 113.539062 C 348.5 107.382812 357.734375 107.382812 357.734375 113.539062 "/>
<path style=" stroke:none;fill-rule:nonzero;fill:rgb(100%,84.3%,0%);fill-opacity:1;" d="M 169.945312 411.585938 C 169.945312 417.742188 160.710938 417.742188 160.710938 411.585938 C 160.710938 405.429688 169.945312 405.429688 169.945312 411.585938 "/>
<path style=" stroke:none;fill-rule:nonzero;fill:rgb(100%,84.3%,0%);fill-opacity:1;" d="M 430.058594 223.300781 C 430.058594 229.457031 420.824219 229.457031 420.824219 223.300781 C 420.824219 217.144531 430.058594 217.144531 430.058594 223.300781 "/>
<path style=" stroke:none;fill-rule:nonzero;fill:rgb(100%,84.3%,0%);fill-opacity:1;" d="M 320.992188 428.160156 C 320.992188 434.316406 311.753906 434.316406 311.753906 428.160156 C 311.753906 422.003906 320.992188 422.003906 320.992188 428.160156 "/>
<path style=" stroke:none;fill-rule:nonzero;fill:rgb(100%,84.3%,0%);fill-opacity:1;" d="M 442.472656 375.207031 C 442.472656 381.363281 433.238281 381.363281 433.238281 375.207031 C 433.238281 369.050781 442.472656 369.050781 442.472656 375.207031 "/>
<path style=" stroke:none;fill-rule:nonzero;fill:rgb(100%,84.3%,0%);fill-opacity:1;" d="M 314.238281 405.367188 C 314.238281 411.527344 305.003906 411.527344 305.003906 405.367188 C 305.003906 399.210938 314.238281 399.210938 314.238281 405.367188 "/>
<path style=" stroke:none;fill-rule:nonzero;fill:rgb(100%,84.3%,0%);fill-opacity:1;" d="M 315.71875 142.65625 C 315.71875 148.8125 306.484375 148.8125 306.484375 142.65625 C 306.484375 136.5 315.71875 136.5 315.71875 142.65625 "/>
<path style=" stroke:none;fill-rule:nonzero;fill:rgb(100%,84.3%,0%);fill-opacity:1;" d="M 349.480469 388.550781 C 349.480469 394.707031 340.242188 394.707031 340.242188 388.550781 C 340.242188 382.394531 349.480469 382.394531 349.480469 388.550781 "/>
<path style=" stroke:none;fill-rule:nonzero;fill:rgb(100%,84.3%,0%);fill-opacity:1;" d="M 459.320312 308.140625 C 459.320312 314.296875 450.085938 314.296875 450.085938 308.140625 C 450.085938 301.984375 459.320312 301.984375 459.320312 308.140625 "/>
<path style=" stroke:none;fill-rule:nonzero;fill:rgb(100%,84.3%,0%);fill-opacity:1;" d="M 249.898438 443.996094 C 249.898438 450.152344 240.664062 450.152344 240.664062 443.996094 C 240.664062 437.839844 249.898438 437.839844 249.898438 443.996094 "/>
<path style=" stroke:none;fill-rule:nonzero;fill:rgb(100%,84.3%,0%);fill-opacity:1;" d="M 424.0625 450.410156 C 424.0625 456.566406 414.824219 456.566406 414.824219 450.410156 C 414.824219 444.253906 424.0625 444.253906 424.0625 450.410156 "/>
<path style=" stroke:none;fill-rule:nonzero;fill:rgb(100%,84.3%,0%);fill-opacity:1;" d="M 262.460938 432.179688 C 262.460938 438.335938 253.226562 438.335938 253.226562 432.179688 C 253.226562 426.023438 262.460938 426.023438 262.460938 432.179688 "/>
<path style=" stroke:none;fill-rule:nonzero;fill:rgb(100%,84.3%,0%);fill-opacity:1;" d="M 464.683594 320.628906 C 464.683594 326.785156 455.449219 326.785156 455.449219 320.628906 C 455.449219 314.46875 464.683594 314.46875 464.683594 320.628906 "/>
<path style=" stroke:none;fill-rule:nonzero;fill:rgb(100%,84.3%,0%);fill-opacity:1;" d="M 405.328125 180.554688 C 405.328125 186.710938 396.09375 186.710938 396.09375 180.554688 C 396.09375 174.398438 405.328125 174.398438 405.328125 180.554688 "/>
<path style=" stroke:none;fill-rule:nonzero;fill:rgb(100%,84.3%,0%);fill-opacity:1;" d="M 463.800781 330.765625 C 463.800781 336.921875 454.566406 336.921875 454.566406 330.765625 C 454.566406 324.605469 463.800781 324.605469 463.800781 330.765625 "/>
<path style=" stroke:none;fill-rule:nonzero;fill:rgb(100%,84.3%,0%);fill-opacity:1;" d="M 118.386719 126.933594 C 118.386719 133.089844 109.152344 133.089844 109.152344 126.933594 C 109.152344 120.777344 118.386719 120.777344 118.386719 126.933594 "/>
<path style=" stroke:none;fill-rule:nonzero;fill:rgb(100%,84.3%,0%);fill-opacity:1;" d="M 251.007812 434.347656 C 251.007812 440.503906 241.773438 440.503906 241.773438 434.347656 C 241.773438 428.191406 251.007812 428.191406 251.007812 434.347656 "/>
<path style=" stroke:none;fill-rule:nonzero;fill:rgb(100%,84.3%,0%);fill-opacity:1;" d="M 105.53125 112.308594 C 105.53125 118.464844 96.296875 118.464844 96.296875 112.308594 C 96.296875 106.152344 105.53125 106.152344 105.53125 112.308594 "/>
<path style=" stroke:none;fill-rule:nonzero;fill:rgb(100%,84.3%,0%);fill-opacity:1;" d="M 73.953125 229.601562 C 73.953125 235.757812 64.714844 235.757812 64.714844 229.601562 C 64.714844 223.445312 73.953125 223.445312 73.953125 229.601562 "/>
<path style=" stroke:none;fill-rule:nonzero;fill:rgb(100%,84.3%,0%);fill-opacity:1;" d="M 89.605469 140.097656 C 89.605469 146.253906 80.371094 146.253906 80.371094 140.097656 C 80.371094 133.941406 89.605469 133.941406 89.605469 140.097656 "/>
<path style=" stroke:none;fill-rule:nonzero;fill:rgb(100%,84.3%,0%);fill-opacity:1;" d="M 347.011719 400.695312 C 347.011719 406.855469 337.777344 406.855469 337.777344 400.695312 C 337.777344 394.539062 347.011719 394.539062 347.011719 400.695312 "/>
<path style=" stroke:none;fill-rule:nonzero;fill:rgb(100%,84.3%,0%);fill-opacity:1;" d="M 151.765625 445.699219 C 151.765625 451.859375 142.53125 451.859375 142.53125 445.699219 C 142.53125 439.542969 151.765625 439.542969 151.765625 445.699219 "/>
<path style=" stroke:none;fill-rule:nonzero;fill:rgb(100%,84.3%,0%);fill-opacity:1;" d="M 123.945312 390.632812 C 123.945312 396.789062 114.707031 396.789062 114.707031 390.632812 C 114.707031 384.476562 123.945312 384.476562 123.945312 390.632812 "/>
<path style=" stroke:none;fill-rule:nonzero;fill:rgb(100%,84.3%,0%);fill-opacity:1;" d="M 412.523438 198.1875 C 412.523438 204.34375 403.289062 204.34375 403.289062 198.1875 C 403.289062 192.027344 412.523438 192.027344 412.523438 198.1875 "/>
<path style=" stroke:none;fill-rule:nonzero;fill:rgb(100%,84.3%,0%);fill-opacity:1;" d="M 262.945312 134.359375 C 262.945312 140.515625 253.707031 140.515625 253.707031 134.359375 C 253.707031 128.203125 262.945312 128.203125 262.945312 134.359375 "/>
<path style=" stroke:none;fill-rule:nonzero;fill:rgb(100%,84.3%,0%);fill-opacity:1;" d="M 391.082031 419.148438 C 391.082031 425.304688 381.84375 425.304688 381.84375 419.148438 C 381.84375 412.992188 391.082031 412.992188 391.082031 419.148438 "/>
<path style=" stroke:none;fill-rule:nonzero;fill:rgb(100%,84.3%,0%);fill-opacity:1;" d="M 75.6875 154.414062 C 75.6875 160.570312 66.453125 160.570312 66.453125 154.414062 C 66.453125 148.257812 75.6875 148.257812 75.6875 154.414062 "/>
<path style=" stroke:none;fill-rule:nonzero;fill:rgb(100%,84.3%,0%);fill-opacity:1;" d="M 228.851562 112.746094 C 228.851562 118.90625 219.617188 118.90625 219.617188 112.746094 C 219.617188 106.589844 228.851562 106.589844 228.851562 112.746094 "/>
<path style=" stroke:none;fill-rule:nonzero;fill:rgb(100%,84.3%,0%);fill-opacity:1;" d="M 426.652344 178.050781 C 426.652344 184.207031 417.417969 184.207031 417.417969 178.050781 C 417.417969 171.890625 426.652344 171.890625 426.652344 178.050781 "/>
<path style=" stroke:none;fill-rule:nonzero;fill:rgb(100%,84.3%,0%);fill-opacity:1;" d="M 294.191406 463.113281 C 294.191406 469.273438 284.957031 469.273438 284.957031 463.113281 C 284.957031 456.957031 294.191406 456.957031 294.191406 463.113281 "/>
<path style=" stroke:none;fill-rule:nonzero;fill:rgb(100%,84.3%,0%);fill-opacity:1;" d="M 453.46875 371.707031 C 453.46875 377.863281 444.234375 377.863281 444.234375 371.707031 C 444.234375 365.550781 453.46875 365.550781 453.46875 371.707031 "/>
<path style=" stroke:none;fill-rule:nonzero;fill:rgb(100%,84.3%,0%);fill-opacity:1;" d="M 403.21875 418.976562 C 403.21875 425.136719 393.984375 425.136719 393.984375 418.976562 C 393.984375 412.820312 403.21875 412.820312 403.21875 418.976562 "/>
<path style=" stroke:none;fill-rule:nonzero;fill:rgb(100%,84.3%,0%);fill-opacity:1;" d="M 101.566406 158.550781 C 101.566406 164.707031 92.332031 164.707031 92.332031 158.550781 C 92.332031 152.394531 101.566406 152.394531 101.566406 158.550781 "/>
<path style=" stroke:none;fill-rule:nonzero;fill:rgb(100%,84.3%,0%);fill-opacity:1;" d="M 210.792969 414.230469 C 210.792969 420.390625 201.558594 420.390625 201.558594 414.230469 C 201.558594 408.074219 210.792969 408.074219 210.792969 414.230469 "/>
<path style=" stroke:none;fill-rule:nonzero;fill:rgb(100%,84.3%,0%);fill-opacity:1;" d="M 92.277344 385.652344 C 92.277344 391.8125 83.042969 391.8125 83.042969 385.652344 C 83.042969 379.496094 92.277344 379.496094 92.277344 385.652344 "/>
<path style=" stroke:none;fill-rule:nonzero;fill:rgb(100%,84.3%,0%);fill-opacity:1;" d="M 415.03125 379.207031 C 415.03125 385.363281 405.792969 385.363281 405.792969 379.207031 C 405.792969 373.050781 415.03125 373.050781 415.03125 379.207031 "/>
</g>
</svg>
