<?xml version="1.0" encoding="UTF-8"?>
<svg xmlns="http://www.w3.org/2000/svg" xmlns:xlink="http://www.w3.org/1999/xlink" width="512pt" height="512pt" viewBox="0 0 512 512" version="1.1">
<g id="surface231">
<path style=" stroke:none;fill-rule:nonzero;fill:rgb(26.7%,26.7%,26.7%);fill-opacity:1;" d="M 0 29.257812 L 512 29.257812 L 512 482.738281 L 0 482.738281 Z M 0 29.257812 "/>
<path style=" stroke:none;fill-rule:nonzero;fill:rgb(19.2%,38.8%,66.7%);fill-opacity:1;" d="M 0 389.328125 L 66.960938 389.328125 L 66.960938 482.742188 L 0 482.742188 Z M 0 389.328125 "/>
<path style=" stroke:none;fill-rule:nonzero;fill:rgb(100%,100%,100%);fill-opacity:1;" d="M 21.824219 366.269531 C 21.824219 366.613281 21.308594 366.613281 21.308594 366.269531 C 21.308594 365.925781 21.824219 365.925781 21.824219 366.269531 "/>
<path style=" stroke:none;fill-rule:nonzero;fill:rgb(100%,100%,100%);fill-opacity:1;" d="M 476.589844 395.503906 C 476.589844 395.847656 476.074219 395.847656 476.074219 395.503906 C 476.074219 395.160156 476.589844 395.160156 476.589844 395.503906 "/>
<path style=" stroke:none;fill-rule:nonzero;fill:rgb(100%,100%,100%);fill-opacity:1;" d="M 506.597656 110.578125 C 506.597656 110.921875 506.082031 110.921875 506.082031 110.578125 C 506.082031 110.234375 506.597656 110.234375 506.597656 110.578125 "/>
<path style=" stroke:none;fill-rule:nonzero;fill:rgb(100%,100%,100%);fill-opacity:1;" d="M 71.230469 229.210938 C 71.230469 229.554688 70.714844 229.554688 70.714844 229.210938 C 70.714844 228.867188 71.230469 228.867188 71.230469 229.210938 "/>
<path style=" stroke:none;fill-rule:nonzero;fill:rgb(100%,100%,100%);fill-opacity:1;" d="M 382.917969 297.507812 C 382.917969 297.851562 382.40625 297.851562 382.40625 297.507812 C 382.40625 297.164062 382.917969 297.164062 382.917969 297.507812 "/>
<path style=" stroke:none;fill-rule:nonzero;fill:rgb(100%,100%,100%);fill-opacity:1;" d="M 446.328125 50.773438 C 446.328125 51.117188 445.8125 51.117188 445.8125 50.773438 C 445.8125 50.429688 446.328125 50.429688 446.328125 50.773438 "/>
<path style=" stroke:none;fill-rule:nonzero;fill:rgb(100%,100%,100%);fill-opacity:1;" d="M 499.851562 58.542969 C 499.851562 58.886719 499.339844 58.886719 499.339844 58.542969 C 499.339844 58.199219 499.851562 58.199219 499.851562 58.542969 "/>
<path style=" stroke:none;fill-rule:nonzero;fill:rgb(100%,100%,100%);fill-opacity:1;" d="M 462.488281 247.378906 C 462.488281 247.722656 461.972656 247.722656 461.972656 247.378906 C 461.972656 247.035156 462.488281 247.035156 462.488281 247.378906 "/>
<path style=" stroke:none;fill-rule:nonzero;fill:rgb(100%,100%,100%);fill-opacity:1;" d="M 161.402344 117.730469 C 161.402344 118.074219 160.886719 118.074219 160.886719 117.730469 C 160.886719 117.390625 161.402344 117.390625 161.402344 117.730469 "/>
<path style=" stroke:none;fill-rule:nonzero;fill:rgb(100%,100%,100%);fill-opacity:1;" d="M 363.050781 363.386719 C 363.050781 363.730469 362.539062 363.730469 362.539062 363.386719 C 362.539062 363.042969 363.050781 363.042969 363.050781 363.386719 "/>
<path style=" stroke:none;fill-rule:nonzero;fill:rgb(100%,100%,100%);fill-opacity:1;" d="M 459.761719 140.585938 C 459.761719 140.925781 459.246094 140.925781 459.246094 140.585938 C 459.246094 140.242188 459.761719 140.242188 459.761719 140.585938 "/>
<path style=" stroke:none;fill-rule:nonzero;fill:rgb(100%,100%,100%);fill-opacity:1;" d="M 484.207031 344.191406 C 484.207031 344.53125 483.691406 344.53125 483.691406 344.191406 C 483.691406 343.847656 484.207031 343.847656 484.207031 344.191406 "/>
<path style=" stroke:none;fill-rule:nonzero;fill:rgb(100%,100%,100%);fill-opacity:1;" d="M 309.113281 411.613281 C 309.113281 411.957031 308.601562 411.957031 308.601562 411.613281 C 308.601562 411.269531 309.113281 411.269531 309.113281 411.613281 "/>
<path style=" stroke:none;fill-rule:nonzero;fill:rgb(100%,100%,100%);fill-opacity:1;" d="M 76.789062 375.429688 C 76.789062 375.773438 76.273438 375.773438 76.273438 375.429688 C 76.273438 375.085938 76.789062 375.085938 76.789062 375.429688 "/>
<path style=" stroke:none;fill-rule:nonzero;fill:rgb(100%,100%,100%);fill-opacity:1;" d="M 173.601562 118.96875 C 173.601562 119.308594 173.085938 119.308594 173.085938 118.96875 C 173.085938 118.625 173.601562 118.625 173.601562 118.96875 "/>
<path style=" stroke:none;fill-rule:nonzero;fill:rgb(100%,100%,100%);fill-opacity:1;" d="M 30.46875 142.128906 C 30.46875 142.472656 29.953125 142.472656 29.953125 142.128906 C 29.953125 141.785156 30.46875 141.785156 30.46875 142.128906 "/>
<path style=" stroke:none;fill-rule:nonzero;fill:rgb(100%,100%,100%);fill-opacity:1;" d="M 273.449219 273.730469 C 273.449219 274.074219 272.933594 274.074219 272.933594 273.730469 C 272.933594 273.386719 273.449219 273.386719 273.449219 273.730469 "/>
<path style=" stroke:none;fill-rule:nonzero;fill:rgb(100%,100%,100%);fill-opacity:1;" d="M 137.882812 86.492188 C 137.882812 86.835938 137.367188 86.835938 137.367188 86.492188 C 137.367188 86.148438 137.882812 86.148438 137.882812 86.492188 "/>
<path style=" stroke:none;fill-rule:nonzero;fill:rgb(100%,100%,100%);fill-opacity:1;" d="M 433.046875 311.097656 C 433.046875 311.4375 432.535156 311.4375 432.535156 311.097656 C 432.535156 310.753906 433.046875 310.753906 433.046875 311.097656 "/>
<path style=" stroke:none;fill-rule:nonzero;fill:rgb(100%,100%,100%);fill-opacity:1;" d="M 400.367188 71.566406 C 400.367188 71.910156 399.851562 71.910156 399.851562 71.566406 C 399.851562 71.222656 400.367188 71.222656 400.367188 71.566406 "/>
<path style=" stroke:none;fill-rule:nonzero;fill:rgb(100%,100%,100%);fill-opacity:1;" d="M 101.75 297.304688 C 101.75 297.644531 101.238281 297.644531 101.238281 297.304688 C 101.238281 296.960938 101.75 296.960938 101.75 297.304688 "/>
<path style=" stroke:none;fill-rule:nonzero;fill:rgb(100%,100%,100%);fill-opacity:1;" d="M 184.304688 291.230469 C 184.304688 291.574219 183.789062 291.574219 183.789062 291.230469 C 183.789062 290.886719 184.304688 290.886719 184.304688 291.230469 "/>
<path style=" stroke:none;fill-rule:nonzero;fill:rgb(100%,100%,100%);fill-opacity:1;" d="M 507.265625 98.945312 C 507.265625 99.289062 506.75 99.289062 506.75 98.945312 C 506.75 98.605469 507.265625 98.605469 507.265625 98.945312 "/>
<path style=" stroke:none;fill-rule:nonzero;fill:rgb(100%,100%,100%);fill-opacity:1;" d="M 437.730469 373.9375 C 437.730469 374.28125 437.21875 374.28125 437.21875 373.9375 C 437.21875 373.59375 437.730469 373.59375 437.730469 373.9375 "/>
<path style=" stroke:none;fill-rule:nonzero;fill:rgb(100%,100%,100%);fill-opacity:1;" d="M 234.539062 187.367188 C 234.539062 187.710938 234.023438 187.710938 234.023438 187.367188 C 234.023438 187.023438 234.539062 187.023438 234.539062 187.367188 "/>
<path style=" stroke:none;fill-rule:nonzero;fill:rgb(100%,100%,100%);fill-opacity:1;" d="M 500.058594 338.476562 C 500.058594 338.820312 499.542969 338.820312 499.542969 338.476562 C 499.542969 338.132812 500.058594 338.132812 500.058594 338.476562 "/>
<path style=" stroke:none;fill-rule:nonzero;fill:rgb(100%,100%,100%);fill-opacity:1;" d="M 241.125 224.476562 C 241.125 224.820312 240.613281 224.820312 240.613281 224.476562 C 240.613281 224.132812 241.125 224.132812 241.125 224.476562 "/>
<path style=" stroke:none;fill-rule:nonzero;fill:rgb(100%,100%,100%);fill-opacity:1;" d="M 105.046875 278.054688 C 105.046875 278.398438 104.53125 278.398438 104.53125 278.054688 C 104.53125 277.710938 105.046875 277.710938 105.046875 278.054688 "/>
<path style=" stroke:none;fill-rule:nonzero;fill:rgb(100%,100%,100%);fill-opacity:1;" d="M 352.757812 287.007812 C 352.757812 287.351562 352.246094 287.351562 352.246094 287.007812 C 352.246094 286.664062 352.757812 286.664062 352.757812 287.007812 "/>
<path style=" stroke:none;fill-rule:nonzero;fill:rgb(100%,100%,100%);fill-opacity:1;" d="M 197.945312 163.847656 C 197.945312 164.191406 197.429688 164.191406 197.429688 163.847656 C 197.429688 163.503906 197.945312 163.503906 197.945312 163.847656 "/>
<path style=" stroke:none;fill-rule:nonzero;fill:rgb(100%,100%,100%);fill-opacity:1;" d="M 463.828125 282.53125 C 463.828125 282.875 463.3125 282.875 463.3125 282.53125 C 463.3125 282.1875 463.828125 282.1875 463.828125 282.53125 "/>
<path style=" stroke:none;fill-rule:nonzero;fill:rgb(100%,100%,100%);fill-opacity:1;" d="M 110.5 41.148438 C 110.5 41.492188 109.988281 41.492188 109.988281 41.148438 C 109.988281 40.804688 110.5 40.804688 110.5 41.148438 "/>
<path style=" stroke:none;fill-rule:nonzero;fill:rgb(100%,100%,100%);fill-opacity:1;" d="M 76.996094 315.265625 C 76.996094 315.609375 76.480469 315.609375 76.480469 315.265625 C 76.480469 314.921875 76.996094 314.921875 76.996094 315.265625 "/>
<path style=" stroke:none;fill-rule:nonzero;fill:rgb(100%,100%,100%);fill-opacity:1;" d="M 227.179688 242.128906 C 227.179688 242.472656 226.664062 242.472656 226.664062 242.128906 C 226.664062 241.785156 227.179688 241.785156 227.179688 242.128906 "/>
<path style=" stroke:none;fill-rule:nonzero;fill:rgb(100%,100%,100%);fill-opacity:1;" d="M 369.742188 46.707031 C 369.742188 47.050781 369.230469 47.050781 369.230469 46.707031 C 369.230469 46.363281 369.742188 46.363281 369.742188 46.707031 "/>
<path style=" stroke:none;fill-rule:nonzero;fill:rgb(100%,100%,100%);fill-opacity:1;" d="M 52.652344 285.054688 C 52.652344 285.394531 52.136719 285.394531 52.136719 285.054688 C 52.136719 284.710938 52.652344 284.710938 52.652344 285.054688 "/>
<path style=" stroke:none;fill-rule:nonzero;fill:rgb(100%,100%,100%);fill-opacity:1;" d="M 367.066406 164.257812 C 367.066406 164.601562 366.550781 164.601562 366.550781 164.257812 C 366.550781 163.914062 367.066406 163.914062 367.066406 164.257812 "/>
<path style=" stroke:none;fill-rule:nonzero;fill:rgb(100%,100%,100%);fill-opacity:1;" d="M 434.285156 31.78125 C 434.285156 32.125 433.769531 32.125 433.769531 31.78125 C 433.769531 31.4375 434.285156 31.4375 434.285156 31.78125 "/>
<path style=" stroke:none;fill-rule:nonzero;fill:rgb(100%,100%,100%);fill-opacity:1;" d="M 429.445312 467.710938 C 429.445312 468.054688 428.933594 468.054688 428.933594 467.710938 C 428.933594 467.367188 429.445312 467.367188 429.445312 467.710938 "/>
<path style=" stroke:none;fill-rule:nonzero;fill:rgb(100%,100%,100%);fill-opacity:1;" d="M 140.042969 90.609375 C 140.042969 90.953125 139.527344 90.953125 139.527344 90.609375 C 139.527344 90.265625 140.042969 90.265625 140.042969 90.609375 "/>
<path style=" stroke:none;fill-rule:nonzero;fill:rgb(100%,100%,100%);fill-opacity:1;" d="M 350.289062 399.671875 C 350.289062 400.015625 349.773438 400.015625 349.773438 399.671875 C 349.773438 399.328125 350.289062 399.328125 350.289062 399.671875 "/>
<path style=" stroke:none;fill-rule:nonzero;fill:rgb(100%,100%,100%);fill-opacity:1;" d="M 478.699219 478.109375 C 478.699219 478.453125 478.1875 478.453125 478.1875 478.109375 C 478.1875 477.765625 478.699219 477.765625 478.699219 478.109375 "/>
<path style=" stroke:none;fill-rule:nonzero;fill:rgb(100%,100%,100%);fill-opacity:1;" d="M 168.09375 104.042969 C 168.09375 104.386719 167.578125 104.386719 167.578125 104.042969 C 167.578125 103.699219 168.09375 103.699219 168.09375 104.042969 "/>
<path style=" stroke:none;fill-rule:nonzero;fill:rgb(100%,100%,100%);fill-opacity:1;" d="M 298.871094 335.492188 C 298.871094 335.835938 298.359375 335.835938 298.359375 335.492188 C 298.359375 335.148438 298.871094 335.148438 298.871094 335.492188 "/>
<path style=" stroke:none;fill-rule:nonzero;fill:rgb(100%,100%,100%);fill-opacity:1;" d="M 478.597656 429.523438 C 478.597656 429.867188 478.082031 429.867188 478.082031 429.523438 C 478.082031 429.179688 478.597656 429.179688 478.597656 429.523438 "/>
<path style=" stroke:none;fill-rule:nonzero;fill:rgb(100%,100%,100%);fill-opacity:1;" d="M 132.839844 447.433594 C 132.839844 447.777344 132.324219 447.777344 132.324219 447.433594 C 132.324219 447.089844 132.839844 447.089844 132.839844 447.433594 "/>
<path style=" stroke:none;fill-rule:nonzero;fill:rgb(100%,100%,100%);fill-opacity:1;" d="M 510.558594 155.355469 C 510.558594 155.699219 510.042969 155.699219 510.042969 155.355469 C 510.042969 155.011719 510.558594 155.011719 510.558594 155.355469 "/>
<path style=" stroke:none;fill-rule:nonzero;fill:rgb(100%,100%,100%);fill-opacity:1;" d="M 37.726562 161.839844 C 37.726562 162.183594 37.210938 162.183594 37.210938 161.839844 C 37.210938 161.496094 37.726562 161.496094 37.726562 161.839844 "/>
<path style=" stroke:none;fill-rule:nonzero;fill:rgb(100%,100%,100%);fill-opacity:1;" d="M 138.394531 282.53125 C 138.394531 282.875 137.882812 282.875 137.882812 282.53125 C 137.882812 282.1875 138.394531 282.1875 138.394531 282.53125 "/>
<path style=" stroke:none;fill-rule:nonzero;fill:rgb(100%,100%,100%);fill-opacity:1;" d="M 257.957031 139.65625 C 257.957031 140 257.441406 140 257.441406 139.65625 C 257.441406 139.3125 257.957031 139.3125 257.957031 139.65625 "/>
<path style=" stroke:none;fill-rule:nonzero;fill:rgb(100%,100%,100%);fill-opacity:1;" d="M 322.855469 86.234375 C 322.855469 86.578125 322.339844 86.578125 322.339844 86.234375 C 322.339844 85.890625 322.855469 85.890625 322.855469 86.234375 "/>
<path style=" stroke:none;fill-rule:nonzero;fill:rgb(100%,100%,100%);fill-opacity:1;" d="M 238.449219 336.058594 C 238.449219 336.402344 237.933594 336.402344 237.933594 336.058594 C 237.933594 335.714844 238.449219 335.714844 238.449219 336.058594 "/>
<path style=" stroke:none;fill-rule:nonzero;fill:rgb(100%,100%,100%);fill-opacity:1;" d="M 290.125 215.367188 C 290.125 215.710938 289.609375 215.710938 289.609375 215.367188 C 289.609375 215.023438 290.125 215.023438 290.125 215.367188 "/>
<path style=" stroke:none;fill-rule:nonzero;fill:rgb(100%,100%,100%);fill-opacity:1;" d="M 9.160156 138.78125 C 9.160156 139.125 8.648438 139.125 8.648438 138.78125 C 8.648438 138.4375 9.160156 138.4375 9.160156 138.78125 "/>
<path style=" stroke:none;fill-rule:nonzero;fill:rgb(100%,100%,100%);fill-opacity:1;" d="M 323.371094 59.417969 C 323.371094 59.761719 322.855469 59.761719 322.855469 59.417969 C 322.855469 59.074219 323.371094 59.074219 323.371094 59.417969 "/>
<path style=" stroke:none;fill-rule:nonzero;fill:rgb(100%,100%,100%);fill-opacity:1;" d="M 219.253906 121.179688 C 219.253906 121.523438 218.738281 121.523438 218.738281 121.179688 C 218.738281 120.835938 219.253906 120.835938 219.253906 121.179688 "/>
<path style=" stroke:none;fill-rule:nonzero;fill:rgb(100%,100%,100%);fill-opacity:1;" d="M 222.648438 76.816406 C 222.648438 77.15625 222.132812 77.15625 222.132812 76.816406 C 222.132812 76.472656 222.648438 76.472656 222.648438 76.816406 "/>
<path style=" stroke:none;fill-rule:nonzero;fill:rgb(100%,100%,100%);fill-opacity:1;" d="M 408.1875 134.148438 C 408.1875 134.492188 407.675781 134.492188 407.675781 134.148438 C 407.675781 133.808594 408.1875 133.808594 408.1875 134.148438 "/>
<path style=" stroke:none;fill-rule:nonzero;fill:rgb(100%,100%,100%);fill-opacity:1;" d="M 16.058594 297.867188 C 16.058594 298.210938 15.542969 298.210938 15.542969 297.867188 C 15.542969 297.527344 16.058594 297.527344 16.058594 297.867188 "/>
<path style=" stroke:none;fill-rule:nonzero;fill:rgb(100%,100%,100%);fill-opacity:1;" d="M 173.445312 50.671875 C 173.445312 51.011719 172.933594 51.011719 172.933594 50.671875 C 172.933594 50.328125 173.445312 50.328125 173.445312 50.671875 "/>
<path style=" stroke:none;fill-rule:nonzero;fill:rgb(100%,100%,100%);fill-opacity:1;" d="M 495.425781 171.773438 C 495.425781 172.117188 494.914062 172.117188 494.914062 171.773438 C 494.914062 171.429688 495.425781 171.429688 495.425781 171.773438 "/>
<path style=" stroke:none;fill-rule:nonzero;fill:rgb(100%,100%,100%);fill-opacity:1;" d="M 397.125 244.34375 C 397.125 244.6875 396.609375 244.6875 396.609375 244.34375 C 396.609375 244 397.125 244 397.125 244.34375 "/>
<path style=" stroke:none;fill-rule:nonzero;fill:rgb(100%,100%,100%);fill-opacity:1;" d="M 488.890625 353.710938 C 488.890625 354.054688 488.375 354.054688 488.375 353.710938 C 488.375 353.367188 488.890625 353.367188 488.890625 353.710938 "/>
<path style=" stroke:none;fill-rule:nonzero;fill:rgb(100%,100%,100%);fill-opacity:1;" d="M 83.941406 172.546875 C 83.941406 172.886719 83.429688 172.886719 83.429688 172.546875 C 83.429688 172.203125 83.941406 172.203125 83.941406 172.546875 "/>
<path style=" stroke:none;fill-rule:nonzero;fill:rgb(100%,100%,100%);fill-opacity:1;" d="M 358.421875 191.949219 C 358.421875 192.292969 357.90625 192.292969 357.90625 191.949219 C 357.90625 191.605469 358.421875 191.605469 358.421875 191.949219 "/>
<path style=" stroke:none;fill-rule:nonzero;fill:rgb(100%,100%,100%);fill-opacity:1;" d="M 222.496094 283.5625 C 222.496094 283.902344 221.980469 283.902344 221.980469 283.5625 C 221.980469 283.21875 222.496094 283.21875 222.496094 283.5625 "/>
<path style=" stroke:none;fill-rule:nonzero;fill:rgb(100%,100%,100%);fill-opacity:1;" d="M 502.839844 72.027344 C 502.839844 72.371094 502.324219 72.371094 502.324219 72.027344 C 502.324219 71.6875 502.839844 71.6875 502.839844 72.027344 "/>
<path style=" stroke:none;fill-rule:nonzero;fill:rgb(100%,100%,100%);fill-opacity:1;" d="M 151.058594 323.652344 C 151.058594 323.996094 150.542969 323.996094 150.542969 323.652344 C 150.542969 323.3125 151.058594 323.3125 151.058594 323.652344 "/>
<path style=" stroke:none;fill-rule:nonzero;fill:rgb(100%,100%,100%);fill-opacity:1;" d="M 45.753906 322.160156 C 45.753906 322.503906 45.238281 322.503906 45.238281 322.160156 C 45.238281 321.820312 45.753906 321.820312 45.753906 322.160156 "/>
<path style=" stroke:none;fill-rule:nonzero;fill:rgb(100%,100%,100%);fill-opacity:1;" d="M 28.359375 363.851562 C 28.359375 364.191406 27.84375 364.191406 27.84375 363.851562 C 27.84375 363.507812 28.359375 363.507812 28.359375 363.851562 "/>
<path style=" stroke:none;fill-rule:nonzero;fill:rgb(100%,100%,100%);fill-opacity:1;" d="M 306.128906 360.351562 C 306.128906 360.695312 305.613281 360.695312 305.613281 360.351562 C 305.613281 360.007812 306.128906 360.007812 306.128906 360.351562 "/>
<path style=" stroke:none;fill-rule:nonzero;fill:rgb(100%,100%,100%);fill-opacity:1;" d="M 290.84375 127.871094 C 290.84375 128.214844 290.328125 128.214844 290.328125 127.871094 C 290.328125 127.527344 290.84375 127.527344 290.84375 127.871094 "/>
<path style=" stroke:none;fill-rule:nonzero;fill:rgb(100%,100%,100%);fill-opacity:1;" d="M 137.882812 192.464844 C 137.882812 192.804688 137.367188 192.804688 137.367188 192.464844 C 137.367188 192.121094 137.882812 192.121094 137.882812 192.464844 "/>
<path style=" stroke:none;fill-rule:nonzero;fill:rgb(100%,100%,100%);fill-opacity:1;" d="M 373.808594 289.738281 C 373.808594 290.082031 373.292969 290.082031 373.292969 289.738281 C 373.292969 289.394531 373.808594 289.394531 373.808594 289.738281 "/>
<path style=" stroke:none;fill-rule:nonzero;fill:rgb(100%,100%,100%);fill-opacity:1;" d="M 324.65625 443.984375 C 324.65625 444.328125 324.144531 444.328125 324.144531 443.984375 C 324.144531 443.644531 324.65625 443.644531 324.65625 443.984375 "/>
<path style=" stroke:none;fill-rule:nonzero;fill:rgb(100%,100%,100%);fill-opacity:1;" d="M 251.625 434.773438 C 251.625 435.117188 251.109375 435.117188 251.109375 434.773438 C 251.109375 434.429688 251.625 434.429688 251.625 434.773438 "/>
<path style=" stroke:none;fill-rule:nonzero;fill:rgb(100%,100%,100%);fill-opacity:1;" d="M 109.574219 478.109375 C 109.574219 478.453125 109.058594 478.453125 109.058594 478.109375 C 109.058594 477.765625 109.574219 477.765625 109.574219 478.109375 "/>
<path style=" stroke:none;fill-rule:nonzero;fill:rgb(100%,100%,100%);fill-opacity:1;" d="M 184.972656 413.515625 C 184.972656 413.859375 184.460938 413.859375 184.460938 413.515625 C 184.460938 413.175781 184.972656 413.175781 184.972656 413.515625 "/>
<path style=" stroke:none;fill-rule:nonzero;fill:rgb(100%,100%,100%);fill-opacity:1;" d="M 107.050781 413.621094 C 107.050781 413.964844 106.539062 413.964844 106.539062 413.621094 C 106.539062 413.277344 107.050781 413.277344 107.050781 413.621094 "/>
<path style=" stroke:none;fill-rule:nonzero;fill:rgb(100%,100%,100%);fill-opacity:1;" d="M 376.226562 226.636719 C 376.226562 226.980469 375.714844 226.980469 375.714844 226.636719 C 375.714844 226.292969 376.226562 226.292969 376.226562 226.636719 "/>
<path style=" stroke:none;fill-rule:nonzero;fill:rgb(100%,100%,100%);fill-opacity:1;" d="M 121.257812 478.726562 C 121.257812 479.070312 120.742188 479.070312 120.742188 478.726562 C 120.742188 478.382812 121.257812 478.382812 121.257812 478.726562 "/>
<path style=" stroke:none;fill-rule:nonzero;fill:rgb(100%,100%,100%);fill-opacity:1;" d="M 381.632812 476.667969 C 381.632812 477.011719 381.117188 477.011719 381.117188 476.667969 C 381.117188 476.324219 381.632812 476.324219 381.632812 476.667969 "/>
<path style=" stroke:none;fill-rule:nonzero;fill:rgb(100%,100%,100%);fill-opacity:1;" d="M 213.691406 391.386719 C 213.691406 391.730469 213.179688 391.730469 213.179688 391.386719 C 213.179688 391.042969 213.691406 391.042969 213.691406 391.386719 "/>
<path style=" stroke:none;fill-rule:nonzero;fill:rgb(100%,100%,100%);fill-opacity:1;" d="M 276.074219 427.929688 C 276.074219 428.269531 275.558594 428.269531 275.558594 427.929688 C 275.558594 427.585938 276.074219 427.585938 276.074219 427.929688 "/>
<path style=" stroke:none;fill-rule:nonzero;fill:rgb(100%,100%,100%);fill-opacity:1;" d="M 160.117188 339.25 C 160.117188 339.59375 159.601562 339.59375 159.601562 339.25 C 159.601562 338.90625 160.117188 338.90625 160.117188 339.25 "/>
<path style=" stroke:none;fill-rule:nonzero;fill:rgb(100%,100%,100%);fill-opacity:1;" d="M 489.199219 331.941406 C 489.199219 332.28125 488.6875 332.28125 488.6875 331.941406 C 488.6875 331.597656 489.199219 331.597656 489.199219 331.941406 "/>
<path style=" stroke:none;fill-rule:nonzero;fill:rgb(100%,100%,100%);fill-opacity:1;" d="M 236.699219 259.371094 C 236.699219 259.714844 236.183594 259.714844 236.183594 259.371094 C 236.183594 259.027344 236.699219 259.027344 236.699219 259.371094 "/>
<path style=" stroke:none;fill-rule:nonzero;fill:rgb(100%,100%,100%);fill-opacity:1;" d="M 125.375 44.648438 C 125.375 44.992188 124.859375 44.992188 124.859375 44.648438 C 124.859375 44.304688 125.375 44.304688 125.375 44.648438 "/>
<path style=" stroke:none;fill-rule:nonzero;fill:rgb(100%,100%,100%);fill-opacity:1;" d="M 315.34375 387.679688 C 315.34375 388.023438 314.828125 388.023438 314.828125 387.679688 C 314.828125 387.335938 315.34375 387.335938 315.34375 387.679688 "/>
<path style=" stroke:none;fill-rule:nonzero;fill:rgb(100%,100%,100%);fill-opacity:1;" d="M 246.992188 394.886719 C 246.992188 395.226562 246.480469 395.226562 246.480469 394.886719 C 246.480469 394.542969 246.992188 394.542969 246.992188 394.886719 "/>
<path style=" stroke:none;fill-rule:nonzero;fill:rgb(100%,100%,100%);fill-opacity:1;" d="M 154.710938 355.5625 C 154.710938 355.90625 154.195312 355.90625 154.195312 355.5625 C 154.195312 355.222656 154.710938 355.222656 154.710938 355.5625 "/>
<path style=" stroke:none;fill-rule:nonzero;fill:rgb(100%,100%,100%);fill-opacity:1;" d="M 417.503906 407.339844 C 417.503906 407.683594 416.992188 407.683594 416.992188 407.339844 C 416.992188 406.996094 417.503906 406.996094 417.503906 407.339844 "/>
<path style=" stroke:none;fill-rule:nonzero;fill:rgb(100%,100%,100%);fill-opacity:1;" d="M 340.40625 457.058594 C 340.40625 457.402344 339.894531 457.402344 339.894531 457.058594 C 339.894531 456.714844 340.40625 456.714844 340.40625 457.058594 "/>
<path style=" stroke:none;fill-rule:nonzero;fill:rgb(100%,100%,100%);fill-opacity:1;" d="M 223.265625 332.042969 C 223.265625 332.386719 222.75 332.386719 222.75 332.042969 C 222.75 331.699219 223.265625 331.699219 223.265625 332.042969 "/>
<path style=" stroke:none;fill-rule:nonzero;fill:rgb(100%,100%,100%);fill-opacity:1;" d="M 383.226562 130.03125 C 383.226562 130.375 382.714844 130.375 382.714844 130.03125 C 382.714844 129.691406 383.226562 129.691406 383.226562 130.03125 "/>
<path style=" stroke:none;fill-rule:nonzero;fill:rgb(100%,100%,100%);fill-opacity:1;" d="M 50.285156 327.359375 C 50.285156 327.703125 49.769531 327.703125 49.769531 327.359375 C 49.769531 327.015625 50.285156 327.015625 50.285156 327.359375 "/>
<path style=" stroke:none;fill-rule:nonzero;fill:rgb(100%,100%,100%);fill-opacity:1;" d="M 169.019531 109.703125 C 169.019531 110.046875 168.503906 110.046875 168.503906 109.703125 C 168.503906 109.359375 169.019531 109.359375 169.019531 109.703125 "/>
<path style=" stroke:none;fill-rule:nonzero;fill:rgb(100%,100%,100%);fill-opacity:1;" d="M 339.273438 124.113281 C 339.273438 124.457031 338.757812 124.457031 338.757812 124.113281 C 338.757812 123.769531 339.273438 123.769531 339.273438 124.113281 "/>
<path style=" stroke:none;fill-rule:nonzero;fill:rgb(100%,100%,100%);fill-opacity:1;" d="M 122.75 176.921875 C 122.75 177.261719 122.234375 177.261719 122.234375 176.921875 C 122.234375 176.578125 122.75 176.578125 122.75 176.921875 "/>
<path style=" stroke:none;fill-rule:nonzero;fill:rgb(100%,100%,100%);fill-opacity:1;" d="M 181.679688 258.1875 C 181.679688 258.53125 181.164062 258.53125 181.164062 258.1875 C 181.164062 257.84375 181.679688 257.84375 181.679688 258.1875 "/>
<path style=" stroke:none;fill-rule:nonzero;fill:rgb(100%,100%,100%);fill-opacity:1;" d="M 265.46875 403.890625 C 265.46875 404.234375 264.957031 404.234375 264.957031 403.890625 C 264.957031 403.550781 265.46875 403.550781 265.46875 403.890625 "/>
<path style=" stroke:none;fill-rule:nonzero;fill:rgb(100%,100%,100%);fill-opacity:1;" d="M 376.742188 319.382812 C 376.742188 319.726562 376.230469 319.726562 376.230469 319.382812 C 376.230469 319.039062 376.742188 319.039062 376.742188 319.382812 "/>
<path style=" stroke:none;fill-rule:nonzero;fill:rgb(100%,100%,100%);fill-opacity:1;" d="M 373.242188 58.542969 C 373.242188 58.886719 372.730469 58.886719 372.730469 58.542969 C 372.730469 58.199219 373.242188 58.199219 373.242188 58.542969 "/>
<path style=" stroke:none;fill-rule:nonzero;fill:rgb(100%,100%,100%);fill-opacity:1;" d="M 55.429688 302.039062 C 55.429688 302.382812 54.914062 302.382812 54.914062 302.039062 C 54.914062 301.695312 55.429688 301.695312 55.429688 302.039062 "/>
<path style=" stroke:none;fill-rule:nonzero;fill:rgb(100%,100%,100%);fill-opacity:1;" d="M 1.339844 205.328125 C 1.339844 205.671875 0.824219 205.671875 0.824219 205.328125 C 0.824219 204.988281 1.339844 204.988281 1.339844 205.328125 "/>
<path style=" stroke:none;fill-rule:nonzero;fill:rgb(100%,100%,100%);fill-opacity:1;" d="M 486.113281 383.203125 C 486.113281 383.546875 485.597656 383.546875 485.597656 383.203125 C 485.597656 382.859375 486.113281 382.859375 486.113281 383.203125 "/>
<path style=" stroke:none;fill-rule:nonzero;fill:rgb(100%,100%,100%);fill-opacity:1;" d="M 153.835938 389.789062 C 153.835938 390.132812 153.320312 390.132812 153.320312 389.789062 C 153.320312 389.445312 153.835938 389.445312 153.835938 389.789062 "/>
<path style=" stroke:none;fill-rule:nonzero;fill:rgb(100%,100%,100%);fill-opacity:1;" d="M 337.730469 344.703125 C 337.730469 345.046875 337.214844 345.046875 337.214844 344.703125 C 337.214844 344.359375 337.730469 344.359375 337.730469 344.703125 "/>
<path style=" stroke:none;fill-rule:nonzero;fill:rgb(100%,100%,100%);fill-opacity:1;" d="M 91.355469 135.28125 C 91.355469 135.625 90.839844 135.625 90.839844 135.28125 C 90.839844 134.941406 91.355469 134.941406 91.355469 135.28125 "/>
<path style=" stroke:none;fill-rule:nonzero;fill:rgb(100%,100%,100%);fill-opacity:1;" d="M 293.160156 200.234375 C 293.160156 200.578125 292.644531 200.578125 292.644531 200.234375 C 292.644531 199.890625 293.160156 199.890625 293.160156 200.234375 "/>
<path style=" stroke:none;fill-rule:nonzero;fill:rgb(100%,100%,100%);fill-opacity:1;" d="M 211.480469 472.191406 C 211.480469 472.53125 210.964844 472.53125 210.964844 472.191406 C 210.964844 471.847656 211.480469 471.847656 211.480469 472.191406 "/>
<path style=" stroke:none;fill-rule:nonzero;fill:rgb(100%,100%,100%);fill-opacity:1;" d="M 102.679688 379.960938 C 102.679688 380.304688 102.164062 380.304688 102.164062 379.960938 C 102.164062 379.617188 102.679688 379.617188 102.679688 379.960938 "/>
<path style=" stroke:none;fill-rule:nonzero;fill:rgb(100%,100%,100%);fill-opacity:1;" d="M 257.59375 376.820312 C 257.59375 377.164062 257.082031 377.164062 257.082031 376.820312 C 257.082031 376.476562 257.59375 376.476562 257.59375 376.820312 "/>
<path style=" stroke:none;fill-rule:nonzero;fill:rgb(100%,100%,100%);fill-opacity:1;" d="M 410.761719 140.636719 C 410.761719 140.976562 410.25 140.976562 410.25 140.636719 C 410.25 140.292969 410.761719 140.292969 410.761719 140.636719 "/>
<path style=" stroke:none;fill-rule:nonzero;fill:rgb(100%,100%,100%);fill-opacity:1;" d="M 420.386719 99.667969 C 420.386719 100.011719 419.871094 100.011719 419.871094 99.667969 C 419.871094 99.324219 420.386719 99.324219 420.386719 99.667969 "/>
<path style=" stroke:none;fill-rule:nonzero;fill:rgb(100%,100%,100%);fill-opacity:1;" d="M 497.949219 274.964844 C 497.949219 275.308594 497.433594 275.308594 497.433594 274.964844 C 497.433594 274.621094 497.949219 274.621094 497.949219 274.964844 "/>
<path style=" stroke:none;fill-rule:nonzero;fill:rgb(100%,100%,100%);fill-opacity:1;" d="M 108.339844 403.839844 C 108.339844 404.183594 107.824219 404.183594 107.824219 403.839844 C 107.824219 403.496094 108.339844 403.496094 108.339844 403.839844 "/>
<path style=" stroke:none;fill-rule:nonzero;fill:rgb(100%,100%,100%);fill-opacity:1;" d="M 397.535156 275.6875 C 397.535156 276.027344 397.023438 276.027344 397.023438 275.6875 C 397.023438 275.34375 397.535156 275.34375 397.535156 275.6875 "/>
<path style=" stroke:none;fill-rule:nonzero;fill:rgb(100%,100%,100%);fill-opacity:1;" d="M 365.832031 374.503906 C 365.832031 374.847656 365.316406 374.847656 365.316406 374.503906 C 365.316406 374.160156 365.832031 374.160156 365.832031 374.503906 "/>
<path style=" stroke:none;fill-rule:nonzero;fill:rgb(100%,100%,100%);fill-opacity:1;" d="M 412.875 194.933594 C 412.875 195.277344 412.359375 195.277344 412.359375 194.933594 C 412.359375 194.589844 412.875 194.589844 412.875 194.933594 "/>
<path style=" stroke:none;fill-rule:nonzero;fill:rgb(100%,100%,100%);fill-opacity:1;" d="M 60.730469 151.082031 C 60.730469 151.425781 60.214844 151.425781 60.214844 151.082031 C 60.214844 150.738281 60.730469 150.738281 60.730469 151.082031 "/>
<path style=" stroke:none;fill-rule:nonzero;fill:rgb(100%,100%,100%);fill-opacity:1;" d="M 457.03125 156.4375 C 457.03125 156.777344 456.519531 156.777344 456.519531 156.4375 C 456.519531 156.09375 457.03125 156.09375 457.03125 156.4375 "/>
<path style=" stroke:none;fill-rule:nonzero;fill:rgb(100%,100%,100%);fill-opacity:1;" d="M 160.117188 52.675781 C 160.117188 53.019531 159.601562 53.019531 159.601562 52.675781 C 159.601562 52.332031 160.117188 52.332031 160.117188 52.675781 "/>
<path style=" stroke:none;fill-rule:nonzero;fill:rgb(100%,100%,100%);fill-opacity:1;" d="M 234.074219 267.453125 C 234.074219 267.796875 233.558594 267.796875 233.558594 267.453125 C 233.558594 267.109375 234.074219 267.109375 234.074219 267.453125 "/>
<path style=" stroke:none;fill-rule:nonzero;fill:rgb(100%,100%,100%);fill-opacity:1;" d="M 429.1875 269.355469 C 429.1875 269.699219 428.671875 269.699219 428.671875 269.355469 C 428.671875 269.011719 429.1875 269.011719 429.1875 269.355469 "/>
<path style=" stroke:none;fill-rule:nonzero;fill:rgb(100%,100%,100%);fill-opacity:1;" d="M 47.660156 84.535156 C 47.660156 84.878906 47.144531 84.878906 47.144531 84.535156 C 47.144531 84.191406 47.660156 84.191406 47.660156 84.535156 "/>
<path style=" stroke:none;fill-rule:nonzero;fill:rgb(100%,100%,100%);fill-opacity:1;" d="M 28.253906 29.878906 C 28.253906 30.21875 27.742188 30.21875 27.742188 29.878906 C 27.742188 29.535156 28.253906 29.535156 28.253906 29.878906 "/>
<path style=" stroke:none;fill-rule:nonzero;fill:rgb(100%,100%,100%);fill-opacity:1;" d="M 303.195312 30.699219 C 303.195312 31.042969 302.679688 31.042969 302.679688 30.699219 C 302.679688 30.355469 303.195312 30.355469 303.195312 30.699219 "/>
<path style=" stroke:none;fill-rule:nonzero;fill:rgb(100%,100%,100%);fill-opacity:1;" d="M 322.753906 431.683594 C 322.753906 432.027344 322.238281 432.027344 322.238281 431.683594 C 322.238281 431.34375 322.753906 431.34375 322.753906 431.683594 "/>
<path style=" stroke:none;fill-rule:nonzero;fill:rgb(100%,100%,100%);fill-opacity:1;" d="M 488.425781 228.851562 C 488.425781 229.195312 487.914062 229.195312 487.914062 228.851562 C 487.914062 228.507812 488.425781 228.507812 488.425781 228.851562 "/>
<path style=" stroke:none;fill-rule:nonzero;fill:rgb(100%,100%,100%);fill-opacity:1;" d="M 276.792969 203.632812 C 276.792969 203.976562 276.277344 203.976562 276.277344 203.632812 C 276.277344 203.289062 276.792969 203.289062 276.792969 203.632812 "/>
<path style=" stroke:none;fill-rule:nonzero;fill:rgb(100%,100%,100%);fill-opacity:1;" d="M 438.761719 147.070312 C 438.761719 147.414062 438.246094 147.414062 438.246094 147.070312 C 438.246094 146.726562 438.761719 146.726562 438.761719 147.070312 "/>
<path style=" stroke:none;fill-rule:nonzero;fill:rgb(100%,100%,100%);fill-opacity:1;" d="M 240.40625 109.035156 C 240.40625 109.378906 239.890625 109.378906 239.890625 109.035156 C 239.890625 108.691406 240.40625 108.691406 240.40625 109.035156 "/>
<path style=" stroke:none;fill-rule:nonzero;fill:rgb(100%,100%,100%);fill-opacity:1;" d="M 508.089844 250.621094 C 508.089844 250.964844 507.574219 250.964844 507.574219 250.621094 C 507.574219 250.277344 508.089844 250.277344 508.089844 250.621094 "/>
<path style=" stroke:none;fill-rule:nonzero;fill:rgb(100%,100%,100%);fill-opacity:1;" d="M 234.230469 344.292969 C 234.230469 344.636719 233.714844 344.636719 233.714844 344.292969 C 233.714844 343.949219 234.230469 343.949219 234.230469 344.292969 "/>
<path style=" stroke:none;fill-rule:nonzero;fill:rgb(100%,100%,100%);fill-opacity:1;" d="M 373.65625 50.257812 C 373.65625 50.601562 373.140625 50.601562 373.140625 50.257812 C 373.140625 49.914062 373.65625 49.914062 373.65625 50.257812 "/>
<path style=" stroke:none;fill-rule:nonzero;fill:rgb(100%,100%,100%);fill-opacity:1;" d="M 429.652344 290.40625 C 429.652344 290.75 429.136719 290.75 429.136719 290.40625 C 429.136719 290.0625 429.652344 290.0625 429.652344 290.40625 "/>
<path style=" stroke:none;fill-rule:nonzero;fill:rgb(100%,100%,100%);fill-opacity:1;" d="M 478.441406 421.855469 C 478.441406 422.195312 477.929688 422.195312 477.929688 421.855469 C 477.929688 421.511719 478.441406 421.511719 478.441406 421.855469 "/>
<path style=" stroke:none;fill-rule:nonzero;fill:rgb(100%,100%,100%);fill-opacity:1;" d="M 334.539062 447.898438 C 334.539062 448.238281 334.023438 448.238281 334.023438 447.898438 C 334.023438 447.554688 334.539062 447.554688 334.539062 447.898438 "/>
<path style=" stroke:none;fill-rule:nonzero;fill:rgb(100%,100%,100%);fill-opacity:1;" d="M 134.433594 419.230469 C 134.433594 419.574219 133.917969 419.574219 133.917969 419.230469 C 133.917969 418.886719 134.433594 418.886719 134.433594 419.230469 "/>
<path style=" stroke:none;fill-rule:nonzero;fill:rgb(100%,100%,100%);fill-opacity:1;" d="M 249.976562 422.933594 C 249.976562 423.277344 249.464844 423.277344 249.464844 422.933594 C 249.464844 422.59375 249.976562 422.59375 249.976562 422.933594 "/>
<path style=" stroke:none;fill-rule:nonzero;fill:rgb(100%,100%,100%);fill-opacity:1;" d="M 76.945312 210.785156 C 76.945312 211.128906 76.429688 211.128906 76.429688 210.785156 C 76.429688 210.441406 76.945312 210.441406 76.945312 210.785156 "/>
<path style=" stroke:none;fill-rule:nonzero;fill:rgb(100%,100%,100%);fill-opacity:1;" d="M 248.949219 125.8125 C 248.949219 126.15625 248.433594 126.15625 248.433594 125.8125 C 248.433594 125.46875 248.949219 125.46875 248.949219 125.8125 "/>
<path style=" stroke:none;fill-rule:nonzero;fill:rgb(100%,100%,100%);fill-opacity:1;" d="M 232.839844 314.597656 C 232.839844 314.9375 232.324219 314.9375 232.324219 314.597656 C 232.324219 314.253906 232.839844 314.253906 232.839844 314.597656 "/>
<path style=" stroke:none;fill-rule:nonzero;fill:rgb(100%,100%,100%);fill-opacity:1;" d="M 364.800781 419.488281 C 364.800781 419.832031 364.289062 419.832031 364.289062 419.488281 C 364.289062 419.144531 364.800781 419.144531 364.800781 419.488281 "/>
<path style=" stroke:none;fill-rule:nonzero;fill:rgb(100%,100%,100%);fill-opacity:1;" d="M 297.070312 33.429688 C 297.070312 33.769531 296.558594 33.769531 296.558594 33.429688 C 296.558594 33.085938 297.070312 33.085938 297.070312 33.429688 "/>
<path style=" stroke:none;fill-rule:nonzero;fill:rgb(100%,100%,100%);fill-opacity:1;" d="M 349.566406 273.835938 C 349.566406 274.175781 349.054688 274.175781 349.054688 273.835938 C 349.054688 273.492188 349.566406 273.492188 349.566406 273.835938 "/>
<path style=" stroke:none;fill-rule:nonzero;fill:rgb(100%,100%,100%);fill-opacity:1;" d="M 429.136719 267.914062 C 429.136719 268.257812 428.621094 268.257812 428.621094 267.914062 C 428.621094 267.570312 429.136719 267.570312 429.136719 267.914062 "/>
<path style=" stroke:none;fill-rule:nonzero;fill:rgb(100%,100%,100%);fill-opacity:1;" d="M 80.804688 361.378906 C 80.804688 361.722656 80.289062 361.722656 80.289062 361.378906 C 80.289062 361.035156 80.804688 361.035156 80.804688 361.378906 "/>
<path style=" stroke:none;fill-rule:nonzero;fill:rgb(100%,100%,100%);fill-opacity:1;" d="M 96.863281 234.769531 C 96.863281 235.113281 96.347656 235.113281 96.347656 234.769531 C 96.347656 234.425781 96.863281 234.425781 96.863281 234.769531 "/>
<path style=" stroke:none;fill-rule:nonzero;fill:rgb(100%,100%,100%);fill-opacity:1;" d="M 234.539062 87.625 C 234.539062 87.96875 234.023438 87.96875 234.023438 87.625 C 234.023438 87.28125 234.539062 87.28125 234.539062 87.625 "/>
<path style=" stroke:none;fill-rule:nonzero;fill:rgb(100%,100%,100%);fill-opacity:1;" d="M 462.796875 143.621094 C 462.796875 143.964844 462.28125 143.964844 462.28125 143.621094 C 462.28125 143.277344 462.796875 143.277344 462.796875 143.621094 "/>
<path style=" stroke:none;fill-rule:nonzero;fill:rgb(100%,100%,100%);fill-opacity:1;" d="M 217.140625 270.488281 C 217.140625 270.832031 216.628906 270.832031 216.628906 270.488281 C 216.628906 270.144531 217.140625 270.144531 217.140625 270.488281 "/>
<path style=" stroke:none;fill-rule:nonzero;fill:rgb(100%,100%,100%);fill-opacity:1;" d="M 495.992188 337.035156 C 495.992188 337.378906 495.480469 337.378906 495.480469 337.035156 C 495.480469 336.691406 495.992188 336.691406 495.992188 337.035156 "/>
<path style=" stroke:none;fill-rule:nonzero;fill:rgb(100%,100%,100%);fill-opacity:1;" d="M 262.949219 131.628906 C 262.949219 131.972656 262.433594 131.972656 262.433594 131.628906 C 262.433594 131.285156 262.949219 131.285156 262.949219 131.628906 "/>
<path style=" stroke:none;fill-rule:nonzero;fill:rgb(100%,100%,100%);fill-opacity:1;" d="M 119.300781 257.003906 C 119.300781 257.347656 118.789062 257.347656 118.789062 257.003906 C 118.789062 256.660156 119.300781 256.660156 119.300781 257.003906 "/>
<path style=" stroke:none;fill-rule:nonzero;fill:rgb(100%,100%,100%);fill-opacity:1;" d="M 388.890625 272.699219 C 388.890625 273.042969 388.375 273.042969 388.375 272.699219 C 388.375 272.359375 388.890625 272.359375 388.890625 272.699219 "/>
<path style=" stroke:none;fill-rule:nonzero;fill:rgb(100%,100%,100%);fill-opacity:1;" d="M 438.246094 406.414062 C 438.246094 406.757812 437.734375 406.757812 437.734375 406.414062 C 437.734375 406.070312 438.246094 406.070312 438.246094 406.414062 "/>
<path style=" stroke:none;fill-rule:nonzero;fill:rgb(100%,100%,100%);fill-opacity:1;" d="M 443.753906 444.292969 C 443.753906 444.636719 443.238281 444.636719 443.238281 444.292969 C 443.238281 443.949219 443.753906 443.949219 443.753906 444.292969 "/>
<path style=" stroke:none;fill-rule:nonzero;fill:rgb(100%,100%,100%);fill-opacity:1;" d="M 182.761719 193.027344 C 182.761719 193.371094 182.246094 193.371094 182.246094 193.027344 C 182.246094 192.6875 182.761719 192.6875 182.761719 193.027344 "/>
<path style=" stroke:none;fill-rule:nonzero;fill:rgb(100%,100%,100%);fill-opacity:1;" d="M 25.785156 258.1875 C 25.785156 258.53125 25.269531 258.53125 25.269531 258.1875 C 25.269531 257.84375 25.785156 257.84375 25.785156 258.1875 "/>
<path style=" stroke:none;fill-rule:nonzero;fill:rgb(100%,100%,100%);fill-opacity:1;" d="M 365.832031 117.527344 C 365.832031 117.867188 365.316406 117.867188 365.316406 117.527344 C 365.316406 117.183594 365.832031 117.183594 365.832031 117.527344 "/>
<path style=" stroke:none;fill-rule:nonzero;fill:rgb(100%,100%,100%);fill-opacity:1;" d="M 390.019531 384.902344 C 390.019531 385.242188 389.507812 385.242188 389.507812 384.902344 C 389.507812 384.558594 390.019531 384.558594 390.019531 384.902344 "/>
<path style=" stroke:none;fill-rule:nonzero;fill:rgb(100%,100%,100%);fill-opacity:1;" d="M 47.917969 104.246094 C 47.917969 104.589844 47.402344 104.589844 47.402344 104.246094 C 47.402344 103.90625 47.917969 103.90625 47.917969 104.246094 "/>
<path style=" stroke:none;fill-rule:nonzero;fill:rgb(100%,100%,100%);fill-opacity:1;" d="M 376.539062 34.355469 C 376.539062 34.699219 376.023438 34.699219 376.023438 34.355469 C 376.023438 34.011719 376.539062 34.011719 376.539062 34.355469 "/>
<path style=" stroke:none;fill-rule:nonzero;fill:rgb(100%,100%,100%);fill-opacity:1;" d="M 237.988281 150.722656 C 237.988281 151.066406 237.472656 151.066406 237.472656 150.722656 C 237.472656 150.378906 237.988281 150.378906 237.988281 150.722656 "/>
<path style=" stroke:none;fill-rule:nonzero;fill:rgb(100%,100%,100%);fill-opacity:1;" d="M 107.414062 480.886719 C 107.414062 481.230469 106.898438 481.230469 106.898438 480.886719 C 106.898438 480.542969 107.414062 480.542969 107.414062 480.886719 "/>
<path style=" stroke:none;fill-rule:nonzero;fill:rgb(100%,100%,100%);fill-opacity:1;" d="M 189.660156 323.808594 C 189.660156 324.152344 189.144531 324.152344 189.144531 323.808594 C 189.144531 323.464844 189.660156 323.464844 189.660156 323.808594 "/>
<path style=" stroke:none;fill-rule:nonzero;fill:rgb(100%,100%,100%);fill-opacity:1;" d="M 186.105469 263.589844 C 186.105469 263.933594 185.59375 263.933594 185.59375 263.589844 C 185.59375 263.246094 186.105469 263.246094 186.105469 263.589844 "/>
<path style=" stroke:none;fill-rule:nonzero;fill:rgb(100%,100%,100%);fill-opacity:1;" d="M 56.203125 53.449219 C 56.203125 53.792969 55.6875 53.792969 55.6875 53.449219 C 55.6875 53.105469 56.203125 53.105469 56.203125 53.449219 "/>
<path style=" stroke:none;fill-rule:nonzero;fill:rgb(100%,100%,100%);fill-opacity:1;" d="M 133.457031 236.726562 C 133.457031 237.066406 132.941406 237.066406 132.941406 236.726562 C 132.941406 236.382812 133.457031 236.382812 133.457031 236.726562 "/>
<path style=" stroke:none;fill-rule:nonzero;fill:rgb(100%,100%,100%);fill-opacity:1;" d="M 137.519531 83.453125 C 137.519531 83.796875 137.007812 83.796875 137.007812 83.453125 C 137.007812 83.113281 137.519531 83.113281 137.519531 83.453125 "/>
<path style=" stroke:none;fill-rule:nonzero;fill:rgb(100%,100%,100%);fill-opacity:1;" d="M 307.570312 347.382812 C 307.570312 347.722656 307.054688 347.722656 307.054688 347.382812 C 307.054688 347.039062 307.570312 347.039062 307.570312 347.382812 "/>
<path style=" stroke:none;fill-rule:nonzero;fill:rgb(100%,100%,100%);fill-opacity:1;" d="M 110.140625 392.929688 C 110.140625 393.273438 109.625 393.273438 109.625 392.929688 C 109.625 392.585938 110.140625 392.585938 110.140625 392.929688 "/>
<path style=" stroke:none;fill-rule:nonzero;fill:rgb(100%,100%,100%);fill-opacity:1;" d="M 158.519531 437.5 C 158.519531 437.84375 158.003906 437.84375 158.003906 437.5 C 158.003906 437.15625 158.519531 437.15625 158.519531 437.5 "/>
<path style=" stroke:none;fill-rule:nonzero;fill:rgb(100%,100%,100%);fill-opacity:1;" d="M 103.191406 367.453125 C 103.191406 367.796875 102.675781 367.796875 102.675781 367.453125 C 102.675781 367.109375 103.191406 367.109375 103.191406 367.453125 "/>
<path style=" stroke:none;fill-rule:nonzero;fill:rgb(100%,100%,100%);fill-opacity:1;" d="M 250.597656 207.492188 C 250.597656 207.835938 250.082031 207.835938 250.082031 207.492188 C 250.082031 207.148438 250.597656 207.148438 250.597656 207.492188 "/>
<path style=" stroke:none;fill-rule:nonzero;fill:rgb(100%,100%,100%);fill-opacity:1;" d="M 343.1875 392.828125 C 343.1875 393.171875 342.671875 393.171875 342.671875 392.828125 C 342.671875 392.484375 343.1875 392.484375 343.1875 392.828125 "/>
<path style=" stroke:none;fill-rule:nonzero;fill:rgb(100%,100%,100%);fill-opacity:1;" d="M 184.5625 314.492188 C 184.5625 314.835938 184.046875 314.835938 184.046875 314.492188 C 184.046875 314.148438 184.5625 314.148438 184.5625 314.492188 "/>
<path style=" stroke:none;fill-rule:nonzero;fill:rgb(100%,100%,100%);fill-opacity:1;" d="M 372.574219 449.285156 C 372.574219 449.628906 372.058594 449.628906 372.058594 449.285156 C 372.058594 448.945312 372.574219 448.945312 372.574219 449.285156 "/>
<path style=" stroke:none;fill-rule:nonzero;fill:rgb(100%,100%,100%);fill-opacity:1;" d="M 498.824219 263.539062 C 498.824219 263.882812 498.308594 263.882812 498.308594 263.539062 C 498.308594 263.195312 498.824219 263.195312 498.824219 263.539062 "/>
<path style=" stroke:none;fill-rule:nonzero;fill:rgb(100%,100%,100%);fill-opacity:1;" d="M 352.296875 312.125 C 352.296875 312.46875 351.78125 312.46875 351.78125 312.125 C 351.78125 311.78125 352.296875 311.78125 352.296875 312.125 "/>
<path style=" stroke:none;fill-rule:nonzero;fill:rgb(100%,100%,100%);fill-opacity:1;" d="M 305.667969 214.386719 C 305.667969 214.730469 305.152344 214.730469 305.152344 214.386719 C 305.152344 214.042969 305.667969 214.042969 305.667969 214.386719 "/>
<path style=" stroke:none;fill-rule:nonzero;fill:rgb(100%,100%,100%);fill-opacity:1;" d="M 118.324219 226.226562 C 118.324219 226.570312 117.808594 226.570312 117.808594 226.226562 C 117.808594 225.882812 118.324219 225.882812 118.324219 226.226562 "/>
<path style=" stroke:none;fill-rule:nonzero;fill:rgb(100%,100%,100%);fill-opacity:1;" d="M 99.949219 379.238281 C 99.949219 379.582031 99.4375 379.582031 99.4375 379.238281 C 99.4375 378.894531 99.949219 378.894531 99.949219 379.238281 "/>
<path style=" stroke:none;fill-rule:nonzero;fill:rgb(100%,100%,100%);fill-opacity:1;" d="M 423.167969 164.566406 C 423.167969 164.910156 422.652344 164.910156 422.652344 164.566406 C 422.652344 164.226562 423.167969 164.226562 423.167969 164.566406 "/>
<path style=" stroke:none;fill-rule:nonzero;fill:rgb(100%,100%,100%);fill-opacity:1;" d="M 397.484375 304.714844 C 397.484375 305.058594 396.96875 305.058594 396.96875 304.714844 C 396.96875 304.371094 397.484375 304.371094 397.484375 304.714844 "/>
<path style=" stroke:none;fill-rule:nonzero;fill:rgb(100%,100%,100%);fill-opacity:1;" d="M 158.417969 197.96875 C 158.417969 198.3125 157.902344 198.3125 157.902344 197.96875 C 157.902344 197.625 158.417969 197.625 158.417969 197.96875 "/>
<path style=" stroke:none;fill-rule:nonzero;fill:rgb(100%,100%,100%);fill-opacity:1;" d="M 158.210938 466.117188 C 158.210938 466.460938 157.695312 466.460938 157.695312 466.117188 C 157.695312 465.773438 158.210938 465.773438 158.210938 466.117188 "/>
<path style=" stroke:none;fill-rule:nonzero;fill:rgb(100%,100%,100%);fill-opacity:1;" d="M 76.789062 188.191406 C 76.789062 188.535156 76.273438 188.535156 76.273438 188.191406 C 76.273438 187.847656 76.789062 187.847656 76.789062 188.191406 "/>
<path style=" stroke:none;fill-rule:nonzero;fill:rgb(100%,100%,100%);fill-opacity:1;" d="M 226.972656 163.898438 C 226.972656 164.242188 226.457031 164.242188 226.457031 163.898438 C 226.457031 163.554688 226.972656 163.554688 226.972656 163.898438 "/>
<path style=" stroke:none;fill-rule:nonzero;fill:rgb(100%,100%,100%);fill-opacity:1;" d="M 309.730469 114.644531 C 309.730469 114.988281 309.21875 114.988281 309.21875 114.644531 C 309.21875 114.300781 309.730469 114.300781 309.730469 114.644531 "/>
<path style=" stroke:none;fill-rule:nonzero;fill:rgb(100%,100%,100%);fill-opacity:1;" d="M 400.574219 50 C 400.574219 50.34375 400.058594 50.34375 400.058594 50 C 400.058594 49.65625 400.574219 49.65625 400.574219 50 "/>
<path style=" stroke:none;fill-rule:nonzero;fill:rgb(100%,100%,100%);fill-opacity:1;" d="M 216.371094 451.089844 C 216.371094 451.429688 215.855469 451.429688 215.855469 451.089844 C 215.855469 450.746094 216.371094 450.746094 216.371094 451.089844 "/>
<path style=" stroke:none;fill-rule:nonzero;fill:rgb(100%,100%,100%);fill-opacity:1;" d="M 398.667969 284.746094 C 398.667969 285.089844 398.152344 285.089844 398.152344 284.746094 C 398.152344 284.402344 398.667969 284.402344 398.667969 284.746094 "/>
<path style=" stroke:none;fill-rule:nonzero;fill:rgb(100%,100%,100%);fill-opacity:1;" d="M 385.234375 230.238281 C 385.234375 230.582031 384.71875 230.582031 384.71875 230.238281 C 384.71875 229.898438 385.234375 229.898438 385.234375 230.238281 "/>
<path style=" stroke:none;fill-rule:nonzero;fill:rgb(100%,100%,100%);fill-opacity:1;" d="M 163.875 464.367188 C 163.875 464.710938 163.359375 464.710938 163.359375 464.367188 C 163.359375 464.023438 163.875 464.023438 163.875 464.367188 "/>
<path style=" stroke:none;fill-rule:nonzero;fill:rgb(100%,100%,100%);fill-opacity:1;" d="M 389.40625 291.847656 C 389.40625 292.191406 388.890625 292.191406 388.890625 291.847656 C 388.890625 291.503906 389.40625 291.503906 389.40625 291.847656 "/>
<path style=" stroke:none;fill-rule:nonzero;fill:rgb(100%,100%,100%);fill-opacity:1;" d="M 277.152344 120.460938 C 277.152344 120.804688 276.636719 120.804688 276.636719 120.460938 C 276.636719 120.117188 277.152344 120.117188 277.152344 120.460938 "/>
<path style=" stroke:none;fill-rule:nonzero;fill:rgb(100%,100%,100%);fill-opacity:1;" d="M 39.011719 83.453125 C 39.011719 83.796875 38.496094 83.796875 38.496094 83.453125 C 38.496094 83.113281 39.011719 83.113281 39.011719 83.453125 "/>
<path style=" stroke:none;fill-rule:nonzero;fill:rgb(100%,100%,100%);fill-opacity:1;" d="M 502.789062 329.933594 C 502.789062 330.277344 502.273438 330.277344 502.273438 329.933594 C 502.273438 329.589844 502.789062 329.589844 502.789062 329.933594 "/>
<path style=" stroke:none;fill-rule:nonzero;fill:rgb(100%,100%,100%);fill-opacity:1;" d="M 445.660156 134.511719 C 445.660156 134.855469 445.144531 134.855469 445.144531 134.511719 C 445.144531 134.167969 445.660156 134.167969 445.660156 134.511719 "/>
<path style=" stroke:none;fill-rule:nonzero;fill:rgb(100%,100%,100%);fill-opacity:1;" d="M 315.910156 37.648438 C 315.910156 37.992188 315.394531 37.992188 315.394531 37.648438 C 315.394531 37.304688 315.910156 37.304688 315.910156 37.648438 "/>
<path style=" stroke:none;fill-rule:nonzero;fill:rgb(100%,100%,100%);fill-opacity:1;" d="M 299.078125 386.804688 C 299.078125 387.148438 298.5625 387.148438 298.5625 386.804688 C 298.5625 386.460938 299.078125 386.460938 299.078125 386.804688 "/>
<path style=" stroke:none;fill-rule:nonzero;fill:rgb(100%,100%,100%);fill-opacity:1;" d="M 346.53125 30.753906 C 346.53125 31.09375 346.015625 31.09375 346.015625 30.753906 C 346.015625 30.410156 346.53125 30.410156 346.53125 30.753906 "/>
<path style=" stroke:none;fill-rule:nonzero;fill:rgb(100%,100%,100%);fill-opacity:1;" d="M 456.929688 73.574219 C 456.929688 73.917969 456.414062 73.917969 456.414062 73.574219 C 456.414062 73.230469 456.929688 73.230469 456.929688 73.574219 "/>
<path style=" stroke:none;fill-rule:nonzero;fill:rgb(100%,100%,100%);fill-opacity:1;" d="M 365.113281 415.316406 C 365.113281 415.660156 364.597656 415.660156 364.597656 415.316406 C 364.597656 414.976562 365.113281 414.976562 365.113281 415.316406 "/>
<path style=" stroke:none;fill-rule:nonzero;fill:rgb(100%,100%,100%);fill-opacity:1;" d="M 444.988281 469.203125 C 444.988281 469.546875 444.476562 469.546875 444.476562 469.203125 C 444.476562 468.863281 444.988281 468.863281 444.988281 469.203125 "/>
<path style=" stroke:none;fill-rule:nonzero;fill:rgb(100%,100%,100%);fill-opacity:1;" d="M 138.242188 88.757812 C 138.242188 89.097656 137.726562 89.097656 137.726562 88.757812 C 137.726562 88.414062 138.242188 88.414062 138.242188 88.757812 "/>
<path style=" stroke:none;fill-rule:nonzero;fill:rgb(100%,100%,100%);fill-opacity:1;" d="M 109.472656 56.898438 C 109.472656 57.238281 108.957031 57.238281 108.957031 56.898438 C 108.957031 56.554688 109.472656 56.554688 109.472656 56.898438 "/>
<path style=" stroke:none;fill-rule:nonzero;fill:rgb(100%,100%,100%);fill-opacity:1;" d="M 408.757812 193.542969 C 408.757812 193.886719 408.242188 193.886719 408.242188 193.542969 C 408.242188 193.199219 408.757812 193.199219 408.757812 193.542969 "/>
<path style=" stroke:none;fill-rule:nonzero;fill:rgb(100%,100%,100%);fill-opacity:1;" d="M 181.476562 472.34375 C 181.476562 472.6875 180.960938 472.6875 180.960938 472.34375 C 180.960938 472 181.476562 472 181.476562 472.34375 "/>
<path style=" stroke:none;fill-rule:nonzero;fill:rgb(100%,100%,100%);fill-opacity:1;" d="M 205.972656 359.21875 C 205.972656 359.5625 205.457031 359.5625 205.457031 359.21875 C 205.457031 358.875 205.972656 358.875 205.972656 359.21875 "/>
<path style=" stroke:none;fill-rule:nonzero;fill:rgb(100%,100%,100%);fill-opacity:1;" d="M 420.800781 418.5625 C 420.800781 418.902344 420.285156 418.902344 420.285156 418.5625 C 420.285156 418.21875 420.800781 418.21875 420.800781 418.5625 "/>
<path style=" stroke:none;fill-rule:nonzero;fill:rgb(100%,100%,100%);fill-opacity:1;" d="M 329.238281 426.28125 C 329.238281 426.625 328.722656 426.625 328.722656 426.28125 C 328.722656 425.9375 329.238281 425.9375 329.238281 426.28125 "/>
<path style=" stroke:none;fill-rule:nonzero;fill:rgb(100%,100%,100%);fill-opacity:1;" d="M 95.421875 333.894531 C 95.421875 334.238281 94.90625 334.238281 94.90625 333.894531 C 94.90625 333.554688 95.421875 333.554688 95.421875 333.894531 "/>
<path style=" stroke:none;fill-rule:nonzero;fill:rgb(100%,100%,100%);fill-opacity:1;" d="M 420.128906 351.808594 C 420.128906 352.148438 419.617188 352.148438 419.617188 351.808594 C 419.617188 351.464844 420.128906 351.464844 420.128906 351.808594 "/>
<path style=" stroke:none;fill-rule:nonzero;fill:rgb(100%,100%,100%);fill-opacity:1;" d="M 379.265625 286.1875 C 379.265625 286.527344 378.75 286.527344 378.75 286.1875 C 378.75 285.84375 379.265625 285.84375 379.265625 286.1875 "/>
<path style=" stroke:none;fill-rule:nonzero;fill:rgb(100%,100%,100%);fill-opacity:1;" d="M 146.632812 453.199219 C 146.632812 453.542969 146.117188 453.542969 146.117188 453.199219 C 146.117188 452.855469 146.632812 452.855469 146.632812 453.199219 "/>
<path style=" stroke:none;fill-rule:nonzero;fill:rgb(100%,100%,100%);fill-opacity:1;" d="M 315.546875 59.984375 C 315.546875 60.328125 315.035156 60.328125 315.035156 59.984375 C 315.035156 59.644531 315.546875 59.644531 315.546875 59.984375 "/>
<path style=" stroke:none;fill-rule:nonzero;fill:rgb(100%,100%,100%);fill-opacity:1;" d="M 407.109375 233.226562 C 407.109375 233.570312 406.59375 233.570312 406.59375 233.226562 C 406.59375 232.882812 407.109375 232.882812 407.109375 233.226562 "/>
<path style=" stroke:none;fill-rule:nonzero;fill:rgb(100%,100%,100%);fill-opacity:1;" d="M 218.222656 468.792969 C 218.222656 469.136719 217.707031 469.136719 217.707031 468.792969 C 217.707031 468.449219 218.222656 468.449219 218.222656 468.792969 "/>
<path style=" stroke:none;fill-rule:nonzero;fill:rgb(100%,100%,100%);fill-opacity:1;" d="M 494.089844 472.859375 C 494.089844 473.203125 493.574219 473.203125 493.574219 472.859375 C 493.574219 472.515625 494.089844 472.515625 494.089844 472.859375 "/>
<path style=" stroke:none;fill-rule:nonzero;fill:rgb(100%,100%,100%);fill-opacity:1;" d="M 458.886719 37.492188 C 458.886719 37.835938 458.371094 37.835938 458.371094 37.492188 C 458.371094 37.152344 458.886719 37.152344 458.886719 37.492188 "/>
<path style=" stroke:none;fill-rule:nonzero;fill:rgb(100%,100%,100%);fill-opacity:1;" d="M 288.628906 130.90625 C 288.628906 131.25 288.117188 131.25 288.117188 130.90625 C 288.117188 130.566406 288.628906 130.566406 288.628906 130.90625 "/>
<path style=" stroke:none;fill-rule:nonzero;fill:rgb(100%,100%,100%);fill-opacity:1;" d="M 266.601562 110.734375 C 266.601562 111.074219 266.085938 111.074219 266.085938 110.734375 C 266.085938 110.390625 266.601562 110.390625 266.601562 110.734375 "/>
<path style=" stroke:none;fill-rule:nonzero;fill:rgb(100%,100%,100%);fill-opacity:1;" d="M 430.0625 78.101562 C 430.0625 78.445312 429.546875 78.445312 429.546875 78.101562 C 429.546875 77.757812 430.0625 77.757812 430.0625 78.101562 "/>
<path style=" stroke:none;fill-rule:nonzero;fill:rgb(100%,100%,100%);fill-opacity:1;" d="M 318.121094 357.878906 C 318.121094 358.222656 317.605469 358.222656 317.605469 357.878906 C 317.605469 357.535156 318.121094 357.535156 318.121094 357.878906 "/>
<path style=" stroke:none;fill-rule:nonzero;fill:rgb(100%,100%,100%);fill-opacity:1;" d="M 68.554688 398.023438 C 68.554688 398.367188 68.039062 398.367188 68.039062 398.023438 C 68.039062 397.683594 68.554688 397.683594 68.554688 398.023438 "/>
<path style=" stroke:none;fill-rule:nonzero;fill:rgb(100%,100%,100%);fill-opacity:1;" d="M 244.574219 383.5625 C 244.574219 383.90625 244.058594 383.90625 244.058594 383.5625 C 244.058594 383.21875 244.574219 383.21875 244.574219 383.5625 "/>
<path style=" stroke:none;fill-rule:nonzero;fill:rgb(100%,100%,100%);fill-opacity:1;" d="M 300.417969 127.097656 C 300.417969 127.441406 299.902344 127.441406 299.902344 127.097656 C 299.902344 126.757812 300.417969 126.757812 300.417969 127.097656 "/>
<path style=" stroke:none;fill-rule:nonzero;fill:rgb(100%,100%,100%);fill-opacity:1;" d="M 490.589844 454.277344 C 490.589844 454.621094 490.074219 454.621094 490.074219 454.277344 C 490.074219 453.9375 490.589844 453.9375 490.589844 454.277344 "/>
<path style=" stroke:none;fill-rule:nonzero;fill:rgb(100%,100%,100%);fill-opacity:1;" d="M 432.226562 353.867188 C 432.226562 354.210938 431.710938 354.210938 431.710938 353.867188 C 431.710938 353.523438 432.226562 353.523438 432.226562 353.867188 "/>
<path style=" stroke:none;fill-rule:nonzero;fill:rgb(100%,100%,100%);fill-opacity:1;" d="M 187.34375 200.078125 C 187.34375 200.421875 186.828125 200.421875 186.828125 200.078125 C 186.828125 199.738281 187.34375 199.738281 187.34375 200.078125 "/>
<path style=" stroke:none;fill-rule:nonzero;fill:rgb(100%,100%,100%);fill-opacity:1;" d="M 368.300781 60.808594 C 368.300781 61.152344 367.789062 61.152344 367.789062 60.808594 C 367.789062 60.464844 368.300781 60.464844 368.300781 60.808594 "/>
<path style=" stroke:none;fill-rule:nonzero;fill:rgb(100%,100%,100%);fill-opacity:1;" d="M 507.265625 293.390625 C 507.265625 293.734375 506.75 293.734375 506.75 293.390625 C 506.75 293.046875 507.265625 293.046875 507.265625 293.390625 "/>
<path style=" stroke:none;fill-rule:nonzero;fill:rgb(100%,100%,100%);fill-opacity:1;" d="M 477.566406 235.179688 C 477.566406 235.523438 477.054688 235.523438 477.054688 235.179688 C 477.054688 234.835938 477.566406 234.835938 477.566406 235.179688 "/>
<path style=" stroke:none;fill-rule:nonzero;fill:rgb(100%,100%,100%);fill-opacity:1;" d="M 157.128906 107.285156 C 157.128906 107.628906 156.617188 107.628906 156.617188 107.285156 C 156.617188 106.941406 157.128906 106.941406 157.128906 107.285156 "/>
<path style=" stroke:none;fill-rule:nonzero;fill:rgb(100%,100%,100%);fill-opacity:1;" d="M 362.488281 187.367188 C 362.488281 187.710938 361.972656 187.710938 361.972656 187.367188 C 361.972656 187.023438 362.488281 187.023438 362.488281 187.367188 "/>
<path style=" stroke:none;fill-rule:nonzero;fill:rgb(100%,100%,100%);fill-opacity:1;" d="M 384.824219 207.027344 C 384.824219 207.371094 384.308594 207.371094 384.308594 207.027344 C 384.308594 206.6875 384.824219 206.6875 384.824219 207.027344 "/>
<path style=" stroke:none;fill-rule:nonzero;fill:rgb(100%,100%,100%);fill-opacity:1;" d="M 154.503906 279.136719 C 154.503906 279.476562 153.992188 279.476562 153.992188 279.136719 C 153.992188 278.792969 154.503906 278.792969 154.503906 279.136719 "/>
<path style=" stroke:none;fill-rule:nonzero;fill:rgb(100%,100%,100%);fill-opacity:1;" d="M 157.234375 72.027344 C 157.234375 72.371094 156.71875 72.371094 156.71875 72.027344 C 156.71875 71.6875 157.234375 71.6875 157.234375 72.027344 "/>
<path style=" stroke:none;fill-rule:nonzero;fill:rgb(100%,100%,100%);fill-opacity:1;" d="M 72.519531 482.226562 C 72.519531 482.570312 72.003906 482.570312 72.003906 482.226562 C 72.003906 481.882812 72.519531 481.882812 72.519531 482.226562 "/>
<path style=" stroke:none;fill-rule:nonzero;fill:rgb(100%,100%,100%);fill-opacity:1;" d="M 146.886719 81.859375 C 146.886719 82.203125 146.375 82.203125 146.375 81.859375 C 146.375 81.515625 146.886719 81.515625 146.886719 81.859375 "/>
<path style=" stroke:none;fill-rule:nonzero;fill:rgb(100%,100%,100%);fill-opacity:1;" d="M 170.5625 100.4375 C 170.5625 100.78125 170.046875 100.78125 170.046875 100.4375 C 170.046875 100.097656 170.5625 100.097656 170.5625 100.4375 "/>
<path style=" stroke:none;fill-rule:nonzero;fill:rgb(100%,100%,100%);fill-opacity:1;" d="M 174.578125 210.21875 C 174.578125 210.5625 174.0625 210.5625 174.0625 210.21875 C 174.0625 209.875 174.578125 209.875 174.578125 210.21875 "/>
<path style=" stroke:none;fill-rule:nonzero;fill:rgb(100%,100%,100%);fill-opacity:1;" d="M 436.496094 275.636719 C 436.496094 275.976562 435.984375 275.976562 435.984375 275.636719 C 435.984375 275.292969 436.496094 275.292969 436.496094 275.636719 "/>
<path style=" stroke:none;fill-rule:nonzero;fill:rgb(100%,100%,100%);fill-opacity:1;" d="M 63.921875 67.089844 C 63.921875 67.429688 63.40625 67.429688 63.40625 67.089844 C 63.40625 66.746094 63.921875 66.746094 63.921875 67.089844 "/>
<path style=" stroke:none;fill-rule:nonzero;fill:rgb(100%,100%,100%);fill-opacity:1;" d="M 90.121094 165.699219 C 90.121094 166.042969 89.605469 166.042969 89.605469 165.699219 C 89.605469 165.355469 90.121094 165.355469 90.121094 165.699219 "/>
<path style=" stroke:none;fill-rule:nonzero;fill:rgb(100%,100%,100%);fill-opacity:1;" d="M 61.144531 93.078125 C 61.144531 93.421875 60.628906 93.421875 60.628906 93.078125 C 60.628906 92.734375 61.144531 92.734375 61.144531 93.078125 "/>
<path style=" stroke:none;fill-rule:nonzero;fill:rgb(100%,100%,100%);fill-opacity:1;" d="M 346.6875 326.84375 C 346.6875 327.1875 346.171875 327.1875 346.171875 326.84375 C 346.171875 326.5 346.6875 326.5 346.6875 326.84375 "/>
<path style=" stroke:none;fill-rule:nonzero;fill:rgb(100%,100%,100%);fill-opacity:1;" d="M 141.949219 168.117188 C 141.949219 168.460938 141.433594 168.460938 141.433594 168.117188 C 141.433594 167.777344 141.949219 167.777344 141.949219 168.117188 "/>
<path style=" stroke:none;fill-rule:nonzero;fill:rgb(100%,100%,100%);fill-opacity:1;" d="M 175.246094 68.582031 C 175.246094 68.925781 174.734375 68.925781 174.734375 68.582031 C 174.734375 68.238281 175.246094 68.238281 175.246094 68.582031 "/>
<path style=" stroke:none;fill-rule:nonzero;fill:rgb(100%,100%,100%);fill-opacity:1;" d="M 435.46875 381.96875 C 435.46875 382.308594 434.953125 382.308594 434.953125 381.96875 C 434.953125 381.625 435.46875 381.625 435.46875 381.96875 "/>
<path style=" stroke:none;fill-rule:nonzero;fill:rgb(100%,100%,100%);fill-opacity:1;" d="M 485.289062 463.542969 C 485.289062 463.886719 484.773438 463.886719 484.773438 463.542969 C 484.773438 463.199219 485.289062 463.199219 485.289062 463.542969 "/>
<path style=" stroke:none;fill-rule:nonzero;fill:rgb(100%,100%,100%);fill-opacity:1;" d="M 253.476562 355.617188 C 253.476562 355.960938 252.964844 355.960938 252.964844 355.617188 C 252.964844 355.273438 253.476562 355.273438 253.476562 355.617188 "/>
<path style=" stroke:none;fill-rule:nonzero;fill:rgb(100%,100%,100%);fill-opacity:1;" d="M 359.914062 371.414062 C 359.914062 371.757812 359.398438 371.757812 359.398438 371.414062 C 359.398438 371.074219 359.914062 371.074219 359.914062 371.414062 "/>
<path style=" stroke:none;fill-rule:nonzero;fill:rgb(100%,100%,100%);fill-opacity:1;" d="M 412 265.753906 C 412 266.097656 411.484375 266.097656 411.484375 265.753906 C 411.484375 265.410156 412 265.410156 412 265.753906 "/>
<path style=" stroke:none;fill-rule:nonzero;fill:rgb(100%,100%,100%);fill-opacity:1;" d="M 275.300781 78.257812 C 275.300781 78.601562 274.785156 78.601562 274.785156 78.257812 C 274.785156 77.914062 275.300781 77.914062 275.300781 78.257812 "/>
<path style=" stroke:none;fill-rule:nonzero;fill:rgb(100%,100%,100%);fill-opacity:1;" d="M 345.914062 109.292969 C 345.914062 109.636719 345.398438 109.636719 345.398438 109.292969 C 345.398438 108.949219 345.914062 108.949219 345.914062 109.292969 "/>
<path style=" stroke:none;fill-rule:nonzero;fill:rgb(100%,100%,100%);fill-opacity:1;" d="M 302.992188 283.5625 C 302.992188 283.902344 302.476562 283.902344 302.476562 283.5625 C 302.476562 283.21875 302.992188 283.21875 302.992188 283.5625 "/>
<path style=" stroke:none;fill-rule:nonzero;fill:rgb(100%,100%,100%);fill-opacity:1;" d="M 183.171875 126.53125 C 183.171875 126.875 182.660156 126.875 182.660156 126.53125 C 182.660156 126.191406 183.171875 126.191406 183.171875 126.53125 "/>
<path style=" stroke:none;fill-rule:nonzero;fill:rgb(100%,100%,100%);fill-opacity:1;" d="M 164.234375 302.191406 C 164.234375 302.535156 163.71875 302.535156 163.71875 302.191406 C 163.71875 301.847656 164.234375 301.847656 164.234375 302.191406 "/>
<path style=" stroke:none;fill-rule:nonzero;fill:rgb(100%,100%,100%);fill-opacity:1;" d="M 139.324219 76.042969 C 139.324219 76.386719 138.808594 76.386719 138.808594 76.042969 C 138.808594 75.699219 139.324219 75.699219 139.324219 76.042969 "/>
<path style=" stroke:none;fill-rule:nonzero;fill:rgb(100%,100%,100%);fill-opacity:1;" d="M 447.5625 127.40625 C 447.5625 127.75 447.046875 127.75 447.046875 127.40625 C 447.046875 127.066406 447.5625 127.066406 447.5625 127.40625 "/>
<path style=" stroke:none;fill-rule:nonzero;fill:rgb(100%,100%,100%);fill-opacity:1;" d="M 192.488281 333.949219 C 192.488281 334.292969 191.976562 334.292969 191.976562 333.949219 C 191.976562 333.605469 192.488281 333.605469 192.488281 333.949219 "/>
<path style=" stroke:none;fill-rule:nonzero;fill:rgb(100%,100%,100%);fill-opacity:1;" d="M 399.902344 344.910156 C 399.902344 345.253906 399.386719 345.253906 399.386719 344.910156 C 399.386719 344.566406 399.902344 344.566406 399.902344 344.910156 "/>
<path style=" stroke:none;fill-rule:nonzero;fill:rgb(100%,100%,100%);fill-opacity:1;" d="M 502.425781 190.300781 C 502.425781 190.644531 501.914062 190.644531 501.914062 190.300781 C 501.914062 189.957031 502.425781 189.957031 502.425781 190.300781 "/>
<path style=" stroke:none;fill-rule:nonzero;fill:rgb(100%,100%,100%);fill-opacity:1;" d="M 214.15625 242.644531 C 214.15625 242.988281 213.640625 242.988281 213.640625 242.644531 C 213.640625 242.300781 214.15625 242.300781 214.15625 242.644531 "/>
<path style=" stroke:none;fill-rule:nonzero;fill:rgb(100%,100%,100%);fill-opacity:1;" d="M 352.554688 95.394531 C 352.554688 95.738281 352.039062 95.738281 352.039062 95.394531 C 352.039062 95.050781 352.554688 95.050781 352.554688 95.394531 "/>
<path style=" stroke:none;fill-rule:nonzero;fill:rgb(100%,100%,100%);fill-opacity:1;" d="M 203.453125 262.769531 C 203.453125 263.109375 202.9375 263.109375 202.9375 262.769531 C 202.9375 262.425781 203.453125 262.425781 203.453125 262.769531 "/>
<path style=" stroke:none;fill-rule:nonzero;fill:rgb(100%,100%,100%);fill-opacity:1;" d="M 126.300781 398.589844 C 126.300781 398.933594 125.785156 398.933594 125.785156 398.589844 C 125.785156 398.246094 126.300781 398.246094 126.300781 398.589844 "/>
<path style=" stroke:none;fill-rule:nonzero;fill:rgb(100%,100%,100%);fill-opacity:1;" d="M 469.691406 215.625 C 469.691406 215.96875 469.179688 215.96875 469.179688 215.625 C 469.179688 215.28125 469.691406 215.28125 469.691406 215.625 "/>
<path style=" stroke:none;fill-rule:nonzero;fill:rgb(100%,100%,100%);fill-opacity:1;" d="M 272.519531 166.316406 C 272.519531 166.660156 272.007812 166.660156 272.007812 166.316406 C 272.007812 165.976562 272.519531 165.976562 272.519531 166.316406 "/>
<path style=" stroke:none;fill-rule:nonzero;fill:rgb(100%,100%,100%);fill-opacity:1;" d="M 230.988281 170.691406 C 230.988281 171.035156 230.472656 171.035156 230.472656 170.691406 C 230.472656 170.347656 230.988281 170.347656 230.988281 170.691406 "/>
<path style=" stroke:none;fill-rule:nonzero;fill:rgb(100%,100%,100%);fill-opacity:1;" d="M 376.433594 168.890625 C 376.433594 169.234375 375.917969 169.234375 375.917969 168.890625 C 375.917969 168.546875 376.433594 168.546875 376.433594 168.890625 "/>
<path style=" stroke:none;fill-rule:nonzero;fill:rgb(100%,100%,100%);fill-opacity:1;" d="M 262.226562 475.84375 C 262.226562 476.1875 261.710938 476.1875 261.710938 475.84375 C 261.710938 475.5 262.226562 475.5 262.226562 475.84375 "/>
<path style=" stroke:none;fill-rule:nonzero;fill:rgb(100%,100%,100%);fill-opacity:1;" d="M 226.921875 478.160156 C 226.921875 478.503906 226.40625 478.503906 226.40625 478.160156 C 226.40625 477.816406 226.921875 477.816406 226.921875 478.160156 "/>
<path style=" stroke:none;fill-rule:nonzero;fill:rgb(100%,100%,100%);fill-opacity:1;" d="M 310.503906 112.84375 C 310.503906 113.1875 309.988281 113.1875 309.988281 112.84375 C 309.988281 112.5 310.503906 112.5 310.503906 112.84375 "/>
<path style=" stroke:none;fill-rule:nonzero;fill:rgb(100%,100%,100%);fill-opacity:1;" d="M 295.734375 394.371094 C 295.734375 394.714844 295.21875 394.714844 295.21875 394.371094 C 295.21875 394.027344 295.734375 394.027344 295.734375 394.371094 "/>
<path style=" stroke:none;fill-rule:nonzero;fill:rgb(100%,100%,100%);fill-opacity:1;" d="M 357.699219 419.898438 C 357.699219 420.242188 357.1875 420.242188 357.1875 419.898438 C 357.1875 419.554688 357.699219 419.554688 357.699219 419.898438 "/>
<path style=" stroke:none;fill-rule:nonzero;fill:rgb(100%,100%,100%);fill-opacity:1;" d="M 112.148438 360.503906 C 112.148438 360.847656 111.632812 360.847656 111.632812 360.503906 C 111.632812 360.160156 112.148438 360.160156 112.148438 360.503906 "/>
<path style=" stroke:none;fill-rule:nonzero;fill:rgb(100%,100%,100%);fill-opacity:1;" d="M 343.132812 222.109375 C 343.132812 222.453125 342.621094 222.453125 342.621094 222.109375 C 342.621094 221.765625 343.132812 221.765625 343.132812 222.109375 "/>
<path style=" stroke:none;fill-rule:nonzero;fill:rgb(100%,100%,100%);fill-opacity:1;" d="M 90.839844 340.226562 C 90.839844 340.570312 90.324219 340.570312 90.324219 340.226562 C 90.324219 339.882812 90.839844 339.882812 90.839844 340.226562 "/>
<path style=" stroke:none;fill-rule:nonzero;fill:rgb(100%,100%,100%);fill-opacity:1;" d="M 121.414062 85.203125 C 121.414062 85.546875 120.898438 85.546875 120.898438 85.203125 C 120.898438 84.863281 121.414062 84.863281 121.414062 85.203125 "/>
<path style=" stroke:none;fill-rule:nonzero;fill:rgb(100%,100%,100%);fill-opacity:1;" d="M 261.351562 230.960938 C 261.351562 231.304688 260.835938 231.304688 260.835938 230.960938 C 260.835938 230.617188 261.351562 230.617188 261.351562 230.960938 "/>
<path style=" stroke:none;fill-rule:nonzero;fill:rgb(100%,100%,100%);fill-opacity:1;" d="M 251.109375 326.84375 C 251.109375 327.1875 250.59375 327.1875 250.59375 326.84375 C 250.59375 326.5 251.109375 326.5 251.109375 326.84375 "/>
<path style=" stroke:none;fill-rule:nonzero;fill:rgb(100%,100%,100%);fill-opacity:1;" d="M 395.066406 61.683594 C 395.066406 62.027344 394.550781 62.027344 394.550781 61.683594 C 394.550781 61.339844 395.066406 61.339844 395.066406 61.683594 "/>
<path style=" stroke:none;fill-rule:nonzero;fill:rgb(100%,100%,100%);fill-opacity:1;" d="M 306.179688 139.863281 C 306.179688 140.207031 305.667969 140.207031 305.667969 139.863281 C 305.667969 139.519531 306.179688 139.519531 306.179688 139.863281 "/>
<path style=" stroke:none;fill-rule:nonzero;fill:rgb(100%,100%,100%);fill-opacity:1;" d="M 301.960938 463.183594 C 301.960938 463.527344 301.445312 463.527344 301.445312 463.183594 C 301.445312 462.839844 301.960938 462.839844 301.960938 463.183594 "/>
<path style=" stroke:none;fill-rule:nonzero;fill:rgb(100%,100%,100%);fill-opacity:1;" d="M 331.710938 171.566406 C 331.710938 171.910156 331.195312 171.910156 331.195312 171.566406 C 331.195312 171.222656 331.710938 171.222656 331.710938 171.566406 "/>
<path style=" stroke:none;fill-rule:nonzero;fill:rgb(100%,100%,100%);fill-opacity:1;" d="M 295.527344 392.003906 C 295.527344 392.347656 295.011719 392.347656 295.011719 392.003906 C 295.011719 391.660156 295.527344 391.660156 295.527344 392.003906 "/>
<path style=" stroke:none;fill-rule:nonzero;fill:rgb(100%,100%,100%);fill-opacity:1;" d="M 359.863281 120.664062 C 359.863281 121.007812 359.347656 121.007812 359.347656 120.664062 C 359.347656 120.324219 359.863281 120.324219 359.863281 120.664062 "/>
<path style=" stroke:none;fill-rule:nonzero;fill:rgb(100%,100%,100%);fill-opacity:1;" d="M 462.953125 31.164062 C 462.953125 31.507812 462.4375 31.507812 462.4375 31.164062 C 462.4375 30.820312 462.953125 30.820312 462.953125 31.164062 "/>
<path style=" stroke:none;fill-rule:nonzero;fill:rgb(100%,100%,100%);fill-opacity:1;" d="M 334.386719 380.988281 C 334.386719 381.332031 333.871094 381.332031 333.871094 380.988281 C 333.871094 380.644531 334.386719 380.644531 334.386719 380.988281 "/>
<path style=" stroke:none;fill-rule:nonzero;fill:rgb(100%,100%,100%);fill-opacity:1;" d="M 333.972656 376.664062 C 333.972656 377.007812 333.457031 377.007812 333.457031 376.664062 C 333.457031 376.324219 333.972656 376.324219 333.972656 376.664062 "/>
<path style=" stroke:none;fill-rule:nonzero;fill:rgb(100%,100%,100%);fill-opacity:1;" d="M 256.257812 242.851562 C 256.257812 243.191406 255.742188 243.191406 255.742188 242.851562 C 255.742188 242.507812 256.257812 242.507812 256.257812 242.851562 "/>
<path style=" stroke:none;fill-rule:nonzero;fill:rgb(100%,100%,100%);fill-opacity:1;" d="M 379.164062 153.605469 C 379.164062 153.949219 378.648438 153.949219 378.648438 153.605469 C 378.648438 153.261719 379.164062 153.261719 379.164062 153.605469 "/>
<path style=" stroke:none;fill-rule:nonzero;fill:rgb(100%,100%,100%);fill-opacity:1;" d="M 337.78125 470.078125 C 337.78125 470.421875 337.269531 470.421875 337.269531 470.078125 C 337.269531 469.738281 337.78125 469.738281 337.78125 470.078125 "/>
<path style=" stroke:none;fill-rule:nonzero;fill:rgb(100%,100%,100%);fill-opacity:1;" d="M 37.261719 300.03125 C 37.261719 300.375 36.746094 300.375 36.746094 300.03125 C 36.746094 299.6875 37.261719 299.6875 37.261719 300.03125 "/>
<path style=" stroke:none;fill-rule:nonzero;fill:rgb(100%,84.3%,0%);fill-opacity:1;" d="M 66.703125 398.074219 C 66.703125 398.417969 66.1875 398.417969 66.1875 398.074219 C 66.1875 397.734375 66.703125 397.734375 66.703125 398.074219 "/>
<path style=" stroke:none;fill-rule:nonzero;fill:rgb(100%,84.3%,0%);fill-opacity:1;" d="M 66.703125 399.105469 C 66.703125 399.449219 66.1875 399.449219 66.1875 399.105469 C 66.1875 398.761719 66.703125 398.761719 66.703125 399.105469 "/>
<path style=" stroke:none;fill-rule:nonzero;fill:rgb(100%,84.3%,0%);fill-opacity:1;" d="M 66.703125 400.648438 C 66.703125 400.992188 66.1875 400.992188 66.1875 400.648438 C 66.1875 400.308594 66.703125 400.308594 66.703125 400.648438 "/>
<path style=" stroke:none;fill-rule:nonzero;fill:rgb(100%,84.3%,0%);fill-opacity:1;" d="M 66.703125 394.988281 C 66.703125 395.332031 66.1875 395.332031 66.1875 394.988281 C 66.1875 394.644531 66.703125 394.644531 66.703125 394.988281 "/>
<path style=" stroke:none;fill-rule:nonzero;fill:rgb(100%,84.3%,0%);fill-opacity:1;" d="M 66.703125 401.164062 C 66.703125 401.507812 66.1875 401.507812 66.1875 401.164062 C 66.1875 400.820312 66.703125 400.820312 66.703125 401.164062 "/>
<path style=" stroke:none;fill-rule:nonzero;fill:rgb(100%,84.3%,0%);fill-opacity:1;" d="M 66.703125 396.53125 C 66.703125 396.875 66.1875 396.875 66.1875 396.53125 C 66.1875 396.1875 66.703125 396.1875 66.703125 396.53125 "/>
<path style=" stroke:none;fill-rule:nonzero;fill:rgb(100%,84.3%,0%);fill-opacity:1;" d="M 66.703125 399.621094 C 66.703125 399.964844 66.1875 399.964844 66.1875 399.621094 C 66.1875 399.277344 66.703125 399.277344 66.703125 399.621094 "/>
<path style=" stroke:none;fill-rule:nonzero;fill:rgb(100%,84.3%,0%);fill-opacity:1;" d="M 66.703125 396.019531 C 66.703125 396.359375 66.1875 396.359375 66.1875 396.019531 C 66.1875 395.675781 66.703125 395.675781 66.703125 396.019531 "/>
<path style=" stroke:none;fill-rule:nonzero;fill:rgb(100%,84.3%,0%);fill-opacity:1;" d="M 66.703125 397.5625 C 66.703125 397.90625 66.1875 397.90625 66.1875 397.5625 C 66.1875 397.21875 66.703125 397.21875 66.703125 397.5625 "/>
<path style=" stroke:none;fill-rule:nonzero;fill:rgb(100%,84.3%,0%);fill-opacity:1;" d="M 66.703125 400.136719 C 66.703125 400.476562 66.1875 400.476562 66.1875 400.136719 C 66.1875 399.792969 66.703125 399.792969 66.703125 400.136719 "/>
<path style=" stroke:none;fill-rule:nonzero;fill:rgb(100%,84.3%,0%);fill-opacity:1;" d="M 66.703125 395.503906 C 66.703125 395.847656 66.1875 395.847656 66.1875 395.503906 C 66.1875 395.160156 66.703125 395.160156 66.703125 395.503906 "/>
<path style=" stroke:none;fill-rule:nonzero;fill:rgb(100%,84.3%,0%);fill-opacity:1;" d="M 66.703125 398.589844 C 66.703125 398.933594 66.1875 398.933594 66.1875 398.589844 C 66.1875 398.246094 66.703125 398.246094 66.703125 398.589844 "/>
<path style=" stroke:none;fill-rule:nonzero;fill:rgb(100%,84.3%,0%);fill-opacity:1;" d="M 66.703125 397.046875 C 66.703125 397.390625 66.1875 397.390625 66.1875 397.046875 C 66.1875 396.703125 66.703125 396.703125 66.703125 397.046875 "/>
<path style=" stroke:none;fill-rule:nonzero;fill:rgb(100%,84.3%,0%);fill-opacity:1;" d="M 66.703125 394.214844 C 66.703125 394.558594 66.1875 394.558594 66.1875 394.214844 C 66.1875 393.871094 66.703125 393.871094 66.703125 394.214844 "/>
</g>
</svg>
