<?xml version="1.0" encoding="UTF-8"?>
<svg xmlns="http://www.w3.org/2000/svg" xmlns:xlink="http://www.w3.org/1999/xlink" width="512pt" height="512pt" viewBox="0 0 512 512" version="1.1">
<g id="surface81">
<path style=" stroke:none;fill-rule:nonzero;fill:rgb(26.7%,26.7%,26.7%);fill-opacity:1;" d="M 147.613281 0 L 364.386719 0 L 364.386719 512 L 147.613281 512 Z M 147.613281 0 "/>
<path style=" stroke:none;fill-rule:nonzero;fill:rgb(19.2%,38.8%,66.7%);fill-opacity:1;" d="M 165.675781 42.667969 L 346.320312 42.667969 L 346.320312 469.332031 L 165.675781 469.332031 Z M 165.675781 42.667969 "/>
<path style=" stroke:none;fill-rule:nonzero;fill:rgb(100%,100%,100%);fill-opacity:1;" d="M 475.355469 428.042969 C 475.355469 433.777344 466.753906 433.777344 466.753906 428.042969 C 466.753906 422.308594 475.355469 422.308594 475.355469 428.042969 "/>
<path style=" stroke:none;fill-rule:nonzero;fill:rgb(100%,100%,100%);fill-opacity:1;" d="M 237.933594 498.582031 C 237.933594 504.316406 229.332031 504.316406 229.332031 498.582031 C 229.332031 492.847656 237.933594 492.847656 237.933594 498.582031 "/>
<path style=" stroke:none;fill-rule:nonzero;fill:rgb(100%,100%,100%);fill-opacity:1;" d="M 416.859375 421.160156 C 416.859375 426.894531 408.257812 426.894531 408.257812 421.160156 C 408.257812 415.425781 416.859375 415.425781 416.859375 421.160156 "/>
<path style=" stroke:none;fill-rule:nonzero;fill:rgb(100%,100%,100%);fill-opacity:1;" d="M 516.644531 28.902344 C 516.644531 34.636719 508.042969 34.636719 508.042969 28.902344 C 508.042969 23.167969 516.644531 23.167969 516.644531 28.902344 "/>
<path style=" stroke:none;fill-rule:nonzero;fill:rgb(100%,100%,100%);fill-opacity:1;" d="M 388.472656 502.882812 C 388.472656 508.617188 379.871094 508.617188 379.871094 502.882812 C 379.871094 497.148438 388.472656 497.148438 388.472656 502.882812 "/>
<path style=" stroke:none;fill-rule:nonzero;fill:rgb(100%,100%,100%);fill-opacity:1;" d="M 471.914062 29.761719 C 471.914062 35.496094 463.3125 35.496094 463.3125 29.761719 C 463.3125 24.027344 471.914062 24.027344 471.914062 29.761719 "/>
<path style=" stroke:none;fill-rule:nonzero;fill:rgb(100%,100%,100%);fill-opacity:1;" d="M 440.945312 34.925781 C 440.945312 40.660156 432.34375 40.660156 432.34375 34.925781 C 432.34375 29.191406 440.945312 29.191406 440.945312 34.925781 "/>
<path style=" stroke:none;fill-rule:nonzero;fill:rgb(100%,100%,100%);fill-opacity:1;" d="M 512.34375 50.410156 C 512.34375 56.144531 503.742188 56.144531 503.742188 50.410156 C 503.742188 44.675781 512.34375 44.675781 512.34375 50.410156 "/>
<path style=" stroke:none;fill-rule:nonzero;fill:rgb(100%,100%,100%);fill-opacity:1;" d="M 150.191406 393.632812 C 150.191406 399.367188 141.589844 399.367188 141.589844 393.632812 C 141.589844 387.898438 150.191406 387.898438 150.191406 393.632812 "/>
<path style=" stroke:none;fill-rule:nonzero;fill:rgb(100%,100%,100%);fill-opacity:1;" d="M 365.246094 128.6875 C 365.246094 134.421875 356.644531 134.421875 356.644531 128.6875 C 356.644531 122.953125 365.246094 122.953125 365.246094 128.6875 "/>
<path style=" stroke:none;fill-rule:nonzero;fill:rgb(100%,100%,100%);fill-opacity:1;" d="M 282.667969 -2.925781 C 282.667969 2.808594 274.066406 2.808594 274.066406 -2.925781 C 274.066406 -8.660156 282.667969 -8.660156 282.667969 -2.925781 "/>
<path style=" stroke:none;fill-rule:nonzero;fill:rgb(100%,100%,100%);fill-opacity:1;" d="M 514.925781 200.085938 C 514.925781 205.820312 506.324219 205.820312 506.324219 200.085938 C 506.324219 194.351562 514.925781 194.351562 514.925781 200.085938 "/>
<path style=" stroke:none;fill-rule:nonzero;fill:rgb(100%,100%,100%);fill-opacity:1;" d="M 323.957031 30.625 C 323.957031 36.359375 315.355469 36.359375 315.355469 30.625 C 315.355469 24.890625 323.957031 24.890625 323.957031 30.625 "/>
<path style=" stroke:none;fill-rule:nonzero;fill:rgb(100%,100%,100%);fill-opacity:1;" d="M 363.527344 2.238281 C 363.527344 7.972656 354.925781 7.972656 354.925781 2.238281 C 354.925781 -3.496094 363.527344 -3.496094 363.527344 2.238281 "/>
<path style=" stroke:none;fill-rule:nonzero;fill:rgb(100%,100%,100%);fill-opacity:1;" d="M 476.214844 266.324219 C 476.214844 272.058594 467.613281 272.058594 467.613281 266.324219 C 467.613281 260.589844 476.214844 260.589844 476.214844 266.324219 "/>
<path style=" stroke:none;fill-rule:nonzero;fill:rgb(100%,100%,100%);fill-opacity:1;" d="M 488.257812 442.667969 C 488.257812 448.402344 479.65625 448.402344 479.65625 442.667969 C 479.65625 436.933594 488.257812 436.933594 488.257812 442.667969 "/>
<path style=" stroke:none;fill-rule:nonzero;fill:rgb(100%,100%,100%);fill-opacity:1;" d="M 354.0625 458.152344 C 354.0625 463.886719 345.460938 463.886719 345.460938 458.152344 C 345.460938 452.417969 354.0625 452.417969 354.0625 458.152344 "/>
<path style=" stroke:none;fill-rule:nonzero;fill:rgb(100%,100%,100%);fill-opacity:1;" d="M 492.558594 180.300781 C 492.558594 186.035156 483.957031 186.035156 483.957031 180.300781 C 483.957031 174.566406 492.558594 174.566406 492.558594 180.300781 "/>
<path style=" stroke:none;fill-rule:nonzero;fill:rgb(100%,100%,100%);fill-opacity:1;" d="M 502.882812 264.601562 C 502.882812 270.335938 494.28125 270.335938 494.28125 264.601562 C 494.28125 258.867188 502.882812 258.867188 502.882812 264.601562 "/>
<path style=" stroke:none;fill-rule:nonzero;fill:rgb(100%,100%,100%);fill-opacity:1;" d="M 407.398438 158.796875 C 407.398438 164.53125 398.796875 164.53125 398.796875 158.796875 C 398.796875 153.0625 407.398438 153.0625 407.398438 158.796875 "/>
<path style=" stroke:none;fill-rule:nonzero;fill:rgb(100%,100%,100%);fill-opacity:1;" d="M 411.699219 477.074219 C 411.699219 482.808594 403.097656 482.808594 403.097656 477.074219 C 403.097656 471.339844 411.699219 471.339844 411.699219 477.074219 "/>
<path style=" stroke:none;fill-rule:nonzero;fill:rgb(100%,100%,100%);fill-opacity:1;" d="M 396.214844 475.355469 C 396.214844 481.089844 387.613281 481.089844 387.613281 475.355469 C 387.613281 469.621094 396.214844 469.621094 396.214844 475.355469 "/>
<path style=" stroke:none;fill-rule:nonzero;fill:rgb(100%,100%,100%);fill-opacity:1;" d="M 318.796875 496.859375 C 318.796875 502.59375 310.195312 502.59375 310.195312 496.859375 C 310.195312 491.125 318.796875 491.125 318.796875 496.859375 "/>
<path style=" stroke:none;fill-rule:nonzero;fill:rgb(100%,100%,100%);fill-opacity:1;" d="M 490.839844 220.730469 C 490.839844 226.464844 482.238281 226.464844 482.238281 220.730469 C 482.238281 214.996094 490.839844 214.996094 490.839844 220.730469 "/>
<path style=" stroke:none;fill-rule:nonzero;fill:rgb(100%,100%,100%);fill-opacity:1;" d="M 474.496094 191.484375 C 474.496094 197.21875 465.894531 197.21875 465.894531 191.484375 C 465.894531 185.75 474.496094 185.75 474.496094 191.484375 "/>
<path style=" stroke:none;fill-rule:nonzero;fill:rgb(100%,100%,100%);fill-opacity:1;" d="M 149.332031 354.925781 C 149.332031 360.660156 140.730469 360.660156 140.730469 354.925781 C 140.730469 349.191406 149.332031 349.191406 149.332031 354.925781 "/>
<path style=" stroke:none;fill-rule:nonzero;fill:rgb(100%,100%,100%);fill-opacity:1;" d="M 394.496094 129.546875 C 394.496094 135.28125 385.894531 135.28125 385.894531 129.546875 C 385.894531 123.8125 394.496094 123.8125 394.496094 129.546875 "/>
<path style=" stroke:none;fill-rule:nonzero;fill:rgb(100%,100%,100%);fill-opacity:1;" d="M 286.96875 502.023438 C 286.96875 507.757812 278.367188 507.757812 278.367188 502.023438 C 278.367188 496.289062 286.96875 496.289062 286.96875 502.023438 "/>
<path style=" stroke:none;fill-rule:nonzero;fill:rgb(100%,100%,100%);fill-opacity:1;" d="M 475.355469 216.429688 C 475.355469 222.164062 466.753906 222.164062 466.753906 216.429688 C 466.753906 210.695312 475.355469 210.695312 475.355469 216.429688 "/>
<path style=" stroke:none;fill-rule:nonzero;fill:rgb(100%,100%,100%);fill-opacity:1;" d="M 446.96875 212.988281 C 446.96875 218.722656 438.367188 218.722656 438.367188 212.988281 C 438.367188 207.253906 446.96875 207.253906 446.96875 212.988281 "/>
<path style=" stroke:none;fill-rule:nonzero;fill:rgb(100%,100%,100%);fill-opacity:1;" d="M 305.03125 9.976562 C 305.03125 15.710938 296.429688 15.710938 296.429688 9.976562 C 296.429688 4.242188 305.03125 4.242188 305.03125 9.976562 "/>
<path style=" stroke:none;fill-rule:nonzero;fill:rgb(100%,100%,100%);fill-opacity:1;" d="M 157.933594 499.441406 C 157.933594 505.175781 149.332031 505.175781 149.332031 499.441406 C 149.332031 493.707031 157.933594 493.707031 157.933594 499.441406 "/>
<path style=" stroke:none;fill-rule:nonzero;fill:rgb(100%,100%,100%);fill-opacity:1;" d="M 268.902344 512.34375 C 268.902344 518.078125 260.300781 518.078125 260.300781 512.34375 C 260.300781 506.609375 268.902344 506.609375 268.902344 512.34375 "/>
<path style=" stroke:none;fill-rule:nonzero;fill:rgb(100%,100%,100%);fill-opacity:1;" d="M 235.355469 5.675781 C 235.355469 11.410156 226.753906 11.410156 226.753906 5.675781 C 226.753906 -0.0585938 235.355469 -0.0585938 235.355469 5.675781 "/>
<path style=" stroke:none;fill-rule:nonzero;fill:rgb(100%,100%,100%);fill-opacity:1;" d="M 422.882812 21.160156 C 422.882812 26.894531 414.28125 26.894531 414.28125 21.160156 C 414.28125 15.425781 422.882812 15.425781 422.882812 21.160156 "/>
<path style=" stroke:none;fill-rule:nonzero;fill:rgb(100%,100%,100%);fill-opacity:1;" d="M 483.957031 392.773438 C 483.957031 398.507812 475.355469 398.507812 475.355469 392.773438 C 475.355469 387.039062 483.957031 387.039062 483.957031 392.773438 "/>
<path style=" stroke:none;fill-rule:nonzero;fill:rgb(100%,100%,100%);fill-opacity:1;" d="M 416.859375 446.109375 C 416.859375 451.84375 408.257812 451.84375 408.257812 446.109375 C 408.257812 440.375 416.859375 440.375 416.859375 446.109375 "/>
<path style=" stroke:none;fill-rule:nonzero;fill:rgb(100%,100%,100%);fill-opacity:1;" d="M 379.011719 18.582031 C 379.011719 24.316406 370.410156 24.316406 370.410156 18.582031 C 370.410156 12.847656 379.011719 12.847656 379.011719 18.582031 "/>
<path style=" stroke:none;fill-rule:nonzero;fill:rgb(100%,100%,100%);fill-opacity:1;" d="M 447.828125 397.074219 C 447.828125 402.808594 439.226562 402.808594 439.226562 397.074219 C 439.226562 391.339844 447.828125 391.339844 447.828125 397.074219 "/>
<path style=" stroke:none;fill-rule:nonzero;fill:rgb(100%,100%,100%);fill-opacity:1;" d="M 151.914062 325.675781 C 151.914062 331.410156 143.3125 331.410156 143.3125 325.675781 C 143.3125 319.941406 151.914062 319.941406 151.914062 325.675781 "/>
<path style=" stroke:none;fill-rule:nonzero;fill:rgb(100%,100%,100%);fill-opacity:1;" d="M 174.277344 40.085938 C 174.277344 45.820312 165.675781 45.820312 165.675781 40.085938 C 165.675781 34.351562 174.277344 34.351562 174.277344 40.085938 "/>
<path style=" stroke:none;fill-rule:nonzero;fill:rgb(100%,100%,100%);fill-opacity:1;" d="M 387.613281 168.257812 C 387.613281 173.992188 379.011719 173.992188 379.011719 168.257812 C 379.011719 162.523438 387.613281 162.523438 387.613281 168.257812 "/>
<path style=" stroke:none;fill-rule:nonzero;fill:rgb(100%,100%,100%);fill-opacity:1;" d="M 156.214844 240.515625 C 156.214844 246.25 147.613281 246.25 147.613281 240.515625 C 147.613281 234.78125 156.214844 234.78125 156.214844 240.515625 "/>
<path style=" stroke:none;fill-rule:nonzero;fill:rgb(100%,100%,100%);fill-opacity:1;" d="M 379.011719 291.269531 C 379.011719 297.003906 370.410156 297.003906 370.410156 291.269531 C 370.410156 285.535156 379.011719 285.535156 379.011719 291.269531 "/>
<path style=" stroke:none;fill-rule:nonzero;fill:rgb(100%,100%,100%);fill-opacity:1;" d="M 471.914062 145.03125 C 471.914062 150.765625 463.3125 150.765625 463.3125 145.03125 C 463.3125 139.296875 471.914062 139.296875 471.914062 145.03125 "/>
<path style=" stroke:none;fill-rule:nonzero;fill:rgb(100%,100%,100%);fill-opacity:1;" d="M 460.730469 157.074219 C 460.730469 162.808594 452.128906 162.808594 452.128906 157.074219 C 452.128906 151.339844 460.730469 151.339844 460.730469 157.074219 "/>
<path style=" stroke:none;fill-rule:nonzero;fill:rgb(100%,100%,100%);fill-opacity:1;" d="M 399.65625 483.957031 C 399.65625 489.691406 391.054688 489.691406 391.054688 483.957031 C 391.054688 478.222656 399.65625 478.222656 399.65625 483.957031 "/>
<path style=" stroke:none;fill-rule:nonzero;fill:rgb(100%,100%,100%);fill-opacity:1;" d="M 432.34375 137.289062 C 432.34375 143.023438 423.742188 143.023438 423.742188 137.289062 C 423.742188 131.554688 432.34375 131.554688 432.34375 137.289062 "/>
<path style=" stroke:none;fill-rule:nonzero;fill:rgb(100%,100%,100%);fill-opacity:1;" d="M 520.085938 462.453125 C 520.085938 468.1875 511.484375 468.1875 511.484375 462.453125 C 511.484375 456.71875 520.085938 456.71875 520.085938 462.453125 "/>
<path style=" stroke:none;fill-rule:nonzero;fill:rgb(100%,100%,100%);fill-opacity:1;" d="M 462.453125 120.945312 C 462.453125 126.679688 453.851562 126.679688 453.851562 120.945312 C 453.851562 115.210938 462.453125 115.210938 462.453125 120.945312 "/>
<path style=" stroke:none;fill-rule:nonzero;fill:rgb(100%,84.3%,0%);fill-opacity:1;" d="M 342.019531 142.453125 C 342.019531 148.1875 333.417969 148.1875 333.417969 142.453125 C 333.417969 136.71875 342.019531 136.71875 342.019531 142.453125 "/>
<path style=" stroke:none;fill-rule:nonzero;fill:rgb(100%,84.3%,0%);fill-opacity:1;" d="M 307.613281 434.925781 C 307.613281 440.660156 299.011719 440.660156 299.011719 434.925781 C 299.011719 429.191406 307.613281 429.191406 307.613281 434.925781 "/>
<path style=" stroke:none;fill-rule:nonzero;fill:rgb(100%,84.3%,0%);fill-opacity:1;" d="M 342.019531 460.730469 C 342.019531 466.464844 333.417969 466.464844 333.417969 460.730469 C 333.417969 454.996094 342.019531 454.996094 342.019531 460.730469 "/>
<path style=" stroke:none;fill-rule:nonzero;fill:rgb(100%,84.3%,0%);fill-opacity:1;" d="M 178.582031 245.675781 C 178.582031 251.410156 169.980469 251.410156 169.980469 245.675781 C 169.980469 239.941406 178.582031 239.941406 178.582031 245.675781 "/>
<path style=" stroke:none;fill-rule:nonzero;fill:rgb(100%,84.3%,0%);fill-opacity:1;" d="M 212.988281 452.128906 C 212.988281 457.863281 204.386719 457.863281 204.386719 452.128906 C 204.386719 446.394531 212.988281 446.394531 212.988281 452.128906 "/>
<path style=" stroke:none;fill-rule:nonzero;fill:rgb(100%,84.3%,0%);fill-opacity:1;" d="M 342.019531 73.632812 C 342.019531 79.367188 333.417969 79.367188 333.417969 73.632812 C 333.417969 67.898438 342.019531 67.898438 342.019531 73.632812 "/>
<path style=" stroke:none;fill-rule:nonzero;fill:rgb(100%,84.3%,0%);fill-opacity:1;" d="M 342.019531 357.503906 C 342.019531 363.238281 333.417969 363.238281 333.417969 357.503906 C 333.417969 351.769531 342.019531 351.769531 342.019531 357.503906 "/>
<path style=" stroke:none;fill-rule:nonzero;fill:rgb(100%,84.3%,0%);fill-opacity:1;" d="M 342.019531 271.484375 C 342.019531 277.21875 333.417969 277.21875 333.417969 271.484375 C 333.417969 265.75 342.019531 265.75 342.019531 271.484375 "/>
<path style=" stroke:none;fill-rule:nonzero;fill:rgb(100%,84.3%,0%);fill-opacity:1;" d="M 247.398438 443.527344 C 247.398438 449.261719 238.796875 449.261719 238.796875 443.527344 C 238.796875 437.792969 247.398438 437.792969 247.398438 443.527344 "/>
<path style=" stroke:none;fill-rule:nonzero;fill:rgb(100%,84.3%,0%);fill-opacity:1;" d="M 307.613281 443.527344 C 307.613281 449.261719 299.011719 449.261719 299.011719 443.527344 C 299.011719 437.792969 307.613281 437.792969 307.613281 443.527344 "/>
<path style=" stroke:none;fill-rule:nonzero;fill:rgb(100%,84.3%,0%);fill-opacity:1;" d="M 178.582031 168.257812 C 178.582031 173.992188 169.980469 173.992188 169.980469 168.257812 C 169.980469 162.523438 178.582031 162.523438 178.582031 168.257812 "/>
<path style=" stroke:none;fill-rule:nonzero;fill:rgb(100%,84.3%,0%);fill-opacity:1;" d="M 342.019531 219.871094 C 342.019531 225.605469 333.417969 225.605469 333.417969 219.871094 C 333.417969 214.136719 342.019531 214.136719 342.019531 219.871094 "/>
<path style=" stroke:none;fill-rule:nonzero;fill:rgb(100%,84.3%,0%);fill-opacity:1;" d="M 178.582031 90.839844 C 178.582031 96.574219 169.980469 96.574219 169.980469 90.839844 C 169.980469 85.105469 178.582031 85.105469 178.582031 90.839844 "/>
<path style=" stroke:none;fill-rule:nonzero;fill:rgb(100%,84.3%,0%);fill-opacity:1;" d="M 212.988281 51.269531 C 212.988281 57.003906 204.386719 57.003906 204.386719 51.269531 C 204.386719 45.535156 212.988281 45.535156 212.988281 51.269531 "/>
<path style=" stroke:none;fill-rule:nonzero;fill:rgb(100%,84.3%,0%);fill-opacity:1;" d="M 281.804688 434.925781 C 281.804688 440.660156 273.203125 440.660156 273.203125 434.925781 C 273.203125 429.191406 281.804688 429.191406 281.804688 434.925781 "/>
<path style=" stroke:none;fill-rule:nonzero;fill:rgb(100%,84.3%,0%);fill-opacity:1;" d="M 204.386719 452.128906 C 204.386719 457.863281 195.785156 457.863281 195.785156 452.128906 C 195.785156 446.394531 204.386719 446.394531 204.386719 452.128906 "/>
<path style=" stroke:none;fill-rule:nonzero;fill:rgb(100%,84.3%,0%);fill-opacity:1;" d="M 299.011719 426.324219 C 299.011719 432.058594 290.410156 432.058594 290.410156 426.324219 C 290.410156 420.589844 299.011719 420.589844 299.011719 426.324219 "/>
<path style=" stroke:none;fill-rule:nonzero;fill:rgb(100%,84.3%,0%);fill-opacity:1;" d="M 290.410156 426.324219 C 290.410156 432.058594 281.808594 432.058594 281.808594 426.324219 C 281.808594 420.589844 290.410156 420.589844 290.410156 426.324219 "/>
<path style=" stroke:none;fill-rule:nonzero;fill:rgb(100%,84.3%,0%);fill-opacity:1;" d="M 342.019531 331.699219 C 342.019531 337.433594 333.417969 337.433594 333.417969 331.699219 C 333.417969 325.964844 342.019531 325.964844 342.019531 331.699219 "/>
<path style=" stroke:none;fill-rule:nonzero;fill:rgb(100%,84.3%,0%);fill-opacity:1;" d="M 178.582031 400.515625 C 178.582031 406.25 169.980469 406.25 169.980469 400.515625 C 169.980469 394.78125 178.582031 394.78125 178.582031 400.515625 "/>
<path style=" stroke:none;fill-rule:nonzero;fill:rgb(100%,84.3%,0%);fill-opacity:1;" d="M 178.582031 357.503906 C 178.582031 363.238281 169.980469 363.238281 169.980469 357.503906 C 169.980469 351.769531 178.582031 351.769531 178.582031 357.503906 "/>
<path style=" stroke:none;fill-rule:nonzero;fill:rgb(100%,84.3%,0%);fill-opacity:1;" d="M 342.019531 288.6875 C 342.019531 294.421875 333.417969 294.421875 333.417969 288.6875 C 333.417969 282.953125 342.019531 282.953125 342.019531 288.6875 "/>
<path style=" stroke:none;fill-rule:nonzero;fill:rgb(100%,84.3%,0%);fill-opacity:1;" d="M 342.019531 51.269531 C 342.019531 57.003906 333.417969 57.003906 333.417969 51.269531 C 333.417969 45.535156 342.019531 45.535156 342.019531 51.269531 "/>
<path style=" stroke:none;fill-rule:nonzero;fill:rgb(100%,84.3%,0%);fill-opacity:1;" d="M 333.417969 409.117188 C 333.417969 414.851562 324.816406 414.851562 324.816406 409.117188 C 324.816406 403.382812 333.417969 403.382812 333.417969 409.117188 "/>
<path style=" stroke:none;fill-rule:nonzero;fill:rgb(100%,84.3%,0%);fill-opacity:1;" d="M 178.582031 297.289062 C 178.582031 303.023438 169.980469 303.023438 169.980469 297.289062 C 169.980469 291.554688 178.582031 291.554688 178.582031 297.289062 "/>
<path style=" stroke:none;fill-rule:nonzero;fill:rgb(100%,84.3%,0%);fill-opacity:1;" d="M 307.613281 452.128906 C 307.613281 457.863281 299.011719 457.863281 299.011719 452.128906 C 299.011719 446.394531 307.613281 446.394531 307.613281 452.128906 "/>
<path style=" stroke:none;fill-rule:nonzero;fill:rgb(100%,84.3%,0%);fill-opacity:1;" d="M 342.019531 245.675781 C 342.019531 251.410156 333.417969 251.410156 333.417969 245.675781 C 333.417969 239.941406 342.019531 239.941406 342.019531 245.675781 "/>
<path style=" stroke:none;fill-rule:nonzero;fill:rgb(100%,84.3%,0%);fill-opacity:1;" d="M 178.582031 237.074219 C 178.582031 242.808594 169.980469 242.808594 169.980469 237.074219 C 169.980469 231.339844 178.582031 231.339844 178.582031 237.074219 "/>
<path style=" stroke:none;fill-rule:nonzero;fill:rgb(100%,84.3%,0%);fill-opacity:1;" d="M 273.203125 434.925781 C 273.203125 440.660156 264.601562 440.660156 264.601562 434.925781 C 264.601562 429.191406 273.203125 429.191406 273.203125 434.925781 "/>
<path style=" stroke:none;fill-rule:nonzero;fill:rgb(100%,84.3%,0%);fill-opacity:1;" d="M 230.191406 426.324219 C 230.191406 432.058594 221.589844 432.058594 221.589844 426.324219 C 221.589844 420.589844 230.191406 420.589844 230.191406 426.324219 "/>
<path style=" stroke:none;fill-rule:nonzero;fill:rgb(100%,84.3%,0%);fill-opacity:1;" d="M 178.582031 185.460938 C 178.582031 191.195312 169.980469 191.195312 169.980469 185.460938 C 169.980469 179.726562 178.582031 179.726562 178.582031 185.460938 "/>
<path style=" stroke:none;fill-rule:nonzero;fill:rgb(100%,84.3%,0%);fill-opacity:1;" d="M 195.785156 452.128906 C 195.785156 457.863281 187.183594 457.863281 187.183594 452.128906 C 187.183594 446.394531 195.785156 446.394531 195.785156 452.128906 "/>
<path style=" stroke:none;fill-rule:nonzero;fill:rgb(100%,84.3%,0%);fill-opacity:1;" d="M 281.804688 452.128906 C 281.804688 457.863281 273.203125 457.863281 273.203125 452.128906 C 273.203125 446.394531 281.804688 446.394531 281.804688 452.128906 "/>
<path style=" stroke:none;fill-rule:nonzero;fill:rgb(100%,84.3%,0%);fill-opacity:1;" d="M 238.796875 417.71875 C 238.796875 423.453125 230.195312 423.453125 230.195312 417.71875 C 230.195312 411.984375 238.796875 411.984375 238.796875 417.71875 "/>
<path style=" stroke:none;fill-rule:nonzero;fill:rgb(100%,84.3%,0%);fill-opacity:1;" d="M 178.582031 51.269531 C 178.582031 57.003906 169.980469 57.003906 169.980469 51.269531 C 169.980469 45.535156 178.582031 45.535156 178.582031 51.269531 "/>
<path style=" stroke:none;fill-rule:nonzero;fill:rgb(100%,84.3%,0%);fill-opacity:1;" d="M 342.019531 280.085938 C 342.019531 285.820312 333.417969 285.820312 333.417969 280.085938 C 333.417969 274.351562 342.019531 274.351562 342.019531 280.085938 "/>
<path style=" stroke:none;fill-rule:nonzero;fill:rgb(100%,84.3%,0%);fill-opacity:1;" d="M 238.796875 434.925781 C 238.796875 440.660156 230.195312 440.660156 230.195312 434.925781 C 230.195312 429.191406 238.796875 429.191406 238.796875 434.925781 "/>
<path style=" stroke:none;fill-rule:nonzero;fill:rgb(100%,84.3%,0%);fill-opacity:1;" d="M 342.019531 383.3125 C 342.019531 389.046875 333.417969 389.046875 333.417969 383.3125 C 333.417969 377.578125 342.019531 377.578125 342.019531 383.3125 "/>
<path style=" stroke:none;fill-rule:nonzero;fill:rgb(100%,84.3%,0%);fill-opacity:1;" d="M 212.988281 460.730469 C 212.988281 466.464844 204.386719 466.464844 204.386719 460.730469 C 204.386719 454.996094 212.988281 454.996094 212.988281 460.730469 "/>
<path style=" stroke:none;fill-rule:nonzero;fill:rgb(100%,84.3%,0%);fill-opacity:1;" d="M 187.183594 452.128906 C 187.183594 457.863281 178.582031 457.863281 178.582031 452.128906 C 178.582031 446.394531 187.183594 446.394531 187.183594 452.128906 "/>
<path style=" stroke:none;fill-rule:nonzero;fill:rgb(100%,84.3%,0%);fill-opacity:1;" d="M 256 443.527344 C 256 449.261719 247.398438 449.261719 247.398438 443.527344 C 247.398438 437.792969 256 437.792969 256 443.527344 "/>
<path style=" stroke:none;fill-rule:nonzero;fill:rgb(100%,84.3%,0%);fill-opacity:1;" d="M 290.410156 51.269531 C 290.410156 57.003906 281.808594 57.003906 281.808594 51.269531 C 281.808594 45.535156 290.410156 45.535156 290.410156 51.269531 "/>
<path style=" stroke:none;fill-rule:nonzero;fill:rgb(100%,84.3%,0%);fill-opacity:1;" d="M 178.582031 159.65625 C 178.582031 165.390625 169.980469 165.390625 169.980469 159.65625 C 169.980469 153.921875 178.582031 153.921875 178.582031 159.65625 "/>
<path style=" stroke:none;fill-rule:nonzero;fill:rgb(100%,84.3%,0%);fill-opacity:1;" d="M 256 452.128906 C 256 457.863281 247.398438 457.863281 247.398438 452.128906 C 247.398438 446.394531 256 446.394531 256 452.128906 "/>
<path style=" stroke:none;fill-rule:nonzero;fill:rgb(100%,84.3%,0%);fill-opacity:1;" d="M 342.019531 348.902344 C 342.019531 354.636719 333.417969 354.636719 333.417969 348.902344 C 333.417969 343.167969 342.019531 343.167969 342.019531 348.902344 "/>
<path style=" stroke:none;fill-rule:nonzero;fill:rgb(100%,84.3%,0%);fill-opacity:1;" d="M 281.804688 51.269531 C 281.804688 57.003906 273.203125 57.003906 273.203125 51.269531 C 273.203125 45.535156 281.804688 45.535156 281.804688 51.269531 "/>
<path style=" stroke:none;fill-rule:nonzero;fill:rgb(100%,84.3%,0%);fill-opacity:1;" d="M 178.582031 460.730469 C 178.582031 466.464844 169.980469 466.464844 169.980469 460.730469 C 169.980469 454.996094 178.582031 454.996094 178.582031 460.730469 "/>
<path style=" stroke:none;fill-rule:nonzero;fill:rgb(100%,84.3%,0%);fill-opacity:1;" d="M 238.796875 51.269531 C 238.796875 57.003906 230.195312 57.003906 230.195312 51.269531 C 230.195312 45.535156 238.796875 45.535156 238.796875 51.269531 "/>
<path style=" stroke:none;fill-rule:nonzero;fill:rgb(100%,84.3%,0%);fill-opacity:1;" d="M 299.011719 51.269531 C 299.011719 57.003906 290.410156 57.003906 290.410156 51.269531 C 290.410156 45.535156 299.011719 45.535156 299.011719 51.269531 "/>
<path style=" stroke:none;fill-rule:nonzero;fill:rgb(100%,84.3%,0%);fill-opacity:1;" d="M 178.582031 288.6875 C 178.582031 294.421875 169.980469 294.421875 169.980469 288.6875 C 169.980469 282.953125 178.582031 282.953125 178.582031 288.6875 "/>
<path style=" stroke:none;fill-rule:nonzero;fill:rgb(100%,84.3%,0%);fill-opacity:1;" d="M 281.804688 460.730469 C 281.804688 466.464844 273.203125 466.464844 273.203125 460.730469 C 273.203125 454.996094 281.804688 454.996094 281.804688 460.730469 "/>
<path style=" stroke:none;fill-rule:nonzero;fill:rgb(100%,84.3%,0%);fill-opacity:1;" d="M 221.589844 51.269531 C 221.589844 57.003906 212.988281 57.003906 212.988281 51.269531 C 212.988281 45.535156 221.589844 45.535156 221.589844 51.269531 "/>
<path style=" stroke:none;fill-rule:nonzero;fill:rgb(100%,84.3%,0%);fill-opacity:1;" d="M 281.804688 443.527344 C 281.804688 449.261719 273.203125 449.261719 273.203125 443.527344 C 273.203125 437.792969 281.804688 437.792969 281.804688 443.527344 "/>
<path style=" stroke:none;fill-rule:nonzero;fill:rgb(100%,84.3%,0%);fill-opacity:1;" d="M 316.214844 460.730469 C 316.214844 466.464844 307.613281 466.464844 307.613281 460.730469 C 307.613281 454.996094 316.214844 454.996094 316.214844 460.730469 "/>
<path style=" stroke:none;fill-rule:nonzero;fill:rgb(100%,84.3%,0%);fill-opacity:1;" d="M 281.804688 409.117188 C 281.804688 414.851562 273.203125 414.851562 273.203125 409.117188 C 273.203125 403.382812 281.804688 403.382812 281.804688 409.117188 "/>
<path style=" stroke:none;fill-rule:nonzero;fill:rgb(100%,84.3%,0%);fill-opacity:1;" d="M 195.785156 443.527344 C 195.785156 449.261719 187.183594 449.261719 187.183594 443.527344 C 187.183594 437.792969 195.785156 437.792969 195.785156 443.527344 "/>
<path style=" stroke:none;fill-rule:nonzero;fill:rgb(100%,84.3%,0%);fill-opacity:1;" d="M 187.183594 434.925781 C 187.183594 440.660156 178.582031 440.660156 178.582031 434.925781 C 178.582031 429.191406 187.183594 429.191406 187.183594 434.925781 "/>
<path style=" stroke:none;fill-rule:nonzero;fill:rgb(100%,84.3%,0%);fill-opacity:1;" d="M 290.410156 443.527344 C 290.410156 449.261719 281.808594 449.261719 281.808594 443.527344 C 281.808594 437.792969 290.410156 437.792969 290.410156 443.527344 "/>
<path style=" stroke:none;fill-rule:nonzero;fill:rgb(100%,84.3%,0%);fill-opacity:1;" d="M 342.019531 409.117188 C 342.019531 414.851562 333.417969 414.851562 333.417969 409.117188 C 333.417969 403.382812 342.019531 403.382812 342.019531 409.117188 "/>
<path style=" stroke:none;fill-rule:nonzero;fill:rgb(100%,84.3%,0%);fill-opacity:1;" d="M 316.214844 434.925781 C 316.214844 440.660156 307.613281 440.660156 307.613281 434.925781 C 307.613281 429.191406 316.214844 429.191406 316.214844 434.925781 "/>
<path style=" stroke:none;fill-rule:nonzero;fill:rgb(100%,84.3%,0%);fill-opacity:1;" d="M 290.410156 460.730469 C 290.410156 466.464844 281.808594 466.464844 281.808594 460.730469 C 281.808594 454.996094 290.410156 454.996094 290.410156 460.730469 "/>
<path style=" stroke:none;fill-rule:nonzero;fill:rgb(100%,84.3%,0%);fill-opacity:1;" d="M 342.019531 116.644531 C 342.019531 122.378906 333.417969 122.378906 333.417969 116.644531 C 333.417969 110.910156 342.019531 110.910156 342.019531 116.644531 "/>
<path style=" stroke:none;fill-rule:nonzero;fill:rgb(100%,84.3%,0%);fill-opacity:1;" d="M 195.785156 51.269531 C 195.785156 57.003906 187.183594 57.003906 187.183594 51.269531 C 187.183594 45.535156 195.785156 45.535156 195.785156 51.269531 "/>
<path style=" stroke:none;fill-rule:nonzero;fill:rgb(100%,84.3%,0%);fill-opacity:1;" d="M 178.582031 73.632812 C 178.582031 79.367188 169.980469 79.367188 169.980469 73.632812 C 169.980469 67.898438 178.582031 67.898438 178.582031 73.632812 "/>
<path style=" stroke:none;fill-rule:nonzero;fill:rgb(100%,84.3%,0%);fill-opacity:1;" d="M 195.785156 409.117188 C 195.785156 414.851562 187.183594 414.851562 187.183594 409.117188 C 187.183594 403.382812 195.785156 403.382812 195.785156 409.117188 "/>
<path style=" stroke:none;fill-rule:nonzero;fill:rgb(100%,84.3%,0%);fill-opacity:1;" d="M 342.019531 297.289062 C 342.019531 303.023438 333.417969 303.023438 333.417969 297.289062 C 333.417969 291.554688 342.019531 291.554688 342.019531 297.289062 "/>
<path style=" stroke:none;fill-rule:nonzero;fill:rgb(100%,84.3%,0%);fill-opacity:1;" d="M 178.582031 116.644531 C 178.582031 122.378906 169.980469 122.378906 169.980469 116.644531 C 169.980469 110.910156 178.582031 110.910156 178.582031 116.644531 "/>
<path style=" stroke:none;fill-rule:nonzero;fill:rgb(100%,84.3%,0%);fill-opacity:1;" d="M 178.582031 366.109375 C 178.582031 371.84375 169.980469 371.84375 169.980469 366.109375 C 169.980469 360.375 178.582031 360.375 178.582031 366.109375 "/>
<path style=" stroke:none;fill-rule:nonzero;fill:rgb(100%,84.3%,0%);fill-opacity:1;" d="M 342.019531 185.460938 C 342.019531 191.195312 333.417969 191.195312 333.417969 185.460938 C 333.417969 179.726562 342.019531 179.726562 342.019531 185.460938 "/>
<path style=" stroke:none;fill-rule:nonzero;fill:rgb(100%,84.3%,0%);fill-opacity:1;" d="M 178.582031 374.710938 C 178.582031 380.445312 169.980469 380.445312 169.980469 374.710938 C 169.980469 368.976562 178.582031 368.976562 178.582031 374.710938 "/>
<path style=" stroke:none;fill-rule:nonzero;fill:rgb(100%,84.3%,0%);fill-opacity:1;" d="M 324.816406 452.128906 C 324.816406 457.863281 316.214844 457.863281 316.214844 452.128906 C 316.214844 446.394531 324.816406 446.394531 324.816406 452.128906 "/>
<path style=" stroke:none;fill-rule:nonzero;fill:rgb(100%,84.3%,0%);fill-opacity:1;" d="M 342.019531 99.441406 C 342.019531 105.175781 333.417969 105.175781 333.417969 99.441406 C 333.417969 93.707031 342.019531 93.707031 342.019531 99.441406 "/>
<path style=" stroke:none;fill-rule:nonzero;fill:rgb(100%,84.3%,0%);fill-opacity:1;" d="M 178.582031 142.453125 C 178.582031 148.1875 169.980469 148.1875 169.980469 142.453125 C 169.980469 136.71875 178.582031 136.71875 178.582031 142.453125 "/>
<path style=" stroke:none;fill-rule:nonzero;fill:rgb(100%,84.3%,0%);fill-opacity:1;" d="M 178.582031 133.847656 C 178.582031 139.582031 169.980469 139.582031 169.980469 133.847656 C 169.980469 128.113281 178.582031 128.113281 178.582031 133.847656 "/>
<path style=" stroke:none;fill-rule:nonzero;fill:rgb(100%,84.3%,0%);fill-opacity:1;" d="M 178.582031 194.066406 C 178.582031 199.800781 169.980469 199.800781 169.980469 194.066406 C 169.980469 188.332031 178.582031 188.332031 178.582031 194.066406 "/>
<path style=" stroke:none;fill-rule:nonzero;fill:rgb(100%,84.3%,0%);fill-opacity:1;" d="M 264.601562 51.269531 C 264.601562 57.003906 256 57.003906 256 51.269531 C 256 45.535156 264.601562 45.535156 264.601562 51.269531 "/>
<path style=" stroke:none;fill-rule:nonzero;fill:rgb(100%,84.3%,0%);fill-opacity:1;" d="M 290.410156 417.71875 C 290.410156 423.453125 281.808594 423.453125 281.808594 417.71875 C 281.808594 411.984375 290.410156 411.984375 290.410156 417.71875 "/>
<path style=" stroke:none;fill-rule:nonzero;fill:rgb(100%,84.3%,0%);fill-opacity:1;" d="M 238.796875 460.730469 C 238.796875 466.464844 230.195312 466.464844 230.195312 460.730469 C 230.195312 454.996094 238.796875 454.996094 238.796875 460.730469 "/>
<path style=" stroke:none;fill-rule:nonzero;fill:rgb(100%,84.3%,0%);fill-opacity:1;" d="M 178.582031 271.484375 C 178.582031 277.21875 169.980469 277.21875 169.980469 271.484375 C 169.980469 265.75 178.582031 265.75 178.582031 271.484375 "/>
<path style=" stroke:none;fill-rule:nonzero;fill:rgb(100%,84.3%,0%);fill-opacity:1;" d="M 256 409.117188 C 256 414.851562 247.398438 414.851562 247.398438 409.117188 C 247.398438 403.382812 256 403.382812 256 409.117188 "/>
<path style=" stroke:none;fill-rule:nonzero;fill:rgb(100%,84.3%,0%);fill-opacity:1;" d="M 247.398438 452.128906 C 247.398438 457.863281 238.796875 457.863281 238.796875 452.128906 C 238.796875 446.394531 247.398438 446.394531 247.398438 452.128906 "/>
<path style=" stroke:none;fill-rule:nonzero;fill:rgb(100%,84.3%,0%);fill-opacity:1;" d="M 178.582031 426.324219 C 178.582031 432.058594 169.980469 432.058594 169.980469 426.324219 C 169.980469 420.589844 178.582031 420.589844 178.582031 426.324219 "/>
<path style=" stroke:none;fill-rule:nonzero;fill:rgb(100%,84.3%,0%);fill-opacity:1;" d="M 204.386719 434.925781 C 204.386719 440.660156 195.785156 440.660156 195.785156 434.925781 C 195.785156 429.191406 204.386719 429.191406 204.386719 434.925781 "/>
<path style=" stroke:none;fill-rule:nonzero;fill:rgb(100%,84.3%,0%);fill-opacity:1;" d="M 324.816406 434.925781 C 324.816406 440.660156 316.214844 440.660156 316.214844 434.925781 C 316.214844 429.191406 324.816406 429.191406 324.816406 434.925781 "/>
<path style=" stroke:none;fill-rule:nonzero;fill:rgb(100%,84.3%,0%);fill-opacity:1;" d="M 187.183594 409.117188 C 187.183594 414.851562 178.582031 414.851562 178.582031 409.117188 C 178.582031 403.382812 187.183594 403.382812 187.183594 409.117188 "/>
<path style=" stroke:none;fill-rule:nonzero;fill:rgb(100%,84.3%,0%);fill-opacity:1;" d="M 221.589844 426.324219 C 221.589844 432.058594 212.988281 432.058594 212.988281 426.324219 C 212.988281 420.589844 221.589844 420.589844 221.589844 426.324219 "/>
<path style=" stroke:none;fill-rule:nonzero;fill:rgb(100%,84.3%,0%);fill-opacity:1;" d="M 230.191406 452.128906 C 230.191406 457.863281 221.589844 457.863281 221.589844 452.128906 C 221.589844 446.394531 230.191406 446.394531 230.191406 452.128906 "/>
<path style=" stroke:none;fill-rule:nonzero;fill:rgb(100%,84.3%,0%);fill-opacity:1;" d="M 324.816406 460.730469 C 324.816406 466.464844 316.214844 466.464844 316.214844 460.730469 C 316.214844 454.996094 324.816406 454.996094 324.816406 460.730469 "/>
<path style=" stroke:none;fill-rule:nonzero;fill:rgb(100%,84.3%,0%);fill-opacity:1;" d="M 342.019531 434.925781 C 342.019531 440.660156 333.417969 440.660156 333.417969 434.925781 C 333.417969 429.191406 342.019531 429.191406 342.019531 434.925781 "/>
<path style=" stroke:none;fill-rule:nonzero;fill:rgb(100%,84.3%,0%);fill-opacity:1;" d="M 221.589844 434.925781 C 221.589844 440.660156 212.988281 440.660156 212.988281 434.925781 C 212.988281 429.191406 221.589844 429.191406 221.589844 434.925781 "/>
<path style=" stroke:none;fill-rule:nonzero;fill:rgb(100%,84.3%,0%);fill-opacity:1;" d="M 342.019531 202.667969 C 342.019531 208.402344 333.417969 208.402344 333.417969 202.667969 C 333.417969 196.933594 342.019531 196.933594 342.019531 202.667969 "/>
<path style=" stroke:none;fill-rule:nonzero;fill:rgb(100%,84.3%,0%);fill-opacity:1;" d="M 204.386719 460.730469 C 204.386719 466.464844 195.785156 466.464844 195.785156 460.730469 C 195.785156 454.996094 204.386719 454.996094 204.386719 460.730469 "/>
<path style=" stroke:none;fill-rule:nonzero;fill:rgb(100%,84.3%,0%);fill-opacity:1;" d="M 342.019531 194.066406 C 342.019531 199.800781 333.417969 199.800781 333.417969 194.066406 C 333.417969 188.332031 342.019531 188.332031 342.019531 194.066406 "/>
<path style=" stroke:none;fill-rule:nonzero;fill:rgb(100%,84.3%,0%);fill-opacity:1;" d="M 342.019531 90.839844 C 342.019531 96.574219 333.417969 96.574219 333.417969 90.839844 C 333.417969 85.105469 342.019531 85.105469 342.019531 90.839844 "/>
<path style=" stroke:none;fill-rule:nonzero;fill:rgb(100%,84.3%,0%);fill-opacity:1;" d="M 256 417.71875 C 256 423.453125 247.398438 423.453125 247.398438 417.71875 C 247.398438 411.984375 256 411.984375 256 417.71875 "/>
<path style=" stroke:none;fill-rule:nonzero;fill:rgb(100%,84.3%,0%);fill-opacity:1;" d="M 178.582031 409.117188 C 178.582031 414.851562 169.980469 414.851562 169.980469 409.117188 C 169.980469 403.382812 178.582031 403.382812 178.582031 409.117188 "/>
<path style=" stroke:none;fill-rule:nonzero;fill:rgb(100%,84.3%,0%);fill-opacity:1;" d="M 324.816406 51.269531 C 324.816406 57.003906 316.214844 57.003906 316.214844 51.269531 C 316.214844 45.535156 324.816406 45.535156 324.816406 51.269531 "/>
<path style=" stroke:none;fill-rule:nonzero;fill:rgb(100%,84.3%,0%);fill-opacity:1;" d="M 273.203125 426.324219 C 273.203125 432.058594 264.601562 432.058594 264.601562 426.324219 C 264.601562 420.589844 273.203125 420.589844 273.203125 426.324219 "/>
<path style=" stroke:none;fill-rule:nonzero;fill:rgb(100%,84.3%,0%);fill-opacity:1;" d="M 178.582031 443.527344 C 178.582031 449.261719 169.980469 449.261719 169.980469 443.527344 C 169.980469 437.792969 178.582031 437.792969 178.582031 443.527344 "/>
<path style=" stroke:none;fill-rule:nonzero;fill:rgb(100%,84.3%,0%);fill-opacity:1;" d="M 273.203125 460.730469 C 273.203125 466.464844 264.601562 466.464844 264.601562 460.730469 C 264.601562 454.996094 273.203125 454.996094 273.203125 460.730469 "/>
<path style=" stroke:none;fill-rule:nonzero;fill:rgb(100%,84.3%,0%);fill-opacity:1;" d="M 187.183594 460.730469 C 187.183594 466.464844 178.582031 466.464844 178.582031 460.730469 C 178.582031 454.996094 187.183594 454.996094 187.183594 460.730469 "/>
<path style=" stroke:none;fill-rule:nonzero;fill:rgb(100%,84.3%,0%);fill-opacity:1;" d="M 273.203125 51.269531 C 273.203125 57.003906 264.601562 57.003906 264.601562 51.269531 C 264.601562 45.535156 273.203125 45.535156 273.203125 51.269531 "/>
<path style=" stroke:none;fill-rule:nonzero;fill:rgb(100%,84.3%,0%);fill-opacity:1;" d="M 342.019531 108.042969 C 342.019531 113.777344 333.417969 113.777344 333.417969 108.042969 C 333.417969 102.308594 342.019531 102.308594 342.019531 108.042969 "/>
<path style=" stroke:none;fill-rule:nonzero;fill:rgb(100%,84.3%,0%);fill-opacity:1;" d="M 281.804688 426.324219 C 281.804688 432.058594 273.203125 432.058594 273.203125 426.324219 C 273.203125 420.589844 281.804688 420.589844 281.804688 426.324219 "/>
<path style=" stroke:none;fill-rule:nonzero;fill:rgb(100%,84.3%,0%);fill-opacity:1;" d="M 264.601562 426.324219 C 264.601562 432.058594 256 432.058594 256 426.324219 C 256 420.589844 264.601562 420.589844 264.601562 426.324219 "/>
<path style=" stroke:none;fill-rule:nonzero;fill:rgb(100%,84.3%,0%);fill-opacity:1;" d="M 178.582031 391.914062 C 178.582031 397.648438 169.980469 397.648438 169.980469 391.914062 C 169.980469 386.179688 178.582031 386.179688 178.582031 391.914062 "/>
<path style=" stroke:none;fill-rule:nonzero;fill:rgb(100%,84.3%,0%);fill-opacity:1;" d="M 221.589844 452.128906 C 221.589844 457.863281 212.988281 457.863281 212.988281 452.128906 C 212.988281 446.394531 221.589844 446.394531 221.589844 452.128906 "/>
<path style=" stroke:none;fill-rule:nonzero;fill:rgb(100%,84.3%,0%);fill-opacity:1;" d="M 178.582031 348.902344 C 178.582031 354.636719 169.980469 354.636719 169.980469 348.902344 C 169.980469 343.167969 178.582031 343.167969 178.582031 348.902344 "/>
<path style=" stroke:none;fill-rule:nonzero;fill:rgb(100%,84.3%,0%);fill-opacity:1;" d="M 342.019531 391.914062 C 342.019531 397.648438 333.417969 397.648438 333.417969 391.914062 C 333.417969 386.179688 342.019531 386.179688 342.019531 391.914062 "/>
<path style=" stroke:none;fill-rule:nonzero;fill:rgb(100%,84.3%,0%);fill-opacity:1;" d="M 316.214844 452.128906 C 316.214844 457.863281 307.613281 457.863281 307.613281 452.128906 C 307.613281 446.394531 316.214844 446.394531 316.214844 452.128906 "/>
<path style=" stroke:none;fill-rule:nonzero;fill:rgb(100%,84.3%,0%);fill-opacity:1;" d="M 333.417969 443.527344 C 333.417969 449.261719 324.816406 449.261719 324.816406 443.527344 C 324.816406 437.792969 333.417969 437.792969 333.417969 443.527344 "/>
<path style=" stroke:none;fill-rule:nonzero;fill:rgb(100%,84.3%,0%);fill-opacity:1;" d="M 212.988281 434.925781 C 212.988281 440.660156 204.386719 440.660156 204.386719 434.925781 C 204.386719 429.191406 212.988281 429.191406 212.988281 434.925781 "/>
<path style=" stroke:none;fill-rule:nonzero;fill:rgb(100%,84.3%,0%);fill-opacity:1;" d="M 247.398438 460.730469 C 247.398438 466.464844 238.796875 466.464844 238.796875 460.730469 C 238.796875 454.996094 247.398438 454.996094 247.398438 460.730469 "/>
<path style=" stroke:none;fill-rule:nonzero;fill:rgb(100%,84.3%,0%);fill-opacity:1;" d="M 178.582031 452.128906 C 178.582031 457.863281 169.980469 457.863281 169.980469 452.128906 C 169.980469 446.394531 178.582031 446.394531 178.582031 452.128906 "/>
<path style=" stroke:none;fill-rule:nonzero;fill:rgb(100%,84.3%,0%);fill-opacity:1;" d="M 299.011719 452.128906 C 299.011719 457.863281 290.410156 457.863281 290.410156 452.128906 C 290.410156 446.394531 299.011719 446.394531 299.011719 452.128906 "/>
<path style=" stroke:none;fill-rule:nonzero;fill:rgb(100%,84.3%,0%);fill-opacity:1;" d="M 187.183594 426.324219 C 187.183594 432.058594 178.582031 432.058594 178.582031 426.324219 C 178.582031 420.589844 187.183594 420.589844 187.183594 426.324219 "/>
<path style=" stroke:none;fill-rule:nonzero;fill:rgb(100%,84.3%,0%);fill-opacity:1;" d="M 195.785156 434.925781 C 195.785156 440.660156 187.183594 440.660156 187.183594 434.925781 C 187.183594 429.191406 195.785156 429.191406 195.785156 434.925781 "/>
<path style=" stroke:none;fill-rule:nonzero;fill:rgb(100%,84.3%,0%);fill-opacity:1;" d="M 238.796875 452.128906 C 238.796875 457.863281 230.195312 457.863281 230.195312 452.128906 C 230.195312 446.394531 238.796875 446.394531 238.796875 452.128906 "/>
<path style=" stroke:none;fill-rule:nonzero;fill:rgb(100%,84.3%,0%);fill-opacity:1;" d="M 238.796875 443.527344 C 238.796875 449.261719 230.195312 449.261719 230.195312 443.527344 C 230.195312 437.792969 238.796875 437.792969 238.796875 443.527344 "/>
<path style=" stroke:none;fill-rule:nonzero;fill:rgb(100%,84.3%,0%);fill-opacity:1;" d="M 342.019531 151.054688 C 342.019531 156.789062 333.417969 156.789062 333.417969 151.054688 C 333.417969 145.320312 342.019531 145.320312 342.019531 151.054688 "/>
<path style=" stroke:none;fill-rule:nonzero;fill:rgb(100%,84.3%,0%);fill-opacity:1;" d="M 264.601562 434.925781 C 264.601562 440.660156 256 440.660156 256 434.925781 C 256 429.191406 264.601562 429.191406 264.601562 434.925781 "/>
<path style=" stroke:none;fill-rule:nonzero;fill:rgb(100%,84.3%,0%);fill-opacity:1;" d="M 178.582031 108.042969 C 178.582031 113.777344 169.980469 113.777344 169.980469 108.042969 C 169.980469 102.308594 178.582031 102.308594 178.582031 108.042969 "/>
<path style=" stroke:none;fill-rule:nonzero;fill:rgb(100%,84.3%,0%);fill-opacity:1;" d="M 299.011719 443.527344 C 299.011719 449.261719 290.410156 449.261719 290.410156 443.527344 C 290.410156 437.792969 299.011719 437.792969 299.011719 443.527344 "/>
<path style=" stroke:none;fill-rule:nonzero;fill:rgb(100%,84.3%,0%);fill-opacity:1;" d="M 247.398438 409.117188 C 247.398438 414.851562 238.796875 414.851562 238.796875 409.117188 C 238.796875 403.382812 247.398438 403.382812 247.398438 409.117188 "/>
<path style=" stroke:none;fill-rule:nonzero;fill:rgb(100%,84.3%,0%);fill-opacity:1;" d="M 342.019531 262.882812 C 342.019531 268.617188 333.417969 268.617188 333.417969 262.882812 C 333.417969 257.148438 342.019531 257.148438 342.019531 262.882812 "/>
<path style=" stroke:none;fill-rule:nonzero;fill:rgb(100%,84.3%,0%);fill-opacity:1;" d="M 178.582031 417.71875 C 178.582031 423.453125 169.980469 423.453125 169.980469 417.71875 C 169.980469 411.984375 178.582031 411.984375 178.582031 417.71875 "/>
<path style=" stroke:none;fill-rule:nonzero;fill:rgb(100%,84.3%,0%);fill-opacity:1;" d="M 290.410156 409.117188 C 290.410156 414.851562 281.808594 414.851562 281.808594 409.117188 C 281.808594 403.382812 290.410156 403.382812 290.410156 409.117188 "/>
<path style=" stroke:none;fill-rule:nonzero;fill:rgb(100%,84.3%,0%);fill-opacity:1;" d="M 273.203125 452.128906 C 273.203125 457.863281 264.601562 457.863281 264.601562 452.128906 C 264.601562 446.394531 273.203125 446.394531 273.203125 452.128906 "/>
<path style=" stroke:none;fill-rule:nonzero;fill:rgb(100%,84.3%,0%);fill-opacity:1;" d="M 178.582031 82.238281 C 178.582031 87.972656 169.980469 87.972656 169.980469 82.238281 C 169.980469 76.503906 178.582031 76.503906 178.582031 82.238281 "/>
<path style=" stroke:none;fill-rule:nonzero;fill:rgb(100%,84.3%,0%);fill-opacity:1;" d="M 178.582031 151.054688 C 178.582031 156.789062 169.980469 156.789062 169.980469 151.054688 C 169.980469 145.320312 178.582031 145.320312 178.582031 151.054688 "/>
<path style=" stroke:none;fill-rule:nonzero;fill:rgb(100%,84.3%,0%);fill-opacity:1;" d="M 342.019531 82.238281 C 342.019531 87.972656 333.417969 87.972656 333.417969 82.238281 C 333.417969 76.503906 342.019531 76.503906 342.019531 82.238281 "/>
<path style=" stroke:none;fill-rule:nonzero;fill:rgb(100%,84.3%,0%);fill-opacity:1;" d="M 264.601562 452.128906 C 264.601562 457.863281 256 457.863281 256 452.128906 C 256 446.394531 264.601562 446.394531 264.601562 452.128906 "/>
<path style=" stroke:none;fill-rule:nonzero;fill:rgb(100%,84.3%,0%);fill-opacity:1;" d="M 204.386719 409.117188 C 204.386719 414.851562 195.785156 414.851562 195.785156 409.117188 C 195.785156 403.382812 204.386719 403.382812 204.386719 409.117188 "/>
<path style=" stroke:none;fill-rule:nonzero;fill:rgb(100%,84.3%,0%);fill-opacity:1;" d="M 256 460.730469 C 256 466.464844 247.398438 466.464844 247.398438 460.730469 C 247.398438 454.996094 256 454.996094 256 460.730469 "/>
<path style=" stroke:none;fill-rule:nonzero;fill:rgb(100%,84.3%,0%);fill-opacity:1;" d="M 342.019531 323.097656 C 342.019531 328.832031 333.417969 328.832031 333.417969 323.097656 C 333.417969 317.363281 342.019531 317.363281 342.019531 323.097656 "/>
<path style=" stroke:none;fill-rule:nonzero;fill:rgb(100%,84.3%,0%);fill-opacity:1;" d="M 307.613281 51.269531 C 307.613281 57.003906 299.011719 57.003906 299.011719 51.269531 C 299.011719 45.535156 307.613281 45.535156 307.613281 51.269531 "/>
<path style=" stroke:none;fill-rule:nonzero;fill:rgb(100%,84.3%,0%);fill-opacity:1;" d="M 178.582031 125.246094 C 178.582031 130.980469 169.980469 130.980469 169.980469 125.246094 C 169.980469 119.511719 178.582031 119.511719 178.582031 125.246094 "/>
<path style=" stroke:none;fill-rule:nonzero;fill:rgb(100%,84.3%,0%);fill-opacity:1;" d="M 307.613281 460.730469 C 307.613281 466.464844 299.011719 466.464844 299.011719 460.730469 C 299.011719 454.996094 307.613281 454.996094 307.613281 460.730469 "/>
<path style=" stroke:none;fill-rule:nonzero;fill:rgb(100%,84.3%,0%);fill-opacity:1;" d="M 178.582031 176.859375 C 178.582031 182.59375 169.980469 182.59375 169.980469 176.859375 C 169.980469 171.125 178.582031 171.125 178.582031 176.859375 "/>
<path style=" stroke:none;fill-rule:nonzero;fill:rgb(100%,84.3%,0%);fill-opacity:1;" d="M 333.417969 51.269531 C 333.417969 57.003906 324.816406 57.003906 324.816406 51.269531 C 324.816406 45.535156 333.417969 45.535156 333.417969 51.269531 "/>
<path style=" stroke:none;fill-rule:nonzero;fill:rgb(100%,84.3%,0%);fill-opacity:1;" d="M 324.816406 426.324219 C 324.816406 432.058594 316.214844 432.058594 316.214844 426.324219 C 316.214844 420.589844 324.816406 420.589844 324.816406 426.324219 "/>
<path style=" stroke:none;fill-rule:nonzero;fill:rgb(100%,84.3%,0%);fill-opacity:1;" d="M 178.582031 280.085938 C 178.582031 285.820312 169.980469 285.820312 169.980469 280.085938 C 169.980469 274.351562 178.582031 274.351562 178.582031 280.085938 "/>
<path style=" stroke:none;fill-rule:nonzero;fill:rgb(100%,84.3%,0%);fill-opacity:1;" d="M 230.191406 434.925781 C 230.191406 440.660156 221.589844 440.660156 221.589844 434.925781 C 221.589844 429.191406 230.191406 429.191406 230.191406 434.925781 "/>
<path style=" stroke:none;fill-rule:nonzero;fill:rgb(100%,84.3%,0%);fill-opacity:1;" d="M 238.796875 409.117188 C 238.796875 414.851562 230.195312 414.851562 230.195312 409.117188 C 230.195312 403.382812 238.796875 403.382812 238.796875 409.117188 "/>
<path style=" stroke:none;fill-rule:nonzero;fill:rgb(100%,84.3%,0%);fill-opacity:1;" d="M 290.410156 452.128906 C 290.410156 457.863281 281.808594 457.863281 281.808594 452.128906 C 281.808594 446.394531 290.410156 446.394531 290.410156 452.128906 "/>
<path style=" stroke:none;fill-rule:nonzero;fill:rgb(100%,84.3%,0%);fill-opacity:1;" d="M 299.011719 434.925781 C 299.011719 440.660156 290.410156 440.660156 290.410156 434.925781 C 290.410156 429.191406 299.011719 429.191406 299.011719 434.925781 "/>
<path style=" stroke:none;fill-rule:nonzero;fill:rgb(100%,84.3%,0%);fill-opacity:1;" d="M 256 51.269531 C 256 57.003906 247.398438 57.003906 247.398438 51.269531 C 247.398438 45.535156 256 45.535156 256 51.269531 "/>
<path style=" stroke:none;fill-rule:nonzero;fill:rgb(100%,84.3%,0%);fill-opacity:1;" d="M 221.589844 417.71875 C 221.589844 423.453125 212.988281 423.453125 212.988281 417.71875 C 212.988281 411.984375 221.589844 411.984375 221.589844 417.71875 "/>
<path style=" stroke:none;fill-rule:nonzero;fill:rgb(100%,84.3%,0%);fill-opacity:1;" d="M 195.785156 400.515625 C 195.785156 406.25 187.183594 406.25 187.183594 400.515625 C 187.183594 394.78125 195.785156 394.78125 195.785156 400.515625 "/>
<path style=" stroke:none;fill-rule:nonzero;fill:rgb(100%,84.3%,0%);fill-opacity:1;" d="M 333.417969 452.128906 C 333.417969 457.863281 324.816406 457.863281 324.816406 452.128906 C 324.816406 446.394531 333.417969 446.394531 333.417969 452.128906 "/>
<path style=" stroke:none;fill-rule:nonzero;fill:rgb(100%,84.3%,0%);fill-opacity:1;" d="M 187.183594 443.527344 C 187.183594 449.261719 178.582031 449.261719 178.582031 443.527344 C 178.582031 437.792969 187.183594 437.792969 187.183594 443.527344 "/>
<path style=" stroke:none;fill-rule:nonzero;fill:rgb(100%,84.3%,0%);fill-opacity:1;" d="M 204.386719 443.527344 C 204.386719 449.261719 195.785156 449.261719 195.785156 443.527344 C 195.785156 437.792969 204.386719 437.792969 204.386719 443.527344 "/>
<path style=" stroke:none;fill-rule:nonzero;fill:rgb(100%,84.3%,0%);fill-opacity:1;" d="M 342.019531 340.300781 C 342.019531 346.035156 333.417969 346.035156 333.417969 340.300781 C 333.417969 334.566406 342.019531 334.566406 342.019531 340.300781 "/>
<path style=" stroke:none;fill-rule:nonzero;fill:rgb(100%,84.3%,0%);fill-opacity:1;" d="M 212.988281 443.527344 C 212.988281 449.261719 204.386719 449.261719 204.386719 443.527344 C 204.386719 437.792969 212.988281 437.792969 212.988281 443.527344 "/>
<path style=" stroke:none;fill-rule:nonzero;fill:rgb(100%,84.3%,0%);fill-opacity:1;" d="M 221.589844 443.527344 C 221.589844 449.261719 212.988281 449.261719 212.988281 443.527344 C 212.988281 437.792969 221.589844 437.792969 221.589844 443.527344 "/>
<path style=" stroke:none;fill-rule:nonzero;fill:rgb(100%,84.3%,0%);fill-opacity:1;" d="M 230.191406 443.527344 C 230.191406 449.261719 221.589844 449.261719 221.589844 443.527344 C 221.589844 437.792969 230.191406 437.792969 230.191406 443.527344 "/>
<path style=" stroke:none;fill-rule:nonzero;fill:rgb(100%,84.3%,0%);fill-opacity:1;" d="M 178.582031 262.882812 C 178.582031 268.617188 169.980469 268.617188 169.980469 262.882812 C 169.980469 257.148438 178.582031 257.148438 178.582031 262.882812 "/>
<path style=" stroke:none;fill-rule:nonzero;fill:rgb(100%,84.3%,0%);fill-opacity:1;" d="M 342.019531 228.472656 C 342.019531 234.207031 333.417969 234.207031 333.417969 228.472656 C 333.417969 222.738281 342.019531 222.738281 342.019531 228.472656 "/>
<path style=" stroke:none;fill-rule:nonzero;fill:rgb(100%,84.3%,0%);fill-opacity:1;" d="M 230.191406 51.269531 C 230.191406 57.003906 221.589844 57.003906 221.589844 51.269531 C 221.589844 45.535156 230.191406 45.535156 230.191406 51.269531 "/>
<path style=" stroke:none;fill-rule:nonzero;fill:rgb(100%,84.3%,0%);fill-opacity:1;" d="M 264.601562 443.527344 C 264.601562 449.261719 256 449.261719 256 443.527344 C 256 437.792969 264.601562 437.792969 264.601562 443.527344 "/>
<path style=" stroke:none;fill-rule:nonzero;fill:rgb(100%,84.3%,0%);fill-opacity:1;" d="M 273.203125 443.527344 C 273.203125 449.261719 264.601562 449.261719 264.601562 443.527344 C 264.601562 437.792969 273.203125 437.792969 273.203125 443.527344 "/>
<path style=" stroke:none;fill-rule:nonzero;fill:rgb(100%,84.3%,0%);fill-opacity:1;" d="M 342.019531 125.246094 C 342.019531 130.980469 333.417969 130.980469 333.417969 125.246094 C 333.417969 119.511719 342.019531 119.511719 342.019531 125.246094 "/>
<path style=" stroke:none;fill-rule:nonzero;fill:rgb(100%,84.3%,0%);fill-opacity:1;" d="M 342.019531 168.257812 C 342.019531 173.992188 333.417969 173.992188 333.417969 168.257812 C 333.417969 162.523438 342.019531 162.523438 342.019531 168.257812 "/>
<path style=" stroke:none;fill-rule:nonzero;fill:rgb(100%,84.3%,0%);fill-opacity:1;" d="M 342.019531 400.515625 C 342.019531 406.25 333.417969 406.25 333.417969 400.515625 C 333.417969 394.78125 342.019531 394.78125 342.019531 400.515625 "/>
<path style=" stroke:none;fill-rule:nonzero;fill:rgb(100%,84.3%,0%);fill-opacity:1;" d="M 307.613281 426.324219 C 307.613281 432.058594 299.011719 432.058594 299.011719 426.324219 C 299.011719 420.589844 307.613281 420.589844 307.613281 426.324219 "/>
<path style=" stroke:none;fill-rule:nonzero;fill:rgb(100%,84.3%,0%);fill-opacity:1;" d="M 316.214844 443.527344 C 316.214844 449.261719 307.613281 449.261719 307.613281 443.527344 C 307.613281 437.792969 316.214844 437.792969 316.214844 443.527344 "/>
<path style=" stroke:none;fill-rule:nonzero;fill:rgb(100%,84.3%,0%);fill-opacity:1;" d="M 324.816406 443.527344 C 324.816406 449.261719 316.214844 449.261719 316.214844 443.527344 C 316.214844 437.792969 324.816406 437.792969 324.816406 443.527344 "/>
<path style=" stroke:none;fill-rule:nonzero;fill:rgb(100%,84.3%,0%);fill-opacity:1;" d="M 256 426.324219 C 256 432.058594 247.398438 432.058594 247.398438 426.324219 C 247.398438 420.589844 256 420.589844 256 426.324219 "/>
<path style=" stroke:none;fill-rule:nonzero;fill:rgb(100%,84.3%,0%);fill-opacity:1;" d="M 342.019531 452.128906 C 342.019531 457.863281 333.417969 457.863281 333.417969 452.128906 C 333.417969 446.394531 342.019531 446.394531 342.019531 452.128906 "/>
<path style=" stroke:none;fill-rule:nonzero;fill:rgb(100%,84.3%,0%);fill-opacity:1;" d="M 324.816406 417.71875 C 324.816406 423.453125 316.214844 423.453125 316.214844 417.71875 C 316.214844 411.984375 324.816406 411.984375 324.816406 417.71875 "/>
<path style=" stroke:none;fill-rule:nonzero;fill:rgb(100%,84.3%,0%);fill-opacity:1;" d="M 342.019531 133.847656 C 342.019531 139.582031 333.417969 139.582031 333.417969 133.847656 C 333.417969 128.113281 342.019531 128.113281 342.019531 133.847656 "/>
<path style=" stroke:none;fill-rule:nonzero;fill:rgb(100%,84.3%,0%);fill-opacity:1;" d="M 178.582031 323.097656 C 178.582031 328.832031 169.980469 328.832031 169.980469 323.097656 C 169.980469 317.363281 178.582031 317.363281 178.582031 323.097656 "/>
<path style=" stroke:none;fill-rule:nonzero;fill:rgb(100%,84.3%,0%);fill-opacity:1;" d="M 230.191406 409.117188 C 230.191406 414.851562 221.589844 414.851562 221.589844 409.117188 C 221.589844 403.382812 230.191406 403.382812 230.191406 409.117188 "/>
<path style=" stroke:none;fill-rule:nonzero;fill:rgb(100%,84.3%,0%);fill-opacity:1;" d="M 178.582031 211.269531 C 178.582031 217.003906 169.980469 217.003906 169.980469 211.269531 C 169.980469 205.535156 178.582031 205.535156 178.582031 211.269531 "/>
<path style=" stroke:none;fill-rule:nonzero;fill:rgb(100%,84.3%,0%);fill-opacity:1;" d="M 342.019531 176.859375 C 342.019531 182.59375 333.417969 182.59375 333.417969 176.859375 C 333.417969 171.125 342.019531 171.125 342.019531 176.859375 "/>
<path style=" stroke:none;fill-rule:nonzero;fill:rgb(100%,84.3%,0%);fill-opacity:1;" d="M 247.398438 434.925781 C 247.398438 440.660156 238.796875 440.660156 238.796875 434.925781 C 238.796875 429.191406 247.398438 429.191406 247.398438 434.925781 "/>
<path style=" stroke:none;fill-rule:nonzero;fill:rgb(100%,84.3%,0%);fill-opacity:1;" d="M 256 434.925781 C 256 440.660156 247.398438 440.660156 247.398438 434.925781 C 247.398438 429.191406 256 429.191406 256 434.925781 "/>
<path style=" stroke:none;fill-rule:nonzero;fill:rgb(100%,84.3%,0%);fill-opacity:1;" d="M 178.582031 305.890625 C 178.582031 311.625 169.980469 311.625 169.980469 305.890625 C 169.980469 300.15625 178.582031 300.15625 178.582031 305.890625 "/>
<path style=" stroke:none;fill-rule:nonzero;fill:rgb(100%,84.3%,0%);fill-opacity:1;" d="M 204.386719 51.269531 C 204.386719 57.003906 195.785156 57.003906 195.785156 51.269531 C 195.785156 45.535156 204.386719 45.535156 204.386719 51.269531 "/>
<path style=" stroke:none;fill-rule:nonzero;fill:rgb(100%,84.3%,0%);fill-opacity:1;" d="M 324.816406 409.117188 C 324.816406 414.851562 316.214844 414.851562 316.214844 409.117188 C 316.214844 403.382812 324.816406 403.382812 324.816406 409.117188 "/>
<path style=" stroke:none;fill-rule:nonzero;fill:rgb(100%,84.3%,0%);fill-opacity:1;" d="M 290.410156 434.925781 C 290.410156 440.660156 281.808594 440.660156 281.808594 434.925781 C 281.808594 429.191406 290.410156 429.191406 290.410156 434.925781 "/>
<path style=" stroke:none;fill-rule:nonzero;fill:rgb(100%,84.3%,0%);fill-opacity:1;" d="M 342.019531 65.03125 C 342.019531 70.765625 333.417969 70.765625 333.417969 65.03125 C 333.417969 59.296875 342.019531 59.296875 342.019531 65.03125 "/>
<path style=" stroke:none;fill-rule:nonzero;fill:rgb(100%,84.3%,0%);fill-opacity:1;" d="M 342.019531 237.074219 C 342.019531 242.808594 333.417969 242.808594 333.417969 237.074219 C 333.417969 231.339844 342.019531 231.339844 342.019531 237.074219 "/>
<path style=" stroke:none;fill-rule:nonzero;fill:rgb(100%,84.3%,0%);fill-opacity:1;" d="M 187.183594 400.515625 C 187.183594 406.25 178.582031 406.25 178.582031 400.515625 C 178.582031 394.78125 187.183594 394.78125 187.183594 400.515625 "/>
<path style=" stroke:none;fill-rule:nonzero;fill:rgb(100%,84.3%,0%);fill-opacity:1;" d="M 333.417969 426.324219 C 333.417969 432.058594 324.816406 432.058594 324.816406 426.324219 C 324.816406 420.589844 333.417969 420.589844 333.417969 426.324219 "/>
<path style=" stroke:none;fill-rule:nonzero;fill:rgb(100%,84.3%,0%);fill-opacity:1;" d="M 333.417969 434.925781 C 333.417969 440.660156 324.816406 440.660156 324.816406 434.925781 C 324.816406 429.191406 333.417969 429.191406 333.417969 434.925781 "/>
<path style=" stroke:none;fill-rule:nonzero;fill:rgb(100%,84.3%,0%);fill-opacity:1;" d="M 342.019531 426.324219 C 342.019531 432.058594 333.417969 432.058594 333.417969 426.324219 C 333.417969 420.589844 342.019531 420.589844 342.019531 426.324219 "/>
<path style=" stroke:none;fill-rule:nonzero;fill:rgb(100%,84.3%,0%);fill-opacity:1;" d="M 195.785156 426.324219 C 195.785156 432.058594 187.183594 432.058594 187.183594 426.324219 C 187.183594 420.589844 195.785156 420.589844 195.785156 426.324219 "/>
<path style=" stroke:none;fill-rule:nonzero;fill:rgb(100%,84.3%,0%);fill-opacity:1;" d="M 204.386719 426.324219 C 204.386719 432.058594 195.785156 432.058594 195.785156 426.324219 C 195.785156 420.589844 204.386719 420.589844 204.386719 426.324219 "/>
<path style=" stroke:none;fill-rule:nonzero;fill:rgb(100%,84.3%,0%);fill-opacity:1;" d="M 212.988281 426.324219 C 212.988281 432.058594 204.386719 432.058594 204.386719 426.324219 C 204.386719 420.589844 212.988281 420.589844 212.988281 426.324219 "/>
<path style=" stroke:none;fill-rule:nonzero;fill:rgb(100%,84.3%,0%);fill-opacity:1;" d="M 178.582031 65.03125 C 178.582031 70.765625 169.980469 70.765625 169.980469 65.03125 C 169.980469 59.296875 178.582031 59.296875 178.582031 65.03125 "/>
<path style=" stroke:none;fill-rule:nonzero;fill:rgb(100%,84.3%,0%);fill-opacity:1;" d="M 178.582031 314.496094 C 178.582031 320.230469 169.980469 320.230469 169.980469 314.496094 C 169.980469 308.761719 178.582031 308.761719 178.582031 314.496094 "/>
<path style=" stroke:none;fill-rule:nonzero;fill:rgb(100%,84.3%,0%);fill-opacity:1;" d="M 238.796875 426.324219 C 238.796875 432.058594 230.195312 432.058594 230.195312 426.324219 C 230.195312 420.589844 238.796875 420.589844 238.796875 426.324219 "/>
<path style=" stroke:none;fill-rule:nonzero;fill:rgb(100%,84.3%,0%);fill-opacity:1;" d="M 247.398438 426.324219 C 247.398438 432.058594 238.796875 432.058594 238.796875 426.324219 C 238.796875 420.589844 247.398438 420.589844 247.398438 426.324219 "/>
<path style=" stroke:none;fill-rule:nonzero;fill:rgb(100%,84.3%,0%);fill-opacity:1;" d="M 299.011719 460.730469 C 299.011719 466.464844 290.410156 466.464844 290.410156 460.730469 C 290.410156 454.996094 299.011719 454.996094 299.011719 460.730469 "/>
<path style=" stroke:none;fill-rule:nonzero;fill:rgb(100%,84.3%,0%);fill-opacity:1;" d="M 187.183594 51.269531 C 187.183594 57.003906 178.582031 57.003906 178.582031 51.269531 C 178.582031 45.535156 187.183594 45.535156 187.183594 51.269531 "/>
<path style=" stroke:none;fill-rule:nonzero;fill:rgb(100%,84.3%,0%);fill-opacity:1;" d="M 221.589844 460.730469 C 221.589844 466.464844 212.988281 466.464844 212.988281 460.730469 C 212.988281 454.996094 221.589844 454.996094 221.589844 460.730469 "/>
<path style=" stroke:none;fill-rule:nonzero;fill:rgb(100%,84.3%,0%);fill-opacity:1;" d="M 273.203125 409.117188 C 273.203125 414.851562 264.601562 414.851562 264.601562 409.117188 C 264.601562 403.382812 273.203125 403.382812 273.203125 409.117188 "/>
<path style=" stroke:none;fill-rule:nonzero;fill:rgb(100%,84.3%,0%);fill-opacity:1;" d="M 178.582031 228.472656 C 178.582031 234.207031 169.980469 234.207031 169.980469 228.472656 C 169.980469 222.738281 178.582031 222.738281 178.582031 228.472656 "/>
<path style=" stroke:none;fill-rule:nonzero;fill:rgb(100%,84.3%,0%);fill-opacity:1;" d="M 178.582031 434.925781 C 178.582031 440.660156 169.980469 440.660156 169.980469 434.925781 C 169.980469 429.191406 178.582031 429.191406 178.582031 434.925781 "/>
<path style=" stroke:none;fill-rule:nonzero;fill:rgb(100%,84.3%,0%);fill-opacity:1;" d="M 316.214844 51.269531 C 316.214844 57.003906 307.613281 57.003906 307.613281 51.269531 C 307.613281 45.535156 316.214844 45.535156 316.214844 51.269531 "/>
<path style=" stroke:none;fill-rule:nonzero;fill:rgb(100%,84.3%,0%);fill-opacity:1;" d="M 316.214844 426.324219 C 316.214844 432.058594 307.613281 432.058594 307.613281 426.324219 C 307.613281 420.589844 316.214844 420.589844 316.214844 426.324219 "/>
<path style=" stroke:none;fill-rule:nonzero;fill:rgb(100%,84.3%,0%);fill-opacity:1;" d="M 178.582031 331.699219 C 178.582031 337.433594 169.980469 337.433594 169.980469 331.699219 C 169.980469 325.964844 178.582031 325.964844 178.582031 331.699219 "/>
<path style=" stroke:none;fill-rule:nonzero;fill:rgb(100%,84.3%,0%);fill-opacity:1;" d="M 204.386719 417.71875 C 204.386719 423.453125 195.785156 423.453125 195.785156 417.71875 C 195.785156 411.984375 204.386719 411.984375 204.386719 417.71875 "/>
<path style=" stroke:none;fill-rule:nonzero;fill:rgb(100%,84.3%,0%);fill-opacity:1;" d="M 187.183594 417.71875 C 187.183594 423.453125 178.582031 423.453125 178.582031 417.71875 C 178.582031 411.984375 187.183594 411.984375 187.183594 417.71875 "/>
<path style=" stroke:none;fill-rule:nonzero;fill:rgb(100%,84.3%,0%);fill-opacity:1;" d="M 195.785156 417.71875 C 195.785156 423.453125 187.183594 423.453125 187.183594 417.71875 C 187.183594 411.984375 195.785156 411.984375 195.785156 417.71875 "/>
<path style=" stroke:none;fill-rule:nonzero;fill:rgb(100%,84.3%,0%);fill-opacity:1;" d="M 178.582031 99.441406 C 178.582031 105.175781 169.980469 105.175781 169.980469 99.441406 C 169.980469 93.707031 178.582031 93.707031 178.582031 99.441406 "/>
<path style=" stroke:none;fill-rule:nonzero;fill:rgb(100%,84.3%,0%);fill-opacity:1;" d="M 212.988281 417.71875 C 212.988281 423.453125 204.386719 423.453125 204.386719 417.71875 C 204.386719 411.984375 212.988281 411.984375 212.988281 417.71875 "/>
<path style=" stroke:none;fill-rule:nonzero;fill:rgb(100%,84.3%,0%);fill-opacity:1;" d="M 342.019531 417.71875 C 342.019531 423.453125 333.417969 423.453125 333.417969 417.71875 C 333.417969 411.984375 342.019531 411.984375 342.019531 417.71875 "/>
<path style=" stroke:none;fill-rule:nonzero;fill:rgb(100%,84.3%,0%);fill-opacity:1;" d="M 230.191406 417.71875 C 230.191406 423.453125 221.589844 423.453125 221.589844 417.71875 C 221.589844 411.984375 230.191406 411.984375 230.191406 417.71875 "/>
<path style=" stroke:none;fill-rule:nonzero;fill:rgb(100%,84.3%,0%);fill-opacity:1;" d="M 264.601562 460.730469 C 264.601562 466.464844 256 466.464844 256 460.730469 C 256 454.996094 264.601562 454.996094 264.601562 460.730469 "/>
<path style=" stroke:none;fill-rule:nonzero;fill:rgb(100%,84.3%,0%);fill-opacity:1;" d="M 247.398438 417.71875 C 247.398438 423.453125 238.796875 423.453125 238.796875 417.71875 C 238.796875 411.984375 247.398438 411.984375 247.398438 417.71875 "/>
<path style=" stroke:none;fill-rule:nonzero;fill:rgb(100%,84.3%,0%);fill-opacity:1;" d="M 178.582031 202.667969 C 178.582031 208.402344 169.980469 208.402344 169.980469 202.667969 C 169.980469 196.933594 178.582031 196.933594 178.582031 202.667969 "/>
<path style=" stroke:none;fill-rule:nonzero;fill:rgb(100%,84.3%,0%);fill-opacity:1;" d="M 264.601562 417.71875 C 264.601562 423.453125 256 423.453125 256 417.71875 C 256 411.984375 264.601562 411.984375 264.601562 417.71875 "/>
<path style=" stroke:none;fill-rule:nonzero;fill:rgb(100%,84.3%,0%);fill-opacity:1;" d="M 273.203125 417.71875 C 273.203125 423.453125 264.601562 423.453125 264.601562 417.71875 C 264.601562 411.984375 273.203125 411.984375 273.203125 417.71875 "/>
<path style=" stroke:none;fill-rule:nonzero;fill:rgb(100%,84.3%,0%);fill-opacity:1;" d="M 281.804688 417.71875 C 281.804688 423.453125 273.203125 423.453125 273.203125 417.71875 C 273.203125 411.984375 281.804688 411.984375 281.804688 417.71875 "/>
<path style=" stroke:none;fill-rule:nonzero;fill:rgb(100%,84.3%,0%);fill-opacity:1;" d="M 342.019531 366.109375 C 342.019531 371.84375 333.417969 371.84375 333.417969 366.109375 C 333.417969 360.375 342.019531 360.375 342.019531 366.109375 "/>
<path style=" stroke:none;fill-rule:nonzero;fill:rgb(100%,84.3%,0%);fill-opacity:1;" d="M 299.011719 417.71875 C 299.011719 423.453125 290.410156 423.453125 290.410156 417.71875 C 290.410156 411.984375 299.011719 411.984375 299.011719 417.71875 "/>
<path style=" stroke:none;fill-rule:nonzero;fill:rgb(100%,84.3%,0%);fill-opacity:1;" d="M 307.613281 417.71875 C 307.613281 423.453125 299.011719 423.453125 299.011719 417.71875 C 299.011719 411.984375 307.613281 411.984375 307.613281 417.71875 "/>
<path style=" stroke:none;fill-rule:nonzero;fill:rgb(100%,84.3%,0%);fill-opacity:1;" d="M 316.214844 417.71875 C 316.214844 423.453125 307.613281 423.453125 307.613281 417.71875 C 307.613281 411.984375 316.214844 411.984375 316.214844 417.71875 "/>
<path style=" stroke:none;fill-rule:nonzero;fill:rgb(100%,84.3%,0%);fill-opacity:1;" d="M 342.019531 443.527344 C 342.019531 449.261719 333.417969 449.261719 333.417969 443.527344 C 333.417969 437.792969 342.019531 437.792969 342.019531 443.527344 "/>
<path style=" stroke:none;fill-rule:nonzero;fill:rgb(100%,84.3%,0%);fill-opacity:1;" d="M 333.417969 417.71875 C 333.417969 423.453125 324.816406 423.453125 324.816406 417.71875 C 324.816406 411.984375 333.417969 411.984375 333.417969 417.71875 "/>
<path style=" stroke:none;fill-rule:nonzero;fill:rgb(100%,84.3%,0%);fill-opacity:1;" d="M 195.785156 460.730469 C 195.785156 466.464844 187.183594 466.464844 187.183594 460.730469 C 187.183594 454.996094 195.785156 454.996094 195.785156 460.730469 "/>
<path style=" stroke:none;fill-rule:nonzero;fill:rgb(100%,84.3%,0%);fill-opacity:1;" d="M 342.019531 254.28125 C 342.019531 260.015625 333.417969 260.015625 333.417969 254.28125 C 333.417969 248.546875 342.019531 248.546875 342.019531 254.28125 "/>
<path style=" stroke:none;fill-rule:nonzero;fill:rgb(100%,84.3%,0%);fill-opacity:1;" d="M 178.582031 383.3125 C 178.582031 389.046875 169.980469 389.046875 169.980469 383.3125 C 169.980469 377.578125 178.582031 377.578125 178.582031 383.3125 "/>
<path style=" stroke:none;fill-rule:nonzero;fill:rgb(100%,84.3%,0%);fill-opacity:1;" d="M 212.988281 409.117188 C 212.988281 414.851562 204.386719 414.851562 204.386719 409.117188 C 204.386719 403.382812 212.988281 403.382812 212.988281 409.117188 "/>
<path style=" stroke:none;fill-rule:nonzero;fill:rgb(100%,84.3%,0%);fill-opacity:1;" d="M 221.589844 409.117188 C 221.589844 414.851562 212.988281 414.851562 212.988281 409.117188 C 212.988281 403.382812 221.589844 403.382812 221.589844 409.117188 "/>
<path style=" stroke:none;fill-rule:nonzero;fill:rgb(100%,84.3%,0%);fill-opacity:1;" d="M 333.417969 460.730469 C 333.417969 466.464844 324.816406 466.464844 324.816406 460.730469 C 324.816406 454.996094 333.417969 454.996094 333.417969 460.730469 "/>
<path style=" stroke:none;fill-rule:nonzero;fill:rgb(100%,84.3%,0%);fill-opacity:1;" d="M 342.019531 305.890625 C 342.019531 311.625 333.417969 311.625 333.417969 305.890625 C 333.417969 300.15625 342.019531 300.15625 342.019531 305.890625 "/>
<path style=" stroke:none;fill-rule:nonzero;fill:rgb(100%,84.3%,0%);fill-opacity:1;" d="M 247.398438 51.269531 C 247.398438 57.003906 238.796875 57.003906 238.796875 51.269531 C 238.796875 45.535156 247.398438 45.535156 247.398438 51.269531 "/>
<path style=" stroke:none;fill-rule:nonzero;fill:rgb(100%,84.3%,0%);fill-opacity:1;" d="M 342.019531 314.496094 C 342.019531 320.230469 333.417969 320.230469 333.417969 314.496094 C 333.417969 308.761719 342.019531 308.761719 342.019531 314.496094 "/>
<path style=" stroke:none;fill-rule:nonzero;fill:rgb(100%,84.3%,0%);fill-opacity:1;" d="M 264.601562 409.117188 C 264.601562 414.851562 256 414.851562 256 409.117188 C 256 403.382812 264.601562 403.382812 264.601562 409.117188 "/>
<path style=" stroke:none;fill-rule:nonzero;fill:rgb(100%,84.3%,0%);fill-opacity:1;" d="M 342.019531 159.65625 C 342.019531 165.390625 333.417969 165.390625 333.417969 159.65625 C 333.417969 153.921875 342.019531 153.921875 342.019531 159.65625 "/>
<path style=" stroke:none;fill-rule:nonzero;fill:rgb(100%,84.3%,0%);fill-opacity:1;" d="M 178.582031 340.300781 C 178.582031 346.035156 169.980469 346.035156 169.980469 340.300781 C 169.980469 334.566406 178.582031 334.566406 178.582031 340.300781 "/>
<path style=" stroke:none;fill-rule:nonzero;fill:rgb(100%,84.3%,0%);fill-opacity:1;" d="M 178.582031 254.28125 C 178.582031 260.015625 169.980469 260.015625 169.980469 254.28125 C 169.980469 248.546875 178.582031 248.546875 178.582031 254.28125 "/>
<path style=" stroke:none;fill-rule:nonzero;fill:rgb(100%,84.3%,0%);fill-opacity:1;" d="M 299.011719 409.117188 C 299.011719 414.851562 290.410156 414.851562 290.410156 409.117188 C 290.410156 403.382812 299.011719 403.382812 299.011719 409.117188 "/>
<path style=" stroke:none;fill-rule:nonzero;fill:rgb(100%,84.3%,0%);fill-opacity:1;" d="M 307.613281 409.117188 C 307.613281 414.851562 299.011719 414.851562 299.011719 409.117188 C 299.011719 403.382812 307.613281 403.382812 307.613281 409.117188 "/>
<path style=" stroke:none;fill-rule:nonzero;fill:rgb(100%,84.3%,0%);fill-opacity:1;" d="M 316.214844 409.117188 C 316.214844 414.851562 307.613281 414.851562 307.613281 409.117188 C 307.613281 403.382812 316.214844 403.382812 316.214844 409.117188 "/>
<path style=" stroke:none;fill-rule:nonzero;fill:rgb(100%,84.3%,0%);fill-opacity:1;" d="M 178.582031 219.871094 C 178.582031 225.605469 169.980469 225.605469 169.980469 219.871094 C 169.980469 214.136719 178.582031 214.136719 178.582031 219.871094 "/>
<path style=" stroke:none;fill-rule:nonzero;fill:rgb(100%,84.3%,0%);fill-opacity:1;" d="M 342.019531 211.269531 C 342.019531 217.003906 333.417969 217.003906 333.417969 211.269531 C 333.417969 205.535156 342.019531 205.535156 342.019531 211.269531 "/>
<path style=" stroke:none;fill-rule:nonzero;fill:rgb(100%,84.3%,0%);fill-opacity:1;" d="M 342.019531 374.710938 C 342.019531 380.445312 333.417969 380.445312 333.417969 374.710938 C 333.417969 368.976562 342.019531 368.976562 342.019531 374.710938 "/>
<path style=" stroke:none;fill-rule:nonzero;fill:rgb(100%,84.3%,0%);fill-opacity:1;" d="M 230.191406 460.730469 C 230.191406 466.464844 221.589844 466.464844 221.589844 460.730469 C 221.589844 454.996094 230.191406 454.996094 230.191406 460.730469 "/>
<path style=" stroke:none;fill-rule:nonzero;fill:rgb(100%,84.3%,0%);fill-opacity:1;" d="M 204.386719 400.515625 C 204.386719 406.25 195.785156 406.25 195.785156 400.515625 C 195.785156 394.78125 204.386719 394.78125 204.386719 400.515625 "/>
</g>
</svg>
