<?xml version="1.0" encoding="UTF-8"?>
<svg xmlns="http://www.w3.org/2000/svg" xmlns:xlink="http://www.w3.org/1999/xlink" width="512pt" height="512pt" viewBox="0 0 512 512" version="1.1">
<g id="surface131">
<path style=" stroke:none;fill-rule:nonzero;fill:rgb(26.7%,26.7%,26.7%);fill-opacity:1;" d="M 0 103.410156 L 512 103.410156 L 512 408.585938 L 0 408.585938 Z M 0 103.410156 "/>
<path style=" stroke:none;fill-rule:nonzero;fill:rgb(19.2%,38.8%,66.7%);fill-opacity:1;" d="M 42.667969 128.84375 L 469.332031 128.84375 L 469.332031 383.15625 L 42.667969 383.15625 Z M 42.667969 128.84375 "/>
<path style=" stroke:none;fill-rule:nonzero;fill:rgb(90.6%,14.9%,14.9%);fill-opacity:1;" d="M 45.679688 413.289062 C 45.679688 417.304688 39.652344 417.304688 39.652344 413.289062 C 39.652344 409.269531 45.679688 409.269531 45.679688 413.289062 "/>
<path style=" stroke:none;fill-rule:nonzero;fill:rgb(90.6%,14.9%,14.9%);fill-opacity:1;" d="M 57.730469 413.289062 C 57.730469 417.304688 51.707031 417.304688 51.707031 413.289062 C 51.707031 409.269531 57.730469 409.269531 57.730469 413.289062 "/>
<path style=" stroke:none;fill-rule:nonzero;fill:rgb(90.6%,14.9%,14.9%);fill-opacity:1;" d="M 69.785156 413.289062 C 69.785156 417.304688 63.757812 417.304688 63.757812 413.289062 C 63.757812 409.269531 69.785156 409.269531 69.785156 413.289062 "/>
<path style=" stroke:none;fill-rule:nonzero;fill:rgb(90.6%,14.9%,14.9%);fill-opacity:1;" d="M 81.839844 413.289062 C 81.839844 417.304688 75.8125 417.304688 75.8125 413.289062 C 75.8125 409.269531 81.839844 409.269531 81.839844 413.289062 "/>
<path style=" stroke:none;fill-rule:nonzero;fill:rgb(90.6%,14.9%,14.9%);fill-opacity:1;" d="M 93.890625 413.289062 C 93.890625 417.304688 87.863281 417.304688 87.863281 413.289062 C 87.863281 409.269531 93.890625 409.269531 93.890625 413.289062 "/>
<path style=" stroke:none;fill-rule:nonzero;fill:rgb(90.6%,14.9%,14.9%);fill-opacity:1;" d="M 105.941406 413.289062 C 105.941406 417.304688 99.917969 417.304688 99.917969 413.289062 C 99.917969 409.269531 105.941406 409.269531 105.941406 413.289062 "/>
<path style=" stroke:none;fill-rule:nonzero;fill:rgb(90.6%,14.9%,14.9%);fill-opacity:1;" d="M 117.996094 413.289062 C 117.996094 417.304688 111.96875 417.304688 111.96875 413.289062 C 111.96875 409.269531 117.996094 409.269531 117.996094 413.289062 "/>
<path style=" stroke:none;fill-rule:nonzero;fill:rgb(90.6%,14.9%,14.9%);fill-opacity:1;" d="M 130.050781 413.289062 C 130.050781 417.304688 124.023438 417.304688 124.023438 413.289062 C 124.023438 409.269531 130.050781 409.269531 130.050781 413.289062 "/>
<path style=" stroke:none;fill-rule:nonzero;fill:rgb(90.6%,14.9%,14.9%);fill-opacity:1;" d="M 45.679688 98.710938 C 45.679688 102.730469 39.652344 102.730469 39.652344 98.710938 C 39.652344 94.695312 45.679688 94.695312 45.679688 98.710938 "/>
<path style=" stroke:none;fill-rule:nonzero;fill:rgb(90.6%,14.9%,14.9%);fill-opacity:1;" d="M 57.730469 98.710938 C 57.730469 102.730469 51.707031 102.730469 51.707031 98.710938 C 51.707031 94.695312 57.730469 94.695312 57.730469 98.710938 "/>
<path style=" stroke:none;fill-rule:nonzero;fill:rgb(90.6%,14.9%,14.9%);fill-opacity:1;" d="M 69.785156 98.710938 C 69.785156 102.730469 63.757812 102.730469 63.757812 98.710938 C 63.757812 94.695312 69.785156 94.695312 69.785156 98.710938 "/>
<path style=" stroke:none;fill-rule:nonzero;fill:rgb(90.6%,14.9%,14.9%);fill-opacity:1;" d="M 81.839844 98.710938 C 81.839844 102.730469 75.8125 102.730469 75.8125 98.710938 C 75.8125 94.695312 81.839844 94.695312 81.839844 98.710938 "/>
<path style=" stroke:none;fill-rule:nonzero;fill:rgb(90.6%,14.9%,14.9%);fill-opacity:1;" d="M 93.890625 98.710938 C 93.890625 102.730469 87.863281 102.730469 87.863281 98.710938 C 87.863281 94.695312 93.890625 94.695312 93.890625 98.710938 "/>
<path style=" stroke:none;fill-rule:nonzero;fill:rgb(90.6%,14.9%,14.9%);fill-opacity:1;" d="M 105.941406 98.710938 C 105.941406 102.730469 99.917969 102.730469 99.917969 98.710938 C 99.917969 94.695312 105.941406 94.695312 105.941406 98.710938 "/>
<path style=" stroke:none;fill-rule:nonzero;fill:rgb(90.6%,14.9%,14.9%);fill-opacity:1;" d="M 117.996094 98.710938 C 117.996094 102.730469 111.96875 102.730469 111.96875 98.710938 C 111.96875 94.695312 117.996094 94.695312 117.996094 98.710938 "/>
<path style=" stroke:none;fill-rule:nonzero;fill:rgb(90.6%,14.9%,14.9%);fill-opacity:1;" d="M 130.050781 98.710938 C 130.050781 102.730469 124.023438 102.730469 124.023438 98.710938 C 124.023438 94.695312 130.050781 94.695312 130.050781 98.710938 "/>
<path style=" stroke:none;fill-rule:nonzero;fill:rgb(90.6%,14.9%,14.9%);fill-opacity:1;" d="M 142.101562 98.710938 C 142.101562 102.730469 136.074219 102.730469 136.074219 98.710938 C 136.074219 94.695312 142.101562 94.695312 142.101562 98.710938 "/>
<path style=" stroke:none;fill-rule:nonzero;fill:rgb(100%,100%,100%);fill-opacity:1;" d="M 449.445312 122.816406 C 449.445312 126.835938 443.417969 126.835938 443.417969 122.816406 C 443.417969 118.800781 449.445312 118.800781 449.445312 122.816406 "/>
<path style=" stroke:none;fill-rule:nonzero;fill:rgb(100%,100%,100%);fill-opacity:1;" d="M 153.550781 63.757812 C 153.550781 67.777344 147.527344 67.777344 147.527344 63.757812 C 147.527344 59.742188 153.550781 59.742188 153.550781 63.757812 "/>
<path style=" stroke:none;fill-rule:nonzero;fill:rgb(100%,100%,100%);fill-opacity:1;" d="M 186.09375 16.152344 C 186.09375 20.167969 180.066406 20.167969 180.066406 16.152344 C 180.066406 12.132812 186.09375 12.132812 186.09375 16.152344 "/>
<path style=" stroke:none;fill-rule:nonzero;fill:rgb(100%,100%,100%);fill-opacity:1;" d="M 2.289062 51.707031 C 2.289062 55.722656 -3.734375 55.722656 -3.734375 51.707031 C -3.734375 47.6875 2.289062 47.6875 2.289062 51.707031 "/>
<path style=" stroke:none;fill-rule:nonzero;fill:rgb(100%,100%,100%);fill-opacity:1;" d="M 67.375 501.875 C 67.375 505.894531 61.347656 505.894531 61.347656 501.875 C 61.347656 497.859375 67.375 497.859375 67.375 501.875 "/>
<path style=" stroke:none;fill-rule:nonzero;fill:rgb(100%,100%,100%);fill-opacity:1;" d="M 345.191406 413.890625 C 345.191406 417.910156 339.164062 417.910156 339.164062 413.890625 C 339.164062 409.875 345.191406 409.875 345.191406 413.890625 "/>
<path style=" stroke:none;fill-rule:nonzero;fill:rgb(100%,100%,100%);fill-opacity:1;" d="M 265.039062 84.851562 C 265.039062 88.867188 259.011719 88.867188 259.011719 84.851562 C 259.011719 80.832031 265.039062 80.832031 265.039062 84.851562 "/>
<path style=" stroke:none;fill-rule:nonzero;fill:rgb(100%,100%,100%);fill-opacity:1;" d="M 319.878906 388.578125 C 319.878906 392.597656 313.851562 392.597656 313.851562 388.578125 C 313.851562 384.5625 319.878906 384.5625 319.878906 388.578125 "/>
<path style=" stroke:none;fill-rule:nonzero;fill:rgb(100%,100%,100%);fill-opacity:1;" d="M 263.230469 433.175781 C 263.230469 437.191406 257.203125 437.191406 257.203125 433.175781 C 257.203125 429.15625 263.230469 429.15625 263.230469 433.175781 "/>
<path style=" stroke:none;fill-rule:nonzero;fill:rgb(100%,100%,100%);fill-opacity:1;" d="M 126.433594 447.035156 C 126.433594 451.054688 120.40625 451.054688 120.40625 447.035156 C 120.40625 443.019531 126.433594 443.019531 126.433594 447.035156 "/>
<path style=" stroke:none;fill-rule:nonzero;fill:rgb(100%,100%,100%);fill-opacity:1;" d="M 516.941406 498.261719 C 516.941406 502.277344 510.914062 502.277344 510.914062 498.261719 C 510.914062 494.242188 516.941406 494.242188 516.941406 498.261719 "/>
<path style=" stroke:none;fill-rule:nonzero;fill:rgb(100%,100%,100%);fill-opacity:1;" d="M 236.113281 418.109375 C 236.113281 422.125 230.085938 422.125 230.085938 418.109375 C 230.085938 414.089844 236.113281 414.089844 236.113281 418.109375 "/>
<path style=" stroke:none;fill-rule:nonzero;fill:rgb(100%,100%,100%);fill-opacity:1;" d="M 154.152344 118.597656 C 154.152344 122.617188 148.128906 122.617188 148.128906 118.597656 C 148.128906 114.582031 154.152344 114.582031 154.152344 118.597656 "/>
<path style=" stroke:none;fill-rule:nonzero;fill:rgb(100%,100%,100%);fill-opacity:1;" d="M 22.175781 456.074219 C 22.175781 460.09375 16.152344 460.09375 16.152344 456.074219 C 16.152344 452.058594 22.175781 452.058594 22.175781 456.074219 "/>
<path style=" stroke:none;fill-rule:nonzero;fill:rgb(100%,100%,100%);fill-opacity:1;" d="M 228.277344 29.410156 C 228.277344 33.425781 222.253906 33.425781 222.253906 29.410156 C 222.253906 25.390625 228.277344 25.390625 228.277344 29.410156 "/>
<path style=" stroke:none;fill-rule:nonzero;fill:rgb(100%,100%,100%);fill-opacity:1;" d="M 377.730469 416.902344 C 377.730469 420.921875 371.707031 420.921875 371.707031 416.902344 C 371.707031 412.886719 377.730469 412.886719 377.730469 416.902344 "/>
<path style=" stroke:none;fill-rule:nonzero;fill:rgb(100%,100%,100%);fill-opacity:1;" d="M 110.164062 413.289062 C 110.164062 417.304688 104.136719 417.304688 104.136719 413.289062 C 104.136719 409.269531 110.164062 409.269531 110.164062 413.289062 "/>
<path style=" stroke:none;fill-rule:nonzero;fill:rgb(100%,100%,100%);fill-opacity:1;" d="M 67.976562 66.167969 C 67.976562 70.1875 61.949219 70.1875 61.949219 66.167969 C 61.949219 62.152344 67.976562 62.152344 67.976562 66.167969 "/>
<path style=" stroke:none;fill-rule:nonzero;fill:rgb(100%,100%,100%);fill-opacity:1;" d="M 318.070312 424.136719 C 318.070312 428.152344 312.042969 428.152344 312.042969 424.136719 C 312.042969 420.117188 318.070312 420.117188 318.070312 424.136719 "/>
<path style=" stroke:none;fill-rule:nonzero;fill:rgb(100%,100%,100%);fill-opacity:1;" d="M 344.585938 384.964844 C 344.585938 388.980469 338.5625 388.980469 338.5625 384.964844 C 338.5625 380.945312 344.585938 380.945312 344.585938 384.964844 "/>
<path style=" stroke:none;fill-rule:nonzero;fill:rgb(100%,100%,100%);fill-opacity:1;" d="M 515.734375 510.3125 C 515.734375 514.332031 509.710938 514.332031 509.710938 510.3125 C 509.710938 506.296875 515.734375 506.296875 515.734375 510.3125 "/>
<path style=" stroke:none;fill-rule:nonzero;fill:rgb(100%,100%,100%);fill-opacity:1;" d="M 309.03125 492.234375 C 309.03125 496.25 303.003906 496.25 303.003906 492.234375 C 303.003906 488.214844 309.03125 488.214844 309.03125 492.234375 "/>
<path style=" stroke:none;fill-rule:nonzero;fill:rgb(100%,100%,100%);fill-opacity:1;" d="M 2.890625 13.136719 C 2.890625 17.15625 -3.132812 17.15625 -3.132812 13.136719 C -3.132812 9.121094 2.890625 9.121094 2.890625 13.136719 "/>
<path style=" stroke:none;fill-rule:nonzero;fill:rgb(100%,100%,100%);fill-opacity:1;" d="M 70.386719 25.792969 C 70.386719 29.8125 64.363281 29.8125 64.363281 25.792969 C 64.363281 21.777344 70.386719 21.777344 70.386719 25.792969 "/>
<path style=" stroke:none;fill-rule:nonzero;fill:rgb(100%,100%,100%);fill-opacity:1;" d="M 451.855469 466.921875 C 451.855469 470.941406 445.832031 470.941406 445.832031 466.921875 C 445.832031 462.90625 451.855469 462.90625 451.855469 466.921875 "/>
<path style=" stroke:none;fill-rule:nonzero;fill:rgb(100%,100%,100%);fill-opacity:1;" d="M 163.195312 475.359375 C 163.195312 479.378906 157.167969 479.378906 157.167969 475.359375 C 157.167969 471.34375 163.195312 471.34375 163.195312 475.359375 "/>
<path style=" stroke:none;fill-rule:nonzero;fill:rgb(100%,84.3%,0%);fill-opacity:1;" d="M 51.707031 292.761719 C 51.707031 296.777344 45.679688 296.777344 45.679688 292.761719 C 45.679688 288.742188 51.707031 288.742188 51.707031 292.761719 "/>
<path style=" stroke:none;fill-rule:nonzero;fill:rgb(100%,84.3%,0%);fill-opacity:1;" d="M 214.417969 134.871094 C 214.417969 138.886719 208.390625 138.886719 208.390625 134.871094 C 208.390625 130.851562 214.417969 130.851562 214.417969 134.871094 "/>
<path style=" stroke:none;fill-rule:nonzero;fill:rgb(100%,84.3%,0%);fill-opacity:1;" d="M 466.320312 148.128906 C 466.320312 152.144531 460.292969 152.144531 460.292969 148.128906 C 460.292969 144.109375 466.320312 144.109375 466.320312 148.128906 "/>
<path style=" stroke:none;fill-rule:nonzero;fill:rgb(100%,84.3%,0%);fill-opacity:1;" d="M 184.285156 377.128906 C 184.285156 381.148438 178.261719 381.148438 178.261719 377.128906 C 178.261719 373.113281 184.285156 373.113281 184.285156 377.128906 "/>
<path style=" stroke:none;fill-rule:nonzero;fill:rgb(100%,84.3%,0%);fill-opacity:1;" d="M 51.707031 365.078125 C 51.707031 369.09375 45.679688 369.09375 45.679688 365.078125 C 45.679688 361.058594 51.707031 361.058594 51.707031 365.078125 "/>
<path style=" stroke:none;fill-rule:nonzero;fill:rgb(100%,84.3%,0%);fill-opacity:1;" d="M 232.496094 377.128906 C 232.496094 381.148438 226.472656 381.148438 226.472656 377.128906 C 226.472656 373.113281 232.496094 373.113281 232.496094 377.128906 "/>
<path style=" stroke:none;fill-rule:nonzero;fill:rgb(100%,84.3%,0%);fill-opacity:1;" d="M 160.179688 134.871094 C 160.179688 138.886719 154.15625 138.886719 154.15625 134.871094 C 154.15625 130.851562 160.179688 130.851562 160.179688 134.871094 "/>
<path style=" stroke:none;fill-rule:nonzero;fill:rgb(100%,84.3%,0%);fill-opacity:1;" d="M 466.320312 202.363281 C 466.320312 206.382812 460.292969 206.382812 460.292969 202.363281 C 460.292969 198.347656 466.320312 198.347656 466.320312 202.363281 "/>
<path style=" stroke:none;fill-rule:nonzero;fill:rgb(100%,84.3%,0%);fill-opacity:1;" d="M 419.3125 377.128906 C 419.3125 381.148438 413.289062 381.148438 413.289062 377.128906 C 413.289062 373.113281 419.3125 373.113281 419.3125 377.128906 "/>
<path style=" stroke:none;fill-rule:nonzero;fill:rgb(100%,84.3%,0%);fill-opacity:1;" d="M 413.289062 134.871094 C 413.289062 138.886719 407.261719 138.886719 407.261719 134.871094 C 407.261719 130.851562 413.289062 130.851562 413.289062 134.871094 "/>
<path style=" stroke:none;fill-rule:nonzero;fill:rgb(100%,84.3%,0%);fill-opacity:1;" d="M 377.128906 377.128906 C 377.128906 381.148438 371.105469 381.148438 371.105469 377.128906 C 371.105469 373.113281 377.128906 373.113281 377.128906 377.128906 "/>
<path style=" stroke:none;fill-rule:nonzero;fill:rgb(100%,84.3%,0%);fill-opacity:1;" d="M 190.3125 371.105469 C 190.3125 375.121094 184.285156 375.121094 184.285156 371.105469 C 184.285156 367.085938 190.3125 367.085938 190.3125 371.105469 "/>
<path style=" stroke:none;fill-rule:nonzero;fill:rgb(100%,84.3%,0%);fill-opacity:1;" d="M 220.445312 371.105469 C 220.445312 375.121094 214.417969 375.121094 214.417969 371.105469 C 214.417969 367.085938 220.445312 367.085938 220.445312 371.105469 "/>
<path style=" stroke:none;fill-rule:nonzero;fill:rgb(100%,84.3%,0%);fill-opacity:1;" d="M 51.707031 244.550781 C 51.707031 248.566406 45.679688 248.566406 45.679688 244.550781 C 45.679688 240.53125 51.707031 240.53125 51.707031 244.550781 "/>
<path style=" stroke:none;fill-rule:nonzero;fill:rgb(100%,84.3%,0%);fill-opacity:1;" d="M 111.96875 377.128906 C 111.96875 381.148438 105.945312 381.148438 105.945312 377.128906 C 105.945312 373.113281 111.96875 373.113281 111.96875 377.128906 "/>
<path style=" stroke:none;fill-rule:nonzero;fill:rgb(100%,84.3%,0%);fill-opacity:1;" d="M 57.730469 371.105469 C 57.730469 375.121094 51.707031 375.121094 51.707031 371.105469 C 51.707031 367.085938 57.730469 367.085938 57.730469 371.105469 "/>
<path style=" stroke:none;fill-rule:nonzero;fill:rgb(100%,84.3%,0%);fill-opacity:1;" d="M 51.707031 334.945312 C 51.707031 338.960938 45.679688 338.960938 45.679688 334.945312 C 45.679688 330.925781 51.707031 330.925781 51.707031 334.945312 "/>
<path style=" stroke:none;fill-rule:nonzero;fill:rgb(100%,84.3%,0%);fill-opacity:1;" d="M 166.207031 371.105469 C 166.207031 375.121094 160.179688 375.121094 160.179688 371.105469 C 160.179688 367.085938 166.207031 367.085938 166.207031 371.105469 "/>
<path style=" stroke:none;fill-rule:nonzero;fill:rgb(100%,84.3%,0%);fill-opacity:1;" d="M 105.941406 134.871094 C 105.941406 138.886719 99.917969 138.886719 99.917969 134.871094 C 99.917969 130.851562 105.941406 130.851562 105.941406 134.871094 "/>
<path style=" stroke:none;fill-rule:nonzero;fill:rgb(100%,84.3%,0%);fill-opacity:1;" d="M 117.996094 134.871094 C 117.996094 138.886719 111.96875 138.886719 111.96875 134.871094 C 111.96875 130.851562 117.996094 130.851562 117.996094 134.871094 "/>
<path style=" stroke:none;fill-rule:nonzero;fill:rgb(100%,84.3%,0%);fill-opacity:1;" d="M 51.707031 134.871094 C 51.707031 138.886719 45.679688 138.886719 45.679688 134.871094 C 45.679688 130.851562 51.707031 130.851562 51.707031 134.871094 "/>
<path style=" stroke:none;fill-rule:nonzero;fill:rgb(100%,84.3%,0%);fill-opacity:1;" d="M 262.628906 134.871094 C 262.628906 138.886719 256.601562 138.886719 256.601562 134.871094 C 256.601562 130.851562 262.628906 130.851562 262.628906 134.871094 "/>
<path style=" stroke:none;fill-rule:nonzero;fill:rgb(100%,84.3%,0%);fill-opacity:1;" d="M 316.867188 134.871094 C 316.867188 138.886719 310.839844 138.886719 310.839844 134.871094 C 310.839844 130.851562 316.867188 130.851562 316.867188 134.871094 "/>
<path style=" stroke:none;fill-rule:nonzero;fill:rgb(100%,84.3%,0%);fill-opacity:1;" d="M 81.839844 377.128906 C 81.839844 381.148438 75.8125 381.148438 75.8125 377.128906 C 75.8125 373.113281 81.839844 373.113281 81.839844 377.128906 "/>
<path style=" stroke:none;fill-rule:nonzero;fill:rgb(100%,84.3%,0%);fill-opacity:1;" d="M 449.445312 134.871094 C 449.445312 138.886719 443.417969 138.886719 443.417969 134.871094 C 443.417969 130.851562 449.445312 130.851562 449.445312 134.871094 "/>
<path style=" stroke:none;fill-rule:nonzero;fill:rgb(100%,84.3%,0%);fill-opacity:1;" d="M 160.179688 377.128906 C 160.179688 381.148438 154.15625 381.148438 154.15625 377.128906 C 154.15625 373.113281 160.179688 373.113281 160.179688 377.128906 "/>
<path style=" stroke:none;fill-rule:nonzero;fill:rgb(100%,84.3%,0%);fill-opacity:1;" d="M 256.601562 377.128906 C 256.601562 381.148438 250.574219 381.148438 250.574219 377.128906 C 250.574219 373.113281 256.601562 373.113281 256.601562 377.128906 "/>
<path style=" stroke:none;fill-rule:nonzero;fill:rgb(100%,84.3%,0%);fill-opacity:1;" d="M 322.890625 377.128906 C 322.890625 381.148438 316.867188 381.148438 316.867188 377.128906 C 316.867188 373.113281 322.890625 373.113281 322.890625 377.128906 "/>
<path style=" stroke:none;fill-rule:nonzero;fill:rgb(100%,84.3%,0%);fill-opacity:1;" d="M 395.210938 134.871094 C 395.210938 138.886719 389.183594 138.886719 389.183594 134.871094 C 389.183594 130.851562 395.210938 130.851562 395.210938 134.871094 "/>
<path style=" stroke:none;fill-rule:nonzero;fill:rgb(100%,84.3%,0%);fill-opacity:1;" d="M 466.320312 359.050781 C 466.320312 363.070312 460.292969 363.070312 460.292969 359.050781 C 460.292969 355.035156 466.320312 355.035156 466.320312 359.050781 "/>
<path style=" stroke:none;fill-rule:nonzero;fill:rgb(100%,84.3%,0%);fill-opacity:1;" d="M 99.917969 371.105469 C 99.917969 375.121094 93.890625 375.121094 93.890625 371.105469 C 93.890625 367.085938 99.917969 367.085938 99.917969 371.105469 "/>
<path style=" stroke:none;fill-rule:nonzero;fill:rgb(100%,84.3%,0%);fill-opacity:1;" d="M 292.761719 377.128906 C 292.761719 381.148438 286.734375 381.148438 286.734375 377.128906 C 286.734375 373.113281 292.761719 373.113281 292.761719 377.128906 "/>
<path style=" stroke:none;fill-rule:nonzero;fill:rgb(100%,84.3%,0%);fill-opacity:1;" d="M 449.445312 377.128906 C 449.445312 381.148438 443.417969 381.148438 443.417969 377.128906 C 443.417969 373.113281 449.445312 373.113281 449.445312 377.128906 "/>
<path style=" stroke:none;fill-rule:nonzero;fill:rgb(100%,84.3%,0%);fill-opacity:1;" d="M 407.261719 377.128906 C 407.261719 381.148438 401.234375 381.148438 401.234375 377.128906 C 401.234375 373.113281 407.261719 373.113281 407.261719 377.128906 "/>
<path style=" stroke:none;fill-rule:nonzero;fill:rgb(100%,84.3%,0%);fill-opacity:1;" d="M 359.050781 134.871094 C 359.050781 138.886719 353.023438 138.886719 353.023438 134.871094 C 353.023438 130.851562 359.050781 130.851562 359.050781 134.871094 "/>
<path style=" stroke:none;fill-rule:nonzero;fill:rgb(100%,84.3%,0%);fill-opacity:1;" d="M 51.707031 196.339844 C 51.707031 200.355469 45.679688 200.355469 45.679688 196.339844 C 45.679688 192.320312 51.707031 192.320312 51.707031 196.339844 "/>
<path style=" stroke:none;fill-rule:nonzero;fill:rgb(100%,84.3%,0%);fill-opacity:1;" d="M 466.320312 256.601562 C 466.320312 260.621094 460.292969 260.621094 460.292969 256.601562 C 460.292969 252.585938 466.320312 252.585938 466.320312 256.601562 "/>
<path style=" stroke:none;fill-rule:nonzero;fill:rgb(100%,84.3%,0%);fill-opacity:1;" d="M 244.550781 134.871094 C 244.550781 138.886719 238.523438 138.886719 238.523438 134.871094 C 238.523438 130.851562 244.550781 130.851562 244.550781 134.871094 "/>
<path style=" stroke:none;fill-rule:nonzero;fill:rgb(100%,84.3%,0%);fill-opacity:1;" d="M 347 377.128906 C 347 381.148438 340.972656 381.148438 340.972656 377.128906 C 340.972656 373.113281 347 373.113281 347 377.128906 "/>
<path style=" stroke:none;fill-rule:nonzero;fill:rgb(100%,84.3%,0%);fill-opacity:1;" d="M 220.445312 134.871094 C 220.445312 138.886719 214.417969 138.886719 214.417969 134.871094 C 214.417969 130.851562 220.445312 130.851562 220.445312 134.871094 "/>
<path style=" stroke:none;fill-rule:nonzero;fill:rgb(100%,84.3%,0%);fill-opacity:1;" d="M 425.339844 134.871094 C 425.339844 138.886719 419.316406 138.886719 419.316406 134.871094 C 419.316406 130.851562 425.339844 130.851562 425.339844 134.871094 "/>
<path style=" stroke:none;fill-rule:nonzero;fill:rgb(100%,84.3%,0%);fill-opacity:1;" d="M 148.128906 377.128906 C 148.128906 381.148438 142.101562 381.148438 142.101562 377.128906 C 142.101562 373.113281 148.128906 373.113281 148.128906 377.128906 "/>
<path style=" stroke:none;fill-rule:nonzero;fill:rgb(100%,84.3%,0%);fill-opacity:1;" d="M 51.707031 262.628906 C 51.707031 266.648438 45.679688 266.648438 45.679688 262.628906 C 45.679688 258.613281 51.707031 258.613281 51.707031 262.628906 "/>
<path style=" stroke:none;fill-rule:nonzero;fill:rgb(100%,84.3%,0%);fill-opacity:1;" d="M 466.320312 268.65625 C 466.320312 272.671875 460.292969 272.671875 460.292969 268.65625 C 460.292969 264.636719 466.320312 264.636719 466.320312 268.65625 "/>
<path style=" stroke:none;fill-rule:nonzero;fill:rgb(100%,84.3%,0%);fill-opacity:1;" d="M 105.941406 377.128906 C 105.941406 381.148438 99.917969 381.148438 99.917969 377.128906 C 99.917969 373.113281 105.941406 373.113281 105.941406 377.128906 "/>
<path style=" stroke:none;fill-rule:nonzero;fill:rgb(100%,84.3%,0%);fill-opacity:1;" d="M 389.183594 134.871094 C 389.183594 138.886719 383.15625 138.886719 383.15625 134.871094 C 383.15625 130.851562 389.183594 130.851562 389.183594 134.871094 "/>
<path style=" stroke:none;fill-rule:nonzero;fill:rgb(100%,84.3%,0%);fill-opacity:1;" d="M 69.785156 377.128906 C 69.785156 381.148438 63.757812 381.148438 63.757812 377.128906 C 63.757812 373.113281 69.785156 373.113281 69.785156 377.128906 "/>
<path style=" stroke:none;fill-rule:nonzero;fill:rgb(100%,84.3%,0%);fill-opacity:1;" d="M 51.707031 298.785156 C 51.707031 302.804688 45.679688 302.804688 45.679688 298.785156 C 45.679688 294.769531 51.707031 294.769531 51.707031 298.785156 "/>
<path style=" stroke:none;fill-rule:nonzero;fill:rgb(100%,84.3%,0%);fill-opacity:1;" d="M 93.890625 371.105469 C 93.890625 375.121094 87.863281 375.121094 87.863281 371.105469 C 87.863281 367.085938 93.890625 367.085938 93.890625 371.105469 "/>
<path style=" stroke:none;fill-rule:nonzero;fill:rgb(100%,84.3%,0%);fill-opacity:1;" d="M 455.472656 134.871094 C 455.472656 138.886719 449.445312 138.886719 449.445312 134.871094 C 449.445312 130.851562 455.472656 130.851562 455.472656 134.871094 "/>
<path style=" stroke:none;fill-rule:nonzero;fill:rgb(100%,84.3%,0%);fill-opacity:1;" d="M 365.078125 134.871094 C 365.078125 138.886719 359.050781 138.886719 359.050781 134.871094 C 359.050781 130.851562 365.078125 130.851562 365.078125 134.871094 "/>
<path style=" stroke:none;fill-rule:nonzero;fill:rgb(100%,84.3%,0%);fill-opacity:1;" d="M 196.339844 371.105469 C 196.339844 375.121094 190.3125 375.121094 190.3125 371.105469 C 190.3125 367.085938 196.339844 367.085938 196.339844 371.105469 "/>
<path style=" stroke:none;fill-rule:nonzero;fill:rgb(100%,84.3%,0%);fill-opacity:1;" d="M 353.023438 134.871094 C 353.023438 138.886719 346.996094 138.886719 346.996094 134.871094 C 346.996094 130.851562 353.023438 130.851562 353.023438 134.871094 "/>
<path style=" stroke:none;fill-rule:nonzero;fill:rgb(100%,84.3%,0%);fill-opacity:1;" d="M 208.390625 371.105469 C 208.390625 375.121094 202.367188 375.121094 202.367188 371.105469 C 202.367188 367.085938 208.390625 367.085938 208.390625 371.105469 "/>
<path style=" stroke:none;fill-rule:nonzero;fill:rgb(100%,84.3%,0%);fill-opacity:1;" d="M 466.320312 232.496094 C 466.320312 236.515625 460.292969 236.515625 460.292969 232.496094 C 460.292969 228.480469 466.320312 228.480469 466.320312 232.496094 "/>
<path style=" stroke:none;fill-rule:nonzero;fill:rgb(100%,84.3%,0%);fill-opacity:1;" d="M 274.683594 371.105469 C 274.683594 375.121094 268.65625 375.121094 268.65625 371.105469 C 268.65625 367.085938 274.683594 367.085938 274.683594 371.105469 "/>
<path style=" stroke:none;fill-rule:nonzero;fill:rgb(100%,84.3%,0%);fill-opacity:1;" d="M 81.839844 134.871094 C 81.839844 138.886719 75.8125 138.886719 75.8125 134.871094 C 75.8125 130.851562 81.839844 130.851562 81.839844 134.871094 "/>
<path style=" stroke:none;fill-rule:nonzero;fill:rgb(100%,84.3%,0%);fill-opacity:1;" d="M 238.523438 371.105469 C 238.523438 375.121094 232.496094 375.121094 232.496094 371.105469 C 232.496094 367.085938 238.523438 367.085938 238.523438 371.105469 "/>
<path style=" stroke:none;fill-rule:nonzero;fill:rgb(100%,84.3%,0%);fill-opacity:1;" d="M 51.707031 220.445312 C 51.707031 224.460938 45.679688 224.460938 45.679688 220.445312 C 45.679688 216.425781 51.707031 216.425781 51.707031 220.445312 "/>
<path style=" stroke:none;fill-rule:nonzero;fill:rgb(100%,84.3%,0%);fill-opacity:1;" d="M 466.320312 220.445312 C 466.320312 224.460938 460.292969 224.460938 460.292969 220.445312 C 460.292969 216.425781 466.320312 216.425781 466.320312 220.445312 "/>
<path style=" stroke:none;fill-rule:nonzero;fill:rgb(100%,84.3%,0%);fill-opacity:1;" d="M 238.523438 377.128906 C 238.523438 381.148438 232.496094 381.148438 232.496094 377.128906 C 232.496094 373.113281 238.523438 373.113281 238.523438 377.128906 "/>
<path style=" stroke:none;fill-rule:nonzero;fill:rgb(100%,84.3%,0%);fill-opacity:1;" d="M 268.65625 377.128906 C 268.65625 381.148438 262.628906 381.148438 262.628906 377.128906 C 262.628906 373.113281 268.65625 373.113281 268.65625 377.128906 "/>
<path style=" stroke:none;fill-rule:nonzero;fill:rgb(100%,84.3%,0%);fill-opacity:1;" d="M 304.8125 134.871094 C 304.8125 138.886719 298.785156 138.886719 298.785156 134.871094 C 298.785156 130.851562 304.8125 130.851562 304.8125 134.871094 "/>
<path style=" stroke:none;fill-rule:nonzero;fill:rgb(100%,84.3%,0%);fill-opacity:1;" d="M 93.890625 134.871094 C 93.890625 138.886719 87.863281 138.886719 87.863281 134.871094 C 87.863281 130.851562 93.890625 130.851562 93.890625 134.871094 "/>
<path style=" stroke:none;fill-rule:nonzero;fill:rgb(100%,84.3%,0%);fill-opacity:1;" d="M 334.945312 377.128906 C 334.945312 381.148438 328.917969 381.148438 328.917969 377.128906 C 328.917969 373.113281 334.945312 373.113281 334.945312 377.128906 "/>
<path style=" stroke:none;fill-rule:nonzero;fill:rgb(100%,84.3%,0%);fill-opacity:1;" d="M 130.050781 377.128906 C 130.050781 381.148438 124.023438 381.148438 124.023438 377.128906 C 124.023438 373.113281 130.050781 373.113281 130.050781 377.128906 "/>
<path style=" stroke:none;fill-rule:nonzero;fill:rgb(100%,84.3%,0%);fill-opacity:1;" d="M 87.863281 377.128906 C 87.863281 381.148438 81.835938 381.148438 81.835938 377.128906 C 81.835938 373.113281 87.863281 373.113281 87.863281 377.128906 "/>
<path style=" stroke:none;fill-rule:nonzero;fill:rgb(100%,84.3%,0%);fill-opacity:1;" d="M 232.496094 134.871094 C 232.496094 138.886719 226.472656 138.886719 226.472656 134.871094 C 226.472656 130.851562 232.496094 130.851562 232.496094 134.871094 "/>
<path style=" stroke:none;fill-rule:nonzero;fill:rgb(100%,84.3%,0%);fill-opacity:1;" d="M 280.707031 371.105469 C 280.707031 375.121094 274.683594 375.121094 274.683594 371.105469 C 274.683594 367.085938 280.707031 367.085938 280.707031 371.105469 "/>
<path style=" stroke:none;fill-rule:nonzero;fill:rgb(100%,84.3%,0%);fill-opacity:1;" d="M 142.101562 371.105469 C 142.101562 375.121094 136.074219 375.121094 136.074219 371.105469 C 136.074219 367.085938 142.101562 367.085938 142.101562 371.105469 "/>
<path style=" stroke:none;fill-rule:nonzero;fill:rgb(100%,84.3%,0%);fill-opacity:1;" d="M 130.050781 371.105469 C 130.050781 375.121094 124.023438 375.121094 124.023438 371.105469 C 124.023438 367.085938 130.050781 367.085938 130.050781 371.105469 "/>
<path style=" stroke:none;fill-rule:nonzero;fill:rgb(100%,84.3%,0%);fill-opacity:1;" d="M 268.65625 371.105469 C 268.65625 375.121094 262.628906 375.121094 262.628906 371.105469 C 262.628906 367.085938 268.65625 367.085938 268.65625 371.105469 "/>
<path style=" stroke:none;fill-rule:nonzero;fill:rgb(100%,84.3%,0%);fill-opacity:1;" d="M 51.707031 238.523438 C 51.707031 242.542969 45.679688 242.542969 45.679688 238.523438 C 45.679688 234.507812 51.707031 234.507812 51.707031 238.523438 "/>
<path style=" stroke:none;fill-rule:nonzero;fill:rgb(100%,84.3%,0%);fill-opacity:1;" d="M 124.023438 371.105469 C 124.023438 375.121094 117.996094 375.121094 117.996094 371.105469 C 117.996094 367.085938 124.023438 367.085938 124.023438 371.105469 "/>
<path style=" stroke:none;fill-rule:nonzero;fill:rgb(100%,84.3%,0%);fill-opacity:1;" d="M 466.320312 353.023438 C 466.320312 357.042969 460.292969 357.042969 460.292969 353.023438 C 460.292969 349.007812 466.320312 349.007812 466.320312 353.023438 "/>
<path style=" stroke:none;fill-rule:nonzero;fill:rgb(100%,84.3%,0%);fill-opacity:1;" d="M 316.867188 377.128906 C 316.867188 381.148438 310.839844 381.148438 310.839844 377.128906 C 310.839844 373.113281 316.867188 373.113281 316.867188 377.128906 "/>
<path style=" stroke:none;fill-rule:nonzero;fill:rgb(100%,84.3%,0%);fill-opacity:1;" d="M 466.320312 304.8125 C 466.320312 308.832031 460.292969 308.832031 460.292969 304.8125 C 460.292969 300.796875 466.320312 300.796875 466.320312 304.8125 "/>
<path style=" stroke:none;fill-rule:nonzero;fill:rgb(100%,84.3%,0%);fill-opacity:1;" d="M 443.421875 377.128906 C 443.421875 381.148438 437.394531 381.148438 437.394531 377.128906 C 437.394531 373.113281 443.421875 373.113281 443.421875 377.128906 "/>
<path style=" stroke:none;fill-rule:nonzero;fill:rgb(100%,84.3%,0%);fill-opacity:1;" d="M 419.3125 134.871094 C 419.3125 138.886719 413.289062 138.886719 413.289062 134.871094 C 413.289062 130.851562 419.3125 130.851562 419.3125 134.871094 "/>
<path style=" stroke:none;fill-rule:nonzero;fill:rgb(100%,84.3%,0%);fill-opacity:1;" d="M 466.320312 184.285156 C 466.320312 188.304688 460.292969 188.304688 460.292969 184.285156 C 460.292969 180.269531 466.320312 180.269531 466.320312 184.285156 "/>
<path style=" stroke:none;fill-rule:nonzero;fill:rgb(100%,84.3%,0%);fill-opacity:1;" d="M 142.101562 134.871094 C 142.101562 138.886719 136.074219 138.886719 136.074219 134.871094 C 136.074219 130.851562 142.101562 130.851562 142.101562 134.871094 "/>
<path style=" stroke:none;fill-rule:nonzero;fill:rgb(100%,84.3%,0%);fill-opacity:1;" d="M 461.5 377.128906 C 461.5 381.148438 455.472656 381.148438 455.472656 377.128906 C 455.472656 373.113281 461.5 373.113281 461.5 377.128906 "/>
<path style=" stroke:none;fill-rule:nonzero;fill:rgb(100%,84.3%,0%);fill-opacity:1;" d="M 443.421875 134.871094 C 443.421875 138.886719 437.394531 138.886719 437.394531 134.871094 C 437.394531 130.851562 443.421875 130.851562 443.421875 134.871094 "/>
<path style=" stroke:none;fill-rule:nonzero;fill:rgb(100%,84.3%,0%);fill-opacity:1;" d="M 154.152344 134.871094 C 154.152344 138.886719 148.128906 138.886719 148.128906 134.871094 C 148.128906 130.851562 154.152344 130.851562 154.152344 134.871094 "/>
<path style=" stroke:none;fill-rule:nonzero;fill:rgb(100%,84.3%,0%);fill-opacity:1;" d="M 466.320312 250.574219 C 466.320312 254.59375 460.292969 254.59375 460.292969 250.574219 C 460.292969 246.558594 466.320312 246.558594 466.320312 250.574219 "/>
<path style=" stroke:none;fill-rule:nonzero;fill:rgb(100%,84.3%,0%);fill-opacity:1;" d="M 383.15625 134.871094 C 383.15625 138.886719 377.128906 138.886719 377.128906 134.871094 C 377.128906 130.851562 383.15625 130.851562 383.15625 134.871094 "/>
<path style=" stroke:none;fill-rule:nonzero;fill:rgb(100%,84.3%,0%);fill-opacity:1;" d="M 466.320312 298.785156 C 466.320312 302.804688 460.292969 302.804688 460.292969 298.785156 C 460.292969 294.769531 466.320312 294.769531 466.320312 298.785156 "/>
<path style=" stroke:none;fill-rule:nonzero;fill:rgb(100%,84.3%,0%);fill-opacity:1;" d="M 268.65625 134.871094 C 268.65625 138.886719 262.628906 138.886719 262.628906 134.871094 C 262.628906 130.851562 268.65625 130.851562 268.65625 134.871094 "/>
<path style=" stroke:none;fill-rule:nonzero;fill:rgb(100%,84.3%,0%);fill-opacity:1;" d="M 117.996094 371.105469 C 117.996094 375.121094 111.96875 375.121094 111.96875 371.105469 C 111.96875 367.085938 117.996094 367.085938 117.996094 371.105469 "/>
<path style=" stroke:none;fill-rule:nonzero;fill:rgb(100%,84.3%,0%);fill-opacity:1;" d="M 87.863281 134.871094 C 87.863281 138.886719 81.835938 138.886719 81.835938 134.871094 C 81.835938 130.851562 87.863281 130.851562 87.863281 134.871094 "/>
<path style=" stroke:none;fill-rule:nonzero;fill:rgb(100%,84.3%,0%);fill-opacity:1;" d="M 437.394531 377.128906 C 437.394531 381.148438 431.367188 381.148438 431.367188 377.128906 C 431.367188 373.113281 437.394531 373.113281 437.394531 377.128906 "/>
<path style=" stroke:none;fill-rule:nonzero;fill:rgb(100%,84.3%,0%);fill-opacity:1;" d="M 196.339844 377.128906 C 196.339844 381.148438 190.3125 381.148438 190.3125 377.128906 C 190.3125 373.113281 196.339844 373.113281 196.339844 377.128906 "/>
<path style=" stroke:none;fill-rule:nonzero;fill:rgb(100%,84.3%,0%);fill-opacity:1;" d="M 130.050781 134.871094 C 130.050781 138.886719 124.023438 138.886719 124.023438 134.871094 C 124.023438 130.851562 130.050781 130.851562 130.050781 134.871094 "/>
<path style=" stroke:none;fill-rule:nonzero;fill:rgb(100%,84.3%,0%);fill-opacity:1;" d="M 117.996094 377.128906 C 117.996094 381.148438 111.96875 381.148438 111.96875 377.128906 C 111.96875 373.113281 117.996094 373.113281 117.996094 377.128906 "/>
<path style=" stroke:none;fill-rule:nonzero;fill:rgb(100%,84.3%,0%);fill-opacity:1;" d="M 57.730469 377.128906 C 57.730469 381.148438 51.707031 381.148438 51.707031 377.128906 C 51.707031 373.113281 57.730469 373.113281 57.730469 377.128906 "/>
<path style=" stroke:none;fill-rule:nonzero;fill:rgb(100%,84.3%,0%);fill-opacity:1;" d="M 437.394531 134.871094 C 437.394531 138.886719 431.367188 138.886719 431.367188 134.871094 C 431.367188 130.851562 437.394531 130.851562 437.394531 134.871094 "/>
<path style=" stroke:none;fill-rule:nonzero;fill:rgb(100%,84.3%,0%);fill-opacity:1;" d="M 136.074219 377.128906 C 136.074219 381.148438 130.046875 381.148438 130.046875 377.128906 C 130.046875 373.113281 136.074219 373.113281 136.074219 377.128906 "/>
<path style=" stroke:none;fill-rule:nonzero;fill:rgb(100%,84.3%,0%);fill-opacity:1;" d="M 250.578125 371.105469 C 250.578125 375.121094 244.550781 375.121094 244.550781 371.105469 C 244.550781 367.085938 250.578125 367.085938 250.578125 371.105469 "/>
<path style=" stroke:none;fill-rule:nonzero;fill:rgb(100%,84.3%,0%);fill-opacity:1;" d="M 466.320312 208.390625 C 466.320312 212.410156 460.292969 212.410156 460.292969 208.390625 C 460.292969 204.375 466.320312 204.375 466.320312 208.390625 "/>
<path style=" stroke:none;fill-rule:nonzero;fill:rgb(100%,84.3%,0%);fill-opacity:1;" d="M 466.320312 244.550781 C 466.320312 248.566406 460.292969 248.566406 460.292969 244.550781 C 460.292969 240.53125 466.320312 240.53125 466.320312 244.550781 "/>
<path style=" stroke:none;fill-rule:nonzero;fill:rgb(100%,84.3%,0%);fill-opacity:1;" d="M 466.320312 280.707031 C 466.320312 284.726562 460.292969 284.726562 460.292969 280.707031 C 460.292969 276.691406 466.320312 276.691406 466.320312 280.707031 "/>
<path style=" stroke:none;fill-rule:nonzero;fill:rgb(100%,84.3%,0%);fill-opacity:1;" d="M 466.320312 365.078125 C 466.320312 369.09375 460.292969 369.09375 460.292969 365.078125 C 460.292969 361.058594 466.320312 361.058594 466.320312 365.078125 "/>
<path style=" stroke:none;fill-rule:nonzero;fill:rgb(100%,84.3%,0%);fill-opacity:1;" d="M 111.96875 371.105469 C 111.96875 375.121094 105.945312 375.121094 105.945312 371.105469 C 105.945312 367.085938 111.96875 367.085938 111.96875 371.105469 "/>
<path style=" stroke:none;fill-rule:nonzero;fill:rgb(100%,84.3%,0%);fill-opacity:1;" d="M 178.261719 371.105469 C 178.261719 375.121094 172.234375 375.121094 172.234375 371.105469 C 172.234375 367.085938 178.261719 367.085938 178.261719 371.105469 "/>
<path style=" stroke:none;fill-rule:nonzero;fill:rgb(100%,84.3%,0%);fill-opacity:1;" d="M 51.707031 346.996094 C 51.707031 351.015625 45.679688 351.015625 45.679688 346.996094 C 45.679688 342.980469 51.707031 342.980469 51.707031 346.996094 "/>
<path style=" stroke:none;fill-rule:nonzero;fill:rgb(100%,84.3%,0%);fill-opacity:1;" d="M 262.628906 377.128906 C 262.628906 381.148438 256.601562 381.148438 256.601562 377.128906 C 256.601562 373.113281 262.628906 373.113281 262.628906 377.128906 "/>
<path style=" stroke:none;fill-rule:nonzero;fill:rgb(100%,84.3%,0%);fill-opacity:1;" d="M 340.972656 134.871094 C 340.972656 138.886719 334.945312 138.886719 334.945312 134.871094 C 334.945312 130.851562 340.972656 130.851562 340.972656 134.871094 "/>
<path style=" stroke:none;fill-rule:nonzero;fill:rgb(100%,84.3%,0%);fill-opacity:1;" d="M 238.523438 134.871094 C 238.523438 138.886719 232.496094 138.886719 232.496094 134.871094 C 232.496094 130.851562 238.523438 130.851562 238.523438 134.871094 "/>
<path style=" stroke:none;fill-rule:nonzero;fill:rgb(100%,84.3%,0%);fill-opacity:1;" d="M 466.320312 160.179688 C 466.320312 164.199219 460.292969 164.199219 460.292969 160.179688 C 460.292969 156.164062 466.320312 156.164062 466.320312 160.179688 "/>
<path style=" stroke:none;fill-rule:nonzero;fill:rgb(100%,84.3%,0%);fill-opacity:1;" d="M 340.972656 377.128906 C 340.972656 381.148438 334.945312 381.148438 334.945312 377.128906 C 334.945312 373.113281 340.972656 373.113281 340.972656 377.128906 "/>
<path style=" stroke:none;fill-rule:nonzero;fill:rgb(100%,84.3%,0%);fill-opacity:1;" d="M 154.152344 371.105469 C 154.152344 375.121094 148.128906 375.121094 148.128906 371.105469 C 148.128906 367.085938 154.152344 367.085938 154.152344 371.105469 "/>
<path style=" stroke:none;fill-rule:nonzero;fill:rgb(100%,84.3%,0%);fill-opacity:1;" d="M 466.320312 142.101562 C 466.320312 146.121094 460.292969 146.121094 460.292969 142.101562 C 460.292969 138.085938 466.320312 138.085938 466.320312 142.101562 "/>
<path style=" stroke:none;fill-rule:nonzero;fill:rgb(100%,84.3%,0%);fill-opacity:1;" d="M 51.707031 371.105469 C 51.707031 375.121094 45.679688 375.121094 45.679688 371.105469 C 45.679688 367.085938 51.707031 367.085938 51.707031 371.105469 "/>
<path style=" stroke:none;fill-rule:nonzero;fill:rgb(100%,84.3%,0%);fill-opacity:1;" d="M 51.707031 142.101562 C 51.707031 146.121094 45.679688 146.121094 45.679688 142.101562 C 45.679688 138.085938 51.707031 138.085938 51.707031 142.101562 "/>
<path style=" stroke:none;fill-rule:nonzero;fill:rgb(100%,84.3%,0%);fill-opacity:1;" d="M 365.078125 377.128906 C 365.078125 381.148438 359.050781 381.148438 359.050781 377.128906 C 359.050781 373.113281 365.078125 373.113281 365.078125 377.128906 "/>
<path style=" stroke:none;fill-rule:nonzero;fill:rgb(100%,84.3%,0%);fill-opacity:1;" d="M 466.320312 371.105469 C 466.320312 375.121094 460.292969 375.121094 460.292969 371.105469 C 460.292969 367.085938 466.320312 367.085938 466.320312 371.105469 "/>
<path style=" stroke:none;fill-rule:nonzero;fill:rgb(100%,84.3%,0%);fill-opacity:1;" d="M 142.101562 377.128906 C 142.101562 381.148438 136.074219 381.148438 136.074219 377.128906 C 136.074219 373.113281 142.101562 373.113281 142.101562 377.128906 "/>
<path style=" stroke:none;fill-rule:nonzero;fill:rgb(100%,84.3%,0%);fill-opacity:1;" d="M 274.683594 377.128906 C 274.683594 381.148438 268.65625 381.148438 268.65625 377.128906 C 268.65625 373.113281 274.683594 373.113281 274.683594 377.128906 "/>
<path style=" stroke:none;fill-rule:nonzero;fill:rgb(100%,84.3%,0%);fill-opacity:1;" d="M 148.128906 371.105469 C 148.128906 375.121094 142.101562 375.121094 142.101562 371.105469 C 142.101562 367.085938 148.128906 367.085938 148.128906 371.105469 "/>
<path style=" stroke:none;fill-rule:nonzero;fill:rgb(100%,84.3%,0%);fill-opacity:1;" d="M 51.707031 310.839844 C 51.707031 314.859375 45.679688 314.859375 45.679688 310.839844 C 45.679688 306.824219 51.707031 306.824219 51.707031 310.839844 "/>
<path style=" stroke:none;fill-rule:nonzero;fill:rgb(100%,84.3%,0%);fill-opacity:1;" d="M 51.707031 286.734375 C 51.707031 290.75 45.679688 290.75 45.679688 286.734375 C 45.679688 282.714844 51.707031 282.714844 51.707031 286.734375 "/>
<path style=" stroke:none;fill-rule:nonzero;fill:rgb(100%,84.3%,0%);fill-opacity:1;" d="M 57.730469 134.871094 C 57.730469 138.886719 51.707031 138.886719 51.707031 134.871094 C 51.707031 130.851562 57.730469 130.851562 57.730469 134.871094 "/>
<path style=" stroke:none;fill-rule:nonzero;fill:rgb(100%,84.3%,0%);fill-opacity:1;" d="M 51.707031 316.867188 C 51.707031 320.882812 45.679688 320.882812 45.679688 316.867188 C 45.679688 312.847656 51.707031 312.847656 51.707031 316.867188 "/>
<path style=" stroke:none;fill-rule:nonzero;fill:rgb(100%,84.3%,0%);fill-opacity:1;" d="M 280.707031 377.128906 C 280.707031 381.148438 274.683594 381.148438 274.683594 377.128906 C 274.683594 373.113281 280.707031 373.113281 280.707031 377.128906 "/>
<path style=" stroke:none;fill-rule:nonzero;fill:rgb(100%,84.3%,0%);fill-opacity:1;" d="M 51.707031 250.574219 C 51.707031 254.59375 45.679688 254.59375 45.679688 250.574219 C 45.679688 246.558594 51.707031 246.558594 51.707031 250.574219 "/>
<path style=" stroke:none;fill-rule:nonzero;fill:rgb(100%,84.3%,0%);fill-opacity:1;" d="M 431.367188 134.871094 C 431.367188 138.886719 425.339844 138.886719 425.339844 134.871094 C 425.339844 130.851562 431.367188 130.851562 431.367188 134.871094 "/>
<path style=" stroke:none;fill-rule:nonzero;fill:rgb(100%,84.3%,0%);fill-opacity:1;" d="M 226.472656 377.128906 C 226.472656 381.148438 220.445312 381.148438 220.445312 377.128906 C 220.445312 373.113281 226.472656 373.113281 226.472656 377.128906 "/>
<path style=" stroke:none;fill-rule:nonzero;fill:rgb(100%,84.3%,0%);fill-opacity:1;" d="M 353.023438 377.128906 C 353.023438 381.148438 346.996094 381.148438 346.996094 377.128906 C 346.996094 373.113281 353.023438 373.113281 353.023438 377.128906 "/>
<path style=" stroke:none;fill-rule:nonzero;fill:rgb(100%,84.3%,0%);fill-opacity:1;" d="M 328.917969 377.128906 C 328.917969 381.148438 322.894531 381.148438 322.894531 377.128906 C 322.894531 373.113281 328.917969 373.113281 328.917969 377.128906 "/>
<path style=" stroke:none;fill-rule:nonzero;fill:rgb(100%,84.3%,0%);fill-opacity:1;" d="M 274.683594 134.871094 C 274.683594 138.886719 268.65625 138.886719 268.65625 134.871094 C 268.65625 130.851562 274.683594 130.851562 274.683594 134.871094 "/>
<path style=" stroke:none;fill-rule:nonzero;fill:rgb(100%,84.3%,0%);fill-opacity:1;" d="M 280.707031 134.871094 C 280.707031 138.886719 274.683594 138.886719 274.683594 134.871094 C 274.683594 130.851562 280.707031 130.851562 280.707031 134.871094 "/>
<path style=" stroke:none;fill-rule:nonzero;fill:rgb(100%,84.3%,0%);fill-opacity:1;" d="M 160.179688 371.105469 C 160.179688 375.121094 154.15625 375.121094 154.15625 371.105469 C 154.15625 367.085938 160.179688 367.085938 160.179688 371.105469 "/>
<path style=" stroke:none;fill-rule:nonzero;fill:rgb(100%,84.3%,0%);fill-opacity:1;" d="M 286.734375 377.128906 C 286.734375 381.148438 280.707031 381.148438 280.707031 377.128906 C 280.707031 373.113281 286.734375 373.113281 286.734375 377.128906 "/>
<path style=" stroke:none;fill-rule:nonzero;fill:rgb(100%,84.3%,0%);fill-opacity:1;" d="M 124.023438 377.128906 C 124.023438 381.148438 117.996094 381.148438 117.996094 377.128906 C 117.996094 373.113281 124.023438 373.113281 124.023438 377.128906 "/>
<path style=" stroke:none;fill-rule:nonzero;fill:rgb(100%,84.3%,0%);fill-opacity:1;" d="M 407.261719 134.871094 C 407.261719 138.886719 401.234375 138.886719 401.234375 134.871094 C 401.234375 130.851562 407.261719 130.851562 407.261719 134.871094 "/>
<path style=" stroke:none;fill-rule:nonzero;fill:rgb(100%,84.3%,0%);fill-opacity:1;" d="M 93.890625 377.128906 C 93.890625 381.148438 87.863281 381.148438 87.863281 377.128906 C 87.863281 373.113281 93.890625 373.113281 93.890625 377.128906 "/>
<path style=" stroke:none;fill-rule:nonzero;fill:rgb(100%,84.3%,0%);fill-opacity:1;" d="M 51.707031 214.417969 C 51.707031 218.4375 45.679688 218.4375 45.679688 214.417969 C 45.679688 210.402344 51.707031 210.402344 51.707031 214.417969 "/>
<path style=" stroke:none;fill-rule:nonzero;fill:rgb(100%,84.3%,0%);fill-opacity:1;" d="M 105.941406 371.105469 C 105.941406 375.121094 99.917969 375.121094 99.917969 371.105469 C 99.917969 367.085938 105.941406 367.085938 105.941406 371.105469 "/>
<path style=" stroke:none;fill-rule:nonzero;fill:rgb(100%,84.3%,0%);fill-opacity:1;" d="M 466.320312 190.3125 C 466.320312 194.332031 460.292969 194.332031 460.292969 190.3125 C 460.292969 186.296875 466.320312 186.296875 466.320312 190.3125 "/>
<path style=" stroke:none;fill-rule:nonzero;fill:rgb(100%,84.3%,0%);fill-opacity:1;" d="M 202.363281 134.871094 C 202.363281 138.886719 196.339844 138.886719 196.339844 134.871094 C 196.339844 130.851562 202.363281 130.851562 202.363281 134.871094 "/>
<path style=" stroke:none;fill-rule:nonzero;fill:rgb(100%,84.3%,0%);fill-opacity:1;" d="M 111.96875 134.871094 C 111.96875 138.886719 105.945312 138.886719 105.945312 134.871094 C 105.945312 130.851562 111.96875 130.851562 111.96875 134.871094 "/>
<path style=" stroke:none;fill-rule:nonzero;fill:rgb(100%,84.3%,0%);fill-opacity:1;" d="M 244.550781 377.128906 C 244.550781 381.148438 238.523438 381.148438 238.523438 377.128906 C 238.523438 373.113281 244.550781 373.113281 244.550781 377.128906 "/>
<path style=" stroke:none;fill-rule:nonzero;fill:rgb(100%,84.3%,0%);fill-opacity:1;" d="M 87.863281 371.105469 C 87.863281 375.121094 81.835938 375.121094 81.835938 371.105469 C 81.835938 367.085938 87.863281 367.085938 87.863281 371.105469 "/>
<path style=" stroke:none;fill-rule:nonzero;fill:rgb(100%,84.3%,0%);fill-opacity:1;" d="M 51.707031 256.601562 C 51.707031 260.621094 45.679688 260.621094 45.679688 256.601562 C 45.679688 252.585938 51.707031 252.585938 51.707031 256.601562 "/>
<path style=" stroke:none;fill-rule:nonzero;fill:rgb(100%,84.3%,0%);fill-opacity:1;" d="M 99.917969 377.128906 C 99.917969 381.148438 93.890625 381.148438 93.890625 377.128906 C 93.890625 373.113281 99.917969 373.113281 99.917969 377.128906 "/>
<path style=" stroke:none;fill-rule:nonzero;fill:rgb(100%,84.3%,0%);fill-opacity:1;" d="M 310.839844 377.128906 C 310.839844 381.148438 304.8125 381.148438 304.8125 377.128906 C 304.8125 373.113281 310.839844 373.113281 310.839844 377.128906 "/>
<path style=" stroke:none;fill-rule:nonzero;fill:rgb(100%,84.3%,0%);fill-opacity:1;" d="M 63.757812 377.128906 C 63.757812 381.148438 57.734375 381.148438 57.734375 377.128906 C 57.734375 373.113281 63.757812 373.113281 63.757812 377.128906 "/>
<path style=" stroke:none;fill-rule:nonzero;fill:rgb(100%,84.3%,0%);fill-opacity:1;" d="M 178.261719 134.871094 C 178.261719 138.886719 172.234375 138.886719 172.234375 134.871094 C 172.234375 130.851562 178.261719 130.851562 178.261719 134.871094 "/>
<path style=" stroke:none;fill-rule:nonzero;fill:rgb(100%,84.3%,0%);fill-opacity:1;" d="M 63.757812 134.871094 C 63.757812 138.886719 57.734375 138.886719 57.734375 134.871094 C 57.734375 130.851562 63.757812 130.851562 63.757812 134.871094 "/>
<path style=" stroke:none;fill-rule:nonzero;fill:rgb(100%,84.3%,0%);fill-opacity:1;" d="M 208.390625 377.128906 C 208.390625 381.148438 202.367188 381.148438 202.367188 377.128906 C 202.367188 373.113281 208.390625 373.113281 208.390625 377.128906 "/>
<path style=" stroke:none;fill-rule:nonzero;fill:rgb(100%,84.3%,0%);fill-opacity:1;" d="M 202.363281 377.128906 C 202.363281 381.148438 196.339844 381.148438 196.339844 377.128906 C 196.339844 373.113281 202.363281 373.113281 202.363281 377.128906 "/>
<path style=" stroke:none;fill-rule:nonzero;fill:rgb(100%,84.3%,0%);fill-opacity:1;" d="M 51.707031 148.128906 C 51.707031 152.144531 45.679688 152.144531 45.679688 148.128906 C 45.679688 144.109375 51.707031 144.109375 51.707031 148.128906 "/>
<path style=" stroke:none;fill-rule:nonzero;fill:rgb(100%,84.3%,0%);fill-opacity:1;" d="M 286.734375 134.871094 C 286.734375 138.886719 280.707031 138.886719 280.707031 134.871094 C 280.707031 130.851562 286.734375 130.851562 286.734375 134.871094 "/>
<path style=" stroke:none;fill-rule:nonzero;fill:rgb(100%,84.3%,0%);fill-opacity:1;" d="M 75.8125 371.105469 C 75.8125 375.121094 69.785156 375.121094 69.785156 371.105469 C 69.785156 367.085938 75.8125 367.085938 75.8125 371.105469 "/>
<path style=" stroke:none;fill-rule:nonzero;fill:rgb(100%,84.3%,0%);fill-opacity:1;" d="M 466.320312 322.894531 C 466.320312 326.910156 460.292969 326.910156 460.292969 322.894531 C 460.292969 318.875 466.320312 318.875 466.320312 322.894531 "/>
<path style=" stroke:none;fill-rule:nonzero;fill:rgb(100%,84.3%,0%);fill-opacity:1;" d="M 298.789062 134.871094 C 298.789062 138.886719 292.761719 138.886719 292.761719 134.871094 C 292.761719 130.851562 298.789062 130.851562 298.789062 134.871094 "/>
<path style=" stroke:none;fill-rule:nonzero;fill:rgb(100%,84.3%,0%);fill-opacity:1;" d="M 347 134.871094 C 347 138.886719 340.972656 138.886719 340.972656 134.871094 C 340.972656 130.851562 347 130.851562 347 134.871094 "/>
<path style=" stroke:none;fill-rule:nonzero;fill:rgb(100%,84.3%,0%);fill-opacity:1;" d="M 250.578125 134.871094 C 250.578125 138.886719 244.550781 138.886719 244.550781 134.871094 C 244.550781 130.851562 250.578125 130.851562 250.578125 134.871094 "/>
<path style=" stroke:none;fill-rule:nonzero;fill:rgb(100%,84.3%,0%);fill-opacity:1;" d="M 190.3125 377.128906 C 190.3125 381.148438 184.285156 381.148438 184.285156 377.128906 C 184.285156 373.113281 190.3125 373.113281 190.3125 377.128906 "/>
<path style=" stroke:none;fill-rule:nonzero;fill:rgb(100%,84.3%,0%);fill-opacity:1;" d="M 51.707031 232.496094 C 51.707031 236.515625 45.679688 236.515625 45.679688 232.496094 C 45.679688 228.480469 51.707031 228.480469 51.707031 232.496094 "/>
<path style=" stroke:none;fill-rule:nonzero;fill:rgb(100%,84.3%,0%);fill-opacity:1;" d="M 51.707031 280.707031 C 51.707031 284.726562 45.679688 284.726562 45.679688 280.707031 C 45.679688 276.691406 51.707031 276.691406 51.707031 280.707031 "/>
<path style=" stroke:none;fill-rule:nonzero;fill:rgb(100%,84.3%,0%);fill-opacity:1;" d="M 244.550781 371.105469 C 244.550781 375.121094 238.523438 375.121094 238.523438 371.105469 C 238.523438 367.085938 244.550781 367.085938 244.550781 371.105469 "/>
<path style=" stroke:none;fill-rule:nonzero;fill:rgb(100%,84.3%,0%);fill-opacity:1;" d="M 431.367188 377.128906 C 431.367188 381.148438 425.339844 381.148438 425.339844 377.128906 C 425.339844 373.113281 431.367188 373.113281 431.367188 377.128906 "/>
<path style=" stroke:none;fill-rule:nonzero;fill:rgb(100%,84.3%,0%);fill-opacity:1;" d="M 81.839844 371.105469 C 81.839844 375.121094 75.8125 375.121094 75.8125 371.105469 C 75.8125 367.085938 81.839844 367.085938 81.839844 371.105469 "/>
<path style=" stroke:none;fill-rule:nonzero;fill:rgb(100%,84.3%,0%);fill-opacity:1;" d="M 413.289062 377.128906 C 413.289062 381.148438 407.261719 381.148438 407.261719 377.128906 C 407.261719 373.113281 413.289062 373.113281 413.289062 377.128906 "/>
<path style=" stroke:none;fill-rule:nonzero;fill:rgb(100%,84.3%,0%);fill-opacity:1;" d="M 196.339844 134.871094 C 196.339844 138.886719 190.3125 138.886719 190.3125 134.871094 C 190.3125 130.851562 196.339844 130.851562 196.339844 134.871094 "/>
<path style=" stroke:none;fill-rule:nonzero;fill:rgb(100%,84.3%,0%);fill-opacity:1;" d="M 136.074219 134.871094 C 136.074219 138.886719 130.046875 138.886719 130.046875 134.871094 C 130.046875 130.851562 136.074219 130.851562 136.074219 134.871094 "/>
<path style=" stroke:none;fill-rule:nonzero;fill:rgb(100%,84.3%,0%);fill-opacity:1;" d="M 466.320312 166.207031 C 466.320312 170.222656 460.292969 170.222656 460.292969 166.207031 C 460.292969 162.1875 466.320312 162.1875 466.320312 166.207031 "/>
<path style=" stroke:none;fill-rule:nonzero;fill:rgb(100%,84.3%,0%);fill-opacity:1;" d="M 214.417969 371.105469 C 214.417969 375.121094 208.390625 375.121094 208.390625 371.105469 C 208.390625 367.085938 214.417969 367.085938 214.417969 371.105469 "/>
<path style=" stroke:none;fill-rule:nonzero;fill:rgb(100%,84.3%,0%);fill-opacity:1;" d="M 51.707031 377.128906 C 51.707031 381.148438 45.679688 381.148438 45.679688 377.128906 C 45.679688 373.113281 51.707031 373.113281 51.707031 377.128906 "/>
<path style=" stroke:none;fill-rule:nonzero;fill:rgb(100%,84.3%,0%);fill-opacity:1;" d="M 292.761719 371.105469 C 292.761719 375.121094 286.734375 375.121094 286.734375 371.105469 C 286.734375 367.085938 292.761719 367.085938 292.761719 371.105469 "/>
<path style=" stroke:none;fill-rule:nonzero;fill:rgb(100%,84.3%,0%);fill-opacity:1;" d="M 51.707031 359.050781 C 51.707031 363.070312 45.679688 363.070312 45.679688 359.050781 C 45.679688 355.035156 51.707031 355.035156 51.707031 359.050781 "/>
<path style=" stroke:none;fill-rule:nonzero;fill:rgb(100%,84.3%,0%);fill-opacity:1;" d="M 466.320312 316.867188 C 466.320312 320.882812 460.292969 320.882812 460.292969 316.867188 C 460.292969 312.847656 466.320312 312.847656 466.320312 316.867188 "/>
<path style=" stroke:none;fill-rule:nonzero;fill:rgb(100%,84.3%,0%);fill-opacity:1;" d="M 395.210938 377.128906 C 395.210938 381.148438 389.183594 381.148438 389.183594 377.128906 C 389.183594 373.113281 395.210938 373.113281 395.210938 377.128906 "/>
<path style=" stroke:none;fill-rule:nonzero;fill:rgb(100%,84.3%,0%);fill-opacity:1;" d="M 51.707031 154.152344 C 51.707031 158.171875 45.679688 158.171875 45.679688 154.152344 C 45.679688 150.136719 51.707031 150.136719 51.707031 154.152344 "/>
<path style=" stroke:none;fill-rule:nonzero;fill:rgb(100%,84.3%,0%);fill-opacity:1;" d="M 286.734375 371.105469 C 286.734375 375.121094 280.707031 375.121094 280.707031 371.105469 C 280.707031 367.085938 286.734375 367.085938 286.734375 371.105469 "/>
<path style=" stroke:none;fill-rule:nonzero;fill:rgb(100%,84.3%,0%);fill-opacity:1;" d="M 226.472656 371.105469 C 226.472656 375.121094 220.445312 375.121094 220.445312 371.105469 C 220.445312 367.085938 226.472656 367.085938 226.472656 371.105469 "/>
<path style=" stroke:none;fill-rule:nonzero;fill:rgb(100%,84.3%,0%);fill-opacity:1;" d="M 262.628906 371.105469 C 262.628906 375.121094 256.601562 375.121094 256.601562 371.105469 C 256.601562 367.085938 262.628906 367.085938 262.628906 371.105469 "/>
<path style=" stroke:none;fill-rule:nonzero;fill:rgb(100%,84.3%,0%);fill-opacity:1;" d="M 401.234375 377.128906 C 401.234375 381.148438 395.207031 381.148438 395.207031 377.128906 C 395.207031 373.113281 401.234375 373.113281 401.234375 377.128906 "/>
<path style=" stroke:none;fill-rule:nonzero;fill:rgb(100%,84.3%,0%);fill-opacity:1;" d="M 166.207031 377.128906 C 166.207031 381.148438 160.179688 381.148438 160.179688 377.128906 C 160.179688 373.113281 166.207031 373.113281 166.207031 377.128906 "/>
<path style=" stroke:none;fill-rule:nonzero;fill:rgb(100%,84.3%,0%);fill-opacity:1;" d="M 371.101562 377.128906 C 371.101562 381.148438 365.078125 381.148438 365.078125 377.128906 C 365.078125 373.113281 371.101562 373.113281 371.101562 377.128906 "/>
<path style=" stroke:none;fill-rule:nonzero;fill:rgb(100%,84.3%,0%);fill-opacity:1;" d="M 310.839844 134.871094 C 310.839844 138.886719 304.8125 138.886719 304.8125 134.871094 C 304.8125 130.851562 310.839844 130.851562 310.839844 134.871094 "/>
<path style=" stroke:none;fill-rule:nonzero;fill:rgb(100%,84.3%,0%);fill-opacity:1;" d="M 51.707031 274.683594 C 51.707031 278.699219 45.679688 278.699219 45.679688 274.683594 C 45.679688 270.664062 51.707031 270.664062 51.707031 274.683594 "/>
<path style=" stroke:none;fill-rule:nonzero;fill:rgb(100%,84.3%,0%);fill-opacity:1;" d="M 190.3125 134.871094 C 190.3125 138.886719 184.285156 138.886719 184.285156 134.871094 C 184.285156 130.851562 190.3125 130.851562 190.3125 134.871094 "/>
<path style=" stroke:none;fill-rule:nonzero;fill:rgb(100%,84.3%,0%);fill-opacity:1;" d="M 377.128906 134.871094 C 377.128906 138.886719 371.105469 138.886719 371.105469 134.871094 C 371.105469 130.851562 377.128906 130.851562 377.128906 134.871094 "/>
<path style=" stroke:none;fill-rule:nonzero;fill:rgb(100%,84.3%,0%);fill-opacity:1;" d="M 124.023438 134.871094 C 124.023438 138.886719 117.996094 138.886719 117.996094 134.871094 C 117.996094 130.851562 124.023438 130.851562 124.023438 134.871094 "/>
<path style=" stroke:none;fill-rule:nonzero;fill:rgb(100%,84.3%,0%);fill-opacity:1;" d="M 466.320312 262.628906 C 466.320312 266.648438 460.292969 266.648438 460.292969 262.628906 C 460.292969 258.613281 466.320312 258.613281 466.320312 262.628906 "/>
<path style=" stroke:none;fill-rule:nonzero;fill:rgb(100%,84.3%,0%);fill-opacity:1;" d="M 51.707031 353.023438 C 51.707031 357.042969 45.679688 357.042969 45.679688 353.023438 C 45.679688 349.007812 51.707031 349.007812 51.707031 353.023438 "/>
<path style=" stroke:none;fill-rule:nonzero;fill:rgb(100%,84.3%,0%);fill-opacity:1;" d="M 359.050781 377.128906 C 359.050781 381.148438 353.023438 381.148438 353.023438 377.128906 C 353.023438 373.113281 359.050781 373.113281 359.050781 377.128906 "/>
<path style=" stroke:none;fill-rule:nonzero;fill:rgb(100%,84.3%,0%);fill-opacity:1;" d="M 172.234375 377.128906 C 172.234375 381.148438 166.207031 381.148438 166.207031 377.128906 C 166.207031 373.113281 172.234375 373.113281 172.234375 377.128906 "/>
<path style=" stroke:none;fill-rule:nonzero;fill:rgb(100%,84.3%,0%);fill-opacity:1;" d="M 401.234375 134.871094 C 401.234375 138.886719 395.207031 138.886719 395.207031 134.871094 C 395.207031 130.851562 401.234375 130.851562 401.234375 134.871094 "/>
<path style=" stroke:none;fill-rule:nonzero;fill:rgb(100%,84.3%,0%);fill-opacity:1;" d="M 256.601562 134.871094 C 256.601562 138.886719 250.574219 138.886719 250.574219 134.871094 C 250.574219 130.851562 256.601562 130.851562 256.601562 134.871094 "/>
<path style=" stroke:none;fill-rule:nonzero;fill:rgb(100%,84.3%,0%);fill-opacity:1;" d="M 371.101562 134.871094 C 371.101562 138.886719 365.078125 138.886719 365.078125 134.871094 C 365.078125 130.851562 371.101562 130.851562 371.101562 134.871094 "/>
<path style=" stroke:none;fill-rule:nonzero;fill:rgb(100%,84.3%,0%);fill-opacity:1;" d="M 51.707031 166.207031 C 51.707031 170.222656 45.679688 170.222656 45.679688 166.207031 C 45.679688 162.1875 51.707031 162.1875 51.707031 166.207031 "/>
<path style=" stroke:none;fill-rule:nonzero;fill:rgb(100%,84.3%,0%);fill-opacity:1;" d="M 466.320312 154.152344 C 466.320312 158.171875 460.292969 158.171875 460.292969 154.152344 C 460.292969 150.136719 466.320312 150.136719 466.320312 154.152344 "/>
<path style=" stroke:none;fill-rule:nonzero;fill:rgb(100%,84.3%,0%);fill-opacity:1;" d="M 136.074219 371.105469 C 136.074219 375.121094 130.046875 375.121094 130.046875 371.105469 C 130.046875 367.085938 136.074219 367.085938 136.074219 371.105469 "/>
<path style=" stroke:none;fill-rule:nonzero;fill:rgb(100%,84.3%,0%);fill-opacity:1;" d="M 466.320312 274.683594 C 466.320312 278.699219 460.292969 278.699219 460.292969 274.683594 C 460.292969 270.664062 466.320312 270.664062 466.320312 274.683594 "/>
<path style=" stroke:none;fill-rule:nonzero;fill:rgb(100%,84.3%,0%);fill-opacity:1;" d="M 51.707031 304.8125 C 51.707031 308.832031 45.679688 308.832031 45.679688 304.8125 C 45.679688 300.796875 51.707031 300.796875 51.707031 304.8125 "/>
<path style=" stroke:none;fill-rule:nonzero;fill:rgb(100%,84.3%,0%);fill-opacity:1;" d="M 383.15625 377.128906 C 383.15625 381.148438 377.128906 381.148438 377.128906 377.128906 C 377.128906 373.113281 383.15625 373.113281 383.15625 377.128906 "/>
<path style=" stroke:none;fill-rule:nonzero;fill:rgb(100%,84.3%,0%);fill-opacity:1;" d="M 310.839844 371.105469 C 310.839844 375.121094 304.8125 375.121094 304.8125 371.105469 C 304.8125 367.085938 310.839844 367.085938 310.839844 371.105469 "/>
<path style=" stroke:none;fill-rule:nonzero;fill:rgb(100%,84.3%,0%);fill-opacity:1;" d="M 154.152344 377.128906 C 154.152344 381.148438 148.128906 381.148438 148.128906 377.128906 C 148.128906 373.113281 154.152344 373.113281 154.152344 377.128906 "/>
<path style=" stroke:none;fill-rule:nonzero;fill:rgb(100%,84.3%,0%);fill-opacity:1;" d="M 250.578125 377.128906 C 250.578125 381.148438 244.550781 381.148438 244.550781 377.128906 C 244.550781 373.113281 250.578125 373.113281 250.578125 377.128906 "/>
<path style=" stroke:none;fill-rule:nonzero;fill:rgb(100%,84.3%,0%);fill-opacity:1;" d="M 466.320312 238.523438 C 466.320312 242.542969 460.292969 242.542969 460.292969 238.523438 C 460.292969 234.507812 466.320312 234.507812 466.320312 238.523438 "/>
<path style=" stroke:none;fill-rule:nonzero;fill:rgb(100%,84.3%,0%);fill-opacity:1;" d="M 298.789062 371.105469 C 298.789062 375.121094 292.761719 375.121094 292.761719 371.105469 C 292.761719 367.085938 298.789062 367.085938 298.789062 371.105469 "/>
<path style=" stroke:none;fill-rule:nonzero;fill:rgb(100%,84.3%,0%);fill-opacity:1;" d="M 322.890625 134.871094 C 322.890625 138.886719 316.867188 138.886719 316.867188 134.871094 C 316.867188 130.851562 322.890625 130.851562 322.890625 134.871094 "/>
<path style=" stroke:none;fill-rule:nonzero;fill:rgb(100%,84.3%,0%);fill-opacity:1;" d="M 172.234375 371.105469 C 172.234375 375.121094 166.207031 375.121094 166.207031 371.105469 C 166.207031 367.085938 172.234375 367.085938 172.234375 371.105469 "/>
<path style=" stroke:none;fill-rule:nonzero;fill:rgb(100%,84.3%,0%);fill-opacity:1;" d="M 99.917969 134.871094 C 99.917969 138.886719 93.890625 138.886719 93.890625 134.871094 C 93.890625 130.851562 99.917969 130.851562 99.917969 134.871094 "/>
<path style=" stroke:none;fill-rule:nonzero;fill:rgb(100%,84.3%,0%);fill-opacity:1;" d="M 461.5 134.871094 C 461.5 138.886719 455.472656 138.886719 455.472656 134.871094 C 455.472656 130.851562 461.5 130.851562 461.5 134.871094 "/>
<path style=" stroke:none;fill-rule:nonzero;fill:rgb(100%,84.3%,0%);fill-opacity:1;" d="M 184.285156 134.871094 C 184.285156 138.886719 178.261719 138.886719 178.261719 134.871094 C 178.261719 130.851562 184.285156 130.851562 184.285156 134.871094 "/>
<path style=" stroke:none;fill-rule:nonzero;fill:rgb(100%,84.3%,0%);fill-opacity:1;" d="M 178.261719 377.128906 C 178.261719 381.148438 172.234375 381.148438 172.234375 377.128906 C 172.234375 373.113281 178.261719 373.113281 178.261719 377.128906 "/>
<path style=" stroke:none;fill-rule:nonzero;fill:rgb(100%,84.3%,0%);fill-opacity:1;" d="M 75.8125 134.871094 C 75.8125 138.886719 69.785156 138.886719 69.785156 134.871094 C 69.785156 130.851562 75.8125 130.851562 75.8125 134.871094 "/>
<path style=" stroke:none;fill-rule:nonzero;fill:rgb(100%,84.3%,0%);fill-opacity:1;" d="M 220.445312 377.128906 C 220.445312 381.148438 214.417969 381.148438 214.417969 377.128906 C 214.417969 373.113281 220.445312 373.113281 220.445312 377.128906 "/>
<path style=" stroke:none;fill-rule:nonzero;fill:rgb(100%,84.3%,0%);fill-opacity:1;" d="M 466.320312 196.339844 C 466.320312 200.355469 460.292969 200.355469 460.292969 196.339844 C 460.292969 192.320312 466.320312 192.320312 466.320312 196.339844 "/>
<path style=" stroke:none;fill-rule:nonzero;fill:rgb(100%,84.3%,0%);fill-opacity:1;" d="M 466.320312 172.234375 C 466.320312 176.25 460.292969 176.25 460.292969 172.234375 C 460.292969 168.214844 466.320312 168.214844 466.320312 172.234375 "/>
<path style=" stroke:none;fill-rule:nonzero;fill:rgb(100%,84.3%,0%);fill-opacity:1;" d="M 425.339844 377.128906 C 425.339844 381.148438 419.316406 381.148438 419.316406 377.128906 C 419.316406 373.113281 425.339844 373.113281 425.339844 377.128906 "/>
<path style=" stroke:none;fill-rule:nonzero;fill:rgb(100%,84.3%,0%);fill-opacity:1;" d="M 466.320312 178.261719 C 466.320312 182.277344 460.292969 182.277344 460.292969 178.261719 C 460.292969 174.242188 466.320312 174.242188 466.320312 178.261719 "/>
<path style=" stroke:none;fill-rule:nonzero;fill:rgb(100%,84.3%,0%);fill-opacity:1;" d="M 466.320312 334.945312 C 466.320312 338.960938 460.292969 338.960938 460.292969 334.945312 C 460.292969 330.925781 466.320312 330.925781 466.320312 334.945312 "/>
<path style=" stroke:none;fill-rule:nonzero;fill:rgb(100%,84.3%,0%);fill-opacity:1;" d="M 466.320312 214.417969 C 466.320312 218.4375 460.292969 218.4375 460.292969 214.417969 C 460.292969 210.402344 466.320312 210.402344 466.320312 214.417969 "/>
<path style=" stroke:none;fill-rule:nonzero;fill:rgb(100%,84.3%,0%);fill-opacity:1;" d="M 208.390625 134.871094 C 208.390625 138.886719 202.367188 138.886719 202.367188 134.871094 C 202.367188 130.851562 208.390625 130.851562 208.390625 134.871094 "/>
<path style=" stroke:none;fill-rule:nonzero;fill:rgb(100%,84.3%,0%);fill-opacity:1;" d="M 466.320312 310.839844 C 466.320312 314.859375 460.292969 314.859375 460.292969 310.839844 C 460.292969 306.824219 466.320312 306.824219 466.320312 310.839844 "/>
<path style=" stroke:none;fill-rule:nonzero;fill:rgb(100%,84.3%,0%);fill-opacity:1;" d="M 75.8125 377.128906 C 75.8125 381.148438 69.785156 381.148438 69.785156 377.128906 C 69.785156 373.113281 75.8125 373.113281 75.8125 377.128906 "/>
<path style=" stroke:none;fill-rule:nonzero;fill:rgb(100%,84.3%,0%);fill-opacity:1;" d="M 202.363281 371.105469 C 202.363281 375.121094 196.339844 375.121094 196.339844 371.105469 C 196.339844 367.085938 202.363281 367.085938 202.363281 371.105469 "/>
<path style=" stroke:none;fill-rule:nonzero;fill:rgb(100%,84.3%,0%);fill-opacity:1;" d="M 256.601562 371.105469 C 256.601562 375.121094 250.574219 375.121094 250.574219 371.105469 C 250.574219 367.085938 256.601562 367.085938 256.601562 371.105469 "/>
<path style=" stroke:none;fill-rule:nonzero;fill:rgb(100%,84.3%,0%);fill-opacity:1;" d="M 466.320312 328.917969 C 466.320312 332.9375 460.292969 332.9375 460.292969 328.917969 C 460.292969 324.902344 466.320312 324.902344 466.320312 328.917969 "/>
<path style=" stroke:none;fill-rule:nonzero;fill:rgb(100%,84.3%,0%);fill-opacity:1;" d="M 51.707031 160.179688 C 51.707031 164.199219 45.679688 164.199219 45.679688 160.179688 C 45.679688 156.164062 51.707031 156.164062 51.707031 160.179688 "/>
<path style=" stroke:none;fill-rule:nonzero;fill:rgb(100%,84.3%,0%);fill-opacity:1;" d="M 214.417969 377.128906 C 214.417969 381.148438 208.390625 381.148438 208.390625 377.128906 C 208.390625 373.113281 214.417969 373.113281 214.417969 377.128906 "/>
<path style=" stroke:none;fill-rule:nonzero;fill:rgb(100%,84.3%,0%);fill-opacity:1;" d="M 316.867188 371.105469 C 316.867188 375.121094 310.839844 375.121094 310.839844 371.105469 C 310.839844 367.085938 316.867188 367.085938 316.867188 371.105469 "/>
<path style=" stroke:none;fill-rule:nonzero;fill:rgb(100%,84.3%,0%);fill-opacity:1;" d="M 226.472656 134.871094 C 226.472656 138.886719 220.445312 138.886719 220.445312 134.871094 C 220.445312 130.851562 226.472656 130.851562 226.472656 134.871094 "/>
<path style=" stroke:none;fill-rule:nonzero;fill:rgb(100%,84.3%,0%);fill-opacity:1;" d="M 51.707031 322.894531 C 51.707031 326.910156 45.679688 326.910156 45.679688 322.894531 C 45.679688 318.875 51.707031 318.875 51.707031 322.894531 "/>
<path style=" stroke:none;fill-rule:nonzero;fill:rgb(100%,84.3%,0%);fill-opacity:1;" d="M 292.761719 134.871094 C 292.761719 138.886719 286.734375 138.886719 286.734375 134.871094 C 286.734375 130.851562 292.761719 130.851562 292.761719 134.871094 "/>
<path style=" stroke:none;fill-rule:nonzero;fill:rgb(100%,84.3%,0%);fill-opacity:1;" d="M 51.707031 178.261719 C 51.707031 182.277344 45.679688 182.277344 45.679688 178.261719 C 45.679688 174.242188 51.707031 174.242188 51.707031 178.261719 "/>
<path style=" stroke:none;fill-rule:nonzero;fill:rgb(100%,84.3%,0%);fill-opacity:1;" d="M 184.285156 371.105469 C 184.285156 375.121094 178.261719 375.121094 178.261719 371.105469 C 178.261719 367.085938 184.285156 367.085938 184.285156 371.105469 "/>
<path style=" stroke:none;fill-rule:nonzero;fill:rgb(100%,84.3%,0%);fill-opacity:1;" d="M 51.707031 226.472656 C 51.707031 230.488281 45.679688 230.488281 45.679688 226.472656 C 45.679688 222.453125 51.707031 222.453125 51.707031 226.472656 "/>
<path style=" stroke:none;fill-rule:nonzero;fill:rgb(100%,84.3%,0%);fill-opacity:1;" d="M 466.320312 226.472656 C 466.320312 230.488281 460.292969 230.488281 460.292969 226.472656 C 460.292969 222.453125 466.320312 222.453125 466.320312 226.472656 "/>
<path style=" stroke:none;fill-rule:nonzero;fill:rgb(100%,84.3%,0%);fill-opacity:1;" d="M 51.707031 268.65625 C 51.707031 272.671875 45.679688 272.671875 45.679688 268.65625 C 45.679688 264.636719 51.707031 264.636719 51.707031 268.65625 "/>
<path style=" stroke:none;fill-rule:nonzero;fill:rgb(100%,84.3%,0%);fill-opacity:1;" d="M 466.320312 286.734375 C 466.320312 290.75 460.292969 290.75 460.292969 286.734375 C 460.292969 282.714844 466.320312 282.714844 466.320312 286.734375 "/>
<path style=" stroke:none;fill-rule:nonzero;fill:rgb(100%,84.3%,0%);fill-opacity:1;" d="M 51.707031 202.363281 C 51.707031 206.382812 45.679688 206.382812 45.679688 202.363281 C 45.679688 198.347656 51.707031 198.347656 51.707031 202.363281 "/>
<path style=" stroke:none;fill-rule:nonzero;fill:rgb(100%,84.3%,0%);fill-opacity:1;" d="M 63.757812 371.105469 C 63.757812 375.121094 57.734375 375.121094 57.734375 371.105469 C 57.734375 367.085938 63.757812 367.085938 63.757812 371.105469 "/>
<path style=" stroke:none;fill-rule:nonzero;fill:rgb(100%,84.3%,0%);fill-opacity:1;" d="M 389.183594 377.128906 C 389.183594 381.148438 383.15625 381.148438 383.15625 377.128906 C 383.15625 373.113281 389.183594 373.113281 389.183594 377.128906 "/>
<path style=" stroke:none;fill-rule:nonzero;fill:rgb(100%,84.3%,0%);fill-opacity:1;" d="M 51.707031 172.234375 C 51.707031 176.25 45.679688 176.25 45.679688 172.234375 C 45.679688 168.214844 51.707031 168.214844 51.707031 172.234375 "/>
<path style=" stroke:none;fill-rule:nonzero;fill:rgb(100%,84.3%,0%);fill-opacity:1;" d="M 51.707031 184.285156 C 51.707031 188.304688 45.679688 188.304688 45.679688 184.285156 C 45.679688 180.269531 51.707031 180.269531 51.707031 184.285156 "/>
<path style=" stroke:none;fill-rule:nonzero;fill:rgb(100%,84.3%,0%);fill-opacity:1;" d="M 69.785156 134.871094 C 69.785156 138.886719 63.757812 138.886719 63.757812 134.871094 C 63.757812 130.851562 69.785156 130.851562 69.785156 134.871094 "/>
<path style=" stroke:none;fill-rule:nonzero;fill:rgb(100%,84.3%,0%);fill-opacity:1;" d="M 466.320312 292.761719 C 466.320312 296.777344 460.292969 296.777344 460.292969 292.761719 C 460.292969 288.742188 466.320312 288.742188 466.320312 292.761719 "/>
<path style=" stroke:none;fill-rule:nonzero;fill:rgb(100%,84.3%,0%);fill-opacity:1;" d="M 466.320312 346.996094 C 466.320312 351.015625 460.292969 351.015625 460.292969 346.996094 C 460.292969 342.980469 466.320312 342.980469 466.320312 346.996094 "/>
<path style=" stroke:none;fill-rule:nonzero;fill:rgb(100%,84.3%,0%);fill-opacity:1;" d="M 51.707031 208.390625 C 51.707031 212.410156 45.679688 212.410156 45.679688 208.390625 C 45.679688 204.375 51.707031 204.375 51.707031 208.390625 "/>
<path style=" stroke:none;fill-rule:nonzero;fill:rgb(100%,84.3%,0%);fill-opacity:1;" d="M 51.707031 328.917969 C 51.707031 332.9375 45.679688 332.9375 45.679688 328.917969 C 45.679688 324.902344 51.707031 324.902344 51.707031 328.917969 "/>
<path style=" stroke:none;fill-rule:nonzero;fill:rgb(100%,84.3%,0%);fill-opacity:1;" d="M 232.496094 371.105469 C 232.496094 375.121094 226.472656 375.121094 226.472656 371.105469 C 226.472656 367.085938 232.496094 367.085938 232.496094 371.105469 "/>
<path style=" stroke:none;fill-rule:nonzero;fill:rgb(100%,84.3%,0%);fill-opacity:1;" d="M 166.207031 134.871094 C 166.207031 138.886719 160.179688 138.886719 160.179688 134.871094 C 160.179688 130.851562 166.207031 130.851562 166.207031 134.871094 "/>
<path style=" stroke:none;fill-rule:nonzero;fill:rgb(100%,84.3%,0%);fill-opacity:1;" d="M 51.707031 190.3125 C 51.707031 194.332031 45.679688 194.332031 45.679688 190.3125 C 45.679688 186.296875 51.707031 186.296875 51.707031 190.3125 "/>
<path style=" stroke:none;fill-rule:nonzero;fill:rgb(100%,84.3%,0%);fill-opacity:1;" d="M 304.8125 377.128906 C 304.8125 381.148438 298.785156 381.148438 298.785156 377.128906 C 298.785156 373.113281 304.8125 373.113281 304.8125 377.128906 "/>
<path style=" stroke:none;fill-rule:nonzero;fill:rgb(100%,84.3%,0%);fill-opacity:1;" d="M 328.917969 134.871094 C 328.917969 138.886719 322.894531 138.886719 322.894531 134.871094 C 322.894531 130.851562 328.917969 130.851562 328.917969 134.871094 "/>
<path style=" stroke:none;fill-rule:nonzero;fill:rgb(100%,84.3%,0%);fill-opacity:1;" d="M 304.8125 371.105469 C 304.8125 375.121094 298.785156 375.121094 298.785156 371.105469 C 298.785156 367.085938 304.8125 367.085938 304.8125 371.105469 "/>
<path style=" stroke:none;fill-rule:nonzero;fill:rgb(100%,84.3%,0%);fill-opacity:1;" d="M 322.890625 371.105469 C 322.890625 375.121094 316.867188 375.121094 316.867188 371.105469 C 316.867188 367.085938 322.890625 367.085938 322.890625 371.105469 "/>
<path style=" stroke:none;fill-rule:nonzero;fill:rgb(100%,84.3%,0%);fill-opacity:1;" d="M 148.128906 134.871094 C 148.128906 138.886719 142.101562 138.886719 142.101562 134.871094 C 142.101562 130.851562 148.128906 130.851562 148.128906 134.871094 "/>
<path style=" stroke:none;fill-rule:nonzero;fill:rgb(100%,84.3%,0%);fill-opacity:1;" d="M 172.234375 134.871094 C 172.234375 138.886719 166.207031 138.886719 166.207031 134.871094 C 166.207031 130.851562 172.234375 130.851562 172.234375 134.871094 "/>
<path style=" stroke:none;fill-rule:nonzero;fill:rgb(100%,84.3%,0%);fill-opacity:1;" d="M 69.785156 371.105469 C 69.785156 375.121094 63.757812 375.121094 63.757812 371.105469 C 63.757812 367.085938 69.785156 367.085938 69.785156 371.105469 "/>
<path style=" stroke:none;fill-rule:nonzero;fill:rgb(100%,84.3%,0%);fill-opacity:1;" d="M 298.789062 377.128906 C 298.789062 381.148438 292.761719 381.148438 292.761719 377.128906 C 292.761719 373.113281 298.789062 373.113281 298.789062 377.128906 "/>
<path style=" stroke:none;fill-rule:nonzero;fill:rgb(100%,84.3%,0%);fill-opacity:1;" d="M 455.472656 377.128906 C 455.472656 381.148438 449.445312 381.148438 449.445312 377.128906 C 449.445312 373.113281 455.472656 373.113281 455.472656 377.128906 "/>
<path style=" stroke:none;fill-rule:nonzero;fill:rgb(100%,84.3%,0%);fill-opacity:1;" d="M 334.945312 134.871094 C 334.945312 138.886719 328.917969 138.886719 328.917969 134.871094 C 328.917969 130.851562 334.945312 130.851562 334.945312 134.871094 "/>
<path style=" stroke:none;fill-rule:nonzero;fill:rgb(100%,84.3%,0%);fill-opacity:1;" d="M 51.707031 340.972656 C 51.707031 344.988281 45.679688 344.988281 45.679688 340.972656 C 45.679688 336.953125 51.707031 336.953125 51.707031 340.972656 "/>
<path style=" stroke:none;fill-rule:nonzero;fill:rgb(100%,84.3%,0%);fill-opacity:1;" d="M 466.320312 340.972656 C 466.320312 344.988281 460.292969 344.988281 460.292969 340.972656 C 460.292969 336.953125 466.320312 336.953125 466.320312 340.972656 "/>
</g>
</svg>
