<?xml version="1.0" encoding="UTF-8"?>
<svg xmlns="http://www.w3.org/2000/svg" xmlns:xlink="http://www.w3.org/1999/xlink" width="512pt" height="512pt" viewBox="0 0 512 512" version="1.1">
<g id="surface146">
<rect x="0" y="0" width="512" height="512" style="fill:rgb(26.7%,26.7%,26.7%);fill-opacity:1;stroke:none;"/>
<path style=" stroke:none;fill-rule:nonzero;fill:rgb(19.2%,38.8%,66.7%);fill-opacity:1;" d="M 8.855469 42.667969 L 97.410156 42.667969 L 97.410156 469.332031 L 8.855469 469.332031 Z M 8.855469 42.667969 "/>
<path style=" stroke:none;fill-rule:nonzero;fill:rgb(90.6%,14.9%,14.9%);fill-opacity:1;" d="M 445.296875 97.867188 C 445.296875 112.476562 433.453125 124.320312 418.847656 124.320312 C 404.238281 124.320312 392.394531 112.476562 392.394531 97.867188 C 392.394531 83.261719 404.238281 71.417969 418.847656 71.417969 C 433.453125 71.417969 445.296875 83.261719 445.296875 97.867188 "/>
<path style=" stroke:none;fill-rule:nonzero;fill:rgb(90.6%,14.9%,14.9%);fill-opacity:1;" d="M 112.933594 -19.4375 C 112.933594 5.96875 92.339844 26.566406 66.933594 26.566406 C 41.527344 26.566406 20.929688 5.96875 20.929688 -19.4375 C 20.929688 -44.84375 41.527344 -65.4375 66.933594 -65.4375 C 92.339844 -65.4375 112.933594 -44.84375 112.933594 -19.4375 "/>
<path style=" stroke:none;fill-rule:nonzero;fill:rgb(90.6%,14.9%,14.9%);fill-opacity:1;" d="M 265.890625 515.910156 C 265.890625 519.722656 262.800781 522.808594 258.988281 522.808594 C 255.179688 522.808594 252.089844 519.722656 252.089844 515.910156 C 252.089844 512.097656 255.179688 509.007812 258.988281 509.007812 C 262.800781 509.007812 265.890625 512.097656 265.890625 515.910156 "/>
<path style=" stroke:none;fill-rule:nonzero;fill:rgb(90.6%,14.9%,14.9%);fill-opacity:1;" d="M 292.339844 208.273438 C 292.339844 212.71875 288.738281 216.324219 284.289062 216.324219 C 279.84375 216.324219 276.242188 212.71875 276.242188 208.273438 C 276.242188 203.828125 279.84375 200.222656 284.289062 200.222656 C 288.738281 200.222656 292.339844 203.828125 292.339844 208.273438 "/>
<path style=" stroke:none;fill-rule:nonzero;fill:rgb(90.6%,14.9%,14.9%);fill-opacity:1;" d="M 215.863281 293.949219 C 215.863281 307.289062 205.050781 318.101562 191.710938 318.101562 C 178.375 318.101562 167.5625 307.289062 167.5625 293.949219 C 167.5625 280.613281 178.375 269.800781 191.710938 269.800781 C 205.050781 269.800781 215.863281 280.613281 215.863281 293.949219 "/>
<path style=" stroke:none;fill-rule:nonzero;fill:rgb(90.6%,14.9%,14.9%);fill-opacity:1;" d="M 159.511719 145.019531 C 159.511719 150.101562 155.390625 154.222656 150.3125 154.222656 C 145.230469 154.222656 141.109375 150.101562 141.109375 145.019531 C 141.109375 139.941406 145.230469 135.820312 150.3125 135.820312 C 155.390625 135.820312 159.511719 139.941406 159.511719 145.019531 "/>
<path style=" stroke:none;fill-rule:nonzero;fill:rgb(90.6%,14.9%,14.9%);fill-opacity:1;" d="M 447.597656 356.628906 C 447.597656 371.554688 435.496094 383.65625 420.570312 383.65625 C 405.644531 383.65625 393.546875 371.554688 393.546875 356.628906 C 393.546875 341.703125 405.644531 329.601562 420.570312 329.601562 C 435.496094 329.601562 447.597656 341.703125 447.597656 356.628906 "/>
<path style=" stroke:none;fill-rule:nonzero;fill:rgb(90.6%,14.9%,14.9%);fill-opacity:1;" d="M 453.347656 358.929688 C 453.347656 382.746094 434.039062 402.054688 410.222656 402.054688 C 386.402344 402.054688 367.09375 382.746094 367.09375 358.929688 C 367.09375 335.109375 386.402344 315.800781 410.222656 315.800781 C 434.039062 315.800781 453.347656 335.109375 453.347656 358.929688 "/>
<path style=" stroke:none;fill-rule:nonzero;fill:rgb(90.6%,14.9%,14.9%);fill-opacity:1;" d="M 158.9375 302.003906 C 158.9375 306.765625 155.074219 310.628906 150.3125 310.628906 C 145.546875 310.628906 141.6875 306.765625 141.6875 302.003906 C 141.6875 297.238281 145.546875 293.375 150.3125 293.375 C 155.074219 293.375 158.9375 297.238281 158.9375 302.003906 "/>
<path style=" stroke:none;fill-rule:nonzero;fill:rgb(100%,100%,100%);fill-opacity:1;" d="M 364.792969 320.976562 C 364.792969 324.8125 359.042969 324.8125 359.042969 320.976562 C 359.042969 317.144531 364.792969 317.144531 364.792969 320.976562 "/>
<path style=" stroke:none;fill-rule:nonzero;fill:rgb(100%,100%,100%);fill-opacity:1;" d="M 329.144531 370.429688 C 329.144531 374.261719 323.394531 374.261719 323.394531 370.429688 C 323.394531 366.59375 329.144531 366.59375 329.144531 370.429688 "/>
<path style=" stroke:none;fill-rule:nonzero;fill:rgb(100%,100%,100%);fill-opacity:1;" d="M 257.839844 269.800781 C 257.839844 273.632812 252.089844 273.632812 252.089844 269.800781 C 252.089844 265.96875 257.839844 265.96875 257.839844 269.800781 "/>
<path style=" stroke:none;fill-rule:nonzero;fill:rgb(100%,100%,100%);fill-opacity:1;" d="M 372.269531 146.171875 C 372.269531 150.003906 366.519531 150.003906 366.519531 146.171875 C 366.519531 142.335938 372.269531 142.335938 372.269531 146.171875 "/>
<path style=" stroke:none;fill-rule:nonzero;fill:rgb(100%,100%,100%);fill-opacity:1;" d="M 359.042969 382.503906 C 359.042969 386.339844 353.292969 386.339844 353.292969 382.503906 C 353.292969 378.671875 359.042969 378.671875 359.042969 382.503906 "/>
<path style=" stroke:none;fill-rule:nonzero;fill:rgb(100%,100%,100%);fill-opacity:1;" d="M 245.1875 264.625 C 245.1875 268.457031 239.4375 268.457031 239.4375 264.625 C 239.4375 260.792969 245.1875 260.792969 245.1875 264.625 "/>
<path style=" stroke:none;fill-rule:nonzero;fill:rgb(100%,100%,100%);fill-opacity:1;" d="M 410.222656 160.546875 C 410.222656 164.378906 404.472656 164.378906 404.472656 160.546875 C 404.472656 156.710938 410.222656 156.710938 410.222656 160.546875 "/>
<path style=" stroke:none;fill-rule:nonzero;fill:rgb(100%,100%,100%);fill-opacity:1;" d="M 144.5625 396.304688 C 144.5625 400.136719 138.8125 400.136719 138.8125 396.304688 C 138.8125 392.472656 144.5625 392.472656 144.5625 396.304688 "/>
<path style=" stroke:none;fill-rule:nonzero;fill:rgb(100%,100%,100%);fill-opacity:1;" d="M 198.039062 441.730469 C 198.039062 445.566406 192.289062 445.566406 192.289062 441.730469 C 192.289062 437.898438 198.039062 437.898438 198.039062 441.730469 "/>
<path style=" stroke:none;fill-rule:nonzero;fill:rgb(100%,100%,100%);fill-opacity:1;" d="M 471.171875 346.855469 C 471.171875 350.6875 465.421875 350.6875 465.421875 346.855469 C 465.421875 343.019531 471.171875 343.019531 471.171875 346.855469 "/>
<path style=" stroke:none;fill-rule:nonzero;fill:rgb(100%,100%,100%);fill-opacity:1;" d="M 260.714844 39.21875 C 260.714844 43.050781 254.964844 43.050781 254.964844 39.21875 C 254.964844 35.382812 260.714844 35.382812 260.714844 39.21875 "/>
<path style=" stroke:none;fill-rule:nonzero;fill:rgb(100%,100%,100%);fill-opacity:1;" d="M 350.417969 175.496094 C 350.417969 179.332031 344.667969 179.332031 344.667969 175.496094 C 344.667969 171.664062 350.417969 171.664062 350.417969 175.496094 "/>
<path style=" stroke:none;fill-rule:nonzero;fill:rgb(100%,100%,100%);fill-opacity:1;" d="M 137.085938 169.746094 C 137.085938 173.582031 131.335938 173.582031 131.335938 169.746094 C 131.335938 165.914062 137.085938 165.914062 137.085938 169.746094 "/>
<path style=" stroke:none;fill-rule:nonzero;fill:rgb(100%,100%,100%);fill-opacity:1;" d="M 440.695312 402.632812 C 440.695312 406.464844 434.945312 406.464844 434.945312 402.632812 C 434.945312 398.796875 440.695312 398.796875 440.695312 402.632812 "/>
<path style=" stroke:none;fill-rule:nonzero;fill:rgb(100%,100%,100%);fill-opacity:1;" d="M 431.496094 491.757812 C 431.496094 495.59375 425.746094 495.59375 425.746094 491.757812 C 425.746094 487.925781 431.496094 487.925781 431.496094 491.757812 "/>
<path style=" stroke:none;fill-rule:nonzero;fill:rgb(100%,100%,100%);fill-opacity:1;" d="M 418.847656 279.574219 C 418.847656 283.410156 413.097656 283.410156 413.097656 279.574219 C 413.097656 275.742188 418.847656 275.742188 418.847656 279.574219 "/>
<path style=" stroke:none;fill-rule:nonzero;fill:rgb(100%,100%,100%);fill-opacity:1;" d="M 118.683594 436.558594 C 118.683594 440.390625 112.933594 440.390625 112.933594 436.558594 C 112.933594 432.722656 118.683594 432.722656 118.683594 436.558594 "/>
<path style=" stroke:none;fill-rule:nonzero;fill:rgb(100%,100%,100%);fill-opacity:1;" d="M 375.144531 215.171875 C 375.144531 219.007812 369.394531 219.007812 369.394531 215.171875 C 369.394531 211.339844 375.144531 211.339844 375.144531 215.171875 "/>
<path style=" stroke:none;fill-rule:nonzero;fill:rgb(100%,100%,100%);fill-opacity:1;" d="M 62.332031 472.207031 C 62.332031 476.042969 56.582031 476.042969 56.582031 472.207031 C 56.582031 468.375 62.332031 468.375 62.332031 472.207031 "/>
<path style=" stroke:none;fill-rule:nonzero;fill:rgb(100%,100%,100%);fill-opacity:1;" d="M 124.433594 85.792969 C 124.433594 89.625 118.683594 89.625 118.683594 85.792969 C 118.683594 81.960938 124.433594 81.960938 124.433594 85.792969 "/>
<path style=" stroke:none;fill-rule:nonzero;fill:rgb(100%,100%,100%);fill-opacity:1;" d="M 340.644531 65.09375 C 340.644531 68.925781 334.894531 68.925781 334.894531 65.09375 C 334.894531 61.257812 340.644531 61.257812 340.644531 65.09375 "/>
<path style=" stroke:none;fill-rule:nonzero;fill:rgb(100%,100%,100%);fill-opacity:1;" d="M 382.621094 231.847656 C 382.621094 235.683594 376.871094 235.683594 376.871094 231.847656 C 376.871094 228.015625 382.621094 228.015625 382.621094 231.847656 "/>
<path style=" stroke:none;fill-rule:nonzero;fill:rgb(100%,100%,100%);fill-opacity:1;" d="M 145.136719 260.601562 C 145.136719 264.433594 139.386719 264.433594 139.386719 260.601562 C 139.386719 256.765625 145.136719 256.765625 145.136719 260.601562 "/>
<path style=" stroke:none;fill-rule:nonzero;fill:rgb(100%,100%,100%);fill-opacity:1;" d="M 211.261719 93.269531 C 211.261719 97.101562 205.511719 97.101562 205.511719 93.269531 C 205.511719 89.433594 211.261719 89.433594 211.261719 93.269531 "/>
<path style=" stroke:none;fill-rule:nonzero;fill:rgb(100%,100%,100%);fill-opacity:1;" d="M 216.4375 438.28125 C 216.4375 442.117188 210.6875 442.117188 210.6875 438.28125 C 210.6875 434.449219 216.4375 434.449219 216.4375 438.28125 "/>
<path style=" stroke:none;fill-rule:nonzero;fill:rgb(100%,100%,100%);fill-opacity:1;" d="M 151.460938 503.835938 C 151.460938 507.667969 145.710938 507.667969 145.710938 503.835938 C 145.710938 500 151.460938 500 151.460938 503.835938 "/>
<path style=" stroke:none;fill-rule:nonzero;fill:rgb(100%,100%,100%);fill-opacity:1;" d="M 122.710938 16.789062 C 122.710938 20.625 116.960938 20.625 116.960938 16.789062 C 116.960938 12.957031 122.710938 12.957031 122.710938 16.789062 "/>
<path style=" stroke:none;fill-rule:nonzero;fill:rgb(100%,100%,100%);fill-opacity:1;" d="M 175.613281 200.222656 C 175.613281 204.054688 169.863281 204.054688 169.863281 200.222656 C 169.863281 196.390625 175.613281 196.390625 175.613281 200.222656 "/>
<path style=" stroke:none;fill-rule:nonzero;fill:rgb(100%,100%,100%);fill-opacity:1;" d="M 437.820312 42.667969 C 437.820312 46.5 432.070312 46.5 432.070312 42.667969 C 432.070312 38.832031 437.820312 38.832031 437.820312 42.667969 "/>
<path style=" stroke:none;fill-rule:nonzero;fill:rgb(100%,100%,100%);fill-opacity:1;" d="M 241.738281 128.921875 C 241.738281 132.753906 235.988281 132.753906 235.988281 128.921875 C 235.988281 125.085938 241.738281 125.085938 241.738281 128.921875 "/>
<path style=" stroke:none;fill-rule:nonzero;fill:rgb(100%,100%,100%);fill-opacity:1;" d="M 447.023438 39.21875 C 447.023438 43.050781 441.273438 43.050781 441.273438 39.21875 C 441.273438 35.382812 447.023438 35.382812 447.023438 39.21875 "/>
<path style=" stroke:none;fill-rule:nonzero;fill:rgb(100%,100%,100%);fill-opacity:1;" d="M 516.601562 154.796875 C 516.601562 158.628906 510.851562 158.628906 510.851562 154.796875 C 510.851562 150.960938 516.601562 150.960938 516.601562 154.796875 "/>
<path style=" stroke:none;fill-rule:nonzero;fill:rgb(100%,100%,100%);fill-opacity:1;" d="M 377.445312 108.21875 C 377.445312 112.050781 371.695312 112.050781 371.695312 108.21875 C 371.695312 104.386719 377.445312 104.386719 377.445312 108.21875 "/>
<path style=" stroke:none;fill-rule:nonzero;fill:rgb(100%,100%,100%);fill-opacity:1;" d="M 195.164062 354.328125 C 195.164062 358.164062 189.414062 358.164062 189.414062 354.328125 C 189.414062 350.496094 195.164062 350.496094 195.164062 354.328125 "/>
<path style=" stroke:none;fill-rule:nonzero;fill:rgb(100%,100%,100%);fill-opacity:1;" d="M 225.640625 402.632812 C 225.640625 406.464844 219.890625 406.464844 219.890625 402.632812 C 219.890625 398.796875 225.640625 398.796875 225.640625 402.632812 "/>
<path style=" stroke:none;fill-rule:nonzero;fill:rgb(100%,100%,100%);fill-opacity:1;" d="M 460.25 513.609375 C 460.25 517.445312 454.496094 517.445312 454.496094 513.609375 C 454.496094 509.777344 460.25 509.777344 460.25 513.609375 "/>
<path style=" stroke:none;fill-rule:nonzero;fill:rgb(100%,100%,100%);fill-opacity:1;" d="M 303.84375 479.683594 C 303.84375 483.515625 298.09375 483.515625 298.09375 479.683594 C 298.09375 475.851562 303.84375 475.851562 303.84375 479.683594 "/>
<path style=" stroke:none;fill-rule:nonzero;fill:rgb(100%,100%,100%);fill-opacity:1;" d="M 172.738281 444.605469 C 172.738281 448.441406 166.988281 448.441406 166.988281 444.605469 C 166.988281 440.773438 172.738281 440.773438 172.738281 444.605469 "/>
<path style=" stroke:none;fill-rule:nonzero;fill:rgb(100%,100%,100%);fill-opacity:1;" d="M 207.8125 186.421875 C 207.8125 190.253906 202.0625 190.253906 202.0625 186.421875 C 202.0625 182.589844 207.8125 182.589844 207.8125 186.421875 "/>
<path style=" stroke:none;fill-rule:nonzero;fill:rgb(100%,100%,100%);fill-opacity:1;" d="M 399.296875 317.527344 C 399.296875 321.359375 393.542969 321.359375 393.542969 317.527344 C 393.542969 313.695312 399.296875 313.695312 399.296875 317.527344 "/>
<path style=" stroke:none;fill-rule:nonzero;fill:rgb(100%,100%,100%);fill-opacity:1;" d="M 343.519531 414.707031 C 343.519531 418.539062 337.769531 418.539062 337.769531 414.707031 C 337.769531 410.871094 343.519531 410.871094 343.519531 414.707031 "/>
<path style=" stroke:none;fill-rule:nonzero;fill:rgb(100%,100%,100%);fill-opacity:1;" d="M 471.171875 90.394531 C 471.171875 94.226562 465.421875 94.226562 465.421875 90.394531 C 465.421875 86.558594 471.171875 86.558594 471.171875 90.394531 "/>
<path style=" stroke:none;fill-rule:nonzero;fill:rgb(100%,84.3%,0%);fill-opacity:1;" d="M 69.234375 463.582031 C 69.234375 467.417969 63.484375 467.417969 63.484375 463.582031 C 63.484375 459.75 69.234375 459.75 69.234375 463.582031 "/>
<path style=" stroke:none;fill-rule:nonzero;fill:rgb(100%,84.3%,0%);fill-opacity:1;" d="M 17.480469 158.820312 C 17.480469 162.65625 11.730469 162.65625 11.730469 158.820312 C 11.730469 154.988281 17.480469 154.988281 17.480469 158.820312 "/>
<path style=" stroke:none;fill-rule:nonzero;fill:rgb(100%,84.3%,0%);fill-opacity:1;" d="M 23.230469 48.417969 C 23.230469 52.25 17.480469 52.25 17.480469 48.417969 C 17.480469 44.582031 23.230469 44.582031 23.230469 48.417969 "/>
<path style=" stroke:none;fill-rule:nonzero;fill:rgb(100%,84.3%,0%);fill-opacity:1;" d="M 28.980469 457.832031 C 28.980469 461.667969 23.230469 461.667969 23.230469 457.832031 C 23.230469 454 28.980469 454 28.980469 457.832031 "/>
<path style=" stroke:none;fill-rule:nonzero;fill:rgb(100%,84.3%,0%);fill-opacity:1;" d="M 94.535156 245.074219 C 94.535156 248.910156 88.785156 248.910156 88.785156 245.074219 C 88.785156 241.242188 94.535156 241.242188 94.535156 245.074219 "/>
<path style=" stroke:none;fill-rule:nonzero;fill:rgb(100%,84.3%,0%);fill-opacity:1;" d="M 94.535156 135.820312 C 94.535156 139.652344 88.785156 139.652344 88.785156 135.820312 C 88.785156 131.988281 94.535156 131.988281 94.535156 135.820312 "/>
<path style=" stroke:none;fill-rule:nonzero;fill:rgb(100%,84.3%,0%);fill-opacity:1;" d="M 17.480469 400.332031 C 17.480469 404.164062 11.730469 404.164062 11.730469 400.332031 C 11.730469 396.496094 17.480469 396.496094 17.480469 400.332031 "/>
<path style=" stroke:none;fill-rule:nonzero;fill:rgb(100%,84.3%,0%);fill-opacity:1;" d="M 94.535156 141.570312 C 94.535156 145.40625 88.785156 145.40625 88.785156 141.570312 C 88.785156 137.738281 94.535156 137.738281 94.535156 141.570312 "/>
<path style=" stroke:none;fill-rule:nonzero;fill:rgb(100%,84.3%,0%);fill-opacity:1;" d="M 17.480469 411.832031 C 17.480469 415.664062 11.730469 415.664062 11.730469 411.832031 C 11.730469 407.996094 17.480469 407.996094 17.480469 411.832031 "/>
<path style=" stroke:none;fill-rule:nonzero;fill:rgb(100%,84.3%,0%);fill-opacity:1;" d="M 17.480469 48.417969 C 17.480469 52.25 11.730469 52.25 11.730469 48.417969 C 11.730469 44.582031 17.480469 44.582031 17.480469 48.417969 "/>
<path style=" stroke:none;fill-rule:nonzero;fill:rgb(100%,84.3%,0%);fill-opacity:1;" d="M 28.980469 463.582031 C 28.980469 467.417969 23.230469 467.417969 23.230469 463.582031 C 23.230469 459.75 28.980469 459.75 28.980469 463.582031 "/>
<path style=" stroke:none;fill-rule:nonzero;fill:rgb(100%,84.3%,0%);fill-opacity:1;" d="M 17.480469 429.082031 C 17.480469 432.914062 11.730469 432.914062 11.730469 429.082031 C 11.730469 425.25 17.480469 425.25 17.480469 429.082031 "/>
<path style=" stroke:none;fill-rule:nonzero;fill:rgb(100%,84.3%,0%);fill-opacity:1;" d="M 94.535156 95.570312 C 94.535156 99.402344 88.785156 99.402344 88.785156 95.570312 C 88.785156 91.734375 94.535156 91.734375 94.535156 95.570312 "/>
<path style=" stroke:none;fill-rule:nonzero;fill:rgb(100%,84.3%,0%);fill-opacity:1;" d="M 94.535156 348.578125 C 94.535156 352.414062 88.785156 352.414062 88.785156 348.578125 C 88.785156 344.746094 94.535156 344.746094 94.535156 348.578125 "/>
<path style=" stroke:none;fill-rule:nonzero;fill:rgb(100%,84.3%,0%);fill-opacity:1;" d="M 17.480469 199.074219 C 17.480469 202.90625 11.730469 202.90625 11.730469 199.074219 C 11.730469 195.238281 17.480469 195.238281 17.480469 199.074219 "/>
<path style=" stroke:none;fill-rule:nonzero;fill:rgb(100%,84.3%,0%);fill-opacity:1;" d="M 94.535156 118.570312 C 94.535156 122.402344 88.785156 122.402344 88.785156 118.570312 C 88.785156 114.738281 94.535156 114.738281 94.535156 118.570312 "/>
<path style=" stroke:none;fill-rule:nonzero;fill:rgb(100%,84.3%,0%);fill-opacity:1;" d="M 94.535156 227.824219 C 94.535156 231.65625 88.785156 231.65625 88.785156 227.824219 C 88.785156 223.992188 94.535156 223.992188 94.535156 227.824219 "/>
<path style=" stroke:none;fill-rule:nonzero;fill:rgb(100%,84.3%,0%);fill-opacity:1;" d="M 17.480469 296.828125 C 17.480469 300.660156 11.730469 300.660156 11.730469 296.828125 C 11.730469 292.992188 17.480469 292.992188 17.480469 296.828125 "/>
<path style=" stroke:none;fill-rule:nonzero;fill:rgb(100%,84.3%,0%);fill-opacity:1;" d="M 17.480469 89.820312 C 17.480469 93.652344 11.730469 93.652344 11.730469 89.820312 C 11.730469 85.984375 17.480469 85.984375 17.480469 89.820312 "/>
<path style=" stroke:none;fill-rule:nonzero;fill:rgb(100%,84.3%,0%);fill-opacity:1;" d="M 94.535156 176.070312 C 94.535156 179.90625 88.785156 179.90625 88.785156 176.070312 C 88.785156 172.238281 94.535156 172.238281 94.535156 176.070312 "/>
<path style=" stroke:none;fill-rule:nonzero;fill:rgb(100%,84.3%,0%);fill-opacity:1;" d="M 40.480469 48.417969 C 40.480469 52.25 34.730469 52.25 34.730469 48.417969 C 34.730469 44.582031 40.480469 44.582031 40.480469 48.417969 "/>
<path style=" stroke:none;fill-rule:nonzero;fill:rgb(100%,84.3%,0%);fill-opacity:1;" d="M 17.480469 170.320312 C 17.480469 174.15625 11.730469 174.15625 11.730469 170.320312 C 11.730469 166.488281 17.480469 166.488281 17.480469 170.320312 "/>
<path style=" stroke:none;fill-rule:nonzero;fill:rgb(100%,84.3%,0%);fill-opacity:1;" d="M 23.230469 457.832031 C 23.230469 461.667969 17.480469 461.667969 17.480469 457.832031 C 17.480469 454 23.230469 454 23.230469 457.832031 "/>
<path style=" stroke:none;fill-rule:nonzero;fill:rgb(100%,84.3%,0%);fill-opacity:1;" d="M 17.480469 124.320312 C 17.480469 128.152344 11.730469 128.152344 11.730469 124.320312 C 11.730469 120.488281 17.480469 120.488281 17.480469 124.320312 "/>
<path style=" stroke:none;fill-rule:nonzero;fill:rgb(100%,84.3%,0%);fill-opacity:1;" d="M 17.480469 446.332031 C 17.480469 450.164062 11.730469 450.164062 11.730469 446.332031 C 11.730469 442.5 17.480469 442.5 17.480469 446.332031 "/>
<path style=" stroke:none;fill-rule:nonzero;fill:rgb(100%,84.3%,0%);fill-opacity:1;" d="M 94.535156 222.074219 C 94.535156 225.90625 88.785156 225.90625 88.785156 222.074219 C 88.785156 218.242188 94.535156 218.242188 94.535156 222.074219 "/>
<path style=" stroke:none;fill-rule:nonzero;fill:rgb(100%,84.3%,0%);fill-opacity:1;" d="M 17.480469 147.320312 C 17.480469 151.15625 11.730469 151.15625 11.730469 147.320312 C 11.730469 143.488281 17.480469 143.488281 17.480469 147.320312 "/>
<path style=" stroke:none;fill-rule:nonzero;fill:rgb(100%,84.3%,0%);fill-opacity:1;" d="M 17.480469 164.570312 C 17.480469 168.40625 11.730469 168.40625 11.730469 164.570312 C 11.730469 160.738281 17.480469 160.738281 17.480469 164.570312 "/>
<path style=" stroke:none;fill-rule:nonzero;fill:rgb(100%,84.3%,0%);fill-opacity:1;" d="M 94.535156 457.832031 C 94.535156 461.667969 88.785156 461.667969 88.785156 457.832031 C 88.785156 454 94.535156 454 94.535156 457.832031 "/>
<path style=" stroke:none;fill-rule:nonzero;fill:rgb(100%,84.3%,0%);fill-opacity:1;" d="M 94.535156 400.332031 C 94.535156 404.164062 88.785156 404.164062 88.785156 400.332031 C 88.785156 396.496094 94.535156 396.496094 94.535156 400.332031 "/>
<path style=" stroke:none;fill-rule:nonzero;fill:rgb(100%,84.3%,0%);fill-opacity:1;" d="M 94.535156 394.578125 C 94.535156 398.414062 88.785156 398.414062 88.785156 394.578125 C 88.785156 390.746094 94.535156 390.746094 94.535156 394.578125 "/>
<path style=" stroke:none;fill-rule:nonzero;fill:rgb(100%,84.3%,0%);fill-opacity:1;" d="M 94.535156 164.570312 C 94.535156 168.40625 88.785156 168.40625 88.785156 164.570312 C 88.785156 160.738281 94.535156 160.738281 94.535156 164.570312 "/>
<path style=" stroke:none;fill-rule:nonzero;fill:rgb(100%,84.3%,0%);fill-opacity:1;" d="M 17.480469 319.828125 C 17.480469 323.660156 11.730469 323.660156 11.730469 319.828125 C 11.730469 315.992188 17.480469 315.992188 17.480469 319.828125 "/>
<path style=" stroke:none;fill-rule:nonzero;fill:rgb(100%,84.3%,0%);fill-opacity:1;" d="M 80.734375 48.417969 C 80.734375 52.25 74.984375 52.25 74.984375 48.417969 C 74.984375 44.582031 80.734375 44.582031 80.734375 48.417969 "/>
<path style=" stroke:none;fill-rule:nonzero;fill:rgb(100%,84.3%,0%);fill-opacity:1;" d="M 17.480469 204.824219 C 17.480469 208.65625 11.730469 208.65625 11.730469 204.824219 C 11.730469 200.988281 17.480469 200.988281 17.480469 204.824219 "/>
<path style=" stroke:none;fill-rule:nonzero;fill:rgb(100%,84.3%,0%);fill-opacity:1;" d="M 94.535156 61.066406 C 94.535156 64.902344 88.785156 64.902344 88.785156 61.066406 C 88.785156 57.234375 94.535156 57.234375 94.535156 61.066406 "/>
<path style=" stroke:none;fill-rule:nonzero;fill:rgb(100%,84.3%,0%);fill-opacity:1;" d="M 17.480469 371.578125 C 17.480469 375.414062 11.730469 375.414062 11.730469 371.578125 C 11.730469 367.746094 17.480469 367.746094 17.480469 371.578125 "/>
<path style=" stroke:none;fill-rule:nonzero;fill:rgb(100%,84.3%,0%);fill-opacity:1;" d="M 94.535156 319.828125 C 94.535156 323.660156 88.785156 323.660156 88.785156 319.828125 C 88.785156 315.992188 94.535156 315.992188 94.535156 319.828125 "/>
<path style=" stroke:none;fill-rule:nonzero;fill:rgb(100%,84.3%,0%);fill-opacity:1;" d="M 34.730469 457.832031 C 34.730469 461.667969 28.980469 461.667969 28.980469 457.832031 C 28.980469 454 34.730469 454 34.730469 457.832031 "/>
<path style=" stroke:none;fill-rule:nonzero;fill:rgb(100%,84.3%,0%);fill-opacity:1;" d="M 94.535156 440.582031 C 94.535156 444.414062 88.785156 444.414062 88.785156 440.582031 C 88.785156 436.75 94.535156 436.75 94.535156 440.582031 "/>
<path style=" stroke:none;fill-rule:nonzero;fill:rgb(100%,84.3%,0%);fill-opacity:1;" d="M 17.480469 176.070312 C 17.480469 179.90625 11.730469 179.90625 11.730469 176.070312 C 11.730469 172.238281 17.480469 172.238281 17.480469 176.070312 "/>
<path style=" stroke:none;fill-rule:nonzero;fill:rgb(100%,84.3%,0%);fill-opacity:1;" d="M 17.480469 112.820312 C 17.480469 116.652344 11.730469 116.652344 11.730469 112.820312 C 11.730469 108.984375 17.480469 108.984375 17.480469 112.820312 "/>
<path style=" stroke:none;fill-rule:nonzero;fill:rgb(100%,84.3%,0%);fill-opacity:1;" d="M 17.480469 239.324219 C 17.480469 243.15625 11.730469 243.15625 11.730469 239.324219 C 11.730469 235.492188 17.480469 235.492188 17.480469 239.324219 "/>
<path style=" stroke:none;fill-rule:nonzero;fill:rgb(100%,84.3%,0%);fill-opacity:1;" d="M 57.730469 457.832031 C 57.730469 461.667969 51.980469 461.667969 51.980469 457.832031 C 51.980469 454 57.730469 454 57.730469 457.832031 "/>
<path style=" stroke:none;fill-rule:nonzero;fill:rgb(100%,84.3%,0%);fill-opacity:1;" d="M 17.480469 337.078125 C 17.480469 340.910156 11.730469 340.910156 11.730469 337.078125 C 11.730469 333.246094 17.480469 333.246094 17.480469 337.078125 "/>
<path style=" stroke:none;fill-rule:nonzero;fill:rgb(100%,84.3%,0%);fill-opacity:1;" d="M 86.484375 463.582031 C 86.484375 467.417969 80.734375 467.417969 80.734375 463.582031 C 80.734375 459.75 86.484375 459.75 86.484375 463.582031 "/>
<path style=" stroke:none;fill-rule:nonzero;fill:rgb(100%,84.3%,0%);fill-opacity:1;" d="M 86.484375 48.417969 C 86.484375 52.25 80.734375 52.25 80.734375 48.417969 C 80.734375 44.582031 86.484375 44.582031 86.484375 48.417969 "/>
<path style=" stroke:none;fill-rule:nonzero;fill:rgb(100%,84.3%,0%);fill-opacity:1;" d="M 94.535156 199.074219 C 94.535156 202.90625 88.785156 202.90625 88.785156 199.074219 C 88.785156 195.238281 94.535156 195.238281 94.535156 199.074219 "/>
<path style=" stroke:none;fill-rule:nonzero;fill:rgb(100%,84.3%,0%);fill-opacity:1;" d="M 94.535156 291.074219 C 94.535156 294.910156 88.785156 294.910156 88.785156 291.074219 C 88.785156 287.242188 94.535156 287.242188 94.535156 291.074219 "/>
<path style=" stroke:none;fill-rule:nonzero;fill:rgb(100%,84.3%,0%);fill-opacity:1;" d="M 17.480469 302.578125 C 17.480469 306.410156 11.730469 306.410156 11.730469 302.578125 C 11.730469 298.742188 17.480469 298.742188 17.480469 302.578125 "/>
<path style=" stroke:none;fill-rule:nonzero;fill:rgb(100%,84.3%,0%);fill-opacity:1;" d="M 17.480469 84.066406 C 17.480469 87.902344 11.730469 87.902344 11.730469 84.066406 C 11.730469 80.234375 17.480469 80.234375 17.480469 84.066406 "/>
<path style=" stroke:none;fill-rule:nonzero;fill:rgb(100%,84.3%,0%);fill-opacity:1;" d="M 17.480469 262.324219 C 17.480469 266.160156 11.730469 266.160156 11.730469 262.324219 C 11.730469 258.492188 17.480469 258.492188 17.480469 262.324219 "/>
<path style=" stroke:none;fill-rule:nonzero;fill:rgb(100%,84.3%,0%);fill-opacity:1;" d="M 46.230469 457.832031 C 46.230469 461.667969 40.480469 461.667969 40.480469 457.832031 C 40.480469 454 46.230469 454 46.230469 457.832031 "/>
<path style=" stroke:none;fill-rule:nonzero;fill:rgb(100%,84.3%,0%);fill-opacity:1;" d="M 17.480469 72.566406 C 17.480469 76.402344 11.730469 76.402344 11.730469 72.566406 C 11.730469 68.734375 17.480469 68.734375 17.480469 72.566406 "/>
<path style=" stroke:none;fill-rule:nonzero;fill:rgb(100%,84.3%,0%);fill-opacity:1;" d="M 17.480469 291.074219 C 17.480469 294.910156 11.730469 294.910156 11.730469 291.074219 C 11.730469 287.242188 17.480469 287.242188 17.480469 291.074219 "/>
<path style=" stroke:none;fill-rule:nonzero;fill:rgb(100%,84.3%,0%);fill-opacity:1;" d="M 17.480469 222.074219 C 17.480469 225.90625 11.730469 225.90625 11.730469 222.074219 C 11.730469 218.242188 17.480469 218.242188 17.480469 222.074219 "/>
<path style=" stroke:none;fill-rule:nonzero;fill:rgb(100%,84.3%,0%);fill-opacity:1;" d="M 94.535156 279.574219 C 94.535156 283.410156 88.785156 283.410156 88.785156 279.574219 C 88.785156 275.742188 94.535156 275.742188 94.535156 279.574219 "/>
<path style=" stroke:none;fill-rule:nonzero;fill:rgb(100%,84.3%,0%);fill-opacity:1;" d="M 94.535156 124.320312 C 94.535156 128.152344 88.785156 128.152344 88.785156 124.320312 C 88.785156 120.488281 94.535156 120.488281 94.535156 124.320312 "/>
<path style=" stroke:none;fill-rule:nonzero;fill:rgb(100%,84.3%,0%);fill-opacity:1;" d="M 94.535156 210.574219 C 94.535156 214.40625 88.785156 214.40625 88.785156 210.574219 C 88.785156 206.738281 94.535156 206.738281 94.535156 210.574219 "/>
<path style=" stroke:none;fill-rule:nonzero;fill:rgb(100%,84.3%,0%);fill-opacity:1;" d="M 17.480469 360.078125 C 17.480469 363.914062 11.730469 363.914062 11.730469 360.078125 C 11.730469 356.246094 17.480469 356.246094 17.480469 360.078125 "/>
<path style=" stroke:none;fill-rule:nonzero;fill:rgb(100%,84.3%,0%);fill-opacity:1;" d="M 94.535156 262.324219 C 94.535156 266.160156 88.785156 266.160156 88.785156 262.324219 C 88.785156 258.492188 94.535156 258.492188 94.535156 262.324219 "/>
<path style=" stroke:none;fill-rule:nonzero;fill:rgb(100%,84.3%,0%);fill-opacity:1;" d="M 94.535156 434.832031 C 94.535156 438.664062 88.785156 438.664062 88.785156 434.832031 C 88.785156 431 94.535156 431 94.535156 434.832031 "/>
<path style=" stroke:none;fill-rule:nonzero;fill:rgb(100%,84.3%,0%);fill-opacity:1;" d="M 40.480469 463.582031 C 40.480469 467.417969 34.730469 467.417969 34.730469 463.582031 C 34.730469 459.75 40.480469 459.75 40.480469 463.582031 "/>
<path style=" stroke:none;fill-rule:nonzero;fill:rgb(100%,84.3%,0%);fill-opacity:1;" d="M 17.480469 394.578125 C 17.480469 398.414062 11.730469 398.414062 11.730469 394.578125 C 11.730469 390.746094 17.480469 390.746094 17.480469 394.578125 "/>
<path style=" stroke:none;fill-rule:nonzero;fill:rgb(100%,84.3%,0%);fill-opacity:1;" d="M 17.480469 135.820312 C 17.480469 139.652344 11.730469 139.652344 11.730469 135.820312 C 11.730469 131.988281 17.480469 131.988281 17.480469 135.820312 "/>
<path style=" stroke:none;fill-rule:nonzero;fill:rgb(100%,84.3%,0%);fill-opacity:1;" d="M 94.535156 423.332031 C 94.535156 427.164062 88.785156 427.164062 88.785156 423.332031 C 88.785156 419.5 94.535156 419.5 94.535156 423.332031 "/>
<path style=" stroke:none;fill-rule:nonzero;fill:rgb(100%,84.3%,0%);fill-opacity:1;" d="M 17.480469 61.066406 C 17.480469 64.902344 11.730469 64.902344 11.730469 61.066406 C 11.730469 57.234375 17.480469 57.234375 17.480469 61.066406 "/>
<path style=" stroke:none;fill-rule:nonzero;fill:rgb(100%,84.3%,0%);fill-opacity:1;" d="M 94.535156 417.582031 C 94.535156 421.414062 88.785156 421.414062 88.785156 417.582031 C 88.785156 413.746094 94.535156 413.746094 94.535156 417.582031 "/>
<path style=" stroke:none;fill-rule:nonzero;fill:rgb(100%,84.3%,0%);fill-opacity:1;" d="M 94.535156 429.082031 C 94.535156 432.914062 88.785156 432.914062 88.785156 429.082031 C 88.785156 425.25 94.535156 425.25 94.535156 429.082031 "/>
<path style=" stroke:none;fill-rule:nonzero;fill:rgb(100%,84.3%,0%);fill-opacity:1;" d="M 94.535156 239.324219 C 94.535156 243.15625 88.785156 243.15625 88.785156 239.324219 C 88.785156 235.492188 94.535156 235.492188 94.535156 239.324219 "/>
<path style=" stroke:none;fill-rule:nonzero;fill:rgb(100%,84.3%,0%);fill-opacity:1;" d="M 94.535156 360.078125 C 94.535156 363.914062 88.785156 363.914062 88.785156 360.078125 C 88.785156 356.246094 94.535156 356.246094 94.535156 360.078125 "/>
<path style=" stroke:none;fill-rule:nonzero;fill:rgb(100%,84.3%,0%);fill-opacity:1;" d="M 94.535156 78.316406 C 94.535156 82.152344 88.785156 82.152344 88.785156 78.316406 C 88.785156 74.484375 94.535156 74.484375 94.535156 78.316406 "/>
<path style=" stroke:none;fill-rule:nonzero;fill:rgb(100%,84.3%,0%);fill-opacity:1;" d="M 94.535156 187.570312 C 94.535156 191.40625 88.785156 191.40625 88.785156 187.570312 C 88.785156 183.738281 94.535156 183.738281 94.535156 187.570312 "/>
<path style=" stroke:none;fill-rule:nonzero;fill:rgb(100%,84.3%,0%);fill-opacity:1;" d="M 40.480469 457.832031 C 40.480469 461.667969 34.730469 461.667969 34.730469 457.832031 C 34.730469 454 40.480469 454 40.480469 457.832031 "/>
<path style=" stroke:none;fill-rule:nonzero;fill:rgb(100%,84.3%,0%);fill-opacity:1;" d="M 94.535156 112.820312 C 94.535156 116.652344 88.785156 116.652344 88.785156 112.820312 C 88.785156 108.984375 94.535156 108.984375 94.535156 112.820312 "/>
<path style=" stroke:none;fill-rule:nonzero;fill:rgb(100%,84.3%,0%);fill-opacity:1;" d="M 94.535156 153.070312 C 94.535156 156.90625 88.785156 156.90625 88.785156 153.070312 C 88.785156 149.238281 94.535156 149.238281 94.535156 153.070312 "/>
<path style=" stroke:none;fill-rule:nonzero;fill:rgb(100%,84.3%,0%);fill-opacity:1;" d="M 94.535156 101.320312 C 94.535156 105.152344 88.785156 105.152344 88.785156 101.320312 C 88.785156 97.484375 94.535156 97.484375 94.535156 101.320312 "/>
<path style=" stroke:none;fill-rule:nonzero;fill:rgb(100%,84.3%,0%);fill-opacity:1;" d="M 17.480469 417.582031 C 17.480469 421.414062 11.730469 421.414062 11.730469 417.582031 C 11.730469 413.746094 17.480469 413.746094 17.480469 417.582031 "/>
<path style=" stroke:none;fill-rule:nonzero;fill:rgb(100%,84.3%,0%);fill-opacity:1;" d="M 17.480469 216.324219 C 17.480469 220.15625 11.730469 220.15625 11.730469 216.324219 C 11.730469 212.488281 17.480469 212.488281 17.480469 216.324219 "/>
<path style=" stroke:none;fill-rule:nonzero;fill:rgb(100%,84.3%,0%);fill-opacity:1;" d="M 51.980469 48.417969 C 51.980469 52.25 46.230469 52.25 46.230469 48.417969 C 46.230469 44.582031 51.980469 44.582031 51.980469 48.417969 "/>
<path style=" stroke:none;fill-rule:nonzero;fill:rgb(100%,84.3%,0%);fill-opacity:1;" d="M 17.480469 256.574219 C 17.480469 260.410156 11.730469 260.410156 11.730469 256.574219 C 11.730469 252.742188 17.480469 252.742188 17.480469 256.574219 "/>
<path style=" stroke:none;fill-rule:nonzero;fill:rgb(100%,84.3%,0%);fill-opacity:1;" d="M 17.480469 55.316406 C 17.480469 59.152344 11.730469 59.152344 11.730469 55.316406 C 11.730469 51.484375 17.480469 51.484375 17.480469 55.316406 "/>
<path style=" stroke:none;fill-rule:nonzero;fill:rgb(100%,84.3%,0%);fill-opacity:1;" d="M 17.480469 308.328125 C 17.480469 312.160156 11.730469 312.160156 11.730469 308.328125 C 11.730469 304.492188 17.480469 304.492188 17.480469 308.328125 "/>
<path style=" stroke:none;fill-rule:nonzero;fill:rgb(100%,84.3%,0%);fill-opacity:1;" d="M 94.535156 130.070312 C 94.535156 133.902344 88.785156 133.902344 88.785156 130.070312 C 88.785156 126.238281 94.535156 126.238281 94.535156 130.070312 "/>
<path style=" stroke:none;fill-rule:nonzero;fill:rgb(100%,84.3%,0%);fill-opacity:1;" d="M 17.480469 130.070312 C 17.480469 133.902344 11.730469 133.902344 11.730469 130.070312 C 11.730469 126.238281 17.480469 126.238281 17.480469 130.070312 "/>
<path style=" stroke:none;fill-rule:nonzero;fill:rgb(100%,84.3%,0%);fill-opacity:1;" d="M 94.535156 388.828125 C 94.535156 392.664062 88.785156 392.664062 88.785156 388.828125 C 88.785156 384.996094 94.535156 384.996094 94.535156 388.828125 "/>
<path style=" stroke:none;fill-rule:nonzero;fill:rgb(100%,84.3%,0%);fill-opacity:1;" d="M 17.480469 118.570312 C 17.480469 122.402344 11.730469 122.402344 11.730469 118.570312 C 11.730469 114.738281 17.480469 114.738281 17.480469 118.570312 "/>
<path style=" stroke:none;fill-rule:nonzero;fill:rgb(100%,84.3%,0%);fill-opacity:1;" d="M 94.535156 406.082031 C 94.535156 409.914062 88.785156 409.914062 88.785156 406.082031 C 88.785156 402.246094 94.535156 402.246094 94.535156 406.082031 "/>
<path style=" stroke:none;fill-rule:nonzero;fill:rgb(100%,84.3%,0%);fill-opacity:1;" d="M 17.480469 348.578125 C 17.480469 352.414062 11.730469 352.414062 11.730469 348.578125 C 11.730469 344.746094 17.480469 344.746094 17.480469 348.578125 "/>
<path style=" stroke:none;fill-rule:nonzero;fill:rgb(100%,84.3%,0%);fill-opacity:1;" d="M 17.480469 101.320312 C 17.480469 105.152344 11.730469 105.152344 11.730469 101.320312 C 11.730469 97.484375 17.480469 97.484375 17.480469 101.320312 "/>
<path style=" stroke:none;fill-rule:nonzero;fill:rgb(100%,84.3%,0%);fill-opacity:1;" d="M 94.535156 107.070312 C 94.535156 110.902344 88.785156 110.902344 88.785156 107.070312 C 88.785156 103.234375 94.535156 103.234375 94.535156 107.070312 "/>
<path style=" stroke:none;fill-rule:nonzero;fill:rgb(100%,84.3%,0%);fill-opacity:1;" d="M 69.234375 48.417969 C 69.234375 52.25 63.484375 52.25 63.484375 48.417969 C 63.484375 44.582031 69.234375 44.582031 69.234375 48.417969 "/>
<path style=" stroke:none;fill-rule:nonzero;fill:rgb(100%,84.3%,0%);fill-opacity:1;" d="M 34.730469 463.582031 C 34.730469 467.417969 28.980469 467.417969 28.980469 463.582031 C 28.980469 459.75 34.730469 459.75 34.730469 463.582031 "/>
<path style=" stroke:none;fill-rule:nonzero;fill:rgb(100%,84.3%,0%);fill-opacity:1;" d="M 94.535156 331.328125 C 94.535156 335.160156 88.785156 335.160156 88.785156 331.328125 C 88.785156 327.496094 94.535156 327.496094 94.535156 331.328125 "/>
<path style=" stroke:none;fill-rule:nonzero;fill:rgb(100%,84.3%,0%);fill-opacity:1;" d="M 17.480469 325.578125 C 17.480469 329.410156 11.730469 329.410156 11.730469 325.578125 C 11.730469 321.746094 17.480469 321.746094 17.480469 325.578125 "/>
<path style=" stroke:none;fill-rule:nonzero;fill:rgb(100%,84.3%,0%);fill-opacity:1;" d="M 17.480469 95.570312 C 17.480469 99.402344 11.730469 99.402344 11.730469 95.570312 C 11.730469 91.734375 17.480469 91.734375 17.480469 95.570312 "/>
<path style=" stroke:none;fill-rule:nonzero;fill:rgb(100%,84.3%,0%);fill-opacity:1;" d="M 94.535156 365.828125 C 94.535156 369.664062 88.785156 369.664062 88.785156 365.828125 C 88.785156 361.996094 94.535156 361.996094 94.535156 365.828125 "/>
<path style=" stroke:none;fill-rule:nonzero;fill:rgb(100%,84.3%,0%);fill-opacity:1;" d="M 17.480469 187.570312 C 17.480469 191.40625 11.730469 191.40625 11.730469 187.570312 C 11.730469 183.738281 17.480469 183.738281 17.480469 187.570312 "/>
<path style=" stroke:none;fill-rule:nonzero;fill:rgb(100%,84.3%,0%);fill-opacity:1;" d="M 17.480469 273.824219 C 17.480469 277.660156 11.730469 277.660156 11.730469 273.824219 C 11.730469 269.992188 17.480469 269.992188 17.480469 273.824219 "/>
<path style=" stroke:none;fill-rule:nonzero;fill:rgb(100%,84.3%,0%);fill-opacity:1;" d="M 94.535156 342.828125 C 94.535156 346.660156 88.785156 346.660156 88.785156 342.828125 C 88.785156 338.996094 94.535156 338.996094 94.535156 342.828125 "/>
<path style=" stroke:none;fill-rule:nonzero;fill:rgb(100%,84.3%,0%);fill-opacity:1;" d="M 94.535156 452.082031 C 94.535156 455.917969 88.785156 455.917969 88.785156 452.082031 C 88.785156 448.25 94.535156 448.25 94.535156 452.082031 "/>
<path style=" stroke:none;fill-rule:nonzero;fill:rgb(100%,84.3%,0%);fill-opacity:1;" d="M 17.480469 365.828125 C 17.480469 369.664062 11.730469 369.664062 11.730469 365.828125 C 11.730469 361.996094 17.480469 361.996094 17.480469 365.828125 "/>
<path style=" stroke:none;fill-rule:nonzero;fill:rgb(100%,84.3%,0%);fill-opacity:1;" d="M 17.480469 452.082031 C 17.480469 455.917969 11.730469 455.917969 11.730469 452.082031 C 11.730469 448.25 17.480469 448.25 17.480469 452.082031 "/>
<path style=" stroke:none;fill-rule:nonzero;fill:rgb(100%,84.3%,0%);fill-opacity:1;" d="M 51.980469 463.582031 C 51.980469 467.417969 46.230469 467.417969 46.230469 463.582031 C 46.230469 459.75 51.980469 459.75 51.980469 463.582031 "/>
<path style=" stroke:none;fill-rule:nonzero;fill:rgb(100%,84.3%,0%);fill-opacity:1;" d="M 94.535156 181.820312 C 94.535156 185.65625 88.785156 185.65625 88.785156 181.820312 C 88.785156 177.988281 94.535156 177.988281 94.535156 181.820312 "/>
<path style=" stroke:none;fill-rule:nonzero;fill:rgb(100%,84.3%,0%);fill-opacity:1;" d="M 17.480469 285.324219 C 17.480469 289.160156 11.730469 289.160156 11.730469 285.324219 C 11.730469 281.492188 17.480469 281.492188 17.480469 285.324219 "/>
<path style=" stroke:none;fill-rule:nonzero;fill:rgb(100%,84.3%,0%);fill-opacity:1;" d="M 17.480469 245.074219 C 17.480469 248.910156 11.730469 248.910156 11.730469 245.074219 C 11.730469 241.242188 17.480469 241.242188 17.480469 245.074219 "/>
<path style=" stroke:none;fill-rule:nonzero;fill:rgb(100%,84.3%,0%);fill-opacity:1;" d="M 17.480469 78.316406 C 17.480469 82.152344 11.730469 82.152344 11.730469 78.316406 C 11.730469 74.484375 17.480469 74.484375 17.480469 78.316406 "/>
<path style=" stroke:none;fill-rule:nonzero;fill:rgb(100%,84.3%,0%);fill-opacity:1;" d="M 17.480469 66.816406 C 17.480469 70.652344 11.730469 70.652344 11.730469 66.816406 C 11.730469 62.984375 17.480469 62.984375 17.480469 66.816406 "/>
<path style=" stroke:none;fill-rule:nonzero;fill:rgb(100%,84.3%,0%);fill-opacity:1;" d="M 94.535156 204.824219 C 94.535156 208.65625 88.785156 208.65625 88.785156 204.824219 C 88.785156 200.988281 94.535156 200.988281 94.535156 204.824219 "/>
<path style=" stroke:none;fill-rule:nonzero;fill:rgb(100%,84.3%,0%);fill-opacity:1;" d="M 63.480469 48.417969 C 63.480469 52.25 57.730469 52.25 57.730469 48.417969 C 57.730469 44.582031 63.480469 44.582031 63.480469 48.417969 "/>
<path style=" stroke:none;fill-rule:nonzero;fill:rgb(100%,84.3%,0%);fill-opacity:1;" d="M 69.234375 457.832031 C 69.234375 461.667969 63.484375 461.667969 63.484375 457.832031 C 63.484375 454 69.234375 454 69.234375 457.832031 "/>
<path style=" stroke:none;fill-rule:nonzero;fill:rgb(100%,84.3%,0%);fill-opacity:1;" d="M 17.480469 440.582031 C 17.480469 444.414062 11.730469 444.414062 11.730469 440.582031 C 11.730469 436.75 17.480469 436.75 17.480469 440.582031 "/>
<path style=" stroke:none;fill-rule:nonzero;fill:rgb(100%,84.3%,0%);fill-opacity:1;" d="M 94.535156 256.574219 C 94.535156 260.410156 88.785156 260.410156 88.785156 256.574219 C 88.785156 252.742188 94.535156 252.742188 94.535156 256.574219 "/>
<path style=" stroke:none;fill-rule:nonzero;fill:rgb(100%,84.3%,0%);fill-opacity:1;" d="M 94.535156 308.328125 C 94.535156 312.160156 88.785156 312.160156 88.785156 308.328125 C 88.785156 304.492188 94.535156 304.492188 94.535156 308.328125 "/>
<path style=" stroke:none;fill-rule:nonzero;fill:rgb(100%,84.3%,0%);fill-opacity:1;" d="M 17.480469 210.574219 C 17.480469 214.40625 11.730469 214.40625 11.730469 210.574219 C 11.730469 206.738281 17.480469 206.738281 17.480469 210.574219 "/>
<path style=" stroke:none;fill-rule:nonzero;fill:rgb(100%,84.3%,0%);fill-opacity:1;" d="M 94.535156 89.820312 C 94.535156 93.652344 88.785156 93.652344 88.785156 89.820312 C 88.785156 85.984375 94.535156 85.984375 94.535156 89.820312 "/>
<path style=" stroke:none;fill-rule:nonzero;fill:rgb(100%,84.3%,0%);fill-opacity:1;" d="M 94.535156 296.828125 C 94.535156 300.660156 88.785156 300.660156 88.785156 296.828125 C 88.785156 292.992188 94.535156 292.992188 94.535156 296.828125 "/>
<path style=" stroke:none;fill-rule:nonzero;fill:rgb(100%,84.3%,0%);fill-opacity:1;" d="M 17.480469 331.328125 C 17.480469 335.160156 11.730469 335.160156 11.730469 331.328125 C 11.730469 327.496094 17.480469 327.496094 17.480469 331.328125 "/>
<path style=" stroke:none;fill-rule:nonzero;fill:rgb(100%,84.3%,0%);fill-opacity:1;" d="M 17.480469 457.832031 C 17.480469 461.667969 11.730469 461.667969 11.730469 457.832031 C 11.730469 454 17.480469 454 17.480469 457.832031 "/>
<path style=" stroke:none;fill-rule:nonzero;fill:rgb(100%,84.3%,0%);fill-opacity:1;" d="M 74.984375 463.582031 C 74.984375 467.417969 69.234375 467.417969 69.234375 463.582031 C 69.234375 459.75 74.984375 459.75 74.984375 463.582031 "/>
<path style=" stroke:none;fill-rule:nonzero;fill:rgb(100%,84.3%,0%);fill-opacity:1;" d="M 46.230469 463.582031 C 46.230469 467.417969 40.480469 467.417969 40.480469 463.582031 C 40.480469 459.75 46.230469 459.75 46.230469 463.582031 "/>
<path style=" stroke:none;fill-rule:nonzero;fill:rgb(100%,84.3%,0%);fill-opacity:1;" d="M 94.535156 55.316406 C 94.535156 59.152344 88.785156 59.152344 88.785156 55.316406 C 88.785156 51.484375 94.535156 51.484375 94.535156 55.316406 "/>
<path style=" stroke:none;fill-rule:nonzero;fill:rgb(100%,84.3%,0%);fill-opacity:1;" d="M 17.480469 383.078125 C 17.480469 386.914062 11.730469 386.914062 11.730469 383.078125 C 11.730469 379.246094 17.480469 379.246094 17.480469 383.078125 "/>
<path style=" stroke:none;fill-rule:nonzero;fill:rgb(100%,84.3%,0%);fill-opacity:1;" d="M 94.535156 233.574219 C 94.535156 237.40625 88.785156 237.40625 88.785156 233.574219 C 88.785156 229.742188 94.535156 229.742188 94.535156 233.574219 "/>
<path style=" stroke:none;fill-rule:nonzero;fill:rgb(100%,84.3%,0%);fill-opacity:1;" d="M 94.535156 193.324219 C 94.535156 197.15625 88.785156 197.15625 88.785156 193.324219 C 88.785156 189.488281 94.535156 189.488281 94.535156 193.324219 "/>
<path style=" stroke:none;fill-rule:nonzero;fill:rgb(100%,84.3%,0%);fill-opacity:1;" d="M 94.535156 268.074219 C 94.535156 271.910156 88.785156 271.910156 88.785156 268.074219 C 88.785156 264.242188 94.535156 264.242188 94.535156 268.074219 "/>
<path style=" stroke:none;fill-rule:nonzero;fill:rgb(100%,84.3%,0%);fill-opacity:1;" d="M 94.535156 250.824219 C 94.535156 254.660156 88.785156 254.660156 88.785156 250.824219 C 88.785156 246.992188 94.535156 246.992188 94.535156 250.824219 "/>
<path style=" stroke:none;fill-rule:nonzero;fill:rgb(100%,84.3%,0%);fill-opacity:1;" d="M 34.730469 48.417969 C 34.730469 52.25 28.980469 52.25 28.980469 48.417969 C 28.980469 44.582031 34.730469 44.582031 34.730469 48.417969 "/>
<path style=" stroke:none;fill-rule:nonzero;fill:rgb(100%,84.3%,0%);fill-opacity:1;" d="M 92.234375 48.417969 C 92.234375 52.25 86.484375 52.25 86.484375 48.417969 C 86.484375 44.582031 92.234375 44.582031 92.234375 48.417969 "/>
<path style=" stroke:none;fill-rule:nonzero;fill:rgb(100%,84.3%,0%);fill-opacity:1;" d="M 17.480469 268.074219 C 17.480469 271.910156 11.730469 271.910156 11.730469 268.074219 C 11.730469 264.242188 17.480469 264.242188 17.480469 268.074219 "/>
<path style=" stroke:none;fill-rule:nonzero;fill:rgb(100%,84.3%,0%);fill-opacity:1;" d="M 94.535156 371.578125 C 94.535156 375.414062 88.785156 375.414062 88.785156 371.578125 C 88.785156 367.746094 94.535156 367.746094 94.535156 371.578125 "/>
<path style=" stroke:none;fill-rule:nonzero;fill:rgb(100%,84.3%,0%);fill-opacity:1;" d="M 94.535156 337.078125 C 94.535156 340.910156 88.785156 340.910156 88.785156 337.078125 C 88.785156 333.246094 94.535156 333.246094 94.535156 337.078125 "/>
<path style=" stroke:none;fill-rule:nonzero;fill:rgb(100%,84.3%,0%);fill-opacity:1;" d="M 17.480469 233.574219 C 17.480469 237.40625 11.730469 237.40625 11.730469 233.574219 C 11.730469 229.742188 17.480469 229.742188 17.480469 233.574219 "/>
<path style=" stroke:none;fill-rule:nonzero;fill:rgb(100%,84.3%,0%);fill-opacity:1;" d="M 94.535156 72.566406 C 94.535156 76.402344 88.785156 76.402344 88.785156 72.566406 C 88.785156 68.734375 94.535156 68.734375 94.535156 72.566406 "/>
<path style=" stroke:none;fill-rule:nonzero;fill:rgb(100%,84.3%,0%);fill-opacity:1;" d="M 80.734375 463.582031 C 80.734375 467.417969 74.984375 467.417969 74.984375 463.582031 C 74.984375 459.75 80.734375 459.75 80.734375 463.582031 "/>
<path style=" stroke:none;fill-rule:nonzero;fill:rgb(100%,84.3%,0%);fill-opacity:1;" d="M 17.480469 434.832031 C 17.480469 438.664062 11.730469 438.664062 11.730469 434.832031 C 11.730469 431 17.480469 431 17.480469 434.832031 "/>
<path style=" stroke:none;fill-rule:nonzero;fill:rgb(100%,84.3%,0%);fill-opacity:1;" d="M 94.535156 383.078125 C 94.535156 386.914062 88.785156 386.914062 88.785156 383.078125 C 88.785156 379.246094 94.535156 379.246094 94.535156 383.078125 "/>
<path style=" stroke:none;fill-rule:nonzero;fill:rgb(100%,84.3%,0%);fill-opacity:1;" d="M 46.230469 48.417969 C 46.230469 52.25 40.480469 52.25 40.480469 48.417969 C 40.480469 44.582031 46.230469 44.582031 46.230469 48.417969 "/>
<path style=" stroke:none;fill-rule:nonzero;fill:rgb(100%,84.3%,0%);fill-opacity:1;" d="M 17.480469 406.082031 C 17.480469 409.914062 11.730469 409.914062 11.730469 406.082031 C 11.730469 402.246094 17.480469 402.246094 17.480469 406.082031 "/>
<path style=" stroke:none;fill-rule:nonzero;fill:rgb(100%,84.3%,0%);fill-opacity:1;" d="M 17.480469 279.574219 C 17.480469 283.410156 11.730469 283.410156 11.730469 279.574219 C 11.730469 275.742188 17.480469 275.742188 17.480469 279.574219 "/>
<path style=" stroke:none;fill-rule:nonzero;fill:rgb(100%,84.3%,0%);fill-opacity:1;" d="M 17.480469 141.570312 C 17.480469 145.40625 11.730469 145.40625 11.730469 141.570312 C 11.730469 137.738281 17.480469 137.738281 17.480469 141.570312 "/>
<path style=" stroke:none;fill-rule:nonzero;fill:rgb(100%,84.3%,0%);fill-opacity:1;" d="M 17.480469 423.332031 C 17.480469 427.164062 11.730469 427.164062 11.730469 423.332031 C 11.730469 419.5 17.480469 419.5 17.480469 423.332031 "/>
<path style=" stroke:none;fill-rule:nonzero;fill:rgb(100%,84.3%,0%);fill-opacity:1;" d="M 17.480469 314.078125 C 17.480469 317.910156 11.730469 317.910156 11.730469 314.078125 C 11.730469 310.242188 17.480469 310.242188 17.480469 314.078125 "/>
<path style=" stroke:none;fill-rule:nonzero;fill:rgb(100%,84.3%,0%);fill-opacity:1;" d="M 57.730469 463.582031 C 57.730469 467.417969 51.980469 467.417969 51.980469 463.582031 C 51.980469 459.75 57.730469 459.75 57.730469 463.582031 "/>
<path style=" stroke:none;fill-rule:nonzero;fill:rgb(100%,84.3%,0%);fill-opacity:1;" d="M 17.480469 463.582031 C 17.480469 467.417969 11.730469 467.417969 11.730469 463.582031 C 11.730469 459.75 17.480469 459.75 17.480469 463.582031 "/>
<path style=" stroke:none;fill-rule:nonzero;fill:rgb(100%,84.3%,0%);fill-opacity:1;" d="M 94.535156 216.324219 C 94.535156 220.15625 88.785156 220.15625 88.785156 216.324219 C 88.785156 212.488281 94.535156 212.488281 94.535156 216.324219 "/>
<path style=" stroke:none;fill-rule:nonzero;fill:rgb(100%,84.3%,0%);fill-opacity:1;" d="M 94.535156 302.578125 C 94.535156 306.410156 88.785156 306.410156 88.785156 302.578125 C 88.785156 298.742188 94.535156 298.742188 94.535156 302.578125 "/>
<path style=" stroke:none;fill-rule:nonzero;fill:rgb(100%,84.3%,0%);fill-opacity:1;" d="M 94.535156 84.066406 C 94.535156 87.902344 88.785156 87.902344 88.785156 84.066406 C 88.785156 80.234375 94.535156 80.234375 94.535156 84.066406 "/>
<path style=" stroke:none;fill-rule:nonzero;fill:rgb(100%,84.3%,0%);fill-opacity:1;" d="M 94.535156 377.328125 C 94.535156 381.164062 88.785156 381.164062 88.785156 377.328125 C 88.785156 373.496094 94.535156 373.496094 94.535156 377.328125 "/>
<path style=" stroke:none;fill-rule:nonzero;fill:rgb(100%,84.3%,0%);fill-opacity:1;" d="M 17.480469 388.828125 C 17.480469 392.664062 11.730469 392.664062 11.730469 388.828125 C 11.730469 384.996094 17.480469 384.996094 17.480469 388.828125 "/>
<path style=" stroke:none;fill-rule:nonzero;fill:rgb(100%,84.3%,0%);fill-opacity:1;" d="M 17.480469 342.828125 C 17.480469 346.660156 11.730469 346.660156 11.730469 342.828125 C 11.730469 338.996094 17.480469 338.996094 17.480469 342.828125 "/>
<path style=" stroke:none;fill-rule:nonzero;fill:rgb(100%,84.3%,0%);fill-opacity:1;" d="M 17.480469 250.824219 C 17.480469 254.660156 11.730469 254.660156 11.730469 250.824219 C 11.730469 246.992188 17.480469 246.992188 17.480469 250.824219 "/>
<path style=" stroke:none;fill-rule:nonzero;fill:rgb(100%,84.3%,0%);fill-opacity:1;" d="M 94.535156 147.320312 C 94.535156 151.15625 88.785156 151.15625 88.785156 147.320312 C 88.785156 143.488281 94.535156 143.488281 94.535156 147.320312 "/>
<path style=" stroke:none;fill-rule:nonzero;fill:rgb(100%,84.3%,0%);fill-opacity:1;" d="M 17.480469 193.324219 C 17.480469 197.15625 11.730469 197.15625 11.730469 193.324219 C 11.730469 189.488281 17.480469 189.488281 17.480469 193.324219 "/>
<path style=" stroke:none;fill-rule:nonzero;fill:rgb(100%,84.3%,0%);fill-opacity:1;" d="M 17.480469 107.070312 C 17.480469 110.902344 11.730469 110.902344 11.730469 107.070312 C 11.730469 103.234375 17.480469 103.234375 17.480469 107.070312 "/>
<path style=" stroke:none;fill-rule:nonzero;fill:rgb(100%,84.3%,0%);fill-opacity:1;" d="M 63.480469 463.582031 C 63.480469 467.417969 57.730469 467.417969 57.730469 463.582031 C 57.730469 459.75 63.480469 459.75 63.480469 463.582031 "/>
<path style=" stroke:none;fill-rule:nonzero;fill:rgb(100%,84.3%,0%);fill-opacity:1;" d="M 17.480469 153.070312 C 17.480469 156.90625 11.730469 156.90625 11.730469 153.070312 C 11.730469 149.238281 17.480469 149.238281 17.480469 153.070312 "/>
<path style=" stroke:none;fill-rule:nonzero;fill:rgb(100%,84.3%,0%);fill-opacity:1;" d="M 94.535156 66.816406 C 94.535156 70.652344 88.785156 70.652344 88.785156 66.816406 C 88.785156 62.984375 94.535156 62.984375 94.535156 66.816406 "/>
<path style=" stroke:none;fill-rule:nonzero;fill:rgb(100%,84.3%,0%);fill-opacity:1;" d="M 17.480469 354.328125 C 17.480469 358.164062 11.730469 358.164062 11.730469 354.328125 C 11.730469 350.496094 17.480469 350.496094 17.480469 354.328125 "/>
<path style=" stroke:none;fill-rule:nonzero;fill:rgb(100%,84.3%,0%);fill-opacity:1;" d="M 94.535156 314.078125 C 94.535156 317.910156 88.785156 317.910156 88.785156 314.078125 C 88.785156 310.242188 94.535156 310.242188 94.535156 314.078125 "/>
<path style=" stroke:none;fill-rule:nonzero;fill:rgb(100%,84.3%,0%);fill-opacity:1;" d="M 94.535156 158.820312 C 94.535156 162.65625 88.785156 162.65625 88.785156 158.820312 C 88.785156 154.988281 94.535156 154.988281 94.535156 158.820312 "/>
<path style=" stroke:none;fill-rule:nonzero;fill:rgb(100%,84.3%,0%);fill-opacity:1;" d="M 17.480469 377.328125 C 17.480469 381.164062 11.730469 381.164062 11.730469 377.328125 C 11.730469 373.496094 17.480469 373.496094 17.480469 377.328125 "/>
<path style=" stroke:none;fill-rule:nonzero;fill:rgb(100%,84.3%,0%);fill-opacity:1;" d="M 94.535156 170.320312 C 94.535156 174.15625 88.785156 174.15625 88.785156 170.320312 C 88.785156 166.488281 94.535156 166.488281 94.535156 170.320312 "/>
<path style=" stroke:none;fill-rule:nonzero;fill:rgb(100%,84.3%,0%);fill-opacity:1;" d="M 94.535156 285.324219 C 94.535156 289.160156 88.785156 289.160156 88.785156 285.324219 C 88.785156 281.492188 94.535156 281.492188 94.535156 285.324219 "/>
<path style=" stroke:none;fill-rule:nonzero;fill:rgb(100%,84.3%,0%);fill-opacity:1;" d="M 28.980469 48.417969 C 28.980469 52.25 23.230469 52.25 23.230469 48.417969 C 23.230469 44.582031 28.980469 44.582031 28.980469 48.417969 "/>
<path style=" stroke:none;fill-rule:nonzero;fill:rgb(100%,84.3%,0%);fill-opacity:1;" d="M 94.535156 273.824219 C 94.535156 277.660156 88.785156 277.660156 88.785156 273.824219 C 88.785156 269.992188 94.535156 269.992188 94.535156 273.824219 "/>
<path style=" stroke:none;fill-rule:nonzero;fill:rgb(100%,84.3%,0%);fill-opacity:1;" d="M 23.230469 463.582031 C 23.230469 467.417969 17.480469 467.417969 17.480469 463.582031 C 17.480469 459.75 23.230469 459.75 23.230469 463.582031 "/>
<path style=" stroke:none;fill-rule:nonzero;fill:rgb(100%,84.3%,0%);fill-opacity:1;" d="M 94.535156 446.332031 C 94.535156 450.164062 88.785156 450.164062 88.785156 446.332031 C 88.785156 442.5 94.535156 442.5 94.535156 446.332031 "/>
<path style=" stroke:none;fill-rule:nonzero;fill:rgb(100%,84.3%,0%);fill-opacity:1;" d="M 17.480469 181.820312 C 17.480469 185.65625 11.730469 185.65625 11.730469 181.820312 C 11.730469 177.988281 17.480469 177.988281 17.480469 181.820312 "/>
<path style=" stroke:none;fill-rule:nonzero;fill:rgb(100%,84.3%,0%);fill-opacity:1;" d="M 94.535156 411.832031 C 94.535156 415.664062 88.785156 415.664062 88.785156 411.832031 C 88.785156 407.996094 94.535156 407.996094 94.535156 411.832031 "/>
<path style=" stroke:none;fill-rule:nonzero;fill:rgb(100%,84.3%,0%);fill-opacity:1;" d="M 57.730469 48.417969 C 57.730469 52.25 51.980469 52.25 51.980469 48.417969 C 51.980469 44.582031 57.730469 44.582031 57.730469 48.417969 "/>
<path style=" stroke:none;fill-rule:nonzero;fill:rgb(100%,84.3%,0%);fill-opacity:1;" d="M 74.984375 48.417969 C 74.984375 52.25 69.234375 52.25 69.234375 48.417969 C 69.234375 44.582031 74.984375 44.582031 74.984375 48.417969 "/>
<path style=" stroke:none;fill-rule:nonzero;fill:rgb(100%,84.3%,0%);fill-opacity:1;" d="M 17.480469 227.824219 C 17.480469 231.65625 11.730469 231.65625 11.730469 227.824219 C 11.730469 223.992188 17.480469 223.992188 17.480469 227.824219 "/>
<path style=" stroke:none;fill-rule:nonzero;fill:rgb(100%,84.3%,0%);fill-opacity:1;" d="M 94.535156 354.328125 C 94.535156 358.164062 88.785156 358.164062 88.785156 354.328125 C 88.785156 350.496094 94.535156 350.496094 94.535156 354.328125 "/>
<path style=" stroke:none;fill-rule:nonzero;fill:rgb(100%,84.3%,0%);fill-opacity:1;" d="M 51.980469 457.832031 C 51.980469 461.667969 46.230469 461.667969 46.230469 457.832031 C 46.230469 454 51.980469 454 51.980469 457.832031 "/>
<path style=" stroke:none;fill-rule:nonzero;fill:rgb(100%,84.3%,0%);fill-opacity:1;" d="M 92.234375 463.582031 C 92.234375 467.417969 86.484375 467.417969 86.484375 463.582031 C 86.484375 459.75 92.234375 459.75 92.234375 463.582031 "/>
<path style=" stroke:none;fill-rule:nonzero;fill:rgb(100%,84.3%,0%);fill-opacity:1;" d="M 63.480469 457.832031 C 63.480469 461.667969 57.730469 461.667969 57.730469 457.832031 C 57.730469 454 63.480469 454 63.480469 457.832031 "/>
<path style=" stroke:none;fill-rule:nonzero;fill:rgb(100%,84.3%,0%);fill-opacity:1;" d="M 94.535156 325.578125 C 94.535156 329.410156 88.785156 329.410156 88.785156 325.578125 C 88.785156 321.746094 94.535156 321.746094 94.535156 325.578125 "/>
</g>
</svg>
