<?xml version="1.0" encoding="UTF-8"?>
<svg xmlns="http://www.w3.org/2000/svg" xmlns:xlink="http://www.w3.org/1999/xlink" width="512pt" height="512pt" viewBox="0 0 512 512" version="1.1">
<g id="surface156">
<rect x="0" y="0" width="512" height="512" style="fill:rgb(26.7%,26.7%,26.7%);fill-opacity:1;stroke:none;"/>
<path style=" stroke:none;fill-rule:nonzero;fill:rgb(19.2%,38.8%,66.7%);fill-opacity:1;" d="M 42.667969 102.601562 L 469.332031 102.601562 L 469.332031 474.78125 L 42.667969 474.78125 Z M 42.667969 102.601562 "/>
<path style=" stroke:none;fill-rule:nonzero;fill:rgb(90.6%,14.9%,14.9%);fill-opacity:1;" d="M 38.972656 303.007812 C 38.972656 342.28125 7.132812 374.117188 -32.140625 374.117188 C -71.414062 374.117188 -103.25 342.28125 -103.25 303.007812 C -103.25 263.734375 -71.414062 231.894531 -32.140625 231.894531 C 7.132812 231.894531 38.972656 263.734375 38.972656 303.007812 "/>
<path style=" stroke:none;fill-rule:nonzero;fill:rgb(90.6%,14.9%,14.9%);fill-opacity:1;" d="M 328.035156 23.179688 C 328.035156 62.964844 295.785156 95.214844 256 95.214844 C 216.214844 95.214844 183.964844 62.964844 183.964844 23.179688 C 183.964844 -16.605469 216.214844 -48.855469 256 -48.855469 C 295.785156 -48.855469 328.035156 -16.605469 328.035156 23.179688 "/>
<path style=" stroke:none;fill-rule:nonzero;fill:rgb(90.6%,14.9%,14.9%);fill-opacity:1;" d="M 30.660156 363.035156 C 30.660156 401.800781 -0.761719 433.222656 -39.527344 433.222656 C -78.289062 433.222656 -109.714844 401.800781 -109.714844 363.035156 C -109.714844 324.273438 -78.289062 292.847656 -39.527344 292.847656 C -0.761719 292.847656 30.660156 324.273438 30.660156 363.035156 "/>
<path style=" stroke:none;fill-rule:nonzero;fill:rgb(90.6%,14.9%,14.9%);fill-opacity:1;" d="M 400.070312 541.277344 C 400.070312 560.148438 384.769531 575.445312 365.898438 575.445312 C 347.027344 575.445312 331.730469 560.148438 331.730469 541.277344 C 331.730469 522.402344 347.027344 507.105469 365.898438 507.105469 C 384.769531 507.105469 400.070312 522.402344 400.070312 541.277344 "/>
<path style=" stroke:none;fill-rule:nonzero;fill:rgb(90.6%,14.9%,14.9%);fill-opacity:1;" d="M 263.386719 84.132812 C 263.386719 88.214844 260.082031 91.519531 256 91.519531 C 251.917969 91.519531 248.613281 88.214844 248.613281 84.132812 C 248.613281 80.050781 251.917969 76.746094 256 76.746094 C 260.082031 76.746094 263.386719 80.050781 263.386719 84.132812 "/>
<path style=" stroke:none;fill-rule:nonzero;fill:rgb(90.6%,14.9%,14.9%);fill-opacity:1;" d="M 624.484375 203.265625 C 624.484375 244.582031 590.992188 278.070312 549.679688 278.070312 C 508.367188 278.070312 474.875 244.582031 474.875 203.265625 C 474.875 161.953125 508.367188 128.460938 549.679688 128.460938 C 590.992188 128.460938 624.484375 161.953125 624.484375 203.265625 "/>
<path style=" stroke:none;fill-rule:nonzero;fill:rgb(100%,100%,100%);fill-opacity:1;" d="M 42.667969 94.289062 C 42.667969 100.449219 33.429688 100.449219 33.429688 94.289062 C 33.429688 88.132812 42.667969 88.132812 42.667969 94.289062 "/>
<path style=" stroke:none;fill-rule:nonzero;fill:rgb(100%,100%,100%);fill-opacity:1;" d="M 195.046875 481.246094 C 195.046875 487.402344 185.8125 487.402344 185.8125 481.246094 C 185.8125 475.089844 195.046875 475.089844 195.046875 481.246094 "/>
<path style=" stroke:none;fill-rule:nonzero;fill:rgb(100%,100%,100%);fill-opacity:1;" d="M 501.65625 427.683594 C 501.65625 433.839844 492.421875 433.839844 492.421875 427.683594 C 492.421875 421.527344 501.65625 421.527344 501.65625 427.683594 "/>
<path style=" stroke:none;fill-rule:nonzero;fill:rgb(100%,100%,100%);fill-opacity:1;" d="M 378.828125 37.03125 C 378.828125 43.191406 369.59375 43.191406 369.59375 37.03125 C 369.59375 30.875 378.828125 30.875 378.828125 37.03125 "/>
<path style=" stroke:none;fill-rule:nonzero;fill:rgb(100%,100%,100%);fill-opacity:1;" d="M 420.386719 477.554688 C 420.386719 483.710938 411.152344 483.710938 411.152344 477.554688 C 411.152344 471.394531 420.386719 471.394531 420.386719 477.554688 "/>
<path style=" stroke:none;fill-rule:nonzero;fill:rgb(100%,100%,100%);fill-opacity:1;" d="M 474.875 455.386719 C 474.875 461.542969 465.640625 461.542969 465.640625 455.386719 C 465.640625 449.230469 474.875 449.230469 474.875 455.386719 "/>
<path style=" stroke:none;fill-rule:nonzero;fill:rgb(100%,84.3%,0%);fill-opacity:1;" d="M 464.714844 410.136719 C 464.714844 416.292969 455.480469 416.292969 455.480469 410.136719 C 455.480469 403.980469 464.714844 403.980469 464.714844 410.136719 "/>
<path style=" stroke:none;fill-rule:nonzero;fill:rgb(100%,84.3%,0%);fill-opacity:1;" d="M 416.691406 465.546875 C 416.691406 471.703125 407.457031 471.703125 407.457031 465.546875 C 407.457031 459.390625 416.691406 459.390625 416.691406 465.546875 "/>
<path style=" stroke:none;fill-rule:nonzero;fill:rgb(100%,84.3%,0%);fill-opacity:1;" d="M 139.636719 465.546875 C 139.636719 471.703125 130.402344 471.703125 130.402344 465.546875 C 130.402344 459.390625 139.636719 459.390625 139.636719 465.546875 "/>
<path style=" stroke:none;fill-rule:nonzero;fill:rgb(100%,84.3%,0%);fill-opacity:1;" d="M 56.519531 111.839844 C 56.519531 117.996094 47.285156 117.996094 47.285156 111.839844 C 47.285156 105.679688 56.519531 105.679688 56.519531 111.839844 "/>
<path style=" stroke:none;fill-rule:nonzero;fill:rgb(100%,84.3%,0%);fill-opacity:1;" d="M 425.925781 111.839844 C 425.925781 117.996094 416.691406 117.996094 416.691406 111.839844 C 416.691406 105.679688 425.925781 105.679688 425.925781 111.839844 "/>
<path style=" stroke:none;fill-rule:nonzero;fill:rgb(100%,84.3%,0%);fill-opacity:1;" d="M 464.714844 428.605469 C 464.714844 434.761719 455.480469 434.761719 455.480469 428.605469 C 455.480469 422.449219 464.714844 422.449219 464.714844 428.605469 "/>
<path style=" stroke:none;fill-rule:nonzero;fill:rgb(100%,84.3%,0%);fill-opacity:1;" d="M 464.714844 419.371094 C 464.714844 425.527344 455.480469 425.527344 455.480469 419.371094 C 455.480469 413.214844 464.714844 413.214844 464.714844 419.371094 "/>
<path style=" stroke:none;fill-rule:nonzero;fill:rgb(100%,84.3%,0%);fill-opacity:1;" d="M 195.046875 465.546875 C 195.046875 471.703125 185.8125 471.703125 185.8125 465.546875 C 185.8125 459.390625 195.046875 459.390625 195.046875 465.546875 "/>
<path style=" stroke:none;fill-rule:nonzero;fill:rgb(100%,84.3%,0%);fill-opacity:1;" d="M 464.714844 400.898438 C 464.714844 407.058594 455.480469 407.058594 455.480469 400.898438 C 455.480469 394.742188 464.714844 394.742188 464.714844 400.898438 "/>
<path style=" stroke:none;fill-rule:nonzero;fill:rgb(100%,84.3%,0%);fill-opacity:1;" d="M 416.691406 111.839844 C 416.691406 117.996094 407.457031 117.996094 407.457031 111.839844 C 407.457031 105.679688 416.691406 105.679688 416.691406 111.839844 "/>
<path style=" stroke:none;fill-rule:nonzero;fill:rgb(100%,84.3%,0%);fill-opacity:1;" d="M 84.226562 428.605469 C 84.226562 434.761719 74.992188 434.761719 74.992188 428.605469 C 74.992188 422.449219 84.226562 422.449219 84.226562 428.605469 "/>
<path style=" stroke:none;fill-rule:nonzero;fill:rgb(100%,84.3%,0%);fill-opacity:1;" d="M 453.632812 111.839844 C 453.632812 117.996094 444.398438 117.996094 444.398438 111.839844 C 444.398438 105.679688 453.632812 105.679688 453.632812 111.839844 "/>
<path style=" stroke:none;fill-rule:nonzero;fill:rgb(100%,84.3%,0%);fill-opacity:1;" d="M 56.519531 400.898438 C 56.519531 407.058594 47.285156 407.058594 47.285156 400.898438 C 47.285156 394.742188 56.519531 394.742188 56.519531 400.898438 "/>
<path style=" stroke:none;fill-rule:nonzero;fill:rgb(100%,84.3%,0%);fill-opacity:1;" d="M 93.460938 428.605469 C 93.460938 434.761719 84.226562 434.761719 84.226562 428.605469 C 84.226562 422.449219 93.460938 422.449219 93.460938 428.605469 "/>
<path style=" stroke:none;fill-rule:nonzero;fill:rgb(100%,84.3%,0%);fill-opacity:1;" d="M 425.925781 465.546875 C 425.925781 471.703125 416.691406 471.703125 416.691406 465.546875 C 416.691406 459.390625 425.925781 459.390625 425.925781 465.546875 "/>
<path style=" stroke:none;fill-rule:nonzero;fill:rgb(100%,84.3%,0%);fill-opacity:1;" d="M 56.519531 179.253906 C 56.519531 185.410156 47.285156 185.410156 47.285156 179.253906 C 47.285156 173.097656 56.519531 173.097656 56.519531 179.253906 "/>
<path style=" stroke:none;fill-rule:nonzero;fill:rgb(100%,84.3%,0%);fill-opacity:1;" d="M 204.28125 465.546875 C 204.28125 471.703125 195.046875 471.703125 195.046875 465.546875 C 195.046875 459.390625 204.28125 459.390625 204.28125 465.546875 "/>
<path style=" stroke:none;fill-rule:nonzero;fill:rgb(100%,84.3%,0%);fill-opacity:1;" d="M 464.714844 363.960938 C 464.714844 370.117188 455.480469 370.117188 455.480469 363.960938 C 455.480469 357.804688 464.714844 357.804688 464.714844 363.960938 "/>
<path style=" stroke:none;fill-rule:nonzero;fill:rgb(100%,84.3%,0%);fill-opacity:1;" d="M 74.988281 428.605469 C 74.988281 434.761719 65.753906 434.761719 65.753906 428.605469 C 65.753906 422.449219 74.988281 422.449219 74.988281 428.605469 "/>
<path style=" stroke:none;fill-rule:nonzero;fill:rgb(100%,84.3%,0%);fill-opacity:1;" d="M 185.8125 465.546875 C 185.8125 471.703125 176.578125 471.703125 176.578125 465.546875 C 176.578125 459.390625 185.8125 459.390625 185.8125 465.546875 "/>
<path style=" stroke:none;fill-rule:nonzero;fill:rgb(100%,84.3%,0%);fill-opacity:1;" d="M 352.046875 111.839844 C 352.046875 117.996094 342.8125 117.996094 342.8125 111.839844 C 342.8125 105.679688 352.046875 105.679688 352.046875 111.839844 "/>
<path style=" stroke:none;fill-rule:nonzero;fill:rgb(100%,84.3%,0%);fill-opacity:1;" d="M 65.753906 111.839844 C 65.753906 117.996094 56.519531 117.996094 56.519531 111.839844 C 56.519531 105.679688 65.753906 105.679688 65.753906 111.839844 "/>
<path style=" stroke:none;fill-rule:nonzero;fill:rgb(100%,84.3%,0%);fill-opacity:1;" d="M 407.457031 465.546875 C 407.457031 471.703125 398.222656 471.703125 398.222656 465.546875 C 398.222656 459.390625 407.457031 459.390625 407.457031 465.546875 "/>
<path style=" stroke:none;fill-rule:nonzero;fill:rgb(100%,84.3%,0%);fill-opacity:1;" d="M 464.714844 456.3125 C 464.714844 462.46875 455.480469 462.46875 455.480469 456.3125 C 455.480469 450.15625 464.714844 450.15625 464.714844 456.3125 "/>
<path style=" stroke:none;fill-rule:nonzero;fill:rgb(100%,84.3%,0%);fill-opacity:1;" d="M 464.714844 391.664062 C 464.714844 397.820312 455.480469 397.820312 455.480469 391.664062 C 455.480469 385.507812 464.714844 385.507812 464.714844 391.664062 "/>
<path style=" stroke:none;fill-rule:nonzero;fill:rgb(100%,84.3%,0%);fill-opacity:1;" d="M 464.714844 382.429688 C 464.714844 388.585938 455.480469 388.585938 455.480469 382.429688 C 455.480469 376.273438 464.714844 376.273438 464.714844 382.429688 "/>
<path style=" stroke:none;fill-rule:nonzero;fill:rgb(100%,84.3%,0%);fill-opacity:1;" d="M 464.714844 373.195312 C 464.714844 379.351562 455.480469 379.351562 455.480469 373.195312 C 455.480469 367.039062 464.714844 367.039062 464.714844 373.195312 "/>
<path style=" stroke:none;fill-rule:nonzero;fill:rgb(100%,84.3%,0%);fill-opacity:1;" d="M 176.578125 465.546875 C 176.578125 471.703125 167.34375 471.703125 167.34375 465.546875 C 167.34375 459.390625 176.578125 459.390625 176.578125 465.546875 "/>
<path style=" stroke:none;fill-rule:nonzero;fill:rgb(100%,84.3%,0%);fill-opacity:1;" d="M 56.519531 465.546875 C 56.519531 471.703125 47.285156 471.703125 47.285156 465.546875 C 47.285156 459.390625 56.519531 459.390625 56.519531 465.546875 "/>
<path style=" stroke:none;fill-rule:nonzero;fill:rgb(100%,84.3%,0%);fill-opacity:1;" d="M 56.519531 123.84375 C 56.519531 130 47.285156 130 47.285156 123.84375 C 47.285156 117.6875 56.519531 117.6875 56.519531 123.84375 "/>
<path style=" stroke:none;fill-rule:nonzero;fill:rgb(100%,84.3%,0%);fill-opacity:1;" d="M 462.867188 465.546875 C 462.867188 471.703125 453.632812 471.703125 453.632812 465.546875 C 453.632812 459.390625 462.867188 459.390625 462.867188 465.546875 "/>
<path style=" stroke:none;fill-rule:nonzero;fill:rgb(100%,84.3%,0%);fill-opacity:1;" d="M 444.398438 111.839844 C 444.398438 117.996094 435.164062 117.996094 435.164062 111.839844 C 435.164062 105.679688 444.398438 105.679688 444.398438 111.839844 "/>
<path style=" stroke:none;fill-rule:nonzero;fill:rgb(100%,84.3%,0%);fill-opacity:1;" d="M 435.164062 465.546875 C 435.164062 471.703125 425.925781 471.703125 425.925781 465.546875 C 425.925781 459.390625 435.164062 459.390625 435.164062 465.546875 "/>
<path style=" stroke:none;fill-rule:nonzero;fill:rgb(100%,84.3%,0%);fill-opacity:1;" d="M 435.164062 111.839844 C 435.164062 117.996094 425.925781 117.996094 425.925781 111.839844 C 425.925781 105.679688 435.164062 105.679688 435.164062 111.839844 "/>
<path style=" stroke:none;fill-rule:nonzero;fill:rgb(100%,84.3%,0%);fill-opacity:1;" d="M 464.714844 447.074219 C 464.714844 453.234375 455.480469 453.234375 455.480469 447.074219 C 455.480469 440.917969 464.714844 440.917969 464.714844 447.074219 "/>
<path style=" stroke:none;fill-rule:nonzero;fill:rgb(100%,84.3%,0%);fill-opacity:1;" d="M 268.929688 447.074219 C 268.929688 453.234375 259.695312 453.234375 259.695312 447.074219 C 259.695312 440.917969 268.929688 440.917969 268.929688 447.074219 "/>
<path style=" stroke:none;fill-rule:nonzero;fill:rgb(100%,84.3%,0%);fill-opacity:1;" d="M 287.398438 428.605469 C 287.398438 434.761719 278.164062 434.761719 278.164062 428.605469 C 278.164062 422.449219 287.398438 422.449219 287.398438 428.605469 "/>
<path style=" stroke:none;fill-rule:nonzero;fill:rgb(100%,84.3%,0%);fill-opacity:1;" d="M 435.164062 437.839844 C 435.164062 443.996094 425.925781 443.996094 425.925781 437.839844 C 425.925781 431.683594 435.164062 431.683594 435.164062 437.839844 "/>
<path style=" stroke:none;fill-rule:nonzero;fill:rgb(100%,84.3%,0%);fill-opacity:1;" d="M 287.398438 465.546875 C 287.398438 471.703125 278.164062 471.703125 278.164062 465.546875 C 278.164062 459.390625 287.398438 459.390625 287.398438 465.546875 "/>
<path style=" stroke:none;fill-rule:nonzero;fill:rgb(100%,84.3%,0%);fill-opacity:1;" d="M 305.871094 428.605469 C 305.871094 434.761719 296.636719 434.761719 296.636719 428.605469 C 296.636719 422.449219 305.871094 422.449219 305.871094 428.605469 "/>
<path style=" stroke:none;fill-rule:nonzero;fill:rgb(100%,84.3%,0%);fill-opacity:1;" d="M 268.929688 428.605469 C 268.929688 434.761719 259.695312 434.761719 259.695312 428.605469 C 259.695312 422.449219 268.929688 422.449219 268.929688 428.605469 "/>
<path style=" stroke:none;fill-rule:nonzero;fill:rgb(100%,84.3%,0%);fill-opacity:1;" d="M 464.714844 317.785156 C 464.714844 323.941406 455.480469 323.941406 455.480469 317.785156 C 455.480469 311.628906 464.714844 311.628906 464.714844 317.785156 "/>
<path style=" stroke:none;fill-rule:nonzero;fill:rgb(100%,84.3%,0%);fill-opacity:1;" d="M 342.8125 111.839844 C 342.8125 117.996094 333.574219 117.996094 333.574219 111.839844 C 333.574219 105.679688 342.8125 105.679688 342.8125 111.839844 "/>
<path style=" stroke:none;fill-rule:nonzero;fill:rgb(100%,84.3%,0%);fill-opacity:1;" d="M 333.574219 428.605469 C 333.574219 434.761719 324.339844 434.761719 324.339844 428.605469 C 324.339844 422.449219 333.574219 422.449219 333.574219 428.605469 "/>
<path style=" stroke:none;fill-rule:nonzero;fill:rgb(100%,84.3%,0%);fill-opacity:1;" d="M 464.714844 354.722656 C 464.714844 360.878906 455.480469 360.878906 455.480469 354.722656 C 455.480469 348.566406 464.714844 348.566406 464.714844 354.722656 "/>
<path style=" stroke:none;fill-rule:nonzero;fill:rgb(100%,84.3%,0%);fill-opacity:1;" d="M 84.226562 465.546875 C 84.226562 471.703125 74.992188 471.703125 74.992188 465.546875 C 74.992188 459.390625 84.226562 459.390625 84.226562 465.546875 "/>
<path style=" stroke:none;fill-rule:nonzero;fill:rgb(100%,84.3%,0%);fill-opacity:1;" d="M 213.519531 465.546875 C 213.519531 471.703125 204.28125 471.703125 204.28125 465.546875 C 204.28125 459.390625 213.519531 459.390625 213.519531 465.546875 "/>
<path style=" stroke:none;fill-rule:nonzero;fill:rgb(100%,84.3%,0%);fill-opacity:1;" d="M 148.871094 465.546875 C 148.871094 471.703125 139.636719 471.703125 139.636719 465.546875 C 139.636719 459.390625 148.871094 459.390625 148.871094 465.546875 "/>
<path style=" stroke:none;fill-rule:nonzero;fill:rgb(100%,84.3%,0%);fill-opacity:1;" d="M 121.164062 447.074219 C 121.164062 453.234375 111.929688 453.234375 111.929688 447.074219 C 111.929688 440.917969 121.164062 440.917969 121.164062 447.074219 "/>
<path style=" stroke:none;fill-rule:nonzero;fill:rgb(100%,84.3%,0%);fill-opacity:1;" d="M 296.632812 111.839844 C 296.632812 117.996094 287.398438 117.996094 287.398438 111.839844 C 287.398438 105.679688 296.632812 105.679688 296.632812 111.839844 "/>
<path style=" stroke:none;fill-rule:nonzero;fill:rgb(100%,84.3%,0%);fill-opacity:1;" d="M 464.714844 437.839844 C 464.714844 443.996094 455.480469 443.996094 455.480469 437.839844 C 455.480469 431.683594 464.714844 431.683594 464.714844 437.839844 "/>
<path style=" stroke:none;fill-rule:nonzero;fill:rgb(100%,84.3%,0%);fill-opacity:1;" d="M 56.519531 299.3125 C 56.519531 305.46875 47.285156 305.46875 47.285156 299.3125 C 47.285156 293.15625 56.519531 293.15625 56.519531 299.3125 "/>
<path style=" stroke:none;fill-rule:nonzero;fill:rgb(100%,84.3%,0%);fill-opacity:1;" d="M 462.867188 111.839844 C 462.867188 117.996094 453.632812 117.996094 453.632812 111.839844 C 453.632812 105.679688 462.867188 105.679688 462.867188 111.839844 "/>
<path style=" stroke:none;fill-rule:nonzero;fill:rgb(100%,84.3%,0%);fill-opacity:1;" d="M 464.714844 197.726562 C 464.714844 203.882812 455.480469 203.882812 455.480469 197.726562 C 455.480469 191.570312 464.714844 191.570312 464.714844 197.726562 "/>
<path style=" stroke:none;fill-rule:nonzero;fill:rgb(100%,84.3%,0%);fill-opacity:1;" d="M 56.519531 253.136719 C 56.519531 259.292969 47.285156 259.292969 47.285156 253.136719 C 47.285156 246.980469 56.519531 246.980469 56.519531 253.136719 "/>
<path style=" stroke:none;fill-rule:nonzero;fill:rgb(100%,84.3%,0%);fill-opacity:1;" d="M 250.457031 456.3125 C 250.457031 462.46875 241.222656 462.46875 241.222656 456.3125 C 241.222656 450.15625 250.457031 450.15625 250.457031 456.3125 "/>
<path style=" stroke:none;fill-rule:nonzero;fill:rgb(100%,84.3%,0%);fill-opacity:1;" d="M 259.695312 465.546875 C 259.695312 471.703125 250.457031 471.703125 250.457031 465.546875 C 250.457031 459.390625 259.695312 459.390625 259.695312 465.546875 "/>
<path style=" stroke:none;fill-rule:nonzero;fill:rgb(100%,84.3%,0%);fill-opacity:1;" d="M 444.398438 447.074219 C 444.398438 453.234375 435.164062 453.234375 435.164062 447.074219 C 435.164062 440.917969 444.398438 440.917969 444.398438 447.074219 "/>
<path style=" stroke:none;fill-rule:nonzero;fill:rgb(100%,84.3%,0%);fill-opacity:1;" d="M 195.046875 428.605469 C 195.046875 434.761719 185.8125 434.761719 185.8125 428.605469 C 185.8125 422.449219 195.046875 422.449219 195.046875 428.605469 "/>
<path style=" stroke:none;fill-rule:nonzero;fill:rgb(100%,84.3%,0%);fill-opacity:1;" d="M 74.988281 465.546875 C 74.988281 471.703125 65.753906 471.703125 65.753906 465.546875 C 65.753906 459.390625 74.988281 459.390625 74.988281 465.546875 "/>
<path style=" stroke:none;fill-rule:nonzero;fill:rgb(100%,84.3%,0%);fill-opacity:1;" d="M 56.519531 188.492188 C 56.519531 194.648438 47.285156 194.648438 47.285156 188.492188 C 47.285156 182.335938 56.519531 182.335938 56.519531 188.492188 "/>
<path style=" stroke:none;fill-rule:nonzero;fill:rgb(100%,84.3%,0%);fill-opacity:1;" d="M 296.632812 465.546875 C 296.632812 471.703125 287.398438 471.703125 287.398438 465.546875 C 287.398438 459.390625 296.632812 459.390625 296.632812 465.546875 "/>
<path style=" stroke:none;fill-rule:nonzero;fill:rgb(100%,84.3%,0%);fill-opacity:1;" d="M 268.929688 456.3125 C 268.929688 462.46875 259.695312 462.46875 259.695312 456.3125 C 259.695312 450.15625 268.929688 450.15625 268.929688 456.3125 "/>
<path style=" stroke:none;fill-rule:nonzero;fill:rgb(100%,84.3%,0%);fill-opacity:1;" d="M 195.046875 111.839844 C 195.046875 117.996094 185.8125 117.996094 185.8125 111.839844 C 185.8125 105.679688 195.046875 105.679688 195.046875 111.839844 "/>
<path style=" stroke:none;fill-rule:nonzero;fill:rgb(100%,84.3%,0%);fill-opacity:1;" d="M 444.398438 465.546875 C 444.398438 471.703125 435.164062 471.703125 435.164062 465.546875 C 435.164062 459.390625 444.398438 459.390625 444.398438 465.546875 "/>
<path style=" stroke:none;fill-rule:nonzero;fill:rgb(100%,84.3%,0%);fill-opacity:1;" d="M 65.753906 465.546875 C 65.753906 471.703125 56.519531 471.703125 56.519531 465.546875 C 56.519531 459.390625 65.753906 459.390625 65.753906 465.546875 "/>
<path style=" stroke:none;fill-rule:nonzero;fill:rgb(100%,84.3%,0%);fill-opacity:1;" d="M 231.988281 456.3125 C 231.988281 462.46875 222.753906 462.46875 222.753906 456.3125 C 222.753906 450.15625 231.988281 450.15625 231.988281 456.3125 "/>
<path style=" stroke:none;fill-rule:nonzero;fill:rgb(100%,84.3%,0%);fill-opacity:1;" d="M 213.519531 447.074219 C 213.519531 453.234375 204.28125 453.234375 204.28125 447.074219 C 204.28125 440.917969 213.519531 440.917969 213.519531 447.074219 "/>
<path style=" stroke:none;fill-rule:nonzero;fill:rgb(100%,84.3%,0%);fill-opacity:1;" d="M 56.519531 170.019531 C 56.519531 176.175781 47.285156 176.175781 47.285156 170.019531 C 47.285156 163.863281 56.519531 163.863281 56.519531 170.019531 "/>
<path style=" stroke:none;fill-rule:nonzero;fill:rgb(100%,84.3%,0%);fill-opacity:1;" d="M 167.339844 447.074219 C 167.339844 453.234375 158.105469 453.234375 158.105469 447.074219 C 158.105469 440.917969 167.339844 440.917969 167.339844 447.074219 "/>
<path style=" stroke:none;fill-rule:nonzero;fill:rgb(100%,84.3%,0%);fill-opacity:1;" d="M 167.339844 456.3125 C 167.339844 462.46875 158.105469 462.46875 158.105469 456.3125 C 158.105469 450.15625 167.339844 450.15625 167.339844 456.3125 "/>
<path style=" stroke:none;fill-rule:nonzero;fill:rgb(100%,84.3%,0%);fill-opacity:1;" d="M 305.871094 465.546875 C 305.871094 471.703125 296.636719 471.703125 296.636719 465.546875 C 296.636719 459.390625 305.871094 459.390625 305.871094 465.546875 "/>
<path style=" stroke:none;fill-rule:nonzero;fill:rgb(100%,84.3%,0%);fill-opacity:1;" d="M 361.28125 111.839844 C 361.28125 117.996094 352.046875 117.996094 352.046875 111.839844 C 352.046875 105.679688 361.28125 105.679688 361.28125 111.839844 "/>
<path style=" stroke:none;fill-rule:nonzero;fill:rgb(100%,84.3%,0%);fill-opacity:1;" d="M 464.714844 345.488281 C 464.714844 351.644531 455.480469 351.644531 455.480469 345.488281 C 455.480469 339.332031 464.714844 339.332031 464.714844 345.488281 "/>
<path style=" stroke:none;fill-rule:nonzero;fill:rgb(100%,84.3%,0%);fill-opacity:1;" d="M 324.339844 111.839844 C 324.339844 117.996094 315.105469 117.996094 315.105469 111.839844 C 315.105469 105.679688 324.339844 105.679688 324.339844 111.839844 "/>
<path style=" stroke:none;fill-rule:nonzero;fill:rgb(100%,84.3%,0%);fill-opacity:1;" d="M 333.574219 111.839844 C 333.574219 117.996094 324.339844 117.996094 324.339844 111.839844 C 324.339844 105.679688 333.574219 105.679688 333.574219 111.839844 "/>
<path style=" stroke:none;fill-rule:nonzero;fill:rgb(100%,84.3%,0%);fill-opacity:1;" d="M 388.988281 111.839844 C 388.988281 117.996094 379.75 117.996094 379.75 111.839844 C 379.75 105.679688 388.988281 105.679688 388.988281 111.839844 "/>
<path style=" stroke:none;fill-rule:nonzero;fill:rgb(100%,84.3%,0%);fill-opacity:1;" d="M 435.164062 447.074219 C 435.164062 453.234375 425.925781 453.234375 425.925781 447.074219 C 425.925781 440.917969 435.164062 440.917969 435.164062 447.074219 "/>
<path style=" stroke:none;fill-rule:nonzero;fill:rgb(100%,84.3%,0%);fill-opacity:1;" d="M 464.714844 290.078125 C 464.714844 296.234375 455.480469 296.234375 455.480469 290.078125 C 455.480469 283.921875 464.714844 283.921875 464.714844 290.078125 "/>
<path style=" stroke:none;fill-rule:nonzero;fill:rgb(100%,84.3%,0%);fill-opacity:1;" d="M 56.519531 317.785156 C 56.519531 323.941406 47.285156 323.941406 47.285156 317.785156 C 47.285156 311.628906 56.519531 311.628906 56.519531 317.785156 "/>
<path style=" stroke:none;fill-rule:nonzero;fill:rgb(100%,84.3%,0%);fill-opacity:1;" d="M 315.105469 447.074219 C 315.105469 453.234375 305.871094 453.234375 305.871094 447.074219 C 305.871094 440.917969 315.105469 440.917969 315.105469 447.074219 "/>
<path style=" stroke:none;fill-rule:nonzero;fill:rgb(100%,84.3%,0%);fill-opacity:1;" d="M 315.105469 465.546875 C 315.105469 471.703125 305.871094 471.703125 305.871094 465.546875 C 305.871094 459.390625 315.105469 459.390625 315.105469 465.546875 "/>
<path style=" stroke:none;fill-rule:nonzero;fill:rgb(100%,84.3%,0%);fill-opacity:1;" d="M 416.691406 437.839844 C 416.691406 443.996094 407.457031 443.996094 407.457031 437.839844 C 407.457031 431.683594 416.691406 431.683594 416.691406 437.839844 "/>
<path style=" stroke:none;fill-rule:nonzero;fill:rgb(100%,84.3%,0%);fill-opacity:1;" d="M 56.519531 308.546875 C 56.519531 314.703125 47.285156 314.703125 47.285156 308.546875 C 47.285156 302.390625 56.519531 302.390625 56.519531 308.546875 "/>
<path style=" stroke:none;fill-rule:nonzero;fill:rgb(100%,84.3%,0%);fill-opacity:1;" d="M 158.105469 111.839844 C 158.105469 117.996094 148.871094 117.996094 148.871094 111.839844 C 148.871094 105.679688 158.105469 105.679688 158.105469 111.839844 "/>
<path style=" stroke:none;fill-rule:nonzero;fill:rgb(100%,84.3%,0%);fill-opacity:1;" d="M 176.578125 456.3125 C 176.578125 462.46875 167.34375 462.46875 167.34375 456.3125 C 167.34375 450.15625 176.578125 450.15625 176.578125 456.3125 "/>
<path style=" stroke:none;fill-rule:nonzero;fill:rgb(100%,84.3%,0%);fill-opacity:1;" d="M 148.871094 456.3125 C 148.871094 462.46875 139.636719 462.46875 139.636719 456.3125 C 139.636719 450.15625 148.871094 450.15625 148.871094 456.3125 "/>
<path style=" stroke:none;fill-rule:nonzero;fill:rgb(100%,84.3%,0%);fill-opacity:1;" d="M 241.222656 465.546875 C 241.222656 471.703125 231.988281 471.703125 231.988281 465.546875 C 231.988281 459.390625 241.222656 459.390625 241.222656 465.546875 "/>
<path style=" stroke:none;fill-rule:nonzero;fill:rgb(100%,84.3%,0%);fill-opacity:1;" d="M 407.457031 111.839844 C 407.457031 117.996094 398.222656 117.996094 398.222656 111.839844 C 398.222656 105.679688 407.457031 105.679688 407.457031 111.839844 "/>
<path style=" stroke:none;fill-rule:nonzero;fill:rgb(100%,84.3%,0%);fill-opacity:1;" d="M 93.460938 465.546875 C 93.460938 471.703125 84.226562 471.703125 84.226562 465.546875 C 84.226562 459.390625 93.460938 459.390625 93.460938 465.546875 "/>
<path style=" stroke:none;fill-rule:nonzero;fill:rgb(100%,84.3%,0%);fill-opacity:1;" d="M 84.226562 437.839844 C 84.226562 443.996094 74.992188 443.996094 74.992188 437.839844 C 74.992188 431.683594 84.226562 431.683594 84.226562 437.839844 "/>
<path style=" stroke:none;fill-rule:nonzero;fill:rgb(100%,84.3%,0%);fill-opacity:1;" d="M 388.988281 465.546875 C 388.988281 471.703125 379.75 471.703125 379.75 465.546875 C 379.75 459.390625 388.988281 459.390625 388.988281 465.546875 "/>
<path style=" stroke:none;fill-rule:nonzero;fill:rgb(100%,84.3%,0%);fill-opacity:1;" d="M 241.222656 428.605469 C 241.222656 434.761719 231.988281 434.761719 231.988281 428.605469 C 231.988281 422.449219 241.222656 422.449219 241.222656 428.605469 "/>
<path style=" stroke:none;fill-rule:nonzero;fill:rgb(100%,84.3%,0%);fill-opacity:1;" d="M 213.519531 456.3125 C 213.519531 462.46875 204.28125 462.46875 204.28125 456.3125 C 204.28125 450.15625 213.519531 450.15625 213.519531 456.3125 "/>
<path style=" stroke:none;fill-rule:nonzero;fill:rgb(100%,84.3%,0%);fill-opacity:1;" d="M 74.988281 456.3125 C 74.988281 462.46875 65.753906 462.46875 65.753906 456.3125 C 65.753906 450.15625 74.988281 450.15625 74.988281 456.3125 "/>
<path style=" stroke:none;fill-rule:nonzero;fill:rgb(100%,84.3%,0%);fill-opacity:1;" d="M 416.691406 456.3125 C 416.691406 462.46875 407.457031 462.46875 407.457031 456.3125 C 407.457031 450.15625 416.691406 450.15625 416.691406 456.3125 "/>
<path style=" stroke:none;fill-rule:nonzero;fill:rgb(100%,84.3%,0%);fill-opacity:1;" d="M 213.519531 437.839844 C 213.519531 443.996094 204.28125 443.996094 204.28125 437.839844 C 204.28125 431.683594 213.519531 431.683594 213.519531 437.839844 "/>
<path style=" stroke:none;fill-rule:nonzero;fill:rgb(100%,84.3%,0%);fill-opacity:1;" d="M 379.75 428.605469 C 379.75 434.761719 370.515625 434.761719 370.515625 428.605469 C 370.515625 422.449219 379.75 422.449219 379.75 428.605469 "/>
<path style=" stroke:none;fill-rule:nonzero;fill:rgb(100%,84.3%,0%);fill-opacity:1;" d="M 102.695312 456.3125 C 102.695312 462.46875 93.460938 462.46875 93.460938 456.3125 C 93.460938 450.15625 102.695312 450.15625 102.695312 456.3125 "/>
<path style=" stroke:none;fill-rule:nonzero;fill:rgb(100%,84.3%,0%);fill-opacity:1;" d="M 315.105469 111.839844 C 315.105469 117.996094 305.871094 117.996094 305.871094 111.839844 C 305.871094 105.679688 315.105469 105.679688 315.105469 111.839844 "/>
<path style=" stroke:none;fill-rule:nonzero;fill:rgb(100%,84.3%,0%);fill-opacity:1;" d="M 102.695312 447.074219 C 102.695312 453.234375 93.460938 453.234375 93.460938 447.074219 C 93.460938 440.917969 102.695312 440.917969 102.695312 447.074219 "/>
<path style=" stroke:none;fill-rule:nonzero;fill:rgb(100%,84.3%,0%);fill-opacity:1;" d="M 195.046875 456.3125 C 195.046875 462.46875 185.8125 462.46875 185.8125 456.3125 C 185.8125 450.15625 195.046875 450.15625 195.046875 456.3125 "/>
<path style=" stroke:none;fill-rule:nonzero;fill:rgb(100%,84.3%,0%);fill-opacity:1;" d="M 222.753906 465.546875 C 222.753906 471.703125 213.519531 471.703125 213.519531 465.546875 C 213.519531 459.390625 222.753906 459.390625 222.753906 465.546875 "/>
<path style=" stroke:none;fill-rule:nonzero;fill:rgb(100%,84.3%,0%);fill-opacity:1;" d="M 464.714844 216.195312 C 464.714844 222.351562 455.480469 222.351562 455.480469 216.195312 C 455.480469 210.039062 464.714844 210.039062 464.714844 216.195312 "/>
<path style=" stroke:none;fill-rule:nonzero;fill:rgb(100%,84.3%,0%);fill-opacity:1;" d="M 425.925781 428.605469 C 425.925781 434.761719 416.691406 434.761719 416.691406 428.605469 C 416.691406 422.449219 425.925781 422.449219 425.925781 428.605469 "/>
<path style=" stroke:none;fill-rule:nonzero;fill:rgb(100%,84.3%,0%);fill-opacity:1;" d="M 250.457031 447.074219 C 250.457031 453.234375 241.222656 453.234375 241.222656 447.074219 C 241.222656 440.917969 250.457031 440.917969 250.457031 447.074219 "/>
<path style=" stroke:none;fill-rule:nonzero;fill:rgb(100%,84.3%,0%);fill-opacity:1;" d="M 158.105469 428.605469 C 158.105469 434.761719 148.871094 434.761719 148.871094 428.605469 C 148.871094 422.449219 158.105469 422.449219 158.105469 428.605469 "/>
<path style=" stroke:none;fill-rule:nonzero;fill:rgb(100%,84.3%,0%);fill-opacity:1;" d="M 111.929688 465.546875 C 111.929688 471.703125 102.695312 471.703125 102.695312 465.546875 C 102.695312 459.390625 111.929688 459.390625 111.929688 465.546875 "/>
<path style=" stroke:none;fill-rule:nonzero;fill:rgb(100%,84.3%,0%);fill-opacity:1;" d="M 379.75 456.3125 C 379.75 462.46875 370.515625 462.46875 370.515625 456.3125 C 370.515625 450.15625 379.75 450.15625 379.75 456.3125 "/>
<path style=" stroke:none;fill-rule:nonzero;fill:rgb(100%,84.3%,0%);fill-opacity:1;" d="M 185.8125 111.839844 C 185.8125 117.996094 176.578125 117.996094 176.578125 111.839844 C 176.578125 105.679688 185.8125 105.679688 185.8125 111.839844 "/>
<path style=" stroke:none;fill-rule:nonzero;fill:rgb(100%,84.3%,0%);fill-opacity:1;" d="M 56.519531 456.3125 C 56.519531 462.46875 47.285156 462.46875 47.285156 456.3125 C 47.285156 450.15625 56.519531 450.15625 56.519531 456.3125 "/>
<path style=" stroke:none;fill-rule:nonzero;fill:rgb(100%,84.3%,0%);fill-opacity:1;" d="M 158.105469 465.546875 C 158.105469 471.703125 148.871094 471.703125 148.871094 465.546875 C 148.871094 459.390625 158.105469 459.390625 158.105469 465.546875 "/>
<path style=" stroke:none;fill-rule:nonzero;fill:rgb(100%,84.3%,0%);fill-opacity:1;" d="M 464.714844 243.902344 C 464.714844 250.058594 455.480469 250.058594 455.480469 243.902344 C 455.480469 237.746094 464.714844 237.746094 464.714844 243.902344 "/>
<path style=" stroke:none;fill-rule:nonzero;fill:rgb(100%,84.3%,0%);fill-opacity:1;" d="M 56.519531 206.960938 C 56.519531 213.117188 47.285156 213.117188 47.285156 206.960938 C 47.285156 200.804688 56.519531 200.804688 56.519531 206.960938 "/>
<path style=" stroke:none;fill-rule:nonzero;fill:rgb(100%,84.3%,0%);fill-opacity:1;" d="M 56.519531 234.667969 C 56.519531 240.824219 47.285156 240.824219 47.285156 234.667969 C 47.285156 228.511719 56.519531 228.511719 56.519531 234.667969 "/>
<path style=" stroke:none;fill-rule:nonzero;fill:rgb(100%,84.3%,0%);fill-opacity:1;" d="M 158.105469 437.839844 C 158.105469 443.996094 148.871094 443.996094 148.871094 437.839844 C 148.871094 431.683594 158.105469 431.683594 158.105469 437.839844 "/>
<path style=" stroke:none;fill-rule:nonzero;fill:rgb(100%,84.3%,0%);fill-opacity:1;" d="M 204.28125 447.074219 C 204.28125 453.234375 195.046875 453.234375 195.046875 447.074219 C 195.046875 440.917969 204.28125 440.917969 204.28125 447.074219 "/>
<path style=" stroke:none;fill-rule:nonzero;fill:rgb(100%,84.3%,0%);fill-opacity:1;" d="M 435.164062 456.3125 C 435.164062 462.46875 425.925781 462.46875 425.925781 456.3125 C 425.925781 450.15625 435.164062 450.15625 435.164062 456.3125 "/>
<path style=" stroke:none;fill-rule:nonzero;fill:rgb(100%,84.3%,0%);fill-opacity:1;" d="M 464.714844 253.136719 C 464.714844 259.292969 455.480469 259.292969 455.480469 253.136719 C 455.480469 246.980469 464.714844 246.980469 464.714844 253.136719 "/>
<path style=" stroke:none;fill-rule:nonzero;fill:rgb(100%,84.3%,0%);fill-opacity:1;" d="M 130.402344 465.546875 C 130.402344 471.703125 121.167969 471.703125 121.167969 465.546875 C 121.167969 459.390625 130.402344 459.390625 130.402344 465.546875 "/>
<path style=" stroke:none;fill-rule:nonzero;fill:rgb(100%,84.3%,0%);fill-opacity:1;" d="M 121.164062 465.546875 C 121.164062 471.703125 111.929688 471.703125 111.929688 465.546875 C 111.929688 459.390625 121.164062 459.390625 121.164062 465.546875 "/>
<path style=" stroke:none;fill-rule:nonzero;fill:rgb(100%,84.3%,0%);fill-opacity:1;" d="M 231.988281 447.074219 C 231.988281 453.234375 222.753906 453.234375 222.753906 447.074219 C 222.753906 440.917969 231.988281 440.917969 231.988281 447.074219 "/>
<path style=" stroke:none;fill-rule:nonzero;fill:rgb(100%,84.3%,0%);fill-opacity:1;" d="M 241.222656 456.3125 C 241.222656 462.46875 231.988281 462.46875 231.988281 456.3125 C 231.988281 450.15625 241.222656 450.15625 241.222656 456.3125 "/>
<path style=" stroke:none;fill-rule:nonzero;fill:rgb(100%,84.3%,0%);fill-opacity:1;" d="M 398.222656 447.074219 C 398.222656 453.234375 388.988281 453.234375 388.988281 447.074219 C 388.988281 440.917969 398.222656 440.917969 398.222656 447.074219 "/>
<path style=" stroke:none;fill-rule:nonzero;fill:rgb(100%,84.3%,0%);fill-opacity:1;" d="M 370.515625 447.074219 C 370.515625 453.234375 361.28125 453.234375 361.28125 447.074219 C 361.28125 440.917969 370.515625 440.917969 370.515625 447.074219 "/>
<path style=" stroke:none;fill-rule:nonzero;fill:rgb(100%,84.3%,0%);fill-opacity:1;" d="M 453.632812 428.605469 C 453.632812 434.761719 444.398438 434.761719 444.398438 428.605469 C 444.398438 422.449219 453.632812 422.449219 453.632812 428.605469 "/>
<path style=" stroke:none;fill-rule:nonzero;fill:rgb(100%,84.3%,0%);fill-opacity:1;" d="M 56.519531 243.902344 C 56.519531 250.058594 47.285156 250.058594 47.285156 243.902344 C 47.285156 237.746094 56.519531 237.746094 56.519531 243.902344 "/>
<path style=" stroke:none;fill-rule:nonzero;fill:rgb(100%,84.3%,0%);fill-opacity:1;" d="M 398.222656 437.839844 C 398.222656 443.996094 388.988281 443.996094 388.988281 437.839844 C 388.988281 431.683594 398.222656 431.683594 398.222656 437.839844 "/>
<path style=" stroke:none;fill-rule:nonzero;fill:rgb(100%,84.3%,0%);fill-opacity:1;" d="M 407.457031 456.3125 C 407.457031 462.46875 398.222656 462.46875 398.222656 456.3125 C 398.222656 450.15625 407.457031 450.15625 407.457031 456.3125 "/>
<path style=" stroke:none;fill-rule:nonzero;fill:rgb(100%,84.3%,0%);fill-opacity:1;" d="M 56.519531 151.550781 C 56.519531 157.707031 47.285156 157.707031 47.285156 151.550781 C 47.285156 145.394531 56.519531 145.394531 56.519531 151.550781 "/>
<path style=" stroke:none;fill-rule:nonzero;fill:rgb(100%,84.3%,0%);fill-opacity:1;" d="M 56.519531 160.785156 C 56.519531 166.941406 47.285156 166.941406 47.285156 160.785156 C 47.285156 154.628906 56.519531 154.628906 56.519531 160.785156 "/>
<path style=" stroke:none;fill-rule:nonzero;fill:rgb(100%,84.3%,0%);fill-opacity:1;" d="M 464.714844 234.667969 C 464.714844 240.824219 455.480469 240.824219 455.480469 234.667969 C 455.480469 228.511719 464.714844 228.511719 464.714844 234.667969 "/>
<path style=" stroke:none;fill-rule:nonzero;fill:rgb(100%,84.3%,0%);fill-opacity:1;" d="M 102.695312 465.546875 C 102.695312 471.703125 93.460938 471.703125 93.460938 465.546875 C 93.460938 459.390625 102.695312 459.390625 102.695312 465.546875 "/>
<path style=" stroke:none;fill-rule:nonzero;fill:rgb(100%,84.3%,0%);fill-opacity:1;" d="M 278.164062 465.546875 C 278.164062 471.703125 268.929688 471.703125 268.929688 465.546875 C 268.929688 459.390625 278.164062 459.390625 278.164062 465.546875 "/>
<path style=" stroke:none;fill-rule:nonzero;fill:rgb(100%,84.3%,0%);fill-opacity:1;" d="M 185.8125 447.074219 C 185.8125 453.234375 176.578125 453.234375 176.578125 447.074219 C 176.578125 440.917969 185.8125 440.917969 185.8125 447.074219 "/>
<path style=" stroke:none;fill-rule:nonzero;fill:rgb(100%,84.3%,0%);fill-opacity:1;" d="M 56.519531 216.195312 C 56.519531 222.351562 47.285156 222.351562 47.285156 216.195312 C 47.285156 210.039062 56.519531 210.039062 56.519531 216.195312 "/>
<path style=" stroke:none;fill-rule:nonzero;fill:rgb(100%,84.3%,0%);fill-opacity:1;" d="M 167.339844 428.605469 C 167.339844 434.761719 158.105469 434.761719 158.105469 428.605469 C 158.105469 422.449219 167.339844 422.449219 167.339844 428.605469 "/>
<path style=" stroke:none;fill-rule:nonzero;fill:rgb(100%,84.3%,0%);fill-opacity:1;" d="M 56.519531 197.726562 C 56.519531 203.882812 47.285156 203.882812 47.285156 197.726562 C 47.285156 191.570312 56.519531 191.570312 56.519531 197.726562 "/>
<path style=" stroke:none;fill-rule:nonzero;fill:rgb(100%,84.3%,0%);fill-opacity:1;" d="M 453.632812 437.839844 C 453.632812 443.996094 444.398438 443.996094 444.398438 437.839844 C 444.398438 431.683594 453.632812 431.683594 453.632812 437.839844 "/>
<path style=" stroke:none;fill-rule:nonzero;fill:rgb(100%,84.3%,0%);fill-opacity:1;" d="M 111.929688 437.839844 C 111.929688 443.996094 102.695312 443.996094 102.695312 437.839844 C 102.695312 431.683594 111.929688 431.683594 111.929688 437.839844 "/>
<path style=" stroke:none;fill-rule:nonzero;fill:rgb(100%,84.3%,0%);fill-opacity:1;" d="M 352.046875 465.546875 C 352.046875 471.703125 342.8125 471.703125 342.8125 465.546875 C 342.8125 459.390625 352.046875 459.390625 352.046875 465.546875 "/>
<path style=" stroke:none;fill-rule:nonzero;fill:rgb(100%,84.3%,0%);fill-opacity:1;" d="M 388.988281 447.074219 C 388.988281 453.234375 379.75 453.234375 379.75 447.074219 C 379.75 440.917969 388.988281 440.917969 388.988281 447.074219 "/>
<path style=" stroke:none;fill-rule:nonzero;fill:rgb(100%,84.3%,0%);fill-opacity:1;" d="M 56.519531 345.488281 C 56.519531 351.644531 47.285156 351.644531 47.285156 345.488281 C 47.285156 339.332031 56.519531 339.332031 56.519531 345.488281 "/>
<path style=" stroke:none;fill-rule:nonzero;fill:rgb(100%,84.3%,0%);fill-opacity:1;" d="M 352.046875 447.074219 C 352.046875 453.234375 342.8125 453.234375 342.8125 447.074219 C 342.8125 440.917969 352.046875 440.917969 352.046875 447.074219 "/>
<path style=" stroke:none;fill-rule:nonzero;fill:rgb(100%,84.3%,0%);fill-opacity:1;" d="M 464.714844 299.3125 C 464.714844 305.46875 455.480469 305.46875 455.480469 299.3125 C 455.480469 293.15625 464.714844 293.15625 464.714844 299.3125 "/>
<path style=" stroke:none;fill-rule:nonzero;fill:rgb(100%,84.3%,0%);fill-opacity:1;" d="M 222.753906 428.605469 C 222.753906 434.761719 213.519531 434.761719 213.519531 428.605469 C 213.519531 422.449219 222.753906 422.449219 222.753906 428.605469 "/>
<path style=" stroke:none;fill-rule:nonzero;fill:rgb(100%,84.3%,0%);fill-opacity:1;" d="M 231.988281 465.546875 C 231.988281 471.703125 222.753906 471.703125 222.753906 465.546875 C 222.753906 459.390625 231.988281 459.390625 231.988281 465.546875 "/>
<path style=" stroke:none;fill-rule:nonzero;fill:rgb(100%,84.3%,0%);fill-opacity:1;" d="M 56.519531 142.316406 C 56.519531 148.472656 47.285156 148.472656 47.285156 142.316406 C 47.285156 136.15625 56.519531 136.15625 56.519531 142.316406 "/>
<path style=" stroke:none;fill-rule:nonzero;fill:rgb(100%,84.3%,0%);fill-opacity:1;" d="M 444.398438 456.3125 C 444.398438 462.46875 435.164062 462.46875 435.164062 456.3125 C 435.164062 450.15625 444.398438 450.15625 444.398438 456.3125 "/>
<path style=" stroke:none;fill-rule:nonzero;fill:rgb(100%,84.3%,0%);fill-opacity:1;" d="M 361.28125 456.3125 C 361.28125 462.46875 352.046875 462.46875 352.046875 456.3125 C 352.046875 450.15625 361.28125 450.15625 361.28125 456.3125 "/>
<path style=" stroke:none;fill-rule:nonzero;fill:rgb(100%,84.3%,0%);fill-opacity:1;" d="M 56.519531 290.078125 C 56.519531 296.234375 47.285156 296.234375 47.285156 290.078125 C 47.285156 283.921875 56.519531 283.921875 56.519531 290.078125 "/>
<path style=" stroke:none;fill-rule:nonzero;fill:rgb(100%,84.3%,0%);fill-opacity:1;" d="M 464.714844 308.546875 C 464.714844 314.703125 455.480469 314.703125 455.480469 308.546875 C 455.480469 302.390625 464.714844 302.390625 464.714844 308.546875 "/>
<path style=" stroke:none;fill-rule:nonzero;fill:rgb(100%,84.3%,0%);fill-opacity:1;" d="M 250.457031 437.839844 C 250.457031 443.996094 241.222656 443.996094 241.222656 437.839844 C 241.222656 431.683594 250.457031 431.683594 250.457031 437.839844 "/>
<path style=" stroke:none;fill-rule:nonzero;fill:rgb(100%,84.3%,0%);fill-opacity:1;" d="M 464.714844 188.492188 C 464.714844 194.648438 455.480469 194.648438 455.480469 188.492188 C 455.480469 182.335938 464.714844 182.335938 464.714844 188.492188 "/>
<path style=" stroke:none;fill-rule:nonzero;fill:rgb(100%,84.3%,0%);fill-opacity:1;" d="M 464.714844 206.960938 C 464.714844 213.117188 455.480469 213.117188 455.480469 206.960938 C 455.480469 200.804688 464.714844 200.804688 464.714844 206.960938 "/>
<path style=" stroke:none;fill-rule:nonzero;fill:rgb(100%,84.3%,0%);fill-opacity:1;" d="M 370.515625 456.3125 C 370.515625 462.46875 361.28125 462.46875 361.28125 456.3125 C 361.28125 450.15625 370.515625 450.15625 370.515625 456.3125 "/>
<path style=" stroke:none;fill-rule:nonzero;fill:rgb(100%,84.3%,0%);fill-opacity:1;" d="M 305.871094 111.839844 C 305.871094 117.996094 296.636719 117.996094 296.636719 111.839844 C 296.636719 105.679688 305.871094 105.679688 305.871094 111.839844 "/>
<path style=" stroke:none;fill-rule:nonzero;fill:rgb(100%,84.3%,0%);fill-opacity:1;" d="M 388.988281 428.605469 C 388.988281 434.761719 379.75 434.761719 379.75 428.605469 C 379.75 422.449219 388.988281 422.449219 388.988281 428.605469 "/>
<path style=" stroke:none;fill-rule:nonzero;fill:rgb(100%,84.3%,0%);fill-opacity:1;" d="M 388.988281 437.839844 C 388.988281 443.996094 379.75 443.996094 379.75 437.839844 C 379.75 431.683594 388.988281 431.683594 388.988281 437.839844 "/>
<path style=" stroke:none;fill-rule:nonzero;fill:rgb(100%,84.3%,0%);fill-opacity:1;" d="M 56.519531 447.074219 C 56.519531 453.234375 47.285156 453.234375 47.285156 447.074219 C 47.285156 440.917969 56.519531 440.917969 56.519531 447.074219 "/>
<path style=" stroke:none;fill-rule:nonzero;fill:rgb(100%,84.3%,0%);fill-opacity:1;" d="M 102.695312 437.839844 C 102.695312 443.996094 93.460938 443.996094 93.460938 437.839844 C 93.460938 431.683594 102.695312 431.683594 102.695312 437.839844 "/>
<path style=" stroke:none;fill-rule:nonzero;fill:rgb(100%,84.3%,0%);fill-opacity:1;" d="M 56.519531 133.078125 C 56.519531 139.234375 47.285156 139.234375 47.285156 133.078125 C 47.285156 126.921875 56.519531 126.921875 56.519531 133.078125 "/>
<path style=" stroke:none;fill-rule:nonzero;fill:rgb(100%,84.3%,0%);fill-opacity:1;" d="M 398.222656 456.3125 C 398.222656 462.46875 388.988281 462.46875 388.988281 456.3125 C 388.988281 450.15625 398.222656 450.15625 398.222656 456.3125 "/>
<path style=" stroke:none;fill-rule:nonzero;fill:rgb(100%,84.3%,0%);fill-opacity:1;" d="M 56.519531 437.839844 C 56.519531 443.996094 47.285156 443.996094 47.285156 437.839844 C 47.285156 431.683594 56.519531 431.683594 56.519531 437.839844 "/>
<path style=" stroke:none;fill-rule:nonzero;fill:rgb(100%,84.3%,0%);fill-opacity:1;" d="M 453.632812 447.074219 C 453.632812 453.234375 444.398438 453.234375 444.398438 447.074219 C 444.398438 440.917969 453.632812 440.917969 453.632812 447.074219 "/>
<path style=" stroke:none;fill-rule:nonzero;fill:rgb(100%,84.3%,0%);fill-opacity:1;" d="M 453.632812 465.546875 C 453.632812 471.703125 444.398438 471.703125 444.398438 465.546875 C 444.398438 459.390625 453.632812 459.390625 453.632812 465.546875 "/>
<path style=" stroke:none;fill-rule:nonzero;fill:rgb(100%,84.3%,0%);fill-opacity:1;" d="M 324.339844 456.3125 C 324.339844 462.46875 315.105469 462.46875 315.105469 456.3125 C 315.105469 450.15625 324.339844 450.15625 324.339844 456.3125 "/>
<path style=" stroke:none;fill-rule:nonzero;fill:rgb(100%,84.3%,0%);fill-opacity:1;" d="M 315.105469 437.839844 C 315.105469 443.996094 305.871094 443.996094 305.871094 437.839844 C 305.871094 431.683594 315.105469 431.683594 315.105469 437.839844 "/>
<path style=" stroke:none;fill-rule:nonzero;fill:rgb(100%,84.3%,0%);fill-opacity:1;" d="M 268.929688 465.546875 C 268.929688 471.703125 259.695312 471.703125 259.695312 465.546875 C 259.695312 459.390625 268.929688 459.390625 268.929688 465.546875 "/>
<path style=" stroke:none;fill-rule:nonzero;fill:rgb(100%,84.3%,0%);fill-opacity:1;" d="M 379.75 437.839844 C 379.75 443.996094 370.515625 443.996094 370.515625 437.839844 C 370.515625 431.683594 379.75 431.683594 379.75 437.839844 "/>
<path style=" stroke:none;fill-rule:nonzero;fill:rgb(100%,84.3%,0%);fill-opacity:1;" d="M 121.164062 437.839844 C 121.164062 443.996094 111.929688 443.996094 111.929688 437.839844 C 111.929688 431.683594 121.164062 431.683594 121.164062 437.839844 "/>
<path style=" stroke:none;fill-rule:nonzero;fill:rgb(100%,84.3%,0%);fill-opacity:1;" d="M 56.519531 428.605469 C 56.519531 434.761719 47.285156 434.761719 47.285156 428.605469 C 47.285156 422.449219 56.519531 422.449219 56.519531 428.605469 "/>
<path style=" stroke:none;fill-rule:nonzero;fill:rgb(100%,84.3%,0%);fill-opacity:1;" d="M 56.519531 419.371094 C 56.519531 425.527344 47.285156 425.527344 47.285156 419.371094 C 47.285156 413.214844 56.519531 413.214844 56.519531 419.371094 "/>
<path style=" stroke:none;fill-rule:nonzero;fill:rgb(100%,84.3%,0%);fill-opacity:1;" d="M 241.222656 437.839844 C 241.222656 443.996094 231.988281 443.996094 231.988281 437.839844 C 231.988281 431.683594 241.222656 431.683594 241.222656 437.839844 "/>
<path style=" stroke:none;fill-rule:nonzero;fill:rgb(100%,84.3%,0%);fill-opacity:1;" d="M 287.398438 111.839844 C 287.398438 117.996094 278.164062 117.996094 278.164062 111.839844 C 278.164062 105.679688 287.398438 105.679688 287.398438 111.839844 "/>
<path style=" stroke:none;fill-rule:nonzero;fill:rgb(100%,84.3%,0%);fill-opacity:1;" d="M 278.164062 111.839844 C 278.164062 117.996094 268.929688 117.996094 268.929688 111.839844 C 268.929688 105.679688 278.164062 105.679688 278.164062 111.839844 "/>
<path style=" stroke:none;fill-rule:nonzero;fill:rgb(100%,84.3%,0%);fill-opacity:1;" d="M 464.714844 262.371094 C 464.714844 268.527344 455.480469 268.527344 455.480469 262.371094 C 455.480469 256.214844 464.714844 256.214844 464.714844 262.371094 "/>
<path style=" stroke:none;fill-rule:nonzero;fill:rgb(100%,84.3%,0%);fill-opacity:1;" d="M 185.8125 456.3125 C 185.8125 462.46875 176.578125 462.46875 176.578125 456.3125 C 176.578125 450.15625 185.8125 450.15625 185.8125 456.3125 "/>
<path style=" stroke:none;fill-rule:nonzero;fill:rgb(100%,84.3%,0%);fill-opacity:1;" d="M 398.222656 465.546875 C 398.222656 471.703125 388.988281 471.703125 388.988281 465.546875 C 388.988281 459.390625 398.222656 459.390625 398.222656 465.546875 "/>
<path style=" stroke:none;fill-rule:nonzero;fill:rgb(100%,84.3%,0%);fill-opacity:1;" d="M 407.457031 447.074219 C 407.457031 453.234375 398.222656 453.234375 398.222656 447.074219 C 398.222656 440.917969 407.457031 440.917969 407.457031 447.074219 "/>
<path style=" stroke:none;fill-rule:nonzero;fill:rgb(100%,84.3%,0%);fill-opacity:1;" d="M 148.871094 447.074219 C 148.871094 453.234375 139.636719 453.234375 139.636719 447.074219 C 139.636719 440.917969 148.871094 440.917969 148.871094 447.074219 "/>
<path style=" stroke:none;fill-rule:nonzero;fill:rgb(100%,84.3%,0%);fill-opacity:1;" d="M 388.988281 456.3125 C 388.988281 462.46875 379.75 462.46875 379.75 456.3125 C 379.75 450.15625 388.988281 450.15625 388.988281 456.3125 "/>
<path style=" stroke:none;fill-rule:nonzero;fill:rgb(100%,84.3%,0%);fill-opacity:1;" d="M 464.714844 271.609375 C 464.714844 277.765625 455.480469 277.765625 455.480469 271.609375 C 455.480469 265.453125 464.714844 265.453125 464.714844 271.609375 "/>
<path style=" stroke:none;fill-rule:nonzero;fill:rgb(100%,84.3%,0%);fill-opacity:1;" d="M 305.871094 456.3125 C 305.871094 462.46875 296.636719 462.46875 296.636719 456.3125 C 296.636719 450.15625 305.871094 450.15625 305.871094 456.3125 "/>
<path style=" stroke:none;fill-rule:nonzero;fill:rgb(100%,84.3%,0%);fill-opacity:1;" d="M 333.574219 465.546875 C 333.574219 471.703125 324.339844 471.703125 324.339844 465.546875 C 324.339844 459.390625 333.574219 459.390625 333.574219 465.546875 "/>
<path style=" stroke:none;fill-rule:nonzero;fill:rgb(100%,84.3%,0%);fill-opacity:1;" d="M 259.695312 456.3125 C 259.695312 462.46875 250.457031 462.46875 250.457031 456.3125 C 250.457031 450.15625 259.695312 450.15625 259.695312 456.3125 "/>
<path style=" stroke:none;fill-rule:nonzero;fill:rgb(100%,84.3%,0%);fill-opacity:1;" d="M 56.519531 391.664062 C 56.519531 397.820312 47.285156 397.820312 47.285156 391.664062 C 47.285156 385.507812 56.519531 385.507812 56.519531 391.664062 "/>
<path style=" stroke:none;fill-rule:nonzero;fill:rgb(100%,84.3%,0%);fill-opacity:1;" d="M 231.988281 437.839844 C 231.988281 443.996094 222.753906 443.996094 222.753906 437.839844 C 222.753906 431.683594 231.988281 431.683594 231.988281 437.839844 "/>
<path style=" stroke:none;fill-rule:nonzero;fill:rgb(100%,84.3%,0%);fill-opacity:1;" d="M 287.398438 456.3125 C 287.398438 462.46875 278.164062 462.46875 278.164062 456.3125 C 278.164062 450.15625 287.398438 450.15625 287.398438 456.3125 "/>
<path style=" stroke:none;fill-rule:nonzero;fill:rgb(100%,84.3%,0%);fill-opacity:1;" d="M 241.222656 447.074219 C 241.222656 453.234375 231.988281 453.234375 231.988281 447.074219 C 231.988281 440.917969 241.222656 440.917969 241.222656 447.074219 "/>
<path style=" stroke:none;fill-rule:nonzero;fill:rgb(100%,84.3%,0%);fill-opacity:1;" d="M 56.519531 382.429688 C 56.519531 388.585938 47.285156 388.585938 47.285156 382.429688 C 47.285156 376.273438 56.519531 376.273438 56.519531 382.429688 "/>
<path style=" stroke:none;fill-rule:nonzero;fill:rgb(100%,84.3%,0%);fill-opacity:1;" d="M 56.519531 373.195312 C 56.519531 379.351562 47.285156 379.351562 47.285156 373.195312 C 47.285156 367.039062 56.519531 367.039062 56.519531 373.195312 "/>
<path style=" stroke:none;fill-rule:nonzero;fill:rgb(100%,84.3%,0%);fill-opacity:1;" d="M 342.8125 437.839844 C 342.8125 443.996094 333.574219 443.996094 333.574219 437.839844 C 333.574219 431.683594 342.8125 431.683594 342.8125 437.839844 "/>
<path style=" stroke:none;fill-rule:nonzero;fill:rgb(100%,84.3%,0%);fill-opacity:1;" d="M 324.339844 447.074219 C 324.339844 453.234375 315.105469 453.234375 315.105469 447.074219 C 315.105469 440.917969 324.339844 440.917969 324.339844 447.074219 "/>
<path style=" stroke:none;fill-rule:nonzero;fill:rgb(100%,84.3%,0%);fill-opacity:1;" d="M 305.871094 437.839844 C 305.871094 443.996094 296.636719 443.996094 296.636719 437.839844 C 296.636719 431.683594 305.871094 431.683594 305.871094 437.839844 "/>
<path style=" stroke:none;fill-rule:nonzero;fill:rgb(100%,84.3%,0%);fill-opacity:1;" d="M 56.519531 363.960938 C 56.519531 370.117188 47.285156 370.117188 47.285156 363.960938 C 47.285156 357.804688 56.519531 357.804688 56.519531 363.960938 "/>
<path style=" stroke:none;fill-rule:nonzero;fill:rgb(100%,84.3%,0%);fill-opacity:1;" d="M 398.222656 111.839844 C 398.222656 117.996094 388.988281 117.996094 388.988281 111.839844 C 388.988281 105.679688 398.222656 105.679688 398.222656 111.839844 "/>
<path style=" stroke:none;fill-rule:nonzero;fill:rgb(100%,84.3%,0%);fill-opacity:1;" d="M 268.929688 111.839844 C 268.929688 117.996094 259.695312 117.996094 259.695312 111.839844 C 259.695312 105.679688 268.929688 105.679688 268.929688 111.839844 "/>
<path style=" stroke:none;fill-rule:nonzero;fill:rgb(100%,84.3%,0%);fill-opacity:1;" d="M 56.519531 354.722656 C 56.519531 360.878906 47.285156 360.878906 47.285156 354.722656 C 47.285156 348.566406 56.519531 348.566406 56.519531 354.722656 "/>
<path style=" stroke:none;fill-rule:nonzero;fill:rgb(100%,84.3%,0%);fill-opacity:1;" d="M 222.753906 456.3125 C 222.753906 462.46875 213.519531 462.46875 213.519531 456.3125 C 213.519531 450.15625 222.753906 450.15625 222.753906 456.3125 "/>
<path style=" stroke:none;fill-rule:nonzero;fill:rgb(100%,84.3%,0%);fill-opacity:1;" d="M 139.636719 447.074219 C 139.636719 453.234375 130.402344 453.234375 130.402344 447.074219 C 130.402344 440.917969 139.636719 440.917969 139.636719 447.074219 "/>
<path style=" stroke:none;fill-rule:nonzero;fill:rgb(100%,84.3%,0%);fill-opacity:1;" d="M 268.929688 437.839844 C 268.929688 443.996094 259.695312 443.996094 259.695312 437.839844 C 259.695312 431.683594 268.929688 431.683594 268.929688 437.839844 "/>
<path style=" stroke:none;fill-rule:nonzero;fill:rgb(100%,84.3%,0%);fill-opacity:1;" d="M 259.695312 111.839844 C 259.695312 117.996094 250.457031 117.996094 250.457031 111.839844 C 250.457031 105.679688 259.695312 105.679688 259.695312 111.839844 "/>
<path style=" stroke:none;fill-rule:nonzero;fill:rgb(100%,84.3%,0%);fill-opacity:1;" d="M 425.925781 456.3125 C 425.925781 462.46875 416.691406 462.46875 416.691406 456.3125 C 416.691406 450.15625 425.925781 450.15625 425.925781 456.3125 "/>
<path style=" stroke:none;fill-rule:nonzero;fill:rgb(100%,84.3%,0%);fill-opacity:1;" d="M 464.714844 225.429688 C 464.714844 231.585938 455.480469 231.585938 455.480469 225.429688 C 455.480469 219.273438 464.714844 219.273438 464.714844 225.429688 "/>
<path style=" stroke:none;fill-rule:nonzero;fill:rgb(100%,84.3%,0%);fill-opacity:1;" d="M 111.929688 456.3125 C 111.929688 462.46875 102.695312 462.46875 102.695312 456.3125 C 102.695312 450.15625 111.929688 450.15625 111.929688 456.3125 "/>
<path style=" stroke:none;fill-rule:nonzero;fill:rgb(100%,84.3%,0%);fill-opacity:1;" d="M 453.632812 456.3125 C 453.632812 462.46875 444.398438 462.46875 444.398438 456.3125 C 444.398438 450.15625 453.632812 450.15625 453.632812 456.3125 "/>
<path style=" stroke:none;fill-rule:nonzero;fill:rgb(100%,84.3%,0%);fill-opacity:1;" d="M 444.398438 437.839844 C 444.398438 443.996094 435.164062 443.996094 435.164062 437.839844 C 435.164062 431.683594 444.398438 431.683594 444.398438 437.839844 "/>
<path style=" stroke:none;fill-rule:nonzero;fill:rgb(100%,84.3%,0%);fill-opacity:1;" d="M 444.398438 428.605469 C 444.398438 434.761719 435.164062 434.761719 435.164062 428.605469 C 435.164062 422.449219 444.398438 422.449219 444.398438 428.605469 "/>
<path style=" stroke:none;fill-rule:nonzero;fill:rgb(100%,84.3%,0%);fill-opacity:1;" d="M 324.339844 428.605469 C 324.339844 434.761719 315.105469 434.761719 315.105469 428.605469 C 315.105469 422.449219 324.339844 422.449219 324.339844 428.605469 "/>
<path style=" stroke:none;fill-rule:nonzero;fill:rgb(100%,84.3%,0%);fill-opacity:1;" d="M 324.339844 437.839844 C 324.339844 443.996094 315.105469 443.996094 315.105469 437.839844 C 315.105469 431.683594 324.339844 431.683594 324.339844 437.839844 "/>
<path style=" stroke:none;fill-rule:nonzero;fill:rgb(100%,84.3%,0%);fill-opacity:1;" d="M 167.339844 465.546875 C 167.339844 471.703125 158.105469 471.703125 158.105469 465.546875 C 158.105469 459.390625 167.339844 459.390625 167.339844 465.546875 "/>
<path style=" stroke:none;fill-rule:nonzero;fill:rgb(100%,84.3%,0%);fill-opacity:1;" d="M 111.929688 447.074219 C 111.929688 453.234375 102.695312 453.234375 102.695312 447.074219 C 102.695312 440.917969 111.929688 440.917969 111.929688 447.074219 "/>
<path style=" stroke:none;fill-rule:nonzero;fill:rgb(100%,84.3%,0%);fill-opacity:1;" d="M 361.28125 437.839844 C 361.28125 443.996094 352.046875 443.996094 352.046875 437.839844 C 352.046875 431.683594 361.28125 431.683594 361.28125 437.839844 "/>
<path style=" stroke:none;fill-rule:nonzero;fill:rgb(100%,84.3%,0%);fill-opacity:1;" d="M 130.402344 447.074219 C 130.402344 453.234375 121.167969 453.234375 121.167969 447.074219 C 121.167969 440.917969 130.402344 440.917969 130.402344 447.074219 "/>
<path style=" stroke:none;fill-rule:nonzero;fill:rgb(100%,84.3%,0%);fill-opacity:1;" d="M 167.339844 111.839844 C 167.339844 117.996094 158.105469 117.996094 158.105469 111.839844 C 158.105469 105.679688 167.339844 105.679688 167.339844 111.839844 "/>
<path style=" stroke:none;fill-rule:nonzero;fill:rgb(100%,84.3%,0%);fill-opacity:1;" d="M 379.75 111.839844 C 379.75 117.996094 370.515625 117.996094 370.515625 111.839844 C 370.515625 105.679688 379.75 105.679688 379.75 111.839844 "/>
<path style=" stroke:none;fill-rule:nonzero;fill:rgb(100%,84.3%,0%);fill-opacity:1;" d="M 158.105469 447.074219 C 158.105469 453.234375 148.871094 453.234375 148.871094 447.074219 C 148.871094 440.917969 158.105469 440.917969 158.105469 447.074219 "/>
<path style=" stroke:none;fill-rule:nonzero;fill:rgb(100%,84.3%,0%);fill-opacity:1;" d="M 464.714844 280.84375 C 464.714844 287 455.480469 287 455.480469 280.84375 C 455.480469 274.6875 464.714844 274.6875 464.714844 280.84375 "/>
<path style=" stroke:none;fill-rule:nonzero;fill:rgb(100%,84.3%,0%);fill-opacity:1;" d="M 102.695312 428.605469 C 102.695312 434.761719 93.460938 434.761719 93.460938 428.605469 C 93.460938 422.449219 102.695312 422.449219 102.695312 428.605469 "/>
<path style=" stroke:none;fill-rule:nonzero;fill:rgb(100%,84.3%,0%);fill-opacity:1;" d="M 56.519531 410.136719 C 56.519531 416.292969 47.285156 416.292969 47.285156 410.136719 C 47.285156 403.980469 56.519531 403.980469 56.519531 410.136719 "/>
<path style=" stroke:none;fill-rule:nonzero;fill:rgb(100%,84.3%,0%);fill-opacity:1;" d="M 195.046875 447.074219 C 195.046875 453.234375 185.8125 453.234375 185.8125 447.074219 C 185.8125 440.917969 195.046875 440.917969 195.046875 447.074219 "/>
<path style=" stroke:none;fill-rule:nonzero;fill:rgb(100%,84.3%,0%);fill-opacity:1;" d="M 464.714844 336.253906 C 464.714844 342.410156 455.480469 342.410156 455.480469 336.253906 C 455.480469 330.097656 464.714844 330.097656 464.714844 336.253906 "/>
<path style=" stroke:none;fill-rule:nonzero;fill:rgb(100%,84.3%,0%);fill-opacity:1;" d="M 56.519531 262.371094 C 56.519531 268.527344 47.285156 268.527344 47.285156 262.371094 C 47.285156 256.214844 56.519531 256.214844 56.519531 262.371094 "/>
<path style=" stroke:none;fill-rule:nonzero;fill:rgb(100%,84.3%,0%);fill-opacity:1;" d="M 84.226562 447.074219 C 84.226562 453.234375 74.992188 453.234375 74.992188 447.074219 C 74.992188 440.917969 84.226562 440.917969 84.226562 447.074219 "/>
<path style=" stroke:none;fill-rule:nonzero;fill:rgb(100%,84.3%,0%);fill-opacity:1;" d="M 65.753906 437.839844 C 65.753906 443.996094 56.519531 443.996094 56.519531 437.839844 C 56.519531 431.683594 65.753906 431.683594 65.753906 437.839844 "/>
<path style=" stroke:none;fill-rule:nonzero;fill:rgb(100%,84.3%,0%);fill-opacity:1;" d="M 296.632812 456.3125 C 296.632812 462.46875 287.398438 462.46875 287.398438 456.3125 C 287.398438 450.15625 296.632812 450.15625 296.632812 456.3125 "/>
<path style=" stroke:none;fill-rule:nonzero;fill:rgb(100%,84.3%,0%);fill-opacity:1;" d="M 324.339844 465.546875 C 324.339844 471.703125 315.105469 471.703125 315.105469 465.546875 C 315.105469 459.390625 324.339844 459.390625 324.339844 465.546875 "/>
<path style=" stroke:none;fill-rule:nonzero;fill:rgb(100%,84.3%,0%);fill-opacity:1;" d="M 259.695312 447.074219 C 259.695312 453.234375 250.457031 453.234375 250.457031 447.074219 C 250.457031 440.917969 259.695312 440.917969 259.695312 447.074219 "/>
<path style=" stroke:none;fill-rule:nonzero;fill:rgb(100%,84.3%,0%);fill-opacity:1;" d="M 370.515625 111.839844 C 370.515625 117.996094 361.28125 117.996094 361.28125 111.839844 C 361.28125 105.679688 370.515625 105.679688 370.515625 111.839844 "/>
<path style=" stroke:none;fill-rule:nonzero;fill:rgb(100%,84.3%,0%);fill-opacity:1;" d="M 278.164062 447.074219 C 278.164062 453.234375 268.929688 453.234375 268.929688 447.074219 C 268.929688 440.917969 278.164062 440.917969 278.164062 447.074219 "/>
<path style=" stroke:none;fill-rule:nonzero;fill:rgb(100%,84.3%,0%);fill-opacity:1;" d="M 111.929688 428.605469 C 111.929688 434.761719 102.695312 434.761719 102.695312 428.605469 C 102.695312 422.449219 111.929688 422.449219 111.929688 428.605469 "/>
<path style=" stroke:none;fill-rule:nonzero;fill:rgb(100%,84.3%,0%);fill-opacity:1;" d="M 102.695312 111.839844 C 102.695312 117.996094 93.460938 117.996094 93.460938 111.839844 C 93.460938 105.679688 102.695312 105.679688 102.695312 111.839844 "/>
<path style=" stroke:none;fill-rule:nonzero;fill:rgb(100%,84.3%,0%);fill-opacity:1;" d="M 222.753906 437.839844 C 222.753906 443.996094 213.519531 443.996094 213.519531 437.839844 C 213.519531 431.683594 222.753906 431.683594 222.753906 437.839844 "/>
<path style=" stroke:none;fill-rule:nonzero;fill:rgb(100%,84.3%,0%);fill-opacity:1;" d="M 158.105469 456.3125 C 158.105469 462.46875 148.871094 462.46875 148.871094 456.3125 C 148.871094 450.15625 158.105469 450.15625 158.105469 456.3125 "/>
<path style=" stroke:none;fill-rule:nonzero;fill:rgb(100%,84.3%,0%);fill-opacity:1;" d="M 333.574219 456.3125 C 333.574219 462.46875 324.339844 462.46875 324.339844 456.3125 C 324.339844 450.15625 333.574219 450.15625 333.574219 456.3125 "/>
<path style=" stroke:none;fill-rule:nonzero;fill:rgb(100%,84.3%,0%);fill-opacity:1;" d="M 185.8125 428.605469 C 185.8125 434.761719 176.578125 434.761719 176.578125 428.605469 C 176.578125 422.449219 185.8125 422.449219 185.8125 428.605469 "/>
<path style=" stroke:none;fill-rule:nonzero;fill:rgb(100%,84.3%,0%);fill-opacity:1;" d="M 93.460938 456.3125 C 93.460938 462.46875 84.226562 462.46875 84.226562 456.3125 C 84.226562 450.15625 93.460938 450.15625 93.460938 456.3125 "/>
<path style=" stroke:none;fill-rule:nonzero;fill:rgb(100%,84.3%,0%);fill-opacity:1;" d="M 250.457031 465.546875 C 250.457031 471.703125 241.222656 471.703125 241.222656 465.546875 C 241.222656 459.390625 250.457031 459.390625 250.457031 465.546875 "/>
<path style=" stroke:none;fill-rule:nonzero;fill:rgb(100%,84.3%,0%);fill-opacity:1;" d="M 93.460938 111.839844 C 93.460938 117.996094 84.226562 117.996094 84.226562 111.839844 C 84.226562 105.679688 93.460938 105.679688 93.460938 111.839844 "/>
<path style=" stroke:none;fill-rule:nonzero;fill:rgb(100%,84.3%,0%);fill-opacity:1;" d="M 84.226562 111.839844 C 84.226562 117.996094 74.992188 117.996094 74.992188 111.839844 C 74.992188 105.679688 84.226562 105.679688 84.226562 111.839844 "/>
<path style=" stroke:none;fill-rule:nonzero;fill:rgb(100%,84.3%,0%);fill-opacity:1;" d="M 379.75 447.074219 C 379.75 453.234375 370.515625 453.234375 370.515625 447.074219 C 370.515625 440.917969 379.75 440.917969 379.75 447.074219 "/>
<path style=" stroke:none;fill-rule:nonzero;fill:rgb(100%,84.3%,0%);fill-opacity:1;" d="M 204.28125 437.839844 C 204.28125 443.996094 195.046875 443.996094 195.046875 437.839844 C 195.046875 431.683594 204.28125 431.683594 204.28125 437.839844 "/>
<path style=" stroke:none;fill-rule:nonzero;fill:rgb(100%,84.3%,0%);fill-opacity:1;" d="M 139.636719 456.3125 C 139.636719 462.46875 130.402344 462.46875 130.402344 456.3125 C 130.402344 450.15625 139.636719 450.15625 139.636719 456.3125 "/>
<path style=" stroke:none;fill-rule:nonzero;fill:rgb(100%,84.3%,0%);fill-opacity:1;" d="M 204.28125 456.3125 C 204.28125 462.46875 195.046875 462.46875 195.046875 456.3125 C 195.046875 450.15625 204.28125 450.15625 204.28125 456.3125 "/>
<path style=" stroke:none;fill-rule:nonzero;fill:rgb(100%,84.3%,0%);fill-opacity:1;" d="M 65.753906 428.605469 C 65.753906 434.761719 56.519531 434.761719 56.519531 428.605469 C 56.519531 422.449219 65.753906 422.449219 65.753906 428.605469 "/>
<path style=" stroke:none;fill-rule:nonzero;fill:rgb(100%,84.3%,0%);fill-opacity:1;" d="M 425.925781 447.074219 C 425.925781 453.234375 416.691406 453.234375 416.691406 447.074219 C 416.691406 440.917969 425.925781 440.917969 425.925781 447.074219 "/>
<path style=" stroke:none;fill-rule:nonzero;fill:rgb(100%,84.3%,0%);fill-opacity:1;" d="M 464.714844 327.019531 C 464.714844 333.175781 455.480469 333.175781 455.480469 327.019531 C 455.480469 320.863281 464.714844 320.863281 464.714844 327.019531 "/>
<path style=" stroke:none;fill-rule:nonzero;fill:rgb(100%,84.3%,0%);fill-opacity:1;" d="M 379.75 465.546875 C 379.75 471.703125 370.515625 471.703125 370.515625 465.546875 C 370.515625 459.390625 379.75 459.390625 379.75 465.546875 "/>
<path style=" stroke:none;fill-rule:nonzero;fill:rgb(100%,84.3%,0%);fill-opacity:1;" d="M 65.753906 456.3125 C 65.753906 462.46875 56.519531 462.46875 56.519531 456.3125 C 56.519531 450.15625 65.753906 450.15625 65.753906 456.3125 "/>
<path style=" stroke:none;fill-rule:nonzero;fill:rgb(100%,84.3%,0%);fill-opacity:1;" d="M 315.105469 456.3125 C 315.105469 462.46875 305.871094 462.46875 305.871094 456.3125 C 305.871094 450.15625 315.105469 450.15625 315.105469 456.3125 "/>
<path style=" stroke:none;fill-rule:nonzero;fill:rgb(100%,84.3%,0%);fill-opacity:1;" d="M 407.457031 437.839844 C 407.457031 443.996094 398.222656 443.996094 398.222656 437.839844 C 398.222656 431.683594 407.457031 431.683594 407.457031 437.839844 "/>
<path style=" stroke:none;fill-rule:nonzero;fill:rgb(100%,84.3%,0%);fill-opacity:1;" d="M 305.871094 447.074219 C 305.871094 453.234375 296.636719 453.234375 296.636719 447.074219 C 296.636719 440.917969 305.871094 440.917969 305.871094 447.074219 "/>
<path style=" stroke:none;fill-rule:nonzero;fill:rgb(100%,84.3%,0%);fill-opacity:1;" d="M 93.460938 437.839844 C 93.460938 443.996094 84.226562 443.996094 84.226562 437.839844 C 84.226562 431.683594 93.460938 431.683594 93.460938 437.839844 "/>
<path style=" stroke:none;fill-rule:nonzero;fill:rgb(100%,84.3%,0%);fill-opacity:1;" d="M 361.28125 447.074219 C 361.28125 453.234375 352.046875 453.234375 352.046875 447.074219 C 352.046875 440.917969 361.28125 440.917969 361.28125 447.074219 "/>
<path style=" stroke:none;fill-rule:nonzero;fill:rgb(100%,84.3%,0%);fill-opacity:1;" d="M 464.714844 133.078125 C 464.714844 139.234375 455.480469 139.234375 455.480469 133.078125 C 455.480469 126.921875 464.714844 126.921875 464.714844 133.078125 "/>
<path style=" stroke:none;fill-rule:nonzero;fill:rgb(100%,84.3%,0%);fill-opacity:1;" d="M 296.632812 447.074219 C 296.632812 453.234375 287.398438 453.234375 287.398438 447.074219 C 287.398438 440.917969 296.632812 440.917969 296.632812 447.074219 "/>
<path style=" stroke:none;fill-rule:nonzero;fill:rgb(100%,84.3%,0%);fill-opacity:1;" d="M 130.402344 437.839844 C 130.402344 443.996094 121.167969 443.996094 121.167969 437.839844 C 121.167969 431.683594 130.402344 431.683594 130.402344 437.839844 "/>
<path style=" stroke:none;fill-rule:nonzero;fill:rgb(100%,84.3%,0%);fill-opacity:1;" d="M 139.636719 437.839844 C 139.636719 443.996094 130.402344 443.996094 130.402344 437.839844 C 130.402344 431.683594 139.636719 431.683594 139.636719 437.839844 "/>
<path style=" stroke:none;fill-rule:nonzero;fill:rgb(100%,84.3%,0%);fill-opacity:1;" d="M 148.871094 437.839844 C 148.871094 443.996094 139.636719 443.996094 139.636719 437.839844 C 139.636719 431.683594 148.871094 431.683594 148.871094 437.839844 "/>
<path style=" stroke:none;fill-rule:nonzero;fill:rgb(100%,84.3%,0%);fill-opacity:1;" d="M 74.988281 111.839844 C 74.988281 117.996094 65.753906 117.996094 65.753906 111.839844 C 65.753906 105.679688 74.988281 105.679688 74.988281 111.839844 "/>
<path style=" stroke:none;fill-rule:nonzero;fill:rgb(100%,84.3%,0%);fill-opacity:1;" d="M 130.402344 428.605469 C 130.402344 434.761719 121.167969 434.761719 121.167969 428.605469 C 121.167969 422.449219 130.402344 422.449219 130.402344 428.605469 "/>
<path style=" stroke:none;fill-rule:nonzero;fill:rgb(100%,84.3%,0%);fill-opacity:1;" d="M 139.636719 428.605469 C 139.636719 434.761719 130.402344 434.761719 130.402344 428.605469 C 130.402344 422.449219 139.636719 422.449219 139.636719 428.605469 "/>
<path style=" stroke:none;fill-rule:nonzero;fill:rgb(100%,84.3%,0%);fill-opacity:1;" d="M 185.8125 437.839844 C 185.8125 443.996094 176.578125 443.996094 176.578125 437.839844 C 176.578125 431.683594 185.8125 431.683594 185.8125 437.839844 "/>
<path style=" stroke:none;fill-rule:nonzero;fill:rgb(100%,84.3%,0%);fill-opacity:1;" d="M 213.519531 111.839844 C 213.519531 117.996094 204.28125 117.996094 204.28125 111.839844 C 204.28125 105.679688 213.519531 105.679688 213.519531 111.839844 "/>
<path style=" stroke:none;fill-rule:nonzero;fill:rgb(100%,84.3%,0%);fill-opacity:1;" d="M 56.519531 271.609375 C 56.519531 277.765625 47.285156 277.765625 47.285156 271.609375 C 47.285156 265.453125 56.519531 265.453125 56.519531 271.609375 "/>
<path style=" stroke:none;fill-rule:nonzero;fill:rgb(100%,84.3%,0%);fill-opacity:1;" d="M 370.515625 465.546875 C 370.515625 471.703125 361.28125 471.703125 361.28125 465.546875 C 361.28125 459.390625 370.515625 459.390625 370.515625 465.546875 "/>
<path style=" stroke:none;fill-rule:nonzero;fill:rgb(100%,84.3%,0%);fill-opacity:1;" d="M 111.929688 111.839844 C 111.929688 117.996094 102.695312 117.996094 102.695312 111.839844 C 102.695312 105.679688 111.929688 105.679688 111.929688 111.839844 "/>
<path style=" stroke:none;fill-rule:nonzero;fill:rgb(100%,84.3%,0%);fill-opacity:1;" d="M 56.519531 336.253906 C 56.519531 342.410156 47.285156 342.410156 47.285156 336.253906 C 47.285156 330.097656 56.519531 330.097656 56.519531 336.253906 "/>
<path style=" stroke:none;fill-rule:nonzero;fill:rgb(100%,84.3%,0%);fill-opacity:1;" d="M 148.871094 111.839844 C 148.871094 117.996094 139.636719 117.996094 139.636719 111.839844 C 139.636719 105.679688 148.871094 105.679688 148.871094 111.839844 "/>
<path style=" stroke:none;fill-rule:nonzero;fill:rgb(100%,84.3%,0%);fill-opacity:1;" d="M 176.578125 111.839844 C 176.578125 117.996094 167.34375 117.996094 167.34375 111.839844 C 167.34375 105.679688 176.578125 105.679688 176.578125 111.839844 "/>
<path style=" stroke:none;fill-rule:nonzero;fill:rgb(100%,84.3%,0%);fill-opacity:1;" d="M 259.695312 437.839844 C 259.695312 443.996094 250.457031 443.996094 250.457031 437.839844 C 250.457031 431.683594 259.695312 431.683594 259.695312 437.839844 "/>
<path style=" stroke:none;fill-rule:nonzero;fill:rgb(100%,84.3%,0%);fill-opacity:1;" d="M 464.714844 142.316406 C 464.714844 148.472656 455.480469 148.472656 455.480469 142.316406 C 455.480469 136.15625 464.714844 136.15625 464.714844 142.316406 "/>
<path style=" stroke:none;fill-rule:nonzero;fill:rgb(100%,84.3%,0%);fill-opacity:1;" d="M 148.871094 428.605469 C 148.871094 434.761719 139.636719 434.761719 139.636719 428.605469 C 139.636719 422.449219 148.871094 422.449219 148.871094 428.605469 "/>
<path style=" stroke:none;fill-rule:nonzero;fill:rgb(100%,84.3%,0%);fill-opacity:1;" d="M 370.515625 437.839844 C 370.515625 443.996094 361.28125 443.996094 361.28125 437.839844 C 361.28125 431.683594 370.515625 431.683594 370.515625 437.839844 "/>
<path style=" stroke:none;fill-rule:nonzero;fill:rgb(100%,84.3%,0%);fill-opacity:1;" d="M 296.632812 437.839844 C 296.632812 443.996094 287.398438 443.996094 287.398438 437.839844 C 287.398438 431.683594 296.632812 431.683594 296.632812 437.839844 "/>
<path style=" stroke:none;fill-rule:nonzero;fill:rgb(100%,84.3%,0%);fill-opacity:1;" d="M 342.8125 456.3125 C 342.8125 462.46875 333.574219 462.46875 333.574219 456.3125 C 333.574219 450.15625 342.8125 450.15625 342.8125 456.3125 "/>
<path style=" stroke:none;fill-rule:nonzero;fill:rgb(100%,84.3%,0%);fill-opacity:1;" d="M 342.8125 447.074219 C 342.8125 453.234375 333.574219 453.234375 333.574219 447.074219 C 333.574219 440.917969 342.8125 440.917969 342.8125 447.074219 "/>
<path style=" stroke:none;fill-rule:nonzero;fill:rgb(100%,84.3%,0%);fill-opacity:1;" d="M 93.460938 447.074219 C 93.460938 453.234375 84.226562 453.234375 84.226562 447.074219 C 84.226562 440.917969 93.460938 440.917969 93.460938 447.074219 "/>
<path style=" stroke:none;fill-rule:nonzero;fill:rgb(100%,84.3%,0%);fill-opacity:1;" d="M 352.046875 428.605469 C 352.046875 434.761719 342.8125 434.761719 342.8125 428.605469 C 342.8125 422.449219 352.046875 422.449219 352.046875 428.605469 "/>
<path style=" stroke:none;fill-rule:nonzero;fill:rgb(100%,84.3%,0%);fill-opacity:1;" d="M 84.226562 456.3125 C 84.226562 462.46875 74.992188 462.46875 74.992188 456.3125 C 74.992188 450.15625 84.226562 450.15625 84.226562 456.3125 "/>
<path style=" stroke:none;fill-rule:nonzero;fill:rgb(100%,84.3%,0%);fill-opacity:1;" d="M 315.105469 428.605469 C 315.105469 434.761719 305.871094 434.761719 305.871094 428.605469 C 305.871094 422.449219 315.105469 422.449219 315.105469 428.605469 "/>
<path style=" stroke:none;fill-rule:nonzero;fill:rgb(100%,84.3%,0%);fill-opacity:1;" d="M 250.457031 111.839844 C 250.457031 117.996094 241.222656 117.996094 241.222656 111.839844 C 241.222656 105.679688 250.457031 105.679688 250.457031 111.839844 "/>
<path style=" stroke:none;fill-rule:nonzero;fill:rgb(100%,84.3%,0%);fill-opacity:1;" d="M 287.398438 437.839844 C 287.398438 443.996094 278.164062 443.996094 278.164062 437.839844 C 278.164062 431.683594 287.398438 431.683594 287.398438 437.839844 "/>
<path style=" stroke:none;fill-rule:nonzero;fill:rgb(100%,84.3%,0%);fill-opacity:1;" d="M 139.636719 111.839844 C 139.636719 117.996094 130.402344 117.996094 130.402344 111.839844 C 130.402344 105.679688 139.636719 105.679688 139.636719 111.839844 "/>
<path style=" stroke:none;fill-rule:nonzero;fill:rgb(100%,84.3%,0%);fill-opacity:1;" d="M 464.714844 170.019531 C 464.714844 176.175781 455.480469 176.175781 455.480469 170.019531 C 455.480469 163.863281 464.714844 163.863281 464.714844 170.019531 "/>
<path style=" stroke:none;fill-rule:nonzero;fill:rgb(100%,84.3%,0%);fill-opacity:1;" d="M 464.714844 160.785156 C 464.714844 166.941406 455.480469 166.941406 455.480469 160.785156 C 455.480469 154.628906 464.714844 154.628906 464.714844 160.785156 "/>
<path style=" stroke:none;fill-rule:nonzero;fill:rgb(100%,84.3%,0%);fill-opacity:1;" d="M 74.988281 437.839844 C 74.988281 443.996094 65.753906 443.996094 65.753906 437.839844 C 65.753906 431.683594 74.988281 431.683594 74.988281 437.839844 "/>
<path style=" stroke:none;fill-rule:nonzero;fill:rgb(100%,84.3%,0%);fill-opacity:1;" d="M 56.519531 280.84375 C 56.519531 287 47.285156 287 47.285156 280.84375 C 47.285156 274.6875 56.519531 274.6875 56.519531 280.84375 "/>
<path style=" stroke:none;fill-rule:nonzero;fill:rgb(100%,84.3%,0%);fill-opacity:1;" d="M 425.925781 437.839844 C 425.925781 443.996094 416.691406 443.996094 416.691406 437.839844 C 416.691406 431.683594 425.925781 431.683594 425.925781 437.839844 "/>
<path style=" stroke:none;fill-rule:nonzero;fill:rgb(100%,84.3%,0%);fill-opacity:1;" d="M 241.222656 111.839844 C 241.222656 117.996094 231.988281 117.996094 231.988281 111.839844 C 231.988281 105.679688 241.222656 105.679688 241.222656 111.839844 "/>
<path style=" stroke:none;fill-rule:nonzero;fill:rgb(100%,84.3%,0%);fill-opacity:1;" d="M 65.753906 447.074219 C 65.753906 453.234375 56.519531 453.234375 56.519531 447.074219 C 56.519531 440.917969 65.753906 440.917969 65.753906 447.074219 "/>
<path style=" stroke:none;fill-rule:nonzero;fill:rgb(100%,84.3%,0%);fill-opacity:1;" d="M 464.714844 151.550781 C 464.714844 157.707031 455.480469 157.707031 455.480469 151.550781 C 455.480469 145.394531 464.714844 145.394531 464.714844 151.550781 "/>
<path style=" stroke:none;fill-rule:nonzero;fill:rgb(100%,84.3%,0%);fill-opacity:1;" d="M 416.691406 447.074219 C 416.691406 453.234375 407.457031 453.234375 407.457031 447.074219 C 407.457031 440.917969 416.691406 440.917969 416.691406 447.074219 "/>
<path style=" stroke:none;fill-rule:nonzero;fill:rgb(100%,84.3%,0%);fill-opacity:1;" d="M 231.988281 111.839844 C 231.988281 117.996094 222.753906 117.996094 222.753906 111.839844 C 222.753906 105.679688 231.988281 105.679688 231.988281 111.839844 "/>
<path style=" stroke:none;fill-rule:nonzero;fill:rgb(100%,84.3%,0%);fill-opacity:1;" d="M 407.457031 428.605469 C 407.457031 434.761719 398.222656 434.761719 398.222656 428.605469 C 398.222656 422.449219 407.457031 422.449219 407.457031 428.605469 "/>
<path style=" stroke:none;fill-rule:nonzero;fill:rgb(100%,84.3%,0%);fill-opacity:1;" d="M 121.164062 111.839844 C 121.164062 117.996094 111.929688 117.996094 111.929688 111.839844 C 111.929688 105.679688 121.164062 105.679688 121.164062 111.839844 "/>
<path style=" stroke:none;fill-rule:nonzero;fill:rgb(100%,84.3%,0%);fill-opacity:1;" d="M 176.578125 447.074219 C 176.578125 453.234375 167.34375 453.234375 167.34375 447.074219 C 167.34375 440.917969 176.578125 440.917969 176.578125 447.074219 "/>
<path style=" stroke:none;fill-rule:nonzero;fill:rgb(100%,84.3%,0%);fill-opacity:1;" d="M 287.398438 447.074219 C 287.398438 453.234375 278.164062 453.234375 278.164062 447.074219 C 278.164062 440.917969 287.398438 440.917969 287.398438 447.074219 "/>
<path style=" stroke:none;fill-rule:nonzero;fill:rgb(100%,84.3%,0%);fill-opacity:1;" d="M 121.164062 428.605469 C 121.164062 434.761719 111.929688 434.761719 111.929688 428.605469 C 111.929688 422.449219 121.164062 422.449219 121.164062 428.605469 "/>
<path style=" stroke:none;fill-rule:nonzero;fill:rgb(100%,84.3%,0%);fill-opacity:1;" d="M 278.164062 428.605469 C 278.164062 434.761719 268.929688 434.761719 268.929688 428.605469 C 268.929688 422.449219 278.164062 422.449219 278.164062 428.605469 "/>
<path style=" stroke:none;fill-rule:nonzero;fill:rgb(100%,84.3%,0%);fill-opacity:1;" d="M 176.578125 437.839844 C 176.578125 443.996094 167.34375 443.996094 167.34375 437.839844 C 167.34375 431.683594 176.578125 431.683594 176.578125 437.839844 "/>
<path style=" stroke:none;fill-rule:nonzero;fill:rgb(100%,84.3%,0%);fill-opacity:1;" d="M 278.164062 437.839844 C 278.164062 443.996094 268.929688 443.996094 268.929688 437.839844 C 268.929688 431.683594 278.164062 431.683594 278.164062 437.839844 "/>
<path style=" stroke:none;fill-rule:nonzero;fill:rgb(100%,84.3%,0%);fill-opacity:1;" d="M 342.8125 465.546875 C 342.8125 471.703125 333.574219 471.703125 333.574219 465.546875 C 333.574219 459.390625 342.8125 459.390625 342.8125 465.546875 "/>
<path style=" stroke:none;fill-rule:nonzero;fill:rgb(100%,84.3%,0%);fill-opacity:1;" d="M 56.519531 225.429688 C 56.519531 231.585938 47.285156 231.585938 47.285156 225.429688 C 47.285156 219.273438 56.519531 219.273438 56.519531 225.429688 "/>
<path style=" stroke:none;fill-rule:nonzero;fill:rgb(100%,84.3%,0%);fill-opacity:1;" d="M 370.515625 428.605469 C 370.515625 434.761719 361.28125 434.761719 361.28125 428.605469 C 361.28125 422.449219 370.515625 422.449219 370.515625 428.605469 "/>
<path style=" stroke:none;fill-rule:nonzero;fill:rgb(100%,84.3%,0%);fill-opacity:1;" d="M 333.574219 447.074219 C 333.574219 453.234375 324.339844 453.234375 324.339844 447.074219 C 324.339844 440.917969 333.574219 440.917969 333.574219 447.074219 "/>
<path style=" stroke:none;fill-rule:nonzero;fill:rgb(100%,84.3%,0%);fill-opacity:1;" d="M 361.28125 465.546875 C 361.28125 471.703125 352.046875 471.703125 352.046875 465.546875 C 352.046875 459.390625 361.28125 459.390625 361.28125 465.546875 "/>
<path style=" stroke:none;fill-rule:nonzero;fill:rgb(100%,84.3%,0%);fill-opacity:1;" d="M 204.28125 111.839844 C 204.28125 117.996094 195.046875 117.996094 195.046875 111.839844 C 195.046875 105.679688 204.28125 105.679688 204.28125 111.839844 "/>
<path style=" stroke:none;fill-rule:nonzero;fill:rgb(100%,84.3%,0%);fill-opacity:1;" d="M 213.519531 428.605469 C 213.519531 434.761719 204.28125 434.761719 204.28125 428.605469 C 204.28125 422.449219 213.519531 422.449219 213.519531 428.605469 "/>
<path style=" stroke:none;fill-rule:nonzero;fill:rgb(100%,84.3%,0%);fill-opacity:1;" d="M 352.046875 456.3125 C 352.046875 462.46875 342.8125 462.46875 342.8125 456.3125 C 342.8125 450.15625 352.046875 450.15625 352.046875 456.3125 "/>
<path style=" stroke:none;fill-rule:nonzero;fill:rgb(100%,84.3%,0%);fill-opacity:1;" d="M 231.988281 428.605469 C 231.988281 434.761719 222.753906 434.761719 222.753906 428.605469 C 222.753906 422.449219 231.988281 422.449219 231.988281 428.605469 "/>
<path style=" stroke:none;fill-rule:nonzero;fill:rgb(100%,84.3%,0%);fill-opacity:1;" d="M 130.402344 111.839844 C 130.402344 117.996094 121.167969 117.996094 121.167969 111.839844 C 121.167969 105.679688 130.402344 105.679688 130.402344 111.839844 "/>
<path style=" stroke:none;fill-rule:nonzero;fill:rgb(100%,84.3%,0%);fill-opacity:1;" d="M 250.457031 428.605469 C 250.457031 434.761719 241.222656 434.761719 241.222656 428.605469 C 241.222656 422.449219 250.457031 422.449219 250.457031 428.605469 "/>
<path style=" stroke:none;fill-rule:nonzero;fill:rgb(100%,84.3%,0%);fill-opacity:1;" d="M 259.695312 428.605469 C 259.695312 434.761719 250.457031 434.761719 250.457031 428.605469 C 250.457031 422.449219 259.695312 422.449219 259.695312 428.605469 "/>
<path style=" stroke:none;fill-rule:nonzero;fill:rgb(100%,84.3%,0%);fill-opacity:1;" d="M 56.519531 327.019531 C 56.519531 333.175781 47.285156 333.175781 47.285156 327.019531 C 47.285156 320.863281 56.519531 320.863281 56.519531 327.019531 "/>
<path style=" stroke:none;fill-rule:nonzero;fill:rgb(100%,84.3%,0%);fill-opacity:1;" d="M 167.339844 437.839844 C 167.339844 443.996094 158.105469 443.996094 158.105469 437.839844 C 158.105469 431.683594 167.339844 431.683594 167.339844 437.839844 "/>
<path style=" stroke:none;fill-rule:nonzero;fill:rgb(100%,84.3%,0%);fill-opacity:1;" d="M 204.28125 428.605469 C 204.28125 434.761719 195.046875 434.761719 195.046875 428.605469 C 195.046875 422.449219 204.28125 422.449219 204.28125 428.605469 "/>
<path style=" stroke:none;fill-rule:nonzero;fill:rgb(100%,84.3%,0%);fill-opacity:1;" d="M 296.632812 428.605469 C 296.632812 434.761719 287.398438 434.761719 287.398438 428.605469 C 287.398438 422.449219 296.632812 422.449219 296.632812 428.605469 "/>
<path style=" stroke:none;fill-rule:nonzero;fill:rgb(100%,84.3%,0%);fill-opacity:1;" d="M 195.046875 437.839844 C 195.046875 443.996094 185.8125 443.996094 185.8125 437.839844 C 185.8125 431.683594 195.046875 431.683594 195.046875 437.839844 "/>
<path style=" stroke:none;fill-rule:nonzero;fill:rgb(100%,84.3%,0%);fill-opacity:1;" d="M 352.046875 437.839844 C 352.046875 443.996094 342.8125 443.996094 342.8125 437.839844 C 342.8125 431.683594 352.046875 431.683594 352.046875 437.839844 "/>
<path style=" stroke:none;fill-rule:nonzero;fill:rgb(100%,84.3%,0%);fill-opacity:1;" d="M 222.753906 447.074219 C 222.753906 453.234375 213.519531 453.234375 213.519531 447.074219 C 213.519531 440.917969 222.753906 440.917969 222.753906 447.074219 "/>
<path style=" stroke:none;fill-rule:nonzero;fill:rgb(100%,84.3%,0%);fill-opacity:1;" d="M 121.164062 456.3125 C 121.164062 462.46875 111.929688 462.46875 111.929688 456.3125 C 111.929688 450.15625 121.164062 450.15625 121.164062 456.3125 "/>
<path style=" stroke:none;fill-rule:nonzero;fill:rgb(100%,84.3%,0%);fill-opacity:1;" d="M 342.8125 428.605469 C 342.8125 434.761719 333.574219 434.761719 333.574219 428.605469 C 333.574219 422.449219 342.8125 422.449219 342.8125 428.605469 "/>
<path style=" stroke:none;fill-rule:nonzero;fill:rgb(100%,84.3%,0%);fill-opacity:1;" d="M 333.574219 437.839844 C 333.574219 443.996094 324.339844 443.996094 324.339844 437.839844 C 324.339844 431.683594 333.574219 431.683594 333.574219 437.839844 "/>
<path style=" stroke:none;fill-rule:nonzero;fill:rgb(100%,84.3%,0%);fill-opacity:1;" d="M 361.28125 428.605469 C 361.28125 434.761719 352.046875 434.761719 352.046875 428.605469 C 352.046875 422.449219 361.28125 422.449219 361.28125 428.605469 "/>
<path style=" stroke:none;fill-rule:nonzero;fill:rgb(100%,84.3%,0%);fill-opacity:1;" d="M 176.578125 428.605469 C 176.578125 434.761719 167.34375 434.761719 167.34375 428.605469 C 167.34375 422.449219 176.578125 422.449219 176.578125 428.605469 "/>
<path style=" stroke:none;fill-rule:nonzero;fill:rgb(100%,84.3%,0%);fill-opacity:1;" d="M 278.164062 456.3125 C 278.164062 462.46875 268.929688 462.46875 268.929688 456.3125 C 268.929688 450.15625 278.164062 450.15625 278.164062 456.3125 "/>
<path style=" stroke:none;fill-rule:nonzero;fill:rgb(100%,84.3%,0%);fill-opacity:1;" d="M 464.714844 179.253906 C 464.714844 185.410156 455.480469 185.410156 455.480469 179.253906 C 455.480469 173.097656 464.714844 173.097656 464.714844 179.253906 "/>
<path style=" stroke:none;fill-rule:nonzero;fill:rgb(100%,84.3%,0%);fill-opacity:1;" d="M 398.222656 428.605469 C 398.222656 434.761719 388.988281 434.761719 388.988281 428.605469 C 388.988281 422.449219 398.222656 422.449219 398.222656 428.605469 "/>
<path style=" stroke:none;fill-rule:nonzero;fill:rgb(100%,84.3%,0%);fill-opacity:1;" d="M 222.753906 111.839844 C 222.753906 117.996094 213.519531 117.996094 213.519531 111.839844 C 213.519531 105.679688 222.753906 105.679688 222.753906 111.839844 "/>
<path style=" stroke:none;fill-rule:nonzero;fill:rgb(100%,84.3%,0%);fill-opacity:1;" d="M 416.691406 428.605469 C 416.691406 434.761719 407.457031 434.761719 407.457031 428.605469 C 407.457031 422.449219 416.691406 422.449219 416.691406 428.605469 "/>
<path style=" stroke:none;fill-rule:nonzero;fill:rgb(100%,84.3%,0%);fill-opacity:1;" d="M 130.402344 456.3125 C 130.402344 462.46875 121.167969 462.46875 121.167969 456.3125 C 121.167969 450.15625 130.402344 450.15625 130.402344 456.3125 "/>
<path style=" stroke:none;fill-rule:nonzero;fill:rgb(100%,84.3%,0%);fill-opacity:1;" d="M 435.164062 428.605469 C 435.164062 434.761719 425.925781 434.761719 425.925781 428.605469 C 425.925781 422.449219 435.164062 422.449219 435.164062 428.605469 "/>
<path style=" stroke:none;fill-rule:nonzero;fill:rgb(100%,84.3%,0%);fill-opacity:1;" d="M 74.988281 447.074219 C 74.988281 453.234375 65.753906 453.234375 65.753906 447.074219 C 65.753906 440.917969 74.988281 440.917969 74.988281 447.074219 "/>
<path style=" stroke:none;fill-rule:nonzero;fill:rgb(100%,84.3%,0%);fill-opacity:1;" d="M 464.714844 123.84375 C 464.714844 130 455.480469 130 455.480469 123.84375 C 455.480469 117.6875 464.714844 117.6875 464.714844 123.84375 "/>
</g>
</svg>
