<?xml version="1.0" encoding="UTF-8"?>
<svg xmlns="http://www.w3.org/2000/svg" xmlns:xlink="http://www.w3.org/1999/xlink" width="512pt" height="512pt" viewBox="0 0 512 512" version="1.1">
<g id="surface61">
<rect x="0" y="0" width="512" height="512" style="fill:rgb(26.7%,26.7%,26.7%);fill-opacity:1;stroke:none;"/>
<path style=" stroke:none;fill-rule:nonzero;fill:rgb(19.2%,38.8%,66.7%);fill-opacity:1;" d="M 37.363281 42.667969 L 411.011719 42.667969 L 411.011719 469.332031 L 37.363281 469.332031 Z M 37.363281 42.667969 "/>
<path style=" stroke:none;fill-rule:nonzero;fill:rgb(100%,100%,100%);fill-opacity:1;" d="M 481.703125 171.425781 C 481.703125 178.394531 476.050781 184.046875 469.082031 184.046875 C 462.109375 184.046875 456.457031 178.394531 456.457031 171.425781 C 456.457031 164.453125 462.109375 158.800781 469.082031 158.800781 C 476.050781 158.800781 481.703125 164.453125 481.703125 171.425781 "/>
<path style=" stroke:none;fill-rule:nonzero;fill:rgb(100%,100%,100%);fill-opacity:1;" d="M 494.328125 441.5625 C 494.328125 448.535156 488.675781 454.183594 481.703125 454.183594 C 474.730469 454.183594 469.082031 448.535156 469.082031 441.5625 C 469.082031 434.589844 474.730469 428.9375 481.703125 428.9375 C 488.675781 428.9375 494.328125 434.589844 494.328125 441.5625 "/>
<path style=" stroke:none;fill-rule:nonzero;fill:rgb(100%,100%,100%);fill-opacity:1;" d="M 77.757812 19.945312 C 77.757812 26.917969 72.109375 32.566406 65.136719 32.566406 C 58.164062 32.566406 52.511719 26.917969 52.511719 19.945312 C 52.511719 12.972656 58.164062 7.320312 65.136719 7.320312 C 72.109375 7.320312 77.757812 12.972656 77.757812 19.945312 "/>
<path style=" stroke:none;fill-rule:nonzero;fill:rgb(100%,100%,100%);fill-opacity:1;" d="M 310.027344 -10.351562 C 310.027344 -3.378906 304.375 2.273438 297.402344 2.273438 C 290.433594 2.273438 284.78125 -3.378906 284.78125 -10.351562 C 284.78125 -17.324219 290.433594 -22.972656 297.402344 -22.972656 C 304.375 -22.972656 310.027344 -17.324219 310.027344 -10.351562 "/>
<path style=" stroke:none;fill-rule:nonzero;fill:rgb(100%,100%,100%);fill-opacity:1;" d="M 464.03125 363.296875 C 464.03125 370.269531 458.378906 375.921875 451.40625 375.921875 C 444.4375 375.921875 438.785156 370.269531 438.785156 363.296875 C 438.785156 356.328125 444.4375 350.675781 451.40625 350.675781 C 458.378906 350.675781 464.03125 356.328125 464.03125 363.296875 "/>
<path style=" stroke:none;fill-rule:nonzero;fill:rgb(100%,100%,100%);fill-opacity:1;" d="M 496.851562 396.117188 C 496.851562 403.089844 491.199219 408.742188 484.230469 408.742188 C 477.257812 408.742188 471.605469 403.089844 471.605469 396.117188 C 471.605469 389.144531 477.257812 383.496094 484.230469 383.496094 C 491.199219 383.496094 496.851562 389.144531 496.851562 396.117188 "/>
<path style=" stroke:none;fill-rule:nonzero;fill:rgb(100%,84.3%,0%);fill-opacity:1;" d="M 75.234375 90.636719 C 75.234375 97.605469 69.582031 103.257812 62.609375 103.257812 C 55.640625 103.257812 49.988281 97.605469 49.988281 90.636719 C 49.988281 83.664062 55.640625 78.011719 62.609375 78.011719 C 69.582031 78.011719 75.234375 83.664062 75.234375 90.636719 "/>
<path style=" stroke:none;fill-rule:nonzero;fill:rgb(100%,84.3%,0%);fill-opacity:1;" d="M 302.453125 90.636719 C 302.453125 97.605469 296.800781 103.257812 289.828125 103.257812 C 282.859375 103.257812 277.207031 97.605469 277.207031 90.636719 C 277.207031 83.664062 282.859375 78.011719 289.828125 78.011719 C 296.800781 78.011719 302.453125 83.664062 302.453125 90.636719 "/>
<path style=" stroke:none;fill-rule:nonzero;fill:rgb(100%,84.3%,0%);fill-opacity:1;" d="M 100.480469 90.636719 C 100.480469 97.605469 94.828125 103.257812 87.859375 103.257812 C 80.886719 103.257812 75.234375 97.605469 75.234375 90.636719 C 75.234375 83.664062 80.886719 78.011719 87.859375 78.011719 C 94.828125 78.011719 100.480469 83.664062 100.480469 90.636719 "/>
<path style=" stroke:none;fill-rule:nonzero;fill:rgb(100%,84.3%,0%);fill-opacity:1;" d="M 125.726562 90.636719 C 125.726562 97.605469 120.078125 103.257812 113.105469 103.257812 C 106.132812 103.257812 100.480469 97.605469 100.480469 90.636719 C 100.480469 83.664062 106.132812 78.011719 113.105469 78.011719 C 120.078125 78.011719 125.726562 83.664062 125.726562 90.636719 "/>
<path style=" stroke:none;fill-rule:nonzero;fill:rgb(100%,84.3%,0%);fill-opacity:1;" d="M 75.234375 115.882812 C 75.234375 122.855469 69.582031 128.503906 62.609375 128.503906 C 55.640625 128.503906 49.988281 122.855469 49.988281 115.882812 C 49.988281 108.910156 55.640625 103.257812 62.609375 103.257812 C 69.582031 103.257812 75.234375 108.910156 75.234375 115.882812 "/>
</g>
</svg>
