<?xml version="1.0" encoding="UTF-8"?>
<svg xmlns="http://www.w3.org/2000/svg" xmlns:xlink="http://www.w3.org/1999/xlink" width="512pt" height="512pt" viewBox="0 0 512 512" version="1.1">
<g id="surface81">
<rect x="0" y="0" width="512" height="512" style="fill:rgb(26.7%,26.7%,26.7%);fill-opacity:1;stroke:none;"/>
<path style=" stroke:none;fill-rule:nonzero;fill:rgb(19.2%,38.8%,66.7%);fill-opacity:1;" d="M 0 46.546875 L 333.640625 46.546875 L 333.640625 512 L 0 512 Z M 0 46.546875 "/>
<path style=" stroke:none;fill-rule:nonzero;fill:rgb(100%,100%,100%);fill-opacity:1;" d="M 511.617188 -0.128906 C 511.617188 1.582031 509.050781 1.582031 509.050781 -0.128906 C 509.050781 -1.835938 511.617188 -1.835938 511.617188 -0.128906 "/>
<path style=" stroke:none;fill-rule:nonzero;fill:rgb(100%,100%,100%);fill-opacity:1;" d="M 341.589844 89.886719 C 341.589844 91.59375 339.027344 91.59375 339.027344 89.886719 C 339.027344 88.175781 341.589844 88.175781 341.589844 89.886719 "/>
<path style=" stroke:none;fill-rule:nonzero;fill:rgb(100%,100%,100%);fill-opacity:1;" d="M 361.335938 509.4375 C 361.335938 511.144531 358.773438 511.144531 358.773438 509.4375 C 358.773438 507.726562 361.335938 507.726562 361.335938 509.4375 "/>
<path style=" stroke:none;fill-rule:nonzero;fill:rgb(100%,84.3%,0%);fill-opacity:1;" d="M 332.101562 88.859375 C 332.101562 90.570312 329.535156 90.570312 329.535156 88.859375 C 329.535156 87.148438 332.101562 87.148438 332.101562 88.859375 "/>
<path style=" stroke:none;fill-rule:nonzero;fill:rgb(100%,84.3%,0%);fill-opacity:1;" d="M 332.101562 96.554688 C 332.101562 98.261719 329.535156 98.261719 329.535156 96.554688 C 329.535156 94.84375 332.101562 94.84375 332.101562 96.554688 "/>
<path style=" stroke:none;fill-rule:nonzero;fill:rgb(100%,84.3%,0%);fill-opacity:1;" d="M 329.535156 83.730469 C 329.535156 85.441406 326.972656 85.441406 326.972656 83.730469 C 326.972656 82.019531 329.535156 82.019531 329.535156 83.730469 "/>
<path style=" stroke:none;fill-rule:nonzero;fill:rgb(100%,84.3%,0%);fill-opacity:1;" d="M 329.535156 88.859375 C 329.535156 90.570312 326.972656 90.570312 326.972656 88.859375 C 326.972656 87.148438 329.535156 87.148438 329.535156 88.859375 "/>
<path style=" stroke:none;fill-rule:nonzero;fill:rgb(100%,84.3%,0%);fill-opacity:1;" d="M 329.535156 86.296875 C 329.535156 88.003906 326.972656 88.003906 326.972656 86.296875 C 326.972656 84.585938 329.535156 84.585938 329.535156 86.296875 "/>
<path style=" stroke:none;fill-rule:nonzero;fill:rgb(100%,84.3%,0%);fill-opacity:1;" d="M 329.535156 96.554688 C 329.535156 98.261719 326.972656 98.261719 326.972656 96.554688 C 326.972656 94.84375 329.535156 94.84375 329.535156 96.554688 "/>
<path style=" stroke:none;fill-rule:nonzero;fill:rgb(100%,84.3%,0%);fill-opacity:1;" d="M 329.535156 93.988281 C 329.535156 95.699219 326.972656 95.699219 326.972656 93.988281 C 326.972656 92.277344 329.535156 92.277344 329.535156 93.988281 "/>
<path style=" stroke:none;fill-rule:nonzero;fill:rgb(100%,84.3%,0%);fill-opacity:1;" d="M 332.101562 83.730469 C 332.101562 85.441406 329.535156 85.441406 329.535156 83.730469 C 329.535156 82.019531 332.101562 82.019531 332.101562 83.730469 "/>
<path style=" stroke:none;fill-rule:nonzero;fill:rgb(100%,84.3%,0%);fill-opacity:1;" d="M 332.101562 91.425781 C 332.101562 93.132812 329.535156 93.132812 329.535156 91.425781 C 329.535156 89.714844 332.101562 89.714844 332.101562 91.425781 "/>
<path style=" stroke:none;fill-rule:nonzero;fill:rgb(100%,84.3%,0%);fill-opacity:1;" d="M 332.101562 81.164062 C 332.101562 82.875 329.535156 82.875 329.535156 81.164062 C 329.535156 79.457031 332.101562 79.457031 332.101562 81.164062 "/>
<path style=" stroke:none;fill-rule:nonzero;fill:rgb(100%,84.3%,0%);fill-opacity:1;" d="M 332.101562 99.117188 C 332.101562 100.828125 329.535156 100.828125 329.535156 99.117188 C 329.535156 97.40625 332.101562 97.40625 332.101562 99.117188 "/>
<path style=" stroke:none;fill-rule:nonzero;fill:rgb(100%,84.3%,0%);fill-opacity:1;" d="M 332.101562 86.296875 C 332.101562 88.003906 329.535156 88.003906 329.535156 86.296875 C 329.535156 84.585938 332.101562 84.585938 332.101562 86.296875 "/>
<path style=" stroke:none;fill-rule:nonzero;fill:rgb(100%,84.3%,0%);fill-opacity:1;" d="M 332.101562 93.988281 C 332.101562 95.699219 329.535156 95.699219 329.535156 93.988281 C 329.535156 92.277344 332.101562 92.277344 332.101562 93.988281 "/>
<path style=" stroke:none;fill-rule:nonzero;fill:rgb(100%,84.3%,0%);fill-opacity:1;" d="M 329.535156 91.425781 C 329.535156 93.132812 326.972656 93.132812 326.972656 91.425781 C 326.972656 89.714844 329.535156 89.714844 329.535156 91.425781 "/>
</g>
</svg>
