<?xml version="1.0" encoding="UTF-8"?>
<svg xmlns="http://www.w3.org/2000/svg" xmlns:xlink="http://www.w3.org/1999/xlink" width="512pt" height="512pt" viewBox="0 0 512 512" version="1.1">
<g id="surface96">
<rect x="0" y="0" width="512" height="512" style="fill:rgb(26.7%,26.7%,26.7%);fill-opacity:1;stroke:none;"/>
<path style=" stroke:none;fill-rule:nonzero;fill:rgb(19.2%,38.8%,66.7%);fill-opacity:1;" d="M 0 46.546875 L 309.101562 46.546875 L 309.101562 512 L 0 512 Z M 0 46.546875 "/>
<path style=" stroke:none;fill-rule:nonzero;fill:rgb(100%,100%,100%);fill-opacity:1;" d="M 384.480469 178.304688 C 384.480469 179.636719 382.480469 179.636719 382.480469 178.304688 C 382.480469 176.972656 384.480469 176.972656 384.480469 178.304688 "/>
<path style=" stroke:none;fill-rule:nonzero;fill:rgb(100%,100%,100%);fill-opacity:1;" d="M 401.476562 505.203125 C 401.476562 506.535156 399.476562 506.535156 399.476562 505.203125 C 399.476562 503.867188 401.476562 503.867188 401.476562 505.203125 "/>
<path style=" stroke:none;fill-rule:nonzero;fill:rgb(100%,100%,100%);fill-opacity:1;" d="M 502.441406 258.277344 C 502.441406 259.613281 500.441406 259.613281 500.441406 258.277344 C 500.441406 256.945312 502.441406 256.945312 502.441406 258.277344 "/>
<path style=" stroke:none;fill-rule:nonzero;fill:rgb(100%,100%,100%);fill-opacity:1;" d="M 400.273438 434.023438 C 400.273438 435.355469 398.273438 435.355469 398.273438 434.023438 C 398.273438 432.691406 400.273438 432.691406 400.273438 434.023438 "/>
<path style=" stroke:none;fill-rule:nonzero;fill:rgb(100%,100%,100%);fill-opacity:1;" d="M 464.65625 91.132812 C 464.65625 92.464844 462.65625 92.464844 462.65625 91.132812 C 462.65625 89.800781 464.65625 89.800781 464.65625 91.132812 "/>
<path style=" stroke:none;fill-rule:nonzero;fill:rgb(100%,100%,100%);fill-opacity:1;" d="M 366.484375 342.253906 C 366.484375 343.585938 364.484375 343.585938 364.484375 342.253906 C 364.484375 340.921875 366.484375 340.921875 366.484375 342.253906 "/>
<path style=" stroke:none;fill-rule:nonzero;fill:rgb(100%,100%,100%);fill-opacity:1;" d="M 313.101562 98.527344 C 313.101562 99.863281 311.101562 99.863281 311.101562 98.527344 C 311.101562 97.195312 313.101562 97.195312 313.101562 98.527344 "/>
<path style=" stroke:none;fill-rule:nonzero;fill:rgb(100%,100%,100%);fill-opacity:1;" d="M 460.253906 211.492188 C 460.253906 212.828125 458.257812 212.828125 458.257812 211.492188 C 458.257812 210.160156 460.253906 210.160156 460.253906 211.492188 "/>
<path style=" stroke:none;fill-rule:nonzero;fill:rgb(100%,100%,100%);fill-opacity:1;" d="M 2.398438 11.355469 C 2.398438 12.6875 0.398438 12.6875 0.398438 11.355469 C 0.398438 10.023438 2.398438 10.023438 2.398438 11.355469 "/>
<path style=" stroke:none;fill-rule:nonzero;fill:rgb(100%,100%,100%);fill-opacity:1;" d="M 404.273438 106.726562 C 404.273438 108.058594 402.273438 108.058594 402.273438 106.726562 C 402.273438 105.394531 404.273438 105.394531 404.273438 106.726562 "/>
<path style=" stroke:none;fill-rule:nonzero;fill:rgb(100%,100%,100%);fill-opacity:1;" d="M 437.265625 495.003906 C 437.265625 496.339844 435.265625 496.339844 435.265625 495.003906 C 435.265625 493.671875 437.265625 493.671875 437.265625 495.003906 "/>
<path style=" stroke:none;fill-rule:nonzero;fill:rgb(100%,100%,100%);fill-opacity:1;" d="M 379.28125 198.496094 C 379.28125 199.832031 377.28125 199.832031 377.28125 198.496094 C 377.28125 197.164062 379.28125 197.164062 379.28125 198.496094 "/>
<path style=" stroke:none;fill-rule:nonzero;fill:rgb(100%,100%,100%);fill-opacity:1;" d="M 496.644531 410.230469 C 496.644531 411.566406 494.644531 411.566406 494.644531 410.230469 C 494.644531 408.898438 496.644531 408.898438 496.644531 410.230469 "/>
<path style=" stroke:none;fill-rule:nonzero;fill:rgb(100%,100%,100%);fill-opacity:1;" d="M 482.25 207.894531 C 482.25 209.226562 480.25 209.226562 480.25 207.894531 C 480.25 206.5625 482.25 206.5625 482.25 207.894531 "/>
<path style=" stroke:none;fill-rule:nonzero;fill:rgb(100%,100%,100%);fill-opacity:1;" d="M 339.492188 93.730469 C 339.492188 95.0625 337.496094 95.0625 337.496094 93.730469 C 337.496094 92.398438 339.492188 92.398438 339.492188 93.730469 "/>
<path style=" stroke:none;fill-rule:nonzero;fill:rgb(100%,100%,100%);fill-opacity:1;" d="M 434.664062 3.558594 C 434.664062 4.890625 432.664062 4.890625 432.664062 3.558594 C 432.664062 2.226562 434.664062 2.226562 434.664062 3.558594 "/>
<path style=" stroke:none;fill-rule:nonzero;fill:rgb(100%,100%,100%);fill-opacity:1;" d="M 338.894531 289.070312 C 338.894531 290.402344 336.894531 290.402344 336.894531 289.070312 C 336.894531 287.738281 338.894531 287.738281 338.894531 289.070312 "/>
<path style=" stroke:none;fill-rule:nonzero;fill:rgb(100%,100%,100%);fill-opacity:1;" d="M 207.933594 25.351562 C 207.933594 26.683594 205.933594 26.683594 205.933594 25.351562 C 205.933594 24.019531 207.933594 24.019531 207.933594 25.351562 "/>
<path style=" stroke:none;fill-rule:nonzero;fill:rgb(100%,100%,100%);fill-opacity:1;" d="M 428.265625 107.925781 C 428.265625 109.257812 426.265625 109.257812 426.265625 107.925781 C 426.265625 106.59375 428.265625 106.59375 428.265625 107.925781 "/>
<path style=" stroke:none;fill-rule:nonzero;fill:rgb(100%,100%,100%);fill-opacity:1;" d="M 125.5625 12.355469 C 125.5625 13.6875 123.5625 13.6875 123.5625 12.355469 C 123.5625 11.023438 125.5625 11.023438 125.5625 12.355469 "/>
<path style=" stroke:none;fill-rule:nonzero;fill:rgb(100%,100%,100%);fill-opacity:1;" d="M 458.058594 416.230469 C 458.058594 417.5625 456.058594 417.5625 456.058594 416.230469 C 456.058594 414.898438 458.058594 414.898438 458.058594 416.230469 "/>
<path style=" stroke:none;fill-rule:nonzero;fill:rgb(100%,100%,100%);fill-opacity:1;" d="M 141.957031 21.753906 C 141.957031 23.085938 139.957031 23.085938 139.957031 21.753906 C 139.957031 20.421875 141.957031 20.421875 141.957031 21.753906 "/>
<path style=" stroke:none;fill-rule:nonzero;fill:rgb(100%,100%,100%);fill-opacity:1;" d="M 454.65625 198.496094 C 454.65625 199.832031 452.660156 199.832031 452.660156 198.496094 C 452.660156 197.164062 454.65625 197.164062 454.65625 198.496094 "/>
<path style=" stroke:none;fill-rule:nonzero;fill:rgb(100%,100%,100%);fill-opacity:1;" d="M 321.699219 420.828125 C 321.699219 422.160156 319.699219 422.160156 319.699219 420.828125 C 319.699219 419.496094 321.699219 419.496094 321.699219 420.828125 "/>
<path style=" stroke:none;fill-rule:nonzero;fill:rgb(100%,100%,100%);fill-opacity:1;" d="M 505.441406 174.703125 C 505.441406 176.039062 503.441406 176.039062 503.441406 174.703125 C 503.441406 173.371094 505.441406 173.371094 505.441406 174.703125 "/>
<path style=" stroke:none;fill-rule:nonzero;fill:rgb(100%,100%,100%);fill-opacity:1;" d="M 438.460938 186.101562 C 438.460938 187.433594 436.464844 187.433594 436.464844 186.101562 C 436.464844 184.769531 438.460938 184.769531 438.460938 186.101562 "/>
<path style=" stroke:none;fill-rule:nonzero;fill:rgb(100%,100%,100%);fill-opacity:1;" d="M 448.660156 260.277344 C 448.660156 261.613281 446.660156 261.613281 446.660156 260.277344 C 446.660156 258.945312 448.660156 258.945312 448.660156 260.277344 "/>
<path style=" stroke:none;fill-rule:nonzero;fill:rgb(100%,84.3%,0%);fill-opacity:1;" d="M 306.902344 98.128906 C 306.902344 99.460938 304.90625 99.460938 304.90625 98.128906 C 304.90625 96.796875 306.902344 96.796875 306.902344 98.128906 "/>
<path style=" stroke:none;fill-rule:nonzero;fill:rgb(100%,84.3%,0%);fill-opacity:1;" d="M 306.902344 90.132812 C 306.902344 91.464844 304.90625 91.464844 304.90625 90.132812 C 304.90625 88.800781 306.902344 88.800781 306.902344 90.132812 "/>
<path style=" stroke:none;fill-rule:nonzero;fill:rgb(100%,84.3%,0%);fill-opacity:1;" d="M 304.90625 94.132812 C 304.90625 95.464844 302.90625 95.464844 302.90625 94.132812 C 302.90625 92.796875 304.90625 92.796875 304.90625 94.132812 "/>
<path style=" stroke:none;fill-rule:nonzero;fill:rgb(100%,84.3%,0%);fill-opacity:1;" d="M 306.902344 100.128906 C 306.902344 101.460938 304.90625 101.460938 304.90625 100.128906 C 304.90625 98.796875 306.902344 98.796875 306.902344 100.128906 "/>
<path style=" stroke:none;fill-rule:nonzero;fill:rgb(100%,84.3%,0%);fill-opacity:1;" d="M 306.902344 96.128906 C 306.902344 97.464844 304.90625 97.464844 304.90625 96.128906 C 304.90625 94.796875 306.902344 94.796875 306.902344 96.128906 "/>
<path style=" stroke:none;fill-rule:nonzero;fill:rgb(100%,84.3%,0%);fill-opacity:1;" d="M 304.90625 96.128906 C 304.90625 97.464844 302.90625 97.464844 302.90625 96.128906 C 302.90625 94.796875 304.90625 94.796875 304.90625 96.128906 "/>
<path style=" stroke:none;fill-rule:nonzero;fill:rgb(100%,84.3%,0%);fill-opacity:1;" d="M 304.90625 100.128906 C 304.90625 101.460938 302.90625 101.460938 302.90625 100.128906 C 302.90625 98.796875 304.90625 98.796875 304.90625 100.128906 "/>
<path style=" stroke:none;fill-rule:nonzero;fill:rgb(100%,84.3%,0%);fill-opacity:1;" d="M 306.902344 102.128906 C 306.902344 103.460938 304.90625 103.460938 304.90625 102.128906 C 304.90625 100.796875 306.902344 100.796875 306.902344 102.128906 "/>
<path style=" stroke:none;fill-rule:nonzero;fill:rgb(100%,84.3%,0%);fill-opacity:1;" d="M 306.902344 106.128906 C 306.902344 107.460938 304.90625 107.460938 304.90625 106.128906 C 304.90625 104.792969 306.902344 104.792969 306.902344 106.128906 "/>
<path style=" stroke:none;fill-rule:nonzero;fill:rgb(100%,84.3%,0%);fill-opacity:1;" d="M 306.902344 108.125 C 306.902344 109.457031 304.90625 109.457031 304.90625 108.125 C 304.90625 106.792969 306.902344 106.792969 306.902344 108.125 "/>
<path style=" stroke:none;fill-rule:nonzero;fill:rgb(100%,84.3%,0%);fill-opacity:1;" d="M 306.902344 94.132812 C 306.902344 95.464844 304.90625 95.464844 304.90625 94.132812 C 304.90625 92.796875 306.902344 92.796875 306.902344 94.132812 "/>
<path style=" stroke:none;fill-rule:nonzero;fill:rgb(100%,84.3%,0%);fill-opacity:1;" d="M 302.90625 98.128906 C 302.90625 99.460938 300.90625 99.460938 300.90625 98.128906 C 300.90625 96.796875 302.90625 96.796875 302.90625 98.128906 "/>
<path style=" stroke:none;fill-rule:nonzero;fill:rgb(100%,84.3%,0%);fill-opacity:1;" d="M 302.90625 102.128906 C 302.90625 103.460938 300.90625 103.460938 300.90625 102.128906 C 300.90625 100.796875 302.90625 100.796875 302.90625 102.128906 "/>
<path style=" stroke:none;fill-rule:nonzero;fill:rgb(100%,84.3%,0%);fill-opacity:1;" d="M 306.902344 104.128906 C 306.902344 105.460938 304.90625 105.460938 304.90625 104.128906 C 304.90625 102.792969 306.902344 102.792969 306.902344 104.128906 "/>
<path style=" stroke:none;fill-rule:nonzero;fill:rgb(100%,84.3%,0%);fill-opacity:1;" d="M 304.90625 106.128906 C 304.90625 107.460938 302.90625 107.460938 302.90625 106.128906 C 302.90625 104.792969 304.90625 104.792969 304.90625 106.128906 "/>
<path style=" stroke:none;fill-rule:nonzero;fill:rgb(100%,84.3%,0%);fill-opacity:1;" d="M 304.90625 98.128906 C 304.90625 99.460938 302.90625 99.460938 302.90625 98.128906 C 302.90625 96.796875 304.90625 96.796875 304.90625 98.128906 "/>
<path style=" stroke:none;fill-rule:nonzero;fill:rgb(100%,84.3%,0%);fill-opacity:1;" d="M 304.90625 102.128906 C 304.90625 103.460938 302.90625 103.460938 302.90625 102.128906 C 302.90625 100.796875 304.90625 100.796875 304.90625 102.128906 "/>
<path style=" stroke:none;fill-rule:nonzero;fill:rgb(100%,84.3%,0%);fill-opacity:1;" d="M 306.902344 92.132812 C 306.902344 93.464844 304.90625 93.464844 304.90625 92.132812 C 304.90625 90.796875 306.902344 90.796875 306.902344 92.132812 "/>
<path style=" stroke:none;fill-rule:nonzero;fill:rgb(100%,84.3%,0%);fill-opacity:1;" d="M 304.90625 104.128906 C 304.90625 105.460938 302.90625 105.460938 302.90625 104.128906 C 302.90625 102.792969 304.90625 102.792969 304.90625 104.128906 "/>
</g>
</svg>
