<?xml version="1.0" encoding="UTF-8"?>
<svg xmlns="http://www.w3.org/2000/svg" xmlns:xlink="http://www.w3.org/1999/xlink" width="512pt" height="512pt" viewBox="0 0 512 512" version="1.1">
<g id="surface111">
<path style=" stroke:none;fill-rule:nonzero;fill:rgb(26.7%,26.7%,26.7%);fill-opacity:1;" d="M 219.601562 0 L 292.398438 0 L 292.398438 512 L 219.601562 512 Z M 219.601562 0 "/>
<path style=" stroke:none;fill-rule:nonzero;fill:rgb(19.2%,38.8%,66.7%);fill-opacity:1;" d="M 225.667969 42.667969 L 286.332031 42.667969 L 286.332031 469.332031 L 225.667969 469.332031 Z M 225.667969 42.667969 "/>
<path style=" stroke:none;fill-rule:nonzero;fill:rgb(100%,100%,100%);fill-opacity:1;" d="M 196.507812 262.535156 C 196.507812 264.769531 193.15625 264.769531 193.15625 262.535156 C 193.15625 260.300781 196.507812 260.300781 196.507812 262.535156 "/>
<path style=" stroke:none;fill-rule:nonzero;fill:rgb(100%,100%,100%);fill-opacity:1;" d="M 285.660156 22.222656 C 285.660156 24.457031 282.308594 24.457031 282.308594 22.222656 C 282.308594 19.988281 285.660156 19.988281 285.660156 22.222656 "/>
<path style=" stroke:none;fill-rule:nonzero;fill:rgb(100%,100%,100%);fill-opacity:1;" d="M 157.964844 72.160156 C 157.964844 74.394531 154.613281 74.394531 154.613281 72.160156 C 154.613281 69.925781 157.964844 69.925781 157.964844 72.160156 "/>
<path style=" stroke:none;fill-rule:nonzero;fill:rgb(100%,100%,100%);fill-opacity:1;" d="M 108.359375 44.34375 C 108.359375 46.578125 105.007812 46.578125 105.007812 44.34375 C 105.007812 42.109375 108.359375 42.109375 108.359375 44.34375 "/>
<path style=" stroke:none;fill-rule:nonzero;fill:rgb(100%,100%,100%);fill-opacity:1;" d="M 180.417969 181.425781 C 180.417969 183.660156 177.066406 183.660156 177.066406 181.425781 C 177.066406 179.191406 180.417969 179.191406 180.417969 181.425781 "/>
<path style=" stroke:none;fill-rule:nonzero;fill:rgb(100%,100%,100%);fill-opacity:1;" d="M 157.628906 106.347656 C 157.628906 108.582031 154.277344 108.582031 154.277344 106.347656 C 154.277344 104.113281 157.628906 104.113281 157.628906 106.347656 "/>
<path style=" stroke:none;fill-rule:nonzero;fill:rgb(100%,100%,100%);fill-opacity:1;" d="M 83.222656 500.839844 C 83.222656 503.074219 79.871094 503.074219 79.871094 500.839844 C 79.871094 498.605469 83.222656 498.605469 83.222656 500.839844 "/>
<path style=" stroke:none;fill-rule:nonzero;fill:rgb(100%,100%,100%);fill-opacity:1;" d="M 50.375 318.171875 C 50.375 320.40625 47.023438 320.40625 47.023438 318.171875 C 47.023438 315.9375 50.375 315.9375 50.375 318.171875 "/>
<path style=" stroke:none;fill-rule:nonzero;fill:rgb(100%,100%,100%);fill-opacity:1;" d="M 54.398438 230.023438 C 54.398438 232.257812 51.046875 232.257812 51.046875 230.023438 C 51.046875 227.789062 54.398438 227.789062 54.398438 230.023438 "/>
<path style=" stroke:none;fill-rule:nonzero;fill:rgb(100%,100%,100%);fill-opacity:1;" d="M 214.941406 110.703125 C 214.941406 112.9375 211.589844 112.9375 211.589844 110.703125 C 211.589844 108.46875 214.941406 108.46875 214.941406 110.703125 "/>
<path style=" stroke:none;fill-rule:nonzero;fill:rgb(100%,100%,100%);fill-opacity:1;" d="M 82.550781 140.199219 C 82.550781 142.433594 79.199219 142.433594 79.199219 140.199219 C 79.199219 137.964844 82.550781 137.964844 82.550781 140.199219 "/>
<path style=" stroke:none;fill-rule:nonzero;fill:rgb(100%,100%,100%);fill-opacity:1;" d="M 4.121094 52.050781 C 4.121094 54.285156 0.769531 54.285156 0.769531 52.050781 C 0.769531 49.816406 4.121094 49.816406 4.121094 52.050781 "/>
<path style=" stroke:none;fill-rule:nonzero;fill:rgb(100%,100%,100%);fill-opacity:1;" d="M 356.046875 278.960938 C 356.046875 281.195312 352.695312 281.195312 352.695312 278.960938 C 352.695312 276.722656 356.046875 276.722656 356.046875 278.960938 "/>
<path style=" stroke:none;fill-rule:nonzero;fill:rgb(100%,100%,100%);fill-opacity:1;" d="M 184.105469 417.382812 C 184.105469 419.617188 180.753906 419.617188 180.753906 417.382812 C 180.753906 415.148438 184.105469 415.148438 184.105469 417.382812 "/>
<path style=" stroke:none;fill-rule:nonzero;fill:rgb(100%,100%,100%);fill-opacity:1;" d="M 29.929688 223.320312 C 29.929688 225.554688 26.578125 225.554688 26.578125 223.320312 C 26.578125 221.085938 29.929688 221.085938 29.929688 223.320312 "/>
<path style=" stroke:none;fill-rule:nonzero;fill:rgb(100%,100%,100%);fill-opacity:1;" d="M 307.78125 109.03125 C 307.78125 111.265625 304.429688 111.265625 304.429688 109.03125 C 304.429688 106.796875 307.78125 106.796875 307.78125 109.03125 "/>
<path style=" stroke:none;fill-rule:nonzero;fill:rgb(100%,100%,100%);fill-opacity:1;" d="M 14.511719 94.28125 C 14.511719 96.515625 11.160156 96.515625 11.160156 94.28125 C 11.160156 92.046875 14.511719 92.046875 14.511719 94.28125 "/>
<path style=" stroke:none;fill-rule:nonzero;fill:rgb(100%,100%,100%);fill-opacity:1;" d="M 121.429688 17.527344 C 121.429688 19.761719 118.078125 19.761719 118.078125 17.527344 C 118.078125 15.292969 121.429688 15.292969 121.429688 17.527344 "/>
<path style=" stroke:none;fill-rule:nonzero;fill:rgb(100%,100%,100%);fill-opacity:1;" d="M 122.773438 200.863281 C 122.773438 203.097656 119.421875 203.097656 119.421875 200.863281 C 119.421875 198.628906 122.773438 198.628906 122.773438 200.863281 "/>
<path style=" stroke:none;fill-rule:nonzero;fill:rgb(100%,100%,100%);fill-opacity:1;" d="M 30.601562 147.238281 C 30.601562 149.472656 27.25 149.472656 27.25 147.238281 C 27.25 145.003906 30.601562 145.003906 30.601562 147.238281 "/>
<path style=" stroke:none;fill-rule:nonzero;fill:rgb(100%,84.3%,0%);fill-opacity:1;" d="M 234.046875 97.300781 C 234.046875 99.535156 230.695312 99.535156 230.695312 97.300781 C 230.695312 95.066406 234.046875 95.066406 234.046875 97.300781 "/>
<path style=" stroke:none;fill-rule:nonzero;fill:rgb(100%,84.3%,0%);fill-opacity:1;" d="M 234.046875 110.703125 C 234.046875 112.9375 230.695312 112.9375 230.695312 110.703125 C 230.695312 108.46875 234.046875 108.46875 234.046875 110.703125 "/>
<path style=" stroke:none;fill-rule:nonzero;fill:rgb(100%,84.3%,0%);fill-opacity:1;" d="M 277.617188 47.023438 C 277.617188 49.257812 274.265625 49.257812 274.265625 47.023438 C 274.265625 44.789062 277.617188 44.789062 277.617188 47.023438 "/>
<path style=" stroke:none;fill-rule:nonzero;fill:rgb(100%,84.3%,0%);fill-opacity:1;" d="M 237.398438 110.703125 C 237.398438 112.9375 234.046875 112.9375 234.046875 110.703125 C 234.046875 108.46875 237.398438 108.46875 237.398438 110.703125 "/>
<path style=" stroke:none;fill-rule:nonzero;fill:rgb(100%,84.3%,0%);fill-opacity:1;" d="M 284.320312 114.058594 C 284.320312 116.292969 280.96875 116.292969 280.96875 114.058594 C 280.96875 111.824219 284.320312 111.824219 284.320312 114.058594 "/>
<path style=" stroke:none;fill-rule:nonzero;fill:rgb(100%,84.3%,0%);fill-opacity:1;" d="M 230.695312 100.648438 C 230.695312 102.882812 227.34375 102.882812 227.34375 100.648438 C 227.34375 98.414062 230.695312 98.414062 230.695312 100.648438 "/>
<path style=" stroke:none;fill-rule:nonzero;fill:rgb(100%,84.3%,0%);fill-opacity:1;" d="M 230.695312 110.703125 C 230.695312 112.9375 227.34375 112.9375 227.34375 110.703125 C 227.34375 108.46875 230.695312 108.46875 230.695312 110.703125 "/>
<path style=" stroke:none;fill-rule:nonzero;fill:rgb(100%,84.3%,0%);fill-opacity:1;" d="M 284.320312 47.023438 C 284.320312 49.257812 280.96875 49.257812 280.96875 47.023438 C 280.96875 44.789062 284.320312 44.789062 284.320312 47.023438 "/>
<path style=" stroke:none;fill-rule:nonzero;fill:rgb(100%,84.3%,0%);fill-opacity:1;" d="M 234.046875 107.355469 C 234.046875 109.589844 230.695312 109.589844 230.695312 107.355469 C 230.695312 105.121094 234.046875 105.121094 234.046875 107.355469 "/>
<path style=" stroke:none;fill-rule:nonzero;fill:rgb(100%,84.3%,0%);fill-opacity:1;" d="M 237.398438 107.355469 C 237.398438 109.589844 234.046875 109.589844 234.046875 107.355469 C 234.046875 105.121094 237.398438 105.121094 237.398438 107.355469 "/>
<path style=" stroke:none;fill-rule:nonzero;fill:rgb(100%,84.3%,0%);fill-opacity:1;" d="M 230.695312 120.761719 C 230.695312 122.996094 227.34375 122.996094 227.34375 120.761719 C 227.34375 118.527344 230.695312 118.527344 230.695312 120.761719 "/>
<path style=" stroke:none;fill-rule:nonzero;fill:rgb(100%,84.3%,0%);fill-opacity:1;" d="M 284.320312 110.703125 C 284.320312 112.9375 280.96875 112.9375 280.96875 110.703125 C 280.96875 108.46875 284.320312 108.46875 284.320312 110.703125 "/>
<path style=" stroke:none;fill-rule:nonzero;fill:rgb(100%,84.3%,0%);fill-opacity:1;" d="M 230.695312 107.355469 C 230.695312 109.589844 227.34375 109.589844 227.34375 107.355469 C 227.34375 105.121094 230.695312 105.121094 230.695312 107.355469 "/>
<path style=" stroke:none;fill-rule:nonzero;fill:rgb(100%,84.3%,0%);fill-opacity:1;" d="M 234.046875 120.761719 C 234.046875 122.996094 230.695312 122.996094 230.695312 120.761719 C 230.695312 118.527344 234.046875 118.527344 234.046875 120.761719 "/>
<path style=" stroke:none;fill-rule:nonzero;fill:rgb(100%,84.3%,0%);fill-opacity:1;" d="M 284.320312 107.355469 C 284.320312 109.589844 280.96875 109.589844 280.96875 107.355469 C 280.96875 105.121094 284.320312 105.121094 284.320312 107.355469 "/>
<path style=" stroke:none;fill-rule:nonzero;fill:rgb(100%,84.3%,0%);fill-opacity:1;" d="M 230.695312 114.058594 C 230.695312 116.292969 227.34375 116.292969 227.34375 114.058594 C 227.34375 111.824219 230.695312 111.824219 230.695312 114.058594 "/>
<path style=" stroke:none;fill-rule:nonzero;fill:rgb(100%,84.3%,0%);fill-opacity:1;" d="M 284.320312 104.003906 C 284.320312 106.238281 280.96875 106.238281 280.96875 104.003906 C 280.96875 101.765625 284.320312 101.765625 284.320312 104.003906 "/>
<path style=" stroke:none;fill-rule:nonzero;fill:rgb(100%,84.3%,0%);fill-opacity:1;" d="M 280.96875 47.023438 C 280.96875 49.257812 277.617188 49.257812 277.617188 47.023438 C 277.617188 44.789062 280.96875 44.789062 280.96875 47.023438 "/>
<path style=" stroke:none;fill-rule:nonzero;fill:rgb(100%,84.3%,0%);fill-opacity:1;" d="M 230.695312 124.113281 C 230.695312 126.347656 227.34375 126.347656 227.34375 124.113281 C 227.34375 121.878906 230.695312 121.878906 230.695312 124.113281 "/>
<path style=" stroke:none;fill-rule:nonzero;fill:rgb(100%,84.3%,0%);fill-opacity:1;" d="M 230.695312 97.300781 C 230.695312 99.535156 227.34375 99.535156 227.34375 97.300781 C 227.34375 95.066406 230.695312 95.066406 230.695312 97.300781 "/>
<path style=" stroke:none;fill-rule:nonzero;fill:rgb(100%,84.3%,0%);fill-opacity:1;" d="M 230.695312 93.945312 C 230.695312 96.179688 227.34375 96.179688 227.34375 93.945312 C 227.34375 91.710938 230.695312 91.710938 230.695312 93.945312 "/>
<path style=" stroke:none;fill-rule:nonzero;fill:rgb(100%,84.3%,0%);fill-opacity:1;" d="M 274.265625 47.023438 C 274.265625 49.257812 270.914062 49.257812 270.914062 47.023438 C 270.914062 44.789062 274.265625 44.789062 274.265625 47.023438 "/>
<path style=" stroke:none;fill-rule:nonzero;fill:rgb(100%,84.3%,0%);fill-opacity:1;" d="M 270.914062 47.023438 C 270.914062 49.257812 267.5625 49.257812 267.5625 47.023438 C 267.5625 44.789062 270.914062 44.789062 270.914062 47.023438 "/>
<path style=" stroke:none;fill-rule:nonzero;fill:rgb(100%,84.3%,0%);fill-opacity:1;" d="M 230.695312 104.003906 C 230.695312 106.238281 227.34375 106.238281 227.34375 104.003906 C 227.34375 101.765625 230.695312 101.765625 230.695312 104.003906 "/>
<path style=" stroke:none;fill-rule:nonzero;fill:rgb(100%,84.3%,0%);fill-opacity:1;" d="M 234.046875 114.058594 C 234.046875 116.292969 230.695312 116.292969 230.695312 114.058594 C 230.695312 111.824219 234.046875 111.824219 234.046875 114.058594 "/>
<path style=" stroke:none;fill-rule:nonzero;fill:rgb(100%,84.3%,0%);fill-opacity:1;" d="M 284.320312 100.648438 C 284.320312 102.882812 280.96875 102.882812 280.96875 100.648438 C 280.96875 98.414062 284.320312 98.414062 284.320312 100.648438 "/>
<path style=" stroke:none;fill-rule:nonzero;fill:rgb(100%,84.3%,0%);fill-opacity:1;" d="M 237.398438 114.058594 C 237.398438 116.292969 234.046875 116.292969 234.046875 114.058594 C 234.046875 111.824219 237.398438 111.824219 237.398438 114.058594 "/>
<path style=" stroke:none;fill-rule:nonzero;fill:rgb(100%,84.3%,0%);fill-opacity:1;" d="M 284.320312 117.410156 C 284.320312 119.644531 280.96875 119.644531 280.96875 117.410156 C 280.96875 115.175781 284.320312 115.175781 284.320312 117.410156 "/>
<path style=" stroke:none;fill-rule:nonzero;fill:rgb(100%,84.3%,0%);fill-opacity:1;" d="M 234.046875 100.648438 C 234.046875 102.882812 230.695312 102.882812 230.695312 100.648438 C 230.695312 98.414062 234.046875 98.414062 234.046875 100.648438 "/>
<path style=" stroke:none;fill-rule:nonzero;fill:rgb(100%,84.3%,0%);fill-opacity:1;" d="M 234.046875 104.003906 C 234.046875 106.238281 230.695312 106.238281 230.695312 104.003906 C 230.695312 101.765625 234.046875 101.765625 234.046875 104.003906 "/>
<path style=" stroke:none;fill-rule:nonzero;fill:rgb(100%,84.3%,0%);fill-opacity:1;" d="M 230.695312 127.464844 C 230.695312 129.699219 227.34375 129.699219 227.34375 127.464844 C 227.34375 125.230469 230.695312 125.230469 230.695312 127.464844 "/>
<path style=" stroke:none;fill-rule:nonzero;fill:rgb(100%,84.3%,0%);fill-opacity:1;" d="M 284.320312 50.375 C 284.320312 52.609375 280.96875 52.609375 280.96875 50.375 C 280.96875 48.140625 284.320312 48.140625 284.320312 50.375 "/>
<path style=" stroke:none;fill-rule:nonzero;fill:rgb(100%,84.3%,0%);fill-opacity:1;" d="M 230.695312 117.410156 C 230.695312 119.644531 227.34375 119.644531 227.34375 117.410156 C 227.34375 115.175781 230.695312 115.175781 230.695312 117.410156 "/>
<path style=" stroke:none;fill-rule:nonzero;fill:rgb(100%,84.3%,0%);fill-opacity:1;" d="M 234.046875 117.410156 C 234.046875 119.644531 230.695312 119.644531 230.695312 117.410156 C 230.695312 115.175781 234.046875 115.175781 234.046875 117.410156 "/>
</g>
</svg>
