<?xml version="1.0" encoding="UTF-8"?>
<svg xmlns="http://www.w3.org/2000/svg" xmlns:xlink="http://www.w3.org/1999/xlink" width="512pt" height="512pt" viewBox="0 0 512 512" version="1.1">
<g id="surface231">
<path style=" stroke:none;fill-rule:nonzero;fill:rgb(26.7%,26.7%,26.7%);fill-opacity:1;" d="M 206.890625 0 L 305.105469 0 L 305.105469 512 L 206.890625 512 Z M 206.890625 0 "/>
<path style=" stroke:none;fill-rule:nonzero;fill:rgb(19.2%,38.8%,66.7%);fill-opacity:1;" d="M 206.890625 46.546875 L 296.179688 46.546875 L 296.179688 512 L 206.890625 512 Z M 206.890625 46.546875 "/>
<path style=" stroke:none;fill-rule:nonzero;fill:rgb(100%,100%,100%);fill-opacity:1;" d="M 371 172.210938 C 371 174.964844 366.867188 174.964844 366.867188 172.210938 C 366.867188 169.453125 371 169.453125 371 172.210938 "/>
<path style=" stroke:none;fill-rule:nonzero;fill:rgb(100%,100%,100%);fill-opacity:1;" d="M 496.664062 296.222656 C 496.664062 298.976562 492.53125 298.976562 492.53125 296.222656 C 492.53125 293.464844 496.664062 293.464844 496.664062 296.222656 "/>
<path style=" stroke:none;fill-rule:nonzero;fill:rgb(100%,100%,100%);fill-opacity:1;" d="M 342.0625 378.894531 C 342.0625 381.652344 337.929688 381.652344 337.929688 378.894531 C 337.929688 376.140625 342.0625 376.140625 342.0625 378.894531 "/>
<path style=" stroke:none;fill-rule:nonzero;fill:rgb(100%,100%,100%);fill-opacity:1;" d="M 371 509.519531 C 371 512.277344 366.867188 512.277344 366.867188 509.519531 C 366.867188 506.765625 371 506.765625 371 509.519531 "/>
<path style=" stroke:none;fill-rule:nonzero;fill:rgb(100%,84.3%,0%);fill-opacity:1;" d="M 294.113281 332.597656 C 294.113281 335.351562 289.980469 335.351562 289.980469 332.597656 C 289.980469 329.839844 294.113281 329.839844 294.113281 332.597656 "/>
<path style=" stroke:none;fill-rule:nonzero;fill:rgb(100%,84.3%,0%);fill-opacity:1;" d="M 294.113281 373.933594 C 294.113281 376.691406 289.980469 376.691406 289.980469 373.933594 C 289.980469 371.179688 294.113281 371.179688 294.113281 373.933594 "/>
<path style=" stroke:none;fill-rule:nonzero;fill:rgb(100%,84.3%,0%);fill-opacity:1;" d="M 294.113281 378.066406 C 294.113281 380.824219 289.980469 380.824219 289.980469 378.066406 C 289.980469 375.3125 294.113281 375.3125 294.113281 378.066406 "/>
<path style=" stroke:none;fill-rule:nonzero;fill:rgb(100%,84.3%,0%);fill-opacity:1;" d="M 294.113281 328.464844 C 294.113281 331.21875 289.980469 331.21875 289.980469 328.464844 C 289.980469 325.707031 294.113281 325.707031 294.113281 328.464844 "/>
<path style=" stroke:none;fill-rule:nonzero;fill:rgb(100%,84.3%,0%);fill-opacity:1;" d="M 294.113281 402.871094 C 294.113281 405.625 289.980469 405.625 289.980469 402.871094 C 289.980469 400.113281 294.113281 400.113281 294.113281 402.871094 "/>
<path style=" stroke:none;fill-rule:nonzero;fill:rgb(100%,84.3%,0%);fill-opacity:1;" d="M 294.113281 431.804688 C 294.113281 434.5625 289.980469 434.5625 289.980469 431.804688 C 289.980469 429.050781 294.113281 429.050781 294.113281 431.804688 "/>
<path style=" stroke:none;fill-rule:nonzero;fill:rgb(100%,84.3%,0%);fill-opacity:1;" d="M 294.113281 452.476562 C 294.113281 455.230469 289.980469 455.230469 289.980469 452.476562 C 289.980469 449.71875 294.113281 449.71875 294.113281 452.476562 "/>
<path style=" stroke:none;fill-rule:nonzero;fill:rgb(100%,84.3%,0%);fill-opacity:1;" d="M 294.113281 423.539062 C 294.113281 426.292969 289.980469 426.292969 289.980469 423.539062 C 289.980469 420.78125 294.113281 420.78125 294.113281 423.539062 "/>
<path style=" stroke:none;fill-rule:nonzero;fill:rgb(100%,84.3%,0%);fill-opacity:1;" d="M 294.113281 382.203125 C 294.113281 384.957031 289.980469 384.957031 289.980469 382.203125 C 289.980469 379.445312 294.113281 379.445312 294.113281 382.203125 "/>
<path style=" stroke:none;fill-rule:nonzero;fill:rgb(100%,84.3%,0%);fill-opacity:1;" d="M 294.113281 448.339844 C 294.113281 451.097656 289.980469 451.097656 289.980469 448.339844 C 289.980469 445.585938 294.113281 445.585938 294.113281 448.339844 "/>
<path style=" stroke:none;fill-rule:nonzero;fill:rgb(100%,84.3%,0%);fill-opacity:1;" d="M 294.113281 324.328125 C 294.113281 327.085938 289.980469 327.085938 289.980469 324.328125 C 289.980469 321.574219 294.113281 321.574219 294.113281 324.328125 "/>
<path style=" stroke:none;fill-rule:nonzero;fill:rgb(100%,84.3%,0%);fill-opacity:1;" d="M 294.113281 369.800781 C 294.113281 372.558594 289.980469 372.558594 289.980469 369.800781 C 289.980469 367.046875 294.113281 367.046875 294.113281 369.800781 "/>
<path style=" stroke:none;fill-rule:nonzero;fill:rgb(100%,84.3%,0%);fill-opacity:1;" d="M 294.113281 394.601562 C 294.113281 397.359375 289.980469 397.359375 289.980469 394.601562 C 289.980469 391.847656 294.113281 391.847656 294.113281 394.601562 "/>
<path style=" stroke:none;fill-rule:nonzero;fill:rgb(100%,84.3%,0%);fill-opacity:1;" d="M 294.113281 50.679688 C 294.113281 53.433594 289.980469 53.433594 289.980469 50.679688 C 289.980469 47.921875 294.113281 47.921875 294.113281 50.679688 "/>
<path style=" stroke:none;fill-rule:nonzero;fill:rgb(100%,84.3%,0%);fill-opacity:1;" d="M 294.113281 336.730469 C 294.113281 339.488281 289.980469 339.488281 289.980469 336.730469 C 289.980469 333.976562 294.113281 333.976562 294.113281 336.730469 "/>
<path style=" stroke:none;fill-rule:nonzero;fill:rgb(100%,84.3%,0%);fill-opacity:1;" d="M 294.113281 435.941406 C 294.113281 438.695312 289.980469 438.695312 289.980469 435.941406 C 289.980469 433.183594 294.113281 433.183594 294.113281 435.941406 "/>
<path style=" stroke:none;fill-rule:nonzero;fill:rgb(100%,84.3%,0%);fill-opacity:1;" d="M 294.113281 311.929688 C 294.113281 314.683594 289.980469 314.683594 289.980469 311.929688 C 289.980469 309.171875 294.113281 309.171875 294.113281 311.929688 "/>
<path style=" stroke:none;fill-rule:nonzero;fill:rgb(100%,84.3%,0%);fill-opacity:1;" d="M 294.113281 407.003906 C 294.113281 409.761719 289.980469 409.761719 289.980469 407.003906 C 289.980469 404.25 294.113281 404.25 294.113281 407.003906 "/>
<path style=" stroke:none;fill-rule:nonzero;fill:rgb(100%,84.3%,0%);fill-opacity:1;" d="M 294.113281 365.667969 C 294.113281 368.421875 289.980469 368.421875 289.980469 365.667969 C 289.980469 362.910156 294.113281 362.910156 294.113281 365.667969 "/>
<path style=" stroke:none;fill-rule:nonzero;fill:rgb(100%,84.3%,0%);fill-opacity:1;" d="M 294.113281 361.53125 C 294.113281 364.289062 289.980469 364.289062 289.980469 361.53125 C 289.980469 358.777344 294.113281 358.777344 294.113281 361.53125 "/>
<path style=" stroke:none;fill-rule:nonzero;fill:rgb(100%,84.3%,0%);fill-opacity:1;" d="M 294.113281 444.207031 C 294.113281 446.960938 289.980469 446.960938 289.980469 444.207031 C 289.980469 441.453125 294.113281 441.453125 294.113281 444.207031 "/>
<path style=" stroke:none;fill-rule:nonzero;fill:rgb(100%,84.3%,0%);fill-opacity:1;" d="M 294.113281 316.0625 C 294.113281 318.820312 289.980469 318.820312 289.980469 316.0625 C 289.980469 313.308594 294.113281 313.308594 294.113281 316.0625 "/>
<path style=" stroke:none;fill-rule:nonzero;fill:rgb(100%,84.3%,0%);fill-opacity:1;" d="M 294.113281 357.398438 C 294.113281 360.15625 289.980469 360.15625 289.980469 357.398438 C 289.980469 354.644531 294.113281 354.644531 294.113281 357.398438 "/>
<path style=" stroke:none;fill-rule:nonzero;fill:rgb(100%,84.3%,0%);fill-opacity:1;" d="M 294.113281 398.738281 C 294.113281 401.492188 289.980469 401.492188 289.980469 398.738281 C 289.980469 395.980469 294.113281 395.980469 294.113281 398.738281 "/>
<path style=" stroke:none;fill-rule:nonzero;fill:rgb(100%,84.3%,0%);fill-opacity:1;" d="M 294.113281 386.335938 C 294.113281 389.09375 289.980469 389.09375 289.980469 386.335938 C 289.980469 383.582031 294.113281 383.582031 294.113281 386.335938 "/>
<path style=" stroke:none;fill-rule:nonzero;fill:rgb(100%,84.3%,0%);fill-opacity:1;" d="M 294.113281 353.265625 C 294.113281 356.023438 289.980469 356.023438 289.980469 353.265625 C 289.980469 350.511719 294.113281 350.511719 294.113281 353.265625 "/>
<path style=" stroke:none;fill-rule:nonzero;fill:rgb(100%,84.3%,0%);fill-opacity:1;" d="M 294.113281 456.609375 C 294.113281 459.363281 289.980469 459.363281 289.980469 456.609375 C 289.980469 453.851562 294.113281 453.851562 294.113281 456.609375 "/>
<path style=" stroke:none;fill-rule:nonzero;fill:rgb(100%,84.3%,0%);fill-opacity:1;" d="M 294.113281 419.40625 C 294.113281 422.160156 289.980469 422.160156 289.980469 419.40625 C 289.980469 416.648438 294.113281 416.648438 294.113281 419.40625 "/>
<path style=" stroke:none;fill-rule:nonzero;fill:rgb(100%,84.3%,0%);fill-opacity:1;" d="M 294.113281 349.132812 C 294.113281 351.886719 289.980469 351.886719 289.980469 349.132812 C 289.980469 346.375 294.113281 346.375 294.113281 349.132812 "/>
<path style=" stroke:none;fill-rule:nonzero;fill:rgb(100%,84.3%,0%);fill-opacity:1;" d="M 294.113281 411.136719 C 294.113281 413.894531 289.980469 413.894531 289.980469 411.136719 C 289.980469 408.382812 294.113281 408.382812 294.113281 411.136719 "/>
<path style=" stroke:none;fill-rule:nonzero;fill:rgb(100%,84.3%,0%);fill-opacity:1;" d="M 294.113281 390.46875 C 294.113281 393.226562 289.980469 393.226562 289.980469 390.46875 C 289.980469 387.714844 294.113281 387.714844 294.113281 390.46875 "/>
<path style=" stroke:none;fill-rule:nonzero;fill:rgb(100%,84.3%,0%);fill-opacity:1;" d="M 294.113281 427.671875 C 294.113281 430.429688 289.980469 430.429688 289.980469 427.671875 C 289.980469 424.917969 294.113281 424.917969 294.113281 427.671875 "/>
<path style=" stroke:none;fill-rule:nonzero;fill:rgb(100%,84.3%,0%);fill-opacity:1;" d="M 294.113281 340.863281 C 294.113281 343.621094 289.980469 343.621094 289.980469 340.863281 C 289.980469 338.109375 294.113281 338.109375 294.113281 340.863281 "/>
<path style=" stroke:none;fill-rule:nonzero;fill:rgb(100%,84.3%,0%);fill-opacity:1;" d="M 294.113281 460.742188 C 294.113281 463.496094 289.980469 463.496094 289.980469 460.742188 C 289.980469 457.984375 294.113281 457.984375 294.113281 460.742188 "/>
<path style=" stroke:none;fill-rule:nonzero;fill:rgb(100%,84.3%,0%);fill-opacity:1;" d="M 294.113281 320.195312 C 294.113281 322.953125 289.980469 322.953125 289.980469 320.195312 C 289.980469 317.441406 294.113281 317.441406 294.113281 320.195312 "/>
<path style=" stroke:none;fill-rule:nonzero;fill:rgb(100%,84.3%,0%);fill-opacity:1;" d="M 294.113281 345 C 294.113281 347.753906 289.980469 347.753906 289.980469 345 C 289.980469 342.242188 294.113281 342.242188 294.113281 345 "/>
<path style=" stroke:none;fill-rule:nonzero;fill:rgb(100%,84.3%,0%);fill-opacity:1;" d="M 294.113281 440.074219 C 294.113281 442.828125 289.980469 442.828125 289.980469 440.074219 C 289.980469 437.316406 294.113281 437.316406 294.113281 440.074219 "/>
<path style=" stroke:none;fill-rule:nonzero;fill:rgb(100%,84.3%,0%);fill-opacity:1;" d="M 294.113281 415.269531 C 294.113281 418.027344 289.980469 418.027344 289.980469 415.269531 C 289.980469 412.515625 294.113281 412.515625 294.113281 415.269531 "/>
</g>
</svg>
