<?xml version="1.0" encoding="UTF-8"?>
<svg xmlns="http://www.w3.org/2000/svg" xmlns:xlink="http://www.w3.org/1999/xlink" width="512pt" height="512pt" viewBox="0 0 512 512" version="1.1">
<g id="surface256">
<path style=" stroke:none;fill-rule:nonzero;fill:rgb(26.7%,26.7%,26.7%);fill-opacity:1;" d="M 0 -584.429688 L 143.820312 -584.429688 L 143.820312 512 L 0 512 Z M 0 -584.429688 "/>
<path style=" stroke:none;fill-rule:nonzero;fill:rgb(19.2%,38.8%,66.7%);fill-opacity:1;" d="M 6.066406 42.667969 L 66.730469 42.667969 L 66.730469 469.332031 L 6.066406 469.332031 Z M 6.066406 42.667969 "/>
<path style=" stroke:none;fill-rule:nonzero;fill:rgb(100%,100%,100%);fill-opacity:1;" d="M 66.0625 22.222656 C 66.0625 24.457031 62.710938 24.457031 62.710938 22.222656 C 62.710938 19.988281 66.0625 19.988281 66.0625 22.222656 "/>
<path style=" stroke:none;fill-rule:nonzero;fill:rgb(100%,100%,100%);fill-opacity:1;" d="M 136.445312 278.960938 C 136.445312 281.195312 133.09375 281.195312 133.09375 278.960938 C 133.09375 276.722656 136.445312 276.722656 136.445312 278.960938 "/>
<path style=" stroke:none;fill-rule:nonzero;fill:rgb(100%,100%,100%);fill-opacity:1;" d="M 88.183594 109.03125 C 88.183594 111.265625 84.832031 111.265625 84.832031 109.03125 C 84.832031 106.796875 88.183594 106.796875 88.183594 109.03125 "/>
<path style=" stroke:none;fill-rule:nonzero;fill:rgb(100%,84.3%,0%);fill-opacity:1;" d="M 51.3125 46.019531 C 51.3125 48.253906 47.960938 48.253906 47.960938 46.019531 C 47.960938 43.785156 51.3125 43.785156 51.3125 46.019531 "/>
<path style=" stroke:none;fill-rule:nonzero;fill:rgb(100%,84.3%,0%);fill-opacity:1;" d="M 11.09375 129.476562 C 11.09375 131.710938 7.742188 131.710938 7.742188 129.476562 C 7.742188 127.242188 11.09375 127.242188 11.09375 129.476562 "/>
<path style=" stroke:none;fill-rule:nonzero;fill:rgb(100%,84.3%,0%);fill-opacity:1;" d="M 65.054688 46.019531 C 65.054688 48.253906 61.703125 48.253906 61.703125 46.019531 C 61.703125 43.785156 65.054688 43.785156 65.054688 46.019531 "/>
<path style=" stroke:none;fill-rule:nonzero;fill:rgb(100%,84.3%,0%);fill-opacity:1;" d="M 11.09375 136.179688 C 11.09375 138.414062 7.742188 138.414062 7.742188 136.179688 C 7.742188 133.945312 11.09375 133.945312 11.09375 136.179688 "/>
<path style=" stroke:none;fill-rule:nonzero;fill:rgb(100%,84.3%,0%);fill-opacity:1;" d="M 65.054688 102.660156 C 65.054688 104.894531 61.703125 104.894531 61.703125 102.660156 C 61.703125 100.425781 65.054688 100.425781 65.054688 102.660156 "/>
<path style=" stroke:none;fill-rule:nonzero;fill:rgb(100%,84.3%,0%);fill-opacity:1;" d="M 11.09375 99.308594 C 11.09375 101.542969 7.742188 101.542969 7.742188 99.308594 C 7.742188 97.074219 11.09375 97.074219 11.09375 99.308594 "/>
<path style=" stroke:none;fill-rule:nonzero;fill:rgb(100%,84.3%,0%);fill-opacity:1;" d="M 11.09375 109.363281 C 11.09375 111.597656 7.742188 111.597656 7.742188 109.363281 C 7.742188 107.128906 11.09375 107.128906 11.09375 109.363281 "/>
<path style=" stroke:none;fill-rule:nonzero;fill:rgb(100%,84.3%,0%);fill-opacity:1;" d="M 58.015625 46.019531 C 58.015625 48.253906 54.664062 48.253906 54.664062 46.019531 C 54.664062 43.785156 58.015625 43.785156 58.015625 46.019531 "/>
<path style=" stroke:none;fill-rule:nonzero;fill:rgb(100%,84.3%,0%);fill-opacity:1;" d="M 11.09375 89.253906 C 11.09375 91.488281 7.742188 91.488281 7.742188 89.253906 C 7.742188 87.019531 11.09375 87.019531 11.09375 89.253906 "/>
<path style=" stroke:none;fill-rule:nonzero;fill:rgb(100%,84.3%,0%);fill-opacity:1;" d="M 47.960938 46.019531 C 47.960938 48.253906 44.609375 48.253906 44.609375 46.019531 C 44.609375 43.785156 47.960938 43.785156 47.960938 46.019531 "/>
<path style=" stroke:none;fill-rule:nonzero;fill:rgb(100%,84.3%,0%);fill-opacity:1;" d="M 65.054688 116.066406 C 65.054688 118.300781 61.703125 118.300781 61.703125 116.066406 C 61.703125 113.832031 65.054688 113.832031 65.054688 116.066406 "/>
<path style=" stroke:none;fill-rule:nonzero;fill:rgb(100%,84.3%,0%);fill-opacity:1;" d="M 65.054688 109.363281 C 65.054688 111.597656 61.703125 111.597656 61.703125 109.363281 C 61.703125 107.128906 65.054688 107.128906 65.054688 109.363281 "/>
<path style=" stroke:none;fill-rule:nonzero;fill:rgb(100%,84.3%,0%);fill-opacity:1;" d="M 11.09375 112.714844 C 11.09375 114.949219 7.742188 114.949219 7.742188 112.714844 C 7.742188 110.480469 11.09375 110.480469 11.09375 112.714844 "/>
<path style=" stroke:none;fill-rule:nonzero;fill:rgb(100%,84.3%,0%);fill-opacity:1;" d="M 11.09375 256.839844 C 11.09375 259.074219 7.742188 259.074219 7.742188 256.839844 C 7.742188 254.605469 11.09375 254.605469 11.09375 256.839844 "/>
<path style=" stroke:none;fill-rule:nonzero;fill:rgb(100%,84.3%,0%);fill-opacity:1;" d="M 65.054688 106.011719 C 65.054688 108.246094 61.703125 108.246094 61.703125 106.011719 C 61.703125 103.777344 65.054688 103.777344 65.054688 106.011719 "/>
<path style=" stroke:none;fill-rule:nonzero;fill:rgb(100%,84.3%,0%);fill-opacity:1;" d="M 11.09375 116.066406 C 11.09375 118.300781 7.742188 118.300781 7.742188 116.066406 C 7.742188 113.832031 11.09375 113.832031 11.09375 116.066406 "/>
<path style=" stroke:none;fill-rule:nonzero;fill:rgb(100%,84.3%,0%);fill-opacity:1;" d="M 65.054688 112.714844 C 65.054688 114.949219 61.703125 114.949219 61.703125 112.714844 C 61.703125 110.480469 65.054688 110.480469 65.054688 112.714844 "/>
<path style=" stroke:none;fill-rule:nonzero;fill:rgb(100%,84.3%,0%);fill-opacity:1;" d="M 61.367188 46.019531 C 61.367188 48.253906 58.015625 48.253906 58.015625 46.019531 C 58.015625 43.785156 61.367188 43.785156 61.367188 46.019531 "/>
<path style=" stroke:none;fill-rule:nonzero;fill:rgb(100%,84.3%,0%);fill-opacity:1;" d="M 11.09375 122.769531 C 11.09375 125.003906 7.742188 125.003906 7.742188 122.769531 C 7.742188 120.535156 11.09375 120.535156 11.09375 122.769531 "/>
<path style=" stroke:none;fill-rule:nonzero;fill:rgb(100%,84.3%,0%);fill-opacity:1;" d="M 11.09375 102.660156 C 11.09375 104.894531 7.742188 104.894531 7.742188 102.660156 C 7.742188 100.425781 11.09375 100.425781 11.09375 102.660156 "/>
<path style=" stroke:none;fill-rule:nonzero;fill:rgb(100%,84.3%,0%);fill-opacity:1;" d="M 11.09375 95.957031 C 11.09375 98.191406 7.742188 98.191406 7.742188 95.957031 C 7.742188 93.722656 11.09375 93.722656 11.09375 95.957031 "/>
<path style=" stroke:none;fill-rule:nonzero;fill:rgb(100%,84.3%,0%);fill-opacity:1;" d="M 54.664062 46.019531 C 54.664062 48.253906 51.3125 48.253906 51.3125 46.019531 C 51.3125 43.785156 54.664062 43.785156 54.664062 46.019531 "/>
<path style=" stroke:none;fill-rule:nonzero;fill:rgb(100%,84.3%,0%);fill-opacity:1;" d="M 11.09375 263.539062 C 11.09375 265.777344 7.742188 265.777344 7.742188 263.539062 C 7.742188 261.304688 11.09375 261.304688 11.09375 263.539062 "/>
<path style=" stroke:none;fill-rule:nonzero;fill:rgb(100%,84.3%,0%);fill-opacity:1;" d="M 11.09375 106.011719 C 11.09375 108.246094 7.742188 108.246094 7.742188 106.011719 C 7.742188 103.777344 11.09375 103.777344 11.09375 106.011719 "/>
<path style=" stroke:none;fill-rule:nonzero;fill:rgb(100%,84.3%,0%);fill-opacity:1;" d="M 11.09375 85.902344 C 11.09375 88.136719 7.742188 88.136719 7.742188 85.902344 C 7.742188 83.667969 11.09375 83.667969 11.09375 85.902344 "/>
<path style=" stroke:none;fill-rule:nonzero;fill:rgb(100%,84.3%,0%);fill-opacity:1;" d="M 65.054688 119.421875 C 65.054688 121.65625 61.703125 121.65625 61.703125 119.421875 C 61.703125 117.1875 65.054688 117.1875 65.054688 119.421875 "/>
<path style=" stroke:none;fill-rule:nonzero;fill:rgb(100%,84.3%,0%);fill-opacity:1;" d="M 11.09375 46.019531 C 11.09375 48.253906 7.742188 48.253906 7.742188 46.019531 C 7.742188 43.785156 11.09375 43.785156 11.09375 46.019531 "/>
<path style=" stroke:none;fill-rule:nonzero;fill:rgb(100%,84.3%,0%);fill-opacity:1;" d="M 65.054688 99.308594 C 65.054688 101.542969 61.703125 101.542969 61.703125 99.308594 C 61.703125 97.074219 65.054688 97.074219 65.054688 99.308594 "/>
<path style=" stroke:none;fill-rule:nonzero;fill:rgb(100%,84.3%,0%);fill-opacity:1;" d="M 11.09375 253.484375 C 11.09375 255.71875 7.742188 255.71875 7.742188 253.484375 C 7.742188 251.25 11.09375 251.25 11.09375 253.484375 "/>
<path style=" stroke:none;fill-rule:nonzero;fill:rgb(100%,84.3%,0%);fill-opacity:1;" d="M 11.09375 260.191406 C 11.09375 262.425781 7.742188 262.425781 7.742188 260.191406 C 7.742188 257.957031 11.09375 257.957031 11.09375 260.191406 "/>
<path style=" stroke:none;fill-rule:nonzero;fill:rgb(100%,84.3%,0%);fill-opacity:1;" d="M 11.09375 126.121094 C 11.09375 128.359375 7.742188 128.359375 7.742188 126.121094 C 7.742188 123.886719 11.09375 123.886719 11.09375 126.121094 "/>
<path style=" stroke:none;fill-rule:nonzero;fill:rgb(100%,84.3%,0%);fill-opacity:1;" d="M 11.09375 132.824219 C 11.09375 135.058594 7.742188 135.058594 7.742188 132.824219 C 7.742188 130.589844 11.09375 130.589844 11.09375 132.824219 "/>
<path style=" stroke:none;fill-rule:nonzero;fill:rgb(100%,84.3%,0%);fill-opacity:1;" d="M 11.09375 119.421875 C 11.09375 121.65625 7.742188 121.65625 7.742188 119.421875 C 7.742188 117.1875 11.09375 117.1875 11.09375 119.421875 "/>
<path style=" stroke:none;fill-rule:nonzero;fill:rgb(100%,84.3%,0%);fill-opacity:1;" d="M 11.09375 92.605469 C 11.09375 94.839844 7.742188 94.839844 7.742188 92.605469 C 7.742188 90.371094 11.09375 90.371094 11.09375 92.605469 "/>
</g>
</svg>
