<?xml version="1.0" encoding="UTF-8"?>
<svg xmlns="http://www.w3.org/2000/svg" xmlns:xlink="http://www.w3.org/1999/xlink" width="512pt" height="512pt" viewBox="0 0 512 512" version="1.1">
<g id="surface276">
<path style=" stroke:none;fill-rule:nonzero;fill:rgb(26.7%,26.7%,26.7%);fill-opacity:1;" d="M 0 100.308594 L 621.652344 100.308594 L 621.652344 512 L 0 512 Z M 0 100.308594 "/>
<path style=" stroke:none;fill-rule:nonzero;fill:rgb(19.2%,38.8%,66.7%);fill-opacity:1;" d="M 42.667969 376.363281 L 469.332031 376.363281 L 469.332031 499.667969 L 42.667969 499.667969 Z M 42.667969 376.363281 "/>
<path style=" stroke:none;fill-rule:nonzero;fill:rgb(90.6%,14.9%,14.9%);fill-opacity:1;" d="M 202.667969 150.65625 C 202.667969 161.496094 193.878906 170.28125 183.039062 170.28125 C 172.199219 170.28125 163.414062 161.496094 163.414062 150.65625 C 163.414062 139.816406 172.199219 131.03125 183.039062 131.03125 C 193.878906 131.03125 202.667969 139.816406 202.667969 150.65625 "/>
<path style=" stroke:none;fill-rule:nonzero;fill:rgb(90.6%,14.9%,14.9%);fill-opacity:1;" d="M 354.132812 331.136719 C 354.132812 347.867188 340.570312 361.429688 323.839844 361.429688 C 307.109375 361.429688 293.546875 347.867188 293.546875 331.136719 C 293.546875 314.40625 307.109375 300.84375 323.839844 300.84375 C 340.570312 300.84375 354.132812 314.40625 354.132812 331.136719 "/>
<path style=" stroke:none;fill-rule:nonzero;fill:rgb(90.6%,14.9%,14.9%);fill-opacity:1;" d="M 289.28125 265.003906 C 289.28125 275.136719 281.066406 283.351562 270.933594 283.351562 C 260.800781 283.351562 252.585938 275.136719 252.585938 265.003906 C 252.585938 254.871094 260.800781 246.65625 270.933594 246.65625 C 281.066406 246.65625 289.28125 254.871094 289.28125 265.003906 "/>
<path style=" stroke:none;fill-rule:nonzero;fill:rgb(90.6%,14.9%,14.9%);fill-opacity:1;" d="M 472.320312 154.496094 C 472.320312 163.921875 464.679688 171.5625 455.253906 171.5625 C 445.828125 171.5625 438.1875 163.921875 438.1875 154.496094 C 438.1875 145.070312 445.828125 137.429688 455.253906 137.429688 C 464.679688 137.429688 472.320312 145.070312 472.320312 154.496094 "/>
<path style=" stroke:none;fill-rule:nonzero;fill:rgb(90.6%,14.9%,14.9%);fill-opacity:1;" d="M 178.347656 253.054688 C 178.347656 267.902344 166.3125 279.9375 151.46875 279.9375 C 136.621094 279.9375 124.585938 267.902344 124.585938 253.054688 C 124.585938 238.210938 136.621094 226.175781 151.46875 226.175781 C 166.3125 226.175781 178.347656 238.210938 178.347656 253.054688 "/>
<path style=" stroke:none;fill-rule:nonzero;fill:rgb(90.6%,14.9%,14.9%);fill-opacity:1;" d="M 265.386719 143.402344 C 265.386719 162.960938 249.53125 178.816406 229.972656 178.816406 C 210.414062 178.816406 194.558594 162.960938 194.558594 143.402344 C 194.558594 123.84375 210.414062 107.988281 229.972656 107.988281 C 249.53125 107.988281 265.386719 123.84375 265.386719 143.402344 "/>
<path style=" stroke:none;fill-rule:nonzero;fill:rgb(90.6%,14.9%,14.9%);fill-opacity:1;" d="M 147.199219 356.734375 C 147.199219 360.976562 143.761719 364.414062 139.519531 364.414062 C 135.277344 364.414062 131.839844 360.976562 131.839844 356.734375 C 131.839844 352.496094 135.277344 349.054688 139.519531 349.054688 C 143.761719 349.054688 147.199219 352.496094 147.199219 356.734375 "/>
<path style=" stroke:none;fill-rule:nonzero;fill:rgb(90.6%,14.9%,14.9%);fill-opacity:1;" d="M 214.1875 273.535156 C 214.1875 291.679688 199.476562 306.390625 181.332031 306.390625 C 163.1875 306.390625 148.480469 291.679688 148.480469 273.535156 C 148.480469 255.390625 163.1875 240.683594 181.332031 240.683594 C 199.476562 240.683594 214.1875 255.390625 214.1875 273.535156 "/>
<path style=" stroke:none;fill-rule:nonzero;fill:rgb(90.6%,14.9%,14.9%);fill-opacity:1;" d="M 466.773438 331.5625 C 466.773438 342.167969 458.175781 350.761719 447.574219 350.761719 C 436.96875 350.761719 428.371094 342.167969 428.371094 331.5625 C 428.371094 320.960938 436.96875 312.363281 447.574219 312.363281 C 458.175781 312.363281 466.773438 320.960938 466.773438 331.5625 "/>
<path style=" stroke:none;fill-rule:nonzero;fill:rgb(90.6%,14.9%,14.9%);fill-opacity:1;" d="M 369.492188 145.964844 C 369.492188 149.261719 366.820312 151.9375 363.519531 151.9375 C 360.222656 151.9375 357.546875 149.261719 357.546875 145.964844 C 357.546875 142.664062 360.222656 139.988281 363.519531 139.988281 C 366.820312 139.988281 369.492188 142.664062 369.492188 145.964844 "/>
<path style=" stroke:none;fill-rule:nonzero;fill:rgb(90.6%,14.9%,14.9%);fill-opacity:1;" d="M 20.90625 442.070312 C 20.90625 449.609375 14.792969 455.722656 7.253906 455.722656 C -0.289062 455.722656 -6.398438 449.609375 -6.398438 442.070312 C -6.398438 434.527344 -0.289062 428.414062 7.253906 428.414062 C 14.792969 428.414062 20.90625 434.527344 20.90625 442.070312 "/>
<path style=" stroke:none;fill-rule:nonzero;fill:rgb(90.6%,14.9%,14.9%);fill-opacity:1;" d="M 35.414062 171.988281 C 35.414062 190.132812 20.703125 204.84375 2.558594 204.84375 C -15.585938 204.84375 -30.292969 190.132812 -30.292969 171.988281 C -30.292969 153.84375 -15.585938 139.136719 2.558594 139.136719 C 20.703125 139.136719 35.414062 153.84375 35.414062 171.988281 "/>
<path style=" stroke:none;fill-rule:nonzero;fill:rgb(90.6%,14.9%,14.9%);fill-opacity:1;" d="M 214.1875 367.402344 C 214.1875 372.117188 210.367188 375.9375 205.652344 375.9375 C 200.941406 375.9375 197.121094 372.117188 197.121094 367.402344 C 197.121094 362.691406 200.941406 358.871094 205.652344 358.871094 C 210.367188 358.871094 214.1875 362.691406 214.1875 367.402344 "/>
<path style=" stroke:none;fill-rule:nonzero;fill:rgb(90.6%,14.9%,14.9%);fill-opacity:1;" d="M 248.320312 178.816406 C 248.320312 194.839844 235.332031 207.828125 219.308594 207.828125 C 203.285156 207.828125 190.292969 194.839844 190.292969 178.816406 C 190.292969 162.792969 203.285156 149.800781 219.308594 149.800781 C 235.332031 149.800781 248.320312 162.792969 248.320312 178.816406 "/>
<path style=" stroke:none;fill-rule:nonzero;fill:rgb(90.6%,14.9%,14.9%);fill-opacity:1;" d="M 307.625 311.082031 C 307.625 326.398438 295.210938 338.816406 279.894531 338.816406 C 264.578125 338.816406 252.160156 326.398438 252.160156 311.082031 C 252.160156 295.765625 264.578125 283.351562 279.894531 283.351562 C 295.210938 283.351562 307.625 295.765625 307.625 311.082031 "/>
<path style=" stroke:none;fill-rule:nonzero;fill:rgb(100%,100%,100%);fill-opacity:1;" d="M 366.082031 276.523438 C 366.082031 279.367188 361.8125 279.367188 361.8125 276.523438 C 361.8125 273.679688 366.082031 273.679688 366.082031 276.523438 "/>
<path style=" stroke:none;fill-rule:nonzero;fill:rgb(100%,100%,100%);fill-opacity:1;" d="M 389.121094 252.628906 C 389.121094 255.472656 384.855469 255.472656 384.855469 252.628906 C 384.855469 249.785156 389.121094 249.785156 389.121094 252.628906 "/>
<path style=" stroke:none;fill-rule:nonzero;fill:rgb(100%,100%,100%);fill-opacity:1;" d="M 43.09375 135.722656 C 43.09375 138.566406 38.828125 138.566406 38.828125 135.722656 C 38.828125 132.878906 43.09375 132.878906 43.09375 135.722656 "/>
<path style=" stroke:none;fill-rule:nonzero;fill:rgb(100%,100%,100%);fill-opacity:1;" d="M 343.894531 200.574219 C 343.894531 203.421875 339.625 203.421875 339.625 200.574219 C 339.625 197.730469 343.894531 197.730469 343.894531 200.574219 "/>
<path style=" stroke:none;fill-rule:nonzero;fill:rgb(100%,100%,100%);fill-opacity:1;" d="M 190.292969 353.324219 C 190.292969 356.167969 186.027344 356.167969 186.027344 353.324219 C 186.027344 350.480469 190.292969 350.480469 190.292969 353.324219 "/>
<path style=" stroke:none;fill-rule:nonzero;fill:rgb(100%,100%,100%);fill-opacity:1;" d="M 218.027344 268.84375 C 218.027344 271.6875 213.757812 271.6875 213.757812 268.84375 C 213.757812 266 218.027344 266 218.027344 268.84375 "/>
<path style=" stroke:none;fill-rule:nonzero;fill:rgb(100%,100%,100%);fill-opacity:1;" d="M 34.988281 213.375 C 34.988281 216.21875 30.71875 216.21875 30.71875 213.375 C 30.71875 210.53125 34.988281 210.53125 34.988281 213.375 "/>
<path style=" stroke:none;fill-rule:nonzero;fill:rgb(100%,100%,100%);fill-opacity:1;" d="M 183.039062 375.507812 C 183.039062 378.351562 178.773438 378.351562 178.773438 375.507812 C 178.773438 372.664062 183.039062 372.664062 183.039062 375.507812 "/>
<path style=" stroke:none;fill-rule:nonzero;fill:rgb(100%,100%,100%);fill-opacity:1;" d="M 241.492188 280.363281 C 241.492188 283.207031 237.226562 283.207031 237.226562 280.363281 C 237.226562 277.519531 241.492188 277.519531 241.492188 280.363281 "/>
<path style=" stroke:none;fill-rule:nonzero;fill:rgb(100%,100%,100%);fill-opacity:1;" d="M 176.214844 238.121094 C 176.214844 240.96875 171.945312 240.96875 171.945312 238.121094 C 171.945312 235.277344 176.214844 235.277344 176.214844 238.121094 "/>
<path style=" stroke:none;fill-rule:nonzero;fill:rgb(100%,100%,100%);fill-opacity:1;" d="M 79.359375 336.683594 C 79.359375 339.527344 75.09375 339.527344 75.09375 336.683594 C 75.09375 333.839844 79.359375 333.839844 79.359375 336.683594 "/>
<path style=" stroke:none;fill-rule:nonzero;fill:rgb(100%,100%,100%);fill-opacity:1;" d="M 5.972656 225.75 C 5.972656 228.59375 1.707031 228.59375 1.707031 225.75 C 1.707031 222.90625 5.972656 222.90625 5.972656 225.75 "/>
<path style=" stroke:none;fill-rule:nonzero;fill:rgb(100%,100%,100%);fill-opacity:1;" d="M 421.121094 292.308594 C 421.121094 295.152344 416.855469 295.152344 416.855469 292.308594 C 416.855469 289.464844 421.121094 289.464844 421.121094 292.308594 "/>
<path style=" stroke:none;fill-rule:nonzero;fill:rgb(100%,100%,100%);fill-opacity:1;" d="M 509.011719 148.097656 C 509.011719 150.941406 504.746094 150.941406 504.746094 148.097656 C 504.746094 145.25 509.011719 145.25 509.011719 148.097656 "/>
<path style=" stroke:none;fill-rule:nonzero;fill:rgb(100%,100%,100%);fill-opacity:1;" d="M 488.105469 219.777344 C 488.105469 222.621094 483.839844 222.621094 483.839844 219.777344 C 483.839844 216.929688 488.105469 216.929688 488.105469 219.777344 "/>
<path style=" stroke:none;fill-rule:nonzero;fill:rgb(100%,100%,100%);fill-opacity:1;" d="M 414.292969 107.988281 C 414.292969 110.832031 410.027344 110.832031 410.027344 107.988281 C 410.027344 105.144531 414.292969 105.144531 414.292969 107.988281 "/>
<path style=" stroke:none;fill-rule:nonzero;fill:rgb(100%,100%,100%);fill-opacity:1;" d="M 226.132812 503.507812 C 226.132812 506.351562 221.867188 506.351562 221.867188 503.507812 C 221.867188 500.664062 226.132812 500.664062 226.132812 503.507812 "/>
<path style=" stroke:none;fill-rule:nonzero;fill:rgb(100%,100%,100%);fill-opacity:1;" d="M 26.453125 423.296875 C 26.453125 426.140625 22.1875 426.140625 22.1875 423.296875 C 22.1875 420.453125 26.453125 420.453125 26.453125 423.296875 "/>
<path style=" stroke:none;fill-rule:nonzero;fill:rgb(100%,100%,100%);fill-opacity:1;" d="M 479.574219 433.109375 C 479.574219 435.953125 475.308594 435.953125 475.308594 433.109375 C 475.308594 430.265625 479.574219 430.265625 479.574219 433.109375 "/>
<path style=" stroke:none;fill-rule:nonzero;fill:rgb(100%,100%,100%);fill-opacity:1;" d="M 285.441406 106.710938 C 285.441406 109.554688 281.171875 109.554688 281.171875 106.710938 C 281.171875 103.863281 285.441406 103.863281 285.441406 106.710938 "/>
<path style=" stroke:none;fill-rule:nonzero;fill:rgb(100%,100%,100%);fill-opacity:1;" d="M 450.558594 122.070312 C 450.558594 124.914062 446.292969 124.914062 446.292969 122.070312 C 446.292969 119.222656 450.558594 119.222656 450.558594 122.070312 "/>
<path style=" stroke:none;fill-rule:nonzero;fill:rgb(100%,100%,100%);fill-opacity:1;" d="M 388.265625 501.804688 C 388.265625 504.648438 384 504.648438 384 501.804688 C 384 498.957031 388.265625 498.957031 388.265625 501.804688 "/>
<path style=" stroke:none;fill-rule:nonzero;fill:rgb(100%,100%,100%);fill-opacity:1;" d="M 470.1875 110.121094 C 470.1875 112.96875 465.917969 112.96875 465.917969 110.121094 C 465.917969 107.277344 470.1875 107.277344 470.1875 110.121094 "/>
<path style=" stroke:none;fill-rule:nonzero;fill:rgb(100%,100%,100%);fill-opacity:1;" d="M 145.066406 189.484375 C 145.066406 192.328125 140.800781 192.328125 140.800781 189.484375 C 140.800781 186.636719 145.066406 186.636719 145.066406 189.484375 "/>
<path style=" stroke:none;fill-rule:nonzero;fill:rgb(100%,100%,100%);fill-opacity:1;" d="M 514.558594 318.335938 C 514.558594 321.179688 510.292969 321.179688 510.292969 318.335938 C 510.292969 315.492188 514.558594 315.492188 514.558594 318.335938 "/>
<path style=" stroke:none;fill-rule:nonzero;fill:rgb(100%,100%,100%);fill-opacity:1;" d="M 23.894531 394.710938 C 23.894531 397.554688 19.625 397.554688 19.625 394.710938 C 19.625 391.863281 23.894531 391.863281 23.894531 394.710938 "/>
<path style=" stroke:none;fill-rule:nonzero;fill:rgb(100%,100%,100%);fill-opacity:1;" d="M 253.011719 512.042969 C 253.011719 514.886719 248.746094 514.886719 248.746094 512.042969 C 248.746094 509.199219 253.011719 509.199219 253.011719 512.042969 "/>
<path style=" stroke:none;fill-rule:nonzero;fill:rgb(100%,100%,100%);fill-opacity:1;" d="M 91.734375 300.84375 C 91.734375 303.6875 87.464844 303.6875 87.464844 300.84375 C 87.464844 298 91.734375 298 91.734375 300.84375 "/>
<path style=" stroke:none;fill-rule:nonzero;fill:rgb(100%,100%,100%);fill-opacity:1;" d="M 195.414062 113.964844 C 195.414062 116.808594 191.148438 116.808594 191.148438 113.964844 C 191.148438 111.117188 195.414062 111.117188 195.414062 113.964844 "/>
<path style=" stroke:none;fill-rule:nonzero;fill:rgb(100%,100%,100%);fill-opacity:1;" d="M 149.332031 194.175781 C 149.332031 197.019531 145.066406 197.019531 145.066406 194.175781 C 145.066406 191.332031 149.332031 191.332031 149.332031 194.175781 "/>
<path style=" stroke:none;fill-rule:nonzero;fill:rgb(100%,100%,100%);fill-opacity:1;" d="M 412.160156 262.867188 C 412.160156 265.714844 407.894531 265.714844 407.894531 262.867188 C 407.894531 260.023438 412.160156 260.023438 412.160156 262.867188 "/>
<path style=" stroke:none;fill-rule:nonzero;fill:rgb(100%,100%,100%);fill-opacity:1;" d="M 372.480469 169.003906 C 372.480469 171.847656 368.214844 171.847656 368.214844 169.003906 C 368.214844 166.160156 372.480469 166.160156 372.480469 169.003906 "/>
<path style=" stroke:none;fill-rule:nonzero;fill:rgb(100%,100%,100%);fill-opacity:1;" d="M 164.265625 209.964844 C 164.265625 212.808594 160 212.808594 160 209.964844 C 160 207.117188 164.265625 207.117188 164.265625 209.964844 "/>
<path style=" stroke:none;fill-rule:nonzero;fill:rgb(100%,100%,100%);fill-opacity:1;" d="M 53.761719 233.003906 C 53.761719 235.847656 49.492188 235.847656 49.492188 233.003906 C 49.492188 230.160156 53.761719 230.160156 53.761719 233.003906 "/>
<path style=" stroke:none;fill-rule:nonzero;fill:rgb(100%,100%,100%);fill-opacity:1;" d="M 134.398438 165.164062 C 134.398438 168.007812 130.132812 168.007812 130.132812 165.164062 C 130.132812 162.320312 134.398438 162.320312 134.398438 165.164062 "/>
<path style=" stroke:none;fill-rule:nonzero;fill:rgb(100%,100%,100%);fill-opacity:1;" d="M 113.921875 151.082031 C 113.921875 153.925781 109.652344 153.925781 109.652344 151.082031 C 109.652344 148.238281 113.921875 148.238281 113.921875 151.082031 "/>
<path style=" stroke:none;fill-rule:nonzero;fill:rgb(100%,100%,100%);fill-opacity:1;" d="M 16.214844 352.042969 C 16.214844 354.886719 11.945312 354.886719 11.945312 352.042969 C 11.945312 349.199219 16.214844 349.199219 16.214844 352.042969 "/>
<path style=" stroke:none;fill-rule:nonzero;fill:rgb(100%,100%,100%);fill-opacity:1;" d="M 61.441406 300.414062 C 61.441406 303.261719 57.171875 303.261719 57.171875 300.414062 C 57.171875 297.570312 61.441406 297.570312 61.441406 300.414062 "/>
<path style=" stroke:none;fill-rule:nonzero;fill:rgb(100%,100%,100%);fill-opacity:1;" d="M 35.414062 269.695312 C 35.414062 272.539062 31.148438 272.539062 31.148438 269.695312 C 31.148438 266.851562 35.414062 266.851562 35.414062 269.695312 "/>
<path style=" stroke:none;fill-rule:nonzero;fill:rgb(100%,100%,100%);fill-opacity:1;" d="M 67.839844 137.003906 C 67.839844 139.847656 63.574219 139.847656 63.574219 137.003906 C 63.574219 134.160156 67.839844 134.160156 67.839844 137.003906 "/>
<path style=" stroke:none;fill-rule:nonzero;fill:rgb(100%,100%,100%);fill-opacity:1;" d="M 349.867188 503.082031 C 349.867188 505.925781 345.601562 505.925781 345.601562 503.082031 C 345.601562 500.238281 349.867188 500.238281 349.867188 503.082031 "/>
<path style=" stroke:none;fill-rule:nonzero;fill:rgb(100%,100%,100%);fill-opacity:1;" d="M 506.878906 234.710938 C 506.878906 237.554688 502.613281 237.554688 502.613281 234.710938 C 502.613281 231.863281 506.878906 231.863281 506.878906 234.710938 "/>
<path style=" stroke:none;fill-rule:nonzero;fill:rgb(100%,100%,100%);fill-opacity:1;" d="M 37.972656 234.28125 C 37.972656 237.128906 33.707031 237.128906 33.707031 234.28125 C 33.707031 231.4375 37.972656 231.4375 37.972656 234.28125 "/>
<path style=" stroke:none;fill-rule:nonzero;fill:rgb(100%,100%,100%);fill-opacity:1;" d="M 473.601562 452.734375 C 473.601562 455.582031 469.332031 455.582031 469.332031 452.734375 C 469.332031 449.890625 473.601562 449.890625 473.601562 452.734375 "/>
<path style=" stroke:none;fill-rule:nonzero;fill:rgb(100%,100%,100%);fill-opacity:1;" d="M 180.480469 191.617188 C 180.480469 194.460938 176.214844 194.460938 176.214844 191.617188 C 176.214844 188.773438 180.480469 188.773438 180.480469 191.617188 "/>
<path style=" stroke:none;fill-rule:nonzero;fill:rgb(100%,100%,100%);fill-opacity:1;" d="M 347.304688 252.203125 C 347.304688 255.046875 343.039062 255.046875 343.039062 252.203125 C 343.039062 249.359375 347.304688 249.359375 347.304688 252.203125 "/>
<path style=" stroke:none;fill-rule:nonzero;fill:rgb(100%,100%,100%);fill-opacity:1;" d="M 386.558594 126.335938 C 386.558594 129.179688 382.292969 129.179688 382.292969 126.335938 C 382.292969 123.492188 386.558594 123.492188 386.558594 126.335938 "/>
<path style=" stroke:none;fill-rule:nonzero;fill:rgb(100%,100%,100%);fill-opacity:1;" d="M 392.535156 158.335938 C 392.535156 161.179688 388.265625 161.179688 388.265625 158.335938 C 388.265625 155.492188 392.535156 155.492188 392.535156 158.335938 "/>
<path style=" stroke:none;fill-rule:nonzero;fill:rgb(100%,84.3%,0%);fill-opacity:1;" d="M 323.414062 495.402344 C 323.414062 498.246094 319.148438 498.246094 319.148438 495.402344 C 319.148438 492.558594 323.414062 492.558594 323.414062 495.402344 "/>
<path style=" stroke:none;fill-rule:nonzero;fill:rgb(100%,84.3%,0%);fill-opacity:1;" d="M 467.199219 427.136719 C 467.199219 429.980469 462.933594 429.980469 462.933594 427.136719 C 462.933594 424.292969 467.199219 424.292969 467.199219 427.136719 "/>
<path style=" stroke:none;fill-rule:nonzero;fill:rgb(100%,84.3%,0%);fill-opacity:1;" d="M 302.082031 495.402344 C 302.082031 498.246094 297.8125 498.246094 297.8125 495.402344 C 297.8125 492.558594 302.082031 492.558594 302.082031 495.402344 "/>
<path style=" stroke:none;fill-rule:nonzero;fill:rgb(100%,84.3%,0%);fill-opacity:1;" d="M 467.199219 452.734375 C 467.199219 455.582031 462.933594 455.582031 462.933594 452.734375 C 462.933594 449.890625 467.199219 449.890625 467.199219 452.734375 "/>
<path style=" stroke:none;fill-rule:nonzero;fill:rgb(100%,84.3%,0%);fill-opacity:1;" d="M 186.878906 495.402344 C 186.878906 498.246094 182.613281 498.246094 182.613281 495.402344 C 182.613281 492.558594 186.878906 492.558594 186.878906 495.402344 "/>
<path style=" stroke:none;fill-rule:nonzero;fill:rgb(100%,84.3%,0%);fill-opacity:1;" d="M 293.546875 495.402344 C 293.546875 498.246094 289.28125 498.246094 289.28125 495.402344 C 289.28125 492.558594 293.546875 492.558594 293.546875 495.402344 "/>
<path style=" stroke:none;fill-rule:nonzero;fill:rgb(100%,84.3%,0%);fill-opacity:1;" d="M 135.679688 495.402344 C 135.679688 498.246094 131.414062 498.246094 131.414062 495.402344 C 131.414062 492.558594 135.679688 492.558594 135.679688 495.402344 "/>
<path style=" stroke:none;fill-rule:nonzero;fill:rgb(100%,84.3%,0%);fill-opacity:1;" d="M 212.480469 495.402344 C 212.480469 498.246094 208.214844 498.246094 208.214844 495.402344 C 208.214844 492.558594 212.480469 492.558594 212.480469 495.402344 "/>
<path style=" stroke:none;fill-rule:nonzero;fill:rgb(100%,84.3%,0%);fill-opacity:1;" d="M 238.082031 495.402344 C 238.082031 498.246094 233.8125 498.246094 233.8125 495.402344 C 233.8125 492.558594 238.082031 492.558594 238.082031 495.402344 "/>
<path style=" stroke:none;fill-rule:nonzero;fill:rgb(100%,84.3%,0%);fill-opacity:1;" d="M 49.066406 491.136719 C 49.066406 493.980469 44.800781 493.980469 44.800781 491.136719 C 44.800781 488.292969 49.066406 488.292969 49.066406 491.136719 "/>
<path style=" stroke:none;fill-rule:nonzero;fill:rgb(100%,84.3%,0%);fill-opacity:1;" d="M 97.28125 495.402344 C 97.28125 498.246094 93.011719 498.246094 93.011719 495.402344 C 93.011719 492.558594 97.28125 492.558594 97.28125 495.402344 "/>
<path style=" stroke:none;fill-rule:nonzero;fill:rgb(100%,84.3%,0%);fill-opacity:1;" d="M 366.082031 495.402344 C 366.082031 498.246094 361.8125 498.246094 361.8125 495.402344 C 361.8125 492.558594 366.082031 492.558594 366.082031 495.402344 "/>
<path style=" stroke:none;fill-rule:nonzero;fill:rgb(100%,84.3%,0%);fill-opacity:1;" d="M 93.011719 380.628906 C 93.011719 383.472656 88.746094 383.472656 88.746094 380.628906 C 88.746094 377.785156 93.011719 377.785156 93.011719 380.628906 "/>
<path style=" stroke:none;fill-rule:nonzero;fill:rgb(100%,84.3%,0%);fill-opacity:1;" d="M 105.8125 495.402344 C 105.8125 498.246094 101.546875 498.246094 101.546875 495.402344 C 101.546875 492.558594 105.8125 492.558594 105.8125 495.402344 "/>
<path style=" stroke:none;fill-rule:nonzero;fill:rgb(100%,84.3%,0%);fill-opacity:1;" d="M 165.546875 380.628906 C 165.546875 383.472656 161.28125 383.472656 161.28125 380.628906 C 161.28125 377.785156 165.546875 377.785156 165.546875 380.628906 "/>
<path style=" stroke:none;fill-rule:nonzero;fill:rgb(100%,84.3%,0%);fill-opacity:1;" d="M 49.066406 401.535156 C 49.066406 404.378906 44.800781 404.378906 44.800781 401.535156 C 44.800781 398.691406 49.066406 398.691406 49.066406 401.535156 "/>
<path style=" stroke:none;fill-rule:nonzero;fill:rgb(100%,84.3%,0%);fill-opacity:1;" d="M 467.199219 495.402344 C 467.199219 498.246094 462.933594 498.246094 462.933594 495.402344 C 462.933594 492.558594 467.199219 492.558594 467.199219 495.402344 "/>
<path style=" stroke:none;fill-rule:nonzero;fill:rgb(100%,84.3%,0%);fill-opacity:1;" d="M 306.347656 495.402344 C 306.347656 498.246094 302.078125 498.246094 302.078125 495.402344 C 302.078125 492.558594 306.347656 492.558594 306.347656 495.402344 "/>
<path style=" stroke:none;fill-rule:nonzero;fill:rgb(100%,84.3%,0%);fill-opacity:1;" d="M 71.679688 495.402344 C 71.679688 498.246094 67.414062 498.246094 67.414062 495.402344 C 67.414062 492.558594 71.679688 492.558594 71.679688 495.402344 "/>
<path style=" stroke:none;fill-rule:nonzero;fill:rgb(100%,84.3%,0%);fill-opacity:1;" d="M 197.546875 491.703125 C 197.546875 494.546875 193.28125 494.546875 193.28125 491.703125 C 193.28125 488.859375 197.546875 488.859375 197.546875 491.703125 "/>
<path style=" stroke:none;fill-rule:nonzero;fill:rgb(100%,84.3%,0%);fill-opacity:1;" d="M 361.8125 495.402344 C 361.8125 498.246094 357.546875 498.246094 357.546875 495.402344 C 357.546875 492.558594 361.8125 492.558594 361.8125 495.402344 "/>
<path style=" stroke:none;fill-rule:nonzero;fill:rgb(100%,84.3%,0%);fill-opacity:1;" d="M 267.945312 495.402344 C 267.945312 498.246094 263.679688 498.246094 263.679688 495.402344 C 263.679688 492.558594 267.945312 492.558594 267.945312 495.402344 "/>
<path style=" stroke:none;fill-rule:nonzero;fill:rgb(100%,84.3%,0%);fill-opacity:1;" d="M 467.199219 439.9375 C 467.199219 442.78125 462.933594 442.78125 462.933594 439.9375 C 462.933594 437.089844 467.199219 437.089844 467.199219 439.9375 "/>
<path style=" stroke:none;fill-rule:nonzero;fill:rgb(100%,84.3%,0%);fill-opacity:1;" d="M 49.066406 388.734375 C 49.066406 391.582031 44.800781 391.582031 44.800781 388.734375 C 44.800781 385.890625 49.066406 385.890625 49.066406 388.734375 "/>
<path style=" stroke:none;fill-rule:nonzero;fill:rgb(100%,84.3%,0%);fill-opacity:1;" d="M 259.414062 495.402344 C 259.414062 498.246094 255.148438 498.246094 255.148438 495.402344 C 255.148438 492.558594 259.414062 492.558594 259.414062 495.402344 "/>
<path style=" stroke:none;fill-rule:nonzero;fill:rgb(100%,84.3%,0%);fill-opacity:1;" d="M 289.28125 495.402344 C 289.28125 498.246094 285.011719 498.246094 285.011719 495.402344 C 285.011719 492.558594 289.28125 492.558594 289.28125 495.402344 "/>
<path style=" stroke:none;fill-rule:nonzero;fill:rgb(100%,84.3%,0%);fill-opacity:1;" d="M 340.480469 495.402344 C 340.480469 498.246094 336.214844 498.246094 336.214844 495.402344 C 336.214844 492.558594 340.480469 492.558594 340.480469 495.402344 "/>
<path style=" stroke:none;fill-rule:nonzero;fill:rgb(100%,84.3%,0%);fill-opacity:1;" d="M 122.878906 495.402344 C 122.878906 498.246094 118.613281 498.246094 118.613281 495.402344 C 118.613281 492.558594 122.878906 492.558594 122.878906 495.402344 "/>
<path style=" stroke:none;fill-rule:nonzero;fill:rgb(100%,84.3%,0%);fill-opacity:1;" d="M 49.066406 414.335938 C 49.066406 417.179688 44.800781 417.179688 44.800781 414.335938 C 44.800781 411.492188 49.066406 411.492188 49.066406 414.335938 "/>
<path style=" stroke:none;fill-rule:nonzero;fill:rgb(100%,84.3%,0%);fill-opacity:1;" d="M 49.066406 435.667969 C 49.066406 438.511719 44.800781 438.511719 44.800781 435.667969 C 44.800781 432.824219 49.066406 432.824219 49.066406 435.667969 "/>
<path style=" stroke:none;fill-rule:nonzero;fill:rgb(100%,84.3%,0%);fill-opacity:1;" d="M 169.8125 495.402344 C 169.8125 498.246094 165.546875 498.246094 165.546875 495.402344 C 165.546875 492.558594 169.8125 492.558594 169.8125 495.402344 "/>
<path style=" stroke:none;fill-rule:nonzero;fill:rgb(100%,84.3%,0%);fill-opacity:1;" d="M 467.199219 486.867188 C 467.199219 489.714844 462.933594 489.714844 462.933594 486.867188 C 462.933594 484.023438 467.199219 484.023438 467.199219 486.867188 "/>
<path style=" stroke:none;fill-rule:nonzero;fill:rgb(100%,84.3%,0%);fill-opacity:1;" d="M 459.945312 495.402344 C 459.945312 498.246094 455.679688 498.246094 455.679688 495.402344 C 455.679688 492.558594 459.945312 492.558594 459.945312 495.402344 "/>
<path style=" stroke:none;fill-rule:nonzero;fill:rgb(100%,84.3%,0%);fill-opacity:1;" d="M 49.066406 465.535156 C 49.066406 468.378906 44.800781 468.378906 44.800781 465.535156 C 44.800781 462.691406 49.066406 462.691406 49.066406 465.535156 "/>
<path style=" stroke:none;fill-rule:nonzero;fill:rgb(100%,84.3%,0%);fill-opacity:1;" d="M 467.199219 414.335938 C 467.199219 417.179688 462.933594 417.179688 462.933594 414.335938 C 462.933594 411.492188 467.199219 411.492188 467.199219 414.335938 "/>
<path style=" stroke:none;fill-rule:nonzero;fill:rgb(100%,84.3%,0%);fill-opacity:1;" d="M 349.011719 495.402344 C 349.011719 498.246094 344.746094 498.246094 344.746094 495.402344 C 344.746094 492.558594 349.011719 492.558594 349.011719 495.402344 "/>
<path style=" stroke:none;fill-rule:nonzero;fill:rgb(100%,84.3%,0%);fill-opacity:1;" d="M 152.746094 380.628906 C 152.746094 383.472656 148.480469 383.472656 148.480469 380.628906 C 148.480469 377.785156 152.746094 377.785156 152.746094 380.628906 "/>
<path style=" stroke:none;fill-rule:nonzero;fill:rgb(100%,84.3%,0%);fill-opacity:1;" d="M 272.214844 495.402344 C 272.214844 498.246094 267.945312 498.246094 267.945312 495.402344 C 267.945312 492.558594 272.214844 492.558594 272.214844 495.402344 "/>
<path style=" stroke:none;fill-rule:nonzero;fill:rgb(100%,84.3%,0%);fill-opacity:1;" d="M 378.878906 495.402344 C 378.878906 498.246094 374.613281 498.246094 374.613281 495.402344 C 374.613281 492.558594 378.878906 492.558594 378.878906 495.402344 "/>
<path style=" stroke:none;fill-rule:nonzero;fill:rgb(100%,84.3%,0%);fill-opacity:1;" d="M 144.214844 380.628906 C 144.214844 383.472656 139.945312 383.472656 139.945312 380.628906 C 139.945312 377.785156 144.214844 377.785156 144.214844 380.628906 "/>
<path style=" stroke:none;fill-rule:nonzero;fill:rgb(100%,84.3%,0%);fill-opacity:1;" d="M 182.613281 495.402344 C 182.613281 498.246094 178.347656 498.246094 178.347656 495.402344 C 178.347656 492.558594 182.613281 492.558594 182.613281 495.402344 "/>
<path style=" stroke:none;fill-rule:nonzero;fill:rgb(100%,84.3%,0%);fill-opacity:1;" d="M 49.066406 380.628906 C 49.066406 383.472656 44.800781 383.472656 44.800781 380.628906 C 44.800781 377.785156 49.066406 377.785156 49.066406 380.628906 "/>
<path style=" stroke:none;fill-rule:nonzero;fill:rgb(100%,84.3%,0%);fill-opacity:1;" d="M 148.480469 495.402344 C 148.480469 498.246094 144.214844 498.246094 144.214844 495.402344 C 144.214844 492.558594 148.480469 492.558594 148.480469 495.402344 "/>
<path style=" stroke:none;fill-rule:nonzero;fill:rgb(100%,84.3%,0%);fill-opacity:1;" d="M 467.199219 491.136719 C 467.199219 493.980469 462.933594 493.980469 462.933594 491.136719 C 462.933594 488.292969 467.199219 488.292969 467.199219 491.136719 "/>
<path style=" stroke:none;fill-rule:nonzero;fill:rgb(100%,84.3%,0%);fill-opacity:1;" d="M 49.066406 439.9375 C 49.066406 442.78125 44.800781 442.78125 44.800781 439.9375 C 44.800781 437.089844 49.066406 437.089844 49.066406 439.9375 "/>
<path style=" stroke:none;fill-rule:nonzero;fill:rgb(100%,84.3%,0%);fill-opacity:1;" d="M 182.613281 380.628906 C 182.613281 383.472656 178.347656 383.472656 178.347656 380.628906 C 178.347656 377.785156 182.613281 377.785156 182.613281 380.628906 "/>
<path style=" stroke:none;fill-rule:nonzero;fill:rgb(100%,84.3%,0%);fill-opacity:1;" d="M 229.546875 495.402344 C 229.546875 498.246094 225.28125 498.246094 225.28125 495.402344 C 225.28125 492.558594 229.546875 492.558594 229.546875 495.402344 "/>
<path style=" stroke:none;fill-rule:nonzero;fill:rgb(100%,84.3%,0%);fill-opacity:1;" d="M 49.066406 444.203125 C 49.066406 447.046875 44.800781 447.046875 44.800781 444.203125 C 44.800781 441.359375 49.066406 441.359375 49.066406 444.203125 "/>
<path style=" stroke:none;fill-rule:nonzero;fill:rgb(100%,84.3%,0%);fill-opacity:1;" d="M 54.613281 380.628906 C 54.613281 383.472656 50.347656 383.472656 50.347656 380.628906 C 50.347656 377.785156 54.613281 377.785156 54.613281 380.628906 "/>
<path style=" stroke:none;fill-rule:nonzero;fill:rgb(100%,84.3%,0%);fill-opacity:1;" d="M 152.746094 495.402344 C 152.746094 498.246094 148.480469 498.246094 148.480469 495.402344 C 148.480469 492.558594 152.746094 492.558594 152.746094 495.402344 "/>
<path style=" stroke:none;fill-rule:nonzero;fill:rgb(100%,84.3%,0%);fill-opacity:1;" d="M 54.613281 495.402344 C 54.613281 498.246094 50.347656 498.246094 50.347656 495.402344 C 50.347656 492.558594 54.613281 492.558594 54.613281 495.402344 "/>
<path style=" stroke:none;fill-rule:nonzero;fill:rgb(100%,84.3%,0%);fill-opacity:1;" d="M 49.066406 418.601562 C 49.066406 421.449219 44.800781 421.449219 44.800781 418.601562 C 44.800781 415.757812 49.066406 415.757812 49.066406 418.601562 "/>
<path style=" stroke:none;fill-rule:nonzero;fill:rgb(100%,84.3%,0%);fill-opacity:1;" d="M 336.214844 495.402344 C 336.214844 498.246094 331.945312 498.246094 331.945312 495.402344 C 331.945312 492.558594 336.214844 492.558594 336.214844 495.402344 "/>
<path style=" stroke:none;fill-rule:nonzero;fill:rgb(100%,84.3%,0%);fill-opacity:1;" d="M 387.414062 495.402344 C 387.414062 498.246094 383.148438 498.246094 383.148438 495.402344 C 383.148438 492.558594 387.414062 492.558594 387.414062 495.402344 "/>
<path style=" stroke:none;fill-rule:nonzero;fill:rgb(100%,84.3%,0%);fill-opacity:1;" d="M 250.878906 495.402344 C 250.878906 498.246094 246.613281 498.246094 246.613281 495.402344 C 246.613281 492.558594 250.878906 492.558594 250.878906 495.402344 "/>
<path style=" stroke:none;fill-rule:nonzero;fill:rgb(100%,84.3%,0%);fill-opacity:1;" d="M 161.28125 495.402344 C 161.28125 498.246094 157.011719 498.246094 157.011719 495.402344 C 157.011719 492.558594 161.28125 492.558594 161.28125 495.402344 "/>
<path style=" stroke:none;fill-rule:nonzero;fill:rgb(100%,84.3%,0%);fill-opacity:1;" d="M 208.214844 495.402344 C 208.214844 498.246094 203.945312 498.246094 203.945312 495.402344 C 203.945312 492.558594 208.214844 492.558594 208.214844 495.402344 "/>
<path style=" stroke:none;fill-rule:nonzero;fill:rgb(100%,84.3%,0%);fill-opacity:1;" d="M 467.199219 397.269531 C 467.199219 400.113281 462.933594 400.113281 462.933594 397.269531 C 462.933594 394.425781 467.199219 394.425781 467.199219 397.269531 "/>
<path style=" stroke:none;fill-rule:nonzero;fill:rgb(100%,84.3%,0%);fill-opacity:1;" d="M 467.199219 418.601562 C 467.199219 421.449219 462.933594 421.449219 462.933594 418.601562 C 462.933594 415.757812 467.199219 415.757812 467.199219 418.601562 "/>
<path style=" stroke:none;fill-rule:nonzero;fill:rgb(100%,84.3%,0%);fill-opacity:1;" d="M 84.480469 380.628906 C 84.480469 383.472656 80.214844 383.472656 80.214844 380.628906 C 80.214844 377.785156 84.480469 377.785156 84.480469 380.628906 "/>
<path style=" stroke:none;fill-rule:nonzero;fill:rgb(100%,84.3%,0%);fill-opacity:1;" d="M 180.480469 384.328125 C 180.480469 387.171875 176.214844 387.171875 176.214844 384.328125 C 176.214844 381.484375 180.480469 381.484375 180.480469 384.328125 "/>
<path style=" stroke:none;fill-rule:nonzero;fill:rgb(100%,84.3%,0%);fill-opacity:1;" d="M 49.066406 397.269531 C 49.066406 400.113281 44.800781 400.113281 44.800781 397.269531 C 44.800781 394.425781 49.066406 394.425781 49.066406 397.269531 "/>
<path style=" stroke:none;fill-rule:nonzero;fill:rgb(100%,84.3%,0%);fill-opacity:1;" d="M 110.082031 495.402344 C 110.082031 498.246094 105.8125 498.246094 105.8125 495.402344 C 105.8125 492.558594 110.082031 492.558594 110.082031 495.402344 "/>
<path style=" stroke:none;fill-rule:nonzero;fill:rgb(100%,84.3%,0%);fill-opacity:1;" d="M 459.945312 380.628906 C 459.945312 383.472656 455.679688 383.472656 455.679688 380.628906 C 455.679688 377.785156 459.945312 377.785156 459.945312 380.628906 "/>
<path style=" stroke:none;fill-rule:nonzero;fill:rgb(100%,84.3%,0%);fill-opacity:1;" d="M 49.066406 478.335938 C 49.066406 481.179688 44.800781 481.179688 44.800781 478.335938 C 44.800781 475.492188 49.066406 475.492188 49.066406 478.335938 "/>
<path style=" stroke:none;fill-rule:nonzero;fill:rgb(100%,84.3%,0%);fill-opacity:1;" d="M 199.679688 495.402344 C 199.679688 498.246094 195.414062 498.246094 195.414062 495.402344 C 195.414062 492.558594 199.679688 492.558594 199.679688 495.402344 "/>
<path style=" stroke:none;fill-rule:nonzero;fill:rgb(100%,84.3%,0%);fill-opacity:1;" d="M 169.8125 380.628906 C 169.8125 383.472656 165.546875 383.472656 165.546875 380.628906 C 165.546875 377.785156 169.8125 377.785156 169.8125 380.628906 "/>
<path style=" stroke:none;fill-rule:nonzero;fill:rgb(100%,84.3%,0%);fill-opacity:1;" d="M 75.945312 495.402344 C 75.945312 498.246094 71.679688 498.246094 71.679688 495.402344 C 71.679688 492.558594 75.945312 492.558594 75.945312 495.402344 "/>
<path style=" stroke:none;fill-rule:nonzero;fill:rgb(100%,84.3%,0%);fill-opacity:1;" d="M 199.679688 380.628906 C 199.679688 383.472656 195.414062 383.472656 195.414062 380.628906 C 195.414062 377.785156 199.679688 377.785156 199.679688 380.628906 "/>
<path style=" stroke:none;fill-rule:nonzero;fill:rgb(100%,84.3%,0%);fill-opacity:1;" d="M 67.414062 380.628906 C 67.414062 383.472656 63.148438 383.472656 63.148438 380.628906 C 63.148438 377.785156 67.414062 377.785156 67.414062 380.628906 "/>
<path style=" stroke:none;fill-rule:nonzero;fill:rgb(100%,84.3%,0%);fill-opacity:1;" d="M 455.679688 495.402344 C 455.679688 498.246094 451.414062 498.246094 451.414062 495.402344 C 451.414062 492.558594 455.679688 492.558594 455.679688 495.402344 "/>
<path style=" stroke:none;fill-rule:nonzero;fill:rgb(100%,84.3%,0%);fill-opacity:1;" d="M 467.199219 401.535156 C 467.199219 404.378906 462.933594 404.378906 462.933594 401.535156 C 462.933594 398.691406 467.199219 398.691406 467.199219 401.535156 "/>
<path style=" stroke:none;fill-rule:nonzero;fill:rgb(100%,84.3%,0%);fill-opacity:1;" d="M 101.546875 495.402344 C 101.546875 498.246094 97.28125 498.246094 97.28125 495.402344 C 97.28125 492.558594 101.546875 492.558594 101.546875 495.402344 "/>
<path style=" stroke:none;fill-rule:nonzero;fill:rgb(100%,84.3%,0%);fill-opacity:1;" d="M 191.144531 380.628906 C 191.144531 383.472656 186.878906 383.472656 186.878906 380.628906 C 186.878906 377.785156 191.144531 377.785156 191.144531 380.628906 "/>
<path style=" stroke:none;fill-rule:nonzero;fill:rgb(100%,84.3%,0%);fill-opacity:1;" d="M 58.878906 495.402344 C 58.878906 498.246094 54.613281 498.246094 54.613281 495.402344 C 54.613281 492.558594 58.878906 492.558594 58.878906 495.402344 "/>
<path style=" stroke:none;fill-rule:nonzero;fill:rgb(100%,84.3%,0%);fill-opacity:1;" d="M 67.414062 495.402344 C 67.414062 498.246094 63.148438 498.246094 63.148438 495.402344 C 63.148438 492.558594 67.414062 492.558594 67.414062 495.402344 "/>
<path style=" stroke:none;fill-rule:nonzero;fill:rgb(100%,84.3%,0%);fill-opacity:1;" d="M 344.746094 495.402344 C 344.746094 498.246094 340.480469 498.246094 340.480469 495.402344 C 340.480469 492.558594 344.746094 492.558594 344.746094 495.402344 "/>
<path style=" stroke:none;fill-rule:nonzero;fill:rgb(100%,84.3%,0%);fill-opacity:1;" d="M 467.199219 448.46875 C 467.199219 451.3125 462.933594 451.3125 462.933594 448.46875 C 462.933594 445.625 467.199219 445.625 467.199219 448.46875 "/>
<path style=" stroke:none;fill-rule:nonzero;fill:rgb(100%,84.3%,0%);fill-opacity:1;" d="M 253.011719 491.703125 C 253.011719 494.546875 248.746094 494.546875 248.746094 491.703125 C 248.746094 488.859375 253.011719 488.859375 253.011719 491.703125 "/>
<path style=" stroke:none;fill-rule:nonzero;fill:rgb(100%,84.3%,0%);fill-opacity:1;" d="M 467.199219 444.203125 C 467.199219 447.046875 462.933594 447.046875 462.933594 444.203125 C 462.933594 441.359375 467.199219 441.359375 467.199219 444.203125 "/>
<path style=" stroke:none;fill-rule:nonzero;fill:rgb(100%,84.3%,0%);fill-opacity:1;" d="M 467.199219 465.535156 C 467.199219 468.378906 462.933594 468.378906 462.933594 465.535156 C 462.933594 462.691406 467.199219 462.691406 467.199219 465.535156 "/>
<path style=" stroke:none;fill-rule:nonzero;fill:rgb(100%,84.3%,0%);fill-opacity:1;" d="M 263.679688 495.402344 C 263.679688 498.246094 259.414062 498.246094 259.414062 495.402344 C 259.414062 492.558594 263.679688 492.558594 263.679688 495.402344 "/>
<path style=" stroke:none;fill-rule:nonzero;fill:rgb(100%,84.3%,0%);fill-opacity:1;" d="M 52.480469 384.328125 C 52.480469 387.171875 48.214844 387.171875 48.214844 384.328125 C 48.214844 381.484375 52.480469 381.484375 52.480469 384.328125 "/>
<path style=" stroke:none;fill-rule:nonzero;fill:rgb(100%,84.3%,0%);fill-opacity:1;" d="M 80.214844 495.402344 C 80.214844 498.246094 75.945312 498.246094 75.945312 495.402344 C 75.945312 492.558594 80.214844 492.558594 80.214844 495.402344 "/>
<path style=" stroke:none;fill-rule:nonzero;fill:rgb(100%,84.3%,0%);fill-opacity:1;" d="M 63.144531 380.628906 C 63.144531 383.472656 58.878906 383.472656 58.878906 380.628906 C 58.878906 377.785156 63.144531 377.785156 63.144531 380.628906 "/>
<path style=" stroke:none;fill-rule:nonzero;fill:rgb(100%,84.3%,0%);fill-opacity:1;" d="M 467.199219 435.667969 C 467.199219 438.511719 462.933594 438.511719 462.933594 435.667969 C 462.933594 432.824219 467.199219 432.824219 467.199219 435.667969 "/>
<path style=" stroke:none;fill-rule:nonzero;fill:rgb(100%,84.3%,0%);fill-opacity:1;" d="M 285.011719 495.402344 C 285.011719 498.246094 280.746094 498.246094 280.746094 495.402344 C 280.746094 492.558594 285.011719 492.558594 285.011719 495.402344 "/>
<path style=" stroke:none;fill-rule:nonzero;fill:rgb(100%,84.3%,0%);fill-opacity:1;" d="M 49.066406 448.46875 C 49.066406 451.3125 44.800781 451.3125 44.800781 448.46875 C 44.800781 445.625 49.066406 445.625 49.066406 448.46875 "/>
<path style=" stroke:none;fill-rule:nonzero;fill:rgb(100%,84.3%,0%);fill-opacity:1;" d="M 391.679688 495.402344 C 391.679688 498.246094 387.414062 498.246094 387.414062 495.402344 C 387.414062 492.558594 391.679688 492.558594 391.679688 495.402344 "/>
<path style=" stroke:none;fill-rule:nonzero;fill:rgb(100%,84.3%,0%);fill-opacity:1;" d="M 467.199219 474.070312 C 467.199219 476.914062 462.933594 476.914062 462.933594 474.070312 C 462.933594 471.222656 467.199219 471.222656 467.199219 474.070312 "/>
<path style=" stroke:none;fill-rule:nonzero;fill:rgb(100%,84.3%,0%);fill-opacity:1;" d="M 353.28125 495.402344 C 353.28125 498.246094 349.011719 498.246094 349.011719 495.402344 C 349.011719 492.558594 353.28125 492.558594 353.28125 495.402344 "/>
<path style=" stroke:none;fill-rule:nonzero;fill:rgb(100%,84.3%,0%);fill-opacity:1;" d="M 242.347656 495.402344 C 242.347656 498.246094 238.078125 498.246094 238.078125 495.402344 C 238.078125 492.558594 242.347656 492.558594 242.347656 495.402344 "/>
<path style=" stroke:none;fill-rule:nonzero;fill:rgb(100%,84.3%,0%);fill-opacity:1;" d="M 178.347656 380.628906 C 178.347656 383.472656 174.078125 383.472656 174.078125 380.628906 C 174.078125 377.785156 178.347656 377.785156 178.347656 380.628906 "/>
<path style=" stroke:none;fill-rule:nonzero;fill:rgb(100%,84.3%,0%);fill-opacity:1;" d="M 467.199219 461.269531 C 467.199219 464.113281 462.933594 464.113281 462.933594 461.269531 C 462.933594 458.425781 467.199219 458.425781 467.199219 461.269531 "/>
<path style=" stroke:none;fill-rule:nonzero;fill:rgb(100%,84.3%,0%);fill-opacity:1;" d="M 49.066406 422.867188 C 49.066406 425.714844 44.800781 425.714844 44.800781 422.867188 C 44.800781 420.023438 49.066406 420.023438 49.066406 422.867188 "/>
<path style=" stroke:none;fill-rule:nonzero;fill:rgb(100%,84.3%,0%);fill-opacity:1;" d="M 225.28125 495.402344 C 225.28125 498.246094 221.011719 498.246094 221.011719 495.402344 C 221.011719 492.558594 225.28125 492.558594 225.28125 495.402344 "/>
<path style=" stroke:none;fill-rule:nonzero;fill:rgb(100%,84.3%,0%);fill-opacity:1;" d="M 176.214844 384.328125 C 176.214844 387.171875 171.945312 387.171875 171.945312 384.328125 C 171.945312 381.484375 176.214844 381.484375 176.214844 384.328125 "/>
<path style=" stroke:none;fill-rule:nonzero;fill:rgb(100%,84.3%,0%);fill-opacity:1;" d="M 88.746094 380.628906 C 88.746094 383.472656 84.480469 383.472656 84.480469 380.628906 C 84.480469 377.785156 88.746094 377.785156 88.746094 380.628906 "/>
<path style=" stroke:none;fill-rule:nonzero;fill:rgb(100%,84.3%,0%);fill-opacity:1;" d="M 195.414062 495.402344 C 195.414062 498.246094 191.148438 498.246094 191.148438 495.402344 C 191.148438 492.558594 195.414062 492.558594 195.414062 495.402344 "/>
<path style=" stroke:none;fill-rule:nonzero;fill:rgb(100%,84.3%,0%);fill-opacity:1;" d="M 71.679688 380.628906 C 71.679688 383.472656 67.414062 383.472656 67.414062 380.628906 C 67.414062 377.785156 71.679688 377.785156 71.679688 380.628906 "/>
<path style=" stroke:none;fill-rule:nonzero;fill:rgb(100%,84.3%,0%);fill-opacity:1;" d="M 75.945312 380.628906 C 75.945312 383.472656 71.679688 383.472656 71.679688 380.628906 C 71.679688 377.785156 75.945312 377.785156 75.945312 380.628906 "/>
<path style=" stroke:none;fill-rule:nonzero;fill:rgb(100%,84.3%,0%);fill-opacity:1;" d="M 186.878906 380.628906 C 186.878906 383.472656 182.613281 383.472656 182.613281 380.628906 C 182.613281 377.785156 186.878906 377.785156 186.878906 380.628906 "/>
<path style=" stroke:none;fill-rule:nonzero;fill:rgb(100%,84.3%,0%);fill-opacity:1;" d="M 178.347656 495.402344 C 178.347656 498.246094 174.078125 498.246094 174.078125 495.402344 C 174.078125 492.558594 178.347656 492.558594 178.347656 495.402344 "/>
<path style=" stroke:none;fill-rule:nonzero;fill:rgb(100%,84.3%,0%);fill-opacity:1;" d="M 467.199219 388.734375 C 467.199219 391.582031 462.933594 391.582031 462.933594 388.734375 C 462.933594 385.890625 467.199219 385.890625 467.199219 388.734375 "/>
<path style=" stroke:none;fill-rule:nonzero;fill:rgb(100%,84.3%,0%);fill-opacity:1;" d="M 357.546875 495.402344 C 357.546875 498.246094 353.28125 498.246094 353.28125 495.402344 C 353.28125 492.558594 357.546875 492.558594 357.546875 495.402344 "/>
<path style=" stroke:none;fill-rule:nonzero;fill:rgb(100%,84.3%,0%);fill-opacity:1;" d="M 131.414062 495.402344 C 131.414062 498.246094 127.148438 498.246094 127.148438 495.402344 C 127.148438 492.558594 131.414062 492.558594 131.414062 495.402344 "/>
<path style=" stroke:none;fill-rule:nonzero;fill:rgb(100%,84.3%,0%);fill-opacity:1;" d="M 49.066406 452.734375 C 49.066406 455.582031 44.800781 455.582031 44.800781 452.734375 C 44.800781 449.890625 49.066406 449.890625 49.066406 452.734375 "/>
<path style=" stroke:none;fill-rule:nonzero;fill:rgb(100%,84.3%,0%);fill-opacity:1;" d="M 246.613281 495.402344 C 246.613281 498.246094 242.347656 498.246094 242.347656 495.402344 C 242.347656 492.558594 246.613281 492.558594 246.613281 495.402344 "/>
<path style=" stroke:none;fill-rule:nonzero;fill:rgb(100%,84.3%,0%);fill-opacity:1;" d="M 203.945312 380.628906 C 203.945312 383.472656 199.679688 383.472656 199.679688 380.628906 C 199.679688 377.785156 203.945312 377.785156 203.945312 380.628906 "/>
<path style=" stroke:none;fill-rule:nonzero;fill:rgb(100%,84.3%,0%);fill-opacity:1;" d="M 157.011719 495.402344 C 157.011719 498.246094 152.746094 498.246094 152.746094 495.402344 C 152.746094 492.558594 157.011719 492.558594 157.011719 495.402344 "/>
<path style=" stroke:none;fill-rule:nonzero;fill:rgb(100%,84.3%,0%);fill-opacity:1;" d="M 84.480469 495.402344 C 84.480469 498.246094 80.214844 498.246094 80.214844 495.402344 C 80.214844 492.558594 84.480469 492.558594 84.480469 495.402344 "/>
<path style=" stroke:none;fill-rule:nonzero;fill:rgb(100%,84.3%,0%);fill-opacity:1;" d="M 233.8125 495.402344 C 233.8125 498.246094 229.546875 498.246094 229.546875 495.402344 C 229.546875 492.558594 233.8125 492.558594 233.8125 495.402344 "/>
<path style=" stroke:none;fill-rule:nonzero;fill:rgb(100%,84.3%,0%);fill-opacity:1;" d="M 383.144531 495.402344 C 383.144531 498.246094 378.878906 498.246094 378.878906 495.402344 C 378.878906 492.558594 383.144531 492.558594 383.144531 495.402344 "/>
<path style=" stroke:none;fill-rule:nonzero;fill:rgb(100%,84.3%,0%);fill-opacity:1;" d="M 49.066406 482.601562 C 49.066406 485.449219 44.800781 485.449219 44.800781 482.601562 C 44.800781 479.757812 49.066406 479.757812 49.066406 482.601562 "/>
<path style=" stroke:none;fill-rule:nonzero;fill:rgb(100%,84.3%,0%);fill-opacity:1;" d="M 216.746094 495.402344 C 216.746094 498.246094 212.480469 498.246094 212.480469 495.402344 C 212.480469 492.558594 216.746094 492.558594 216.746094 495.402344 "/>
<path style=" stroke:none;fill-rule:nonzero;fill:rgb(100%,84.3%,0%);fill-opacity:1;" d="M 157.011719 380.628906 C 157.011719 383.472656 152.746094 383.472656 152.746094 380.628906 C 152.746094 377.785156 157.011719 377.785156 157.011719 380.628906 "/>
<path style=" stroke:none;fill-rule:nonzero;fill:rgb(100%,84.3%,0%);fill-opacity:1;" d="M 467.199219 405.804688 C 467.199219 408.648438 462.933594 408.648438 462.933594 405.804688 C 462.933594 402.957031 467.199219 402.957031 467.199219 405.804688 "/>
<path style=" stroke:none;fill-rule:nonzero;fill:rgb(100%,84.3%,0%);fill-opacity:1;" d="M 49.066406 405.804688 C 49.066406 408.648438 44.800781 408.648438 44.800781 405.804688 C 44.800781 402.957031 49.066406 402.957031 49.066406 405.804688 "/>
<path style=" stroke:none;fill-rule:nonzero;fill:rgb(100%,84.3%,0%);fill-opacity:1;" d="M 467.199219 380.628906 C 467.199219 383.472656 462.933594 383.472656 462.933594 380.628906 C 462.933594 377.785156 467.199219 377.785156 467.199219 380.628906 "/>
<path style=" stroke:none;fill-rule:nonzero;fill:rgb(100%,84.3%,0%);fill-opacity:1;" d="M 463.5 454.867188 C 463.5 457.714844 459.234375 457.714844 459.234375 454.867188 C 459.234375 452.023438 463.5 452.023438 463.5 454.867188 "/>
<path style=" stroke:none;fill-rule:nonzero;fill:rgb(100%,84.3%,0%);fill-opacity:1;" d="M 310.613281 495.402344 C 310.613281 498.246094 306.347656 498.246094 306.347656 495.402344 C 306.347656 492.558594 310.613281 492.558594 310.613281 495.402344 "/>
<path style=" stroke:none;fill-rule:nonzero;fill:rgb(100%,84.3%,0%);fill-opacity:1;" d="M 255.144531 495.402344 C 255.144531 498.246094 250.878906 498.246094 250.878906 495.402344 C 250.878906 492.558594 255.144531 492.558594 255.144531 495.402344 "/>
<path style=" stroke:none;fill-rule:nonzero;fill:rgb(100%,84.3%,0%);fill-opacity:1;" d="M 331.945312 495.402344 C 331.945312 498.246094 327.679688 498.246094 327.679688 495.402344 C 327.679688 492.558594 331.945312 492.558594 331.945312 495.402344 "/>
<path style=" stroke:none;fill-rule:nonzero;fill:rgb(100%,84.3%,0%);fill-opacity:1;" d="M 63.144531 495.402344 C 63.144531 498.246094 58.878906 498.246094 58.878906 495.402344 C 58.878906 492.558594 63.144531 492.558594 63.144531 495.402344 "/>
<path style=" stroke:none;fill-rule:nonzero;fill:rgb(100%,84.3%,0%);fill-opacity:1;" d="M 49.066406 486.867188 C 49.066406 489.714844 44.800781 489.714844 44.800781 486.867188 C 44.800781 484.023438 49.066406 484.023438 49.066406 486.867188 "/>
<path style=" stroke:none;fill-rule:nonzero;fill:rgb(100%,84.3%,0%);fill-opacity:1;" d="M 451.414062 495.402344 C 451.414062 498.246094 447.148438 498.246094 447.148438 495.402344 C 447.148438 492.558594 451.414062 492.558594 451.414062 495.402344 "/>
<path style=" stroke:none;fill-rule:nonzero;fill:rgb(100%,84.3%,0%);fill-opacity:1;" d="M 467.199219 410.070312 C 467.199219 412.914062 462.933594 412.914062 462.933594 410.070312 C 462.933594 407.222656 467.199219 407.222656 467.199219 410.070312 "/>
<path style=" stroke:none;fill-rule:nonzero;fill:rgb(100%,84.3%,0%);fill-opacity:1;" d="M 319.144531 495.402344 C 319.144531 498.246094 314.878906 498.246094 314.878906 495.402344 C 314.878906 492.558594 319.144531 492.558594 319.144531 495.402344 "/>
<path style=" stroke:none;fill-rule:nonzero;fill:rgb(100%,84.3%,0%);fill-opacity:1;" d="M 139.945312 495.402344 C 139.945312 498.246094 135.679688 498.246094 135.679688 495.402344 C 135.679688 492.558594 139.945312 492.558594 139.945312 495.402344 "/>
<path style=" stroke:none;fill-rule:nonzero;fill:rgb(100%,84.3%,0%);fill-opacity:1;" d="M 88.746094 495.402344 C 88.746094 498.246094 84.480469 498.246094 84.480469 495.402344 C 84.480469 492.558594 88.746094 492.558594 88.746094 495.402344 "/>
<path style=" stroke:none;fill-rule:nonzero;fill:rgb(100%,84.3%,0%);fill-opacity:1;" d="M 49.066406 474.070312 C 49.066406 476.914062 44.800781 476.914062 44.800781 474.070312 C 44.800781 471.222656 49.066406 471.222656 49.066406 474.070312 "/>
<path style=" stroke:none;fill-rule:nonzero;fill:rgb(100%,84.3%,0%);fill-opacity:1;" d="M 280.746094 495.402344 C 280.746094 498.246094 276.480469 498.246094 276.480469 495.402344 C 276.480469 492.558594 280.746094 492.558594 280.746094 495.402344 "/>
<path style=" stroke:none;fill-rule:nonzero;fill:rgb(100%,84.3%,0%);fill-opacity:1;" d="M 93.011719 495.402344 C 93.011719 498.246094 88.746094 498.246094 88.746094 495.402344 C 88.746094 492.558594 93.011719 492.558594 93.011719 495.402344 "/>
<path style=" stroke:none;fill-rule:nonzero;fill:rgb(100%,84.3%,0%);fill-opacity:1;" d="M 314.878906 495.402344 C 314.878906 498.246094 310.613281 498.246094 310.613281 495.402344 C 310.613281 492.558594 314.878906 492.558594 314.878906 495.402344 "/>
<path style=" stroke:none;fill-rule:nonzero;fill:rgb(100%,84.3%,0%);fill-opacity:1;" d="M 467.199219 478.335938 C 467.199219 481.179688 462.933594 481.179688 462.933594 478.335938 C 462.933594 475.492188 467.199219 475.492188 467.199219 478.335938 "/>
<path style=" stroke:none;fill-rule:nonzero;fill:rgb(100%,84.3%,0%);fill-opacity:1;" d="M 395.945312 495.402344 C 395.945312 498.246094 391.679688 498.246094 391.679688 495.402344 C 391.679688 492.558594 395.945312 492.558594 395.945312 495.402344 "/>
<path style=" stroke:none;fill-rule:nonzero;fill:rgb(100%,84.3%,0%);fill-opacity:1;" d="M 297.8125 495.402344 C 297.8125 498.246094 293.546875 498.246094 293.546875 495.402344 C 293.546875 492.558594 297.8125 492.558594 297.8125 495.402344 "/>
<path style=" stroke:none;fill-rule:nonzero;fill:rgb(100%,84.3%,0%);fill-opacity:1;" d="M 463.5 450.601562 C 463.5 453.449219 459.234375 453.449219 459.234375 450.601562 C 459.234375 447.757812 463.5 447.757812 463.5 450.601562 "/>
<path style=" stroke:none;fill-rule:nonzero;fill:rgb(100%,84.3%,0%);fill-opacity:1;" d="M 221.011719 495.402344 C 221.011719 498.246094 216.746094 498.246094 216.746094 495.402344 C 216.746094 492.558594 221.011719 492.558594 221.011719 495.402344 "/>
<path style=" stroke:none;fill-rule:nonzero;fill:rgb(100%,84.3%,0%);fill-opacity:1;" d="M 467.199219 393.003906 C 467.199219 395.847656 462.933594 395.847656 462.933594 393.003906 C 462.933594 390.160156 467.199219 390.160156 467.199219 393.003906 "/>
<path style=" stroke:none;fill-rule:nonzero;fill:rgb(100%,84.3%,0%);fill-opacity:1;" d="M 174.082031 380.628906 C 174.082031 383.472656 169.8125 383.472656 169.8125 380.628906 C 169.8125 377.785156 174.082031 377.785156 174.082031 380.628906 "/>
<path style=" stroke:none;fill-rule:nonzero;fill:rgb(100%,84.3%,0%);fill-opacity:1;" d="M 49.066406 431.402344 C 49.066406 434.246094 44.800781 434.246094 44.800781 431.402344 C 44.800781 428.558594 49.066406 428.558594 49.066406 431.402344 "/>
<path style=" stroke:none;fill-rule:nonzero;fill:rgb(100%,84.3%,0%);fill-opacity:1;" d="M 165.546875 495.402344 C 165.546875 498.246094 161.28125 498.246094 161.28125 495.402344 C 161.28125 492.558594 165.546875 492.558594 165.546875 495.402344 "/>
<path style=" stroke:none;fill-rule:nonzero;fill:rgb(100%,84.3%,0%);fill-opacity:1;" d="M 467.199219 482.601562 C 467.199219 485.449219 462.933594 485.449219 462.933594 482.601562 C 462.933594 479.757812 467.199219 479.757812 467.199219 482.601562 "/>
<path style=" stroke:none;fill-rule:nonzero;fill:rgb(100%,84.3%,0%);fill-opacity:1;" d="M 214.613281 491.703125 C 214.613281 494.546875 210.347656 494.546875 210.347656 491.703125 C 210.347656 488.859375 214.613281 488.859375 214.613281 491.703125 "/>
<path style=" stroke:none;fill-rule:nonzero;fill:rgb(100%,84.3%,0%);fill-opacity:1;" d="M 148.480469 380.628906 C 148.480469 383.472656 144.214844 383.472656 144.214844 380.628906 C 144.214844 377.785156 148.480469 377.785156 148.480469 380.628906 "/>
<path style=" stroke:none;fill-rule:nonzero;fill:rgb(100%,84.3%,0%);fill-opacity:1;" d="M 49.066406 495.402344 C 49.066406 498.246094 44.800781 498.246094 44.800781 495.402344 C 44.800781 492.558594 49.066406 492.558594 49.066406 495.402344 "/>
<path style=" stroke:none;fill-rule:nonzero;fill:rgb(100%,84.3%,0%);fill-opacity:1;" d="M 114.347656 495.402344 C 114.347656 498.246094 110.078125 498.246094 110.078125 495.402344 C 110.078125 492.558594 114.347656 492.558594 114.347656 495.402344 "/>
<path style=" stroke:none;fill-rule:nonzero;fill:rgb(100%,84.3%,0%);fill-opacity:1;" d="M 49.066406 457.003906 C 49.066406 459.847656 44.800781 459.847656 44.800781 457.003906 C 44.800781 454.160156 49.066406 454.160156 49.066406 457.003906 "/>
<path style=" stroke:none;fill-rule:nonzero;fill:rgb(100%,84.3%,0%);fill-opacity:1;" d="M 467.199219 431.402344 C 467.199219 434.246094 462.933594 434.246094 462.933594 431.402344 C 462.933594 428.558594 467.199219 428.558594 467.199219 431.402344 "/>
<path style=" stroke:none;fill-rule:nonzero;fill:rgb(100%,84.3%,0%);fill-opacity:1;" d="M 195.414062 380.628906 C 195.414062 383.472656 191.148438 383.472656 191.148438 380.628906 C 191.148438 377.785156 195.414062 377.785156 195.414062 380.628906 "/>
<path style=" stroke:none;fill-rule:nonzero;fill:rgb(100%,84.3%,0%);fill-opacity:1;" d="M 191.144531 495.402344 C 191.144531 498.246094 186.878906 498.246094 186.878906 495.402344 C 186.878906 492.558594 191.144531 492.558594 191.144531 495.402344 "/>
<path style=" stroke:none;fill-rule:nonzero;fill:rgb(100%,84.3%,0%);fill-opacity:1;" d="M 49.066406 410.070312 C 49.066406 412.914062 44.800781 412.914062 44.800781 410.070312 C 44.800781 407.222656 49.066406 407.222656 49.066406 410.070312 "/>
<path style=" stroke:none;fill-rule:nonzero;fill:rgb(100%,84.3%,0%);fill-opacity:1;" d="M 370.347656 495.402344 C 370.347656 498.246094 366.078125 498.246094 366.078125 495.402344 C 366.078125 492.558594 370.347656 492.558594 370.347656 495.402344 "/>
<path style=" stroke:none;fill-rule:nonzero;fill:rgb(100%,84.3%,0%);fill-opacity:1;" d="M 118.613281 495.402344 C 118.613281 498.246094 114.347656 498.246094 114.347656 495.402344 C 114.347656 492.558594 118.613281 492.558594 118.613281 495.402344 "/>
<path style=" stroke:none;fill-rule:nonzero;fill:rgb(100%,84.3%,0%);fill-opacity:1;" d="M 49.066406 461.269531 C 49.066406 464.113281 44.800781 464.113281 44.800781 461.269531 C 44.800781 458.425781 49.066406 458.425781 49.066406 461.269531 "/>
<path style=" stroke:none;fill-rule:nonzero;fill:rgb(100%,84.3%,0%);fill-opacity:1;" d="M 49.066406 393.003906 C 49.066406 395.847656 44.800781 395.847656 44.800781 393.003906 C 44.800781 390.160156 49.066406 390.160156 49.066406 393.003906 "/>
<path style=" stroke:none;fill-rule:nonzero;fill:rgb(100%,84.3%,0%);fill-opacity:1;" d="M 467.199219 469.804688 C 467.199219 472.648438 462.933594 472.648438 462.933594 469.804688 C 462.933594 466.957031 467.199219 466.957031 467.199219 469.804688 "/>
<path style=" stroke:none;fill-rule:nonzero;fill:rgb(100%,84.3%,0%);fill-opacity:1;" d="M 49.066406 427.136719 C 49.066406 429.980469 44.800781 429.980469 44.800781 427.136719 C 44.800781 424.292969 49.066406 424.292969 49.066406 427.136719 "/>
<path style=" stroke:none;fill-rule:nonzero;fill:rgb(100%,84.3%,0%);fill-opacity:1;" d="M 144.214844 495.402344 C 144.214844 498.246094 139.945312 498.246094 139.945312 495.402344 C 139.945312 492.558594 144.214844 492.558594 144.214844 495.402344 "/>
<path style=" stroke:none;fill-rule:nonzero;fill:rgb(100%,84.3%,0%);fill-opacity:1;" d="M 467.199219 457.003906 C 467.199219 459.847656 462.933594 459.847656 462.933594 457.003906 C 462.933594 454.160156 467.199219 454.160156 467.199219 457.003906 "/>
<path style=" stroke:none;fill-rule:nonzero;fill:rgb(100%,84.3%,0%);fill-opacity:1;" d="M 174.082031 495.402344 C 174.082031 498.246094 169.8125 498.246094 169.8125 495.402344 C 169.8125 492.558594 174.082031 492.558594 174.082031 495.402344 "/>
<path style=" stroke:none;fill-rule:nonzero;fill:rgb(100%,84.3%,0%);fill-opacity:1;" d="M 276.480469 495.402344 C 276.480469 498.246094 272.214844 498.246094 272.214844 495.402344 C 272.214844 492.558594 276.480469 492.558594 276.480469 495.402344 "/>
<path style=" stroke:none;fill-rule:nonzero;fill:rgb(100%,84.3%,0%);fill-opacity:1;" d="M 467.199219 422.867188 C 467.199219 425.714844 462.933594 425.714844 462.933594 422.867188 C 462.933594 420.023438 467.199219 420.023438 467.199219 422.867188 "/>
<path style=" stroke:none;fill-rule:nonzero;fill:rgb(100%,84.3%,0%);fill-opacity:1;" d="M 58.878906 380.628906 C 58.878906 383.472656 54.613281 383.472656 54.613281 380.628906 C 54.613281 377.785156 58.878906 377.785156 58.878906 380.628906 "/>
<path style=" stroke:none;fill-rule:nonzero;fill:rgb(100%,84.3%,0%);fill-opacity:1;" d="M 374.613281 495.402344 C 374.613281 498.246094 370.347656 498.246094 370.347656 495.402344 C 370.347656 492.558594 374.613281 492.558594 374.613281 495.402344 "/>
<path style=" stroke:none;fill-rule:nonzero;fill:rgb(100%,84.3%,0%);fill-opacity:1;" d="M 127.144531 495.402344 C 127.144531 498.246094 122.878906 498.246094 122.878906 495.402344 C 122.878906 492.558594 127.144531 492.558594 127.144531 495.402344 "/>
<path style=" stroke:none;fill-rule:nonzero;fill:rgb(100%,84.3%,0%);fill-opacity:1;" d="M 327.679688 495.402344 C 327.679688 498.246094 323.414062 498.246094 323.414062 495.402344 C 323.414062 492.558594 327.679688 492.558594 327.679688 495.402344 "/>
<path style=" stroke:none;fill-rule:nonzero;fill:rgb(100%,84.3%,0%);fill-opacity:1;" d="M 447.144531 495.402344 C 447.144531 498.246094 442.878906 498.246094 442.878906 495.402344 C 442.878906 492.558594 447.144531 492.558594 447.144531 495.402344 "/>
<path style=" stroke:none;fill-rule:nonzero;fill:rgb(100%,84.3%,0%);fill-opacity:1;" d="M 80.214844 380.628906 C 80.214844 383.472656 75.945312 383.472656 75.945312 380.628906 C 75.945312 377.785156 80.214844 377.785156 80.214844 380.628906 "/>
<path style=" stroke:none;fill-rule:nonzero;fill:rgb(100%,84.3%,0%);fill-opacity:1;" d="M 49.066406 469.804688 C 49.066406 472.648438 44.800781 472.648438 44.800781 469.804688 C 44.800781 466.957031 49.066406 466.957031 49.066406 469.804688 "/>
<path style=" stroke:none;fill-rule:nonzero;fill:rgb(100%,84.3%,0%);fill-opacity:1;" d="M 203.945312 495.402344 C 203.945312 498.246094 199.679688 498.246094 199.679688 495.402344 C 199.679688 492.558594 203.945312 492.558594 203.945312 495.402344 "/>
</g>
</svg>
