<?xml version="1.0" encoding="UTF-8"?>
<svg xmlns="http://www.w3.org/2000/svg" xmlns:xlink="http://www.w3.org/1999/xlink" width="512pt" height="512pt" viewBox="0 0 512 512" version="1.1">
<g id="surface281">
<rect x="0" y="0" width="512" height="512" style="fill:rgb(26.7%,26.7%,26.7%);fill-opacity:1;stroke:none;"/>
<path style=" stroke:none;fill-rule:nonzero;fill:rgb(19.2%,38.8%,66.7%);fill-opacity:1;" d="M 40.621094 42.667969 L 446.847656 42.667969 L 446.847656 469.332031 L 40.621094 469.332031 Z M 40.621094 42.667969 "/>
<path style=" stroke:none;fill-rule:nonzero;fill:rgb(100%,100%,100%);fill-opacity:1;" d="M 154.953125 -2.042969 C 154.953125 2.214844 148.566406 2.214844 148.566406 -2.042969 C 148.566406 -6.300781 154.953125 -6.300781 154.953125 -2.042969 "/>
<path style=" stroke:none;fill-rule:nonzero;fill:rgb(100%,100%,100%);fill-opacity:1;" d="M 29.125 14.5625 C 29.125 18.820312 22.738281 18.820312 22.738281 14.5625 C 22.738281 10.304688 29.125 10.304688 29.125 14.5625 "/>
<path style=" stroke:none;fill-rule:nonzero;fill:rgb(100%,100%,100%);fill-opacity:1;" d="M 505.613281 385.660156 C 505.613281 389.917969 499.226562 389.917969 499.226562 385.660156 C 499.226562 381.402344 505.613281 381.402344 505.613281 385.660156 "/>
<path style=" stroke:none;fill-rule:nonzero;fill:rgb(100%,100%,100%);fill-opacity:1;" d="M 46.371094 502.546875 C 46.371094 506.804688 39.984375 506.804688 39.984375 502.546875 C 39.984375 498.289062 46.371094 498.289062 46.371094 502.546875 "/>
<path style=" stroke:none;fill-rule:nonzero;fill:rgb(100%,100%,100%);fill-opacity:1;" d="M 384.894531 6.898438 C 384.894531 11.15625 378.507812 11.15625 378.507812 6.898438 C 378.507812 2.640625 384.894531 2.640625 384.894531 6.898438 "/>
<path style=" stroke:none;fill-rule:nonzero;fill:rgb(100%,100%,100%);fill-opacity:1;" d="M 41.902344 25.421875 C 41.902344 29.679688 35.511719 29.679688 35.511719 25.421875 C 35.511719 21.164062 41.902344 21.164062 41.902344 25.421875 "/>
<path style=" stroke:none;fill-rule:nonzero;fill:rgb(100%,100%,100%);fill-opacity:1;" d="M 505.613281 390.769531 C 505.613281 395.027344 499.226562 395.027344 499.226562 390.769531 C 499.226562 386.511719 505.613281 386.511719 505.613281 390.769531 "/>
<path style=" stroke:none;fill-rule:nonzero;fill:rgb(100%,84.3%,0%);fill-opacity:1;" d="M 101.300781 462.945312 C 101.300781 467.203125 94.914062 467.203125 94.914062 462.945312 C 94.914062 458.6875 101.300781 458.6875 101.300781 462.945312 "/>
<path style=" stroke:none;fill-rule:nonzero;fill:rgb(100%,84.3%,0%);fill-opacity:1;" d="M 443.65625 243.863281 C 443.65625 248.121094 437.269531 248.121094 437.269531 243.863281 C 437.269531 239.605469 443.65625 239.605469 443.65625 243.863281 "/>
<path style=" stroke:none;fill-rule:nonzero;fill:rgb(100%,84.3%,0%);fill-opacity:1;" d="M 75.753906 49.054688 C 75.753906 53.3125 69.367188 53.3125 69.367188 49.054688 C 69.367188 44.796875 75.753906 44.796875 75.753906 49.054688 "/>
<path style=" stroke:none;fill-rule:nonzero;fill:rgb(100%,84.3%,0%);fill-opacity:1;" d="M 432.582031 429.09375 C 432.582031 433.351562 426.195312 433.351562 426.195312 429.09375 C 426.195312 424.835938 432.582031 424.835938 432.582031 429.09375 "/>
<path style=" stroke:none;fill-rule:nonzero;fill:rgb(100%,84.3%,0%);fill-opacity:1;" d="M 433.4375 462.945312 C 433.4375 467.203125 427.050781 467.203125 427.050781 462.945312 C 427.050781 458.6875 433.4375 458.6875 433.4375 462.945312 "/>
<path style=" stroke:none;fill-rule:nonzero;fill:rgb(100%,84.3%,0%);fill-opacity:1;" d="M 209.882812 462.945312 C 209.882812 467.203125 203.496094 467.203125 203.496094 462.945312 C 203.496094 458.6875 209.882812 458.6875 209.882812 462.945312 "/>
<path style=" stroke:none;fill-rule:nonzero;fill:rgb(100%,84.3%,0%);fill-opacity:1;" d="M 88.527344 462.945312 C 88.527344 467.203125 82.140625 467.203125 82.140625 462.945312 C 82.140625 458.6875 88.527344 458.6875 88.527344 462.945312 "/>
<path style=" stroke:none;fill-rule:nonzero;fill:rgb(100%,84.3%,0%);fill-opacity:1;" d="M 222.660156 462.945312 C 222.660156 467.203125 216.269531 467.203125 216.269531 462.945312 C 216.269531 458.6875 222.660156 458.6875 222.660156 462.945312 "/>
<path style=" stroke:none;fill-rule:nonzero;fill:rgb(100%,84.3%,0%);fill-opacity:1;" d="M 273.757812 49.054688 C 273.757812 53.3125 267.371094 53.3125 267.371094 49.054688 C 267.371094 44.796875 273.757812 44.796875 273.757812 49.054688 "/>
<path style=" stroke:none;fill-rule:nonzero;fill:rgb(100%,84.3%,0%);fill-opacity:1;" d="M 267.371094 462.945312 C 267.371094 467.203125 260.980469 467.203125 260.980469 462.945312 C 260.980469 458.6875 267.371094 458.6875 267.371094 462.945312 "/>
<path style=" stroke:none;fill-rule:nonzero;fill:rgb(100%,84.3%,0%);fill-opacity:1;" d="M 69.367188 49.054688 C 69.367188 53.3125 62.976562 53.3125 62.976562 49.054688 C 62.976562 44.796875 69.367188 44.796875 69.367188 49.054688 "/>
<path style=" stroke:none;fill-rule:nonzero;fill:rgb(100%,84.3%,0%);fill-opacity:1;" d="M 50.203125 58.636719 C 50.203125 62.894531 43.816406 62.894531 43.816406 58.636719 C 43.816406 54.375 50.203125 54.375 50.203125 58.636719 "/>
<path style=" stroke:none;fill-rule:nonzero;fill:rgb(100%,84.3%,0%);fill-opacity:1;" d="M 82.140625 49.054688 C 82.140625 53.3125 75.753906 53.3125 75.753906 49.054688 C 75.753906 44.796875 82.140625 44.796875 82.140625 49.054688 "/>
<path style=" stroke:none;fill-rule:nonzero;fill:rgb(100%,84.3%,0%);fill-opacity:1;" d="M 432.582031 128.894531 C 432.582031 133.152344 426.195312 133.152344 426.195312 128.894531 C 426.195312 124.636719 432.582031 124.636719 432.582031 128.894531 "/>
<path style=" stroke:none;fill-rule:nonzero;fill:rgb(100%,84.3%,0%);fill-opacity:1;" d="M 443.65625 186.378906 C 443.65625 190.636719 437.269531 190.636719 437.269531 186.378906 C 437.269531 182.121094 443.65625 182.121094 443.65625 186.378906 "/>
<path style=" stroke:none;fill-rule:nonzero;fill:rgb(100%,84.3%,0%);fill-opacity:1;" d="M 62.976562 49.054688 C 62.976562 53.3125 56.589844 53.3125 56.589844 49.054688 C 56.589844 44.796875 62.976562 44.796875 62.976562 49.054688 "/>
<path style=" stroke:none;fill-rule:nonzero;fill:rgb(100%,84.3%,0%);fill-opacity:1;" d="M 56.589844 49.054688 C 56.589844 53.3125 50.203125 53.3125 50.203125 49.054688 C 50.203125 44.796875 56.589844 44.796875 56.589844 49.054688 "/>
<path style=" stroke:none;fill-rule:nonzero;fill:rgb(100%,84.3%,0%);fill-opacity:1;" d="M 395.113281 49.054688 C 395.113281 53.3125 388.726562 53.3125 388.726562 49.054688 C 388.726562 44.796875 395.113281 44.796875 395.113281 49.054688 "/>
<path style=" stroke:none;fill-rule:nonzero;fill:rgb(100%,84.3%,0%);fill-opacity:1;" d="M 82.140625 462.945312 C 82.140625 467.203125 75.753906 467.203125 75.753906 462.945312 C 75.753906 458.6875 82.140625 458.6875 82.140625 462.945312 "/>
<path style=" stroke:none;fill-rule:nonzero;fill:rgb(100%,84.3%,0%);fill-opacity:1;" d="M 443.65625 365.222656 C 443.65625 369.480469 437.269531 369.480469 437.269531 365.222656 C 437.269531 360.964844 443.65625 360.964844 443.65625 365.222656 "/>
<path style=" stroke:none;fill-rule:nonzero;fill:rgb(100%,84.3%,0%);fill-opacity:1;" d="M 146.011719 49.054688 C 146.011719 53.3125 139.625 53.3125 139.625 49.054688 C 139.625 44.796875 146.011719 44.796875 146.011719 49.054688 "/>
<path style=" stroke:none;fill-rule:nonzero;fill:rgb(100%,84.3%,0%);fill-opacity:1;" d="M 152.398438 49.054688 C 152.398438 53.3125 146.011719 53.3125 146.011719 49.054688 C 146.011719 44.796875 152.398438 44.796875 152.398438 49.054688 "/>
<path style=" stroke:none;fill-rule:nonzero;fill:rgb(100%,84.3%,0%);fill-opacity:1;" d="M 388.726562 49.054688 C 388.726562 53.3125 382.339844 53.3125 382.339844 49.054688 C 382.339844 44.796875 388.726562 44.796875 388.726562 49.054688 "/>
<path style=" stroke:none;fill-rule:nonzero;fill:rgb(100%,84.3%,0%);fill-opacity:1;" d="M 443.65625 409.933594 C 443.65625 414.191406 437.269531 414.191406 437.269531 409.933594 C 437.269531 405.675781 443.65625 405.675781 443.65625 409.933594 "/>
<path style=" stroke:none;fill-rule:nonzero;fill:rgb(100%,84.3%,0%);fill-opacity:1;" d="M 443.65625 154.441406 C 443.65625 158.699219 437.269531 158.699219 437.269531 154.441406 C 437.269531 150.183594 443.65625 150.183594 443.65625 154.441406 "/>
<path style=" stroke:none;fill-rule:nonzero;fill:rgb(100%,84.3%,0%);fill-opacity:1;" d="M 94.914062 462.945312 C 94.914062 467.203125 88.527344 467.203125 88.527344 462.945312 C 88.527344 458.6875 94.914062 458.6875 94.914062 462.945312 "/>
<path style=" stroke:none;fill-rule:nonzero;fill:rgb(100%,84.3%,0%);fill-opacity:1;" d="M 146.011719 462.945312 C 146.011719 467.203125 139.625 467.203125 139.625 462.945312 C 139.625 458.6875 146.011719 458.6875 146.011719 462.945312 "/>
<path style=" stroke:none;fill-rule:nonzero;fill:rgb(100%,84.3%,0%);fill-opacity:1;" d="M 375.953125 49.054688 C 375.953125 53.3125 369.5625 53.3125 369.5625 49.054688 C 369.5625 44.796875 375.953125 44.796875 375.953125 49.054688 "/>
<path style=" stroke:none;fill-rule:nonzero;fill:rgb(100%,84.3%,0%);fill-opacity:1;" d="M 443.65625 416.320312 C 443.65625 420.578125 437.269531 420.578125 437.269531 416.320312 C 437.269531 412.0625 443.65625 412.0625 443.65625 416.320312 "/>
<path style=" stroke:none;fill-rule:nonzero;fill:rgb(100%,84.3%,0%);fill-opacity:1;" d="M 443.65625 422.707031 C 443.65625 426.964844 437.269531 426.964844 437.269531 422.707031 C 437.269531 418.449219 443.65625 418.449219 443.65625 422.707031 "/>
<path style=" stroke:none;fill-rule:nonzero;fill:rgb(100%,84.3%,0%);fill-opacity:1;" d="M 114.074219 462.945312 C 114.074219 467.203125 107.6875 467.203125 107.6875 462.945312 C 107.6875 458.6875 114.074219 458.6875 114.074219 462.945312 "/>
<path style=" stroke:none;fill-rule:nonzero;fill:rgb(100%,84.3%,0%);fill-opacity:1;" d="M 165.171875 49.054688 C 165.171875 53.3125 158.785156 53.3125 158.785156 49.054688 C 158.785156 44.796875 165.171875 44.796875 165.171875 49.054688 "/>
<path style=" stroke:none;fill-rule:nonzero;fill:rgb(100%,84.3%,0%);fill-opacity:1;" d="M 171.5625 49.054688 C 171.5625 53.3125 165.171875 53.3125 165.171875 49.054688 C 165.171875 44.796875 171.5625 44.796875 171.5625 49.054688 "/>
<path style=" stroke:none;fill-rule:nonzero;fill:rgb(100%,84.3%,0%);fill-opacity:1;" d="M 107.6875 462.945312 C 107.6875 467.203125 101.300781 467.203125 101.300781 462.945312 C 101.300781 458.6875 107.6875 458.6875 107.6875 462.945312 "/>
<path style=" stroke:none;fill-rule:nonzero;fill:rgb(100%,84.3%,0%);fill-opacity:1;" d="M 443.65625 199.152344 C 443.65625 203.414062 437.269531 203.414062 437.269531 199.152344 C 437.269531 194.894531 443.65625 194.894531 443.65625 199.152344 "/>
<path style=" stroke:none;fill-rule:nonzero;fill:rgb(100%,84.3%,0%);fill-opacity:1;" d="M 438.117188 195.960938 C 438.117188 200.21875 431.730469 200.21875 431.730469 195.960938 C 431.730469 191.703125 438.117188 191.703125 438.117188 195.960938 "/>
<path style=" stroke:none;fill-rule:nonzero;fill:rgb(100%,84.3%,0%);fill-opacity:1;" d="M 133.238281 49.054688 C 133.238281 53.3125 126.851562 53.3125 126.851562 49.054688 C 126.851562 44.796875 133.238281 44.796875 133.238281 49.054688 "/>
<path style=" stroke:none;fill-rule:nonzero;fill:rgb(100%,84.3%,0%);fill-opacity:1;" d="M 120.460938 462.945312 C 120.460938 467.203125 114.074219 467.203125 114.074219 462.945312 C 114.074219 458.6875 120.460938 458.6875 120.460938 462.945312 "/>
<path style=" stroke:none;fill-rule:nonzero;fill:rgb(100%,84.3%,0%);fill-opacity:1;" d="M 305.691406 462.945312 C 305.691406 467.203125 299.304688 467.203125 299.304688 462.945312 C 299.304688 458.6875 305.691406 458.6875 305.691406 462.945312 "/>
<path style=" stroke:none;fill-rule:nonzero;fill:rgb(100%,84.3%,0%);fill-opacity:1;" d="M 443.65625 109.734375 C 443.65625 113.992188 437.269531 113.992188 437.269531 109.734375 C 437.269531 105.476562 443.65625 105.476562 443.65625 109.734375 "/>
<path style=" stroke:none;fill-rule:nonzero;fill:rgb(100%,84.3%,0%);fill-opacity:1;" d="M 139.625 49.054688 C 139.625 53.3125 133.238281 53.3125 133.238281 49.054688 C 133.238281 44.796875 139.625 44.796875 139.625 49.054688 "/>
<path style=" stroke:none;fill-rule:nonzero;fill:rgb(100%,84.3%,0%);fill-opacity:1;" d="M 133.238281 462.945312 C 133.238281 467.203125 126.851562 467.203125 126.851562 462.945312 C 126.851562 458.6875 133.238281 458.6875 133.238281 462.945312 "/>
<path style=" stroke:none;fill-rule:nonzero;fill:rgb(100%,84.3%,0%);fill-opacity:1;" d="M 443.65625 429.09375 C 443.65625 433.351562 437.269531 433.351562 437.269531 429.09375 C 437.269531 424.835938 443.65625 424.835938 443.65625 429.09375 "/>
<path style=" stroke:none;fill-rule:nonzero;fill:rgb(100%,84.3%,0%);fill-opacity:1;" d="M 50.203125 243.863281 C 50.203125 248.121094 43.816406 248.121094 43.816406 243.863281 C 43.816406 239.605469 50.203125 239.605469 50.203125 243.863281 "/>
<path style=" stroke:none;fill-rule:nonzero;fill:rgb(100%,84.3%,0%);fill-opacity:1;" d="M 177.949219 49.054688 C 177.949219 53.3125 171.558594 53.3125 171.558594 49.054688 C 171.558594 44.796875 177.949219 44.796875 177.949219 49.054688 "/>
<path style=" stroke:none;fill-rule:nonzero;fill:rgb(100%,84.3%,0%);fill-opacity:1;" d="M 432.582031 211.929688 C 432.582031 216.1875 426.195312 216.1875 426.195312 211.929688 C 426.195312 207.667969 432.582031 207.667969 432.582031 211.929688 "/>
<path style=" stroke:none;fill-rule:nonzero;fill:rgb(100%,84.3%,0%);fill-opacity:1;" d="M 427.042969 176.796875 C 427.042969 181.054688 420.65625 181.054688 420.65625 176.796875 C 420.65625 172.539062 427.042969 172.539062 427.042969 176.796875 "/>
<path style=" stroke:none;fill-rule:nonzero;fill:rgb(100%,84.3%,0%);fill-opacity:1;" d="M 432.582031 148.054688 C 432.582031 152.3125 426.195312 152.3125 426.195312 148.054688 C 426.195312 143.796875 432.582031 143.796875 432.582031 148.054688 "/>
<path style=" stroke:none;fill-rule:nonzero;fill:rgb(100%,84.3%,0%);fill-opacity:1;" d="M 126.851562 462.945312 C 126.851562 467.203125 120.464844 467.203125 120.464844 462.945312 C 120.464844 458.6875 126.851562 458.6875 126.851562 462.945312 "/>
<path style=" stroke:none;fill-rule:nonzero;fill:rgb(100%,84.3%,0%);fill-opacity:1;" d="M 50.203125 122.507812 C 50.203125 126.765625 43.816406 126.765625 43.816406 122.507812 C 43.816406 118.25 50.203125 118.25 50.203125 122.507812 "/>
<path style=" stroke:none;fill-rule:nonzero;fill:rgb(100%,84.3%,0%);fill-opacity:1;" d="M 184.335938 49.054688 C 184.335938 53.3125 177.949219 53.3125 177.949219 49.054688 C 177.949219 44.796875 184.335938 44.796875 184.335938 49.054688 "/>
<path style=" stroke:none;fill-rule:nonzero;fill:rgb(100%,84.3%,0%);fill-opacity:1;" d="M 443.65625 435.480469 C 443.65625 439.738281 437.269531 439.738281 437.269531 435.480469 C 437.269531 431.222656 443.65625 431.222656 443.65625 435.480469 "/>
<path style=" stroke:none;fill-rule:nonzero;fill:rgb(100%,84.3%,0%);fill-opacity:1;" d="M 443.65625 148.054688 C 443.65625 152.3125 437.269531 152.3125 437.269531 148.054688 C 437.269531 143.796875 443.65625 143.796875 443.65625 148.054688 "/>
<path style=" stroke:none;fill-rule:nonzero;fill:rgb(100%,84.3%,0%);fill-opacity:1;" d="M 158.785156 49.054688 C 158.785156 53.3125 152.398438 53.3125 152.398438 49.054688 C 152.398438 44.796875 158.785156 44.796875 158.785156 49.054688 "/>
<path style=" stroke:none;fill-rule:nonzero;fill:rgb(100%,84.3%,0%);fill-opacity:1;" d="M 427.042969 157.636719 C 427.042969 161.894531 420.65625 161.894531 420.65625 157.636719 C 420.65625 153.378906 427.042969 153.378906 427.042969 157.636719 "/>
<path style=" stroke:none;fill-rule:nonzero;fill:rgb(100%,84.3%,0%);fill-opacity:1;" d="M 50.203125 116.121094 C 50.203125 120.378906 43.816406 120.378906 43.816406 116.121094 C 43.816406 111.863281 50.203125 111.863281 50.203125 116.121094 "/>
<path style=" stroke:none;fill-rule:nonzero;fill:rgb(100%,84.3%,0%);fill-opacity:1;" d="M 443.65625 294.960938 C 443.65625 299.21875 437.269531 299.21875 437.269531 294.960938 C 437.269531 290.703125 443.65625 290.703125 443.65625 294.960938 "/>
<path style=" stroke:none;fill-rule:nonzero;fill:rgb(100%,84.3%,0%);fill-opacity:1;" d="M 443.65625 462.945312 C 443.65625 467.203125 437.269531 467.203125 437.269531 462.945312 C 437.269531 458.6875 443.65625 458.6875 443.65625 462.945312 "/>
<path style=" stroke:none;fill-rule:nonzero;fill:rgb(100%,84.3%,0%);fill-opacity:1;" d="M 443.65625 141.667969 C 443.65625 145.925781 437.269531 145.925781 437.269531 141.667969 C 437.269531 137.410156 443.65625 137.410156 443.65625 141.667969 "/>
<path style=" stroke:none;fill-rule:nonzero;fill:rgb(100%,84.3%,0%);fill-opacity:1;" d="M 50.203125 128.894531 C 50.203125 133.152344 43.816406 133.152344 43.816406 128.894531 C 43.816406 124.636719 50.203125 124.636719 50.203125 128.894531 "/>
<path style=" stroke:none;fill-rule:nonzero;fill:rgb(100%,84.3%,0%);fill-opacity:1;" d="M 407.886719 462.945312 C 407.886719 467.203125 401.5 467.203125 401.5 462.945312 C 401.5 458.6875 407.886719 458.6875 407.886719 462.945312 "/>
<path style=" stroke:none;fill-rule:nonzero;fill:rgb(100%,84.3%,0%);fill-opacity:1;" d="M 438.117188 157.636719 C 438.117188 161.894531 431.730469 161.894531 431.730469 157.636719 C 431.730469 153.378906 438.117188 153.378906 438.117188 157.636719 "/>
<path style=" stroke:none;fill-rule:nonzero;fill:rgb(100%,84.3%,0%);fill-opacity:1;" d="M 443.65625 441.867188 C 443.65625 446.125 437.269531 446.125 437.269531 441.867188 C 437.269531 437.609375 443.65625 437.609375 443.65625 441.867188 "/>
<path style=" stroke:none;fill-rule:nonzero;fill:rgb(100%,84.3%,0%);fill-opacity:1;" d="M 337.628906 462.945312 C 337.628906 467.203125 331.242188 467.203125 331.242188 462.945312 C 331.242188 458.6875 337.628906 458.6875 337.628906 462.945312 "/>
<path style=" stroke:none;fill-rule:nonzero;fill:rgb(100%,84.3%,0%);fill-opacity:1;" d="M 443.65625 448.253906 C 443.65625 452.511719 437.269531 452.511719 437.269531 448.253906 C 437.269531 443.996094 443.65625 443.996094 443.65625 448.253906 "/>
<path style=" stroke:none;fill-rule:nonzero;fill:rgb(100%,84.3%,0%);fill-opacity:1;" d="M 427.042969 170.410156 C 427.042969 174.667969 420.65625 174.667969 420.65625 170.410156 C 420.65625 166.152344 427.042969 166.152344 427.042969 170.410156 "/>
<path style=" stroke:none;fill-rule:nonzero;fill:rgb(100%,84.3%,0%);fill-opacity:1;" d="M 50.203125 49.054688 C 50.203125 53.3125 43.816406 53.3125 43.816406 49.054688 C 43.816406 44.796875 50.203125 44.796875 50.203125 49.054688 "/>
<path style=" stroke:none;fill-rule:nonzero;fill:rgb(100%,84.3%,0%);fill-opacity:1;" d="M 443.65625 454.644531 C 443.65625 458.902344 437.269531 458.902344 437.269531 454.644531 C 437.269531 450.386719 443.65625 450.386719 443.65625 454.644531 "/>
<path style=" stroke:none;fill-rule:nonzero;fill:rgb(100%,84.3%,0%);fill-opacity:1;" d="M 443.65625 288.574219 C 443.65625 292.832031 437.269531 292.832031 437.269531 288.574219 C 437.269531 284.316406 443.65625 284.316406 443.65625 288.574219 "/>
<path style=" stroke:none;fill-rule:nonzero;fill:rgb(100%,84.3%,0%);fill-opacity:1;" d="M 50.203125 109.734375 C 50.203125 113.992188 43.816406 113.992188 43.816406 109.734375 C 43.816406 105.476562 50.203125 105.476562 50.203125 109.734375 "/>
<path style=" stroke:none;fill-rule:nonzero;fill:rgb(100%,84.3%,0%);fill-opacity:1;" d="M 344.015625 462.945312 C 344.015625 467.203125 337.628906 467.203125 337.628906 462.945312 C 337.628906 458.6875 344.015625 458.6875 344.015625 462.945312 "/>
<path style=" stroke:none;fill-rule:nonzero;fill:rgb(100%,84.3%,0%);fill-opacity:1;" d="M 427.042969 189.574219 C 427.042969 193.832031 420.65625 193.832031 420.65625 189.574219 C 420.65625 185.316406 427.042969 185.316406 427.042969 189.574219 "/>
<path style=" stroke:none;fill-rule:nonzero;fill:rgb(100%,84.3%,0%);fill-opacity:1;" d="M 375.953125 462.945312 C 375.953125 467.203125 369.5625 467.203125 369.5625 462.945312 C 369.5625 458.6875 375.953125 458.6875 375.953125 462.945312 "/>
<path style=" stroke:none;fill-rule:nonzero;fill:rgb(100%,84.3%,0%);fill-opacity:1;" d="M 50.203125 135.28125 C 50.203125 139.539062 43.816406 139.539062 43.816406 135.28125 C 43.816406 131.023438 50.203125 131.023438 50.203125 135.28125 "/>
<path style=" stroke:none;fill-rule:nonzero;fill:rgb(100%,84.3%,0%);fill-opacity:1;" d="M 50.203125 218.316406 C 50.203125 222.574219 43.816406 222.574219 43.816406 218.316406 C 43.816406 214.058594 50.203125 214.058594 50.203125 218.316406 "/>
<path style=" stroke:none;fill-rule:nonzero;fill:rgb(100%,84.3%,0%);fill-opacity:1;" d="M 216.273438 462.945312 C 216.273438 467.203125 209.882812 467.203125 209.882812 462.945312 C 209.882812 458.6875 216.273438 458.6875 216.273438 462.945312 "/>
<path style=" stroke:none;fill-rule:nonzero;fill:rgb(100%,84.3%,0%);fill-opacity:1;" d="M 197.109375 49.054688 C 197.109375 53.3125 190.722656 53.3125 190.722656 49.054688 C 190.722656 44.796875 197.109375 44.796875 197.109375 49.054688 "/>
<path style=" stroke:none;fill-rule:nonzero;fill:rgb(100%,84.3%,0%);fill-opacity:1;" d="M 190.722656 49.054688 C 190.722656 53.3125 184.335938 53.3125 184.335938 49.054688 C 184.335938 44.796875 190.722656 44.796875 190.722656 49.054688 "/>
<path style=" stroke:none;fill-rule:nonzero;fill:rgb(100%,84.3%,0%);fill-opacity:1;" d="M 88.527344 49.054688 C 88.527344 53.3125 82.140625 53.3125 82.140625 49.054688 C 82.140625 44.796875 88.527344 44.796875 88.527344 49.054688 "/>
<path style=" stroke:none;fill-rule:nonzero;fill:rgb(100%,84.3%,0%);fill-opacity:1;" d="M 50.203125 224.703125 C 50.203125 228.960938 43.816406 228.960938 43.816406 224.703125 C 43.816406 220.445312 50.203125 220.445312 50.203125 224.703125 "/>
<path style=" stroke:none;fill-rule:nonzero;fill:rgb(100%,84.3%,0%);fill-opacity:1;" d="M 50.203125 103.34375 C 50.203125 107.601562 43.816406 107.601562 43.816406 103.34375 C 43.816406 99.085938 50.203125 99.085938 50.203125 103.34375 "/>
<path style=" stroke:none;fill-rule:nonzero;fill:rgb(100%,84.3%,0%);fill-opacity:1;" d="M 50.203125 141.667969 C 50.203125 145.925781 43.816406 145.925781 43.816406 141.667969 C 43.816406 137.410156 50.203125 137.410156 50.203125 141.667969 "/>
<path style=" stroke:none;fill-rule:nonzero;fill:rgb(100%,84.3%,0%);fill-opacity:1;" d="M 356.789062 462.945312 C 356.789062 467.203125 350.402344 467.203125 350.402344 462.945312 C 350.402344 458.6875 356.789062 458.6875 356.789062 462.945312 "/>
<path style=" stroke:none;fill-rule:nonzero;fill:rgb(100%,84.3%,0%);fill-opacity:1;" d="M 432.582031 441.867188 C 432.582031 446.125 426.195312 446.125 426.195312 441.867188 C 426.195312 437.609375 432.582031 437.609375 432.582031 441.867188 "/>
<path style=" stroke:none;fill-rule:nonzero;fill:rgb(100%,84.3%,0%);fill-opacity:1;" d="M 260.980469 462.945312 C 260.980469 467.203125 254.59375 467.203125 254.59375 462.945312 C 254.59375 458.6875 260.980469 458.6875 260.980469 462.945312 "/>
<path style=" stroke:none;fill-rule:nonzero;fill:rgb(100%,84.3%,0%);fill-opacity:1;" d="M 438.117188 362.027344 C 438.117188 366.285156 431.730469 366.285156 431.730469 362.027344 C 431.730469 357.769531 438.117188 357.769531 438.117188 362.027344 "/>
<path style=" stroke:none;fill-rule:nonzero;fill:rgb(100%,84.3%,0%);fill-opacity:1;" d="M 50.203125 96.957031 C 50.203125 101.214844 43.816406 101.214844 43.816406 96.957031 C 43.816406 92.699219 50.203125 92.699219 50.203125 96.957031 "/>
<path style=" stroke:none;fill-rule:nonzero;fill:rgb(100%,84.3%,0%);fill-opacity:1;" d="M 438.117188 215.121094 C 438.117188 219.378906 431.730469 219.378906 431.730469 215.121094 C 431.730469 210.863281 438.117188 210.863281 438.117188 215.121094 "/>
<path style=" stroke:none;fill-rule:nonzero;fill:rgb(100%,84.3%,0%);fill-opacity:1;" d="M 443.65625 333.285156 C 443.65625 337.542969 437.269531 337.542969 437.269531 333.285156 C 437.269531 329.027344 443.65625 329.027344 443.65625 333.285156 "/>
<path style=" stroke:none;fill-rule:nonzero;fill:rgb(100%,84.3%,0%);fill-opacity:1;" d="M 438.117188 170.410156 C 438.117188 174.667969 431.730469 174.667969 431.730469 170.410156 C 431.730469 166.152344 438.117188 166.152344 438.117188 170.410156 "/>
<path style=" stroke:none;fill-rule:nonzero;fill:rgb(100%,84.3%,0%);fill-opacity:1;" d="M 363.175781 462.945312 C 363.175781 467.203125 356.789062 467.203125 356.789062 462.945312 C 356.789062 458.6875 363.175781 458.6875 363.175781 462.945312 "/>
<path style=" stroke:none;fill-rule:nonzero;fill:rgb(100%,84.3%,0%);fill-opacity:1;" d="M 369.566406 462.945312 C 369.566406 467.203125 363.175781 467.203125 363.175781 462.945312 C 363.175781 458.6875 369.566406 458.6875 369.566406 462.945312 "/>
<path style=" stroke:none;fill-rule:nonzero;fill:rgb(100%,84.3%,0%);fill-opacity:1;" d="M 443.65625 301.347656 C 443.65625 305.605469 437.269531 305.605469 437.269531 301.347656 C 437.269531 297.089844 443.65625 297.089844 443.65625 301.347656 "/>
<path style=" stroke:none;fill-rule:nonzero;fill:rgb(100%,84.3%,0%);fill-opacity:1;" d="M 443.65625 326.898438 C 443.65625 331.15625 437.269531 331.15625 437.269531 326.898438 C 437.269531 322.640625 443.65625 322.640625 443.65625 326.898438 "/>
<path style=" stroke:none;fill-rule:nonzero;fill:rgb(100%,84.3%,0%);fill-opacity:1;" d="M 126.851562 49.054688 C 126.851562 53.3125 120.464844 53.3125 120.464844 49.054688 C 120.464844 44.796875 126.851562 44.796875 126.851562 49.054688 "/>
<path style=" stroke:none;fill-rule:nonzero;fill:rgb(100%,84.3%,0%);fill-opacity:1;" d="M 139.625 462.945312 C 139.625 467.203125 133.238281 467.203125 133.238281 462.945312 C 133.238281 458.6875 139.625 458.6875 139.625 462.945312 "/>
<path style=" stroke:none;fill-rule:nonzero;fill:rgb(100%,84.3%,0%);fill-opacity:1;" d="M 443.65625 307.738281 C 443.65625 311.996094 437.269531 311.996094 437.269531 307.738281 C 437.269531 303.480469 443.65625 303.480469 443.65625 307.738281 "/>
<path style=" stroke:none;fill-rule:nonzero;fill:rgb(100%,84.3%,0%);fill-opacity:1;" d="M 50.203125 231.089844 C 50.203125 235.347656 43.816406 235.347656 43.816406 231.089844 C 43.816406 226.832031 50.203125 226.832031 50.203125 231.089844 "/>
<path style=" stroke:none;fill-rule:nonzero;fill:rgb(100%,84.3%,0%);fill-opacity:1;" d="M 443.65625 116.121094 C 443.65625 120.378906 437.269531 120.378906 437.269531 116.121094 C 437.269531 111.863281 443.65625 111.863281 443.65625 116.121094 "/>
<path style=" stroke:none;fill-rule:nonzero;fill:rgb(100%,84.3%,0%);fill-opacity:1;" d="M 369.566406 49.054688 C 369.566406 53.3125 363.175781 53.3125 363.175781 49.054688 C 363.175781 44.796875 369.566406 44.796875 369.566406 49.054688 "/>
<path style=" stroke:none;fill-rule:nonzero;fill:rgb(100%,84.3%,0%);fill-opacity:1;" d="M 443.65625 314.125 C 443.65625 318.382812 437.269531 318.382812 437.269531 314.125 C 437.269531 309.867188 443.65625 309.867188 443.65625 314.125 "/>
<path style=" stroke:none;fill-rule:nonzero;fill:rgb(100%,84.3%,0%);fill-opacity:1;" d="M 50.203125 90.570312 C 50.203125 94.828125 43.816406 94.828125 43.816406 90.570312 C 43.816406 86.3125 50.203125 86.3125 50.203125 90.570312 "/>
<path style=" stroke:none;fill-rule:nonzero;fill:rgb(100%,84.3%,0%);fill-opacity:1;" d="M 203.496094 49.054688 C 203.496094 53.3125 197.109375 53.3125 197.109375 49.054688 C 197.109375 44.796875 203.496094 44.796875 203.496094 49.054688 "/>
<path style=" stroke:none;fill-rule:nonzero;fill:rgb(100%,84.3%,0%);fill-opacity:1;" d="M 438.117188 227.894531 C 438.117188 232.152344 431.730469 232.152344 431.730469 227.894531 C 431.730469 223.636719 438.117188 223.636719 438.117188 227.894531 "/>
<path style=" stroke:none;fill-rule:nonzero;fill:rgb(100%,84.3%,0%);fill-opacity:1;" d="M 443.65625 320.511719 C 443.65625 324.769531 437.269531 324.769531 437.269531 320.511719 C 437.269531 316.253906 443.65625 316.253906 443.65625 320.511719 "/>
<path style=" stroke:none;fill-rule:nonzero;fill:rgb(100%,84.3%,0%);fill-opacity:1;" d="M 443.65625 90.570312 C 443.65625 94.828125 437.269531 94.828125 437.269531 90.570312 C 437.269531 86.3125 443.65625 86.3125 443.65625 90.570312 "/>
<path style=" stroke:none;fill-rule:nonzero;fill:rgb(100%,84.3%,0%);fill-opacity:1;" d="M 50.203125 275.800781 C 50.203125 280.058594 43.816406 280.058594 43.816406 275.800781 C 43.816406 271.542969 50.203125 271.542969 50.203125 275.800781 "/>
<path style=" stroke:none;fill-rule:nonzero;fill:rgb(100%,84.3%,0%);fill-opacity:1;" d="M 350.402344 462.945312 C 350.402344 467.203125 344.015625 467.203125 344.015625 462.945312 C 344.015625 458.6875 350.402344 458.6875 350.402344 462.945312 "/>
<path style=" stroke:none;fill-rule:nonzero;fill:rgb(100%,84.3%,0%);fill-opacity:1;" d="M 443.65625 77.796875 C 443.65625 82.054688 437.269531 82.054688 437.269531 77.796875 C 437.269531 73.539062 443.65625 73.539062 443.65625 77.796875 "/>
<path style=" stroke:none;fill-rule:nonzero;fill:rgb(100%,84.3%,0%);fill-opacity:1;" d="M 50.203125 211.929688 C 50.203125 216.1875 43.816406 216.1875 43.816406 211.929688 C 43.816406 207.667969 50.203125 207.667969 50.203125 211.929688 "/>
<path style=" stroke:none;fill-rule:nonzero;fill:rgb(100%,84.3%,0%);fill-opacity:1;" d="M 50.203125 269.414062 C 50.203125 273.671875 43.816406 273.671875 43.816406 269.414062 C 43.816406 265.15625 50.203125 265.15625 50.203125 269.414062 "/>
<path style=" stroke:none;fill-rule:nonzero;fill:rgb(100%,84.3%,0%);fill-opacity:1;" d="M 50.203125 205.539062 C 50.203125 209.800781 43.816406 209.800781 43.816406 205.539062 C 43.816406 201.28125 50.203125 201.28125 50.203125 205.539062 "/>
<path style=" stroke:none;fill-rule:nonzero;fill:rgb(100%,84.3%,0%);fill-opacity:1;" d="M 443.65625 211.929688 C 443.65625 216.1875 437.269531 216.1875 437.269531 211.929688 C 437.269531 207.667969 443.65625 207.667969 443.65625 211.929688 "/>
<path style=" stroke:none;fill-rule:nonzero;fill:rgb(100%,84.3%,0%);fill-opacity:1;" d="M 50.203125 84.183594 C 50.203125 88.441406 43.816406 88.441406 43.816406 84.183594 C 43.816406 79.925781 50.203125 79.925781 50.203125 84.183594 "/>
<path style=" stroke:none;fill-rule:nonzero;fill:rgb(100%,84.3%,0%);fill-opacity:1;" d="M 120.460938 49.054688 C 120.460938 53.3125 114.074219 53.3125 114.074219 49.054688 C 114.074219 44.796875 120.460938 44.796875 120.460938 49.054688 "/>
<path style=" stroke:none;fill-rule:nonzero;fill:rgb(100%,84.3%,0%);fill-opacity:1;" d="M 299.304688 462.945312 C 299.304688 467.203125 292.917969 467.203125 292.917969 462.945312 C 292.917969 458.6875 299.304688 458.6875 299.304688 462.945312 "/>
<path style=" stroke:none;fill-rule:nonzero;fill:rgb(100%,84.3%,0%);fill-opacity:1;" d="M 50.203125 77.796875 C 50.203125 82.054688 43.816406 82.054688 43.816406 77.796875 C 43.816406 73.539062 50.203125 73.539062 50.203125 77.796875 "/>
<path style=" stroke:none;fill-rule:nonzero;fill:rgb(100%,84.3%,0%);fill-opacity:1;" d="M 432.582031 224.703125 C 432.582031 228.960938 426.195312 228.960938 426.195312 224.703125 C 426.195312 220.445312 432.582031 220.445312 432.582031 224.703125 "/>
<path style=" stroke:none;fill-rule:nonzero;fill:rgb(100%,84.3%,0%);fill-opacity:1;" d="M 443.65625 282.1875 C 443.65625 286.445312 437.269531 286.445312 437.269531 282.1875 C 437.269531 277.929688 443.65625 277.929688 443.65625 282.1875 "/>
<path style=" stroke:none;fill-rule:nonzero;fill:rgb(100%,84.3%,0%);fill-opacity:1;" d="M 50.203125 282.1875 C 50.203125 286.445312 43.816406 286.445312 43.816406 282.1875 C 43.816406 277.929688 50.203125 277.929688 50.203125 282.1875 "/>
<path style=" stroke:none;fill-rule:nonzero;fill:rgb(100%,84.3%,0%);fill-opacity:1;" d="M 50.203125 263.027344 C 50.203125 267.285156 43.816406 267.285156 43.816406 263.027344 C 43.816406 258.769531 50.203125 258.769531 50.203125 263.027344 "/>
<path style=" stroke:none;fill-rule:nonzero;fill:rgb(100%,84.3%,0%);fill-opacity:1;" d="M 443.65625 84.183594 C 443.65625 88.441406 437.269531 88.441406 437.269531 84.183594 C 437.269531 79.925781 443.65625 79.925781 443.65625 84.183594 "/>
<path style=" stroke:none;fill-rule:nonzero;fill:rgb(100%,84.3%,0%);fill-opacity:1;" d="M 432.582031 237.476562 C 432.582031 241.734375 426.195312 241.734375 426.195312 237.476562 C 426.195312 233.21875 432.582031 233.21875 432.582031 237.476562 "/>
<path style=" stroke:none;fill-rule:nonzero;fill:rgb(100%,84.3%,0%);fill-opacity:1;" d="M 432.582031 186.378906 C 432.582031 190.636719 426.195312 190.636719 426.195312 186.378906 C 426.195312 182.121094 432.582031 182.121094 432.582031 186.378906 "/>
<path style=" stroke:none;fill-rule:nonzero;fill:rgb(100%,84.3%,0%);fill-opacity:1;" d="M 395.113281 462.945312 C 395.113281 467.203125 388.726562 467.203125 388.726562 462.945312 C 388.726562 458.6875 395.113281 458.6875 395.113281 462.945312 "/>
<path style=" stroke:none;fill-rule:nonzero;fill:rgb(100%,84.3%,0%);fill-opacity:1;" d="M 209.882812 49.054688 C 209.882812 53.3125 203.496094 53.3125 203.496094 49.054688 C 203.496094 44.796875 209.882812 44.796875 209.882812 49.054688 "/>
<path style=" stroke:none;fill-rule:nonzero;fill:rgb(100%,84.3%,0%);fill-opacity:1;" d="M 427.042969 195.960938 C 427.042969 200.21875 420.65625 200.21875 420.65625 195.960938 C 420.65625 191.703125 427.042969 191.703125 427.042969 195.960938 "/>
<path style=" stroke:none;fill-rule:nonzero;fill:rgb(100%,84.3%,0%);fill-opacity:1;" d="M 382.339844 462.945312 C 382.339844 467.203125 375.953125 467.203125 375.953125 462.945312 C 375.953125 458.6875 382.339844 458.6875 382.339844 462.945312 "/>
<path style=" stroke:none;fill-rule:nonzero;fill:rgb(100%,84.3%,0%);fill-opacity:1;" d="M 50.203125 288.574219 C 50.203125 292.832031 43.816406 292.832031 43.816406 288.574219 C 43.816406 284.316406 50.203125 284.316406 50.203125 288.574219 "/>
<path style=" stroke:none;fill-rule:nonzero;fill:rgb(100%,84.3%,0%);fill-opacity:1;" d="M 50.203125 148.054688 C 50.203125 152.3125 43.816406 152.3125 43.816406 148.054688 C 43.816406 143.796875 50.203125 143.796875 50.203125 148.054688 "/>
<path style=" stroke:none;fill-rule:nonzero;fill:rgb(100%,84.3%,0%);fill-opacity:1;" d="M 50.203125 256.640625 C 50.203125 260.898438 43.816406 260.898438 43.816406 256.640625 C 43.816406 252.378906 50.203125 252.378906 50.203125 256.640625 "/>
<path style=" stroke:none;fill-rule:nonzero;fill:rgb(100%,84.3%,0%);fill-opacity:1;" d="M 443.65625 275.800781 C 443.65625 280.058594 437.269531 280.058594 437.269531 275.800781 C 437.269531 271.542969 443.65625 271.542969 443.65625 275.800781 "/>
<path style=" stroke:none;fill-rule:nonzero;fill:rgb(100%,84.3%,0%);fill-opacity:1;" d="M 50.203125 71.410156 C 50.203125 75.667969 43.816406 75.667969 43.816406 71.410156 C 43.816406 67.152344 50.203125 67.152344 50.203125 71.410156 "/>
<path style=" stroke:none;fill-rule:nonzero;fill:rgb(100%,84.3%,0%);fill-opacity:1;" d="M 50.203125 294.960938 C 50.203125 299.21875 43.816406 299.21875 43.816406 294.960938 C 43.816406 290.703125 50.203125 290.703125 50.203125 294.960938 "/>
<path style=" stroke:none;fill-rule:nonzero;fill:rgb(100%,84.3%,0%);fill-opacity:1;" d="M 152.398438 462.945312 C 152.398438 467.203125 146.011719 467.203125 146.011719 462.945312 C 146.011719 458.6875 152.398438 458.6875 152.398438 462.945312 "/>
<path style=" stroke:none;fill-rule:nonzero;fill:rgb(100%,84.3%,0%);fill-opacity:1;" d="M 438.117188 240.671875 C 438.117188 244.929688 431.730469 244.929688 431.730469 240.671875 C 431.730469 236.414062 438.117188 236.414062 438.117188 240.671875 "/>
<path style=" stroke:none;fill-rule:nonzero;fill:rgb(100%,84.3%,0%);fill-opacity:1;" d="M 50.203125 65.023438 C 50.203125 69.28125 43.816406 69.28125 43.816406 65.023438 C 43.816406 60.765625 50.203125 60.765625 50.203125 65.023438 "/>
<path style=" stroke:none;fill-rule:nonzero;fill:rgb(100%,84.3%,0%);fill-opacity:1;" d="M 286.53125 462.945312 C 286.53125 467.203125 280.144531 467.203125 280.144531 462.945312 C 280.144531 458.6875 286.53125 458.6875 286.53125 462.945312 "/>
<path style=" stroke:none;fill-rule:nonzero;fill:rgb(100%,84.3%,0%);fill-opacity:1;" d="M 267.371094 49.054688 C 267.371094 53.3125 260.980469 53.3125 260.980469 49.054688 C 260.980469 44.796875 267.371094 44.796875 267.371094 49.054688 "/>
<path style=" stroke:none;fill-rule:nonzero;fill:rgb(100%,84.3%,0%);fill-opacity:1;" d="M 438.117188 176.796875 C 438.117188 181.054688 431.730469 181.054688 431.730469 176.796875 C 431.730469 172.539062 438.117188 172.539062 438.117188 176.796875 "/>
<path style=" stroke:none;fill-rule:nonzero;fill:rgb(100%,84.3%,0%);fill-opacity:1;" d="M 50.203125 250.25 C 50.203125 254.507812 43.816406 254.507812 43.816406 250.25 C 43.816406 245.992188 50.203125 245.992188 50.203125 250.25 "/>
<path style=" stroke:none;fill-rule:nonzero;fill:rgb(100%,84.3%,0%);fill-opacity:1;" d="M 432.582031 141.667969 C 432.582031 145.925781 426.195312 145.925781 426.195312 141.667969 C 426.195312 137.410156 432.582031 137.410156 432.582031 141.667969 "/>
<path style=" stroke:none;fill-rule:nonzero;fill:rgb(100%,84.3%,0%);fill-opacity:1;" d="M 438.117188 106.539062 C 438.117188 110.796875 431.730469 110.796875 431.730469 106.539062 C 431.730469 102.28125 438.117188 102.28125 438.117188 106.539062 "/>
<path style=" stroke:none;fill-rule:nonzero;fill:rgb(100%,84.3%,0%);fill-opacity:1;" d="M 443.65625 269.414062 C 443.65625 273.671875 437.269531 273.671875 437.269531 269.414062 C 437.269531 265.15625 443.65625 265.15625 443.65625 269.414062 "/>
<path style=" stroke:none;fill-rule:nonzero;fill:rgb(100%,84.3%,0%);fill-opacity:1;" d="M 324.855469 462.945312 C 324.855469 467.203125 318.46875 467.203125 318.46875 462.945312 C 318.46875 458.6875 324.855469 458.6875 324.855469 462.945312 "/>
<path style=" stroke:none;fill-rule:nonzero;fill:rgb(100%,84.3%,0%);fill-opacity:1;" d="M 254.59375 462.945312 C 254.59375 467.203125 248.207031 467.203125 248.207031 462.945312 C 248.207031 458.6875 254.59375 458.6875 254.59375 462.945312 "/>
<path style=" stroke:none;fill-rule:nonzero;fill:rgb(100%,84.3%,0%);fill-opacity:1;" d="M 438.117188 164.023438 C 438.117188 168.28125 431.730469 168.28125 431.730469 164.023438 C 431.730469 159.765625 438.117188 159.765625 438.117188 164.023438 "/>
<path style=" stroke:none;fill-rule:nonzero;fill:rgb(100%,84.3%,0%);fill-opacity:1;" d="M 331.242188 462.945312 C 331.242188 467.203125 324.855469 467.203125 324.855469 462.945312 C 324.855469 458.6875 331.242188 458.6875 331.242188 462.945312 "/>
<path style=" stroke:none;fill-rule:nonzero;fill:rgb(100%,84.3%,0%);fill-opacity:1;" d="M 94.914062 60.128906 C 94.914062 64.386719 88.527344 64.386719 88.527344 60.128906 C 88.527344 55.871094 94.914062 55.871094 94.914062 60.128906 "/>
<path style=" stroke:none;fill-rule:nonzero;fill:rgb(100%,84.3%,0%);fill-opacity:1;" d="M 443.65625 71.410156 C 443.65625 75.667969 437.269531 75.667969 437.269531 71.410156 C 437.269531 67.152344 443.65625 67.152344 443.65625 71.410156 "/>
<path style=" stroke:none;fill-rule:nonzero;fill:rgb(100%,84.3%,0%);fill-opacity:1;" d="M 443.65625 173.605469 C 443.65625 177.863281 437.269531 177.863281 437.269531 173.605469 C 437.269531 169.347656 443.65625 169.347656 443.65625 173.605469 "/>
<path style=" stroke:none;fill-rule:nonzero;fill:rgb(100%,84.3%,0%);fill-opacity:1;" d="M 443.65625 263.027344 C 443.65625 267.285156 437.269531 267.285156 437.269531 263.027344 C 437.269531 258.769531 443.65625 258.769531 443.65625 263.027344 "/>
<path style=" stroke:none;fill-rule:nonzero;fill:rgb(100%,84.3%,0%);fill-opacity:1;" d="M 216.273438 49.054688 C 216.273438 53.3125 209.882812 53.3125 209.882812 49.054688 C 209.882812 44.796875 216.273438 44.796875 216.273438 49.054688 "/>
<path style=" stroke:none;fill-rule:nonzero;fill:rgb(100%,84.3%,0%);fill-opacity:1;" d="M 318.464844 462.945312 C 318.464844 467.203125 312.078125 467.203125 312.078125 462.945312 C 312.078125 458.6875 318.464844 458.6875 318.464844 462.945312 "/>
<path style=" stroke:none;fill-rule:nonzero;fill:rgb(100%,84.3%,0%);fill-opacity:1;" d="M 388.726562 462.945312 C 388.726562 467.203125 382.339844 467.203125 382.339844 462.945312 C 382.339844 458.6875 388.726562 458.6875 388.726562 462.945312 "/>
<path style=" stroke:none;fill-rule:nonzero;fill:rgb(100%,84.3%,0%);fill-opacity:1;" d="M 158.785156 462.945312 C 158.785156 467.203125 152.398438 467.203125 152.398438 462.945312 C 152.398438 458.6875 158.785156 458.6875 158.785156 462.945312 "/>
<path style=" stroke:none;fill-rule:nonzero;fill:rgb(100%,84.3%,0%);fill-opacity:1;" d="M 114.074219 49.054688 C 114.074219 53.3125 107.6875 53.3125 107.6875 49.054688 C 107.6875 44.796875 114.074219 44.796875 114.074219 49.054688 "/>
<path style=" stroke:none;fill-rule:nonzero;fill:rgb(100%,84.3%,0%);fill-opacity:1;" d="M 50.203125 154.441406 C 50.203125 158.699219 43.816406 158.699219 43.816406 154.441406 C 43.816406 150.183594 50.203125 150.183594 50.203125 154.441406 "/>
<path style=" stroke:none;fill-rule:nonzero;fill:rgb(100%,84.3%,0%);fill-opacity:1;" d="M 165.171875 462.945312 C 165.171875 467.203125 158.785156 467.203125 158.785156 462.945312 C 158.785156 458.6875 165.171875 458.6875 165.171875 462.945312 "/>
<path style=" stroke:none;fill-rule:nonzero;fill:rgb(100%,84.3%,0%);fill-opacity:1;" d="M 72.558594 65.667969 C 72.558594 69.925781 66.171875 69.925781 66.171875 65.667969 C 66.171875 61.410156 72.558594 61.410156 72.558594 65.667969 "/>
<path style=" stroke:none;fill-rule:nonzero;fill:rgb(100%,84.3%,0%);fill-opacity:1;" d="M 171.5625 462.945312 C 171.5625 467.203125 165.171875 467.203125 165.171875 462.945312 C 165.171875 458.6875 171.5625 458.6875 171.5625 462.945312 "/>
<path style=" stroke:none;fill-rule:nonzero;fill:rgb(100%,84.3%,0%);fill-opacity:1;" d="M 438.117188 208.734375 C 438.117188 212.992188 431.730469 212.992188 431.730469 208.734375 C 431.730469 204.476562 438.117188 204.476562 438.117188 208.734375 "/>
<path style=" stroke:none;fill-rule:nonzero;fill:rgb(100%,84.3%,0%);fill-opacity:1;" d="M 438.117188 336.480469 C 438.117188 340.738281 431.730469 340.738281 431.730469 336.480469 C 431.730469 332.222656 438.117188 332.222656 438.117188 336.480469 "/>
<path style=" stroke:none;fill-rule:nonzero;fill:rgb(100%,84.3%,0%);fill-opacity:1;" d="M 438.117188 202.347656 C 438.117188 206.605469 431.730469 206.605469 431.730469 202.347656 C 431.730469 198.089844 438.117188 198.089844 438.117188 202.347656 "/>
<path style=" stroke:none;fill-rule:nonzero;fill:rgb(100%,84.3%,0%);fill-opacity:1;" d="M 75.753906 71.203125 C 75.753906 75.464844 69.367188 75.464844 69.367188 71.203125 C 69.367188 66.945312 75.753906 66.945312 75.753906 71.203125 "/>
<path style=" stroke:none;fill-rule:nonzero;fill:rgb(100%,84.3%,0%);fill-opacity:1;" d="M 61.28125 71.410156 C 61.28125 75.667969 54.890625 75.667969 54.890625 71.410156 C 54.890625 67.152344 61.28125 67.152344 61.28125 71.410156 "/>
<path style=" stroke:none;fill-rule:nonzero;fill:rgb(100%,84.3%,0%);fill-opacity:1;" d="M 177.949219 462.945312 C 177.949219 467.203125 171.558594 467.203125 171.558594 462.945312 C 171.558594 458.6875 177.949219 458.6875 177.949219 462.945312 "/>
<path style=" stroke:none;fill-rule:nonzero;fill:rgb(100%,84.3%,0%);fill-opacity:1;" d="M 50.203125 160.828125 C 50.203125 165.089844 43.816406 165.089844 43.816406 160.828125 C 43.816406 156.570312 50.203125 156.570312 50.203125 160.828125 "/>
<path style=" stroke:none;fill-rule:nonzero;fill:rgb(100%,84.3%,0%);fill-opacity:1;" d="M 443.65625 49.054688 C 443.65625 53.3125 437.269531 53.3125 437.269531 49.054688 C 437.269531 44.796875 443.65625 44.796875 443.65625 49.054688 "/>
<path style=" stroke:none;fill-rule:nonzero;fill:rgb(100%,84.3%,0%);fill-opacity:1;" d="M 184.335938 462.945312 C 184.335938 467.203125 177.949219 467.203125 177.949219 462.945312 C 177.949219 458.6875 184.335938 458.6875 184.335938 462.945312 "/>
<path style=" stroke:none;fill-rule:nonzero;fill:rgb(100%,84.3%,0%);fill-opacity:1;" d="M 432.582031 179.992188 C 432.582031 184.25 426.195312 184.25 426.195312 179.992188 C 426.195312 175.734375 432.582031 175.734375 432.582031 179.992188 "/>
<path style=" stroke:none;fill-rule:nonzero;fill:rgb(100%,84.3%,0%);fill-opacity:1;" d="M 222.660156 49.054688 C 222.660156 53.3125 216.269531 53.3125 216.269531 49.054688 C 216.269531 44.796875 222.660156 44.796875 222.660156 49.054688 "/>
<path style=" stroke:none;fill-rule:nonzero;fill:rgb(100%,84.3%,0%);fill-opacity:1;" d="M 432.582031 218.316406 C 432.582031 222.574219 426.195312 222.574219 426.195312 218.316406 C 426.195312 214.058594 432.582031 214.058594 432.582031 218.316406 "/>
<path style=" stroke:none;fill-rule:nonzero;fill:rgb(100%,84.3%,0%);fill-opacity:1;" d="M 75.753906 462.945312 C 75.753906 467.203125 69.367188 467.203125 69.367188 462.945312 C 69.367188 458.6875 75.753906 458.6875 75.753906 462.945312 "/>
<path style=" stroke:none;fill-rule:nonzero;fill:rgb(100%,84.3%,0%);fill-opacity:1;" d="M 91.71875 65.667969 C 91.71875 69.925781 85.332031 69.925781 85.332031 65.667969 C 85.332031 61.410156 91.71875 61.410156 91.71875 65.667969 "/>
<path style=" stroke:none;fill-rule:nonzero;fill:rgb(100%,84.3%,0%);fill-opacity:1;" d="M 438.117188 234.28125 C 438.117188 238.542969 431.730469 238.542969 431.730469 234.28125 C 431.730469 230.023438 438.117188 230.023438 438.117188 234.28125 "/>
<path style=" stroke:none;fill-rule:nonzero;fill:rgb(100%,84.3%,0%);fill-opacity:1;" d="M 107.6875 60.128906 C 107.6875 64.386719 101.300781 64.386719 101.300781 60.128906 C 101.300781 55.871094 107.6875 55.871094 107.6875 60.128906 "/>
<path style=" stroke:none;fill-rule:nonzero;fill:rgb(100%,84.3%,0%);fill-opacity:1;" d="M 401.5 462.945312 C 401.5 467.203125 395.113281 467.203125 395.113281 462.945312 C 395.113281 458.6875 401.5 458.6875 401.5 462.945312 "/>
<path style=" stroke:none;fill-rule:nonzero;fill:rgb(100%,84.3%,0%);fill-opacity:1;" d="M 443.65625 96.957031 C 443.65625 101.214844 437.269531 101.214844 437.269531 96.957031 C 437.269531 92.699219 443.65625 92.699219 443.65625 96.957031 "/>
<path style=" stroke:none;fill-rule:nonzero;fill:rgb(100%,84.3%,0%);fill-opacity:1;" d="M 107.6875 49.054688 C 107.6875 53.3125 101.300781 53.3125 101.300781 49.054688 C 101.300781 44.796875 107.6875 44.796875 107.6875 49.054688 "/>
<path style=" stroke:none;fill-rule:nonzero;fill:rgb(100%,84.3%,0%);fill-opacity:1;" d="M 312.078125 462.945312 C 312.078125 467.203125 305.691406 467.203125 305.691406 462.945312 C 305.691406 458.6875 312.078125 458.6875 312.078125 462.945312 "/>
<path style=" stroke:none;fill-rule:nonzero;fill:rgb(100%,84.3%,0%);fill-opacity:1;" d="M 50.203125 320.511719 C 50.203125 324.769531 43.816406 324.769531 43.816406 320.511719 C 43.816406 316.253906 50.203125 316.253906 50.203125 320.511719 "/>
<path style=" stroke:none;fill-rule:nonzero;fill:rgb(100%,84.3%,0%);fill-opacity:1;" d="M 101.300781 60.128906 C 101.300781 64.386719 94.914062 64.386719 94.914062 60.128906 C 94.914062 55.871094 101.300781 55.871094 101.300781 60.128906 "/>
<path style=" stroke:none;fill-rule:nonzero;fill:rgb(100%,84.3%,0%);fill-opacity:1;" d="M 229.046875 49.054688 C 229.046875 53.3125 222.660156 53.3125 222.660156 49.054688 C 222.660156 44.796875 229.046875 44.796875 229.046875 49.054688 "/>
<path style=" stroke:none;fill-rule:nonzero;fill:rgb(100%,84.3%,0%);fill-opacity:1;" d="M 292.917969 462.945312 C 292.917969 467.203125 286.53125 467.203125 286.53125 462.945312 C 286.53125 458.6875 292.917969 458.6875 292.917969 462.945312 "/>
<path style=" stroke:none;fill-rule:nonzero;fill:rgb(100%,84.3%,0%);fill-opacity:1;" d="M 50.203125 167.21875 C 50.203125 171.476562 43.816406 171.476562 43.816406 167.21875 C 43.816406 162.960938 50.203125 162.960938 50.203125 167.21875 "/>
<path style=" stroke:none;fill-rule:nonzero;fill:rgb(100%,84.3%,0%);fill-opacity:1;" d="M 190.722656 462.945312 C 190.722656 467.203125 184.335938 467.203125 184.335938 462.945312 C 184.335938 458.6875 190.722656 458.6875 190.722656 462.945312 "/>
<path style=" stroke:none;fill-rule:nonzero;fill:rgb(100%,84.3%,0%);fill-opacity:1;" d="M 50.203125 173.605469 C 50.203125 177.863281 43.816406 177.863281 43.816406 173.605469 C 43.816406 169.347656 50.203125 169.347656 50.203125 173.605469 "/>
<path style=" stroke:none;fill-rule:nonzero;fill:rgb(100%,84.3%,0%);fill-opacity:1;" d="M 50.203125 326.898438 C 50.203125 331.15625 43.816406 331.15625 43.816406 326.898438 C 43.816406 322.640625 50.203125 322.640625 50.203125 326.898438 "/>
<path style=" stroke:none;fill-rule:nonzero;fill:rgb(100%,84.3%,0%);fill-opacity:1;" d="M 443.65625 179.992188 C 443.65625 184.25 437.269531 184.25 437.269531 179.992188 C 437.269531 175.734375 443.65625 175.734375 443.65625 179.992188 "/>
<path style=" stroke:none;fill-rule:nonzero;fill:rgb(100%,84.3%,0%);fill-opacity:1;" d="M 50.203125 307.738281 C 50.203125 311.996094 43.816406 311.996094 43.816406 307.738281 C 43.816406 303.480469 50.203125 303.480469 50.203125 307.738281 "/>
<path style=" stroke:none;fill-rule:nonzero;fill:rgb(100%,84.3%,0%);fill-opacity:1;" d="M 443.65625 231.089844 C 443.65625 235.347656 437.269531 235.347656 437.269531 231.089844 C 437.269531 226.832031 443.65625 226.832031 443.65625 231.089844 "/>
<path style=" stroke:none;fill-rule:nonzero;fill:rgb(100%,84.3%,0%);fill-opacity:1;" d="M 50.203125 339.671875 C 50.203125 343.929688 43.816406 343.929688 43.816406 339.671875 C 43.816406 335.414062 50.203125 335.414062 50.203125 339.671875 "/>
<path style=" stroke:none;fill-rule:nonzero;fill:rgb(100%,84.3%,0%);fill-opacity:1;" d="M 85.332031 457.40625 C 85.332031 461.667969 78.945312 461.667969 78.945312 457.40625 C 78.945312 453.148438 85.332031 453.148438 85.332031 457.40625 "/>
<path style=" stroke:none;fill-rule:nonzero;fill:rgb(100%,84.3%,0%);fill-opacity:1;" d="M 88.527344 60.128906 C 88.527344 64.386719 82.140625 64.386719 82.140625 60.128906 C 82.140625 55.871094 88.527344 55.871094 88.527344 60.128906 "/>
<path style=" stroke:none;fill-rule:nonzero;fill:rgb(100%,84.3%,0%);fill-opacity:1;" d="M 82.140625 60.128906 C 82.140625 64.386719 75.753906 64.386719 75.753906 60.128906 C 75.753906 55.871094 82.140625 55.871094 82.140625 60.128906 "/>
<path style=" stroke:none;fill-rule:nonzero;fill:rgb(100%,84.3%,0%);fill-opacity:1;" d="M 382.339844 49.054688 C 382.339844 53.3125 375.953125 53.3125 375.953125 49.054688 C 375.953125 44.796875 382.339844 44.796875 382.339844 49.054688 "/>
<path style=" stroke:none;fill-rule:nonzero;fill:rgb(100%,84.3%,0%);fill-opacity:1;" d="M 443.65625 167.21875 C 443.65625 171.476562 437.269531 171.476562 437.269531 167.21875 C 437.269531 162.960938 443.65625 162.960938 443.65625 167.21875 "/>
<path style=" stroke:none;fill-rule:nonzero;fill:rgb(100%,84.3%,0%);fill-opacity:1;" d="M 98.109375 54.59375 C 98.109375 58.851562 91.71875 58.851562 91.71875 54.59375 C 91.71875 50.332031 98.109375 50.332031 98.109375 54.59375 "/>
<path style=" stroke:none;fill-rule:nonzero;fill:rgb(100%,84.3%,0%);fill-opacity:1;" d="M 443.65625 352.445312 C 443.65625 356.707031 437.269531 356.707031 437.269531 352.445312 C 437.269531 348.1875 443.65625 348.1875 443.65625 352.445312 "/>
<path style=" stroke:none;fill-rule:nonzero;fill:rgb(100%,84.3%,0%);fill-opacity:1;" d="M 149.207031 457.40625 C 149.207031 461.667969 142.820312 461.667969 142.820312 457.40625 C 142.820312 453.148438 149.207031 453.148438 149.207031 457.40625 "/>
<path style=" stroke:none;fill-rule:nonzero;fill:rgb(100%,84.3%,0%);fill-opacity:1;" d="M 427.042969 221.507812 C 427.042969 225.765625 420.65625 225.765625 420.65625 221.507812 C 420.65625 217.25 427.042969 217.25 427.042969 221.507812 "/>
<path style=" stroke:none;fill-rule:nonzero;fill:rgb(100%,84.3%,0%);fill-opacity:1;" d="M 69.367188 462.945312 C 69.367188 467.203125 62.976562 467.203125 62.976562 462.945312 C 62.976562 458.6875 69.367188 458.6875 69.367188 462.945312 "/>
<path style=" stroke:none;fill-rule:nonzero;fill:rgb(100%,84.3%,0%);fill-opacity:1;" d="M 414.277344 462.945312 C 414.277344 467.203125 407.886719 467.203125 407.886719 462.945312 C 407.886719 458.6875 414.277344 458.6875 414.277344 462.945312 "/>
<path style=" stroke:none;fill-rule:nonzero;fill:rgb(100%,84.3%,0%);fill-opacity:1;" d="M 420.664062 462.945312 C 420.664062 467.203125 414.273438 467.203125 414.273438 462.945312 C 414.273438 458.6875 420.664062 458.6875 420.664062 462.945312 "/>
<path style=" stroke:none;fill-rule:nonzero;fill:rgb(100%,84.3%,0%);fill-opacity:1;" d="M 72.558594 54.59375 C 72.558594 58.851562 66.171875 58.851562 66.171875 54.59375 C 66.171875 50.332031 72.558594 50.332031 72.558594 54.59375 "/>
<path style=" stroke:none;fill-rule:nonzero;fill:rgb(100%,84.3%,0%);fill-opacity:1;" d="M 427.042969 208.734375 C 427.042969 212.992188 420.65625 212.992188 420.65625 208.734375 C 420.65625 204.476562 427.042969 204.476562 427.042969 208.734375 "/>
<path style=" stroke:none;fill-rule:nonzero;fill:rgb(100%,84.3%,0%);fill-opacity:1;" d="M 280.144531 49.054688 C 280.144531 53.3125 273.757812 53.3125 273.757812 49.054688 C 273.757812 44.796875 280.144531 44.796875 280.144531 49.054688 "/>
<path style=" stroke:none;fill-rule:nonzero;fill:rgb(100%,84.3%,0%);fill-opacity:1;" d="M 432.582031 358.835938 C 432.582031 363.09375 426.195312 363.09375 426.195312 358.835938 C 426.195312 354.574219 432.582031 354.574219 432.582031 358.835938 "/>
<path style=" stroke:none;fill-rule:nonzero;fill:rgb(100%,84.3%,0%);fill-opacity:1;" d="M 110.882812 457.40625 C 110.882812 461.667969 104.496094 461.667969 104.496094 457.40625 C 104.496094 453.148438 110.882812 453.148438 110.882812 457.40625 "/>
<path style=" stroke:none;fill-rule:nonzero;fill:rgb(100%,84.3%,0%);fill-opacity:1;" d="M 438.117188 253.445312 C 438.117188 257.703125 431.730469 257.703125 431.730469 253.445312 C 431.730469 249.1875 438.117188 249.1875 438.117188 253.445312 "/>
<path style=" stroke:none;fill-rule:nonzero;fill:rgb(100%,84.3%,0%);fill-opacity:1;" d="M 438.117188 144.863281 C 438.117188 149.121094 431.730469 149.121094 431.730469 144.863281 C 431.730469 140.605469 438.117188 140.605469 438.117188 144.863281 "/>
<path style=" stroke:none;fill-rule:nonzero;fill:rgb(100%,84.3%,0%);fill-opacity:1;" d="M 427.050781 462.945312 C 427.050781 467.203125 420.664062 467.203125 420.664062 462.945312 C 420.664062 458.6875 427.050781 458.6875 427.050781 462.945312 "/>
<path style=" stroke:none;fill-rule:nonzero;fill:rgb(100%,84.3%,0%);fill-opacity:1;" d="M 197.109375 462.945312 C 197.109375 467.203125 190.722656 467.203125 190.722656 462.945312 C 190.722656 458.6875 197.109375 458.6875 197.109375 462.945312 "/>
<path style=" stroke:none;fill-rule:nonzero;fill:rgb(100%,84.3%,0%);fill-opacity:1;" d="M 55.742188 93.765625 C 55.742188 98.023438 49.355469 98.023438 49.355469 93.765625 C 49.355469 89.503906 55.742188 89.503906 55.742188 93.765625 "/>
<path style=" stroke:none;fill-rule:nonzero;fill:rgb(100%,84.3%,0%);fill-opacity:1;" d="M 98.109375 457.40625 C 98.109375 461.667969 91.71875 461.667969 91.71875 457.40625 C 91.71875 453.148438 98.109375 453.148438 98.109375 457.40625 "/>
<path style=" stroke:none;fill-rule:nonzero;fill:rgb(100%,84.3%,0%);fill-opacity:1;" d="M 50.203125 301.347656 C 50.203125 305.605469 43.816406 305.605469 43.816406 301.347656 C 43.816406 297.089844 50.203125 297.089844 50.203125 301.347656 "/>
<path style=" stroke:none;fill-rule:nonzero;fill:rgb(100%,84.3%,0%);fill-opacity:1;" d="M 193.917969 54.59375 C 193.917969 58.851562 187.53125 58.851562 187.53125 54.59375 C 187.53125 50.332031 193.917969 50.332031 193.917969 54.59375 "/>
<path style=" stroke:none;fill-rule:nonzero;fill:rgb(100%,84.3%,0%);fill-opacity:1;" d="M 66.171875 65.667969 C 66.171875 69.925781 59.785156 69.925781 59.785156 65.667969 C 59.785156 61.410156 66.171875 61.410156 66.171875 65.667969 "/>
<path style=" stroke:none;fill-rule:nonzero;fill:rgb(100%,84.3%,0%);fill-opacity:1;" d="M 72.558594 457.40625 C 72.558594 461.667969 66.171875 461.667969 66.171875 457.40625 C 66.171875 453.148438 72.558594 453.148438 72.558594 457.40625 "/>
<path style=" stroke:none;fill-rule:nonzero;fill:rgb(100%,84.3%,0%);fill-opacity:1;" d="M 443.65625 250.25 C 443.65625 254.507812 437.269531 254.507812 437.269531 250.25 C 437.269531 245.992188 443.65625 245.992188 443.65625 250.25 "/>
<path style=" stroke:none;fill-rule:nonzero;fill:rgb(100%,84.3%,0%);fill-opacity:1;" d="M 50.203125 448.253906 C 50.203125 452.511719 43.816406 452.511719 43.816406 448.253906 C 43.816406 443.996094 50.203125 443.996094 50.203125 448.253906 "/>
<path style=" stroke:none;fill-rule:nonzero;fill:rgb(100%,84.3%,0%);fill-opacity:1;" d="M 432.582031 365.222656 C 432.582031 369.480469 426.195312 369.480469 426.195312 365.222656 C 426.195312 360.964844 432.582031 360.964844 432.582031 365.222656 "/>
<path style=" stroke:none;fill-rule:nonzero;fill:rgb(100%,84.3%,0%);fill-opacity:1;" d="M 91.71875 54.59375 C 91.71875 58.851562 85.332031 58.851562 85.332031 54.59375 C 85.332031 50.332031 91.71875 50.332031 91.71875 54.59375 "/>
<path style=" stroke:none;fill-rule:nonzero;fill:rgb(100%,84.3%,0%);fill-opacity:1;" d="M 443.65625 65.023438 C 443.65625 69.28125 437.269531 69.28125 437.269531 65.023438 C 437.269531 60.765625 443.65625 60.765625 443.65625 65.023438 "/>
<path style=" stroke:none;fill-rule:nonzero;fill:rgb(100%,84.3%,0%);fill-opacity:1;" d="M 50.203125 441.867188 C 50.203125 446.125 43.816406 446.125 43.816406 441.867188 C 43.816406 437.609375 50.203125 437.609375 50.203125 441.867188 "/>
<path style=" stroke:none;fill-rule:nonzero;fill:rgb(100%,84.3%,0%);fill-opacity:1;" d="M 55.742188 61.828125 C 55.742188 66.085938 49.355469 66.085938 49.355469 61.828125 C 49.355469 57.570312 55.742188 57.570312 55.742188 61.828125 "/>
<path style=" stroke:none;fill-rule:nonzero;fill:rgb(100%,84.3%,0%);fill-opacity:1;" d="M 155.59375 54.59375 C 155.59375 58.851562 149.207031 58.851562 149.207031 54.59375 C 149.207031 50.332031 155.59375 50.332031 155.59375 54.59375 "/>
<path style=" stroke:none;fill-rule:nonzero;fill:rgb(100%,84.3%,0%);fill-opacity:1;" d="M 187.527344 54.59375 C 187.527344 58.851562 181.140625 58.851562 181.140625 54.59375 C 181.140625 50.332031 187.527344 50.332031 187.527344 54.59375 "/>
<path style=" stroke:none;fill-rule:nonzero;fill:rgb(100%,84.3%,0%);fill-opacity:1;" d="M 235.433594 49.054688 C 235.433594 53.3125 229.046875 53.3125 229.046875 49.054688 C 229.046875 44.796875 235.433594 44.796875 235.433594 49.054688 "/>
<path style=" stroke:none;fill-rule:nonzero;fill:rgb(100%,84.3%,0%);fill-opacity:1;" d="M 101.300781 49.054688 C 101.300781 53.3125 94.914062 53.3125 94.914062 49.054688 C 94.914062 44.796875 101.300781 44.796875 101.300781 49.054688 "/>
<path style=" stroke:none;fill-rule:nonzero;fill:rgb(100%,84.3%,0%);fill-opacity:1;" d="M 114.074219 451.871094 C 114.074219 456.128906 107.6875 456.128906 107.6875 451.871094 C 107.6875 447.613281 114.074219 447.613281 114.074219 451.871094 "/>
<path style=" stroke:none;fill-rule:nonzero;fill:rgb(100%,84.3%,0%);fill-opacity:1;" d="M 432.582031 435.480469 C 432.582031 439.738281 426.195312 439.738281 426.195312 435.480469 C 426.195312 431.222656 432.582031 431.222656 432.582031 435.480469 "/>
<path style=" stroke:none;fill-rule:nonzero;fill:rgb(100%,84.3%,0%);fill-opacity:1;" d="M 82.140625 451.871094 C 82.140625 456.128906 75.753906 456.128906 75.753906 451.871094 C 75.753906 447.613281 82.140625 447.613281 82.140625 451.871094 "/>
<path style=" stroke:none;fill-rule:nonzero;fill:rgb(100%,84.3%,0%);fill-opacity:1;" d="M 104.496094 457.40625 C 104.496094 461.667969 98.105469 461.667969 98.105469 457.40625 C 98.105469 453.148438 104.496094 453.148438 104.496094 457.40625 "/>
<path style=" stroke:none;fill-rule:nonzero;fill:rgb(100%,84.3%,0%);fill-opacity:1;" d="M 432.582031 377.996094 C 432.582031 382.253906 426.195312 382.253906 426.195312 377.996094 C 426.195312 373.738281 432.582031 373.738281 432.582031 377.996094 "/>
<path style=" stroke:none;fill-rule:nonzero;fill:rgb(100%,84.3%,0%);fill-opacity:1;" d="M 168.367188 54.59375 C 168.367188 58.851562 161.980469 58.851562 161.980469 54.59375 C 161.980469 50.332031 168.367188 50.332031 168.367188 54.59375 "/>
<path style=" stroke:none;fill-rule:nonzero;fill:rgb(100%,84.3%,0%);fill-opacity:1;" d="M 120.460938 451.871094 C 120.460938 456.128906 114.074219 456.128906 114.074219 451.871094 C 114.074219 447.613281 120.460938 447.613281 120.460938 451.871094 "/>
<path style=" stroke:none;fill-rule:nonzero;fill:rgb(100%,84.3%,0%);fill-opacity:1;" d="M 254.59375 49.054688 C 254.59375 53.3125 248.207031 53.3125 248.207031 49.054688 C 248.207031 44.796875 254.59375 44.796875 254.59375 49.054688 "/>
<path style=" stroke:none;fill-rule:nonzero;fill:rgb(100%,84.3%,0%);fill-opacity:1;" d="M 280.144531 462.945312 C 280.144531 467.203125 273.757812 467.203125 273.757812 462.945312 C 273.757812 458.6875 280.144531 458.6875 280.144531 462.945312 "/>
<path style=" stroke:none;fill-rule:nonzero;fill:rgb(100%,84.3%,0%);fill-opacity:1;" d="M 432.582031 371.609375 C 432.582031 375.867188 426.195312 375.867188 426.195312 371.609375 C 426.195312 367.351562 432.582031 367.351562 432.582031 371.609375 "/>
<path style=" stroke:none;fill-rule:nonzero;fill:rgb(100%,84.3%,0%);fill-opacity:1;" d="M 248.207031 49.054688 C 248.207031 53.3125 241.820312 53.3125 241.820312 49.054688 C 241.820312 44.796875 248.207031 44.796875 248.207031 49.054688 "/>
<path style=" stroke:none;fill-rule:nonzero;fill:rgb(100%,84.3%,0%);fill-opacity:1;" d="M 69.367188 451.871094 C 69.367188 456.128906 62.976562 456.128906 62.976562 451.871094 C 62.976562 447.613281 69.367188 447.613281 69.367188 451.871094 "/>
<path style=" stroke:none;fill-rule:nonzero;fill:rgb(100%,84.3%,0%);fill-opacity:1;" d="M 432.582031 397.15625 C 432.582031 401.417969 426.195312 401.417969 426.195312 397.15625 C 426.195312 392.898438 432.582031 392.898438 432.582031 397.15625 "/>
<path style=" stroke:none;fill-rule:nonzero;fill:rgb(100%,84.3%,0%);fill-opacity:1;" d="M 85.332031 65.667969 C 85.332031 69.925781 78.945312 69.925781 78.945312 65.667969 C 78.945312 61.410156 85.332031 61.410156 85.332031 65.667969 "/>
<path style=" stroke:none;fill-rule:nonzero;fill:rgb(100%,84.3%,0%);fill-opacity:1;" d="M 50.203125 237.476562 C 50.203125 241.734375 43.816406 241.734375 43.816406 237.476562 C 43.816406 233.21875 50.203125 233.21875 50.203125 237.476562 "/>
<path style=" stroke:none;fill-rule:nonzero;fill:rgb(100%,84.3%,0%);fill-opacity:1;" d="M 273.757812 462.945312 C 273.757812 467.203125 267.371094 467.203125 267.371094 462.945312 C 267.371094 458.6875 273.757812 458.6875 273.757812 462.945312 "/>
<path style=" stroke:none;fill-rule:nonzero;fill:rgb(100%,84.3%,0%);fill-opacity:1;" d="M 438.117188 183.1875 C 438.117188 187.445312 431.730469 187.445312 431.730469 183.1875 C 431.730469 178.929688 438.117188 178.929688 438.117188 183.1875 "/>
<path style=" stroke:none;fill-rule:nonzero;fill:rgb(100%,84.3%,0%);fill-opacity:1;" d="M 248.207031 462.945312 C 248.207031 467.203125 241.820312 467.203125 241.820312 462.945312 C 241.820312 458.6875 248.207031 458.6875 248.207031 462.945312 "/>
<path style=" stroke:none;fill-rule:nonzero;fill:rgb(100%,84.3%,0%);fill-opacity:1;" d="M 438.117188 349.253906 C 438.117188 353.511719 431.730469 353.511719 431.730469 349.253906 C 431.730469 344.996094 438.117188 344.996094 438.117188 349.253906 "/>
<path style=" stroke:none;fill-rule:nonzero;fill:rgb(100%,84.3%,0%);fill-opacity:1;" d="M 260.980469 49.054688 C 260.980469 53.3125 254.59375 53.3125 254.59375 49.054688 C 254.59375 44.796875 260.980469 44.796875 260.980469 49.054688 "/>
<path style=" stroke:none;fill-rule:nonzero;fill:rgb(100%,84.3%,0%);fill-opacity:1;" d="M 438.117188 93.765625 C 438.117188 98.023438 431.730469 98.023438 431.730469 93.765625 C 431.730469 89.503906 438.117188 89.503906 438.117188 93.765625 "/>
<path style=" stroke:none;fill-rule:nonzero;fill:rgb(100%,84.3%,0%);fill-opacity:1;" d="M 432.582031 390.769531 C 432.582031 395.027344 426.195312 395.027344 426.195312 390.769531 C 426.195312 386.511719 432.582031 386.511719 432.582031 390.769531 "/>
<path style=" stroke:none;fill-rule:nonzero;fill:rgb(100%,84.3%,0%);fill-opacity:1;" d="M 88.527344 451.871094 C 88.527344 456.128906 82.140625 456.128906 82.140625 451.871094 C 82.140625 447.613281 88.527344 447.613281 88.527344 451.871094 "/>
<path style=" stroke:none;fill-rule:nonzero;fill:rgb(100%,84.3%,0%);fill-opacity:1;" d="M 432.582031 403.546875 C 432.582031 407.804688 426.195312 407.804688 426.195312 403.546875 C 426.195312 399.285156 432.582031 399.285156 432.582031 403.546875 "/>
<path style=" stroke:none;fill-rule:nonzero;fill:rgb(100%,84.3%,0%);fill-opacity:1;" d="M 161.980469 54.59375 C 161.980469 58.851562 155.59375 58.851562 155.59375 54.59375 C 155.59375 50.332031 161.980469 50.332031 161.980469 54.59375 "/>
<path style=" stroke:none;fill-rule:nonzero;fill:rgb(100%,84.3%,0%);fill-opacity:1;" d="M 55.742188 138.476562 C 55.742188 142.734375 49.355469 142.734375 49.355469 138.476562 C 49.355469 134.21875 55.742188 134.21875 55.742188 138.476562 "/>
<path style=" stroke:none;fill-rule:nonzero;fill:rgb(100%,84.3%,0%);fill-opacity:1;" d="M 78.945312 65.667969 C 78.945312 69.925781 72.558594 69.925781 72.558594 65.667969 C 72.558594 61.410156 78.945312 61.410156 78.945312 65.667969 "/>
<path style=" stroke:none;fill-rule:nonzero;fill:rgb(100%,84.3%,0%);fill-opacity:1;" d="M 438.117188 355.640625 C 438.117188 359.898438 431.730469 359.898438 431.730469 355.640625 C 431.730469 351.382812 438.117188 351.382812 438.117188 355.640625 "/>
<path style=" stroke:none;fill-rule:nonzero;fill:rgb(100%,84.3%,0%);fill-opacity:1;" d="M 203.496094 462.945312 C 203.496094 467.203125 197.109375 467.203125 197.109375 462.945312 C 197.109375 458.6875 203.496094 458.6875 203.496094 462.945312 "/>
<path style=" stroke:none;fill-rule:nonzero;fill:rgb(100%,84.3%,0%);fill-opacity:1;" d="M 62.976562 462.945312 C 62.976562 467.203125 56.589844 467.203125 56.589844 462.945312 C 56.589844 458.6875 62.976562 458.6875 62.976562 462.945312 "/>
<path style=" stroke:none;fill-rule:nonzero;fill:rgb(100%,84.3%,0%);fill-opacity:1;" d="M 241.820312 49.054688 C 241.820312 53.3125 235.433594 53.3125 235.433594 49.054688 C 235.433594 44.796875 241.820312 44.796875 241.820312 49.054688 "/>
<path style=" stroke:none;fill-rule:nonzero;fill:rgb(100%,84.3%,0%);fill-opacity:1;" d="M 174.753906 54.59375 C 174.753906 58.851562 168.367188 58.851562 168.367188 54.59375 C 168.367188 50.332031 174.753906 50.332031 174.753906 54.59375 "/>
<path style=" stroke:none;fill-rule:nonzero;fill:rgb(100%,84.3%,0%);fill-opacity:1;" d="M 94.914062 49.054688 C 94.914062 53.3125 88.527344 53.3125 88.527344 49.054688 C 88.527344 44.796875 94.914062 44.796875 94.914062 49.054688 "/>
<path style=" stroke:none;fill-rule:nonzero;fill:rgb(100%,84.3%,0%);fill-opacity:1;" d="M 117.269531 54.59375 C 117.269531 58.851562 110.882812 58.851562 110.882812 54.59375 C 110.882812 50.332031 117.269531 50.332031 117.269531 54.59375 "/>
<path style=" stroke:none;fill-rule:nonzero;fill:rgb(100%,84.3%,0%);fill-opacity:1;" d="M 443.65625 358.835938 C 443.65625 363.09375 437.269531 363.09375 437.269531 358.835938 C 437.269531 354.574219 443.65625 354.574219 443.65625 358.835938 "/>
<path style=" stroke:none;fill-rule:nonzero;fill:rgb(100%,84.3%,0%);fill-opacity:1;" d="M 50.203125 435.480469 C 50.203125 439.738281 43.816406 439.738281 43.816406 435.480469 C 43.816406 431.222656 50.203125 431.222656 50.203125 435.480469 "/>
<path style=" stroke:none;fill-rule:nonzero;fill:rgb(100%,84.3%,0%);fill-opacity:1;" d="M 142.820312 54.59375 C 142.820312 58.851562 136.429688 58.851562 136.429688 54.59375 C 136.429688 50.332031 142.820312 50.332031 142.820312 54.59375 "/>
<path style=" stroke:none;fill-rule:nonzero;fill:rgb(100%,84.3%,0%);fill-opacity:1;" d="M 55.742188 74.601562 C 55.742188 78.859375 49.355469 78.859375 49.355469 74.601562 C 49.355469 70.34375 55.742188 70.34375 55.742188 74.601562 "/>
<path style=" stroke:none;fill-rule:nonzero;fill:rgb(100%,84.3%,0%);fill-opacity:1;" d="M 149.207031 54.59375 C 149.207031 58.851562 142.820312 58.851562 142.820312 54.59375 C 142.820312 50.332031 149.207031 50.332031 149.207031 54.59375 "/>
<path style=" stroke:none;fill-rule:nonzero;fill:rgb(100%,84.3%,0%);fill-opacity:1;" d="M 438.117188 368.414062 C 438.117188 372.671875 431.730469 372.671875 431.730469 368.414062 C 431.730469 364.15625 438.117188 364.15625 438.117188 368.414062 "/>
<path style=" stroke:none;fill-rule:nonzero;fill:rgb(100%,84.3%,0%);fill-opacity:1;" d="M 241.820312 462.945312 C 241.820312 467.203125 235.433594 467.203125 235.433594 462.945312 C 235.433594 458.6875 241.820312 458.6875 241.820312 462.945312 "/>
<path style=" stroke:none;fill-rule:nonzero;fill:rgb(100%,84.3%,0%);fill-opacity:1;" d="M 136.429688 54.59375 C 136.429688 58.851562 130.042969 58.851562 130.042969 54.59375 C 130.042969 50.332031 136.429688 50.332031 136.429688 54.59375 "/>
<path style=" stroke:none;fill-rule:nonzero;fill:rgb(100%,84.3%,0%);fill-opacity:1;" d="M 66.171875 457.40625 C 66.171875 461.667969 59.785156 461.667969 59.785156 457.40625 C 59.785156 453.148438 66.171875 453.148438 66.171875 457.40625 "/>
<path style=" stroke:none;fill-rule:nonzero;fill:rgb(100%,84.3%,0%);fill-opacity:1;" d="M 432.582031 135.28125 C 432.582031 139.539062 426.195312 139.539062 426.195312 135.28125 C 426.195312 131.023438 432.582031 131.023438 432.582031 135.28125 "/>
<path style=" stroke:none;fill-rule:nonzero;fill:rgb(100%,84.3%,0%);fill-opacity:1;" d="M 56.589844 462.945312 C 56.589844 467.203125 50.203125 467.203125 50.203125 462.945312 C 50.203125 458.6875 56.589844 458.6875 56.589844 462.945312 "/>
<path style=" stroke:none;fill-rule:nonzero;fill:rgb(100%,84.3%,0%);fill-opacity:1;" d="M 436.628906 457.40625 C 436.628906 461.667969 430.242188 461.667969 430.242188 457.40625 C 430.242188 453.148438 436.628906 453.148438 436.628906 457.40625 "/>
<path style=" stroke:none;fill-rule:nonzero;fill:rgb(100%,84.3%,0%);fill-opacity:1;" d="M 443.65625 58.636719 C 443.65625 62.894531 437.269531 62.894531 437.269531 58.636719 C 437.269531 54.375 443.65625 54.375 443.65625 58.636719 "/>
<path style=" stroke:none;fill-rule:nonzero;fill:rgb(100%,84.3%,0%);fill-opacity:1;" d="M 229.046875 462.945312 C 229.046875 467.203125 222.660156 467.203125 222.660156 462.945312 C 222.660156 458.6875 229.046875 458.6875 229.046875 462.945312 "/>
<path style=" stroke:none;fill-rule:nonzero;fill:rgb(100%,84.3%,0%);fill-opacity:1;" d="M 438.117188 189.574219 C 438.117188 193.832031 431.730469 193.832031 431.730469 189.574219 C 431.730469 185.316406 438.117188 185.316406 438.117188 189.574219 "/>
<path style=" stroke:none;fill-rule:nonzero;fill:rgb(100%,84.3%,0%);fill-opacity:1;" d="M 130.042969 54.59375 C 130.042969 58.851562 123.65625 58.851562 123.65625 54.59375 C 123.65625 50.332031 130.042969 50.332031 130.042969 54.59375 "/>
<path style=" stroke:none;fill-rule:nonzero;fill:rgb(100%,84.3%,0%);fill-opacity:1;" d="M 443.65625 218.316406 C 443.65625 222.574219 437.269531 222.574219 437.269531 218.316406 C 437.269531 214.058594 443.65625 214.058594 443.65625 218.316406 "/>
<path style=" stroke:none;fill-rule:nonzero;fill:rgb(100%,84.3%,0%);fill-opacity:1;" d="M 50.203125 462.945312 C 50.203125 467.203125 43.816406 467.203125 43.816406 462.945312 C 43.816406 458.6875 50.203125 458.6875 50.203125 462.945312 "/>
<path style=" stroke:none;fill-rule:nonzero;fill:rgb(100%,84.3%,0%);fill-opacity:1;" d="M 432.582031 243.863281 C 432.582031 248.121094 426.195312 248.121094 426.195312 243.863281 C 426.195312 239.605469 432.582031 239.605469 432.582031 243.863281 "/>
<path style=" stroke:none;fill-rule:nonzero;fill:rgb(100%,84.3%,0%);fill-opacity:1;" d="M 75.753906 451.871094 C 75.753906 456.128906 69.367188 456.128906 69.367188 451.871094 C 69.367188 447.613281 75.753906 447.613281 75.753906 451.871094 "/>
<path style=" stroke:none;fill-rule:nonzero;fill:rgb(100%,84.3%,0%);fill-opacity:1;" d="M 438.117188 247.058594 C 438.117188 251.316406 431.730469 251.316406 431.730469 247.058594 C 431.730469 242.800781 438.117188 242.800781 438.117188 247.058594 "/>
<path style=" stroke:none;fill-rule:nonzero;fill:rgb(100%,84.3%,0%);fill-opacity:1;" d="M 123.65625 54.59375 C 123.65625 58.851562 117.269531 58.851562 117.269531 54.59375 C 117.269531 50.332031 123.65625 50.332031 123.65625 54.59375 "/>
<path style=" stroke:none;fill-rule:nonzero;fill:rgb(100%,84.3%,0%);fill-opacity:1;" d="M 101.300781 451.871094 C 101.300781 456.128906 94.914062 456.128906 94.914062 451.871094 C 94.914062 447.613281 101.300781 447.613281 101.300781 451.871094 "/>
<path style=" stroke:none;fill-rule:nonzero;fill:rgb(100%,84.3%,0%);fill-opacity:1;" d="M 443.65625 403.546875 C 443.65625 407.804688 437.269531 407.804688 437.269531 403.546875 C 437.269531 399.285156 443.65625 399.285156 443.65625 403.546875 "/>
<path style=" stroke:none;fill-rule:nonzero;fill:rgb(100%,84.3%,0%);fill-opacity:1;" d="M 427.042969 215.121094 C 427.042969 219.378906 420.65625 219.378906 420.65625 215.121094 C 420.65625 210.863281 427.042969 210.863281 427.042969 215.121094 "/>
<path style=" stroke:none;fill-rule:nonzero;fill:rgb(100%,84.3%,0%);fill-opacity:1;" d="M 94.914062 451.871094 C 94.914062 456.128906 88.527344 456.128906 88.527344 451.871094 C 88.527344 447.613281 94.914062 447.613281 94.914062 451.871094 "/>
<path style=" stroke:none;fill-rule:nonzero;fill:rgb(100%,84.3%,0%);fill-opacity:1;" d="M 432.582031 231.089844 C 432.582031 235.347656 426.195312 235.347656 426.195312 231.089844 C 426.195312 226.832031 432.582031 226.832031 432.582031 231.089844 "/>
<path style=" stroke:none;fill-rule:nonzero;fill:rgb(100%,84.3%,0%);fill-opacity:1;" d="M 443.65625 237.476562 C 443.65625 241.734375 437.269531 241.734375 437.269531 237.476562 C 437.269531 233.21875 443.65625 233.21875 443.65625 237.476562 "/>
<path style=" stroke:none;fill-rule:nonzero;fill:rgb(100%,84.3%,0%);fill-opacity:1;" d="M 443.65625 371.609375 C 443.65625 375.867188 437.269531 375.867188 437.269531 371.609375 C 437.269531 367.351562 443.65625 367.351562 443.65625 371.609375 "/>
<path style=" stroke:none;fill-rule:nonzero;fill:rgb(100%,84.3%,0%);fill-opacity:1;" d="M 427.042969 151.25 C 427.042969 155.507812 420.65625 155.507812 420.65625 151.25 C 420.65625 146.992188 427.042969 146.992188 427.042969 151.25 "/>
<path style=" stroke:none;fill-rule:nonzero;fill:rgb(100%,84.3%,0%);fill-opacity:1;" d="M 59.785156 457.40625 C 59.785156 461.667969 53.398438 461.667969 53.398438 457.40625 C 53.398438 453.148438 59.785156 453.148438 59.785156 457.40625 "/>
<path style=" stroke:none;fill-rule:nonzero;fill:rgb(100%,84.3%,0%);fill-opacity:1;" d="M 438.117188 100.152344 C 438.117188 104.410156 431.730469 104.410156 431.730469 100.152344 C 431.730469 95.894531 438.117188 95.894531 438.117188 100.152344 "/>
<path style=" stroke:none;fill-rule:nonzero;fill:rgb(100%,84.3%,0%);fill-opacity:1;" d="M 443.65625 397.15625 C 443.65625 401.417969 437.269531 401.417969 437.269531 397.15625 C 437.269531 392.898438 443.65625 392.898438 443.65625 397.15625 "/>
<path style=" stroke:none;fill-rule:nonzero;fill:rgb(100%,84.3%,0%);fill-opacity:1;" d="M 55.742188 87.378906 C 55.742188 91.636719 49.355469 91.636719 49.355469 87.378906 C 49.355469 83.117188 55.742188 83.117188 55.742188 87.378906 "/>
<path style=" stroke:none;fill-rule:nonzero;fill:rgb(100%,84.3%,0%);fill-opacity:1;" d="M 78.945312 457.40625 C 78.945312 461.667969 72.558594 461.667969 72.558594 457.40625 C 72.558594 453.148438 78.945312 453.148438 78.945312 457.40625 "/>
<path style=" stroke:none;fill-rule:nonzero;fill:rgb(100%,84.3%,0%);fill-opacity:1;" d="M 50.203125 454.644531 C 50.203125 458.902344 43.816406 458.902344 43.816406 454.644531 C 43.816406 450.386719 50.203125 450.386719 50.203125 454.644531 "/>
<path style=" stroke:none;fill-rule:nonzero;fill:rgb(100%,84.3%,0%);fill-opacity:1;" d="M 443.65625 390.769531 C 443.65625 395.027344 437.269531 395.027344 437.269531 390.769531 C 437.269531 386.511719 443.65625 386.511719 443.65625 390.769531 "/>
<path style=" stroke:none;fill-rule:nonzero;fill:rgb(100%,84.3%,0%);fill-opacity:1;" d="M 117.269531 457.40625 C 117.269531 461.667969 110.882812 461.667969 110.882812 457.40625 C 110.882812 453.148438 117.269531 453.148438 117.269531 457.40625 "/>
<path style=" stroke:none;fill-rule:nonzero;fill:rgb(100%,84.3%,0%);fill-opacity:1;" d="M 438.117188 112.925781 C 438.117188 117.183594 431.730469 117.183594 431.730469 112.925781 C 431.730469 108.667969 438.117188 108.667969 438.117188 112.925781 "/>
<path style=" stroke:none;fill-rule:nonzero;fill:rgb(100%,84.3%,0%);fill-opacity:1;" d="M 438.117188 119.3125 C 438.117188 123.570312 431.730469 123.570312 431.730469 119.3125 C 431.730469 115.054688 438.117188 115.054688 438.117188 119.3125 "/>
<path style=" stroke:none;fill-rule:nonzero;fill:rgb(100%,84.3%,0%);fill-opacity:1;" d="M 438.117188 125.699219 C 438.117188 129.960938 431.730469 129.960938 431.730469 125.699219 C 431.730469 121.441406 438.117188 121.441406 438.117188 125.699219 "/>
<path style=" stroke:none;fill-rule:nonzero;fill:rgb(100%,84.3%,0%);fill-opacity:1;" d="M 438.117188 387.578125 C 438.117188 391.835938 431.730469 391.835938 431.730469 387.578125 C 431.730469 383.320312 438.117188 383.320312 438.117188 387.578125 "/>
<path style=" stroke:none;fill-rule:nonzero;fill:rgb(100%,84.3%,0%);fill-opacity:1;" d="M 55.742188 132.089844 C 55.742188 136.347656 49.355469 136.347656 49.355469 132.089844 C 49.355469 127.828125 55.742188 127.828125 55.742188 132.089844 "/>
<path style=" stroke:none;fill-rule:nonzero;fill:rgb(100%,84.3%,0%);fill-opacity:1;" d="M 438.117188 132.089844 C 438.117188 136.347656 431.730469 136.347656 431.730469 132.089844 C 431.730469 127.828125 438.117188 127.828125 438.117188 132.089844 "/>
<path style=" stroke:none;fill-rule:nonzero;fill:rgb(100%,84.3%,0%);fill-opacity:1;" d="M 55.742188 106.539062 C 55.742188 110.796875 49.355469 110.796875 49.355469 106.539062 C 49.355469 102.28125 55.742188 102.28125 55.742188 106.539062 "/>
<path style=" stroke:none;fill-rule:nonzero;fill:rgb(100%,84.3%,0%);fill-opacity:1;" d="M 50.203125 179.992188 C 50.203125 184.25 43.816406 184.25 43.816406 179.992188 C 43.816406 175.734375 50.203125 175.734375 50.203125 179.992188 "/>
<path style=" stroke:none;fill-rule:nonzero;fill:rgb(100%,84.3%,0%);fill-opacity:1;" d="M 438.117188 406.738281 C 438.117188 410.996094 431.730469 410.996094 431.730469 406.738281 C 431.730469 402.480469 438.117188 402.480469 438.117188 406.738281 "/>
<path style=" stroke:none;fill-rule:nonzero;fill:rgb(100%,84.3%,0%);fill-opacity:1;" d="M 438.117188 151.25 C 438.117188 155.507812 431.730469 155.507812 431.730469 151.25 C 431.730469 146.992188 438.117188 146.992188 438.117188 151.25 "/>
<path style=" stroke:none;fill-rule:nonzero;fill:rgb(100%,84.3%,0%);fill-opacity:1;" d="M 55.742188 125.699219 C 55.742188 129.960938 49.355469 129.960938 49.355469 125.699219 C 49.355469 121.441406 55.742188 121.441406 55.742188 125.699219 "/>
<path style=" stroke:none;fill-rule:nonzero;fill:rgb(100%,84.3%,0%);fill-opacity:1;" d="M 438.117188 138.476562 C 438.117188 142.734375 431.730469 142.734375 431.730469 138.476562 C 431.730469 134.21875 438.117188 134.21875 438.117188 138.476562 "/>
<path style=" stroke:none;fill-rule:nonzero;fill:rgb(100%,84.3%,0%);fill-opacity:1;" d="M 432.582031 422.707031 C 432.582031 426.964844 426.195312 426.964844 426.195312 422.707031 C 426.195312 418.449219 432.582031 418.449219 432.582031 422.707031 "/>
<path style=" stroke:none;fill-rule:nonzero;fill:rgb(100%,84.3%,0%);fill-opacity:1;" d="M 55.742188 112.925781 C 55.742188 117.183594 49.355469 117.183594 49.355469 112.925781 C 49.355469 108.667969 55.742188 108.667969 55.742188 112.925781 "/>
<path style=" stroke:none;fill-rule:nonzero;fill:rgb(100%,84.3%,0%);fill-opacity:1;" d="M 55.742188 119.3125 C 55.742188 123.570312 49.355469 123.570312 49.355469 119.3125 C 49.355469 115.054688 55.742188 115.054688 55.742188 119.3125 "/>
<path style=" stroke:none;fill-rule:nonzero;fill:rgb(100%,84.3%,0%);fill-opacity:1;" d="M 110.882812 54.59375 C 110.882812 58.851562 104.496094 58.851562 104.496094 54.59375 C 104.496094 50.332031 110.882812 50.332031 110.882812 54.59375 "/>
<path style=" stroke:none;fill-rule:nonzero;fill:rgb(100%,84.3%,0%);fill-opacity:1;" d="M 130.042969 457.40625 C 130.042969 461.667969 123.65625 461.667969 123.65625 457.40625 C 123.65625 453.148438 130.042969 453.148438 130.042969 457.40625 "/>
<path style=" stroke:none;fill-rule:nonzero;fill:rgb(100%,84.3%,0%);fill-opacity:1;" d="M 155.59375 457.40625 C 155.59375 461.667969 149.207031 461.667969 149.207031 457.40625 C 149.207031 453.148438 155.59375 453.148438 155.59375 457.40625 "/>
<path style=" stroke:none;fill-rule:nonzero;fill:rgb(100%,84.3%,0%);fill-opacity:1;" d="M 107.6875 451.871094 C 107.6875 456.128906 101.300781 456.128906 101.300781 451.871094 C 101.300781 447.613281 107.6875 447.613281 107.6875 451.871094 "/>
<path style=" stroke:none;fill-rule:nonzero;fill:rgb(100%,84.3%,0%);fill-opacity:1;" d="M 75.753906 60.128906 C 75.753906 64.386719 69.367188 64.386719 69.367188 60.128906 C 69.367188 55.871094 75.753906 55.871094 75.753906 60.128906 "/>
<path style=" stroke:none;fill-rule:nonzero;fill:rgb(100%,84.3%,0%);fill-opacity:1;" d="M 443.65625 205.539062 C 443.65625 209.800781 437.269531 209.800781 437.269531 205.539062 C 437.269531 201.28125 443.65625 201.28125 443.65625 205.539062 "/>
<path style=" stroke:none;fill-rule:nonzero;fill:rgb(100%,84.3%,0%);fill-opacity:1;" d="M 55.742188 68.214844 C 55.742188 72.472656 49.355469 72.472656 49.355469 68.214844 C 49.355469 63.957031 55.742188 63.957031 55.742188 68.214844 "/>
<path style=" stroke:none;fill-rule:nonzero;fill:rgb(100%,84.3%,0%);fill-opacity:1;" d="M 55.742188 80.988281 C 55.742188 85.25 49.355469 85.25 49.355469 80.988281 C 49.355469 76.730469 55.742188 76.730469 55.742188 80.988281 "/>
<path style=" stroke:none;fill-rule:nonzero;fill:rgb(100%,84.3%,0%);fill-opacity:1;" d="M 438.117188 393.964844 C 438.117188 398.222656 431.730469 398.222656 431.730469 393.964844 C 431.730469 389.707031 438.117188 389.707031 438.117188 393.964844 "/>
<path style=" stroke:none;fill-rule:nonzero;fill:rgb(100%,84.3%,0%);fill-opacity:1;" d="M 104.496094 54.59375 C 104.496094 58.851562 98.105469 58.851562 98.105469 54.59375 C 98.105469 50.332031 104.496094 50.332031 104.496094 54.59375 "/>
<path style=" stroke:none;fill-rule:nonzero;fill:rgb(100%,84.3%,0%);fill-opacity:1;" d="M 443.65625 103.34375 C 443.65625 107.601562 437.269531 107.601562 437.269531 103.34375 C 437.269531 99.085938 443.65625 99.085938 443.65625 103.34375 "/>
<path style=" stroke:none;fill-rule:nonzero;fill:rgb(100%,84.3%,0%);fill-opacity:1;" d="M 443.65625 128.894531 C 443.65625 133.152344 437.269531 133.152344 437.269531 128.894531 C 437.269531 124.636719 443.65625 124.636719 443.65625 128.894531 "/>
<path style=" stroke:none;fill-rule:nonzero;fill:rgb(100%,84.3%,0%);fill-opacity:1;" d="M 443.65625 135.28125 C 443.65625 139.539062 437.269531 139.539062 437.269531 135.28125 C 437.269531 131.023438 443.65625 131.023438 443.65625 135.28125 "/>
<path style=" stroke:none;fill-rule:nonzero;fill:rgb(100%,84.3%,0%);fill-opacity:1;" d="M 443.65625 122.507812 C 443.65625 126.765625 437.269531 126.765625 437.269531 122.507812 C 437.269531 118.25 443.65625 118.25 443.65625 122.507812 "/>
<path style=" stroke:none;fill-rule:nonzero;fill:rgb(100%,84.3%,0%);fill-opacity:1;" d="M 443.65625 339.671875 C 443.65625 343.929688 437.269531 343.929688 437.269531 339.671875 C 437.269531 335.414062 443.65625 335.414062 443.65625 339.671875 "/>
<path style=" stroke:none;fill-rule:nonzero;fill:rgb(100%,84.3%,0%);fill-opacity:1;" d="M 432.582031 409.933594 C 432.582031 414.191406 426.195312 414.191406 426.195312 409.933594 C 426.195312 405.675781 432.582031 405.675781 432.582031 409.933594 "/>
<path style=" stroke:none;fill-rule:nonzero;fill:rgb(100%,84.3%,0%);fill-opacity:1;" d="M 438.117188 374.800781 C 438.117188 379.058594 431.730469 379.058594 431.730469 374.800781 C 431.730469 370.542969 438.117188 370.542969 438.117188 374.800781 "/>
<path style=" stroke:none;fill-rule:nonzero;fill:rgb(100%,84.3%,0%);fill-opacity:1;" d="M 55.742188 144.863281 C 55.742188 149.121094 49.355469 149.121094 49.355469 144.863281 C 49.355469 140.605469 55.742188 140.605469 55.742188 144.863281 "/>
<path style=" stroke:none;fill-rule:nonzero;fill:rgb(100%,84.3%,0%);fill-opacity:1;" d="M 50.203125 199.152344 C 50.203125 203.414062 43.816406 203.414062 43.816406 199.152344 C 43.816406 194.894531 50.203125 194.894531 50.203125 199.152344 "/>
<path style=" stroke:none;fill-rule:nonzero;fill:rgb(100%,84.3%,0%);fill-opacity:1;" d="M 66.171875 54.59375 C 66.171875 58.851562 59.785156 58.851562 59.785156 54.59375 C 59.785156 50.332031 66.171875 50.332031 66.171875 54.59375 "/>
<path style=" stroke:none;fill-rule:nonzero;fill:rgb(100%,84.3%,0%);fill-opacity:1;" d="M 438.117188 381.191406 C 438.117188 385.449219 431.730469 385.449219 431.730469 381.191406 C 431.730469 376.933594 438.117188 376.933594 438.117188 381.191406 "/>
<path style=" stroke:none;fill-rule:nonzero;fill:rgb(100%,84.3%,0%);fill-opacity:1;" d="M 50.203125 192.765625 C 50.203125 197.023438 43.816406 197.023438 43.816406 192.765625 C 43.816406 188.507812 50.203125 188.507812 50.203125 192.765625 "/>
<path style=" stroke:none;fill-rule:nonzero;fill:rgb(100%,84.3%,0%);fill-opacity:1;" d="M 443.65625 160.828125 C 443.65625 165.089844 437.269531 165.089844 437.269531 160.828125 C 437.269531 156.570312 443.65625 156.570312 443.65625 160.828125 "/>
<path style=" stroke:none;fill-rule:nonzero;fill:rgb(100%,84.3%,0%);fill-opacity:1;" d="M 50.203125 186.378906 C 50.203125 190.636719 43.816406 190.636719 43.816406 186.378906 C 43.816406 182.121094 50.203125 182.121094 50.203125 186.378906 "/>
<path style=" stroke:none;fill-rule:nonzero;fill:rgb(100%,84.3%,0%);fill-opacity:1;" d="M 438.117188 400.351562 C 438.117188 404.609375 431.730469 404.609375 431.730469 400.351562 C 431.730469 396.09375 438.117188 396.09375 438.117188 400.351562 "/>
<path style=" stroke:none;fill-rule:nonzero;fill:rgb(100%,84.3%,0%);fill-opacity:1;" d="M 55.742188 100.152344 C 55.742188 104.410156 49.355469 104.410156 49.355469 100.152344 C 49.355469 95.894531 55.742188 95.894531 55.742188 100.152344 "/>
<path style=" stroke:none;fill-rule:nonzero;fill:rgb(100%,84.3%,0%);fill-opacity:1;" d="M 142.820312 457.40625 C 142.820312 461.667969 136.429688 461.667969 136.429688 457.40625 C 136.429688 453.148438 142.820312 453.148438 142.820312 457.40625 "/>
<path style=" stroke:none;fill-rule:nonzero;fill:rgb(100%,84.3%,0%);fill-opacity:1;" d="M 50.203125 314.125 C 50.203125 318.382812 43.816406 318.382812 43.816406 314.125 C 43.816406 309.867188 50.203125 309.867188 50.203125 314.125 "/>
<path style=" stroke:none;fill-rule:nonzero;fill:rgb(100%,84.3%,0%);fill-opacity:1;" d="M 181.140625 54.59375 C 181.140625 58.851562 174.753906 58.851562 174.753906 54.59375 C 174.753906 50.332031 181.140625 50.332031 181.140625 54.59375 "/>
<path style=" stroke:none;fill-rule:nonzero;fill:rgb(100%,84.3%,0%);fill-opacity:1;" d="M 443.65625 192.765625 C 443.65625 197.023438 437.269531 197.023438 437.269531 192.765625 C 437.269531 188.507812 443.65625 188.507812 443.65625 192.765625 "/>
<path style=" stroke:none;fill-rule:nonzero;fill:rgb(100%,84.3%,0%);fill-opacity:1;" d="M 123.65625 457.40625 C 123.65625 461.667969 117.269531 461.667969 117.269531 457.40625 C 117.269531 453.148438 123.65625 453.148438 123.65625 457.40625 "/>
<path style=" stroke:none;fill-rule:nonzero;fill:rgb(100%,84.3%,0%);fill-opacity:1;" d="M 438.117188 342.867188 C 438.117188 347.125 431.730469 347.125 431.730469 342.867188 C 431.730469 338.609375 438.117188 338.609375 438.117188 342.867188 "/>
<path style=" stroke:none;fill-rule:nonzero;fill:rgb(100%,84.3%,0%);fill-opacity:1;" d="M 432.582031 205.539062 C 432.582031 209.800781 426.195312 209.800781 426.195312 205.539062 C 426.195312 201.28125 432.582031 201.28125 432.582031 205.539062 "/>
<path style=" stroke:none;fill-rule:nonzero;fill:rgb(100%,84.3%,0%);fill-opacity:1;" d="M 438.117188 221.507812 C 438.117188 225.765625 431.730469 225.765625 431.730469 221.507812 C 431.730469 217.25 438.117188 217.25 438.117188 221.507812 "/>
<path style=" stroke:none;fill-rule:nonzero;fill:rgb(100%,84.3%,0%);fill-opacity:1;" d="M 432.582031 416.320312 C 432.582031 420.578125 426.195312 420.578125 426.195312 416.320312 C 426.195312 412.0625 432.582031 412.0625 432.582031 416.320312 "/>
<path style=" stroke:none;fill-rule:nonzero;fill:rgb(100%,84.3%,0%);fill-opacity:1;" d="M 432.582031 384.382812 C 432.582031 388.640625 426.195312 388.640625 426.195312 384.382812 C 426.195312 380.125 432.582031 380.125 432.582031 384.382812 "/>
<path style=" stroke:none;fill-rule:nonzero;fill:rgb(100%,84.3%,0%);fill-opacity:1;" d="M 438.117188 419.511719 C 438.117188 423.769531 431.730469 423.769531 431.730469 419.511719 C 431.730469 415.253906 438.117188 415.253906 438.117188 419.511719 "/>
<path style=" stroke:none;fill-rule:nonzero;fill:rgb(100%,84.3%,0%);fill-opacity:1;" d="M 432.582031 199.152344 C 432.582031 203.414062 426.195312 203.414062 426.195312 199.152344 C 426.195312 194.894531 432.582031 194.894531 432.582031 199.152344 "/>
<path style=" stroke:none;fill-rule:nonzero;fill:rgb(100%,84.3%,0%);fill-opacity:1;" d="M 443.65625 346.058594 C 443.65625 350.316406 437.269531 350.316406 437.269531 346.058594 C 437.269531 341.800781 443.65625 341.800781 443.65625 346.058594 "/>
<path style=" stroke:none;fill-rule:nonzero;fill:rgb(100%,84.3%,0%);fill-opacity:1;" d="M 443.65625 377.996094 C 443.65625 382.253906 437.269531 382.253906 437.269531 377.996094 C 437.269531 373.738281 443.65625 373.738281 443.65625 377.996094 "/>
<path style=" stroke:none;fill-rule:nonzero;fill:rgb(100%,84.3%,0%);fill-opacity:1;" d="M 91.71875 457.40625 C 91.71875 461.667969 85.332031 461.667969 85.332031 457.40625 C 85.332031 453.148438 91.71875 453.148438 91.71875 457.40625 "/>
<path style=" stroke:none;fill-rule:nonzero;fill:rgb(100%,84.3%,0%);fill-opacity:1;" d="M 62.976562 60.128906 C 62.976562 64.386719 56.589844 64.386719 56.589844 60.128906 C 56.589844 55.871094 62.976562 55.871094 62.976562 60.128906 "/>
<path style=" stroke:none;fill-rule:nonzero;fill:rgb(100%,84.3%,0%);fill-opacity:1;" d="M 432.582031 167.21875 C 432.582031 171.476562 426.195312 171.476562 426.195312 167.21875 C 426.195312 162.960938 432.582031 162.960938 432.582031 167.21875 "/>
<path style=" stroke:none;fill-rule:nonzero;fill:rgb(100%,84.3%,0%);fill-opacity:1;" d="M 432.582031 160.828125 C 432.582031 165.089844 426.195312 165.089844 426.195312 160.828125 C 426.195312 156.570312 432.582031 156.570312 432.582031 160.828125 "/>
<path style=" stroke:none;fill-rule:nonzero;fill:rgb(100%,84.3%,0%);fill-opacity:1;" d="M 432.582031 154.441406 C 432.582031 158.699219 426.195312 158.699219 426.195312 154.441406 C 426.195312 150.183594 432.582031 150.183594 432.582031 154.441406 "/>
<path style=" stroke:none;fill-rule:nonzero;fill:rgb(100%,84.3%,0%);fill-opacity:1;" d="M 438.117188 425.898438 C 438.117188 430.15625 431.730469 430.15625 431.730469 425.898438 C 431.730469 421.640625 438.117188 421.640625 438.117188 425.898438 "/>
<path style=" stroke:none;fill-rule:nonzero;fill:rgb(100%,84.3%,0%);fill-opacity:1;" d="M 432.582031 122.507812 C 432.582031 126.765625 426.195312 126.765625 426.195312 122.507812 C 426.195312 118.25 432.582031 118.25 432.582031 122.507812 "/>
<path style=" stroke:none;fill-rule:nonzero;fill:rgb(100%,84.3%,0%);fill-opacity:1;" d="M 136.429688 457.40625 C 136.429688 461.667969 130.042969 461.667969 130.042969 457.40625 C 130.042969 453.148438 136.429688 453.148438 136.429688 457.40625 "/>
<path style=" stroke:none;fill-rule:nonzero;fill:rgb(100%,84.3%,0%);fill-opacity:1;" d="M 432.582031 173.605469 C 432.582031 177.863281 426.195312 177.863281 426.195312 173.605469 C 426.195312 169.347656 432.582031 169.347656 432.582031 173.605469 "/>
<path style=" stroke:none;fill-rule:nonzero;fill:rgb(100%,84.3%,0%);fill-opacity:1;" d="M 50.203125 333.285156 C 50.203125 337.542969 43.816406 337.542969 43.816406 333.285156 C 43.816406 329.027344 50.203125 329.027344 50.203125 333.285156 "/>
<path style=" stroke:none;fill-rule:nonzero;fill:rgb(100%,84.3%,0%);fill-opacity:1;" d="M 235.433594 462.945312 C 235.433594 467.203125 229.046875 467.203125 229.046875 462.945312 C 229.046875 458.6875 235.433594 458.6875 235.433594 462.945312 "/>
<path style=" stroke:none;fill-rule:nonzero;fill:rgb(100%,84.3%,0%);fill-opacity:1;" d="M 443.65625 256.640625 C 443.65625 260.898438 437.269531 260.898438 437.269531 256.640625 C 437.269531 252.378906 443.65625 252.378906 443.65625 256.640625 "/>
<path style=" stroke:none;fill-rule:nonzero;fill:rgb(100%,84.3%,0%);fill-opacity:1;" d="M 427.042969 164.023438 C 427.042969 168.28125 420.65625 168.28125 420.65625 164.023438 C 420.65625 159.765625 427.042969 159.765625 427.042969 164.023438 "/>
<path style=" stroke:none;fill-rule:nonzero;fill:rgb(100%,84.3%,0%);fill-opacity:1;" d="M 438.117188 445.0625 C 438.117188 449.320312 431.730469 449.320312 431.730469 445.0625 C 431.730469 440.804688 438.117188 440.804688 438.117188 445.0625 "/>
<path style=" stroke:none;fill-rule:nonzero;fill:rgb(100%,84.3%,0%);fill-opacity:1;" d="M 432.582031 192.765625 C 432.582031 197.023438 426.195312 197.023438 426.195312 192.765625 C 426.195312 188.507812 432.582031 188.507812 432.582031 192.765625 "/>
<path style=" stroke:none;fill-rule:nonzero;fill:rgb(100%,84.3%,0%);fill-opacity:1;" d="M 427.042969 183.1875 C 427.042969 187.445312 420.65625 187.445312 420.65625 183.1875 C 420.65625 178.929688 427.042969 178.929688 427.042969 183.1875 "/>
<path style=" stroke:none;fill-rule:nonzero;fill:rgb(100%,84.3%,0%);fill-opacity:1;" d="M 438.117188 438.675781 C 438.117188 442.933594 431.730469 442.933594 431.730469 438.675781 C 431.730469 434.417969 438.117188 434.417969 438.117188 438.675781 "/>
<path style=" stroke:none;fill-rule:nonzero;fill:rgb(100%,84.3%,0%);fill-opacity:1;" d="M 85.332031 54.59375 C 85.332031 58.851562 78.945312 58.851562 78.945312 54.59375 C 78.945312 50.332031 85.332031 50.332031 85.332031 54.59375 "/>
<path style=" stroke:none;fill-rule:nonzero;fill:rgb(100%,84.3%,0%);fill-opacity:1;" d="M 438.117188 432.285156 C 438.117188 436.546875 431.730469 436.546875 431.730469 432.285156 C 431.730469 428.027344 438.117188 428.027344 438.117188 432.285156 "/>
<path style=" stroke:none;fill-rule:nonzero;fill:rgb(100%,84.3%,0%);fill-opacity:1;" d="M 443.65625 224.703125 C 443.65625 228.960938 437.269531 228.960938 437.269531 224.703125 C 437.269531 220.445312 443.65625 220.445312 443.65625 224.703125 "/>
<path style=" stroke:none;fill-rule:nonzero;fill:rgb(100%,84.3%,0%);fill-opacity:1;" d="M 427.042969 202.347656 C 427.042969 206.605469 420.65625 206.605469 420.65625 202.347656 C 420.65625 198.089844 427.042969 198.089844 427.042969 202.347656 "/>
<path style=" stroke:none;fill-rule:nonzero;fill:rgb(100%,84.3%,0%);fill-opacity:1;" d="M 443.65625 384.382812 C 443.65625 388.640625 437.269531 388.640625 437.269531 384.382812 C 437.269531 380.125 443.65625 380.125 443.65625 384.382812 "/>
<path style=" stroke:none;fill-rule:nonzero;fill:rgb(100%,84.3%,0%);fill-opacity:1;" d="M 55.742188 151.25 C 55.742188 155.507812 49.355469 155.507812 49.355469 151.25 C 49.355469 146.992188 55.742188 146.992188 55.742188 151.25 "/>
<path style=" stroke:none;fill-rule:nonzero;fill:rgb(100%,84.3%,0%);fill-opacity:1;" d="M 59.785156 54.59375 C 59.785156 58.851562 53.398438 58.851562 53.398438 54.59375 C 53.398438 50.332031 59.785156 50.332031 59.785156 54.59375 "/>
<path style=" stroke:none;fill-rule:nonzero;fill:rgb(100%,84.3%,0%);fill-opacity:1;" d="M 78.945312 54.59375 C 78.945312 58.851562 72.558594 58.851562 72.558594 54.59375 C 72.558594 50.332031 78.945312 50.332031 78.945312 54.59375 "/>
<path style=" stroke:none;fill-rule:nonzero;fill:rgb(100%,84.3%,0%);fill-opacity:1;" d="M 69.367188 60.128906 C 69.367188 64.386719 62.976562 64.386719 62.976562 60.128906 C 62.976562 55.871094 69.367188 55.871094 69.367188 60.128906 "/>
<path style=" stroke:none;fill-rule:nonzero;fill:rgb(100%,84.3%,0%);fill-opacity:1;" d="M 438.117188 413.125 C 438.117188 417.382812 431.730469 417.382812 431.730469 413.125 C 431.730469 408.867188 438.117188 408.867188 438.117188 413.125 "/>
<path style=" stroke:none;fill-rule:nonzero;fill:rgb(100%,84.3%,0%);fill-opacity:1;" d="M 126.851562 451.871094 C 126.851562 456.128906 120.464844 456.128906 120.464844 451.871094 C 120.464844 447.613281 126.851562 447.613281 126.851562 451.871094 "/>
</g>
</svg>
