<?xml version="1.0" encoding="UTF-8"?>
<svg xmlns="http://www.w3.org/2000/svg" xmlns:xlink="http://www.w3.org/1999/xlink" width="512pt" height="512pt" viewBox="0 0 512 512" version="1.1">
<g id="surface291">
<path style=" stroke:none;fill-rule:nonzero;fill:rgb(26.7%,26.7%,26.7%);fill-opacity:1;" d="M 0 221.867188 L 512 221.867188 L 512 290.132812 L 0 290.132812 Z M 0 221.867188 "/>
<path style=" stroke:none;fill-rule:nonzero;fill:rgb(19.2%,38.8%,66.7%);fill-opacity:1;" d="M 42.667969 227.554688 L 469.332031 227.554688 L 469.332031 284.441406 L 42.667969 284.441406 Z M 42.667969 227.554688 "/>
<path style=" stroke:none;fill-rule:nonzero;fill:rgb(90.6%,14.9%,14.9%);fill-opacity:1;" d="M 166.230469 324.722656 C 166.230469 328.996094 162.765625 332.457031 158.492188 332.457031 C 154.21875 332.457031 150.753906 328.996094 150.753906 324.722656 C 150.753906 320.449219 154.21875 316.984375 158.492188 316.984375 C 162.765625 316.984375 166.230469 320.449219 166.230469 324.722656 "/>
<path style=" stroke:none;fill-rule:nonzero;fill:rgb(90.6%,14.9%,14.9%);fill-opacity:1;" d="M 451.355469 68.039062 C 451.355469 76.585938 444.429688 83.511719 435.882812 83.511719 C 427.335938 83.511719 420.410156 76.585938 420.410156 68.039062 C 420.410156 59.492188 427.335938 52.566406 435.882812 52.566406 C 444.429688 52.566406 451.355469 59.492188 451.355469 68.039062 "/>
<path style=" stroke:none;fill-rule:nonzero;fill:rgb(90.6%,14.9%,14.9%);fill-opacity:1;" d="M 506.878906 517.6875 C 506.878906 524.476562 501.378906 529.976562 494.59375 529.976562 C 487.804688 529.976562 482.304688 524.476562 482.304688 517.6875 C 482.304688 510.902344 487.804688 505.402344 494.59375 505.402344 C 501.378906 505.402344 506.878906 510.902344 506.878906 517.6875 "/>
<path style=" stroke:none;fill-rule:nonzero;fill:rgb(90.6%,14.9%,14.9%);fill-opacity:1;" d="M 259.980469 380.472656 C 259.980469 385.933594 251.789062 385.933594 251.789062 380.472656 C 251.789062 375.011719 259.980469 375.011719 259.980469 380.472656 "/>
<path style=" stroke:none;fill-rule:nonzero;fill:rgb(100%,100%,100%);fill-opacity:1;" d="M 332.800781 409.601562 C 332.800781 411.117188 330.523438 411.117188 330.523438 409.601562 C 330.523438 408.082031 332.800781 408.082031 332.800781 409.601562 "/>
<path style=" stroke:none;fill-rule:nonzero;fill:rgb(100%,100%,100%);fill-opacity:1;" d="M 267.492188 123.109375 C 267.492188 124.625 265.214844 124.625 265.214844 123.109375 C 265.214844 121.589844 267.492188 121.589844 267.492188 123.109375 "/>
<path style=" stroke:none;fill-rule:nonzero;fill:rgb(100%,100%,100%);fill-opacity:1;" d="M 403.339844 411.191406 C 403.339844 412.710938 401.066406 412.710938 401.066406 411.191406 C 401.066406 409.675781 403.339844 409.675781 403.339844 411.191406 "/>
<path style=" stroke:none;fill-rule:nonzero;fill:rgb(100%,100%,100%);fill-opacity:1;" d="M 230.171875 15.019531 C 230.171875 16.535156 227.898438 16.535156 227.898438 15.019531 C 227.898438 13.503906 230.171875 13.503906 230.171875 15.019531 "/>
<path style=" stroke:none;fill-rule:nonzero;fill:rgb(100%,100%,100%);fill-opacity:1;" d="M 229.71875 375.46875 C 229.71875 376.984375 227.441406 376.984375 227.441406 375.46875 C 227.441406 373.949219 229.71875 373.949219 229.71875 375.46875 "/>
<path style=" stroke:none;fill-rule:nonzero;fill:rgb(100%,100%,100%);fill-opacity:1;" d="M 504.605469 244.851562 C 504.605469 246.367188 502.328125 246.367188 502.328125 244.851562 C 502.328125 243.332031 504.605469 243.332031 504.605469 244.851562 "/>
<path style=" stroke:none;fill-rule:nonzero;fill:rgb(100%,100%,100%);fill-opacity:1;" d="M 322.789062 168.847656 C 322.789062 170.363281 320.511719 170.363281 320.511719 168.847656 C 320.511719 167.328125 322.789062 167.328125 322.789062 168.847656 "/>
<path style=" stroke:none;fill-rule:nonzero;fill:rgb(100%,100%,100%);fill-opacity:1;" d="M 142.109375 17.976562 C 142.109375 19.492188 139.832031 19.492188 139.832031 17.976562 C 139.832031 16.460938 142.109375 16.460938 142.109375 17.976562 "/>
<path style=" stroke:none;fill-rule:nonzero;fill:rgb(100%,100%,100%);fill-opacity:1;" d="M 191.714844 176.355469 C 191.714844 177.871094 189.441406 177.871094 189.441406 176.355469 C 189.441406 174.839844 191.714844 174.839844 191.714844 176.355469 "/>
<path style=" stroke:none;fill-rule:nonzero;fill:rgb(100%,100%,100%);fill-opacity:1;" d="M 84.082031 493.339844 C 84.082031 494.855469 81.804688 494.855469 81.804688 493.339844 C 81.804688 491.824219 84.082031 491.824219 84.082031 493.339844 "/>
<path style=" stroke:none;fill-rule:nonzero;fill:rgb(100%,100%,100%);fill-opacity:1;" d="M 58.140625 91.703125 C 58.140625 93.222656 55.863281 93.222656 55.863281 91.703125 C 55.863281 90.1875 58.140625 90.1875 58.140625 91.703125 "/>
<path style=" stroke:none;fill-rule:nonzero;fill:rgb(100%,100%,100%);fill-opacity:1;" d="M 43.121094 162.476562 C 43.121094 163.992188 40.847656 163.992188 40.847656 162.476562 C 40.847656 160.957031 43.121094 160.957031 43.121094 162.476562 "/>
<path style=" stroke:none;fill-rule:nonzero;fill:rgb(100%,100%,100%);fill-opacity:1;" d="M 215.152344 134.714844 C 215.152344 136.230469 212.878906 136.230469 212.878906 134.714844 C 212.878906 133.195312 215.152344 133.195312 215.152344 134.714844 "/>
<path style=" stroke:none;fill-rule:nonzero;fill:rgb(100%,100%,100%);fill-opacity:1;" d="M 428.601562 104.449219 C 428.601562 105.964844 426.324219 105.964844 426.324219 104.449219 C 426.324219 102.929688 428.601562 102.929688 428.601562 104.449219 "/>
<path style=" stroke:none;fill-rule:nonzero;fill:rgb(100%,100%,100%);fill-opacity:1;" d="M 434.0625 208.441406 C 434.0625 209.957031 431.785156 209.957031 431.785156 208.441406 C 431.785156 206.925781 434.0625 206.925781 434.0625 208.441406 "/>
<path style=" stroke:none;fill-rule:nonzero;fill:rgb(100%,100%,100%);fill-opacity:1;" d="M 451.355469 481.28125 C 451.355469 482.796875 449.082031 482.796875 449.082031 481.28125 C 449.082031 479.761719 451.355469 479.761719 451.355469 481.28125 "/>
<path style=" stroke:none;fill-rule:nonzero;fill:rgb(100%,100%,100%);fill-opacity:1;" d="M 5.347656 238.023438 C 5.347656 239.539062 3.070312 239.539062 3.070312 238.023438 C 3.070312 236.507812 5.347656 236.507812 5.347656 238.023438 "/>
<path style=" stroke:none;fill-rule:nonzero;fill:rgb(100%,100%,100%);fill-opacity:1;" d="M 143.929688 330.867188 C 143.929688 332.382812 141.652344 332.382812 141.652344 330.867188 C 141.652344 329.347656 143.929688 329.347656 143.929688 330.867188 "/>
<path style=" stroke:none;fill-rule:nonzero;fill:rgb(100%,100%,100%);fill-opacity:1;" d="M 117.078125 370.6875 C 117.078125 372.203125 114.800781 372.203125 114.800781 370.6875 C 114.800781 369.171875 117.078125 369.171875 117.078125 370.6875 "/>
<path style=" stroke:none;fill-rule:nonzero;fill:rgb(100%,100%,100%);fill-opacity:1;" d="M 327.566406 158.378906 C 327.566406 159.894531 325.289062 159.894531 325.289062 158.378906 C 325.289062 156.863281 327.566406 156.863281 327.566406 158.378906 "/>
<path style=" stroke:none;fill-rule:nonzero;fill:rgb(100%,100%,100%);fill-opacity:1;" d="M 158.265625 10.695312 C 158.265625 12.210938 155.988281 12.210938 155.988281 10.695312 C 155.988281 9.179688 158.265625 9.179688 158.265625 10.695312 "/>
<path style=" stroke:none;fill-rule:nonzero;fill:rgb(100%,100%,100%);fill-opacity:1;" d="M 375.351562 42.554688 C 375.351562 44.070312 373.078125 44.070312 373.078125 42.554688 C 373.078125 41.035156 375.351562 41.035156 375.351562 42.554688 "/>
<path style=" stroke:none;fill-rule:nonzero;fill:rgb(100%,84.3%,0%);fill-opacity:1;" d="M 46.078125 241.210938 C 46.078125 242.726562 43.804688 242.726562 43.804688 241.210938 C 43.804688 239.691406 46.078125 239.691406 46.078125 241.210938 "/>
<path style=" stroke:none;fill-rule:nonzero;fill:rgb(100%,84.3%,0%);fill-opacity:1;" d="M 221.980469 229.832031 C 221.980469 231.347656 219.707031 231.347656 219.707031 229.832031 C 219.707031 228.3125 221.980469 228.3125 221.980469 229.832031 "/>
<path style=" stroke:none;fill-rule:nonzero;fill:rgb(100%,84.3%,0%);fill-opacity:1;" d="M 415.402344 229.832031 C 415.402344 231.347656 413.128906 231.347656 413.128906 229.832031 C 413.128906 228.3125 415.402344 228.3125 415.402344 229.832031 "/>
<path style=" stroke:none;fill-rule:nonzero;fill:rgb(100%,84.3%,0%);fill-opacity:1;" d="M 435.882812 229.832031 C 435.882812 231.347656 433.605469 231.347656 433.605469 229.832031 C 433.605469 228.3125 435.882812 228.3125 435.882812 229.832031 "/>
<path style=" stroke:none;fill-rule:nonzero;fill:rgb(100%,84.3%,0%);fill-opacity:1;" d="M 142.335938 282.167969 C 142.335938 283.6875 140.058594 283.6875 140.058594 282.167969 C 140.058594 280.652344 142.335938 280.652344 142.335938 282.167969 "/>
<path style=" stroke:none;fill-rule:nonzero;fill:rgb(100%,84.3%,0%);fill-opacity:1;" d="M 454.085938 229.832031 C 454.085938 231.347656 451.8125 231.347656 451.8125 229.832031 C 451.8125 228.3125 454.085938 228.3125 454.085938 229.832031 "/>
<path style=" stroke:none;fill-rule:nonzero;fill:rgb(100%,84.3%,0%);fill-opacity:1;" d="M 144.613281 282.167969 C 144.613281 283.6875 142.335938 283.6875 142.335938 282.167969 C 142.335938 280.652344 144.613281 280.652344 144.613281 282.167969 "/>
<path style=" stroke:none;fill-rule:nonzero;fill:rgb(100%,84.3%,0%);fill-opacity:1;" d="M 46.078125 232.105469 C 46.078125 233.625 43.804688 233.625 43.804688 232.105469 C 43.804688 230.589844 46.078125 230.589844 46.078125 232.105469 "/>
<path style=" stroke:none;fill-rule:nonzero;fill:rgb(100%,84.3%,0%);fill-opacity:1;" d="M 46.078125 238.933594 C 46.078125 240.449219 43.804688 240.449219 43.804688 238.933594 C 43.804688 237.414062 46.078125 237.414062 46.078125 238.933594 "/>
<path style=" stroke:none;fill-rule:nonzero;fill:rgb(100%,84.3%,0%);fill-opacity:1;" d="M 456.363281 229.832031 C 456.363281 231.347656 454.085938 231.347656 454.085938 229.832031 C 454.085938 228.3125 456.363281 228.3125 456.363281 229.832031 "/>
<path style=" stroke:none;fill-rule:nonzero;fill:rgb(100%,84.3%,0%);fill-opacity:1;" d="M 194.671875 229.832031 C 194.671875 231.347656 192.398438 231.347656 192.398438 229.832031 C 192.398438 228.3125 194.671875 228.3125 194.671875 229.832031 "/>
<path style=" stroke:none;fill-rule:nonzero;fill:rgb(100%,84.3%,0%);fill-opacity:1;" d="M 438.15625 229.832031 C 438.15625 231.347656 435.882812 231.347656 435.882812 229.832031 C 435.882812 228.3125 438.15625 228.3125 438.15625 229.832031 "/>
<path style=" stroke:none;fill-rule:nonzero;fill:rgb(100%,84.3%,0%);fill-opacity:1;" d="M 424.503906 229.832031 C 424.503906 231.347656 422.230469 231.347656 422.230469 229.832031 C 422.230469 228.3125 424.503906 228.3125 424.503906 229.832031 "/>
<path style=" stroke:none;fill-rule:nonzero;fill:rgb(100%,84.3%,0%);fill-opacity:1;" d="M 140.0625 282.167969 C 140.0625 283.6875 137.785156 283.6875 137.785156 282.167969 C 137.785156 280.652344 140.0625 280.652344 140.0625 282.167969 "/>
<path style=" stroke:none;fill-rule:nonzero;fill:rgb(100%,84.3%,0%);fill-opacity:1;" d="M 413.125 229.832031 C 413.125 231.347656 410.851562 231.347656 410.851562 229.832031 C 410.851562 228.3125 413.125 228.3125 413.125 229.832031 "/>
<path style=" stroke:none;fill-rule:nonzero;fill:rgb(100%,84.3%,0%);fill-opacity:1;" d="M 433.605469 229.832031 C 433.605469 231.347656 431.332031 231.347656 431.332031 229.832031 C 431.332031 228.3125 433.605469 228.3125 433.605469 229.832031 "/>
<path style=" stroke:none;fill-rule:nonzero;fill:rgb(100%,84.3%,0%);fill-opacity:1;" d="M 440.433594 229.832031 C 440.433594 231.347656 438.160156 231.347656 438.160156 229.832031 C 438.160156 228.3125 440.433594 228.3125 440.433594 229.832031 "/>
<path style=" stroke:none;fill-rule:nonzero;fill:rgb(100%,84.3%,0%);fill-opacity:1;" d="M 46.078125 243.484375 C 46.078125 245 43.804688 245 43.804688 243.484375 C 43.804688 241.96875 46.078125 241.96875 46.078125 243.484375 "/>
<path style=" stroke:none;fill-rule:nonzero;fill:rgb(100%,84.3%,0%);fill-opacity:1;" d="M 458.636719 229.832031 C 458.636719 231.347656 456.363281 231.347656 456.363281 229.832031 C 456.363281 228.3125 458.636719 228.3125 458.636719 229.832031 "/>
<path style=" stroke:none;fill-rule:nonzero;fill:rgb(100%,84.3%,0%);fill-opacity:1;" d="M 417.679688 229.832031 C 417.679688 231.347656 415.402344 231.347656 415.402344 229.832031 C 415.402344 228.3125 417.679688 228.3125 417.679688 229.832031 "/>
<path style=" stroke:none;fill-rule:nonzero;fill:rgb(100%,84.3%,0%);fill-opacity:1;" d="M 46.078125 236.65625 C 46.078125 238.175781 43.804688 238.175781 43.804688 236.65625 C 43.804688 235.140625 46.078125 235.140625 46.078125 236.65625 "/>
<path style=" stroke:none;fill-rule:nonzero;fill:rgb(100%,84.3%,0%);fill-opacity:1;" d="M 422.230469 229.832031 C 422.230469 231.347656 419.953125 231.347656 419.953125 229.832031 C 419.953125 228.3125 422.230469 228.3125 422.230469 229.832031 "/>
<path style=" stroke:none;fill-rule:nonzero;fill:rgb(100%,84.3%,0%);fill-opacity:1;" d="M 165.089844 229.832031 C 165.089844 231.347656 162.816406 231.347656 162.816406 229.832031 C 162.816406 228.3125 165.089844 228.3125 165.089844 229.832031 "/>
<path style=" stroke:none;fill-rule:nonzero;fill:rgb(100%,84.3%,0%);fill-opacity:1;" d="M 463.191406 229.832031 C 463.191406 231.347656 460.914062 231.347656 460.914062 229.832031 C 460.914062 228.3125 463.191406 228.3125 463.191406 229.832031 "/>
<path style=" stroke:none;fill-rule:nonzero;fill:rgb(100%,84.3%,0%);fill-opacity:1;" d="M 146.886719 282.167969 C 146.886719 283.6875 144.609375 283.6875 144.609375 282.167969 C 144.609375 280.652344 146.886719 280.652344 146.886719 282.167969 "/>
<path style=" stroke:none;fill-rule:nonzero;fill:rgb(100%,84.3%,0%);fill-opacity:1;" d="M 46.078125 234.382812 C 46.078125 235.898438 43.804688 235.898438 43.804688 234.382812 C 43.804688 232.863281 46.078125 232.863281 46.078125 234.382812 "/>
<path style=" stroke:none;fill-rule:nonzero;fill:rgb(100%,84.3%,0%);fill-opacity:1;" d="M 419.953125 229.832031 C 419.953125 231.347656 417.679688 231.347656 417.679688 229.832031 C 417.679688 228.3125 419.953125 228.3125 419.953125 229.832031 "/>
<path style=" stroke:none;fill-rule:nonzero;fill:rgb(100%,84.3%,0%);fill-opacity:1;" d="M 431.332031 229.832031 C 431.332031 231.347656 429.054688 231.347656 429.054688 229.832031 C 429.054688 228.3125 431.332031 228.3125 431.332031 229.832031 "/>
<path style=" stroke:none;fill-rule:nonzero;fill:rgb(100%,84.3%,0%);fill-opacity:1;" d="M 442.710938 229.832031 C 442.710938 231.347656 440.433594 231.347656 440.433594 229.832031 C 440.433594 228.3125 442.710938 228.3125 442.710938 229.832031 "/>
<path style=" stroke:none;fill-rule:nonzero;fill:rgb(100%,84.3%,0%);fill-opacity:1;" d="M 429.054688 229.832031 C 429.054688 231.347656 426.78125 231.347656 426.78125 229.832031 C 426.78125 228.3125 429.054688 228.3125 429.054688 229.832031 "/>
<path style=" stroke:none;fill-rule:nonzero;fill:rgb(100%,84.3%,0%);fill-opacity:1;" d="M 46.078125 245.761719 C 46.078125 247.277344 43.804688 247.277344 43.804688 245.761719 C 43.804688 244.242188 46.078125 244.242188 46.078125 245.761719 "/>
<path style=" stroke:none;fill-rule:nonzero;fill:rgb(100%,84.3%,0%);fill-opacity:1;" d="M 444.984375 229.832031 C 444.984375 231.347656 442.710938 231.347656 442.710938 229.832031 C 442.710938 228.3125 444.984375 228.3125 444.984375 229.832031 "/>
<path style=" stroke:none;fill-rule:nonzero;fill:rgb(100%,84.3%,0%);fill-opacity:1;" d="M 224.253906 229.832031 C 224.253906 231.347656 221.980469 231.347656 221.980469 229.832031 C 221.980469 228.3125 224.253906 228.3125 224.253906 229.832031 "/>
<path style=" stroke:none;fill-rule:nonzero;fill:rgb(100%,84.3%,0%);fill-opacity:1;" d="M 468.195312 229.832031 C 468.195312 231.347656 465.921875 231.347656 465.921875 229.832031 C 465.921875 228.3125 468.195312 228.3125 468.195312 229.832031 "/>
<path style=" stroke:none;fill-rule:nonzero;fill:rgb(100%,84.3%,0%);fill-opacity:1;" d="M 449.535156 229.832031 C 449.535156 231.347656 447.261719 231.347656 447.261719 229.832031 C 447.261719 228.3125 449.535156 228.3125 449.535156 229.832031 "/>
<path style=" stroke:none;fill-rule:nonzero;fill:rgb(100%,84.3%,0%);fill-opacity:1;" d="M 46.078125 248.035156 C 46.078125 249.554688 43.804688 249.554688 43.804688 248.035156 C 43.804688 246.519531 46.078125 246.519531 46.078125 248.035156 "/>
<path style=" stroke:none;fill-rule:nonzero;fill:rgb(100%,84.3%,0%);fill-opacity:1;" d="M 447.261719 229.832031 C 447.261719 231.347656 444.984375 231.347656 444.984375 229.832031 C 444.984375 228.3125 447.261719 228.3125 447.261719 229.832031 "/>
<path style=" stroke:none;fill-rule:nonzero;fill:rgb(100%,84.3%,0%);fill-opacity:1;" d="M 460.914062 229.832031 C 460.914062 231.347656 458.636719 231.347656 458.636719 229.832031 C 458.636719 228.3125 460.914062 228.3125 460.914062 229.832031 "/>
<path style=" stroke:none;fill-rule:nonzero;fill:rgb(100%,84.3%,0%);fill-opacity:1;" d="M 46.078125 250.3125 C 46.078125 251.828125 43.804688 251.828125 43.804688 250.3125 C 43.804688 248.792969 46.078125 248.792969 46.078125 250.3125 "/>
<path style=" stroke:none;fill-rule:nonzero;fill:rgb(100%,84.3%,0%);fill-opacity:1;" d="M 451.8125 229.832031 C 451.8125 231.347656 449.535156 231.347656 449.535156 229.832031 C 449.535156 228.3125 451.8125 228.3125 451.8125 229.832031 "/>
<path style=" stroke:none;fill-rule:nonzero;fill:rgb(100%,84.3%,0%);fill-opacity:1;" d="M 465.464844 229.832031 C 465.464844 231.347656 463.1875 231.347656 463.1875 229.832031 C 463.1875 228.3125 465.464844 228.3125 465.464844 229.832031 "/>
<path style=" stroke:none;fill-rule:nonzero;fill:rgb(100%,84.3%,0%);fill-opacity:1;" d="M 137.785156 282.167969 C 137.785156 283.6875 135.507812 283.6875 135.507812 282.167969 C 135.507812 280.652344 137.785156 280.652344 137.785156 282.167969 "/>
<path style=" stroke:none;fill-rule:nonzero;fill:rgb(100%,84.3%,0%);fill-opacity:1;" d="M 206.050781 229.832031 C 206.050781 231.347656 203.777344 231.347656 203.777344 229.832031 C 203.777344 228.3125 206.050781 228.3125 206.050781 229.832031 "/>
<path style=" stroke:none;fill-rule:nonzero;fill:rgb(100%,84.3%,0%);fill-opacity:1;" d="M 426.78125 229.832031 C 426.78125 231.347656 424.503906 231.347656 424.503906 229.832031 C 424.503906 228.3125 426.78125 228.3125 426.78125 229.832031 "/>
<path style=" stroke:none;fill-rule:nonzero;fill:rgb(100%,84.3%,0%);fill-opacity:1;" d="M 46.078125 252.585938 C 46.078125 254.105469 43.804688 254.105469 43.804688 252.585938 C 43.804688 251.070312 46.078125 251.070312 46.078125 252.585938 "/>
<path style=" stroke:none;fill-rule:nonzero;fill:rgb(100%,84.3%,0%);fill-opacity:1;" d="M 46.078125 254.863281 C 46.078125 256.378906 43.804688 256.378906 43.804688 254.863281 C 43.804688 253.34375 46.078125 253.34375 46.078125 254.863281 "/>
<path style=" stroke:none;fill-rule:nonzero;fill:rgb(100%,84.3%,0%);fill-opacity:1;" d="M 46.078125 257.136719 C 46.078125 258.65625 43.804688 258.65625 43.804688 257.136719 C 43.804688 255.621094 46.078125 255.621094 46.078125 257.136719 "/>
<path style=" stroke:none;fill-rule:nonzero;fill:rgb(100%,84.3%,0%);fill-opacity:1;" d="M 46.078125 259.414062 C 46.078125 260.929688 43.804688 260.929688 43.804688 259.414062 C 43.804688 257.894531 46.078125 257.894531 46.078125 259.414062 "/>
<path style=" stroke:none;fill-rule:nonzero;fill:rgb(100%,84.3%,0%);fill-opacity:1;" d="M 46.078125 261.6875 C 46.078125 263.207031 43.804688 263.207031 43.804688 261.6875 C 43.804688 260.171875 46.078125 260.171875 46.078125 261.6875 "/>
<path style=" stroke:none;fill-rule:nonzero;fill:rgb(100%,84.3%,0%);fill-opacity:1;" d="M 46.078125 263.964844 C 46.078125 265.480469 43.804688 265.480469 43.804688 263.964844 C 43.804688 262.445312 46.078125 262.445312 46.078125 263.964844 "/>
<path style=" stroke:none;fill-rule:nonzero;fill:rgb(100%,84.3%,0%);fill-opacity:1;" d="M 46.078125 266.238281 C 46.078125 267.757812 43.804688 267.757812 43.804688 266.238281 C 43.804688 264.722656 46.078125 264.722656 46.078125 266.238281 "/>
<path style=" stroke:none;fill-rule:nonzero;fill:rgb(100%,84.3%,0%);fill-opacity:1;" d="M 46.078125 229.832031 C 46.078125 231.347656 43.804688 231.347656 43.804688 229.832031 C 43.804688 228.3125 46.078125 228.3125 46.078125 229.832031 "/>
<path style=" stroke:none;fill-rule:nonzero;fill:rgb(100%,84.3%,0%);fill-opacity:1;" d="M 46.078125 268.515625 C 46.078125 270.03125 43.804688 270.03125 43.804688 268.515625 C 43.804688 267 46.078125 267 46.078125 268.515625 "/>
<path style=" stroke:none;fill-rule:nonzero;fill:rgb(100%,84.3%,0%);fill-opacity:1;" d="M 46.078125 270.789062 C 46.078125 272.308594 43.804688 272.308594 43.804688 270.789062 C 43.804688 269.273438 46.078125 269.273438 46.078125 270.789062 "/>
<path style=" stroke:none;fill-rule:nonzero;fill:rgb(100%,84.3%,0%);fill-opacity:1;" d="M 46.078125 273.066406 C 46.078125 274.585938 43.804688 274.585938 43.804688 273.066406 C 43.804688 271.550781 46.078125 271.550781 46.078125 273.066406 "/>
<path style=" stroke:none;fill-rule:nonzero;fill:rgb(100%,84.3%,0%);fill-opacity:1;" d="M 46.078125 275.34375 C 46.078125 276.859375 43.804688 276.859375 43.804688 275.34375 C 43.804688 273.824219 46.078125 273.824219 46.078125 275.34375 "/>
<path style=" stroke:none;fill-rule:nonzero;fill:rgb(100%,84.3%,0%);fill-opacity:1;" d="M 46.078125 277.617188 C 46.078125 279.136719 43.804688 279.136719 43.804688 277.617188 C 43.804688 276.101562 46.078125 276.101562 46.078125 277.617188 "/>
<path style=" stroke:none;fill-rule:nonzero;fill:rgb(100%,84.3%,0%);fill-opacity:1;" d="M 46.078125 279.894531 C 46.078125 281.410156 43.804688 281.410156 43.804688 279.894531 C 43.804688 278.375 46.078125 278.375 46.078125 279.894531 "/>
<path style=" stroke:none;fill-rule:nonzero;fill:rgb(100%,84.3%,0%);fill-opacity:1;" d="M 46.078125 282.167969 C 46.078125 283.6875 43.804688 283.6875 43.804688 282.167969 C 43.804688 280.652344 46.078125 280.652344 46.078125 282.167969 "/>
<path style=" stroke:none;fill-rule:nonzero;fill:rgb(100%,84.3%,0%);fill-opacity:1;" d="M 48.054688 253.722656 C 48.054688 255.242188 45.777344 255.242188 45.777344 253.722656 C 45.777344 252.207031 48.054688 252.207031 48.054688 253.722656 "/>
<path style=" stroke:none;fill-rule:nonzero;fill:rgb(100%,84.3%,0%);fill-opacity:1;" d="M 48.054688 240.070312 C 48.054688 241.589844 45.777344 241.589844 45.777344 240.070312 C 45.777344 238.554688 48.054688 238.554688 48.054688 240.070312 "/>
<path style=" stroke:none;fill-rule:nonzero;fill:rgb(100%,84.3%,0%);fill-opacity:1;" d="M 48.054688 251.449219 C 48.054688 252.964844 45.777344 252.964844 45.777344 251.449219 C 45.777344 249.933594 48.054688 249.933594 48.054688 251.449219 "/>
<path style=" stroke:none;fill-rule:nonzero;fill:rgb(100%,84.3%,0%);fill-opacity:1;" d="M 48.054688 242.347656 C 48.054688 243.863281 45.777344 243.863281 45.777344 242.347656 C 45.777344 240.828125 48.054688 240.828125 48.054688 242.347656 "/>
<path style=" stroke:none;fill-rule:nonzero;fill:rgb(100%,84.3%,0%);fill-opacity:1;" d="M 48.054688 249.171875 C 48.054688 250.691406 45.777344 250.691406 45.777344 249.171875 C 45.777344 247.65625 48.054688 247.65625 48.054688 249.171875 "/>
<path style=" stroke:none;fill-rule:nonzero;fill:rgb(100%,84.3%,0%);fill-opacity:1;" d="M 48.054688 246.898438 C 48.054688 248.414062 45.777344 248.414062 45.777344 246.898438 C 45.777344 245.382812 48.054688 245.382812 48.054688 246.898438 "/>
<path style=" stroke:none;fill-rule:nonzero;fill:rgb(100%,84.3%,0%);fill-opacity:1;" d="M 48.054688 244.621094 C 48.054688 246.140625 45.777344 246.140625 45.777344 244.621094 C 45.777344 243.105469 48.054688 243.105469 48.054688 244.621094 "/>
<path style=" stroke:none;fill-rule:nonzero;fill:rgb(100%,84.3%,0%);fill-opacity:1;" d="M 192.398438 229.832031 C 192.398438 231.347656 190.121094 231.347656 190.121094 229.832031 C 190.121094 228.3125 192.398438 228.3125 192.398438 229.832031 "/>
<path style=" stroke:none;fill-rule:nonzero;fill:rgb(100%,84.3%,0%);fill-opacity:1;" d="M 190.121094 229.832031 C 190.121094 231.347656 187.847656 231.347656 187.847656 229.832031 C 187.847656 228.3125 190.121094 228.3125 190.121094 229.832031 "/>
<path style=" stroke:none;fill-rule:nonzero;fill:rgb(100%,84.3%,0%);fill-opacity:1;" d="M 208.328125 229.832031 C 208.328125 231.347656 206.050781 231.347656 206.050781 229.832031 C 206.050781 228.3125 208.328125 228.3125 208.328125 229.832031 "/>
<path style=" stroke:none;fill-rule:nonzero;fill:rgb(100%,84.3%,0%);fill-opacity:1;" d="M 196.949219 229.832031 C 196.949219 231.347656 194.675781 231.347656 194.675781 229.832031 C 194.675781 228.3125 196.949219 228.3125 196.949219 229.832031 "/>
<path style=" stroke:none;fill-rule:nonzero;fill:rgb(100%,84.3%,0%);fill-opacity:1;" d="M 187.847656 229.832031 C 187.847656 231.347656 185.570312 231.347656 185.570312 229.832031 C 185.570312 228.3125 187.847656 228.3125 187.847656 229.832031 "/>
<path style=" stroke:none;fill-rule:nonzero;fill:rgb(100%,84.3%,0%);fill-opacity:1;" d="M 199.226562 229.832031 C 199.226562 231.347656 196.949219 231.347656 196.949219 229.832031 C 196.949219 228.3125 199.226562 228.3125 199.226562 229.832031 "/>
<path style=" stroke:none;fill-rule:nonzero;fill:rgb(100%,84.3%,0%);fill-opacity:1;" d="M 185.570312 229.832031 C 185.570312 231.347656 183.296875 231.347656 183.296875 229.832031 C 183.296875 228.3125 185.570312 228.3125 185.570312 229.832031 "/>
<path style=" stroke:none;fill-rule:nonzero;fill:rgb(100%,84.3%,0%);fill-opacity:1;" d="M 201.5 229.832031 C 201.5 231.347656 199.226562 231.347656 199.226562 229.832031 C 199.226562 228.3125 201.5 228.3125 201.5 229.832031 "/>
<path style=" stroke:none;fill-rule:nonzero;fill:rgb(100%,84.3%,0%);fill-opacity:1;" d="M 210.601562 229.832031 C 210.601562 231.347656 208.328125 231.347656 208.328125 229.832031 C 208.328125 228.3125 210.601562 228.3125 210.601562 229.832031 "/>
<path style=" stroke:none;fill-rule:nonzero;fill:rgb(100%,84.3%,0%);fill-opacity:1;" d="M 183.296875 229.832031 C 183.296875 231.347656 181.019531 231.347656 181.019531 229.832031 C 181.019531 228.3125 183.296875 228.3125 183.296875 229.832031 "/>
<path style=" stroke:none;fill-rule:nonzero;fill:rgb(100%,84.3%,0%);fill-opacity:1;" d="M 181.019531 229.832031 C 181.019531 231.347656 178.746094 231.347656 178.746094 229.832031 C 178.746094 228.3125 181.019531 228.3125 181.019531 229.832031 "/>
<path style=" stroke:none;fill-rule:nonzero;fill:rgb(100%,84.3%,0%);fill-opacity:1;" d="M 203.777344 229.832031 C 203.777344 231.347656 201.5 231.347656 201.5 229.832031 C 201.5 228.3125 203.777344 228.3125 203.777344 229.832031 "/>
<path style=" stroke:none;fill-rule:nonzero;fill:rgb(100%,84.3%,0%);fill-opacity:1;" d="M 167.367188 229.832031 C 167.367188 231.347656 165.089844 231.347656 165.089844 229.832031 C 165.089844 228.3125 167.367188 228.3125 167.367188 229.832031 "/>
<path style=" stroke:none;fill-rule:nonzero;fill:rgb(100%,84.3%,0%);fill-opacity:1;" d="M 212.878906 229.832031 C 212.878906 231.347656 210.601562 231.347656 210.601562 229.832031 C 210.601562 228.3125 212.878906 228.3125 212.878906 229.832031 "/>
<path style=" stroke:none;fill-rule:nonzero;fill:rgb(100%,84.3%,0%);fill-opacity:1;" d="M 178.746094 229.832031 C 178.746094 231.347656 176.46875 231.347656 176.46875 229.832031 C 176.46875 228.3125 178.746094 228.3125 178.746094 229.832031 "/>
<path style=" stroke:none;fill-rule:nonzero;fill:rgb(100%,84.3%,0%);fill-opacity:1;" d="M 176.46875 229.832031 C 176.46875 231.347656 174.195312 231.347656 174.195312 229.832031 C 174.195312 228.3125 176.46875 228.3125 176.46875 229.832031 "/>
<path style=" stroke:none;fill-rule:nonzero;fill:rgb(100%,84.3%,0%);fill-opacity:1;" d="M 215.152344 229.832031 C 215.152344 231.347656 212.878906 231.347656 212.878906 229.832031 C 212.878906 228.3125 215.152344 228.3125 215.152344 229.832031 "/>
<path style=" stroke:none;fill-rule:nonzero;fill:rgb(100%,84.3%,0%);fill-opacity:1;" d="M 174.195312 229.832031 C 174.195312 231.347656 171.917969 231.347656 171.917969 229.832031 C 171.917969 228.3125 174.195312 228.3125 174.195312 229.832031 "/>
<path style=" stroke:none;fill-rule:nonzero;fill:rgb(100%,84.3%,0%);fill-opacity:1;" d="M 171.917969 229.832031 C 171.917969 231.347656 169.640625 231.347656 169.640625 229.832031 C 169.640625 228.3125 171.917969 228.3125 171.917969 229.832031 "/>
<path style=" stroke:none;fill-rule:nonzero;fill:rgb(100%,84.3%,0%);fill-opacity:1;" d="M 217.429688 229.832031 C 217.429688 231.347656 215.152344 231.347656 215.152344 229.832031 C 215.152344 228.3125 217.429688 228.3125 217.429688 229.832031 "/>
<path style=" stroke:none;fill-rule:nonzero;fill:rgb(100%,84.3%,0%);fill-opacity:1;" d="M 219.703125 229.832031 C 219.703125 231.347656 217.429688 231.347656 217.429688 229.832031 C 217.429688 228.3125 219.703125 228.3125 219.703125 229.832031 "/>
<path style=" stroke:none;fill-rule:nonzero;fill:rgb(100%,84.3%,0%);fill-opacity:1;" d="M 169.644531 229.832031 C 169.644531 231.347656 167.367188 231.347656 167.367188 229.832031 C 167.367188 228.3125 169.644531 228.3125 169.644531 229.832031 "/>
</g>
</svg>
