<?xml version="1.0" encoding="UTF-8"?>
<svg xmlns="http://www.w3.org/2000/svg" xmlns:xlink="http://www.w3.org/1999/xlink" width="512pt" height="512pt" viewBox="0 0 512 512" version="1.1">
<g id="surface376">
<rect x="0" y="0" width="512" height="512" style="fill:rgb(26.7%,26.7%,26.7%);fill-opacity:1;stroke:none;"/>
<path style=" stroke:none;fill-rule:nonzero;fill:rgb(19.2%,38.8%,66.7%);fill-opacity:1;" d="M 33.164062 42.667969 L 364.808594 42.667969 L 364.808594 469.332031 L 33.164062 469.332031 Z M 33.164062 42.667969 "/>
<path style=" stroke:none;fill-rule:nonzero;fill:rgb(90.6%,14.9%,14.9%);fill-opacity:1;" d="M 34.207031 479.773438 C 34.207031 481.167969 32.121094 481.167969 32.121094 479.773438 C 32.121094 478.382812 34.207031 478.382812 34.207031 479.773438 "/>
<path style=" stroke:none;fill-rule:nonzero;fill:rgb(90.6%,14.9%,14.9%);fill-opacity:1;" d="M 38.386719 479.773438 C 38.386719 481.167969 36.296875 481.167969 36.296875 479.773438 C 36.296875 478.382812 38.386719 478.382812 38.386719 479.773438 "/>
<path style=" stroke:none;fill-rule:nonzero;fill:rgb(90.6%,14.9%,14.9%);fill-opacity:1;" d="M 42.5625 479.773438 C 42.5625 481.167969 40.472656 481.167969 40.472656 479.773438 C 40.472656 478.382812 42.5625 478.382812 42.5625 479.773438 "/>
<path style=" stroke:none;fill-rule:nonzero;fill:rgb(90.6%,14.9%,14.9%);fill-opacity:1;" d="M 46.738281 479.773438 C 46.738281 481.167969 44.652344 481.167969 44.652344 479.773438 C 44.652344 478.382812 46.738281 478.382812 46.738281 479.773438 "/>
<path style=" stroke:none;fill-rule:nonzero;fill:rgb(90.6%,14.9%,14.9%);fill-opacity:1;" d="M 50.917969 479.773438 C 50.917969 481.167969 48.828125 481.167969 48.828125 479.773438 C 48.828125 478.382812 50.917969 478.382812 50.917969 479.773438 "/>
<path style=" stroke:none;fill-rule:nonzero;fill:rgb(90.6%,14.9%,14.9%);fill-opacity:1;" d="M 55.09375 479.773438 C 55.09375 481.167969 53.003906 481.167969 53.003906 479.773438 C 53.003906 478.382812 55.09375 478.382812 55.09375 479.773438 "/>
<path style=" stroke:none;fill-rule:nonzero;fill:rgb(90.6%,14.9%,14.9%);fill-opacity:1;" d="M 59.269531 479.773438 C 59.269531 481.167969 57.179688 481.167969 57.179688 479.773438 C 57.179688 478.382812 59.269531 478.382812 59.269531 479.773438 "/>
<path style=" stroke:none;fill-rule:nonzero;fill:rgb(90.6%,14.9%,14.9%);fill-opacity:1;" d="M 63.445312 479.773438 C 63.445312 481.167969 61.359375 481.167969 61.359375 479.773438 C 61.359375 478.382812 63.445312 478.382812 63.445312 479.773438 "/>
<path style=" stroke:none;fill-rule:nonzero;fill:rgb(90.6%,14.9%,14.9%);fill-opacity:1;" d="M 67.625 479.773438 C 67.625 481.167969 65.535156 481.167969 65.535156 479.773438 C 65.535156 478.382812 67.625 478.382812 67.625 479.773438 "/>
<path style=" stroke:none;fill-rule:nonzero;fill:rgb(90.6%,14.9%,14.9%);fill-opacity:1;" d="M 71.800781 479.773438 C 71.800781 481.167969 69.710938 481.167969 69.710938 479.773438 C 69.710938 478.382812 71.800781 478.382812 71.800781 479.773438 "/>
<path style=" stroke:none;fill-rule:nonzero;fill:rgb(90.6%,14.9%,14.9%);fill-opacity:1;" d="M 75.976562 479.773438 C 75.976562 481.167969 73.890625 481.167969 73.890625 479.773438 C 73.890625 478.382812 75.976562 478.382812 75.976562 479.773438 "/>
<path style=" stroke:none;fill-rule:nonzero;fill:rgb(90.6%,14.9%,14.9%);fill-opacity:1;" d="M 80.152344 479.773438 C 80.152344 481.167969 78.066406 481.167969 78.066406 479.773438 C 78.066406 478.382812 80.152344 478.382812 80.152344 479.773438 "/>
<path style=" stroke:none;fill-rule:nonzero;fill:rgb(90.6%,14.9%,14.9%);fill-opacity:1;" d="M 84.332031 479.773438 C 84.332031 481.167969 82.242188 481.167969 82.242188 479.773438 C 82.242188 478.382812 84.332031 478.382812 84.332031 479.773438 "/>
<path style=" stroke:none;fill-rule:nonzero;fill:rgb(90.6%,14.9%,14.9%);fill-opacity:1;" d="M 88.507812 479.773438 C 88.507812 481.167969 86.417969 481.167969 86.417969 479.773438 C 86.417969 478.382812 88.507812 478.382812 88.507812 479.773438 "/>
<path style=" stroke:none;fill-rule:nonzero;fill:rgb(90.6%,14.9%,14.9%);fill-opacity:1;" d="M 92.683594 479.773438 C 92.683594 481.167969 90.597656 481.167969 90.597656 479.773438 C 90.597656 478.382812 92.683594 478.382812 92.683594 479.773438 "/>
<path style=" stroke:none;fill-rule:nonzero;fill:rgb(90.6%,14.9%,14.9%);fill-opacity:1;" d="M 96.859375 479.773438 C 96.859375 481.167969 94.773438 481.167969 94.773438 479.773438 C 94.773438 478.382812 96.859375 478.382812 96.859375 479.773438 "/>
<path style=" stroke:none;fill-rule:nonzero;fill:rgb(90.6%,14.9%,14.9%);fill-opacity:1;" d="M 101.039062 479.773438 C 101.039062 481.167969 98.949219 481.167969 98.949219 479.773438 C 98.949219 478.382812 101.039062 478.382812 101.039062 479.773438 "/>
<path style=" stroke:none;fill-rule:nonzero;fill:rgb(90.6%,14.9%,14.9%);fill-opacity:1;" d="M 105.214844 479.773438 C 105.214844 481.167969 103.125 481.167969 103.125 479.773438 C 103.125 478.382812 105.214844 478.382812 105.214844 479.773438 "/>
<path style=" stroke:none;fill-rule:nonzero;fill:rgb(90.6%,14.9%,14.9%);fill-opacity:1;" d="M 109.390625 479.773438 C 109.390625 481.167969 107.304688 481.167969 107.304688 479.773438 C 107.304688 478.382812 109.390625 478.382812 109.390625 479.773438 "/>
<path style=" stroke:none;fill-rule:nonzero;fill:rgb(90.6%,14.9%,14.9%);fill-opacity:1;" d="M 34.207031 32.226562 C 34.207031 33.617188 32.121094 33.617188 32.121094 32.226562 C 32.121094 30.832031 34.207031 30.832031 34.207031 32.226562 "/>
<path style=" stroke:none;fill-rule:nonzero;fill:rgb(90.6%,14.9%,14.9%);fill-opacity:1;" d="M 38.386719 32.226562 C 38.386719 33.617188 36.296875 33.617188 36.296875 32.226562 C 36.296875 30.832031 38.386719 30.832031 38.386719 32.226562 "/>
<path style=" stroke:none;fill-rule:nonzero;fill:rgb(90.6%,14.9%,14.9%);fill-opacity:1;" d="M 42.5625 32.226562 C 42.5625 33.617188 40.472656 33.617188 40.472656 32.226562 C 40.472656 30.832031 42.5625 30.832031 42.5625 32.226562 "/>
<path style=" stroke:none;fill-rule:nonzero;fill:rgb(90.6%,14.9%,14.9%);fill-opacity:1;" d="M 46.738281 32.226562 C 46.738281 33.617188 44.652344 33.617188 44.652344 32.226562 C 44.652344 30.832031 46.738281 30.832031 46.738281 32.226562 "/>
<path style=" stroke:none;fill-rule:nonzero;fill:rgb(90.6%,14.9%,14.9%);fill-opacity:1;" d="M 50.917969 32.226562 C 50.917969 33.617188 48.828125 33.617188 48.828125 32.226562 C 48.828125 30.832031 50.917969 30.832031 50.917969 32.226562 "/>
<path style=" stroke:none;fill-rule:nonzero;fill:rgb(90.6%,14.9%,14.9%);fill-opacity:1;" d="M 55.09375 32.226562 C 55.09375 33.617188 53.003906 33.617188 53.003906 32.226562 C 53.003906 30.832031 55.09375 30.832031 55.09375 32.226562 "/>
<path style=" stroke:none;fill-rule:nonzero;fill:rgb(90.6%,14.9%,14.9%);fill-opacity:1;" d="M 59.269531 32.226562 C 59.269531 33.617188 57.179688 33.617188 57.179688 32.226562 C 57.179688 30.832031 59.269531 30.832031 59.269531 32.226562 "/>
<path style=" stroke:none;fill-rule:nonzero;fill:rgb(90.6%,14.9%,14.9%);fill-opacity:1;" d="M 63.445312 32.226562 C 63.445312 33.617188 61.359375 33.617188 61.359375 32.226562 C 61.359375 30.832031 63.445312 30.832031 63.445312 32.226562 "/>
<path style=" stroke:none;fill-rule:nonzero;fill:rgb(90.6%,14.9%,14.9%);fill-opacity:1;" d="M 67.625 32.226562 C 67.625 33.617188 65.535156 33.617188 65.535156 32.226562 C 65.535156 30.832031 67.625 30.832031 67.625 32.226562 "/>
<path style=" stroke:none;fill-rule:nonzero;fill:rgb(90.6%,14.9%,14.9%);fill-opacity:1;" d="M 71.800781 32.226562 C 71.800781 33.617188 69.710938 33.617188 69.710938 32.226562 C 69.710938 30.832031 71.800781 30.832031 71.800781 32.226562 "/>
<path style=" stroke:none;fill-rule:nonzero;fill:rgb(90.6%,14.9%,14.9%);fill-opacity:1;" d="M 75.976562 32.226562 C 75.976562 33.617188 73.890625 33.617188 73.890625 32.226562 C 73.890625 30.832031 75.976562 30.832031 75.976562 32.226562 "/>
<path style=" stroke:none;fill-rule:nonzero;fill:rgb(90.6%,14.9%,14.9%);fill-opacity:1;" d="M 80.152344 32.226562 C 80.152344 33.617188 78.066406 33.617188 78.066406 32.226562 C 78.066406 30.832031 80.152344 30.832031 80.152344 32.226562 "/>
<path style=" stroke:none;fill-rule:nonzero;fill:rgb(90.6%,14.9%,14.9%);fill-opacity:1;" d="M 84.332031 32.226562 C 84.332031 33.617188 82.242188 33.617188 82.242188 32.226562 C 82.242188 30.832031 84.332031 30.832031 84.332031 32.226562 "/>
<path style=" stroke:none;fill-rule:nonzero;fill:rgb(90.6%,14.9%,14.9%);fill-opacity:1;" d="M 88.507812 32.226562 C 88.507812 33.617188 86.417969 33.617188 86.417969 32.226562 C 86.417969 30.832031 88.507812 30.832031 88.507812 32.226562 "/>
<path style=" stroke:none;fill-rule:nonzero;fill:rgb(90.6%,14.9%,14.9%);fill-opacity:1;" d="M 92.683594 32.226562 C 92.683594 33.617188 90.597656 33.617188 90.597656 32.226562 C 90.597656 30.832031 92.683594 30.832031 92.683594 32.226562 "/>
<path style=" stroke:none;fill-rule:nonzero;fill:rgb(90.6%,14.9%,14.9%);fill-opacity:1;" d="M 96.859375 32.226562 C 96.859375 33.617188 94.773438 33.617188 94.773438 32.226562 C 94.773438 30.832031 96.859375 30.832031 96.859375 32.226562 "/>
<path style=" stroke:none;fill-rule:nonzero;fill:rgb(90.6%,14.9%,14.9%);fill-opacity:1;" d="M 101.039062 32.226562 C 101.039062 33.617188 98.949219 33.617188 98.949219 32.226562 C 98.949219 30.832031 101.039062 30.832031 101.039062 32.226562 "/>
<path style=" stroke:none;fill-rule:nonzero;fill:rgb(90.6%,14.9%,14.9%);fill-opacity:1;" d="M 105.214844 32.226562 C 105.214844 33.617188 103.125 33.617188 103.125 32.226562 C 103.125 30.832031 105.214844 30.832031 105.214844 32.226562 "/>
<path style=" stroke:none;fill-rule:nonzero;fill:rgb(90.6%,14.9%,14.9%);fill-opacity:1;" d="M 109.390625 32.226562 C 109.390625 33.617188 107.304688 33.617188 107.304688 32.226562 C 107.304688 30.832031 109.390625 30.832031 109.390625 32.226562 "/>
<path style=" stroke:none;fill-rule:nonzero;fill:rgb(90.6%,14.9%,14.9%);fill-opacity:1;" d="M 113.570312 32.226562 C 113.570312 33.617188 111.480469 33.617188 111.480469 32.226562 C 111.480469 30.832031 113.570312 30.832031 113.570312 32.226562 "/>
<path style=" stroke:none;fill-rule:nonzero;fill:rgb(100%,100%,100%);fill-opacity:1;" d="M 432.679688 500.242188 C 432.679688 501.632812 430.59375 501.632812 430.59375 500.242188 C 430.59375 498.851562 432.679688 498.851562 432.679688 500.242188 "/>
<path style=" stroke:none;fill-rule:nonzero;fill:rgb(100%,100%,100%);fill-opacity:1;" d="M 460.25 42.457031 C 460.25 43.851562 458.160156 43.851562 458.160156 42.457031 C 458.160156 41.066406 460.25 41.066406 460.25 42.457031 "/>
<path style=" stroke:none;fill-rule:nonzero;fill:rgb(100%,100%,100%);fill-opacity:1;" d="M 329.511719 512.980469 C 329.511719 514.375 327.425781 514.375 327.425781 512.980469 C 327.425781 511.589844 329.511719 511.589844 329.511719 512.980469 "/>
<path style=" stroke:none;fill-rule:nonzero;fill:rgb(100%,100%,100%);fill-opacity:1;" d="M 42.769531 36.402344 C 42.769531 37.792969 40.683594 37.792969 40.683594 36.402344 C 40.683594 35.007812 42.769531 35.007812 42.769531 36.402344 "/>
<path style=" stroke:none;fill-rule:nonzero;fill:rgb(100%,100%,100%);fill-opacity:1;" d="M 249.941406 29.925781 C 249.941406 31.320312 247.855469 31.320312 247.855469 29.925781 C 247.855469 28.535156 249.941406 28.535156 249.941406 29.925781 "/>
<path style=" stroke:none;fill-rule:nonzero;fill:rgb(100%,100%,100%);fill-opacity:1;" d="M 306.75 489.382812 C 306.75 490.773438 304.660156 490.773438 304.660156 489.382812 C 304.660156 487.988281 306.75 487.988281 306.75 489.382812 "/>
<path style=" stroke:none;fill-rule:nonzero;fill:rgb(100%,100%,100%);fill-opacity:1;" d="M 287.117188 12.175781 C 287.117188 13.566406 285.027344 13.566406 285.027344 12.175781 C 285.027344 10.785156 287.117188 10.785156 287.117188 12.175781 "/>
<path style=" stroke:none;fill-rule:nonzero;fill:rgb(100%,100%,100%);fill-opacity:1;" d="M 182.277344 24.078125 C 182.277344 25.472656 180.191406 25.472656 180.191406 24.078125 C 180.191406 22.6875 182.277344 22.6875 182.277344 24.078125 "/>
<path style=" stroke:none;fill-rule:nonzero;fill:rgb(100%,100%,100%);fill-opacity:1;" d="M 383.394531 8.207031 C 383.394531 9.601562 381.304688 9.601562 381.304688 8.207031 C 381.304688 6.816406 383.394531 6.816406 383.394531 8.207031 "/>
<path style=" stroke:none;fill-rule:nonzero;fill:rgb(100%,100%,100%);fill-opacity:1;" d="M 280.226562 39.742188 C 280.226562 41.136719 278.136719 41.136719 278.136719 39.742188 C 278.136719 38.351562 280.226562 38.351562 280.226562 39.742188 "/>
<path style=" stroke:none;fill-rule:nonzero;fill:rgb(100%,100%,100%);fill-opacity:1;" d="M 351.230469 17.1875 C 351.230469 18.582031 349.144531 18.582031 349.144531 17.1875 C 349.144531 15.796875 351.230469 15.796875 351.230469 17.1875 "/>
<path style=" stroke:none;fill-rule:nonzero;fill:rgb(100%,100%,100%);fill-opacity:1;" d="M 200.445312 7.582031 C 200.445312 8.972656 198.359375 8.972656 198.359375 7.582031 C 198.359375 6.1875 200.445312 6.1875 200.445312 7.582031 "/>
<path style=" stroke:none;fill-rule:nonzero;fill:rgb(100%,100%,100%);fill-opacity:1;" d="M 3.300781 511.3125 C 3.300781 512.703125 1.210938 512.703125 1.210938 511.3125 C 1.210938 509.917969 3.300781 509.917969 3.300781 511.3125 "/>
<path style=" stroke:none;fill-rule:nonzero;fill:rgb(100%,100%,100%);fill-opacity:1;" d="M 502.851562 500.449219 C 502.851562 501.84375 500.765625 501.84375 500.765625 500.449219 C 500.765625 499.058594 502.851562 499.058594 502.851562 500.449219 "/>
<path style=" stroke:none;fill-rule:nonzero;fill:rgb(100%,100%,100%);fill-opacity:1;" d="M 192.304688 29.09375 C 192.304688 30.484375 190.214844 30.484375 190.214844 29.09375 C 190.214844 27.699219 192.304688 27.699219 192.304688 29.09375 "/>
<path style=" stroke:none;fill-rule:nonzero;fill:rgb(100%,100%,100%);fill-opacity:1;" d="M 471.734375 37.238281 C 471.734375 38.628906 469.648438 38.628906 469.648438 37.238281 C 469.648438 35.84375 471.734375 35.84375 471.734375 37.238281 "/>
<path style=" stroke:none;fill-rule:nonzero;fill:rgb(100%,100%,100%);fill-opacity:1;" d="M 211.515625 19.066406 C 211.515625 20.460938 209.429688 20.460938 209.429688 19.066406 C 209.429688 17.675781 211.515625 17.675781 211.515625 19.066406 "/>
<path style=" stroke:none;fill-rule:nonzero;fill:rgb(100%,100%,100%);fill-opacity:1;" d="M 477.164062 11.96875 C 477.164062 13.359375 475.078125 13.359375 475.078125 11.96875 C 475.078125 10.574219 477.164062 10.574219 477.164062 11.96875 "/>
<path style=" stroke:none;fill-rule:nonzero;fill:rgb(100%,100%,100%);fill-opacity:1;" d="M 284.609375 505.464844 C 284.609375 506.855469 282.523438 506.855469 282.523438 505.464844 C 282.523438 504.070312 284.609375 504.070312 284.609375 505.464844 "/>
<path style=" stroke:none;fill-rule:nonzero;fill:rgb(100%,100%,100%);fill-opacity:1;" d="M 330.558594 473.511719 C 330.558594 474.902344 328.46875 474.902344 328.46875 473.511719 C 328.46875 472.117188 330.558594 472.117188 330.558594 473.511719 "/>
<path style=" stroke:none;fill-rule:nonzero;fill:rgb(100%,100%,100%);fill-opacity:1;" d="M 365.226562 497.945312 C 365.226562 499.335938 363.136719 499.335938 363.136719 497.945312 C 363.136719 496.550781 365.226562 496.550781 365.226562 497.945312 "/>
<path style=" stroke:none;fill-rule:nonzero;fill:rgb(100%,100%,100%);fill-opacity:1;" d="M 407.203125 10.714844 C 407.203125 12.105469 405.113281 12.105469 405.113281 10.714844 C 405.113281 9.320312 407.203125 9.320312 407.203125 10.714844 "/>
<path style=" stroke:none;fill-rule:nonzero;fill:rgb(100%,100%,100%);fill-opacity:1;" d="M 312.179688 36.820312 C 312.179688 38.210938 310.089844 38.210938 310.089844 36.820312 C 310.089844 35.425781 312.179688 35.425781 312.179688 36.820312 "/>
<path style=" stroke:none;fill-rule:nonzero;fill:rgb(100%,84.3%,0%);fill-opacity:1;" d="M 363.761719 448.03125 C 363.761719 449.421875 361.675781 449.421875 361.675781 448.03125 C 361.675781 446.640625 363.761719 446.640625 363.761719 448.03125 "/>
<path style=" stroke:none;fill-rule:nonzero;fill:rgb(100%,84.3%,0%);fill-opacity:1;" d="M 253.496094 467.246094 C 253.496094 468.636719 251.40625 468.636719 251.40625 467.246094 C 251.40625 465.851562 253.496094 465.851562 253.496094 467.246094 "/>
<path style=" stroke:none;fill-rule:nonzero;fill:rgb(100%,84.3%,0%);fill-opacity:1;" d="M 182.488281 44.753906 C 182.488281 46.148438 180.398438 46.148438 180.398438 44.753906 C 180.398438 43.363281 182.488281 43.363281 182.488281 44.753906 "/>
<path style=" stroke:none;fill-rule:nonzero;fill:rgb(100%,84.3%,0%);fill-opacity:1;" d="M 303.617188 44.753906 C 303.617188 46.148438 301.527344 46.148438 301.527344 44.753906 C 301.527344 43.363281 303.617188 43.363281 303.617188 44.753906 "/>
<path style=" stroke:none;fill-rule:nonzero;fill:rgb(100%,84.3%,0%);fill-opacity:1;" d="M 184.574219 44.753906 C 184.574219 46.148438 182.488281 46.148438 182.488281 44.753906 C 182.488281 43.363281 184.574219 43.363281 184.574219 44.753906 "/>
<path style=" stroke:none;fill-rule:nonzero;fill:rgb(100%,84.3%,0%);fill-opacity:1;" d="M 351.648438 467.246094 C 351.648438 468.636719 349.5625 468.636719 349.5625 467.246094 C 349.5625 465.851562 351.648438 465.851562 351.648438 467.246094 "/>
<path style=" stroke:none;fill-rule:nonzero;fill:rgb(100%,84.3%,0%);fill-opacity:1;" d="M 90.597656 44.753906 C 90.597656 46.148438 88.507812 46.148438 88.507812 44.753906 C 88.507812 43.363281 90.597656 43.363281 90.597656 44.753906 "/>
<path style=" stroke:none;fill-rule:nonzero;fill:rgb(100%,84.3%,0%);fill-opacity:1;" d="M 94.773438 467.246094 C 94.773438 468.636719 92.683594 468.636719 92.683594 467.246094 C 92.683594 465.851562 94.773438 465.851562 94.773438 467.246094 "/>
<path style=" stroke:none;fill-rule:nonzero;fill:rgb(100%,84.3%,0%);fill-opacity:1;" d="M 40.472656 467.246094 C 40.472656 468.636719 38.386719 468.636719 38.386719 467.246094 C 38.386719 465.851562 40.472656 465.851562 40.472656 467.246094 "/>
<path style=" stroke:none;fill-rule:nonzero;fill:rgb(100%,84.3%,0%);fill-opacity:1;" d="M 247.226562 467.246094 C 247.226562 468.636719 245.140625 468.636719 245.140625 467.246094 C 245.140625 465.851562 247.226562 465.851562 247.226562 467.246094 "/>
<path style=" stroke:none;fill-rule:nonzero;fill:rgb(100%,84.3%,0%);fill-opacity:1;" d="M 363.761719 90.910156 C 363.761719 92.300781 361.675781 92.300781 361.675781 90.910156 C 361.675781 89.515625 363.761719 89.515625 363.761719 90.910156 "/>
<path style=" stroke:none;fill-rule:nonzero;fill:rgb(100%,84.3%,0%);fill-opacity:1;" d="M 276.464844 467.246094 C 276.464844 468.636719 274.378906 468.636719 274.378906 467.246094 C 274.378906 465.851562 276.464844 465.851562 276.464844 467.246094 "/>
<path style=" stroke:none;fill-rule:nonzero;fill:rgb(100%,84.3%,0%);fill-opacity:1;" d="M 330.765625 467.246094 C 330.765625 468.636719 328.679688 468.636719 328.679688 467.246094 C 328.679688 465.851562 330.765625 465.851562 330.765625 467.246094 "/>
<path style=" stroke:none;fill-rule:nonzero;fill:rgb(100%,84.3%,0%);fill-opacity:1;" d="M 236.785156 467.246094 C 236.785156 468.636719 234.699219 468.636719 234.699219 467.246094 C 234.699219 465.851562 236.785156 465.851562 236.785156 467.246094 "/>
<path style=" stroke:none;fill-rule:nonzero;fill:rgb(100%,84.3%,0%);fill-opacity:1;" d="M 268.113281 467.246094 C 268.113281 468.636719 266.023438 468.636719 266.023438 467.246094 C 266.023438 465.851562 268.113281 465.851562 268.113281 467.246094 "/>
<path style=" stroke:none;fill-rule:nonzero;fill:rgb(100%,84.3%,0%);fill-opacity:1;" d="M 153.25 44.753906 C 153.25 46.148438 151.160156 46.148438 151.160156 44.753906 C 151.160156 43.363281 153.25 43.363281 153.25 44.753906 "/>
<path style=" stroke:none;fill-rule:nonzero;fill:rgb(100%,84.3%,0%);fill-opacity:1;" d="M 357.914062 44.753906 C 357.914062 46.148438 355.828125 46.148438 355.828125 44.753906 C 355.828125 43.363281 357.914062 43.363281 357.914062 44.753906 "/>
<path style=" stroke:none;fill-rule:nonzero;fill:rgb(100%,84.3%,0%);fill-opacity:1;" d="M 278.554688 44.753906 C 278.554688 46.148438 276.464844 46.148438 276.464844 44.753906 C 276.464844 43.363281 278.554688 43.363281 278.554688 44.753906 "/>
<path style=" stroke:none;fill-rule:nonzero;fill:rgb(100%,84.3%,0%);fill-opacity:1;" d="M 295.261719 44.753906 C 295.261719 46.148438 293.171875 46.148438 293.171875 44.753906 C 293.171875 43.363281 295.261719 43.363281 295.261719 44.753906 "/>
<path style=" stroke:none;fill-rule:nonzero;fill:rgb(100%,84.3%,0%);fill-opacity:1;" d="M 163.691406 467.246094 C 163.691406 468.636719 161.601562 468.636719 161.601562 467.246094 C 161.601562 465.851562 163.691406 465.851562 163.691406 467.246094 "/>
<path style=" stroke:none;fill-rule:nonzero;fill:rgb(100%,84.3%,0%);fill-opacity:1;" d="M 363.761719 47.050781 C 363.761719 48.445312 361.675781 48.445312 361.675781 47.050781 C 361.675781 45.660156 363.761719 45.660156 363.761719 47.050781 "/>
<path style=" stroke:none;fill-rule:nonzero;fill:rgb(100%,84.3%,0%);fill-opacity:1;" d="M 259.757812 44.753906 C 259.757812 46.148438 257.671875 46.148438 257.671875 44.753906 C 257.671875 43.363281 259.757812 43.363281 259.757812 44.753906 "/>
<path style=" stroke:none;fill-rule:nonzero;fill:rgb(100%,84.3%,0%);fill-opacity:1;" d="M 232.609375 44.753906 C 232.609375 46.148438 230.519531 46.148438 230.519531 44.753906 C 230.519531 43.363281 232.609375 43.363281 232.609375 44.753906 "/>
<path style=" stroke:none;fill-rule:nonzero;fill:rgb(100%,84.3%,0%);fill-opacity:1;" d="M 363.761719 76.289062 C 363.761719 77.683594 361.675781 77.683594 361.675781 76.289062 C 361.675781 74.898438 363.761719 74.898438 363.761719 76.289062 "/>
<path style=" stroke:none;fill-rule:nonzero;fill:rgb(100%,84.3%,0%);fill-opacity:1;" d="M 247.226562 44.753906 C 247.226562 46.148438 245.140625 46.148438 245.140625 44.753906 C 245.140625 43.363281 247.226562 43.363281 247.226562 44.753906 "/>
<path style=" stroke:none;fill-rule:nonzero;fill:rgb(100%,84.3%,0%);fill-opacity:1;" d="M 309.882812 467.246094 C 309.882812 468.636719 307.792969 468.636719 307.792969 467.246094 C 307.792969 465.851562 309.882812 465.851562 309.882812 467.246094 "/>
<path style=" stroke:none;fill-rule:nonzero;fill:rgb(100%,84.3%,0%);fill-opacity:1;" d="M 130.277344 467.246094 C 130.277344 468.636719 128.1875 468.636719 128.1875 467.246094 C 128.1875 465.851562 130.277344 465.851562 130.277344 467.246094 "/>
<path style=" stroke:none;fill-rule:nonzero;fill:rgb(100%,84.3%,0%);fill-opacity:1;" d="M 363.761719 462.648438 C 363.761719 464.042969 361.675781 464.042969 361.675781 462.648438 C 361.675781 461.257812 363.761719 461.257812 363.761719 462.648438 "/>
<path style=" stroke:none;fill-rule:nonzero;fill:rgb(100%,84.3%,0%);fill-opacity:1;" d="M 363.761719 82.554688 C 363.761719 83.949219 361.675781 83.949219 361.675781 82.554688 C 361.675781 81.164062 363.761719 81.164062 363.761719 82.554688 "/>
<path style=" stroke:none;fill-rule:nonzero;fill:rgb(100%,84.3%,0%);fill-opacity:1;" d="M 215.902344 467.246094 C 215.902344 468.636719 213.8125 468.636719 213.8125 467.246094 C 213.8125 465.851562 215.902344 465.851562 215.902344 467.246094 "/>
<path style=" stroke:none;fill-rule:nonzero;fill:rgb(100%,84.3%,0%);fill-opacity:1;" d="M 295.261719 467.246094 C 295.261719 468.636719 293.171875 468.636719 293.171875 467.246094 C 293.171875 465.851562 295.261719 465.851562 295.261719 467.246094 "/>
<path style=" stroke:none;fill-rule:nonzero;fill:rgb(100%,84.3%,0%);fill-opacity:1;" d="M 42.5625 44.753906 C 42.5625 46.148438 40.472656 46.148438 40.472656 44.753906 C 40.472656 43.363281 42.5625 43.363281 42.5625 44.753906 "/>
<path style=" stroke:none;fill-rule:nonzero;fill:rgb(100%,84.3%,0%);fill-opacity:1;" d="M 222.167969 467.246094 C 222.167969 468.636719 220.078125 468.636719 220.078125 467.246094 C 220.078125 465.851562 222.167969 465.851562 222.167969 467.246094 "/>
<path style=" stroke:none;fill-rule:nonzero;fill:rgb(100%,84.3%,0%);fill-opacity:1;" d="M 213.8125 44.753906 C 213.8125 46.148438 211.726562 46.148438 211.726562 44.753906 C 211.726562 43.363281 213.8125 43.363281 213.8125 44.753906 "/>
<path style=" stroke:none;fill-rule:nonzero;fill:rgb(100%,84.3%,0%);fill-opacity:1;" d="M 363.761719 59.582031 C 363.761719 60.976562 361.675781 60.976562 361.675781 59.582031 C 361.675781 58.191406 363.761719 58.191406 363.761719 59.582031 "/>
<path style=" stroke:none;fill-rule:nonzero;fill:rgb(100%,84.3%,0%);fill-opacity:1;" d="M 73.890625 467.246094 C 73.890625 468.636719 71.800781 468.636719 71.800781 467.246094 C 71.800781 465.851562 73.890625 465.851562 73.890625 467.246094 "/>
<path style=" stroke:none;fill-rule:nonzero;fill:rgb(100%,84.3%,0%);fill-opacity:1;" d="M 349.5625 44.753906 C 349.5625 46.148438 347.472656 46.148438 347.472656 44.753906 C 347.472656 43.363281 349.5625 43.363281 349.5625 44.753906 "/>
<path style=" stroke:none;fill-rule:nonzero;fill:rgb(100%,84.3%,0%);fill-opacity:1;" d="M 207.546875 44.753906 C 207.546875 46.148438 205.460938 46.148438 205.460938 44.753906 C 205.460938 43.363281 207.546875 43.363281 207.546875 44.753906 "/>
<path style=" stroke:none;fill-rule:nonzero;fill:rgb(100%,84.3%,0%);fill-opacity:1;" d="M 132.363281 44.753906 C 132.363281 46.148438 130.277344 46.148438 130.277344 44.753906 C 130.277344 43.363281 132.363281 43.363281 132.363281 44.753906 "/>
<path style=" stroke:none;fill-rule:nonzero;fill:rgb(100%,84.3%,0%);fill-opacity:1;" d="M 211.726562 467.246094 C 211.726562 468.636719 209.636719 468.636719 209.636719 467.246094 C 209.636719 465.851562 211.726562 465.851562 211.726562 467.246094 "/>
<path style=" stroke:none;fill-rule:nonzero;fill:rgb(100%,84.3%,0%);fill-opacity:1;" d="M 318.234375 467.246094 C 318.234375 468.636719 316.148438 468.636719 316.148438 467.246094 C 316.148438 465.851562 318.234375 465.851562 318.234375 467.246094 "/>
<path style=" stroke:none;fill-rule:nonzero;fill:rgb(100%,84.3%,0%);fill-opacity:1;" d="M 192.929688 44.753906 C 192.929688 46.148438 190.839844 46.148438 190.839844 44.753906 C 190.839844 43.363281 192.929688 43.363281 192.929688 44.753906 "/>
<path style=" stroke:none;fill-rule:nonzero;fill:rgb(100%,84.3%,0%);fill-opacity:1;" d="M 324.5 44.753906 C 324.5 46.148438 322.410156 46.148438 322.410156 44.753906 C 322.410156 43.363281 324.5 43.363281 324.5 44.753906 "/>
<path style=" stroke:none;fill-rule:nonzero;fill:rgb(100%,84.3%,0%);fill-opacity:1;" d="M 363.761719 460.5625 C 363.761719 461.953125 361.675781 461.953125 361.675781 460.5625 C 361.675781 459.167969 363.761719 459.167969 363.761719 460.5625 "/>
<path style=" stroke:none;fill-rule:nonzero;fill:rgb(100%,84.3%,0%);fill-opacity:1;" d="M 257.671875 44.753906 C 257.671875 46.148438 255.582031 46.148438 255.582031 44.753906 C 255.582031 43.363281 257.671875 43.363281 257.671875 44.753906 "/>
<path style=" stroke:none;fill-rule:nonzero;fill:rgb(100%,84.3%,0%);fill-opacity:1;" d="M 226.34375 467.246094 C 226.34375 468.636719 224.253906 468.636719 224.253906 467.246094 C 224.253906 465.851562 226.34375 465.851562 226.34375 467.246094 "/>
<path style=" stroke:none;fill-rule:nonzero;fill:rgb(100%,84.3%,0%);fill-opacity:1;" d="M 176.222656 467.246094 C 176.222656 468.636719 174.132812 468.636719 174.132812 467.246094 C 174.132812 465.851562 176.222656 465.851562 176.222656 467.246094 "/>
<path style=" stroke:none;fill-rule:nonzero;fill:rgb(100%,84.3%,0%);fill-opacity:1;" d="M 349.5625 467.246094 C 349.5625 468.636719 347.472656 468.636719 347.472656 467.246094 C 347.472656 465.851562 349.5625 465.851562 349.5625 467.246094 "/>
<path style=" stroke:none;fill-rule:nonzero;fill:rgb(100%,84.3%,0%);fill-opacity:1;" d="M 134.453125 44.753906 C 134.453125 46.148438 132.363281 46.148438 132.363281 44.753906 C 132.363281 43.363281 134.453125 43.363281 134.453125 44.753906 "/>
<path style=" stroke:none;fill-rule:nonzero;fill:rgb(100%,84.3%,0%);fill-opacity:1;" d="M 307.792969 44.753906 C 307.792969 46.148438 305.703125 46.148438 305.703125 44.753906 C 305.703125 43.363281 307.792969 43.363281 307.792969 44.753906 "/>
<path style=" stroke:none;fill-rule:nonzero;fill:rgb(100%,84.3%,0%);fill-opacity:1;" d="M 363.761719 61.671875 C 363.761719 63.0625 361.675781 63.0625 361.675781 61.671875 C 361.675781 60.277344 363.761719 60.277344 363.761719 61.671875 "/>
<path style=" stroke:none;fill-rule:nonzero;fill:rgb(100%,84.3%,0%);fill-opacity:1;" d="M 179.355469 46.566406 C 179.355469 47.957031 177.265625 47.957031 177.265625 46.566406 C 177.265625 45.171875 179.355469 45.171875 179.355469 46.566406 "/>
<path style=" stroke:none;fill-rule:nonzero;fill:rgb(100%,84.3%,0%);fill-opacity:1;" d="M 249.316406 44.753906 C 249.316406 46.148438 247.230469 46.148438 247.230469 44.753906 C 247.230469 43.363281 249.316406 43.363281 249.316406 44.753906 "/>
<path style=" stroke:none;fill-rule:nonzero;fill:rgb(100%,84.3%,0%);fill-opacity:1;" d="M 184.574219 467.246094 C 184.574219 468.636719 182.488281 468.636719 182.488281 467.246094 C 182.488281 465.851562 184.574219 465.851562 184.574219 467.246094 "/>
<path style=" stroke:none;fill-rule:nonzero;fill:rgb(100%,84.3%,0%);fill-opacity:1;" d="M 238.875 44.753906 C 238.875 46.148438 236.785156 46.148438 236.785156 44.753906 C 236.785156 43.363281 238.875 43.363281 238.875 44.753906 "/>
<path style=" stroke:none;fill-rule:nonzero;fill:rgb(100%,84.3%,0%);fill-opacity:1;" d="M 351.648438 44.753906 C 351.648438 46.148438 349.5625 46.148438 349.5625 44.753906 C 349.5625 43.363281 351.648438 43.363281 351.648438 44.753906 "/>
<path style=" stroke:none;fill-rule:nonzero;fill:rgb(100%,84.3%,0%);fill-opacity:1;" d="M 220.078125 44.753906 C 220.078125 46.148438 217.992188 46.148438 217.992188 44.753906 C 217.992188 43.363281 220.078125 43.363281 220.078125 44.753906 "/>
<path style=" stroke:none;fill-rule:nonzero;fill:rgb(100%,84.3%,0%);fill-opacity:1;" d="M 153.25 467.246094 C 153.25 468.636719 151.160156 468.636719 151.160156 467.246094 C 151.160156 465.851562 153.25 465.851562 153.25 467.246094 "/>
<path style=" stroke:none;fill-rule:nonzero;fill:rgb(100%,84.3%,0%);fill-opacity:1;" d="M 353.738281 467.246094 C 353.738281 468.636719 351.648438 468.636719 351.648438 467.246094 C 351.648438 465.851562 353.738281 465.851562 353.738281 467.246094 "/>
<path style=" stroke:none;fill-rule:nonzero;fill:rgb(100%,84.3%,0%);fill-opacity:1;" d="M 347.472656 44.753906 C 347.472656 46.148438 345.386719 46.148438 345.386719 44.753906 C 345.386719 43.363281 347.472656 43.363281 347.472656 44.753906 "/>
<path style=" stroke:none;fill-rule:nonzero;fill:rgb(100%,84.3%,0%);fill-opacity:1;" d="M 203.371094 44.753906 C 203.371094 46.148438 201.28125 46.148438 201.28125 44.753906 C 201.28125 43.363281 203.371094 43.363281 203.371094 44.753906 "/>
<path style=" stroke:none;fill-rule:nonzero;fill:rgb(100%,84.3%,0%);fill-opacity:1;" d="M 305.703125 467.246094 C 305.703125 468.636719 303.617188 468.636719 303.617188 467.246094 C 303.617188 465.851562 305.703125 465.851562 305.703125 467.246094 "/>
<path style=" stroke:none;fill-rule:nonzero;fill:rgb(100%,84.3%,0%);fill-opacity:1;" d="M 197.105469 44.753906 C 197.105469 46.148438 195.019531 46.148438 195.019531 44.753906 C 195.019531 43.363281 197.105469 43.363281 197.105469 44.753906 "/>
<path style=" stroke:none;fill-rule:nonzero;fill:rgb(100%,84.3%,0%);fill-opacity:1;" d="M 38.386719 44.753906 C 38.386719 46.148438 36.296875 46.148438 36.296875 44.753906 C 36.296875 43.363281 38.386719 43.363281 38.386719 44.753906 "/>
<path style=" stroke:none;fill-rule:nonzero;fill:rgb(100%,84.3%,0%);fill-opacity:1;" d="M 236.785156 44.753906 C 236.785156 46.148438 234.699219 46.148438 234.699219 44.753906 C 234.699219 43.363281 236.785156 43.363281 236.785156 44.753906 "/>
<path style=" stroke:none;fill-rule:nonzero;fill:rgb(100%,84.3%,0%);fill-opacity:1;" d="M 303.617188 467.246094 C 303.617188 468.636719 301.527344 468.636719 301.527344 467.246094 C 301.527344 465.851562 303.617188 465.851562 303.617188 467.246094 "/>
<path style=" stroke:none;fill-rule:nonzero;fill:rgb(100%,84.3%,0%);fill-opacity:1;" d="M 255.582031 44.753906 C 255.582031 46.148438 253.492188 46.148438 253.492188 44.753906 C 253.492188 43.363281 255.582031 43.363281 255.582031 44.753906 "/>
<path style=" stroke:none;fill-rule:nonzero;fill:rgb(100%,84.3%,0%);fill-opacity:1;" d="M 353.738281 44.753906 C 353.738281 46.148438 351.648438 46.148438 351.648438 44.753906 C 351.648438 43.363281 353.738281 43.363281 353.738281 44.753906 "/>
<path style=" stroke:none;fill-rule:nonzero;fill:rgb(100%,84.3%,0%);fill-opacity:1;" d="M 355.828125 467.246094 C 355.828125 468.636719 353.738281 468.636719 353.738281 467.246094 C 353.738281 465.851562 355.828125 465.851562 355.828125 467.246094 "/>
<path style=" stroke:none;fill-rule:nonzero;fill:rgb(100%,84.3%,0%);fill-opacity:1;" d="M 322.414062 467.246094 C 322.414062 468.636719 320.324219 468.636719 320.324219 467.246094 C 320.324219 465.851562 322.414062 465.851562 322.414062 467.246094 "/>
<path style=" stroke:none;fill-rule:nonzero;fill:rgb(100%,84.3%,0%);fill-opacity:1;" d="M 305.703125 44.753906 C 305.703125 46.148438 303.617188 46.148438 303.617188 44.753906 C 303.617188 43.363281 305.703125 43.363281 305.703125 44.753906 "/>
<path style=" stroke:none;fill-rule:nonzero;fill:rgb(100%,84.3%,0%);fill-opacity:1;" d="M 128.1875 467.246094 C 128.1875 468.636719 126.101562 468.636719 126.101562 467.246094 C 126.101562 465.851562 128.1875 465.851562 128.1875 467.246094 "/>
<path style=" stroke:none;fill-rule:nonzero;fill:rgb(100%,84.3%,0%);fill-opacity:1;" d="M 217.988281 44.753906 C 217.988281 46.148438 215.902344 46.148438 215.902344 44.753906 C 215.902344 43.363281 217.988281 43.363281 217.988281 44.753906 "/>
<path style=" stroke:none;fill-rule:nonzero;fill:rgb(100%,84.3%,0%);fill-opacity:1;" d="M 347.472656 467.246094 C 347.472656 468.636719 345.386719 468.636719 345.386719 467.246094 C 345.386719 465.851562 347.472656 465.851562 347.472656 467.246094 "/>
<path style=" stroke:none;fill-rule:nonzero;fill:rgb(100%,84.3%,0%);fill-opacity:1;" d="M 44.648438 467.246094 C 44.648438 468.636719 42.5625 468.636719 42.5625 467.246094 C 42.5625 465.851562 44.648438 465.851562 44.648438 467.246094 "/>
<path style=" stroke:none;fill-rule:nonzero;fill:rgb(100%,84.3%,0%);fill-opacity:1;" d="M 253.496094 44.753906 C 253.496094 46.148438 251.40625 46.148438 251.40625 44.753906 C 251.40625 43.363281 253.496094 43.363281 253.496094 44.753906 "/>
<path style=" stroke:none;fill-rule:nonzero;fill:rgb(100%,84.3%,0%);fill-opacity:1;" d="M 161.601562 44.753906 C 161.601562 46.148438 159.515625 46.148438 159.515625 44.753906 C 159.515625 43.363281 161.601562 43.363281 161.601562 44.753906 "/>
<path style=" stroke:none;fill-rule:nonzero;fill:rgb(100%,84.3%,0%);fill-opacity:1;" d="M 328.675781 44.753906 C 328.675781 46.148438 326.589844 46.148438 326.589844 44.753906 C 326.589844 43.363281 328.675781 43.363281 328.675781 44.753906 "/>
<path style=" stroke:none;fill-rule:nonzero;fill:rgb(100%,84.3%,0%);fill-opacity:1;" d="M 142.808594 467.246094 C 142.808594 468.636719 140.71875 468.636719 140.71875 467.246094 C 140.71875 465.851562 142.808594 465.851562 142.808594 467.246094 "/>
<path style=" stroke:none;fill-rule:nonzero;fill:rgb(100%,84.3%,0%);fill-opacity:1;" d="M 169.957031 467.246094 C 169.957031 468.636719 167.867188 468.636719 167.867188 467.246094 C 167.867188 465.851562 169.957031 465.851562 169.957031 467.246094 "/>
<path style=" stroke:none;fill-rule:nonzero;fill:rgb(100%,84.3%,0%);fill-opacity:1;" d="M 363.761719 454.296875 C 363.761719 455.6875 361.675781 455.6875 361.675781 454.296875 C 361.675781 452.90625 363.761719 452.90625 363.761719 454.296875 "/>
<path style=" stroke:none;fill-rule:nonzero;fill:rgb(100%,84.3%,0%);fill-opacity:1;" d="M 217.988281 467.246094 C 217.988281 468.636719 215.902344 468.636719 215.902344 467.246094 C 215.902344 465.851562 217.988281 465.851562 217.988281 467.246094 "/>
<path style=" stroke:none;fill-rule:nonzero;fill:rgb(100%,84.3%,0%);fill-opacity:1;" d="M 328.675781 467.246094 C 328.675781 468.636719 326.589844 468.636719 326.589844 467.246094 C 326.589844 465.851562 328.675781 465.851562 328.675781 467.246094 "/>
<path style=" stroke:none;fill-rule:nonzero;fill:rgb(100%,84.3%,0%);fill-opacity:1;" d="M 309.882812 44.753906 C 309.882812 46.148438 307.792969 46.148438 307.792969 44.753906 C 307.792969 43.363281 309.882812 43.363281 309.882812 44.753906 "/>
<path style=" stroke:none;fill-rule:nonzero;fill:rgb(100%,84.3%,0%);fill-opacity:1;" d="M 71.800781 467.246094 C 71.800781 468.636719 69.710938 468.636719 69.710938 467.246094 C 69.710938 465.851562 71.800781 465.851562 71.800781 467.246094 "/>
<path style=" stroke:none;fill-rule:nonzero;fill:rgb(100%,84.3%,0%);fill-opacity:1;" d="M 363.761719 467.246094 C 363.761719 468.636719 361.675781 468.636719 361.675781 467.246094 C 361.675781 465.851562 363.761719 465.851562 363.761719 467.246094 "/>
<path style=" stroke:none;fill-rule:nonzero;fill:rgb(100%,84.3%,0%);fill-opacity:1;" d="M 363.761719 55.40625 C 363.761719 56.796875 361.675781 56.796875 361.675781 55.40625 C 361.675781 54.015625 363.761719 54.015625 363.761719 55.40625 "/>
<path style=" stroke:none;fill-rule:nonzero;fill:rgb(100%,84.3%,0%);fill-opacity:1;" d="M 144.894531 467.246094 C 144.894531 468.636719 142.808594 468.636719 142.808594 467.246094 C 142.808594 465.851562 144.894531 465.851562 144.894531 467.246094 "/>
<path style=" stroke:none;fill-rule:nonzero;fill:rgb(100%,84.3%,0%);fill-opacity:1;" d="M 205.460938 44.753906 C 205.460938 46.148438 203.371094 46.148438 203.371094 44.753906 C 203.371094 43.363281 205.460938 43.363281 205.460938 44.753906 "/>
<path style=" stroke:none;fill-rule:nonzero;fill:rgb(100%,84.3%,0%);fill-opacity:1;" d="M 308.835938 465.433594 C 308.835938 466.828125 306.75 466.828125 306.75 465.433594 C 306.75 464.042969 308.835938 464.042969 308.835938 465.433594 "/>
<path style=" stroke:none;fill-rule:nonzero;fill:rgb(100%,84.3%,0%);fill-opacity:1;" d="M 283.777344 46.566406 C 283.777344 47.957031 281.6875 47.957031 281.6875 46.566406 C 281.6875 45.171875 283.777344 45.171875 283.777344 46.566406 "/>
<path style=" stroke:none;fill-rule:nonzero;fill:rgb(100%,84.3%,0%);fill-opacity:1;" d="M 361.046875 465.433594 C 361.046875 466.828125 358.960938 466.828125 358.960938 465.433594 C 358.960938 464.042969 361.046875 464.042969 361.046875 465.433594 "/>
<path style=" stroke:none;fill-rule:nonzero;fill:rgb(100%,84.3%,0%);fill-opacity:1;" d="M 44.648438 44.753906 C 44.648438 46.148438 42.5625 46.148438 42.5625 44.753906 C 42.5625 43.363281 44.648438 43.363281 44.648438 44.753906 "/>
<path style=" stroke:none;fill-rule:nonzero;fill:rgb(100%,84.3%,0%);fill-opacity:1;" d="M 363.761719 95.085938 C 363.761719 96.476562 361.675781 96.476562 361.675781 95.085938 C 361.675781 93.695312 363.761719 93.695312 363.761719 95.085938 "/>
<path style=" stroke:none;fill-rule:nonzero;fill:rgb(100%,84.3%,0%);fill-opacity:1;" d="M 155.335938 467.246094 C 155.335938 468.636719 153.25 468.636719 153.25 467.246094 C 153.25 465.851562 155.335938 465.851562 155.335938 467.246094 "/>
<path style=" stroke:none;fill-rule:nonzero;fill:rgb(100%,84.3%,0%);fill-opacity:1;" d="M 245.140625 44.753906 C 245.140625 46.148438 243.050781 46.148438 243.050781 44.753906 C 243.050781 43.363281 245.140625 43.363281 245.140625 44.753906 "/>
<path style=" stroke:none;fill-rule:nonzero;fill:rgb(100%,84.3%,0%);fill-opacity:1;" d="M 78.066406 467.246094 C 78.066406 468.636719 75.976562 468.636719 75.976562 467.246094 C 75.976562 465.851562 78.066406 465.851562 78.066406 467.246094 "/>
<path style=" stroke:none;fill-rule:nonzero;fill:rgb(100%,84.3%,0%);fill-opacity:1;" d="M 172.046875 44.753906 C 172.046875 46.148438 169.957031 46.148438 169.957031 44.753906 C 169.957031 43.363281 172.046875 43.363281 172.046875 44.753906 "/>
<path style=" stroke:none;fill-rule:nonzero;fill:rgb(100%,84.3%,0%);fill-opacity:1;" d="M 277.511719 46.566406 C 277.511719 47.957031 275.421875 47.957031 275.421875 46.566406 C 275.421875 45.171875 277.511719 45.171875 277.511719 46.566406 "/>
<path style=" stroke:none;fill-rule:nonzero;fill:rgb(100%,84.3%,0%);fill-opacity:1;" d="M 157.425781 467.246094 C 157.425781 468.636719 155.335938 468.636719 155.335938 467.246094 C 155.335938 465.851562 157.425781 465.851562 157.425781 467.246094 "/>
<path style=" stroke:none;fill-rule:nonzero;fill:rgb(100%,84.3%,0%);fill-opacity:1;" d="M 363.761719 450.121094 C 363.761719 451.511719 361.675781 451.511719 361.675781 450.121094 C 361.675781 448.726562 363.761719 448.726562 363.761719 450.121094 "/>
<path style=" stroke:none;fill-rule:nonzero;fill:rgb(100%,84.3%,0%);fill-opacity:1;" d="M 363.761719 44.753906 C 363.761719 46.148438 361.675781 46.148438 361.675781 44.753906 C 361.675781 43.363281 363.761719 43.363281 363.761719 44.753906 "/>
<path style=" stroke:none;fill-rule:nonzero;fill:rgb(100%,84.3%,0%);fill-opacity:1;" d="M 174.132812 467.246094 C 174.132812 468.636719 172.042969 468.636719 172.042969 467.246094 C 172.042969 465.851562 174.132812 465.851562 174.132812 467.246094 "/>
<path style=" stroke:none;fill-rule:nonzero;fill:rgb(100%,84.3%,0%);fill-opacity:1;" d="M 326.589844 44.753906 C 326.589844 46.148438 324.5 46.148438 324.5 44.753906 C 324.5 43.363281 326.589844 43.363281 326.589844 44.753906 "/>
<path style=" stroke:none;fill-rule:nonzero;fill:rgb(100%,84.3%,0%);fill-opacity:1;" d="M 121.921875 467.246094 C 121.921875 468.636719 119.832031 468.636719 119.832031 467.246094 C 119.832031 465.851562 121.921875 465.851562 121.921875 467.246094 "/>
<path style=" stroke:none;fill-rule:nonzero;fill:rgb(100%,84.3%,0%);fill-opacity:1;" d="M 190.839844 467.246094 C 190.839844 468.636719 188.753906 468.636719 188.753906 467.246094 C 188.753906 465.851562 190.839844 465.851562 190.839844 467.246094 "/>
<path style=" stroke:none;fill-rule:nonzero;fill:rgb(100%,84.3%,0%);fill-opacity:1;" d="M 130.277344 44.753906 C 130.277344 46.148438 128.1875 46.148438 128.1875 44.753906 C 128.1875 43.363281 130.277344 43.363281 130.277344 44.753906 "/>
<path style=" stroke:none;fill-rule:nonzero;fill:rgb(100%,84.3%,0%);fill-opacity:1;" d="M 363.761719 445.941406 C 363.761719 447.335938 361.675781 447.335938 361.675781 445.941406 C 361.675781 444.550781 363.761719 444.550781 363.761719 445.941406 "/>
<path style=" stroke:none;fill-rule:nonzero;fill:rgb(100%,84.3%,0%);fill-opacity:1;" d="M 201.285156 44.753906 C 201.285156 46.148438 199.195312 46.148438 199.195312 44.753906 C 199.195312 43.363281 201.285156 43.363281 201.285156 44.753906 "/>
<path style=" stroke:none;fill-rule:nonzero;fill:rgb(100%,84.3%,0%);fill-opacity:1;" d="M 288.996094 467.246094 C 288.996094 468.636719 286.910156 468.636719 286.910156 467.246094 C 286.910156 465.851562 288.996094 465.851562 288.996094 467.246094 "/>
<path style=" stroke:none;fill-rule:nonzero;fill:rgb(100%,84.3%,0%);fill-opacity:1;" d="M 220.078125 467.246094 C 220.078125 468.636719 217.992188 468.636719 217.992188 467.246094 C 217.992188 465.851562 220.078125 465.851562 220.078125 467.246094 "/>
<path style=" stroke:none;fill-rule:nonzero;fill:rgb(100%,84.3%,0%);fill-opacity:1;" d="M 291.085938 467.246094 C 291.085938 468.636719 288.996094 468.636719 288.996094 467.246094 C 288.996094 465.851562 291.085938 465.851562 291.085938 467.246094 "/>
<path style=" stroke:none;fill-rule:nonzero;fill:rgb(100%,84.3%,0%);fill-opacity:1;" d="M 46.738281 44.753906 C 46.738281 46.148438 44.652344 46.148438 44.652344 44.753906 C 44.652344 43.363281 46.738281 43.363281 46.738281 44.753906 "/>
<path style=" stroke:none;fill-rule:nonzero;fill:rgb(100%,84.3%,0%);fill-opacity:1;" d="M 332.855469 467.246094 C 332.855469 468.636719 330.765625 468.636719 330.765625 467.246094 C 330.765625 465.851562 332.855469 465.851562 332.855469 467.246094 "/>
<path style=" stroke:none;fill-rule:nonzero;fill:rgb(100%,84.3%,0%);fill-opacity:1;" d="M 186.664062 467.246094 C 186.664062 468.636719 184.574219 468.636719 184.574219 467.246094 C 184.574219 465.851562 186.664062 465.851562 186.664062 467.246094 "/>
<path style=" stroke:none;fill-rule:nonzero;fill:rgb(100%,84.3%,0%);fill-opacity:1;" d="M 183.53125 46.566406 C 183.53125 47.957031 181.441406 47.957031 181.441406 46.566406 C 181.441406 45.171875 183.53125 45.171875 183.53125 46.566406 "/>
<path style=" stroke:none;fill-rule:nonzero;fill:rgb(100%,84.3%,0%);fill-opacity:1;" d="M 234.699219 467.246094 C 234.699219 468.636719 232.609375 468.636719 232.609375 467.246094 C 232.609375 465.851562 234.699219 465.851562 234.699219 467.246094 "/>
<path style=" stroke:none;fill-rule:nonzero;fill:rgb(100%,84.3%,0%);fill-opacity:1;" d="M 345.386719 467.246094 C 345.386719 468.636719 343.296875 468.636719 343.296875 467.246094 C 343.296875 465.851562 345.386719 465.851562 345.386719 467.246094 "/>
<path style=" stroke:none;fill-rule:nonzero;fill:rgb(100%,84.3%,0%);fill-opacity:1;" d="M 263.9375 467.246094 C 263.9375 468.636719 261.847656 468.636719 261.847656 467.246094 C 261.847656 465.851562 263.9375 465.851562 263.9375 467.246094 "/>
<path style=" stroke:none;fill-rule:nonzero;fill:rgb(100%,84.3%,0%);fill-opacity:1;" d="M 306.75 465.433594 C 306.75 466.828125 304.660156 466.828125 304.660156 465.433594 C 304.660156 464.042969 306.75 464.042969 306.75 465.433594 "/>
<path style=" stroke:none;fill-rule:nonzero;fill:rgb(100%,84.3%,0%);fill-opacity:1;" d="M 261.847656 44.753906 C 261.847656 46.148438 259.757812 46.148438 259.757812 44.753906 C 259.757812 43.363281 261.847656 43.363281 261.847656 44.753906 "/>
<path style=" stroke:none;fill-rule:nonzero;fill:rgb(100%,84.3%,0%);fill-opacity:1;" d="M 224.257812 44.753906 C 224.257812 46.148438 222.167969 46.148438 222.167969 44.753906 C 222.167969 43.363281 224.257812 43.363281 224.257812 44.753906 "/>
<path style=" stroke:none;fill-rule:nonzero;fill:rgb(100%,84.3%,0%);fill-opacity:1;" d="M 209.636719 467.246094 C 209.636719 468.636719 207.546875 468.636719 207.546875 467.246094 C 207.546875 465.851562 209.636719 465.851562 209.636719 467.246094 "/>
<path style=" stroke:none;fill-rule:nonzero;fill:rgb(100%,84.3%,0%);fill-opacity:1;" d="M 174.132812 44.753906 C 174.132812 46.148438 172.042969 46.148438 172.042969 44.753906 C 172.042969 43.363281 174.132812 43.363281 174.132812 44.753906 "/>
<path style=" stroke:none;fill-rule:nonzero;fill:rgb(100%,84.3%,0%);fill-opacity:1;" d="M 126.097656 44.753906 C 126.097656 46.148438 124.011719 46.148438 124.011719 44.753906 C 124.011719 43.363281 126.097656 43.363281 126.097656 44.753906 "/>
<path style=" stroke:none;fill-rule:nonzero;fill:rgb(100%,84.3%,0%);fill-opacity:1;" d="M 249.316406 467.246094 C 249.316406 468.636719 247.230469 468.636719 247.230469 467.246094 C 247.230469 465.851562 249.316406 465.851562 249.316406 467.246094 "/>
<path style=" stroke:none;fill-rule:nonzero;fill:rgb(100%,84.3%,0%);fill-opacity:1;" d="M 190.839844 44.753906 C 190.839844 46.148438 188.753906 46.148438 188.753906 44.753906 C 188.753906 43.363281 190.839844 43.363281 190.839844 44.753906 "/>
<path style=" stroke:none;fill-rule:nonzero;fill:rgb(100%,84.3%,0%);fill-opacity:1;" d="M 299.4375 467.246094 C 299.4375 468.636719 297.351562 468.636719 297.351562 467.246094 C 297.351562 465.851562 299.4375 465.851562 299.4375 467.246094 "/>
<path style=" stroke:none;fill-rule:nonzero;fill:rgb(100%,84.3%,0%);fill-opacity:1;" d="M 149.070312 467.246094 C 149.070312 468.636719 146.984375 468.636719 146.984375 467.246094 C 146.984375 465.851562 149.070312 465.851562 149.070312 467.246094 "/>
<path style=" stroke:none;fill-rule:nonzero;fill:rgb(100%,84.3%,0%);fill-opacity:1;" d="M 326.589844 467.246094 C 326.589844 468.636719 324.5 468.636719 324.5 467.246094 C 324.5 465.851562 326.589844 465.851562 326.589844 467.246094 "/>
<path style=" stroke:none;fill-rule:nonzero;fill:rgb(100%,84.3%,0%);fill-opacity:1;" d="M 48.828125 44.753906 C 48.828125 46.148438 46.738281 46.148438 46.738281 44.753906 C 46.738281 43.363281 48.828125 43.363281 48.828125 44.753906 "/>
<path style=" stroke:none;fill-rule:nonzero;fill:rgb(100%,84.3%,0%);fill-opacity:1;" d="M 134.453125 467.246094 C 134.453125 468.636719 132.363281 468.636719 132.363281 467.246094 C 132.363281 465.851562 134.453125 465.851562 134.453125 467.246094 "/>
<path style=" stroke:none;fill-rule:nonzero;fill:rgb(100%,84.3%,0%);fill-opacity:1;" d="M 297.351562 44.753906 C 297.351562 46.148438 295.261719 46.148438 295.261719 44.753906 C 295.261719 43.363281 297.351562 43.363281 297.351562 44.753906 "/>
<path style=" stroke:none;fill-rule:nonzero;fill:rgb(100%,84.3%,0%);fill-opacity:1;" d="M 192.929688 467.246094 C 192.929688 468.636719 190.839844 468.636719 190.839844 467.246094 C 190.839844 465.851562 192.929688 465.851562 192.929688 467.246094 "/>
<path style=" stroke:none;fill-rule:nonzero;fill:rgb(100%,84.3%,0%);fill-opacity:1;" d="M 299.4375 44.753906 C 299.4375 46.148438 297.351562 46.148438 297.351562 44.753906 C 297.351562 43.363281 299.4375 43.363281 299.4375 44.753906 "/>
<path style=" stroke:none;fill-rule:nonzero;fill:rgb(100%,84.3%,0%);fill-opacity:1;" d="M 363.761719 92.996094 C 363.761719 94.390625 361.675781 94.390625 361.675781 92.996094 C 361.675781 91.605469 363.761719 91.605469 363.761719 92.996094 "/>
<path style=" stroke:none;fill-rule:nonzero;fill:rgb(100%,84.3%,0%);fill-opacity:1;" d="M 36.296875 467.246094 C 36.296875 468.636719 34.207031 468.636719 34.207031 467.246094 C 34.207031 465.851562 36.296875 465.851562 36.296875 467.246094 "/>
<path style=" stroke:none;fill-rule:nonzero;fill:rgb(100%,84.3%,0%);fill-opacity:1;" d="M 214.859375 46.566406 C 214.859375 47.957031 212.769531 47.957031 212.769531 46.566406 C 212.769531 45.171875 214.859375 45.171875 214.859375 46.566406 "/>
<path style=" stroke:none;fill-rule:nonzero;fill:rgb(100%,84.3%,0%);fill-opacity:1;" d="M 316.148438 467.246094 C 316.148438 468.636719 314.058594 468.636719 314.058594 467.246094 C 314.058594 465.851562 316.148438 465.851562 316.148438 467.246094 "/>
<path style=" stroke:none;fill-rule:nonzero;fill:rgb(100%,84.3%,0%);fill-opacity:1;" d="M 146.984375 467.246094 C 146.984375 468.636719 144.894531 468.636719 144.894531 467.246094 C 144.894531 465.851562 146.984375 465.851562 146.984375 467.246094 "/>
<path style=" stroke:none;fill-rule:nonzero;fill:rgb(100%,84.3%,0%);fill-opacity:1;" d="M 126.097656 467.246094 C 126.097656 468.636719 124.011719 468.636719 124.011719 467.246094 C 124.011719 465.851562 126.097656 465.851562 126.097656 467.246094 "/>
<path style=" stroke:none;fill-rule:nonzero;fill:rgb(100%,84.3%,0%);fill-opacity:1;" d="M 238.875 467.246094 C 238.875 468.636719 236.785156 468.636719 236.785156 467.246094 C 236.785156 465.851562 238.875 465.851562 238.875 467.246094 "/>
<path style=" stroke:none;fill-rule:nonzero;fill:rgb(100%,84.3%,0%);fill-opacity:1;" d="M 40.472656 44.753906 C 40.472656 46.148438 38.386719 46.148438 38.386719 44.753906 C 38.386719 43.363281 40.472656 43.363281 40.472656 44.753906 "/>
<path style=" stroke:none;fill-rule:nonzero;fill:rgb(100%,84.3%,0%);fill-opacity:1;" d="M 363.761719 464.738281 C 363.761719 466.132812 361.675781 466.132812 361.675781 464.738281 C 361.675781 463.347656 363.761719 463.347656 363.761719 464.738281 "/>
<path style=" stroke:none;fill-rule:nonzero;fill:rgb(100%,84.3%,0%);fill-opacity:1;" d="M 363.761719 63.761719 C 363.761719 65.152344 361.675781 65.152344 361.675781 63.761719 C 361.675781 62.367188 363.761719 62.367188 363.761719 63.761719 "/>
<path style=" stroke:none;fill-rule:nonzero;fill:rgb(100%,84.3%,0%);fill-opacity:1;" d="M 361.953125 461.605469 C 361.953125 463 359.863281 463 359.863281 461.605469 C 359.863281 460.214844 361.953125 460.214844 361.953125 461.605469 "/>
<path style=" stroke:none;fill-rule:nonzero;fill:rgb(100%,84.3%,0%);fill-opacity:1;" d="M 243.050781 467.246094 C 243.050781 468.636719 240.964844 468.636719 240.964844 467.246094 C 240.964844 465.851562 243.050781 465.851562 243.050781 467.246094 "/>
<path style=" stroke:none;fill-rule:nonzero;fill:rgb(100%,84.3%,0%);fill-opacity:1;" d="M 86.417969 44.753906 C 86.417969 46.148438 84.332031 46.148438 84.332031 44.753906 C 84.332031 43.363281 86.417969 43.363281 86.417969 44.753906 "/>
<path style=" stroke:none;fill-rule:nonzero;fill:rgb(100%,84.3%,0%);fill-opacity:1;" d="M 36.296875 462.648438 C 36.296875 464.042969 34.207031 464.042969 34.207031 462.648438 C 34.207031 461.257812 36.296875 461.257812 36.296875 462.648438 "/>
<path style=" stroke:none;fill-rule:nonzero;fill:rgb(100%,84.3%,0%);fill-opacity:1;" d="M 201.285156 467.246094 C 201.285156 468.636719 199.195312 468.636719 199.195312 467.246094 C 199.195312 465.851562 201.285156 465.851562 201.285156 467.246094 "/>
<path style=" stroke:none;fill-rule:nonzero;fill:rgb(100%,84.3%,0%);fill-opacity:1;" d="M 195.019531 44.753906 C 195.019531 46.148438 192.929688 46.148438 192.929688 44.753906 C 192.929688 43.363281 195.019531 43.363281 195.019531 44.753906 "/>
<path style=" stroke:none;fill-rule:nonzero;fill:rgb(100%,84.3%,0%);fill-opacity:1;" d="M 360.003906 44.753906 C 360.003906 46.148438 357.914062 46.148438 357.914062 44.753906 C 357.914062 43.363281 360.003906 43.363281 360.003906 44.753906 "/>
<path style=" stroke:none;fill-rule:nonzero;fill:rgb(100%,84.3%,0%);fill-opacity:1;" d="M 146.984375 44.753906 C 146.984375 46.148438 144.894531 46.148438 144.894531 44.753906 C 144.894531 43.363281 146.984375 43.363281 146.984375 44.753906 "/>
<path style=" stroke:none;fill-rule:nonzero;fill:rgb(100%,84.3%,0%);fill-opacity:1;" d="M 215.902344 44.753906 C 215.902344 46.148438 213.8125 46.148438 213.8125 44.753906 C 213.8125 43.363281 215.902344 43.363281 215.902344 44.753906 "/>
<path style=" stroke:none;fill-rule:nonzero;fill:rgb(100%,84.3%,0%);fill-opacity:1;" d="M 199.195312 467.246094 C 199.195312 468.636719 197.105469 468.636719 197.105469 467.246094 C 197.105469 465.851562 199.195312 465.851562 199.195312 467.246094 "/>
<path style=" stroke:none;fill-rule:nonzero;fill:rgb(100%,84.3%,0%);fill-opacity:1;" d="M 263.9375 44.753906 C 263.9375 46.148438 261.847656 46.148438 261.847656 44.753906 C 261.847656 43.363281 263.9375 43.363281 263.9375 44.753906 "/>
<path style=" stroke:none;fill-rule:nonzero;fill:rgb(100%,84.3%,0%);fill-opacity:1;" d="M 155.335938 44.753906 C 155.335938 46.148438 153.25 46.148438 153.25 44.753906 C 153.25 43.363281 155.335938 43.363281 155.335938 44.753906 "/>
<path style=" stroke:none;fill-rule:nonzero;fill:rgb(100%,84.3%,0%);fill-opacity:1;" d="M 286.910156 467.246094 C 286.910156 468.636719 284.820312 468.636719 284.820312 467.246094 C 284.820312 465.851562 286.910156 465.851562 286.910156 467.246094 "/>
<path style=" stroke:none;fill-rule:nonzero;fill:rgb(100%,84.3%,0%);fill-opacity:1;" d="M 175.175781 46.566406 C 175.175781 47.957031 173.089844 47.957031 173.089844 46.566406 C 173.089844 45.171875 175.175781 45.171875 175.175781 46.566406 "/>
<path style=" stroke:none;fill-rule:nonzero;fill:rgb(100%,84.3%,0%);fill-opacity:1;" d="M 240.964844 467.246094 C 240.964844 468.636719 238.875 468.636719 238.875 467.246094 C 238.875 465.851562 240.964844 465.851562 240.964844 467.246094 "/>
<path style=" stroke:none;fill-rule:nonzero;fill:rgb(100%,84.3%,0%);fill-opacity:1;" d="M 180.398438 44.753906 C 180.398438 46.148438 178.3125 46.148438 178.3125 44.753906 C 178.3125 43.363281 180.398438 43.363281 180.398438 44.753906 "/>
<path style=" stroke:none;fill-rule:nonzero;fill:rgb(100%,84.3%,0%);fill-opacity:1;" d="M 172.046875 467.246094 C 172.046875 468.636719 169.957031 468.636719 169.957031 467.246094 C 169.957031 465.851562 172.046875 465.851562 172.046875 467.246094 "/>
<path style=" stroke:none;fill-rule:nonzero;fill:rgb(100%,84.3%,0%);fill-opacity:1;" d="M 301.527344 44.753906 C 301.527344 46.148438 299.441406 46.148438 299.441406 44.753906 C 299.441406 43.363281 301.527344 43.363281 301.527344 44.753906 "/>
<path style=" stroke:none;fill-rule:nonzero;fill:rgb(100%,84.3%,0%);fill-opacity:1;" d="M 339.121094 467.246094 C 339.121094 468.636719 337.03125 468.636719 337.03125 467.246094 C 337.03125 465.851562 339.121094 465.851562 339.121094 467.246094 "/>
<path style=" stroke:none;fill-rule:nonzero;fill:rgb(100%,84.3%,0%);fill-opacity:1;" d="M 36.296875 44.753906 C 36.296875 46.148438 34.207031 46.148438 34.207031 44.753906 C 34.207031 43.363281 36.296875 43.363281 36.296875 44.753906 "/>
<path style=" stroke:none;fill-rule:nonzero;fill:rgb(100%,84.3%,0%);fill-opacity:1;" d="M 282.730469 467.246094 C 282.730469 468.636719 280.644531 468.636719 280.644531 467.246094 C 280.644531 465.851562 282.730469 465.851562 282.730469 467.246094 "/>
<path style=" stroke:none;fill-rule:nonzero;fill:rgb(100%,84.3%,0%);fill-opacity:1;" d="M 330.765625 44.753906 C 330.765625 46.148438 328.679688 46.148438 328.679688 44.753906 C 328.679688 43.363281 330.765625 43.363281 330.765625 44.753906 "/>
<path style=" stroke:none;fill-rule:nonzero;fill:rgb(100%,84.3%,0%);fill-opacity:1;" d="M 339.121094 44.753906 C 339.121094 46.148438 337.03125 46.148438 337.03125 44.753906 C 337.03125 43.363281 339.121094 43.363281 339.121094 44.753906 "/>
<path style=" stroke:none;fill-rule:nonzero;fill:rgb(100%,84.3%,0%);fill-opacity:1;" d="M 284.820312 467.246094 C 284.820312 468.636719 282.730469 468.636719 282.730469 467.246094 C 282.730469 465.851562 284.820312 465.851562 284.820312 467.246094 "/>
<path style=" stroke:none;fill-rule:nonzero;fill:rgb(100%,84.3%,0%);fill-opacity:1;" d="M 243.050781 44.753906 C 243.050781 46.148438 240.964844 46.148438 240.964844 44.753906 C 240.964844 43.363281 243.050781 43.363281 243.050781 44.753906 "/>
<path style=" stroke:none;fill-rule:nonzero;fill:rgb(100%,84.3%,0%);fill-opacity:1;" d="M 279.597656 46.566406 C 279.597656 47.957031 277.511719 47.957031 277.511719 46.566406 C 277.511719 45.171875 279.597656 45.171875 279.597656 46.566406 "/>
<path style=" stroke:none;fill-rule:nonzero;fill:rgb(100%,84.3%,0%);fill-opacity:1;" d="M 167.867188 467.246094 C 167.867188 468.636719 165.78125 468.636719 165.78125 467.246094 C 165.78125 465.851562 167.867188 465.851562 167.867188 467.246094 "/>
<path style=" stroke:none;fill-rule:nonzero;fill:rgb(100%,84.3%,0%);fill-opacity:1;" d="M 42.5625 467.246094 C 42.5625 468.636719 40.472656 468.636719 40.472656 467.246094 C 40.472656 465.851562 42.5625 465.851562 42.5625 467.246094 "/>
<path style=" stroke:none;fill-rule:nonzero;fill:rgb(100%,84.3%,0%);fill-opacity:1;" d="M 157.425781 44.753906 C 157.425781 46.148438 155.335938 46.148438 155.335938 44.753906 C 155.335938 43.363281 157.425781 43.363281 157.425781 44.753906 "/>
<path style=" stroke:none;fill-rule:nonzero;fill:rgb(100%,84.3%,0%);fill-opacity:1;" d="M 167.867188 44.753906 C 167.867188 46.148438 165.78125 46.148438 165.78125 44.753906 C 165.78125 43.363281 167.867188 43.363281 167.867188 44.753906 "/>
<path style=" stroke:none;fill-rule:nonzero;fill:rgb(100%,84.3%,0%);fill-opacity:1;" d="M 311.96875 467.246094 C 311.96875 468.636719 309.882812 468.636719 309.882812 467.246094 C 309.882812 465.851562 311.96875 465.851562 311.96875 467.246094 "/>
<path style=" stroke:none;fill-rule:nonzero;fill:rgb(100%,84.3%,0%);fill-opacity:1;" d="M 119.835938 467.246094 C 119.835938 468.636719 117.746094 468.636719 117.746094 467.246094 C 117.746094 465.851562 119.835938 465.851562 119.835938 467.246094 "/>
<path style=" stroke:none;fill-rule:nonzero;fill:rgb(100%,84.3%,0%);fill-opacity:1;" d="M 209.636719 44.753906 C 209.636719 46.148438 207.546875 46.148438 207.546875 44.753906 C 207.546875 43.363281 209.636719 43.363281 209.636719 44.753906 "/>
<path style=" stroke:none;fill-rule:nonzero;fill:rgb(100%,84.3%,0%);fill-opacity:1;" d="M 186.664062 44.753906 C 186.664062 46.148438 184.574219 46.148438 184.574219 44.753906 C 184.574219 43.363281 186.664062 43.363281 186.664062 44.753906 "/>
<path style=" stroke:none;fill-rule:nonzero;fill:rgb(100%,84.3%,0%);fill-opacity:1;" d="M 251.40625 467.246094 C 251.40625 468.636719 249.316406 468.636719 249.316406 467.246094 C 249.316406 465.851562 251.40625 465.851562 251.40625 467.246094 "/>
<path style=" stroke:none;fill-rule:nonzero;fill:rgb(100%,84.3%,0%);fill-opacity:1;" d="M 55.09375 467.246094 C 55.09375 468.636719 53.003906 468.636719 53.003906 467.246094 C 53.003906 465.851562 55.09375 465.851562 55.09375 467.246094 "/>
<path style=" stroke:none;fill-rule:nonzero;fill:rgb(100%,84.3%,0%);fill-opacity:1;" d="M 320.324219 467.246094 C 320.324219 468.636719 318.234375 468.636719 318.234375 467.246094 C 318.234375 465.851562 320.324219 465.851562 320.324219 467.246094 "/>
<path style=" stroke:none;fill-rule:nonzero;fill:rgb(100%,84.3%,0%);fill-opacity:1;" d="M 111.480469 44.753906 C 111.480469 46.148438 109.390625 46.148438 109.390625 44.753906 C 109.390625 43.363281 111.480469 43.363281 111.480469 44.753906 "/>
<path style=" stroke:none;fill-rule:nonzero;fill:rgb(100%,84.3%,0%);fill-opacity:1;" d="M 213.8125 467.246094 C 213.8125 468.636719 211.726562 468.636719 211.726562 467.246094 C 211.726562 465.851562 213.8125 465.851562 213.8125 467.246094 "/>
<path style=" stroke:none;fill-rule:nonzero;fill:rgb(100%,84.3%,0%);fill-opacity:1;" d="M 355.828125 44.753906 C 355.828125 46.148438 353.738281 46.148438 353.738281 44.753906 C 353.738281 43.363281 355.828125 43.363281 355.828125 44.753906 "/>
<path style=" stroke:none;fill-rule:nonzero;fill:rgb(100%,84.3%,0%);fill-opacity:1;" d="M 297.351562 467.246094 C 297.351562 468.636719 295.261719 468.636719 295.261719 467.246094 C 295.261719 465.851562 297.351562 465.851562 297.351562 467.246094 "/>
<path style=" stroke:none;fill-rule:nonzero;fill:rgb(100%,84.3%,0%);fill-opacity:1;" d="M 293.175781 44.753906 C 293.175781 46.148438 291.085938 46.148438 291.085938 44.753906 C 291.085938 43.363281 293.175781 43.363281 293.175781 44.753906 "/>
<path style=" stroke:none;fill-rule:nonzero;fill:rgb(100%,84.3%,0%);fill-opacity:1;" d="M 53.003906 44.753906 C 53.003906 46.148438 50.914062 46.148438 50.914062 44.753906 C 50.914062 43.363281 53.003906 43.363281 53.003906 44.753906 "/>
<path style=" stroke:none;fill-rule:nonzero;fill:rgb(100%,84.3%,0%);fill-opacity:1;" d="M 322.414062 44.753906 C 322.414062 46.148438 320.324219 46.148438 320.324219 44.753906 C 320.324219 43.363281 322.414062 43.363281 322.414062 44.753906 "/>
<path style=" stroke:none;fill-rule:nonzero;fill:rgb(100%,84.3%,0%);fill-opacity:1;" d="M 136.542969 467.246094 C 136.542969 468.636719 134.453125 468.636719 134.453125 467.246094 C 134.453125 465.851562 136.542969 465.851562 136.542969 467.246094 "/>
<path style=" stroke:none;fill-rule:nonzero;fill:rgb(100%,84.3%,0%);fill-opacity:1;" d="M 272.289062 44.753906 C 272.289062 46.148438 270.203125 46.148438 270.203125 44.753906 C 270.203125 43.363281 272.289062 43.363281 272.289062 44.753906 "/>
<path style=" stroke:none;fill-rule:nonzero;fill:rgb(100%,84.3%,0%);fill-opacity:1;" d="M 177.265625 46.566406 C 177.265625 47.957031 175.179688 47.957031 175.179688 46.566406 C 175.179688 45.171875 177.265625 45.171875 177.265625 46.566406 "/>
<path style=" stroke:none;fill-rule:nonzero;fill:rgb(100%,84.3%,0%);fill-opacity:1;" d="M 363.761719 97.175781 C 363.761719 98.566406 361.675781 98.566406 361.675781 97.175781 C 361.675781 95.78125 363.761719 95.78125 363.761719 97.175781 "/>
<path style=" stroke:none;fill-rule:nonzero;fill:rgb(100%,84.3%,0%);fill-opacity:1;" d="M 363.761719 65.847656 C 363.761719 67.242188 361.675781 67.242188 361.675781 65.847656 C 361.675781 64.457031 363.761719 64.457031 363.761719 65.847656 "/>
<path style=" stroke:none;fill-rule:nonzero;fill:rgb(100%,84.3%,0%);fill-opacity:1;" d="M 363.761719 57.496094 C 363.761719 58.886719 361.675781 58.886719 361.675781 57.496094 C 361.675781 56.101562 363.761719 56.101562 363.761719 57.496094 "/>
<path style=" stroke:none;fill-rule:nonzero;fill:rgb(100%,84.3%,0%);fill-opacity:1;" d="M 280.644531 467.246094 C 280.644531 468.636719 278.554688 468.636719 278.554688 467.246094 C 278.554688 465.851562 280.644531 465.851562 280.644531 467.246094 "/>
<path style=" stroke:none;fill-rule:nonzero;fill:rgb(100%,84.3%,0%);fill-opacity:1;" d="M 178.308594 44.753906 C 178.308594 46.148438 176.222656 46.148438 176.222656 44.753906 C 176.222656 43.363281 178.308594 43.363281 178.308594 44.753906 "/>
<path style=" stroke:none;fill-rule:nonzero;fill:rgb(100%,84.3%,0%);fill-opacity:1;" d="M 363.761719 88.820312 C 363.761719 90.214844 361.675781 90.214844 361.675781 88.820312 C 361.675781 87.429688 363.761719 87.429688 363.761719 88.820312 "/>
<path style=" stroke:none;fill-rule:nonzero;fill:rgb(100%,84.3%,0%);fill-opacity:1;" d="M 117.746094 44.753906 C 117.746094 46.148438 115.65625 46.148438 115.65625 44.753906 C 115.65625 43.363281 117.746094 43.363281 117.746094 44.753906 "/>
<path style=" stroke:none;fill-rule:nonzero;fill:rgb(100%,84.3%,0%);fill-opacity:1;" d="M 169.957031 44.753906 C 169.957031 46.148438 167.867188 46.148438 167.867188 44.753906 C 167.867188 43.363281 169.957031 43.363281 169.957031 44.753906 "/>
<path style=" stroke:none;fill-rule:nonzero;fill:rgb(100%,84.3%,0%);fill-opacity:1;" d="M 278.554688 467.246094 C 278.554688 468.636719 276.464844 468.636719 276.464844 467.246094 C 276.464844 465.851562 278.554688 465.851562 278.554688 467.246094 "/>
<path style=" stroke:none;fill-rule:nonzero;fill:rgb(100%,84.3%,0%);fill-opacity:1;" d="M 341.207031 44.753906 C 341.207031 46.148438 339.121094 46.148438 339.121094 44.753906 C 339.121094 43.363281 341.207031 43.363281 341.207031 44.753906 "/>
<path style=" stroke:none;fill-rule:nonzero;fill:rgb(100%,84.3%,0%);fill-opacity:1;" d="M 363.761719 49.140625 C 363.761719 50.535156 361.675781 50.535156 361.675781 49.140625 C 361.675781 47.75 363.761719 47.75 363.761719 49.140625 "/>
<path style=" stroke:none;fill-rule:nonzero;fill:rgb(100%,84.3%,0%);fill-opacity:1;" d="M 307.792969 467.246094 C 307.792969 468.636719 305.703125 468.636719 305.703125 467.246094 C 305.703125 465.851562 307.792969 465.851562 307.792969 467.246094 "/>
<path style=" stroke:none;fill-rule:nonzero;fill:rgb(100%,84.3%,0%);fill-opacity:1;" d="M 363.761719 74.203125 C 363.761719 75.59375 361.675781 75.59375 361.675781 74.203125 C 361.675781 72.808594 363.761719 72.808594 363.761719 74.203125 "/>
<path style=" stroke:none;fill-rule:nonzero;fill:rgb(100%,84.3%,0%);fill-opacity:1;" d="M 266.023438 44.753906 C 266.023438 46.148438 263.9375 46.148438 263.9375 44.753906 C 263.9375 43.363281 266.023438 43.363281 266.023438 44.753906 "/>
<path style=" stroke:none;fill-rule:nonzero;fill:rgb(100%,84.3%,0%);fill-opacity:1;" d="M 232.609375 467.246094 C 232.609375 468.636719 230.519531 468.636719 230.519531 467.246094 C 230.519531 465.851562 232.609375 465.851562 232.609375 467.246094 "/>
<path style=" stroke:none;fill-rule:nonzero;fill:rgb(100%,84.3%,0%);fill-opacity:1;" d="M 188.753906 44.753906 C 188.753906 46.148438 186.664062 46.148438 186.664062 44.753906 C 186.664062 43.363281 188.753906 43.363281 188.753906 44.753906 "/>
<path style=" stroke:none;fill-rule:nonzero;fill:rgb(100%,84.3%,0%);fill-opacity:1;" d="M 140.71875 44.753906 C 140.71875 46.148438 138.628906 46.148438 138.628906 44.753906 C 138.628906 43.363281 140.71875 43.363281 140.71875 44.753906 "/>
<path style=" stroke:none;fill-rule:nonzero;fill:rgb(100%,84.3%,0%);fill-opacity:1;" d="M 341.207031 467.246094 C 341.207031 468.636719 339.121094 468.636719 339.121094 467.246094 C 339.121094 465.851562 341.207031 465.851562 341.207031 467.246094 "/>
<path style=" stroke:none;fill-rule:nonzero;fill:rgb(100%,84.3%,0%);fill-opacity:1;" d="M 132.363281 467.246094 C 132.363281 468.636719 130.277344 468.636719 130.277344 467.246094 C 130.277344 465.851562 132.363281 465.851562 132.363281 467.246094 "/>
<path style=" stroke:none;fill-rule:nonzero;fill:rgb(100%,84.3%,0%);fill-opacity:1;" d="M 360.003906 467.246094 C 360.003906 468.636719 357.914062 468.636719 357.914062 467.246094 C 357.914062 465.851562 360.003906 465.851562 360.003906 467.246094 "/>
<path style=" stroke:none;fill-rule:nonzero;fill:rgb(100%,84.3%,0%);fill-opacity:1;" d="M 268.113281 44.753906 C 268.113281 46.148438 266.023438 46.148438 266.023438 44.753906 C 266.023438 43.363281 268.113281 43.363281 268.113281 44.753906 "/>
<path style=" stroke:none;fill-rule:nonzero;fill:rgb(100%,84.3%,0%);fill-opacity:1;" d="M 363.761719 70.023438 C 363.761719 71.417969 361.675781 71.417969 361.675781 70.023438 C 361.675781 68.632812 363.761719 68.632812 363.761719 70.023438 "/>
<path style=" stroke:none;fill-rule:nonzero;fill:rgb(100%,84.3%,0%);fill-opacity:1;" d="M 136.542969 44.753906 C 136.542969 46.148438 134.453125 46.148438 134.453125 44.753906 C 134.453125 43.363281 136.542969 43.363281 136.542969 44.753906 "/>
<path style=" stroke:none;fill-rule:nonzero;fill:rgb(100%,84.3%,0%);fill-opacity:1;" d="M 259.757812 467.246094 C 259.757812 468.636719 257.671875 468.636719 257.671875 467.246094 C 257.671875 465.851562 259.757812 465.851562 259.757812 467.246094 "/>
<path style=" stroke:none;fill-rule:nonzero;fill:rgb(100%,84.3%,0%);fill-opacity:1;" d="M 176.222656 44.753906 C 176.222656 46.148438 174.132812 46.148438 174.132812 44.753906 C 174.132812 43.363281 176.222656 43.363281 176.222656 44.753906 "/>
<path style=" stroke:none;fill-rule:nonzero;fill:rgb(100%,84.3%,0%);fill-opacity:1;" d="M 281.6875 46.566406 C 281.6875 47.957031 279.597656 47.957031 279.597656 46.566406 C 279.597656 45.171875 281.6875 45.171875 281.6875 46.566406 "/>
<path style=" stroke:none;fill-rule:nonzero;fill:rgb(100%,84.3%,0%);fill-opacity:1;" d="M 315.101562 46.566406 C 315.101562 47.957031 313.015625 47.957031 313.015625 46.566406 C 313.015625 45.171875 315.101562 45.171875 315.101562 46.566406 "/>
<path style=" stroke:none;fill-rule:nonzero;fill:rgb(100%,84.3%,0%);fill-opacity:1;" d="M 105.214844 467.246094 C 105.214844 468.636719 103.125 468.636719 103.125 467.246094 C 103.125 465.851562 105.214844 465.851562 105.214844 467.246094 "/>
<path style=" stroke:none;fill-rule:nonzero;fill:rgb(100%,84.3%,0%);fill-opacity:1;" d="M 182.488281 467.246094 C 182.488281 468.636719 180.398438 468.636719 180.398438 467.246094 C 180.398438 465.851562 182.488281 465.851562 182.488281 467.246094 "/>
<path style=" stroke:none;fill-rule:nonzero;fill:rgb(100%,84.3%,0%);fill-opacity:1;" d="M 159.515625 467.246094 C 159.515625 468.636719 157.425781 468.636719 157.425781 467.246094 C 157.425781 465.851562 159.515625 465.851562 159.515625 467.246094 "/>
<path style=" stroke:none;fill-rule:nonzero;fill:rgb(100%,84.3%,0%);fill-opacity:1;" d="M 270.203125 467.246094 C 270.203125 468.636719 268.113281 468.636719 268.113281 467.246094 C 268.113281 465.851562 270.203125 465.851562 270.203125 467.246094 "/>
<path style=" stroke:none;fill-rule:nonzero;fill:rgb(100%,84.3%,0%);fill-opacity:1;" d="M 203.371094 467.246094 C 203.371094 468.636719 201.28125 468.636719 201.28125 467.246094 C 201.28125 465.851562 203.371094 465.851562 203.371094 467.246094 "/>
<path style=" stroke:none;fill-rule:nonzero;fill:rgb(100%,84.3%,0%);fill-opacity:1;" d="M 151.160156 44.753906 C 151.160156 46.148438 149.070312 46.148438 149.070312 44.753906 C 149.070312 43.363281 151.160156 43.363281 151.160156 44.753906 "/>
<path style=" stroke:none;fill-rule:nonzero;fill:rgb(100%,84.3%,0%);fill-opacity:1;" d="M 363.761719 72.113281 C 363.761719 73.507812 361.675781 73.507812 361.675781 72.113281 C 361.675781 70.722656 363.761719 70.722656 363.761719 72.113281 "/>
<path style=" stroke:none;fill-rule:nonzero;fill:rgb(100%,84.3%,0%);fill-opacity:1;" d="M 274.378906 467.246094 C 274.378906 468.636719 272.289062 468.636719 272.289062 467.246094 C 272.289062 465.851562 274.378906 465.851562 274.378906 467.246094 "/>
<path style=" stroke:none;fill-rule:nonzero;fill:rgb(100%,84.3%,0%);fill-opacity:1;" d="M 230.519531 467.246094 C 230.519531 468.636719 228.433594 468.636719 228.433594 467.246094 C 228.433594 465.851562 230.519531 465.851562 230.519531 467.246094 "/>
<path style=" stroke:none;fill-rule:nonzero;fill:rgb(100%,84.3%,0%);fill-opacity:1;" d="M 163.691406 44.753906 C 163.691406 46.148438 161.601562 46.148438 161.601562 44.753906 C 161.601562 43.363281 163.691406 43.363281 163.691406 44.753906 "/>
<path style=" stroke:none;fill-rule:nonzero;fill:rgb(100%,84.3%,0%);fill-opacity:1;" d="M 343.296875 44.753906 C 343.296875 46.148438 341.207031 46.148438 341.207031 44.753906 C 341.207031 43.363281 343.296875 43.363281 343.296875 44.753906 "/>
<path style=" stroke:none;fill-rule:nonzero;fill:rgb(100%,84.3%,0%);fill-opacity:1;" d="M 124.011719 467.246094 C 124.011719 468.636719 121.921875 468.636719 121.921875 467.246094 C 121.921875 465.851562 124.011719 465.851562 124.011719 467.246094 "/>
<path style=" stroke:none;fill-rule:nonzero;fill:rgb(100%,84.3%,0%);fill-opacity:1;" d="M 363.761719 84.644531 C 363.761719 86.035156 361.675781 86.035156 361.675781 84.644531 C 361.675781 83.25 363.761719 83.25 363.761719 84.644531 "/>
<path style=" stroke:none;fill-rule:nonzero;fill:rgb(100%,84.3%,0%);fill-opacity:1;" d="M 363.761719 441.765625 C 363.761719 443.160156 361.675781 443.160156 361.675781 441.765625 C 361.675781 440.375 363.761719 440.375 363.761719 441.765625 "/>
<path style=" stroke:none;fill-rule:nonzero;fill:rgb(100%,84.3%,0%);fill-opacity:1;" d="M 188.753906 467.246094 C 188.753906 468.636719 186.664062 468.636719 186.664062 467.246094 C 186.664062 465.851562 188.753906 465.851562 188.753906 467.246094 "/>
<path style=" stroke:none;fill-rule:nonzero;fill:rgb(100%,84.3%,0%);fill-opacity:1;" d="M 332.855469 44.753906 C 332.855469 46.148438 330.765625 46.148438 330.765625 44.753906 C 330.765625 43.363281 332.855469 43.363281 332.855469 44.753906 "/>
<path style=" stroke:none;fill-rule:nonzero;fill:rgb(100%,84.3%,0%);fill-opacity:1;" d="M 272.289062 467.246094 C 272.289062 468.636719 270.203125 468.636719 270.203125 467.246094 C 270.203125 465.851562 272.289062 465.851562 272.289062 467.246094 "/>
<path style=" stroke:none;fill-rule:nonzero;fill:rgb(100%,84.3%,0%);fill-opacity:1;" d="M 230.519531 44.753906 C 230.519531 46.148438 228.433594 46.148438 228.433594 44.753906 C 228.433594 43.363281 230.519531 43.363281 230.519531 44.753906 "/>
<path style=" stroke:none;fill-rule:nonzero;fill:rgb(100%,84.3%,0%);fill-opacity:1;" d="M 363.761719 78.378906 C 363.761719 79.769531 361.675781 79.769531 361.675781 78.378906 C 361.675781 76.988281 363.761719 76.988281 363.761719 78.378906 "/>
<path style=" stroke:none;fill-rule:nonzero;fill:rgb(100%,84.3%,0%);fill-opacity:1;" d="M 180.398438 467.246094 C 180.398438 468.636719 178.3125 468.636719 178.3125 467.246094 C 178.3125 465.851562 180.398438 465.851562 180.398438 467.246094 "/>
<path style=" stroke:none;fill-rule:nonzero;fill:rgb(100%,84.3%,0%);fill-opacity:1;" d="M 314.058594 467.246094 C 314.058594 468.636719 311.96875 468.636719 311.96875 467.246094 C 311.96875 465.851562 314.058594 465.851562 314.058594 467.246094 "/>
<path style=" stroke:none;fill-rule:nonzero;fill:rgb(100%,84.3%,0%);fill-opacity:1;" d="M 363.761719 458.472656 C 363.761719 459.867188 361.675781 459.867188 361.675781 458.472656 C 361.675781 457.082031 363.761719 457.082031 363.761719 458.472656 "/>
<path style=" stroke:none;fill-rule:nonzero;fill:rgb(100%,84.3%,0%);fill-opacity:1;" d="M 270.203125 44.753906 C 270.203125 46.148438 268.113281 46.148438 268.113281 44.753906 C 268.113281 43.363281 270.203125 43.363281 270.203125 44.753906 "/>
<path style=" stroke:none;fill-rule:nonzero;fill:rgb(100%,84.3%,0%);fill-opacity:1;" d="M 207.546875 467.246094 C 207.546875 468.636719 205.460938 468.636719 205.460938 467.246094 C 205.460938 465.851562 207.546875 465.851562 207.546875 467.246094 "/>
<path style=" stroke:none;fill-rule:nonzero;fill:rgb(100%,84.3%,0%);fill-opacity:1;" d="M 363.761719 443.855469 C 363.761719 445.246094 361.675781 445.246094 361.675781 443.855469 C 361.675781 442.460938 363.761719 442.460938 363.761719 443.855469 "/>
<path style=" stroke:none;fill-rule:nonzero;fill:rgb(100%,84.3%,0%);fill-opacity:1;" d="M 257.671875 467.246094 C 257.671875 468.636719 255.582031 468.636719 255.582031 467.246094 C 255.582031 465.851562 257.671875 465.851562 257.671875 467.246094 "/>
<path style=" stroke:none;fill-rule:nonzero;fill:rgb(100%,84.3%,0%);fill-opacity:1;" d="M 334.941406 467.246094 C 334.941406 468.636719 332.855469 468.636719 332.855469 467.246094 C 332.855469 465.851562 334.941406 465.851562 334.941406 467.246094 "/>
<path style=" stroke:none;fill-rule:nonzero;fill:rgb(100%,84.3%,0%);fill-opacity:1;" d="M 205.460938 467.246094 C 205.460938 468.636719 203.371094 468.636719 203.371094 467.246094 C 203.371094 465.851562 205.460938 465.851562 205.460938 467.246094 "/>
<path style=" stroke:none;fill-rule:nonzero;fill:rgb(100%,84.3%,0%);fill-opacity:1;" d="M 165.78125 44.753906 C 165.78125 46.148438 163.691406 46.148438 163.691406 44.753906 C 163.691406 43.363281 165.78125 43.363281 165.78125 44.753906 "/>
<path style=" stroke:none;fill-rule:nonzero;fill:rgb(100%,84.3%,0%);fill-opacity:1;" d="M 151.160156 467.246094 C 151.160156 468.636719 149.070312 468.636719 149.070312 467.246094 C 149.070312 465.851562 151.160156 465.851562 151.160156 467.246094 "/>
<path style=" stroke:none;fill-rule:nonzero;fill:rgb(100%,84.3%,0%);fill-opacity:1;" d="M 149.070312 44.753906 C 149.070312 46.148438 146.984375 46.148438 146.984375 44.753906 C 146.984375 43.363281 149.070312 43.363281 149.070312 44.753906 "/>
<path style=" stroke:none;fill-rule:nonzero;fill:rgb(100%,84.3%,0%);fill-opacity:1;" d="M 234.699219 44.753906 C 234.699219 46.148438 232.609375 46.148438 232.609375 44.753906 C 232.609375 43.363281 234.699219 43.363281 234.699219 44.753906 "/>
<path style=" stroke:none;fill-rule:nonzero;fill:rgb(100%,84.3%,0%);fill-opacity:1;" d="M 57.179688 44.753906 C 57.179688 46.148438 55.09375 46.148438 55.09375 44.753906 C 55.09375 43.363281 57.179688 43.363281 57.179688 44.753906 "/>
<path style=" stroke:none;fill-rule:nonzero;fill:rgb(100%,84.3%,0%);fill-opacity:1;" d="M 357.914062 467.246094 C 357.914062 468.636719 355.828125 468.636719 355.828125 467.246094 C 355.828125 465.851562 357.914062 465.851562 357.914062 467.246094 "/>
<path style=" stroke:none;fill-rule:nonzero;fill:rgb(100%,84.3%,0%);fill-opacity:1;" d="M 226.34375 44.753906 C 226.34375 46.148438 224.253906 46.148438 224.253906 44.753906 C 224.253906 43.363281 226.34375 43.363281 226.34375 44.753906 "/>
<path style=" stroke:none;fill-rule:nonzero;fill:rgb(100%,84.3%,0%);fill-opacity:1;" d="M 291.085938 44.753906 C 291.085938 46.148438 288.996094 46.148438 288.996094 44.753906 C 288.996094 43.363281 291.085938 43.363281 291.085938 44.753906 "/>
<path style=" stroke:none;fill-rule:nonzero;fill:rgb(100%,84.3%,0%);fill-opacity:1;" d="M 345.386719 44.753906 C 345.386719 46.148438 343.296875 46.148438 343.296875 44.753906 C 343.296875 43.363281 345.386719 43.363281 345.386719 44.753906 "/>
<path style=" stroke:none;fill-rule:nonzero;fill:rgb(100%,84.3%,0%);fill-opacity:1;" d="M 255.582031 467.246094 C 255.582031 468.636719 253.492188 468.636719 253.492188 467.246094 C 253.492188 465.851562 255.582031 465.851562 255.582031 467.246094 "/>
<path style=" stroke:none;fill-rule:nonzero;fill:rgb(100%,84.3%,0%);fill-opacity:1;" d="M 284.820312 44.753906 C 284.820312 46.148438 282.730469 46.148438 282.730469 44.753906 C 282.730469 43.363281 284.820312 43.363281 284.820312 44.753906 "/>
<path style=" stroke:none;fill-rule:nonzero;fill:rgb(100%,84.3%,0%);fill-opacity:1;" d="M 363.761719 80.46875 C 363.761719 81.859375 361.675781 81.859375 361.675781 80.46875 C 361.675781 79.074219 363.761719 79.074219 363.761719 80.46875 "/>
<path style=" stroke:none;fill-rule:nonzero;fill:rgb(100%,84.3%,0%);fill-opacity:1;" d="M 343.296875 467.246094 C 343.296875 468.636719 341.207031 468.636719 341.207031 467.246094 C 341.207031 465.851562 343.296875 465.851562 343.296875 467.246094 "/>
<path style=" stroke:none;fill-rule:nonzero;fill:rgb(100%,84.3%,0%);fill-opacity:1;" d="M 199.195312 44.753906 C 199.195312 46.148438 197.105469 46.148438 197.105469 44.753906 C 197.105469 43.363281 199.195312 43.363281 199.195312 44.753906 "/>
<path style=" stroke:none;fill-rule:nonzero;fill:rgb(100%,84.3%,0%);fill-opacity:1;" d="M 159.515625 44.753906 C 159.515625 46.148438 157.425781 46.148438 157.425781 44.753906 C 157.425781 43.363281 159.515625 43.363281 159.515625 44.753906 "/>
<path style=" stroke:none;fill-rule:nonzero;fill:rgb(100%,84.3%,0%);fill-opacity:1;" d="M 310.925781 465.433594 C 310.925781 466.828125 308.835938 466.828125 308.835938 465.433594 C 308.835938 464.042969 310.925781 464.042969 310.925781 465.433594 "/>
<path style=" stroke:none;fill-rule:nonzero;fill:rgb(100%,84.3%,0%);fill-opacity:1;" d="M 138.628906 44.753906 C 138.628906 46.148438 136.542969 46.148438 136.542969 44.753906 C 136.542969 43.363281 138.628906 43.363281 138.628906 44.753906 "/>
<path style=" stroke:none;fill-rule:nonzero;fill:rgb(100%,84.3%,0%);fill-opacity:1;" d="M 228.433594 467.246094 C 228.433594 468.636719 226.34375 468.636719 226.34375 467.246094 C 226.34375 465.851562 228.433594 465.851562 228.433594 467.246094 "/>
<path style=" stroke:none;fill-rule:nonzero;fill:rgb(100%,84.3%,0%);fill-opacity:1;" d="M 50.917969 44.753906 C 50.917969 46.148438 48.828125 46.148438 48.828125 44.753906 C 48.828125 43.363281 50.917969 43.363281 50.917969 44.753906 "/>
<path style=" stroke:none;fill-rule:nonzero;fill:rgb(100%,84.3%,0%);fill-opacity:1;" d="M 280.644531 44.753906 C 280.644531 46.148438 278.554688 46.148438 278.554688 44.753906 C 278.554688 43.363281 280.644531 43.363281 280.644531 44.753906 "/>
<path style=" stroke:none;fill-rule:nonzero;fill:rgb(100%,84.3%,0%);fill-opacity:1;" d="M 140.71875 467.246094 C 140.71875 468.636719 138.628906 468.636719 138.628906 467.246094 C 138.628906 465.851562 140.71875 465.851562 140.71875 467.246094 "/>
<path style=" stroke:none;fill-rule:nonzero;fill:rgb(100%,84.3%,0%);fill-opacity:1;" d="M 324.5 467.246094 C 324.5 468.636719 322.410156 468.636719 322.410156 467.246094 C 322.410156 465.851562 324.5 465.851562 324.5 467.246094 "/>
<path style=" stroke:none;fill-rule:nonzero;fill:rgb(100%,84.3%,0%);fill-opacity:1;" d="M 334.941406 44.753906 C 334.941406 46.148438 332.855469 46.148438 332.855469 44.753906 C 332.855469 43.363281 334.941406 43.363281 334.941406 44.753906 "/>
<path style=" stroke:none;fill-rule:nonzero;fill:rgb(100%,84.3%,0%);fill-opacity:1;" d="M 311.96875 44.753906 C 311.96875 46.148438 309.882812 46.148438 309.882812 44.753906 C 309.882812 43.363281 311.96875 43.363281 311.96875 44.753906 "/>
<path style=" stroke:none;fill-rule:nonzero;fill:rgb(100%,84.3%,0%);fill-opacity:1;" d="M 197.105469 467.246094 C 197.105469 468.636719 195.019531 468.636719 195.019531 467.246094 C 195.019531 465.851562 197.105469 465.851562 197.105469 467.246094 "/>
<path style=" stroke:none;fill-rule:nonzero;fill:rgb(100%,84.3%,0%);fill-opacity:1;" d="M 266.023438 467.246094 C 266.023438 468.636719 263.9375 468.636719 263.9375 467.246094 C 263.9375 465.851562 266.023438 465.851562 266.023438 467.246094 "/>
<path style=" stroke:none;fill-rule:nonzero;fill:rgb(100%,84.3%,0%);fill-opacity:1;" d="M 36.296875 464.738281 C 36.296875 466.132812 34.207031 466.132812 34.207031 464.738281 C 34.207031 463.347656 36.296875 463.347656 36.296875 464.738281 "/>
<path style=" stroke:none;fill-rule:nonzero;fill:rgb(100%,84.3%,0%);fill-opacity:1;" d="M 286.910156 44.753906 C 286.910156 46.148438 284.820312 46.148438 284.820312 44.753906 C 284.820312 43.363281 286.910156 43.363281 286.910156 44.753906 "/>
<path style=" stroke:none;fill-rule:nonzero;fill:rgb(100%,84.3%,0%);fill-opacity:1;" d="M 274.378906 44.753906 C 274.378906 46.148438 272.289062 46.148438 272.289062 44.753906 C 272.289062 43.363281 274.378906 43.363281 274.378906 44.753906 "/>
<path style=" stroke:none;fill-rule:nonzero;fill:rgb(100%,84.3%,0%);fill-opacity:1;" d="M 181.441406 46.566406 C 181.441406 47.957031 179.355469 47.957031 179.355469 46.566406 C 179.355469 45.171875 181.441406 45.171875 181.441406 46.566406 "/>
<path style=" stroke:none;fill-rule:nonzero;fill:rgb(100%,84.3%,0%);fill-opacity:1;" d="M 67.625 467.246094 C 67.625 468.636719 65.535156 468.636719 65.535156 467.246094 C 65.535156 465.851562 67.625 465.851562 67.625 467.246094 "/>
<path style=" stroke:none;fill-rule:nonzero;fill:rgb(100%,84.3%,0%);fill-opacity:1;" d="M 178.308594 467.246094 C 178.308594 468.636719 176.222656 468.636719 176.222656 467.246094 C 176.222656 465.851562 178.308594 465.851562 178.308594 467.246094 "/>
<path style=" stroke:none;fill-rule:nonzero;fill:rgb(100%,84.3%,0%);fill-opacity:1;" d="M 55.09375 44.753906 C 55.09375 46.148438 53.003906 46.148438 53.003906 44.753906 C 53.003906 43.363281 55.09375 43.363281 55.09375 44.753906 "/>
<path style=" stroke:none;fill-rule:nonzero;fill:rgb(100%,84.3%,0%);fill-opacity:1;" d="M 43.605469 46.566406 C 43.605469 47.957031 41.519531 47.957031 41.519531 46.566406 C 41.519531 45.171875 43.605469 45.171875 43.605469 46.566406 "/>
<path style=" stroke:none;fill-rule:nonzero;fill:rgb(100%,84.3%,0%);fill-opacity:1;" d="M 228.433594 44.753906 C 228.433594 46.148438 226.34375 46.148438 226.34375 44.753906 C 226.34375 43.363281 228.433594 43.363281 228.433594 44.753906 "/>
<path style=" stroke:none;fill-rule:nonzero;fill:rgb(100%,84.3%,0%);fill-opacity:1;" d="M 195.019531 467.246094 C 195.019531 468.636719 192.929688 468.636719 192.929688 467.246094 C 192.929688 465.851562 195.019531 465.851562 195.019531 467.246094 "/>
<path style=" stroke:none;fill-rule:nonzero;fill:rgb(100%,84.3%,0%);fill-opacity:1;" d="M 222.167969 44.753906 C 222.167969 46.148438 220.078125 46.148438 220.078125 44.753906 C 220.078125 43.363281 222.167969 43.363281 222.167969 44.753906 "/>
<path style=" stroke:none;fill-rule:nonzero;fill:rgb(100%,84.3%,0%);fill-opacity:1;" d="M 38.386719 467.246094 C 38.386719 468.636719 36.296875 468.636719 36.296875 467.246094 C 36.296875 465.851562 38.386719 465.851562 38.386719 467.246094 "/>
<path style=" stroke:none;fill-rule:nonzero;fill:rgb(100%,84.3%,0%);fill-opacity:1;" d="M 337.03125 44.753906 C 337.03125 46.148438 334.941406 46.148438 334.941406 44.753906 C 334.941406 43.363281 337.03125 43.363281 337.03125 44.753906 "/>
<path style=" stroke:none;fill-rule:nonzero;fill:rgb(100%,84.3%,0%);fill-opacity:1;" d="M 261.847656 467.246094 C 261.847656 468.636719 259.757812 468.636719 259.757812 467.246094 C 259.757812 465.851562 261.847656 465.851562 261.847656 467.246094 "/>
<path style=" stroke:none;fill-rule:nonzero;fill:rgb(100%,84.3%,0%);fill-opacity:1;" d="M 251.40625 44.753906 C 251.40625 46.148438 249.316406 46.148438 249.316406 44.753906 C 249.316406 43.363281 251.40625 43.363281 251.40625 44.753906 "/>
<path style=" stroke:none;fill-rule:nonzero;fill:rgb(100%,84.3%,0%);fill-opacity:1;" d="M 121.921875 44.753906 C 121.921875 46.148438 119.832031 46.148438 119.832031 44.753906 C 119.832031 43.363281 121.921875 43.363281 121.921875 44.753906 "/>
<path style=" stroke:none;fill-rule:nonzero;fill:rgb(100%,84.3%,0%);fill-opacity:1;" d="M 101.039062 44.753906 C 101.039062 46.148438 98.949219 46.148438 98.949219 44.753906 C 98.949219 43.363281 101.039062 43.363281 101.039062 44.753906 "/>
<path style=" stroke:none;fill-rule:nonzero;fill:rgb(100%,84.3%,0%);fill-opacity:1;" d="M 314.058594 44.753906 C 314.058594 46.148438 311.96875 46.148438 311.96875 44.753906 C 311.96875 43.363281 314.058594 43.363281 314.058594 44.753906 "/>
<path style=" stroke:none;fill-rule:nonzero;fill:rgb(100%,84.3%,0%);fill-opacity:1;" d="M 363.761719 456.386719 C 363.761719 457.777344 361.675781 457.777344 361.675781 456.386719 C 361.675781 454.992188 363.761719 454.992188 363.761719 456.386719 "/>
<path style=" stroke:none;fill-rule:nonzero;fill:rgb(100%,84.3%,0%);fill-opacity:1;" d="M 308.835938 46.566406 C 308.835938 47.957031 306.75 47.957031 306.75 46.566406 C 306.75 45.171875 308.835938 45.171875 308.835938 46.566406 "/>
<path style=" stroke:none;fill-rule:nonzero;fill:rgb(100%,84.3%,0%);fill-opacity:1;" d="M 165.78125 467.246094 C 165.78125 468.636719 163.691406 468.636719 163.691406 467.246094 C 163.691406 465.851562 165.78125 465.851562 165.78125 467.246094 "/>
<path style=" stroke:none;fill-rule:nonzero;fill:rgb(100%,84.3%,0%);fill-opacity:1;" d="M 124.011719 44.753906 C 124.011719 46.148438 121.921875 46.148438 121.921875 44.753906 C 121.921875 43.363281 124.011719 43.363281 124.011719 44.753906 "/>
<path style=" stroke:none;fill-rule:nonzero;fill:rgb(100%,84.3%,0%);fill-opacity:1;" d="M 282.730469 44.753906 C 282.730469 46.148438 280.644531 46.148438 280.644531 44.753906 C 280.644531 43.363281 282.730469 43.363281 282.730469 44.753906 "/>
<path style=" stroke:none;fill-rule:nonzero;fill:rgb(100%,84.3%,0%);fill-opacity:1;" d="M 245.140625 467.246094 C 245.140625 468.636719 243.050781 468.636719 243.050781 467.246094 C 243.050781 465.851562 245.140625 465.851562 245.140625 467.246094 "/>
<path style=" stroke:none;fill-rule:nonzero;fill:rgb(100%,84.3%,0%);fill-opacity:1;" d="M 316.148438 44.753906 C 316.148438 46.148438 314.058594 46.148438 314.058594 44.753906 C 314.058594 43.363281 316.148438 43.363281 316.148438 44.753906 "/>
<path style=" stroke:none;fill-rule:nonzero;fill:rgb(100%,84.3%,0%);fill-opacity:1;" d="M 363.761719 53.316406 C 363.761719 54.710938 361.675781 54.710938 361.675781 53.316406 C 361.675781 51.925781 363.761719 51.925781 363.761719 53.316406 "/>
<path style=" stroke:none;fill-rule:nonzero;fill:rgb(100%,84.3%,0%);fill-opacity:1;" d="M 128.1875 44.753906 C 128.1875 46.148438 126.101562 46.148438 126.101562 44.753906 C 126.101562 43.363281 128.1875 43.363281 128.1875 44.753906 "/>
<path style=" stroke:none;fill-rule:nonzero;fill:rgb(100%,84.3%,0%);fill-opacity:1;" d="M 138.628906 467.246094 C 138.628906 468.636719 136.542969 468.636719 136.542969 467.246094 C 136.542969 465.851562 138.628906 465.851562 138.628906 467.246094 "/>
<path style=" stroke:none;fill-rule:nonzero;fill:rgb(100%,84.3%,0%);fill-opacity:1;" d="M 224.257812 467.246094 C 224.257812 468.636719 222.167969 468.636719 222.167969 467.246094 C 222.167969 465.851562 224.257812 465.851562 224.257812 467.246094 "/>
<path style=" stroke:none;fill-rule:nonzero;fill:rgb(100%,84.3%,0%);fill-opacity:1;" d="M 288.996094 44.753906 C 288.996094 46.148438 286.910156 46.148438 286.910156 44.753906 C 286.910156 43.363281 288.996094 43.363281 288.996094 44.753906 "/>
<path style=" stroke:none;fill-rule:nonzero;fill:rgb(100%,84.3%,0%);fill-opacity:1;" d="M 318.234375 44.753906 C 318.234375 46.148438 316.148438 46.148438 316.148438 44.753906 C 316.148438 43.363281 318.234375 43.363281 318.234375 44.753906 "/>
<path style=" stroke:none;fill-rule:nonzero;fill:rgb(100%,84.3%,0%);fill-opacity:1;" d="M 363.761719 51.230469 C 363.761719 52.621094 361.675781 52.621094 361.675781 51.230469 C 361.675781 49.835938 363.761719 49.835938 363.761719 51.230469 "/>
<path style=" stroke:none;fill-rule:nonzero;fill:rgb(100%,84.3%,0%);fill-opacity:1;" d="M 240.964844 44.753906 C 240.964844 46.148438 238.875 46.148438 238.875 44.753906 C 238.875 43.363281 240.964844 43.363281 240.964844 44.753906 "/>
<path style=" stroke:none;fill-rule:nonzero;fill:rgb(100%,84.3%,0%);fill-opacity:1;" d="M 310.925781 46.566406 C 310.925781 47.957031 308.835938 47.957031 308.835938 46.566406 C 308.835938 45.171875 310.925781 45.171875 310.925781 46.566406 "/>
<path style=" stroke:none;fill-rule:nonzero;fill:rgb(100%,84.3%,0%);fill-opacity:1;" d="M 36.296875 460.5625 C 36.296875 461.953125 34.207031 461.953125 34.207031 460.5625 C 34.207031 459.167969 36.296875 459.167969 36.296875 460.5625 "/>
<path style=" stroke:none;fill-rule:nonzero;fill:rgb(100%,84.3%,0%);fill-opacity:1;" d="M 301.527344 467.246094 C 301.527344 468.636719 299.441406 468.636719 299.441406 467.246094 C 299.441406 465.851562 301.527344 465.851562 301.527344 467.246094 "/>
<path style=" stroke:none;fill-rule:nonzero;fill:rgb(100%,84.3%,0%);fill-opacity:1;" d="M 313.015625 46.566406 C 313.015625 47.957031 310.925781 47.957031 310.925781 46.566406 C 310.925781 45.171875 313.015625 45.171875 313.015625 46.566406 "/>
<path style=" stroke:none;fill-rule:nonzero;fill:rgb(100%,84.3%,0%);fill-opacity:1;" d="M 354.785156 465.433594 C 354.785156 466.828125 352.695312 466.828125 352.695312 465.433594 C 352.695312 464.042969 354.785156 464.042969 354.785156 465.433594 "/>
<path style=" stroke:none;fill-rule:nonzero;fill:rgb(100%,84.3%,0%);fill-opacity:1;" d="M 363.761719 452.207031 C 363.761719 453.601562 361.675781 453.601562 361.675781 452.207031 C 361.675781 450.816406 363.761719 450.816406 363.761719 452.207031 "/>
<path style=" stroke:none;fill-rule:nonzero;fill:rgb(100%,84.3%,0%);fill-opacity:1;" d="M 142.808594 44.753906 C 142.808594 46.148438 140.71875 46.148438 140.71875 44.753906 C 140.71875 43.363281 142.808594 43.363281 142.808594 44.753906 "/>
<path style=" stroke:none;fill-rule:nonzero;fill:rgb(100%,84.3%,0%);fill-opacity:1;" d="M 276.464844 44.753906 C 276.464844 46.148438 274.378906 46.148438 274.378906 44.753906 C 274.378906 43.363281 276.464844 43.363281 276.464844 44.753906 "/>
<path style=" stroke:none;fill-rule:nonzero;fill:rgb(100%,84.3%,0%);fill-opacity:1;" d="M 293.175781 467.246094 C 293.175781 468.636719 291.085938 468.636719 291.085938 467.246094 C 291.085938 465.851562 293.175781 465.851562 293.175781 467.246094 "/>
<path style=" stroke:none;fill-rule:nonzero;fill:rgb(100%,84.3%,0%);fill-opacity:1;" d="M 363.761719 67.9375 C 363.761719 69.328125 361.675781 69.328125 361.675781 67.9375 C 361.675781 66.542969 363.761719 66.542969 363.761719 67.9375 "/>
<path style=" stroke:none;fill-rule:nonzero;fill:rgb(100%,84.3%,0%);fill-opacity:1;" d="M 117.746094 467.246094 C 117.746094 468.636719 115.65625 468.636719 115.65625 467.246094 C 115.65625 465.851562 117.746094 465.851562 117.746094 467.246094 "/>
<path style=" stroke:none;fill-rule:nonzero;fill:rgb(100%,84.3%,0%);fill-opacity:1;" d="M 107.304688 44.753906 C 107.304688 46.148438 105.214844 46.148438 105.214844 44.753906 C 105.214844 43.363281 107.304688 43.363281 107.304688 44.753906 "/>
<path style=" stroke:none;fill-rule:nonzero;fill:rgb(100%,84.3%,0%);fill-opacity:1;" d="M 144.894531 44.753906 C 144.894531 46.148438 142.808594 46.148438 142.808594 44.753906 C 142.808594 43.363281 144.894531 43.363281 144.894531 44.753906 "/>
<path style=" stroke:none;fill-rule:nonzero;fill:rgb(100%,84.3%,0%);fill-opacity:1;" d="M 363.761719 86.734375 C 363.761719 88.125 361.675781 88.125 361.675781 86.734375 C 361.675781 85.339844 363.761719 85.339844 363.761719 86.734375 "/>
<path style=" stroke:none;fill-rule:nonzero;fill:rgb(100%,84.3%,0%);fill-opacity:1;" d="M 320.324219 44.753906 C 320.324219 46.148438 318.234375 46.148438 318.234375 44.753906 C 318.234375 43.363281 320.324219 43.363281 320.324219 44.753906 "/>
<path style=" stroke:none;fill-rule:nonzero;fill:rgb(100%,84.3%,0%);fill-opacity:1;" d="M 161.601562 467.246094 C 161.601562 468.636719 159.515625 468.636719 159.515625 467.246094 C 159.515625 465.851562 161.601562 465.851562 161.601562 467.246094 "/>
<path style=" stroke:none;fill-rule:nonzero;fill:rgb(100%,84.3%,0%);fill-opacity:1;" d="M 96.859375 44.753906 C 96.859375 46.148438 94.773438 46.148438 94.773438 44.753906 C 94.773438 43.363281 96.859375 43.363281 96.859375 44.753906 "/>
<path style=" stroke:none;fill-rule:nonzero;fill:rgb(100%,84.3%,0%);fill-opacity:1;" d="M 211.726562 44.753906 C 211.726562 46.148438 209.636719 46.148438 209.636719 44.753906 C 209.636719 43.363281 211.726562 43.363281 211.726562 44.753906 "/>
<path style=" stroke:none;fill-rule:nonzero;fill:rgb(100%,84.3%,0%);fill-opacity:1;" d="M 337.03125 467.246094 C 337.03125 468.636719 334.941406 468.636719 334.941406 467.246094 C 334.941406 465.851562 337.03125 465.851562 337.03125 467.246094 "/>
</g>
</svg>
