<?xml version="1.0" encoding="UTF-8"?>
<svg xmlns="http://www.w3.org/2000/svg" xmlns:xlink="http://www.w3.org/1999/xlink" width="512pt" height="512pt" viewBox="0 0 512 512" version="1.1">
<g id="surface396">
<rect x="0" y="0" width="512" height="512" style="fill:rgb(26.7%,26.7%,26.7%);fill-opacity:1;stroke:none;"/>
<path style=" stroke:none;fill-rule:nonzero;fill:rgb(19.2%,38.8%,66.7%);fill-opacity:1;" d="M 42.667969 115.851562 L 469.332031 115.851562 L 469.332031 475.988281 L 42.667969 475.988281 Z M 42.667969 115.851562 "/>
<path style=" stroke:none;fill-rule:nonzero;fill:rgb(100%,100%,100%);fill-opacity:1;" d="M 274.800781 78.96875 C 274.800781 83.789062 267.570312 83.789062 267.570312 78.96875 C 267.570312 74.148438 274.800781 74.148438 274.800781 78.96875 "/>
<path style=" stroke:none;fill-rule:nonzero;fill:rgb(100%,100%,100%);fill-opacity:1;" d="M 92.566406 18.222656 C 92.566406 23.046875 85.332031 23.046875 85.332031 18.222656 C 85.332031 13.402344 92.566406 13.402344 92.566406 18.222656 "/>
<path style=" stroke:none;fill-rule:nonzero;fill:rgb(100%,100%,100%);fill-opacity:1;" d="M 79.546875 62.335938 C 79.546875 67.15625 72.316406 67.15625 72.316406 62.335938 C 72.316406 57.515625 79.546875 57.515625 79.546875 62.335938 "/>
<path style=" stroke:none;fill-rule:nonzero;fill:rgb(100%,100%,100%);fill-opacity:1;" d="M 177.175781 491.894531 C 177.175781 496.71875 169.941406 496.71875 169.941406 491.894531 C 169.941406 487.074219 177.175781 487.074219 177.175781 491.894531 "/>
<path style=" stroke:none;fill-rule:nonzero;fill:rgb(100%,100%,100%);fill-opacity:1;" d="M 444.023438 55.828125 C 444.023438 60.648438 436.792969 60.648438 436.792969 55.828125 C 436.792969 51.007812 444.023438 51.007812 444.023438 55.828125 "/>
<path style=" stroke:none;fill-rule:nonzero;fill:rgb(100%,84.3%,0%);fill-opacity:1;" d="M 459.449219 152.007812 C 459.449219 156.832031 452.214844 156.832031 452.214844 152.007812 C 452.214844 147.1875 459.449219 147.1875 459.449219 152.007812 "/>
<path style=" stroke:none;fill-rule:nonzero;fill:rgb(100%,84.3%,0%);fill-opacity:1;" d="M 321.085938 123.082031 C 321.085938 127.902344 313.851562 127.902344 313.851562 123.082031 C 313.851562 118.261719 321.085938 118.261719 321.085938 123.082031 "/>
<path style=" stroke:none;fill-rule:nonzero;fill:rgb(100%,84.3%,0%);fill-opacity:1;" d="M 60.746094 468.753906 C 60.746094 473.574219 53.515625 473.574219 53.515625 468.753906 C 53.515625 463.933594 60.746094 463.933594 60.746094 468.753906 "/>
<path style=" stroke:none;fill-rule:nonzero;fill:rgb(100%,84.3%,0%);fill-opacity:1;" d="M 71.59375 141.894531 C 71.59375 146.714844 64.359375 146.714844 64.359375 141.894531 C 64.359375 137.070312 71.59375 137.070312 71.59375 141.894531 "/>
<path style=" stroke:none;fill-rule:nonzero;fill:rgb(100%,84.3%,0%);fill-opacity:1;" d="M 53.515625 227.941406 C 53.515625 232.761719 46.28125 232.761719 46.28125 227.941406 C 46.28125 223.121094 53.515625 223.121094 53.515625 227.941406 "/>
<path style=" stroke:none;fill-rule:nonzero;fill:rgb(100%,84.3%,0%);fill-opacity:1;" d="M 53.515625 468.753906 C 53.515625 473.574219 46.28125 473.574219 46.28125 468.753906 C 46.28125 463.933594 53.515625 463.933594 53.515625 468.753906 "/>
<path style=" stroke:none;fill-rule:nonzero;fill:rgb(100%,84.3%,0%);fill-opacity:1;" d="M 151.140625 129.351562 C 151.140625 134.175781 143.910156 134.175781 143.910156 129.351562 C 143.910156 124.53125 151.140625 124.53125 151.140625 129.351562 "/>
<path style=" stroke:none;fill-rule:nonzero;fill:rgb(100%,84.3%,0%);fill-opacity:1;" d="M 143.910156 129.351562 C 143.910156 134.175781 136.679688 134.175781 136.679688 129.351562 C 136.679688 124.53125 143.910156 124.53125 143.910156 129.351562 "/>
<path style=" stroke:none;fill-rule:nonzero;fill:rgb(100%,84.3%,0%);fill-opacity:1;" d="M 263.230469 468.753906 C 263.230469 473.574219 256 473.574219 256 468.753906 C 256 463.933594 263.230469 463.933594 263.230469 468.753906 "/>
<path style=" stroke:none;fill-rule:nonzero;fill:rgb(100%,84.3%,0%);fill-opacity:1;" d="M 386.167969 123.082031 C 386.167969 127.902344 378.9375 127.902344 378.9375 123.082031 C 378.9375 118.261719 386.167969 118.261719 386.167969 123.082031 "/>
<path style=" stroke:none;fill-rule:nonzero;fill:rgb(100%,84.3%,0%);fill-opacity:1;" d="M 465.71875 358.109375 C 465.71875 362.933594 458.484375 362.933594 458.484375 358.109375 C 458.484375 353.289062 465.71875 353.289062 465.71875 358.109375 "/>
<path style=" stroke:none;fill-rule:nonzero;fill:rgb(100%,84.3%,0%);fill-opacity:1;" d="M 465.71875 206.246094 C 465.71875 211.066406 458.484375 211.066406 458.484375 206.246094 C 458.484375 201.425781 465.71875 201.425781 465.71875 206.246094 "/>
<path style=" stroke:none;fill-rule:nonzero;fill:rgb(100%,84.3%,0%);fill-opacity:1;" d="M 53.515625 177.320312 C 53.515625 182.140625 46.28125 182.140625 46.28125 177.320312 C 46.28125 172.5 53.515625 172.5 53.515625 177.320312 "/>
<path style=" stroke:none;fill-rule:nonzero;fill:rgb(100%,84.3%,0%);fill-opacity:1;" d="M 53.515625 329.183594 C 53.515625 334.003906 46.28125 334.003906 46.28125 329.183594 C 46.28125 324.363281 53.515625 324.363281 53.515625 329.183594 "/>
<path style=" stroke:none;fill-rule:nonzero;fill:rgb(100%,84.3%,0%);fill-opacity:1;" d="M 104.136719 135.621094 C 104.136719 140.445312 96.902344 140.445312 96.902344 135.621094 C 96.902344 130.800781 104.136719 130.800781 104.136719 135.621094 "/>
<path style=" stroke:none;fill-rule:nonzero;fill:rgb(100%,84.3%,0%);fill-opacity:1;" d="M 306.621094 468.753906 C 306.621094 473.574219 299.390625 473.574219 299.390625 468.753906 C 299.390625 463.933594 306.621094 463.933594 306.621094 468.753906 "/>
<path style=" stroke:none;fill-rule:nonzero;fill:rgb(100%,84.3%,0%);fill-opacity:1;" d="M 465.71875 336.414062 C 465.71875 341.238281 458.484375 341.238281 458.484375 336.414062 C 458.484375 331.59375 465.71875 331.59375 465.71875 336.414062 "/>
<path style=" stroke:none;fill-rule:nonzero;fill:rgb(100%,84.3%,0%);fill-opacity:1;" d="M 371.707031 468.753906 C 371.707031 473.574219 364.472656 473.574219 364.472656 468.753906 C 364.472656 463.933594 371.707031 463.933594 371.707031 468.753906 "/>
<path style=" stroke:none;fill-rule:nonzero;fill:rgb(100%,84.3%,0%);fill-opacity:1;" d="M 248.769531 123.082031 C 248.769531 127.902344 241.539062 127.902344 241.539062 123.082031 C 241.539062 118.261719 248.769531 118.261719 248.769531 123.082031 "/>
<path style=" stroke:none;fill-rule:nonzero;fill:rgb(100%,84.3%,0%);fill-opacity:1;" d="M 465.71875 379.804688 C 465.71875 384.628906 458.484375 384.628906 458.484375 379.804688 C 458.484375 374.984375 465.71875 374.984375 465.71875 379.804688 "/>
<path style=" stroke:none;fill-rule:nonzero;fill:rgb(100%,84.3%,0%);fill-opacity:1;" d="M 299.390625 468.753906 C 299.390625 473.574219 292.15625 473.574219 292.15625 468.753906 C 292.15625 463.933594 299.390625 463.933594 299.390625 468.753906 "/>
<path style=" stroke:none;fill-rule:nonzero;fill:rgb(100%,84.3%,0%);fill-opacity:1;" d="M 53.515625 379.804688 C 53.515625 384.628906 46.28125 384.628906 46.28125 379.804688 C 46.28125 374.984375 53.515625 374.984375 53.515625 379.804688 "/>
<path style=" stroke:none;fill-rule:nonzero;fill:rgb(100%,84.3%,0%);fill-opacity:1;" d="M 198.148438 123.082031 C 198.148438 127.902344 190.914062 127.902344 190.914062 123.082031 C 190.914062 118.261719 198.148438 118.261719 198.148438 123.082031 "/>
<path style=" stroke:none;fill-rule:nonzero;fill:rgb(100%,84.3%,0%);fill-opacity:1;" d="M 465.71875 133.929688 C 465.71875 138.75 458.484375 138.75 458.484375 133.929688 C 458.484375 129.109375 465.71875 129.109375 465.71875 133.929688 "/>
<path style=" stroke:none;fill-rule:nonzero;fill:rgb(100%,84.3%,0%);fill-opacity:1;" d="M 342.78125 468.753906 C 342.78125 473.574219 335.546875 473.574219 335.546875 468.753906 C 335.546875 463.933594 342.78125 463.933594 342.78125 468.753906 "/>
<path style=" stroke:none;fill-rule:nonzero;fill:rgb(100%,84.3%,0%);fill-opacity:1;" d="M 440.40625 462.484375 C 440.40625 467.304688 433.175781 467.304688 433.175781 462.484375 C 433.175781 457.664062 440.40625 457.664062 440.40625 462.484375 "/>
<path style=" stroke:none;fill-rule:nonzero;fill:rgb(100%,84.3%,0%);fill-opacity:1;" d="M 205.378906 468.753906 C 205.378906 473.574219 198.148438 473.574219 198.148438 468.753906 C 198.148438 463.933594 205.378906 463.933594 205.378906 468.753906 "/>
<path style=" stroke:none;fill-rule:nonzero;fill:rgb(100%,84.3%,0%);fill-opacity:1;" d="M 154.757812 468.753906 C 154.757812 473.574219 147.523438 473.574219 147.523438 468.753906 C 147.523438 463.933594 154.757812 463.933594 154.757812 468.753906 "/>
<path style=" stroke:none;fill-rule:nonzero;fill:rgb(100%,84.3%,0%);fill-opacity:1;" d="M 436.789062 468.753906 C 436.789062 473.574219 429.558594 473.574219 429.558594 468.753906 C 429.558594 463.933594 436.789062 463.933594 436.789062 468.753906 "/>
<path style=" stroke:none;fill-rule:nonzero;fill:rgb(100%,84.3%,0%);fill-opacity:1;" d="M 465.71875 123.082031 C 465.71875 127.902344 458.484375 127.902344 458.484375 123.082031 C 458.484375 118.261719 465.71875 118.261719 465.71875 123.082031 "/>
<path style=" stroke:none;fill-rule:nonzero;fill:rgb(100%,84.3%,0%);fill-opacity:1;" d="M 59.785156 412.347656 C 59.785156 417.167969 52.550781 417.167969 52.550781 412.347656 C 52.550781 407.527344 59.785156 407.527344 59.785156 412.347656 "/>
<path style=" stroke:none;fill-rule:nonzero;fill:rgb(100%,84.3%,0%);fill-opacity:1;" d="M 350.011719 123.082031 C 350.011719 127.902344 342.777344 127.902344 342.777344 123.082031 C 342.777344 118.261719 350.011719 118.261719 350.011719 123.082031 "/>
<path style=" stroke:none;fill-rule:nonzero;fill:rgb(100%,84.3%,0%);fill-opacity:1;" d="M 227.074219 468.753906 C 227.074219 473.574219 219.84375 473.574219 219.84375 468.753906 C 219.84375 463.933594 227.074219 463.933594 227.074219 468.753906 "/>
<path style=" stroke:none;fill-rule:nonzero;fill:rgb(100%,84.3%,0%);fill-opacity:1;" d="M 444.023438 123.082031 C 444.023438 127.902344 436.792969 127.902344 436.792969 123.082031 C 436.792969 118.261719 444.023438 118.261719 444.023438 123.082031 "/>
<path style=" stroke:none;fill-rule:nonzero;fill:rgb(100%,84.3%,0%);fill-opacity:1;" d="M 465.71875 387.035156 C 465.71875 391.859375 458.484375 391.859375 458.484375 387.035156 C 458.484375 382.214844 465.71875 382.214844 465.71875 387.035156 "/>
<path style=" stroke:none;fill-rule:nonzero;fill:rgb(100%,84.3%,0%);fill-opacity:1;" d="M 53.515625 350.878906 C 53.515625 355.699219 46.28125 355.699219 46.28125 350.878906 C 46.28125 346.058594 53.515625 346.058594 53.515625 350.878906 "/>
<path style=" stroke:none;fill-rule:nonzero;fill:rgb(100%,84.3%,0%);fill-opacity:1;" d="M 53.515625 133.929688 C 53.515625 138.75 46.28125 138.75 46.28125 133.929688 C 46.28125 129.109375 53.515625 129.109375 53.515625 133.929688 "/>
<path style=" stroke:none;fill-rule:nonzero;fill:rgb(100%,84.3%,0%);fill-opacity:1;" d="M 53.515625 394.269531 C 53.515625 399.089844 46.28125 399.089844 46.28125 394.269531 C 46.28125 389.449219 53.515625 389.449219 53.515625 394.269531 "/>
<path style=" stroke:none;fill-rule:nonzero;fill:rgb(100%,84.3%,0%);fill-opacity:1;" d="M 89.671875 468.753906 C 89.671875 473.574219 82.441406 473.574219 82.441406 468.753906 C 82.441406 463.933594 89.671875 463.933594 89.671875 468.753906 "/>
<path style=" stroke:none;fill-rule:nonzero;fill:rgb(100%,84.3%,0%);fill-opacity:1;" d="M 111.367188 468.753906 C 111.367188 473.574219 104.136719 473.574219 104.136719 468.753906 C 104.136719 463.933594 111.367188 463.933594 111.367188 468.753906 "/>
<path style=" stroke:none;fill-rule:nonzero;fill:rgb(100%,84.3%,0%);fill-opacity:1;" d="M 169.222656 468.753906 C 169.222656 473.574219 161.988281 473.574219 161.988281 468.753906 C 161.988281 463.933594 169.222656 463.933594 169.222656 468.753906 "/>
<path style=" stroke:none;fill-rule:nonzero;fill:rgb(100%,84.3%,0%);fill-opacity:1;" d="M 53.515625 459.355469 C 53.515625 464.175781 46.28125 464.175781 46.28125 459.355469 C 46.28125 454.53125 53.515625 454.53125 53.515625 459.355469 "/>
<path style=" stroke:none;fill-rule:nonzero;fill:rgb(100%,84.3%,0%);fill-opacity:1;" d="M 198.148438 468.753906 C 198.148438 473.574219 190.914062 473.574219 190.914062 468.753906 C 190.914062 463.933594 198.148438 463.933594 198.148438 468.753906 "/>
<path style=" stroke:none;fill-rule:nonzero;fill:rgb(100%,84.3%,0%);fill-opacity:1;" d="M 465.71875 148.394531 C 465.71875 153.214844 458.484375 153.214844 458.484375 148.394531 C 458.484375 143.570312 465.71875 143.570312 465.71875 148.394531 "/>
<path style=" stroke:none;fill-rule:nonzero;fill:rgb(100%,84.3%,0%);fill-opacity:1;" d="M 447.640625 462.484375 C 447.640625 467.304688 440.40625 467.304688 440.40625 462.484375 C 440.40625 457.664062 447.640625 457.664062 447.640625 462.484375 "/>
<path style=" stroke:none;fill-rule:nonzero;fill:rgb(100%,84.3%,0%);fill-opacity:1;" d="M 53.515625 423.195312 C 53.515625 428.015625 46.28125 428.015625 46.28125 423.195312 C 46.28125 418.375 53.515625 418.375 53.515625 423.195312 "/>
<path style=" stroke:none;fill-rule:nonzero;fill:rgb(100%,84.3%,0%);fill-opacity:1;" d="M 59.785156 195.398438 C 59.785156 200.21875 52.550781 200.21875 52.550781 195.398438 C 52.550781 190.578125 59.785156 190.578125 59.785156 195.398438 "/>
<path style=" stroke:none;fill-rule:nonzero;fill:rgb(100%,84.3%,0%);fill-opacity:1;" d="M 60.746094 123.082031 C 60.746094 127.902344 53.515625 127.902344 53.515625 123.082031 C 53.515625 118.261719 60.746094 118.261719 60.746094 123.082031 "/>
<path style=" stroke:none;fill-rule:nonzero;fill:rgb(100%,84.3%,0%);fill-opacity:1;" d="M 328.316406 123.082031 C 328.316406 127.902344 321.085938 127.902344 321.085938 123.082031 C 321.085938 118.261719 328.316406 118.261719 328.316406 123.082031 "/>
<path style=" stroke:none;fill-rule:nonzero;fill:rgb(100%,84.3%,0%);fill-opacity:1;" d="M 183.683594 123.082031 C 183.683594 127.902344 176.453125 127.902344 176.453125 123.082031 C 176.453125 118.261719 183.683594 118.261719 183.683594 123.082031 "/>
<path style=" stroke:none;fill-rule:nonzero;fill:rgb(100%,84.3%,0%);fill-opacity:1;" d="M 407.863281 468.753906 C 407.863281 473.574219 400.632812 473.574219 400.632812 468.753906 C 400.632812 463.933594 407.863281 463.933594 407.863281 468.753906 "/>
<path style=" stroke:none;fill-rule:nonzero;fill:rgb(100%,84.3%,0%);fill-opacity:1;" d="M 212.609375 135.621094 C 212.609375 140.445312 205.378906 140.445312 205.378906 135.621094 C 205.378906 130.800781 212.609375 130.800781 212.609375 135.621094 "/>
<path style=" stroke:none;fill-rule:nonzero;fill:rgb(100%,84.3%,0%);fill-opacity:1;" d="M 270.460938 123.082031 C 270.460938 127.902344 263.230469 127.902344 263.230469 123.082031 C 263.230469 118.261719 270.460938 118.261719 270.460938 123.082031 "/>
<path style=" stroke:none;fill-rule:nonzero;fill:rgb(100%,84.3%,0%);fill-opacity:1;" d="M 75.207031 123.082031 C 75.207031 127.902344 67.976562 127.902344 67.976562 123.082031 C 67.976562 118.261719 75.207031 118.261719 75.207031 123.082031 "/>
<path style=" stroke:none;fill-rule:nonzero;fill:rgb(100%,84.3%,0%);fill-opacity:1;" d="M 53.515625 307.488281 C 53.515625 312.308594 46.28125 312.308594 46.28125 307.488281 C 46.28125 302.667969 53.515625 302.667969 53.515625 307.488281 "/>
<path style=" stroke:none;fill-rule:nonzero;fill:rgb(100%,84.3%,0%);fill-opacity:1;" d="M 64.363281 129.351562 C 64.363281 134.175781 57.128906 134.175781 57.128906 129.351562 C 57.128906 124.53125 64.363281 124.53125 64.363281 129.351562 "/>
<path style=" stroke:none;fill-rule:nonzero;fill:rgb(100%,84.3%,0%);fill-opacity:1;" d="M 465.71875 278.5625 C 465.71875 283.382812 458.484375 283.382812 458.484375 278.5625 C 458.484375 273.742188 465.71875 273.742188 465.71875 278.5625 "/>
<path style=" stroke:none;fill-rule:nonzero;fill:rgb(100%,84.3%,0%);fill-opacity:1;" d="M 53.515625 123.082031 C 53.515625 127.902344 46.28125 127.902344 46.28125 123.082031 C 46.28125 118.261719 53.515625 118.261719 53.515625 123.082031 "/>
<path style=" stroke:none;fill-rule:nonzero;fill:rgb(100%,84.3%,0%);fill-opacity:1;" d="M 364.476562 468.753906 C 364.476562 473.574219 357.242188 473.574219 357.242188 468.753906 C 357.242188 463.933594 364.476562 463.933594 364.476562 468.753906 "/>
<path style=" stroke:none;fill-rule:nonzero;fill:rgb(100%,84.3%,0%);fill-opacity:1;" d="M 53.515625 358.109375 C 53.515625 362.933594 46.28125 362.933594 46.28125 358.109375 C 46.28125 353.289062 53.515625 353.289062 53.515625 358.109375 "/>
<path style=" stroke:none;fill-rule:nonzero;fill:rgb(100%,84.3%,0%);fill-opacity:1;" d="M 227.074219 123.082031 C 227.074219 127.902344 219.84375 127.902344 219.84375 123.082031 C 219.84375 118.261719 227.074219 118.261719 227.074219 123.082031 "/>
<path style=" stroke:none;fill-rule:nonzero;fill:rgb(100%,84.3%,0%);fill-opacity:1;" d="M 465.71875 227.941406 C 465.71875 232.761719 458.484375 232.761719 458.484375 227.941406 C 458.484375 223.121094 465.71875 223.121094 465.71875 227.941406 "/>
<path style=" stroke:none;fill-rule:nonzero;fill:rgb(100%,84.3%,0%);fill-opacity:1;" d="M 465.71875 293.027344 C 465.71875 297.847656 458.484375 297.847656 458.484375 293.027344 C 458.484375 288.203125 465.71875 288.203125 465.71875 293.027344 "/>
<path style=" stroke:none;fill-rule:nonzero;fill:rgb(100%,84.3%,0%);fill-opacity:1;" d="M 53.515625 452.121094 C 53.515625 456.941406 46.28125 456.941406 46.28125 452.121094 C 46.28125 447.300781 53.515625 447.300781 53.515625 452.121094 "/>
<path style=" stroke:none;fill-rule:nonzero;fill:rgb(100%,84.3%,0%);fill-opacity:1;" d="M 465.71875 394.269531 C 465.71875 399.089844 458.484375 399.089844 458.484375 394.269531 C 458.484375 389.449219 465.71875 389.449219 465.71875 394.269531 "/>
<path style=" stroke:none;fill-rule:nonzero;fill:rgb(100%,84.3%,0%);fill-opacity:1;" d="M 465.71875 329.183594 C 465.71875 334.003906 458.484375 334.003906 458.484375 329.183594 C 458.484375 324.363281 465.71875 324.363281 465.71875 329.183594 "/>
<path style=" stroke:none;fill-rule:nonzero;fill:rgb(100%,84.3%,0%);fill-opacity:1;" d="M 465.71875 242.40625 C 465.71875 247.226562 458.484375 247.226562 458.484375 242.40625 C 458.484375 237.582031 465.71875 237.582031 465.71875 242.40625 "/>
<path style=" stroke:none;fill-rule:nonzero;fill:rgb(100%,84.3%,0%);fill-opacity:1;" d="M 212.609375 468.753906 C 212.609375 473.574219 205.378906 473.574219 205.378906 468.753906 C 205.378906 463.933594 212.609375 463.933594 212.609375 468.753906 "/>
<path style=" stroke:none;fill-rule:nonzero;fill:rgb(100%,84.3%,0%);fill-opacity:1;" d="M 114.984375 129.351562 C 114.984375 134.175781 107.75 134.175781 107.75 129.351562 C 107.75 124.53125 114.984375 124.53125 114.984375 129.351562 "/>
<path style=" stroke:none;fill-rule:nonzero;fill:rgb(100%,84.3%,0%);fill-opacity:1;" d="M 378.9375 123.082031 C 378.9375 127.902344 371.707031 127.902344 371.707031 123.082031 C 371.707031 118.261719 378.9375 118.261719 378.9375 123.082031 "/>
<path style=" stroke:none;fill-rule:nonzero;fill:rgb(100%,84.3%,0%);fill-opacity:1;" d="M 234.304688 123.082031 C 234.304688 127.902344 227.074219 127.902344 227.074219 123.082031 C 227.074219 118.261719 234.304688 118.261719 234.304688 123.082031 "/>
<path style=" stroke:none;fill-rule:nonzero;fill:rgb(100%,84.3%,0%);fill-opacity:1;" d="M 465.71875 401.5 C 465.71875 406.320312 458.484375 406.320312 458.484375 401.5 C 458.484375 396.679688 465.71875 396.679688 465.71875 401.5 "/>
<path style=" stroke:none;fill-rule:nonzero;fill:rgb(100%,84.3%,0%);fill-opacity:1;" d="M 270.460938 468.753906 C 270.460938 473.574219 263.230469 473.574219 263.230469 468.753906 C 263.230469 463.933594 270.460938 463.933594 270.460938 468.753906 "/>
<path style=" stroke:none;fill-rule:nonzero;fill:rgb(100%,84.3%,0%);fill-opacity:1;" d="M 465.71875 423.195312 C 465.71875 428.015625 458.484375 428.015625 458.484375 423.195312 C 458.484375 418.375 465.71875 418.375 465.71875 423.195312 "/>
<path style=" stroke:none;fill-rule:nonzero;fill:rgb(100%,84.3%,0%);fill-opacity:1;" d="M 263.230469 123.082031 C 263.230469 127.902344 256 127.902344 256 123.082031 C 256 118.261719 263.230469 118.261719 263.230469 123.082031 "/>
<path style=" stroke:none;fill-rule:nonzero;fill:rgb(100%,84.3%,0%);fill-opacity:1;" d="M 140.292969 468.753906 C 140.292969 473.574219 133.0625 473.574219 133.0625 468.753906 C 133.0625 463.933594 140.292969 463.933594 140.292969 468.753906 "/>
<path style=" stroke:none;fill-rule:nonzero;fill:rgb(100%,84.3%,0%);fill-opacity:1;" d="M 465.71875 141.160156 C 465.71875 145.984375 458.484375 145.984375 458.484375 141.160156 C 458.484375 136.339844 465.71875 136.339844 465.71875 141.160156 "/>
<path style=" stroke:none;fill-rule:nonzero;fill:rgb(100%,84.3%,0%);fill-opacity:1;" d="M 422.328125 468.753906 C 422.328125 473.574219 415.097656 473.574219 415.097656 468.753906 C 415.097656 463.933594 422.328125 463.933594 422.328125 468.753906 "/>
<path style=" stroke:none;fill-rule:nonzero;fill:rgb(100%,84.3%,0%);fill-opacity:1;" d="M 53.515625 365.34375 C 53.515625 370.164062 46.28125 370.164062 46.28125 365.34375 C 46.28125 360.519531 53.515625 360.519531 53.515625 365.34375 "/>
<path style=" stroke:none;fill-rule:nonzero;fill:rgb(100%,84.3%,0%);fill-opacity:1;" d="M 465.71875 307.488281 C 465.71875 312.308594 458.484375 312.308594 458.484375 307.488281 C 458.484375 302.667969 465.71875 302.667969 465.71875 307.488281 "/>
<path style=" stroke:none;fill-rule:nonzero;fill:rgb(100%,84.3%,0%);fill-opacity:1;" d="M 59.785156 426.8125 C 59.785156 431.632812 52.550781 431.632812 52.550781 426.8125 C 52.550781 421.988281 59.785156 421.988281 59.785156 426.8125 "/>
<path style=" stroke:none;fill-rule:nonzero;fill:rgb(100%,84.3%,0%);fill-opacity:1;" d="M 350.011719 468.753906 C 350.011719 473.574219 342.777344 473.574219 342.777344 468.753906 C 342.777344 463.933594 350.011719 463.933594 350.011719 468.753906 "/>
<path style=" stroke:none;fill-rule:nonzero;fill:rgb(100%,84.3%,0%);fill-opacity:1;" d="M 436.789062 123.082031 C 436.789062 127.902344 429.558594 127.902344 429.558594 123.082031 C 429.558594 118.261719 436.789062 118.261719 436.789062 123.082031 "/>
<path style=" stroke:none;fill-rule:nonzero;fill:rgb(100%,84.3%,0%);fill-opacity:1;" d="M 339.164062 462.484375 C 339.164062 467.304688 331.933594 467.304688 331.933594 462.484375 C 331.933594 457.664062 339.164062 457.664062 339.164062 462.484375 "/>
<path style=" stroke:none;fill-rule:nonzero;fill:rgb(100%,84.3%,0%);fill-opacity:1;" d="M 277.695312 123.082031 C 277.695312 127.902344 270.464844 127.902344 270.464844 123.082031 C 270.464844 118.261719 277.695312 118.261719 277.695312 123.082031 "/>
<path style=" stroke:none;fill-rule:nonzero;fill:rgb(100%,84.3%,0%);fill-opacity:1;" d="M 415.097656 123.082031 C 415.097656 127.902344 407.863281 127.902344 407.863281 123.082031 C 407.863281 118.261719 415.097656 118.261719 415.097656 123.082031 "/>
<path style=" stroke:none;fill-rule:nonzero;fill:rgb(100%,84.3%,0%);fill-opacity:1;" d="M 104.136719 123.082031 C 104.136719 127.902344 96.902344 127.902344 96.902344 123.082031 C 96.902344 118.261719 104.136719 118.261719 104.136719 123.082031 "/>
<path style=" stroke:none;fill-rule:nonzero;fill:rgb(100%,84.3%,0%);fill-opacity:1;" d="M 82.441406 468.753906 C 82.441406 473.574219 75.210938 473.574219 75.210938 468.753906 C 75.210938 463.933594 82.441406 463.933594 82.441406 468.753906 "/>
<path style=" stroke:none;fill-rule:nonzero;fill:rgb(100%,84.3%,0%);fill-opacity:1;" d="M 53.515625 372.574219 C 53.515625 377.394531 46.28125 377.394531 46.28125 372.574219 C 46.28125 367.753906 53.515625 367.753906 53.515625 372.574219 "/>
<path style=" stroke:none;fill-rule:nonzero;fill:rgb(100%,84.3%,0%);fill-opacity:1;" d="M 53.515625 285.792969 C 53.515625 290.613281 46.28125 290.613281 46.28125 285.792969 C 46.28125 280.972656 53.515625 280.972656 53.515625 285.792969 "/>
<path style=" stroke:none;fill-rule:nonzero;fill:rgb(100%,84.3%,0%);fill-opacity:1;" d="M 53.515625 444.890625 C 53.515625 449.710938 46.28125 449.710938 46.28125 444.890625 C 46.28125 440.070312 53.515625 440.070312 53.515625 444.890625 "/>
<path style=" stroke:none;fill-rule:nonzero;fill:rgb(100%,84.3%,0%);fill-opacity:1;" d="M 444.023438 456.214844 C 444.023438 461.035156 436.792969 461.035156 436.792969 456.214844 C 436.792969 451.394531 444.023438 451.394531 444.023438 456.214844 "/>
<path style=" stroke:none;fill-rule:nonzero;fill:rgb(100%,84.3%,0%);fill-opacity:1;" d="M 256 468.753906 C 256 473.574219 248.769531 473.574219 248.769531 468.753906 C 248.769531 463.933594 256 463.933594 256 468.753906 "/>
<path style=" stroke:none;fill-rule:nonzero;fill:rgb(100%,84.3%,0%);fill-opacity:1;" d="M 67.976562 468.753906 C 67.976562 473.574219 60.746094 473.574219 60.746094 468.753906 C 60.746094 463.933594 67.976562 463.933594 67.976562 468.753906 "/>
<path style=" stroke:none;fill-rule:nonzero;fill:rgb(100%,84.3%,0%);fill-opacity:1;" d="M 151.140625 462.484375 C 151.140625 467.304688 143.910156 467.304688 143.910156 462.484375 C 143.910156 457.664062 151.140625 457.664062 151.140625 462.484375 "/>
<path style=" stroke:none;fill-rule:nonzero;fill:rgb(100%,84.3%,0%);fill-opacity:1;" d="M 335.546875 123.082031 C 335.546875 127.902344 328.316406 127.902344 328.316406 123.082031 C 328.316406 118.261719 335.546875 118.261719 335.546875 123.082031 "/>
<path style=" stroke:none;fill-rule:nonzero;fill:rgb(100%,84.3%,0%);fill-opacity:1;" d="M 53.515625 249.636719 C 53.515625 254.457031 46.28125 254.457031 46.28125 249.636719 C 46.28125 244.816406 53.515625 244.816406 53.515625 249.636719 "/>
<path style=" stroke:none;fill-rule:nonzero;fill:rgb(100%,84.3%,0%);fill-opacity:1;" d="M 444.023438 468.753906 C 444.023438 473.574219 436.792969 473.574219 436.792969 468.753906 C 436.792969 463.933594 444.023438 463.933594 444.023438 468.753906 "/>
<path style=" stroke:none;fill-rule:nonzero;fill:rgb(100%,84.3%,0%);fill-opacity:1;" d="M 53.515625 314.722656 C 53.515625 319.542969 46.28125 319.542969 46.28125 314.722656 C 46.28125 309.898438 53.515625 309.898438 53.515625 314.722656 "/>
<path style=" stroke:none;fill-rule:nonzero;fill:rgb(100%,84.3%,0%);fill-opacity:1;" d="M 107.75 129.351562 C 107.75 134.175781 100.519531 134.175781 100.519531 129.351562 C 100.519531 124.53125 107.75 124.53125 107.75 129.351562 "/>
<path style=" stroke:none;fill-rule:nonzero;fill:rgb(100%,84.3%,0%);fill-opacity:1;" d="M 241.535156 468.753906 C 241.535156 473.574219 234.304688 473.574219 234.304688 468.753906 C 234.304688 463.933594 241.535156 463.933594 241.535156 468.753906 "/>
<path style=" stroke:none;fill-rule:nonzero;fill:rgb(100%,84.3%,0%);fill-opacity:1;" d="M 66.054688 423.195312 C 66.054688 428.015625 58.820312 428.015625 58.820312 423.195312 C 58.820312 418.375 66.054688 418.375 66.054688 423.195312 "/>
<path style=" stroke:none;fill-rule:nonzero;fill:rgb(100%,84.3%,0%);fill-opacity:1;" d="M 313.851562 468.753906 C 313.851562 473.574219 306.621094 473.574219 306.621094 468.753906 C 306.621094 463.933594 313.851562 463.933594 313.851562 468.753906 "/>
<path style=" stroke:none;fill-rule:nonzero;fill:rgb(100%,84.3%,0%);fill-opacity:1;" d="M 133.0625 468.753906 C 133.0625 473.574219 125.832031 473.574219 125.832031 468.753906 C 125.832031 463.933594 133.0625 463.933594 133.0625 468.753906 "/>
<path style=" stroke:none;fill-rule:nonzero;fill:rgb(100%,84.3%,0%);fill-opacity:1;" d="M 53.515625 293.027344 C 53.515625 297.847656 46.28125 297.847656 46.28125 293.027344 C 46.28125 288.203125 53.515625 288.203125 53.515625 293.027344 "/>
<path style=" stroke:none;fill-rule:nonzero;fill:rgb(100%,84.3%,0%);fill-opacity:1;" d="M 118.597656 468.753906 C 118.597656 473.574219 111.367188 473.574219 111.367188 468.753906 C 111.367188 463.933594 118.597656 463.933594 118.597656 468.753906 "/>
<path style=" stroke:none;fill-rule:nonzero;fill:rgb(100%,84.3%,0%);fill-opacity:1;" d="M 386.167969 468.753906 C 386.167969 473.574219 378.9375 473.574219 378.9375 468.753906 C 378.9375 463.933594 386.167969 463.933594 386.167969 468.753906 "/>
<path style=" stroke:none;fill-rule:nonzero;fill:rgb(100%,84.3%,0%);fill-opacity:1;" d="M 53.515625 206.246094 C 53.515625 211.066406 46.28125 211.066406 46.28125 206.246094 C 46.28125 201.425781 53.515625 201.425781 53.515625 206.246094 "/>
<path style=" stroke:none;fill-rule:nonzero;fill:rgb(100%,84.3%,0%);fill-opacity:1;" d="M 378.9375 468.753906 C 378.9375 473.574219 371.707031 473.574219 371.707031 468.753906 C 371.707031 463.933594 378.9375 463.933594 378.9375 468.753906 "/>
<path style=" stroke:none;fill-rule:nonzero;fill:rgb(100%,84.3%,0%);fill-opacity:1;" d="M 53.515625 343.648438 C 53.515625 348.46875 46.28125 348.46875 46.28125 343.648438 C 46.28125 338.824219 53.515625 338.824219 53.515625 343.648438 "/>
<path style=" stroke:none;fill-rule:nonzero;fill:rgb(100%,84.3%,0%);fill-opacity:1;" d="M 125.832031 123.082031 C 125.832031 127.902344 118.597656 127.902344 118.597656 123.082031 C 118.597656 118.261719 125.832031 118.261719 125.832031 123.082031 "/>
<path style=" stroke:none;fill-rule:nonzero;fill:rgb(100%,84.3%,0%);fill-opacity:1;" d="M 165.605469 129.351562 C 165.605469 134.175781 158.375 134.175781 158.375 129.351562 C 158.375 124.53125 165.605469 124.53125 165.605469 129.351562 "/>
<path style=" stroke:none;fill-rule:nonzero;fill:rgb(100%,84.3%,0%);fill-opacity:1;" d="M 53.515625 401.5 C 53.515625 406.320312 46.28125 406.320312 46.28125 401.5 C 46.28125 396.679688 53.515625 396.679688 53.515625 401.5 "/>
<path style=" stroke:none;fill-rule:nonzero;fill:rgb(100%,84.3%,0%);fill-opacity:1;" d="M 66.054688 415.964844 C 66.054688 420.785156 58.820312 420.785156 58.820312 415.964844 C 58.820312 411.144531 66.054688 411.144531 66.054688 415.964844 "/>
<path style=" stroke:none;fill-rule:nonzero;fill:rgb(100%,84.3%,0%);fill-opacity:1;" d="M 415.097656 468.753906 C 415.097656 473.574219 407.863281 473.574219 407.863281 468.753906 C 407.863281 463.933594 415.097656 463.933594 415.097656 468.753906 "/>
<path style=" stroke:none;fill-rule:nonzero;fill:rgb(100%,84.3%,0%);fill-opacity:1;" d="M 53.515625 321.953125 C 53.515625 326.773438 46.28125 326.773438 46.28125 321.953125 C 46.28125 317.132812 53.515625 317.132812 53.515625 321.953125 "/>
<path style=" stroke:none;fill-rule:nonzero;fill:rgb(100%,84.3%,0%);fill-opacity:1;" d="M 451.253906 468.753906 C 451.253906 473.574219 444.023438 473.574219 444.023438 468.753906 C 444.023438 463.933594 451.253906 463.933594 451.253906 468.753906 "/>
<path style=" stroke:none;fill-rule:nonzero;fill:rgb(100%,84.3%,0%);fill-opacity:1;" d="M 454.871094 462.484375 C 454.871094 467.304688 447.636719 467.304688 447.636719 462.484375 C 447.636719 457.664062 454.871094 457.664062 454.871094 462.484375 "/>
<path style=" stroke:none;fill-rule:nonzero;fill:rgb(100%,84.3%,0%);fill-opacity:1;" d="M 465.71875 170.089844 C 465.71875 174.910156 458.484375 174.910156 458.484375 170.089844 C 458.484375 165.265625 465.71875 165.265625 465.71875 170.089844 "/>
<path style=" stroke:none;fill-rule:nonzero;fill:rgb(100%,84.3%,0%);fill-opacity:1;" d="M 71.59375 129.351562 C 71.59375 134.175781 64.359375 134.175781 64.359375 129.351562 C 64.359375 124.53125 71.59375 124.53125 71.59375 129.351562 "/>
<path style=" stroke:none;fill-rule:nonzero;fill:rgb(100%,84.3%,0%);fill-opacity:1;" d="M 66.054688 408.730469 C 66.054688 413.554688 58.820312 413.554688 58.820312 408.730469 C 58.820312 403.910156 66.054688 403.910156 66.054688 408.730469 "/>
<path style=" stroke:none;fill-rule:nonzero;fill:rgb(100%,84.3%,0%);fill-opacity:1;" d="M 59.785156 376.191406 C 59.785156 381.011719 52.550781 381.011719 52.550781 376.191406 C 52.550781 371.367188 59.785156 371.367188 59.785156 376.191406 "/>
<path style=" stroke:none;fill-rule:nonzero;fill:rgb(100%,84.3%,0%);fill-opacity:1;" d="M 53.515625 300.257812 C 53.515625 305.078125 46.28125 305.078125 46.28125 300.257812 C 46.28125 295.4375 53.515625 295.4375 53.515625 300.257812 "/>
<path style=" stroke:none;fill-rule:nonzero;fill:rgb(100%,84.3%,0%);fill-opacity:1;" d="M 169.222656 123.082031 C 169.222656 127.902344 161.988281 127.902344 161.988281 123.082031 C 161.988281 118.261719 169.222656 118.261719 169.222656 123.082031 "/>
<path style=" stroke:none;fill-rule:nonzero;fill:rgb(100%,84.3%,0%);fill-opacity:1;" d="M 53.515625 415.964844 C 53.515625 420.785156 46.28125 420.785156 46.28125 415.964844 C 46.28125 411.144531 53.515625 411.144531 53.515625 415.964844 "/>
<path style=" stroke:none;fill-rule:nonzero;fill:rgb(100%,84.3%,0%);fill-opacity:1;" d="M 459.449219 455.738281 C 459.449219 460.558594 452.214844 460.558594 452.214844 455.738281 C 452.214844 450.917969 459.449219 450.917969 459.449219 455.738281 "/>
<path style=" stroke:none;fill-rule:nonzero;fill:rgb(100%,84.3%,0%);fill-opacity:1;" d="M 208.996094 462.484375 C 208.996094 467.304688 201.761719 467.304688 201.761719 462.484375 C 201.761719 457.664062 208.996094 457.664062 208.996094 462.484375 "/>
<path style=" stroke:none;fill-rule:nonzero;fill:rgb(100%,84.3%,0%);fill-opacity:1;" d="M 458.484375 123.082031 C 458.484375 127.902344 451.253906 127.902344 451.253906 123.082031 C 451.253906 118.261719 458.484375 118.261719 458.484375 123.082031 "/>
<path style=" stroke:none;fill-rule:nonzero;fill:rgb(100%,84.3%,0%);fill-opacity:1;" d="M 407.863281 123.082031 C 407.863281 127.902344 400.632812 127.902344 400.632812 123.082031 C 400.632812 118.261719 407.863281 118.261719 407.863281 123.082031 "/>
<path style=" stroke:none;fill-rule:nonzero;fill:rgb(100%,84.3%,0%);fill-opacity:1;" d="M 53.515625 430.425781 C 53.515625 435.25 46.28125 435.25 46.28125 430.425781 C 46.28125 425.605469 53.515625 425.605469 53.515625 430.425781 "/>
<path style=" stroke:none;fill-rule:nonzero;fill:rgb(100%,84.3%,0%);fill-opacity:1;" d="M 205.378906 135.621094 C 205.378906 140.445312 198.148438 140.445312 198.148438 135.621094 C 198.148438 130.800781 205.378906 130.800781 205.378906 135.621094 "/>
<path style=" stroke:none;fill-rule:nonzero;fill:rgb(100%,84.3%,0%);fill-opacity:1;" d="M 72.324219 419.578125 C 72.324219 424.402344 65.09375 424.402344 65.09375 419.578125 C 65.09375 414.757812 72.324219 414.757812 72.324219 419.578125 "/>
<path style=" stroke:none;fill-rule:nonzero;fill:rgb(100%,84.3%,0%);fill-opacity:1;" d="M 154.757812 123.082031 C 154.757812 127.902344 147.523438 127.902344 147.523438 123.082031 C 147.523438 118.261719 154.757812 118.261719 154.757812 123.082031 "/>
<path style=" stroke:none;fill-rule:nonzero;fill:rgb(100%,84.3%,0%);fill-opacity:1;" d="M 465.71875 285.792969 C 465.71875 290.613281 458.484375 290.613281 458.484375 285.792969 C 458.484375 280.972656 465.71875 280.972656 465.71875 285.792969 "/>
<path style=" stroke:none;fill-rule:nonzero;fill:rgb(100%,84.3%,0%);fill-opacity:1;" d="M 400.632812 468.753906 C 400.632812 473.574219 393.402344 473.574219 393.402344 468.753906 C 393.402344 463.933594 400.632812 463.933594 400.632812 468.753906 "/>
<path style=" stroke:none;fill-rule:nonzero;fill:rgb(100%,84.3%,0%);fill-opacity:1;" d="M 190.914062 468.753906 C 190.914062 473.574219 183.683594 473.574219 183.683594 468.753906 C 183.683594 463.933594 190.914062 463.933594 190.914062 468.753906 "/>
<path style=" stroke:none;fill-rule:nonzero;fill:rgb(100%,84.3%,0%);fill-opacity:1;" d="M 400.632812 123.082031 C 400.632812 127.902344 393.402344 127.902344 393.402344 123.082031 C 393.402344 118.261719 400.632812 118.261719 400.632812 123.082031 "/>
<path style=" stroke:none;fill-rule:nonzero;fill:rgb(100%,84.3%,0%);fill-opacity:1;" d="M 53.515625 191.78125 C 53.515625 196.605469 46.28125 196.605469 46.28125 191.78125 C 46.28125 186.960938 53.515625 186.960938 53.515625 191.78125 "/>
<path style=" stroke:none;fill-rule:nonzero;fill:rgb(100%,84.3%,0%);fill-opacity:1;" d="M 292.15625 468.753906 C 292.15625 473.574219 284.925781 473.574219 284.925781 468.753906 C 284.925781 463.933594 292.15625 463.933594 292.15625 468.753906 "/>
<path style=" stroke:none;fill-rule:nonzero;fill:rgb(100%,84.3%,0%);fill-opacity:1;" d="M 147.527344 123.082031 C 147.527344 127.902344 140.292969 127.902344 140.292969 123.082031 C 140.292969 118.261719 147.527344 118.261719 147.527344 123.082031 "/>
<path style=" stroke:none;fill-rule:nonzero;fill:rgb(100%,84.3%,0%);fill-opacity:1;" d="M 140.292969 123.082031 C 140.292969 127.902344 133.0625 127.902344 133.0625 123.082031 C 133.0625 118.261719 140.292969 118.261719 140.292969 123.082031 "/>
<path style=" stroke:none;fill-rule:nonzero;fill:rgb(100%,84.3%,0%);fill-opacity:1;" d="M 393.402344 468.753906 C 393.402344 473.574219 386.167969 473.574219 386.167969 468.753906 C 386.167969 463.933594 393.402344 463.933594 393.402344 468.753906 "/>
<path style=" stroke:none;fill-rule:nonzero;fill:rgb(100%,84.3%,0%);fill-opacity:1;" d="M 104.136719 468.753906 C 104.136719 473.574219 96.902344 473.574219 96.902344 468.753906 C 96.902344 463.933594 104.136719 463.933594 104.136719 468.753906 "/>
<path style=" stroke:none;fill-rule:nonzero;fill:rgb(100%,84.3%,0%);fill-opacity:1;" d="M 53.515625 213.476562 C 53.515625 218.300781 46.28125 218.300781 46.28125 213.476562 C 46.28125 208.65625 53.515625 208.65625 53.515625 213.476562 "/>
<path style=" stroke:none;fill-rule:nonzero;fill:rgb(100%,84.3%,0%);fill-opacity:1;" d="M 161.988281 123.082031 C 161.988281 127.902344 154.757812 127.902344 154.757812 123.082031 C 154.757812 118.261719 161.988281 118.261719 161.988281 123.082031 "/>
<path style=" stroke:none;fill-rule:nonzero;fill:rgb(100%,84.3%,0%);fill-opacity:1;" d="M 53.515625 170.089844 C 53.515625 174.910156 46.28125 174.910156 46.28125 170.089844 C 46.28125 165.265625 53.515625 165.265625 53.515625 170.089844 "/>
<path style=" stroke:none;fill-rule:nonzero;fill:rgb(100%,84.3%,0%);fill-opacity:1;" d="M 198.148438 135.621094 C 198.148438 140.445312 190.914062 140.445312 190.914062 135.621094 C 190.914062 130.800781 198.148438 130.800781 198.148438 135.621094 "/>
<path style=" stroke:none;fill-rule:nonzero;fill:rgb(100%,84.3%,0%);fill-opacity:1;" d="M 53.515625 437.660156 C 53.515625 442.480469 46.28125 442.480469 46.28125 437.660156 C 46.28125 432.839844 53.515625 432.839844 53.515625 437.660156 "/>
<path style=" stroke:none;fill-rule:nonzero;fill:rgb(100%,84.3%,0%);fill-opacity:1;" d="M 465.71875 365.34375 C 465.71875 370.164062 458.484375 370.164062 458.484375 365.34375 C 458.484375 360.519531 465.71875 360.519531 465.71875 365.34375 "/>
<path style=" stroke:none;fill-rule:nonzero;fill:rgb(100%,84.3%,0%);fill-opacity:1;" d="M 465.71875 444.890625 C 465.71875 449.710938 458.484375 449.710938 458.484375 444.890625 C 458.484375 440.070312 465.71875 440.070312 465.71875 444.890625 "/>
<path style=" stroke:none;fill-rule:nonzero;fill:rgb(100%,84.3%,0%);fill-opacity:1;" d="M 342.78125 123.082031 C 342.78125 127.902344 335.546875 127.902344 335.546875 123.082031 C 335.546875 118.261719 342.78125 118.261719 342.78125 123.082031 "/>
<path style=" stroke:none;fill-rule:nonzero;fill:rgb(100%,84.3%,0%);fill-opacity:1;" d="M 459.449219 361.726562 C 459.449219 366.546875 452.214844 366.546875 452.214844 361.726562 C 452.214844 356.90625 459.449219 356.90625 459.449219 361.726562 "/>
<path style=" stroke:none;fill-rule:nonzero;fill:rgb(100%,84.3%,0%);fill-opacity:1;" d="M 75.207031 468.753906 C 75.207031 473.574219 67.976562 473.574219 67.976562 468.753906 C 67.976562 463.933594 75.207031 463.933594 75.207031 468.753906 "/>
<path style=" stroke:none;fill-rule:nonzero;fill:rgb(100%,84.3%,0%);fill-opacity:1;" d="M 176.453125 123.082031 C 176.453125 127.902344 169.21875 127.902344 169.21875 123.082031 C 169.21875 118.261719 176.453125 118.261719 176.453125 123.082031 "/>
<path style=" stroke:none;fill-rule:nonzero;fill:rgb(100%,84.3%,0%);fill-opacity:1;" d="M 161.988281 468.753906 C 161.988281 473.574219 154.757812 473.574219 154.757812 468.753906 C 154.757812 463.933594 161.988281 463.933594 161.988281 468.753906 "/>
<path style=" stroke:none;fill-rule:nonzero;fill:rgb(100%,84.3%,0%);fill-opacity:1;" d="M 100.519531 129.351562 C 100.519531 134.175781 93.289062 134.175781 93.289062 129.351562 C 93.289062 124.53125 100.519531 124.53125 100.519531 129.351562 "/>
<path style=" stroke:none;fill-rule:nonzero;fill:rgb(100%,84.3%,0%);fill-opacity:1;" d="M 201.761719 462.484375 C 201.761719 467.304688 194.53125 467.304688 194.53125 462.484375 C 194.53125 457.664062 201.761719 457.664062 201.761719 462.484375 "/>
<path style=" stroke:none;fill-rule:nonzero;fill:rgb(100%,84.3%,0%);fill-opacity:1;" d="M 465.71875 235.171875 C 465.71875 239.992188 458.484375 239.992188 458.484375 235.171875 C 458.484375 230.351562 465.71875 230.351562 465.71875 235.171875 "/>
<path style=" stroke:none;fill-rule:nonzero;fill:rgb(100%,84.3%,0%);fill-opacity:1;" d="M 335.546875 468.753906 C 335.546875 473.574219 328.316406 473.574219 328.316406 468.753906 C 328.316406 463.933594 335.546875 463.933594 335.546875 468.753906 "/>
<path style=" stroke:none;fill-rule:nonzero;fill:rgb(100%,84.3%,0%);fill-opacity:1;" d="M 75.207031 135.621094 C 75.207031 140.445312 67.976562 140.445312 67.976562 135.621094 C 67.976562 130.800781 75.207031 130.800781 75.207031 135.621094 "/>
<path style=" stroke:none;fill-rule:nonzero;fill:rgb(100%,84.3%,0%);fill-opacity:1;" d="M 67.976562 135.621094 C 67.976562 140.445312 60.746094 140.445312 60.746094 135.621094 C 60.746094 130.800781 67.976562 130.800781 67.976562 135.621094 "/>
<path style=" stroke:none;fill-rule:nonzero;fill:rgb(100%,84.3%,0%);fill-opacity:1;" d="M 465.71875 184.550781 C 465.71875 189.371094 458.484375 189.371094 458.484375 184.550781 C 458.484375 179.730469 465.71875 179.730469 465.71875 184.550781 "/>
<path style=" stroke:none;fill-rule:nonzero;fill:rgb(100%,84.3%,0%);fill-opacity:1;" d="M 205.378906 123.082031 C 205.378906 127.902344 198.148438 127.902344 198.148438 123.082031 C 198.148438 118.261719 205.378906 118.261719 205.378906 123.082031 "/>
<path style=" stroke:none;fill-rule:nonzero;fill:rgb(100%,84.3%,0%);fill-opacity:1;" d="M 59.785156 144.777344 C 59.785156 149.597656 52.550781 149.597656 52.550781 144.777344 C 52.550781 139.957031 59.785156 139.957031 59.785156 144.777344 "/>
<path style=" stroke:none;fill-rule:nonzero;fill:rgb(100%,84.3%,0%);fill-opacity:1;" d="M 465.71875 199.015625 C 465.71875 203.835938 458.484375 203.835938 458.484375 199.015625 C 458.484375 194.195312 465.71875 194.195312 465.71875 199.015625 "/>
<path style=" stroke:none;fill-rule:nonzero;fill:rgb(100%,84.3%,0%);fill-opacity:1;" d="M 292.15625 123.082031 C 292.15625 127.902344 284.925781 127.902344 284.925781 123.082031 C 284.925781 118.261719 292.15625 118.261719 292.15625 123.082031 "/>
<path style=" stroke:none;fill-rule:nonzero;fill:rgb(100%,84.3%,0%);fill-opacity:1;" d="M 299.390625 123.082031 C 299.390625 127.902344 292.15625 127.902344 292.15625 123.082031 C 292.15625 118.261719 299.390625 118.261719 299.390625 123.082031 "/>
<path style=" stroke:none;fill-rule:nonzero;fill:rgb(100%,84.3%,0%);fill-opacity:1;" d="M 190.914062 123.082031 C 190.914062 127.902344 183.683594 127.902344 183.683594 123.082031 C 183.683594 118.261719 190.914062 118.261719 190.914062 123.082031 "/>
<path style=" stroke:none;fill-rule:nonzero;fill:rgb(100%,84.3%,0%);fill-opacity:1;" d="M 53.515625 264.097656 C 53.515625 268.921875 46.28125 268.921875 46.28125 264.097656 C 46.28125 259.277344 53.515625 259.277344 53.515625 264.097656 "/>
<path style=" stroke:none;fill-rule:nonzero;fill:rgb(100%,84.3%,0%);fill-opacity:1;" d="M 118.597656 123.082031 C 118.597656 127.902344 111.367188 127.902344 111.367188 123.082031 C 111.367188 118.261719 118.597656 118.261719 118.597656 123.082031 "/>
<path style=" stroke:none;fill-rule:nonzero;fill:rgb(100%,84.3%,0%);fill-opacity:1;" d="M 451.253906 123.082031 C 451.253906 127.902344 444.023438 127.902344 444.023438 123.082031 C 444.023438 118.261719 451.253906 118.261719 451.253906 123.082031 "/>
<path style=" stroke:none;fill-rule:nonzero;fill:rgb(100%,84.3%,0%);fill-opacity:1;" d="M 465.71875 408.730469 C 465.71875 413.554688 458.484375 413.554688 458.484375 408.730469 C 458.484375 403.910156 465.71875 403.910156 465.71875 408.730469 "/>
<path style=" stroke:none;fill-rule:nonzero;fill:rgb(100%,84.3%,0%);fill-opacity:1;" d="M 96.902344 123.082031 C 96.902344 127.902344 89.671875 127.902344 89.671875 123.082031 C 89.671875 118.261719 96.902344 118.261719 96.902344 123.082031 "/>
<path style=" stroke:none;fill-rule:nonzero;fill:rgb(100%,84.3%,0%);fill-opacity:1;" d="M 454.871094 129.351562 C 454.871094 134.175781 447.636719 134.175781 447.636719 129.351562 C 447.636719 124.53125 454.871094 124.53125 454.871094 129.351562 "/>
<path style=" stroke:none;fill-rule:nonzero;fill:rgb(100%,84.3%,0%);fill-opacity:1;" d="M 66.054688 148.394531 C 66.054688 153.214844 58.820312 153.214844 58.820312 148.394531 C 58.820312 143.570312 66.054688 143.570312 66.054688 148.394531 "/>
<path style=" stroke:none;fill-rule:nonzero;fill:rgb(100%,84.3%,0%);fill-opacity:1;" d="M 465.71875 430.425781 C 465.71875 435.25 458.484375 435.25 458.484375 430.425781 C 458.484375 425.605469 465.71875 425.605469 465.71875 430.425781 "/>
<path style=" stroke:none;fill-rule:nonzero;fill:rgb(100%,84.3%,0%);fill-opacity:1;" d="M 201.761719 129.351562 C 201.761719 134.175781 194.53125 134.175781 194.53125 129.351562 C 194.53125 124.53125 201.761719 124.53125 201.761719 129.351562 "/>
<path style=" stroke:none;fill-rule:nonzero;fill:rgb(100%,84.3%,0%);fill-opacity:1;" d="M 465.71875 459.355469 C 465.71875 464.175781 458.484375 464.175781 458.484375 459.355469 C 458.484375 454.53125 465.71875 454.53125 465.71875 459.355469 "/>
<path style=" stroke:none;fill-rule:nonzero;fill:rgb(100%,84.3%,0%);fill-opacity:1;" d="M 328.316406 468.753906 C 328.316406 473.574219 321.085938 473.574219 321.085938 468.753906 C 321.085938 463.933594 328.316406 463.933594 328.316406 468.753906 "/>
<path style=" stroke:none;fill-rule:nonzero;fill:rgb(100%,84.3%,0%);fill-opacity:1;" d="M 53.515625 220.710938 C 53.515625 225.53125 46.28125 225.53125 46.28125 220.710938 C 46.28125 215.890625 53.515625 215.890625 53.515625 220.710938 "/>
<path style=" stroke:none;fill-rule:nonzero;fill:rgb(100%,84.3%,0%);fill-opacity:1;" d="M 53.515625 336.414062 C 53.515625 341.238281 46.28125 341.238281 46.28125 336.414062 C 46.28125 331.59375 53.515625 331.59375 53.515625 336.414062 "/>
<path style=" stroke:none;fill-rule:nonzero;fill:rgb(100%,84.3%,0%);fill-opacity:1;" d="M 158.371094 129.351562 C 158.371094 134.175781 151.140625 134.175781 151.140625 129.351562 C 151.140625 124.53125 158.371094 124.53125 158.371094 129.351562 "/>
<path style=" stroke:none;fill-rule:nonzero;fill:rgb(100%,84.3%,0%);fill-opacity:1;" d="M 429.558594 123.082031 C 429.558594 127.902344 422.328125 127.902344 422.328125 123.082031 C 422.328125 118.261719 429.558594 118.261719 429.558594 123.082031 "/>
<path style=" stroke:none;fill-rule:nonzero;fill:rgb(100%,84.3%,0%);fill-opacity:1;" d="M 53.515625 271.332031 C 53.515625 276.152344 46.28125 276.152344 46.28125 271.332031 C 46.28125 266.511719 53.515625 266.511719 53.515625 271.332031 "/>
<path style=" stroke:none;fill-rule:nonzero;fill:rgb(100%,84.3%,0%);fill-opacity:1;" d="M 59.785156 137.546875 C 59.785156 142.367188 52.550781 142.367188 52.550781 137.546875 C 52.550781 132.726562 59.785156 132.726562 59.785156 137.546875 "/>
<path style=" stroke:none;fill-rule:nonzero;fill:rgb(100%,84.3%,0%);fill-opacity:1;" d="M 357.242188 123.082031 C 357.242188 127.902344 350.011719 127.902344 350.011719 123.082031 C 350.011719 118.261719 357.242188 118.261719 357.242188 123.082031 "/>
<path style=" stroke:none;fill-rule:nonzero;fill:rgb(100%,84.3%,0%);fill-opacity:1;" d="M 465.71875 256.867188 C 465.71875 261.6875 458.484375 261.6875 458.484375 256.867188 C 458.484375 252.046875 465.71875 252.046875 465.71875 256.867188 "/>
<path style=" stroke:none;fill-rule:nonzero;fill:rgb(100%,84.3%,0%);fill-opacity:1;" d="M 465.71875 264.097656 C 465.71875 268.921875 458.484375 268.921875 458.484375 264.097656 C 458.484375 259.277344 465.71875 259.277344 465.71875 264.097656 "/>
<path style=" stroke:none;fill-rule:nonzero;fill:rgb(100%,84.3%,0%);fill-opacity:1;" d="M 465.71875 177.320312 C 465.71875 182.140625 458.484375 182.140625 458.484375 177.320312 C 458.484375 172.5 465.71875 172.5 465.71875 177.320312 "/>
<path style=" stroke:none;fill-rule:nonzero;fill:rgb(100%,84.3%,0%);fill-opacity:1;" d="M 465.71875 155.625 C 465.71875 160.445312 458.484375 160.445312 458.484375 155.625 C 458.484375 150.804688 465.71875 150.804688 465.71875 155.625 "/>
<path style=" stroke:none;fill-rule:nonzero;fill:rgb(100%,84.3%,0%);fill-opacity:1;" d="M 208.996094 129.351562 C 208.996094 134.175781 201.761719 134.175781 201.761719 129.351562 C 201.761719 124.53125 208.996094 124.53125 208.996094 129.351562 "/>
<path style=" stroke:none;fill-rule:nonzero;fill:rgb(100%,84.3%,0%);fill-opacity:1;" d="M 404.25 462.484375 C 404.25 467.304688 397.015625 467.304688 397.015625 462.484375 C 397.015625 457.664062 404.25 457.664062 404.25 462.484375 "/>
<path style=" stroke:none;fill-rule:nonzero;fill:rgb(100%,84.3%,0%);fill-opacity:1;" d="M 451.253906 135.621094 C 451.253906 140.445312 444.023438 140.445312 444.023438 135.621094 C 444.023438 130.800781 451.253906 130.800781 451.253906 135.621094 "/>
<path style=" stroke:none;fill-rule:nonzero;fill:rgb(100%,84.3%,0%);fill-opacity:1;" d="M 241.535156 123.082031 C 241.535156 127.902344 234.304688 127.902344 234.304688 123.082031 C 234.304688 118.261719 241.535156 118.261719 241.535156 123.082031 "/>
<path style=" stroke:none;fill-rule:nonzero;fill:rgb(100%,84.3%,0%);fill-opacity:1;" d="M 96.902344 468.753906 C 96.902344 473.574219 89.671875 473.574219 89.671875 468.753906 C 89.671875 463.933594 96.902344 463.933594 96.902344 468.753906 "/>
<path style=" stroke:none;fill-rule:nonzero;fill:rgb(100%,84.3%,0%);fill-opacity:1;" d="M 53.515625 235.171875 C 53.515625 239.992188 46.28125 239.992188 46.28125 235.171875 C 46.28125 230.351562 53.515625 230.351562 53.515625 235.171875 "/>
<path style=" stroke:none;fill-rule:nonzero;fill:rgb(100%,84.3%,0%);fill-opacity:1;" d="M 219.84375 468.753906 C 219.84375 473.574219 212.609375 473.574219 212.609375 468.753906 C 212.609375 463.933594 219.84375 463.933594 219.84375 468.753906 "/>
<path style=" stroke:none;fill-rule:nonzero;fill:rgb(100%,84.3%,0%);fill-opacity:1;" d="M 180.066406 129.351562 C 180.066406 134.175781 172.835938 134.175781 172.835938 129.351562 C 172.835938 124.53125 180.066406 124.53125 180.066406 129.351562 "/>
<path style=" stroke:none;fill-rule:nonzero;fill:rgb(100%,84.3%,0%);fill-opacity:1;" d="M 125.832031 468.753906 C 125.832031 473.574219 118.597656 473.574219 118.597656 468.753906 C 118.597656 463.933594 125.832031 463.933594 125.832031 468.753906 "/>
<path style=" stroke:none;fill-rule:nonzero;fill:rgb(100%,84.3%,0%);fill-opacity:1;" d="M 465.71875 321.953125 C 465.71875 326.773438 458.484375 326.773438 458.484375 321.953125 C 458.484375 317.132812 465.71875 317.132812 465.71875 321.953125 "/>
<path style=" stroke:none;fill-rule:nonzero;fill:rgb(100%,84.3%,0%);fill-opacity:1;" d="M 465.71875 300.257812 C 465.71875 305.078125 458.484375 305.078125 458.484375 300.257812 C 458.484375 295.4375 465.71875 295.4375 465.71875 300.257812 "/>
<path style=" stroke:none;fill-rule:nonzero;fill:rgb(100%,84.3%,0%);fill-opacity:1;" d="M 53.515625 256.867188 C 53.515625 261.6875 46.28125 261.6875 46.28125 256.867188 C 46.28125 252.046875 53.515625 252.046875 53.515625 256.867188 "/>
<path style=" stroke:none;fill-rule:nonzero;fill:rgb(100%,84.3%,0%);fill-opacity:1;" d="M 465.71875 162.855469 C 465.71875 167.675781 458.484375 167.675781 458.484375 162.855469 C 458.484375 158.035156 465.71875 158.035156 465.71875 162.855469 "/>
<path style=" stroke:none;fill-rule:nonzero;fill:rgb(100%,84.3%,0%);fill-opacity:1;" d="M 66.054688 155.625 C 66.054688 160.445312 58.820312 160.445312 58.820312 155.625 C 58.820312 150.804688 66.054688 150.804688 66.054688 155.625 "/>
<path style=" stroke:none;fill-rule:nonzero;fill:rgb(100%,84.3%,0%);fill-opacity:1;" d="M 176.453125 468.753906 C 176.453125 473.574219 169.21875 473.574219 169.21875 468.753906 C 169.21875 463.933594 176.453125 463.933594 176.453125 468.753906 "/>
<path style=" stroke:none;fill-rule:nonzero;fill:rgb(100%,84.3%,0%);fill-opacity:1;" d="M 53.515625 199.015625 C 53.515625 203.835938 46.28125 203.835938 46.28125 199.015625 C 46.28125 194.195312 53.515625 194.195312 53.515625 199.015625 "/>
<path style=" stroke:none;fill-rule:nonzero;fill:rgb(100%,84.3%,0%);fill-opacity:1;" d="M 190.914062 135.621094 C 190.914062 140.445312 183.683594 140.445312 183.683594 135.621094 C 183.683594 130.800781 190.914062 130.800781 190.914062 135.621094 "/>
<path style=" stroke:none;fill-rule:nonzero;fill:rgb(100%,84.3%,0%);fill-opacity:1;" d="M 346.394531 462.484375 C 346.394531 467.304688 339.164062 467.304688 339.164062 462.484375 C 339.164062 457.664062 346.394531 457.664062 346.394531 462.484375 "/>
<path style=" stroke:none;fill-rule:nonzero;fill:rgb(100%,84.3%,0%);fill-opacity:1;" d="M 205.378906 456.214844 C 205.378906 461.035156 198.148438 461.035156 198.148438 456.214844 C 198.148438 451.394531 205.378906 451.394531 205.378906 456.214844 "/>
<path style=" stroke:none;fill-rule:nonzero;fill:rgb(100%,84.3%,0%);fill-opacity:1;" d="M 256 123.082031 C 256 127.902344 248.769531 127.902344 248.769531 123.082031 C 248.769531 118.261719 256 118.261719 256 123.082031 "/>
<path style=" stroke:none;fill-rule:nonzero;fill:rgb(100%,84.3%,0%);fill-opacity:1;" d="M 59.785156 434.042969 C 59.785156 438.863281 52.550781 438.863281 52.550781 434.042969 C 52.550781 429.222656 59.785156 429.222656 59.785156 434.042969 "/>
<path style=" stroke:none;fill-rule:nonzero;fill:rgb(100%,84.3%,0%);fill-opacity:1;" d="M 82.441406 123.082031 C 82.441406 127.902344 75.210938 127.902344 75.210938 123.082031 C 75.210938 118.261719 82.441406 118.261719 82.441406 123.082031 "/>
<path style=" stroke:none;fill-rule:nonzero;fill:rgb(100%,84.3%,0%);fill-opacity:1;" d="M 234.304688 468.753906 C 234.304688 473.574219 227.074219 473.574219 227.074219 468.753906 C 227.074219 463.933594 234.304688 463.933594 234.304688 468.753906 "/>
<path style=" stroke:none;fill-rule:nonzero;fill:rgb(100%,84.3%,0%);fill-opacity:1;" d="M 465.71875 213.476562 C 465.71875 218.300781 458.484375 218.300781 458.484375 213.476562 C 458.484375 208.65625 465.71875 208.65625 465.71875 213.476562 "/>
<path style=" stroke:none;fill-rule:nonzero;fill:rgb(100%,84.3%,0%);fill-opacity:1;" d="M 465.71875 468.753906 C 465.71875 473.574219 458.484375 473.574219 458.484375 468.753906 C 458.484375 463.933594 465.71875 463.933594 465.71875 468.753906 "/>
<path style=" stroke:none;fill-rule:nonzero;fill:rgb(100%,84.3%,0%);fill-opacity:1;" d="M 59.785156 159.242188 C 59.785156 164.0625 52.550781 164.0625 52.550781 159.242188 C 52.550781 154.417969 59.785156 154.417969 59.785156 159.242188 "/>
<path style=" stroke:none;fill-rule:nonzero;fill:rgb(100%,84.3%,0%);fill-opacity:1;" d="M 360.859375 129.351562 C 360.859375 134.175781 353.628906 134.175781 353.628906 129.351562 C 353.628906 124.53125 360.859375 124.53125 360.859375 129.351562 "/>
<path style=" stroke:none;fill-rule:nonzero;fill:rgb(100%,84.3%,0%);fill-opacity:1;" d="M 277.695312 468.753906 C 277.695312 473.574219 270.464844 473.574219 270.464844 468.753906 C 270.464844 463.933594 277.695312 463.933594 277.695312 468.753906 "/>
<path style=" stroke:none;fill-rule:nonzero;fill:rgb(100%,84.3%,0%);fill-opacity:1;" d="M 465.71875 220.710938 C 465.71875 225.53125 458.484375 225.53125 458.484375 220.710938 C 458.484375 215.890625 465.71875 215.890625 465.71875 220.710938 "/>
<path style=" stroke:none;fill-rule:nonzero;fill:rgb(100%,84.3%,0%);fill-opacity:1;" d="M 147.527344 468.753906 C 147.527344 473.574219 140.292969 473.574219 140.292969 468.753906 C 140.292969 463.933594 147.527344 463.933594 147.527344 468.753906 "/>
<path style=" stroke:none;fill-rule:nonzero;fill:rgb(100%,84.3%,0%);fill-opacity:1;" d="M 59.785156 332.800781 C 59.785156 337.621094 52.550781 337.621094 52.550781 332.800781 C 52.550781 327.980469 59.785156 327.980469 59.785156 332.800781 "/>
<path style=" stroke:none;fill-rule:nonzero;fill:rgb(100%,84.3%,0%);fill-opacity:1;" d="M 346.394531 129.351562 C 346.394531 134.175781 339.164062 134.175781 339.164062 129.351562 C 339.164062 124.53125 346.394531 124.53125 346.394531 129.351562 "/>
<path style=" stroke:none;fill-rule:nonzero;fill:rgb(100%,84.3%,0%);fill-opacity:1;" d="M 67.976562 123.082031 C 67.976562 127.902344 60.746094 127.902344 60.746094 123.082031 C 60.746094 118.261719 67.976562 118.261719 67.976562 123.082031 "/>
<path style=" stroke:none;fill-rule:nonzero;fill:rgb(100%,84.3%,0%);fill-opacity:1;" d="M 53.515625 278.5625 C 53.515625 283.382812 46.28125 283.382812 46.28125 278.5625 C 46.28125 273.742188 53.515625 273.742188 53.515625 278.5625 "/>
<path style=" stroke:none;fill-rule:nonzero;fill:rgb(100%,84.3%,0%);fill-opacity:1;" d="M 306.621094 123.082031 C 306.621094 127.902344 299.390625 127.902344 299.390625 123.082031 C 299.390625 118.261719 306.621094 118.261719 306.621094 123.082031 "/>
<path style=" stroke:none;fill-rule:nonzero;fill:rgb(100%,84.3%,0%);fill-opacity:1;" d="M 459.449219 354.496094 C 459.449219 359.316406 452.214844 359.316406 452.214844 354.496094 C 452.214844 349.675781 459.449219 349.675781 459.449219 354.496094 "/>
<path style=" stroke:none;fill-rule:nonzero;fill:rgb(100%,84.3%,0%);fill-opacity:1;" d="M 458.484375 468.753906 C 458.484375 473.574219 451.253906 473.574219 451.253906 468.753906 C 451.253906 463.933594 458.484375 463.933594 458.484375 468.753906 "/>
<path style=" stroke:none;fill-rule:nonzero;fill:rgb(100%,84.3%,0%);fill-opacity:1;" d="M 53.515625 155.625 C 53.515625 160.445312 46.28125 160.445312 46.28125 155.625 C 46.28125 150.804688 53.515625 150.804688 53.515625 155.625 "/>
<path style=" stroke:none;fill-rule:nonzero;fill:rgb(100%,84.3%,0%);fill-opacity:1;" d="M 172.835938 462.484375 C 172.835938 467.304688 165.605469 467.304688 165.605469 462.484375 C 165.605469 457.664062 172.835938 457.664062 172.835938 462.484375 "/>
<path style=" stroke:none;fill-rule:nonzero;fill:rgb(100%,84.3%,0%);fill-opacity:1;" d="M 219.84375 123.082031 C 219.84375 127.902344 212.609375 127.902344 212.609375 123.082031 C 212.609375 118.261719 219.84375 118.261719 219.84375 123.082031 "/>
<path style=" stroke:none;fill-rule:nonzero;fill:rgb(100%,84.3%,0%);fill-opacity:1;" d="M 183.683594 468.753906 C 183.683594 473.574219 176.453125 473.574219 176.453125 468.753906 C 176.453125 463.933594 183.683594 463.933594 183.683594 468.753906 "/>
<path style=" stroke:none;fill-rule:nonzero;fill:rgb(100%,84.3%,0%);fill-opacity:1;" d="M 429.558594 468.753906 C 429.558594 473.574219 422.328125 473.574219 422.328125 468.753906 C 422.328125 463.933594 429.558594 463.933594 429.558594 468.753906 "/>
<path style=" stroke:none;fill-rule:nonzero;fill:rgb(100%,84.3%,0%);fill-opacity:1;" d="M 194.53125 129.351562 C 194.53125 134.175781 187.300781 134.175781 187.300781 129.351562 C 187.300781 124.53125 194.53125 124.53125 194.53125 129.351562 "/>
<path style=" stroke:none;fill-rule:nonzero;fill:rgb(100%,84.3%,0%);fill-opacity:1;" d="M 53.515625 387.035156 C 53.515625 391.859375 46.28125 391.859375 46.28125 387.035156 C 46.28125 382.214844 53.515625 382.214844 53.515625 387.035156 "/>
<path style=" stroke:none;fill-rule:nonzero;fill:rgb(100%,84.3%,0%);fill-opacity:1;" d="M 451.253906 456.214844 C 451.253906 461.035156 444.023438 461.035156 444.023438 456.214844 C 444.023438 451.394531 451.253906 451.394531 451.253906 456.214844 "/>
<path style=" stroke:none;fill-rule:nonzero;fill:rgb(100%,84.3%,0%);fill-opacity:1;" d="M 465.71875 415.964844 C 465.71875 420.785156 458.484375 420.785156 458.484375 415.964844 C 458.484375 411.144531 465.71875 411.144531 465.71875 415.964844 "/>
<path style=" stroke:none;fill-rule:nonzero;fill:rgb(100%,84.3%,0%);fill-opacity:1;" d="M 353.625 129.351562 C 353.625 134.175781 346.394531 134.175781 346.394531 129.351562 C 346.394531 124.53125 353.625 124.53125 353.625 129.351562 "/>
<path style=" stroke:none;fill-rule:nonzero;fill:rgb(100%,84.3%,0%);fill-opacity:1;" d="M 66.054688 430.425781 C 66.054688 435.25 58.820312 435.25 58.820312 430.425781 C 58.820312 425.605469 66.054688 425.605469 66.054688 430.425781 "/>
<path style=" stroke:none;fill-rule:nonzero;fill:rgb(100%,84.3%,0%);fill-opacity:1;" d="M 364.476562 123.082031 C 364.476562 127.902344 357.242188 127.902344 357.242188 123.082031 C 357.242188 118.261719 364.476562 118.261719 364.476562 123.082031 "/>
<path style=" stroke:none;fill-rule:nonzero;fill:rgb(100%,84.3%,0%);fill-opacity:1;" d="M 53.515625 148.394531 C 53.515625 153.214844 46.28125 153.214844 46.28125 148.394531 C 46.28125 143.570312 53.515625 143.570312 53.515625 148.394531 "/>
<path style=" stroke:none;fill-rule:nonzero;fill:rgb(100%,84.3%,0%);fill-opacity:1;" d="M 284.925781 468.753906 C 284.925781 473.574219 277.695312 473.574219 277.695312 468.753906 C 277.695312 463.933594 284.925781 463.933594 284.925781 468.753906 "/>
<path style=" stroke:none;fill-rule:nonzero;fill:rgb(100%,84.3%,0%);fill-opacity:1;" d="M 321.085938 468.753906 C 321.085938 473.574219 313.851562 473.574219 313.851562 468.753906 C 313.851562 463.933594 321.085938 463.933594 321.085938 468.753906 "/>
<path style=" stroke:none;fill-rule:nonzero;fill:rgb(100%,84.3%,0%);fill-opacity:1;" d="M 53.515625 408.730469 C 53.515625 413.554688 46.28125 413.554688 46.28125 408.730469 C 46.28125 403.910156 53.515625 403.910156 53.515625 408.730469 "/>
<path style=" stroke:none;fill-rule:nonzero;fill:rgb(100%,84.3%,0%);fill-opacity:1;" d="M 357.242188 468.753906 C 357.242188 473.574219 350.011719 473.574219 350.011719 468.753906 C 350.011719 463.933594 357.242188 463.933594 357.242188 468.753906 "/>
<path style=" stroke:none;fill-rule:nonzero;fill:rgb(100%,84.3%,0%);fill-opacity:1;" d="M 248.769531 468.753906 C 248.769531 473.574219 241.539062 473.574219 241.539062 468.753906 C 241.539062 463.933594 248.769531 463.933594 248.769531 468.753906 "/>
<path style=" stroke:none;fill-rule:nonzero;fill:rgb(100%,84.3%,0%);fill-opacity:1;" d="M 53.515625 242.40625 C 53.515625 247.226562 46.28125 247.226562 46.28125 242.40625 C 46.28125 237.582031 53.515625 237.582031 53.515625 242.40625 "/>
<path style=" stroke:none;fill-rule:nonzero;fill:rgb(100%,84.3%,0%);fill-opacity:1;" d="M 53.515625 184.550781 C 53.515625 189.371094 46.28125 189.371094 46.28125 184.550781 C 46.28125 179.730469 53.515625 179.730469 53.515625 184.550781 "/>
<path style=" stroke:none;fill-rule:nonzero;fill:rgb(100%,84.3%,0%);fill-opacity:1;" d="M 465.71875 372.574219 C 465.71875 377.394531 458.484375 377.394531 458.484375 372.574219 C 458.484375 367.753906 465.71875 367.753906 465.71875 372.574219 "/>
<path style=" stroke:none;fill-rule:nonzero;fill:rgb(100%,84.3%,0%);fill-opacity:1;" d="M 465.71875 452.121094 C 465.71875 456.941406 458.484375 456.941406 458.484375 452.121094 C 458.484375 447.300781 465.71875 447.300781 465.71875 452.121094 "/>
<path style=" stroke:none;fill-rule:nonzero;fill:rgb(100%,84.3%,0%);fill-opacity:1;" d="M 59.785156 152.007812 C 59.785156 156.832031 52.550781 156.832031 52.550781 152.007812 C 52.550781 147.1875 59.785156 147.1875 59.785156 152.007812 "/>
<path style=" stroke:none;fill-rule:nonzero;fill:rgb(100%,84.3%,0%);fill-opacity:1;" d="M 161.988281 135.621094 C 161.988281 140.445312 154.757812 140.445312 154.757812 135.621094 C 154.757812 130.800781 161.988281 130.800781 161.988281 135.621094 "/>
<path style=" stroke:none;fill-rule:nonzero;fill:rgb(100%,84.3%,0%);fill-opacity:1;" d="M 187.300781 462.484375 C 187.300781 467.304688 180.066406 467.304688 180.066406 462.484375 C 180.066406 457.664062 187.300781 457.664062 187.300781 462.484375 "/>
<path style=" stroke:none;fill-rule:nonzero;fill:rgb(100%,84.3%,0%);fill-opacity:1;" d="M 465.71875 343.648438 C 465.71875 348.46875 458.484375 348.46875 458.484375 343.648438 C 458.484375 338.824219 465.71875 338.824219 465.71875 343.648438 "/>
<path style=" stroke:none;fill-rule:nonzero;fill:rgb(100%,84.3%,0%);fill-opacity:1;" d="M 465.71875 191.78125 C 465.71875 196.605469 458.484375 196.605469 458.484375 191.78125 C 458.484375 186.960938 465.71875 186.960938 465.71875 191.78125 "/>
<path style=" stroke:none;fill-rule:nonzero;fill:rgb(100%,84.3%,0%);fill-opacity:1;" d="M 59.785156 318.335938 C 59.785156 323.15625 52.550781 323.15625 52.550781 318.335938 C 52.550781 313.515625 59.785156 313.515625 59.785156 318.335938 "/>
<path style=" stroke:none;fill-rule:nonzero;fill:rgb(100%,84.3%,0%);fill-opacity:1;" d="M 313.851562 123.082031 C 313.851562 127.902344 306.621094 127.902344 306.621094 123.082031 C 306.621094 118.261719 313.851562 118.261719 313.851562 123.082031 "/>
<path style=" stroke:none;fill-rule:nonzero;fill:rgb(100%,84.3%,0%);fill-opacity:1;" d="M 172.835938 129.351562 C 172.835938 134.175781 165.605469 134.175781 165.605469 129.351562 C 165.605469 124.53125 172.835938 124.53125 172.835938 129.351562 "/>
<path style=" stroke:none;fill-rule:nonzero;fill:rgb(100%,84.3%,0%);fill-opacity:1;" d="M 465.71875 437.660156 C 465.71875 442.480469 458.484375 442.480469 458.484375 437.660156 C 458.484375 432.839844 465.71875 432.839844 465.71875 437.660156 "/>
<path style=" stroke:none;fill-rule:nonzero;fill:rgb(100%,84.3%,0%);fill-opacity:1;" d="M 393.402344 123.082031 C 393.402344 127.902344 386.167969 127.902344 386.167969 123.082031 C 386.167969 118.261719 393.402344 118.261719 393.402344 123.082031 "/>
<path style=" stroke:none;fill-rule:nonzero;fill:rgb(100%,84.3%,0%);fill-opacity:1;" d="M 59.785156 325.566406 C 59.785156 330.390625 52.550781 330.390625 52.550781 325.566406 C 52.550781 320.746094 59.785156 320.746094 59.785156 325.566406 "/>
<path style=" stroke:none;fill-rule:nonzero;fill:rgb(100%,84.3%,0%);fill-opacity:1;" d="M 371.707031 123.082031 C 371.707031 127.902344 364.472656 127.902344 364.472656 123.082031 C 364.472656 118.261719 371.707031 118.261719 371.707031 123.082031 "/>
<path style=" stroke:none;fill-rule:nonzero;fill:rgb(100%,84.3%,0%);fill-opacity:1;" d="M 89.671875 123.082031 C 89.671875 127.902344 82.441406 127.902344 82.441406 123.082031 C 82.441406 118.261719 89.671875 118.261719 89.671875 123.082031 "/>
<path style=" stroke:none;fill-rule:nonzero;fill:rgb(100%,84.3%,0%);fill-opacity:1;" d="M 111.367188 123.082031 C 111.367188 127.902344 104.136719 127.902344 104.136719 123.082031 C 104.136719 118.261719 111.367188 118.261719 111.367188 123.082031 "/>
<path style=" stroke:none;fill-rule:nonzero;fill:rgb(100%,84.3%,0%);fill-opacity:1;" d="M 459.449219 144.777344 C 459.449219 149.597656 452.214844 149.597656 452.214844 144.777344 C 452.214844 139.957031 459.449219 139.957031 459.449219 144.777344 "/>
<path style=" stroke:none;fill-rule:nonzero;fill:rgb(100%,84.3%,0%);fill-opacity:1;" d="M 53.515625 141.160156 C 53.515625 145.984375 46.28125 145.984375 46.28125 141.160156 C 46.28125 136.339844 53.515625 136.339844 53.515625 141.160156 "/>
<path style=" stroke:none;fill-rule:nonzero;fill:rgb(100%,84.3%,0%);fill-opacity:1;" d="M 368.089844 129.351562 C 368.089844 134.175781 360.859375 134.175781 360.859375 129.351562 C 360.859375 124.53125 368.089844 124.53125 368.089844 129.351562 "/>
<path style=" stroke:none;fill-rule:nonzero;fill:rgb(100%,84.3%,0%);fill-opacity:1;" d="M 122.214844 129.351562 C 122.214844 134.175781 114.984375 134.175781 114.984375 129.351562 C 114.984375 124.53125 122.214844 124.53125 122.214844 129.351562 "/>
<path style=" stroke:none;fill-rule:nonzero;fill:rgb(100%,84.3%,0%);fill-opacity:1;" d="M 59.785156 347.261719 C 59.785156 352.085938 52.550781 352.085938 52.550781 347.261719 C 52.550781 342.441406 59.785156 342.441406 59.785156 347.261719 "/>
<path style=" stroke:none;fill-rule:nonzero;fill:rgb(100%,84.3%,0%);fill-opacity:1;" d="M 465.71875 271.332031 C 465.71875 276.152344 458.484375 276.152344 458.484375 271.332031 C 458.484375 266.511719 465.71875 266.511719 465.71875 271.332031 "/>
<path style=" stroke:none;fill-rule:nonzero;fill:rgb(100%,84.3%,0%);fill-opacity:1;" d="M 59.785156 419.578125 C 59.785156 424.402344 52.550781 424.402344 52.550781 419.578125 C 52.550781 414.757812 59.785156 414.757812 59.785156 419.578125 "/>
<path style=" stroke:none;fill-rule:nonzero;fill:rgb(100%,84.3%,0%);fill-opacity:1;" d="M 133.0625 123.082031 C 133.0625 127.902344 125.832031 127.902344 125.832031 123.082031 C 125.832031 118.261719 133.0625 118.261719 133.0625 123.082031 "/>
<path style=" stroke:none;fill-rule:nonzero;fill:rgb(100%,84.3%,0%);fill-opacity:1;" d="M 465.71875 314.722656 C 465.71875 319.542969 458.484375 319.542969 458.484375 314.722656 C 458.484375 309.898438 465.71875 309.898438 465.71875 314.722656 "/>
<path style=" stroke:none;fill-rule:nonzero;fill:rgb(100%,84.3%,0%);fill-opacity:1;" d="M 422.328125 123.082031 C 422.328125 127.902344 415.097656 127.902344 415.097656 123.082031 C 415.097656 118.261719 422.328125 118.261719 422.328125 123.082031 "/>
<path style=" stroke:none;fill-rule:nonzero;fill:rgb(100%,84.3%,0%);fill-opacity:1;" d="M 284.925781 123.082031 C 284.925781 127.902344 277.695312 127.902344 277.695312 123.082031 C 277.695312 118.261719 284.925781 118.261719 284.925781 123.082031 "/>
<path style=" stroke:none;fill-rule:nonzero;fill:rgb(100%,84.3%,0%);fill-opacity:1;" d="M 216.226562 462.484375 C 216.226562 467.304688 208.996094 467.304688 208.996094 462.484375 C 208.996094 457.664062 216.226562 457.664062 216.226562 462.484375 "/>
<path style=" stroke:none;fill-rule:nonzero;fill:rgb(100%,84.3%,0%);fill-opacity:1;" d="M 465.71875 249.636719 C 465.71875 254.457031 458.484375 254.457031 458.484375 249.636719 C 458.484375 244.816406 465.71875 244.816406 465.71875 249.636719 "/>
<path style=" stroke:none;fill-rule:nonzero;fill:rgb(100%,84.3%,0%);fill-opacity:1;" d="M 53.515625 162.855469 C 53.515625 167.675781 46.28125 167.675781 46.28125 162.855469 C 46.28125 158.035156 53.515625 158.035156 53.515625 162.855469 "/>
<path style=" stroke:none;fill-rule:nonzero;fill:rgb(100%,84.3%,0%);fill-opacity:1;" d="M 212.609375 123.082031 C 212.609375 127.902344 205.378906 127.902344 205.378906 123.082031 C 205.378906 118.261719 212.609375 118.261719 212.609375 123.082031 "/>
<path style=" stroke:none;fill-rule:nonzero;fill:rgb(100%,84.3%,0%);fill-opacity:1;" d="M 465.71875 350.878906 C 465.71875 355.699219 458.484375 355.699219 458.484375 350.878906 C 458.484375 346.058594 465.71875 346.058594 465.71875 350.878906 "/>
</g>
</svg>
