<?xml version="1.0" encoding="UTF-8"?>
<svg xmlns="http://www.w3.org/2000/svg" xmlns:xlink="http://www.w3.org/1999/xlink" width="512pt" height="512pt" viewBox="0 0 512 512" version="1.1">
<g id="surface396">
<path style=" stroke:none;fill-rule:nonzero;fill:rgb(26.7%,26.7%,26.7%);fill-opacity:1;" d="M 0 39.917969 L 512 39.917969 L 512 472.078125 L 0 472.078125 Z M 0 39.917969 "/>
<path style=" stroke:none;fill-rule:nonzero;fill:rgb(19.2%,38.8%,66.7%);fill-opacity:1;" d="M 42.667969 75.933594 L 469.332031 75.933594 L 469.332031 436.070312 L 42.667969 436.070312 Z M 42.667969 75.933594 "/>
<path style=" stroke:none;fill-rule:nonzero;fill:rgb(100%,100%,100%);fill-opacity:1;" d="M 274.800781 39.050781 C 274.800781 43.871094 267.570312 43.871094 267.570312 39.050781 C 267.570312 34.230469 274.800781 34.230469 274.800781 39.050781 "/>
<path style=" stroke:none;fill-rule:nonzero;fill:rgb(100%,100%,100%);fill-opacity:1;" d="M 79.546875 22.417969 C 79.546875 27.238281 72.316406 27.238281 72.316406 22.417969 C 72.316406 17.597656 79.546875 17.597656 79.546875 22.417969 "/>
<path style=" stroke:none;fill-rule:nonzero;fill:rgb(100%,100%,100%);fill-opacity:1;" d="M 177.175781 451.976562 C 177.175781 456.796875 169.941406 456.796875 169.941406 451.976562 C 169.941406 447.15625 177.175781 447.15625 177.175781 451.976562 "/>
<path style=" stroke:none;fill-rule:nonzero;fill:rgb(100%,100%,100%);fill-opacity:1;" d="M 444.023438 15.910156 C 444.023438 20.730469 436.792969 20.730469 436.792969 15.910156 C 436.792969 11.089844 444.023438 11.089844 444.023438 15.910156 "/>
<path style=" stroke:none;fill-rule:nonzero;fill:rgb(100%,100%,100%);fill-opacity:1;" d="M 190.191406 505.492188 C 190.191406 510.3125 182.960938 510.3125 182.960938 505.492188 C 182.960938 500.671875 190.191406 500.671875 190.191406 505.492188 "/>
<path style=" stroke:none;fill-rule:nonzero;fill:rgb(100%,84.3%,0%);fill-opacity:1;" d="M 459.449219 112.089844 C 459.449219 116.910156 452.214844 116.910156 452.214844 112.089844 C 452.214844 107.269531 459.449219 107.269531 459.449219 112.089844 "/>
<path style=" stroke:none;fill-rule:nonzero;fill:rgb(100%,84.3%,0%);fill-opacity:1;" d="M 321.085938 83.164062 C 321.085938 87.984375 313.851562 87.984375 313.851562 83.164062 C 313.851562 78.34375 321.085938 78.34375 321.085938 83.164062 "/>
<path style=" stroke:none;fill-rule:nonzero;fill:rgb(100%,84.3%,0%);fill-opacity:1;" d="M 60.746094 428.835938 C 60.746094 433.65625 53.515625 433.65625 53.515625 428.835938 C 53.515625 424.015625 60.746094 424.015625 60.746094 428.835938 "/>
<path style=" stroke:none;fill-rule:nonzero;fill:rgb(100%,84.3%,0%);fill-opacity:1;" d="M 71.59375 101.972656 C 71.59375 106.796875 64.359375 106.796875 64.359375 101.972656 C 64.359375 97.152344 71.59375 97.152344 71.59375 101.972656 "/>
<path style=" stroke:none;fill-rule:nonzero;fill:rgb(100%,84.3%,0%);fill-opacity:1;" d="M 53.515625 188.023438 C 53.515625 192.84375 46.28125 192.84375 46.28125 188.023438 C 46.28125 183.203125 53.515625 183.203125 53.515625 188.023438 "/>
<path style=" stroke:none;fill-rule:nonzero;fill:rgb(100%,84.3%,0%);fill-opacity:1;" d="M 53.515625 428.835938 C 53.515625 433.65625 46.28125 433.65625 46.28125 428.835938 C 46.28125 424.015625 53.515625 424.015625 53.515625 428.835938 "/>
<path style=" stroke:none;fill-rule:nonzero;fill:rgb(100%,84.3%,0%);fill-opacity:1;" d="M 151.140625 89.433594 C 151.140625 94.253906 143.910156 94.253906 143.910156 89.433594 C 143.910156 84.613281 151.140625 84.613281 151.140625 89.433594 "/>
<path style=" stroke:none;fill-rule:nonzero;fill:rgb(100%,84.3%,0%);fill-opacity:1;" d="M 143.910156 89.433594 C 143.910156 94.253906 136.679688 94.253906 136.679688 89.433594 C 136.679688 84.613281 143.910156 84.613281 143.910156 89.433594 "/>
<path style=" stroke:none;fill-rule:nonzero;fill:rgb(100%,84.3%,0%);fill-opacity:1;" d="M 263.230469 428.835938 C 263.230469 433.65625 256 433.65625 256 428.835938 C 256 424.015625 263.230469 424.015625 263.230469 428.835938 "/>
<path style=" stroke:none;fill-rule:nonzero;fill:rgb(100%,84.3%,0%);fill-opacity:1;" d="M 386.167969 83.164062 C 386.167969 87.984375 378.9375 87.984375 378.9375 83.164062 C 378.9375 78.34375 386.167969 78.34375 386.167969 83.164062 "/>
<path style=" stroke:none;fill-rule:nonzero;fill:rgb(100%,84.3%,0%);fill-opacity:1;" d="M 465.71875 318.191406 C 465.71875 323.011719 458.484375 323.011719 458.484375 318.191406 C 458.484375 313.371094 465.71875 313.371094 465.71875 318.191406 "/>
<path style=" stroke:none;fill-rule:nonzero;fill:rgb(100%,84.3%,0%);fill-opacity:1;" d="M 465.71875 166.328125 C 465.71875 171.148438 458.484375 171.148438 458.484375 166.328125 C 458.484375 161.507812 465.71875 161.507812 465.71875 166.328125 "/>
<path style=" stroke:none;fill-rule:nonzero;fill:rgb(100%,84.3%,0%);fill-opacity:1;" d="M 53.515625 137.402344 C 53.515625 142.222656 46.28125 142.222656 46.28125 137.402344 C 46.28125 132.578125 53.515625 132.578125 53.515625 137.402344 "/>
<path style=" stroke:none;fill-rule:nonzero;fill:rgb(100%,84.3%,0%);fill-opacity:1;" d="M 53.515625 289.265625 C 53.515625 294.085938 46.28125 294.085938 46.28125 289.265625 C 46.28125 284.445312 53.515625 284.445312 53.515625 289.265625 "/>
<path style=" stroke:none;fill-rule:nonzero;fill:rgb(100%,84.3%,0%);fill-opacity:1;" d="M 104.136719 95.703125 C 104.136719 100.523438 96.902344 100.523438 96.902344 95.703125 C 96.902344 90.882812 104.136719 90.882812 104.136719 95.703125 "/>
<path style=" stroke:none;fill-rule:nonzero;fill:rgb(100%,84.3%,0%);fill-opacity:1;" d="M 306.621094 428.835938 C 306.621094 433.65625 299.390625 433.65625 299.390625 428.835938 C 299.390625 424.015625 306.621094 424.015625 306.621094 428.835938 "/>
<path style=" stroke:none;fill-rule:nonzero;fill:rgb(100%,84.3%,0%);fill-opacity:1;" d="M 465.71875 296.496094 C 465.71875 301.316406 458.484375 301.316406 458.484375 296.496094 C 458.484375 291.675781 465.71875 291.675781 465.71875 296.496094 "/>
<path style=" stroke:none;fill-rule:nonzero;fill:rgb(100%,84.3%,0%);fill-opacity:1;" d="M 371.707031 428.835938 C 371.707031 433.65625 364.472656 433.65625 364.472656 428.835938 C 364.472656 424.015625 371.707031 424.015625 371.707031 428.835938 "/>
<path style=" stroke:none;fill-rule:nonzero;fill:rgb(100%,84.3%,0%);fill-opacity:1;" d="M 248.769531 83.164062 C 248.769531 87.984375 241.539062 87.984375 241.539062 83.164062 C 241.539062 78.34375 248.769531 78.34375 248.769531 83.164062 "/>
<path style=" stroke:none;fill-rule:nonzero;fill:rgb(100%,84.3%,0%);fill-opacity:1;" d="M 465.71875 339.886719 C 465.71875 344.707031 458.484375 344.707031 458.484375 339.886719 C 458.484375 335.066406 465.71875 335.066406 465.71875 339.886719 "/>
<path style=" stroke:none;fill-rule:nonzero;fill:rgb(100%,84.3%,0%);fill-opacity:1;" d="M 299.390625 428.835938 C 299.390625 433.65625 292.15625 433.65625 292.15625 428.835938 C 292.15625 424.015625 299.390625 424.015625 299.390625 428.835938 "/>
<path style=" stroke:none;fill-rule:nonzero;fill:rgb(100%,84.3%,0%);fill-opacity:1;" d="M 53.515625 339.886719 C 53.515625 344.707031 46.28125 344.707031 46.28125 339.886719 C 46.28125 335.066406 53.515625 335.066406 53.515625 339.886719 "/>
<path style=" stroke:none;fill-rule:nonzero;fill:rgb(100%,84.3%,0%);fill-opacity:1;" d="M 198.148438 83.164062 C 198.148438 87.984375 190.914062 87.984375 190.914062 83.164062 C 190.914062 78.34375 198.148438 78.34375 198.148438 83.164062 "/>
<path style=" stroke:none;fill-rule:nonzero;fill:rgb(100%,84.3%,0%);fill-opacity:1;" d="M 465.71875 94.011719 C 465.71875 98.832031 458.484375 98.832031 458.484375 94.011719 C 458.484375 89.191406 465.71875 89.191406 465.71875 94.011719 "/>
<path style=" stroke:none;fill-rule:nonzero;fill:rgb(100%,84.3%,0%);fill-opacity:1;" d="M 342.78125 428.835938 C 342.78125 433.65625 335.546875 433.65625 335.546875 428.835938 C 335.546875 424.015625 342.78125 424.015625 342.78125 428.835938 "/>
<path style=" stroke:none;fill-rule:nonzero;fill:rgb(100%,84.3%,0%);fill-opacity:1;" d="M 440.40625 422.566406 C 440.40625 427.386719 433.175781 427.386719 433.175781 422.566406 C 433.175781 417.746094 440.40625 417.746094 440.40625 422.566406 "/>
<path style=" stroke:none;fill-rule:nonzero;fill:rgb(100%,84.3%,0%);fill-opacity:1;" d="M 205.378906 428.835938 C 205.378906 433.65625 198.148438 433.65625 198.148438 428.835938 C 198.148438 424.015625 205.378906 424.015625 205.378906 428.835938 "/>
<path style=" stroke:none;fill-rule:nonzero;fill:rgb(100%,84.3%,0%);fill-opacity:1;" d="M 154.757812 428.835938 C 154.757812 433.65625 147.523438 433.65625 147.523438 428.835938 C 147.523438 424.015625 154.757812 424.015625 154.757812 428.835938 "/>
<path style=" stroke:none;fill-rule:nonzero;fill:rgb(100%,84.3%,0%);fill-opacity:1;" d="M 436.789062 428.835938 C 436.789062 433.65625 429.558594 433.65625 429.558594 428.835938 C 429.558594 424.015625 436.789062 424.015625 436.789062 428.835938 "/>
<path style=" stroke:none;fill-rule:nonzero;fill:rgb(100%,84.3%,0%);fill-opacity:1;" d="M 465.71875 83.164062 C 465.71875 87.984375 458.484375 87.984375 458.484375 83.164062 C 458.484375 78.34375 465.71875 78.34375 465.71875 83.164062 "/>
<path style=" stroke:none;fill-rule:nonzero;fill:rgb(100%,84.3%,0%);fill-opacity:1;" d="M 59.785156 372.429688 C 59.785156 377.25 52.550781 377.25 52.550781 372.429688 C 52.550781 367.609375 59.785156 367.609375 59.785156 372.429688 "/>
<path style=" stroke:none;fill-rule:nonzero;fill:rgb(100%,84.3%,0%);fill-opacity:1;" d="M 350.011719 83.164062 C 350.011719 87.984375 342.777344 87.984375 342.777344 83.164062 C 342.777344 78.34375 350.011719 78.34375 350.011719 83.164062 "/>
<path style=" stroke:none;fill-rule:nonzero;fill:rgb(100%,84.3%,0%);fill-opacity:1;" d="M 227.074219 428.835938 C 227.074219 433.65625 219.84375 433.65625 219.84375 428.835938 C 219.84375 424.015625 227.074219 424.015625 227.074219 428.835938 "/>
<path style=" stroke:none;fill-rule:nonzero;fill:rgb(100%,84.3%,0%);fill-opacity:1;" d="M 444.023438 83.164062 C 444.023438 87.984375 436.792969 87.984375 436.792969 83.164062 C 436.792969 78.34375 444.023438 78.34375 444.023438 83.164062 "/>
<path style=" stroke:none;fill-rule:nonzero;fill:rgb(100%,84.3%,0%);fill-opacity:1;" d="M 465.71875 347.117188 C 465.71875 351.941406 458.484375 351.941406 458.484375 347.117188 C 458.484375 342.296875 465.71875 342.296875 465.71875 347.117188 "/>
<path style=" stroke:none;fill-rule:nonzero;fill:rgb(100%,84.3%,0%);fill-opacity:1;" d="M 53.515625 310.960938 C 53.515625 315.78125 46.28125 315.78125 46.28125 310.960938 C 46.28125 306.140625 53.515625 306.140625 53.515625 310.960938 "/>
<path style=" stroke:none;fill-rule:nonzero;fill:rgb(100%,84.3%,0%);fill-opacity:1;" d="M 53.515625 94.011719 C 53.515625 98.832031 46.28125 98.832031 46.28125 94.011719 C 46.28125 89.191406 53.515625 89.191406 53.515625 94.011719 "/>
<path style=" stroke:none;fill-rule:nonzero;fill:rgb(100%,84.3%,0%);fill-opacity:1;" d="M 53.515625 354.351562 C 53.515625 359.171875 46.28125 359.171875 46.28125 354.351562 C 46.28125 349.527344 53.515625 349.527344 53.515625 354.351562 "/>
<path style=" stroke:none;fill-rule:nonzero;fill:rgb(100%,84.3%,0%);fill-opacity:1;" d="M 89.671875 428.835938 C 89.671875 433.65625 82.441406 433.65625 82.441406 428.835938 C 82.441406 424.015625 89.671875 424.015625 89.671875 428.835938 "/>
<path style=" stroke:none;fill-rule:nonzero;fill:rgb(100%,84.3%,0%);fill-opacity:1;" d="M 111.367188 428.835938 C 111.367188 433.65625 104.136719 433.65625 104.136719 428.835938 C 104.136719 424.015625 111.367188 424.015625 111.367188 428.835938 "/>
<path style=" stroke:none;fill-rule:nonzero;fill:rgb(100%,84.3%,0%);fill-opacity:1;" d="M 169.222656 428.835938 C 169.222656 433.65625 161.988281 433.65625 161.988281 428.835938 C 161.988281 424.015625 169.222656 424.015625 169.222656 428.835938 "/>
<path style=" stroke:none;fill-rule:nonzero;fill:rgb(100%,84.3%,0%);fill-opacity:1;" d="M 53.515625 419.433594 C 53.515625 424.257812 46.28125 424.257812 46.28125 419.433594 C 46.28125 414.613281 53.515625 414.613281 53.515625 419.433594 "/>
<path style=" stroke:none;fill-rule:nonzero;fill:rgb(100%,84.3%,0%);fill-opacity:1;" d="M 198.148438 428.835938 C 198.148438 433.65625 190.914062 433.65625 190.914062 428.835938 C 190.914062 424.015625 198.148438 424.015625 198.148438 428.835938 "/>
<path style=" stroke:none;fill-rule:nonzero;fill:rgb(100%,84.3%,0%);fill-opacity:1;" d="M 465.71875 108.476562 C 465.71875 113.296875 458.484375 113.296875 458.484375 108.476562 C 458.484375 103.652344 465.71875 103.652344 465.71875 108.476562 "/>
<path style=" stroke:none;fill-rule:nonzero;fill:rgb(100%,84.3%,0%);fill-opacity:1;" d="M 447.640625 422.566406 C 447.640625 427.386719 440.40625 427.386719 440.40625 422.566406 C 440.40625 417.746094 447.640625 417.746094 447.640625 422.566406 "/>
<path style=" stroke:none;fill-rule:nonzero;fill:rgb(100%,84.3%,0%);fill-opacity:1;" d="M 53.515625 383.277344 C 53.515625 388.097656 46.28125 388.097656 46.28125 383.277344 C 46.28125 378.457031 53.515625 378.457031 53.515625 383.277344 "/>
<path style=" stroke:none;fill-rule:nonzero;fill:rgb(100%,84.3%,0%);fill-opacity:1;" d="M 59.785156 155.480469 C 59.785156 160.300781 52.550781 160.300781 52.550781 155.480469 C 52.550781 150.660156 59.785156 150.660156 59.785156 155.480469 "/>
<path style=" stroke:none;fill-rule:nonzero;fill:rgb(100%,84.3%,0%);fill-opacity:1;" d="M 60.746094 83.164062 C 60.746094 87.984375 53.515625 87.984375 53.515625 83.164062 C 53.515625 78.34375 60.746094 78.34375 60.746094 83.164062 "/>
<path style=" stroke:none;fill-rule:nonzero;fill:rgb(100%,84.3%,0%);fill-opacity:1;" d="M 328.316406 83.164062 C 328.316406 87.984375 321.085938 87.984375 321.085938 83.164062 C 321.085938 78.34375 328.316406 78.34375 328.316406 83.164062 "/>
<path style=" stroke:none;fill-rule:nonzero;fill:rgb(100%,84.3%,0%);fill-opacity:1;" d="M 183.683594 83.164062 C 183.683594 87.984375 176.453125 87.984375 176.453125 83.164062 C 176.453125 78.34375 183.683594 78.34375 183.683594 83.164062 "/>
<path style=" stroke:none;fill-rule:nonzero;fill:rgb(100%,84.3%,0%);fill-opacity:1;" d="M 407.863281 428.835938 C 407.863281 433.65625 400.632812 433.65625 400.632812 428.835938 C 400.632812 424.015625 407.863281 424.015625 407.863281 428.835938 "/>
<path style=" stroke:none;fill-rule:nonzero;fill:rgb(100%,84.3%,0%);fill-opacity:1;" d="M 212.609375 95.703125 C 212.609375 100.523438 205.378906 100.523438 205.378906 95.703125 C 205.378906 90.882812 212.609375 90.882812 212.609375 95.703125 "/>
<path style=" stroke:none;fill-rule:nonzero;fill:rgb(100%,84.3%,0%);fill-opacity:1;" d="M 270.460938 83.164062 C 270.460938 87.984375 263.230469 87.984375 263.230469 83.164062 C 263.230469 78.34375 270.460938 78.34375 270.460938 83.164062 "/>
<path style=" stroke:none;fill-rule:nonzero;fill:rgb(100%,84.3%,0%);fill-opacity:1;" d="M 75.207031 83.164062 C 75.207031 87.984375 67.976562 87.984375 67.976562 83.164062 C 67.976562 78.34375 75.207031 78.34375 75.207031 83.164062 "/>
<path style=" stroke:none;fill-rule:nonzero;fill:rgb(100%,84.3%,0%);fill-opacity:1;" d="M 53.515625 267.570312 C 53.515625 272.390625 46.28125 272.390625 46.28125 267.570312 C 46.28125 262.75 53.515625 262.75 53.515625 267.570312 "/>
<path style=" stroke:none;fill-rule:nonzero;fill:rgb(100%,84.3%,0%);fill-opacity:1;" d="M 64.363281 89.433594 C 64.363281 94.253906 57.128906 94.253906 57.128906 89.433594 C 57.128906 84.613281 64.363281 84.613281 64.363281 89.433594 "/>
<path style=" stroke:none;fill-rule:nonzero;fill:rgb(100%,84.3%,0%);fill-opacity:1;" d="M 465.71875 238.644531 C 465.71875 243.464844 458.484375 243.464844 458.484375 238.644531 C 458.484375 233.824219 465.71875 233.824219 465.71875 238.644531 "/>
<path style=" stroke:none;fill-rule:nonzero;fill:rgb(100%,84.3%,0%);fill-opacity:1;" d="M 53.515625 83.164062 C 53.515625 87.984375 46.28125 87.984375 46.28125 83.164062 C 46.28125 78.34375 53.515625 78.34375 53.515625 83.164062 "/>
<path style=" stroke:none;fill-rule:nonzero;fill:rgb(100%,84.3%,0%);fill-opacity:1;" d="M 364.476562 428.835938 C 364.476562 433.65625 357.242188 433.65625 357.242188 428.835938 C 357.242188 424.015625 364.476562 424.015625 364.476562 428.835938 "/>
<path style=" stroke:none;fill-rule:nonzero;fill:rgb(100%,84.3%,0%);fill-opacity:1;" d="M 53.515625 318.191406 C 53.515625 323.011719 46.28125 323.011719 46.28125 318.191406 C 46.28125 313.371094 53.515625 313.371094 53.515625 318.191406 "/>
<path style=" stroke:none;fill-rule:nonzero;fill:rgb(100%,84.3%,0%);fill-opacity:1;" d="M 227.074219 83.164062 C 227.074219 87.984375 219.84375 87.984375 219.84375 83.164062 C 219.84375 78.34375 227.074219 78.34375 227.074219 83.164062 "/>
<path style=" stroke:none;fill-rule:nonzero;fill:rgb(100%,84.3%,0%);fill-opacity:1;" d="M 465.71875 188.023438 C 465.71875 192.84375 458.484375 192.84375 458.484375 188.023438 C 458.484375 183.203125 465.71875 183.203125 465.71875 188.023438 "/>
<path style=" stroke:none;fill-rule:nonzero;fill:rgb(100%,84.3%,0%);fill-opacity:1;" d="M 465.71875 253.105469 C 465.71875 257.929688 458.484375 257.929688 458.484375 253.105469 C 458.484375 248.285156 465.71875 248.285156 465.71875 253.105469 "/>
<path style=" stroke:none;fill-rule:nonzero;fill:rgb(100%,84.3%,0%);fill-opacity:1;" d="M 53.515625 412.203125 C 53.515625 417.023438 46.28125 417.023438 46.28125 412.203125 C 46.28125 407.382812 53.515625 407.382812 53.515625 412.203125 "/>
<path style=" stroke:none;fill-rule:nonzero;fill:rgb(100%,84.3%,0%);fill-opacity:1;" d="M 465.71875 354.351562 C 465.71875 359.171875 458.484375 359.171875 458.484375 354.351562 C 458.484375 349.527344 465.71875 349.527344 465.71875 354.351562 "/>
<path style=" stroke:none;fill-rule:nonzero;fill:rgb(100%,84.3%,0%);fill-opacity:1;" d="M 465.71875 289.265625 C 465.71875 294.085938 458.484375 294.085938 458.484375 289.265625 C 458.484375 284.445312 465.71875 284.445312 465.71875 289.265625 "/>
<path style=" stroke:none;fill-rule:nonzero;fill:rgb(100%,84.3%,0%);fill-opacity:1;" d="M 465.71875 202.484375 C 465.71875 207.308594 458.484375 207.308594 458.484375 202.484375 C 458.484375 197.664062 465.71875 197.664062 465.71875 202.484375 "/>
<path style=" stroke:none;fill-rule:nonzero;fill:rgb(100%,84.3%,0%);fill-opacity:1;" d="M 212.609375 428.835938 C 212.609375 433.65625 205.378906 433.65625 205.378906 428.835938 C 205.378906 424.015625 212.609375 424.015625 212.609375 428.835938 "/>
<path style=" stroke:none;fill-rule:nonzero;fill:rgb(100%,84.3%,0%);fill-opacity:1;" d="M 114.984375 89.433594 C 114.984375 94.253906 107.75 94.253906 107.75 89.433594 C 107.75 84.613281 114.984375 84.613281 114.984375 89.433594 "/>
<path style=" stroke:none;fill-rule:nonzero;fill:rgb(100%,84.3%,0%);fill-opacity:1;" d="M 378.9375 83.164062 C 378.9375 87.984375 371.707031 87.984375 371.707031 83.164062 C 371.707031 78.34375 378.9375 78.34375 378.9375 83.164062 "/>
<path style=" stroke:none;fill-rule:nonzero;fill:rgb(100%,84.3%,0%);fill-opacity:1;" d="M 234.304688 83.164062 C 234.304688 87.984375 227.074219 87.984375 227.074219 83.164062 C 227.074219 78.34375 234.304688 78.34375 234.304688 83.164062 "/>
<path style=" stroke:none;fill-rule:nonzero;fill:rgb(100%,84.3%,0%);fill-opacity:1;" d="M 465.71875 361.582031 C 465.71875 366.402344 458.484375 366.402344 458.484375 361.582031 C 458.484375 356.761719 465.71875 356.761719 465.71875 361.582031 "/>
<path style=" stroke:none;fill-rule:nonzero;fill:rgb(100%,84.3%,0%);fill-opacity:1;" d="M 270.460938 428.835938 C 270.460938 433.65625 263.230469 433.65625 263.230469 428.835938 C 263.230469 424.015625 270.460938 424.015625 270.460938 428.835938 "/>
<path style=" stroke:none;fill-rule:nonzero;fill:rgb(100%,84.3%,0%);fill-opacity:1;" d="M 465.71875 383.277344 C 465.71875 388.097656 458.484375 388.097656 458.484375 383.277344 C 458.484375 378.457031 465.71875 378.457031 465.71875 383.277344 "/>
<path style=" stroke:none;fill-rule:nonzero;fill:rgb(100%,84.3%,0%);fill-opacity:1;" d="M 263.230469 83.164062 C 263.230469 87.984375 256 87.984375 256 83.164062 C 256 78.34375 263.230469 78.34375 263.230469 83.164062 "/>
<path style=" stroke:none;fill-rule:nonzero;fill:rgb(100%,84.3%,0%);fill-opacity:1;" d="M 140.292969 428.835938 C 140.292969 433.65625 133.0625 433.65625 133.0625 428.835938 C 133.0625 424.015625 140.292969 424.015625 140.292969 428.835938 "/>
<path style=" stroke:none;fill-rule:nonzero;fill:rgb(100%,84.3%,0%);fill-opacity:1;" d="M 465.71875 101.242188 C 465.71875 106.0625 458.484375 106.0625 458.484375 101.242188 C 458.484375 96.421875 465.71875 96.421875 465.71875 101.242188 "/>
<path style=" stroke:none;fill-rule:nonzero;fill:rgb(100%,84.3%,0%);fill-opacity:1;" d="M 422.328125 428.835938 C 422.328125 433.65625 415.097656 433.65625 415.097656 428.835938 C 415.097656 424.015625 422.328125 424.015625 422.328125 428.835938 "/>
<path style=" stroke:none;fill-rule:nonzero;fill:rgb(100%,84.3%,0%);fill-opacity:1;" d="M 53.515625 325.425781 C 53.515625 330.246094 46.28125 330.246094 46.28125 325.425781 C 46.28125 320.601562 53.515625 320.601562 53.515625 325.425781 "/>
<path style=" stroke:none;fill-rule:nonzero;fill:rgb(100%,84.3%,0%);fill-opacity:1;" d="M 465.71875 267.570312 C 465.71875 272.390625 458.484375 272.390625 458.484375 267.570312 C 458.484375 262.75 465.71875 262.75 465.71875 267.570312 "/>
<path style=" stroke:none;fill-rule:nonzero;fill:rgb(100%,84.3%,0%);fill-opacity:1;" d="M 59.785156 386.894531 C 59.785156 391.714844 52.550781 391.714844 52.550781 386.894531 C 52.550781 382.070312 59.785156 382.070312 59.785156 386.894531 "/>
<path style=" stroke:none;fill-rule:nonzero;fill:rgb(100%,84.3%,0%);fill-opacity:1;" d="M 350.011719 428.835938 C 350.011719 433.65625 342.777344 433.65625 342.777344 428.835938 C 342.777344 424.015625 350.011719 424.015625 350.011719 428.835938 "/>
<path style=" stroke:none;fill-rule:nonzero;fill:rgb(100%,84.3%,0%);fill-opacity:1;" d="M 436.789062 83.164062 C 436.789062 87.984375 429.558594 87.984375 429.558594 83.164062 C 429.558594 78.34375 436.789062 78.34375 436.789062 83.164062 "/>
<path style=" stroke:none;fill-rule:nonzero;fill:rgb(100%,84.3%,0%);fill-opacity:1;" d="M 339.164062 422.566406 C 339.164062 427.386719 331.933594 427.386719 331.933594 422.566406 C 331.933594 417.746094 339.164062 417.746094 339.164062 422.566406 "/>
<path style=" stroke:none;fill-rule:nonzero;fill:rgb(100%,84.3%,0%);fill-opacity:1;" d="M 277.695312 83.164062 C 277.695312 87.984375 270.464844 87.984375 270.464844 83.164062 C 270.464844 78.34375 277.695312 78.34375 277.695312 83.164062 "/>
<path style=" stroke:none;fill-rule:nonzero;fill:rgb(100%,84.3%,0%);fill-opacity:1;" d="M 415.097656 83.164062 C 415.097656 87.984375 407.863281 87.984375 407.863281 83.164062 C 407.863281 78.34375 415.097656 78.34375 415.097656 83.164062 "/>
<path style=" stroke:none;fill-rule:nonzero;fill:rgb(100%,84.3%,0%);fill-opacity:1;" d="M 104.136719 83.164062 C 104.136719 87.984375 96.902344 87.984375 96.902344 83.164062 C 96.902344 78.34375 104.136719 78.34375 104.136719 83.164062 "/>
<path style=" stroke:none;fill-rule:nonzero;fill:rgb(100%,84.3%,0%);fill-opacity:1;" d="M 82.441406 428.835938 C 82.441406 433.65625 75.210938 433.65625 75.210938 428.835938 C 75.210938 424.015625 82.441406 424.015625 82.441406 428.835938 "/>
<path style=" stroke:none;fill-rule:nonzero;fill:rgb(100%,84.3%,0%);fill-opacity:1;" d="M 53.515625 332.65625 C 53.515625 337.476562 46.28125 337.476562 46.28125 332.65625 C 46.28125 327.832031 53.515625 327.832031 53.515625 332.65625 "/>
<path style=" stroke:none;fill-rule:nonzero;fill:rgb(100%,84.3%,0%);fill-opacity:1;" d="M 53.515625 245.875 C 53.515625 250.695312 46.28125 250.695312 46.28125 245.875 C 46.28125 241.054688 53.515625 241.054688 53.515625 245.875 "/>
<path style=" stroke:none;fill-rule:nonzero;fill:rgb(100%,84.3%,0%);fill-opacity:1;" d="M 53.515625 404.972656 C 53.515625 409.792969 46.28125 409.792969 46.28125 404.972656 C 46.28125 400.152344 53.515625 400.152344 53.515625 404.972656 "/>
<path style=" stroke:none;fill-rule:nonzero;fill:rgb(100%,84.3%,0%);fill-opacity:1;" d="M 444.023438 416.296875 C 444.023438 421.117188 436.792969 421.117188 436.792969 416.296875 C 436.792969 411.476562 444.023438 411.476562 444.023438 416.296875 "/>
<path style=" stroke:none;fill-rule:nonzero;fill:rgb(100%,84.3%,0%);fill-opacity:1;" d="M 256 428.835938 C 256 433.65625 248.769531 433.65625 248.769531 428.835938 C 248.769531 424.015625 256 424.015625 256 428.835938 "/>
<path style=" stroke:none;fill-rule:nonzero;fill:rgb(100%,84.3%,0%);fill-opacity:1;" d="M 67.976562 428.835938 C 67.976562 433.65625 60.746094 433.65625 60.746094 428.835938 C 60.746094 424.015625 67.976562 424.015625 67.976562 428.835938 "/>
<path style=" stroke:none;fill-rule:nonzero;fill:rgb(100%,84.3%,0%);fill-opacity:1;" d="M 151.140625 422.566406 C 151.140625 427.386719 143.910156 427.386719 143.910156 422.566406 C 143.910156 417.746094 151.140625 417.746094 151.140625 422.566406 "/>
<path style=" stroke:none;fill-rule:nonzero;fill:rgb(100%,84.3%,0%);fill-opacity:1;" d="M 335.546875 83.164062 C 335.546875 87.984375 328.316406 87.984375 328.316406 83.164062 C 328.316406 78.34375 335.546875 78.34375 335.546875 83.164062 "/>
<path style=" stroke:none;fill-rule:nonzero;fill:rgb(100%,84.3%,0%);fill-opacity:1;" d="M 53.515625 209.71875 C 53.515625 214.539062 46.28125 214.539062 46.28125 209.71875 C 46.28125 204.898438 53.515625 204.898438 53.515625 209.71875 "/>
<path style=" stroke:none;fill-rule:nonzero;fill:rgb(100%,84.3%,0%);fill-opacity:1;" d="M 444.023438 428.835938 C 444.023438 433.65625 436.792969 433.65625 436.792969 428.835938 C 436.792969 424.015625 444.023438 424.015625 444.023438 428.835938 "/>
<path style=" stroke:none;fill-rule:nonzero;fill:rgb(100%,84.3%,0%);fill-opacity:1;" d="M 53.515625 274.800781 C 53.515625 279.625 46.28125 279.625 46.28125 274.800781 C 46.28125 269.980469 53.515625 269.980469 53.515625 274.800781 "/>
<path style=" stroke:none;fill-rule:nonzero;fill:rgb(100%,84.3%,0%);fill-opacity:1;" d="M 107.75 89.433594 C 107.75 94.253906 100.519531 94.253906 100.519531 89.433594 C 100.519531 84.613281 107.75 84.613281 107.75 89.433594 "/>
<path style=" stroke:none;fill-rule:nonzero;fill:rgb(100%,84.3%,0%);fill-opacity:1;" d="M 241.535156 428.835938 C 241.535156 433.65625 234.304688 433.65625 234.304688 428.835938 C 234.304688 424.015625 241.535156 424.015625 241.535156 428.835938 "/>
<path style=" stroke:none;fill-rule:nonzero;fill:rgb(100%,84.3%,0%);fill-opacity:1;" d="M 66.054688 383.277344 C 66.054688 388.097656 58.820312 388.097656 58.820312 383.277344 C 58.820312 378.457031 66.054688 378.457031 66.054688 383.277344 "/>
<path style=" stroke:none;fill-rule:nonzero;fill:rgb(100%,84.3%,0%);fill-opacity:1;" d="M 313.851562 428.835938 C 313.851562 433.65625 306.621094 433.65625 306.621094 428.835938 C 306.621094 424.015625 313.851562 424.015625 313.851562 428.835938 "/>
<path style=" stroke:none;fill-rule:nonzero;fill:rgb(100%,84.3%,0%);fill-opacity:1;" d="M 133.0625 428.835938 C 133.0625 433.65625 125.832031 433.65625 125.832031 428.835938 C 125.832031 424.015625 133.0625 424.015625 133.0625 428.835938 "/>
<path style=" stroke:none;fill-rule:nonzero;fill:rgb(100%,84.3%,0%);fill-opacity:1;" d="M 53.515625 253.105469 C 53.515625 257.929688 46.28125 257.929688 46.28125 253.105469 C 46.28125 248.285156 53.515625 248.285156 53.515625 253.105469 "/>
<path style=" stroke:none;fill-rule:nonzero;fill:rgb(100%,84.3%,0%);fill-opacity:1;" d="M 118.597656 428.835938 C 118.597656 433.65625 111.367188 433.65625 111.367188 428.835938 C 111.367188 424.015625 118.597656 424.015625 118.597656 428.835938 "/>
<path style=" stroke:none;fill-rule:nonzero;fill:rgb(100%,84.3%,0%);fill-opacity:1;" d="M 386.167969 428.835938 C 386.167969 433.65625 378.9375 433.65625 378.9375 428.835938 C 378.9375 424.015625 386.167969 424.015625 386.167969 428.835938 "/>
<path style=" stroke:none;fill-rule:nonzero;fill:rgb(100%,84.3%,0%);fill-opacity:1;" d="M 53.515625 166.328125 C 53.515625 171.148438 46.28125 171.148438 46.28125 166.328125 C 46.28125 161.507812 53.515625 161.507812 53.515625 166.328125 "/>
<path style=" stroke:none;fill-rule:nonzero;fill:rgb(100%,84.3%,0%);fill-opacity:1;" d="M 378.9375 428.835938 C 378.9375 433.65625 371.707031 433.65625 371.707031 428.835938 C 371.707031 424.015625 378.9375 424.015625 378.9375 428.835938 "/>
<path style=" stroke:none;fill-rule:nonzero;fill:rgb(100%,84.3%,0%);fill-opacity:1;" d="M 53.515625 303.730469 C 53.515625 308.550781 46.28125 308.550781 46.28125 303.730469 C 46.28125 298.90625 53.515625 298.90625 53.515625 303.730469 "/>
<path style=" stroke:none;fill-rule:nonzero;fill:rgb(100%,84.3%,0%);fill-opacity:1;" d="M 125.832031 83.164062 C 125.832031 87.984375 118.597656 87.984375 118.597656 83.164062 C 118.597656 78.34375 125.832031 78.34375 125.832031 83.164062 "/>
<path style=" stroke:none;fill-rule:nonzero;fill:rgb(100%,84.3%,0%);fill-opacity:1;" d="M 165.605469 89.433594 C 165.605469 94.253906 158.375 94.253906 158.375 89.433594 C 158.375 84.613281 165.605469 84.613281 165.605469 89.433594 "/>
<path style=" stroke:none;fill-rule:nonzero;fill:rgb(100%,84.3%,0%);fill-opacity:1;" d="M 53.515625 361.582031 C 53.515625 366.402344 46.28125 366.402344 46.28125 361.582031 C 46.28125 356.761719 53.515625 356.761719 53.515625 361.582031 "/>
<path style=" stroke:none;fill-rule:nonzero;fill:rgb(100%,84.3%,0%);fill-opacity:1;" d="M 66.054688 376.046875 C 66.054688 380.867188 58.820312 380.867188 58.820312 376.046875 C 58.820312 371.222656 66.054688 371.222656 66.054688 376.046875 "/>
<path style=" stroke:none;fill-rule:nonzero;fill:rgb(100%,84.3%,0%);fill-opacity:1;" d="M 415.097656 428.835938 C 415.097656 433.65625 407.863281 433.65625 407.863281 428.835938 C 407.863281 424.015625 415.097656 424.015625 415.097656 428.835938 "/>
<path style=" stroke:none;fill-rule:nonzero;fill:rgb(100%,84.3%,0%);fill-opacity:1;" d="M 53.515625 282.035156 C 53.515625 286.855469 46.28125 286.855469 46.28125 282.035156 C 46.28125 277.214844 53.515625 277.214844 53.515625 282.035156 "/>
<path style=" stroke:none;fill-rule:nonzero;fill:rgb(100%,84.3%,0%);fill-opacity:1;" d="M 451.253906 428.835938 C 451.253906 433.65625 444.023438 433.65625 444.023438 428.835938 C 444.023438 424.015625 451.253906 424.015625 451.253906 428.835938 "/>
<path style=" stroke:none;fill-rule:nonzero;fill:rgb(100%,84.3%,0%);fill-opacity:1;" d="M 454.871094 422.566406 C 454.871094 427.386719 447.636719 427.386719 447.636719 422.566406 C 447.636719 417.746094 454.871094 417.746094 454.871094 422.566406 "/>
<path style=" stroke:none;fill-rule:nonzero;fill:rgb(100%,84.3%,0%);fill-opacity:1;" d="M 465.71875 130.167969 C 465.71875 134.988281 458.484375 134.988281 458.484375 130.167969 C 458.484375 125.347656 465.71875 125.347656 465.71875 130.167969 "/>
<path style=" stroke:none;fill-rule:nonzero;fill:rgb(100%,84.3%,0%);fill-opacity:1;" d="M 71.59375 89.433594 C 71.59375 94.253906 64.359375 94.253906 64.359375 89.433594 C 64.359375 84.613281 71.59375 84.613281 71.59375 89.433594 "/>
<path style=" stroke:none;fill-rule:nonzero;fill:rgb(100%,84.3%,0%);fill-opacity:1;" d="M 66.054688 368.8125 C 66.054688 373.636719 58.820312 373.636719 58.820312 368.8125 C 58.820312 363.992188 66.054688 363.992188 66.054688 368.8125 "/>
<path style=" stroke:none;fill-rule:nonzero;fill:rgb(100%,84.3%,0%);fill-opacity:1;" d="M 59.785156 336.269531 C 59.785156 341.09375 52.550781 341.09375 52.550781 336.269531 C 52.550781 331.449219 59.785156 331.449219 59.785156 336.269531 "/>
<path style=" stroke:none;fill-rule:nonzero;fill:rgb(100%,84.3%,0%);fill-opacity:1;" d="M 53.515625 260.339844 C 53.515625 265.160156 46.28125 265.160156 46.28125 260.339844 C 46.28125 255.519531 53.515625 255.519531 53.515625 260.339844 "/>
<path style=" stroke:none;fill-rule:nonzero;fill:rgb(100%,84.3%,0%);fill-opacity:1;" d="M 169.222656 83.164062 C 169.222656 87.984375 161.988281 87.984375 161.988281 83.164062 C 161.988281 78.34375 169.222656 78.34375 169.222656 83.164062 "/>
<path style=" stroke:none;fill-rule:nonzero;fill:rgb(100%,84.3%,0%);fill-opacity:1;" d="M 53.515625 376.046875 C 53.515625 380.867188 46.28125 380.867188 46.28125 376.046875 C 46.28125 371.222656 53.515625 371.222656 53.515625 376.046875 "/>
<path style=" stroke:none;fill-rule:nonzero;fill:rgb(100%,84.3%,0%);fill-opacity:1;" d="M 459.449219 415.820312 C 459.449219 420.640625 452.214844 420.640625 452.214844 415.820312 C 452.214844 410.996094 459.449219 410.996094 459.449219 415.820312 "/>
<path style=" stroke:none;fill-rule:nonzero;fill:rgb(100%,84.3%,0%);fill-opacity:1;" d="M 208.996094 422.566406 C 208.996094 427.386719 201.761719 427.386719 201.761719 422.566406 C 201.761719 417.746094 208.996094 417.746094 208.996094 422.566406 "/>
<path style=" stroke:none;fill-rule:nonzero;fill:rgb(100%,84.3%,0%);fill-opacity:1;" d="M 458.484375 83.164062 C 458.484375 87.984375 451.253906 87.984375 451.253906 83.164062 C 451.253906 78.34375 458.484375 78.34375 458.484375 83.164062 "/>
<path style=" stroke:none;fill-rule:nonzero;fill:rgb(100%,84.3%,0%);fill-opacity:1;" d="M 407.863281 83.164062 C 407.863281 87.984375 400.632812 87.984375 400.632812 83.164062 C 400.632812 78.34375 407.863281 78.34375 407.863281 83.164062 "/>
<path style=" stroke:none;fill-rule:nonzero;fill:rgb(100%,84.3%,0%);fill-opacity:1;" d="M 53.515625 390.507812 C 53.515625 395.328125 46.28125 395.328125 46.28125 390.507812 C 46.28125 385.6875 53.515625 385.6875 53.515625 390.507812 "/>
<path style=" stroke:none;fill-rule:nonzero;fill:rgb(100%,84.3%,0%);fill-opacity:1;" d="M 205.378906 95.703125 C 205.378906 100.523438 198.148438 100.523438 198.148438 95.703125 C 198.148438 90.882812 205.378906 90.882812 205.378906 95.703125 "/>
<path style=" stroke:none;fill-rule:nonzero;fill:rgb(100%,84.3%,0%);fill-opacity:1;" d="M 72.324219 379.660156 C 72.324219 384.480469 65.09375 384.480469 65.09375 379.660156 C 65.09375 374.839844 72.324219 374.839844 72.324219 379.660156 "/>
<path style=" stroke:none;fill-rule:nonzero;fill:rgb(100%,84.3%,0%);fill-opacity:1;" d="M 154.757812 83.164062 C 154.757812 87.984375 147.523438 87.984375 147.523438 83.164062 C 147.523438 78.34375 154.757812 78.34375 154.757812 83.164062 "/>
<path style=" stroke:none;fill-rule:nonzero;fill:rgb(100%,84.3%,0%);fill-opacity:1;" d="M 465.71875 245.875 C 465.71875 250.695312 458.484375 250.695312 458.484375 245.875 C 458.484375 241.054688 465.71875 241.054688 465.71875 245.875 "/>
<path style=" stroke:none;fill-rule:nonzero;fill:rgb(100%,84.3%,0%);fill-opacity:1;" d="M 400.632812 428.835938 C 400.632812 433.65625 393.402344 433.65625 393.402344 428.835938 C 393.402344 424.015625 400.632812 424.015625 400.632812 428.835938 "/>
<path style=" stroke:none;fill-rule:nonzero;fill:rgb(100%,84.3%,0%);fill-opacity:1;" d="M 190.914062 428.835938 C 190.914062 433.65625 183.683594 433.65625 183.683594 428.835938 C 183.683594 424.015625 190.914062 424.015625 190.914062 428.835938 "/>
<path style=" stroke:none;fill-rule:nonzero;fill:rgb(100%,84.3%,0%);fill-opacity:1;" d="M 400.632812 83.164062 C 400.632812 87.984375 393.402344 87.984375 393.402344 83.164062 C 393.402344 78.34375 400.632812 78.34375 400.632812 83.164062 "/>
<path style=" stroke:none;fill-rule:nonzero;fill:rgb(100%,84.3%,0%);fill-opacity:1;" d="M 53.515625 151.863281 C 53.515625 156.683594 46.28125 156.683594 46.28125 151.863281 C 46.28125 147.042969 53.515625 147.042969 53.515625 151.863281 "/>
<path style=" stroke:none;fill-rule:nonzero;fill:rgb(100%,84.3%,0%);fill-opacity:1;" d="M 292.15625 428.835938 C 292.15625 433.65625 284.925781 433.65625 284.925781 428.835938 C 284.925781 424.015625 292.15625 424.015625 292.15625 428.835938 "/>
<path style=" stroke:none;fill-rule:nonzero;fill:rgb(100%,84.3%,0%);fill-opacity:1;" d="M 147.527344 83.164062 C 147.527344 87.984375 140.292969 87.984375 140.292969 83.164062 C 140.292969 78.34375 147.527344 78.34375 147.527344 83.164062 "/>
<path style=" stroke:none;fill-rule:nonzero;fill:rgb(100%,84.3%,0%);fill-opacity:1;" d="M 140.292969 83.164062 C 140.292969 87.984375 133.0625 87.984375 133.0625 83.164062 C 133.0625 78.34375 140.292969 78.34375 140.292969 83.164062 "/>
<path style=" stroke:none;fill-rule:nonzero;fill:rgb(100%,84.3%,0%);fill-opacity:1;" d="M 393.402344 428.835938 C 393.402344 433.65625 386.167969 433.65625 386.167969 428.835938 C 386.167969 424.015625 393.402344 424.015625 393.402344 428.835938 "/>
<path style=" stroke:none;fill-rule:nonzero;fill:rgb(100%,84.3%,0%);fill-opacity:1;" d="M 104.136719 428.835938 C 104.136719 433.65625 96.902344 433.65625 96.902344 428.835938 C 96.902344 424.015625 104.136719 424.015625 104.136719 428.835938 "/>
<path style=" stroke:none;fill-rule:nonzero;fill:rgb(100%,84.3%,0%);fill-opacity:1;" d="M 53.515625 173.558594 C 53.515625 178.378906 46.28125 178.378906 46.28125 173.558594 C 46.28125 168.738281 53.515625 168.738281 53.515625 173.558594 "/>
<path style=" stroke:none;fill-rule:nonzero;fill:rgb(100%,84.3%,0%);fill-opacity:1;" d="M 161.988281 83.164062 C 161.988281 87.984375 154.757812 87.984375 154.757812 83.164062 C 154.757812 78.34375 161.988281 78.34375 161.988281 83.164062 "/>
<path style=" stroke:none;fill-rule:nonzero;fill:rgb(100%,84.3%,0%);fill-opacity:1;" d="M 53.515625 130.167969 C 53.515625 134.988281 46.28125 134.988281 46.28125 130.167969 C 46.28125 125.347656 53.515625 125.347656 53.515625 130.167969 "/>
<path style=" stroke:none;fill-rule:nonzero;fill:rgb(100%,84.3%,0%);fill-opacity:1;" d="M 198.148438 95.703125 C 198.148438 100.523438 190.914062 100.523438 190.914062 95.703125 C 190.914062 90.882812 198.148438 90.882812 198.148438 95.703125 "/>
<path style=" stroke:none;fill-rule:nonzero;fill:rgb(100%,84.3%,0%);fill-opacity:1;" d="M 53.515625 397.738281 C 53.515625 402.5625 46.28125 402.5625 46.28125 397.738281 C 46.28125 392.917969 53.515625 392.917969 53.515625 397.738281 "/>
<path style=" stroke:none;fill-rule:nonzero;fill:rgb(100%,84.3%,0%);fill-opacity:1;" d="M 465.71875 325.425781 C 465.71875 330.246094 458.484375 330.246094 458.484375 325.425781 C 458.484375 320.601562 465.71875 320.601562 465.71875 325.425781 "/>
<path style=" stroke:none;fill-rule:nonzero;fill:rgb(100%,84.3%,0%);fill-opacity:1;" d="M 465.71875 404.972656 C 465.71875 409.792969 458.484375 409.792969 458.484375 404.972656 C 458.484375 400.152344 465.71875 400.152344 465.71875 404.972656 "/>
<path style=" stroke:none;fill-rule:nonzero;fill:rgb(100%,84.3%,0%);fill-opacity:1;" d="M 342.78125 83.164062 C 342.78125 87.984375 335.546875 87.984375 335.546875 83.164062 C 335.546875 78.34375 342.78125 78.34375 342.78125 83.164062 "/>
<path style=" stroke:none;fill-rule:nonzero;fill:rgb(100%,84.3%,0%);fill-opacity:1;" d="M 459.449219 321.808594 C 459.449219 326.628906 452.214844 326.628906 452.214844 321.808594 C 452.214844 316.988281 459.449219 316.988281 459.449219 321.808594 "/>
<path style=" stroke:none;fill-rule:nonzero;fill:rgb(100%,84.3%,0%);fill-opacity:1;" d="M 75.207031 428.835938 C 75.207031 433.65625 67.976562 433.65625 67.976562 428.835938 C 67.976562 424.015625 75.207031 424.015625 75.207031 428.835938 "/>
<path style=" stroke:none;fill-rule:nonzero;fill:rgb(100%,84.3%,0%);fill-opacity:1;" d="M 176.453125 83.164062 C 176.453125 87.984375 169.21875 87.984375 169.21875 83.164062 C 169.21875 78.34375 176.453125 78.34375 176.453125 83.164062 "/>
<path style=" stroke:none;fill-rule:nonzero;fill:rgb(100%,84.3%,0%);fill-opacity:1;" d="M 161.988281 428.835938 C 161.988281 433.65625 154.757812 433.65625 154.757812 428.835938 C 154.757812 424.015625 161.988281 424.015625 161.988281 428.835938 "/>
<path style=" stroke:none;fill-rule:nonzero;fill:rgb(100%,84.3%,0%);fill-opacity:1;" d="M 100.519531 89.433594 C 100.519531 94.253906 93.289062 94.253906 93.289062 89.433594 C 93.289062 84.613281 100.519531 84.613281 100.519531 89.433594 "/>
<path style=" stroke:none;fill-rule:nonzero;fill:rgb(100%,84.3%,0%);fill-opacity:1;" d="M 201.761719 422.566406 C 201.761719 427.386719 194.53125 427.386719 194.53125 422.566406 C 194.53125 417.746094 201.761719 417.746094 201.761719 422.566406 "/>
<path style=" stroke:none;fill-rule:nonzero;fill:rgb(100%,84.3%,0%);fill-opacity:1;" d="M 465.71875 195.253906 C 465.71875 200.074219 458.484375 200.074219 458.484375 195.253906 C 458.484375 190.433594 465.71875 190.433594 465.71875 195.253906 "/>
<path style=" stroke:none;fill-rule:nonzero;fill:rgb(100%,84.3%,0%);fill-opacity:1;" d="M 335.546875 428.835938 C 335.546875 433.65625 328.316406 433.65625 328.316406 428.835938 C 328.316406 424.015625 335.546875 424.015625 335.546875 428.835938 "/>
<path style=" stroke:none;fill-rule:nonzero;fill:rgb(100%,84.3%,0%);fill-opacity:1;" d="M 75.207031 95.703125 C 75.207031 100.523438 67.976562 100.523438 67.976562 95.703125 C 67.976562 90.882812 75.207031 90.882812 75.207031 95.703125 "/>
<path style=" stroke:none;fill-rule:nonzero;fill:rgb(100%,84.3%,0%);fill-opacity:1;" d="M 67.976562 95.703125 C 67.976562 100.523438 60.746094 100.523438 60.746094 95.703125 C 60.746094 90.882812 67.976562 90.882812 67.976562 95.703125 "/>
<path style=" stroke:none;fill-rule:nonzero;fill:rgb(100%,84.3%,0%);fill-opacity:1;" d="M 465.71875 144.632812 C 465.71875 149.453125 458.484375 149.453125 458.484375 144.632812 C 458.484375 139.8125 465.71875 139.8125 465.71875 144.632812 "/>
<path style=" stroke:none;fill-rule:nonzero;fill:rgb(100%,84.3%,0%);fill-opacity:1;" d="M 205.378906 83.164062 C 205.378906 87.984375 198.148438 87.984375 198.148438 83.164062 C 198.148438 78.34375 205.378906 78.34375 205.378906 83.164062 "/>
<path style=" stroke:none;fill-rule:nonzero;fill:rgb(100%,84.3%,0%);fill-opacity:1;" d="M 59.785156 104.859375 C 59.785156 109.679688 52.550781 109.679688 52.550781 104.859375 C 52.550781 100.039062 59.785156 100.039062 59.785156 104.859375 "/>
<path style=" stroke:none;fill-rule:nonzero;fill:rgb(100%,84.3%,0%);fill-opacity:1;" d="M 465.71875 159.097656 C 465.71875 163.917969 458.484375 163.917969 458.484375 159.097656 C 458.484375 154.273438 465.71875 154.273438 465.71875 159.097656 "/>
<path style=" stroke:none;fill-rule:nonzero;fill:rgb(100%,84.3%,0%);fill-opacity:1;" d="M 292.15625 83.164062 C 292.15625 87.984375 284.925781 87.984375 284.925781 83.164062 C 284.925781 78.34375 292.15625 78.34375 292.15625 83.164062 "/>
<path style=" stroke:none;fill-rule:nonzero;fill:rgb(100%,84.3%,0%);fill-opacity:1;" d="M 299.390625 83.164062 C 299.390625 87.984375 292.15625 87.984375 292.15625 83.164062 C 292.15625 78.34375 299.390625 78.34375 299.390625 83.164062 "/>
<path style=" stroke:none;fill-rule:nonzero;fill:rgb(100%,84.3%,0%);fill-opacity:1;" d="M 190.914062 83.164062 C 190.914062 87.984375 183.683594 87.984375 183.683594 83.164062 C 183.683594 78.34375 190.914062 78.34375 190.914062 83.164062 "/>
<path style=" stroke:none;fill-rule:nonzero;fill:rgb(100%,84.3%,0%);fill-opacity:1;" d="M 53.515625 224.179688 C 53.515625 229.003906 46.28125 229.003906 46.28125 224.179688 C 46.28125 219.359375 53.515625 219.359375 53.515625 224.179688 "/>
<path style=" stroke:none;fill-rule:nonzero;fill:rgb(100%,84.3%,0%);fill-opacity:1;" d="M 118.597656 83.164062 C 118.597656 87.984375 111.367188 87.984375 111.367188 83.164062 C 111.367188 78.34375 118.597656 78.34375 118.597656 83.164062 "/>
<path style=" stroke:none;fill-rule:nonzero;fill:rgb(100%,84.3%,0%);fill-opacity:1;" d="M 451.253906 83.164062 C 451.253906 87.984375 444.023438 87.984375 444.023438 83.164062 C 444.023438 78.34375 451.253906 78.34375 451.253906 83.164062 "/>
<path style=" stroke:none;fill-rule:nonzero;fill:rgb(100%,84.3%,0%);fill-opacity:1;" d="M 465.71875 368.8125 C 465.71875 373.636719 458.484375 373.636719 458.484375 368.8125 C 458.484375 363.992188 465.71875 363.992188 465.71875 368.8125 "/>
<path style=" stroke:none;fill-rule:nonzero;fill:rgb(100%,84.3%,0%);fill-opacity:1;" d="M 96.902344 83.164062 C 96.902344 87.984375 89.671875 87.984375 89.671875 83.164062 C 89.671875 78.34375 96.902344 78.34375 96.902344 83.164062 "/>
<path style=" stroke:none;fill-rule:nonzero;fill:rgb(100%,84.3%,0%);fill-opacity:1;" d="M 454.871094 89.433594 C 454.871094 94.253906 447.636719 94.253906 447.636719 89.433594 C 447.636719 84.613281 454.871094 84.613281 454.871094 89.433594 "/>
<path style=" stroke:none;fill-rule:nonzero;fill:rgb(100%,84.3%,0%);fill-opacity:1;" d="M 66.054688 108.476562 C 66.054688 113.296875 58.820312 113.296875 58.820312 108.476562 C 58.820312 103.652344 66.054688 103.652344 66.054688 108.476562 "/>
<path style=" stroke:none;fill-rule:nonzero;fill:rgb(100%,84.3%,0%);fill-opacity:1;" d="M 465.71875 390.507812 C 465.71875 395.328125 458.484375 395.328125 458.484375 390.507812 C 458.484375 385.6875 465.71875 385.6875 465.71875 390.507812 "/>
<path style=" stroke:none;fill-rule:nonzero;fill:rgb(100%,84.3%,0%);fill-opacity:1;" d="M 201.761719 89.433594 C 201.761719 94.253906 194.53125 94.253906 194.53125 89.433594 C 194.53125 84.613281 201.761719 84.613281 201.761719 89.433594 "/>
<path style=" stroke:none;fill-rule:nonzero;fill:rgb(100%,84.3%,0%);fill-opacity:1;" d="M 465.71875 419.433594 C 465.71875 424.257812 458.484375 424.257812 458.484375 419.433594 C 458.484375 414.613281 465.71875 414.613281 465.71875 419.433594 "/>
<path style=" stroke:none;fill-rule:nonzero;fill:rgb(100%,84.3%,0%);fill-opacity:1;" d="M 328.316406 428.835938 C 328.316406 433.65625 321.085938 433.65625 321.085938 428.835938 C 321.085938 424.015625 328.316406 424.015625 328.316406 428.835938 "/>
<path style=" stroke:none;fill-rule:nonzero;fill:rgb(100%,84.3%,0%);fill-opacity:1;" d="M 53.515625 180.789062 C 53.515625 185.613281 46.28125 185.613281 46.28125 180.789062 C 46.28125 175.96875 53.515625 175.96875 53.515625 180.789062 "/>
<path style=" stroke:none;fill-rule:nonzero;fill:rgb(100%,84.3%,0%);fill-opacity:1;" d="M 53.515625 296.496094 C 53.515625 301.316406 46.28125 301.316406 46.28125 296.496094 C 46.28125 291.675781 53.515625 291.675781 53.515625 296.496094 "/>
<path style=" stroke:none;fill-rule:nonzero;fill:rgb(100%,84.3%,0%);fill-opacity:1;" d="M 158.371094 89.433594 C 158.371094 94.253906 151.140625 94.253906 151.140625 89.433594 C 151.140625 84.613281 158.371094 84.613281 158.371094 89.433594 "/>
<path style=" stroke:none;fill-rule:nonzero;fill:rgb(100%,84.3%,0%);fill-opacity:1;" d="M 429.558594 83.164062 C 429.558594 87.984375 422.328125 87.984375 422.328125 83.164062 C 422.328125 78.34375 429.558594 78.34375 429.558594 83.164062 "/>
<path style=" stroke:none;fill-rule:nonzero;fill:rgb(100%,84.3%,0%);fill-opacity:1;" d="M 53.515625 231.410156 C 53.515625 236.234375 46.28125 236.234375 46.28125 231.410156 C 46.28125 226.589844 53.515625 226.589844 53.515625 231.410156 "/>
<path style=" stroke:none;fill-rule:nonzero;fill:rgb(100%,84.3%,0%);fill-opacity:1;" d="M 59.785156 97.628906 C 59.785156 102.449219 52.550781 102.449219 52.550781 97.628906 C 52.550781 92.804688 59.785156 92.804688 59.785156 97.628906 "/>
<path style=" stroke:none;fill-rule:nonzero;fill:rgb(100%,84.3%,0%);fill-opacity:1;" d="M 357.242188 83.164062 C 357.242188 87.984375 350.011719 87.984375 350.011719 83.164062 C 350.011719 78.34375 357.242188 78.34375 357.242188 83.164062 "/>
<path style=" stroke:none;fill-rule:nonzero;fill:rgb(100%,84.3%,0%);fill-opacity:1;" d="M 465.71875 216.949219 C 465.71875 221.769531 458.484375 221.769531 458.484375 216.949219 C 458.484375 212.128906 465.71875 212.128906 465.71875 216.949219 "/>
<path style=" stroke:none;fill-rule:nonzero;fill:rgb(100%,84.3%,0%);fill-opacity:1;" d="M 465.71875 224.179688 C 465.71875 229.003906 458.484375 229.003906 458.484375 224.179688 C 458.484375 219.359375 465.71875 219.359375 465.71875 224.179688 "/>
<path style=" stroke:none;fill-rule:nonzero;fill:rgb(100%,84.3%,0%);fill-opacity:1;" d="M 465.71875 137.402344 C 465.71875 142.222656 458.484375 142.222656 458.484375 137.402344 C 458.484375 132.578125 465.71875 132.578125 465.71875 137.402344 "/>
<path style=" stroke:none;fill-rule:nonzero;fill:rgb(100%,84.3%,0%);fill-opacity:1;" d="M 465.71875 115.707031 C 465.71875 120.527344 458.484375 120.527344 458.484375 115.707031 C 458.484375 110.886719 465.71875 110.886719 465.71875 115.707031 "/>
<path style=" stroke:none;fill-rule:nonzero;fill:rgb(100%,84.3%,0%);fill-opacity:1;" d="M 208.996094 89.433594 C 208.996094 94.253906 201.761719 94.253906 201.761719 89.433594 C 201.761719 84.613281 208.996094 84.613281 208.996094 89.433594 "/>
<path style=" stroke:none;fill-rule:nonzero;fill:rgb(100%,84.3%,0%);fill-opacity:1;" d="M 404.25 422.566406 C 404.25 427.386719 397.015625 427.386719 397.015625 422.566406 C 397.015625 417.746094 404.25 417.746094 404.25 422.566406 "/>
<path style=" stroke:none;fill-rule:nonzero;fill:rgb(100%,84.3%,0%);fill-opacity:1;" d="M 451.253906 95.703125 C 451.253906 100.523438 444.023438 100.523438 444.023438 95.703125 C 444.023438 90.882812 451.253906 90.882812 451.253906 95.703125 "/>
<path style=" stroke:none;fill-rule:nonzero;fill:rgb(100%,84.3%,0%);fill-opacity:1;" d="M 241.535156 83.164062 C 241.535156 87.984375 234.304688 87.984375 234.304688 83.164062 C 234.304688 78.34375 241.535156 78.34375 241.535156 83.164062 "/>
<path style=" stroke:none;fill-rule:nonzero;fill:rgb(100%,84.3%,0%);fill-opacity:1;" d="M 96.902344 428.835938 C 96.902344 433.65625 89.671875 433.65625 89.671875 428.835938 C 89.671875 424.015625 96.902344 424.015625 96.902344 428.835938 "/>
<path style=" stroke:none;fill-rule:nonzero;fill:rgb(100%,84.3%,0%);fill-opacity:1;" d="M 53.515625 195.253906 C 53.515625 200.074219 46.28125 200.074219 46.28125 195.253906 C 46.28125 190.433594 53.515625 190.433594 53.515625 195.253906 "/>
<path style=" stroke:none;fill-rule:nonzero;fill:rgb(100%,84.3%,0%);fill-opacity:1;" d="M 219.84375 428.835938 C 219.84375 433.65625 212.609375 433.65625 212.609375 428.835938 C 212.609375 424.015625 219.84375 424.015625 219.84375 428.835938 "/>
<path style=" stroke:none;fill-rule:nonzero;fill:rgb(100%,84.3%,0%);fill-opacity:1;" d="M 180.066406 89.433594 C 180.066406 94.253906 172.835938 94.253906 172.835938 89.433594 C 172.835938 84.613281 180.066406 84.613281 180.066406 89.433594 "/>
<path style=" stroke:none;fill-rule:nonzero;fill:rgb(100%,84.3%,0%);fill-opacity:1;" d="M 125.832031 428.835938 C 125.832031 433.65625 118.597656 433.65625 118.597656 428.835938 C 118.597656 424.015625 125.832031 424.015625 125.832031 428.835938 "/>
<path style=" stroke:none;fill-rule:nonzero;fill:rgb(100%,84.3%,0%);fill-opacity:1;" d="M 465.71875 282.035156 C 465.71875 286.855469 458.484375 286.855469 458.484375 282.035156 C 458.484375 277.214844 465.71875 277.214844 465.71875 282.035156 "/>
<path style=" stroke:none;fill-rule:nonzero;fill:rgb(100%,84.3%,0%);fill-opacity:1;" d="M 465.71875 260.339844 C 465.71875 265.160156 458.484375 265.160156 458.484375 260.339844 C 458.484375 255.519531 465.71875 255.519531 465.71875 260.339844 "/>
<path style=" stroke:none;fill-rule:nonzero;fill:rgb(100%,84.3%,0%);fill-opacity:1;" d="M 53.515625 216.949219 C 53.515625 221.769531 46.28125 221.769531 46.28125 216.949219 C 46.28125 212.128906 53.515625 212.128906 53.515625 216.949219 "/>
<path style=" stroke:none;fill-rule:nonzero;fill:rgb(100%,84.3%,0%);fill-opacity:1;" d="M 465.71875 122.9375 C 465.71875 127.757812 458.484375 127.757812 458.484375 122.9375 C 458.484375 118.117188 465.71875 118.117188 465.71875 122.9375 "/>
<path style=" stroke:none;fill-rule:nonzero;fill:rgb(100%,84.3%,0%);fill-opacity:1;" d="M 66.054688 115.707031 C 66.054688 120.527344 58.820312 120.527344 58.820312 115.707031 C 58.820312 110.886719 66.054688 110.886719 66.054688 115.707031 "/>
<path style=" stroke:none;fill-rule:nonzero;fill:rgb(100%,84.3%,0%);fill-opacity:1;" d="M 176.453125 428.835938 C 176.453125 433.65625 169.21875 433.65625 169.21875 428.835938 C 169.21875 424.015625 176.453125 424.015625 176.453125 428.835938 "/>
<path style=" stroke:none;fill-rule:nonzero;fill:rgb(100%,84.3%,0%);fill-opacity:1;" d="M 53.515625 159.097656 C 53.515625 163.917969 46.28125 163.917969 46.28125 159.097656 C 46.28125 154.273438 53.515625 154.273438 53.515625 159.097656 "/>
<path style=" stroke:none;fill-rule:nonzero;fill:rgb(100%,84.3%,0%);fill-opacity:1;" d="M 190.914062 95.703125 C 190.914062 100.523438 183.683594 100.523438 183.683594 95.703125 C 183.683594 90.882812 190.914062 90.882812 190.914062 95.703125 "/>
<path style=" stroke:none;fill-rule:nonzero;fill:rgb(100%,84.3%,0%);fill-opacity:1;" d="M 346.394531 422.566406 C 346.394531 427.386719 339.164062 427.386719 339.164062 422.566406 C 339.164062 417.746094 346.394531 417.746094 346.394531 422.566406 "/>
<path style=" stroke:none;fill-rule:nonzero;fill:rgb(100%,84.3%,0%);fill-opacity:1;" d="M 205.378906 416.296875 C 205.378906 421.117188 198.148438 421.117188 198.148438 416.296875 C 198.148438 411.476562 205.378906 411.476562 205.378906 416.296875 "/>
<path style=" stroke:none;fill-rule:nonzero;fill:rgb(100%,84.3%,0%);fill-opacity:1;" d="M 256 83.164062 C 256 87.984375 248.769531 87.984375 248.769531 83.164062 C 248.769531 78.34375 256 78.34375 256 83.164062 "/>
<path style=" stroke:none;fill-rule:nonzero;fill:rgb(100%,84.3%,0%);fill-opacity:1;" d="M 59.785156 394.125 C 59.785156 398.945312 52.550781 398.945312 52.550781 394.125 C 52.550781 389.304688 59.785156 389.304688 59.785156 394.125 "/>
<path style=" stroke:none;fill-rule:nonzero;fill:rgb(100%,84.3%,0%);fill-opacity:1;" d="M 82.441406 83.164062 C 82.441406 87.984375 75.210938 87.984375 75.210938 83.164062 C 75.210938 78.34375 82.441406 78.34375 82.441406 83.164062 "/>
<path style=" stroke:none;fill-rule:nonzero;fill:rgb(100%,84.3%,0%);fill-opacity:1;" d="M 234.304688 428.835938 C 234.304688 433.65625 227.074219 433.65625 227.074219 428.835938 C 227.074219 424.015625 234.304688 424.015625 234.304688 428.835938 "/>
<path style=" stroke:none;fill-rule:nonzero;fill:rgb(100%,84.3%,0%);fill-opacity:1;" d="M 465.71875 173.558594 C 465.71875 178.378906 458.484375 178.378906 458.484375 173.558594 C 458.484375 168.738281 465.71875 168.738281 465.71875 173.558594 "/>
<path style=" stroke:none;fill-rule:nonzero;fill:rgb(100%,84.3%,0%);fill-opacity:1;" d="M 465.71875 428.835938 C 465.71875 433.65625 458.484375 433.65625 458.484375 428.835938 C 458.484375 424.015625 465.71875 424.015625 465.71875 428.835938 "/>
<path style=" stroke:none;fill-rule:nonzero;fill:rgb(100%,84.3%,0%);fill-opacity:1;" d="M 59.785156 119.320312 C 59.785156 124.144531 52.550781 124.144531 52.550781 119.320312 C 52.550781 114.5 59.785156 114.5 59.785156 119.320312 "/>
<path style=" stroke:none;fill-rule:nonzero;fill:rgb(100%,84.3%,0%);fill-opacity:1;" d="M 360.859375 89.433594 C 360.859375 94.253906 353.628906 94.253906 353.628906 89.433594 C 353.628906 84.613281 360.859375 84.613281 360.859375 89.433594 "/>
<path style=" stroke:none;fill-rule:nonzero;fill:rgb(100%,84.3%,0%);fill-opacity:1;" d="M 277.695312 428.835938 C 277.695312 433.65625 270.464844 433.65625 270.464844 428.835938 C 270.464844 424.015625 277.695312 424.015625 277.695312 428.835938 "/>
<path style=" stroke:none;fill-rule:nonzero;fill:rgb(100%,84.3%,0%);fill-opacity:1;" d="M 465.71875 180.789062 C 465.71875 185.613281 458.484375 185.613281 458.484375 180.789062 C 458.484375 175.96875 465.71875 175.96875 465.71875 180.789062 "/>
<path style=" stroke:none;fill-rule:nonzero;fill:rgb(100%,84.3%,0%);fill-opacity:1;" d="M 147.527344 428.835938 C 147.527344 433.65625 140.292969 433.65625 140.292969 428.835938 C 140.292969 424.015625 147.527344 424.015625 147.527344 428.835938 "/>
<path style=" stroke:none;fill-rule:nonzero;fill:rgb(100%,84.3%,0%);fill-opacity:1;" d="M 59.785156 292.882812 C 59.785156 297.703125 52.550781 297.703125 52.550781 292.882812 C 52.550781 288.058594 59.785156 288.058594 59.785156 292.882812 "/>
<path style=" stroke:none;fill-rule:nonzero;fill:rgb(100%,84.3%,0%);fill-opacity:1;" d="M 346.394531 89.433594 C 346.394531 94.253906 339.164062 94.253906 339.164062 89.433594 C 339.164062 84.613281 346.394531 84.613281 346.394531 89.433594 "/>
<path style=" stroke:none;fill-rule:nonzero;fill:rgb(100%,84.3%,0%);fill-opacity:1;" d="M 67.976562 83.164062 C 67.976562 87.984375 60.746094 87.984375 60.746094 83.164062 C 60.746094 78.34375 67.976562 78.34375 67.976562 83.164062 "/>
<path style=" stroke:none;fill-rule:nonzero;fill:rgb(100%,84.3%,0%);fill-opacity:1;" d="M 53.515625 238.644531 C 53.515625 243.464844 46.28125 243.464844 46.28125 238.644531 C 46.28125 233.824219 53.515625 233.824219 53.515625 238.644531 "/>
<path style=" stroke:none;fill-rule:nonzero;fill:rgb(100%,84.3%,0%);fill-opacity:1;" d="M 306.621094 83.164062 C 306.621094 87.984375 299.390625 87.984375 299.390625 83.164062 C 299.390625 78.34375 306.621094 78.34375 306.621094 83.164062 "/>
<path style=" stroke:none;fill-rule:nonzero;fill:rgb(100%,84.3%,0%);fill-opacity:1;" d="M 459.449219 314.574219 C 459.449219 319.398438 452.214844 319.398438 452.214844 314.574219 C 452.214844 309.753906 459.449219 309.753906 459.449219 314.574219 "/>
<path style=" stroke:none;fill-rule:nonzero;fill:rgb(100%,84.3%,0%);fill-opacity:1;" d="M 458.484375 428.835938 C 458.484375 433.65625 451.253906 433.65625 451.253906 428.835938 C 451.253906 424.015625 458.484375 424.015625 458.484375 428.835938 "/>
<path style=" stroke:none;fill-rule:nonzero;fill:rgb(100%,84.3%,0%);fill-opacity:1;" d="M 53.515625 115.707031 C 53.515625 120.527344 46.28125 120.527344 46.28125 115.707031 C 46.28125 110.886719 53.515625 110.886719 53.515625 115.707031 "/>
<path style=" stroke:none;fill-rule:nonzero;fill:rgb(100%,84.3%,0%);fill-opacity:1;" d="M 172.835938 422.566406 C 172.835938 427.386719 165.605469 427.386719 165.605469 422.566406 C 165.605469 417.746094 172.835938 417.746094 172.835938 422.566406 "/>
<path style=" stroke:none;fill-rule:nonzero;fill:rgb(100%,84.3%,0%);fill-opacity:1;" d="M 219.84375 83.164062 C 219.84375 87.984375 212.609375 87.984375 212.609375 83.164062 C 212.609375 78.34375 219.84375 78.34375 219.84375 83.164062 "/>
<path style=" stroke:none;fill-rule:nonzero;fill:rgb(100%,84.3%,0%);fill-opacity:1;" d="M 183.683594 428.835938 C 183.683594 433.65625 176.453125 433.65625 176.453125 428.835938 C 176.453125 424.015625 183.683594 424.015625 183.683594 428.835938 "/>
<path style=" stroke:none;fill-rule:nonzero;fill:rgb(100%,84.3%,0%);fill-opacity:1;" d="M 429.558594 428.835938 C 429.558594 433.65625 422.328125 433.65625 422.328125 428.835938 C 422.328125 424.015625 429.558594 424.015625 429.558594 428.835938 "/>
<path style=" stroke:none;fill-rule:nonzero;fill:rgb(100%,84.3%,0%);fill-opacity:1;" d="M 194.53125 89.433594 C 194.53125 94.253906 187.300781 94.253906 187.300781 89.433594 C 187.300781 84.613281 194.53125 84.613281 194.53125 89.433594 "/>
<path style=" stroke:none;fill-rule:nonzero;fill:rgb(100%,84.3%,0%);fill-opacity:1;" d="M 53.515625 347.117188 C 53.515625 351.941406 46.28125 351.941406 46.28125 347.117188 C 46.28125 342.296875 53.515625 342.296875 53.515625 347.117188 "/>
<path style=" stroke:none;fill-rule:nonzero;fill:rgb(100%,84.3%,0%);fill-opacity:1;" d="M 451.253906 416.296875 C 451.253906 421.117188 444.023438 421.117188 444.023438 416.296875 C 444.023438 411.476562 451.253906 411.476562 451.253906 416.296875 "/>
<path style=" stroke:none;fill-rule:nonzero;fill:rgb(100%,84.3%,0%);fill-opacity:1;" d="M 465.71875 376.046875 C 465.71875 380.867188 458.484375 380.867188 458.484375 376.046875 C 458.484375 371.222656 465.71875 371.222656 465.71875 376.046875 "/>
<path style=" stroke:none;fill-rule:nonzero;fill:rgb(100%,84.3%,0%);fill-opacity:1;" d="M 353.625 89.433594 C 353.625 94.253906 346.394531 94.253906 346.394531 89.433594 C 346.394531 84.613281 353.625 84.613281 353.625 89.433594 "/>
<path style=" stroke:none;fill-rule:nonzero;fill:rgb(100%,84.3%,0%);fill-opacity:1;" d="M 66.054688 390.507812 C 66.054688 395.328125 58.820312 395.328125 58.820312 390.507812 C 58.820312 385.6875 66.054688 385.6875 66.054688 390.507812 "/>
<path style=" stroke:none;fill-rule:nonzero;fill:rgb(100%,84.3%,0%);fill-opacity:1;" d="M 364.476562 83.164062 C 364.476562 87.984375 357.242188 87.984375 357.242188 83.164062 C 357.242188 78.34375 364.476562 78.34375 364.476562 83.164062 "/>
<path style=" stroke:none;fill-rule:nonzero;fill:rgb(100%,84.3%,0%);fill-opacity:1;" d="M 53.515625 108.476562 C 53.515625 113.296875 46.28125 113.296875 46.28125 108.476562 C 46.28125 103.652344 53.515625 103.652344 53.515625 108.476562 "/>
<path style=" stroke:none;fill-rule:nonzero;fill:rgb(100%,84.3%,0%);fill-opacity:1;" d="M 284.925781 428.835938 C 284.925781 433.65625 277.695312 433.65625 277.695312 428.835938 C 277.695312 424.015625 284.925781 424.015625 284.925781 428.835938 "/>
<path style=" stroke:none;fill-rule:nonzero;fill:rgb(100%,84.3%,0%);fill-opacity:1;" d="M 321.085938 428.835938 C 321.085938 433.65625 313.851562 433.65625 313.851562 428.835938 C 313.851562 424.015625 321.085938 424.015625 321.085938 428.835938 "/>
<path style=" stroke:none;fill-rule:nonzero;fill:rgb(100%,84.3%,0%);fill-opacity:1;" d="M 53.515625 368.8125 C 53.515625 373.636719 46.28125 373.636719 46.28125 368.8125 C 46.28125 363.992188 53.515625 363.992188 53.515625 368.8125 "/>
<path style=" stroke:none;fill-rule:nonzero;fill:rgb(100%,84.3%,0%);fill-opacity:1;" d="M 357.242188 428.835938 C 357.242188 433.65625 350.011719 433.65625 350.011719 428.835938 C 350.011719 424.015625 357.242188 424.015625 357.242188 428.835938 "/>
<path style=" stroke:none;fill-rule:nonzero;fill:rgb(100%,84.3%,0%);fill-opacity:1;" d="M 248.769531 428.835938 C 248.769531 433.65625 241.539062 433.65625 241.539062 428.835938 C 241.539062 424.015625 248.769531 424.015625 248.769531 428.835938 "/>
<path style=" stroke:none;fill-rule:nonzero;fill:rgb(100%,84.3%,0%);fill-opacity:1;" d="M 53.515625 202.484375 C 53.515625 207.308594 46.28125 207.308594 46.28125 202.484375 C 46.28125 197.664062 53.515625 197.664062 53.515625 202.484375 "/>
<path style=" stroke:none;fill-rule:nonzero;fill:rgb(100%,84.3%,0%);fill-opacity:1;" d="M 53.515625 144.632812 C 53.515625 149.453125 46.28125 149.453125 46.28125 144.632812 C 46.28125 139.8125 53.515625 139.8125 53.515625 144.632812 "/>
<path style=" stroke:none;fill-rule:nonzero;fill:rgb(100%,84.3%,0%);fill-opacity:1;" d="M 465.71875 332.65625 C 465.71875 337.476562 458.484375 337.476562 458.484375 332.65625 C 458.484375 327.832031 465.71875 327.832031 465.71875 332.65625 "/>
<path style=" stroke:none;fill-rule:nonzero;fill:rgb(100%,84.3%,0%);fill-opacity:1;" d="M 465.71875 412.203125 C 465.71875 417.023438 458.484375 417.023438 458.484375 412.203125 C 458.484375 407.382812 465.71875 407.382812 465.71875 412.203125 "/>
<path style=" stroke:none;fill-rule:nonzero;fill:rgb(100%,84.3%,0%);fill-opacity:1;" d="M 59.785156 112.089844 C 59.785156 116.910156 52.550781 116.910156 52.550781 112.089844 C 52.550781 107.269531 59.785156 107.269531 59.785156 112.089844 "/>
<path style=" stroke:none;fill-rule:nonzero;fill:rgb(100%,84.3%,0%);fill-opacity:1;" d="M 161.988281 95.703125 C 161.988281 100.523438 154.757812 100.523438 154.757812 95.703125 C 154.757812 90.882812 161.988281 90.882812 161.988281 95.703125 "/>
<path style=" stroke:none;fill-rule:nonzero;fill:rgb(100%,84.3%,0%);fill-opacity:1;" d="M 187.300781 422.566406 C 187.300781 427.386719 180.066406 427.386719 180.066406 422.566406 C 180.066406 417.746094 187.300781 417.746094 187.300781 422.566406 "/>
<path style=" stroke:none;fill-rule:nonzero;fill:rgb(100%,84.3%,0%);fill-opacity:1;" d="M 465.71875 303.730469 C 465.71875 308.550781 458.484375 308.550781 458.484375 303.730469 C 458.484375 298.90625 465.71875 298.90625 465.71875 303.730469 "/>
<path style=" stroke:none;fill-rule:nonzero;fill:rgb(100%,84.3%,0%);fill-opacity:1;" d="M 465.71875 151.863281 C 465.71875 156.683594 458.484375 156.683594 458.484375 151.863281 C 458.484375 147.042969 465.71875 147.042969 465.71875 151.863281 "/>
<path style=" stroke:none;fill-rule:nonzero;fill:rgb(100%,84.3%,0%);fill-opacity:1;" d="M 59.785156 278.417969 C 59.785156 283.238281 52.550781 283.238281 52.550781 278.417969 C 52.550781 273.597656 59.785156 273.597656 59.785156 278.417969 "/>
<path style=" stroke:none;fill-rule:nonzero;fill:rgb(100%,84.3%,0%);fill-opacity:1;" d="M 313.851562 83.164062 C 313.851562 87.984375 306.621094 87.984375 306.621094 83.164062 C 306.621094 78.34375 313.851562 78.34375 313.851562 83.164062 "/>
<path style=" stroke:none;fill-rule:nonzero;fill:rgb(100%,84.3%,0%);fill-opacity:1;" d="M 172.835938 89.433594 C 172.835938 94.253906 165.605469 94.253906 165.605469 89.433594 C 165.605469 84.613281 172.835938 84.613281 172.835938 89.433594 "/>
<path style=" stroke:none;fill-rule:nonzero;fill:rgb(100%,84.3%,0%);fill-opacity:1;" d="M 465.71875 397.738281 C 465.71875 402.5625 458.484375 402.5625 458.484375 397.738281 C 458.484375 392.917969 465.71875 392.917969 465.71875 397.738281 "/>
<path style=" stroke:none;fill-rule:nonzero;fill:rgb(100%,84.3%,0%);fill-opacity:1;" d="M 393.402344 83.164062 C 393.402344 87.984375 386.167969 87.984375 386.167969 83.164062 C 386.167969 78.34375 393.402344 78.34375 393.402344 83.164062 "/>
<path style=" stroke:none;fill-rule:nonzero;fill:rgb(100%,84.3%,0%);fill-opacity:1;" d="M 59.785156 285.648438 C 59.785156 290.472656 52.550781 290.472656 52.550781 285.648438 C 52.550781 280.828125 59.785156 280.828125 59.785156 285.648438 "/>
<path style=" stroke:none;fill-rule:nonzero;fill:rgb(100%,84.3%,0%);fill-opacity:1;" d="M 371.707031 83.164062 C 371.707031 87.984375 364.472656 87.984375 364.472656 83.164062 C 364.472656 78.34375 371.707031 78.34375 371.707031 83.164062 "/>
<path style=" stroke:none;fill-rule:nonzero;fill:rgb(100%,84.3%,0%);fill-opacity:1;" d="M 89.671875 83.164062 C 89.671875 87.984375 82.441406 87.984375 82.441406 83.164062 C 82.441406 78.34375 89.671875 78.34375 89.671875 83.164062 "/>
<path style=" stroke:none;fill-rule:nonzero;fill:rgb(100%,84.3%,0%);fill-opacity:1;" d="M 111.367188 83.164062 C 111.367188 87.984375 104.136719 87.984375 104.136719 83.164062 C 104.136719 78.34375 111.367188 78.34375 111.367188 83.164062 "/>
<path style=" stroke:none;fill-rule:nonzero;fill:rgb(100%,84.3%,0%);fill-opacity:1;" d="M 459.449219 104.859375 C 459.449219 109.679688 452.214844 109.679688 452.214844 104.859375 C 452.214844 100.039062 459.449219 100.039062 459.449219 104.859375 "/>
<path style=" stroke:none;fill-rule:nonzero;fill:rgb(100%,84.3%,0%);fill-opacity:1;" d="M 53.515625 101.242188 C 53.515625 106.0625 46.28125 106.0625 46.28125 101.242188 C 46.28125 96.421875 53.515625 96.421875 53.515625 101.242188 "/>
<path style=" stroke:none;fill-rule:nonzero;fill:rgb(100%,84.3%,0%);fill-opacity:1;" d="M 368.089844 89.433594 C 368.089844 94.253906 360.859375 94.253906 360.859375 89.433594 C 360.859375 84.613281 368.089844 84.613281 368.089844 89.433594 "/>
<path style=" stroke:none;fill-rule:nonzero;fill:rgb(100%,84.3%,0%);fill-opacity:1;" d="M 122.214844 89.433594 C 122.214844 94.253906 114.984375 94.253906 114.984375 89.433594 C 114.984375 84.613281 122.214844 84.613281 122.214844 89.433594 "/>
<path style=" stroke:none;fill-rule:nonzero;fill:rgb(100%,84.3%,0%);fill-opacity:1;" d="M 59.785156 307.34375 C 59.785156 312.167969 52.550781 312.167969 52.550781 307.34375 C 52.550781 302.523438 59.785156 302.523438 59.785156 307.34375 "/>
<path style=" stroke:none;fill-rule:nonzero;fill:rgb(100%,84.3%,0%);fill-opacity:1;" d="M 465.71875 231.410156 C 465.71875 236.234375 458.484375 236.234375 458.484375 231.410156 C 458.484375 226.589844 465.71875 226.589844 465.71875 231.410156 "/>
<path style=" stroke:none;fill-rule:nonzero;fill:rgb(100%,84.3%,0%);fill-opacity:1;" d="M 59.785156 379.660156 C 59.785156 384.480469 52.550781 384.480469 52.550781 379.660156 C 52.550781 374.839844 59.785156 374.839844 59.785156 379.660156 "/>
<path style=" stroke:none;fill-rule:nonzero;fill:rgb(100%,84.3%,0%);fill-opacity:1;" d="M 133.0625 83.164062 C 133.0625 87.984375 125.832031 87.984375 125.832031 83.164062 C 125.832031 78.34375 133.0625 78.34375 133.0625 83.164062 "/>
<path style=" stroke:none;fill-rule:nonzero;fill:rgb(100%,84.3%,0%);fill-opacity:1;" d="M 465.71875 274.800781 C 465.71875 279.625 458.484375 279.625 458.484375 274.800781 C 458.484375 269.980469 465.71875 269.980469 465.71875 274.800781 "/>
<path style=" stroke:none;fill-rule:nonzero;fill:rgb(100%,84.3%,0%);fill-opacity:1;" d="M 422.328125 83.164062 C 422.328125 87.984375 415.097656 87.984375 415.097656 83.164062 C 415.097656 78.34375 422.328125 78.34375 422.328125 83.164062 "/>
<path style=" stroke:none;fill-rule:nonzero;fill:rgb(100%,84.3%,0%);fill-opacity:1;" d="M 284.925781 83.164062 C 284.925781 87.984375 277.695312 87.984375 277.695312 83.164062 C 277.695312 78.34375 284.925781 78.34375 284.925781 83.164062 "/>
<path style=" stroke:none;fill-rule:nonzero;fill:rgb(100%,84.3%,0%);fill-opacity:1;" d="M 216.226562 422.566406 C 216.226562 427.386719 208.996094 427.386719 208.996094 422.566406 C 208.996094 417.746094 216.226562 417.746094 216.226562 422.566406 "/>
<path style=" stroke:none;fill-rule:nonzero;fill:rgb(100%,84.3%,0%);fill-opacity:1;" d="M 465.71875 209.71875 C 465.71875 214.539062 458.484375 214.539062 458.484375 209.71875 C 458.484375 204.898438 465.71875 204.898438 465.71875 209.71875 "/>
<path style=" stroke:none;fill-rule:nonzero;fill:rgb(100%,84.3%,0%);fill-opacity:1;" d="M 53.515625 122.9375 C 53.515625 127.757812 46.28125 127.757812 46.28125 122.9375 C 46.28125 118.117188 53.515625 118.117188 53.515625 122.9375 "/>
<path style=" stroke:none;fill-rule:nonzero;fill:rgb(100%,84.3%,0%);fill-opacity:1;" d="M 212.609375 83.164062 C 212.609375 87.984375 205.378906 87.984375 205.378906 83.164062 C 205.378906 78.34375 212.609375 78.34375 212.609375 83.164062 "/>
<path style=" stroke:none;fill-rule:nonzero;fill:rgb(100%,84.3%,0%);fill-opacity:1;" d="M 465.71875 310.960938 C 465.71875 315.78125 458.484375 315.78125 458.484375 310.960938 C 458.484375 306.140625 465.71875 306.140625 465.71875 310.960938 "/>
</g>
</svg>
