<?xml version="1.0" encoding="UTF-8"?>
<svg xmlns="http://www.w3.org/2000/svg" xmlns:xlink="http://www.w3.org/1999/xlink" width="512pt" height="512pt" viewBox="0 0 512 512" version="1.1">
<g id="surface41">
<path style=" stroke:none;fill-rule:nonzero;fill:rgb(26.7%,26.7%,26.7%);fill-opacity:1;" d="M 32 0 L 480 0 L 480 512 L 32 512 Z M 32 0 "/>
<path style=" stroke:none;fill-rule:nonzero;fill:rgb(19.2%,38.8%,66.7%);fill-opacity:1;" d="M 69.332031 42.667969 L 442.667969 42.667969 L 442.667969 469.332031 L 69.332031 469.332031 Z M 69.332031 42.667969 "/>
<path style=" stroke:none;fill-rule:nonzero;fill:rgb(100%,100%,100%);fill-opacity:1;" d="M 412.800781 8.53125 C 412.800781 14.425781 408.023438 19.199219 402.132812 19.199219 C 396.242188 19.199219 391.464844 14.425781 391.464844 8.53125 C 391.464844 2.640625 396.242188 -2.132812 402.132812 -2.132812 C 408.023438 -2.132812 412.800781 2.640625 412.800781 8.53125 "/>
<path style=" stroke:none;fill-rule:nonzero;fill:rgb(100%,100%,100%);fill-opacity:1;" d="M 459.734375 238.933594 C 459.734375 244.824219 454.957031 249.601562 449.066406 249.601562 C 443.175781 249.601562 438.398438 244.824219 438.398438 238.933594 C 438.398438 233.042969 443.175781 228.265625 449.066406 228.265625 C 454.957031 228.265625 459.734375 233.042969 459.734375 238.933594 "/>
<path style=" stroke:none;fill-rule:nonzero;fill:rgb(100%,100%,100%);fill-opacity:1;" d="M 468.265625 264.53125 C 468.265625 270.425781 463.492188 275.199219 457.601562 275.199219 C 451.707031 275.199219 446.933594 270.425781 446.933594 264.53125 C 446.933594 258.640625 451.707031 253.867188 457.601562 253.867188 C 463.492188 253.867188 468.265625 258.640625 468.265625 264.53125 "/>
<path style=" stroke:none;fill-rule:nonzero;fill:rgb(100%,100%,100%);fill-opacity:1;" d="M 242.132812 -8.53125 C 242.132812 -2.640625 237.359375 2.132812 231.46875 2.132812 C 225.574219 2.132812 220.800781 -2.640625 220.800781 -8.53125 C 220.800781 -14.425781 225.574219 -19.199219 231.46875 -19.199219 C 237.359375 -19.199219 242.132812 -14.425781 242.132812 -8.53125 "/>
<path style=" stroke:none;fill-rule:nonzero;fill:rgb(100%,100%,100%);fill-opacity:1;" d="M 35.199219 215.46875 C 35.199219 221.359375 30.425781 226.132812 24.53125 226.132812 C 18.640625 226.132812 13.867188 221.359375 13.867188 215.46875 C 13.867188 209.574219 18.640625 204.800781 24.53125 204.800781 C 30.425781 204.800781 35.199219 209.574219 35.199219 215.46875 "/>
<path style=" stroke:none;fill-rule:nonzero;fill:rgb(100%,100%,100%);fill-opacity:1;" d="M 500.265625 46.933594 C 500.265625 52.824219 495.492188 57.601562 489.601562 57.601562 C 483.707031 57.601562 478.933594 52.824219 478.933594 46.933594 C 478.933594 41.042969 483.707031 36.265625 489.601562 36.265625 C 495.492188 36.265625 500.265625 41.042969 500.265625 46.933594 "/>
<path style=" stroke:none;fill-rule:nonzero;fill:rgb(100%,100%,100%);fill-opacity:1;" d="M 478.933594 12.800781 C 478.933594 18.691406 474.15625 23.464844 468.265625 23.464844 C 462.375 23.464844 457.601562 18.691406 457.601562 12.800781 C 457.601562 6.910156 462.375 2.132812 468.265625 2.132812 C 474.15625 2.132812 478.933594 6.910156 478.933594 12.800781 "/>
<path style=" stroke:none;fill-rule:nonzero;fill:rgb(100%,100%,100%);fill-opacity:1;" d="M 137.601562 19.199219 C 137.601562 25.089844 132.824219 29.867188 126.933594 29.867188 C 121.042969 29.867188 116.265625 25.089844 116.265625 19.199219 C 116.265625 13.308594 121.042969 8.535156 126.933594 8.535156 C 132.824219 8.535156 137.601562 13.308594 137.601562 19.199219 "/>
<path style=" stroke:none;fill-rule:nonzero;fill:rgb(100%,100%,100%);fill-opacity:1;" d="M 37.332031 6.398438 C 37.332031 12.292969 32.558594 17.066406 26.667969 17.066406 C 20.777344 17.066406 16 12.292969 16 6.398438 C 16 0.507812 20.777344 -4.265625 26.667969 -4.265625 C 32.558594 -4.265625 37.332031 0.507812 37.332031 6.398438 "/>
<path style=" stroke:none;fill-rule:nonzero;fill:rgb(100%,100%,100%);fill-opacity:1;" d="M 69.332031 260.265625 C 69.332031 266.15625 64.558594 270.933594 58.667969 270.933594 C 52.777344 270.933594 48 266.15625 48 260.265625 C 48 254.375 52.777344 249.601562 58.667969 249.601562 C 64.558594 249.601562 69.332031 254.375 69.332031 260.265625 "/>
<path style=" stroke:none;fill-rule:nonzero;fill:rgb(100%,100%,100%);fill-opacity:1;" d="M 82.132812 8.53125 C 82.132812 14.425781 77.359375 19.199219 71.46875 19.199219 C 65.574219 19.199219 60.800781 14.425781 60.800781 8.53125 C 60.800781 2.640625 65.574219 -2.132812 71.46875 -2.132812 C 77.359375 -2.132812 82.132812 2.640625 82.132812 8.53125 "/>
<path style=" stroke:none;fill-rule:nonzero;fill:rgb(100%,100%,100%);fill-opacity:1;" d="M 468.265625 437.332031 C 468.265625 443.222656 463.492188 448 457.601562 448 C 451.707031 448 446.933594 443.222656 446.933594 437.332031 C 446.933594 431.441406 451.707031 426.667969 457.601562 426.667969 C 463.492188 426.667969 468.265625 431.441406 468.265625 437.332031 "/>
<path style=" stroke:none;fill-rule:nonzero;fill:rgb(100%,100%,100%);fill-opacity:1;" d="M 498.132812 326.398438 C 498.132812 332.292969 493.359375 337.066406 487.46875 337.066406 C 481.574219 337.066406 476.800781 332.292969 476.800781 326.398438 C 476.800781 320.507812 481.574219 315.734375 487.46875 315.734375 C 493.359375 315.734375 498.132812 320.507812 498.132812 326.398438 "/>
<path style=" stroke:none;fill-rule:nonzero;fill:rgb(100%,100%,100%);fill-opacity:1;" d="M 461.867188 326.398438 C 461.867188 332.292969 457.089844 337.066406 451.199219 337.066406 C 445.308594 337.066406 440.535156 332.292969 440.535156 326.398438 C 440.535156 320.507812 445.308594 315.734375 451.199219 315.734375 C 457.089844 315.734375 461.867188 320.507812 461.867188 326.398438 "/>
<path style=" stroke:none;fill-rule:nonzero;fill:rgb(100%,100%,100%);fill-opacity:1;" d="M 485.332031 -2.132812 C 485.332031 3.757812 480.558594 8.535156 474.667969 8.535156 C 468.777344 8.535156 464 3.757812 464 -2.132812 C 464 -8.023438 468.777344 -12.800781 474.667969 -12.800781 C 480.558594 -12.800781 485.332031 -8.023438 485.332031 -2.132812 "/>
<path style=" stroke:none;fill-rule:nonzero;fill:rgb(100%,84.3%,0%);fill-opacity:1;" d="M 101.332031 448 C 101.332031 453.890625 96.558594 458.667969 90.667969 458.667969 C 84.777344 458.667969 80 453.890625 80 448 C 80 442.109375 84.777344 437.332031 90.667969 437.332031 C 96.558594 437.332031 101.332031 442.109375 101.332031 448 "/>
<path style=" stroke:none;fill-rule:nonzero;fill:rgb(100%,84.3%,0%);fill-opacity:1;" d="M 293.332031 64 C 293.332031 69.890625 288.558594 74.667969 282.667969 74.667969 C 276.777344 74.667969 272 69.890625 272 64 C 272 58.109375 276.777344 53.332031 282.667969 53.332031 C 288.558594 53.332031 293.332031 58.109375 293.332031 64 "/>
<path style=" stroke:none;fill-rule:nonzero;fill:rgb(100%,84.3%,0%);fill-opacity:1;" d="M 293.332031 448 C 293.332031 453.890625 288.558594 458.667969 282.667969 458.667969 C 276.777344 458.667969 272 453.890625 272 448 C 272 442.109375 276.777344 437.332031 282.667969 437.332031 C 288.558594 437.332031 293.332031 442.109375 293.332031 448 "/>
<path style=" stroke:none;fill-rule:nonzero;fill:rgb(100%,84.3%,0%);fill-opacity:1;" d="M 314.667969 448 C 314.667969 453.890625 309.890625 458.667969 304 458.667969 C 298.109375 458.667969 293.332031 453.890625 293.332031 448 C 293.332031 442.109375 298.109375 437.332031 304 437.332031 C 309.890625 437.332031 314.667969 442.109375 314.667969 448 "/>
<path style=" stroke:none;fill-rule:nonzero;fill:rgb(100%,84.3%,0%);fill-opacity:1;" d="M 101.332031 204.800781 C 101.332031 210.691406 96.558594 215.464844 90.667969 215.464844 C 84.777344 215.464844 80 210.691406 80 204.800781 C 80 198.910156 84.777344 194.132812 90.667969 194.132812 C 96.558594 194.132812 101.332031 198.910156 101.332031 204.800781 "/>
<path style=" stroke:none;fill-rule:nonzero;fill:rgb(100%,84.3%,0%);fill-opacity:1;" d="M 165.332031 448 C 165.332031 453.890625 160.558594 458.667969 154.667969 458.667969 C 148.777344 458.667969 144 453.890625 144 448 C 144 442.109375 148.777344 437.332031 154.667969 437.332031 C 160.558594 437.332031 165.332031 442.109375 165.332031 448 "/>
<path style=" stroke:none;fill-rule:nonzero;fill:rgb(100%,84.3%,0%);fill-opacity:1;" d="M 357.332031 64 C 357.332031 69.890625 352.558594 74.667969 346.667969 74.667969 C 340.777344 74.667969 336 69.890625 336 64 C 336 58.109375 340.777344 53.332031 346.667969 53.332031 C 352.558594 53.332031 357.332031 58.109375 357.332031 64 "/>
<path style=" stroke:none;fill-rule:nonzero;fill:rgb(100%,84.3%,0%);fill-opacity:1;" d="M 272 64 C 272 69.890625 267.222656 74.667969 261.332031 74.667969 C 255.441406 74.667969 250.667969 69.890625 250.667969 64 C 250.667969 58.109375 255.441406 53.332031 261.332031 53.332031 C 267.222656 53.332031 272 58.109375 272 64 "/>
<path style=" stroke:none;fill-rule:nonzero;fill:rgb(100%,84.3%,0%);fill-opacity:1;" d="M 336 448 C 336 453.890625 331.222656 458.667969 325.332031 458.667969 C 319.441406 458.667969 314.667969 453.890625 314.667969 448 C 314.667969 442.109375 319.441406 437.332031 325.332031 437.332031 C 331.222656 437.332031 336 442.109375 336 448 "/>
<path style=" stroke:none;fill-rule:nonzero;fill:rgb(100%,84.3%,0%);fill-opacity:1;" d="M 208 64 C 208 69.890625 203.222656 74.667969 197.332031 74.667969 C 191.441406 74.667969 186.667969 69.890625 186.667969 64 C 186.667969 58.109375 191.441406 53.332031 197.332031 53.332031 C 203.222656 53.332031 208 58.109375 208 64 "/>
<path style=" stroke:none;fill-rule:nonzero;fill:rgb(100%,84.3%,0%);fill-opacity:1;" d="M 250.667969 64 C 250.667969 69.890625 245.890625 74.667969 240 74.667969 C 234.109375 74.667969 229.332031 69.890625 229.332031 64 C 229.332031 58.109375 234.109375 53.332031 240 53.332031 C 245.890625 53.332031 250.667969 58.109375 250.667969 64 "/>
<path style=" stroke:none;fill-rule:nonzero;fill:rgb(100%,84.3%,0%);fill-opacity:1;" d="M 101.332031 162.132812 C 101.332031 168.023438 96.558594 172.800781 90.667969 172.800781 C 84.777344 172.800781 80 168.023438 80 162.132812 C 80 156.242188 84.777344 151.464844 90.667969 151.464844 C 96.558594 151.464844 101.332031 156.242188 101.332031 162.132812 "/>
<path style=" stroke:none;fill-rule:nonzero;fill:rgb(100%,84.3%,0%);fill-opacity:1;" d="M 144 448 C 144 453.890625 139.222656 458.667969 133.332031 458.667969 C 127.441406 458.667969 122.667969 453.890625 122.667969 448 C 122.667969 442.109375 127.441406 437.332031 133.332031 437.332031 C 139.222656 437.332031 144 442.109375 144 448 "/>
<path style=" stroke:none;fill-rule:nonzero;fill:rgb(100%,84.3%,0%);fill-opacity:1;" d="M 432 119.46875 C 432 125.359375 427.222656 130.132812 421.332031 130.132812 C 415.441406 130.132812 410.667969 125.359375 410.667969 119.46875 C 410.667969 113.574219 415.441406 108.800781 421.332031 108.800781 C 427.222656 108.800781 432 113.574219 432 119.46875 "/>
<path style=" stroke:none;fill-rule:nonzero;fill:rgb(100%,84.3%,0%);fill-opacity:1;" d="M 250.667969 448 C 250.667969 453.890625 245.890625 458.667969 240 458.667969 C 234.109375 458.667969 229.332031 453.890625 229.332031 448 C 229.332031 442.109375 234.109375 437.332031 240 437.332031 C 245.890625 437.332031 250.667969 442.109375 250.667969 448 "/>
<path style=" stroke:none;fill-rule:nonzero;fill:rgb(100%,84.3%,0%);fill-opacity:1;" d="M 122.667969 448 C 122.667969 453.890625 117.890625 458.667969 112 458.667969 C 106.109375 458.667969 101.332031 453.890625 101.332031 448 C 101.332031 442.109375 106.109375 437.332031 112 437.332031 C 117.890625 437.332031 122.667969 442.109375 122.667969 448 "/>
<path style=" stroke:none;fill-rule:nonzero;fill:rgb(100%,84.3%,0%);fill-opacity:1;" d="M 432 64 C 432 69.890625 427.222656 74.667969 421.332031 74.667969 C 415.441406 74.667969 410.667969 69.890625 410.667969 64 C 410.667969 58.109375 415.441406 53.332031 421.332031 53.332031 C 427.222656 53.332031 432 58.109375 432 64 "/>
<path style=" stroke:none;fill-rule:nonzero;fill:rgb(100%,84.3%,0%);fill-opacity:1;" d="M 432 268.800781 C 432 274.691406 427.222656 279.464844 421.332031 279.464844 C 415.441406 279.464844 410.667969 274.691406 410.667969 268.800781 C 410.667969 262.910156 415.441406 258.132812 421.332031 258.132812 C 427.222656 258.132812 432 262.910156 432 268.800781 "/>
<path style=" stroke:none;fill-rule:nonzero;fill:rgb(100%,84.3%,0%);fill-opacity:1;" d="M 432 290.132812 C 432 296.023438 427.222656 300.800781 421.332031 300.800781 C 415.441406 300.800781 410.667969 296.023438 410.667969 290.132812 C 410.667969 284.242188 415.441406 279.464844 421.332031 279.464844 C 427.222656 279.464844 432 284.242188 432 290.132812 "/>
<path style=" stroke:none;fill-rule:nonzero;fill:rgb(100%,84.3%,0%);fill-opacity:1;" d="M 186.667969 64 C 186.667969 69.890625 181.890625 74.667969 176 74.667969 C 170.109375 74.667969 165.332031 69.890625 165.332031 64 C 165.332031 58.109375 170.109375 53.332031 176 53.332031 C 181.890625 53.332031 186.667969 58.109375 186.667969 64 "/>
<path style=" stroke:none;fill-rule:nonzero;fill:rgb(100%,84.3%,0%);fill-opacity:1;" d="M 432 396.800781 C 432 402.691406 427.222656 407.464844 421.332031 407.464844 C 415.441406 407.464844 410.667969 402.691406 410.667969 396.800781 C 410.667969 390.910156 415.441406 386.132812 421.332031 386.132812 C 427.222656 386.132812 432 390.910156 432 396.800781 "/>
<path style=" stroke:none;fill-rule:nonzero;fill:rgb(100%,84.3%,0%);fill-opacity:1;" d="M 101.332031 268.800781 C 101.332031 274.691406 96.558594 279.464844 90.667969 279.464844 C 84.777344 279.464844 80 274.691406 80 268.800781 C 80 262.910156 84.777344 258.132812 90.667969 258.132812 C 96.558594 258.132812 101.332031 262.910156 101.332031 268.800781 "/>
<path style=" stroke:none;fill-rule:nonzero;fill:rgb(100%,84.3%,0%);fill-opacity:1;" d="M 432 247.46875 C 432 253.359375 427.222656 258.132812 421.332031 258.132812 C 415.441406 258.132812 410.667969 253.359375 410.667969 247.46875 C 410.667969 241.574219 415.441406 236.800781 421.332031 236.800781 C 427.222656 236.800781 432 241.574219 432 247.46875 "/>
<path style=" stroke:none;fill-rule:nonzero;fill:rgb(100%,84.3%,0%);fill-opacity:1;" d="M 101.332031 226.132812 C 101.332031 232.023438 96.558594 236.800781 90.667969 236.800781 C 84.777344 236.800781 80 232.023438 80 226.132812 C 80 220.242188 84.777344 215.464844 90.667969 215.464844 C 96.558594 215.464844 101.332031 220.242188 101.332031 226.132812 "/>
<path style=" stroke:none;fill-rule:nonzero;fill:rgb(100%,84.3%,0%);fill-opacity:1;" d="M 378.667969 64 C 378.667969 69.890625 373.890625 74.667969 368 74.667969 C 362.109375 74.667969 357.332031 69.890625 357.332031 64 C 357.332031 58.109375 362.109375 53.332031 368 53.332031 C 373.890625 53.332031 378.667969 58.109375 378.667969 64 "/>
<path style=" stroke:none;fill-rule:nonzero;fill:rgb(100%,84.3%,0%);fill-opacity:1;" d="M 101.332031 290.132812 C 101.332031 296.023438 96.558594 300.800781 90.667969 300.800781 C 84.777344 300.800781 80 296.023438 80 290.132812 C 80 284.242188 84.777344 279.464844 90.667969 279.464844 C 96.558594 279.464844 101.332031 284.242188 101.332031 290.132812 "/>
<path style=" stroke:none;fill-rule:nonzero;fill:rgb(100%,84.3%,0%);fill-opacity:1;" d="M 272 448 C 272 453.890625 267.222656 458.667969 261.332031 458.667969 C 255.441406 458.667969 250.667969 453.890625 250.667969 448 C 250.667969 442.109375 255.441406 437.332031 261.332031 437.332031 C 267.222656 437.332031 272 442.109375 272 448 "/>
<path style=" stroke:none;fill-rule:nonzero;fill:rgb(100%,84.3%,0%);fill-opacity:1;" d="M 101.332031 98.132812 C 101.332031 104.023438 96.558594 108.800781 90.667969 108.800781 C 84.777344 108.800781 80 104.023438 80 98.132812 C 80 92.242188 84.777344 87.464844 90.667969 87.464844 C 96.558594 87.464844 101.332031 92.242188 101.332031 98.132812 "/>
<path style=" stroke:none;fill-rule:nonzero;fill:rgb(100%,84.3%,0%);fill-opacity:1;" d="M 101.332031 64 C 101.332031 69.890625 96.558594 74.667969 90.667969 74.667969 C 84.777344 74.667969 80 69.890625 80 64 C 80 58.109375 84.777344 53.332031 90.667969 53.332031 C 96.558594 53.332031 101.332031 58.109375 101.332031 64 "/>
<path style=" stroke:none;fill-rule:nonzero;fill:rgb(100%,84.3%,0%);fill-opacity:1;" d="M 432 354.132812 C 432 360.023438 427.222656 364.800781 421.332031 364.800781 C 415.441406 364.800781 410.667969 360.023438 410.667969 354.132812 C 410.667969 348.242188 415.441406 343.464844 421.332031 343.464844 C 427.222656 343.464844 432 348.242188 432 354.132812 "/>
<path style=" stroke:none;fill-rule:nonzero;fill:rgb(100%,84.3%,0%);fill-opacity:1;" d="M 432 375.46875 C 432 381.359375 427.222656 386.132812 421.332031 386.132812 C 415.441406 386.132812 410.667969 381.359375 410.667969 375.46875 C 410.667969 369.574219 415.441406 364.800781 421.332031 364.800781 C 427.222656 364.800781 432 369.574219 432 375.46875 "/>
<path style=" stroke:none;fill-rule:nonzero;fill:rgb(100%,84.3%,0%);fill-opacity:1;" d="M 229.332031 64 C 229.332031 69.890625 224.558594 74.667969 218.667969 74.667969 C 212.777344 74.667969 208 69.890625 208 64 C 208 58.109375 212.777344 53.332031 218.667969 53.332031 C 224.558594 53.332031 229.332031 58.109375 229.332031 64 "/>
<path style=" stroke:none;fill-rule:nonzero;fill:rgb(100%,84.3%,0%);fill-opacity:1;" d="M 410.667969 82.496094 C 410.667969 88.386719 405.890625 93.164062 400 93.164062 C 394.109375 93.164062 389.332031 88.386719 389.332031 82.496094 C 389.332031 76.605469 394.109375 71.832031 400 71.832031 C 405.890625 71.832031 410.667969 76.605469 410.667969 82.496094 "/>
<path style=" stroke:none;fill-rule:nonzero;fill:rgb(100%,84.3%,0%);fill-opacity:1;" d="M 208 448 C 208 453.890625 203.222656 458.667969 197.332031 458.667969 C 191.441406 458.667969 186.667969 453.890625 186.667969 448 C 186.667969 442.109375 191.441406 437.332031 197.332031 437.332031 C 203.222656 437.332031 208 442.109375 208 448 "/>
<path style=" stroke:none;fill-rule:nonzero;fill:rgb(100%,84.3%,0%);fill-opacity:1;" d="M 144 64 C 144 69.890625 139.222656 74.667969 133.332031 74.667969 C 127.441406 74.667969 122.667969 69.890625 122.667969 64 C 122.667969 58.109375 127.441406 53.332031 133.332031 53.332031 C 139.222656 53.332031 144 58.109375 144 64 "/>
<path style=" stroke:none;fill-rule:nonzero;fill:rgb(100%,84.3%,0%);fill-opacity:1;" d="M 432 226.132812 C 432 232.023438 427.222656 236.800781 421.332031 236.800781 C 415.441406 236.800781 410.667969 232.023438 410.667969 226.132812 C 410.667969 220.242188 415.441406 215.464844 421.332031 215.464844 C 427.222656 215.464844 432 220.242188 432 226.132812 "/>
<path style=" stroke:none;fill-rule:nonzero;fill:rgb(100%,84.3%,0%);fill-opacity:1;" d="M 410.667969 429.503906 C 410.667969 435.394531 405.890625 440.167969 400 440.167969 C 394.109375 440.167969 389.332031 435.394531 389.332031 429.503906 C 389.332031 423.613281 394.109375 418.835938 400 418.835938 C 405.890625 418.835938 410.667969 423.613281 410.667969 429.503906 "/>
<path style=" stroke:none;fill-rule:nonzero;fill:rgb(100%,84.3%,0%);fill-opacity:1;" d="M 336 64 C 336 69.890625 331.222656 74.667969 325.332031 74.667969 C 319.441406 74.667969 314.667969 69.890625 314.667969 64 C 314.667969 58.109375 319.441406 53.332031 325.332031 53.332031 C 331.222656 53.332031 336 58.109375 336 64 "/>
<path style=" stroke:none;fill-rule:nonzero;fill:rgb(100%,84.3%,0%);fill-opacity:1;" d="M 165.332031 64 C 165.332031 69.890625 160.558594 74.667969 154.667969 74.667969 C 148.777344 74.667969 144 69.890625 144 64 C 144 58.109375 148.777344 53.332031 154.667969 53.332031 C 160.558594 53.332031 165.332031 58.109375 165.332031 64 "/>
<path style=" stroke:none;fill-rule:nonzero;fill:rgb(100%,84.3%,0%);fill-opacity:1;" d="M 101.332031 183.46875 C 101.332031 189.359375 96.558594 194.132812 90.667969 194.132812 C 84.777344 194.132812 80 189.359375 80 183.46875 C 80 177.574219 84.777344 172.800781 90.667969 172.800781 C 96.558594 172.800781 101.332031 177.574219 101.332031 183.46875 "/>
<path style=" stroke:none;fill-rule:nonzero;fill:rgb(100%,84.3%,0%);fill-opacity:1;" d="M 122.667969 64 C 122.667969 69.890625 117.890625 74.667969 112 74.667969 C 106.109375 74.667969 101.332031 69.890625 101.332031 64 C 101.332031 58.109375 106.109375 53.332031 112 53.332031 C 117.890625 53.332031 122.667969 58.109375 122.667969 64 "/>
<path style=" stroke:none;fill-rule:nonzero;fill:rgb(100%,84.3%,0%);fill-opacity:1;" d="M 229.332031 448 C 229.332031 453.890625 224.558594 458.667969 218.667969 458.667969 C 212.777344 458.667969 208 453.890625 208 448 C 208 442.109375 212.777344 437.332031 218.667969 437.332031 C 224.558594 437.332031 229.332031 442.109375 229.332031 448 "/>
<path style=" stroke:none;fill-rule:nonzero;fill:rgb(100%,84.3%,0%);fill-opacity:1;" d="M 432 332.800781 C 432 338.691406 427.222656 343.464844 421.332031 343.464844 C 415.441406 343.464844 410.667969 338.691406 410.667969 332.800781 C 410.667969 326.910156 415.441406 322.132812 421.332031 322.132812 C 427.222656 322.132812 432 326.910156 432 332.800781 "/>
<path style=" stroke:none;fill-rule:nonzero;fill:rgb(100%,84.3%,0%);fill-opacity:1;" d="M 101.332031 311.46875 C 101.332031 317.359375 96.558594 322.132812 90.667969 322.132812 C 84.777344 322.132812 80 317.359375 80 311.46875 C 80 305.574219 84.777344 300.800781 90.667969 300.800781 C 96.558594 300.800781 101.332031 305.574219 101.332031 311.46875 "/>
<path style=" stroke:none;fill-rule:nonzero;fill:rgb(100%,84.3%,0%);fill-opacity:1;" d="M 432 448 C 432 453.890625 427.222656 458.667969 421.332031 458.667969 C 415.441406 458.667969 410.667969 453.890625 410.667969 448 C 410.667969 442.109375 415.441406 437.332031 421.332031 437.332031 C 427.222656 437.332031 432 442.109375 432 448 "/>
<path style=" stroke:none;fill-rule:nonzero;fill:rgb(100%,84.3%,0%);fill-opacity:1;" d="M 378.667969 448 C 378.667969 453.890625 373.890625 458.667969 368 458.667969 C 362.109375 458.667969 357.332031 453.890625 357.332031 448 C 357.332031 442.109375 362.109375 437.332031 368 437.332031 C 373.890625 437.332031 378.667969 442.109375 378.667969 448 "/>
<path style=" stroke:none;fill-rule:nonzero;fill:rgb(100%,84.3%,0%);fill-opacity:1;" d="M 357.332031 448 C 357.332031 453.890625 352.558594 458.667969 346.667969 458.667969 C 340.777344 458.667969 336 453.890625 336 448 C 336 442.109375 340.777344 437.332031 346.667969 437.332031 C 352.558594 437.332031 357.332031 442.109375 357.332031 448 "/>
<path style=" stroke:none;fill-rule:nonzero;fill:rgb(100%,84.3%,0%);fill-opacity:1;" d="M 101.332031 247.46875 C 101.332031 253.359375 96.558594 258.132812 90.667969 258.132812 C 84.777344 258.132812 80 253.359375 80 247.46875 C 80 241.574219 84.777344 236.800781 90.667969 236.800781 C 96.558594 236.800781 101.332031 241.574219 101.332031 247.46875 "/>
<path style=" stroke:none;fill-rule:nonzero;fill:rgb(100%,84.3%,0%);fill-opacity:1;" d="M 400 448 C 400 453.890625 395.222656 458.667969 389.332031 458.667969 C 383.441406 458.667969 378.667969 453.890625 378.667969 448 C 378.667969 442.109375 383.441406 437.332031 389.332031 437.332031 C 395.222656 437.332031 400 442.109375 400 448 "/>
<path style=" stroke:none;fill-rule:nonzero;fill:rgb(100%,84.3%,0%);fill-opacity:1;" d="M 432 311.46875 C 432 317.359375 427.222656 322.132812 421.332031 322.132812 C 415.441406 322.132812 410.667969 317.359375 410.667969 311.46875 C 410.667969 305.574219 415.441406 300.800781 421.332031 300.800781 C 427.222656 300.800781 432 305.574219 432 311.46875 "/>
<path style=" stroke:none;fill-rule:nonzero;fill:rgb(100%,84.3%,0%);fill-opacity:1;" d="M 186.667969 448 C 186.667969 453.890625 181.890625 458.667969 176 458.667969 C 170.109375 458.667969 165.332031 453.890625 165.332031 448 C 165.332031 442.109375 170.109375 437.332031 176 437.332031 C 181.890625 437.332031 186.667969 442.109375 186.667969 448 "/>
<path style=" stroke:none;fill-rule:nonzero;fill:rgb(100%,84.3%,0%);fill-opacity:1;" d="M 119.828125 215.46875 C 119.828125 221.359375 115.054688 226.132812 109.164062 226.132812 C 103.273438 226.132812 98.496094 221.359375 98.496094 215.46875 C 98.496094 209.574219 103.273438 204.800781 109.164062 204.800781 C 115.054688 204.800781 119.828125 209.574219 119.828125 215.46875 "/>
<path style=" stroke:none;fill-rule:nonzero;fill:rgb(100%,84.3%,0%);fill-opacity:1;" d="M 400 64 C 400 69.890625 395.222656 74.667969 389.332031 74.667969 C 383.441406 74.667969 378.667969 69.890625 378.667969 64 C 378.667969 58.109375 383.441406 53.332031 389.332031 53.332031 C 395.222656 53.332031 400 58.109375 400 64 "/>
<path style=" stroke:none;fill-rule:nonzero;fill:rgb(100%,84.3%,0%);fill-opacity:1;" d="M 432 98.132812 C 432 104.023438 427.222656 108.800781 421.332031 108.800781 C 415.441406 108.800781 410.667969 104.023438 410.667969 98.132812 C 410.667969 92.242188 415.441406 87.464844 421.332031 87.464844 C 427.222656 87.464844 432 92.242188 432 98.132812 "/>
<path style=" stroke:none;fill-rule:nonzero;fill:rgb(100%,84.3%,0%);fill-opacity:1;" d="M 432 418.132812 C 432 424.023438 427.222656 428.800781 421.332031 428.800781 C 415.441406 428.800781 410.667969 424.023438 410.667969 418.132812 C 410.667969 412.242188 415.441406 407.464844 421.332031 407.464844 C 427.222656 407.464844 432 412.242188 432 418.132812 "/>
<path style=" stroke:none;fill-rule:nonzero;fill:rgb(100%,84.3%,0%);fill-opacity:1;" d="M 432 204.800781 C 432 210.691406 427.222656 215.464844 421.332031 215.464844 C 415.441406 215.464844 410.667969 210.691406 410.667969 204.800781 C 410.667969 198.910156 415.441406 194.132812 421.332031 194.132812 C 427.222656 194.132812 432 198.910156 432 204.800781 "/>
</g>
</svg>
